<?xml version="1.0" encoding="UTF-8"?>
<svg id="Layer_1" data-name="Layer 1" xmlns="http://www.w3.org/2000/svg" viewBox="0 0 84.28 84.58">
  <defs>
    <style>
      .cls-1 {
        fill: #b6d883;
        stroke-width: 0px;
      }
    </style>
  </defs>
  <g>
    <path class="cls-1" d="M65.22,22.11c-.09.03-.23.16-.14.22l.3-.15-.16-.06Z"/>
    <path class="cls-1" d="M65.1,22.98c.19,0,.5-.07.71-.3-.33.09-.23,0-.61.12-.08-.05,0-.19.1-.25-.09.02-.03-.16-.22-.07-.13.25-.06.37.21.38-.04.07-.13.09-.18.12Z"/>
    <path class="cls-1" d="M66.42,31.2l.05-.05s-.04.03-.05.05Z"/>
    <path class="cls-1" d="M64.04,35.59s0-.07-.01-.09c0,.04-.01.07.01.09Z"/>
    <path class="cls-1" d="M63.19,35.88s.03,0,.05-.01c-.03-.01-.06-.01-.05.01Z"/>
    <path class="cls-1" d="M66.42,31.2l-.13.11c.1.03.09-.05.13-.11Z"/>
    <path class="cls-1" d="M66.45,23.61s-.07-.03-.12-.03c.03.02.05.03.07.05l.05-.02Z"/>
    <path class="cls-1" d="M66.31,28.95v-.04s-.09-.02-.14-.03l.14.07Z"/>
    <path class="cls-1" d="M66.06,27.27s.27,0,.4-.01c-.12,0-.18-.02-.21-.05-.05.01-.11.03-.19.06Z"/>
    <path class="cls-1" d="M65.63,24.52l-.06-.03s.04.02.06.03Z"/>
    <path class="cls-1" d="M66.23,30.16s-.08,0-.1,0c.03,0,.07,0,.1,0Z"/>
    <path class="cls-1" d="M64.81,19.4s-.03.02-.04.03c.03,0,.05-.01.04-.03Z"/>
    <polygon class="cls-1" points="64.56 22.1 64.53 22.07 64.38 22.1 64.56 22.1"/>
    <path class="cls-1" d="M61.79,36.37h0s0-.03,0,0Z"/>
    <path class="cls-1" d="M51.12,32.17c-.19.23-.39-.16-.58.16.1-.05.49.08.58-.16Z"/>
    <path class="cls-1" d="M66.44,23.67s.03.05.04.07c0-.04-.02-.06-.04-.07Z"/>
    <path class="cls-1" d="M50.54,32.34h0s-.02.03-.02.03c0-.01.01-.02.02-.03Z"/>
    <path class="cls-1" d="M58.63,37.44s.03.08.04.12c0-.03-.01-.06-.04-.12Z"/>
    <path class="cls-1" d="M61.23,37.25h-.07s.06,0,.07,0Z"/>
    <path class="cls-1" d="M57.29,37.83s-.04-.06-.09-.03c0,.01,0,.02.01.04.02-.04.05-.05.08,0Z"/>
    <path class="cls-1" d="M55.89,37.59s0,.04.01.06h.05s-.06-.06-.06-.06Z"/>
    <path class="cls-1" d="M60.1,16.54c.02.09.02.18.02.26.02-.2.3-.21-.02-.26Z"/>
    <path class="cls-1" d="M66.31,23.69c.07-.03.1-.03.13-.01l-.04-.04s-.07.03-.09.06Z"/>
    <path class="cls-1" d="M57.03,40.03l-.28-.07c.08.03.18.06.28.07Z"/>
    <path class="cls-1" d="M49.56,21.76v-.07s-.02.04,0,.07Z"/>
    <path class="cls-1" d="M55.9,39.86c-.03-.11-.07-.17-.12-.22-.02.02-.03.03-.05.06l.17.16Z"/>
    <path class="cls-1" d="M60.12,16.81h0s0,0,0,0Z"/>
    <path class="cls-1" d="M62.12,16.84c-.26-.13-.28.27-.42.44-.33-.04-.02-.31-.05-.53-.23,0-.5.27-.64.21.01-.06-.01-.09.05-.15-.3.21-.61-.21-.94.11,0-.04-.01-.07,0-.1,0,.19-.05.37-.09.5-.11-.02-.25.18-.24-.06.06.02.09-.07.14-.14l-.14.08c-.03-.36.19-.08.25-.33-.26.06-.58.27-.74.15.02-.35.44-.03.25-.38l.25.19c-.1-.57.17.08.09-.53-.37-.19-.46.08-.83-.07-.11.18,0,.28-.11.46-.55.27-.35-.9-.79-.46-.11.22-.16.65-.43.42l.09-.38c-.38-.05-.2.55-.59.31.06-.16.28-.15.22-.19-.27-.28-.17.23-.35.24l-.07-.34c-.4.07-.79.4-1.19.54,0-.1.05-.22-.07-.3-.5.3-1.15.28-1.75.34l-.07.35s-.14-.08-.12-.15c-.25,0,.07.17.03.32-.09.08-.22-.07-.19-.19-.23.42-.62.99-1.1.99v-.11c-.31.1.11.66-.26.63v-.07c-.57.33-.83,1.01-1.48,1.11.28.33-.53.4-.08.77-.45.12-.47-.01-.91.32-.1.11.2.36.18.54l-.27-.15.18.36-.38-.06v.18s.18-.06.26,0c.01.28-.46.44-.6.38v.64c-.1-.06-.1-.16-.14-.27.17.41-.32-.07-.17.31.08-.01.16.08.22.11-.22.07-.33.38-.33.63l-.19-.11c-.2.4-.16.91-.27,1.38.13-.15.48-.03.49.11h-.33c.18.12.15-.13.35.1-.07.16-.39.04-.47-.08l.07.24c-.1,0-.14-.07-.26-.1.18.12-.4.32-.07.51h-.1c-.06.48,0,.71,0,1.1.28.03.21.18.43.31-.11.27-.35.58-.32.93.14.24.24.07.4.18-.26.02-.24.36-.42.18.05.41.07.53.31,1.03.1-.06.14-.13.23-.1.04.09-.09.22-.21.21l-.03-.02c.43.51-.57,1.44.04,1.82l-.03-.02.37.41c0,.22-.22-.09-.34.11.53.4.14.82.55,1.15-.62.57.44,1.1.2,1.71l.15-.1c.21.04-.03.17-.03.27.12-.07.09-.19.21-.16.62.8.8,1.97,1.48,2.91.27.33.81-.5.88.16l-.33.15c.85.26,1.33,1.04,2.19,1.1-.08.05-.12.14-.19.1.04.3.56.26.63.08.1.07-.04.17-.01.3.11.2.49-.12.5.12,0,.04-.07.06-.11.07.14-.08.47.18.46-.12.24.21.56.05.74.24.21-.27.46.24.58-.18-.1.45.45.44.64.24-.07.13.14.16.05.34.21.01.41-.05.38-.29.37.56.75-.43.97.27.6-.26,1.13-.49,1.63-.71.07.45-.57.16-.48.62.49-.29.7-.69,1.2-.73.14.02-.02.21-.04.3.45-.31.98-.24,1.31-.66.01.04-.01.1-.04.15.08-.05.22-.02.13-.2l-.06.08c-.24-.23.08-.7.02-.85.11.6.44-.06.56.71.04-.06.06-.18-.01-.3.09,0,.16.05.15.23.24-.25.03-.39.29-.52.05.09.02.15.05.26.04-.23.06-.48.31-.54.02.06.09.11.02.15.34-.26.3-.8.75-.94.17.42.21.01.47.28l.12-.24-.2-.07c.18-.13.11-.47.32-.51v.22s.23-.34.23-.34l-.26.06c0-.29-.35-.31-.09-.44-.01.06.15-.14.38-.08h0c-.03-.16-.06-.32.1-.38.12.04.3.28.38.31-.19-.28.25-.44.04-.74.04.08.2.19.24.2l-.16-.22c.12-.04.16-.03.28.07.2-.22-.45-.18-.09-.36,0,.03.04.04.04.11.28-.24.21-.65.45-.87.38.08-.04.29.29.34.17-.46,0-1.06.23-1.44l-.07.06c-.48-.23.37-.22.18-.52.02.06.26.16.21.12.16-.27.07-.64-.02-1.12l.12.08c.15-.15.16-.45.25-.63-.13-.08-.09-.18-.3-.14.41-.24.35-.55.25-.83-.11-.28-.24-.54.09-.8,0,.06.12.15.12.1-.03-.15-.09-.3-.14-.45-.23.04-.14.06-.31.16-.14-.05-.25-.17-.26-.27.16.19.37-.02.49-.12-.07.02-.15,0-.22,0,.4-.26-.47,0-.21-.33h.12c-.07-.11-.25-.19-.23-.32.26-.08.14.11.36.09-.04-.18-.55-.28-.31-.47.08.06.1.17.18.23.29-.22.2-.23.24-.37h0c.03-.09.07-.21.09-.31l-.07.09c-.73-.09-.22-.43-.73-.61.48.18.25-.01.55-.06.07-.1.13-.24.22-.22-.27-.08.12-.29-.28-.39.09-.04-.04-.15.21-.19-.13-.16-.15.09-.27.11-.39-.17.17-.79-.42-1.02-.3-.27-.64-.18-.93-.4.09-.17.36-.08.36-.08.05-.22-.03-.33-.21-.43.09,0,.14-.07.21-.17-.09-.11-.36.09-.32-.13.11-.03.28-.08.41-.08-.16-.1-.4-.14-.56-.24.12-.13.27-.05.4-.05-.17-.13-.39-.34-.64-.24l-.02.15s.17-.16.24-.14c.26.02.04.25-.04.31l-.11-.07c-.43.4.32.34.41.57l-.41.12c.14,0,.27.03.41.04-.07.1-.26.23-.37.16-.11.24.2.06.05.29-.03.03-.05.03-.07.03l.18.09c-.09.01-.25.15-.24.04-.09.34.48.27.23.5h-.03c.27.29.29-.1.74.05l-.63.45.3-.07s.01.12-.11.15c.25.07.12-.07.33-.05-.21.27.28.48-.17.66.24,0,.12-.23.33-.07-.49.2.17.2-.03.44-.27.01-.17-.18-.37.05.47,0-.03.35.09.47.36-.07.22.28.37.51-.13,0-.13.49-.24.72h-.06c.37,0,.31.25.4.42-.22,0-.31-.02-.41-.11v.16c.13.03.2.08.24.18l-.28-.03c.03.2.32.42.13.69.26.03.72-.2.88.11-.14,0-.38,0-.43-.08.02.03.11.1.05.15l-.23-.13c-.11.12.19.08.17.18-.2-.01-.14.07-.3.04-.02-.03.08-.08,0-.13-.03.11-.17.24-.32.27.11,0,.27.02.28.11,0,.21-.24.05-.36.16.13.06-.02.18.27.22,0,.06-.15.05-.23.07.13.13-.05.5.28.43l.03-.02v.02s0,0,0,0h0c.23.42-.31.71-.29,1.08l-.09-.03c.06.24-.07.47.06.69-.02.06-.22.08-.32,0,.01.18.11.24-.13.39-.1-.22-.16,0-.06-.2-.15.16-.32.13-.18.44-.19-.18-.35,0-.33.12l.22-.05c-.02.12-.08.19-.14.27l-.27-.21c-.54.13.2,1.01-.54.88.12.22.27-.08.43.15-.16.13-.66,0-.69.04-.3.07.24.51-.05.62.11.06.38.24.3.47-.18.12-.53-.17-.51-.33.02-.04.07-.03.09,0,.01-.07.03-.16-.12-.2l.07.1c-.15-.02-.32.17-.41,0-.02.18.09.18.21.15-.28.05-.27.26-.54.32.07.03.19.11.16.13-.38.12.02.28-.15.48-.22-.06-.21-.37-.33-.11-.2-.02-.21-.24-.21-.35-.05.31-.42.1-.54.12l.04-.14c-.02.08-.07.11-.12.14l.18.17c-.08,0-.12.03-.17-.05.02.17.25.32.23.57-.14-.06-.2.25-.37-.02.31-.04-.17-.27.01-.42-.02.05-.07.08-.15.07-.03-.03-.02-.06-.01-.09-.36-.13.05.37-.21.5-.04-.18-.2-.27-.23-.23.11-.04.17.25.13.41-.23-.06-.15.17-.25.19l.13.02c.03.18-.07.19-.18.3-.06-.13.08-.13.01-.17-.03.35-.42-.17-.55.07-.13-.09-.11-.32-.21-.37-.15.28-.29-.17-.46.08.12.21.12.16.01.42.12-.08.23-.18.34-.27l-.16.41c.12-.03.21-.22.29-.2-.06.22-.07.16.04.34-.26-.3-.27.31-.53.1l-.12-.58c-.32-.22-.43.41-.82.29l.13.09c-.02.24-.23.05-.34.16,0-.2-.09-.26-.15-.38.02.14-.26.02-.28.4l-.17-.26c-.29-.11-.34.57-.64.49.1-.21-.03-.35.17-.5-.09,0-.18-.05-.19.09-.05-.13-.28.24-.36.05-.05.08-.08.29-.19.26,0-.04.01-.1.01-.1-.01.1-.19.12-.12.34-.21-.65-.87-.1-1-.69-.22,0-.48-.01-.67-.05.03-.05.03-.09.06-.06-.18-.27-.35.47-.57.16-.02-.35.22-.1.17-.24.22-.62-.38-.05-.38-.49h.06c-.02-.28-.43.03-.63-.14,0,0,.04-.04.05-.08-.32.2-.65.08-.91,0,.22-.15.17-.04.29-.27-.11-.04-.23.35-.46.27.02-.15,0-.36.16-.58l.15.13c.16-.34-.19-.17-.23-.29l.12-.1c-.24-.17-.55.12-.75-.16l-.06.1c-.42.11.06-.26-.28-.22l.27-.29c-.15-.03-.57-.11-.76-.26.31-.05.59.06.82.08-.07-.1-.26-.3-.45-.25.06.02.17.01.15.09-.34.06-.58-.03-.71-.25.67-.35-.16-.66.3-1.09-.44-.26-.23-.8-.43-1.24-.5.36-.06-.13-.63.09-.07-.1-.08-.15-.04-.17l.24-.45c.15-.13.16.07.29.02-.02-.25.22-.17.33-.37-.2.09-.32,0-.28-.16l-.22.27c-.41-.27.42-.42.03-.69l.21.07c-.16-.15-.13-.65-.64-.74.06-.04.22-.11.28-.04,0-.43-.65-.91-.37-1.28l.15.02c-.05-.08-.29-.12-.14-.24.06,0,.15.02.16-.01-.05-.04-.27-.21-.19-.32l.17.09c.17-.42-.41-.65-.51-1.03.44.02.61-.31.69-.47h.06c.09-.46-.28-.85-.37-1.34.51-.2.39-.91.78-1.26-.1.04-.32-.11-.34-.2.12-.07-.19-.38.18-.23l-.02.03c.4.05.36-.19.44-.33l-.48-.22c.86-.11.24-1.2.96-1.1-.06-.15.01-.26-.05-.42l.24.15c.21-.21.31-.3.47-.62l.12.18c.13-.14-.5-.7-.39-.86l.36.23c.23-.28.72-.27.72-.77.04.05.11.15.08.2.12-.12.64-.19.24-.6.24.29.3-.19.37-.44l.13.24c-.07-.37-.11-.46.03-.66.07,0,.15.17.06.14.22.04-.01-.3.25-.29v.2c.18-.08.13-.14.13-.37.06-.15.36-.08.48.14-.04-.15-.02-.39.11-.36.05.08.03.15.02.19.35.08.35-.45.63-.25.03.09.05.13.08.15-.23.07-.43.11-.41.08.08.24.27.23.24.61.07-.22.21-.73.43-.63.01.02.03.04.04.08v.03s.07-.01.09-.06c.07.03.11.05.17.05.06.21.23.07.32.07-.05-.28.09-.24-.06-.46.02.02-.01.04-.08.06-.01.01-.03.02-.04.04v-.03c-.06.02-.14.04-.23.06.05-.15.12-.29.25-.16.02-.19.06-.38.08-.47.2.38.47.57.52.81.28-.2.68-.11.9-.64.09-.07.09.15.12.24-.05.05-.11.04-.14.12.18-.15.51,0,.6-.36.2.19-.17.32.14.3l-.06.11c.25.31.5.16.8,0,.3-.17.63-.23.81.22-.03-.06-.04-.09-.03-.15.3.28.68.38,1.04.53.18.08.36.16.51.28.14.14.25.3.3.52.09.2.25.05.47.02l-.18.25.4-.08c.45.07-.26.87.36.89l.14-.15c.06.13.32.35.1.43.04,0,.21-.05.14.04l-.14.07c.13.06.27.13.4.2-.03.3-.6.19-.52.54.09.1.56.25.65.18-.01-.06.05-.17.2-.22l.12.12c.46-.09.97-.05,1.15-.55l-.36-.2.18-.17.09.24c.16-.2-.05-.24-.2-.29.11-.06.17-.14.19-.21-.16-.05-.35-.07-.53-.1.15-.11.39-.02.39-.25-.25-.04-.31.29-.54.14.13-.22.3-.26.06-.33.1-.08.18-.08.26-.04-.2-.07-.23-.34-.49-.27.14-.26-.34-.37.02-.61-.12.02-.43-.01-.52-.1.57-.15-.32-.39.14-.73-.47.18-.63-.35-1.07-.34.04-.02.11-.05.12-.02-.12-.15-.07-.29-.11-.44-.25.29-.53.2-.79.33.02-.43.36-.32.51-.65-.17.27-.51.06-.58.32-.02-.29-.06-.17.02-.5-.27.41-.18-.02-.45.19-.11-.32.15-.44-.16-.42-.05-.19.24-.24.24-.24ZM55.87,16.91h0s.09-.04.12-.04c-.02,0-.06.02-.12.04ZM55.38,17.05c.06,0,.14-.03.22-.05.04.09.05.19,0,.2,0-.07-.12-.09-.21-.15ZM56.73,18.74c-.05.05-.08,0-.1-.05.03-.01.06-.03.1-.05v-.04c0,.05,0,.11,0,.14Z"/>
    <path class="cls-1" d="M56.79,18.35s.01-.02.02-.03c-.02-.02-.03-.04-.05-.06v.09s.02-.01.02-.01Z"/>
    <path class="cls-1" d="M66.48,31.15h0s.02,0,.04,0c-.02,0-.02,0-.04,0Z"/>
    <polygon class="cls-1" points="49.7 21.18 49.76 21.22 49.73 21.15 49.7 21.18"/>
    <path class="cls-1" d="M67.57,28.64s.05-.02.07-.04c-.02,0-.04.02-.07.04Z"/>
    <path class="cls-1" d="M67.51,27.48l.08-.18c-.05.08-.07.14-.08.18Z"/>
    <path class="cls-1" d="M67.47,26.57c-.05,0-.09,0-.12.01h0s.12-.01.12-.01Z"/>
    <path class="cls-1" d="M61.99,38.98s-.02.01-.03.03c-.06.08-.01.04.03-.03Z"/>
    <path class="cls-1" d="M65.16,35.96c.01.07.02.13,0,.19.07-.04.11-.08,0-.19Z"/>
    <polygon class="cls-1" points="57.06 40.04 57.06 40.03 57.03 40.03 57.06 40.04"/>
    <path class="cls-1" d="M65.02,36.29c.09-.02.13-.07.14-.14-.06.03-.13.07-.14.14Z"/>
    <path class="cls-1" d="M66.05,22.89v-.04s-.04.02-.05.02l.05.02Z"/>
    <path class="cls-1" d="M65.99,22.87l-.05-.02s.02.03.05.02Z"/>
    <path class="cls-1" d="M65.83,22.8l.12.05s-.03-.07-.12-.05Z"/>
    <path class="cls-1" d="M66.54,24.01l.1-.03s-.05.01-.1.03Z"/>
    <path class="cls-1" d="M66.72,24.33c-.02-.09.1-.29-.01-.37l-.08.03c.16-.01-.1.35.09.35Z"/>
    <path class="cls-1" d="M66.07,26.13v-.29c-.09.08-.21.19-.27.08-.21.43.21-.15.27.21Z"/>
    <path class="cls-1" d="M66.14,26.98c-.08-.13-.15.04-.21.04.12.07.15.08.21-.04Z"/>
    <path class="cls-1" d="M65.75,32.91l-.23-.11c0,.11.09.04.23.11Z"/>
    <polygon class="cls-1" points="66.43 34.59 66.62 34.55 66.44 34.39 66.43 34.59"/>
    <polygon class="cls-1" points="64.5 34.24 64.49 34.18 64.48 34.38 64.5 34.24"/>
    <path class="cls-1" d="M56.19,37.41l-.04.31c.09-.04.17-.38.04-.31Z"/>
    <path class="cls-1" d="M52.54,35.65c.09-.14.09-.29-.08-.25.04.09.01.24.08.25Z"/>
    <polygon class="cls-1" points="51.44 23.4 51.5 23.51 51.48 23.34 51.44 23.4"/>
  </g>
  <g>
    <g>
      <path class="cls-1" d="M42.53,74.47c0,.09,0,.28,0,.24v-.33s0,.09,0,.09Z"/>
      <path class="cls-1" d="M42.57,75.08c0-.16.01-.44,0-.75,0,.32,0,.19-.01.56,0,.04,0-.11,0-.23,0,.08,0-.07-.01.14,0,.26.02.27.02.05,0,.07,0,.16,0,.22Z"/>
      <path class="cls-1" d="M42.52,75.17h.04s-.03,0-.04,0Z"/>
      <path class="cls-1" d="M42.3,75.45s-.04,0-.07-.01c.02,0,.04,0,.07.01Z"/>
      <path class="cls-1" d="M41.93,75.46s.02,0,.02,0c-.03,0-.05,0-.02,0Z"/>
      <path class="cls-1" d="M42.52,75.17h-.1c.11,0,.08,0,.1,0Z"/>
      <path class="cls-1" d="M42.64,74.28s0,.05,0,.09c0-.01,0-.03,0-.04v-.05Z"/>
      <path class="cls-1" d="M42.94,75.86h0s0,.08,0,.14v-.14Z"/>
      <path class="cls-1" d="M42.84,75.91s0-.27,0-.39c0,.12,0,.17,0,.19,0,.05,0,.12,0,.2Z"/>
      <path class="cls-1" d="M42.66,75.42v.04s0-.02,0-.04Z"/>
      <path class="cls-1" d="M42.2,75.07s-.08,0-.1-.01c.03,0,.07,0,.1.01Z"/>
      <path class="cls-1" d="M41.25,75.46s.03,0,.05,0c-.03,0-.05,0-.05,0Z"/>
      <polygon class="cls-1" points="42.61 75.12 42.62 75.12 42.78 75.1 42.61 75.12"/>
      <path class="cls-1" d="M41.56,75.51h0s-.03,0,0,0Z"/>
      <path class="cls-1" d="M41.64,76.4c.25.03.32.07.59.1-.11-.02-.43-.08-.59-.1Z"/>
      <path class="cls-1" d="M42.64,74.32h0s0-.01,0,0Z"/>
      <path class="cls-1" d="M42.24,76.5h0s.03,0,.03,0c-.01,0-.02,0-.03,0Z"/>
      <path class="cls-1" d="M41.69,75.75s.09.01.12.01c-.03,0-.06,0-.12-.01Z"/>
      <path class="cls-1" d="M42.11,75.64h-.04s.04,0,.04,0Z"/>
      <path class="cls-1" d="M42.08,75.89s-.06,0-.02,0c.01,0,.02,0,.03,0-.04,0-.06-.01-.01,0Z"/>
      <path class="cls-1" d="M42.07,75.98s.04,0,.06,0h-.01s-.04,0-.04,0Z"/>
      <path class="cls-1" d="M41.43,75.71c.08-.01.16-.03.25-.04-.2.03-.27.03-.25.04Z"/>
      <path class="cls-1" d="M42.64,74.44c0-.07,0-.11,0-.12,0,0,0,0,0,.02,0,.04,0,.08,0,.11Z"/>
      <path class="cls-1" d="M44.27,76.21h-.04s.04,0,.04,0Z"/>
      <path class="cls-1" d="M41.57,76.36h-.03s0,0,.03,0Z"/>
      <path class="cls-1" d="M44.26,76.27c-.1,0-.16-.02-.19-.02.02,0,.04,0,.07.01h.12Z"/>
      <path class="cls-1" d="M41.68,75.67h0s0,0,0,0Z"/>
      <path class="cls-1" d="M41,75.68s.36-.05.57-.08c.11,0-.27.05-.45.08.1,0,.43-.05.42-.04-.06,0-.08.01-.16.02.29-.03.02.03.39-.01-.03,0-.06.01-.09.02.18-.03.37-.06.5-.08,0,0,.23-.02,0,.02,0,0-.09,0-.16.02h.1c-.34.05-.12,0-.37.04.11,0,.4-.03.3,0-.34.05-.12,0-.41.05l.13-.04c-.52.08.03,0-.53.08-.09.03.17,0,.08.03.19-.03.28-.04.46-.07.34-.02-.84.15-.39.1.22-.03.65-.09.43-.04l-.38.05s.55-.07.29-.01c-.15.02-.13,0-.17.01-.3.06.22-.02.22-.01l-.34.05c.06.01.3,0,.37,0-.1.02-.2.03-.31.05.17,0-.03.07-.23.13l.29-.04s-.13.03-.19.03c-.11.03.18-.03.3-.04.02,0-.17.03-.25.04.25-.02.54-.03.23.04h-.09c-.12.04.6-.07.33,0h-.05c-.12.06.15.05-.28.15.42-.06-.18.06.4-.03-.29.06-.39.08-.58.13-.03.01.37-.05.43-.05l-.3.05.32-.04-.36.06h.08s.14-.03.22-.05c.14,0-.21.07-.36.09h.26c-.12,0-.17,0-.24.02.31-.03-.32.05-.03.02.07-.01.18-.03.24-.04-.18.04-.18.05-.1.05l-.21.03s.11.03.11.06c.1-.02.46-.08.5-.08l-.32.05c.2-.03.12-.03.37-.06-.04.02-.36.06-.47.07h.11c-.1,0-.15.02-.27.03.2-.03-.32.07.03.02l-.1.02s.11.02.13.04c.28-.04.22-.03.44-.05-.09.03-.3.08-.28.1.14,0,.24-.03.4-.05-.25.04-.23.06-.41.07.04.02.06.02.27.02.1-.02.15-.03.23-.04.04,0-.1.03-.23.05h-.03c.35-.02-.55.16-.3.14h2.53s-.05,0-.1-.01h.03s-.27-.07-.27-.07c.05,0,.19.04.35.06-.42-.1.07-.04-.21-.11.75.1-.04-.07.44-.02l-.18-.03c-.17-.03.1,0,.14,0-.14-.02-.16-.02-.25-.04-.2-.09.27-.07.44-.11.05-.01-.91-.15-.48-.11l.33.06c-.39-.1.03-.08-.3-.17.08.01.17.03.17.03.24.03.02-.03-.18-.06.02,0,.18.02.27.04.14.01-.3-.07-.06-.04.04,0,.08.01.09.02-.11-.02.03-.02-.24-.06.13,0-.12-.05.05-.04-.31-.05.15,0-.28-.07.45.07.36.03.16-.01.14.02.14.02.33.04,0-.01-.09-.03-.32-.07.54.06-.43-.1.26-.02-.24-.07-.4-.12-.5-.16.45.06.04.04.51.1-.18-.05-.56-.12-.45-.14.06,0,.19.03.27.04-.18-.05.05-.05-.19-.11.04,0,.09.02.12.02-.01,0,.07,0-.14-.03h.05c-.3-.02-.61-.09-.77-.11.58.09.15,0,.88.11-.04,0-.13-.02-.27-.04.04,0,.12,0,.27.04-.11-.03-.33-.05-.32-.07.1.02.14.02.25.04-.19-.03-.38-.07-.3-.07.06,0,.13.02.13.02-.03-.03-.51-.11-.32-.11.43.06.14.01.51.06l-.11-.03-.18-.02s-.26-.06-.14-.05l.15.03-.07-.03h-.14c-.19-.04-.47-.06-.36-.07.04,0,0-.01.23.01h0c-.12-.02-.24-.04-.15-.04.12.02.41.05.49.06-.31-.05-.08-.04-.41-.09.08.01.27.04.31.04l-.25-.04c.08,0,.12,0,.28.03.05-.01-.47-.05-.27-.05.02,0,.06,0,.1.02.11,0-.15-.06-.03-.06.37.04.09.03.4.06-.06-.03-.44-.11-.35-.12h-.04c-.53-.07.26.01.02-.03.04,0,.18.02.23.03.09,0-.12-.05-.29-.1l.13.02c.12,0,.07-.02.14-.02-.13-.02-.11-.02-.31-.04.51.04.17-.02.07-.06l-.44-.5c-.01.06-.02.05-.03-.17v-.12s-.02.13-.02.13c0,.23,0,.14,0,.32,0,.14,0,.24-.02.24.01-.15,0-.37,0-.5,0,.07,0,.15,0,.22-.01-.41,0,.46-.02.19v-.12c0,.06-.01.22-.02.19,0-.27,0-.12,0-.34-.01.02-.02.51-.03.24,0-.07,0-.08.01-.15-.01-.31-.01-.23-.02-.28h0s-.02-.13-.02-.13v.09c0,.7-.02.13-.04.58.02-.43,0-.25,0-.55,0-.08-.01-.18,0-.26,0,.24-.01-.19-.02.16,0-.1,0,0,0-.25-.01.08,0,.17,0,.29-.02.33-.04-.4-.06.05-.01.19-.03.52-.04.68,0-.16,0-.36,0-.36-.01-.14-.02-.12-.03,0,0-.09,0-.16,0-.27,0,.03,0,.36-.01.21,0-.11,0-.28,0-.39,0,.09-.02.27-.03.36,0-.17,0-.26,0-.37-.01.08-.03.15-.03.42v.1s0-.23,0-.28c0-.21.01.09.01.19v.06c0,.57.02-.09.03-.06v.42s0-.35,0-.35c0,.11,0,.34,0,.4.01.21,0-.15.02.08,0,.04,0,.06,0,.07v-.12c0,.09.01.29,0,.23.02.24.03-.31.03,0v.03c.02-.14,0-.31.02-.66v.75s.02-.31.02-.31c0,.01,0,.03,0,.16,0-.21,0-.13,0-.33.01.28.03-.13.04.36,0-.23-.01-.18,0-.34,0,.52.01-.09.03.15,0,.27-.01.13,0,.37,0-.46.02.1.03.01,0-.36.02-.15.03-.27,0,.12.03.2.04.33v.06c0-.37.02-.3.03-.37,0,.22,0,.31,0,.4h0c0-.12,0-.18.01-.22v.27s.01-.09.02-.14c0-.03,0-.05.01-.05,0,0,0,0,0,.01,0,0,0,.01,0,.02h0s0,0,0,0l-.62-.7h0s-.01,0-.02,0c.07,0,.15.02.24.03l.4.43c0-.18,0-.37,0-.51l.13.14s.07.01.1.02c-.14-.02-.37-.05-.43-.05.02,0,.11.02.05.01l-.23-.03c-.1,0,.19.03.17.03-.2-.02-.14-.01-.3-.03-.02,0,.08,0,0,0-.04,0-.15,0-.3-.02.11.01.26.03.29.04.01.01-.24-.02-.34-.03.14.02,0,.01.29.05,0,0-.14-.01-.22-.02.13.02.03.04.35.06h.02s0,0,.01,0h0s0,0,0,0c.29.06-.17.03-.05.06h-.1c.11.01.06.02.27.06,0,0-.18-.01-.3-.03.07.02.18.03.02.03-.17-.03-.15-.02-.12-.03-.09,0-.24-.01.02.03-.25-.04-.32-.03-.24-.01h.18s.01.03,0,.03l-.33-.04c-.41-.02.68.13,0,.07.23.04.16,0,.43.05-.05,0-.52-.04-.52-.04-.18,0,.48.08.35.08.12.01.43.05.54.08-.05,0-.5-.05-.59-.07,0,0,.03,0,.07,0-.04,0-.09-.02-.22-.03l.12.02c-.12,0-.11,0-.3-.02.11.02.19.03.25.03-.17,0,0,.02-.12.02.07,0,.2.02.2.02-.15,0,.22.04.27.06-.18-.01-.43-.06-.28-.02-.12,0-.31-.04-.41-.06.22.04-.15,0-.2,0l-.09-.02c.06.01.05.02.05.02l.24.03s-.04,0-.14-.01c.15.02.39.06.6.09-.12-.01.13.04-.19,0,.11,0-.31-.04-.36-.06.04,0,.03.01,0,.01-.03,0-.06-.01-.08-.01-.28-.02.35.06.34.07-.18-.03-.33-.04-.3-.03,0,0,.29.04.43.06-.14,0,.1.03.08.03h.07c.18.03.15.03.21.05-.14-.02-.09-.02-.15-.03.31.05-.32-.02-.12.02-.12-.01-.33-.04-.41-.05.23.05-.24-.02-.06.02.24.03.18.02.41.06l-.16-.05.34.06s-.15-.04-.11-.04c.19.03.13.03.33.05-.36-.04.2.05-.04.03l-.59-.08c-.26-.02.3.07.15.08h.1c.23.04.03.03.12.05-.2-.02-.27-.03-.39-.05.15.02-.02.01.37.07l-.26-.03c-.11,0,.55.1.49.11-.21-.04-.35-.05-.5-.08,0,0-.04,0,.1.03-.12-.01.26.05.07.03.09.01.29.05.27.05-.04,0-.1-.01-.1-.01.1.01.13.03.35.05-.61-.07.04.06-.49,0,.06.02.12.05.14.06-.06,0-.1-.01-.08-.01-.18-.01.56.09.35.08-.32-.04-.17-.04-.29-.05-.64-.09.08.04-.29,0h-.04c-.22-.03.24.05.19.06,0,0-.06,0-.1-.01.33.06.43.1.52.13-.25-.04-.13-.02-.39-.06.04.01.41.06.48.09-.14-.02-.26-.03-.53-.07h-.01c-.35-.06,0,0-.05,0l-.15-.02s.44.09.4.1l.12.02c.38.07-.22-.02.07.03l-.39-.06c.09.02.37.09.44.11-.29-.06-.43-.09-.6-.13,0,0,.03.03.22.06-.04,0-.13-.03-.07-.02.31.06.45.09.45.11-.76-.12-.2,0-.78-.07.28.07-.13.03-.09.07.59.08.02.01.62.11.04.01.03.01-.01,0l-.36-.04c-.18-.02-.13-.03-.27-.05-.05,0-.26-.04-.42-.05.22.03.31.06.22.05l.28.03c.32.07-.51-.06-.19,0l-.19-.04c.06.02.05.03.12.05h2.7c-.05.01-.15.02-.36.05.07-.01.23-.04.28-.04.07-.04-.53.02-.23-.05l.15-.02s-.28.03-.13,0c.06,0,.15-.02.16-.02-.05,0-.26.03-.18,0l.17-.02c.19-.06-.41.02-.52.02.43-.07.57-.11.64-.13h.06s-.37,0-.54,0c.47-.09.19-.09.45-.16-.08.02-.34.05-.38.05.09-.02-.3.03.09-.03h0c.39-.06.28-.06.29-.07l-.52.08c.75-.15-.29-.03.39-.15-.13,0-.13,0-.26.02l.28-.04c.07-.03.1-.05.03-.06l.2-.03s-.81.11-.83.1l.42-.07s.35-.1-.03-.07c.06,0,.18-.02.2-.03,0-.01.28-.09-.3,0,.37-.06.03-.03-.13-.02l.28-.04c-.35.04-.45.06-.55.06.04,0,.22-.04.15-.02.14-.03-.26.03-.12,0l.18-.02s-.07,0-.28.03c-.11,0,.07-.03.31-.07-.15.02-.36.05-.29.03.09-.01.15-.02.18-.03.18-.05-.32.02-.06-.04.09-.02.14-.02.16-.03,0,.02-.02.03-.04.03.25-.04.3-.06.65-.1-.19.02-.61.07-.49.04.02,0,.05,0,.09-.02h.03s0,0-.04,0c.04-.01.07-.02.07-.02.21-.03.11-.03.12-.04-.28.04-.23.03-.46.07.02,0,.03,0,.05,0,0,0,.01,0,.03,0h-.02s.02.01.02.02c-.14.02-.26.03-.11,0-.18.02-.36.05-.45.06.39-.07.59-.11.83-.16-.16,0-.11-.03-.63.04-.07,0,.15-.03.23-.04.05,0,.05,0,.12,0-.14,0-.06-.02-.42.03.16-.04.34-.04.27-.05h.11c.58-.14-.94.07-.2-.09-.05,0-.07.01-.13.03.32-.1-.32-.05.19-.18.1-.03-.13,0-.31.02l.3-.05-.35.04c-.26.02.73-.15.25-.1l-.2.03s-.12-.01.11-.04c-.04,0-.21.03-.11,0l.16-.02-.27.02c.11-.03.62-.09.65-.12-.06,0-.46.04-.56.06,0,0-.1.02-.25.05h-.08c-.46.07-.93.14-1.25.21l.28-.03-.22.04h-.02c-.21.03-.02,0,.11,0-.12.02-.2.04-.24.04l.44-.05c-.18.03-.36.05-.46.07.21-.03.4-.07.54-.08-.21.04-.38.06-.2.04-.12.02-.19.03-.25.03.14-.01.06,0,.31-.02-.26.05.07.01-.36.08.1-.01.34-.04.36-.04-.52.07-.03.03-.59.11.47-.06.21,0,.48-.02-.04,0-.11.02-.09,0-.04.02-.18.04-.27.06.39-.06.48-.06.72-.09-.37.07-.46.06-.81.12q.31-.04.58-.07c-.23.04-.11.02-.43.08.48-.07.08,0,.38-.04-.24.05-.45.07-.3.06-.15.03-.32.04-.32.04ZM41.89,75.87h0s-.02,0-.02,0c0,0,0,0,.02,0ZM41.9,75.9s0-.01,0-.01c.1-.02.19-.03.19-.03-.06,0-.12.02-.2.04ZM43.82,75.54s-.01,0-.07.02c0,0-.01,0-.03,0h-.03c.05,0,.1-.01.14-.02Z"/>
      <path class="cls-1" d="M43.45,75.59s-.02,0-.02,0c-.02,0-.05,0-.06.01h.09s0-.01,0-.01Z"/>
      <path class="cls-1" d="M42.56,75.17h0s.02,0,.04,0c-.01,0-.02,0-.03,0Z"/>
      <polygon class="cls-1" points="41.43 76.35 41.5 76.34 41.44 76.35 41.43 76.35"/>
      <path class="cls-1" d="M42.93,74.58s0-.05,0-.07c0,.02,0,.04,0,.07Z"/>
      <path class="cls-1" d="M42.86,74.52v-.1c0,.06,0,.08,0,.1Z"/>
      <path class="cls-1" d="M42.81,74.38s0,.09,0,.12h0s0-.12,0-.12Z"/>
      <path class="cls-1" d="M43.98,75.89s0,0,.01,0c.05.01.03,0-.01,0Z"/>
      <path class="cls-1" d="M43.36,75.56c.05,0,.1.02.13.02.02,0,.03,0-.13-.02Z"/>
      <polygon class="cls-1" points="44.28 76.21 44.27 76.2 44.27 76.21 44.28 76.21"/>
      <path class="cls-1" d="M43.48,75.6c.06,0,.04,0,0-.01-.02,0-.05,0,0,.01Z"/>
      <path class="cls-1" d="M42.59,74.25h0s0,.02,0,.03v-.03Z"/>
      <path class="cls-1" d="M42.59,74.29v.03s0,0,0-.03Z"/>
      <path class="cls-1" d="M42.58,74.39v-.07s0,0,0,.07Z"/>
      <path class="cls-1" d="M42.66,74.38v-.1s0,.05,0,.1Z"/>
      <path class="cls-1" d="M42.68,74.35s-.01-.22-.02-.15v.08c0-.15.01.24.02.07Z"/>
      <path class="cls-1" d="M42.77,75.61l-.02-.08c0,.11,0,.25,0,.28.02.32,0-.24.02-.2Z"/>
      <path class="cls-1" d="M42.82,75.77c0,.05,0,.16,0,.22,0-.1,0-.12,0-.22Z"/>
      <path class="cls-1" d="M42.33,75.26l-.25-.03s.1.01.25.03Z"/>
      <polygon class="cls-1" points="43.63 75.49 43.79 75.5 43.55 75.47 43.63 75.49"/>
      <polygon class="cls-1" points="41.81 75.3 41.78 75.3 41.87 75.32 41.81 75.3"/>
      <path class="cls-1" d="M41.82,75.92l.31.04c-.06-.01-.41-.06-.31-.04Z"/>
      <path class="cls-1" d="M42.1,76.24c-.16-.02-.26-.03-.1,0,.02,0,.14.01.1,0Z"/>
      <polygon class="cls-1" points="43.93 76.03 44.04 76.02 43.95 76.02 43.93 76.03"/>
    </g>
    <g>
      <path class="cls-1" d="M66.49,42.16c-.12.03-.18.21.03.32l.32-.18-.35-.15Z"/>
      <path class="cls-1" d="M67.41,43.6c.33.02.73.04.8-.31-.41.05-.4-.07-.86.04-.21-.11-.27-.33-.16-.4-.12.02-.26-.28-.48-.18.1.39.4.62.85.69.02.11-.1.13-.15.16Z"/>
      <path class="cls-1" d="M76.48,63.62v-.15s0,.09,0,.15Z"/>
      <path class="cls-1" d="M75.72,74.09c.11,0,.15-.04.16-.07-.1.02-.18.04-.16.07Z"/>
      <path class="cls-1" d="M73.34,73.74c.05,0,.09.01.14.02-.05-.03-.11-.05-.14-.02Z"/>
      <path class="cls-1" d="M76.48,63.62l-.03.38c.11,0,.04-.2.03-.38Z"/>
      <path class="cls-1" d="M70.23,45.25c-.07-.05-.13-.08-.2-.1l.16.13.05-.02Z"/>
      <path class="cls-1" d="M74.78,57.77l-.03-.11s-.1-.04-.16-.05l.19.16Z"/>
      <path class="cls-1" d="M73.19,53.42c.03.1.3.03.43.02-.13-.01-.21-.06-.27-.14-.05.02-.1.06-.17.12Z"/>
      <path class="cls-1" d="M70.04,46.79l-.11-.08s.07.06.11.08Z"/>
      <path class="cls-1" d="M75.58,61.01s-.07.04-.09.06c.03,0,.06-.03.09-.06Z"/>
      <path class="cls-1" d="M61.13,39.64s0,.03,0,.05c.03-.03.04-.05,0-.05Z"/>
      <path class="cls-1" d="M66.09,42.78l-.07-.02s-.07.08-.1.13l.17-.1Z"/>
      <path class="cls-1" d="M68.97,73.42s.01,0,.02,0c.11-.03.05-.03-.02,0Z"/>
      <path class="cls-1" d="M42.38,61.54c.3-.03-.01.25-.24.48-.24.24-.38.42,0,.36-.03-.05.19-.3.36-.54.16-.23.28-.45-.12-.3Z"/>
      <path class="cls-1" d="M70.29,45.37s.09.1.13.15c-.05-.08-.09-.12-.13-.15Z"/>
      <path class="cls-1" d="M42.14,62.38h0s.07-.01.07-.01c-.03,0-.05,0-.07.01Z"/>
      <path class="cls-1" d="M58.93,73.75s.06.09.1.12c0-.03-.03-.06-.1-.12Z"/>
      <path class="cls-1" d="M66.42,74.03l-.19-.03c.07.02.13.03.19.03Z"/>
      <path class="cls-1" d="M55.06,74.21c-.1-.02-.14-.06-.27-.02.01.01.03.02.04.03.05-.04.11-.06.23-.02Z"/>
      <path class="cls-1" d="M51.02,74.27s.05.04.08.06c.04,0,.09-.01.13-.02l-.2-.04Z"/>
      <path class="cls-1" d="M49.04,44.24c.12,0,.22.03.31.06-.18-.11.24-.58-.31-.06Z"/>
      <path class="cls-1" d="M70.12,45.35c.07-.03.12-.02.17.02l-.1-.1s-.07.04-.07.08Z"/>
      <path class="cls-1" d="M54.93,76.43l-.64-.03c.18.03.41.04.64.03Z"/>
      <path class="cls-1" d="M26.99,57.49l.11-.12c-.06.03-.1.07-.11.12Z"/>
      <path class="cls-1" d="M52.38,76.47c-.12-.1-.24-.15-.36-.19-.03.02-.06.04-.07.07l.44.12Z"/>
      <path class="cls-1" d="M49.36,44.31h0s0,0,0,0Z"/>
      <path class="cls-1" d="M52.7,41.22c-.58.32-.1.47-.12.72-.62.47-.45-.06-.78-.09-.38.33-.49.84-.79,1.02-.06-.04-.13-.01-.1-.12-.27.5-1.2.92-1.43,1.57-.05,0-.09,0-.12-.02.19.08.32.21.39.33-.2.19-.23.52-.47.41.13-.11.08-.19.09-.3l-.15.28c-.43-.08.22-.36.05-.55-.36.48-.67,1.12-1.04,1.37-.31-.18.66-.81.02-.62l.6-.37c-.76-.04.34-.26-.41-.35-.77.54-.62.84-1.34,1.42,0,.28.25.14.25.42-.15.27-.29.44-.43.53-.07.05-.14.08-.22.1-.05,0-.1-.02-.14-.04-.18-.08-.28-.25-.27-.09,0,.02,0,.04,0,.06,0,.11.02.27-.04.38,0,.11-.24.14-.65.07.07-.14.16-.27.25-.41-.57.02-.7.22-.83.36-.13.15-.26.25-.82.37.11-.24.76-.44.59-.42-.71-.02-.53.29-.75.52l1.26,1.14s0-.1.04-.16l.35.05c.14-.37.25-.77.36-1.19l-1.8-1.08c-.17.35-.48.75-.9,1.11-.02-.11.05-.3-.2-.24-.87.9-2.14,1.57-3.23,2.09l-.21.5c-.09.06-.24,0-.18-.11-.45.18.09.17-.03.39-.21.17-.39.06-.3-.11-.53.67-1.66,1.76-2.56,1.95l.1-.16c-.63.26-.33.92-1.01,1.01l.08-.11c-1.32.66-2.6,1.7-3.8,1.84.01.48-1.37.52-1.18,1.08-.89.13-.7-.09-1.88.29-.31.13-.27.56-.6.81l-.16-.26-.33.57-.46-.14-.3.3c.15-.08.36-.08.39,0-.44.44-1.37.79-1.5.7-.34.44-.62.9-.86,1.38-.08-.1.04-.34.12-.56-.27.87-.37-.07-.59.75.12-.05.12.15.17.19-.37.22-.8,1.03-.93,1.68l-.16-.19c-.47,1.14-.54,2.49-.36,3.9.04-.53.42-.42.5-.05l-.29.22c.25.23.05-.44.39.05.09.51-.27.46-.46.15.09.22.19.44.32.66-.07.08-.19-.07-.32-.07.15.11.19.46.35.82.15.36.41.7.7.72l-.03.1c.67.58,1.22.76,1.7.9.48.14.93.2,1.45.27.06-.27.46-.16.79-.36.73.15,1.59.34,2.49.19.6-.23.15-.26.39-.47.09.25.95.05.54.32,1.03-.27,1.31-.36,2.48-.96-.17-.05-.33-.05-.28-.16.21-.11.53-.07.55.06l-.05.05c1.22-.83,3.37-.53,4.19-1.52l-.05.05.94-.77c.51-.2-.21.32.23.28.47-.48.92-.7,1.36-.9.28-.11.26-.04.46-.32.03.32,0,.4.08.34.01.03.06.04.08.11.01.07,0,.19-.16.24l.18-.04c.09.02.06.03.01.07-.05.08-.13.14-.15.25.14-.03.15-.3.25-.14.28,2.34-.14,4.83-.43,7.14-.05.42.17.56.35.72.04.04.08.08.12.13.03.08.05.18.06.28,0,.22-.04.5-.19,1.02-.1-.13-.19-.29-.29-.47.02.79,0,1.52-.06,2.27l1.86-.02c.54,0,1.09,0,1.63,0,.69,0,1.37-.03,2.03-.16-.1.08-.11.18-.28.18.37.24,1.36,0,1.37-.19.27.02.06.18.23.27.37.14.92-.32,1.12-.08.03.04-.1.08-.17.1.24-.12,1.12.02.89-.26.66.12,1.25-.14,1.77.02.34-.31,1.12.13,1.22-.31-.04.45,1.15.35,1.56.13-.14.14.36.14.2.33.47-.01.9-.1.82-.34.88.53,1.74-.46,2.24.22,1.4-.27,2.69-.46,3.94-.58-.04.45-1.39.07-1.33.54,1.19-.21,1.87-.61,3.06-.52.31.06-.17.2-.27.28,1.19-.21,2.31,0,3.36-.26,0,.04-.12.09-.22.13.21-.02.49.06.46-.15l-.2.06c-.34-.29.82-.63.86-.79-.35.59,1.05.13.5.88.14-.04.31-.14.27-.28.2.04.27.12.07.28.75-.12.48-.34,1.16-.34,0,.1-.14.14-.21.26.34-.2.68-.4,1.26-.32-.03.06.03.14-.14.14.98-.04,1.67-.53,2.76-.35-.32.43.37.14.43.51l.58-.11-.23-.18c.51,0,.96-.27,1.4-.15l-.38.16.95-.08-.54-.14c.51-.2-.06-.47.62-.37-.12.04.46,0,.87.22h0c.3-.12.51-.24,1-.15.22.12.21.41.36.49.03-.08.14-.12.29-.15.08-.01.16-.02.25-.03.05-.05-.01-.2-.01-.29-.06-.43-.12-.88-.31-1.13.09.16.3.26.33.23-.1-.13-.19-.26-.28-.37.06-.27.1-.32.26-.24-.02-.51-.13-.42-.22-.37-.09.07-.18.03-.11-.39.03.06.06.03.11.16.05-.86-.32-1.62-.27-2.41.35-.27.16.67.45.37-.17-1.12-.73-2.27-.77-3.36v.21c-.55-.08.13-.84-.21-1.35.06.13.32.13.25.1-.03-.75-.36-1.5-.74-2.57l.16.11c.03-.46-.14-1.16-.18-1.63-.16-.11-.2-.38-.36-.18.22-.8-.03-1.47-.31-2.1-.29-.63-.59-1.23-.45-1.95.04.15.21.33.18.21-.13-.35-.28-.69-.43-1.04-.2.15-.09.18-.19.45-.17-.1-.37-.36-.45-.62.29.43.35-.11.41-.36-.06.06-.15,0-.22.05.22-.68-.47.05-.44-.79h.13c-.14-.26-.39-.46-.47-.77.21-.21.23.25.44.2-.17-.42-.78-.66-.67-1.13.13.15.23.41.36.56.14-.52.05-.55-.02-.87v.03c-.04-.25-.07-.52-.14-.77v.21c-.87-.26-.57-1.01-1.29-1.52.68.5.28,0,.57-.06,0-.21-.03-.53.08-.48-.38-.22-.1-.63-.65-.93.08-.06-.17-.35.09-.39-.28-.39-.1.18-.23.2-.59-.5-.47-1.7-1.4-2.37-.65-.66-1.04-.59-1.64-1.16-.04-.32.42-.03.42-.03-.14-.46-.38-.71-.75-.96.12.01.12-.1.12-.27-.25-.25-.42.06-.61-.38.13-.01.33-.06.52,0-.34-.25-.72-.45-1.1-.66.04-.2.37,0,.56.02-.41-.28-1.02-.75-1.31-.64l.16.28c-.13-.11.09-.23.22-.18.44.13.37.47.31.55l-.26-.16c-.09.31.15.49.45.66.28.19.64.36.83.6l-.48.09.66.24c0,.17-.12.38-.36.2.11.45.37.18.4.61,0,.05-.03.05-.07.03l.34.26c-.12-.01-.2.23-.29,0,.23.73.94.78.84,1.18l-.06-.04c.66.78.31-.09,1.02.38l-.38.83.31-.07c.04.1.13.29,0,.31.38.23.08-.12.37-.02.02.57.76,1.19.38,1.51.29.06-.06-.51.33-.1-.41.37.38.52.34,1.05-.3-.02-.35-.47-.38.05.53.07.26.87.49,1.18.34-.12.48.72.8,1.29-.14,0,.25,1.22.3,1.84h-.06c.38,0,.51.62.71,1.04-.22.05-.32,0-.49-.21l.13.41c.14.06.24.17.37.43l-.3-.03c.18.54.61,1.02.63,1.78.26-.02.54-.75.91-.03-.13.06-.35.15-.46-.04.03.06.17.2.15.35l-.31-.24c-.01.35.23.12.28.39-.19.04-.09.23-.25.23-.03-.06.02-.25-.08-.33.05.3,0,.69-.11.84.1-.05.26-.06.33.15.14.56-.19.24-.21.59.16.1.11.49.4.44.04.16-.09.22-.16.3.2.26.3,1.35.55.96v-.08s.02.03.03.05h0s0,0,0,0c.47.9.22,2.02.48,2.95h-.1c.2.57.27,1.27.53,1.65.02.17-.13.42-.25.37.13.43.25.46.17,1.11-.23-.42-.13.17-.18-.43-.02.58-.14.72.19,1.3-.27-.18-.27.46-.17.72l.14-.42c.07.3.07.57.08.84l-.35-.11c-.14.6.09,1.1.26,1.58.08.19.15.25.16.39.01.12-.04.22-.21.18.26.33.15-.19.44.09,0,.17-.13.24-.26.22-.24-.12-.4-.24-.42-.24-.34-.18.07.49-.62.36.1.12.19.43-.39.55-.54-.04-.67-.49-.33-.59.13-.01.19.03.19.07.18-.04.41-.1.19-.22l-.07.12c-.27-.12-1.02-.1-.84-.3-.41.12-.17.2.13.26-.7-.17-1.09,0-1.81-.11.11.06.22.2.11.2-1.05-.14-.46.23-1.17.29-.41-.18.14-.43-.57-.28-.44-.12-.1-.31.08-.41-.65.23-1.22-.14-1.6-.18l.34-.1c-.21.06-.37.06-.55.06l.2.24c-.2-.04-.37-.04-.37-.14-.21.16.16.39-.25.61-.27-.12-.82.14-.92-.17.85.1-.1-.32.62-.37-.14.04-.31.04-.51,0-.03-.03.03-.07.08-.08-.81-.27-.37.36-1.21.37.1-.18-.2-.33-.34-.29.34,0,.17.29-.14.43-.54-.13-.58.11-.87.1l.32.06c-.11.18-.38.16-.75.22-.03-.14.34-.1.2-.16-.41.32-.95-.31-1.53-.09-.27-.12-.03-.33-.27-.41-.65.24-.71-.23-1.39-.03.2.24.23.18-.24.42l1.12-.19-.72.36c.34,0,.71-.16.92-.12-.34.2-.31.14-.14.34-.47-.35-.92.22-1.46,0v-.59c-.81-.25-1.42.33-2.47.2l.34.1c-.14.24-.65.04-.98.15.03-.2-.19-.27-.33-.39.02.15-.77,0-.86.4l-.47-.25c-.85-.09-.96.58-1.77.52.24-.22-.13-.35.41-.51-.27,0-.52-.03-.52.11-.16-.12-.75.28-1,.09-.11.09-.15.3-.45.28-.03-.04,0-.1,0-.1,0,.1-.48.14-.21.35-.85-.6-2.34.08-3.07-.44-.59.07-1.31.14-1.84.16.03-.06,0-.1.1-.08-.74-.18-.45.57-1.3.37-.43-.32.45-.18.18-.3-.12-.65-1.02.1-1.59-.28l.14-.04c-.44-.22-1.06.25-1.77.21,0,0,.03-.06,0-.1-.29.16-.42.27-.74.35-.29.08-.65.14-.95.17v-.03s.04-.01.05-.02c.32-.16.27-.1.44-.33-.07.01-.15.07-.22.13-.14.11-.34.33-.35.02.17-.29.33-.67.61-.78v.3c.18-.2.19-.25.15-.32-.03-.07-.1-.15-.07-.23h.16s-.03-.27-.06-.4c-.03-.15-.08-.26-.12-.39-.09-.24-.17-.49-.13-.97l-.12.09c-.37-.54.24-.43-.04-.96l.4-.15c-.09-.35-.36-1.22-.44-1.83.3.35.44,1.07.61,1.53,0-.34-.02-1.17-.22-1.35.04.14.14.31.07.45-.31-.42-.46-.97-.47-1.65.77.11.16-1.77.74-2.28-.13-.38-.15-1.41-.12-2.27.02-.9.1-1.96.09-3-.25.15-.51.31-.77.46.27.54-.6.39-.82,1.23-.4.28-.53.35-.55.32-.35.07-.77.17-1.26.31-.38.01.4-.38.35-.51-.54.28-.68.28-.79.25-.05-.02-.09-.04-.18-.05-.08,0-.24.03-.33.04.19.15-.06.39-.45.5h.62c-.71.73-.98-.07-1.7.65l.19-.31c-.39.33-1.65.79-1.91,1.44-.11-.03-.28-.13-.1-.26-1.11.41-2.27,1.51-3.25,1.51l.04-.17c-.19.11-.28.38-.58.32,0-.06.04-.17-.06-.15-.09.08-.48.41-.78.39l.19-.22c-1.11.07-1.57.75-2.52.91-.03-.43-.85-.57-1.23-.69l.02-.06c-.59-.09-1.06-.1-1.48-.15-.42-.05-.82-.13-1.1-.42.08-.32,0-.67.02-1.3,0-.61.11-1.28.38-1.74-.12.13-.33-.12-.3-.32.15-.21-.02-.8.34-.59l-.04.08c.43-.02.56-.5.8-.83l-.4-.35c.63-.24,1.01-.76,1.5-1.23.48-.47,1.01-.87,1.46-.73.19-.26.51-.42.72-.68l.11.26c.77-.31,1.19-.48,2.1-1.04l-.1.28c.54-.27.29-1.08.76-1.35l.35.29c.91-.51,2.02-.72,2.71-1.58.02.06.05.18-.08.28.43-.24,1.78-.75,1.32-1.15.21.32.93-.55,1.31-.99l.08.28c.2-.56.16-.65.66-1.1.15-.06.24.11.03.17.52-.17.19-.45.8-.68l-.09.28c.46-.29.37-.34.49-.68.21-.28.87-.53,1.08-.37-.03-.17.09-.5.39-.63.09.05.03.17,0,.23.84-.38.88-1.06,1.54-1.21.07.07.13.08.18.07-.57.43-1.05.76-1.01.72.15.21.65-.11.49.45.26-.44.64-1.25,1.16-1.51.04,0,.08,0,.12.02l-.03.06c.12-.06.21-.16.27-.27.18-.1.3-.16.45-.29.15.08.44-.22.68-.54l-2.15-1.29c-.04.09-.07.18-.1.25.27.09.07.42.43.19-.04.03,0-.06.06-.24v-.02s1.43.86,1.43.86c-.02.04-.05.08-.06.11v-.03c-.14.18-.34.4-.57.61.09-.28.19-.54.55-.73v-.02s-1.26-.75-1.26-.75c.1.2.2.42.24.53-.41.16-.81.58-1.09.72l-1.24.67,2.64.6c.07.02.12.04.16.08.4-.33.87-.45,2-.52.11-.17.17-.38.2-.55.17-.3.34-.16.49-.21-.1.2-.27.38-.31.54.11-.18.24-.37.39-.56.16-.21.21-.29.31-.44.17-.27.3-.5.21-.67.55-.32,0,.48.55-.16v.16c.77-.39,1.1-.97,1.47-1.6.4-.58.85-1.22,1.83-1.4-.13.03-.19.05-.25.01.47-.23.93-.49,1.39-.74.45-.28.92-.52,1.39-.77.47-.25.97-.42,1.46-.59.51-.1,1.02-.22,1.54-.16.57.02.59-.23.93-.46l.15.29.57-.38c.43-.17.81.05,1.18.22.39.16.76.35,1.32.21l-.1-.22c.38.07,1.22.17,1.1.37.05-.03.18-.17.3-.02l-.04.15c.33-.02.65.04.98.08.63.4-.33.5.58.99.35.13,1.2.14,1.13-.02-.14-.09-.31-.29-.24-.43l.37.11c.3-.37.85-.6.13-1.38l-.75-.09c-.03-.11-.07-.2-.11-.3.19.07.36.18.54.26-.2-.36-.48-.29-.76-.26,0-.13-.06-.25-.18-.34l-.81.14c-.02-.2.42-.22,0-.49-.38.1.16.47-.39.45-.25-.29-.12-.43-.55-.37-.02-.13.08-.18.25-.19-.38.03-.93-.19-1.16.04-.3-.32-1.18-.13-1.1-.54-.13.1-.65.31-.97.31.3-.24,0-.28-.37-.29-.36,0-.78.01-.72-.27-.42.47-1.59.38-2.29.83.03-.05.1-.14.17-.14-.43.07-.59-.03-.89-.05.04.38-.57.67-.81,1.03-.62-.18.14-.54-.13-.83.13.29-.76.62-.49.8-.46-.07-.36.03-.68-.18.14.48-.31.24-.48.65-.63.03-.35-.35-.84.09-.34.02.08-.42.08-.42ZM43.4,47.73h0c.09-.08.17-.15.21-.19-.04.04-.1.1-.21.19ZM42.46,48.46c.12-.08.27-.18.42-.3.09.05.12.16.02.23.01-.09-.25.03-.44.08ZM45.75,48.26c-.14.2-.23.22-.29.2.07-.08.16-.18.26-.32,0-.01,0-.03,0-.04.02.05.04.11.04.16Z"/>
      <path class="cls-1" d="M44.3,46.88s0,.05-.01.08l.09-.07,1.29.77h-.01s.01.09.02.13l.06-.08-1.42-.85v.02Z"/>
      <path class="cls-1" d="M76.5,63.44v.03s.01-.04.03-.06c-.01.02-.02.02-.03.03Z"/>
      <polygon class="cls-1" points="28.15 56.58 28.19 56.64 28.25 56.53 28.15 56.58"/>
      <path class="cls-1" d="M75.82,56.79s.04-.05.04-.11c-.02,0-.03.05-.04.11Z"/>
      <path class="cls-1" d="M74.94,54.03l-.05-.42c0,.19.03.32.05.42Z"/>
      <path class="cls-1" d="M74.21,51.92c-.06,0-.09,0-.13,0h0s.13,0,.13,0Z"/>
      <path class="cls-1" d="M66.6,75.9s-.06,0-.08.01c-.2.06-.06.03.08-.01Z"/>
      <path class="cls-1" d="M77.06,75.15c-.13.05-.27.1-.42.13.25.02.45.03.42-.13Z"/>
      <polygon class="cls-1" points="55 76.44 55 76.43 54.93 76.43 55 76.44"/>
      <path class="cls-1" d="M76.16,75.28c.19.06.34.04.49,0-.16-.02-.33-.05-.49,0Z"/>
      <path class="cls-1" d="M68.83,43.75l-.07-.08s-.03.02-.04.02l.11.06Z"/>
      <path class="cls-1" d="M68.72,43.69l-.11-.06s.08.07.11.06Z"/>
      <path class="cls-1" d="M68.37,43.51l.24.12c-.07-.06-.14-.14-.24-.12Z"/>
      <path class="cls-1" d="M70.8,46.07l.1-.03s-.06,0-.1.03Z"/>
      <path class="cls-1" d="M71.35,46.79c-.11-.19-.14-.58-.37-.79l-.08.03c.2.03.2.69.45.76Z"/>
      <path class="cls-1" d="M72.21,50.61c-.09-.23-.16-.47-.27-.69-.03.16-.07.37-.26.1.15.96.13-.29.53.58Z"/>
      <path class="cls-1" d="M73.04,52.71c-.2-.34-.14.07-.21.07.19.19.23.23.21-.07Z"/>
      <path class="cls-1" d="M77.11,68.56h-.26c.08.29.1-.02.26,0Z"/>
      <polygon class="cls-1" points="78.78 71.56 78.91 71.24 78.66 71.12 78.78 71.56"/>
      <path class="cls-1" d="M77.11,73.23l-.04-.04s.07.11.11.18l-.07-.13Z"/>
      <path class="cls-1" d="M51.74,74.01l.1.31c.21-.06.25-.41-.1-.31Z"/>
      <path class="cls-1" d="M43.96,71.9c.16-.13.27-.47.13-.68-.03.27-.16.54-.13.68Z"/>
      <path class="cls-1" d="M27.26,60.47l-.04.22c.06-.11.11-.23.17-.34-.04.04-.09.08-.13.12Z"/>
    </g>
    <g>
      <path class="cls-1" d="M44.46,46.93c.08.04.26.11.22.1l-.3-.14.08.04Z"/>
      <path class="cls-1" d="M45.03,47.16c-.15-.07-.4-.18-.68-.31.29.13.17.08.51.24.03.02-.1-.04-.21-.09.08.04-.07-.02.12.06.24.1.25.1.06,0,.07.03.15.06.2.09Z"/>
      <path class="cls-1" d="M45.65,47.04h-.04s.03,0,.04,0Z"/>
      <path class="cls-1" d="M45.9,46.91s.04.02.06.03c-.02,0-.04-.02-.06-.03Z"/>
      <path class="cls-1" d="M46.25,47.02s-.01,0-.02,0c.03.01.04.02.02,0Z"/>
      <path class="cls-1" d="M45.65,47.04l.1.04c-.1-.04-.07-.03-.1-.04Z"/>
      <path class="cls-1" d="M44.32,46.79s.04.02.08.04c-.01,0-.02-.01-.03-.02l-.05-.02Z"/>
      <path class="cls-1" d="M45.85,47.23h0s.08.04.12.06l-.12-.06Z"/>
      <path class="cls-1" d="M45.87,47.32s-.25-.11-.36-.16c.1.05.15.07.17.08.05.02.11.05.18.08Z"/>
      <path class="cls-1" d="M45.37,47.23l.03.02s-.02-.01-.03-.02Z"/>
      <path class="cls-1" d="M45.93,47.21s.07.03.09.04l-.09-.04Z"/>
      <path class="cls-1" d="M46.18,47.92s-.03-.02-.04-.03c.02.02.04.03.04.03Z"/>
      <polygon class="cls-1" points="45.01 47.15 45 47.14 44.88 47.05 45.01 47.15"/>
      <path class="cls-1" d="M46.61,47.1h0s.02,0,0,0Z"/>
      <path class="cls-1" d="M44.41,45.97c.25.04.32.05.59.09-.11-.02-.43-.07-.59-.09Z"/>
      <path class="cls-1" d="M44.36,46.8h0s0,0,0,0Z"/>
      <path class="cls-1" d="M45.01,46.06h0s.03,0,.03,0c-.01,0-.02,0-.03,0Z"/>
      <path class="cls-1" d="M46.52,46.89s-.08-.03-.11-.05c.03.01.06.03.11.05Z"/>
      <path class="cls-1" d="M46.11,46.83h.04s-.04,0-.04,0Z"/>
      <path class="cls-1" d="M46.18,46.67s.06.02.02,0c-.01,0-.02,0-.03-.01.03.02.05.02,0,0Z"/>
      <path class="cls-1" d="M46.21,46.61s-.03-.01-.05-.02h.01s.04.02.04.02Z"/>
      <path class="cls-1" d="M46.23,47.61c-.07-.04-.14-.09-.21-.13.17.11.22.16.21.13Z"/>
      <path class="cls-1" d="M44.47,46.85c-.06-.03-.1-.04-.11-.05,0,0,0,0,.01,0,.04.02.07.03.1.04Z"/>
      <path class="cls-1" d="M44.15,45.77h.04s-.04,0-.04,0Z"/>
      <path class="cls-1" d="M46.51,46.99l.03.02s0,0-.03-.02Z"/>
      <path class="cls-1" d="M44.17,45.74c.09.04.15.06.18.07-.02,0-.04-.02-.07-.03l-.11-.04Z"/>
      <path class="cls-1" d="M46.01,47.48h0s0,0,0,0Z"/>
      <path class="cls-1" d="M46.51,47.93s-.3-.21-.47-.33c-.08-.07.23.15.39.25-.07-.06-.35-.26-.34-.26.05.03.07.05.13.09-.24-.17,0-.04-.3-.25.03.02.05.03.08.05-.16-.1-.31-.2-.43-.27,0,0-.19-.13.01,0,0,0,.07.05.14.09l-.08-.06c.29.18.1.07.31.21-.09-.07-.32-.24-.24-.19.29.18.09.08.35.23l-.12-.06c.45.29-.03-.02.45.29.09.04-.13-.11-.04-.08-.16-.1-.24-.15-.39-.25-.28-.2.74.43.36.18-.19-.12-.56-.35-.36-.24l.33.2s-.47-.29-.24-.18c.13.08.1.08.14.1.27.14-.18-.12-.18-.13l.29.17s-.24-.19-.28-.24c.09.05.18.1.27.15-.13-.11.07-.03.26.03l-.25-.15s.12.06.17.09c.1.04-.16-.09-.26-.15-.02-.01.15.07.23.12-.21-.14-.45-.29-.16-.17l.08.04c.11.04-.53-.28-.28-.17l.05.03c.13.02-.1-.12.31.04-.38-.18.19.04-.35-.2.28.1.37.15.56.2.03,0-.33-.15-.39-.18l.28.12-.29-.13.34.13-.07-.04s-.13-.04-.21-.08c-.12-.06.21.05.36.11l-.23-.13c.11.05.15.07.23.1-.29-.13.3.11.04,0-.07-.03-.17-.07-.23-.09.18.06.19.04.12,0l.2.08c.06,0-.08-.09-.06-.12-.1-.02-.45-.14-.48-.16l.31.1c-.19-.07-.12-.03-.35-.12.04,0,.35.11.45.15l-.1-.05c.09.03.14.05.26.09-.19-.07.32.08-.01-.04l.09.03s-.09-.08-.1-.1c-.27-.08-.21-.07-.42-.14.09,0,.31.05.29.02-.13-.05-.23-.07-.39-.11.25.06.23.04.41.09-.03-.03-.04-.05-.24-.12-.1-.02-.15-.03-.23-.05-.04-.01.11.01.23.04h.03c-.37-.1.75.08.23-.05h.03s-.27-.07-.27-.07c.05,0,.19.04.35.06-.42-.11.07-.04-.21-.11.75.09-.04-.08.44-.04l-.18-.02c-.17-.03.1,0,.14,0-.14-.02-.16-.01-.26-.03-.05-.02-.06-.04-.04-.05l1.23-.95-3.42.37c-.06,0-.34-.09-.46-.11-.05,0,.84.38.44.22l-.3-.14c.35.19-.04.05.26.21-.07-.03-.16-.07-.16-.07-.22-.09-.02.02.16.09-.02,0-.16-.07-.25-.11-.13-.05.27.14.05.04-.04-.02-.07-.03-.09-.04.1.05-.03,0,.22.11-.12-.04.1.07-.05,0,.28.13-.14-.04.26.13-.41-.18-.34-.13-.15-.04-.13-.05-.13-.06-.3-.13,0,0,.08.05.29.14-.5-.21.39.2-.25-.07.21.12.36.2.44.26-.41-.18-.03-.04-.47-.23.16.09.51.26.4.23-.06-.02-.18-.08-.25-.11.16.09-.05.02.17.13-.04-.02-.08-.04-.11-.05.01,0-.06-.02.12.06l-.05-.03c.27.12.56.26.71.33-.54-.24-.14-.04-.82-.35.04.02.12.06.25.11-.04-.01-.11-.04-.25-.11.1.06.3.14.29.15-.09-.04-.13-.06-.23-.11.17.08.35.17.27.14-.05-.02-.12-.06-.12-.06.02.03.46.23.28.17-.39-.18-.13-.05-.47-.2l.1.05.17.07s.24.12.12.08l-.14-.07.06.04.13.05c.17.09.43.19.33.16-.03-.02,0,0-.21-.08h0c.11.05.22.11.13.07-.11-.05-.38-.17-.45-.2.28.13.07.05.37.19-.07-.03-.25-.11-.29-.13l.23.11c-.07-.03-.11-.05-.25-.11-.05,0,.43.19.24.12-.02,0-.05-.03-.09-.04-.1-.03.14.09.02.05-.34-.16-.08-.04-.37-.17.06.04.4.22.31.2h.04c.48.23-.25-.08-.02.03-.03-.02-.16-.07-.21-.1-.08-.02.11.07.25.16l-.12-.06c-.11-.04-.07-.01-.13-.03.12.06.1.05.28.13-.72-.29.36.21-.24-.03l-.11-.05.11.07c.21.09.13.05.3.12.12.06.22.11.22.11-.14-.07-.34-.15-.46-.2.06.03.14.06.2.09-.38-.16.42.19.17.09l-.11-.05c.05.03.2.1.17.09-.24-.11-.11-.05-.31-.14.01.01.46.22.21.12-.07-.03-.07-.04-.13-.07-.29-.12-.22-.09-.26-.1h0s-.13-.04-.13-.04l.08.03c.63.29.11.07.52.26-.39-.19-.23-.1-.5-.23-.08-.03-.17-.07-.24-.1.22.1-.18-.07.14.08-.09-.04,0,0-.23-.1.07.04.16.07.27.12.3.14-.38-.14.03.06.17.08.46.23.61.3-.14-.06-.32-.15-.32-.15-.13-.05-.11-.04-.01.02-.08-.03-.14-.06-.24-.11.02.02.32.15.19.1-.1-.05-.26-.12-.36-.16.08.04.24.12.32.16-.15-.07-.23-.11-.33-.15.07.04.13.08.38.19l.09.03s-.21-.09-.26-.11c-.19-.09.09.03.18.07l.06.03c.53.23-.08-.05-.04-.05l.38.17-.31-.15c.1.04.31.14.37.16.19.08-.13-.07.08.02.03.01.05.02.07.03l-.11-.06c.08.04.27.12.21.1.22.09-.28-.14.01-.02h.02c-.12-.06-.28-.11-.6-.27l.69.3-.28-.12s.03,0,.14.06c-.19-.09-.12-.05-.3-.14.26.1-.11-.07.34.12-.21-.1-.17-.07-.31-.14.48.21-.08-.05.14.04.25.11.11.06.34.15-.42-.19.1.03.02-.01-.33-.15-.13-.07-.24-.13.11.05.19.06.31.11l.06.02c-.34-.15-.27-.13-.33-.17.2.09.28.13.37.17h0c-.11-.06-.16-.09-.2-.1l.25.11s-.29-.15-.12-.08c-.23-.1-.66-.28-.81-.36.13.06.34.15.39.18-.02,0-.1-.05-.05-.03l.21.1c.1.04-.18-.08-.16-.08.18.08.13.06.27.12.02,0-.08-.03,0,0,.03,0,.14.05.28.11-.1-.05-.24-.11-.27-.12,0-.01.22.09.31.13-.12-.06,0,0-.26-.12,0,0,.13.05.2.08-.12-.06-.03-.04-.31-.16h-.02s0-.01-.01-.01h0s0,0,0,0c-.26-.13.17.04.06-.03l.09.04c-.1-.05-.05-.05-.24-.14,0,0,.17.07.27.12-.07-.04-.17-.08-.01-.03.15.08.14.06.11.06.08.03.23.09-.02-.03.23.11.29.12.23.09l-.17-.07s0-.01.01,0l.3.14c.38.15-.62-.31,0-.05-.21-.09-.15-.06-.4-.17.04.02.49.19.49.19.17.06-.44-.21-.32-.17-.11-.05-.4-.17-.5-.23.04,0,.46.19.54.23,0,0-.03,0-.06-.02.04.02.08.04.2.09l-.11-.05c.11.04.11.03.28.11-.1-.05-.18-.08-.24-.1.16.06.01-.01.12.02-.06-.03-.19-.08-.19-.08.14.04-.2-.1-.25-.13.17.07.39.18.26.1.11.04.29.13.38.17-.21-.1.15.04.19.05l.09.04c-.05-.03-.05-.03-.05-.03l-.22-.09s.04.01.13.05c-.14-.06-.36-.16-.55-.25.11.04-.11-.06.18.06-.1-.03.29.13.33.16-.03-.02-.03-.02,0,0,.03.01.06.03.08.03.26.1-.32-.15-.31-.16.16.07.31.13.28.12,0,0-.27-.12-.39-.18.13.05-.09-.05-.07-.05l-.06-.02c-.16-.07-.14-.07-.19-.1.13.06.09.04.14.07-.28-.13.3.12.11.02.11.05.31.13.38.16-.21-.1.23.09.06,0-.22-.09-.17-.07-.38-.17l.15.08-.31-.15s.13.07.09.06c-.18-.08-.12-.06-.3-.14.33.14-.18-.1.04,0l.54.24c.25.09-.27-.14-.13-.1l-.1-.04c-.21-.1-.03-.02-.11-.07.18.08.25.11.36.15-.13-.06.02,0-.34-.17l.24.1c.1.03-.51-.24-.44-.23.2.09.32.15.46.21,0,0,.04,0-.09-.05.11.05-.24-.12-.07-.05-.08-.04-.27-.12-.25-.12.04.02.09.04.09.04-.09-.04-.12-.05-.32-.14.57.24-.03-.05.46.15-.06-.04-.11-.07-.12-.09.05.02.09.04.07.03.17.06-.52-.24-.32-.16.29.12.16.08.27.12.6.26-.07-.05.28.09l.03.02c.2.08-.22-.11-.17-.11,0,0,.05.02.09.04-.3-.14-.39-.2-.47-.25.23.1.12.06.36.16-.03-.02-.38-.17-.44-.2.13.05.24.1.5.21h0c.33.15,0,0,.05.02l.14.06s-.4-.19-.37-.19l-.11-.05c-.35-.16.2.08-.06-.04l.36.16c-.08-.04-.34-.18-.41-.21.26.13.4.19.55.27,0,0-.02-.03-.2-.11.03.02.12.06.06.04-.28-.13-.42-.2-.41-.21.34.15.39.17.42.17l-1.47-.39s-.03,0-.33-.03c.28.04-.12,0-.08.01.59.09.02,0,.62.1.04,0,.03,0-.01,0l-.36-.05c-.18-.03-.13-.02-.27-.05-.05,0-.26-.04-.42-.07.22.04.31.05.23.04l.28.05c.32.06-.51-.09-.19-.02l-.19-.04c.11.02,0,0,.48.11-.07-.01-.23-.05-.28-.06-.07-.01.51.13.21.07l-.15-.04s.27.07.13.03c-.06-.01-.14-.04-.15-.04.05.01.25.07.17.05l-.16-.04c-.19-.04.39.11.49.15-.43-.11-.56-.15-.63-.17l-.06-.02c-.05-.01.35.11.51.18-.46-.14-.2-.04-.45-.12.08.03.32.12.36.13-.08-.03.28.11-.09-.03h0c-.37-.13-.27-.09-.29-.1l.49.19c-.72-.27.25.13-.39-.12.12.05.12.05.24.11l-.26-.11c-.07-.02-.1-.04-.04,0l-.18-.08s.74.34.76.35l-.39-.17s-.34-.14,0,.03c-.06-.03-.17-.08-.18-.09-.01,0-.26-.12.26.14-.34-.17-.04,0,.11.07l-.25-.13c.32.17.4.21.49.26-.03-.02-.2-.1-.13-.07-.13-.06.23.13.1.06l-.16-.09s.06.04.24.14c.1.06-.07-.02-.29-.14.13.07.31.17.25.14-.08-.05-.13-.08-.16-.09-.17-.08.28.17.03.04-.08-.04-.12-.07-.15-.08,0,0,.03,0,.04,0-.23-.12-.26-.15-.58-.32.17.1.53.31.42.25-.02-.01-.04-.02-.08-.04h-.02s0-.01.03,0c-.04-.02-.07-.03-.07-.03-.18-.11-.1-.05-.11-.06.24.14.2.12.4.24-.02,0-.03-.02-.04-.03,0,0-.01,0-.02-.02h.02s-.01,0-.01,0c.12.07.23.14.09.06.16.09.31.19.39.23-.34-.19-.53-.3-.74-.42.13.09.08.07.53.35.06.04-.13-.08-.2-.12-.04-.03-.04-.02-.1-.07.11.08.04.04.35.24-.15-.08-.29-.18-.24-.14l-.09-.06c-.5-.31.77.54.13.15.04.02.06.04.11.07-.29-.17.22.23-.22-.06-.09-.06.1.08.24.19l-.25-.18.28.21c.2.16-.61-.42-.23-.13l.16.12s.08.09-.1-.06c.03.02.17.13.08.07l-.13-.1.21.18c-.1-.06-.5-.38-.53-.39.05.04.36.29.44.36,0,0,.08.06.21.15l.06.06c.37.29.74.59,1.01.77l-.22-.19.18.13v.02c.18.12.03,0-.07-.08.1.07.16.12.2.15l-.34-.28c.15.11.28.22.37.28-.16-.13-.33-.24-.43-.33.17.12.31.23.17.11.09.07.15.12.2.15-.11-.09-.04-.05-.23-.2.21.15-.04-.06.31.21-.08-.06-.27-.22-.28-.23.42.32.04,0,.49.34-.38-.29-.15-.15-.36-.32.03.02.09.07.07.06.04.02.16.1.23.14-.31-.24-.39-.29-.58-.43.32.21.37.27.67.47-.26-.18-.25-.2-.47-.35.2.13.09.06.37.24-.4-.28-.06-.05-.31-.23.21.13.38.26.27.16.13.08.26.19.26.19ZM45.97,47.2h0s.01.02.01.02c0,0,0,0-.02-.02ZM45.98,47.18s-.01,0-.01,0c-.08-.05-.17-.1-.17-.1.06.03.11.05.18.09ZM44.26,46.25s.01,0,.06.03c0,0,.01,0,.03.02l.03.02s-.09-.05-.12-.07Z"/>
      <path class="cls-1" d="M44.58,46.44s.02.01.02.01c.02.01.04.02.06.03l-.08-.04h0Z"/>
      <path class="cls-1" d="M45.61,47.02h0s-.02,0-.04-.01c.01,0,.02,0,.03.01Z"/>
      <polygon class="cls-1" points="46.63 47.07 46.56 47.04 46.62 47.07 46.63 47.07"/>
      <path class="cls-1" d="M44.68,46.73s-.05-.02-.07-.03c.02,0,.04.02.07.03Z"/>
      <path class="cls-1" d="M44.6,46.74l-.09-.03c.05.02.08.03.09.03Z"/>
      <path class="cls-1" d="M44.46,46.72s.08.04.11.05h0s-.11-.05-.11-.05Z"/>
      <path class="cls-1" d="M44.38,46.08s0,0-.01,0c-.05-.02-.03-.01.01,0Z"/>
      <path class="cls-1" d="M44.92,46.49s-.09-.04-.12-.06c-.02,0-.03,0,.12.06Z"/>
      <polygon class="cls-1" points="44.15 45.77 44.15 45.77 44.15 45.77 44.15 45.77"/>
      <path class="cls-1" d="M44.81,46.43c-.05-.02-.04-.01,0,0,.02,0,.05.01,0,0Z"/>
      <path class="cls-1" d="M44.29,46.81h-.01s.03.01.04.02l-.03-.02Z"/>
      <path class="cls-1" d="M44.32,46.82l.03.02s0,0-.03-.02Z"/>
      <path class="cls-1" d="M44.41,46.87l-.06-.03s0,0,.06.03Z"/>
      <path class="cls-1" d="M44.42,46.82l-.09-.04s.05.02.09.04Z"/>
      <path class="cls-1" d="M44.4,46.79s-.2-.08-.15-.05l.07.03c-.14-.06.23.09.07.02Z"/>
      <path class="cls-1" d="M45.58,47.25l-.08-.02c.1.04.23.1.26.11.3.12-.22-.1-.18-.09Z"/>
      <path class="cls-1" d="M45.74,47.28s.14.06.2.09c-.09-.04-.11-.05-.2-.09Z"/>
      <path class="cls-1" d="M45.84,47.04l.23.1s-.09-.04-.23-.1Z"/>
      <polygon class="cls-1" points="44.65 46.46 44.51 46.4 44.72 46.49 44.65 46.46"/>
      <polygon class="cls-1" points="46.33 47.16 46.37 47.18 46.28 47.14 46.33 47.16"/>
      <path class="cls-1" d="M46.43,46.72l-.29-.13c.05.03.37.17.29.13Z"/>
      <path class="cls-1" d="M46.21,46.42c.14.06.24.1.1.03-.02,0-.14-.05-.1-.03Z"/>
      <polygon class="cls-1" points="44.3 46.09 44.2 46.05 44.28 46.08 44.3 46.09"/>
    </g>
  </g>
  <g>
    <path class="cls-1" d="M6.47,29.9c-.08.03-.24.15-.18.17l.3-.15-.12-.02Z"/>
    <path class="cls-1" d="M6.15,30.52c.17-.04.44-.14.67-.34-.3.13-.2.04-.55.2-.06-.02.04-.13.15-.19-.08.03.02-.11-.17-.01-.18.2-.14.27.09.23-.05.06-.13.09-.19.12Z"/>
    <path class="cls-1" d="M8.48,34.94v-.05s0,.04,0,.05Z"/>
    <path class="cls-1" d="M10.05,37.59s-.05,0-.08.01c.03,0,.06,0,.08-.01Z"/>
    <path class="cls-1" d="M10.05,38.23s0-.03,0-.04c-.02.03-.03.05,0,.04Z"/>
    <path class="cls-1" d="M8.48,34.94l-.04.13c.09-.06.04-.08.04-.13Z"/>
    <path class="cls-1" d="M7.19,30.65s-.06,0-.1.01c.02,0,.04,0,.05.02l.04-.03Z"/>
    <path class="cls-1" d="M7.5,33.96v-.02s-.09.04-.14.06l.14-.04Z"/>
    <path class="cls-1" d="M6.87,33.12s.24-.12.35-.18c-.1.05-.16.07-.19.06-.04.03-.1.07-.16.12Z"/>
    <path class="cls-1" d="M6.37,31.47h-.05s.03,0,.05,0Z"/>
    <path class="cls-1" d="M7.86,34.61s-.06.05-.08.06c.03-.02.05-.04.08-.06Z"/>
    <path class="cls-1" d="M26.42,57.12s-.03.02-.04.03c.03-.01.04-.02.04-.03Z"/>
    <polygon class="cls-1" points="26.03 58.92 26.01 58.92 25.88 59.01 26.03 58.92"/>
    <path class="cls-1" d="M10.29,39.23h0s-.03,0,0,0Z"/>
    <path class="cls-1" d="M15.52,46.36c.15-.23.36-.05.5-.34-.08.08-.44.14-.5.34Z"/>
    <path class="cls-1" d="M7.18,30.69s.02.02.03.03c0-.02-.01-.03-.03-.03Z"/>
    <path class="cls-1" d="M16.02,46.03h0s.01-.03.01-.03c0,.01,0,.02-.01.03Z"/>
    <path class="cls-1" d="M11.69,40.96s.06-.06.09-.09c-.02.02-.05.04-.09.09Z"/>
    <path class="cls-1" d="M11.08,39.37v.06s0-.04,0-.06Z"/>
    <path class="cls-1" d="M12.51,41.44s-.03.06.02.06c0-.01.02-.02.02-.03-.04.01-.06.01-.04-.04Z"/>
    <path class="cls-1" d="M13.02,42.17s.02-.03.04-.05h-.03s0,.05,0,.05Z"/>
    <path class="cls-1" d="M24.7,55.03c-.05.06-.11.12-.18.18.15-.13.29-.07.18-.18Z"/>
    <path class="cls-1" d="M7.06,30.74c.06-.03.1-.05.12-.04l-.03-.02s-.07.04-.09.06Z"/>
    <path class="cls-1" d="M14.35,40.21l.05.14s-.02-.1-.05-.14Z"/>
    <path class="cls-1" d="M20.89,49.9h.05s-.02-.01-.05,0Z"/>
    <path class="cls-1" d="M14.67,40.67c-.07.08-.1.13-.11.18.02,0,.04-.01.07-.03l.05-.15Z"/>
    <path class="cls-1" d="M24.52,55.22h0s0,0,0,0Z"/>
    <path class="cls-1" d="M25.61,55.57c-.07-.11-.33.16-.51.27-.18-.07.17-.22.29-.38-.14-.02-.46.12-.49.05.05-.04.05-.07.13-.1-.3.09-.2-.24-.57-.12.02-.03.04-.05.06-.07-.14.13-.29.24-.4.32-.04-.04-.25.05-.07-.11.02.03.1-.02.17-.05h-.12c.24-.24.15,0,.35-.14-.16-.03-.48.02-.46-.11.26-.22.22.11.39-.17l-.02.19c.36-.41.02.09.42-.33-.04-.21-.27-.07-.3-.28-.18.08-.22.18-.39.25-.43-.02.56-.68.08-.57-.21.09-.57.33-.47.08l.34-.19c-.08-.17-.51.24-.42-.07.14-.06.19.04.21,0,.17-.28-.23.06-.29-.02l.26-.22c-.16-.13-.49-.16-.67-.3.09-.05.2-.08.25-.19-.3-.12-.32-.5-.31-.84l-.3.09s.08-.11.14-.13c.03-.15-.15.11-.28.13-.05-.04.09-.16.18-.18-.31,0-.74-.11-.6-.45l.09-.02c0-.19-.59.22-.45-.06h.06c-.09-.35-.52-.48-.31-.95-.37.21-.04-.37-.53-.04.13-.32.24-.34.25-.67-.02-.07-.36.13-.46.1l.25-.18-.33.09.26-.27-.11-.02s-.07.14-.15.19c-.19-.02,0-.38.12-.47l-.39-.09c.1-.07.17-.05.26-.07-.35.05.25-.21-.07-.16-.05.06-.16.1-.21.13.11-.17.01-.31-.12-.36l.19-.1c-.09-.21-.36-.32-.5-.53-.03.13-.34.33-.41.29l.25-.21c-.19.08-.05.13-.31.2-.02-.1.26-.27.38-.29l-.16-.03c.08-.06.13-.07.24-.14-.19.08.15-.35-.17-.2l.07-.06c-.14-.21-.3-.23-.43-.39-.23.16-.23.06-.45.14-.01-.17.07-.44-.06-.57-.19-.02-.22.11-.38.16.2-.16.08-.29.28-.32-.16-.15-.2-.2-.53-.3-.07.09-.09.14-.17.18-.06-.02.02-.15.13-.22h.03c-.49-.03.19-1.02-.38-.91h.03s-.37-.05-.37-.05c-.03-.12.2-.05.28-.22-.51.02-.2-.39-.56-.41.52-.58-.4-.48-.14-.95l-.14.11c-.18.05.04-.12.05-.18-.11.08-.09.15-.19.17-.47-.3-.4-1.02-.57-1.55-.07-.19-.82.44-.61,0l.31-.13c-.55-.09-.45-.66-.94-.78.08-.02.16-.08.18-.05.15-.2-.16-.25-.32-.14-.02-.06.14-.11.2-.2.07-.15-.37,0-.2-.16.03-.03.08-.03.1-.02-.13.02-.12-.22-.31-.02.03-.19-.26-.16-.19-.34-.3.12-.02-.29-.39-.06.38-.25.16-.41-.07-.37.13-.05.07-.15.25-.22-.06-.08-.19-.11-.37.04.34-.47-.58-.07-.07-.55-.38-.12-.67-.26-.92-.42.38-.25.21.23.59-.05-.3-.11-.71-.02-.77-.29.01-.09.18-.08.26-.1-.3-.11-.25-.44-.59-.5.03-.02.09-.03.13-.03-.04-.03,0-.13-.17,0h.07c-.2.23-.62.21-.75.29.53-.27,0-.27.67-.59-.05,0-.15.02-.26.1,0-.06.07-.12.22-.17-.19-.07-.33.1-.41-.03.08-.06.13-.05.24-.11-.2.05-.41.09-.41-.06.05-.03.11-.08.13-.05-.15-.16-.63-.01-.62-.32.4-.19.07-.15.37-.37l-.16-.04-.12.14c-.06-.1-.34-.03-.29-.17l.17-.02-.18-.13-.05.18c-.22.01-.38.28-.38.09.05,0-.06-.1.09-.27h0c-.13.02-.27.04-.24-.08.09-.09.35-.22.41-.27-.29.13-.22-.17-.53-.04.08-.02.24-.13.27-.16l-.24.1c.04-.09.07-.12.2-.2-.05-.16-.36.31-.3.04.03,0,.05-.03.1-.02-.02-.21-.34-.21-.33-.42.28-.25.16.07.39-.15-.2-.17-.66-.17-.72-.42v.06c-.47.27.11-.29-.17-.25.05,0,.27-.13.21-.11-.02-.18-.3-.2-.57-.32l.13-.05c.05-.15-.08-.25-.09-.37-.13.05-.15-.01-.29.13.46-.7-.69-.28-.31-.87.02.03.14,0,.13-.02l-.24-.13c-.18.14-.1.1-.22.25-.13.05-.26.05-.29,0,.19,0,.31-.21.39-.32-.05.05-.13.08-.19.12.27-.33-.4.24-.26-.06l.11-.06c-.09-.02-.25.02-.26-.06.21-.17.14-.01.33-.13-.07-.07-.53.12-.36-.1.09,0,.12.04.2.04.21-.25.13-.22.14-.31h0s.03-.21.03-.21l-.05.08c-.65.28-.24-.14-.72-.02.45-.11.22-.12.48-.27.05-.08.09-.19.17-.22-.25.07.09-.22-.27-.11.08-.06-.04-.07.17-.2-.12-.04-.13.11-.23.17-.36.05.13-.53-.37-.47-.26-.06-.56.09-.79.03.1-.14.32-.15.32-.15.07-.16,0-.21-.14-.22.08-.03.13-.09.21-.17-.06-.05-.32.15-.26,0,.1-.05.26-.12.37-.15-.12-.02-.32,0-.45-.02.13-.11.25-.1.36-.13-.12-.04-.27-.13-.52-.01l-.04.11s.18-.14.24-.15c.22-.04,0,.16-.09.21l-.09-.02c-.44.37.22.17.26.29l-.38.18.36-.08c-.07.08-.26.23-.34.21-.12.19.17-.01.02.18-.02.03-.04.03-.06.04h.15c-.08.04-.24.18-.22.1-.11.27.41.05.18.27h-.03c.24.11.27-.15.66-.2l-.56.51.27-.15s.01.08-.1.14c.22-.04.1-.09.29-.15-.17.25.28.19-.11.48.22-.09.09-.19.29-.18-.42.32.15.07,0,.28-.24.12-.18-.04-.32.18.41-.2.03.22.15.25.3-.2.23.07.41.13-.11.06-.01.34-.05.53l-.05.03c.32-.18.34-.03.46.01-.18.12-.27.15-.38.16l.05.08c.11-.05.18-.06.25-.03l-.24.13c.08.1.41.03.35.27.22-.14.52-.51.76-.46-.11.08-.3.22-.38.21.02,0,.13-.02.09.04l-.23.07c-.04.12.18-.08.2-.01-.16.11-.09.12-.23.2-.02,0,.04-.09-.04-.06,0,.08-.04.21-.15.31.09-.07.22-.15.27-.12.08.1-.17.17-.22.29.13-.05.06.1.3-.07.02.03-.09.11-.15.17.14-.02.2.23.42,0v-.03s.02,0,.02,0h0s0,0,0,0c.36.02.11.47.34.57l-.08.06c.17.04.21.2.44.16.02.03-.1.18-.21.23.12.04.21-.01.16.2-.2.02-.11.11-.16-.01,0,.15-.11.27.19.23-.24.1-.21.26-.11.27l.1-.18c.07.04.08.1.1.16l-.29.16c-.19.44.83,0,.38.55.23-.07.06-.21.32-.31.03.12-.29.5-.27.53-.06.24.49-.15.48.07.09-.08.34-.28.5-.24.03.12-.33.4-.45.39-.02-.02,0-.05.03-.07-.06,0-.13-.02-.21.09l.11-.05c-.07.12.04.25-.15.32.14.01.18-.08.2-.17-.06.22.13.2.12.4.04-.06.14-.16.15-.13,0,.27.24-.04.38.06-.1.18-.37.22-.16.26-.05.15-.25.19-.35.22.27-.01.03.31.04.4h-.12c.07,0,.09.03.11.06l.17-.17c0,.06.01.09-.07.15.15-.05.31-.25.53-.3-.07.12.21.08-.04.27-.02-.21-.25.2-.38.09.05,0,.07.04.06.1-.03.03-.06.03-.08.03-.13.31.34-.13.44.02-.16.08-.25.23-.2.23-.04-.06.22-.2.37-.22-.05.18.16.05.18.11v-.1c.17-.08.19-.02.28.02-.11.08-.12,0-.15.05.31-.1-.15.35.1.34-.07.12-.27.19-.31.28.27-.01-.11.27.13.28.17-.17.12-.14.37-.19l-.28-.11.38-.07c-.04-.06-.21-.05-.21-.11.2-.05.15-.02.29-.16-.24.29.29.05.16.28l-.49.33c-.12.3.43.09.44.36l.04-.12c.21-.11.11.1.23.11-.17.11-.2.19-.28.28.12-.09.09.15.42-.06l-.16.23c.02.21.58-.14.63.04-.21.08-.28.22-.47.21.03.05.03.12.15.04-.08.1.31-.01.19.14.09-.03.26-.14.29-.07-.03.03-.08.06-.08.06.08-.06.17.01.32-.16-.4.5.33.4-.01.83.13.07.27.16.35.25-.05.03-.08.06-.08.03-.06.24.52-.24.46.03-.21.26-.2.02-.26.14-.52.39.2.13-.04.45h-.05c-.13.2.34.05.39.2,0,0-.05.03-.08.06.33-.1.54,0,.7.07-.24.11-.15.02-.34.19.07.03.33-.25.47-.19-.09.12-.13.27-.35.43l-.09-.1c-.25.26.1.13.09.22l-.13.08c.15.13.48-.09.57.1l.08-.09c.38-.13-.12.2.18.13l-.3.26c.12,0,.46,0,.6.07-.28.11-.5.06-.7.08.04.06.17.19.35.11-.05,0-.15.02-.12-.04.31-.1.5-.09.58.03-.64.42.07.43-.36.86.38.05.2.5.42.72.42-.43.07.06.55-.3.07.04.08.06.05.09l-.17.39c-.12.15-.15.02-.26.11.05.16-.17.2-.25.38.17-.14.29-.14.27-.02l.16-.27c.39,0-.31.45.08.45l-.2.05c.16.03.24.34.7.15-.05.06-.17.18-.23.16.1.26.78.19.65.54l-.13.07c.06.02.28-.09.19.05-.05.03-.13.07-.13.09.06,0,.29-.04.26.06l-.17.05c0,.33.57.09.78.21-.36.26-.35.51-.35.63l-.05.03c.14.28.6.21.91.34-.28.42.19.6.14.99.04-.08.28-.19.35-.18-.03.11.36-.03.02.2v-.02c-.3.27-.13.32-.08.42l.44-.29c-.46.68.66.43.19.96.15-.02.19.05.34.02l-.23.16c.05.19.08.29.27.44l-.19.08c.06.12.76-.35.84-.26l-.32.28c.14.18-.02.59.42.54-.05.03-.15.1-.19.08.05.09.01.5.46.13-.3.22.11.21.32.21l-.24.15c.35-.13.43-.18.59-.12,0,.05-.16.16-.13.08-.05.18.27-.08.23.12l-.17.06c.05.11.12.04.33-.03.13,0,.08.22-.12.39.13-.08.34-.15.32-.05-.07.06-.13.08-.16.09-.04.27.44.04.29.32-.07.06-.1.09-.12.12-.09-.13-.15-.24-.13-.24-.21.15-.17.28-.51.41.22-.03.66-.14.63.03-.02.02-.03.04-.06.07h-.03s.03.05.08.05c-.01.06-.02.1,0,.13-.16.14,0,.18.02.24.22-.17.24-.08.38-.28-.01.02-.03.01-.07-.02-.01,0-.02,0-.04,0h.02s-.07-.08-.11-.13c.14-.04.27-.07.19.07.17-.08.34-.16.42-.2-.26.3-.34.56-.52.72.24.06.35.3.85.09.09,0-.08.14-.14.21-.06,0-.08-.03-.15,0,.17,0,.24.23.55.03-.05.21-.32.14-.16.26l-.11.05c-.25.65,1.12-.07.76.71.02-.05.03-.08.08-.12.01.58.83.59.68,1.28,0,.17.19.04.38,0l-.22.2.36-.1c.32,0-.39.72.14.62l.14-.15c.02.09.26.15.07.28.04-.01.19-.1.12-.01l-.12.1h.35c.01.22-.52.37-.39.58.1.04.52-.07.59-.16-.02-.03.02-.14.15-.23l.12.02c.38-.27.8-.5.94-.86l-.31.06.15-.17.08.09c.13-.18-.05-.1-.18-.07.09-.08.14-.15.16-.2l-.44.15c.14-.12.33-.17.35-.3-.2.07-.29.3-.46.29.13-.18.28-.27.09-.23.09-.08.16-.11.22-.12-.16.03-.16-.12-.38,0,.17-.21-.2-.15.16-.41-.1.05-.35.11-.41.06.49-.22-.12-.22.35-.53-.43.21-.36-.13-.67-.1.04-.02.11-.05.1-.02-.02-.09.08-.2.12-.3-.32.23-.48.17-.71.25.24-.31.41-.22.68-.47-.25.19-.37.04-.56.23.14-.21.05-.13.28-.35-.4.28-.11-.01-.4.11.12-.24.35-.3.15-.32.08-.14.29-.15.29-.15ZM23.05,53.54h0s.04.03.05.04c-.01,0-.03-.02-.06-.04ZM22.89,53.33s.03.07.06.1c-.07.06-.16.12-.17.09.06-.03.07-.11.11-.19ZM21.66,54.94c-.06-.01-.02-.05.02-.09.02.01.04.03.07.04l.03-.02s-.09.05-.12.07Z"/>
    <path class="cls-1" d="M22,54.78s.02,0,.03,0c.01-.02.03-.04.04-.06l-.08.04.02.02Z"/>
    <path class="cls-1" d="M8.49,34.88h0s.01-.01.03-.02c-.01,0-.02.02-.02.02Z"/>
    <polygon class="cls-1" points="21.18 50.06 21.12 50.1 21.18 50.09 21.18 50.06"/>
    <path class="cls-1" d="M8.48,33.13s.04-.03.05-.06c-.01.01-.03.03-.05.06Z"/>
    <path class="cls-1" d="M8.18,32.57l.03-.13c-.03.06-.03.1-.03.13Z"/>
    <path class="cls-1" d="M8.03,32.09s-.08.04-.11.06h0s.11-.06.11-.06Z"/>
    <path class="cls-1" d="M12.62,38.28s.01,0,.02,0c.07,0,.04,0-.02,0Z"/>
    <path class="cls-1" d="M10.78,36.76c.06,0,.11-.02.15-.01,0-.05-.02-.08-.15.01Z"/>
    <polygon class="cls-1" points="14.34 40.19 14.34 40.19 14.35 40.21 14.34 40.19"/>
    <path class="cls-1" d="M10.99,36.84c.02-.07,0-.09-.06-.09,0,.04,0,.09.06.09Z"/>
    <path class="cls-1" d="M6.97,30.27v-.03s-.03.02-.04.02h.04Z"/>
    <path class="cls-1" d="M6.93,30.27h-.04s.01.01.04,0Z"/>
    <path class="cls-1" d="M6.8,30.26h.09s-.02-.03-.09,0Z"/>
    <path class="cls-1" d="M7.22,30.88l.09-.05s-.05.02-.09.05Z"/>
    <path class="cls-1" d="M7.35,31.03c0-.05.12-.22.03-.24l-.07.04c.14-.06-.12.25.04.2Z"/>
    <path class="cls-1" d="M6.75,32.4l-.02-.18c-.07.08-.18.2-.24.15-.16.35.18-.17.26.03Z"/>
    <path class="cls-1" d="M6.9,32.91c-.09-.05-.13.09-.18.12.11,0,.14-.01.18-.12Z"/>
    <path class="cls-1" d="M8.95,35.95l-.22.14c.07.04.08-.05.22-.14Z"/>
    <polygon class="cls-1" points="10.43 35.79 10.53 35.65 10.32 35.75 10.43 35.79"/>
    <polygon class="cls-1" points="9.16 37.16 9.11 37.15 9.25 37.19 9.16 37.16"/>
    <path class="cls-1" d="M12.72,42.18l.25-.2c-.07,0-.37.19-.25.2Z"/>
    <path class="cls-1" d="M14.51,44.18c-.11.11-.15.23,0,.18-.02-.06.05-.18,0-.18Z"/>
    <polygon class="cls-1" points="18.72 50.97 18.6 50.99 18.73 51.02 18.72 50.97"/>
  </g>
</svg>