<?xml version="1.0" encoding="UTF-8"?>
<svg id="Layer_1" data-name="Layer 1" xmlns="http://www.w3.org/2000/svg" viewBox="0 0 84.28 84.58">
  <defs>
    <style>
      .cls-1 {
        fill: #69abbc;
        stroke-width: 0px;
      }
    </style>
  </defs>
  <g>
    <path class="cls-1" d="M15.48,15.41c-.09.09,0,.24.27.16l.15-.31-.41.15Z"/>
    <path class="cls-1" d="M17.41,15.61c.3-.19.63-.49.38-.71-.27.32-.37.22-.66.6-.27.08-.49,0-.47-.12-.08.09-.44.01-.55.21.39.15.85.08,1.29-.18.11.04.03.13.01.19Z"/>
    <path class="cls-1" d="M44.25,11.42h-.18c.05,0,.11,0,.18,0Z"/>
    <path class="cls-1" d="M58.25,15.24c-.05-.11-.1-.15-.13-.14.06.1.12.18.13.14Z"/>
    <path class="cls-1" d="M58.94,18c-.01-.06-.03-.11-.04-.17,0,.07,0,.14.04.17Z"/>
    <path class="cls-1" d="M44.25,11.42h.46c.02-.09-.24-.02-.46,0Z"/>
    <path class="cls-1" d="M20.98,14.3c-.09.03-.16.07-.23.11l.22-.07v-.05Z"/>
    <path class="cls-1" d="M36.98,12.91l-.13.02s-.06.08-.09.13l.23-.16Z"/>
    <path class="cls-1" d="M31.37,13.92c.13-.01.13-.26.16-.37-.05.11-.14.17-.25.21,0,.05.03.1.09.16Z"/>
    <path class="cls-1" d="M22.41,15.04l-.15.06s.11-.04.15-.06Z"/>
    <path class="cls-1" d="M41,12.26s.04.06.07.08c0-.03-.03-.05-.07-.08Z"/>
    <path class="cls-1" d="M15.61,25.91s.03,0,.04,0c-.03-.03-.05-.04-.04,0Z"/>
    <path class="cls-1" d="M15.69,19.2l.03.09s.09,0,.14,0l-.16-.09Z"/>
    <path class="cls-1" d="M60.31,23.06s0-.01,0-.02c-.07-.12-.04-.05,0,.02Z"/>
    <path class="cls-1" d="M62.51,65.56c.57.13-.83.41.02.52-.09-.08.68-.49-.02-.52Z"/>
    <path class="cls-1" d="M21.13,14.31l.23-.04c-.11.01-.18.02-.23.04Z"/>
    <path class="cls-1" d="M62.52,66.08h0s.09.01.09.01c-.04,0-.06,0-.09-.01Z"/>
    <path class="cls-1" d="M63.67,34.62s.06-.09.07-.14c-.02,0-.05.04-.07.14Z"/>
    <path class="cls-1" d="M61.67,25.86l.03.22c0-.09-.02-.16-.03-.22Z"/>
    <path class="cls-1" d="M65.02,39.09c0,.12-.02.17.05.32,0-.02.01-.03.02-.06-.04-.05-.08-.13-.07-.27Z"/>
    <path class="cls-1" d="M65.96,43.86s.02-.06.03-.1c-.01-.05-.03-.1-.04-.15v.25Z"/>
    <path class="cls-1" d="M18.16,40.51c.05-.12.11-.19.18-.26-.16.1-.33-.59-.18.26Z"/>
    <path class="cls-1" d="M21.01,14.43c.02-.06.05-.1.13-.13-.05.01-.11.03-.16.04,0,.04,0,.07.03.09Z"/>
    <path class="cls-1" d="M66.92,38.9l.13.77c-.02-.22-.07-.5-.13-.77Z"/>
    <path class="cls-1" d="M30.14,71.57l-.18.04c.07,0,.14-.01.18-.04Z"/>
    <path class="cls-1" d="M67.53,41.93c-.06.15-.08.31-.08.46.02.03.05.06.08.08v-.54Z"/>
    <path class="cls-1" d="M18.34,40.25h0s0,0,0,0Z"/>
    <path class="cls-1" d="M16.94,35.31c.12.73.36.29.57.42.23.85-.16.44-.27.76.17.53.53.9.58,1.3-.05.04-.05.12-.13.04.34.53.3,1.7.72,2.32-.02.05-.04.08-.06.1.14-.13.29-.18.41-.17.06.33.3.57.11.73-.03-.2-.11-.2-.19-.29l.15.33c-.24.36-.18-.45-.4-.41.21.65.58,1.39.58,1.91-.27.15-.3-1.18-.44-.45l-.02-.81c-.35.68-.05-.49-.44.15.09,1.05.34,1.14.43,2.19.2.21.22-.12.42.09.53,1.43-.53,1.28.04,2.3.24.25.62.3.56,1.1l-.37-.21c.14,1.01.56.5.52,1.59-.16-.17-.24-.77-.25-.62-.14.73.26.45.35.98l-.27.16c.22,1.07.63,2.21.88,3.39-.1-.05-.22-.24-.26.05.39,1.48.5,3.21.57,4.68l.34.51c.02.13-.07.26-.14.13,0,.58.16,0,.3.26.07.32-.07.45-.18.26.38.96.93,2.76.84,3.85l-.11-.19c.04.83.66.84.56,1.63l-.07-.14c.17,1.79.73,3.76,1.16,5.3.23.05.43.51.74.91.29.41.68.74.89.59.39.46.55.65.77.84.22.19.52.43,1.35.7.45.12.72-.19,1.23-.21v.26c.24-.08.48-.16.71-.26l.37.31.47-.09c-.19,0-.4-.1-.38-.18.73-.14,1.76.05,1.79.19l1.63-.37c-.03.11-.3.17-.51.26.86-.35.19.26.97-.06-.11-.05.04-.16.06-.22.42.12,1.33.03,2-.1l-.11.19c1.23-.08,2.57-.35,3.94-.49-.5-.03-.42-.36-.02-.43l.19.26c.24-.2-.43-.06.08-.33.51-.02.38.28.09.4l.61-.16c.05.08-.1.14-.12.25.24-.2,1.11.16,1.44-.18l.04.08c1.37-.15,1.98-.32,3.09-.47,0-.24.44-.24.74-.47.83-.03,1.76.05,2.74-.1.68-.21.18-.23.47-.41.08.21,1.06.06.57.29,1.18-.19,1.51-.24,2.98-.62-.17-.07-.36-.08-.28-.17.27-.07.63,0,.6.12l-.07.03c1.63-.55,3.96.08,5.23-.57l-.07.03,1.35-.45c.64-.06-.36.22.13.28,1.43-.59,2.36-.31,3.55-.75.53.23,1.35.12,2.32-.15.96-.26,1.99-.78,2.76-1.2l-.17-.05c.23-.39.45-.27.69-.49-.12-.04-.42.25-.3,0,1.19-1.37,1.6-3.1,1.77-4.67.18-1.61.1-3.14.03-4.59-.07-1.07-.84-.52-.63-1.9l.32.35c-.58-2.11-.52-4.39-1.13-6.44.08.11.17.11.2.31.14-.47-.24-1.64-.41-1.61-.03-.33.14-.1.19-.31.05-.46-.44-1.07-.28-1.34.03-.05.09.11.11.19-.14-.27-.2-1.35-.39-1.03-.03-.8-.37-1.47-.35-2.12-.33-.36-.14-1.36-.53-1.41.39-.02.04-1.43-.25-1.88.15.14.03-.45.23-.29-.12-.56-.3-1.06-.48-.92.24-1.13-.83-1.98-.38-2.7-.59-1.61-1.1-3.1-1.58-4.55.39-.04.47,1.62.84,1.46-.52-1.37-1.04-2.09-1.34-3.5-.05-.37.22.16.32.26-.54-1.35-.72-2.71-1.3-3.88.04,0,.11.12.18.23-.08-.24-.11-.58-.27-.5l.12.22c-.13.46-.79-.81-.94-.81.61.26-.26-1.25.55-.78-.08-.15-.22-.32-.32-.25-.04-.25,0-.34.2-.14-.36-.84-.44-.47-.69-1.26.08-.02.16.13.28.18-.28-.35-.57-.69-.72-1.38.06.02.1-.07.16.12-.4-1.13-1.06-1.79-1.34-3.08.48.24-.03-.46.25-.63l-.33-.63-.05.32c-.2-.59-.61-1.02-.72-1.56l.3.39c-.16-.36-.34-.72-.52-1.07l.16.66c-.4-.52-.34.22-.6-.57.1.14-.26-.56-.27-.94h0c-.24-.22-.5-.43-.71-.86,0-.16.34-.13.35-.23-.37-.11-1.08-1.15-1.6-1.15.15.03.26-.09.24-.15-.11,0-.24,0-.35.01-.21-.23-.23-.29-.11-.37-.78-.51.05.48-.81-.2.08.02.06-.03.23.03-.94-.62-2-.62-2.94-.84-.25-.36.87.04.58-.28-1.47-.17-2.96.23-4.27.32h.25c-.13.48-1.01-.1-1.64.23.16-.06.17-.28.14-.23-.91.07-1.79.42-3.11.79l.15-.14c-.54-.01-1.38.18-1.95.22-.15.14-.47.18-.25.31-1.85-.35-3.25.92-4.88.64.18-.03.42-.18.27-.15l-1.29.33c.14.18.19.09.49.19-.15.14-.5.3-.83.35.57-.23-.06-.31-.33-.38.05.05-.02.13,0,.19-.74-.23-.05.41-1.02.34l.03-.11c-.34.11-.64.3-1.02.34-.2-.2.35-.17.35-.36-.53.1-.97.61-1.49.47.21-.1.54-.16.75-.26-.57-.17-.62-.1-1.01-.07h.04s-.92.03-.92.03l.24.03c-.56.7-1.33.34-2.16.88.81-.51.11-.24.13-.5-.24-.03-.6-.05-.51-.14-.39.28-.73-.04-1.28.36-.04-.08-.45.07-.39-.15-.54.16.15.12.13.23-.8.43-2.05,0-3.2.6-1.02.34-1.17.65-2.12.96-.35-.07.22-.35.22-.35-.55-.03-.95.06-1.43.24.09-.09-.03-.13-.19-.2-.4.09-.22.35-.77.32.07-.11.17-.27.34-.4-.46.16-.9.39-1.38.55-.15-.12.26-.27.41-.39-.54.16-1.4.38-1.53.63l.37.02c-.2.05-.14-.18,0-.24.44-.26.69-.04.73.04l-.34.11c.44.42,1.39-.32,2.09-.41l-.23.4.67-.42c.17.06.31.24-.03.35.53.09.42-.2.89-.08.05.02.03.04,0,.06l.47-.19c-.08.09.12.23-.19.23.92.05,1.38-.51,1.75-.3l-.07.03c1.2-.33.07-.28.94-.74l.73.53.08-.28c.13-.01.38-.04.35.07.44-.26-.1-.1.14-.31.65.13,1.66-.4,1.86-.01.18-.23-.61-.05.02-.3.26.41.74-.21,1.33-.1-.13.26-.68.23-.09.33.27-.44,1.1-.1,1.55-.26-.03-.31,1-.3,1.76-.54-.03.11,1.51-.09,2.26-.1v.06c.08-.33.84-.41,1.38-.57.01.19-.08.28-.36.41l.52-.09c.1-.12.26-.2.59-.29l-.09.25c.68-.13,1.34-.51,2.25-.51.01-.22-.81-.48.1-.79.05.11.12.3-.11.39.08-.03.27-.15.44-.12l-.34.26c.42.02.18-.2.51-.24.02.17.26.08.24.22-.08.03-.29-.02-.4.07.37-.03.82-.01.99.09-.05-.09-.04-.22.22-.29.68-.13.27.16.69.18.15-.14.61-.1.57-.35.2-.03.26.08.35.13.34-.17,1.65-.32,1.21-.51h-.09s.04-.01.06-.02h0s0,0,0,0c1.12-.45,2.45-.28,3.58-.58v.08c.68-.21,1.53-.29,2-.52.21-.02.49.11.42.22.51-.1.58-.21,1.33-.08-.52.16.18.13-.53.12.68.06.81.18,1.53,0-.25.19.46.31.77.3-.14-.08-.28-.14-.43-.22.35,0,.65.09.94.17l-.22.24c.58.3,1.12.35,1.65.49.52.13.99.39,1.13.93.39.08-.41-.56-.04-.54.45.42.52,1.17.61,1.31.32.73.78.39,1.1,1.24.04-.14.24-.38.62.21.23.61-.08.89-.31.55-.07-.14-.07-.21-.03-.22-.12-.17-.27-.39-.26-.12l.13.03c.04.32.37,1.12.14,1,.26.41.23.13.15-.22.16.81.45,1.2.64,2.05,0-.15.08-.31.12-.18.3,1.23.37.46.69,1.26.01.51-.4-.05,0,.73.07.53-.22.19-.36.02.43.68.34,1.43.45,1.87l-.21-.37c.12.22.19.41.25.61l.12-.29c.04.24.11.44.02.46.2.2.26-.29.59.13,0,.34.4.91.18,1.1-.22-1-.22.19-.52-.62.08.15.14.34.18.58-.02.04-.06-.02-.1-.07.06,1,.42.33.72,1.3-.18-.08-.2.31-.13.46-.12-.39.19-.26.4.06.07.65.28.65.37.98l-.06-.39c.18.08.26.4.43.82-.1.07-.19-.37-.2-.2.4.41.06,1.16.42,1.79-.01.34-.27.11-.26.4.4.7.03.87.4,1.62.14-.28.08-.31.42.2l-.5-1.27.52.76c-.11-.39-.36-.8-.39-1.04.27.35.21.33.32.09-.14.62.47,1.02.43,1.7l-.49.11c.03,1,.7,1.6.87,2.86v-.41c.22.12.2.75.38,1.13-.17,0-.17.27-.23.46.12-.05.2.9.55.93l-.09.6c.14,1.01.74,1.02.88,2-.24-.25-.27.21-.53-.4.07.32.1.61.21.59-.06.21.41.84.32,1.17.1.12.28.13.35.49-.03.05-.08.02-.08.02.08-.02.22.54.34.19-.32,1.09.59,2.76.29,3.71.18.69.39,1.53.5,2.17-.06-.03-.08.01-.09-.11-.01.91.57.46.56,1.5-.19.56-.23-.51-.28-.17-.52.23.27,1.2.04,1.93l-.06-.16c-.11.54.4,1.23.47,2.08,0,0-.05-.03-.08,0,.35.54.6,1.63.77,2.44-.25-.23-.16-.36-.36-.18.07.36.34-.15.49.57-.09.25-.13.79-.36.89l-.09-.69c-.26.39.11.89.1,1.26l-.14-.03c.16,1.05.49,1.03.58,2.17l.09-.13c.39.59-.13.54.17,1.14l-.32.21c.11.39.42,1.39.44,2.12-.23-.42-.37-1.25-.55-1.76.03.4.07,1.33.23,1.54-.03-.16-.11-.36-.06-.51.27.48.39,1.14.26,1.92-.31-.12-.42.37-.62.89-.19.52-.52,1.06-.87,1.08-.25.53-.74.86-1.33,1.05-.6.2-1.3.27-2.1.42.66.4-.47.09-.29.59-.38.1-.53.11-.57.08l-1.22-.12c-.3-.11.35-.17.3-.28-.85.1-.39-.16-.97-.21.14.17-.25.31-.75.32l.72.13c-1.14.46-1.09-.27-2.24.18l.35-.22c-.6.19-2.26.34-2.8.84-.12-.04-.28-.16-.02-.24-1.47.15-3.2.91-4.37.81l.09-.14c-.27.07-.44.3-.8.22.01-.05.09-.14-.03-.13-.14.06-.7.32-1.07.29l.29-.18c-1.45.03-2.15.63-3.34.87-.04-.37-1.19-.36-1.76-.35v-.06c-1.66.15-2.78.65-4.32.97-1.01-.3-3.27.19-4.84.11.24.04,0,.3-.28.36-.37-.04-.98.36-.95.01h.13c-.31-.32-1.04-.16-1.63-.11l-.05.46c-1.59-.51-4,.64-4.67-.09-.33.08-.71.02-1.04.04l.08-.23c-.74-.32-1.02-.49-1.68-1.19l.25.04c-.3-.4-1-.17-1.28-.72l.26-.31c-.44-1.02-.35-2.25-.87-3.4.06.01.16.03.21.23-.09-.58-.13-2.28-.59-1.99.32-.07-.18-1.27-.43-1.91l.25.06c-.39-.51-.48-.51-.69-1.28,0-.19.16-.19.14.06.02-.64-.3-.44-.3-1.21l.2.25c-.09-.64-.16-.58-.39-.9-.16-.38-.14-1.22.05-1.35-.14-.06-.38-.38-.38-.77.07-.06.14.06.18.13-.02-1.09-.54-1.54-.43-2.31.08-.03.11-.08.12-.15.14.85.24,1.53.21,1.47.22-.04.14-.73.53-.23-.25-.52-.77-1.4-.78-2.08.02-.04.03-.07.06-.1l.04.06c0-.16-.05-.29-.11-.41,0-.22,0-.36-.03-.56.17-.11-.03-.8-.08-1.14-.23.07-.27-.38-.39.07,0-.06.04.06.09.28.02.05.03.11.05.14l-.02-.02c.04.22.1.51.16.84-.17-.25-.31-.51-.24-.91-.18-.15-.37-.32-.46-.41.25-.52.28-1.45.46-1.61-.31-1.02-.5-2.43-1.05-3.01-.11-.29.07-.36.12-.48.07.16.1.37.18.45-.21-.57-.34-1.74-.67-1.83.02-.77.36.37.13-.64l.12.12c.16-2.1-1.34-3.14-1.08-5.48-.01.16-.02.24-.07.28-.14-2.59-1.14-5.2-1.11-7.78-.03-.73-.24-.77-.46-1.18l.23-.2-.42-.7c-.39-1.02.32-1.93-.31-3.2l-.14.2c-.05-.49-.36-1.5-.14-1.46-.04-.04-.2-.13-.15-.33l.13-.04-.43-1.14c-.06-.93.55.05.36-1.28-.13-.49-.62-1.35-.68-1.15.03.2,0,.53-.13.56l-.15-.44c-.41-.02-.87-.3-.96.86l.37.74-.15.28-.12-.65c-.12.4.08.61.23.85-.09.08-.14.2-.16.36l.5.7c-.14.12-.36-.29-.36.23.23.33.29-.4.5.17-.12.4-.28.32-.05.73-.09.08-.17,0-.24-.17.19.37.22,1.02.47,1.18-.16.42.28,1.3-.1,1.32.11.11.41.63.48.99-.55-.58.2,1.34-.31,1.25.48.41.47,1.71.83,2.53-.04-.04-.12-.13-.11-.2.05.49-.05.65-.07.97.34,0,.54.74.81,1.11-.22.64-.45-.29-.72-.06.26-.07.44.98.63.74-.12.48-.03.4-.27.68.43,0,.14.41.46.74-.09.69-.36.23-.11.93-.07.36-.32-.25-.32-.25ZM20.5,52.21h0c-.03-.14-.06-.27-.07-.35.02.07.04.17.08.35ZM20.74,53.64c-.02-.18-.05-.39-.09-.62.07-.06.17-.02.19.12-.07-.07-.06.28-.09.5ZM21.88,50.34c.07.22.04.3,0,.34-.03-.11-.06-.23-.09-.39l-.03-.02s.1.03.13.07Z"/>
    <path class="cls-1" d="M21.5,49.98s-.02-.05-.03-.09c-.01.05-.02.1-.03.14l.09.07s-.02-.08-.02-.12Z"/>
    <path class="cls-1" d="M44.04,11.41h.03s-.05-.01-.07-.02c.02,0,.02.02.04.02Z"/>
    <polygon class="cls-1" points="28.39 71.71 28.39 71.65 28.25 71.69 28.39 71.71"/>
    <path class="cls-1" d="M36.03,11.96s-.05-.03-.11-.04c0,.01.06.03.11.04Z"/>
    <path class="cls-1" d="M32.62,12.5h-.5c.22.01.37,0,.5,0Z"/>
    <path class="cls-1" d="M29.99,12.83s-.03.08-.03.11h0s.03-.11.03-.11Z"/>
    <path class="cls-1" d="M63.16,25.22s.02.07.04.1c.11.22.05.07-.04-.1Z"/>
    <path class="cls-1" d="M58.41,13.5c.11.1.21.2.3.31-.09-.22-.18-.37-.3-.31Z"/>
    <polygon class="cls-1" points="66.91 38.81 66.9 38.81 66.92 38.9 66.91 38.81"/>
    <path class="cls-1" d="M58.97,14.35c-.06-.23-.15-.4-.26-.54.08.18.15.39.26.54Z"/>
    <path class="cls-1" d="M18.65,14.68h-.13s0,.04,0,.05l.14-.05Z"/>
    <path class="cls-1" d="M18.51,14.73l-.14.05c.06-.01.12-.02.14-.05Z"/>
    <path class="cls-1" d="M18.09,14.9l.28-.11c-.1.02-.23.03-.28.11Z"/>
    <path class="cls-1" d="M22.13,14.19l.02-.09s-.03.05-.02.09Z"/>
    <path class="cls-1" d="M23.17,13.99c-.25.02-.66-.07-1,.04l-.02.07c.14-.16.81.07,1.02-.11Z"/>
    <path class="cls-1" d="M27.74,14.29l-.89.08c.17.06.39.15,0,.24,1.16.08-.26-.17.9-.33Z"/>
    <path class="cls-1" d="M30.5,13.95c-.47.12.03.13.01.19.29-.14.35-.17-.01-.19Z"/>
    <path class="cls-1" d="M50.2,10.66l-.03.22c.35-.05,0-.08.03-.22Z"/>
    <path class="cls-1" d="M54.11,9.81c-.11-.07-.23-.16-.35-.23l-.22.16c.19,0,.38.03.57.07Z"/>
    <path class="cls-1" d="M55.45,12.11l-.13-.05c.15.08.32.15.46.24-.11-.07-.23-.12-.34-.19Z"/>
    <path class="cls-1" d="M65.59,43.05l.25-.16c-.09-.24-.4-.23-.25.16Z"/>
    <path class="cls-1" d="M67.89,57.32c-.12.17-.16.58,0,.82-.01-.33.06-.66,0-.82Z"/>
    <polygon class="cls-1" points="32.2 69.34 32.48 69.23 31.94 69.35 32.2 69.34"/>
  </g>
  <g>
    <path class="cls-1" d="M49.9,26.16c0-.07-.02-.24-.05-.2v.28s.05-.08.05-.08Z"/>
    <path class="cls-1" d="M49.61,25.67c-.02.14-.04.39.01.64,0-.28.03-.16.04-.49.03-.04.07.08.08.19,0-.07.06.06.06-.12-.07-.21-.13-.21-.17-.03-.02-.06-.02-.14-.02-.19Z"/>
    <path class="cls-1" d="M46.19,25.63l.03.03s-.02-.03-.03-.03Z"/>
    <path class="cls-1" d="M44.08,25.72s.02-.04.02-.06c-.01.02-.02.04-.02.06Z"/>
    <path class="cls-1" d="M43.69,25.45s.02.01.02.02c-.01-.02-.02-.04-.02-.02Z"/>
    <path class="cls-1" d="M46.19,25.63l-.07-.08c0,.09.04.06.07.08Z"/>
    <path class="cls-1" d="M49.22,26.4s.02-.04.02-.08c0,.01-.02.02-.02.03,0,.02,0,.03,0,.04Z"/>
    <path class="cls-1" d="M47.08,25.29h.02s0-.07,0-.12l-.02.12Z"/>
    <path class="cls-1" d="M47.78,25.17s0,.23.01.34c0-.1,0-.15.02-.17,0-.05-.01-.1-.03-.17Z"/>
    <path class="cls-1" d="M48.95,25.45l.02-.04s-.01.02-.02.04Z"/>
    <path class="cls-1" d="M46.57,25.3s-.01-.07-.02-.08c0,.03,0,.06.02.08Z"/>
    <path class="cls-1" d="M27.02,29.42s0-.03,0-.04c0,.02,0,.04,0,.04Z"/>
    <path class="cls-1" d="M26.06,28.33h0c0-.06,0-.1-.01-.15v.15Z"/>
    <path class="cls-1" d="M43,25.22s0,0,0,0c.01-.03,0-.02,0,0Z"/>
    <path class="cls-1" d="M37.03,26.1c.09.21-.08.29.05.51-.02-.09.05-.38-.05-.51Z"/>
    <path class="cls-1" d="M49.2,26.37s-.02,0-.03,0c.01,0,.02,0,.03,0Z"/>
    <path class="cls-1" d="M37.08,26.62s0,0,0,0v.02s0-.02,0-.02Z"/>
    <path class="cls-1" d="M41.51,25.54s.02.07.03.1c0-.02-.01-.05-.03-.1Z"/>
    <path class="cls-1" d="M42.67,25.75l-.03-.03s.02.03.03.03Z"/>
    <path class="cls-1" d="M40.97,25.95s-.03-.05-.04-.01c0,.01,0,.02,0,.03,0-.03.01-.05.03-.01Z"/>
    <path class="cls-1" d="M40.37,26.02s.01.03.02.05c0,0,.01-.01.02-.02l-.03-.03Z"/>
    <path class="cls-1" d="M28.85,29.09c-.02-.07-.04-.14-.05-.21.03.17-.05.24.05.21Z"/>
    <path class="cls-1" d="M49.21,26.27c0,.06,0,.09,0,.1,0,0,.01,0,.02-.02,0-.04,0-.07-.01-.09Z"/>
    <path class="cls-1" d="M41.17,27.83l-.1-.02s.07.03.1.02Z"/>
    <path class="cls-1" d="M33.18,28.54l-.02.03s.02,0,.02-.03Z"/>
    <path class="cls-1" d="M40.79,27.88c-.03-.08-.05-.13-.07-.16,0,.02,0,.03,0,.06l.08.1Z"/>
    <path class="cls-1" d="M28.79,28.87s0,0,0,0c0,0,0,0,0,0Z"/>
    <path class="cls-1" d="M28.23,29.52c.09,0,0-.31,0-.49.1-.1.08.23.13.38.06-.09.08-.39.13-.38,0,.05.02.07.02.13.04-.26.21-.04.26-.36,0,.03.02.05.02.08-.03-.16-.05-.32-.06-.43.04-.01.05-.21.09,0-.03,0-.02.08-.02.15l.03-.09c.07.29-.05.11-.02.33.07-.11.14-.36.22-.29.05.29-.14.11-.02.36l-.11-.1c.13.45-.06-.02.06.45.14.07.13-.16.27-.1.01-.16-.04-.24-.03-.4.15-.31.23.71.32.31.01-.2-.02-.56.1-.38v.33c.14.02.02-.48.18-.27,0,.13-.09.12-.06.16.12.25.04-.19.11-.2l.05.29c.13-.06.25-.29.4-.36,0,.09-.01.18.03.26.17-.17.41-.01.61.14l.04-.26s.04.11.03.16c.08.09-.01-.16,0-.26.04-.02.07.14.05.21.1-.23.3-.5.47-.25l-.02.08c.11.09.06-.52.18-.3v.05c.22.08.44-.18.66.18-.01-.36.24.13.19-.37.16.23.13.33.33.47.05.02.03-.32.09-.38l.03.26.05-.28.08.31.05-.07s-.06-.11-.07-.19c.07-.13.23.16.25.29l.18-.25c0,.11-.02.15-.04.22.08-.28.05.27.12.02-.02-.06-.01-.16-.02-.21.07.15.18.14.26.06v.18c.16.03.32-.12.49-.14-.07-.08-.09-.39-.05-.43l.05.27c.01-.18-.06-.1-.02-.32.07.02.08.31.05.4l.07-.11c.01.08,0,.13,0,.23.01-.18.17.26.18-.04v.08c.18-.02.25-.12.39-.15-.03-.24.04-.19.05-.39.11.06.25.24.37.2.07-.13,0-.21.02-.35.03.22.15.18.11.35.14-.05.18-.07.35-.26-.03-.09-.06-.12-.06-.2.03-.04.09.08.1.19v.02c.17-.35.55.58.67.1v.02s.14-.26.14-.26c.08.03-.03.17.05.3.14-.38.3.02.43-.24.19.63.42-.09.63.3l-.03-.15c.02-.15.06.08.1.11-.02-.12-.06-.13-.04-.22.33-.22.75.14,1.13.23.14.03-.02-.79.19-.45v.29c.21-.37.53-.05.76-.37,0,.07,0,.15-.02.15.08.2.2-.01.19-.18.04.01.03.15.06.23.07.11.11-.28.16-.08,0,.03,0,.07-.02.08.02-.1.17,0,.11-.23.11.1.17-.13.27,0,.02-.27.18.11.15-.27.04.39.21.29.25.1,0,.12.07.11.06.28.07-.01.13-.09.09-.29.18.44.22-.4.36.18.19-.23.36-.39.54-.51.04.38-.2.06-.15.46.16-.18.22-.52.41-.45.05.05,0,.17-.01.24.16-.18.35,0,.48-.23,0,.04,0,.08-.02.11.03-.02.08.05.06-.13l-.03.05c-.08-.25.06-.54.05-.68,0,.51.17.11.16.75.02-.04.03-.12.01-.24.03.03.05.1.04.23.1-.11.04-.29.14-.3,0,.08,0,.12,0,.22.03-.17.06-.34.16-.28,0,.05.02.12,0,.12.14-.04.2-.47.38-.33,0,.37.07.11.12.43l.08-.1-.05-.15c.08,0,.12-.24.19-.15l-.04.14.14-.08-.1-.11c.06-.17-.06-.4.06-.32-.02.03.08,0,.14.18,0,0,0,0,0,0,.03-.11.05-.22.12-.14.03.1.03.35.05.42,0-.27.17-.09.18-.38,0,.07.01.23.02.27v-.22c.05.06.06.1.07.23.11.03-.08-.4.07-.24,0,.02,0,.05-.02.09.14.08.23-.17.36-.07.07.32-.09.09-.02.35.16-.08.3-.42.47-.37l-.03-.03c-.03-.45.15.21.2-.01-.02.04,0,.25,0,.2.12.06.21-.14.37-.3v.12c.07.1.17.04.25.08,0-.12.05-.1,0-.27.3.63.37-.4.63.12-.02,0-.04.11-.02.11l.15-.13c-.04-.19-.04-.12-.09-.27,0-.12.04-.21.08-.22-.06.14.04.32.08.42-.01-.06,0-.13-.02-.19.13.34-.03-.4.11-.18v.1c.04-.06.07-.2.12-.17.05.22-.03.11-.02.3.07-.02.08-.45.17-.23-.02.07-.06.07-.08.14.1.26.1.19.15.23h0s.13.1.13.1l-.04-.07c.01-.6.16-.13.22-.53-.07.38,0,.21.03.47.04.07.09.14.09.22.03-.21.11.15.15-.16.01.08.06,0,.07.21.06-.07-.03-.14-.04-.25.07-.3.29.31.4-.09.11-.18.1-.46.21-.61.06.13,0,.31,0,.31.08.11.13.09.18-.02,0,.07.02.13.05.22.05-.03,0-.31.08-.19,0,.09,0,.24-.01.34.05-.08.09-.24.14-.33.03.14-.01.22-.02.32.06-.07.16-.15.16-.38l-.05-.08s.04.19.02.24c-.04.19-.09-.07-.11-.15l.04-.06c-.1-.48-.17.1-.26.08v-.36s-.06.3-.06.3c-.03-.09-.07-.29-.03-.34-.08-.17-.04.13-.12-.06,0-.03,0-.05,0-.06l-.05.11c0-.08-.04-.25,0-.2-.14-.19-.15.29-.22.02v-.02c-.13.14.02.26-.06.58l-.15-.63.02.26s-.05-.02-.06-.13c-.04.18.02.11,0,.28-.1-.23-.2.14-.26-.28,0,.2.09.14.03.29-.08-.44-.09.09-.18-.11,0-.23.07-.12-.02-.31,0,.39-.15-.07-.2.01.03.31-.11.14-.2.26,0-.1-.21-.15-.31-.25v-.05c.02.31-.09.27-.15.34-.02-.19-.02-.26.01-.35h-.06c0,.11-.02.17-.06.21v-.23c-.1.02-.15.3-.28.15.02.22.16.6.06.75-.02-.12-.05-.32-.02-.37,0,.02-.02.1-.05.05l.02-.2c-.06-.08,0,.17-.05.15-.02-.17-.04-.12-.05-.25,0-.02.04.07.05,0-.05-.02-.12-.12-.15-.24.02.09.03.23,0,.25-.09.02-.05-.2-.11-.28,0,.12-.08,0-.05.26-.03,0-.04-.11-.06-.18-.03.12-.21.06-.12.32v.02s0,0,0,.01h0s0,0,0,0c-.12.27-.32-.11-.45.02v-.08c-.09.11-.2.08-.24.27-.03,0-.08-.15-.08-.25-.06.07-.06.17-.17.04.05-.15-.04-.13.06-.12-.09-.06-.13-.19-.2.05,0-.22-.1-.26-.13-.19l.08.15s-.08.02-.13,0v-.29c-.23-.32-.26.62-.46.06-.02.2.11.13.1.36-.09-.03-.22-.42-.24-.42-.13-.14-.06.43-.18.33.03.1.07.37,0,.47-.09-.03-.15-.41-.11-.5.02-.01.03.02.03.05.02-.04.05-.09,0-.19v.1c-.05-.1-.16-.07-.15-.24-.05.1,0,.17.04.22-.12-.13-.16.01-.28-.07.02.05.05.17.04.17-.17-.11-.05.2-.15.26-.08-.15-.02-.37-.11-.23-.08-.1-.05-.27-.03-.35-.07.21-.2-.11-.26-.14l.04-.09c-.03.05-.05.05-.08.06l.05.2s-.06-.03-.07-.11c-.02.14.06.33.02.52-.05-.1-.11.12-.16-.14.14.08-.05-.27.06-.32-.02.03-.04.04-.08,0,0-.03,0-.06,0-.07-.15-.22-.02.31-.15.32,0-.15-.06-.28-.08-.25.05,0,.05.25.02.37-.09-.11-.08.1-.12.09l.05.05c0,.15-.04.14-.09.19-.02-.12.04-.09.02-.14-.03.27-.17-.26-.24-.07-.05-.1-.04-.28-.08-.35-.07.21-.13-.19-.21-.02.05.2.05.15,0,.36l.15-.16-.07.31c.05,0,.09-.14.13-.11-.03.17-.03.12.01.29-.11-.3-.12.19-.22,0l-.06-.5c-.15-.21-.18.28-.36.18l.06.08c0,.2-.09.04-.14.13-.02-.17-.05-.23-.09-.33.02.12-.12,0-.09.34l-.1-.21c-.14-.08-.09.49-.22.45.02-.19-.05-.3.01-.44-.04,0-.08-.02-.07.09-.04-.1-.09.24-.14.08,0,.08,0,.25-.04.24,0-.03,0-.08,0-.08,0,.08-.06.12,0,.3-.19-.51-.35.08-.51-.36-.08.07-.18.13-.26.15,0-.05,0-.08,0-.07-.13-.14-.01.49-.16.33-.1-.26.05-.15,0-.25-.08-.55-.14.09-.27-.22l.02-.03c-.09-.18-.13.23-.25.2,0,0,0-.05,0-.08-.04.29-.17.4-.26.49,0-.22.03-.12-.01-.34-.04.04.05.35-.03.42-.04-.11-.12-.21-.16-.44l.08-.02c-.08-.3-.11.02-.16-.02v-.13c-.14.06-.1.39-.24.39l.03.1c-.04.34-.09-.18-.14.08l-.06-.33c-.04.09-.14.35-.23.42.02-.25.12-.39.16-.55-.05,0-.17.05-.18.21.02-.03.03-.12.06-.07-.03.27-.1.41-.2.42-.06-.65-.28-.13-.42-.63-.15.26-.37-.06-.57,0,.13.5-.06.02.01.54-.04.04-.06.03-.07,0l-.18-.29c-.05-.15.03-.12.01-.24-.11-.03-.07-.21-.16-.34.04.18,0,.27-.07.21l.11.23c-.12.29-.18-.42-.3-.13l.03-.17c-.07.11-.28.03-.31.46-.02-.06-.06-.2-.03-.24-.19-.04-.36.49-.53.25v-.13s-.03.25-.09.12c0-.05,0-.13-.02-.13-.01.05-.07.23-.12.16l.02-.15c-.2-.15-.23.38-.37.49-.04-.37-.2-.48-.28-.53v-.05c-.22-.02-.32.35-.5.52-.17-.39-.43-.12-.65-.33.04.06.03.29,0,.33-.05-.07-.09.27-.13-.07h.02c-.07-.33-.16-.23-.23-.23l.04.45c-.27-.63-.47.3-.64-.27-.03.12-.09.12-.12.24l-.03-.24c-.13-.05-.2-.07-.35,0v-.18c-.08,0-.02.71-.1.73l-.07-.36c-.15.02-.35-.27-.46.07,0-.05-.01-.16.01-.17-.07,0-.31-.21-.23.28-.04-.32-.16-.01-.23.14v-.24c-.05.31-.04.39-.13.49-.03-.03-.04-.19,0-.13-.09-.11-.03.23-.14.12l.02-.16c-.08,0-.07.07-.09.25-.04.1-.16-.04-.2-.25,0,.13-.02.31-.07.26-.02-.08,0-.13,0-.16-.15-.15-.17.3-.29.08-.01-.08-.02-.12-.03-.14.11,0,.19,0,.19.01-.03-.22-.12-.25-.08-.56-.05.17-.13.54-.22.45,0-.02-.01-.04-.02-.07v-.03s-.03,0-.04.04c-.03-.03-.05-.06-.08-.06-.03-.18-.11-.09-.15-.09.03.24-.03.21.05.4,0-.02,0-.03.03-.04,0,0,.01-.01.02-.03,0,0,0,.01,0,.02.03-.01.06-.02.1-.03-.02.13-.04.23-.11.1,0,.16,0,.32-.01.39-.1-.33-.23-.49-.27-.7-.11.15-.3.12-.33.58-.03.06-.06-.12-.08-.19.02-.05.04-.04.05-.11-.06.12-.21.07-.2.39-.11-.13.02-.29-.1-.23v-.1c-.31-.47-.31.85-.67.24.02.04.04.05.05.11-.35-.25-.63.34-1-.07-.1-.08-.09.12-.12.28l-.05-.25-.06.31c-.11.23-.3-.6-.42-.17l.04.17c-.06-.03-.18.12-.19-.08,0,.03,0,.18-.03.09l-.02-.13-.12.25c-.13-.08-.04-.53-.22-.54-.06.06-.13.41-.1.5.03,0,.07.08.09.21l-.05.08c.04.4.04.81.21,1.07l.07-.25.05.19-.08.02c.07.18.08.01.1-.1.02.1.04.17.07.21l.05-.39c.03.15,0,.31.07.39.02-.18-.08-.34-.02-.47.07.17.07.32.11.16.02.1.02.17,0,.21.03-.13.12-.07.12-.28.07.22.16-.08.2.3,0-.09.05-.3.09-.32-.03.46.17,0,.21.49.01-.41.2-.2.28-.44,0,.03,0,.1-.02.08.06.03.1.15.14.22-.03-.33.05-.42.08-.63.11.31,0,.4.06.7-.04-.27.1-.28.05-.51.08.19.06.09.12.36-.04-.42.04-.08.06-.34.11.2.07.39.14.25.06.12,0,.28,0,.28ZM30.28,28.54s0,0,0,0c-.02,0-.03.01-.04.02,0,0,.02-.01.04-.02ZM30.46,28.52s-.05,0-.08,0c-.02-.08-.02-.17,0-.17,0,.06.04.1.08.17ZM29.89,26.91s.04,0,.05.06c-.01,0-.03.02-.05.03,0,0,0,.02,0,.03,0-.05,0-.09,0-.12Z"/>
    <path class="cls-1" d="M29.87,27.23s0,.02,0,.02c0,.02.02.04.02.05,0-.03,0-.05,0-.08,0,0-.01,0-.01,0Z"/>
    <path class="cls-1" d="M46.22,25.66h0s0,.01.01.03c0-.01,0-.02,0-.03Z"/>
    <polygon class="cls-1" points="33 28.68 32.99 28.62 32.98 28.68 33 28.68"/>
    <path class="cls-1" d="M47.3,26.37s.01.04.02.06c0-.02-.01-.04-.02-.06Z"/>
    <path class="cls-1" d="M47.74,26.37l.07.08s-.05-.07-.07-.08Z"/>
    <path class="cls-1" d="M48.08,26.45s0-.07,0-.1c0,0,0,0,0,0v.1Z"/>
    <path class="cls-1" d="M42.88,27.35s0,0-.01.01c-.02.05,0,.03.01-.01Z"/>
    <path class="cls-1" d="M44.37,26.6s-.02.09-.04.12c.03.02.05.02.04-.12Z"/>
    <polygon class="cls-1" points="41.18 27.84 41.18 27.83 41.17 27.83 41.18 27.84"/>
    <path class="cls-1" d="M44.27,26.73s.06.03.07,0c-.02-.01-.05-.03-.07,0Z"/>
    <path class="cls-1" d="M49.52,26.39h.02s0-.02,0-.03v.03Z"/>
    <path class="cls-1" d="M49.53,26.36v-.03s0,0,0,.03Z"/>
    <path class="cls-1" d="M49.58,26.26l-.03.06s.03,0,.03-.06Z"/>
    <path class="cls-1" d="M49.07,26.33v.09s0-.05,0-.09Z"/>
    <path class="cls-1" d="M48.94,26.37s.1.18.14.12v-.07c0,.13-.13-.2-.14-.05Z"/>
    <path class="cls-1" d="M48.26,25.37l.12.06c-.03-.09-.07-.21-.02-.24-.17-.26.05.2-.1.18Z"/>
    <path class="cls-1" d="M47.9,25.27c.05-.05-.02-.13-.02-.19-.03.09-.03.11.02.19Z"/>
    <path class="cls-1" d="M45.42,25.56l-.02-.22s0,.08.02.22Z"/>
    <polygon class="cls-1" points="45.08 26.74 45.14 26.87 45.13 26.67 45.08 26.74"/>
    <polygon class="cls-1" points="44.61 25.23 44.63 25.2 44.56 25.28 44.61 25.23"/>
    <path class="cls-1" d="M40.45,25.8l.05.27c.03-.05,0-.35-.05-.27Z"/>
    <path class="cls-1" d="M38.68,26.28c-.04-.13-.1-.21-.11-.08.04.01.1.11.11.08Z"/>
    <polygon class="cls-1" points="33.22 26.48 33.25 26.39 33.19 26.47 33.22 26.48"/>
  </g>
  <g>
    <path class="cls-1" d="M50.6,36.52c0-.07-.03-.24-.06-.2l.02.28.04-.08Z"/>
    <path class="cls-1" d="M50.31,36.03c-.02.14-.02.39.04.64,0-.27.02-.16.01-.49.03-.04.07.08.08.19,0-.07.06.05.05-.12-.07-.21-.13-.21-.15-.02-.02-.06-.02-.13-.03-.19Z"/>
    <path class="cls-1" d="M47.17,36.06l.02.03s-.02-.03-.02-.03Z"/>
    <path class="cls-1" d="M45.24,36.19s.02-.04.01-.06c-.01.02-.02.04-.01.06Z"/>
    <path class="cls-1" d="M44.87,35.93s.01.01.02.02c-.01-.02-.02-.04-.02-.02Z"/>
    <path class="cls-1" d="M47.17,36.06l-.06-.08c.01.09.04.06.06.08Z"/>
    <path class="cls-1" d="M49.99,36.77s.01-.04.02-.08c0,.01-.01.02-.02.03,0,.02,0,.03,0,.04Z"/>
    <path class="cls-1" d="M47.98,35.7h.02s0-.07,0-.12v.12Z"/>
    <path class="cls-1" d="M48.61,35.56s.01.23.02.33c0-.1,0-.15,0-.17,0-.05-.02-.1-.03-.17Z"/>
    <path class="cls-1" d="M49.7,35.83v-.04s0,.02,0,.04Z"/>
    <path class="cls-1" d="M47.51,35.72s-.01-.07-.02-.08c0,.03.01.06.02.08Z"/>
    <path class="cls-1" d="M29.73,40.24s0-.03,0-.04c0,.02,0,.04,0,.04Z"/>
    <path class="cls-1" d="M28.81,39.17h0c0-.06-.01-.1-.02-.15v.15Z"/>
    <path class="cls-1" d="M44.23,35.72s0,0,0,0c.01-.03,0-.02,0,0Z"/>
    <path class="cls-1" d="M38.78,36.72c.09.2-.06.29.07.51-.02-.09.03-.38-.07-.51Z"/>
    <path class="cls-1" d="M49.97,36.74s-.02,0-.03,0c.01,0,.02,0,.03,0Z"/>
    <path class="cls-1" d="M38.85,37.23s0,0,0,0v.02s0-.02,0-.02Z"/>
    <path class="cls-1" d="M42.87,36.07s.02.07.03.1c0-.02-.01-.05-.03-.1Z"/>
    <path class="cls-1" d="M43.95,36.25l-.03-.03s.02.03.03.03Z"/>
    <path class="cls-1" d="M42.39,36.49s-.03-.05-.04-.01c0,.01,0,.02.01.03,0-.03,0-.05.03-.01Z"/>
    <path class="cls-1" d="M41.84,36.57s.01.03.02.05c0,0,.01-.01.02-.02l-.03-.03Z"/>
    <path class="cls-1" d="M31.39,39.87c-.02-.07-.04-.14-.06-.21.03.17-.04.24.06.21Z"/>
    <path class="cls-1" d="M49.97,36.64c0,.06,0,.09,0,.1,0,0,.01,0,.02-.02,0-.04,0-.07-.02-.09Z"/>
    <path class="cls-1" d="M42.65,38.36l-.09-.02s.06.03.09.02Z"/>
    <path class="cls-1" d="M35.35,39.23l-.02.03s.01,0,.02-.03Z"/>
    <path class="cls-1" d="M42.31,38.42c-.03-.08-.05-.13-.07-.16,0,.02,0,.04,0,.06l.08.09Z"/>
    <path class="cls-1" d="M31.34,39.66s0,0,0,0c0,0,0,0,0,0Z"/>
    <path class="cls-1" d="M30.84,40.31c.08,0,0-.31-.02-.49.09-.1.08.22.14.38.05-.09.05-.39.1-.38.01.05.02.07.02.13.03-.26.19-.04.22-.37,0,.03.02.05.02.08-.04-.15-.06-.31-.08-.43.04-.01.04-.21.08,0-.02,0-.01.08-.01.15l.03-.09c.08.29-.04.11,0,.33.06-.11.11-.36.19-.29.06.29-.12.12,0,.36l-.11-.1c.14.44-.06-.02.08.45.13.07.11-.17.24-.1,0-.16-.04-.23-.04-.4.13-.31.24.7.31.3,0-.2-.04-.56.08-.38l.02.33c.12.01,0-.48.15-.28,0,.13-.07.12-.05.16.12.24.03-.19.09-.2l.06.29c.12-.06.22-.29.35-.37,0,.09,0,.18.04.26.15-.17.37-.02.56.13l.03-.26s.04.11.04.16c.08.08-.02-.16,0-.26.03-.02.07.14.06.21.08-.23.26-.5.42-.25v.08c.1.09.02-.52.14-.31v.05c.21.08.4-.18.61.17-.02-.36.23.13.16-.37.15.23.13.32.32.47.05.02.02-.32.06-.38l.04.26.03-.28.09.31.04-.07s-.06-.11-.07-.19c.06-.13.22.15.24.29l.15-.25c.01.11-.01.15-.03.22.06-.28.06.27.11.01-.02-.06-.02-.16-.02-.21.07.15.17.14.24.06v.18c.16.02.29-.13.45-.15-.07-.08-.1-.39-.06-.43l.06.27c0-.17-.06-.1-.03-.31.06.02.09.31.07.4l.06-.11c.02.08,0,.13.02.23,0-.18.16.26.16-.05l.02.08c.16-.02.21-.13.34-.16-.03-.24.02-.19.03-.39.1.06.24.23.35.2.06-.13,0-.2,0-.35.04.22.15.18.11.34.13-.06.17-.07.31-.27-.03-.09-.06-.12-.06-.2.03-.04.08.08.1.18v.02c.14-.35.53.56.62.09v.02s.12-.26.12-.26c.08.03-.02.17.06.3.12-.39.28.01.38-.25.21.62.38-.1.59.28l-.03-.15c.02-.15.06.08.09.11-.02-.12-.06-.13-.05-.21.29-.23.7.12,1.05.21.13.02-.05-.79.16-.45v.29c.19-.37.5-.06.69-.38,0,.07,0,.15-.02.15.08.2.19-.02.16-.18.04.01.03.15.07.23.07.11.09-.28.14-.08,0,.03,0,.07-.01.09.02-.1.16,0,.09-.23.11.1.16-.13.25,0,0-.27.17.1.13-.27.05.38.2.28.23.1,0,.12.07.11.07.28.06-.02.11-.1.07-.29.19.44.18-.4.34.17.16-.23.32-.4.48-.52.05.38-.18.07-.12.47.14-.18.18-.52.36-.46.05.05,0,.17,0,.24.14-.18.32-.01.43-.24,0,.04,0,.08-.02.11.03-.02.07.05.05-.13l-.02.05c-.08-.24.03-.54.02-.68.03.5.16.1.18.74.01-.04.03-.12,0-.24.03.03.05.1.04.23.09-.11.02-.29.12-.3.01.08,0,.12,0,.22.02-.17.04-.34.13-.28,0,.05.02.12,0,.12.13-.05.16-.47.34-.33.01.37.07.11.12.43l.07-.11-.06-.15c.07,0,.1-.24.17-.15l-.03.14.12-.08-.09-.11c.05-.17-.07-.4.04-.32-.01.04.07,0,.13.17,0,0,0,0,0,0,.02-.11.04-.22.1-.15.03.1.04.35.06.42,0-.27.15-.1.15-.39,0,.07.02.23.03.27v-.22c.04.06.05.1.06.23.1.02-.09-.4.05-.24,0,.02,0,.05-.01.09.13.07.2-.17.33-.08.08.31-.08.09,0,.35.14-.08.26-.43.42-.38l-.03-.03c-.05-.45.14.2.19-.02-.01.04.01.25.01.2.11.06.19-.14.32-.31v.12c.07.09.17.04.24.08,0-.12.04-.1,0-.27.3.63.33-.41.59.11-.02,0-.04.11-.02.11l.13-.13c-.04-.19-.04-.12-.09-.26,0-.12.03-.21.07-.22-.05.14.05.31.09.42-.01-.06-.01-.13-.03-.19.13.34-.05-.4.1-.18v.1c.04-.06.06-.2.11-.18.05.22-.03.11,0,.3.06-.02.06-.45.14-.23-.02.07-.05.07-.07.14.1.26.1.19.15.22h0s.12.1.12.1l-.04-.07c-.01-.6.14-.13.18-.53-.04.38.02.21.05.47.04.07.09.14.09.21.02-.21.11.15.13-.16.02.08.05,0,.07.21.05-.07-.04-.14-.05-.25.05-.3.28.31.36-.1.1-.18.08-.46.17-.61.06.13.01.31.01.31.08.11.12.08.17-.02,0,.07.02.13.05.22.04-.03-.01-.31.06-.19,0,.09.01.24,0,.34.04-.08.07-.25.12-.33.04.14,0,.22,0,.32.05-.07.14-.15.13-.39l-.05-.08s.04.19.03.24c-.03.19-.09-.07-.11-.15l.03-.06c-.11-.48-.15.1-.23.09l-.02-.36-.04.3c-.03-.09-.07-.28-.04-.34-.08-.16-.03.13-.11-.05-.01-.03-.01-.05,0-.06l-.04.11c0-.08-.05-.25,0-.2-.13-.19-.12.29-.2.03v-.02c-.12.14.03.26-.03.58l-.17-.63.03.26s-.05-.02-.06-.13c-.03.18.03.11.02.28-.11-.22-.18.14-.25-.27,0,.2.09.14.04.29-.09-.44-.07.09-.17-.1-.01-.23.06-.12-.03-.31.02.39-.14-.07-.18.02.04.31-.1.15-.17.26,0-.1-.2-.14-.3-.24v-.05c.03.31-.07.27-.12.34-.03-.19-.03-.26,0-.35h-.06c0,.11,0,.17-.04.21l-.02-.23c-.08.02-.12.3-.24.16.03.22.17.59.09.75-.02-.12-.06-.32-.03-.37,0,.02-.02.1-.04.05v-.2c-.05-.08.01.17-.03.16-.02-.17-.05-.11-.06-.25,0-.02.04.06.05,0-.05-.02-.11-.12-.15-.24.02.09.03.22,0,.25-.08.02-.06-.2-.12-.28,0,.12-.07,0-.03.26-.02,0-.05-.11-.06-.18-.02.12-.19.06-.1.32v.02s0,0,0,.01h0s0,0,0,0c-.1.27-.3-.1-.42.03v-.08c-.08.11-.18.08-.21.27-.02,0-.08-.14-.08-.25-.05.07-.04.17-.15.04.04-.15-.04-.13.05-.12-.09-.06-.13-.19-.18.05,0-.22-.1-.26-.13-.19l.08.14s-.08.02-.12.01l-.02-.28c-.21-.32-.2.63-.41.07-.01.2.11.13.11.36-.08-.03-.22-.42-.24-.42-.13-.14-.03.43-.16.33.03.1.08.36.02.47-.08-.03-.15-.41-.12-.49.02-.01.03.02.03.05.02-.04.04-.09,0-.19v.1c-.05-.1-.15-.07-.15-.24-.04.1,0,.17.05.21-.12-.13-.15.02-.26-.06.02.05.06.17.04.17-.16-.1-.03.2-.13.26-.08-.14-.04-.37-.11-.23-.08-.09-.05-.26-.04-.35-.06.21-.19-.1-.24-.13l.03-.09c-.02.05-.04.05-.07.06l.06.2s-.06-.03-.07-.11c0,.14.07.33.04.52-.05-.1-.1.13-.15-.14.13.07-.05-.27.04-.32-.01.03-.04.04-.07,0,0-.03,0-.06,0-.07-.15-.22,0,.31-.12.32,0-.15-.07-.28-.08-.25.05,0,.06.25.03.37-.09-.11-.07.1-.11.09l.05.05c0,.15-.03.14-.08.19-.02-.12.03-.09,0-.14-.02.27-.17-.25-.22-.06-.05-.1-.05-.28-.09-.35-.06.21-.13-.19-.2-.02.06.2.05.15.02.35l.13-.17-.05.31s.08-.14.11-.11c-.02.17-.02.12.02.28-.11-.29-.1.2-.2,0l-.07-.5c-.14-.21-.16.29-.32.18l.06.08c.01.2-.08.04-.12.13-.02-.17-.06-.22-.09-.32.02.12-.11,0-.07.34l-.1-.21c-.13-.07-.06.5-.18.46,0-.19-.06-.3,0-.44-.04,0-.08-.02-.06.09-.04-.1-.07.24-.13.09,0,.08.02.25-.03.24,0-.03-.01-.08-.01-.08.01.08-.05.12.02.3-.19-.5-.31.09-.48-.35-.07.07-.16.14-.23.16,0-.05-.01-.08,0-.07-.12-.14.01.49-.13.33-.1-.26.04-.16-.01-.25-.1-.55-.13.1-.25-.21v-.04c-.07-.18-.1.23-.2.21,0,0,0-.05-.01-.08-.02.29-.14.4-.22.49,0-.22.03-.12-.03-.34-.04.04.07.35,0,.42-.05-.11-.12-.21-.16-.44l.08-.02c-.09-.3-.1.03-.15-.02v-.13c-.13.06-.08.39-.21.39l.03.1c-.02.34-.09-.18-.12.08l-.07-.33c-.03.09-.12.35-.19.42.01-.25.09-.4.13-.55-.05,0-.15.05-.15.22.01-.04.03-.12.05-.07-.02.27-.07.41-.17.42-.08-.65-.27-.13-.41-.62-.13.26-.34-.05-.53.01.14.49-.05.02.04.54-.04.04-.06.03-.07,0l-.18-.29c-.05-.15.03-.12,0-.24-.1-.02-.07-.21-.16-.34.04.18,0,.27-.06.21l.11.23c-.09.3-.18-.42-.28-.12l.02-.17c-.06.11-.26.04-.27.46-.02-.06-.06-.2-.03-.24-.18-.04-.31.5-.48.26v-.13s-.03.25-.08.12c0-.05,0-.13-.02-.13-.01.05-.05.23-.1.17v-.15c-.17-.14-.19.38-.31.49-.06-.37-.2-.47-.28-.52v-.05c-.2-.02-.28.36-.44.53-.17-.39-.4-.11-.61-.31.04.06.04.29.01.33-.05-.07-.08.28-.12-.07h.02c-.08-.33-.15-.22-.22-.22l.06.45c-.27-.62-.42.31-.6-.26-.03.12-.08.12-.1.24l-.03-.24c-.13-.04-.19-.06-.32.01v-.18c-.08,0,0,.71-.07.73l-.08-.35c-.14.03-.33-.27-.42.08,0-.05-.02-.16,0-.17-.07,0-.29-.2-.2.28-.05-.32-.15,0-.21.14l-.02-.24c-.02.31,0,.39-.09.49-.03-.03-.05-.19,0-.13-.09-.11-.02.23-.13.12v-.16c-.07,0-.05.07-.06.25-.03.1-.15-.04-.19-.25,0,.13,0,.31-.06.26-.02-.08,0-.13,0-.16-.15-.14-.14.3-.26.08-.01-.08-.03-.12-.04-.14.1,0,.18,0,.17.01-.03-.22-.12-.24-.1-.55-.04.17-.09.55-.18.45,0-.02-.01-.04-.02-.07v-.03s-.03,0-.04.04c-.03-.03-.05-.06-.07-.06-.04-.18-.1-.08-.14-.09.04.24-.02.21.06.4,0-.02,0-.03.03-.04,0,0,.01-.01.01-.03,0,0,0,.01,0,.02.02-.01.06-.02.09-.03-.01.13-.03.23-.09.11,0,.16,0,.32,0,.39-.1-.32-.23-.49-.28-.69-.1.15-.27.13-.28.59-.03.06-.06-.12-.08-.19.01-.05.04-.04.04-.11-.05.12-.19.07-.16.39-.11-.13,0-.29-.11-.23v-.1c-.31-.46-.25.85-.61.25.02.04.04.05.05.11-.33-.24-.56.36-.92-.05-.1-.08-.07.12-.1.28l-.06-.25-.04.31c-.09.23-.3-.59-.4-.16l.05.17c-.06-.02-.16.13-.18-.07,0,.03,0,.18-.03.1l-.02-.13-.1.25c-.12-.08-.06-.53-.22-.54-.05.06-.1.41-.07.5.02,0,.07.07.09.21l-.04.08c.05.4.07.8.24,1.06l.05-.25.06.19-.07.02c.07.17.07.01.09-.1.02.1.05.17.07.2l.03-.39c.03.15,0,.31.08.39.01-.18-.09-.34-.04-.46.07.17.08.32.11.16.02.1.02.17,0,.21.03-.13.11-.07.1-.28.08.21.14-.08.19.29,0-.09.03-.3.07-.33,0,.46.16,0,.21.48,0-.41.17-.21.24-.45,0,.03,0,.1-.01.08.06.02.09.14.14.21-.04-.33.03-.42.05-.63.12.31.02.4.09.7-.04-.27.08-.29.02-.51.08.19.06.09.13.36-.05-.42.04-.08.04-.34.11.19.08.39.14.25.06.12,0,.28,0,.28ZM32.69,39.3s0,0,0,0c-.02,0-.03.01-.04.02,0,0,.02-.01.04-.02ZM32.85,39.27s-.05,0-.07,0c-.02-.08-.02-.17,0-.16,0,.06.05.1.08.16ZM32.26,37.67s.04,0,.05.06c-.01,0-.02.02-.04.04,0,0,0,.02,0,.03,0-.05,0-.09,0-.12Z"/>
    <path class="cls-1" d="M32.26,37.99s0,.02,0,.02c0,.02.02.04.02.05,0-.03,0-.05,0-.08,0,0,0,0-.01,0Z"/>
    <path class="cls-1" d="M47.2,36.09h0s0,.01.01.03c0-.01,0-.02,0-.03Z"/>
    <polygon class="cls-1" points="35.19 39.38 35.18 39.32 35.17 39.37 35.19 39.38"/>
    <path class="cls-1" d="M48.23,36.77s.01.04.02.06c0-.02-.01-.04-.02-.06Z"/>
    <path class="cls-1" d="M48.63,36.77l.07.08s-.05-.06-.07-.08Z"/>
    <path class="cls-1" d="M48.94,36.84s0-.07,0-.1c0,0,0,0,0,0v.1Z"/>
    <path class="cls-1" d="M44.21,37.84s0,0-.01.01c-.02.05,0,.03.01-.01Z"/>
    <path class="cls-1" d="M45.55,37.07s-.02.09-.03.12c.03.01.05.02.03-.12Z"/>
    <polygon class="cls-1" points="42.66 38.37 42.66 38.36 42.65 38.36 42.66 38.37"/>
    <path class="cls-1" d="M45.45,37.2s.05.03.07,0c-.02-.01-.05-.03-.07,0Z"/>
    <path class="cls-1" d="M50.26,36.75h.02s0-.02,0-.03v.03Z"/>
    <path class="cls-1" d="M50.27,36.72v-.03s0,0,0,.03Z"/>
    <path class="cls-1" d="M50.31,36.62l-.02.07s.03,0,.02-.07Z"/>
    <path class="cls-1" d="M49.85,36.7v.09s0-.05,0-.09Z"/>
    <path class="cls-1" d="M49.73,36.74s.1.17.13.11v-.07c0,.13-.13-.19-.13-.04Z"/>
    <path class="cls-1" d="M49.06,35.75l.11.05c-.03-.09-.07-.21-.03-.24-.17-.25.06.2-.08.18Z"/>
    <path class="cls-1" d="M48.73,35.67c.05-.05-.02-.13-.03-.19-.02.09-.03.11.03.19Z"/>
    <path class="cls-1" d="M46.46,36.01l-.03-.22s.01.08.03.22Z"/>
    <polygon class="cls-1" points="46.2 37.19 46.26 37.32 46.25 37.12 46.2 37.19"/>
    <polygon class="cls-1" points="45.71 35.69 45.72 35.66 45.66 35.75 45.71 35.69"/>
    <path class="cls-1" d="M41.91,36.35l.05.26c.02-.05-.02-.35-.05-.26Z"/>
    <path class="cls-1" d="M40.3,36.87c-.04-.13-.1-.21-.11-.07.04.01.09.11.11.07Z"/>
    <polygon class="cls-1" points="35.3 37.18 35.32 37.08 35.27 37.17 35.3 37.18"/>
  </g>
  <g>
    <path class="cls-1" d="M52.69,46.35c0-.07-.02-.24-.05-.2v.28s.05-.08.05-.08Z"/>
    <path class="cls-1" d="M52.42,45.86c-.02.14-.04.39.02.64,0-.27.03-.16.03-.49.03-.04.07.08.07.19,0-.07.06.06.05-.12-.07-.21-.12-.22-.15-.03-.02-.06-.02-.14-.02-.19Z"/>
    <path class="cls-1" d="M49.29,45.78l.02.03s-.02-.03-.02-.03Z"/>
    <path class="cls-1" d="M47.36,45.85s.02-.04.01-.06c-.01.02-.02.04-.01.06Z"/>
    <path class="cls-1" d="M47,45.58s.01.01.02.02c-.01-.03-.02-.04-.02-.02Z"/>
    <path class="cls-1" d="M49.29,45.78l-.06-.08c0,.09.03.06.06.08Z"/>
    <path class="cls-1" d="M52.07,46.59s.01-.04.02-.08c0,.01-.01.02-.02.03,0,.02,0,.03,0,.04Z"/>
    <path class="cls-1" d="M50.1,45.45h.02s0-.07,0-.12v.12Z"/>
    <path class="cls-1" d="M50.74,45.34s0,.23.01.34c0-.1,0-.15.01-.17,0-.05-.01-.1-.03-.17Z"/>
    <path class="cls-1" d="M51.81,45.64v-.04s0,.02,0,.04Z"/>
    <path class="cls-1" d="M49.63,45.46s-.01-.07-.02-.08c0,.03,0,.06.02.08Z"/>
    <path class="cls-1" d="M31.8,49.38s0-.03,0-.04c0,.02,0,.04,0,.04Z"/>
    <path class="cls-1" d="M30.92,48.28h0c0-.06,0-.1-.01-.15v.15Z"/>
    <path class="cls-1" d="M46.37,45.34s0,0,0,0c.01-.03,0-.02,0,0Z"/>
    <path class="cls-1" d="M40.92,46.17c.09.21-.07.29.05.51-.02-.09.04-.38-.05-.51Z"/>
    <path class="cls-1" d="M52.05,46.56s-.02,0-.03,0c.01,0,.02,0,.03,0Z"/>
    <path class="cls-1" d="M40.97,46.68s0,0,0,0v.02s0-.02,0-.02Z"/>
    <path class="cls-1" d="M45.01,45.65s.02.07.03.1c0-.02-.01-.05-.03-.1Z"/>
    <path class="cls-1" d="M46.08,45.87l-.03-.03s.02.03.03.03Z"/>
    <path class="cls-1" d="M44.52,46.05s-.02-.05-.04-.01c0,.01,0,.02,0,.03,0-.03.01-.05.03-.01Z"/>
    <path class="cls-1" d="M43.97,46.12s.01.03.02.05c0,0,.01-.01.02-.01l-.03-.03Z"/>
    <path class="cls-1" d="M33.47,49.06c-.02-.07-.04-.14-.05-.21.03.17-.05.24.05.21Z"/>
    <path class="cls-1" d="M52.06,46.45c0,.06,0,.09,0,.1,0,0,.01,0,.02-.02,0-.04,0-.07-.01-.09Z"/>
    <path class="cls-1" d="M44.72,47.94l-.09-.02s.06.03.09.02Z"/>
    <path class="cls-1" d="M37.43,48.56l-.02.03s.01,0,.02-.03Z"/>
    <path class="cls-1" d="M44.37,47.98c-.03-.08-.05-.13-.07-.16,0,.02,0,.03,0,.06l.07.1Z"/>
    <path class="cls-1" d="M33.42,48.85s0,0,0,0c0,0,0,0,0,0Z"/>
    <path class="cls-1" d="M32.91,49.49c.08,0,0-.31,0-.49.09-.1.07.23.13.38.05-.09.07-.38.11-.38,0,.05.02.07.02.14.04-.26.19-.04.23-.36,0,.03.01.05.02.08-.03-.16-.05-.32-.06-.43.04,0,.05-.21.08,0-.02,0-.02.08-.02.14l.03-.09c.07.29-.04.11-.02.33.07-.11.13-.36.19-.28.05.29-.13.11-.02.36l-.1-.1c.12.45-.06-.03.06.45.13.07.12-.16.25-.09,0-.16-.04-.24-.03-.4.14-.31.22.71.3.31,0-.2-.02-.56.09-.38v.33c.13.02.02-.48.17-.27,0,.13-.08.12-.06.16.11.25.03-.19.09-.2l.05.29c.12-.06.23-.28.36-.35,0,.09-.01.18.03.26.16-.16.37,0,.56.14l.03-.26s.04.11.03.16c.08.09-.02-.16,0-.26.03-.02.07.14.05.22.09-.22.27-.49.42-.24v.08c.09.09.03-.52.15-.3v.05c.2.08.4-.17.6.19-.01-.36.22.14.17-.37.15.23.12.33.31.48.05.02.03-.32.08-.38l.03.26.04-.28.08.31.04-.07s-.06-.11-.06-.19c.07-.13.21.16.23.29l.16-.24c0,.11-.02.15-.04.22.07-.28.05.27.11.02-.02-.06-.01-.16-.02-.21.06.15.17.14.24.07v.18c.15.03.29-.12.45-.14-.07-.08-.09-.39-.05-.43l.05.27c0-.17-.06-.1-.02-.32.06.03.08.31.05.4l.06-.1c.01.08,0,.13.01.23,0-.18.15.26.16-.04v.08c.17-.02.23-.12.35-.15-.03-.24.03-.19.05-.39.1.07.23.24.34.21.06-.13,0-.2.02-.35.03.22.14.18.1.35.13-.05.17-.06.32-.26-.03-.09-.05-.12-.05-.2.03-.04.08.08.09.19v.02c.15-.35.51.58.61.11v.02s.12-.26.12-.26c.08.03-.02.17.05.3.13-.38.28.02.39-.24.18.63.38-.09.58.3l-.03-.15c.02-.15.06.08.09.11-.02-.12-.06-.13-.04-.22.3-.22.69.14,1.03.24.13.03-.02-.79.17-.45v.29c.19-.36.49-.05.69-.36,0,.07,0,.15-.02.15.07.2.19-.01.17-.18.04.01.03.15.06.23.06.11.1-.28.15-.08,0,.03,0,.07-.01.08.02-.1.16,0,.1-.22.1.1.16-.12.25,0,.02-.27.17.11.14-.27.04.39.19.29.23.1,0,.12.06.11.06.28.06-.01.11-.09.08-.29.17.45.2-.4.33.18.17-.23.33-.39.49-.5.04.38-.19.06-.13.46.14-.18.2-.52.37-.44.05.05,0,.17-.01.24.14-.18.32,0,.44-.23,0,.04,0,.08-.02.11.03-.02.07.05.05-.13l-.02.05c-.08-.25.05-.54.04-.68.01.5.16.11.16.75.02-.04.03-.12.01-.24.03.03.05.1.04.23.09-.11.03-.29.13-.29,0,.08,0,.12,0,.22.03-.17.06-.34.14-.28,0,.05.02.12,0,.12.13-.04.18-.46.34-.32,0,.37.06.11.11.43l.07-.1-.05-.15c.07,0,.1-.24.18-.14l-.04.14.12-.08-.09-.11c.05-.17-.05-.4.05-.32-.02.03.07,0,.13.18,0,0,0,0,0,0,.02-.11.05-.22.11-.14.03.1.03.35.05.42,0-.27.15-.09.16-.38,0,.07.01.23.02.27v-.22c.04.07.05.1.06.23.1.03-.08-.4.06-.24,0,.02,0,.05-.01.09.13.08.21-.16.33-.07.07.32-.08.09-.02.35.15-.08.27-.42.43-.36l-.03-.03c-.03-.45.14.21.19-.01-.01.04,0,.25,0,.2.11.06.19-.14.33-.3v.12c.07.1.16.04.23.09,0-.12.04-.1,0-.27.28.64.34-.4.58.13-.02,0-.04.11-.02.11l.14-.12c-.04-.19-.03-.12-.08-.27,0-.12.04-.21.07-.22-.05.14.04.32.08.42-.01-.06,0-.13-.02-.19.12.34-.03-.4.1-.17v.1c.04-.06.06-.2.11-.17.04.22-.03.11-.01.3.06-.02.07-.44.15-.22-.02.07-.06.07-.07.14.09.26.09.19.14.23h0s.12.1.12.1l-.03-.07c0-.6.14-.13.2-.53-.06.38,0,.21.03.47.03.07.08.14.08.22.02-.21.1.15.13-.16.01.08.05,0,.07.21.06-.07-.03-.14-.04-.25.06-.29.27.32.36-.09.1-.17.09-.46.19-.61.05.13,0,.31,0,.31.08.11.12.09.16-.01,0,.07.02.13.04.22.04-.03,0-.31.07-.19,0,.09,0,.24,0,.34.05-.08.08-.24.13-.32.03.14,0,.22-.02.32.06-.07.15-.15.14-.38l-.05-.08s.03.19.02.24c-.03.19-.09-.07-.1-.15l.03-.06c-.1-.48-.15.1-.24.08v-.36s-.06.3-.06.3c-.03-.09-.06-.29-.03-.34-.08-.17-.04.13-.11-.06,0-.03,0-.05,0-.06l-.04.11c0-.08-.04-.25,0-.2-.13-.19-.13.28-.2.02v-.02c-.12.14.02.26-.05.58l-.15-.63.02.26s-.05-.02-.05-.13c-.03.18.02.11.01.28-.1-.23-.18.13-.24-.28,0,.2.08.14.03.29-.07-.44-.08.09-.17-.11,0-.23.07-.12-.02-.31,0,.39-.13-.07-.18.01.03.31-.1.14-.18.26,0-.1-.19-.15-.29-.25v-.05c.02.31-.08.27-.13.34-.02-.19-.02-.26,0-.35h-.06c0,.11-.01.16-.05.21v-.23c-.09.02-.14.29-.26.15.02.22.15.6.06.75-.02-.12-.05-.32-.02-.37,0,.02-.02.1-.05.05l.02-.2c-.06-.08,0,.17-.04.15-.02-.17-.04-.12-.05-.25,0-.02.04.07.05,0-.05-.03-.11-.12-.14-.24.01.09.03.23,0,.25-.08.02-.05-.2-.11-.28,0,.12-.07,0-.04.25-.02,0-.04-.11-.06-.18-.03.12-.19.05-.11.32v.02s0,0,0,.01h0,0c-.1.27-.29-.11-.42.01v-.08c-.08.11-.18.08-.21.26-.02,0-.07-.15-.08-.25-.05.07-.05.17-.15.04.04-.15-.04-.13.05-.11-.09-.06-.12-.2-.18.04,0-.22-.09-.26-.12-.2l.07.15s-.08.02-.12,0v-.28c-.21-.32-.23.62-.43.06-.02.2.1.13.09.36-.08-.03-.2-.43-.23-.42-.12-.14-.05.42-.17.33.03.1.07.37,0,.47-.08-.03-.14-.41-.1-.5.02-.01.03.02.03.05.02-.04.05-.09,0-.19v.1c-.05-.1-.15-.08-.14-.24-.04.1,0,.17.04.22-.11-.13-.15.01-.26-.07.02.05.05.17.03.17-.16-.11-.04.2-.13.25-.07-.15-.02-.37-.11-.23-.07-.1-.04-.27-.03-.35-.07.2-.18-.11-.24-.14l.04-.09c-.02.05-.05.05-.07.06l.05.2s-.06-.03-.06-.11c-.01.14.06.33.03.52-.05-.1-.1.12-.14-.14.13.08-.04-.27.05-.32-.02.03-.04.04-.07,0,0-.03,0-.06,0-.07-.14-.23-.02.31-.13.32,0-.15-.06-.28-.08-.25.05,0,.05.25.02.37-.09-.11-.07.1-.11.09l.05.05c0,.15-.04.14-.08.19-.02-.12.04-.09.01-.14-.03.27-.16-.26-.22-.07-.05-.1-.04-.28-.08-.35-.07.21-.12-.2-.2-.02.05.2.05.15,0,.35l.14-.16-.06.31s.08-.14.11-.11c-.03.17-.03.12.01.29-.1-.3-.11.19-.2,0l-.06-.5c-.14-.21-.17.28-.32.17l.06.08c0,.2-.09.04-.12.12-.02-.17-.05-.23-.08-.33.02.12-.11,0-.08.34l-.09-.21c-.13-.08-.08.49-.19.45.01-.19-.05-.3,0-.44-.04,0-.07-.02-.06.09-.03-.1-.08.24-.13.08,0,.08,0,.25-.03.24,0-.03,0-.08,0-.08,0,.08-.05.12,0,.3-.18-.51-.32.08-.47-.36-.07.07-.17.13-.24.15,0-.05,0-.08,0-.07-.12-.14,0,.49-.14.33-.09-.26.04-.15,0-.25-.08-.55-.13.09-.25-.22l.02-.03c-.08-.18-.12.23-.22.2,0,0,0-.05,0-.08-.03.29-.15.4-.23.49,0-.22.03-.12-.01-.34-.04.04.05.35-.02.42-.04-.12-.11-.21-.15-.44l.08-.02c-.08-.3-.1.02-.15-.03v-.13c-.13.06-.09.39-.22.38l.03.1c-.03.34-.08-.18-.12.08l-.06-.33c-.04.09-.13.34-.2.42.02-.25.1-.39.15-.55-.05,0-.15.04-.16.21.01-.03.03-.12.05-.07-.03.27-.09.41-.18.41-.06-.65-.26-.14-.39-.63-.14.26-.34-.06-.52,0,.13.5-.05.02.02.54-.04.04-.06.03-.07,0l-.17-.29c-.05-.15.03-.12.01-.24-.1-.03-.07-.22-.15-.35.04.18,0,.27-.07.21l.11.23c-.1.29-.17-.42-.27-.13l.02-.17c-.06.1-.26.03-.28.45-.02-.06-.05-.2-.03-.24-.18-.04-.32.49-.48.25v-.13s-.03.24-.08.12c0-.05,0-.13-.02-.13-.01.05-.06.23-.11.16l.02-.15c-.18-.15-.21.38-.34.48-.04-.37-.19-.48-.26-.53v-.05c-.2-.02-.29.35-.45.52-.16-.39-.39-.13-.59-.33.03.06.03.29,0,.33-.05-.07-.08.27-.12-.07h.02c-.07-.33-.15-.23-.21-.23l.04.45c-.25-.63-.43.29-.59-.28-.03.12-.08.12-.11.24l-.03-.24c-.12-.05-.18-.07-.32,0v-.18c-.07,0-.01.71-.08.73l-.06-.36c-.14.02-.32-.28-.42.07,0-.05-.01-.16,0-.17-.07,0-.29-.21-.2.28-.04-.32-.15-.01-.21.14l-.02-.24c-.03.31-.02.39-.1.49-.02-.03-.04-.19,0-.13-.09-.12-.03.23-.13.11v-.15c-.06,0-.05.07-.06.25-.03.1-.15-.04-.18-.26,0,.13-.01.31-.06.25-.02-.08,0-.13,0-.16-.14-.15-.15.3-.26.07-.01-.08-.02-.12-.03-.14.1,0,.18,0,.17.02-.03-.22-.11-.25-.08-.56-.04.17-.11.54-.2.45,0-.02-.01-.04-.02-.07v-.03s-.03,0-.04.04c-.03-.03-.05-.06-.07-.06-.03-.18-.1-.09-.14-.09.03.24-.02.21.05.4,0-.02,0-.03.03-.04,0,0,.01-.01.01-.03,0,0,0,.01,0,.02.02,0,.06-.02.1-.03-.02.12-.04.23-.1.1,0,.16,0,.32,0,.39-.09-.33-.22-.49-.26-.7-.1.15-.27.12-.29.58-.03.06-.05-.12-.08-.19.01-.05.04-.04.04-.11-.05.12-.2.07-.18.38-.1-.13.01-.29-.1-.23v-.1c-.29-.47-.28.84-.61.23.02.04.03.05.04.11-.33-.25-.57.34-.91-.08-.09-.08-.08.12-.11.28l-.05-.25-.05.31c-.1.23-.28-.6-.39-.18l.04.17c-.06-.03-.16.12-.18-.08,0,.03,0,.18-.03.09l-.02-.13-.11.25c-.12-.08-.05-.53-.2-.54-.05.06-.12.41-.08.5.02,0,.07.08.09.21l-.04.08c.04.4.04.81.21,1.07l.06-.25.05.19-.07.02c.06.18.07.01.09-.1.02.1.04.17.06.21l.04-.39c.03.15,0,.31.07.39.02-.18-.08-.34-.03-.47.06.17.07.32.1.16.02.1.02.17,0,.21.03-.13.11-.07.11-.28.07.22.14-.08.18.3,0-.09.04-.3.08-.32-.02.46.16,0,.19.49,0-.41.18-.2.25-.44,0,.03,0,.1-.02.08.06.03.09.15.13.22-.03-.33.04-.42.07-.63.11.31,0,.4.06.7-.04-.27.09-.28.04-.51.08.19.06.09.11.36-.04-.42.04-.08.05-.34.1.2.07.39.13.25.05.12,0,.28,0,.28ZM34.78,48.54s0,0,0,0c-.02,0-.03.01-.04.02,0,0,.02-.01.04-.02ZM34.94,48.51s-.05,0-.07,0c-.02-.08-.02-.17,0-.16,0,.06.04.1.07.17ZM34.4,46.9s.04,0,.05.06c-.01,0-.03.02-.04.03,0,0,0,.02,0,.03,0-.05,0-.09,0-.12Z"/>
    <path class="cls-1" d="M34.39,47.22s0,.02,0,.02c0,.02.02.04.02.05,0-.03,0-.05,0-.08,0,0,0,0-.01,0Z"/>
    <path class="cls-1" d="M49.32,45.82h0s0,.01.01.03c0-.01,0-.02,0-.03Z"/>
    <polygon class="cls-1" points="37.26 48.7 37.25 48.64 37.25 48.7 37.26 48.7"/>
    <path class="cls-1" d="M50.32,46.53s.01.04.02.06c0-.02-.01-.04-.02-.06Z"/>
    <path class="cls-1" d="M50.71,46.54l.07.08s-.05-.07-.07-.08Z"/>
    <path class="cls-1" d="M51.03,46.62s0-.07,0-.1c0,0,0,0,0,0v.1Z"/>
    <path class="cls-1" d="M46.28,47.46s0,0-.01.01c-.02.05,0,.03.01-.01Z"/>
    <path class="cls-1" d="M47.64,46.74s-.02.09-.03.12c.03.02.05.02.03-.12Z"/>
    <polygon class="cls-1" points="44.73 47.94 44.73 47.93 44.72 47.94 44.73 47.94"/>
    <path class="cls-1" d="M47.54,46.86s.05.03.07,0c-.02-.01-.05-.04-.07,0Z"/>
    <path class="cls-1" d="M52.34,46.58h.02s0-.02,0-.03v.03Z"/>
    <path class="cls-1" d="M52.36,46.55v-.03s0,0,0,.03Z"/>
    <path class="cls-1" d="M52.39,46.45l-.03.06s.03,0,.03-.06Z"/>
    <path class="cls-1" d="M51.93,46.51v.09s0-.05,0-.09Z"/>
    <path class="cls-1" d="M51.81,46.55s.09.18.13.12v-.07c0,.13-.12-.2-.13-.05Z"/>
    <path class="cls-1" d="M51.18,45.54l.11.06c-.03-.09-.07-.21-.02-.24-.16-.26.05.2-.09.18Z"/>
    <path class="cls-1" d="M50.85,45.44s-.02-.13-.02-.19c-.02.09-.03.11.02.19Z"/>
    <path class="cls-1" d="M48.58,45.71l-.02-.22s0,.08.02.22Z"/>
    <polygon class="cls-1" points="48.28 46.88 48.34 47.02 48.34 46.81 48.28 46.88"/>
    <polygon class="cls-1" points="47.84 45.37 47.86 45.33 47.8 45.42 47.84 45.37"/>
    <path class="cls-1" d="M44.04,45.89l.04.27c.02-.05,0-.35-.04-.27Z"/>
    <path class="cls-1" d="M42.43,46.36c-.03-.13-.09-.21-.1-.08.04.01.09.11.1.08Z"/>
    <polygon class="cls-1" points="37.45 46.5 37.47 46.41 37.41 46.49 37.45 46.5"/>
  </g>
  <g>
    <path class="cls-1" d="M45.72,56.92c0-.07-.03-.24-.05-.2l.03.28v-.08Z"/>
    <path class="cls-1" d="M45.53,56.42c0,.14.02.38.07.64-.02-.27,0-.16-.03-.48.01-.04.04.09.06.19,0-.07.04.06.02-.12-.06-.21-.08-.22-.08-.03-.02-.06-.02-.13-.03-.19Z"/>
    <path class="cls-1" d="M43.87,56.23l.02.03s-.01-.03-.02-.03Z"/>
    <path class="cls-1" d="M42.85,56.23s0-.04,0-.06c0,.02,0,.04,0,.06Z"/>
    <path class="cls-1" d="M42.64,55.95s0,.01.01.02c0-.03-.01-.04-.01-.02Z"/>
    <path class="cls-1" d="M43.87,56.23l-.04-.08c.01.09.02.07.04.08Z"/>
    <path class="cls-1" d="M45.41,57.13s0-.04,0-.08c0,.01,0,.02,0,.03,0,.02,0,.03,0,.04Z"/>
    <path class="cls-1" d="M44.26,55.94h0s0-.07-.01-.12v.12Z"/>
    <path class="cls-1" d="M44.59,55.84s.03.23.04.33c-.01-.1-.01-.15,0-.17,0-.05-.02-.1-.03-.17Z"/>
    <path class="cls-1" d="M45.19,56.17v-.03s0,.02,0,.03Z"/>
    <path class="cls-1" d="M44.02,55.92s-.01-.07-.02-.08c0,.03.01.06.02.08Z"/>
    <path class="cls-1" d="M34.96,59.18s0-.03,0-.04c0,.02,0,.04,0,.04Z"/>
    <path class="cls-1" d="M34.38,58.06h0c0-.06-.01-.1-.02-.15l.02.15Z"/>
    <path class="cls-1" d="M42.28,55.7s0,0,0,0c0-.03,0-.02,0,0Z"/>
    <path class="cls-1" d="M39.48,56.32c.07.21,0,.28.08.51-.02-.09-.01-.38-.08-.51Z"/>
    <path class="cls-1" d="M45.4,57.1s0,0-.01,0c0,0,.01,0,.01,0Z"/>
    <path class="cls-1" d="M39.55,56.82s0,0,0,0v.02s0-.02,0-.02Z"/>
    <path class="cls-1" d="M41.59,55.95s.02.07.02.1c0-.02-.01-.05-.02-.1Z"/>
    <path class="cls-1" d="M42.17,56.2l-.02-.03s.01.03.02.03Z"/>
    <path class="cls-1" d="M41.37,56.33s-.02-.05-.02-.02c0,.01,0,.02,0,.03,0-.03,0-.05.01-.01Z"/>
    <path class="cls-1" d="M41.08,56.37s0,.03.01.05c0,0,0,0,0-.01l-.02-.03Z"/>
    <path class="cls-1" d="M35.81,58.92c-.02-.07-.03-.14-.05-.21.03.17,0,.24.05.21Z"/>
    <path class="cls-1" d="M45.39,56.99c0,.06,0,.09,0,.1,0,0,0,0,0-.01,0-.04,0-.07-.02-.09Z"/>
    <path class="cls-1" d="M41.65,58.2l-.05-.03s.03.03.05.03Z"/>
    <path class="cls-1" d="M37.86,58.57v.03s0,0,0-.03Z"/>
    <path class="cls-1" d="M41.47,58.23c-.02-.08-.04-.13-.05-.16,0,.02,0,.03,0,.06l.05.1Z"/>
    <path class="cls-1" d="M35.76,58.71s0,0,0,0c0,0,0,0,0,0Z"/>
    <path class="cls-1" d="M35.55,59.32s-.03-.31-.05-.49c.04-.1.06.23.1.38.02-.09,0-.38.03-.37,0,.05.02.07.02.13,0-.25.1-.03.09-.35,0,.03.01.05.02.08-.03-.16-.06-.31-.07-.43.02,0,0-.2.04,0-.01,0,0,.08,0,.14v-.09c.07.29,0,.11.03.32.02-.1.03-.35.08-.27.05.29-.06.11.02.36l-.06-.1c.11.45-.03-.03.08.45.07.07.05-.16.12-.08-.01-.16-.04-.24-.05-.4.04-.3.18.71.19.32-.01-.19-.06-.56.01-.37l.04.33c.06.02-.04-.47.06-.26,0,.13-.03.11-.02.15.08.25,0-.19.03-.19l.05.29c.06-.06.09-.27.16-.34,0,.09.01.18.04.26.07-.16.2,0,.31.16v-.25s.03.11.03.16c.05.09-.02-.16-.02-.26.02-.02.05.14.05.21.03-.22.1-.48.2-.22v.08c.06.09-.03-.52.06-.29v.05c.12.09.2-.15.34.21-.04-.36.13.14.06-.36.1.24.1.33.21.48.03.02-.02-.32,0-.37l.04.26v-.28s.06.31.06.31l.02-.07s-.04-.11-.05-.19c.02-.12.13.17.15.3l.06-.24c.01.11,0,.14,0,.21.01-.27.05.27.06.02-.02-.06-.02-.16-.03-.21.05.15.1.15.13.07l.02.18c.08.03.14-.11.22-.12-.04-.08-.08-.39-.07-.42l.05.27c-.01-.17-.04-.1-.04-.31.04.03.07.31.07.4l.02-.1c.02.08.01.13.03.23-.01-.17.11.27.08-.03v.08c.1-.01.12-.11.18-.13-.04-.24,0-.19-.01-.38.06.07.14.25.2.22.02-.12-.02-.2-.02-.35.04.22.09.19.09.35.06-.05.08-.06.14-.25-.02-.09-.04-.12-.05-.2.01-.04.05.09.06.19v.02c.05-.34.33.6.34.13v.02s.04-.25.04-.25c.04.03,0,.17.05.3.03-.37.15.03.18-.22.16.63.19-.08.33.32l-.03-.15c0-.15.04.08.06.11-.02-.12-.04-.13-.04-.22.14-.21.38.17.57.27.07.03-.09-.78.05-.44l.02.28c.07-.35.26-.03.34-.33,0,.07.02.15,0,.15.06.2.1,0,.07-.17.02.02.03.15.05.23.04.12.02-.27.07-.07,0,.03,0,.07,0,.08,0-.1.08.01.03-.22.06.1.07-.12.13.01-.02-.27.1.11.05-.26.06.38.13.3.13.11,0,.12.04.12.06.28.03-.01.05-.09.02-.28.13.45.07-.39.19.19.07-.22.14-.37.21-.48.06.38-.09.05-.03.45.06-.17.06-.51.16-.43.03.05.01.17.02.23.06-.17.17,0,.21-.21,0,.04,0,.08,0,.11.01-.01.04.05.01-.12v.05c-.07-.25-.03-.53-.05-.67.05.5.09.11.15.75,0-.03,0-.12-.02-.23.02.03.04.1.04.23.04-.1,0-.28.04-.29.01.08,0,.12.02.22,0-.17,0-.33.05-.27,0,.05.02.12,0,.12.07-.04.05-.45.15-.31.03.37.04.12.1.43l.03-.1-.04-.15s.03-.24.08-.14v.13s.05-.07.05-.07l-.06-.11c.01-.17-.07-.4,0-.32,0,.03.04,0,.08.18,0,0,0,0,0,0,0-.1,0-.21.04-.14.02.1.05.35.06.42-.02-.27.07-.09.05-.37,0,.07.03.23.04.27l-.02-.22c.03.07.04.1.05.23.06.03-.08-.4,0-.23,0,.02,0,.05,0,.08.07.08.09-.15.17-.06.07.31-.04.09.02.35.07-.07.1-.41.19-.34l-.02-.03c-.06-.45.09.21.1,0,0,.03.03.25.02.2.06.06.09-.13.15-.28v.12c.06.1.1.05.14.09,0-.12.01-.1-.02-.27.21.64.14-.38.32.15-.01,0-.01.1,0,.1l.06-.12c-.04-.19-.03-.12-.07-.27,0-.12,0-.21.02-.21-.01.13.05.31.08.42-.01-.06-.02-.13-.03-.19.1.34-.05-.39.04-.17v.1c.03-.06.02-.19.05-.17.04.22,0,.11.02.29.03-.02,0-.44.06-.22,0,.07-.02.07-.03.13.07.26.07.19.1.23h0s.07.11.07.11l-.02-.07c-.05-.6.06-.12.06-.51,0,.37.02.21.06.47.02.07.06.15.06.22,0-.21.07.16.06-.15.01.08.03,0,.06.21.02-.07-.03-.14-.04-.25,0-.29.17.32.18-.08.04-.17,0-.45.04-.6.04.13.03.3.03.3.05.12.07.09.09,0,0,.07.02.13.04.22.02-.03-.03-.3.02-.19,0,.09.03.24.03.33.02-.08.02-.24.04-.32.03.14.02.22.02.32.02-.07.06-.14.04-.37l-.03-.08s.04.19.03.24c0,.18-.05-.07-.07-.15v-.06c-.08-.48-.06.09-.1.07l-.04-.35v.3c-.02-.09-.06-.29-.05-.34-.06-.17,0,.13-.06-.06,0-.03,0-.05,0-.06v.11c-.02-.07-.06-.25-.03-.2-.08-.19-.04.28-.1.01v-.02c-.05.13.03.26.03.57l-.14-.63.03.26s-.03-.03-.04-.13c0,.18.02.11.03.28-.07-.23-.08.13-.16-.28.02.2.06.15.04.29-.08-.44-.03.08-.1-.11-.03-.23.02-.11-.04-.31.04.39-.08-.07-.09,0,.05.31-.04.14-.07.25-.01-.1-.11-.15-.18-.26v-.05c.03.31-.02.26-.04.33-.03-.19-.03-.26-.03-.35h-.03c0,.11,0,.16,0,.2l-.03-.23s-.04.29-.12.14c.03.22.14.6.1.75-.02-.12-.05-.32-.05-.37,0,.02,0,.1-.02.05v-.2c-.05-.08,0,.17-.02.15-.03-.17-.03-.12-.05-.25,0-.02.03.07.02,0-.03-.03-.07-.12-.1-.25.02.09.04.22.02.25-.04.02-.05-.2-.08-.28,0,.12-.04,0,0,.25-.01,0-.03-.12-.05-.18,0,.11-.09.05-.03.31v.02s0,0,0,.01h0s0,0,0,0c-.03.26-.17-.12-.22,0v-.08c-.04.1-.1.07-.1.25-.01,0-.05-.15-.06-.25-.02.07-.01.16-.08.03,0-.15-.03-.13.02-.11-.05-.07-.08-.2-.09.04-.02-.22-.07-.26-.08-.2l.05.15s-.04.02-.06,0l-.03-.28c-.14-.33-.06.61-.21.04,0,.2.07.13.08.36-.04-.03-.15-.43-.16-.43-.08-.15.02.42-.06.32.02.1.07.37.05.47-.04-.03-.11-.41-.1-.5,0,0,.02.02.02.06,0-.04.02-.08-.02-.19v.1c-.02-.1-.08-.08-.09-.25-.01.1.01.17.04.22-.07-.14-.08,0-.14-.08.02.05.04.17.03.17-.09-.11,0,.2-.05.25-.05-.15-.05-.37-.08-.23-.05-.1-.05-.27-.05-.35-.02.2-.11-.11-.14-.14v-.08c0,.05,0,.05-.02.05l.05.2s-.03-.03-.04-.12c0,.13.06.33.06.52-.04-.1-.04.12-.09-.15.07.08-.05-.27,0-.32,0,.03-.02.03-.04,0,0-.03,0-.06,0-.07-.09-.23.02.31-.04.31-.02-.15-.06-.28-.06-.25.02,0,.05.25.05.37-.06-.11-.03.09-.05.08l.03.05c.02.15,0,.13-.03.19-.02-.12.01-.08,0-.13.01.27-.11-.26-.12-.08-.04-.1-.05-.28-.07-.35-.02.2-.08-.2-.11-.03.05.2.04.15.04.35l.06-.15v.3s.03-.13.05-.1c0,.17,0,.12.03.28-.08-.3-.04.19-.11-.01l-.08-.5c-.09-.21-.06.27-.16.16l.04.08c.02.2-.04.03-.05.12-.02-.17-.05-.23-.08-.33.02.12-.06,0-.01.33l-.07-.21c-.07-.08,0,.49-.06.44-.01-.18-.06-.3-.04-.43-.02,0-.04-.03-.02.09-.03-.1-.02.23-.06.08,0,.07.03.25,0,.24,0-.03-.01-.08-.01-.08.01.08-.02.12.03.3-.14-.51-.16.06-.28-.37-.03.06-.08.12-.11.14,0-.05-.01-.08,0-.07-.08-.15.04.48-.04.32-.07-.26,0-.15-.03-.25-.09-.55-.06.09-.15-.23v-.03c-.06-.18-.04.22-.09.19,0,0,0-.05-.01-.08,0,.29-.04.39-.08.47-.02-.22,0-.12-.04-.33-.02.03.06.35.03.42-.03-.12-.08-.21-.12-.45l.04-.02c-.07-.3-.05.02-.08-.03l-.02-.13c-.06.05,0,.38-.08.37l.02.1c.01.33-.06-.18-.06.07l-.06-.33c-.01.08-.03.34-.07.41-.01-.25.02-.39.03-.54-.02,0-.08.04-.06.2,0-.03,0-.12.02-.07.01.27,0,.4-.06.4-.09-.65-.15-.14-.26-.64-.05.25-.18-.08-.28-.02.11.5-.03.02.06.53-.02.04-.03.03-.04,0l-.12-.3c-.04-.15,0-.12-.02-.23-.06-.03-.06-.22-.11-.35.04.18.02.27-.02.2l.08.23c-.03.29-.13-.42-.16-.14v-.17c-.02.1-.14.02-.11.44-.02-.06-.05-.2-.04-.24-.1-.05-.12.47-.23.23v-.13s0,.24-.04.12c0-.05-.01-.13-.02-.13,0,.04,0,.23-.04.16v-.15c-.11-.15-.08.37-.14.46-.06-.37-.14-.48-.19-.54v-.05c-.11-.03-.13.33-.2.49-.12-.39-.22-.14-.35-.35.02.07.04.29.03.33-.03-.07-.02.27-.07-.07h0c-.07-.33-.1-.23-.13-.23l.06.45c-.19-.63-.2.28-.34-.3,0,.11-.03.12-.04.23l-.04-.24c-.07-.05-.1-.08-.17,0v-.17c-.06,0,.04.7,0,.72l-.07-.36c-.07.02-.2-.28-.22.05,0-.05-.02-.16-.01-.17-.04,0-.17-.22-.08.27-.05-.32-.08-.02-.1.13l-.03-.24c.01.31.03.39,0,.48-.02-.03-.04-.19-.02-.13-.06-.12,0,.23-.06.11v-.15s-.03.07-.03.25c0,.1-.08-.05-.12-.26.02.13.02.31-.01.25-.02-.08-.02-.13-.02-.16-.09-.15-.05.29-.13.06-.01-.08-.02-.12-.03-.14.05,0,.09,0,.09.02-.03-.22-.08-.25-.1-.55,0,.17,0,.53-.06.44,0-.02-.01-.04-.02-.07v-.02s-.02,0-.02.04c-.02-.03-.03-.06-.04-.06-.03-.18-.06-.09-.08-.1.04.24,0,.2.06.4,0-.02,0-.03.01-.04,0,0,0-.01,0-.03,0,0,0,.01,0,.02.01,0,.03-.02.05-.02,0,.12,0,.23-.04.1.01.15.03.31.03.39-.08-.33-.16-.5-.2-.7-.04.14-.13.11-.1.56,0,.06-.04-.12-.06-.19,0-.05.02-.04.01-.11-.02.12-.1.06-.06.37-.07-.13-.02-.29-.07-.23v-.1c-.2-.48-.08.83-.31.21.02.04.02.06.03.11-.2-.26-.27.31-.49-.11-.06-.08-.03.12-.03.27l-.05-.25v.3c-.03.23-.21-.61-.22-.19l.04.17s-.07.12-.1-.08c0,.03.02.18,0,.09l-.02-.13-.03.24c-.07-.09-.07-.53-.16-.54-.02.06-.02.4,0,.49.01,0,.04.08.07.21l-.02.07c.06.39.1.8.21,1.06v-.25s.05.19.05.19l-.04.02c.05.18.04.02.04-.1.02.1.04.17.05.21v-.38c.02.15.01.31.06.39,0-.18-.07-.34-.06-.46.05.18.07.32.07.17.02.1.02.17.02.21,0-.13.05-.06.03-.27.06.22.07-.07.13.3,0-.09,0-.3.01-.32.03.45.08.01.15.49-.03-.41.08-.19.09-.42,0,.03,0,.1,0,.08.03.03.06.15.09.22-.05-.33-.02-.41-.02-.62.09.31.04.39.1.7-.04-.27.02-.28-.03-.5.06.19.04.09.1.36-.06-.41.01-.07,0-.33.07.2.07.39.09.25.04.12.03.28.03.28ZM36.45,58.45s0,0,0,0c0,0-.01.01-.02.02,0,0,0,0,.02-.02ZM36.53,58.43s-.03,0-.04,0c-.02-.08-.03-.17-.02-.16,0,.06.03.1.06.17ZM36.09,56.81s.02.01.03.06c0,0-.01.01-.02.03,0,0,0,.02,0,.03,0-.05-.01-.09-.01-.12Z"/>
    <path class="cls-1" d="M36.12,57.13s0,.02,0,.02c0,.02.01.04.02.05,0-.03,0-.05,0-.08,0,0,0,0,0,0Z"/>
    <path class="cls-1" d="M43.88,56.27h0s0,.01,0,.03c0-.01,0-.02,0-.03Z"/>
    <polygon class="cls-1" points="37.78 58.7 37.77 58.64 37.77 58.69 37.78 58.7"/>
    <path class="cls-1" d="M44.48,57.01s0,.04.02.06c0-.02,0-.04-.02-.06Z"/>
    <path class="cls-1" d="M44.69,57.03l.04.08s-.03-.07-.04-.08Z"/>
    <path class="cls-1" d="M44.86,57.12s0-.07-.01-.1c0,0,0,0,0,0v.1Z"/>
    <path class="cls-1" d="M42.44,57.79s0,0,0,.01c0,.05,0,.03,0-.01Z"/>
    <path class="cls-1" d="M43.08,57.12s0,.09,0,.12c.02.02.03.02,0-.12Z"/>
    <polygon class="cls-1" points="41.66 58.21 41.66 58.2 41.65 58.2 41.66 58.21"/>
    <path class="cls-1" d="M43.04,57.24s.03.03.03,0c-.01-.01-.03-.04-.03,0Z"/>
    <path class="cls-1" d="M45.56,57.13h0s0-.02,0-.03v.03Z"/>
    <path class="cls-1" d="M45.56,57.1v-.03s0,0,0,.03Z"/>
    <path class="cls-1" d="M45.57,57v.06s0,0,0-.06Z"/>
    <path class="cls-1" d="M45.33,57.05v.09s0-.05,0-.09Z"/>
    <path class="cls-1" d="M45.27,57.08s.07.18.08.12v-.07c0,.13-.09-.2-.08-.05Z"/>
    <path class="cls-1" d="M44.85,56.06l.06.06c-.02-.09-.06-.21-.03-.24-.11-.26.05.2-.03.18Z"/>
    <path class="cls-1" d="M44.66,55.95s-.02-.13-.03-.19c0,.09,0,.11.03.19Z"/>
    <path class="cls-1" d="M43.49,56.14l-.03-.22s.01.08.03.22Z"/>
    <polygon class="cls-1" points="43.44 57.29 43.48 57.42 43.46 57.22 43.44 57.29"/>
    <polygon class="cls-1" points="43.06 55.77 43.07 55.74 43.04 55.82 43.06 55.77"/>
    <path class="cls-1" d="M41.1,56.16l.05.27c0-.05-.04-.35-.05-.27Z"/>
    <path class="cls-1" d="M40.29,56.56c-.03-.13-.07-.21-.06-.08.02.02.06.12.06.08Z"/>
    <polygon class="cls-1" points="37.67 56.53 37.67 56.44 37.65 56.52 37.67 56.53"/>
  </g>
</svg>