<?xml version="1.0" encoding="UTF-8"?>
<svg id="Layer_1" data-name="Layer 1" xmlns="http://www.w3.org/2000/svg" viewBox="0 0 84.28 84.58">
  <defs>
    <style>
      .cls-1 {
        fill: #eed566;
        stroke-width: 0px;
      }
    </style>
  </defs>
  <g>
    <path class="cls-1" d="M20.42,19.63c-.04.13-.05.42.03.37l.1-.49-.13.12Z"/>
    <path class="cls-1" d="M20.83,20.6c.11-.23.26-.64.26-1.1-.14.47-.14.26-.3.82-.08.05-.11-.17-.08-.35-.04.12-.11-.12-.18.19.06.39.18.42.34.12.02.11-.03.24-.04.33Z"/>
    <path class="cls-1" d="M27.12,23.54v-.07s0,.06,0,.07Z"/>
    <path class="cls-1" d="M29.16,26.77s-.07-.02-.11,0c.04.02.07.03.11,0Z"/>
    <path class="cls-1" d="M28.75,27.47s.02-.03.03-.04c-.04.02-.07.04-.03.04Z"/>
    <path class="cls-1" d="M27.12,23.54v.19c.09-.12.02-.13,0-.19Z"/>
    <path class="cls-1" d="M22.01,19.55s-.06.06-.09.12c.02-.02.05-.03.07-.04,0-.03.01-.05.02-.08Z"/>
    <path class="cls-1" d="M25.37,23h-.03s-.07.09-.11.16l.14-.16Z"/>
    <path class="cls-1" d="M24.07,22.56s.17-.37.24-.54c-.07.16-.12.23-.16.25-.03.08-.05.17-.08.29Z"/>
    <path class="cls-1" d="M22.06,21.29l-.05.05s.03-.03.05-.05Z"/>
    <path class="cls-1" d="M26.18,23.52c-.03.06-.05.1-.07.14.03-.05.05-.09.07-.14Z"/>
    <path class="cls-1" d="M17.19,19.03s.01.05.02.07c0-.04,0-.07-.02-.07Z"/>
    <polygon class="cls-1" points="19.4 20.89 19.38 20.91 19.36 21.15 19.4 20.89"/>
    <path class="cls-1" d="M28.25,28.47h0s-.04-.02,0,0Z"/>
    <path class="cls-1" d="M21.28,33.88c.1.38-.23.48-.07.9,0-.16.21-.65.07-.9Z"/>
    <path class="cls-1" d="M22.04,19.61s.04,0,.07,0c-.03-.02-.05-.02-.07,0Z"/>
    <path class="cls-1" d="M21.21,34.78h0s.02.04.02.04c0-.02-.01-.03-.02-.04Z"/>
    <path class="cls-1" d="M27.78,30.73c.07.03.12.05.17.07-.04-.02-.09-.04-.17-.07Z"/>
    <path class="cls-1" d="M29.01,29.2l-.07.04s.06-.02.07-.04Z"/>
    <path class="cls-1" d="M27.7,31.87s-.09-.03-.07.03c.02.01.03.02.05.03-.04-.05-.04-.08.03-.06Z"/>
    <path class="cls-1" d="M26.93,32.63s.05.03.07.05v-.04s-.07-.01-.07-.01Z"/>
    <path class="cls-1" d="M13.11,21.89c.11.05.23.12.33.19-.24-.18-.17-.43-.33-.19Z"/>
    <path class="cls-1" d="M21.97,19.78c.02-.1.04-.15.07-.17-.02,0-.03,0-.05.02-.01.06-.02.12-.02.16Z"/>
    <path class="cls-1" d="M30.19,34.08c-.07.06-.15.11-.22.15.08-.03.16-.08.22-.15Z"/>
    <path class="cls-1" d="M12.42,32.53l-.07-.02s.03.03.07.02Z"/>
    <path class="cls-1" d="M29.47,34.82c-.14-.08-.23-.11-.3-.12.01.03.02.06.05.1l.25.02Z"/>
    <path class="cls-1" d="M13.45,22.08h0s0,0,0,0Z"/>
    <path class="cls-1" d="M13.99,20.19c-.22.15.25.5.4.78-.12.3-.37-.23-.63-.38-.05.24.2.71.09.79-.07-.06-.11-.06-.17-.17.17.44-.4.41-.11.95-.05-.02-.09-.04-.12-.07.23.16.45.34.59.48-.05.08.16.36-.14.15.05-.04-.06-.14-.13-.23l.06.18c-.46-.26-.05-.22-.34-.47,0,.28.18.71-.02.74-.44-.28.09-.39-.4-.5l.31-.07c-.75-.36.14-.09-.64-.49-.35.18-.05.46-.36.66.19.22.36.22.55.44.18.65-1.3-.38-.9.29.25.25.8.59.39.64l-.47-.34c-.21.27.65.54.15.66-.19-.15-.06-.31-.14-.29-.51,0,.22.28.16.43l-.48-.18c-.06.37.12.84.12,1.23-.14-.06-.27-.18-.45-.13.09.54-.31.99-.69,1.46l.42.24s-.2.06-.29,0c-.18.18.28.04.44.14.02.11-.26.12-.39.04.18.19.36.43.45.66.11.23.11.46-.12.65l-.13-.06c-.16.3.91.21.55.49l-.09-.03c-.04.3.06.59.12.87.08.27.09.53-.15.86.61-.15-.04.64.79.32-.26.47-.47.47-.5,1.02.03.13.58-.1.73-.02l-.4.24.52-.07-.41.39.18.05c-.01-.06.1-.21.22-.28.3.06.04.62-.14.77.21.07.41.14.63.19-.15.11-.26.08-.4.1.55-.08-.35.35.16.28.06-.09.22-.16.3-.22-.13.27.06.51.3.59l-.26.19c.24.33.7.5,1.04.77-.03-.21.36-.61.49-.57l-.27.41c.25-.18.02-.22.38-.41.08.14-.27.5-.44.56h.26c-.08.11-.17.15-.29.28.25-.19-.03.62.39.26l-.08.12c.37.25.62.24.94.4.22-.36.29-.21.55-.45.15.24.23.68.54.77.29-.1.21-.3.4-.48-.15.35.14.45-.11.63.36.1.47.12,1-.01,0-.17-.02-.25.05-.36.1-.03.12.22.05.39l-.03.03c.33-.18.52.15.73.48.21.33.45.6.73.25l-.03.03.49-.33c.18.1-.16.27-.06.52.56-.58.73.2,1.16-.21.11.57.4.56.68.5.29-.07.58-.22.81.14l-.04-.27c.09-.27.14.15.23.2-.03-.21-.14-.23-.08-.38.83-.39,1.85.14,2.86.07.36-.05-.27-1.36.34-.91l.06.51c.42-.79,1.32-.54,1.66-1.33.03.12.1.25.04.28.31.23.47-.27.3-.51.1-.03.17.21.3.29.24.09.04-.58.31-.34.05.04.04.12.03.16-.03-.2.38-.24.06-.51.33,0,.25-.45.57-.4-.22-.43.47-.14.04-.64.47.5.71.05.57-.28.12.18.25.03.43.26.12-.16.13-.37-.16-.56.87.21-.13-.92.83-.5,0-.68,0-1.22.04-1.72.62.29-.15.51.49.8-.03-.57-.48-1.01-.18-1.38.13-.08.26.15.35.23-.11-.52.32-.87.04-1.35.06.01.12.07.16.12,0-.08.13-.17-.17-.22l.07.09c-.46.04-.87-.46-1.1-.49.86.25.27-.34,1.35,0-.05-.06-.19-.14-.4-.15.07-.07.19-.09.41.02-.14-.31-.47-.23-.45-.48.15,0,.2.06.38.1-.29-.15-.57-.28-.44-.5.09.01.21-.01.21.05-.05-.4-.79-.58-.57-.99.66.02.19-.17.73-.28l-.21-.2-.25.14c-.02-.2-.47-.26-.33-.46l.26.08c-.07-.11-.12-.22-.2-.32-.04.08-.1.17-.15.25-.33-.1-.67.21-.59-.05.07.02-.05-.16.23-.36h0c-.2-.02-.4-.03-.32-.21.15-.1.58-.21.68-.28-.45.09-.31-.35-.8-.23.12-.02.39-.15.43-.19l-.37.11c.07-.13.12-.17.33-.27-.06-.27-.59.41-.46,0,.04,0,.08-.03.15-.02,0-.35-.52-.36-.51-.69.41-.4.25.12.58-.23-.33-.31-1.06-.26-1.22-.62v.09c-.6.52.08-.47-.32-.34.07-.01.35-.28.28-.22-.1-.29-.55-.22-1-.26l.16-.13c0-.25-.27-.32-.35-.49-.16.14-.21.06-.33.34.12-.63-.19-.63-.48-.58-.29.04-.57.12-.55-.41.05.02.19-.1.16-.12h-.43c-.12.33-.04.22-.09.49-.13.17-.29.27-.37.23.24-.14.23-.51.24-.72-.03.1-.1.2-.14.3.07-.64-.31.62-.38.15l.08-.16c-.13.05-.3.24-.37.15.11-.39.16-.14.29-.44-.15-.04-.54.6-.52.18.1-.08.18-.05.28-.13.03-.49-.03-.39-.11-.5h0s-.17-.27-.17-.27l.02.14c-.52.93-.42.05-.86.63.42-.55.15-.35.3-.78-.02-.14-.08-.3-.02-.42-.22.32-.12-.33-.43.14.03-.14-.12-.05,0-.4-.18.07-.03.26-.09.43-.35.41-.41-.73-.9-.14-.35.21-.5.69-.8.88-.05-.25.17-.51.17-.51-.1-.24-.22-.22-.38-.08.05-.12.04-.23.02-.4-.12.02-.16.52-.27.28.05-.16.12-.41.2-.56-.15.11-.32.37-.47.48,0-.26.13-.37.21-.53-.17.09-.43.17-.52.57l.08.16c-.06.01.01-.35.06-.42.17-.3.17.17.16.31l-.11.08c-.02.86.39-.08.58,0l-.18.61.27-.48c.01.17-.02.52-.12.59.08.33.15-.2.21.16,0,.05,0,.08-.02.11l.16-.16c-.05.12-.06.44-.12.33.15.4.46-.39.44.09l-.03.03c.35-.13.12-.44.48-.91l-.1,1.14.14-.44s.08.07.03.25c.19-.28.03-.2.17-.47.05.44.48-.07.32.64.15-.32-.08-.3.15-.49-.17.77.23-.08.27.31-.16.38-.23.13-.2.52.29-.64.22.23.37.14.18-.51.32-.13.57-.24-.07.17.24.42.33.67l-.04.08c.25-.5.39-.33.56-.37-.14.3-.22.4-.35.51l.11.05c.1-.15.18-.21.28-.24l-.21.36c.15.05.53-.29.58.06.2-.33.35-1.03.69-1.13-.09.19-.26.5-.35.54.03-.01.15-.11.14-.02l-.25.26c.01.18.19-.23.25-.16-.15.26-.05.21-.18.41-.03.01,0-.14-.08-.05.05.09.06.3-.03.51.08-.15.2-.34.28-.34.16.07-.14.33-.14.51.14-.15.11.08.36-.28.04.03-.07.21-.12.32.18-.12.36.17.55-.26v-.04s.01,0,.02,0h0s0,0,0,0c.5-.17.33.56.65.61l-.1.11c.23,0,.33.18.65.05.04.04-.12.27-.26.38.16.02.3-.07.23.22-.28.07-.15.18-.23.02,0,.21-.17.37.26.25-.33.19-.32.38-.19.37l.16-.25c.09.04.1.12.12.2l-.43.25c-.18.29.12.23.35.25.23,0,.43.06.03.37.35-.08.15-.25.55-.37.01.17-.58.58-.58.62-.2.26.74-.11.63.15.16-.08.6-.26.82-.14-.02.18-.67.38-.83.34-.02-.03.03-.06.09-.07-.08-.03-.17-.06-.34.05l.18-.04c-.15.12-.09.28-.39.31.19.05.29-.03.36-.12-.2.22.05.26-.09.46.09-.04.29-.1.3-.07-.18.29.35.07.45.26-.26.13-.65.02-.4.19-.18.12-.47.05-.62.02.34.13-.21.29-.28.36l-.14-.07c.08.04.08.08.08.11l.36-.04c-.06.05-.07.08-.21.08.23.06.59-.02.91.09-.18.06.18.23-.29.22.18-.2-.47-.02-.54-.19.06.03.05.07-.02.11-.05,0-.1-.01-.12-.03-.44.14.53.13.49.33-.26-.06-.51-.02-.46.01.02-.07.45.02.63.13-.23.1.13.17.09.24l.11-.06c.26.08.21.14.26.27-.2-.04-.12-.12-.22-.11.43.22-.52.14-.26.35-.19.02-.48-.13-.62-.11.29.26-.4.04-.18.29.35.08.27.03.56.28l-.14-.36c.14.11.29.23.43.35.04-.09-.15-.25-.07-.29.25.18.17.14.46.19-.55-.05.21.36-.19.38l-.82-.33c-.44.03.28.51-.05.67h.18c.3.19-.04.17.04.32-.25-.15-.38-.16-.55-.22.19.11-.11.15.37.49l-.39-.11c-.24.08.54.69.32.83-.21-.25-.44-.3-.54-.56-.04.05-.12.07.04.2-.17-.09.18.41-.08.28.08.11.31.32.23.37-.05-.03-.11-.1-.11-.1.11.1.05.23.35.4-.82-.46-.45.54-1.14.08-.06.18-.16.38-.27.49-.04-.08-.09-.12-.04-.11-.33-.11.38.77,0,.66-.37-.33-.03-.29-.2-.4-.56-.79-.17.26-.6-.14v-.07c-.26-.23-.06.46-.28.49,0,0-.03-.08-.07-.13.11.5-.07.77-.21.98-.09-.38,0-.22-.18-.56-.06.09.27.56.14.73-.14-.17-.33-.29-.49-.67l.14-.08c-.27-.47-.19.09-.3.04l-.07-.22c-.2.15-.02.71-.3.75l.08.16c.01.6-.21-.28-.24.18l-.2-.56c-.05.16-.2.64-.36.78.02-.45.17-.71.22-1-.09.02-.3.12-.29.41.03-.06.04-.21.1-.13-.01.48-.14.74-.34.76-.15-1.13-.56-.21-.79-1.09-.29.43-.63-.13-.98-.09.1.9-.11.02-.13.94-.1.05-.13.04-.14-.02-.08-.18-.16-.37-.23-.57-.04-.27.1-.19.11-.4-.18-.09-.04-.4-.13-.65-.01.33-.11.46-.2.32l.09.44c-.33.45-.12-.78-.44-.35l.13-.27c-.16.14-.45-.1-.76.59,0-.11.03-.36.1-.41-.26-.19-.93.56-1.02.02l.1-.2c-.08.04-.25.36-.24.12.04-.08.1-.2.08-.22-.06.06-.3.31-.32.15l.16-.2c-.16-.4-.69.36-1.03.36.3-.59.2-.9.15-1.04l.05-.08c-.25-.24-.79.14-1.24.14.27-.69-.37-.69-.31-1.21-.05.12-.37.36-.47.36.04-.14-.48.14-.03-.25v.03c.41-.44.2-.45.14-.55l-.63.49c.33-.49.15-.59-.07-.67-.22-.08-.42-.18-.01-.51-.21.03-.25-.05-.47-.02l.38-.19c0-.23.03-.34-.17-.52l.3-.07c-.03-.12-1.21.29-1.28.15l.59-.25c-.1-.26.38-.6-.21-.71.09-.01.27-.04.31,0-.01-.11.36-.44-.5-.32.56-.06.04-.24-.22-.39h.42c-.54-.09-.69-.1-.82-.28.06-.04.34-.02.23.03.23-.13-.39-.13-.15-.29l.26.08c.04-.14-.1-.14-.41-.25-.17-.12.15-.27.52-.23-.22-.05-.51-.19-.39-.26.14.02.22.06.26.09.31-.17-.41-.47.04-.53.13.03.2.04.25.04-.07.18-.12.32-.15.3.38.08.46-.03.97.19-.26-.16-.81-.52-.6-.61.04,0,.07,0,.13.02l.04.03s.02-.06-.04-.1c.07-.02.12-.03.14-.07.31.09.22-.09.27-.15-.4-.15-.29-.22-.65-.26.03,0,.04.03.04.08,0,.02,0,.03.03.05l-.03-.02c0,.05-.03.11-.04.18-.19-.13-.32-.25-.07-.25-.24-.13-.48-.28-.59-.35.59.11.96.06,1.29.19-.11-.3.1-.51-.51-1.06-.05-.11.24.05.36.1.05.07,0,.1.1.18-.1-.22.15-.36-.28-.71.3,0,.36.37.42.12l.12.13c.48.07.32-.25.19-.62-.13-.36-.15-.73.42-.5-.07-.03-.11-.04-.18-.1.38-.04.54-.28.74-.55.21-.22.46-.46.89-.2.21.08.07-.24.07-.54l.2.41c-.01-.18-.03-.38-.03-.55.16-.43.7.94.8.19l-.1-.29c.12.04.33-.23.35.12,0-.06,0-.32.06-.17l.03.24c.07-.15.15-.3.24-.43.22.17.01.94.27.99.08-.09.32-.69.3-.85-.05-.01-.11-.15-.1-.38l.12-.12c.06-.7.27-1.41-.1-1.9-.1.14-.19.28-.28.42l-.09-.34.23-.02c-.13-.32-.22-.04-.3.16-.03-.18-.07-.31-.13-.37-.08.23-.16.44-.22.68-.06-.27.08-.56-.12-.68-.09.32.17.59,0,.82-.15-.3-.15-.56-.27-.27-.05-.18-.03-.29.02-.38-.11.23-.35.14-.35.52-.21-.38-.4.2-.55-.45,0,.17-.09.57-.2.63-.02-.82-.45.08-.68-.72.1.73-.46.54-.55,1.02-.01-.06-.03-.17,0-.15-.18.01-.31-.14-.48-.21.26.53.12.77.21,1.14-.47-.38-.27-.64-.6-1.08.26.4-.05.59.23.88-.32-.21-.2-.07-.54-.43.4.62-.04.19.13.63-.39-.16-.46-.51-.52-.19-.24-.1-.22-.44-.22-.44ZM11.89,25.44h0s0-.09,0-.11v.11ZM11.77,25.87s.05-.11.07-.18c.14.02.28.08.27.12-.09-.05-.2.03-.33.06ZM14.79,25.99c.04.06-.05.05-.13.03,0-.02,0-.05-.02-.09l-.05-.02c.07.03.14.06.19.09Z"/>
    <path class="cls-1" d="M14.31,25.72s-.02-.02-.02-.03c-.04,0-.07,0-.1,0l.12.06v-.03Z"/>
    <path class="cls-1" d="M27.11,23.46h0s0-.02.02-.05c0,.02-.01.03-.02.05Z"/>
    <polygon class="cls-1" points="11.97 32.2 12.06 32.14 11.96 32.15 11.97 32.2"/>
    <path class="cls-1" d="M25.99,21.17s.02-.07.02-.11c-.01.03-.01.07-.02.11Z"/>
    <path class="cls-1" d="M25.12,20.71l-.08-.19c.03.1.05.15.08.19Z"/>
    <path class="cls-1" d="M24.48,20.28c-.03.07-.05.12-.07.17h0s.07-.17.07-.17Z"/>
    <path class="cls-1" d="M31.79,29.69s0,.02.01.04c.06.09.04.03-.01-.04Z"/>
    <path class="cls-1" d="M30.56,25.91c.09.01.17.02.23.05,0-.07,0-.13-.23-.05Z"/>
    <polygon class="cls-1" points="30.21 34.06 30.21 34.05 30.19 34.08 30.21 34.06"/>
    <path class="cls-1" d="M30.84,26.13c.06-.09.02-.14-.05-.17,0,.06-.03.13.05.17Z"/>
    <path class="cls-1" d="M21.35,19.41l-.03-.02s0,.05-.01.07l.05-.04Z"/>
    <path class="cls-1" d="M21.31,19.46l-.05.04s.03,0,.05-.04Z"/>
    <path class="cls-1" d="M21.17,19.6l.1-.1s-.06-.02-.1.1Z"/>
    <path class="cls-1" d="M22.3,19.76l.04-.15s-.02.08-.04.15Z"/>
    <path class="cls-1" d="M22.6,19.77c-.06-.05-.12-.35-.23-.28l-.03.12c.09-.21.15.4.26.16Z"/>
    <path class="cls-1" d="M23.34,21.87l-.19-.18c0,.17,0,.39-.11.41.15.54.03-.37.3-.23Z"/>
    <path class="cls-1" d="M23.93,22.29c-.13.03-.07.23-.1.31.11-.12.14-.15.1-.31Z"/>
    <path class="cls-1" d="M27.99,24.69l-.29.25c.09.02.11-.1.29-.25Z"/>
    <polygon class="cls-1" points="30.18 24.29 30.31 24.06 29.99 24.22 30.18 24.29"/>
    <polygon class="cls-1" points="28.11 26.16 28.04 26.15 28.22 26.2 28.11 26.16"/>
    <path class="cls-1" d="M26.83,32.22l.33.34c-.01-.1-.36-.5-.33-.34Z"/>
    <path class="cls-1" d="M24.23,34.18c-.1-.22-.23-.34-.23-.1.08.01.21.17.23.1Z"/>
    <polygon class="cls-1" points="15.66 30.92 15.82 30.86 15.65 30.86 15.66 30.92"/>
  </g>
  <g>
    <path class="cls-1" d="M36.04,62.1c.13.02.42-.03.35-.11h-.5s.15.11.15.11Z"/>
    <path class="cls-1" d="M36.89,61.41c-.25-.08-.68-.15-1.13-.03.49.05.29.09.87.14.07.08-.14.17-.33.17.13.02-.09.15.22.16.37-.15.37-.3.04-.42.1-.04.24-.03.33-.03Z"/>
    <path class="cls-1" d="M36.07,52.71l-.04.07s.04-.05.04-.07Z"/>
    <path class="cls-1" d="M34.72,47.43s.08.03.12.02c-.04-.03-.08-.05-.12-.02Z"/>
    <path class="cls-1" d="M34.91,46.36s0,.04-.01.06c.04-.04.05-.06.01-.06Z"/>
    <path class="cls-1" d="M36.07,52.71l.11-.18c-.16.03-.1.1-.11.18Z"/>
    <path class="cls-1" d="M35.56,60.38s.08.04.14.06c-.02-.02-.05-.04-.06-.06-.03,0-.05,0-.08,0Z"/>
    <path class="cls-1" d="M37.02,54.95v.04c.07,0,.14,0,.22,0l-.22-.04Z"/>
    <path class="cls-1" d="M37.47,56.75s-.41.02-.59.04c.18,0,.26,0,.3.04.08-.01.17-.04.29-.07Z"/>
    <path class="cls-1" d="M37.2,59.76l.06.04s-.04-.03-.06-.04Z"/>
    <path class="cls-1" d="M36.82,53.64c.06-.02.11-.04.14-.05-.05.01-.1.03-.14.05Z"/>
    <path class="cls-1" d="M11.17,57.7s-.05,0-.07,0c.04.01.07.02.07,0Z"/>
    <polygon class="cls-1" points="9.06 59.66 9.04 59.64 8.8 59.64 9.06 59.66"/>
    <path class="cls-1" d="M34.78,44.55s0,.01,0,.01c.06.02.04,0,0-.01Z"/>
    <path class="cls-1" d="M21.92,34.42c.27.33-.22.55.15.89-.07-.16.15-.7-.15-.89Z"/>
    <path class="cls-1" d="M35.61,60.33s-.01-.05-.01-.07c0,.03,0,.06.01.07Z"/>
    <path class="cls-1" d="M22.07,35.31h0s.04.04.04.04c-.02-.01-.02-.02-.04-.04Z"/>
    <path class="cls-1" d="M32.86,40.98c-.06.04-.1.08-.14.12.04-.02.08-.05.14-.12Z"/>
    <path class="cls-1" d="M33.6,43.95l.02-.09s-.03.07-.02.09Z"/>
    <path class="cls-1" d="M31.56,39.88c0-.05.05-.09-.03-.11-.02.02-.03.03-.03.04.06-.01.1,0,.07.07Z"/>
    <path class="cls-1" d="M30.59,38.5s-.03.05-.05.08l.05.03v-.11Z"/>
    <path class="cls-1" d="M11.79,53.43c-.12,0-.25-.02-.38-.04.29.06.34.3.38.04Z"/>
    <path class="cls-1" d="M35.8,60.35c-.11,0-.16,0-.19-.02,0,.02.02.03.03.05.06,0,.12-.01.16-.03Z"/>
    <path class="cls-1" d="M28.7,41.59l-.07-.21c0,.07.02.15.07.21Z"/>
    <path class="cls-1" d="M15.99,43.51l.02.07s.02-.04-.02-.07Z"/>
    <path class="cls-1" d="M28.23,40.89c.1-.12.15-.2.17-.27-.03.01-.06.02-.1.04l-.06.23Z"/>
    <path class="cls-1" d="M11.4,53.38h0s0,0,0,0Z"/>
    <path class="cls-1" d="M11.98,55.1c.06-.2-.5-.22-.8-.34-.09-.29.43-.02.72-.04-.1-.19-.57-.44-.52-.55.09.01.13,0,.23.06-.38-.28.12-.5-.36-.85.05,0,.1,0,.14.01-.27-.05-.55-.12-.74-.19.02-.1-.28-.29.08-.22-.03.06.11.1.21.17l-.12-.15c.53.06.13.19.5.3-.1-.24-.44-.61-.25-.72.49.13.05.41.55.34l-.26.18c.82.06-.1.12.77.22.24-.25-.14-.41.1-.67-.24-.16-.41-.11-.65-.27-.33-.6,1.33.08.8-.46-.29-.2-.88-.45-.48-.56l.51.28c.16-.27-.71-.46-.24-.63.19.14.09.3.17.28.5-.04-.26-.26-.19-.41l.49.15c.05-.34-.16-.82-.1-1.2.13.08.26.2.43.17-.06-.53.45-.91.91-1.21l-.33-.34s.21.01.27.09c.22-.1-.25-.12-.38-.27.01-.11.29-.02.38.09-.22-.44-.37-1.16.2-1.27l.09.11c.27-.16-.7-.64-.23-.69l.05.07c.41-.44.3-1.17,1.09-1.27-.54-.35.49-.36-.28-.79.53-.09.64.07,1.09-.19.09-.08-.41-.41-.42-.58l.41.22-.33-.4.53.18-.04-.17s-.24,0-.35-.07c-.08-.29.53-.29.74-.17l-.09-.62c.15.11.16.21.23.33-.27-.47.44.21.19-.21-.11-.03-.22-.16-.3-.21.3.05.44-.17.45-.4l.24.21c.26-.24.29-.69.53-.99-.2.02-.62-.34-.59-.47l.41.26c-.19-.25-.22-.02-.42-.37.14-.09.5.27.57.43l-.02-.24c.12.08.15.16.29.29-.19-.25.56.09.22-.33l.12.09c.25-.27.24-.51.43-.74-.29-.3-.15-.33-.31-.63.26-.06.66.02.84-.17.01-.28-.18-.31-.27-.57.25.29.44.1.5.41.22-.24.27-.3.45-.79-.12-.11-.2-.14-.25-.26.03-.1.23.04.32.21v.04c.06-.36.44-.27.77-.15.33.1.62.24.62-.21v.04c.06-.17.12-.34.19-.52.18,0,0,.31.2.49.17-.73.59-.09.8-.57.23.52.41.49.61.38.19-.08.42-.23.56.14l-.02-.27c.08-.26.09.15.14.21,0-.21-.08-.24-.03-.38.34-.16.7-.01.98.22.28.24.5.56.71.81.16.15.76-1.17.74-.45l-.32.38c.74-.26.82.57,1.54.57-.1.06-.21.17-.24.13-.17.33.28.31.5.11.04.09-.18.2-.25.34-.08.22.54-.09.31.2-.04.05-.11.05-.14.05.18-.06.2.29.47-.02-.02.29.4.21.31.5.44-.18.03.44.6.09-.56.37-.24.63.11.58-.2.07-.11.22-.38.32.09.13.27.19.56,0-.54.66.88.21.05.87.55.26.99.57,1.33.93-.62.27-.28-.43-.91-.1.44.26,1.07.25,1.11.72-.04.14-.29.06-.41.07.43.29.3.81.79,1.03-.06.02-.14.01-.2,0,.05.06-.02.21.26.08l-.11-.04c.36-.29.98-.08,1.2-.15-.86.22-.05.45-1.16.69.07.03.23.03.42-.06-.03.09-.13.16-.37.18.26.2.53-.02.62.22-.14.06-.21.03-.38.07.32.01.63.02.6.27-.09.02-.19.09-.21.03.18.33.96.31.84.79-.65.12-.15.21-.67.42l.23.15.22-.18c.06.18.5.2.39.42l-.27-.06.22.3.13-.26c.34.09.66-.26.6.04-.07-.03.06.19-.22.39h0c.2.03.41.06.33.25-.16.09-.6.17-.7.24.47-.06.27.38.78.34-.12,0-.4.09-.46.12l.39-.05c-.09.12-.14.15-.37.21.02.28.65-.3.46.1-.04-.01-.09.01-.16-.02-.05.35.43.52.33.86-.51.25-.21-.21-.63.03.22.37.9.64.89,1.08l.04-.09c.78-.17-.29.41.12.5-.07-.03-.44.06-.35.04-.05.31.35.5.7.85h-.21c-.13.21,0,.45-.04.65.21,0,.2.11.48-.02-.99.81.86.89.02,1.59-.01-.06-.2-.1-.2-.05l.27.37c.33-.11.19-.1.44-.24.21,0,.39.09.41.19-.26-.14-.54.12-.72.24.1-.04.22-.03.33-.06-.56.34.69-.11.35.27l-.18.02c.11.09.37.14.34.27-.38.13-.21-.08-.53-.02.06.16.81.18.45.41-.12-.05-.15-.15-.27-.2-.43.26-.31.25-.36.39h0s-.15.31-.15.31l.11-.1c1.07.01.27.39.99.55-.69-.16-.38.02-.83.08-.11.09-.23.23-.36.22.38.07-.25.27.31.36-.14.03.01.14-.36.17.14.15.24-.08.43-.1.54.19-.5.72.24,1,.33.29.83.28,1.11.56-.22.14-.54-.01-.54-.01-.19.2-.14.32.05.46-.13-.02-.23.03-.39.1.05.12.54.02.35.21-.17,0-.43-.01-.6-.05.15.13.44.25.59.39-.25.07-.4-.05-.57-.08.14.16.28.42.69.43l.13-.13c.03.06-.34.07-.42.03-.33-.11.12-.23.26-.26l.11.1c.84-.22-.19-.43-.17-.66h.63s-.54-.15-.54-.15c.15-.07.5-.15.6-.05.28-.2-.24-.11.08-.3.05-.02.08-.02.11,0l-.2-.13c.13.01.43-.09.36.02.32-.34-.53-.39-.08-.57l.04.02c-.27-.36-.46.03-1.03-.18l1.09-.37-.46.03s.03-.13.22-.14c-.33-.1-.19.06-.5.02.38-.26-.28-.5.43-.67-.36-.01-.23.23-.51.06.76-.19-.17-.22.15-.46.41-.02.23.19.55-.05-.69.01.09-.38-.07-.5-.54.09-.29-.29-.51-.5.18-.02.2-.53.34-.81h.09c-.55.06-.5-.21-.65-.36.32-.06.46-.06.62,0l-.04-.17c-.18,0-.28-.03-.37-.13l.41-.05c-.07-.22-.57-.34-.37-.68-.38.07-.99.46-1.31.23.2-.06.54-.15.64-.09-.03-.02-.19-.05-.12-.12l.37.04c.12-.16-.3,0-.29-.11.29-.07.19-.12.42-.16.03.02-.1.12.02.13.02-.13.16-.31.37-.41-.16.05-.39.09-.45.02-.07-.21.33-.16.45-.32-.21,0-.04-.2-.47-.09-.01-.06.18-.13.29-.18-.22-.07-.19-.52-.61-.27l-.02.04s-.01,0-.02-.01h0s0,0,0,0c-.52-.26.04-.83-.25-1.15l.14-.04c-.22-.17-.23-.46-.58-.52-.02-.06.21-.23.39-.25-.16-.13-.32-.1-.16-.41.3.09.2-.12.23.12.06-.25.27-.37-.19-.48.39-.03.41-.3.27-.37l-.21.23c-.09-.1-.09-.21-.09-.32l.49-.1c.43-.63-1.24-.47-.39-1.13-.37,0-.15.32-.57.34,0-.22.6-.66.58-.73.16-.37-.78-.02-.7-.37-.15.1-.59.29-.82.13,0-.22.61-.5.79-.42.03.04-.01.09-.07.1.08.04.19.1.34-.04l-.18.03c.14-.16.01-.43.31-.47-.22-.09-.3.04-.34.18.15-.35-.14-.4-.08-.73-.08.08-.26.19-.27.15.06-.47-.38-.05-.55-.28.19-.24.63-.18.31-.36.11-.23.43-.21.59-.19-.41-.12.03-.53.03-.7l.18.07c-.11-.04-.13-.11-.16-.17l-.3.21c.03-.1,0-.16.14-.22-.25.01-.53.28-.88.25.13-.17-.3-.22.12-.44-.02.37.42-.22.61.02-.07-.03-.1-.09-.07-.19.04-.03.09-.03.13-.02.26-.46-.55.07-.67-.24.26-.06.44-.27.36-.3.05.13-.38.23-.62.2.11-.28-.23-.15-.25-.26l-.04.16c-.26.07-.27-.05-.41-.15.18-.09.18.07.25-.02-.5.04.29-.53-.09-.61.12-.17.45-.21.53-.35-.42-.09.22-.41-.15-.54-.29.22-.21.2-.61.17l.41.3-.59-.04c.05.12.32.16.3.26-.32,0-.23-.03-.48.15.41-.39-.43-.2-.19-.54l.81-.37c.22-.47-.66-.33-.65-.8l-.08.19c-.34.11-.16-.21-.35-.27.27-.12.32-.25.46-.39-.19.11-.13-.29-.67-.04l.25-.35c-.03-.38-.92.07-1-.26.33-.08.43-.32.74-.24-.06-.1-.06-.21-.24-.11.12-.15-.5-.06-.32-.29-.14.03-.41.18-.45.07.04-.04.12-.08.12-.08-.12.08-.27-.05-.49.22.59-.8-.58-.73-.13-1.44-.23-.14-.49-.3-.66-.46.08-.05.11-.1.12-.04,0-.42-.75.42-.76-.03.22-.46.32-.04.37-.25.67-.71-.38-.22-.17-.79h.08c.08-.37-.59-.05-.78-.29,0,0,.07-.06.09-.11-.48.24-.88.15-1.19.12.28-.27.22-.09.39-.45-.14-.03-.32.54-.58.49.04-.22-.02-.47.16-.84l.23.11c.16-.52-.3-.15-.37-.3l.13-.2c-.4-.14-.67.41-1.02.2l-.03.18c-.42.45-.05-.37-.41-.05l.14-.58c-.2.07-.68.38-.95.43.24-.39.62-.54.89-.71-.14-.07-.54-.11-.68.15.07-.04.19-.16.22-.06-.31.4-.57.56-.84.51.24-1.14-.7-.39-.88-1.28-.56.42-1.13-.18-1.79,0,.37.85-.18.05.01.95-.13.08-.18.08-.2.02-.17-.15-.35-.3-.54-.44-.17-.24.09-.23.03-.43-.34,0-.23-.35-.52-.52.13.3.01.49-.21.42l.37.33c-.29.6-.62-.63-.91,0l.04-.32c-.17.23-.86.33-.75,1.09-.08-.08-.24-.28-.17-.39-.58.15-.72,1.25-1.3,1.1l-.09-.21c-.05.11.08.45-.15.33-.05-.08-.09-.21-.14-.19,0,.09,0,.47-.18.45l-.05-.27c-.62.09-.28.99-.5,1.38-.43-.5-.89-.37-1.13-.29l-.06-.07c-.5.39-.34,1.14-.48,1.72-.78-.19-.95.72-1.58.94.15,0,.42.3.42.42-.18.03.19.54-.31.19l.03-.03c-.55-.25-.56.07-.68.23l.66.44c-1.27-.14-.31,1.38-1.34,1.13.12.2.04.34.16.54l-.37-.2c-.25.26-.38.39-.48.81l-.23-.21c-.13.21.97.81.9,1.01l-.6-.21c-.17.37-.85.52-.49,1.12-.08-.04-.24-.13-.24-.2-.1.17-.69.49.13.79-.52-.23-.22.36-.08.66l-.37-.2c.41.38.54.45.58.74-.07.03-.33-.09-.2-.12-.28.1.3.3,0,.44l-.21-.19c-.11.18.02.22.26.45.1.19-.25.32-.61.2.2.12.44.34.29.41-.14-.04-.2-.12-.23-.15-.4.21.24.67-.23.73-.13-.05-.2-.06-.25-.06.11-.26.22-.45.24-.42-.35-.15-.51.03-.93-.34.19.28.66.81.41.95-.04,0-.08,0-.13-.02l-.03-.04c-.05.03-.04.09,0,.15-.09.04-.15.07-.18.13-.31-.09-.26.18-.31.28.4.15.28.26.65.26-.03,0-.04-.04-.03-.11,0-.02,0-.04-.02-.06l.03.02c.02-.07.04-.17.08-.27.16.16.3.32.04.34.23.16.46.32.58.4-.6-.07-1.01.09-1.36,0,.1.41-.14.83.53,1.3.06.13-.25.03-.38.02-.06-.08-.02-.14-.12-.21.13.25-.12.58.39.8-.32.15-.44-.29-.46.06l-.15-.1c-1.06.39,1.02,1.45-.26,1.85.08-.03.12-.05.21-.04-.71.72.06,1.79-.85,2.5-.19.22.16.3.41.47h-.46s.49.31.49.31c.34.37-1.16.53-.47,1.04l.31-.04c-.07.16.17.52-.18.48.06.02.32.06.16.12h-.24s.4.4.4.4c-.16.31-.94-.04-.97.43.1.18.71.46.86.38,0-.07.14-.18.38-.2l.13.14c.7,0,1.41.04,1.89-.31l-.43-.21.34-.08.03.19c.32-.12.03-.17-.16-.25.18-.02.3-.05.37-.1l-.67-.22c.27-.02.54.1.69-.04-.31-.11-.61.1-.81-.08.32-.11.58-.07.31-.2.18-.01.29.02.37.07-.21-.12-.08-.3-.45-.37.4-.09-.07-.4.59-.34-.16-.05-.5-.24-.52-.35.77.26.08-.39.93-.24-.69-.22-.26-.54-.6-.84.05.02.16.07.12.08.08-.13.3-.14.45-.2-.58-.12-.67-.36-1.01-.55.59-.07.66.24,1.2.28-.47-.08-.41-.39-.81-.41.37-.06.19-.08.68-.05-.71-.17-.1-.15-.51-.35.39-.11.68.1.51-.15.24-.05.45.19.45.19ZM12.42,49.77h0s-.02.09-.02.12c0-.02,0-.06.01-.12ZM12.59,49.35s-.07.11-.09.18c-.14-.04-.27-.11-.25-.15.08.06.2,0,.34-.02ZM9.51,49.15c-.03-.09.06-.09.14-.06,0,.04,0,.08,0,.14l.04.03c-.07-.04-.14-.07-.19-.11Z"/>
    <path class="cls-1" d="M9.98,49.48s.02.03.02.04c.04,0,.07,0,.1,0l-.11-.07v.04Z"/>
    <path class="cls-1" d="M36.02,52.79h0s-.03.01-.05.02c.02,0,.03-.02.05-.02Z"/>
    <polygon class="cls-1" points="15.94 44.03 15.85 43.98 15.91 44.06 15.94 44.03"/>
    <path class="cls-1" d="M35.2,55.6s-.07.03-.1.05c.03,0,.06-.03.1-.05Z"/>
    <path class="cls-1" d="M35.33,56.68l-.12.18c.07-.08.1-.14.12-.18Z"/>
    <path class="cls-1" d="M35.28,57.54c.07,0,.13,0,.18-.02h0s-.18.02-.18.02Z"/>
    <path class="cls-1" d="M31.03,45.12s-.02-.02-.03-.02c-.1-.04-.05,0,.03.02Z"/>
    <path class="cls-1" d="M33.37,48.42c-.09-.01-.17-.03-.23-.05,0,.08,0,.13.23.05Z"/>
    <polygon class="cls-1" points="28.71 41.62 28.71 41.61 28.7 41.59 28.71 41.62"/>
    <path class="cls-1" d="M33.09,48.19c-.06.09-.02.14.05.18,0-.06.03-.14-.05-.18Z"/>
    <path class="cls-1" d="M35.61,61.12v.04s.04,0,.05,0l-.05-.04Z"/>
    <path class="cls-1" d="M35.67,61.16l.05.04s0-.04-.05-.04Z"/>
    <path class="cls-1" d="M35.84,61.28l-.12-.08s0,.07.12.08Z"/>
    <path class="cls-1" d="M35.67,60.01h-.15s.08,0,.15,0Z"/>
    <path class="cls-1" d="M35.58,59.68c-.02.08-.3.24-.19.34h.12c-.23-.03.33-.3.07-.34Z"/>
    <path class="cls-1" d="M37.23,57.99l-.07.3c.15-.08.36-.18.42-.05.42-.44-.35.13-.35-.25Z"/>
    <path class="cls-1" d="M37.31,57.07c.1.14.23-.04.32-.05-.16-.07-.2-.09-.32.05Z"/>
    <path class="cls-1" d="M35.81,50.75l.37-.09c-.09-.1-.14.04-.37.09Z"/>
    <polygon class="cls-1" points="33.55 50.17 33.36 50.35 33.71 50.29 33.55 50.17"/>
    <polygon class="cls-1" points="35.92 48.63 35.99 48.67 35.8 48.52 35.92 48.63"/>
    <path class="cls-1" d="M31.08,38.52l-.36.31c.12.02.56-.28.36-.31Z"/>
    <path class="cls-1" d="M26.74,35.51c.04-.24-.05-.44-.23-.26.11.07.15.29.23.26Z"/>
    <polygon class="cls-1" points="13.25 41.09 13.17 40.92 13.18 41.15 13.25 41.09"/>
  </g>
  <g>
    <path class="cls-1" d="M62.68,33.81c-.08.11-.19.38-.11.35l.26-.43-.15.08Z"/>
    <path class="cls-1" d="M62.66,34.83c.17-.18.44-.52.6-.95-.28.4-.21.21-.53.68-.08.02-.03-.19.06-.35-.08.1-.04-.14-.21.12-.09.38,0,.44.23.21-.03.11-.1.21-.15.29Z"/>
    <path class="cls-1" d="M66.47,39.18l.04-.05s-.04.04-.04.05Z"/>
    <path class="cls-1" d="M65.69,41.94s-.03-.07-.06-.09c.01.04.02.07.06.09Z"/>
    <path class="cls-1" d="M64.93,41.97s.03,0,.05,0c-.04-.02-.07-.03-.05,0Z"/>
    <path class="cls-1" d="M66.47,39.18l-.12.13c.16-.04.1-.08.12-.13Z"/>
    <path class="cls-1" d="M63.99,34.15s-.07.04-.11.09c.03-.01.05-.02.07-.02.01-.02.03-.04.04-.07Z"/>
    <path class="cls-1" d="M65.44,38.16l-.02-.02s-.11.07-.17.11l.19-.09Z"/>
    <path class="cls-1" d="M64.64,37.46s.28-.29.41-.42c-.12.12-.19.17-.23.19-.05.06-.11.14-.18.24Z"/>
    <path class="cls-1" d="M63.45,35.8l-.06.03s.04-.02.06-.03Z"/>
    <path class="cls-1" d="M65.77,38.81c-.05.03-.1.06-.13.08.05-.03.09-.05.13-.08Z"/>
    <path class="cls-1" d="M60.71,31.16s-.02.04-.03.07c.03-.03.04-.06.03-.07Z"/>
    <polygon class="cls-1" points="61.09 33.86 61.06 33.86 60.9 34.04 61.09 33.86"/>
    <path class="cls-1" d="M63.84,42.2h0s-.02-.03,0,0Z"/>
    <path class="cls-1" d="M55.76,43.1c-.13.37-.42.3-.53.73.09-.14.49-.46.53-.73Z"/>
    <path class="cls-1" d="M63.99,34.22s.04,0,.05.02c-.02-.02-.03-.03-.05-.02Z"/>
    <path class="cls-1" d="M55.23,43.83h0s0,.05,0,.05c0-.02,0-.03.01-.05Z"/>
    <path class="cls-1" d="M62.03,43.51c.03.07.06.12.09.16-.02-.04-.04-.09-.09-.16Z"/>
    <path class="cls-1" d="M63.86,43.24l-.07-.02s.06.03.07.02Z"/>
    <path class="cls-1" d="M61.35,44.36s-.05-.08-.07-.01c0,.02.02.03.02.05,0-.06,0-.09.05-.03Z"/>
    <path class="cls-1" d="M60.39,44.56s.02.05.03.08l.03-.03-.06-.05Z"/>
    <path class="cls-1" d="M56.26,30.86c.05.11.09.24.13.36-.07-.29.11-.44-.13-.36Z"/>
    <path class="cls-1" d="M63.88,34.36c.06-.09.09-.13.12-.14-.01,0-.03,0-.05,0-.03.05-.06.11-.07.14Z"/>
    <path class="cls-1" d="M62.17,47.59h-.22c.07.02.15.02.22,0Z"/>
    <path class="cls-1" d="M49.84,37.96l-.05-.05s0,.04.05.05Z"/>
    <path class="cls-1" d="M61.33,47.78c-.07-.14-.12-.22-.17-.27,0,.03,0,.06,0,.11l.18.16Z"/>
    <path class="cls-1" d="M56.39,31.23h0s0,0,0,0Z"/>
    <path class="cls-1" d="M57.83,30.12c-.24-.02-.11.54-.16.86-.25.15-.12-.41-.22-.69-.17.16-.26.68-.38.66-.02-.09-.04-.12-.02-.24-.13.45-.51.06-.61.65-.02-.05-.04-.09-.05-.13.08.27.13.55.15.74-.08.03-.09.37-.18.02.05,0,.03-.14.03-.26l-.06.17c-.18-.5.09-.2.02-.58-.16.2-.26.66-.42.55-.16-.49.28-.23-.01-.64l.26.15c-.33-.75.15.03-.18-.78-.35-.09-.29.32-.62.27.01.29.14.4.15.69-.22.6-.73-1.13-.8-.37.04.35.26.96-.07.72l-.15-.56c-.3.07.18.81-.25.59-.05-.23.12-.27.05-.31-.38-.34.01.36-.12.42l-.26-.44c-.25.22-.37.7-.58.97-.07-.14-.11-.3-.26-.39-.23.44-.78.51-1.33.6l.19.44s-.19-.09-.22-.18c-.24.01.19.2.26.38-.04.09-.27-.08-.33-.22.04.48.09,1.14-.48,1.13l-.07-.12c-.3.11.61.71.15.68l-.05-.08c-.44.37-.26,1.02-1.02,1.18.59.25-.41.43.44.68-.5.18-.64.06-1,.44-.06.11.52.25.59.39l-.46-.05.46.24-.56.05.11.14c.03-.05.21-.09.34-.08.2.2-.34.46-.58.47.12.17.25.33.4.48-.19,0-.25-.08-.38-.14.49.24-.48.07-.04.29.1-.04.28,0,.37,0-.27.13-.27.41-.11.59h-.32c-.02.38.26.74.36,1.12.11-.18.66-.27.73-.18l-.46.16c.31,0,.15-.16.54-.11-.02.15-.51.24-.69.19l.21.13c-.14.05-.22.03-.4.07.31-.01-.39.45.16.4l-.13.06c.14.38.34.5.5.78.39-.16.35-.01.7-.07-.04.26-.22.64-.04.86.28.07.34-.13.6-.18-.33.2-.16.42-.47.44.22.25.3.32.79.48.1-.13.13-.21.25-.26.09.02-.04.23-.19.33h-.04c.37.02.31.38.29.75-.02.36.02.71.43.56h-.04c.19,0,.37,0,.57-.02.09.17-.28.14-.33.41.74-.21.46.52,1.02.38-.21.54,0,.68.28.75.27.07.56.09.58.51l.1-.25c.2-.19.04.19.08.27.08-.19,0-.26.12-.37.84.05,1.4.96,2.23,1.38.3.12.4-1.33.67-.65l-.17.47c.67-.5,1.26.14,1.84-.38-.03.11-.03.26-.09.26.14.37.46,0,.44-.3.09.03.04.26.1.41.14.2.27-.48.37-.13.02.06-.02.12-.04.15.06-.17.38,0,.25-.4.24.16.38-.24.58-.03.02-.47.4.14.3-.5.12.67.49.45.54.11,0,.21.17.17.19.46.15-.05.25-.22.13-.54.52.69.33-.78.82.14.32-.5.59-.89.87-1.2.28.61-.37.24-.06.88.25-.42.18-1.03.58-1.06.13.03.09.28.12.4.2-.42.68-.33.77-.82.03.05.04.13.04.19.04-.05.19,0,0-.25v.1c-.34-.31-.32-.91-.46-1.11.42.78.38,0,.9.99,0-.07-.04-.22-.17-.38.09.01.18.09.26.32.09-.28-.17-.48,0-.61.09.12.1.19.19.34-.09-.3-.2-.59.02-.61.05.08.14.15.1.18.21-.24-.12-.91.3-.94.39.53.23.07.65.44v-.26s-.24-.13-.24-.13c.12-.12-.09-.49.14-.48l.1.24.12-.31h-.27c-.12-.3-.56-.43-.31-.49.02.07.09-.11.41.01h0c-.1-.17-.21-.33-.04-.35.17.07.51.35.62.4-.35-.31.1-.42-.3-.75.09.08.35.22.41.24l-.31-.23c.14-.02.2,0,.41.11.17-.2-.67-.22-.29-.35.02.03.08.04.11.11.27-.21-.04-.59.19-.79.57.03.08.27.56.28,0-.48-.53-.94-.42-1.28l-.06.07c-.79,0,.38-.29-.02-.45.07.03.45,0,.36,0,.09-.28-.28-.51-.63-.77l.21-.02c.13-.2-.02-.4,0-.58-.21.04-.21-.06-.46.11.44-.45.18-.61-.08-.7-.27-.1-.54-.14-.27-.59.03.04.22,0,.19-.04-.12-.06-.24-.12-.37-.17-.25.24-.13.17-.3.39-.19.09-.37.12-.42.07.27-.04.43-.35.53-.53-.07.08-.18.14-.26.21.35-.54-.54.44-.38,0l.14-.12c-.13,0-.35.11-.38.01.25-.31.2-.07.44-.3-.12-.08-.71.36-.52,0,.12-.05.18,0,.29-.03.23-.43.13-.36.11-.48h0s-.04-.3-.04-.3l-.04.14c-.8.69-.39-.08-.98.33.56-.39.26-.28.54-.63.03-.14.04-.3.14-.39-.31.23.01-.35-.42,0,.08-.12-.09-.08.14-.37-.19.01-.11.23-.23.37-.45.3-.1-.79-.73-.37-.37.11-.65.52-.97.63.04-.24.31-.44.31-.44,0-.25-.11-.26-.3-.17.08-.1.11-.21.15-.37-.1-.01-.3.44-.32.19.09-.13.24-.35.36-.48-.16.07-.39.26-.55.32.09-.24.24-.31.35-.44-.17.04-.41.05-.62.4v.17s.14-.32.21-.37c.24-.23.08.2.02.33l-.12.05c-.31.8.35.02.48.15l-.35.52.39-.38c-.04.16-.19.48-.3.52-.04.33.2-.15.12.2-.02.05-.03.08-.06.09l.19-.11c-.08.1-.2.39-.21.28,0,.41.51-.25.34.2l-.03.02c.34-.04.25-.38.71-.74l-.47,1.04.26-.38s.05.09-.06.24c.26-.21.09-.18.3-.39-.11.42.43.05.04.67.24-.26.05-.3.31-.41-.42.66.22,0,.11.36-.27.3-.24.06-.36.42.47-.5.09.26.24.21.35-.42.31-.04.55-.06-.13.13.03.44-.03.67l-.07.06c.42-.36.45-.17.61-.15-.26.2-.37.27-.52.32l.06.07c.15-.09.25-.13.33-.11l-.34.23c.09.08.55-.07.41.22.34-.19.82-.71,1.15-.65-.17.12-.47.31-.57.3.03,0,.18-.04.12.04l-.34.11c-.09.15.27-.11.28-.04-.26.15-.16.15-.37.26-.03,0,.08-.11-.04-.07,0,.09-.12.25-.3.38.15-.09.35-.19.41-.16.08.11-.3.2-.4.33.2-.06.04.1.44-.08.01.04-.17.13-.28.19.21-.02.16.25.58.03l.02-.03s.01,0,.02,0h0s0,0,0,0c.5.1-.09.54.12.7l-.15.02c.19.11.13.27.45.36,0,.04-.27.1-.45.08.11.09.27.12.02.24-.25-.12-.23,0-.18-.11-.13.11-.38.08,0,.26-.37-.1-.48-.02-.38.05h.28c.04.06,0,.1-.05.14l-.47-.16c-.31,0-.08.13.07.29.16.15.25.33-.23.15.28.22.27.01.61.25-.12.08-.79-.2-.8-.18-.3-.05.53.52.28.55.15.09.55.35.59.58-.14.07-.68-.35-.74-.5,0-.03.06,0,.1.03-.03-.07-.06-.16-.24-.24l.13.12c-.18-.07-.26.06-.46-.16.07.17.2.22.31.23-.29-.06-.16.17-.4.17.09.05.25.18.23.2-.33.02.16.32.09.5-.26-.13-.42-.49-.39-.21-.2-.07-.33-.34-.4-.47.12.35-.36,0-.46,0l-.04-.16c.02.09,0,.12-.03.14l.26.25c-.07-.02-.1,0-.2-.11.11.21.4.43.53.75-.16-.1-.04.27-.35-.09.26,0-.31-.36-.22-.52.01.06-.02.08-.1.06-.04-.04-.05-.08-.06-.11-.4-.23.26.47.09.58-.14-.23-.33-.39-.32-.32.06-.04.29.34.34.55-.22-.1-.03.2-.1.22l.12.04c.13.24.05.24.01.36-.12-.17,0-.17-.08-.22.16.45-.45-.29-.4.06-.15-.12-.26-.43-.37-.51.04.37-.32-.24-.31.08.21.3.18.21.24.58l.12-.35.1.54c.08-.04.05-.28.12-.25.07.29.03.21.21.45-.36-.41-.06.39-.35.14l-.4-.79c-.34-.27-.11.55-.43.46l.13.11c.11.34-.12.12-.15.27-.1-.28-.19-.36-.29-.52.08.2-.17.04,0,.61l-.24-.33c-.23-.08.04.87-.19.84-.03-.33-.18-.5-.12-.76-.06.02-.13-.02-.08.18-.09-.17-.07.44-.2.18,0,.13.08.43,0,.43-.02-.06-.04-.14-.04-.14.04.14-.07.22.07.52-.41-.85-.59.2-.91-.56-.13.12-.29.25-.42.27,0-.09-.01-.15.01-.12-.2-.26-.04.86-.29.57-.14-.47.1-.27.02-.44-.09-.97-.24.16-.4-.42l.03-.06c-.1-.33-.24.37-.42.3,0,0,.01-.09,0-.15-.13.49-.38.63-.57.76.09-.38.1-.2.1-.58-.08.05-.03.62-.21.72-.03-.21-.12-.41-.08-.82h.14c0-.54-.17,0-.24-.11l.04-.23c-.21.04-.32.64-.54.54v.18c-.27.54-.05-.35-.27.05l.11-.58c-.11.12-.43.49-.62.53.22-.39.45-.55.61-.78-.08-.02-.26-.03-.39.24.05-.04.13-.17.13-.07-.22.41-.43.59-.6.52.42-1.06-.31-.44-.05-1.3-.43.27-.37-.39-.63-.48-.4.81-.08-.03-.58.74-.1,0-.11-.03-.09-.08.04-.19.08-.39.14-.57.12-.24.18-.12.3-.29-.08-.14.19-.35.27-.59-.19.27-.33.33-.31.19l-.18.4c-.48.23.36-.7-.11-.47l.24-.17c-.2.06-.25-.26-.87.17.06-.09.23-.27.31-.29-.07-.25-1,.05-.75-.4l.19-.11c-.08,0-.39.17-.24-.01.08-.05.2-.11.19-.14-.08.02-.4.11-.33-.02l.24-.09c.12-.36-.72-.02-.99-.17.58-.3.7-.58.76-.71l.09-.04c-.05-.27-.68-.24-1.03-.45.65-.37.14-.65.51-.98-.11.06-.51.07-.58.02.12-.08-.48-.13.13-.19v.02c.58-.11.42-.21.43-.3l-.79.02c.56-.17.46-.31.35-.48-.12-.16-.24-.33.29-.33-.19-.08-.17-.16-.36-.26l.42.08c.12-.15.21-.19.16-.41l.28.12c.05-.08-1.15-.48-1.12-.61l.61.17c.07-.21.63-.15.22-.56.08.05.24.14.25.17.06-.07.51-.05-.23-.5.48.31.16-.12.04-.38l.32.27c-.37-.4-.49-.51-.49-.71.07,0,.27.2.16.16.24.06-.23-.33.03-.29l.16.22c.1-.06,0-.15-.18-.42-.07-.18.25-.09.51.18-.14-.18-.29-.46-.17-.42.1.1.14.19.16.23.32.09-.07-.58.3-.33.08.11.13.16.16.19-.14.07-.25.14-.26.11.24.3.36.28.63.76-.13-.28-.35-.88-.15-.8.02.03.05.06.09.1v.04c.06.02.06-.03.04-.09.06.03.11.06.14.04.18.26.2.09.26.07-.21-.37-.11-.35-.34-.61.02.02.01.05-.02.08,0,.02,0,.03,0,.05v-.03s-.09.06-.14.1c-.07-.21-.11-.39.07-.22-.11-.25-.21-.51-.25-.64.38.47.66.67.84.99.06-.29.32-.3.17-1.1.02-.12.14.19.2.3,0,.08-.05.08-.02.2.04-.23.29-.17.17-.71.21.2.06.51.23.37l.02.17c.29.37.34.02.45-.34.1-.36.28-.65.55-.11-.03-.07-.05-.1-.07-.19.27.21.51.13.78.04.26-.04.56-.07.69.39.09.19.19-.15.35-.39l-.1.44c.09-.15.2-.31.3-.46.36-.26-.09,1.15.41.6l.11-.29c.05.1.35,0,.16.29.04-.04.19-.25.14-.1l-.12.2c.14-.08.28-.16.42-.21.04.25-.57.75-.43.92.11-.03.64-.37.73-.51-.02-.03.02-.17.17-.36l.16-.03c.48-.51,1.07-.95,1.11-1.54-.16.06-.31.12-.46.18l.15-.32.18.11c.11-.32-.13-.15-.31-.05.09-.16.14-.28.14-.36-.2.13-.38.26-.57.41.13-.24.4-.39.34-.61-.26.2-.25.57-.51.65.08-.32.23-.53-.02-.36.07-.16.16-.25.25-.29-.22.12-.33-.09-.56.21.08-.42-.4-.07-.11-.67-.1.13-.4.39-.51.38.47-.66-.36-.2-.04-.97-.37.63-.63.15-.97.47.02-.05.08-.16.09-.12-.13-.1-.13-.3-.21-.45-.12.58-.36.68-.51,1.02-.1-.59.19-.67.21-1.22-.06.47-.37.43-.35.83-.1-.37-.1-.18-.13-.67-.07.73-.14.12-.27.57-.18-.37-.03-.69-.25-.47-.11-.23.1-.48.1-.48ZM53.44,32.7h0s.05-.06.07-.08c-.01.02-.03.04-.06.08ZM53.12,32.92s.1-.05.15-.08c.1.11.17.24.14.26-.04-.09-.16-.11-.29-.17ZM55.29,34.98c0,.07-.06,0-.11-.07.01-.02.02-.04.03-.08l-.02-.05c.04.07.07.14.09.19Z"/>
    <path class="cls-1" d="M55.08,34.47s0-.03,0-.03c-.03-.03-.05-.05-.07-.07l.05.12.02-.02Z"/>
    <path class="cls-1" d="M66.52,39.12h0s.03-.01.05-.02c-.02,0-.03.02-.05.02Z"/>
    <polygon class="cls-1" points="49.68 37.46 49.78 37.48 49.7 37.43 49.68 37.46"/>
    <path class="cls-1" d="M66.81,36.8s.05-.06.06-.09c-.02.02-.04.05-.06.09Z"/>
    <path class="cls-1" d="M66.25,36.09v-.2c0,.1,0,.16,0,.2Z"/>
    <path class="cls-1" d="M65.86,35.49c-.05.06-.09.1-.12.14h0s.12-.14.12-.14Z"/>
    <path class="cls-1" d="M65.45,45.57s-.01.02-.01.03c0,.1.01.05.01-.03Z"/>
    <path class="cls-1" d="M67.17,42.65c.04.07.08.14.1.2.06-.03.1-.06-.1-.2Z"/>
    <polygon class="cls-1" points="62.19 47.59 62.19 47.58 62.17 47.59 62.19 47.59"/>
    <path class="cls-1" d="M67.17,42.97c.1,0,.12-.05.1-.12-.05.02-.12.04-.1.12Z"/>
    <path class="cls-1" d="M63.5,33.86l-.02-.03s-.02.04-.03.06l.05-.03Z"/>
    <path class="cls-1" d="M63.45,33.89l-.05.03s.03,0,.05-.03Z"/>
    <path class="cls-1" d="M63.29,33.98l.11-.06s-.04-.04-.11.06Z"/>
    <path class="cls-1" d="M64.16,34.42l.08-.13s-.05.07-.08.13Z"/>
    <path class="cls-1" d="M64.41,34.51c-.04-.06.02-.36-.1-.32l-.07.1c.15-.18,0,.41.17.22Z"/>
    <path class="cls-1" d="M64.31,36.66l-.09-.21c-.06.16-.14.36-.24.35-.07.53.16-.33.33-.14Z"/>
    <path class="cls-1" d="M64.63,37.18c-.12,0-.14.19-.21.26.14-.08.17-.1.21-.26Z"/>
    <path class="cls-1" d="M66.39,40.29l-.38-.02c.05.05.15,0,.38.02Z"/>
    <path class="cls-1" d="M68.19,41.47l.26-.04-.33-.14c.03.06.05.12.07.18Z"/>
    <polygon class="cls-1" points="65.48 40.91 65.44 40.87 65.53 41 65.48 40.91"/>
    <path class="cls-1" d="M60.5,44.17l.1.46c.04-.09-.05-.61-.1-.46Z"/>
    <path class="cls-1" d="M57.69,44.61c.02-.24-.02-.4-.12-.19.05.05.08.24.12.19Z"/>
    <polygon class="cls-1" points="53.41 38.53 53.57 38.57 53.43 38.49 53.41 38.53"/>
  </g>
  <g>
    <path class="cls-1" d="M74.16,71.56c.13,0,.42-.07.34-.15l-.5.04.16.11Z"/>
    <path class="cls-1" d="M74.94,70.79c-.26-.05-.7-.08-1.13.09.49,0,.3.07.88.05.08.07-.12.19-.3.21.13,0-.08.16.24.14.35-.19.33-.34,0-.42.1-.06.23-.05.32-.06Z"/>
    <path class="cls-1" d="M73.46,62.11l-.04.07s.04-.05.04-.07Z"/>
    <path class="cls-1" d="M72.01,56.85s.08.04.12.02c-.04-.03-.08-.05-.12-.02Z"/>
    <path class="cls-1" d="M72.22,55.79s0,.04-.01.06c.04-.04.05-.06.01-.06Z"/>
    <path class="cls-1" d="M73.46,62.11l.11-.19c-.16.04-.09.11-.11.19Z"/>
    <path class="cls-1" d="M73.51,69.88s.08.04.14.05c-.03-.02-.05-.04-.07-.06-.03,0-.05,0-.08.01Z"/>
    <path class="cls-1" d="M74.53,64.31v.04c.07,0,.14-.01.22-.02l-.22-.02Z"/>
    <path class="cls-1" d="M75.09,66.07s-.4.05-.59.08c.17-.02.26-.01.3.01.08-.02.17-.05.28-.09Z"/>
    <path class="cls-1" d="M75.08,69.09l.07.04s-.04-.03-.07-.04Z"/>
    <path class="cls-1" d="M74.25,63.01c.06-.02.11-.04.14-.06-.05.02-.1.04-.14.06Z"/>
    <path class="cls-1" d="M49.84,70.28s-.04-.03-.06-.04c.03.04.05.06.06.04Z"/>
    <polygon class="cls-1" points="46.76 70.65 46.77 70.62 46.61 70.44 46.76 70.65"/>
    <path class="cls-1" d="M72.13,53.99s0,0,0,0c.06.03.04,0,0,0Z"/>
    <path class="cls-1" d="M58.98,44.54c.32.28-.14.57.28.86-.09-.14.04-.72-.28-.86Z"/>
    <path class="cls-1" d="M73.55,69.82s-.02-.05-.02-.07c0,.04,0,.06.02.07Z"/>
    <path class="cls-1" d="M59.26,45.4h0s.04.03.04.03c-.02-.01-.03-.02-.04-.03Z"/>
    <path class="cls-1" d="M70.37,50.33c-.06.04-.11.08-.15.12.04-.02.08-.05.15-.12Z"/>
    <path class="cls-1" d="M70.98,53.35l.03-.09s-.03.07-.03.09Z"/>
    <path class="cls-1" d="M69.09,49.15c0-.05.05-.1-.03-.12-.02.02-.03.03-.04.04.06-.01.1,0,.06.08Z"/>
    <path class="cls-1" d="M68.12,47.72s-.03.05-.05.08l.05.03v-.11Z"/>
    <path class="cls-1" d="M51.99,65.41c-.12,0-.26-.02-.38-.05.29.07.31.34.38.05Z"/>
    <path class="cls-1" d="M73.74,69.83c-.11.02-.16.01-.19,0,0,.02.02.03.03.05.06,0,.12-.02.15-.04Z"/>
    <path class="cls-1" d="M66.19,50.78l-.06-.21c0,.07.02.15.06.21Z"/>
    <path class="cls-1" d="M54.56,54.44l.03.07s0-.04-.03-.07Z"/>
    <path class="cls-1" d="M65.74,50.09c.1-.11.15-.2.17-.26-.03.01-.06.02-.1.04l-.07.22Z"/>
    <path class="cls-1" d="M51.6,65.37h0s0,0,0,0Z"/>
    <path class="cls-1" d="M51.9,67.4c.12-.24-.45-.33-.72-.5-.03-.34.43.02.74.03-.06-.24-.49-.56-.42-.69.09.02.13,0,.23.08-.34-.34.19-.58-.26-.97.05,0,.1,0,.14.01-.28-.05-.54-.14-.73-.21.03-.11-.27-.3.09-.23-.03.06.11.11.2.18l-.11-.16c.53.06.12.21.49.33-.09-.27-.42-.65-.23-.77.5.11.04.44.55.35l-.27.2c.83.04-.1.14.77.22.25-.31-.12-.47.12-.77-.25-.16-.41-.09-.66-.25-.36-.62,1.35-.04.78-.58-.3-.18-.92-.37-.52-.54l.54.23c.14-.32-.76-.39-.3-.64.21.11.12.31.2.27.5-.12-.28-.24-.24-.41l.51.08c0-.38-.27-.84-.28-1.25.14.05.29.15.46.09-.15-.55.27-1.03.66-1.44l-.4-.26s.21-.04.29.02c.2-.15-.27-.06-.43-.18-.01-.11.27-.09.39,0-.3-.39-.61-1.06-.08-1.29l.12.09c.23-.22-.83-.47-.37-.63l.07.06c.3-.51.05-1.21.79-1.47-.6-.23.41-.46-.44-.71.5-.19.63-.07,1.04-.4.07-.1-.48-.32-.53-.49l.44.13-.4-.33.56.07-.07-.16s-.23.04-.36,0c-.14-.27.47-.39.69-.31l-.2-.59c.17.08.2.17.29.28-.36-.41.47.13.15-.24-.11,0-.25-.11-.34-.15.31,0,.4-.25.37-.48l.28.16c.21-.28.16-.72.34-1.06-.19.05-.67-.22-.66-.36l.45.19c-.23-.21-.22.02-.47-.29.12-.11.54.18.64.32l-.06-.23c.13.06.18.14.34.23-.23-.21.57-.01.16-.36l.13.07c.2-.3.14-.55.29-.79-.34-.25-.2-.29-.42-.57.24-.1.66-.07.8-.29-.02-.28-.22-.28-.35-.51.29.25.45.04.55.33.17-.28.23-.33.33-.85-.14-.09-.22-.11-.29-.22.02-.1.24,0,.35.15v.04c.01-.36.4-.33.75-.26.35.07.64.13.6-.29v.04s.12-.55.12-.55c.18-.02.04.3.26.45.07-.74.58-.18.72-.68.31.48.48.41.67.29.18-.14.39-.28.59.04l-.06-.26c.04-.27.12.13.18.19-.03-.21-.11-.23-.09-.38.32-.2.69-.12,1.01.07.32.2.56.49.78.69.15.14.6-1.25.65-.55l-.28.42c.32-.18.55-.06.75.09.2.15.37.32.73.3-.1.07-.2.18-.23.14-.16.33.27.27.48.07.03.08-.17.2-.25.34-.08.21.52-.12.3.17-.04.05-.11.05-.14.06.18-.06.18.28.46-.04-.03.29.39.2.29.48.44-.17.02.42.59.09-.57.36-.26.61.09.58-.2.06-.12.21-.39.31.09.13.27.19.56,0-.57.64.87.24.02.87.55.27.96.62,1.29.99-.63.25-.27-.45-.91-.15.43.28,1.06.3,1.08.78-.04.14-.3.05-.42.05.42.31.26.84.75,1.09-.06.02-.14,0-.2-.02.05.07-.03.21.26.09l-.11-.04c.37-.28.99-.03,1.21-.1-.87.18-.06.46-1.18.65.07.03.23.04.42-.04-.03.09-.13.16-.38.17.26.21.53,0,.61.25-.14.05-.21.02-.39.06.32.02.64.05.6.3-.09.02-.19.08-.21.02.17.34.95.34.83.83-.65.1-.15.21-.67.42l.23.15.23-.18c.06.19.5.22.38.44l-.27-.06.22.31.13-.27c.34.09.66-.26.6.04-.07-.03.06.19-.22.39h0c.2.03.41.07.33.25-.16.09-.6.17-.7.24.47-.06.27.39.78.35-.12,0-.4.09-.46.12l.39-.05c-.09.13-.14.16-.36.22.02.28.64-.31.46.1-.04-.01-.09.02-.16-.02-.05.36.43.52.35.87-.51.26-.21-.21-.63.04.23.38.92.64.92,1.08l.04-.09c.78-.19-.28.42.14.5-.07-.03-.44.07-.35.05-.04.31.36.5.73.84h-.21c-.12.22.03.46,0,.67.21,0,.21.1.48-.04-.95.87.9.86.11,1.61-.02-.06-.21-.09-.2-.04l.3.36c.32-.13.19-.11.42-.27.21,0,.4.07.43.17-.27-.12-.54.15-.7.28.1-.04.22-.05.32-.08-.53.38.68-.15.36.25l-.18.03c.12.08.38.12.36.25-.37.15-.21-.07-.53.01.07.16.82.13.48.38-.13-.04-.16-.14-.28-.18-.41.29-.29.27-.33.42h0s-.13.32-.13.32l.1-.1c1.07-.06.3.37,1.03.48-.7-.11-.37.05-.82.14-.1.1-.21.25-.34.25.39.04-.22.29.34.35-.14.04.02.14-.34.21.16.14.24-.1.42-.13.55.14-.43.77.33.99.35.26.85.21,1.16.46-.2.16-.54.04-.54.04-.17.22-.1.33.1.45-.13,0-.23.05-.38.14.07.12.54-.03.37.18-.17,0-.43.03-.6,0,.17.12.47.21.63.33-.24.1-.4,0-.57-.03.15.15.33.4.73.37l.12-.14c.03.06-.33.11-.41.08-.34-.08.09-.25.23-.29l.12.09c.81-.3-.24-.41-.24-.65l.63-.05-.56-.11c.15-.09.48-.2.6-.11.26-.23-.25-.09.05-.31.05-.03.08-.03.11-.02l-.22-.11c.13,0,.42-.13.36-.01.28-.37-.56-.34-.13-.56h.04c-.3-.33-.45.08-1.05-.08l1.05-.47-.45.07s.02-.13.2-.16c-.34-.07-.19.07-.5.06.36-.29-.32-.48.37-.71-.36.02-.21.25-.5.1.75-.25-.19-.2.11-.47.41-.05.24.17.55-.09-.69.07.05-.38-.11-.5-.53.13-.31-.27-.55-.47.18-.03.16-.55.29-.83l.09-.02c-.54.1-.51-.16-.67-.31.32-.08.45-.09.62-.03l-.05-.16c-.18,0-.28-.02-.37-.11l.41-.07c-.08-.21-.59-.3-.41-.66-.37.09-.96.52-1.29.3.2-.07.53-.18.64-.13-.03-.02-.19-.04-.12-.12l.37.02c.11-.17-.3.02-.3-.09.28-.08.18-.13.41-.19.04.02-.09.12.03.13.02-.13.15-.32.35-.43-.16.06-.38.11-.44.04-.09-.21.32-.18.43-.35-.21,0-.05-.19-.48-.07-.02-.06.18-.14.29-.19-.22-.06-.21-.51-.62-.24l-.02.04s-.01,0-.02-.01h0s0,0,0,0c-.53-.24,0-.83-.29-1.14l.14-.04c-.23-.17-.25-.45-.6-.51-.02-.06.21-.23.39-.26-.16-.13-.32-.1-.17-.41.3.09.2-.13.23.11.05-.25.26-.38-.2-.48.39-.04.4-.31.26-.38l-.21.24c-.09-.1-.09-.21-.1-.32l.49-.1c.43-.64-1.24-.46-.4-1.12-.37,0-.15.32-.57.35,0-.22.6-.67.58-.73.17-.37-.78-.02-.7-.37-.15.1-.59.29-.82.13,0-.22.62-.49.8-.42.03.04-.01.09-.07.1.08.04.19.1.34-.04l-.18.03c.14-.16.02-.43.32-.46-.21-.1-.3.03-.35.18.15-.34-.13-.41-.07-.73-.08.08-.26.18-.27.14.07-.46-.38-.06-.55-.29.2-.24.63-.17.32-.35.11-.22.43-.2.59-.18-.41-.12.05-.53.05-.69l.18.08c-.11-.05-.13-.11-.15-.17l-.31.2c.03-.1,0-.16.15-.21-.25,0-.53.26-.89.22.13-.16-.29-.23.14-.43-.03.37.43-.2.6.04-.07-.03-.09-.09-.06-.19.05-.03.1-.02.13-.01.28-.45-.55.05-.66-.26.26-.06.44-.25.37-.28.04.13-.39.22-.63.18.12-.27-.23-.16-.24-.27l-.05.15c-.26.05-.27-.06-.4-.16.19-.09.18.07.25,0-.5.02.32-.52-.06-.62.13-.17.46-.19.54-.32-.42-.12.24-.4-.13-.55-.3.21-.22.19-.61.14l.4.33-.59-.08c.05.13.31.18.29.28-.32-.02-.23-.04-.49.13.43-.37-.42-.22-.17-.55l.82-.33c.24-.46-.64-.36-.61-.84l-.08.19c-.35.09-.15-.22-.34-.29.27-.11.34-.24.48-.37-.19.1-.12-.3-.67-.07l.26-.35c-.02-.39-.93.03-1-.31.33-.07.44-.3.75-.21-.05-.1-.05-.22-.23-.12.13-.15-.5-.08-.31-.31-.14.02-.41.17-.45.05.04-.04.13-.08.13-.08-.13.07-.27-.06-.5.2.6-.79-.57-.75-.12-1.46-.23-.15-.5-.32-.67-.47.08-.05.11-.1.12-.04-.01-.43-.75.43-.77-.03.21-.47.32-.05.36-.26.65-.74-.41-.22-.23-.8h.09c.06-.4-.61-.03-.82-.27,0,0,.06-.06.09-.12-.47.27-.88.21-1.2.2.26-.3.22-.12.35-.48-.15-.01-.26.56-.54.55.02-.22-.07-.47.07-.86l.25.1c.11-.55-.32-.14-.42-.27l.11-.21c-.44-.07-.62.45-1.01.31v.18c-.37.51-.11-.36-.43,0l.05-.6c-.19.09-.63.49-.89.56.18-.42.53-.6.79-.83-.16-.03-.56-.03-.66.25.07-.05.16-.18.21-.09-.25.43-.49.64-.77.63.04-.57-.16-.65-.4-.69-.24-.02-.5,0-.67-.44-.5.48-1.14,0-1.78.27.49.79-.18.08.16.94-.11.1-.16.11-.2.06-.19-.12-.39-.24-.6-.36-.2-.21.06-.24-.03-.42-.34.06-.28-.31-.59-.44.17.28.08.48-.14.45l.42.27c-.2.64-.7-.53-.9.13v-.33c-.13.27-.81.44-.59,1.2-.09-.07-.28-.24-.23-.36-.56.23-.54,1.35-1.14,1.28l-.12-.2c-.04.12.15.43-.1.35-.06-.07-.12-.19-.16-.17.01.1.06.47-.12.47l-.09-.26c-.6.19-.15,1.03-.29,1.45-.5-.43-.95-.23-1.17-.11l-.07-.06c-.47.5-.17,1.21-.21,1.81-.8-.05-.83.89-1.4,1.23.14-.03.46.22.49.34-.18.07.28.5-.27.25l.03-.04c-.58-.14-.54.18-.63.36l.73.31c-1.28.11-.05,1.43-1.11,1.39.15.18.11.33.26.5l-.41-.12c-.2.31-.29.47-.31.91l-.27-.16c-.09.23,1.11.59,1.09.81l-.63-.08c-.09.41-.72.7-.25,1.22-.09-.03-.27-.08-.28-.15-.06.19-.58.65.29.75-.56-.11-.14.4.06.66l-.4-.11c.49.29.63.32.73.6-.07.05-.34-.01-.22-.07-.25.16.36.23.09.43l-.24-.14c-.07.2.07.21.36.38.14.16-.18.37-.56.32.22.07.5.24.37.34-.14-.01-.22-.07-.26-.1-.35.28.38.6-.07.75-.14-.02-.21-.02-.25-.01.06-.26.13-.47.16-.45-.38-.08-.49.13-.97-.15.25.23.81.65.59.82-.04,0-.08,0-.14,0l-.04-.03s-.02.09.03.14c-.08.05-.13.08-.15.15-.32-.04-.22.2-.26.3.41.08.32.21.68.15-.03.01-.04-.03-.05-.11,0-.02-.01-.04-.03-.05l.03.02c0-.07.01-.16.03-.27.19.13.35.26.09.32.25.11.51.23.63.3-.61.02-.98.22-1.34.17.16.37-.03.77.68,1.18.07.12-.25.04-.38.05-.06-.07-.03-.13-.14-.19.15.23-.07.55.45.74-.3.16-.45-.27-.46.07l-.15-.09c-1.02.31,1.04,1.43-.28,1.71.08-.02.12-.03.21,0-.74.54-.21,1.73-1.29,2.02-.25.1.05.3.21.55l-.41-.2.32.47c.12.5-1.22-.16-.87.57l.27.14c-.13.08-.15.49-.4.24.03.05.21.24.05.18l-.18-.15.07.54c-.31.09-.66-.66-.96-.43-.03.16.2.78.34.86.05-.03.21,0,.38.16l-.02.19c.47.52.85,1.15,1.49,1.2l-.1-.51.31.17-.16.19c.33.12.19-.14.12-.34.15.11.27.16.36.16l-.31-.66c.23.15.32.46.56.41-.15-.3-.55-.31-.56-.6.33.1.5.3.4,0,.15.1.22.19.24.3-.07-.25.17-.36-.08-.65.4.12.21-.44.73-.04-.1-.13-.28-.51-.23-.63.52.64.31-.38.99.13-.51-.53.08-.72-.13-1.19.04.04.13.13.08.13.13-.13.35-.07.52-.11-.51-.29-.5-.59-.77-.88.6.06.56.42,1.08.6-.43-.2-.27-.55-.66-.65.39,0,.21-.05.69.08-.66-.33-.04-.19-.41-.5.42-.07.66.22.55-.11.26-.03.4.29.4.29ZM52.37,61.38h0c0,.05,0,.09,0,.12,0-.03,0-.06,0-.12ZM52.46,60.91c-.03.05-.05.12-.06.2-.15-.01-.29-.06-.27-.11.09.04.19-.05.33-.09ZM49.4,61.27c-.04-.08.04-.09.13-.08,0,.03,0,.08.02.13l.05.02c-.08-.02-.15-.05-.2-.07Z"/>
    <path class="cls-1" d="M49.91,61.51s.02.02.02.04c.04,0,.07-.02.1-.02l-.12-.05v.04Z"/>
    <path class="cls-1" d="M73.42,62.2h0s-.03.01-.05.03c.02-.01.03-.02.05-.03Z"/>
    <polygon class="cls-1" points="54.61 54.96 54.51 54.93 54.59 55 54.61 54.96"/>
    <path class="cls-1" d="M72.75,65.07s-.07.03-.1.06c.03,0,.06-.03.1-.06Z"/>
    <path class="cls-1" d="M72.95,66.15l-.1.19c.07-.09.09-.15.1-.19Z"/>
    <path class="cls-1" d="M72.96,67.02c.07,0,.13-.02.18-.03h0s-.18.03-.18.03Z"/>
    <path class="cls-1" d="M68.36,54.41s-.02-.02-.03-.02c-.1-.04-.05,0,.03.02Z"/>
    <path class="cls-1" d="M70.66,57.84c-.09-.02-.17-.03-.23-.06,0,.08,0,.13.23.06Z"/>
    <polygon class="cls-1" points="66.19 50.8 66.2 50.8 66.19 50.78 66.19 50.8"/>
    <path class="cls-1" d="M70.38,57.6c-.06.1-.02.15.06.18,0-.06.02-.14-.06-.18Z"/>
    <path class="cls-1" d="M73.64,70.62v.04s.04,0,.06-.01l-.06-.03Z"/>
    <path class="cls-1" d="M73.69,70.65l.06.03s-.01-.04-.06-.03Z"/>
    <path class="cls-1" d="M73.88,70.76l-.12-.07s0,.07.12.07Z"/>
    <path class="cls-1" d="M73.58,69.49l-.15.02s.08,0,.15-.02Z"/>
    <path class="cls-1" d="M73.46,69.17c-.01.09-.27.27-.15.36l.12-.02c-.23,0,.3-.33.03-.34Z"/>
    <path class="cls-1" d="M74.95,67.33l-.05.31c.15-.09.34-.21.41-.09.38-.47-.33.16-.36-.22Z"/>
    <path class="cls-1" d="M74.96,66.4c.11.13.23-.06.32-.08-.17-.06-.21-.07-.32.08Z"/>
    <path class="cls-1" d="M73.13,60.16l.37-.1c-.09-.1-.14.04-.37.1Z"/>
    <polygon class="cls-1" points="70.86 59.61 70.67 59.79 71.02 59.74 70.86 59.61"/>
    <polygon class="cls-1" points="73.22 58.05 73.29 58.08 73.09 57.93 73.22 58.05"/>
    <path class="cls-1" d="M68.62,47.75l-.36.31c.12.02.56-.27.36-.31Z"/>
    <path class="cls-1" d="M63.95,44.9c0-.24-.12-.43-.27-.23.12.06.19.27.27.23Z"/>
    <polygon class="cls-1" points="51.41 52.59 51.3 52.44 51.36 52.66 51.41 52.59"/>
  </g>
</svg>