<?xml version="1.0" encoding="UTF-8"?>
<svg id="Layer_1" data-name="Layer 1" xmlns="http://www.w3.org/2000/svg" viewBox="0 0 84.28 84.58">
  <defs>
    <style>
      .cls-1 {
        fill: #f37e7d;
        stroke-width: 0px;
      }
    </style>
  </defs>
  <g>
    <path class="cls-1" d="M13.68,19.29c.08.1.24.04.21-.29-.09-.08-.19-.17-.28-.26l.07.55Z"/>
    <path class="cls-1" d="M14.67,17.28c.06-.37.14-.88-.22-.83,0,.49-.16.5-.04,1.02-.12.29-.27.49-.37.41.02.12-.19.5-.04.7.27-.4.42-.83.52-1.41.12-.07.12.06.15.11Z"/>
    <path class="cls-1" d="M42.28,8.14h-.19c.05.01.12.01.19,0Z"/>
    <path class="cls-1" d="M56.57,14.03c-.07-.12-.12-.16-.15-.15.08.11.14.19.15.15Z"/>
    <path class="cls-1" d="M57.7,16.93c-.02-.06-.04-.12-.06-.17,0,.07.02.14.06.17Z"/>
    <path class="cls-1" d="M42.28,8.14h.5c.01-.11-.26-.03-.5,0Z"/>
    <path class="cls-1" d="M17.43,14.06c-.09.06-.16.12-.21.19l.22-.15s0-.03,0-.05Z"/>
    <path class="cls-1" d="M34.51,10.21l-.14.04s-.06.09-.09.14l.23-.18Z"/>
    <path class="cls-1" d="M28.57,11.86c.14-.03.12-.27.14-.39-.05.12-.14.19-.25.24.01.04.04.09.11.15Z"/>
    <path class="cls-1" d="M19.12,14.36l-.15.1s.1-.07.15-.1Z"/>
    <path class="cls-1" d="M38.81,9.21s.05.06.07.07c0-.03-.03-.05-.07-.07Z"/>
    <path class="cls-1" d="M15.59,27.71s.03,0,.04-.01c-.03-.03-.05-.04-.04.01Z"/>
    <path class="cls-1" d="M14.94,20.48l.04.09s.09,0,.14-.01l-.17-.08Z"/>
    <path class="cls-1" d="M59.84,22.19s0-.01,0-.02c-.09-.12-.05-.05,0,.02Z"/>
    <path class="cls-1" d="M68.87,70.5c.57,0-.7.56.13.5-.08-.06.49-.62-.13-.5Z"/>
    <path class="cls-1" d="M17.6,14.01c.08-.04.16-.09.24-.12-.11.04-.19.08-.24.12Z"/>
    <path class="cls-1" d="M69,71h0s.09,0,.09,0c-.04,0-.06,0-.09,0Z"/>
    <path class="cls-1" d="M64.68,34.3s.05-.1.06-.16c-.02.01-.04.05-.06.16Z"/>
    <path class="cls-1" d="M61.6,25.06l.06.23c-.02-.1-.04-.17-.06-.23Z"/>
    <path class="cls-1" d="M66.5,39.03c.02.13,0,.18.08.35,0-.02.01-.04.01-.06-.05-.05-.09-.13-.09-.29Z"/>
    <path class="cls-1" d="M67.87,44.12s.02-.07.02-.11c-.02-.05-.04-.11-.05-.16l.03.26Z"/>
    <path class="cls-1" d="M19.77,43.26c.04-.13.09-.22.15-.29-.14.12-.4-.62-.15.29Z"/>
    <path class="cls-1" d="M17.5,14.18c0-.07.03-.12.1-.17-.06.03-.11.06-.16.1,0,.04.01.07.06.07Z"/>
    <path class="cls-1" d="M68.38,38.72l.2.83c-.04-.23-.11-.54-.2-.83Z"/>
    <path class="cls-1" d="M33.95,78.12h-.22c.08.01.16.02.22,0Z"/>
    <path class="cls-1" d="M69.27,41.96c-.04.17-.05.34-.04.5.03.03.05.06.08.08l-.04-.58Z"/>
    <path class="cls-1" d="M19.92,42.97h0s0,0,0,0Z"/>
    <path class="cls-1" d="M17.97,37.75c.2.78.39.29.61.41.33.9-.11.49-.19.84.23.56.63.93.73,1.36-.04.05-.04.13-.13.05.4.55.49,1.81.98,2.44-.01.06-.03.09-.05.11.12-.16.27-.21.39-.22.1.35.36.6.2.78-.05-.21-.14-.21-.22-.29l.18.34c-.2.4-.23-.47-.44-.42.28.69.73,1.45.79,2.02-.25.19-.43-1.25-.49-.46l-.11-.87c-.28.76-.1-.52-.42.2.21,1.13.47,1.2.67,2.33.22.21.21-.14.43.07.69,1.5-.38,1.42.29,2.48.27.25.65.27.68,1.15l-.39-.2c.25,1.08.62.49.7,1.67-.18-.17-.33-.82-.32-.64-.06.79.31.47.46,1.03l-.25.19c.34,1.13.87,2.34,1.26,3.59-.1-.05-.25-.24-.26.08.56,1.56.86,3.42,1.09,5l.4.53c.03.14-.04.28-.13.15.06.62.16,0,.33.25.11.34-.02.49-.15.29.48,1.01,1.23,2.9,1.26,4.09l-.13-.2c.13.89.75.85.74,1.72l-.08-.14c.37,1.91,1.17,3.97,1.5,5.54.22.06.4.54.63.98.22.45.5.85.74.76.25.56.33.78.47,1.04.14.26.31.59,1.01,1.21.4.31.78.16,1.33.35l-.1.25c.29.04.57.05.85.04.1.14.21.28.33.42.19.02.38.04.57.05-.22-.05-.44-.21-.39-.28.85.1,2.02.39,2.05.52.66-.08,1.29-.22,1.89-.38-.03.11-.33.19-.58.28.97-.39.22.26,1.1-.12-.13-.04.04-.17.05-.22.47.09,1.45-.08,2.17-.27l-.11.2c1.32-.18,2.75-.56,4.22-.81-.54,0-.47-.32-.05-.43l.22.25c.25-.22-.47-.03.07-.33.56-.06.42.25.12.39l.65-.21c.05.08-.1.15-.12.26.25-.22,1.2.08,1.55-.29l.05.08c1.47-.25,2.12-.46,3.32-.68-.02-.24.46-.27.79-.52.89-.07,1.9-.06,2.96-.26.73-.25.18-.24.49-.44.09.21,1.15,0,.63.25,1.27-.25,1.62-.32,3.2-.77-.19-.06-.39-.06-.3-.15.29-.09.68-.02.66.09l-.07.04c1.75-.63,4.28-.08,5.65-.78l-.08.04,1.45-.49c.69-.08-.38.23.15.28,1.53-.66,2.57-.3,3.98-1.06.34.04.78-.06,1.25-.33.47-.26.94-.71,1.3-1.23.73-1.07.91-2.28,1.21-3.04l-.16.07c-.09-.42.14-.48.2-.78-.12.03-.17.43-.23.17.03-1.71-.16-3.29-.2-4.9-.04-1.62-.15-3.24-.27-4.83-.13-1.16-.88-.54-.74-2.04l.34.37c-.68-2.27-.77-4.75-1.52-6.94.09.12.17.11.22.33.1-.52-.34-1.76-.52-1.73-.06-.35.13-.11.16-.35,0-.5-.53-1.13-.39-1.43.02-.05.1.12.13.2-.17-.29-.31-1.45-.47-1.1-.08-.87-.5-1.57-.53-2.28-.37-.37-.24-1.46-.64-1.5.39-.04-.11-1.54-.43-2.01.16.14-.01-.49.2-.33-.18-.6-.4-1.13-.56-.97.1-1.23-1.04-2.09-.66-2.88-.78-1.69-1.44-3.27-2.11-4.79.38-.08.67,1.71,1.02,1.51-.68-1.44-1.31-2.17-1.77-3.67-.1-.39.24.15.35.26-.73-1.4-1.07-2.86-1.82-4.06.03-.01.13.11.21.23-.12-.25-.2-.61-.35-.52l.15.23c-.06.5-.92-.8-1.06-.79.64.23-.42-1.32.45-.89-.1-.15-.27-.33-.36-.24-.07-.26-.05-.37.18-.17-.49-.87-.52-.47-.89-1.28.08-.03.18.12.31.16-.34-.34-.68-.69-.93-1.41.07.02.09-.09.18.12-.55-1.18-1.36-1.8-1.83-3.16.51.21-.1-.49.15-.7l-.44-.64v.34c-.3-.6-.78-1.02-.95-1.58l.35.38-.63-1.09.22.69c-.46-.52-.32.25-.66-.58.11.14-.3-.59-.32-.99h0c-.25-.24-.51-.48-.7-.95.02-.16.36-.09.37-.2-.39-.15-.94-1.32-1.44-1.47.14.07.28-.03.28-.08l-.35-.09c-.14-.29-.16-.35-.02-.4-.62-.75-.09.49-.74-.46.08.05.07,0,.22.11-.74-.91-1.78-1.39-2.73-1.88-.18-.44.91.32.69-.07-.75-.35-1.61-.5-2.43-.5-.82,0-1.59.09-2.32.14h.28c-.15.47-1.11-.09-1.8.26.17-.07.19-.29.15-.23-.99.11-1.94.5-3.36.95l.15-.15c-.58.02-1.49.26-2.11.34-.15.15-.51.21-.26.33-2.02-.23-3.47,1.17-5.25,1.04.2-.05.45-.22.29-.18l-1.38.46c.16.16.21.07.55.14-.15.16-.52.34-.87.44.6-.29-.08-.31-.38-.34.06.05-.02.14.02.19-.82-.15-.02.42-1.08.45l.03-.11c-.36.15-.67.38-1.08.45-.23-.18.37-.21.35-.4-.56.16-1,.72-1.57.64.22-.13.57-.22.79-.35-.63-.11-.67-.02-1.1.05h.04s-.99.14-.99.14h.26c-.54.77-1.41.51-2.24,1.16.82-.62.09-.25.09-.52-.26,0-.65.03-.57-.07-.39.33-.79.06-1.34.55-.05-.07-.48.14-.44-.1-.56.24.18.1.16.21-.81.54-2.2.31-3.37,1.09-1.05.51-1.18.83-2.14,1.33-.39,0,.17-.39.17-.39-.6.09-1.01.29-1.48.61.07-.11-.06-.12-.26-.13-.4.23-.13.4-.71.59.04-.13.08-.33.24-.52-.44.34-.83.74-1.23,1.15-.21-.02.14-.38.26-.57-.52.4-1.24,1.18-1.19,1.49.11-.09.23-.16.34-.24-.15.17-.23-.05-.13-.21.29-.52.66-.46.73-.41-.1.09-.18.2-.27.29.59.1,1.21-1,1.96-1.33l-.13.46c.19-.2.38-.42.58-.62.2.01.38.15.06.35.57-.07.39-.32.91-.32.06,0,.04.03,0,.06l.46-.29c-.07.11.17.2-.15.27.96-.14,1.39-.75,1.82-.61l-.07.05c1.25-.53.04-.29.91-.89l.84.41.05-.29c.14-.03.4-.1.39.02.44-.32-.12-.08.12-.33.71.03,1.73-.65,2-.29.17-.26-.66.04-.01-.3.32.37.77-.31,1.41-.28-.12.27-.7.32-.06.35.24-.48,1.16-.25,1.64-.46-.06-.3,1.04-.43,1.85-.76-.03.11,1.61-.26,2.42-.36v.06c.06-.34.88-.49,1.45-.71.02.19-.06.29-.36.45l.55-.14c.1-.13.26-.22.61-.35l-.08.26c.73-.2,1.41-.64,2.39-.71,0-.23-.9-.41.07-.8.06.11.15.29-.1.4.08-.04.28-.17.47-.16l-.35.29c.45-.02.19-.22.54-.28.03.17.28.06.26.2-.08.04-.32,0-.43.1.4-.06.89-.08,1.07.01-.06-.09-.05-.22.23-.31.73-.18.3.14.75.13.15-.16.65-.14.6-.39.22-.05.28.06.38.11.36-.19,1.77-.43,1.29-.59h-.1s.04-.01.06-.02h0s0,0,0,0c1.2-.52,2.64-.42,3.86-.77v.08c.74-.24,1.64-.34,2.16-.55.22-.02.53.13.43.23.55-.07.63-.18,1.4.05-.56.09.17.14-.57.05.7.14.8.28,1.57.27-.29.12.38.42.68.52-.12-.11-.23-.23-.36-.34.35.11.63.28.9.47l-.3.16c.48.49,1.02.76,1.53,1.12.5.35.94.76,1.02,1.38.39.2-.35-.73.03-.58.39.58.42,1.4.53,1.58.34.88.81.55,1.2,1.48.03-.16.21-.4.65.23.29.65.03.97-.25.61-.09-.15-.1-.23-.06-.24-.14-.19-.31-.43-.28-.13l.13.03c.07.36.53,1.22.28,1.09.33.43.25.13.12-.25.28.87.66,1.25.98,2.14-.01-.16.03-.33.1-.2.49,1.29.44.46.88,1.27.09.54-.42,0,.11.78.16.56-.19.22-.36.06.56.68.56,1.49.73,1.94l-.26-.37c.16.22.24.42.34.63l.08-.32c.08.25.17.46.09.49.23.19.22-.33.61.09.05.36.55.93.35,1.15-.37-1.04-.2.22-.62-.61.1.15.19.35.27.6-.01.05-.07-.01-.11-.07.21,1.06.47.32.9,1.33-.19-.07-.17.35-.07.5-.17-.41.15-.29.42.03.17.69.38.67.51,1.01l-.11-.41c.19.07.32.4.55.84-.09.08-.25-.38-.23-.2.45.4.2,1.25.65,1.88.03.36-.25.14-.2.45.49.72.15.92.61,1.7.1-.31.04-.34.44.18-.21-.44-.42-.89-.65-1.32.21.26.42.51.61.77-.15-.42-.46-.83-.52-1.09.32.36.26.33.34.07-.06.67.59,1.06.64,1.79l-.48.16c.15,1.07.9,1.66,1.21,3l-.06-.44c.25.11.3.79.52,1.18-.17.01-.14.3-.18.51.11-.06.31.95.67.97l-.03.65c.24,1.08.83,1.06,1.09,2.09-.27-.25-.24.24-.58-.4.1.34.17.65.28.62-.04.23.49.88.42,1.24.11.12.3.12.39.51-.02.05-.08.02-.08.02.08-.02.28.57.36.18-.19,1.19.82,2.95.63,3.98.26.73.5,1.64.67,2.32-.06-.03-.08.02-.1-.12.06.98.61.47.68,1.59-.15.61-.27-.54-.3-.18-.5.26.34,1.29.18,2.08l-.07-.17c-.08.59.49,1.31.61,2.23,0,0-.06-.04-.08.01.39.57.69,1.74.92,2.61-.26-.24-.18-.38-.37-.18.1.39.34-.18.52.61-.08.28-.1.86-.32.97l-.12-.74c-.24.43.15.96.16,1.36l-.14-.03c.21,1.13.56,1.1.69,2.34l.08-.14c.41.63-.12.59.21,1.23l-.31.24c.14.43.52,1.52.65,2.31-.29-.43-.51-1.35-.74-1.91.06.44.2,1.49.38,1.7-.05-.17-.15-.39-.12-.57.32.51.52,1.21.6,2.1-.66-.1.06,2.32-.51,2.9.19,1.47-.47,2.81-1.53,3.54.71.13-.33.25-.02.64-.32.21-.48.25-.52.23-.41.05-.81.05-1.23.04-.31-.09.34-.2.27-.3-.84.15-.39-.13-.98-.16.15.16-.25.32-.79.34l.77.11c-1.22.49-1.18-.24-2.42.25l.38-.23c-.65.21-2.45.42-3.03.94-.13-.04-.31-.15-.02-.24-1.6.21-3.46,1.04-4.74,1l.1-.15c-.29.09-.48.32-.87.26.01-.06.1-.15-.04-.13-.15.07-.75.36-1.15.35l.31-.2c-1.58.1-2.32.75-3.6,1.06-.06-.37-1.3-.28-1.92-.24v-.06c-1.8.26-3,.83-4.64,1.26-1.11-.23-3.54.43-5.24.49.27.02,0,.3-.28.38-.4,0-1.04.44-1.03.09l.14-.02c-.35-.28-1.14-.05-1.74.03l-.04.46c-.85-.21-1.84-.05-2.72-.07-.88,0-1.64-.25-1.84-.68-.17-.03-.34-.11-.52-.18-.16-.09-.34-.18-.51-.24l.17-.17c-.64-.67-.92-1.05-1.59-2.08l.28.13c-.32-.59-1.04-.46-1.33-1.09l.26-.33c-.49-1.19-.54-2.55-1.19-3.75.06,0,.17.02.24.23-.15-.62-.39-2.45-.81-2.1.31-.1-.32-1.36-.64-2.03l.26.05c-.45-.52-.54-.52-.84-1.33-.02-.21.14-.22.15.06-.05-.69-.35-.46-.44-1.29l.22.26c-.16-.68-.22-.61-.49-.94-.2-.4-.28-1.3-.09-1.45-.15-.06-.42-.38-.46-.8.06-.07.15.06.19.13-.14-1.17-.71-1.61-.68-2.45.07-.04.1-.1.1-.17.23.9.41,1.63.37,1.57.21-.06.06-.79.5-.29-.31-.54-.92-1.45-1.01-2.18.01-.04.02-.08.05-.11l.04.07c-.02-.17-.08-.31-.15-.44-.02-.24-.04-.39-.09-.6.15-.13-.12-.86-.21-1.22-.22.09-.31-.39-.39.1,0-.06.05.06.12.3.02.05.04.12.06.15l-.03-.02c.07.24.15.55.25.9-.19-.26-.37-.53-.35-.96-.2-.15-.41-.31-.51-.41.2-.58.12-1.58.29-1.77-.42-1.07-.77-2.59-1.39-3.17-.14-.3.03-.39.07-.53.09.17.14.39.23.47-.28-.6-.53-1.85-.87-1.92-.07-.83.4.37.06-.7l.13.12c-.07-2.27-1.69-3.28-1.68-5.82,0,.17,0,.26-.03.31-.43-2.78-1.72-5.52-1.98-8.3-.11-.78-.33-.81-.6-1.24l.21-.23-.5-.72c-.5-1.07.1-2.11-.67-3.43l-.12.23c-.1-.52-.52-1.59-.31-1.56-.04-.04-.22-.12-.18-.34l.13-.05-.55-1.2c-.16-1,.56.02.21-1.41-.19-.52-.77-1.4-.81-1.18.05.21.06.57-.07.62l-.19-.47c-.41.01-.9-.26-.86,1l.45.76-.12.32-.19-.69c-.07.44.15.65.33.9-.08.09-.12.23-.12.4l.58.72c-.13.14-.39-.29-.34.28.27.34.24-.45.52.15-.07.44-.24.36.03.79-.08.09-.17,0-.26-.16.23.38.34,1.08.6,1.24-.11.47.42,1.38.04,1.43.12.11.48.65.59,1.03-.62-.58.34,1.43-.17,1.37.53.41.66,1.81,1.11,2.66-.04-.04-.13-.13-.13-.21.1.52.02.7.03,1.05.34-.02.62.76.94,1.14-.15.71-.48-.28-.73,0,.25-.1.55,1.02.71.75-.07.53.01.44-.19.75.43-.02.19.43.54.76-.02.75-.33.28-.01,1.01-.03.4-.35-.25-.35-.25ZM23.4,55.69h0c-.05-.15-.09-.29-.11-.37.02.08.06.18.12.37ZM23.8,57.21c-.04-.19-.1-.42-.16-.66.07-.07.16-.04.2.12-.08-.07-.03.3-.04.55ZM24.57,53.57c.1.23.07.33.03.37-.04-.11-.08-.24-.14-.41-.01,0-.02-.01-.04-.02.05.01.1.03.14.06Z"/>
    <path class="cls-1" d="M24.15,53.22s-.03-.05-.04-.09c0,.05-.01.11-.01.16l.1.07s-.03-.09-.04-.13Z"/>
    <path class="cls-1" d="M42.05,8.15h.03s-.06,0-.08-.02c.02,0,.03.01.04.02Z"/>
    <polygon class="cls-1" points="31.96 77.66 31.98 77.61 31.81 77.59 31.96 77.66"/>
    <path class="cls-1" d="M33.43,9.36s-.06-.03-.13-.03c0,.01.06.02.13.03Z"/>
    <path class="cls-1" d="M29.79,10.28l-.53.06c.23-.02.4-.04.53-.06Z"/>
    <path class="cls-1" d="M26.98,10.95c-.02.05-.02.08-.03.11h0s.02-.11.02-.11Z"/>
    <path class="cls-1" d="M63.01,24.26s.03.07.05.1c.15.22.06.07-.05-.1Z"/>
    <path class="cls-1" d="M56.6,12.15c.11.11.22.21.31.33-.1-.22-.19-.39-.31-.33Z"/>
    <polygon class="cls-1" points="68.36 38.62 68.36 38.62 68.38 38.72 68.36 38.62"/>
    <path class="cls-1" d="M57.21,13.05c-.07-.24-.17-.41-.29-.57.08.18.17.4.29.57Z"/>
    <path class="cls-1" d="M15.13,15.59l-.12.1s.02.03.01.04l.1-.14Z"/>
    <path class="cls-1" d="M15.03,15.74l-.1.14c.06-.06.1-.11.1-.14Z"/>
    <path class="cls-1" d="M14.73,16.19c.06-.11.13-.21.2-.31-.09.08-.2.2-.2.31Z"/>
    <path class="cls-1" d="M18.66,13.6v-.1s-.01.06,0,.1Z"/>
    <path class="cls-1" d="M19.77,13.16c-.28.07-.74.06-1.1.26v.08c.12-.2.89-.12,1.1-.34Z"/>
    <path class="cls-1" d="M24.71,12.72l-.95.22c.19.04.44.09.02.24,1.25-.09-.3-.12.92-.46Z"/>
    <path class="cls-1" d="M27.63,12c-.49.19.04.13.03.19.29-.17.36-.22-.03-.19Z"/>
    <path class="cls-1" d="M48.67,7.2l-.05.22c.37-.04,0-.08.05-.22Z"/>
    <path class="cls-1" d="M52.92,7.3c-.09-.12-.18-.24-.29-.35l-.28.07c.19.08.38.17.56.28Z"/>
    <polygon class="cls-1" points="53.63 10.07 53.5 9.97 53.95 10.4 53.63 10.07"/>
    <path class="cls-1" d="M67.43,43.27l.23-.18c-.11-.25-.42-.23-.23.18Z"/>
    <path class="cls-1" d="M70.66,58.6c-.11.19-.14.64.02.89-.02-.35.04-.71-.02-.89Z"/>
    <polygon class="cls-1" points="36.4 76.1 36.69 75.97 36.14 76.11 36.4 76.1"/>
  </g>
  <g>
    <path class="cls-1" d="M54.66,12.9c.01-.08-.02-.24-.07-.2v.29s.07-.09.07-.09Z"/>
    <path class="cls-1" d="M54.2,12.44c-.05.15-.1.4-.02.65.03-.28.06-.17.1-.5.05-.04.11.08.12.18.01-.07.1.05.11-.13-.1-.21-.2-.2-.28,0-.03-.06-.02-.13-.02-.19Z"/>
    <path class="cls-1" d="M48.41,12.89l.04.03s-.03-.02-.04-.03Z"/>
    <path class="cls-1" d="M44.85,13.42s.03-.04.03-.07c-.02.02-.04.04-.03.07Z"/>
    <path class="cls-1" d="M44.18,13.24s.03,0,.04.01c-.02-.02-.04-.03-.04-.01Z"/>
    <path class="cls-1" d="M48.41,12.89l-.11-.07c0,.09.06.06.11.07Z"/>
    <path class="cls-1" d="M53.51,13.22s.03-.04.04-.08c-.01.01-.03.03-.04.04v.04Z"/>
    <path class="cls-1" d="M49.93,12.39h.03s0-.08,0-.12l-.03.12Z"/>
    <path class="cls-1" d="M51.13,12.15s0,.23,0,.34c0-.1.01-.15.03-.17,0-.05-.02-.1-.04-.17Z"/>
    <path class="cls-1" d="M53.11,12.29l.03-.04s-.02.02-.03.04Z"/>
    <path class="cls-1" d="M49.06,12.49s-.02-.06-.03-.08c0,.03.01.06.03.08Z"/>
    <path class="cls-1" d="M16.3,21.76s0-.03,0-.04c0,.03,0,.04,0,.04Z"/>
    <polygon class="cls-1" points="14.7 20.85 14.71 20.83 14.69 20.7 14.7 20.85"/>
    <path class="cls-1" d="M43.02,13.18h0s0-.02,0,0Z"/>
    <path class="cls-1" d="M33.01,15.73c.17.18-.12.31.11.5-.04-.09.06-.4-.11-.5Z"/>
    <path class="cls-1" d="M53.47,13.19s-.03,0-.05,0c.02,0,.04,0,.05,0Z"/>
    <polygon class="cls-1" points="33.12 16.23 33.13 16.24 33.15 16.25 33.12 16.23"/>
    <path class="cls-1" d="M40.51,13.89s.03.07.05.1c0-.02-.02-.05-.05-.1Z"/>
    <path class="cls-1" d="M42.47,13.79l-.05-.02s.04.02.05.02Z"/>
    <path class="cls-1" d="M39.61,14.44s-.05-.04-.07,0c0,.01.01.02.02.03,0-.04.02-.05.06-.02Z"/>
    <polygon class="cls-1" points="38.6 14.68 38.63 14.72 38.66 14.7 38.6 14.68"/>
    <path class="cls-1" d="M19.4,21.03c-.04-.06-.07-.13-.09-.2.05.16-.09.25.09.2Z"/>
    <path class="cls-1" d="M53.49,13.09c0,.06,0,.09-.02.11l.03-.02s0-.07-.02-.09Z"/>
    <path class="cls-1" d="M40.01,16.3h-.17c.05.01.11.01.17,0Z"/>
    <path class="cls-1" d="M26.69,19.33l-.03.04s.03,0,.03-.04Z"/>
    <path class="cls-1" d="M39.37,16.45c-.05-.08-.09-.12-.13-.14,0,.02,0,.04,0,.06l.13.08Z"/>
    <path class="cls-1" d="M19.3,20.82h0s0,0,0,0Z"/>
    <path class="cls-1" d="M18.35,21.6c.16-.03.01-.32,0-.5.17-.13.13.21.23.36.1-.11.13-.41.22-.41.02.05.04.06.03.13.07-.27.36-.09.44-.42.02.03.03.05.03.07-.06-.15-.09-.31-.11-.42.07-.02.09-.22.16-.02-.04,0-.03.09-.04.15l.05-.1c.13.28-.08.12-.03.34.12-.12.24-.4.36-.34.08.28-.23.15-.04.37l-.19-.07c.22.42-.11-.01.11.45.24.04.22-.19.46-.16.02-.17-.07-.23-.05-.4.25-.35.4.66.55.23.02-.2-.04-.57.17-.41v.33c.23-.02.04-.49.31-.32-.01.13-.14.14-.1.17.2.22.06-.2.17-.23l.09.28c.22-.09.42-.35.66-.46,0,.09-.02.19.06.26.29-.21.69-.11,1.03-.02l.06-.27s.08.1.06.15c.14.07-.03-.16,0-.27.06-.03.12.12.1.2.16-.26.49-.59.78-.37l-.03.08c.2.06.08-.55.29-.36l-.02.05c.4.02.76-.3,1.13,0-.03-.36.41.07.31-.43.27.19.23.29.57.39.09,0,.05-.33.13-.41l.06.26.07-.3.15.29.08-.09s-.11-.1-.12-.17c.12-.15.4.09.43.22l.29-.3c.02.1-.03.15-.06.23.12-.31.1.26.21-.02-.04-.05-.03-.16-.03-.21.12.13.31.09.44-.01l.02.18c.27-.02.51-.22.8-.28-.12-.06-.17-.37-.1-.42l.1.26c.01-.18-.11-.08-.05-.31.11,0,.15.29.11.39l.11-.13c.03.08,0,.13.03.23.01-.18.29.22.3-.09l.03.08c.29-.07.39-.19.62-.26-.05-.23.05-.21.07-.41.19.03.42.17.62.1.12-.15,0-.21.02-.36.06.21.26.14.2.32.24-.1.3-.12.57-.37-.06-.08-.1-.11-.1-.18.05-.05.15.06.17.16v.03c.26-.41.95.42,1.12-.09v.03s.22-.3.22-.3c.14,0-.04.18.09.29.22-.43.5-.07.7-.37.35.58.69-.22,1.06.11l-.05-.14c.03-.16.1.06.16.08-.04-.11-.11-.11-.08-.21.54-.32,1.26-.08,1.89-.1.23-.01-.06-.8.3-.51v.29c.35-.44.9-.21,1.26-.59-.01.07,0,.15-.03.16.14.18.34-.07.3-.23.07,0,.05.14.11.22.12.1.17-.31.27-.12.02.03-.01.07-.02.09.04-.11.28-.04.17-.26.19.07.29-.18.45-.07.02-.28.31.06.25-.31.08.38.36.23.42.03,0,.12.12.1.11.26.12-.03.21-.13.14-.32.32.4.35-.46.61.09.3-.28.6-.49.89-.65.07.38-.34.12-.24.51.26-.22.36-.59.68-.56.09.03,0,.17-.02.24.26-.22.58-.09.8-.36,0,.04-.01.08-.03.11.05-.02.13.03.09-.14l-.04.06c-.14-.23.09-.56.08-.7.02.51.29.07.28.72.03-.04.05-.13.02-.24.06.02.09.09.07.23.17-.13.06-.3.23-.33.02.08-.01.12,0,.22.05-.18.1-.36.26-.32,0,.05.03.11-.01.12.24-.08.33-.52.63-.42,0,.38.12.1.2.41l.13-.12-.09-.14c.13-.02.19-.27.33-.19l-.07.15.23-.11-.16-.09c.1-.19-.1-.39.09-.34-.03.04.13-.02.23.15h0c.04-.11.09-.23.2-.17.04.1.05.35.08.41,0-.27.28-.13.31-.43-.01.07.02.24.03.27v-.22c.08.06.1.09.11.22.19,0-.14-.39.11-.26-.01.02,0,.05-.03.09.23.05.38-.22.6-.15.12.3-.16.11-.04.36.27-.11.51-.5.8-.47l-.06-.03c-.05-.45.25.18.34-.05-.03.04,0,.26,0,.2.2.04.36-.18.62-.37v.12c.11.08.29,0,.42.04.01-.12.09-.11.02-.27.48.59.64-.48,1.06.01-.04,0-.08.12-.04.11l.26-.15c-.05-.19-.06-.11-.14-.25.02-.12.08-.22.15-.23-.1.15.05.31.13.41-.02-.06-.01-.13-.03-.19.2.32-.04-.4.2-.19v.1c.07-.06.12-.21.2-.19.07.22-.06.12-.04.3.11-.03.15-.46.29-.25-.04.07-.11.08-.14.15.15.25.16.18.25.21h0s.21.08.21.08l-.06-.06c.05-.61.27-.15.4-.57-.13.4,0,.22.03.47.06.06.15.13.14.21.06-.22.17.14.25-.18.02.08.1,0,.11.2.11-.08-.05-.14-.05-.24.14-.31.47.28.68-.14.2-.19.2-.47.39-.64.09.12-.02.31-.02.31.13.11.21.07.31-.04-.01.07.02.13.06.22.08-.03.02-.31.15-.2,0,.09-.01.25-.04.34.09-.09.17-.26.26-.35.05.14-.03.23-.06.33.11-.08.29-.17.29-.4l-.09-.07s.05.19.02.24c-.08.19-.16-.06-.17-.14l.07-.06c-.14-.47-.29.12-.44.11v-.36s-.1.31-.1.31c-.05-.09-.09-.28-.03-.34-.13-.16-.08.14-.2-.04-.01-.03-.01-.05,0-.06l-.09.12c.01-.08-.05-.25.02-.2-.22-.18-.27.31-.38.05v-.02c-.23.15.02.26-.13.59l-.23-.62v.26s-.07-.02-.08-.12c-.07.19.03.11,0,.28-.17-.22-.34.16-.43-.24-.02.2.15.13.03.29-.11-.44-.15.1-.3-.08,0-.23.13-.13-.02-.32-.01.4-.24-.05-.33.04.04.31-.2.16-.35.29,0-.1-.34-.12-.52-.2v-.05c.02.31-.15.28-.26.37-.03-.19-.02-.26.03-.36l-.11.02c0,.1-.04.16-.1.21v-.24c-.16.04-.26.32-.48.2.03.22.25.57.08.75-.03-.12-.07-.31-.03-.37-.01.02-.04.11-.09.06l.05-.21c-.1-.07-.02.17-.09.17-.03-.17-.07-.11-.08-.24.01-.02.07.06.09-.01-.08-.02-.19-.1-.25-.22.02.09.04.22-.01.26-.14.04-.09-.19-.19-.26-.02.12-.13.02-.09.27-.04,0-.07-.11-.1-.17-.06.12-.35.1-.22.34h.02s-.01.03-.01.03h0,0c-.2.29-.54-.05-.77.1l-.02-.08c-.13.12-.32.12-.39.31-.04,0-.13-.13-.13-.23-.1.08-.1.18-.28.07.08-.17-.06-.12.1-.13-.16-.04-.22-.17-.33.09.01-.22-.16-.25-.22-.17l.13.13c-.07.05-.14.04-.22.04l-.02-.29c-.37-.28-.42.69-.76.16-.04.21.19.1.16.35-.14-.01-.37-.38-.41-.37-.22-.12-.09.44-.31.38.05.09.12.35,0,.48-.14,0-.25-.38-.18-.48.03-.02.05.01.06.05.04-.05.09-.1,0-.2v.1c-.09-.09-.27-.04-.26-.21-.08.12-.01.17.08.21-.21-.11-.28.05-.48,0,.04.05.09.16.06.16-.29-.07-.08.21-.25.3-.13-.13-.04-.37-.19-.2-.13-.08-.08-.26-.05-.35-.12.23-.34-.06-.44-.07l.07-.1c-.04.06-.08.07-.13.08l.09.19c-.06-.02-.1-.02-.12-.1-.02.14.11.32.05.52-.09-.09-.18.15-.26-.11.23.04-.08-.26.09-.34-.03.04-.07.05-.13.02-.01-.03,0-.06,0-.07-.26-.19-.03.32-.24.36,0-.15-.11-.27-.14-.23.09-.02.09.24.04.37-.16-.09-.13.12-.2.12l.09.04c0,.15-.07.15-.15.22-.03-.11.07-.1.02-.14-.05.28-.3-.22-.41-.01-.09-.09-.07-.28-.14-.33-.12.23-.22-.16-.36.04.09.19.09.14.01.36l.25-.2-.12.33c.09-.02.15-.17.21-.14-.05.18-.05.13.03.29-.18-.27-.19.23-.37.06l-.11-.49c-.25-.17-.3.34-.6.27l.1.07c0,.2-.16.06-.22.16-.03-.17-.1-.21-.16-.31.03.12-.2.03-.14.37l-.17-.19c-.23-.04-.13.52-.35.52.02-.19-.1-.29,0-.45-.07.01-.14,0-.11.11-.06-.09-.14.27-.24.12-.01.08.02.25-.06.26-.02-.03-.02-.08-.02-.08.02.08-.09.14.02.3-.33-.46-.58.18-.86-.22-.14.09-.3.19-.43.23,0-.05-.02-.08.01-.07-.22-.11,0,.5-.25.38-.17-.24.08-.17-.01-.25-.16-.53-.24.13-.46-.15l.03-.04c-.15-.16-.22.27-.4.27,0,0,0-.05-.02-.08-.06.3-.26.45-.42.57,0-.22.05-.13-.03-.34-.07.05.11.34-.03.44-.08-.1-.21-.18-.28-.4l.14-.05c-.15-.28-.18.06-.27.02l-.02-.13c-.21.1-.13.42-.38.46l.05.09c-.05.36-.15-.15-.22.12l-.12-.32c-.07.1-.22.39-.36.49.03-.26.18-.43.25-.6-.09.02-.28.1-.29.27.03-.04.05-.13.1-.09-.04.28-.15.44-.32.48-.13-.64-.48-.05-.73-.51-.24.31-.62.05-.96.17.25.46-.1.04.05.54-.07.05-.11.05-.12.02l-.32-.24c-.1-.13.05-.13.01-.24-.19,0-.13-.2-.28-.3.07.18,0,.28-.12.23l.2.2c-.18.33-.32-.37-.5-.04l.04-.18c-.11.13-.47.11-.5.55-.04-.05-.1-.18-.05-.23-.32.02-.57.6-.88.41v-.13c-.06.05-.05.26-.15.15,0-.05,0-.13-.04-.13-.02.05-.1.26-.19.2l.03-.16c-.34-.09-.37.45-.6.6-.09-.37-.36-.43-.49-.46v-.05c-.37.04-.52.45-.81.67-.3-.35-.72,0-1.09-.14.07.05.06.29.01.34-.09-.06-.15.31-.22-.03h.03c-.14-.32-.27-.19-.39-.17l.09.44c-.47-.56-.77.43-1.08-.1-.05.13-.14.15-.19.28l-.05-.24c-.23,0-.34-.01-.59.11v-.18c-.14.02-.01.72-.14.77l-.12-.34c-.26.07-.59-.18-.77.2,0-.05-.02-.16.01-.18-.12.02-.52-.13-.37.34-.08-.31-.27.03-.38.2l-.03-.24c-.05.32-.03.41-.18.53-.05-.02-.08-.18-.01-.13-.16-.09-.05.24-.24.16l.02-.16c-.14.01-.11.09-.14.28-.06.11-.27,0-.33-.21.01.13-.02.32-.12.28-.03-.08-.01-.13,0-.16-.26-.11-.27.34-.48.15-.02-.08-.04-.11-.06-.13.18-.03.32-.05.32-.03-.05-.21-.2-.22-.15-.54-.08.19-.2.58-.36.51-.01-.02-.02-.04-.04-.07v-.03s-.05.01-.07.05c-.05-.03-.09-.05-.13-.04-.06-.17-.19-.06-.26-.05.06.23-.04.22.09.39-.02-.01,0-.03.05-.05,0,0,.02-.02.03-.03v.02s.11-.03.17-.05c-.03.13-.07.24-.17.13,0,.16-.01.32-.02.4-.17-.31-.4-.44-.47-.64-.19.18-.49.2-.54.67-.05.07-.1-.11-.14-.18.03-.05.07-.05.08-.12-.1.14-.36.12-.32.44-.19-.11.03-.3-.18-.21v-.1c-.52-.41-.52.93-1.12.39.04.03.06.05.08.1-.59-.17-1.05.49-1.67.15-.17-.06-.15.14-.21.31l-.08-.25-.1.32c-.18.26-.5-.55-.71-.09l.07.16c-.11-.01-.3.16-.32-.04,0,.03,0,.18-.06.1l-.03-.13-.21.27c-.21-.06-.07-.53-.35-.51-.1.07-.23.44-.17.52.04,0,.12.06.15.2l-.08.09c.05.4.05.81.34,1.04l.12-.27.09.18-.14.04c.11.16.13,0,.17-.12.03.1.07.16.11.2l.09-.4c.05.15-.02.32.11.38.04-.19-.14-.33-.03-.47.11.16.12.31.18.14.03.1.02.17,0,.22.06-.14.21-.09.21-.31.12.2.27-.11.33.26,0-.09.09-.32.16-.35-.06.47.29-.03.34.45.03-.42.34-.25.48-.5,0,.03-.01.1-.03.08.11.01.16.13.24.19-.05-.33.09-.44.14-.66.19.29,0,.4.1.7-.06-.27.17-.31.08-.52.13.18.1.08.21.34-.07-.41.08-.09.1-.36.18.17.11.38.24.22.1.11,0,.28,0,.28ZM21.81,20.12h0s-.06.03-.07.03c.01,0,.03-.02.07-.03ZM22.11,20.05s-.09,0-.13.02c-.03-.08-.04-.16,0-.17,0,.06.08.09.14.15ZM21.11,18.57s.07,0,.08.05c-.02,0-.05.02-.08.05v.03s0-.09,0-.12Z"/>
    <path class="cls-1" d="M21.09,18.89s0,.02-.02.02c.02.02.03.03.04.05v-.08s-.02,0-.02,0Z"/>
    <path class="cls-1" d="M48.46,12.92h0s.01.01.02.03c0-.01,0-.02-.01-.03Z"/>
    <polygon class="cls-1" points="26.38 19.52 26.37 19.47 26.35 19.52 26.38 19.52"/>
    <path class="cls-1" d="M50.28,13.44s.02.04.03.06c0-.02-.02-.04-.03-.06Z"/>
    <path class="cls-1" d="M51.01,13.38l.12.07c-.05-.04-.09-.06-.12-.07Z"/>
    <path class="cls-1" d="M51.58,13.41s0-.07,0-.1h0s0,.1,0,.1Z"/>
    <path class="cls-1" d="M42.86,15.36s-.01,0-.02.02c-.04.06,0,.03.02-.02Z"/>
    <path class="cls-1" d="M45.35,14.25s-.04.1-.06.13c.05,0,.09,0,.06-.13Z"/>
    <polygon class="cls-1" points="40.02 16.3 40.02 16.29 40.01 16.3 40.02 16.3"/>
    <path class="cls-1" d="M45.16,14.4c.06.04.09.02.12-.02-.04,0-.09-.02-.12.02Z"/>
    <path class="cls-1" d="M54,13.17h.03s0-.02,0-.03l-.03.03Z"/>
    <path class="cls-1" d="M54.03,13.14l.03-.03s-.03,0-.03.03Z"/>
    <path class="cls-1" d="M54.11,13.04l-.05.07s.05,0,.05-.07Z"/>
    <path class="cls-1" d="M53.25,13.16v.09s0-.05,0-.09Z"/>
    <path class="cls-1" d="M53.03,13.22c.06.01.16.17.23.1v-.07c-.02.13-.2-.18-.23-.03Z"/>
    <path class="cls-1" d="M51.94,12.28l.2.04c-.05-.09-.11-.2-.03-.24-.28-.24.08.2-.17.2Z"/>
    <path class="cls-1" d="M51.33,12.24c.09-.06-.02-.13-.02-.19-.05.09-.06.12.02.19Z"/>
    <path class="cls-1" d="M47.11,12.97l-.03-.22c-.07.05.02.08.03.22Z"/>
    <polygon class="cls-1" points="46.52 14.24 46.63 14.36 46.62 14.16 46.52 14.24"/>
    <polygon class="cls-1" points="45.75 12.81 45.78 12.77 45.66 12.87 45.75 12.81"/>
    <path class="cls-1" d="M38.73,14.43l.09.26c.04-.06-.02-.36-.09-.26Z"/>
    <path class="cls-1" d="M35.78,15.43c-.06-.12-.17-.19-.19-.04.07,0,.16.09.19.04Z"/>
    <polygon class="cls-1" points="26.67 17.23 26.71 17.13 26.61 17.23 26.67 17.23"/>
  </g>
  <g>
    <path class="cls-1" d="M71.41,65.03c0-.08-.04-.24-.09-.19l.02.29.08-.09Z"/>
    <path class="cls-1" d="M70.9,64.61c-.04.15-.07.4.02.65.01-.28.05-.17.06-.51.05-.05.12.07.14.17,0-.08.11.04.1-.14-.12-.2-.22-.19-.29.01-.04-.06-.03-.13-.03-.19Z"/>
    <path class="cls-1" d="M64.92,65.41l.04.02s-.03-.02-.04-.02Z"/>
    <path class="cls-1" d="M61.24,66.02s.03-.04.03-.07c-.02.02-.04.05-.03.07Z"/>
    <path class="cls-1" d="M60.55,65.85s.03,0,.04.01c-.02-.02-.04-.03-.04-.01Z"/>
    <path class="cls-1" d="M64.92,65.41l-.12-.07c.01.09.06.06.12.07Z"/>
    <path class="cls-1" d="M70.23,65.44s.03-.05.04-.08c-.01.02-.03.03-.04.04,0,.02,0,.03,0,.04Z"/>
    <path class="cls-1" d="M66.48,64.85h.03s0-.08,0-.12l-.03.12Z"/>
    <path class="cls-1" d="M67.7,64.55s0,.23.02.34c0-.1,0-.15.03-.17,0-.04-.02-.1-.05-.16Z"/>
    <path class="cls-1" d="M69.75,64.55l.03-.04s-.02.02-.03.04Z"/>
    <path class="cls-1" d="M65.58,64.98s-.02-.06-.03-.08c0,.03.02.06.03.08Z"/>
    <path class="cls-1" d="M31.43,74s0-.03,0-.04c0,.03,0,.04,0,.04Z"/>
    <path class="cls-1" d="M29.76,73.14l.02-.02s-.01-.09-.02-.13v.15Z"/>
    <path class="cls-1" d="M59.35,65.79s0,0,0,0c.02-.03,0-.02,0,0Z"/>
    <path class="cls-1" d="M48.92,68.16c.16.19-.14.31.09.51-.04-.09.09-.4-.09-.51Z"/>
    <path class="cls-1" d="M70.19,65.42s-.03.01-.05.01c.02,0,.04,0,.05-.01Z"/>
    <path class="cls-1" d="M49.01,68.67s0,0,0,0l.02.02s-.02-.01-.02-.02Z"/>
    <path class="cls-1" d="M56.75,66.48s.03.07.05.1c0-.02-.02-.05-.05-.1Z"/>
    <path class="cls-1" d="M58.78,66.4l-.06-.02s.04.02.06.02Z"/>
    <path class="cls-1" d="M55.8,67.03s-.05-.04-.08,0c0,.01.01.02.02.03,0-.04.02-.05.06-.02Z"/>
    <path class="cls-1" d="M54.75,67.25s.02.03.03.04c0,0,.02-.01.03-.02l-.06-.02Z"/>
    <path class="cls-1" d="M34.62,73.21c-.04-.06-.07-.13-.09-.2.05.16-.09.26.09.2Z"/>
    <path class="cls-1" d="M70.2,65.31c0,.06,0,.09-.01.11.01,0,.02-.01.03-.02,0-.04-.01-.07-.02-.09Z"/>
    <path class="cls-1" d="M56.15,68.89h-.18c.05.01.12.01.18,0Z"/>
    <path class="cls-1" d="M42.2,71.59l-.03.04s.03,0,.03-.04Z"/>
    <path class="cls-1" d="M55.48,69.03c-.05-.08-.09-.12-.13-.14,0,.02,0,.04,0,.06l.14.08Z"/>
    <path class="cls-1" d="M34.53,73.01s0,0,0,0c0,0,0,0,0,0Z"/>
    <path class="cls-1" d="M33.54,73.8c.16-.03.01-.32,0-.5.17-.13.14.21.23.35.1-.11.13-.41.23-.42.02.05.04.06.03.13.07-.27.37-.09.45-.43.02.03.03.05.04.07-.06-.15-.09-.31-.11-.42.07-.02.09-.22.16-.03-.05,0-.03.09-.04.15l.06-.1c.13.28-.08.12-.04.34.13-.13.25-.4.38-.34.08.28-.24.15-.04.37l-.2-.07c.23.42-.11,0,.11.44.25.03.23-.2.47-.16.02-.17-.07-.23-.05-.4.26-.35.41.66.56.23.02-.2-.03-.57.18-.41v.33c.24-.01.04-.49.32-.32-.01.14-.15.14-.11.17.2.22.07-.2.18-.23l.08.28c.23-.09.44-.35.69-.46,0,.09-.02.19.06.26.3-.21.71-.11,1.06-.01l.07-.27s.08.1.06.15c.14.07-.03-.16.01-.27.07-.03.12.12.09.2.17-.25.53-.58.81-.36l-.03.08c.2.06.1-.55.31-.35l-.02.05c.41.02.79-.29,1.17.02-.02-.37.42.08.34-.42.27.2.23.3.58.4.09,0,.06-.33.15-.41l.06.26.08-.3.14.29.08-.09s-.11-.1-.12-.17c.13-.15.41.1.44.23l.31-.29c.01.11-.04.15-.07.23.14-.3.09.26.22-.01-.04-.05-.02-.16-.03-.21.12.14.32.1.45,0v.18c.28-.01.55-.2.85-.26-.12-.06-.16-.37-.08-.42l.09.27c.02-.18-.11-.08-.04-.31.12,0,.14.29.09.4l.12-.12c.03.08,0,.13.02.23.02-.18.29.22.31-.09l.02.08c.3-.06.41-.18.65-.25-.04-.24.06-.2.09-.41.19.04.43.18.64.12.13-.15,0-.21.04-.36.06.21.27.15.19.32.25-.09.32-.11.61-.35-.05-.08-.1-.11-.1-.19.05-.05.15.06.17.17v.03c.29-.4.97.45,1.16-.06v.03s.24-.3.24-.3c.15,0-.05.18.08.29.25-.43.53-.06.75-.35.34.59.73-.2,1.09.15l-.05-.15c.04-.16.11.07.17.09-.03-.11-.11-.12-.08-.21.58-.31,1.31-.05,1.97-.05.24,0-.03-.8.33-.5l-.02.29c.4-.43.95-.19,1.35-.57-.01.07,0,.15-.04.16.14.18.36-.06.32-.23.07,0,.05.14.11.22.12.1.19-.31.28-.12.02.03-.01.07-.03.09.04-.11.3-.04.19-.26.19.07.31-.17.47-.06.03-.28.32.06.27-.31.07.38.36.24.43.04-.01.12.12.1.11.27.12-.03.22-.13.16-.32.32.41.38-.46.63.09.32-.28.63-.49.94-.65.07.38-.36.11-.26.51.28-.22.39-.58.72-.56.09.03-.01.17-.02.24.28-.22.61-.09.85-.36,0,.04-.02.08-.04.11.05-.02.14.03.1-.14l-.04.06c-.14-.23.11-.57.09-.7.01.51.3.07.28.72.03-.04.06-.13.02-.24.06.02.09.09.06.23.18-.13.07-.3.25-.34.02.08-.01.12-.01.22.06-.18.11-.36.28-.32,0,.05.03.11-.01.12.25-.08.35-.52.66-.43,0,.38.12.1.2.41l.13-.13-.09-.14c.13-.02.2-.28.34-.2l-.07.15.24-.11-.17-.09c.1-.19-.1-.39.1-.34-.03.04.13-.02.24.15,0,0,0,0,0,0,.05-.11.09-.23.21-.18.05.09.05.35.08.41.01-.27.3-.14.32-.43-.01.07.02.24.04.27v-.22c.09.05.1.09.12.22.19,0-.14-.38.11-.26-.01.02,0,.05-.03.09.24.04.4-.22.62-.16.13.3-.16.11-.04.37.28-.12.53-.5.83-.49l-.06-.02c-.05-.45.26.17.36-.06-.03.04,0,.26,0,.2.21.03.37-.19.64-.39v.12c.12.08.3,0,.44.02.01-.12.09-.12,0-.27.52.57.65-.5,1.11-.03-.04,0-.08.12-.04.11l.27-.17c-.06-.19-.06-.11-.15-.25.01-.12.08-.23.15-.24-.1.16.07.31.15.41-.02-.06-.02-.13-.03-.19.22.31-.06-.39.2-.21v.1c.08-.07.12-.22.21-.21.08.22-.06.12-.03.31.11-.04.14-.47.29-.27-.04.07-.11.09-.14.16.17.24.17.17.26.19h0s.22.07.22.07l-.07-.06c.02-.61.27-.17.39-.59-.12.4.01.22.05.47.06.06.16.12.15.2.05-.22.19.13.26-.2.02.08.1-.01.12.2.11-.09-.06-.14-.07-.24.13-.32.51.25.7-.19.2-.21.18-.49.37-.67.1.12,0,.31,0,.31.14.1.23.06.32-.06,0,.08.03.13.08.22.08-.04,0-.31.14-.21,0,.1,0,.25-.02.35.09-.1.16-.27.25-.37.06.14-.02.23-.04.33.11-.09.29-.19.28-.43l-.09-.06s.06.19.04.24c-.07.2-.17-.05-.19-.13l.07-.07c-.18-.46-.29.14-.45.15v-.36s-.11.32-.11.32c-.05-.08-.12-.27-.05-.34-.15-.15-.07.14-.21-.03-.02-.03-.02-.05,0-.06l-.09.13c0-.08-.07-.24,0-.21-.24-.16-.26.33-.39.08v-.02c-.23.17.04.26-.1.6l-.27-.6.03.26s-.09-.01-.1-.12c-.07.2.04.11.02.29-.18-.2-.35.19-.46-.21,0,.2.16.12.05.29-.13-.43-.15.11-.31-.07,0-.23.13-.14-.03-.31,0,.4-.26-.03-.34.06.06.31-.2.17-.35.31-.01-.1-.36-.1-.54-.17v-.05c.03.31-.15.29-.26.38-.03-.19-.03-.26.02-.36l-.11.03c0,.1-.03.16-.1.21l-.02-.24c-.15.04-.25.33-.47.22.03.22.28.56.1.75-.03-.11-.08-.31-.04-.37-.01.02-.04.11-.09.07l.04-.21c-.11-.07-.01.17-.09.17-.03-.17-.08-.11-.09-.24.01-.02.08.06.09-.02-.09-.01-.2-.09-.26-.21.03.09.05.22,0,.26-.15.04-.09-.19-.2-.25-.01.12-.13.02-.08.27-.04,0-.08-.11-.11-.17-.06.13-.36.11-.22.35h.02s0,.02-.01.03h0s0,0,0,0c-.2.3-.56-.03-.79.13l-.02-.08c-.13.13-.33.13-.4.33-.04,0-.14-.13-.14-.23-.1.09-.1.18-.29.08.09-.17-.07-.12.1-.13-.17-.04-.23-.16-.34.09.01-.22-.17-.24-.23-.16l.14.13c-.07.05-.15.04-.22.04l-.02-.29c-.38-.27-.44.69-.79.18-.04.21.2.1.17.35-.15,0-.38-.38-.43-.37-.23-.11-.1.44-.32.38.05.09.13.35,0,.48-.15,0-.26-.38-.19-.48.03-.02.06.01.06.05.04-.05.09-.1.01-.2v.1c-.09-.09-.28-.03-.27-.21-.09.12-.01.17.08.21-.21-.11-.29.06-.49,0,.04.05.09.16.06.16-.3-.07-.08.21-.26.3-.14-.13-.04-.37-.2-.2-.14-.08-.08-.26-.05-.35-.13.23-.35-.06-.45-.07l.07-.1c-.04.06-.09.07-.13.08l.09.19c-.06-.02-.11-.02-.12-.1-.03.14.11.32.04.52-.09-.09-.19.15-.27-.11.24.04-.08-.26.1-.34-.03.04-.07.05-.13.02-.01-.03,0-.06,0-.07-.26-.19-.03.32-.26.36,0-.15-.11-.27-.14-.23.09-.02.09.24.04.37-.17-.09-.14.12-.21.12l.1.04c0,.15-.07.15-.16.22-.03-.11.07-.1.03-.14-.05.28-.3-.22-.42-.01-.09-.09-.07-.28-.14-.33-.13.23-.23-.16-.37.03.09.19.09.14,0,.36l.26-.2-.13.33c.09-.02.16-.17.22-.14-.06.18-.06.13.02.29-.18-.27-.2.23-.39.05l-.1-.5c-.26-.18-.32.33-.62.27l.11.07c0,.2-.16.06-.24.16-.03-.17-.09-.22-.15-.31.03.12-.2.03-.16.37l-.17-.19c-.24-.04-.15.52-.38.51.03-.19-.09-.29.02-.45-.07.01-.14,0-.12.11-.06-.09-.15.26-.25.12-.01.08.01.25-.07.26-.02-.03-.02-.08-.02-.08.02.08-.1.14,0,.31-.33-.47-.6.17-.89-.24-.14.09-.32.18-.46.22,0-.05-.02-.08.01-.07-.23-.11-.02.5-.28.37-.17-.24.09-.17,0-.26-.14-.54-.25.13-.47-.16l.03-.04c-.15-.16-.23.26-.43.26,0,0,0-.05-.02-.08-.07.3-.29.45-.45.56.01-.22.06-.13-.02-.34-.07.05.1.34-.05.44-.08-.11-.21-.18-.28-.41l.15-.04c-.14-.28-.19.05-.28.02l-.02-.13c-.22.09-.16.42-.41.45l.05.09c-.07.35-.15-.16-.24.11l-.11-.32c-.07.1-.25.39-.39.48.04-.26.2-.43.29-.6-.09.02-.3.09-.31.26.03-.04.06-.13.1-.09-.05.28-.17.44-.35.47-.1-.65-.5-.06-.73-.54-.26.3-.64.03-1,.14.23.47-.1.04.03.54-.08.05-.11.05-.13.02l-.32-.25c-.09-.14.06-.13.03-.24-.19,0-.12-.2-.28-.31.06.18,0,.28-.13.23l.2.2c-.2.33-.32-.38-.52-.06l.05-.18c-.11.12-.5.1-.54.54-.04-.05-.1-.19-.05-.24-.33,0-.62.59-.93.39v-.13c-.05.05-.06.26-.16.15,0-.05,0-.13-.03-.13-.02.05-.11.25-.21.2l.04-.16c-.35-.1-.41.44-.65.59-.08-.37-.35-.44-.48-.47v-.05c-.38.03-.56.44-.87.65-.29-.36-.75-.02-1.13-.17.07.06.05.29,0,.34-.09-.06-.17.3-.22-.04h.03c-.13-.32-.27-.2-.4-.18l.07.45c-.47-.57-.82.42-1.12-.12-.06.13-.16.15-.21.27l-.05-.24c-.23-.01-.35-.02-.61.09l.02-.18c-.16.02-.05.72-.19.77l-.12-.34c-.27.06-.61-.19-.81.19,0-.05-.02-.16.02-.18-.13.02-.54-.14-.39.34-.07-.32-.29.03-.4.2l-.03-.24c-.06.32-.05.41-.2.52-.05-.02-.07-.18,0-.13-.16-.09-.06.24-.25.15l.03-.16c-.14.01-.12.09-.16.28-.07.11-.28,0-.34-.21,0,.13-.03.32-.13.28-.03-.08,0-.13,0-.16-.27-.11-.29.34-.5.15-.02-.08-.04-.11-.06-.13.19-.03.34-.05.33-.03-.05-.21-.2-.22-.15-.54-.09.19-.22.58-.39.51-.01-.02-.02-.04-.03-.07v-.03s-.05.01-.08.05c-.05-.03-.09-.05-.13-.04-.05-.17-.19-.06-.27-.05.06.23-.05.22.08.39-.02-.01,0-.03.06-.05,0,0,.02-.02.03-.03,0,0,0,.01,0,.02.05-.02.11-.04.18-.05-.03.13-.07.25-.18.13,0,.16-.02.32-.02.4-.17-.31-.41-.44-.48-.64-.2.18-.52.2-.57.67-.05.07-.1-.11-.14-.18.03-.05.07-.05.08-.12-.11.14-.38.12-.34.44-.19-.1.03-.3-.18-.21v-.1c-.54-.4-.54.94-1.17.41.04.03.06.05.08.1-.62-.16-1.1.5-1.74.18-.18-.06-.15.14-.22.31l-.09-.25-.1.33c-.19.26-.53-.54-.74-.07l.07.16c-.11-.01-.31.17-.34-.03,0,.03,0,.18-.06.1l-.03-.13-.21.28c-.22-.05-.08-.53-.38-.5-.1.07-.23.45-.17.53.05,0,.13.06.16.19l-.09.09c.06.39.07.81.37,1.03l.12-.27.09.18-.14.04c.12.16.14,0,.17-.13.03.1.07.16.12.19l.09-.41c.05.15-.01.32.12.38.04-.19-.15-.33-.04-.47.12.16.13.31.19.14.03.1.03.17,0,.22.06-.14.21-.1.22-.31.13.2.28-.12.34.25,0-.09.09-.32.16-.35-.05.47.3-.04.36.45.02-.42.35-.26.49-.52,0,.03-.01.1-.03.09.11.01.17.12.25.18-.06-.33.09-.44.14-.66.2.29,0,.4.11.7-.06-.26.17-.31.08-.52.14.18.11.08.21.34-.07-.41.08-.09.11-.36.19.17.12.38.25.22.1.11,0,.28,0,.28ZM37.13,72.31s0,0,0,0c-.03.01-.06.02-.07.03.02,0,.04-.02.07-.03ZM37.44,72.24s-.09,0-.14.02c-.03-.08-.03-.17,0-.17,0,.06.08.09.14.15ZM36.44,70.75s.07,0,.09.05c-.02,0-.05.02-.08.05,0,0,0,.02,0,.03,0-.05,0-.09,0-.12Z"/>
    <path class="cls-1" d="M36.41,71.07s0,.02-.02.02c.01.02.03.03.04.05,0-.03,0-.05,0-.08,0,0-.02,0-.03,0Z"/>
    <path class="cls-1" d="M64.97,65.44h0s.01.01.02.03c0-.01,0-.02-.01-.03Z"/>
    <polygon class="cls-1" points="41.88 71.78 41.86 71.72 41.85 71.77 41.88 71.78"/>
    <path class="cls-1" d="M66.87,65.88s.02.04.04.06c0-.02-.02-.03-.04-.06Z"/>
    <path class="cls-1" d="M67.63,65.78l.12.06c-.06-.04-.09-.05-.12-.06Z"/>
    <path class="cls-1" d="M68.23,65.77s0-.07,0-.1c0,0,0,0,0,0v.1Z"/>
    <path class="cls-1" d="M59.15,67.97s-.01,0-.02.02c-.04.06-.01.03.02-.02Z"/>
    <path class="cls-1" d="M61.75,66.85s-.04.1-.06.13c.05,0,.09,0,.06-.13Z"/>
    <path class="cls-1" d="M56.17,68.89s0,0,0,0c0,0-.01,0-.02,0h.02Z"/>
    <path class="cls-1" d="M61.56,67c.06.04.1.02.13-.02-.04,0-.09-.02-.13.02Z"/>
    <path class="cls-1" d="M70.74,65.36h.03s0-.02,0-.03l-.03.03Z"/>
    <path class="cls-1" d="M70.77,65.32l.02-.03s-.03,0-.02.03Z"/>
    <path class="cls-1" d="M70.84,65.22l-.05.07s.05,0,.05-.07Z"/>
    <path class="cls-1" d="M69.96,65.41v.09s0-.05,0-.09Z"/>
    <path class="cls-1" d="M69.73,65.48c.06,0,.18.15.24.08v-.07c-.02.13-.22-.17-.24-.01Z"/>
    <path class="cls-1" d="M68.55,64.63l.21.03c-.05-.08-.12-.2-.04-.24-.3-.22.09.19-.17.21Z"/>
    <path class="cls-1" d="M67.92,64.63c.1-.06-.03-.13-.03-.18-.05.1-.06.12.03.18Z"/>
    <path class="cls-1" d="M63.58,65.54l-.03-.22c-.07.05.02.08.03.22Z"/>
    <polygon class="cls-1" points="62.98 66.82 63.08 66.93 63.08 66.73 62.98 66.82"/>
    <polygon class="cls-1" points="62.17 65.39 62.2 65.36 62.08 65.46 62.17 65.39"/>
    <path class="cls-1" d="M54.89,67l.08.26c.04-.06,0-.36-.08-.26Z"/>
    <path class="cls-1" d="M51.8,67.93c-.06-.12-.17-.19-.2-.05.07,0,.17.09.2.05Z"/>
    <polygon class="cls-1" points="42.27 69.49 42.31 69.38 42.21 69.48 42.27 69.49"/>
  </g>
  <g>
    <path class="cls-1" d="M37.4,39.65c.1-.08.1-.32-.12-.32l-.23.36.34-.04Z"/>
    <path class="cls-1" d="M36.08,38.69c-.29.16-.6.47-.47.85.28-.36.32-.19.65-.61.23-.02.36.18.3.32.09-.09.32.14.47-.08-.22-.35-.6-.42-1-.22-.07-.1.02-.19.05-.26Z"/>
    <path class="cls-1" d="M26.85,50.59l.18-.14c-.07.04-.13.09-.18.14Z"/>
    <path class="cls-1" d="M36.9,51.02c-.09.01-.13.06-.13.1.08-.04.15-.06.13-.1Z"/>
    <path class="cls-1" d="M38.44,51.75s-.04-.04-.06-.07c.01.05.03.08.06.07Z"/>
    <path class="cls-1" d="M26.85,50.59l-.47.37c.2-.05.3-.21.47-.37Z"/>
    <path class="cls-1" d="M33.15,39.58c.07-.02.13-.07.18-.12-.06.02-.11.04-.17.06,0,.02,0,.04,0,.06Z"/>
    <path class="cls-1" d="M31.62,46.26l.05-.03s-.08-.07-.13-.11c.03.04.06.09.08.13Z"/>
    <path class="cls-1" d="M30.47,43.41c.04.1.35-.04.49-.07-.15.02-.24-.02-.31-.08-.06.03-.12.08-.18.16Z"/>
    <path class="cls-1" d="M32,38.33l.12-.07s-.09.04-.12.07Z"/>
    <path class="cls-1" d="M28.62,48.26c-.07,0-.14,0-.19,0,.05.01.12,0,.19,0Z"/>
    <path class="cls-1" d="M40.15,34.02s-.04,0-.06,0c.03.02.06.03.06,0Z"/>
    <path class="cls-1" d="M39.14,39.3l-.03-.07c-.06,0-.13.02-.19.03l.22.04Z"/>
    <path class="cls-1" d="M39.35,54.62s0-.01,0-.02c-.06-.09-.04-.04,0,.02Z"/>
    <path class="cls-1" d="M55.75,47.18c-.02.54-.72-.42-.64.33.08-.12.77.25.64-.33Z"/>
    <path class="cls-1" d="M33.03,39.54c-.06,0-.12.02-.18.02.08,0,.13,0,.18-.02Z"/>
    <path class="cls-1" d="M55.11,47.52h0s0,.08,0,.08c0-.03,0-.05,0-.08Z"/>
    <path class="cls-1" d="M44.56,60.76c-.04-.09-.08-.11-.12-.13.02.07.05.12.12.13Z"/>
    <path class="cls-1" d="M40.65,58l.04.27c0-.12-.02-.2-.04-.27Z"/>
    <path class="cls-1" d="M45.86,54.42c.06-.08.11-.09.12-.23-.02,0-.04.01-.05.02.03.06.02.13-.07.21Z"/>
    <path class="cls-1" d="M47.08,51.6s-.04-.03-.05-.04l-.02.08.07-.04Z"/>
    <path class="cls-1" d="M40.86,37.2c0-.24.04-.44.08-.61-.12.36-.55-.5-.08.61Z"/>
    <path class="cls-1" d="M33.13,39.39c-.02.09-.04.13-.1.15l.12-.03c0-.05,0-.1-.02-.13Z"/>
    <path class="cls-1" d="M43.44,53.32l.29-.59c-.1.16-.21.37-.29.59Z"/>
    <path class="cls-1" d="M51.83,40.61l-.15.03c.06,0,.11,0,.15-.03Z"/>
    <path class="cls-1" d="M44.56,50.72c.19-.12.34-.26.46-.42,0-.06,0-.12,0-.18l-.45.6Z"/>
    <path class="cls-1" d="M40.94,36.59h0s0,0,0,0Z"/>
    <path class="cls-1" d="M38.39,32.32c.21.56.51.1.79.12.38.61-.18.43-.3.73.27.37.77.54.88.85-.06.05-.06.12-.17.08.27.19.34.36.61,1,.23.54.48,1.1.79,1.27,0,.1-.02.16-.03.21.1-.36.25-.59.36-.73.14.32.39.23.27.71-.07-.2-.15-.08-.24-.07l.21.19c-.1.86-.27-.3-.47.04.41.67.87.89,1.03,1.6-.08.89-.58-1.09-.41.31l-.3-1.18c-.03,1.65-.22-.69-.3.98.54,1.69.72,1.26,1.25,2.91.16-.21.02-.85.17-1.09.36.33.46,1.36.59,2.16.12.4.26.66.49-.88.1-1.14-.02-2.4.4-2.77l.04,1.3c.54-1.45-.01-2,.63-2.85.02.47-.3,1.27-.19,1.15.53-.42.1-1.06.33-1.67.1.11.21.21.31.31.23-.73.48-1.51.73-2.31.11-.46.23-.92.41-1.36.08.1.13.3.34.16.35-1.16,1.23-2.22,2.03-3.06l-.03-.26-2.76-.53.22.19c.01.1-.13.2-.21.11-.06.44.22-.01.39.17.06.24-.16.35-.28.21.41.69.83,2.12.41,2.92l-.1-.16c-.16.61.69.75.31,1.31l-.05-.12c-.14.67-.2,1.39-.35,2.05-.23,1-.62,2.05-1.24,3.13.04,0,.06,0,.08.04.38-.04.87.09,1.34.22.48.12.96.19,1.19-.1.5.27.72.43,1.01.57.22.14.42.26,1.02.45.32.07.53-.39.93-.42l-.02.37.57-.34.26.46.38-.07c-.15-.03-.31-.19-.28-.29.59-.13,1.41.32,1.43.5.47-.09.93-.2,1.39-.32-.03.15-.26.2-.44.3.74-.39.14.39.82.03-.09-.08.04-.22.05-.3.35.21,1.12.17,1.68.03l-.09.26c1.04-.02,2.16-.35,3.31-.56-.43-.04-.41-.49-.09-.59l.2.36c.17-.28-.37-.08.01-.45.43-.04.37.38.15.55l.49-.24c.05.11-.05.19-.06.34.06-.1.21-.1.39-.09l-.9-3.24c-.29,0-.65-.03-.74.28l-.06-.1c-1.05.35-1.48.64-2.33.95.09.32-.27.37-.43.71-.66.11-1.44.1-2.19.38-.48.34-.06.32-.24.59-.14-.28-.88,0-.56-.33-.52.21-.85.35-1.21.5-.52.22-1.09.48-1.87.88.34.02.59-.01.59.1-.24.13-.83.15-.98.04l.05-.05c-.35.24-.85.4-1.41.57.45.64.79,1.36,1.31,2.17.27.41.47.75.74,1.08.13.16.27.32.41.44.09.07.19.13.29.18l-.06-.03.91.69c.25.44-.36-.11-.3.3,1.1.67.99,1.57,1.79,2.2-.37,1.1,1.42,2.26,1.36,3.44l.16-.15c.26.04-.07.13-.1.17.17-.04.16-.1.29-.1.31.29.4.78.17.72-.4-.22-.65-.48-.66-.57.03-.05.07,1.21-.3.52.17-.07.2-.2.25-.33.05.08-.28,0-.46-.04-.2-.05-.4-.11-.6-.18-.39-.14-.77-.32-1.14-.51-.74-.38-1.46-.8-2.25-1.04.13-.03.19-.13.33-.05-.08-.21-.34-.37-.6-.46-.17-.05-.32-.09-.44-.13-.16-.04-.26-.04-.29.02-.33-.25.01-.25-.16-.51-.21-.23-.58-.39-.9-.54-.32-.14-.57-.24-.72-.53-.05-.1.15,0,.25.04-.28-.07-1.14-.81-1.28-.77-.02.1-.01.16.05.21,0,0,0,.01,0,.02-.29.3-.52.88-.73,1.34-.21.48-.39.88-.66,1.21.02.38-.22.76-.4,1.1-.13.22-.22.42,0,.58-.48-.26-.86.89-.76,1.37-.1-.19-.29.28-.44.04-.17.45-.22.9.07.91-.35.02-.23.08-.2.31.05.19.05.48-.21-.06.05.32.05.75.04,1.2-.03.47-.07.97-.12,1.46-.03-.92,0-1.06,0-1.22.02-.16.04-.31-.04-1.05,0,.27,0,.51,0,.74,0,.15,0,.3,0,.45,0,.16,0,.32-.04.37-.12.31-.31.37-.4-.05-.02-.31.13-.56.17-.81-.12.16-.2-.07-.24-.25-.05-.19-.08-.31-.23-.34.04-.06.09-.08.13-.1-.03-.05.04-.24-.16.03.02,0,.05,0,.07,0-.14.28-.3.44-.47.44-.17.02-.33-.11-.41-.06.66-.32.06-.81.93-.96-.05-.01-.17-.03-.32.04.03-.12.12-.15.31-.14-.02-.02-.04-.04-.06-.06-.02-.02-.04,0-.07-.06-.06-.09-.11-.14-.17-.19-.1-.1-.18-.19-.25-.54.12-.02.2.11.34.15-.32-.32-.58-.6-.71-1.23.08.01.14-.09.2.09-.19-.52-.54-.92-.93-1.27-.2-.17-.37-.35-.61-.51-.22-.17-.42-.37-.67-.56.6-.24-.3-.37-.2-.81-.27-.06-.53-.1-.78-.11.08.1.16.18.23.28-.63-.19-1.17.12-1.64-.01.14-.07.28-.13.43-.19-.37.02-.72.07-1.05.14.2.03.4.07.59.12-.53.27.09.55-.6.5.13-.07-.5.06-.81-.14h0c-.22.19-.44.38-.82.35-.12-.12-.02-.5-.1-.58-.16.41-1.12.33-1.34.78.08-.11.04-.34,0-.38l-.14.34c-.24-.05-.29-.09-.29-.28-.66.08.27.52-.47.42.04-.03.02-.08.1-.14-.28,0-.53.09-.82.2-.28.1-.61.21-.8.18.33-.52.5-.21.68-.64-.27.1-.7.32-1.22.54-.51.22-1.11.43-1.33.42v.05c-.79.49-.79.41-.66.26.12-.15.43-.38-.2-.1.24-.1,1.16-.6.93-.48-.17.04-.05-.13-.15-.21-.08-.09-.21-.19-.19-.41l.35-.06c.54-.32.68-.57,1.03-.78-.26-.01-.07-.15-.6-.03,1.23-.41,1.18-.53,1.41-.89.1-.16.23-.35.43-.49.18-.12.48-.25,1-.32-.17.1-.36.36-.21.28.42-.3.84-.57,1.23-.83-.4-.11-.36,0-.8-.02,0-.19.14-.41.38-.52-.22.3.43.25.93.18.02,0,.03-.02.05-.02-.12,0-.23-.11-.34-.13.32-.47-.73-.27-.68-.94l.18.05c-.23-.31-.54-.52-.64-.81.24-.24.29.25.57.22-.28-.54-.98-.61-.88-1.11.16.12.29.36.45.48.14-.55.03-.56-.07-.87v.03s-.2-.74-.2-.74v.22c-.99-.08-.67-.91-1.52-1.26.81.35.32-.05.66-.19,0-.21-.06-.52.07-.5-.45-.18.07-.32-.52-.46.12-.02-.09-.17.27-.13-.21-.16-.22.03-.39.03-.4-.2-.35-.48-.34-.63,0-.01,0-.03,0-.05h.1c.06-.02.12-.04.16-.06.08-.04.12-.11.12-.24.28-.31.19-.71.96-1.03.28.15-.14.45-.11.45.37.11.73.04,1.1-.13-.07.11.02.19.15.31.31-.05.18-.45.61-.29-.07.13-.15.34-.29.48.36-.13.72-.36,1.11-.46.1.2-.24.31-.37.44.42-.11,1.1-.16,1.26-.47l-.27-.13c.16,0,.07.28-.05.33-.38.23-.53-.13-.55-.25l.28-.07c-.28-.7-1.13.1-1.67.11l.2-.51-.55.46c-.13-.12-.25-.38.03-.49-.44-.2-.34.21-.73,0-.05-.04-.03-.06,0-.09l-.4.21c.06-.12-.17-.33.15-.31-.47-.06-.84.1-1.06.24-.23.14-.36.24-.67.13l.05-.04c-.52.23-.43.3-.3.39.14.08.31.2.27.45-.54-.19-1.08-.3-1.71-.42l.41.25c-.08,0-.01.07-.05.1,0,.05-.03.08-.17.01.65.5.21.03.72.35-.11.14.17.48.35.74.19.27.29.49.02.6.4.11-.05-.48.47-.03-.29.13-.15.29.03.45.19.17.4.31.39.57-.35.05-.42-.4-.44.13.61-.05.34.81.62,1.08.39-.2.56.63.98,1.12-.08.01.01.31.13.67.07.27.14.55.12.71l-.09-.02c.37.05.6.34.67.57-.08.05-.16.1-.22.16-.28-.14-.34-.23-.37-.34l-.2.1c.1.1.1.19-.02.31-.07-.08-.15-.17-.23-.25-.13.08-.15.21-.32.38-.19.19-.56.47-1.05.68.1.11.43.15.62.26.2.11.28.28.1.52-.17-.09-.46-.23-.33-.4-.05.06-.08.23-.27.27,0-.11,0-.24.03-.37-.43.17.04.26-.22.41-.23-.12-.36.06-.52-.05.05-.06.33-.13.34-.25-.35.2-.86.44-1.21.5.19.02.37.09.21.28-.5.46-.55.11-1.04.4.1.13-.48.47.04.45-.14.14-.41.19-.62.26-.04.24-1.01,1.22-.15.78l.09-.07s0,.02,0,.03h0s0,0,0,0c-.06.32-.48.71-.95,1.2-.24.24-.48.5-.7.74-.11.12-.21.25-.29.36-.05.09-.25.29,0,.19l-.24.12c.87-.23,1.5-.27,2.36-.64.17-.03.04.19-.27.38.62-.17.86-.35,1.23-.2-.79.33-.12.22-.72.26.23.02.3.11.49.1.22-.03.56-.13,1.15-.41-.66.44.22.34.7.15-.14-.05-.27-.09-.38-.14.46-.14.79-.18,1.15-.23-.14.16-.29.33-.46.5.79.09,1.81-.33,2.5-.64.54-.28.88-.48,1.41-.17.24-.33-.65-.07-.45-.44.53-.05,1.18.4,1.34.37.75.08.55-.71,1.27-.68-.11-.12-.26-.49.27-.7.53,0,.62.56.35.68-.11.02-.16-.02-.16-.07-.15.06-.33.15-.13.28l.04-.15c.26.11.81.1.67.33.29-.12.15-.23-.09-.31.51.23.79.06,1.12.41-.02-.1-.01-.29.05-.25.27.24.36.23.45.2.1-.04.2-.12.43.04.02.39-.46.25-.01.55.04.35-.29.22-.44.23.23.07.27.33.28.51-.02.23-.08.42-.06.56l-.19-.2c.11.11.15.23.18.37l.24-.23c0,.18.02.31-.09.34.22.13.42-.25.76.04-.04.13.03.31.07.47.04.15.05.31-.12.45-.02-.22-.02-.22-.03-.29-.01-.05-.03-.08-.04-.1-.04-.03-.09,0-.14.02-.11.06-.24.13-.33-.18.07.11.09.26.07.44-.04.03-.08-.01-.11-.06-.03.05-.02.28-.02.39,0,.13.02.22.05.3.05.15.12.21.2.26.17.11.36.18.46.82-.22-.03-.31.62-.23.82-.1-.59.27-.53.48-.24.04.9.28.66.35,1.02-.02-.16-.03-.34-.04-.5.19-.1.24.25.41.55-.09.25-.18-.22-.19.02.34-.04.12,1.55.55,1.72.09.43-.13.58-.03.91.48.17.36.92.95,1.18-.13-.54-.14-.47.23-.45-.27-.21-.56-.43-.8-.63.18,0,.35.01.54.02-.24-.28-.47-.34-.59-.57.26-.04.21.03.18-.42.08.48.2.59.38.67.17.09.31.16.53.55l-.03.95c.09.14.18.26.27.36.08.1.19.22.2.17.06-.03.12-.12.17-.24.15-.19.25-.62.59-.36,0,0,0,0,0-.02h0s-.22-.32-.22-.32c0-.31.04-.42.11-.45.07-.31.18-.58.22-1.06.1.64.22.49.36.54-.1-.33.32-1.45.06-2.33.12-.06.25-.15.38-.27.23-.6.22-1.17.18-1.63-.03-.47-.1-.85.1-1.31.12.43.45-.03.35.87.13-.41.3-.75.15-.81.2-.12-.05-.79.25-.94-.06-.14-.28-.26-.15-.53.06-.01.11.04.11.04-.11-.04.02-.48-.31-.35.49-.23.71-.77.89-1.24.12-.34.29-.77.56-.6.05-.15.1-.42.18-.52.15.07.31.16.46.25-.02.07,0,.14-.05.08.29.47.34-.58.86.06.09.51-.37,0-.27.24-.06.19-.06.3-.03.36.02.03.04.05.09.07.06.03.13.06.21.09.3.11.67.21.8.55l-.14-.03c.25.45,1.07.28,1.67.65,0,0-.06.05-.06.1.61-.12,1.49.15,2.15.31-.31.2-.35.02-.35.36.3.08.12-.49.71-.33.12.23.46.53.41.86l-.55-.2c.05.25.23.32.43.35.25.05.55.07.74.17l-.08.17c1.32.39,1.18-.15,2.32.22l-.21-.2c.14-.2.28-.09.47.04.18.13.41.29.53.15l.69.66c.13-.01.3-.05.48-.09.09-.02.18-.04.28-.06l.14-.03s.12,0,.07-.08c-.14-.24-.26-.45-.38-.65.25.28.49.6.73.96,0,.02.02.05.02.07l-.03.02s-.05.03-.08.04c-.06.02-.13.04-.2.06-.14.04-.3.06-.42.1.31.07,1.04.26,1.24.17-.14-.24-.28-.45-.42-.61.1.15.25.38.34.53,0,.04-.08.01-.19-.04,0-.04,0-.07-.04-.16-.7-.92-1.12-1.59-1.39-2.21.69.46.54-.04.29-.69-.24-.65-.59-1.38-.38-1.79-.14-.21-.28-.42-.4-.62-.13-.21-.25-.43-.31-.53-.14-.27-.26-.54-.38-.83-.23-.58-.46-1.19-.84-1.78-.36.79-.23-.34-.81.11-.21-.25-.26-.36-.24-.41l-.15-1.06c.05-.31.3.17.43.06-.34-.63.1-.42,0-.92-.16.22-.45,0-.6-.39l.04.66c-.88-.6.02-1.06-.88-1.66l.37.13c-.2-.17-.49-.56-.82-.91-.21-.23-.23-.2-.35-.23-.11-.02-.25-.04-.44-.05.06-.06.26-.13.35-.1-.03-.11-.31-.19-.68-.43-.05-.13.18-.27.48-.19l.14.14c-.01-.05-.16-.3.06-.19.04.06.09.16.12.16,0-.07-.09-.3.35-.34l-.17.27c1.18-.15,1.54-1.04,2.42-1.47.17.5,1.09.36,1.55.3v.08c1.31-.38,2.05-1.16,3.17-1.76.05.01.09.03.15.03l8.94.76-9.56-2.99c-.87-.27-2.46.29-3.63.08.19.08.01.41-.2.48-.29-.07-.76.42-.74-.06h.1c-.24-.45-.81-.3-1.26-.29l-.06.63c-1.18-.87-3.15.29-3.74-.61-.3.14-.65.09-.95.21l.06-.33c-.19-.05-.36-.09-.52-.12-.1-.02-.11-.03-.12-.04l-.04-.02c-.05-.02-.11-.02-.24,0,.09-.07.17-.13.24-.2,0,0-.12.09-.31.21-.18.11-.5.29-.67.35-.15.05-.25.05-.23-.04.21-.12.41-.23.61-.33.02-.08.07-.16.12-.24l.08-.1s.04-.02.09-.19c.16-.52.25-1.06.09-1.62.07.03.21.08.21.25.1-.5.53-1.95-.19-1.8.46,0,.09-1.12-.14-1.67l.34.08c-.44-.47-.56-.48-.73-1.13.03-.16.25-.16.19.06.12-.55-.35-.38-.25-1.03l.24.21c-.04-.55-.16-.49-.45-.74-.02-.03-.03-.06-.05-.1l-.54-1.62-.55,1.4c-.13.33-.59.7-.86.62.12.16.19.53-.04.75-.12-.02-.12-.15-.13-.22-.64.66-.3,1.34-.87,1.72-.1-.04-.17-.03-.22,0,.33-.63.62-1.11.62-1.06-.27-.15-.59.33-.75-.27-.02.52.06,1.45-.31,1.88-.04.01-.08.02-.13.02v-.07c-.09.1-.12.22-.12.34-.12.14-.2.23-.28.38-.13-.02-.23.11-.32.28l-.06.13v.03s-.01.04-.02.05c.29.18.17.31.46.34-.03,0-.02-.05,0-.14,0-.02,0-.05,0-.07l.02.02c.04-.11.15-.38.26-.62.03.14.05.27.03.4-.01.11-.11.29-.21.29.16.17.3.41.35.55-.51,0-.78,0-.95-.34,0,.24-.05.45-.09.78-.04.34-.07.82-.1,1.78-.04.31-.06-.11-.08-.38,0-.04,0-.08,0-.12v-.06c.03-.19.05-.26.05-.49-.01.12-.03.23-.05.34l-.03.16s-.02-.01-.04-.02c-.03-.02-.05-.04-.08-.03-.05.02-.11.12-.15.49-.11-.81.15-.71-.04-1l.06-.22c-.03-.54-.06-.66-.14-.72-.08-.05-.21-.02-.37-.07-.16-.05-.35-.19-.48-.44-.03-.06-.06-.12-.09-.2-.03-.09-.06-.19-.08-.29-.04-.21-.05-.43-.03-.68,0,.14,0,.21-.06.26-.29-1.52-1.19-2.88-1.72-4.33l-.67-1.86-.52,1.94c-.15.56-.34,1.11-.6,1.65-.22.58.05.69.22,1.08l-.37.09c.12.23.23.45.36.66.24.87-.97,1.52-.35,2.65l.24-.16c-.03.41.23,1.26-.05,1.22.05.04.27.11.16.28l-.19.03c.14.32.3.63.45.94,0,.78-.77,0-.59,1.13.15.41.81,1.05.89.86-.03-.17.01-.44.19-.5l.18.34c.56-.07,1.17.03,1.35-.88l-.46-.51.23-.24.11.49c.19-.33-.06-.45-.25-.63.13-.07.22-.17.25-.29l-.61-.5c.21-.1.46.2.53-.2-.28-.24-.45.32-.67-.11.22-.32.43-.25.19-.56.14-.06.24,0,.31.13-.2-.28-.13-.77-.43-.91.29-.31-.11-1.01.42-.98-.13-.09-.41-.53-.42-.81.6.53.09-1.02.77-.83-.54-.42-.11-1.33-.28-2.02.04.04.11.13.07.18.12-.35.3-.42.46-.62-.25-.08-.35-.3-.43-.54l-2.13.14c.16.13.32.28.5.37-.24.61-.62-.07-.97.23.34-.16.66.64.89.37-.12.44,0,.34-.3.66.57-.16.22.28.67.43-.07.6-.46.33-.08.81-.06.32-.45-.08-.45-.08ZM46.16,33.3h0c-.04.11-.08.2-.11.26.02-.05.05-.13.1-.26ZM46.68,32.29c-.08.12-.16.27-.24.43-.12-.02-.21-.11-.15-.21.04.09.23-.12.39-.22ZM43.49,33.48c.04-.19.12-.22.2-.22-.03.08-.07.18-.1.32l.03.04c-.05-.04-.1-.09-.12-.14Z"/>
    <path class="cls-1" d="M43.78,33.89s.01.03,0,.05c.03,0,.06,0,.09-.01l-.08-.08-.02.05Z"/>
    <path class="cls-1" d="M27.06,50.42l-.03.02s.07-.04.12-.06c-.04.02-.06.02-.09.04Z"/>
    <polygon class="cls-1" points="50.46 40.68 50.47 40.6 50.35 40.66 50.46 40.68"/>
    <path class="cls-1" d="M33.93,46.76s.06-.02.07-.07c-.03,0-.04.03-.07.07Z"/>
    <path class="cls-1" d="M32.5,43.65l-.08-.41c.02.18.05.31.08.41Z"/>
    <path class="cls-1" d="M31.58,41.67c-.06,0-.11.02-.15.04h0s.15-.04.15-.04Z"/>
    <path class="cls-1" d="M42.36,54.95s0,.01.02,0c.06-.03.03-.03-.02,0Z"/>
    <path class="cls-1" d="M35.55,49.93c.1-.08.19-.16.3-.22-.19,0-.33.03-.3.22Z"/>
    <polygon class="cls-1" points="43.41 53.39 43.41 53.39 43.44 53.32 43.41 53.39"/>
    <path class="cls-1" d="M36.34,49.64c-.2-.04-.36,0-.49.07.16,0,.34,0,.49-.07Z"/>
    <path class="cls-1" d="M34.93,39.58l.1.02s0-.04.01-.05l-.11.03Z"/>
    <path class="cls-1" d="M35.04,39.55l.11-.03s-.09,0-.11.03Z"/>
    <path class="cls-1" d="M35.38,39.45l-.23.07c.08,0,.17.02.23-.07Z"/>
    <path class="cls-1" d="M32.27,39.54v.13s0-.07,0-.13Z"/>
    <path class="cls-1" d="M31.72,39.67c.06,0,.15.05.22.09.04.02.07.04.11.04.07,0,.14,0,.2-.04v-.1c-.14.2-.49-.22-.53,0Z"/>
    <path class="cls-1" d="M29.03,40.39l-.38-.75c-.11.07-.22.22-.53-.18.18.97.28-.11.91.93Z"/>
    <path class="cls-1" d="M30.28,42.73c-.25-.3-.16.1-.23.12.22.15.28.18.23-.12Z"/>
    <path class="cls-1" d="M27.04,52.86l-.55.38c.41-.09.2-.15.55-.38Z"/>
    <path class="cls-1" d="M31.73,50.39c-.02-.06-.04-.12-.05-.18-.08.11-.17.22-.26.34l.31-.15Z"/>
    <polygon class="cls-1" points="33.4 52.27 33.28 52.34 33.74 52.13 33.4 52.27"/>
    <path class="cls-1" d="M47.14,52.16c-.09-.09-.19-.18-.29-.27,0,.16.33.45.29.27Z"/>
    <path class="cls-1" d="M56.52,55.59c.28.27.87.55.98.39-.39-.13-.84-.4-.98-.39Z"/>
    <polygon class="cls-1" points="53.68 37.79 53.9 37.66 53.48 37.77 53.68 37.79"/>
  </g>
</svg>