<svg id="Capa_1" data-name="Capa 1" xmlns="http://www.w3.org/2000/svg" viewBox="0 0 994.83 58.69"><defs><style>.cls-1{fill:#60c0be;}</style></defs><path class="cls-1" d="M988.65,54.79c.66-.21.71-1.24-.76-1.59l-1.59,1.17Z"/><path class="cls-1" d="M980.23,48.33c-1.94.13-4.35.72-3.81,2.55,2.2-.87,2.37-.1,4.8-1.2,1.48.35,2.28,1.43,1.83,1.91.65-.21,2.06,1.17,3.19.48-1.38-1.89-3.69-2.82-6.5-2.75C979.35,48.79,980,48.57,980.23,48.33Z"/><path class="cls-1" d="M842,35.71l.89.35A3.06,3.06,0,0,0,842,35.71Z"/><path class="cls-1" d="M751.18,28.36c.62-.34.85-.6.81-.75C751.42,28,751,28.3,751.18,28.36Z"/><path class="cls-1" d="M736.5,33c.31-.06.56-.14.84-.2A1,1,0,0,0,736.5,33Z"/><path class="cls-1" d="M842,35.71c-.76-.29-1.52-.61-2.27-.93C839.5,35.27,840.89,35.42,842,35.71Z"/><path class="cls-1" d="M959.8,44.88a4.15,4.15,0,0,0,1.39.06c-.42-.08-.82-.16-1.22-.27C959.91,44.74,959.87,44.81,959.8,44.88Z"/><path class="cls-1" d="M880.12,33.45l.62-.23a3.33,3.33,0,0,0,.21-.84A9.56,9.56,0,0,1,880.12,33.45Z"/><path class="cls-1" d="M908.44,19.24c-.82,0-1.05,1.35-1.3,2a2.27,2.27,0,0,1,1.65-1A1.62,1.62,0,0,0,908.44,19.24Z"/><path class="cls-1" d="M955.33,37.11l.88.12C956,37.21,955.6,37.13,955.33,37.11Z"/><path class="cls-1" d="M859.78,35.89a1,1,0,0,0-.26-.51A.75.75,0,0,0,859.78,35.89Z"/><path class="cls-1" d="M42.62,38.64c0-.1-.06-.15-.08-.24C42.42,38.59,42.39,38.71,42.62,38.64Z"/><path class="cls-1" d="M6.42,43.3l.45-.23a4.89,4.89,0,0,0-.15-.78Z"/><path class="cls-1" d="M711.12,34l.11,0C711.92,34,711.54,33.94,711.12,34Z"/><path class="cls-1" d="M459.21,26c3.22.15-4,3.19.71,2.95C459.34,28.59,463,25.5,459.21,26Z"/><path class="cls-1" d="M959.11,44.43c-.39-.14-.79-.27-1.19-.44A5.32,5.32,0,0,0,959.11,44.43Z"/><path class="cls-1" d="M459.92,29h0l.48,0Z"/><path class="cls-1" d="M647.39,17.76a2.25,2.25,0,0,0,.67.67C648.05,18.28,647.91,18.09,647.39,17.76Z"/><path class="cls-1" d="M695.05,33.26,694,32.73A5.29,5.29,0,0,0,695.05,33.26Z"/><path class="cls-1" d="M620.42,23.27a3.78,3.78,0,0,0-1.79.61,1.75,1.75,0,0,0,.33.05A2,2,0,0,1,620.42,23.27Z"/><path class="cls-1" d="M596.5,34.52a4.13,4.13,0,0,0,.53.11c.22-.1.48-.22.71-.35C597.33,34.39,596.91,34.44,596.5,34.52Z"/><path class="cls-1" d="M118.27,45.12A4.17,4.17,0,0,1,116.86,44C117.39,45,113.3,45.7,118.27,45.12Z"/><path class="cls-1" d="M960.07,44.14a1,1,0,0,1-1,.29l.86.24C960.11,44.5,960.2,44.32,960.07,44.14Z"/><path class="cls-1" d="M623.48,34l-1.78.62-1.81.72c.52-.17,1.11-.38,1.73-.63S622.86,34.25,623.48,34Z"/><path class="cls-1" d="M298.79,36c-.29.18-.57.36-.87.53A1.58,1.58,0,0,0,298.79,36Z"/><path class="cls-1" d="M609,41.06a8.55,8.55,0,0,0-2.67.22,1.68,1.68,0,0,0-.31.55C607.06,41.59,608.05,41.33,609,41.06Z"/><path class="cls-1" d="M116.85,44h0Z"/><path class="cls-1" d="M86.63,45a6.16,6.16,0,0,0,2.34.37.93.93,0,0,0,.79-.58c.22-.55,0-1.34.62-1.75,2.62.33,3.14.73,3.22,1.28s-.3,1.19.52,1.81c3.41.08,6-1.44,8.37-1.2.16.32.62.45.05.81a10.33,10.33,0,0,1,3.08-.55c1.16-.07,2.41-.12,3.69-.15a35,35,0,0,0,3.76-.36,10.35,10.35,0,0,0,3.23-1.12,1.31,1.31,0,0,1,.55.41,3.43,3.43,0,0,1-.82-2.47c1.84-.22,3.25-1.5,4.08-.41-1.12.12-1.15.59-1.64,1,.63-.24,1.25-.48,1.86-.76,1,.74.35,1-.52,1.2s-2,.35-1.9,1c3.79-1,7.87-3.12,10.8-3.32.49.76-1.16,1.26-2.42,1.66s-2.13.6,0,1c-1.55.06-3.09.15-4.63.12,3.88,2.15-2.81.22.83,2.59a21,21,0,0,0,6.4-1.38c.83-.28,1.65-.59,2.64-.91.5-.15,1-.3,1.65-.45s1.26-.33,2-.49c1-1.3-.84-1.21.18-2.5a12.06,12.06,0,0,1,4.44-1.63,8.65,8.65,0,0,1,2.9.26c1.68.4,3.15.81,5.56-1.59.5-.86.65-1.84,1.22-2.74s1.57-1.68,3.77-2.25l-.41,2.41c2.63-1.33,3-2.36,3.44-3.27s1-1.71,3.87-2.77c-.48,1.22-3.5,2.93-2.64,2.66,4.15-.77,1.79-2.38,4.27-4l1.45,1.08c1.23-.89,2.45-1.87,3.65-2.89a3.57,3.57,0,0,0,.91-.94l.28-.37a1.37,1.37,0,0,1,.16-.18l.19,0c.28-.05.58-.09.91-.13a1.22,1.22,0,0,1,.29,0l.53.06,1.11.14a18.82,18.82,0,0,1,2.23.36c.73.17,1.48.3,2.21.53-.48.35-1.61.55-.46,1.49a34.46,34.46,0,0,1,10.91,4.81c3.55,2.24,7,4.91,10.48,7.33l3.54.17c.67.34,1,1.2.11,1.1,2.76,1.94.55-.76,2.23-.6,1.74.69,1.95,1.78.66,1.71,2.93.69,7.17,1.51,11.28,2.29s8.19,1.49,11.08,2.73l-1.23.25c4.66,1.24,5.59-2.31,9.76-.63l-.85.2a92.38,92.38,0,0,0,15.32.33c5-.22,9.65-.5,13.63.11.58-1.17,3.07-1.26,5.45-1.56a15.52,15.52,0,0,0,3.22-.64c.87-.35,1.43-.84,1.44-1.59,2.95.13,4.07.34,5.47.44a27.34,27.34,0,0,0,7.13-.62c2.14-.5,2.56-2.71,5-3.86l.57,1.44c1-.89,1.93-1.84,2.87-2.75.82.35,1.64.71,2.46,1l2.2-1.29c-1,.28-2.23.13-2.25-.34a17.75,17.75,0,0,1,5.92-2c1.91-.35,3.49-.35,3.7,0,2.63-1.69,5.23-3.41,7.75-5.19.1.64-1.17,1.54-2.1,2.42,3.7-3.6,1.54,1.06,4.9-2.28-.69,0-.13-1-.19-1.29,2.43-.19,6.9-2.62,10-4.8l-.1,1.28c.75-.39,1.5-.8,2.25-1.22l1.13-.64.53-.31.06-.05.25-.24.15-.14c.05,0,.11,0,.16,0l.38.1s.09,0,.08,0l.09,0,.16.08.31.17,1.25.68c1.66.94,3.36,1.82,5,2.79-2.15-1.8-.68-3.08,1.34-2.13v1.85c1.75-.19-1.75-1.66,1.44-1.31,2.4,1.53.8,2.55-.9,2.22,1.11.39,2.2.79,3.32,1.16-.05.52-.89.37-1.37.82.87-.12,2,.94,3.26,2s2.66,1.95,4,1.63l0,.53c6.88,3.4,10.29,4.29,16,6.67.66-1.24,2.77,0,4.91-.37,4,2.12,8.33,5,13.54,6.71,3.86.63,1.46-.75,3.36-1-.16,1.3,5.05,3,2.07,2.91,3.16.94,5.13,1.54,7.47,2.08a53.72,53.72,0,0,0,9.47,1.34c-.87-.68-1.87-1.11-1.24-1.43,1.58.11,3.51,1.11,3.21,1.69l-.45.07c2.58-.13,5.32,0,8.18.09a77.51,77.51,0,0,0,8.62-.18,41.57,41.57,0,0,0,7.85-1.37,15.58,15.58,0,0,0,5.74-2.83l-.34.26L443.37,43c3.35-1-1.63,1.63,1.07,1.48,6.92-4.84,12.22-4.18,18-7.85,6.2,1.74,17.25-6.66,24.68-6.83l-.69-.7c1.4-1.44,2.24-.28,3.57-.55-.42-.59-2.13-.07-1.24-.91,3.52-1.59,7.17-3,10.9-4.28l2.81-.95.36-.12.1,0,.2,0,.38-.06.19,0c.06,0,.13.08.2.12l.39.29.37.28,1.29.73c7.13,4,14.41,7.94,21.81,11.21,5.46,2.31,4.72-3.1,11,1.37l-2.53.86a142.18,142.18,0,0,1,17.4,4.77c2.88.9,5.74,1.77,8.63,2.51a47.69,47.69,0,0,0,9.08,1.5c-.79.23-.92.71-2.1.46,1.14.86,3.58,1.35,5.77,1.37s4.09-.41,4.13-.89c2,.2.42.91,1.66,1.45,1.4.42,3.16-.1,4.71-.47s2.91-.91,3.73-.38c.28.16-.73.48-1.23.63,1.77-.6,8.39-1.46,6.36-2.4a22.25,22.25,0,0,0,3.45-.8c1.07-.39,2.09-.84,3.07-1.26s1.88-.93,2.79-1.31a16.21,16.21,0,0,1,2.69-.93c1.48-2.39,7.1-2.75,6.68-5,.38,1.09,2.27.59,4.19-.31a28.83,28.83,0,0,0,2.85-1.6,16.16,16.16,0,0,0,2.1-1.63c-.5.95,2.25-.16,1.7,1.09a16.92,16.92,0,0,0,3.24-1.57c.79-.48,1.17-1,.78-1.49a7,7,0,0,0,2,.16,8.5,8.5,0,0,0,1.84-.21c1.17-.3,2.33-.68,3.43-1.06A10.21,10.21,0,0,1,638.3,29a3.29,3.29,0,0,1,2.58,1.21c8.15-1.29,16.36-.23,24.18,1.59-.47,1-2.6.45-4.64,0s-4-.84-4.12.35c3.66.38,6.7.51,9.72.9a34.2,34.2,0,0,1,9.55,2.56c1.79.95-1.4.55-2.15.7,7.6,1.65,14.23,5.31,21.53,6.1-.08.2-.89.2-1.65.17,1.39.32,3.1,1.23,3.22.19l-1.41-.11c-.88-1,.68-1.36,2.51-1.6s3.9-.35,4.11-.71c-1.48,1.16.17,1.76,1.68,2.36s2.87,1.24.6,2.68c1,0,2.25-.26,2.15-1,1.35.42,1.75.89.19,1.43a10,10,0,0,0,4.35-.42,9.36,9.36,0,0,1,3.9-.24c-.05.5-1,.61-1.56,1.16,1.25-.38,2.48-.78,3.89-1.07a20.17,20.17,0,0,1,5-.28c-.22.32.26.7-.94.72a29.87,29.87,0,0,0,9.2-2.3,72.86,72.86,0,0,1,9.26-3.15c-1.28,2.81,2.62-.25,3.69,1.27,1.17-.69,2.28-1.42,3.4-2.14l-1.82-.16c3.15-1.4,5.18-4,8-4.58l-1.88,1.74c1.81-1,3.59-1.95,5.39-2.84-1.13.23-2.28.46-3.42.74,2.62-2.24-1.31-2,2.92-3.3-.37.26.4,0,1.5-.35a7.53,7.53,0,0,1,3.54-.3h0A8,8,0,0,1,766,28.18c.73.47-.06,2.11.41,2.42.59-.88,2.38-1.42,4.28-1.72s3.86-.59,4.82-1.51a1.26,1.26,0,0,0-.4,1.6c.41-.44.83-.91,1.25-1.34,1.52.39,1.73.58,1.51,1.37,2.21.09,1.87-.5,1.62-1s-.39-.93,2.29-.31c-.42.08-.23.28-1.11.44,5.32.66,10.5,0,15.36,1.44.56,1.06-.53,1-1.59.87s-2.07-.19-1.37.71c7,.71,15,.72,21.77,3l-1.22-.54c1.64-2.31,4.74,2.64,8.53,2.4-.9,0-1.51,1.11-1.2.89A28.44,28.44,0,0,0,824.53,38c1.28.28,2.62.53,4,.72,2.86.37,6,.64,9.8.91l-1,.5c2.74,1.19,7.52,1.68,10.63,2.38,1-.55,2.8-.27,1.82-1.37,4.62,2.48,9.46,2.23,14,1.52,1.13-.14,2.26-.38,3.38-.57l3.32-.53a28.38,28.38,0,0,1,6.79-.14c-1,.31-2.41,1.08-1.56,1a43.77,43.77,0,0,0,7.35-2.81c-1-.86-1.24-.29-3-.6a13.42,13.42,0,0,1,4-3c-1.3,1.07-1.14,1.5-.39,1.63a12.73,12.73,0,0,0,2.93-.12c-.4-.17-.15-.78-.44-1,2.27-.16,2.08-.82,2-1.54s-.12-1.6,2.33-2.69l.16.64c1.33-1.47,2.13-3.26,3.88-4.38,1.47.53-1.21,1.73-.6,2.68a21.7,21.7,0,0,0,2.63-3.42c.87-1.11,2-2.09,3.4-2a21.41,21.41,0,0,0-3.15,2.61c.78-.05,1.36-.08,1.81-.15a4.78,4.78,0,0,0,1.1-.19l.88-.3a6.71,6.71,0,0,1,1.08-.33l-.18,0a19.2,19.2,0,0,1,4.2-.33l-1.12-.24a5.2,5.2,0,0,1,1-1.22,4.65,4.65,0,0,1,1.22-.69,6.82,6.82,0,0,1,2.74-.36,24.84,24.84,0,0,0,6.53,0c-2.55.48-2.74.83-2.47,1.1s1.08.62.75,1.32c1,.65,2.57,1.61,2,1.88a3.76,3.76,0,0,1,2.91.73,5.58,5.58,0,0,0,3.83.76c0,.5,2.31.92,1.38,1.88,3,.71-.37-1.05.09-1.53,5,.09,9.54,5.76,16.62,6,5.74,1.17,7.32,0,12.63,1.13,1.42,1.37-2,1.14-2,1.14a16.39,16.39,0,0,0,7.36,2.81c-.67.2-.26.74.33,1.55,2.11.66,2-1.14,4.48.56a7.73,7.73,0,0,1-2.76,1c2.6.5,5.32.56,8,1.1.37,1.05-2,.63-3.06.82,3,.71,7.61,2,9,1.12l-1.64-1.13c1,.32.12,1.28-.73,1.22-2.8.07-3.34-1.76-3.3-2.27l1.9.39c-.83-3.38-7.37-2.3-10.93-3.82L962.63,41l-4.31.22c-.6-.81-.73-2.1,1.17-1.71-2.23-1.94-2.56-.18-4.38-2.09-.18-.26,0-.31.22-.3l-2.75-.38c.65-.22.1-1.53,1.55-.66-4.13-2.84-7.88-1.31-9-3.43l.43,0c-6.56-1.72-1.15,1.2-6.52,1.09L937.15,29,936,30.22c-.63-.3-1.88-.89-1.42-1.37-2.79.06.18.77-1.58,1.17-2.64-2.49-8.86-2.66-8.71-5.2-1.53.66,2.68,2-.95,1.46,0-1.4-1-1.67-2.36-1.83a8.62,8.62,0,0,1-4.29-1.17c1.28-1.07,4,.52,1.27-1.56-1.25.83-2.69.32-4.3-.31s-3.41-1.39-4.86-1.18c-.08.89-1.59,1.1-3.63,1.35a17,17,0,0,0-6.7,2.16c0-.36-2.15.35-4.56,1.76s-4.92,3.34-6.61,4.24l-.11-.31c.29.94-.39,2-1.46,2.93a12.67,12.67,0,0,1-1.81,1.34c-.66.38-1.33.76-1.93,1.16-.35-1-.08-1.67,1-2.72-.74.35-1.46.73-2.2,1.08-.34.74-1,1.33-2.53,2.08.08-.49.15-1,.2-1.51-1.6.51-3.16,1.39-5,2q-.69.24-1.41.45c-.49.1-1,.19-1.52.26a11.48,11.48,0,0,1-3.32,0c-.09.64.91,1.48,1.34,2.29s.26,1.61-2.33,2.19c-.23-.68-.47-1.85.84-2.21a4.43,4.43,0,0,1-2.42.41c.67-.4,1.32-.85,2-1.27-2.18-.39-1.08,1.07-2.84,1,0-1-1.3-.69-1.06-1.48.44-.1,1.51.39,2.16,0-1.95-.16-4.28-.7-5-1.51.15.57,0,1.33-1.46,1.41-3.69-.09-1.2-1.25-3.3-1.88a4.26,4.26,0,0,1-2,.28c-.71,0-1.33.15-1.43.88-1.08-.12-1.2-.82-1.57-1.26a27.34,27.34,0,0,1-4.93-.11c-1.73-.12-3,0-2,.91l.47.18h-.32a25.63,25.63,0,0,1-9.62-1.65,70,70,0,0,0-9.33-2.82l.15-.47c-3.81-.48-8.27-2-11.18-1.61-1.09-.29-2.35-1.55-1.74-2-2.94-.35-3.37.09-7.33-1.64,3.07-.18-.83-1,3.1.06-3.63-1.27-4.35-2.25-8.67-1.7,1.62-1-2.58-2.13-4.5-2,.86.45,1.71.86,2.55,1.33a53,53,0,0,1-5.66-.88l1.21-1.53c-3.88-1.51-7.68-1-11.12-.38a34.79,34.79,0,0,1-5,.66,10.75,10.75,0,0,1-4.86-.8c-1,.73.12.74,1.27.9s2.33.34,1.42,1.08a25.88,25.88,0,0,1-5.5-.83,13.82,13.82,0,0,0-3.7-.59,6.38,6.38,0,0,0-4.84,2,9,9,0,0,1-4.63,2.67c.87.3,2,1.53-1.38,3.52-3.37,1.23-5.09-.42-3.19-1.83.77-.42,1.25-.41,1.29-.21,1-.67,2.37-1.54.76-1.54l-.21.74c-2,.15-6.46,2.38-5.81,1-2.19,1.68-.64,1.38,1.32.79-4.54,1.19-6.41,3.14-10.71,4.25.76,0,1.63.45,1,.7s-1.42.41-1.91.58a8.56,8.56,0,0,0-1.17.45,2,2,0,0,0-.94.8c-.31.5-.32,1.1-2.43,1.82-1.33-.14-1.23-.72-1.33-1s-.34-.32-2.39.43c-2.7-.13-.78-1.44.08-2.11a7.76,7.76,0,0,1-1.31.55,9.26,9.26,0,0,1-1.34.25,9,9,0,0,1-2.54-.06c-1.61-.2-3-.72-4.06-.8l2-.52a10.24,10.24,0,0,1-3.13.3c.38.41.76.82,1.14,1.2-1.19-.2-2.2-.27-2.15-.75-1.28.73.9,2-1.68,3-1.59-.69-5.15.15-5.5-1.52,2.55.62,2.45.18,2.27-.33s-.44-1.12,1.69-1a7.06,7.06,0,0,1-3-.37c-.16-.2.21-.3.55-.35-4.56-2.13-2.47,1.49-7.57.4.83-.72-.79-1.91-1.65-1.93,2,.48.64,1.71-1.43,1.86-3.1-1.52-3.71-.49-5.42-1.07.62.31,1.25.6,1.88.89-.92.67-2.55.06-4.94-.4,0-.71,2.24.2,1.51-.35-3,.68-5.27-3.4-9.17-3.66-1.46-1.15.39-1.63-.94-2.52-4.4-.33-3.95-2.69-8.58-3.27.87,1.55,1.17,1.35-2.23,1.42L679.89,27l-5.07.08c2.12.74,4.72.84,5.91,1.47-2.46.17-2.14,0-1.46,1.26-2.29-2.7-6.06-1-9-3.26l1-2.78c-2.37-1.47-4.84-1.8-7.5-2.09a43.55,43.55,0,0,1-9-1.48l2.17,1c-.59.48-1.68.3-2.92,0a14.91,14.91,0,0,0-3.85-.52c.34-1-1.07-1.49-2-2.22,0,.36-1.32.25-2.78.28s-3,.33-3.36,1.29c-1.08-.47-2.18-.83-3.31-1.25a10.33,10.33,0,0,0-3.67.47,12.68,12.68,0,0,0-2.55,1.3c-.77.45-1.51,1-2.39,1.43A14.31,14.31,0,0,1,626.7,23a1.29,1.29,0,0,0,.31-1.52c-.06-.4.13-.87,2-1.62-1.93.33-3.65.71-3.5,1.36-.63-.15-1.84.51-3,1.28a15.24,15.24,0,0,1-1.85,1,3.18,3.18,0,0,1-1.63.4c-.56.72-.43,1.71-2.32,2.51-.29-.09-.19-.45-.19-.45.18.45-2.64,2-.55,2.19-3.19-.21-6.65,1.67-9.87,3.47s-6.43,3.41-9,3A33.32,33.32,0,0,1,586.33,38c.18-.32,0-.49.58-.47a6.44,6.44,0,0,0-1.42,0,3.46,3.46,0,0,0-1,.23,4.26,4.26,0,0,0-1.28,1c-.75.72-1.67,1.5-4.33.8-1.29-.9-.56-1.06.26-1.09s1.76,0,1-.31c-.29-1.63-1.77-1.6-3.67-1.56s-4.25,0-5.76-1.28h.87c-1.19-.82-2.85-.91-4.8-1a22.48,22.48,0,0,1-6.37-.95s.3-.21.17-.46c-3.49.7-9.4-.53-13.77-1.51,1.71-.76,2.13,0,1.73-1.49-1.95-.46-.09,2.16-4,1.23-1-1.07-3.53-2.59-3.43-4l3.56,1.15c-1.23-2.31-4.59-1.52-6.34-2.49l.5-.65c-5.45-1.73-6.23.09-11.92-2.32l.37.78c-3.87.55-2.21-2.07-5.88-2l-.16-2.22a79.21,79.21,0,0,1-11.69-2.74c2.67-.33,7.23.89,10.2,1.24-2-.88-6.86-2.9-8.3-2.52.88.21,2.1.23,2.77.87a15.25,15.25,0,0,1-5-.41,20.42,20.42,0,0,1-3.06-1c-.55-.21-1.1-.45-1.67-.7l-.21-.09-.1-.05a.53.53,0,0,0-.12,0l-.45.18-.92.34c.15-1.07-.64-1.35-2.21-1.11-.88.16-1.46.26-2.19.45s-1.5.44-2.3.7c-3.23,1.05-6.89,2.37-8.91,1.54-6.87,4-14.81,4.83-23.31,8.21,4.07,1.67-2.47,1-.89,3.67-1.93.92-2.7,1.16-2.95,1l-6.69.52c-1.74-.3,1.67-1.33,1.25-1.91-4.46,1.4-2.29-.53-5.46-.23,1,.81-1,2-3.61,2.56l4,0c-5.54,3.78-6.17-.46-11.77,3.33l1.62-1.62c-1.49.85-4.4,1.92-7.23,3.21s-5.43,2.74-6.52,4.38c-.65-.17-1.58-.75-.35-1.37-3.59,1-7.16,2.5-10.78,3.2s-7.28.56-9.89-.81l.69-.61c-1.34-.07-2.64.84-4.14-.36.17-.27.74-.57.14-.78-.77.06-4,.18-5.75-.88l1.85-.28c-7-3.31-11.89-1.84-18.18-3.67.78-2-4.6-4.91-7.24-6.41l.22-.25c-8.12-3.7-14.64-4.42-22.45-7.47-1.74-2.25-5.45-4.51-9.47-7l-3.12-2c-1.9-1.19-3.71-2.37-5.56-3.57-.46-.28-.91-.64-1.37-.86l-1.4.75-2.77,1.45L323.2,9.77l-.67.33-.38.15-.75.3c1.31-.3.66,1.6-.52,2.52-1.93.58-4,4-4.7,2.06l.63-.3c-2.25-1-5.49,1.34-8.26,2.71l.75,2.58c-4.51.16-9.08,2.74-13.38,5s-8.27,4.15-10.89,3.18a14.35,14.35,0,0,1-2.77,1.58,22.51,22.51,0,0,0-2.8,1.53L279.17,30c-5.24,1.09-7.77,1.54-14.18,3l1.14-1.23a6,6,0,0,0-3.77,2.66c-1,1.21-1.95,2.42-3.68,2.66l-1.28-2a44.35,44.35,0,0,1-4.89.23l-4.9-.13a33.28,33.28,0,0,0-9.68.8,1.3,1.3,0,0,1,1.36-1c-1.51-.08-4.41-.53-6.78-.73s-4.27-.07-3.91,1.46c.13-1.82-6.46-1.06-10-1.11l.83-1.22a29.29,29.29,0,0,1-3.44,1,11.68,11.68,0,0,1-4.08-.33c-.85-.52-.43-1.32.67-.59-2.75-1.77-2.84.42-6.19-1.84l1.7-.23a8.55,8.55,0,0,0-2.85-1c-.63-.05-1.15.15-2.22.17-2.18-.45-5.58-3.41-5.4-4.76A4.78,4.78,0,0,1,193,25c0-.55.8-.44,1.21-.37a17.83,17.83,0,0,0-6.49-3.18c-1-.31-1.89-.58-2.79-.94a10.26,10.26,0,0,1-2.57-1.58,1.09,1.09,0,0,0-.35-1.05,46.54,46.54,0,0,1,7.57,3.78c.63-1.13-2.86-3.14.8-3.28-.84-.15-1.82-.31-2.89-.47s-2.24-.33-3.41-.52a24,24,0,0,1-6.47-1.75,1.65,1.65,0,0,1-.37-.58h.44a6,6,0,0,0-2.49-.53A17.55,17.55,0,0,0,172,13.34c.08-.57-1.93-1.05-4.12-1.46l-1.69-.29-.43-.07c-.14,0-.29-.09-.4,0l-.7.51c-.92.66-1.78,1.28-2.46,1.74.42.56-.23,1.38-.49,1.88s-.13.69,1.56.22c-.41.17.36-.44,1.89-1.58l.53-.44.24-.21c.07-.06.16,0,.23,0l-.17.1,3.15.5,1.85.3c.63.12,1,.22,1.5.33a10.31,10.31,0,0,1-1.31.19,14.57,14.57,0,0,1-1.75,0,9.64,9.64,0,0,1-1.83-.27c-.32-.08-.66-.18-1-.3-.18,0-.37-.18-.54-.14l-.49.18c-.92,1.74-1.58,3.34-1.92,4.09-3.3-.07-7.85,1.68-9.08,1-2.1,1.82-4.8,3.59-7.23,5.3s-4.61,3.4-5.69,5.3c-1.31.95-2,0-2.66-.16.74-.58,1.74-1,2-1.5a37.74,37.74,0,0,1-5.2,2.73c-1.83.87-3.36,1.72-3.46,2.7-2,.18-1.61-.39-1.33-.77s.41-.51-2.14.29l.55-.72c-5.38-.12-9.28,1.67-13.68,3.18-1.09.35-2.2.7-3.35,1a25.85,25.85,0,0,1-3.59.56,17.32,17.32,0,0,1-8-1.32c.8.29,1.2.43,1.34.75-3.34-.63-6.69-1.19-10-2-1.63-.39-3.25-.8-4.81-1.33a32.15,32.15,0,0,1-4.56-1.91c-3-1.54-6.06-3.67-9.61-5.33a34.84,34.84,0,0,0-5.55-2.09,47.65,47.65,0,0,0-5.84-1.22,7.61,7.61,0,0,0-4.39.64c-.92.5-1.57,1.14-2.69,1.87l-1.24-1.25c-1.28.92-2.47,1.88-3.62,2.86-5.16,3-10.73-.36-17,4.24l1.22.67c-2.57.65-7.76,3.2-7.71,2-.2.26-.49,1.28-1.63,1.1l-.33-.72-5.73,3.32c-5,1-.24-3.22-7.26-1.06C9,37.93,4.81,41.41,6,41.59c1.06-.31,2.83-.42,3.16.31L6.87,43.07c.3,2.35-.77,5.22,5.55,4.84L16,45.21l1.66.64-3.39,1.2c2.27.37,3.2-.93,4.37-2a2.79,2.79,0,0,0,2.09.62L24,42.24c.77.71-1.21,2.31,1.62,1.9,1.53-1.6-2.43-1.35.44-3,2.27.36,2,1.36,4-.25.51.47.14,1-.68,1.54,1.8-1.36,5.27-2.07,5.93-3.59,2.43.57,6.73-2.59,7.22-.43a14.92,14.92,0,0,1,4.86-3.53c-1.29,1.82.47,1.28,2.54.66s4.27-1.21,4.26.28C55,34.33,57,33.49,59.13,33s4.33-.48,6.23-.84c-.23.15-.67.47-1,.34,2,.43,2.35,1.32,3.34,2.08.42-.89,1.41-1.2,2.63-1.21s2.67.32,3.88.34c.84,1.6.12,1.84-.78,2s-1.95.17-2,1.17c.33-.73,1.56-.48,2.82-.12s2.47.72,2.33-.15c1.6,2.36,1.62,1.65,2.08,3.78.81-1,1.44-.73,2.24-.31a4.87,4.87,0,0,0,3.2.74c3.41,2.48.26,2.63,4.78,3.16.93.64.4.92-.4,1A11.32,11.32,0,0,1,86.63,45Zm89.21-20.88v0c-.72-.23-1.35-.35-1.74-.46C174.45,23.8,175,23.89,175.84,24.14Zm6.87,2.79a26.47,26.47,0,0,0-2.93-1.37c-.05-.55.4-.9,1.09-.59C180.37,25.09,181.88,26.09,182.71,26.93Zm-14.4-14.64c2.15.18,2.85.58,3.08.91-1-.14-2.15-.3-3.63-.47-.06,0-.18.09-.23.14A1.35,1.35,0,0,1,168.31,12.29Z"/><path class="cls-1" d="M165.2,14.33c-.21.18-.32.33-.6.54.35-.1.68-.19,1-.31.14-.28.29-.58.43-.82C165.75,13.92,165.46,14.14,165.2,14.33Z"/><path class="cls-1" d="M843.08,36.12l-.16-.06a1,1,0,0,1,.31.25C843.13,36.23,843.14,36.18,843.08,36.12Z"/><polygon class="cls-1" points="290.51 39.81 290.39 39.48 289.81 40 290.51 39.81"/><path class="cls-1" d="M886.61,37.44a1.09,1.09,0,0,0,.72,0A1.57,1.57,0,0,0,886.61,37.44Z"/><path class="cls-1" d="M901.67,27.38l1.14-.13,1.13,0a11.22,11.22,0,0,0-1.3,0C902.27,27.27,902,27.32,901.67,27.38Z"/><path class="cls-1" d="M914,27.52a1.71,1.71,0,0,0,.38-.53l0,0Z"/><path class="cls-1" d="M693.3,42.56a4.24,4.24,0,0,0-.56-.11C691.37,42.31,692.27,42.49,693.3,42.56Z"/><path class="cls-1" d="M760.76,30.33c-.59.44-1.14.93-1.77,1.31C760.12,31.35,761,31.08,760.76,30.33Z"/><path class="cls-1" d="M623.88,33.86s0,0,0,0l-.39.16Z"/><path class="cls-1" d="M756.15,32.71A7.27,7.27,0,0,0,759,31.64,8.81,8.81,0,0,0,756.15,32.71Z"/><path class="cls-1" d="M971.76,49.54l.63.3a.26.26,0,0,1,.16-.18Z"/><path class="cls-1" d="M972.55,49.66l.78.11C973,49.65,972.7,49.55,972.55,49.66Z"/><path class="cls-1" d="M975,50l-1.64-.24C973.85,50,974.48,50.26,975,50Z"/><path class="cls-1" d="M954.16,42.2l-.38.4A.71.71,0,0,0,954.16,42.2Z"/><path class="cls-1" d="M948.69,40.29c1.25.6,2.86,2.24,4.78,2.62l.31-.31C952.66,43,950.22,40,948.69,40.29Z"/><path class="cls-1" d="M928.3,25.86,932.7,28c-.6-.8-1.39-1.88.72-1.22C928.27,23.05,934.18,28.31,928.3,25.86Z"/><path class="cls-1" d="M913.67,20.39c2.87.27.12-.8.3-1.07C912,19.53,911.61,19.6,913.67,20.39Z"/><path class="cls-1" d="M810.56,27l.57-1.18C809.1,25.53,811,26.32,810.56,27Z"/><path class="cls-1" d="M789,29.59l1.78,1,1.05-1C790.88,29.54,789.93,29.59,789,29.59Z"/><path class="cls-1" d="M777,19.89l1-.2c-1.21.17-2.4.34-3.6.59C775.22,20.12,776.11,20,777,19.89Z"/><path class="cls-1" d="M600.07,31.7l1.18,1.18C602.32,32.07,601.78,30.36,600.07,31.7Z"/><path class="cls-1" d="M527.88,22.23A4.41,4.41,0,0,0,524,20.09C525.58,20.86,527,22.09,527.88,22.23Z"/><polygon class="cls-1" points="304.95 20.08 306.1 18.93 303.69 20.59 304.95 20.08"/></svg>