<svg id="Capa_1" data-name="Capa 1" xmlns="http://www.w3.org/2000/svg" viewBox="0 0 377.21 152.38"><defs><style>.cls-1{fill:#536472;}.cls-2{fill:#fff;}.cls-3{opacity:0.2;}.cls-4{fill:#fffcf6;}</style></defs><path class="cls-1" d="M56.81,18.43c-15.07-3.29-30.4,9.92-37.31,28.19S13,86.88,17.42,106.5c1.83,8.21,4.55,16.56,9.69,21.66,5.72,5.69,13.31,6.31,20.43,6.68q116.4,6.07,232.92.91c15.88-.7,32.07-1.63,47-8.9A63.27,63.27,0,0,0,361,84.52c5.6-23.84-3.6-52.29-20.42-63.1-9.72-6.24-20.84-6.84-31.61-7.33L140,6.41c-27.33-1.24-55.53-2.29-81,11"/><path class="cls-1" d="M62.77,22.73c-1.09.42-.21,1.22-.27,1.47C64.12,23.15,62.6,22.49,62.77,22.73Z"/><polygon class="cls-1" points="80.18 13.55 79.95 14.07 82.55 12.32 80.18 13.55"/><path class="cls-1" d="M98.64,10.45c-1-.85-2.69-.58-4.56-.15a20.79,20.79,0,0,1-5.57,1.12l-.62-.32-1.2,1.78C90.56,11.81,95.72,10.22,98.64,10.45Z"/><path class="cls-1" d="M108.84,13.9c-.63-.71,2.12-.73-2.31-.12.23.07.29.11.43.16C107.36,13.91,107.91,13.89,108.84,13.9Z"/><path class="cls-1" d="M107,13.94c-1.95.14,1.3.56,0,0Z"/><path class="cls-1" d="M116,13.31c-.87.22-1.74.43-2.6.68.54.4,2.86.52,2,.83C118.09,14.46,117.55,14,116,13.31Z"/><path class="cls-1" d="M118.51,11.93l-1.36.28C117.39,12.39,117.74,12.46,118.51,11.93Z"/><path class="cls-1" d="M114.27,12.8l2.88-.59c-.38-.3-.42-.92-1.32.21C116.06,11.86,115.49,12.4,114.27,12.8Z"/><path class="cls-1" d="M112.65,12.54c-1.46-.38-3.37-.6-.76-1.31-2.51.17-3.55.62-3.35.95S110.16,12.72,112.65,12.54Z"/><path class="cls-1" d="M99.42,8.41c-.67-.14-1.35-.23-2-.35l-1.64.82C96.57,8.48,99.6,9,99.42,8.41Z"/><path class="cls-1" d="M132.39,14.65c.18-.39-.85-1.11-1-1.63l-2,.39C130.38,13.72,132.28,14.05,132.39,14.65Z"/><path class="cls-1" d="M131.36,13l3-.57C131.7,12.26,131.21,12.57,131.36,13Z"/><polygon class="cls-1" points="119 9.83 114.21 11.28 119.92 9.82 119 9.83"/><polygon class="cls-1" points="143.66 15.19 141.93 16.05 144.99 14.78 143.66 15.19"/><path class="cls-1" d="M151.17,15.37c-1.27.72,1.65,1.38.31,1.8A18.56,18.56,0,0,0,156.9,16,12.16,12.16,0,0,1,151.17,15.37Z"/><path class="cls-1" d="M159.57,15.27a20.62,20.62,0,0,0-2.67.75A10.81,10.81,0,0,0,159.57,15.27Z"/><path class="cls-1" d="M139.35,12.87a3.27,3.27,0,0,0,2.28,1.25l-1.12-1.18Z"/><path class="cls-1" d="M140.47,12.9l0,0,2.52.17Z"/><path class="cls-1" d="M139.05,12.85l.3,0C139.24,12.75,139.17,12.71,139.05,12.85Z"/><path class="cls-1" d="M126.66,11c1.73-.58,5.37-1.14,1.91-2.22C127.31,9.53,129.28,10.14,126.66,11Z"/><path class="cls-1" d="M137.67,11.37l-3.13-.4c.05.31.6.76-.27,1Z"/><polygon class="cls-1" points="139.23 11.08 137.67 11.37 138.83 11.52 139.23 11.08"/><path class="cls-1" d="M154.22,14a15.44,15.44,0,0,1,4.56-.41,45.79,45.79,0,0,0-5.42-.59C153.1,13.32,152.29,13.92,154.22,14Z"/><path class="cls-1" d="M147.55,13.35l.3,0C147.67,13.19,147.52,13.16,147.55,13.35Z"/><path class="cls-1" d="M175.33,14.32l-.26-.22a1.07,1.07,0,0,1-.07.19Z"/><path class="cls-1" d="M153.07,12.75a4.64,4.64,0,0,0-2.95.27,31.25,31.25,0,0,1,3.24,0C153.48,12.82,153.51,12.71,153.07,12.75Z"/><path class="cls-1" d="M164.21,15c-.69-.27-1.49-.5-2.32-.73C162.57,14.61,164,15.23,164.21,15Z"/><path class="cls-1" d="M148.29,13.63l-.2,0C148.52,13.94,148.47,13.81,148.29,13.63Z"/><path class="cls-1" d="M148.29,13.63a8.73,8.73,0,0,0,1.83-.61,16,16,0,0,0-2.27.28A1.88,1.88,0,0,1,148.29,13.63Z"/><path class="cls-1" d="M180.67,7.29c-.29,1-3.89,1.84-6.91.58-3.06.65-1.24,4.18,1.31,6.23.11-.45.13-.87,3.27-1.35-1.06-.62-6.84-1.65-4.17-2.48,4.14-.36,3.36.52,5.34,1.17-1.65-1.39,5.33-1.67,4.52-3.63l-3.65.51C180.33,8,181.66,7.61,180.67,7.29Z"/><path class="cls-1" d="M169.15,13.73l-1.29.07a15.31,15.31,0,0,1,4.36,1.62c2.16-.41,2.62-.78,2.78-1.13l-6.3-.43Z"/><path class="cls-1" d="M162.11,13.54c1-1.1,4.15-1.44,2.32-2.76-3.76-.09-2.67.83-4.94,1.23,6.08,0-1.77.55,2.58,1.4a27.53,27.53,0,0,1-3.29.15c1.09.19,2.13.41,3.11.66l-.13-.07h0v0c-.26-.15-.34-.24-.05-.15l.13,0a1,1,0,0,1,.29-.41c1.75.31.26.31-.29.41,0,.06-.08.11-.08.17l0,0,6.1-.35A36.41,36.41,0,0,0,162.11,13.54Z"/><path class="cls-1" d="M131.89,6.46c.19.11.18.19.19.27C132.47,6.61,132.63,6.52,131.89,6.46Z"/><path class="cls-1" d="M134.36,7.25a3.45,3.45,0,0,1-2.26.41c-1.23-.4,0-.55,0-.93-.88.27-3.06.7-.37,1.36l.43-.14c2.43.49,5.5,2.05,5.07,2.19A8.57,8.57,0,0,0,134.36,7.25Z"/><path class="cls-1" d="M148.42,10.11l5.09-.33L151,8.67l.11.6C148.21,8.91,148.8,9.67,148.42,10.11Z"/><polygon class="cls-1" points="175.88 14.91 175.15 16.09 178.15 14.52 175.88 14.91"/><polygon class="cls-1" points="182.46 15.07 182.17 16.1 183.93 15.55 182.46 15.07"/><path class="cls-1" d="M242.52,143.4l-1.48.34A8.06,8.06,0,0,0,242.52,143.4Z"/><path class="cls-1" d="M253.31,143.15l.25-.53C253.07,142.93,252.87,143.14,253.31,143.15Z"/><path class="cls-1" d="M338.54,28.14a10.58,10.58,0,0,1,.55,1.39c.15.49.28.94.4,1.29.25.71.5,1.05.84.55l.38-1.19a6.39,6.39,0,0,1-1.28-1.06A9.63,9.63,0,0,1,338.54,28.14Z"/><path class="cls-1" d="M338.36,120.33l.71-.12c.16-.65.31-1.25.43-1.79C339.17,119,338.79,119.66,338.36,120.33Z"/><path class="cls-1" d="M340,125.07c-1,.42-1.94.82-2.94,1.17A12,12,0,0,0,340,125.07Z"/><path class="cls-1" d="M183.56,145.59l-1.74,1.17C184.54,146.74,183.34,146.16,183.56,145.59Z"/><path class="cls-1" d="M249.8,17.7a23.85,23.85,0,0,0,4.62.91C252.2,17.85,250.43,16.78,249.8,17.7Z"/><path class="cls-1" d="M246.4,131.09c-.9.23-1.28.48-1.25.73C246.08,131.6,246.6,131.36,246.4,131.09Z"/><path class="cls-1" d="M259.82,18.85c-.32-.13-.64-.2-1-.32a23,23,0,0,1-4.43.08A7.85,7.85,0,0,0,259.82,18.85Z"/><path class="cls-1" d="M7.69,75.35c.06-.16.09-.36.16-.51C7.69,74.79,7.68,75,7.69,75.35Z"/><path class="cls-1" d="M41.91,25.93c-.4.34-1.14.72-1.79,1.2A9.65,9.65,0,0,0,41.91,25.93Z"/><path class="cls-1" d="M208.88,16.77c-1.4,0-.23.12,0,0Z"/><path class="cls-1" d="M202.31,11.92c.3-.11.53-.27.58-.53A1,1,0,0,1,202.31,11.92Z"/><path class="cls-1" d="M274,12.33h.12C273.75,12.1,273.82,12.15,274,12.33Z"/><path class="cls-1" d="M206.81,16.15a12,12,0,0,0,1.76.42A15.38,15.38,0,0,0,206.81,16.15Z"/><path class="cls-1" d="M207.07,16.71l-1.22-.17C205.67,16.72,205.82,16.85,207.07,16.71Z"/><path class="cls-1" d="M210.83,16.8a16,16,0,0,1-2.26-.23c.28.09.39.16.31.2Z"/><path class="cls-1" d="M84.39,140l-.3-.12C82.66,140.26,83.29,140.2,84.39,140Z"/><path class="cls-1" d="M365.83,52.28c0-.06-.06-.09-.09-.15a1.77,1.77,0,0,0,0,.23Z"/><path class="cls-1" d="M367.72,57.42a8.91,8.91,0,0,1-1-1.41,6.23,6.23,0,0,1-.6-1.22,8.4,8.4,0,0,1-.35-2.43c-.95.83-1.9,1.64-2.86,2.42.81.41,1.63.83,2.45,1.27S366.93,57,367.72,57.42Z"/><path class="cls-1" d="M216.67,144.33l3.55,1c-4.23,1.78-7.32,1.24-4,2.64.43-3.59,13.72-.64,14.13-4.26l2.35.71c-.67,0-.77.19-1.43.17,4.57,1.61,3.3-2.66,9.13-2.32,2,.22,3.47.7,2.1,1.16l4.5-1c1.31,0,1,.67-.3.64l6.89-.5-.05.1a35.4,35.4,0,0,1,4.24-2c1.77.45-.86.41-.4.84l3.79-1c1.59.87-1.55,1.89-4.19,1.85,3.7,3.46,3.14-1,10.91.8l-3.59.59c2.41,2,5.2,1.1,9.33,2.21-1-.63-8.3-2.87-4.18-3.94a8.77,8.77,0,0,0,4.93-.52c.07,1.27,2.24.87,5,.69l-.11,1.7c2.93-.61,2.67-1.47,4.37-2.31,3.33,0,4.1,1.27,5,2.33,5.41-.06-3.85-1.87,2.5-2.59,4.52.32,7.69-.63,12.94-2.39,3.26.11-.4,1.11.81,1.42.88-.58,1.75-1.2,2.61-1.8.69-.09.54.36.46.59,2.28-1-.09-1.69,3.48-2.89.29-1,2.29-.75,4.77-.78a16.93,16.93,0,0,0,3.9-.39,7.34,7.34,0,0,0,3.42-1.77c1.26,0-.15,1.18.41,1.66,1.41-.95,2.42-1.59,3.18-2.14s1.31-1,1.82-1.37a15.38,15.38,0,0,0,1.53-1.4c.56-.6,1.28-1.27,2.17-2.37l2.23-.67c.74-.24,1.46-.52,2.2-.78-1.75.4-1.91-.33-1.39-1.51a45.08,45.08,0,0,1,2.73-4.4c-1.28.19-2.35.31-3,.48l1.93-2,1.81-2.09c.68-.21.65.58.4,1.7a10.69,10.69,0,0,0,.52-1c1-.4,1.39-.29,1.55.17a3.77,3.77,0,0,1-.25,2.07c-.76.19-1.52.36-2.25.51-.44,1.67-.89,3.37-.05,4a7.1,7.1,0,0,1,1.28-1.52c-.13.45-.18.79.07.82s.54-.66,1-1.61l2.25.58-.23-.79c1.14-.69,2.21-1.46,3.32-2.21s2.14-1.61,3.21-2.43c.59-1.4,1.12-2.76,1.57-4.17s.89-2.83,1.29-4.36c.22-.76.45-1.52.7-2.3s.47-1.61.76-2.44c.58-1.65,1.15-3.46,1.94-5.4.29,2.49,1.82,1.44,3.24,2.27a3.76,3.76,0,0,0-1.57,1.61,22.36,22.36,0,0,0-1.1,2.51c-.38.93-.72,2-1.22,3a14.54,14.54,0,0,1-1.82,2.88c1.54-1.86,1.87-1,1.74-.31.58-1.31,1.18-2.58,1.66-3.91s1-2.62,1.4-4c1.06.8,1.78-1,3.17-2.79-1.56.16-1.25-1.4-.62-3.45.29-1,.71-2.18,1.05-3.29a18.76,18.76,0,0,0,.62-3c.46,0,.84.3.92,1a4.78,4.78,0,0,1-.13,1.5c-.07.32-.17.68-.29,1.07s-.33.82-.54,1.29a4.18,4.18,0,0,0,1.35-2.6,7.55,7.55,0,0,0-.22-2.47,11.2,11.2,0,0,1-.4-2.44,4.81,4.81,0,0,1,.88-2.65c-.15,1-.48,1.44-.12,1.93-.15-2.39,1.38-7.81,1.92-6.4a8,8,0,0,1-.14,1c.21-.8.3-1.73.45-2.73s.3-2.06.35-3.17a42.58,42.58,0,0,0-.1-6.69c-.11-1.07-.2-2.1-.39-3a23.66,23.66,0,0,0-.66-2.51,8.5,8.5,0,0,0-.74-1.75,1.68,1.68,0,0,0-.88-.79,9.63,9.63,0,0,1,3.31.85q-2.26-2.73-4.62-5.14c-.83-.8-1.64-1.57-2.45-2.33L359,52.74l-1.29-1.05c1.07.2,2.46-.88,3.88-1.47a3.09,3.09,0,0,1,2.14-.22,3.46,3.46,0,0,1,2,2.13,12,12,0,0,0-.4-2.78,15.61,15.61,0,0,0-.58-1.76,11.1,11.1,0,0,0-1-2.06c.15,1.12-1.88,3.38-2.43,2.06a15.9,15.9,0,0,0,.36-3.78c0-.43-.06-.88-.1-1.55s-.16-1.56-.25-2.9c.14.83-.67,1.13-1.62.94a3.67,3.67,0,0,1-2.55-1.95c.59.14,2.58-1.53,3.31-.83a59.53,59.53,0,0,0-5.68-4.08c1.28,1,2.32-1.06,2.23-2.78,0,.22-.23,0-.54-.39-.15-.22-.32-.49-.52-.8l-.71-1a19.42,19.42,0,0,0-2.91-3.65l.68,1.28.56,1.32c-.25-.39-.51-.73-.76-1.05a9.06,9.06,0,0,0-.82-.82,10,10,0,0,0-1.59-1.15,8.93,8.93,0,0,0-1.53-.69c-.53-.15-1-.25-1.55-.35a21.66,21.66,0,0,1-3.09-.75,11.61,11.61,0,0,1-3.65-1.85,3,3,0,0,0,1.94-1.3,1.74,1.74,0,0,0,.24-1.39,3.12,3.12,0,0,0-1.3-1.64c-1.14.21-3.71.91-6.49,1.66a33.49,33.49,0,0,1-8.58,1.6l-.86-1.07c-1.46,0-2.92.14-4.38.28a31,31,0,0,1,7.52-3.32,27.71,27.71,0,0,1,9.56-1.24,8.62,8.62,0,0,1-1.53-1.51,7.18,7.18,0,0,0-2.82-1.24c-.59-.63.05-.74,1-.64a14.91,14.91,0,0,1,2.85.72,54.13,54.13,0,0,0-9.57-3.51c0,.92-1.91.95-3.78,1.08s-3.69.28-3.6,1.05a61.83,61.83,0,0,1,10.52.1c0,.92-1.86,1.69-4.34,2.2a26.51,26.51,0,0,1-8.73.34c-1.55-.85,1.5-3,1.45-3.64a11.82,11.82,0,0,1-3.52.46A8.74,8.74,0,0,1,313,9.53l2.75-.78c-3.54-.92-5.87,2-9.92.15-1.43-.18-4.17-2.49-4.46-1.44,2.24,2.13,2.41,8.43.79,9.89-.5-.16-7.42-2.29-9-3.36-2.29-1.7,3.7-3.64,1.76-5.09-.11.48-1.44,1-2,1.19-1.48-.49.69-1.48-2.58-1.41-.62,1.78-6.62-.45-1.61,1.46-3.21.37-3.37-.53-7.12-.62,1.14,1.22-3.54,3.81-6.76,4.18.21-.45-.48-1.08-.82-1.37-6.53-.46-10-1.43-16.1-1.73-.54-.46-3.46-1.12-2.17-1.84a8.45,8.45,0,0,1-3.61.81c-3.57-1.72,4.21-.05,1.52-2.05-.29,1-4.93,1.22-7.64,1.76.75,1.65,6.17.59,8.89.06-.09,2.23-4.87,4.36-11.29,5.1-5.09.32-2.13-1.54-3-1.27-9.5-.82-8.28,3.54-16.11,1.57-3.07-1.57,0-2.84-.66-3.9,4.15-.35,6.29,1.19,9.09,1.26l-3.41-.83a11.69,11.69,0,0,1,5.59-.16c-2.57-1.4-16.06-1-23.35-2.49-1.33.41-3.6.81-2.56,1.43l2.33-.1c2.08,1.25-4.44,1.39-1.53,2.06-3.15.67-6.7,1.77-11.05.93l-.75-1.66c.07.47,2.82,1.09,4.07.65-1.86.64-6.62-2.5-8.72-.46l3,1.26c-3.16.67-7.11,2.22-11,1.53,1.7,1.68.9-.14,3.58,1.86-2.29-2.44,9.94.55,6.2-2.08,2.74,2.31,4.87,1.15,8.49,3.17-.09-.54-1.27-1.08,2-.67a3.53,3.53,0,0,1,.74-.44l.22,0-.18-.07c.15-.07.16-.09-.07,0a3.92,3.92,0,0,1-1.62-.89c1.67-1.16,6.86-.88,8.64-1.44,1.93.34-.83.58.2,1.2l2.66-.84c.21,1.2,5.06,2.21.46,2.7L221,17a18,18,0,0,0,7.77.79c1.92.34,4.95-1.1,3.22-.24l6.47-.45.05.3c6.34.44,13.16-1.37,20.33,1.1a29.84,29.84,0,0,1,7.94,0l.65,1.06c2.76-.23,8.2,1.41,9.42.39,2.84,2.9,13.3,1.21,18.11,1.92l.24-1.33a69,69,0,0,0,10.68-.37l-.2-1.19c3.62-.79,9.11,1.17,14.28,1.66-.41.41-1.7.14-2.64-.21,3.05,1.62,6.21,1.56,9.32,1.73a21.62,21.62,0,0,1,4.49.59,7.46,7.46,0,0,1,3.58,2.06,4,4,0,0,1,2.68,1.55.58.58,0,0,0-.3-.11,5.06,5.06,0,0,1,.42.3c.34.5.65,1,1,1.53a6.26,6.26,0,0,0-.79-1.37c.77.58,2.1,1.19,3.36,2.05l-.4,1.36c.1.06.17.13.27.19.71,1.27,1.29.35,1.38-.87a21,21,0,0,0,1.95.94,1.55,1.55,0,0,0,.2,1.4,11.71,11.71,0,0,0,1.05,1.1c.77.76,1.58,1.61,1.18,2.89.7.16,2,1.67,3.25,3.22a15.46,15.46,0,0,0,1.91,2.13,2.89,2.89,0,0,0,1.85.94c-.24.18-.17.68-.55-.13a13.33,13.33,0,0,0,2.14,4.9l-1.26,1.27a42.59,42.59,0,0,1,3.28,3.17,4.87,4.87,0,0,1-.64,2.61c-.38.35-.83.09-1.78-.88a22.81,22.81,0,0,1,2.42,4.7,22.21,22.21,0,0,0,2,4.31L358.26,62c.17,1.75,1.9,4.53,1,5.66-.92,2-.92,6.91-1.9,12.43s-3.09,11.65-6.11,15.67c1.77-.22,1,.73-.07,1.8a10.25,10.25,0,0,0-1.45,1.66c-.35.54-.47,1,0,1.42-.93.13-2,1.06-1.7-.62a16.61,16.61,0,0,1-.79,1.58c-.29.47-.6.89-.9,1.29a24.26,24.26,0,0,1-1.76,2.07,11.19,11.19,0,0,0-1.48,1.92,6.88,6.88,0,0,0-1,2.44c-.92-.07-.09-1.53-.75-1.43a5.6,5.6,0,0,1-.42,1,1.33,1.33,0,0,1-.85.7c-.67,0,.08-.93.35-1.72-1.65,1.84-2.21,3.23-2.25,4.38a5.71,5.71,0,0,0,1.1,3.06c-2.71,1-3.61,1.91-4.39,4.19-.58,0-1.29.09-1.55-.11s0-.62,1.21-1.7c-.76.51-3.17,2-5.42,3.19s-4.27,2.46-4,3.27c-.71-.15-2.41,1-2.81,1.31-3.93,1.45-4.34,1.4-8.26,2.72l1.18,0a2.72,2.72,0,0,1-2.41,1.72,24.45,24.45,0,0,0-4.08.59l.06-.22c-2,0-3.17.08-4,.18a7.74,7.74,0,0,0-1.59.39c-.8.25-1.59.54-5.52.13l.56,1.22c-.21,1.39-2,1.19-4.24.76s-5-1.08-7.21-.43l1.68.63c-2.44,1.1-7.13-3.35-9.64-3.58-.56-.22.85-.42,1.6-.63-6.63-1.34-.78,1.7-5.65,2.29-.94-.86,1.06-2.33-2.23-2.36-1.67-.66-9.44,3.3-14,1.72,1,.66,2,1.31-.23,1.91-3.48.38-9.5-2.28-12.59,0-.44-.18-.62-.35-.64-.53-2.65.64-8.63,1.2-10.21,2.41-2.56-4.33-16.53,2.52-16.55-1.55l-8.2.35.21-.41c-5.24-.18-7.08.79-8.91,1.79-1.22-.27-.34-.65-.24-.87-7.67-.72-8.42-.54-14.83,1.5l-.68-1.31c-.87.39-3.64-.11-7.13-.51a37.25,37.25,0,0,0-11.45,0c.07-.15.23-.4.83-.58-8.47,1.52-20.19-3.76-23.33,1l-5.6,1.11c7.22.46-1.1,2.06,1.86,2.89-2.85.25-7.33-1.53-3.83-1.74l.54.25c1.32-2.46-9-1-8.73-2.73-14.2-.12-28-1.9-41.27-2.47l1.46,2-4.63-.28c-1.2-.5-1.58-1.57,1.72-1.37-1.7-1.16-5.58.71-5.69,1.13-6.44-1,2.62-2.17.63-2.29l-2.7,0,.6.25c-2.21.71-2.44,1.54-6.41,1.27-2.5-.49-1.24-1.25-2.23-1.36,0-.14-.32-.22-1.51-.13L63,129.78l2.26,1.63c-2.62.64-5.48-.33-2.87,1.53-1.92-1.43-7.35-1.94-12.6-2.21-2.66-.13-5.14-.21-7.06-.41a10.82,10.82,0,0,1-3.73-.83,10.59,10.59,0,0,1-9-3.29,1,1,0,0,1-.21,1.3.9.9,0,0,1-.9,0,4,4,0,0,1-.68-.42,7.19,7.19,0,0,1-.78-.83c1.73-.76,1-2,.1-3.83s-1.9-4.15-1.23-5.92c-.29,1.45-1.38-.68-2.29-2.87s-1.76-4.26-2.36-1.91c-.56-3,1.21-.55,1.43-3C21.59,105.37,21,101.27,20.65,97s-.37-8.72-.81-13.19c-.47-.12-1.1,1.44-1.9-.48.74-1.64,1.42-3.25,2.23-4.82-.21-1.74-2.72-1.68-1-4.88-.41.44-1,1.11-1.13-.1.77-4.41,1.42-8.8,2.25-13.17A83.92,83.92,0,0,1,23.68,47.5,39.38,39.38,0,0,1,30,36.05a24.11,24.11,0,0,1,10-7.53c-2.27.51-1.18-.37.16-1.39-1,.47-.63-1-1.16-1.36a15.06,15.06,0,0,1,1.72-.57c.57-.16,1.13-.35,1.7-.47a22.37,22.37,0,0,1,3.36-.5A2.11,2.11,0,0,1,47,23a12.42,12.42,0,0,1,2.32-.64c.83-.08,1.63-.23,2.27-.34a1.6,1.6,0,0,0,1.33-.71l-1.06.13-.52.06-.51.13c1.33-1.1.41-2.16-1.22-3.15-.4-.25-.84-.5-1.27-.75s-.86-.43-1.25-.66c-.77-.46-1.37-1-1.39-1.61C44,17,41.29,17.12,38.2,17.92s-6.27,2.46-7.65,5.88c-1.44.59.39-1.43-.58-1.35a8.39,8.39,0,0,1-1.46,2.78,31.3,31.3,0,0,1-3.14,3.2l.07-.49A124.74,124.74,0,0,0,18,38.45L16.48,41c-.5.89-1,1.84-1.5,2.84s-1,2.08-1.5,3.24-1,2.42-1.48,3.8l1.45-.48a18.52,18.52,0,0,1-1.93,3.8c.59,1.6,1-.08,1.49-1.78s1.13-3.37,1.77-1.84c-1.72,1.17-2.84,5.41-3.63,9.53S9.9,68.25,8.41,69.25C8.12,73,9.94,68.25,9.65,72l-.82,1,1,1c-.28,2.44-1.22,3.67-1.89,3.77a19.71,19.71,0,0,0-.22-2.37c-1,3.23.37,9.1.19,10.19.08-1.22.2-2.44.33-3.65,1,10.25,1.87,22.71,6.17,32l.36-.9a32.39,32.39,0,0,1,2.39,6.62,17.62,17.62,0,0,0,.86,2.79,19.7,19.7,0,0,0,2.49,4.41l-.3-.21c1.48,1.24,3.16,3,5,4.8-1.11-.56-.54.44.05,1.42s1.21,1.86-.36,1.1a20,20,0,0,0,4.61,2.25,5.91,5.91,0,0,0,1.92.35c.83-.07,1.41-.24,4.46-.51.33.44.68.84,1,1.27,1.06-.22,1.62-.46,2.46-.59a24.43,24.43,0,0,1,4-.08c-1.71.26-1.11.69-.53,1.16s1.12,1-.88,1.33a20.5,20.5,0,0,0,10,.73c2.55-.29,4.52-.49,6.36,1.17,4-2.53-7.13-1.86-5-2.34-1.75-1,3.25-1.87,5.85-1.47,2.65.2,4.35,3.69,11.05,3.92-.67,0-.72.16-1.39.12,2.48.8,5-.72,8,.53,1.79-1.58,4,.24,4.56-1.83l-6.15.25c3.5-.41,6.85-2.75,12.53-1.35A11.3,11.3,0,0,1,84.39,140c1.65.68,3.24-.29,5,.41-.57,2.08-7.47.18-11.26,1.64,1.76.95,7.11-1.26,5.15.95,2.8-2.8,6.58.62,11.19-1.46l-.34,1.25a12.59,12.59,0,0,1,3.55-.65l-2.44,1.56c3.71-1.28,7,1.43,10.59.78-7.38-.18-1.62-1.56-4.71-2.57,9.14-1.41,5.14,3.43,15.34,3.09-1.38.14-5.15-.88-3-1.41a20.15,20.15,0,0,1,5.65,1.54c6.76-.12-1-1.31,1.88-2,2.27,1.57,3.33-.56,6.29-1v1.28c7.67,1,2.09-2.62,9-1.51l-3,1.72,3.62-.4-.77,1.44c3.94-1,5.16-.73,9-.27-.88-.91.53-2.32,3.94-2.31,2.31.78-1.32,1.2,3.51,1.06-1.09.78-2.3,1.79-4.39.58-.22.42-1.08.79-1.31,1.2,2.5.92,6.29.25,8,.26a7.15,7.15,0,0,1-1.89-.31l7-1.73c1.1.49.22.87-.64,1.24,1.41-.13,2.4-.71,4.48-.8-.54,1-.42,2.11-3.37,2.57l6.67-1.12c.45.45,3.43,1.24,2.56,1.62,3.7.61,9.07-2,14-1.23a4.06,4.06,0,0,1,1.8-.55c4.61.22,8.71,1.47,14.15,0l3.12,1.83c4.28-.47-4.22-2.3,2.89-3.08,5-.65,1.91,1.56,3.68,2.06,2.5-1,6.82-3,11.48-1.53A28.73,28.73,0,0,1,216.67,144.33ZM269.36,142c-1,.31-3,1.23-3.79.5C266.68,141,267.61,141.65,269.36,142Zm76.54-25.09c-.23.88-1.3,1.56-2.64,2.13A11.83,11.83,0,0,1,345.9,116.91ZM224.21,16.43l.11-.06C226.57,17,225.77,16.74,224.21,16.43Zm-4.69-.77c-.48.15-.46.33-.27.52a4.45,4.45,0,0,1,2.61-.14C221.54,15.69,220.94,15.43,219.52,15.66ZM69.84,130.76l.9.38C68.66,131.42,69.25,131.11,69.84,130.76Z"/><path class="cls-1" d="M339.81,124.49a1.09,1.09,0,0,1-.79-.28C338.81,124.64,338.94,124.85,339.81,124.49Z"/><path class="cls-1" d="M183.88,145.37l-.16,0a.48.48,0,0,0-.16.24Z"/><path class="cls-1" d="M293.07,8.15a4.93,4.93,0,0,1,1.84.75C295,8.59,294.55,8.3,293.07,8.15Z"/><path class="cls-1" d="M194.43,16.69l3-.19a6.67,6.67,0,0,1-2.7-.55C194.81,16.26,195.37,16.71,194.43,16.69Z"/><path class="cls-1" d="M168.56,7.6c-.45.14-.93,0-1.38.11l.1.6C169.16,8.36,170.5,7.94,168.56,7.6Z"/><path class="cls-1" d="M191.82,12.32c-.19-1.08-2.1-.81-4.23-.7H188C187.28,13.11,189.55,12.71,191.82,12.32Z"/><path class="cls-1" d="M187.1,11.63a12.63,12.63,0,0,1-1.95-.06C184.87,12.16,185.93,11.73,187.1,11.63Z"/><path class="cls-1" d="M213.5,16.1c-1-.33-.69,1.34-1.24.88C211.08,18.29,219,15.63,213.5,16.1Z"/><polygon class="cls-1" points="190.27 8.71 190.97 10.07 192.2 9.05 190.27 8.71"/><path class="cls-1" d="M206.93,10.44l-3.36-.52c0,.22-.39.33-.93.41C204.72,10.47,207,10.83,206.93,10.44Z"/><path class="cls-1" d="M202.64,10.33a8.65,8.65,0,0,0-2.73.09A18.94,18.94,0,0,0,202.64,10.33Z"/><polygon class="cls-1" points="194.91 8.52 195.9 8.84 198.28 9.04 194.91 8.52"/><path class="cls-1" d="M243.27,12.35l3.71-.22c.4-.43-.6-.76-2-.64C244.1,11.77,242.73,11.88,243.27,12.35Z"/><path class="cls-1" d="M232.28,8.21a3.38,3.38,0,0,1,1.58,1.08l.19-1.64Z"/><path class="cls-1" d="M243.06,8.31c.38-.44,5.41-1.06.73-1.17C243.39,7.57,239.68,7.78,243.06,8.31Z"/><polygon class="cls-1" points="298.57 12.92 297.63 12.9 297.64 15.6 298.57 12.92"/><path class="cls-1" d="M349.9,19.71a6.74,6.74,0,0,0-1.82-1.66,1.05,1.05,0,0,0-.89,0c-.45.16-.81.36-2.48-1.35-1.32-.17,2.7,2.77,1.36,2.48a9.49,9.49,0,0,1,1.75,1,8.3,8.3,0,0,0,1.14.67C349.55,21.06,349.83,20.85,349.9,19.71Z"/><path class="cls-1" d="M346.07,19.16c-.46-.2-.95-.4-1.5-.58A7.41,7.41,0,0,0,346.07,19.16Z"/><path class="cls-1" d="M50,24.6l1,.17.49.08L52,25a7.6,7.6,0,0,0-1.33-.83Z"/><path class="cls-1" d="M54,22.54c.11.6.21,1.2.28,1.79.47-.45,1-.91,1.54-1.35C55.3,23,54.34,23,54,22.54Z"/><path class="cls-1" d="M277.34,145.14l.2-.42c-.46-.43-1.12-.44-2.44-.45Z"/><polygon class="cls-1" points="239.01 145.19 239.67 145.2 238.4 143.69 239.01 145.19"/><path class="cls-1" d="M206.9,147.83c1.31,0,2.85-.33,4.17-.28C208.21,147.88,206.51,145.9,206.9,147.83Z"/><path class="cls-2" d="M66.36,52.87c1.46.2,1.19,1.81,2.77,2,2.58.36,3.16-1.16,3.52-2.94.7-3.73-1.49-6.53-3.87-9.63a5.25,5.25,0,0,1-1.36-4.55c.55-2.61,2-4.39,5.33-4.4.28,0,.56,0,.87,0,1.07.1,1.83.3,1.63,1.22-.35,1.62-4.55-1.11-5.45,3.51-.43,2.11.6,3,2,4.88,2.11,3,3.94,5.73,3.23,9.29-.54,2.71-1.89,4.3-5.09,4.3-.32,0-.64,0-1,0-1.39-.19-3.81-1.31-3.81-2.66,0-.07,0-.17,0-.23C65.21,53.27,65.8,52.87,66.36,52.87Z"/><path class="cls-2" d="M84.9,31.82c8.79,0,10,23.44,1.33,24.08-.15,0-.31,0-.47,0-3.33,0-5.15-1.63-6.11-4.67C79.13,49.28,75,31.84,84.9,31.82ZM81.55,49.74c.32,1.09,1.63,4.22,3.61,4.38a2.41,2.41,0,0,0,.47,0c2.66-.2,3.52-4.06,3.87-5.61.62-2.64,1.11-14.88-4.52-14.87h-.31C78.69,34.11,80.79,47.33,81.55,49.74Z"/><path class="cls-2" d="M96.56,40.67c.15-5.31.65-9.14,1.68-9.14a.3.3,0,0,1,.16,0c.2.17,1.11.27,1.35,1.09.71,2.41,1.8,6.79,4.14,9.56a38.23,38.23,0,0,0,2.56-3.57l.2-.26a38.3,38.3,0,0,0,3.39-6,1.16,1.16,0,0,1,1.14-.59,2.38,2.38,0,0,1,1.35.49c-.26,7.32-.08,14.68-.26,22l0,1.59a1.42,1.42,0,0,1-1.27.79,1.56,1.56,0,0,1-.91-.46l0-2c.14-6-.19-11.94.07-17.91-1,1.42-1.9,2.84-2.72,4.33-.36.49-2,3.2-2.33,3.86-.23.43-1.3,1.46-1.9.34-4-7.49-4.09-7.49-4.13-7.49a137,137,0,0,0-1,18.12.89.89,0,0,1-.83.63,2,2,0,0,1-1.11-.46Z"/><path class="cls-2" d="M123.1,31.75c8.78,0,10,23.43,1.33,24.08l-.48,0c-3.32,0-5.15-1.64-6.1-4.67C117.33,49.21,113.16,31.77,123.1,31.75Zm-3.36,17.92c.32,1.09,1.64,4.22,3.62,4.38a2.43,2.43,0,0,0,.47,0c2.65-.21,3.51-4.07,3.86-5.62.63-2.64,1.11-14.88-4.51-14.87h-.32C116.89,34,119,47.26,119.74,49.67Z"/><path class="cls-2" d="M132.77,52.74c1.47.2,1.19,1.82,2.78,2,2.57.36,3.16-1.16,3.51-2.94.71-3.73-1.48-6.53-3.86-9.63a5.22,5.22,0,0,1-1.36-4.55c.55-2.6,2-4.39,5.33-4.4a6.63,6.63,0,0,1,.87,0c1.07.09,1.82.29,1.63,1.21-.35,1.62-4.56-1.11-5.46,3.51-.42,2.11.61,3,2,4.88,2.1,3,3.93,5.73,3.23,9.3-.55,2.7-1.89,4.29-5.1,4.3a7.39,7.39,0,0,1-.94,0c-1.39-.19-3.81-1.31-3.81-2.66,0-.07,0-.17,0-.23C131.63,53.14,132.22,52.75,132.77,52.74Z"/><path class="cls-2" d="M147,37.81a1.62,1.62,0,0,1,1.78,1.61c0,.72-.82.82-1.58.83a1.36,1.36,0,0,1-1.54-1.45C145.68,38.37,146.54,37.81,147,37.81Zm0,16.82a1.64,1.64,0,0,1,1.78,1.61c0,.73-.83.83-1.58.83a1.36,1.36,0,0,1-1.55-1.45C145.72,55.19,146.59,54.63,147.07,54.63Z"/><path class="cls-2" d="M164.62,33.35A1.36,1.36,0,0,1,166,32.19h6.26a2.2,2.2,0,0,1,1.07.66.25.25,0,0,1,0,.16c0,.66-1.07,1-1.7,1h-4.75l.23,11,4.27-.54h.2c1.86,0,1.15,1.51-.43,1.71l-4,.51-.1,8.61c.36,0,1.71,0,2.06,0,2.65,0,4.59-.77,4.71.75.09,1.12-8.78,1-8.78.38Z"/><path class="cls-2" d="M178.93,57.08s-.56-17-.56-19.27c0-.63-.49-5.67-.53-6.3v-.23a.58.58,0,0,1,.28-.59,4.35,4.35,0,0,1,.75-.07c.71,0,1,0,1.27.69a12.3,12.3,0,0,1,.25,3.36c.21,6.73.31,13.56.81,20.36h.27c1.66,0,3.25-.47,4.95-.48.63,0,1.34.13,1.35.79,0,.37-.24.66-.79.73Z"/><path class="cls-2" d="M203.57,49.21c0-2.64.16-15,.23-17.62.2-.46,1.19-.4,1.66-.4,4.12,0,7.09,3,7.1,6.32,0,3.57-2.9,7.56-6.82,9.09,0,.53-.19,3.1-.19,3.63,0,1.12,0,6.2,0,7.29a1.6,1.6,0,0,1-1.22.43,1.21,1.21,0,0,1-.76-.2Zm2.09-4.82a1.46,1.46,0,0,0,.83-.23c2.29-1.76,3.63-3.77,3.62-6.41,0-1.72-1.48-4.81-4.21-4.81Z"/><path class="cls-2" d="M215,54.4c0-7.42.28-14.91.5-22.33.07-1.52.75-1.52,2.33-1.53h.39c3.65,0,6,2,6,4.87v.37c0,2.4-.74,5.21-3.35,6.7a14,14,0,0,1,1.27,1.28c1.79,2,1.36,6.67,1.57,8.94,0,.2.24,1.72.24,1.91v.27c0,.56-.63.63-1.14.63h0c-.44,0-.95,0-1.11-.46-.05-1.09-.42-6.14-.5-7.26-.16-1.62-.56-3.82-3-3.82h-.63a15.71,15.71,0,0,0-.23,1.92c0,.29-.22,7.62-.25,10.42,0,.63.12,1.32-.87,1.32a1.57,1.57,0,0,1-1.19-.46Zm3.06-12.77c2.81,0,3.86-4.33,3.86-5.85s-.88-3.53-3.14-3.52c-.59,0-1,.3-1,.86,0,2.87-.27,5.28-.26,8.21C217.56,41.6,217.84,41.63,218.08,41.63Z"/><path class="cls-2" d="M235.54,30.64c7.09.65,6.1,14.7,5.71,19.09-.27,2.41-1.72,6.6-5.68,6.61-7,0-7.35-10-7.36-13.81C228.2,38.34,228.54,30.65,235.54,30.64ZM230.47,42.4c0,9.66,2.17,12.3,5,12.29,3.88,0,3.9-8.39,3.89-10.46v-.14c0-2.54-.86-11.77-4.62-11.76-3,0-4.22,5.51-4.22,7.16C230.46,40.55,230.47,41.47,230.47,42.4Z"/><path class="cls-2" d="M248.72,56.94c.11-2.47.56-11,.56-12.34L245.89,37c-.16-.3-1.27-2.7-1.39-3a1.51,1.51,0,0,1-.28-.79c0-.36.43-.56.95-.56a1.83,1.83,0,0,1,1.66.68c1.23,2.94,2.11,6.3,3.63,9.1a72.84,72.84,0,0,0,4-7.66c.36-.76.35-1.91,1.74-1.91.63,0,1.19.09,1.19.62v.23c-1.61,3.73-4.57,7.27-5.75,11L251,57.3c0,.53-.71.63-1.34.6h-.08c-.36,0-.79-.07-.91-.46C248.68,57.31,248.72,57.17,248.72,56.94Z"/><path class="cls-2" d="M261.43,33.17A1.35,1.35,0,0,1,262.82,32h6.25a2.14,2.14,0,0,1,1.07.65.27.27,0,0,1,0,.17c0,.66-1.06,1-1.7,1h-4.75l.23,11,4.27-.54h.2c1.86,0,1.15,1.52-.43,1.72l-4,.5L264,55c.36,0,1.7,0,2.06,0,2.65,0,4.59-.77,4.71.75.08,1.12-8.78,1-8.79.38Z"/><path class="cls-2" d="M283.24,32.13c0,1.16-2.29.93-2.85.93h-.23c-3.84,0-5.53,6.64-5.52,10.37,0,4.22.34,7.23,3.83,9.63,1.71,1.18,4.31,0,4.91.85.8,1.15-.67,1.55-1.93,1.55-9-.15-10.4-10.07-8.6-16.51.94-3.43,3.38-8,8.53-8C282.21,30.91,283.24,31.37,283.24,32.13Z"/><path class="cls-2" d="M289.89,32.62c-2.45.13-3.56.1-3.64-.46.08-1.12.08-1.52,4.19-1.33h3.33c.87,0,2.33.12,2.34,1.08,0,.3-.44.63-.79.63H292l.81,20.94c0,.3-.79.47-1,.47s-1-.17-1-.46Z"/><path class="cls-2" d="M305.56,30.51c7.09.64,6.1,14.7,5.71,19.09-.27,2.41-1.72,6.6-5.68,6.61-7,0-7.35-10-7.36-13.81C298.22,38.21,298.56,30.52,305.56,30.51Zm-5.07,11.75c0,9.67,2.17,12.3,5,12.3,3.88,0,3.89-8.39,3.89-10.47V44c0-2.54-.86-11.78-4.62-11.77-3,0-4.23,5.52-4.22,7.17C300.48,40.41,300.49,41.34,300.49,42.26Z"/><path class="cls-2" d="M41.72,67.79a1.17,1.17,0,0,1,.67-.19c.25,0,.41.14.48.43,0,1.47,0,3.67.07,6.6,0,1.78,0,3.3-.15,4.54a.72.72,0,0,1-.35.5,1.08,1.08,0,0,1-.64.22c-.35,0-.53-.18-.53-.55.13-1.27.19-2.84.19-4.71l-.11-6.39A.76.76,0,0,1,41.72,67.79Z"/><path class="cls-2" d="M54,67.21c.3,0,.5.22.59.67q.09,3.09.09,6.75t0,4.23a1.35,1.35,0,0,1-.25.8,1,1,0,0,1-.76.23c-.33,0-.49-.21-.49-.61V75c0-.69,0-1.41,0-2.14s0-1.2,0-1.39a5.61,5.61,0,0,1-1.71,1.82A4.21,4.21,0,0,1,49,74a2.74,2.74,0,0,1-2.2-1.08c0,.77,0,1.68,0,2.74s0,2.17,0,3.34a.79.79,0,0,1-.31.69,1.27,1.27,0,0,1-.71.22c-.35,0-.52-.21-.52-.63,0-1.14,0-2.94,0-5.41v-5.4a1,1,0,0,1,.22-.63.61.61,0,0,1,.51-.3.93.93,0,0,1,.54.16.57.57,0,0,1,.27.48,6.87,6.87,0,0,0,.68,3.14,1.75,1.75,0,0,0,1.45,1,3.47,3.47,0,0,0,1.43-.28,3.68,3.68,0,0,0,1-.64,4,4,0,0,0,.75-1,16.81,16.81,0,0,0,1-2.34Q53.4,67.21,54,67.21Z"/><path class="cls-2" d="M56.68,77.93c-.09-1.31-.13-3.07-.13-5.29s0-3.67.09-4.33a1,1,0,0,1,.84-.8,7.38,7.38,0,0,1,2-.2,5.53,5.53,0,0,1,3,.77,2.52,2.52,0,0,1,1.22,2.27,5.38,5.38,0,0,1-.34,2.06,2.9,2.9,0,0,1-.85,1.22,4,4,0,0,1-2.47.65,11.41,11.41,0,0,1-1.85-.19c.07,2.53.09,4.13.08,4.79s-.24,1-.67,1c-.27,0-.45-.05-.53-.16l-.15-.21a1,1,0,0,1-.08-.2c0-.09,0-.16-.05-.22a1.32,1.32,0,0,1,0-.26c0-.11,0-.2,0-.26S56.68,78.16,56.68,77.93Zm5.41-7.54a1.34,1.34,0,0,0-.83-1.21,4.29,4.29,0,0,0-3.12-.28c0,.75-.07,1.44-.07,2.07s0,1.19.07,1.7c.35,0,.58.07.71.09a7.16,7.16,0,0,0,.84.06h.48l.47-.06a1.22,1.22,0,0,0,.51-.16l.38-.31a1.1,1.1,0,0,0,.32-.43A4.38,4.38,0,0,0,62.09,70.39Z"/><path class="cls-2" d="M65.25,77.22l0-1.48.17-7.94a.4.4,0,0,1,.25-.36,1.27,1.27,0,0,1,.62-.13c.61,0,.91.21.91.64,0,.14-.07,1.21-.21,3.19s-.22,3.18-.22,3.58v2c0,1,.06,1.47.19,1.56a2.19,2.19,0,0,0,.66.09l2.74-.19c.6,0,.89.22.89.65a.79.79,0,0,1-.48.75,2.3,2.3,0,0,1-1,.26c-.32,0-.7,0-1.16,0a12.16,12.16,0,0,1-3.23-.19c-.09-.07-.14-.36-.15-.86s0-.85,0-1.06S65.25,77.39,65.25,77.22Z"/><path class="cls-2" d="M72.85,73.33a.56.56,0,0,1-.27-.5,1,1,0,0,1,.21-.59c-.05-1.26-.07-2.6-.07-4a1.22,1.22,0,0,1,.35-.67,1.18,1.18,0,0,1,.69-.26c1.67.07,3.48.11,5.43.11.49.1.73.31.73.62,0,.54-.52.85-1.56.94H76.21c-.24,0-.9,0-2-.15,0,1.59,0,2.68.07,3.27l3.88,0c.45.09.68.29.68.62a.82.82,0,0,1-.55.75.83.83,0,0,1-.21.07l-3.28,0a2.29,2.29,0,0,0-.5,0l.08,3.26a14.33,14.33,0,0,1-.06,1.58l4.41-.06c.41.07.61.24.61.52a.87.87,0,0,1-.26.57,1.11,1.11,0,0,1-.6.36l-4.86.07A.89.89,0,0,1,73,79.7a.73.73,0,0,1-.17-.54,13.36,13.36,0,0,0,.08-1.71V76.12Z"/><path class="cls-2" d="M90,67.21c.3,0,.5.22.59.66q.09,3.1.09,6.76c0,2.43,0,3.84,0,4.22a1.35,1.35,0,0,1-.25.8,1,1,0,0,1-.76.23c-.33,0-.5-.2-.5-.61V75c0-.7,0-1.41,0-2.15s0-1.2,0-1.39a5.51,5.51,0,0,1-1.71,1.82,4.21,4.21,0,0,1-2.38.71,2.74,2.74,0,0,1-2.2-1.08c0,.77,0,1.69,0,2.74s0,2.17,0,3.34a.76.76,0,0,1-.31.69,1.2,1.2,0,0,1-.72.22q-.51,0-.51-.63c0-1.14,0-2.94,0-5.41v-5.4a1,1,0,0,1,.22-.62.6.6,0,0,1,.51-.31,1,1,0,0,1,.54.16.58.58,0,0,1,.27.49,6.86,6.86,0,0,0,.68,3.13,1.73,1.73,0,0,0,1.45,1A3.32,3.32,0,0,0,86.29,72a3.66,3.66,0,0,0,1-.63,4,4,0,0,0,.75-1A15.83,15.83,0,0,0,89,68C89.21,67.49,89.52,67.21,90,67.21Z"/><path class="cls-2" d="M92.55,73.32a.53.53,0,0,1-.26-.49.92.92,0,0,1,.2-.59c0-1.27-.07-2.6-.07-4a1.22,1.22,0,0,1,.35-.66,1.29,1.29,0,0,1,.69-.27c1.67.08,3.49.11,5.44.11.48.11.72.31.72.63q0,.79-1.56.93l-.91,0H95.91c-.24,0-.9,0-2-.15,0,1.58,0,2.67.08,3.27l3.87,0c.46.08.69.29.69.61a.81.81,0,0,1-.56.75.57.57,0,0,1-.2.08l-3.29-.06a3.26,3.26,0,0,0-.5,0l.08,3.27A14.46,14.46,0,0,1,94,78.4l4.41-.06c.41.06.61.23.61.51a.82.82,0,0,1-.26.57,1.12,1.12,0,0,1-.59.36l-4.87.08a.89.89,0,0,1-.61-.16.74.74,0,0,1-.17-.54,13.59,13.59,0,0,0,.08-1.71V76.12Z"/><path class="cls-2" d="M108.43,67.28a.74.74,0,0,1,.56.26.84.84,0,0,1,.24.59c0,5,0,8,.07,9s.07,1.56.07,1.59a1.51,1.51,0,0,1-.23.79c-.15.24-.32.37-.5.37a2.12,2.12,0,0,1-.42,0l-.26-.07a.56.56,0,0,1-.23-.15l-.19-.19a2.18,2.18,0,0,1-.2-.29c-.08-.15-.14-.27-.2-.36s-.13-.24-.23-.46L106.2,77c-.36-.68-.68-1.3-1-1.84a29.08,29.08,0,0,0-2.79-4.35,71,71,0,0,1-.34,8.57c0,.3-.27.45-.7.45a.83.83,0,0,1-.51-.15.59.59,0,0,1-.2-.49c0-.23,0-1.49.15-3.77s.14-3.7.14-4.26V70c0-.92.07-1.43.21-1.54a.65.65,0,0,1,.43-.18c.7,0,1.76,1.15,3.2,3.42.27.45.81,1.38,1.59,2.79s1.26,2.28,1.41,2.61l-.23-7.88c0-1.09.12-1.71.36-1.87A1,1,0,0,1,108.43,67.28Z"/><path class="cls-2" d="M110.85,67.53l7.69-.12c.37.11.55.3.55.55,0,.63-.26,1-.78,1-1,0-2,0-3,.08q-.09,1.64-.09,2.46v1l.08,6.67c0,.39-.1.62-.31.69a1.85,1.85,0,0,1-.57.07c-.36,0-.57-.21-.61-.62-.07-1-.11-2.8-.11-5.47s0-4.27.11-4.81l-1.18,0-1.93,0a.64.64,0,0,1-.48-.19.7.7,0,0,1-.17-.47.82.82,0,0,1,.24-.54A.85.85,0,0,1,110.85,67.53Z"/><path class="cls-2" d="M123.82,67.33a1,1,0,0,1,.8.42,7.84,7.84,0,0,1,.84,1.73,54.88,54.88,0,0,1,2.34,9.71,1.09,1.09,0,0,1,0,.22.45.45,0,0,1-.18.3.75.75,0,0,1-.52.16.93.93,0,0,1-.56-.16.82.82,0,0,1-.3-.53c-.05-.25-.15-.73-.29-1.45a9.82,9.82,0,0,0-.61-2.51,5.64,5.64,0,0,0-1.51-.29c-.85-.1-1.42-.15-1.7-.15a.87.87,0,0,0-.49.08q-.34.3-.93,4.62-.08.36-.72.36c-.43,0-.65-.19-.65-.56a25.9,25.9,0,0,1,1-5.22A28.26,28.26,0,0,1,122,69C122.6,67.87,123.19,67.33,123.82,67.33Zm-.07,2.11q-.28,0-1,1.68a8.4,8.4,0,0,0-.7,2.08.18.18,0,0,0,0,.14,2.83,2.83,0,0,0,1.19.26c.7.08,1.16.12,1.39.12s.36,0,.38,0,0-.13,0-.3a15.77,15.77,0,0,0-.51-2.09C124.24,70.05,124,69.44,123.75,69.44Z"/><path class="cls-2" d="M134.56,67.43a9.19,9.19,0,0,1,2.81.49.74.74,0,0,1,.34.58.68.68,0,0,1-.31.55,1.15,1.15,0,0,1-.71.24,7.64,7.64,0,0,0-1.92-.27,3.93,3.93,0,0,0-3.12,1.22,6.43,6.43,0,0,0,.19,7.35,2,2,0,0,0,1.54.7,7.51,7.51,0,0,0,2.85-1,3,3,0,0,1,.91-.32.45.45,0,0,1,.5.51,1,1,0,0,1-.48.86,18.19,18.19,0,0,1-2.54,1.15,5.49,5.49,0,0,1-1.58.29,3.14,3.14,0,0,1-2.34-1A7.2,7.2,0,0,1,129,73.74,6.24,6.24,0,0,1,130.62,69,5.5,5.5,0,0,1,134.56,67.43Z"/><path class="cls-2" d="M140.48,67.77a1.17,1.17,0,0,1,.67-.19c.26,0,.41.14.48.43,0,1.47,0,3.67.07,6.6,0,1.78,0,3.3-.15,4.54a.7.7,0,0,1-.35.5,1.07,1.07,0,0,1-.63.22.48.48,0,0,1-.54-.55c.13-1.27.19-2.84.19-4.71l-.11-6.39A.79.79,0,0,1,140.48,67.77Z"/><path class="cls-2" d="M148.87,67.21a3.23,3.23,0,0,1,2.26.86q1.81,1.64,1.82,5.16a7.51,7.51,0,0,1-2,5.54,3.76,3.76,0,0,1-2.41,1.1,3.43,3.43,0,0,1-2.82-1.24,7.43,7.43,0,0,1-1.43-2.76,10.8,10.8,0,0,1-.43-3,6.59,6.59,0,0,1,1.16-4A4.46,4.46,0,0,1,148.87,67.21Zm-.14,1.58a3,3,0,0,0-3.17,2.42,5.84,5.84,0,0,0-.19,1.65,8.71,8.71,0,0,0,.38,2.33,4.45,4.45,0,0,0,1.52,2.51,2.23,2.23,0,0,0,1.43.46,2,2,0,0,0,1.5-.75,4.11,4.11,0,0,0,.91-1.91,11.48,11.48,0,0,0,.25-2.34,7.07,7.07,0,0,0-.6-3.23A2.11,2.11,0,0,0,148.73,68.79Zm0-5.28a.46.46,0,0,1,.49-.32.8.8,0,0,1,.59.22.67.67,0,0,1,.21.37.78.78,0,0,1,0,.24,4.73,4.73,0,0,1-1,1.62c-.47.5-.84.76-1.09.76a.78.78,0,0,1-.57-.19.61.61,0,0,1-.19-.45.67.67,0,0,1,.3-.5A3.87,3.87,0,0,0,148.73,63.51Z"/><path class="cls-2" d="M162.15,67.27a.76.76,0,0,1,.55.25.87.87,0,0,1,.25.6q0,7.44.06,9c.05,1,.07,1.56.07,1.59a1.51,1.51,0,0,1-.23.79c-.15.24-.32.37-.5.37a2.26,2.26,0,0,1-.42,0l-.26-.07a.48.48,0,0,1-.22-.15l-.19-.19a1.51,1.51,0,0,1-.2-.29c-.09-.15-.15-.27-.2-.36s-.13-.24-.24-.46-.34-.68-.7-1.36l-1-1.84a28.26,28.26,0,0,0-2.8-4.35,71,71,0,0,1-.34,8.57c0,.3-.27.45-.7.45a.8.8,0,0,1-.5-.15.56.56,0,0,1-.2-.49c0-.23,0-1.49.14-3.77s.14-3.7.14-4.26V70q0-1.36.21-1.53a.66.66,0,0,1,.44-.18c.69,0,1.76,1.15,3.19,3.42.28.45.81,1.37,1.6,2.79s1.25,2.28,1.4,2.61l-.23-7.88c0-1.09.12-1.71.36-1.87A1,1,0,0,1,162.15,67.27Z"/><path class="cls-2" d="M169.22,79.24a.6.6,0,0,1-.29-.47.54.54,0,0,1,.21-.43,47.8,47.8,0,0,1-.36-6.23q0-1.06.09-4.14a1.07,1.07,0,0,1,.39-.49,1,1,0,0,1,.56-.21,1.16,1.16,0,0,1,.33,0,10,10,0,0,1,4.73,2.93A7.84,7.84,0,0,1,177,75.44c0,2.23-.93,3.62-2.78,4.2a5.78,5.78,0,0,1-1.68.24,7.94,7.94,0,0,1-1.55-.13.93.93,0,0,1,.08.41.64.64,0,0,1-.31.49,1.19,1.19,0,0,1-.74.24c-.29,0-.47-.17-.55-.51ZM170.36,72a48.75,48.75,0,0,0,.38,6.31,7.17,7.17,0,0,0,3.62-.23c.66-.24,1-.6,1-1.06a8,8,0,0,0,.06-.82,7.47,7.47,0,0,0-1.32-4.37,8.22,8.22,0,0,0-3.7-2.89Q170.36,71.15,170.36,72Z"/><path class="cls-2" d="M178.17,73.31a.56.56,0,0,1-.27-.5,1,1,0,0,1,.21-.59c-.05-1.26-.08-2.6-.08-4a1.07,1.07,0,0,1,1.05-.94q2.5.12,5.43.12c.48.1.72.31.72.62,0,.54-.52.85-1.56.94l-.91,0h-1.23c-.24,0-.91-.06-2-.16,0,1.59,0,2.68.08,3.27l3.88,0c.45.09.68.29.68.62a.82.82,0,0,1-.55.75.83.83,0,0,1-.21.07l-3.29,0a2.19,2.19,0,0,0-.49,0l.07,3.26a12.66,12.66,0,0,1,0,1.58l4.41-.06c.4.07.6.24.6.52a.87.87,0,0,1-.25.57,1.11,1.11,0,0,1-.6.36l-4.86.07a.86.86,0,0,1-.61-.16.7.7,0,0,1-.17-.54,13.85,13.85,0,0,0,.07-1.71V76.1Z"/><path class="cls-2" d="M191,77.9c-.09-1.3-.13-3.07-.13-5.29s0-3.66.09-4.32a1,1,0,0,1,.84-.81,7.83,7.83,0,0,1,1.95-.2,5.6,5.6,0,0,1,3,.77A2.52,2.52,0,0,1,198,70.32a5.38,5.38,0,0,1-.34,2.06,3,3,0,0,1-.85,1.23,4,4,0,0,1-2.47.64,11.41,11.41,0,0,1-1.85-.19c.07,2.54.09,4.13.08,4.79s-.23,1-.67,1a.68.68,0,0,1-.53-.15l-.15-.22a1.62,1.62,0,0,1-.08-.2c0-.09,0-.16,0-.22s0-.14,0-.25,0-.21,0-.27S191,78.13,191,77.9Zm5.42-7.53a1.36,1.36,0,0,0-.84-1.22,3.71,3.71,0,0,0-1.79-.44,3.51,3.51,0,0,0-1.33.17c-.05.75-.07,1.43-.07,2.06s0,1.19.07,1.7l.71.09a7.16,7.16,0,0,0,.84.06h.48l.47,0a1.21,1.21,0,0,0,.51-.17l.38-.3a1,1,0,0,0,.32-.44A4.33,4.33,0,0,0,196.39,70.37Z"/><path class="cls-2" d="M201,79.64a1,1,0,0,1-.65.28c-.24,0-.4-.16-.49-.46,0-1.67-.05-3.34-.05-5l-.06-4.79a2,2,0,0,1,1.27-2,5.73,5.73,0,0,1,2.43-.48,4.06,4.06,0,0,1,1.55.35,4.54,4.54,0,0,1,1.48,1,2.07,2.07,0,0,1,.66,1.46,2.77,2.77,0,0,1-.72,1.69,7.29,7.29,0,0,1-1.79,1.6,9.55,9.55,0,0,1-2.07,1A18.34,18.34,0,0,1,205.62,77a4,4,0,0,1,1.31,2.19.63.63,0,0,1-.25.47.87.87,0,0,1-.59.21.74.74,0,0,1-.6-.3,6.54,6.54,0,0,0-1.59-2.12,19.27,19.27,0,0,0-2.73-2.12l.12,3.65A.8.8,0,0,1,201,79.64Zm3.09-7.38c1.06-.67,1.59-1.28,1.59-1.82a1.36,1.36,0,0,0-.8-1.24,3.88,3.88,0,0,0-1.89-.44,4.6,4.6,0,0,0-1.74.27c0,.64,0,2.08,0,4.29A6,6,0,0,0,204.07,72.26Z"/><path class="cls-2" d="M213.47,67.2a3.23,3.23,0,0,1,2.26.86q1.82,1.64,1.82,5.16a7.48,7.48,0,0,1-2,5.53,3.78,3.78,0,0,1-2.41,1.11,3.46,3.46,0,0,1-2.82-1.24,7.43,7.43,0,0,1-1.43-2.76,10.81,10.81,0,0,1-.43-3,6.63,6.63,0,0,1,1.16-4A4.44,4.44,0,0,1,213.47,67.2Zm-.14,1.58a3,3,0,0,0-3.17,2.41,5.87,5.87,0,0,0-.19,1.66,8.71,8.71,0,0,0,.38,2.33,4.49,4.49,0,0,0,1.52,2.51,2.29,2.29,0,0,0,1.43.46,2,2,0,0,0,1.5-.76,4.17,4.17,0,0,0,.91-1.9,11.63,11.63,0,0,0,.25-2.34,7.07,7.07,0,0,0-.6-3.23A2.11,2.11,0,0,0,213.33,68.78Z"/><path class="cls-2" d="M221.6,75.24l0-1a1.75,1.75,0,0,0-.32-1c-.2-.32-.71-1.24-1.51-2.76A13.5,13.5,0,0,1,218.6,68a.83.83,0,0,1,.73-.77c.16,0,.35.15.57.44a21,21,0,0,1,1.31,2.3c.65,1.24,1,1.92,1.13,2a33.53,33.53,0,0,1,2.93-4.56.68.68,0,0,1,.42-.25.49.49,0,0,1,.24,0c.3.13.46.29.46.5a.89.89,0,0,1-.16.54c-.1.16-.38.55-.83,1.2a23.32,23.32,0,0,0-1.74,2.84,6.35,6.35,0,0,0-.73,1.76v3.48l.06,1.52a.67.67,0,0,1-.23.58,1,1,0,0,1-.56.16.45.45,0,0,1-.45-.36,3.81,3.81,0,0,1-.13-1c0-.4,0-1,0-1.73Z"/><path class="cls-2" d="M227.66,73.3a.56.56,0,0,1-.27-.5.9.9,0,0,1,.21-.58c0-1.27-.07-2.61-.07-4a1,1,0,0,1,1-.93c1.67.07,3.48.11,5.43.11.49.1.73.31.73.62,0,.54-.52.85-1.56.94l-.91,0H231c-.24,0-.9-.06-2-.16,0,1.59,0,2.68.07,3.27l3.88,0c.46.09.68.29.68.62a.82.82,0,0,1-.55.75.71.71,0,0,1-.21.07l-3.28-.05a2.29,2.29,0,0,0-.5,0l.08,3.26a14.21,14.21,0,0,1-.06,1.58l4.41-.06c.41.07.61.24.61.52a.87.87,0,0,1-.26.57,1.11,1.11,0,0,1-.6.36l-4.86.07a.89.89,0,0,1-.61-.16.71.71,0,0,1-.17-.54,13.36,13.36,0,0,0,.08-1.71V76.09Z"/><path class="cls-2" d="M241.4,67.41a9.29,9.29,0,0,1,2.81.49.74.74,0,0,1,.34.58.68.68,0,0,1-.31.55,1.16,1.16,0,0,1-.72.24A7.52,7.52,0,0,0,241.6,69a3.92,3.92,0,0,0-3.11,1.22,5.33,5.33,0,0,0-1.06,3.61,5.27,5.27,0,0,0,1.25,3.74,2,2,0,0,0,1.54.7,7.62,7.62,0,0,0,2.85-1A3,3,0,0,1,244,77a.45.45,0,0,1,.5.51,1,1,0,0,1-.48.86,18.2,18.2,0,0,1-2.55,1.15,5.37,5.37,0,0,1-1.57.29,3.14,3.14,0,0,1-2.34-1,7.22,7.22,0,0,1-1.73-5.09A6.31,6.31,0,0,1,237.45,69,5.56,5.56,0,0,1,241.4,67.41Z"/><path class="cls-2" d="M246.26,67.5l7.69-.12c.37.12.56.3.56.56,0,.63-.26,1-.78,1-.95,0-2,0-3,.07-.07,1.09-.1,1.91-.1,2.46v1.06l.08,6.67c0,.39-.1.62-.31.68a1.82,1.82,0,0,1-.57.08c-.36,0-.57-.21-.6-.63q-.12-1.47-.12-5.46c0-2.67,0-4.27.11-4.82L248,69l-1.94,0a.62.62,0,0,1-.48-.19.69.69,0,0,1-.17-.46.82.82,0,0,1,.24-.55A.89.89,0,0,1,246.26,67.5Z"/><path class="cls-2" d="M260.13,67.19a3.22,3.22,0,0,1,2.26.86c1.22,1.09,1.82,2.81,1.83,5.16a7.47,7.47,0,0,1-2,5.53,3.75,3.75,0,0,1-2.41,1.11A3.41,3.41,0,0,1,257,78.61a7.6,7.6,0,0,1-1.44-2.76,11.21,11.21,0,0,1-.43-3,6.63,6.63,0,0,1,1.16-4A4.45,4.45,0,0,1,260.13,67.19ZM260,68.77a3,3,0,0,0-3.18,2.41,6.31,6.31,0,0,0-.19,1.66,8.71,8.71,0,0,0,.38,2.33,4.54,4.54,0,0,0,1.52,2.51,2.25,2.25,0,0,0,1.43.46,2,2,0,0,0,1.5-.75,4.11,4.11,0,0,0,.91-1.91,10.88,10.88,0,0,0,.25-2.34,7.07,7.07,0,0,0-.6-3.23A2.1,2.1,0,0,0,260,68.77Z"/><path class="cls-2" d="M272.14,76.08l-1.58,0a.6.6,0,0,1-.45-.19.75.75,0,0,1-.18-.54.8.8,0,0,1,.23-.58.89.89,0,0,1,.65-.23h4.73a.65.65,0,0,1,.7.72.78.78,0,0,1-.22.56.79.79,0,0,1-.63.24Z"/><path class="cls-2" d="M283.8,72.55a17.19,17.19,0,0,0,2.72.24c.82,0,1.35,0,1.58,0,0-1,0-1.88,0-2.77V68.19a2.36,2.36,0,0,1,0-.59q0-.13.24-.24a1.27,1.27,0,0,1,.61-.12q.57,0,.57.69v6.72c0,1.4,0,2.93-.09,4.6,0,.37-.32.55-.93.55-.31,0-.46-.18-.46-.55l.08-5c-.41,0-1,0-1.67,0A19.87,19.87,0,0,1,283.8,74c0,1.67.08,3.42.23,5.24a.46.46,0,0,1-.26.47,1.42,1.42,0,0,1-.72.16.42.42,0,0,1-.46-.44c-.17-1.8-.25-3.57-.25-5.32l.11-5.93a.62.62,0,0,1,.29-.56,1.11,1.11,0,0,1,.61-.18.46.46,0,0,1,.53.52Z"/><path class="cls-2" d="M292.56,63.48a.47.47,0,0,1,.49-.32.73.73,0,0,1,.58.23.59.59,0,0,1,.22.37.75.75,0,0,1,0,.23,4.89,4.89,0,0,1-1,1.62c-.48.51-.84.76-1.09.76a.74.74,0,0,1-.57-.19.61.61,0,0,1-.19-.45.68.68,0,0,1,.3-.5A3.87,3.87,0,0,0,292.56,63.48Zm-.48,4.26a1.17,1.17,0,0,1,.67-.19c.26,0,.41.14.48.43,0,1.47,0,3.67.07,6.6,0,1.78-.05,3.3-.15,4.54a.7.7,0,0,1-.35.5,1.08,1.08,0,0,1-.64.22c-.35,0-.53-.18-.53-.55.13-1.27.19-2.84.19-4.71l-.11-6.39A.79.79,0,0,1,292.08,67.74Z"/><path class="cls-2" d="M298.42,79.78l-2.46,0a62.72,62.72,0,0,1-.24-7.19V71.2a7.82,7.82,0,0,1,.3-2.47,2.51,2.51,0,0,1,1.27-1.35,3.07,3.07,0,0,1,1.38-.25,6.65,6.65,0,0,1,1.36.11,2.6,2.6,0,0,1,1.74,1,3.55,3.55,0,0,1,.46,1.94,3.17,3.17,0,0,1-.89,2.49,1.7,1.7,0,0,1,.91.45,4.25,4.25,0,0,1,.74.82,3.77,3.77,0,0,1,.5,2.07,3.31,3.31,0,0,1-1.25,2.92A6.81,6.81,0,0,1,298.42,79.78Zm3.1-5.21a1.67,1.67,0,0,0-.6-.37,2.9,2.9,0,0,0-1.15-.17,22.34,22.34,0,0,0-2.55.24c0,2,0,3.32.09,4a11.59,11.59,0,0,0,3.12-.29,2.44,2.44,0,0,0,1.21-.73,1.54,1.54,0,0,0,.31-.91c0-.32,0-.55,0-.68a3.5,3.5,0,0,0-.11-.55A1.26,1.26,0,0,0,301.52,74.57Zm-4.28-4,0,2.17.65-.09c.41-.06.75-.12,1-.18a2.13,2.13,0,0,0,1.92-2.19,1.49,1.49,0,0,0-.51-1.25,2.08,2.08,0,0,0-1.32-.4,2,2,0,0,0-1.39.36l-.24.26a.63.63,0,0,0-.14.33c0,.15,0,.26,0,.32a2.17,2.17,0,0,0,0,.37C297.23,70.4,297.24,70.5,297.24,70.53Z"/><path class="cls-2" d="M306.24,79.62a1,1,0,0,1-.65.28c-.24,0-.4-.16-.49-.46,0-1.67-.05-3.34-.05-5L305,69.65a2,2,0,0,1,1.27-2,5.66,5.66,0,0,1,2.43-.48,4.06,4.06,0,0,1,1.55.35,4.54,4.54,0,0,1,1.48,1,2.07,2.07,0,0,1,.66,1.46,2.77,2.77,0,0,1-.72,1.69,7.29,7.29,0,0,1-1.79,1.6,9.55,9.55,0,0,1-2.07,1A18.34,18.34,0,0,1,310.88,77a4,4,0,0,1,1.31,2.19.63.63,0,0,1-.25.47.87.87,0,0,1-.59.21.74.74,0,0,1-.6-.3,6.54,6.54,0,0,0-1.59-2.12,18.56,18.56,0,0,0-2.73-2.12l.12,3.65A.8.8,0,0,1,306.24,79.62Zm3.09-7.38c1.06-.67,1.59-1.28,1.59-1.82a1.37,1.37,0,0,0-.8-1.24,3.88,3.88,0,0,0-1.89-.44,4.6,4.6,0,0,0-1.74.27c0,.64,0,2.08,0,4.29A6,6,0,0,0,309.33,72.24Z"/><path class="cls-2" d="M314.8,67.73a1.29,1.29,0,0,1,.68-.19c.25,0,.41.15.47.44q0,2.2.08,6.59c0,1.79,0,3.3-.15,4.54a.79.79,0,0,1-.35.51,1.18,1.18,0,0,1-.64.22c-.36,0-.53-.19-.53-.55.12-1.27.19-2.84.19-4.72l-.12-6.38A.81.81,0,0,1,314.8,67.73Z"/><path class="cls-2" d="M318.5,79.21a.6.6,0,0,1-.29-.47.51.51,0,0,1,.21-.42,48.08,48.08,0,0,1-.36-6.24q0-1.06.09-4.14a1.07,1.07,0,0,1,.39-.49,1,1,0,0,1,.56-.21,1.78,1.78,0,0,1,.33,0,10.05,10.05,0,0,1,4.73,2.93,7.79,7.79,0,0,1,2.11,5.22c0,2.23-.93,3.63-2.77,4.2a5.9,5.9,0,0,1-1.69.24,7.83,7.83,0,0,1-1.54-.13.94.94,0,0,1,.07.41.62.62,0,0,1-.31.49,1.19,1.19,0,0,1-.74.24q-.44,0-.54-.51Zm1.14-7.28a48.75,48.75,0,0,0,.38,6.31,7.17,7.17,0,0,0,3.62-.23c.66-.24,1-.59,1.05-1.06a8,8,0,0,0,.06-.82,7.47,7.47,0,0,0-1.32-4.37,8.22,8.22,0,0,0-3.7-2.89Q319.64,71.12,319.64,71.93Z"/><path class="cls-2" d="M332.21,67.18a3.25,3.25,0,0,1,2.27.85q1.81,1.64,1.82,5.16a7.49,7.49,0,0,1-2,5.54,3.76,3.76,0,0,1-2.42,1.1,3.43,3.43,0,0,1-2.81-1.23,7.47,7.47,0,0,1-1.43-2.77,10.74,10.74,0,0,1-.43-3,6.55,6.55,0,0,1,1.16-4A4.41,4.41,0,0,1,332.21,67.18Zm-.13,1.58a3,3,0,0,0-3.17,2.41,5.84,5.84,0,0,0-.19,1.65,8.84,8.84,0,0,0,.38,2.34,4.49,4.49,0,0,0,1.52,2.51,2.28,2.28,0,0,0,1.43.45,2,2,0,0,0,1.5-.75,4.16,4.16,0,0,0,.91-1.91,11.45,11.45,0,0,0,.24-2.33,7.19,7.19,0,0,0-.59-3.23A2.11,2.11,0,0,0,332.08,68.76Z"/><g class="cls-3"><path class="cls-4" d="M185.71,121.7a178.61,178.61,0,0,0,38.07-2.35,20.11,20.11,0,0,0,9.48-3.86A11.24,11.24,0,0,0,237.33,105a9.45,9.45,0,0,0-7.05-7.09c-10-2.47-20.18-2.34-30.32-2-16.36.47-33.38-2.16-49.54,2-2.91.76-5.89,1.8-8.1,4.2s-3.4,6.52-2,9.71c1.16,2.7,3.7,4,6.08,5a75.15,75.15,0,0,0,39.35,4.92"/><path class="cls-4" d="M185.15,119.54c.31,0,.15-.37.18-.44C184.83,119.25,185.17,119.64,185.15,119.54Z"/><polygon class="cls-4" points="180.06 120.95 180.14 120.79 179.39 121.21 180.06 120.95"/><path class="cls-4" d="M175.16,121.11c.47.67,1.78-.13,2.66.08l.14.14.38-.54A11.79,11.79,0,0,1,175.16,121.11Z"/><path class="cls-4" d="M172.6,119.67c.15.25-.56.19.59.1l-.1-.07Z"/><path class="cls-4" d="M173.09,119.7c.5,0-.33-.23,0,0Z"/><path class="cls-4" d="M170.74,119.74c.23,0,.46-.12.68-.19-.13-.15-.72-.21-.49-.31C170.24,119.31,170.37,119.47,170.74,119.74Z"/><path class="cls-4" d="M170.08,120.17l.35-.07C170.37,120,170.28,120,170.08,120.17Z"/><path class="cls-4" d="M171.18,119.94l-.75.16c.09.11.09.32.34,0C170.7,120.24,170.86,120.07,171.18,119.94Z"/><path class="cls-4" d="M171.59,120.06c.37.16.86.26.17.46C173.05,120.49,172.87,120,171.59,120.06Z"/><path class="cls-4" d="M174.91,121.78l.52.19.44-.21C175.65,121.87,174.88,121.58,174.91,121.78Z"/><path class="cls-4" d="M166.64,119c-.06.13.18.38.21.57l.5-.11C167.11,119.38,166.64,119.24,166.64,119Z"/><path class="cls-4" d="M166.85,119.61l-.77.15C166.74,119.86,166.87,119.76,166.85,119.61Z"/><path class="cls-4" d="M169.91,120.88c.42-.14.84-.26,1.25-.42-.49.15-1,.27-1.49.41Z"/><polygon class="cls-4" points="163.86 118.64 164.32 118.38 163.51 118.75 163.86 118.64"/><path class="cls-4" d="M162,118.37c.35-.2-.33-.51,0-.61a3.87,3.87,0,0,0-1.39.21A2.36,2.36,0,0,1,162,118.37Z"/><path class="cls-4" d="M159.94,118.13a4.31,4.31,0,0,0,.7-.16A2,2,0,0,0,159.94,118.13Z"/><path class="cls-4" d="M164.84,119.52a.83.83,0,0,0-.52-.48l.23.43Z"/><path class="cls-4" d="M164.56,119.48h0l-.62-.11Z"/><path class="cls-4" d="M164.91,119.53h-.07S164.87,119.57,164.91,119.53Z"/><path class="cls-4" d="M168,120.37c-.46.16-1.4.3-.55.72C167.78,120.86,167.29,120.62,168,120.37Z"/><path class="cls-4" d="M165.2,120.06l.78.2c0-.1-.13-.27.1-.35Z"/><polygon class="cls-4" points="164.8 120.13 165.2 120.06 164.91 119.99 164.8 120.13"/><path class="cls-4" d="M161.18,118.76a2.81,2.81,0,0,1-1.15,0,7.23,7.23,0,0,0,1.31.39C161.43,119,161.66,118.84,161.18,118.76Z"/><path class="cls-4" d="M162.81,119.16h-.08S162.81,119.23,162.81,119.16Z"/><polygon class="cls-4" points="156 117.76 156.04 117.85 156.07 117.79 156 117.76"/><path class="cls-4" d="M161.4,119.21a.92.92,0,0,0,.75,0,6.15,6.15,0,0,1-.81-.08S161.29,119.21,161.4,119.21Z"/><path class="cls-4" d="M158.77,118.06a5.37,5.37,0,0,0,.53.34C159.16,118.24,158.86,118,158.77,118.06Z"/><path class="cls-4" d="M162.64,119h.05C162.6,118.93,162.6,119,162.64,119Z"/><path class="cls-4" d="M162.64,119a2.56,2.56,0,0,0-.49.16,3.51,3.51,0,0,0,.58,0A.6.6,0,0,1,162.64,119Z"/><path class="cls-4" d="M154.09,119.82c.16-.33,1.13-.41,1.8.18.82-.08.61-1.33.15-2.15-.06.14-.1.28-.91.27.21.27,1.56.92.84,1.06-1.07-.11-.8-.36-1.24-.68.3.55-1.47.27-1.44,1l1,0C154.24,119.59,153.87,119.66,154.09,119.82Z"/><path class="cls-4" d="M157.47,118.25l.33,0a3.35,3.35,0,0,1-1-.74c-.56,0-.7.13-.77.24.5.16,1,.29,1.52.44Z"/><path class="cls-4" d="M159.2,118.62c-.33.34-1.12.31-.76.83.94.19.73-.17,1.32-.22-1.52-.22.48-.12-.56-.57a6.61,6.61,0,0,1,.83.07,7,7,0,0,1-.73-.33l0,0h0c.06.06.07.1,0,0h0a.27.27,0,0,1-.1.13c-.41-.16,0-.11.1-.13a.09.09,0,0,0,0,0h0c-.52,0-1-.1-1.53-.14A6.38,6.38,0,0,0,159.2,118.62Z"/><path class="cls-4" d="M166.52,121.84a.1.1,0,0,1,0-.1C166.37,121.78,166.33,121.81,166.52,121.84Z"/><path class="cls-4" d="M165.9,121.54a.71.71,0,0,1,.6-.11c.3.15,0,.18,0,.31.23-.08.8-.19.13-.46l-.11,0c-.61-.19-1.34-.81-1.22-.84A2.6,2.6,0,0,0,165.9,121.54Z"/><path class="cls-4" d="M162.44,120.24l-1.3,0,.58.45v-.21C162.43,120.65,162.32,120.38,162.44,120.24Z"/><polygon class="cls-4" points="155.91 117.53 156.18 117.18 155.32 117.55 155.91 117.53"/><polygon class="cls-4" points="154.31 117.14 154.47 116.81 153.99 116.89 154.31 117.14"/><path class="cls-4" d="M210.5,93.54l.39-.1A2.36,2.36,0,0,0,210.5,93.54Z"/><path class="cls-4" d="M207.69,93.51l-.07.17C207.75,93.59,207.8,93.51,207.69,93.51Z"/><path class="cls-4" d="M156.83,98.86c.59.25,1.26.68,1.14.29l-.23-.37A1.75,1.75,0,0,1,156.83,98.86Z"/><path class="cls-4" d="M184.94,95.6l-.15-.13-.39.37Z"/><path class="cls-4" d="M185.39,94l.73.27A3.57,3.57,0,0,0,185.39,94Z"/><path class="cls-4" d="M226,94.38l.52-.31C225.82,93.94,226.11,94.2,226,94.38Z"/><path class="cls-4" d="M142,109.91a4.6,4.6,0,0,0,.15-.88C141.89,109.44,141.62,109.86,142,109.91Z"/><path class="cls-4" d="M209.38,97.71c.23-.07.33-.14.32-.23C209.46,97.54,209.33,97.62,209.38,97.71Z"/><path class="cls-4" d="M142.16,108a1.22,1.22,0,0,0-.12.19,3.76,3.76,0,0,1,.07.84A1,1,0,0,0,142.16,108Z"/><path class="cls-4" d="M206.54,123.69l-.13,0S206.46,123.7,206.54,123.69Z"/><path class="cls-4" d="M190.4,120.1a6.23,6.23,0,0,1,.65,0A1.81,1.81,0,0,0,190.4,120.1Z"/><path class="cls-4" d="M148.12,114.81c.33.1.07,0,0,0Z"/><path class="cls-4" d="M149.16,116.88a.26.26,0,0,0-.2.13A.32.32,0,0,1,149.16,116.88Z"/><path class="cls-4" d="M140.77,104.28v0C140.67,104.31,140.69,104.3,140.77,104.28Z"/><path class="cls-4" d="M148.54,115.16a3,3,0,0,0-.37-.27A2,2,0,0,0,148.54,115.16Z"/><path class="cls-4" d="M148.54,115l.27.15C148.88,115.07,148.86,115,148.54,115Z"/><path class="cls-4" d="M147.66,114.65a3.43,3.43,0,0,1,.51.24c-.06,0-.07-.08,0-.08Z"/><path class="cls-4" d="M235.31,115.2l-.09,0C235.06,115.64,235.17,115.5,235.31,115.2Z"/><path class="cls-4" d="M165.67,93.82l0,0h.06Z"/><path class="cls-4" d="M167,93.47a1.19,1.19,0,0,1-1.28.38l.49,1.11Z"/><path class="cls-4" d="M217.27,93.68l-.9-.41c1.15-.53,2-.25,1.12-.82-.22,1.21-3.64-.07-3.82,1.17l-.6-.28c.18,0,.21,0,.38,0-1.17-.62-.9.86-2.42.66-.52-.1-.89-.29-.53-.43l-1.18.3c-.34,0-.26-.24.08-.22l-1.79.1v0a6.45,6.45,0,0,1-1.11.63c-.46-.17.23-.13.11-.28l-1,.31c-.41-.32.41-.64,1.1-.6-.95-1.22-.82.32-2.83-.36l.93-.18c-.61-.69-1.34-.42-2.41-.83.26.22,2.14,1,1.07,1.38a1.77,1.77,0,0,0-1.27.14c0-.44-.58-.32-1.29-.27l0-.58c-.76.19-.69.48-1.13.75a1.28,1.28,0,0,1-1.23-.86c-1.33-.07.94.7-.64.84a7,7,0,0,0-3.23.38c-.78-.2.14-.35-.14-.52l-.7.46c-.17,0-.11-.15-.08-.22-.59.17-.06.58-1,.72-.26.63-1.88-1-3-.26-.28-.18.15-.36.06-.58a10.37,10.37,0,0,0-2.66.92l-1.08-.42c.79.46-.26,1-1.18,1.35a8.14,8.14,0,0,0,.69.5l-1.46.27c-.17-.1,0-.29.23-.53l-.27.13c-.51-.23-.23-.56.14-.87l.52.37c.36-.34.71-.72.64-1.06a1.32,1.32,0,0,1-.47.14c.09-.09.15-.18.11-.24s-.2.07-.44.21l-.31-.66-.09.26-1.88-.47c-1.37.62-2.58,1.55-4.73,1.77.54-.47.13-.77.17-1.34.57.61,1.67-.21,2.79-.06-.58-.08-.45-.35-.3-.44l-2,.5c.05-.46-.42-.35-.94-.55.38.91-1.5.58-2.31.85-.05-.31.15-.62,1.14-.53-1.09-.7-1.43,1.05-2.49.47.24,0,.37,0,.46-.11-.56.27-1.94.05-1.62-.22h.24c-1.61-.11-4.92.07-5.12.87a4.19,4.19,0,0,1,.27-1.1c-.94.92-1.85,1.79-2.74,2.73.22-.68-.86-2.19.46-2.65A2.84,2.84,0,0,0,164,94c.27.08.72.92.36,1a6.9,6.9,0,0,0-2-.88c.4.1.05,1.18-.56,1.21.08-.16-.15-1,.07-1.15l-1.44,1.18c.36-.23,0-.87-.41-1.12.18.17-1.35.13-1.75.3l.69.15c-1.77.1-1.52,1.63-3.22,1.88.17-.25.3-1.38-.6-1.34-.32.61-1.31,2.76-2.64,3.52l-.35-.23-1,.59a17,17,0,0,1,3.12-3.84c-.7-.11-.25-.32-1.23-.11-.4-.2.45-.52.74-.58-.78.06-1.55.2-2.33.32.24.57-1.6,1-1.38,1.47l2.31-1.19c.22.58-1,2-2.61,2.3-.47-.12,0-1.13-.07-1.32a3.25,3.25,0,0,1-1.61.73l.59-.52c-1,.06-1.21,1.22-2.49,1.11-.38.11-1.45-.2-1.36.16a3.8,3.8,0,0,1,1.78,2.89l-1.06.11a11.88,11.88,0,0,1-1.37.15c-.4,0-.42-.44-.39-.84s.09-.82-.28-.85c.07.15-.12.53-.2.67-.43.15-.17-.53-.87.12.26.56-1.45,1.26,0,.69-.53.74-.79.55-1.47,1.42.26,0,.38.4.42.87a4.48,4.48,0,0,1-.08,1.44c-.11-.12-.38-.06-.5,0a17.92,17.92,0,0,0-1,1.94,6.05,6.05,0,0,0-.49,2c-.18.13-.35,1-.62.61a2.72,2.72,0,0,1,.39,1c-.41,1.1-.2-1.19-.76-.34.35,0,.64,1.38,1.13,2,.22-.2.13-.6,0-1.07s-.39-1-.51-1.37c.77,0,1.57,1.2,2.43,2.29.65.88-.21.66,0,.78a1.85,1.85,0,0,0,1.62,1.14,1.81,1.81,0,0,1,1.45.79c.38.79-.47.85-.51,1.24-1-.4-1.15-1.15-1.64-1.59a6.65,6.65,0,0,0,.49.73,1.75,1.75,0,0,1-1.12-.85c0,.4.78,1.18,1.8,1.82s2.25,1.21,3.06,1.75c.38,0,1,0,.79-.26l-.58-.15c-.36-.57,1.25-.1.62-.55a5.42,5.42,0,0,1,2.79.54v.59c0-.16-.58-.56-.93-.5.52-.08,1.37,1.28,2.09.76l-.62-.62c.84,0,2-.27,2.83.2-.26-.66-.23,0-.7-.83.17.47-.42.27-1,.09s-1.05-.37-.73.19c-.43-1-1.07-.7-1.71-1.63,0,.19.18.45-.55.07a.85.85,0,0,1-.22.09l-.05,0,0,0c-.05,0-.05,0,0,0a1.06,1.06,0,0,1,.29.42c-.53.24-1.76-.24-2.24-.21-.41-.27.26-.12.1-.4l-.72,0c.1-.4-.79-1.13.26-.9a9,9,0,0,1-.82-.42,2.85,2.85,0,0,0-1.27-1c-.23-.28-1-.27-.54-.29a5.11,5.11,0,0,1-1-.71l.08-.07a8.76,8.76,0,0,1-.91-1.51,2.2,2.2,0,0,1,.17-2,2.53,2.53,0,0,1,.2-1.58l.38,0c0-.59.95-1.33.76-1.69.56,0,.9-.43,1.31-.92a4.57,4.57,0,0,1,1.38-1.26l-.23-.4c.6-.36,1.13-.78,1.93-1.32l-.21-.35c.66-.64,2.13-.47,3.47-.85-.06.17-.41.23-.67.2,1.82.5,3.28-1.51,4.94-1.1a1.17,1.17,0,0,1,.91-.17.19.19,0,0,0-.09,0l.15,0c.18,0,.36.09.56.12a1.74,1.74,0,0,0-.47-.14c.28-.07.71-.19,1.13-.34l.25.4.1,0c.45.1.31-.26,0-.55a2.78,2.78,0,0,0,.54-.34c.44.65,1.11-.41,1.68.29.25-.4,2.17-.5,2.33-1.3,0,.1.16.14-.07.17a2.43,2.43,0,0,0,1.42-.16l.25.54,1-.82c.68.29,1,.47.34.94,1.53-.75,1.25-.3,2.57-1l-.06.37c.48,0,1.24-.55,1.53-.25,1.09.65,5.33,0,8.09.72-.52-1.07,1.28.49,1.4-.32.16.25.54.41.09.61,1.42-.21,2.11.45,3.11-.21.15.25-.32.36-.18.51.12,0,.46-.21.6,0s-.21.2-.44.3c1.45,0,1.62-.76,1.75-1.48a1.23,1.23,0,0,0,1.63-.14c.25.25.67.51-.23.57.51,0,3.09.43,3.16-.15.15.15.71.06.84,0a18.84,18.84,0,0,0,2.37.08l-.31-.1c.45-.69.93-.14,1.84-.21l0,.07c2.07.52.9-.24,2.94.35l-.11-.44c.19-.93,1.82.54,3,.16l-.43-.24c.64-.33,1.85,1.24,2.49,1.34.15.07-.21.13-.41.2,1.71.5.2-.58,1.46-.75.24.31-.28.79.57.83.43.24,2.44-1,3.6-.47-.26-.24-.52-.47.07-.66.89-.1,2.41.89,3.22.14.11.07.16.13.16.19.68-.19,2.22-.3,2.64-.69.58,1.5,4.27-.56,4.18.84l2.08.07-.06.14a3,3,0,0,0,2.31-.36c.3.13.06.23,0,.3a5.25,5.25,0,0,0,3.8,0l.09.47c.49-.18,2.63,1.15,4.57,1.09a.33.33,0,0,1-.25.15,3.75,3.75,0,0,1,.82.09,3,3,0,0,1,.68.26,5.48,5.48,0,0,1,1.18.85c.7.6,1.18,1.09,2,.74a8.08,8.08,0,0,1,1.12.67c-.46-.69-.31-.75,0-.74s.66.14.52-.23c.57.51.62,1.79.1,1.11v-.16c-.44.12-.2.59,0,1.08s.4,1,.11,1.1a6.69,6.69,0,0,1,0,4.46,11.73,11.73,0,0,1-2.18,3.84l.73.14a8.88,8.88,0,0,1-.71.79c-.3.1-.62-.09-.12-.6-.51,0-.6,1.08-.54,1.21-.64.37-.65.12-.56-.17s.27-.63.11-.49l-.38.4.14,0c-.2.51-.07.79-.86,1.28-.57.21-.47-.18-.68-.08,0,0-.1,0-.3.16-.4.2-.8.38-1.22.56l.72.23c-.43.51-1.21.52-.37.8-.62-.21-1.85.2-3.09.53a10.6,10.6,0,0,1-2.8.54,6.69,6.69,0,0,1-2.88.81c.29.06.55.62-.43.7.17-1.26-1.86-.25-2.77-1,.78.49-2.73.5-1.53,1.18-.83,0-.11-.45-.76-.66-1.87.71-4.28.17-6.66.52,0,.16.4.37-.1.65l-1.32-.7c-.47.11-.37,1-1.28.46.13.12.33.31,0,.38-4.73-.47-9.63,1.06-14.42-.46.64.31.21.34-.29.35.32.07,0,.39,0,.61l-2-.64c-.38.6-2.15,0-2.37.55l.64-.08c-.87.65,1.14,1.54,1,2.4,1-.74,2.5,1.2,4.09.11.35.18-.29.28-.11.48.4-.37.88-.45,1.78-.28l-.11.09a58.12,58.12,0,0,1,6.43.42l-.22-.43a2.92,2.92,0,0,1,1,.26c.67-.67-1.71,0-1.1-.71.84.86,4.27-.17,4.87.79.93-.06-.31-.48.63-.54l.26.26.21-.36c.62,0,1,.33,1,.56a2.5,2.5,0,0,0-.58.12c.82.27,2.24-.28,2.52-.2l-.91-.09c2.52-.44,5.67-.4,8-1.26L216,122c1.82-.6,1.52,0,3.54-.43l-.06.06a3.29,3.29,0,0,1,1.47-.5c-.48.31,1,.3.4.67,2-.73.95-.48,2.15-1.44l.37.28a2.31,2.31,0,0,1,1.41-.84c-.78.46.77.36-.1.94a4.14,4.14,0,0,0,2.59-.61c.63-.34,1.09-.61,1.79-.31.32-.63-.19-.55-.72-.4s-1.09.38-.85.19c-.54-.14.59-.91,1.26-1.09s1.62.67,3.28-.32c-.16.09-.14.16-.3.25.75-.16,1-1,1.94-1.22,0-.73,1-.75.55-1.37a13.06,13.06,0,0,1-1.24,1.23,7,7,0,0,0,.84-1.36,4.32,4.32,0,0,1,1.26-1.49,2.21,2.21,0,0,1-.26,1c.48-.22.49-.79.95-1,.25.27,0,.74-.48,1.25A9.26,9.26,0,0,0,234.5,117c.66-.12,1.2-1.84,1.35-.89a1.62,1.62,0,0,1,.66-1.39,2.32,2.32,0,0,0,.84-1.65l.32.3a4.13,4.13,0,0,1,.28-1.05c.05.29.11.59.16.9.11-1.18,1.33-1.8,1.39-3-.7,2.2-.64.33-1.25,1.11.21-1.34.52-1.63.95-2s.93-.79.88-2.47c.08.47-.38,1.64-.51.94a14.6,14.6,0,0,1,.51-1.81c-.32-2.2-.4.37-.75-.53.41-.79-.37-1-.78-1.8l.42-.13c-.24-1.21-.59-1.25-.82-1.27s-.46,0-.84-1a7.85,7.85,0,0,1,1,.47c-.22-.31-.46-.6-.7-.89l.54-.07a10.69,10.69,0,0,1-1.92-2.14c0,.43-.65.45-1.44-.15-.39-.62.59-.13-.65-.89.41-.06.95-.13,1.21.6.14-.07.43,0,.58-.06a4.75,4.75,0,0,0-2.07-1.51,1.94,1.94,0,0,1,.47.39,12.39,12.39,0,0,0-2.2-.43c-.26-.26,0-.31.34-.32-.44-.11-.79,0-1.41-.17.25-.29.32-.69,1.29-.52a10.74,10.74,0,0,0-2.07-.19c-.08-.17-.8-.62-.54-.69-.94-.43-2.52.16-3.75-.32a.9.9,0,0,1-.5.11c-1.19-.28-2.22-.87-3.71-.55l-.75-.73c-1.14,0,1,.91-.88,1-1.33.08-.44-.59-.89-.81a3.69,3.69,0,0,1-3,.25A5,5,0,0,1,217.27,93.68Zm-13.75.08c.26-.1.79-.39,1-.14C204.21,94.13,204,93.89,203.52,93.76ZM183,94.7c.2-.14.5-.06.84.11A1.72,1.72,0,0,1,183,94.7Zm-38.23,18.94h0C144.39,113.24,144.5,113.39,144.74,113.64Zm.82.67c.13,0,.15-.07.13-.14s-.33,0-.56-.19C145.15,114.11,145.23,114.25,145.56,114.31Zm85,.94h.25C230.41,115.59,230.47,115.42,230.52,115.25Z"/><path class="cls-4" d="M185.33,94.17a.37.37,0,0,1,.1.24C185.54,94.34,185.54,94.25,185.33,94.17Z"/><path class="cls-4" d="M225.92,94.44h0a.2.2,0,0,0,.06-.07Z"/><path class="cls-4" d="M142.89,99.21a1.08,1.08,0,0,1,.58-.13C143.43,99,143.26,99,142.89,99.21Z"/><path class="cls-4" d="M151.56,115.87l-.74-.15a1.3,1.3,0,0,1,.59.37C151.43,116,151.34,115.8,151.56,115.87Z"/><path class="cls-4" d="M157.19,120.33c.12,0,.23.06.35,0l0-.21C157.09,120.05,156.72,120.13,157.19,120.33Z"/><path class="cls-4" d="M151.77,117.47c-.06.37.44.4,1,.5l-.09,0C153,117.49,152.36,117.49,151.77,117.47Z"/><path class="cls-4" d="M152.87,118a2.57,2.57,0,0,1,.47.15C153.46,118,153.16,118,152.87,118Z"/><path class="cls-4" d="M147,114.67c.18.18.31-.38.39-.19C147.76,114.16,145.64,114.38,147,114.67Z"/><polygon class="cls-4" points="151.81 118.76 151.76 118.27 151.35 118.53 151.81 118.76"/><path class="cls-4" d="M147.86,117l.77.44c0-.08.13-.08.27-.06C148.41,117.17,147.89,116.87,147.86,117Z"/><path class="cls-4" d="M148.9,117.38a1.69,1.69,0,0,0,.69.16A3.52,3.52,0,0,0,148.9,117.38Z"/><polygon class="cls-4" points="150.63 118.52 150.42 118.34 149.85 118.1 150.63 118.52"/><path class="cls-4" d="M140.74,111.78a8.69,8.69,0,0,1-.44-.8c-.17,0-.2.23,0,.54S140.67,112,140.74,111.78Z"/><path class="cls-4" d="M141.49,114.87a.91.91,0,0,1-.09-.56l-.42.37Z"/><path class="cls-4" d="M139.54,112.46c-.21,0-1-1.35-.46,0C139.26,112.5,139.87,113.42,139.54,112.46Z"/><polygon class="cls-4" points="145.06 99.64 144.85 99.78 145.35 100.56 145.06 99.64"/><path class="cls-4" d="M157,94.07c-1.18,0-.18.58-1.26.5-.23.26.88.07.63.31C157,94.55,157.36,94.63,157,94.07Z"/><path class="cls-4" d="M156.32,94.88a2.36,2.36,0,0,0-.32.2A2.43,2.43,0,0,0,156.32,94.88Z"/><polygon class="cls-4" points="187.78 119.54 187.06 119.33 187.52 119.65 187.78 119.54"/><path class="cls-4" d="M186.37,120.18l-.15-.59-.45.52C185.94,120.09,186.25,120.05,186.37,120.18Z"/><path class="cls-4" d="M201.46,92.62l-.05.14c.12.15.29.16.63.18Z"/><polygon class="cls-4" points="211.44 92.97 211.27 92.96 211.58 93.5 211.44 92.97"/><path class="cls-4" d="M220,92.75c-.35-.06-.77,0-1.12,0C219.61,92.68,220,93.42,220,92.75Z"/></g><path class="cls-2" d="M167.45,103.61a24.35,24.35,0,0,0-1.37,2.54,22.3,22.3,0,0,0-1.17,2.56,6.58,6.58,0,0,1,1.71-.22,3,3,0,0,1,1.63.48,2.93,2.93,0,0,1,1.24,2.64c0,2.65-1.29,4-3.88,4h-.06a2.21,2.21,0,0,1-2-1,5.3,5.3,0,0,1-.68-2.63,16.14,16.14,0,0,1,2.86-8.38,3.41,3.41,0,0,1,.84-1,1.15,1.15,0,0,1,.57-.24.72.72,0,0,1,.43.16.53.53,0,0,1,.22.44A1.22,1.22,0,0,1,167.45,103.61Zm.54,8.13a1.54,1.54,0,0,0-1.66-1.69,3.81,3.81,0,0,0-1.12.12,1.12,1.12,0,0,0-.44.31,1.9,1.9,0,0,0-.29.59,3.56,3.56,0,0,0-.13,1.09,1.92,1.92,0,0,0,.39,1.2,1.17,1.17,0,0,0,.95.51,2.14,2.14,0,0,0,2.3-2.13Z"/><path class="cls-2" d="M172.59,101.27a1.26,1.26,0,0,1,1.32,1,2.29,2.29,0,0,1,.12.76,1.59,1.59,0,0,1-.82,1.24,1.68,1.68,0,0,1-.9.24,1.64,1.64,0,0,1-1.05-.43,1.42,1.42,0,0,1-.53-1.17,1.47,1.47,0,0,1,.53-1.19A2,2,0,0,1,172.59,101.27Zm.48,1.52a.62.62,0,0,0-.2-.54.82.82,0,0,0-.45-.14.7.7,0,0,0-.48.21.62.62,0,0,0-.23.49c0,.43.22.64.68.64A.59.59,0,0,0,173.07,102.79Z"/><path class="cls-2" d="M180.15,102c0-.53.33-.8,1-.8.3,0,.48.18.54.56v3c0,.56,0,1.12,0,1.68a3.56,3.56,0,0,1,1-.12,3.65,3.65,0,0,1,3,1.3,5,5,0,0,1,1.06,3.26,4.72,4.72,0,0,1-1.25,3.31,4.17,4.17,0,0,1-3.21,1.35c-1.31,0-2-.37-2-1.11s0-2.62-.11-5.64S180.15,103.52,180.15,102Zm4,6.44a2.41,2.41,0,0,0-1.52-.56,2.59,2.59,0,0,0-.9.16q.12,1.64.12,5.82a2.1,2.1,0,0,0,.7.12,2.65,2.65,0,0,0,1.56-.58,2.79,2.79,0,0,0,1.16-2.45A3,3,0,0,0,184.19,108.45Z"/><path class="cls-2" d="M193.93,106.19c.58,0,.88.5.88,1.5V108l0,1.4c0,.44,0,.87,0,1.3l.3,4.52c0,.33-.34.5-1,.5h-.29a.33.33,0,0,1-.32-.18.59.59,0,0,1,0-.44.91.91,0,0,0-.05-.58,3.2,3.2,0,0,1-2.44,1c-1.88,0-2.82-1.46-2.82-4.36a6.1,6.1,0,0,1,.91-3.66,3,3,0,0,1,2.61-1.24,4.78,4.78,0,0,1,1.6.28A.83.83,0,0,1,193.93,106.19ZM191.85,108a2.1,2.1,0,0,0-1.7.66,3.8,3.8,0,0,0-.56,2.42c0,2,.53,3,1.6,3a1.63,1.63,0,0,0,.93-.38,2.1,2.1,0,0,0,.71-.86,7.17,7.17,0,0,0,.38-2.36,4.21,4.21,0,0,0-.31-1.86A1.09,1.09,0,0,0,191.85,108Zm-.06-5.74a.48.48,0,0,1,.51-.34.83.83,0,0,1,.62.24.68.68,0,0,1,.23.39.87.87,0,0,1,0,.25,5,5,0,0,1-1.07,1.7c-.5.53-.89.8-1.15.8a.82.82,0,0,1-.6-.2.63.63,0,0,1-.2-.47.67.67,0,0,1,.3-.51A4.2,4.2,0,0,0,191.79,102.27Z"/><path class="cls-2" d="M197.37,106.85a3,3,0,0,1,1.95-.71,5.92,5.92,0,0,1,2.13.4c.68.27,1,.62,1,1.06a.65.65,0,0,1-.26.54.78.78,0,0,1-.45.2,1.34,1.34,0,0,1-.3,0,4.1,4.1,0,0,1-.8-.36,2.82,2.82,0,0,0-1.27-.37,1.68,1.68,0,0,0-1,.29,1,1,0,0,0-.41.85,1,1,0,0,0,.47.88,4.67,4.67,0,0,0,1.65.56,5,5,0,0,1,1.81.64,1.74,1.74,0,0,1,.63,1.56,2.83,2.83,0,0,1-.87,2.35,3.29,3.29,0,0,1-2.11.7,5.71,5.71,0,0,1-2.11-.35q-.87-.33-.87-1a.69.69,0,0,1,.78-.78,3.51,3.51,0,0,1,.88.28,3.45,3.45,0,0,0,1.35.29,1.23,1.23,0,0,0,1-.44,1.51,1.51,0,0,0,.35-1,.86.86,0,0,0-.46-.82,5.05,5.05,0,0,0-1.4-.41,6.51,6.51,0,0,1-1.38-.34,2,2,0,0,1-1.2-2.13A2.31,2.31,0,0,1,197.37,106.85Z"/><path class="cls-2" d="M205.21,102.88a1,1,0,0,1,.68.34,1.07,1.07,0,0,1,.32.71,1.13,1.13,0,0,1-.35.75,1,1,0,0,1-.73.38.9.9,0,0,1-.69-.32,1.1,1.1,0,0,1-.31-.82c0-.64.34-1,1-1Zm.84,10.48,0,1.4a.77.77,0,0,1-.3.63,1,1,0,0,1-.64.25.46.46,0,0,1-.52-.5q-.26-6.37-.26-7.06c0-.45,0-1,.06-1.66,0-.24.18-.36.46-.36.7,0,1.1.29,1.2.86a5.61,5.61,0,0,1,.06.7l-.08,1.26Z"/><path class="cls-2" d="M208.8,108.4a4.55,4.55,0,0,1,1.81-1.65,4.83,4.83,0,0,1,2.14-.55,4.78,4.78,0,0,1,1.67.25q.63.26.63.66a1.67,1.67,0,0,1-.23.82.69.69,0,0,1-.61.41,3.12,3.12,0,0,1-.77-.23,3.48,3.48,0,0,0-.81-.23,2.65,2.65,0,0,0-2,.85,3.1,3.1,0,0,0-.82,2.25,3.86,3.86,0,0,0,.45,2.09,1.71,1.71,0,0,0,1.55.69,4.29,4.29,0,0,0,1.51-.51,4.89,4.89,0,0,1,1.33-.51.61.61,0,0,1,.42.16.54.54,0,0,1,.16.4,1.42,1.42,0,0,1-.61,1,4.93,4.93,0,0,1-1.51.88,4.39,4.39,0,0,1-1.62.35,2.93,2.93,0,0,1-2.51-1.26,5.73,5.73,0,0,1-.91-3.44A4.38,4.38,0,0,1,208.8,108.4Z"/><path class="cls-2" d="M219.67,106.2a2.77,2.77,0,0,1,2.37,1.38,5.78,5.78,0,0,1,.93,3.31,5.62,5.62,0,0,1-.95,3.29,3,3,0,0,1-5.05,0,5.29,5.29,0,0,1-1-3.09,6.1,6.1,0,0,1,.88-3.48A3.13,3.13,0,0,1,219.67,106.2Zm-.24,1.64a1.58,1.58,0,0,0-1.38.88,3.52,3.52,0,0,0-.54,1.86,3.82,3.82,0,0,0,.6,2.32,1.71,1.71,0,0,0,1.36.8,1.63,1.63,0,0,0,1.74-1.18,5,5,0,0,0,.16-1.4C221.37,108.93,220.72,107.84,219.43,107.84Z"/></svg>