<svg id="Capa_1" data-name="Capa 1" xmlns="http://www.w3.org/2000/svg" viewBox="0 0 229.16 54.35"><defs><style>.cls-1{fill:#fff;}.cls-2{fill:#b8344b;}.cls-3{fill:#b7d164;}.cls-4{fill:#f8ca00;}.cls-5{fill:#566370;}.cls-6{fill:#5da6bc;}.cls-7{fill:#edbf06;}.cls-8{fill:#e6576a;}</style></defs><path class="cls-1" d="M97.92,43.12c-8.22,0-13.14-4.53-13.14-12.11V18.42a4.9,4.9,0,0,1,.56-2.31,4.7,4.7,0,0,1,1.31-1.68,5.42,5.42,0,0,1,1.66-1l.11,0a5.92,5.92,0,0,1,1.68-.27h2.73a3,3,0,0,1,3.09,3.06V30.93c0,2.16.82,2.33,2,2.33s2-.16,2-2.33V18.38a4.85,4.85,0,0,1,.55-2.3,5.29,5.29,0,0,1,4.76-2.94h2.73A3,3,0,0,1,111,16.2V31C111,38.59,106.1,43.12,97.92,43.12Z"/><path class="cls-1" d="M107.89,15.29a.89.89,0,0,1,1,.91V31c0,7-4.55,10-10.92,10-6.73,0-11-3.23-11-10V18.42a2.73,2.73,0,0,1,.33-1.35,2.5,2.5,0,0,1,.77-1,3.06,3.06,0,0,1,1-.62,3.68,3.68,0,0,1,1-.18h2.73a.88.88,0,0,1,.94.91V30.93c0,2.77,1.24,4.48,4.12,4.48S102,33.73,102,30.93V18.38a2.77,2.77,0,0,1,.32-1.34,3.18,3.18,0,0,1,2.84-1.75h2.73m0-4.3h-2.73a7.48,7.48,0,0,0-6.69,4.13,7,7,0,0,0-.4.94A5.17,5.17,0,0,0,92.83,11H90.1a7.76,7.76,0,0,0-2.3.37l-.11,0-.11,0a7.48,7.48,0,0,0-2.3,1.35,6.83,6.83,0,0,0-1.87,2.38,7.09,7.09,0,0,0-.78,3.26V31c0,8.8,5.86,14.26,15.29,14.26S113.14,39.81,113.14,31V16.2A5.18,5.18,0,0,0,107.89,11Z"/><path class="cls-1" d="M151.14,43.16c-8.19,0-13.22-4.48-13.46-12,0-.7,0-1.75,0-3.19s0-2.53,0-3.28c.24-7.41,5.4-12,13.46-12s13.19,4.63,13.43,12.08l0,1.23c0,.85,0,1.52,0,2,0,3.91,0,8.77-4,12.15A14.43,14.43,0,0,1,151.14,43.16Zm0-20.74c-1.07,0-2,.2-2.11,2.57,0,.69,0,1.66,0,2.89s0,2.27,0,2.9c.07,2.62,1.4,2.62,2.11,2.62s2,0,2.07-2.56l0-1.35c0-.7,0-1.23,0-1.61s0-1,0-1.68l0-1.21C153.14,22.42,151.94,22.42,151.14,22.42Z"/><path class="cls-1" d="M151.14,14.82c6.44,0,11.06,3.23,11.28,10,0,1.42.07,2.47.07,3.17,0,3.82,0,7.78-3.2,10.51-2,1.67-4.69,2.51-8.15,2.51-6.48,0-11.1-3.06-11.31-9.9,0-.69,0-1.71,0-3.12s0-2.48,0-3.17c.21-6.77,4.87-10,11.31-10m0,20.73c2.87,0,4.15-2,4.22-4.65,0-1.42.07-2.41.07-3s0-1.6-.07-2.95c-.07-2.73-1.31-4.66-4.22-4.66s-4.18,1.89-4.26,4.66c0,.69,0,1.67,0,2.95s0,2.33,0,3c.08,2.72,1.39,4.65,4.26,4.65m0-25c-9.19,0-15.31,5.54-15.61,14.12,0,.8,0,1.87,0,3.35s0,2.51,0,3.3c.29,8.65,6.27,14,15.61,14,4.45,0,8.12-1.18,10.91-3.51,4.74-4,4.74-9.69,4.74-13.81,0-.51,0-1.19,0-2.06l0-1.22c-.28-8.63-6.4-14.19-15.58-14.19Z"/><path class="cls-1" d="M24.55,47.63a8.47,8.47,0,0,1-1.13-.07C18.56,46.92,12.49,43.39,10,35.42c-1.7-5.46-.54-9.88,1.65-12a7,7,0,0,1-1.59-3,9,9,0,0,1,1.48-7.3,16.13,16.13,0,0,1,13.1-6.36,20.37,20.37,0,0,1,4,.4c6.4,1.29,9.83,5.2,10,8.48l.18-.14a6.92,6.92,0,0,1,4.15-1.4,8.61,8.61,0,0,1,7.47,5c2.13,4.41,2.53,11.42-2.77,17.88-2.81,3.43-6.28,5.39-9.51,5.39a6.07,6.07,0,0,1-2.84-.65,4.38,4.38,0,0,1-2-2.48l-.53.07a5.51,5.51,0,0,1,.06.57A6.83,6.83,0,0,1,30.89,45,8.83,8.83,0,0,1,24.55,47.63Z"/><path class="cls-1" d="M24.64,8.87a18.16,18.16,0,0,1,3.57.36c5.61,1.13,8.24,4.35,8.26,6.58a2.26,2.26,0,0,1-.64,1.48,16.67,16.67,0,0,1,2.84,1.51,4.79,4.79,0,0,1,1.4-1.61,4.68,4.68,0,0,1,2.87-1A6.55,6.55,0,0,1,48.48,20c1.81,3.74,2.25,9.79-2.5,15.58-2.72,3.32-5.7,4.6-7.85,4.6a3.94,3.94,0,0,1-1.84-.4,2.25,2.25,0,0,1-.57-3.43,13.34,13.34,0,0,1-4.77.87,13.63,13.63,0,0,1-1.41-.08,4.88,4.88,0,0,1,1.08,2.83c.21,3.51-3,5.56-6.07,5.56a7.92,7.92,0,0,1-.85,0c-4.12-.55-9.42-3.5-11.65-10.65-1.7-5.47-.14-9.32,1.81-10.41a2.19,2.19,0,0,1,1-.23,2.29,2.29,0,0,1,1.68.72,3.6,3.6,0,0,1,.35-1.15,1.4,1.4,0,0,1,.1-.16h-.07a4.84,4.84,0,0,1-2.12-.49c-3.48-1.64-3.45-6.07-1.51-8.71A13.86,13.86,0,0,1,24.64,8.87M21.11,24.11a4.91,4.91,0,0,1,0-2.35,9.22,9.22,0,0,1-1.44,1,3.07,3.07,0,0,1,1.39,1.32s0,0,0,0M24.64,4.57h0A18.28,18.28,0,0,0,9.81,11.81,11.16,11.16,0,0,0,8,20.92a9.44,9.44,0,0,0,1,2.39c-1.88,2.83-2.72,7.26-1,12.75C10.73,45,17.62,49,23.14,49.69a11.1,11.1,0,0,0,9.31-3.21,8.94,8.94,0,0,0,1.86-2.93,8.33,8.33,0,0,0,3.82.88c3.88,0,7.95-2.25,11.17-6.17,5.94-7.25,5.47-15.18,3.05-20.19a10.82,10.82,0,0,0-9.41-6.16,8.89,8.89,0,0,0-3,.51c-1.47-3.16-5-6.22-10.9-7.4a22.48,22.48,0,0,0-4.42-.45Z"/><path class="cls-1" d="M77.83,42.8a3.34,3.34,0,0,1-3.24-2.15l-1.2-3.25a29.74,29.74,0,0,1-6.13,1l-.26.82-.51,1.38a3.34,3.34,0,0,1-3.25,2.21h-4.7a3,3,0,0,1-1.89-.69L56.47,42l-.15-.19a3,3,0,0,1-.69-1.89,2.85,2.85,0,0,1,.21-1.19l8.4-23.08a3.58,3.58,0,0,1,3.47-2.47h5.64a3.6,3.6,0,0,1,3.47,2.46l8.4,23.08a2.89,2.89,0,0,1,.21,1.2,3,3,0,0,1-2.91,2.92Zm-7.4-14.35.17,0-.08-.22Z"/><path class="cls-1" d="M73.35,15.29a1.48,1.48,0,0,1,1.46,1.05l8.44,23.21a.79.79,0,0,1,0,.33.8.8,0,0,1-.76.77H77.83a1.21,1.21,0,0,1-1.24-.8L74.7,34.72a27.1,27.1,0,0,1-9,1.58L65,38.46l-.51,1.39a1.2,1.2,0,0,1-1.23.8h-4.7a.89.89,0,0,1-.54-.22.86.86,0,0,1-.22-.55c0-.18,0-.29,0-.33l8.44-23.21a1.46,1.46,0,0,1,1.45-1.05h5.64M67.27,31.11a16.08,16.08,0,0,0,6-1.45l-2.81-8-3,8.7-.23.76M73.35,11H67.71a5.74,5.74,0,0,0-5.49,3.87L53.83,37.92a5.27,5.27,0,0,0,.81,5.19l.3.38.37.3A5.14,5.14,0,0,0,58.54,45h4.7a5.53,5.53,0,0,0,5.23-3.51l0,0,0-.06.33-.91a29.67,29.67,0,0,0,3.2-.49l.51,1.4,0,.06,0,.06A5.45,5.45,0,0,0,77.83,45h4.69a5.07,5.07,0,0,0,5.06-5.07,5,5,0,0,0-.37-2l-8.36-23A5.76,5.76,0,0,0,73.35,11Z"/><path class="cls-1" d="M211.6,42.8a3.33,3.33,0,0,1-3.23-2.15l-1.2-3.25a29.84,29.84,0,0,1-6.14,1l-.26.82-.5,1.38A3.36,3.36,0,0,1,197,42.8h-4.69a3,3,0,0,1-1.89-.69l-.19-.15-.15-.19a3,3,0,0,1-.69-1.89,2.79,2.79,0,0,1,.21-1.18L198,15.61a3.6,3.6,0,0,1,3.48-2.47h5.63a3.61,3.61,0,0,1,3.48,2.46L219,38.68a2.77,2.77,0,0,1,.22,1.2,3,3,0,0,1-2.92,2.92Zm-7.39-14.35.16,0-.07-.22Z"/><path class="cls-1" d="M207.12,15.29a1.46,1.46,0,0,1,1.46,1.05L217,39.55s0,.15,0,.33a.8.8,0,0,1-.77.77H211.6a1.21,1.21,0,0,1-1.24-.8l-1.89-5.13a27,27,0,0,1-9,1.58l-.67,2.16-.51,1.39a1.21,1.21,0,0,1-1.24.8h-4.69a.9.9,0,0,1-.55-.22.92.92,0,0,1-.22-.55c0-.18,0-.29,0-.33L200,16.34a1.46,1.46,0,0,1,1.46-1.05h5.63M201,31.11a16.08,16.08,0,0,0,6.05-1.45l-2.8-8-3,8.7-.24.76M207.12,11h-5.63a5.75,5.75,0,0,0-5.5,3.87l-8.38,23.07a4.86,4.86,0,0,0-.36,2,5.09,5.09,0,0,0,1.16,3.22l.3.39.38.3A5.14,5.14,0,0,0,192.32,45H197a5.54,5.54,0,0,0,5.23-3.5l0-.06,0-.06.34-.91a29.48,29.48,0,0,0,3.19-.49l.52,1.4,0,.06,0,.06A5.46,5.46,0,0,0,211.6,45h4.69a5.08,5.08,0,0,0,5.07-5.07,5,5,0,0,0-.37-2l-8.37-23a5.76,5.76,0,0,0-5.5-3.88Z"/><path class="cls-1" d="M130.28,42.72a3.63,3.63,0,0,1-3.4-2.18l-3.38-6.62h0V39.7a2.88,2.88,0,0,1-1,2.22,3,3,0,0,1-2.09.8h-5a3.12,3.12,0,0,1-3.06-3V18.38a5.24,5.24,0,0,1,5.31-5.28h7.72c7.72,0,12.33,3.91,12.33,10.45a9.53,9.53,0,0,1-3.7,7.78L138,38.41a3.11,3.11,0,0,1,.37,1.44,2.84,2.84,0,0,1-.84,2l-.08.09-.1.07a3,3,0,0,1-1.89.69Zm-4.91-18.45c1,0,1-.32,1-.76a1.08,1.08,0,0,0-.16-.68,1.38,1.38,0,0,0-.89-.23h-2.11v1.67Z"/><path class="cls-1" d="M125.41,15.25c5.6,0,10.18,2.29,10.18,8.3a7.42,7.42,0,0,1-3.89,6.76.52.52,0,0,0-.29.44.48.48,0,0,0,.07.4l4.59,8.3a.94.94,0,0,1,.1.4.7.7,0,0,1-.21.5.88.88,0,0,1-.55.22h-5.13a1.49,1.49,0,0,1-1.45-.94l-3.71-7.28a1,1,0,0,0-1-.58h-2.8V39.7a.77.77,0,0,1-.25.62.9.9,0,0,1-.66.25h-5a1,1,0,0,1-.91-.87V18.38a3.09,3.09,0,0,1,3.16-3.13h7.72M122.2,26.42h3.17c1.89,0,3.2-1,3.2-2.91a3,3,0,0,0-.87-2.29,3.52,3.52,0,0,0-2.33-.77h-4.26v4.88a1,1,0,0,0,.33.76.94.94,0,0,0,.76.33M125.41,11h-7.72a7.37,7.37,0,0,0-7.46,7.43V39.7a5.26,5.26,0,0,0,5.21,5.17h5A5.2,5.2,0,0,0,124,43.51a4.93,4.93,0,0,0,1.2-1.62,5.76,5.76,0,0,0,5.12,3h5.13a5.12,5.12,0,0,0,3.23-1.16l.2-.15.17-.17a5,5,0,0,0,1.46-3.54,5.34,5.34,0,0,0-.55-2.32l0-.08,0-.08-3.09-5.6a11.88,11.88,0,0,0,3.15-8.22c0-7.77-5.55-12.6-14.48-12.6Z"/><path class="cls-1" d="M183.32,42.72a3.63,3.63,0,0,1-3.4-2.18l-3.38-6.62h0V39.7a2.9,2.9,0,0,1-1,2.22,3,3,0,0,1-2.1.8h-5a3.12,3.12,0,0,1-3.06-3V18.38a5.24,5.24,0,0,1,5.31-5.28h7.71c7.73,0,12.34,3.91,12.34,10.45a9.52,9.52,0,0,1-3.7,7.78L191,38.49a3.06,3.06,0,0,1,.33,1.36,2.85,2.85,0,0,1-.84,2l-.09.09-.09.07a3,3,0,0,1-1.89.69Zm-4.91-18.45c1.05,0,1.05-.32,1.05-.76a1.08,1.08,0,0,0-.16-.68,1.48,1.48,0,0,0-.89-.22H176.3v1.66Z"/><path class="cls-1" d="M178.44,15.25c5.61,0,10.19,2.3,10.19,8.3a7.44,7.44,0,0,1-3.89,6.76.52.52,0,0,0-.29.44.48.48,0,0,0,.07.4l4.58,8.3a.84.84,0,0,1,.11.4.71.71,0,0,1-.22.51.88.88,0,0,1-.54.21h-5.13a1.5,1.5,0,0,1-1.46-.94l-3.71-7.28a1,1,0,0,0-1-.58h-2.8V39.7a.73.73,0,0,1-.26.62.87.87,0,0,1-.65.25h-5a1,1,0,0,1-.91-.87V18.38a3.09,3.09,0,0,1,3.16-3.13h7.71m-3.2,11.17h3.17c1.89,0,3.2-.94,3.2-2.91a3,3,0,0,0-.87-2.29,3.53,3.53,0,0,0-2.33-.76h-4.26v4.87a1,1,0,0,0,.33.76.92.92,0,0,0,.76.33M178.44,11h-7.71a7.37,7.37,0,0,0-7.46,7.43V39.7a5.25,5.25,0,0,0,5.21,5.17h5A5.2,5.2,0,0,0,177,43.51a4.93,4.93,0,0,0,1.2-1.62,5.76,5.76,0,0,0,5.12,3h5.13a5.15,5.15,0,0,0,3.24-1.16l.19-.15.16-.17a5,5,0,0,0,1.47-3.54,5.26,5.26,0,0,0-.55-2.31l-.05-.09,0-.08-3.1-5.6a11.84,11.84,0,0,0,3.16-8.22c0-7.77-5.55-12.6-14.49-12.6Z"/><path class="cls-2" d="M86.93,18.42a2.73,2.73,0,0,1,.33-1.35,2.5,2.5,0,0,1,.77-1,3.06,3.06,0,0,1,1-.62,3.68,3.68,0,0,1,1-.18h2.73a.88.88,0,0,1,.94.91V30.93c0,2.77,1.24,4.48,4.12,4.48S102,33.73,102,30.93V18.38a2.77,2.77,0,0,1,.32-1.34,3.18,3.18,0,0,1,2.84-1.75h2.73a.89.89,0,0,1,1,.91V31c0,7-4.55,10-10.92,10-6.73,0-11-3.23-11-10Z"/><path class="cls-3" d="M155.36,30.9c0-1.42.07-2.41.07-3s0-1.6-.07-2.95c-.07-2.73-1.31-4.66-4.22-4.66s-4.18,1.89-4.26,4.66c0,.69,0,1.67,0,2.95s0,2.33,0,3c.08,2.72,1.39,4.65,4.26,4.65s4.15-2,4.22-4.65m-15.53.21c0-.69,0-1.71,0-3.12s0-2.48,0-3.17c.21-6.77,4.87-10,11.31-10s11.06,3.23,11.28,10c0,1.42.07,2.47.07,3.17,0,3.82,0,7.78-3.2,10.51-2,1.67-4.69,2.51-8.15,2.51-6.48,0-11.1-3.06-11.31-9.9"/><path class="cls-4" d="M39.23,26.61c1.05,2.83-.19,7.5-2.57,8.92s-1.47,3.62-.37,4.2c2,1,6.06.22,9.69-4.2,4.75-5.79,4.31-11.84,2.5-15.58-1.43-3-5.33-5.06-8.41-2.76-3.57,2.66-1.52,7.59-.84,9.42"/><path class="cls-3" d="M30,26.65c-2.83,1.05-7.51-.19-8.91-2.57s-3.63-1.47-4.21-.37c-1,2-.22,6.06,4.2,9.69,5.79,4.75,11.84,4.31,15.58,2.5,3-1.43,5.06-5.33,2.77-8.41-2.67-3.57-7.6-1.51-9.43-.84"/><path class="cls-5" d="M23.21,34c-2.94-.68-6.17-4.28-6-7S15,23.77,13.86,24.37c-1.95,1.09-3.51,4.94-1.81,10.41,2.23,7.15,7.53,10.1,11.65,10.65,3.25.42,7.15-1.67,6.92-5.51-.26-4.45-5.51-5.44-7.41-5.88"/><path class="cls-2" d="M23.5,19.38c2-2.25,6.72-3.36,9.08-1.92s3.89-.4,3.89-1.65c0-2.23-2.65-5.45-8.26-6.58C20.87,7.76,15.73,11,13.28,14.35c-1.94,2.64-2,7.07,1.51,8.71,4,1.9,7.41-2.22,8.71-3.68"/><path class="cls-6" d="M31.37,26.73c2.83-1.05,7.51.19,8.92,2.57s3.63,1.47,4.21.37c1-2,.22-6.06-4.2-9.69-5.8-4.75-11.85-4.31-15.59-2.5-2.95,1.43-5.06,5.33-2.76,8.41,2.67,3.57,7.59,1.51,9.42.84"/><path class="cls-5" d="M67.27,31.11l.23-.76,3-8.7,2.81,8a16.08,16.08,0,0,1-6,1.45m16,8.44L74.81,16.34a1.48,1.48,0,0,0-1.46-1.05H67.71a1.46,1.46,0,0,0-1.45,1.05L57.82,39.55s0,.15,0,.33a.86.86,0,0,0,.22.55.89.89,0,0,0,.54.22h4.7a1.2,1.2,0,0,0,1.23-.8L65,38.46l.67-2.16a27.1,27.1,0,0,0,9-1.58l1.89,5.13a1.2,1.2,0,0,0,1.23.8h4.7a.8.8,0,0,0,.76-.77.79.79,0,0,0,0-.33"/><path class="cls-7" d="M201,31.11l.24-.76,3-8.7,2.8,8A16.08,16.08,0,0,1,201,31.11m16,8.44-8.44-23.21a1.46,1.46,0,0,0-1.46-1.05h-5.63A1.46,1.46,0,0,0,200,16.34l-8.44,23.21s0,.15,0,.33a.92.92,0,0,0,.22.55.9.9,0,0,0,.55.22H197a1.21,1.21,0,0,0,1.24-.8l.51-1.39.67-2.16a27,27,0,0,0,9-1.58l1.89,5.13a1.21,1.21,0,0,0,1.24.8h4.69a.8.8,0,0,0,.77-.77c0-.18,0-.29,0-.33"/><path class="cls-8" d="M125.37,26.42H122.2a.94.94,0,0,1-.76-.33,1,1,0,0,1-.33-.76V20.45h4.26a3.54,3.54,0,0,1,2.33.77,3,3,0,0,1,.87,2.29c0,2-1.31,2.91-3.2,2.91m10.7,13-4.59-8.3a.48.48,0,0,1-.07-.4.52.52,0,0,1,.29-.44,7.42,7.42,0,0,0,3.89-6.76c0-6-4.58-8.3-10.18-8.3h-7.72a3.09,3.09,0,0,0-3.16,3.13V39.7a1,1,0,0,0,.91.87h5a.9.9,0,0,0,.66-.25.77.77,0,0,0,.25-.62V31.77h2.8a1,1,0,0,1,1,.58l3.71,7.28a1.49,1.49,0,0,0,1.45.94h5.13a.88.88,0,0,0,.55-.22.7.7,0,0,0,.21-.5.94.94,0,0,0-.1-.4"/><path class="cls-6" d="M178.41,26.42h-3.17a.92.92,0,0,1-.76-.33,1,1,0,0,1-.33-.76V20.46h4.26a3.53,3.53,0,0,1,2.33.76,3,3,0,0,1,.87,2.29c0,2-1.31,2.91-3.2,2.91m10.69,13-4.58-8.3a.48.48,0,0,1-.07-.4.52.52,0,0,1,.29-.44,7.44,7.44,0,0,0,3.89-6.76c0-6-4.58-8.3-10.19-8.3h-7.71a3.09,3.09,0,0,0-3.16,3.13V39.7a1,1,0,0,0,.91.87h5a.87.87,0,0,0,.65-.25.73.73,0,0,0,.26-.62V31.77h2.8a1,1,0,0,1,1,.58l3.71,7.28a1.5,1.5,0,0,0,1.46.94h5.13a.88.88,0,0,0,.54-.21.71.71,0,0,0,.22-.51.84.84,0,0,0-.11-.4"/></svg>