<svg id="Capa_1" data-name="Capa 1" xmlns="http://www.w3.org/2000/svg" viewBox="0 0 62.36 61.18"><defs><style>.cls-1{fill:#5da6bc;}</style></defs><path class="cls-1" d="M23.52,18.92a5.54,5.54,0,0,0-3,6.12,4.35,4.35,0,0,0-5.78,2.61c-.88,2.4.31,5.48,2.48,6.4C15.32,34,15.82,31.73,14,32.47a5.54,5.54,0,0,0-3.51,4.67c-.12,2.67.13,7.11,2.39,6.25-.06,3.75,3.09,6.79,6.38,7.52s6.67-.27,9.9-1.27l.37-20.49C29.62,25.07,30,16.33,23.52,18.92Z"/><path class="cls-1" d="M23.43,18.69s0,.1.14,0l.05-.15Z"/><path class="cls-1" d="M24.4,18.61c.14-.1.31-.25.18-.33-.14.15-.19.12-.32.3s-.25,0-.24,0-.22.05-.27.14a1,1,0,0,0,.64-.17C24.45,18.54,24.41,18.59,24.4,18.61Z"/><path class="cls-1" d="M29.37,28.86l0-.08S29.38,28.83,29.37,28.86Z"/><path class="cls-1" d="M29.16,37.27q0-.09,0-.09C29.14,37.24,29.14,37.29,29.16,37.27Z"/><path class="cls-1" d="M29,38.7v-.08A.12.12,0,0,0,29,38.7Z"/><path class="cls-1" d="M29.37,28.86l0,.23S29.36,29,29.37,28.86Z"/><path class="cls-1" d="M26.31,18.2h0Z"/><path class="cls-1" d="M29.26,25.18v-.07l-.06-.06Z"/><path class="cls-1" d="M28.91,22.4c0,.06.12.06.17.08a.23.23,0,0,1-.1-.12S28.94,22.37,28.91,22.4Z"/><path class="cls-1" d="M26.83,18.78h0Z"/><path class="cls-1" d="M29.28,27.2l0,0Z"/><path class="cls-1" d="M20.73,20.9h0S20.74,20.87,20.73,20.9Z"/><path class="cls-1" d="M23.53,18.94l0,0a.13.13,0,0,0,0,.06Z"/><path class="cls-1" d="M28.81,41.33h0C28.8,41.25,28.8,41.29,28.81,41.33Z"/><path class="cls-1" d="M14.86,47.65c.1.26-.37-.25-.19.12C14.68,47.71,15,47.94,14.86,47.65Z"/><path class="cls-1" d="M26.39,18.22l.13,0Z"/><path class="cls-1" d="M14.67,47.77h0l0,0Z"/><path class="cls-1" d="M28.77,47.38a.15.15,0,0,0,0-.06S28.79,47.34,28.77,47.38Z"/><path class="cls-1" d="M29,42.88,29,43C29,42.94,29,42.91,29,42.88Z"/><path class="cls-1" d="M28.83,49.43s0,0-.08,0h0S28.79,49.43,28.83,49.43Z"/><polygon class="cls-1" points="26.67 50.07 26.72 50.08 26.79 50.05 26.67 50.07"/><path class="cls-1" d="M17.11,24.61l.15,0C17.19,24.6,17.55,24.43,17.11,24.61Z"/><path class="cls-1" d="M26.3,18.25a.12.12,0,0,1,.09,0H26.3S26.29,18.24,26.3,18.25Z"/><path class="cls-1" d="M29.35,50.14l-.58.16.21,0Z"/><path class="cls-1" d="M11.78,33.45l.06-.07A.19.19,0,0,0,11.78,33.45Z"/><path class="cls-1" d="M27.67,50.64h-.24s0,0,0,0Z"/><path class="cls-1" d="M17.26,24.65Z"/><path class="cls-1" d="M19.84,24.17s-.09,0-.09.06,0,.1,0,.13c-.48,0-.21-.13-.36-.23-.32,0-.56.14-.78.16,0,0-.06,0,0-.06-.31.12-.95.16-1.24.44a.08.08,0,0,1-.06,0,.21.21,0,0,1,.12.16c-.16.06-.26.19-.35.15.09-.05.09-.09.12-.13l-.14.11c-.21,0,.2-.15.16-.23-.32.18-.62.48-.86.61-.12-.08.52-.39.15-.28a2.83,2.83,0,0,1,.4-.17c-.39,0,.24-.11-.13-.16a5.41,5.41,0,0,0-1,.71c0,.15.1,0,.06.19-.47.65-.69.25-.92.84,0,.17.1.31-.18.63l-.06-.19c-.25.5,0,.36-.24.87,0-.12.09-.43,0-.35-.24.31,0,.28-.09.55l-.14,0a5.58,5.58,0,0,0,0,1.87s-.09-.14-.12,0a10.22,10.22,0,0,0,.65,2.44,1.64,1.64,0,0,0,.25.21c0,.06,0,.14,0,.09.13.28.06,0,.18.07s.08.23,0,.16a13.65,13.65,0,0,0,1.63,1.38l-.12,0a.85.85,0,0,0,.5.14l.14-.61a.36.36,0,0,1-.33,0H17a1.55,1.55,0,0,1-.92-.62A4.21,4.21,0,0,0,15.19,32c-.12,0-.42-.08-.7,0s-.49.12-.49.23a2.79,2.79,0,0,0-1.14.32c-.18.1-.18.29-.37.45l-.07-.09-.2.31H12l-.16.19c.07-.06.18-.1.19-.07a2.1,2.1,0,0,1-.73.57,6,6,0,0,0-.44.78s0-.17.08-.29c-.16.47-.17,0-.29.45,0,0,0,.06.06.08a2.29,2.29,0,0,0-.45,1l-.06-.09A6.54,6.54,0,0,0,10,37.9c0-.25.18-.19.19,0l-.12.08c.07.14,0-.21.14.06s-.14.18-.18,0l0,.31s-.05,0-.1-.07c.08.13-.12.55,0,.74l0,0a13.67,13.67,0,0,0,.18,1.6c.11,0,.12.22.23.38a4.36,4.36,0,0,0,.27,1.42c.2.34.12.07.25.2-.07.07.21.56,0,.34a2,2,0,0,0,.61.63,1.32,1.32,0,0,0,.43.18.93.93,0,0,0,.47,0s-.07-.06,0-.09.15,0,.11.07h0l.12,0s0,.2,0,.29a1.16,1.16,0,0,0,0,.27v.34a2.24,2.24,0,0,0,.3,1.16l0,0a5.93,5.93,0,0,0,.36.65c.13.31-.15-.16-.09.09a9.85,9.85,0,0,0,1.07,1.58c.08.61,1.22,1.31,1.67,1.82v-.07c.18.05.15.16.25.24S16,50,16.09,50a11.21,11.21,0,0,0,4.26,1.71c.56.06.34-.31,1-.13l-.2.12a16.29,16.29,0,0,0,3.31-.39s0,.08-.15.1c.24.05.82-.15.81-.23.16,0,.05.06.16.07s.53-.23.67-.18-.06,0-.1.06c.14-.07.67-.15.51-.22.4,0,.72-.24,1-.26.17-.17.67-.14.69-.32,0,.09.18.07.38,0a3.25,3.25,0,0,0,.65-.26c-.12.09.39-.06.28,0,.35,0,.24-.34.24-.51s0-.27-.09-.24,0-.18.06-.25a1.36,1.36,0,0,0,0-.2c0-.13,0-.25,0-.37s-.06-.44.08-.58c-.08-.85-.13-1.63-.15-2.39.17,0,0,.84.18.81a9.71,9.71,0,0,1-.14-1.86c0-.18.07.11.1.17-.06-.72,0-1.39,0-2a.33.33,0,0,1,0,.14c0-.13,0-.3-.05-.28l0,.12c-.11.2-.22-.5-.28-.53.22.22.07-.63.34-.28,0-.09-.05-.19-.1-.17s.05-.17.1,0c0-.45-.12-.29-.11-.7,0,0,.05.08.1.13a1.58,1.58,0,0,1-.1-.77s.05,0,.05.09a11.27,11.27,0,0,1-.1-1.67c.16.19.06-.22.2-.25l0-.36-.07.14a4.91,4.91,0,0,1,0-.84l.05.23,0-.58-.05.33c-.07-.31-.18,0-.14-.38,0,.08,0-.31.1-.47h0a1.15,1.15,0,0,1-.05-.54c.05-.06.15,0,.18,0s0-.72-.14-.91c0,.06.11.07.12,0L29.59,35c0-.14.05-.16.1-.14,0-.43-.18.13-.09-.37,0,0,0,0,0,.1.05-.51,0-1,0-1.45.14-.14,0,.41.14.25,0-.67-.14-1.4-.09-2l0,.12c-.2-.1.11-.49,0-.82,0,.08.11.11.08.09a10.8,10.8,0,0,0-.08-1.6l.05.08c.05-.26,0-.69.07-1-.05-.08,0-.24-.11-.15.3-.88-.14-1.68.07-2.46,0,.09,0,.22,0,.14l-.07-.66c-.09.05-.05.09-.11.23a1,1,0,0,1-.11-.43c.07.29.14,0,.17-.15,0,0-.05,0-.08,0,.13-.36-.17-.05-.11-.53l.05,0a4,4,0,0,1-.13-.52c.09-.09.07.18.16.18,0-.27-.25-.5-.19-.76,0,.11.07.28.11.39a1,1,0,0,0,0-.51v0l0-.47v.13c-.32-.29-.18-.68-.47-1.08.27.39.11.05.23.05s0-.31,0-.27c-.16-.18,0-.38-.29-.62,0,0-.08-.23,0-.21-.14-.26,0,.08-.08.08-.28-.34-.33-1.05-.92-1.44A3,3,0,0,0,27,18.74c-.13-.13.18,0,.18,0a1.18,1.18,0,0,0-.7-.27c.06,0,0-.05-.06-.11s-.16.08-.43,0a.45.45,0,0,1,.23-.13,3.86,3.86,0,0,0-.77.11c-.08-.06.15-.1.24-.15-.3,0-.76.12-.83.24H25c-.1,0-.07-.08,0-.11.24-.12.36,0,.37,0l-.17,0c.19.2.71-.08,1.09,0l-.17.12.38-.05c.07.07.09.16-.08.13.22.15.23,0,.41.17,0,0,0,0,0,0l.23.07c-.06,0,0,.11-.13,0,.33.25.64.27.69.47h0c.45.38.12-.05.53.2a2.72,2.72,0,0,1,0,.42h.13c0,.05.08.16,0,.17.19.16,0-.07.16,0,.07.3.41.74.26.87.12.07,0-.29.13,0-.14.15.16.34.16.64-.12-.06-.15-.32-.15,0,.2.11.1.53.18.75.13,0,.16.48.26.87,0,0,0,.74,0,1.11h0c.15.05.15.44.19.71-.08,0-.11-.05-.16-.2l0,.26a.66.66,0,0,1,.09.3l-.1-.06a5,5,0,0,1,.08,1.14c.1,0,.26-.36.33.12-.05,0-.14,0-.16-.09a.48.48,0,0,1,0,.22l-.09-.18c0,.2.08.1.07.26-.07,0-.05.13-.11.1s0-.14,0-.2a1.31,1.31,0,0,1-.11.48s.1,0,.1.13c0,.35-.08.12-.12.32s0,.31.1.31-.05.12-.09.16,0,.84.12.64v0h0c.09.59-.09,1.22-.05,1.81h0a7.31,7.31,0,0,0,.09,1c0,.1-.07.24-.12.19a1.58,1.58,0,0,1,0,.69c-.06-.27-.06.09,0-.28a1.66,1.66,0,0,0,0,.8c-.09-.13-.12.26-.1.43l.08-.25a4.35,4.35,0,0,1,0,.52l-.12-.09c-.16.7.23,1.28,0,1.82.09.19.07-.39.17-.22A4.92,4.92,0,0,1,29,36c-.08.45.17.42.12.89,0-.06.16-.11.2.24s-.2.4-.23.19,0-.12,0-.11,0-.25-.08-.12l0,0c-.05.17-.05.62-.12.51,0,.25.07.11.1-.08-.07.42,0,.66-.07,1.09,0-.07.08-.13.08-.06-.07.63.08.28.09.71-.07.24-.16-.09-.11.34,0,.26-.12,0-.15,0a2.69,2.69,0,0,1-.09,1l0-.21a1.87,1.87,0,0,1,0,.33l.09-.12c0,.12,0,.23-.06.22s.15-.09.23.16,0,.5-.08.55c.05-.51-.12.06-.13-.38a1.1,1.1,0,0,1,0,.31s0,0,0-.05c-.11.49.13.23.12.73-.07-.06-.13.12-.12.2,0-.2.12-.1.16.09a1.53,1.53,0,0,0,0,.53l0-.2c.07.07.06.23.07.46-.05,0,0-.21-.05-.13.11.26-.13.57-.06.92-.05.16-.13,0-.16.16.08.39-.1.42,0,.83.09-.11.07-.13.15.16l-.05-.68.12.44c0-.21-.05-.44,0-.56.07.21.05.19.12.09-.14.28.07.56,0,.88h-.22c-.1.48.1.86,0,1.49l.05-.2c.08.09,0,.39,0,.6-.07,0-.1.11-.15.19s0,.47.14.53l-.11.28c-.05.51.2.58.17,1.07-.08-.15-.13.08-.19-.25,0,.17,0,.29,0,.28s0,.07,0,.14-.07.09-.11.08,0,.11-.14.16c0,0,0,0,0,0s-.26.13-.08.16c-.55-.07-1.35.42-1.82.34-.34.12-.75.25-1.06.33,0,0,0,0,.05,0-.44,0-.22.27-.73.3-.28-.06.25-.12.08-.13-.11-.22-.59.15-.95.07l.08,0c-.26,0-.6.19-1,.21,0,0,0,0,0,0a3.54,3.54,0,0,1-1.22.28c.12-.1.18-.06.1-.15s.06.15-.31.19c-.12,0-.38-.1-.41-.21h.34c-.17-.13-.44,0-.62,0l0-.06c-.52,0-.54.14-1.1,0l.06.05c-.33.1-.24-.12-.57-.07l-.06-.16a4.82,4.82,0,0,1-1.07-.14c.23,0,.65,0,.91,0a3.53,3.53,0,0,0-.76-.14c.08,0,.19,0,.25.06a1.74,1.74,0,0,1-1-.19c.18-.21-.9-.51-1-.89A5.49,5.49,0,0,1,15.14,48c0,.37-.16-.17-.3,0-.13-.14-.18-.2-.17-.22a3.76,3.76,0,0,1-.23-.55c0-.14.14.12.17.08-.21-.34,0-.19-.11-.45,0,.09-.17-.06-.26-.27l.07.33c-.39-.43-.08-.51-.42-1l.14.13c-.19-.24-.37-1-.6-1.22,0-.06.05-.13.1,0-.06-.24-.09-.49-.16-.74s-.08-.87-.14-1.18l-.54.14a.7.7,0,0,1-.4,0l0-.06c-.08,0-.17.09-.25,0s.05,0,0-.06a.36.36,0,0,1-.33-.17.56.56,0,0,0,.12,0,4.9,4.9,0,0,1-.81-1.25c.16,0,.09-.57.08-.84h0c-.1-.79-.29-1.35-.37-2.12a20.14,20.14,0,0,1,.31-2.28c-.06.1-.12,0-.11-.17s.05-.48.18-.4l0,0c.18-.07.28-.38.42-.61l-.15-.14a7,7,0,0,0,.83-.94c.27-.33.57-.6.8-.61s.29-.25.41-.38l0,.09a5.08,5.08,0,0,1,1.09-.42l-.08.09c.18,0,.26-.34.5-.2a.84.84,0,0,1,0,.17,6.51,6.51,0,0,1,.5.72,1.62,1.62,0,0,0,.91.67s-.06,0-.18,0a2.13,2.13,0,0,0,1,.29l2.54-.09-2.32-.87c-.11-.05-.2-.05-.2,0,.05-.12-.5-.27-.77-.45l.1,0a.93.93,0,0,1-.6-.3c0-.08,0-.11.07,0-.14-.26-.23-.11-.39-.44l.12.08a.62.62,0,0,0-.33-.32c-.13-.15-.26-.54-.18-.62A.39.39,0,0,1,15,31.2s.06,0,.08.05c-.1-.5-.34-.7-.3-1.08,0,0,0,0,.06-.07.05.41.15.72.13.69s0-.34.22-.13a1.69,1.69,0,0,1-.35-.95l0-.05v0a.42.42,0,0,0,0-.2,1.15,1.15,0,0,0,0-.26c.08,0,.06-.36.09-.51s-.07-.21-.17,0v.21h0c0,.11,0,.25,0,.4a.51.51,0,0,1,0-.44l-.14-.25c.18-.21.36-.6.47-.62.08-.48.42-1,.46-1.4.06-.13.15-.09.2-.12s-.1.15-.1.2c.12-.26.54-.62.5-.77.32-.17-.07.22.3-.1l0,.08a8.22,8.22,0,0,0,1.07-.68,1.66,1.66,0,0,1,1.31-.29c-.07,0-.11,0-.13,0a5.47,5.47,0,0,1,.9.08c.13,0,.41.13.61.18l.61.23A11.54,11.54,0,0,1,20.64,24a3,3,0,0,1,.14-.95,1.15,1.15,0,0,0,0-.61l.13,0c0-.13,0-.26,0-.39.1-.53.57-.71.78-1.33l-.11,0c.14-.19.43-.62.47-.53s0-.11.09-.15l0,0a5.19,5.19,0,0,1,.36-.46c.38-.22.08.21.61-.12.17-.15.51-.44.42-.45s-.24.07-.28,0l.2-.12c0-.18.09-.43-.53-.28l-.32.31h-.16a3.28,3.28,0,0,1,.31-.2.56.56,0,0,0-.39.3.25.25,0,0,0-.2,0c-.08.13-.14.27-.21.4s.05-.23-.18-.06.24,0,0,.23c-.19.1-.2,0-.31.23-.05,0,0-.06,0-.14-.11.18-.33.45-.33.59-.2.12-.35.61-.48.51a2.92,2.92,0,0,1-.12.57c-.05-.41-.28.66-.43.51.08.3-.18.95-.11,1.42a.22.22,0,0,1,0-.12c0,.26-.1.33-.13.5.07,0,.11.13.15.27a1,1,0,0,0,.13.25c-.14.07-.19-.16-.32-.15.11,0,.13.2.24.26-.08,0,0,0-.17-.11.19.26,0,0,0,.15-.16-.14-.08-.2-.16-.16s0-.07,0-.09Zm-5.62,5.68h0l0-.19Zm.12.75c0-.09,0-.21-.06-.32s.08,0,.09.06S14.34,30.48,14.34,30.6Zm.6-1.55c0,.1,0,.14,0,.15a1.19,1.19,0,0,1,0-.19h0Z"/><path class="cls-1" d="M14.82,28.84s0,0,0,0l0,.06,0,0Z"/><path class="cls-1" d="M29.39,28.76v0s0,0,0,0Z"/><polygon class="cls-1" points="12.4 32.85 12.42 32.87 12.46 32.81 12.4 32.85"/><path class="cls-1" d="M29.71,24.76s0,0,0-.05S29.72,24.74,29.71,24.76Z"/><path class="cls-1" d="M29.55,23v0Z"/><path class="cls-1" d="M29.33,21.7a.06.06,0,0,0,0,0h0Z"/><path class="cls-1" d="M29.7,42.8v.05C29.72,43,29.71,42.89,29.7,42.8Z"/><path class="cls-1" d="M29.57,36.53c0,.06,0,.13,0,.2C29.62,36.62,29.63,36.53,29.57,36.53Z"/><polygon class="cls-1" points="29.43 50.12 29.43 50.11 29.35 50.14 29.43 50.12"/><path class="cls-1" d="M29.61,37a.7.7,0,0,0,0-.29A.94.94,0,0,0,29.61,37Z"/><path class="cls-1" d="M25,18.17H25s0,0,0,0Z"/><path class="cls-1" d="M25,18.19l-.07,0S25,18.21,25,18.19Z"/><path class="cls-1" d="M24.74,18.27l.15-.05C24.84,18.23,24.77,18.23,24.74,18.27Z"/><path class="cls-1" d="M26.91,18.4l0,0S26.92,18.38,26.91,18.4Z"/><path class="cls-1" d="M27.44,18.65a1.73,1.73,0,0,0-.47-.3l0,0C27.05,18.35,27.3,18.63,27.44,18.65Z"/><path class="cls-1" d="M28.49,20.68c-.06-.13-.1-.27-.17-.4,0,.09,0,.19-.1,0C28.36,20.84,28.26,20.17,28.49,20.68Z"/><path class="cls-1" d="M28.87,22c-.08-.23-.06,0-.08,0S28.88,22.15,28.87,22Z"/><path class="cls-1" d="M29.25,31.88l-.09,0C29.17,32,29.2,31.86,29.25,31.88Z"/><polygon class="cls-1" points="29.71 33.81 29.77 33.63 29.69 33.54 29.71 33.81"/><polygon class="cls-1" points="29.01 34.92 29 34.84 29.03 35.15 29.01 34.92"/><path class="cls-1" d="M27.06,49.86l.08.1C27.26,49.91,27.25,49.77,27.06,49.86Z"/><path class="cls-1" d="M20.05,50.77a.55.55,0,0,0-.39-.1A1.71,1.71,0,0,0,20.05,50.77Z"/><path class="cls-1" d="M11.74,34.87l0,.14a1.63,1.63,0,0,1,.11-.23Z"/><path class="cls-1" d="M33.27,24.31a13.32,13.32,0,0,1,.56-4.14,3.64,3.64,0,0,1,2.72-2.56c1.5-.14,2.83,1.3,3.3,2.93A13,13,0,0,1,40,25.63a4.32,4.32,0,0,1,5,1.29,5.93,5.93,0,0,1,.85,5.73c2.11-1,4.84.39,5.6,2.85s-.6,5.49-2.8,6.22c1.57.92,1.82,3.57.88,5.28a7.35,7.35,0,0,1-4.36,3.2,18.13,18.13,0,0,1-8.64.74c-3.94-.62-3.9-1.38-3.78-5.74Q33,34.76,33.27,24.31Z"/><path class="cls-1" d="M33.54,24.32c0-.05-.11,0-.1.11l.13.1Z"/><path class="cls-1" d="M33.27,25.23c.06.16.16.34.29.24-.12-.16-.07-.19-.22-.37s0-.23.1-.21,0-.21,0-.28a.79.79,0,0,0,0,.63C33.32,25.29,33.29,25.24,33.27,25.23Z"/><path class="cls-1" d="M32.69,38.45l0-.09A.29.29,0,0,0,32.69,38.45Z"/><path class="cls-1" d="M32.4,46.65q0-.09,0-.09S32.38,46.66,32.4,46.65Z"/><path class="cls-1" d="M32.29,48.09V48A.14.14,0,0,0,32.29,48.09Z"/><path class="cls-1" d="M32.69,38.45l0,.22S32.68,38.56,32.69,38.45Z"/><path class="cls-1" d="M33.54,27.06a.34.34,0,0,0,0-.12v.11Z"/><path class="cls-1" d="M32.68,34.83v-.06l-.06-.06Z"/><path class="cls-1" d="M32.74,32.06c0,.06.11.09.15.11a.21.21,0,0,1-.07-.14Z"/><path class="cls-1" d="M33.06,27.67v0Z"/><path class="cls-1" d="M32.6,36.82l0,0Z"/><path class="cls-1" d="M34.08,21.23h0S34.07,21.25,34.08,21.23Z"/><path class="cls-1" d="M33.24,24.31v0h-.07Z"/><path class="cls-1" d="M33.56,50.69h0C33.47,50.65,33.51,50.67,33.56,50.69Z"/><path class="cls-1" d="M49.58,41.76c-.08,0-.09,0-.08-.09s0-.1-.12-.08C49.41,41.63,49.41,41.78,49.58,41.76Z"/><path class="cls-1" d="M33.52,27.13v0Z"/><path class="cls-1" d="M49.38,41.59Z"/><path class="cls-1" d="M39.62,51.64a.15.15,0,0,0-.06,0S39.57,51.62,39.62,51.64Z"/><path class="cls-1" d="M35.17,51l.11,0Z"/><path class="cls-1" d="M41.93,51.3a.32.32,0,0,0,.16,0h0A.24.24,0,0,1,41.93,51.3Z"/><polygon class="cls-1" points="44.3 50.79 44.25 50.78 44.17 50.81 44.3 50.79"/><path class="cls-1" d="M38.29,18.8v-.15C38.26,18.74,38,18.55,38.29,18.8Z"/><path class="cls-1" d="M33.47,27.06s0,0,.05.07v-.08A0,0,0,0,0,33.47,27.06Z"/><path class="cls-1" d="M41.9,50.4l.36,0A2.63,2.63,0,0,0,41.9,50.4Z"/><path class="cls-1" d="M45.71,30.61v-.08A.19.19,0,0,0,45.71,30.61Z"/><path class="cls-1" d="M43.32,50.13a.57.57,0,0,0,.22,0s0,0,0,0Z"/><path class="cls-1" d="M38.29,18.65Z"/><path class="cls-1" d="M36.41,18.29c.25-.05.1-.17.14-.26.35-.06.17.1.28.17s.38-.13.54-.06c0,0,0,.05,0,.07.26-.05.62.3.93.39,0,0,0,0,0,0a.34.34,0,0,1,.1-.18c.12.1.28.14.25.24-.07-.07-.1,0-.15-.05l.14.08c0,.2-.19-.12-.26,0a2,2,0,0,1,.67.62c-.08.11-.36-.42-.28-.1a2.48,2.48,0,0,0-.18-.31c0,.35-.12-.17-.14.17.25.37.37.35.57.78.11,0,.08-.09.2,0,.41.58-.11.6.2,1,.12.1.31.12.29.49l-.18-.09c.07.46.27.23.23.74-.07-.08-.1-.37-.1-.29-.08.33.11.21.13.46l-.13.06a13.73,13.73,0,0,1,.14,1.65s-.08-.14-.13,0a3.12,3.12,0,0,1,0,.43v.23l0,.29c-.07.53-.15,1.07-.22,1.6l.85-.26.51-.3c.1,0,.2,0,.09.06.34,0,0-.08.15-.15s.2,0,.11.09a2.15,2.15,0,0,1,1.7.08h-.1c.32.16.48-.08.75.17h-.07a3.17,3.17,0,0,1,1.57,1.63c.22,0,.31.73.53.69.05.48,0,.37.05,1,0,.17.2.23.25.44l-.12,0c.05.09.11.19.15.28l-.14.17a1.18,1.18,0,0,1,0,.2c0-.08,0-.17.09-.16.07.32-.11.77-.18.76,0,.14,0,.23,0,.4s-.06.42-.11.64c0,0,0-.23,0-.41,0,.68-.17.18-.27.86.07-.12.08,0,.11,0a5.91,5.91,0,0,0-.39.92l.92-.38-.2.17c.29-.1.63-.25.93-.34a3.8,3.8,0,0,1,.56-.09A2.41,2.41,0,0,1,48,33c-.19-.09-.13-.22.06-.2l0,.15c.14-.06-.17-.09.09-.14s.1.19,0,.19l.27,0s-.06,0-.09.09c.13,0,.37.28.56.23v0a3.93,3.93,0,0,1,1.08.77c.09-.07.2.08.36.14a7,7,0,0,1,.5,1.1c.16.27.12,0,.23.16-.07,0,0,.48-.09.27a6.82,6.82,0,0,1,.24,1.32c0-.07.07-.15.1-.11s-.05.29-.1.26v0a2.14,2.14,0,0,1-.28,1.21,4.09,4.09,0,0,0-.45,1v0a6,6,0,0,1-.25.58c-.18.22,0-.18-.13,0a1.49,1.49,0,0,1-.52.66,2.21,2.21,0,0,1-.29.22l-.15.12-.3.18a7.89,7.89,0,0,0-1.42.46l.73.49a3,3,0,0,1,.67.54,1,1,0,0,1,.27.54l0,0c.13.09,0,.16,0,.26s0-.16.08-.09a3.79,3.79,0,0,1-.47,3.59c-.27.36.17.44-.35.8a1.55,1.55,0,0,0,0-.22,6.08,6.08,0,0,1-2.26,1.83c0-.05,0-.09.11-.13-.22,0-.69.31-.67.38-.14,0-.06-.05-.16-.06s-.45.3-.59.24,0,0,.08-.06-.61.18-.45.25a7.86,7.86,0,0,1-1,.25c-.16.17-.64.09-.66.27,0-.18-.67,0-.89.1.07-.07-.21,0-.13-.11-.27,0-.51.1-.45.19-.51-.16-1,.27-1.28,0a12.94,12.94,0,0,1-2.27.17c0-.18.8,0,.77-.16a6.11,6.11,0,0,1-1.76,0c-.18,0,.11-.07.17-.09-.69,0-1.31-.22-1.91-.27h.13c-.11,0-.26-.1-.26,0h.11c.16.17-.52.13-.56.17.26-.16-.54-.26-.13-.43-.08,0-.17,0-.18,0s-.1-.1,0-.11c-.37-.13-.28,0-.57-.19,0,0,.09,0,.15,0a.64.64,0,0,1-.5-.36s0,0,.08,0A2.07,2.07,0,0,1,32.91,48c.19.16,0-.21.19-.26L33,47.43l-.07.14a3.82,3.82,0,0,1-.06-.81L33,47l0-.55-.06.31c-.07-.3-.19,0-.14-.37,0,.09,0-.3.1-.45h0a1.06,1.06,0,0,1-.05-.52c.05-.06.17.05.2,0-.12-.15,0-.7-.14-.89a.08.08,0,0,0,.12,0l-.1-.13c0-.13.06-.15.12-.13,0-.41-.2.13-.1-.36,0,0,0,0,0,.1,0-.5,0-1,0-1.42.16-.13,0,.4.16.25,0-.66-.14-1.37-.09-2L33,41c-.21-.09.12-.47,0-.8,0,.08.11.11.09.09A10.3,10.3,0,0,0,33,38.72l.05.09c.06-.26,0-.68.08-1-.05-.08,0-.24-.12-.15.34-.85-.12-1.64.16-2.39,0,.09,0,.22,0,.15l0-.65c-.09,0-.06.08-.13.21A.94.94,0,0,1,33,34.6c.06.29.15,0,.21-.13,0,0-.06,0-.09,0,.17-.34-.19-.06-.06-.52l0,0a2.84,2.84,0,0,1-.07-.52c.11-.07.05.19.14.2,0-.26-.19-.52-.08-.75,0,.11,0,.27,0,.38a1,1,0,0,0,.13-.48v0l.07-.44,0,.11c-.27-.33,0-.67-.21-1.11.17.43.1.07.22.11s.08-.29.12-.24c-.1-.21.08-.34,0-.64,0,0,0-.22.1-.17,0-.28-.07.06-.11,0-.13-.42.19-1,0-1.58s-.19-.62-.24-1.1c.06-.16.14.13.14.13a1.84,1.84,0,0,0,0-.7c0,.05.06,0,.11-.08s-.14-.13-.08-.39a.57.57,0,0,1,.15.2c0-.24-.09-.47-.12-.71.07-.06.1.15.14.23,0-.27,0-.7-.15-.79l0,.17c0-.09.09,0,.11,0,.08.24,0,.33-.08.35l0-.18c-.23.17,0,.7,0,1l-.16-.15.12.36c0,.08-.14.13-.16,0-.08.24.06.22,0,.43,0,0,0,0,0,0l0,.24c0-.05-.11,0-.09-.11-.1.43.11.71,0,.87v0c0,.61.12.06.25.52l-.31.3.12.06c0,.06,0,.19-.07.16.08.24.06,0,.13.1-.12.3,0,.83-.16.89.09.11.08-.28.13,0-.21.08,0,.37-.08.64-.1-.09,0-.34-.14-.07.18.17-.06.53,0,.76.15,0,0,.51.09.9A9.36,9.36,0,0,0,32.74,34l0,0c.14.08.11.45.13.72-.09,0-.12-.06-.16-.21v.26a.69.69,0,0,1,.08.3L32.66,35a5.11,5.11,0,0,1,0,1.12c.1,0,.3-.34.35.12a.11.11,0,0,1-.17-.09.38.38,0,0,1,0,.22l-.09-.18c0,.19.08.1.06.26-.08,0-.06.12-.12.09s0-.14,0-.2a1,1,0,0,1-.14.47s.11,0,.12.13c0,.34-.1.12-.15.31s0,.3.11.31-.06.12-.09.15,0,.82.12.63v0h0a14.88,14.88,0,0,1-.07,1.77h0a8.82,8.82,0,0,0,.08,1c0,.11-.07.24-.12.2a1.47,1.47,0,0,1,0,.66c-.06-.26-.06.09,0-.27a1.38,1.38,0,0,0,0,.78c-.1-.12-.14.25-.11.42l.08-.24a4,4,0,0,1,0,.5l-.13-.09c-.18.69.24,1.26-.05,1.78.09.18.08-.38.18-.21a3.45,3.45,0,0,1-.23.74c-.08.44.19.42.13.88.05-.06.17-.11.21.23s-.2.39-.24.19,0-.12,0-.11,0-.24-.09-.12l0,0c-.06.16,0,.61-.13.5,0,.25.08.11.11-.07a7.84,7.84,0,0,0,0,1.09c0-.07.07-.14.08-.07,0,.65.1.27.19.7,0,.26-.2-.06,0,.38,0,.28-.1.09-.17,0a11.42,11.42,0,0,0,.43,1.06l-.18-.19c.11.11.17.23.27.32a1,1,0,0,1,0-.17c.07.12.17.2.14.23.15.06,0-.18.3,0,.11.15.47.27.46.39-.47-.32,0,.16-.44-.1a2.59,2.59,0,0,1,.31.2s0,0-.07,0c.45.34.29,0,.79.19-.09,0,.07.17.16.19-.2-.08-.06-.14.14-.15s.36.06.52.1L35,51c.08-.05.24,0,.46,0,0,.06-.21,0-.13,0,.27-.06.53.25.88.22.15.07,0,.13.13.19.4,0,.41.16.83.13-.11-.11-.13-.08.17-.14l-.68,0,.45-.08c-.21,0-.44,0-.56,0,.22-.05.19,0,.11-.12.26.18.55,0,.86.12l0,.23c.47.15.87,0,1.49,0l-.2,0c.09-.1.39,0,.59,0,0,.08.11.11.2.16s.46,0,.51-.17l.28.09c.52,0,.57-.26,1-.28-.14.1.09.13-.23.22.16,0,.31,0,.31-.07s.43-.16.59-.11.07-.13.25-.15c0,0,0,0,0,0s.28-.1.1-.16c.54.16,1.36-.3,1.83-.22l1-.38s0,0-.05.05c.45-.08.19-.3.68-.41.29,0-.22.17,0,.15.16.22.55-.26.92-.28l-.07.05c.28,0,.53-.38.9-.6,0,0,0,0,0,0,.18-.27.6-.63.87-1,0,.17-.1.17,0,.19.13-.13-.15-.08.09-.36.13,0,.34-.21.45-.16l-.24.27c.23,0,.31-.35.44-.49l0,.06c.31-.46.19-.55.46-1.06l-.07,0c0-.34.19-.21.2-.54l.18-.05a9.15,9.15,0,0,0,0-1.12,2.7,2.7,0,0,1,.08,1,1.79,1.79,0,0,0,.06-.84.66.66,0,0,1,0,.28,3.68,3.68,0,0,1-.12-1c.16,0,.17-.25.14-.57a2.82,2.82,0,0,1-.07-.87c-.17-.32-.31-.64-.51-1,0-.07-.14-.19-.14-.2a.16.16,0,0,0,0-.07.34.34,0,0,0-.08-.09s0,0,0,0c-.46,0,.07,0-.26-.13a.68.68,0,0,1,.17-.09,1.92,1.92,0,0,0,.52-.17c.16,0-.12.15-.07.19.37-.25.21,0,.49-.19-.11,0,0-.19.25-.37a2.21,2.21,0,0,1-.34.18c.35-.53.55-.25.84-.86l-.06.22c.18-.29.66-1.06.57-1.45.05,0,.14-.09.1,0A8.43,8.43,0,0,0,52,36.88l.06.06c0-.15-.12-.25-.07-.44,0,0,.06.06.06,0a2.48,2.48,0,0,1-.14-.57l.09.15a3.17,3.17,0,0,0-.79-1.63c.16-.09-.12-.64-.31-.9h0a4,4,0,0,0-2-1.23,2.27,2.27,0,0,0-1.11-.43,4.65,4.65,0,0,0-.75-.05c-.11,0-.26,0-.35,0s0,0,0,0a.26.26,0,0,1-.12.18s-.33.23-.12,0h0l.07-.11c.07-.08.06-.09.07-.12a2.34,2.34,0,0,1-.24.09.56.56,0,0,0,.12-.16.38.38,0,0,0,.07-.22,3,3,0,0,0,0-.73,3.48,3.48,0,0,1,0-1.14,6,6,0,0,0-.22-.59l.11,0a4,4,0,0,0-.49-1.4l.14.09c-.17-.35-.51-.27-.7-.55l.08-.18a3.21,3.21,0,0,0-1.44-1.36s.06-.05.16,0c-.25-.21-1.06-.68-1-.4,0-.16-.65-.24-1-.21l.07-.11a2.18,2.18,0,0,1-.74.17c-.1,0-.09-.09,0-.06-.33-.05-.25.1-.64.09l.14-.09c-.36,0-.29.08-.4.18s-.39.09-.28,0l0,.05c-.11.11-.12,0-.1-.09s.07,0,.08,0a.5.5,0,0,0,0-.34.94.94,0,0,1,.05-.48s0,0,.07-.05c0,.2,0,.38-.05.51a.35.35,0,0,1,0,.09c.11-.05.13-.12.27-.08,0,.06-.09-.17-.12-.37a1.77,1.77,0,0,1,0-.56.1.1,0,0,1,0,0v0a.37.37,0,0,0,0-.21,1.45,1.45,0,0,0,0-.28c.09,0,.06-.4.06-.58-.11,0-.1-.21-.19,0,0,0,0,0,0,.14s0,.06,0,.08v.41a.67.67,0,0,1,0-.47l-.19-.23c.16-.24.21-.7.3-.78A3,3,0,0,0,40,20.37c-.08-.13,0-.18,0-.25a2,2,0,0,0,.12.22c-.13-.29-.36-.85-.53-.84-.13-.37.23.12-.06-.33l.08,0a2,2,0,0,0-.93-1.05l-1.33-.73q.12,0,.12.09a2.17,2.17,0,0,0-2,.21A6.71,6.71,0,0,0,34,19.12a.76.76,0,0,0-.18.61l-.15,0c0,.13,0,.27,0,.4-.07.53-.56.82-.48,1.54l.1-.08c-.06.24,0,.76-.14.71s.08.09,0,.18h-.07l.07.6c-.07.45-.25-.09-.29.58,0,.25.16.7.21.61s0-.25.11-.26l0,.23c.18.05.37.22.51-.32l-.1-.39.1-.11v.32a.49.49,0,0,0,0-.43.3.3,0,0,0,.11-.15l-.16-.38c.08,0,.13.17.19-.07s-.18.15-.21-.14.17-.11.12-.32c0,0,.07,0,.08.1,0-.19,0-.48-.05-.59.13-.17.08-.62.26-.56a1.15,1.15,0,0,1,0-.51c.12.35.2-.59.4-.43-.11-.27.23-.74.38-1.09a.14.14,0,0,1,0,.1,1,1,0,0,1,.34-.26c-.11-.12.09-.39.17-.58.3-.05,0,.24.16.3-.1-.1.25-.36.13-.4.21,0,.17-.05.31,0-.06-.19.13-.11.23-.27.28,0,.11.14.37,0S36.4,18.28,36.41,18.29Zm3.41,5.56h0v0Zm0,.7q0-.14,0-.3s.08,0,.07.08S39.81,24.45,39.77,24.55Zm.87-1.46c0,.12,0,.15,0,.17v-.2l0,0Z"/><path class="cls-1" d="M40.49,22.88s0,0,0,0l0,.06,0,0Z"/><path class="cls-1" d="M32.71,38.35h0l0,0Z"/><polygon class="cls-1" points="45.62 29.89 45.65 29.88 45.61 29.83 45.62 29.89"/><path class="cls-1" d="M33.21,34.47s0,0,0,0S33.22,34.45,33.21,34.47Z"/><path class="cls-1" d="M33.28,32.79l0-.23A1.64,1.64,0,0,0,33.28,32.79Z"/><path class="cls-1" d="M33.37,31.5l0,0h0Z"/><path class="cls-1" d="M35.26,50.27h0Z"/><path class="cls-1" d="M32.84,45.92a1.46,1.46,0,0,1,0,.2C32.9,46,32.9,45.93,32.84,45.92Z"/><polygon class="cls-1" points="41.86 50.41 41.86 50.41 41.9 50.4 41.86 50.41"/><path class="cls-1" d="M32.88,46.4a.68.68,0,0,0,0-.28A1.31,1.31,0,0,0,32.88,46.4Z"/><path class="cls-1" d="M33.58,25.91v-.06h0Z"/><path class="cls-1" d="M33.57,25.84l0-.07S33.55,25.83,33.57,25.84Z"/><path class="cls-1" d="M33.53,25.62l0,.15A.19.19,0,0,0,33.53,25.62Z"/><path class="cls-1" d="M33.48,27.62l0,0A.05.05,0,0,0,33.48,27.62Z"/><path class="cls-1" d="M33.48,28.14a2.22,2.22,0,0,0,.07-.49h0C33.58,27.72,33.41,28,33.48,28.14Z"/><path class="cls-1" d="M32.91,30.29l0-.43c0,.07-.1.17-.11,0C32.7,30.38,32.94,29.72,32.91,30.29Z"/><path class="cls-1" d="M32.81,31.64c0-.24-.06,0-.09,0C32.76,31.78,32.77,31.81,32.81,31.64Z"/><path class="cls-1" d="M32.54,41.39l-.1,0C32.44,41.55,32.47,41.37,32.54,41.39Z"/><polygon class="cls-1" points="33.02 43.27 33.09 43.1 32.99 43.01 33.02 43.27"/><polygon class="cls-1" points="32.25 44.35 32.24 44.27 32.27 44.58 32.25 44.35"/><path class="cls-1" d="M43.91,51l-.09-.11C43.71,50.94,43.71,51.09,43.91,51Z"/><path class="cls-1" d="M49.81,47a.47.47,0,0,0,.21-.37C50,46.76,49.83,46.9,49.81,47Z"/><path class="cls-1" d="M46.57,31.69s0,0,0,0l0-.08Z"/><path class="cls-1" d="M48.22,14a61.14,61.14,0,0,1,.31,7.41"/><path class="cls-1" d="M48.2,21.42s.14,0,.12,0h-.16Z"/><path class="cls-1" d="M48.51,21.35a2,2,0,0,0-.38,0l.29,0s-.06,0-.12,0,0,0,.07,0,.13,0,0,0Z"/><path class="cls-1" d="M48.77,20.3h0Z"/><path class="cls-1" d="M48.86,19.65h0Z"/><path class="cls-1" d="M49,19.53h0S49.05,19.54,49,19.53Z"/><path class="cls-1" d="M48.77,20.3h0S48.78,20.3,48.77,20.3Z"/><path class="cls-1" d="M48.11,21.2h0Z"/><path class="cls-1" d="M48.91,20.59h0Z"/><path class="cls-1" d="M48.93,20.81h-.2l.1,0Z"/><path class="cls-1" d="M48.68,21.16h0Z"/><path class="cls-1" d="M48.94,20.43h0Z"/><path class="cls-1" d="M47.59,14.34h0Z"/><polygon class="cls-1" points="48.26 14.02 48.26 14.02 48.34 14.02 48.26 14.02"/><path class="cls-1" d="M49.22,19.33Z"/><path class="cls-1" d="M49.06,17.44c-.13,0-.17,0-.3,0A1,1,0,0,0,49.06,17.44Z"/><path class="cls-1" d="M48.13,21.2h0S48.12,21.2,48.13,21.2Z"/><polygon class="cls-1" points="48.76 17.45 48.75 17.45 48.74 17.46 48.76 17.45"/><path class="cls-1" d="M49.12,18.85h0Z"/><path class="cls-1" d="M48.93,19.21h0Z"/><path class="cls-1" d="M48.92,18.68s0,0,0,0h0S48.94,18.67,48.92,18.68Z"/><polygon class="cls-1" points="48.91 18.49 48.89 18.49 48.9 18.5 48.91 18.49"/><path class="cls-1" d="M47.71,14.9l.12,0C47.73,14.89,47.7,14.87,47.71,14.9Z"/><path class="cls-1" d="M48.19,21.21h0Z"/><path class="cls-1" d="M47.81,18.7l0,0Z"/><path class="cls-1" d="M47.83,16.24h0Z"/><path class="cls-1" d="M47.81,18.58l.1,0h0Z"/><path class="cls-1" d="M47.84,14.88h0Z"/><path class="cls-1" d="M47.49,14.72s.18,0,.28,0-.13,0-.22,0,.22,0,.21,0h-.08c.15,0,0,.06.2.07h0l.25,0s.12,0,0,0h0c-.18,0-.07,0-.19,0,.05,0,.2,0,.15.06s-.06,0-.21,0l.07,0c-.27.05,0,0-.27,0,0,0,.09,0,0,.08l.24,0c.17.05-.42.09-.19.11s.32,0,.21,0h-.19s.28,0,.15,0-.06,0-.09,0,.11,0,.12,0h-.17s.15.08.19.12a.44.44,0,0,0-.16,0c.09.05,0,.12-.1.19h.05c-.05,0,.09,0,.15,0s-.08,0-.13,0c.13,0,.28.09.13.15h0c-.06,0,.3,0,.17.06h0c-.06.07.08.14-.13.21.21,0-.09.07.2.06a1.39,1.39,0,0,0-.29.1s.19,0,.22,0h0l-.19,0h0s.06,0,.11,0-.1.07-.18.08l.13.05a.23.23,0,0,1-.12,0c.16,0-.16,0,0,0h.12c-.09,0-.09.06,0,.08h-.1c0,.05,0,.09.06.14a.72.72,0,0,1,.25,0l-.17,0a1.15,1.15,0,0,1,.19,0,.82.82,0,0,1-.24,0l.06,0h-.14c.1,0-.16.05,0,.05h-.05s.06.07.07.11a1.27,1.27,0,0,1,.22,0s-.15.08-.13.11.12,0,.2,0c-.13,0-.11,0-.21,0s0,.06.14.11h.12s-.05,0-.12,0h0c.2.06-.36.17-.09.21h0l.14,0s-.09,0-.17,0c.21,0,0,.09.12.13-.38.05,0,.13-.21.19h.09c.09,0,0,0-.07,0s.08,0,.13,0-.13.23-.2.34.46,0,.25.07h-.17c.21.07,0,.17.17.24h-.08c-.12,0,0,.06.09.06l-.14,0c-.07,0,.16,0,0,.05H47.8c.06,0,0,0,.12,0-.06,0,.07.05,0,.08.15,0-.08.05.14.05-.22,0-.18.06-.07.08-.07,0-.07,0-.17,0s0,0,.17,0c-.27.05.22.08-.13.11a.83.83,0,0,1,.26.18c-.23,0,0-.07-.26-.06.09.06.29.08.23.14a.62.62,0,0,1-.13,0c.09.05,0,.11.1.15H48s0,0,.07,0h0a2,2,0,0,1,.39,0c-.29,0-.07,0-.44,0h0c.05,0,.16,0,.16.05H48c.1,0,.2,0,.16.05H48.1s.26.07.16.13-.07,0-.25,0l.05,0h.09s.14.05.08.07l-.08,0,0,0,.07,0c.1,0,.24,0,.19,0s0,0-.11,0h0c.06,0,.12,0,.07,0h-.24c.15,0,0,.06.21.07H48.2s.23,0,.13,0h0c-.05,0,.09.08,0,.11s0,0-.2,0c0,.05.23.1.18.15h0c.27,0-.13,0,0,.07h-.12s.06.07.15.12h-.07c-.06,0,0,0-.07.07a.39.39,0,0,0,.16,0c-.39.07.21.13-.12.19h-.06l.07.05h.16c.06,0,.12,0,.12,0a.68.68,0,0,0-.25,0h.11c-.21,0,.23,0,.09,0h-.06s.11,0,.09,0-.06,0-.17,0,.25,0,.12.06,0,0-.07,0-.12,0-.15,0h0l-.07,0h0c.35,0,.06,0,.29.09-.21,0-.12,0-.28,0a.53.53,0,0,1-.13,0c.12,0-.09,0,.08.06a.55.55,0,0,1-.12,0s.08,0,.14,0-.2.07,0,.12.26.05.34.09a.67.67,0,0,1-.18,0c-.07,0-.06,0,0,.06h-.14s.18,0,.11,0l-.2,0,.18.06a.47.47,0,0,1-.18,0,.37.37,0,0,0,.21.07l0,0h-.14c-.11,0,0,0,.09,0l0,0c.29,0,0-.06,0-.08h.2l-.17,0a.43.43,0,0,1,.2,0c.11,0-.07,0,0,0h0l-.06,0s.14,0,.11,0c.13,0-.15-.06,0-.07h0c-.07-.05-.15,0-.33-.05l.38,0h-.16s0,0,.08,0c-.1,0-.07,0-.16,0,.14,0-.07-.06.18-.07-.12,0-.09,0-.18,0,.27,0,0,0,.08-.05s.06,0,.18,0c-.22,0,0-.05,0-.06s-.07,0-.13-.08.1,0,.16-.08h0c-.18,0-.15,0-.18-.06a.81.81,0,0,1,.2,0v0c-.06,0-.09,0-.11,0h.13s-.16-.06-.07-.09a1.59,1.59,0,0,1-.44,0h.22s-.06,0,0,0h.12c.05,0-.1,0-.09,0h.15s0,0,0,0a.4.4,0,0,1,.15,0h-.15s.12,0,.17,0,0,0-.14,0h.11c-.07,0,0-.06-.18-.05h0c-.14,0,.09-.09,0-.14h0s0-.06-.14-.08a.29.29,0,0,1,.15,0s-.09,0,0-.06.08,0,.06,0,.13,0,0-.06C49,20,49,20,49,20l-.09,0s0,0,0,0h.17c.2-.05-.34-.09,0-.14-.11,0-.08,0-.21,0,0,0,.26,0,.26-.06s-.25,0-.18-.07a.67.67,0,0,1-.28,0,.74.74,0,0,1,.3,0h0a.36.36,0,0,0,.11,0H49c.06,0,0-.05.15,0a.14.14,0,0,0-.13,0c.09,0,0-.05.06-.09h-.1c.07-.05-.11,0-.14-.06s.22,0,.14,0a.34.34,0,0,1,.2,0c-.11,0,.08-.06.1-.08l.05,0s0,0,0,0h-.12a.1.1,0,0,1,.07,0c-.08,0-.2,0-.3,0,.06,0-.07,0,.09-.05-.05,0,.16,0,.18,0s0,0,0,0h0c.14,0-.18,0-.18-.06s.17,0,.15,0-.15,0-.21,0-.06,0,0,0l0,0c-.09,0-.08,0-.11,0s.05,0,.08,0c-.15,0,.16-.05.06-.07a1.68,1.68,0,0,1,.2,0c-.11,0,.13,0,0-.06A.5.5,0,0,1,49,19l.09.05-.18,0s.08,0,.06,0a.49.49,0,0,0-.17,0c.18,0-.1,0,0-.07h.29c.13,0-.15-.06-.08-.11l0,0c-.12,0,0,0-.06-.05a.84.84,0,0,0,.19,0c-.07,0,0,0-.19,0l.13,0s-.28,0-.25-.08a2,2,0,0,1,.26,0s0,0,0,0-.14,0,0,0c-.05,0-.15,0-.14,0h0a.77.77,0,0,0-.18,0c.31-.05,0-.11.24-.15a.29.29,0,0,1-.08-.08s0,0,0,0-.28,0-.18-.06.09,0,.15,0c.32,0,0-.05.14-.08h0c.11,0-.13,0-.1-.08h0a.48.48,0,0,1-.27-.09.67.67,0,0,0,.2,0s-.21,0-.24,0l.26,0v0c.18,0,0,0,0,0H49s-.22,0-.21-.08h-.06c-.19,0,.11,0,0,0l.19,0-.23-.07a1.41,1.41,0,0,1,.31.06s0-.06-.11-.06.07,0,0,0-.24,0-.23-.07c.38,0,.09-.09.38-.12-.14-.05.06-.12,0-.18-.29,0,0,0-.31,0,0,0,0,0,0,0l.18-.05c.09,0,.07,0,.14,0s.13,0,.21-.05c-.11,0-.16,0-.12,0l-.14,0c-.16,0,.26-.05.1-.09h.09c-.06,0,0-.09-.25-.11h.14c0-.06-.26-.12-.12-.17h.08s-.14,0-.07,0h.08s-.13,0-.09,0h.09c.09-.07-.21-.08-.27-.12a.6.6,0,0,0,.33-.09h0c0-.07-.19-.1-.28-.16.24,0,.09-.13.22-.2a.6.6,0,0,1-.19,0s-.16,0,0,0h0c.2,0,.14-.05.15-.08l-.27,0c.38-.09-.15-.15.19-.21l-.13,0H49s0-.07,0-.11h.1s-.41,0-.42,0l.22,0c0-.05.17-.12,0-.15H49s.13-.1-.16-.07c.19,0,0-.05-.07-.07h.14c-.18,0-.23,0-.28,0s.11,0,.08,0-.13,0-.06,0h.09s0,0-.15,0,0-.05.16-.07c-.08,0-.18,0-.14,0h.09c.09-.05-.17-.05,0-.09h.09s0,.06,0,.06a1.48,1.48,0,0,1,.33,0c-.1,0-.31,0-.26-.07h.06s0,0,0,0l0,0c.1,0,.05,0,.06-.05a.9.9,0,0,0-.24,0s0,0,0,0h0s0,0,0,0-.13,0,0,0h-.23c.19,0,.29-.08.41-.09a.41.41,0,0,0-.32-.1s.07,0,.11,0,0,0,.07,0,0-.07-.22-.06c.08,0,.17,0,.14,0h0c.29-.11-.48-.09-.11-.21h-.06c.16-.11-.18-.19.08-.31,0,0-.07,0-.16,0l.15,0-.18,0c-.13,0,.36-.1.12-.13h-.1s-.07-.05,0-.06-.11,0,0,0h.08l-.14,0c.05,0,.31,0,.32-.08a1.32,1.32,0,0,0-.29,0s0,0-.12,0l-.05,0a2.55,2.55,0,0,0-.62.09l.14,0-.11,0v0c-.1,0,0,0,.06,0l-.13,0h.23a.71.71,0,0,0-.23,0,1.37,1.37,0,0,1,.27,0c-.1,0-.19,0-.1,0h-.12c.07,0,0,0,.15,0-.12,0,0,.05-.18.07l.19,0c-.27,0,0,.05-.29.08.23,0,.11.05.24.07h0a.72.72,0,0,1-.14.05,2,2,0,0,1,.37,0,2.93,2.93,0,0,1-.41,0c.16,0,.16,0,.29,0a.78.78,0,0,1-.22,0c.25,0,0,0,.2,0-.12,0-.23,0-.15.05A.49.49,0,0,1,47.49,14.72Zm.47.62Zm0,.05s0,0,0,0h.1Zm1-.19s0,0,0,0h0Z"/><path class="cls-1" d="M48.75,15.2h0Z"/><path class="cls-1" d="M48.75,20.31Z"/><polygon class="cls-1" points="47.76 16.18 47.8 16.18 47.76 16.18 47.76 16.18"/><path class="cls-1" d="M48.27,20.62h0Z"/><path class="cls-1" d="M48.23,20.75l0,0S48.23,20.76,48.23,20.75Z"/><path class="cls-1" d="M48.16,20.85h0Z"/><path class="cls-1" d="M48,19.23h0S48,19.23,48,19.23Z"/><path class="cls-1" d="M48.33,19.71h-.07S48.25,19.71,48.33,19.71Z"/><polygon class="cls-1" points="47.81 18.7 47.81 18.7 47.81 18.7 47.81 18.7"/><path class="cls-1" d="M48.26,19.68s0,0,0,0S48.28,19.68,48.26,19.68Z"/><path class="cls-1" d="M48.1,21.29h0Z"/><path class="cls-1" d="M48.11,21.3h0Z"/><path class="cls-1" d="M48.16,21.32h0S48.12,21.32,48.16,21.32Z"/><path class="cls-1" d="M48.16,21.16h0Z"/><path class="cls-1" d="M48.15,21.12s-.11,0-.08,0h0C48,21.15,48.23,21.13,48.15,21.12Z"/><path class="cls-1" d="M48.78,21l0,0h.14C49,21,48.76,21,48.78,21Z"/><path class="cls-1" d="M48.86,20.85s.08,0,.11,0S48.91,20.83,48.86,20.85Z"/><path class="cls-1" d="M48.86,20.07H49S48.94,20.07,48.86,20.07Z"/><polygon class="cls-1" points="48.2 19.92 48.12 19.94 48.24 19.94 48.2 19.92"/><polygon class="cls-1" points="49.11 19.83 49.13 19.84 49.08 19.81 49.11 19.83"/><path class="cls-1" d="M49,18.52h-.16S49.09,18.53,49,18.52Z"/><path class="cls-1" d="M48.86,18c.08,0,.13,0,0,0S48.84,18,48.86,18Z"/><polygon class="cls-1" points="49.03 16.25 49.08 16.25 49.04 16.23 49.03 16.25"/><path class="cls-1" d="M44.14,17.53l8,.32"/><path class="cls-1" d="M52.14,18.19c0-.05,0-.14,0-.12v.16Z"/><path class="cls-1" d="M52.07,17.88a1.77,1.77,0,0,0,0,.37c0-.16,0-.09,0-.28,0,0,0,.05,0,.11s0,0,0-.06,0-.14,0,0Z"/><path class="cls-1" d="M51,17.57v0Z"/><path class="cls-1" d="M50.25,17.45v0A0,0,0,0,0,50.25,17.45Z"/><path class="cls-1" d="M50.14,17.27h0Z"/><path class="cls-1" d="M51,17.57l0-.05C50.93,17.58,50.94,17.56,51,17.57Z"/><path class="cls-1" d="M51.9,18.27s0,0,0,0h0Z"/><path class="cls-1" d="M51.26,17.45h0a.13.13,0,0,1,0-.06Z"/><path class="cls-1" d="M51.5,17.44s0,.13,0,.19a.41.41,0,0,1,0-.09Z"/><path class="cls-1" d="M51.87,17.7v0Z"/><path class="cls-1" d="M51.09,17.42a.08.08,0,0,0,0-.05Z"/><path class="cls-1" d="M44.39,18.2v0Z"/><path class="cls-1" d="M44.15,17.5h0v0Z"/><path class="cls-1" d="M49.92,17.08Z"/><path class="cls-1" d="M47.9,17.1c0,.13,0,.16,0,.3C47.88,17.35,47.93,17.18,47.9,17.1Z"/><path class="cls-1" d="M51.9,18.25h0S51.89,18.26,51.9,18.25Z"/><path class="cls-1" d="M47.89,17.4h0v0Z"/><path class="cls-1" d="M49.41,17.14s0,.05,0,.06A.18.18,0,0,0,49.41,17.14Z"/><path class="cls-1" d="M49.78,17.36v0Z"/><path class="cls-1" d="M49.21,17.33s0,0,0,0v0S49.2,17.31,49.21,17.33Z"/><path class="cls-1" d="M49,17.33v0h0Z"/><path class="cls-1" d="M45,18.16A.53.53,0,0,1,45,18C45,18.13,45,18.17,45,18.16Z"/><path class="cls-1" d="M51.9,18.19v.06h0Z"/><path class="cls-1" d="M49.16,18.44l0,0Z"/><path class="cls-1" d="M46.48,18.2v0A0,0,0,0,0,46.48,18.2Z"/><path class="cls-1" d="M49,18.44a.56.56,0,0,0,0-.1v0Z"/><path class="cls-1" d="M45,18Z"/><path class="cls-1" d="M44.78,18.36s0-.18,0-.29,0,.14,0,.23,0-.21.06-.21a.22.22,0,0,1,0,.08c0-.14.07,0,.11-.18v0a1.93,1.93,0,0,1,0-.25s0-.12,0,0,0,0,0,.09l0-.06c0,.18,0,.06,0,.19,0-.05.07-.2.09-.15s0,.06,0,.21l0-.06c0,.26,0,0,0,.26,0,0,.05-.08.1,0s0-.14,0-.23,0,.42.09.2,0-.33.06-.21l0,.19s0-.28.07-.14,0,.06,0,.08,0-.11,0-.11v.17s.1-.14.15-.17a.85.85,0,0,0,0,.16c.06-.09.13,0,.19.12l0-.14v.09c0,.06,0-.09,0-.15s0,.09,0,.13c.05-.12.13-.26.17-.1v0c0,.06,0-.3.08-.16v0c.07.06.16-.07.21.16,0-.22.07.09.09-.2a1,1,0,0,0,.07.3s0-.18.06-.21v.15l0-.16v.18l0,0a.35.35,0,0,1,0-.12c0-.07.07.11.07.19l.07-.13a.3.3,0,0,1,0,.12c0-.15,0,.17,0,0s0-.09,0-.12.05.1.08.06v.11c.05,0,.11-.05.17-.05a.51.51,0,0,1,0-.25v.17c0-.1,0-.07,0-.19a.64.64,0,0,1,0,.24l0-.06a.71.71,0,0,1,0,.14c0-.1,0,.16.06,0v.05c.06,0,.09-.05.14-.06s0-.11,0-.22c0,.05.07.16.11.15s0-.12,0-.2c0,.12,0,.11,0,.2s.07,0,.13-.12a.48.48,0,0,1,0-.12s0,.06,0,.12h0c.08-.19.15.38.22.12h0l.07-.14s0,.1,0,.18c.08-.21.1,0,.16-.11,0,.38.14,0,.19.22v-.08c0-.09,0,0,0,.07a.56.56,0,0,1,0-.13c.12-.1.24.14.36.22s0-.46.09-.24l0,.16c.1-.19.18,0,.28-.15,0,0,0,.09,0,.09s.07,0,.07-.09,0,.09,0,.14.05-.15.06,0a.08.08,0,0,1,0,.05c0-.06.06,0,.05-.13,0,.07.07,0,.09,0,0-.16.06.07.07-.14,0,.22.05.18.08.08,0,.06,0,.07,0,.16s.05,0,.05-.16c0,.27.09-.21.1.14a1.17,1.17,0,0,1,.21-.25c0,.22-.07,0-.07.25.06-.09.1-.28.16-.22s0,.09,0,.13.12,0,.18-.09,0,0,0,.06,0,0,0-.07v0a1.69,1.69,0,0,1,.06-.39c0,.29.05.08,0,.45a.37.37,0,0,0,0-.14.3.3,0,0,1,0,.14c0-.06,0-.17.06-.16a.49.49,0,0,1,0,.12c0-.09,0-.19.07-.14s0,.06,0,.06.09-.25.15-.16,0,.08,0,.26l0-.05v-.09s0-.13.07-.07l0,.07.05,0,0-.07c0-.1,0-.24,0-.18s0,0,0,.11h0c0-.06,0-.12.05-.07a2.09,2.09,0,0,0,0,.24c0-.15.06,0,.08-.2a.86.86,0,0,0,0,.15l0-.12a.32.32,0,0,1,0,.14s0-.24,0-.14a.11.11,0,0,1,0,.05c0,.06.08-.08.12,0s0,0,0,.2c.06,0,.13-.22.18-.17v0c0-.27,0,.13.07,0a.75.75,0,0,0,0,.12c0,.05.08-.06.14-.14v.07c0,.06.05,0,.08.07A.63.63,0,0,0,51,18c0,.39.14-.2.2.12,0,0,0,.06,0,.06l.06-.06a.76.76,0,0,0,0-.16c0-.07,0-.12,0-.12a.53.53,0,0,0,0,.25.45.45,0,0,1,0-.11c0,.21,0-.23,0-.09V18s0-.11,0-.09,0,.06,0,.17.06-.25.07-.12,0,0,0,.08,0,.11,0,.14h0l0,.07v0c0-.35.06-.07.11-.29a.53.53,0,0,0,0,.27.66.66,0,0,1,0,.14c0-.12,0,.09.06-.08,0,.05,0,0,0,.12,0,0,0-.08,0-.14s.08.2.14,0,.06-.26.11-.34a.53.53,0,0,1,0,.18c0,.07,0,.06.06,0a.65.65,0,0,0,0,.14s0-.18,0-.11l0,.2c0-.05.05-.14.07-.18a.66.66,0,0,1,0,.18A.27.27,0,0,0,52,18v0s0,.11,0,.14,0-.05,0-.1l0,0c0-.29-.06,0-.09,0l0-.2,0,.17a1.15,1.15,0,0,1,0-.2c0-.11,0,.07,0-.05v0l0,.06s0-.15,0-.12c0-.12-.07.16-.07,0h0c0,.06,0,.15-.06.33v-.23a.2.2,0,0,1,0-.08c0,.11,0,.07,0,.17,0-.14-.07.06-.06-.18,0,.11,0,.09,0,.17,0-.27,0,0-.06-.08s0-.06,0-.18c0,.22,0-.06-.07,0s0,.07-.08.13-.06-.1-.09-.17v0c0,.18,0,.15-.06.18a.81.81,0,0,1,0-.2h0a.39.39,0,0,1,0,.11v-.13s-.07.15-.1.06a1.5,1.5,0,0,1,0,.44,1.06,1.06,0,0,1,0-.21s0,.05,0,0l0-.11c0-.05,0,.1,0,.08a.65.65,0,0,0,0-.14s0,0,0,0a.34.34,0,0,1,0-.15.49.49,0,0,1,0,.14s0-.12,0-.17,0,0,0,.14,0-.07,0-.11-.07,0-.06.18h0c-.06.15-.1-.08-.15,0v-.05c0,.05-.07,0-.09.13a.29.29,0,0,1,0-.15s0,.1-.06,0,0-.07,0-.06,0-.12-.06,0c0-.12,0-.16,0-.12l0,.09s0,0,0,0v-.17c-.05-.21-.12.34-.15,0,0,.11,0,.08,0,.22a1,1,0,0,1-.05-.27c0-.09,0,.24-.09.18a.49.49,0,0,1,0,.27.71.71,0,0,1,0-.29s0,0,0,0a.17.17,0,0,0,0-.11v.06c0-.06-.05-.06,0-.16a.19.19,0,0,0,0,.13c0-.08,0,0-.09-.06s0,.1,0,.1,0,.11-.06.14,0-.22,0-.14a.68.68,0,0,1,0-.21c0,.11-.06-.08-.08-.1L50,17s0,0,0,0v.12a.1.1,0,0,1,0-.07c0,.08,0,.2,0,.3,0-.06-.05.06-.05-.09,0,.05,0-.16,0-.19s0,0,0,0v0c0-.14,0,.18-.07.17s0-.17,0-.15,0,.15,0,.22,0,.05,0,0l0,0c0,.09,0,.08,0,.1s0,0,0-.07c0,.15,0-.17-.08-.06,0-.06,0-.17,0-.21,0,.11,0-.12-.07,0a.5.5,0,0,1,0,.21l.06-.09,0,.18s0-.08,0-.06a.49.49,0,0,0,0,.17c0-.18,0,.1-.07,0v-.29c0-.14-.08.14-.13.07l0,.05c0,.12,0,0-.06.06a1.32,1.32,0,0,0,0-.2c0,.08,0,0-.06.19v-.13c-.05-.05-.06.28-.1.25a1,1,0,0,1,0-.26s0,0,0,.05,0,.13,0,0,0,.15,0,.14v-.05c0,.05,0,.06,0,.17,0-.31-.12,0-.14-.25a.15.15,0,0,1-.1.07s0-.05,0,0,0,.29-.07.18,0-.08,0-.14c0-.33,0,0-.07-.15v0c0-.11-.06.12-.09.09v0a.58.58,0,0,1-.11.26,1.34,1.34,0,0,0,0-.2s0,.21,0,.24a1.35,1.35,0,0,1,0-.27h0c0-.18,0,0,0,0v-.08s-.05.22-.1.21v.06c0,.19,0-.11,0,0v-.2a1.6,1.6,0,0,1-.1.23,2.24,2.24,0,0,1,.08-.31s0,0-.07.11,0-.07,0,0-.06.23-.1.23c0-.38-.08-.1-.09-.4-.07.14-.12-.06-.19,0,0,.29,0,0,0,.31,0,0,0,0,0,0l0-.18c0-.09,0-.07,0-.14s0-.13,0-.21c0,.11,0,.16,0,.11l0,.15c-.06.16,0-.26-.09-.1l0-.1c0,.06-.1,0-.13.24a.33.33,0,0,1,0-.14c-.06,0-.15.26-.19.1v-.07s0,.14,0,.06,0-.07,0-.08,0,.13,0,.09V17c0-.1-.1.21-.15.25a.53.53,0,0,0-.06-.33v0c-.07,0-.12.18-.19.26,0-.24-.14-.1-.2-.24a.44.44,0,0,1,0,.2s0,.15,0,0h0c0-.2,0-.15-.06-.15l0,.26c0-.39-.17.13-.19-.21,0,.06,0,.06-.06.13V17s-.06-.06-.12,0l0-.1s-.06.41-.08.41v-.21s-.1-.18-.16,0c0,0,0-.1,0-.1s-.09-.15-.1.14c0-.19,0,0-.08.06V17c0,.18,0,.23-.07.28s0-.12,0-.08,0,.13-.06.05l0-.08s0,0-.05.14,0,0,0-.17c0,.08,0,.18,0,.14s0-.07,0-.09-.07.16-.1,0a.2.2,0,0,0,0-.08s.07,0,.06,0a1.83,1.83,0,0,1,0-.32c0,.09-.07.3-.1.24v-.05h0l0,0s0,0,0,0,0-.06,0-.06,0,.11,0,.23,0,0,0,0,0,0,0,0v0s0,0,0,0,0,.13,0,.05c0,.09,0,.18,0,.23,0-.2,0-.31,0-.43,0,.08-.1,0-.14.31,0,0,0-.08,0-.12s0,0,0-.06-.08,0-.09.21c0-.08,0-.17,0-.14v-.06c-.08-.29-.16.47-.24.09a.11.11,0,0,1,0,.06c-.1-.17-.23.15-.32-.12,0-.05,0,.06-.06.15v-.15l0,.17c0,.13-.06-.37-.13-.13v.1s-.06.06-.06-.06,0,.11,0,0v-.07l-.06.13c0-.06,0-.31,0-.33a.82.82,0,0,0-.07.28s0,.05,0,.13l0,0a2.64,2.64,0,0,0,0,.63l0-.14v.12h0c0,.11,0,0,0-.05a.45.45,0,0,0,0,.13l0-.23a1,1,0,0,0,0,.24c0-.11,0-.21,0-.28,0,.11,0,.2,0,.11a.38.38,0,0,1,0,.12c0-.07,0,0,.06-.15,0,.13,0,0,0,.19a.46.46,0,0,1,.06-.18c0,.26,0,0,0,.3,0-.24.08-.11.12-.24,0,0,0,.06,0,.05s0,.09,0,.14a1.89,1.89,0,0,1,.06-.36,2.75,2.75,0,0,1,0,.41c0-.16,0-.16,0-.29a.68.68,0,0,1,0,.22c0-.25,0,0,0-.19,0,.12,0,.23,0,.16A.28.28,0,0,1,44.78,18.36Zm.74-.4h0Zm.06,0h0c0-.05,0-.1,0-.1S45.58,17.92,45.58,18Zm-.09-1s0,0,0,0,0,0,0,0h0Z"/><path class="cls-1" d="M45.47,17.17h0v0Z"/><path class="cls-1" d="M51,17.6h0v0Z"/><polygon class="cls-1" points="46.41 18.27 46.41 18.23 46.41 18.26 46.41 18.27"/><path class="cls-1" d="M51.27,18.09v0Z"/><path class="cls-1" d="M51.41,18.13l0,.05S51.42,18.14,51.41,18.13Z"/><path class="cls-1" d="M51.52,18.2a.13.13,0,0,1,0-.06h0Z"/><path class="cls-1" d="M49.75,18.3Z"/><path class="cls-1" d="M50.29,18a.64.64,0,0,1,0,.07S50.29,18.07,50.29,18Z"/><polygon class="cls-1" points="49.16 18.44 49.16 18.44 49.16 18.44 49.16 18.44"/><path class="cls-1" d="M50.25,18.05s0,0,0,0S50.25,18,50.25,18.05Z"/><path class="cls-1" d="M52,18.29h0v0Z"/><path class="cls-1" d="M52,18.27v0Z"/><path class="cls-1" d="M52,18.22l0,0S52,18.26,52,18.22Z"/><path class="cls-1" d="M51.85,18.22v0Z"/><path class="cls-1" d="M51.81,18.23s0,.11,0,.08v0C51.84,18.34,51.82,18.14,51.81,18.23Z"/><path class="cls-1" d="M51.65,17.59l0,0c0-.05,0-.12,0-.14S51.7,17.62,51.65,17.59Z"/><path class="cls-1" d="M51.54,17.51s0-.08,0-.11S51.52,17.46,51.54,17.51Z"/><path class="cls-1" d="M50.7,17.47v-.12S50.7,17.4,50.7,17.47Z"/><polygon class="cls-1" points="50.51 18.13 50.52 18.21 50.54 18.09 50.51 18.13"/><polygon class="cls-1" points="50.45 17.21 50.46 17.2 50.43 17.24 50.45 17.21"/><path class="cls-1" d="M49.05,17.2v.16S49.07,17.16,49.05,17.2Z"/><path class="cls-1" d="M48.43,17.34c0-.08,0-.13,0-.05S48.42,17.36,48.43,17.34Z"/><polygon class="cls-1" points="46.62 17.01 46.64 16.96 46.61 17 46.62 17.01"/><path class="cls-1" d="M7.54,29a13,13,0,0,1-4.09-1.94c-.64-.46-1.3-1.13-1.16-1.9a6.49,6.49,0,0,1,3.59,1.64,3.92,3.92,0,0,1,.33-4.69.69.69,0,0,1,.4-.25c.28,0,.48.27.59.53.86,2,.64,4.26.4,6.42"/><path class="cls-1" d="M7.24,28.78s.16,0,.14,0l-.18,0Z"/><path class="cls-1" d="M7.6,28.58a.71.71,0,0,0-.4-.1,3.11,3.11,0,0,0,.3.12s-.07.06-.13,0,0,0,.06.07.16-.08.05-.15A.45.45,0,0,1,7.6,28.58Z"/><path class="cls-1" d="M8.05,25.21l0,0Z"/><path class="cls-1" d="M7.81,23.06s0,0,.05,0S7.83,23.05,7.81,23.06Z"/><path class="cls-1" d="M7.88,22.61v0S7.89,22.61,7.88,22.61Z"/><path class="cls-1" d="M8.05,25.21l.06-.06C8.05,25.15,8.07,25.18,8.05,25.21Z"/><path class="cls-1" d="M7.22,28.08s0,0,0,0l0,0Z"/><path class="cls-1" d="M8.21,26.15v0h.07Z"/><path class="cls-1" d="M8.21,26.87a1.1,1.1,0,0,0-.21,0l.1,0Z"/><path class="cls-1" d="M7.85,28l0,0Z"/><path class="cls-1" d="M8.25,25.63h0Z"/><path class="cls-1" d="M7,28.09v0S7,28.09,7,28.09Z"/><polygon class="cls-1" points="7.53 29.05 7.52 29.06 7.49 29.14 7.53 29.05"/><path class="cls-1" d="M7.52,21.54h0S7.54,21.54,7.52,21.54Z"/><path class="cls-1" d="M4.77,25.33,5.3,26C5.2,25.9,4.93,25.54,4.77,25.33Z"/><path class="cls-1" d="M7.24,28.06v0S7.23,28.05,7.24,28.06Z"/><path class="cls-1" d="M5.3,26h0l0,0Z"/><path class="cls-1" d="M5.57,21.88l0,0A.11.11,0,0,0,5.57,21.88Z"/><path class="cls-1" d="M7,21.51l0,0Z"/><path class="cls-1" d="M5.28,22.71s0,0,0,0h0S5.25,22.72,5.28,22.71Z"/><polygon class="cls-1" points="5.02 23.34 5.06 23.34 5.06 23.32 5.02 23.34"/><path class="cls-1" d="M5.36,27.47a.74.74,0,0,1,0,.14C5.36,27.51,5.46,27.51,5.36,27.47Z"/><path class="cls-1" d="M7.3,28.09s-.06,0-.06,0v0Z"/><path class="cls-1" d="M6.35,23.28l0,.06A.15.15,0,0,0,6.35,23.28Z"/><path class="cls-1" d="M2.32,25.8l0,0S2.31,25.82,2.32,25.8Z"/><path class="cls-1" d="M6.23,23.56H6.12l0,0Z"/><path class="cls-1" d="M5.32,27.61Z"/><path class="cls-1" d="M6,27.54c-.07,0-.12.16-.18.26s0-.15,0-.26-.21.17-.25.14a.12.12,0,0,1,0-.08c-.13.11-.19-.08-.35.06a.43.43,0,0,1,0-.05,2,2,0,0,1-.11.25s-.13.08-.08,0,0,0,.08-.07l-.07,0c.06-.18.08,0,.15-.15-.1,0-.26.11-.29,0s.16,0,.16-.17l0,.11c.07-.29,0,0,.13-.26-.08-.11-.17,0-.25-.09-.07.07-.07.14-.14.21-.25.08.11-.47-.13-.32s-.22.29-.24.13l.14-.16c-.09-.08-.22.22-.25,0s.11,0,.11,0c0-.18-.11.07-.16,0L4.5,27c-.12,0-.31,0-.45,0,0-.05.09-.08.09-.15-.2,0-.31-.24-.37-.41l-.14.09s0-.08.05-.09-.06.08-.12.11,0-.1.07-.13c-.17,0-.44,0-.39-.19h0c0-.11-.31.15-.25,0h0C3,26,2.77,25.84,3,25.64c-.22.06.06-.15-.25-.07.13-.12.2-.11.3-.19s-.21,0-.23-.07h.17l-.18-.06h.08l-.6.46v.13l0,0a.23.23,0,0,1,0-.13c.09-.07.18.14.17.22l.2-.11c0,.07-.05.08-.08.12.12-.15,0,.18.09,0a.5.5,0,0,1,0-.13.14.14,0,0,0,.2.1l0,.11c.12.06.28,0,.42.07,0-.07,0-.26.09-.26l0,.17c.07-.09,0-.08.08-.18s0,.2-.08.25l.09,0c0,.05,0,.07-.07.14.07-.1.05.2.15,0v.05a.65.65,0,0,0,.18,0,1,1,0,0,1,.28.09c0-.15.11-.09.19-.18a3,3,0,0,0,.51.48c.12,0,0-.14.05-.23,0,.2.23.31.16.38a2.94,2.94,0,0,0,.3.18,1.34,1.34,0,0,0,.11-.21.66.66,0,0,1-.1-.18s.1.08.13.16v0c0-.16.17,0,.29,0s.19.08.17,0h0a.16.16,0,0,1,0-.06s0,0,.06.07.12,0,.08,0l0,0s0,0,0,0,0-.12.09-.06L6,26.66c-.05-.08,0,0,.07,0s-.07-.05-.1-.1A.25.25,0,0,1,6,26.37a1.52,1.52,0,0,1,.36-.2l-.1-.24,0-.2c0-.14,0-.29-.08-.44s-.54-.22-.32-.44l.19.09A.64.64,0,0,1,6,24.49a.45.45,0,0,0,0-.34s.09,0,.08.05S6,24,5.94,24s.09,0,.15,0-.14-.14,0-.14,0,0,0,0,0-.13-.1-.14c.09-.06,0-.18.09-.21-.14-.1.12-.1-.09-.2.22.1.24-.05.15-.15.06.05.09,0,.18.06s0-.12-.11-.17c.16,0,.13,0,.09-.08s0-.09.1,0a.54.54,0,0,1,0-.43c.08.3,0,.1.07.38,0-.13-.05-.45,0-.41a.74.74,0,0,1,0,.21c0-.17.09,0,.18-.14l0,.09s0,.06,0-.09l0,0a1.15,1.15,0,0,1,.26-.49c-.19.37,0,.18-.24.62a.55.55,0,0,0,.1-.16.57.57,0,0,1-.09.18c.06,0,.13-.17.15-.12l-.1.12c.08-.09.17-.15.15-.07s0,.06-.06,0,.29,0,.24.11c-.23.06-.06.06-.25.13l.08.06L7,23.07c0,.07.18.08.14.16l-.1,0,.08.11,0-.09c.12,0,.25-.08.22,0s0,.07-.09.14h0c.07,0,.15,0,.11.11s-.22,0-.26.06c.18,0,.09.15.27.16a.43.43,0,0,0-.17,0h.14s0,0-.14.06.25-.09.17.06c0,0,0,0-.06,0s.13.22.08.34c-.2.07-.07-.08-.23,0,.06.15.29.29.26.46l0,0c.29,0-.13.13,0,.19,0,0-.16,0-.13,0s.09.21.19.37l-.07,0c-.07.07,0,.17-.06.24s.06.06.17,0c-.42.22.23.41-.12.6,0,0-.07-.05-.07,0l.07.17c.12,0,.07,0,.17-.06s.14.07.13.11-.2,0-.27,0h.12c-.23.08.26,0,.1.13H7.66c0,.05.12.09.1.14s-.06-.05-.18-.06.27.14.12.2,0-.07-.08-.1-.13.06-.16.11h0l-.08.11,0,0c.38.1.06.17.3.29-.23-.12-.13,0-.3,0s-.1.06-.15.05c.13.06-.11.08.08.16-.05,0,0,.06-.14,0,0,.07.09,0,.16,0s-.24.23,0,.4c.09.14.26.18.34.31a.24.24,0,0,1-.19-.05c-.08.06-.07.11,0,.18a.26.26,0,0,0-.15,0c0,.05.19.06.11.11a.86.86,0,0,1-.21-.07c0,.07.14.13.18.2s-.14,0-.2-.08.07.19.21.22l.06,0s-.13,0-.15,0,.06-.08.11-.07l0,0c.31,0,0-.18,0-.26l.23.06-.18-.11c.06,0,.19,0,.22,0s-.08-.06,0-.1,0,0,0,0l-.06-.07s.16,0,.12,0c.14-.1-.15-.19,0-.22H8c-.06-.16-.17,0-.35-.16l.42,0-.17,0s0-.05.09,0c-.11-.06-.07,0-.18,0,.16-.06,0-.21.21-.21-.12,0-.1.07-.18,0,.29,0,0-.1.09-.16s.07.09.2,0c-.24-.06.07-.13,0-.2S8,26.74,8,26.64s.12-.19.2-.28h0c-.2,0-.16-.12-.2-.19a.31.31,0,0,1,.22.05v-.06a.18.18,0,0,1-.12-.08l.15,0c0-.09-.17-.18-.07-.3-.14,0-.39.09-.49,0,.08,0,.21,0,.24,0s-.06,0,0-.05L8,25.8c.05-.06-.11,0-.1-.07s.08,0,.16,0,0,0,0,.05a.29.29,0,0,1,.17-.12c-.06,0-.15,0-.16,0s.13,0,.18-.09,0-.08-.16-.07c0,0,.07,0,.12-.05s0-.21-.2-.15H8c-.16-.14.07-.31,0-.46h.06c-.07-.09-.06-.2-.18-.25s.09-.07.15-.07-.1-.06,0-.17c.1.06.08,0,.08.06,0-.09.12-.13,0-.2.14,0,.16-.09.11-.13l-.09.08A.21.21,0,0,1,8,24h.19c.19-.23-.44-.26-.1-.48-.14,0-.07.12-.22.11,0-.08.24-.23.23-.26s-.29,0-.25-.18c-.06,0-.22.09-.3,0s.23-.18.29-.14,0,0,0,0,.06,0,.12,0H7.92c0-.06,0-.17.12-.18a.08.08,0,0,0-.13.06c0-.14,0-.15,0-.31,0,0-.09.08-.09.06,0-.25-.15-.05-.23-.16s.22-.1.08-.19c0-.13.13-.13.2-.12-.17-.07-.07-.33-.1-.45l.08,0s-.06-.07-.09-.1l-.06.14c0-.06,0-.09,0-.14s-.12.21-.25.24-.13-.07,0-.24c.08.19.08-.18.2-.07s0,0-.07-.1,0,0,0,0c0-.28-.16.11-.28,0,.06-.08,0-.2,0-.2s0,.18-.11.22c-.07-.14-.12,0-.16,0l0,.06c0,.08-.08.05-.15.05s.07,0,0-.07c-.1.14-.14-.23-.28-.11,0-.07,0-.19,0-.23-.13.15-.16-.11-.29,0,.06.12,0,.08,0,.25a1.2,1.2,0,0,1,.21-.17,1.34,1.34,0,0,0-.12.24s.12-.13.16-.11,0,.09,0,.19c-.1-.18-.14.17-.23.09L6.2,21.4c-.19-.08-.19.35-.38.43H5.9c0,.14-.08.11-.11.21,0-.1-.1-.1-.17-.12s-.12.15,0,.32l-.16,0c-.17.13.13.37,0,.46-.08-.1-.18-.08-.2-.2,0,0-.07.07,0,.1s.06.18,0,.17.13.1.1.14l0,0s0,.1.16.12c-.38,0-.12.34-.43.36a1.58,1.58,0,0,1,0,.31s0,0,0,0,.28.15.14.25-.08-.09-.15-.06c-.35,0,0,.17-.2.23l0,0c-.13.06.11.2.08.31a.11.11,0,0,0-.06,0,.64.64,0,0,1,.28.35c-.14,0-.08-.05-.22,0,0,.05.23,0,.27.09a.54.54,0,0,1-.29.07v-.06c-.2,0,0,.07,0,.1H4.73c0,.07.24.13.24.22l.07,0c.22.15-.12,0,0,.12l-.23-.1a1.49,1.49,0,0,1,.18.18l.13.18-.26-.27-.13-.12s0,0,0,.05a.72.72,0,0,0,.13.14s-.09-.09,0-.07a1,1,0,0,1,.31.38c-.49-.45-.07.07-.46-.34.23.29,0,0,0,.08l.54.71c.06.07,0,.07,0,0l-.14-.18L5,25.66l-.25-.34-.39-.51.2.27.26.35c.24.34-.46-.62-.21-.27L4.47,25a4,4,0,0,1,.28.46c0-.07-.14-.23-.17-.28s.15.39,0,.11l0-.12s.07.21,0,.09l0-.12v.06c0,.05,0,.09,0,.05l0-.12c-.06-.15,0,.25-.09.26,0-.27,0-.36,0-.41v0s0,0-.16,0S4,25,3.84,25c0-.29-.38-.25-.56-.44a.25.25,0,0,1-.09.2c0-.07-.17.13-.12-.09h0c0-.22-.11-.18-.19-.2l-.06.28c-.1-.33-.36-.15-.5-.16l-.54,0-.05.49a.21.21,0,0,1-.16.18c.07.08.07.16.14.23H1.58a.78.78,0,0,0,.08.53H1.54c0,.14.47,0,.52.09l-.19.13c.09.17,0,.47.33.49,0,0-.09.06-.12,0s.12.38.33.13c-.15.15.12.16.25.15l-.12.1c.19-.09.23-.13.35-.09s-.07.1-.07.05c0,.12.15-.07.17.06l-.09.05c.06.07.09,0,.2,0s.1.13,0,.25c.06-.07.16-.13.18-.07a.15.15,0,0,1-.07.07c0,.17.26,0,.26.15a.18.18,0,0,0,0,.08c-.09-.06-.16-.12-.14-.12s0,.18-.19.3c.12,0,.35-.16.38-.06v0h0s0,0,.06,0a.16.16,0,0,0,0,.07c-.06.1,0,.11.09.14.07-.13.11-.08.13-.22H3.74l-.1-.05c.08-.05.14-.09.14,0L4,27.6c-.06.22,0,.38-.08.5.16,0,.31.12.52-.09.06,0,0,.09,0,.14s0,0-.08,0,.21.09.32-.08c0,.13-.13.14,0,.17l0,0c.09.41.61-.26.69.23,0,0,0,0,0-.08.22.31.67.13.87.51.06.09.12,0,.21-.1l0,.16.15-.14c.17-.09.09.46.34.26V29c.06,0,.21,0,.16.12s0-.11.06,0l0,.08.18-.1c.1.1-.11.33,0,.39a.49.49,0,0,0,.24-.25s-.05-.07,0-.16l.07,0a1.09,1.09,0,0,0,.1-.69l-.13.12v-.13l.07,0c0-.13-.06,0-.11,0a.32.32,0,0,0,0-.14l-.16.21c0-.1.1-.18.06-.25-.08.1,0,.23-.12.28,0-.13,0-.21,0-.14a.22.22,0,0,1,.07-.12c-.07.06-.13,0-.2.12,0-.15-.16,0-.07-.25,0,.05-.14.16-.19.15.17-.24-.14-.07,0-.35-.14.22-.23,0-.38.13,0,0,0-.05,0,0s0-.12,0-.18c-.09.2-.19.21-.29.31,0-.22.14-.21.19-.4-.06.16-.18.11-.21.25a.46.46,0,0,1,0-.25c-.12.24-.07,0-.18.15,0-.15.09-.23,0-.19S6,27.54,6,27.54ZM4,27Zm-.15-.1.06.05c0,.05-.06.09-.07.08S3.87,26.92,3.87,26.86ZM3.6,28s0,0,0-.05h.05v0A.1.1,0,0,1,3.6,28Z"/><path class="cls-1" d="M3.76,27.82h0v0l0,0Z"/><path class="cls-1" d="M8,25.24H8Z"/><polygon class="cls-1" points="2.97 25.33 2.94 25.32 2.97 25.33 2.97 25.33"/><path class="cls-1" d="M7.51,26.23h0Z"/><path class="cls-1" d="M7.46,26.65l-.06.06A.31.31,0,0,0,7.46,26.65Z"/><path class="cls-1" d="M7.37,27h0Z"/><path class="cls-1" d="M6.66,22.76h0S6.64,22.79,6.66,22.76Z"/><path class="cls-1" d="M7.3,23.4s-.06,0-.08,0S7.21,23.42,7.3,23.4Z"/><polygon class="cls-1" points="6.36 23.27 6.36 23.27 6.35 23.28 6.36 23.27"/><path class="cls-1" d="M7.2,23.31s0,.05,0,.06S7.23,23.32,7.2,23.31Z"/><path class="cls-1" d="M7.17,28.37h0Z"/><path class="cls-1" d="M7.19,28.39h0Z"/><path class="cls-1" d="M7.24,28.45l0-.05S7.2,28.43,7.24,28.45Z"/><path class="cls-1" d="M7.29,27.94h0Z"/><path class="cls-1" d="M7.28,27.81s-.12.07-.09.11h0C7.15,27.9,7.37,27.85,7.28,27.81Z"/><path class="cls-1" d="M8,27.32,8,27.43c.06,0,.14,0,.15,0C8.3,27.32,8,27.46,8,27.32Z"/><path class="cls-1" d="M8.13,27c0,.06.08,0,.12,0S8.18,26.94,8.13,27Z"/><path class="cls-1" d="M8.09,24.43h.14C8.2,24.37,8.17,24.43,8.09,24.43Z"/><polygon class="cls-1" points="7.3 24.07 7.22 24.12 7.35 24.12 7.3 24.07"/><polygon class="cls-1" points="8.22 23.6 8.25 23.61 8.18 23.55 8.22 23.6"/><path class="cls-1" d="M4.94,23.18l.16,0S4.91,23.11,4.94,23.18Z"/><path class="cls-1" d="M4.87,25c-.09,0-.14,0,0,0S4.89,25,4.87,25Z"/><polygon class="cls-1" points="2.78 24.55 2.83 24.5 2.74 24.53 2.78 24.55"/><path class="cls-1" d="M59,41.12s0,.14,0,.13l0-.17Z"/><path class="cls-1" d="M59.07,41.45a1,1,0,0,0,.13-.35,1.56,1.56,0,0,0-.13.26s0-.06,0-.12,0,0-.05.06,0,.14.09,0A.35.35,0,0,1,59.07,41.45Z"/><path class="cls-1" d="M59.86,42.78l0,0Z"/><path class="cls-1" d="M59.48,43.51l0,0S59.47,43.5,59.48,43.51Z"/><path class="cls-1" d="M59.26,43.46h0Z"/><path class="cls-1" d="M59.86,42.78l0,0S59.85,42.79,59.86,42.78Z"/><path class="cls-1" d="M59.47,41.17l0,0h0Z"/><path class="cls-1" d="M59.64,42.44h0l-.07,0Z"/><path class="cls-1" d="M59.48,42.21l.17-.1-.09,0Z"/><path class="cls-1" d="M59.29,41.72h0Z"/><path class="cls-1" d="M59.67,42.63l-.05,0Z"/><path class="cls-1" d="M58.18,40.14v0Z"/><polygon class="cls-1" points="58.5 40.91 58.49 40.92 58.48 40.99 58.5 40.91"/><path class="cls-1" d="M59,43.42h0S59,43.41,59,43.42Z"/><path class="cls-1" d="M56.5,43.35c0,.12-.11.12-.14.27A.86.86,0,0,0,56.5,43.35Z"/><path class="cls-1" d="M59.48,41.19s0,0,0,0Z"/><polygon class="cls-1" points="56.37 43.62 56.36 43.62 56.36 43.63 56.37 43.62"/><path class="cls-1" d="M58.46,43.64v0Z"/><path class="cls-1" d="M59,43.73h0Z"/><path class="cls-1" d="M58.21,43.86s0,0,0,0h0S58.2,43.84,58.21,43.86Z"/><polygon class="cls-1" points="57.93 43.86 57.93 43.88 57.94 43.88 57.93 43.86"/><path class="cls-1" d="M57.05,40.21a.56.56,0,0,1,0,.12C57.07,40.23,57.12,40.19,57.05,40.21Z"/><path class="cls-1" d="M59.44,41.24l0-.05h0A.17.17,0,0,0,59.44,41.24Z"/><path class="cls-1" d="M58.23,45l-.06,0Z"/><path class="cls-1" d="M54.92,42v0S54.9,41.94,54.92,42Z"/><path class="cls-1" d="M58,45a.13.13,0,0,0,0-.1v0Z"/><path class="cls-1" d="M57.09,40.33Z"/><path class="cls-1" d="M57.45,40c-.05,0,0,.18,0,.28s0-.13-.07-.22-.06.22-.09.22a.22.22,0,0,1,0-.08c0,.14-.13,0-.16.21v-.05c0,.09,0,.19,0,.25s0,.12-.05,0,0-.05,0-.09l0,.06c0-.17,0-.07,0-.2,0,.07-.07.22-.12.18s.08-.07,0-.21l.07.05c-.09-.26,0,0-.05-.26-.09,0-.08.1-.17.07s0,.13,0,.23-.19-.39-.22-.15.06.32,0,.23l0-.19c-.08,0,0,.27-.07.18s0-.08,0-.1,0,.12,0,.13l-.07-.15c-.07.05-.11.2-.18.27a.37.37,0,0,0-.07-.14c-.07.13-.24.11-.4.1l0,.15a.18.18,0,0,1-.06-.08c-.07,0,.05.08.07.14s-.08,0-.09-.09c0,.16,0,.36-.19.31l0,0c-.09,0,.17.26,0,.21v0c-.15.08-.12.28-.37.26.17.12-.16.08.1.23-.16,0-.2,0-.34,0s.15.11.16.16l-.14,0,.13.1-.18,0,0,0H55c0,.08-.14.11-.22.09a1,1,0,0,0,.1.17.18.18,0,0,1-.11-.07c.14.11-.17,0,0,.08l.12,0c-.1,0-.11.1-.08.17l-.1,0c0,.11,0,.25,0,.37a.28.28,0,0,1,.25,0l-.16,0c.1,0,.06,0,.18,0s-.18,0-.23,0l.06,0h-.14c.11,0-.15.13,0,.14h0a1.31,1.31,0,0,0,.14.29c.14,0,.12,0,.24,0s-.08.21,0,.29.11,0,.2-.06c-.11.07,0,.14-.15.15a.37.37,0,0,0,.27.15.23.23,0,0,1,.07-.09s0,.07,0,.11h0c.22,0,0,.52.28.39h0l.18,0s-.08.07-.09.16c.22-.12.16.13.32,0-.09.38.25.09.26.34l0-.08c.06-.07,0,.06,0,.08s0-.08,0-.12c.23,0,.37.25.56.37s.14-.44.19-.21l-.06.15c.19-.16.32.07.5-.08,0,0,0,.09,0,.08s.12,0,.13-.07,0,.09,0,.14.09-.15.1,0a.08.08,0,0,1,0,.05c0-.06.1,0,.09-.12,0,.07.11-.06.15,0,0-.16.1.07.12-.14,0,.22.1.18.13.07,0,.07,0,.07,0,.17s.09,0,.07-.17c.1.27.14-.23.22.12a2.25,2.25,0,0,1,.32-.31c0,.23-.12,0-.08.28.1-.11.12-.31.24-.29s0,.1,0,.14.22,0,.28-.19v.07s.05,0,0-.08v0c-.08-.13,0-.32-.07-.39.08.28.11,0,.21.39a.22.22,0,0,0,0-.14s.05,0,.06.13c.05-.09,0-.17,0-.2s0,.07,0,.13c0-.11,0-.21,0-.2s0,.06,0,.07,0-.3.13-.28c.11.19.08,0,.2.17v-.08l-.08-.05s0-.16,0-.15l0,.08L60,44H59.9c0-.1-.17-.17-.1-.17s0,0,.13,0h0c0-.06-.06-.11,0-.11s.16.13.2.15,0-.12-.09-.23l.13.09-.1-.09a.22.22,0,0,1,.13.06c.05,0-.21-.11-.09-.12s0,0,0,0,0-.17.08-.21,0,.08.17.12c0-.13-.13-.3-.06-.38h0c-.25-.06.15,0,0-.12l.11,0c.06-.07,0-.16-.14-.25h.07c.07,0,0-.12.06-.16s-.06,0-.16,0c.36-.21-.25-.19,0-.38h.06l-.09-.08c-.11,0-.06,0-.14.09s-.12,0-.13,0a.43.43,0,0,0,.22-.12l-.11,0c.17-.13-.21.09-.11,0l0,0s-.12,0-.11,0,.06,0,.16-.06-.26.07-.16,0,0,0,.09,0,.08-.1.09-.14h0l0-.09,0,0c-.31.17-.12,0-.33.05.2-.09.1-.07.22-.17a.3.3,0,0,1,.07-.11c-.11.06,0-.11-.13,0,0,0,0,0,.07-.12-.06,0,0,.07-.1.11s0-.26-.21-.15-.23.16-.32.2a.28.28,0,0,1,.1-.15c0-.08,0-.08-.09,0a.73.73,0,0,0,0-.12s-.1.15-.1.07a.62.62,0,0,1,.11-.17c-.06,0-.13.1-.18.12a.36.36,0,0,1,.1-.15.22.22,0,0,0-.19.15v.06s0-.12,0-.14,0,.07,0,.11l0,0c-.07.28.11,0,.16,0l-.11.17.12-.13a.35.35,0,0,1-.1.18c0,.1.06-.05,0,.06s0,0,0,0l.06,0s-.07.13-.07.09c0,.13.15-.08.08.06h0c.1,0,.09-.13.25-.23l-.21.32.11-.12s0,0,0,.08,0-.06.12-.12c-.07.12.12,0,0,.2.1-.07,0-.09.13-.11-.18.19.06,0,0,.11s-.08,0-.15.11c.19-.13,0,.08.05.07s.1,0,.17,0,0,.12-.08.18l0,0c.16-.08.15,0,.2,0l-.19.06v0c.06,0,.09,0,.11,0l-.13,0s.18,0,.11.09c.12,0,.33-.15.42-.11a.69.69,0,0,1-.21.05s.06,0,0,0h-.12s.1,0,.09,0-.06,0-.14,0,0,0,0,0a.34.34,0,0,1-.14.08c.06,0,.13,0,.15,0s-.12,0-.16.06,0,0,.14,0-.06,0-.1,0,0,.07.18,0h0c.14.06-.08.14,0,.2h0c.06,0,0,.08.12.13a.27.27,0,0,1-.15,0s.09.06,0,.07-.08,0-.06,0-.12,0,0,.08c-.11-.06-.15,0-.12,0h.09s0,0,0,0l-.15-.07c-.2-.06.24.27-.07.13.08.08.09,0,.19.1s-.25-.1-.25-.1.17.19.08.18.17.14.18.21-.2-.15-.22-.2,0,0,0,0a.21.21,0,0,0-.07-.09l0,0c-.06,0-.08,0-.14-.08a.19.19,0,0,0,.09.09c-.08,0,0,0-.11,0s.08.08.07.08,0,.11,0,.16-.11-.19-.1-.1a.38.38,0,0,1-.11-.18c0,.12-.09,0-.12,0v-.05s0,0,0,0l.06.1a.16.16,0,0,1,0-.06,2.51,2.51,0,0,1,.13.28s0,.08-.09-.06c.07,0-.07-.14,0-.18s0,0,0,0l0,0c-.09-.11.06.17,0,.18s-.08-.15-.08-.13a.36.36,0,0,1,.07.21c-.05,0,0,.06,0,0l0,0a.11.11,0,0,1,0,.11c0-.06,0,0,0-.07,0,.15-.11-.14-.12,0,0-.05,0-.16-.07-.19,0,.12-.07-.11-.08,0a.44.44,0,0,1,0,.2l.05-.09v.18s0-.09,0-.07a.29.29,0,0,0,0,.16c-.07-.16,0,.12-.1,0l-.06-.29c-.07-.12-.06.17-.15.1l0,0c0,.12,0,0,0,.08a.72.72,0,0,0-.05-.2c0,.08,0,0,0,.2l0-.13c-.06-.05,0,.29-.11.26a1,1,0,0,1,0-.26s0,0,0,0-.05.14-.07,0,0,.15,0,.14v0s0,.07,0,.18c-.06-.31-.17,0-.22-.25a.42.42,0,0,1-.13.07s0-.05,0,0-.06.28-.12.17.05-.08,0-.14c0-.33-.08,0-.09-.16v0c0-.11-.09.11-.14.08v-.05a.39.39,0,0,1-.2.24c0-.12,0-.06,0-.19s0,.21-.08.23a.59.59,0,0,1,0-.27h0c0-.18,0,0-.07,0l0-.07c-.07,0-.11.2-.18.17v.06c-.09.18,0-.11-.08,0l0-.2a.81.81,0,0,1-.18.19,1.79,1.79,0,0,1,.18-.27s-.08,0-.12.08,0-.06,0,0-.13.2-.18.18c.12-.36-.09-.13,0-.42-.12.11-.13-.11-.21-.12-.09.28,0,0-.15.28,0,0,0,0,0,0l0-.19c0-.09,0-.06.08-.12s0-.12.06-.2c-.05.1-.09.13-.08.08l-.05.14c-.13.11.09-.25,0-.13l.06-.08s-.06,0-.24.13a.53.53,0,0,1,.09-.11s-.28.1-.19,0l.06,0s-.12.07-.07,0l.06,0s-.12,0-.09,0l.07,0c.06-.09-.21.05-.29,0a.76.76,0,0,0,.28-.18h0s-.2,0-.29-.09c.23-.07.08-.15.22-.2l-.19,0s-.14-.07.06,0h0c.2,0,.15,0,.16,0l-.26-.06c.38,0-.08-.23.26-.15-.06,0-.05-.06-.1-.1l.13,0c.05,0,.07,0,.07-.09l.08,0s-.34-.23-.33-.27l.19.11c0-.06.21,0,.09-.14l.07.07s.17,0,0-.17c.14.13,0,0,0-.11l.09.11c-.1-.15-.13-.19-.13-.25s.08.08,0,.06-.06-.12,0-.09l0,.08s0,0,0-.14.07,0,.15.09c0-.06-.08-.16,0-.14l0,.08c.09,0,0-.18.09-.08a.25.25,0,0,0,0,.07s-.08,0-.08,0a1.14,1.14,0,0,1,.17.28c0-.1-.09-.31,0-.27l0,0v0s0,0,0,0l0,0c0,.1.06,0,.07,0s0-.12-.09-.22a0,0,0,0,1,0,0h0l0,0c0-.07,0-.13,0-.07l-.06-.22c.1.17.18.25.23.36a.48.48,0,0,0,.06-.35s0,.07.06.11,0,0,0,.07.08-.05,0-.24c.06.08,0,.17.07.13v.06c.15.27.12-.5.3-.13a.19.19,0,0,1,0-.07c.15.16.32-.17.46.11,0,0,0-.06.08-.15v.15L58,41c.08-.12.06.38.17.16V41s.1,0,.08.08,0-.11,0-.05l0,.07.1-.11c0,.06-.07.3,0,.33a.55.55,0,0,0,.14-.26s0,0,0-.13l0,0a1.52,1.52,0,0,0,.11-.63l-.09.13V40.3h.05c0-.11,0,0-.07,0a.23.23,0,0,0,0-.12l-.1.2c0-.09.06-.17,0-.23,0,.1,0,.21-.06.27,0-.11,0-.19,0-.11a.24.24,0,0,1,0-.12c0,.06-.08,0-.11.14,0-.14-.1,0-.07-.2,0,0-.07.16-.1.17.08-.26-.1,0-.06-.31-.06.23-.14.1-.21.22s0,0,0,0,0-.09-.07-.14a1.13,1.13,0,0,1-.1.36c0-.19,0-.23,0-.41,0,.16-.08.16-.07.29a1,1,0,0,1,0-.22c0,.24,0,0-.06.19,0-.12,0-.23-.07-.15A.22.22,0,0,1,57.45,40Zm-1.21.71h0l0,0Zm-.1.06,0,0s0,.09,0,.09S56.18,40.76,56.14,40.74Zm.6.78s0,0,0,0,0,0,0,0h0Z"/><polygon class="cls-1" points="56.69 41.35 56.69 41.34 56.67 41.31 56.68 41.35 56.69 41.35"/><path class="cls-1" d="M59.88,42.76Z"/><polygon class="cls-1" points="54.9 41.79 54.93 41.81 54.91 41.78 54.9 41.79"/><path class="cls-1" d="M60.21,42.14l0,0Z"/><path class="cls-1" d="M60.11,41.89l0-.06A.1.1,0,0,0,60.11,41.89Z"/><path class="cls-1" d="M60,41.68l0,0h0Z"/><path class="cls-1" d="M59.29,44.62h0S59.28,44.64,59.29,44.62Z"/><path class="cls-1" d="M59.93,43.81a.11.11,0,0,1,0,.07S60,43.86,59.93,43.81Z"/><polygon class="cls-1" points="58.23 44.97 58.23 44.97 58.23 44.97 58.23 44.97"/><path class="cls-1" d="M59.93,43.91s0,0,0,0S59.92,43.88,59.93,43.91Z"/><polygon class="cls-1" points="59.28 41.08 59.28 41.07 59.27 41.09 59.28 41.08"/><path class="cls-1" d="M59.27,41.09l0,0Z"/><path class="cls-1" d="M59.22,41.13l0,0S59.23,41.1,59.22,41.13Z"/><path class="cls-1" d="M59.54,41.26l0,0Z"/><path class="cls-1" d="M59.62,41.3s0-.13,0-.11l0,0C59.62,41.16,59.56,41.36,59.62,41.3Z"/><path class="cls-1" d="M59.47,42v-.06c0,.05-.07.11-.09.11S59.44,41.92,59.47,42Z"/><path class="cls-1" d="M59.51,42.13s-.06,0-.08.07S59.49,42.18,59.51,42.13Z"/><path class="cls-1" d="M59.74,43.07l-.12,0S59.67,43.05,59.74,43.07Z"/><polygon class="cls-1" points="60.27 43.53 60.36 43.54 60.26 43.48 60.27 43.53"/><polygon class="cls-1" points="59.42 43.2 59.4 43.18 59.43 43.23 59.42 43.2"/><path class="cls-1" d="M58,43.73v.16S58,43.69,58,43.73Z"/><path class="cls-1" d="M57.12,43.78c0-.08,0-.14,0-.07S57.11,43.79,57.12,43.78Z"/><polygon class="cls-1" points="56.03 42.39 56.08 42.41 56.04 42.38 56.03 42.39"/></svg>