<svg id="Capa_1" data-name="Capa 1" xmlns="http://www.w3.org/2000/svg" viewBox="0 0 97.16 98.32"><defs><style>.cls-1{fill:#5da6bc;}</style></defs><path class="cls-1" d="M9.68,66.87l0,18.53a4.75,4.75,0,0,0,1,3.62c1.25,1.24,3.5,1.44,5.51,1.53q33.21,1.52,66.5.83a5.17,5.17,0,0,0,2.89-.62,2.94,2.94,0,0,0,1-2.54q.24-12-.27-23.94c-26.5-1.08-53.08-1.08-79.59,0"/><path class="cls-1" d="M6.62,63.77c-.1.07,0,.22.26.18l.2-.26Z"/><path class="cls-1" d="M8.63,64.17c.35-.14.74-.37.51-.59-.34.25-.43.15-.79.46-.29,0-.52-.06-.47-.16-.1.07-.46,0-.62.13a1.85,1.85,0,0,0,1.39,0C8.76,64.05,8.66,64.12,8.63,64.17Z"/><path class="cls-1" d="M37.58,63.87l-.19,0Z"/><path class="cls-1" d="M55.51,64c-.14,0-.2,0-.2,0S55.54,64,55.51,64Z"/><path class="cls-1" d="M58.56,64.32l-.18,0A.3.3,0,0,0,58.56,64.32Z"/><path class="cls-1" d="M37.58,63.87l.48.07C38.09,63.86,37.81,63.88,37.58,63.87Z"/><path class="cls-1" d="M12.6,63.41a1,1,0,0,0-.26.07l.25,0Z"/><path class="cls-1" d="M29.68,64.18h-.15l-.12.1Z"/><path class="cls-1" d="M23.62,64.34c.13,0,.18-.21.23-.31a.49.49,0,0,1-.3.16A.25.25,0,0,0,23.62,64.34Z"/><path class="cls-1" d="M14,64.23l-.17,0Z"/><path class="cls-1" d="M34,64.16a.11.11,0,0,0,.06.07S34.05,64.18,34,64.16Z"/><path class="cls-1" d="M8.65,73.9h0S8.65,73.85,8.65,73.9Z"/><path class="cls-1" d="M9.73,66.87V67l.12,0Z"/><path class="cls-1" d="M64.16,64.68h0C64,64.7,64.07,64.69,64.16,64.68Z"/><path class="cls-1" d="M83,90.49c.57.17-.92.27-.05.46C82.88,90.87,83.7,90.58,83,90.49Z"/><path class="cls-1" d="M12.76,63.43h0Z"/><path class="cls-1" d="M83,91h0l.09,0Z"/><path class="cls-1" d="M77.06,64.87a.45.45,0,0,0-.13-.1S77,64.82,77.06,64.87Z"/><path class="cls-1" d="M67.46,64.31l.24,0Z"/><path class="cls-1" d="M82.06,64.74a.93.93,0,0,0,.35,0l-.06,0A.4.4,0,0,1,82.06,64.74Z"/><path class="cls-1" d="M85.67,65.52a.59.59,0,0,0,0-.08l0-.1Z"/><path class="cls-1" d="M10.43,90a.78.78,0,0,1-.11-.34C10.3,89.86,9.53,89.26,10.43,90Z"/><path class="cls-1" d="M12.61,63.53c0-.06.07-.08.15-.1l-.17,0A0,0,0,0,0,12.61,63.53Z"/><path class="cls-1" d="M82.33,63.05l.83.07C82.93,63.09,82.63,63.06,82.33,63.05Z"/><path class="cls-1" d="M48,92.37l-.19,0A.3.3,0,0,0,48,92.37Z"/><path class="cls-1" d="M86,63.19a4,4,0,0,0,.76.18.72.72,0,0,0,.21,0Z"/><path class="cls-1" d="M8.41,84c0,.78.28.37.44.54.07.94-.21.43-.36.75.08.6.34,1.08.39,1.57,0,0-.05.14-.12,0,.15.34.24.87.47,1.4a2.43,2.43,0,0,0,1,1.24.3.3,0,0,1,0,.13.38.38,0,0,1,.17-.37c.29.27.66.29.68.52a.58.58,0,0,0-.38-.1l.39.16c.18.42-.53-.22-.64-.09a9.77,9.77,0,0,0,2.21.77c.06.32-1.36-.34-.67.14a6.92,6.92,0,0,1-.84-.47c.49.71-.54-.31-.11.4a8,8,0,0,0,2.61.71c.29-.11-.05-.22.23-.33,1.66-.08,1.26.77,2.46.5a1.23,1.23,0,0,1,1.27-.28l-.29.28c1.08.08.64-.39,1.77-.14-.21.1-.86.06-.7.1.73.26.53-.14,1.1-.12l.11.27c1.16,0,2.44-.14,3.73-.13-.08.07-.3.15,0,.24a29.71,29.71,0,0,1,5,.36l.61-.2c.14,0,.25.11.1.15.61.1,0-.14.33-.22s.45.14.23.2a13.74,13.74,0,0,1,4.2,0l-.22.06c.88.11,1-.43,1.82-.2l-.16,0c1.91.16,4,0,5.49.36.28-.31,1.89.18,2-.26a12,12,0,0,0,2.31.49c.41,0,.62-.27,1.13-.31v.24l.69-.24.36.29.48-.06c-.19,0-.4-.11-.37-.17a3.2,3.2,0,0,1,1.83.31l1.76-.18c0,.09-.33.12-.57.18,1-.23.17.25,1,0-.12-.06.06-.14.08-.19a6.76,6.76,0,0,0,2.13.1l-.14.17c1.31,0,2.76-.06,4.23-.05-.53-.08-.41-.36,0-.39l.17.25c.28-.15-.45-.09.12-.28.55,0,.37.28.06.36l.66-.08c0,.07-.11.11-.15.21.27-.16,1.15.25,1.54,0l0,.08c1.46,0,2.13-.08,3.32-.1,0-.21.5-.17.85-.34a27.59,27.59,0,0,0,2.91.21c.74-.12.22-.19.55-.32.06.2,1.11.17.57.32a29.75,29.75,0,0,0,3.22-.23c-.17-.07-.37-.11-.27-.17.29,0,.66.07.62.16l-.07,0c1.8-.31,4.16.52,5.59.09l-.08,0L79,92.16c.68,0-.41.16.1.27,1.6-.36,2.53,0,3.86-.24a3.37,3.37,0,0,0,2.76-.29,3.24,3.24,0,0,0,1.42-1.51,10.49,10.49,0,0,0,.48-1.52l-.14.08c-.1-.42.11-.49.15-.76-.11,0-.14.4-.2.17-.1-3,.28-6.26.39-9.37,0-1.14-.7-.64-.39-2.07l.26.4c-.32-2.29,0-4.69-.37-6.93.06.14.14.14.14.36A2.81,2.81,0,0,0,87.26,69c0-.35.13-.08.2-.3.09-.48-.27-1.19-.1-1.44,0,0,.06.13.08.21-.1-.3,0-1.44-.23-1.14a3.49,3.49,0,0,0,0-.56c0-.28,0-.55,0-.82,0-.54-.08-1-.07-1.53l-.32,0a6,6,0,0,1-1.59,0c-.37,0-.62,0-.71.12.08-.34-1.46-.33-2-.19.19-.1-.45-.12-.24-.26-.61,0-1.17,0-1.07.21-1.1-.45-2.25.25-2.86-.3-1.81.13-3.48.21-5.11.24.07-.34,1.8,0,1.74-.34a24.06,24.06,0,0,1-4,.24c-.39-.05.23-.14.36-.2-1.54.11-3-.1-4.34.06a.59.59,0,0,1,.29-.09c-.27,0-.62-.06-.59.09l.26,0c.42.23-1.08.45-1.13.57.47-.44-1.35-.14-.61-.69-.18,0-.4.09-.36.2-.27,0-.35-.1-.08-.21-1,.07-.63.24-1.5.22,0-.08.18-.1.27-.19a3.52,3.52,0,0,1-1.63.2s0-.1.18-.1a23.9,23.9,0,0,1-3.55.2c.41-.32-.48-.11-.55-.4l-.75.08.3.14a12.61,12.61,0,0,1-1.8.09l.49-.11L55,63l.7.11c-.67.15.06.37-.81.28a6.35,6.35,0,0,1-1-.18h0a2.53,2.53,0,0,1-1.14.11c-.13-.1.1-.32,0-.38-.32.24-1.54.05-1.94.31.13-.06.14-.21.09-.24l-.27.19c-.3-.06-.34-.09-.29-.21-.92,0,.29.36-.8.2.09,0,.05,0,.22-.07-1.08-.08-2.1.12-3.1,0-.3-.29.87-.07.54-.31-1.45.05-3,.35-4.39.28l.26,0c-.19.41-1-.19-1.74,0,.17,0,.22-.23.18-.18a23.34,23.34,0,0,0-3.4.25l.17-.1c-.56-.09-1.48,0-2.09-.09-.18.11-.53.1-.31.24-1.89-.56-3.58.36-5.25-.1.2,0,.47-.1.31-.1l-1.41.12c.11.18.19.11.49.24a2.11,2.11,0,0,1-.93.2c.63-.13,0-.28-.29-.38.05.06-.05.12,0,.17-.75-.3-.12.36-1.13.17l0-.1a5.32,5.32,0,0,1-1.13.17c-.18-.2.4-.1.42-.27-.57,0-1.12.41-1.65.22.25-.07.6-.08.84-.14a2.4,2.4,0,0,0-1.06-.19h0l-1-.08.25.06c-.7.54-1.46.13-2.42.5.94-.35.16-.2.22-.43-.25-.06-.62-.12-.52-.19-.45.2-.77-.12-1.4.17,0-.08-.49,0-.39-.19-.6.08.14.13.09.22-.9.28-2.16-.25-3.46.14-1.13.18-1.34.44-2.38.6-.36-.11.28-.28.28-.28a4,4,0,0,0-1.55.05c.11-.07,0-.12-.17-.2-.44,0-.28.28-.86.19a1.53,1.53,0,0,1,.42-.32c-.51.09-1,.25-1.53.33-.15-.12.31-.21.49-.3a4.63,4.63,0,0,0-1.71.39L10,64c-.22,0-.12-.17,0-.22.5-.18.73,0,.77.12l-.38.06c.4.42,1.51-.12,2.27-.12l-.3.32.76-.28c.17.07.29.25-.08.31.55.13.48-.13.95,0,.05,0,0,0,0,0l.53-.11c-.1.07.09.22-.23.19,1,.15,1.53-.29,1.89-.06l-.08,0c1.32-.15.12-.24,1.11-.54l.68.55.13-.23c.13,0,.4,0,.35.11.51-.18-.08-.1.21-.26.66.19,1.8-.15,2,.22.23-.19-.63-.12.07-.27.21.4.81-.09,1.41.08-.18.21-.75.12-.14.29.35-.36,1.17,0,1.67,0,0-.28,1.1-.14,1.95-.26a21.17,21.17,0,0,0,2.39.21l0,0c.14-.29,1-.25,1.55-.32,0,.17-.12.24-.44.32h.55A1.43,1.43,0,0,1,30.2,64l-.14.21a11.58,11.58,0,0,1,2.45-.15c.05-.19-.77-.53.24-.67,0,.1.08.28-.19.33a1.17,1.17,0,0,1,.49,0l-.4.18c.43.08.22-.15.57-.14,0,.15.26.11.21.23s-.3-.06-.44,0a2.64,2.64,0,0,1,1,.22c0-.09,0-.21.28-.23.75,0,.26.18.69.25.18-.11.66,0,.67-.23a.44.44,0,0,1,.34.16c.38-.1,1.79,0,1.36-.28h0c1.26-.24,2.62.11,3.87,0v.08a19.93,19.93,0,0,0,2.19-.22c.22,0,.52.13.43.22a3.79,3.79,0,0,1,1.45,0c-.57.13.2.12-.58.1a3.63,3.63,0,0,0,1.7,0c-.27.2.56.25.91.19L46.77,64a8,8,0,0,1,1.1,0l-.19.25c1.51.32,2.73-.52,3.88,0,.4-.18-.82-.13-.46-.34a11.74,11.74,0,0,1,1.64.41c.95.15.89-.36,1.89-.26-.13-.09-.24-.33.5-.41s.86.38.42.45c-.17,0-.25,0-.24,0-.23,0-.53.07-.25.17l.09-.09c.35.09,1.31.09,1.08.24.53-.08.23-.15-.16-.2.89.14,1.39,0,2.31.12-.14,0-.27-.16-.13-.16,1.35.13.6-.16,1.51-.19.52.15-.19.33.74.22.56.1.11.25-.11.32a5.54,5.54,0,0,1,2,.18l-.44.06a4.28,4.28,0,0,1,.7,0l-.25-.18c.26,0,.48,0,.47.11.27-.11-.2-.3.34-.46.34.1,1-.08,1.17.17-1.09-.1.12.24-.81.26a2.51,2.51,0,0,1,.66,0s0,0-.11.06c1,.23.48-.26,1.56-.24-.14.13.25.26.42.24-.43,0-.2-.23.2-.33.69.12.76-.06,1.12,0l-.41-.06c.14-.13.48-.11,1-.14,0,.11-.44.07-.27.12.54-.23,1.2.27,2,.13.35.1,0,.25.33.32.85-.15.91.2,1.79.09-.25-.19-.29-.15.33-.31l-1.45.09.93-.24c-.43,0-.92.09-1.18,0,.45-.14.4-.09.19-.25.59.29,1.19-.13,1.88.08l0,.45c1,.23,1.85-.18,3.19,0l-.43-.09c.19-.17.83,0,1.27-.06,0,.15.23.21.41.31,0-.11,1,0,1.12-.25l.59.22c1.09.11,1.26-.39,2.31-.31-.33.16.15.28-.56.37.35,0,.66,0,.67,0,.2.1,1-.17,1.29,0,.15-.06.21-.22.6-.19,0,0,0,.07,0,.07s.61-.07.28-.25a4,4,0,0,0,1.42.27h.68l.51,0a1.8,1.8,0,0,1-.13.77c0,.13,0,.27.05.4l.06.62c0,.41.05.81.08,1.16-.05,0-.08,0-.07-.13-.11,1,.46.57.33,1.66-.22.56-.15-.57-.23-.22-.49.16.11,1.31-.16,2l0-.17c-.15.56.22,1.36.21,2.27,0,0,0,0-.08,0a10.6,10.6,0,0,1,.45,2.67c-.2-.27-.11-.39-.3-.23,0,.4.31-.12.38.67-.11.26-.19.83-.4.9l0-.74c-.27.38,0,1,0,1.35l-.12,0A23.75,23.75,0,0,1,86.15,80l.09-.12c.3.66-.16.56.05,1.22l-.3.2a23,23,0,0,1,.34,2.34,11.63,11.63,0,0,1-.46-2A5.81,5.81,0,0,0,86,83.41a1.38,1.38,0,0,1,0-.57A5.28,5.28,0,0,1,86.31,85c-.58-.16-.18,2.27-.65,2.89a2.72,2.72,0,0,1-.24,1.89c-.27.4-.76.56-1.54.68.62.38-.45.07-.33.52-.4,0-.56,0-.59,0l-1.27-.25c-.3-.13.4-.11.36-.22-.92,0-.39-.19-1-.3.13.16-.31.24-.83.19l.73.2c-1.27.27-1.11-.37-2.39-.1l.4-.15c-.66.1-2.43,0-3.08.41-.11,0-.27-.17,0-.21-1.58,0-3.51.44-4.74.22l.12-.11c-.3,0-.51.22-.88.1,0,0,.12-.11,0-.12a3.32,3.32,0,0,1-1.17.15l.33-.13c-1.54-.14-2.36.32-3.65.41,0-.34-1.21-.44-1.82-.5l0-.05a46.38,46.38,0,0,0-4.71.41c-1-.36-3.49-.16-5.15-.38.26.06,0,.26-.33.29s-1.08.23-1-.08H53c-.29-.31-1.09-.24-1.71-.25l-.11.4c-1.62-.6-4.28.16-5.16-.38-.4.1-.89.09-1.28.18l0-.21a27.58,27.58,0,0,0-3-.09l.28-.15c-.76,0-1,.61-1.68.6l-.2-.32a18.29,18.29,0,0,0-4-.08s.06-.14.28-.15c-.63,0-2.41-.28-2.2.17,0-.29-1.37-.07-2.09,0l.12-.21a3.1,3.1,0,0,1-1.48.37c-.2,0-.17-.17.09-.11-.66-.13-.52.18-1.33,0l.31-.13a1.53,1.53,0,0,0-1,.18,2.08,2.08,0,0,1-1.4-.29,1.1,1.1,0,0,1-.88.19c-.05-.08.1-.12.18-.14-1.15-.18-1.72.19-2.5,0a.19.19,0,0,0-.13-.13c.91,0,1.64.08,1.58.09,0-.2-.73-.26-.14-.51a7,7,0,0,1-2.33.29.31.31,0,0,1-.09-.07l.07,0a1.34,1.34,0,0,0-.45,0,4.22,4.22,0,0,0-.59-.09c-.08-.16-.84-.12-1.21-.14,0,.22-.46.16,0,.36,0,0,.07,0,.32,0l.16,0,0,0,.91,0a1.41,1.41,0,0,1-1,0c-.19.13-.41.26-.53.33-.49-.32-1.45-.53-1.57-.72a11.25,11.25,0,0,0-3.37.34c-.32,0-.35-.14-.47-.21a2.72,2.72,0,0,0,.5-.06c-.64.08-1.83-.11-2,.14-.75-.26.46-.18-.58-.32l.15-.06c-.94-.43-1.68-.52-2.37-.92a2.13,2.13,0,0,1-1-2.41c0,.16,0,.24-.08.28.18-2.67-.24-5.65.15-8.34A2.35,2.35,0,0,0,10,76.92l.23-.16L9.94,76c-.19-1.14.58-2,.21-3.42l-.15.19c0-.52-.09-1.64.09-1.56a.35.35,0,0,1-.08-.37l.12,0-.2-1.27c.09-1,.47.16.5-1.29,0-.53-.35-1.52-.43-1.32s-.07.55-.19.57L9.74,67c-.35-.09-.71-.47-1,.73l.21.84-.17.27V68.1a1.15,1.15,0,0,0,.08.94.57.57,0,0,0-.2.35l.34.83c-.14.1-.27-.37-.35.18.15.38.31-.37.41.27-.16.4-.29.28-.15.75-.1.07-.15,0-.19-.22.1.42,0,1.11.23,1.33-.2.41,0,1.41-.29,1.37A3.44,3.44,0,0,1,9,75c-.4-.7,0,1.44-.45,1.26.36.52.15,1.88.35,2.8a.36.36,0,0,1-.07-.24,4.62,4.62,0,0,1-.21,1c.3.06.37.87.55,1.31-.29.63-.35-.39-.63-.19.24,0,.24,1.1.44.89-.18.48-.09.42-.33.67.37.08.06.45.29.85-.19.71-.35.18-.24,1C8.54,84.71,8.41,84,8.41,84Zm15,7.41Zm1.55,0-.67,0c-.05-.08,0-.15.16-.14C24.38,91.36,24.74,91.41,25,91.48Zm-3.21-1.61c.24,0,.32,0,.36.07h-.43l0,0A.26.26,0,0,1,21.76,89.87Z"/><path class="cls-1" d="M21.31,90.14h-.1l.14,0,.09-.06Z"/><path class="cls-1" d="M37.36,63.83h0l-.07,0Z"/><polygon class="cls-1" points="46.3 92.45 46.3 92.4 46.16 92.44 46.3 92.45"/><path class="cls-1" d="M28.84,63.21l-.11-.05S28.78,63.19,28.84,63.21Z"/><path class="cls-1" d="M25.16,63.24l-.52-.07Z"/><path class="cls-1" d="M22.33,63.2a.28.28,0,0,0,0,.09h0Z"/><path class="cls-1" d="M67.29,62.87h.11C67.66,62.83,67.49,62.84,67.29,62.87Z"/><path class="cls-1" d="M53.91,63.18a3,3,0,0,1,.43-.1C54.1,63.06,53.92,63.06,53.91,63.18Z"/><polygon class="cls-1" points="82.24 63.05 82.24 63.05 82.33 63.05 82.24 63.05"/><path class="cls-1" d="M55,63.09a1.86,1.86,0,0,0-.62,0A2.56,2.56,0,0,0,55,63.09Z"/><path class="cls-1" d="M10.08,63.48H9.94s0,0,0,0Z"/><path class="cls-1" d="M9.93,63.51l-.15,0C9.85,63.54,9.91,63.54,9.93,63.51Z"/><path class="cls-1" d="M9.46,63.61l.32-.07A.63.63,0,0,0,9.46,63.61Z"/><path class="cls-1" d="M13.83,63.45l0-.08A.08.08,0,0,0,13.83,63.45Z"/><path class="cls-1" d="M15,63.39a4.27,4.27,0,0,0-1.06-.08l0,.06C14,63.25,14.71,63.53,15,63.39Z"/><path class="cls-1" d="M19.73,64.21l-.95,0c.17.08.39.19,0,.22C20,64.6,18.49,64.21,19.73,64.21Z"/><path class="cls-1" d="M22.69,64.25c-.51,0,0,.12,0,.17C23,64.34,23.07,64.31,22.69,64.25Z"/><path class="cls-1" d="M44,64l-.05.19C44.37,64.13,44,64.09,44,64Z"/><polygon class="cls-1" points="48.1 62.96 47.72 62.83 47.53 63.01 48.1 62.96"/><polygon class="cls-1" points="50.51 64.35 50.34 64.38 50.99 64.31 50.51 64.35"/><path class="cls-1" d="M85.46,65.11l.23-.29h0c-.17,0-.34.25-.24.25A.06.06,0,0,0,85.46,65.11Z"/><path class="cls-1" d="M86,79.87a1.09,1.09,0,0,0-.08.88C86,80.4,86.05,80.05,86,79.87Z"/><polygon class="cls-1" points="50.43 90.58 50.74 90.5 50.15 90.56 50.43 90.58"/><path class="cls-1" d="M5.9,57.91c-1.58,1.27-.92,4,.73,5.2s3.84,1.21,5.87,1.2l78.15-.21c2.51-1.52,1.86-5.69-.49-7.47s-5.53-1.84-8.47-1.83L4.91,55"/><path class="cls-1" d="M4.91,54.47c-.1.07,0,.24.23.21l.19-.29Z"/><path class="cls-1" d="M6.71,55c.32-.14.68-.38.48-.64-.32.27-.39.16-.73.48-.26,0-.46-.09-.42-.19-.09.07-.41-.06-.56.12a1.36,1.36,0,0,0,1.25,0C6.83,54.86,6.74,54.94,6.71,55Z"/><path class="cls-1" d="M32.88,55.35l-.17,0A.43.43,0,0,0,32.88,55.35Z"/><path class="cls-1" d="M49.09,55.46q-.18,0-.18.06C49,55.5,49.12,55.48,49.09,55.46Z"/><path class="cls-1" d="M51.86,55.76l-.16,0A.19.19,0,0,0,51.86,55.76Z"/><path class="cls-1" d="M32.88,55.35l.43.09C33.34,55.35,33.09,55.37,32.88,55.35Z"/><path class="cls-1" d="M10.32,54.29a.85.85,0,0,0-.24.08l.23,0Z"/><path class="cls-1" d="M25.73,55.6H25.6l-.11.11Z"/><path class="cls-1" d="M20.25,55.66c.12,0,.17-.23.21-.33a.35.35,0,0,1-.27.16A.35.35,0,0,0,20.25,55.66Z"/><path class="cls-1" d="M11.55,55.27l-.15,0Z"/><path class="cls-1" d="M29.66,55.64a.19.19,0,0,0,.05.09A.14.14,0,0,0,29.66,55.64Z"/><path class="cls-1" d="M6.35,64.28s0,0,0,0S6.31,64.25,6.35,64.28Z"/><path class="cls-1" d="M5.94,58,5.88,58a1,1,0,0,0,.08.11Z"/><path class="cls-1" d="M56.92,56.06h0C56.77,56.08,56.84,56.08,56.92,56.06Z"/><path class="cls-1" d="M86.4,63.12c.53.21-.86.27-.06.51C86.26,63.54,87.06,63.25,86.4,63.12Z"/><path class="cls-1" d="M10.46,54.32h0Z"/><path class="cls-1" d="M86.34,63.63h0l.08,0Z"/><path class="cls-1" d="M68.6,55.88a.41.41,0,0,0-.12-.11S68.51,55.83,68.6,55.88Z"/><path class="cls-1" d="M59.9,55.56l.21,0Z"/><path class="cls-1" d="M73.11,55.52a.66.66,0,0,0,.32,0l-.05,0A.34.34,0,0,1,73.11,55.52Z"/><path class="cls-1" d="M77.81,55.51l-.09,0h-.15Z"/><path class="cls-1" d="M21.06,65.31a.66.66,0,0,1-.22-.22C20.91,65.26,20.22,65.33,21.06,65.31Z"/><path class="cls-1" d="M10.32,54.43a.2.2,0,0,1,.14-.11l-.15,0A.06.06,0,0,0,10.32,54.43Z"/><path class="cls-1" d="M73.29,53.62l.75,0C73.83,53.63,73.56,53.62,73.29,53.62Z"/><path class="cls-1" d="M54.76,65.18l-.17,0A.23.23,0,0,0,54.76,65.18Z"/><path class="cls-1" d="M76.26,53.61a1.26,1.26,0,0,0,.42.16.24.24,0,0,0,.08-.06Z"/><path class="cls-1" d="M20.84,65.09Z"/><path class="cls-1" d="M15.92,65.68c.71,0,.33-.32.48-.5.85-.09.4.23.69.4a10.27,10.27,0,0,1,1.33-.37c0,.05.1.07,0,.14.56-.26,1.67,0,2.32-.34a.38.38,0,0,1,.09.08.6.6,0,0,1-.11-.44c.32,0,.6-.2.72,0-.2,0-.22.08-.31.14l.34-.09c.3.3-.46.11-.46.33a7.88,7.88,0,0,1,1.91-.27c.11.29-1.17.1-.5.36L21.66,65c.59.46-.47,0,.07.46,1,.08,1.14-.15,2.15-.07.23-.16-.07-.24.16-.4,1.44-.3,1.13.73,2.19.34.27-.2.38-.57,1.13-.37l-.25.33c1,0,.56-.48,1.59-.26-.18.13-.77.11-.62.15.67.26.47-.19,1-.19l.11.29c1,0,2.2-.26,3.36-.32-.06.09-.26.18,0,.27a21.47,21.47,0,0,1,4.54.2l.54-.26c.12,0,.23.12.09.17.55.09,0-.16.3-.26s.41.14.21.22a9.85,9.85,0,0,1,3.79-.2l-.2.07c.8.1.9-.52,1.64-.28l-.14,0c1.73.11,3.64-.13,5,.25.25-.37,1.71.15,1.82-.35a8.42,8.42,0,0,0,2.09.5c.38,0,.56-.32,1-.37v.26l.62-.27.33.31.43-.07c-.17,0-.36-.12-.34-.19a2.48,2.48,0,0,1,1.66.31l1.59-.22c0,.1-.3.14-.51.21.85-.27.16.28.93,0-.1-.06.06-.16.08-.22a5.08,5.08,0,0,0,1.92.09l-.12.19c1.18,0,2.48-.1,3.81-.1-.48-.08-.37-.4,0-.43l.16.28c.25-.17-.41-.11.11-.32.49,0,.33.32.05.41l.6-.1c0,.09-.11.13-.15.24.25-.18,1,.27,1.4,0l0,.09c1.33,0,1.93-.1,3-.12,0-.24.44-.19.76-.39a18.59,18.59,0,0,0,2.63.24c.67-.12.19-.2.5-.35,0,.22,1,.2.5.36A24.52,24.52,0,0,0,76.15,65c-.16-.09-.34-.13-.24-.2.26,0,.59.09.56.19l-.07,0c1.62-.33,3.76.64,5,.17l-.07,0,1.34-.25c.62,0-.37.17.09.31,1.45-.38,2.29,0,3.48-.21a3.74,3.74,0,0,0,2.14.27c.43,0,.87-.05,1.29-.05H90l.37,0c.34,0,.7.12.93-.08l-.16-.07a1,1,0,0,1,.5-.37,1.17,1.17,0,0,0,.42-.2c-.09-.06-.49.26-.3,0a5.62,5.62,0,0,0,1.43-4.87,7.25,7.25,0,0,0-.82-2.41,6.12,6.12,0,0,0-1.74-2,1,1,0,0,0-1-.21c-.26,0-.51,0-1.1-.39a4.15,4.15,0,0,1,.48-.11,18.16,18.16,0,0,0-6.62-.74c.13-.06.13-.15.33-.14-.44-.22-1.6,0-1.6.15-.31,0-.07-.15-.27-.23-.43-.12-1.07.26-1.3.06,0,0,.12-.07.2-.08-.28.1-1.3,0-1,.21-.75-.11-1.45.11-2,0-.4.27-1.3-.12-1.43.26.06-.39-1.33-.31-1.81-.13.16-.12-.42-.12-.23-.28-.55,0-1,.08-.95.28-1-.47-2,.38-2.6-.22-1.63.22-3.13.36-4.6.46,0-.39,1.62,0,1.56-.45a17.46,17.46,0,0,1-3.57.41c-.36-.05.2-.17.32-.24-1.38.17-2.68,0-3.91.19,0,0,.13-.08.26-.11-.24,0-.57,0-.54.13l.24,0c.39.25-1,.53-1,.67.41-.51-1.22-.12-.57-.76-.16,0-.36.11-.32.23-.24,0-.31-.1-.07-.24-.87.1-.56.29-1.35.29,0-.09.16-.12.24-.22a2.64,2.64,0,0,1-1.47.26s0-.11.16-.11a18.24,18.24,0,0,1-3.21.29c.37-.37-.42-.12-.49-.44l-.68.09.27.16a9.44,9.44,0,0,1-1.62.13l.44-.14-1.11.07.63.12c-.6.16.06.4-.72.32.16,0-.6,0-.91-.19h0a1.89,1.89,0,0,1-1,.13c-.11-.1.09-.36,0-.42-.29.26-1.39.07-1.75.36a.21.21,0,0,0,.09-.27l-.25.22c-.27-.07-.31-.1-.27-.24-.82,0,.27.41-.71.24.07,0,0,0,.2-.09-1-.09-1.9.15-2.81,0-.27-.32.79-.08.49-.35-1.31.06-2.7.39-4,.32l.23,0c-.17.45-.94-.22-1.57,0,.15,0,.2-.25.16-.2a18.3,18.3,0,0,0-3.08.26l.17-.11c-.51-.11-1.34-.06-1.89-.11-.17.12-.48.1-.29.27-1.7-.66-3.23.36-4.74-.19.18,0,.43-.1.29-.1l-1.28.11c.1.2.16.12.43.28a1.72,1.72,0,0,1-.84.21c.58-.14,0-.32-.25-.43,0,.06,0,.13,0,.19-.67-.35-.11.4-1,.16l0-.1a4.34,4.34,0,0,1-1,.16c-.15-.23.37-.11.39-.29-.52,0-1,.43-1.49.21.22-.07.54-.07.76-.13a1.81,1.81,0,0,0-.95-.25h0l-.87-.12.22.07c-.65.6-1.32.12-2.19.51.85-.37.14-.21.2-.47-.22-.08-.56-.16-.46-.23-.42.21-.69-.16-1.27.15,0-.09-.45,0-.35-.22-.54.07.12.14.08.25-.83.29-1.95-.34-3.13.06-1,.16-1.22.44-2.17.59-.32-.14.26-.31.26-.31a3,3,0,0,0-1.4,0c.1-.07,0-.13-.15-.23-.39,0-.26.31-.78.19a1.34,1.34,0,0,1,.39-.34c-.46.08-.91.23-1.39.31-.13-.14.29-.22.46-.32-.54.07-1.4.14-1.56.37l.34.08c-.19,0-.1-.2.05-.24.46-.18.66.08.69.16l-.34.06c.35.49,1.36-.08,2.05-.06l-.29.36.71-.3c.15.09.25.29-.09.35.49.17.44-.13.86.06,0,0,0,0,0,.07l.48-.11c-.09.07.08.25-.21.2.86.2,1.39-.27,1.71,0l-.07,0c1.19-.12.11-.26,1-.57l.61.64.11-.26c.13,0,.37,0,.33.13.45-.18-.08-.11.18-.28.6.24,1.64-.12,1.77.3.22-.2-.56-.15.07-.29.18.45.73-.08,1.28.12-.17.23-.68.11-.14.32.32-.4,1.06.08,1.51,0,0-.31,1-.13,1.76-.24a15.35,15.35,0,0,0,2.16.28l0,0c.14-.31.88-.25,1.41-.32,0,.19-.11.26-.4.35h.5a1,1,0,0,1,.6-.2l-.12.24a9,9,0,0,1,2.21-.13c.05-.22-.69-.61.23-.76,0,.12.07.32-.17.37a.93.93,0,0,1,.43-.05l-.36.21c.39.08.2-.17.52-.15,0,.17.23.12.19.25s-.28-.07-.4,0a2.13,2.13,0,0,1,.93.25c0-.09,0-.22.26-.25.67,0,.23.21.62.29.16-.12.59,0,.6-.25.2,0,.23.12.31.19.35-.11,1.62,0,1.23-.31h-.09l.06,0h0c1.14-.25,2.36.14,3.49,0v.08a12.77,12.77,0,0,0,2-.24c.2,0,.47.15.39.25a2.85,2.85,0,0,1,1.32,0c-.52.15.18.13-.53.11a2.62,2.62,0,0,0,1.54,0c-.25.22.5.27.82.21l-.47-.16a6.49,6.49,0,0,1,1,0L42,55.8c1.37.35,2.47-.6,3.51,0,.37-.2-.74-.14-.42-.37a9.26,9.26,0,0,1,1.49.44c.86.16.8-.41,1.71-.31-.12-.1-.23-.37.45-.47s.77.42.38.51c-.15,0-.23,0-.22-.06-.2,0-.47.08-.22.19l.08-.1c.31.1,1.18.09,1,.26.47-.1.2-.17-.15-.22.81.14,1.26,0,2.1.09-.14-.05-.26-.17-.13-.17,1.22.12.54-.2,1.37-.24.47.15-.17.37.66.24.51.1.11.27-.09.35a4.44,4.44,0,0,1,1.85.16l-.4.08a2.94,2.94,0,0,1,.64,0l-.23-.2c.23,0,.43,0,.43.12.24-.13-.19-.34.29-.52.31.1.95-.12,1.06.15-1-.08.11.28-.72.32A1.69,1.69,0,0,1,57,56s0,0-.1.07c.95.24.44-.31,1.41-.31-.12.16.23.29.39.26-.39,0-.19-.26.17-.37.63.11.68-.09,1-.08l-.37-.06c.12-.15.43-.13.87-.18,0,.12-.4.08-.24.14.48-.27,1.1.27,1.77.09.32.1,0,.28.31.35.75-.2.82.21,1.61,0-.23-.2-.27-.15.29-.35l-1.3.15.84-.3c-.4,0-.84.13-1.07.09.39-.17.35-.11.16-.28.55.3,1.08-.19,1.7,0l0,.51c.94.22,1.67-.27,2.89-.14L67,55.55c.16-.2.75,0,1.15-.11,0,.16.21.23.38.33,0-.13.89,0,1-.33l.54.22c1,.09,1.13-.48,2.07-.43-.28.19.15.3-.49.44.32,0,.61,0,.61-.09.18.11.88-.23,1.17-.07.13-.07.17-.25.53-.24a.06.06,0,0,1,0,.08c0-.08.55-.11.24-.3,1,.53,2.72,0,3.57.41.69-.06,1.52-.12,2.15-.13,0,.05,0,.08-.12.06.86.16.53-.48,1.51-.31.5.27-.52.15-.21.25.14.56,1.19-.08,1.84.25l-.16,0c.49.2,1.21-.19,2-.08a.06.06,0,0,0,0,.08,5.11,5.11,0,0,1,2.39-.09c-.28.16-.36,0-.27.28.33.05,0-.38.67-.25.19.17.62.43.58.68L87.51,56c.21.38.76.25,1,.44l-.1.1c.82.38,1.07.1,1.81.76V57.2c.64.18.2.45.72.74-.06.11-.12.22-.19.33a4.09,4.09,0,0,1,1.09,1.64c-.31-.33-.69-1-1.05-1.31a9,9,0,0,0,.68,1.19,1,1,0,0,1-.19-.42A2.07,2.07,0,0,1,92,61c-.33-.06-.37.39-.5.88s-.47,1-.79.94l-.19.28a.44.44,0,0,1-.15.12h-.27l-.54,0c-.72-.05-1.46-.12-2.27-.1.57.51-.48,0-.38.54-.37,0-.52,0-.55,0l-1.15-.31c-.27-.15.36-.11.33-.23-.83,0-.35-.22-.9-.36.11.19-.29.27-.76.2l.67.24c-1.16.28-1-.44-2.17-.16l.37-.17c-.6.1-2.2,0-2.79.43-.11-.06-.25-.2,0-.24-1.43-.06-3.18.46-4.29.2l.11-.13c-.27,0-.47.24-.8.11,0-.05.1-.12,0-.13a2.56,2.56,0,0,1-1.06.15l.3-.14c-1.39-.17-2.14.35-3.3.45,0-.38-1.1-.5-1.65-.56l0-.06A30.18,30.18,0,0,0,65,63.4c-.94-.41-3.16-.17-4.66-.39.22.07,0,.29-.31.33s-1,.27-.91-.08h.12c-.26-.34-1-.25-1.55-.26l-.09.46c-1.48-.66-3.87.25-4.68-.34-.36.11-.8.11-1.15.23l0-.25a21.69,21.69,0,0,0-2.7,0l.25-.18c-.69,0-.87.71-1.51.72l-.19-.36a13.15,13.15,0,0,0-3.6,0c0-.06,0-.16.25-.18-.57,0-2.19-.24-2,.26,0-.32-1.24,0-1.89.12l.1-.24a2.4,2.4,0,0,1-1.33.47c-.18,0-.16-.19.08-.13-.6-.12-.47.23-1.2.11l.27-.16a1.17,1.17,0,0,0-.91.25c-.39.09-1.18-.06-1.27-.28a.85.85,0,0,1-.79.25c0-.08.09-.13.15-.16-1-.16-1.54.29-2.26,0,0-.08-.06-.11-.12-.14.83,0,1.49,0,1.43,0,0-.22-.67-.25-.14-.56a5.36,5.36,0,0,1-2.1.43.2.2,0,0,1-.08-.08l.07,0a1,1,0,0,0-.42,0,2.41,2.41,0,0,0-.53-.07c-.08-.18-.77-.1-1.1-.1,0,.24-.41.2,0,.4-.05,0,.06,0,.28,0a.66.66,0,0,0,.15,0l0,0h.83a1.1,1.1,0,0,1-.9.09,4,4,0,0,1-.47.39c-.45-.33-1.33-.51-1.45-.72-1,.14-2.39.09-3,.55-.29.06-.33-.13-.44-.2.17,0,.37,0,.46-.11-.58.12-1.71,0-1.85.37-.73-.14.41-.29-.59-.24l.13-.09c-2-.5-3.19.81-5.37.17.15,0,.23.06.26.11-2.47-.3-5.16.32-7.54-.2-.66-.14-.74.05-1.17.15l-.1-.28c-.24.06-.48.12-.73.16a1.84,1.84,0,0,1-1.2-.63A5.68,5.68,0,0,0,7,62.58a2.81,2.81,0,0,0-.61-.42.83.83,0,0,0,0,.22c-.3-.29-.84-1.07-.61-1.1,0,0-.23-.05-.19-.25L5.7,61a3.22,3.22,0,0,1-.41-1c0-.41.21-.35.32-.35s.22-.06.38-.47c0-.16.06-.39.1-.61s.11-.39,0-.37-.36.23-.47.17A1.63,1.63,0,0,1,5.88,58c-.1-.18-.14-.41-.29-.53s-.48-.15-1,.42a3.3,3.3,0,0,0-.18,1l-.26.27a3.54,3.54,0,0,1,.23-.83,1.09,1.09,0,0,0-.19,1.12.53.53,0,0,0-.24.4,4.69,4.69,0,0,0,.47.89c-.12.14-.39-.35-.34.28.28.37.24-.47.53.16,0,.46-.21.41.14.81,0,.11-.17,0-.29-.13.28.38.66,1.06,1,1.09a1.54,1.54,0,0,0,.62.72c.26.21.46.34.34.5a7.85,7.85,0,0,1,1.2.23c-.42.07-.08.24.34.38s.9.26.76.47c.61-.26,1.89.09,2.76-.13,0,0-.14.1-.22.07a3.89,3.89,0,0,1,.93.25c.07-.34.8-.42,1.19-.63.58.33-.35.4-.16.71,0-.27,1-.27.8-.5.44.2.38.1.6.38.08-.43.41-.08.78-.34.63.21.16.4.86.27C16.54,65.53,15.92,65.68,15.92,65.68Zm16.61-.78h-.34Zm1.4,0h-.61c0-.09,0-.17.15-.17C33.39,64.78,33.72,64.83,33.93,64.9Zm-3-1.67c.22,0,.3,0,.33.06l-.39,0,0,0A.54.54,0,0,1,31,63.23Z"/><path class="cls-1" d="M30.57,63.55l-.09,0,.14,0,.07-.08Z"/><path class="cls-1" d="M32.68,55.31h0s-.05,0-.06,0Z"/><polygon class="cls-1" points="53.21 65.31 53.21 65.25 53.09 65.3 53.21 65.31"/><path class="cls-1" d="M25,54.51a.29.29,0,0,0-.1-.06Z"/><path class="cls-1" d="M21.67,54.46l-.47-.08A2.87,2.87,0,0,0,21.67,54.46Z"/><path class="cls-1" d="M19.11,54.35a.34.34,0,0,0-.05.11h0Z"/><path class="cls-1" d="M59.72,53.94h.1C60.05,53.89,59.89,53.9,59.72,53.94Z"/><path class="cls-1" d="M47.64,54.55a2.4,2.4,0,0,1,.38-.12C47.81,54.41,47.64,54.41,47.64,54.55Z"/><polygon class="cls-1" points="73.21 53.61 73.21 53.62 73.29 53.62 73.21 53.61"/><path class="cls-1" d="M48.59,54.43a1.55,1.55,0,0,0-.57,0A1.82,1.82,0,0,0,48.59,54.43Z"/><path class="cls-1" d="M8,54.28H7.92l0,0Z"/><path class="cls-1" d="M7.9,54.31l-.13,0C7.83,54.33,7.89,54.33,7.9,54.31Z"/><path class="cls-1" d="M7.48,54.4l.29-.06A.36.36,0,0,0,7.48,54.4Z"/><path class="cls-1" d="M11.42,54.38l0-.09A.19.19,0,0,0,11.42,54.38Z"/><path class="cls-1" d="M12.45,54.35a3.33,3.33,0,0,0-1-.13l0,.07C11.62,54.16,12.22,54.5,12.45,54.35Z"/><path class="cls-1" d="M16.74,55.42l-.86-.07c.15.09.35.22,0,.24C16.93,55.87,15.61,55.38,16.74,55.42Z"/><path class="cls-1" d="M19.41,55.55c-.46,0,0,.13,0,.18C19.69,55.65,19.76,55.63,19.41,55.55Z"/><path class="cls-1" d="M38.7,55.49l0,.22C39,55.67,38.66,55.62,38.7,55.49Z"/><polygon class="cls-1" points="42.39 54.34 42.04 54.2 41.88 54.41 42.39 54.34"/><polygon class="cls-1" points="44.57 55.9 44.42 55.93 45.01 55.85 44.57 55.9"/><path class="cls-1" d="M77,55.72l-.11-.27C76.62,55.5,76.57,55.8,77,55.72Z"/><path class="cls-1" d="M90.07,57.38a.69.69,0,0,0,.4.56C90.31,57.72,90.2,57.45,90.07,57.38Z"/><polygon class="cls-1" points="56.91 63.13 57.2 63.03 56.66 63.11 56.91 63.13"/><path class="cls-1" d="M52.8,12.61c-1-4.24-7-5.74-10.59-3.27s-4.71,7.45-3.87,11.72a10.69,10.69,0,0,0,2.42,5.19c3.13,3.36,9.2,3,12.21-.52s2.8-9.12-.09-12.69"/><path class="cls-1" d="M53.48,12.55c-.1,0-.26.2-.17.24l.34-.19Z"/><path class="cls-1" d="M53.27,13.47a1.46,1.46,0,0,0,.81-.37,5.08,5.08,0,0,0-.69.18c-.08,0,0-.2.14-.27-.1,0,0-.17-.24-.06-.17.28-.1.4.19.37C53.43,13.4,53.33,13.43,53.27,13.47Z"/><path class="cls-1" d="M54.43,21.37l.06-.05A.1.1,0,0,0,54.43,21.37Z"/><path class="cls-1" d="M52.14,25.51s0-.07,0-.1S52.11,25.49,52.14,25.51Z"/><path class="cls-1" d="M51.29,25.72h.05S51.28,25.69,51.29,25.72Z"/><path class="cls-1" d="M54.43,21.37l-.14.1C54.41,21.5,54.39,21.42,54.43,21.37Z"/><path class="cls-1" d="M54.71,14a.25.25,0,0,0-.13,0l.08,0Z"/><path class="cls-1" d="M54.27,19.22v0l-.16,0Z"/><path class="cls-1" d="M54,17.63s.32,0,.46,0c-.14,0-.2,0-.24,0Z"/><path class="cls-1" d="M53.71,15l-.06,0Z"/><path class="cls-1" d="M54.18,20.37h0Z"/><path class="cls-1" d="M53.2,9.88l-.05,0S53.21,9.89,53.2,9.88Z"/><polygon class="cls-1" points="52.72 12.63 52.7 12.61 52.52 12.65 52.72 12.63"/><path class="cls-1" d="M49.94,26.11h0C50,26.06,50,26.07,49.94,26.11Z"/><path class="cls-1" d="M40.05,22.24c-.24.24-.44-.13-.68.2C39.49,22.38,39.92,22.48,40.05,22.24Z"/><path class="cls-1" d="M54.7,14.06l0,.07A.11.11,0,0,0,54.7,14.06Z"/><path class="cls-1" d="M39.37,22.44h0l0,0Z"/><path class="cls-1" d="M47,27.14c0,.05,0,.1,0,.14A.3.3,0,0,0,47,27.14Z"/><path class="cls-1" d="M49.48,27.05l-.08,0A.15.15,0,0,0,49.48,27.05Z"/><path class="cls-1" d="M45.76,27.59s0-.08-.08,0,0,0,0,0S45.73,27.53,45.76,27.59Z"/><path class="cls-1" d="M44.45,27.36v.07h0Z"/><path class="cls-1" d="M48.5,7.05a1,1,0,0,1,0,.3C48.54,7.12,48.82,7.1,48.5,7.05Z"/><path class="cls-1" d="M54.55,14.09c.08,0,.12,0,.15,0l0,0A.23.23,0,0,0,54.55,14.09Z"/><path class="cls-1" d="M45.47,30.16l-.28-.07A.82.82,0,0,0,45.47,30.16Z"/><path class="cls-1" d="M38.1,12.2v-.07S38.08,12.17,38.1,12.2Z"/><path class="cls-1" d="M44.35,30a.49.49,0,0,0-.11-.26s0,0-.05.08Z"/><path class="cls-1" d="M48.51,7.35Z"/><path class="cls-1" d="M50.54,7.27c-.25-.13-.3.33-.46.53-.34,0,0-.35,0-.6-.23,0-.52.33-.65.27s0-.11.05-.18c-.31.26-.6-.2-1,.18V7.35a2.83,2.83,0,0,1-.11.59c-.11,0-.26.22-.23-.07.06,0,.09-.08.14-.16l-.14.09c0-.42.19-.1.26-.39-.27.08-.58.33-.73.2,0-.4.43-.05.26-.45l.24.21c-.08-.66.16.09.11-.61-.36-.21-.46.11-.83-.06-.11.21,0,.33-.12.54-.54.33-.33-1-.77-.53-.11.26-.15.76-.42.49l.09-.45c-.37,0-.19.64-.58.37.06-.18.28-.17.22-.22-.26-.34-.16.26-.34.28l-.07-.39c-.4.07-.78.45-1.17.59,0-.12,0-.25-.08-.35a3.51,3.51,0,0,1-1.76.3l0,.4s-.15-.11-.13-.19c-.26,0,.08.2,0,.36s-.22-.09-.21-.22c-.21.45-.56,1.06-1.06,1V8.56c-.33.08.17.74-.22.67V9.15c-.57.31-.79,1-1.49,1,.33.38-.56.38,0,.81-.48.09-.52-.06-1,.26-.1.1.26.39.25.56l-.32-.17.23.38L38.09,12v.18c0-.05.2-.05.29,0,0,.28-.49.41-.66.35l.06.64c-.13-.06-.14-.17-.19-.27.22.42-.38-.09-.17.29.09,0,.19.1.26.13-.26.05-.36.36-.35.61l-.22-.12a6.31,6.31,0,0,0-.25,1.36c.15-.14.56,0,.57.13l-.38,0c.22.13.17-.11.42.12-.08.16-.45,0-.55-.09l.09.23c-.12,0-.17-.07-.31-.11.22.13-.44.3-.06.5h-.11a6.48,6.48,0,0,0,0,1.09c.33,0,.25.18.5.31-.12.26-.4.56-.37.9s.28.07.47.17c-.29,0-.27.35-.48.18a2.16,2.16,0,0,0,.34,1c.12-.06.17-.12.28-.1s-.11.21-.26.21l0,0c.49.49-.7,1.43,0,1.78l0,0,.41.38c0,.22-.25-.07-.39.13.6.37.13.8.57,1.11-.74.6.45,1.07.13,1.7l.17-.11c.24,0,0,.18,0,.28.14-.08.12-.19.25-.18.64.77.74,2,1.4,2.93.27.33.92-.61.94.09L40,27.9c.88.2,1.33,1,2.21,1.05-.08.06-.13.16-.2.12,0,.34.56.26.64.05.1.07-.06.21,0,.34s.51-.17.5.11c0,.05-.08.07-.11.08.14-.09.46.18.46-.15.24.22.56,0,.73.24.22-.32.45.27.58-.23-.11.53.43.5.63.26-.07.15.14.18,0,.39.21,0,.4-.07.38-.34.36.65.74-.5,1,.31.6-.32,1.11-.56,1.59-.79.08.52-.56.16-.46.7.49-.32.67-.78,1.17-.8.14,0,0,.24,0,.34.43-.34,1-.24,1.27-.68,0,0,0,.11,0,.17s.22,0,.12-.23l-.06.09c-.26-.27,0-.79,0-1,.16.69.44,0,.62.85a.39.39,0,0,0,0-.34c.1,0,.17.07.17.28.22-.27,0-.44.25-.56.06.1,0,.16.07.3,0-.26,0-.53.27-.58,0,.07.1.13,0,.17.33-.26.24-.87.69-1,.22.48.23,0,.53.35l.1-.25-.21-.1c.17-.12.07-.5.3-.52v.24l.22-.34-.27,0c0-.3-.41-.37-.14-.47,0,.07.14-.13.4,0h0c0-.17-.1-.34.08-.39s.36.32.44.36c-.22-.3.23-.44,0-.77a.81.81,0,0,0,.29.23l-.2-.23c.13,0,.17,0,.32.1.2-.22-.51-.23-.14-.38,0,0,.06,0,.06.12.3-.22.18-.65.44-.86.43.12,0,.3.35.37.15-.45-.08-1.07.16-1.43l-.07.06c-.56-.26.4-.2.18-.51,0,.07.31.17.25.14.17-.27,0-.64-.09-1.11l.15.09c.17-.14.17-.44.27-.61-.15-.08-.11-.18-.35-.15.48-.22.39-.53.27-.8s-.29-.52.1-.78c0,.06.13.15.13.1s-.1-.29-.15-.44c-.27.05-.16.07-.37.16s-.29-.16-.3-.26c.19.18.43,0,.58-.12a2.26,2.26,0,0,1-.26,0c.47-.25-.54,0-.24-.32h.15c-.08-.11-.29-.19-.26-.31.3-.09.16.1.41.08,0-.18-.63-.26-.34-.45.1.05.11.16.21.22.34-.22.24-.23.28-.37v0c0-.11.09-.22.12-.33l-.08.1c-.85-.07-.24-.41-.82-.57.55.15.29,0,.64-.09.08-.1.16-.24.26-.23-.3-.07.15-.3-.31-.38.11,0,0-.14.25-.2-.14-.15-.17.1-.31.13-.45-.15.24-.8-.42-1-.33-.25-.72-.14-1-.33.11-.17.41-.1.41-.1a.3.3,0,0,0-.2-.42c.1,0,.16-.09.25-.19-.09-.11-.41.12-.35-.11a1.79,1.79,0,0,1,.47-.11c-.18-.09-.44-.12-.61-.2.15-.14.31-.07.45-.09-.18-.11-.4-.32-.69-.19l0,.16s.21-.18.28-.16c.29,0,0,.25-.06.31l-.12-.05c-.51.45.32.32.41.54l-.48.16a3.49,3.49,0,0,1,.46,0c-.09.1-.31.25-.42.19-.15.25.21.05,0,.29a.09.09,0,0,1-.08,0l.2.07c-.11,0-.3.17-.28.06-.13.35.53.23.22.48h0c.28.28.34-.11.83,0l-.75.49.35-.09s0,.12-.14.16c.28.05.14-.08.39-.08-.26.28.29.46-.24.66.28,0,.15-.23.39-.09-.58.22.18.19-.06.43-.32,0-.19-.17-.43.06.54,0,0,.34.08.45.42-.08.25.26.41.47-.15,0-.16.47-.3.7h-.07c.43,0,.36.23.46.39a.76.76,0,0,1-.48-.09v.14a.38.38,0,0,1,.27.17l-.32,0c0,.19.37.4.15.65.3,0,.84-.19,1,.11-.16,0-.44,0-.5-.07s.13.09.06.14L54.69,20c-.12.11.23.07.2.17-.23,0-.17.06-.35,0,0,0,.1-.08,0-.12a.51.51,0,0,1-.37.25c.13,0,.31,0,.33.1s-.28.05-.41.15c.15.06,0,.17.31.21,0,.06-.16.05-.26.06.15.12,0,.48.35.43l0,0v0h0c.27.42-.33.67-.29,1l-.11,0c.08.24-.06.46.12.68,0,.06-.25.06-.37,0,0,.18.14.25-.12.38-.13-.22-.18,0-.08-.2-.16.15-.35.09-.16.42-.23-.19-.4,0-.36.08l.25,0a.43.43,0,0,1-.13.25L53,23.64c-.59.08.32,1-.51.83.16.24.29,0,.49.2-.16.12-.72-.07-.75,0-.31,0,.32.55,0,.63.13.07.43.29.38.53s-.58-.24-.58-.4.07,0,.1,0a.19.19,0,0,0-.15-.22l.09.11c-.16,0-.32.15-.44-.06,0,.19.12.21.24.19-.29,0-.25.24-.52.28.08,0,.21.14.18.16-.38.08,0,.3-.11.5-.23-.08-.25-.42-.35-.15-.2,0-.23-.29-.25-.41,0,.33-.42.06-.53.08l0-.15a.2.2,0,0,1-.1.14l.19.21c-.08,0-.12,0-.18-.08,0,.19.28.37.28.65-.15-.08-.17.26-.37-.05.3,0-.2-.32,0-.47,0,.06-.06.08-.14.06a.08.08,0,0,1,0-.09c-.37-.18.09.42-.16.53-.05-.2-.21-.32-.23-.27s.19.3.16.48c-.23-.09-.14.18-.23.2l.13,0c0,.2-.06.21-.15.32-.07-.15.07-.15,0-.2,0,.4-.42-.23-.53.05-.12-.11-.12-.37-.22-.44-.13.32-.29-.21-.44.06.13.25.13.19,0,.49l.3-.29-.12.46c.11,0,.18-.24.26-.21,0,.25-.06.18.06.39-.26-.36-.25.33-.5.09l-.15-.68c-.31-.26-.38.46-.76.31l.12.11c0,.28-.21.06-.31.18a.91.91,0,0,0-.15-.44c0,.16-.24,0-.25.46l-.17-.3c-.27-.13-.32.66-.61.58.1-.25,0-.41.17-.59-.09,0-.17-.05-.18.1,0-.14-.27.29-.33.06,0,.1-.09.34-.19.31a.28.28,0,0,1,0-.11c0,.11-.18.14-.12.4-.18-.75-.84-.09-.94-.76a2.72,2.72,0,0,1-.64,0c0-.06,0-.11.07-.08-.16-.29-.38.56-.57.22,0-.4.22-.12.19-.29.27-.71-.36,0-.33-.52l.06,0c0-.29-.43.09-.61-.07l.06-.1a1,1,0,0,1-.93.1c.24-.19.18-.06.33-.32-.11,0-.27.4-.5.34a1.25,1.25,0,0,1,.23-.64l.15.11c.2-.38-.18-.15-.21-.27l.14-.13c-.24-.15-.59.19-.78-.08l-.08.12c-.46.16.1-.28-.28-.2l.33-.33a2.11,2.11,0,0,1-.8-.19,3.34,3.34,0,0,1,.89,0,.46.46,0,0,0-.47-.2c.06,0,.18,0,.15.07-.37.1-.64,0-.75-.17.78-.43-.12-.65.43-1.12-.47-.21-.19-.76-.39-1.17-.6.38-.06-.12-.73.13-.08-.09-.08-.14,0-.16l.31-.45c.18-.14.18.05.33,0,0-.24.26-.18.4-.38-.24.1-.37,0-.31-.13l-.27.26c-.46-.23.51-.42.07-.66l.24.06c-.17-.14-.12-.61-.71-.68.08-.05.26-.12.32-.05,0-.4-.72-.84-.4-1.2l.18,0c-.06-.07-.34-.12-.16-.22s.17,0,.18,0-.32-.19-.22-.3l.2.08c.21-.4-.48-.61-.6-1a.83.83,0,0,0,.8-.43h.07c.09-.44-.35-.82-.47-1.29.59-.17.42-.85.84-1.17a.49.49,0,0,1-.4-.21c.13-.07-.25-.38.19-.22l0,0c.46.08.4-.15.48-.29L39.85,14c.51,0,.51-.31.55-.57s0-.53.44-.42c-.08-.16,0-.27-.1-.43l.28.18a1.41,1.41,0,0,0,.45-.58l.15.2c.12-.13-.62-.77-.52-.93l.42.28c.22-.26.73-.19.66-.73,0,.06.14.17.11.22.12-.1.64-.12.18-.61.28.35.29-.16.33-.43l.16.28c-.11-.42-.17-.52,0-.73.06,0,.17.21.07.17.23.06,0-.34.22-.29l0,.22c.16-.07.1-.15.08-.41s.35-.06.48.2c0-.17,0-.44.08-.4a.34.34,0,0,1,0,.22c.34.12.31-.49.59-.25a.43.43,0,0,0,.08.18c-.22.06-.4.1-.39.07.1.28.27.29.27.72.05-.24.15-.82.37-.7a.51.51,0,0,1,0,.1v0c.05,0,.08,0,.1-.06a.32.32,0,0,0,.16.06c.06.24.21.09.3.09,0-.32.08-.28-.07-.54,0,0,0,0-.07.07s0,0,0,0v0L45,9.27c0-.18.1-.33.23-.17a4.13,4.13,0,0,1,.06-.54c.2.44.46.67.51.95.26-.23.62-.13.84-.75.1-.07.09.18.11.28s-.1.05-.13.14c.17-.17.48,0,.57-.44.19.22-.17.38.13.35l-.06.12c.22.36.46.17.76,0s.62-.3.77.21a.33.33,0,0,1,0-.17,2.17,2.17,0,0,0,1,.5,2,2,0,0,1,.48.27.89.89,0,0,1,.26.52c.07.21.26,0,.49,0l-.22.28.44-.13c.47,0-.38.92.29.87l.18-.16c0,.12.32.31.07.41,0,0,.24-.07.15,0l-.16.08a3.83,3.83,0,0,1,.43.17c-.05.29-.69.24-.63.56a1.29,1.29,0,0,0,.74.13c0-.06.06-.17.24-.22l.14.11c.53-.11,1.12-.08,1.36-.6l-.41-.19.22-.18.09.24c.2-.21,0-.24-.22-.28a.42.42,0,0,0,.23-.23,5.6,5.6,0,0,0-.59-.07c.17-.12.44-.05.46-.28-.28,0-.38.31-.62.18.16-.23.36-.29.1-.34a.28.28,0,0,1,.29-.06c-.22-.06-.24-.34-.54-.24.18-.29-.35-.36.08-.65a.91.91,0,0,1-.57-.07c.64-.2-.32-.39.21-.79-.53.24-.66-.32-1.12-.28,0,0,.13-.07.13,0-.11-.15,0-.31-.09-.47-.29.34-.57.26-.85.43.06-.48.41-.38.59-.76-.2.31-.54.1-.63.4,0-.32-.06-.18.06-.56-.31.49-.18,0-.47.25-.09-.35.18-.51-.14-.46C50.23,7.35,50.54,7.27,50.54,7.27Zm-6.19.22h0l.12,0Zm-.49.14.22,0c0,.1.05.22,0,.23S44,7.7,43.86,7.63Zm1.39,2c0,.06-.08,0-.1-.07a.31.31,0,0,0,.1-.05v.12Z"/><path class="cls-1" d="M45.29,9.2s0,0,0,0l0-.07v.11Z"/><path class="cls-1" d="M54.5,21.32h0Z"/><polygon class="cls-1" points="38.22 11.62 38.29 11.66 38.25 11.59 38.22 11.62"/><path class="cls-1" d="M55.75,18.91a.12.12,0,0,0,.08,0Z"/><path class="cls-1" d="M55.7,17.78l.09-.17A.71.71,0,0,0,55.7,17.78Z"/><path class="cls-1" d="M55.69,16.89l-.14,0h0Z"/><path class="cls-1" d="M50.35,29.07s0,0,0,0S50.31,29.14,50.35,29.07Z"/><path class="cls-1" d="M53.38,26a.75.75,0,0,1,0,.2C53.48,26.18,53.52,26.14,53.38,26Z"/><polygon class="cls-1" points="45.5 30.17 45.5 30.16 45.47 30.16 45.5 30.17"/><path class="cls-1" d="M53.27,26.35a.13.13,0,0,0,.14-.13C53.35,26.25,53.27,26.28,53.27,26.35Z"/><path class="cls-1" d="M54.32,13.3v-.05l-.05,0Z"/><path class="cls-1" d="M54.26,13.28l0,0S54.23,13.29,54.26,13.28Z"/><path class="cls-1" d="M54.08,13.22l.13,0S54.17,13.18,54.08,13.22Z"/><path class="cls-1" d="M54.77,14.4l.12,0A.54.54,0,0,0,54.77,14.4Z"/><path class="cls-1" d="M55,14.71c0-.09.14-.31,0-.38l-.09,0C55.07,14.33,54.75,14.72,55,14.71Z"/><path class="cls-1" d="M54.1,16.54v-.29c-.11.09-.25.2-.31.1C53.53,16.78,54.05,16.19,54.1,16.54Z"/><path class="cls-1" d="M54.13,17.36c-.09-.12-.18,0-.25.05C54,17.47,54,17.48,54.13,17.36Z"/><path class="cls-1" d="M53.76,23l-.27-.13C53.49,23,53.59,22.9,53.76,23Z"/><polygon class="cls-1" points="54.66 24.71 54.87 24.69 54.66 24.5 54.66 24.71"/><polygon class="cls-1" points="52.48 24.17 52.47 24.11 52.48 24.31 52.48 24.17"/><path class="cls-1" d="M44.74,27.14l-.05.37C44.77,27.45,44.87,27.05,44.74,27.14Z"/><path class="cls-1" d="M41.29,25.56c.11-.16.13-.31,0-.25C41.27,25.4,41.23,25.56,41.29,25.56Z"/><polygon class="cls-1" points="40.36 13.98 40.44 14.1 40.4 13.92 40.36 13.98"/><path class="cls-1" d="M27.06,50.36c1.5-5.87,4.1-11.71,8.83-15.81s11.93-6.07,17.82-3.64c7.23,3,10.18,11.14,10.95,18.52l-37.82,0"/><path class="cls-1" d="M26.84,48.61c-.05.11,0,.36.12.31l.1-.42Z"/><path class="cls-1" d="M27.79,49.39a1.06,1.06,0,0,0,.25-1c-.16.41-.2.24-.38.72-.14.05-.25-.14-.22-.29-.05.11-.22-.09-.3.17.18.33.42.34.66.07C27.86,49.2,27.81,49.31,27.79,49.39Z"/><path class="cls-1" d="M41.68,50l-.09,0A.13.13,0,0,0,41.68,50Z"/><path class="cls-1" d="M50.28,50.27a.11.11,0,0,0-.1.09C50.24,50.33,50.29,50.3,50.28,50.27Z"/><path class="cls-1" d="M51.75,50.73l-.09,0S51.73,50.76,51.75,50.73Z"/><path class="cls-1" d="M41.68,50l.23.13C41.92,50,41.79,50.07,41.68,50Z"/><path class="cls-1" d="M29.71,48.37a.33.33,0,0,0-.13.11l.12,0Z"/><path class="cls-1" d="M37.89,50.39h-.07a1.62,1.62,0,0,0-.06.17Z"/><path class="cls-1" d="M35,50.45c.06,0,.08-.34.11-.5a.39.39,0,0,1-.14.25A.59.59,0,0,0,35,50.45Z"/><path class="cls-1" d="M30.36,49.83l-.08.05Z"/><path class="cls-1" d="M40,50.46a.23.23,0,0,0,0,.13A.31.31,0,0,0,40,50.46Z"/><path class="cls-1" d="M29.61,47.66l-.06,0S29.6,47.68,29.61,47.66Z"/><polygon class="cls-1" points="26.97 50.34 26.96 50.29 26.77 50.23 26.97 50.34"/><path class="cls-1" d="M54.44,51.19h0C54.35,51.22,54.39,51.22,54.44,51.19Z"/><path class="cls-1" d="M61.19,35c-.08.43-.63-.13-.64.43C60.63,35.35,61.25,35.46,61.19,35Z"/><path class="cls-1" d="M29.78,48.42h.12A.16.16,0,0,0,29.78,48.42Z"/><path class="cls-1" d="M60.55,35.47h0v0Z"/><path class="cls-1" d="M60.63,51a.59.59,0,0,0-.06-.16A.29.29,0,0,0,60.63,51Z"/><path class="cls-1" d="M56,50.46l.11,0A.25.25,0,0,0,56,50.46Z"/><path class="cls-1" d="M63.39,50.46c.1,0,.16.07.26,0l0-.05C63.57,50.49,63.52,50.51,63.39,50.46Z"/><path class="cls-1" d="M65.66,49.17l-.07,0,0,.12Z"/><path class="cls-1" d="M32.44,41a1.23,1.23,0,0,1-.33-.08C32.34,41.06,32.24,41.41,32.44,41Z"/><path class="cls-1" d="M29.71,48.57c0-.09,0-.13.07-.15l-.08,0A.18.18,0,0,0,29.71,48.57Z"/><path class="cls-1" d="M62.39,47.62l.09.06S62.41,47.62,62.39,47.62Z"/><path class="cls-1" d="M45.47,31.57l-.08.05S45.45,31.61,45.47,31.57Z"/><path class="cls-1" d="M62.59,47.62a1.69,1.69,0,0,0,.28.19l-.11-.09Z"/><path class="cls-1" d="M32.1,41h0Z"/><path class="cls-1" d="M31.67,43.54c.17-.31-.34-.36-.55-.55.08-.44.4,0,.68,0,0-.29-.27-.67-.16-.84.08,0,.12,0,.18.09-.19-.43.39-.74.16-1.26l.12,0a2.09,2.09,0,0,1-.58-.29c.08-.14-.09-.42.2-.31-.06.08,0,.15.1.25l0-.22c.45.1,0,.28.29.45,0-.36-.06-.89.19-1,.4.19-.2.57.31.5l-.35.24c.73.11-.17.18.6.33.37-.35.12-.59.5-.94-.13-.23-.31-.17-.45-.4.08-.86,1.22.17,1.07-.59-.15-.29-.55-.67-.08-.79l.3.41c.35-.35-.37-.67.22-.86.08.19-.12.41,0,.39.5,0-.07-.36.1-.56l.37.24c.28-.43.45-1.07.81-1.54.07.12.1.29.29.28A3.09,3.09,0,0,1,37.8,35.3c0-.15,0-.3,0-.46s.19.07.18.17c.3,0-.13-.2-.11-.39s.29.05.28.2c.18-.54.76-1.34,1.4-1.25l0,.14c.42-.05,0-.88.52-.75l0,.09c.82-.27,1.58-1,2.4-.66-.07-.57.87,0,.69-.77.58.2.49.37,1.2.44.18,0,.15-.52.36-.65l.09.38.21-.46.26.43.18-.14a.29.29,0,0,1-.21-.25c.29-.25.84.13.87.33l.73-.42c0,.16-.13.23-.22.34.37-.44.11.4.45,0-.06-.08,0-.23,0-.31a.89.89,0,0,0,.94.09l-.06.27c.55.08,1.18-.12,1.8,0-.21-.15-.12-.61.08-.64l0,.42c.15-.24-.18-.18.11-.46.24.07.1.48-.05.6l.3-.11c0,.13-.07.18-.11.34.15-.24.4.5.64.08V32c.61.1.89.07,1.39.17.12-.34.28-.2.52-.42a5.91,5.91,0,0,0,1,.82c.37,0,.22-.24.44-.37-.11.31.31.47,0,.58a5.09,5.09,0,0,0,1.37.41c0-.15,0-.24.07-.31s.17.26.07.38h-.05c.46,0,.69.52.9.93s.34.86.81.82h0c.24.06.46.15.7.22.16.27-.3,0-.3.34.9.14.66.88,1.3,1.11-.52.91,1,1.28.73,2.14l.18-.14c.27,0,0,.23,0,.36.15-.1.1-.25.25-.23.9,1.07.94,2.65,1.16,4,.11.49,1.21-.08.88.7l-.46,0c.8.85.54,2,1.15,2.95-.1,0-.23,0-.25-.12-.25.27.15.79.39.75,0,.17-.22.08-.33.2s0,.08,0,.08h.12c.08,0,.16.06,0,0a.42.42,0,0,1-.13,0c.16,0,0,.08.35.18-.17,0,.2.32,0,.25.49.48-.3-.13.22.43-.55-.58-.52-.47-.5-.19-.06-.18-.13-.18-.2-.43,0,0,0,.12,0,.42-.09-.18,0-.23-.2-.22a1,1,0,0,0-.38.12c-.24.12-.45.21-.6-.23a15.43,15.43,0,0,1-2.44.66c0-.58.86-.06.82-.67-.74.24-1.16.74-1.89.6-.19-.08.11-.25.17-.35-.74.24-1.42-.05-2.08.26,0-.05.07-.11.14-.15-.13,0-.3-.09-.29.17l.13-.07c.21.38-.51.8-.53,1,.21-.75-.65-.19-.3-1.14a.35.35,0,0,0-.18.35c-.12,0-.16-.15,0-.35-.47.14-.3.42-.72.41,0-.12.08-.17.13-.32-.21.24-.43.49-.78.39,0-.08,0-.18.08-.18-.6,0-1,.66-1.7.42.2-.55-.23-.18-.26-.66l-.36.15.14.23c-.31,0-.59.34-.86.18l.24-.19-.59.09.33.18c-.32.24,0,.6-.38.47.08,0-.32,0-.48-.29h0c-.16.15-.32.31-.55.19-.06-.15,0-.52,0-.63-.15.4-.74.12-.93.54a.75.75,0,0,0,.05-.4l-.13.32c-.15-.1-.17-.15-.15-.35-.43-.06.14.61-.38.35,0,0,0-.08.11-.13-.52-.13-1,.21-1.49.05-.14-.48.42-.12.26-.52-.69.08-1.43.57-2.1.46l.12,0c-.09.68-.5-.33-.83,0,.08,0,.1-.38.08-.3-.46-.11-.93.17-1.63.38l.09-.18c-.27-.15-.71-.08-1-.16-.08.17-.25.14-.15.4-.9-1-1.71.53-2.51-.3.09,0,.23-.15.15-.15l-.68.16c0,.3.09.18.23.41a.53.53,0,0,1-.44.31c.3-.19,0-.47-.14-.64a2.62,2.62,0,0,1,0,.28c-.36-.52-.06.6-.54.25l0-.16c-.18.08-.35.29-.54.24-.09-.34.19-.16.2-.44-.27,0-.54.65-.79.31.12-.1.29-.1.4-.19-.27-.41-.3-.3-.5-.37h0l-.47-.18.12.11c-.34.89-.7.16-1.16.75.45-.56.07-.32.11-.71-.12-.11-.3-.23-.25-.34-.22.32-.37-.24-.68.21,0-.12-.23,0-.18-.32-.29.1.07.22,0,.37-.44.43-1-.51-1.66.07-.54.24-.64.66-1.15.87-.17-.2.14-.45.14-.45a.63.63,0,0,0-.74,0c.05-.11,0-.2-.08-.34-.21,0-.14.46-.42.27a2.13,2.13,0,0,1,.21-.5c-.24.12-.48.35-.74.46-.07-.21.15-.33.24-.47-.28.1-.73.2-.82.54l.18.12c-.1,0-.05-.29,0-.35.25-.27.36.12.37.24l-.18.08c.19.73.72-.12,1.09-.08l-.15.54.37-.44c.08.13.13.43-.05.51.27.26.24-.19.46.1a.08.08,0,0,1,0,.1l.26-.16c-.05.11,0,.37-.12.3.46.3.74-.4.91,0l0,0c.64-.18.06-.39.54-.85l.32,1,.06-.39c.07,0,.2,0,.17.2.25-.27,0-.17.1-.43.32.36.87-.16.94.46.12-.3-.3-.23,0-.44.09.67.39-.11.68.19-.09.35-.37.17-.08.47.18-.58.56.13.81,0,0-.46.52-.19.93-.35,0,.16.77.26,1.15.42v.08c.07-.47.46-.38.74-.48a.59.59,0,0,1-.21.52h.27a.45.45,0,0,1,.32-.29l-.07.35c.36,0,.72-.41,1.17-.18,0-.32-.36-.91.12-1.13,0,.18,0,.48-.09.56,0,0,.15-.15.23-.07l-.19.29c.21.13.11-.25.28-.22,0,.25.12.18.1.38,0,0-.15-.1-.21,0a.72.72,0,0,1,.49.38c0-.14,0-.34.14-.37.35,0,.12.3.33.43.08-.17.31,0,.32-.37.1,0,.12.18.16.28.18-.16.86,0,.65-.45l0,0,0,0h0c.6-.38,1.25.21,1.85.05v.13c.36-.15.8-.09,1.05-.36.11,0,.25.23.21.38.27-.1.3-.24.7,0-.28.22.09.2-.29.16.36.11.44.31.82,0-.13.32.27.4.44.31l-.25-.23a1.3,1.3,0,0,1,.52,0l-.09.43c.73.52,1.31-.88,1.87,0,.19-.29-.4-.2-.23-.55.34,0,.69.66.79.67.46.23.43-.63.91-.47a.53.53,0,0,1,.24-.7c.33.06.41.64.2.76a.09.09,0,0,1-.12-.08c-.1,0-.25.12-.11.28l0-.15c.17.15.63.14.52.39.25-.15.11-.25-.08-.33.43.22.67,0,1.11.15-.07-.08-.13-.26-.06-.26.65.19.28-.29.72-.35.25.23-.09.55.35.35.28.16.06.41,0,.53.4-.29.75.19,1,.25l-.21.12a.6.6,0,0,1,.33-.07l-.12-.3c.13.05.23.05.23.18.13-.2-.1-.51.16-.78.16.15.5-.17.56.24-.52-.14.06.4-.39.47a.36.36,0,0,1,.32,0,.09.09,0,0,1-.05.11c.5.36.23-.46.75-.45-.07.23.12.43.2.38-.21,0-.1-.37.09-.55.33.18.36-.13.54-.11l-.2-.08c.06-.23.23-.2.46-.27,0,.17-.21.12-.13.2.26-.4.59.41.94.14.17.15,0,.43.17.53.4-.29.43.31.85.07-.12-.31-.14-.23.16-.53l-.7.22.45-.45c-.21,0-.44.19-.57.14.21-.25.19-.17.09-.42.29.45.57-.27.9,0v.75c.5.34.89-.39,1.53-.2l-.2-.13c.08-.3.4,0,.61-.16,0,.25.11.34.2.5,0-.19.47,0,.53-.49l.29.33c.55.14.54-.72,1.15-.63-.17.27.13.45-.31.65.19,0,.49,0,.46-.13.2.16.61-.34.91-.1.06-.11,0-.37.22-.35a.31.31,0,0,1,.07.12c-.06-.12.28-.17-.1-.45a2.11,2.11,0,0,0,1.5.34s.14,0,.13,0l0-.17a1.15,1.15,0,0,1,0-.31.35.35,0,0,1,.22-.38c-.15-.59-.31-1.21-.4-1.66.08,0,.13,0,.12.1.13-.65-.8-.41-.62-1,.36-.33.26.24.39.05.81-.22-.23-.61.17-1.06l.07.08c.21-.33-.43-.6-.49-1a.24.24,0,0,0,.13,0,2.46,2.46,0,0,1-1-1.11c.35,0,.22.14.52,0-.1-.17-.5.19-.69-.15.13-.16.2-.47.53-.61l.12.35c.39-.31-.15-.46-.12-.66l.19,0c-.22-.53-.71-.37-.87-.95l-.12.11c-.58-.14.17-.35-.29-.54l.44-.27a6.27,6.27,0,0,1-1-.84,3,3,0,0,1,1.09.59c-.08-.2-.32-.68-.59-.68.08.06.24.11.2.22a1.24,1.24,0,0,1-.95-.72c.91-.34-.24-1.12.26-1.74a1.93,1.93,0,0,1-.65-1,4.4,4.4,0,0,0-.58-1.17c-.44.7-.16-.21-.77.29-.17-.14-.2-.21-.17-.25l0-.79c.09-.27.26.05.39-.07-.25-.42.14-.37.1-.75-.18.23-.41.11-.52-.16a4.7,4.7,0,0,1,0,.53c-.74-.23.11-.87-.66-1.1h.33c-.33-.17-.94-.93-1.61-.69,0-.11.1-.32.25-.26a2.74,2.74,0,0,0-1.19-.64,1.76,1.76,0,0,1-1-.64l.16-.13c-.17,0-.42.16-.49-.1,0-.06.15-.13.1-.18s-.53.08-.65-.13l.26-.09c-.61-.62-1.37-.1-2-.24.22-.52-.33-.92-.62-1.12l0-.07a5,5,0,0,0-2.59.08c-.44-.71-1.78-.48-2.64-.81.13.1,0,.44-.18.49-.2-.12-.54.42-.52-.1h.07c-.17-.5-.6-.34-.93-.34v.68a1.32,1.32,0,0,0-1.49-.1c-.48.2-.9.38-1.22,0-.16.22-.41.28-.56.49l-.08-.35a3.44,3.44,0,0,0-1.5.4l0-.29c-.39.1-.13,1.14-.44,1.29l-.3-.46c-.63.24-1.46.11-1.86.84,0-.07-.08-.22,0-.29-.29.13-1.28.28-.81.86-.25-.42-.64.32-.83.69l-.14-.33c0,.56,0,.65-.24,1-.11,0-.23-.19-.07-.19-.38,0,0,.43-.46.51v-.28c-.3.18-.21.27-.2.59a.55.55,0,0,1-.81.11c.09.19.11.51-.1.56a.25.25,0,0,1-.09-.23c-.61.19-.36.88-.89.88a.43.43,0,0,0-.19-.11A2.85,2.85,0,0,1,35,34c-.22-.25-.54,0-.62-.58-.06.4-.08,1.12-.43,1.28l-.12,0v-.05a.23.23,0,0,0-.12.2.89.89,0,0,0-.29.15c-.22-.16-.41.2-.54.34.28.23.07.37.44.4,0,0,0,0,.06-.15a.32.32,0,0,0,0-.09v0l.31-.34c0,.23,0,.44-.25.45.1.23.21.47.25.59-.53-.16-1.06,0-1.34-.12-.21.57-.75,1.12-.41,1.82,0,.17-.26,0-.38,0s.07-.19,0-.29c-.05.36-.51.8-.15,1.13-.4.21-.23-.43-.47.07l-.08-.14c-.62.24-.61.79-.61,1.31s0,1-.71,1.34c.09,0,.14-.07.21,0-1,1-.86,2.64-2,3.61-.26.31,0,.46.14.75l-.39-.06.28.52c.13.63-1.22.6-.85,1.48h.28c-.13.22-.09.8-.37.68,0,0,.24.15.08.21l-.19,0L27,49c-.28.42-.76-.29-1,.38,0,.28.37.87.53.81a.34.34,0,0,1,.39-.18l0,.25c.57.19,1.11.51,1.66.07l-.25-.47.31,0-.07.32c.31-.11.11-.29,0-.46a.52.52,0,0,0,.35-.07l-.44-.53c.24,0,.39.3.59.09-.2-.25-.55,0-.63-.32.31-.1.51,0,.35-.26a.29.29,0,0,1,.27.19c-.12-.24.08-.52-.19-.71.38-.08.12-.65.65-.46a1,1,0,0,1-.27-.64c.53.53.26-.62.91-.29-.49-.43,0-.9-.1-1.41,0,0,.11.12.06.14.14-.2.34-.2.5-.29-.45-.22-.41-.61-.61-.93.56-.07.46.41.93.51-.38-.15-.16-.63-.51-.68.36-.08.21-.11.63,0-.55-.3,0-.23-.28-.57.42-.16.57.18.55-.22C31.61,43.16,31.67,43.54,31.67,43.54Zm3.9-7.38h0l-.11.14Zm.51-.49-.23.19c-.11-.07-.17-.18-.12-.22S35.94,35.66,36.08,35.67ZM33.2,35a.12.12,0,0,1,.2-.06.7.7,0,0,0-.12.18l0,0A.7.7,0,0,1,33.2,35Z"/><path class="cls-1" d="M33.39,35.49a.09.09,0,0,1,0,0h.11l-.06-.11Z"/><path class="cls-1" d="M41.57,50h0a.09.09,0,0,1,0-.05A.08.08,0,0,1,41.57,50Z"/><polygon class="cls-1" points="44.76 31.88 44.74 31.79 44.7 31.88 44.76 31.88"/><path class="cls-1" d="M37.49,48.75a.2.2,0,0,0-.05-.09A.16.16,0,0,0,37.49,48.75Z"/><path class="cls-1" d="M35.73,48.67l-.25-.12A1.06,1.06,0,0,0,35.73,48.67Z"/><path class="cls-1" d="M34.37,48.5a1,1,0,0,0,0,.15h0Z"/><path class="cls-1" d="M55.92,48.06l0,0C56.1,48,56,48,55.92,48.06Z"/><path class="cls-1" d="M49.51,48.9a1.51,1.51,0,0,1,.2-.17C49.6,48.7,49.51,48.7,49.51,48.9Z"/><polygon class="cls-1" points="62.39 47.62 62.39 47.62 62.4 47.62 62.39 47.62"/><path class="cls-1" d="M50,48.74a.26.26,0,0,0-.3,0A.44.44,0,0,0,50,48.74Z"/><path class="cls-1" d="M28.5,48.34l-.07,0v.06Z"/><path class="cls-1" d="M28.43,48.38l-.08,0S28.42,48.42,28.43,48.38Z"/><path class="cls-1" d="M28.2,48.51l.15-.09A.13.13,0,0,0,28.2,48.51Z"/><path class="cls-1" d="M30.29,48.5l0-.13A.39.39,0,0,0,30.29,48.5Z"/><path class="cls-1" d="M30.84,48.46c-.13,0-.33-.27-.51-.19l0,.1C30.4,48.18,30.71,48.68,30.84,48.46Z"/><path class="cls-1" d="M33.11,50.07l-.45-.1c.08.14.18.33,0,.36C33.21,50.74,32.52,50,33.11,50.07Z"/><path class="cls-1" d="M34.53,50.27c-.24.07,0,.21,0,.28C34.68,50.43,34.72,50.4,34.53,50.27Z"/><path class="cls-1" d="M44.77,50.27l0,.32C44.93,50.55,44.75,50.47,44.77,50.27Z"/><polygon class="cls-1" points="46.72 48.57 46.54 48.37 46.45 48.67 46.72 48.57"/><polygon class="cls-1" points="47.88 50.9 47.8 50.95 48.12 50.83 47.88 50.9"/><path class="cls-1" d="M66.09,50.08l-.43-.24C65.76,50.08,66.27,50.53,66.09,50.08Z"/><path class="cls-1" d="M63.88,41.48c.17-.14.22-.4,0-.45C63.9,41.2,63.81,41.41,63.88,41.48Z"/><polygon class="cls-1" points="46.17 28.38 46.32 28.23 46.03 28.38 46.17 28.38"/></svg>