<svg id="Capa_1" data-name="Capa 1" xmlns="http://www.w3.org/2000/svg" viewBox="0 0 224.75 57.52"><defs><style>.cls-1{fill:#536472;}</style></defs><g id="cPmuuC"><path class="cls-1" d="M200.85,12.09a29.71,29.71,0,0,0-1.71-9.46A1.51,1.51,0,0,1,199,1.51c.27-.66,1.06-.69,1.65,0a26.74,26.74,0,0,1,4.49,6.83,33.56,33.56,0,0,1,3,13.28,32.58,32.58,0,0,1-2.75,15.23Q198.08,52.15,181.24,55c-.92.15-1.85.24-2.78.35-.47.05-.93,0-1.17-.47a1.05,1.05,0,0,1,.31-1.22A21.47,21.47,0,0,0,183,42.48c1.19-7.65-.08-14.73-5.23-20.82-.44-.52-.88-1.08-.19-1.65s1.13-.07,1.57.4a19.16,19.16,0,0,0,5.48,4.24,11.16,11.16,0,0,0,7.94,1.23,10,10,0,0,0,6.64-5.74A19.27,19.27,0,0,0,200.85,12.09Z"/><path class="cls-1" d="M67.91,19.77c10-.17,17.91,7.77,17.7,18.33-.18,9.77-7.79,17.23-17.93,17.26-9.9,0-17.31-7.52-17.3-17.64C50.38,27.32,57.76,19.76,67.91,19.77ZM80.2,37.58A14.34,14.34,0,0,0,79.79,34c-1.12-4.77-5.3-8.75-9.77-9.32-5.57-.7-10.16,1.52-12.64,6.24A14.35,14.35,0,0,0,56.2,41.19C58.49,50.64,68.27,53,74.44,48.87,78.42,46.22,80.15,42.3,80.2,37.58Z"/><path class="cls-1" d="M159.73,55.36c-9.87,0-17.26-7.43-17.33-17.53-.06-10.43,7.33-18.06,17.52-18.06a17.29,17.29,0,0,1,17.69,17.45C177.64,47.84,170.27,55.31,159.73,55.36Zm12.49-17.81a10.32,10.32,0,0,0-.26-2.89,12.73,12.73,0,0,0-.74-2.49,12,12,0,0,0-20.13-3.71c-3.25,3.66-3.82,8-2.89,12.69A12,12,0,0,0,165,49.69C170,47.28,172.1,42.94,172.22,37.55Z"/><path class="cls-1" d="M104.51,38.47c3.09,2.39,4.89,5.65,6.76,8.83,1.39,2.36,2.79,4.71,4.4,6.93.13.17.23.37.44.71h-5.79c-.36,0-.44-.34-.59-.57-1.74-2.67-3.37-5.4-5-8.17a21.72,21.72,0,0,0-3.84-4.82,5.9,5.9,0,0,0-4.35-1.52c-.75,0-.51.52-.51.88,0,4.37,0,8.75,0,13.13,0,.91-.26,1.15-1.12,1.09a30.09,30.09,0,0,0-3.29,0c-.6,0-.78-.17-.77-.77,0-2.22,0-4.44,0-6.66,0-8.7,0-17.39,0-26.09,0-1,.3-1.23,1.25-1.19,3,.11,6-.13,9,.14a11.77,11.77,0,0,1,5.34,1.81c5,3.2,5.33,13-1,15.77C105.23,38.1,104.94,38.25,104.51,38.47ZM96.07,30v4.34c0,.35,0,.63.48.62a22.3,22.3,0,0,0,5.1-.34,4.63,4.63,0,0,0,3.3-4.69,4.51,4.51,0,0,0-3.28-4.48A21.17,21.17,0,0,0,96.58,25c-.57,0-.51.33-.51.69Z"/><path class="cls-1" d="M45.73,28.31c-5.45-5.11-13.87-4.6-18.46-1.3a13.06,13.06,0,0,0,5.5,23.51c4.91.76,9.36-.17,13-3.73,0,0,.11,0,.26-.07,0,1.78,0,3.53,0,5.29,0,.54-.41.6-.73.76a24.18,24.18,0,0,1-11.58,2.57c-10.13,0-15.66-7.25-16.87-14.43-1.86-11.13,5.6-19.38,14-20.83,4.48-.76,8.71.15,12.86,1.75,1.93.75,1.93.76,1.93,2.85Z"/><path class="cls-1" d="M120.32,37.6c0-5.47,0-11,0-16.42,0-.7.15-.93.9-.93q7.85,0,15.68,0c.65,0,.93.12.89.84-.06,1.12-.05,2.25,0,3.37,0,.6-.16.76-.76.76-3.55,0-7.1,0-10.65,0-.67,0-.87.15-.86.84q.07,3.53,0,7.05c0,.7.22.84.87.83,3.52,0,7,0,10.56,0,.69,0,.88.2.84.86a30.86,30.86,0,0,0,0,3.19c0,.7-.2.85-.87.85-3.48,0-7,0-10.45,0-.79,0-1,.24-1,1,0,4.77,0,9.53,0,14.29,0,.78-.22,1-1,1a26.12,26.12,0,0,0-3.19,0c-.83.06-1.09-.16-1.09-1C120.34,48.48,120.32,43,120.32,37.6Z"/><path class="cls-1" d="M190.41,23.31a6,6,0,0,1-6.1-6.31,6.13,6.13,0,0,1,6.2-6.39,6.21,6.21,0,0,1,6.31,6.57A6.06,6.06,0,0,1,190.41,23.31Z"/></g></svg>