<?xml version="1.0" encoding="utf-8"?>
<!-- Generator: Adobe Illustrator 21.1.0, SVG Export Plug-In . SVG Version: 6.00 Build 0)  -->
<svg version="1.1" id="Capa_1" xmlns="http://www.w3.org/2000/svg" xmlns:xlink="http://www.w3.org/1999/xlink" x="0px" y="0px"
	 viewBox="0 0 377.2 152.4" style="enable-background:new 0 0 377.2 152.4;" xml:space="preserve">
<style type="text/css">
	.st0{fill:#F0D44F;}
</style>
<path class="st0" d="M55.4,16.5c-15-3.3-30.3,10.1-37.2,28.6s-6.5,40.8-2.1,60.8c1.8,8.3,4.5,16.8,9.7,22c5.7,5.8,13.3,6.4,20.4,6.8
	c77.5,4.1,154.9,4.4,232.5,0.9c15.9-0.7,32-1.6,46.9-9c17-8.6,29.2-24.4,33.4-42.9c5.6-24.2-3.6-53-20.4-64
	c-9.7-6.3-20.8-6.9-31.5-7.4L138.4,4.3C111.1,3,82.9,2,57.5,15.4"/>
<path class="st0" d="M61.4,20.8c-1.1,0.4-0.2,1.2-0.2,1.5C62.7,21.2,61.2,20.5,61.4,20.8z"/>
<polygon class="st0" points="78.7,11.5 78.5,12 81.1,10.2 "/>
<path class="st0" d="M97.2,8.3c-1-0.8-2.7-0.6-4.6-0.1c-1.8,0.6-3.7,1-5.6,1.1L86.5,9l-1.2,1.8C89.1,9.7,94.3,8.1,97.2,8.3z"/>
<path class="st0" d="M107.4,11.8c-0.6-0.7,2.1-0.7-2.3-0.1c0.1,0,0.3,0.1,0.4,0.2C106,11.8,106.5,11.8,107.4,11.8z"/>
<path class="st0" d="M105.6,11.9C103.6,12,106.9,12.4,105.6,11.9z"/>
<path class="st0" d="M114.6,11.2c-0.9,0.2-1.7,0.4-2.6,0.7c0.6,0.4,2.9,0.5,2,0.8C116.7,12.4,116.2,11.9,114.6,11.2z"/>
<path class="st0" d="M117.1,9.8l-1.4,0.3C116,10.3,116.4,10.4,117.1,9.8z"/>
<path class="st0" d="M112.9,10.7l2.9-0.6c-0.4-0.3-0.4-0.9-1.3,0.2C114.7,9.8,114.1,10.3,112.9,10.7z"/>
<path class="st0" d="M111.3,10.4c-1.5-0.4-3.4-0.6-0.8-1.3c-2.5,0.2-3.6,0.6-3.3,0.9S108.8,10.6,111.3,10.4z"/>
<path class="st0" d="M98,6.3c-0.7-0.1-1.4-0.2-2-0.3l-1.6,0.8C95.2,6.3,98.2,6.8,98,6.3z"/>
<path class="st0" d="M131,12.6c0.2-0.4-0.9-1.1-1-1.6l-2,0.4C129,11.6,130.9,12,131,12.6z"/>
<path class="st0" d="M130,11l3-0.6C130.3,10.2,129.9,10.5,130,11z"/>
<path class="st0" d="M117.6,7.7l-4.8,1.5c1.9-0.5,3.8-1,5.7-1.5L117.6,7.7z"/>
<polygon class="st0" points="142.3,13.1 140.6,14 143.7,12.7 "/>
<path class="st0" d="M149.9,13.3c-1.3,0.7,1.6,1.4,0.3,1.8c1.9-0.1,3.7-0.5,5.4-1.1C153.6,14.2,151.7,14,149.9,13.3z"/>
<path class="st0" d="M158.3,13.2c-0.9,0.2-1.8,0.4-2.7,0.8C156.5,13.8,157.4,13.6,158.3,13.2z"/>
<path class="st0" d="M138,10.8c0.6,0.7,1.4,1.2,2.3,1.3l-1.1-1.2L138,10.8z"/>
<path class="st0" d="M139.1,10.8L139.1,10.8l2.5,0.2L139.1,10.8z"/>
<path class="st0" d="M137.7,10.8h0.3C137.9,10.7,137.8,10.6,137.7,10.8z"/>
<path class="st0" d="M125.3,8.9c1.8-0.6,5.4-1.1,1.9-2.2C125.9,7.4,127.9,8,125.3,8.9z"/>
<path class="st0" d="M136.3,9.3l-3.1-0.4c0.1,0.3,0.6,0.8-0.3,1L136.3,9.3z"/>
<polygon class="st0" points="137.9,9 136.3,9.3 137.5,9.4 "/>
<path class="st0" d="M152.9,11.9c1.5-0.4,3-0.5,4.6-0.4c-1.8-0.3-3.6-0.5-5.4-0.6C151.8,11.3,151,11.9,152.9,11.9z"/>
<path class="st0" d="M146.2,11.3h0.3C146.3,11.1,146.2,11.1,146.2,11.3z"/>
<path class="st0" d="M174.1,12.3l-0.3-0.2c0,0.1,0,0.1-0.1,0.2L174.1,12.3z"/>
<path class="st0" d="M151.8,10.7c-1-0.2-2.1-0.1-3,0.3c1.1-0.1,2.2-0.1,3.3-0.1C152.2,10.8,152.2,10.6,151.8,10.7z"/>
<path class="st0" d="M162.9,12.9c-0.7-0.3-1.5-0.5-2.3-0.7C161.3,12.6,162.6,13.2,162.9,12.9z"/>
<path class="st0" d="M147,11.6h-0.2C147.2,11.9,147.1,11.8,147,11.6z"/>
<path class="st0" d="M147,11.6c0.6-0.1,1.2-0.3,1.8-0.6c-0.8,0-1.5,0.1-2.3,0.3C146.7,11.3,146.9,11.4,147,11.6z"/>
<path class="st0" d="M179.4,5.2c-0.3,1-3.9,1.9-6.9,0.6c-3.1,0.7-1.2,4.2,1.3,6.3c0.1-0.5,0.1-0.9,3.3-1.4c-1.1-0.6-6.9-1.7-4.2-2.5
	c4.2-0.3,3.4,0.5,5.4,1.2c-1.6-1.4,5.4-1.7,4.5-3.7l-3.7,0.5C179.1,5.9,180.4,5.5,179.4,5.2z"/>
<path class="st0" d="M167.9,11.7l-1.3,0.1c1.5,0.3,3,0.9,4.4,1.6c2.2-0.4,2.6-0.8,2.8-1.1l-6.3-0.4L167.9,11.7z"/>
<path class="st0" d="M160.8,11.5c1.1-1.1,4.2-1.4,2.3-2.8c-3.8-0.1-2.7,0.8-5,1.2c6.1,0-1.8,0.6,2.6,1.4c-1.1,0.1-2.2,0.2-3.3,0.1
	c1.1,0.2,2.1,0.4,3.1,0.7l-0.1-0.1l0,0l0,0c-0.2-0.2-0.3-0.2,0-0.1h0.1C160.6,11.8,160.7,11.6,160.8,11.5c1.8,0.4,0.3,0.3-0.3,0.5
	c0,0.1-0.1,0.1-0.1,0.2l0,0l6.1-0.3C164.7,11.5,162.7,11.4,160.8,11.5z"/>
<path class="st0" d="M130.5,4.3c0.1,0,0.2,0.2,0.2,0.3C131.1,4.5,131.3,4.4,130.5,4.3z"/>
<path class="st0" d="M133,5.1c-0.7,0.4-1.5,0.5-2.3,0.4c-1.2-0.4,0-0.6,0-0.9c-0.9,0.3-3.1,0.7-0.4,1.4l0.4-0.1
	c2.4,0.5,5.5,2.1,5.1,2.2C135.2,6.9,134.2,5.9,133,5.1z"/>
<path class="st0" d="M147.1,8l5.1-0.3l-2.5-1.1l0.1,0.6C146.9,6.8,147.5,7.6,147.1,8z"/>
<polygon class="st0" points="174.6,12.9 173.9,14.1 176.9,12.5 "/>
<polygon class="st0" points="181.2,13 180.9,14.1 182.7,13.5 "/>
<path class="st0" d="M240.4,143.2l-1.5,0.4C239.4,143.5,239.9,143.4,240.4,143.2z"/>
<path class="st0" d="M251.2,143l0.2-0.5C251,142.8,250.8,143,251.2,143z"/>
<path class="st0" d="M337.1,26.7c0.7,2,1,4.3,1.7,3.3c0.1-0.4,0.3-0.8,0.4-1.2C338.4,28.3,337.7,27.6,337.1,26.7z"/>
<path class="st0" d="M336.4,119.9l0.7-0.1c0.1-0.7,0.3-1.3,0.4-1.8C337.1,118.5,336.8,119.2,336.4,119.9z"/>
<path class="st0" d="M338,124.6c-1,0.4-1.9,0.8-2.9,1.2C336.1,125.5,337.1,125.1,338,124.6z"/>
<path class="st0" d="M181.3,145.4l-1.7,1.2C182.3,146.6,181.1,146,181.3,145.4z"/>
<path class="st0" d="M248.7,15.7c1.5,0.5,3.1,0.8,4.6,0.9C251.1,15.9,249.3,14.8,248.7,15.7z"/>
<path class="st0" d="M244.3,130.8c-0.9,0.2-1.3,0.5-1.2,0.7C244,131.4,244.5,131.1,244.3,130.8z"/>
<path class="st0" d="M258.7,16.9c-0.3-0.1-0.6-0.2-1-0.3c-1.5,0.2-2.9,0.2-4.4,0.1C255,17.4,256.9,17.5,258.7,16.9z"/>
<path class="st0" d="M6.3,73.7c0.1-0.2,0.1-0.4,0.2-0.5C6.3,73.1,6.3,73.4,6.3,73.7z"/>
<path class="st0" d="M40.5,24.1c-0.4,0.4-1.1,0.7-1.8,1.2C39.4,24.9,40,24.5,40.5,24.1z"/>
<path class="st0" d="M207.7,14.8C206.3,14.8,207.4,14.9,207.7,14.8z"/>
<path class="st0" d="M201.1,9.9c0.3-0.1,0.5-0.3,0.6-0.5C201.6,9.6,201.3,9.8,201.1,9.9z"/>
<path class="st0" d="M273,10.3h0.1C272.7,10.1,272.7,10.1,273,10.3z"/>
<path class="st0" d="M205.6,14.1c0.6,0.2,1.2,0.3,1.8,0.4C206.8,14.4,206.2,14.2,205.6,14.1z"/>
<path class="st0" d="M205.9,14.7l-1.2-0.2C204.4,14.7,204.6,14.8,205.9,14.7z"/>
<path class="st0" d="M209.6,14.8c-0.8,0-1.5-0.1-2.3-0.2c0.3,0.1,0.4,0.2,0.3,0.2L209.6,14.8z"/>
<path class="st0" d="M82,139.7l-0.3-0.1C80.2,140,80.8,140,82,139.7z"/>
<path class="st0" d="M364,51.6c0-0.1-0.1-0.1-0.1-0.2C363.9,51.5,363.9,51.6,364,51.6L364,51.6z"/>
<path class="st0" d="M365.8,56.8c-1.3-1.4-2-3.2-1.9-5.1c-1,0.8-1.9,1.6-2.9,2.4C362.7,54.9,364.2,55.8,365.8,56.8z"/>
<path class="st0" d="M214.5,144.2l3.6,1c-4.2,1.8-7.3,1.2-4,2.6c0.2-1.8,3.7-2,7.1-2.1s6.9-0.4,7.1-2.2l2.3,0.7
	c-0.7,0-0.8,0.2-1.4,0.2c4.6,1.6,3.3-2.7,9.1-2.3c2,0.2,3.5,0.7,2.1,1.2l4.5-1c1.3,0,1,0.7-0.3,0.6l6.9-0.5l-0.1,0.1
	c1.4-0.8,2.8-1.4,4.2-2c1.8,0.5-0.9,0.4-0.4,0.9l3.8-1c1.6,0.9-1.5,1.9-4.2,1.9c3.7,3.5,3.1-1,10.9,0.8l-3.6,0.6
	c2.4,2,5.2,1.1,9.3,2.2c-1-0.6-8.3-2.9-4.2-4c1.7,0.3,3.4,0.1,4.9-0.5c0.1,1.3,2.2,0.9,5,0.7l-0.1,1.7c2.9-0.6,2.7-1.5,4.4-2.3
	c3.3,0,4.1,1.3,5,2.3c5.4-0.1-3.9-1.9,2.5-2.6c4.5,0.3,7.7-0.6,13-2.4c3.3,0.1-0.4,1.1,0.8,1.4c0.9-0.6,1.8-1.2,2.6-1.8
	c0.7-0.1,0.5,0.4,0.5,0.6c2.3-1-0.1-1.7,3.5-2.9c0.3-1.1,2.3-0.8,4.8-0.8s5.5-0.4,7.3-2.2c1.3,0-0.1,1.2,0.4,1.7
	c1.4-0.9,2.4-1.6,3.2-2.2s1.3-1,1.8-1.4c0.5-0.4,1-0.9,1.5-1.4c0.6-0.6,1.3-1.3,2.2-2.4l2.2-0.7c0.7-0.2,1.5-0.5,2.2-0.8
	c-1.8,0.4-1.9-0.3-1.4-1.5c0.8-1.5,1.7-3,2.7-4.4c-1.3,0.2-2.4,0.3-3,0.5l1.9-2l1.8-2.1c0.7-0.2,0.7,0.6,0.4,1.7
	c0.2-0.3,0.4-0.7,0.5-1c1-0.4,1.4-0.3,1.6,0.2c0.1,0.7,0,1.4-0.2,2.1c-0.8,0.2-1.5,0.4-2.2,0.5c-0.4,1.7-0.9,3.4,0,4
	c0.3-0.6,0.8-1.1,1.3-1.5c-0.1,0.4-0.2,0.8,0.1,0.8s0.5-0.7,1-1.6c0.8,0.2,1.5,0.4,2.3,0.6l-0.2-0.8c1.1-0.7,2.2-1.5,3.3-2.2
	s2.1-1.6,3.2-2.4c0.6-1.4,1.1-2.8,1.5-4.2s0.9-2.8,1.3-4.4s0.9-3.1,1.4-4.8s1.1-3.5,1.9-5.4c0.3,2.5,1.8,1.4,3.3,2.3
	c-0.7,0.4-1.2,0.9-1.6,1.6c-0.4,0.7-0.7,1.6-1.1,2.5c-0.3,1-0.7,2-1.2,3c-0.5,1-1.1,2-1.8,2.9c1.5-1.9,1.9-1,1.8-0.3
	c0.6-1.3,1.2-2.6,1.6-3.9s1-2.6,1.4-4c0.5,0.4,1,0.1,1.5-0.4c0.2-0.3,0.5-0.7,0.8-1.1c0.3-0.5,0.6-0.9,0.9-1.3
	c-1.6,0.2-1.3-1.4-0.6-3.4c0.3-1,0.7-2.2,1-3.3c0.3-1,0.5-2,0.6-3c0.5,0,0.9,0.3,0.9,1c0,1.4-0.3,2.7-1,3.9c0.4-0.4,0.7-0.8,1-1.3
	c0.2-0.4,0.3-0.8,0.4-1.3c0.1-0.8,0-1.7-0.2-2.5c-0.4-1.6-0.9-3.2,0.5-5.1c-0.2,1-0.5,1.4-0.1,1.9c0-1.6,0.3-3.1,0.7-4.6
	c0.2-0.6,0.4-1.2,0.7-1.7c0.2-0.3,0.4-0.4,0.5-0.1c0,0.3-0.1,0.7-0.2,1c0.2-0.9,0.4-1.8,0.5-2.7c0.1-1,0.3-2.1,0.4-3.2
	s0.1-2.2,0.1-3.4c0-0.6,0-1.1,0-1.7s-0.1-1.1-0.1-1.6c-0.1-1.1-0.2-2.1-0.4-3c-0.2-0.8-0.4-1.7-0.6-2.5c-0.5-1.5-1-2.4-1.6-2.6
	c1.1,0.1,2.3,0.4,3.3,0.9c-0.7-0.9-1.5-1.8-2.3-2.7s-1.5-1.7-2.3-2.5c-1.6-1.6-3.2-3.2-4.9-4.6c1.1,0.2,2.5-0.8,3.9-1.4
	c0.7-0.3,1.4-0.4,2.2-0.2c0.9,0.4,1.6,1.2,1.9,2.2c-0.1-2.3-0.7-4.6-1.9-6.6c0.1,1.1-2,3.4-2.5,2c0.2-0.8,0.3-1.6,0.4-2.4
	c0-0.5,0-0.9,0-1.4c-0.1-0.8-0.1-1.8-0.2-4.5c0.3,1.7-3.3,1.2-4.1-1.1c0.6,0.2,2.6-1.5,3.3-0.8c-0.9-0.8-1.9-1.5-2.8-2.2
	s-1.8-1.4-2.8-2c1.3,1,2.4-1,2.3-2.7c-0.1,0.5-0.8-0.8-1.7-2.2c-0.8-1.3-1.8-2.6-2.8-3.7c0.4,0.9,0.8,1.8,1.1,2.6
	c-0.4-0.7-0.9-1.3-1.5-1.9c-0.5-0.4-1-0.8-1.6-1.2c-0.9-0.5-1.9-0.9-3-1.1c-2.4-0.4-4.7-1.3-6.7-2.8c0.8-0.1,1.5-0.6,2-1.2
	c0.3-0.4,0.4-0.9,0.3-1.4c-0.2-0.7-0.6-1.3-1.2-1.7c-1.1,0.2-3.7,0.8-6.6,1.5c-2.8,0.8-5.7,1.3-8.6,1.4l-0.8-1.1
	c-1.5,0-2.9,0.1-4.4,0.2c2.4-1.4,4.9-2.5,7.6-3.2c3.1-0.9,6.4-1.2,9.6-1c-0.6-0.4-1.1-1-1.5-1.6c-0.3-0.3-0.8-0.6-2.8-1.4
	c-1.2-1.3,2.7-0.4,3.9,0.2c-3.1-1.6-6.3-2.9-9.6-3.8c0,0.9-2,0.9-3.8,1s-3.7,0.2-3.6,1c3.5-0.2,7.1-0.1,10.6,0.3
	c0,0.9-1.9,1.6-4.4,2.1c-2.9,0.5-5.9,0.6-8.8,0.2c-0.8-0.4-0.4-1.2,0.2-1.9s1.4-1.4,1.3-1.7c-1,0.5-6.2,0.6-6.8,0.2
	c0.9-0.3,1.9-0.5,2.8-0.8c-3.6-1-5.9,2-10,0.1c-1.4-0.2-4.2-2.5-4.5-1.4c2.2,2.2,2.4,8.5,0.8,10c-0.5-0.2-7.4-2.3-9-3.4
	c-2.3-1.7,3.7-3.7,1.8-5.1c-0.1,0.5-1.4,1-2,1.2c-1.5-0.5,0.7-1.5-2.6-1.4c-0.6,1.8-6.6-0.5-1.6,1.5c-3.2,0.4-3.4-0.5-7.1-0.6
	c1.1,1.2-3.5,3.8-6.8,4.2c0.2-0.4-0.5-1.1-0.8-1.4c-6.5-0.5-10-1.4-16.1-1.8c-0.5-0.5-3.5-1.1-2.2-1.8c-1.1,0.5-2.4,0.8-3.6,0.8
	c-3.6-1.7,4.2,0,1.5-2.1c-0.3,1-4.9,1.2-7.7,1.8c0.8,1.7,6.2,0.6,8.9,0.1c-0.1,2.2-4.9,4.4-11.3,5.1c-5.1,0.3-2.1-1.6-3-1.3
	c-9.5-0.8-8.3,3.6-16.1,1.6c-3.1-1.6,0-2.9-0.6-3.9c4.1-0.4,6.3,1.2,9.1,1.3l-3.4-0.8c1.8-0.5,3.8-0.6,5.6-0.2
	c-2.6-1.4-16.1-1-23.4-2.5C209.2,7,207,7.4,208,8l2.3-0.1c2.1,1.3-4.4,1.4-1.5,2.1c-3.2,0.7-6.7,1.8-11.1,0.9L197,9.2
	c0.1,0.5,2.8,1.1,4.1,0.7c-1.9,0.6-6.6-2.5-8.7-0.5l3,1.3c-3.2,0.7-7.1,2.2-11,1.5c1.7,1.7,0.9-0.1,3.6,1.9c-2.3-2.5,10,0.6,6.2-2.1
	c2.7,2.3,4.9,1.2,8.5,3.2c-0.1-0.5-1.3-1.1,2-0.7c0.2-0.2,0.5-0.3,0.7-0.4l0.2,0.1l-0.2-0.1c0.1-0.1,0.2-0.1-0.1,0
	c-0.6-0.2-1.2-0.5-1.6-0.9c1.7-1.2,6.9-0.9,8.7-1.4c1.9,0.4-0.8,0.6,0.2,1.2l2.7-0.8c0.2,1.2,5.1,2.2,0.5,2.7l4.1,0.2
	c2.5,0.8,5.2,1.1,7.8,0.8c1.9,0.3,5-1.1,3.2-0.2l6.5-0.4v0.3c6.4,0.4,13.2-1.4,20.4,1.1c2.7-0.4,5.3-0.4,8,0l0.6,1.1
	c2.8-0.2,8.2,1.4,9.5,0.4c2.8,2.9,13.3,1.2,18.1,1.9l0.2-1.3c3.6,0.2,7.1,0,10.7-0.4l-0.2-1.2c3.6-0.8,9.1,1.2,14.2,1.8
	c-0.4,0.4-1.7,0.1-2.6-0.2c3,1.7,6.1,1.7,9.2,1.9s6.1,0.8,7.9,2.9c1.1,0.2,2,0.8,2.6,1.7c-0.1-0.1-0.2-0.1-0.3-0.1
	c0.1,0.1,0.3,0.2,0.4,0.3c0.3,0.5,0.6,1,1,1.5c-0.2-0.5-0.5-0.9-0.8-1.4c0.4,0.3,0.9,0.6,1.5,0.9s1.2,0.8,1.8,1.2l-0.4,1.3
	c0.1,0.1,0.2,0.1,0.3,0.2c0.6,1.4,1.2,0.5,1.4-0.8c0.6,0.4,1.2,0.7,1.9,1c-0.2,0.5-0.1,1,0.2,1.4c0.3,0.4,0.6,0.8,1,1.2
	c0.8,0.8,1.6,1.6,1.1,3c0.6,0.2,1,0.6,1.4,1.1c0.3,0.3,0.6,0.6,0.9,1l0.9,1.2c0.6,0.8,1.2,1.5,1.9,2.2c0.4,0.6,1.1,0.9,1.8,1
	c-0.2,0.2-0.2,0.7-0.6-0.1c0.2,0.9,0.5,1.8,0.8,2.6c0.3,0.8,0.7,1.6,1.2,2.3l-1.3,1.3c1.1,1,2.1,2.1,3.2,3.2c0,0.9-0.2,1.8-0.7,2.6
	c-0.4,0.3-0.9,0.1-1.8-0.9c1,1.5,1.8,3.1,2.3,4.7c0.5,1.5,1.2,3,1.9,4.3l-1.1-0.1c0.2,1,0.5,2.1,0.9,3.1c0.4,0.8,0.4,1.8,0,2.6
	c-0.5,1.6-0.9,3.2-1,4.9c-0.1,1.1-0.2,2.3-0.4,3.6c-0.1,0.6-0.2,1.3-0.3,2c0,0.3-0.1,0.7-0.1,1s-0.1,0.7-0.2,1
	c-1,5.5-3.1,11.7-6.1,15.7c1.8-0.2,1,0.7-0.1,1.8c-0.5,0.5-1,1.1-1.5,1.7c-0.4,0.5-0.5,1,0,1.4c-0.9,0.1-2,1.1-1.7-0.6
	c-0.2,0.5-0.5,1.1-0.8,1.6c-0.3,0.5-0.6,0.9-0.9,1.3c-0.5,0.7-1.1,1.4-1.8,2.1c-0.5,0.6-1,1.2-1.5,1.9c-0.5,0.8-0.8,1.6-0.9,2.5
	c-0.9-0.1-0.1-1.5-0.8-1.4c-0.1,0.3-0.2,0.7-0.4,1c-0.2,0.3-0.5,0.7-0.8,0.7c-0.7,0.1,0.1-0.9,0.3-1.7c-1.6,1.9-2.2,3.2-2.2,4.4
	c0.1,1.1,0.5,2.2,1.1,3.1c-2.7,1-3.6,1.9-4.4,4.2c-0.6,0-1.3,0.1-1.6-0.1s0-0.6,1.2-1.7c-0.8,0.5-3.2,2-5.4,3.2s-4.3,2.5-4,3.3
	c-0.7-0.1-2.4,1-2.8,1.3c-3.9,1.5-4.3,1.4-8.3,2.8h1.2c-0.4,1-1.3,1.7-2.4,1.7c-1.4,0.1-2.7,0.3-4.1,0.6l0-0.2c-2,0-3.2,0.1-4,0.2
	c-0.5,0.1-1.1,0.2-1.6,0.4c-0.8,0.3-1.6,0.6-5.5,0.1l0.6,1.2c-0.2,1.4-2,1.2-4.2,0.8s-5-1.1-7.2-0.4l1.7,0.6
	c-2.4,1.1-7.1-3.4-9.7-3.6c-0.6-0.2,0.9-0.4,1.6-0.6c-6.6-1.3-0.8,1.7-5.7,2.3c-0.9-0.9,1.1-2.4-2.2-2.4c-1.7-0.7-9.5,3.3-14,1.7
	c1,0.7,2,1.3-0.2,1.9c-3.5,0.4-9.5-2.3-12.6,0c-0.4-0.2-0.6-0.4-0.6-0.5c-2.7,0.6-8.6,1.2-10.2,2.4c-2.6-4.4-16.6,2.5-16.6-1.6
	l-8.2,0.4l0.2-0.4c-5.2-0.2-7.1,0.8-8.9,1.8c-1.2-0.3-0.3-0.6-0.2-0.9c-7.7-0.7-8.4-0.6-14.9,1.5l-0.7-1.3c-1.7,0.8-11.1-2-18.6-0.5
	c0.2-0.3,0.5-0.5,0.8-0.6c-8.5,1.5-20.2-3.8-23.4,1l-5.6,1.1c7.2,0.5-1.1,2.1,1.9,2.9c-2.9,0.2-7.3-1.6-3.8-1.8l0.6,0.2
	c1.3-2.5-9-1-8.8-2.8c-14.2-0.1-28-1.9-41.3-2.5l1.5,2l-4.6-0.4c-1.2-0.5-1.6-1.6,1.7-1.4c-1.7-1.2-5.6,0.7-5.7,1.1
	c-6.5-1,2.6-2.2,0.6-2.3H76l0.6,0.2c-2.2,0.7-2.4,1.5-6.4,1.3c-2.5-0.5-1.2-1.3-2.2-1.4c0-0.1-0.3-0.2-1.5-0.1l-5.8-0.4l2.3,1.6
	c-2.6,0.6-5.5-0.4-2.9,1.5c-1.9-1.4-7.4-2-12.6-2.2c-2.7-0.1-5.1-0.2-7-0.5c-1.3-0.1-2.5-0.4-3.6-0.9c-3.3,0.3-6.6-1.1-8.7-3.7
	c0.2,0.4,0.1,1-0.3,1.3c-0.4,0.2-1.2,0-2.3-1.4c1.8-0.7,1.1-2,0.3-3.8s-1.8-4.3-1-6.1c-0.3,1.5-1.4-0.7-2.2-3s-1.7-4.3-2.3-2
	c-0.5-3.1,1.2-0.5,1.5-3c-1.5-3.4-2.1-7.5-2.4-11.7s-0.3-8.8-0.7-13.2c-0.5-0.1-1.1,1.4-1.9-0.5c0.7-1.6,1.5-3.2,2.3-4.8
	c-0.2-1.8-2.7-1.7-1-4.9c-0.4,0.4-1,1.1-1.1-0.1c0.8-4.4,1.5-8.8,2.3-13.2c0.8-4.4,1.9-8.7,3.4-12.9c1.5-4.1,3.6-8,6.3-11.4
	c2.6-3.4,6-6,9.9-7.6c-2.3,0.5-1.2-0.4,0.2-1.4c-1,0.5-0.7-1-1.2-1.4c0.6-0.2,1.1-0.4,1.7-0.6c0.6-0.2,1.1-0.4,1.7-0.5
	c1.1-0.3,2.2-0.4,3.4-0.5c0.2-0.6,0.7-1,1.2-1.3c0.7-0.3,1.5-0.5,2.3-0.6c0.8-0.1,1.6-0.2,2.3-0.3c0.5,0,1-0.3,1.3-0.7l-1,0.1
	l-0.5,0.1l-0.5,0.1c1.3-1.1,0.4-2.2-1.2-3.2c-0.4-0.3-0.8-0.5-1.3-0.8s-0.9-0.4-1.2-0.6c-0.8-0.5-1.4-1-1.4-1.6
	c-1.7,1.6-4.4,1.7-7.5,2.5s-6.3,2.5-7.6,6c-0.7,0.3-0.6-0.1-0.5-0.5s0.4-0.9-0.1-0.9c-0.3,1-0.8,2-1.4,2.8c-1,1.1-2,2.2-3.1,3.2
	l0.1-0.5c-3.2,4.2-5.2,7.3-7.4,10.6c-0.5,0.8-1,1.7-1.5,2.6s-1,1.8-1.5,2.8s-1,2.1-1.5,3.2s-1,2.4-1.5,3.8l1.4-0.5
	c-0.5,1.3-1.1,2.6-1.9,3.8c0.6,1.6,1-0.1,1.5-1.8s1.1-3.4,1.8-1.8c-1.7,1.2-2.9,5.4-3.6,9.5S8.6,66.6,7,67.6c-0.3,3.8,1.5-1,1.2,2.8
	c-0.3,0.3-0.6,0.6-0.8,1l1,1c-0.2,2.4-1.2,3.6-1.9,3.7c0-0.8-0.1-1.6-0.2-2.4c-0.5,1.9-0.6,3.9-0.3,5.9c0.2,1.4,0.4,2.9,0.4,4.3
	c0.1-1.2,0.2-2.4,0.3-3.6c0.5,5.1,0.9,10.8,1.7,16.4c0.2,1.4,0.4,2.8,0.7,4.1s0.6,2.7,0.9,4c0.6,2.6,1.5,5.1,2.6,7.5l0.4-0.9
	c1,2.1,1.8,4.3,2.3,6.6c0.5,2.6,1.6,5.1,3.1,7.3l-0.3-0.2c1.4,1.3,3,3.1,4.7,5c-1-0.6-0.6,0.4,0,1.4s1.1,2-0.4,1.1
	c1.4,1,2.9,1.9,4.5,2.6c0.6,0.3,1.3,0.4,1.9,0.5c0.4,0,0.8,0,1.4-0.1s1.6-0.1,3.1-0.2c0.3,0.4,0.7,0.9,1,1.3
	c1.1-0.2,1.7-0.4,2.5-0.5c1.3-0.1,2.7-0.1,4,0c-1.7,0.2-1.1,0.7-0.6,1.2s1.1,1-0.9,1.3c1.8,0.7,3.8,1.1,5.8,1.1
	c1.4,0,2.9-0.1,4.3-0.3c2.5-0.3,4.5-0.5,6.4,1.2c4-2.5-7.1-1.9-5-2.4c-1.8-1,3.3-1.9,5.9-1.5c2.7,0.2,4.4,3.7,11.1,4
	c-0.7,0-0.7,0.2-1.4,0.1c2.5,0.8,5-0.7,8,0.5c1.8-1.6,4,0.2,4.6-1.8l-6.2,0.2c3.5-0.4,6.9-2.8,12.6-1.3c-1,0.6-2.2,1-3.3,1.2
	c1.7,0.7,3.2-0.3,5,0.4c-0.6,2.1-7.5,0.2-11.3,1.6c1.8,1,7.1-1.3,5.2,0.9c2.8-2.8,6.6,0.6,11.2-1.4l-0.3,1.3
	c1.1-0.4,2.3-0.6,3.6-0.7l-2.4,1.6c3.7-1.3,7.1,1.4,10.6,0.8c-7.4-0.2-1.6-1.6-4.7-2.6c9.2-1.4,5.1,3.5,15.4,3.1
	c-1.4,0.1-5.2-0.9-3-1.4c2,0.2,3.9,0.8,5.7,1.6c6.8-0.1-1-1.3,1.9-2c2.3,1.6,3.3-0.6,6.3-1v1.3c7.7,1,2.1-2.6,9-1.5l-3,1.7l3.6-0.4
	l-0.8,1.5c3.9-1,5.2-0.7,9-0.3c-0.9-0.9,0.5-2.3,3.9-2.3c2.3,0.8-1.3,1.2,3.5,1.1c-1.1,0.8-2.3,1.8-4.4,0.6
	c-0.2,0.4-1.1,0.8-1.3,1.2c2.5,0.9,6.3,0.3,8.1,0.3c-0.6,0-1.3-0.1-1.9-0.3l7-1.7c1.1,0.5,0.2,0.9-0.6,1.2c1.4-0.1,2.4-0.7,4.5-0.8
	c-0.6,1-0.4,2.1-3.4,2.6l6.7-1.1c0.4,0.5,3.4,1.3,2.6,1.6c3.7,0.6,9.1-2,14-1.2c0.5-0.3,1.2-0.5,1.8-0.6c4.6,0.2,8.7,1.5,14.2,0
	l3.1,1.8c4.3-0.5-4.2-2.3,2.9-3.1c5-0.6,1.9,1.6,3.7,2.1c2.5-1,6.8-3,11.5-1.5C217.3,144.1,215.9,144.2,214.5,144.2z M267.3,141.8
	c-1,0.3-3,1.2-3.8,0.5C264.6,140.8,265.5,141.5,267.3,141.8z M343.9,116.4c-0.2,0.9-1.3,1.6-2.6,2.2
	C342,117.7,342.9,117,343.9,116.4z M223,14.4l0.1-0.1C225.4,15,224.6,14.7,223,14.4z M218.3,13.6c-0.5,0.1-0.5,0.3-0.3,0.5
	c0.8-0.3,1.7-0.4,2.6-0.1C220.4,13.7,219.8,13.4,218.3,13.6L218.3,13.6z M67.4,130.4l0.9,0.4C66.2,131.1,66.8,130.8,67.4,130.4z"/>
<path class="st0" d="M337.9,124.1c-0.3,0-0.6-0.1-0.8-0.3C336.9,124.2,337,124.4,337.9,124.1z"/>
<path class="st0" d="M181.6,145.2h-0.2c-0.1,0.1-0.1,0.1-0.2,0.2L181.6,145.2z"/>
<path class="st0" d="M292,6.1c0.7,0.1,1.3,0.4,1.9,0.8C294,6.6,293.5,6.3,292,6.1z"/>
<path class="st0" d="M193.2,14.7l3-0.2c-0.9,0-1.9-0.2-2.7-0.6C193.6,14.2,194.1,14.7,193.2,14.7z"/>
<path class="st0" d="M167.3,5.5c-0.4,0.1-0.9,0-1.4,0.1l0.1,0.6C167.9,6.3,169.2,5.8,167.3,5.5z"/>
<path class="st0" d="M190.6,10.3c-0.2-1.1-2.1-0.8-4.2-0.7c0.1,0,0.2,0,0.4,0C186,11.1,188.3,10.7,190.6,10.3z"/>
<path class="st0" d="M185.9,9.6c-0.7,0-1.3,0-2-0.1C183.6,10.1,184.7,9.7,185.9,9.6z"/>
<path class="st0" d="M212.3,14.1c-1-0.3-0.7,1.4-1.2,0.9C209.9,16.3,217.8,13.6,212.3,14.1z"/>
<polygon class="st0" points="189,6.6 189.7,8 191,7 "/>
<path class="st0" d="M205.7,8.4l-3.4-0.5c0,0.2-0.4,0.3-0.9,0.4C203.5,8.4,205.8,8.8,205.7,8.4z"/>
<path class="st0" d="M201.4,8.3c-0.9-0.1-1.8-0.1-2.7,0.1C199.6,8.4,200.5,8.4,201.4,8.3z"/>
<polygon class="st0" points="193.7,6.4 194.7,6.8 197.1,7 "/>
<path class="st0" d="M242.1,10.3l3.7-0.2c0.4-0.4-0.6-0.8-2-0.6C243,9.8,241.6,9.9,242.1,10.3z"/>
<path class="st0" d="M231.1,6.2c1,0.3,1,0.6,1.6,1.1l0.2-1.7L231.1,6.2z"/>
<path class="st0" d="M241.9,6.3c0.4-0.4,5.4-1.1,0.7-1.2C242.3,5.5,238.5,5.7,241.9,6.3z"/>
<polygon class="st0" points="297.5,10.9 296.6,10.9 296.6,13.6 "/>
<path class="st0" d="M348.9,18.7c-1.7-2-2.2-1.9-2.6-1.8s-0.8,0.3-2.4-1.4c-0.7-0.1,0,0.6,0.6,1.3s1.2,1.4,0.6,1.2
	C347.7,19.5,348.6,20.9,348.9,18.7z"/>
<path class="st0" d="M345,18c-0.5-0.2-1-0.5-1.5-0.6C344,17.6,344.5,17.8,345,18z"/>
<path class="st0" d="M48.5,22.7l1,0.2l0.5,0.1l0.5,0.2c-0.4-0.3-0.9-0.6-1.3-0.8L48.5,22.7z"/>
<path class="st0" d="M52.5,20.6c0.1,0.6,0.2,1.2,0.3,1.8c0.5-0.5,1-0.9,1.5-1.4C53.8,21.1,52.9,21.1,52.5,20.6z"/>
<path class="st0" d="M275.3,145l0.2-0.4c-0.5-0.4-1.1-0.4-2.5-0.4L275.3,145z"/>
<polygon class="st0" points="236.9,145 237.6,145 236.3,143.5 "/>
<path class="st0" d="M204.7,147.7c1.3,0.1,2.9-0.3,4.2-0.3C206,147.7,204.3,145.7,204.7,147.7z"/>
</svg>
