<svg xmlns="http://www.w3.org/2000/svg" viewBox="0 0 328.54 379.59"><defs><style>.cls-1{isolation:isolate;}.cls-2{fill:#fff;stroke:#1d1d1b;stroke-miterlimit:10;stroke-width:0.35px;}.cls-3{fill:#ed6c6f;mix-blend-mode:darken;}</style></defs><g class="cls-1"><g id="Capa_1" data-name="Capa 1"><path class="cls-2" d="M302.24,91.54a10.75,10.75,0,0,0-1.3-3.43,4.78,4.78,0,0,0-2.7-2.12,5.85,5.85,0,0,0-3.63,0,14.11,14.11,0,0,0-4.68,2.5c-.41.33-.63.82-1,1.09a8.48,8.48,0,0,0-1.74,1.8c-.14.17-.3.33-.45.49a1.73,1.73,0,0,1-1.17.57c-.79.05-1.56.15-2.34.23a4,4,0,0,1-1.81.08,2.15,2.15,0,0,0-.83,0,2.89,2.89,0,0,1-.83,0,4.94,4.94,0,0,0-2,0,9.16,9.16,0,0,1-2.34,0,8.93,8.93,0,0,0-1.16,0,11.1,11.1,0,0,1-3.15-.15,2.29,2.29,0,0,0-.83,0,6.44,6.44,0,0,1-2.66,0,1,1,0,0,0-.5,0,6.21,6.21,0,0,1-2.15,0,11.39,11.39,0,0,0-1.17,0,4.61,4.61,0,0,1-2-.22.69.69,0,0,0-.49,0,3.15,3.15,0,0,1-1.64,0,2.43,2.43,0,0,0-1,0,6.2,6.2,0,0,1-2.15-.11,21,21,0,0,0-3.17-.33,5.6,5.6,0,0,1-1-.13,23.94,23.94,0,0,0-2.79-.49,9.7,9.7,0,0,0-3-.32,4.23,4.23,0,0,1-.5,0,13.91,13.91,0,0,0-3.16-.35,5.76,5.76,0,0,1-.82-.11c-1.2-.22-2.4-.46-3.6-.66a27.85,27.85,0,0,1-4.4-1,9.15,9.15,0,0,0-2.27-.53A4.43,4.43,0,0,1,231,88l-3-1a5.64,5.64,0,0,0-1-.25,37.55,37.55,0,0,1-4.07-1,1.3,1.3,0,0,0-1,0,.6.6,0,0,1-.63-.06,3.17,3.17,0,0,0-1.23-.5,32,32,0,0,0-3.62-.66c-.83-.36-1.76-.28-2.59-.62a12.38,12.38,0,0,0-2.63-.52,1.68,1.68,0,0,1-.32-.09c-1.48-.68-3.14-.79-4.62-1.45a1.76,1.76,0,0,0-.33-.07,19.79,19.79,0,0,1-3.54-1,2.26,2.26,0,0,0-.8-.21,5.64,5.64,0,0,1-1.77-.51,5.28,5.28,0,0,0-.79-.28c-2.38-.57-4.7-1.37-7.06-2-1.34-.39-2.71-.66-4-1.12a5.37,5.37,0,0,0-.83-.11,4.5,4.5,0,0,1-1-.24,38.58,38.58,0,0,0-5.14-1.47c-1.24-.33-2.51-.52-3.75-.88a11,11,0,0,0-2.79-.53,6,6,0,0,1-.84-.1c-2.37-.36-4.73-.84-7.13-1-.78-.05-1.56-.13-2.34-.17a12.07,12.07,0,0,0-3,.22,13.53,13.53,0,0,0-3.18.1,9.39,9.39,0,0,1-1.15.17,25.3,25.3,0,0,0-4,.5,21.11,21.11,0,0,0-2.64.46c-2.42.67-4.85,1.31-7.23,2.13-1,.35-2,.59-3,1-1.5.26-2.84,1-4.3,1.38a2,2,0,0,0-.45.21c-.55.27-1.11.54-1.65.82l-1.79.91c-1.14.59-2.22,1.29-3.37,1.86a1.67,1.67,0,0,0-.28.18c-1,.73-2.16,1.16-3.12,1.94a4.2,4.2,0,0,1-.6.3,4.72,4.72,0,0,0-.72.43c-1.32,1-2.65,2.06-4,3.11a5.19,5.19,0,0,0-1.49,1.57,1,1,0,0,1-.34.37A2.87,2.87,0,0,0,117,91a2.44,2.44,0,0,1-.53.64A15.1,15.1,0,0,0,114.56,94c-.25.37-.56.7-.82,1.06-.69,1-1.48,1.81-2.17,2.76a12.09,12.09,0,0,1-1.72,2.25,2.57,2.57,0,0,0-.44.71,6.47,6.47,0,0,1-1.54,2.17,3.68,3.68,0,0,0-.59.8c-.25.37-.51.74-.74,1.12a24.29,24.29,0,0,0-1.5,2.42c-.45,1-1,1.89-1.44,2.83a13.5,13.5,0,0,0-1.3,3.08,5.47,5.47,0,0,1-.54,1.4,3.45,3.45,0,0,0-.58,1.89,1.15,1.15,0,0,1-.11.47,5.48,5.48,0,0,0-.36.92,25.53,25.53,0,0,0-.64,3.45,1.9,1.9,0,0,1-.46,1,.86.86,0,0,1-.68.42,12,12,0,0,0-3,.43c-.79.27-1.58.56-2.36.85a.47.47,0,0,0-.23.23c-.12.35-.42.5-.69.69a2.63,2.63,0,0,0-.87,1c-.29.61-.59,1.21-.88,1.81a1.52,1.52,0,0,0-.15.81,2.44,2.44,0,0,1,0,.66,25.3,25.3,0,0,0-.13,3.69c0,.72.09,1.45.14,2.17.56,1.36.37,2.88.92,4.24a6.34,6.34,0,0,0,1,3c.12.21-.13.27-.15.41a1.63,1.63,0,0,0,0,.49c.16,1.16.62,2.26.7,3.44a.33.33,0,0,0,0,.16c.5.86.61,1.93,1.36,2.67a.4.4,0,0,1,0,.47c-.18.34-.33.71-.51,1.05a21.07,21.07,0,0,0-1.57,4.41,9.82,9.82,0,0,1-.74,2.55.17.17,0,0,1-.12.1c-.1,0-.25,0-.29-.07-.18-.27-.33-.58-.51-.85a11.67,11.67,0,0,0-1.08-1.5c-.47-.49-.55-1.19-1-1.69a8,8,0,0,1-1-1.55,18,18,0,0,0-2-2.67c-.86-.94-1.58-2-2.43-3-.44-.5-.75-1.13-1.22-1.58a15.62,15.62,0,0,1-1.86-2.35,14,14,0,0,0-1.66-2.09,19.21,19.21,0,0,1-1.94-2.09A1.81,1.81,0,0,0,75.2,138a1.08,1.08,0,0,0-1,.7,2.28,2.28,0,0,0-.15.81,15.87,15.87,0,0,1,.12,2.67,2.11,2.11,0,0,0,.09.49,18.67,18.67,0,0,1,.36,2.66,34.76,34.76,0,0,0,.67,5.48c.12.72.24,1.43.35,2.15.08.5.11,1,.22,1.49a4.84,4.84,0,0,0,.33,1.46c-.26.51,0,1,.07,1.48.1.78.21,1.54.31,2.32a1.4,1.4,0,0,1,0,.5,2.83,2.83,0,0,0,.22,1.79c0,.1.13.22.1.3-.28,1,.17,1.86.27,2.79,0,.16,0,.33,0,.49a7,7,0,0,0,.26,2.65,2,2,0,0,1,.06.5,11.28,11.28,0,0,0,1.85,5.14c.41.67.83,1.33,1.22,2a5.44,5.44,0,0,0,1.22,1.59,11.36,11.36,0,0,1,1.72,2,10.93,10.93,0,0,0,.91,1.21,33.17,33.17,0,0,0,3.09,3.07,10.62,10.62,0,0,0,2.32,1.62,12.73,12.73,0,0,0,4,1.25c1.11.37,2.25.68,3.32,1.14a33,33,0,0,1,3.11,1.65,2,2,0,0,0,1.6.29.41.41,0,0,1,.44.18,5.63,5.63,0,0,1,.57.81,27.2,27.2,0,0,0,1.54,2.4c.6.88,1.21,1.75,1.81,2.62s1.54,1.6,2.1,2.57a2,2,0,0,0,.34.37,9.68,9.68,0,0,0,2.91,2.21,1.61,1.61,0,0,1,.49.45,14.44,14.44,0,0,0,2.82,2.35,12.49,12.49,0,0,1,2.07,1.39,27.48,27.48,0,0,1,3,2,39.51,39.51,0,0,1-2.69,6,1.68,1.68,0,0,0-.23.94c-.61.94-1,2-1.58,3a14.5,14.5,0,0,0-1,2.11,8,8,0,0,1-1.3,2.13,2.43,2.43,0,0,0-.28.61,2.41,2.41,0,0,1-.27.61c-.62.67-.75,1.62-1.31,2.32a25.43,25.43,0,0,1-1.94,3.69c-.29.55-.49,1.11-.74,1.66a20,20,0,0,1-1,1.75c0,.67-.51,1.1-.8,1.63a4.48,4.48,0,0,0-.84,1.79,1.91,1.91,0,0,1-.37.74c-.2.34-.43.65-.62,1s-.47.89-.7,1.34a7.52,7.52,0,0,0-.62,1.36c-.14.53-.64.74-.82,1.24a6.14,6.14,0,0,1-1,1.9c-.47.56-.58,1.35-1.21,1.79l-1.05,1.89a1,1,0,0,1-.18.28,12.28,12.28,0,0,0-1.57,2.16c-.28.42-.65.77-.93,1.19a11.85,11.85,0,0,1-.85,1.42,9.2,9.2,0,0,0-1.33,2.12c-.44.86-1.17,1.48-1.68,2.28a4.14,4.14,0,0,0-1.23,1.55A8.34,8.34,0,0,1,91,258.6c-1,1.16-1.66,2.52-2.72,3.6a3.67,3.67,0,0,0-.38.56,18.48,18.48,0,0,1-2.39,3,3.93,3.93,0,0,0-.82,1.05,5.25,5.25,0,0,1-.84,1,5.6,5.6,0,0,1-1,1.08,6.43,6.43,0,0,0-1.63,1.66,2.59,2.59,0,0,1-.71.69,7,7,0,0,0-1.4,1.2A6.6,6.6,0,0,1,77,274.08a4.66,4.66,0,0,0-1.74,1.53.9.9,0,0,1-.51.41,3.17,3.17,0,0,0-1.47,1.05,1.13,1.13,0,0,0-.1.13,2,2,0,0,0-.22.09l-1.61.69a2.46,2.46,0,0,1-.44-.34,3.78,3.78,0,0,0-1.54-.85l-.6-.41a1.62,1.62,0,0,0-1.62-.06,8.74,8.74,0,0,0-1.14-.08,1,1,0,0,0-.88.4,9.08,9.08,0,0,0-.63,1,.83.83,0,0,0-.09.49,2.29,2.29,0,0,0,1.2,2.06l.59.32,3,1.41a1.64,1.64,0,0,1,.43.24.28.28,0,0,1,0,.29,3.63,3.63,0,0,1-1.15.94A11,11,0,0,0,65,285.86a3.21,3.21,0,0,0-.73,2.33.71.71,0,0,0,.1.31,1.71,1.71,0,0,0,1.5.92,5.47,5.47,0,0,0,1-.12c.38-.09.75-.23,1.12-.35a3.09,3.09,0,0,0,1.29-.73,4.93,4.93,0,0,1,1-.6c.12-.07.37.1.35.24,0,.33-.1.66-.18,1-.12.55-.3,1.08-.41,1.63a17.45,17.45,0,0,0-.1,4.51,2.89,2.89,0,0,0,.19.81,1.49,1.49,0,0,0,1.92.87,1.38,1.38,0,0,0,1-1.07l0,0,0-.05c.09,0,.24.09.28.05.21-.24.4-.52.61-.76a.31.31,0,0,1,.28,0,8.19,8.19,0,0,0,1.54,2.37,2.11,2.11,0,0,0,1.32.65.62.62,0,0,0,.33,0,1.87,1.87,0,0,0,1.21-1.07,5.54,5.54,0,0,0,.21-.8c.13-.66.23-1.32.37-2a.32.32,0,0,1,.26-.1c.26.21.48.46.75.66a2.08,2.08,0,0,0,1.58.4c.43-.05.64-.41.89-.7a1.64,1.64,0,0,0,.43-1.4c0-.22,0-.44-.08-.66a10.46,10.46,0,0,0-1.61-4c-.33-.45-.66-.9-1-1.36-.52-.79-1-1.59-1.51-2.4a.67.67,0,0,1,.14-.9c.51-.43,1-.86,1.56-1.26a8.18,8.18,0,0,0,1.13-1,43.07,43.07,0,0,1,4.83-4.11c.94-.69,1.7-1.6,2.64-2.3a1.5,1.5,0,0,0,.11-.13c.41-.45.81-.92,1.25-1.34,1.16-1.13,2.15-2.43,3.35-3.51a10.88,10.88,0,0,1,2-2.19,2.37,2.37,0,0,0,.34-.37,52.5,52.5,0,0,0,4.11-5.7,7.48,7.48,0,0,1,.59-.8,14.5,14.5,0,0,0,1.64-2.32c.13-.25.29-.48.44-.71.53-.85,1.06-1.7,1.61-2.55a10.33,10.33,0,0,0,1.41-2.64.85.85,0,0,1,.17-.29,12,12,0,0,0,1.7-3.43,2.81,2.81,0,0,1,.3-.6,9,9,0,0,0,.72-1.5c.25-.56.48-1.14.78-1.67a43,43,0,0,0,2.53-5.47,4.55,4.55,0,0,0,.23-.8,23.14,23.14,0,0,1,2.61-7,1.74,1.74,0,0,1,.28-.41.56.56,0,0,1,.27-.12,2.64,2.64,0,0,1,0,1.12c-.17,1.05-.33,2.1-.47,3.15a8.33,8.33,0,0,1-.1,1.33,26,26,0,0,0-.55,4.48c-.1,1-.11,2-.23,3s-.19,2.11-.35,3.16a8.14,8.14,0,0,1-.06,1c-.13.43-.65.37-.95.61s-.26.43-.1.57a.71.71,0,0,0,.14.1,1.41,1.41,0,0,1,.76,1.67,16.23,16.23,0,0,1-.25,1.82,3.87,3.87,0,0,0-.06,1.66,3.72,3.72,0,0,1,0,1,14.15,14.15,0,0,0-.21,3.5.88.88,0,0,1-.23.61,2.09,2.09,0,0,0-.35.56,1,1,0,0,0,.19,1.09.73.73,0,0,1,.3.57c0,.61-.12,1.22-.12,1.84s.13,1.11.12,1.67-.17,1.21-.19,1.82a4.47,4.47,0,0,1-.14,1.15,1.16,1.16,0,0,0,0,.66,12.31,12.31,0,0,1,.19,2,2.61,2.61,0,0,0,.28.95.73.73,0,0,1,0,.8,1,1,0,0,0-.06,1.24,2,2,0,0,1,.14.65c.27,1.88.52,3.76.67,5.66a2.12,2.12,0,0,0,.17.8,2.52,2.52,0,0,1,.37,1.1c0,.12.17.28.3.36.66.41,1.34.8,2,1.2s1.31.23,1.87.65a18.58,18.58,0,0,1,2.92.72c.48.12,1,.2,1.46.31a2.21,2.21,0,0,1,1.77.27.55.55,0,0,1,.31.69,14.31,14.31,0,0,0-.68,2.59,8.13,8.13,0,0,1-.14,1,16,16,0,0,0-.58,4.3,3.3,3.3,0,0,1-.09,1,6,6,0,0,0-.2,2.15c0,.72-.09,1.45-.11,2.17a16.19,16.19,0,0,0-.11,3.34,3.39,3.39,0,0,1-.06.83c0,.33-.06.67-.06,1,0,1.84.06,3.68.08,5.51,0,.23,0,.45,0,.67a23.92,23.92,0,0,0,0,4.86,6.4,6.4,0,0,1-.06,2,5.79,5.79,0,0,0,0,1.5,6.27,6.27,0,0,1,0,1.5,7.48,7.48,0,0,0,0,1.34c0,1,.17,1.88.26,2.82.1,1.22.17,2.45.19,3.68a2.09,2.09,0,0,0,0,.66,19.91,19.91,0,0,1,.45,3c.19,1.22.3,2.44.46,3.66a6,6,0,0,0,.51,2.77.29.29,0,0,1,0,.16c-.08,1,.34,2,.24,3a1.35,1.35,0,0,0,.13.65,4.41,4.41,0,0,1,.34,1.28,12.89,12.89,0,0,0,.34,1.64c.12.43.36.82.46,1.25a28,28,0,0,0,1.11,3.69,3.84,3.84,0,0,1,.2.81,2.79,2.79,0,0,0,.74,1.47.75.75,0,0,0,.91.21,6.65,6.65,0,0,0,.77-.34,1,1,0,0,0,.48-.65,5.83,5.83,0,0,0-.33-3.45,13.63,13.63,0,0,1-.66-1.89c-.12-.65-.43-1.27-.58-1.91a21.3,21.3,0,0,1-.74-4.28,1.87,1.87,0,0,0-.11-.66,17.31,17.31,0,0,1-.66-3.78c-.17-1.33-.23-2.67-.35-4-.07-.72-.14-1.45-.28-2.16a16.69,16.69,0,0,1-.34-4,4.26,4.26,0,0,0-.06-1,20.7,20.7,0,0,1-.29-4.16c0-.56-.06-1.12-.09-1.68,0-.83,0-1.67-.11-2.5a6.25,6.25,0,0,1,.14-1q0-.42,0-.84c0-1.84-.09-3.69-.13-5.53,0-.17,0-.33,0-.5,0-1.17.11-2.34,0-3.51a5.85,5.85,0,0,1,.09-1.5,3.35,3.35,0,0,0,0-1,11.22,11.22,0,0,1-.08-3.17,20.87,20.87,0,0,1,.31-3.15,2.71,2.71,0,0,0,0-1.17,5.93,5.93,0,0,1,.13-2.65,4.16,4.16,0,0,0,.14-1.49,3.91,3.91,0,0,1,.06-.83c.12-1,.25-2,.37-3s.36-1.28,1.42-1.1c1.43.24,2.88.26,4.31.5a37.43,37.43,0,0,0,4.49.39,8.75,8.75,0,0,1,1.16.14,24,24,0,0,0,4.15.52,3.92,3.92,0,0,1,.83.1,11.66,11.66,0,0,0,2.5.26,5.6,5.6,0,0,1,1,.06,14.77,14.77,0,0,0,2.82.23c.56,0,.68.12.78.65a12.09,12.09,0,0,1,.31,3,2.07,2.07,0,0,0,.12,1,4.33,4.33,0,0,1,.24,1.63,5.62,5.62,0,0,0,.15,1c.2,1,.49,2,.62,2.94a26.79,26.79,0,0,0,.87,4.09,17,17,0,0,0,2.11,5.08,1.9,1.9,0,0,1,.21.62,3.16,3.16,0,0,0,1,1.9,2,2,0,0,1,.57.82,10.62,10.62,0,0,0,1.53,2.38,20.57,20.57,0,0,0,3,2.91,1.31,1.31,0,0,0,.28.17,24,24,0,0,0,3.06,1.38,10.13,10.13,0,0,1,1.23.53,2.09,2.09,0,0,0,.61.24,9.91,9.91,0,0,1,1.61.47,13.66,13.66,0,0,0,2.27.55c1,.11,1.89.25,2.82.41a15.21,15.21,0,0,0,5.17,0,9.7,9.7,0,0,1,1.33-.08,5.56,5.56,0,0,0,1,0c.76-.15,1.51-.35,2.27-.55a2.2,2.2,0,0,0,.62-.23,4.39,4.39,0,0,1,1.84-.76,1.63,1.63,0,0,0,.61-.26,20,20,0,0,0,2.09-1.39,9.07,9.07,0,0,1,2.08-1.38A2,2,0,0,0,191,315a6,6,0,0,1,1.32-1.25l2.45-2a2.14,2.14,0,0,0,.47-.48c.33-.55.91-.82,1.31-1.29s.8-.93,1.23-1.37a8.09,8.09,0,0,1,.88-.77.29.29,0,0,1,.28.07,2.71,2.71,0,0,1,.43.89,7.87,7.87,0,0,0,1.18,2.56c.16.3.37.56.54.85a8.42,8.42,0,0,0,1.76,2.22,3,3,0,0,1,.57.61,2.44,2.44,0,0,0,1.14.94,4.09,4.09,0,0,1,1,.58,15.37,15.37,0,0,0,2.45,1.43,4.33,4.33,0,0,0,1.91.54,1.86,1.86,0,0,0,1.63-.68,2.85,2.85,0,0,0,.65-1.16,2.1,2.1,0,0,0-.16-1.78,3.48,3.48,0,0,1-.54-1.39c-.15-1-1.07-1.67-1.46-2.6a2.84,2.84,0,0,0-.61-.79,2.48,2.48,0,0,0-.67-.48,2.54,2.54,0,0,1-.92-.7,5.74,5.74,0,0,0-1.38-1.22,2.91,2.91,0,0,1-.49-.44,15.88,15.88,0,0,0-1.36-1.47,8.52,8.52,0,0,0-2.1-1.63,1.43,1.43,0,0,1-.8-.8c-.12-.25-.24-.51-.37-.75a1.34,1.34,0,0,0-.64-.53,1.53,1.53,0,0,0-1.58.2,4.27,4.27,0,0,0-.71.7c-.64.7-1.22,1.47-1.91,2.11a17,17,0,0,0-1.36,1.47,4,4,0,0,1-.95.93,7.51,7.51,0,0,0-1.91,1.86,4.28,4.28,0,0,1-1.48,1.33,3.44,3.44,0,0,0-1.24,1.09,2.87,2.87,0,0,1-1.15,1,12.92,12.92,0,0,0-1.42.88c-.61.39-1.2.81-1.82,1.18s-1.07.6-1.62.87a11.76,11.76,0,0,1-1.82.81,6.73,6.73,0,0,1-3.11.5,1.75,1.75,0,0,0-1,.08,3.86,3.86,0,0,1-1.65.16,15.91,15.91,0,0,1-2.65-.43,2.2,2.2,0,0,0-1-.1,2.75,2.75,0,0,1-2-.23,3.25,3.25,0,0,0-.65-.14l-2.29-.5c-1.4-.78-3.1-1-4.28-2.17-.08-.07-.21-.08-.31-.14a8.4,8.4,0,0,1-2.78-2.81c-.58-1-1.24-2-1.79-3s-1.12-2.05-1.64-3.09a5.91,5.91,0,0,1-.45-1.07,18.46,18.46,0,0,0-.66-2.07,8.29,8.29,0,0,1-.55-2.08,5.21,5.21,0,0,0-.29-1.3,12.25,12.25,0,0,1-.67-2.58,11.12,11.12,0,0,0-.45-2,6.85,6.85,0,0,1-.35-2,8.63,8.63,0,0,0-.21-1.32c0-.21-.11-.43-.16-.64a.51.51,0,0,1,.38-.48l.67-.05a15.78,15.78,0,0,0,2.67-.11c.89-.18,1.77-.19,2.65-.3a15,15,0,0,0,3.94-.6,6.07,6.07,0,0,1,1.48-.29,11.54,11.54,0,0,0,3.57-.83.73.73,0,0,1,.32-.06,3.19,3.19,0,0,0,1.29-.32,19.12,19.12,0,0,1,2.54-.79,6.15,6.15,0,0,0,1.13-.34,4,4,0,0,0,1.64-1.11c.35-.44.36-.43.78-.08.25.22.52.42.77.64a1.49,1.49,0,0,0,1.73.14,1.57,1.57,0,0,0,.88-1.65,5.64,5.64,0,0,0-.2-.81,20.63,20.63,0,0,0-1.86-4.29,5,5,0,0,1-.61-1.19c-.37-1.17-1.09-2.2-1.42-3.39a1.88,1.88,0,0,1-.24-1.75,1.11,1.11,0,0,0-.26-1.09c-.78-.89-1.15-2-1.86-3a.76.76,0,0,1-.11-.31c-.17-.59-.29-1.2-.49-1.77a13.15,13.15,0,0,1-.58-1.74,6.26,6.26,0,0,0-.39-1.1,9.73,9.73,0,0,1-.7-1.88c-.21-1.45-.9-2.76-1.09-4.21a1.1,1.1,0,0,0-.16-.47,6,6,0,0,1-.72-2.21,2,2,0,0,0-.53-1c-.15-.13-.13-.28-.13-.45a3.63,3.63,0,0,0,0-1c-.53-1.94-1.08-3.87-1.63-5.8a.75.75,0,0,0,0-.16,9.68,9.68,0,0,1-.5-1.77c-.42-1.74-.62-3.52-1.15-5.23a14.67,14.67,0,0,1-.37-1.45,6.16,6.16,0,0,1-.16-1.66c.05-.63-.4-1.15-.5-1.76,0-.11,0-.23,0-.34-.07-.38-.15-.76-.23-1.14a15.3,15.3,0,0,1-.36-1.63,12.8,12.8,0,0,1-.39-2.14,5,5,0,0,0-.48-2.1,1.22,1.22,0,0,1,0-.33,6.59,6.59,0,0,0-.16-1,5.23,5.23,0,0,1-.27-1.47,5,5,0,0,0-.16-1.16c-.36-1.36-.48-2.75-.71-4.12a2.53,2.53,0,0,1-.08-.66,5.53,5.53,0,0,0-.25-2.15,13.27,13.27,0,0,1-.26-3.66.26.26,0,0,1,.06-.16c.09,0,.23-.13.28-.09a2.73,2.73,0,0,1,.63.54c1.21,1.45,2.44,2.9,3.67,4.34,1.44,1.69,2.87,3.41,4.48,5a9.89,9.89,0,0,1,1.56,1.73,2.63,2.63,0,0,0,.44.5c1.06.92,1.86,2.09,3,2.94a16.55,16.55,0,0,0,2.41,2.54c.74.68,1.45,1.39,2.24,2a23.87,23.87,0,0,1,2.14,1.87,11,11,0,0,0,1.79,1.49,14.46,14.46,0,0,1,1.36,1c1,.8,2,1.62,3,2.39,1.29,1,2.67,1.83,3.91,2.88a2.64,2.64,0,0,0,1.46.77.7.7,0,0,1,.42.25,3.81,3.81,0,0,0,2,1.43,1.05,1.05,0,0,1,.3.15l3.11,2a49.32,49.32,0,0,0,4.32,2.54c1.75.88,3.5,1.76,5.27,2.57a24.05,24.05,0,0,0,3.4,1.4c.42.13.86.17,1.28.34a15.89,15.89,0,0,0,6.06,1.11c.48,0,1,0,1.45.05-.17.84-.3,1.7-.39,2.55a6,6,0,0,0-.2,1.58,10.87,10.87,0,0,0,.05,1.14c0,.64,0,1.28.06,1.91a1.74,1.74,0,0,0,.29.89l0,.12a1,1,0,0,0,.42,1,1.21,1.21,0,0,0,1.53.07,2.4,2.4,0,0,0,.63-.55l.16-.26a1.43,1.43,0,0,0,.46-.77,3.62,3.62,0,0,0,.44-1.54,6.62,6.62,0,0,1,.44-1.59.39.39,0,0,1,.55-.17c.66.41,1.33.81,2,1.24a6.61,6.61,0,0,0,2.17.81,2.87,2.87,0,0,0,2.08-.34,1.56,1.56,0,0,0,.66-2.15,7.41,7.41,0,0,0-1.64-2.1,12.08,12.08,0,0,1-1.31-1.27s0-.11,0-.16.05-.11.09-.11l1.32-.17a2.94,2.94,0,0,0,1.1-.38,1.43,1.43,0,0,0,.55-1.76c-.07-.15-.16-.29-.23-.44a1.24,1.24,0,0,0-.86-.73,2.79,2.79,0,0,1-1.26-.79.28.28,0,0,1,0-.29,10.42,10.42,0,0,1,1.41-1.17,8.19,8.19,0,0,0,1.59-1.46,3.93,3.93,0,0,0,.86-1.61,1.18,1.18,0,0,0-.23-1.11,1.41,1.41,0,0,0-.82-.54l-1.8-.37a.24.24,0,0,1-.18-.36,4.09,4.09,0,0,0,.47-.87c.15-.54.38-1,.56-1.57a7.68,7.68,0,0,0,.55-2.77,1.63,1.63,0,0,0-.91-1.49,1.51,1.51,0,0,0-1.73.06,12.42,12.42,0,0,0-1.95,1.82,33.67,33.67,0,0,0-2.28,3.28,6.39,6.39,0,0,0-.83,1,1.5,1.5,0,0,0-.45.52,5.73,5.73,0,0,1-2.26,2.39,2.49,2.49,0,0,0-1.73-.49.86.86,0,0,1-.47-.13A4.3,4.3,0,0,0,217,244a14.75,14.75,0,0,1-2.65-.31c-.6-.07-1.14-.45-1.78-.38a8.41,8.41,0,0,0-2.74-.67.52.52,0,0,1-.16-.06,19.47,19.47,0,0,1-2.11-1c-.72-.44-1.58-.6-2.26-1.08a8.27,8.27,0,0,0-2.07-1.06,1.81,1.81,0,0,1-.53-.4,8.47,8.47,0,0,0-2-1.26,7.93,7.93,0,0,1-2.1-1.35,3.84,3.84,0,0,0-1.13-.7,11.94,11.94,0,0,1-2.46-1.4,13.88,13.88,0,0,0-2.71-1.64,3.47,3.47,0,0,1-1-.56,4,4,0,0,0-1.64-1.11c-.14,0-.25-.22-.37-.33s-.3-.36-.49-.43a5,5,0,0,1-1.39-.91,12.94,12.94,0,0,0-1.26-.82,12.68,12.68,0,0,1-2.52-1.64,2.36,2.36,0,0,0-.57-.35,14.28,14.28,0,0,1-3-2.16c-1-1-2.15-1.78-3.1-2.81a.92.92,0,0,0-.41-.28c-.53-.12-.74-.67-1.19-.88a12,12,0,0,0-2.51-2.21,15.86,15.86,0,0,1-2.08-1.93c-.61-.65-1.22-1.3-1.89-1.9-1-.84-1.53-2.06-2.56-2.87a3,3,0,0,1-.49-.67,10,10,0,0,0-2-2.48,26.39,26.39,0,0,0-2.33-2.63,1.07,1.07,0,0,0-.38-.32,3.75,3.75,0,0,1-.65-.45,20.84,20.84,0,0,0-.89-2.36,19.07,19.07,0,0,0,3.43-3.17,2.33,2.33,0,0,1,.47-.47,4,4,0,0,0,1.06-1.28c.6-1,1.28-2,1.8-3s1.17-2,1.59-3.13,1.29-2.11,1.37-3.39a.84.84,0,0,1,.15-.3,6.33,6.33,0,0,0,.78-2l.63-.08a.54.54,0,0,0,.14.24,1.62,1.62,0,0,0,1.85.33c.6-.4,1.22-.78,1.8-1.21a7,7,0,0,1,2.26-1.08,6,6,0,0,0,1.53-.66,14.25,14.25,0,0,1,1.31-.75,3,3,0,0,0,1.55-1.47,1.2,1.2,0,0,1,.19-.27,10.33,10.33,0,0,0,2.16-3.13c.39-.87.84-1.7,1.3-2.53a3.09,3.09,0,0,0,.41-1.08,4.57,4.57,0,0,1,.6-1.73,2.62,2.62,0,0,0,.26-.62c.21-.86.53-1.69.74-2.56.3-1.25.73-2.47,1.15-3.68a7.7,7.7,0,0,0,.4-1.26c.07-.44.3-.84.41-1.27a19.46,19.46,0,0,0,.44-2.12c.07-.5.17-1,.22-1.49.11-1.28.55-2.5.56-3.8a19.47,19.47,0,0,1,.24-2l.18-1.66c0-.39.1-.78.14-1.17a13.15,13.15,0,0,1,.17-1.66c.13-.56-.21-1.11,0-1.65a5.67,5.67,0,0,1,.31-2c.24-1.71.38-3.43.74-5.12a6.1,6.1,0,0,1,.55-1.57c.3-.6.62-1.19.88-1.8a1,1,0,0,0-.25-1.08,1,1,0,0,0-1.07-.32,5.79,5.79,0,0,0-1.52.68,25.37,25.37,0,0,0-2.94,2.21,12.24,12.24,0,0,0-2.25,2.24.76.76,0,0,1-.24.23c-1.5,1-2.44,2.61-3.87,3.69a.76.76,0,0,0-.2.27,22.28,22.28,0,0,1-1.86,2.37,4.39,4.39,0,0,0-1.29,1.72,3.71,3.71,0,0,1-.43.72,4.7,4.7,0,0,0-1,1.9c0,.17-.47.27-.58.16a1.39,1.39,0,0,1-.25-.23,21.05,21.05,0,0,1-1.45-2.25,6.1,6.1,0,0,0-.64-1,.67.67,0,0,0-.74-.29,2.53,2.53,0,0,1-.53.12,43.22,43.22,0,0,1,.75-8.1,2.77,2.77,0,0,0,0-.39,3.06,3.06,0,0,0,.13-.43c.24-.92.2-1.89.49-2.8a21.21,21.21,0,0,0,.45-3,14,14,0,0,0,.16-2.33,25.43,25.43,0,0,0-.74-5.29,5.09,5.09,0,0,0-1.25-2.14c-.12-.12-.23-.24-.34-.37a.64.64,0,0,1,0-.63c.27-.28.62-.44.85-.8.35-.56.8-1.07,1.17-1.63s1-1.08,1.37-1.67a6.23,6.23,0,0,1,1.65-1.39,2.47,2.47,0,0,0,.39-.32c1.06-1.2,2.55-1.79,3.82-2.68a7.44,7.44,0,0,1,1.09-.41c.41-.18.78-.42,1.18-.63,1-.53,2.09-.78,3.11-1.23a2.33,2.33,0,0,1,1-.17c1.39,0,2.79,0,4.18,0a35.93,35.93,0,0,0,4,0,10.17,10.17,0,0,1,2.34,0,33.58,33.58,0,0,0,4,.07,10.16,10.16,0,0,0,2.33-.21,15.2,15.2,0,0,1,1.65-.22c1.55-.13,3.1-.38,4.65-.55.44,0,.88-.12,1.32-.13,1.79,0,3.58-.11,5.36-.15a3.46,3.46,0,0,0,1.62-.36.65.65,0,0,1,.48-.08,5.43,5.43,0,0,0,2.8,0c.39,0,.78-.08,1.16-.14a37.62,37.62,0,0,0,4.48-.59,7,7,0,0,1,1.66-.06c.56,0,1.05-.36,1.63-.34a13.31,13.31,0,0,0,3.32-.42,12.14,12.14,0,0,1,1.49-.21c1.33-.13,2.65-.38,4-.49s2.38-.63,3.63-.36a1.25,1.25,0,0,0,.49-.09c.91-.25,1.82-.54,2.74-.74,1.58-.35,3.18-.63,4.77-.94.66-.13,1.31-.28,2-.44,1-.25,2.05-.56,3.09-.78a15.93,15.93,0,0,0,2.12-.43c.73-.26,1.54-.3,2.28-.52,1.44-.45,2.92-.7,4.39-1a3.54,3.54,0,0,0,1.27-.39,1,1,0,0,1,.47-.16,6.83,6.83,0,0,0,1.78-.44c.56-.22,1.24-.09,1.7-.59a1.81,1.81,0,0,0,.61.15c1.32-.23,2.63-.5,3.95-.74.66-.11,1.33-.15,2-.32s1.24-.5,1.88-.67a20.65,20.65,0,0,0,3.16-1.08,2.49,2.49,0,0,1,.61-.26A10.26,10.26,0,0,0,285.81,97a1,1,0,0,1,1.23.2,5.41,5.41,0,0,1,.56.62,12.54,12.54,0,0,0,2,1.94,9.24,9.24,0,0,0,1,.68c.4.3.81.59,1.2.91a3,3,0,0,0,.88.47,7,7,0,0,0,2,.38,2.61,2.61,0,0,0,2.49-.66c.37-.25.74-.51,1.08-.79a2,2,0,0,0,.54-.63c.23-.5.39-1,1-1.28.13,0,.21-.25.29-.4.61-1.19,1.22-2.38,1.81-3.59A5.15,5.15,0,0,0,302.24,91.54ZM115.59,231.27a1.05,1.05,0,0,1,0-.74.12.12,0,0,1,.1,0s.08.07.08.11C115.82,230.86,115.9,231.14,115.59,231.27Zm114.84,9.13a.16.16,0,0,1,.15,0s0,.08.06.12-.08.08-.12.07S230.34,240.48,230.43,240.4ZM300.29,93.27a7.6,7.6,0,0,1-.36.94,15.63,15.63,0,0,1-2.32,4,5.55,5.55,0,0,1-1.93,1.56,2.19,2.19,0,0,1-1.63,0,5.06,5.06,0,0,1-1.47-.78c-.94-.71-1.87-1.42-2.76-2.18a4.24,4.24,0,0,1-.79-1.07.51.51,0,0,1,.13-.44c.33-.3.72-.53,1-.83a1.21,1.21,0,0,0,.1-1.67,1.78,1.78,0,0,0-.94-.66c-.44-.12-.43-.3-.1-.68.51-.59,1.24-1,1.65-1.65a.41.41,0,0,1,.12-.11c.88-.49,1.75-1,2.64-1.45.4-.2.83-.32,1.24-.5a3.71,3.71,0,0,1,1.47-.29,3.5,3.5,0,0,1,2.68,1.16,5.31,5.31,0,0,1,.64.78c.21.32.39.66.59,1-.17.52.23,1,.18,1.47A9.76,9.76,0,0,1,300.29,93.27Z"/><path d="M99.44,153l.56-.6a9.51,9.51,0,0,1,.88-1c.9-.82,1.8-1.66,2.66-2.53a1,1,0,0,1,.95-.19c.21.05.4.19.61.25a.42.42,0,0,0,.31-.07,1.24,1.24,0,0,0,.43-.88c0-.07-.13-.22-.17-.21a26.22,26.22,0,0,1-3.3.47c-.33.05-.67.06-1,.14a10.73,10.73,0,0,1-2.06.64,10,10,0,0,0-1.93.54c-.29.08-.63-.27-.61-.62a1.16,1.16,0,0,1,.5-.84,7.62,7.62,0,0,1,2-.78,3,3,0,0,0,1.44-.37,3.13,3.13,0,0,1,1.46-.31,10,10,0,0,0,2.32-.3,29.51,29.51,0,0,0,3.43-.73c1-.35,2.18-.42,3.24-.79a1.43,1.43,0,0,1,.48-.13c1.07,0,2.1-.35,3.15-.45,1.33-.12,2.65-.38,4-.37a2.54,2.54,0,0,0,1.56-.55,1.07,1.07,0,0,1,1.51.05.75.75,0,0,0,.77.21,9.94,9.94,0,0,1,2.66-.27c2.12-.12,4.23-.33,6.36-.34.67,0,1.34-.13,2-.12,1.17,0,2.33-.17,3.5-.21l3.51-.06a3.55,3.55,0,0,0,1.48-.18.58.58,0,0,1,.48.05.72.72,0,0,0,1-.12.85.85,0,0,1,.62-.19c1.17,0,2.34,0,3.51,0a10.08,10.08,0,0,1,2.16.28c.74.43,1.64.2,2.4.57a.61.61,0,0,0,.33,0c1.44-.27,2.88.12,4.32,0l3.63.66c.7.51,1.62.37,2.34.83,1.09.26,2.16.59,3.26.76a9,9,0,0,0,2-.07c.56,0,1.11-.11,1.67-.14a1,1,0,0,1,1,.56c.08.14.15.3.22.45a.75.75,0,0,1-.05.79,1.69,1.69,0,0,1-1.34.88s-.07.07-.09.12,0,.2.16.19.55-.06.83-.07a1.3,1.3,0,0,1,.66.06,1.75,1.75,0,0,0,1.59.11.67.67,0,0,1,.74.29,6.1,6.1,0,0,1,.64,1,21.05,21.05,0,0,0,1.45,2.25,1.39,1.39,0,0,0,.25.23c.11.11.54,0,.58-.16a4.7,4.7,0,0,1,1-1.9,3.71,3.71,0,0,0,.43-.72,4.39,4.39,0,0,1,1.29-1.72,22.28,22.28,0,0,0,1.86-2.37.76.76,0,0,1,.2-.27c1.43-1.08,2.37-2.68,3.87-3.69a.76.76,0,0,0,.24-.23,12.24,12.24,0,0,1,2.25-2.24,25.37,25.37,0,0,1,2.94-2.21,5.79,5.79,0,0,1,1.52-.68,1,1,0,0,1,1.07.32,1,1,0,0,1,.25,1.08c-.26.61-.58,1.2-.88,1.8a6.1,6.1,0,0,0-.55,1.57c-.36,1.69-.5,3.41-.74,5.12a5.67,5.67,0,0,0-.31,2c-.25.54.09,1.09,0,1.65a13.15,13.15,0,0,0-.17,1.66c0,.39-.09.78-.14,1.17l-.18,1.66a19.47,19.47,0,0,0-.24,2c0,1.3-.45,2.52-.56,3.8,0,.49-.15,1-.22,1.49a19.46,19.46,0,0,1-.44,2.12c-.11.43-.34.83-.41,1.27a7.7,7.7,0,0,1-.4,1.26c-.42,1.21-.85,2.43-1.15,3.68-.21.87-.53,1.7-.74,2.56a2.62,2.62,0,0,1-.26.62,4.57,4.57,0,0,0-.6,1.73,3.09,3.09,0,0,1-.41,1.08c-.46.83-.91,1.66-1.3,2.53a10.33,10.33,0,0,1-2.16,3.13,1.2,1.2,0,0,0-.19.27,3,3,0,0,1-1.55,1.47,14.25,14.25,0,0,0-1.31.75,6,6,0,0,1-1.53.66,7,7,0,0,0-2.26,1.08c-.58.43-1.2.81-1.8,1.21a1.62,1.62,0,0,1-1.85-.33.52.52,0,0,1-.15-.28,11.12,11.12,0,0,1,.06-1.16.45.45,0,0,1,.16-.29,6.52,6.52,0,0,1,1.17-.94,16.75,16.75,0,0,1,2.87-1.36,20.05,20.05,0,0,0,3.55-1.87,1.14,1.14,0,0,0,.34-.35,25.82,25.82,0,0,0,2.65-4.07c.13-.24.22-.51.33-.76a9.36,9.36,0,0,1,.47-1.07,5,5,0,0,0,.89-2.49,1.48,1.48,0,0,1,.25-.79,9.9,9.9,0,0,0,1.11-3.14c.33-1.31.82-2.56,1.19-3.85a5.29,5.29,0,0,0,.47-1.74.53.53,0,0,1,0-.17,5.24,5.24,0,0,0,.48-1.22,9.08,9.08,0,0,1,.1-1.15,11.82,11.82,0,0,0,.3-1.31,4.9,4.9,0,0,0,.07-.67,6.7,6.7,0,0,1,.23-1.65,14.55,14.55,0,0,0,.34-1.62,1.38,1.38,0,0,0,.08-.48,5.39,5.39,0,0,1,.1-2,1.67,1.67,0,0,0,0-.5,10,10,0,0,1,.24-3,21.24,21.24,0,0,0,.41-3.64,3.23,3.23,0,0,1,.16-.81,7.1,7.1,0,0,0,.38-3,.17.17,0,0,0-.08-.13.87.87,0,0,0-.32,0,.71.71,0,0,0-.28.18c-.31.32-.6.66-.91,1a8.12,8.12,0,0,1-1.45,1.36,1.2,1.2,0,0,0-.37.34c-1,1.34-2.43,2.31-3.4,3.68a12.32,12.32,0,0,0-2.17,2.55,10,10,0,0,0-1.88,2.54c-.24.38-.4.8-.64,1.17a1.42,1.42,0,0,0-.14,1.27c.21.69-.12,1.13-.88,1.29a.81.81,0,0,0-.56.31,8.51,8.51,0,0,1-1.35,1.9c-.11.09-.1.17-.08.29.07.63-.31,1.16-.43,1.76,0,.12-.23.22-.37.3s-.37.3-.33.54c.11.55-.11,1.1.06,1.67a3.11,3.11,0,0,1,0,1.32c-.11.66-.12,1.33-.17,2a.72.72,0,0,0,0,.33,3.43,3.43,0,0,1,0,2.3,6.13,6.13,0,0,1-.23,1.64,1.05,1.05,0,0,0,0,.5,10.59,10.59,0,0,1-.44,3.63,22.27,22.27,0,0,0-.66,3.79,25.89,25.89,0,0,1-.59,2.78,6.4,6.4,0,0,1-.31,1.14c-.41,1.16-.71,2.35-1,3.53a7.09,7.09,0,0,1-.84,2.17.84.84,0,0,0-.15.3c-.08,1.28-.93,2.25-1.37,3.39s-1.08,2.08-1.59,3.13-1.2,2-1.8,3a4,4,0,0,1-1.06,1.28,2.33,2.33,0,0,0-.47.47A21.21,21.21,0,0,1,159,203.1a4.72,4.72,0,0,0-.78.62c-1,1.08-2.31,1.55-3.49,2.29a.8.8,0,0,1-.47.15,3.5,3.5,0,0,0-1.87.66,2.64,2.64,0,0,1-.74.39,14,14,0,0,0-3.14,1.14,4.3,4.3,0,0,1-1.14.26,1.78,1.78,0,0,0-.77.3,2.81,2.81,0,0,1-1.24.47,26.13,26.13,0,0,1-3.3.56c-.72,0-1.44.13-2.17.16-1,0-1.89.06-2.84.18a18.17,18.17,0,0,1-2.66,0c-.56,0-1.11-.11-1.67-.18A2.27,2.27,0,0,1,132,210a15.22,15.22,0,0,0-4.12-.71c-.84.09-1.64-.35-2.49-.22-.15,0-.32-.09-.48-.12-1.47-.35-2.82-1.08-4.3-1.39a1.56,1.56,0,0,1-.43-.25,37.36,37.36,0,0,0-3.35-2.22,12.49,12.49,0,0,0-2.07-1.39,14.44,14.44,0,0,1-2.82-2.35,1.61,1.61,0,0,0-.49-.45,9.68,9.68,0,0,1-2.91-2.21,2,2,0,0,1-.34-.37c-.56-1-1.47-1.66-2.1-2.57s-1.21-1.74-1.81-2.62a27.2,27.2,0,0,1-1.54-2.4,5.63,5.63,0,0,0-.57-.81.41.41,0,0,0-.44-.18,2,2,0,0,1-1.6-.29,33,33,0,0,0-3.11-1.65c-1.07-.46-2.21-.77-3.32-1.14a12.73,12.73,0,0,1-4-1.25,10.62,10.62,0,0,1-2.32-1.62,33.17,33.17,0,0,1-3.09-3.07,10.93,10.93,0,0,1-.91-1.21,11.36,11.36,0,0,0-1.72-2,5.44,5.44,0,0,1-1.22-1.59c-.39-.67-.81-1.33-1.22-2a11.28,11.28,0,0,1-1.85-5.14,2,2,0,0,0-.06-.5,7,7,0,0,1-.26-2.65c0-.16,0-.33,0-.49-.1-.93-.55-1.82-.27-2.79,0-.08-.06-.2-.1-.3a2.83,2.83,0,0,1-.22-1.79,1.4,1.4,0,0,0,0-.5c-.1-.78-.21-1.54-.31-2.32,0-.49-.33-1-.07-1.48a4.84,4.84,0,0,1-.33-1.46c-.11-.49-.14-1-.22-1.49-.11-.72-.23-1.43-.35-2.15a36,36,0,0,1-.67-5.48,18.67,18.67,0,0,0-.36-2.66,2.11,2.11,0,0,1-.09-.49,15.87,15.87,0,0,0-.12-2.67,2.28,2.28,0,0,1,.15-.81,1.08,1.08,0,0,1,1-.7,1.81,1.81,0,0,1,1.48.66,19.21,19.21,0,0,0,1.94,2.09,14,14,0,0,1,1.66,2.09,15.62,15.62,0,0,0,1.86,2.35c.47.45.78,1.08,1.22,1.58.85,1,1.57,2,2.43,3a18,18,0,0,1,2,2.67,8,8,0,0,0,1,1.55c.5.5.58,1.2,1,1.69a10.78,10.78,0,0,1,1.08,1.5c.19.27.33.58.51.85,0,.06.19.07.29.07a.17.17,0,0,0,.12-.1,9.82,9.82,0,0,0,.74-2.55A21.07,21.07,0,0,1,94.12,151c.18-.34.33-.71.51-1.05a.4.4,0,0,0,0-.47c-.75-.74-.86-1.81-1.36-2.67a.33.33,0,0,1,0-.16c-.08-1.18-.54-2.28-.7-3.44a1.63,1.63,0,0,1,0-.49c0-.14.27-.2.15-.41a6.34,6.34,0,0,1-1-3c-.55-1.36-.36-2.88-.92-4.24-.05-.72-.14-1.45-.14-2.17a25.3,25.3,0,0,1,.13-3.69,2.44,2.44,0,0,0,0-.66,1.52,1.52,0,0,1,.15-.81c.29-.6.59-1.2.88-1.81a2.63,2.63,0,0,1,.87-1c.27-.19.57-.34.69-.69a.47.47,0,0,1,.23-.23c.78-.29,1.57-.58,2.36-.85a12,12,0,0,1,3-.43.86.86,0,0,0,.68-.42,1.9,1.9,0,0,0,.46-1,25.53,25.53,0,0,1,.64-3.45,5.48,5.48,0,0,1,.36-.92,1.15,1.15,0,0,0,.11-.47,3.45,3.45,0,0,1,.58-1.89,5.47,5.47,0,0,0,.54-1.4,13.5,13.5,0,0,1,1.3-3.08c.48-.94,1-1.87,1.44-2.83a24.29,24.29,0,0,1,1.5-2.42c.23-.38.49-.75.74-1.12a3.68,3.68,0,0,1,.59-.8,6.47,6.47,0,0,0,1.54-2.17,2.57,2.57,0,0,1,.44-.71,12.09,12.09,0,0,0,1.72-2.25c.69-1,1.48-1.81,2.17-2.76.26-.36.57-.69.82-1.06a15.1,15.1,0,0,1,1.91-2.32A2.44,2.44,0,0,0,117,91a2.87,2.87,0,0,1,1-1.12,1,1,0,0,0,.34-.37A5.19,5.19,0,0,1,119.81,88c1.3-1,2.63-2.08,4-3.11a4.72,4.72,0,0,1,.72-.43,4.2,4.2,0,0,0,.6-.3c1-.78,2.13-1.21,3.12-1.94a1.67,1.67,0,0,1,.28-.18c1.15-.57,2.23-1.27,3.37-1.86l1.79-.91c.54-.28,1.1-.55,1.65-.82a2,2,0,0,1,.45-.21c1.46-.36,2.8-1.12,4.3-1.38,1-.44,2-.68,3-1,2.38-.82,4.81-1.46,7.23-2.13a21.11,21.11,0,0,1,2.64-.46,26.53,26.53,0,0,1,4-.5,9.39,9.39,0,0,0,1.15-.17,13.53,13.53,0,0,1,3.18-.1,12.07,12.07,0,0,1,3-.22c.78,0,1.56.12,2.34.17,2.4.15,4.76.63,7.13,1a6,6,0,0,0,.84.1,11,11,0,0,1,2.79.53c1.24.36,2.51.55,3.75.88a38.58,38.58,0,0,1,5.14,1.47,4.5,4.5,0,0,0,1,.24,5.37,5.37,0,0,1,.83.11c1.32.46,2.69.73,4,1.12,2.36.68,4.68,1.48,7.06,2a5.28,5.28,0,0,1,.79.28,5.64,5.64,0,0,0,1.77.51,2.26,2.26,0,0,1,.8.21,19.79,19.79,0,0,0,3.54,1,1.76,1.76,0,0,1,.33.07c1.48.66,3.14.77,4.62,1.45a1.68,1.68,0,0,0,.32.09,12.38,12.38,0,0,1,2.63.52c.83.34,1.76.26,2.59.62a32,32,0,0,1,3.62.66,3.17,3.17,0,0,1,1.23.5.6.6,0,0,0,.63.06,1.3,1.3,0,0,1,1,0,37.55,37.55,0,0,0,4.07,1,5.64,5.64,0,0,1,1,.25l3,1a4.43,4.43,0,0,0,.82.18,9.15,9.15,0,0,1,2.27.53,27.85,27.85,0,0,0,4.4,1c1.2.2,2.4.44,3.6.66a5.76,5.76,0,0,0,.82.11,13.91,13.91,0,0,1,3.16.35,4.23,4.23,0,0,0,.5,0,9.7,9.7,0,0,1,3,.32,23.94,23.94,0,0,1,2.79.49,5.6,5.6,0,0,0,1,.13,21,21,0,0,1,3.17.33,6.2,6.2,0,0,0,2.15.11,2.43,2.43,0,0,1,1,0,3.15,3.15,0,0,0,1.64,0,.69.69,0,0,1,.49,0,4.61,4.61,0,0,0,2,.22,11.39,11.39,0,0,1,1.17,0,6.21,6.21,0,0,0,2.15,0,1,1,0,0,1,.5,0,6.44,6.44,0,0,0,2.66,0,2.29,2.29,0,0,1,.83,0,11.1,11.1,0,0,0,3.15.15,8.93,8.93,0,0,1,1.16,0,9.16,9.16,0,0,0,2.34,0,4.94,4.94,0,0,1,2,0,2.89,2.89,0,0,0,.83,0,2.15,2.15,0,0,1,.83,0,4,4,0,0,0,1.81-.08c.78-.08,1.55-.18,2.34-.23a1.73,1.73,0,0,0,1.17-.57c.15-.16.31-.32.45-.49a8.48,8.48,0,0,1,1.74-1.8c.4-.27.62-.76,1-1.09a14.11,14.11,0,0,1,4.68-2.5,5.85,5.85,0,0,1,3.63,0,4.78,4.78,0,0,1,2.7,2.12,10.75,10.75,0,0,1,1.3,3.43,5.15,5.15,0,0,1-.4,3.27c-.59,1.21-1.2,2.4-1.81,3.59-.08.15-.16.35-.29.4-.58.25-.74.78-1,1.28a2,2,0,0,1-.54.63c-.34.28-.71.54-1.08.79a2.61,2.61,0,0,1-2.49.66,7,7,0,0,1-2-.38,3,3,0,0,1-.88-.47c-.39-.32-.8-.61-1.2-.91a9.24,9.24,0,0,1-1-.68,12.54,12.54,0,0,1-2-1.94,5.41,5.41,0,0,0-.56-.62,1,1,0,0,0-1.23-.2A10.26,10.26,0,0,1,283,98.08a2.49,2.49,0,0,0-.61.26,20.65,20.65,0,0,1-3.16,1.08c-.64.17-1.24.51-1.88.68s-1.32.2-2,.31c-1.32.24-2.63.51-3.95.74a1.81,1.81,0,0,1-.61-.15c-.46.5-1.14.37-1.7.59a6.83,6.83,0,0,1-1.78.44,1,1,0,0,0-.47.16,3.54,3.54,0,0,1-1.27.39c-1.47.33-2.95.58-4.39,1-.74.22-1.55.26-2.28.52a15.93,15.93,0,0,1-2.12.43c-1,.22-2.06.53-3.09.78-.65.16-1.3.31-2,.44-1.59.31-3.19.59-4.77.94-.92.2-1.83.49-2.74.74a1.25,1.25,0,0,1-.49.09c-1.25-.27-2.42.25-3.63.36s-2.65.36-4,.49a12.14,12.14,0,0,0-1.49.21,13.31,13.31,0,0,1-3.32.42c-.58,0-1.07.33-1.63.34a7,7,0,0,0-1.66.06,37.62,37.62,0,0,1-4.48.59c-.38.06-.77.09-1.16.14a5.43,5.43,0,0,1-2.8,0,.61.61,0,0,0-.47.08,3.53,3.53,0,0,1-1.63.36c-1.78,0-3.57.11-5.36.15-.44,0-.88.08-1.32.13-1.55.17-3.1.42-4.65.55a15.2,15.2,0,0,0-1.65.22,10.16,10.16,0,0,1-2.33.21,33.58,33.58,0,0,1-4-.07,10.17,10.17,0,0,0-2.34,0,35.93,35.93,0,0,1-4,0c-1.39-.06-2.79,0-4.18,0a2.33,2.33,0,0,0-1,.17c-1,.45-2.12.7-3.11,1.23-.4.21-.77.45-1.18.63a7.44,7.44,0,0,0-1.09.41c-1.27.89-2.76,1.48-3.82,2.68a2.47,2.47,0,0,1-.39.32,6.23,6.23,0,0,0-1.65,1.39c-.4.59-1,1.07-1.37,1.67s-.82,1.07-1.17,1.63c-.23.36-.58.52-.85.8a.64.64,0,0,0,0,.63c.11.13.22.25.34.37a5.09,5.09,0,0,1,1.25,2.14,25.43,25.43,0,0,1,.74,5.29,14,14,0,0,1-.16,2.33,21.21,21.21,0,0,1-.45,3c-.29.91-.25,1.88-.49,2.8a4.29,4.29,0,0,1-1.6,2.47.81.81,0,0,1-.47.14,1.64,1.64,0,0,1-1.38-.82.56.56,0,0,1-.09-.31,2.62,2.62,0,0,1,.31-1.62,1.65,1.65,0,0,0,.26-.78,34.67,34.67,0,0,1,.77-3.78,10.23,10.23,0,0,0,.26-2c0-.16,0-.33,0-.5.05-.72.16-1.45.14-2.17a16.88,16.88,0,0,0-.24-2,7.21,7.21,0,0,0-.58-1.92.66.66,0,0,0-.69-.39,6.77,6.77,0,0,0-2.76.58,2,2,0,0,1-.62.23,1.57,1.57,0,0,0-.95.65c-.42.52-.83,1.06-1.25,1.58a2.92,2.92,0,0,1-.47.46,1.42,1.42,0,0,1-2.09-.2,3.35,3.35,0,0,1-.77-1.28,12.46,12.46,0,0,0-1.71-3.61,2.09,2.09,0,0,0-2.18-.91,7.89,7.89,0,0,0-2.41.68,3.67,3.67,0,0,0-1.59,1.43,9.19,9.19,0,0,0-.79,1.48c-.33,1-1,1.88-1.25,2.92a3.92,3.92,0,0,1-.65,1.16,1.81,1.81,0,0,1-2,.67,1.5,1.5,0,0,1-1.31-1.16A5.26,5.26,0,0,0,146.1,128a1.88,1.88,0,0,1-.3-.6,6.85,6.85,0,0,0-2.21-2.89,1,1,0,0,0-.29-.16.73.73,0,0,0-.79,0,3.36,3.36,0,0,1-.71.43,3.58,3.58,0,0,0-2,1.64c-.64.84-1,1.85-1.67,2.7a3,3,0,0,0-.39,1.09,1.83,1.83,0,0,1-2.16,1.13c-.26-.1-.52-.22-.77-.34a.79.79,0,0,1-.41-.5,3.85,3.85,0,0,1-.16-.65,3,3,0,0,0-.43-1.25,7.1,7.1,0,0,1-1-2.46.52.52,0,0,0-.13-.31c-.86-.67-1.1-1.79-1.85-2.54a3.6,3.6,0,0,0-.78-.63,1.67,1.67,0,0,0-1.43-.22,6.61,6.61,0,0,0-2.38,1.2,21.17,21.17,0,0,1-1.87,1.4,1.81,1.81,0,0,0-.63.77,13.66,13.66,0,0,1-1.45,2.62c-.42.59-.66,1.29-1.11,1.87a1.78,1.78,0,0,1-1.28.69,1.2,1.2,0,0,1-1.08-.33,2.78,2.78,0,0,1-.82-1.23,16.13,16.13,0,0,0-.83-2.19c-.14-.36-.32-.71-.45-1.08a7.49,7.49,0,0,0-.7-1.52,10.45,10.45,0,0,1-.72-1.51,6.66,6.66,0,0,0-.87-1.23.67.67,0,0,0-.26-.2,4.87,4.87,0,0,0-3.09-.48c-.43.09-.81.38-1.24.51a3.66,3.66,0,0,0-1.64,1.37,2.44,2.44,0,0,0-.39.92c-.34,1.35-.69,2.7-1,4.07a3,3,0,0,1-.84,1.58,1.45,1.45,0,0,1-2.08.35,1.19,1.19,0,0,1-.39-.31,5.28,5.28,0,0,1-.55-.84,4.9,4.9,0,0,0-.86-1.22,10.59,10.59,0,0,1-.83-1.23A3.39,3.39,0,0,0,98,124.91a6.46,6.46,0,0,0-3,.82,3.29,3.29,0,0,0-1.69,2c-.13.49-.33,1-.46,1.44a4.1,4.1,0,0,0-.09,1c0,1.45.1,2.89.15,4.34,0,.16-.06.36,0,.49.32.62.1,1.34.4,2a2.63,2.63,0,0,1,.26,1,25.08,25.08,0,0,0,.59,3.11,7.64,7.64,0,0,1,.23,1.66,3.26,3.26,0,0,0,.26,1.13,4.74,4.74,0,0,1,.29,1.29,15.1,15.1,0,0,0,.7,3.45,2,2,0,0,1-.16,1.59,13.36,13.36,0,0,0-1.28,3.79.33.33,0,0,0,.33.31c.15,0,.38,0,.45-.12a14.35,14.35,0,0,0,1.55-2.58c.17-.35.33-.71.52-1.05a1.17,1.17,0,0,1,1.44-.5c.11,0,.21.07.32.1a.4.4,0,0,0,.43-.16c.11-.13.19-.28.3-.41a.31.31,0,0,1,.44,0,.87.87,0,0,1,.26.39,1,1,0,0,1,0,.33,6.83,6.83,0,0,1-.5,1.59,2.28,2.28,0,0,0-.23,1.31Zm22.88-6.32a1.68,1.68,0,0,0,.84-1,.28.28,0,0,0-.08-.26.34.34,0,0,0-.31,0,.52.52,0,0,0-.23.21,1.21,1.21,0,0,0-.19,1.1l-.22,0s.07,0,.09,0Zm-18.14,8.72a2.24,2.24,0,0,0,.36-.33c.37-.48.74-1,1.08-1.46s.76-1.1,1.1-1.67.84-.88.93-1.52c.83-1,1.25-2.22,2.17-3.12a.2.2,0,0,0,.05-.15,1.07,1.07,0,0,0-.06-.3s-.1,0-.14,0a13,13,0,0,1-2.22.69,2.94,2.94,0,0,0-.62.24.31.31,0,0,0-.15.25,2.73,2.73,0,0,1-.15,1.47c-.4.85-.62,1.77-1.08,2.6a9.18,9.18,0,0,0-.85,2c-.13.47-.53.87-.4,1.4Zm32.66-1.91c-.3.47-.57.95-.9,1.39a1.38,1.38,0,0,1-1.43.63,1.81,1.81,0,0,1-1.49-1.38c-.05-.16-.05-.33-.09-.5a.62.62,0,0,0-.14-.19l-.11.12c-.13.17-.27.35-.39.53a13.89,13.89,0,0,1-2,2.46.84.84,0,0,1-.43.22,1.72,1.72,0,0,1-2.15-1.12,4.52,4.52,0,0,1-.25-1c0-.22,0-.45,0-.67a.32.32,0,0,0-.22-.19.36.36,0,0,0-.29.1,2.92,2.92,0,0,0-.29.4c-.24.38-.45.78-.72,1.13a1.76,1.76,0,0,1-1.82.56,1.67,1.67,0,0,1-1-1.4,3.28,3.28,0,0,1,0-.83c0-.56.13-1.11.18-1.66a.49.49,0,0,0-.06-.32.33.33,0,0,0-.26-.13,1.3,1.3,0,0,0-.68.7,7.25,7.25,0,0,1-2.27,2.62,1.08,1.08,0,0,1-1.5,0,1.84,1.84,0,0,1-.85-1c0-.13-.18-.17-.25-.07a10.11,10.11,0,0,0-1,1.53,10.44,10.44,0,0,1-1.59,2.14,1.17,1.17,0,0,1-.89.39c-.11,0-.23,0-.34,0a1.27,1.27,0,0,1-1.23-.71,1.16,1.16,0,0,1-.17-1.11c.1-.26.22-.51.31-.78a3.63,3.63,0,0,0,.13-.64.39.39,0,0,0-.1-.3s-.21,0-.28.08c-.33.3-.42.79-.84,1a.5.5,0,0,1-.47.08l-.3-.14c-.11-.06-.23-.05-.28.07a.47.47,0,0,0,0,.31.5.5,0,0,0,.16.28.61.61,0,0,1,.12.89l-1.15,1.65a1.47,1.47,0,0,1-.66.49,2.21,2.21,0,0,1-1.13.23,1.24,1.24,0,0,1-1.22-1c-.08-.32-.13-.65-.22-1a.15.15,0,0,0-.26-.06,9.15,9.15,0,0,0-.8.85c-.45.57-.85,1.18-1.3,1.75a5.24,5.24,0,0,1-2.26,1.68.92.92,0,0,1-.49.07c-.93-.15-1.39-.56-1.49-1.32A3.57,3.57,0,0,1,99.6,159c.29-1,.49-1.94.73-2.91,0,0,0-.11-.08-.12a.23.23,0,0,0-.16,0,7.94,7.94,0,0,0-.57.59c-.72.86-1.36,1.79-2.15,2.56s-1.13,1.38-1.71,2.06a1.11,1.11,0,0,0-.21.95c.11.6.26,1.2.35,1.8a10.09,10.09,0,0,0,.6,2.42,14,14,0,0,1,.46,1.6c.33,1.19.65,2.37,1,3.55a24.56,24.56,0,0,1,.94,3.56,4.88,4.88,0,0,0,.22.81,27.32,27.32,0,0,1,1.13,3.67,2,2,0,0,0,.19.46c.28.73.55,1.46.85,2.18a14.54,14.54,0,0,0,1,2.1c1,1.62,2,3.22,2.94,4.86a9.19,9.19,0,0,0,1.46,2.24c.71,1.2,1.7,2.21,2.45,3.39a7.53,7.53,0,0,0,1.23,1.36,22.66,22.66,0,0,0,3.95,3.36c.09.06.13.18.21.26a12.9,12.9,0,0,0,3.17,2.14,13.5,13.5,0,0,1,2.69,1.69,14.47,14.47,0,0,0,1.15.95,5.8,5.8,0,0,0,1.41.51,9.08,9.08,0,0,0,1.73.51c.66,0,1.28.41,1.94.49a37.51,37.51,0,0,0,4.49.45,2.75,2.75,0,0,1,1,.19,13.16,13.16,0,0,0,2.94.46,3.5,3.5,0,0,0,.65,0c.84,0,1.68,0,2.51-.13a11.29,11.29,0,0,0,2.66-.2,1.91,1.91,0,0,1,.66.06,1.67,1.67,0,0,0,.49,0,19.1,19.1,0,0,0,3.44-.71,8,8,0,0,1,2.24-.63,1.33,1.33,0,0,0,.63-.22,5.91,5.91,0,0,1,1.07-.45,15.54,15.54,0,0,0,2.28-1,4.46,4.46,0,0,1,1.39-.54,7,7,0,0,0,2.57-1.16c1.71-1.16,3.17-2.64,4.79-3.93a2.33,2.33,0,0,0,.34-.36,26.91,26.91,0,0,0,1.72-2.26,10.22,10.22,0,0,1,.77-1.09,7.79,7.79,0,0,0,1.73-3.21,7.15,7.15,0,0,1,.82-2,6.78,6.78,0,0,0,.94-2.31,3.41,3.41,0,0,1,.34-.76,4.66,4.66,0,0,0,.28-.6,40,40,0,0,0,1.4-5.15.53.53,0,0,1,0-.17,17,17,0,0,0,.72-3.94,4.39,4.39,0,0,1,.15-1.16A4.82,4.82,0,0,0,170,173a1.26,1.26,0,0,1,.12-.48,6.52,6.52,0,0,0,.31-3,3.77,3.77,0,0,1,0-1.34,5.08,5.08,0,0,0,0-2.16,8,8,0,0,1,0-2.67,3.71,3.71,0,0,0,0-2.14,2.46,2.46,0,0,1-.05-.67c-.06-1.06-.12-2.12-.2-3.17a3.23,3.23,0,0,0-.17-.82c-.07-.2-.17-.47-.34-.54s-.36.16-.49.36a1.14,1.14,0,0,1-.33.36,1.76,1.76,0,0,1-2.42-.29c-.11-.12-.2-.27-.31-.4a22.41,22.41,0,0,1-1.66-2.3c-.09-.13-.19-.12-.26,0a2.38,2.38,0,0,0-.31.59,2,2,0,0,1-1,1.12.85.85,0,0,1-.8.11,2.8,2.8,0,0,1-.85-.5,3.78,3.78,0,0,1-.74-.9,10,10,0,0,1-.67-1.35,18.65,18.65,0,0,0-1-2c-.06-.09-.09-.21-.15-.3s-.11-.1-.13-.09-.2.11-.21.18a4.6,4.6,0,0,0-.08,2.15.9.9,0,0,1,0,.49,4.85,4.85,0,0,1-.86,2.16,1.48,1.48,0,0,1-.52.4,1.55,1.55,0,0,1-1.69-.32,7.71,7.71,0,0,1-1.25-2c-.16-.35-.32-.71-.5-1.05,0-.08-.18-.12-.28-.16s-.08.06-.1.1a6.81,6.81,0,0,0-.4,1.28,8.07,8.07,0,0,1-.39,1.44,1.75,1.75,0,0,1-1.16,1.13l-.48.16a1.4,1.4,0,0,1-1.26-.23,4,4,0,0,1-1.35-1.88c-.14-.37-.23-.75-.36-1.12s-.37-.93-.57-1.39c0,0-.09,0-.13,0s-.13,0-.14.06a2.45,2.45,0,0,0-.25.61,6.62,6.62,0,0,1-1,2.45,1.65,1.65,0,0,1-1.59.74.9.9,0,0,1-.59-.27,6.3,6.3,0,0,1-.78-1.08,3,3,0,0,1-.34-.94c-.11-.65-.15-1.32-.23-2,0-.09-.1-.17-.17-.24a.2.2,0,0,0-.14,0,4.73,4.73,0,0,1-.45.71.81.81,0,0,0-.16.76.93.93,0,0,1-.07.49,11.49,11.49,0,0,1-1.43,2.24.59.59,0,0,1-.28.18c-1.27.34-1.84.31-2.61-1.07a1.58,1.58,0,0,1-.19-.64c0-.14.11-.29.18-.43-.13,0-.13-.06-.06,0S136.78,153.28,136.84,153.49Zm99.57-47.65a5.4,5.4,0,0,0,2-.31,2.12,2.12,0,0,1,.82-.14,27.85,27.85,0,0,0,4.65-.45c1.17-.12,2.27-.58,3.44-.69a7.59,7.59,0,0,1,2.43-.59,6.64,6.64,0,0,0,1-.23,4.4,4.4,0,0,1,1.77-.39c.36,0,.73-.29,1.11-.3a22.51,22.51,0,0,0,3.26-.7c.38-.08.74-.26,1.12-.31a10.51,10.51,0,0,0,2.58-.71,5.49,5.49,0,0,1,1-.27c1.44-.23,2.79-.78,4.21-1.09,1.2-.26,2.38-.62,3.57-.9s2.6-.64,3.92-.85c1.6-.25,3.18-.61,4.76-1a15.22,15.22,0,0,0,1.88-.69.19.19,0,0,0,.06-.13c-.06-.08-.12-.21-.2-.22a9.85,9.85,0,0,0-3.16-.17,3.82,3.82,0,0,1-1.17,0,2.32,2.32,0,0,0-.83,0,20,20,0,0,1-4.16,0c-.62,0-1.23-.1-1.84-.09-2.57.07-5.13-.08-7.7-.11a2,2,0,0,1-1-.2,1.17,1.17,0,0,0-.93-.09,7.33,7.33,0,0,1-3.16-.09,16.63,16.63,0,0,0-3-.45,8.5,8.5,0,0,1-1-.16,3.85,3.85,0,0,0-.82-.11,4.34,4.34,0,0,1-1.64-.26,4.84,4.84,0,0,0-1.65-.27,9.94,9.94,0,0,1-1.33-.11c-1.33-.17-2.65-.34-4-.55a17.5,17.5,0,0,1-2.16-.19c-.7-.2-1.42-.32-2.13-.47s-1.31-.26-2-.41l-1.95-.44a9.52,9.52,0,0,1-1.94-.5c-.63-.3-1.31-.23-1.94-.48-.4-.17-.85-.23-1.27-.39-.84-.31-1.71-.54-2.56-.81a4,4,0,0,1-1.77-.43c-.64-.19-1.28-.41-1.92-.61a2.7,2.7,0,0,0-.64-.14,49.77,49.77,0,0,1-5.43-1c-.16,0-.31-.13-.47-.16a30.17,30.17,0,0,0-3.11-.66,9.65,9.65,0,0,1-2.12-.45c-2-.59-4-1.1-5.91-1.82A2.31,2.31,0,0,0,204,84.1a1.67,1.67,0,0,1-1.13-.24A8.28,8.28,0,0,0,200.7,83a56,56,0,0,0-5.8-1.6,1.92,1.92,0,0,1-.48-.15,13.54,13.54,0,0,0-2.54-.85,4.15,4.15,0,0,0-1.55-.57,8.12,8.12,0,0,0-1.61-.42,13.71,13.71,0,0,0-2.28-.53c-1.86-.57-3.68-1.31-5.59-1.73-.7-.16-1.37-.42-2.1-.53s-1.51-.4-2.26-.57-1.32-.24-2-.36c-.28-.06-.54-.14-.82-.19s-.42-.28-.51-.56-.35-.2-.55,0-.29.35-.55.31a9.62,9.62,0,0,1-2-.27,4,4,0,0,0-1-.19c-.5-.07-1-.08-1.5-.19a32.68,32.68,0,0,0-3.82-.36,1.62,1.62,0,0,0-.66,0,10.06,10.06,0,0,1-2.84.16,12.79,12.79,0,0,0-2.83.25c-.11,0-.22,0-.33.06a.9.9,0,0,1-.87-.36c-.16-.17-.2-.16-.43.19a.51.51,0,0,1-.4.23,19.25,19.25,0,0,0-3.28.66,5.74,5.74,0,0,1-.82.19,38.23,38.23,0,0,0-6.3,1.67c-1.06.35-2.12.71-3.19,1-.64.19-1.29.33-1.94.52-1,.27-1.85.77-2.85,1a2.07,2.07,0,0,0-.46.2,16.63,16.63,0,0,0-1.78.92c-.6.42-1.29.66-1.91,1-1.48.9-3.09,1.55-4.52,2.52-.65.44-1.34.81-2,1.2a5.69,5.69,0,0,0-2,1.5c-.11.16-.37.22-.56.35a4.26,4.26,0,0,0-.81.58,4.16,4.16,0,0,1-1,.85,4.42,4.42,0,0,0-1.24,1.12,5.31,5.31,0,0,1-.65.76,19,19,0,0,0-3,3.19c-.4.53-.83,1-1.23,1.58s-.66,1-1.07,1.49c-.72.78-1.28,1.69-1.94,2.52-.38.48-.73,1-1.1,1.48a25.83,25.83,0,0,0-2.9,4.06,42.05,42.05,0,0,0-2.94,4.67,22.13,22.13,0,0,0-1.42,2.84c-.62,1.55-1.31,3.08-1.84,4.67-.17.53-.34,1.06-.47,1.6-.29,1.25-.61,2.5-1,3.73a.76.76,0,0,0,.2.76,3.25,3.25,0,0,0,.61.56,8,8,0,0,1,1.36,1.24,5.21,5.21,0,0,0,.47.47.33.33,0,0,0,.44-.06,5.7,5.7,0,0,0,.3-.78c.07-.26.07-.55.12-.83a7.57,7.57,0,0,1,2.12-3.72,8.16,8.16,0,0,1,2.63-1.41,2,2,0,0,0,.48-.14c1-.49,2-.08,3-.3.91.38,2,.36,2.62,1.33a.92.92,0,0,0,.41.27,2.68,2.68,0,0,1,1.1,1c.45.63.78,1.34,1.21,2s.66,1.4,1.08,2.06a4.89,4.89,0,0,1,.27.79.39.39,0,0,0,.24.19.34.34,0,0,0,.27-.12,10.51,10.51,0,0,0,.76-1.3,8.56,8.56,0,0,1,2.69-2.92,2.1,2.1,0,0,1,.61-.27c.15-.07.34-.09.45-.2a13.07,13.07,0,0,1,2.45-1.43,3,3,0,0,1,1.75-.39,6.53,6.53,0,0,1,3.26,1.2,4.75,4.75,0,0,1,1.65,1.87,3.23,3.23,0,0,0,.38.74,5.57,5.57,0,0,1,1.36,2.65,3.81,3.81,0,0,0,.55.33c.14.06.47-.16.54-.31a1,1,0,0,0,.06-.16,2.22,2.22,0,0,1,.83-1.41c.4-.38.78-.79,1.18-1.18a6,6,0,0,1,4.55-1.78,1.41,1.41,0,0,1,.65.14,6.63,6.63,0,0,1,2.66,2,3.43,3.43,0,0,0,.4.54,3.58,3.58,0,0,1,1.35,2.23,6.55,6.55,0,0,0,.53.39c.15.09.4,0,.54-.29.28-.48.53-1,.82-1.45a12.66,12.66,0,0,1,1.41-2.08,6.6,6.6,0,0,1,3.07-2,9.47,9.47,0,0,1,3.47-.43,4.77,4.77,0,0,1,2.84,1.31,5.24,5.24,0,0,1,1.44,2,2.72,2.72,0,0,0,.7,1.13.47.47,0,0,0,.6.09,9.79,9.79,0,0,1,2.63-1.45,1.7,1.7,0,0,0,1.15-1.12,2.24,2.24,0,0,1,.78-1.06,16.59,16.59,0,0,0,2-2c.53-.64,1.11-1.26,1.69-1.85a17.49,17.49,0,0,0,1.73-1.82c1.27-1,2.58-2,3.82-3a2.8,2.8,0,0,1,.72-.43,5.79,5.79,0,0,0,1.16-.66,2.75,2.75,0,0,1,.73-.4,34.8,34.8,0,0,0,3.41-1.39,7.3,7.3,0,0,1,3.38-.82,1.9,1.9,0,0,0,.65-.14,5.09,5.09,0,0,1,2.48-.18,4.65,4.65,0,0,0,1.33.12,14.17,14.17,0,0,1,3.68,0,.43.43,0,0,0,.16,0,5.68,5.68,0,0,1,1.84.08,7.32,7.32,0,0,0,1.49.11c.66-.06,1.33,0,2-.08a12.3,12.3,0,0,1,2,0,1.22,1.22,0,0,0,.33,0,21.66,21.66,0,0,1,2.65-.28c1.38-.24,2.78-.24,4.17-.44s2.67-.15,4-.21a5.14,5.14,0,0,0,1.66,0c.55,0,1.11-.09,1.66-.14a8.51,8.51,0,0,1,1-.06c.73,0,1.45,0,2.17,0a2.38,2.38,0,0,0,1.57-.28,1.49,1.49,0,0,1,1.13-.21,6.65,6.65,0,0,0,1.67-.06,15.51,15.51,0,0,0,1.67-.19,6.62,6.62,0,0,0,1.47-.3c.57-.23,1.1.18,1.65,0a2.64,2.64,0,0,1,.49-.08c.43-.1.85-.23,1.29-.3s.89-.06,1.33-.12a12.08,12.08,0,0,0,1.48-.28A7,7,0,0,1,236.41,105.84ZM76.69,142.48c-.11.09-.25.16-.26.23a7.77,7.77,0,0,0,0,.83,17.23,17.23,0,0,1,.23,2.15c0,1.4.48,2.74.45,4.13a25.73,25.73,0,0,1,.75,4.28c.13,1.27.34,2.54.46,3.82s.26,2.55.34,3.83a3.56,3.56,0,0,0,.22,1.48c0,1.23.36,2.42.44,3.65a13.63,13.63,0,0,0,.59,3.27A13.24,13.24,0,0,0,81.27,173,9.77,9.77,0,0,0,83.43,176a2.64,2.64,0,0,1,.62.78A5.51,5.51,0,0,0,85.13,178c.33.31.62.64.93.95a30.48,30.48,0,0,0,2.55,2.66c1.35,1.08,2.68,2.2,4.51,2.36a.92.92,0,0,1,.32.1,15.43,15.43,0,0,0,1.6.48c.6.12,1.16.37,1.75.48a5.47,5.47,0,0,1,2.13.91,5.68,5.68,0,0,0,.9.42s.1,0,.13-.07.08-.1.07-.13c-.29-.78-.55-1.58-.89-2.33a2.77,2.77,0,0,1-.29-1.62.67.67,0,0,0-.49-.76,1.51,1.51,0,0,1-.79-1.21l0-.17a27.5,27.5,0,0,0-1-4.56c-.45-1.56-.86-3.12-1.27-4.68-.19-.7-.33-1.41-.49-2.11-.29-1.25-.56-2.51-.87-3.75a3.46,3.46,0,0,0-.89-1.59,24.19,24.19,0,0,1-3.32-4.15c-.75-1.24-1.7-2.35-2.41-3.61-.61-1.07-1.33-2.06-2-3.09a10.34,10.34,0,0,0-.83-1.05c-.9-1.06-1.88-2.06-2.68-3.21a3,3,0,0,0-.44-.51,12.06,12.06,0,0,1-1.76-2.2,28.78,28.78,0,0,0-2.47-2.93C77,142.55,76.82,142.53,76.69,142.48Zm72.48,2.72a3.85,3.85,0,0,1,.26,1.45,14.31,14.31,0,0,0,.67,3.41s.07.07.11.1.2.05.24-.1a8.89,8.89,0,0,0,.57-1.89,8.75,8.75,0,0,1,.7-3.07c.05-.1-.12-.33-.26-.37l-1.29-.33c-.22-.06-.44-.1-.65-.14-.36-.06-.57.13-.49.44S149.12,145,149.17,145.2ZM114,146l-2,.37c-.16,0-.29.24-.19.37a2.1,2.1,0,0,1,.15,2.21c-.13.3-.28.6-.4.92a1.33,1.33,0,0,0-.1.48.34.34,0,0,0,.13.27.44.44,0,0,0,.32,0,.43.43,0,0,0,.23-.21c.06-.21,0-.47.12-.64a18.42,18.42,0,0,1,1.56-2.35,6.86,6.86,0,0,0,.76-1.09s-.06-.2-.13-.25A1.41,1.41,0,0,0,114,146Zm19.38-1.29c-.22,0-.55,0-.88.09a.52.52,0,0,0-.45.43c-.16.7-.33,1.41-.44,2.12a5.91,5.91,0,0,0-.15,1.45c0,.11.06.15.14.08a1,1,0,0,0,.35-.34,19.23,19.23,0,0,1,1.66-3.26,1.07,1.07,0,0,0,.07-.32C133.71,144.81,133.65,144.74,133.39,144.69Zm33.38,3.93c0-.05,0-.27-.05-.49s-.07-.33-.27-.36l-1.15-.14c-.29,0-.52.07-.53.26a.86.86,0,0,0,.08.46,9.33,9.33,0,0,1,1.27,1.91c0,.07.18.08.29.1s.08-.07.1-.12A3.61,3.61,0,0,0,166.77,148.62Zm-26.93-1s.14,0,.15-.06a3.79,3.79,0,0,1,.57-1.2c.3-.4.3-1,.76-1.27a.33.33,0,0,0,0-.46c-.11-.11-.26-.26-.39-.26a4.06,4.06,0,0,0-1,.13.56.56,0,0,0-.47.74,4.21,4.21,0,0,1,.14,1.32,6.61,6.61,0,0,0,.08,1S139.81,147.58,139.84,147.6Zm4.72-2.65c.06.45.15,1.05.24,1.65,0,0,.07.1.11.1a.3.3,0,0,0,.15-.07c.07-.08.18-.16.21-.26.15-.64.3-1.29.43-1.94a.37.37,0,0,0-.4-.41.7.7,0,0,0-.69.61C144.6,144.68,144.59,144.74,144.56,145Zm11.24,1.7c-.09-.49-.17-1-.28-1.46,0-.19-.25-.19-.42-.18a.32.32,0,0,0-.34.28,3.69,3.69,0,0,0,.6,2.19s.14,0,.15,0C155.61,147.18,155.7,146.92,155.8,146.65Zm5.16-.09c0-.26,0-.37,0-.48s-.13-.39-.38-.32a3.71,3.71,0,0,0-.47.16.3.3,0,0,0-.16.4c.13.3.25.61.4.9a.38.38,0,0,0,.26.16.26.26,0,0,0,.21-.16C160.92,147,160.94,146.68,161,146.56Zm-32.79-1.32a.63.63,0,0,0-.1-.12.39.39,0,0,0-.47,0,1.85,1.85,0,0,0-.53,1.34c0,.08.09.24.14.24a.39.39,0,0,0,.29-.14c.23-.37.45-.76.67-1.14C128.19,145.36,128.17,145.29,128.17,145.24Zm-9.77.39c-.12-.06-.4.09-.39.2a4.52,4.52,0,0,0,.08.63.67.67,0,0,0,.15-.06.61.61,0,0,0,.33-.53A.31.31,0,0,0,118.4,145.63ZM173.92,157a1.48,1.48,0,0,0-.13-.21.19.19,0,0,0-.13.07.72.72,0,0,0-.15.27.65.65,0,0,0,.05.27.58.58,0,0,0,.25-.11A.68.68,0,0,0,173.92,157Zm-57.49-6.2c0-.1.27-.23,0-.27a1.19,1.19,0,0,0-.09.26Zm-13.6,6.44s0-.1-.09-.11-.2,0-.19.16.08.12.13.19Zm71.84-2.09-.17-.24c-.05.08-.14.16-.15.24s.1.16.15.24Z"/><path d="M73,295.59a1.38,1.38,0,0,1-1,1.07,1.49,1.49,0,0,1-1.92-.87,2.89,2.89,0,0,1-.19-.81,17.45,17.45,0,0,1,.1-4.51c.11-.55.29-1.08.41-1.63.08-.32.13-.65.18-1,0-.14-.23-.31-.35-.24a4.93,4.93,0,0,0-1,.6A3.09,3.09,0,0,1,68,289c-.37.12-.74.26-1.11.35a5.69,5.69,0,0,1-1,.12,1.71,1.71,0,0,1-1.5-.92.71.71,0,0,1-.1-.31,3.21,3.21,0,0,1,.73-2.33,11,11,0,0,1,3.53-2.49,3.63,3.63,0,0,0,1.15-.94.28.28,0,0,0,0-.29,1.64,1.64,0,0,0-.43-.24l-3-1.41-.59-.32a2.29,2.29,0,0,1-1.2-2.06.83.83,0,0,1,.09-.49,9.08,9.08,0,0,1,.63-1,1,1,0,0,1,.88-.4,10.83,10.83,0,0,1,1.5.12c.49.07,1,.22,1.47.33a4,4,0,0,1,1.93.95c.48.46,1.17.68,1.5,1.31a.23.23,0,0,1,0,.3.71.71,0,0,0-.1.14.75.75,0,0,1-.83.41,4.39,4.39,0,0,1-1.58-.52c-.28-.19-.59-.33-.88-.49a3.45,3.45,0,0,0-1.62-.24c-.1,0-.1.05,0,.14a1.19,1.19,0,0,0,.8.55,13.54,13.54,0,0,1,3.68,1.54,1.92,1.92,0,0,1,.44.25c.69.58,1.19,1.17.43,2.29a3.74,3.74,0,0,0-.27.42.34.34,0,0,0,0,.3,4.32,4.32,0,0,0,.53.4,1.37,1.37,0,0,1,.53,1.17,2.26,2.26,0,0,1-.12.83c-.44.92-.49,1.94-.85,2.89a5.94,5.94,0,0,0-.23,1.48.24.24,0,0,0,0,.15c.09,0,.22,0,.25-.08.2-.4.36-.81.56-1.21a7.88,7.88,0,0,1,.58-1,.89.89,0,0,1,1.33,0,1.53,1.53,0,0,1,.5,1c0,.73.06,1.45.1,2.18a4.86,4.86,0,0,0,.6,2.07c0,.06.17.08.26.08s.1-.07.1-.11c0-.62.13-1.23.14-1.84a10.24,10.24,0,0,1,.14-1.66,4.58,4.58,0,0,0,0-1.17,1.34,1.34,0,0,1,.6-1.3l.12-.11c.23-.22.24-.32.11-.58-.43-.84-.86-1.69-1.3-2.53a2.34,2.34,0,0,1-.23-1,1.74,1.74,0,0,1,.66-1.62A7.58,7.58,0,0,1,78,281.3a5.08,5.08,0,0,0,1.35-1c.83-.91,1.85-1.6,2.67-2.53.51-.58,1.2-1,1.76-1.54s1.22-1.14,1.86-1.67c.35-.28.71-.54,1.07-.8a1.83,1.83,0,0,0,.26-.21,31.05,31.05,0,0,1,3.42-3.65c.45-.77,1.32-1.21,1.69-2.05.43-.43.91-.82,1.3-1.29a12,12,0,0,0,.91-1.4,15.73,15.73,0,0,0,2.34-2.81,36.21,36.21,0,0,0,2.14-3.19,3.15,3.15,0,0,1,.72-.91,1.3,1.3,0,0,0,.35-.55,5.75,5.75,0,0,1,1.08-1.68,6.57,6.57,0,0,0,.67-1c.92-1.4,1.67-2.9,2.57-4.31a2.81,2.81,0,0,0,.3-.6c.41-1.16,1-2.24,1.48-3.37a27.19,27.19,0,0,1,1.63-3.29A16.72,16.72,0,0,1,109,240.9a12,12,0,0,0,.71-2.4,3.87,3.87,0,0,1,.36-1.45c.41-1,.66-2,1.08-3a3.31,3.31,0,0,0,.51-1.18,3.67,3.67,0,0,1,.5-1.23c.18-.4.37-.81.56-1.21s.38-.81.58-1.21a19.26,19.26,0,0,0,1-3.84,1.23,1.23,0,0,0-.27-.93l.11.06-.07-.07a19.84,19.84,0,0,0-1.51,3,10.69,10.69,0,0,1-1.11,2.05,4.71,4.71,0,0,0-.36.75c-.29.66-.56,1.34-.86,2a16.88,16.88,0,0,0-.9,2,3.11,3.11,0,0,1-1,1.49.94.94,0,0,0,.09-.12c-.22,0,0-.09-.06.11a5.14,5.14,0,0,1-.93,2.31,32.07,32.07,0,0,0-2,4c-.15.36-.31.72-.49,1.07a1.19,1.19,0,0,1-.71.66c-.14,0-.21.11-.18.21.15.52-.2.86-.48,1.19a6.37,6.37,0,0,0-1,1.71,8.28,8.28,0,0,1-1.21,2c-.49.6-1,1.24-1.4,1.87a18.67,18.67,0,0,0-1.16,1.64A22.43,22.43,0,0,0,97.07,255a3.53,3.53,0,0,1-.64,1,36.53,36.53,0,0,0-2.73,3.8c-.36.56-.76,1.1-1.16,1.63a2.47,2.47,0,0,1-.39.32c-.12.1-.34.19-.36.3-.07.67-.57,1.07-.94,1.56-1.3,1.74-2.6,3.49-3.94,5.2a21.7,21.7,0,0,1-2.19,2.31,51.81,51.81,0,0,0-3.93,3.63,4.83,4.83,0,0,1-2,1.55c-.5.53-1.22.81-1.69,1.34A8.32,8.32,0,0,1,75,279.17a1.3,1.3,0,0,1-1.14.06.66.66,0,0,1-.28-.17,1.91,1.91,0,0,1-.51-1.38,1,1,0,0,1,.23-.61A3.17,3.17,0,0,1,74.72,276a.9.9,0,0,0,.51-.41A4.66,4.66,0,0,1,77,274.08a6.6,6.6,0,0,0,2.08-1.64,7,7,0,0,1,1.4-1.2,2.59,2.59,0,0,0,.71-.69,6.43,6.43,0,0,1,1.63-1.66,5.6,5.6,0,0,0,1-1.08,5.25,5.25,0,0,0,.84-1,3.93,3.93,0,0,1,.82-1.05,18.48,18.48,0,0,0,2.39-3,3.67,3.67,0,0,1,.38-.56c1.06-1.08,1.77-2.44,2.72-3.6a8.34,8.34,0,0,0,.74-1.12A4.14,4.14,0,0,1,93,255.93c.51-.8,1.24-1.42,1.68-2.28A9.2,9.2,0,0,1,96,251.53a11.85,11.85,0,0,0,.85-1.42c.28-.42.65-.77.93-1.19a12.28,12.28,0,0,1,1.57-2.16,1,1,0,0,0,.18-.28l1.05-1.89c.63-.44.74-1.23,1.21-1.79a6.14,6.14,0,0,0,1-1.9c.18-.5.68-.71.82-1.24a7.52,7.52,0,0,1,.62-1.36c.23-.45.45-.9.7-1.34s.42-.65.62-1a1.91,1.91,0,0,0,.37-.74,4.48,4.48,0,0,1,.84-1.79c.29-.53.8-1,.8-1.63a20,20,0,0,0,1-1.75c.25-.55.45-1.11.74-1.66a25.43,25.43,0,0,0,1.94-3.69c.56-.7.69-1.65,1.31-2.32a2.41,2.41,0,0,0,.27-.61,2.43,2.43,0,0,1,.28-.61,8,8,0,0,0,1.3-2.13,14.5,14.5,0,0,1,1-2.11,29.2,29.2,0,0,1,2-3.49c.28-.35.45-.78.71-1.14a.75.75,0,0,1,.42-.23c.15,0,.44.28.44.45a2.9,2.9,0,0,1,0,.66,16,16,0,0,1-1,2.84c-.25.56-.47,1.13-.71,1.7a.39.39,0,0,0,0,.45.85.85,0,0,0,.79.12s.1-.06.12-.1a2.62,2.62,0,0,0,.19-.46c.21-.82.37-1.64.63-2.44s.72-1.5,1-2.31a4.42,4.42,0,0,1,.64-1.16.83.83,0,0,1,.75-.29c.14,0,.23,0,.26.18a1.83,1.83,0,0,1,.07.65,32,32,0,0,1-.91,3.22c-.36,1-.42,2-.7,2.93a.57.57,0,0,0,.3.55,11.09,11.09,0,0,0,2.29.47,4.63,4.63,0,0,1,1.81.31,8.52,8.52,0,0,0,2.44.48,2.77,2.77,0,0,1,.82.15,10,10,0,0,0,3.79.51c1.12,0,2.23,0,3.35,0a18.11,18.11,0,0,0,1.83.13,40.68,40.68,0,0,1,5.18-.09,41.19,41.19,0,0,0,6.18-.48c.93-.16,1.84-.45,2.76-.69a7.26,7.26,0,0,1,1.32-.21,28,28,0,0,0,3.31-.45,11.72,11.72,0,0,0,2-.82,1,1,0,0,0,.57-1.09c-.2-1.1-.09-2.22-.28-3.32a2.57,2.57,0,0,1,0-.83,20.83,20.83,0,0,0,.08-3.35,16.56,16.56,0,0,1,.57-4.65,5.23,5.23,0,0,1,.46-1.06.61.61,0,0,1,1,0,3,3,0,0,0,1.38,1.4,1.07,1.07,0,0,1,.38.32,26.39,26.39,0,0,1,2.33,2.63,10,10,0,0,1,2,2.48,3,3,0,0,0,.49.67c1,.81,1.59,2,2.56,2.87.67.6,1.28,1.25,1.89,1.9a15.86,15.86,0,0,0,2.08,1.93,12,12,0,0,1,2.51,2.21c.45.21.66.76,1.19.88a.92.92,0,0,1,.41.28c1,1,2.11,1.83,3.1,2.81a14.28,14.28,0,0,0,3,2.16,2.36,2.36,0,0,1,.57.35,12.68,12.68,0,0,0,2.52,1.64,12.94,12.94,0,0,1,1.26.82,5,5,0,0,0,1.39.91c.19.07.32.28.49.43s.23.29.37.33a4,4,0,0,1,1.64,1.11,3.47,3.47,0,0,0,1,.56,13.88,13.88,0,0,1,2.71,1.64,11.94,11.94,0,0,0,2.46,1.4,3.84,3.84,0,0,1,1.13.7,7.93,7.93,0,0,0,2.1,1.35,8.47,8.47,0,0,1,2,1.26,1.81,1.81,0,0,0,.53.4,8.27,8.27,0,0,1,2.07,1.06c.68.48,1.54.64,2.26,1.08a19.47,19.47,0,0,0,2.11,1,.52.52,0,0,0,.16.06,8.41,8.41,0,0,1,2.74.67c.64-.07,1.18.31,1.78.38A14.75,14.75,0,0,0,217,244a4.3,4.3,0,0,1,2.11.42.86.86,0,0,0,.47.13,3.27,3.27,0,0,1,2.17.74,1.74,1.74,0,0,1,.85,1.19,1.58,1.58,0,0,1-1.53,1.94,4.72,4.72,0,0,1-1-.07c-2-.46-4.08-.65-6.12-1-1-.18-2-.45-2.93-.68-.54-.13-1.09-.25-1.63-.4A13.86,13.86,0,0,1,206.1,245a9.23,9.23,0,0,0-1-.53,33.18,33.18,0,0,1-4.14-2.16,8.22,8.22,0,0,1-1.89-1.37,1.41,1.41,0,0,0-.38-.32,9.11,9.11,0,0,1-2.08-1.39,5.85,5.85,0,0,0-1.33-.71,3.19,3.19,0,0,1-1.54-.95.64.64,0,0,0-.27-.18c-1-.45-1.9-1.18-2.92-1.64a4.41,4.41,0,0,1-1.59-1.19,4.8,4.8,0,0,0-1.46-1.11c-.63-.35-1.24-.75-1.84-1.15-1.68-1.11-3.36-2.21-4.93-3.47a4.3,4.3,0,0,0-1.11-.74,2.72,2.72,0,0,1-.87-.75,10,10,0,0,0-1.56-1.5,1.9,1.9,0,0,0-1.52-.54,4.13,4.13,0,0,0-.22-.62,2.73,2.73,0,0,0-1.35-1.58c-.23-.09-.4-.37-.59-.56a5.13,5.13,0,0,0-.46-.47.66.66,0,0,0-.77-.1c0-.25-.13-.36-.34-.43-.06-.32-.29-.21-.48-.19a1.33,1.33,0,0,0-.8-1.44.37.37,0,0,0-.43.07c0-.39,0-.39-.41-.32a.73.73,0,0,0,0-.79,10.12,10.12,0,0,1-1.62-1.9c-.11-.18-.33-.29-.49-.45a13.94,13.94,0,0,1-1.69-1.83c-.13-.64-.71-1-.94-1.55a11.55,11.55,0,0,0-1.09-1.46c-.18-.28-.41-.53-.59-.8-.83-1.25-1.85-2.36-2.57-3.67a.28.28,0,0,0-.14-.1c-.1,0-.23-.14-.3-.1s-.31.18-.34.31a2.61,2.61,0,0,0,.71,2.59c.29.27.51.59.78.88.64.69,1.33,1.33,2,2s1.27,1.55,2,2.23a9.41,9.41,0,0,1,1.19,1.17,31.52,31.52,0,0,0,2.87,3c.12.12.2.26.31.39s.25.22.38.33c.34.33.68.65,1,1a2.55,2.55,0,0,1,.24.39c.17.05.32.12.47.18s.22.29.34.43a9.94,9.94,0,0,0,2.2,2.19,10.68,10.68,0,0,1,1.18,1.15c.06.14.08.33.19.43.64.62,1.29,1.23,2,1.82.25.22.58.35.83.56.6.5,1.2,1,1.76,1.55a9.22,9.22,0,0,0,1.67,1.38,2.93,2.93,0,0,1,.88.76,3.77,3.77,0,0,0,1.42,1.12,11.59,11.59,0,0,1,1.92,1.34,52.16,52.16,0,0,0,4.41,3.3c.29.18.56.38.84.57.87.59,1.76,1.17,2.67,1.71,1.58.94,3.09,2,4.64,3a7.56,7.56,0,0,0,.86.52c.74.38,1.51.72,2.24,1.13,1.32.73,2.7,1.34,4.06,2,1.67.78,3.37,1.5,5.05,2.25a6.82,6.82,0,0,0,1.41.51c1.44.26,2.81.74,4.24,1a4.2,4.2,0,0,0,1.15.16c1.13-.12,2.23.18,3.34.14a1.75,1.75,0,0,1,1.75,1.68.55.55,0,0,1-.11.31,14.09,14.09,0,0,0-1.12,2.23,10.85,10.85,0,0,1-.38,1.78c-.16.83-.34,1.64-.52,2.46,0,.16-.11.31-.16.47-.15.53-.34.79-.54.71s-.28-.43-.34-.7a8.64,8.64,0,0,1-.15-1.83,5,5,0,0,1,.7-2.72,5.85,5.85,0,0,0,.41-.92.35.35,0,0,0-.29-.48c-.56,0-1.12-.06-1.68-.06a15.89,15.89,0,0,1-6.06-1.11c-.42-.17-.86-.21-1.28-.34a24.05,24.05,0,0,1-3.4-1.4c-1.77-.81-3.52-1.69-5.27-2.57a49.32,49.32,0,0,1-4.32-2.54l-3.11-2a1.05,1.05,0,0,0-.3-.15,3.81,3.81,0,0,1-2-1.43.7.7,0,0,0-.42-.25,2.64,2.64,0,0,1-1.46-.77c-1.24-1-2.62-1.9-3.91-2.88-1-.77-2-1.59-3-2.39a14.46,14.46,0,0,0-1.36-1,11,11,0,0,1-1.79-1.49,23.87,23.87,0,0,0-2.14-1.87c-.79-.62-1.5-1.33-2.24-2a16.55,16.55,0,0,1-2.41-2.54c-1.12-.85-1.92-2-3-2.94a2.63,2.63,0,0,1-.44-.5,9.89,9.89,0,0,0-1.56-1.73c-1.61-1.56-3-3.28-4.48-5-1.23-1.44-2.46-2.89-3.67-4.34a2.73,2.73,0,0,0-.63-.54s-.19,0-.28.09a.26.26,0,0,0-.06.16,13.27,13.27,0,0,0,.26,3.66,5.53,5.53,0,0,1,.25,2.15,2.53,2.53,0,0,0,.08.66c.23,1.37.35,2.76.71,4.12a5,5,0,0,1,.16,1.16,5.23,5.23,0,0,0,.27,1.47,6.59,6.59,0,0,1,.16,1,1.22,1.22,0,0,0,0,.33,5,5,0,0,1,.48,2.1,12.8,12.8,0,0,0,.39,2.14,15.3,15.3,0,0,0,.36,1.63c.08.38.16.76.23,1.14,0,.11,0,.23,0,.34.1.61.55,1.13.5,1.76a6.16,6.16,0,0,0,.16,1.66,14.67,14.67,0,0,0,.37,1.45c.53,1.71.73,3.49,1.15,5.23a9.68,9.68,0,0,0,.5,1.77.75.75,0,0,1,0,.16c.55,1.93,1.1,3.86,1.63,5.8a3.63,3.63,0,0,1,0,1c0,.17,0,.32.13.45a2,2,0,0,1,.53,1,6,6,0,0,0,.72,2.21,1.1,1.1,0,0,1,.16.47c.19,1.45.88,2.76,1.09,4.21a9.73,9.73,0,0,0,.7,1.88,6.26,6.26,0,0,1,.39,1.1,13.15,13.15,0,0,0,.58,1.74c.2.57.32,1.18.49,1.77a.76.76,0,0,0,.11.31c.71.94,1.08,2.09,1.86,3a1.11,1.11,0,0,1,.26,1.09,1.88,1.88,0,0,0,.24,1.75c.33,1.19,1,2.22,1.42,3.39a5,5,0,0,0,.61,1.19,20.63,20.63,0,0,1,1.86,4.29,5.64,5.64,0,0,1,.2.81,1.57,1.57,0,0,1-.88,1.65,1.49,1.49,0,0,1-1.73-.14c-.25-.22-.52-.42-.77-.64-.42-.35-.43-.36-.78.08a4,4,0,0,1-1.64,1.11,6.15,6.15,0,0,1-1.13.34,19.12,19.12,0,0,0-2.54.79,3.19,3.19,0,0,1-1.29.32.73.73,0,0,0-.32.06,11.54,11.54,0,0,1-3.57.83,6.07,6.07,0,0,0-1.48.29,15,15,0,0,1-3.94.6c-.88.11-1.76.12-2.65.3a15.78,15.78,0,0,1-2.67.11l-.67.05a.51.51,0,0,0-.38.48c0,.21.12.43.16.64a8.63,8.63,0,0,1,.21,1.32,6.85,6.85,0,0,0,.35,2,11.12,11.12,0,0,1,.45,2,12.5,12.5,0,0,0,.67,2.59,5,5,0,0,1,.29,1.29,8.29,8.29,0,0,0,.55,2.08,18.46,18.46,0,0,1,.66,2.07,5.91,5.91,0,0,0,.45,1.07c.52,1,1.08,2.06,1.64,3.09s1.21,2,1.79,3a8.4,8.4,0,0,0,2.78,2.81c.1.06.23.07.31.14,1.18,1.2,2.88,1.39,4.28,2.17l2.29.5a3.25,3.25,0,0,1,.65.14,2.75,2.75,0,0,0,2,.23,2.2,2.2,0,0,1,1,.1,15.91,15.91,0,0,0,2.65.43,3.86,3.86,0,0,0,1.65-.16,1.75,1.75,0,0,1,1-.08,6.73,6.73,0,0,0,3.11-.5,11.76,11.76,0,0,0,1.82-.81c.55-.27,1.1-.55,1.62-.87s1.21-.79,1.82-1.18a12.92,12.92,0,0,1,1.42-.88,2.87,2.87,0,0,0,1.15-1,3.44,3.44,0,0,1,1.24-1.09,4.28,4.28,0,0,0,1.48-1.33,7.51,7.51,0,0,1,1.91-1.86,4,4,0,0,0,.95-.93,17,17,0,0,1,1.36-1.47c.69-.64,1.27-1.41,1.91-2.11a4.27,4.27,0,0,1,.71-.7,1.53,1.53,0,0,1,1.58-.2,1.34,1.34,0,0,1,.64.53c.13.24.25.5.37.75a1.43,1.43,0,0,0,.8.8,8.52,8.52,0,0,1,2.1,1.63,15.88,15.88,0,0,1,1.36,1.47,2.91,2.91,0,0,0,.49.44,5.74,5.74,0,0,1,1.38,1.22,2.54,2.54,0,0,0,.92.7,2.48,2.48,0,0,1,.67.48,2.84,2.84,0,0,1,.61.79c.39.93,1.31,1.55,1.46,2.6a3.48,3.48,0,0,0,.54,1.39,2.1,2.1,0,0,1,.16,1.78,2.85,2.85,0,0,1-.65,1.16,1.86,1.86,0,0,1-1.63.68,4.33,4.33,0,0,1-1.91-.54,15.37,15.37,0,0,1-2.45-1.43,4.09,4.09,0,0,0-1-.58,2.44,2.44,0,0,1-1.14-.94,3,3,0,0,0-.57-.61,8.42,8.42,0,0,1-1.76-2.22c-.17-.29-.38-.55-.54-.85a7.87,7.87,0,0,1-1.18-2.56,2.71,2.71,0,0,0-.43-.89.29.29,0,0,0-.28-.07,8.09,8.09,0,0,0-.88.77c-.43.44-.84.9-1.23,1.37s-1,.74-1.31,1.29a2.14,2.14,0,0,1-.47.48l-2.45,2A6,6,0,0,0,191,315a2,2,0,0,1-.91.73,9.07,9.07,0,0,0-2.08,1.38,20,20,0,0,1-2.09,1.39,1.63,1.63,0,0,1-.61.26,4.39,4.39,0,0,0-1.84.76,2.2,2.2,0,0,1-.62.23c-.75.2-1.51.4-2.27.55a5.56,5.56,0,0,1-1,0,9.7,9.7,0,0,0-1.33.08,15.21,15.21,0,0,1-5.17,0c-.93-.16-1.87-.3-2.82-.41a13.66,13.66,0,0,1-2.27-.55,9.91,9.91,0,0,0-1.61-.47,2.09,2.09,0,0,1-.61-.24,10.13,10.13,0,0,0-1.23-.53,24,24,0,0,1-3.06-1.38,1.31,1.31,0,0,1-.28-.17,20.57,20.57,0,0,1-3-2.91,10.62,10.62,0,0,1-1.53-2.38,2,2,0,0,0-.57-.82,3.22,3.22,0,0,1-1-1.9,1.9,1.9,0,0,0-.21-.62,17,17,0,0,1-2.11-5.08,26.79,26.79,0,0,1-.87-4.09c-.13-1-.42-2-.62-2.94a5.62,5.62,0,0,1-.15-1,4.33,4.33,0,0,0-.24-1.63,2.07,2.07,0,0,1-.12-1,12.09,12.09,0,0,0-.31-3c-.1-.53-.22-.65-.78-.65a14.77,14.77,0,0,1-2.82-.23,5.6,5.6,0,0,0-1-.06,11.66,11.66,0,0,1-2.5-.26,3.92,3.92,0,0,0-.83-.1,24,24,0,0,1-4.15-.52,8.75,8.75,0,0,0-1.16-.14,37.43,37.43,0,0,1-4.49-.39c-1.43-.24-2.88-.26-4.31-.5-1.06-.18-1.29,0-1.42,1.1s-.25,2-.37,3a3.91,3.91,0,0,0-.06.83,4.16,4.16,0,0,1-.14,1.49,5.93,5.93,0,0,0-.13,2.65,2.71,2.71,0,0,1,0,1.17,20.87,20.87,0,0,0-.31,3.15,11.22,11.22,0,0,0,.08,3.17,3.35,3.35,0,0,1,0,1,5.85,5.85,0,0,0-.09,1.5c.15,1.17,0,2.34,0,3.51,0,.17,0,.33,0,.5,0,1.84.09,3.69.13,5.53q0,.42,0,.84a6.25,6.25,0,0,0-.14,1c.07.83.07,1.67.11,2.5,0,.56.11,1.12.09,1.68a20.7,20.7,0,0,0,.29,4.16,4.26,4.26,0,0,1,.06,1,16.69,16.69,0,0,0,.34,4c.14.71.21,1.44.28,2.16.12,1.33.18,2.67.35,4a17.31,17.31,0,0,0,.66,3.78,1.87,1.87,0,0,1,.11.66,21.3,21.3,0,0,0,.74,4.28c.15.64.46,1.26.58,1.91a13.63,13.63,0,0,0,.66,1.89,5.83,5.83,0,0,1,.33,3.45,1,1,0,0,1-.48.65,6.65,6.65,0,0,1-.77.34.75.75,0,0,1-.91-.21,2.79,2.79,0,0,1-.74-1.47,3.84,3.84,0,0,0-.2-.81,28,28,0,0,1-1.11-3.69c-.1-.43-.34-.82-.46-1.25a12.89,12.89,0,0,1-.34-1.64,4.41,4.41,0,0,0-.34-1.28,1.35,1.35,0,0,1-.13-.65c.1-1-.32-2-.24-3a.29.29,0,0,0,0-.16,6,6,0,0,1-.51-2.77c-.16-1.22-.27-2.44-.46-3.66a19.91,19.91,0,0,0-.45-3,2.09,2.09,0,0,1,0-.66c0-1.23-.09-2.46-.19-3.68-.09-.94-.26-1.87-.26-2.82a7.48,7.48,0,0,1,0-1.34,6.27,6.27,0,0,0,0-1.5,5.79,5.79,0,0,1,0-1.5,6.4,6.4,0,0,0,.06-2,23.92,23.92,0,0,1,0-4.86c0-.22,0-.44,0-.67,0-1.83-.06-3.67-.08-5.51,0-.33,0-.67.06-1a3.39,3.39,0,0,0,.06-.83,16.19,16.19,0,0,1,.11-3.34c0-.72.15-1.45.11-2.17a6,6,0,0,1,.2-2.15,3.3,3.3,0,0,0,.09-1,16,16,0,0,1,.58-4.3c.08-.32.1-.66.15-1a13.5,13.5,0,0,1,.67-2.59.55.55,0,0,0-.31-.69,2.21,2.21,0,0,0-1.77-.27c-.49-.11-1-.19-1.46-.31a18.58,18.58,0,0,0-2.92-.72c-.56-.42-1.29-.3-1.87-.65s-1.35-.79-2-1.2c-.13-.08-.29-.24-.3-.36a2.52,2.52,0,0,0-.37-1.1,2.12,2.12,0,0,1-.17-.8c-.15-1.9-.4-3.78-.67-5.66a2,2,0,0,0-.14-.65,1,1,0,0,1,.06-1.24.73.73,0,0,0,0-.8,2.61,2.61,0,0,1-.28-.95,12.31,12.31,0,0,0-.19-2,1.16,1.16,0,0,1,0-.66,4.47,4.47,0,0,0,.14-1.15c0-.61.17-1.21.19-1.82s-.12-1.12-.12-1.67.08-1.23.12-1.84a.73.73,0,0,0-.3-.57,1,1,0,0,1-.19-1.09,2.09,2.09,0,0,1,.35-.56.88.88,0,0,0,.23-.61,14.15,14.15,0,0,1,.21-3.5,3.72,3.72,0,0,0,0-1,3.87,3.87,0,0,1,.06-1.66,16.23,16.23,0,0,0,.25-1.82,1.41,1.41,0,0,0-.76-1.67.71.71,0,0,1-.14-.1c-.16-.14-.09-.41.1-.57s.82-.18.95-.61a8.14,8.14,0,0,0,.06-1c.16-1,.22-2.1.35-3.16s.13-2,.23-3a26,26,0,0,1,.55-4.48,8.33,8.33,0,0,0,.1-1.33c.14-1.05.3-2.1.47-3.15a2.53,2.53,0,0,0,0-1.16c.34-.13.25-.41.24-.67,0,0,0-.09-.08-.11a.12.12,0,0,0-.1,0,1,1,0,0,0,0,.78.91.91,0,0,0-.3.13,1.74,1.74,0,0,0-.28.41,23.14,23.14,0,0,0-2.61,7,4.55,4.55,0,0,1-.23.8,43,43,0,0,1-2.53,5.47c-.3.53-.53,1.11-.78,1.67a9.49,9.49,0,0,1-.72,1.51,2.52,2.52,0,0,0-.3.59,12,12,0,0,1-1.7,3.43.85.85,0,0,0-.17.29,10.33,10.33,0,0,1-1.41,2.64c-.55.85-1.08,1.7-1.61,2.55-.15.23-.31.46-.44.71a14.5,14.5,0,0,1-1.64,2.32,7.48,7.48,0,0,0-.59.8,52.5,52.5,0,0,1-4.11,5.7,2.37,2.37,0,0,1-.34.37,10.88,10.88,0,0,0-2,2.19c-1.2,1.08-2.19,2.38-3.35,3.51-.44.42-.84.89-1.25,1.34a1.5,1.5,0,0,1-.11.13c-.94.7-1.7,1.61-2.64,2.3a43.07,43.07,0,0,0-4.83,4.11,8.18,8.18,0,0,1-1.13,1c-.54.4-1,.83-1.56,1.26a.67.67,0,0,0-.14.9c.49.81,1,1.61,1.51,2.4.31.46.64.91,1,1.36a10.46,10.46,0,0,1,1.61,4c0,.22,0,.44.08.66a1.64,1.64,0,0,1-.43,1.4c-.25.29-.46.65-.89.7a2.08,2.08,0,0,1-1.58-.4c-.27-.2-.49-.45-.75-.66a.32.32,0,0,0-.26.1c-.14.65-.24,1.31-.37,2a5.54,5.54,0,0,1-.21.8,1.87,1.87,0,0,1-1.21,1.07.62.62,0,0,1-.33,0,2.11,2.11,0,0,1-1.32-.65,8.19,8.19,0,0,1-1.54-2.37.31.31,0,0,0-.28,0c-.21.24-.4.52-.61.76,0,0-.19,0-.28-.05.07.11.06.14,0,.07ZM159.1,228a2.62,2.62,0,0,0,0-1.93,6.12,6.12,0,0,1-.43-2.46,7.26,7.26,0,0,0-.36-2.46c0-.14-.27-.28-.39-.22a4.57,4.57,0,0,1-1.45.38,2.67,2.67,0,0,0-.95.26,2.24,2.24,0,0,1-1.12.28l-1,0a7.7,7.7,0,0,0-2.47.45,10,10,0,0,1-1.61.42c-1.38.23-2.76.41-4.14.62a30,30,0,0,1-5.52.14,3,3,0,0,0-1.49,0,18.39,18.39,0,0,1-2.66.18c-1.51-.1-3-.15-4.52-.16a15.79,15.79,0,0,1-2.16-.21c-.72-.1-1.42-.35-2.13-.41a10.86,10.86,0,0,1-2.6-.63,6.75,6.75,0,0,0-1.47-.31,15.68,15.68,0,0,1-2.64-.46.5.5,0,0,0-.64.38,1,1,0,0,0-.06.16,37.33,37.33,0,0,0-.7,3.94,1.64,1.64,0,0,0,0,.66.63.63,0,0,0,.27.39,16.21,16.21,0,0,0,2.35.86,23.52,23.52,0,0,1,2.62.57,2.33,2.33,0,0,0,.65.11,32.76,32.76,0,0,0,3.82.4.78.78,0,0,1,.33.07,31.1,31.1,0,0,0,3.46.54c2.07-.07,4.13.29,6.19,0a5,5,0,0,1,.67,0c1.29,0,2.57,0,3.85-.06,1.51-.08,3-.22,4.5-.4.89-.1,1.78-.11,2.66-.23.49-.07,1-.31,1.46-.38s1,0,1.49-.05a24.54,24.54,0,0,0,4.59-.91,1.2,1.2,0,0,1,1,.07l.59.31c0,.28-.06.56-.12.83a1.38,1.38,0,0,1-1.12,1.11c-.27.06-.57,0-.79.22a1.89,1.89,0,0,1-1.09.38,9.07,9.07,0,0,0-1.16.2,7.12,7.12,0,0,1-2.47.32,3.94,3.94,0,0,0-.83.11,12,12,0,0,1-1.33.14,15,15,0,0,0-2.32.27,6.79,6.79,0,0,1-1.81.3c-.66-.06-1.33.1-2,.08a13.07,13.07,0,0,1-2.34,0,1.25,1.25,0,0,0-.66.08,4.79,4.79,0,0,1-2,.17c-.89,0-1.78.08-2.67,0s-1.89-.15-2.84-.23c-.22,0-.45,0-.67,0a5.56,5.56,0,0,1-1-.1,7.14,7.14,0,0,0-1.66-.16,4.86,4.86,0,0,1-.67,0,42.7,42.7,0,0,0-4.63-.68,1.93,1.93,0,0,1-.65-.14c-1.23-.68-2.75-.56-3.91-1.42a6.36,6.36,0,0,1-1.75-.55.38.38,0,0,0-.41.19c-.18.47,0,1-.23,1.47s-.11,1-.23,1.47c-.44,1.74-.48,3.54-.91,5.27a2.74,2.74,0,0,0,0,.5c0,.42.12.66.51.73a19.92,19.92,0,0,0,3.61.64,2.92,2.92,0,0,1,.65.15,13.86,13.86,0,0,0,3.15.39,17.85,17.85,0,0,1,4,.29,1,1,0,0,0,.5,0c.52-.2,1,.11,1.48.1a2.53,2.53,0,0,1,1.46.24l2.66.27a7.43,7.43,0,0,1,2.49,0,6.24,6.24,0,0,0,1.67-.07,5.7,5.7,0,0,1,1.65,0,9.46,9.46,0,0,0,1.65-.22c.22,0,.44,0,.67,0a5.42,5.42,0,0,0,1.49-.17,4.55,4.55,0,0,1,1-.15,8.25,8.25,0,0,0,1.48-.21c1-.26,2.07-.45,3.11-.66.54-.11,1.11-.14,1.64-.3a8.16,8.16,0,0,1,1.63-.35,7,7,0,0,0,2.76-.59,3.53,3.53,0,0,1,.81-.17,7.44,7.44,0,0,0,.81-.22,6.81,6.81,0,0,1,2.6-.55.58.58,0,0,0,.52-.56,18.51,18.51,0,0,0-.5-3.31,11.68,11.68,0,0,1-.56-3.11,4.35,4.35,0,0,0-.43-1.77C159.33,228.1,159.19,228.05,159.1,228Zm-43.92,39.69a4,4,0,0,1,0,.84,10.33,10.33,0,0,0,.14,3c.06.55.12,1.1.19,1.65a.51.51,0,0,0,.4.48c.38.09.76.17,1.14.23a8.3,8.3,0,0,1,1,.14,11,11,0,0,0,2.3.35,22.61,22.61,0,0,0,2.33.17,15.71,15.71,0,0,1,2.17.13c1.22.11,2.43.26,3.65.38.44,0,.89.08,1.33.11a11.55,11.55,0,0,1,1.32.08c1.26.21,2.55.13,3.82.37a8.34,8.34,0,0,0,1.5,0c.39,0,.78,0,1.17,0,.84.05,1.68.07,2.5.18a17.13,17.13,0,0,0,2.68,0,4.89,4.89,0,0,1,.66.05,16.8,16.8,0,0,0,3.17.05,26.5,26.5,0,0,0,3.34-.16,10.43,10.43,0,0,0,2.16-.16,45.26,45.26,0,0,0,6.68-.36,33.81,33.81,0,0,0,3.46-.6,3.34,3.34,0,0,1,1.32-.15,2,2,0,0,0,1.56-.4,1.71,1.71,0,0,1,1.26-.35,1.59,1.59,0,0,0,.8-.18,23.08,23.08,0,0,1,2.66-1,1.85,1.85,0,0,0,.58-.32.82.82,0,0,0,.38-1,24.19,24.19,0,0,0-1.37-3.24,4.11,4.11,0,0,1-.54-1.39,10.57,10.57,0,0,0-.46-1.78,5.24,5.24,0,0,1-.49-1.59c0-.62-.43-1.15-.43-1.79a1.31,1.31,0,0,0-.16-.47.58.58,0,0,0-.7-.28,5.74,5.74,0,0,1-1.9.58c-1,.16-2.08.44-3.11.68a1.88,1.88,0,0,0-.62.25,2.12,2.12,0,0,1-1.57.42,1.44,1.44,0,0,0-.79.24,12,12,0,0,1-4,.92,2.81,2.81,0,0,0-1.32.06,17.69,17.69,0,0,1-3.48.41,1.91,1.91,0,0,0-.33.06l-1.66.2c-1.11.14-2.22.06-3.34.17-.93.09-1.89-.09-2.83.06a1.87,1.87,0,0,1-.65-.12,5.83,5.83,0,0,0-1.67-.11,4.23,4.23,0,0,1-1.33,0c-.66-.16-1.33-.17-2-.29a13,13,0,0,0-2.16,0c-.89,0-1.79,0-2.68,0a21.59,21.59,0,0,0-2.67-.07,3.33,3.33,0,0,1-1-.15,1.06,1.06,0,0,0-.66,0,1.4,1.4,0,0,1-.81.14c-.44-.05-.89-.08-1.33-.14a7.26,7.26,0,0,1-1.32-.21c-.52-.17-1,.14-1.49.08s-.89,0-1.34-.06c-.94-.11-1.88-.23-2.81-.41a8.77,8.77,0,0,0-1.84-.09.66.66,0,0,0-.66.63A31.52,31.52,0,0,0,115.18,267.68Zm40.07,19.15c.37-.07.86-.14,1.35-.27a5.68,5.68,0,0,1,1.48-.2c.56,0,1.11-.07,1.67-.12a12,12,0,0,1,1.33-.13,3.05,3.05,0,0,0,1.62-.33,1.81,1.81,0,0,1,.8-.19c1.24,0,2.38-.57,3.61-.61,1.63-.56,3.31-1,4.88-1.69.31-.14.63-.25.93-.38a2.11,2.11,0,0,1,1.94,0,.23.23,0,0,0,.35-.2c0-.27.06-.55.1-.83a1,1,0,0,0-.19-.78,6.77,6.77,0,0,1-1.26-2.35c0-.21-.22-.38-.31-.58-.44-.91-.87-1.81-1.3-2.72-.15-.3-.2-.69-.43-.88s-.71.15-1.07.21-.67.07-1,.13a.8.8,0,0,0-.46.16,4,4,0,0,1-2.81.85,4,4,0,0,0-.83.12,14.22,14.22,0,0,1-3.09.68.71.71,0,0,0-.31.1,4.39,4.39,0,0,1-1.46.35c-.83.13-1.66.26-2.49.35a15.14,15.14,0,0,1-2.5.2c-1.35-.09-2.67.2-4,.2a9.07,9.07,0,0,1-2.33.09.53.53,0,0,0-.33,0,6.78,6.78,0,0,1-2.15.21c-2,.13-4-.12-6,0a2.17,2.17,0,0,1-.67-.05,9.55,9.55,0,0,0-2.67-.14,8.58,8.58,0,0,1-1.83-.08c-.66-.13-1.33-.12-2-.26a2.54,2.54,0,0,0-1,0,2.62,2.62,0,0,1-1.15,0,8.42,8.42,0,0,0-1.32-.2c-1-.09-2-.19-3-.22a23,23,0,0,0-3-.41c-1.42-.29-2.87-.35-4.31-.53a13.54,13.54,0,0,1-3-.59c-.21-.07-.42-.13-.64-.18-.54-.15-.76,0-.69.54,0,.28.07.56.13.83a11.55,11.55,0,0,1,.39,3,4.92,4.92,0,0,0,.14,1,1.16,1.16,0,0,0,.73.84,27.57,27.57,0,0,1,3.27,1.26.75.75,0,0,0,.31,0c1,.13,2.09.35,3.12.58s2,.36,3,.56a.84.84,0,0,0,.62-.08,1.2,1.2,0,0,1,.65-.07c.6.1,1.22.12,1.81.22s1.34.1,2,.19a38.25,38.25,0,0,0,3.84.33,3.32,3.32,0,0,1,.83.11c1.19.33,2.42.28,3.63.51a8.6,8.6,0,0,0,1.82.2,13.05,13.05,0,0,1,2.65.31,19.39,19.39,0,0,0,2,.14c.67.05,1.32.18,2,.27a1.82,1.82,0,0,0,.33,0,22,22,0,0,1,3.34.26C153.23,286.68,154.18,286.73,155.25,286.83Zm-39.61-31.57h-.06v.84a5.88,5.88,0,0,1-.06,1.33,8.75,8.75,0,0,0-.14,2.5c0,.6.07.67.64.73a18.4,18.4,0,0,0,4,.22,4.86,4.86,0,0,1,1,.07,7.61,7.61,0,0,0,1.49.12,13.22,13.22,0,0,1,2.67,0c1.94.15,3.9-.2,5.83.25a8.69,8.69,0,0,0,1.84,0c.55,0,1.11,0,1.66,0a11.23,11.23,0,0,1,1.84.12,15.71,15.71,0,0,0,1.81.06c.77.06,1.54.13,2.31.13a3.79,3.79,0,0,1,.66.11,20.19,20.19,0,0,0,5.33.13,28.86,28.86,0,0,0,4.14-.49,9.8,9.8,0,0,0,2.47-.27,18.91,18.91,0,0,1,2.5-.26,4,4,0,0,0,1.13-.25,8.46,8.46,0,0,1,1.75-.55,15.38,15.38,0,0,0,1.78-.43,26.62,26.62,0,0,1,3.72-.93,11.75,11.75,0,0,0,1.91-.6.58.58,0,0,0,.37-.52,2.66,2.66,0,0,0-.22-1.47,6.89,6.89,0,0,1-.78-2.37c-.36-.58-.24-1.31-.57-1.91a6.93,6.93,0,0,1-.71-2c-.06-.36-.26-.48-.57-.4a34.06,34.06,0,0,0-4.29,1.39,5.53,5.53,0,0,1-1.27.41,8.57,8.57,0,0,0-2.57.72.94.94,0,0,1-.48.13,2.64,2.64,0,0,0-1.43.35,2.61,2.61,0,0,1-1.3.22,2.36,2.36,0,0,0-.81.15,5.82,5.82,0,0,1-1.14.25c-1.34,0-2.65.42-4,.2a.93.93,0,0,0-.33,0,5.21,5.21,0,0,1-2,.13c-.84-.1-1.64.27-2.48.11-.15,0-.32.07-.49.09a5.67,5.67,0,0,1-.82.07c-.78,0-1.56-.16-2.33-.15a8.79,8.79,0,0,0-2.17.11,3,3,0,0,1-1.33,0,6.78,6.78,0,0,0-2.5,0,6.5,6.5,0,0,1-1,.08q-1.59,0-3.18,0a21.63,21.63,0,0,1-5.07-.54,3.72,3.72,0,0,0-.67-.08,10.07,10.07,0,0,1-2-.35,18.2,18.2,0,0,1-2.06-.64c-1.73-.65-1.91-.87-2.06,1.32C115.6,254,115.64,254.65,115.64,255.26Zm29.79-4.48c.27,0,.44-.06.6-.06.85,0,1.67-.28,2.5-.26a15.66,15.66,0,0,0,3.62-.52,3.82,3.82,0,0,1,.66-.12,4.5,4.5,0,0,0,2.4-.61,2.14,2.14,0,0,1,.65-.15,18.34,18.34,0,0,0,2.73-.74c1.19-.47,2.37-1,3.56-1.47.7-.29,1-.35.61-1.38a2.57,2.57,0,0,1-.18-.81,6.48,6.48,0,0,0-.37-1.8,5.36,5.36,0,0,1-.32-1.63,3.47,3.47,0,0,0-.38-1.45.66.66,0,0,0-.66-.42c-1,.12-2,.27-3,.41a12.13,12.13,0,0,1-3.25.77c-.6.09-1.19.26-1.79.39-.82.18-1.64.37-2.47.52a6.57,6.57,0,0,1-2.45.4,1.12,1.12,0,0,0-.49.11,7,7,0,0,1-2.14.34c-.55,0-1.11.1-1.67.15-.83.08-1.66.17-2.49.23a13.9,13.9,0,0,0-1.84.1,14.54,14.54,0,0,1-3.16.07c-.72,0-1.45-.14-2.17-.18a8.59,8.59,0,0,1-2.31-.32,3.83,3.83,0,0,0-.83-.08c-1.84-.18-3.67-.29-5.5-.56a18.93,18.93,0,0,1-2.48-.33,4,4,0,0,1-1.65-.19,18.4,18.4,0,0,1-3.84-1.13c-.35-.15-.62.06-.67.48-.1.89-.22,1.78-.29,2.67a15.26,15.26,0,0,0-.08,2.34,5.05,5.05,0,0,1-.1,1.65c-.13.6,0,1.21-.14,1.81-.08.38.23.7.67.8,1,.23,2,.64,3.07.77a5.26,5.26,0,0,1,1.27.42c.45.18.89-.07,1.33,0a.9.9,0,0,1,.16,0c.85.32,1.79,0,2.64.35a.85.85,0,0,0,.5,0,6,6,0,0,1,2.31,0,8.31,8.31,0,0,0,2.17-.07,9.08,9.08,0,0,1,1.17-.09c1.5-.09,3-.11,4.52-.1.78,0,1.56,0,2.34,0s1.67-.19,2.51-.07a3.68,3.68,0,0,1,1.65-.09,2.08,2.08,0,0,0,.66,0A7.91,7.91,0,0,1,145.43,250.78Zm-29.21-29.85c.43-.23.87,0,1.31-.07a.24.24,0,0,0,.11-.09c0-.05,0-.14,0-.16-.36-.26-.72-.52-1.09-.75a.28.28,0,0,0-.27.07,1.86,1.86,0,0,0-.47.87c0,.16,0,.24.13.22A1.81,1.81,0,0,0,116.22,220.93Zm-1,27.34s0-.1,0-.1a.14.14,0,0,0-.12,0s0,.07,0,.11Z"/><path d="M227.18,256.26c-.05,0-.12,0-.15-.06a25.46,25.46,0,0,0-2.49-2.38,4,4,0,0,1-.36-.35.75.75,0,0,1-.23-.74,1.29,1.29,0,0,0,0-.48.61.61,0,0,1,.44-.77,3.46,3.46,0,0,0,.57-.3.33.33,0,0,0,.09-.42c-.17-.22-.35-.44-.5-.67a1,1,0,0,1,.07-1.23,2.76,2.76,0,0,1,1.06-.76c.66-.29,1.3-.61,1.93-.94a.52.52,0,0,0,.36-.5c.36.09.59-.14.83-.35,0,0,0-.08,0-.1s-.09-.09-.11-.08a1,1,0,0,0-.69.57,3.35,3.35,0,0,0-1.47.21,1,1,0,0,1-.79-.16.82.82,0,0,1-.4-.49,1.51,1.51,0,0,1,.15-1.28,11,11,0,0,1,1.14-1.41,1,1,0,0,0,.39-.88c.36-.21.22-.5.12-.77a.59.59,0,0,0,.45-.48l.66,0,0-.37c0,.12,0,.24.05.35l-.66.07a.47.47,0,0,1-.43.4l-.12.81c-.15,0-.4,0-.45.05a13.38,13.38,0,0,0-1.5,2,1.42,1.42,0,0,1-.86.75.72.72,0,0,1-.48,0,1.13,1.13,0,0,1-.76-1.17,2.46,2.46,0,0,1,.42-1.41,14.93,14.93,0,0,1,1.4-1.87,33.67,33.67,0,0,1,2.28-3.28,12.42,12.42,0,0,1,1.95-1.82,1.51,1.51,0,0,1,1.73-.06,1.63,1.63,0,0,1,.91,1.49,7.68,7.68,0,0,1-.55,2.77c-.18.52-.41,1-.56,1.57a4.09,4.09,0,0,1-.47.87.24.24,0,0,0,.18.36l1.8.37a1.41,1.41,0,0,1,.82.54,1.18,1.18,0,0,1,.23,1.11,3.93,3.93,0,0,1-.86,1.61,8.19,8.19,0,0,1-1.59,1.46,10.42,10.42,0,0,0-1.41,1.17.28.28,0,0,0,0,.29,2.79,2.79,0,0,0,1.26.79,1.24,1.24,0,0,1,.86.73c.07.15.16.29.23.44a1.43,1.43,0,0,1-.55,1.76,2.94,2.94,0,0,1-1.1.38l-1.32.17s-.08.06-.09.11,0,.13,0,.16a12.08,12.08,0,0,0,1.31,1.27,7.41,7.41,0,0,1,1.64,2.1,1.56,1.56,0,0,1-.66,2.15,2.87,2.87,0,0,1-2.08.34,6.61,6.61,0,0,1-2.17-.81c-.66-.43-1.33-.83-2-1.24a.39.39,0,0,0-.55.17,6.62,6.62,0,0,0-.44,1.59,5.07,5.07,0,0,1-1.06,2.57,2.4,2.4,0,0,1-.63.55,1.21,1.21,0,0,1-1.53-.07,1,1,0,0,1-.42-1c0-.23.12-.42.4-.44a.89.89,0,0,0,.78-.55,5.28,5.28,0,0,0,.4-1.09c.23-1.15.42-2.3.62-3.45,0-.16,0-.33.08-.49a1.23,1.23,0,0,1,1.5-1,1.64,1.64,0,0,1,1.05.47,10.46,10.46,0,0,0,1.45,1.13c.32.27.62.1.92,0-.14.37-.14.37.15.53l0,0-.07,0ZM223.26,258a1.28,1.28,0,0,0-.24-.11s-.08.05-.12.08.1.17.18.2S223.25,258.1,223.26,258Zm7.38-17.47s0-.1-.06-.12a.16.16,0,0,0-.15,0c-.09.08-.06.16.09.17S230.6,240.53,230.64,240.5Z"/><path d="M117.72,352.87a9.09,9.09,0,0,0,1.43.09,4.59,4.59,0,0,1,1.81.14,1.21,1.21,0,0,0,.5.07,6.55,6.55,0,0,1,1.82.19,7.59,7.59,0,0,0,1.17.1,5.89,5.89,0,0,1,1.61.43.75.75,0,0,1,.28.18,11.39,11.39,0,0,0,2.65,1.7c.29.17.58.34.86.53a1.38,1.38,0,0,1,.36,1.38,1.91,1.91,0,0,1-1,1.06,15.64,15.64,0,0,1-1.57.58A25.62,25.62,0,0,0,124,360.6a5.7,5.7,0,0,1-.8.25,28,28,0,0,1-4.44.82,17.27,17.27,0,0,0-2.49.17,2.91,2.91,0,0,1-.83-.06c-.5-.06-1-.16-1.5-.18a27.92,27.92,0,0,1-4-.64,5.25,5.25,0,0,1-1.09-.39,1,1,0,0,1-.65-1.22.78.78,0,0,0-.18-.76.65.65,0,0,1-.15-.45,7.43,7.43,0,0,1,.27-1.13,2.12,2.12,0,0,1,.33-.56,9.41,9.41,0,0,1,1.12-1.23,8.31,8.31,0,0,1,1.69-1.07,9.52,9.52,0,0,1,3.15-1Zm-4,5.63c-.13,0,0,0,.2,0s.23-.08.26-.16c.24-.61.47-1.22.68-1.84,0-.05-.11-.22-.18-.22a2.2,2.2,0,0,0-1.85.49c-.36.33-.77.61-1.15.93a.74.74,0,0,0-.16.27s0,.14,0,.14A4.6,4.6,0,0,0,113.71,358.5Z"/><path d="M136.8,184.36h-2.54a1.24,1.24,0,0,1-1.12-1.07,2.09,2.09,0,0,1,0-.66,17.38,17.38,0,0,0,.26-2.49c0-.33.24-.67.19-1a15.59,15.59,0,0,1,.3-3.48,17.69,17.69,0,0,1,.57-4c.1-.32.2-.64.33-.95a.6.6,0,0,1,.95-.29c1.22.87,1.58.49,1.75,2.55a17.39,17.39,0,0,0,.52,2.44,9,9,0,0,0,1.51,3.14,6.42,6.42,0,0,0,1.34,1.26,2.34,2.34,0,0,1,.9,2.21,1.6,1.6,0,0,1-.83,1.37c-.24.13-.47.29-.71.43a2.57,2.57,0,0,1-1.27.37C138.1,184.28,137.27,184.34,136.8,184.36Zm-1.19-4.29a5.39,5.39,0,0,0,.15,1.5.66.66,0,0,0,.49.39,7.27,7.27,0,0,0,2-.28c.14,0,.21-.33.09-.42a5.28,5.28,0,0,1-1.66-2.24,3.7,3.7,0,0,0-.36-.55.2.2,0,0,0-.14-.08c-.1,0-.29,0-.29,0C135.76,179,135.69,179.53,135.61,180.07Z"/><path d="M123.94,165.28a1.31,1.31,0,0,1-1-.51,5.3,5.3,0,0,1-.91-2.11.52.52,0,0,1,0-.32,2.66,2.66,0,0,1,1.21-1.52.64.64,0,0,1,.63-.08,3.08,3.08,0,0,0,.76.3,1.63,1.63,0,0,1,1.15,1.1.74.74,0,0,1,.07.48,6.4,6.4,0,0,1-.69,1.84C125.08,165.17,124.48,165.17,123.94,165.28Z"/><path d="M141.34,161.81l.29-1.41a1.86,1.86,0,0,1,.89-1.16,1.32,1.32,0,0,1,.8-.19,2.45,2.45,0,0,1,1.25.44,1.07,1.07,0,0,1,.55,1.13,3.1,3.1,0,0,1-.69,1.85,2.69,2.69,0,0,1-.63.54,1.68,1.68,0,0,1-2.32-.65A1.39,1.39,0,0,1,141.34,161.81Z"/><path class="cls-3" d="M168.13,254.44l8.85,27.1c-17.13,8.71-37.64,5.29-56.51,1.67a9.16,9.16,0,0,1-4-1.46c-2.22-1.73-2.36-5-2.28-7.81a531.58,531.58,0,0,1,5.68-64,3.08,3.08,0,0,1,.39-1.3c.7-1.09,2.29-1,3.57-.76,13,2.1,23.45-1.6,35.37-5.85,1.28,3.13-.13,8.35,0,11.92a86.85,86.85,0,0,0,1.55,13.64C162.38,236.74,165.25,245.62,168.13,254.44Z"/><path class="cls-3" d="M140.08,142.72c10.76-.46,22.15,0,31.26,5.76.68-8.13,1.36-16.39-.27-24.38a16.07,16.07,0,0,1-.54-4.24c.2-2.9,4.21-1.5,6.76-2.9s3.59-5.81,6.48-6.18c15-2,30.16-1.41,45.21-2.61a195.41,195.41,0,0,0,55.5-12.72c-11.94-2.8-24.47-1-36.65-2.32A140.4,140.4,0,0,1,229,89.27L181.39,77.16c-8.89-2.26-18-4.54-27.13-3.5-7.51.85-14.57,3.91-21.49,6.94-3.85,1.68-7.74,3.38-11.05,6a50.32,50.32,0,0,0-8.2,8.79c-6.06,7.63-12.38,15.91-13,25.63a4.48,4.48,0,0,1-.54,2.27c-1.08,1.58-3.56.92-5.31,1.68-2.34,1-2.74,4.12-2.69,6.67.07,3.68-.71,12.42,1.64,15.46,2.52,3.26,8.3.6,11.59-.07A222.7,222.7,0,0,1,140.08,142.72Z"/><path d="M137.34,196.1h-.58a16.14,16.14,0,0,1-4.6-.28,27.94,27.94,0,0,1-5.4-1.44,7.71,7.71,0,0,1-.87-.42c-.52-.32-.8-1-1.56-1l-1.81-1.1c-.55-.33-1.11-.65-1.65-1a6,6,0,0,1-1.53-1.45,31.08,31.08,0,0,1-3.54-6.17,6.25,6.25,0,0,1-.64-3.37,2.22,2.22,0,0,1,.09-.37.16.16,0,0,1,.12-.11c.12,0,.29,0,.34.08a1.54,1.54,0,0,1,.36.66,8.07,8.07,0,0,0,1.33,3.17,28.15,28.15,0,0,0,2.6,3.81c.5.58,1,1.13,1.59,1.67a2.49,2.49,0,0,0,.6.48c1.92,1,3.76,2.23,5.73,3.18a6.77,6.77,0,0,0,2.19.7c1.72.21,3.41.62,5.15.74a7.61,7.61,0,0,0,1.72,0,2.51,2.51,0,0,1,.77-.06,12,12,0,0,0,3.83-.06c.1,0,.23.1.35.13s.3,0,.31,0c.22-.68.94-.61,1.39-.93s1-.39,1.39-.65a21,21,0,0,0,4-2.59c.58-.26.93-.88,1.6-1,.26-.06.39-.32.48-.57a3.25,3.25,0,0,1,.78-1.31c.55-.55.66-1.4,1.29-1.9l.51-1.66a1.37,1.37,0,0,1,2-.51,1.13,1.13,0,0,1,.4,1,5.12,5.12,0,0,1-.78,2.15,25.91,25.91,0,0,1-1.71,2.56c-.67.86-1.42,1.66-2.16,2.46a3.67,3.67,0,0,1-.8.52c-1,.61-2,1.14-2.95,1.84a20.31,20.31,0,0,1-4.08,2.13c-1.5.25-2.94.94-4.54.66a10,10,0,0,0-1.73,0Z"/><path d="M172.18,193.9l23.11,16.47,1.77-4.19a83.45,83.45,0,0,1-24.4-13.76,2.3,2.3,0,0,0-3.6,2.78,180.19,180.19,0,0,0,10.56,18.33l3.61-2.78a65.25,65.25,0,0,1-9.59-10.61,2.35,2.35,0,0,0-3.14-.82,2.31,2.31,0,0,0-.82,3.14l3.62,5.21a2.3,2.3,0,0,0,4-2.32,61.16,61.16,0,0,0-7-12.27,2.31,2.31,0,0,0-4.27,1.15,11.9,11.9,0,0,0,.76,5.12,2.29,2.29,0,0,0,4.42-1.22c-.16-1-.31-2-.43-3l-.15-1.38c0-.31,0-.61-.08-.92s0-.47,0-.15l-.82.83c-.38.26-.86-.11,0,.32l1.23.63,2.46,1.27c1.62.83,4.11-.59,3.37-2.59a14.6,14.6,0,0,0-2.85-4.78l-2.23,3.84,22.67,4,.61-4.51c-5.73-.47-11.5-.95-17-2.53-1.32-.37-2.58-.95-3.9-1.31.38.35.48.4.32.15a1.78,1.78,0,0,0-.25-.36,4,4,0,0,0-.59-.64,2.93,2.93,0,0,0-2.19-.72,2.58,2.58,0,1,0,1.5,4.82c2.57-1.45.26-5.41-2.32-4l-.14.08h2.31l-.14-.08.82.82-.1-.18.31,1.16v-.2l-.68,1.62.12-.15-1,.59.26-.05h-1.22l.25.09-1-.59c.65.5,1,1.32,1.86,1.74a25.21,25.21,0,0,0,3.28,1.2,50.55,50.55,0,0,0,6.2,1.53,133.68,133.68,0,0,0,13.38,1.56c2.55.21,3.17-4.06.61-4.5l-22.67-4a2.32,2.32,0,0,0-2.24,3.84,8.43,8.43,0,0,1,1.67,2.75l3.37-2.6c-1.41-.72-2.81-1.5-4.25-2.18s-3.25-.95-4.52.32-1,2.82-.82,4.31c.18,1.74.42,3.47.7,5.19l4.42-1.22a8.64,8.64,0,0,1-.59-3.9l-4.28,1.16a62.51,62.51,0,0,1,7,12.28l4-2.32-3.62-5.21-4,2.32A71.45,71.45,0,0,0,180,214c1.85,1.65,5.11-.5,3.6-2.78A179.26,179.26,0,0,1,173,192.88l-3.61,2.78a89.88,89.88,0,0,0,26.43,14.94,2.26,2.26,0,0,0,2.7-1.32,2.34,2.34,0,0,0-.93-2.87l-23.12-16.48a2.3,2.3,0,0,0-3.13.83,2.34,2.34,0,0,0,.82,3.14Z"/></g></g></svg>