<svg id="Capa_1" data-name="Capa 1" xmlns="http://www.w3.org/2000/svg" viewBox="0 0 377.21 152.38"><defs><style>.cls-1{fill:#b7d164;}.cls-2{font-size:21px;fill:#536472;font-family:PatrickHand-Regular, Patrick Hand;}</style></defs><path class="cls-1" d="M56.93,17.31C41.82,14,26.44,27.37,19.52,45.9S13,86.76,17.43,106.66c1.84,8.32,4.56,16.79,9.71,22,5.74,5.78,13.36,6.4,20.49,6.78q116.74,6.17,233.6.92c15.93-.71,32.15-1.65,47.14-9A64.06,64.06,0,0,0,362,84.36c5.62-24.19-3.62-53.06-20.48-64-9.75-6.33-20.9-6.94-31.7-7.44L140.33,5.11c-27.4-1.26-55.69-2.32-81.24,11.16"/><path class="cls-1" d="M63,21.62c-1.09.42-.19,1.23-.26,1.48C64.31,22,62.78,21.38,63,21.62Z"/><polygon class="cls-1" points="80.41 12.33 80.18 12.85 82.79 11.07 80.41 12.33"/><path class="cls-1" d="M99,9.18c-1-.86-2.7-.59-4.58-.15a21,21,0,0,1-5.6,1.13l-.62-.32L87,11.63C90.84,10.56,96,9,99,9.18Z"/><path class="cls-1" d="M109.22,12.66c-.64-.72,2.13-.74-2.32-.13a4.39,4.39,0,0,1,.42.17C107.72,12.67,108.28,12.65,109.22,12.66Z"/><path class="cls-1" d="M107.32,12.7c-1.95.14,1.31.56,0,0Z"/><path class="cls-1" d="M116.44,12.07c-.87.22-1.75.43-2.61.67.54.42,2.87.53,2,.85C118.51,13.22,118,12.79,116.44,12.07Z"/><path class="cls-1" d="M118.94,10.68l-1.37.28C117.81,11.14,118.17,11.2,118.94,10.68Z"/><path class="cls-1" d="M114.68,11.55l2.89-.59c-.38-.31-.42-.93-1.33.21C116.48,10.6,115.9,11.15,114.68,11.55Z"/><path class="cls-1" d="M113.05,11.29c-1.47-.39-3.39-.61-.77-1.32-2.52.17-3.57.62-3.37.95S110.55,11.47,113.05,11.29Z"/><path class="cls-1" d="M99.75,7.12c-.68-.14-1.36-.23-2-.35l-1.65.82C96.88,7.18,99.92,7.68,99.75,7.12Z"/><path class="cls-1" d="M132.89,13.43c.18-.4-.85-1.12-1-1.65l-2,.39C130.87,12.49,132.78,12.82,132.89,13.43Z"/><path class="cls-1" d="M131.86,11.78l3-.58C132.2,11,131.71,11.33,131.86,11.78Z"/><path class="cls-1" d="M119.43,8.56,114.61,10c1.91-.49,3.82-1,5.75-1.47Z"/><polygon class="cls-1" points="144.22 13.98 142.49 14.84 145.57 13.56 144.22 13.98"/><path class="cls-1" d="M151.79,14.16c-1.29.72,1.65,1.4.3,1.81a18.38,18.38,0,0,0,5.45-1.15A12.13,12.13,0,0,1,151.79,14.16Z"/><path class="cls-1" d="M160.23,14.06a19.48,19.48,0,0,0-2.69.76A10.45,10.45,0,0,0,160.23,14.06Z"/><path class="cls-1" d="M139.89,11.63a3.33,3.33,0,0,0,2.29,1.27l-1.12-1.2Z"/><path class="cls-1" d="M141,11.66l0,0,2.53.18Z"/><path class="cls-1" d="M139.6,11.61l.29,0C139.78,11.51,139.72,11.47,139.6,11.61Z"/><path class="cls-1" d="M127.13,9.76c1.75-.6,5.41-1.15,1.93-2.24C127.78,8.26,129.77,8.88,127.13,9.76Z"/><path class="cls-1" d="M138.21,10.12l-3.15-.4c.05.3.6.77-.27,1Z"/><polygon class="cls-1" points="139.77 9.83 138.21 10.12 139.38 10.27 139.77 9.83"/><path class="cls-1" d="M154.85,12.75a15.25,15.25,0,0,1,4.59-.41,44.3,44.3,0,0,0-5.45-.6C153.72,12.09,152.91,12.7,154.85,12.75Z"/><path class="cls-1" d="M148.14,12.12l.3,0C148.26,12,148.11,11.93,148.14,12.12Z"/><path class="cls-1" d="M176.07,13.11l-.25-.22c0,.07,0,.13-.07.19Z"/><path class="cls-1" d="M153.69,11.52a4.59,4.59,0,0,0-3,.27,31.59,31.59,0,0,1,3.26,0C154.11,11.59,154.14,11.48,153.69,11.52Z"/><path class="cls-1" d="M164.9,13.74a22.94,22.94,0,0,0-2.33-.73C163.24,13.4,164.63,14,164.9,13.74Z"/><path class="cls-1" d="M148.89,12.41l-.21,0C149.12,12.71,149.07,12.59,148.89,12.41Z"/><path class="cls-1" d="M148.89,12.41a9.68,9.68,0,0,0,1.84-.62,16.3,16.3,0,0,0-2.29.28A2,2,0,0,1,148.89,12.41Z"/><path class="cls-1" d="M181.45,6c-.29,1.05-3.91,1.86-6.95.58-3.08.66-1.25,4.22,1.32,6.29.11-.46.13-.88,3.29-1.36-1.07-.63-6.88-1.67-4.2-2.51,4.17-.35,3.38.53,5.37,1.18-1.65-1.39,5.36-1.67,4.55-3.65l-3.67.52C181.11,6.76,182.45,6.34,181.45,6Z"/><path class="cls-1" d="M169.86,12.51l-1.29.07A15.23,15.23,0,0,1,173,14.22c2.17-.42,2.63-.79,2.8-1.14l-6.34-.43Z"/><path class="cls-1" d="M162.78,12.32c1.06-1.11,4.18-1.45,2.34-2.78-3.78-.1-2.69.83-5,1.23,6.11,0-1.78.56,2.59,1.42a27.6,27.6,0,0,1-3.3.15c1.09.19,2.14.41,3.13.67l-.14-.08h0v0c-.26-.15-.34-.24,0-.15h.13a1.1,1.1,0,0,1,.29-.42c1.76.31.27.31-.29.42,0,.05-.07.1-.08.16a0,0,0,0,0,0,0l6.14-.35A36.92,36.92,0,0,0,162.78,12.32Z"/><path class="cls-1" d="M132.4,5.16a.29.29,0,0,1,.18.28C133,5.31,133.14,5.22,132.4,5.16Z"/><path class="cls-1" d="M134.88,6a3.42,3.42,0,0,1-2.27.41c-1.24-.39,0-.55,0-.93-.88.27-3.07.7-.37,1.37l.44-.14c2.44.49,5.53,2.07,5.09,2.21A8.57,8.57,0,0,0,134.88,6Z"/><path class="cls-1" d="M149,8.85l5.11-.33L151.59,7.4l.1.61C148.81,7.64,149.4,8.41,149,8.85Z"/><polygon class="cls-1" points="176.63 13.71 175.9 14.89 178.92 13.31 176.63 13.71"/><polygon class="cls-1" points="183.25 13.87 182.95 14.91 184.73 14.36 183.25 13.87"/><path class="cls-1" d="M243,144.07l-1.49.34A8.92,8.92,0,0,0,243,144.07Z"/><path class="cls-1" d="M253.82,143.81l.25-.53C253.57,143.59,253.37,143.8,253.82,143.81Z"/><path class="cls-1" d="M339.89,27.44a9.28,9.28,0,0,1,.5,1.46c.14.49.26.94.39,1.29.24.71.49,1,.84.56l.41-1.19a6.83,6.83,0,0,1-1.29-1.06C340.41,28.12,340.15,27.75,339.89,27.44Z"/><path class="cls-1" d="M339.28,120.7l.72-.13c.16-.65.31-1.26.42-1.8C340.09,119.35,339.71,120,339.28,120.7Z"/><path class="cls-1" d="M340.93,125.46c-1,.43-1.95.84-2.95,1.19A12,12,0,0,0,340.93,125.46Z"/><path class="cls-1" d="M183.66,146.27l-1.75,1.19C184.65,147.44,183.45,146.85,183.66,146.27Z"/><path class="cls-1" d="M251,16.55a24.44,24.44,0,0,0,4.66.92C253.39,16.7,251.61,15.62,251,16.55Z"/><path class="cls-1" d="M246.86,131.65c-.91.23-1.29.48-1.26.74C246.54,132.16,247.06,131.92,246.86,131.65Z"/><path class="cls-1" d="M261.05,17.71c-.33-.13-.65-.2-1-.32a22.39,22.39,0,0,1-4.45.08A7.82,7.82,0,0,0,261.05,17.71Z"/><path class="cls-1" d="M7.65,74.68c.06-.16.09-.36.15-.51C7.65,74.12,7.63,74.35,7.65,74.68Z"/><path class="cls-1" d="M42,24.89c-.41.35-1.15.73-1.8,1.22A10.46,10.46,0,0,0,42,24.89Z"/><path class="cls-1" d="M209.82,15.6c-1.41,0-.23.11,0,0Z"/><path class="cls-1" d="M203.21,10.7c.31-.11.54-.27.59-.54A1,1,0,0,1,203.21,10.7Z"/><path class="cls-1" d="M275.34,11.15h.12C275.06,10.91,275.13,11,275.34,11.15Z"/><path class="cls-1" d="M207.73,15a13.7,13.7,0,0,0,1.78.43A12.61,12.61,0,0,0,207.73,15Z"/><path class="cls-1" d="M208,15.53l-1.22-.17C206.59,15.55,206.74,15.68,208,15.53Z"/><path class="cls-1" d="M211.77,15.62a17.67,17.67,0,0,1-2.26-.22c.27.09.39.16.31.2Z"/><path class="cls-1" d="M83.93,140.55l-.3-.12C82.19,140.86,82.82,140.8,83.93,140.55Z"/><path class="cls-1" d="M367,52.21a1.19,1.19,0,0,0-.09-.15c0,.07,0,.16,0,.22Z"/><path class="cls-1" d="M368.86,57.39a7,7,0,0,1-1.95-5.11c-1,.83-1.93,1.63-2.9,2.41C365.69,55.52,367.26,56.42,368.86,57.39Z"/><path class="cls-1" d="M217,145l3.57,1c-4.25,1.78-7.37,1.25-4,2.65.44-3.61,13.81-.64,14.22-4.29l2.35.71c-.67,0-.77.2-1.43.18,4.59,1.62,3.31-2.69,9.18-2.35,2.05.22,3.49.71,2.11,1.18l4.52-1c1.33,0,1,.67-.3.64l6.93-.51,0,.11a35.14,35.14,0,0,1,4.26-2c1.78.46-.87.42-.4.86l3.8-1c1.6.89-1.55,1.91-4.2,1.87,3.71,3.49,3.15-1,11,.81l-3.61.59c2.42,2,5.22,1.11,9.38,2.23-1-.63-8.34-2.9-4.21-4a8.89,8.89,0,0,0,5-.53c.07,1.28,2.26.88,5,.69l-.11,1.72c2.95-.62,2.68-1.49,4.4-2.33,3.34,0,4.12,1.28,5,2.34,5.44-.06-3.86-1.88,2.52-2.61,4.55.33,7.73-.63,13-2.42,3.27.11-.4,1.12.82,1.44.88-.59,1.75-1.22,2.61-1.82.7-.09.55.36.47.59,2.29-1-.1-1.7,3.49-2.92.29-1,2.31-.75,4.81-.79a17.17,17.17,0,0,0,3.92-.4,7.33,7.33,0,0,0,3.43-1.8c1.27,0-.14,1.19.42,1.67,1.42-.95,2.43-1.61,3.2-2.16s1.31-1,1.82-1.39a13.69,13.69,0,0,0,1.53-1.42c.56-.6,1.29-1.28,2.18-2.39l2.24-.69c.74-.25,1.47-.53,2.21-.8-1.76.41-1.93-.32-1.41-1.51a46.49,46.49,0,0,1,2.71-4.44c-1.28.19-2.36.32-3,.49l1.93-2,1.8-2.11c.69-.21.67.58.42,1.72.2-.36.39-.69.52-1,1-.41,1.39-.3,1.56.16a3.82,3.82,0,0,1-.24,2.09c-.76.2-1.52.37-2.26.52-.44,1.69-.87,3.41,0,4a6.56,6.56,0,0,1,1.28-1.54c-.13.45-.18.8.07.83s.54-.66,1-1.63l2.28.58-.24-.79c1.14-.7,2.21-1.49,3.33-2.25s2.14-1.62,3.22-2.45c.58-1.41,1.1-2.79,1.55-4.21s.88-2.86,1.28-4.39.91-3.08,1.43-4.77,1.15-3.49,1.95-5.44c.29,2.49,1.83,1.44,3.27,2.27a3.75,3.75,0,0,0-1.58,1.62,25,25,0,0,0-1.1,2.54c-.38.93-.7,2-1.21,3a14.51,14.51,0,0,1-1.82,2.9c1.54-1.87,1.88-1,1.75-.32.58-1.32,1.18-2.59,1.65-3.94s1-2.63,1.39-4c.55.41,1,.14,1.47-.44.24-.3.51-.66.79-1.07a15.35,15.35,0,0,1,.93-1.31c-1.57.18-1.28-1.41-.64-3.46.3-1,.7-2.19,1.06-3.3A18.92,18.92,0,0,0,363.7,90c.46,0,.85.31.93,1.06a7.75,7.75,0,0,1-1,3.88,5.37,5.37,0,0,0,1-1.31,4.38,4.38,0,0,0,.36-1.3,7.58,7.58,0,0,0-.22-2.48c-.38-1.64-.86-3.19.49-5.11-.18,1-.49,1.44-.13,1.93a16.29,16.29,0,0,1,.71-4.64,7.74,7.74,0,0,1,.69-1.72c.2-.35.4-.43.55-.07,0,.33-.1.66-.15,1a23.29,23.29,0,0,0,.46-2.74c.13-1,.28-2.08.37-3.19a45.6,45.6,0,0,0-.07-6.72c-.1-1.08-.22-2.11-.37-3s-.42-1.79-.65-2.52c-.48-1.45-1-2.41-1.61-2.57a9.46,9.46,0,0,1,3.31.88c-1.45-1.84-3.08-3.57-4.6-5.21-1.67-1.61-3.23-3.15-4.95-4.55,1.07.21,2.48-.85,3.93-1.43a3.13,3.13,0,0,1,2.16-.21,3.45,3.45,0,0,1,2,2.17A13.6,13.6,0,0,0,365,45.4c.09,1.14-1.95,3.39-2.5,2.06a13.47,13.47,0,0,0,.42-3.81c-.05-.86-.11-1.84-.28-4.47.26,1.66-3.27,1.17-4.16-1.08.58.15,2.64-1.51,3.31-.78-.88-.77-1.87-1.48-2.79-2.19s-1.83-1.39-2.84-2c1.29,1,2.36-1,2.29-2.75-.08.45-.77-.78-1.71-2.23a24.45,24.45,0,0,0-2.85-3.72c.47.85.79,1.78,1.17,2.65a10.9,10.9,0,0,0-1.52-1.92A10,10,0,0,0,351.92,24a9.38,9.38,0,0,0-3.05-1.13,18.25,18.25,0,0,1-3.11-.8c-.51-.22-1.1-.42-1.71-.73a12.22,12.22,0,0,1-1.9-1.22,3,3,0,0,0,2-1.26,1.76,1.76,0,0,0,.28-1.38,2.89,2.89,0,0,0-1.26-1.71c-1.16.19-3.75.79-6.58,1.52a34.82,34.82,0,0,1-8.65,1.46c-.27-.37-.54-.75-.83-1.1-1.48,0-2.94.09-4.4.23a29.66,29.66,0,0,1,7.6-3.26,27.83,27.83,0,0,1,9.66-1c-2.31-1.81-.26-1.38-4.34-2.87-.58-.63.08-.76,1.06-.62a14.24,14.24,0,0,1,2.86.8,52.19,52.19,0,0,0-9.61-3.74c0,.92-1.95.93-3.84,1s-3.73.25-3.64,1a61.42,61.42,0,0,1,10.62.27c-.05.93-1.91,1.67-4.41,2.13a27.44,27.44,0,0,1-8.81.25c-1.55-.87,1.53-3.06,1.49-3.65-.95.47-6.25.63-6.79.18.92-.26,1.84-.53,2.78-.77-3.57-.94-5.94,2-10,.12-1.43-.18-4.18-2.51-4.48-1.45,2.25,2.15,2.42,8.51.78,10-.49-.16-7.45-2.3-9.05-3.39-2.29-1.71,3.73-3.66,1.78-5.13-.11.48-1.44,1-2,1.2-1.49-.49.7-1.49-2.59-1.42-.63,1.79-6.66-.46-1.62,1.46-3.23.38-3.39-.53-7.17-.62,1.15,1.23-3.56,3.85-6.8,4.22.21-.46-.48-1.09-.82-1.38-6.57-.47-10.06-1.46-16.19-1.76-.54-.46-3.48-1.13-2.18-1.86a8.53,8.53,0,0,1-3.63.82c-3.59-1.74,4.23,0,1.53-2.07-.29,1-5,1.24-7.69,1.77.76,1.67,6.21.6,8.94.07-.09,2.25-4.89,4.39-11.35,5.14-5.12.32-2.14-1.56-3-1.28-9.55-.83-8.33,3.56-16.2,1.57-3.09-1.58,0-2.86-.66-3.93,4.17-.35,6.32,1.2,9.14,1.28l-3.43-.84a11.82,11.82,0,0,1,5.62-.17c-2.59-1.41-16.15-1-23.48-2.52-1.33.42-3.62.82-2.58,1.44l2.35-.09c2.09,1.26-4.47,1.4-1.54,2.07-3.17.67-6.74,1.79-11.12.93l-.75-1.67c.07.48,2.83,1.11,4.1.67-1.87.64-6.66-2.53-8.78-.48l3,1.28c-3.18.67-7.15,2.23-11,1.54,1.7,1.69.91-.15,3.6,1.87-2.3-2.46,10,.56,6.24-2.09,2.75,2.33,4.89,1.16,8.53,3.2-.09-.54-1.28-1.09,2-.68a3.81,3.81,0,0,1,.74-.44l.22.05-.17-.07c.14-.07.16-.09-.07,0a3.91,3.91,0,0,1-1.63-.89c1.68-1.17,6.9-.89,8.69-1.45,1.94.35-.84.58.19,1.21l2.68-.84c.21,1.21,5.08,2.23.47,2.72l4.12.24a17.91,17.91,0,0,0,7.82.8c1.93.35,5-1.1,3.24-.24l6.51-.45,0,.31c6.38.44,13.24-1.39,20.45,1.11a29.8,29.8,0,0,1,8,0l.66,1.07c2.77-.24,8.24,1.42,9.48.39,2.85,2.93,13.37,1.23,18.2,1.94l.25-1.34a69.48,69.48,0,0,0,10.73-.36l-.2-1.21c3.64-.8,9.14,1.18,14.31,1.73-.41.41-1.71.13-2.64-.23,3,1.64,6.17,1.64,9.29,1.84s6.19.71,8,2.82a3.65,3.65,0,0,1,1.61.62,3.91,3.91,0,0,1,.58.46,5.57,5.57,0,0,1,.43.56.71.71,0,0,0-.28-.13c.09.09.25.2.4.32.33.5.64,1,1,1.53a5.87,5.87,0,0,0-.78-1.37,16.41,16.41,0,0,0,1.5.93c.58.36,1.19.83,1.85,1.21L342,29.56l.27.2c.66,1.33,1.24.45,1.41-.85a10.06,10.06,0,0,0,1.94,1c-.36,1.15.45,1.75,1.19,2.56s1.63,1.59,1.13,3a3.53,3.53,0,0,1,1.41,1.1l.91,1c.31.37.59.79.91,1.18a15.36,15.36,0,0,0,1.92,2.17,2.61,2.61,0,0,0,1.82,1c-.24.17-.18.68-.55-.14a23.1,23.1,0,0,0,.84,2.63,7,7,0,0,0,1.26,2.33l-1.29,1.26.86.77.8.81,1.62,1.65a4.86,4.86,0,0,1-.7,2.62c-.37.35-.87.1-1.76-.9a21.84,21.84,0,0,1,2.37,4.75A24.27,24.27,0,0,0,360.34,62l-1.07-.13c.19,1.76,1.88,4.57,1,5.7a20.72,20.72,0,0,0-1,4.93c-.13,1.09-.19,2.3-.41,3.56-.08.64-.17,1.3-.26,2,0,.33-.09.67-.13,1s-.14.68-.2,1c-.94,5.53-3.11,11.74-6.15,15.78,1.79-.21,1.05.74-.06,1.82a10,10,0,0,0-1.46,1.68c-.36.53-.47,1,0,1.43-.94.13-2,1.07-1.72-.62a16.83,16.83,0,0,1-.79,1.59c-.29.47-.6.9-.9,1.3a21.49,21.49,0,0,1-1.77,2.09,12.63,12.63,0,0,0-1.47,1.93,6.85,6.85,0,0,0-.95,2.47c-.93-.07-.11-1.54-.77-1.44a5.44,5.44,0,0,1-.41,1,1.3,1.3,0,0,1-.85.7c-.68.06.07-.93.34-1.73-1.65,1.87-2.21,3.26-2.24,4.42a5.69,5.69,0,0,0,1.12,3.08c-2.71,1-3.61,1.94-4.38,4.25-.59,0-1.3.09-1.56-.11s0-.63,1.2-1.73c-.76.53-3.17,2-5.43,3.25s-4.28,2.49-4,3.3c-.71-.14-2.42,1-2.82,1.33-3.95,1.47-4.35,1.42-8.3,2.76l1.2,0a2.74,2.74,0,0,1-2.43,1.73,25,25,0,0,0-4.09.61l.05-.23c-2,0-3.18.09-4,.19a7.74,7.74,0,0,0-1.59.39c-.8.26-1.61.55-5.55.15l.56,1.22c-.21,1.41-2,1.2-4.26.77s-5-1.09-7.25-.43l1.69.64c-2.45,1.1-7.17-3.38-9.7-3.62-.56-.22.85-.42,1.61-.63-6.67-1.35-.78,1.71-5.68,2.31-.95-.87,1.07-2.35-2.25-2.38-1.67-.66-9.48,3.33-14.07,1.74,1,.66,2,1.32-.23,1.93-3.5.38-9.56-2.31-12.66,0-.45-.18-.62-.36-.65-.53-2.66.64-8.68,1.21-10.26,2.42-2.58-4.36-16.63,2.55-16.65-1.56l-8.24.36.21-.42c-5.27-.18-7.12.8-9,1.8-1.22-.26-.33-.65-.23-.87-7.71-.73-8.47-.55-14.92,1.52l-.68-1.33c-.87.39-3.66-.11-7.17-.52a37.4,37.4,0,0,0-11.52,0,1.18,1.18,0,0,1,.83-.59c-8.51,1.53-20.29-3.79-23.46,1l-5.62,1.12c7.25.47-1.11,2.08,1.86,2.92-2.86.24-7.36-1.55-3.85-1.75l.55.24c1.32-2.48-9-1-8.78-2.75-14.29-.13-28.16-1.93-41.51-2.52l1.47,2L84,133.18c-1.2-.5-1.58-1.59,1.74-1.39-1.71-1.17-5.61.72-5.72,1.14-6.48-1,2.63-2.18.63-2.3l-2.71,0,.6.25c-2.23.72-2.46,1.55-6.45,1.28-2.51-.5-1.25-1.26-2.24-1.38,0-.14-.32-.22-1.52-.12l-5.86-.42,2.27,1.64c-2.63.66-5.51-.34-2.89,1.54-1.92-1.44-7.39-2-12.67-2.23-2.66-.13-5.13-.22-7-.47a10.05,10.05,0,0,1-3.68-.91,10.31,10.31,0,0,1-8.8-3.62,1,1,0,0,1-.26,1.29c-.41.23-1.26,0-2.33-1.4,1.78-.69,1.05-2,.23-3.87s-1.8-4.28-1.1-6c-.33,1.47-1.37-.74-2.27-2.95s-1.73-4.32-2.36-2c-.52-3.06,1.24-.53,1.47-3-1.55-3.37-2.13-7.49-2.44-11.76s-.31-8.78-.76-13.28c-.47-.12-1.12,1.44-1.9-.49.74-1.64,1.45-3.26,2.26-4.84-.22-1.76-2.73-1.7-1-4.91-.41.44-1,1.11-1.14-.1.79-4.44,1.45-8.86,2.29-13.26a85.8,85.8,0,0,1,3.37-13,39.91,39.91,0,0,1,6.31-11.55,24.11,24.11,0,0,1,10-7.63c-2.28.52-1.19-.37.15-1.4-1,.47-.64-1-1.18-1.36a13.57,13.57,0,0,1,1.73-.59c.57-.16,1.13-.36,1.7-.49a22.74,22.74,0,0,1,3.37-.51,2.15,2.15,0,0,1,1.26-1.26,12.3,12.3,0,0,1,2.33-.66c.82-.07,1.63-.22,2.27-.34A1.6,1.6,0,0,0,53,20.19L52,20.32l-.52.06-.52.13c1.34-1.11.42-2.18-1.22-3.17l-1.29-.76c-.44-.22-.87-.43-1.26-.66-.77-.46-1.38-1-1.4-1.62C44,15.87,41.32,16,38.21,16.83s-6.3,2.52-7.66,6c-1.45.6.38-1.45-.6-1.36a8.26,8.26,0,0,1-1.44,2.81,33.2,33.2,0,0,1-3.14,3.24l.06-.5c-3.24,4.17-5.28,7.29-7.4,10.6l-1.54,2.59C16,41.07,15.51,42,15,43s-1,2.09-1.51,3.25-1,2.44-1.48,3.82l1.46-.47a18.81,18.81,0,0,1-1.94,3.81c.61,1.61,1-.08,1.51-1.78s1.12-3.39,1.77-1.85c-1.72,1.18-2.87,5.43-3.64,9.57S9.9,67.55,8.38,68.55c-.29,3.8,1.54-1,1.25,2.78-.29.31-.56.63-.84,1l1,1C9.5,75.73,8.52,77,7.85,77.06a20.1,20.1,0,0,0-.2-2.38,15.84,15.84,0,0,0-.25,5.93,33.61,33.61,0,0,1,.4,4.31c.07-1.22.23-2.45.35-3.66.93,10.29,1.78,22.84,6,32.13l.37-.89a30,30,0,0,1,2.29,6.66A18.93,18.93,0,0,0,20,126.43l-.29-.21c1.45,1.27,3.06,3.09,4.82,5-1.05-.63-.58.44,0,1.42s1.13,1.92-.42,1.1a19.77,19.77,0,0,0,4.55,2.47,5.41,5.41,0,0,0,1.92.44A9.29,9.29,0,0,0,32,136.5c.64-.06,1.58-.11,3.12-.21.32.43.66.89,1,1.32,1.07-.2,1.65-.42,2.5-.53a25.23,25.23,0,0,1,4,0c-1.73.24-1.13.68-.56,1.16s1.13,1-.91,1.32a17.48,17.48,0,0,0,5.78,1.1,32.61,32.61,0,0,0,4.34-.29c2.56-.3,4.55-.5,6.39,1.18,4-2.55-7.17-1.88-5-2.36-1.75-1,3.28-1.89,5.89-1.48,2.66.2,4.37,3.73,11.1,4-.66,0-.72.17-1.39.13,2.49.8,5-.74,8,.53,1.8-1.59,4,.25,4.59-1.84l-6.19.24c3.52-.4,6.89-2.76,12.6-1.34a11.35,11.35,0,0,1-3.38,1.17c1.66.69,3.26-.29,5,.41-.58,2.1-7.52.18-11.33,1.66,1.78,1,7.15-1.27,5.18.95,2.82-2.82,6.62.63,11.26-1.45l-.34,1.25a12.25,12.25,0,0,1,3.56-.65l-2.45,1.57c3.73-1.29,7.08,1.45,10.65.79-7.42-.19-1.62-1.58-4.73-2.6,9.19-1.41,5.16,3.47,15.42,3.13-1.39.14-5.18-.89-3-1.43a20.42,20.42,0,0,1,5.69,1.56c6.79-.11-1-1.32,1.89-2,2.28,1.59,3.35-.56,6.33-1V144c7.72,1,2.1-2.64,9-1.52l-3,1.74,3.64-.41-.78,1.46c4-1,5.19-.74,9.06-.28-.89-.92.53-2.33,3.95-2.33,2.33.79-1.32,1.22,3.54,1.07-1.1.8-2.32,1.81-4.42.59-.22.42-1.09.8-1.31,1.21,2.5.92,6.32.26,8.08.26a6.77,6.77,0,0,1-1.9-.31l7-1.74c1.11.49.22.88-.65,1.25,1.43-.13,2.42-.71,4.51-.81-.54,1-.42,2.13-3.39,2.6l6.71-1.13c.45.45,3.45,1.25,2.57,1.63,3.73.62,9.13-2,14.06-1.23a4,4,0,0,1,1.82-.56c4.63.21,8.75,1.48,14.23,0L203,147.3c4.3-.48-4.25-2.32,2.9-3.11,5.06-.66,1.92,1.58,3.7,2.07,2.51-1,6.86-3,11.55-1.54A29,29,0,0,1,217,145Zm53-2.36c-1,.31-3,1.24-3.81.5C267.26,141.63,268.19,142.29,270,142.65Zm76.9-25.43c-.23.89-1.31,1.58-2.64,2.16A11.2,11.2,0,0,1,346.86,117.22Zm-121.63-102,.12-.05C227.61,15.8,226.81,15.57,225.23,15.25Zm-4.71-.77c-.49.15-.46.33-.27.52a4.41,4.41,0,0,1,2.62-.13C222.55,14.51,222,14.25,220.52,14.48ZM69.31,131.27l.9.38C68.12,131.93,68.71,131.62,69.31,131.27Z"/><path class="cls-1" d="M340.77,124.88a1.05,1.05,0,0,1-.79-.28C339.77,125,339.9,125.25,340.77,124.88Z"/><path class="cls-1" d="M184,146.05h-.16a.48.48,0,0,0-.16.23Z"/><path class="cls-1" d="M294.49,6.94a4.92,4.92,0,0,1,1.85.75C296.41,7.37,296,7.09,294.49,6.94Z"/><path class="cls-1" d="M195.28,15.51l3.06-.2a6.73,6.73,0,0,1-2.72-.54C195.67,15.07,196.23,15.53,195.28,15.51Z"/><path class="cls-1" d="M169.28,6.33c-.45.14-.94,0-1.39.11l.09.61C169.88,7.09,171.22,6.67,169.28,6.33Z"/><path class="cls-1" d="M192.67,11.1c-.2-1.09-2.12-.81-4.25-.71a2.36,2.36,0,0,1,.37,0C188.09,11.89,190.39,11.5,192.67,11.1Z"/><path class="cls-1" d="M187.92,10.4a12.89,12.89,0,0,1-2-.06C185.67,10.94,186.74,10.5,187.92,10.4Z"/><path class="cls-1" d="M214.47,14.92c-1-.33-.7,1.35-1.25.89C212,17.13,220,14.45,214.47,14.92Z"/><polygon class="cls-1" points="191.11 7.45 191.81 8.83 193.05 7.8 191.11 7.45"/><path class="cls-1" d="M207.87,9.21l-3.39-.53c0,.23-.4.34-.93.41C205.64,9.24,207.93,9.61,207.87,9.21Z"/><path class="cls-1" d="M203.55,9.09a9,9,0,0,0-2.75.1A19.41,19.41,0,0,0,203.55,9.09Z"/><polygon class="cls-1" points="195.77 7.26 196.77 7.59 199.16 7.8 195.77 7.26"/><path class="cls-1" d="M244.41,11.15l3.73-.22c.4-.44-.6-.77-2-.65C245.24,10.56,243.86,10.68,244.41,11.15Z"/><path class="cls-1" d="M233.35,7a3.31,3.31,0,0,1,1.59,1.09l.19-1.65Z"/><path class="cls-1" d="M244.19,7.08c.39-.45,5.45-1.08.74-1.19C244.53,6.33,240.8,6.54,244.19,7.08Z"/><polygon class="cls-1" points="300.02 11.74 299.07 11.72 299.08 14.45 300.02 11.74"/><path class="cls-1" d="M351.55,19.24c-1.71-2-2.23-1.91-2.66-1.76s-.83.34-2.48-1.39c-1.34-.2,2.67,2.8,1.32,2.49C350.42,20.08,351.36,21.51,351.55,19.24Z"/><path class="cls-1" d="M347.73,18.58q-.69-.31-1.5-.6A7.1,7.1,0,0,0,347.73,18.58Z"/><path class="cls-1" d="M50.06,23.52l1,.18.5.08.48.16a6.57,6.57,0,0,0-1.33-.83Z"/><path class="cls-1" d="M54.1,21.45c.11.6.21,1.2.28,1.8.47-.45,1-.91,1.54-1.36C55.4,21.9,54.44,21.9,54.1,21.45Z"/><path class="cls-1" d="M278,145.81l.2-.42c-.46-.44-1.12-.44-2.46-.46Z"/><polygon class="cls-1" points="239.43 145.87 240.09 145.89 238.81 144.35 239.43 145.87"/><path class="cls-1" d="M207.13,148.53c1.33.06,2.87-.32,4.2-.28C208.46,148.59,206.75,146.58,207.13,148.53Z"/><text class="cls-2" transform="matrix(1, 0, 0, 1, 83.91, 47.4)">Busca la comprensión de las <tspan x="-13.7" y="25.2">consecuencias de sus acciones y </tspan><tspan x="7.07" y="50.4">comenzar a desarrollar un </tspan><tspan x="5.11" y="75.6">reconocimiento emocional.</tspan></text></svg>