<svg id="Capa_1" data-name="Capa 1" xmlns="http://www.w3.org/2000/svg" viewBox="0 0 34.12 31.77"><defs><style>.cls-1{fill:#fff;}</style></defs><path class="cls-1" d="M23.75,6.57s-2.88,9.26-6.87,9.4S9.32,7.12,9.32,7.12Z"/><path class="cls-1" d="M23.76,6.69a0,0,0,0,0-.05,0l0,.06Z"/><path class="cls-1" d="M23.38,6.6c-.06,0-.14.08-.09.14s.08,0,.14-.11.1,0,.09,0h.12a.26.26,0,0,0-.27,0S23.37,6.6,23.38,6.6Z"/><path class="cls-1" d="M20.53,6.55a.08.08,0,0,1,0,.07h.05A.08.08,0,0,0,20.53,6.55Z"/><path class="cls-1" d="M12.81,6.74Z"/><path class="cls-1" d="M12.11,12.75c0-.12.16.11.1-.05C12.2,12.72,12.05,12.62,12.11,12.75Z"/><path class="cls-1" d="M9.26,7h0Z"/><polygon class="cls-1" points="9.53 7.99 9.53 7.96 9.52 7.94 9.53 7.99"/><path class="cls-1" d="M21.93,10.47H22S22,10.33,21.93,10.47Z"/><path class="cls-1" d="M9.77,7.55a.14.14,0,0,0,0,.09h0Z"/><path class="cls-1" d="M22.32,9.49c-.06.14,0,.09.05.14s-.08,0-.13.1,0,.18,0,.28h0c0,.13-.15.31-.15.46h.09c0,.07,0,.13-.07.13s0,0,0-.06v.07c-.08,0,0-.09,0-.11a1.32,1.32,0,0,1-.13.38c-.06,0,.1-.23,0-.13l.1-.14c-.14.07,0-.08-.1,0s-.08.23-.19.41.05,0,.07.07c-.09.29-.26.13-.29.36s.08.13,0,.25l0-.08c-.1.18,0,.16-.11.32,0,0,.05-.16,0-.14s0,.11-.06.21h-.07c-.1.19-.18.42-.31.63,0,0,0-.07-.05,0a3.08,3.08,0,0,1-.56.73v.12h0v.08c0,.08-.08,0-.06,0a1.93,1.93,0,0,1-.47.63l-.1-.07c-.13.1-.05.21-.19.28h0a3,3,0,0,1-.78.64c0,.1-.3.18-.26.27-.2.07-.16,0-.42.12-.06,0-.06.12-.14.16v0l-.09.09h-.09l-.07,0h.07a.38.38,0,0,1-.33,0,1.4,1.4,0,0,1-.29.09l.09,0c-.16.07,0-.06-.18,0v0a1.15,1.15,0,0,0-.37,0v0a3.14,3.14,0,0,1-.73-.14c.08,0,.05.1,0,.09v-.1s.07.05,0,.05,0-.08,0-.08H15.7l.05,0s-.17-.13-.26-.11h0a5.36,5.36,0,0,1-.53-.28h-.17c-.07,0-.24-.24-.39-.37s-.06,0-.13,0-.12-.17,0-.13c-.18-.15-.23-.2-.47-.38v.07s-.09-.2-.07-.2h0c-.29-.2-.43-.67-.67-.81h0l-.21-.18c-.07-.11.07,0,0-.06-.24-.19-.28-.38-.46-.56,0-.23-.4-.55-.46-.82h0c-.06,0,0-.08-.05-.12s0,.07,0,.05a9.78,9.78,0,0,1-.84-1.52c-.09-.19-.21,0-.27-.3l.09,0c-.27-.35-.4-.78-.64-1.14a.05.05,0,0,1,.05,0c0-.1-.14-.3-.17-.28s0,0,0-.08S10,8.22,10,8.16h0S9.9,7.91,9.88,8c0-.16-.14-.27-.17-.4a.28.28,0,0,1-.08-.15c0-.07,0-.05-.06-.06s0,0,0-.11.06,0,.08.06,0,0,0-.06,0,0,.07,0h.39c.33-.06.65-.09,1-.13,0,.09-.34,0-.33.11a3.08,3.08,0,0,1,.74-.11c.08,0,0,0-.07.05a7.33,7.33,0,0,0,.83-.07h.08c-.08,0,.2-.12.21-.15s.25,0,.12.15c0,0,.08,0,.07,0s.06,0,0,0c.18,0,.12-.06.28-.06L13,7.1A.56.56,0,0,1,13.26,7h0A3.85,3.85,0,0,1,13.93,7C13.85,7,14,7,14,7h.08l.34,0h0c.12,0,0-.09.15-.07h.19a.37.37,0,0,1,.21,0V7a.53.53,0,0,0,.37-.09.06.06,0,0,0,0,.06l0,0c.06,0,.07,0,.06,0,.17,0-.06-.09.14-.06h0a2.81,2.81,0,0,1,.58,0c.06.08-.17,0-.09.08.27,0,.55-.07.82-.09h-.05c0-.1.2,0,.34,0s0,0,0,0a2.74,2.74,0,0,0,.64-.08h.4c.11,0,.1,0,.06-.06.35.13.68-.1,1,0h.21s0,0-.09-.05a.34.34,0,0,1,.17,0c-.11,0,0,.07.06.09s0,0,0,0c.15.07,0-.09.22,0h0a.85.85,0,0,1,.22,0s-.08,0-.08.06.21-.1.31,0h-.16a.45.45,0,0,0,.2,0h.19l-.18.09c.13-.13.28,0,.46-.13-.18.09,0,0,0,.1s.12,0,.1,0,.14,0,.26,0,.1,0,.08,0,0,0,0,0c.17-.06.41.06.66,0a1.66,1.66,0,0,1,.45-.13c.07,0-.06.06-.06.06a.51.51,0,0,0,.3,0l0,0c0,.05.05-.06.16,0a.14.14,0,0,1-.08.07l.3-.07-.1.06c.12,0,.29,0,.33-.08h-.07s0,0,0,0h-.08c-.08-.1-.29,0-.43,0l.05-.08-.13,0s-.06-.06,0-.07h-.28a0,0,0,0,1,0,0c-.18,0-.29.06-.37,0h0c-.25,0,0,0-.2.13l-.13-.14V6.6h-.08s0,0,0,.06-.34,0-.37-.06.12,0,0,.07c0-.09-.15,0-.26,0s.14,0,0-.07c-.07.09-.22,0-.32,0a.84.84,0,0,0-.37.07,3.42,3.42,0,0,0-.45,0h0c0,.06-.18.06-.3.07s0,0,.09-.07h-.11a.21.21,0,0,0-.12,0v0a2.38,2.38,0,0,1-.46,0s.14.12-.05.16V6.75h-.09l.07,0h-.1c-.07,0-.05,0-.05,0s.06,0,.08,0a.47.47,0,0,1-.19-.06s0,.06-.05.06-.05,0-.14-.06-.12,0-.12.06,0,0-.07,0-.34,0-.25.07h0a3,3,0,0,1-.73,0h0a1.85,1.85,0,0,0-.41.07c-.07.05-.07,0-.07,0a.66.66,0,0,1-.28,0c.11,0,0,0,.12,0a.47.47,0,0,0-.33,0c.05,0-.1-.06-.17,0h-.11V6.67c-.28-.07-.51.15-.73,0-.07,0,.16,0,.1.08A1.92,1.92,0,0,1,15,6.66c-.18,0-.16.1-.35.08,0,0,0,.08-.1.11s-.16,0-.08,0h.06s.1,0,0-.05h0c-.06,0-.25,0-.2,0-.11,0,0,0,0,0h-.44s.05,0,0,0c-.26,0-.12.05-.29.07s0-.09-.14,0,0-.06,0-.08a.9.9,0,0,1-.4,0H13l.05,0H13s0,.07-.05.11a.34.34,0,0,1-.23,0c.21,0,0-.05.15-.07h-.12c-.2,0-.09.07-.29.07,0,0-.06-.05-.08-.05s.1,0,0,0h-.13s-.08,0-.18,0h.05a.88.88,0,0,0-.37,0c-.14,0,0-.06-.07-.07a1.82,1.82,0,0,0-.34,0c.05,0,.06,0-.06.07l.29,0-.17.06h.22c-.08,0-.08,0,0,.07-.11-.06-.22,0-.35,0V6.82a5,5,0,0,1-.61,0h.09s-.16,0-.24,0,0-.05-.09-.07-.19,0-.21.08l-.11,0c-.22,0-.2.11-.47.11.08-.05-.07-.07.14-.1h-.2a.8.8,0,0,1-.36,0V7h0s.09.15.11.1a1.9,1.9,0,0,0,.12.43.61.61,0,0,1,.11.35l.22.4h0c0,.18.14.06.19.26s-.08-.09-.07,0,.13.22.13.38h0c0,.11.15.22.22.37h-.13a1.49,1.49,0,0,1,.34.45c-.05,0-.05-.06-.08,0s.06-.06.14.08,0,.16,0,.19l-.06-.12c0,.09.08.16.11.23h0c.11.19.17.16.28.37v0c.13.08,0,.12.13.2l-.05.07a4.49,4.49,0,0,1,.29.35,1.79,1.79,0,0,1-.28-.27,1.05,1.05,0,0,0,.2.27s-.06-.06-.06-.09a1,1,0,0,1,.27.3c-.13,0,.2.39.17.55a8.83,8.83,0,0,1,.5.78c0-.16.06.08.14,0l.07.1.08.24c0,.06-.06-.05-.08,0s0,.08,0,.2c0,0,.09,0,.14.1l-.11-.21c.2.16.06.23.25.39l0,0c.09.09.29.37.45.4,0,0,0,.07-.05,0,.19.24.52.44.65.65h0s.1,0,.13.1h0a.55.55,0,0,1,.19.14h-.06a1.83,1.83,0,0,0,.6.39c-.05.07.12.23.21.31h0a2.92,2.92,0,0,0,.86.39,2.53,2.53,0,0,0,1,.36c-.05,0,0-.06.08-.06s.22,0,.2,0h0c.06.08.23.07.35.05V16c.37.13.82-.24,1-.2s.14-.1.2-.16v.05a2.43,2.43,0,0,0,.52-.3v.06c.13-.09.06-.24.17-.32l.08,0a2.25,2.25,0,0,0,.58-.53.09.09,0,0,1,0,.07c.09-.09.36-.31.25-.35.06,0,.19-.19.25-.32v0a.57.57,0,0,1,.11-.29s.05,0,0,0,0-.11.13-.22v.07a.27.27,0,0,0,.08-.19c0-.08.16-.19.2-.18a.25.25,0,0,1,.06-.17v0c.15-.16.14-.3.26-.4h0c-.09.15-.18.26-.17.25s.12-.09.11,0a1.33,1.33,0,0,1,.17-.43h0a.2.2,0,0,0,0-.08l.07-.09s.1-.13.14-.19,0-.09-.07,0,0,0,0,.06h0l-.08.14a.16.16,0,0,1,.08-.16v-.14c.11,0,.24-.18.29-.18.08-.2.23-.45.2-.62s.06,0,.09-.06v.1c0-.12.16-.33.12-.38s0,.1.1-.09h0c.29-.33.15-.68.47-1h-.05c.28-.45.39-1,.68-1.46.07-.13,0-.16,0-.26h.06v0c0-.22.26-.3.27-.59h0c0-.1.08-.3.11-.27s0-.05,0-.08h0l0-.24c.08-.17.1.07.19-.19V6.58s0,.09-.07.08V6.57c-.08,0-.14-.13-.27.06v.19h0l0-.13c-.06.06,0,.12,0,.18s-.05,0-.07,0v.18s0-.09-.1,0,.1,0,.09.08-.09,0-.09.11,0,0,0,0-.06.2,0,.26-.08.26-.15.22a.81.81,0,0,1,0,.22c0-.16-.1.25-.18.18,0,.13-.1.34-.12.52a0,0,0,0,1,0,0,.79.79,0,0,1-.12.15c.06,0,0,.19,0,.28-.21.13-.13,0-.21,0s0,.21,0,.2-.05.06-.13.08c.08.05,0,.09,0,.17s-.09,0-.12.15S22.32,9.49,22.32,9.49Zm-1.46,3.13h0l0-.06Zm-.16.25.07-.1v0s-.05,0-.09.06Zm.63-.33a0,0,0,0,1,0,.05l0-.08h0Z"/><polygon class="cls-1" points="21.3 12.43 21.31 12.41 21.29 12.43 21.3 12.46 21.3 12.43"/><polygon class="cls-1" points="17.83 15.51 17.83 15.53 17.85 15.51 17.83 15.51"/><path class="cls-1" d="M12.24,7.2Z"/><path class="cls-1" d="M14.78,7H14.7S14.78,7,14.78,7Z"/><path class="cls-1" d="M14.58,7a.13.13,0,0,0,.12,0Z"/><polygon class="cls-1" points="23.1 6.76 23.13 6.76 23.13 6.75 23.1 6.76"/><path class="cls-1" d="M23.22,6.73h0Z"/><path class="cls-1" d="M22.17,6.77a.74.74,0,0,0,.21,0v.05S22.23,6.74,22.17,6.77Z"/><path class="cls-1" d="M21.27,6.58h.18s-.07,0,0-.06C21.22,6.48,21.5,6.58,21.27,6.58Z"/><path class="cls-1" d="M20.7,6.57c.1,0,0,0,0,0S20.63,6.55,20.7,6.57Z"/><path class="cls-1" d="M16.65,6.72v0C16.59,6.69,16.66,6.69,16.65,6.72Z"/><polygon class="cls-1" points="15.89 6.99 15.96 7.02 15.99 6.97 15.89 6.99"/><polygon class="cls-1" points="15.42 6.68 15.45 6.67 15.32 6.69 15.42 6.68"/><path class="cls-1" d="M9.4,7.84l0,0S9.4,7.77,9.4,7.84Z"/><path class="cls-1" d="M10.78,10.47a.18.18,0,0,0,.08.15A1.09,1.09,0,0,0,10.78,10.47Z"/><polygon class="cls-1" points="17.21 16.17 17.14 16.19 17.26 16.16 17.21 16.17"/><path class="cls-1" d="M10.31,25s2.79-9.28,6.78-9.47,7.67,8.79,7.67,8.79Z"/><path class="cls-1" d="M10.3,24.86s0,.05,0,0V24.8Z"/><path class="cls-1" d="M10.69,25c.05,0,.14-.09.08-.14s-.08,0-.14.11-.1,0-.09,0-.09,0-.12,0a.32.32,0,0,0,.27,0Z"/><path class="cls-1" d="M19.59,24.65h0S19.64,24.66,19.59,24.65Z"/><path class="cls-1" d="M13.53,25a.11.11,0,0,1,0-.08.07.07,0,0,1-.05,0S13.53,25,13.53,25Z"/><path class="cls-1" d="M21.89,18.69c0,.11-.15-.11-.1,0C21.83,18.71,22,18.82,21.89,18.69Z"/><polygon class="cls-1" points="21.79 18.74 21.79 18.74 21.8 18.76 21.79 18.74"/><path class="cls-1" d="M23.7,24.56Z"/><path class="cls-1" d="M24.79,24.43a.2.2,0,0,0,.11,0h0A.36.36,0,0,1,24.79,24.43Z"/><polygon class="cls-1" points="24.52 23.42 24.52 23.45 24.53 23.47 24.52 23.42"/><path class="cls-1" d="M12.09,21H12C12.07,21.06,12,21.19,12.09,21Z"/><path class="cls-1" d="M24.35,24.05Z"/><path class="cls-1" d="M24.28,23.89a.17.17,0,0,0,0-.1h0Z"/><path class="cls-1" d="M11.72,22c.06-.14,0-.09-.06-.14s.08,0,.13-.09a2.89,2.89,0,0,1,0-.29h0c0-.12.14-.31.14-.46h0a.11.11,0,0,1-.08,0c0-.06,0-.14.06-.14s0,0,0,.07v-.07c.09,0,0,.1,0,.11a1.71,1.71,0,0,1,.13-.38c.06,0-.09.23,0,.13l-.09.14c.14-.08-.05.08.09,0s.08-.23.19-.41-.06,0-.06-.07c.08-.3.25-.14.28-.37s-.08-.13,0-.25v.08c.11-.18,0-.15.12-.31,0,.05-.06.15,0,.13s0-.11.06-.2h.07c.1-.19.18-.42.3-.64,0,0,0,.08.05,0a3.58,3.58,0,0,1,.55-.73V18h.05c.08-.08,0,0,0-.08s.07-.05.06,0a1.72,1.72,0,0,1,.46-.64v0c.12-.1,0-.21.18-.29h0a3.21,3.21,0,0,1,.78-.64c0-.1.3-.18.27-.28.19-.07.15,0,.41-.12.07,0,.06-.11.15-.16v.05l.09-.1.08,0,.08,0h-.08a.38.38,0,0,1,.33,0,1.76,1.76,0,0,1,.3-.1l-.09.06c.15-.08,0,.06.17,0v0a1.21,1.21,0,0,0,.38,0v0a3.11,3.11,0,0,1,.73.13c-.08,0,0-.1,0-.09v.07c.06,0-.07-.05,0-.06s0,.09,0,.09h.08a.39.39,0,0,0,.25.1h0a5.36,5.36,0,0,1,.53.28s.1,0,.17,0l.4.38c.12.06.06,0,.12,0s.13.17,0,.12c.19.16.23.2.47.38V17.1s.07.11,0,.12h0c.29.19.43.65.67.8h0l.22.18c.07.11-.08,0,0,.05.24.2.28.39.46.56,0,.23.41.55.48.82h0c.06,0,0,.08,0,.12s0-.08,0-.05a9.29,9.29,0,0,1,.84,1.55c.1.19.21,0,.27.29l-.09,0c.27.34.41.77.65,1.12a.05.05,0,0,1-.05,0c0,.1.13.3.17.29s0,0,0,.06.15.18.13.24,0,0,0,0,.11.25.13.18c0,.15.14.27.17.39a.24.24,0,0,1,.09.15c0,.07,0,.05.06.06s0,.06,0,.11-.06,0-.09-.05,0,0,0,.06,0,0-.06,0H24c-.09,0-.18,0-.24,0-.34.05-.65.1-1,.13,0-.08.34,0,.32-.11a3.6,3.6,0,0,1-.73.13c-.07,0,.05-.05.07-.06a6.51,6.51,0,0,0-.82.08h.05c.05,0-.12,0-.11,0h.05c.08.05-.2.12-.2.15.08-.12-.27,0-.14-.16,0,0-.07,0-.06,0s-.07,0,0,0c-.18,0-.12.06-.28.07l0-.05a.53.53,0,0,1-.3.07h0a3.73,3.73,0,0,1-.67.09c.07-.08-.09,0-.11-.09h-.08a2,2,0,0,1-.34.05l.09,0h-.1c-.12,0,0,.09-.15.08a.47.47,0,0,1-.19,0h0a.33.33,0,0,1-.22,0v-.09a.54.54,0,0,0-.36.1.06.06,0,0,0,0-.06l-.05,0c-.06,0-.07,0-.06,0-.18,0,.06.09-.15.06h0a2.33,2.33,0,0,1-.59,0c-.05-.07.17,0,.1-.08a7.53,7.53,0,0,1-.83.1h.05c0,.1-.2,0-.33,0,0,0,0-.06,0,0a3.5,3.5,0,0,0-.64.08h-.39c-.12,0-.11,0-.06.06-.37-.12-.68.11-1,0h-.21s0,0,.1,0a.31.31,0,0,1-.18.05c.12,0,0-.06-.06-.08s0,0,0,0,0,.08-.22,0h0a.79.79,0,0,1-.22.05c0-.05.08,0,.08-.07s-.21.1-.3.06h.15a.34.34,0,0,0-.2,0h-.14c-.13.13-.27,0-.46.12.18-.09,0,0,0-.1s-.13,0-.11,0-.14,0-.26,0-.09,0-.08,0,0,0,0,.06c-.17.07-.41-.06-.66,0a3.85,3.85,0,0,1-.44.15c-.08,0,0-.07,0-.07a.76.76,0,0,0-.3,0v0s-.05.06-.16,0a.18.18,0,0,1,.08-.07l-.29.08.1-.08a.54.54,0,0,0-.33.1h.07v-.05h.08c.07.1.29,0,.43,0l-.06.08.15-.07s0,.06,0,.08.09,0,.18,0h.1a0,0,0,0,1-.05,0c.19,0,.29-.07.36,0h0c.25,0,0-.06.21-.13l.13.13V24.9h.07l0-.06c0-.07.34,0,.37.05s-.11,0,0-.07c.05.1.16,0,.27,0s-.14,0,0,.07c.07-.08.22,0,.32,0a2.15,2.15,0,0,0,.37-.06,3.4,3.4,0,0,0,.45,0h0c0-.07.19-.06.3-.08s0,.06-.08.08h.1a.18.18,0,0,1,.12-.05v.05a2.4,2.4,0,0,1,.46-.05s-.14-.12.05-.16a.06.06,0,0,1,0,.08.14.14,0,0,1,.09,0l-.07.05c.08,0,0,0,.1,0s.05,0,.05.05-.06,0-.09,0a.46.46,0,0,1,.2.05.06.06,0,0,1,.05-.06s0,0,.13.06.13,0,.13-.06,0,0,.07,0,.34,0,.25-.07h.73a2.7,2.7,0,0,0,.41-.07c.05,0,.1,0,.09,0a.45.45,0,0,1,.28,0c-.11,0,0,0-.12,0a.62.62,0,0,0,.33,0c-.05,0,.11.05.18,0h-.11a.74.74,0,0,1,.21,0v.06c.29.06.51-.15.73,0,.07,0-.16,0-.1-.07a1.16,1.16,0,0,1,.32.08c.19,0,.17-.1.36-.09,0,0-.05-.07.08-.1s.17.08.09.1,0,0,0,0-.1,0-.05,0h0c.07,0,.25,0,.21,0s0,0,0,0h.44s-.06,0,0,0c.26,0,.11-.05.28-.07s0,.08.15.05,0,.05,0,.08a.86.86,0,0,1,.39,0H21l-.06,0H21s0-.07.06-.11a.34.34,0,0,1,.23,0c-.22,0,0,.05-.16.07h.13c.2,0,.09-.07.29-.07,0,0,.05.05.08.05s0-.06,0-.08a.5.5,0,0,1,.21,0h-.08s.09,0,.18-.05h0a.89.89,0,0,0,.37,0c.14,0,0,.06.07.08s.17,0,.34,0c0,0-.06,0,.06-.08l-.28,0,.18-.07c-.09,0-.18,0-.23,0s.08,0,0-.06c.12.06.22-.05.35,0v.11c.2,0,.34-.08.6-.06h-.08c0-.05.16,0,.24,0s0,.05.08.07.19,0,.21-.08l.12,0c.22,0,.2-.11.46-.11-.07.05.07.06-.13.1h.2a.87.87,0,0,1,.35,0c.11,0,0,0,0-.12h0s-.1-.16-.11-.11a1.94,1.94,0,0,0-.13-.42.7.7,0,0,1-.12-.34l-.21-.41h0c-.05-.17-.14-.05-.2-.25s.07.09.07,0-.13-.22-.13-.38h0c0-.11-.15-.21-.23-.37h0a2.15,2.15,0,0,1-.32-.41c.07,0,0,.06.08,0s-.06.05-.14-.07,0-.16,0-.2l.07.13c0-.1-.09-.17-.11-.24h0c-.12-.19-.18-.15-.29-.36v0c-.13-.07,0-.11-.13-.19l.05-.08a3.08,3.08,0,0,1-.3-.33,1.37,1.37,0,0,1,.28.26.83.83,0,0,0-.19-.26.16.16,0,0,1,.06.08.74.74,0,0,1-.28-.3c.13-.05-.19-.38-.17-.54a7.56,7.56,0,0,1-.51-.79c0,.16-.06-.08-.14,0s-.07-.09-.07-.1v-.18c0-.07.06.05.08,0s0-.09-.05-.2-.09,0-.14-.11l0,.15c-.2-.16,0-.23-.26-.39l.08,0c-.1-.08-.3-.37-.45-.4,0,0,0-.07,0,0-.19-.25-.52-.45-.66-.65h0c-.05,0-.11,0-.14-.1s0,0,0,0a.62.62,0,0,1-.19-.14h.08a2,2,0,0,0-.61-.39c.05-.06-.13-.23-.22-.31h0a2.73,2.73,0,0,0-.86-.37,2.47,2.47,0,0,0-1-.36c.05,0,0,.06-.08.06s-.22.05-.2,0h0c-.06-.07-.23-.06-.36,0v.09c-.37-.12-.82.26-1,.21s-.15.11-.21.17v-.06a2.29,2.29,0,0,0-.51.32V16c-.12.09-.06.24-.17.32h-.08a2.06,2.06,0,0,0-.57.53v-.06c-.09.08-.37.31-.25.35-.05-.05-.18.19-.25.32v-.05a.48.48,0,0,1-.1.28h0c-.1.09,0,.11-.14.22v-.07a.26.26,0,0,0-.07.19c0,.08-.16.2-.21.18a.22.22,0,0,1-.05.17v0c-.14.16-.13.3-.25.4h0a2.07,2.07,0,0,1,.17-.24s-.13.08-.11,0a1.25,1.25,0,0,1-.17.43h0a.59.59,0,0,0,0,.08l-.07.09s-.1.13-.14.19,0,.1.07.05,0,0,0-.06h0l.09-.15a.25.25,0,0,1-.08.18v.12c-.11,0-.24.19-.29.19a1.69,1.69,0,0,0-.21.62c0,.06-.06.05-.08.06s0-.07,0-.09-.16.32-.12.38,0-.11-.09.08h0c-.29.33-.14.68-.46,1l.12-.19c-.27.46-.37,1-.65,1.47-.07.12,0,.16,0,.25h-.1v.17c0,.22-.25.31-.26.59h0c0,.1-.08.31-.11.28s0,0,0,.07h0v.24c-.08.18-.11-.05-.19.2V25s0-.1.07-.1V25c.07,0,.13.13.26-.07v-.16h.05v.13c.06-.06,0-.12,0-.18s.05,0,.06,0v-.18s0,.09.09,0-.09.05-.07-.08.08,0,.08-.12v.06c0-.08.06-.2,0-.26s.08-.26.15-.22a.41.41,0,0,1,0-.22c0,.15.1-.25.18-.18,0-.13.1-.35.12-.53v0a.61.61,0,0,1,.12-.16c-.06,0,0-.19,0-.28s0,.1.13.09,0-.21,0-.2.05-.06.12-.08c-.08-.05,0-.08,0-.18s.09,0,.13-.14S11.72,22,11.72,22Zm1.46-3.15h0v0Zm.15-.25-.06.11v0c0-.05,0,0,0-.07ZM12.7,19s0-.06.06-.06l0,.08h0l0,0Z"/><polygon class="cls-1" points="12.7 19.09 12.69 19.11 12.72 19.09 12.71 19.07 12.7 19.09"/><polygon class="cls-1" points="16.14 24.78 16.15 24.78 16.13 24.77 16.14 24.78"/><polygon class="cls-1" points="16.15 15.98 16.14 15.96 16.13 15.99 16.15 15.98"/><path class="cls-1" d="M21.83,24.23h0C21.88,24.21,21.83,24.22,21.83,24.23Z"/><path class="cls-1" d="M19.28,24.47h.08S19.28,24.44,19.28,24.47Z"/><path class="cls-1" d="M19.48,24.44a.24.24,0,0,0-.12,0Z"/><polygon class="cls-1" points="10.96 24.79 10.93 24.79 10.93 24.79 10.96 24.79"/><path class="cls-1" d="M10.86,24.81h0Z"/><path class="cls-1" d="M11.89,24.76a.74.74,0,0,0-.21,0h0A.47.47,0,0,0,11.89,24.76Z"/><path class="cls-1" d="M12.79,25h-.18s.08,0,0,.05C12.84,25,12.56,25,12.79,25Z"/><path class="cls-1" d="M13.36,25c-.1,0,0,0,0,0S13.43,25,13.36,25Z"/><path class="cls-1" d="M17.44,24.76v0S17.4,24.78,17.44,24.76Z"/><polygon class="cls-1" points="18.17 24.48 18.1 24.45 18.07 24.5 18.17 24.48"/><polygon class="cls-1" points="18.64 24.79 18.61 24.8 18.74 24.77 18.64 24.79"/><path class="cls-1" d="M24.63,23.56l0,.05S24.68,23.64,24.63,23.56Z"/><path class="cls-1" d="M23.24,21a.17.17,0,0,0-.06-.15A.94.94,0,0,0,23.24,21Z"/><polygon class="cls-1" points="16.76 15.31 16.82 15.29 16.7 15.32 16.76 15.31"/></svg>