<?xml version="1.0" encoding="UTF-8"?>
<svg id="Capa_1" data-name="Capa 1" xmlns="http://www.w3.org/2000/svg" viewBox="0 0 377.21 152.38">
  <defs>
    <style>
      .cls-1 {
        fill: #4f616f;
      }

      .cls-1, .cls-2, .cls-3 {
        stroke-width: 0px;
      }

      .cls-2 {
        fill: #fffaf0;
      }

      .cls-4 {
        opacity: .2;
      }

      .cls-3 {
        fill: #fff;
      }
    </style>
  </defs>
  <g>
    <path class="cls-1" d="M56.81,18.43c-15.07-3.29-30.4,9.92-37.31,28.18-6.9,18.26-6.47,40.27-2.08,59.88,1.84,8.21,4.55,16.56,9.69,21.66,5.72,5.69,13.31,6.31,20.43,6.68,77.6,4.05,155.31,4.32,232.92.91,15.89-.7,32.07-1.63,47.01-8.9,14.94-7.27,28.7-22,33.48-42.33,5.6-23.84-3.6-52.29-20.42-63.1-9.72-6.24-20.84-6.84-31.61-7.33-56.32-2.56-112.63-5.12-168.95-7.68-27.32-1.24-55.53-2.29-81.01,11"/>
    <g>
      <path class="cls-1" d="M62.77,22.73c-1.09.42-.2,1.22-.27,1.47,1.62-1.05.1-1.71.27-1.47Z"/>
      <polygon class="cls-1" points="80.18 13.56 79.95 14.07 82.55 12.32 80.18 13.56"/>
      <path class="cls-1" d="M98.64,10.45c-.97-.84-2.68-.58-4.55-.15-1.86.52-3.88,1.16-5.58,1.12l-.62-.32-1.2,1.78c3.87-1.06,9.03-2.66,11.95-2.43Z"/>
      <path class="cls-1" d="M108.84,13.9c-.64-.71,2.12-.73-2.31-.12.23.07.29.11.43.17.4-.03.95-.05,1.89-.04Z"/>
      <path class="cls-1" d="M106.96,13.94c-1.95.14,1.3.56,0,0h0Z"/>
      <path class="cls-1" d="M116.03,13.31c-.87.22-1.74.43-2.6.67.54.41,2.86.52,2,.83,2.66-.36,2.12-.79.6-1.51Z"/>
      <path class="cls-1" d="M118.51,11.93l-1.36.28c.24.18.6.25,1.36-.28Z"/>
      <path class="cls-1" d="M114.27,12.8l2.88-.59c-.38-.31-.42-.92-1.32.21.23-.56-.34-.02-1.55.37Z"/>
      <path class="cls-1" d="M112.65,12.54c-1.47-.38-3.37-.6-.76-1.31-2.51.17-3.55.62-3.35.95.19.31,1.63.54,4.11.36Z"/>
      <path class="cls-1" d="M99.42,8.41c-.68-.14-1.35-.23-2.03-.35l-1.64.82c.82-.4,3.85.09,3.68-.46Z"/>
      <path class="cls-1" d="M132.39,14.65c.18-.4-.85-1.11-1.03-1.63l-1.98.38c1,.31,2.9.64,3.01,1.24Z"/>
      <path class="cls-1" d="M131.36,13.02l2.97-.58c-2.62-.18-3.12.13-2.97.58Z"/>
      <polygon class="cls-1" points="118.99 9.83 114.21 11.28 119.92 9.82 118.99 9.83"/>
      <polygon class="cls-1" points="143.66 15.19 141.93 16.05 144.99 14.78 143.66 15.19"/>
      <path class="cls-1" d="M151.17,15.37c-1.28.71,1.65,1.38.31,1.8,2.05-.04,3.82-.63,5.41-1.15-1.68.26-3.45.09-5.72-.64Z"/>
      <path class="cls-1" d="M159.57,15.27c-.84.15-1.72.44-2.67.75.89-.14,1.78-.35,2.67-.75Z"/>
      <path class="cls-1" d="M139.35,12.87c.22.25.63.91,2.28,1.25l-1.11-1.18c-.36-.02-.76-.05-1.17-.07Z"/>
      <path class="cls-1" d="M140.47,12.9l.04.04c1.26.09,2.14.15,2.52.18-.32-.03-1.09-.09-2.56-.22Z"/>
      <path class="cls-1" d="M139.05,12.85c.11,0,.19.01.29.02-.11-.12-.17-.16-.29-.02Z"/>
      <path class="cls-1" d="M126.66,11.01c1.74-.59,5.38-1.14,1.92-2.22-1.27.74.71,1.35-1.92,2.22Z"/>
      <path class="cls-1" d="M137.67,11.37l-3.13-.4c.05.3.6.76-.27,1.04l3.4-.64Z"/>
      <polygon class="cls-1" points="139.23 11.08 137.67 11.37 138.83 11.52 139.23 11.08"/>
      <path class="cls-1" d="M154.22,13.97c1.38-.43,2.87-.4,4.56-.41-1.79-.3-3.65-.51-5.42-.59-.27.34-1.07.95.86.99Z"/>
      <path class="cls-1" d="M147.55,13.35c.09-.02.22-.04.31-.05-.18-.1-.33-.14-.31.05Z"/>
      <path class="cls-1" d="M175.33,14.32c-.09-.07-.17-.14-.26-.22-.02.07-.04.13-.07.19l.33.03Z"/>
      <path class="cls-1" d="M153.07,12.75c-1.34-.28-2.17-.04-2.95.27,1.02-.07,2.09-.09,3.25-.05.12-.15.15-.26-.29-.22Z"/>
      <path class="cls-1" d="M164.21,14.95c-.69-.27-1.48-.51-2.32-.73.67.39,2.05,1.01,2.32.73Z"/>
      <path class="cls-1" d="M148.29,13.63c-.07.01-.13.03-.21.04.43.26.38.14.21-.04Z"/>
      <path class="cls-1" d="M148.29,13.63c.7-.13,1.26-.39,1.83-.61-.83.05-1.6.14-2.27.27.16.09.33.22.44.33Z"/>
      <path class="cls-1" d="M180.67,7.29c-.29,1.04-3.89,1.84-6.91.58-3.06.65-1.24,4.19,1.31,6.23.11-.45.13-.88,3.27-1.35-1.06-.62-6.84-1.65-4.18-2.48,4.15-.35,3.36.52,5.34,1.17-1.64-1.38,5.33-1.66,4.52-3.62l-3.65.51c-.05-.3,1.28-.72.29-1.04Z"/>
      <path class="cls-1" d="M169.15,13.73l-1.29.07c1.45.25,2.48.71,4.36,1.62,2.15-.41,2.61-.78,2.78-1.13l-6.3-.43.44-.14Z"/>
      <path class="cls-1" d="M162.11,13.54c1.05-1.1,4.15-1.44,2.32-2.76-3.76-.09-2.68.83-4.94,1.23,6.08,0-1.77.56,2.58,1.4-1.2.14-2.28.15-3.29.15,1.09.19,2.13.41,3.11.66-.05-.03-.09-.05-.14-.08h-.03s0,0,0-.02c-.25-.15-.34-.24-.05-.15.02-.01.09-.02.13-.02.05-.16.17-.29.29-.42,1.75.32.26.31-.29.42-.02.05-.07.11-.08.17,0,0,.01.01.02.02l6.1-.35c-1.28-.22-2.89-.26-5.75-.26Z"/>
      <path class="cls-1" d="M131.89,6.46c.18.11.17.19.18.27.4-.12.55-.21-.18-.27Z"/>
      <path class="cls-1" d="M134.36,7.25c-.45.14-.83.58-2.26.41-1.23-.39.03-.55-.02-.92-.88.27-3.05.7-.37,1.36l.43-.14c2.42.48,5.5,2.05,5.06,2.19-.67-1.06-1.26-1.82-2.85-2.89Z"/>
      <path class="cls-1" d="M148.42,10.11l5.08-.33-2.53-1.1.1.6c-2.87-.36-2.28.4-2.66.84Z"/>
      <polygon class="cls-1" points="175.88 14.91 175.15 16.09 178.15 14.52 175.88 14.91"/>
      <polygon class="cls-1" points="182.46 15.07 182.17 16.1 183.93 15.55 182.46 15.07"/>
      <path class="cls-1" d="M242.52,143.4l-1.48.34c.7-.11,1.15-.23,1.48-.34Z"/>
      <path class="cls-1" d="M253.31,143.15l.25-.53c-.49.3-.69.52-.25.53Z"/>
      <path class="cls-1" d="M338.54,28.14c.2.46.41.9.55,1.39.14.49.27.94.4,1.3.25.71.5,1.04.83.55l.39-1.19c-.53-.34-.94-.69-1.28-1.06-.34-.36-.65-.64-.89-.98Z"/>
      <path class="cls-1" d="M338.36,120.33c.24-.03.47-.08.71-.13.16-.65.31-1.24.43-1.79-.33.58-.72,1.24-1.15,1.91Z"/>
      <path class="cls-1" d="M339.96,125.07c-.97.42-1.94.82-2.93,1.17.72-.16,1.68-.51,2.93-1.17Z"/>
      <path class="cls-1" d="M183.56,145.59l-1.74,1.18c2.73-.02,1.52-.6,1.74-1.18Z"/>
      <path class="cls-1" d="M249.8,17.7c1.85.53,3.33.79,4.63.9-2.22-.76-3.99-1.83-4.63-.9Z"/>
      <path class="cls-1" d="M246.4,131.09c-.9.23-1.28.48-1.25.74.93-.22,1.45-.46,1.25-.74Z"/>
      <path class="cls-1" d="M259.82,18.85c-.32-.13-.64-.2-.98-.31-1.37.13-2.76.22-4.42.07,1.64.57,3.53.96,5.4.24Z"/>
      <path class="cls-1" d="M7.69,75.35c.06-.16.09-.36.16-.51-.15-.05-.17.17-.16.51Z"/>
      <path class="cls-1" d="M41.91,25.93c-.4.34-1.15.72-1.8,1.2.35-.2.92-.48,1.8-1.2Z"/>
      <path class="cls-1" d="M208.88,16.77c-1.4.01-.23.12,0,0h0Z"/>
      <path class="cls-1" d="M202.31,11.92c.3-.12.54-.27.58-.53-.13.27-.33.44-.58.53Z"/>
      <path class="cls-1" d="M274.03,12.33s.07,0,.12,0c-.4-.24-.33-.2-.12,0Z"/>
      <path class="cls-1" d="M206.81,16.15c.52.16,1.11.31,1.77.42-.28-.1-.82-.24-1.77-.42Z"/>
      <path class="cls-1" d="M207.07,16.71c-.48-.07-.85-.12-1.21-.17-.18.18-.03.31,1.21.17Z"/>
      <path class="cls-1" d="M210.83,16.8c-.8-.02-1.54-.11-2.25-.22.27.09.38.16.31.2.41,0,.99.01,1.94.03Z"/>
      <path class="cls-1" d="M84.39,139.95c-.09-.04-.2-.07-.3-.12-1.43.42-.81.37.3.12Z"/>
      <path class="cls-1" d="M365.83,52.28c-.03-.07-.06-.1-.09-.15,0,.07,0,.16,0,.23l.08-.07Z"/>
      <path class="cls-1" d="M367.72,57.42c-.44-.51-.77-.98-1.02-1.41-.27-.43-.47-.83-.6-1.23-.27-.79-.32-1.55-.36-2.43-.95.83-1.9,1.64-2.86,2.42.82.41,1.64.83,2.46,1.27.81.44,1.58.9,2.38,1.38Z"/>
      <path class="cls-1" d="M216.67,144.33l3.55.97c-4.23,1.77-7.33,1.24-3.98,2.63.43-3.59,13.73-.64,14.13-4.25l2.34.7c-.67-.02-.77.19-1.43.17,4.57,1.61,3.3-2.66,9.13-2.32,2.04.22,3.47.7,2.1,1.16l4.5-1.02c1.32.03,1.02.67-.3.63l6.89-.5-.05.11c.97-.6,3.17-1.55,4.24-1.96,1.77.45-.87.41-.4.85l3.79-1.01c1.59.88-1.54,1.89-4.19,1.85,3.69,3.46,3.14-1.01,10.91.8l-3.59.59c2.4,1.97,5.19,1.1,9.33,2.21-1-.62-8.3-2.87-4.19-3.93,1.18.22,2.72.29,4.93-.53.07,1.28,2.24.87,4.97.69l-.11,1.7c2.93-.61,2.67-1.47,4.38-2.31,3.33,0,4.1,1.27,4.95,2.33,5.41-.06-3.84-1.87,2.51-2.59,4.52.32,7.69-.62,12.94-2.39,3.25.11-.4,1.11.81,1.42.88-.58,1.75-1.2,2.6-1.8.69-.08.55.36.47.59,2.27-.97-.1-1.69,3.47-2.89.29-1.04,2.29-.75,4.78-.78,1.25.02,2.6-.1,3.9-.39,1.29-.31,2.5-.88,3.42-1.77,1.26.01-.15,1.18.41,1.66,1.42-.95,2.42-1.59,3.19-2.14.76-.56,1.31-.96,1.81-1.37.51-.39.96-.82,1.53-1.4.56-.59,1.28-1.27,2.17-2.36l2.23-.67c.74-.24,1.46-.52,2.2-.78-1.75.4-1.91-.33-1.39-1.5.55-1.15,1.69-2.86,2.72-4.4-1.28.18-2.35.31-3,.47l1.93-2,1.81-2.09c.69-.21.65.58.4,1.7.2-.35.39-.68.52-.96.96-.4,1.39-.29,1.55.17.16.46.02,1.25-.25,2.07-.76.19-1.51.36-2.25.51-.44,1.67-.88,3.38-.05,4.01.19-.39.69-.96,1.28-1.52-.13.45-.18.79.07.82.28.03.54-.65,1.01-1.61.74.2,1.5.4,2.26.58l-.23-.78c1.13-.69,2.2-1.47,3.32-2.22,1.08-.78,2.13-1.61,3.21-2.43.59-1.4,1.11-2.76,1.56-4.18.41-1.44.9-2.83,1.3-4.36.21-.76.44-1.52.69-2.3.25-.78.47-1.61.76-2.44.59-1.65,1.16-3.46,1.95-5.4.29,2.49,1.81,1.44,3.24,2.27-.67.34-1.17.89-1.58,1.61-.4.72-.72,1.59-1.1,2.52-.38.93-.71,1.97-1.21,2.97-.5.99-1.08,1.99-1.83,2.88,1.54-1.86,1.88-.99,1.74-.32.58-1.3,1.18-2.58,1.66-3.91.51-1.31,1-2.62,1.4-3.96,1.07.79,1.78-1.03,3.17-2.8-1.56.17-1.25-1.4-.62-3.44.29-1.03.72-2.18,1.05-3.29.3-1.12.55-2.2.62-3.04.46.04.84.31.92,1.05.04.37,0,.87-.13,1.5-.07.32-.17.68-.29,1.07-.15.39-.33.81-.54,1.28.9-.87,1.26-1.75,1.35-2.6.1-.85-.05-1.66-.21-2.47-.17-.81-.41-1.61-.4-2.44-.01-.83.27-1.67.88-2.65-.15.98-.47,1.44-.12,1.93-.15-2.39,1.38-7.81,1.92-6.41-.03.33-.07.66-.13.99.2-.81.3-1.74.45-2.73.12-1,.3-2.06.35-3.17.08-2.21.17-4.55-.1-6.69-.11-1.07-.2-2.1-.39-3.03-.2-.93-.42-1.78-.65-2.5-.23-.72-.48-1.32-.75-1.76-.28-.43-.58-.71-.88-.79.27-.11,2.84.49,3.31.85-1.51-1.82-3.05-3.53-4.62-5.14-.82-.8-1.64-1.57-2.45-2.32l-1.22-1.11-1.29-1.05c1.06.2,2.46-.88,3.88-1.47.71-.29,1.44-.45,2.14-.22.69.23,1.45.84,1.98,2.13-.02-.81-.12-1.7-.4-2.78-.14-.54-.32-1.12-.57-1.76-.24-.64-.55-1.33-1.02-2.06.15,1.12-1.88,3.38-2.43,2.06.39-2.18.4-2.94.36-3.79-.03-.42-.06-.88-.1-1.55-.08-.67-.16-1.56-.25-2.9.14.83-.67,1.13-1.63.94-.98-.18-1.99-.86-2.54-1.95.59.14,2.58-1.53,3.3-.83-1.93-1.46-3.67-2.9-5.68-4.08,1.28,1.03,2.32-1.06,2.23-2.77-.03.22-.23.03-.54-.39-.15-.21-.33-.49-.52-.8-.22-.3-.46-.64-.71-.99-.99-1.42-2.15-3.11-2.91-3.64l.67,1.28.57,1.32c-.25-.38-.51-.73-.76-1.05-.26-.31-.55-.57-.82-.82-.55-.48-1.08-.86-1.6-1.15-.52-.29-1.02-.52-1.52-.69-.53-.15-1.05-.26-1.56-.36-1.03-.19-2.02-.38-3.08-.75-1.13-.31-2.27-.86-3.65-1.85.52-.07,1.44-.52,1.94-1.31.24-.39.37-.86.24-1.39-.13-.52-.53-1.06-1.31-1.64-1.14.21-3.71.91-6.48,1.66-2.81.76-5.8,1.62-8.58,1.6l-.86-1.07c-1.46.03-2.93.14-4.38.27,1.48-.97,4.27-2.35,7.52-3.32,3.22-.99,6.95-1.44,9.56-1.24-1.15-.91-1.24-1.22-1.53-1.51-.29-.26-.78-.61-2.82-1.25-.59-.63.06-.74,1.03-.64.97.1,2.24.51,2.86.72-3.12-1.51-6.36-2.65-9.58-3.51.03.92-1.91.95-3.78,1.08-1.87.12-3.69.29-3.6,1.05,3.38-.23,6.89-.27,10.52.11-.03.91-1.86,1.69-4.33,2.2-2.49.49-5.62.78-8.74.34-1.55-.85,1.5-3.05,1.45-3.65-.45.27-2.02.4-3.51.46-1.5.05-2.94,0-3.22-.23l2.76-.78c-3.55-.91-5.87,2.04-9.93.15-1.42-.18-4.16-2.48-4.46-1.44,2.24,2.14,2.41,8.44.79,9.89-.49-.16-7.42-2.28-9-3.36-2.28-1.7,3.7-3.63,1.76-5.09-.11.48-1.44,1.02-1.99,1.19-1.48-.48.69-1.48-2.58-1.41-.63,1.78-6.63-.45-1.61,1.45-3.21.37-3.37-.52-7.12-.62,1.14,1.22-3.54,3.81-6.76,4.18.21-.45-.48-1.08-.82-1.37-6.53-.46-10-1.44-16.1-1.73-.54-.46-3.46-1.12-2.17-1.84-.89.28-1.72.85-3.61.81-3.57-1.73,4.2-.05,1.51-2.05-.28,1.04-4.93,1.22-7.64,1.76.75,1.66,6.17.59,8.89.06-.09,2.23-4.86,4.36-11.28,5.1-5.09.32-2.13-1.54-3.02-1.27-9.5-.82-8.28,3.53-16.11,1.56-3.07-1.57-.01-2.84-.66-3.9,4.15-.35,6.29,1.19,9.09,1.26l-3.41-.83c1.33-.41,4.1-.65,5.59-.17-2.57-1.4-16.06-.98-23.35-2.49-1.33.42-3.6.81-2.56,1.43l2.33-.09c2.08,1.24-4.44,1.39-1.53,2.06-3.15.66-6.7,1.77-11.06.93l-.75-1.66c.07.48,2.82,1.1,4.08.66-1.86.64-6.62-2.5-8.72-.47l3.02,1.26c-3.16.67-7.11,2.22-10.97,1.53,1.7,1.68.9-.14,3.58,1.86-2.29-2.44,9.94.55,6.2-2.08,2.73,2.3,4.86,1.15,8.48,3.17-.09-.54-1.27-1.08,1.98-.67.15-.15.51-.33.74-.44.1.02.13.03.22.05-.06-.03-.11-.05-.18-.07.15-.07.16-.09-.07-.03-.77-.27-1.38-.58-1.63-.89,1.68-1.16,6.86-.88,8.65-1.44,1.92.34-.84.58.19,1.2l2.66-.83c.21,1.2,5.05,2.21.46,2.7l4.1.24c2.39.78,5.7,1.19,7.77.79,1.92.35,4.95-1.09,3.22-.24l6.47-.44.05.3c6.34.44,13.17-1.37,20.33,1.1,2.15-.2,4.38-.47,7.94.03l.65,1.06c2.76-.23,8.2,1.4,9.43.39,2.84,2.9,13.3,1.21,18.1,1.92l.24-1.33c3.32.23,6.52,0,10.67-.36l-.2-1.2c3.62-.79,9.11,1.17,14.29,1.66-.41.41-1.71.14-2.64-.21,3.05,1.62,6.21,1.56,9.32,1.73,1.56.06,3.08.23,4.49.59,1.39.41,2.66,1.02,3.58,2.06,1.35.19,2.08.84,2.68,1.55-.09-.07-.2-.1-.3-.11.11.08.27.18.42.3.33.5.65,1.03,1.02,1.53-.24-.53-.51-1.02-.8-1.37.77.59,2.11,1.19,3.36,2.05l-.4,1.36c.1.07.17.13.27.2.71,1.27,1.28.34,1.37-.87.73.32,1.34.74,1.96.93-.17.58-.06,1.02.2,1.4.26.38.68.7,1.05,1.1.76.76,1.58,1.61,1.18,2.9.7.15,1.98,1.66,3.25,3.21.61.79,1.26,1.57,1.91,2.14.67.56,1.23.98,1.85.94-.24.18-.18.68-.55-.13.51,1.8,1.03,3.53,2.14,4.9l-1.26,1.28c1.17.98,2.21,2.06,3.28,3.17-.13,1.32-.27,2.25-.65,2.61-.38.36-.83.09-1.78-.88,1.63,2.53,2.01,3.69,2.42,4.7.33,1.04.67,1.94,1.96,4.32l-1.06-.12c.17,1.74,1.9,4.52.99,5.65-.92,2.03-.92,6.91-1.9,12.43-.92,5.49-3.09,11.66-6.11,15.67,1.77-.21,1.04.74-.07,1.8-.54.54-1.12,1.12-1.46,1.67-.35.53-.47,1.02,0,1.42-.94.13-2,1.06-1.7-.62-.25.58-.52,1.1-.79,1.58-.29.47-.6.89-.9,1.28-.6.79-1.18,1.46-1.77,2.07-.57.62-1.06,1.23-1.48,1.92-.43.67-.76,1.45-.96,2.44-.92-.07-.09-1.52-.75-1.43-.07.2-.21.6-.42.97-.22.35-.51.66-.85.69-.67.05.08-.93.35-1.72-1.65,1.84-2.21,3.23-2.25,4.38-.02,1.17.53,2.14,1.09,3.06-2.7,1.03-3.6,1.91-4.38,4.2-.58.01-1.29.09-1.55-.11-.25-.19-.02-.62,1.21-1.7-.76.52-3.17,1.96-5.42,3.2-2.22,1.29-4.28,2.46-4.02,3.26-.71-.14-2.41.97-2.81,1.31-3.94,1.45-4.34,1.4-8.27,2.72l1.19-.04c-.51,1.2-1.34,1.54-2.42,1.72-1.1.14-2.43.14-4.07.59l.05-.22c-1.98.03-3.16.08-3.96.19-.79.11-1.19.26-1.59.38-.8.26-1.6.54-5.52.14l.56,1.22c-.21,1.39-1.99,1.19-4.24.76-2.25-.42-4.97-1.07-7.21-.42l1.68.63c-2.44,1.09-7.13-3.35-9.64-3.59-.56-.22.85-.42,1.6-.62-6.63-1.34-.78,1.7-5.65,2.29-.94-.86,1.07-2.33-2.23-2.36-1.66-.65-9.43,3.3-13.99,1.73,1.01.66,2.02,1.31-.23,1.91-3.48.38-9.5-2.29-12.58-.03-.45-.18-.62-.35-.65-.52-2.65.64-8.63,1.2-10.21,2.4-2.57-4.33-16.53,2.52-16.55-1.55l-8.19.36.21-.42c-5.24-.18-7.08.79-8.91,1.79-1.22-.26-.33-.65-.24-.86-7.67-.73-8.42-.55-14.83,1.5l-.67-1.31c-.87.39-3.64-.11-7.13-.51-3.49-.42-7.7-.75-11.45.02.07-.15.23-.4.83-.59-8.46,1.53-20.19-3.75-23.33.98l-5.59,1.11c7.21.46-1.1,2.06,1.86,2.89-2.85.24-7.32-1.54-3.83-1.74l.54.25c1.32-2.46-8.96-1.03-8.73-2.73-14.2-.12-28-1.9-41.27-2.47l1.46,1.99-4.63-.28c-1.2-.5-1.58-1.58,1.73-1.37-1.7-1.16-5.58.71-5.69,1.13-6.44-1.02,2.62-2.16.63-2.28l-2.7.05.6.25c-2.22.71-2.44,1.54-6.41,1.27-2.5-.5-1.24-1.25-2.23-1.37.01-.14-.32-.22-1.51-.12l-5.83-.42,2.26,1.63c-2.62.65-5.49-.33-2.87,1.53-1.92-1.43-7.35-1.94-12.6-2.2-2.66-.13-5.14-.21-7.06-.42-1.92-.19-3.25-.53-3.73-.83-3.3.43-6.36-.74-8.96-3.28.21.43.19,1.05-.21,1.3-.21.13-.5.14-.9-.04-.2-.09-.43-.23-.68-.42-.24-.21-.5-.49-.78-.82,1.73-.76.96-2.06.1-3.83-.89-1.76-1.9-4.15-1.23-5.92-.29,1.45-1.38-.69-2.29-2.87-.92-2.15-1.76-4.26-2.36-1.92-.55-3.04,1.22-.54,1.43-2.98-1.57-3.32-2.17-7.42-2.5-11.66-.33-4.26-.38-8.72-.81-13.19-.47-.12-1.1,1.44-1.9-.48.74-1.64,1.42-3.25,2.23-4.82-.21-1.75-2.72-1.68-.97-4.88-.41.44-1.03,1.11-1.13-.1.77-4.42,1.42-8.81,2.25-13.18.83-4.36,1.85-8.72,3.36-12.88,1.49-4.12,3.57-8.08,6.31-11.45,2.73-3.36,6.17-6.13,9.97-7.53-2.27.51-1.18-.37.16-1.38-1,.46-.63-.96-1.16-1.36.55-.25,1.15-.39,1.72-.57.58-.16,1.13-.36,1.7-.48,1.16-.19,2.25-.49,3.36-.5.13-.49.6-.95,1.26-1.25.67-.25,1.5-.51,2.32-.64.82-.07,1.63-.23,2.27-.34.64-.09,1.13-.29,1.33-.71l-1.05.13-.52.06-.52.13c1.33-1.09.42-2.16-1.21-3.14-.4-.25-.84-.5-1.28-.76-.43-.22-.86-.43-1.25-.66-.77-.46-1.37-.96-1.39-1.61-1.74,1.55-4.41,1.68-7.5,2.48-2.99.83-6.28,2.46-7.65,5.88-1.45.59.39-1.43-.59-1.35-.31.95-.7,1.87-1.46,2.79-.77.9-1.73,1.95-3.14,3.2l.07-.49c-3.25,4.13-5.29,7.22-7.41,10.51-.5.84-1.02,1.69-1.54,2.57-.5.89-.98,1.84-1.51,2.84-.55,1-.98,2.08-1.5,3.24-.53,1.15-.98,2.42-1.48,3.8l1.45-.47c-.88,2.32-1.34,2.74-1.93,3.79.59,1.6,1.02-.08,1.49-1.77.55-1.68,1.12-3.37,1.77-1.84-1.72,1.17-2.84,5.41-3.63,9.52-.74,4.13-1.25,8.12-2.74,9.12-.29,3.78,1.53-.99,1.24,2.76l-.82.96.98.99c-.28,2.44-1.22,3.67-1.9,3.76.09-.6-.2-1.71-.22-2.37-1.02,3.24.37,9.1.19,10.19.07-1.22.2-2.43.33-3.65.98,10.24,1.87,22.7,6.17,31.95l.36-.89c1.57,3.5,1.99,4.98,2.38,6.62.2.81.41,1.67.86,2.79.44,1.13,1.15,2.55,2.49,4.4l-.3-.2c1.48,1.23,3.16,3,5.02,4.79-1.11-.56-.54.45.04,1.43.61.93,1.22,1.86-.36,1.1,2.16,1.38,3.65,1.91,4.62,2.24.99.29,1.49.38,1.92.35.83-.07,1.41-.24,4.46-.51.33.44.68.84,1.04,1.27,1.05-.22,1.62-.46,2.46-.58.83-.13,1.93-.14,3.97-.08-1.71.26-1.11.69-.53,1.16.57.46,1.12.96-.88,1.33,4.41,1.5,7.44,1,10,.73,2.55-.29,4.52-.49,6.36,1.17,3.95-2.53-7.13-1.86-4.96-2.34-1.75-.98,3.25-1.87,5.85-1.47,2.65.2,4.35,3.69,11.05,3.92-.67-.04-.72.16-1.38.12,2.48.8,4.94-.72,7.97.53,1.79-1.58,3.99.24,4.56-1.84l-6.15.25c3.5-.4,6.85-2.75,12.53-1.34-.46.41-2.19.9-3.37,1.17,1.65.68,3.24-.29,4.95.41-.57,2.08-7.47.18-11.26,1.64,1.77.95,7.11-1.26,5.15.94,2.8-2.8,6.58.63,11.19-1.45l-.34,1.25c.72-.18,2.23-.72,3.55-.65l-2.44,1.56c3.71-1.28,7.04,1.44,10.59.79-7.38-.19-1.61-1.56-4.7-2.58,9.13-1.4,5.13,3.43,15.34,3.1-1.38.14-5.16-.88-2.99-1.41,1.93.31,4.48.85,5.66,1.54,6.76-.12-1.01-1.31,1.88-2.02,2.26,1.57,3.33-.56,6.29-1v1.28c7.67.96,2.08-2.62,8.98-1.51l-2.95,1.73,3.62-.4-.77,1.44c3.94-1.03,5.16-.73,9-.28-.88-.91.53-2.31,3.93-2.31,2.31.78-1.31,1.21,3.52,1.06-1.1.79-2.3,1.79-4.39.59-.22.41-1.08.79-1.31,1.2,2.49.91,6.29.25,8.04.26-.67-.05-1.48-.13-1.89-.31l7.01-1.72c1.1.49.22.87-.64,1.24,1.42-.13,2.4-.71,4.49-.81-.54,1.04-.42,2.11-3.37,2.58l6.68-1.13c.44.45,3.42,1.24,2.55,1.63,3.7.61,9.07-2,13.98-1.23.25-.2.76-.4,1.81-.55,4.61.22,8.7,1.47,14.15-.03l3.12,1.83c4.27-.47-4.22-2.3,2.89-3.08,5.03-.66,1.9,1.56,3.68,2.06,2.5-.98,6.82-2.97,11.48-1.53-1.53.38-2.73.12-4.16.29ZM269.36,142c-1.01.31-3.01,1.22-3.79.49,1.11-1.5,2.03-.85,3.79-.49ZM345.9,116.91c-.23.88-1.31,1.56-2.64,2.13.65-.77,1.55-1.45,2.64-2.13ZM224.21,16.43s.08-.03.11-.06c2.25.6,1.45.37-.11.06ZM219.52,15.66c-.48.16-.46.34-.27.52.34-.31,1.4-.28,2.61-.14-.32-.35-.92-.61-2.34-.39ZM69.84,130.76l.9.37c-2.08.28-1.49-.03-.9-.37Z"/>
      <path class="cls-1" d="M339.81,124.49c-.38.01-.59-.13-.79-.28-.21.43-.08.64.79.28Z"/>
      <path class="cls-1" d="M183.88,145.37c-.05-.01-.11,0-.16-.01-.09.08-.13.15-.16.23l.32-.22Z"/>
      <path class="cls-1" d="M293.07,8.15c.96.23,1.49.49,1.84.74.07-.31-.36-.59-1.84-.74Z"/>
      <path class="cls-1" d="M194.43,16.69l3.04-.19c-1.46,0-1.97-.31-2.7-.54.05.3.61.76-.33.74Z"/>
      <path class="cls-1" d="M168.56,7.6c-.45.14-.94-.03-1.38.11l.09.6c1.88.05,3.22-.37,1.29-.71Z"/>
      <path class="cls-1" d="M191.82,12.32c-.19-1.08-2.1-.81-4.23-.7.13,0,.25,0,.37.02-.69,1.47,1.59,1.08,3.85.69Z"/>
      <path class="cls-1" d="M187.1,11.63c-.65.02-1.32.02-1.96-.06-.28.59.79.16,1.96.06Z"/>
      <path class="cls-1" d="M213.5,16.1c-.99-.32-.69,1.34-1.24.88-1.18,1.32,6.77-1.35,1.24-.88Z"/>
      <polygon class="cls-1" points="190.27 8.71 190.97 10.07 192.2 9.05 190.27 8.71"/>
      <path class="cls-1" d="M206.93,10.44l-3.36-.52c.04.22-.39.34-.93.41,2.08.14,4.35.51,4.29.11Z"/>
      <path class="cls-1" d="M202.64,10.33c-1.08-.08-2.12-.09-2.73.1.59.01,1.85.03,2.73-.1Z"/>
      <polygon class="cls-1" points="194.91 8.52 195.9 8.84 198.28 9.04 194.91 8.52"/>
      <path class="cls-1" d="M243.27,12.35l3.71-.21c.4-.44-.6-.76-1.98-.64-.9.28-2.27.39-1.73.86Z"/>
      <path class="cls-1" d="M232.28,8.21c.99.32,1.04.62,1.58,1.08l.19-1.64-1.77.56Z"/>
      <path class="cls-1" d="M243.06,8.31c.39-.44,5.42-1.07.73-1.17-.39.44-4.11.65-.73,1.17Z"/>
      <polygon class="cls-1" points="298.57 12.92 297.63 12.9 297.64 15.6 298.57 12.92"/>
      <path class="cls-1" d="M349.9,19.71c-.86-.99-1.42-1.47-1.82-1.66-.43-.18-.67-.1-.89-.02-.45.16-.81.36-2.48-1.35-1.32-.18,2.69,2.77,1.35,2.48.74.3,1.29.67,1.76.98.47.3.84.55,1.14.67.59.25.88.04.94-1.1Z"/>
      <path class="cls-1" d="M346.07,19.16c-.46-.2-.95-.41-1.49-.58.8.38,1.22.52,1.49.58Z"/>
      <path class="cls-1" d="M49.96,24.6l1.02.17.5.08.48.16c-.41-.35-.86-.59-1.33-.83l-.68.42Z"/>
      <path class="cls-1" d="M54,22.54c.11.6.21,1.19.28,1.79.47-.45.98-.9,1.53-1.35-.52,0-1.48.02-1.82-.43Z"/>
      <path class="cls-1" d="M277.34,145.14l.2-.42c-.46-.43-1.12-.44-2.44-.45l2.25.87Z"/>
      <polygon class="cls-1" points="239.01 145.19 239.67 145.2 238.4 143.69 239.01 145.19"/>
      <path class="cls-1" d="M206.9,147.83c1.31.05,2.85-.33,4.17-.28-2.86.33-4.55-1.65-4.17.28Z"/>
    </g>
  </g>
  <g>
    <g class="cls-4">
      <path class="cls-2" d="M185.71,44.45c12.83.48,25.36-.11,38.07-2.35,3.37-.59,6.64-1.59,9.48-3.87s4.89-6.5,4.07-10.51c-.78-3.79-3.88-6.32-7.04-7.1-10.03-2.46-20.18-2.34-30.32-2.05-16.36.47-33.38-2.16-49.54,2.05-2.9.76-5.88,1.8-8.09,4.2s-3.41,6.52-2.04,9.71c1.15,2.7,3.7,4,6.07,4.97,12.6,5.16,26.15,6.86,39.36,4.93"/>
      <g>
        <path class="cls-2" d="M185.15,42.29c.32,0,.15-.37.19-.44-.51.15-.16.54-.19.44Z"/>
        <polygon class="cls-2" points="180.06 43.69 180.14 43.53 179.39 43.96 180.06 43.69"/>
        <path class="cls-2" d="M175.16,43.86c.47.67,1.78-.14,2.65.08l.15.14.37-.54c-1.05.11-2.42.52-3.17.32Z"/>
        <path class="cls-2" d="M172.6,42.41c.15.26-.56.19.59.1-.06-.03-.07-.05-.11-.07-.1,0-.25,0-.49-.04Z"/>
        <path class="cls-2" d="M173.09,42.45c.51,0-.32-.23,0,0h0Z"/>
        <path class="cls-2" d="M170.74,42.49c.23-.05.45-.13.68-.19-.13-.15-.72-.22-.49-.31-.69.07-.56.23-.18.5Z"/>
        <path class="cls-2" d="M170.08,42.91l.35-.07c-.06-.07-.15-.1-.35.07Z"/>
        <path class="cls-2" d="M171.18,42.69c-.25.06-.5.11-.75.15.09.11.09.32.34-.05-.07.19.09.02.41-.11Z"/>
        <path class="cls-2" d="M171.59,42.81c.37.16.85.26.17.46,1.29-.04,1.12-.5-.17-.46Z"/>
        <path class="cls-2" d="M174.91,44.53l.52.19.44-.22c-.22.11-.99-.18-.96.02Z"/>
        <path class="cls-2" d="M166.64,41.78c-.06.13.18.39.21.57l.51-.1c-.24-.12-.71-.26-.72-.47Z"/>
        <path class="cls-2" d="M166.85,42.35l-.77.16c.66.1.79,0,.77-.16Z"/>
        <path class="cls-2" d="M169.91,43.62c.42-.14.84-.26,1.26-.41-.5.15-.99.27-1.49.4h.24Z"/>
        <polygon class="cls-2" points="163.86 41.39 164.32 41.13 163.51 41.49 163.86 41.39"/>
        <path class="cls-2" d="M162.01,41.12c.35-.21-.33-.51.02-.62-.5-.03-.97.09-1.39.21.43-.03.85.1,1.37.4Z"/>
        <path class="cls-2" d="M159.94,40.87c.22-.02.45-.09.7-.16-.23.01-.46.06-.7.16Z"/>
        <path class="cls-2" d="M164.84,42.26c-.04-.09-.12-.32-.52-.47l.23.42c.09.01.19.03.29.05Z"/>
        <path class="cls-2" d="M164.56,42.23h0c-.31-.07-.53-.11-.62-.12.08.02.27.05.63.12Z"/>
        <path class="cls-2" d="M164.91,42.27s-.05,0-.07-.01c.02.04.04.06.07.01Z"/>
        <path class="cls-2" d="M167.98,43.11c-.46.17-1.4.3-.55.73.34-.23-.14-.47.55-.73Z"/>
        <path class="cls-2" d="M165.2,42.81l.77.2c0-.1-.12-.27.1-.35l-.88.15Z"/>
        <polygon class="cls-2" points="164.8 42.87 165.2 42.81 164.91 42.73 164.8 42.87"/>
        <path class="cls-2" d="M161.18,41.51c-.37.1-.73.03-1.15-.03.43.17.88.31,1.31.39.08-.11.32-.29-.16-.36Z"/>
        <path class="cls-2" d="M162.81,41.91s-.05,0-.08,0c.04.04.08.06.08,0Z"/>
        <polygon class="cls-2" points="156 40.51 156.04 40.59 156.07 40.53 156 40.51"/>
        <path class="cls-2" d="M161.4,41.96c.32.13.54.07.75,0-.26,0-.53-.03-.81-.07-.04.05-.05.08.06.08Z"/>
        <path class="cls-2" d="M158.77,40.81c.15.12.33.23.52.34-.14-.15-.44-.42-.52-.34Z"/>
        <path class="cls-2" d="M162.64,41.79h.05c-.1-.11-.09-.07-.05,0Z"/>
        <path class="cls-2" d="M162.64,41.79c-.18.02-.33.1-.48.16.21,0,.41,0,.58-.03-.04-.03-.07-.08-.09-.13Z"/>
        <path class="cls-2" d="M154.09,42.56c.16-.33,1.13-.4,1.79.18.83-.08.62-1.33.15-2.15-.06.15-.1.29-.91.28.21.26,1.57.92.84,1.05-1.06-.11-.8-.36-1.24-.68.3.55-1.47.27-1.44.95.32.02.64.02.96.04-.01.1-.38.17-.16.33Z"/>
        <path class="cls-2" d="M157.47,41l.32.03c-.34-.15-.56-.35-.96-.74-.56.04-.7.13-.77.24.5.17,1.01.29,1.52.44l-.12.03Z"/>
        <path class="cls-2" d="M159.2,41.36c-.33.34-1.13.31-.76.84.94.18.73-.18,1.32-.22-1.52-.22.48-.12-.56-.57.31,0,.57.03.83.07-.26-.1-.5-.21-.73-.34l.03.03h0s0,0,0,0c.05.06.07.09,0,.05,0,0-.02,0-.03,0-.02.05-.06.09-.1.13-.41-.17-.05-.11.1-.13,0-.02.02-.03.03-.05h0c-.51-.03-1.02-.1-1.53-.15.3.12.69.23,1.4.33Z"/>
        <path class="cls-2" d="M166.52,44.59s-.04-.07-.04-.1c-.11.04-.15.07.04.1Z"/>
        <path class="cls-2" d="M165.9,44.28c.12-.04.23-.19.59-.11.3.15-.02.19-.02.32.23-.08.8-.2.13-.46l-.12.04c-.61-.19-1.33-.8-1.22-.84.13.37.26.65.63,1.05Z"/>
        <path class="cls-2" d="M162.44,42.98l-1.3-.03.59.45v-.21c.71.21.6-.07.72-.21Z"/>
        <polygon class="cls-2" points="155.91 40.28 156.18 39.93 155.32 40.29 155.91 40.28"/>
        <polygon class="cls-2" points="154.31 39.88 154.47 39.55 153.99 39.64 154.31 39.88"/>
        <path class="cls-2" d="M210.5,16.29l.39-.1c-.18.03-.3.06-.39.1Z"/>
        <path class="cls-2" d="M207.69,16.25l-.07.18c.13-.1.18-.17.07-.18Z"/>
        <path class="cls-2" d="M156.83,21.6c.59.25,1.26.69,1.14.29l-.22-.37c-.36.12-.66.12-.92.07Z"/>
        <path class="cls-2" d="M184.95,18.34c-.05-.04-.11-.08-.16-.12-.14.13-.27.25-.39.37.17-.07.35-.16.55-.24Z"/>
        <path class="cls-2" d="M185.39,16.73l.73.28c-.16-.09-.4-.19-.73-.28Z"/>
        <path class="cls-2" d="M226.02,17.13l.53-.32c-.72-.12-.44.13-.53.32Z"/>
        <path class="cls-2" d="M141.96,32.65c.08-.36.14-.64.14-.88-.21.42-.49.83-.14.88Z"/>
        <path class="cls-2" d="M209.37,20.46c.23-.07.33-.15.33-.24-.24.06-.38.14-.33.24Z"/>
        <path class="cls-2" d="M142.16,30.75c-.05.06-.08.12-.12.18.05.27.08.53.07.84.16-.32.27-.64.05-1.02Z"/>
        <path class="cls-2" d="M206.54,46.43s-.09-.02-.13-.04c0,.05.05.05.13.04Z"/>
        <path class="cls-2" d="M190.4,42.84c.16-.02.41-.02.65-.02-.12-.03-.31-.03-.65.02Z"/>
        <path class="cls-2" d="M148.12,37.55c.33.1.07-.02,0,0h0Z"/>
        <path class="cls-2" d="M149.16,39.63c-.09.02-.16.05-.2.13.06-.08.13-.12.2-.13Z"/>
        <path class="cls-2" d="M140.77,27.02v-.03c-.1.06-.08.05,0,.03Z"/>
        <path class="cls-2" d="M148.54,37.91c-.1-.09-.23-.19-.37-.27.06.05.17.14.37.27Z"/>
        <path class="cls-2" d="M148.54,37.71c.11.06.19.1.27.15.06-.05.04-.1-.27-.15Z"/>
        <path class="cls-2" d="M147.66,37.4c.19.07.35.15.51.24-.05-.05-.07-.08-.05-.09-.1-.03-.23-.08-.46-.16Z"/>
        <path class="cls-2" d="M235.31,37.94s-.05.03-.08.04c-.16.41-.05.26.08-.04Z"/>
        <path class="cls-2" d="M165.67,16.56s-.03.02-.04.02c.02,0,.04,0,.05.01v-.03Z"/>
        <path class="cls-2" d="M166.97,16.21c-.54.51-.85.47-1.28.38l.49,1.12.79-1.5Z"/>
        <path class="cls-2" d="M217.27,16.42l-.91-.41c1.16-.53,1.97-.25,1.12-.81-.21,1.21-3.64-.07-3.81,1.17l-.6-.28c.17.02.2-.06.38-.04-1.17-.62-.91.86-2.42.66-.53-.1-.89-.28-.53-.43l-1.18.29c-.34-.02-.26-.24.08-.21l-1.8.1v-.04c-.24.2-.82.5-1.1.63-.46-.17.23-.13.11-.29l-.99.31c-.41-.31.41-.64,1.1-.6-.94-1.22-.82.32-2.83-.37l.93-.17c-.62-.69-1.34-.42-2.41-.83.26.22,2.14,1.05,1.07,1.38-.3-.09-.7-.12-1.28.14-.02-.44-.58-.32-1.28-.27l.03-.58c-.76.19-.69.48-1.13.76-.84-.04-1.02-.49-1.22-.87-1.33-.07.94.71-.64.84-1.11-.2-1.89.03-3.23.38-.78-.2.14-.36-.14-.52l-.7.46c-.17-.01-.11-.15-.08-.23-.59.17-.05.58-.98.72-.26.63-1.88-.96-3.04-.26-.28-.17.14-.35.06-.58-1.58.44-1.35.32-2.66.92l-1.09-.41c.8.46-.25.95-1.17,1.34.28.22.52.41.68.5l-1.46.27c-.17-.1-.02-.3.22-.53-.1.04-.2.09-.27.13-.51-.23-.23-.56.15-.87l.51.37c.37-.34.71-.72.65-1.07-.1.06-.28.12-.48.14.1-.09.16-.18.12-.24-.05-.06-.2.06-.44.2l-.31-.66-.09.25-1.88-.46c-1.37.61-2.58,1.54-4.73,1.77.54-.47.13-.77.17-1.34.58.6,1.67-.22,2.79-.07-.58-.08-.45-.34-.3-.43l-2.01.49c.05-.46-.42-.35-.94-.55.38.92-1.5.58-2.31.85-.05-.31.15-.62,1.14-.53-1.09-.7-1.42,1.05-2.49.47.24,0,.37.04.47-.12-.57.27-1.95.05-1.62-.21h.24c-1.61-.12-4.92.07-5.12.87-.02-.1.18-.94.27-1.1-.93.91-1.85,1.79-2.73,2.73.21-.68-.86-2.19.46-2.66-.39-.07-.88-.14-1.68.15.27.08.72.91.37,1-1.03-.67-.71-.35-1.97-.88.41.1.06,1.18-.56,1.21.08-.16-.15-1.02.07-1.15l-1.44,1.18c.36-.22-.02-.87-.41-1.12.18.17-1.35.13-1.75.31l.69.14c-1.77.11-1.52,1.63-3.22,1.88.17-.25.29-1.38-.61-1.34-.32.61-1.31,2.76-2.64,3.52l-.35-.23-1.03.59c.48-.91,2.1-3.04,3.12-3.85-.7-.11-.25-.31-1.22-.1-.4-.2.45-.52.74-.59-.78.07-1.55.2-2.33.32.24.57-1.6,1-1.38,1.48l2.31-1.19c.22.58-1.03,2-2.61,2.3-.47-.12.01-1.13-.07-1.32-.15.25-1.42.81-1.61.73l.59-.52c-.99.06-1.21,1.22-2.49,1.11-.38.11-1.45-.2-1.36.16.94.31,1.89,2.26,1.79,2.88-.06,0-.54.06-1.06.11-.52.07-1.1.17-1.37.15-.4-.04-.42-.44-.39-.84.03-.4.1-.81-.27-.85.07.15-.12.53-.2.68-.43.15-.17-.54-.87.12.26.55-1.45,1.26,0,.69-.54.74-.79.55-1.47,1.42.26-.02.38.39.42.87.04.49.03,1.05-.08,1.44-.12-.12-.39-.05-.51-.01-.41.74-.7,1.34-.95,1.94-.25.6-.44,1.23-.5,2.05-.18.13-.35.96-.62.61.11.25.32.47.39.99-.42,1.1-.21-1.19-.76-.34.35.05.64,1.38,1.13,2.02.21-.2.13-.6-.04-1.06-.17-.46-.39-1-.51-1.38.76,0,1.56,1.2,2.42,2.29.65.89-.21.66-.03.78.52.99,1.16,1.07,1.62,1.14.5.06.85.08,1.45.79.38.79-.47.85-.51,1.24-1.01-.39-1.15-1.15-1.64-1.59.14.25.31.49.48.73-.36-.07-.98-.46-1.12-.85.05.4.79,1.18,1.81,1.83,1.01.66,2.25,1.21,3.06,1.75.38-.03.98.03.8-.26l-.58-.15c-.36-.56,1.25-.1.61-.54.85.03,1.81-.03,2.79.53v.59c.04-.16-.57-.56-.92-.5.52-.08,1.37,1.28,2.09.76l-.61-.63c.84.01,1.95-.26,2.83.2-.26-.66-.24,0-.7-.83.16.47-.43.28-.98.1-.54-.2-1.05-.37-.73.19-.42-.95-1.06-.7-1.71-1.63-.04.18.18.45-.55.07-.05.04-.16.07-.23.09-.02-.01-.03-.02-.05-.03l.03.04s-.05.02.01.01c.15.15.27.29.29.41-.53.24-1.76-.24-2.24-.21-.41-.26.27-.12.1-.4l-.72.05c.1-.4-.79-1.12.25-.89-.28-.14-.56-.28-.82-.42-.37-.45-.86-.87-1.27-.98-.23-.28-.98-.27-.54-.28-.35-.2-.66-.44-.95-.71l.08-.07c-.29-.47-.68-.91-.91-1.51-.23-.59-.27-1.34.16-2.01-.05-.42-.12-.9.21-1.58l.38-.03c.04-.59.95-1.33.75-1.69.57,0,.9-.43,1.31-.92.42-.51.92-1.07,1.38-1.26l-.22-.41c.59-.35,1.13-.78,1.93-1.31l-.21-.35c.65-.64,2.13-.47,3.46-.85-.06.17-.4.22-.67.2,1.83.49,3.28-1.51,4.94-1.1.35-.22.63-.22.91-.16-.03,0-.06.02-.09.04.04,0,.1-.01.15-.02.18.04.36.09.55.12-.17-.07-.34-.12-.47-.13.29-.07.72-.19,1.14-.34l.25.41s.06-.02.1-.03c.45.1.31-.25.04-.55.21-.1.4-.22.54-.34.44.66,1.11-.41,1.68.29.25-.39,2.17-.5,2.34-1.3.02.1.16.13-.08.16.5.03,1,.1,1.43-.16l.25.54,1.03-.82c.68.29.96.47.33.94,1.53-.75,1.26-.31,2.57-1.02l-.05.36c.48-.04,1.23-.55,1.53-.25,1.09.65,5.32.01,8.09.72-.52-1.07,1.28.5,1.4-.32.16.25.54.41.09.61,1.42-.21,2.11.45,3.11-.22.16.26-.31.36-.17.51.12-.05.46-.2.6-.05.14.15-.21.2-.44.31,1.45,0,1.62-.77,1.74-1.49.72.36,1.09.33,1.64-.13.25.24.67.5-.24.56.51.05,3.09.44,3.16-.15.16.15.71.06.84,0,1.14.06,1.24.12,2.36.08l-.31-.1c.46-.69.93-.14,1.84-.21l-.03.07c2.07.53.9-.24,2.94.35l-.11-.44c.18-.93,1.82.54,3.01.16l-.43-.24c.64-.33,1.85,1.24,2.5,1.34.14.08-.22.14-.41.2,1.71.51.2-.58,1.46-.74.24.3-.28.79.57.83.43.24,2.44-1.06,3.6-.48-.26-.23-.51-.47.07-.65.9-.1,2.42.88,3.22.14.11.07.16.13.16.19.68-.19,2.22-.29,2.64-.68.58,1.49,4.27-.56,4.18.83l2.08.07-.07.14c1.31.21,1.81-.07,2.31-.36.3.13.06.23.02.3,1.9.5,2.08.48,3.8.04l.1.47c.49-.18,2.63,1.15,4.56,1.09-.03.05-.09.12-.25.15.27,0,.56.03.82.09.23.06.46.14.68.26.44.22.84.55,1.18.85.7.6,1.17,1.09,1.99.74.38.19.76.41,1.12.67-.46-.68-.31-.75-.03-.74.27.02.66.14.52-.23.57.52.62,1.79.11,1.11v-.16c-.44.12-.2.59,0,1.08.22.49.4,1.02.11,1.1.54,1.43.46,3.03-.01,4.46-.46,1.44-1.27,2.74-2.19,3.84.24.05.49.1.74.14-.23.27-.46.54-.71.79-.3.1-.62-.09-.12-.61-.52.03-.6,1.09-.55,1.21-.64.37-.65.12-.55-.17.09-.29.27-.62.11-.49l-.39.4.15-.02c-.2.51-.07.79-.86,1.28-.57.2-.47-.18-.68-.09-.02-.04-.1-.02-.31.16-.39.21-.8.39-1.21.56l.72.24c-.43.51-1.21.52-.37.8-.63-.21-1.85.2-3.1.52-1.23.34-2.47.63-2.79.54-.85.53-1.76.69-2.89.81.3.07.56.62-.43.7.17-1.26-1.86-.25-2.76-1.02.78.49-2.74.5-1.54,1.18-.83,0-.11-.45-.76-.66-1.88.71-4.29.17-6.66.52-.02.16.4.37-.1.65l-1.33-.7c-.47.11-.37.95-1.28.45.13.13.33.32.01.39-4.73-.47-9.64,1.05-14.43-.47.64.32.21.34-.28.35.32.08-.01.39.05.61l-2-.64c-.38.6-2.15-.02-2.38.55l.64-.08c-.87.65,1.14,1.55,1,2.41.97-.75,2.51,1.2,4.1.1.35.18-.3.28-.11.48.4-.37.88-.45,1.78-.28l-.1.09c2.51-.1,3.59.25,6.43.41l-.22-.42c.61.03.74.16,1.03.26.67-.68-1.71.03-1.1-.72.84.86,4.27-.16,4.87.79.93-.06-.3-.48.63-.53l.26.25.21-.36c.61.02.95.33.99.56-.15-.02-.42.09-.58.12.82.27,2.23-.28,2.51-.19l-.91-.09c2.52-.44,5.67-.4,8.05-1.26l-.21-.18c1.82-.6,1.52.03,3.55-.43l-.07.06c.38-.26.91-.45,1.47-.51-.48.31,1.04.31.41.67,1.95-.73.95-.48,2.15-1.44l.36.28c.4-.38.42-.54,1.42-.84-.79.46.77.36-.11.94,1.18.13,1.97-.27,2.59-.61.63-.34,1.09-.61,1.78-.3.33-.64-.19-.55-.72-.41-.53.15-1.09.38-.84.2-.54-.14.59-.91,1.25-1.09.64-.25,1.62.67,3.28-.32-.17.09-.14.16-.31.25.75-.16,1.02-1,1.94-1.22.03-.73.95-.74.55-1.37-.39.45-.82.86-1.24,1.24.34-.36.55-.86.84-1.36.28-.51.62-1,1.26-1.49.04.19-.11.68-.27.99.49-.21.49-.78.96-1.04.25.27-.04.74-.48,1.25-.42.52-1.02,1.05-1.28,1.63.66-.12,1.2-1.84,1.35-.89-.08-.65.27-.97.66-1.38.39-.4.83-.89.84-1.65l.33.29c.06-.22.08-.71.27-1.05.06.29.11.59.16.9.11-1.18,1.34-1.79,1.4-2.97-.71,2.19-.65.33-1.26,1.1.21-1.34.52-1.63.95-1.99.4-.35.93-.79.88-2.47.09.47-.38,1.64-.51.94.15-.59.32-1.41.5-1.82-.32-2.19-.39.37-.75-.52.41-.79-.36-1.01-.77-1.8l.42-.14c-.24-1.2-.59-1.24-.82-1.27-.27-.02-.46-.02-.84-.98.33.13.65.29.97.47-.21-.32-.46-.61-.7-.89l.55-.07c-1.01-.85-1.15-1.17-1.92-2.14-.02.42-.65.44-1.43-.15-.4-.62.58-.13-.66-.89.41-.05.95-.12,1.21.6.14-.07.43,0,.58-.06-.41-.77-1.58-1.27-2.06-1.52.18.12.39.27.47.39-.74-.22-1.48-.35-2.2-.42-.26-.26.04-.31.34-.32-.43-.12-.78-.05-1.41-.18.25-.29.32-.69,1.29-.52-.72-.14-1.52-.2-2.07-.18-.08-.18-.8-.62-.54-.7-.93-.43-2.51.17-3.75-.32-.08.06-.22.1-.5.1-1.19-.27-2.21-.86-3.71-.54l-.75-.73c-1.14.04,1.02.91-.88.97-1.34.08-.44-.59-.89-.81-.69.27-1.87.82-3.05.25.41-.1.72.01,1.1-.01ZM203.52,16.51c.26-.1.79-.39.98-.14-.29.51-.53.27-.98.14ZM182.97,17.44c.2-.14.5-.06.84.12-.25.03-.53,0-.84-.12ZM144.74,36.38s-.02,0-.03,0c-.32-.4-.21-.25.03,0ZM145.56,37.05c.12,0,.14-.06.13-.14-.12.07-.34-.04-.56-.19.01.13.09.27.43.33ZM230.52,37.99h.24c-.35.34-.29.18-.24,0Z"/>
        <path class="cls-2" d="M185.33,16.91c.07.08.09.16.11.24.11-.07.11-.16-.11-.24Z"/>
        <path class="cls-2" d="M225.92,17.19h.04s.04-.03.06-.06l-.1.06Z"/>
        <path class="cls-2" d="M142.89,21.95c.27-.12.45-.14.58-.13-.04-.09-.21-.11-.58.13Z"/>
        <path class="cls-2" d="M151.56,38.61l-.75-.14c.35.1.44.23.59.36.02-.1-.07-.29.15-.22Z"/>
        <path class="cls-2" d="M157.19,43.08c.12-.03.24.05.36.03l.02-.21c-.47-.1-.84-.02-.38.18Z"/>
        <path class="cls-2" d="M151.77,40.22c-.06.37.44.4.98.49-.03,0-.06-.01-.09-.03.31-.44-.29-.45-.89-.46Z"/>
        <path class="cls-2" d="M152.87,40.74c.16.03.33.08.48.14.12-.18-.18-.1-.48-.14Z"/>
        <path class="cls-2" d="M146.95,37.41c.19.18.32-.38.39-.19.42-.33-1.69-.1-.39.19Z"/>
        <polygon class="cls-2" points="151.81 41.51 151.76 41.02 151.36 41.27 151.81 41.51"/>
        <path class="cls-2" d="M147.86,39.75l.77.43c.01-.08.13-.08.27-.06-.49-.21-1.01-.51-1.04-.37Z"/>
        <path class="cls-2" d="M148.9,40.12c.26.1.51.18.69.16-.14-.05-.46-.14-.69-.16Z"/>
        <polygon class="cls-2" points="150.63 41.26 150.42 41.09 149.85 40.85 150.63 41.26"/>
        <path class="cls-2" d="M140.74,34.53c-.16-.25-.31-.52-.44-.8-.18-.05-.21.23-.02.54.17.18.38.45.45.26Z"/>
        <path class="cls-2" d="M141.49,37.62c-.14-.27-.08-.35-.08-.56l-.43.37.51.19Z"/>
        <path class="cls-2" d="M139.54,35.21c-.21,0-1.02-1.35-.46-.01.19.06.8.97.46.01Z"/>
        <polygon class="cls-2" points="145.06 22.39 144.85 22.52 145.35 23.3 145.06 22.39"/>
        <path class="cls-2" d="M156.95,16.82c-1.19-.05-.19.58-1.27.5-.23.26.88.07.64.31.65-.33,1.04-.25.63-.81Z"/>
        <path class="cls-2" d="M156.32,17.62c-.1.05-.21.12-.33.2.19-.09.28-.16.33-.2Z"/>
        <polygon class="cls-2" points="187.78 42.29 187.06 42.07 187.52 42.4 187.78 42.29"/>
        <path class="cls-2" d="M186.37,42.93l-.15-.59-.45.52c.16-.02.48-.06.6.08Z"/>
        <path class="cls-2" d="M201.46,15.37l-.05.14c.12.15.29.16.63.17l-.58-.32Z"/>
        <polygon class="cls-2" points="211.44 15.72 211.27 15.71 211.58 16.25 211.44 15.72"/>
        <path class="cls-2" d="M219.96,15.49c-.35-.06-.77.02-1.11-.02.77-.04,1.15.7,1.11.02Z"/>
      </g>
    </g>
    <g>
      <path class="cls-3" d="M167.45,26.36c-.2.27-.66,1.11-1.37,2.54-.71,1.43-1.1,2.28-1.17,2.56.56-.15,1.13-.22,1.71-.22s1.12.16,1.63.48c.83.55,1.24,1.43,1.24,2.64,0,2.65-1.29,3.99-3.88,4h-.06c-.95,0-1.63-.33-2.04-.99-.41-.66-.64-1.54-.68-2.63,0-2.53.95-5.33,2.86-8.38.32-.53.6-.88.84-1.04s.43-.24.57-.24.28.05.43.16c.15.11.22.25.22.44,0,.19-.1.41-.3.68ZM167.99,34.49c0-.54-.15-.96-.45-1.25-.3-.29-.7-.44-1.21-.44s-.88.04-1.12.12c-.19.08-.33.18-.44.31-.11.13-.2.32-.29.59-.09.27-.13.63-.13,1.09s.13.86.39,1.2.58.51.95.51c.75,0,1.32-.22,1.71-.66.39-.44.59-.93.59-1.47Z"/>
      <path class="cls-3" d="M172.59,24.02c.68,0,1.12.33,1.32,1,.08.23.12.48.12.76-.07.55-.34.96-.82,1.24-.25.16-.55.24-.9.24s-.7-.14-1.05-.43c-.35-.29-.53-.68-.53-1.17,0-.49.18-.89.53-1.19.35-.3.8-.45,1.33-.45ZM173.07,25.54c0-.27-.07-.45-.2-.54-.13-.09-.28-.14-.45-.14s-.33.07-.48.21c-.15.14-.23.3-.23.49,0,.43.23.64.68.64s.68-.22.68-.66Z"/>
      <path class="cls-3" d="M180.15,24.76c0-.53.33-.8,1-.8.31,0,.49.19.54.56v3c0,.56,0,1.12.02,1.68.27-.08.61-.12,1.02-.12,1.29,0,2.29.43,3,1.3.71.87,1.06,1.95,1.06,3.26,0,1.31-.42,2.41-1.25,3.31-.83.9-1.9,1.35-3.21,1.35-1.31,0-1.96-.37-1.96-1.11,0-.74-.04-2.62-.11-5.64-.07-3.02-.11-5.28-.11-6.79ZM184.19,31.19c-.48-.37-.99-.56-1.52-.56-.29,0-.59.05-.9.16.08,1.09.12,3.03.12,5.82.23.08.46.12.7.12.52,0,1.04-.19,1.56-.58.77-.53,1.16-1.35,1.16-2.45,0-1.1-.37-1.94-1.12-2.51Z"/>
      <path class="cls-3" d="M193.93,28.93c.59,0,.88.5.88,1.5v.34l-.04,1.4c-.01.44-.02.87-.02,1.3l.3,4.52c0,.33-.34.5-1.02.5h-.29c-.15,0-.26-.06-.32-.18s-.07-.27-.02-.44c.05-.17.03-.37-.05-.58-.61.65-1.43.98-2.44.98-1.88,0-2.82-1.45-2.82-4.36,0-1.61.3-2.83.91-3.66.61-.83,1.48-1.24,2.61-1.24.53,0,1.07.09,1.6.28.17-.24.41-.36.72-.36ZM191.85,30.75c-.76,0-1.33.22-1.7.66-.37.44-.56,1.25-.56,2.42,0,1.97.53,2.96,1.6,2.96.28,0,.59-.13.93-.38.34-.25.58-.54.71-.86.25-.72.38-1.51.38-2.36,0-.85-.1-1.47-.31-1.86-.21-.39-.56-.58-1.05-.58ZM191.79,25.01c.08-.23.25-.34.51-.34s.47.08.62.24c.15.16.23.29.23.39s-.01.18-.04.25c-.21.6-.57,1.17-1.07,1.7-.5.53-.88.8-1.15.8s-.47-.07-.6-.2c-.13-.13-.2-.29-.2-.47s.1-.35.3-.51c.72-.59,1.19-1.21,1.4-1.86Z"/>
      <path class="cls-3" d="M197.37,29.59c.56-.47,1.21-.7,1.95-.7s1.45.13,2.13.4c.68.27,1.02.62,1.02,1.06,0,.23-.09.41-.26.54-.17.13-.32.2-.45.2-.13,0-.23,0-.3,0-.07,0-.34-.13-.8-.37-.46-.24-.88-.36-1.27-.36s-.72.1-.99.29c-.27.19-.41.48-.41.85,0,.37.16.67.47.88.31.21.86.4,1.65.55.79.15,1.39.37,1.81.65.42.28.63.8.63,1.56,0,1.11-.29,1.89-.87,2.35-.58.46-1.28.69-2.11.69s-1.53-.11-2.11-.34c-.58-.23-.87-.57-.87-1.02,0-.52.26-.78.78-.78.13,0,.43.09.88.28.45.19.9.28,1.35.28s.79-.14,1.02-.43c.23-.29.35-.62.35-.99s-.15-.64-.46-.81c-.31-.17-.77-.3-1.4-.41-.63-.11-1.09-.22-1.38-.34-.8-.32-1.2-1.03-1.2-2.14,0-.79.28-1.41.84-1.88Z"/>
      <path class="cls-3" d="M205.21,25.63c.24,0,.47.11.68.34.21.23.32.46.32.71s-.12.5-.35.75c-.23.25-.48.38-.73.38s-.48-.11-.69-.32c-.21-.21-.31-.49-.31-.82,0-.64.35-.99,1.04-1.04h.04ZM206.05,36.11l.02,1.4c0,.25-.1.46-.3.63-.2.17-.41.25-.64.25-.33,0-.51-.17-.52-.5-.17-4.25-.26-6.61-.26-7.06s.02-1.01.06-1.66c.03-.24.18-.36.46-.36.71,0,1.11.29,1.2.86.04.29.06.53.06.7l-.08,1.26v4.48Z"/>
      <path class="cls-3" d="M208.8,31.15c.47-.73,1.08-1.28,1.81-1.65.73-.37,1.45-.55,2.14-.55s1.25.08,1.67.25c.42.17.63.39.63.66,0,.27-.08.55-.23.82s-.36.41-.61.41c-.09,0-.35-.08-.77-.23s-.69-.23-.81-.23c-.77,0-1.43.28-1.98.85-.55.57-.82,1.32-.82,2.25,0,.93.15,1.63.45,2.09s.82.69,1.55.69c.29,0,.8-.17,1.51-.51.71-.34,1.16-.51,1.33-.51s.31.05.42.16c.11.11.16.24.16.4,0,.32-.2.66-.61,1.01s-.91.65-1.51.88c-.6.23-1.14.35-1.62.35-1.07,0-1.9-.42-2.51-1.26-.61-.84-.91-1.99-.91-3.44,0-.89.24-1.71.71-2.44Z"/>
      <path class="cls-3" d="M219.67,28.95c.96,0,1.75.46,2.37,1.38.62.92.93,2.02.93,3.31,0,1.29-.32,2.38-.95,3.29-.63.91-1.47,1.36-2.52,1.36s-1.89-.46-2.53-1.39c-.64-.93-.96-1.96-.96-3.09,0-1.45.29-2.61.88-3.48.63-.92,1.55-1.38,2.78-1.38ZM219.43,30.59c-.56,0-1.02.29-1.38.88s-.54,1.21-.54,1.86c0,1.01.2,1.79.6,2.32.4.53.85.8,1.36.8.91,0,1.49-.39,1.74-1.18.11-.37.16-.84.16-1.4,0-2.19-.65-3.28-1.94-3.28Z"/>
    </g>
  </g>
  <g>
    <path class="cls-3" d="M91.26,75.6c1.47.2,1.19,1.81,2.78,2.01,2.57.36,3.16-1.16,3.51-2.94.7-3.73-1.48-6.53-3.87-9.63-1.11-1.45-1.71-2.7-1.36-4.55.55-2.61,2.05-4.39,5.33-4.4.28,0,.55,0,.87.03,1.07.1,1.82.29,1.63,1.22-.35,1.62-4.55-1.11-5.45,3.51-.43,2.11.6,2.97,1.95,4.88,2.11,3.03,3.94,5.73,3.23,9.3-.55,2.71-1.89,4.29-5.09,4.3-.32,0-.63,0-.95-.03-1.39-.2-3.8-1.31-3.81-2.66,0-.07.04-.17.04-.23.04-.4.63-.79,1.19-.79Z"/>
    <path class="cls-3" d="M109.01,54.55c8.79-.02,10.04,23.44,1.33,24.08-.16,0-.32.03-.47.03-3.33,0-5.15-1.64-6.11-4.67-.52-1.98-4.68-19.42,5.25-19.44ZM105.65,72.47c.32,1.09,1.63,4.22,3.61,4.38.2.03.36,0,.48,0,2.65-.2,3.51-4.06,3.86-5.62.63-2.64,1.11-14.88-4.51-14.87h-.32c-5.98.47-3.88,13.7-3.12,16.11Z"/>
    <path class="cls-3" d="M119.88,63.41c.14-5.31.65-9.14,1.68-9.14.04,0,.12,0,.16.03.2.16,1.11.26,1.35,1.09.72,2.41,1.8,6.79,4.14,9.56.28-.2,1.77-2.38,2.56-3.57l.2-.26c1.46-2.21,2.44-3.8,3.39-5.95.24-.4.55-.59,1.15-.6.55.03.83.16,1.35.49-.26,7.32-.08,14.68-.26,22l-.04,1.58c-.2.4-.63.79-1.26.79-.32,0-.71-.26-.91-.46l.03-1.95c.14-5.97-.19-11.94.07-17.91-.95,1.42-1.89,2.84-2.72,4.33-.35.5-1.97,3.2-2.32,3.86-.24.43-1.3,1.45-1.9.33-3.98-7.48-4.1-7.48-4.14-7.48-.85,5.97-.92,12.08-.98,18.11-.08.36-.47.63-.83.63-.24,0-.95-.23-1.11-.46l.39-15.04Z"/>
    <path class="cls-3" d="M145.62,54.48c8.79-.02,10.04,23.44,1.33,24.08-.16,0-.32.03-.47.03-3.32,0-5.15-1.64-6.11-4.67-.52-1.98-4.68-19.42,5.25-19.44ZM142.27,72.4c.32,1.09,1.63,4.22,3.61,4.38.2.03.36,0,.47,0,2.65-.2,3.51-4.06,3.86-5.62.63-2.64,1.11-14.88-4.51-14.87h-.32c-5.98.47-3.88,13.7-3.12,16.11Z"/>
    <path class="cls-3" d="M154.51,75.48c1.47.2,1.19,1.81,2.78,2.01,2.57.36,3.16-1.16,3.51-2.94.7-3.73-1.48-6.53-3.87-9.63-1.11-1.45-1.71-2.7-1.36-4.55.55-2.61,2.05-4.39,5.33-4.4.28,0,.55,0,.87.03,1.07.1,1.82.29,1.63,1.22-.35,1.62-4.55-1.11-5.45,3.51-.43,2.11.6,2.97,1.95,4.88,2.11,3.03,3.93,5.73,3.23,9.3-.55,2.71-1.89,4.29-5.09,4.3-.32,0-.63,0-.95-.03-1.39-.2-3.8-1.31-3.81-2.66,0-.07.04-.17.04-.23.04-.4.63-.79,1.19-.79Z"/>
    <path class="cls-3" d="M167.96,60.54c1.07,0,1.78.69,1.79,1.61,0,.73-.83.83-1.58.83-.99,0-1.55-.52-1.55-1.45,0-.43.87-.99,1.34-.99ZM168.01,77.37c1.07,0,1.78.69,1.79,1.61,0,.73-.83.83-1.58.83-.99,0-1.54-.53-1.55-1.45,0-.43.87-.99,1.34-.99Z"/>
    <path class="cls-3" d="M182.23,69.73c0,.38-.23.55-.69.55-.26,0-1.07-.12-1.07-.45l-.02-8.11c0-.29.29-.75.69-.75.32,0,.46.07.72.31.21,2.76.36,5.66.37,8.45ZM185.54,69.55c0,.34-.2.48-.63.48-.26,0-1.01-.09-1.01-.41l-.02-7.1c0-.24.29-.65.66-.65.29,0,.43.07.66.26.21,2.42.33,4.97.34,7.42Z"/>
    <path class="cls-3" d="M188.27,76.75v-4.75c-.02-3.43-.43-5.64-.44-9.07v-1.22c4.6-.32,5.12-.06,5.12.47,0,.17-.14.53-.34.6h-3.14c-.2,0-.2.13-.2.2,0,2.54.3,4.42.48,7.03.43.1,2.85.02,3.34.02.98.02,1.65,1.41.32,1.42h-3.66s.07,5.62.07,5.62c.69.14,4.35-.46,4.35.59,0,.29-.17.58-.55.62h-.14c-1.07.07-5.15.35-5.18-.35l-.03-1.18Z"/>
    <path class="cls-3" d="M197.01,60.7c.46,0,.84.48.95.84.25,5.42.23,10.92.82,16.37.86-.19,2.33-.51,3.45-.51.52,0,.98.12.98.6,0,.31-.08.55-.57.7-.98.29-2.27.25-3.28.49-.37.07-.78.31-1.24.31-.35,0-.84-.33-.89-.65-.35-2.88-.22-5.98-.4-8.81l-.39-5.93v-3.05c.13-.26.31-.36.57-.36Z"/>
    <path class="cls-3" d="M213.59,79.61c.02-2.78.1-15.75.15-18.55.26-.29.95-.48,1.35-.48,3.71,0,5.54,2.58,5.54,5.46,0,3.43-1.71,5.36-5.11,7.02l-.2,1.46c-.06.79-.16,4.46-.19,5.23-.14.41-.29.53-.78.53-.4,0-.78-.14-.78-.58v-.1ZM215.33,70.41v1.03c.32,0,.92-.34.98-.39,1.93-1.28,2.38-2.79,2.38-4.73,0-1.49-.24-4.29-2.78-4.29-.17,0-.32,0-.4.19l-.18,8.18Z"/>
    <path class="cls-3" d="M223.36,69.58c0-.74-.16-5.11-.22-6.24,0-.24-.18-2.35-.21-2.62v-.1c0-.55.75-.7,1.32-.7,3.97,0,5.39,2.37,5.4,5.13,0,2.21-1,3.55-2.84,4.66,3.31,1.22,4.13,5.13,4.14,7.82,0,.43-.32.6-.83.6-.35,0-.49,0-.63-.38-.15-1.8-.71-6.89-4.05-6.88-.03,0-.23.02-.29.03-.31,2.71-.04,5.45-.24,8.18-.37.43-1.18.46-1.53,0,.02-1.44,0-8.07-.03-9.5ZM224.94,69c2.04-.34,3.16-2.21,3.16-3.73,0-1.27-.64-3.91-2.72-3.91-.12,0-1.01,0-1.01.19l.57,7.44Z"/>
    <path class="cls-3" d="M236.55,61.32c6.39-.01,7.3,17.05.97,17.52-.12,0-.23.02-.35.02-2.42,0-3.75-1.19-4.44-3.4-.38-1.44-3.41-14.13,3.82-14.15ZM234.11,74.36c.23.79,1.19,3.07,2.63,3.19.14.02.26,0,.35,0,1.93-.15,2.55-2.96,2.81-4.09.46-1.92.81-10.83-3.28-10.82h-.23c-4.35.34-2.82,9.97-2.27,11.72Z"/>
    <path class="cls-3" d="M245.07,69.39c-.52-.86-2.98-4.96-3.44-5.83-.75-1.37.86-1.56,1.15-.89l3.3,5.75,1.91-6.36c.11-.67,1.84-.63,1.84.17v.1s-2.83,7.3-2.83,7.3l1.04,9.74c0,.38-.37.53-.78.53-.4,0-.78-.12-.87-.45-.41-3.02-.48-7.39-1.32-10.06Z"/>
    <path class="cls-3" d="M252.58,76.63v-4.75c-.02-3.43-.43-5.64-.44-9.07v-1.22c4.6-.32,5.12-.06,5.12.47,0,.17-.14.53-.34.6h-3.14c-.2,0-.2.13-.2.2,0,2.54.3,4.42.48,7.03.43.1,2.85.02,3.34.02.98.02,1.65,1.41.32,1.42h-3.66s.07,5.62.07,5.62c.69.14,4.35-.46,4.35.59,0,.29-.17.58-.55.62h-.14c-1.06.07-5.15.35-5.18-.35l-.03-1.18Z"/>
    <path class="cls-3" d="M265.58,61.53h.2c1.15.04,2.54.55,2.54,1.72,0,.24-.08.53-.49.53-.95-.02-1.1-.98-2.16-1.1-.03,0-.09-.02-.17-.02-3.94,0-6.61,15.09.01,15.31h.14c2.07,0,1.26-2.24,2.9-2.24h.09c.4,0,.69.19.69.53-.03.43-.17.43-.43.94-.66,1.18-1.67,1.78-3.22,1.78h-.26c-5.56-.2-5.78-6.61-5.41-9.73.11-2.33,1.33-7.71,5.56-7.71Z"/>
    <path class="cls-3" d="M272.98,68.83c0-1.85-.05-6.5-.08-6.53l-2.3-.07c-.92-.21-1.27-.96.14-1.25,2.25.04,4.43,0,6.77.13,1.3.09,1.21,1.29.38,1.29l-3.14-.04s-.12,7.63-.17,10.73c0,.98-.11,2.83-.1,3.98v.31c-.23.72-1.41.51-1.61-.17.02-1.71.13-6.67.12-8.4Z"/>
    <path class="cls-3" d="M282.92,61.23c6.39-.01,7.3,17.05.97,17.52-.11,0-.23.02-.35.02-2.42,0-3.75-1.19-4.44-3.4-.38-1.44-3.41-14.13,3.82-14.15ZM280.48,74.27c.23.79,1.19,3.07,2.63,3.19.14.02.26,0,.35,0,1.93-.15,2.55-2.96,2.81-4.08.46-1.92.81-10.83-3.28-10.82h-.23c-4.35.34-2.82,9.97-2.27,11.72Z"/>
    <path class="cls-3" d="M290.92,69.52c0,.38-.23.55-.69.55-.26,0-1.07-.12-1.07-.45l-.02-8.11c0-.29.29-.75.69-.75.32,0,.46.07.72.31.21,2.76.36,5.66.37,8.45ZM294.23,69.34c0,.34-.2.48-.63.48-.26,0-1.01-.09-1.01-.41l-.02-7.1c0-.24.29-.65.66-.65.29,0,.43.07.66.26.21,2.42.33,4.97.34,7.42Z"/>
  </g>
  <g>
    <path class="cls-3" d="M71.21,98.48c-.1-1.44-.15-3.39-.15-5.85,0-2.46.03-4.05.1-4.78.07-.45.38-.75.92-.89.55-.15,1.27-.22,2.16-.22,1.32,0,2.43.28,3.33.85.9.57,1.35,1.4,1.35,2.51,0,.91-.13,1.67-.38,2.28-.25.61-.57,1.06-.95,1.36-.62.48-1.53.71-2.73.71-.52,0-1.2-.07-2.04-.21.07,2.8.1,4.56.08,5.29-.01.73-.26,1.09-.73,1.09-.31,0-.5-.06-.59-.17s-.14-.19-.17-.24-.06-.12-.08-.22c-.03-.1-.05-.18-.06-.24-.01-.06-.02-.16-.03-.28s-.02-.22-.03-.29c-.01-.21-.02-.44-.02-.69ZM77.19,90.15c0-.57-.31-1.01-.92-1.34s-1.27-.49-1.97-.49-1.19.06-1.47.19c-.06.83-.08,1.59-.08,2.28,0,.69.03,1.32.08,1.88.38.04.64.08.78.1.36.04.68.06.93.06s.43,0,.52-.01c.09,0,.27-.03.52-.06.26-.04.44-.09.56-.18.11-.08.25-.2.42-.34.17-.14.29-.3.36-.48.18-.5.27-1.04.27-1.61Z"/>
    <path class="cls-3" d="M83.62,97.55l.02,2.16c0,.25-.12.48-.35.69s-.46.32-.68.32c-.32,0-.52-.25-.61-.76-.01-.11-.07-1.14-.17-3.08-.1-1.94-.29-3.46-.57-4.57-.13-.53-.19-.85-.19-.95,0-.46.28-.69.84-.69.24,0,.43.09.57.27.14.18.23.37.26.56.03.19.07.44.09.77.03.32.05.53.06.61.29-.7.73-1.23,1.32-1.58s1.23-.53,1.93-.53c1.15,0,1.72.29,1.72.88,0,.29-.1.53-.3.7-.2.17-.44.26-.7.26-1.19,0-2.03.38-2.52,1.13-.49.76-.73,2.02-.73,3.78Z"/>
    <path class="cls-3" d="M92.71,90.83c1.01,0,1.84.48,2.49,1.45.65.97.98,2.12.98,3.48,0,1.35-.33,2.5-1,3.45s-1.55,1.43-2.65,1.43-1.98-.49-2.66-1.46c-.67-.97-1.01-2.05-1.01-3.24,0-1.53.31-2.74.92-3.65.66-.97,1.63-1.45,2.92-1.45ZM92.46,92.55c-.59,0-1.07.31-1.45.92s-.57,1.27-.57,1.95c0,1.06.21,1.88.63,2.44.42.56.9.84,1.43.84.95,0,1.56-.41,1.83-1.24.11-.39.17-.88.17-1.47,0-2.3-.68-3.44-2.04-3.44Z"/>
    <path class="cls-3" d="M103.49,99.75c-.5.59-1.14.88-1.91.88s-1.44-.24-2-.71c-1.18-.91-1.76-2.3-1.76-4.18,0-1.47.41-2.65,1.22-3.54.81-.89,1.81-1.33,3-1.33s2,.41,2.44,1.22c.38.71.57,1.79.57,3.23l-.04,1.72c0,.81.04,1.94.12,3.37.08,1.43.12,2.52.12,3.24,0,1.2-.3,2.09-.89,2.66-.59.57-1.5.85-2.72.85-.73,0-1.47-.15-2.23-.46-.76-.31-1.13-.66-1.13-1.07,0-.29.08-.52.24-.67.16-.15.35-.23.56-.23.21,0,.68.15,1.42.46.74.31,1.26.46,1.59.46,1.01,0,1.51-.83,1.51-2.48,0-1.65-.03-2.79-.08-3.42ZM103.47,95.31c0-1.01-.15-1.73-.45-2.14s-.77-.62-1.42-.62-1.16.29-1.55.88c-.39.59-.59,1.33-.59,2.24s.19,1.62.56,2.15c.37.53.94.8,1.71.8s1.27-.33,1.49-.99c.17-.53.25-1.3.25-2.32Z"/>
    <path class="cls-3" d="M109.51,97.54l.02,2.16c0,.25-.12.48-.35.69-.23.21-.46.32-.68.32-.32,0-.52-.25-.61-.76-.01-.11-.07-1.14-.17-3.08-.1-1.94-.29-3.46-.57-4.57-.13-.53-.19-.85-.19-.95,0-.46.28-.69.84-.69.24,0,.43.09.57.27.14.18.23.37.26.56.03.19.07.44.09.77.03.32.05.53.06.61.29-.7.73-1.23,1.32-1.58s1.23-.53,1.93-.53c1.15,0,1.72.29,1.72.88,0,.29-.1.53-.3.7-.2.17-.44.26-.7.26-1.19,0-2.03.38-2.52,1.13-.49.76-.73,2.02-.73,3.78Z"/>
    <path class="cls-3" d="M120.75,90.8c.62,0,.92.52.92,1.57v.36l-.04,1.47c-.01.46-.02.92-.02,1.37l.32,4.75c0,.35-.36.53-1.07.53h-.3c-.16,0-.27-.06-.34-.19s-.07-.28-.02-.46c.05-.18.03-.38-.05-.61-.64.69-1.5,1.03-2.56,1.03-1.97,0-2.96-1.53-2.96-4.58,0-1.69.32-2.97.95-3.84.64-.87,1.55-1.3,2.74-1.3.56,0,1.12.1,1.68.29.18-.25.43-.38.76-.38ZM118.56,92.71c-.8,0-1.39.23-1.79.69-.39.46-.59,1.31-.59,2.54,0,2.07.56,3.11,1.68,3.11.29,0,.62-.13.98-.4.36-.27.61-.57.75-.9.27-.76.4-1.58.4-2.48s-.11-1.55-.33-1.95c-.22-.41-.58-.61-1.1-.61Z"/>
    <path class="cls-3" d="M124.32,100.63c-.36,0-.58-.2-.65-.61,0-2.83-.17-5.35-.51-7.56,0-.28.1-.53.3-.76.2-.22.43-.34.69-.34s.45.15.58.44c.52-.69,1.21-1.03,2.08-1.03,1.11,0,1.96.53,2.56,1.6.7-1.01,1.63-1.51,2.78-1.51s2.02.46,2.59,1.39c.38.57.64,1.33.8,2.27.15.94.23,2.27.23,3.99,0,.67-.07,1.19-.21,1.56-.14.37-.43.56-.88.56-.36,0-.55-.23-.55-.69l.06-2.62c0-3.15-.82-4.73-2.46-4.73-.52,0-.88.18-1.09.55-.24.43-.38.89-.42,1.36-.06.84-.08,1.6-.08,2.29v3.04c0,.22-.11.41-.34.57-.22.16-.46.23-.69.23-.31,0-.5-.2-.59-.61l.06-4.35c0-1.54-.26-2.5-.78-2.88-.25-.18-.63-.27-1.14-.27s-.89.19-1.13.57c-.25.38-.37.99-.37,1.83l.13,3.91c0,1.2-.33,1.81-.99,1.81Z"/>
    <path class="cls-3" d="M143.26,90.8c.62,0,.92.52.92,1.57v.36l-.04,1.47c-.01.46-.02.92-.02,1.37l.32,4.75c0,.35-.36.53-1.07.53h-.3c-.16,0-.27-.06-.34-.19s-.07-.28-.02-.46c.05-.18.03-.38-.05-.61-.64.69-1.5,1.03-2.56,1.03-1.97,0-2.96-1.53-2.96-4.58,0-1.69.32-2.97.96-3.84.64-.87,1.55-1.3,2.74-1.3.56,0,1.12.1,1.68.29.18-.25.43-.38.76-.38ZM141.08,92.71c-.8,0-1.39.23-1.79.69-.39.46-.59,1.31-.59,2.54,0,2.07.56,3.11,1.68,3.11.29,0,.62-.13.98-.4.36-.27.61-.57.75-.9.27-.76.4-1.58.4-2.48,0-.9-.11-1.55-.33-1.95-.22-.41-.58-.61-1.1-.61Z"/>
    <path class="cls-3" d="M157.25,90.69c.2,0,.34.07.44.2.1.13.15.28.15.43l-.02.21c-.59,1.5-1.02,2.72-1.3,3.65-.18.66-.32,1.15-.41,1.47-.09.32-.24.89-.45,1.7-.21.81-.35,1.34-.42,1.58-.2.48-.54.71-1.03.71-.24,0-.41-.15-.5-.46-.45-1.4-1.11-2.98-1.97-4.75-.87-1.76-1.36-2.77-1.48-3.03s-.18-.49-.18-.7.09-.41.28-.61c.19-.2.4-.29.64-.29s.44.13.61.38c.15.31.59,1.17,1.31,2.58.72,1.41,1.23,2.53,1.52,3.34.01-.08.06-.26.15-.53.71-2.48,1.29-4.25,1.74-5.31.24-.38.55-.57.92-.57Z"/>
    <path class="cls-3" d="M160.25,87.33c.25,0,.49.12.71.36.22.24.34.49.34.75s-.12.52-.37.79c-.25.27-.5.4-.77.4s-.51-.11-.73-.34c-.22-.22-.33-.51-.33-.86,0-.67.36-1.04,1.09-1.09h.04ZM161.13,98.33l.02,1.47c0,.27-.1.49-.31.66-.21.18-.43.26-.67.26-.35,0-.53-.17-.55-.53-.18-4.47-.27-6.94-.27-7.41s.02-1.06.06-1.74c.03-.25.19-.38.48-.38.74,0,1.16.3,1.26.9.04.31.06.55.06.74l-.08,1.32v4.7Z"/>
    <path class="cls-3" d="M166.28,97.53l.02,2.16c0,.25-.12.48-.35.69-.23.21-.46.32-.68.32-.32,0-.52-.25-.61-.76-.01-.11-.07-1.14-.17-3.08-.1-1.94-.29-3.46-.57-4.57-.13-.53-.19-.85-.19-.95,0-.46.28-.69.84-.69.24,0,.43.09.57.27.14.18.23.37.26.56.03.19.07.44.09.77.03.32.05.53.06.61.29-.7.73-1.23,1.32-1.58s1.23-.53,1.93-.53c1.15,0,1.72.29,1.72.88,0,.29-.1.53-.3.7-.2.17-.44.26-.7.26-1.19,0-2.03.38-2.52,1.13-.49.76-.73,2.02-.73,3.78Z"/>
    <path class="cls-3" d="M172.18,90.79l1.05.02c.24,0,.37,0,.4-.02v-4.31c.01-.24.13-.44.36-.61.22-.17.43-.25.63-.25s.35.06.47.19c.12.13.17.32.16.59-.01.27-.02,1.72-.02,4.37l2.46-.08c.42,0,.63.25.63.74,0,.36-.11.64-.33.82-.22.18-.45.28-.69.29-.25.01-.49.02-.72.02l-1.28-.02c0,.57.06,1.71.18,3.4.12,1.69.21,2.79.28,3.29.07.5.08.82.04.97-.04.15-.12.25-.23.3-.18.08-.43.13-.73.13s-.49-.17-.55-.5c-.28-1.83-.47-4.35-.57-7.56-.13.01-.61.02-1.45.02s-1.26-.24-1.26-.73c0-.7.39-1.05,1.18-1.05Z"/>
    <path class="cls-3" d="M179.19,91.01c.18-.16.37-.24.56-.24s.34.04.44.11.17.13.19.19c.02.06.05.15.07.29-.08,1.09-.13,2.08-.13,2.95,0,.88.1,1.88.32,3,.21,1.13.44,1.69.69,1.69.38,0,.86-.21,1.44-.63.58-.42,1-.86,1.25-1.32-.17-2.02-.25-3.75-.25-5.19,0-.29.09-.55.28-.76s.42-.31.68-.31c.43,0,.65.29.65.88,0,.99.07,2.47.22,4.43s.3,3.21.45,3.74c.03.11.04.24.04.39s-.09.29-.28.42-.43.2-.73.2-.5-.17-.6-.5c-.03-.28-.1-.7-.21-1.26-.98,1.02-1.97,1.53-2.96,1.53-.46,0-.88-.17-1.24-.52-.36-.35-.65-.83-.86-1.43-.36-1.16-.55-2.25-.55-3.28s.06-2.28.17-3.78c.06-.24.17-.44.36-.6Z"/>
    <path class="cls-3" d="M193.13,90.79c.62,0,.92.52.92,1.57v.36l-.04,1.47c-.01.46-.02.92-.02,1.37l.32,4.75c0,.35-.36.53-1.07.53h-.3c-.16,0-.27-.06-.34-.19s-.07-.28-.02-.46c.05-.18.03-.38-.05-.61-.64.69-1.5,1.03-2.56,1.03-1.97,0-2.96-1.53-2.96-4.58,0-1.69.32-2.97.96-3.84.64-.87,1.55-1.3,2.74-1.3.56,0,1.12.1,1.68.29.18-.25.43-.38.76-.38ZM190.95,92.7c-.8,0-1.39.23-1.79.69-.39.46-.59,1.31-.59,2.54,0,2.07.56,3.11,1.68,3.11.29,0,.62-.13.98-.4s.61-.57.75-.9c.27-.76.4-1.58.4-2.48,0-.9-.11-1.55-.33-1.95-.22-.41-.58-.61-1.1-.61Z"/>
    <path class="cls-3" d="M195.45,87c.03-.52.12-.87.25-1.03.13-.16.35-.24.64-.24.6,0,.9.24.9.73,0,.38-.03,1.37-.09,2.96-.06,1.6-.09,3.02-.09,4.28,0,1.26.05,2.28.15,3.04.17,1.34.41,2.02.71,2.02s.54-.22.69-.65c.07-.17.18-.32.34-.45.15-.13.35-.2.59-.2.49,0,.73.41.73,1.24,0,.45-.24.89-.72,1.33-.48.44-.96.66-1.44.66s-.86-.08-1.14-.24c-.29-.16-.52-.4-.69-.72-.18-.32-.32-.63-.42-.93-.1-.3-.18-.67-.22-1.1-.08-.7-.14-1.82-.18-3.37-.04-1.55-.05-3.02-.05-4.43,0-1.41.02-2.37.05-2.9Z"/>
    <path class="cls-3" d="M209.64,90.81c1.01,0,1.84.48,2.49,1.45.65.97.98,2.12.98,3.48,0,1.35-.33,2.5-1,3.45-.67.95-1.55,1.43-2.65,1.43s-1.98-.49-2.66-1.46c-.67-.97-1.01-2.05-1.01-3.24,0-1.53.31-2.74.92-3.65.66-.97,1.63-1.45,2.92-1.45ZM209.39,92.53c-.59,0-1.07.31-1.45.92s-.57,1.27-.57,1.95c0,1.06.21,1.88.63,2.44.42.56.9.84,1.43.84.95,0,1.56-.41,1.83-1.24.11-.39.17-.88.17-1.47,0-2.3-.68-3.44-2.04-3.44Z"/>
    <path class="cls-3" d="M222.54,100.57c-.48,0-.92-.16-1.32-.48l-.27-.23v6.3c-.08.28-.23.51-.44.7-.21.19-.43.28-.67.28-.36,0-.55-.25-.55-.73v-14.64c.08-.36.18-.62.3-.78.12-.15.31-.23.57-.23s.43.06.5.18c.08.12.17.44.28.98.06-.28.28-.54.67-.78.39-.24.92-.36,1.57-.36,1.43,0,2.44.52,3.05,1.55.6,1.04.9,2.26.9,3.66,0,1.41-.41,2.52-1.23,3.34-.82.82-1.94,1.23-3.37,1.23ZM220.94,94.27v3.91c.08.04.18.11.29.21.41.36.85.55,1.32.54,1.93,0,2.9-.99,2.9-2.98,0-1.69-.43-2.77-1.3-3.21-.36-.2-.81-.29-1.34-.29-.52.07-.96.3-1.32.68-.36.39-.55.77-.55,1.14Z"/>
    <path class="cls-3" d="M230.91,97.52l.02,2.16c0,.25-.12.48-.35.69-.23.21-.46.32-.68.32-.32,0-.52-.25-.61-.76-.01-.11-.07-1.14-.17-3.08-.1-1.94-.29-3.46-.57-4.57-.13-.53-.19-.85-.19-.95,0-.46.28-.69.84-.69.24,0,.43.09.57.27.14.18.23.37.26.56s.07.44.09.77c.03.32.05.53.06.61.29-.7.73-1.23,1.32-1.58.59-.35,1.23-.53,1.93-.53,1.15,0,1.72.29,1.72.88,0,.29-.1.53-.3.7-.2.17-.44.26-.7.26-1.19,0-2.03.38-2.52,1.14-.49.76-.73,2.02-.73,3.78Z"/>
    <path class="cls-3" d="M239.31,90.86c.74,0,1.45.22,2.12.65.67.43,1.01.97,1.01,1.61,0,.64-.27,1.25-.82,1.85s-1.27.96-2.18,1.08c-.39.06-.98.08-1.76.08.15,1.19.46,1.97.9,2.35.14.15.33.23.57.23.87,0,1.6-.28,2.18-.83s1.01-.83,1.26-.83c.11,0,.28.11.5.31.22.21.34.41.34.59,0,.36-.44.89-1.32,1.58-.39.32-.86.59-1.42.81s-1.07.33-1.54.33c-1.22,0-2.11-.78-2.69-2.35-.36-.97-.55-2.03-.55-3.19s.27-2.16.82-3c.55-.84,1.41-1.26,2.58-1.26ZM239.42,92.31c-.53,0-.99.3-1.37.9-.14.21-.27.69-.4,1.43,1.96,0,2.94-.48,2.94-1.45,0-.59-.39-.88-1.18-.88Z"/>
    <path class="cls-3" d="M245.89,91.47c.59-.49,1.27-.73,2.05-.73.78,0,1.52.14,2.24.42.71.28,1.07.65,1.07,1.11,0,.24-.09.43-.27.57-.18.14-.34.21-.47.21s-.24,0-.31-.01c-.08,0-.36-.14-.84-.39-.48-.25-.93-.38-1.33-.38-.41,0-.75.1-1.04.3-.29.2-.43.5-.43.89,0,.39.17.7.49.92.33.22.91.42,1.73.58.83.16,1.46.39,1.9.68.44.29.66.84.66,1.64,0,1.16-.3,1.98-.91,2.47-.61.48-1.35.72-2.22.72-.87,0-1.61-.12-2.22-.36s-.91-.59-.91-1.07c0-.55.27-.82.82-.82.14,0,.45.1.92.29s.95.29,1.42.29c.47,0,.83-.15,1.07-.45.24-.3.37-.65.37-1.04s-.16-.68-.48-.85-.81-.32-1.47-.43c-.66-.11-1.14-.23-1.45-.36-.84-.34-1.26-1.08-1.26-2.25,0-.83.29-1.48.88-1.97Z"/>
    <path class="cls-3" d="M255.76,90.86c.74,0,1.45.22,2.12.65s1.01.97,1.01,1.61c0,.64-.27,1.25-.82,1.85-.55.59-1.27.96-2.18,1.08-.39.06-.98.08-1.76.08.15,1.19.46,1.97.9,2.35.14.15.33.23.57.23.87,0,1.6-.28,2.18-.83.59-.55,1.01-.83,1.26-.83.11,0,.28.11.5.32.22.21.34.41.34.59,0,.36-.44.89-1.32,1.58-.39.32-.86.59-1.42.81s-1.07.33-1.54.33c-1.22,0-2.11-.78-2.69-2.35-.36-.97-.55-2.03-.55-3.19s.27-2.16.82-3c.55-.84,1.41-1.26,2.58-1.26ZM255.86,92.31c-.53,0-.99.3-1.37.9-.14.21-.27.69-.4,1.43,1.96,0,2.94-.48,2.94-1.45,0-.59-.39-.88-1.18-.88Z"/>
    <path class="cls-3" d="M261.89,99.93l-.23-8.53c0-.27.09-.48.27-.65.18-.17.36-.25.55-.25.45,0,.71.19.78.57.06.38.08.77.08,1.18.76-1,1.7-1.49,2.83-1.49,1.74,0,2.6,1.98,2.6,5.94,0,.36,0,.91,0,1.65,0,.73-.04,1.27-.13,1.61-.1.42-.4.63-.9.63-.34,0-.5-.22-.5-.67l.02-1.18c0-1.62-.05-2.73-.16-3.33-.1-.59-.21-1.07-.3-1.42-.24-.76-.62-1.13-1.16-1.13-.7,0-1.19.25-1.47.76-.31.55-.49,1.19-.55,1.93-.1,1.3-.15,2.68-.15,4.14,0,.28-.1.5-.31.67s-.46.25-.76.25c-.35,0-.53-.22-.53-.67Z"/>
    <path class="cls-3" d="M271.03,93.1c.5-.77,1.13-1.35,1.9-1.73.77-.38,1.52-.58,2.25-.58s1.31.09,1.75.26c.44.17.66.41.66.69s-.08.57-.24.86c-.16.29-.37.43-.64.43-.1,0-.37-.08-.81-.24s-.72-.24-.85-.24c-.81,0-1.51.3-2.08.89-.57.6-.86,1.38-.86,2.36,0,.98.16,1.71.47,2.19.32.48.86.72,1.63.72.31,0,.84-.18,1.59-.54.75-.36,1.21-.54,1.4-.54s.33.06.44.17c.11.11.17.25.17.42,0,.34-.21.69-.64,1.06s-.96.68-1.58.92c-.63.25-1.2.37-1.7.37-1.12,0-2-.44-2.64-1.32s-.96-2.09-.96-3.61c0-.94.25-1.79.75-2.56Z"/>
    <path class="cls-3" d="M280.12,87.31c.25,0,.49.12.71.36s.34.49.34.75-.12.52-.37.79c-.24.27-.5.4-.77.4s-.51-.11-.72-.34c-.22-.22-.33-.51-.33-.86,0-.67.36-1.04,1.09-1.09h.04ZM281,98.31l.02,1.47c0,.27-.1.49-.31.66s-.43.26-.67.26c-.35,0-.53-.17-.55-.53-.18-4.47-.27-6.94-.27-7.41,0-.48.02-1.06.06-1.74.03-.25.19-.38.48-.38.74,0,1.16.3,1.26.9.04.31.06.55.06.74l-.08,1.32v4.7Z"/>
    <path class="cls-3" d="M289.29,90.77c.62,0,.92.52.92,1.57v.36l-.04,1.47c-.01.46-.02.92-.02,1.37l.32,4.75c0,.35-.36.53-1.07.53-.04,0-.14,0-.3,0-.16,0-.27-.06-.34-.19s-.07-.28-.02-.46c.05-.18.03-.38-.05-.61-.64.69-1.5,1.03-2.56,1.03-1.97,0-2.96-1.52-2.96-4.58,0-1.69.32-2.97.96-3.84.64-.87,1.55-1.3,2.74-1.3.56,0,1.12.1,1.68.29.18-.25.43-.38.76-.38ZM287.11,92.68c-.8,0-1.39.23-1.79.69-.39.46-.59,1.31-.59,2.54,0,2.07.56,3.11,1.68,3.11.29,0,.62-.13.98-.4.36-.27.61-.57.75-.9.27-.76.4-1.58.4-2.48,0-.9-.11-1.55-.33-1.95-.22-.41-.58-.61-1.1-.61Z"/>
    <path class="cls-3" d="M291.61,86.98c.03-.52.12-.87.25-1.03.13-.16.35-.24.64-.24.6,0,.9.25.9.74,0,.38-.03,1.37-.09,2.96-.06,1.6-.09,3.02-.09,4.28,0,1.26.05,2.28.15,3.04.17,1.34.41,2.02.71,2.02.31,0,.54-.22.69-.65.07-.17.18-.32.34-.45.15-.13.35-.2.59-.2.49,0,.73.41.73,1.24,0,.45-.24.89-.72,1.33-.48.44-.96.66-1.44.66-.48,0-.86-.08-1.14-.24-.29-.16-.52-.4-.69-.72-.18-.32-.32-.63-.42-.93-.1-.3-.18-.67-.22-1.1-.08-.7-.14-1.82-.18-3.37-.04-1.55-.05-3.02-.05-4.43,0-1.41.02-2.37.05-2.9Z"/>
  </g>
  <g>
    <path class="cls-3" d="M50.12,113.91c.18-.11.38-.17.6-.17s.37.13.43.39c.01,1.31.03,3.28.07,5.9,0,1.6-.04,2.95-.14,4.06-.02.17-.13.32-.31.45-.19.13-.38.2-.57.2-.32,0-.48-.16-.48-.49.11-1.13.17-2.54.17-4.22l-.1-5.71c.05-.16.16-.29.33-.41Z"/>
    <path class="cls-3" d="M54.04,124.74c-.29,0-.47-.16-.53-.49,0-2.29-.14-4.33-.41-6.12,0-.23.08-.43.25-.61.16-.18.35-.27.56-.27s.37.12.47.36c.42-.55.98-.83,1.68-.83.9,0,1.59.43,2.07,1.29.57-.82,1.32-1.22,2.25-1.22.94,0,1.64.37,2.1,1.12.31.46.52,1.08.65,1.84.12.76.19,1.84.19,3.23,0,.54-.06.97-.17,1.27-.11.3-.35.45-.71.45-.29,0-.44-.19-.44-.56l.05-2.12c0-2.55-.66-3.83-1.99-3.82-.42,0-.71.15-.88.44-.19.35-.31.72-.34,1.1-.05.68-.07,1.3-.07,1.85v2.46c0,.18-.09.33-.27.46-.18.12-.37.19-.56.19-.25,0-.41-.16-.48-.49l.05-3.52c0-1.25-.21-2.02-.63-2.33-.2-.15-.51-.22-.93-.22s-.72.15-.92.46c-.2.31-.3.8-.3,1.48l.1,3.16c0,.98-.27,1.46-.8,1.46Z"/>
    <path class="cls-3" d="M67.32,124.7c-.39,0-.74-.13-1.07-.39l-.22-.19v5.1c-.07.23-.19.42-.36.57-.17.15-.35.23-.54.23-.29,0-.44-.2-.44-.59v-11.85c.07-.29.15-.5.24-.63.1-.12.25-.19.46-.19.21,0,.35.05.41.14.06.1.14.36.23.79.05-.23.23-.44.54-.63.32-.19.74-.29,1.27-.29,1.16,0,1.98.42,2.47,1.26.49.84.73,1.83.73,2.96,0,1.14-.33,2.04-.99,2.7-.66.66-1.57,1-2.73,1ZM66.03,119.6v3.16c.07.03.15.09.24.17.33.29.69.44,1.07.44,1.56,0,2.35-.8,2.35-2.41,0-1.37-.35-2.24-1.05-2.6-.29-.16-.66-.24-1.09-.24-.42.06-.78.24-1.07.55-.29.31-.44.62-.44.93Z"/>
    <path class="cls-3" d="M71.87,113.71c.03-.42.1-.7.2-.83.11-.13.28-.2.52-.2.49,0,.73.2.73.59,0,.31-.03,1.11-.08,2.4-.05,1.29-.08,2.45-.08,3.47,0,1.02.04,1.84.12,2.46.14,1.09.33,1.63.58,1.63s.44-.18.56-.53c.06-.14.15-.26.27-.37.12-.11.28-.16.48-.16.4,0,.59.33.6,1,0,.36-.2.72-.59,1.08-.39.36-.78.54-1.16.54s-.69-.07-.93-.2c-.23-.13-.42-.33-.56-.59s-.26-.51-.34-.76c-.08-.24-.14-.54-.18-.89-.07-.57-.12-1.48-.15-2.73-.03-1.25-.04-2.45-.04-3.59,0-1.14.01-1.92.04-2.35Z"/>
    <path class="cls-3" d="M78.88,116.85c.6,0,1.17.18,1.72.53.54.35.82.78.82,1.3,0,.52-.22,1.01-.66,1.5-.44.48-1.03.77-1.77.88-.32.04-.79.07-1.43.07.12.96.37,1.6.73,1.9.11.12.27.19.46.19.7,0,1.29-.22,1.77-.67.48-.45.82-.67,1.02-.67.09,0,.23.08.41.26.18.17.27.33.27.48,0,.29-.36.72-1.07,1.28-.32.26-.7.48-1.15.66-.45.18-.86.26-1.25.26-.99,0-1.71-.63-2.18-1.9-.3-.78-.44-1.64-.44-2.58,0-.94.22-1.75.66-2.43.44-.68,1.14-1.02,2.09-1.02ZM78.96,118.02c-.43,0-.8.24-1.1.73-.11.17-.22.56-.32,1.16,1.59,0,2.38-.39,2.38-1.17,0-.48-.32-.71-.95-.71Z"/>
    <path class="cls-3" d="M84.17,124.73c-.29,0-.47-.16-.53-.49,0-2.29-.14-4.33-.41-6.12,0-.23.08-.43.25-.61.16-.18.35-.27.56-.27s.37.12.47.36c.42-.55.98-.83,1.68-.83.9,0,1.59.43,2.07,1.29.57-.82,1.32-1.22,2.25-1.22.94,0,1.64.37,2.1,1.12.31.46.52,1.08.65,1.84.12.76.19,1.84.19,3.23,0,.54-.06.97-.17,1.27-.11.3-.35.45-.71.45-.29,0-.44-.19-.44-.56l.05-2.12c0-2.55-.66-3.83-1.99-3.82-.42,0-.71.15-.88.44-.19.35-.31.72-.34,1.1-.05.68-.07,1.3-.07,1.85v2.46c0,.18-.09.33-.27.46-.18.12-.37.19-.56.19-.25,0-.41-.16-.48-.49l.05-3.52c0-1.25-.21-2.02-.63-2.33-.2-.15-.51-.22-.93-.22-.41,0-.72.15-.92.46-.2.31-.3.8-.3,1.48l.1,3.16c0,.98-.27,1.46-.8,1.46Z"/>
    <path class="cls-3" d="M97.2,116.84c.6,0,1.17.18,1.72.53s.82.79.82,1.3c0,.52-.22,1.01-.66,1.5-.44.48-1.03.77-1.77.88-.32.04-.79.07-1.43.07.12.96.37,1.6.73,1.9.11.12.27.19.46.19.7,0,1.29-.22,1.77-.67.48-.45.82-.67,1.02-.67.09,0,.23.08.41.26.18.17.27.33.27.48,0,.29-.36.72-1.07,1.28-.32.26-.7.48-1.15.65-.45.18-.86.26-1.25.26-.99,0-1.71-.63-2.18-1.9-.3-.78-.44-1.64-.44-2.58,0-.94.22-1.75.66-2.43.44-.68,1.14-1.02,2.09-1.02ZM97.29,118.02c-.43,0-.8.24-1.1.73-.11.17-.22.56-.32,1.16,1.59,0,2.38-.39,2.38-1.17,0-.48-.32-.71-.95-.71Z"/>
    <path class="cls-3" d="M102.17,124.19l-.19-6.9c0-.22.07-.39.22-.53s.29-.2.44-.2c.36,0,.57.15.63.46.05.31.07.62.07.95.61-.8,1.38-1.21,2.29-1.21,1.41,0,2.11,1.6,2.11,4.81,0,.29,0,.74,0,1.33,0,.59-.03,1.03-.1,1.3-.08.34-.32.51-.73.51-.27,0-.41-.18-.41-.54l.02-.95c0-1.31-.04-2.21-.13-2.69s-.17-.86-.25-1.15c-.19-.61-.5-.92-.94-.92-.57,0-.96.2-1.19.61-.25.44-.4.96-.44,1.56-.08,1.05-.12,2.17-.12,3.35,0,.23-.08.41-.25.54-.17.14-.37.2-.61.2-.28,0-.43-.18-.43-.54Z"/>
    <path class="cls-3" d="M109.63,116.77l.85.02c.19,0,.3,0,.32-.02v-3.48c.01-.19.11-.36.29-.49.18-.14.35-.2.51-.2s.29.05.38.15c.1.1.14.26.13.48-.01.22-.02,1.39-.02,3.54l1.99-.07c.34,0,.51.2.51.6,0,.29-.09.52-.26.66-.18.15-.36.23-.56.24-.2.01-.39.02-.59.02l-1.04-.02c0,.46.05,1.38.15,2.75.1,1.37.17,2.26.23,2.66s.07.66.03.78c-.03.12-.1.2-.19.25-.15.07-.35.1-.59.1-.25,0-.4-.13-.44-.41-.23-1.49-.38-3.53-.46-6.12-.1.01-.49.02-1.17.02s-1.02-.2-1.02-.59c0-.57.32-.85.95-.85Z"/>
    <path class="cls-3" d="M119.8,116.77c.5,0,.75.43.75,1.28v.29l-.03,1.19c-.01.37-.02.74-.02,1.1l.26,3.84c0,.28-.29.42-.87.42h-.25c-.13,0-.22-.05-.27-.15-.05-.1-.06-.23-.02-.37.04-.15.03-.31-.04-.49-.52.56-1.21.83-2.07.83-1.6,0-2.4-1.23-2.4-3.71,0-1.37.26-2.41.77-3.11.52-.7,1.25-1.05,2.22-1.05.45,0,.91.08,1.36.24.15-.2.35-.31.61-.31ZM118.03,118.32c-.65,0-1.13.19-1.44.56-.32.37-.48,1.06-.48,2.06,0,1.68.45,2.52,1.36,2.52.24,0,.5-.11.79-.32.29-.21.49-.46.6-.73.22-.61.32-1.28.32-2.01,0-.72-.09-1.25-.26-1.58-.18-.33-.47-.49-.89-.49Z"/>
    <path class="cls-3" d="M122.08,118.66c.4-.62.91-1.09,1.54-1.4.62-.31,1.23-.47,1.82-.47s1.06.07,1.42.21c.36.14.54.33.54.56s-.07.46-.2.7c-.13.23-.3.35-.52.35-.08,0-.3-.07-.65-.2-.36-.13-.59-.2-.69-.2-.66,0-1.22.24-1.68.72-.46.48-.7,1.12-.7,1.91,0,.79.13,1.39.38,1.78.26.39.69.59,1.32.59.25,0,.68-.14,1.28-.43.61-.29.98-.43,1.13-.43.15,0,.27.04.36.14.09.09.14.2.14.34,0,.27-.17.56-.52.86-.35.3-.77.55-1.28.75s-.97.3-1.38.3c-.91,0-1.62-.36-2.13-1.07-.52-.71-.77-1.69-.77-2.92,0-.76.2-1.45.6-2.08Z"/>
    <path class="cls-3" d="M129.44,113.97c.2,0,.4.1.58.29.18.19.27.39.27.6s-.1.42-.3.64c-.2.21-.41.32-.62.32s-.41-.09-.59-.27c-.18-.18-.26-.41-.26-.7,0-.54.29-.84.88-.88h.03ZM130.15,122.87l.02,1.19c0,.22-.08.39-.25.54-.17.14-.35.21-.54.21-.28,0-.43-.14-.44-.42-.15-3.62-.22-5.62-.22-6,0-.38.02-.86.05-1.41.02-.2.15-.31.39-.31.6,0,.94.24,1.02.73.03.25.05.45.05.59l-.07,1.07v3.81Z"/>
    <path class="cls-3" d="M135.13,116.79c.82,0,1.49.39,2.01,1.17.53.78.79,1.72.79,2.81s-.27,2.03-.81,2.8c-.54.77-1.25,1.16-2.14,1.16s-1.61-.39-2.15-1.18-.82-1.66-.82-2.63c0-1.24.25-2.22.75-2.96.53-.78,1.32-1.17,2.36-1.17ZM134.93,118.18c-.48,0-.87.25-1.17.75-.31.5-.46,1.03-.46,1.58,0,.86.17,1.52.51,1.97s.73.68,1.16.68c.77,0,1.26-.33,1.48-1,.09-.32.14-.71.14-1.19,0-1.86-.55-2.79-1.65-2.79ZM135.03,113.44c.07-.19.21-.29.43-.29s.4.07.53.2c.13.14.2.25.2.33s-.01.16-.03.21c-.18.51-.48.99-.91,1.44s-.75.68-.98.68-.4-.06-.51-.17c-.11-.11-.17-.25-.17-.4,0-.15.09-.3.27-.43.6-.5.99-1.03,1.17-1.58Z"/>
    <path class="cls-3" d="M139.62,124.18l-.19-6.9c0-.22.07-.39.22-.53s.29-.2.44-.2c.36,0,.57.15.63.46.05.31.07.62.07.95.61-.8,1.38-1.21,2.29-1.21,1.41,0,2.11,1.6,2.11,4.81,0,.29,0,.74,0,1.33,0,.59-.03,1.03-.1,1.3-.08.34-.32.51-.73.51-.27,0-.41-.18-.41-.54l.02-.95c0-1.31-.04-2.21-.13-2.69s-.17-.86-.25-1.15c-.19-.61-.5-.92-.94-.92-.57,0-.96.21-1.19.61-.25.44-.4.96-.44,1.56-.08,1.05-.12,2.17-.12,3.35,0,.23-.08.41-.25.54-.17.14-.37.2-.61.2-.28,0-.43-.18-.43-.54Z"/>
    <path class="cls-3" d="M154.63,116.75l-.02-3.28c0-.61.2-.92.59-.92s.61.17.65.51c.02.15.05,1.04.09,2.67.03,1.63.09,3.16.16,4.59.07,1.43.11,2.76.11,4,0,.34-.25.51-.76.51-.34,0-.51-.24-.51-.71-.49.38-1.07.58-1.73.58-.85,0-1.54-.32-2.07-.95s-.79-1.42-.79-2.35c0-.93.19-1.8.57-2.61.38-.81.97-1.39,1.78-1.74.5-.22.98-.32,1.44-.32.17,0,.33.01.49.03ZM154.72,119.07c-.08-.24-.18-.43-.3-.56-.11-.13-.24-.21-.37-.24-.13-.03-.29-.04-.47-.04s-.4.07-.66.2c-.26.14-.48.36-.66.66-.36.61-.54,1.26-.54,1.93,0,.67.13,1.22.4,1.65.27.42.65.64,1.14.64.49,0,.88-.24,1.16-.73.28-.49.42-1.11.42-1.87,0-.85-.04-1.4-.13-1.64Z"/>
    <path class="cls-3" d="M159.64,116.83c.6,0,1.17.18,1.72.53s.82.79.82,1.3c0,.52-.22,1.01-.66,1.5-.44.48-1.03.77-1.77.88-.32.04-.79.07-1.43.07.12.96.37,1.6.73,1.9.11.12.27.19.46.19.7,0,1.29-.22,1.77-.67.48-.45.82-.67,1.02-.67.09,0,.23.08.41.26.18.17.27.33.27.48,0,.29-.36.72-1.07,1.28-.32.26-.7.48-1.15.65-.45.18-.86.26-1.25.26-.99,0-1.71-.63-2.18-1.9-.3-.78-.44-1.64-.44-2.58,0-.94.22-1.75.66-2.43.44-.68,1.14-1.02,2.09-1.02ZM159.73,118.01c-.43,0-.8.24-1.1.73-.11.17-.22.56-.32,1.16,1.59,0,2.38-.39,2.38-1.17,0-.48-.32-.71-.95-.71Z"/>
    <path class="cls-3" d="M163.92,113.69c.03-.42.1-.7.2-.83.11-.13.28-.2.52-.2.49,0,.73.2.73.59,0,.31-.03,1.11-.08,2.4-.05,1.29-.08,2.45-.08,3.47,0,1.02.04,1.84.12,2.46.14,1.09.33,1.63.58,1.63s.44-.18.56-.53c.06-.14.15-.26.27-.37.12-.11.28-.16.48-.16.4,0,.59.33.6,1,0,.36-.2.72-.59,1.08-.39.36-.78.54-1.16.54s-.69-.07-.93-.2c-.23-.13-.42-.33-.56-.59s-.26-.51-.34-.76c-.08-.24-.14-.54-.18-.89-.07-.57-.12-1.48-.15-2.73-.03-1.25-.04-2.45-.04-3.59,0-1.14.01-1.92.04-2.35Z"/>
    <path class="cls-3" d="M175.08,124.68c-.39,0-.74-.13-1.07-.39l-.22-.19v5.1c-.07.23-.19.42-.36.57s-.35.23-.54.23c-.29,0-.44-.2-.44-.59v-11.85c.07-.29.15-.5.24-.63.1-.12.25-.19.46-.19s.35.05.41.14c.06.1.14.36.23.79.05-.23.23-.44.54-.63.32-.19.74-.29,1.27-.29,1.16,0,1.98.42,2.47,1.26.49.84.73,1.83.73,2.96,0,1.14-.33,2.04-.99,2.7-.66.66-1.57,1-2.73,1ZM173.79,119.58v3.16c.07.03.15.09.24.17.33.29.69.44,1.07.44,1.56,0,2.35-.8,2.35-2.41,0-1.37-.35-2.24-1.05-2.6-.29-.16-.66-.24-1.09-.24-.42.06-.78.24-1.07.55-.29.31-.44.62-.44.93Z"/>
    <path class="cls-3" d="M181.86,122.22l.02,1.75c0,.2-.09.39-.28.56s-.37.25-.55.25c-.26,0-.43-.2-.49-.61-.01-.09-.06-.92-.14-2.49-.08-1.57-.23-2.8-.46-3.7-.1-.43-.15-.69-.15-.77,0-.37.23-.56.68-.56.19,0,.35.07.46.22.11.15.18.3.21.45.03.15.05.36.08.62s.04.42.05.49c.24-.57.59-.99,1.07-1.28.48-.28,1-.42,1.56-.43.93,0,1.39.24,1.39.71,0,.24-.08.43-.25.57-.16.14-.35.21-.57.21-.96,0-1.64.31-2.04.92-.4.61-.59,1.63-.59,3.06Z"/>
    <path class="cls-3" d="M189.22,116.78c.82,0,1.49.39,2.01,1.17s.79,1.72.79,2.81-.27,2.03-.81,2.8c-.54.77-1.25,1.16-2.14,1.16-.89,0-1.61-.39-2.15-1.18-.54-.79-.82-1.66-.82-2.63,0-1.24.25-2.22.75-2.96.53-.78,1.32-1.17,2.36-1.17ZM189.02,118.17c-.48,0-.87.25-1.17.75-.31.5-.46,1.03-.46,1.58,0,.86.17,1.52.51,1.97s.73.68,1.16.68c.77,0,1.26-.33,1.48-1,.09-.32.14-.71.14-1.19,0-1.86-.55-2.79-1.65-2.79Z"/>
    <path class="cls-3" d="M198.49,116.84c.15,0,.29.05.43.15.14.1.21.22.21.34,0,.33-.48,2.11-1.44,5.34-.96,3.23-1.68,5.5-2.14,6.8-.1.31-.26.46-.48.46s-.39-.08-.51-.23c-.12-.15-.19-.38-.19-.67s.19-1,.57-2.12c.38-1.12.61-1.83.69-2.13-.28-.48-1.24-2.86-2.87-7.14-.02-.06-.03-.13-.03-.22s.07-.21.2-.36c.14-.15.32-.22.56-.22s.43.12.58.36c.16.41.42,1.12.78,2.13s.64,1.75.84,2.2c.2.45.39.92.57,1.41.16-.53.43-1.57.82-3.1.38-1.54.61-2.41.66-2.63.05-.25.29-.37.75-.37Z"/>
    <path class="cls-3" d="M202.71,116.82c.6,0,1.17.18,1.72.53.54.35.82.79.82,1.3,0,.52-.22,1.01-.66,1.5-.44.48-1.03.77-1.77.88-.32.04-.79.07-1.43.07.12.96.37,1.6.73,1.9.11.12.27.19.46.19.7,0,1.29-.22,1.77-.67.48-.45.82-.67,1.02-.67.09,0,.23.08.41.26.18.17.27.33.27.48,0,.29-.36.72-1.07,1.28-.32.26-.7.48-1.15.66-.45.18-.86.26-1.25.26-.99,0-1.71-.63-2.18-1.9-.3-.78-.44-1.64-.44-2.58,0-.94.22-1.75.66-2.43.44-.68,1.14-1.02,2.09-1.02ZM202.79,118c-.43,0-.8.24-1.1.73-.11.17-.22.56-.32,1.16,1.59,0,2.38-.39,2.38-1.17,0-.48-.32-.71-.95-.71Z"/>
    <path class="cls-3" d="M207.39,118.64c.4-.62.91-1.09,1.54-1.4.62-.31,1.23-.47,1.82-.47s1.06.07,1.42.21c.36.14.54.33.54.56s-.07.46-.2.7c-.13.23-.3.35-.52.35-.08,0-.3-.07-.65-.2-.36-.13-.59-.2-.69-.2-.66,0-1.22.24-1.68.72-.46.48-.7,1.12-.7,1.91,0,.79.13,1.39.38,1.78.26.39.69.59,1.32.58.25,0,.68-.14,1.28-.43.61-.29.98-.43,1.13-.43s.27.05.36.14c.09.09.14.2.14.34,0,.27-.17.56-.52.86-.35.3-.77.55-1.28.75s-.97.3-1.38.3c-.91,0-1.62-.36-2.13-1.07-.52-.71-.77-1.69-.77-2.92,0-.76.2-1.45.6-2.07Z"/>
    <path class="cls-3" d="M214.04,116.75l.85.02c.19,0,.3,0,.32-.02v-3.48c.01-.19.11-.36.29-.49.18-.14.35-.2.51-.2s.29.05.38.15c.1.1.14.26.13.48-.01.22-.02,1.39-.02,3.54l1.99-.07c.34,0,.51.2.51.6,0,.29-.09.52-.26.66-.18.15-.36.23-.56.24-.2.01-.39.02-.59.02l-1.04-.02c0,.46.05,1.38.15,2.75.1,1.37.17,2.26.23,2.66s.07.66.03.78c-.03.12-.1.2-.19.25-.15.07-.35.1-.59.1s-.4-.14-.44-.41c-.23-1.49-.38-3.53-.46-6.12-.1.01-.49.02-1.17.02-.68,0-1.02-.2-1.02-.59,0-.57.32-.85.95-.85Z"/>
    <path class="cls-3" d="M222.48,116.77c.82,0,1.49.39,2.01,1.17.53.78.79,1.72.79,2.81s-.27,2.03-.81,2.8c-.54.77-1.25,1.16-2.14,1.16s-1.61-.39-2.15-1.18-.82-1.66-.82-2.63c0-1.24.25-2.22.75-2.96.53-.78,1.32-1.17,2.36-1.17ZM222.27,118.16c-.48,0-.87.25-1.17.75-.31.5-.46,1.03-.46,1.58,0,.86.17,1.52.51,1.97s.73.68,1.16.68c.77,0,1.26-.33,1.48-1,.09-.32.14-.71.14-1.19,0-1.86-.55-2.79-1.65-2.79Z"/>
    <path class="cls-3" d="M227.55,117.57c.24,0,.46.09.65.27.19.18.3.43.33.75,0,.25-.09.48-.28.69-.19.21-.4.31-.64.31s-.45-.07-.65-.2c-.19-.14-.29-.34-.29-.6s.08-.54.25-.81c.17-.27.38-.41.62-.41ZM227.78,122.77c.09,0,.2.03.34.08.08.04.17.17.26.37.1.2.14.41.14.61s-.1.39-.29.57c-.19.18-.41.26-.65.26s-.43-.09-.59-.26-.23-.4-.23-.67c0-.65.33-.97,1-.97Z"/>
    <path class="cls-3" d="M234.27,113.66l6.89-.1c.33.1.49.27.49.49,0,.57-.23.85-.7.85-.85,0-1.75.02-2.7.07-.06.97-.08,1.71-.08,2.2v.94l.07,5.97c0,.35-.09.56-.27.61-.14.04-.31.07-.51.07-.33,0-.51-.19-.54-.56-.07-.87-.1-2.5-.1-4.89,0-2.38.03-3.82.1-4.31-.24.01-.59.02-1.05.02s-1.04,0-1.73-.02c-.18,0-.32-.06-.43-.17-.1-.11-.15-.25-.15-.42s.07-.33.21-.48c.14-.16.31-.25.52-.27Z"/>
    <path class="cls-3" d="M244.32,122.21l.02,1.75c0,.2-.09.39-.28.56s-.37.25-.55.25c-.26,0-.43-.2-.49-.61-.01-.09-.06-.92-.14-2.49-.08-1.57-.23-2.8-.46-3.7-.1-.43-.15-.69-.15-.77,0-.37.23-.56.68-.56.19,0,.35.07.46.22.11.15.18.3.21.45.03.15.05.36.08.62s.04.42.05.49c.24-.57.59-.99,1.07-1.28.48-.28,1-.43,1.56-.43.93,0,1.39.24,1.39.71,0,.24-.08.43-.25.57-.16.14-.35.21-.57.21-.96,0-1.64.31-2.04.92-.4.61-.59,1.63-.59,3.06Z"/>
    <path class="cls-3" d="M253.42,116.75c.5,0,.75.43.75,1.28v.29l-.03,1.19c-.01.37-.02.74-.02,1.1l.26,3.84c0,.28-.29.42-.87.42h-.25c-.13,0-.22-.05-.27-.15-.05-.1-.06-.23-.02-.37.04-.15.03-.31-.04-.49-.52.56-1.21.83-2.07.83-1.6,0-2.4-1.23-2.4-3.71,0-1.37.26-2.41.77-3.11.52-.7,1.25-1.05,2.22-1.05.45,0,.91.08,1.36.24.15-.2.35-.31.61-.31ZM251.65,118.29c-.65,0-1.13.19-1.44.56-.32.37-.48,1.06-.48,2.06,0,1.68.45,2.52,1.36,2.52.24,0,.5-.11.79-.32.29-.21.49-.46.6-.73.22-.61.32-1.28.32-2.01,0-.72-.09-1.25-.26-1.58-.18-.33-.47-.49-.89-.49Z"/>
    <path class="cls-3" d="M255.37,113.19c0-.45.28-.68.85-.68.26,0,.41.16.46.48v2.55c0,.48,0,.95.02,1.43.23-.07.52-.1.87-.1,1.1,0,1.95.37,2.55,1.11s.9,1.66.9,2.77c0,1.11-.35,2.05-1.06,2.81-.71.77-1.62,1.15-2.73,1.15s-1.67-.31-1.67-.94c0-.63-.03-2.23-.09-4.79-.06-2.57-.09-4.49-.09-5.77ZM258.81,118.67c-.41-.32-.84-.48-1.29-.48-.25,0-.5.05-.76.14.07.93.1,2.58.1,4.95.19.07.39.1.59.1.44,0,.88-.17,1.33-.49.66-.45.99-1.15.99-2.08,0-.93-.32-1.65-.95-2.13Z"/>
    <path class="cls-3" d="M267.08,116.74c.5,0,.75.43.75,1.28v.29l-.03,1.19c-.01.37-.02.74-.02,1.1l.26,3.84c0,.28-.29.42-.87.42h-.25c-.13,0-.22-.05-.27-.15-.05-.1-.06-.23-.02-.37.04-.15.03-.31-.04-.49-.52.56-1.21.83-2.07.83-1.6,0-2.4-1.24-2.4-3.71,0-1.37.26-2.41.77-3.11.52-.7,1.25-1.05,2.22-1.05.45,0,.91.08,1.36.24.15-.2.35-.31.61-.31ZM265.32,118.29c-.65,0-1.13.19-1.44.56-.32.37-.48,1.06-.48,2.06,0,1.68.45,2.52,1.36,2.52.24,0,.5-.11.79-.32.29-.21.49-.46.6-.73.22-.61.32-1.28.32-2.01,0-.72-.09-1.25-.26-1.58-.18-.33-.47-.49-.89-.49Z"/>
    <path class="cls-3" d="M269.89,116.91c.15-.12.37-.18.66-.18s.46.14.49.42c.16,1.39.24,2.71.24,3.96,0,1.25-.04,2.5-.12,3.75-.08,1.25-.26,2.22-.54,2.9-.39.89-1.08,1.34-2.09,1.34-.51,0-.95-.16-1.33-.48-.37-.32-.56-.7-.56-1.14,0-.24.08-.42.25-.54s.36-.19.56-.19.36.05.46.15c.1.1.17.22.2.34.11.33.31.49.59.49s.52-.22.71-.66c.2-.44.33-1.04.39-1.8.06-.76.09-1.56.09-2.41,0-2.66-.07-4.5-.21-5.51-.02-.18.04-.33.19-.45ZM270.25,114.02c.2,0,.4.1.58.29.18.19.27.39.27.6s-.1.42-.3.64c-.2.21-.41.32-.62.32s-.41-.09-.59-.27c-.18-.18-.26-.41-.26-.7,0-.54.29-.84.88-.88h.03Z"/>
    <path class="cls-3" d="M276.01,116.76c.82,0,1.49.39,2.01,1.17s.79,1.72.79,2.81-.27,2.03-.81,2.8c-.54.77-1.25,1.16-2.14,1.16-.89,0-1.61-.39-2.15-1.18-.54-.79-.82-1.66-.82-2.63,0-1.24.25-2.22.75-2.96.53-.78,1.32-1.17,2.36-1.17ZM275.8,118.15c-.48,0-.87.25-1.17.75-.31.5-.46,1.03-.46,1.58,0,.86.17,1.52.51,1.97s.73.68,1.16.68c.77,0,1.26-.33,1.48-1,.09-.32.14-.71.14-1.19,0-1.86-.55-2.79-1.65-2.79Z"/>
    <path class="cls-3" d="M288.74,113.39c.54,0,1.09.14,1.62.41.54.27.81.58.81.92,0,.52-.22.78-.65.78-.16,0-.44-.1-.83-.31-.4-.2-.73-.31-1-.31-.97,0-1.79.44-2.44,1.31-.65.87-.98,1.98-.98,3.33,0,1.01.22,1.89.66,2.65.44.76.97,1.14,1.57,1.14s1.08-.2,1.43-.6c.35-.4.52-.86.52-1.37,0-.28-.02-.52-.06-.71-.04-.19-.14-.36-.3-.51-.16-.15-.37-.23-.63-.23s-.51-.06-.74-.17-.35-.27-.35-.46.06-.37.17-.54.27-.27.46-.31c.77,0,1.29.08,1.56.24.27.16.47.29.6.39s.25.27.34.51c.09.24.16.44.21.59.05.16.09.41.11.77.02.59.03,1.28.03,2.07,0,.79-.06,1.27-.17,1.45-.1.15-.27.22-.51.23-.24,0-.4-.04-.49-.14-.09-.1-.15-.33-.17-.68-.27.24-.61.44-1.03.6-.41.16-.78.25-1.1.25-1,0-1.84-.53-2.52-1.59-.68-1.06-1.02-2.34-1.02-3.83,0-.79.13-1.57.39-2.34.26-.77.61-1.41,1.05-1.93.93-1.08,2.07-1.62,3.43-1.62Z"/>
    <path class="cls-3" d="M294.11,122.2l.02,1.75c0,.2-.09.39-.28.56s-.37.25-.55.25c-.26,0-.43-.2-.49-.61-.01-.09-.06-.92-.14-2.49-.08-1.57-.23-2.8-.46-3.7-.1-.43-.15-.69-.15-.77,0-.37.23-.56.68-.56.19,0,.35.07.46.22.11.15.18.3.21.45.03.15.05.36.08.62s.04.42.05.49c.24-.57.59-.99,1.07-1.28.48-.28,1-.42,1.56-.42.93,0,1.39.24,1.39.71,0,.24-.08.43-.25.57-.16.14-.35.21-.57.21-.96,0-1.64.31-2.04.92-.4.61-.59,1.63-.59,3.06Z"/>
    <path class="cls-3" d="M298.72,116.92c.15-.13.3-.2.45-.2s.27.03.36.08.14.11.15.15c.02.04.04.12.06.24-.07.88-.1,1.68-.1,2.39,0,.71.09,1.52.26,2.43.17.91.36,1.37.56,1.37.31,0,.69-.17,1.16-.51.47-.34.81-.7,1.01-1.07-.14-1.63-.2-3.03-.2-4.2,0-.24.08-.44.23-.61.15-.17.34-.26.55-.26.35,0,.53.24.53.71,0,.8.06,2,.18,3.59.12,1.59.24,2.59.37,3.03.02.09.03.2.03.31s-.08.23-.23.34c-.15.11-.35.16-.59.16s-.41-.14-.48-.41c-.02-.23-.08-.57-.17-1.02-.79.83-1.59,1.24-2.4,1.24-.37,0-.71-.14-1-.42-.3-.28-.53-.67-.7-1.16-.3-.94-.44-1.82-.44-2.65s.04-1.85.14-3.06c.05-.19.14-.35.29-.48Z"/>
    <path class="cls-3" d="M307.95,124.66c-.39,0-.74-.13-1.07-.39l-.22-.19v5.1c-.07.23-.19.42-.36.57-.17.15-.35.23-.54.23-.29,0-.44-.2-.44-.59v-11.85c.07-.29.15-.5.24-.63.1-.12.25-.19.46-.19s.35.05.41.14c.06.1.14.36.23.79.05-.23.23-.44.54-.63.32-.19.74-.29,1.27-.29,1.16,0,1.98.42,2.47,1.26.49.84.73,1.83.73,2.97,0,1.14-.33,2.04-.99,2.7-.66.66-1.57,1-2.73,1ZM306.66,119.56v3.16c.07.03.15.09.24.17.33.29.69.44,1.07.44,1.56,0,2.35-.8,2.35-2.41,0-1.37-.35-2.24-1.05-2.6-.29-.16-.66-.24-1.09-.24-.42.06-.78.24-1.07.55-.29.31-.44.62-.44.93Z"/>
    <path class="cls-3" d="M317.28,116.73c.5,0,.75.42.75,1.27v.29l-.03,1.19c-.01.37-.02.74-.02,1.1l.26,3.84c0,.28-.29.42-.87.42-.03,0-.12,0-.25,0s-.22-.05-.27-.15c-.05-.1-.06-.23-.02-.37.04-.15.03-.31-.04-.49-.52.56-1.21.83-2.07.83-1.6,0-2.4-1.24-2.4-3.71,0-1.37.26-2.41.77-3.11.52-.7,1.25-1.05,2.22-1.05.45,0,.91.08,1.36.24.15-.2.35-.31.61-.31ZM315.52,118.28c-.65,0-1.13.19-1.44.56-.32.37-.48,1.06-.48,2.06,0,1.68.45,2.52,1.36,2.52.24,0,.5-.11.79-.32.29-.21.49-.46.6-.73.22-.61.32-1.28.32-2.01,0-.72-.09-1.25-.26-1.58-.18-.33-.47-.49-.89-.49Z"/>
    <path class="cls-3" d="M319.16,113.67c.03-.42.1-.7.2-.83.11-.13.28-.2.52-.2.49,0,.73.2.73.59,0,.31-.03,1.11-.08,2.4-.05,1.29-.08,2.45-.08,3.47,0,1.02.04,1.84.12,2.46.14,1.09.33,1.63.58,1.63s.44-.18.56-.53c.06-.14.15-.26.27-.37.12-.11.28-.16.48-.16.4,0,.59.33.6,1,0,.36-.2.72-.59,1.08-.39.36-.78.54-1.16.54s-.69-.07-.93-.2c-.23-.13-.42-.33-.56-.59s-.26-.51-.34-.76c-.08-.24-.14-.54-.18-.89-.07-.57-.12-1.48-.15-2.73-.03-1.25-.04-2.45-.04-3.59,0-1.14.01-1.92.04-2.35Z"/>
  </g>
</svg>