<svg id="Capa_1" data-name="Capa 1" xmlns="http://www.w3.org/2000/svg" viewBox="0 0 1199.51 121.96"><defs><style>.cls-1{fill:#e4eae9;}.cls-2{fill:#e4edf2;}.cls-3{fill:#c94d5b;}.cls-4{fill:#c3d266;}</style></defs><path class="cls-1" d="M504.86,65l-1.28,0c-5,.15-11.23.33-18.28.66s-15,.72-23.45,1.18c-7.47.34-16.2.78-21.61,1-48.5,2-107.66,5.37-172.76,10.36l38.22-2.59c-18.82,1.38-37.39,2.69-58.31,4.53l7.27-.31C222.28,82.19,184,85.69,148.3,89.48S79.51,97.4,57.43,100.65c-11.08,1.62-18.39,2.85-22.1,3.64-3.23.67-3.74,1-1.67,1l1.11,0c6.55-.24,26.66-2.27,58.88-5.57l8.87-.89c6.23-.73,12.62-1.46,19.1-2.17,40.48-4.52,84.91-8.64,119.5-11.43l28.39-2.37c5.82-.45,11.18-.85,15.93-1.19l17.1-1.4c9.85-.82,19.76-1.5,29.65-2.26q29.81-2.23,59.63-4.12c16.84-1.28,32.88-2.46,47.78-3.55q-14.07.75-28.29,1.58c-46.53,2.7-86.51,5.09-130.42,8.38-9.11.69-16,1.17-17.61,1.17-.4,0-.49,0-.24-.09.64-.14,3.58-.49,7.75-.88s9.56-.85,15.08-1.28c36.58-3.1,74.52-5.81,112.69-8.33l28.66-1.76,14.32-.87,14.32-.77L484.38,66c6.85-.36,13.68-.66,20.48-1"/><path class="cls-1" d="M168.33,94.43,162,95l-4.12.53,3.24-.29,7.22-.85M285.44,81.66c-4.75.34-10.11.74-15.93,1.19l-28.39,2.37c-34.59,2.79-79,6.91-119.5,11.43-6.48.71-12.87,1.44-19.1,2.17-13.2,1.55-25.69,3.11-36.94,4.59-16.56,2.2-30.42,4.23-39.9,5.87-5.22.9-4.38,1-2.48,1h2.56c.41,0,.77,0,1,0-.3.11-.18.16.34.16,3.67,0,27.33-2.7,57.44-6.16,9-1,17.65-2,25.57-3C150,97.15,191,93.26,229.93,90c7.65-.64,17-1.47,21-2,1.34-.16,1.64-.25,1-.25-.93,0-4,.2-8.88.58-27.95,2.19-55.06,4.46-82,6.89l-6.55.77c.92-.15,2-.3,3.31-.48l-7.54.69,5.68-.65,6-.57,3.4-.42c2.75-.32,5.81-.67,9.09-1-21.3,2-42.67,4.15-63.93,6.42-12.41,1.43-24.1,2.59-26,2.61-1.67,0,7.15-1.23,19.88-2.7,35-4.26,72.16-8.28,110.44-12,9.57-.92,19.2-1.86,28.9-2.7s19.45-1.75,29.25-2.58l12.4-1"/><path class="cls-1" d="M70.72,106.23c-7.92.82-15.52,1.66-26.76,3.08L39.2,110c4.17-.47,9.82-1.1,15.46-1.71,11.11-1.21,16.78-2,16.06-2.09"/><path class="cls-2" d="M167.9,107.91l22.83-3.86-20.9,3.74-1.93.12m-46.7-5.23c2.54-.23,4.52-.39,7.76-.65l-7.76.65M287.54,89.76l11.13-.53h-.13l-11,.52m89.82-11.1c18.32-1.18,38-2.24,57.84-3.4,5-.3,10-.56,14.94-.81l14.93-.77c9.93-.5,19.77-1.06,29.42-1.48l32-1.41c5.31-.22,10.61-.48,15.91-.68l15.86-.59,31.62-1.18,31.52-1-14.8.56c-4.81.19-14.25.48-9.12.53-4.92.14-9.85.34-14.79.53l-14.84.57-29.9,1.18-30.19,1.41-15.22.72c-5.09.23-10.19.53-15.31.8l-22.65,1.26c-7.47.42-14.83.86-22,1.36l-25.43,1c-4.52.19-9.22.36-14.16.61l-15.59.8M819.55,57.78l6.79.52-12.6-.09-11.33,0c-4.08,0-8.22,0-12.77,0l-12.47,0,16.56.22h-1.21l-9.86,0c-8,0-16.46,0-25.26.07-12.52.16-25.72.38-39.17.62-59,.39-130.5,2.13-205.55,5.56l-7.82.36c-6.8.31-13.63.61-20.48,1l-28.52,1.52-14.32.77-14.32.87-28.66,1.76c-38.17,2.52-76.11,5.23-112.69,8.33-5.52.43-10.91.89-15.08,1.28s-7.11.74-7.75.88c-.25.06-.16.09.24.09,1.64,0,8.5-.48,17.61-1.17,43.91-3.29,83.89-5.68,130.42-8.38q14.22-.84,28.29-1.58C473,68.56,505.92,67.17,539,65.79c42.43-1.53,85.24-3,130.17-4L685,61.47c6.08,0,12.17-.09,18.28-.09h4.49l-3.24,0c-10,.13-20,.39-30.07.57L680,62l-29,.69c-4.83.1-9.66.25-14.49.4L622,63.53l-28.91.9-28.82,1.08c-54.62,1.86-113.19,4.61-172.44,8.37Q362,75.77,332.19,78c-9.89.76-19.8,1.44-29.65,2.26l-17.1,1.4-12.4,1c-9.8.83-19.55,1.72-29.25,2.58S224.46,87,214.89,88c-38.28,3.68-75.41,7.7-110.44,12-12.73,1.47-21.55,2.66-19.88,2.7,1.88,0,13.57-1.18,26-2.61,21.26-2.27,42.63-4.41,63.93-6.42q20.15-1.91,40.15-3.65c17.21-1.54,34.3-2.89,51.12-4.25,8.41-.67,16.78-1.26,25.06-1.87s16.47-1.24,24.6-1.76l.71,0c.36,0,.17.06,0,.12s-.17.12.47.12c.36,0,1,0,1.89-.07l7.55-.43c-8.09.55-16.66,1.12-25.84,1.85-34.54,3.1-47.55,4.45-56.55,5.3h-.16l-2.7.27c-4.15.4-7.8.75-13,1.3h0l-3.31.35L209,92.24c-5.83.51-11.47,1.07-14.29,1.44l-7,.48c-14.75,1.38-22.13,2-29.59,2.81L146,98.18c-4.72.46-10.39,1-17.94,1.82,0,0,.05,0,.74,0h.33l-23,2.55-39.51,4.47,13.67-1.36-12,1.24,3.18-.08-5.57.33-5.07.86-3,.28c-3,.29-8.93.82-20.79,2h0c-1.83.25-6.2.84-17.14,2.39,0,0-3,.48-5.24.86-.25.13-.18.09-9.58,1.74,0,0-.15.09.48.09H5.9c1.71-.19,2.42-.27,2.88-.27a3.69,3.69,0,0,1,.86.11l8-.91,6.66-.82,15.86-1.9-4,.65c-1.34.4-2.1.61-.83.61,1.67,0,6.88-.37,19-1.21,0,0,11.76-1.16,30.76-3.15,22-2.39,22-2.42,47.49-5L147.69,102c7.17-.55,8.76-.67,14.07-1h.12c-4.86.51-9.62,1-13.56,1.49-7.57.89-10.8,1.38-9.32,1.38.76,0,2.75-.12,6-.4-7.17,1.19-7.68,1.66-3.77,1.66,2.91,0,8.26-.26,15.14-.69-3.89.61-6.07,1.05-6.39,1.3-.08.07-.05.12.09.16-9.3,1.27-16.81,2.42-22.59,3.4s-9.84,1.78-12.19,2.41l-2.09.87c2.76,0,8.09-.33,15.65-.9l13-1,16.08-1.34,7.08-.57-6.57,1.22,12.57-.77,14.7-.93,16.22-1.09,17.16-1.1,17.45-1.13,17.18-1c11.22-.65,21.82-1.25,31-1.62l27.63-1.51c10.05-.47,23-1.18,38.14-2.1l24.19-1.41,26.82-1.62,39.39-2.23L465.79,92c-10.46.76-19.74,1.4-27.64,2.11S423.71,95.42,418.72,96C408.75,97,405,97.77,408.89,98c1.06.07,2.63.1,4.67.1,23.63,0,110.13-4.37,204-7.63,14.77-.5,29.51-1.06,44.24-1.41s29.42-.82,44.11-1.14l44-.84c7.33-.17,14.65-.23,22-.31l21.95-.24,21.94-.25,21.92-.06,21.91-.06c4.89,0,9.78,0,14.67,0,2.41,0,4.83,0,7.24,0l43.79.25,11,.07,10.95.16,21.89.32c29.21.3,58.41,1.17,87.67,1.83,14.63.41,29.25,1,43.91,1.43l22,.73,22,.93,44.1,1.91,14.9.79V66.75l-14.91-.69-60.4-2.18c-3.44-.17-6.88-.29-10.58-.43-45.83-2.05-95.57-3.73-146.26-4.55-12.68-.21-25.41-.46-38.15-.63L895.11,58l-19.05-.15h-19l-37.54,0"/><polygon class="cls-3" points="113.16 28.53 123.13 8.26 130.49 31.13 156.79 38.74 131.08 49.44 131.12 77.91 117.07 53.1 92.06 68.41 102 45.8 86.42 30.61 113.16 28.53"/><polygon class="cls-4" points="266.72 39.07 273.19 25.91 277.96 40.76 295.03 45.7 278.35 52.64 278.38 71.11 269.26 55.01 253.03 64.95 259.48 50.28 249.37 40.42 266.72 39.07"/><polygon class="cls-2" points="190.72 104.05 167.9 107.92 169.83 107.79 190.72 104.05"/><path class="cls-2" d="M1188.74,93.83l-44.1-1.91-22-.93-22-.73c-14.66-.48-29.28-1-43.91-1.43-29.26-.66-58.46-1.53-87.67-1.83l-21.89-.32-10.95-.16-11-.07-43.79-.25c-2.41,0-4.83,0-7.24,0-4.89,0-9.78,0-14.67,0l-21.91.06-21.92.06-21.94.25-21.95.24c-7.32.08-14.64.14-22,.31l-44,.84c-14.69.32-29.39.76-44.11,1.14s-29.47.91-44.24,1.41c-93.85,3.26-180.35,7.63-204,7.63-2,0-3.61,0-4.67-.1-3.9-.27-.14-1,9.83-2.08,5-.54,11.52-1.16,19.43-1.85s17.18-1.35,27.64-2.11l-24.88,1.37L401.52,95.6,374.7,97.22l-24.19,1.41c-15.11.92-28.09,1.63-38.14,2.1l-27.63,1.51c-9.21.37-19.81,1-31,1.62l-17.18,1L219.08,106l-17.16,1.1-16.22,1.09-14.7.93-12.57.77,6.57-1.22-7.08.57-16.08,1.34-13,1c-7.56.57-12.89.88-15.65.9l2.09-.87c2.35-.63,6.4-1.43,12.19-2.41s13.29-2.13,22.59-3.4c-.14,0-.17-.09-.09-.16-91,9.43-142.57,17-142.57,17L7.36,124H1203.64V94.62Z"/></svg>