<svg id="Capa_1" data-name="Capa 1" xmlns="http://www.w3.org/2000/svg" viewBox="0 0 29.74 29.49"><defs><style>.cls-1{fill:#cd576a;}</style></defs><path class="cls-1" d="M6.55,27.65s3.73-12.79,8.32-12.79,8.32,12.79,8.32,12.79Z"/><path class="cls-1" d="M6.55,27.48s0,.07.06.06l0-.08Z"/><path class="cls-1" d="M7,27.63c.09,0,.18-.11.13-.18-.08.08-.1,0-.19.14s-.12,0-.11-.06-.11,0-.15,0a.32.32,0,0,0,.33,0S7,27.62,7,27.63Z"/><path class="cls-1" d="M13.9,27.76h0Z"/><path class="cls-1" d="M18.16,27.81s-.05,0-.05,0S18.16,27.82,18.16,27.81Z"/><path class="cls-1" d="M18.88,27.9h0S18.87,27.91,18.88,27.9Z"/><path class="cls-1" d="M13.9,27.76l.11,0S14,27.77,13.9,27.76Z"/><path class="cls-1" d="M8,27.43l-.06,0H8Z"/><path class="cls-1" d="M12,27.83h0l0,0Z"/><path class="cls-1" d="M10.58,27.84s0-.06.06-.1a.1.1,0,0,1-.08.05S10.57,27.82,10.58,27.84Z"/><path class="cls-1" d="M8.29,27.72h0Z"/><path class="cls-1" d="M13.05,27.84s0,0,0,0A0,0,0,0,0,13.05,27.84Z"/><path class="cls-1" d="M7.38,26.16h0S7.37,26.17,7.38,26.16Z"/><polygon class="cls-1" points="6.53 27.64 6.54 27.62 6.5 27.6 6.53 27.64"/><path class="cls-1" d="M20.21,28h0S20.19,28,20.21,28Z"/><path class="cls-1" d="M19.9,19c0,.15-.18-.16-.13.06C19.78,19,20,19.16,19.9,19Z"/><path class="cls-1" d="M8,27.44H8Z"/><polygon class="cls-1" points="19.77 19.05 19.77 19.05 19.77 19.07 19.77 19.05"/><path class="cls-1" d="M23.55,27.8l0,0S23.54,27.82,23.55,27.8Z"/><path class="cls-1" d="M21,27.85h0Z"/><path class="cls-1" d="M23,26.37s0,0,0-.08h0A.08.08,0,0,1,23,26.37Z"/><polygon class="cls-1" points="22.59 25.2 22.59 25.23 22.6 25.26 22.59 25.2"/><path class="cls-1" d="M8.68,22.67l-.08,0C8.65,22.7,8.6,22.87,8.68,22.67Z"/><path class="cls-1" d="M8,27.47l0,0H8S8,27.47,8,27.47Z"/><path class="cls-1" d="M22.46,26.5l-.06-.19A1,1,0,0,0,22.46,26.5Z"/><path class="cls-1" d="M13.47,15.58l0,0A0,0,0,0,0,13.47,15.58Z"/><path class="cls-1" d="M22.2,25.77a.17.17,0,0,0,0-.12l0,0Z"/><path class="cls-1" d="M8.6,22.7Z"/><path class="cls-1" d="M8.26,24c.07-.17,0-.11-.08-.17.05-.22.1-.07.17-.12s0-.27,0-.37,0,0,0,0c0-.17.17-.41.15-.6h0a.17.17,0,0,1-.13,0c0-.07,0-.16.07-.17s0,.06,0,.09V22.5c.11,0,0,.12,0,.15a1.93,1.93,0,0,1,.13-.49c.09,0-.09.29,0,.16l-.11.17c.19-.08-.05.11.13,0,.13-.23.08-.29.21-.52,0-.07-.07,0-.09-.09.08-.37.32-.17.33-.47,0-.09-.1-.16,0-.32l.06.11c.12-.23-.06-.2.12-.41,0,.06-.06.2,0,.17s0-.14.07-.26h.09c.11-.24.19-.54.32-.82,0,0,0,.09.07,0a4.12,4.12,0,0,1,.63-1v-.15s.06,0,.05,0,0,0,0-.1.09-.07.08,0a2.28,2.28,0,0,1,.49-.85v.06c.14-.15,0-.28.18-.39v0a4.14,4.14,0,0,1,.87-.93c0-.12.34-.27.25-.4A2.45,2.45,0,0,0,13,16c.07-.05,0-.15.14-.23l0,.06.08-.16.12,0,.08-.07s-.1,0-.1,0,.38-.15.4-.11l.32-.21s-.05.07-.09.1c.16-.15.06.06.21-.07,0,0,0,0,0-.06s.29-.05.44-.06l0,.05a2.51,2.51,0,0,1,.86,0c-.1,0-.05-.13,0-.12l0,.09c.07,0-.09-.05.05-.08s0,.11,0,.12h.14s0,0,0,0,.19.17.3.12v0a4.57,4.57,0,0,1,.63.35c.05-.06.12,0,.22,0,.14.15.28.32.45.49s.08,0,.16,0,.14.22,0,.17c.21.2.26.26.54.51,0,0,0-.09,0-.09s.07.14,0,.15h0c.34.27.43.88.72,1.08h0l.25.25c.08.14-.1-.05-.07.07.29.26.31.51.52.74,0,.3.43.74.47,1.08l0,0c.08.05,0,.1,0,.16s0-.1,0-.07a11,11,0,0,1,.84,2c.1.25.28.05.31.4l-.11,0c.3.45.42,1,.69,1.48,0,0-.06,0-.08-.07,0,.13.15.39.2.37s0,0,0,.09.17.24.13.32,0,0,0,0,.11.32.15.23c0,.2.16.34.17.51s.08.33.19.33c-.11,0,0,.35.12.46s0,.11-.06.08c.05.13.11.25.16.21-.05.28.28.52.1.52.05,0,.12.14,0,.14l-.11,0-.29,0c0-.06.12-.06.22-.06s.09,0,.09-.07,0,0,0,0l-.12,0-.22,0a1.41,1.41,0,0,1-.47,0c-.09,0,.06,0,.09-.06-.37,0-.71,0-1,.05,0,0,0,0,.07,0s-.15,0-.14,0h.06c.1.07-.25.15-.27.19.11-.14-.32,0-.14-.22-.05,0-.1,0-.09.07s-.08,0,0-.07c-.23,0-.15.08-.35.08,0,0,0,0,.06-.06a.7.7,0,0,1-.38.07s0,0,0,0a3.89,3.89,0,0,1-.85.08c.1-.11-.11,0-.13-.13l-.17,0,.07,0c-.16,0-.29.07-.43,0l.12,0-.29,0,.16,0c-.16,0,0,.11-.19.09,0,0-.16,0-.24-.06h0a.44.44,0,0,1-.27,0s0-.1,0-.12-.37,0-.46.1a.07.07,0,0,0,0-.08l-.06.07c-.08,0-.09,0-.07-.07-.22,0,.06.11-.19.06l.05,0c-.26,0-.5,0-.74,0-.07-.1.21,0,.13-.1-.34,0-.71.11-1,.09h.06c0,.13-.24-.07-.41,0,0,0,0-.07,0-.05a3.67,3.67,0,0,0-.81.07l.05,0a4.21,4.21,0,0,0-.5,0s-.13,0-.08.08c-.44-.19-.85.1-1.24-.06.05,0,.11,0,.07,0l-.33,0c0,.06,0,0,.11.08a.34.34,0,0,1-.22.06c.15,0,0-.09-.06-.12s0,0,0,.06c-.18-.11,0,.11-.27,0v0a.81.81,0,0,1-.27.05c0-.07.1,0,.1-.09s-.26.13-.39.06a1.38,1.38,0,0,1,.2,0,.48.48,0,0,0-.25-.08h0l-.23,0,.06,0c-.17.18-.35,0-.58.15.23-.11,0-.06.06-.14s-.15,0-.12-.07-.18,0-.34,0c0,0-.11,0-.09-.06-.14,0,0,0,0,.07-.22.09-.51-.1-.82,0s-.32.13-.57.17c-.08,0,.07-.09.07-.09a.66.66,0,0,0-.37,0s0,0,0-.07-.07.09-.2.05a.3.3,0,0,1,.1-.09l-.37.09c0-.05.08-.07.12-.1-.14,0-.36,0-.41.11l.09,0s0,0,0-.07a.13.13,0,0,1,.18,0l-.09,0c.09.14.36,0,.54,0l-.08.11.19-.09s.06.08,0,.1c.13.05.12,0,.23,0s0,0,0,0l.13,0s0,.07-.06.06c.23.06.37-.08.45,0h0c.31,0,0-.07.26-.16l.16.19,0-.08s.1,0,.09,0,0,0,.05-.08.43,0,.46.08c.06,0-.15,0,0-.08.05.13.19,0,.33,0,0,.06-.18,0,0,.09.08-.11.27,0,.39,0s.27,0,.47-.07a4.57,4.57,0,0,0,.56.09h0c0-.09.23-.07.37-.09,0,.05,0,.08-.11.1H12a.23.23,0,0,1,.15-.06l0,.07a2.17,2.17,0,0,1,.58,0c0-.07-.18-.18.06-.22,0,0,0,.09,0,.1a.34.34,0,0,1,.11,0l-.09.06c.1,0,0,0,.13,0s.06,0,.05.07-.07,0-.1,0a.62.62,0,0,1,.24.07s0-.06.07-.07.06.06.16.09.16,0,.16-.08.06,0,.08.06.43,0,.32-.09h0a6.89,6.89,0,0,1,.91,0v0a3.6,3.6,0,0,0,.53-.07c.05,0,.12,0,.1.07a.64.64,0,0,1,.34,0c-.13,0,0,0-.14,0a.64.64,0,0,0,.41,0c-.07.06.13.08.21.06l-.12,0a1.13,1.13,0,0,1,.26,0l0,.08c.36.1.64-.17.92,0,.09-.06-.2,0-.11-.11a2.15,2.15,0,0,1,.39.13c.23,0,.21-.12.45-.09,0,0-.06-.11.12-.14s.2.13.1.15-.06,0-.06,0-.13,0-.06.05l0,0c.08,0,.31,0,.26.08.12,0,.05-.05,0-.07a4.93,4.93,0,0,0,.55,0s-.07-.05,0-.05c.32,0,.14-.05.36-.07s-.05.11.17.07,0,.08,0,.11a1,1,0,0,1,.48,0l-.1,0a.47.47,0,0,1,.16,0L19.8,28c.07,0,.12,0,.12,0s-.05-.1.07-.15.25,0,.28.05c-.26,0,0,.07-.19.09h.16s0,0,0,0c.25.07.12-.09.37-.09,0,.05.06.09.1.08s0-.08.05-.11.18,0,.26,0l-.09,0s.11,0,.23,0-.11,0-.07,0,.29.08.47,0,0,.08.08.1.21.06.42,0c-.06-.06-.07,0,.08-.1l-.34,0,.22-.09c-.11,0-.22,0-.28,0,.1-.05.09,0,0-.08.14.09.28-.05.45,0v.14c.26.07.38-.07.93,0l-.17,0c0-.06.28,0,.41,0s.19.08.16,0-.1-.37-.23-.44v-.19c-.09-.37-.23-.27-.3-.54.07.06.07-.06.16.08,0-.08,0-.15-.07-.14s-.14-.2-.12-.29-.08,0-.11-.11a0,0,0,0,1,0,0s-.07-.13-.1,0c.06-.29-.24-.67-.2-.92l-.22-.52s0,0,0,0c0-.23-.19-.08-.23-.34s.09.11.09,0-.13-.28-.11-.48l0,0c0-.15-.18-.28-.25-.49,0,0,0,0,0,0a1.88,1.88,0,0,1-.36-.54c.08,0,.07.08.11,0s-.08.07-.17-.1,0-.2,0-.24l.07.16c.05-.12-.09-.21-.11-.3h0c-.12-.24-.22-.21-.33-.48v0c-.15-.1,0-.14-.14-.26l.07-.08c-.06-.09-.24-.3-.33-.46a1.91,1.91,0,0,1,.33.36c0-.1-.15-.32-.22-.35a.19.19,0,0,1,.07.12,1,1,0,0,1-.31-.41c.18-.05-.2-.51-.14-.71-.22-.29-.31-.66-.53-1-.05.2-.06-.11-.18,0-.06-.08-.08-.12-.07-.13l-.08-.31c0-.08.08.07.11,0-.11-.19,0-.11,0-.26,0,.06-.11,0-.15-.14l0,.19c-.23-.22,0-.3-.27-.52l.1.06c-.12-.12-.32-.5-.52-.55,0,0,0-.09.06,0-.2-.33-.61-.61-.74-.88h.05c-.06-.05-.14-.05-.17-.14s.05,0,0,0a.62.62,0,0,1-.23-.19l.09,0c-.23-.31-.47-.35-.73-.53.07-.08-.12-.32-.24-.42h0a2.91,2.91,0,0,0-1.1-.48,2.26,2.26,0,0,0-1.3-.33c.07,0,0,.08-.08.1s-.26.11-.26,0h0c-.09-.08-.29,0-.45,0v.14c-.48-.05-.93.53-1.19.53-.06.09-.16.16-.21.25l0-.06a2.74,2.74,0,0,0-.55.5V16c-.13.14,0,.31-.13.44l-.11,0a2.62,2.62,0,0,0-.62.75s0,0,0-.09c-.11.12-.41.44-.26.47-.08,0-.2.27-.26.44l0-.06a.66.66,0,0,1-.08.37s-.07,0,0,0c-.12.11,0,.14-.14.28V18.4a.28.28,0,0,0-.07.24c0,.1-.18.26-.24.25a.24.24,0,0,1,0,.22s0,0,0-.06c-.18.22-.14.39-.29.53s0,0-.05,0l.19-.33s-.15.12-.16-.05a1.39,1.39,0,0,1-.16.55h0v0a.24.24,0,0,0,0,.1.5.5,0,0,0-.08.12c-.06,0-.12.17-.16.24s0,.13.1.06,0,0,0-.08,0,0,0,0h0l.1-.2a.25.25,0,0,1-.09.22l0,.16c-.14.07-.3.25-.36.25-.08.26-.26.58-.21.79s-.07.07-.1.08a.7.7,0,0,0,0-.12c0,.15-.18.42-.11.49-.12.16,0-.13-.13.11v0c-.35.42-.12.86-.51,1.32,0,0,0-.05,0-.05-.32.58-.42,1.28-.77,1.84-.08.16,0,.2,0,.32l-.08,0v.21c0,.27-.33.38-.32.74l.06,0c0,.11-.09.38-.14.34s0,.06,0,.09h0l0,.3c-.1.22-.14-.08-.25.25,0,.12,0,.38,0,.34s.06-.12.1-.11v.12c.1.05.19.17.35-.08v-.21l.07,0,0,.16c.08-.08,0-.15,0-.22A.16.16,0,0,0,7,27.17L7,27s.06.11.12,0S7,27,7,26.84s.11,0,.1-.15.05,0,.05.07c0-.11.06-.25,0-.32s.09-.32.19-.28a.86.86,0,0,1,0-.28c.07.2.12-.32.24-.23-.07-.16.1-.44.12-.66,0,0,0,0,0,.06a1,1,0,0,1,.14-.2c-.08-.05,0-.24-.06-.35.15-.11.08.12.18.11-.08,0,0-.27-.06-.25.1-.08.06-.08.16-.11-.11-.06,0-.1,0-.22.12-.13.13,0,.16-.18S8.26,24,8.26,24Zm1.61-4h0l0,.08ZM10,19.6l-.08.14s0,0,0-.06S10,19.64,10,19.6Zm-.8.46c0-.06,0-.07.06-.07l0,.09h0Z"/><polygon class="cls-1" points="9.28 20.19 9.27 20.22 9.3 20.19 9.29 20.16 9.28 20.19"/><polygon class="cls-1" points="13.85 27.75 13.85 27.75 13.84 27.74 13.85 27.75"/><polygon class="cls-1" points="13.17 15.82 13.16 15.81 13.15 15.84 13.17 15.82"/><path class="cls-1" d="M11.83,27.51l0,0Z"/><path class="cls-1" d="M11,27.49l-.12,0Z"/><path class="cls-1" d="M10.28,27.46a0,0,0,0,0,0,0h0Z"/><path class="cls-1" d="M21,27.38h0C21,27.36,21,27.37,21,27.38Z"/><path class="cls-1" d="M17.77,27.54l.11,0C17.82,27.5,17.78,27.5,17.77,27.54Z"/><polygon class="cls-1" points="22.46 26.52 22.46 26.52 22.45 26.5 22.46 26.52"/><path class="cls-1" d="M18,27.51a.22.22,0,0,0-.14,0Z"/><polygon class="cls-1" points="7.37 27.43 7.34 27.42 7.34 27.44 7.37 27.43"/><path class="cls-1" d="M7.34,27.44h0Z"/><path class="cls-1" d="M7.23,27.46l.07,0S7.24,27.44,7.23,27.46Z"/><path class="cls-1" d="M8.26,27.46v0S8.26,27.45,8.26,27.46Z"/><path class="cls-1" d="M8.53,27.45a1.45,1.45,0,0,0-.25,0v0S8.47,27.5,8.53,27.45Z"/><path class="cls-1" d="M9.66,27.77l-.23,0s.09.06,0,.07C9.71,27.9,9.36,27.76,9.66,27.77Z"/><path class="cls-1" d="M10.36,27.81c-.12,0,0,0,0,.05S10.45,27.83,10.36,27.81Z"/><path class="cls-1" d="M15.43,27.81v.06C15.51,27.86,15.42,27.85,15.43,27.81Z"/><polygon class="cls-1" points="16.4 27.48 16.3 27.44 16.26 27.5 16.4 27.48"/><polygon class="cls-1" points="16.97 27.93 16.93 27.94 17.08 27.92 16.97 27.93"/><path class="cls-1" d="M22.72,25.39l-.06.05S22.78,25.48,22.72,25.39Z"/><path class="cls-1" d="M21.29,22a.21.21,0,0,0-.06-.21A1.42,1.42,0,0,0,21.29,22Z"/><polygon class="cls-1" points="13.72 14.8 13.78 14.74 13.65 14.82 13.72 14.8"/><circle class="cls-1" cx="14.87" cy="9.14" r="6.11"/><path class="cls-1" d="M20.81,9.14s.07,0,.06-.05l-.08,0Z"/><path class="cls-1" d="M21,8.77c-.05-.07-.12-.13-.19-.09s0,.08.14.14,0,.1,0,.09,0,.08,0,.11a.2.2,0,0,0,0-.25S20.93,8.76,21,8.77Z"/><path class="cls-1" d="M18.48,4.07l0,0Z"/><path class="cls-1" d="M15.29,2.89h0S15.28,2.88,15.29,2.89Z"/><path class="cls-1" d="M14.69,2.79h0A0,0,0,0,0,14.69,2.79Z"/><path class="cls-1" d="M18.48,4.07,18.42,4S18.44,4,18.48,4.07Z"/><path class="cls-1" d="M20.66,8.06l0,0v0Z"/><path class="cls-1" d="M19.64,5.05l0,0h0Z"/><path class="cls-1" d="M20.33,6s-.08,0-.11,0a.1.1,0,0,1,.07,0S20.32,6,20.33,6Z"/><path class="cls-1" d="M20.89,7.76l0,0Z"/><path class="cls-1" d="M19.06,4.44a0,0,0,0,0,0,0S19.06,4.43,19.06,4.44Z"/><path class="cls-1" d="M20.51,10.38h0S20.51,10.37,20.51,10.38Z"/><polygon class="cls-1" points="21 9.14 21 9.16 21.04 9.16 21 9.14"/><path class="cls-1" d="M13.59,2.82h0S13.6,2.81,13.59,2.82Z"/><path class="cls-1" d="M8.62,10.49c0-.12.12.16.15,0C8.75,10.5,8.62,10.35,8.62,10.49Z"/><path class="cls-1" d="M20.67,8V8S20.66,8,20.67,8Z"/><polygon class="cls-1" points="8.77 10.47 8.77 10.47 8.77 10.46 8.77 10.47"/><path class="cls-1" d="M11.26,3.84h0Z"/><path class="cls-1" d="M13,3.11h0Z"/><path class="cls-1" d="M10.57,4.53s0,0-.06,0h0S10.54,4.55,10.57,4.53Z"/><polygon class="cls-1" points="9.89 5.28 9.91 5.27 9.93 5.25 9.89 5.28"/><path class="cls-1" d="M19.3,12.89h.08C19.33,12.88,19.41,12.77,19.3,12.89Z"/><path class="cls-1" d="M20.7,8.05s0,0,0,0v0Z"/><path class="cls-1" d="M10.92,5l-.12.09Z"/><path class="cls-1" d="M13.26,14.73h0Z"/><path class="cls-1" d="M10.52,5.38l-.09,0s0,0,0,0Z"/><path class="cls-1" d="M19.38,12.9Z"/><path class="cls-1" d="M19.8,12c-.07.12,0,.1.07.16s-.1,0-.17.05,0,.22-.05.28,0,0,0,0-.19.26-.2.42h0a.23.23,0,0,1,.11.07s0,.13-.1.11,0-.05,0-.08l0,.07c-.11,0,0-.09,0-.13-.07.11-.12.28-.2.34s.13-.2,0-.15l.13-.09c-.18,0,.06-.07-.11-.08s-.12.2-.28.32c0,.06.06,0,.06.1-.16.26-.31,0-.39.22s0,.18-.12.22v-.1c-.16.11,0,.17-.21.25,0-.06.1-.12.07-.11s0,.1-.12.16L18.11,14c-.17.11-.33.3-.53.41,0,0,0-.06,0-.06a2,2,0,0,1-.85.29l-.07.1s-.06,0,0,0,0,0,0,.08-.09,0-.06-.05a1.08,1.08,0,0,1-.72.21l0,0c-.16,0-.16.17-.32.13l0,0a2.28,2.28,0,0,1-1-.06c-.06.11-.33-.06-.37.08a1.29,1.29,0,0,0-.39-.21c-.07,0-.13.06-.22.06l0-.08-.14.05,0-.11H13.3s.06,0,0,.07-.3-.13-.29-.18l-.32,0s.07,0,.12,0c-.19,0,0-.08-.17-.07,0,0,0,0,0,0a.73.73,0,0,0-.33-.18l0,0c-.2-.1-.44-.21-.66-.34.07.07,0,.13-.07.1l0-.09c-.07,0,0,.07-.07.07s0-.12.05-.1l-.11,0s0,0,.06,0-.11-.19-.22-.16v0c-.21-.15-.3-.23-.47-.36-.05,0-.1,0-.19,0a2.78,2.78,0,0,0-.29-.44c-.12-.08-.08,0-.15,0s-.07-.2,0-.15c-.14-.18-.2-.21-.39-.43,0,0,0,.07,0,.07s0-.12,0-.13h0c-.27-.23-.19-.74-.41-.92v0l-.15-.23c0-.12.07.05.07-.05-.21-.23-.11-.43-.24-.64.15-.22-.14-.64,0-.9l0,0c0-.06,0-.08,0-.13s0,.07-.06,0a3.67,3.67,0,0,1,.25-1.63c.07-.18-.19-.17,0-.38l.06.09a4.69,4.69,0,0,1,.4-1.16s0,0,0,.07.17-.26.12-.29,0,0,.09,0,0-.22.12-.23,0,0,0,0,.16-.2.07-.2c.12-.1.14-.25.26-.32s.2-.16.13-.25c.08.08.24-.14.28-.24s.09,0,.09,0,.14-.15.09-.18c.22,0,.24-.34.44-.27a3.54,3.54,0,0,1,.7-.6c0,.1-.28.17-.21.27a1.72,1.72,0,0,1,.58-.43c.07,0,0,.06,0,.09.23-.15.5-.19.71-.32,0,0,0,0,0,.05s.11,0,.09-.06l0,0c-.1,0,.15-.2.15-.24,0,.17.25,0,.16.19,0,0,.06-.05.05-.08s.07,0,0,.06c.16-.07.09-.1.25-.13,0,0,0,0,0,.07a.39.39,0,0,1,.28-.12s0,0,0,0a1.7,1.7,0,0,1,.64-.13c-.07.11.09,0,.1.12l.14,0-.06,0c.12,0,.23-.05.33,0l-.09,0h.23l-.13,0c.13,0,0-.12.16-.08,0,0,.12,0,.17.07h0a.33.33,0,0,1,.22,0s0,.1,0,.13.28,0,.37,0,0,.06,0,.07l.06,0c.05,0,.06,0,0,.08.16.06,0-.12.16,0H16.3a3,3,0,0,1,.55.15c0,.11-.15,0-.12.07a2.84,2.84,0,0,1,.77.22l0,0c.09-.1.15.14.29.14,0,0-.07,0-.06,0a2.83,2.83,0,0,0,.57.26h0a2.33,2.33,0,0,0,.28.26c.05,0,.1,0,.1,0,.14.36.58.35.66.7,0,0-.08,0-.06,0l.2.17c0-.06,0,0,0-.12a.24.24,0,0,1,.16.09c-.11-.06-.06.06-.06.12s0,0,0,0c0,.17.11-.06.17.14h0a.52.52,0,0,1,.16.14c0,.06-.07,0-.11,0s.23.09.22.21a1.31,1.31,0,0,0-.12-.11.38.38,0,0,0,.05.21h0l.06.17V6c.22,0,.18.21.35.32-.17-.11-.06,0-.14,0s0,.13,0,.12,0,.14.15.21,0,.08,0,.09,0,0,.06,0,.05.41.24.59.19.2.28.39-.1,0-.1,0a.42.42,0,0,0,.07.27s0,0-.07,0,.1,0,.08.15-.08,0-.11-.07.1.18.13.27-.07,0-.1-.08.08.27.14.3l0-.07s-.05,0-.07,0a.1.1,0,0,1,0-.15l0,.07c.13-.09-.07-.28-.08-.42l.11,0-.11-.12s.08-.07.1,0c0-.11-.05-.08,0-.17s0,0,0,0l-.06-.1s.07,0,.07,0c0-.19-.15-.26-.09-.35v0c-.1-.23-.07,0-.22-.15L20.73,7h-.08s0-.08,0-.08,0,0-.09,0-.16-.3-.07-.37c-.07,0,0,.12-.08,0,.1-.09-.09-.13-.08-.26s.09.12.09,0-.07-.22-.15-.29-.14-.16-.25-.28-.13-.28-.2-.42h0c-.1,0-.17-.1-.26-.17a.1.1,0,0,1,.13,0l-.07-.08s-.07,0-.13-.06l.07,0c-.1-.1-.25-.16-.35-.32-.05,0,0,.22-.18.13,0,0,.05-.08.1-.06s-.07,0-.08-.05h.1c-.05-.07-.07,0-.11,0s0-.06,0-.08,0,0,.06.06a.39.39,0,0,1-.1-.19s0,0-.09,0,0-.07,0-.15-.1-.08-.14,0,0-.06,0-.09-.29-.2-.27-.08h0c-.22-.09-.39-.31-.61-.41v0a1.43,1.43,0,0,0-.4-.13s-.07-.08-.05-.1a.66.66,0,0,1-.26-.11c.12,0,0-.05.12,0a.4.4,0,0,0-.31-.1c.07,0-.07-.12-.14-.12l.08.08a.93.93,0,0,1-.2-.08l.06-.07c-.27-.17-.56,0-.74-.18-.09,0,.15.07.07.12s-.25-.17-.3-.17-.18.09-.37,0c0,0,0,.11-.11.13s-.16-.13-.07-.15.05,0,.05,0,.1,0,.05-.06l0,0c-.07,0-.25,0-.21-.09s0,.05,0,.07a2.22,2.22,0,0,0-.45,0s.06,0,0,0c-.27,0-.12.06-.29.09s0-.11-.15-.07,0-.07,0-.1a.89.89,0,0,1-.4,0l.08,0a.37.37,0,0,1-.14,0l.06.05s-.09,0-.1,0,.06.09,0,.16-.2.06-.24,0c.22,0,0-.08.14-.12a.25.25,0,0,1-.13,0s0,0,0,0c-.22,0-.08.11-.28.16,0,0-.07-.07-.1,0s.06.06,0,.11-.13.06-.2.07h.08c0,.05-.08.06-.16.11s.07-.05,0-.06-.24,0-.36.11,0-.08-.1-.08-.19,0-.33.13c.07,0,.07,0,0,.12l.23-.16-.12.16c.07,0,.14-.11.19-.12s0,.06,0,.09c-.14,0-.18.14-.33.15l-.06-.14c-.22,0-.29.23-.53.34l.09,0c0,.07-.13.09-.19.15s-.08,0-.13,0-.15.12-.12.21l-.13,0c-.19.11-.11.25-.26.37,0-.08-.09,0,0-.16,0,0-.1.08-.08.1s-.09.18-.17.19,0,.07,0,.12,0,0,0,0-.05.11,0,.1c-.25,0-.39.42-.59.49l-.24.39s0,0,0,0c-.14.13.06.17-.1.32s0-.11,0-.07-.11.22-.26.3v0c-.1.07-.06.27-.15.42h0A2.09,2.09,0,0,1,9,7.09C9,7,9,7,9,7s.1,0,.07.16-.12.13-.19.13a.58.58,0,0,1,.05-.14c-.12,0-.06.18-.09.25l0,0c0,.22.05.25,0,.48l0,0c.07.14-.07.09,0,.23l-.1,0c0,.09,0,.31.05.46a1,1,0,0,1-.1-.39.65.65,0,0,0,0,.34s0-.08,0-.11a.75.75,0,0,1,.08.41c-.19,0-.07.43-.2.56.07.3,0,.6.08,1,.13-.15,0,.1.17,0s0,.1,0,.11l0,.26c0,.07-.05-.06-.08-.05,0,.18-.05.09-.05.22,0,0,.09,0,.09.14l0-.16c.14.22-.05.25.11.47l-.08-.06c.07.11.17.46.34.52,0,0,0,.07-.06,0,.11.3.43.55.5.79h0c0,.05.11.05.13.13s0,0,0,0a.36.36,0,0,1,.17.16l-.07,0c.14.28.36.31.55.47-.08.07,0,.28.12.37h0a2.78,2.78,0,0,0,.8.49c.08.23.54.43.8.63,0,0,0-.07.1-.05s.22,0,.17.1h0c0,.11.16.17.28.21l.06-.12c.24.31.82.19.94.4a2.28,2.28,0,0,0,.26,0l0,.07a3.19,3.19,0,0,0,.59.09l-.06,0c.15,0,.21-.19.34-.19l0,.11a1.58,1.58,0,0,0,.78,0,0,0,0,0,1-.05,0c.12,0,.48,0,.42-.12,0,.1.27,0,.39-.09v.07c.09-.12.09-.14.24-.2s.05,0,0,0c.13,0,.08-.09.24-.1l0,.06c.13,0,.12,0,.17-.12s.24-.07.28,0a.18.18,0,0,1,.14-.12s0,0,0,.05c.23,0,.27-.2.44-.2a0,0,0,0,0,0,0l-.28.13c0,.05.16,0,.09.13.09-.09.22-.27.36-.31h0v0a.18.18,0,0,0,.07,0l.11,0s.16-.07.22-.1.05-.1-.06-.1,0,0,0,0l0,0h0l-.15.1c0-.06.07-.12.16-.12a1.25,1.25,0,0,0,0-.15c.14,0,.33,0,.38,0,.15-.17.41-.33.42-.53,0,0,.07,0,.1,0s-.05.06-.05.09.26-.26.22-.34c.14-.08,0,.12.14,0v0c.41-.21.28-.65.7-.91l-.06,0a9.66,9.66,0,0,0,.79-1.4c.07-.13,0-.17,0-.27h.08l0-.17c0-.23.29-.32.21-.62l-.06,0c0-.09,0-.31.08-.29s0,0,0-.07h0a2.17,2.17,0,0,0,0-.25c0-.19.15,0,.17-.24,0-.1-.1-.3-.12-.26s0,.11-.07.11l0-.09c-.12,0-.23-.09-.32.13l.06.15-.06.05V9.36c-.05.07,0,.12,0,.17a.09.09,0,0,0-.06.06l.1.16s-.08-.08-.12,0,.11-.06.13.06-.11,0-.07.13-.05,0-.06-.05,0,.2,0,.25,0,.25-.14.22a.36.36,0,0,1,0,.22c-.09-.16-.07.25-.2.18.1.12-.06.33-.05.51,0,0,0,0,0,0s-.08.09-.12.14,0,.19.06.29-.07-.12-.17-.12c.08,0,0,.21.06.21-.09.05-.06.05-.15.05.1.07,0,.09,0,.18-.12.08-.12,0-.16.11S19.8,12,19.8,12ZM17.59,14.4h0l.06,0Zm-.25.12.11,0s0,0,0,0S17.38,14.52,17.34,14.52Zm.77.14s-.06,0-.07,0l.07,0h0Z"/><path class="cls-1" d="M18.14,14.54h0v0Z"/><polygon class="cls-1" points="18.5 4.11 18.5 4.1 18.5 4.12 18.5 4.11"/><polygon class="cls-1" points="13.57 14.77 13.57 14.79 13.59 14.78 13.57 14.77"/><path class="cls-1" d="M19.5,5.37s0,0,0,0Z"/><path class="cls-1" d="M19.88,5.93l0,.09A.46.46,0,0,0,19.88,5.93Z"/><path class="cls-1" d="M20.11,6.39h0Z"/><path class="cls-1" d="M13.17,3.56h0S13.14,3.57,13.17,3.56Z"/><path class="cls-1" d="M15.56,3.18l-.08,0S15.56,3.22,15.56,3.18Z"/><polygon class="cls-1" points="10.93 4.96 10.93 4.95 10.92 4.96 10.93 4.96"/><path class="cls-1" d="M15.37,3.19a.14.14,0,0,0,.11,0Z"/><polygon class="cls-1" points="20.73 8.51 20.73 8.54 20.74 8.54 20.73 8.51"/><path class="cls-1" d="M20.74,8.54v0S20.75,8.54,20.74,8.54Z"/><path class="cls-1" d="M20.77,8.62l0,0S20.75,8.61,20.77,8.62Z"/><path class="cls-1" d="M20.64,7.84h0Z"/><path class="cls-1" d="M20.59,7.64c0,.05,0,.13,0,.19h0C20.57,7.81,20.64,7.67,20.59,7.64Z"/><path class="cls-1" d="M20.6,6.7l0,.18s0-.1.07,0C20.71,6.61,20.68,6.93,20.6,6.7Z"/><path class="cls-1" d="M20.39,6.17c.06.08,0,0,.05,0S20.38,6.09,20.39,6.17Z"/><path class="cls-1" d="M17.43,3.42l0-.06C17.39,3.34,17.45,3.39,17.43,3.42Z"/><path class="cls-1" d="M16.59,3.46l.06.06.05,0Z"/><polygon class="cls-1" points="16.27 2.9 16.3 2.9 16.17 2.89 16.27 2.9"/><path class="cls-1" d="M10,5.1l.07,0S10,5,10,5.1Z"/><path class="cls-1" d="M8.72,7.82A.12.12,0,0,0,8.67,8C8.68,7.92,8.72,7.86,8.72,7.82Z"/><polygon class="cls-1" points="12.65 15.16 12.59 15.16 12.7 15.18 12.65 15.16"/></svg>