<svg id="Capa_1" data-name="Capa 1" xmlns="http://www.w3.org/2000/svg" viewBox="0 0 377.21 152.38"><defs><style>.cls-1{fill:#f0d44f;}.cls-2{font-size:21px;fill:#536472;font-family:PatrickHand-Regular, Patrick Hand;}</style></defs><path class="cls-1" d="M55.36,16.48c-15-3.34-30.34,10.07-37.23,28.6s-6.46,40.85-2.08,60.75c1.83,8.33,4.54,16.8,9.67,22,5.71,5.77,13.28,6.4,20.39,6.78q116.18,6.15,232.47.92c15.85-.71,32-1.65,46.91-9a64,64,0,0,0,33.42-42.95c5.59-24.19-3.6-53-20.38-64-9.7-6.34-20.8-6.95-31.55-7.44L138.36,4.29C111.09,3,82.94,2,57.51,15.44"/><path class="cls-1" d="M61.37,20.77c-1.09.43-.19,1.23-.25,1.49C62.73,21.19,61.2,20.53,61.37,20.77Z"/><polygon class="cls-1" points="78.74 11.49 78.52 12.01 81.11 10.24 78.74 11.49"/><path class="cls-1" d="M97.22,8.34c-1-.85-2.69-.58-4.56-.15a21.4,21.4,0,0,1-5.58,1.14L86.46,9l-1.2,1.79C89.14,9.72,94.3,8.11,97.22,8.34Z"/><path class="cls-1" d="M107.44,11.81c-.63-.71,2.12-.74-2.31-.12a2.74,2.74,0,0,1,.42.17C106,11.83,106.5,11.8,107.44,11.81Z"/><path class="cls-1" d="M105.55,11.86c-2,.14,1.31.56,0,0Z"/><path class="cls-1" d="M114.63,11.23c-.86.22-1.74.42-2.6.67.55.41,2.87.53,2,.84C116.7,12.38,116.16,11.94,114.63,11.23Z"/><path class="cls-1" d="M117.12,9.84l-1.36.28C116,10.3,116.36,10.36,117.12,9.84Z"/><path class="cls-1" d="M112.88,10.71l2.88-.59c-.38-.31-.42-.93-1.32.21C114.67,9.77,114.1,10.31,112.88,10.71Z"/><path class="cls-1" d="M111.26,10.45c-1.47-.39-3.38-.61-.77-1.32-2.51.17-3.55.62-3.35.95S108.77,10.63,111.26,10.45Z"/><path class="cls-1" d="M98,6.29c-.68-.14-1.36-.24-2-.35l-1.64.82C95.15,6.35,98.18,6.85,98,6.29Z"/><path class="cls-1" d="M131,12.58c.19-.39-.85-1.11-1-1.63l-2,.38C129,11.65,130.91,12,131,12.58Z"/><path class="cls-1" d="M130,11l3-.58C130.34,10.18,129.85,10.49,130,11Z"/><path class="cls-1" d="M117.61,7.73l-4.8,1.45c1.9-.48,3.81-1,5.73-1.46Z"/><polygon class="cls-1" points="142.32 13.14 140.59 14 143.66 12.72 142.32 13.14"/><path class="cls-1" d="M149.85,13.32c-1.28.72,1.65,1.39.31,1.81A17.93,17.93,0,0,0,155.58,14,12,12,0,0,1,149.85,13.32Z"/><path class="cls-1" d="M158.26,13.22a21.19,21.19,0,0,0-2.68.75A10,10,0,0,0,158.26,13.22Z"/><path class="cls-1" d="M138,10.79a3.32,3.32,0,0,0,2.28,1.27l-1.11-1.19Z"/><path class="cls-1" d="M139.13,10.83l0,0,2.52.18Z"/><path class="cls-1" d="M137.7,10.78h.3C137.89,10.68,137.83,10.64,137.7,10.78Z"/><path class="cls-1" d="M125.28,8.92c1.75-.59,5.39-1.14,1.93-2.23C125.94,7.43,127.92,8,125.28,8.92Z"/><path class="cls-1" d="M136.32,9.29l-3.13-.4c.05.3.6.76-.28,1Z"/><polygon class="cls-1" points="137.88 9 136.32 9.29 137.49 9.44 137.88 9"/><path class="cls-1" d="M152.91,11.91a15.38,15.38,0,0,1,4.56-.41,45.79,45.79,0,0,0-5.42-.59C151.78,11.26,151,11.86,152.91,11.91Z"/><path class="cls-1" d="M146.22,11.28l.3,0C146.34,11.13,146.19,11.09,146.22,11.28Z"/><path class="cls-1" d="M174.05,12.28l-.26-.22a1.46,1.46,0,0,1-.07.19Z"/><path class="cls-1" d="M151.75,10.68a4.6,4.6,0,0,0-3,.28,31.59,31.59,0,0,1,3.26-.05C152.17,10.75,152.19,10.65,151.75,10.68Z"/><path class="cls-1" d="M162.91,12.91c-.69-.27-1.49-.51-2.32-.74C161.26,12.56,162.65,13.19,162.91,12.91Z"/><path class="cls-1" d="M147,11.57l-.2,0C147.19,11.87,147.14,11.75,147,11.57Z"/><path class="cls-1" d="M147,11.57a9.35,9.35,0,0,0,1.83-.61,17.69,17.69,0,0,0-2.27.27A1.91,1.91,0,0,1,147,11.57Z"/><path class="cls-1" d="M179.41,5.2c-.29,1-3.9,1.86-6.93.58-3.06.65-1.24,4.22,1.31,6.28.12-.46.14-.88,3.29-1.36-1.07-.63-6.86-1.67-4.19-2.5,4.16-.35,3.37.53,5.35,1.18-1.64-1.4,5.35-1.67,4.54-3.65l-3.66.52C179.07,5.94,180.4,5.52,179.41,5.2Z"/><path class="cls-1" d="M167.86,11.68l-1.29.07a15.53,15.53,0,0,1,4.37,1.63c2.16-.41,2.62-.78,2.78-1.13l-6.31-.44Z"/><path class="cls-1" d="M160.81,11.49c1.05-1.11,4.16-1.45,2.33-2.78-3.77-.1-2.68.84-5,1.23,6.09,0-1.77.56,2.59,1.41a27.6,27.6,0,0,1-3.3.15c1.09.19,2.14.41,3.12.67l-.14-.08h0v0c-.25-.16-.33-.25,0-.15l.12,0a1.09,1.09,0,0,1,.3-.42c1.75.32.26.31-.3.42,0,.06-.07.11-.08.17h0l6.12-.34A36.55,36.55,0,0,0,160.81,11.49Z"/><path class="cls-1" d="M130.54,4.34a.29.29,0,0,1,.18.28C131.12,4.49,131.27,4.4,130.54,4.34Z"/><path class="cls-1" d="M133,5.13a3.4,3.4,0,0,1-2.27.42c-1.23-.4,0-.55,0-.93-.88.27-3.06.7-.37,1.36l.44-.13c2.42.48,5.5,2.06,5.07,2.2A8.61,8.61,0,0,0,133,5.13Z"/><path class="cls-1" d="M147.1,8l5.09-.33-2.53-1.11.1.6C146.89,6.82,147.48,7.58,147.1,8Z"/><polygon class="cls-1" points="174.6 12.87 173.88 14.05 176.88 12.48 174.6 12.87"/><polygon class="cls-1" points="181.2 13.03 180.9 14.08 182.67 13.52 181.2 13.03"/><path class="cls-1" d="M240.41,143.23l-1.49.35A9,9,0,0,0,240.41,143.23Z"/><path class="cls-1" d="M251.22,143l.25-.52C251,142.75,250.78,143,251.22,143Z"/><path class="cls-1" d="M337.13,26.73c.73,2,1,4.29,1.69,3.33.15-.4.29-.78.43-1.18A6.9,6.9,0,0,1,337.13,26.73Z"/><path class="cls-1" d="M336.35,119.88l.72-.13c.15-.66.3-1.26.41-1.8C337.15,118.53,336.78,119.2,336.35,119.88Z"/><path class="cls-1" d="M338,124.62c-1,.44-1.94.84-2.94,1.2A12.25,12.25,0,0,0,338,124.62Z"/><path class="cls-1" d="M181.32,145.43l-1.74,1.19C182.31,146.6,181.11,146,181.32,145.43Z"/><path class="cls-1" d="M248.67,15.72a24.13,24.13,0,0,0,4.64.92C251.08,15.87,249.31,14.79,248.67,15.72Z"/><path class="cls-1" d="M244.29,130.84c-.91.23-1.29.48-1.25.74C244,131.35,244.49,131.12,244.29,130.84Z"/><path class="cls-1" d="M258.71,16.88c-.32-.13-.64-.2-1-.32a22.84,22.84,0,0,1-4.42.08A7.74,7.74,0,0,0,258.71,16.88Z"/><path class="cls-1" d="M6.3,73.7c.06-.16.09-.36.16-.5C6.31,73.14,6.29,73.37,6.3,73.7Z"/><path class="cls-1" d="M40.51,24.06c-.4.35-1.14.72-1.78,1.22A10.18,10.18,0,0,0,40.51,24.06Z"/><path class="cls-1" d="M207.67,14.76c-1.4,0-.23.12,0,0Z"/><path class="cls-1" d="M201.09,9.88c.3-.12.54-.27.58-.54A1,1,0,0,1,201.09,9.88Z"/><path class="cls-1" d="M273,10.33h.12C272.67,10.1,272.74,10.14,273,10.33Z"/><path class="cls-1" d="M205.59,14.14a14,14,0,0,0,1.77.42A13.27,13.27,0,0,0,205.59,14.14Z"/><path class="cls-1" d="M205.85,14.7l-1.21-.17C204.45,14.71,204.6,14.84,205.85,14.7Z"/><path class="cls-1" d="M209.62,14.79a16,16,0,0,1-2.26-.23c.28.1.39.17.31.2Z"/><path class="cls-1" d="M82,139.71l-.3-.12C80.22,140,80.85,140,82,139.71Z"/><path class="cls-1" d="M364,51.62a.83.83,0,0,0-.09-.16,1.85,1.85,0,0,1,0,.23Z"/><path class="cls-1" d="M365.83,56.78a7,7,0,0,1-1.92-5.09c-1,.82-1.93,1.62-2.9,2.39C362.69,54.9,364.23,55.81,365.83,56.78Z"/><path class="cls-1" d="M214.51,144.17l3.55,1c-4.23,1.78-7.34,1.24-4,2.65.22-1.82,3.66-2,7.09-2.12s6.87-.35,7.08-2.16l2.34.7c-.66,0-.77.2-1.43.18,4.58,1.62,3.31-2.68,9.15-2.34,2,.22,3.48.7,2.11,1.17l4.5-1c1.32,0,1,.67-.3.64l6.91-.5-.05.11a33.55,33.55,0,0,1,4.25-2c1.77.46-.87.42-.4.85l3.79-1c1.59.88-1.54,1.91-4.19,1.87,3.7,3.48,3.14-1,10.93.8l-3.59.59c2.41,2,5.2,1.11,9.34,2.22-1-.63-8.31-2.88-4.19-4a8.73,8.73,0,0,0,4.94-.53c.07,1.29,2.25.88,5,.69l-.11,1.71c2.94-.61,2.68-1.48,4.38-2.32,3.34,0,4.11,1.28,5,2.34,5.42-.06-3.85-1.88,2.51-2.6,4.53.32,7.71-.63,13-2.42,3.26.11-.4,1.12.81,1.43.88-.58,1.75-1.21,2.61-1.82.7-.08.55.37.47.59,2.28-1-.1-1.69,3.48-2.91.29-1.05,2.29-.75,4.79-.79s5.48-.37,7.32-2.2c1.27,0-.14,1.19.42,1.66,1.42-.95,2.42-1.61,3.19-2.16s1.3-1,1.81-1.38a17.17,17.17,0,0,0,1.52-1.42c.56-.61,1.28-1.28,2.16-2.39l2.24-.69c.73-.25,1.46-.53,2.2-.8-1.75.41-1.92-.32-1.41-1.51a44.65,44.65,0,0,1,2.69-4.43c-1.28.19-2.35.32-3,.49l1.91-2,1.8-2.11c.69-.21.66.58.42,1.71a10.43,10.43,0,0,0,.51-1c1-.41,1.39-.3,1.56.17a3.82,3.82,0,0,1-.23,2.07c-.76.2-1.52.37-2.25.53-.43,1.68-.86,3.39,0,4a6.73,6.73,0,0,1,1.27-1.54c-.13.45-.17.8.07.83s.54-.66,1-1.63c.75.2,1.5.39,2.27.57l-.24-.79c1.13-.7,2.2-1.48,3.31-2.24s2.13-1.63,3.2-2.45c.58-1.41,1.09-2.78,1.54-4.2s.86-2.85,1.26-4.38.91-3.06,1.42-4.76,1.14-3.47,1.93-5.42c.29,2.49,1.83,1.44,3.26,2.27a3.81,3.81,0,0,0-1.57,1.61c-.39.73-.71,1.6-1.09,2.53a32,32,0,0,1-1.2,3,14,14,0,0,1-1.81,2.9c1.54-1.87,1.88-1,1.75-.32.57-1.32,1.17-2.59,1.64-3.93s1-2.63,1.38-4c.55.41,1,.14,1.46-.45.24-.29.5-.65.79-1.06a13.14,13.14,0,0,1,.92-1.3c-1.57.17-1.28-1.41-.64-3.45.29-1,.69-2.19,1-3.29a17.59,17.59,0,0,0,.6-3c.46,0,.85.3.94,1a7.78,7.78,0,0,1-1,3.86,4.88,4.88,0,0,0,1-1.3,4.05,4.05,0,0,0,.37-1.3,7.58,7.58,0,0,0-.23-2.47c-.36-1.62-.86-3.17.49-5.09-.19,1-.48,1.44-.13,1.93a16.46,16.46,0,0,1,.71-4.62,7.63,7.63,0,0,1,.69-1.71c.21-.35.4-.43.55-.07,0,.33-.1.65-.16,1a22.55,22.55,0,0,0,.48-2.73c.13-1,.26-2.07.37-3.17s.07-2.24.08-3.37c0-.57,0-1.13,0-1.69s-.1-1.1-.14-1.64c-.1-1.07-.22-2.1-.37-3a22.24,22.24,0,0,0-.64-2.51c-.47-1.45-1-2.4-1.59-2.56a9.58,9.58,0,0,1,3.29.88c-.69-.92-1.49-1.8-2.26-2.67s-1.54-1.71-2.31-2.52c-1.64-1.62-3.23-3.15-4.91-4.56,1.07.22,2.48-.84,3.92-1.41a3.07,3.07,0,0,1,2.16-.2,3.43,3.43,0,0,1,1.94,2.16A13.54,13.54,0,0,0,362,44.83c.06,1.14-2,3.36-2.52,2a15.42,15.42,0,0,0,.41-2.4,9.76,9.76,0,0,0,0-1.39c-.07-.85-.07-1.81-.25-4.46.26,1.65-3.28,1.16-4.15-1.1.57.17,2.64-1.48,3.3-.75-.85-.79-1.85-1.49-2.76-2.2s-1.8-1.41-2.81-2c1.28,1.05,2.36-1,2.3-2.72-.08.45-.79-.77-1.68-2.24a28.25,28.25,0,0,0-2.8-3.72c.41.88.76,1.78,1.13,2.65a14.44,14.44,0,0,0-1.5-1.93,9.44,9.44,0,0,0-1.59-1.18,10.16,10.16,0,0,0-3-1.15,14.67,14.67,0,0,1-6.69-2.8,3.05,3.05,0,0,0,2-1.24,1.75,1.75,0,0,0,.29-1.38,3,3,0,0,0-1.24-1.72c-1.15.18-3.74.75-6.57,1.46A35,35,0,0,1,325.31,18l-.82-1.11c-1.47,0-2.93.09-4.38.21a29.88,29.88,0,0,1,7.58-3.2,27.84,27.84,0,0,1,9.65-1,7.07,7.07,0,0,1-1.49-1.55c-.28-.32-.77-.61-2.81-1.36-1.18-1.29,2.69-.36,3.91.23a51.59,51.59,0,0,0-9.57-3.81c0,.91-1.95.91-3.84,1s-3.72.24-3.64,1a60.35,60.35,0,0,1,10.6.33c-.05.93-1.92,1.65-4.42,2.1a27.35,27.35,0,0,1-8.78.2c-.77-.43-.39-1.2.18-1.93s1.35-1.41,1.32-1.71c-.95.46-6.25.61-6.79.17.92-.27,1.85-.53,2.79-.77-3.57-1-5.93,2-10,.11-1.43-.18-4.17-2.5-4.46-1.45,2.24,2.15,2.4,8.49.77,10-.49-.16-7.42-2.3-9-3.38-2.29-1.71,3.71-3.66,1.77-5.12-.11.48-1.44,1-2,1.19-1.49-.48.69-1.48-2.59-1.41-.63,1.79-6.63-.46-1.61,1.46-3.22.37-3.38-.53-7.14-.62,1.14,1.22-3.55,3.83-6.78,4.2.21-.45-.48-1.09-.81-1.38-6.55-.46-10-1.45-16.13-1.75-.55-.46-3.47-1.13-2.18-1.85a8.45,8.45,0,0,1-3.61.81c-3.58-1.74,4.21,0,1.52-2.06-.29,1-4.94,1.23-7.66,1.76.75,1.67,6.19.6,8.91.07-.1,2.24-4.88,4.38-11.32,5.13-5.1.32-2.13-1.56-3-1.28-9.52-.83-8.31,3.55-16.15,1.56-3.07-1.57,0-2.85-.65-3.92,4.15-.35,6.3,1.2,9.1,1.28l-3.41-.84A11.7,11.7,0,0,1,234,9.08c-2.57-1.41-16.09-1-23.39-2.52C209.23,7,207,7.37,208,8l2.33-.1c2.09,1.26-4.45,1.4-1.53,2.07-3.16.67-6.72,1.78-11.08.93L197,9.23c.07.48,2.83,1.1,4.08.66-1.86.64-6.63-2.52-8.74-.47l3,1.27c-3.17.67-7.12,2.23-11,1.53,1.69,1.7.9-.14,3.58,1.88-2.29-2.46,10,.55,6.22-2.09,2.74,2.32,4.87,1.16,8.5,3.19-.09-.54-1.27-1.09,2-.67a3.45,3.45,0,0,1,.73-.44l.22.05-.17-.07c.14-.08.16-.09-.07,0a3.91,3.91,0,0,1-1.63-.89c1.68-1.17,6.88-.89,8.67-1.45,1.92.35-.84.58.19,1.21l2.67-.84c.2,1.21,5.06,2.23.46,2.72l4.11.24a18.08,18.08,0,0,0,7.79.8c1.92.34,5-1.1,3.22-.24l6.49-.45,0,.3c6.36.45,13.2-1.37,20.37,1.12a29.65,29.65,0,0,1,8,0l.65,1.07c2.77-.24,8.22,1.41,9.45.39,2.84,2.92,13.32,1.22,18.14,1.94l.24-1.34a69.1,69.1,0,0,0,10.7-.36l-.2-1.2c3.63-.8,9.09,1.18,14.23,1.75-.41.4-1.71.13-2.62-.25,3,1.66,6.12,1.67,9.22,1.88s6.15.75,7.94,2.88A3.66,3.66,0,0,1,336,25a1,1,0,0,0-.29-.14,4.24,4.24,0,0,0,.41.32c.32.5.63,1,1,1.52a6,6,0,0,0-.77-1.36c.39.28.91.6,1.5.94s1.17.83,1.82,1.23l-.43,1.34c.1.06.16.13.27.19.62,1.38,1.23.47,1.4-.81a8.77,8.77,0,0,0,1.93,1,1.49,1.49,0,0,0,.18,1.4,5.8,5.8,0,0,0,1,1.17c.76.78,1.61,1.6,1.1,3a3.53,3.53,0,0,1,1.41,1.1c.28.3.59.64.9,1l.89,1.19a19.87,19.87,0,0,0,1.89,2.17,2.61,2.61,0,0,0,1.83,1c-.25.17-.18.68-.56-.14.25.91.51,1.79.83,2.63a6.78,6.78,0,0,0,1.25,2.32l-1.29,1.26c1.15,1,2.15,2.11,3.25,3.23a4.88,4.88,0,0,1-.71,2.61c-.37.35-.88.09-1.75-.91A21.21,21.21,0,0,1,355.39,57a25.26,25.26,0,0,0,1.93,4.35l-1.07-.13a16.9,16.9,0,0,0,.9,3.07,3.07,3.07,0,0,1,.05,2.61,20.53,20.53,0,0,0-1,4.91c-.12,1.09-.2,2.29-.41,3.55-.09.64-.17,1.29-.26,2-.05.34-.09.67-.14,1s-.13.67-.2,1c-1,5.51-3.1,11.69-6.13,15.73,1.79-.21,1,.73-.06,1.81a9.93,9.93,0,0,0-1.45,1.68c-.36.53-.46,1,0,1.42-.94.13-2,1.07-1.72-.62a14.74,14.74,0,0,1-.77,1.59c-.3.47-.6.9-.9,1.3a22.76,22.76,0,0,1-1.76,2.08,13.31,13.31,0,0,0-1.47,1.93,6.87,6.87,0,0,0-.94,2.46c-.92-.06-.11-1.53-.76-1.43a4.93,4.93,0,0,1-.42,1c-.22.35-.5.67-.84.7-.67.06.07-.93.33-1.72-1.64,1.86-2.18,3.25-2.21,4.41a5.65,5.65,0,0,0,1.12,3.06c-2.7,1-3.59,1.94-4.35,4.24-.59,0-1.3.1-1.56-.1s0-.63,1.2-1.72c-.76.52-3.16,2-5.41,3.24s-4.26,2.49-4,3.29c-.71-.14-2.4,1-2.8,1.34-3.93,1.47-4.34,1.42-8.26,2.75l1.19,0a2.74,2.74,0,0,1-2.42,1.74,24.67,24.67,0,0,0-4.07.6l.05-.22c-2,0-3.17.09-4,.19a7.74,7.74,0,0,0-1.59.39c-.8.26-1.6.55-5.53.14l.56,1.23c-.21,1.4-2,1.2-4.25.76s-5-1.08-7.22-.42l1.68.63c-2.44,1.1-7.14-3.37-9.66-3.61-.56-.21.85-.42,1.6-.63-6.64-1.34-.77,1.71-5.66,2.31-.94-.87,1.07-2.35-2.24-2.38-1.66-.65-9.45,3.33-14,1.74,1,.66,2,1.32-.23,1.93-3.48.38-9.52-2.3-12.61,0-.45-.18-.62-.36-.64-.53-2.66.64-8.65,1.21-10.23,2.42-2.57-4.35-16.56,2.54-16.59-1.56l-8.21.36.21-.42c-5.25-.18-7.1.8-8.93,1.8-1.22-.26-.34-.65-.24-.87-7.68-.72-8.44-.55-14.86,1.51l-.68-1.32c-1.74.79-11.09-2-18.62-.5a1.21,1.21,0,0,1,.83-.6c-8.48,1.54-20.22-3.78-23.37,1l-5.61,1.11c7.23.47-1.11,2.07,1.86,2.91-2.85.25-7.34-1.55-3.84-1.75l.55.25c1.32-2.47-9-1-8.75-2.75-14.23-.13-28-1.93-41.35-2.52l1.46,2L82,132.35c-1.2-.5-1.58-1.58,1.73-1.38-1.7-1.17-5.59.72-5.7,1.14-6.46-1,2.62-2.18.63-2.3l-2.7,0,.6.25c-2.22.72-2.45,1.54-6.43,1.28-2.5-.5-1.24-1.26-2.23-1.38,0-.14-.32-.22-1.52-.12l-5.84-.43,2.27,1.65c-2.63.65-5.5-.35-2.88,1.53-1.92-1.44-7.36-2-12.62-2.23-2.65-.13-5.09-.24-7-.49a9.91,9.91,0,0,1-3.64-.94,10.12,10.12,0,0,1-8.67-3.74,1,1,0,0,1-.28,1.28c-.41.22-1.25,0-2.3-1.45,1.79-.65,1.08-2,.28-3.85s-1.76-4.3-1-6.06c-.34,1.46-1.37-.74-2.25-3s-1.71-4.33-2.34-2c-.51-3.07,1.23-.53,1.48-3-1.54-3.38-2.11-7.48-2.4-11.74s-.3-8.75-.73-13.23c-.47-.13-1.13,1.44-1.9-.49.74-1.64,1.46-3.25,2.26-4.82-.23-1.76-2.72-1.7-1-4.9-.41.44-1,1.11-1.14-.1.8-4.43,1.46-8.83,2.29-13.21a86.78,86.78,0,0,1,3.36-12.93A40,40,0,0,1,28.65,34.3a24.12,24.12,0,0,1,9.93-7.63c-2.27.52-1.18-.37.15-1.39-1,.47-.65-1-1.18-1.36a13.29,13.29,0,0,1,1.71-.59c.58-.16,1.13-.36,1.7-.49a22.61,22.61,0,0,1,3.36-.51,2.15,2.15,0,0,1,1.25-1.27,12.87,12.87,0,0,1,2.31-.65c.82-.07,1.62-.23,2.26-.34a1.57,1.57,0,0,0,1.32-.72l-1.05.13-.52.06-.51.14c1.33-1.11.41-2.17-1.23-3.16-.4-.26-.84-.51-1.28-.77s-.86-.42-1.25-.65c-.77-.46-1.38-1-1.41-1.61-1.74,1.57-4.41,1.71-7.5,2.54s-6.28,2.53-7.62,6c-.71.31-.64-.06-.48-.48s.38-.91-.12-.87a8.35,8.35,0,0,1-1.44,2.81,31.58,31.58,0,0,1-3.12,3.23l.07-.5c-3.22,4.17-5.24,7.28-7.35,10.58-.5.84-1,1.69-1.53,2.58s-1,1.84-1.5,2.85-1,2.08-1.49,3.24-1,2.42-1.48,3.8l1.45-.47a18,18,0,0,1-1.93,3.8c.61,1.6,1-.09,1.51-1.78s1.11-3.37,1.76-1.84c-1.71,1.18-2.86,5.41-3.62,9.53S8.56,66.61,7,67.6c-.29,3.78,1.54-1,1.25,2.76-.3.32-.57.64-.85,1l1,1C8.15,74.75,7.17,76,6.5,76.07a18,18,0,0,0-.2-2.37A16.15,16.15,0,0,0,6,79.61a31.59,31.59,0,0,1,.4,4.29c.07-1.21.24-2.43.35-3.64.49,5.13.88,10.8,1.73,16.38.22,1.39.43,2.78.72,4.14s.56,2.72.91,4a44.22,44.22,0,0,0,2.55,7.46l.38-.88A29.34,29.34,0,0,1,15.32,118a19.25,19.25,0,0,0,3.08,7.26l-.29-.21c1.43,1.27,3,3.1,4.72,5-1-.64-.59.43,0,1.42s1.06,2-.44,1.09a19.54,19.54,0,0,0,4.48,2.55,5.67,5.67,0,0,0,1.91.48c.43,0,.78,0,1.42-.1s1.58-.08,3.12-.16c.32.44.65.88,1,1.33,1.08-.19,1.66-.39,2.51-.5a26.26,26.26,0,0,1,4,0c-1.72.23-1.13.67-.56,1.16s1.12,1-.92,1.31a17.22,17.22,0,0,0,5.78,1.12,30.76,30.76,0,0,0,4.33-.28c2.55-.3,4.53-.49,6.37,1.18,4-2.54-7.14-1.88-5-2.36-1.75-1,3.26-1.88,5.86-1.48,2.66.2,4.36,3.73,11.07,4-.67,0-.72.17-1.39.13,2.48.8,5-.73,8,.53,1.79-1.58,4,.25,4.57-1.84l-6.17.25c3.51-.4,6.87-2.76,12.57-1.34A11.46,11.46,0,0,1,82,139.71c1.66.68,3.25-.29,5,.41-.57,2.09-7.48.18-11.28,1.65,1.77,1,7.12-1.26,5.16.95,2.81-2.81,6.6.63,11.21-1.45l-.34,1.26a12.28,12.28,0,0,1,3.56-.66l-2.45,1.57c3.72-1.28,7.06,1.44,10.61.79-7.39-.19-1.61-1.57-4.71-2.59,9.15-1.41,5.14,3.46,15.37,3.12-1.39.15-5.17-.89-3-1.42a20.21,20.21,0,0,1,5.66,1.55c6.77-.1-1-1.32,1.89-2,2.27,1.59,3.33-.56,6.3-1v1.29c7.69,1,2.09-2.64,9-1.52l-3,1.73,3.63-.4-.77,1.46c3.95-1,5.17-.74,9-.28-.89-.92.53-2.33,3.94-2.32,2.32.79-1.31,1.21,3.52,1.07-1.1.79-2.3,1.8-4.4.58-.22.42-1.08.8-1.31,1.21,2.5.92,6.3.26,8.05.26a7.15,7.15,0,0,1-1.89-.31l7-1.74c1.1.5.22.88-.65,1.25,1.42-.13,2.41-.71,4.5-.81-.55,1-.42,2.12-3.39,2.59l6.7-1.13c.44.46,3.42,1.26,2.55,1.64,3.71.61,9.1-2,14-1.23a4,4,0,0,1,1.81-.56c4.62.21,8.72,1.48,14.18,0l3.13,1.84c4.28-.47-4.23-2.31,2.89-3.1,5-.65,1.91,1.58,3.69,2.07,2.5-1,6.83-3,11.5-1.54A28.78,28.78,0,0,1,214.51,144.17Zm52.8-2.36c-1,.31-3,1.24-3.8.5C264.62,140.8,265.54,141.46,267.31,141.81ZM343.9,116.4c-.23.89-1.3,1.57-2.63,2.15A11.11,11.11,0,0,1,343.9,116.4ZM223,14.42l.11-.05C225.39,15,224.6,14.74,223,14.42Zm-4.7-.77c-.48.15-.46.33-.27.52a4.39,4.39,0,0,1,2.61-.13C220.35,13.68,219.75,13.42,218.33,13.65ZM67.39,130.45l.9.38C66.2,131.11,66.8,130.8,67.39,130.45Z"/><path class="cls-1" d="M337.85,124.05a1.14,1.14,0,0,1-.79-.28C336.85,124.2,337,124.41,337.85,124.05Z"/><path class="cls-1" d="M181.64,145.21h-.16a.48.48,0,0,0-.16.23Z"/><path class="cls-1" d="M292,6.14a4.92,4.92,0,0,1,1.85.75C294,6.57,293.52,6.29,292,6.14Z"/><path class="cls-1" d="M193.19,14.67l3-.19a6.68,6.68,0,0,1-2.71-.55C193.58,14.24,194.13,14.7,193.19,14.67Z"/><path class="cls-1" d="M167.28,5.51c-.45.14-.94,0-1.38.11l.09.61C167.88,6.27,169.22,5.85,167.28,5.51Z"/><path class="cls-1" d="M190.58,10.28c-.19-1.1-2.1-.82-4.23-.72.12,0,.25,0,.37,0C186,11.07,188.31,10.67,190.58,10.28Z"/><path class="cls-1" d="M185.85,9.58a12.8,12.8,0,0,1-2-.06C183.62,10.11,184.68,9.68,185.85,9.58Z"/><path class="cls-1" d="M212.3,14.09c-1-.33-.69,1.35-1.24.88C209.87,16.3,217.84,13.62,212.3,14.09Z"/><polygon class="cls-1" points="189.03 6.64 189.73 8.01 190.97 6.98 189.03 6.64"/><path class="cls-1" d="M205.73,8.39l-3.37-.53c0,.23-.4.34-.93.42C203.51,8.42,205.79,8.79,205.73,8.39Z"/><path class="cls-1" d="M201.43,8.28a8.68,8.68,0,0,0-2.74.09A20.69,20.69,0,0,0,201.43,8.28Z"/><polygon class="cls-1" points="193.68 6.45 194.67 6.77 197.06 6.98 193.68 6.45"/><path class="cls-1" d="M242.14,10.33l3.71-.21c.4-.44-.6-.77-2-.65C243,9.75,241.59,9.86,242.14,10.33Z"/><path class="cls-1" d="M231.12,6.16c1,.32,1,.62,1.59,1.09l.18-1.65Z"/><path class="cls-1" d="M241.92,6.27c.39-.44,5.43-1.07.74-1.18C242.26,5.53,238.54,5.74,241.92,6.27Z"/><polygon class="cls-1" points="297.54 10.94 296.6 10.91 296.61 13.63 297.54 10.94"/><path class="cls-1" d="M348.85,18.68c-1.7-2-2.22-1.91-2.65-1.77s-.79.31-2.44-1.41c-.68-.1,0,.6.65,1.28s1.25,1.41.63,1.22C347.7,19.52,348.64,20.93,348.85,18.68Z"/><path class="cls-1" d="M345,18a9.82,9.82,0,0,0-1.49-.62A14.12,14.12,0,0,0,345,18Z"/><path class="cls-1" d="M48.53,22.69l1,.17.49.08.48.16a7,7,0,0,0-1.32-.83Z"/><path class="cls-1" d="M52.54,20.61c.11.61.2,1.21.28,1.8.46-.45,1-.91,1.53-1.36C53.83,21.06,52.87,21.07,52.54,20.61Z"/><path class="cls-1" d="M275.3,145l.2-.43c-.46-.43-1.12-.43-2.45-.45Z"/><polygon class="cls-1" points="236.89 145.03 237.55 145.04 236.27 143.52 236.89 145.03"/><path class="cls-1" d="M204.71,147.69c1.32.05,2.86-.33,4.18-.28C206,147.74,204.33,145.74,204.71,147.69Z"/><text class="cls-2" transform="matrix(1, 0, 0, 1, 67.8, 47.36)">Conocer el concepto de empatía, <tspan x="-12.62" y="25.2">estrategias para empatizar, trabajo </tspan><tspan x="13.64" y="50.4">de relaciones y resolución de </tspan><tspan x="82.95" y="75.6">conflictos.</tspan></text></svg>