<svg id="Capa_1" data-name="Capa 1" xmlns="http://www.w3.org/2000/svg" viewBox="0 0 1213.34 85.28"><defs><style>.cls-1{fill:#5da6bc;}</style></defs><path class="cls-1" d="M1247,48.82c-7.91-19.16-19.19-31-35-31.83-19.79-1-38.77,7.07-57.11,14.57s-37.87,14.72-57.5,12c-17.74-2.48-33.22-12.79-49.57-20.11C992.6-1.3,933.43,61.5,872.78,50.6,828.56,42.65,791.33,1.35,746.91,8c-46.61,7-78.79,65.18-125.4,58.21-37-5.53-58.7-50.72-95.86-55.13-44.33-5.25-75.78,49.83-120.36,52.2-46.06,2.45-78.89-51.63-125-53.67C238,7.75,204.79,50.41,162.5,53.14c-30.16,1.94-57.27-16.71-86-26s-69-2.89-76,26.52l-9.84,52.65h1256c1.79-107.7,3.57,395.36,5.36,287.66C1252.78,347.29,1280.94,131.07,1247,48.82Z"/></svg>