<svg id="Capa_1" data-name="Capa 1" xmlns="http://www.w3.org/2000/svg" xmlns:xlink="http://www.w3.org/1999/xlink" viewBox="0 0 164.52 154.57"><defs><style>.cls-1{fill:none;}.cls-2{fill:#fff;}.cls-3{fill:#63a8bd;}.cls-4{clip-path:url(#clip-path);}</style><clipPath id="clip-path"><rect class="cls-1" x="-165.65" y="3722.42" width="1341" height="1296.03"/></clipPath></defs><path class="cls-2" d="M2.4,80.78C4.35,136.62,66.6,170.57,115.7,147c34.44-16.57,55.22-59.7,42.89-96.64C130.7-33.25-.61-5.55,2.4,80.78Z"/><path class="cls-3" d="M101.6,141.7a.4.4,0,0,0,.77.08l-.49-.83Z"/><path class="cls-3" d="M105,140.05c0-.74-.22-1.73-1.11-1.91.36,1,0,.88.44,2a.61.61,0,0,1-1,.25c.08.28-.63.49-.35,1.05a1.66,1.66,0,0,0,1.55-1.76C104.77,139.63,104.85,139.92,105,140.05Z"/><path class="cls-3" d="M123.55,94.59l-.13.32A.62.62,0,0,0,123.55,94.59Z"/><path class="cls-3" d="M110.65,77.89a1.81,1.81,0,0,0,0-.51A1.94,1.94,0,0,0,110.65,77.89Z"/><path class="cls-3" d="M110.15,78.12s0,0,0,.06C110.16,78,110.16,77.9,110.15,78.12Z"/><path class="cls-3" d="M123.55,94.59l.33-.82C123.6,93.7,123.64,94.19,123.55,94.59Z"/><path class="cls-3" d="M107,133.29a1.16,1.16,0,0,0,0,.49,3.54,3.54,0,0,1,.14-.39Z"/><path class="cls-3" d="M122.1,108.28l-.06.25a2.09,2.09,0,0,0,.3.29Z"/><path class="cls-3" d="M119.15,118.45c.12-.21-.57-.55-.85-.75a.79.79,0,0,1,.31.67A1.58,1.58,0,0,0,119.15,118.45Z"/><path class="cls-3" d="M110.8,132.93l0,.31A2.51,2.51,0,0,0,110.8,132.93Z"/><path class="cls-3" d="M123.72,100.87a.7.7,0,0,0,.28-.05A.47.47,0,0,0,123.72,100.87Z"/><path class="cls-3" d="M70.58,126.48l-.11.08C70.57,126.57,70.62,126.55,70.58,126.48Z"/><path class="cls-3" d="M72.16,139.47l-.06-.16h-.43Z"/><path class="cls-3" d="M110.1,74.36v0C110.14,74.29,110.13,74.29,110.1,74.36Z"/><path class="cls-3" d="M90,58.42c-.64,1-.92-1.59-1.63-.06C88.68,58.21,89.61,59.68,90,58.42Z"/><path class="cls-3" d="M107.2,133.12a3.35,3.35,0,0,1,.21-.36A.93.93,0,0,0,107.2,133.12Z"/><path class="cls-3" d="M88.38,58.36h0l-.07.15Z"/><path class="cls-3" d="M93.71,84.69a1,1,0,0,0,.31-.28C93.94,84.42,93.85,84.49,93.71,84.69Z"/><path class="cls-3" d="M107,73.55l-.4-.37A3.17,3.17,0,0,0,107,73.55Z"/><path class="cls-3" d="M98.76,80.4c0-.24.1-.33-.06-.63a.47.47,0,0,0-.07.12A.43.43,0,0,1,98.76,80.4Z"/><path class="cls-3" d="M95.27,70.63c0,.1,0,.2,0,.3l.26.3C95.47,71,95.38,70.82,95.27,70.63Z"/><path class="cls-3" d="M59.88,104.55a2.37,2.37,0,0,1-.67.4C59.74,104.81,60,106,59.88,104.55Z"/><path class="cls-3" d="M107.34,133.51a.37.37,0,0,1-.14-.39,1.59,1.59,0,0,0-.12.27A.3.3,0,0,0,107.34,133.51Z"/><path class="cls-3" d="M92.81,81.18c0-.43-.1-.85-.16-1.27A8,8,0,0,0,92.81,81.18Z"/><path class="cls-3" d="M74.22,79.08l.09.33A.36.36,0,0,0,74.22,79.08Z"/><path class="cls-3" d="M91.5,76.3c.15-.37.3-.4.37-.52a.58.58,0,0,0-.19.06l-.12.15s0,0,0,.09Z"/><path class="cls-3" d="M59.2,105h0Z"/><path class="cls-3" d="M62.37,112.73c-.35-1-1.09-.19-1.72-.25-.67-1.3.52-.83.89-1.42a4.82,4.82,0,0,0-.93-1,1.73,1.73,0,0,1-.64-.94c.16-.08.19-.21.42-.1-.94-.82-.41-2.8-1.43-3.91a.53.53,0,0,1,.24-.16,3.13,3.13,0,0,1-1.36.24c-.05-.58-.66-1.08,0-1.31,0,.36.26.38.46.54l-.29-.6c.92-.56.34.82,1,.8-.33-1.15-1.11-2.56-.8-3.48.91-.15.26,2.14,1.1.95L59,103.49c1.44-1.06-.1.83,1.44-.14.28-1.79-.45-2-.08-3.84-.49-.44-.76.1-1.25-.35-.73-2.73,2.45-1.9,1.4-4-.56-.56-1.69-.88-.94-2.22l1,.58A1.43,1.43,0,0,0,60,92.09c-.26-.28-.46-.61,0-1.4.35.37.15,1.34.3,1.11,1-1-.47-.87-.3-1.71l.93,0c.22-1.52.17-3,1.38-3.83,0,.28,0,.62.41.73a3.59,3.59,0,0,1,2.83-.68,7.48,7.48,0,0,1,.92.12l.47.09.24.05s0,0,.06,0a.63.63,0,0,1,.25.41,2.85,2.85,0,0,1,.75-.66c.07,0-.2.38-.37.48-.12.4.45-.42.82-.55.16.18-.35.55-.59.62a.63.63,0,0,1,.53.2,1.46,1.46,0,0,1,.22.3.77.77,0,0,1,.09.23c0,.16.06.31.08.47a5.85,5.85,0,0,1-.36,3.44l-.22-.37c-.4,1.39,1.52,1.74.65,3L69.05,94c-.22,1-.35,2-.5,3.07l4.7.4c0-2.25,0-4.44.8-6.11-1.14-.49.55-3.22-1-3.45C73.82,86,74.1,86.58,74.67,84c.08-.7-1-1.06-1.14-1.93h.84l-.86-1.19,1-.61-.2-.81c0,.32-.38.68-.62.63-.36-1.28.62-3.09,1-3.12l-.67-3c.34.07.44.57.65,1-.83-1.61.88-.27.12-1.76-.19.2-.49-.11-.66-.14a6,6,0,0,0,.35-3.63l.57.24c.18-2.23-.24-4.72-.13-7.11a.69.69,0,0,1-1.36-.09l.89-.25c-.52-.49-.36.73-1-.25.15-.9,1-.55,1.29,0l-.24-1.1c.27,0,.39.22.72.31-.53-.5,1-1.76.13-2.46l.27,0a42,42,0,0,1,.58-5c-.72-.24-.38-.87-.77-1.57.66-1.2,1.81-2.27,2.51-3.5.25-1-.36-.61-.46-1.25.6.31,1.43-.71,1.34.13A10.42,10.42,0,0,1,80,46.17c.17-.16.34-.32.56-.5a3.08,3.08,0,0,1,.78-.53c-.19-.28-.43-.35-.36-.6.33-.18.77.23.7.56l-.07.08a1.05,1.05,0,0,1,1.25.1,1.09,1.09,0,0,1,.3,1,3.34,3.34,0,0,0,.22,3l-.08-.14.83,2.51c-.08,1.18-.54-.68-.94.2,1.24,2.7,0,4.33.81,6.56-2,1.81.34,6.18-.88,8.58l.47-.15c.5.59-.25.74-.34,1.19.37-.07.41-.67.68-.3.75,5.12-.4,10.55-1.32,15.39-.17,1,.64,1.3,1.09,1.78l6.13-.07c-.39-.22-.64-.62-.26-1.61l1,.52a11.52,11.52,0,0,1-.71-5.33l.09-1.34,0-.68,0-.22v-.1a6.94,6.94,0,0,0-.19-.94c.16.24.39.45.37.51.25.13.31.14.3,0s-.09-.41-.15-.72a2.9,2.9,0,0,0-.12-.42c.18,0,.28.61.46.94s.09,0,.16-.3.19-.4.19,0a1,1,0,0,1-.07.34c.11-.42.26.25.49-.69a.55.55,0,0,0,.34.45.32.32,0,0,1,.13.48.37.37,0,0,1,.23,0l.07,0a1,1,0,0,1,.09.15,4.22,4.22,0,0,1,.2.74c.1.5.21.93.81.87-1.18.26-.34,2.47.37,3.2-.42-.2-.24.78-.8.56.19.91.53,1.73,1.13,1.48a2.33,2.33,0,0,0,0,2.26c.27.68.57,1.32.23,1.84l6.2-.57a1.51,1.51,0,0,1,.45-.52A20.79,20.79,0,0,1,99.63,82a8,8,0,0,1-.13-1.67,4.69,4.69,0,0,1,.25-1.48c.52.31.34.76.25,1.23s-.11,1,.54,1c-.08-.43-.14-.83-.2-1.2a4.52,4.52,0,0,1,0-1.1,1.85,1.85,0,0,1,1.12-1.68c.38,0,.09.54.16.78a1.22,1.22,0,0,1,1.34-.59,18.74,18.74,0,0,1,1.95.56c-.08.09-.28.08-.45.07.26.13.39.55.74.13-.11,0-.21-.07-.32-.09.06-.46.56-.62,1.16-.56s1.36.67,1.5.48a.74.74,0,0,0-.44.52,2.87,2.87,0,0,0,0,.91,8.4,8.4,0,0,1,.13,1.42,7.53,7.53,0,0,1,0,.83c0,.31,0,.62-.09.9a1.79,1.79,0,0,1-.37,1.09c-.11.23-.23.24-.37,0,0,.29,0,.58.07.82a1.43,1.43,0,0,0,.94-1.14c.37.45.49.89-.27,1.55,1.08,0,1.2-.29,1.44-.5s.2-.18.29-.18.23.06.36.26c0,.39-.17.4-.3.84.46-.57.65-.72.78.24,0,.11,0,.38-.06.2a3.17,3.17,0,0,1,.15,1.26c0,.13,0,.27,0,.4v.22c0-.32.08-.68.13-1-.08.86.08-.33.09.25.06-.2.12-.44.21-.7a1.14,1.14,0,0,0-.09-.19c.09-.27.2-.71.33-1.17s.26-.92.48-1c-.09.37-.21.71-.28,1a6.74,6.74,0,0,1,.4-.65c.19-.22.34-.46.57-.69a1.81,1.81,0,0,0-.68,0,4,4,0,0,0,.12-1.64,1.07,1.07,0,0,1,.31-1c-.08.34.21-.38.78-.33a.61.61,0,0,1,.43-.26h0c0-.37,0-.75.08-1s.1-.54.16-.78a2,2,0,0,1,.72-1.12c.18,0,.34.28.47.55s.25.56.37.55a1.71,1.71,0,0,1,.27-1,2.66,2.66,0,0,1,.48-.62c.39-.4.71-.62.8-1.11a1.29,1.29,0,0,0,.17.83,2.46,2.46,0,0,1,0-.71c.31.19.3.31.26.73.17.08.26-.21.28-.48s.07-.53.49,0c-.1,0-.12.11-.31.13a5.78,5.78,0,0,1,2.4,3.37c-.78.8-.76-1.2-1.35-.37.53,1,1.18,2,1.74,3.07a8.66,8.66,0,0,1,1,3.39l0-.44c1.49.12-.47,1.78.29,2.86-.13-.28-.83-.31-.66-.25-.12,1.55.51,3.14.84,5.59l-.35-.32c-.37.92-.34,2.45-.62,3.44.34.33.21.91.78.61a5.65,5.65,0,0,0-1.08,4.44c.06,1.48.18,3-1,4.14.07-.32-.14-.84-.2-.58-.06.79-.1,1.59-.19,2.38.65,0,.45-.21,1-.59a2.13,2.13,0,0,1,.26,1.69c-.13-1.15-1-.23-1.43.13.21,0,.37.18.57.19-1.39.92,1.19.53,0,2l-.29-.18a4.81,4.81,0,0,1,0,2c-.77.06-.13-.76-.69-1-.21.94.76,2.24-.21,2.86-.06-.46.12-1,.06-1.47-1.11.65-.94.81-1.28,1.44l0-.06c-.3.47-.57,1-.89,1.41l.36-.31c1.34,1.76-.49,2.43,0,4.38-.49-1.9-.53-.49-1.24-.9-.37.3-.84.78-1,.53.32,1-.94,1-.5,2.33-.26-.07-.35.73-.89.3-.21,1,.51,0,.78.19a3.34,3.34,0,0,1-1.16,2.37,4.36,4.36,0,0,0-1.24,2.91c-.43,1.92.15,2.65-.37,4.43-.66.32-.58-.91-.58-.91a3.71,3.71,0,0,0-1.36,2.23c-.09-.27-.36-.21-.76-.14-.32.66.56.93-.28,1.54a3.85,3.85,0,0,1-.51-1.19c-.23.86-.32,1.82-.61,2.7-.51-.06-.28-.84-.36-1.26-.37.94-1.09,2.36-.7,3l.59-.37c-.18.31-.62-.21-.57-.51a.78.78,0,0,1,1.15-.76l-.21.62c1.63.32,1.25-2.26,2-3.3l.67,1.06-.09-1.62c.39-.08,1,.08.84.71,1-.51.1-.9,1-1.27.13,0,.16,0,.15.12l.17-1c.12.28.76.27.34.68,1.4-1.11.59-2.71,1.61-2.86V130c.73-2.19-.62-.59-.69-2.53.79,0,1.55-.07,2.33-.11l-.64-.57c.13-.19.39-.58.65-.36-.13-1-.39,0-.65-.71,1.2-.68,1-3,2.28-2.66-.41-.62-.88.79-.79-.48,1.45.25.31-1.38,1.3-2.08.56.57-.17,1.34.82.62-.9-1,1-1.78,1.08-2.7-.9-.38.29-1.92.42-3.43.14.09.49-.52.88-1.31s.81-1.78,1.18-2.39l.14.08c-.86-.51-.35-1.83-.29-2.87a1.08,1.08,0,0,1,.87,1l.23-.94a1.69,1.69,0,0,1-.31-1.27l.67.41c.23-1.29-.27-2.72.49-4.27-.67-.2-2.13.93-2.27-.85.38,0,1,.06,1.09.53,0-.16-.21-.58,0-.84l.49.79c.41-.69-.45-.48-.28-1.06.52.11.45-.37.86-.22,0,.17-.32.49-.15.75a3.11,3.11,0,0,1,1.09-1.63c-.31,0-.71-.11-.71-.61.15-1.28.7-.35,1.08-1.06-.31-.36.16-1.14-.62-1.25,0-.38.42-.4.66-.53-.27-.7.18-3.15-.73-2.46l-.07.17s0-.07,0-.11h0c-.62-2.21.66-4.53.19-6.74l.27,0c-.38-1.29-.44-2.91-1.18-3.74,0-.38.32-1,.66-.88a4,4,0,0,1-.65-2.53c.72.88.32-.46.6.94a12.31,12.31,0,0,0-.09-1.55,2.44,2.44,0,0,0-.87-1.39c.41.12.53-.19.49-.61a2.57,2.57,0,0,0-.49-1.19l-.09,1.07a6,6,0,0,1-.43-.94c-.13-.32-.26-.66-.41-1q.5,0,1-.06a4.79,4.79,0,0,0-3.74-3.6,6.75,6.75,0,0,0-3-.06,15.65,15.65,0,0,1-2.53.41c-.22.54.24.33.76.18s1.12-.23.83.28c-.8.28-1.6.47-2.3.64-.35.07-.71.19-.92.24s-.23,0-.26,0c-.26,0-.2.22-.15.61a3.61,3.61,0,0,1,0,1.27.55.55,0,0,1-.17.35,4.54,4.54,0,0,1,.11,2.77c-.38.88-.47-1.37-.41-2.18,0-.19.08-.09.09.1a2.25,2.25,0,0,0,0-1.16l0,.57c-.17-.24-.32.44-.31-.76-.05.91,0,1.26.07,1.26-.1-.12-.14.08-.18.37s-.08.64-.1.52c0,.41,0,1.31,0,1.43A7,7,0,0,0,110,81c0,.33,0,.48-.09,1.93.09-2.62,0-.39.11-3.12v.08c.09-2.53.08-2.14.11-3.16,0,.7,0,.14,0-.48s0-1.12,0-1.53l0-.49c0,.31,0,.24,0,.2l-.08,1.41c0-.35,0-.44,0-1-.08.94-.09,1-.12,1.44a9.43,9.43,0,0,1-.18,1.44,1.47,1.47,0,0,0-.13-.7,1.79,1.79,0,0,1,0-1c.1.6.13.26.19-.19s.13-.94.19-.9-.07,0-.07-.24.06-.24.07-.29c.1-.83-.06,0-.28.36-.12.23-.26.35-.39.14.28-.4.43-.91.34-.85s-.33.83-.87.78a.71.71,0,0,0-.13-.28,4,4,0,0,0-.29-.29,1.51,1.51,0,0,0-.53-.3,3.55,3.55,0,0,1-.92-.37,6.66,6.66,0,0,1,.63.67c-.53.19-1.06-.3-2-.61.09-.39.95.2.7-.11-.7.08-1.16-.36-1.83-.8a2.62,2.62,0,0,0-2.47-.46c-.92-.22-.19-.9-1.07-1a8.44,8.44,0,0,1-2.34.87,3,3,0,0,0-2,1.42c.45,0,.68,0,.69.11a9.87,9.87,0,0,1-.4,1.22,8.23,8.23,0,0,1,2.49-2.54,6.7,6.7,0,0,0-1.33,2c.69-.64,1.51-1.58,2.18-1.69-.78.89-.66.71,0,1a1.62,1.62,0,0,0-1.69.9,3.9,3.9,0,0,1-1.27,1.53l-1.29-1a4.26,4.26,0,0,0-1.4,3.13c-.1,1.2,0,2.3-.2,3.65.1-.29.2-.57.32-.86.59.4,0,1.65.35,2.45-.54,0-.7.49-1,.88.38-.07.18,1.82,1.27,1.86l-.43.9,4.85-.45.14-.23c.19-2-1.64-2.13-1.69-4,.65.49.92-.42,1.49.8-.07-.64-.06-1.22-.42-1.18.28-.42-1-1.6-.6-2.25-.28-.22-.85-.19-.95-.87a.3.3,0,0,1,.26-.06c-.26.05-.6-1-1-.25.6-1.11.22-2.41-.25-3.62l-.78-2a9.43,9.43,0,0,1-.56-2.13,8,8,0,0,0-2.11-1.68,6.93,6.93,0,0,0-2.37-.73c.09-.15,0-.27.29-.16-1.06-.42-1.38.07-1.63.46a2.22,2.22,0,0,1-1.5,1.1h0c-.54,0-.47-.28-.24-.52s.77-.46.35-.46a.64.64,0,0,0-.73-.36c-.47.1-1,.72-1.32,1.43a5.18,5.18,0,0,1-1.21,1.87l.07-.48a3.31,3.31,0,0,0-.58,2.55c0,.52.09,1.06.13,1.62a4.61,4.61,0,0,1,0,1.23.32.32,0,0,0-.27,0c.8,1.19,1,3.27,1.39,4.79-.72-.45-.39-.69-1.08-.37.13.7,1.1-.24,1.37,1.11-.35.47-.58,1.49-1.3,1.71l-.16-1.32c-.91.76.19,1.72.12,2.43l-.43,0a4.7,4.7,0,0,0,.16.58l5,0c-.11-1.5-.9-1.8-.69-3.69l-.33.2c-1-1.22.66-.94-.07-2.13l1.09-.31a32,32,0,0,1-1.15-4.06c.79.77,1.17,2.38,1.6,3.4,0-.77,0-2.6-.54-3,.1.31.35.7.19,1a5.31,5.31,0,0,1-1.24-3.65c2.09.24.45-3.91,2-5-.84-2.61.16-5.22-.06-8.28-1.57,1.14-.07-.89-1.72-.65-.12-.71-.11-1,0-1l.92-2.19c.46-.53.38.66.75.59.08-1.57.68-.68,1.08-1.73-.58.23-.86-.51-.66-1.41l-.72,1.28c-1-2.16,1.32-1.93.38-4.1l.54.67c-.17-.56-.2-1.6-.36-2.63a4.8,4.8,0,0,0-1.29-3c.14-.3.49-.79.76-.09a5.79,5.79,0,0,0-.15-.77,6.51,6.51,0,0,0-.31-.87,6.13,6.13,0,0,0-1-1.62,6.88,6.88,0,0,0-3.07-2.07,9.81,9.81,0,0,0-3.13-.5c-.94,0-1.79,0-2.61,0l.21-.46a3.73,3.73,0,0,0-1,.66,1.66,1.66,0,0,1-1.06.43c0-.17.09-.49-.23-.36l-.87.93a4.56,4.56,0,0,1-1.18,1c.09-.28.19-.56.31-.84a5.5,5.5,0,0,0-2.61,3.35c-.36,1.17-.42,2.28-.81,3.42-1.09-.55-2.41,1.51-2.92,2.6l-.14-.09c-1.17,3.38-.35,5.93-.14,8.89-.72.87-.94,2.43-1.05,4.09a25.07,25.07,0,0,1-.5,4.84c.23-.43.93.08,1,.59-.25.66.8,1.85-.29,1.73l0-.24c-1.08.49-.81,1.85-.86,2.92l1.43.2c-2.11,2.76.66,7.31-1.22,8.81.35.68.34,1.51.68,2.18l-.76,0a22.54,22.54,0,0,0-.18,5.1l-.54-.47c-.07,1.29,2.18,1.67,2.21,2.87L68,92.4c0,1.66-.57,3.33-.47,5l6.73.57a5.29,5.29,0,0,0-.18-2,.61.61,0,0,1,.48.57c.21-1.11,1.21-4.31-.39-4,1,0,.25-2.47-.21-3.73l.75.2c-1-1.13-1.2-1-1.54-3,0-.48.57-.6.42.12.14-.88-.08-1.16-.3-1.41a3.07,3.07,0,0,1-.65-1.43,4.09,4.09,0,0,1,.7.33,1.71,1.71,0,0,0-.9-1.13,3,3,0,0,0-1.12,0A8.81,8.81,0,0,1,69.61,82c-.56-.24-1.08-.57-1.16-.91a2.38,2.38,0,0,1-.87.57,1.47,1.47,0,0,1-1,.13c-.1-.26.17-.42.31-.49a4,4,0,0,0-2.61.26,4,4,0,0,1-2.2.44.52.52,0,0,0-.41-.34,8.5,8.5,0,0,1,3.22-.51c0-.71-1.62-.65-.46-1.74-.62.32-1.45.85-2.29,1.4a14.45,14.45,0,0,1-2.48,1.43.94.94,0,0,1-.32-.08l.11-.17a1.94,1.94,0,0,0-.86.76,4.13,4.13,0,0,0-1.24.89c-.28-.11-.72.27-1.08.79A11.68,11.68,0,0,0,55.41,86c.72.26.19,1.17,1.16.52-.1.09,0-.17.19-.66a1.89,1.89,0,0,0,.1-.35l0,.08a8.41,8.41,0,0,1,1.22-1.71,2.88,2.88,0,0,1-1.11,2c.23.59.52,1.17.66,1.46-1.39.45-2.38,2.26-3,2.39,0,2.28-.26,4.74,1,6.11.13.57-.46.6-.7.79-.12-.33-.07-.71-.26-.9.27,1.13-.11,3.29.88,3.62-.52,1.37-.88-.84-.81,1.09l-.3-.27c-.88,1.88-.24,3.51.4,5.1a7.72,7.72,0,0,1,.69,5.44c.07-.32.1-.47.25-.56A14.49,14.49,0,0,0,58,117.34c1.26,2.24,2.73,4.21,3.58,6.54.58,1.25,1.18,1,2,1.31l-.47.72,1.59.51c1.74,1.13.45,3.82,2.79,5l.3-.56c.19.39.61.92.91,1.38s.43.87.12,1c.13,0,.64,0,.54.39l-.37.22c.49.5,1,1,1.48,1.57.12.81-.31.87-.68,1s-.64.37-.46,1.36a6.59,6.59,0,0,0,.93,1.22c.38.38.76.67.88.5,0-.33.16-.89.58-1l.32.79a8.48,8.48,0,0,0,1.87.06c.58-.12,1.08-.55,1.35-1.86-.33-.53-.75-1-1.11-1.48l.45-.69.38,1.39c.36-.93-.23-1.35-.76-1.76a1.12,1.12,0,0,0,.41-.88A13.42,13.42,0,0,0,73,133c.36-.39,1.19.27,1-.85-.82-.44-.71,1.11-1.54.16.17-.91.67-.95-.18-1.49.22-.27.49-.21.79,0-.71-.54-1.21-1.73-2-1.71.18-1-1.59-2-.58-2.63a4.29,4.29,0,0,1-2-1c1.88.1-1.46-2-.06-2.71-1.57.08-2.4-2.14-3.84-2.93.14,0,.4,0,.42.17a3.83,3.83,0,0,1-.32-1.73c-.92.51-1.86-.42-2.76-.69.38-1.38,1.38-.12,2.06-.9-.71.5-1.58-1-2-.39.23-1,0-.71.6-1.42-1.27.45-.47-.51-1.46-.74.23-1.23,1.07-.69.3-1.63.11-.31.35-.26.57-.15A2.26,2.26,0,0,1,62.37,112.73Zm-.11-26.65v0a2.1,2.1,0,0,0-.35.26A4.19,4.19,0,0,1,62.26,86.08Zm1.87-.63a3.94,3.94,0,0,0-.88.18c-.15-.23-.15-.51.07-.56C63.25,85.27,63.78,85.29,64.13,85.45Zm-7.68-1c.27-.58.54-.65.71-.61a5.61,5.61,0,0,0-.57.91.49.49,0,0,1,0,.11A.94.94,0,0,1,56.45,84.42Z"/><path class="cls-3" d="M56.76,85.83a1.12,1.12,0,0,1,0,.22l.29-.2-.11-.29A1.66,1.66,0,0,0,56.76,85.83Z"/><path class="cls-3" d="M123.4,95l0,0a.38.38,0,0,1-.11.11S123.37,95,123.4,95Z"/><polygon class="cls-3" points="74.56 82.02 74.36 82.02 74.53 82.26 74.56 82.02"/><path class="cls-3" d="M118.4,108.81a.37.37,0,0,0-.23.13S118.31,108.89,118.4,108.81Z"/><path class="cls-3" d="M116.5,114.67l-.53.74A5.19,5.19,0,0,0,116.5,114.67Z"/><path class="cls-3" d="M114.53,119a1.42,1.42,0,0,0,.27.21h0Z"/><path class="cls-3" d="M104.43,77.92a.2.2,0,0,0-.11,0C104,77.86,104.2,77.91,104.43,77.92Z"/><path class="cls-3" d="M112.6,80.29c0,.5-.06,1-.1,1.49a1.44,1.44,0,0,1-.13.31l.2-.07A3.09,3.09,0,0,0,112.6,80.29Z"/><path class="cls-3" d="M92.82,81.32h0l0-.14Z"/><path class="cls-3" d="M111.59,82.68a.51.51,0,0,0,.4-.14,1.23,1.23,0,0,0,.38-.45,1.6,1.6,0,0,0-.46.17A.91.91,0,0,0,111.59,82.68Z"/><path class="cls-3" d="M104.61,136.74l-.16.17a.17.17,0,0,1,.08.09Z"/><path class="cls-3" d="M104.53,137l-.07.26C104.53,137.16,104.58,137.08,104.53,137Z"/><path class="cls-3" d="M104.3,137.8l.16-.54C104.35,137.4,104.2,137.57,104.3,137.8Z"/><path class="cls-3" d="M108.28,131.71l-.2-.21A.64.64,0,0,0,108.28,131.71Z"/><path class="cls-3" d="M109.16,130c-.28.37-1.07.69-1.24,1.32l.16.16C107.88,131,109.35,130.63,109.16,130Z"/><path class="cls-3" d="M115.85,124.39c-.29.47-.58.94-.89,1.4.39-.13.91-.31.65.4C117.3,124.67,114.85,126.31,115.85,124.39Z"/><path class="cls-3" d="M118.24,119.83c-.21.88.4.15.54.25C118.73,119.45,118.71,119.3,118.24,119.83Z"/><path class="cls-3" d="M123.44,83.21l.7,0C123.9,82.47,123.87,83.21,123.44,83.21Z"/><path class="cls-3" d="M117.91,78c0,.22-.08.44-.13.65.22,0,.45,0,.68-.06A7.81,7.81,0,0,0,117.91,78Z"/><path class="cls-3" d="M116.08,71.7c.22,0,.44-.08.66-.1a5.41,5.41,0,0,0-2.32.61A5.39,5.39,0,0,1,116.08,71.7Z"/><path class="cls-3" d="M97,72.21q-.28.39-.6.75C96.81,73.48,97.76,73.24,97,72.21Z"/><path class="cls-3" d="M89.06,82.2a1.09,1.09,0,0,0,.38-1.51C89.34,81.3,89,81.88,89.06,82.2Z"/><polygon class="cls-3" points="67.83 74.93 67.55 74.39 67.77 75.39 67.83 74.93"/><path class="cls-3" d="M63,44.44a3.57,3.57,0,0,0,0-.66l0,.89Z"/><path class="cls-3" d="M63,42.78c0,.43-.09,1.19-.11,2,0-.86,0-.5.11-1.52a2.35,2.35,0,0,1,0,.62c0-.23,0,.19,0-.37s0-.72-.08-.15C63,43.18,63,42.94,63,42.78Z"/><path class="cls-3" d="M61.34,41.32v.11A1,1,0,0,0,61.34,41.32Z"/><path class="cls-3" d="M60.31,40.8s0-.11,0-.2A1.21,1.21,0,0,0,60.31,40.8Z"/><path class="cls-3" d="M60.16,39.8s0,.05,0,.07S60.17,39.74,60.16,39.8Z"/><path class="cls-3" d="M61.34,41.32l0-.28C61.31,41.33,61.33,41.26,61.34,41.32Z"/><path class="cls-3" d="M62.68,44.92s0-.12,0-.23a.64.64,0,0,1,0,.09Z"/><path class="cls-3" d="M61.83,40.62h0c0-.1,0-.22,0-.36Z"/><path class="cls-3" d="M62.19,40.49s0,.73,0,1.06c0-.31,0-.46,0-.52S62.18,40.71,62.19,40.49Z"/><path class="cls-3" d="M62.71,41.85v-.11S62.71,41.8,62.71,41.85Z"/><path class="cls-3" d="M61.58,40.44c0-.11,0-.21,0-.27A2.62,2.62,0,0,0,61.58,40.44Z"/><path class="cls-3" d="M51.43,45.79v-.14C51.43,45.73,51.42,45.78,51.43,45.79Z"/><path class="cls-3" d="M51.15,42v0c0-.15,0-.29,0-.43Z"/><path class="cls-3" d="M59.87,38.82h0C59.88,38.75,59.87,38.76,59.87,38.82Z"/><path class="cls-3" d="M56.83,39.27c0,.68-.09.87-.06,1.63C56.77,40.6,56.86,39.71,56.83,39.27Z"/><path class="cls-3" d="M62.67,44.82s0,0,0,0S62.67,44.85,62.67,44.82Z"/><path class="cls-3" d="M56.77,40.9h0v0Z"/><path class="cls-3" d="M59.09,39.25v0Z"/><path class="cls-3" d="M59.62,40.35v-.1A.45.45,0,0,0,59.62,40.35Z"/><path class="cls-3" d="M58.76,40.31c0-.06,0-.16,0-.06v.09C58.75,40.24,58.76,40.19,58.76,40.31Z"/><path class="cls-3" d="M58.46,40.3v.16s0,0,0,0Z"/><path class="cls-3" d="M52.36,45.46c0-.22,0-.45,0-.69C52.36,45.31,52.31,45.51,52.36,45.46Z"/><path class="cls-3" d="M62.69,44.5c0,.19,0,.28,0,.32a.1.1,0,0,0,0,0C62.69,44.67,62.69,44.56,62.69,44.5Z"/><path class="cls-3" d="M58.54,46.3l0-.12C58.5,46.26,58.52,46.3,58.54,46.3Z"/><path class="cls-3" d="M54.56,45.43l0,.09S54.55,45.51,54.56,45.43Z"/><path class="cls-3" d="M58.34,46.29v-.53c0,.06,0,.11,0,.2Z"/><path class="cls-3" d="M52,46.56A13.65,13.65,0,0,0,52.08,45c.06-.28,0,.74,0,1.25,0-.27.1-1.18.13-1.14s0,.22,0,.43c.07-.79.11,0,.19-1v.25c0-.5,0-1,0-1.37,0,0,.06-.63,0,0a3.79,3.79,0,0,0,0,.45l0-.28a9.07,9.07,0,0,1-.07,1c.06-.3.13-1.07.16-.81,0,.92-.09.31-.08,1.12l0-.35c0,1.45,0-.1,0,1.45.06.27.09-.47.15-.2,0-.51,0-.75.05-1.26.13-.91,0,2.31.1,1.09,0-.61.09-1.77.12-1.15l-.05,1c.06.11.09-1.49.13-.79,0,.41-.07.34-.06.47,0,.82.05-.59.09-.59l0,.92c.07-.14.17-.8.25-1,0,.28,0,.56,0,.84.11-.45.2.12.27.67l.07-.79s0,.36,0,.51c0,.3,0-.5,0-.81a3.12,3.12,0,0,1,0,.69c.09-.67.23-1.44.27-.59l0,.24c0,.32.11-1.62.14-.88l0,.14c.1.34.25-.38.29.82.06-1.14.1.51.16-1.08,0,.79,0,1.08.08,1.61,0,.08.07-1,.11-1.16l0,.84.07-.88v1l0-.21a6.07,6.07,0,0,1,0-.62c.06-.37.09.59.07,1l.13-.7a4.85,4.85,0,0,1-.06.67c.09-.85,0,.87.06.1,0-.19,0-.5,0-.67,0,.51.06.51.11.3l0,.58c.07.14.17-.27.25-.26a10.9,10.9,0,0,1,0-1.36l0,.88c0-.54,0-.33,0-1a10,10,0,0,1,0,1.28l0-.3c0,.26,0,.4,0,.73,0-.54,0,.89.1-.06v.26c.09,0,.14-.29.21-.33,0-.76,0-.59.09-1.2,0,.24.08.84.14.78.06-.38,0-.64.07-1.09,0,.69,0,.62,0,1.12.08-.11.1-.13.21-.69,0-.29,0-.41,0-.65a2.06,2.06,0,0,1,0,.63V45c.14-1,.17,2,.3.59v.07l.11-.75c0,.12,0,.52,0,.95.14-1.15.14.17.25-.6,0,2,.22-.13.25,1.17V46c0-.47,0,.28,0,.39a6.66,6.66,0,0,1,0-.69c.19-.58.34.71.5,1.15.06.13.13-2.48.17-1.33l-.05.89c.17-1.07.27,0,.43-.86a2.38,2.38,0,0,1,0,.47c0,.65.11,0,.13-.49,0,.06,0,.47,0,.74s.1-.82.09-.18a1.32,1.32,0,0,1,0,.26c0-.31.09.09.1-.66,0,.36.1-.33.13.11,0-.83.06.41.12-.77-.05,1.22,0,1,.1.41,0,.37,0,.39,0,.9,0,0,.08-.24.09-.87,0,1.46.18-1.17.15.7a9.45,9.45,0,0,1,.35-1.38c-.05,1.22-.11.12-.16,1.4.11-.5.2-1.54.28-1.24a4.88,4.88,0,0,1,0,.73c.11-.5.17.12.28-.54l0,.33s0,.18,0-.38l0,.15c0-.8.12-1.67.14-2.1-.09,1.59.06.4,0,2.41,0-.11,0-.37,0-.74a4.07,4.07,0,0,1,0,.75c.07-.3.07-.89.12-.88,0,.27,0,.37,0,.69,0-.52.09-1,.13-.82a1.64,1.64,0,0,1,0,.37c.08-.08.18-1.39.24-.88-.06,1.17,0,.39,0,1.39l.06-.29v-.49s.1-.72.12-.39l0,.42.07-.19,0-.39c0-.51,0-1.27.08-1a3.61,3.61,0,0,1,0,.61h0c0-.32.06-.66.08-.4s-.05,1.11-.05,1.33c.05-.85.1-.24.15-1.13,0,.21,0,.74,0,.85l0-.69a6.59,6.59,0,0,1,0,.75c.05.13,0-1.28.07-.73,0,.06,0,.16,0,.26,0,.29.14-.43.18-.09,0,1-.06.25-.07,1.11.09-.18.22-1.21.29-1v-.11c.07-1.44,0,.71.1,0,0,.11,0,.8,0,.64,0,.23.13-.35.23-.8l0,.37c0,.33.08.19.11.36a8.38,8.38,0,0,0,0-.84c0,2.1.25-1.12.29.63a1.82,1.82,0,0,0,0,.32l.09-.33c0-.63,0-.38,0-.87a2.15,2.15,0,0,1,.08-.65,10.45,10.45,0,0,0,0,1.35l0-.6c0,1.12,0-1.25.08-.5v.33c0-.17.06-.6.08-.51,0,.72,0,.34-.06.93,0,0,.12-1.36.12-.64,0,.2,0,.2-.06.4,0,.85,0,.63,0,.77v0l0,.38v-.23c.11-1.88.1-.34.2-1.57a13.6,13.6,0,0,0-.07,1.5,5.61,5.61,0,0,1,0,.71c0-.66,0,.52.1-.44a4.15,4.15,0,0,1,0,.68,6.17,6.17,0,0,0,0-.79c.09-.89.09,1.1.21-.13.09-.51.13-1.39.21-1.83,0,.42-.05,1-.05,1,0,.39,0,.32.09,0,0,.23,0,.43,0,.72,0-.07.05-1,.07-.57s0,.77-.06,1.06c0-.24.08-.73.12-1,0,.46,0,.7-.06,1a6.32,6.32,0,0,0,.14-1.14v-.26s0,.62,0,.75c0,.57,0-.25,0-.51l0-.17c0-1.55-.1.24-.14.15l.06-1.12-.08.93c0-.29,0-.92,0-1.09,0-.55,0,.4,0-.22a.87.87,0,0,1,0-.19l-.05.33c0-.24,0-.79,0-.63,0-.65-.12.84-.11,0v-.07c-.1.37,0,.82-.13,1.79l0-2,0,.83a2.24,2.24,0,0,1,0-.43c-.05.57,0,.36-.05.9,0-.76-.12.34-.08-1a7.23,7.23,0,0,1,0,.92c0-1.41,0,.24-.06-.41a8.88,8.88,0,0,0,0-1c-.06,1.23-.06-.28-.1,0,0,1-.08.4-.14.73a5.9,5.9,0,0,0-.1-.9V40.7c0,1-.08.8-.13,1,0-.59,0-.82.07-1.09h0a5.41,5.41,0,0,1-.06.6l0-.74s-.12.87-.16.37c0,.69,0,1.93-.1,2.39,0-.37,0-1,.06-1.17,0,0,0,.31,0,.15l0-.62c0-.28,0,.52,0,.46,0-.53,0-.38,0-.8,0,0,0,.22,0,0a5,5,0,0,1,0-.82,7.89,7.89,0,0,1,0,.79,8.77,8.77,0,0,1,0-.92,4.58,4.58,0,0,0-.07.78s0-.37,0-.59a3,3,0,0,0-.11,1v.09h0c-.11.79-.14-.46-.23-.12v-.27a3.6,3.6,0,0,0-.15.75,6.52,6.52,0,0,1,0-.8c0,.2,0,.5-.09,0s0-.41,0-.34c0-.23,0-.66-.1.07,0-.68,0-.86,0-.66v.49c0,.1,0,0-.06,0l0-.9c0-1.09-.23,1.86-.23,0,0,.62,0,.44,0,1.17,0-.12,0-1.41-.05-1.41,0-.5-.1,1.31-.14,1A14.15,14.15,0,0,1,60.28,42a12.8,12.8,0,0,1,0-1.6s0,.08,0,.18a3.07,3.07,0,0,0,0-.6l0,.32a4.55,4.55,0,0,1,0-.82,3.48,3.48,0,0,0,0,.7c0-.47-.08,0-.12-.33,0,.17,0,.55,0,.55-.07-.4-.06.6-.12.74,0-.49.05-1.17,0-.76a9.66,9.66,0,0,1,0-1.11c-.07.62-.08-.41-.1-.52l0-.26c0,.15,0,.15,0,.15v.64a2,2,0,0,1,0-.39c0,.42,0,1.07-.08,1.64,0-.32-.08.35,0-.5,0,.29,0-.85.08-1,0,.1,0,.1,0,0a1.18,1.18,0,0,1,0-.22c0-.76-.07,1-.13.94a4.75,4.75,0,0,0,0-.81,10.44,10.44,0,0,1-.06,1.17c0-.38,0,.27-.07.23l0,.18a2,2,0,0,1-.08.56c0-.37,0-.25,0-.42-.06.84,0-.87-.1-.31,0-.32,0-.9,0-1.12-.07.62,0-.66-.1-.15a8.23,8.23,0,0,1-.06,1.12l.1-.45-.09.93s.07-.4.08-.29a6.63,6.63,0,0,0,0,.9c0-1-.09.56-.11-.1l.06-1.59c0-.71-.14.81-.2.41v.28c0,.63,0,.08-.08.34,0-.53,0-.73,0-1.06a7.83,7.83,0,0,0-.1,1V39.9c-.06-.29-.13,1.52-.18,1.34,0-.58,0-1,.08-1.37,0,0,0-.11-.05.26,0-.33-.09.72-.09.21a5.57,5.57,0,0,1-.06.75c0-.11,0-.27,0-.27,0,.27,0,.36,0,1,0-1.66-.18.12-.18-1.31a1.08,1.08,0,0,1-.16.38c0-.16,0-.27,0-.21,0-.5-.09,1.53-.13,1a5.83,5.83,0,0,1,0-.79c.05-1.75-.09.24-.09-.79v-.1c0-.6-.1.66-.15.53s0-.15,0-.26a7.33,7.33,0,0,1-.21,1.43c0-.68,0-.36.05-1.06,0,.1,0,1.12-.09,1.32,0-.38,0-.71,0-1.45l.05,0c0-1-.06,0-.08-.14l0-.42c-.07.13-.11,1.19-.18,1.12v.31c-.08,1.05,0-.59-.08.19l0-1.06c0,.25-.13,1-.18,1.22,0-.79.12-1.19.17-1.66,0,0-.09.08-.12.6,0-.1,0-.36,0-.2a3.53,3.53,0,0,1-.17,1.23c.08-2.06-.12-.52-.09-2.13-.12.76-.17-.33-.28-.21,0,1.61,0,0-.09,1.69,0,.11,0,.08,0,0l0-1c0-.48,0-.36.05-.73-.05-.13,0-.7,0-1.14,0,.59,0,.84-.07.62v.76c-.1.88,0-1.39-.12-.52l0-.52a3,3,0,0,0-.22,1.31c0-.19,0-.64,0-.76s-.25,1.4-.29.58l0-.4c0,.12-.06.76-.07.35,0-.17,0-.4,0-.43,0,.14-.07.71-.09.47l0-.45c-.08-.53-.18,1.1-.27,1.38a8.39,8.39,0,0,0,0-1.77v-.17c-.1-.15-.22,1-.33,1.44,0-1.29-.19-.55-.26-1.28a8,8,0,0,1-.06,1.05c0-.24-.09.82-.05-.27v0c0-1.07,0-.78-.07-.82l-.06,1.43c0-2.08-.28.75-.26-1.11,0,.36-.07.35-.1.71l0-.76c-.06-.2-.09-.3-.17-.12l0-.55s-.13,2.21-.18,2.25l0-1.14c-.08,0-.12-1-.23,0,0-.17,0-.5,0-.54s-.11-.78-.15.79c0-1-.08-.1-.14.34l0-.75a12.06,12.06,0,0,1-.14,1.49,2.87,2.87,0,0,1,0-.41c0-.4,0,.71-.08.31l0-.48c0-.06,0,.2-.09.76,0,.3-.07-.2-.05-.88,0,.42-.06,1-.08.77s0-.41,0-.49c-.05-.51-.13.87-.15.13,0-.25,0-.37,0-.45a.13.13,0,0,1,.09.12c0-.69,0-.82.05-1.77-.05.52-.15,1.65-.18,1.32v-.31c0-.07,0,0,0,.11a.83.83,0,0,0,0-.21c0-.58,0-.31-.06-.34,0,.76-.05.63-.05,1.26a.21.21,0,0,1,0-.12.54.54,0,0,0,0-.08V40a.12.12,0,0,1,.05-.05c0,.38-.06.71-.07.28,0,.49-.06,1-.07,1.23,0-1.06,0-1.64,0-2.29a5.43,5.43,0,0,0-.26,1.7c0,.18,0-.41,0-.63a2.11,2.11,0,0,0,0-.33,4.23,4.23,0,0,0-.16,1.14c0-.45.06-.92,0-.76l0-.3c-.07-1.6-.3,2.53-.37.48,0,.13,0,.19,0,.35-.13-.9-.36.84-.47-.6,0-.29-.06.35-.11.83l0-.81-.08.94c-.09.68,0-2-.18-.71V41c0-.11-.11.32-.08-.31,0,.1,0,.57,0,.28l0-.42-.1.72c0-.31.07-1.69,0-1.78,0,.17-.14,1.24-.14,1.53a3.61,3.61,0,0,1,0,.69l0,.23c0,1.25-.11,2.54-.07,3.42l.07-.77v.61l0,0c0,.57,0,.07.07-.28,0,.32,0,.55,0,.67l.1-1.2c0,.49-.06,1,0,1.25,0-.56,0-1.1.07-1.47,0,.57,0,1,0,.55,0,.33,0,.53,0,.67a5.73,5.73,0,0,0,.11-.83c0,.71.09-.18,0,1,0-.28.08-.93.1-1-.09,1.43.08.09,0,1.62.07-1.28.13-.57.21-1.28,0,.1,0,.31,0,.24a6.67,6.67,0,0,1,0,.74c0-1.06.09-1.3.14-2,0,1-.06,1.24-.09,2.22,0-.85.1-.85.11-1.56,0,.63,0,.3,0,1.18a5.68,5.68,0,0,1,.09-1c0,.65,0,1.24,0,.83A6.86,6.86,0,0,1,52,46.56Zm1.16-2.25h0l0,0Zm.09,0s0,0,0,0a4.94,4.94,0,0,1,0-.52C53.22,43.93,53.24,44.08,53.24,44.3Zm0-5.27c0-.1,0,0,0,.2a.29.29,0,0,1,0,.09v.09C53.23,39.27,53.23,39.13,53.24,39Z"/><path class="cls-3" d="M53.18,40a.2.2,0,0,1,0,0v.17c0-.08,0-.16,0-.23Z"/><path class="cls-3" d="M61.35,41.45v0Z"/><polygon class="cls-3" points="54.44 45.8 54.45 45.61 54.43 45.77 54.44 45.8"/><path class="cls-3" d="M61.75,44.07v0Z"/><path class="cls-3" d="M62,44.25l0,.27A1.16,1.16,0,0,0,62,44.25Z"/><path class="cls-3" d="M62.11,44.63c0-.13,0-.23,0-.32h0Z"/><path class="cls-3" d="M59.45,45.43a0,0,0,0,0,0,0C59.42,45.61,59.43,45.55,59.45,45.43Z"/><path class="cls-3" d="M60.3,43.68c0,.14,0,.27,0,.36S60.28,44.11,60.3,43.68Z"/><path class="cls-3" d="M58.54,46.31h0Z"/><path class="cls-3" d="M60.22,44c0,.15,0,.12,0,0S60.24,43.91,60.22,44Z"/><path class="cls-3" d="M62.82,45v0Z"/><path class="cls-3" d="M62.83,44.91v0Z"/><path class="cls-3" d="M62.87,44.63l0,.19S62.86,44.85,62.87,44.63Z"/><path class="cls-3" d="M62.61,44.64v.28C62.6,44.86,62.61,44.77,62.61,44.64Z"/><path class="cls-3" d="M62.54,44.72c0,.06,0,.59.05.42v-.22C62.58,45.33,62.58,44.26,62.54,44.72Z"/><path class="cls-3" d="M62.39,41.31l0,.22a4.76,4.76,0,0,1,0-.76C62.43,39.89,62.46,41.43,62.39,41.31Z"/><path class="cls-3" d="M62.23,40.88a5.72,5.72,0,0,0,0-.6A3,3,0,0,0,62.23,40.88Z"/><path class="cls-3" d="M61,40.83l0-.69A5.71,5.71,0,0,0,61,40.83Z"/><polygon class="cls-3" points="60.61 44.39 60.62 44.82 60.65 44.19 60.61 44.39"/><polygon class="cls-3" points="60.65 39.46 60.66 39.37 60.61 39.62 60.65 39.46"/><path class="cls-3" d="M58.54,39.63l0,.86A6,6,0,0,0,58.54,39.63Z"/><path class="cls-3" d="M57.6,40.47c0-.43,0-.7,0-.28C57.57,40.24,57.58,40.58,57.6,40.47Z"/><polygon class="cls-3" points="54.93 38.98 54.95 38.7 54.91 38.94 54.93 38.98"/><path class="cls-3" d="M69.5,31c.17-.15.55-.52.46-.47l-.66.61Z"/><path class="cls-3" d="M70.59,29.74c-.33.28-.9.79-1.48,1.37l1.14-1c.09-.06-.18.22-.42.45.17-.16-.12.16.3-.22s.47-.55,0-.18Z"/><path class="cls-3" d="M70.07,27.24l-.06.08A.21.21,0,0,0,70.07,27.24Z"/><path class="cls-3" d="M69.44,26a.7.7,0,0,0,.15-.13A.87.87,0,0,0,69.44,26Z"/><path class="cls-3" d="M70,25.07l0,.06C70,25.06,70,25,70,25.07Z"/><path class="cls-3" d="M70.07,27.24l.17-.23C70,27.22,70.11,27.18,70.07,27.24Z"/><path class="cls-3" d="M68.84,31a1.37,1.37,0,0,0,.18-.15l-.08.06Z"/><path class="cls-3" d="M71,27.14h0l.27-.26Z"/><path class="cls-3" d="M71.43,27.37s-.53.5-.77.73a3.72,3.72,0,0,1,.39-.35C71.15,27.65,71.27,27.52,71.43,27.37Z"/><path class="cls-3" d="M71,28.82l.08-.07Z"/><path class="cls-3" d="M70.89,26.79l.19-.2Z"/><path class="cls-3" d="M57.76,23.34l.08-.12A.7.7,0,0,0,57.76,23.34Z"/><polygon class="cls-3" points="59.46 19.94 59.49 19.91 59.73 19.56 59.46 19.94"/><path class="cls-3" d="M70.3,24.07h0Z"/><path class="cls-3" d="M67,21.88c-.4.55-.62.62-1,1.24C66.09,22.89,66.71,22.25,67,21.88Z"/><path class="cls-3" d="M68.9,31s0,0,0,0S68.88,31,68.9,31Z"/><path class="cls-3" d="M65.9,23.12h0l0,.06Z"/><path class="cls-3" d="M69.25,23.73c-.08.11-.15.18-.21.26Z"/><path class="cls-3" d="M69.07,25l.05-.09C69.08,25,69.07,25,69.07,25Z"/><path class="cls-3" d="M68.25,24.28c0-.05.1-.13,0-.07l-.06.08C68.29,24.21,68.33,24.18,68.25,24.28Z"/><path class="cls-3" d="M68,24l-.1.12,0,0Z"/><path class="cls-3" d="M58.88,23.67l.38-.57C59,23.54,58.79,23.67,58.88,23.67Z"/><path class="cls-3" d="M69.15,30.74,68.9,31l0,0Z"/><path class="cls-3" d="M64.26,28.74l0-.12C64.25,28.68,64.24,28.73,64.26,28.74Z"/><path class="cls-3" d="M61.05,25.14,61,25.2S61,25.2,61.05,25.14Z"/><path class="cls-3" d="M64.09,28.59l.32-.41-.13.14Z"/><path class="cls-3" d="M59.26,23.09h0Z"/><path class="cls-3" d="M57.91,24.35a14,14,0,0,0,.92-1.25c.22-.19-.4.62-.67,1,.18-.19.74-.92.74-.87a4.06,4.06,0,0,1-.25.35c.5-.62.13,0,.75-.74l-.14.2L60.05,22s.4-.48,0,.05c0,0-.15.19-.28.35l.19-.21c-.52.78-.22.24-.62.81.22-.22.72-.82.6-.58-.53.75-.26.2-.69.89l.15-.32c-.8,1.21,0-.1-.83,1.19-.09.26.34-.34.25-.07.3-.42.45-.61.75-1,.62-.68-1.28,1.92-.5,1,.38-.48,1.06-1.42.75-.89l-.62.83c0,.13.91-1.18.56-.57-.25.32-.25.24-.31.35-.44.7.38-.45.41-.43l-.53.75c.15-.07.61-.56.78-.64-.16.22-.34.44-.49.68.36-.3.13.24-.11.74l.51-.61a3.81,3.81,0,0,1-.3.41c-.15.27.3-.4.5-.64a3.4,3.4,0,0,1-.4.57c.46-.5,1-1,.59-.3l-.15.17c-.14.3,1-1.25.63-.63l-.09.11c-.1.35.46-.14-.18.88.71-.9-.2.49.77-.77a12.52,12.52,0,0,0-.84,1.37c0,.08.63-.76.76-.87l-.5.66.57-.67-.59.81L61,25.2a4.49,4.49,0,0,1,.35-.5c.27-.27-.25.54-.51.87l.53-.48c-.21.27-.3.34-.44.5.57-.63-.53.7,0,.12.11-.15.31-.39.41-.52-.29.42-.23.46-.06.33L60.9,26c0,.17.32-.1.39,0a10.59,10.59,0,0,1,.84-1.07l-.53.7c.35-.41.18-.28.62-.78a9.28,9.28,0,0,1-.79,1l.22-.22-.46.58c.35-.42-.49.74.12,0l-.16.21c.08.07.3-.14.39-.13.48-.59.4-.44.8-.9-.1.23-.42.74-.32.73a10.78,10.78,0,0,0,.71-.83,10,10,0,0,1-.67.9c.14,0,.17,0,.62-.4a6.11,6.11,0,0,1,.39-.51c.08-.07-.15.26-.36.51l-.05,0c.75-.72-1,1.75-.06.7l-.05,0,.56-.51c0,.12-.35.38-.6.73.82-.82,0,.25.59-.29-1.25,1.62.29.05-.47,1.12l.3-.38c.33-.34-.15.23-.21.33.24-.29.26-.35.44-.54.54-.31-.12.82-.24,1.29,0,.15,1.65-1.86,1-.92l-.6.65c.82-.7.22.24.93-.34a4.32,4.32,0,0,1-.32.34c-.4.51.07.1.42-.29,0,.06-.31.36-.48.57s.61-.57.2-.07l-.19.19c.23-.23,0,.12.5-.45-.19.3.31-.18,0,.19.58-.61-.19.36.6-.52-.81.92-.58.81-.17.41-.25.26-.23.3-.58.67,0,0,.23-.12.64-.6-.92,1.15.9-.77-.32.66a6.9,6.9,0,0,1,1.2-.79c-.82.9-.18,0-1,.95.41-.3,1.16-1,1-.74a5.12,5.12,0,0,1-.52.53c.42-.3.08.22.6-.2l-.24.23s-.09.16.29-.25l-.12.1c.52-.61,1.19-1.19,1.48-1.49-1.1,1.14-.19.35-1.59,1.79.08-.07.27-.25.52-.52a5.09,5.09,0,0,1-.51.55c.26-.18.64-.62.68-.57l-.48.49c.37-.36.75-.73.64-.52a2.87,2.87,0,0,1-.26.26c.12,0,1.06-.92.79-.48-.82.83-.24.3-.92,1L66.4,29l.32-.37s.56-.46.36-.19l-.31.27.19-.07.23-.32c.39-.34.87-.93.72-.68a4.07,4.07,0,0,1-.36.49h0c.24-.22.49-.45.34-.24l-.92,1c.6-.6.24-.1.88-.73l-.59.61.49-.48a5.71,5.71,0,0,1-.5.55c0,.14.87-.94.54-.48l-.19.17c-.14.27.41-.21.23.09-.69.74-.22.13-.79.77.2-.06,1-.73.9-.49l.07-.09c1-1-.44.56.06.11-.08.07-.56.56-.45.45-.11.21.35-.16.74-.41l-.27.26c-.2.26-.06.21-.14.36.27-.26.24-.2.61-.59-1.38,1.59,1-.62-.17.71a1.27,1.27,0,0,0-.25.21l.31-.17c.44-.45.26-.27.59-.63a2.11,2.11,0,0,1,.51-.42,9.41,9.41,0,0,0-.94,1c.14-.14.29-.28.42-.42-.74.82.9-.88.42-.3l-.23.23c.13-.1.46-.39.41-.3-.5.52-.26.21-.68.63.06,0,1-.91.55-.37-.16.13-.18.11-.33.24-.57.63-.42.48-.49.6v0l-.22.32.15-.17c1.37-1.29.31-.17,1.24-1a11,11,0,0,0-1.07,1c-.15.17-.31.37-.48.53.49-.45-.33.4.38-.25a3.47,3.47,0,0,1-.47.51,5.84,5.84,0,0,0,.56-.56c.69-.59-.67.87.28.07.42-.29,1.06-.9,1.44-1.15a8.39,8.39,0,0,1-.71.65c-.25.3-.17.27.07.09-.17.15-.3.3-.51.51.07,0,.7-.65.45-.35l-.78.71.78-.59c-.32.32-.52.46-.74.66a4.78,4.78,0,0,0,.91-.7l.16-.2a7.26,7.26,0,0,1-.54.52c-.44.37.14-.21.33-.4l.14-.1c1.09-1.09-.26.1-.23,0l.82-.77-.7.61a8.63,8.63,0,0,1,.78-.75c.37-.42-.31.25.11-.21l.14-.13-.27.2c.18-.16.57-.56.47-.43.41-.5-.69.51-.1-.1l.06,0c-.34.2-.6.57-1.34,1.2l1.42-1.46-.6.57a1.7,1.7,0,0,1,.28-.32c-.42.37-.25.26-.64.62.5-.56-.35.15.58-.78a7.19,7.19,0,0,1-.66.64c1-1-.21.13.22-.36a5.22,5.22,0,0,0,.71-.69c-.89.85.13-.25-.06-.11-.7.69-.35.23-.63.41a4.69,4.69,0,0,0,.51-.75l.12-.12c-.71.69-.62.52-.8.63a9.84,9.84,0,0,1,.8-.75l0,0a3.53,3.53,0,0,1-.45.38l.53-.51c-.07,0-.7.54-.4.13-.49.49-1.31,1.41-1.69,1.69.26-.27.71-.73.83-.82,0,0-.24.2-.13.08l.46-.43c.17-.21-.38.37-.36.31l.56-.59s-.14.18,0,0a5.46,5.46,0,0,1,.52-.63,7.85,7.85,0,0,1-.57.55c-.07,0,.44-.47.61-.69a3.56,3.56,0,0,0-.59.52s.25-.28.4-.44c-.27.23-.17,0-.74.61l0,0,0,0h0c-.62.51.17-.46-.13-.28l.18-.19c-.25.18-.21,0-.64.43a5.24,5.24,0,0,1,.54-.6c-.17.11-.38.32-.12,0s.27-.31.27-.22c.12-.2.4-.52-.15,0,.49-.48.57-.65.41-.52l-.31.38c-.09.05-.07,0,0-.07l.63-.64c.68-.87-1.43,1.21-.23-.18-.46.43-.26.36-.79.88a6.85,6.85,0,0,1,.47-.6l.42-.51c.28-.42-1,.9-.78.6a10.32,10.32,0,0,1-1,1.05,10.17,10.17,0,0,1,1.08-1.18s0,.06-.11.14A2.55,2.55,0,0,0,70,25.4l-.22.23a3.22,3.22,0,0,1,.5-.66,2.3,2.3,0,0,0-.47.52c.27-.39-.06-.09.1-.36-.12.13-.37.42-.37.41.2-.36-.45.41-.6.46.31-.38.81-.84.48-.59a5.89,5.89,0,0,1,.76-.8c-.46.4.19-.38.24-.49l.2-.17c-.12.1-.12.09-.14.07l-.42.49a1.24,1.24,0,0,1,.23-.31c-.3.3-.71.79-1.13,1.19.2-.26-.3.2.28-.43-.14.27.57-.63.71-.69-.08.07-.08.05,0,0l.16-.16c.45-.61-.68.68-.73.61a3.09,3.09,0,0,0,.52-.62,7.13,7.13,0,0,1-.8.85c.21-.31-.23.17-.22.12l-.1.15a1.69,1.69,0,0,1-.43.37c.25-.28.19-.17.3-.3-.6.59.52-.71.09-.33.2-.25.61-.66.74-.84-.47.41.39-.53,0-.2a5.87,5.87,0,0,1-.76.81l.38-.26-.68.64s.32-.25.26-.16a6.44,6.44,0,0,0-.61.66c.62-.74-.45.36,0-.16l1.08-1.18c.42-.58-.66.51-.46.15l-.17.22c-.43.47-.1,0-.3.2.36-.4.48-.56.69-.81-.27.29,0-.08-.75.71l.43-.56c.13-.27-1.08,1.07-1,.88.41-.41.63-.72,1-1,0,0,0-.11-.22.16.21-.26-.53.49-.21.1-.17.16-.54.58-.53.53l.17-.2c-.17.2-.27.24-.64.69,1-1.29-.25,0,.64-1.17a1,1,0,0,1-.39.17c.11-.11.17-.2.14-.15.28-.42-1,1.12-.73.66.53-.68.34-.33.53-.59,1.15-1.33-.23.12.4-.69l.08-.07c.36-.48-.51.43-.48.29l.17-.2a6,6,0,0,1-1.09,1c.46-.51.26-.26.7-.79-.09.05-.72.85-.9,1,.24-.3.42-.57.9-1.14h.07c.6-.75-.08,0,0-.16l.27-.32c-.15.05-.84.85-.86.73l-.2.25c-.72.77.35-.47-.2.09l.69-.82c-.2.17-.76.71-.94.82.54-.58.86-.84,1.19-1.17,0,0-.13,0-.49.37.08-.07.26-.25.17-.12-.58.61-.88.89-.92.84,1.34-1.57.21-.51,1.2-1.77-.58.51,0-.4-.15-.39-1,1.26-.06,0-1.11,1.28-.09.06-.09,0,0-.05l.56-.82a6.13,6.13,0,0,1,.49-.55,9,9,0,0,1,.66-.93c-.37.46-.55.64-.44.44l-.44.62c-.64.62.81-1.12.18-.51l.36-.38c-.24.2-.14-.13-1,.86a6.7,6.7,0,0,1,.48-.59c0-.23-1.1.93-.66.24l.26-.31c-.09.08-.5.56-.27.23l.27-.33c-.1.1-.49.51-.37.31l.31-.34c.24-.49-.84.75-1.09.9a6.86,6.86,0,0,0,1-1.46l.1-.13c0-.21-.79.62-1.18.91.73-1.06.12-.59.47-1.24a9,9,0,0,1-.67.81c.13-.21-.57.6.11-.26v0c.64-.85.42-.67.4-.72L64.52,21c1.17-1.71-.73.41.35-1.11-.24.27-.27.24-.51.51l.47-.61c0-.21.08-.31-.12-.23l.35-.42c0-.07-1.39,1.71-1.46,1.72l.68-.92c-.1-.05.42-.91-.28-.15.1-.13.3-.39.34-.42s.32-.73-.61.54c.61-.82,0-.15-.33.18l.45-.6a9.73,9.73,0,0,1-1,1.14c.05-.09.35-.5.25-.33.2-.35-.45.55-.26.19l.3-.37c0-.08-.16.13-.51.56-.21.23,0-.21.43-.76-.25.33-.6.76-.51.58s.25-.33.3-.39c.23-.46-.62.63-.23,0,.14-.2.21-.31.26-.37s.06.12,0,.16c.41-.55.43-.69,1-1.43-.35.39-1.09,1.26-.94,1l.14-.2,0-.06c0-.06,0,0-.1.07.06-.1.1-.18.09-.19.33-.47.13-.29.12-.33-.44.61-.4.49-.74,1a.16.16,0,0,1,.09-.08l.06-.06,0,.05h.08c-.24.3-.45.55-.23.19l-.75,1c.59-.88.87-1.39,1.24-1.92a4.34,4.34,0,0,0-1.2,1.24c-.13.13.21-.35.34-.54s.09-.08.22-.24a3.1,3.1,0,0,0-.79.83c.21-.4.56-.72.4-.64l.19-.24c.78-1.4-1.69,1.92-.66.15-.06.11-.09.16-.18.3.34-.86-.83.44-.19-.85.12-.27-.25.25-.55.63l.45-.68-.58.75c-.46.52,1-1.74.18-.73l-.3.47c0-.11-.28.19.08-.32-.06.08-.33.46-.18.22l.24-.36-.49.55c.11-.29,1-1.39.91-1.52A11.15,11.15,0,0,0,60,19.15a4.25,4.25,0,0,1-.36.6l-.15.16C58.78,21,58,22,57.62,22.78l.48-.61-.33.52h-.06c-.3.5,0,.09.21-.19q-.27.41-.36.57l.73-1c-.28.41-.57.79-.7,1,.34-.45.6-.93.85-1.21-.3.49-.57.87-.27.49-.18.27-.3.43-.39.54a4.88,4.88,0,0,0,.55-.63c-.38.6.18-.1-.49.88a7.8,7.8,0,0,1,.62-.76c-.85,1.14,0,.12-.84,1.37.76-1,.43-.39.89-.94l-.15.19c0,.11-.25.43-.37.65.61-.87.8-1,1.2-1.56-.55.87-.74,1-1.29,1.82.49-.7.56-.66,1-1.25-.33.54-.15.27-.64,1,.77-1.08.16-.17.65-.82-.34.57-.7,1-.43.73A6.56,6.56,0,0,1,57.91,24.35Zm2.38-1.11h0l0,0Zm.1.05s0,0,0-.05a3.89,3.89,0,0,1,.31-.41A5.39,5.39,0,0,0,60.39,23.29ZM63.3,18.9c.07-.08,0,.05-.1.18l-.08.05-.06.07Z"/><path class="cls-3" d="M62.68,19.69l0,0-.09.14.15-.19Z"/><path class="cls-3" d="M70,27.34v0l-.07.08Z"/><polygon class="cls-3" points="60.72 25.36 60.84 25.21 60.73 25.34 60.72 25.36"/><path class="cls-3" d="M68.61,29.63l-.13.14Z"/><path class="cls-3" d="M68.68,29.94l-.17.21Z"/><path class="cls-3" d="M68.55,30.35l.24-.23h0Z"/><path class="cls-3" d="M65.64,28.78l0,0C65.5,28.89,65.55,28.86,65.64,28.78Z"/><path class="cls-3" d="M67.55,28.13l-.27.24C67.25,28.42,67.25,28.44,67.55,28.13Z"/><polygon class="cls-3" points="64.25 28.75 64.26 28.75 64.26 28.74 64.25 28.75"/><path class="cls-3" d="M67.26,28.33c-.1.12-.06.11,0,0S67.35,28.26,67.26,28.33Z"/><path class="cls-3" d="M68.92,31.21l0,0,.09-.09Z"/><path class="cls-3" d="M69,31.15l.07,0Z"/><path class="cls-3" d="M69.21,31l-.15.12S69.05,31.13,69.21,31Z"/><path class="cls-3" d="M69,30.77l-.2.19Z"/><path class="cls-3" d="M68.87,30.77c0,.06-.39.45-.25.35l.16-.16C68.48,31.24,69.21,30.46,68.87,30.77Z"/><path class="cls-3" d="M71.06,28.14l-.11.21a3.06,3.06,0,0,1,.55-.53C72.06,27.14,71,28.29,71.06,28.14Z"/><path class="cls-3" d="M71.2,27.69a3.39,3.39,0,0,0,.43-.42A2.14,2.14,0,0,0,71.2,27.69Z"/><path class="cls-3" d="M70.06,26.55l.49-.49A5,5,0,0,0,70.06,26.55Z"/><polygon class="cls-3" points="67.37 28.92 67.09 29.25 67.54 28.8 67.37 28.92"/><polygon class="cls-3" points="70.64 25.24 70.72 25.18 70.51 25.32 70.64 25.24"/><path class="cls-3" d="M68.45,23.56l-.55.65C68,24.11,68.65,23.39,68.45,23.56Z"/><path class="cls-3" d="M67,23.45c.26-.33.42-.56.13-.26C67.11,23.25,66.92,23.52,67,23.45Z"/><polygon class="cls-3" points="65.13 20.14 65.32 19.93 65.14 20.09 65.13 20.14"/><path class="cls-3" d="M79.84,27.63c.23.06.75.16.65.11l-.87-.19Z"/><path class="cls-3" d="M81.5,27.8c-.42-.11-1.16-.29-2-.44l1.48.37c.1,0-.29,0-.61-.09.22.06-.2,0,.35.12s.72.08.16-.08C81.11,27.71,81.34,27.77,81.5,27.8Z"/><path class="cls-3" d="M83.3,25.7h0Z"/><path class="cls-3" d="M84,24.28l.19,0Z"/><path class="cls-3" d="M85,24.16H85C85,24.17,85.09,24.17,85,24.16Z"/><path class="cls-3" d="M83.3,25.7h.28C83.3,25.65,83.37,25.69,83.3,25.7Z"/><path class="cls-3" d="M79.44,27.06l.23.07-.09,0Z"/><path class="cls-3" d="M83.9,26.47v0l.36.07Z"/><path class="cls-3" d="M84,27l-1-.21.51.12Z"/><path class="cls-3" d="M82.48,27.55l.1,0Z"/><path class="cls-3" d="M84.13,26.14l.27,0Z"/><path class="cls-3" d="M79.24,12.08h0Z"/><path class="cls-3" d="M83,11.3h0l.42,0Z"/><path class="cls-3" d="M86.05,23.8h0C86.12,23.83,86.11,23.82,86.05,23.8Z"/><path class="cls-3" d="M85.91,19.32c-.68,0-.86-.14-1.62-.11C84.59,19.22,85.47,19.35,85.91,19.32Z"/><path class="cls-3" d="M79.54,27.07s0,0,0,0S79.51,27.06,79.54,27.07Z"/><path class="cls-3" d="M84.29,19.21h0Z"/><path class="cls-3" d="M85.73,22.64l-.33,0Z"/><path class="cls-3" d="M84.56,23.33h0Z"/><path class="cls-3" d="M84.71,22.1c.06,0,.17,0,.07,0h-.1C84.79,22.09,84.83,22.1,84.71,22.1Z"/><path class="cls-3" d="M84.75,21.66H84.6l0,0Z"/><path class="cls-3" d="M79.66,13.29l.69,0C79.81,13.28,79.61,13.22,79.66,13.29Z"/><path class="cls-3" d="M79.86,27.15a1.89,1.89,0,0,1-.32-.08l0,0Z"/><path class="cls-3" d="M78.76,21.46l.12-.06Q78.76,21.42,78.76,21.46Z"/><path class="cls-3" d="M79.8,16.2h0Z"/><path class="cls-3" d="M78.78,21.2l.53,0-.2,0Z"/><path class="cls-3" d="M80.35,13.25Z"/><path class="cls-3" d="M78.53,12.9a12,12,0,0,0,1.56,0c.28.06-.74.06-1.25.1.27,0,1.19,0,1.15.07l-.43,0c.79,0,0,.14,1,.17h-.25l1.37-.05s.63,0,0,.06a2.3,2.3,0,0,0-.45,0l.29,0a7.9,7.9,0,0,1-1,0c.31.05,1.08.09.82.15-.92,0-.31-.1-1.13,0l.35-.08c-1.44.1.1-.05-1.44,0-.27.1.47.08.2.18l1.27,0c.92.11-2.31.17-1.08.22.61,0,1.77,0,1.16.07h-1c-.1.08,1.49,0,.79.12-.4,0-.34-.06-.46,0-.82.08.59,0,.59.08l-.92,0c.14.08.81.17,1,.27-.27,0-.56,0-.84,0,.46.12-.11.28-.65.4l.79,0a3.66,3.66,0,0,1-.51,0c-.3,0,.5,0,.81,0a2.7,2.7,0,0,1-.69,0c.67.07,1.45.23.6.32l-.24,0c-.32.07,1.63.08.89.14h-.14c-.34.15.38.32-.82.43,1.15,0-.51.15,1.09.17a15.49,15.49,0,0,0-1.61.16c-.07,0,1,.06,1.16.11h-.83l.87.06-1,0,.22,0a3.25,3.25,0,0,1,.61,0c.38.06-.58.13-1,.12l.7.15a5.1,5.1,0,0,1-.66-.05c.85.09-.88,0-.1.08.19,0,.5,0,.67,0-.51,0-.51.09-.3.16l-.58,0c-.15.1.27.22.26.33a9.43,9.43,0,0,1,1.36,0h-.88c.54,0,.33,0,1,0a8.23,8.23,0,0,1-1.28,0l.3.06-.74,0c.55,0-.88.06.07.12h-.27c0,.11.3.17.34.27.76,0,.59.06,1.2.11-.25.06-.85.11-.79.2.38.07.65,0,1.1.08a8.39,8.39,0,0,1-1.13,0c.11.11.13.13.69.29a4.54,4.54,0,0,1,.64,0c.11,0-.29,0-.62,0h-.07c1,.2-2,.23-.6.41h-.07l.75.16c-.13.05-.52-.06-1,0,1.14.19-.18.18.58.33-2-.05.13.29-1.18.31l.48,0c.47.06-.28,0-.39,0,.37,0,.43,0,.69,0,.57.28-.73.44-1.18.64-.14.07,2.47.25,1.32.27l-.89-.11c1,.27-.06.36.82.61a3,3,0,0,1-.46-.07c-.65,0,0,.13.48.18-.06,0-.48,0-.75,0s.82.17.17.12a1.18,1.18,0,0,1-.25,0c.31.06-.09.11.65.15-.36,0,.32.16-.12.17.83.12-.41.07.76.2-1.21-.13-1,0-.42.12-.37-.06-.39,0-.89-.08,0,.05.23.12.85.18-1.46-.07,1.15.3-.71.14a6.55,6.55,0,0,1,1.33.56c-1.21-.15-.1-.16-1.38-.3.49.18,1.52.37,1.21.45a5.27,5.27,0,0,1-.72-.11c.48.18-.14.21.5.4a2.61,2.61,0,0,1-.32-.06s-.19,0,.36.09l-.14,0c.8.07,1.65.3,2.07.35-1.57-.23-.41.06-2.39-.25a5,5,0,0,0,.73.12,3.16,3.16,0,0,1-.74-.09c.29.12.88.16.85.23L79.59,23c.51.1,1,.21.79.24a1.75,1.75,0,0,1-.36-.07c.07.11,1.36.36.84.4-1.15-.19-.38,0-1.38-.14l.29.1.49,0c0,.05.69.2.36.19l-.41-.09.18.12h.38c.51.12,1.27.17,1,.2a4,4,0,0,1-.61,0h0c.31.07.64.14.39.15L80.21,24c.83.14.21.15,1.1.31l-.84-.13.67.12a6.27,6.27,0,0,1-.74-.08c-.13,0,1.27.16.71.17l-.25-.06c-.3,0,.4.23.06.26-1-.13-.24-.11-1.09-.21.17.14,1.17.42.91.5h.12c1.41.24-.71,0-.06.14-.1,0-.78-.14-.62-.12-.24,0,.32.21.75.4l-.36-.07c-.34,0-.21.08-.38.1a5.17,5.17,0,0,0,.82.17c-2.09-.2,1.07.47-.68.31a1.18,1.18,0,0,0-.31-.08l.31.17c.62.1.38.05.86.11a2,2,0,0,1,.63.19,7.37,7.37,0,0,0-1.33-.22l.59.11c-1.11-.13,1.23.23.48.18l-.32-.06c.16.06.58.16.48.18-.71-.12-.32-.09-.91-.2,0,.05,1.33.33.62.25-.2-.06-.2-.09-.39-.14-.84-.11-.63-.06-.77-.06H79.9l.23,0c1.84.4.31.18,1.51.48a11.33,11.33,0,0,0-1.46-.29,5.74,5.74,0,0,1-.71-.09c.64.16-.52,0,.42.19a3.35,3.35,0,0,1-.68-.09,6.09,6.09,0,0,0,.77.14c.88.24-1.1,0,.09.29.48.19,1.35.38,1.77.54a7.14,7.14,0,0,1-.94-.2c-.39,0-.32,0,0,.12a7.12,7.12,0,0,0-.71-.13c.07,0,.94.21.55.18l-1-.24.93.31c-.45-.08-.68-.16-1-.23a4.48,4.48,0,0,0,1.09.36l.26,0s-.61-.12-.74-.15c-.55-.16.26,0,.52,0l.16.06c1.52.27-.22-.17-.12-.21l1.1.24-.9-.24a7,7,0,0,1,1.06.22c.56.06-.38-.12.23,0l.19,0-.32-.11a6,6,0,0,1,.62.14c.65.05-.8-.28,0-.15l.07,0A16.8,16.8,0,0,0,81.14,27l2,.33-.81-.17a1.68,1.68,0,0,1,.42.05c-.54-.14-.35-.06-.87-.18.75.09-.32-.21,1,0a7.21,7.21,0,0,1-.91-.18c1.4.25-.22-.11.42,0a5.17,5.17,0,0,0,1,.2c-1.21-.26.28-.05.06-.14-1-.18-.39-.16-.7-.29a4.83,4.83,0,0,0,.92,0l.16,0c-1-.18-.78-.22-1-.3a10.81,10.81,0,0,1,1.07.22v0a3.35,3.35,0,0,1-.58-.16l.73.14c0-.07-.84-.28-.34-.27a23.69,23.69,0,0,1-2.35-.42c.37.06,1,.16,1.15.21-.05,0-.3-.08-.14-.07l.61.14c.28,0-.51-.11-.45-.12l.8.11s-.22,0,0,0a3.38,3.38,0,0,1,.82.05,5,5,0,0,1-.77-.16,7.31,7.31,0,0,1,.91.1,4.17,4.17,0,0,0-.77-.19s.38,0,.59.07c-.34-.09-.07-.16-.92-.27h-.09c-.76-.23.49-.14.17-.3l.26,0a2.51,2.51,0,0,0-.72-.3,7.62,7.62,0,0,1,.8.09c-.19-.07-.48-.13,0-.13s.42.05.33.1c.24,0,.67,0,0-.15.68.13.86.08.66,0L84,25c-.09,0,0-.06,0-.09l.88.15c1.1,0-1.8-.5,0-.33-.62-.12-.45,0-1.17-.13a5.46,5.46,0,0,1,.76,0c.33,0,.66,0,.66,0,.5,0-1.29-.26-.94-.29a11.4,11.4,0,0,1-1.46-.25,8.14,8.14,0,0,1,1.59.19s-.07,0-.18,0a2.05,2.05,0,0,0,.59.11l-.31-.06a3,3,0,0,1,.82,0,1.93,1.93,0,0,0-.69-.09c.47,0,0-.11.35-.15a4.65,4.65,0,0,1-.54-.06c.4-.06-.6-.13-.73-.23.49,0,1.15.17.76,0a5.93,5.93,0,0,1,1.1.16c-.6-.16.42-.08.54-.11l.25.07c-.15,0-.14-.06-.14-.08l-.64-.06a1,1,0,0,1,.39,0c-.42-.08-1.06-.12-1.63-.24.33,0-.33-.13.51,0-.3.06.85.1,1,.2-.1,0-.1-.05,0-.05a1.06,1.06,0,0,1,.22,0c.77,0-1-.16-.92-.25a2.75,2.75,0,0,0,.81.06,6,6,0,0,1-1.16-.16c.38,0-.27-.1-.22-.12h-.18a1.23,1.23,0,0,1-.55-.15c.37,0,.25.07.42.08-.84-.15.88,0,.32-.13.33,0,.89.1,1.12.1-.61-.14.66,0,.16-.13A5.71,5.71,0,0,1,84.74,23l.44.18-.92-.19s.39.12.28.13a4.43,4.43,0,0,0-.89-.12c1,.06-.55-.17.1-.15l1.59.19c.71,0-.8-.25-.39-.32h-.28c-.62-.09-.08-.08-.33-.15.53.06.73.06,1.06.08a5.9,5.9,0,0,0-1-.21l.7,0c.3-.06-1.5-.27-1.31-.34a13.58,13.58,0,0,1,1.36.2s.11-.05-.26-.09c.34,0-.7-.16-.2-.13a4.31,4.31,0,0,1-.73-.13l.26,0a6.69,6.69,0,0,0-.94-.12c1.66.08-.1-.26,1.33-.2a1.05,1.05,0,0,1-.37-.24l.21,0c.5,0-1.52-.19-1-.23a4.33,4.33,0,0,1,.79.1c1.75.15-.23-.14.79-.11l.11,0c.59,0-.66-.18-.52-.24l.26,0a5.06,5.06,0,0,1-1.41-.35,9.11,9.11,0,0,0,1,.11c-.09,0-1.12-.08-1.31-.16.38,0,.71,0,1.45,0l0,.07c1,0,0-.09.14-.11l.42,0c-.13-.11-1.18-.19-1.1-.29h-.32c-1-.14.59,0-.18-.12l1.06.06c-.25-.05-1-.2-1.21-.28a16.56,16.56,0,0,1,1.65.29s-.07-.14-.59-.2c.1,0,.36.07.19.07-.83-.11-1.24-.2-1.21-.27,2.06.16.53-.15,2.14-.1-.76-.18.34-.24.23-.4-1.61,0,0,0-1.7-.14-.1,0-.07-.05,0-.05l1-.05c.48,0,.36.06.73.08a9.15,9.15,0,0,1,1.14,0c-.59,0-.84-.08-.61-.11l-.77,0c-.87-.16,1.39,0,.53-.18l.52.07c-.31-.08,0-.22-1.3-.34a5.72,5.72,0,0,1,.76,0c.2-.13-1.4-.37-.58-.44l.4,0c-.11,0-.75-.08-.35-.09.17,0,.41,0,.43,0-.14,0-.7-.1-.47-.13l.46.05c.53-.11-1.1-.25-1.37-.37a5.76,5.76,0,0,0,1.77-.09h.17c.15-.15-1-.3-1.44-.45,1.29-.05.55-.29,1.28-.41a8,8,0,0,1-1-.06c.24,0-.82-.11.27-.08h0c1.07,0,.79-.07.82-.13l-1.43,0c2.08-.11-.76-.38,1.1-.43-.35,0-.35-.08-.71-.12h.77c.2-.09.29-.14.11-.26l.55,0c.05-.06-2.21-.1-2.25-.16h1.14c0-.11,1-.23,0-.34a3.8,3.8,0,0,1,.54,0c0-.05.78-.21-.79-.18,1,0,.1-.12-.35-.18H86a8.14,8.14,0,0,1-1.49-.11c.1,0,.6,0,.41,0,.39-.06-.71,0-.31-.11l.48,0c.05-.05-.2-.05-.76-.07-.31,0,.19-.12.87-.13-.42,0-1,0-.78-.07h.5c.51-.1-.88-.13-.14-.21a3.55,3.55,0,0,0,.45,0c0,.08-.06.14-.12.14.7,0,.82-.08,1.78,0-.53,0-1.66-.11-1.34-.18h.32c.07,0,0,0-.11,0a.45.45,0,0,0,.2-.06c.58,0,.31-.08.34-.11-.76,0-.64,0-1.26,0a.16.16,0,0,1,.12,0h0a.22.22,0,0,1,0,.08c-.38,0-.71,0-.29-.08l-1.22,0c1-.06,1.62-.16,2.28-.18a3.94,3.94,0,0,0-1.72-.25c-.18,0,.41,0,.64-.06a2,2,0,0,0,.32,0,2.52,2.52,0,0,0-1.14-.14c.45-.08.92,0,.75-.08h.31c1.58-.24-2.56-.21-.52-.48l-.35,0c.89-.27-.86-.43.56-.73.28-.08-.36-.05-.84-.07l.81-.05-.94,0c-.69-.06,2-.27.68-.33l-.55.05c.1-.05-.33-.12.3-.15-.1,0-.57,0-.28,0l.42,0-.73-.06c.3-.1,1.69-.09,1.77-.22a12.81,12.81,0,0,0-1.54,0,2.47,2.47,0,0,1-.69.09l-.22,0c-1.26.07-2.54.12-3.42.27l.78,0-.61.06,0-.06c-.57.07-.07.06.28.06l-.67.07h1.21c-.49,0-1,0-1.25.09.56,0,1.1-.09,1.47-.07-.57.07-1,.09-.54.1-.33,0-.53,0-.68,0a4.77,4.77,0,0,0,.84.05c-.7.08.19.11-1,.17a6.77,6.77,0,0,1,1,0c-1.43,0-.08.12-1.61.18,1.29,0,.58.12,1.29.16-.1,0-.3,0-.24,0a4.39,4.39,0,0,1-.73.11c1.06,0,1.3,0,2,0-1,.09-1.25,0-2.23.08.86,0,.86,0,1.57,0a10.87,10.87,0,0,1-1.18.1c1.33-.05.23,0,1,0-.65.08-1.24.06-.83.11A6.44,6.44,0,0,1,78.53,12.9Zm2.33,1.36h0l0,0Zm0,.13a.06.06,0,0,0,0-.06,5,5,0,0,1,.52,0A3.86,3.86,0,0,0,80.88,14.39ZM86.13,14c.11,0,0,0-.19,0l-.09,0h.28Z"/><path class="cls-3" d="M85.14,14h-.06l-.17,0h.23Z"/><path class="cls-3" d="M83.17,25.69h0Z"/><polygon class="cls-3" points="79.42 16.06 79.62 16.07 79.45 16.05 79.42 16.06"/><path class="cls-3" d="M80.49,25.94l-.19,0Z"/><path class="cls-3" d="M80.27,26.2H80A1.13,1.13,0,0,0,80.27,26.2Z"/><path class="cls-3" d="M79.86,26.36l.32.06h0Z"/><path class="cls-3" d="M79.52,22.72h0Z"/><path class="cls-3" d="M81.14,24l-.35-.09C80.72,23.93,80.71,24,81.14,24Z"/><polygon class="cls-3" points="78.74 21.46 78.76 21.46 78.76 21.46 78.74 21.46"/><path class="cls-3" d="M80.81,23.87c-.16,0-.13,0,0,.05S80.92,23.91,80.81,23.87Z"/><path class="cls-3" d="M79.34,27.25h0l.12,0Z"/><path class="cls-3" d="M79.42,27.28l.09,0S79.5,27.29,79.42,27.28Z"/><path class="cls-3" d="M79.69,27.37l-.18-.06S79.48,27.32,79.69,27.37Z"/><path class="cls-3" d="M79.74,27,79.47,27Z"/><path class="cls-3" d="M79.68,26.92c-.07,0-.59-.06-.43,0l.22,0C79.07,26.88,80.13,27,79.68,26.92Z"/><path class="cls-3" d="M83.1,27.18l-.24,0a3.56,3.56,0,0,1,.75.14C84.49,27.42,83,27.26,83.1,27.18Z"/><path class="cls-3" d="M83.56,27a2.49,2.49,0,0,0,.58.11A2.37,2.37,0,0,0,83.56,27Z"/><path class="cls-3" d="M83.86,25.24l.68.11A4.19,4.19,0,0,0,83.86,25.24Z"/><polygon class="cls-3" points="80.38 24.37 79.95 24.33 80.58 24.44 80.38 24.37"/><polygon class="cls-3" points="85.28 24.89 85.38 24.92 85.14 24.83 85.28 24.89"/><path class="cls-3" d="M85.41,21.8l-.85-.07C84.71,21.77,85.67,21.87,85.41,21.8Z"/><path class="cls-3" d="M84.67,20.41c.42,0,.7,0,.28-.05C84.89,20.38,84.56,20.39,84.67,20.41Z"/><polygon class="cls-3" points="86.25 16.51 86.53 16.54 86.29 16.49 86.25 16.51"/><path class="cls-3" d="M91,30.46c.18.14.61.46.54.37l-.7-.55Z"/><path class="cls-3" d="M92.43,31.31c-.32-.28-.9-.78-1.57-1.27.66.56.37.34,1.16,1,.07.08-.26-.14-.51-.34.17.15-.19-.08.25.27s.62.37.2,0C92.12,31.06,92.3,31.21,92.43,31.31Z"/><path class="cls-3" d="M95.07,30.59,95,30.52S95.05,30.59,95.07,30.59Z"/><path class="cls-3" d="M96.46,30.17a.89.89,0,0,0,.1.16A1,1,0,0,0,96.46,30.17Z"/><path class="cls-3" d="M97.19,30.87l0-.05Z"/><path class="cls-3" d="M95.07,30.59l.21.2C95.09,30.56,95.12,30.63,95.07,30.59Z"/><path class="cls-3" d="M91,29.68l.17.17-.06-.08Z"/><path class="cls-3" d="M95.1,31.52h0l.25.27Z"/><path class="cls-3" d="M94.9,31.92s-.51-.52-.75-.76l.36.38Z"/><path class="cls-3" d="M93.43,31.55l.07.07Z"/><path class="cls-3" d="M95.44,31.44l.18.2Z"/><path class="cls-3" d="M104.16,19.84a.43.43,0,0,0,.09.1Z"/><polygon class="cls-3" points="107.1 22.25 107.13 22.29 107.42 22.59 107.1 22.25"/><path class="cls-3" d="M98.05,31.48h0C98.08,31.55,98.08,31.53,98.05,31.48Z"/><path class="cls-3" d="M101.37,29.15c-.33-.59-.3-.82-.68-1.47C100.82,27.94,101.13,28.78,101.37,29.15Z"/><path class="cls-3" d="M91.07,29.73s0,0,0,0S91.05,29.7,91.07,29.73Z"/><path class="cls-3" d="M100.69,27.68h0l0-.06Z"/><path class="cls-3" d="M98.64,30.62l-.17-.29Z"/><path class="cls-3" d="M97.47,30l.06.07Z"/><path class="cls-3" d="M98.47,29.49s.09.13,0,0l0-.08C98.52,29.54,98.53,29.59,98.47,29.49Z"/><path class="cls-3" d="M98.84,29.29l-.08-.13v0Z"/><path class="cls-3" d="M103.59,20.76l.41.55C103.68,20.87,103.61,20.69,103.59,20.76Z"/><path class="cls-3" d="M91.31,30l-.24-.22,0,0Z"/><path class="cls-3" d="M95.7,24.17l.12.07C95.77,24.18,95.73,24.16,95.7,24.17Z"/><path class="cls-3" d="M101.31,22.26l0-.09S101.27,22.18,101.31,22.26Z"/><path class="cls-3" d="M96,24a3.87,3.87,0,0,0,.27.45l-.08-.18Z"/><path class="cls-3" d="M104,21.31h0Z"/><path class="cls-3" d="M103.21,19.65a13.87,13.87,0,0,0,.92,1.25c.12.27-.47-.56-.8-1,.13.23.66,1,.61,1s-.14-.17-.26-.34c.45.66-.07.1.48.94a2.08,2.08,0,0,1-.15-.2c.29.41.59.81.81,1.11,0,0,.33.54-.06,0a2.56,2.56,0,0,0-.25-.38l.15.24a8.89,8.89,0,0,1-.57-.85c.14.28.54.95.35.76-.53-.74-.1-.31-.62-.94l.26.25c-.88-1.15.08.06-.85-1.17-.21-.18.21.43,0,.25l.71,1c.42.82-1.38-1.86-.76-.8.33.51,1,1.48.57,1l-.56-.88c-.12,0,.79,1.27.33.73-.21-.34-.13-.32-.21-.41-.5-.66.29.51.26.53l-.51-.76c0,.16.29.77.3,1a6.54,6.54,0,0,0-.45-.71c.15.45-.27,0-.65-.38l.37.7a3.46,3.46,0,0,1-.27-.43c-.19-.24.26.43.4.71a2.63,2.63,0,0,1-.37-.59c.28.62.53,1.37,0,.68l-.1-.22c-.22-.24.74,1.45.32.84l-.06-.13c-.29-.22-.09.5-.76-.5.52,1-.37-.38.37,1-.45-.66-.56-.92-.91-1.34-.06-.05.42.9.46,1.07l-.39-.74.36.8-.48-.87.06.21a4.71,4.71,0,0,1,.31.53c.12.36-.39-.45-.59-.83l.2.69a5.72,5.72,0,0,1-.26-.61c.32.79-.41-.77-.11-.05.09.16.22.44.29.6-.26-.44-.33-.41-.28-.19l-.25-.52c-.16-.09-.08.34-.19.38a7.91,7.91,0,0,1,.6,1.22l-.4-.78c.22.5.18.28.43.9a9.45,9.45,0,0,1-.57-1.15l.09.29-.31-.66c.22.5-.47-.76-.09.11l-.11-.23c-.11,0,0,.34-.09.42.33.68.22.55.46,1.11-.17-.18-.5-.69-.55-.59a9,9,0,0,0,.43,1,10.51,10.51,0,0,1-.53-1c-.05.15-.06.18.06.75a6.17,6.17,0,0,1,.29.57c0,.11-.17-.24-.31-.54l0-.07c.31,1-1.17-1.68-.66-.32l0-.07.21.74c-.11-.08-.19-.49-.41-.86.36,1.11-.27-.06,0,.69-1-1.81-.22.26-.88-.87l.21.44c.17.44-.15-.24-.22-.33.16.34.21.38.31.62,0,.63-.8-.39-1.24-.67-.15-.07,1,2.27.41,1.29l-.35-.82c.28,1.05-.4.15-.18,1.06a2.27,2.27,0,0,1-.18-.43c-.33-.57-.16,0,.07.51,0,0-.22-.42-.36-.65s.28.79,0,.22a.92.92,0,0,1-.09-.24c.11.29-.16,0,.2.64-.23-.28,0,.37-.24,0,.35.76-.3-.3.23.76-.55-1.09-.57-.81-.35-.28-.16-.34-.22-.32-.44-.78,0,0,0,.27.32.82-.78-1.24.37,1.14-.57-.48A7.69,7.69,0,0,1,95.69,26c-.6-1.06.08-.18-.54-1.3.11.51.55,1.46.28,1.28a4.06,4.06,0,0,1-.33-.66c.12.5-.31,0-.09.69a1.59,1.59,0,0,1-.14-.3s-.15-.12.14.35L95,25.88c.44.67.77,1.5,1,1.86-.78-1.38-.31-.28-1.29-2a4.49,4.49,0,0,0,.36.65,3.11,3.11,0,0,1-.4-.63c.08.3.42.79.34.82-.14-.23-.18-.32-.34-.6.24.47.48.94.3.78a1.71,1.71,0,0,1-.18-.32c-.06.13.57,1.28.19.92a12.6,12.6,0,0,0-.8-1.14l.1.29.29.4c-.06,0,.3.66.07.42l-.19-.38v.23l.27.28c.23.47.71,1.06.49.87a3,3,0,0,1-.41-.45h0c.16.28.33.58.15.39l-.75-1.09c.45.71,0,.27.5,1l-.48-.7.37.58a5,5,0,0,1-.45-.6c-.15-.05.76,1,.36.64a2.65,2.65,0,0,1-.14-.23c-.25-.17.1.47-.18.25-.62-.8-.08-.25-.61-.92,0,.23.49,1.13.25,1l.09.07c.86,1.15-.51-.49-.15.08,0-.09-.48-.64-.38-.51-.22-.12.07.4.25.83l-.22-.29c-.25-.22-.23-.06-.39-.15a5,5,0,0,0,.53.67c-1.51-1.47.48,1-.79-.15a1.28,1.28,0,0,0-.2-.26l.13.35c.43.45.27.26.62.6a2.33,2.33,0,0,1,.39.54,7.93,7.93,0,0,0-.94-1l.4.44c-.81-.76.86.92.28.44l-.22-.24c.09.15.37.48.28.44-.52-.51-.21-.27-.62-.7,0,.07.88,1,.34.57-.13-.16-.1-.18-.23-.34-.63-.57-.48-.41-.61-.48h0L92,29l.18.14c1.29,1.38.14.35,1,1.27a9.82,9.82,0,0,0-1.07-1.05,4.79,4.79,0,0,1-.55-.46c.45.49-.43-.3.23.41a4.13,4.13,0,0,1-.54-.44c.11.18.35.3.59.53.6.66-1-.57-.12.36.31.42,1,1,1.25,1.37a7.09,7.09,0,0,1-.72-.64c-.33-.21-.3-.13-.1.1a6.33,6.33,0,0,0-.57-.45c0,.08.73.63.39.43s-.58-.5-.79-.7c.15.19.5.54.66.72a6.09,6.09,0,0,1-.75-.66,3.1,3.1,0,0,0,.79.84l.23.14a5.85,5.85,0,0,1-.6-.48c-.41-.39.25.11.46.27l.11.13c1.23.94-.11-.26,0-.26l.85.73-.68-.64a7.34,7.34,0,0,1,.83.7c.46.32-.28-.29.22.08a.72.72,0,0,1,.15.13l-.23-.25c.18.16.61.51.47.42.54.37-.56-.64.1-.11l0,.05c-.22-.33-.62-.55-1.29-1.25l1.56,1.31-.61-.56s.09,0,.33.26c-.39-.41-.27-.23-.65-.61.58.46-.15-.35.82.54a7.37,7.37,0,0,1-.67-.64c1,1-.13-.21.38.2a4.65,4.65,0,0,0,.71.7c-.87-.88.25.12.11-.07-.7-.68-.23-.34-.42-.62a6.18,6.18,0,0,0,.75.52l.12.12c-.68-.73-.51-.64-.61-.82.4.43.55.61.72.82l0,0a3.58,3.58,0,0,1-.37-.47l.5.55c0-.06-.52-.73-.13-.4a23.85,23.85,0,0,1-1.57-1.8c.25.28.68.75.76.88,0,0-.18-.25-.07-.14l.4.5c.21.18-.34-.41-.28-.38l.55.59s-.17-.15,0,0a4.25,4.25,0,0,1,.6.57,6.57,6.57,0,0,1-.5-.61c0-.06.43.47.64.66a4.73,4.73,0,0,0-.47-.62s.25.27.4.43c-.21-.28,0-.16-.53-.79l0,0v0h0c-.43-.67.44.22.3-.1l.16.2a2.56,2.56,0,0,0-.33-.7,4.62,4.62,0,0,1,.52.62c-.09-.19-.26-.43.05-.12s.26.32.17.3c.19.15.45.49.07-.13.39.56.54.67.44.49L96,30.63c0-.1,0-.07.08,0l.51.73c.72.83-.91-1.63.21-.18-.33-.53-.3-.33-.7-.95a5.27,5.27,0,0,1,.49.58l.41.52c.34.37-.69-1.13-.43-.89a8.73,8.73,0,0,1-.79-1.25,8.86,8.86,0,0,1,.91,1.32s0-.06-.11-.15a2.45,2.45,0,0,0,.31.51l-.17-.27a3.81,3.81,0,0,1,.52.64,2.6,2.6,0,0,0-.39-.57c.3.35.09,0,.32.18a3.61,3.61,0,0,1-.31-.46c.3.28-.29-.53-.3-.69.3.39.61,1,.45.61a6.87,6.87,0,0,1,.59.95c-.28-.56.31.28.4.36l.11.24c-.07-.14,0-.15,0-.15l-.35-.54a1.3,1.3,0,0,1,.23.31c-.2-.37-.57-.9-.84-1.41.19.26-.11-.34.34.38-.22-.21.45.72.46.88,0-.1,0-.1,0,0s.09.16.11.2c.46.61-.47-.84-.39-.86a3.31,3.31,0,0,0,.44.67,8.53,8.53,0,0,1-.59-1c.24.3-.09-.27,0-.24l-.12-.14a1.13,1.13,0,0,1-.22-.53c.19.32.1.24.19.38-.39-.75.52.7.28.18.19.27.46.78.59,1-.26-.57.38.54.19.06a5.19,5.19,0,0,1-.53-1l.12.45-.4-.85s.14.39.07.3a5.62,5.62,0,0,0-.44-.79c.52.82-.19-.53.18,0l.78,1.39c.42.58-.27-.79,0-.49L98,29.77c-.29-.56,0-.11-.08-.35.26.47.37.63.54.91a6.72,6.72,0,0,0-.42-.95l.38.6c.21.21-.63-1.39-.47-1.27.25.53.46.84.6,1.23,0,0,.1.07-.08-.26.17.29-.26-.67,0-.23a4.79,4.79,0,0,1-.3-.69l.12.24a6.72,6.72,0,0,0-.42-.85c.85,1.43.17-.23.89,1a1.18,1.18,0,0,1,0-.43c.07.14.12.23.09.19.29.41-.65-1.39-.32-.94.43.75.17.44.34.72.79,1.56,0-.26.5.63l0,.1c.3.51-.2-.65-.07-.57l.11.24A5.48,5.48,0,0,1,99,27.71a10.35,10.35,0,0,0,.45,1c0-.1-.5-1-.52-1.21.18.33.37.61.7,1.27l0,.07c.45.85.05-.07.16.07l.18.38c0-.16-.44-1.12-.31-1.1l-.15-.28c-.4-1,.3.51,0-.22l.48,1c-.08-.25-.33-1-.36-1.2.31.73.41,1.13.57,1.58,0,0,.08-.13-.13-.61,0,.1.13.34,0,.2-.32-.78-.44-1.17-.36-1.19.87,1.88.39.39,1.12,1.82-.2-.75.38.18.46,0-.73-1.43,0-.06-.69-1.55,0-.11,0-.09.06,0l.52.85c.23.42.12.34.29.68a9.18,9.18,0,0,1,.55,1c-.26-.53-.33-.77-.19-.59l-.38-.66c-.28-.84.67,1.21.4.38l.19.48c-.08-.3.19-.08-.32-1.3a4.52,4.52,0,0,1,.32.69c.22.12-.32-1.41.13-.72l.16.37c0-.12-.28-.7-.08-.35a3.72,3.72,0,0,0,.18.38c0-.13-.24-.66-.11-.47l.17.43c.35.42-.28-1.09-.3-1.39a5.79,5.79,0,0,0,.91,1.53l.07.15c.21.06-.18-1-.25-1.5.65,1.12.52.35,1,.93a6.45,6.45,0,0,1-.44-.95c.14.2-.29-.78.2.2h0c.5.94.44.65.51.65l-.64-1.28c1.08,1.78,0-.86.93.75-.13-.33-.09-.35-.23-.68l.36.68c.18.12.28.18.3,0l.24.5c.09,0-1-2-.94-2.05l.57,1c.1-.07.7.73.31-.23a4.19,4.19,0,0,1,.24.48c.06,0,.59.56-.21-.79.51.88.17,0,0-.4l.37.65a8,8,0,0,1-.64-1.36c.07.08.32.52.2.36.26.31-.32-.64,0-.33l.22.43c.09,0,0-.2-.31-.7-.12-.28.2.1.56.68-.2-.36-.46-.85-.33-.7s.21.36.25.43c.36.38-.33-.83.12-.24l.25.37c-.08,0-.16,0-.18,0a16.7,16.7,0,0,1,.94,1.5c-.22-.48-.74-1.5-.51-1.26l.14.2,0,.07c0,.05,0,0,0-.12.08.08.14.14.16.14.32.48.24.22.29.22a12.37,12.37,0,0,0-.69-1.06.19.19,0,0,1,0,.12l0,.07,0-.06a.26.26,0,0,1,0,.09c-.18-.34-.34-.62-.08-.29l-.62-1.06c.61.87,1,1.29,1.38,1.83a3.48,3.48,0,0,0-.69-1.59c-.07-.17.26.32.4.5s0,.12.14.29a2.24,2.24,0,0,0-.48-1c.32.33.49.77.48.58l.16.26c1.11,1.16-1.22-2.26.17-.75a2.41,2.41,0,0,1-.23-.27c.76.55-.1-1,1,0,.24.17-.16-.32-.44-.72l.54.61-.56-.77c-.38-.58,1.46,1.38.71.31l-.38-.4c.1.05-.11-.34.31.13-.06-.07-.37-.43-.16-.23l.29.31-.41-.61c.28.16,1.15,1.24,1.31,1.2a8.45,8.45,0,0,0-1-1.18,2.72,2.72,0,0,1-.52-.47l-.12-.18c-.87-.91-1.76-1.85-2.43-2.43l.49.59-.43-.43V20c-.42-.4-.08,0,.15.24l-.48-.47.78.91c-.34-.36-.65-.73-.86-.91.36.43.77.8,1,1.09-.41-.4-.71-.75-.41-.37-.22-.23-.35-.39-.44-.5a6.12,6.12,0,0,0,.49.67c-.49-.5,0,.2-.73-.69a7.77,7.77,0,0,1,.59.79c-.9-1.11-.13,0-1.11-1.17.81,1,.28.51.69,1.1-.06-.08-.19-.24-.14-.2s-.34-.35-.52-.52c.67.82.78,1,1.16,1.57-.67-.77-.76-1-1.38-1.74.54.67.48.71.93,1.26-.42-.47-.21-.22-.77-.9.81,1,.12.19.59.85-.44-.49-.77-1-.56-.62A6.55,6.55,0,0,1,103.21,19.65Zm.27,2.6h0v0Zm-.09.08s0,0,.06,0a2.69,2.69,0,0,1,.26.45A3.43,3.43,0,0,0,103.39,22.33Zm3,4.29c0,.1,0,0-.13-.15a.24.24,0,0,0,0-.1l0-.08Z"/><path class="cls-3" d="M105.94,25.76a.21.21,0,0,1,0-.06l-.11-.13.13.2Z"/><path class="cls-3" d="M95,30.51h0l-.07-.08Z"/><polygon class="cls-3" points="101.25 21.86 101.34 22.03 101.28 21.88 101.25 21.86"/><path class="cls-3" d="M92.7,29l-.15-.13Z"/><path class="cls-3" d="M92.32,29.17,92.09,29Z"/><path class="cls-3" d="M91.85,29.11a2.47,2.47,0,0,1,.23.23h0Z"/><path class="cls-3" d="M94.87,25.67a.08.08,0,0,0,0,0C94.81,25.49,94.82,25.55,94.87,25.67Z"/><path class="cls-3" d="M94.74,27.85c-.06-.13-.12-.25-.16-.32S94.5,27.49,94.74,27.85Z"/><polygon class="cls-3" points="95.69 24.17 95.69 24.18 95.7 24.17 95.69 24.17"/><path class="cls-3" d="M94.63,27.5c-.1-.11-.1-.07,0,0S94.68,27.61,94.63,27.5Z"/><path class="cls-3" d="M90.76,29.84h0l.09.07Z"/><path class="cls-3" d="M90.82,29.9l.06.07S90.89,30,90.82,29.9Z"/><path class="cls-3" d="M91,30.12,90.88,30S90.85,30,91,30.12Z"/><path class="cls-3" d="M91.28,29.76l-.21-.18Z"/><path class="cls-3" d="M91.3,29.62c-.07,0-.5-.33-.39-.19l.16.15C90.77,29.3,91.63,29.94,91.3,29.62Z"/><path class="cls-3" d="M94.11,31.56l-.21-.1a4.47,4.47,0,0,1,.56.52C95.16,32.5,94,31.54,94.11,31.56Z"/><path class="cls-3" d="M94.57,31.7a4.26,4.26,0,0,0,.43.41A2.38,2.38,0,0,0,94.57,31.7Z"/><path class="cls-3" d="M95.74,30.66l.42.55A6,6,0,0,0,95.74,30.66Z"/><polygon class="cls-3" points="93.9 27.59 93.62 27.26 93.98 27.79 93.9 27.59"/><polygon class="cls-3" points="96.92 31.48 96.97 31.57 96.86 31.34 96.92 31.48"/><path class="cls-3" d="M99.08,29.92l-.4-.75C98.73,29.32,99.17,30.17,99.08,29.92Z"/><path class="cls-3" d="M99.82,28.59c.2.38.35.61.19.22C100,28.77,99.79,28.49,99.82,28.59Z"/><polygon class="cls-3" points="104.08 28.09 104.19 28.36 104.13 28.12 104.08 28.09"/><path class="cls-3" d="M117.15,48a2.78,2.78,0,0,0,0-.66l-.07.89Z"/><path class="cls-3" d="M117,46.29a18.76,18.76,0,0,0-.16,2c.08-.85.07-.49.16-1.51,0-.11,0,.29,0,.61,0-.22,0,.2.08-.36s0-.72-.13-.15C117,46.69,117,46.46,117,46.29Z"/><path class="cls-3" d="M114.21,44.74l0,.11A.54.54,0,0,0,114.21,44.74Z"/><path class="cls-3" d="M112.44,44.15a.38.38,0,0,0,0-.19A1.08,1.08,0,0,0,112.44,44.15Z"/><path class="cls-3" d="M112.19,43.15s0,.05,0,.07S112.2,43.09,112.19,43.15Z"/><path class="cls-3" d="M114.21,44.74l0-.28C114.16,44.75,114.19,44.68,114.21,44.74Z"/><path class="cls-3" d="M116.52,48.43a1.94,1.94,0,0,0,0-.24l0,.1S116.52,48.38,116.52,48.43Z"/><path class="cls-3" d="M115,44.06h0q0-.15,0-.36Z"/><path class="cls-3" d="M115.66,44s-.06.72-.08,1a2.49,2.49,0,0,1,.06-.51C115.65,44.35,115.65,44.18,115.66,44Z"/><path class="cls-3" d="M116.55,45.35l0-.11A.81.81,0,0,0,116.55,45.35Z"/><path class="cls-3" d="M114.62,43.87c0-.11,0-.21,0-.27A2.62,2.62,0,0,0,114.62,43.87Z"/><path class="cls-3" d="M97.29,48.64s0-.08,0-.13A1.16,1.16,0,0,0,97.29,48.64Z"/><path class="cls-3" d="M96.79,44.85v0l0-.43Z"/><path class="cls-3" d="M111.68,42.15v0C111.7,42.08,111.69,42.1,111.68,42.15Z"/><path class="cls-3" d="M106.49,42.43c0,.68-.14.86-.1,1.62A12.78,12.78,0,0,0,106.49,42.43Z"/><path class="cls-3" d="M116.51,48.33s0,0,0,0S116.5,48.35,116.51,48.33Z"/><path class="cls-3" d="M106.39,44.05h0v.07A.22.22,0,0,0,106.39,44.05Z"/><path class="cls-3" d="M110.36,42.54c0,.13,0,.23,0,.33A2.83,2.83,0,0,0,110.36,42.54Z"/><path class="cls-3" d="M111.26,43.67v-.1A.45.45,0,0,0,111.26,43.67Z"/><path class="cls-3" d="M109.8,43.58c0-.06,0-.16,0-.06v.09C109.78,43.51,109.79,43.46,109.8,43.58Z"/><path class="cls-3" d="M109.28,43.56v.15l0,0Z"/><path class="cls-3" d="M98.89,48.37c0-.22,0-.45,0-.69C98.89,48.22,98.8,48.41,98.89,48.37Z"/><path class="cls-3" d="M116.54,48a2.6,2.6,0,0,1,0,.33s0,0,0,0S116.54,48.07,116.54,48Z"/><path class="cls-3" d="M109.45,49.56l-.07-.12C109.39,49.52,109.42,49.56,109.45,49.56Z"/><path class="cls-3" d="M102.64,48.46l0,.09S102.63,48.55,102.64,48.46Z"/><path class="cls-3" d="M109.12,49.54c0-.27,0-.42,0-.52a.84.84,0,0,0,0,.19Z"/><path class="cls-3" d="M98.91,47.67h0Z"/><path class="cls-3" d="M98.26,49.45a9,9,0,0,0,.14-1.55c.11-.28,0,.74,0,1.25.07-.26.17-1.17.21-1.13s0,.22,0,.43c.1-.79.19,0,.31-1v.24c0-.5,0-1,.06-1.36,0,0,.1-.63.08,0a2.06,2.06,0,0,0-.06.45L99,46.5a6.1,6.1,0,0,1-.1,1c.09-.3.21-1.07.25-.8,0,.91-.14.3-.11,1.12L99,47.47c0,1.45-.05-.1-.07,1.45.1.27.15-.46.25-.19,0-.51,0-.75.09-1.26.21-.91,0,2.31.18,1.1.06-.61.14-1.77.19-1.15l-.09,1c.11.11.15-1.48.22-.78,0,.41-.1.34-.09.46,0,.82.08-.58.14-.58l0,.92c.13-.14.29-.79.43-1a7.92,7.92,0,0,0,0,.85c.19-.45.34.13.47.68l.1-.79a2.24,2.24,0,0,1,0,.51c0,.31,0-.5.07-.81a2.2,2.2,0,0,1,0,.69c.14-.66.39-1.42.45-.57l0,.23c.07.33.19-1.61.23-.87l0,.14c.18.35.43-.36.51.84.09-1.14.16.52.26-1.07a10.54,10.54,0,0,0,.15,1.62c0,.07.11-1,.17-1.16l0,.83.11-.86v1l.06-.21a3.55,3.55,0,0,1,0-.61c.1-.38.15.59.13,1l.22-.69a5.24,5.24,0,0,1-.1.66c.14-.85,0,.87.1.1,0-.19,0-.49.05-.66,0,.5.11.51.19.31l0,.57c.12.15.29-.26.43-.24a6.8,6.8,0,0,1,.08-1.36l0,.88c.06-.54,0-.33.07-1a6.09,6.09,0,0,1-.07,1.29l.09-.3c0,.26,0,.4-.06.73.06-.54.07.89.16-.05v.26c.14,0,.23-.29.35-.32a10,10,0,0,1,.15-1.2c.07.24.14.85.25.79a8.54,8.54,0,0,0,.11-1.09,8.22,8.22,0,0,1,0,1.12c.13-.1.17-.13.36-.68,0-.28,0-.41,0-.64s0,.29,0,.62v.07c.23-1,.3,2,.52.61v.07l.19-.74c.06.12-.07.51,0,.94.22-1.14.25.19.42-.57,0,2,.37-.13.44,1.18l0-.48c.06-.47,0,.28,0,.39a4.67,4.67,0,0,1,0-.69c.33-.57.58.73.87,1.18.11.14.2-2.48.28-1.33l-.09.89c.29-1,.47.07.74-.83a2.51,2.51,0,0,1-.06.47c0,.65.18,0,.2-.49a4.83,4.83,0,0,1,0,.75c0,.38.17-.82.16-.17a1.18,1.18,0,0,1,0,.25c0-.31.14.09.15-.66.07.36.18-.32.23.13.09-.84.12.41.2-.77-.08,1.22.09,1,.17.42,0,.36,0,.38,0,.89.06,0,.13-.24.15-.86,0,1.46.29-1.17.25.71a6.43,6.43,0,0,1,.59-1.36c-.07,1.22-.19.11-.25,1.39.18-.49.33-1.53.47-1.23a3.88,3.88,0,0,1-.08.73c.18-.49.29.13.46-.53a1.57,1.57,0,0,1,0,.33s0,.19.08-.37l0,.15a20.29,20.29,0,0,1,.23-2.09c-.13,1.58.11.4-.07,2.4a5.66,5.66,0,0,0,.08-.73,3.11,3.11,0,0,1,0,.74c.12-.29.12-.88.2-.87,0,.27,0,.37-.06.69.07-.52.14-1,.21-.81a2.41,2.41,0,0,1,0,.37c.13-.08.29-1.38.4-.87a13.39,13.39,0,0,0,0,1.39l.09-.29V48c.06,0,.16-.7.2-.37l-.07.41.13-.18-.05-.39c.1-.52.07-1.27.14-1,0,.1.06,0,.07.61h0c0-.31.11-.65.14-.4s-.07,1.12-.07,1.33c.08-.84.16-.22.25-1.12,0,.21-.05.74-.05.85l.06-.68a3.71,3.71,0,0,1,0,.74c.09.13,0-1.28.12-.72a1.66,1.66,0,0,1,0,.26c.1.29.24-.42.32-.08,0,1-.1.24-.11,1.1.15-.18.36-1.2.49-1l0-.12c.1-1.42.06.72.17,0,0,.1-.06.79,0,.63.08.24.21-.34.38-.78l0,.36c0,.34.13.2.19.37a5.16,5.16,0,0,0,.07-.84c.08,2.11.42-1.1.5.65a.74.74,0,0,0,0,.32l.16-.33c0-.62,0-.38,0-.86a1.75,1.75,0,0,1,.12-.65,6.9,6.9,0,0,0,0,1.35c0-.19,0-.4,0-.6,0,1.11.08-1.25.15-.5l0,.33c0-.17.11-.6.14-.5,0,.72-.06.33-.09.92.06,0,.19-1.36.2-.63,0,.2-.07.2-.11.39,0,.85,0,.64.07.78v0l.08.39v-.23c.17-1.88.16-.34.33-1.57a9.75,9.75,0,0,0-.11,1.49,4.33,4.33,0,0,1,0,.72c.08-.66,0,.52.16-.44a3.23,3.23,0,0,1,0,.69,4.43,4.43,0,0,0,0-.79c.14-.89.15,1.1.35-.12.14-.5.21-1.39.34-1.83a5,5,0,0,1-.08,1c0,.39.09.32.16,0a5.32,5.32,0,0,0,0,.72c0-.06.09-1,.12-.56s-.06.76-.1,1c.06-.24.14-.73.21-1a6.88,6.88,0,0,1-.11,1,3.32,3.32,0,0,0,.24-1.13l0-.26a4.47,4.47,0,0,1,0,.75c-.08.57-.06-.25,0-.52l0-.16c0-1.55-.17.24-.24.14l.09-1.12-.13.93a8.31,8.31,0,0,1,.07-1.09c0-.55-.07.4-.08-.22,0-.1,0-.15,0-.19l-.07.33c0-.24,0-.8.06-.63-.06-.66-.2.83-.19,0V45a14.57,14.57,0,0,0-.21,1.78l0-2-.06.82a1,1,0,0,1,0-.42c-.08.56,0,.36-.07.89,0-.76-.2.34-.14-1a5.17,5.17,0,0,1-.06.91c.06-1.41-.09.24-.12-.41a3.9,3.9,0,0,0,.07-1c-.1,1.23-.1-.28-.16,0-.06,1-.13.4-.24.72a3.52,3.52,0,0,0-.19-.91v-.16c-.07,1-.14.8-.21,1a8.83,8.83,0,0,1,.11-1.09h-.06a2.73,2.73,0,0,1-.1.6l.05-.74c-.07,0-.19.86-.26.36a19.68,19.68,0,0,1-.16,2.38c0-.37,0-1,.09-1.16,0,0-.05.31-.06.15l.07-.63c0-.28,0,.53-.08.47,0-.54,0-.39,0-.81,0,0,0,.22.05,0a2.84,2.84,0,0,1-.06-.82,4.85,4.85,0,0,1-.07.79c-.08,0,0-.64,0-.92a2.89,2.89,0,0,0-.11.78,3.62,3.62,0,0,1,0-.59c-.06.35-.19.09-.19.94V45h0c-.17.78-.24-.47-.39-.13l0-.27c-.09.3-.18.17-.26.74a3.92,3.92,0,0,1,0-.8c-.07.19-.09.49-.15,0s0-.42.08-.34c-.06-.23-.06-.66-.18.06.07-.68,0-.86,0-.66l0,.49c0,.1-.07,0-.11,0l.07-.9c-.09-1.1-.37,1.84-.39,0-.07.63.06.45,0,1.18-.06-.13-.06-1.42-.09-1.42-.06-.5-.16,1.3-.24,1a8,8,0,0,1-.13,1.47,7.36,7.36,0,0,1,0-1.6s0,.08,0,.18a1.72,1.72,0,0,0,.06-.59l0,.32a3,3,0,0,1-.06-.83,1.64,1.64,0,0,0,0,.69c-.07-.47-.14,0-.22-.33a4.14,4.14,0,0,1,0,.55c-.12-.41-.1.6-.2.73,0-.49.09-1.16,0-.76a5.56,5.56,0,0,1,.07-1.11c-.12.62-.13-.41-.17-.53l0-.25c0,.15,0,.15-.07.14v.64a.85.85,0,0,1,0-.38c0,.42,0,1.07-.12,1.64,0-.33-.13.34-.09-.51.09.3,0-.85.13-1,0,.11,0,.1-.06,0a1.21,1.21,0,0,1,0-.23c-.06-.76-.1,1-.21.93a2.17,2.17,0,0,0,0-.8,5,5,0,0,1-.08,1.16c0-.38-.09.27-.13.23l0,.18a1,1,0,0,1-.13.56c0-.38.06-.26,0-.42-.1.84-.08-.88-.18-.32,0-.32,0-.9,0-1.12-.12.62-.06-.66-.18-.15a4.54,4.54,0,0,1-.09,1.11l.17-.44-.14.93s.11-.4.13-.29a4.44,4.44,0,0,0-.07.9c0-1-.15.55-.18-.1l.09-1.6c-.07-.71-.23.81-.34.4l0,.28c0,.63-.08.09-.14.34,0-.53,0-.73,0-1.06a5,5,0,0,0-.16,1l0-.7c-.09-.3-.2,1.51-.3,1.32.07-.58,0-1,.13-1.37,0,0-.06-.1-.08.27,0-.34-.14.71-.14.2a3.63,3.63,0,0,1-.1.74c0-.1,0-.26,0-.26a7.52,7.52,0,0,0-.08.95c0-1.67-.3.1-.32-1.33a1,1,0,0,1-.26.37c0-.15,0-.26,0-.2-.07-.51-.15,1.52-.23,1,0-.86.09-.46.07-.79.08-1.75-.14.23-.16-.79l0-.11c0-.59-.17.66-.26.53a2.42,2.42,0,0,0,0-.26,4.41,4.41,0,0,1-.35,1.42,7.34,7.34,0,0,0,.08-1.06c0,.1,0,1.12-.14,1.31,0-.38,0-.71,0-1.45l.08,0c0-1-.1,0-.13-.14l0-.42c-.12.13-.18,1.19-.3,1.11v.32c-.12,1,0-.6-.13.18l0-1.07a11.47,11.47,0,0,1-.3,1.22c.09-.79.2-1.18.28-1.65,0,0-.15.07-.2.59,0-.1.06-.36.07-.19-.1.83-.2,1.24-.28,1.22.13-2.07-.2-.54-.18-2.14-.19.75-.29-.35-.47-.23,0,1.61-.06,0-.14,1.69,0,.1-.06.08-.06,0l-.07-1a5.56,5.56,0,0,1,.08-.74,6.85,6.85,0,0,1,0-1.14c0,.59-.08.84-.12.62l0,.76c-.17.87,0-1.39-.21-.53l.07-.51c-.08.3-.24,0-.38,1.29a5.72,5.72,0,0,1,0-.76c-.14-.2-.43,1.39-.51.57l0-.4c0,.11-.09.75-.11.35,0-.17,0-.41,0-.43,0,.14-.11.7-.14.46l.06-.45c-.13-.53-.3,1.1-.45,1.36a5.3,5.3,0,0,0-.08-1.77v-.17c-.17-.16-.36,1-.55,1.43,0-1.3-.32-.56-.45-1.29a6.3,6.3,0,0,1-.09,1c0-.25-.15.82-.09-.27l0,0c0-1.07-.07-.79-.13-.82l-.09,1.42c0-2.08-.47.74-.46-1.12-.06.35-.11.34-.17.7l0-.77c-.1-.2-.15-.3-.3-.12l.06-.55c-.07,0-.21,2.2-.29,2.24l0-1.14c-.13,0-.21-1-.4,0a2.79,2.79,0,0,1,.06-.54c-.06,0-.2-.79-.26.78,0-1-.14-.11-.23.34l.05-.75a6.89,6.89,0,0,1-.23,1.48c0-.1,0-.6,0-.41,0-.4-.09.71-.15.3l.06-.47c-.07-.07-.08.19-.14.75-.06.3-.13-.2-.1-.88,0,.42-.1,1-.13.77a2.55,2.55,0,0,1,.05-.49c-.09-.52-.22.86-.26.12,0-.25,0-.38,0-.45s.16.07.15.12c0-.69,0-.82.08-1.77-.09.52-.25,1.65-.3,1.32v-.32c0-.07,0,0,0,.11,0-.11,0-.2-.05-.21,0-.58-.07-.32-.1-.35a12.54,12.54,0,0,0-.07,1.27.15.15,0,0,1,0-.12.45.45,0,0,0,0-.08V43a.31.31,0,0,1,.1,0c0,.38-.1.71-.12.28,0,.49-.09,1-.12,1.22,0-1.06-.06-1.63,0-2.29a3.46,3.46,0,0,0-.43,1.69c0,.18,0-.41,0-.63a1.68,1.68,0,0,0,.07-.33A2.43,2.43,0,0,0,99.44,44c0-.45.1-.91,0-.76l0-.3c-.13-1.6-.49,2.52-.62.46,0,.13,0,.19,0,.36-.23-.92-.62.81-.81-.63-.06-.3-.11.34-.18.82l0-.81-.13.93c-.16.68-.09-2-.31-.72v.55c-.05-.1-.18.32-.14-.31,0,.1-.05.57-.05.28l0-.43-.17.73c-.08-.32.11-1.69,0-1.78a10.11,10.11,0,0,0-.22,1.51,2.61,2.61,0,0,1,0,.7l-.06.22a28.17,28.17,0,0,0-.11,3.42l.13-.76v.61l-.07,0c0,.58.06.07.11-.27a5.27,5.27,0,0,0,0,.67L97,47.32a12.28,12.28,0,0,0,0,1.24c.07-.55,0-1.1.11-1.46,0,.57,0,1,0,.55,0,.32,0,.53-.06.67.06-.39.12-.16.18-.82,0,.7.15-.18.08,1a6.57,6.57,0,0,1,.16-1c-.14,1.42.14.09,0,1.62.12-1.28.22-.56.35-1.26a1.48,1.48,0,0,1,0,.24,5.77,5.77,0,0,1,.06.74,18.49,18.49,0,0,1,.23-1.95c0,1-.1,1.24-.14,2.22,0-.85.16-.85.18-1.56,0,.63,0,.31,0,1.18.08-1.32.06-.22.14-1,0,.66-.05,1.24,0,.84A4,4,0,0,1,98.26,49.45Zm2-2.19v0s0,0,0,0Zm.16,0a.08.08,0,0,0-.07,0,2,2,0,0,1,.05-.51A3.57,3.57,0,0,0,100.39,47.26Zm0-5.28c0-.1,0,.05,0,.2a.58.58,0,0,0-.05.09v.1C100.33,42.22,100.34,42.08,100.35,42Z"/><path class="cls-3" d="M100.25,43s0,.05,0,.05v.17a2,2,0,0,0,0-.23Z"/><path class="cls-3" d="M114.23,44.87v0Z"/><polygon class="cls-3" points="102.45 48.83 102.46 48.63 102.44 48.8 102.45 48.83"/><path class="cls-3" d="M114.94,47.52v0Z"/><path class="cls-3" d="M115.3,47.71l0,.27C115.32,47.82,115.31,47.75,115.3,47.71Z"/><path class="cls-3" d="M115.56,48.1c0-.13,0-.23,0-.33h0Z"/><path class="cls-3" d="M111,48.74s0,0,0,0S111,48.87,111,48.74Z"/><path class="cls-3" d="M112.44,47c0,.14,0,.28-.06.36S112.42,47.48,112.44,47Z"/><path class="cls-3" d="M109.46,49.57h0Z"/><path class="cls-3" d="M112.32,47.38c0,.16,0,.13.06,0S112.35,47.27,112.32,47.38Z"/><path class="cls-3" d="M116.77,48.51v0s0-.09,0-.12Z"/><path class="cls-3" d="M116.79,48.42l0-.09S116.8,48.34,116.79,48.42Z"/><path class="cls-3" d="M116.85,48.14l0,.19S116.83,48.36,116.85,48.14Z"/><path class="cls-3" d="M116.41,48.14l0,.27A1.47,1.47,0,0,0,116.41,48.14Z"/><path class="cls-3" d="M116.3,48.21c0,.07,0,.59.08.42v-.22C116.35,48.82,116.35,47.75,116.3,48.21Z"/><path class="cls-3" d="M116,44.79l.08.22a3.59,3.59,0,0,1,0-.76C116.06,43.37,116.12,44.91,116,44.79Z"/><path class="cls-3" d="M115.73,44.35a2.33,2.33,0,0,0,0-.6A1.75,1.75,0,0,0,115.73,44.35Z"/><path class="cls-3" d="M113.59,44.23l0-.69A3.11,3.11,0,0,0,113.59,44.23Z"/><polygon class="cls-3" points="112.99 47.77 113 48.2 113.06 47.57 112.99 47.77"/><polygon class="cls-3" points="113.02 42.84 113.04 42.74 112.96 42.99 113.02 42.84"/><path class="cls-3" d="M109.41,42.89l0,.85C109.41,43.59,109.47,42.64,109.41,42.89Z"/><path class="cls-3" d="M107.81,43.67c0-.42,0-.7-.07-.28C107.77,43.45,107.78,43.78,107.81,43.67Z"/><polygon class="cls-3" points="103.23 42.03 103.28 41.75 103.21 41.98 103.23 42.03"/><g class="cls-4"><image width="1341" height="4904" transform="translate(-165.65 114.46)" xlink:href="../../../../../../../Downloads/screencapture-aurora-db30bf-webflow-io-2023-09-18-12_40_29.png"/></g></svg>