<svg id="Capa_1" data-name="Capa 1" xmlns="http://www.w3.org/2000/svg" viewBox="0 0 34.12 31.77"><defs><style>.cls-1{fill:#fff;}</style></defs><path class="cls-1" d="M31.54,21.13c0,.12-.15-.13-.12,0S31.57,21.27,31.54,21.13Z"/><polygon class="cls-1" points="31.42 21.18 31.42 21.18 31.43 21.19 31.42 21.18"/><path class="cls-1" d="M32.61,23.49a.15.15,0,0,0,0-.16A.43.43,0,0,1,32.61,23.49Z"/><path class="cls-1" d="M1.57,24.91s2.92-10,6.52-10,6.54,10,6.54,10Z"/><path class="cls-1" d="M12.05,18.13c0,.12-.16-.13-.11,0S12.08,18.27,12.05,18.13Z"/><polygon class="cls-1" points="11.94 18.18 11.93 18.18 11.94 18.19 11.94 18.18"/><path class="cls-1" d="M3.23,21Z"/><path class="cls-1" d="M2.9,22v-.14c0-.05,0,0,.14-.1s0-.21,0-.28H3a1.45,1.45,0,0,0,.13-.46h-.1v-.13h0c.1,0,0,.11,0,.13a1.6,1.6,0,0,1,.11-.39s-.08.23,0,.12l-.09.14c.15,0,0,.1.11,0s0-.23.17-.4,0,0-.08-.08.25-.14.26-.37-.09-.12,0-.25v.09c.1-.18,0-.15.1-.32s0,.15,0,.12v-.18h0c.09-.19.14-.44.25-.64h0a4,4,0,0,1,.49-.79V18h0v-.09h0a1.52,1.52,0,0,1,.39-.67h0c.13-.11,0-.2.16-.29h0a2.37,2.37,0,0,1,.68-.73c0-.1.26-.22.19-.33a2,2,0,0,0,.4-.17.24.24,0,0,1,.11-.19h0v-.14h.09c.1-.07.3-.1.31-.07L7,15.1v.09c0,.1,0,0,.16,0h0a.69.69,0,0,0,.35,0h0a1.89,1.89,0,0,1,.67,0c-.08,0,0-.09,0-.09v.08s-.08,0,0-.08,0,.08,0,.09h.13s.15.16.23.13h0a2,2,0,0,1,.5.26h.17l.35.39h.13c.12,0,.11.17,0,.12a4.17,4.17,0,0,0,.43.41v0h0c.27.24.36.69.58.86h0l.18.2h0a5.18,5.18,0,0,0,.42.57,1.8,1.8,0,0,1,.36.86h0v.12h0a9.78,9.78,0,0,1,.67,1.56c0,.2.2,0,.23.31h-.09c.23.35.34.79.54,1.15h0s.12.31.16.29h0s.14.19.1.25h0s0,.25.13.19.12.26.12.4,0,.25.16.25,0,.28.09.36,0,.09,0,.07,0,.19.13.16c0,.23.21.42.07.4s.1.11,0,.11h-.23c0-.09.34,0,.25-.11a1.68,1.68,0,0,1-.67.1h-.91c.07,0-.21.12-.21.15s-.25,0-.12-.19h0a.6.6,0,0,1-.28.08h0a.39.39,0,0,1-.3,0h0a2.91,2.91,0,0,1-.66.08c0-.09,0,0-.1-.11h-.14a1.71,1.71,0,0,1-.32,0h0c-.12,0,0,.09-.14.08a.48.48,0,0,0-.18,0h0a.41.41,0,0,1-.22,0v-.09a.6.6,0,0,0-.36.07h0s0,.1-.14,0H8.62c-.19,0,.17,0,.11-.07a7.74,7.74,0,0,1-.83.07h0c0,.11-.18,0-.32,0h0a3.42,3.42,0,0,0-.64,0H6.55c-.36-.15-.67.08-1,0H5.4a.25.25,0,0,1-.17,0c.11,0,0-.07,0-.09h0s0,.09-.22,0H4.8v-.08c0-.08-.2.11-.3,0h.16a.34.34,0,0,0-.2,0H4.27c-.14.14-.28,0-.45.11.17-.08,0,0,0-.11s-.11,0-.09,0H3.46a1.63,1.63,0,0,0-.65,0,2.39,2.39,0,0,1-.44.14h0a.71.71,0,0,0-.29,0h0s0,.08-.16,0V24.6H1.74c.09,0-.3,0-.33.08h0a.15.15,0,0,1,.16,0H1.49c.08.11.28,0,.42,0v.08h.78c.24,0,0,0,.21-.14l.13.15h.62c.11,0-.14,0,0,.08s.22,0,.31,0h.37a.83.83,0,0,1,.44.08h.29c.11,0,0,0,0,.08h.09a.15.15,0,0,1,.13,0h0a1.14,1.14,0,0,1,.45,0s-.14-.14,0-.19,0,0,0,.09h0a.6.6,0,0,1,.19,0h.49q.36,0,.72,0h0a2.67,2.67,0,0,0,.4,0h.09a.61.61,0,0,1,.27,0H8.4c.28,0,.51-.12.73,0s-.16,0-.09-.07.26.09.31.09a.4.4,0,0,1,.34,0c.18.09,0-.09.09-.11s.17.09,0,.11H10a3.23,3.23,0,0,0,.44,0h.28c.17,0,0,.08.14,0s0,0,0,.09a.77.77,0,0,1,.37,0h.09v-.11s.21,0,.22,0,0,0-.15.08h.49c.08,0,0,0,0-.08s.14,0,.2,0h.55c.14,0,0,.08,0,.1H13c.17,0,0,0,0-.08h-.09a1,1,0,0,1-.24,0H13V25h1.8c.11,0,.15.08.14,0s-.1-.3-.19-.34v-.16c0-.29-.19-.22-.23-.43l.12.07c.13.08,0-.12,0-.12a.53.53,0,0,1-.08-.22c0-.06,0,0-.09-.09h0s0-.11-.08,0c0-.23-.18-.53-.15-.73l-.17-.4h0c0-.17-.14,0-.17-.27s0,.1,0,0-.11-.22,0-.37h0c0-.11-.14-.22-.19-.39h0a1.6,1.6,0,0,1-.3-.42h.1c.09,0,0,0-.14-.08s0-.15,0-.2V21a.27.27,0,0,0-.1-.25h0c-.09-.18-.17-.15-.24-.37h0c-.13-.08,0-.11-.11-.2h0c-.1-.12-.18-.23-.27-.36a1.79,1.79,0,0,1,.27.28.47.47,0,0,0-.19-.28c-.06,0,0,0,0,.1a.9.9,0,0,1-.25-.33c.16,0-.15-.39-.11-.54s-.24-.53-.42-.83c0,.17,0-.08-.14,0s0-.09,0-.11v-.23h0v-.2c0-.11-.07,0-.12-.11v.14c-.19-.17,0-.23-.2-.4h0a.71.71,0,0,0-.4-.44h0a7.91,7.91,0,0,1-.58-.7h0a.12.12,0,0,1-.12-.11h0a.39.39,0,0,1-.17-.14h0a1.88,1.88,0,0,0-.56-.41,2,2,0,0,0-.21-.32h0a2.05,2.05,0,0,0-.87-.37c-.13-.2-.68-.23-1-.26v.08c0,.07-.21.09-.21,0H7v.1c-.36,0-.75.41-.94.44l-.15.19h0a1.82,1.82,0,0,0-.45.38h0c-.11.11,0,.25-.11.35h0a1.46,1.46,0,0,0-.48.59h0s-.33.34-.2.37-.17.2-.2.32h0a.51.51,0,0,1,0,.3h0a.35.35,0,0,1-.13.23v-.08c-.08.11,0,.11,0,.21s-.14.18-.2.18a.17.17,0,0,1,0,.17h0a1.11,1.11,0,0,1-.22.42h0l.14-.25s-.11.1-.12,0A.94.94,0,0,1,3.8,19h0v.15a2.12,2.12,0,0,0-.12.21c0,.06,0,.09,0,0h0v-.16a.31.31,0,0,1,0,.19v.12c-.11,0-.23.2-.28.2a1.05,1.05,0,0,0-.16.62c0,.18,0,0-.09,0a.17.17,0,0,0,0-.1c0,.12-.14.34-.09.38s0-.1-.1.1H3c-.28.32-.09.66-.4,1h0c-.25.45-.33,1-.6,1.45v.24H2v.16c0,.22-.25.31-.25.59h0c0,.09,0,.3-.11.26h0v.25c0,.17-.11,0-.2.19s0,.31,0,.28a.08.08,0,0,1,.07-.09v.09s.16.14.28,0V25h0v0h0v-.17s0,.09.1,0-.1,0-.1-.08.1,0,.1-.13h0v-.26c0-.06,0-.25.15-.22a.74.74,0,0,1,0-.21c0,.15.09-.25.19-.18s0-.34.09-.52h0c0-.1.08-.11.11-.16s0-.19,0-.28,0,.11.14.09,0-.21,0-.18a.14.14,0,0,1,.12-.09c.13,0,0,0,0-.18s.1,0,.13-.14A.58.58,0,0,1,2.9,22Zm1.26-3.11Zm.14-.25v.11h0s0-.14,0-.17ZM3.68,19Z"/><polygon class="cls-1" points="3.71 19.08 3.69 19.09 3.73 19.08 3.71 19.06 3.71 19.08"/><polygon class="cls-1" points="6.77 15.64 6.75 15.64 6.74 15.66 6.77 15.64"/><path class="cls-1" d="M13.12,20.49a.15.15,0,0,0,0-.16Z"/><polygon class="cls-1" points="7.19 14.85 7.24 14.8 7.14 14.87 7.19 14.85"/><circle class="cls-1" cx="8.09" cy="10.39" r="4.8"/><path class="cls-1" d="M12.89,10.1s-.1-.09-.14,0,0,0,.11.11,0,.08,0,0v.09A.15.15,0,0,0,12.89,10.1Z"/><path class="cls-1" d="M10.92,6.42Z"/><polygon class="cls-1" points="12.64 9.56 12.65 9.59 12.64 9.56 12.64 9.56"/><polygon class="cls-1" points="11.83 7.18 11.85 7.2 11.88 7.2 11.83 7.18"/><polygon class="cls-1" points="12.9 10.39 12.9 10.41 12.93 10.41 12.9 10.39"/><path class="cls-1" d="M3.18,11.47c0-.11.1.12.13,0S3.18,11.34,3.18,11.47Z"/><path class="cls-1" d="M4.72,6.78Z"/><polygon class="cls-1" points="4.18 7.37 4.21 7.37 4.21 7.34 4.18 7.37"/><path class="cls-1" d="M11.57,13.35Z"/><path class="cls-1" d="M12,12.65v.12c0,.05,0,0-.14,0s0,.17,0,.22h0a.77.77,0,0,0-.16.32h.09v.08h0v-.11s0,.22-.15.27.11-.16,0-.11l.09-.08h0a.86.86,0,0,1-.22.25c-.12.09,0,0,0,.09s-.24,0-.31.17,0,.13-.09.17V14c-.12.1,0,.14-.15.2s0-.09,0-.09a.17.17,0,0,1-.11.14h0c-.14.08-.27.23-.42.33h0a1.72,1.72,0,0,1-.67.23v.08h0v.07h0a.82.82,0,0,1-.56.18h0c-.12,0-.12.12-.23.09h0a1.71,1.71,0,0,1-.78,0c0,.09-.26,0-.29,0A1.34,1.34,0,0,0,7.55,15H7.27V15h0l-.59-.2H6.52c.09,0,0-.08-.14,0h0a.54.54,0,0,0-.26-.16h0a5,5,0,0,1-.52-.26v.08h0v-.08H5.51s-.09-.16-.17-.12h0L5,13.94H4.83a3,3,0,0,0-.23-.35H4.49c-.11,0,0-.15,0-.12a2.47,2.47,0,0,1-.31-.34h0V13h0c-.21-.19-.14-.58-.31-.72h0l-.13-.17h0a.71.71,0,0,0-.19-.49c-.18-.16-.1-.52,0-.72h0v-.09h0a3.06,3.06,0,0,1,.21-1.27c0-.14-.14-.13,0-.31h0a3.7,3.7,0,0,1,.31-.92h0s.12-.2.09-.23h0s0-.17.09-.17h0s.13-.16,0-.16.11-.2.19-.25.17-.14.11-.2.18-.11.22-.19.07,0,.07,0L5.12,7s.2-.26.36-.21A3,3,0,0,1,6,6.31c0,.08-.21.14-.15.22a1.08,1.08,0,0,1,.45-.34h0a4,4,0,0,1,.56-.25H7a1.09,1.09,0,0,0,.1-.19s.21,0,.13.16,0,0,0-.08h0s0-.09.2-.11h0a.31.31,0,0,1,.22-.09h0a.93.93,0,0,1,.49-.11c0,.08.08,0,.08.09h.58a.25.25,0,0,1,.17,0v.1h.29s0-.11.13,0h0a.56.56,0,0,1,.42.12c.12.12-.13,0-.1,0a1.85,1.85,0,0,1,.61.17h0c.08-.09.11.11.23.11h0a4.43,4.43,0,0,0,.45.2h0l.23.2h0c.1.28.46.28.52.55h0l.15.14V7.1H12c-.08,0,0,0,0,.11h0c0,.14.09,0,.14.11h0a.13.13,0,0,1,.12.11c0,.11,0,0-.09,0s.18.08.18.17l-.09-.09a.48.48,0,0,0,0,.17h0v.14h0c.17,0,.14.17.28.25h-.11c-.11,0,0,.09,0,.09a.17.17,0,0,0,.11.15h0a.62.62,0,0,0,.19.45c.18.14.14.18.21.31s-.07,0-.07,0a.28.28,0,0,0,0,.22h0s.07,0,0,.13h-.1l.11.2h-.08c-.07,0,0,.22.11.23h0V9.73h0c.11-.08,0-.22,0-.33H13l-.1-.11H13c.09,0,0,0,0-.14h0s-.11-.2-.08-.28h0c-.08-.18,0,0-.17-.12l.09-.14h-.08c-.07,0-.11-.23,0-.3s0,.1,0,0v-.2h0a.2.2,0,0,0-.12-.22c-.13-.06-.11-.12-.2-.21s-.1-.22-.16-.33h0a.25.25,0,0,1-.2-.14h0c0-.08-.19-.12-.27-.25s0,.17-.15.1h0a.22.22,0,0,1,0-.16h0V6.79c0-.11-.08-.08-.11,0h0s-.22-.15-.2,0h0c-.19,0-.31-.23-.49-.31h0a1,1,0,0,0-.31-.11h0a.37.37,0,0,1-.2-.07h.1c.09,0-.13-.1-.25,0s0-.1-.13-.1H10c-.22-.14-.45,0-.59-.15s.12,0,0,.11-.53-.72-.56-.72h-.3c-.13,0,0,.08-.09.09s-.12-.09,0-.1H7.72c-.14,0,0-.1-.13,0h0a.86.86,0,0,1-.32,0H7.16v.12c0,.12-.16,0-.19,0s0,0,.11-.09H7c-.17,0,0,.07-.22.12h0v.09c0,.1-.11,0-.17,0h0l-.14.1h0a.57.57,0,0,0-.28.07h0a.41.41,0,0,0-.26.1c-.11.09,0,0,0,.09l.18-.12L6,6s.11-.09.15-.09h0a.51.51,0,0,1-.26.12V6c-.17,0-.22.19-.4.27h0a.18.18,0,0,0-.16.12c0,.13,0,0-.09,0a.11.11,0,0,0-.1.16h0c-.14.09,0,.2-.2.29s0,0,0-.12-.08,0,0,0,0,.14-.12.14,0,0,0,.11h0V7c-.19,0-.3.33-.45.39l-.21.3h0a.53.53,0,0,1-.07.25c-.08.1,0-.1,0,0a.31.31,0,0,1-.2.24h0c-.08,0,0,.21-.13.33h0a1.34,1.34,0,0,1,0,.4h0V9c0,.12-.09.09-.14.09V9c-.09,0,0,.14,0,.19h0v.37h0v.19h0v.36a.76.76,0,0,1,0-.3.57.57,0,0,0,0,.26V10a.62.62,0,0,1,0,.33c-.14,0,0,.34-.15.43s0,.47,0,.75c.1-.11,0,.08.14,0v.29h0V12c.1.17,0,.2,0,.37h0s.14.36.28.4h0c.09.24.34.44.4.63h0a.12.12,0,0,1,.11.1h0a.43.43,0,0,1,.14.13h0c.11.22.28.23.43.36s0,.23.1.29h0a2.32,2.32,0,0,0,.62.39c0,.17.42.32.62.48s0,0,.09,0,.17,0,.13.08h0c0,.09.12.14.21.17v-.09c.17.23.64.15.73.31h.2a1.49,1.49,0,0,0,.47.07h0c.11,0,.16-.14.26-.14v.08a1.26,1.26,0,0,0,.61,0H9s.37,0,.33-.09.21,0,.31-.08h0c0-.09,0-.12.18-.17H10c.09,0,.09,0,.12-.09s.19,0,.22,0a.15.15,0,0,1,.11-.11h0a.87.87,0,0,1,.34-.17h0l-.23.09s.14,0,0,.11.17-.22.28-.25h0a.25.25,0,0,0,.18-.08c.07-.07,0-.07,0-.07h0l-.12.07a.25.25,0,0,1,.12-.11v-.1h.31a.71.71,0,0,0,.33-.41c0-.15,0,0,.08,0h0c0-.08.22-.2.18-.26s0,.09.11,0h0c.31-.17.22-.51.55-.72h0A9.13,9.13,0,0,0,13.2,12v-.2h-.31v-.13c0-.18.23-.26.17-.49h0V11h0v-.2c0-.14.12,0,.14-.19s0-.23-.11-.2,0,.09,0,.09v-.09a.24.24,0,0,0-.25.11v.11h0v.08h0l.08.12h0c.09,0-.08,0,0,.11h0v.2s0,.2-.11.17a.48.48,0,0,1,0,.17c0-.12,0,.19-.16.14s0,.27,0,.41h0s0,.07-.1.1,0,.16,0,.24,0-.1-.14-.1,0,.17,0,.16,0,0-.11,0,0,0,0,.14-.1,0-.13.09S12,12.65,12,12.65Zm-1.74,1.88Zm-.19.09h0Zm.61.11Z"/><polygon class="cls-1" points="10.95 6.45 10.93 6.43 10.95 6.45 10.95 6.45"/><polygon class="cls-1" points="7.06 14.82 7.06 14.84 7.09 14.82 7.06 14.82"/><path class="cls-1" d="M6.75,6Z"/><polygon class="cls-1" points="12.69 9.9 12.69 9.93 12.7 9.93 12.69 9.9"/><path class="cls-1" d="M12.58,9.21a.43.43,0,0,0,0,.16h0S12.62,9.25,12.58,9.21Z"/><path class="cls-1" d="M12.59,8.55v.14h0C12.67,8.41,12.65,8.66,12.59,8.55Z"/><path class="cls-1" d="M12.42,8.07Z"/><path class="cls-1" d="M10.09,5.91Z"/><polygon class="cls-1" points="9.44 5.94 9.49 5.99 9.53 5.95 9.44 5.94"/><polygon class="cls-1" points="9.19 5.5 9.21 5.5 9.11 5.49 9.19 5.5"/><path class="cls-1" d="M4.22,7.23Z"/><path class="cls-1" d="M3.26,9.35a.12.12,0,0,0,0,.14Z"/><polygon class="cls-1" points="6.35 15.12 6.3 15.12 6.38 15.13 6.35 15.12"/><path class="cls-1" d="M19.7,24.91s2.92-10,6.53-10,6.53,10,6.53,10Z"/><path class="cls-1" d="M21.37,21Z"/><path class="cls-1" d="M21,22v-.14c0-.05,0,0,.14-.1s0-.21,0-.28h0a1.26,1.26,0,0,0,.12-.46h-.09v-.13h0c.09,0,0,.11,0,.13a1.25,1.25,0,0,1,.11-.39s-.08.23,0,.12l-.09.14c.15,0,0,.1.11,0s0-.23.17-.4,0,0-.08-.08.25-.14.26-.37-.09-.12,0-.25v.09c.1-.18,0-.15.1-.32s0,.15,0,.12v-.18h0c.09-.19.14-.44.24-.64h0a3.41,3.41,0,0,1,.5-.79V18h0v-.09h0a1.52,1.52,0,0,1,.39-.67h0c.12-.11,0-.2.15-.29h0a2.41,2.41,0,0,1,.69-.73c0-.1.26-.22.18-.33a2.09,2.09,0,0,0,.41-.17.24.24,0,0,1,.11-.19h0v-.14h.09c.09-.07.29-.1.31-.07l.25-.19v.09c0,.1,0,0,.15,0h0a.73.73,0,0,0,.36,0h0a1.89,1.89,0,0,1,.67,0v0s-.08,0,0-.08,0,.08,0,.09h.57s.14.16.24.13h0a1.93,1.93,0,0,1,.49.26h.17l.36.39h.13c.12,0,.1.17,0,.12a5.29,5.29,0,0,0,.41.41v0h0c.27.24.36.69.58.86h0l.19.2h0a5.48,5.48,0,0,0,.4.57,2,2,0,0,1,.37.86h0v.12h0a9.78,9.78,0,0,1,.67,1.56c0,.2.2,0,.23.31H31c.23.35.34.79.54,1.15h0s.13.31.16.29h0s.14.19.11.25h0s0,.25.11.19.12.26.14.4,0,.25.15.25,0,.28.09.36,0,.09,0,.07,0,.19.13.16c0,.23.22.42,0,.4s.11.11,0,.11h-.23c0-.09.34,0,.24-.11a1.66,1.66,0,0,1-.66.1h-.92c.08,0-.2.12-.2.15s-.27,0-.13-.19h0a.55.55,0,0,1-.28.08h0a.37.37,0,0,1-.29,0h0a3,3,0,0,1-.67.08c0-.09,0,0-.09-.11h-.14a1.82,1.82,0,0,1-.33,0h0c-.13,0,0,.09-.14.08a.55.55,0,0,0-.19,0h0a.41.41,0,0,1-.22,0v-.09a.57.57,0,0,0-.35.07h0s0,.1-.14,0h-.58c-.18,0,.17,0,.11-.07a7.56,7.56,0,0,1-.82.07h0c0,.11-.19,0-.33,0h0a3.21,3.21,0,0,0-.62,0h-.39c-.35-.15-.67.08-1,0h-.17a.28.28,0,0,1-.18,0c.12,0,0-.07,0-.09h0s0,.09-.22,0h-.22v-.08c0-.08-.2.11-.29,0h.15a.34.34,0,0,0-.2,0h-.17c-.14.14-.28,0-.45.11.17-.08,0,0,0-.11s-.11,0-.09,0H22a1.63,1.63,0,0,0-.65,0,2.23,2.23,0,0,1-.45.14h0a.76.76,0,0,0-.3,0h0s0,.08-.15,0a.11.11,0,0,1,0-.08h-.19c.1,0-.29,0-.32.08h.14c0,.11.28,0,.42,0v.08h.77c.25,0,0,0,.2-.14l.13.15h.62c.11,0-.14,0,0,.08s.22,0,.31,0h.37a.83.83,0,0,1,.44.08h.29c.11,0,0,0-.09.08h.11a.13.13,0,0,1,.12,0h0a1.24,1.24,0,0,1,.47,0s-.14-.14,0-.19,0,0,0,.09h0a.6.6,0,0,1,.19,0h.51q.36,0,.72,0h0a2.67,2.67,0,0,0,.4,0h.08a.66.66,0,0,1,.28,0h.48c.28,0,.51-.12.73,0s-.16,0-.09-.07.26.09.31.09a.4.4,0,0,1,.34,0c.18.09,0-.09.09-.11s.17.09,0,.11h.2a2.94,2.94,0,0,0,.42,0h.28c.17,0,0,.08.14,0s0,0,0,.09a.77.77,0,0,1,.37,0h.1v-.11s.18,0,.21,0c-.2,0,0,0-.15.08h.5c.07,0,0,0,0-.08s.14,0,.2,0h.54c.14,0,0,.08,0,.1h.34c.17,0,0,0,0-.08H31.3a.74.74,0,0,1-.21,0h.34V25h.92c.1,0,.15.08.14,0s-.1-.3-.19-.34v-.16c0-.29-.19-.22-.23-.43l.12.07c.12.08,0-.12,0-.12a.53.53,0,0,1-.08-.22c0-.06,0,0-.09-.09h0c0-.23-.19-.53-.16-.73l-.17-.4h0c0-.17-.14,0-.17-.27s0,.1,0,0-.11-.22,0-.37h0c0-.11-.14-.22-.18-.39h0a1.6,1.6,0,0,1-.3-.42h.09c.1,0,0,0-.14-.08s0-.15,0-.2V21a.28.28,0,0,0-.09-.25h0c-.09-.18-.17-.15-.25-.37h0c-.12-.08,0-.11-.11-.2h0c-.09-.12-.18-.23-.26-.36a1.12,1.12,0,0,1,.25.28.45.45,0,0,0-.17-.28c-.06,0,0,0,0,.1a.81.81,0,0,1-.25-.33c.14,0-.16-.39-.11-.54s-.25-.53-.42-.83c0,.17,0-.08-.14,0s0-.09,0-.11v-.23h0v-.2c0-.11-.08,0-.12-.11l.65.26c-.19-.17,0-.23-.22-.4h0c-.09-.09-.23-.4-.4-.43h0c-.17-.25-.47-.49-.58-.7h0a.12.12,0,0,1-.12-.11h0a.39.39,0,0,1-.17-.14h0a1.73,1.73,0,0,0-.58-.42,1.41,1.41,0,0,0-.18-.31h0a2,2,0,0,0-.86-.37c-.14-.21-.68-.24-1-.27v.08c0,.08-.2.09-.2,0H25.3v.11c-.36,0-.75.4-.94.43l-.15.19h0a2.05,2.05,0,0,0-.44.39h0c-.11.11,0,.25-.11.34h0a1.63,1.63,0,0,0-.48.59h0s-.32.34-.21.37-.16.2-.21.33h0a.37.37,0,0,1,0,.29h0a.43.43,0,0,1-.1.24V18c-.08.11,0,.11,0,.2a.43.43,0,0,1-.21.19.17.17,0,0,1,0,.17h0a1.2,1.2,0,0,1-.21.42h0l.14-.25s-.11.09-.13,0a1.06,1.06,0,0,1-.12.43h0v.16s-.1.14-.13.2,0,.09,0,0h0v-.15a.19.19,0,0,1,0,.18v.13c-.11,0-.23.2-.28.2a1.84,1.84,0,0,0-.17.62h0a.21.21,0,0,0,0-.11c0,.12-.14.34-.09.39s0-.11-.09.09h0c-.28.33-.1.67-.41,1h0c-.26.45-.32,1-.6,1.44v.25h0v.15c0,.22-.27.31-.25.59h0c0,.1,0,.3-.13.27h0v.25c0,.17-.1,0-.2.18s0,.31,0,.28,0-.09.1-.09v.09a.2.2,0,0,0,.28,0v-.15h0v0h0v-.17s0,.09.09,0-.09,0-.09-.08.09,0,.09-.12h0v-.27c0-.06,0-.24.15-.21a.41.41,0,0,1,0-.22c0,.15.1-.25.19-.17s0-.34.09-.53h0c0-.09.08-.11.11-.15a3.82,3.82,0,0,0-.14-.66s0,.11.14.1,0-.22,0-.19a.14.14,0,0,1,.13-.09c.12,0,0,0,0-.17s.09,0,.12-.14Zm1.26-3.11Zm.14-.25v.11h0s0-.14,0-.17Zm-.62.36Z"/><polygon class="cls-1" points="21.85 19.08 21.83 19.09 21.86 19.08 21.85 19.06 21.85 19.08"/><polygon class="cls-1" points="24.89 15.64 24.89 15.64 24.88 15.66 24.89 15.64"/><polygon class="cls-1" points="25.33 14.85 25.37 14.8 25.28 14.87 25.33 14.85"/><circle class="cls-1" cx="26.23" cy="10.39" r="4.8"/><path class="cls-1" d="M29.05,9.42Z"/><path class="cls-1" d="M21.32,11.47c0-.11.09.12.12,0S21.32,11.34,21.32,11.47Z"/><path class="cls-1" d="M22.86,6.78Z"/><polygon class="cls-1" points="22.31 7.37 22.33 7.37 22.34 7.34 22.31 7.37"/><path class="cls-1" d="M29.71,16.35Z"/><path class="cls-1" d="M23.12,7.12,23,7.2Z"/><path class="cls-1" d="M30.09,12.65v.12c0,.05,0,0-.14,0s0,.17,0,.22h0c0,.09-.15.2-.15.32h.09v.08h0c-.09,0,0-.08,0-.11a.89.89,0,0,1-.15.27s.11-.16,0-.11l.09-.08h0a.86.86,0,0,1-.22.25c-.12.09,0,0,0,.09s-.25,0-.31.17,0,.13-.09.17V14c-.13.1,0,.14-.16.2s.08-.09,0-.09,0,.09-.09.14h0c-.14.08-.26.23-.42.33h0a1.72,1.72,0,0,1-.67.23v.08h0v.07h0a.8.8,0,0,1-.56.18h0c-.12,0-.12.12-.23.09h0a1.71,1.71,0,0,1-.78,0c0,.09-.26,0-.29,0A1.17,1.17,0,0,0,25.7,15h-.28V15h0s-.23-.11-.22-.14H25s0-.08-.12,0h0a.57.57,0,0,0-.26-.15h0a5.12,5.12,0,0,1-.52-.27v.08h0V14.4H24s-.09-.15-.17-.12h0L23.43,14h-.15a2.08,2.08,0,0,0-.24-.34h-.11c-.1,0,0-.16,0-.13a3.53,3.53,0,0,1-.31-.34h0v-.11h0c-.2-.18-.14-.57-.31-.71h0l-.12-.17h0a.73.73,0,0,0-.19-.5c-.18-.16-.11-.51,0-.71h0v-.1h0a3.22,3.22,0,0,1,.2-1.27c0-.14-.15-.13,0-.31h0a4.18,4.18,0,0,1,.32-.92h0s.14-.2.1-.23h0s0-.17.1-.17h0s.12-.16,0-.16.12-.2.2-.25.17-.14.11-.2.18-.11.22-.18.07,0,.07,0,.11-.13,0-.16.2-.26.34-.22a4,4,0,0,1,.56-.46c0,.08-.21.14-.15.21a1.28,1.28,0,0,1,.45-.34h0L25.08,6h.08a1,1,0,0,0,.1-.18s.21,0,.13.15,0,0,0-.07h0s0-.1.2-.11h0a.37.37,0,0,1,.22-.1h0a1,1,0,0,1,.49-.1c0,.07,0,0,.08.09H27a.25.25,0,0,1,.17,0v.09a1.36,1.36,0,0,0,.29,0h0s0-.11.13,0h0a2.13,2.13,0,0,1,.43.13c0,.07-.12,0-.09,0a1.85,1.85,0,0,1,.61.17h0c.07-.1.1.11.23.11h0l.43.2h0c0,.08.17.14.24.2h0c.11.28.46.28.52.54h0l.16.14V7.15h.12c-.07,0,0,0,0,.11h0c0,.14.1,0,.14.11h0a.14.14,0,0,1,.13.11c0,.1,0,0-.09,0s.18.07.18.17l-.09-.1a.48.48,0,0,0,0,.17h0v.14h0c.17,0,.14.17.28.25h-.13c-.12,0,0,.1,0,.1a.18.18,0,0,0,.11.15h0a.62.62,0,0,0,.19.45c.19.14.14.17.22.31s-.08,0-.08,0a.28.28,0,0,0,0,.22h0s.08,0,0,.12H31l.1.21h-.07c-.08,0,0,.21.11.23h0V9.77h0c.1-.07,0-.21,0-.32h.09l-.09-.11h.07c.08,0,0,0,0-.14h0s-.12-.2,0-.28h0c-.09-.19,0,0-.17-.12l.1-.14h-.08c-.08,0-.13-.24,0-.3s0,.09,0,0v-.2h0A.19.19,0,0,0,31,7.94c-.12-.06-.11-.12-.2-.22s-.09-.21-.15-.32h0a.26.26,0,0,1-.21-.14h0c0-.08-.19-.13-.26-.25s0,.17-.16.09h0A.19.19,0,0,1,30,7h-.08c-.07,0,0,0,0-.11s0-.08-.11,0h0s-.21-.16-.2,0h0c-.18,0-.31-.23-.48-.31h0a1.15,1.15,0,0,0-.31-.11h0a.39.39,0,0,1-.2-.08h0a.19.19,0,0,0-.23,0c-.13.1,0-.09-.13-.09h-.15c-.21-.14-.44,0-.58-.16s.13,0,0,.11S27,5.44,27,5.44h-.3c-.14,0,0,.08-.09.09s-.12-.09,0-.1h-.75c-.14,0,0-.1-.12,0h0a.91.91,0,0,1-.33,0h-.1v.12c0,.12-.16,0-.19,0s0,0,.11-.09h-.1c-.17,0,0,.07-.21.12h0v.09c0,.1-.11,0-.17,0h0l-.14.1h0a.57.57,0,0,0-.28.07h0a.45.45,0,0,0-.27.1c-.11.09,0,0,0,.09l.19-.12L24.15,6s.1-.09.15-.09h0a.56.56,0,0,1-.26.12V6c-.17,0-.22.19-.42.27h.14a.18.18,0,0,0-.16.12c0,.13,0,0-.09,0a.11.11,0,0,0-.09.16h-.11c-.14.09-.1.2-.2.29s-.08,0,0-.12-.08,0,0,0,0,.14-.13.14,0,0,0,.11h0V7c-.18,0-.31.33-.46.39l-.19.3h0a.48.48,0,0,1-.08.25c-.08.1,0-.1,0,0s-.09.18-.2.24h0a.56.56,0,0,1-.11.33h0a1.34,1.34,0,0,1,0,.4h0V9c0,.12-.09.09-.14.09V9c-.09,0,0,.14,0,.19h0v.37h0v.19h0v.36a.76.76,0,0,1,0-.3.57.57,0,0,0,0,.26V10a.62.62,0,0,1,0,.33c-.14,0,0,.34-.15.43s0,.47,0,.75c.1-.11,0,.08.14,0v.29h0V12c.1.17,0,.2,0,.37h0s.14.36.28.4h0c.09.24.34.44.4.63h0a.12.12,0,0,1,.11.1h0a.15.15,0,0,1,.14.13h0c.11.22.28.23.43.36s0,.23.1.29h0a2.32,2.32,0,0,0,.62.39c0,.17.42.32.62.48s0,0,.09,0,.17,0,.13.08h0c0,.09.12.14.21.17v-.09c.17.23.62.15.73.31h-.34a1.49,1.49,0,0,0,.47.07h0c.11,0,.15-.14.26-.14v.08a1.26,1.26,0,0,0,.61,0h0s.37,0,.32-.09.22,0,.31-.08h0c0-.09,0-.12.19-.17h.19c.09,0,.07,0,.12-.09s.19,0,.22,0a.13.13,0,0,1,.11-.11h0s.14-.28.31-.28h0l-.24.09s.13,0,0,.11a.75.75,0,0,1,.28-.25h0a.26.26,0,0,0,.19-.08c.06-.07,0-.07,0-.07h0l-.12.07a.17.17,0,0,1,.12-.1v-.11h.29a.82.82,0,0,0,.35-.41c0-.15,0,0,.07,0h0c0-.07.22-.2.17-.26s0,.09.11,0h0c.31-.17.22-.51.55-.72h0a9.13,9.13,0,0,0,.62-1.1v-.2h0v-.12c0-.19.23-.27.17-.5h0v-.22h0a.67.67,0,0,0,0-.2c0-.14.12,0,.14-.19s0-.23-.11-.2,0,.09,0,.09v0a.26.26,0,0,0-.26.11v.11h0v.08h0l.09.12h0c.09,0-.08,0,0,.11h0v.2s0,.2-.11.17a.48.48,0,0,1,0,.17c0-.12,0,.19-.15.14s0,.27,0,.41h0l-.11.1s0,.16,0,.24,0-.1-.14-.1,0,.17,0,.16,0,0-.13,0,0,0,0,.14-.09,0-.12.09S30.09,12.65,30.09,12.65Zm-1.67,1.88Zm-.19.09Zm.61.11Z"/><polygon class="cls-1" points="29.08 9.45 29.07 9.44 29.08 9.45 29.08 9.45"/><polygon class="cls-1" points="25.2 14.82 25.2 14.84 25.23 14.82 25.2 14.82"/><path class="cls-1" d="M24.89,6Z"/><path class="cls-1" d="M28.23,8.91Z"/><polygon class="cls-1" points="27.58 5.94 27.63 5.99 27.67 5.95 27.58 5.94"/><polygon class="cls-1" points="27.33 5.5 27.34 5.5 27.25 5.49 27.33 5.5"/><path class="cls-1" d="M22.36,7.23Z"/><path class="cls-1" d="M21.4,9.35a.17.17,0,0,0,0,.14Z"/><polygon class="cls-1" points="24.49 15.12 24.44 15.12 24.52 15.13 24.49 15.12"/></svg>