<svg id="Capa_1" data-name="Capa 1" xmlns="http://www.w3.org/2000/svg" viewBox="0 0 377.21 152.38"><defs><style>.cls-1{fill:#b7d164;}.cls-2{fill:#536472;}.cls-3{opacity:0.3;}.cls-4{fill:#fffcf6;}</style></defs><path class="cls-1" d="M56.93,17.31C41.82,14,26.44,27.37,19.52,45.9S13,86.76,17.43,106.66c1.84,8.32,4.56,16.79,9.71,22,5.74,5.78,13.36,6.4,20.49,6.78q116.74,6.17,233.6.92c15.93-.71,32.15-1.65,47.14-9A64.06,64.06,0,0,0,362,84.36c5.62-24.19-3.62-53.06-20.48-64-9.75-6.33-20.9-6.94-31.7-7.44L140.33,5.11c-27.4-1.26-55.69-2.32-81.24,11.16"/><path class="cls-1" d="M63,21.62c-1.09.42-.19,1.23-.26,1.48C64.31,22,62.78,21.38,63,21.62Z"/><polygon class="cls-1" points="80.41 12.33 80.18 12.85 82.79 11.07 80.41 12.33"/><path class="cls-1" d="M99,9.18c-1-.86-2.7-.59-4.58-.15a21,21,0,0,1-5.6,1.13l-.62-.32L87,11.63C90.84,10.56,96,9,99,9.18Z"/><path class="cls-1" d="M109.22,12.66c-.64-.72,2.13-.74-2.32-.13a4.39,4.39,0,0,1,.42.17C107.72,12.67,108.28,12.65,109.22,12.66Z"/><path class="cls-1" d="M107.32,12.7c-1.95.14,1.31.56,0,0Z"/><path class="cls-1" d="M116.44,12.07c-.87.22-1.75.43-2.61.67.54.42,2.87.53,2,.85C118.51,13.22,118,12.79,116.44,12.07Z"/><path class="cls-1" d="M118.94,10.68l-1.37.28C117.81,11.14,118.17,11.2,118.94,10.68Z"/><path class="cls-1" d="M114.68,11.55l2.89-.59c-.38-.31-.42-.93-1.33.21C116.48,10.6,115.9,11.15,114.68,11.55Z"/><path class="cls-1" d="M113.05,11.29c-1.47-.39-3.39-.61-.77-1.32-2.52.17-3.57.62-3.37.95S110.55,11.47,113.05,11.29Z"/><path class="cls-1" d="M99.75,7.12c-.68-.14-1.36-.23-2-.35l-1.65.82C96.88,7.18,99.92,7.68,99.75,7.12Z"/><path class="cls-1" d="M132.89,13.43c.18-.4-.85-1.12-1-1.65l-2,.39C130.87,12.49,132.78,12.82,132.89,13.43Z"/><path class="cls-1" d="M131.86,11.78l3-.58C132.2,11,131.71,11.33,131.86,11.78Z"/><path class="cls-1" d="M119.43,8.56,114.61,10c1.91-.49,3.82-1,5.75-1.47Z"/><polygon class="cls-1" points="144.22 13.98 142.49 14.84 145.57 13.56 144.22 13.98"/><path class="cls-1" d="M151.79,14.16c-1.29.72,1.65,1.4.3,1.81a18.38,18.38,0,0,0,5.45-1.15A12.13,12.13,0,0,1,151.79,14.16Z"/><path class="cls-1" d="M160.23,14.06a19.48,19.48,0,0,0-2.69.76A10.45,10.45,0,0,0,160.23,14.06Z"/><path class="cls-1" d="M139.89,11.63a3.33,3.33,0,0,0,2.29,1.27l-1.12-1.2Z"/><path class="cls-1" d="M141,11.66l0,0,2.53.18Z"/><path class="cls-1" d="M139.6,11.61l.29,0C139.78,11.51,139.72,11.47,139.6,11.61Z"/><path class="cls-1" d="M127.13,9.76c1.75-.6,5.41-1.15,1.93-2.24C127.78,8.26,129.77,8.88,127.13,9.76Z"/><path class="cls-1" d="M138.21,10.12l-3.15-.4c.05.3.6.77-.27,1Z"/><polygon class="cls-1" points="139.77 9.83 138.21 10.12 139.38 10.27 139.77 9.83"/><path class="cls-1" d="M154.85,12.75a15.25,15.25,0,0,1,4.59-.41,44.3,44.3,0,0,0-5.45-.6C153.72,12.09,152.91,12.7,154.85,12.75Z"/><path class="cls-1" d="M148.14,12.12l.3,0C148.26,12,148.11,11.93,148.14,12.12Z"/><path class="cls-1" d="M176.07,13.11l-.25-.22c0,.07,0,.13-.07.19Z"/><path class="cls-1" d="M153.69,11.52a4.59,4.59,0,0,0-3,.27,31.59,31.59,0,0,1,3.26,0C154.11,11.59,154.14,11.48,153.69,11.52Z"/><path class="cls-1" d="M164.9,13.74a22.94,22.94,0,0,0-2.33-.73C163.24,13.4,164.63,14,164.9,13.74Z"/><path class="cls-1" d="M148.89,12.41l-.21,0C149.12,12.71,149.07,12.59,148.89,12.41Z"/><path class="cls-1" d="M148.89,12.41a9.68,9.68,0,0,0,1.84-.62,16.3,16.3,0,0,0-2.29.28A2,2,0,0,1,148.89,12.41Z"/><path class="cls-1" d="M181.45,6c-.29,1.05-3.91,1.86-6.95.58-3.08.66-1.25,4.22,1.32,6.29.11-.46.13-.88,3.29-1.36-1.07-.63-6.88-1.67-4.2-2.51,4.17-.35,3.38.53,5.37,1.18-1.65-1.39,5.36-1.67,4.55-3.65l-3.67.52C181.11,6.76,182.45,6.34,181.45,6Z"/><path class="cls-1" d="M169.86,12.51l-1.29.07A15.23,15.23,0,0,1,173,14.22c2.17-.42,2.63-.79,2.8-1.14l-6.34-.43Z"/><path class="cls-1" d="M162.78,12.32c1.06-1.11,4.18-1.45,2.34-2.78-3.78-.1-2.69.83-5,1.23,6.11,0-1.78.56,2.59,1.42a27.6,27.6,0,0,1-3.3.15c1.09.19,2.14.41,3.13.67l-.14-.08h0v0c-.26-.15-.34-.24,0-.15h.13a1.1,1.1,0,0,1,.29-.42c1.76.31.27.31-.29.42,0,.05-.07.1-.08.16a0,0,0,0,0,0,0l6.14-.35A36.92,36.92,0,0,0,162.78,12.32Z"/><path class="cls-1" d="M132.4,5.16a.29.29,0,0,1,.18.28C133,5.31,133.14,5.22,132.4,5.16Z"/><path class="cls-1" d="M134.88,6a3.42,3.42,0,0,1-2.27.41c-1.24-.39,0-.55,0-.93-.88.27-3.07.7-.37,1.37l.44-.14c2.44.49,5.53,2.07,5.09,2.21A8.57,8.57,0,0,0,134.88,6Z"/><path class="cls-1" d="M149,8.85l5.11-.33L151.59,7.4l.1.61C148.81,7.64,149.4,8.41,149,8.85Z"/><polygon class="cls-1" points="176.63 13.71 175.9 14.89 178.92 13.31 176.63 13.71"/><polygon class="cls-1" points="183.25 13.87 182.95 14.91 184.73 14.36 183.25 13.87"/><path class="cls-1" d="M243,144.07l-1.49.34A8.92,8.92,0,0,0,243,144.07Z"/><path class="cls-1" d="M253.82,143.81l.25-.53C253.57,143.59,253.37,143.8,253.82,143.81Z"/><path class="cls-1" d="M339.89,27.44a9.28,9.28,0,0,1,.5,1.46c.14.49.26.94.39,1.29.24.71.49,1,.84.56l.41-1.19a6.83,6.83,0,0,1-1.29-1.06C340.41,28.12,340.15,27.75,339.89,27.44Z"/><path class="cls-1" d="M339.28,120.7l.72-.13c.16-.65.31-1.26.42-1.8C340.09,119.35,339.71,120,339.28,120.7Z"/><path class="cls-1" d="M340.93,125.46c-1,.43-1.95.84-2.95,1.19A12,12,0,0,0,340.93,125.46Z"/><path class="cls-1" d="M183.66,146.27l-1.75,1.19C184.65,147.44,183.45,146.85,183.66,146.27Z"/><path class="cls-1" d="M251,16.55a24.44,24.44,0,0,0,4.66.92C253.39,16.7,251.61,15.62,251,16.55Z"/><path class="cls-1" d="M246.86,131.65c-.91.23-1.29.48-1.26.74C246.54,132.16,247.06,131.92,246.86,131.65Z"/><path class="cls-1" d="M261.05,17.71c-.33-.13-.65-.2-1-.32a22.39,22.39,0,0,1-4.45.08A7.82,7.82,0,0,0,261.05,17.71Z"/><path class="cls-1" d="M7.65,74.68c.06-.16.09-.36.15-.51C7.65,74.12,7.63,74.35,7.65,74.68Z"/><path class="cls-1" d="M42,24.89c-.41.35-1.15.73-1.8,1.22A10.46,10.46,0,0,0,42,24.89Z"/><path class="cls-1" d="M209.82,15.6c-1.41,0-.23.11,0,0Z"/><path class="cls-1" d="M203.21,10.7c.31-.11.54-.27.59-.54A1,1,0,0,1,203.21,10.7Z"/><path class="cls-1" d="M275.34,11.15h.12C275.06,10.91,275.13,11,275.34,11.15Z"/><path class="cls-1" d="M207.73,15a13.7,13.7,0,0,0,1.78.43A12.61,12.61,0,0,0,207.73,15Z"/><path class="cls-1" d="M208,15.53l-1.22-.17C206.59,15.55,206.74,15.68,208,15.53Z"/><path class="cls-1" d="M211.77,15.62a17.67,17.67,0,0,1-2.26-.22c.27.09.39.16.31.2Z"/><path class="cls-1" d="M83.93,140.55l-.3-.12C82.19,140.86,82.82,140.8,83.93,140.55Z"/><path class="cls-1" d="M367,52.21a1.19,1.19,0,0,0-.09-.15c0,.07,0,.16,0,.22Z"/><path class="cls-1" d="M368.86,57.39a7,7,0,0,1-1.95-5.11c-1,.83-1.93,1.63-2.9,2.41C365.69,55.52,367.26,56.42,368.86,57.39Z"/><path class="cls-1" d="M217,145l3.57,1c-4.25,1.78-7.37,1.25-4,2.65.44-3.61,13.81-.64,14.22-4.29l2.35.71c-.67,0-.77.2-1.43.18,4.59,1.62,3.31-2.69,9.18-2.35,2.05.22,3.49.71,2.11,1.18l4.52-1c1.33,0,1,.67-.3.64l6.93-.51,0,.11a35.14,35.14,0,0,1,4.26-2c1.78.46-.87.42-.4.86l3.8-1c1.6.89-1.55,1.91-4.2,1.87,3.71,3.49,3.15-1,11,.81l-3.61.59c2.42,2,5.22,1.11,9.38,2.23-1-.63-8.34-2.9-4.21-4a8.89,8.89,0,0,0,5-.53c.07,1.28,2.26.88,5,.69l-.11,1.72c2.95-.62,2.68-1.49,4.4-2.33,3.34,0,4.12,1.28,5,2.34,5.44-.06-3.86-1.88,2.52-2.61,4.55.33,7.73-.63,13-2.42,3.27.11-.4,1.12.82,1.44.88-.59,1.75-1.22,2.61-1.82.7-.09.55.36.47.59,2.29-1-.1-1.7,3.49-2.92.29-1,2.31-.75,4.81-.79a17.17,17.17,0,0,0,3.92-.4,7.33,7.33,0,0,0,3.43-1.8c1.27,0-.14,1.19.42,1.67,1.42-.95,2.43-1.61,3.2-2.16s1.31-1,1.82-1.39a13.69,13.69,0,0,0,1.53-1.42c.56-.6,1.29-1.28,2.18-2.39l2.24-.69c.74-.25,1.47-.53,2.21-.8-1.76.41-1.93-.32-1.41-1.51a46.49,46.49,0,0,1,2.71-4.44c-1.28.19-2.36.32-3,.49l1.93-2,1.8-2.11c.69-.21.67.58.42,1.72.2-.36.39-.69.52-1,1-.41,1.39-.3,1.56.16a3.82,3.82,0,0,1-.24,2.09c-.76.2-1.52.37-2.26.52-.44,1.69-.87,3.41,0,4a6.56,6.56,0,0,1,1.28-1.54c-.13.45-.18.8.07.83s.54-.66,1-1.63l2.28.58-.24-.79c1.14-.7,2.21-1.49,3.33-2.25s2.14-1.62,3.22-2.45c.58-1.41,1.1-2.79,1.55-4.21s.88-2.86,1.28-4.39.91-3.08,1.43-4.77,1.15-3.49,1.95-5.44c.29,2.49,1.83,1.44,3.27,2.27a3.75,3.75,0,0,0-1.58,1.62,25,25,0,0,0-1.1,2.54c-.38.93-.7,2-1.21,3a14.51,14.51,0,0,1-1.82,2.9c1.54-1.87,1.88-1,1.75-.32.58-1.32,1.18-2.59,1.65-3.94s1-2.63,1.39-4c.55.41,1,.14,1.47-.44.24-.3.51-.66.79-1.07a15.35,15.35,0,0,1,.93-1.31c-1.57.18-1.28-1.41-.64-3.46.3-1,.7-2.19,1.06-3.3A18.92,18.92,0,0,0,363.7,90c.46,0,.85.31.93,1.06a7.75,7.75,0,0,1-1,3.88,5.37,5.37,0,0,0,1-1.31,4.38,4.38,0,0,0,.36-1.3,7.58,7.58,0,0,0-.22-2.48c-.38-1.64-.86-3.19.49-5.11-.18,1-.49,1.44-.13,1.93a16.29,16.29,0,0,1,.71-4.64,7.74,7.74,0,0,1,.69-1.72c.2-.35.4-.43.55-.07,0,.33-.1.66-.15,1a23.29,23.29,0,0,0,.46-2.74c.13-1,.28-2.08.37-3.19a45.6,45.6,0,0,0-.07-6.72c-.1-1.08-.22-2.11-.37-3s-.42-1.79-.65-2.52c-.48-1.45-1-2.41-1.61-2.57a9.46,9.46,0,0,1,3.31.88c-1.45-1.84-3.08-3.57-4.6-5.21-1.67-1.61-3.23-3.15-4.95-4.55,1.07.21,2.48-.85,3.93-1.43a3.13,3.13,0,0,1,2.16-.21,3.45,3.45,0,0,1,2,2.17A13.6,13.6,0,0,0,365,45.4c.09,1.14-1.95,3.39-2.5,2.06a13.47,13.47,0,0,0,.42-3.81c-.05-.86-.11-1.84-.28-4.47.26,1.66-3.27,1.17-4.16-1.08.58.15,2.64-1.51,3.31-.78-.88-.77-1.87-1.48-2.79-2.19s-1.83-1.39-2.84-2c1.29,1,2.36-1,2.29-2.75-.08.45-.77-.78-1.71-2.23a24.45,24.45,0,0,0-2.85-3.72c.47.85.79,1.78,1.17,2.65a10.9,10.9,0,0,0-1.52-1.92A10,10,0,0,0,351.92,24a9.38,9.38,0,0,0-3.05-1.13,18.25,18.25,0,0,1-3.11-.8c-.51-.22-1.1-.42-1.71-.73a12.22,12.22,0,0,1-1.9-1.22,3,3,0,0,0,2-1.26,1.76,1.76,0,0,0,.28-1.38,2.89,2.89,0,0,0-1.26-1.71c-1.16.19-3.75.79-6.58,1.52a34.82,34.82,0,0,1-8.65,1.46c-.27-.37-.54-.75-.83-1.1-1.48,0-2.94.09-4.4.23a29.66,29.66,0,0,1,7.6-3.26,27.83,27.83,0,0,1,9.66-1c-2.31-1.81-.26-1.38-4.34-2.87-.58-.63.08-.76,1.06-.62a14.24,14.24,0,0,1,2.86.8,52.19,52.19,0,0,0-9.61-3.74c0,.92-1.95.93-3.84,1s-3.73.25-3.64,1a61.42,61.42,0,0,1,10.62.27c-.05.93-1.91,1.67-4.41,2.13a27.44,27.44,0,0,1-8.81.25c-1.55-.87,1.53-3.06,1.49-3.65-.95.47-6.25.63-6.79.18.92-.26,1.84-.53,2.78-.77-3.57-.94-5.94,2-10,.12-1.43-.18-4.18-2.51-4.48-1.45,2.25,2.15,2.42,8.51.78,10-.49-.16-7.45-2.3-9.05-3.39-2.29-1.71,3.73-3.66,1.78-5.13-.11.48-1.44,1-2,1.2-1.49-.49.7-1.49-2.59-1.42-.63,1.79-6.66-.46-1.62,1.46-3.23.38-3.39-.53-7.17-.62,1.15,1.23-3.56,3.85-6.8,4.22.21-.46-.48-1.09-.82-1.38-6.57-.47-10.06-1.46-16.19-1.76-.54-.46-3.48-1.13-2.18-1.86a8.53,8.53,0,0,1-3.63.82c-3.59-1.74,4.23,0,1.53-2.07-.29,1-5,1.24-7.69,1.77.76,1.67,6.21.6,8.94.07-.09,2.25-4.89,4.39-11.35,5.14-5.12.32-2.14-1.56-3-1.28-9.55-.83-8.33,3.56-16.2,1.57-3.09-1.58,0-2.86-.66-3.93,4.17-.35,6.32,1.2,9.14,1.28l-3.43-.84a11.82,11.82,0,0,1,5.62-.17c-2.59-1.41-16.15-1-23.48-2.52-1.33.42-3.62.82-2.58,1.44l2.35-.09c2.09,1.26-4.47,1.4-1.54,2.07-3.17.67-6.74,1.79-11.12.93l-.75-1.67c.07.48,2.83,1.11,4.1.67-1.87.64-6.66-2.53-8.78-.48l3,1.28c-3.18.67-7.15,2.23-11,1.54,1.7,1.69.91-.15,3.6,1.87-2.3-2.46,10,.56,6.24-2.09,2.75,2.33,4.89,1.16,8.53,3.2-.09-.54-1.28-1.09,2-.68a3.81,3.81,0,0,1,.74-.44l.22.05-.17-.07c.14-.07.16-.09-.07,0a3.91,3.91,0,0,1-1.63-.89c1.68-1.17,6.9-.89,8.69-1.45,1.94.35-.84.58.19,1.21l2.68-.84c.21,1.21,5.08,2.23.47,2.72l4.12.24a17.91,17.91,0,0,0,7.82.8c1.93.35,5-1.1,3.24-.24l6.51-.45,0,.31c6.38.44,13.24-1.39,20.45,1.11a29.8,29.8,0,0,1,8,0l.66,1.07c2.77-.24,8.24,1.42,9.48.39,2.85,2.93,13.37,1.23,18.2,1.94l.25-1.34a69.48,69.48,0,0,0,10.73-.36l-.2-1.21c3.64-.8,9.14,1.18,14.31,1.73-.41.41-1.71.13-2.64-.23,3,1.64,6.17,1.64,9.29,1.84s6.19.71,8,2.82a3.65,3.65,0,0,1,1.61.62,3.91,3.91,0,0,1,.58.46,5.57,5.57,0,0,1,.43.56.71.71,0,0,0-.28-.13c.09.09.25.2.4.32.33.5.64,1,1,1.53a5.87,5.87,0,0,0-.78-1.37,16.41,16.41,0,0,0,1.5.93c.58.36,1.19.83,1.85,1.21L342,29.56l.27.2c.66,1.33,1.24.45,1.41-.85a10.06,10.06,0,0,0,1.94,1c-.36,1.15.45,1.75,1.19,2.56s1.63,1.59,1.13,3a3.53,3.53,0,0,1,1.41,1.1l.91,1c.31.37.59.79.91,1.18a15.36,15.36,0,0,0,1.92,2.17,2.61,2.61,0,0,0,1.82,1c-.24.17-.18.68-.55-.14a23.1,23.1,0,0,0,.84,2.63,7,7,0,0,0,1.26,2.33l-1.29,1.26.86.77.8.81,1.62,1.65a4.86,4.86,0,0,1-.7,2.62c-.37.35-.87.1-1.76-.9a21.84,21.84,0,0,1,2.37,4.75A24.27,24.27,0,0,0,360.34,62l-1.07-.13c.19,1.76,1.88,4.57,1,5.7a20.72,20.72,0,0,0-1,4.93c-.13,1.09-.19,2.3-.41,3.56-.08.64-.17,1.3-.26,2,0,.33-.09.67-.13,1s-.14.68-.2,1c-.94,5.53-3.11,11.74-6.15,15.78,1.79-.21,1.05.74-.06,1.82a10,10,0,0,0-1.46,1.68c-.36.53-.47,1,0,1.43-.94.13-2,1.07-1.72-.62a16.83,16.83,0,0,1-.79,1.59c-.29.47-.6.9-.9,1.3a21.49,21.49,0,0,1-1.77,2.09,12.63,12.63,0,0,0-1.47,1.93,6.85,6.85,0,0,0-.95,2.47c-.93-.07-.11-1.54-.77-1.44a5.44,5.44,0,0,1-.41,1,1.3,1.3,0,0,1-.85.7c-.68.06.07-.93.34-1.73-1.65,1.87-2.21,3.26-2.24,4.42a5.69,5.69,0,0,0,1.12,3.08c-2.71,1-3.61,1.94-4.38,4.25-.59,0-1.3.09-1.56-.11s0-.63,1.2-1.73c-.76.53-3.17,2-5.43,3.25s-4.28,2.49-4,3.3c-.71-.14-2.42,1-2.82,1.33-3.95,1.47-4.35,1.42-8.3,2.76l1.2,0a2.74,2.74,0,0,1-2.43,1.73,25,25,0,0,0-4.09.61l.05-.23c-2,0-3.18.09-4,.19a7.74,7.74,0,0,0-1.59.39c-.8.26-1.61.55-5.55.15l.56,1.22c-.21,1.41-2,1.2-4.26.77s-5-1.09-7.25-.43l1.69.64c-2.45,1.1-7.17-3.38-9.7-3.62-.56-.22.85-.42,1.61-.63-6.67-1.35-.78,1.71-5.68,2.31-.95-.87,1.07-2.35-2.25-2.38-1.67-.66-9.48,3.33-14.07,1.74,1,.66,2,1.32-.23,1.93-3.5.38-9.56-2.31-12.66,0-.45-.18-.62-.36-.65-.53-2.66.64-8.68,1.21-10.26,2.42-2.58-4.36-16.63,2.55-16.65-1.56l-8.24.36.21-.42c-5.27-.18-7.12.8-9,1.8-1.22-.26-.33-.65-.23-.87-7.71-.73-8.47-.55-14.92,1.52l-.68-1.33c-.87.39-3.66-.11-7.17-.52a37.4,37.4,0,0,0-11.52,0,1.18,1.18,0,0,1,.83-.59c-8.51,1.53-20.29-3.79-23.46,1l-5.62,1.12c7.25.47-1.11,2.08,1.86,2.92-2.86.24-7.36-1.55-3.85-1.75l.55.24c1.32-2.48-9-1-8.78-2.75-14.29-.13-28.16-1.93-41.51-2.52l1.47,2L84,133.18c-1.2-.5-1.58-1.59,1.74-1.39-1.71-1.17-5.61.72-5.72,1.14-6.48-1,2.63-2.18.63-2.3l-2.71,0,.6.25c-2.23.72-2.46,1.55-6.45,1.28-2.51-.5-1.25-1.26-2.24-1.38,0-.14-.32-.22-1.52-.12l-5.86-.42,2.27,1.64c-2.63.66-5.51-.34-2.89,1.54-1.92-1.44-7.39-2-12.67-2.23-2.66-.13-5.13-.22-7-.47a10.05,10.05,0,0,1-3.68-.91,10.31,10.31,0,0,1-8.8-3.62,1,1,0,0,1-.26,1.29c-.41.23-1.26,0-2.33-1.4,1.78-.69,1.05-2,.23-3.87s-1.8-4.28-1.1-6c-.33,1.47-1.37-.74-2.27-2.95s-1.73-4.32-2.36-2c-.52-3.06,1.24-.53,1.47-3-1.55-3.37-2.13-7.49-2.44-11.76s-.31-8.78-.76-13.28c-.47-.12-1.12,1.44-1.9-.49.74-1.64,1.45-3.26,2.26-4.84-.22-1.76-2.73-1.7-1-4.91-.41.44-1,1.11-1.14-.1.79-4.44,1.45-8.86,2.29-13.26a85.8,85.8,0,0,1,3.37-13,39.91,39.91,0,0,1,6.31-11.55,24.11,24.11,0,0,1,10-7.63c-2.28.52-1.19-.37.15-1.4-1,.47-.64-1-1.18-1.36a13.57,13.57,0,0,1,1.73-.59c.57-.16,1.13-.36,1.7-.49a22.74,22.74,0,0,1,3.37-.51,2.15,2.15,0,0,1,1.26-1.26,12.3,12.3,0,0,1,2.33-.66c.82-.07,1.63-.22,2.27-.34A1.6,1.6,0,0,0,53,20.19L52,20.32l-.52.06-.52.13c1.34-1.11.42-2.18-1.22-3.17l-1.29-.76c-.44-.22-.87-.43-1.26-.66-.77-.46-1.38-1-1.4-1.62C44,15.87,41.32,16,38.21,16.83s-6.3,2.52-7.66,6c-1.45.6.38-1.45-.6-1.36a8.26,8.26,0,0,1-1.44,2.81,33.2,33.2,0,0,1-3.14,3.24l.06-.5c-3.24,4.17-5.28,7.29-7.4,10.6l-1.54,2.59C16,41.07,15.51,42,15,43s-1,2.09-1.51,3.25-1,2.44-1.48,3.82l1.46-.47a18.81,18.81,0,0,1-1.94,3.81c.61,1.61,1-.08,1.51-1.78s1.12-3.39,1.77-1.85c-1.72,1.18-2.87,5.43-3.64,9.57S9.9,67.55,8.38,68.55c-.29,3.8,1.54-1,1.25,2.78-.29.31-.56.63-.84,1l1,1C9.5,75.73,8.52,77,7.85,77.06a20.1,20.1,0,0,0-.2-2.38,15.84,15.84,0,0,0-.25,5.93,33.61,33.61,0,0,1,.4,4.31c.07-1.22.23-2.45.35-3.66.93,10.29,1.78,22.84,6,32.13l.37-.89a30,30,0,0,1,2.29,6.66A18.93,18.93,0,0,0,20,126.43l-.29-.21c1.45,1.27,3.06,3.09,4.82,5-1.05-.63-.58.44,0,1.42s1.13,1.92-.42,1.1a19.77,19.77,0,0,0,4.55,2.47,5.41,5.41,0,0,0,1.92.44A9.29,9.29,0,0,0,32,136.5c.64-.06,1.58-.11,3.12-.21.32.43.66.89,1,1.32,1.07-.2,1.65-.42,2.5-.53a25.23,25.23,0,0,1,4,0c-1.73.24-1.13.68-.56,1.16s1.13,1-.91,1.32a17.48,17.48,0,0,0,5.78,1.1,32.61,32.61,0,0,0,4.34-.29c2.56-.3,4.55-.5,6.39,1.18,4-2.55-7.17-1.88-5-2.36-1.75-1,3.28-1.89,5.89-1.48,2.66.2,4.37,3.73,11.1,4-.66,0-.72.17-1.39.13,2.49.8,5-.74,8,.53,1.8-1.59,4,.25,4.59-1.84l-6.19.24c3.52-.4,6.89-2.76,12.6-1.34a11.35,11.35,0,0,1-3.38,1.17c1.66.69,3.26-.29,5,.41-.58,2.1-7.52.18-11.33,1.66,1.78,1,7.15-1.27,5.18.95,2.82-2.82,6.62.63,11.26-1.45l-.34,1.25a12.25,12.25,0,0,1,3.56-.65l-2.45,1.57c3.73-1.29,7.08,1.45,10.65.79-7.42-.19-1.62-1.58-4.73-2.6,9.19-1.41,5.16,3.47,15.42,3.13-1.39.14-5.18-.89-3-1.43a20.42,20.42,0,0,1,5.69,1.56c6.79-.11-1-1.32,1.89-2,2.28,1.59,3.35-.56,6.33-1V144c7.72,1,2.1-2.64,9-1.52l-3,1.74,3.64-.41-.78,1.46c4-1,5.19-.74,9.06-.28-.89-.92.53-2.33,3.95-2.33,2.33.79-1.32,1.22,3.54,1.07-1.1.8-2.32,1.81-4.42.59-.22.42-1.09.8-1.31,1.21,2.5.92,6.32.26,8.08.26a6.77,6.77,0,0,1-1.9-.31l7-1.74c1.11.49.22.88-.65,1.25,1.43-.13,2.42-.71,4.51-.81-.54,1-.42,2.13-3.39,2.6l6.71-1.13c.45.45,3.45,1.25,2.57,1.63,3.73.62,9.13-2,14.06-1.23a4,4,0,0,1,1.82-.56c4.63.21,8.75,1.48,14.23,0L203,147.3c4.3-.48-4.25-2.32,2.9-3.11,5.06-.66,1.92,1.58,3.7,2.07,2.51-1,6.86-3,11.55-1.54A29,29,0,0,1,217,145Zm53-2.36c-1,.31-3,1.24-3.81.5C267.26,141.63,268.19,142.29,270,142.65Zm76.9-25.43c-.23.89-1.31,1.58-2.64,2.16A11.2,11.2,0,0,1,346.86,117.22Zm-121.63-102,.12-.05C227.61,15.8,226.81,15.57,225.23,15.25Zm-4.71-.77c-.49.15-.46.33-.27.52a4.41,4.41,0,0,1,2.62-.13C222.55,14.51,222,14.25,220.52,14.48ZM69.31,131.27l.9.38C68.12,131.93,68.71,131.62,69.31,131.27Z"/><path class="cls-1" d="M340.77,124.88a1.05,1.05,0,0,1-.79-.28C339.77,125,339.9,125.25,340.77,124.88Z"/><path class="cls-1" d="M184,146.05h-.16a.48.48,0,0,0-.16.23Z"/><path class="cls-1" d="M294.49,6.94a4.92,4.92,0,0,1,1.85.75C296.41,7.37,296,7.09,294.49,6.94Z"/><path class="cls-1" d="M195.28,15.51l3.06-.2a6.73,6.73,0,0,1-2.72-.54C195.67,15.07,196.23,15.53,195.28,15.51Z"/><path class="cls-1" d="M169.28,6.33c-.45.14-.94,0-1.39.11l.09.61C169.88,7.09,171.22,6.67,169.28,6.33Z"/><path class="cls-1" d="M192.67,11.1c-.2-1.09-2.12-.81-4.25-.71a2.36,2.36,0,0,1,.37,0C188.09,11.89,190.39,11.5,192.67,11.1Z"/><path class="cls-1" d="M187.92,10.4a12.89,12.89,0,0,1-2-.06C185.67,10.94,186.74,10.5,187.92,10.4Z"/><path class="cls-1" d="M214.47,14.92c-1-.33-.7,1.35-1.25.89C212,17.13,220,14.45,214.47,14.92Z"/><polygon class="cls-1" points="191.11 7.45 191.81 8.83 193.05 7.8 191.11 7.45"/><path class="cls-1" d="M207.87,9.21l-3.39-.53c0,.23-.4.34-.93.41C205.64,9.24,207.93,9.61,207.87,9.21Z"/><path class="cls-1" d="M203.55,9.09a9,9,0,0,0-2.75.1A19.41,19.41,0,0,0,203.55,9.09Z"/><polygon class="cls-1" points="195.77 7.26 196.77 7.59 199.16 7.8 195.77 7.26"/><path class="cls-1" d="M244.41,11.15l3.73-.22c.4-.44-.6-.77-2-.65C245.24,10.56,243.86,10.68,244.41,11.15Z"/><path class="cls-1" d="M233.35,7a3.31,3.31,0,0,1,1.59,1.09l.19-1.65Z"/><path class="cls-1" d="M244.19,7.08c.39-.45,5.45-1.08.74-1.19C244.53,6.33,240.8,6.54,244.19,7.08Z"/><polygon class="cls-1" points="300.02 11.74 299.07 11.72 299.08 14.45 300.02 11.74"/><path class="cls-1" d="M351.55,19.24c-1.71-2-2.23-1.91-2.66-1.76s-.83.34-2.48-1.39c-1.34-.2,2.67,2.8,1.32,2.49C350.42,20.08,351.36,21.51,351.55,19.24Z"/><path class="cls-1" d="M347.73,18.58q-.69-.31-1.5-.6A7.1,7.1,0,0,0,347.73,18.58Z"/><path class="cls-1" d="M50.06,23.52l1,.18.5.08.48.16a6.57,6.57,0,0,0-1.33-.83Z"/><path class="cls-1" d="M54.1,21.45c.11.6.21,1.2.28,1.8.47-.45,1-.91,1.54-1.36C55.4,21.9,54.44,21.9,54.1,21.45Z"/><path class="cls-1" d="M278,145.81l.2-.42c-.46-.44-1.12-.44-2.46-.46Z"/><polygon class="cls-1" points="239.43 145.87 240.09 145.89 238.81 144.35 239.43 145.87"/><path class="cls-1" d="M207.13,148.53c1.33.06,2.87-.32,4.2-.28C208.46,148.59,206.75,146.58,207.13,148.53Z"/><path class="cls-2" d="M60.82,32h.27c1.59.06,3.49.75,3.49,2.37,0,.33-.11.72-.67.72-1.3,0-1.51-1.35-3-1.51a1.85,1.85,0,0,0-.24,0c-5.42,0-9.08,20.73,0,21.05h.2c2.85,0,1.73-3.07,4-3.08H65c.55,0,1,.26,1,.72s-.24.6-.59,1.29A4.61,4.61,0,0,1,61,56H60.6c-7.64-.28-7.94-9.09-7.43-13.38C53.32,39.43,55,32,60.82,32Z"/><path class="cls-2" d="M73.6,31.64c8.79,0,10,23.44,1.33,24.08-.16,0-.31,0-.47,0-3.33,0-5.15-1.64-6.11-4.67C67.83,49.1,63.66,31.66,73.6,31.64ZM70.24,49.56c.32,1.09,1.64,4.22,3.62,4.38a2.41,2.41,0,0,0,.47,0c2.66-.2,3.52-4.06,3.87-5.62.62-2.63,1.1-14.87-4.52-14.86h-.31C67.39,33.93,69.49,47.15,70.24,49.56Z"/><path class="cls-2" d="M83.93,32.71c.75-1.19,1.9-.14,2.3.32,2.39,5.67,4,11.45,6.93,17.34l.39-4.61A100.93,100.93,0,0,0,94,33.85c.16-.57.87-.83,1.5-.83a1.24,1.24,0,0,1,1.11.43c-.69,7.12-1,14.71-1.24,22.3l0,.43a1.54,1.54,0,0,1-1,.63,1.87,1.87,0,0,1-1.11-.63C90.75,50,88,44,85.57,37.79l-.23,18.8c-.9,1.72-2.29.83-2.33-.16Z"/><path class="cls-2" d="M104.9,42c0-2.54-.07-8.94-.11-9l-3.16-.09c-1.27-.29-1.75-1.32.19-1.72,3.09.06,6.09,0,9.3.18,1.78.13,1.67,1.78.52,1.78l-4.31,0s-.17,10.49-.24,14.74c0,1.36-.15,3.9-.14,5.48v.43c-.32,1-1.94.7-2.22-.23C104.76,51.21,104.9,44.38,104.9,42Z"/><path class="cls-2" d="M116.9,32.65c.23-3,2.61-2.25,3.29,0,1,3.3,1.76,6.3,6.12,23.77,0,.73-1.18,1.29-1.9.24L123,50.71l-5.34.67a55.39,55.39,0,0,0-.66,5.88c-.08.79-1.78.59-1.74,0ZM117.7,48c0,.23-.08,1.52-.08,1.78l4.95-.6-3.92-14.68C118.5,36.54,117.81,46,117.7,48Z"/><path class="cls-2" d="M128.65,42.78c0-2.6.69-7.65,4.13-9,2-.8,7.12-.48,7.13,2.16a.78.78,0,0,1-.87.83c-1.42,0-1.94-1.78-4-1.78h-.16c-3.68.18-4.3,4.8-4.29,7.27v.66a40.2,40.2,0,0,0,1.05,8.84,3.8,3.8,0,0,0,3.77,3.19h.2c3.6-.17,3.71-4.1,3.58-6l-.33-4.88c-1.14,0-2.29.27-3.56.17-.36-.19-.48-1-.48-1,0-1,2.73-.8,5.3-.84,1.19.27,1,1.91,1.16,4v.33c.25,3.6.63,9.7-5.11,9.94a7.12,7.12,0,0,1-.8,0C130.07,56.84,128.67,51.4,128.65,42.78Z"/><path class="cls-2" d="M147.5,32.52l1.8,20.12a13.81,13.81,0,0,1,.2,1.75c0,.53-.67.73-1.34.73-.88,0-1-.63-1.16-1.25l-1-14.48a63.41,63.41,0,0,1-.57-7.13C145.44,31.44,147.42,31.73,147.5,32.52Z"/><path class="cls-2" d="M155.18,32.57c.23-3,2.6-2.25,3.28,0,1,3.29,1.76,6.29,6.12,23.77,0,.73-1.18,1.29-1.89.23l-1.45-5.93-5.34.67a52.9,52.9,0,0,0-.65,5.87c-.08.8-1.78.6-1.75,0ZM156,48c0,.23-.07,1.51-.07,1.78l4.94-.61-3.92-14.67C156.77,36.46,156.09,45.9,156,48Z"/><path class="cls-2" d="M167.92,32.55c.75-1.19,1.9-.14,2.3.32,2.39,5.67,4,11.44,6.94,17.34l.38-4.62a100.79,100.79,0,0,0,.4-11.91c.16-.56.87-.82,1.5-.82a1.26,1.26,0,0,1,1.11.42c-.69,7.13-1,14.72-1.24,22.31l0,.43a1.54,1.54,0,0,1-1,.62,1.81,1.81,0,0,1-1.11-.62c-2.47-6.16-5.26-12.2-7.65-18.39l-.22,18.8c-.91,1.72-2.3.83-2.34-.16Z"/><path class="cls-2" d="M187,30.86h.15c7.13.25,8.14,7.21,8.15,12,0,.49,0,1,0,1.42-.18,6.26-2.31,11.32-9,11.33a10,10,0,0,1-1.7-.13s0-3.69.07-5.21c.1-4.23.29-8.22.48-12.51,0-.56.1-5.37.14-6l0-.2C185.33,31,186.44,30.86,187,30.86Zm-.37,23.33.43,0c5,0,5.84-7.07,6-9.78.19-3.1,0-11.35-5.57-11.73Z"/><path class="cls-2" d="M205.88,31.39c8.78,0,10,23.43,1.33,24.08-.16,0-.32,0-.47,0-3.33,0-5.15-1.64-6.11-4.67C200.11,48.85,195.94,31.41,205.88,31.39Zm-3.36,17.92c.32,1.09,1.64,4.22,3.62,4.38a2.42,2.42,0,0,0,.47,0c2.65-.21,3.51-4.07,3.87-5.62.62-2.64,1.1-14.88-4.52-14.87h-.31C199.67,33.68,201.76,46.9,202.52,49.31Z"/><path class="cls-2" d="M236.83,31.69h.28c1.58.06,3.48.75,3.49,2.37a.64.64,0,0,1-.67.73c-1.31,0-1.51-1.35-3-1.52a1.62,1.62,0,0,0-.23,0c-5.43,0-9.09,20.74,0,21h.2c2.85,0,1.74-3.07,4-3.08H241c.55,0,1,.26,1,.73s-.23.59-.59,1.28A4.6,4.6,0,0,1,237,55.67h-.36c-7.64-.28-7.94-9.09-7.44-13.38C229.33,39.09,231,31.7,236.83,31.69Z"/><path class="cls-2" d="M249.61,31.3c8.79,0,10,23.44,1.34,24.08-.16,0-.32,0-.48,0-3.32,0-5.15-1.64-6.11-4.68C243.84,48.77,239.68,31.32,249.61,31.3Zm-3.35,17.92c.32,1.09,1.63,4.22,3.61,4.38a1.9,1.9,0,0,0,.48,0c2.65-.2,3.51-4.06,3.86-5.61.63-2.64,1.11-14.88-4.51-14.87h-.32C243.41,33.59,245.5,46.82,246.26,49.22Z"/><path class="cls-2" d="M261,30.32a1.62,1.62,0,0,1,1.31,1.16c.34,7.45.32,15,1.13,22.49a24.81,24.81,0,0,1,4.75-.7c.71,0,1.35.16,1.35.82,0,.43-.12.76-.79,1-1.35.4-3.13.34-4.51.67a8.28,8.28,0,0,1-1.7.43,1.43,1.43,0,0,1-1.23-.89c-.49-3.95-.3-8.21-.55-12.1L260.23,35V30.82A.82.82,0,0,1,261,30.32Z"/><path class="cls-2" d="M275.38,31.25c8.79,0,10,23.44,1.33,24.08-.15,0-.31,0-.47,0-3.33,0-5.15-1.64-6.11-4.67C269.61,48.72,265.45,31.27,275.38,31.25ZM272,49.17c.32,1.09,1.63,4.22,3.61,4.38a1.9,1.9,0,0,0,.48,0c2.65-.2,3.51-4.06,3.86-5.61.63-2.64,1.11-14.88-4.51-14.87h-.32C269.17,33.54,271.27,46.77,272,49.17Z"/><path class="cls-2" d="M285.31,42.55c0-1-.22-7-.3-8.58,0-.33-.25-3.23-.29-3.59v-.13c0-.76,1-1,1.82-1,5.46,0,7.41,3.25,7.42,7,0,3-1.37,4.89-3.9,6.41,4.56,1.67,5.68,7,5.69,10.74,0,.6-.43.83-1.15.83-.47,0-.67,0-.87-.53-.2-2.47-1-9.46-5.57-9.45l-.39,0c-.43,3.73-.06,7.49-.33,11.25a1.43,1.43,0,0,1-2.1,0C285.38,53.63,285.35,44.53,285.31,42.55Zm2.17-.8a5.28,5.28,0,0,0,4.34-5.12c0-1.75-.88-5.37-3.73-5.37-.16,0-1.39,0-1.39.27Z"/><path class="cls-2" d="M299.58,52.29V45.76c0-4.72-.58-7.76-.59-12.47V31.6c6.34-.44,7-.07,7,.65,0,.23-.19.73-.47.83h-4.32c-.27,0-.27.17-.27.27,0,3.5.41,6.07.66,9.66.59.13,3.92,0,4.59,0,1.34,0,2.26,1.94.44,1.94h-5l.1,7.72c.95.2,6-.64,6,.82a.82.82,0,0,1-.75.85h-.2c-1.46.1-7.08.47-7.12-.49Z"/><path class="cls-2" d="M311.34,52.2c1.46.19,1.19,1.81,2.78,2,2.57.35,3.16-1.16,3.51-3,.7-3.73-1.48-6.53-3.87-9.62a5.24,5.24,0,0,1-1.35-4.55c.54-2.61,2-4.39,5.33-4.4.28,0,.55,0,.87,0,1.07.1,1.82.3,1.63,1.22-.36,1.62-4.56-1.11-5.46,3.51-.43,2.11.6,3,2,4.87,2.1,3,3.93,5.74,3.23,9.3-.55,2.71-1.89,4.29-5.1,4.3-.31,0-.63,0-.95,0-1.38-.2-3.8-1.31-3.8-2.67,0-.06,0-.16,0-.23C310.19,52.6,310.79,52.2,311.34,52.2Z"/><g class="cls-3"><path class="cls-4" d="M185.33,126.94a229.69,229.69,0,0,0,43.13-2.35,24.56,24.56,0,0,0,10.74-3.87c3.22-2.27,5.54-6.5,4.61-10.5-.88-3.79-4.4-6.32-8-7.1-11.37-2.46-22.87-2.34-34.36-2.05-18.53.47-37.82-2.16-56.13,2.05-3.29.76-6.67,1.8-9.18,4.21s-3.86,6.52-2.31,9.71c1.31,2.69,4.19,4,6.88,5a95.57,95.57,0,0,0,44.6,4.93"/><path class="cls-4" d="M184.75,124.63c.35,0,.18-.39.22-.47C184.4,124.32,184.78,124.73,184.75,124.63Z"/><polygon class="cls-4" points="179.04 126.09 179.13 125.92 178.29 126.37 179.04 126.09"/><path class="cls-4" d="M173.57,126.26c.53.71,2-.15,3,.08l.17.15.42-.57A14.29,14.29,0,0,1,173.57,126.26Z"/><path class="cls-4" d="M170.7,124.73c.17.28-.63.21.66.11l-.12-.07A5.13,5.13,0,0,1,170.7,124.73Z"/><path class="cls-4" d="M171.24,124.77c.57,0-.36-.24,0,0Z"/><path class="cls-4" d="M168.62,124.83l.76-.22c-.15-.16-.81-.22-.56-.33C168.05,124.38,168.2,124.54,168.62,124.83Z"/><path class="cls-4" d="M167.88,125.28l.39-.07C168.21,125.14,168.11,125.11,167.88,125.28Z"/><path class="cls-4" d="M169.11,125c-.28.06-.56.13-.84.18.11.12.11.35.39-.06C168.58,125.35,168.75,125.16,169.11,125Z"/><path class="cls-4" d="M169.57,125.15c.42.17,1,.28.2.49C171.21,125.6,171,125.11,169.57,125.15Z"/><path class="cls-4" d="M173.29,127l.58.21.49-.24C174.11,127.07,173.26,126.75,173.29,127Z"/><path class="cls-4" d="M164,124.11c-.06.14.22.42.25.61l.57-.12C164.55,124.48,164,124.33,164,124.11Z"/><path class="cls-4" d="M164.25,124.72l-.85.17C164.14,125,164.28,124.88,164.25,124.72Z"/><path class="cls-4" d="M167.7,126c.47-.14.94-.29,1.4-.46-.55.17-1.11.31-1.66.45Z"/><polygon class="cls-4" points="160.88 123.73 161.39 123.45 160.5 123.86 160.88 123.73"/><path class="cls-4" d="M158.81,123.48c.38-.22-.39-.54,0-.66a4.69,4.69,0,0,0-1.54.26A2.82,2.82,0,0,1,158.81,123.48Z"/><path class="cls-4" d="M156.48,123.26a4.32,4.32,0,0,0,.78-.18A2.51,2.51,0,0,0,156.48,123.26Z"/><path class="cls-4" d="M162,124.65a.91.91,0,0,0-.59-.5l.27.46Z"/><path class="cls-4" d="M161.69,124.62h0l-.7-.12Z"/><path class="cls-4" d="M162.09,124.66H162S162.05,124.71,162.09,124.66Z"/><path class="cls-4" d="M165.54,125.52c-.51.18-1.56.33-.6.78C165.32,126.05,164.77,125.79,165.54,125.52Z"/><path class="cls-4" d="M162.43,125.23c.29.07.58.14.87.19,0-.11-.15-.28.11-.37Z"/><polygon class="cls-4" points="161.98 125.3 162.43 125.23 162.11 125.15 161.98 125.3"/><path class="cls-4" d="M157.9,123.91a3.29,3.29,0,0,1-1.29,0,7.85,7.85,0,0,0,1.48.38C158.18,124.17,158.43,124,157.9,123.91Z"/><path class="cls-4" d="M159.73,124.31h-.09C159.69,124.36,159.73,124.38,159.73,124.31Z"/><polygon class="cls-4" points="152.06 122.97 152.12 123.06 152.15 123 152.06 122.97"/><path class="cls-4" d="M158.16,124.38a1,1,0,0,0,.84,0,5.84,5.84,0,0,1-.91-.07S158,124.38,158.16,124.38Z"/><path class="cls-4" d="M155.18,123.22a4.75,4.75,0,0,0,.6.34C155.61,123.39,155.27,123.12,155.18,123.22Z"/><path class="cls-4" d="M159.53,124.19h.06C159.48,124.07,159.49,124.12,159.53,124.19Z"/><path class="cls-4" d="M159.53,124.19a2.06,2.06,0,0,0-.53.17,4.22,4.22,0,0,0,.64,0Z"/><path class="cls-4" d="M150.06,125.21c.16-.36,1.23-.44,2,.14.91-.09.62-1.45.06-2.29-.07.16-.1.31-1,.32.24.29,1.79.92,1,1.09-1.18-.07-.9-.35-1.41-.68.36.58-1.61.31-1.54,1h1.07C150.21,125,149.8,125,150.06,125.21Z"/><path class="cls-4" d="M153.74,123.45l.36,0a3.46,3.46,0,0,1-1.1-.77c-.63.06-.78.17-.85.29l1.72.42Z"/><path class="cls-4" d="M155.68,123.8c-.35.36-1.24.37-.81.91,1.06.17.8-.21,1.46-.27-1.7-.21.52-.14-.65-.59a5.32,5.32,0,0,1,.93.06c-.29-.11-.57-.23-.83-.35l0,0h0c.06.06.08.1,0,.05h0a.53.53,0,0,1-.11.14c-.47-.17-.05-.12.11-.14,0,0,0,0,0-.05h0c-.57,0-1.14-.06-1.71-.11A6.38,6.38,0,0,0,155.68,123.8Z"/><path class="cls-4" d="M163.94,127.1c-.05,0,0-.07-.05-.1S163.73,127.07,163.94,127.1Z"/><path class="cls-4" d="M163.25,126.78a.87.87,0,0,1,.66-.12c.34.16,0,.2,0,.34.26-.09.89-.22.14-.49l-.13,0c-.68-.2-1.51-.82-1.38-.86A2.74,2.74,0,0,0,163.25,126.78Z"/><path class="cls-4" d="M159.35,125.46l-1.45,0,.67.47v-.22C159.36,125.9,159.23,125.61,159.35,125.46Z"/><polygon class="cls-4" points="151.95 122.73 152.24 122.35 151.3 122.75 151.95 122.73"/><polygon class="cls-4" points="150.15 122.34 150.31 121.98 149.79 122.09 150.15 122.34"/><path class="cls-4" d="M213,98.63l.44-.1A2.7,2.7,0,0,0,213,98.63Z"/><path class="cls-4" d="M209.87,98.6l-.08.19C209.94,98.69,210,98.61,209.87,98.6Z"/><path class="cls-4" d="M153.15,104.16c.66.28,1.39.75,1.27.33l-.24-.39A2.07,2.07,0,0,1,153.15,104.16Z"/><path class="cls-4" d="M184.55,100.83l-.18-.13-.43.39Z"/><path class="cls-4" d="M185,99.1l.82.3A4,4,0,0,0,185,99.1Z"/><path class="cls-4" d="M230.2,99.34l.57-.35C230,98.87,230.29,99.14,230.2,99.34Z"/><path class="cls-4" d="M135.62,115.18a3.87,3.87,0,0,0,.13-.9C135.53,114.7,135.26,115.15,135.62,115.18Z"/><path class="cls-4" d="M211.75,103.08c.26-.08.37-.16.37-.26C211.85,102.9,211.7,103,211.75,103.08Z"/><path class="cls-4" d="M135.82,113.22a1.27,1.27,0,0,0-.13.19,4.06,4.06,0,0,1,.06.87A1,1,0,0,0,135.82,113.22Z"/><path class="cls-4" d="M208.49,129.09l-.15,0C208.33,129.11,208.4,129.1,208.49,129.09Z"/><path class="cls-4" d="M190.54,125.22c.18,0,.46,0,.73,0A2,2,0,0,0,190.54,125.22Z"/><path class="cls-4" d="M143.12,120.05c.38.1.07,0,0,0Z"/><path class="cls-4" d="M144.41,122.22a.27.27,0,0,0-.21.15A.34.34,0,0,1,144.41,122.22Z"/><path class="cls-4" d="M134.65,109.1l0,0C134.53,109.13,134.56,109.12,134.65,109.1Z"/><path class="cls-4" d="M143.61,120.42a2.46,2.46,0,0,0-.43-.28Z"/><path class="cls-4" d="M143.6,120.2l.31.15C144,120.3,144,120.25,143.6,120.2Z"/><path class="cls-4" d="M142.6,119.89a3.38,3.38,0,0,1,.58.25c-.06,0-.08-.09-.06-.09Z"/><path class="cls-4" d="M240.87,121l-.1,0C240.54,121.49,240.67,121.34,240.87,121Z"/><path class="cls-4" d="M163.12,98.91l0,0h.06Z"/><path class="cls-4" d="M164.57,98.55a1.37,1.37,0,0,1-1.43.4l.53,1.19Z"/><path class="cls-4" d="M220.5,98.73l-1-.42c1.27-.56,2.17-.3,1.22-.88-.21,1.29-4-.05-4.21,1.27l-.66-.29c.19,0,.22-.06.41,0-1.3-.65-1,.92-2.67.72-.59-.11-1-.3-.6-.46l-1.31.32c-.38,0-.29-.25.09-.23l-2,.11v0a8.64,8.64,0,0,1-1.23.67c-.51-.18.25-.14.12-.3l-1.1.33c-.45-.33.46-.68,1.22-.64-1.05-1.3-.91.34-3.14-.39l1-.18c-.69-.74-1.5-.45-2.68-.89.28.24,2.37,1.12,1.19,1.47a2,2,0,0,0-1.42.15c0-.47-.64-.34-1.43-.29l0-.62c-.84.2-.77.51-1.26.8a1.41,1.41,0,0,1-1.36-.92c-1.49-.08,1,.75-.72.89a8.08,8.08,0,0,0-3.61.4c-.87-.21.16-.38-.16-.55l-.77.49c-.19,0-.13-.17-.1-.24-.65.18-.06.62-1.09.77-.28.67-2.09-1-3.38-.28-.31-.18.16-.37.07-.61a12.68,12.68,0,0,0-3,1l-1.21-.43c.88.48-.28,1-1.3,1.43a6.92,6.92,0,0,0,.76.53l-1.61.29c-.2-.1,0-.31.24-.56l-.3.14c-.57-.24-.26-.59.16-.93l.57.4c.41-.37.79-.77.72-1.14a1.29,1.29,0,0,1-.53.15c.1-.09.17-.18.13-.25s-.23.07-.5.22l-.34-.7-.1.27-2.1-.48c-1.52.65-2.86,1.64-5.26,1.88.61-.49.15-.82.19-1.42.64.64,1.86-.23,3.1-.08-.64-.08-.5-.36-.33-.45l-2.23.52c.06-.49-.46-.37-1-.58.42,1-1.66.62-2.57.91,0-.33.17-.66,1.27-.57-1.21-.74-1.58,1.12-2.77.5.27,0,.41,0,.52-.12-.63.29-2.17.06-1.81-.22H171c-1.79-.12-5.46.06-5.7.9a4.54,4.54,0,0,1,.31-1.17c-1,1-2.07,1.92-3.07,2.89.24-.72-.93-2.35.55-2.81a3.14,3.14,0,0,0-1.87.13c.3.08.79,1,.39,1.06a8.39,8.39,0,0,0-2.17-.95c.45.12,0,1.24-.65,1.27.1-.17-.14-1.08.1-1.22l-1.62,1.24c.41-.23,0-.93-.43-1.2.2.2-1.49.11-1.94.29l.76.16c-2,.08-1.74,1.75-3.63,1.94.19-.25.37-1.46-.63-1.43-.37.64-1.55,2.93-3.08,3.68l-.37-.25-1.18.62a17.92,17.92,0,0,1,1.6-2.07,16.37,16.37,0,0,1,2-2c-.77-.13-.27-.34-1.35-.13-.44-.23.52-.54.84-.61-.87.07-1.73.14-2.59.27.24.61-1.81,1-1.59,1.54l2.6-1.22c.22.62-1.23,2.14-3,2.38-.5-.15.08-1.19,0-1.4a3.65,3.65,0,0,1-1.8.7l.68-.53c-1.08,0-1.41,1.24-2.79,1-.42.09-1.55-.33-1.49.06a4,4,0,0,1,1.64,3.22c-.14,0-2.14.13-2.73.08-.43-.08-.4-.51-.31-.94s.21-.86-.19-.93c.06.17-.2.54-.3.7-.48.11-.11-.59-1,0,.2.62-1.75,1.19-.1.74-.69.74-.94.51-1.79,1.36.28,0,.34.47.3,1a5.63,5.63,0,0,1-.28,1.56c-.11-.14-.4-.09-.54-.06a9,9,0,0,0-1.85,4.35c-.19.15-.38,1.08-.66.69a3.68,3.68,0,0,1,.44,1.12c-.17.62-.27.3-.36-.08s-.17-.8-.46-.3c.35.06.74,1.57,1.35,2.24.22-.24.07-.67-.15-1.18s-.46-1.11-.59-1.54c.82,0,1.67,1.33,2.73,2.4.38.46.37.62.26.72s-.31.08-.2.13a2.17,2.17,0,0,0,1.94,1.07,2.16,2.16,0,0,1,1.74.74c.53.83-.41,1-.41,1.37-1.15-.34-1.41-1.14-2-1.57.2.26.42.5.64.75a2.13,2.13,0,0,1-1.35-.81,4.93,4.93,0,0,0,2.24,1.79c1.18.62,2.59,1.14,3.52,1.68.41,0,1.08,0,.86-.3l-.65-.15c-.44-.59,1.37-.14.64-.6a6.33,6.33,0,0,1,3.13.48l.05.63c0-.17-.68-.58-1.07-.51.58-.1,1.6,1.35,2.37.75-.24-.2-.48-.42-.72-.64.93,0,2.16-.35,3.15.13-.32-.7-.26,0-.82-.87.41,1-2.67-.8-1.88.36-.53-1-1.22-.74-2-1.69,0,.19.23.48-.61.09a1,1,0,0,1-.24.1l-.06,0,0,0s-.05,0,0,0a1.13,1.13,0,0,1,.35.43c-.57.28-2-.21-2.5-.15-.49-.27.29-.14.08-.43l-.81.08c.08-.44-1-1.17.2-1l-1-.42a3.69,3.69,0,0,0-1.6-1c-.32-.29-1.15-.21-.66-.27a6,6,0,0,1-1.16-.69l.07-.08a7.23,7.23,0,0,1-1.11-1.49,2,2,0,0,1,.14-2.08,2.46,2.46,0,0,1,.29-1.66h.41a2.36,2.36,0,0,1,.57-1c.25-.31.47-.56.39-.77.61,0,1-.34,1.57-.86a5.53,5.53,0,0,1,1.75-1.26l-.19-.46c.73-.33,1.4-.76,2.37-1.28l-.2-.39c.8-.65,2.45-.41,4-.76-.07.19-.47.22-.77.18a4.13,4.13,0,0,0,2.86-.48,4.43,4.43,0,0,1,2.72-.57,1.39,1.39,0,0,1,1-.16l-.1,0,.17,0c.2,0,.41.11.62.15a2.23,2.23,0,0,0-.52-.17,7.34,7.34,0,0,0,1.28-.33l.27.44.11,0c.49.11.36-.27.06-.58a3.17,3.17,0,0,0,.61-.36c.47.69,1.25-.41,1.87.34.29-.41,2.43-.52,2.64-1.35,0,.1.17.15-.09.17a2.67,2.67,0,0,0,1.59-.14l.27.57,1.16-.87c.75.32,1.06.53.36,1,1.72-.77,1.41-.32,2.88-1.07l-.06.39c.53,0,1.38-.57,1.71-.25,1.2.69,5.93,0,9,.78-.58-1.14,1.42.52,1.56-.34.18.27.6.43.1.65,1.58-.23,2.35.47,3.46-.24.18.28-.34.39-.19.55.13-.06.51-.22.67-.06s-.24.22-.49.33c1.61,0,1.8-.82,1.94-1.59a1.41,1.41,0,0,0,1.82-.14c.28.25.75.53-.26.6.56,0,3.44.45,3.51-.17.18.16.79.07.94,0a23.25,23.25,0,0,0,2.63.08l-.34-.1c.5-.74,1-.16,2-.23l0,.07c2.3.56,1-.25,3.27.37l-.12-.46c.2-1,2,.58,3.34.17l-.48-.25c.71-.36,2,1.32,2.77,1.43.16.08-.24.14-.46.21,1.9.54.23-.61,1.63-.79.27.32-.31.84.63.88.48.26,2.72-1.12,4-.5-.28-.25-.57-.5.08-.7,1-.1,2.7.94,3.6.15.12.07.17.13.18.19.76-.19,2.47-.32,2.93-.73.66,1.59,4.76-.64,4.68.86.78,0,1.55,0,2.33,0l-.07.15a3.42,3.42,0,0,0,2.57-.41c.34.13.07.24,0,.32a6.11,6.11,0,0,0,4.24,0l.12.5c.54-.21,3,1.18,5.14,1a.37.37,0,0,1-.27.17,5.15,5.15,0,0,1,1.83.32,7.3,7.3,0,0,1,1.46.8c.88.57,1.5,1.06,2.33.59a7.88,7.88,0,0,1,1.33.6c-.6-.69-.46-.78-.16-.8s.74.08.53-.31c.7.5,1,1.87.29,1.19l0-.17c-.45.19-.11.65.18,1.17s.55,1.07.25,1.18a5.92,5.92,0,0,1,.09,4.74,11,11,0,0,1-2.73,4c.25.08.52.16.77.22a9.37,9.37,0,0,1-.88.79c-.34.07-.65-.17,0-.67-.57,0-.82,1.1-.79,1.25-1.56.71.08-1-.37-.76l-.53.42.18,0c-.31.54-.2.85-1.13,1.32-.66.18-.5-.23-.74-.15,0,0-.11,0-.37.15-.46.19-.94.36-1.43.52l.78.3c-.54.52-1.41.48-.5.83-.67-.26-2.09.1-3.51.39a13.68,13.68,0,0,1-3.18.49,7.57,7.57,0,0,1-3.25.81c.33.08.6.67-.49.74.23-1.33-2.07-.3-3-1.12.85.53-3.07.49-1.74,1.23-.92,0-.11-.48-.83-.71-2.11.72-4.78.14-7.43.48,0,.18.43.4-.13.7l-1.46-.76c-.52.11-.43,1-1.43.47.14.14.36.34,0,.42-5.27-.54-10.75,1.07-16.08-.55.71.34.23.37-.32.38.36.08,0,.42,0,.65l-2.22-.68c-.42.64-2.4,0-2.65.59l.71-.09c-1,.69,1.28,1.64,1.13,2.56,1.07-.8,2.79,1.27,4.55.11.39.19-.33.29-.12.51.44-.39,1-.47,2-.3l-.11.1c2.79-.1,4,.27,7.14.46l-.25-.45a3.14,3.14,0,0,1,1.15.28c.75-.72-1.9,0-1.22-.77.93.92,4.75-.15,5.4.87,1,0-.33-.51.71-.56l.29.27.24-.39c.68,0,1.05.36,1.09.6a3.63,3.63,0,0,0-.64.13c.9.29,2.48-.27,2.79-.18l-1-.11c2.81-.44,6.31-.38,9-1.25l-.23-.2c2-.61,1.69.06,4-.4l-.08.06a4.06,4.06,0,0,1,1.65-.52c-.54.33,1.15.35.43.72,2.19-.72,1.07-.49,2.43-1.49l.4.3a2.5,2.5,0,0,1,1.59-.84c-.89.46.83.41-.16,1a4.73,4.73,0,0,0,2.87-.53c.71-.33,1.24-.59,2-.22.41-.65-.15-.6-.74-.48s-1.23.35-.94.16c-.59-.18.71-.94,1.47-1.08s1.7.82,3.62-.09c-.2.08-.18.15-.37.24.84-.11,1.22-1,2.26-1.14.14-.79,1.08-.66.76-1.39a18.94,18.94,0,0,1-1.49,1.19c.83-.75,1.15-2,2.67-2.85a2.61,2.61,0,0,1-.43,1c.56-.18.65-.8,1.19-1,.23.32-.16.8-.71,1.31a9.63,9.63,0,0,0-1.6,1.59c.67,0,1.55-1.83,1.56-.79,0-.7.44-1,.93-1.43a2.68,2.68,0,0,0,1.13-1.74l.32.35a4.79,4.79,0,0,1,.42-1.14c0,.34,0,.67.06,1a3.88,3.88,0,0,1,1-1.6,3.17,3.17,0,0,0,.88-1.65c-.45,1.25-.68,1.3-.81,1.19s-.26-.39-.64,0a3.19,3.19,0,0,1,1.19-2.19,2.36,2.36,0,0,0,.68-.83,3.77,3.77,0,0,0,.33-2c.1.55-.42,1.9-.54,1.09.19-.68.33-1.63.52-2.11-.2-1.29-.35-1.15-.43-.85s-.17.76-.4.27c.4-.93-.45-1.16-1-2l.43-.18c-.41-1.34-.79-1.34-1-1.35s-.49,0-1.05-1a10.19,10.19,0,0,1,1.12.42,11,11,0,0,0-.9-.91l.58-.13a13.06,13.06,0,0,1-2.42-2.09c.05.46-.63.56-1.56,0-.53-.61.6-.2-.84-.87a1,1,0,0,1,1.39.5c.14-.1.47-.06.61-.14a5.33,5.33,0,0,0-2.44-1.36,2.17,2.17,0,0,1,.56.36,13.54,13.54,0,0,0-2.44-.2c-.31-.26,0-.33.33-.38-.47-.08-.89,0-1.47,0a2.34,2.34,0,0,1,.33-.49.83.83,0,0,1,.31-.17,1.73,1.73,0,0,1,.62,0l-.6,0h-1.51c-.1-.19-.91-.65-.63-.73-1-.42-2.77.25-4.15-.24a1,1,0,0,1-.55.13c-1.33-.27-2.48-.87-4.12-.51l-.85-.76c-1.26,0,1.15,1-1,1-1.48.1-.5-.62-1-.85a4.2,4.2,0,0,1-3.38.29A7,7,0,0,1,220.5,98.73Zm-15.26.14c.29-.1.87-.42,1.09-.14C206,99.27,205.74,99,205.24,98.87Zm-22.89,1c.22-.15.56-.07.93.12A2.11,2.11,0,0,1,182.35,99.88Zm-43.18,19.05h0C138.72,118.52,138.86,118.67,139.17,118.93Zm1,.67c.14,0,.16-.07.14-.15-.13.08-.39,0-.66-.18C139.7,119.42,139.81,119.56,140.19,119.6Zm95.44,1.05h.27C235.46,121,235.55,120.83,235.63,120.65Z"/><path class="cls-4" d="M185,99.3a.51.51,0,0,1,.12.26C185.21,99.49,185.21,99.39,185,99.3Z"/><path class="cls-4" d="M230.09,99.4h0a.19.19,0,0,0,.06-.07Z"/><path class="cls-4" d="M137.68,103.85a1.21,1.21,0,0,1,.64-.07C138.29,103.67,138.11,103.64,137.68,103.85Z"/><path class="cls-4" d="M147,121.08l-.84-.14a1.41,1.41,0,0,1,.68.38C146.87,121.2,146.76,121,147,121.08Z"/><path class="cls-4" d="M153.51,125.68c.14,0,.27,0,.4,0v-.22C153.39,125.38,153,125.47,153.51,125.68Z"/><path class="cls-4" d="M147.34,122.78c0,.39.52.41,1.12.5l-.11,0C148.67,122.77,148,122.77,147.34,122.78Z"/><path class="cls-4" d="M148.59,123.3a4.26,4.26,0,0,1,.54.14C149.26,123.25,148.93,123.34,148.59,123.3Z"/><path class="cls-4" d="M141.8,119.93c.23.19.34-.41.43-.21C142.69,119.35,140.28,119.67,141.8,119.93Z"/><polygon class="cls-4" points="147.46 124.15 147.39 123.63 146.95 123.91 147.46 124.15"/><path class="cls-4" d="M143,122.41c.29.15.58.3.87.43,0-.08.15-.09.3-.08C143.6,122.57,143,122.26,143,122.41Z"/><path class="cls-4" d="M144.16,122.76a2.15,2.15,0,0,0,.77.16A4.12,4.12,0,0,0,144.16,122.76Z"/><polygon class="cls-4" points="146.14 123.93 145.9 123.75 145.25 123.52 146.14 123.93"/><path class="cls-4" d="M134.49,117.28a6.74,6.74,0,0,1-.55-.84c-.2,0-.19.26,0,.59C134.2,117.2,134.43,117.49,134.49,117.28Z"/><path class="cls-4" d="M135.76,120.54a1.06,1.06,0,0,1-.17-.6l-.41.45Z"/><path class="cls-4" d="M133.3,118.13c-.22,0-1.28-1.41-.5,0C133,118.21,133.8,119.15,133.3,118.13Z"/><polygon class="cls-4" points="139.99 104.53 139.74 104.65 140.19 105.53 139.99 104.53"/><path class="cls-4" d="M153.45,99.06c-1.31-.07-.22.64-1.41.5-.27.26,1,.12.69.35C153.47,99.57,153.89,99.66,153.45,99.06Z"/><path class="cls-4" d="M152.73,99.91l-.37.2A1.52,1.52,0,0,0,152.73,99.91Z"/><polygon class="cls-4" points="187.61 124.63 186.82 124.4 187.33 124.75 187.61 124.63"/><path class="cls-4" d="M186.05,125.32l-.17-.64-.5.56C185.57,125.22,185.92,125.17,186.05,125.32Z"/><path class="cls-4" d="M203,97.66l0,.15c.12.16.31.17.7.18Z"/><polygon class="cls-4" points="214.03 98.03 213.84 98.01 214.19 98.58 214.03 98.03"/><path class="cls-4" d="M223.46,97.71c-.38-.06-.85,0-1.23,0C223.08,97.65,223.51,98.42,223.46,97.71Z"/></g><path class="cls-2" d="M60.43,82c-.09-1.3-.13-3.07-.13-5.29s0-3.66.09-4.32a1,1,0,0,1,.84-.81,7.83,7.83,0,0,1,2-.2,5.62,5.62,0,0,1,3,.77,2.52,2.52,0,0,1,1.22,2.27,5.38,5.38,0,0,1-.34,2.06,3,3,0,0,1-.85,1.23,4,4,0,0,1-2.47.64,11.41,11.41,0,0,1-1.85-.19c.07,2.54.09,4.13.08,4.79s-.24,1-.67,1a.68.68,0,0,1-.53-.15l-.15-.22a.81.81,0,0,1-.08-.2c0-.09,0-.16-.05-.22a.77.77,0,0,1,0-.25q0-.18,0-.27C60.44,82.39,60.43,82.18,60.43,82Zm5.41-7.53A1.35,1.35,0,0,0,65,73.2a3.71,3.71,0,0,0-1.79-.44,3.51,3.51,0,0,0-1.33.17c0,.75-.07,1.43-.07,2.06s0,1.19.07,1.7l.71.09a7.16,7.16,0,0,0,.84.06h.48a3.41,3.41,0,0,0,.47-.06,1.09,1.09,0,0,0,.51-.16c.1-.07.22-.17.37-.3a1.07,1.07,0,0,0,.33-.44A4.33,4.33,0,0,0,65.84,74.42Z"/><path class="cls-2" d="M70.44,83.69a1,1,0,0,1-.65.28c-.24,0-.4-.16-.49-.46,0-1.67,0-3.34,0-5l-.06-4.79a2,2,0,0,1,1.27-2,5.73,5.73,0,0,1,2.43-.48,4.06,4.06,0,0,1,1.55.35,4.54,4.54,0,0,1,1.48,1,2.07,2.07,0,0,1,.66,1.46,2.77,2.77,0,0,1-.72,1.69,7.29,7.29,0,0,1-1.79,1.6,9.55,9.55,0,0,1-2.07,1,18.34,18.34,0,0,1,3.08,2.65,4,4,0,0,1,1.31,2.19.63.63,0,0,1-.25.47.87.87,0,0,1-.59.21.74.74,0,0,1-.6-.3,6.54,6.54,0,0,0-1.59-2.12,18.56,18.56,0,0,0-2.73-2.12l.12,3.65A.8.8,0,0,1,70.44,83.69Zm3.09-7.38c1.06-.67,1.59-1.28,1.59-1.82a1.36,1.36,0,0,0-.8-1.24,3.88,3.88,0,0,0-1.89-.44,4.6,4.6,0,0,0-1.74.27c0,.64,0,2.08,0,4.29A6,6,0,0,0,73.53,76.31Z"/><path class="cls-2" d="M82.92,71.25a3.24,3.24,0,0,1,2.27.86Q87,73.75,87,77.26a7.49,7.49,0,0,1-2,5.54,3.83,3.83,0,0,1-2.41,1.11,3.44,3.44,0,0,1-2.82-1.24,7.43,7.43,0,0,1-1.43-2.76,10.81,10.81,0,0,1-.43-3,6.63,6.63,0,0,1,1.16-4A4.43,4.43,0,0,1,82.92,71.25Zm-.13,1.58a3,3,0,0,0-3.17,2.41,5.84,5.84,0,0,0-.19,1.65,8.72,8.72,0,0,0,.38,2.34,4.49,4.49,0,0,0,1.52,2.51,2.29,2.29,0,0,0,1.43.46,2,2,0,0,0,1.5-.76,4.17,4.17,0,0,0,.91-1.9,11.63,11.63,0,0,0,.25-2.34,7.17,7.17,0,0,0-.6-3.23A2.11,2.11,0,0,0,82.79,72.83Z"/><path class="cls-2" d="M91.06,79.29l0-1a1.75,1.75,0,0,0-.32-1c-.21-.32-.71-1.24-1.51-2.76A12.79,12.79,0,0,1,88.06,72a.83.83,0,0,1,.73-.77c.15,0,.35.15.57.44A21,21,0,0,1,90.67,74c.65,1.24,1,1.92,1.13,2.05a33.05,33.05,0,0,1,2.92-4.56.73.73,0,0,1,.43-.25.49.49,0,0,1,.24,0c.3.12.46.29.46.5a1,1,0,0,1-.16.54c-.1.16-.38.55-.83,1.2a23.32,23.32,0,0,0-1.74,2.84,6.35,6.35,0,0,0-.73,1.76v3.48l.06,1.52a.68.68,0,0,1-.23.58,1,1,0,0,1-.56.16.45.45,0,0,1-.45-.36,3.81,3.81,0,0,1-.13-.95c0-.4,0-1,0-1.73Z"/><path class="cls-2" d="M97.12,77.35a.56.56,0,0,1-.27-.5,1,1,0,0,1,.21-.59c0-1.26-.07-2.6-.07-4a1.22,1.22,0,0,1,.35-.67,1.18,1.18,0,0,1,.69-.26c1.67.07,3.48.11,5.43.11.49.1.73.31.73.62,0,.54-.52.85-1.56.94h-2.15c-.24,0-.9-.05-2-.15,0,1.59,0,2.68.07,3.27l3.88,0c.45.09.68.29.68.62a.82.82,0,0,1-.55.75.83.83,0,0,1-.21.07l-3.28,0a2.29,2.29,0,0,0-.5,0l.08,3.26a14.33,14.33,0,0,1-.06,1.58l4.41-.06c.41.07.61.24.61.52a.87.87,0,0,1-.26.57,1.11,1.11,0,0,1-.6.36l-4.86.07a.89.89,0,0,1-.61-.16.73.73,0,0,1-.17-.54,13.36,13.36,0,0,0,.08-1.71V80.14Z"/><path class="cls-2" d="M110.85,71.46a9.3,9.3,0,0,1,2.82.49.77.77,0,0,1,.34.58.7.7,0,0,1-.31.55,1.16,1.16,0,0,1-.72.24,7.52,7.52,0,0,0-1.92-.27A3.92,3.92,0,0,0,108,74.27a6.39,6.39,0,0,0,.19,7.35,2,2,0,0,0,1.54.7,7.62,7.62,0,0,0,2.85-.95,2.93,2.93,0,0,1,.91-.32c.33,0,.49.17.49.51a1,1,0,0,1-.47.86,18.2,18.2,0,0,1-2.55,1.15,5.37,5.37,0,0,1-1.57.29,3.12,3.12,0,0,1-2.34-1,7.22,7.22,0,0,1-1.73-5.09A6.31,6.31,0,0,1,106.91,73,5.55,5.55,0,0,1,110.85,71.46Z"/><path class="cls-2" d="M115.72,71.55l7.69-.12c.37.12.55.3.55.56,0,.63-.25.94-.77.94-1,0-2,0-3,.08q-.09,1.63-.09,2.46v1.06l.08,6.67c0,.39-.1.62-.31.68a1.82,1.82,0,0,1-.57.08c-.36,0-.57-.21-.6-.63q-.12-1.47-.12-5.46c0-2.67,0-4.28.11-4.82l-1.17,0-1.94,0a.62.62,0,0,1-.48-.19.7.7,0,0,1-.17-.47.82.82,0,0,1,.24-.54A.89.89,0,0,1,115.72,71.55Z"/><path class="cls-2" d="M129.59,71.24a3.23,3.23,0,0,1,2.26.86c1.22,1.09,1.82,2.81,1.82,5.16a7.47,7.47,0,0,1-2,5.53,3.78,3.78,0,0,1-2.41,1.11,3.4,3.4,0,0,1-2.81-1.24A7.45,7.45,0,0,1,125,79.9a11.21,11.21,0,0,1-.43-3,6.63,6.63,0,0,1,1.16-4A4.45,4.45,0,0,1,129.59,71.24Zm-.13,1.58a3,3,0,0,0-3.18,2.41,6.31,6.31,0,0,0-.19,1.66,8.71,8.71,0,0,0,.38,2.33A4.54,4.54,0,0,0,128,81.73a2.25,2.25,0,0,0,1.43.46,2,2,0,0,0,1.5-.75,4.11,4.11,0,0,0,.91-1.91,11,11,0,0,0,.25-2.34,7.07,7.07,0,0,0-.6-3.23A2.1,2.1,0,0,0,129.46,72.82Z"/><path class="cls-2" d="M143.63,71.35a1,1,0,0,1,.8.42,8.45,8.45,0,0,1,.83,1.73,54.88,54.88,0,0,1,2.34,9.71.65.65,0,0,1,0,.22.45.45,0,0,1-.18.3.73.73,0,0,1-.51.16.93.93,0,0,1-.56-.16.82.82,0,0,1-.31-.53l-.28-1.45a11,11,0,0,0-.61-2.51,6.24,6.24,0,0,0-1.51-.29c-.86-.1-1.42-.15-1.7-.15a.94.94,0,0,0-.5.08q-.33.3-.93,4.62-.08.36-.72.36c-.43,0-.64-.19-.64-.55a25.57,25.57,0,0,1,1-5.23A28.26,28.26,0,0,1,141.84,73C142.4,71.89,143,71.35,143.63,71.35Zm-.08,2.11c-.19,0-.52.56-1,1.68a8.78,8.78,0,0,0-.71,2.08.23.23,0,0,0,0,.14,2.85,2.85,0,0,0,1.2.26c.69.08,1.16.12,1.39.12a.28.28,0,0,0,.41-.35,16.18,16.18,0,0,0-.51-2.09C144.05,74.07,143.77,73.46,143.55,73.46Z"/><path class="cls-2" d="M149.94,83.68a1,1,0,0,1-.66.27c-.23,0-.39-.15-.48-.46,0-1.67-.06-3.33-.06-5l-.06-4.79a2,2,0,0,1,1.28-2,5.82,5.82,0,0,1,2.43-.47,3.88,3.88,0,0,1,1.55.35,4.62,4.62,0,0,1,1.48,1,2.06,2.06,0,0,1,.65,1.47,2.73,2.73,0,0,1-.72,1.69,7.41,7.41,0,0,1-1.78,1.59,9.12,9.12,0,0,1-2.07,1,19.69,19.69,0,0,1,3.08,2.65,4,4,0,0,1,1.31,2.19.63.63,0,0,1-.25.47.86.86,0,0,1-.6.22.77.77,0,0,1-.6-.3,6.53,6.53,0,0,0-1.58-2.12,18.56,18.56,0,0,0-2.73-2.12l.11,3.65A.84.84,0,0,1,149.94,83.68ZM153,76.29c1.05-.67,1.58-1.27,1.58-1.81a1.35,1.35,0,0,0-.8-1.25,3.88,3.88,0,0,0-1.89-.43,4.87,4.87,0,0,0-1.74.26c0,.65,0,2.08,0,4.3A6.09,6.09,0,0,0,153,76.29Z"/><path class="cls-2" d="M157.44,71.54l7.7-.11c.36.11.55.29.55.55,0,.63-.26,1-.78,1-.95,0-2,0-3,.07-.06,1.09-.1,1.91-.1,2.46v1.06l.08,6.67c0,.39-.1.62-.3.68A1.82,1.82,0,0,1,161,84c-.37,0-.57-.21-.61-.63q-.12-1.45-.12-5.46c0-2.67,0-4.27.12-4.82l-1.18,0-1.94,0a.58.58,0,0,1-.47-.19.63.63,0,0,1-.17-.46.81.81,0,0,1,.23-.55A.94.94,0,0,1,157.44,71.54Z"/><path class="cls-2" d="M167.87,67.53a.46.46,0,0,1,.49-.32.77.77,0,0,1,.59.23.62.62,0,0,1,.21.37.75.75,0,0,1,0,.23,4.73,4.73,0,0,1-1,1.62c-.47.51-.84.76-1.09.76a.78.78,0,0,1-.57-.19.61.61,0,0,1-.19-.45.67.67,0,0,1,.3-.5A3.87,3.87,0,0,0,167.87,67.53Zm-.48,4.26a1.19,1.19,0,0,1,.67-.19c.26,0,.41.14.48.43q0,2.2.08,6.6c0,1.78-.05,3.3-.16,4.54a.7.7,0,0,1-.35.5,1.07,1.07,0,0,1-.63.22.48.48,0,0,1-.54-.55c.13-1.27.19-2.84.19-4.71L167,72.24A.76.76,0,0,1,167.39,71.79Z"/><path class="cls-2" d="M175,71.29a4.8,4.8,0,0,1,2.1.42c.57.28.86.63.86,1.06a.92.92,0,0,1-.14.5.49.49,0,0,1-.42.21,4.18,4.18,0,0,1-1.19-.43,3.86,3.86,0,0,0-1.66-.43,3,3,0,0,0-1.55.48,1.36,1.36,0,0,0-.8,1.16,1.44,1.44,0,0,0,1,1.36,9.73,9.73,0,0,0,2.07.58,4.35,4.35,0,0,1,2.21,1,3.07,3.07,0,0,1,.85,2.38,4.28,4.28,0,0,1-1.46,3.59,3.63,3.63,0,0,1-2.31.65,6.06,6.06,0,0,1-3-.82c-.65-.34-1-.68-1-1a.72.72,0,0,1,.16-.42,1.3,1.3,0,0,1,.45-.38.58.58,0,0,1,.52,0c.16.07.42.19.77.37s.62.3.78.36a4.07,4.07,0,0,0,1.5.31,1.87,1.87,0,0,0,1.36-.7,2.36,2.36,0,0,0,.65-1.7A1.87,1.87,0,0,0,175.47,78a6.45,6.45,0,0,0-1.46-.4,5.5,5.5,0,0,1-2.55-1,2.66,2.66,0,0,1-.85-2.16,2.6,2.6,0,0,1,1.23-2.27A5.63,5.63,0,0,1,175,71.29Z"/><path class="cls-2" d="M179.52,71.54l7.7-.12c.36.12.55.3.55.55,0,.64-.26,1-.78,1-1,0-2,0-3,.08-.07,1.09-.1,1.91-.1,2.46v1.05l.08,6.67c0,.4-.1.62-.3.69a1.93,1.93,0,0,1-.57.07c-.37,0-.57-.21-.61-.62-.08-1-.12-2.8-.12-5.47s0-4.27.12-4.81l-1.18,0-1.94,0a.66.66,0,0,1-.48-.19.7.7,0,0,1-.17-.47.82.82,0,0,1,.24-.54A.85.85,0,0,1,179.52,71.54Z"/><path class="cls-2" d="M189.47,71.78a1.25,1.25,0,0,1,.67-.19c.25,0,.41.15.48.44q0,2.2.07,6.59c0,1.79-.05,3.3-.15,4.54a.74.74,0,0,1-.35.51,1.13,1.13,0,0,1-.64.21c-.35,0-.53-.18-.53-.55.13-1.26.19-2.83.19-4.71l-.11-6.38A.81.81,0,0,1,189.47,71.78Z"/><path class="cls-2" d="M198.42,71.44a9.3,9.3,0,0,1,2.82.49.77.77,0,0,1,.34.58.7.7,0,0,1-.31.55,1.16,1.16,0,0,1-.72.24,7.52,7.52,0,0,0-1.92-.27,3.92,3.92,0,0,0-3.11,1.22,5.35,5.35,0,0,0-1.07,3.61,5.29,5.29,0,0,0,1.26,3.74,2,2,0,0,0,1.54.71,7.81,7.81,0,0,0,2.85-1A2.78,2.78,0,0,1,201,81c.33,0,.49.17.49.52a1,1,0,0,1-.47.85,18.2,18.2,0,0,1-2.55,1.15,5.11,5.11,0,0,1-1.57.3,3.13,3.13,0,0,1-2.34-1,7.19,7.19,0,0,1-1.73-5.08A6.28,6.28,0,0,1,194.48,73,5.56,5.56,0,0,1,198.42,71.44Z"/><path class="cls-2" d="M208.27,71.23a3.23,3.23,0,0,1,2.26.85q1.82,1.64,1.82,5.16a7.49,7.49,0,0,1-2,5.54,3.76,3.76,0,0,1-2.41,1.1,3.45,3.45,0,0,1-2.82-1.23,7.55,7.55,0,0,1-1.43-2.77,10.74,10.74,0,0,1-.43-2.95,6.61,6.61,0,0,1,1.16-4A4.42,4.42,0,0,1,208.27,71.23Zm-.14,1.57A3,3,0,0,0,205,75.22a5.84,5.84,0,0,0-.19,1.65,8.84,8.84,0,0,0,.38,2.34,4.49,4.49,0,0,0,1.52,2.51,2.3,2.3,0,0,0,1.43.45,2,2,0,0,0,1.5-.75,4.11,4.11,0,0,0,.91-1.91,11.48,11.48,0,0,0,.25-2.34,7.07,7.07,0,0,0-.6-3.23A2.11,2.11,0,0,0,208.13,72.8Z"/><path class="cls-2" d="M220.28,80.12l-1.58,0a.62.62,0,0,1-.45-.19.78.78,0,0,1-.18-.55.82.82,0,0,1,.23-.58.88.88,0,0,1,.65-.22h4.73a.64.64,0,0,1,.7.72.79.79,0,0,1-.22.56.81.81,0,0,1-.63.24Z"/><path class="cls-2" d="M230.52,81.92c-.09-1.3-.14-3.07-.14-5.29s0-3.66.1-4.32a1,1,0,0,1,.83-.81,8,8,0,0,1,2-.2,5.48,5.48,0,0,1,3,.77,2.51,2.51,0,0,1,1.23,2.27,5.58,5.58,0,0,1-.34,2.06,3,3,0,0,1-.86,1.23,4,4,0,0,1-2.47.64,11.31,11.31,0,0,1-1.84-.19c.06,2.54.09,4.13.08,4.79s-.24,1-.67,1c-.28,0-.46,0-.53-.15a1.42,1.42,0,0,1-.15-.22,1,1,0,0,1-.08-.2,2.18,2.18,0,0,0-.06-.22,1.51,1.51,0,0,1,0-.26c0-.11,0-.2,0-.26A6.22,6.22,0,0,1,230.52,81.92Zm5.41-7.53a1.36,1.36,0,0,0-.83-1.22,3.74,3.74,0,0,0-1.79-.45,3.43,3.43,0,0,0-1.33.18c0,.74-.08,1.43-.08,2.06s0,1.19.08,1.7l.7.09a7.17,7.17,0,0,0,.85.06H234l.48-.06a1,1,0,0,0,.5-.16l.38-.3a1.11,1.11,0,0,0,.32-.44A4.13,4.13,0,0,0,235.93,74.39Z"/><path class="cls-2" d="M240.53,83.66a1,1,0,0,1-.65.27c-.24,0-.4-.15-.49-.45,0-1.68-.06-3.34-.06-5l-.06-4.79a2,2,0,0,1,1.28-2,5.66,5.66,0,0,1,2.43-.48,4.06,4.06,0,0,1,1.55.35,4.65,4.65,0,0,1,1.48,1,2,2,0,0,1,.66,1.46,2.73,2.73,0,0,1-.73,1.69,7.67,7.67,0,0,1-1.78,1.6,9.06,9.06,0,0,1-2.07,1,19.76,19.76,0,0,1,3.08,2.65,4,4,0,0,1,1.31,2.2.6.6,0,0,1-.25.46.84.84,0,0,1-.6.22.77.77,0,0,1-.6-.3,6.49,6.49,0,0,0-1.58-2.12,18.56,18.56,0,0,0-2.73-2.12l.11,3.65A.84.84,0,0,1,240.53,83.66Zm3.09-7.39c1-.67,1.58-1.27,1.58-1.81a1.34,1.34,0,0,0-.8-1.24,3.77,3.77,0,0,0-1.89-.44,4.58,4.58,0,0,0-1.73.27c0,.64,0,2.07,0,4.29A6,6,0,0,0,243.62,76.27Z"/><path class="cls-2" d="M248.24,77.32a.56.56,0,0,1-.26-.49.91.91,0,0,1,.21-.59c-.05-1.27-.08-2.61-.08-4a1.29,1.29,0,0,1,.35-.67,1.21,1.21,0,0,1,.69-.26c1.68.07,3.49.11,5.44.11q.72.15.72.63,0,.79-1.56.93l-.91,0h-1.23c-.24,0-.91,0-2-.15,0,1.58,0,2.67.08,3.26.67,0,2,0,3.87,0,.46.09.69.3.69.62a.84.84,0,0,1-.55.75l-.21.08-3.29-.06a2.19,2.19,0,0,0-.49,0l.07,3.26c0,.74,0,1.27-.05,1.58l4.4-.06c.41.07.61.24.61.52a.85.85,0,0,1-.25.57,1.11,1.11,0,0,1-.6.36l-4.87.07a.85.85,0,0,1-.6-.16.67.67,0,0,1-.18-.54,13.36,13.36,0,0,0,.08-1.71V80.11Z"/><path class="cls-2" d="M260.65,71.27a4.8,4.8,0,0,1,2.1.42c.58.28.86.64.86,1.07a.81.81,0,0,1-.14.49.46.46,0,0,1-.42.21,3.76,3.76,0,0,1-1.18-.43,4.09,4.09,0,0,0-1.67-.43,3,3,0,0,0-1.55.48,1.36,1.36,0,0,0-.79,1.16,1.44,1.44,0,0,0,1,1.37,10.65,10.65,0,0,0,2.07.58,4.39,4.39,0,0,1,2.2,1,3.09,3.09,0,0,1,.86,2.38,4.31,4.31,0,0,1-1.47,3.6,3.62,3.62,0,0,1-2.3.64,6.16,6.16,0,0,1-3-.81c-.64-.35-1-.69-1-1a.79.79,0,0,1,.16-.42,1.3,1.3,0,0,1,.45-.38.57.57,0,0,1,.52,0c.16.06.42.19.77.37l.78.36a4.26,4.26,0,0,0,1.5.3,1.9,1.9,0,0,0,1.36-.69,2.39,2.39,0,0,0,.66-1.7,1.9,1.9,0,0,0-1.33-1.87,6.56,6.56,0,0,0-1.47-.39,5.61,5.61,0,0,1-2.54-1,2.65,2.65,0,0,1-.86-2.16,2.58,2.58,0,0,1,1.24-2.27A5.59,5.59,0,0,1,260.65,71.27Z"/><path class="cls-2" d="M265.36,77.32a.55.55,0,0,1-.26-.5,1,1,0,0,1,.21-.59c-.06-1.26-.08-2.6-.08-4a1.22,1.22,0,0,1,.35-.66,1.29,1.29,0,0,1,.69-.27c1.68.08,3.49.12,5.44.12.48.1.72.31.72.62,0,.53-.52.85-1.56.93-.28,0-.58,0-.91,0h-1.24c-.24,0-.9,0-2-.15,0,1.59,0,2.67.08,3.27l3.87,0c.46.09.69.29.69.62a1,1,0,0,1-.76.82l-3.29,0a3.19,3.19,0,0,0-.49,0l.07,3.27c0,.74,0,1.26,0,1.58l4.4-.06c.41.06.61.24.61.51a.85.85,0,0,1-.25.57,1.19,1.19,0,0,1-.6.36l-4.87.08a.89.89,0,0,1-.61-.16.74.74,0,0,1-.17-.54,13.59,13.59,0,0,0,.08-1.71V80.11Z"/><path class="cls-2" d="M281.24,71.27a.77.77,0,0,1,.56.26.85.85,0,0,1,.24.6c0,5,0,7.94.07,9s.07,1.56.07,1.59a1.51,1.51,0,0,1-.23.79c-.15.25-.32.37-.5.37a2.12,2.12,0,0,1-.42,0l-.26-.07a.56.56,0,0,1-.23-.15l-.19-.19a2.18,2.18,0,0,1-.2-.29,3.07,3.07,0,0,0-.2-.35c-.05-.09-.12-.25-.23-.47s-.34-.67-.71-1.36-.68-1.3-1-1.84a29.85,29.85,0,0,0-2.8-4.35,70.86,70.86,0,0,1-.34,8.57c0,.3-.27.45-.7.45a.85.85,0,0,1-.51-.15.57.57,0,0,1-.19-.49c0-.23,0-1.48.14-3.76s.14-3.7.14-4.27V74c0-.91.07-1.43.21-1.54a.64.64,0,0,1,.43-.17c.7,0,1.76,1.14,3.2,3.42.28.44.81,1.37,1.59,2.78s1.26,2.28,1.41,2.61l-.23-7.88c0-1.09.12-1.71.36-1.87A1,1,0,0,1,281.24,71.27Z"/><path class="cls-2" d="M289.21,71.42a9.33,9.33,0,0,1,2.81.5.72.72,0,0,1,.34.57.69.69,0,0,1-.31.56,1.21,1.21,0,0,1-.72.23,7.94,7.94,0,0,0-1.91-.26,3.92,3.92,0,0,0-3.12,1.21,5.35,5.35,0,0,0-1.06,3.61,5.28,5.28,0,0,0,1.25,3.75,2,2,0,0,0,1.54.7,7.7,7.7,0,0,0,2.85-1,2.75,2.75,0,0,1,.91-.32.45.45,0,0,1,.5.51,1,1,0,0,1-.48.85,17.54,17.54,0,0,1-2.54,1.15,5.22,5.22,0,0,1-1.58.3,3.15,3.15,0,0,1-2.34-1,7.18,7.18,0,0,1-1.73-5.08A6.28,6.28,0,0,1,285.26,73,5.57,5.57,0,0,1,289.21,71.42Z"/><path class="cls-2" d="M295.12,71.76a1.22,1.22,0,0,1,.68-.19c.25,0,.41.15.47.44,0,1.47,0,3.67.08,6.59,0,1.79-.05,3.3-.15,4.54a.77.77,0,0,1-.35.51,1.13,1.13,0,0,1-.64.21c-.35,0-.53-.18-.53-.55.13-1.26.19-2.83.19-4.71l-.12-6.38A.85.85,0,0,1,295.12,71.76Z"/><path class="cls-2" d="M302.62,71.32a1,1,0,0,1,.8.42,8.45,8.45,0,0,1,.83,1.73,54.88,54.88,0,0,1,2.34,9.71.65.65,0,0,1,0,.22.45.45,0,0,1-.18.3.73.73,0,0,1-.51.16.93.93,0,0,1-.56-.16.82.82,0,0,1-.31-.53l-.28-1.45a11,11,0,0,0-.61-2.51,6.24,6.24,0,0,0-1.51-.29c-.86-.1-1.42-.15-1.7-.15a.87.87,0,0,0-.49.08c-.23.2-.54,1.74-.94,4.62q-.07.36-.72.36c-.43,0-.64-.19-.64-.55a25.57,25.57,0,0,1,1-5.23,28.26,28.26,0,0,1,1.67-5.11C301.39,71.86,302,71.32,302.62,71.32Zm-.08,2.11c-.19,0-.52.56-1,1.68a8.78,8.78,0,0,0-.71,2.08.23.23,0,0,0,0,.14,2.85,2.85,0,0,0,1.2.26c.7.08,1.16.12,1.39.12a.28.28,0,0,0,.41-.35,16.18,16.18,0,0,0-.51-2.09C303,74,302.76,73.43,302.54,73.43Z"/><path class="cls-2" d="M307.49,81.2V79.72l.17-7.94a.42.42,0,0,1,.25-.36,1.31,1.31,0,0,1,.63-.13c.61,0,.91.21.91.64,0,.14-.07,1.2-.22,3.19S309,78.3,309,78.69v2c0,1,.07,1.47.19,1.56a2.26,2.26,0,0,0,.67.09l2.74-.19c.59,0,.89.22.89.65a.78.78,0,0,1-.49.75,2.46,2.46,0,0,1-.95.26c-.32,0-.71,0-1.16,0a12.16,12.16,0,0,1-3.23-.19c-.09-.07-.14-.36-.16-.86s0-.85,0-1.06S307.49,81.37,307.49,81.2Z"/><path class="cls-2" d="M161.65,108.07a3.07,3.07,0,0,0-2.2,1,.87.87,0,0,1-.5.2,1.38,1.38,0,0,1-.38,0,.6.6,0,0,1-.46-.64,1.74,1.74,0,0,1,1-1.44,4.73,4.73,0,0,1,2.46-.62,3.73,3.73,0,0,1,2.37.75,2.38,2.38,0,0,1,1,2,6.32,6.32,0,0,1-.27,2,2.46,2.46,0,0,1-1.17,1.32,2.9,2.9,0,0,1,2.12,2.88,4.62,4.62,0,0,1-1.06,3,3.25,3.25,0,0,1-2.59,1.27,4.91,4.91,0,0,1-2.69-.73,2,2,0,0,1-1.16-1.65.67.67,0,0,1,.2-.42.7.7,0,0,1,.58-.24,1.4,1.4,0,0,1,.82.35,8.3,8.3,0,0,0,1,.7,2.26,2.26,0,0,0,1.26.35c1.33,0,2-.83,2-2.5a1.94,1.94,0,0,0-.69-1.55,3,3,0,0,0-1.95-.61,2.46,2.46,0,0,1-.39,0,.75.75,0,0,1-.34-.18.58.58,0,0,1-.21-.5c0-.48.26-.74.8-.78a2.17,2.17,0,0,0,1.43-.72,2.3,2.3,0,0,0,.63-1.66,1.42,1.42,0,0,0-.48-1A1.58,1.58,0,0,0,161.65,108.07Z"/><path class="cls-2" d="M168.73,105.49a1.26,1.26,0,0,1,1.32,1,2.29,2.29,0,0,1,.12.76,1.59,1.59,0,0,1-.82,1.24,1.68,1.68,0,0,1-.9.24,1.64,1.64,0,0,1-1-.43,1.42,1.42,0,0,1-.53-1.17,1.47,1.47,0,0,1,.53-1.19A2,2,0,0,1,168.73,105.49Zm.48,1.52a.62.62,0,0,0-.2-.54.82.82,0,0,0-.45-.14.7.7,0,0,0-.48.21.62.62,0,0,0-.23.49c0,.43.22.64.68.64A.59.59,0,0,0,169.21,107Z"/><path class="cls-2" d="M176.29,106.23c0-.53.33-.8,1-.8.3,0,.48.19.54.56v3c0,.56,0,1.12,0,1.68a3.56,3.56,0,0,1,1-.12,3.65,3.65,0,0,1,3,1.3,5,5,0,0,1,1.06,3.26,4.7,4.7,0,0,1-1.25,3.31,4.2,4.2,0,0,1-3.21,1.35c-1.31,0-2-.37-2-1.11s0-2.62-.11-5.64S176.29,107.74,176.29,106.23Zm4,6.44a2.46,2.46,0,0,0-1.52-.56,2.59,2.59,0,0,0-.9.16q.12,1.64.12,5.82a2.06,2.06,0,0,0,.7.12,2.65,2.65,0,0,0,1.56-.58,2.79,2.79,0,0,0,1.16-2.45A3,3,0,0,0,180.33,112.67Z"/><path class="cls-2" d="M190.07,110.41c.58,0,.88.5.88,1.5v.34l0,1.4c0,.44,0,.87,0,1.3l.3,4.52c0,.33-.34.5-1,.5h-.29a.32.32,0,0,1-.32-.18.59.59,0,0,1,0-.44,1,1,0,0,0,0-.58,3.22,3.22,0,0,1-2.44,1c-1.88,0-2.82-1.46-2.82-4.36a6.1,6.1,0,0,1,.91-3.66,3,3,0,0,1,2.61-1.24,4.78,4.78,0,0,1,1.6.28A.83.83,0,0,1,190.07,110.41ZM188,112.23a2.1,2.1,0,0,0-1.7.66,3.8,3.8,0,0,0-.56,2.42c0,2,.53,3,1.6,3a1.63,1.63,0,0,0,.93-.38A2.18,2.18,0,0,0,189,117a7.17,7.17,0,0,0,.38-2.36,4.21,4.21,0,0,0-.31-1.86A1.09,1.09,0,0,0,188,112.23Zm-.07-5.74a.48.48,0,0,1,.51-.34.85.85,0,0,1,.63.24.68.68,0,0,1,.23.39.87.87,0,0,1,0,.25,5,5,0,0,1-1.07,1.7c-.5.53-.89.8-1.15.8a.82.82,0,0,1-.6-.2.63.63,0,0,1-.2-.47.67.67,0,0,1,.3-.51A4.1,4.1,0,0,0,187.92,106.49Z"/><path class="cls-2" d="M193.51,111.07a2.94,2.94,0,0,1,2-.7,5.91,5.91,0,0,1,2.13.39c.68.27,1,.62,1,1.06a.68.68,0,0,1-.26.55.85.85,0,0,1-.45.2l-.3,0a3.5,3.5,0,0,1-.8-.36,2.8,2.8,0,0,0-1.27-.36,1.61,1.61,0,0,0-1,.29,1,1,0,0,0-.41.85,1,1,0,0,0,.47.87,4.67,4.67,0,0,0,1.65.56,4.85,4.85,0,0,1,1.81.65,1.71,1.71,0,0,1,.63,1.55,2.86,2.86,0,0,1-.87,2.36,3.3,3.3,0,0,1-2.11.69,5.71,5.71,0,0,1-2.11-.35c-.58-.22-.87-.56-.87-1a.69.69,0,0,1,.78-.78,3.21,3.21,0,0,1,.88.28,3.63,3.63,0,0,0,1.35.28,1.25,1.25,0,0,0,1-.44,1.51,1.51,0,0,0,.35-1,.85.85,0,0,0-.46-.81,4.53,4.53,0,0,0-1.4-.41,7.19,7.19,0,0,1-1.38-.34,2,2,0,0,1-1.2-2.14A2.31,2.31,0,0,1,193.51,111.07Z"/><path class="cls-2" d="M201.35,107.1a1,1,0,0,1,.68.34,1.07,1.07,0,0,1,.32.71,1.13,1.13,0,0,1-.35.75,1,1,0,0,1-.73.38.9.9,0,0,1-.69-.32,1.1,1.1,0,0,1-.31-.82c0-.64.34-1,1-1Zm.84,10.48,0,1.4a.77.77,0,0,1-.3.63,1,1,0,0,1-.64.25.45.45,0,0,1-.52-.5c-.18-4.25-.26-6.6-.26-7.06s0-1,.06-1.66c0-.24.18-.36.46-.36.7,0,1.1.29,1.2.86a5.61,5.61,0,0,1,.06.7l-.08,1.26Z"/><path class="cls-2" d="M204.94,112.62a4.55,4.55,0,0,1,1.81-1.65,4.83,4.83,0,0,1,2.14-.55,4.78,4.78,0,0,1,1.67.25q.63.26.63.66a1.67,1.67,0,0,1-.23.82.69.69,0,0,1-.61.41,3.12,3.12,0,0,1-.77-.23,3.48,3.48,0,0,0-.81-.23,2.65,2.65,0,0,0-2,.85,3.1,3.1,0,0,0-.82,2.25,3.86,3.86,0,0,0,.45,2.09A1.7,1.7,0,0,0,208,118a4.36,4.36,0,0,0,1.51-.51,4.77,4.77,0,0,1,1.33-.51.61.61,0,0,1,.42.16.58.58,0,0,1,.16.4,1.45,1.45,0,0,1-.61,1,4.93,4.93,0,0,1-1.51.88,4.39,4.39,0,0,1-1.62.35,2.91,2.91,0,0,1-2.51-1.26,5.73,5.73,0,0,1-.91-3.44A4.38,4.38,0,0,1,204.94,112.62Z"/><path class="cls-2" d="M215.81,110.42a2.77,2.77,0,0,1,2.37,1.38,5.78,5.78,0,0,1,.93,3.31,5.6,5.6,0,0,1-1,3.29,3,3,0,0,1-5,0,5.29,5.29,0,0,1-1-3.09,6.1,6.1,0,0,1,.88-3.48A3.13,3.13,0,0,1,215.81,110.42Zm-.24,1.64a1.58,1.58,0,0,0-1.38.88,3.52,3.52,0,0,0-.54,1.86,3.8,3.8,0,0,0,.6,2.32,1.71,1.71,0,0,0,1.36.8,1.64,1.64,0,0,0,1.74-1.18,5.45,5.45,0,0,0,.16-1.4C217.51,113.15,216.86,112.06,215.57,112.06Z"/></svg>