<svg id="Capa_1" data-name="Capa 1" xmlns="http://www.w3.org/2000/svg" xmlns:xlink="http://www.w3.org/1999/xlink" viewBox="0 0 62.36 61.18"><defs><style>.cls-1{fill:none;}.cls-2{fill:#5da6bc;}.cls-3{fill:#fff;}.cls-4{clip-path:url(#clip-path);}</style><clipPath id="clip-path"><rect class="cls-1" x="-106.59" y="3548.77" width="1341" height="1296.03"/></clipPath></defs><path class="cls-2" d="M26,45.4c.26-2.46-.1-2.09-.15-4.57a3.36,3.36,0,0,0-.28-1.51,3.92,3.92,0,0,0-1.43-1.24,13.11,13.11,0,0,1-6-10.58,11.69,11.69,0,0,1,6.1-10.37c4.37-2.24,11.52-3.23,15.25.65,2.85,3,3.4,8,3.55,11.93a7.85,7.85,0,0,1-1.11,4.76c-1.37,2-3.76,2.71-5.89,3.64a2.3,2.3,0,0,0-1.13.84,2.33,2.33,0,0,0-.22,1.23c0,2.57.49,2.29.5,4.86a13.28,13.28,0,0,1-9,.5"/><path class="cls-2" d="M26.45,44.8c-.07.08-.11.31,0,.3l.19-.34Z"/><path class="cls-2" d="M27.1,45.7a.91.91,0,0,0,.4-.79c-.21.33-.21.17-.47.56-.14,0-.19-.17-.13-.3-.07.08-.17-.13-.3.08.08.33.3.4.57.21C27.2,45.55,27.13,45.64,27.1,45.7Z"/><path class="cls-2" d="M35.23,40.42l0,.08A.2.2,0,0,0,35.23,40.42Z"/><path class="cls-2" d="M41,36.49a.12.12,0,0,0,0,.12S41.05,36.51,41,36.49Z"/><path class="cls-2" d="M42.45,35.72l-.09.05S42.45,35.75,42.45,35.72Z"/><path class="cls-2" d="M35.23,40.42l.12-.21C35.22,40.2,35.26,40.32,35.23,40.42Z"/><path class="cls-2" d="M28.93,45.06a.19.19,0,0,0-.11.09.19.19,0,0,1,.1,0Z"/><path class="cls-2" d="M36,44v.1l.16.1Z"/><path class="cls-2" d="M33.94,46.44c.07,0,0-.33,0-.47,0,.14,0,.21-.08.25S33.9,46.35,33.94,46.44Z"/><path class="cls-2" d="M29.44,46.41l-.08,0A.2.2,0,0,1,29.44,46.41Z"/><path class="cls-2" d="M35.72,41.86l.11,0Z"/><path class="cls-2" d="M27.46,42.11H27.4S27.46,42.13,27.46,42.11Z"/><polygon class="cls-2" points="25.93 45.39 25.91 45.35 25.73 45.32 25.93 45.39"/><path class="cls-2" d="M44.23,33.21h0C44.24,33.31,44.24,33.27,44.23,33.21Z"/><path class="cls-2" d="M33.08,13.84c.27.29-.46.36-.06.69C33,14.4,33.42,14,33.08,13.84Z"/><path class="cls-2" d="M29,45.11h0Z"/><path class="cls-2" d="M33,14.53h0l0,0Z"/><path class="cls-2" d="M44.25,26.91a.47.47,0,0,0-.14.08A.34.34,0,0,0,44.25,26.91Z"/><path class="cls-2" d="M43.91,31.43l.06-.11A.24.24,0,0,0,43.91,31.43Z"/><path class="cls-2" d="M43.49,24.68c0-.06,0-.09,0-.16l0,0S43.53,24.61,43.49,24.68Z"/><path class="cls-2" d="M43,22.32l-.05.06,0,.07Z"/><path class="cls-2" d="M23.38,35.76a1.48,1.48,0,0,1-.12.29C23.39,35.85,23.67,36,23.38,35.76Z"/><path class="cls-2" d="M28.92,45.24c0-.08,0-.12.07-.13h-.07A.24.24,0,0,0,28.92,45.24Z"/><path class="cls-2" d="M41,25v-.35A1,1,0,0,0,41,25Z"/><path class="cls-2" d="M20.81,22.29v.08A.06.06,0,0,0,20.81,22.29Z"/><path class="cls-2" d="M40.68,23.71a.77.77,0,0,0,.17-.24l-.1,0Z"/><path class="cls-2" d="M23.26,36.05Z"/><path class="cls-2" d="M25.49,36.75c-.32-.21-.37.26-.57.42-.4-.11,0-.36,0-.62-.24,0-.62.19-.76.07,0-.06,0-.1.11-.15-.4.11-.59-.43-1.08-.32a.18.18,0,0,1,0-.1,2.4,2.4,0,0,1-.36.47c-.11-.1-.39,0-.24-.24.06.07.14,0,.23,0l-.2,0c.17-.38.26,0,.46-.18-.32-.09-.79-.12-.88-.36.25-.31.47.29.51-.17l.14.35c.24-.63.12.18.4-.47-.22-.39-.5-.2-.71-.62-.23.07-.22.24-.45.31-.74-.25.44-1-.26-1-.29.06-.71.3-.7-.13l.43-.16c-.21-.38-.68.15-.68-.41.2,0,.31.22.32.13.14-.44-.32,0-.45-.24l.32-.24a12.09,12.09,0,0,1-1.06-1.16c.11,0,.26,0,.32-.15a2.54,2.54,0,0,1-.36-2l-.38-.15c0-.06.13-.13.2-.09.09-.26-.21,0-.36-.06s.16-.21.27-.15c-.37-.34-.78-1.15-.43-1.62l.1.09c.12-.35-.69-.4-.38-.73l.06.06c.17-.75,0-1.68.64-2.13-.46-.24.42-.66-.22-.91.47-.32.54-.16,1-.63.1-.13-.29-.39-.27-.61l.33.15c-.08-.14-.15-.28-.22-.42l.45.07v-.21a.27.27,0,0,1-.3,0c0-.35.58-.52.73-.42,0-.25.08-.5.14-.74.11.09.08.22.1.34-.08-.5.34.17.27-.3-.09,0-.16-.14-.21-.19a.89.89,0,0,0,.63-.58l.15.21c.37-.33.63-.85,1.08-1.2-.23,0-.47-.32-.36-.46l.29.25c-.06-.25-.23,0-.23-.36.21-.11.38.25.36.42l.12-.27c.08.08.07.17.15.29-.06-.26.56.06.46-.35l.07.08c.46-.29.6-.51,1-.74-.14-.3.07-.31.09-.61a5,5,0,0,0,1.25-.15c.23-.26,0-.29.06-.52.12.27.52.1.37.38a5.21,5.21,0,0,0,1.21-.67c-.1-.11-.2-.13-.18-.24s.3.06.32.2l0,0c.66-.61,1.84.49,2.33-.16l0,0c.19-.12.38-.27.58-.38s-.15.23.07.41c.63-.54,1,0,1.56-.28.19.43.53.46.91.44s.78,0,1,.29v-.2c.18-.17.14.15.22.23,0-.16-.1-.22,0-.31a4,4,0,0,1,2.77,1.92c.22.3.92-.64.92.11l-.38.15c.92.32,1,1.36,1.74,2-.1,0-.2,0-.24,0-.17.29.26.63.48.55,0,.14-.18.11-.25.23s.49.32.27.51c0,0-.1,0-.13,0,.17.06.14.56.41.34,0,.37.33.6.22.92.39.08,0,.62.47.56-.51.09-.28.69,0,.87-.17,0-.13.22-.36.17.06.24.18.46.44.38-.54.55.63.88-.13,1.25A9.71,9.71,0,0,1,42,28.84c-.52,0-.1-.78-.65-.71.26.64.73,1,.63,1.68-.07.16-.23-.08-.32-.14.24.63,0,1.18.17,1.73,0,0-.09-.07-.12-.13,0,.11-.11.23.13.25l-.05-.11c.36-.13.64.54.81.6-.62-.31-.28.51-1.06,0a.35.35,0,0,0,.28.2c-.07.09-.17.09-.32,0,0,.38.31.33.2.65-.11,0-.13-.11-.25-.19.16.22.31.47.1.69-.05,0-.15-.05-.11-.12-.16.42.12,1-.41,1.34-.28-.44-.25,0-.58-.24l-.1.28.23.07c-.17.17-.15.55-.42.59a2.34,2.34,0,0,0,0-.26c-.1.12-.22.24-.33.36l.32,0c-.08.34.36.42,0,.54,0-.08-.24.16-.49,0h0c0,.18-.1.39-.34.4s-.19-.44-.26-.5c.05.38-.52.38-.52.8a.59.59,0,0,0-.11-.34l0,.31c-.16,0-.2-.06-.25-.24-.38.12.34.45-.19.43,0,0,0-.07,0-.14-.48.08-.77.53-1.24.56-.29-.35.32-.24,0-.52a5.07,5.07,0,0,0-.81.63,3.39,3.39,0,0,1-.93.6l.16,0c.11.3,0,.29-.26.3s-.51.08-.52.33c0-.1-.18-.32-.15-.25a1.16,1.16,0,0,0-.38.87,3.14,3.14,0,0,0,.18,1.08L34,40.09a3.93,3.93,0,0,0-.13,1c.16.08.15.24.37.13a1,1,0,0,0,0,1.28c.21.37.45.69.12,1.09,0-.08-.16-.17-.15-.11s.13.27.19.42c.27,0,.16,0,.36-.13a.52.52,0,0,1,.32.4c-.2-.3-.44-.06-.59,0a1.29,1.29,0,0,1,.26.08c-.48.08.56.24.24.52l-.15-.1L35,45a.19.19,0,0,1-.15.12c-.35-.2,0-.16-.24-.34-.12.06.1.61-.33.42,0-.1.16-.14.17-.24-.47-.22-.39-.15-.55-.16h0l-.32-.07.1.07c.08.4-.06.48-.23.53a.61.61,0,0,0-.5.37c.29-.59,0-.3,0-.65-.12-.06-.3-.14-.28-.25-.12.32-.34-.14-.53.3,0-.11-.2,0-.21-.26-.22.13.09.18.09.33-.33.45-.93-.35-1.44.21-.47.23-.56.61-1,.79-.15-.19.14-.41.14-.41a.59.59,0,0,0-.67,0c.06-.09,0-.18,0-.31s-.16.4-.39.21a1.63,1.63,0,0,1,.23-.43c-.23.08-.46.26-.7.33,0-.2.17-.28.27-.39-.26.06-.66.07-.8.36l.14.14c-.09,0,0-.27.08-.31.25-.2.29.15.29.27l-.18.05c.07.67.68,0,1,0l-.18.46.37-.36c.07.12.1.39-.07.46.23.25.22-.16.42.11,0,0,0,.07,0,.09l.24-.14c0,.1,0,.34-.11.27.44.28.7-.35.87,0l0,0c.6-.18.05-.35.46-.79l.37.85,0-.36c.06,0,.19,0,.18.16.2-.26-.06-.14.05-.39.34.29.78-.26.94.28.06-.28-.31-.15,0-.39.2.58.33-.17.65,0,0,.32-.3.21,0,.42,0-.55.56,0,.76-.18-.14-.39.53-.33.88-.62.05.1.56,0,1.1-.13a2.58,2.58,0,0,1,.1-.38l.07,0c-.43-.31-.35-.71-.47-1a.57.57,0,0,1,.49.36l0-.36a.74.74,0,0,1-.29-.42l.32.08a1.46,1.46,0,0,0-.09-.36l-.15-.26a.85.85,0,0,1-.11-.61c-.29,0-.73.5-1,.1.15,0,.42-.12.5,0s-.15-.11-.1-.2l.3.12c.07-.21-.24-.05-.25-.21.22,0,.14-.14.32-.15s-.07.14,0,.18a.62.62,0,0,1,.26-.48c-.12,0-.3,0-.35-.06,0-.3.26-.14.35-.33-.16,0,0-.26-.35-.24,0-.09.15-.12.24-.16-.17-.14-.08-.75-.43-.56l0,.05v0h0a.88.88,0,0,1,0-.8,5.06,5.06,0,0,0,.28-.58l.1.06c0-.28.3-.39.36-.69.09-.05.29.09.31.23.18-.17.16-.31.57-.27-.16.28.14.13-.18.23.33,0,.47.11.67-.32,0,.32.37.25.49.11l-.3-.11a1.17,1.17,0,0,1,.46-.17l.07.38c.82.17.83-1.21,1.65-.75.05-.32-.43,0-.42-.35.31-.09.88.23,1,.17.53-.06.1-.69.59-.84a.45.45,0,0,1-.17-.65c.28-.15.68.2.57.42-.06.06-.12,0-.15,0s-.14.25.06.29l0-.14c.23,0,.61-.31.66-.07.13-.28-.06-.25-.26-.17.49-.15.55-.47,1-.75-.11,0-.27,0-.22-.1.59-.42,0-.4.22-.79.32-.1.37.36.48-.14.27-.18.35.13.37.3,0-.53.57-.68.72-.92v.28A.86.86,0,0,1,44,34l-.31,0c.1-.11.14-.22.25-.18-.12-.2-.46-.07-.6-.41.19-.12,0-.54.38-.5-.27.5.38,0,.29.53a.43.43,0,0,1,.11-.34s.06,0,.07.08c.46-.46-.32-.35-.2-.89.19.11.41,0,.38-.15,0,.22-.35,0-.47-.18.21-.32-.07-.39,0-.56l-.1.19c-.19-.09-.14-.25-.19-.49.16,0,.09.22.17.14-.34-.27.41-.56.18-.93.14-.17.38,0,.48-.16-.27-.41.27-.47,0-.86-.27.13-.2.14-.48-.13.07.22.15.42.22.66-.14-.15-.28-.28-.42-.41,0,.19.19.41.15.54-.23-.2-.16-.18-.39-.08.41-.3-.26-.53,0-.85l.68,0c.27-.5-.4-.83-.27-1.45l-.11.21c-.27-.07-.06-.38-.19-.57.23,0,.3-.13.43-.23-.17,0,0-.46-.49-.46l.27-.31c.06-.52-.71-.49-.71-1,.27.11.39-.13.62.16,0-.16,0-.31-.16-.29.13-.11-.37-.39-.19-.57-.11-.05-.35,0-.36-.21a.17.17,0,0,1,.11,0c-.11,0-.2-.25-.42,0,.61-.63-.35-1.32.12-1.9-.18-.32-.36-.71-.5-1,.07,0,.11,0,.11,0,0-.5-.7,0-.67-.58.24-.38.29.17.36,0,.65-.35-.34-.53-.1-1l.08,0c.09-.35-.54-.47-.73-.86a.17.17,0,0,0,.1,0,2.85,2.85,0,0,1-1.23-.71c.31-.08.23.06.42-.19-.15-.12-.34.33-.63.1,0-.19,0-.48.18-.73l.26.27c.19-.41-.33-.35-.4-.54L40.3,17c-.48-.35-.78,0-1.2-.43l0,.14c-.53.17-.07-.36-.52-.27l.17-.43c-.23-.06-.87,0-1.23-.11a2.37,2.37,0,0,1,1.17-.16c-.17-.14-.67-.33-.86-.19.09,0,.24-.05.29,0a1.38,1.38,0,0,1-1.14,0c.4-.8-.92-.6-1-1.31-.81.11-1.45-.46-2.35-.48.26.71-.25,0-.25.7-.19,0-.27,0-.28,0l-.59-.43c-.14-.21.19-.15.18-.31-.45-.06-.19-.3-.49-.5.06.25-.15.37-.41.29l.37.3c-.6.41-.56-.56-1.17-.16l.18-.23c-.31.15-1.2.11-1.42.72-.07-.07-.17-.25,0-.32-.78,0-1.53.9-2.17.71v-.18c-.12.09-.15.38-.36.26,0-.07,0-.18-.06-.17s-.27.39-.48.35l.1-.23c-.78,0-.93.79-1.43,1.14-.19-.47-.8-.42-1.1-.35l0-.07c-.82.31-1.19,1.08-1.73,1.69-.74-.15-1.52.88-2.28,1.3.16,0,.27.28.21.42s-.06.63-.4.31L20,19c-.45-.18-.62.21-.8.46l.46.4c-.6.06-.83.57-1,1s-.25.89-.7.93c.06.24-.05.45,0,.69l-.3-.13a3.28,3.28,0,0,0-.53,1.4L17,23.6c-.14.37.78.71.72,1h-.49c-.14.63-.65,1.26-.26,1.95-.07,0-.21,0-.22-.15-.05.31-.37,1.23.3,1.1-.43,0,0,.69.21,1l-.33,0c.45.25.56.25.72.63,0,.1-.25.12-.18,0-.12.34.34.2.24.6l-.23-.1c0,.33.14.28.41.4a.53.53,0,0,1-.2.74c.18,0,.46.1.44.3a.21.21,0,0,1-.23,0c0,.6.61.65.45,1.1a.33.33,0,0,0-.15.13,2.35,2.35,0,0,1-.22-.72c-.29.09-.21.45-.7.32.32.21.94.49,1,.85a.32.32,0,0,1-.08.09l0,0a.22.22,0,0,0,.13.18.73.73,0,0,0,.05.3c-.21.15.07.43.14.6.28-.17.34.06.48-.26,0,0-.05,0-.12-.11l-.06-.05h0a2.56,2.56,0,0,1-.22-.38c.21.06.39.12.33.37l.57,0c-.3.43-.26.95-.46,1.15.43.38.82,1,1.51.9.15.07,0,.24-.07.35s-.16-.12-.26-.11c.31.15.63.66,1,.43.11.41-.43.1,0,.45l-.14,0c.11.61.61.74,1.1.83s.95.19,1.15.88c0-.09-.05-.13,0-.2a4.8,4.8,0,0,0,1.48,1.07A.84.84,0,0,1,25,40.41c-.11.29.16.33.38.53L25,41l.41.36c.32.47-.79,1-.14,1.59l.22-.11c0,.24.22.68-.06.66.05,0,.25.06.13.15H25.4c.11.17.21.34.31.53-.15.41-.71-.1-.79.49.06.23.47.7.6.63a.32.32,0,0,1,.32-.22l.07.23c.53.09,1.06.33,1.49-.2l-.3-.42.27-.12V45c.26-.18.06-.32-.09-.47a.44.44,0,0,0,.3-.16c-.17-.15-.33-.29-.51-.43.21,0,.42.2.54-.1-.25-.2-.47.2-.63-.12.23-.22.43-.18.2-.41a.24.24,0,0,1,.3.1c-.18-.22-.13-.57-.43-.62.27-.24-.15-.59.36-.63-.13,0-.43-.26-.46-.42.63.25,0-.59.66-.55a.55.55,0,0,1-.38-.53,1.75,1.75,0,0,0-.26-.85c.05,0,.15.07.13.12a4,4,0,0,1,.15-.74c-.44.07-.76-.43-1.17-.48.09-.61.59-.09.86-.42-.14.11-.34,0-.53-.12s-.35-.14-.41,0c0-.41-.1-.27,0-.67-.4.41-.29-.1-.67.06-.14-.43.21-.5-.19-.56C25.11,36.74,25.48,36.75,25.49,36.75ZM20,31.86h0l.08.14Zm-.25-.59a1.61,1.61,0,0,0,.09.26c-.09.07-.21.09-.23,0S19.68,31.39,19.73,31.27Zm-1.46,2.26c-.1-.08-.05-.15,0-.2a.86.86,0,0,0,.13.17h0Z"/><path class="cls-2" d="M18.75,33.52s0,0,0,0l0-.1h-.11Z"/><path class="cls-2" d="M35.18,40.51h0l0,0Z"/><polygon class="cls-2" points="20.64 22.96 20.57 22.93 20.61 23.01 20.64 22.96"/><path class="cls-2" d="M34.52,44.11h0Z"/><path class="cls-2" d="M33.94,44.75l-.19,0A.48.48,0,0,0,33.94,44.75Z"/><path class="cls-2" d="M33,44.87c0,.06,0,.1,0,.14h0Z"/><path class="cls-2" d="M41.75,31.27v0C41.69,31.13,41.7,31.19,41.75,31.27Z"/><path class="cls-2" d="M39.72,35.89a1.55,1.55,0,0,1,.06-.23C39.69,35.7,39.62,35.73,39.72,35.89Z"/><polygon class="cls-2" points="40.95 25.07 40.96 25.07 40.95 25.03 40.95 25.07"/><path class="cls-2" d="M40,35.53a.22.22,0,0,0-.22.13A.32.32,0,0,0,40,35.53Z"/><path class="cls-2" d="M27.91,44.89l-.06,0a.43.43,0,0,1,0,.05Z"/><path class="cls-2" d="M27.84,44.92l-.07,0S27.82,45,27.84,44.92Z"/><path class="cls-2" d="M27.62,45l.15,0C27.72,44.94,27.67,44.92,27.62,45Z"/><path class="cls-2" d="M29.43,45.21l0-.12S29.44,45.16,29.43,45.21Z"/><path class="cls-2" d="M29.91,45.19c-.12,0-.28-.25-.44-.19l0,.09C29.53,44.93,29.79,45.39,29.91,45.19Z"/><path class="cls-2" d="M32.09,46.49l-.45,0c.09.12.21.27,0,.33C32.27,47.08,31.51,46.52,32.09,46.49Z"/><path class="cls-2" d="M33.48,46.39c-.22.12.05.18.05.25C33.65,46.49,33.68,46.45,33.48,46.39Z"/><path class="cls-2" d="M36.28,38.82l.1.28C36.5,39,36.33,39,36.28,38.82Z"/><polygon class="cls-2" points="37.35 36.72 37.13 36.61 37.15 36.89 37.35 36.72"/><polygon class="cls-2" points="39.19 38.21 39.13 38.28 39.37 38.05 39.19 38.21"/><path class="cls-2" d="M43.34,22.67l-.34.14C43.1,22.92,43.5,22.84,43.34,22.67Z"/><path class="cls-2" d="M39.28,16.45c0-.18-.07-.41-.28-.34C39.13,16.23,39.18,16.44,39.28,16.45Z"/><path class="cls-2" d="M19,19.93v-.2c0,.1-.06.2-.08.3Z"/><path class="cls-2" d="M49.82,10.92c0-.08-.18-.27-.17-.23l.22.32Z"/><path class="cls-2" d="M49.37,10.37c.1.16.27.43.48.72-.2-.31-.11-.19-.35-.55,0,0,.08.09.16.21-.06-.09.06.06-.08-.14s-.19-.24-.06,0Z"/><path class="cls-2" d="M48.35,10.35l0,0Z"/><path class="cls-2" d="M47.82,10.46l0-.07Z"/><path class="cls-2" d="M47.5,10.17h0S47.49,10.14,47.5,10.17Z"/><path class="cls-2" d="M48.35,10.35l-.07-.1Z"/><path class="cls-2" d="M49.8,11.19l0-.08,0,0Z"/><path class="cls-2" d="M48.37,10h0a.77.77,0,0,0-.09-.13Z"/><path class="cls-2" d="M48.48,9.82a4,4,0,0,0,.25.37.9.9,0,0,1-.12-.19Z"/><path class="cls-2" d="M49,10.13l0,0S49,10.12,49,10.13Z"/><path class="cls-2" d="M48.22,10l-.06-.1Z"/><path class="cls-2" d="M45.61,14.72l0-.05Z"/><path class="cls-2" d="M44.54,13.51h0l-.1-.15Z"/><path class="cls-2" d="M47.14,9.91h0S47.13,9.89,47.14,9.91Z"/><path class="cls-2" d="M46.06,10.94c.18.23.19.32.4.57C46.38,11.41,46.19,11.08,46.06,10.94Z"/><path class="cls-2" d="M49.77,11.16h0S49.78,11.17,49.77,11.16Z"/><path class="cls-2" d="M46.46,11.51h0l0,0Z"/><path class="cls-2" d="M47,10.28l.08.12Z"/><path class="cls-2" d="M47.43,10.51l0,0Z"/><path class="cls-2" d="M47.09,10.74s-.05-.05,0,0l0,0S47.05,10.7,47.09,10.74Z"/><path class="cls-2" d="M47,10.83l0,.05v0Z"/><path class="cls-2" d="M45.9,14.34a2.07,2.07,0,0,1-.17-.24C45.86,14.29,45.89,14.37,45.9,14.34Z"/><path class="cls-2" d="M49.7,11l.07.12v0Z"/><path class="cls-2" d="M48.53,12.85l-.05,0S48.52,12.86,48.53,12.85Z"/><path class="cls-2" d="M46.75,13.7l0,0Z"/><path class="cls-2" d="M48.45,12.9l-.14-.17,0,.07Z"/><path class="cls-2" d="M45.73,14.1Z"/><path class="cls-2" d="M46,14.82a4,4,0,0,0-.36-.55c0-.12.19.25.32.42-.05-.1-.26-.43-.24-.42s.06.08.1.15c-.17-.29,0,0-.19-.41l.07.09c-.13-.17-.25-.35-.34-.48s-.14-.23,0,0a1,1,0,0,0,.1.17l-.06-.11c.23.33.06.12.23.37-.06-.12-.22-.41-.15-.32.23.32.05.13.26.4L45.7,14c.36.5,0,0,.35.51.09.08-.09-.18,0-.11-.12-.18-.19-.26-.31-.45-.18-.34.59.79.32.35-.14-.22-.41-.63-.25-.43l.25.37s-.35-.54-.15-.31.06.14.09.18c.22.27-.13-.22-.11-.23l.22.32c0-.07-.14-.32-.15-.4.07.1.13.2.21.3-.08-.19.11,0,.27.15L46.28,14a1.78,1.78,0,0,1,.12.18c.09.09-.12-.18-.19-.3a2.29,2.29,0,0,1,.18.24c-.14-.25-.28-.56,0-.27l0,.08c.1.1-.37-.59-.17-.34l0,0c.13.09,0-.2.33.2-.27-.41.16.15-.22-.41.22.26.28.36.44.52s-.22-.36-.25-.42l.2.29-.19-.32.25.35,0-.09a1.31,1.31,0,0,1-.16-.21c-.08-.14.18.18.28.33l-.12-.28a2.67,2.67,0,0,1,.14.24c-.18-.31.22.31.05,0-.05-.06-.12-.17-.16-.23.13.17.16.15.12.07l.14.2c.07,0,0-.14,0-.16a5,5,0,0,1-.32-.48l.21.31c-.12-.2-.09-.11-.23-.35a3.72,3.72,0,0,1,.31.45L47,13.52l.17.26c-.12-.2.24.29,0,0l.07.09s0-.13,0-.17c-.18-.27-.13-.21-.27-.44.08.07.25.27.26.23s-.15-.23-.25-.39c.17.24.17.2.28.38,0-.06,0-.07-.09-.3a1.53,1.53,0,0,1-.16-.22s.08.09.16.21l0,0c-.21-.4.58.64.27.11v0L47.34,13s.11.19.23.33c-.24-.43.1,0-.06-.27.52.7.05-.11.4.32l-.12-.17c-.1-.17.08.09.11.13l-.17-.24c-.07-.25.32.14.49.25s-.58-.89-.27-.51l.21.32c-.21-.41.11-.06,0-.42,0,.08.11.17.1.18.17.22,0,0-.08-.21,0,0,.12.17.19.26s-.17-.31,0-.09a.64.64,0,0,1,.06.1c-.07-.12.05,0-.14-.26.11.12,0-.14.08,0-.19-.3.14.12-.15-.3.3.43.28.32.15.11.08.13.1.13.22.31,0,0,0-.11-.18-.32.38.49-.24-.45.23.19a4,4,0,0,1-.21-.57c.29.43,0,.08.29.52-.08-.2-.31-.58-.21-.5a1.39,1.39,0,0,1,.17.27c-.08-.21.1,0,0-.27a.52.52,0,0,1,.07.12s.06.05-.07-.14l0,.06c-.21-.28-.38-.61-.48-.76.37.56.12.12.59.83L48.56,12a1.59,1.59,0,0,1,.18.26c-.05-.12-.2-.32-.17-.33l.16.24c-.12-.19-.24-.38-.16-.31s.09.13.08.13-.28-.52-.13-.37a4.66,4.66,0,0,0,.35.48L48.81,12l-.12-.17s-.14-.27,0-.17l.09.16,0-.09-.11-.12c-.11-.2-.31-.45-.22-.37s0,0,.17.2h0c-.07-.12-.14-.24-.07-.16l.32.47c-.2-.3,0-.11-.23-.43l.2.3-.16-.25a2.22,2.22,0,0,1,.19.26c.05,0-.31-.44-.16-.27a.44.44,0,0,1,.06.1c.1.08-.05-.19,0-.09.25.36,0,.1.26.4,0-.09-.23-.48-.14-.41l0,0c-.34-.51.2.23,0,0l.15.23c.08.07,0-.16-.12-.34l.09.14c.09.1.08,0,.13.09a2.66,2.66,0,0,0-.19-.3c.55.7-.19-.46.27.13l.07.12,0-.14a3.4,3.4,0,0,0-.22-.3.92.92,0,0,1-.13-.25,3.66,3.66,0,0,0,.33.48L49.08,11c.28.38-.3-.44-.1-.19l.08.11c0-.06-.13-.22-.1-.19.18.25.07.12.22.33,0,0-.31-.5-.12-.25a1.09,1.09,0,0,0,.08.15c.22.29.16.22.21.26h0l.12.12-.06-.08c-.44-.67,0-.14-.33-.59a5.69,5.69,0,0,0,.36.53,2.15,2.15,0,0,1,.18.24c-.15-.24.14.17-.07-.18.06.09,0,0,.17.24a1.54,1.54,0,0,0-.19-.28c-.2-.33.31.35,0-.11-.1-.19-.31-.51-.39-.68a3,3,0,0,1,.22.34c.11.13.1.09,0,0l.18.25s-.22-.34-.12-.21l.25.38-.2-.37c.11.16.16.25.23.36a2.37,2.37,0,0,0-.24-.43l-.07-.09a2.07,2.07,0,0,1,.18.27c.13.21-.07-.08-.14-.17l0-.07c-.38-.53,0,.12,0,.1l-.26-.4.21.34a2.92,2.92,0,0,1-.26-.39c-.15-.18.08.15-.08-.06l0-.07.07.13C49,10.17,48.9,10,49,10c-.18-.21.16.32-.05,0l0,0a7.3,7.3,0,0,0,.41.65l-.51-.7.2.29-.11-.14c.12.2.09.12.21.31-.2-.25,0,.16-.28-.3a3.17,3.17,0,0,1,.22.32c-.34-.49,0,.1-.13-.12a2,2,0,0,0-.24-.35c.29.44-.09-.08,0,0,.23.35.07.17.13.3a2.37,2.37,0,0,0-.27-.28l0-.06c.23.35.17.3.2.38L48.38,10h0l.13.22-.18-.26s.18.33,0,.17c.16.25.48.67.57.85-.09-.14-.25-.36-.28-.42s.07.12,0,.06l-.14-.23c-.08-.09.12.19.1.18l-.2-.28s.06.07,0,0a3.39,3.39,0,0,1-.23-.27,2,2,0,0,1,.19.28s-.16-.22-.24-.31c.09.13,0,0,.17.28l-.15-.2c.08.13,0,.06.2.36h0v0h0c.16.3-.17-.12-.11,0l-.07-.09a1.74,1.74,0,0,0,.13.3s-.13-.17-.2-.28c0,.08.1.19,0,.05s-.11-.15-.07-.13-.18-.22,0,.05c-.16-.25-.23-.29-.18-.22l.13.17s0,0,0,0L47.75,10c-.3-.36.39.7-.08.07.14.23.13.14.29.41,0,0-.37-.48-.38-.47-.14-.16.3.47.19.37a3.46,3.46,0,0,1,.35.53,6.44,6.44,0,0,1-.4-.56s0,0,.05.06a1,1,0,0,0-.14-.21l.08.11a1.44,1.44,0,0,1-.22-.27.88.88,0,0,0,.17.24c-.14-.15,0,0-.14-.08l.14.19c-.13-.11.13.23.15.29-.14-.16-.28-.41-.2-.25a3.48,3.48,0,0,1-.27-.39c.13.23-.14-.12-.18-.15l0-.1c0,.06,0,.06,0,.06l.16.22a.48.48,0,0,1-.1-.12c.09.15.26.37.39.58-.09-.11.06.14-.15-.16.1.08-.21-.3-.22-.36s0,0,0,0l0-.08c-.21-.25.22.35.19.36a1.35,1.35,0,0,0-.21-.28,2.92,2.92,0,0,1,.28.42c-.1-.12.05.11,0,.1l0,.05a.66.66,0,0,1,.12.22c-.09-.13-.05-.1-.1-.15.19.3-.24-.29-.12-.08-.08-.11-.22-.32-.28-.39.14.23-.18-.22-.07,0a3.42,3.42,0,0,1,.26.4l-.08-.19.21.35s-.08-.16,0-.12a2,2,0,0,0,.21.32c-.25-.34.11.21-.07,0l-.38-.56c-.2-.23.15.32,0,.2l.08.09c.15.23,0,.05,0,.14-.12-.19-.18-.25-.26-.36a2.68,2.68,0,0,0,.22.38l-.18-.24c-.1-.08.34.55.27.51-.14-.21-.24-.34-.32-.49,0,0,0,0,0,.1-.09-.11.15.27,0,.1a2.13,2.13,0,0,1,.16.27l-.06-.09a3.51,3.51,0,0,0,.22.33c-.42-.56,0,.1-.41-.39a.35.35,0,0,1,0,.17C47,11,47,11,47,11c-.15-.16.35.54.19.37a2.68,2.68,0,0,1-.18-.28c-.43-.62,0,.1-.24-.25l0,0c-.16-.2.13.26.07.23a.43.43,0,0,0-.06-.09,2.67,2.67,0,0,1,.29.55,3.19,3.19,0,0,0-.26-.38s.28.39.31.47c-.1-.13-.19-.23-.37-.49v0c-.24-.33,0,0-.06,0l-.1-.15c0,.06.26.44.21.43l.08.11c.24.38-.15-.2,0,.09l-.26-.38c.05.1.21.39.24.48-.18-.29-.26-.45-.36-.62,0,0,0,0,.11.24,0,0-.08-.14,0-.08.19.3.27.46.24.47-.49-.73-.18-.15-.58-.7.15.29-.15-.07-.16,0,.4.56,0,0,.4.61,0,0,0,0,0,0l-.27-.33c-.12-.17-.08-.14-.17-.27a3.85,3.85,0,0,1-.3-.38c.15.21.2.3.13.23l.2.26c.19.33-.36-.47-.18-.14l-.11-.19c.05.11-.06,0,.24.51a2.52,2.52,0,0,1-.18-.27c-.09,0,.26.55,0,.29l-.09-.15c0,.05.17.28.06.14l-.1-.15s.15.26.08.19l-.1-.17c-.16-.16.21.43.25.55a3.91,3.91,0,0,0-.47-.6l0-.06c-.08,0,.17.4.24.59-.34-.44-.21-.13-.43-.36a4,4,0,0,1,.25.37c-.07-.08.17.31-.09-.07h0c-.27-.37-.22-.26-.24-.26l.34.51c-.54-.71.09.33-.38-.31a2.29,2.29,0,0,0,.14.27l-.19-.27c-.07,0-.11-.07-.09,0l-.13-.19s.51.79.51.82l-.28-.4s-.31-.31-.09.08l-.12-.2s-.24-.23.14.32c-.25-.36-.06,0,0,.16l-.18-.27a4.54,4.54,0,0,1,.32.55s-.15-.21-.1-.15c-.11-.13.16.26,0,.13l-.11-.17s0,.08.16.28-.08,0-.24-.28c.09.15.22.35.16.29a1.21,1.21,0,0,1-.11-.18c-.15-.16.17.33,0,.09l-.11-.16a0,0,0,0,1,.06,0c-.16-.25-.21-.28-.43-.63.11.2.37.61.27.51L44.72,12l0,0s0,0,0,0L44.65,12c-.14-.2-.09-.09-.11-.1.19.27.15.23.31.45l0-.05,0,0,0,0a0,0,0,0,1,0,0c.08.14.15.26,0,.12.12.17.23.35.29.44-.27-.37-.43-.55-.59-.78a1.87,1.87,0,0,0,.33.65c0,.07-.11-.13-.16-.21a.88.88,0,0,0-.07-.12,1.31,1.31,0,0,0,.23.43c-.13-.14-.21-.33-.2-.25l-.07-.11c-.44-.53.53.95,0,.27l.09.12c-.28-.28.07.39-.34-.07-.08-.09.07.13.17.31l-.2-.28.21.34c.14.26-.53-.67-.25-.19l.14.19s0,.14-.11-.08c0,0,.13.2.06.1l-.11-.15.15.28c-.1-.09-.4-.6-.46-.6s.27.46.34.56a1.06,1.06,0,0,1,.18.23l0,.09c.31.44.61.9.85,1.19l-.17-.28.16.21v0c.15.2,0,0,0-.11l.17.23-.27-.44c.12.17.23.35.31.44-.13-.21-.28-.39-.35-.52.15.19.26.36.15.18a1.94,1.94,0,0,1,.16.24c-.09-.15,0-.08-.17-.32.18.24,0-.09.27.33-.06-.1-.21-.34-.21-.36.33.51.05,0,.42.55-.3-.46-.09-.23-.24-.5,0,0,.07.11.05.09s.13.16.2.24c-.25-.37-.29-.47-.44-.71.26.35.29.45.53.79-.21-.3-.18-.32-.36-.57.17.22.09.1.31.41a4.22,4.22,0,0,1-.24-.38c.18.22.31.43.23.28A2.39,2.39,0,0,1,46,14.82Zm-.12-1.1h0v0Zm0,0h0l-.12-.18A2,2,0,0,0,46,13.69Zm-1.35-1.8s0,0,0,.07l0,0,0,0A.8.8,0,0,1,44.6,11.89Z"/><path class="cls-2" d="M44.83,12.25v0l0,.06-.05-.09Z"/><path class="cls-2" d="M48.39,10.39h0l0,0Z"/><polygon class="cls-2" points="46.8 13.86 46.75 13.79 46.79 13.85 46.8 13.86"/><path class="cls-2" d="M49.22,11.17l.05.06Z"/><path class="cls-2" d="M49.35,11.17l.07.08Z"/><path class="cls-2" d="M49.5,11.25l-.07-.11h0Z"/><path class="cls-2" d="M48.66,12.29v0Z"/><path class="cls-2" d="M48.55,11.45l.08.13S48.65,11.6,48.55,11.45Z"/><polygon class="cls-2" points="48.53 12.85 48.53 12.85 48.53 12.85 48.53 12.85"/><path class="cls-2" d="M48.61,11.59c0,.05,0,0,0,0S48.59,11.55,48.61,11.59Z"/><path class="cls-2" d="M49.88,11.18h0l0,0Z"/><path class="cls-2" d="M49.86,11.14l0,0Z"/><path class="cls-2" d="M49.8,11l0,.07S49.85,11.11,49.8,11Z"/><path class="cls-2" d="M49.7,11.11l.07.1Z"/><path class="cls-2" d="M49.7,11.16s.15.2.12.13l0-.08C49.86,11.36,49.59,11,49.7,11.16Z"/><path class="cls-2" d="M48.76,10l.08.06a2,2,0,0,1-.19-.27C48.42,9.54,48.82,10.06,48.76,10Z"/><path class="cls-2" d="M48.59,9.94a1.28,1.28,0,0,0-.14-.21A1,1,0,0,0,48.59,9.94Z"/><path class="cls-2" d="M48.09,10.28,47.92,10S48,10.13,48.09,10.28Z"/><polygon class="cls-2" points="48.85 11.6 48.97 11.75 48.82 11.52 48.85 11.6"/><polygon class="cls-2" points="47.61 9.91 47.59 9.87 47.63 9.97 47.61 9.91"/><path class="cls-2" d="M46.83,10.57l.2.3C47,10.81,46.77,10.48,46.83,10.57Z"/><path class="cls-2" d="M46.67,11.13c-.11-.15-.18-.24-.09-.09S46.69,11.17,46.67,11.13Z"/><polygon class="cls-2" points="45.24 11.39 45.18 11.29 45.23 11.38 45.24 11.39"/><path class="cls-2" d="M52.32,18.33v0Z"/><path class="cls-2" d="M52.28,17.62c0,.19,0,.51,0,.86,0-.36,0-.21,0-.65,0,0,0,.13,0,.27,0-.1,0,.08,0-.16s0-.31,0-.06Z"/><path class="cls-2" d="M51.69,17v0A.1.1,0,0,1,51.69,17Z"/><path class="cls-2" d="M51.33,16.82v0Z"/><path class="cls-2" d="M51.26,16.4v0S51.26,16.37,51.26,16.4Z"/><path class="cls-2" d="M51.69,17v-.12A.45.45,0,0,0,51.69,17Z"/><path class="cls-2" d="M52.2,18.54v0Z"/><path class="cls-2" d="M51.85,16.72h0v0Z"/><path class="cls-2" d="M52,16.66s0,.31,0,.45a.93.93,0,0,1,0-.22Z"/><path class="cls-2" d="M52.17,17.23v0Z"/><path class="cls-2" d="M51.76,16.65v0Z"/><path class="cls-2" d="M48.31,19.08v0Z"/><path class="cls-2" d="M48.17,17.48v0Z"/><path class="cls-2" d="M51.15,16h0Z"/><path class="cls-2" d="M50.1,16.22c0,.29,0,.37,0,.69C50.1,16.79,50.12,16.41,50.1,16.22Z"/><path class="cls-2" d="M52.2,18.5h0S52.2,18.51,52.2,18.5Z"/><path class="cls-2" d="M50.1,16.91h0v0Z"/><path class="cls-2" d="M50.89,16.18v0Z"/><path class="cls-2" d="M51.08,16.64v0Z"/><path class="cls-2" d="M50.79,16.63s0-.07,0,0v0S50.78,16.58,50.79,16.63Z"/><path class="cls-2" d="M50.68,16.64v0Z"/><path class="cls-2" d="M48.63,18.93v-.29C48.63,18.87,48.61,19,48.63,18.93Z"/><path class="cls-2" d="M52.2,18.36v0Z"/><path class="cls-2" d="M50.78,19.19l0-.05S50.77,19.19,50.78,19.19Z"/><path class="cls-2" d="M49.39,18.88v0Z"/><path class="cls-2" d="M50.71,19.19a1.16,1.16,0,0,0,0-.22v.22Z"/><path class="cls-2" d="M48.52,19.4s0-.41,0-.66a4.39,4.39,0,0,1,0,.53c0-.11,0-.5,0-.48V19c0-.34,0,0,0-.44,0,0,0,.07,0,.1,0-.21,0-.43,0-.58s0-.27,0,0c0,0,0,.1,0,.19v-.12c0,.4,0,.14,0,.43,0-.13,0-.46,0-.35,0,.4,0,.14,0,.48l0-.15c0,.62,0,0,0,.62,0,.12,0-.2,0-.08,0-.22,0-.33,0-.54,0-.39,0,1,0,.46,0-.26,0-.76,0-.49V19s0-.64,0-.34a1.78,1.78,0,0,1,0,.2c0,.35,0-.25,0-.25V19c0-.06,0-.34.08-.42,0,.12,0,.24,0,.36,0-.19.07.05.1.28v-.33a1.1,1.1,0,0,1,0,.21,2.59,2.59,0,0,0,0-.34A1.72,1.72,0,0,1,49,19c0-.28.06-.62.08-.25v.1c0,.13,0-.7,0-.38v.06c0,.15.08-.16.11.35,0-.49,0,.21,0-.47,0,.34,0,.46,0,.69,0,0,0-.43,0-.5V19l0-.37v.33a1.64,1.64,0,0,1,0-.26c0-.16,0,.25,0,.43l0-.3c0,.14,0,.19,0,.28,0-.36,0,.37,0,0v-.28c0,.21,0,.22,0,.13v.24c0,.06.06-.12.09-.11a5.55,5.55,0,0,1,0-.58v.37c0-.23,0-.14,0-.42,0,0,0,.42,0,.55v.18c0-.23,0,.38,0,0v.11s0-.12.07-.14c0-.33,0-.25,0-.52,0,.11,0,.36.06.34a3.61,3.61,0,0,0,0-.47,4.55,4.55,0,0,1,0,.48.9.9,0,0,0,.06-.3,2.42,2.42,0,0,1,0-.27,2.17,2.17,0,0,1,0,.26v0c0-.44.08.86.11.25v0l0-.32c0,.05,0,.22,0,.4,0-.49,0,.07.08-.26,0,.88.07-.06.1.5v-.21c0-.2,0,.12,0,.17v-.3c.06-.24.13.3.19.49s0-1.06,0-.57v.38c0-.46.09,0,.14-.38,0,.09,0,.21,0,.21,0,.27,0,0,0-.22a2.64,2.64,0,0,1,0,.32c0,.17,0-.35,0-.08v.12a1.79,1.79,0,0,0,0-.29c0,.15,0-.14,0,0,0-.36,0,.17,0-.34,0,.53,0,.42,0,.18,0,.16,0,.16,0,.38,0,0,0-.1,0-.37,0,.62.05-.5.06.3a4.44,4.44,0,0,1,.11-.6c0,.52,0,.06,0,.6,0-.21,0-.66.08-.53a1.66,1.66,0,0,1,0,.31c0-.21.06.05.09-.23v.14s0,.07,0-.16v.06c0-.34,0-.72,0-.9,0,.68,0,.17,0,1,0-.05,0-.16,0-.32v.32c0-.13,0-.38,0-.37s0,.16,0,.29c0-.22,0-.45,0-.35a.54.54,0,0,1,0,.16s.05-.6.07-.38c0,.5,0,.16,0,.59v-.33s0-.31,0-.17v.18l0-.08,0-.17c0-.22,0-.54,0-.42a2,2,0,0,1,0,.26h0c0-.14,0-.28,0-.17v.56c0-.36,0-.1,0-.48V18a2.55,2.55,0,0,1,0,.32s0-.55,0-.31a.54.54,0,0,1,0,.11c0,.12.05-.19.07,0,0,.43,0,.1,0,.47,0-.08.07-.52.09-.42v-.05c0-.61,0,.31,0,0v.27c0,.1,0-.15.07-.34v.15c0,.14,0,.08,0,.16,0-.16,0-.14,0-.36,0,.89.07-.48.1.26a.66.66,0,0,0,0,.14l0-.14c0-.27,0-.17,0-.37s0-.28,0-.28a5.32,5.32,0,0,0,0,.57v-.25c0,.47,0-.54,0-.22v.14c0-.07,0-.26,0-.22,0,.31,0,.15,0,.4,0,0,0-.58,0-.27l0,.17a2.4,2.4,0,0,0,0,.33h0l0,.16v-.1a4.56,4.56,0,0,1,0-.67c0,.5,0,.29,0,.64a1.48,1.48,0,0,1,0,.3c0-.28,0,.22,0-.19,0,.11,0,0,0,.29,0-.08,0-.19,0-.33,0-.39,0,.46.07-.06,0-.22,0-.6.05-.79,0,.18,0,.41,0,.41,0,.17,0,.14,0,0,0,.1,0,.18,0,.3s0-.4,0-.24,0,.33,0,.45c0-.1,0-.31,0-.41,0,.19,0,.3,0,.42a2.88,2.88,0,0,0,0-.48v-.12a1.77,1.77,0,0,1,0,.33c0,.24,0-.11,0-.22v-.07c0-.66,0,.1,0,.06v-.08c0-.12,0-.39,0-.46,0-.24,0,.17,0-.1v.06c0-.1,0-.34,0-.27,0-.27,0,.36,0,0v0c0,.16,0,.35,0,.77l0-.87v.35a1.07,1.07,0,0,1,0-.18c0,.24,0,.15,0,.38,0-.32,0,.15,0-.41,0,.27,0,.21,0,.39,0-.6,0,.1,0-.17s0-.15,0-.43c0,.53,0-.11,0,0,0,.42,0,.17,0,.31,0-.14,0-.23,0-.38v-.07a1.28,1.28,0,0,1,0,.43c0-.25,0-.35,0-.46h0c0,.13,0,.2,0,.25v-.31s0,.37-.05.16c0,.29,0,.82,0,1v-.5s0,.13,0,.06v-.26c0-.12,0,.22,0,.19,0-.22,0-.16,0-.34h0s0-.18,0-.35V17a2.75,2.75,0,0,1,0-.39c0,.16,0,0,0,.34,0,0,0-.16,0-.25a2.22,2.22,0,0,0,0,.4v0c0,.34-.06-.19-.08-.05V17a1.15,1.15,0,0,0,0,.32s0-.21,0-.34c0,.08,0,.21,0,0s0-.17,0-.14,0-.28,0,0c0-.3,0-.37,0-.28v.21s0,0,0,0v-.39c0-.46-.06.8-.08,0,0,.26,0,.19,0,.5,0,0,0-.6,0-.6,0-.22,0,.56,0,.41a4.39,4.39,0,0,1,0,.63c0-.05,0-.57,0-.68v.08s0-.11,0-.26v.14c0-.14,0-.13,0-.35a2.74,2.74,0,0,0,0,.29c0-.2,0,0,0-.14v.24c0-.17,0,.26,0,.32,0-.21,0-.5,0-.33a3.57,3.57,0,0,1,0-.47c0,.26,0-.17,0-.22v-.11c0,.06,0,.06,0,.06V16c0,.18,0,.46,0,.7,0-.14,0,.15,0-.21,0,.12,0-.37,0-.43s0,.05,0,0V16c0-.32,0,.41,0,.4,0-.2,0-.38,0-.34s0,.34,0,.5c0-.16,0,.12,0,.1v.07a.83.83,0,0,1,0,.25c0-.16,0-.11,0-.18,0,.36,0-.38,0-.13,0-.14,0-.39,0-.48,0,.26,0-.28,0-.06a3.69,3.69,0,0,1,0,.47l0-.19,0,.4s0-.17,0-.13a2.54,2.54,0,0,0,0,.39c0-.42,0,.24,0,0v-.68c0-.31,0,.35-.06.18v.11c0,.27,0,0,0,.15,0-.23,0-.31,0-.45a3.72,3.72,0,0,0,0,.44l0-.3c0-.12,0,.65,0,.57a5.44,5.44,0,0,1,0-.59s0,0,0,.12c0-.14,0,.3,0,.09a2.29,2.29,0,0,1,0,.32v-.12a4,4,0,0,0,0,.41c0-.71-.06,0-.08-.56a.38.38,0,0,1,0,.17c0-.07,0-.12,0-.09,0-.21,0,.65,0,.42a1.72,1.72,0,0,1,0-.34c0-.75,0,.1,0-.34v0c0-.26,0,.28,0,.23v-.12a3.53,3.53,0,0,1-.05.62c0-.29,0-.16,0-.45,0,0,0,.47,0,.56,0-.16,0-.3,0-.62l0,0c0-.41,0,0,0-.05v-.18c0,.05,0,.51,0,.47v.14c0,.45,0-.25,0,.08v-.45c0,.11,0,.44,0,.52,0-.34,0-.51,0-.71,0,0,0,0,0,.26,0,0,0-.16,0-.09a1.83,1.83,0,0,1,0,.53c0-.88-.05-.22-.06-.91,0,.33-.06-.14-.1-.08,0,.68,0,0,0,.72,0,0,0,0,0,0l0-.42c0-.21,0-.16,0-.32a4.79,4.79,0,0,1,0-.48c0,.25,0,.36,0,.26v.33c0,.37,0-.59-.05-.22v-.22a1.51,1.51,0,0,0-.06.56,1.81,1.81,0,0,1,0-.33c0-.08-.07.6-.1.26v-.18c0,.05,0,.33,0,.15a.77.77,0,0,0,0-.18c0,.06,0,.3,0,.2v-.19c0-.23,0,.47-.08.59a6,6,0,0,0,0-.76V15.9c0-.06-.07.42-.1.62,0-.55-.07-.23-.1-.54,0,.1,0,.4,0,.45,0-.1,0,.35,0-.11h0c0-.46,0-.34,0-.35v.61c0-.89-.08.32-.1-.47,0,.15,0,.15,0,.3V16.1c0-.09,0-.13-.06-.05v-.24s0,1,0,1v-.49s0-.42-.08,0v-.23s0-.33,0,.34c0-.44,0-.05,0,.15v-.32a4.78,4.78,0,0,1,0,.63v-.17c0-.17,0,.3,0,.13v-.21A1.52,1.52,0,0,0,49,17c0,.13,0-.08,0-.37,0,.17,0,.41,0,.33s0-.18,0-.21c0-.22,0,.37-.05.05,0-.1,0-.16,0-.19a.07.07,0,0,1,0,.05c0-.29,0-.35,0-.76a3.22,3.22,0,0,1,0,.57.28.28,0,0,1,0-.1v0c0-.05,0-.09,0-.09,0-.25,0-.14,0-.15,0,.33,0,.27,0,.54a.07.07,0,0,1,0,0v0l0,0c0,.17,0,.31,0,.13,0,.2,0,.42,0,.52,0-.45,0-.7,0-1a3.66,3.66,0,0,0-.07.73c0,.08,0-.17,0-.27s0-.05,0-.14a1.82,1.82,0,0,0-.05.49c0-.19,0-.39,0-.32V16.6c0-.68-.07,1.08-.12.21a.66.66,0,0,1,0,.15c-.06-.38-.12.36-.17-.25,0-.12,0,.15,0,.36v-.35l0,.4c0,.29,0-.85-.07-.3v.24s0,.13,0-.14v-.06l0,.32c0-.14,0-.73,0-.76s0,.53,0,.65,0,.11,0,.3v.09c0,.54,0,1.09,0,1.46l0-.33v.26l0,0c0,.25,0,0,0-.12a2,2,0,0,0,0,.29v-.52c0,.21,0,.42,0,.54,0-.24,0-.47,0-.63,0,.24,0,.44,0,.23a2.11,2.11,0,0,1,0,.29,1.91,1.91,0,0,0,0-.35c0,.3,0-.08,0,.43a3.73,3.73,0,0,1,0-.42c0,.6,0,0,0,.68a4,4,0,0,1,0-.54v.1s0,.21,0,.31c0-.45,0-.55,0-.83,0,.44,0,.53,0,1,0-.37,0-.37,0-.67,0,.27,0,.13,0,.5,0-.56,0-.09,0-.44,0,.28,0,.53,0,.36C48.53,19.2,48.52,19.4,48.52,19.4Zm.37-1h0v0Zm0,0a0,0,0,0,0,0,0v-.22C48.91,18.26,48.92,18.33,48.92,18.42Zm-.07-2.25s0,0,0,.09a.1.1,0,0,1,0,0v-.13Z"/><path class="cls-2" d="M48.85,16.6v0Z"/><path class="cls-2" d="M51.7,17.08h0v0Z"/><polygon class="cls-2" points="49.35 19.04 49.35 18.96 49.35 19.03 49.35 19.04"/><path class="cls-2" d="M51.87,18.19v0Z"/><path class="cls-2" d="M51.94,18.27v.11C52,18.31,52,18.28,51.94,18.27Z"/><path class="cls-2" d="M52,18.43v-.14h0Z"/><path class="cls-2" d="M51.09,18.81h0C51.08,18.88,51.08,18.86,51.09,18.81Z"/><path class="cls-2" d="M51.36,18.05c0,.06,0,.12,0,.15S51.36,18.23,51.36,18.05Z"/><polygon class="cls-2" points="50.78 19.2 50.78 19.19 50.78 19.19 50.78 19.2"/><path class="cls-2" d="M51.34,18.2c0,.06,0,.05,0,0S51.34,18.15,51.34,18.2Z"/><path class="cls-2" d="M52.25,18.57v0Z"/><path class="cls-2" d="M52.25,18.53v0S52.25,18.5,52.25,18.53Z"/><path class="cls-2" d="M52.26,18.41v0Z"/><path class="cls-2" d="M52.17,18.42v0Z"/><path class="cls-2" d="M52.15,18.46s0,.25,0,.17v-.09C52.17,18.72,52.16,18.26,52.15,18.46Z"/><path class="cls-2" d="M52.05,17l0,.1a2.65,2.65,0,0,1,0-.33C52.05,16.4,52.08,17.05,52.05,17Z"/><path class="cls-2" d="M52,16.82a2,2,0,0,0,0-.25A2.09,2.09,0,0,0,52,16.82Z"/><path class="cls-2" d="M51.56,16.82v-.29A2.44,2.44,0,0,0,51.56,16.82Z"/><polygon class="cls-2" points="51.48 18.35 51.48 18.53 51.49 18.26 51.48 18.35"/><polygon class="cls-2" points="51.43 16.25 51.43 16.2 51.42 16.31 51.43 16.25"/><path class="cls-2" d="M50.7,16.35v.36A1.89,1.89,0,0,0,50.7,16.35Z"/><path class="cls-2" d="M50.38,16.72c0-.18,0-.3,0-.12C50.37,16.63,50.38,16.77,50.38,16.72Z"/><polygon class="cls-2" points="49.44 16.13 49.45 16.01 49.43 16.11 49.44 16.13"/><path class="cls-2" d="M53.48,29a2.19,2.19,0,0,0,0-.28l0,.38Z"/><path class="cls-2" d="M53.46,28.28c0,.18,0,.51-.05.86,0-.37,0-.21.05-.65a1.65,1.65,0,0,1,0,.26c0-.09,0,.09,0-.15s0-.31,0-.07A2,2,0,0,1,53.46,28.28Z"/><path class="cls-2" d="M52.78,27.65v.05A.2.2,0,0,0,52.78,27.65Z"/><path class="cls-2" d="M52.36,27.43a.39.39,0,0,1,0-.09A.25.25,0,0,0,52.36,27.43Z"/><path class="cls-2" d="M52.3,27v0S52.3,27,52.3,27Z"/><path class="cls-2" d="M52.78,27.65v-.12C52.77,27.66,52.78,27.63,52.78,27.65Z"/><path class="cls-2" d="M53.32,29.19a.22.22,0,0,0,0-.1s0,0,0,0Z"/><path class="cls-2" d="M53,27.35h0s0-.09,0-.15Z"/><path class="cls-2" d="M53.14,27.3s0,.31,0,.45c0-.13,0-.19,0-.22A2.11,2.11,0,0,1,53.14,27.3Z"/><path class="cls-2" d="M53.35,27.88v0Z"/><path class="cls-2" d="M52.89,27.28v0Z"/><path class="cls-2" d="M48.67,29.53v0Z"/><path class="cls-2" d="M48.57,27.92v0Z"/><path class="cls-2" d="M52.18,26.58h0S52.19,26.56,52.18,26.58Z"/><path class="cls-2" d="M50.93,26.77c0,.29,0,.37,0,.69C50.9,27.33,50.94,27,50.93,26.77Z"/><path class="cls-2" d="M53.32,29.15h0S53.32,29.16,53.32,29.15Z"/><path class="cls-2" d="M50.9,27.46h0v0Z"/><path class="cls-2" d="M51.86,26.76v0Z"/><path class="cls-2" d="M52.08,27.23v0S52.07,27.23,52.08,27.23Z"/><path class="cls-2" d="M51.72,27.21s0-.06,0,0v0C51.72,27.18,51.72,27.16,51.72,27.21Z"/><path class="cls-2" d="M51.6,27.21v0Z"/><path class="cls-2" d="M49.06,29.39V29.1C49.06,29.33,49,29.41,49.06,29.39Z"/><path class="cls-2" d="M53.33,29a1.38,1.38,0,0,1,0,.14v0A.53.53,0,0,0,53.33,29Z"/><path class="cls-2" d="M51.61,29.77l0-.05S51.6,29.77,51.61,29.77Z"/><path class="cls-2" d="M50,29.39v0Z"/><path class="cls-2" d="M51.53,29.77a1.23,1.23,0,0,0,0-.23v.23Z"/><path class="cls-2" d="M48.9,29.86a5.19,5.19,0,0,0,0-.66c0-.12,0,.32,0,.53,0-.11,0-.5.05-.48v.18c0-.34,0,0,.08-.44a.37.37,0,0,1,0,.11c0-.21,0-.43,0-.59,0,0,0-.26,0,0a1,1,0,0,0,0,.19V28.6a3.55,3.55,0,0,1,0,.43c0-.13.06-.46.07-.35a4.64,4.64,0,0,0,0,.48V29c0,.62,0,0,0,.62,0,.11,0-.2.06-.08,0-.22,0-.33,0-.54.06-.39,0,1,0,.46,0-.26.05-.75.05-.49l0,.44s0-.63.06-.33,0,.14,0,.19c0,.35,0-.25,0-.25l0,.4c0-.06.08-.35.11-.42,0,.12,0,.24,0,.36,0-.19.08.05.11.29l0-.34s0,.15,0,.22,0-.21,0-.35a1.71,1.71,0,0,1,0,.3c0-.29.11-.62.12-.25v.1c0,.14.05-.69.06-.38V29c0,.15.11-.16.12.35,0-.48,0,.22.07-.46,0,.34,0,.46,0,.69,0,0,0-.42,0-.49v.35l0-.37v.43l0-.09a1.16,1.16,0,0,1,0-.27c0-.16,0,.25,0,.43L50,29.3c0,.14,0,.19,0,.28,0-.36,0,.37,0,0,0-.08,0-.21,0-.28,0,.21,0,.22.05.13l0,.24c0,.06.08-.11.11-.11a3.33,3.33,0,0,1,0-.58l0,.38c0-.23,0-.14,0-.43a3.84,3.84,0,0,1,0,.55l0-.13c0,.12,0,.17,0,.32,0-.24,0,.37,0,0v.11s.06-.12.09-.14c0-.32,0-.25,0-.51,0,.1,0,.36.06.33s0-.27,0-.46a3.34,3.34,0,0,1,0,.47s0-.05.1-.29a2.42,2.42,0,0,1,0-.27c0-.05,0,.12,0,.26v0c.06-.44.06.87.13.25v0l0-.32c0,.06,0,.23,0,.41.06-.49.06.07.1-.25,0,.87.09-.06.1.5v-.21c0-.2,0,.12,0,.17,0-.16,0-.19,0-.3s.14.31.2.49.06-1.05.08-.56l0,.38c.08-.46.11,0,.19-.37,0,.09,0,.2,0,.2,0,.28,0,0,0-.21,0,0,0,.21,0,.32s.05-.35,0-.08c0,.05,0,.09,0,.12,0-.14,0,0,0-.29,0,.15.05-.14.05.05,0-.36,0,.17.06-.33,0,.52,0,.42,0,.18,0,.15,0,.16,0,.38a1.21,1.21,0,0,0,0-.37c0,.62.08-.5.06.3a3,3,0,0,1,.15-.59c0,.52,0,.05-.07.6,0-.21.08-.66.12-.53s0,.22,0,.31c0-.21.07.05.12-.23,0,0,0,.1,0,.14s0,.08,0-.16v.06c0-.34.06-.71.06-.89,0,.68,0,.17,0,1a3.14,3.14,0,0,0,0-.32c0,.05,0,.14,0,.32a2.29,2.29,0,0,1,.05-.37c0,.11,0,.15,0,.29,0-.22,0-.45.05-.35a.54.54,0,0,1,0,.16s.08-.59.1-.38c0,.5,0,.17,0,.6l0-.13v-.21s0-.3,0-.16l0,.17,0-.08v-.16c0-.22,0-.54,0-.42a1.6,1.6,0,0,1,0,.26h0c0-.14,0-.28,0-.18s0,.48,0,.57c0-.36,0-.1.07-.48,0,.09,0,.32,0,.36l0-.29c0,.09,0,.14,0,.32s0-.55,0-.31c0,0,0,.07,0,.11s.06-.18.08,0c0,.44,0,.11,0,.47,0-.07.1-.51.13-.41v-.05c0-.61,0,.31,0,0,0,0,0,.34,0,.27,0,.1,0-.15.09-.34v.16c0,.14,0,.08,0,.15a2.93,2.93,0,0,0,0-.36c0,.9.11-.47.12.27a.78.78,0,0,0,0,.14l0-.14c0-.27,0-.16,0-.37a1.28,1.28,0,0,1,0-.28c0,.18,0,.43,0,.58,0-.08,0-.17,0-.26,0,.48,0-.53,0-.21v.14c0-.07,0-.26,0-.22a3.67,3.67,0,0,1,0,.4s.06-.58.06-.28c0,.09,0,.09,0,.18,0,.36,0,.27,0,.32h0l0,.16V29c.06-.8.05-.14.09-.67,0,.5,0,.29,0,.64v.3c0-.28,0,.23,0-.19a2.52,2.52,0,0,1,0,.3c0-.09,0-.2,0-.34,0-.38,0,.47.09-.06,0-.21,0-.59.09-.78a3.83,3.83,0,0,1,0,.41c0,.17,0,.14,0,0a2.91,2.91,0,0,0,0,.31s0-.41,0-.25,0,.33,0,.45c0-.1,0-.31.06-.41,0,.2,0,.3,0,.43a2.71,2.71,0,0,0,.06-.49v-.11s0,.27,0,.32c0,.25,0-.11,0-.22v-.07c0-.66,0,.1,0,.07l0-.48,0,.39c0-.12,0-.39,0-.46,0-.24,0,.17,0-.1a.17.17,0,0,1,0-.08l0,.14c0-.1,0-.34,0-.27,0-.27-.05.36,0,0v0c0,.16,0,.35-.06.76l0-.87,0,.36v-.18c0,.24,0,.15,0,.38,0-.32,0,.14,0-.42a2.19,2.19,0,0,1,0,.4c0-.61,0,.1,0-.18a3.17,3.17,0,0,0,0-.42c0,.52,0-.12,0,0,0,.42,0,.17-.06.31a2.58,2.58,0,0,0,0-.38v-.07c0,.42,0,.34-.06.43,0-.26,0-.36,0-.47h0a1.06,1.06,0,0,1,0,.26l0-.32s0,.37-.06.16c0,.3,0,.82-.06,1,0-.16,0-.43,0-.5s0,.13,0,.06l0-.26c0-.12,0,.22,0,.2,0-.23,0-.17,0-.35,0,0,0,.1,0,0a1.6,1.6,0,0,1,0-.35c0,.13,0,.31,0,.33s0-.27,0-.39c0,.16,0,0,0,.34,0,0,0-.16,0-.26a1.09,1.09,0,0,0-.05.41v0h0c0,.33-.06-.2-.1-.06v-.11a1.43,1.43,0,0,0-.07.32s0-.21,0-.34c0,.08,0,.21,0,0s0-.18,0-.14,0-.29,0,0c0-.29,0-.36,0-.28v.21s0,0,0,0l0-.38c0-.47-.1.79-.1,0,0,.27,0,.19,0,.5,0-.05,0-.6,0-.6,0-.22-.05.56-.07.41a4.35,4.35,0,0,1,0,.63c0-.05,0-.57,0-.68s0,0,0,.07,0-.1,0-.25v.14a1.68,1.68,0,0,1,0-.36,1.47,1.47,0,0,0,0,.3c0-.2,0,0,0-.14,0,.07,0,.23,0,.23,0-.17,0,.26,0,.32,0-.21,0-.5,0-.32,0-.14,0-.37,0-.48,0,.27,0-.17,0-.22v-.11c0,.06,0,.06,0,.06v.28a.63.63,0,0,1,0-.17c0,.18,0,.46,0,.7,0-.14,0,.15,0-.21,0,.12,0-.37,0-.43s0,.05,0,0v-.1c0-.32,0,.41,0,.4a1.35,1.35,0,0,0,0-.34s0,.34,0,.5c0-.16,0,.11,0,.09v.08a.92.92,0,0,1,0,.24c0-.16,0-.11,0-.18,0,.36,0-.37,0-.13,0-.14,0-.39,0-.48,0,.26,0-.28,0-.06a2.42,2.42,0,0,1,0,.47L52,27l0,.4s0-.17,0-.13c0,.23,0,.16,0,.39,0-.41,0,.24,0,0l0-.68c0-.31-.06.34-.09.17v.12c0,.27,0,0,0,.15,0-.23,0-.31,0-.46a4.31,4.31,0,0,0,0,.44V27c0-.12-.06.65-.08.57,0-.25,0-.41,0-.58,0,0,0-.05,0,.11,0-.14,0,.3,0,.09,0,.1,0,.34,0,.32v-.12c0,.12,0,.16,0,.41,0-.71-.08.05-.07-.56a.89.89,0,0,1-.07.16c0-.07,0-.11,0-.09,0-.21,0,.65-.06.42a2.14,2.14,0,0,1,0-.34c0-.75,0,.1,0-.34v0c0-.26,0,.28-.06.22v-.11a3.63,3.63,0,0,1-.09.61c0-.29,0-.15,0-.45,0,0,0,.48,0,.56,0-.16,0-.3,0-.62h0c0-.42,0,0,0-.06V27s-.05.51-.08.47v.14c0,.45,0-.25,0,.08l0-.46c0,.11-.06.44-.08.53,0-.34,0-.51.07-.71,0,0,0,0-.05.25,0,0,0-.15,0-.08a1.7,1.7,0,0,1-.07.52c0-.88-.05-.22,0-.91-.05.33-.06-.14-.11-.09,0,.69,0,0,0,.72,0,.05,0,0,0,0l0-.42a2.16,2.16,0,0,1,0-.31c0-.06,0-.3,0-.49,0,.25,0,.36,0,.26v.33c0,.37,0-.59,0-.22l0-.22c0,.13-.06,0-.1.55a3.11,3.11,0,0,1,0-.32c0-.09-.11.6-.13.25V26.7c0,.05,0,.32,0,.15a1.11,1.11,0,0,0,0-.19c0,.06,0,.3,0,.2v-.19c0-.23-.07.47-.11.59a4.44,4.44,0,0,0,0-.76v-.07c0-.07-.09.42-.14.61,0-.55-.07-.23-.1-.54,0,.09,0,.39,0,.44,0-.1,0,.35,0-.11h0c0-.46,0-.34,0-.35l0,.61c0-.89-.12.32-.11-.48,0,.16,0,.15,0,.31l0-.33c0-.08,0-.13-.07-.05v-.23s-.06.94-.08.95l0-.48s0-.42-.1,0c0-.08,0-.22,0-.24s0-.33-.06.34c0-.43,0,0-.06.15l0-.32a5.06,5.06,0,0,1-.07.63s0-.26,0-.17c0-.17,0,.3,0,.13v-.21s0,.09,0,.33,0-.09,0-.38c0,.18,0,.42,0,.33s0-.18,0-.21c0-.22-.06.37-.06.06v-.19s0,0,0,.05c0-.3,0-.35,0-.76,0,.22-.07.71-.08.57v-.14s0,0,0,0,0-.09,0-.09c0-.25,0-.14,0-.15,0,.33,0,.27,0,.54a.43.43,0,0,1,0-.05,0,0,0,0,0,0,0v0l0,0c0,.17,0,.31,0,.13,0,.2,0,.42,0,.52,0-.45,0-.7,0-1a2.32,2.32,0,0,0-.11.73,2,2,0,0,1,0-.27c0-.06,0-.06,0-.14a2.24,2.24,0,0,0-.07.48c0-.19,0-.39,0-.32v-.13c0-.68-.13,1.08-.15.21v.14c0-.38-.15.36-.19-.25,0-.13,0,.14-.05.35v-.35l0,.4c0,.3,0-.85-.07-.3v.24c0-.05,0,.13,0-.14,0,.05,0,.25,0,.12v-.18l0,.31c0-.13,0-.72,0-.76a5.78,5.78,0,0,0-.06.65v.3l0,.09c0,.54-.06,1.09,0,1.47l0-.33v.26h0c0,.25,0,0,0-.12v.29l0-.51c0,.21,0,.42,0,.53,0-.23,0-.47,0-.62,0,.24,0,.44,0,.23,0,.14,0,.23,0,.29a2.51,2.51,0,0,0,0-.36,3.93,3.93,0,0,1,0,.44c0-.13,0-.4,0-.42,0,.6,0,0,0,.69,0-.55.05-.25.09-.55a.87.87,0,0,0,0,.11s0,.21,0,.31c0-.45,0-.55.07-.83,0,.43,0,.53-.05.95,0-.37,0-.37.05-.67,0,.27,0,.13,0,.5a2,2,0,0,1,0-.44c0,.28,0,.53,0,.36C48.92,29.66,48.9,29.86,48.9,29.86Zm.49-.95h0v0Zm0,0h0c0-.11,0-.23,0-.22Zm0-2.24c0-.05,0,0,0,.08s0,0,0,0v0A1,1,0,0,0,49.44,26.66Z"/><path class="cls-2" d="M49.41,27.08v0Z"/><path class="cls-2" d="M52.79,27.71h0v0Z"/><polygon class="cls-2" points="49.91 29.54 49.92 29.46 49.91 29.53 49.91 29.54"/><path class="cls-2" d="M52.94,28.83v0Z"/><path class="cls-2" d="M53,28.9V29A.75.75,0,0,1,53,28.9Z"/><path class="cls-2" d="M53.09,29.07c0-.06,0-.1,0-.14h0Z"/><path class="cls-2" d="M52,29.4v0C52,29.48,52,29.45,52,29.4Z"/><path class="cls-2" d="M52.34,28.66c0,.06,0,.11,0,.15S52.33,28.84,52.34,28.66Z"/><polygon class="cls-2" points="51.61 29.77 51.61 29.77 51.6 29.77 51.61 29.77"/><path class="cls-2" d="M52.31,28.8c0,.07,0,.06,0,0S52.32,28.76,52.31,28.8Z"/><path class="cls-2" d="M53.38,29.23h0v0Z"/><path class="cls-2" d="M53.39,29.19v0Z"/><path class="cls-2" d="M53.4,29.07v.08S53.4,29.16,53.4,29.07Z"/><path class="cls-2" d="M53.3,29.07v.12A.68.68,0,0,1,53.3,29.07Z"/><path class="cls-2" d="M53.27,29.11s0,.25,0,.17v-.09C53.28,29.37,53.28,28.91,53.27,29.11Z"/><path class="cls-2" d="M53.22,27.65l0,.09a2.55,2.55,0,0,1,0-.32C53.24,27.05,53.24,27.7,53.22,27.65Z"/><path class="cls-2" d="M53.15,27.47a1.11,1.11,0,0,0,0-.26A2.35,2.35,0,0,0,53.15,27.47Z"/><path class="cls-2" d="M52.64,27.44v-.29A1.65,1.65,0,0,0,52.64,27.44Z"/><polygon class="cls-2" points="52.47 28.96 52.47 29.14 52.49 28.87 52.47 28.96"/><polygon class="cls-2" points="52.5 26.86 52.51 26.82 52.49 26.92 52.5 26.86"/><path class="cls-2" d="M51.63,26.93v.36C51.63,27.22,51.65,26.82,51.63,26.93Z"/><path class="cls-2" d="M51.24,27.28c0-.18,0-.3,0-.12C51.23,27.18,51.23,27.33,51.24,27.28Z"/><polygon class="cls-2" points="50.14 26.64 50.15 26.52 50.13 26.62 50.14 26.64"/><path class="cls-2" d="M12,15.15a1.28,1.28,0,0,0-.15.24l.21-.32Z"/><path class="cls-2" d="M11.61,15.75c.11-.15.29-.41.48-.71l-.37.54.15-.23c-.06.09,0-.07-.1.13s-.16.26,0,.06A1.91,1.91,0,0,1,11.61,15.75Z"/><path class="cls-2" d="M11.62,16.47l0,0A.11.11,0,0,1,11.62,16.47Z"/><path class="cls-2" d="M11.71,16.79s0,0-.05.06Z"/><path class="cls-2" d="M11.51,17.16l0,0S11.5,17.18,11.51,17.16Z"/><path class="cls-2" d="M11.62,16.47l-.06.11C11.63,16.47,11.61,16.5,11.62,16.47Z"/><path class="cls-2" d="M12.17,15l-.06.08,0,0Z"/><path class="cls-2" d="M11.36,16.67h0l-.08.13Z"/><path class="cls-2" d="M11.25,16.67l.26-.37-.13.18Z"/><path class="cls-2" d="M11.46,16.12l0,0Z"/><path class="cls-2" d="M11.37,16.76l-.07.1A.61.61,0,0,0,11.37,16.76Z"/><path class="cls-2" d="M14.69,16.05l0,.05Z"/><path class="cls-2" d="M13.88,17.44h0l-.1.16Z"/><path class="cls-2" d="M11.35,17.55h0S11.33,17.57,11.35,17.55Z"/><path class="cls-2" d="M12.08,17.75c.15-.25.22-.3.39-.58C12.4,17.28,12.18,17.59,12.08,17.75Z"/><path class="cls-2" d="M12.15,15.06h0S12.15,15.05,12.15,15.06Z"/><path class="cls-2" d="M12.47,17.17h0v0Z"/><path class="cls-2" d="M11.61,17.49l.07-.12S11.64,17.43,11.61,17.49Z"/><path class="cls-2" d="M11.75,17l0,0A.11.11,0,0,1,11.75,17Z"/><path class="cls-2" d="M11.92,17.15s0,.06,0,0l0,0S11.89,17.19,11.92,17.15Z"/><path class="cls-2" d="M12,17.18l0-.05h0Z"/><path class="cls-2" d="M14.42,16.06l-.16.24C14.39,16.11,14.44,16.05,14.42,16.06Z"/><path class="cls-2" d="M12.07,15.17a.49.49,0,0,1,.08-.11h0Z"/><path class="cls-2" d="M13.34,15l0,.05A.1.1,0,0,0,13.34,15Z"/><path class="cls-2" d="M14,15.81l0,0Z"/><path class="cls-2" d="M13.38,15c-.07.1-.1.16-.12.19l.05-.06Z"/><path class="cls-2" d="M14.26,16.3Z"/><path class="cls-2" d="M14.75,15.71s-.23.34-.37.54.17-.26.28-.45l-.28.4.1-.16c-.2.28,0,0-.28.35l.06-.09-.32.49s-.16.22,0,0l.11-.16-.07.1c.22-.34.09-.11.25-.36-.08.1-.27.37-.22.27a4.72,4.72,0,0,0,.27-.39l-.07.13.34-.51c.05-.11-.12.15-.07.05-.13.18-.18.27-.3.45s.53-.83.23-.41c-.15.22-.43.63-.29.4l.25-.36c0-.05-.36.52-.21.27a1,1,0,0,1,.12-.16c.18-.3-.15.2-.16.2l.22-.33c-.05,0-.22.27-.27.32l.19-.3c-.12.15,0-.07.1-.28l-.19.28.12-.18c.06-.11-.12.18-.2.29a1.42,1.42,0,0,1,.16-.25c-.17.23-.38.49-.19.18l.06-.08c.07-.13-.4.57-.23.3l0-.05c.06-.14-.13.1.13-.33-.27.4.1-.2-.28.37.18-.29.25-.39.36-.59,0,0-.25.35-.29.4l.19-.3-.21.31L14,15.7l0,.08-.15.22c-.09.12.12-.22.22-.38l-.19.24a2,2,0,0,1,.17-.23c-.21.29.2-.31,0,0,0,.07-.12.17-.16.23.12-.18.1-.19,0-.12l.13-.2c0-.06-.09.07-.11.06s-.29.45-.32.48l.21-.31c-.14.19-.08.12-.24.35l.3-.46-.08.11c.06-.1.1-.14.18-.26-.13.19.19-.33,0,0l.06-.1s-.1.09-.12.1c-.18.27-.15.21-.3.42.05-.09.18-.31.15-.3s-.15.23-.26.39c.16-.25.13-.23.26-.41a1.3,1.3,0,0,0-.21.23,2.3,2.3,0,0,1-.15.23l.14-.23,0,0c-.26.35.43-.75.07-.25l0,0-.19.25s.12-.18.22-.34c-.29.4,0-.08-.19.19.47-.74-.07,0,.22-.45l-.11.17c-.12.16.06-.1.08-.14l-.16.24c-.18.19.09-.29.16-.47s-.6.88-.34.46l.21-.32c-.28.37,0,0-.29.26l.12-.17c.15-.23,0,0-.14.17a3,3,0,0,1,.18-.27c.08-.14-.21.29-.06.05l.06-.09c-.08.11,0,0-.17.23.07-.13-.1.11,0-.06-.21.3.08-.15-.21.27.29-.43.22-.36.08-.16.09-.13.08-.14.21-.32a2,2,0,0,0-.22.3c.33-.53-.31.4.13-.27-.18.22-.3.36-.39.45.29-.43.05,0,.35-.48-.13.17-.39.53-.34.41l.18-.25c-.14.16,0-.07-.18.16l.08-.12s0-.07-.1.13l0,0c-.18.29-.41.59-.51.74.38-.56.08-.15.56-.86l-.17.26.17-.27-.22.3.16-.24c-.13.18-.26.37-.21.28l.09-.13s-.36.48-.25.29c.28-.41.08-.14.32-.5l-.08.1-.11.18s-.19.24-.11.12l.1-.14-.06.06-.08.14c-.13.18-.3.45-.25.34a2.53,2.53,0,0,0,.13-.22h0c-.08.11-.17.23-.11.14s.26-.4.31-.48c-.2.3-.07.07-.29.39l.2-.3-.16.24a2.4,2.4,0,0,1,.17-.27c0-.05-.3.46-.18.26l.06-.09c.06-.12-.12.13-.06,0,.24-.37.07-.09.27-.39-.06.05-.32.41-.28.31l0,0c-.35.51.15-.26,0,0l.16-.23c0-.09-.11.11-.23.26l.08-.13c.08-.12,0-.08.06-.14l-.2.3c.48-.76-.31.37.09-.27l.08-.11-.1.11-.2.31-.16.23c.1-.14.23-.36.31-.48l-.14.21c.26-.4-.3.44-.13.17L12,15.7a1.92,1.92,0,0,1-.14.18c.17-.26.09-.12.23-.33,0,0-.34.48-.17.22l.1-.14a1.71,1.71,0,0,0,.17-.28h0l.08-.14-.06.08a5,5,0,0,1-.4.55c.29-.41.16-.24.36-.53l.16-.26c-.16.23.12-.19-.12.15a1.73,1.73,0,0,1,.16-.25,3.27,3.27,0,0,0-.19.28c-.22.31.24-.4-.07,0-.14.17-.35.48-.47.63l.24-.34c.08-.14.06-.12,0,0l.17-.25s-.23.34-.15.19l.26-.37-.25.33.24-.35c0,.07-.11.14-.29.4l-.05.09.18-.27c.14-.2-.06.1-.12.19l0,.06c-.36.55.07-.08.06,0l-.27.4.23-.33c-.07.11-.21.33-.26.39s.1-.14,0,.08l0,.07.08-.11-.15.22c-.14.24.22-.29,0,0l0,0c.11-.12.2-.29.44-.63l-.47.73.19-.29s0,0-.09.15c.14-.19.08-.13.21-.31-.17.27.1-.11-.2.35.15-.22.1-.17.21-.32-.33.5.07-.08-.08.15a4.18,4.18,0,0,0-.23.36c.29-.44,0,.1,0,0,.23-.35.11-.14.2-.25-.08.12-.11.21-.19.34l0,.06a1.91,1.91,0,0,1,.26-.35l-.26.39h0l.15-.21-.17.26s.22-.29.11-.11c.17-.25.45-.69.57-.85l-.28.42,0-.05-.15.22c-.06.1.13-.19.12-.17l-.19.29s0-.08,0,0-.09.16-.18.3l.19-.28s-.15.23-.21.34l.19-.28a1.62,1.62,0,0,1-.14.22,3.31,3.31,0,0,0,.25-.33v0h0c.2-.28-.08.18,0,.07l-.07.09a3.06,3.06,0,0,0,.21-.25s-.11.18-.19.29c0-.07.13-.17,0,0s-.09.15-.09.11-.14.25,0,0c-.16.24-.2.31-.14.24l.11-.18s0,0,0,0l-.21.32c-.24.4.47-.64,0,0,.16-.22.1-.17.28-.42l-.32.51c-.11.18.32-.46.25-.33.08-.12.28-.42.36-.52s-.31.48-.38.57l0-.07-.14.22L11.6,17c-.08.12-.06.12-.19.3a1.86,1.86,0,0,0,.17-.25c-.1.18,0,0-.05.14l.12-.2c-.07.15.16-.21.2-.25-.11.18-.28.41-.17.27a4.62,4.62,0,0,1-.27.4c.16-.22-.07.15-.09.2l-.07.09c0-.06,0,0,0,0l.15-.23-.08.14.39-.58c-.07.12.09-.12-.11.18.06-.11-.2.31-.24.35s0,0,0,0l-.05.08c-.17.28.23-.34.24-.32l-.19.29.28-.42c-.08.14.08-.09.07-.07l0-.07a1,1,0,0,1,.14-.19l-.1.15c.21-.3-.19.32-.05.12-.07.12-.21.32-.26.4.16-.21-.14.24,0,.07s.11-.18.26-.4l-.12.15.23-.32s-.1.13-.08.09a2.53,2.53,0,0,0,.21-.32c-.22.35.15-.19,0,.05l-.37.57c-.16.26.21-.28.13-.13l.06-.1c.16-.22,0,0,.1-.11l-.25.38a2.69,2.69,0,0,0,.26-.36l-.16.26c0,.11.38-.53.34-.46s-.22.34-.33.48,0,0,.07-.09c-.07.12.19-.25.07-.06l.18-.26-.06.09c.06-.09.09-.12.23-.34-.38.6.06,0-.26.5a.64.64,0,0,1,.12-.12c0,.06-.07.09-.06.07-.1.19.37-.54.25-.33a1.87,1.87,0,0,1-.19.28c-.41.62.08-.08-.16.29l0,0c-.14.22.17-.23.15-.17a.64.64,0,0,0-.06.09,5.91,5.91,0,0,1,.37-.49c-.17.24-.09.12-.25.37,0,0,.26-.4.31-.46a6.06,6.06,0,0,1-.33.52h0c-.22.35,0,0,0,.06l-.1.15a4.47,4.47,0,0,1,.29-.38l.07-.12c.26-.36-.13.22.06-.05l-.25.38.32-.42c-.19.28-.3.41-.41.57,0,0,0,0,.16-.2l0,.07a2.83,2.83,0,0,1,.31-.42c-.49.73-.1.2-.47.78.2-.26,0,.14,0,.11.37-.58,0,0,.41-.6,0,0,0,0,0,0l-.22.36c-.11.17-.09.13-.18.26s-.16.25-.26.41C12,18,12,17.9,12,18l.17-.28c.22-.3-.31.5-.09.2l-.13.18a2,2,0,0,0,.35-.44l-.18.27c0,.08.37-.47.19-.17l-.09.14s.18-.27.09-.12-.1.14-.1.15.17-.24.12-.16l-.11.16c-.11.2.29-.37.37-.46-.28.42-.36.57-.4.64l0,.06c0,.07.27-.33.4-.48-.29.47-.08.22-.24.49.05-.08.22-.33.26-.37s.2-.28-.06.1h0c-.25.38-.18.28-.18.3l.34-.51c-.47.75.23-.24-.2.43l.19-.24-.18.27c0,.08-.05.12,0,.06l-.13.2s.53-.78.55-.79l-.26.41s-.21.37.05,0a1.46,1.46,0,0,1-.13.19s-.15.29.22-.27c-.24.37,0,.05.1-.1l-.18.26.37-.52s-.14.22-.09.15c-.09.14.17-.25.09-.1l-.12.17.19-.27c.08-.1,0,.08-.19.33.1-.15.23-.35.19-.27l-.12.17c-.1.19.23-.3.07,0l-.11.16s0,0,0-.05c-.16.25-.19.3-.42.63.13-.18.41-.58.34-.45l-.05.08,0,0,0,0a.48.48,0,0,1,0,.08c-.14.21-.07.12-.07.13.18-.27.16-.22.3-.45l0,0,0,0v0h0c.1-.14.18-.25.08-.1l.3-.43c-.25.38-.37.59-.52.83a6.38,6.38,0,0,0,.44-.59c.05-.06-.09.15-.15.23l-.08.12a2.48,2.48,0,0,0,.29-.39c-.09.16-.22.32-.17.27L13.1,18c-.35.58.64-.88.19-.13l.08-.13c-.18.34.26-.26,0,.27-.06.11.09-.12.21-.28l-.19.29.23-.33c.18-.24-.45.72-.13.27l.13-.19s.1-.11-.05.12c0,0,.13-.2.07-.1l-.1.15.19-.25c-.07.12-.41.6-.41.64s.31-.43.38-.53a1.37,1.37,0,0,1,.16-.25l0-.08c.3-.44.61-.9.8-1.22l-.19.27.14-.22h0c.13-.21,0,0-.08.09l.16-.24-.3.42c.12-.17.24-.34.3-.44-.14.19-.26.39-.35.52.13-.21.24-.37.12-.2a1.93,1.93,0,0,1,.16-.24c-.1.14-.05.05-.21.29a2.55,2.55,0,0,1,.22-.37l-.25.34c.35-.5,0,0,.37-.58-.31.45-.16.18-.33.43l.06-.09a1.41,1.41,0,0,1,.16-.26c-.25.37-.32.45-.48.68.23-.37.3-.44.53-.79-.2.31-.22.3-.38.55.14-.23.06-.11.27-.42-.32.47-.06.07-.26.36.15-.24.29-.44.19-.31C14.63,15.87,14.75,15.71,14.75,15.71Zm-.75.67h0Zm0,0h0l-.13.19A1.76,1.76,0,0,0,14,16.37Zm-1.2,1.89s0,0,0-.07,0,0,0,0l0,0Z"/><path class="cls-2" d="M13,17.91v0l0-.06-.06.09Z"/><path class="cls-2" d="M11.65,16.43h0l0,0Z"/><polygon class="cls-2" points="14.07 15.69 14.03 15.76 14.07 15.7 14.07 15.69"/><path class="cls-2" d="M12.16,15.44l.05-.07Z"/><path class="cls-2" d="M12.16,15.35l.06-.1A.41.41,0,0,0,12.16,15.35Z"/><path class="cls-2" d="M12.22,15.19a.62.62,0,0,0-.08.12h0Z"/><path class="cls-2" d="M13,15.22h0C13,15.16,13,15.18,13,15.22Z"/><path class="cls-2" d="M12.38,15.75a.41.41,0,0,1,.09-.12S12.48,15.6,12.38,15.75Z"/><polygon class="cls-2" points="13.34 15.01 13.34 15.02 13.34 15.02 13.34 15.01"/><path class="cls-2" d="M12.47,15.64c0-.06,0-.05,0,0S12.44,15.67,12.47,15.64Z"/><path class="cls-2" d="M12.16,15h0l0,0Z"/><path class="cls-2" d="M12.13,15l0,0Z"/><path class="cls-2" d="M12.06,15.1l0-.06Z"/><path class="cls-2" d="M12.12,15.13l.06-.1Z"/><path class="cls-2" d="M12.15,15.11s.13-.22.08-.16l-.05.08C12.28,14.89,12,15.27,12.15,15.11Z"/><path class="cls-2" d="M11.4,16.36l0-.09c-.07.1-.16.25-.18.27C11.07,16.86,11.41,16.3,11.4,16.36Z"/><path class="cls-2" d="M11.33,16.53a1.91,1.91,0,0,0-.14.21A1.28,1.28,0,0,0,11.33,16.53Z"/><path class="cls-2" d="M11.58,16.7l-.16.24Z"/><polygon class="cls-2" points="12.47 15.46 12.57 15.3 12.42 15.53 12.47 15.46"/><polygon class="cls-2" points="11.34 17.23 11.31 17.26 11.38 17.18 11.34 17.23"/><path class="cls-2" d="M11.81,17.42l.2-.31C12,17.16,11.74,17.5,11.81,17.42Z"/><path class="cls-2" d="M12.2,17.23c-.1.15-.16.25-.06.1Z"/><polygon class="cls-2" points="12.41 18.08 12.34 18.18 12.4 18.1 12.41 18.08"/><path class="cls-2" d="M7.12,27.06a2,2,0,0,0,0,.28l0-.38Z"/><path class="cls-2" d="M7.25,27.76c0-.18,0-.51-.07-.86l0,.65a1.78,1.78,0,0,1,0-.26c0,.1,0-.08,0,.16s.06.3.05.06Z"/><path class="cls-2" d="M8.15,28.26v-.05S8.14,28.25,8.15,28.26Z"/><path class="cls-2" d="M8.69,28.4v0Z"/><path class="cls-2" d="M8.83,28.8v0S8.83,28.83,8.83,28.8Z"/><path class="cls-2" d="M8.15,28.26l0,.11C8.16,28.25,8.16,28.28,8.15,28.26Z"/><path class="cls-2" d="M7.27,26.83v0Z"/><path class="cls-2" d="M8,28.59H8l0,.16Z"/><path class="cls-2" d="M7.79,28.67l0-.45,0,.22Z"/><path class="cls-2" d="M7.45,28.13v0Z"/><path class="cls-2" d="M8.09,28.65l0,.11Z"/><path class="cls-2" d="M12.43,25.44v0Z"/><polygon class="cls-2" points="12.97 26.96 12.97 26.98 13.01 27.16 12.97 26.96"/><path class="cls-2" d="M9.05,29.19Z"/><path class="cls-2" d="M10.51,28.73c-.07-.28,0-.37-.11-.69C10.42,28.17,10.46,28.55,10.51,28.73Z"/><path class="cls-2" d="M7.28,26.88h0Z"/><path class="cls-2" d="M10.4,28h0v0Z"/><path class="cls-2" d="M9.4,29l0-.14Z"/><path class="cls-2" d="M9.06,28.53v0Z"/><path class="cls-2" d="M9.48,28.47s0,.07,0,0v0S9.49,28.52,9.48,28.47Z"/><path class="cls-2" d="M9.63,28.45l0-.06h0Z"/><path class="cls-2" d="M12,25.69l.07.28C12.05,25.74,12.05,25.66,12,25.69Z"/><path class="cls-2" d="M7.29,27v-.13h0Z"/><path class="cls-2" d="M9.11,25.94l0,0S9.12,25.94,9.11,25.94Z"/><path class="cls-2" d="M11,25.93v0Z"/><path class="cls-2" d="M9.2,25.93l0,.22v-.08Z"/><path class="cls-2" d="M12.1,26Z"/><path class="cls-2" d="M12.09,25.19a4,4,0,0,0,.12.65c0,.12-.08-.31-.13-.52,0,.12.08.5.06.49l0-.18c.06.33,0,0,0,.45l0-.11c0,.21.09.42.12.57s0,.27,0,0c0,0,0-.1,0-.19v.12c-.09-.39,0-.14-.07-.43,0,.13.05.46,0,.36a4.34,4.34,0,0,0-.08-.48l.05.14c-.14-.6,0,0-.13-.6-.05-.1,0,.2,0,.1l.1.53c0,.39-.23-1-.16-.44.05.25.14.74.07.49l-.08-.44s.11.63,0,.34,0-.14,0-.19c-.09-.34,0,.24,0,.25l-.09-.39c0,.07,0,.36,0,.43a2.41,2.41,0,0,0-.07-.35c0,.2-.1,0-.19-.25l.05.34a1.3,1.3,0,0,1,0-.21c0-.13,0,.21.05.34a1.83,1.83,0,0,1-.06-.29c0,.29,0,.62-.06.27l0-.1c-.05-.13.11.69,0,.38v-.06c-.08-.13-.08.19-.22-.31.09.48-.09-.2,0,.47a4.67,4.67,0,0,0-.19-.66s.06.42.06.49l-.06-.35,0,.37L11,25.8v.1a1.82,1.82,0,0,1,.06.25c0,.16-.09-.23-.13-.41V26a2.06,2.06,0,0,1,0-.28c0,.36-.07-.37,0,0l0,.27c0-.2-.08-.2-.08-.11l0-.24c0-.06-.05.13-.09.13a3,3,0,0,1,.1.57L10.75,26c0,.23,0,.14.08.42a3.89,3.89,0,0,1-.11-.54V26l-.05-.31c0,.24-.1-.36,0,0l0-.11s0,.13-.06.16c0,.32,0,.25.06.51,0-.1-.11-.34-.13-.31a4.49,4.49,0,0,0,.06.46c-.05-.29-.08-.26-.1-.47,0,.05,0,.07,0,.31s0,.17.05.27,0-.12-.06-.26v0c0,.45-.26-.83-.19-.21v.29s0-.22-.07-.4c0,.49-.08-.06-.06.27-.18-.85-.09.08-.22-.46l0,.2c0,.2,0-.12,0-.16a2.53,2.53,0,0,1,.05.29c0,.26-.22-.27-.33-.44s.15,1.05,0,.58l0-.38c0,.46-.13,0-.13.39a1,1,0,0,1,0-.2c-.05-.27-.05,0,0,.22a1.86,1.86,0,0,1-.06-.31c0-.16,0,.35,0,.08a.49.49,0,0,1,0-.11c0,.13,0,0,0,.29,0-.15,0,.14-.07,0,0,.35-.06-.16,0,.34-.08-.52-.1-.41-.08-.17,0-.16,0-.16-.07-.38a1.22,1.22,0,0,0,0,.38c-.12-.62,0,.5-.12-.29a3.4,3.4,0,0,1-.06.61c-.07-.51,0-.06,0-.6,0,.22,0,.67,0,.55a2.91,2.91,0,0,1,0-.32c0,.22-.09,0-.09.25v-.14s0-.07,0,.16v-.06c.06.34.07.71.1.89-.08-.67-.06-.16-.16-1,0,0,0,.16,0,.31a1.62,1.62,0,0,1,0-.31c0,.13,0,.38,0,.37l0-.29c0,.23,0,.45,0,.36a.69.69,0,0,1,0-.16s0,.6-.05.39a5.77,5.77,0,0,0-.09-.59v.13l0,.21s0,.31,0,.17v-.18l0,.09,0,.15c0,.23.07.54,0,.43a1.83,1.83,0,0,1-.06-.25h0c0,.14,0,.29,0,.18s-.06-.47-.07-.56c0,.36,0,.1,0,.49,0-.09,0-.32-.05-.36l0,.29a2.41,2.41,0,0,1-.05-.32s.08.54,0,.31V27.1c0-.12,0,.19-.08,0-.06-.43,0-.11,0-.47,0,.09,0,.53-.07.43v.05c.07.61-.07-.3-.05,0,0,0,0-.2,0-.27s0,.16-.05.35l0-.15c0-.14,0-.08-.07-.15a2.87,2.87,0,0,0,0,.36c-.16-.88,0,.49-.18-.24a.65.65,0,0,0,0-.14l0,.15c0,.26,0,.16.06.36a1.5,1.5,0,0,1,0,.28,4.6,4.6,0,0,0-.08-.57l0,.25c-.08-.46.06.54,0,.22v-.14c0,.08,0,.26,0,.22,0-.3,0-.14,0-.39,0,0,0,.58,0,.28v-.18c-.06-.36,0-.26-.07-.32h0l0-.16V27c.08.8,0,.15,0,.67,0-.5,0-.28-.06-.63,0-.1,0-.2-.05-.3,0,.28,0-.22,0,.19,0-.11,0,0,0-.29a1.53,1.53,0,0,0,0,.33c0,.39-.11-.45-.09.08,0,.22,0,.59,0,.78,0-.17,0-.4,0-.4,0-.17,0-.14,0,0l0-.3s0,.41,0,.24,0-.32,0-.45v.42c0-.19,0-.3,0-.42a2.79,2.79,0,0,0,0,.49l0,.11a2.19,2.19,0,0,1,0-.33c0-.24,0,.11,0,.22v.07c.08.66,0-.11,0-.07l0,.48,0-.4a4.53,4.53,0,0,1,0,.46c0,.24,0-.17,0,.09V28c0,.1,0,.34,0,.27.06.27,0-.36.06,0v0c0-.17,0-.35-.06-.77l.12.86,0-.35a.44.44,0,0,1,0,.18c0-.24,0-.15,0-.38,0,.32,0-.15.1.4,0-.26,0-.2,0-.39.07.6,0-.1.06.17a2.5,2.5,0,0,0,0,.42c0-.52,0,.11,0,0,0-.41,0-.17,0-.32a3.18,3.18,0,0,0,.11.38v.07c0-.43,0-.35,0-.44,0,.25,0,.35,0,.47H8c0-.13,0-.2,0-.25l0,.31s0-.37,0-.17c0-.29-.12-.81-.12-1,0,.16.06.43.06.5s0-.14,0-.07l0,.27c0,.11,0-.23,0-.2l0,.34s0-.09,0,0a1.55,1.55,0,0,1,.07.35,1.75,1.75,0,0,1,0-.34,3.27,3.27,0,0,1,.07.39c0-.16,0,0,0-.34a1.4,1.4,0,0,1,0,.25.85.85,0,0,0,0-.4v0h0c0-.34.1.18.11,0l0,.11a1.2,1.2,0,0,0,0-.32s0,.2.06.34c0-.09,0-.22,0,0s0,.17,0,.14.06.28,0,0c0,.29.06.36.06.27l0-.21s0,0,0,0l0,.38c.1.46,0-.8.11,0,0-.27-.05-.18-.08-.49a5.87,5.87,0,0,1,.13.59c.05.2,0-.56,0-.42a4.67,4.67,0,0,1-.07-.63,5.51,5.51,0,0,1,.1.68.33.33,0,0,1,0-.08,1.14,1.14,0,0,0,0,.26l0-.14a1.42,1.42,0,0,1,.08.34,1,1,0,0,0,0-.29c0,.19,0,0,.08.13l0-.23c.06.16,0-.26,0-.33,0,.21.06.5.06.32a2.09,2.09,0,0,1,.06.47c0-.26.07.17.09.21v.12c0-.07,0-.07,0-.07L9,29a.58.58,0,0,1,0,.16c0-.18-.07-.45-.09-.7,0,.14,0-.15.07.21-.05-.12,0,.36,0,.42s0,0,0,0v.09c.08.32,0-.41,0-.4a2.37,2.37,0,0,0,.06.34,4.19,4.19,0,0,1-.06-.5c0,.16,0-.12,0-.1l0-.07a.58.58,0,0,1,0-.25c0,.16,0,.11,0,.18,0-.35.08.37.07.12,0,.14.06.38.08.48,0-.27.06.27.06.05a2.52,2.52,0,0,1-.06-.47l0,.2,0-.4s0,.17,0,.13a2.6,2.6,0,0,0-.05-.39c.08.41,0-.24.06,0l.1.68c.07.29,0-.36.06-.19l0-.12c0-.27,0,0,0-.15a4.33,4.33,0,0,0,.08.45,3.46,3.46,0,0,0,0-.44l.06.29c0,.12-.05-.64,0-.57,0,.24.06.4.07.58,0,0,0,0,0-.12,0,.14,0-.3,0-.09,0-.1,0-.34,0-.32l0,.11c0-.11,0-.15-.05-.4.13.7.08-.06.19.54a.44.44,0,0,1,.05-.18c0,.07,0,.11,0,.09.06.2-.09-.65,0-.42s0,.2,0,.34c.11.74,0-.11.11.32v0c0,.25,0-.28,0-.24v.12a2.52,2.52,0,0,1,0-.62,3.71,3.71,0,0,0,.06.45c0-.05-.08-.48-.07-.56,0,.16.07.29.12.6v0c.07.4,0,0,0,.05l0,.17c0-.06,0-.51,0-.48L10,28c-.05-.45,0,.24,0-.09l.08.45a4.88,4.88,0,0,1,0-.53c0,.33,0,.51.06.71,0,0,0,0,0-.26,0,0,0,.15,0,.08,0-.35,0-.53,0-.53.14.88.1.21.23.89,0-.33.11.12.15.06-.13-.67,0,0-.1-.72,0,0,0,0,0,0l.11.41a2.39,2.39,0,0,1,0,.31,3.59,3.59,0,0,1,.11.48c0-.25-.05-.36,0-.27l-.07-.32c0-.37.13.58.1.21l0,.22c0-.13.07,0,0-.57a2.49,2.49,0,0,1,.06.32c.06.08,0-.61.09-.27l0,.17c0-.05,0-.32,0-.16a.89.89,0,0,0,0,.18c0-.06,0-.3,0-.2l0,.19c.09.22,0-.47,0-.6a3.49,3.49,0,0,0,.19.74V29c.07.05,0-.43,0-.64.13.54.14.21.24.51a4.55,4.55,0,0,1-.07-.45c0,.1,0-.35,0,.11h0c.09.45.09.33.11.34l-.11-.6c.21.86.06-.35.24.43l0-.31.06.32c0,.08.07.12.09,0l0,.23s-.15-.93-.14-.95l.1.48s.16.4.11,0a1.39,1.39,0,0,1,0,.23s.13.3,0-.35c.08.43,0,0,0-.16l.06.32a4.25,4.25,0,0,1-.09-.64s.06.26,0,.18c.05.16-.05-.3,0-.14l0,.2s0-.09,0-.32.06.07.12.35c0-.17-.07-.4,0-.32l0,.2c.08.21,0-.37.06-.07l.05.19s-.06,0-.06,0c.06.29.09.34.16.74,0-.22-.1-.7-.05-.57l0,.1v0s0,0,0,0a.42.42,0,0,1,0,.09c.06.24.06.12.07.13-.07-.32,0-.27-.11-.53a.06.06,0,0,1,0,.06v0l0,0c0-.16,0-.3,0-.13,0-.2-.07-.41-.09-.51l.24.94a2.05,2.05,0,0,0-.05-.73c0-.08.05.17.07.26s0,.05,0,.14a1.4,1.4,0,0,0,0-.49c.06.19.07.39.09.31l0,.13c.2.65-.12-1.08.12-.24l0-.15c.16.36.09-.38.29.2,0,.11,0-.16,0-.36l.08.34-.07-.4c0-.29.24.82.16.27l0-.23s0-.14.07.12c0,0-.05-.24,0-.12l0,.18,0-.31c.06.12.15.7.2.73a6.52,6.52,0,0,0-.1-.65,1.08,1.08,0,0,1-.08-.28V27c-.12-.52-.23-1.06-.34-1.42l0,.33-.07-.26,0,0c-.06-.23,0,0,0,.13,0-.14-.06-.23-.07-.28l.09.51c-.05-.21-.08-.41-.12-.52,0,.23.11.45.13.61-.07-.24-.11-.43-.08-.22,0-.14,0-.23-.05-.29a1.5,1.5,0,0,0,0,.36c-.08-.29,0,.08-.13-.41,0,.12.06.39.06.41-.11-.59-.05,0-.18-.66.1.54,0,.25,0,.55,0,0,0-.13,0-.1s-.06-.2-.09-.3c.09.44.09.55.14.82-.11-.42-.1-.52-.2-.93.08.36.05.36.12.66a5,5,0,0,1-.12-.49c.11.55,0,.1.07.44-.08-.27-.12-.52-.1-.34A2.37,2.37,0,0,1,12.09,25.19Zm-.3,1.06h0v0Zm0,0s0,0,0,0l0,.22Zm.54,2.19s0,0,0-.09v-.08Z"/><path class="cls-2" d="M12.21,28v0l0-.07,0,.1Z"/><path class="cls-2" d="M8.13,28.21h0v0Z"/><polygon class="cls-2" points="11.04 25.77 11.06 25.85 11.05 25.78 11.04 25.77"/><path class="cls-2" d="M7.76,27.13v0Z"/><path class="cls-2" d="M7.65,27.07l0-.11Z"/><path class="cls-2" d="M7.55,26.92l0,.14h0Z"/><path class="cls-2" d="M8.75,26.38h0Z"/><path class="cls-2" d="M8.48,27.18V27S8.46,27,8.48,27.18Z"/><polygon class="cls-2" points="9.1 25.94 9.1 25.94 9.11 25.94 9.1 25.94"/><path class="cls-2" d="M8.49,27c0-.06,0,0,0,0S8.49,27.08,8.49,27Z"/><path class="cls-2" d="M7.2,26.81h0v0Z"/><path class="cls-2" d="M7.2,26.85v0Z"/><path class="cls-2" d="M7.2,27v-.08S7.19,26.88,7.2,27Z"/><path class="cls-2" d="M7.32,27l0-.12Z"/><path class="cls-2" d="M7.34,26.91s0-.25,0-.17v.09C7.29,26.66,7.36,27.11,7.34,26.91Z"/><path class="cls-2" d="M7.64,28.34l0-.09a1.53,1.53,0,0,1,0,.32C7.71,28.94,7.6,28.29,7.64,28.34Z"/><path class="cls-2" d="M7.74,28.51a2.42,2.42,0,0,0,0,.25A.72.72,0,0,0,7.74,28.51Z"/><path class="cls-2" d="M8.36,28.44l0,.29A1.59,1.59,0,0,0,8.36,28.44Z"/><polygon class="cls-2" points="8.28 26.91 8.25 26.73 8.28 27 8.28 26.91"/><polygon class="cls-2" points="8.62 28.99 8.62 29.03 8.62 28.92 8.62 28.99"/><path class="cls-2" d="M9.64,28.74l-.06-.36C9.59,28.44,9.65,28.85,9.64,28.74Z"/><path class="cls-2" d="M10,28.3c0,.18.07.29,0,.12S10,28.25,10,28.3Z"/><polygon class="cls-2" points="11.47 28.65 11.48 28.77 11.48 28.67 11.47 28.65"/><path class="cls-2" d="M26.12,47.3c0,.61,0,1.22,0,1.83a1.13,1.13,0,0,0,.11.55.92.92,0,0,0,.5.37,11.93,11.93,0,0,0,7.6.32,1.05,1.05,0,0,0,.73-.5,1.62,1.62,0,0,0,.11-.69V48a.53.53,0,0,0-.06-.31.33.33,0,0,0-.29-.11L26,47.55"/><path class="cls-2" d="M26,46.85c0,.09,0,.3,0,.26l0-.35Z"/><path class="cls-2" d="M26.22,47.49a2.68,2.68,0,0,0,.07-.77c0,.33-.05.19-.1.58,0,0-.06-.11-.05-.24,0,.09-.05-.07-.07.14s.1.28.16.06A1.62,1.62,0,0,1,26.22,47.49Z"/><path class="cls-2" d="M29.49,48.05l0,0S29.48,48.05,29.49,48.05Z"/><path class="cls-2" d="M31.51,48.26s0,0,0,.07A.14.14,0,0,0,31.51,48.26Z"/><path class="cls-2" d="M31.85,48.64l0,0S31.85,48.66,31.85,48.64Z"/><path class="cls-2" d="M29.49,48.05l.05.11C29.54,48.05,29.51,48.08,29.49,48.05Z"/><path class="cls-2" d="M26.68,46.66l0,.09,0,0Z"/><path class="cls-2" d="M28.59,48.33h0v.14Z"/><path class="cls-2" d="M27.91,48.37s0-.28,0-.4a.71.71,0,0,1,0,.2Z"/><path class="cls-2" d="M26.82,47.85l0,0Z"/><path class="cls-2" d="M29.08,48.39v0Z"/><path class="cls-2" d="M24.75,48.1h0Z"/><polygon class="cls-2" points="26.2 47.3 26.21 47.31 26.38 47.32 26.2 47.3"/><path class="cls-2" d="M32.48,49h0S32.47,49,32.48,49Z"/><path class="cls-2" d="M33.73,49.28c.16.23.11.32.3.57A3.56,3.56,0,0,0,33.73,49.28Z"/><path class="cls-2" d="M26.7,46.7h0S26.7,46.69,26.7,46.7Z"/><path class="cls-2" d="M34,49.85h0l0,0Z"/><path class="cls-2" d="M33.94,48.85v-.13A.72.72,0,0,0,33.94,48.85Z"/><path class="cls-2" d="M32.86,48.43l0,0S32.87,48.43,32.86,48.43Z"/><path class="cls-2" d="M34.51,48.44s0,.07,0,0v0S34.52,48.49,34.51,48.44Z"/><polygon class="cls-2" points="34.96 47.84 34.96 47.84 34.95 47.86 34.96 47.84"/><path class="cls-2" d="M25.4,50.6a1.57,1.57,0,0,1,.18-.19C25.42,50.55,25.27,50.48,25.4,50.6Z"/><path class="cls-2" d="M26.68,46.83a.27.27,0,0,1,0-.13l0,0A.2.2,0,0,0,26.68,46.83Z"/><path class="cls-2" d="M34.55,46.14l.09,0A.11.11,0,0,0,34.55,46.14Z"/><path class="cls-2" d="M30.35,52l0,0S30.34,52.05,30.35,52Z"/><path class="cls-2" d="M35,46.14a.47.47,0,0,0,.15.22.13.13,0,0,0,.05-.07Z"/><path class="cls-2" d="M25.58,50.4h0Z"/><path class="cls-2" d="M24.55,49.81c0,.16.37-.06.59-.11.14.11-.25.18-.42.32.14.08.48,0,.5.07a.47.47,0,0,1-.14.08c.3-.05.17.3.56.16l-.06.07c.14-.13.29-.25.4-.34s.25-.09.07.09c0,0-.09,0-.16.08l.12,0c-.24.28-.15,0-.36.2.18,0,.49-.12.49,0-.24.27-.25,0-.38.26v-.19c-.34.45,0-.09-.41.38.09.23.31,0,.42.23.17-.13.18-.23.34-.36.44-.18-.32.82.16.52.18-.18.41-.57.43-.31l-.23.34c.19.12.35-.48.43-.16-.09.14-.19.07-.18.12,0,.35.17-.17.26-.14l-.1.34c.18,0,.39-.21.56-.22a.85.85,0,0,0-.09.31c.24-.12.4.16.54.41l.15-.28a.31.31,0,0,1,0,.19c.05.13.05-.18.12-.29s0,.18,0,.26c.19-.22.48-.46.56-.12l0,.09c.08.14.23-.59.28-.3l0,.05c.21.18.5-.07.62.41.08-.43.21.22.29-.39.1.32.05.43.23.65.05,0,.1-.38.17-.44l0,.32.1-.33,0,.39.06-.08a.49.49,0,0,1,0-.24c.1-.14.21.24.21.4l.22-.27a.58.58,0,0,1-.07.26c.12-.33,0,.34.13,0a1.13,1.13,0,0,1,0-.26c.05.2.17.2.26.12v.22c.16.06.34-.11.53-.11a.78.78,0,0,1,0-.52l0,.33c0-.21-.06-.12,0-.38.07,0,.07.38,0,.49l.08-.12c0,.1,0,.16,0,.29,0-.22.17.33.2,0v.1c.19,0,.26-.13.41-.16,0-.3,0-.24.06-.48.11.09.26.3.39.26s0-.25,0-.43c0,.26.17.22.13.42.15-.07.19-.08.35-.33a.55.55,0,0,1-.07-.24s.09.1.11.23v0c.13-.43.66.66.72.07v0l.12-.32c.11,0,0,.21.1.35.16-.51.49-.08.61-.42.28.34.46.24.59.11s.23-.3.52-.21l-.15-.12c-.08-.18.14,0,.21,0-.11-.1-.17-.07-.22-.16.24-.52.87-.81,1.09-1.5.06-.26-1-.27-.5-.49l.34.1c-.2-.3-.2-.35-.19-.5a.34.34,0,0,0-.14-.39c.08,0,.19,0,.18,0,.25,0,0-.2-.19-.2,0,0,.19,0,.29,0s-.32-.25-.09-.38c0,0,.09,0,.11.07s-.08-.19-.14-.35-.17-.28-.25-.13a1,1,0,0,0-.56-.64c-.26-.12-.45-.13-.57-.24-.25.29-.35-.17-.36.28,0-.47-.16-.38-.23-.16,0-.14-.05-.15,0-.34-.07,0-.13.09-.12.33-.13-.56-.26.45-.33-.27a2.26,2.26,0,0,1-.57.53c0-.47.2,0,.19-.54-.17.19-.27.6-.44.48s0-.2,0-.28c-.18.19-.34,0-.49.21a.28.28,0,0,1,0-.13s-.07-.07-.07.14l0,0a2.73,2.73,0,0,1-.13.81c.06-.61-.15-.16-.06-.93a.69.69,0,0,0,0,.28s0-.12,0-.28c-.11.11-.08.34-.17.33s0-.14,0-.26c0,.2-.1.4-.19.31s0-.14,0-.14c-.14,0-.24.54-.4.34.05-.45-.05-.15-.06-.54l-.08.12,0,.19c-.07,0-.14.27-.2.15l.05-.16-.14.07.08.15c-.08.2,0,.49-.09.38s-.08,0-.11-.24h0c0,.13-.08.26-.13.16s0-.43,0-.51c0,.32-.17.09-.22.43a1.18,1.18,0,0,0,0-.32l0,.26a.6.6,0,0,1,0-.29c-.1,0,0,.49-.09.28,0,0,0-.06,0-.1s-.24.17-.35,0c0-.4.1-.1.07-.43-.17.07-.34.47-.5.37l0,0c0,.55-.12-.28-.2,0a.81.81,0,0,0,0-.24c-.1-.09-.22.13-.38.3l0-.14c-.06-.12-.17-.07-.24-.14,0,.14-.06.12,0,.33-.21-.81-.41.43-.59-.25,0,0,.05-.12,0-.12l-.16.13a1.35,1.35,0,0,0,.05.33c0,.14-.06.25-.1.25a.92.92,0,0,0,0-.52c0,.08,0,.16,0,.23-.08-.42,0,.49-.13.2v-.13c0,.07-.08.23-.13.2,0-.28.05-.13.05-.36-.06,0-.13.52-.19.25,0-.08.07-.08.1-.16-.06-.33-.07-.24-.12-.29h0L28,46.78l0,.09c-.09.73-.17.13-.28.61.11-.45,0-.26,0-.58a.63.63,0,0,1-.06-.27c-.05.25-.08-.2-.16.17,0-.1-.05,0,0-.27-.07.08,0,.18,0,.31-.11.34-.24-.42-.39,0-.13.2-.16.54-.28.71a.72.72,0,0,1,0-.37c-.07-.15-.12-.13-.18,0a.9.9,0,0,0,0-.28c-.05,0,0,.37-.1.22a3.05,3.05,0,0,1,0-.41c-.06.1-.12.29-.18.38a1.33,1.33,0,0,1,.06-.39.64.64,0,0,0-.2.44l.05.1s0-.24,0-.29c.06-.22.09.1.09.2l0,.07c0,.59.18-.1.26-.06l0,.43.09-.36a1,1,0,0,1,0,.42c.06.22.05-.15.11.09a.15.15,0,0,1,0,.07l.06-.13c0,.09,0,.31,0,.25.1.25.17-.33.21,0v0c.15-.15,0-.32.13-.69l.07.78,0-.32a.24.24,0,0,1,0,.17c.06-.22,0-.14,0-.35.08.29.21-.13.22.38,0-.25-.07-.19,0-.36,0,.55.1-.09.16.16s-.08.13,0,.38c.05-.47.13.11.19,0,0-.38.13-.16.22-.29,0,.13.18.21.27.35v.06c0-.38.11-.3.18-.38a1.2,1.2,0,0,1-.06.42h.06a.39.39,0,0,1,.08-.23l0,.28c.09,0,.18-.33.28-.14,0-.27-.08-.74,0-.92a1.9,1.9,0,0,1,0,.45s0-.12.06-.06l-.05.24c.05.11,0-.2.07-.18a2.41,2.41,0,0,0,0,.31s0-.08-.05,0a.59.59,0,0,1,.11.31c0-.11,0-.27,0-.3s0,.25.07.35c0-.14.07,0,.08-.3,0,0,0,.15,0,.23.05-.14.21,0,.16-.36v0h0c.14-.3.29.18.43.05v.1c.09-.12.19-.07.25-.29,0,0,.06.19.05.31.06-.08.07-.19.16,0-.06.18,0,.16-.06.13.08.09.1.25.19,0,0,.27.06.34.1.26l-.06-.19c.05,0,.09,0,.13,0l0,.34c.17.43.32-.71.44,0,.05-.24-.09-.17,0-.45.08,0,.16.54.18.55.11.19.11-.51.22-.38a1.24,1.24,0,0,1,.06-.57c.08,0,.09.52,0,.62s0,0,0-.07a.26.26,0,0,0,0,.23v-.12c0,.12.14.11.12.32a.25.25,0,0,0,0-.27c.1.18.16,0,.26.13,0-.07,0-.22,0-.22.15.16.07-.23.17-.28.06.18,0,.45.08.29a.78.78,0,0,1,0,.43c.09-.24.17.15.23.2l0,.1c0-.06,0-.06.08-.06l0-.25a.19.19,0,0,1,.05.15,5.06,5.06,0,0,1,0-.63c0,.13.12-.13.13.19-.12-.11,0,.33-.09.39s0,0,.08,0a.2.2,0,0,1,0,.09c.12.29.06-.37.18-.36,0,.18,0,.35.05.31s0-.31,0-.45c.08.14.09-.11.13-.09l0-.07c0-.18.06-.16.11-.22,0,.15-.05.1,0,.17.06-.33.14.33.22.11,0,.13,0,.35,0,.44.09-.24.1.25.2,0a.64.64,0,0,1,0-.43l-.17.18.11-.36s-.1.15-.13.11a.59.59,0,0,0,0-.35c.07.38.14-.21.21,0v.61c.11.28.21-.31.36-.15l0-.11c0-.25.09,0,.14-.13a1.79,1.79,0,0,0,0,.4c0-.15.11,0,.13-.39l.06.27c.12.11.15-.58.26-.51s0,.37-.06.53c0,0,.07,0,.08-.11,0,.13.11-.27.14-.08,0-.09,0-.3.07-.29a.36.36,0,0,1,0,.11c0-.11.07-.14,0-.37.06.32.16.31.22.29l0,0a1.55,1.55,0,0,1,0-.17.28.28,0,0,1,.05-.13s0,0-.06,0l-.16,0-.17,0h.12c.14,0,.28,0,.18.09-.34.06-.18-.06-.31,0-.67,0,.09.15-.3.23l0,0c-.23.06.25.16.2.26h-.1a.84.84,0,0,1,.55.31.94.94,0,0,0-.41,0s.44,0,.51.08a1.62,1.62,0,0,1-.56,0v0c-.37,0,0,.05-.06.07l-.16,0c0,.06.46.13.43.22l.12,0c.41.17-.22,0,.07.13l-.41-.13a1.63,1.63,0,0,1,.45.38c-.29-.19-.44-.32-.61-.41,0,0,0,.08.21.19,0,0-.13-.09-.07-.07.32.18.46.33.42.4-.74-.48-.28,0-.84-.4.18.27-.19,0-.19,0,.36.54,0,0,.32.59,0,0,0,0,0,0a2.43,2.43,0,0,1-.24-.32c-.09-.17,0-.14-.11-.27a1.89,1.89,0,0,1-.19-.4c.09.21.11.31.07.23l.12.27c0,.34-.17-.51-.17-.16V49c0,.13-.23,0-.18.57a.87.87,0,0,1-.07-.29c-.16,0-.24.6-.42.32l0-.16s0,.3-.06.15a.74.74,0,0,0,0-.16s0,.28-.09.19v-.17c-.19-.19-.18.45-.31.58,0-.46-.19-.6-.26-.66v-.07c-.18,0-.27.41-.43.6-.13-.49-.37-.2-.54-.47a.87.87,0,0,1,0,.4c0-.09-.12.32-.11-.1h0c0-.42-.11-.31-.17-.32l0,.55c-.14-.8-.46.27-.51-.45-.05.14-.1.13-.15.26l0-.29c-.1-.09-.15-.13-.29-.07l.05-.21c-.07,0-.19.84-.27.84l0-.43c-.14,0-.21-.42-.4,0a.67.67,0,0,1,.06-.21c-.06,0-.18-.33-.27.26.07-.38-.13-.06-.24.1l.07-.28c-.14.35-.16.44-.27.52s0-.23,0-.15c0-.16-.11.26-.16.09l.07-.18c-.06,0-.08.06-.17.27s-.12-.11-.07-.36c0,.15-.14.34-.16.26a.46.46,0,0,1,.07-.18c-.07-.22-.27.28-.27,0a1,1,0,0,0,0-.17c.09,0,.16.07.15.09a2.65,2.65,0,0,1,.16-.67c-.1.18-.33.58-.36.43v-.09l0,0s0,0-.06,0,0-.08,0-.09c.05-.22-.05-.14-.08-.16-.09.28-.12.22-.15.46,0,0,0,0,.05,0l0,0v0h.1c-.07.13-.14.24-.13.07l-.2.43a3.75,3.75,0,0,1,.15-.87,5.41,5.41,0,0,0-.47.53c-.07,0,.06-.15.1-.22a.31.31,0,0,0,.1-.1c-.11.11-.12,0-.4.32.07-.17.27-.27.16-.25l.1-.09c.17-.27,0-.09-.27,0s-.49.13-.12-.16l-.13.09c.14-.19.06-.23,0-.33s-.09-.2.19-.35c.11-.08-.14-.09-.32-.13l.31,0-.36-.08c-.27-.13.77-.22.26-.38l-.21,0c0-.06-.12-.18.12-.17,0,0-.22,0-.11,0h.16l-.28-.15c.12-.1.65,0,.68-.12a1.39,1.39,0,0,0-.59-.16s-.1,0-.26,0l-.09-.06a3.76,3.76,0,0,0-1.32,0l.3.11-.24,0v-.08c-.22,0,0,.08.11.11a1,1,0,0,0-.26,0l.46.1c-.19,0-.37,0-.48,0,.22,0,.43,0,.57,0-.22,0-.4,0-.21.08a.61.61,0,0,1-.26,0c.15,0,.06.13.32.16-.27,0,.07.16-.39.16.11,0,.37.08.39.13-.55-.08,0,.17-.62.16.49.06.22.2.49.33,0,0-.12,0-.09,0s-.19.14-.28.21a2.5,2.5,0,0,1,.75.14c-.39.17-.48,0-.85.1.32-.06.33.16.6.06a1.48,1.48,0,0,1-.44.23c.51-.11.1.07.41,0-.22.2-.46.19-.28.28A.34.34,0,0,1,24.55,49.81Zm2.91,1.3Zm.18,0s-.05,0-.08,0,.06-.2.08-.19A.41.41,0,0,0,27.64,51.15Zm.22-2s0,0,0,.09a.06.06,0,0,0-.05,0l0,0Z"/><path class="cls-2" d="M27.71,49.46h0v.07l0-.08Z"/><path class="cls-2" d="M29.46,48h0v0Z"/><polygon class="cls-2" points="30.12 52.15 30.13 52.07 30.11 52.13 30.12 52.15"/><path class="cls-2" d="M28.51,47s0-.05,0-.07A.2.2,0,0,0,28.51,47Z"/><path class="cls-2" d="M28.09,46.93,28,46.82A.61.61,0,0,0,28.09,46.93Z"/><path class="cls-2" d="M27.78,46.78v.12h0Z"/><path class="cls-2" d="M32.85,46.47h0C32.89,46.4,32.87,46.42,32.85,46.47Z"/><path class="cls-2" d="M31.34,47.14a.39.39,0,0,1,.05-.13S31.34,47,31.34,47.14Z"/><polygon class="cls-2" points="34.54 46.13 34.54 46.14 34.55 46.14 34.54 46.13"/><path class="cls-2" d="M31.46,47c0-.06-.05,0-.07,0S31.43,47.06,31.46,47Z"/><path class="cls-2" d="M26.39,46.64v0Z"/><path class="cls-2" d="M26.38,46.67l0,0S26.37,46.7,26.38,46.67Z"/><path class="cls-2" d="M26.32,46.78l0-.08S26.33,46.69,26.32,46.78Z"/><path class="cls-2" d="M26.82,46.77v0Z"/><path class="cls-2" d="M26.94,46.74s-.07-.22-.11-.16v.09C26.84,46.51,26.91,46.92,26.94,46.74Z"/><path class="cls-2" d="M27.47,48.06,27.36,48c0,.12,0,.27,0,.3C27.49,48.6,27.33,48,27.47,48.06Z"/><path class="cls-2" d="M27.8,48.23c-.06.05,0,.16,0,.22A.22.22,0,0,0,27.8,48.23Z"/><path class="cls-2" d="M30.21,48.24v.27C30.25,48.47,30.21,48.41,30.21,48.24Z"/><polygon class="cls-2" points="30.68 46.87 30.64 46.7 30.62 46.95 30.68 46.87"/><polygon class="cls-2" points="30.94 48.77 30.92 48.81 31 48.71 30.94 48.77"/><path class="cls-2" d="M34.91,48v0C34.89,48.11,34.88,48.12,34.91,48Z"/><path class="cls-2" d="M34.43,49.09c-.17,0-.27-.05-.11,0S34.47,49.11,34.43,49.09Z"/><polygon class="cls-2" points="30.72 49.54 30.75 49.43 30.69 49.52 30.72 49.54"/><path class="cls-2" d="M28.84,50.87V53.2a.52.52,0,0,0,0,.28c.06.11.19.12.29.13a23.37,23.37,0,0,0,3.55-.11.52.52,0,0,0,.47-.23.73.73,0,0,0,.08-.33c0-.48.05-1,.05-1.44a1.28,1.28,0,0,0-.16-.76.85.85,0,0,0-.61-.28,20.78,20.78,0,0,0-3.16-.1c-.26,0-.59.06-.67.37"/><path class="cls-2" d="M28.07,50.56c.09,0,.28.08.26,0L28,50.45Z"/><path class="cls-2" d="M28.75,50.57a4.32,4.32,0,0,0-.59-.51c.23.25.1.19.41.44,0,0-.12,0-.23-.06.07.05-.1,0,.09.13s.28,0,.13-.12A1.57,1.57,0,0,1,28.75,50.57Z"/><path class="cls-2" d="M30.75,50.83v0S30.74,50.82,30.75,50.83Z"/><path class="cls-2" d="M31.86,51.06a.15.15,0,0,0,0,.08A.24.24,0,0,0,31.86,51.06Z"/><path class="cls-2" d="M31.86,51.45v0S31.85,51.47,31.86,51.45Z"/><path class="cls-2" d="M30.75,50.83l0,.11C30.78,50.83,30.76,50.85,30.75,50.83Z"/><path class="cls-2" d="M28.66,49.61a.17.17,0,0,0,0,.1l0-.05Z"/><path class="cls-2" d="M30.2,51.11h0v0Z"/><path class="cls-2" d="M29.78,51.17a3.91,3.91,0,0,0,0-.41c0,.12,0,.18,0,.2Z"/><path class="cls-2" d="M29.18,50.68v0Z"/><path class="cls-2" d="M30.5,51.17v0Z"/><path class="cls-2" d="M27.47,51.36h0Z"/><polygon class="cls-2" points="28.92 50.87 28.93 50.87 29.1 50.87 28.92 50.87"/><path class="cls-2" d="M31.79,51.82h0S31.77,51.84,31.79,51.82Z"/><path class="cls-2" d="M32,52.35c.21.24.21.32.46.58C32.38,52.83,32.14,52.5,32,52.35Z"/><path class="cls-2" d="M28.7,49.64l0,0S28.71,49.62,28.7,49.64Z"/><path class="cls-2" d="M32.46,52.93h0l0,0Z"/><path class="cls-2" d="M32.06,51.78l.13-.08Z"/><path class="cls-2" d="M32.24,51.28l0,0Z"/><path class="cls-2" d="M32.49,51.69s-.06,0,0,0l0,0S32.45,51.71,32.49,51.69Z"/><path class="cls-2" d="M32.49,51.87h0Z"/><path class="cls-2" d="M27.61,52.85l.27-.11C27.67,52.81,27.59,52.74,27.61,52.85Z"/><path class="cls-2" d="M28.73,49.76a.27.27,0,0,1,0-.12l0,0A.46.46,0,0,0,28.73,49.76Z"/><path class="cls-2" d="M34.74,50.74l0,.11A.15.15,0,0,0,34.74,50.74Z"/><path class="cls-2" d="M30.39,54.82l0,0S30.39,54.86,30.39,54.82Z"/><path class="cls-2" d="M34.8,51.14l-.2.11h.08Z"/><path class="cls-2" d="M27.88,52.74Z"/><path class="cls-2" d="M27.18,52.19c0,.11.38,0,.6,0s-.28.08-.48.14c.1.07.45.07.44.12a.74.74,0,0,1-.17,0c.31,0,0,.23.4.2l-.09,0,.53-.17s.24,0,0,.07c0,0-.1,0-.18,0h.11c-.36.15-.12,0-.39.07.12,0,.42,0,.32.11-.36.15-.12-.09-.44.1l.14-.14c-.56.27,0-.07-.56.2-.1.19.18.1.08.27.2-.05.29-.13.49-.19.36,0-.86.57-.38.47.24-.09.66-.33.45-.12l-.38.2c0,.13.55-.27.33,0-.15.08-.15,0-.19,0-.27.26.23-.08.24,0l-.32.22c.1.08.35,0,.45.08a1,1,0,0,0-.26.21c.2,0,.19.32.18.56l.26-.2a.52.52,0,0,1-.12.16c0,.12.13-.16.23-.24s-.08.16-.16.23c.28-.16.62-.38.53-.06l-.07.08c0,.14.45-.56.37-.28l-.05.05c.13.16.46-.11.46.36.17-.44.16.2.35-.41,0,.3,0,.41.13.62.05,0,.13-.38.2-.45l0,.32.11-.33,0,.38.06-.08a.49.49,0,0,1,0-.24c.09-.14.2.22.21.39.05-.09.08-.18.13-.27a.82.82,0,0,1,0,.25c.07-.33,0,.34.08,0a2.26,2.26,0,0,1,0-.26c0,.2.11.2.16.11v.22c.1.06.21-.11.32-.11a1.17,1.17,0,0,1,0-.52l0,.34c0-.21,0-.13,0-.39a1.33,1.33,0,0,1,0,.5l.05-.12c0,.1,0,.15,0,.28,0-.21.1.34.12,0v.1c.11,0,.15-.12.24-.14a2.23,2.23,0,0,1,0-.47c.09.09.12.32.27.29s0-.25,0-.43c0,.27.16.23.12.43.15-.06.2-.07.32-.3a1,1,0,0,1-.1-.24s.1.11.14.23v0c0-.21.2,0,.39.13s.38.27.33,0v0a1.61,1.61,0,0,0,0-.31c.1,0,.07.2.21.33-.08-.44.31,0,.25-.35.61.58.28-.24.74,0l-.15-.12c-.11-.16.11,0,.17,0-.12-.09-.16-.07-.22-.16a.42.42,0,0,1,.16-.3c.17-.13.48-.21.63-.44s-.92-.47-.47-.46l.33.17a.67.67,0,0,1-.16-.58c0-.17,0-.37-.13-.43.08,0,.18,0,.18,0,.25,0,0-.14-.19-.17,0-.06.19,0,.29,0s-.31-.18-.06-.24c0,0,.08,0,.1,0s0-.24-.25-.14c.13-.13-.13-.16,0-.28-.32,0,.14-.22-.31-.08.47-.15.35-.31.13-.28.14,0,.13-.11.32-.17,0-.07-.12-.09-.35,0,.49-.39-.47,0,.15-.44a6.42,6.42,0,0,1-.71-.15c.36-.31.14.12.53-.19-.26,0-.62.17-.65,0s.16-.13.23-.18c-.26,0-.23-.23-.52-.09a.31.31,0,0,1,.11-.09s0-.09-.15.09l.06,0a4.9,4.9,0,0,1-.58.64c.4-.5,0-.16.48-.81a.77.77,0,0,0-.19.24s0-.12.15-.26c-.16.07-.25.28-.33.26a1.7,1.7,0,0,1,.17-.23c-.16.17-.3.34-.32.25s.06-.14.08-.13c-.15,0-.44.47-.48.26.19-.42,0-.15.12-.52l-.12.1,0,.19c-.06,0-.19.25-.21.12l.08-.15-.14.06,0,.15c-.11.2-.11.49-.15.38s0,0,0-.24h0c0,.12-.09.24-.12.15s0-.43,0-.51c-.07.32-.15.08-.2.42a2.12,2.12,0,0,0,0-.33l0,.27a.85.85,0,0,1,0-.29c-.06-.05,0,.49-.07.27,0,0,0-.06,0-.1s-.16.16-.23,0c0-.39.07-.09.06-.42-.11.06-.23.46-.33.36l0,0c0,.55-.07-.28-.13,0,0,0,0-.31,0-.24-.07-.09-.15.13-.25.3v-.14c0-.13-.1-.07-.15-.14a1.42,1.42,0,0,0,0,.32c-.13-.8-.26.44-.37-.24a.25.25,0,0,0,0-.12l-.1.13a2.34,2.34,0,0,0,0,.33c0,.15,0,.26-.06.26a1.49,1.49,0,0,0,0-.52V50c-.06-.43,0,.48-.08.19v-.12c0,.06,0,.23-.08.19,0-.27,0-.13,0-.36,0,0-.07.53-.11.26,0-.08,0-.08.05-.16,0-.33,0-.24-.07-.3h0l-.07-.15,0,.09c0,.73-.1.14-.17.61a1.83,1.83,0,0,0,0-.57.9.9,0,0,1,0-.28c0,.26-.06-.2-.1.18,0-.11,0,0,0-.27,0,.08,0,.18,0,.31s-.06.07-.11,0-.13-.16-.18.08a2.77,2.77,0,0,0-.09.74,1,1,0,0,1-.07-.37c-.09-.13-.14-.09-.15,0a.63.63,0,0,0-.12-.25s.12.35,0,.25a1.87,1.87,0,0,1-.13-.4,1.63,1.63,0,0,0,0,.44.68.68,0,0,1-.15-.36.41.41,0,0,0,.07.51l.1,0s-.18-.16-.2-.22c-.08-.22.16,0,.22.09v.07c.21.22.2.19.19.09s-.05-.27,0-.27a3.39,3.39,0,0,0,.15.41,2.33,2.33,0,0,1-.08-.36,1.6,1.6,0,0,1,.14.4c.09.19,0-.16.07.06l0,.07v-.13c0,.09.07.3,0,.24.08.24,0-.33.08,0v0c.05-.15,0-.32,0-.7,0,.26.06.52.08.78v-.31s0,0,0,.16c0-.22,0-.14,0-.35,0,.29.13-.13.14.37,0-.24,0-.18,0-.35,0,.54.06-.1.1.15s-.05.14,0,.39c0-.48.08.1.12,0,0-.38.07-.16.13-.29,0,.13.11.21.17.35v.06c0-.38.06-.31.1-.39a1.44,1.44,0,0,1,0,.42h0a.49.49,0,0,1,0-.23v.28c.05,0,.1-.33.17-.14a4,4,0,0,1,0-.92,2.09,2.09,0,0,1,0,.45s0-.12,0-.06l0,.24c0,.11,0-.2,0-.18,0,.21,0,.15,0,.31s0-.08,0,0a.69.69,0,0,1,.07.31,1.07,1.07,0,0,1,0-.3c.05,0,0,.24.05.35,0-.14,0,0,0-.3,0,0,0,.14,0,.23,0-.14.12,0,.09-.37v0h0c.09-.31.18.17.27,0v.11c.06-.12.12-.07.16-.29a.79.79,0,0,1,0,.31c0-.08,0-.19.1,0s0,.16,0,.13.05.26.11,0c0,.26,0,.33.05.25l0-.19s.05,0,.07,0l0,.35c.08.42.22-.71.26,0,0-.24-.05-.17,0-.45.06.05,0,.54,0,.54,0,.2.09-.5.12-.36a2.08,2.08,0,0,1,.13-.56,1.88,1.88,0,0,1-.11.61s0,0,0-.07a.68.68,0,0,0-.06.22l0-.12a1.6,1.6,0,0,1,0,.32.89.89,0,0,0,.06-.27c0,.18,0,0,0,.13a1,1,0,0,1,.07-.2c0,.15.1-.23.17-.28-.06.19-.19.44-.09.29a3.89,3.89,0,0,1-.19.41c.13-.23,0,.16-.06.2l-.06.09s0,0,0,0l.12-.24a.81.81,0,0,1-.07.14c.09-.15.21-.39.35-.6-.06.12.12-.12-.07.19,0-.11-.19.31-.24.36s0,0,0,0l-.05.08c-.17.28.22-.35.25-.34-.12.17-.22.33-.2.29s.2-.29.31-.41c-.08.13.09-.1.09-.08l0-.07c.13-.16.13-.14.19-.18-.1.13-.09.08-.13.14.27-.29-.2.32,0,.14l-.34.38c.22-.2-.2.23,0,.06s.16-.16.38-.35l-.18.12.33-.28s-.16.11-.13.07a2.72,2.72,0,0,0,.29-.3c-.29.33.24-.15,0,.09l-.55.5c-.23.23.33-.21.2-.05l.1-.09c.23-.17,0,0,.14-.05l-.39.29c.15-.1,0,0,.4-.22l-.27.18c-.11.09.59-.28.53-.18-.23.09-.37.18-.53.24s0,0,.1,0c-.13.06.28-.1.09,0,.09,0,.3-.12.29-.09l-.1,0a2.07,2.07,0,0,0,.37-.13c-.65.29,0,.16-.52.35a.41.41,0,0,1,.15,0c-.06,0-.1,0-.08,0-.19,0,.59,0,.37,0s-.17,0-.3,0c-.68,0,.09.06-.31.11h0c-.23,0,.26.08.21.09h-.1a1,1,0,0,1,.54.2l-.4-.12a3.42,3.42,0,0,1,.5.18,3.14,3.14,0,0,1-.55-.15l0,0c-.37-.12,0,0-.05,0l-.16-.07c0,.05.45.23.42.28l.12.05c.4.23-.22-.09.07.1l-.4-.21a3.39,3.39,0,0,1,.46.39c-.3-.22-.45-.35-.63-.46,0,0,0,.06.23.19,0,0-.14-.1-.07-.07.31.22.46.36.45.41l-.34-.23c-.24-.16,0,.1-.47-.27.25.28-.16-.05-.15,0a7.37,7.37,0,0,1,.5.61s0,0,0,0-.22-.23-.32-.35a2.89,2.89,0,0,0-.19-.27,5.11,5.11,0,0,1-.31-.41c.16.21.22.3.15.22l.21.28c.17.33-.36-.51-.17-.18l-.11-.2c.06.12,0,0,.21.5,0-.07-.11-.24-.13-.29s.12.54,0,.23l0-.15s.06.29,0,.14l0-.17c0,.06,0,.27,0,.18l0-.17c-.06-.2,0,.43-.06.54a1.34,1.34,0,0,0-.16-.67V52.1c-.12-.05-.18.39-.28.57-.09-.49-.24-.19-.36-.47a1.72,1.72,0,0,1,0,.4c0-.09-.07.32-.08-.1h0c0-.41-.07-.3-.12-.31v.55c-.07-.4-.15-.33-.15-.24s-.07.18,0-.18c0,.14,0,.13-.07.27l.05-.29c0-.08,0-.12,0-.05l.07-.21a8.85,8.85,0,0,1-.33.87l.16-.44s.13-.38-.1,0l.12-.21s.15-.3-.22.3c.24-.39,0,0-.16.13l.21-.28a3.62,3.62,0,0,1-.47.56s.17-.23.13-.15c.09-.15-.24.27-.15.11l.16-.18s-.08.08-.28.29,0-.09.23-.35c-.14.16-.35.36-.3.27l.18-.17c.16-.21-.37.25-.1,0l.17-.16s0,.07,0,.09c.25-.25.29-.3.65-.63-.19.19-.64.54-.51.41l.09-.08,0,0s0,0,0,0l.08-.08c.22-.17.12-.1.13-.12l-.48.36,0,0,0,0,0,0h0c-.15.11-.28.19-.11,0l-.48.33c.41-.33.63-.51.88-.68-.16.08-.1,0-.65.28-.07,0,.15-.1.24-.15l.13,0a1.33,1.33,0,0,0-.44.12c.17-.11.35-.13.29-.15l.12,0c.3-.16.06-.08-.17,0s-.42,0,0-.12l-.13,0c.17-.09.09-.13,0-.2s-.08-.19.19-.29c.11,0-.13-.06-.32-.09h.32l-.37-.06c-.26-.08.77-.14.27-.24H29.3s-.12-.11.12-.1c0,0-.22,0-.11,0h.16l-.28-.09c.12-.07.65,0,.69-.09a1.83,1.83,0,0,0-.59-.09,1,1,0,0,1-.27,0l-.09,0a6,6,0,0,0-1.32.06l.3,0-.23,0,0,0c-.22,0,0,0,.11.07l-.26,0,.46.06a3.5,3.5,0,0,0-.48,0c.22,0,.43,0,.57,0-.22,0-.4,0-.21.06l-.26,0c.15,0,.06.08.32.09-.27,0,.07.1-.39.1a1.29,1.29,0,0,1,.38.08c-.55,0,0,.1-.62.09.49,0,.22.13.49.19h-.09a2.26,2.26,0,0,1-.28.07,3.92,3.92,0,0,1,.75.09c-.39,0-.48,0-.86,0,.33,0,.33.07.61.06l-.46.06c.51,0,.09.05.4.09-.25.09-.48,0-.32.13A.47.47,0,0,1,27.18,52.19Zm1.06,1.68h0l0,0Zm.07.12a.14.14,0,0,0,0-.06c.07-.07.15-.14.16-.12A.54.54,0,0,0,28.31,54Zm1.79-1.71-.08.06,0,0,0,0Z"/><path class="cls-2" d="M29.71,52.56h0l-.06,0,.09-.06Z"/><path class="cls-2" d="M30.73,50.78h0v0Z"/><polygon class="cls-2" points="30.17 54.97 30.18 54.89 30.16 54.96 30.17 54.97"/><path class="cls-2" d="M30.14,49.78s0-.06,0-.08Z"/><path class="cls-2" d="M29.88,49.71l0-.1A.19.19,0,0,0,29.88,49.71Z"/><path class="cls-2" d="M29.67,49.57v.13h0Z"/><path class="cls-2" d="M33.53,49.6h0C33.6,49.56,33.57,49.57,33.53,49.6Z"/><path class="cls-2" d="M32,50a1,1,0,0,1,.06-.14S32,49.79,32,50Z"/><polygon class="cls-2" points="34.74 50.72 34.74 50.72 34.74 50.73 34.74 50.72"/><path class="cls-2" d="M32.08,49.83c0-.06,0,0,0,0S32.06,49.88,32.08,49.83Z"/><path class="cls-2" d="M28.24,49.86h0l0,0Z"/><path class="cls-2" d="M28.24,49.9V50S28.26,49.93,28.24,49.9Z"/><path class="cls-2" d="M28.25,50.05V50S28.2,50,28.25,50.05Z"/><path class="cls-2" d="M28.87,49.65l0-.1A.84.84,0,0,0,28.87,49.65Z"/><path class="cls-2" d="M29,49.59s-.14-.2-.18-.12l0,.08C28.84,49.39,29,49.77,29,49.59Z"/><path class="cls-2" d="M29.51,50.86l-.07-.09c0,.12,0,.27,0,.3C29.53,51.4,29.42,50.81,29.51,50.86Z"/><path class="cls-2" d="M29.72,51s0,.16,0,.23A.36.36,0,0,0,29.72,51Z"/><path class="cls-2" d="M31.18,51v.27S31.18,51.19,31.18,51Z"/><polygon class="cls-2" points="31.52 49.66 31.5 49.49 31.48 49.74 31.52 49.66"/><polygon class="cls-2" points="31.59 51.56 31.58 51.6 31.63 51.51 31.59 51.56"/><path class="cls-2" d="M32.23,51.91l.33-.09C32.51,51.82,32.13,51.92,32.23,51.91Z"/><path class="cls-2" d="M32.55,52.34c-.16-.07-.27-.11-.11,0S32.59,52.37,32.55,52.34Z"/><polygon class="cls-2" points="30.6 52.34 30.62 52.23 30.58 52.32 30.6 52.34"/><path class="cls-3" d="M29.63,45.62s.14,0,.11,0h-.17Z"/><path class="cls-3" d="M29.88,45.35a.62.62,0,0,0-.37,0,2.53,2.53,0,0,0,.29,0s0,.07-.1.08,0,.05.08.05.11-.12,0-.15A.18.18,0,0,1,29.88,45.35Z"/><path class="cls-3" d="M29.52,42.32l0,0Z"/><path class="cls-3" d="M29.23,40.46h0S29.24,40.45,29.23,40.46Z"/><path class="cls-3" d="M29.34,40.1v0S29.35,40.11,29.34,40.1Z"/><path class="cls-3" d="M29.52,42.32l0-.06S29.53,42.29,29.52,42.32Z"/><path class="cls-3" d="M29.41,45h.05l0,0Z"/><path class="cls-3" d="M29.82,43.1h0Z"/><path class="cls-3" d="M30,43.72s-.13,0-.19,0h.1Z"/><path class="cls-3" d="M29.94,44.76h0Z"/><path class="cls-3" d="M29.75,42.65l.05,0Z"/><path class="cls-3" d="M25.1,25.43h0Z"/><polygon class="cls-3" points="25.64 24.59 25.65 24.59 25.73 24.58 25.64 24.59"/><path class="cls-3" d="M29.39,39.49Z"/><path class="cls-3" d="M28.2,34.24c-.11.09-.18-.06-.3,0C28,34.27,28.13,34.33,28.2,34.24Z"/><path class="cls-3" d="M29.42,45v0Z"/><polygon class="cls-3" points="27.9 34.29 27.9 34.29 27.89 34.3 27.9 34.29"/><path class="cls-3" d="M29,38.19l-.06,0Z"/><path class="cls-3" d="M29.05,39.21v0Z"/><path class="cls-3" d="M28.74,37.72s0,0,0,0h0S28.76,37.7,28.74,37.72Z"/><polygon class="cls-3" points="28.63 37.18 28.6 37.2 28.61 37.21 28.63 37.18"/><path class="cls-3" d="M25.51,27l.12-.05C25.53,27,25.48,27,25.51,27Z"/><path class="cls-3" d="M29.49,45h0Z"/><path class="cls-3" d="M27.65,37.93v-.09A.14.14,0,0,0,27.65,37.93Z"/><path class="cls-3" d="M26.32,30.87h0S26.3,30.87,26.32,30.87Z"/><path class="cls-3" d="M27.58,37.59a.3.3,0,0,0,.08-.07h0Z"/><path class="cls-3" d="M25.63,27Z"/><path class="cls-3" d="M25.18,26.49c0,.09.19,0,.3,0s-.13.07-.21.12.23.06.23.11a.12.12,0,0,1-.07,0c.15,0,0,.18.24.23h0a1.48,1.48,0,0,1,.24,0s.13,0,0,.08-.05,0-.09,0l.06,0c-.17.06-.07,0-.2,0,.07.06.23.12.19.19s-.08-.12-.21,0l0-.1c-.25.12,0-.06-.26.06,0,.12.11.11.09.24s.13,0,.23,0-.39.21-.14.29.33,0,.24.09h-.2c0,.12.28,0,.18.16-.08,0-.08-.08-.1-.06s.12,0,.13.09l-.16,0c0,.11.2.22.25.35s-.1,0-.15,0a.53.53,0,0,1,0,.53l.16,0a.11.11,0,0,1-.09,0c-.05.07.09,0,.15,0s-.07.06-.12.05c.14.09.33.26.2.41h0c0,.1.32,0,.2.15h0c0,.21.16.4,0,.59.21,0-.05.22.24.17-.12.14-.18.12-.24.3s.19,0,.23.07l-.15,0,.18,0-.18.07.05.05a.12.12,0,0,1,.1-.06c.09.06-.06.2-.14.22l.17.16a.29.29,0,0,1-.14,0c.18.07-.15.05,0,.11s.09,0,.12,0a.15.15,0,0,0,0,.22H26.3c0,.14.11.27.14.43,0-.07.22-.09.25,0l-.16,0c.11,0,0-.06.19,0s-.18.07-.23.05l.06.05s-.07,0-.13,0c.1,0-.14.15,0,.16h0c0,.15.1.21.13.33s.12,0,.24,0-.12.22-.08.32.12,0,.21,0c-.13,0-.09.14-.19.1a.59.59,0,0,0,.19.31s.07-.06.11-.06,0,.08-.1.09h0c.22.14-.28.5,0,.59h0l.17.12c0,.08-.11,0-.17,0,.24.12,0,.26.19.37-.35.18.1.37-.11.56l.09,0c.09,0,0,.06-.06.09s.07-.06.13,0c.17.29,0,.67,0,1,0,.12.46,0,.29.16h-.17c.24.2.09.48.3.68,0,0-.09,0-.09,0s0,.18.13.16-.09,0-.13.06.17.09.06.14a0,0,0,0,1-.05,0c.06,0,0,.15.14.09,0,.1.1.15,0,.24.16,0,0,.16.18.13-.22,0-.15.19,0,.22-.07,0-.06.07-.16.06s.07.11.18.08c-.24.17.26.18-.06.32a2.81,2.81,0,0,1,.36.47c-.23,0-.06-.18-.29-.12.12.14.33.19.31.36s-.1,0-.14,0c.12.14,0,.31.19.42,0,0-.05,0-.07,0s0,.08.08,0l0,0c.14-.08.33,0,.4,0-.29,0,0,.16-.42.16a.21.21,0,0,0,.14,0s-.05.05-.13,0c.08.08.17,0,.19.11s-.07,0-.13,0c.11,0,.21,0,.18.14s-.06,0-.07,0,.3.16.24.32c-.22,0-.06.07-.24.12l.07.06.08-.05c0,.07.16.1.11.17l-.09,0,.07.12.05-.09c.11,0,.23-.06.2,0s0,.07-.09.13h0c.06,0,.13,0,.1.1s-.21,0-.24,0c.15,0,.07.15.24.15l-.15,0h.13a.18.18,0,0,1-.13.06c0,.1.22-.08.15,0h-.06c0,.12.13.2.09.31s-.07-.08-.21,0c.06.14.28.26.27.41v0c.26,0-.1.14,0,.18a.31.31,0,0,0-.12,0c0,.11.11.19.22.32H29c-.05.07,0,.16,0,.23s.07,0,.16,0c-.34.28.28.32,0,.56,0,0-.07,0-.07,0l.1.13c.11,0,.06,0,.14-.09s.13,0,.14.07-.18,0-.24.09l.11,0c-.18.12.23,0,.12.1h-.06s.12.05.11.09-.07,0-.18,0,.27.06.16.14,0,0-.09-.07-.11.09-.12.14h0l-.05.12,0,0c.35,0,.09.13.34.18-.23,0-.13,0-.28,0s-.07.08-.12.08c.13,0-.07.1.11.13,0,0,0,.05-.11.06,0,.06.08,0,.14,0s-.15.27.1.35.28.08.38.17a.19.19,0,0,1-.18,0c-.06.08,0,.12,0,.16a.24.24,0,0,0-.12,0s.18,0,.12.06h-.2a1.43,1.43,0,0,0,.21.12.3.3,0,0,1-.19,0,.27.27,0,0,0,.24.13l0-.05s-.11,0-.14,0,0-.09.08-.1l0,0c.27-.11-.07-.15-.07-.23h.21l-.19,0c.05,0,.16-.07.2,0s-.08,0,0-.11h0l-.08,0c.05,0,.14,0,.12,0,.1-.13-.18-.13,0-.2h0c-.1-.12-.15,0-.35,0l.35-.16-.15,0s0,0,.07-.05c-.11,0-.06,0-.16,0,.12-.09-.11-.17.13-.24-.12,0-.08.09-.17,0,.25-.08-.06-.07,0-.16s.08.07.19,0c-.23,0,0-.13,0-.18s-.1-.09-.18-.17.06-.18.11-.28h0c-.18,0-.16-.07-.21-.12a.33.33,0,0,1,.2,0v-.06a.15.15,0,0,1-.12,0l.14,0c0-.07-.19-.11-.12-.23-.13,0-.34.15-.44.07.07,0,.18,0,.21,0s-.06,0,0,0h.12s-.1,0-.1,0,.06,0,.14,0,0,0,0,0a.25.25,0,0,1,.12-.13c-.05,0-.12,0-.14,0s.11,0,.15-.11,0-.07-.16,0,.06,0,.1,0-.06-.18-.2-.11v0h0c-.17-.09,0-.28-.07-.4h0c-.07-.06-.07-.16-.18-.19s.08-.08.13-.08-.1-.05,0-.15.07,0,.08,0c0-.09.1-.12-.05-.17.13,0,.14-.1.1-.12l-.08.07s0-.07,0-.11l.17,0c.16-.2-.4-.21-.09-.4-.12,0-.06.11-.21.1,0-.08.23-.2.23-.23s-.26,0-.22-.15-.21.07-.28,0,.23-.15.28-.11,0,0,0,0a.09.09,0,0,0,.12,0h-.06c.05,0,0-.15.12-.15-.06,0-.1,0-.12.05.07-.11,0-.15,0-.25s-.09,0-.1,0-.12,0-.16-.12.21,0,.12-.11.15,0,.2,0c-.13-.06,0-.18.05-.23l.06,0s0,0,0-.06l-.11,0s0-.06,0-.07-.18.07-.3,0c0,0-.08-.09.07-.14,0,.13.15,0,.19.05a.06.06,0,0,1,0-.07s0,0,0,0-.18,0-.2-.12.16-.06.14-.08-.14.06-.22,0-.06-.07-.06-.11l0,0c-.09,0-.08,0-.12-.07s.06,0,.08,0c-.16,0,.13-.16,0-.22.05,0,.16,0,.19-.07-.13-.07.1-.12,0-.19s-.08.05-.21,0l.11.13-.19-.06c0,.05.1.08.08.11s-.07,0-.16,0c.16-.1-.13-.1,0-.2l.29-.06c.11-.13-.19-.16-.14-.31l0,0c-.12,0,0-.08-.09-.11a.6.6,0,0,0,.18-.09c-.07,0,0-.1-.21-.07l.11-.09c0-.12-.3-.07-.29-.18s.17-.06.26,0,0-.07-.06-.06-.15-.07-.06-.12-.15,0-.15,0h.05c-.05,0-.08,0-.18,0,.28-.17-.09-.3.15-.45a.85.85,0,0,1-.12-.23s.05,0,0,0-.29,0-.21-.14.09,0,.15,0c.31-.08-.08-.12.09-.24l0,0c.09-.08-.15-.12-.15-.21h.05a.47.47,0,0,1-.32-.22c.13,0,.08,0,.2,0,0,0-.2.05-.25,0a.71.71,0,0,1,.24-.15l0,.08c.17-.08,0-.1,0-.15h.07c0-.11-.24-.07-.25-.2l-.05,0c-.21,0,.09-.08-.06-.12l.18-.06c-.05,0-.22-.12-.27-.2a1.09,1.09,0,0,1,.34.14s0-.15-.14-.15.07,0,0,0-.26-.08-.27-.17c.38-.06,0-.25.32-.38-.17-.13,0-.32-.06-.5-.28.12,0-.05-.32,0,0,0,0-.06,0-.07l.15-.16c.08-.05.08,0,.14,0s.12-.07.19-.15c-.1,0-.16,0-.13-.06l-.12.1c-.19-.09.23-.16,0-.26l.1,0c-.07,0-.05-.25-.3-.27,0,0,.11-.05.14,0,0-.17-.33-.31-.21-.47H28s-.14,0-.08-.08.08,0,.08,0-.15-.06-.11-.11l.09,0c.06-.18-.25-.2-.33-.32a.35.35,0,0,0,.28-.25h0c0-.19-.24-.28-.36-.43.21-.15,0-.38.12-.57a.23.23,0,0,1-.2,0c0-.05-.17-.08,0-.11h0c.18-.07.12-.14.11-.2l-.26,0c.34-.24-.23-.42.09-.57-.08,0-.09-.08-.16-.11l.14,0a.44.44,0,0,0-.05-.31h.11c0-.08-.42,0-.44-.1l.2-.06c0-.13.12-.31-.1-.4,0,0,.1,0,.11,0s.09-.28-.19-.2c.18,0,0-.15-.11-.2l.14,0c-.19,0-.24,0-.3-.1s.1,0,.07,0-.14,0-.08-.13l.09,0c0-.08-.05-.06-.16-.08s0-.14.13-.17c-.08,0-.19,0-.16-.07a.24.24,0,0,1,.09,0c.07-.13-.19-.14-.07-.25l.08,0a.55.55,0,0,1,0,.17c.13,0,.13-.11.32-.08-.11,0-.34-.11-.29-.19l0,0h0s0,0,0-.05a.09.09,0,0,0,0-.07c.1,0,0-.09,0-.13s-.12,0-.23,0,0,0,0,0h0l0,.09c-.08,0-.14,0-.08-.09h-.23c.18-.09.27-.21.38-.24-.1-.1-.11-.26-.38-.29,0,0,.07-.05.1-.07s0,0,.07,0-.06-.19-.25-.17c.07-.1.18,0,.13-.09h.06c.24-.27-.54-.27-.22-.59l-.06,0c.11-.31-.27-.55-.07-.88,0-.08-.08-.07-.18-.11l.14,0L26,25.49c-.15-.1.33-.27.06-.37l-.1,0S25.85,25,26,25s-.11,0-.06,0H26l-.16-.11c0-.11.32,0,.3-.19a.44.44,0,0,0-.31-.08s0,.06-.11.08l-.05-.05c-.23,0-.48,0-.61.19l.16.06-.11.05,0-.07c-.1.06,0,.07.07.08s-.1,0-.11.06l.23.05c-.08,0-.18,0-.22.06s.19-.08.27,0c-.09.06-.18.06-.08.09a.14.14,0,0,1-.13,0c.08,0,.06.11.18.11-.12.07.07.14-.15.17.05,0,.18,0,.2.09-.27,0,0,.15-.27.18.25,0,.15.17.3.25,0,0-.06,0-.05,0s-.08.08-.11.13c.19,0,.25,0,.38.07-.17.1-.24,0-.41.05.16,0,.18.09.3,0a.46.46,0,0,1-.2.11c.25,0,.05,0,.21.05-.1.1-.22.06-.13.13C25.28,26.55,25.18,26.49,25.18,26.49ZM26,28.31h0l0,0Zm0,.16s0,0,0-.07a.12.12,0,0,1,.1,0S26.06,28.43,26,28.47Zm.88-.52s0,0,0,0l0,0h.05Z"/><polygon class="cls-3" points="26.72 27.94 26.71 27.93 26.68 27.95 26.73 27.95 26.72 27.94"/><path class="cls-3" d="M29.5,42.34Z"/><polygon class="cls-3" points="26.22 30.71 26.25 30.7 26.22 30.69 26.22 30.71"/><path class="cls-3" d="M29.21,43.33h0Z"/><path class="cls-3" d="M29.26,43.71l0,.06Z"/><path class="cls-3" d="M29.25,44h0Z"/><path class="cls-3" d="M28.13,39.43h0S28.11,39.42,28.13,39.43Z"/><path class="cls-3" d="M28.74,40.74l-.08,0S28.66,40.75,28.74,40.74Z"/><polygon class="cls-3" points="27.65 37.94 27.65 37.93 27.65 37.92 27.65 37.94"/><path class="cls-3" d="M28.65,40.64a0,0,0,0,0,0,.07S28.68,40.66,28.65,40.64Z"/><path class="cls-3" d="M29.45,45.29h0Z"/><path class="cls-3" d="M29.47,45.3h0S29.49,45.3,29.47,45.3Z"/><path class="cls-3" d="M29.53,45.34l0,0S29.49,45.34,29.53,45.34Z"/><path class="cls-3" d="M29.43,44.89h0Z"/><path class="cls-3" d="M29.4,44.78s-.1.09-.06.12h0C29.31,44.9,29.48,44.78,29.4,44.78Z"/><path class="cls-3" d="M29.91,44.15l0,.1c.05,0,.11-.06.14,0C30.16,44.07,29.91,44.28,29.91,44.15Z"/><path class="cls-3" d="M29.92,43.83s.08,0,.11,0S30,43.78,29.92,43.83Z"/><path class="cls-3" d="M29.47,41.64l.12,0S29.55,41.62,29.47,41.64Z"/><polygon class="cls-3" points="28.74 41.36 28.67 41.42 28.79 41.41 28.74 41.36"/><polygon class="cls-3" points="29.57 40.92 29.6 40.93 29.54 40.87 29.57 40.92"/><path class="cls-3" d="M28.77,37.25l-.15,0S28.82,37.29,28.77,37.25Z"/><path class="cls-3" d="M28.28,35.7c.07,0,.11-.09,0-.1S28.26,35.68,28.28,35.7Z"/><polygon class="cls-3" points="27.55 30.89 27.6 30.91 27.55 30.86 27.55 30.89"/><path class="cls-3" d="M31.6,45.69s.14,0,.12,0l-.15,0Z"/><path class="cls-3" d="M31.94,45.55a.7.7,0,0,0-.36-.12c.15.06.08.06.26.13,0,0-.06,0-.12,0s0,0,.06.07.14-.06,0-.13A.2.2,0,0,1,31.94,45.55Z"/><path class="cls-3" d="M32.63,42.6h0Z"/><path class="cls-3" d="M33,40.75s0,0,0,0S33,40.75,33,40.75Z"/><path class="cls-3" d="M33.19,40.46l0,0S33.2,40.46,33.19,40.46Z"/><path class="cls-3" d="M32.63,42.6l.06-.05C32.63,42.54,32.64,42.57,32.63,42.6Z"/><path class="cls-3" d="M31.61,45.08l0,0v0Z"/><path class="cls-3" d="M32.65,43.43v0l.06,0Z"/><path class="cls-3" d="M32.59,44.06a1.82,1.82,0,0,0-.2-.05c.06,0,.09,0,.1.05Z"/><path class="cls-3" d="M32.19,45l0,0Z"/><path class="cls-3" d="M32.74,43h0Z"/><path class="cls-3" d="M33.48,25.32h0Z"/><polygon class="cls-3" points="34.17 24.59 34.18 24.6 34.26 24.6 34.17 24.59"/><path class="cls-3" d="M33.44,39.9h0S33.45,39.91,33.44,39.9Z"/><path class="cls-3" d="M34,34.55c-.13.05-.15-.12-.3,0C33.74,34.51,33.89,34.61,34,34.55Z"/><path class="cls-3" d="M31.63,45.06v0Z"/><polygon class="cls-3" points="33.68 34.51 33.68 34.51 33.66 34.52 33.68 34.51"/><path class="cls-3" d="M33.53,38.55h0Z"/><path class="cls-3" d="M33.2,39.52l0,0Z"/><path class="cls-3" d="M33.39,38s0,0,0,0h0S33.42,38,33.39,38Z"/><polygon class="cls-3" points="33.46 37.47 33.43 37.48 33.43 37.49 33.46 37.47"/><path class="cls-3" d="M33.49,26.94l.13,0C33.52,26.92,33.49,26.84,33.49,26.94Z"/><path class="cls-3" d="M31.69,45.09l-.06,0v0Z"/><path class="cls-3" d="M32.29,37.85l0-.08A.2.2,0,0,0,32.29,37.85Z"/><path class="cls-3" d="M33.21,30.8l0,0Z"/><path class="cls-3" d="M32.34,37.51l.1,0,0,0Z"/><path class="cls-3" d="M33.32,26.35c0,.08.17,0,.28.06s-.14,0-.23.07.21.12.2.16h-.08c.15.07,0,.19.18.27h-.05a2.25,2.25,0,0,1,.26,0s.11.08,0,.09,0,0-.08,0l.05,0c-.18,0-.06-.06-.19-.07.05.08.19.18.14.23s0-.14-.21-.07l.07-.08c-.27.05,0-.05-.26,0-.06.11.07.14,0,.25s.14,0,.23,0c.16.18-.43.1-.22.24s.33.06.21.14l-.19,0c0,.11.27.08.14.19s-.06-.09-.09-.08.11.07.11.12h-.17c0,.13.13.27.15.4s-.1,0-.16,0-.05.36-.16.51l.14.08s-.07,0-.1,0,.1,0,.15,0-.09,0-.13,0c.12.12.24.34.08.44l0,0c-.07.09.29.13.14.21l0,0c-.08.19,0,.42-.2.55.21.05-.11.19.18.23-.16.1-.21.06-.32.21s.18.08.2.14h-.15l.16.08-.19,0,0,.06a.14.14,0,0,1,.12,0c.06.08-.12.18-.2.17l.11.19A.24.24,0,0,1,33.1,31c.15.12-.16,0,0,.11a.27.27,0,0,1,.13,0,.15.15,0,0,0-.08.21l-.1,0c-.05.13,0,.29,0,.44,0-.05.24,0,.25,0h-.16c.09,0,.06,0,.18,0s-.19,0-.24,0l.05.08a.79.79,0,0,1-.13,0c.09,0-.18.1,0,.16h-.05c0,.15,0,.22,0,.35.14,0,.1.06.21.11,0,.08-.17.17-.17.28s.12,0,.2.08c-.13,0-.13.11-.22,0a.7.7,0,0,0,.1.35.17.17,0,0,1,.12,0s-.06.06-.12,0h0c.17.21-.42.39-.17.57h0L33,34c0,.07-.09,0-.17,0,.19.19-.06.26.07.41-.39.07,0,.38-.28.5h.09c.09,0,0,0-.08.06s.09,0,.13,0c.07.32-.2.63-.32.94,0,.11.45.12.22.24l-.15-.06c.17.26-.07.49.07.74,0,0-.08,0-.08,0s0,.18.07.19-.09,0-.14,0,.13.14,0,.15,0,0,0,0,0,.15.11.13c-.08.08,0,.18-.05.24.15.06-.09.14.12.18-.22,0-.2.13-.1.2-.06,0-.07,0-.17,0s0,.13.15.13c-.28.08.19.26-.16.28a2.27,2.27,0,0,1,.18.56c-.22,0,0-.19-.23-.21.07.17.25.29.18.44s-.1,0-.13-.06c.07.17-.06.31,0,.46a.09.09,0,0,1,0,0s0,.06.06.07l0,0c.16,0,.3.15.38.17-.29-.09-.1.13-.45,0a.16.16,0,0,0,.13,0s-.07,0-.14,0,.15.09.14.18a.61.61,0,0,1-.12,0c.09.06.18.12.13.19s-.07,0-.07,0c0,.14.23.26.12.39-.21-.07-.08,0-.27,0l.05.08.09,0c0,.07.12.15.05.2l-.07-.06,0,.13.08-.07c.08.09.23,0,.17.11s0,.07-.13.09h0c.06,0,.12.08.06.13l-.24,0c.15.06,0,.17.18.23a.44.44,0,0,0-.15,0l.12,0s-.06,0-.14,0,.24,0,.12.1,0,0,0,0,0,.23,0,.32,0-.1-.19-.08c0,.15.18.34.11.47l0,0c.26.06-.15.09,0,.18s-.14,0-.12,0,0,.21.11.37l-.07,0c-.07,0-.06.15-.1.21s0,.06.15.05c-.41.14.16.4-.18.53,0,0-.06-.06-.06,0l0,.15c.12,0,.07,0,.17,0s.11.08.11.12-.19,0-.26,0l.11,0c-.21,0,.23,0,.08.13l-.06,0s.1.09.08.13-.06,0-.17-.06.24.15.1.18,0-.06-.06-.09-.13,0-.16.08h0l-.08.09,0,0c.34.12.05.16.26.29-.2-.13-.12,0-.27-.06s-.1,0-.14,0-.11.07.06.16c-.05,0,0,.05-.13,0,0,.07.08,0,.14,0s-.23.2,0,.36.23.18.3.3a.18.18,0,0,1-.17,0c-.08,0-.08.09,0,.15h-.14c0,.05.18.06.1.11l-.19-.08c0,.06.12.13.15.19s-.12-.06-.17-.08.05.16.18.2l.05,0s-.11,0-.14,0,.06-.07.11-.07l0,.05c.29,0,0-.17,0-.24l.2.06-.15-.1c.05,0,.17,0,.19,0s-.06-.06.06-.09,0,0,0,0l0-.06s.15,0,.11,0c.14-.08-.13-.18,0-.19h0c0-.15-.15,0-.31-.17h.38l-.15,0s0,0,.08,0-.07,0-.16,0c.15-.05,0-.19.21-.18-.11,0-.1.06-.17,0,.26,0,0-.09.09-.13s.06.08.18,0c-.22-.07.07-.11,0-.17s-.06-.13-.11-.22.12-.16.2-.23h0c-.18,0-.14-.12-.16-.19a.34.34,0,0,1,.19.08v-.06a.13.13,0,0,1-.1-.09l.13,0c0-.08-.14-.18,0-.27-.13,0-.37,0-.44-.08a.38.38,0,0,1,.21.05s-.05,0,0-.06l.11.06c.06,0-.09,0-.08-.07s.08,0,.16,0-.05,0,0,0a.18.18,0,0,1,.16-.08c-.05,0-.13,0-.14-.05s.12,0,.18,0,0-.07-.14-.09c0,0,.08,0,.12,0s0-.19-.16-.16h0c-.13-.15.12-.26.07-.4h.05c-.05-.09,0-.18-.11-.25s.1,0,.15,0-.08-.08,0-.16c.08.08.08,0,.06.07s.13-.07,0-.17c.12,0,.16,0,.13-.08l-.1,0a.2.2,0,0,1,0-.11l.17,0c.22-.13-.31-.33,0-.41-.11,0-.09.08-.22,0,0-.07.28-.11.28-.13s-.23-.13-.15-.22-.22,0-.26-.09.25-.06.29,0,0,0,0,0,0,.06.1,0l-.05,0c.06,0,.07-.13.16-.09s-.09,0-.13,0,0-.15.09-.23-.1,0-.1,0S33,40.4,33,40.3s.22.05.15-.06.16,0,.21,0c-.11-.1.09-.15.12-.2l0,.05a.11.11,0,0,1,0-.07h-.12s0,0,.08,0-.2,0-.3-.07c.06,0,0-.12.11-.11-.07.1.16,0,.17.1s0,0,0-.07l0,0c.15-.09-.17-.07-.15-.18s.17,0,.15,0-.15,0-.21,0,0-.08,0-.12l0,0c-.08,0-.07-.06-.09-.11s0,0,.08,0c-.15-.08.17-.11.08-.2.06,0,.16,0,.21,0s.13-.08.05-.18-.1,0-.2-.06l.06.16-.16-.12c0,.05.06.11,0,.13s-.06-.05-.16,0c.18,0-.09-.13,0-.19l.29,0c.15-.09-.13-.21,0-.34l-.06,0c-.11,0,0-.09-.05-.14a.56.56,0,0,0,.2,0c-.07,0,0-.1-.17-.14l.13-.05c.07-.1-.26-.16-.21-.27.1,0,.18,0,.24.09s0-.07,0-.07-.12-.12,0-.14-.14,0-.13-.08h.05c-.05,0-.06-.08-.17,0,.32-.08,0-.32.29-.38a.64.64,0,0,1,0-.26s0,0,0,0-.27-.1-.16-.2.08.07.15.05c.32,0,0-.15.17-.2v0c.12,0-.1-.15-.07-.25h0a.44.44,0,0,1-.23-.31c.12,0,.06,0,.19,0s-.21,0-.23-.1a.61.61,0,0,1,.28-.06v.07c.19,0,0-.1,0-.13h.08c0-.12-.2-.14-.18-.27h-.06c-.18-.09.12,0,0-.13h.2a1.18,1.18,0,0,1-.2-.27,1,1,0,0,1,.29.24c0-.05,0-.16-.09-.19s.06,0,0,.06-.21-.16-.2-.25c.38.06.13-.22.43-.25-.12-.18.1-.31.09-.5-.3,0,0-.06-.3-.08,0,0,0-.06,0-.06l.2-.11c.09,0,.06.05.13.05s.13,0,.22-.08c-.11,0-.16,0-.11-.1l-.15.06c-.14-.15.27-.09.13-.24l.09,0c0-.07,0-.25-.21-.34,0,0,.12,0,.14,0,.05-.16-.22-.39-.06-.5l.08,0s-.14-.07-.06-.1.07,0,.08,0-.12-.1-.07-.13l.08,0c.11-.15-.18-.27-.22-.41a.34.34,0,0,0,.35-.15h0c0-.18-.15-.33-.22-.52.25-.08.14-.35.29-.51a.24.24,0,0,1-.19,0s-.14-.13.06-.1h0c.2,0,.16-.1.17-.16l-.26,0c.4-.13-.1-.46.25-.52-.06-.05-.06-.1-.12-.14h.14a.46.46,0,0,0,.05-.31l.1,0c0-.08-.4-.14-.4-.21h.21c0-.13.21-.26,0-.41,0,0,.09,0,.1,0s.16-.25-.13-.25c.19,0,0-.14,0-.22l.13,0c-.17-.07-.22-.08-.26-.17s.11,0,.08,0-.13-.06-.05-.14l.08,0c0-.07,0-.07-.13-.12s0-.13.17-.13c-.07,0-.17-.07-.13-.1a.1.1,0,0,1,.09,0c.1-.11-.15-.19,0-.26h.09c0,.09,0,.17,0,.16s.16-.06.33,0c-.09-.07-.29-.19-.22-.26h.06s0,0,0,0,0,0,0-.06.07-.08.07-.12-.11,0-.23,0,0,0,0,0,0,0,0,0h0v.1c-.07,0-.12-.07,0-.11L34.17,28c.2,0,.31-.13.43-.14-.07-.12,0-.28-.29-.37,0,0,.07,0,.12,0s0,0,0,.05,0-.2-.19-.22c.08-.08.16.05.14-.06l0,0c.31-.22-.44-.4,0-.63l-.07,0c.18-.28-.13-.6.14-.87.06-.08-.06-.09-.15-.15h.16l-.18-.09c-.12-.12.37-.2.13-.36l-.1,0c0-.05-.06-.17.06-.16s-.11,0-.06,0h.08l-.13-.13c0-.1.31,0,.32-.14a.42.42,0,0,0-.28-.14s-.05.06-.13.07l0,0a1,1,0,0,0-.63.1l.14.08-.11,0v-.07c-.1,0,0,.06,0,.09a.24.24,0,0,0-.12,0l.22.08c-.09,0-.18,0-.23,0,.11,0,.21,0,.27,0-.1.05-.19,0-.1.08a.14.14,0,0,1-.12,0c.07,0,0,.11.15.13-.13.05,0,.15-.18.14.05,0,.17.08.18.12-.26-.08,0,.14-.3.12.24.06.1.19.23.29l0,0c0,.05-.09.06-.14.09.2,0,.24.1.36.15-.19.06-.23-.05-.41,0,.16,0,.15.12.29.1a.58.58,0,0,1-.22.06c.24,0,0,.05.18.09-.12.07-.23,0-.15.1A.18.18,0,0,1,33.32,26.35Zm.3,1.92h0v0Zm0,.16a.17.17,0,0,0,0-.07c.05,0,.1,0,.1,0S33.66,28.41,33.61,28.43Zm1-.27s0,0,0,0a.08.08,0,0,0,0,0h0Z"/><path class="cls-3" d="M34.43,28.1h0Z"/><path class="cls-3" d="M32.6,42.62h0Z"/><polygon class="cls-3" points="33.16 30.61 33.19 30.62 33.16 30.6 33.16 30.61"/><path class="cls-3" d="M32,43.43h0Z"/><path class="cls-3" d="M31.92,43.8l-.06.05S31.91,43.82,31.92,43.8Z"/><path class="cls-3" d="M31.81,44.09h0Z"/><path class="cls-3" d="M32.27,39.43v0Z"/><path class="cls-3" d="M32.41,40.85l-.06-.05S32.34,40.84,32.41,40.85Z"/><polygon class="cls-3" points="32.29 37.86 32.29 37.86 32.3 37.85 32.29 37.86"/><path class="cls-3" d="M32.37,40.73s0,0,0,.07A.06.06,0,0,0,32.37,40.73Z"/><path class="cls-3" d="M31.56,45.33h0Z"/><path class="cls-3" d="M31.57,45.35v0S31.59,45.35,31.57,45.35Z"/><path class="cls-3" d="M31.61,45.4l0,0S31.58,45.39,31.61,45.4Z"/><path class="cls-3" d="M31.68,45h0Z"/><path class="cls-3" d="M31.68,44.84s-.11,0-.09.1h0C31.56,44.92,31.76,44.88,31.68,44.84Z"/><path class="cls-3" d="M32.38,44.45l-.06.09c.06,0,.14,0,.14,0C32.64,44.46,32.34,44.57,32.38,44.45Z"/><path class="cls-3" d="M32.5,44.15c0,.06.08,0,.11,0S32.55,44.12,32.5,44.15Z"/><path class="cls-3" d="M32.81,41.94l.12,0S32.88,42,32.81,41.94Z"/><polygon class="cls-3" points="32.21 41.43 32.12 41.46 32.24 41.5 32.21 41.43"/><polygon class="cls-3" points="33.14 41.3 33.16 41.32 33.12 41.25 33.14 41.3"/><path class="cls-3" d="M33.57,37.58h-.16S33.61,37.63,33.57,37.58Z"/><path class="cls-3" d="M33.6,36c.08,0,.14-.05.06-.09S33.58,35.93,33.6,36Z"/><polygon class="cls-3" points="34.37 31.16 34.42 31.2 34.39 31.13 34.37 31.16"/><g class="cls-4"><image width="1341" height="4904" transform="translate(-106.59 -59.2)" xlink:href="../../../../../../../Downloads/screencapture-aurora-db30bf-webflow-io-2023-09-18-12_40_29.png"/></g></svg>