<svg id="Capa_1" data-name="Capa 1" xmlns="http://www.w3.org/2000/svg" viewBox="0 0 670.78 87.63"><defs><style>.cls-1{fill:#60c0be;}</style></defs><path class="cls-1" d="M49.58,64.61c-18.57-.53-9.31-.12-28.14-.94-.67,3.54-.55,6.73,3.55,9,5.7,4.58,25.86.31,37.34,1.78,31.62,6,66.15,3.9,97.93,7.22,23.12,2.14,46.13-.47,69.07-3.42,7.87-1.25,15.94-2,24-2.5s-8.55-.49-.64-1c15.82-.91,30.91-2.27,43.58-6.53C318.79,60,308.37,40,285.14,34.75l-.44-6c22.9.76,10.4-13,12.64-20.76a86.81,86.81,0,0,1-34.22-2.79l-11.25.93c-33,2.74-40.29,5.12-72.17,6.92s-63.6,2.7-95.89,1.52c41.59,2.57,80.65,2.78,122.22-.93.25-.86,0-1.51-2.59-1.37,2.63-.14,2.84.51,2.59,1.37l.3,0-.3,0c-.27,1-123.92,2.38-123.93.87-7.45-.3-14.93-.64-22.44-1.19S44.59,12.22,37,11.42c-6.32-.06-11.77,2.7-16.37,6.13,3.12.81,5.44,6.61,29.31,7.75l9.91.79c-28.35-2.61-14,1-39.38-3.95l-4.14-1c-1.83,1.67-3.47,3.36-4.94,4.85-5.77,7.37-8.85,17.79,2.45,25.48l8.56.16c1.08,3,.4,6.15-.32,9.19C40.56,62.7,49.58,64.61,49.58,64.61Z"/></svg>