<svg id="Capa_1" data-name="Capa 1" xmlns="http://www.w3.org/2000/svg" viewBox="0 0 34.12 31.77"><defs><style>.cls-1{fill:#fff;}.cls-2{fill:#ce586b;}</style></defs><path class="cls-1" d="M8.68,28.37S12.41,15.58,17,15.58s8.32,12.79,8.32,12.79Z"/><path class="cls-1" d="M8.68,28.2s0,.07.06.06v-.08Z"/><path class="cls-1" d="M9.13,28.35c.09,0,.18-.11.13-.18s-.1,0-.19.14-.12,0-.11-.06-.11,0-.15,0a.32.32,0,0,0,.33,0S9.13,28.34,9.13,28.35Z"/><path class="cls-1" d="M20.29,28.53h0Z"/><path class="cls-1" d="M21,28.62Z"/><path class="cls-1" d="M16,28.48h0Z"/><path class="cls-1" d="M12.71,28.56a.13.13,0,0,1,.06-.1.08.08,0,0,1-.08.05Z"/><path class="cls-1" d="M9.51,26.88Z"/><polygon class="cls-1" points="8.66 28.36 8.68 28.34 8.63 28.32 8.66 28.36"/><path class="cls-1" d="M22,19.72c0,.15-.18-.16-.13.06C21.91,19.72,22.13,19.88,22,19.72Z"/><path class="cls-1" d="M25.68,28.52Z"/><path class="cls-1" d="M25.13,27.09V27h0A.06.06,0,0,1,25.13,27.09Z"/><polygon class="cls-1" points="24.73 25.92 24.73 25.95 24.73 25.98 24.73 25.92"/><path class="cls-1" d="M10.81,23.39h-.08S10.73,23.59,10.81,23.39Z"/><path class="cls-1" d="M24.59,27.22,24.53,27Z"/><path class="cls-1" d="M24.33,26.49a.13.13,0,0,0,0-.12h0Z"/><path class="cls-1" d="M10.39,24.72c.07-.17,0-.11-.08-.17,0-.22.1-.07.17-.12s0-.27,0-.37h0c0-.17.17-.41.15-.6h0a.15.15,0,0,1-.13,0c0-.07,0-.16.07-.17s0,.06,0,.09v-.16c.11,0,0,.12,0,.15a2.72,2.72,0,0,1,.13-.49c.09,0-.09.29,0,.16l-.11.17c.19-.08-.05.11.13,0s.08-.29.21-.52c0-.07-.07,0-.09-.09.08-.37.32-.17.33-.47,0-.09-.1-.16,0-.32l.06.11c.12-.23-.06-.2.12-.41,0,.06-.06.2,0,.17s0-.14.07-.26h.09c.11-.24.19-.54.32-.82,0,0,0,.09.07,0a4.69,4.69,0,0,1,.63-1v-.15h.05s0,0,0-.1.09-.07.08,0a2.26,2.26,0,0,1,.49-.85v.06c.14-.15,0-.28.18-.39h0a4.27,4.27,0,0,1,.87-.93c0-.12.34-.27.25-.4a2.55,2.55,0,0,0,.68-.12c.07,0,0-.15.14-.23v.06l.08-.16h.12l.08-.07h-.1s.38-.15.4-.11l.32-.21a.58.58,0,0,1-.09.1c.16-.15.06.06.21-.07V16c0-.06.29-.05.44-.06V16a2.48,2.48,0,0,1,.86,0c-.1,0-.05-.13,0-.12v.09c.07,0-.09,0,.05-.08s0,.11,0,.12h.14s.19.17.3.12h0a4.82,4.82,0,0,1,.63.35c.05-.06.12,0,.22,0s.28.32.45.49.08,0,.16,0,.14.22,0,.17c.21.2.26.26.54.51v-.09s.07.14,0,.15h0c.34.27.43.88.72,1.08h0l.25.25c.08.14-.1-.05-.07.07.29.26.31.51.52.74,0,.3.43.74.47,1.08h0c.08.05,0,.1,0,.16V21a10.59,10.59,0,0,1,.84,2c.1.25.28.05.31.4H23c.3.45.42,1,.69,1.48a.09.09,0,0,1-.08-.07c0,.13.15.39.2.37s0,0,0,.09.17.24.13.32h0s.11.32.15.23c0,.2.16.34.17.51s.08.33.19.33c-.11,0,0,.35.12.46s0,.11-.06.08c.05.13.11.25.16.21-.05.28.28.52.1.52,0,0,.12.14,0,.14h-.4c0-.06.12-.06.22-.06s.09,0,.09-.07h-.34a1.24,1.24,0,0,1-.47,0c-.09,0,.06,0,.09-.06a6.19,6.19,0,0,0-1,.05h0c.1.07-.25.15-.27.19.11-.14-.32,0-.14-.22-.05,0-.1,0-.09.07s-.08,0,0-.07c-.23,0-.15.08-.35.08l.06-.06a.68.68,0,0,1-.38.07h0a4,4,0,0,1-.85.08c.1-.11-.11,0-.13-.13h-.1c-.16,0-.29.07-.43,0h0c-.16,0,0,.11-.19.09a.49.49,0,0,1-.24-.06h0a.42.42,0,0,1-.27,0v-.12a.75.75,0,0,0-.46.1.06.06,0,0,0,0-.08l-.06.07c-.08,0-.09,0-.07-.07-.22,0,.06.11-.19.06H18.1c-.07-.1.21,0,.13-.1-.34,0-.71.11-1,.09h.06c0,.13-.24-.07-.41,0v0a3.7,3.7,0,0,0-.81.07h.05a4.17,4.17,0,0,0-.5,0s-.13,0-.08.08c-.44-.19-.85.1-1.24-.06H14c0,.06,0,0,.11.08a.4.4,0,0,1-.22.06c.15,0,0-.09-.06-.12s0,0,0,.06c-.18-.11,0,.11-.27,0h0a.76.76,0,0,1-.27.05c0-.07.1,0,.1-.09s-.26.13-.39.06h.2A.44.44,0,0,0,13,28h-.17c-.17.18-.35,0-.58.15.23-.11,0-.06.06-.14s-.15,0-.12-.07-.18,0-.34,0c0,0-.11,0-.09-.06-.14,0,0,0,0,.07-.22.09-.51-.1-.82,0a2.9,2.9,0,0,1-.57.17c-.08,0,.07-.09.07-.09a.59.59,0,0,0-.37,0v-.07c0-.07-.07.09-.2,0a.28.28,0,0,1,.1-.09L9.59,28s.08-.07.12-.1c-.14,0-.36,0-.41.11h.09v-.07a.13.13,0,0,1,.18,0H9.48c.09.14.36,0,.54,0L9.94,28l.19-.09s.06.08,0,.1c.13,0,.12,0,.23,0h.13s0,.07-.06.06c.23.06.37-.08.45,0h0c.31,0,0-.07.26-.16l.16.19V28h.09s0,0,0-.08.43,0,.46.08-.15,0,0-.08c0,.13.19,0,.33,0s-.18,0,0,.09c.08-.11.27,0,.39,0a1.3,1.3,0,0,0,.47-.07l.56.09h0c0-.09.23-.07.37-.09s0,.08-.11.1h.22a.24.24,0,0,1,.15-.06v.07a1.88,1.88,0,0,1,.58,0c0-.07-.18-.18.06-.22V28H15l-.09.06h.13c.13,0,.06,0,0,.07s-.07,0-.1,0a.61.61,0,0,1,.24.07.07.07,0,0,1,.07-.07c.07,0,.06.06.16.09s.16,0,.16-.08.06,0,.08.06.43,0,.32-.09h0a6.91,6.91,0,0,1,.91,0h0a3.07,3.07,0,0,0,.53-.07c.05,0,.12,0,.1.07a.65.65,0,0,1,.34,0h-.14a.72.72,0,0,0,.41,0c-.07.06.13.08.21.06h-.12a1.13,1.13,0,0,1,.26,0v.08c.36.1.64-.17.92,0,.09-.06-.2,0-.11-.11a1.63,1.63,0,0,1,.39.13c.23,0,.21-.12.45-.09,0,0-.06-.11.12-.14s.2.13.1.15-.06,0-.06,0-.13,0-.06.05h0c.08,0,.31,0,.26.08.12,0,.05-.05,0-.07a5,5,0,0,0,.55,0s-.07,0,0,0c.32,0,.14-.05.36-.07s0,.11.17.07,0,.08,0,.11a1,1,0,0,1,.48,0H22a.43.43,0,0,1,.16,0l-.25.44h.12a.11.11,0,0,1,.07-.15.25.25,0,0,1,.28.05c-.26,0,0,.07-.19.09h.16c.25.07.12-.09.37-.09a.09.09,0,0,0,.1.08s0-.08.05-.11.18,0,.26,0h.07a.89.89,0,0,0,.47,0c.18-.08,0,.08.08.1a.71.71,0,0,0,.42,0c-.06-.06-.07,0,.08-.1h-.34l.22-.09h-.28c.1-.05.09,0,0-.08.14.09.28-.05.45,0v.14c.26.07.38-.07.93,0h-.17c0-.06.28,0,.41,0s.19.08.16,0-.1-.37-.23-.44v-.19c-.09-.37-.23-.27-.3-.54.07.06.07-.06.16.08,0-.08,0-.15-.07-.14s-.14-.2-.12-.29S25,27,25,26.93h0s-.07-.13-.1,0c.06-.29-.24-.67-.2-.92l-.22-.52h0c0-.23-.19-.08-.23-.34s.09.11.09,0-.13-.28-.11-.48h0c0-.15-.18-.28-.25-.49h0a2,2,0,0,1-.36-.54c.08,0,.07.08.11,0s-.08.07-.17-.1,0-.2,0-.24l.07.16c.05-.12-.09-.21-.11-.3h0c-.12-.24-.22-.21-.33-.48h0c-.15-.1,0-.14-.14-.26l.07-.08c-.06-.09-.24-.3-.33-.46a1.61,1.61,0,0,1,.33.36.61.61,0,0,0-.22-.35A.15.15,0,0,1,23,22a1.14,1.14,0,0,1-.31-.41c.18-.05-.2-.51-.14-.71-.22-.29-.31-.66-.53-1,0,.2-.06-.11-.18,0-.06-.08-.08-.12-.07-.13l-.08-.31c0-.08.08.07.11,0s0-.11,0-.26c0,.06-.11,0-.15-.14v.19c-.23-.22,0-.3-.27-.52l.1.06c-.12-.12-.32-.5-.52-.55,0,0,0-.09.06,0-.2-.33-.61-.61-.74-.88h.05c-.06-.05-.14-.05-.17-.14s.05,0,0,0a.6.6,0,0,1-.23-.19H20c-.23-.31-.47-.35-.73-.53.07-.08-.12-.32-.24-.42h0a2.72,2.72,0,0,0-1.1-.48,2.2,2.2,0,0,0-1.3-.33c.07,0,0,.08-.08.1s-.26.11-.26,0h0c-.09-.08-.29,0-.45,0v.14c-.48-.05-.93.53-1.19.53-.06.09-.16.16-.21.25v-.06a2.89,2.89,0,0,0-.55.5h0c-.13.14,0,.31-.13.44h-.11a2.65,2.65,0,0,0-.62.75v-.09c-.11.12-.41.44-.26.47-.08,0-.2.27-.26.44v-.06a.59.59,0,0,1-.08.37h0c-.12.11,0,.14-.14.28v-.2a.29.29,0,0,0-.07.24c0,.1-.18.26-.24.25a.22.22,0,0,1,0,.22v-.06c-.18.22-.14.39-.29.53s0,0-.05,0L11.8,20s-.15.12-.16,0a1.21,1.21,0,0,1-.16.55h0v.1a1.25,1.25,0,0,0-.08.12c-.06,0-.12.17-.16.24s0,.13.1.06,0,0,0-.08h0l.1-.2a.24.24,0,0,1-.09.22v.16c-.14.07-.3.25-.36.25-.08.26-.26.58-.21.79s-.07.07-.1.08a.24.24,0,0,0,0-.12c0,.15-.18.42-.11.49-.12.16,0-.13-.13.11h0c-.35.42-.12.86-.51,1.32V24c-.32.58-.42,1.28-.77,1.84-.08.16,0,.2,0,.32H9.08v.21c0,.27-.33.38-.32.74h.06c0,.11-.09.38-.14.34s0,.06,0,.09h0v.3c-.1.22-.14-.08-.25.25v.34s.06-.12.1-.11v.12c.1.05.19.17.35-.08v-.21H9v.16c.08-.08,0-.15,0-.22a.16.16,0,0,0,.18-.14v-.19s.06.11.12,0-.12,0-.12-.16.11,0,.1-.15,0,0,0,.07c0-.11.06-.25,0-.32s.09-.32.19-.28a1.31,1.31,0,0,1,0-.28c.07.2.12-.32.24-.23-.07-.16.1-.44.12-.66v.06a1.43,1.43,0,0,1,.14-.2c-.08-.05,0-.24-.06-.35.15-.11.08.12.18.11-.08,0,0-.27-.06-.25.1-.08.06-.08.16-.11-.11-.06,0-.1,0-.22s.13,0,.16-.18S10.39,24.72,10.39,24.72Zm1.61-4h0v0Zm.13-.4-.08.14V20.4C12.05,20.34,12.13,20.36,12.13,20.32Zm-.8.46c0-.06,0-.07.06-.07v.09h0Z"/><polygon class="cls-1" points="11.41 20.91 11.4 20.94 11.44 20.91 11.43 20.88 11.41 20.91"/><polygon class="cls-1" points="15.98 28.47 15.98 28.47 15.97 28.46 15.98 28.47"/><polygon class="cls-1" points="15.3 16.54 15.29 16.53 15.29 16.56 15.3 16.54"/><path class="cls-1" d="M19.9,28.26H20C20,28.22,19.91,28.22,19.9,28.26Z"/><polygon class="cls-1" points="24.59 27.24 24.59 27.24 24.59 27.22 24.59 27.24"/><path class="cls-1" d="M20.13,28.23a.17.17,0,0,0-.14,0Z"/><polygon class="cls-1" points="9.51 28.15 9.47 28.14 9.47 28.16 9.51 28.15"/><path class="cls-1" d="M9.36,28.18h.07S9.37,28.16,9.36,28.18Z"/><path class="cls-1" d="M10.66,28.17a1,1,0,0,0-.25,0h0S10.6,28.22,10.66,28.17Z"/><path class="cls-1" d="M11.79,28.49h-.23s.09.06,0,.07C11.84,28.62,11.49,28.48,11.79,28.49Z"/><path class="cls-1" d="M12.49,28.53c-.12,0,0,0,0,0S12.58,28.55,12.49,28.53Z"/><path class="cls-1" d="M17.56,28.53v.06C17.64,28.58,17.55,28.57,17.56,28.53Z"/><polygon class="cls-1" points="18.54 28.2 18.43 28.16 18.39 28.22 18.54 28.2"/><polygon class="cls-1" points="19.11 28.65 19.07 28.66 19.21 28.64 19.11 28.65"/><path class="cls-1" d="M24.85,26.11l-.06.05S24.91,26.2,24.85,26.11Z"/><path class="cls-1" d="M23.42,22.72a.19.19,0,0,0-.06-.21Z"/><polygon class="cls-1" points="15.86 15.52 15.91 15.46 15.79 15.54 15.86 15.52"/><circle class="cls-1" cx="17" cy="9.86" r="6.11"/><path class="cls-1" d="M22.94,9.86s.07,0,.06,0h-.08Z"/><path class="cls-1" d="M23.13,9.49c-.05-.07-.12-.13-.19-.09s0,.08.14.14,0,.1,0,.09v.11a.2.2,0,0,0,0-.25Z"/><path class="cls-2" d="M17.42,3.61Z"/><path class="cls-2" d="M20.61,4.79l-.06-.07S20.57,4.72,20.61,4.79Z"/><path class="cls-1" d="M22.46,6.72h0Z"/><polygon class="cls-1" points="23.14 9.86 23.14 9.88 23.18 9.88 23.14 9.86"/><path class="cls-2" d="M15.72,3.54Z"/><path class="cls-1" d="M10.75,11.21c0-.12.12.16.15,0C10.88,11.22,10.75,11.07,10.75,11.21Z"/><path class="cls-1" d="M12.7,5.25h-.06A.06.06,0,0,0,12.7,5.25Z"/><polygon class="cls-1" points="12.03 6 12.04 5.99 12.06 5.97 12.03 6"/><path class="cls-1" d="M21.43,13.61h.08C21.46,13.6,21.54,13.49,21.43,13.61Z"/><path class="cls-1" d="M13.05,5.72l-.12.09Z"/><path class="cls-1" d="M21.93,12.72c-.07.12,0,.1.07.16s-.1,0-.17,0,0,.22,0,.28h0a1.15,1.15,0,0,0-.2.42h0a.18.18,0,0,1,.11.07s0,.13-.1.11,0-.05,0-.08v.07c-.11,0,0-.09,0-.13-.07.11-.12.28-.2.34s.13-.2,0-.15l.13-.09c-.18,0,.06-.07-.11-.08s-.12.2-.28.32c0,.06.06,0,.06.1-.16.26-.31,0-.39.22s0,.18-.12.22v-.1c-.16.11,0,.17-.21.25,0-.06.1-.12.07-.11s0,.1-.12.16l-.18,0c-.17.11-.33.3-.53.41v-.06a1.91,1.91,0,0,1-.85.29l-.07.1h0c.06,0,0,0,0,.08s-.09,0-.06,0a1.08,1.08,0,0,1-.72.21h0c-.16,0-.16.17-.32.13h0a2.42,2.42,0,0,1-1-.06c-.06.11-.33-.06-.37.08a1.22,1.22,0,0,0-.39-.21c-.07,0-.13.06-.22.06v-.08l-.14.05v-.11h-.14s.06,0,0,.07-.3-.13-.29-.18h-.2c-.19,0,0-.08-.17-.07h0a.67.67,0,0,0-.33-.18h0c-.2-.1-.44-.21-.66-.34.07.07,0,.13-.07.1v-.09c-.07,0,0,.07-.07.07s0-.12,0-.1h0c.06,0-.11-.19-.22-.16h0c-.21-.15-.3-.23-.47-.36h-.19a2.09,2.09,0,0,0-.29-.44c-.12-.08-.08,0-.15,0s-.07-.2,0-.15c-.14-.18-.2-.21-.39-.43v-.06h0c-.27-.23-.19-.74-.41-.92h0l-.15-.23c0-.12.07.05.07-.05-.21-.23-.11-.43-.24-.64.15-.22-.14-.64,0-.9h0v-.13s0,.07-.06,0a3.77,3.77,0,0,1,.25-1.63c.07-.18-.19-.17,0-.38l.06.09a5.31,5.31,0,0,1,.4-1.16v.07c0,.07.17-.26.12-.29s0,0,.09,0,0-.22.12-.23h0s.16-.2.07-.2c.12-.1.14-.25.26-.32s.2-.16.13-.25c.08.08.24-.14.28-.24s.09,0,.09,0,.14-.15.09-.18c.22,0,.24-.34.44-.27a4,4,0,0,1,.7-.6c0,.1-.28.17-.21.27a1.87,1.87,0,0,1,.58-.43c.07,0,0,.06,0,.09.23-.15.5-.19.71-.32v.05s.11,0,.09-.06h0c-.1,0,.15-.2.15-.24,0,.17.25,0,.16.19,0,0,.06,0,0-.08s.07,0,0,.06c.16-.07.09-.1.25-.13v.07a.39.39,0,0,1,.28-.12h0A1.59,1.59,0,0,1,16.94,4c-.07.11.09,0,.1.12h.08c.12,0,.23,0,.33,0h0c.13,0,0-.12.16-.08a.23.23,0,0,1,.17.07h0a.28.28,0,0,1,.22,0v.13s.28,0,.37,0,0,.06,0,.07h.06s.06,0,0,.08c.16.06,0-.12.16,0h-.17a2.48,2.48,0,0,1,.55.15c0,.11-.15,0-.12.07a2.84,2.84,0,0,1,.77.22h0c.09-.1.15.14.29.14h-.06a3.23,3.23,0,0,0,.57.26h0a3.45,3.45,0,0,0,.28.26h.1c.14.36.58.35.66.7h-.06l.2.17V6.24a.22.22,0,0,1,.16.09c-.11-.06-.06.06-.06.12h0c0,.17.11-.06.17.14h0a.36.36,0,0,1,.16.14c0,.06-.07,0-.11,0s.23.09.22.21A.43.43,0,0,0,22,6.83a.5.5,0,0,0,0,.21h0l.06.17V6.72c.22,0,.18.21.35.32-.17-.11-.06,0-.14,0s0,.13,0,.12a.26.26,0,0,0,.15.21c.15.07,0,.08,0,.09h.06c.06,0,.05.41.24.59a.89.89,0,0,1,.28.39c.09.19-.1,0-.1,0a.52.52,0,0,0,.07.27H23c-.07,0,.1,0,.08.15s-.08,0-.11-.07a1.6,1.6,0,0,1,.13.27c0,.09-.07,0-.1-.08s.08.27.14.3V9.21h-.07a.1.1,0,0,1,0-.14h0v.07C23.18,9,23,8.85,23,8.71h.11L23,8.59s.08-.07.1,0c0-.11-.05-.08,0-.17h0L23,8.32h.07c0-.19-.15-.26-.09-.35h0c-.1-.23-.07,0-.22-.15l.09-.1h-.08V7.64h-.09c-.09,0-.16-.3-.07-.37-.07,0,0,.12-.08,0,.1-.09-.09-.13-.08-.26s.09.12.09,0a.4.4,0,0,0-.15-.29c-.08-.07-.14-.16-.25-.28A1.62,1.62,0,0,1,22,6h0c-.1,0-.17-.1-.26-.17a.1.1,0,0,1,.13,0l-.07-.08a.2.2,0,0,1-.13-.06h.07c-.1-.1-.25-.16-.35-.32-.05,0,0,.22-.18.13,0,0,.05-.08.1-.06s-.07,0-.08,0h.1c-.05-.07-.07,0-.11,0s0-.06,0-.08,0,0,.06.06a.44.44,0,0,1-.1-.19H21c-.09,0,0-.07,0-.15s-.1-.08-.14,0,0-.06,0-.09-.29-.2-.27-.08h0c-.22-.09-.39-.31-.61-.41h0a1.34,1.34,0,0,0-.4-.13s-.07-.08-.05-.1a.85.85,0,0,1-.26-.11c.12,0,0,0,.12,0a.38.38,0,0,0-.31-.1c.07,0-.07-.12-.14-.12l.08.08-.2-.08.06-.07c-.27-.17-.56,0-.74-.18-.09,0,.15.07.07.12S18,3.61,18,3.61a.49.49,0,0,1-.37,0,.13.13,0,0,1-.11.13c-.11,0-.16-.13-.07-.15s.05,0,.05,0,.1,0,.05-.06h0c-.07,0-.25,0-.21-.09s0,.05,0,.07a1.69,1.69,0,0,0-.45,0h0c-.27,0-.12.06-.29.09s0-.11-.15-.07,0-.07,0-.1a.9.9,0,0,1-.4,0h-.06l.06,0h-.1s.06.09,0,.16a.17.17,0,0,1-.24,0c.22,0,0-.08.14-.12h-.13c-.22,0-.08.11-.28.16,0,0-.07-.07-.1,0s.06.06,0,.11a.37.37,0,0,1-.2.07h.08c0,.05-.08.06-.16.11s.07-.05,0-.06a.48.48,0,0,0-.36.11c-.12.11,0-.08-.1-.08a.4.4,0,0,0-.33.13c.07,0,.07,0,0,.12L14.45,4l-.12.16c.07,0,.14-.11.19-.12s0,.06,0,.09-.18.14-.33.15l-.06-.14c-.22,0-.29.23-.53.34h.09c0,.07-.13.09-.19.15s-.08,0-.13,0a.19.19,0,0,0-.12.21h-.13c-.19.11-.11.25-.26.37,0-.08-.09,0,0-.16,0,0-.1.08-.08.1s-.09.18-.17.19,0,.07,0,.12h0s0,.11,0,.1c-.25,0-.39.42-.59.49l-.24.39h0c-.14.13.06.17-.1.32s0-.11,0-.07a.59.59,0,0,1-.26.3h0c-.1.07-.06.27-.15.42h0a1.66,1.66,0,0,1-.14.37V7.72s.1,0,.07.16S11.08,8,11,8s0-.1.05-.14-.06.18-.09.25h0a1.55,1.55,0,0,1,0,.48h0c.07.14-.07.09,0,.23h-.1a1.64,1.64,0,0,0,.05.46,1.32,1.32,0,0,1-.1-.39.65.65,0,0,0,0,.34V9.13a.66.66,0,0,1,.08.41c-.19,0-.07.43-.2.56.07.3,0,.6.08,1,.13-.15,0,.1.17,0s0,.1,0,.11v.26c0,.07,0-.06-.08-.05,0,.18,0,.09,0,.22s.09,0,.09.14v-.16c.14.22-.05.25.11.47L10.94,12c.07.11.17.46.34.52,0,0,0,.07-.06,0,.11.3.43.55.5.79h0c0,.05.11.05.13.13h0a.3.3,0,0,1,.17.16H12c.14.28.36.31.55.47-.08.07,0,.28.12.37h0a2.87,2.87,0,0,0,.8.49c.08.23.54.43.8.63,0,0,0-.07.1-.05s.22,0,.17.1h0c0,.11.16.17.28.21l.06-.12c.24.31.82.19.94.4H16v.07a3.13,3.13,0,0,0,.59.09h-.06c.15,0,.21-.19.34-.19v.11a1.71,1.71,0,0,0,.78,0m-.05,0c.12,0,.48,0,.42-.12,0,.1.27,0,.39-.09v.07c.09-.12.09-.14.24-.2s.05,0,0,0c.13,0,.08-.09.24-.1v.06c.13,0,.12,0,.17-.12s.24-.07.28,0a.21.21,0,0,1,.14-.12v.05c.23,0,.27-.2.44-.2h0l-.28.13s.16,0,.09.13c.09-.09.22-.27.36-.31h.18l.22-.1c.06,0,.05-.1-.06-.1h0l-.15.1a.15.15,0,0,1,.16-.12.38.38,0,0,0,0-.15h.38c.15-.17.41-.33.42-.53h.1s-.05.06-.05.09.26-.26.22-.34c.14-.08,0,.12.14,0h0c.41-.21.28-.65.7-.91h-.06a8.8,8.8,0,0,0,.79-1.4c.07-.13,0-.17,0-.27h.08v-.17c0-.23.29-.32.21-.62h-.06c0-.09,0-.31.08-.29s0,0,0-.07h0a1,1,0,0,0,0-.25c0-.19.15,0,.17-.24s-.1-.3-.12-.26,0,.11-.07.11V9.78c-.12,0-.23-.09-.32.13l.06.15-.06,0v0c0,.07,0,.12,0,.17a.12.12,0,0,0-.06.06l.1.16s-.08-.08-.12,0,.11-.06.13.06-.11,0-.07.13,0,0-.06-.05a1.9,1.9,0,0,0,0,.25c0,.05,0,.25-.14.22a.28.28,0,0,1,0,.22c-.09-.16-.07.25-.2.18.1.12-.06.33-.05.51h0l-.12.14s0,.19.06.29-.07-.12-.17-.12c.08,0,0,.21.06.21-.09.05-.06.05-.15.05.1.07,0,.09,0,.18s-.12,0-.16.11-.2-.13-.2-.13Zm2.09-1.09Zm-.25.12h0Zm.77.14h0Z"/><polygon class="cls-1" points="15.71 15.49 15.71 15.51 15.72 15.5 15.71 15.49"/><path class="cls-1" d="M22,6.65v.09A.14.14,0,0,0,22,6.65Z"/><path class="cls-2" d="M15.3,4.28Z"/><path class="cls-2" d="M17.69,3.9h-.08S17.69,3.94,17.69,3.9Z"/><polygon class="cls-1" points="13.06 5.68 13.06 5.67 13.05 5.68 13.06 5.68"/><path class="cls-2" d="M17.5,3.91h0Z"/><polygon class="cls-1" points="22.86 9.23 22.86 9.26 22.88 9.26 22.86 9.23"/><path class="cls-1" d="M22.9,9.34Z"/><path class="cls-1" d="M22.72,8.36v.19h0S22.77,8.39,22.72,8.36Z"/><path class="cls-1" d="M22.73,7.42V7.6s0-.1.07,0C22.84,7.33,22.81,7.65,22.73,7.42Z"/><path class="cls-1" d="M22.52,6.89c.06.08,0,0,.05,0S22.51,6.81,22.52,6.89Z"/><path class="cls-2" d="M19.56,4.14V4.08S19.58,4.11,19.56,4.14Z"/><path class="cls-2" d="M18.72,4.18l.06.06h0Z"/><polygon class="cls-2" points="18.41 3.62 18.43 3.62 18.3 3.61 18.41 3.62"/><path class="cls-1" d="M12.13,5.82h.07S12.13,5.72,12.13,5.82Z"/><path class="cls-1" d="M10.85,8.54a.13.13,0,0,0-.06.16s0,0,0,0S10.85,8.58,10.85,8.54Z"/><polygon class="cls-1" points="14.79 15.88 14.72 15.88 14.84 15.9 14.79 15.88"/></svg>