<svg id="Capa_1" data-name="Capa 1" xmlns="http://www.w3.org/2000/svg" viewBox="0 0 181.75 98.22"><defs><style>.cls-1{fill:#60c0be;}</style></defs><path class="cls-1" d="M170.63,96.14c-.28.09-.11.3.63.21a4.1,4.1,0,0,0,.48-.37C171.38,96.06,171,96.09,170.63,96.14Z"/><path class="cls-1" d="M175.58,95.44c.72-.58,1.29-1.46.67-1.35a2.87,2.87,0,0,1-.63.76c-.21.18-.41.39-.76.75-.66.38-1.26.38-1.17.24a2.22,2.22,0,0,1-.69.22,3.05,3.05,0,0,0-.78.28,4.7,4.7,0,0,0,3.29-1.12C175.79,95.14,175.6,95.35,175.58,95.44Z"/><path class="cls-1" d="M181.14,21.77l0,.49A2.37,2.37,0,0,0,181.14,21.77Z"/><path class="cls-1" d="M150.24.43c.35,0,.5,0,.52-.07C150.43.38,150.16.4,150.24.43Z"/><path class="cls-1" d="M142.24.07l.47,0A1.29,1.29,0,0,0,142.24.07Z"/><path class="cls-1" d="M181.14,21.77l.11-1.25C181.14,20.43,181.17,21.16,181.14,21.77Z"/><path class="cls-1" d="M179.82,86.9a3.74,3.74,0,0,0,.06.63v-.59Z"/><path class="cls-1" d="M181.41,42.41v.38a3.09,3.09,0,0,0,.14.32Z"/><path class="cls-1" d="M181.46,58.25c0-.36-.27-.48-.39-.62a1.76,1.76,0,0,1,.19.78C181.32,58.42,181.38,58.37,181.46,58.25Z"/><path class="cls-1" d="M181,83.37l0,.44Z"/><path class="cls-1" d="M181.47,31.07a.26.26,0,0,0,.1-.14S181.5,31,181.47,31.07Z"/><path class="cls-1" d="M152.27,95.49s0,0,0,.05S152.39,95.49,152.27,95.49Z"/><path class="cls-1" d="M170.63,96.88l-.25,0a.32.32,0,0,0-.06.15Z"/><path class="cls-1" d="M.18,13.43c.25-1.52.32,2.47.6.18C.67,13.83.34,11.53.18,13.43Z"/><path class="cls-1" d="M179.87,86.51v-.65A4.31,4.31,0,0,0,179.87,86.51Z"/><path class="cls-1" d="M.78,13.61h0l0-.23Z"/><path class="cls-1" d="M119,.27l-.62,0Z"/><path class="cls-1" d="M80.86.27a4.38,4.38,0,0,0-.91,0l.14,0A2.31,2.31,0,0,1,80.86.27Z"/><path class="cls-1" d="M67.29.27l.25.06.43,0Z"/><path class="cls-1" d="M111,95.62a2.2,2.2,0,0,1,.62.26C111.44,95.68,113.44,95.61,111,95.62Z"/><path class="cls-1" d="M180,86.9a.56.56,0,0,1-.11-.39v.43S180,87,180,86.9Z"/><path class="cls-1" d="M80.31,2.49l-2.16,0C78.76,2.47,79.54,2.49,80.31,2.49Z"/><path class="cls-1" d="M13.66,95.66l.5,0A1.92,1.92,0,0,0,13.66,95.66Z"/><path class="cls-1" d="M71.76,2.49a8,8,0,0,0-1.22-.2,1.23,1.23,0,0,0-.25.08Z"/><path class="cls-1" d="M111.66,95.88h0Z"/><path class="cls-1" d="M125.86,95.21c-2,0-1,.36-1.4.58-2.45.1-1.14-.28-2-.46-1.53.09-2.71.43-3.85.42-.08-.06-.3-.09,0-.16-1.62.29-4.81,0-6.7.38a.52.52,0,0,1-.24-.09c.3.19.35.37.29.51-.92,0-1.71.23-2.06,0a1.77,1.77,0,0,0,.88-.17l-1,.11c-.87-.35,1.32-.12,1.32-.38a54.65,54.65,0,0,1-5.52.3c-.3-.34,3.37-.11,1.45-.41l2.23.13c-1.7-.54,1.36,0-.21-.54-2.94-.1-3.28.17-6.21.07-.66.19.22.28-.44.47-4.17.34-3.28-.85-6.34-.4A5.38,5.38,0,0,1,92.8,96l.74-.38c-2.84,0-1.62.55-4.6.29.53-.15,2.24-.13,1.81-.17-1.93-.31-1.37.21-2.85.21l-.31-.34c-3,.06-6.36.3-9.71.37.18-.11.76-.21,0-.32-4.22.17-9,0-13.1-.24l-1.56.29c-.36,0-.67-.13-.28-.19-1.59-.11-.08.19-.84.31-.91,0-1.2-.17-.63-.26a69.74,69.74,0,0,1-10.94.22l.58-.09c-2.3-.11-2.6.61-4.73.33l.41,0c-5-.13-10.52.14-14.33-.3-.72.42-4.94-.19-5.26.4a57,57,0,0,0-6.05-.59c-1.08,0-1.6.36-2.93.43l0-.31-1.8.32-1-.37-1.24.08c.49,0,1.05.14,1,.23a20,20,0,0,1-3.1-.08l-.66-.07-.46-.11c-.26-.06-.42-.12-.42-.16a8.94,8.94,0,0,1-3.88-1.08,9.72,9.72,0,0,1,1.27.4c-1-.31-1.06-.5-1.09-.59s0-.18-.88-.65c.16.21-.24.06-.3.07-.31-.41-.89-1-1.38-1.73A11.23,11.23,0,0,1,3,89.49l.31.23a9.81,9.81,0,0,1-.48-2.19c-.06-.71-.06-1.69-.08-2.6,0-1.85-.07-3.75-.07-5.66-.1,1.37-.46,1-.5-.07l.33-.45c-.21-.72-.13,1.18-.37-.31,0-1.43.37-1,.47-.14l-.11-1.74c.1-.1.15.31.27.41-.2-.71.33-3,0-4l.1-.09c0-3.83-.11-5.56-.13-8.68-.28-.06-.22-1.28-.45-2.21.09-2.29.31-4.83.29-7.59-.14-1.94-.24-.56-.4-1.44.25-.14.23-2.89.41-1.46,0-3.32,0-4.23-.26-8.42-.1.45-.15,1-.24.7,0-.76.11-1.73.23-1.62l0,.2c-.38-4.7.75-10.85.21-14.59l0,.21-.28-3.88c0-1.79.19,1.07.35-.25-.42-4.19.07-6.62-.22-10.07a12.06,12.06,0,0,0,.32-2.66,10.92,10.92,0,0,1,.54-3,7.15,7.15,0,0,1,3.8-4.37l-.24-.06a1.37,1.37,0,0,1,.75-.43c.22,0,.42-.07.7-.14-.13-.12-.86.21-.44-.1a8.64,8.64,0,0,1,2.51-.73,24.46,24.46,0,0,1,2.89-.06c2,0,4.06.06,6.11.11l12.26.35c2.95.05,1.67-.92,5.4-.49l-1.06.33c6-.4,12.21,0,18.05-.32a2.7,2.7,0,0,1-.93.17,13.9,13.9,0,0,0,4.59-.19c.91,0,.21.18.77.28,1.24.14,3.11-.3,3.76-.07.12,0-.34.08-.57.1.81-.12,3.76,0,3-.25,2.19.14,4.19-.12,5.94,0C71.68,2,74.3,2.44,74.66,2c-.16.45,3.84.36,5.23.15-.46.13,1.2.14.66.33,1.58,0,3-.09,2.76-.32,2.91.54,5.86-.44,7.5.25,4.7-.24,9-.4,13.28-.51-.15.45-4.68,0-4.49.52,4-.19,6.32-.57,10.3-.47,1,.07-.59.2-.93.28,4-.19,7.75,0,11.31-.21a2.65,2.65,0,0,1-.76.12c.71,0,1.64.07,1.56-.13l-.69,0c-1.12-.3,2.79-.62,2.92-.78-1.19.59,3.52.15,1.63.89.46,0,1-.13.93-.27.69,0,.91.12.21.28,2.52-.12,1.62-.33,3.91-.33,0,.1-.47.14-.71.26a17.76,17.76,0,0,1,4.24-.31c-.11.06.11.14-.46.14,3.31,0,5.64-.52,9.27-.33-1.07.43,1.23.14,1.43.52l2-.12-.78-.18c1.71,0,3.22-.26,4.69-.14l-1.27.15,3.2-.07-1.81-.14c1.73-.19-.19-.47,2.09-.37-.46,0,1.71,0,2.6.23h0a12.21,12.21,0,0,1,3-.15c.33.12-.27.41,0,.49.83-.31,4-.09,5.06-.42-.35.08-.37.27-.25.31l.7-.25c.79.08.9.12.78.28,2.38,0-.76-.48,2.07-.27a3.88,3.88,0,0,1-.58.09c1.42.06,2.79,0,4.14,0a10.63,10.63,0,0,1,3.81.32c.3.28-.22.14-.73.06s-1-.13-.63.09a10.94,10.94,0,0,1,2.55.58,10.67,10.67,0,0,1,2.37,1.28,9.65,9.65,0,0,1,1.89,1.94A8.55,8.55,0,0,1,179.7,8.2l-.19-.62c.34.12.51.78.59,1.59s0,1.75.09,2.69c0-.45-.3-.59-.24-.47-.08,2.5.13,5.1.3,8.88l-.14-.46c-.12,1.47-.07,3.87-.13,5.45.14.48.12,1.38.31.83-.77,4.9.42,9.34-.23,13.69,0-.52-.12-1.24-.12-.83l.13,3.7c.23-.29.14-.48.32-1.26a10.67,10.67,0,0,1,.24,2.43c-.15-1.67-.37,0-.5.73.07-.12.15.13.22.07-.41,1.93.47.32.19,3l-.12-.14c.06,1,.22,1.9.19,3-.27.44-.13-1-.35-1.12,0,1.5.51,3,.24,4.31-.07-.64-.07-1.55-.15-2.18a11.35,11.35,0,0,0-.28,2.74V54l-.15,2.53.09-.64c.7,1.87.13,3.81.58,6.33-.43-2.45-.25-.4-.55-.59-.08.64-.18,1.62-.26,1.34.24,1.19-.2,2,.16,3.67-.1.08,0,1.28-.25,1,.07,1.55.17-.37.29-.24.33,2.39-.4,5.62,0,9,.19,3,.52,3.52.68,6.26-.15.93-.35-.75-.35-.75a20.88,20.88,0,0,0,0,4c-.08-.29-.15,0-.26.44a3.21,3.21,0,0,0,.13,1,2.18,2.18,0,0,1-.11,1.2,6.7,6.7,0,0,1-.24-1.11,9.43,9.43,0,0,1-.72,3.72c-.32.23.16-.81.17-1.28a10.13,10.13,0,0,1-1,2.24,16,16,0,0,0-.92,1.51c.25-.19.48-.42.73-.64-.37.42-.36.06-.14-.27.61-1.1,1.08-1.46,1.22-1.47l-.44.85A3.53,3.53,0,0,0,180,90a14.22,14.22,0,0,0,.31-3.23l.38.83c-.07-.69-.19-1.36-.31-2,.11-.43.34-.72.4.25.21-1.42-.14-1.25.09-2.47,0-.14,0-.08.07.05L180.84,82c.09.27.3-.23.24.62.24-2.49-.31-4,0-4.95l0,.21c-.14-3.46-.31-.34-.67-2.93l.76-1.74-.31-.34c0-.36,0-1.06.16-.93-.21-1.33-.14.23-.33-.54.27-1.72-.13-4.73.35-5.12-.23-.62-.18,1.64-.34-.19.53-.52-.09-2.12.15-3.68.27.48.13,2,.37.39-.46-.94.1-3.05,0-4.37-.36-.06-.15-2.87-.27-5.09.12.14.2-4.17.33-6.24l.06.06c-.36-.39-.3-2.52-.37-4.07.22.06.31.34.4,1.18V42.79a6.25,6.25,0,0,1-.22-1.74l.27.36c0-1.94-.32-3.9-.14-6.4-.25-.14-.71,2-.88-.65.14-.1.38-.19.43.5a6,6,0,0,1-.05-1.27l.23,1.06c.1-1.14-.19-.6-.17-1.5.19,0,.14-.68.29-.55a7.2,7.2,0,0,0,0,1.14,13.22,13.22,0,0,1,.3-2.67c-.11.09-.26,0-.29-.75,0-1.94.24-.66.34-1.79-.14-.47,0-1.71-.29-1.74a1.65,1.65,0,0,1,.22-.89c-.13-1,0-4.69-.35-3.56l0,.26,0-.17h0c-.29-3.28.17-6.83,0-10.09h.1a18.1,18.1,0,0,0-.28-3.13,7.4,7.4,0,0,0-1-2.55c-.23-.54-.54-1.3-.3-1.15a6.11,6.11,0,0,0-.6-.76,5.68,5.68,0,0,0-.52-.57,16.44,16.44,0,0,0-1.61-1.57c.69.4.6.3.56.24s0,0,.76.71A10.82,10.82,0,0,0,176.46,2a6.16,6.16,0,0,0-2.25-.94c.39,0,.07-.21-.51-.43-.3-.09-.65-.2-1-.27l-.93-.11a12.84,12.84,0,0,1,1.41.44c-.54-.14-1.06-.17-1.55-.25s-1-.07-1.45-.07c.17-.11.33-.23.5-.33-4-.41-7.14.68-10.16,0-1,.24,2.15.17,1.22.44C159.93.46,158,0,157.46,0c-2.5-.19-2.33.48-4.94.36.33.12.65.43-1.3.54-1.82,0-2.24-.49-1.09-.59.44,0,.65,0,.63.07.59,0,1.36-.09.64-.22l-.24.12c-.9-.13-3.41-.11-2.82-.31-1.38.12-.59.2.43.26-2.34-.17-3.65,0-6.06-.12.39.06.74.2.36.2-3.53-.15-1.56.23-3.95.28-1.36-.18.49-.43-1.92-.28-1.47-.12-.31-.32.27-.41a29.93,29.93,0,0,1-5.35-.2l1.16-.09c-.69.06-1.26,0-1.83,0l.66.24c-.68,0-1.26,0-1.24-.14-.7.15.53.39-.86.61-.9-.12-2.75.13-3.06-.19,2.84.11-.32-.32,2.09-.37a12.09,12.09,0,0,1-1.71,0c-.1,0,.1-.07.28-.08-2.72-.29-1.25.35-4.07.34.36-.17-.65-.33-1.11-.29,1.13,0,.54.29-.5.43A18.89,18.89,0,0,0,119,.27l1.09.07a10.52,10.52,0,0,1-2.54.21c-.1-.14,1.15-.1.7-.16-1.4.32-3.16-.32-5.12-.11-.9-.12-.08-.33-.88-.41-2.18.23-2.37-.25-4.67-.06.67.24.78.18-.84.42l3.78-.17L108.11.4c1.14,0,2.41-.15,3.09-.11-1.16.2-1,.14-.49.34-1.56-.36-3.1.21-4.9,0l0-.59c-2.71-.26-4.82.31-8.34.16l1.13.1c-.47.24-2.17,0-3.31.13.1-.2-.61-.27-1.09-.39,0,.14-2.58,0-2.9.38L89.77.12c-2.84-.11-3.24.56-6,.49.83-.21-.41-.35,1.42-.5-.92,0-1.74,0-1.75.09-.53-.12-2.53.27-3.37.08a3.4,3.4,0,0,1-1.54.28c-.11,0,0-.1,0-.1S77,.59,77.85.81C75,.2,70,.86,67.54.33c-2,.07-4.39.13-6.2.14.12-.06,0-.1.35-.07-2.5-.19-1.54.56-4.37.36-1.45-.32,1.5-.18.6-.3-.39-.65-3.43.09-5.34-.29l.47,0c-1.47-.22-3.57.25-5.95.2,0,0,.11,0,0-.09a56.8,56.8,0,0,1-7,.53c.72-.25,1-.14.61-.39-1,0,.3.41-1.75.48C38.28.72,36.8.6,36.6.33l1.94,0c-1-.35-2.51,0-3.53,0l.13-.15c-3,.05-3,.44-6.2.41l.33.12c-1.74.39-1.46-.22-3.2.07L25.54.32c-1.15.09-4,.38-6.09.45C20.62.48,23,.33,24.53.16a28,28,0,0,0-4.47.22A6.8,6.8,0,0,1,21.55.31,25.87,25.87,0,0,1,16,.76c.2-.38-1.28-.43-3-.46-.87,0-1.78,0-2.7,0L9.1.39a4.31,4.31,0,0,1-.91,0A15.57,15.57,0,0,0,5.23,2a12.91,12.91,0,0,0-2.5,2.24A10.66,10.66,0,0,0,.17,10.9c.35-.91.33-.52.31,0s0,1.2.31,1.06a7.88,7.88,0,0,1,0,1.61L.42,16.92c-.18.78-.14-1-.28-.94,0,2.39-.25,1-.42,2.58.22-.32.32.83.23,2.19l.28-1.91c.33,3.33-.51,2.88-.19,6.25L-.15,24c.11,1.73,0,6.37.49,8.06-.07.31-.24.71-.28,0C0,36.16.58,41.22.28,44.42l-.15-.31a8.88,8.88,0,0,1,.13,2.31c-.06-.05-.15-.31-.16,0a17.8,17.8,0,0,1,.17,3.07l-.16-.87c-.2,4,.41,6.17.51,9.55C.18,58.2,0,61.37,0,63l-.06-.06c0,4.69.37,8,.54,12.3a44.32,44.32,0,0,0-.31,6.12c0,1.24,0,2.53,0,3.79L.06,87l0,1c0,.32.06.64.1.94,0-.75.32.08.6.87C1,90.9,2.26,92.44,1.85,92.47l-.21-.35a4.44,4.44,0,0,0,1,1.94,11.41,11.41,0,0,0,2.13,2l.54-.26a7.9,7.9,0,0,0,3.47,1.84,9.07,9.07,0,0,0,2.15.3c.75,0,1.33,0,2,0a25.65,25.65,0,0,1,6,.17c1-.13,2.31-.13,3.33-.26l-.06.28c2.86.07,4.28.11,7.8,0l-.72.2c2,0,2.51-.81,4.35-.83l.55.42c3.47,0,7,.37,10.41,0-.06.07-.16.19-.72.21,1.63,0,6.31.28,5.72-.3,0,.38,3.58,0,5.45-.13l-.29.28a14.77,14.77,0,0,1,3.84-.55c.52,0,.46.22-.24.15,1.75.15,1.36-.26,3.48-.11l-.79.17a7.21,7.21,0,0,0,2.64-.28,10.17,10.17,0,0,1,3.66.32,5.31,5.31,0,0,1,2.29-.28c.14.09-.25.15-.44.18,3,.19,4.46-.32,6.52,0a.48.48,0,0,0,.35.17c-2.38,0-4.3,0-4.12,0,0,.26,1.92.31.39.66a36.85,36.85,0,0,1,6.07-.49.75.75,0,0,1,.24.09l-.19,0a6.53,6.53,0,0,0,1.19,0c.59,0,1,.08,1.55.08a14.19,14.19,0,0,0,3.17.13c-.08-.29,1.17-.24,0-.47.15,0-.18,0-.82,0l-.41,0,.06,0-2.38,0a7.07,7.07,0,0,1,2.61-.11c.49-.18,1-.37,1.34-.45,1.31.39,3.84.6,4.2.84,2.93-.16,6.9-.1,8.74-.63a2.16,2.16,0,0,1,1.27.23c-.48.06-1,0-1.31.12,1.67-.13,4.94,0,5.33-.42,2.1.17-1.18.34,1.71.28l-.39.12c5.67.58,9.23-1,15.52-.19a2.38,2.38,0,0,1-.74-.13c7.17.33,14.78-.31,21.86.22a11.31,11.31,0,0,0,3.46-.31l.44.3,2.1-.35c3-.25,5.15.74,8.92.26l-.49-.2c1.36,0,4.29-.12,4.07.11a1.58,1.58,0,0,1,1-.1l0,.15,3.33-.27c2.58.12-.41.63,3.36.66,1.4-.06,4-.46,3.45-.56s-1.44-.1-1.48-.26l1.28-.08c.23-.47,1.21-1-1.93-1.27l-2.18.28-.71-.22,1.84,0a5.71,5.71,0,0,0-2.45.11,2,2,0,0,0-.91-.25l-2.15.44c-.26-.18,1-.36-.48-.46-1,.21,1,.41-.7.55-1.05-.22-.74-.39-2-.21-.17-.12.09-.19.58-.25a26.89,26.89,0,0,0-3.46.31c-1.09-.26-3.7.07-3.59-.37a16.55,16.55,0,0,1-2.93.36c1.84-.52-3.76,0-3.27-.59-1.36.47-4.91.21-7.31.47a1.75,1.75,0,0,1,.61-.09,22.72,22.72,0,0,1-2.62-.27c-.17.39-2.28.48-3.42.72-1.66-.38,1-.46.49-.82.08.32-2.89.32-2.32.58-1.27-.23-1.1-.11-1.75-.44-.22.49-1.18.09-2.23.39-1.84-.25-.48-.46-2.49-.31C124.07,95.39,125.86,95.21,125.86,95.21Zm-48,.85h1Zm-4,0,1.75,0c.14.09,0,.19-.42.19C75.39,96.2,74.44,96.15,73.84,96.06Zm8.53,2c-.64,0-.85,0-.94-.07l1.12,0,.07,0A.72.72,0,0,1,82.37,98Z"/><path class="cls-1" d="M83.52,97.64l.26,0-.38-.06-.23.09Z"/><path class="cls-1" d="M181.1,22.34v-.08a.61.61,0,0,1,0,.17A.63.63,0,0,0,181.1,22.34Z"/><polygon class="cls-1" points="18.15 95.53 18.16 95.6 18.51 95.53 18.15 95.53"/><path class="cls-1" d="M180.13,44.55a1,1,0,0,0-.07.29A1,1,0,0,0,180.13,44.55Z"/><path class="cls-1" d="M180.07,54.15,180,55.5C180,54.92,180.05,54.49,180.07,54.15Z"/><path class="cls-1" d="M179.93,61.52a.41.41,0,0,0,.12.15v0Z"/><path class="cls-1" d="M119.52,2.15l-.28,0C118.57,2.22,119,2.2,119.52,2.15Z"/><path class="cls-1" d="M154.43,1.5c-.37.05-.74.1-1.13.13C153.93,1.65,154.41,1.66,154.43,1.5Z"/><path class="cls-1" d="M80.55,2.49Z"/><path class="cls-1" d="M151.68,1.63a9.7,9.7,0,0,0,1.62,0A12.51,12.51,0,0,0,151.68,1.63Z"/><path class="cls-1" d="M177.81,92.45a1.64,1.64,0,0,1-.21.25s0,0,0,.06A3.28,3.28,0,0,0,177.81,92.45Z"/><path class="cls-1" d="M177.61,92.76l-.22.29A1.32,1.32,0,0,0,177.61,92.76Z"/><path class="cls-1" d="M176.89,93.63a4.63,4.63,0,0,0,.5-.58A4,4,0,0,0,176.89,93.63Z"/><path class="cls-1" d="M179.93,83.73l-.1-.11C179.85,83.68,179.88,83.72,179.93,83.73Z"/><path class="cls-1" d="M179.9,80.76a26.86,26.86,0,0,0-.15,2.77l.08.09C179.68,83.15,180.08,81.43,179.9,80.76Z"/><path class="cls-1" d="M181.16,68.38l-.08,2.48c.11-.43.26-1,.28.13C181.69,67.85,181.12,71.63,181.16,68.38Z"/><path class="cls-1" d="M181.32,60.67c.05,1.33.16,0,.22,0C181.44,59.87,181.42,59.67,181.32,60.67Z"/><path class="cls-1" d="M179.36,5l.29,0C179,4.05,179.57,5,179.36,5Z"/><path class="cls-1" d="M169.58,1.76l1,.15L171,1.7C170.58,1.69,170.07,1.74,169.58,1.76Z"/><path class="cls-1" d="M69.7,0,70,.34C70.71.28,70.86-.07,69.7,0Z"/><path class="cls-1" d="M29.3.34A5.55,5.55,0,0,0,27,.24C27.94.26,28.84.39,29.3.34Z"/><path class="cls-1" d="M7.06,97.19l-.87-.29.8.33.83.26Z"/></svg>