<svg id="Capa_1" data-name="Capa 1" xmlns="http://www.w3.org/2000/svg" viewBox="0 0 670.78 87.63"><defs><style>.cls-1{opacity:0.85;}.cls-2{fill:#cd576a;}</style></defs><g class="cls-1"><path class="cls-2" d="M610.21,13.76a11.94,11.94,0,0,0,6-1.08A7.68,7.68,0,0,0,610.21,13.76Z"/><path class="cls-2" d="M620,14.71c-.95-1.19-1.55-2.48-.53-3.59l0,0c-1.11.55-2.2,1.12-3.36,1.6A9.79,9.79,0,0,1,620,14.71Z"/><path class="cls-2" d="M620,14.71c.93,1.15,2.26,2.17,2.77,2.83A20.08,20.08,0,0,0,620,14.71Z"/><path class="cls-2" d="M622.52,29.4c-1,1.11-2.3-7.51-4.33-5.31-5.13,3.09-9.21,7.51-14.43,8.13-2,2.21-7.47-6.88-9.5-4.68-5.16,3.07-17.43,16.28-9.1,14.77,12.44-2.76,20.29-6,31.35-9,8.61-4.57,16.72-9.74,25.57-14,2.57-.72,5.15-.36,7.74-.08-3.48-.94-7-1.86-11-2.68C633.59,14.81,629.76,26.53,622.52,29.4Z"/><path class="cls-2" d="M586.44,8.58c-7.87,1.09-15.53,2-23.06,2.67s-14.94,1.19-22.28,1.59c-.83,1.8-1.29,3.83-3,3a11.77,11.77,0,0,0-3.92-2.68q-3.22.15-6.42.26c-.7.28-1.41.6-2.12.93,0,0,0,0,0,.05-1,1.11-.46,2.39.49,3.58a19.64,19.64,0,0,1,2.74,2.86c-.53-.67-1.82-1.71-2.74-2.86a9.51,9.51,0,0,0-3.82-2,11.8,11.8,0,0,1-6,1,7.61,7.61,0,0,1,6-1c1.17-.49,2.27-1.05,3.38-1.58l.9-.9c-4.9.19-9.79.27-14.68.36a25.46,25.46,0,0,0-2.91,1c-3.31,1.52-6.6,3-9.44-.89-.86,0-1.74,0-2.63,0,.2.25.41.44.62.72a6.74,6.74,0,0,1-1.1-.71L485.32,14c-2.11,1.88-4.23,4.18-6.48,5.66l-3.14-4a7.64,7.64,0,0,1-3.4,4.72c2.38,2.37,4.63,5,6.59,6.61C482,31,483,17.77,487.21,25.57,483,17.77,482,31,478.89,27c-2-1.59-4.21-4.24-6.59-6.61-3.22,1.89-7.94.82-12.2-3,3.9-4.1,8.22-1,12.2,3a7.64,7.64,0,0,0,3.4-4.72l3.14,4c2.25-1.48,4.37-3.78,6.48-5.66l-22.12.06c-48.33-.52-92,4.7-141.88,5.06-13.52,0-26.83-.45-40-1.21q-9.86-.59-19.59-1.4t-19.42-2c-25.69-3-49.61-.76-73.78,0a283.82,283.82,0,0,1-36.65-1A168.7,168.7,0,0,1,93.58,5.13c-20.19-6.37-55.8.06-74.47,2C-4.73,23,11.47,59.4,12.88,61.43c8.6,14.42,14.5,16.93,32.54,17.23,24.53.42,49.49,4.56,74.07,5.82a1326.72,1326.72,0,0,0,147.09-.57c39.74-2.36,79.28-6.51,118.66-11.34,19.7-2.42,39.37-5,59-7.67,15.47-2.07,30.71-.17,45.77-1.88,12.34-1.41,22.49-5.57,32-10.45-11.11,2.8-19,6-31.52,8.67-8.37,1.44,4.12-11.67,9.31-14.7,2.08-2.18,7.39,7,9.47,4.76,5.21-.57,9.36-4.94,14.54-8,2.08-2.18,3.23,6.46,4.26,5.37,7.3-2.81,11.31-14.5,16.57-12.69,3.9.87,7.45,1.82,10.92,2.78a16.55,16.55,0,0,0,6.35-.18L565.76,36a35.77,35.77,0,0,1-3.43-8.87c2.08.24,5.24,1.83,7.33,2.07-2.09-.24-5.25-1.83-7.33-2.07A35.77,35.77,0,0,0,565.76,36a258.17,258.17,0,0,1,29.93-17c-.09-.23-.2-.52-.28-.75-6.11,1.61-12.36,1.53-19.76-2.93,3.14,1.56,3.21,4,.09,4.87l-3.2-4c5.16-3.07,10.29-6.15,16.66-.57l3.06-3.31c2,1,2.37,3.69,3.15,5.94,1.19-.3,2.38-.69,3.57-1.11C595.61,13.12,586.44,8.58,586.44,8.58Z"/><path class="cls-2" d="M522.11,15.68a24.59,24.59,0,0,1,2.9-1c-4.11.08-8.22.12-12.35.16C515.5,18.75,518.8,17.22,522.11,15.68Z"/></g></svg>