<svg id="Capa_1" data-name="Capa 1" xmlns="http://www.w3.org/2000/svg" viewBox="0 0 97.16 98.32"><defs><style>.cls-1{fill:#60c0be;}</style></defs><path class="cls-1" d="M32.56,84.33c4.38,1.75,8.84,3.51,13.55,3.89,6.41.51,12.81-1.65,18.35-4.93s10.33-7.66,15.08-12l4.18-3.82a12,12,0,0,0,3-3.61,4.17,4.17,0,0,0-.37-4.47,4.43,4.43,0,0,0-3.35-1.22c-5.44.06-9.4,5.6-14.76,6.55a4.33,4.33,0,0,1-2.47-.17,4.91,4.91,0,0,1-2.25-3c-2.43-6.6-1-13.95.95-20.69s4.55-13.49,4.41-20.52A3.5,3.5,0,0,0,68.29,18,2.57,2.57,0,0,0,65,17.93a7.43,7.43,0,0,0-2.14,2.85c-3.35,6.39-6.57,17.42-9.92,23.81-2-.14-2.54-2.79-2.53-4.79,0-5.08-.07-14.79,0-19.86A17.54,17.54,0,0,0,49.72,14a5.89,5.89,0,0,0-4.08-4c-4,7.44-1.85,22.18-3,30.54-.2,1.44-.66,3-2,3.68C38.28,45.42,36,42.46,35.06,40c-1.92-4.83-3-15.33-4.5-20.31A6.42,6.42,0,0,0,29.22,17a2.15,2.15,0,0,0-2.77-.36A2.71,2.71,0,0,0,25.68,18c-2.26,7.37,3.48,21.65,4.74,29.25a4,4,0,0,1-.33,2.91,2.93,2.93,0,0,1-3.49.69,10,10,0,0,1-3-2.38c-2.76-2.76-7-11.86-10.44-13.68a3,3,0,0,0-1.43-.46,2.16,2.16,0,0,0-1.83,2.18c0,1.05.76,1.93.95,3,4.2,22.21,6.93,34.83,19.58,44.81"/><path class="cls-1" d="M30,84.83c.22,0,.26-.19-.21-.53h-.55Z"/><path class="cls-1" d="M27.49,81.75c-.6-.34-1.39-.68-1.31-.13.74.23.76.45,1.56.65.44.38.69.75.52.8.22.06.64.64,1,.67a5.66,5.66,0,0,0-2-1.84C27.2,81.69,27.41,81.76,27.49,81.75Z"/><path class="cls-1" d="M14.56,36.55l-.21-.29A2.06,2.06,0,0,0,14.56,36.55Z"/><path class="cls-1" d="M28.92,38.12c.08.26.14.36.18.36C29,38.25,28.94,38.06,28.92,38.12Z"/><path class="cls-1" d="M27.81,32.29c0,.12,0,.23.06.34A.56.56,0,0,0,27.81,32.29Z"/><path class="cls-1" d="M14.56,36.55c.19.23.35.49.52.74C15.2,37.27,14.86,36.86,14.56,36.55Z"/><path class="cls-1" d="M21.68,76.4a2.62,2.62,0,0,0,.38.37,3.68,3.68,0,0,1-.31-.38Z"/><path class="cls-1" d="M12.67,44.53l.05.28a1.21,1.21,0,0,0,.19.2Z"/><path class="cls-1" d="M15.21,56c-.05-.26-.38-.28-.53-.35a1,1,0,0,1,.34.51C15.08,56.17,15.14,56.12,15.21,56Z"/><path class="cls-1" d="M21.27,73.48l.21.26C21.42,73.68,21.34,73.56,21.27,73.48Z"/><path class="cls-1" d="M10.79,36.52a.23.23,0,0,0,.12-.06A.17.17,0,0,0,10.79,36.52Z"/><path class="cls-1" d="M45.5,89.61s0,0,0,0S45.4,89.6,45.5,89.61Z"/><path class="cls-1" d="M32.59,84.26l.18,0a.49.49,0,0,0,.1-.15Z"/><path class="cls-1" d="M26.68,21.81v0C26.7,22.12,26.7,22,26.68,21.81Z"/><path class="cls-1" d="M49.12,32.56c.27-1.13.36,1.85.66.14C49.66,32.86,49.29,31.15,49.12,32.56Z"/><path class="cls-1" d="M21.54,76.11l-.27-.41C21.39,75.89,21.47,76,21.54,76.11Z"/><path class="cls-1" d="M49.78,32.7h0l0-.17Z"/><path class="cls-1" d="M31.94,33.2a.66.66,0,0,0,.09-.28S32,33,31.94,33.2Z"/><path class="cls-1" d="M27.43,17.12l.22,0A.45.45,0,0,0,27.43,17.12Z"/><path class="cls-1" d="M35.47,42.63a2.19,2.19,0,0,0,.42.62.84.84,0,0,0,0-.12A1.15,1.15,0,0,1,35.47,42.63Z"/><path class="cls-1" d="M43.53,40.32c0,.06-.05.13-.08.19s0,.22,0,.33C43.47,40.66,43.49,40.5,43.53,40.32Z"/><path class="cls-1" d="M74.14,77.84a1.73,1.73,0,0,1-.54.09C73.86,78,72.76,79,74.14,77.84Z"/><path class="cls-1" d="M21.82,76.29c-.09,0-.17-.06-.28-.18l.21.28C21.8,76.39,21.84,76.37,21.82,76.29Z"/><path class="cls-1" d="M37.67,41.54a5.56,5.56,0,0,0,.82,1A8.81,8.81,0,0,1,37.67,41.54Z"/><path class="cls-1" d="M66.18,39.7l-.07.36A.85.85,0,0,0,66.18,39.7Z"/><path class="cls-1" d="M40.42,42.46a1,1,0,0,0,.46-.42.36.36,0,0,0,0-.15A2.75,2.75,0,0,1,40.42,42.46Z"/><path class="cls-1" d="M73.6,77.93Z"/><path class="cls-1" d="M65.27,84.84c1.36-.81.42-.72.59-1.09,1.51-1.1.89-.22,1.54-.39.92-.74,1.44-1.56,2.14-2.06.09,0,.25-.06.14.12.8-1,2.88-2.22,3.71-3.45a.39.39,0,0,1,.21,0,.55.55,0,0,1-.53-.29c.53-.45.81-1,1.18-1a1.07,1.07,0,0,0-.38.57l.48-.56c.74-.13-.67.74-.48,1a34.61,34.61,0,0,1,2.89-3c.42.13-1.8,1.77-.5,1.06l-1.36,1c1.35-.4-.79.63.51.34,1.73-1.38,1.73-1.78,3.43-3.16.22-.49-.33-.12-.1-.61,2-2.36,2.43-1,3.78-2.86a2.93,2.93,0,0,1,1.49-2l-.13.68A3.5,3.5,0,0,0,85,67.79c.15-.32.34-.58,1.25-1.36-.16.45-1.14,1.36-.86,1.16,1.31-.85.61-.93,1.37-1.85l.45,0a6.43,6.43,0,0,0,1.2-4.06,4.81,4.81,0,0,0-.7-2.25,4.28,4.28,0,0,0-1.79-1.59c.2,0,.76.17.14-.31A7,7,0,0,0,83.09,57a12,12,0,0,0-2.81.4,21.3,21.3,0,0,0-4.79,2l-.82.91c-.23.14-.5.15-.29-.06-1.06.54.06.2-.35.62s-.84.31-.53,0A16.38,16.38,0,0,1,70.31,63a5.23,5.23,0,0,1-3.46.64l.32-.08c-.62-.08-.85,0-1.21-.08a1.2,1.2,0,0,1-1-.88l.19.18a9.94,9.94,0,0,1-1-2.35,18.87,18.87,0,0,1-.64-2.62,13.06,13.06,0,0,1,0-4.79c-.24-.26-.14-1.15,0-2s.23-1.66-.07-1.82c.65-2,.63-1.4,1.47-4.2.22-.75-.12-1.23.08-2.19l.33.06,0-1.37.58-.56.18-.91c-.12.35-.37.71-.44.62a8,8,0,0,1,1.42-3.27L67.82,34c.11.11,0,.68-.06,1.14.19-1.87.44-.22.61-1.94-.14.2-.16-.17-.22-.23A14.78,14.78,0,0,0,69.3,29l.17.32a35,35,0,0,0,.91-8.48c-.11,1.08-.52.81-.55-.05l.36-.35c-.23-.56-.13.92-.41-.24,0-.57,0-.82.17-.79s.27.31.34.66a5.93,5.93,0,0,0-.39-1.62c.07-.14.26.26.41.34a5.79,5.79,0,0,0-1.14-2.06,2.72,2.72,0,0,0-2.55-.81l-.11-.1a4.51,4.51,0,0,0-2.65,1,6.12,6.12,0,0,0-1.35,1.51A27.38,27.38,0,0,0,61,21.18c.24.17-.21,1-.28,1.73a48,48,0,0,0-2.47,5.16c-.38,1.41.09.49,0,1.16-.3,0-1,1.94-.82.87-.83,2.32-1.05,3-2,5.95.23-.27.42-.61.43-.39-.16.55-.57,1.16-.67,1l0-.15A22.15,22.15,0,0,1,53,41.68a.86.86,0,0,1-.22.3l-.11.1c-.08.05-.11.12-.18.12a1.42,1.42,0,0,0-.44-.13h0L51.92,42a.68.68,0,0,1-.15-.28,8,8,0,0,1-.32-1.24c0-1.19.24.7.37-.18a8.33,8.33,0,0,1-.14-1c0-.35,0-.69-.06-1,0-.65,0-1.25,0-1.83a22.3,22.3,0,0,0-.07-3.54c.82-2-.08-7.06.45-9.74l-.2.15c-.19-.69.11-.84.16-1.35-.16.07-.18.75-.28.32-.08-1.47,0-2.93-.09-4.53a13.44,13.44,0,0,0-.92-5,8.61,8.61,0,0,0-1.5-2.32,5,5,0,0,0-.52-.51,7,7,0,0,0-.82-.6A6.11,6.11,0,0,0,46,8.47L45,8.2c-.05,0-.07,0-.09,0l-.06.11-.13.21L44.46,9l-1,1.77a4.77,4.77,0,0,0-.18.46l-.11.29-.22.59a7.42,7.42,0,0,0-.37,1.16,2.67,2.67,0,0,0,0,2c.15.43.15.91-.24,2.29l-.26-.85a114.09,114.09,0,0,0-.26,13.65c-.08-.26-.19-.27-.19-.7A7.3,7.3,0,0,0,41.8,33c0,.67-.2.16-.31.57-.17.91.29,2.29,0,2.76,0,.08-.07-.26-.09-.42.13.6-.18,2.72.16,2.18-.11.8-.19,1.53-.23,2.24A3.76,3.76,0,0,1,40.88,42a1.14,1.14,0,0,1-.54,1c-.27.18-.55.22-.58.47,0-.25-.31-.27-.75-.48a9,9,0,0,1-1.46-1c.29.14-.34-.7,0-.55-.58-.8-1-1.64-1.19-1.37-.23-1.95-1.71-3.83-1.24-5.16-1-3.31-1.68-6.49-2.38-9.58.51,0,.67,3.43,1.16,3.21-.74-2.92-1.42-4.54-2-7.51-.12-.78.32.38.46.63-.22-.75-.44-1.48-.66-2.2a12.27,12.27,0,0,0-.86-2.22,4.92,4.92,0,0,0-.82-1.1,3.51,3.51,0,0,0-1.26-.8,3.23,3.23,0,0,0-1.54-.2,2.54,2.54,0,0,0-1.45.65,1.54,1.54,0,0,1,.73-.56,2.71,2.71,0,0,0-1.1.72c-.26.28-.35.54-.23.55a3,3,0,0,1,.47-.66c.65-.27-.05.32-.26,1.15a3.45,3.45,0,0,0-.11,1.59c-.21-.53-.4.12-.6.73s-.27,1.15-.6.35c0,.38.06.85.22.78-.09.53-.2.7-.31.14a4.81,4.81,0,0,0,.17,1.61,8.73,8.73,0,0,1,.18,1.44c-.11,0-.17-.36-.31-.53a13.23,13.23,0,0,1,.63,3.21c-.07-.08-.14.1-.19-.34.38,2.51,1.26,4.11,1.68,6.8-.65-.67.07.93-.29,1.17l.48,1.39.05-.61c.31,1.24.89,2.25,1.05,3.34l-.41-.87.7,2.29-.21-1.35c.54,1.19.47-.26.8,1.4a14.88,14.88,0,0,1,.27,1.94h0a6.18,6.18,0,0,1,.72,2.11c-.07.26-.49-.08-.54.09.51.52.76,2.85,1.25,3.55-.14-.24-.35-.22-.38-.13l.36.46c0,.57-.06.64-.24.57,0,.76.1.63.23.56s.1-.08.12,0a1.49,1.49,0,0,1-.17.74c0-.14,0-.09,0-.37-.26,1.7-2.7,2-4,.8-.09-.32.23-.11.54,0s.62.27.45,0a11.91,11.91,0,0,1-3.13-2.33,16.94,16.94,0,0,1-2.5-3.28l.23.45c-.7,0-.84-1.85-1.81-2.86.22.26.51.2.41.15A30.67,30.67,0,0,0,16,36.73l.35.18a10.83,10.83,0,0,0-1.33-1.62,8.51,8.51,0,0,0-1.83-1.37c-.39-.06-1.27-.29-.8,0a1.93,1.93,0,0,0-1.72,0,2.31,2.31,0,0,0-.73.55,2.92,2.92,0,0,0-.47.71,3,3,0,0,0-.25,1.64,4.37,4.37,0,0,0,.52,1.38,7.6,7.6,0,0,1,.54,1.06c.11.3.2.78.29,1.16a11,11,0,0,1,.24,2.44c-.07-.38-.3-.88-.24-.58L11.26,45c.21-.26.08-.38.16-1A5.53,5.53,0,0,1,12,45.73c-.4-1.19-.39.09-.43.64.06-.1.18.06.25,0-.16,1.5.54.14.64,2.13l-.15-.08A16.91,16.91,0,0,1,13,50.54c-.22.39-.3-.74-.54-.74.23,1.1,1,2,.94,3.09-.19-.45-.34-1.11-.52-1.56A6.13,6.13,0,0,0,13,53.4v-.08c.09.62.17,1.25.28,1.88l0-.49c1.09,1.18.79,2.74,1.8,4.43-1-1.64-.35-.22-.7-.27,0,.49.13,1.22,0,1.05.48.79.2,1.5,1,2.59-.09.09.28.92,0,.81.43,1.09.09-.32.25-.27.88,1.59,1,4.17,2.48,6.36,1.17,1.93,1.65,2.14,2.83,3.82.2.69-.61-.3-.61-.3a7.72,7.72,0,0,0,1.59,2.58c-.2-.13-.14.1-.06.44.5.7.63.26,1.19,1.24a2.9,2.9,0,0,1-.87-.42c.71.74,1.44,1.43,2.2,2.15,0,.33-.64-.28-1-.51a10,10,0,0,0,2.59,2.25L25.48,80c.29.3,0,.33-.29.13-.84-.59-.89-1.15-.85-1.26l.55.51c-.06-1-2-2.2-2.82-3.45.25.08.47.17.72.24-.39-.33-.76-.69-1.15-1-.08-.34,0-.66.47-.09-.39-1-.67-.68-.92-1.59,0-.11,0-.08.08,0l-.62-.82c.18.12.2-.31.45.27-.7-1.7-1.7-2.45-1.7-3.23l.09.12c-.63-1.1-.72-1.14-.81-1.07s-.19.21-.75-.6l.27-1.51-.41-.11c-.1-.25-.24-.76-.09-.71-.55-.84-.08.21-.47-.25a11.91,11.91,0,0,0-.66-2.18c-.24-.72-.41-1.33-.19-1.55-.38-.36.18,1.23-.4,0,.42-.53-.57-1.47-.61-2.68.38.27.52,1.37.47.18-.68-.54-.51-2.21-.82-3.14-.39.06-.68-2-1.15-3.61.14.08-.46-3.07-.62-4.61l.08,0c-.46-.2-.7-1.77-1-2.89.25,0,.38.18.6.78l-.21-1.07a3.37,3.37,0,0,1-.49-1.22l.35.21a33.45,33.45,0,0,1-1.06-4.69c-.07,0-.13.1-.2.23a1.71,1.71,0,0,1-.21.35c-.08.08-.16.11-.26,0a5.22,5.22,0,0,1-.41-.78c.11-.11.34-.3.57.2a5.73,5.73,0,0,1-.41-.88,6.15,6.15,0,0,1,.54.66c-.22-.89-.37-.36-.62-1,.2-.08,0-.51.15-.48a2.86,2.86,0,0,0,.33.75,4.58,4.58,0,0,1-.32-1.05.77.77,0,0,1,.11-.6c-.11,0-.32,0-.26-.43s.33-.57.4-.56a.35.35,0,0,0,.34-.05c0-.12.15-.23.28-.29s.26-.12.27-.28c.29,0,.29.21.35.31a2,2,0,0,1,.68.24,6,6,0,0,1,.78.5c.49.35.84.68.68.26l-.11-.15.09.07h0A10.06,10.06,0,0,1,16.67,39c.67,1.07,1.28,2.17,2,3.16l-.09.05a37.56,37.56,0,0,0,2.56,3.44c.24.35.41,1,.2.87a28.22,28.22,0,0,1,1.83,2.3c-.93-.76.12.43-.9-.83a13.17,13.17,0,0,0,1,1.36,5.41,5.41,0,0,0,1.39,1.09c-.3-.07-.15.19.21.51a4,4,0,0,0,1.35.79,5.31,5.31,0,0,1-.93-.74,5.53,5.53,0,0,0,2.32.88,4.27,4.27,0,0,1-.51.3A3.52,3.52,0,0,0,30,51.8a3.13,3.13,0,0,0,1.48-2.37,8.24,8.24,0,0,0-.15-2.13,6.32,6.32,0,0,1-.08-1.79c-.4-.73.14,1.65-.29,1-.2-1.37,0-2.88-.15-3.3-.26-1.87-1-1.56-1.31-3.48-.06.28-.34.59-.84-.78-.31-1.32.09-1.75.42-1,.09.31.09.47.05.47.16.41.36,1,.36.4l-.17-.14c-.05-.69-.55-2.48-.23-2.11-.38-1-.32-.37-.19.38-.27-1.73-.69-2.62-1-4.38,0,.29-.08.58-.15.31-.45-2.58-.51-1.06-.95-2.78,0-1,.53.26,0-1.45-.08-1.08.29-.28.48.11a11.21,11.21,0,0,1-.4-3.85l.21.81a10.26,10.26,0,0,1-.22-1.29l-.2.49c0-.49,0-.89.06-.89-.2-.49-.4.42-.7-.56.05-.66-.18-2,.16-2.2-.13,2,.34-.21.4,1.47a4.76,4.76,0,0,1,0-1.19c0-.07.07.07.09.2.14-.94.12-1.13,0-1.37a1.61,1.61,0,0,1-.16-.45,2.17,2.17,0,0,1,.07-1c.14.27.46-.33.48-.63-.15.73-.42.25-.35-.44a3.12,3.12,0,0,1,.25-.41l.13-.19a.43.43,0,0,1,.34-.23.89.89,0,0,0-.42.07c0-.24.42-.47,1.14-.25,0,.13-.62-.06-.41.06a1,1,0,0,1,1,.62c.25.44.38,1,.71,1.59.08.64-.32.16-.24.73.68,1.43.2,1.68.76,3.27.15-.53.08-.61.57.51-.24-.9-.51-1.79-.79-2.65.27.53.53,1.08.78,1.63-.18-.82-.56-1.68-.65-2.16.43.75.33.69.45.25-.1,1.2.74,2.16.75,3.53l-.65.09c.1,2,1,3.45,1.28,6.07l0-.86c.32.31.32,1.6.59,2.42-.23,0-.21.5-.27.88.14-.07.36,1.91.84,2l0,1.23a5.74,5.74,0,0,0,.83,2.16,10.09,10.09,0,0,1,1,2.06c-.46-.52-.26.46-.91-.84.23.68.45,1.31.6,1.26,0,.48,1.19,1.66,1.47,2.29a3.14,3.14,0,0,1,1.06.73c0,.1-.07.08-.07.08s.31.15.53.26.38.12.15-.18a2.68,2.68,0,0,0,1.79,1,3,3,0,0,0,2.38-.83,5.11,5.11,0,0,0,1.17-2c.23-.66.39-1.25.59-1.7.12-1.53.16-3.34.18-4.7.06.09.11,0,.08.27.26-1.87-.59-1.17-.33-3.28.35-1.08.18,1.12.32.45.71-.29-.09-2.56.33-4l0,.34c.25-1.08-.26-2.65-.18-4.41,0,0,.06.08.1,0A21.6,21.6,0,0,1,43.65,20c.23.55.08.78.39.48,0-.76-.47.19-.43-1.34.18-.48.47-1.55.78-1.65l-.15,1.41c.48-.67.18-1.82.39-2.54l.15.12c.15-1.06.14-1.62.18-2.19a9.16,9.16,0,0,1,.08-.94A10.27,10.27,0,0,1,45.42,12l-.2.18c0-.66.15-.8.29-.94a.92.92,0,0,0,.2-.23,1.65,1.65,0,0,0,.09-.22c0-.09,0-.27.17-.24a3.84,3.84,0,0,1,.38.62,2.1,2.1,0,0,1,1.16.42,5.47,5.47,0,0,1,1.58,1.74c-.33-.3-.75-.78-1.24-1.17a4.77,4.77,0,0,0-.74-.52,1.23,1.23,0,0,0-.43-.12,2.35,2.35,0,0,1,.3.19,4.68,4.68,0,0,1,.59.51c.42.39.75.82.94.94a6.08,6.08,0,0,1-.62-.76A4.49,4.49,0,0,1,49.8,15.7c-.44-.06-.3,1-.3,2.21a9.58,9.58,0,0,1-.34,3.36c.32,3-.12,5.94-.06,9.43.65-1.24,0,1,.69.81a4.31,4.31,0,0,1,0,1.19l-.39,2.46c-.2.58-.15-.77-.3-.7-.05,1.78-.29.75-.46,1.92.24-.24.34.62.25,1.64l.31-1.43a5,5,0,0,1-.1,2.32,4.44,4.44,0,0,0,0,2.54c-.11-.3-.21-.6-.29-.9.05.37.11.9.24,1.51.05.17.09.34.13.51s.17.49.26.75a4.75,4.75,0,0,0,.78,1.33,3.27,3.27,0,0,0,2.18,1.25l.54,0h.26a1.56,1.56,0,0,0,.14-.19,4.31,4.31,0,0,0,.41-.73c.21-.15.6-.28.1.34l.54-.59a1.2,1.2,0,0,0,.25-.4l.23-.48.42-1,.24-.59c.29-.78.57-1.59.83-2.37a27,27,0,0,1,1.58-4.09l.07.28a4.43,4.43,0,0,1,.48-1.66c.05.06.07.27.18,0a9.14,9.14,0,0,1,.62-2.21l-.05.67c1.26-2.72,1.2-4.45,2-6.81.44.19,1.48-1.91,2-2.9l0,.07c.75-1.49,1.31-2.95,1.89-3.82a4.15,4.15,0,0,1,.49-.58,2.06,2.06,0,0,1,.56-.35,1.28,1.28,0,0,1,1.2.05,3.89,3.89,0,0,1,.16,1.18c0,.3,0,.7,0,1.12s0,.85-.06,1.29a24.37,24.37,0,0,1-.84,5.19c.17-.45.36.15.29.71-.25.7-.14,2.08-.54,1.86l.07-.25c-.55.44-.83,1.94-1.17,3.09l.5.35c-1.69,2.77-2.16,8-3.31,9.55,0,.79-.29,1.73-.31,2.52l-.3-.11a28,28,0,0,0-1,5.91l-.17-.57c-.17,1.55.74,2,.73,3.39l-.45.43c0,2.67.11,5.57,1.5,8-.08,0-.25,0-.41-.47A7.88,7.88,0,0,0,63.7,64.8a3.48,3.48,0,0,0,1.44,1c.42.13.63.07.54-.12-.08.2.9.54,1.93.39a6.44,6.44,0,0,0,1.48-.39,8.75,8.75,0,0,0,1.24-.52l-.13.36a20.36,20.36,0,0,1,2.52-1.81c.36-.16.42,0-.08.24,1.25-.53.76-.77,2.19-1.48l-.39.49a3.77,3.77,0,0,0,1.49-1.33c.63-.57,2.17-1.26,2.47-1.08a2.14,2.14,0,0,1,1.32-1c.13.06-.09.22-.21.3,1-.31,1.7-.62,2.36-.8A3.22,3.22,0,0,1,83.81,59c0,.11.09.17.19.22a9,9,0,0,0-2.67.1c.08.27,1.27.09.4.66a6,6,0,0,1,1.74-.55,2.25,2.25,0,0,1,1.72.37.27.27,0,0,1,0,.15l-.1,0a5,5,0,0,0,.44.33,3.27,3.27,0,0,1,.28.67c-.09.08,0,.33,0,.65a3.35,3.35,0,0,1-.06,1c.32,0,.07.74.5.11,0,.09,0-.12,0-.5a1.69,1.69,0,0,0,0-.25l0,0a3.12,3.12,0,0,0-.25-1.31,1.39,1.39,0,0,1,.34,1.46,2.92,2.92,0,0,1,.33.95c-.6.78-1.83,1.93-2.21,1.92a30.8,30.8,0,0,1-2.35,2.52,10,10,0,0,0-1.84,2.36c-.41.47-.64.36-.87.44a7.58,7.58,0,0,0,.63-.75c-.82,1-2.68,2.52-2.62,3-1.28.91.4-.87-1.15.62l.13-.29a21.23,21.23,0,0,0-4.09,3.8,14.48,14.48,0,0,1-4.63,3.64c.29-.14.43-.22.53-.2-2.26,1.4-4.49,2.93-6.9,4.18a21.85,21.85,0,0,1-7.52,2.52,7,7,0,0,0-2.42.78l-.36-.28c-.48.19-1,.36-1.48.53a7,7,0,0,1-3-.24,14.49,14.49,0,0,0-3.42-.5l.31.29c-1-.2-3.1-.6-2.87-.81a.82.82,0,0,1-.72-.09l0-.17c-.81-.14-1.62-.31-2.42-.49-1.75-.77.51-.53-2.08-1.54-1-.31-2.93-.62-2.61-.36s.95.5.92.67l-.92-.27c-.35.41-1.23.63.82,1.82l1.65.3.41.42-1.3-.48a2.85,2.85,0,0,0,1.76.55,1.21,1.21,0,0,0,.56.49l1.71.07c.12.25-.83.15.19.59.8,0-.57-.64.68-.41.7.46.43.57,1.38.64.1.16-.12.19-.49.14.85.08,2.18.49,2.66.3.77.47,2.83.36,2.7.82a14.72,14.72,0,0,1,2.31-.28c-.72.28,0,.3.88.3s1.87-.08,1.71.24c1-.57,3.79-.74,5.51-1.56a1,1,0,0,1-.43.22,17.51,17.51,0,0,1,2-.3c0-.45,1.49-1.08,2.18-1.67,1.33-.12-.52.76,0,1-.18-.29,1.91-1.21,1.38-1.3,1-.17.81-.25,1.42-.15-.09-.55.77-.49,1.33-1.17,1.34-.47.57.27,1.81-.66C66.35,84,65.27,84.84,65.27,84.84ZM85.83,58h0a4.92,4.92,0,0,1,.78.49A4.26,4.26,0,0,0,85.83,58Zm-3.36-.55a7.06,7.06,0,0,1,1.45,0c.1.13,0,.21-.36.18C83.74,57.52,83,57.42,82.47,57.4Zm3.44,4.08c-.08-.31-.06-.41,0-.48a3.36,3.36,0,0,1,.13.56l0,0A.38.38,0,0,1,85.91,61.48Z"/><path class="cls-1" d="M86.31,62.12a.85.85,0,0,1,0,.16,2.14,2.14,0,0,0,.1-.22l-.09-.15C86.31,62,86.32,62.05,86.31,62.12Z"/><path class="cls-1" d="M14.31,36.22l0,0a.34.34,0,0,1-.06-.12S14.3,36.19,14.31,36.22Z"/><polygon class="cls-1" points="65.41 42.92 65.33 42.9 65.33 43.17 65.41 42.92"/><path class="cls-1" d="M11.6,46.37a.43.43,0,0,0,0,.23A1.11,1.11,0,0,0,11.6,46.37Z"/><path class="cls-1" d="M13,53.4l.12,1C13.09,54,13.05,53.65,13,53.4Z"/><path class="cls-1" d="M14.19,58.8a.35.35,0,0,0,.16.07h0Z"/><path class="cls-1" d="M26.53,15.21l.34-.11C27.69,15,27.11,15,26.53,15.21Z"/><path class="cls-1" d="M28.6,41.44c-.12-.25-.24-.5-.35-.77C28.34,41.13,28.43,41.47,28.6,41.44Z"/><polygon class="cls-1" points="37.59 41.42 37.58 41.42 37.67 41.54 37.59 41.42"/><path class="cls-1" d="M27.94,39.51a4.34,4.34,0,0,0,.31,1.16A7.62,7.62,0,0,0,27.94,39.51Z"/><path class="cls-1" d="M24.82,80.32l.17.21s0,0,.05,0Z"/><path class="cls-1" d="M25,80.52l.23.2C25.18,80.62,25.1,80.53,25,80.52Z"/><path class="cls-1" d="M25.76,81.12a6.12,6.12,0,0,1-.49-.4C25.41,80.89,25.59,81.09,25.76,81.12Z"/><path class="cls-1" d="M20.44,74.31l-.14,0A.14.14,0,0,0,20.44,74.31Z"/><path class="cls-1" d="M19.3,72.36a13.1,13.1,0,0,0,.89,1.92h.11C20,74.07,19.71,72.71,19.3,72.36Z"/><path class="cls-1" d="M16.94,63.31c.16.59.36,1.17.53,1.76,0-.34,0-.79.32,0C17.35,62.76,17.7,65.59,16.94,63.31Z"/><path class="cls-1" d="M15.49,57.79c.32.94.17-.06.25,0C15.47,57.19,15.4,57.05,15.49,57.79Z"/><path class="cls-1" d="M21.48,46.89l-.29.08C21.69,47.59,21.28,46.91,21.48,46.89Z"/><path class="cls-1" d="M28.12,50.34a2.07,2.07,0,0,1-.56-.2l-.33.2A3,3,0,0,0,28.12,50.34Z"/><path class="cls-1" d="M31.74,47.62l.07.39a10,10,0,0,0-.29-1.39C31.6,46.93,31.68,47.26,31.74,47.62Z"/><path class="cls-1" d="M43.43,42.31l-.41.15C42.86,43,43.19,43.32,43.43,42.31Z"/><path class="cls-1" d="M45.52,12.35c.31-.39.47-.45.47-.87A2.46,2.46,0,0,0,45.52,12.35Z"/><polygon class="cls-1" points="65.03 34.51 65.1 33.9 64.86 35.01 65.03 34.51"/></svg>