<svg id="Capa_1" data-name="Capa 1" xmlns="http://www.w3.org/2000/svg" viewBox="0 0 1198.47 146.8"><defs><style>.cls-1{fill:#fffcf4;}</style></defs><path class="cls-1" d="M1239.41,29.56c-20.45-14.3-48.87.54-65.64,19s-30.89,42-54.65,49.57c-28.83,9.22-58.84-9-82.23-28.19S988.78,28.43,958.52,27.9c-54.72-1-88.45,68.18-142.82,74.4-62.56,7.16-107.87-71.38-170.84-70.91-59,.45-100.43,69.93-159.41,69.71-57.53-.21-100.9-67.3-158.1-61.1-39.41,4.27-67.56,42.41-106.21,51.21-29.26,6.66-59.45-4.57-86.56-17.42S80.13,45.92,50.15,44.48s-63.53,16-68.38,45.63l-1.6,84.3,1256,23.87Z"/></svg>