<svg xmlns="http://www.w3.org/2000/svg" viewBox="0 0 1199.51 807.86"><defs><style>.cls-1{isolation:isolate;}.cls-2{fill:#c3d360;}.cls-3{fill:#e4eae9;}.cls-4{fill:#e4edf2;}.cls-5{fill:#c94d5b;}.cls-6{fill:#c3d266;}.cls-7{fill:#5da6bc;}.cls-8{fill:#fff;stroke:#1d1d1b;stroke-miterlimit:10;stroke-width:0.3px;}.cls-9{fill:#f0d44f;mix-blend-mode:darken;}</style></defs><g class="cls-1"><g id="Capa_1" data-name="Capa 1"><polygon class="cls-2" points="125.65 112.11 99.4 138.36 134.08 149.6 125.65 112.11"/><path class="cls-3" d="M504.86,723.7l-1.28.06c-5,.22-11.23.49-18.28,1s-15,1.06-23.45,1.73c-7.47.5-16.2,1.14-21.61,1.45-48.5,2.93-107.66,7.85-172.76,15.13l38.22-3.78c-18.82,2-37.39,3.92-58.31,6.62l7.27-.46C222.28,748.83,184,754,148.3,759.48S79.51,771.05,57.43,775.8C46.35,778.16,39,780,35.33,781.11c-3.23,1-3.74,1.48-1.67,1.48l1.11,0c6.55-.34,26.66-3.31,58.88-8.13l8.87-1.31c6.23-1.06,12.62-2.13,19.1-3.17,40.48-6.6,84.91-12.61,119.5-16.68l28.39-3.48c5.82-.66,11.18-1.24,15.93-1.73l17.1-2c9.85-1.2,19.76-2.2,29.65-3.3q29.81-3.27,59.63-6c16.84-1.86,32.88-3.59,47.78-5.18q-14.07,1.08-28.29,2.31c-46.53,3.94-86.51,7.43-130.42,12.23-9.11,1-16,1.72-17.61,1.72-.4,0-.49,0-.24-.13.64-.21,3.58-.71,7.75-1.29s9.56-1.24,15.08-1.88c36.58-4.53,74.52-8.49,112.69-12.17l28.66-2.57,14.32-1.26,14.32-1.13,28.52-2.22c6.85-.53,13.68-1,20.48-1.42"/><path class="cls-3" d="M168.33,766.72l-6.34.88-4.12.78,3.24-.43,7.22-1.23m117.11-18.66c-4.75.49-10.11,1.07-15.93,1.73l-28.39,3.48c-34.59,4.07-79,10.08-119.5,16.68-6.48,1-12.87,2.11-19.1,3.17-13.2,2.27-25.69,4.56-36.94,6.7C49,783.05,35.16,786,25.68,788.4c-5.22,1.32-4.38,1.51-2.48,1.51l1.28,0h1.28c.41,0,.77,0,1,0-.3.16-.18.24.34.24,3.67,0,27.33-3.95,57.44-9,9-1.52,17.65-3,25.57-4.32C150,770.69,191,765,229.93,760.27c7.65-.93,17-2.15,21-2.86,1.34-.24,1.64-.36,1-.36-.93,0-4,.29-8.88.84-27.95,3.21-55.06,6.52-82,10.06l-6.55,1.13c.92-.21,2-.44,3.31-.7l-7.54,1,5.68-.95,6-.84,3.4-.61c2.75-.47,5.81-1,9.09-1.5-21.3,2.93-42.67,6-63.93,9.37-12.41,2.09-24.1,3.79-26,3.81-1.67,0,7.15-1.79,19.88-3.93,35-6.23,72.16-12.1,110.44-17.48,9.57-1.35,19.2-2.71,28.9-4s19.45-2.56,29.25-3.76l12.4-1.49"/><path class="cls-3" d="M70.72,783.94c-7.92,1.21-15.52,2.44-26.76,4.52l-4.76,1c4.17-.69,9.82-1.61,15.46-2.49,11.11-1.77,16.78-2.91,16.06-3.07"/><path class="cls-4" d="M167.9,786.41l22.83-5.64-20.9,5.46-1.93.18m-46.7-7.64c2.54-.35,4.52-.58,7.76-1l-7.76,1m166.34-18.88,11.13-.78-.13,0-11,.76m89.82-16.21c18.32-1.73,38-3.27,57.84-5,5-.44,10-.81,14.94-1.18l14.93-1.13c9.93-.72,19.77-1.53,29.42-2.15l32-2.06c5.31-.33,10.61-.71,15.91-1l15.86-.86,31.62-1.72,31.52-1.41-14.8.82c-4.81.28-14.25.71-9.12.78-4.92.21-9.85.49-14.79.77l-14.84.84-29.9,1.72-30.19,2.06-15.22,1c-5.09.35-10.19.79-15.31,1.18l-22.65,1.85c-7.47.61-14.83,1.24-22,2l-25.43,1.39c-4.52.28-9.22.53-14.16.89l-15.59,1.17m442.19-30.51,6.79.76-12.6-.13-11.33-.06c-4.08,0-8.22,0-12.77,0-3.81,0-7.9,0-12.47,0l16.56.31h-1.21l-9.86,0c-8,0-16.46,0-25.26.1-12.52.23-25.72.55-39.17.91-59,.57-130.5,3.11-205.55,8.12l-7.82.52c-6.8.45-13.63.89-20.48,1.42l-28.52,2.22-14.32,1.13-14.32,1.26-28.66,2.57c-38.17,3.68-76.11,7.64-112.69,12.17-5.52.64-10.91,1.31-15.08,1.88s-7.11,1.08-7.75,1.29c-.25.09-.16.13.24.13,1.64,0,8.5-.7,17.61-1.72,43.91-4.8,83.89-8.29,130.42-12.23q14.22-1.23,28.29-2.31c33.43-2.58,66.32-4.62,99.43-6.63,42.43-2.25,85.24-4.39,130.17-5.91l15.78-.41c6.08,0,12.17-.13,18.28-.13l4.49,0-3.24.07c-10,.19-20,.56-30.07.83l5.55,0-29,1c-4.83.15-9.66.36-14.49.59l-14.47.66-28.91,1.3-28.82,1.58c-54.62,2.72-113.19,6.74-172.44,12.23q-29.77,2.76-59.63,6c-9.89,1.1-19.8,2.1-29.65,3.3l-17.1,2L273,749.55c-9.8,1.2-19.55,2.51-29.25,3.76s-19.33,2.6-28.9,4c-38.28,5.38-75.41,11.25-110.44,17.48-12.73,2.14-21.55,3.89-19.88,3.93,1.88,0,13.57-1.72,26-3.81,21.26-3.32,42.63-6.44,63.93-9.37q20.15-2.78,40.15-5.33c17.21-2.26,34.3-4.23,51.12-6.21,8.41-1,16.78-1.84,25.06-2.74s16.47-1.81,24.6-2.57c.34,0,.57,0,.71,0,.36,0,.17.09,0,.18s-.17.18.47.18c.36,0,1,0,1.89-.11l7.55-.63c-8.09.81-16.66,1.64-25.84,2.7-34.54,4.52-47.55,6.5-56.55,7.75h-.16l-2.7.39c-4.15.59-7.8,1.09-13,1.9l0,0-3.31.51-15.49,2c-5.83.75-11.47,1.57-14.29,2.1l-7,.71c-14.75,2-22.13,3-29.59,4.1L146,772.19c-4.72.68-10.39,1.5-17.94,2.67,0,0,.05.06.74.06h.33l-23,3.72-39.51,6.54,13.67-2-12,1.8,3.18-.12-5.57.49-5.07,1.26-3,.41c-3,.42-8.93,1.18-20.79,2.9h0c-1.83.36-6.2,1.23-17.14,3.49,0,0-3,.71-5.24,1.26-.25.19-.18.13-9.58,2.54,0,0-.15.14.48.14H5.9A22.9,22.9,0,0,1,8.78,797a2.66,2.66,0,0,1,.86.16l8-1.34,6.66-1.19,15.86-2.78-4,1c-1.34.57-2.1.89-.83.89,1.67,0,6.88-.55,19-1.78,0,0,11.76-1.68,30.76-4.59,22-3.5,22-3.54,47.49-7.38l15.13-2.17c7.17-.8,8.76-1,14.07-1.52h.12c-4.86.75-9.62,1.51-13.56,2.19-7.57,1.29-10.8,2-9.32,2,.76,0,2.75-.19,6-.58-7.17,1.72-7.68,2.41-3.77,2.41,2.91,0,8.26-.38,15.14-1-3.89.88-6.07,1.52-6.39,1.89-.08.09-.05.17.09.23-9.3,1.85-16.81,3.54-22.59,5a113.79,113.79,0,0,0-12.19,3.51l-2.09,1.29c2.76,0,8.09-.49,15.65-1.32l13-1.52,16.08-1.95,7.08-.84-6.57,1.77L171,788.18l14.7-1.36,16.22-1.6,17.16-1.61L236.53,782l17.18-1.47c11.22-1,21.82-1.82,31-2.37l27.63-2.21c10.05-.67,23-1.72,38.14-3.07l24.19-2.05,26.82-2.36,39.39-3.27,24.88-2c-10.46,1.11-19.74,2.05-27.64,3.09s-14.44,1.92-19.43,2.7c-10,1.57-13.73,2.64-9.83,3,1.06.1,2.63.15,4.67.15,23.63,0,110.13-6.38,204-11.15,14.77-.73,29.51-1.55,44.24-2.06s29.42-1.2,44.11-1.68l44-1.22c7.33-.24,14.65-.33,22-.45l21.95-.35,21.94-.36,21.92-.09,21.91-.09c4.89,0,9.78-.05,14.67-.05,2.41,0,4.83,0,7.24,0l43.79.38,11,.09,10.95.24,21.89.47c29.21.44,58.41,1.71,87.67,2.67,14.63.61,29.25,1.4,43.91,2.09l22,1.06,22,1.37,44.1,2.78,14.9,1.16V726.28c-5-.36-10-.69-14.91-1l-60.4-3.19c-3.44-.25-6.88-.41-10.58-.63-45.83-3-95.57-5.44-146.26-6.64-12.68-.31-25.41-.68-38.15-.92l-38.23-.45-19.05-.23h-19l-37.54,0"/><polygon class="cls-5" points="127.04 690.97 137.02 670.69 144.37 693.57 170.68 701.18 144.97 711.88 145 740.34 130.96 715.53 105.94 730.84 115.88 708.23 100.3 693.04 127.04 690.97"/><polygon class="cls-6" points="280.6 701.51 287.08 688.35 291.85 703.2 308.92 708.13 292.24 715.08 292.26 733.55 283.14 717.45 266.91 727.38 273.36 712.71 263.25 702.85 280.6 701.51"/><path class="cls-7" d="M1134.66,199a.2.2,0,0,0,.08-.1C1134.66,199,1134.64,199,1134.66,199Z"/><path class="cls-7" d="M1098.43,199.3l.43,0A1.24,1.24,0,0,0,1098.43,199.3Z"/><path class="cls-7" d="M1156.38,197.7l-.05,0,1.53-.11Z"/><path class="cls-7" d="M1079.79,142.43l-.27.36C1079.64,142.63,1079.73,142.53,1079.79,142.43Z"/><path class="cls-7" d="M1075.4,184.19a3.13,3.13,0,0,1-.3-.51A1.25,1.25,0,0,0,1075.4,184.19Z"/><path class="cls-7" d="M1168,198.75l-.63-.09C1167.4,198.72,1167.63,198.76,1168,198.75Z"/><path class="cls-7" d="M1190,196.53l-.06,0S1189.94,196.53,1190,196.53Z"/><path class="cls-7" d="M1181.35,196.61l-.61.1A1.73,1.73,0,0,0,1181.35,196.61Z"/><path class="cls-7" d="M1180.44,196.77l.3-.06C1180.57,196.73,1180.44,196.74,1180.44,196.77Z"/><path class="cls-7" d="M1200.21,193.6a14.29,14.29,0,0,0-1.72.3Z"/><path class="cls-7" d="M1127.14,109.23l0,.14C1127.17,109.26,1127.16,109.23,1127.14,109.23Z"/><path class="cls-7" d="M1199.51,194.82h-.45A2.22,2.22,0,0,0,1199.51,194.82Z"/><path class="cls-7" d="M1156.38,200.06c-.63.18-2,.13-1.93.26A7.28,7.28,0,0,0,1156.38,200.06Z"/><path class="cls-7" d="M1136.17,96.74l.45-.15Z"/><path class="cls-7" d="M1180.3,128.06v0l-.09-.12Z"/><path class="cls-7" d="M1181.68,131.58l-.36-.72A3.79,3.79,0,0,0,1181.68,131.58Z"/><path class="cls-7" d="M1198.49,193.9l-1,.16A7.06,7.06,0,0,0,1198.49,193.9Z"/><path class="cls-7" d="M1076.53,186.74l.12.29S1076.71,187,1076.53,186.74Z"/><polygon class="cls-7" points="1069.09 159.24 1069.09 159.23 1069.09 159.23 1069.09 159.24"/><path class="cls-7" d="M1069.05,160.83a8.65,8.65,0,0,0,0-1.59A5.19,5.19,0,0,0,1069.05,160.83Z"/><path class="cls-7" d="M1069.74,155.88l0,.18A1.21,1.21,0,0,0,1069.74,155.88Z"/><path class="cls-7" d="M1072.71,187.38h0Z"/><path class="cls-7" d="M1070.36,181.38a3.51,3.51,0,0,0-.08-.44A2.45,2.45,0,0,0,1070.36,181.38Z"/><path class="cls-7" d="M1075.46,141h0l0,0Z"/><path class="cls-7" d="M1117.87,120.54c0,.42,0,.85,0,1.28s.12.87.19,1.32a10.74,10.74,0,0,0,.23,1.34c.13.44.25.89.38,1.34s.26.93.39,1.26l.17.48.09.31a.14.14,0,0,1,0,.14.12.12,0,0,1-.05.07l0,0h0l-.06,0-.24.06-2.23.45-2.22.29-2.15.15a23.74,23.74,0,0,1-4.77.47l-.2-.36-1.52.12c-.62-.11,1.17-.07.08-.2l-.58.22c-.11-.13-4-.08-1.37-.34-2,0-4,0-6.08.1-1.37.06-.79.34-2.31.36-.32-.09.54-.11.4-.23a14.29,14.29,0,0,0-4.92.87l-.95.32-1,.39c-.37.13-.76.26-1.19.38s-.9.33-1.44.51l.34-.18c-.34.18-.85.39-1.28.56a5.34,5.34,0,0,0-.74.41.9.9,0,0,0,.74-.29,3.41,3.41,0,0,1,1.28-.52c0,.34-1.54.73-1.35.94a11.55,11.55,0,0,0-2.24,1.23,16.92,16.92,0,0,0-2.25,1.33c-.74.52-1.39,1.07-1.9,1.38-.49.6-.88,1.4-1.89,2.63-.89.74,0-.37-1,.82v.3c-.76,1-.67.84-.72.75-.76,1.13-.43,1.07-1.38,2.46l.33-.9c-.57,1.12-.87,1.53-1.64,3.08-.08-.08.23-.71.5-1.14-.68.7-.61,1.5-.86,1.95.13-.11.68-1.18.58-.57a12.87,12.87,0,0,0-.48,1.22,3.23,3.23,0,0,1-.47,1l.19-.93c-.27.85-.31,1.09-.39,1.35s-.2.54-.55,1.5c0-.11,0-.07-.06-.13a16.22,16.22,0,0,1-.59,2.13l-.41,1.22c-.13.42-.25.87-.36,1.33l0-.36c-.11.76-.07,1.2-.16,1.6.33-1,.33-.73.51-.78a4.24,4.24,0,0,0-.35,1.86,14,14,0,0,1-.29,2.56,1.69,1.69,0,0,1,.06-1.23,5.26,5.26,0,0,1-.26-2.4c-.1.88-.25,1.91-.34,1.68l.23.32-.21,1.34c.14.25.44-1,.38.21-.12,1.38-.38.7-.29.93a14.29,14.29,0,0,1,0,2.63,2.72,2.72,0,0,1,0-.7c-.11.65-.14,1.46-.2,2.15a3.17,3.17,0,0,1-.27,1.45,1.07,1.07,0,0,1-.13-.73l0,0c-.21-1.47,0,1.22-.25.75.09-.05.12.4.11.95s0,1.24,0,1.66l.2-.27c.33,1.38.25,1.34.08,1.31s-.41-.07-.28,1.32c.25,1.74,0-.67.22.39l0,1.49a9.44,9.44,0,0,0,.22,1.88c0,.49,0,1.49-.18,1.62.15.51.29,1.31.43,2.05a6.75,6.75,0,0,0,.53,1.69c-.27-1.82-.67-1.73-.79-3.88.1.19.22.37.33.55.25,1.45.82,3.25,1,4.24,0-.21,0-.31.1-.2.35,1,.62,1.61.89,2.22s.54,1.22.89,2.17c-.1.33-.51-.79-.82-1.61a9.63,9.63,0,0,0,.43,1.38c.18.4.42.87.8,1.82-.12.18-.55-1.27-.8-1.42.33.69.63,1.39,1,2.06l0,0c.44.15.74,1.58,1.58,2.72,1.79,2.82,2.53,2.92,3.89,4.13.28.41.33.57.13.47-.47-.68-.45-.5-.7-.66.79.79,1.5,2,1,1.62,1.36,1.2-.36-.56.49.14.62.54,1.21,1.12,1.86,1.62-.14-.3-.79-.86.29-.18.88.6,1.26.95,2.46,1.66-.21,0,.27.43-.63-.12a5.15,5.15,0,0,0,1.91,1c-1.31-.78,2.32,1,1.39.25.44.24.9.45,1.36.67a6,6,0,0,1-.87-.25c.33.37,1.2.38,1.7.53a19.91,19.91,0,0,1,1.93.67,6.82,6.82,0,0,1,1.83.44c.71.07.08-.14.29-.18.8.14,1.6.16,2.4.24.12.14.31.52-.06.54.93,0,.35-.36,1.68-.3-.77.23,1.74.23.63.5a21.44,21.44,0,0,0,4.12.22c.74-.18-1.29-.15-1.21-.35,3.35,0,3.56-.6,6-.47l-.64-.06a13.6,13.6,0,0,0,2.25-.25c-.42.26,1.74.66,4.26.57.21-.13-1.41-.22-1-.43l1.66-.06c.13,0-.06.07-.27.1,1.49-.1,2.79.29,3.21,0l1.53.33-.6-.14a19.17,19.17,0,0,1,2.22-.28,11.48,11.48,0,0,1,3.28,0c-.31-.09-1.06-.3.29-.39,0,.41,2.82,0,2.79.24.55,0,1.52.06,1.57-.11l-.08.26c.11-.36,2.09-.45,3.6-.59-.31.5,1.67-.13,2.36.27.27-.34,2.68-.29,2.93-.59,1.17-.09,1.07.22,1.37.31l.54-.16c.6.12,2.79,0,4.09,0l1.19-.37.46.1c.19-.09,1.19-.21.56-.27l.66,0c0-.32.91-.15,2.21-.38.3,0,.23.11,0,.17.65,0,.38.14.75.22-.47-.05,2.3-.75.53-.76-.13-.12.89-.29,1.54-.28l.41.25.75-.36a18.69,18.69,0,0,1,2.25,0c-.82.08-1.8.69.34.52a18.29,18.29,0,0,0-2.24.43c.44,0,.67,0,0,.16,1.68-.22.55-.22,2.21-.39-.07.27.4.31,1.85.28l-1.1-.1a.84.84,0,0,1,.21-.08c-.42,0-.54,0-.63-.12a11.54,11.54,0,0,1,2.19-.34c-1.7-.26,2.89-.54,1.8-.69a3.53,3.53,0,0,1,1.47-.08c-1.37.3,1.07.2.86.4.51-.12-1.1-.1-.41-.25a8.51,8.51,0,0,1,1.91.06l-.34.08h1.28c.2-.15-1.25-.12-.08-.28.31,0,1.49-.14,1.46,0-.55.22-.12.42-1.12.54.83-.08,3.48-.33,2.39-.48l1-.07c-.63-.06-2.39-.11-.4-.31l0,.06,1.37-.31.62.08c0-.06.19-.14.7-.18.14.07.63.06.6.16,1.49-.13,1.35-.25,1.54-.34.83-.08,1.15-.06.77.12,1.15-.06,3.13-.24,3.92-.17,1.52-.24-.32,0,.56-.27,1.36.33,5.06-.22,7.54-.46-.7-.34.68-.1,1.11-.49-.53.16,2.38.14.21.4l1.33-.13c.92.15-2.19.31-.79.51,1.49-.12,2.43-.61,4.2-.59-.57.32,1.34-.18.93.15a6.31,6.31,0,0,1-1.35.18l.32,0c3.27-.15.92-.39,2.62-.69,2-.15,1.58.12,1.71.25a10.17,10.17,0,0,0,1.83-.17c-1.21.24-2.26,0-1.71-.25a9.11,9.11,0,0,0,3.49-.31c-2.86-.16-2,.11-4.66-.09-.36.12-.29.4-1.9.38,1-.2-.08-.15-.36-.18.32.14-1.11.15-1.6.25-.45-.1.94-.44-.69-.4l-.28.4c-.64,0,.25-.29-1.1-.11.72-.25-.24-.29,1.59-.48-2.21-.17-3.34.4-5,.67.17,0,.19-.09.36-.13a8.72,8.72,0,0,1-1.52.23c-1.13,0,.88-.23.58-.32l-1.82.15,0,0a2.78,2.78,0,0,1-1.1.07c.53-.16.74-.3,1.09-.43l-1.88.41c.19-.15-1.59-.1-.24-.3l-2.82.28-.26-.24c-.67.1-.69.15.12.12-1,0-4.24.79-3.77.24-2.2.39-3,.38-5.67.72,2-.4-2.39-.1-.22-.39a11.89,11.89,0,0,0-2.53.42c-1,0-.55-.32.46-.5l-1.19.22,0,0-1,.23c-1.12,0-.26-.24-1.4-.18l-.23.24-.79-.06c.3.08-.37.18-1.2.26l0-.05-1,.12c1-.21-.92,0-.48-.17-.86.06-.88.06-2.43.23l.29.13c-2,.3-.11-.22-1.75-.1l.12.17c-2.39-.12-4,.48-5.77.42,1-.12.73-.31.72-.26-1.5.19-4,.31-5.51.64a4.86,4.86,0,0,0-2.33-.29,4.25,4.25,0,0,0-1.71.3c-1.13,0-3.24.26-3.3.07-.26.17-1,0-1.63.2l-.14-.07.11.17c-2-.29-3.37.41-5.4.17l.34-.06-.85.11c-.13-.07.21-.14.24-.24l-3.94.14.78.1a14.17,14.17,0,0,1-2.34.18c1.57-.34-1.31,0-1.57-.16l.84-.1c-1.15.06-1.15.06-1,.24-1.5.1-1-.32-2.42-.08l1,0c.3.09-.41.26-1.07.27-.15,0-.62-.08-.12-.12-1.18.1-3,.07-3.48.14s-.43-.18-.08-.23c-2.53.19-1.14,0-3.68.17l0-.1-.87.13-1.24-.2.44.13a19.65,19.65,0,0,1-2.32,0l.39-.14c-2.34.07-2.7-.27-4.93-.07-.15,0,.2-.07.38-.1-2.07.2-1.55-.3-3.63-.06.13-.05-.1-.12,0-.16l-.94.07.08-.2-.78.28-.57-.22-.37.09a5.32,5.32,0,0,0-1.66-.35c-.31,0-.63-.05-.94-.12a5.16,5.16,0,0,1-.92-.29l.17.29a11.1,11.1,0,0,1-1.27-.08c-.43-.08-.86-.19-1.3-.3-.22-.07-.45-.12-.67-.2l-.65-.26a13.85,13.85,0,0,1-1.31-.59,35.07,35.07,0,0,1-4.9-3.22l.18-.11c-.45-.29-.92-.57-1.36-.89-.48-.74.48.25.37,0a4.15,4.15,0,0,0-1-.76,3.64,3.64,0,0,1-1.1-1c-.55-.89.34.18.71.51a22.27,22.27,0,0,1-2.07-2.47,11.49,11.49,0,0,1-.87-1.32,8.41,8.41,0,0,1-.6-1.11s-.1-.07-.08,0a24.16,24.16,0,0,1-1.85-4c.1,0,.24.33.38.65a8.55,8.55,0,0,0-.59-1.53l.35.44c-.09-.26-.21-.57-.34-.9l-.34-1a3.26,3.26,0,0,1-.3-1.37c0,.15-.2.14-.43-.78a4.65,4.65,0,0,0-.3-1.65c-.1-.37-.22-.78-.31-1.18a7.48,7.48,0,0,1-.16-1.2,9.07,9.07,0,0,1,.24.95,8.25,8.25,0,0,0-.48-2.07l.15.19c-.19-1.17-.39-2.35-.5-3.54.23-.54-.15-3.36.08-3.12,0-1.28-.16,1.07-.17-.55.14-.42,0-1.46.17-1.38l0,.17c0-.38,0-.75,0-1.12l.16.71a3,3,0,0,0-.29-1.75,17.74,17.74,0,0,1,.47-2.61c0,.12,0,.23,0,.35.26-2.58,1.21-4.09,1.37-6.11.06-.14.11-.11,0,.2.12-.52.29-1,.44-1.51l0,.4.25-1.28.31-1.25.09.06a42.66,42.66,0,0,1,2.69-5.94l-.12.3a10.64,10.64,0,0,1,1.16-1.92c.29-.39.55-.7,1-1.41a.87.87,0,0,1-.07.17c.3-.41.62-.8,1-1.18l-.14.32a4.92,4.92,0,0,1,1.31-1.38c.46-.34.76-.5.45-.35.38-.49,1.13-1.24,1.21-1.44,1.34-.9.41-.11,1.28-.58.49-.32.75-.54,1.1-.72a10.37,10.37,0,0,1,1.47-.73v.11c.7-.26,1.09-.52,2.09-.86-.09,0-.2.08-.29.14a6.84,6.84,0,0,1,1.84-.48,4.24,4.24,0,0,0,1.58-.47c.73-.09,2.15-.28,2.1-.08a49.63,49.63,0,0,1,6.29-.62c.37.33.49,0,1.9.15l-.11-.18c3.29,0,7.15.49,11,.13l.12.17.75-.26c.65,0,1.35-.13,2-.19.36,0,.71-.07,1.06-.13l1.07-.18,1.05-.19a9,9,0,0,0,1.31-.31,5,5,0,0,0,3.54-6.29c-.08-.38-.12-.52-.18-.75s-.12-.38-.17-.56c-.11-.35-.21-.63-.26-.86-.16-.4-.36-.92-.59-1.49a13,13,0,0,1-.29-2l0,.15a14.6,14.6,0,0,1,1.29-7.67c0,.19.17,0,.08.26a6.58,6.58,0,0,1,.94-2,4.4,4.4,0,0,0-.43.56,5,5,0,0,1,1.23-2l.57-1.13a.67.67,0,0,1,.19-.15l.06-.23a4,4,0,0,1,.59-.39c.17-.26,1.18-1.58,1.43-2.08.15,0,1-.81.41-.14a21.78,21.78,0,0,1,3.64-2.78l-.64.33c-.09,0,.14-.29.47-.57a5.33,5.33,0,0,1,1.13-.66c-.75.58.06.26.47.19.5-.39-.55.12-.31-.13a9.25,9.25,0,0,1,2.55-1.29l-.41.25a3.36,3.36,0,0,1,1.26-.34,7,7,0,0,0,1.25-.24c.9-.34,1.61-.35,1.36-.62,1.36-.3.56.12,1,.08a7.12,7.12,0,0,1,1.54-.24,4.2,4.2,0,0,1,1.27.11,4.09,4.09,0,0,1,2.18-.11c.87.07,1.67.27,1.84.08.37.11.73.22,1.1.37.05-.09.31-.28,1.24-.15.85.28.6.43.83.59l.67-.22a47.74,47.74,0,0,1,7.84,3.4,32.71,32.71,0,0,1,7.17,5.33,37.55,37.55,0,0,1,6,6.26l-.24-.23c.56.82,1.14,1.62,1.67,2.46-.35-.63-.75-1.23-1.13-1.85a16.48,16.48,0,0,1,1.15,1.38c1.76,2.77,3.82,6.63,5.75,10.25a4.33,4.33,0,0,1,.94,2,4.89,4.89,0,0,0,.78,2,4.69,4.69,0,0,0-.33-.4c1.23,2.46,1.85,3.82,3.08,6.31-.12,0-.15.05-.12.2a1.61,1.61,0,0,0,.09.26l.18.45c.32.8.67,1.53.5,1.4l.29.27c.15.55.45,1.45.7,2.2l.08.27,0,.13s0,.09.07.06l.37-.07c.19,0,.27,0,.17,0l2.21-.85.18.14,1.21-.35,1.19-.43c.58-.19,1.18-.45,1.76-.68a13,13,0,0,1,2.7-.89c3.69-1.94,9.37-5,13.74-5.53a7.74,7.74,0,0,1,1.27-.26,11.59,11.59,0,0,1,1.55,0,8,8,0,0,1,1,.34c.24,0,.49,0,.73,0l.73.12a5.59,5.59,0,0,1,.71.15,3,3,0,0,1,.62.3s0,0-.11,0c.91.36,1.65,1,2.54,1.39.9.69,1.63,1.6,1.24,1.49.16-.09.6.35,1,.84a10.44,10.44,0,0,1,.71,1s.63.73,1.7,2.18,2.6,3.61,4.2,6.32a46.46,46.46,0,0,1,4.44,9.79,33.38,33.38,0,0,1,1.28,5.93,29.55,29.55,0,0,1,0,6.31,24.83,24.83,0,0,1-1.49,6.2,19.36,19.36,0,0,1-3.18,5.39,20.67,20.67,0,0,1-4.58,4.18l-.63.44-.68.39c-.44.26-.87.54-1.33.77-.93.45-1.82.92-2.77,1.28a55,55,0,0,1-10.75,3.07c-3.28.65-6.08,1.07-8.1,1.45-.53.22-2,.43-1.45.6-1.18.14-1.74-.14-2,.05,1.61,0-.47.48,1.11.61l-1,.1c-.2.14,1.36-.22,1.13,0l.26-.35a6.93,6.93,0,0,1,1.57.13,7.24,7.24,0,0,1,3-.62l-.5.07c1.48-.15.93.13,1.24.15l-.33,0c.43,0,.85,0,1.27,0-1,0-2.5.39-1.68.3,1.78-.07-.47,0,.86-.2.82-.09.61.1.58.21l1.48-.18c0,.16-1,.1-.36.19.61-.12,1.23-.23,1.84-.38.4.33,2-.45,2.9-.26-1.32.32.14.11,0,.27l1.63-.3,1.63-.36c.32,0-.83.3-.34.18a4.19,4.19,0,0,0,1.31-.39c.31,0,2.4-.63,2.38-.37,1.11-.26,1.32-.41,1.5-.56s.35-.26,1.36-.58c.15,0-.24.18-.55.31s-.55.21-.08.14l2-.84a2.13,2.13,0,0,1-1.09.65,39.11,39.11,0,0,0,7-3,19.72,19.72,0,0,0,2.92-1.94c.46-.39.9-.83,1.37-1.29a11.31,11.31,0,0,0,1.32-1.55c.65-.51-.27.53-.54,1.06.6-.86,1.18-1.53,1.67-2.16.24-.33.47-.63.7-.92l.62-.87a15.48,15.48,0,0,0,2.15-4l-.12-.12a22.35,22.35,0,0,0,1.9-7.78,38.58,38.58,0,0,0-.4-8.46V162a11.29,11.29,0,0,1-.39-1.35c-.14-.5-.29-1-.42-1.44,0-.15.49.55,0-1,0,.34.16,1,0,.83a29.91,29.91,0,0,0-1.09-4.28,43.59,43.59,0,0,0-2.17-5.23,76.61,76.61,0,0,0-6.33-10.37,36.42,36.42,0,0,0-5.54-6,18.21,18.21,0,0,0-3.77-2.44c-.34-.17-.71-.3-1.07-.46l-1.1-.34-1.11-.33-1.14-.18a19.74,19.74,0,0,0-8.73.83,51.15,51.15,0,0,0-7.28,3c1.37-.65.94,0-.13.37-3.07.73-4.74,2.41-7.68,3.07l-.46.17-.22.09-.06,0h0l-.11,0-.11,0s-.08,0-.08,0,0-.16,0-.22v0h0l0-.06,0-.12-.17-.48-.34-.95a47.83,47.83,0,0,0-3.29-7.36l.12-.17a9.21,9.21,0,0,0-.86-1.68h.06c-.8-1.86-2.14-3.93-2.63-5l-.21,0a10.45,10.45,0,0,0-.9-1.63l.1,0c-.3-.38-.6-.76-.91-1.13.18,0-.26-.77-.82-1.59s-1.23-1.74-1.47-2.17c-1-1.26-2.93-3.51-4.52-5.32a10.24,10.24,0,0,0-1.33-1.64c-.73-.74-1.59-1.61-2.3-2.25a45.16,45.16,0,0,0-5.25-3.82,48.67,48.67,0,0,0-6.44-3.37v.25l-1.15-.44s-.11-.13.07-.08a3.33,3.33,0,0,0-.78-.41c-.31-.11-.66-.21-1-.3-.69-.19-1.4-.37-1.87-.56.56.35.84.25,1.51.48.94.43,0,.31-1.33-.17l0,0-.94-.11c-.06-.2-.87-.5-.94-.69a28.67,28.67,0,0,0-5.55-.53H1145c-.45,0-.9,0-1.37.08s-.94,0-1.44.09l-1.54.18c.21-.12-.56,0-1.27.12s-1.37.26-1,0c-1.27.32-1.14.43-.84.41s.77,0,.22.26c-.7.19-1.4.53-1.57.44.31-.18-.63,0-.07-.23l-.84.28-.81.35c-.16,0,.18-.16.35-.25l-1.19.56a9.66,9.66,0,0,0-1.12.54c-.71.39-1.43.71-2.08,1.11s-1.3.8-1.92,1.25-1.19,1-1.76,1.52c-.1.24,1-.78.9-.53l-.76.71-.56.56c-.33.32-.6.54-.86.75a9.86,9.86,0,0,0-1.9,2.09l.27-.58a17.26,17.26,0,0,1-1.67,2.47c-.33.11.64-1.2,1-1.89-.32.45-.88,1.25-1.26,1.86s-.53,1.1-.25.78c-.59,1.17-1,1.48-1.34,2.12,0,0,.64-1.06.4-.31a21.76,21.76,0,0,0-2.3,6.38s-.15.12-.14-.08a7,7,0,0,1-.22,1.79c-.07.24-.14.5-.21.86A9,9,0,0,0,1117.87,120.54Z"/><path class="cls-7" d="M1073.07,188.15l-.36-.77s-.11,0-.32-.31Z"/><path class="cls-7" d="M1071.23,150c0-.1,0-.2,0-.3A.6.6,0,0,0,1071.23,150Z"/><path class="cls-7" d="M1075.19,141.18c-.35.6,0,.11.27-.14C1075.43,141,1075.39,141,1075.19,141.18Z"/><path class="cls-7" d="M1090.49,201.62c-.15,0-.24,0-.22,0C1090.47,201.67,1090.51,201.65,1090.49,201.62Z"/><path class="cls-7" d="M1149.86,200.57h0Z"/><path class="cls-7" d="M1146.57,200.5l-.66.08A3.28,3.28,0,0,0,1146.57,200.5Z"/><path class="cls-7" d="M1077.62,194a3.33,3.33,0,0,0-.46-.46A3.08,3.08,0,0,0,1077.62,194Z"/><path class="cls-7" d="M1145.23,200.68l-.82,0,0,0Z"/><path class="cls-7" d="M1150.9,200.52c-.33,0-.76,0-1,0A4.23,4.23,0,0,0,1150.9,200.52Z"/><path class="cls-7" d="M1112.44,202.13h-.09C1111.71,202.23,1112.11,202.19,1112.44,202.13Z"/><path class="cls-7" d="M1141.66,201.28h-.12l-.23.08Z"/><path class="cls-7" d="M1154.45,200.32a1.51,1.51,0,0,0-.4.07l.47,0A.15.15,0,0,1,1154.45,200.32Z"/><path class="cls-7" d="M1124.84,202.06c.23-.08.32-.14.32-.18C1124.89,201.9,1124.71,201.94,1124.84,202.06Z"/><polygon class="cls-4" points="190.72 780.77 167.9 786.41 169.83 786.23 190.72 780.77"/><path class="cls-4" d="M1188.74,765.83l-44.1-2.78-22-1.37-22-1.06c-14.66-.69-29.28-1.48-43.91-2.09-29.26-1-58.46-2.23-87.67-2.67l-21.89-.47-10.95-.24-11-.09-43.79-.38c-2.41,0-4.83,0-7.24,0-4.89,0-9.78.05-14.67.05l-21.91.09-21.92.09-21.94.36-21.95.35c-7.32.12-14.64.21-22,.45l-44,1.22c-14.69.48-29.39,1.13-44.11,1.68s-29.47,1.33-44.24,2.06c-93.85,4.77-180.35,11.15-204,11.15-2,0-3.61,0-4.67-.15-3.9-.4-.14-1.47,9.83-3,5-.78,11.52-1.69,19.43-2.7s17.18-2,27.64-3.09l-24.88,2-39.39,3.27-26.82,2.36-24.19,2.05c-15.11,1.35-28.09,2.4-38.14,3.07l-27.63,2.21c-9.21.55-19.81,1.42-31,2.37L236.53,782l-17.45,1.65-17.16,1.61-16.22,1.6L171,788.18l-12.57,1.11,6.57-1.77-7.08.84-16.08,1.95-13,1.52c-7.56.83-12.89,1.28-15.65,1.32l2.09-1.29a113.79,113.79,0,0,1,12.19-3.51c5.78-1.43,13.29-3.12,22.59-5-.14,0-.17-.13-.09-.22C59,796.92,7.43,808,7.43,808l-.07,1.85H1203.64V767Z"/><path class="cls-8" d="M1168.72,544.82a9.5,9.5,0,0,0-1.12-2.93,4,4,0,0,0-2.31-1.81,5,5,0,0,0-3.1,0,12,12,0,0,0-4,2.15c-.35.27-.54.69-.88.92a7.76,7.76,0,0,0-1.49,1.54,5.11,5.11,0,0,1-.39.42,1.48,1.48,0,0,1-1,.49c-.66,0-1.33.12-2,.2a3.34,3.34,0,0,1-1.54.06,1.93,1.93,0,0,0-.71,0,2.42,2.42,0,0,1-.71,0,4.23,4.23,0,0,0-1.7,0,7.44,7.44,0,0,1-2,0,8.11,8.11,0,0,0-1,0,9.34,9.34,0,0,1-2.69-.13,1.88,1.88,0,0,0-.71,0,5.65,5.65,0,0,1-2.28,0,.85.85,0,0,0-.42,0,5.41,5.41,0,0,1-1.84,0c-.33,0-.67,0-1,0a3.79,3.79,0,0,1-1.7-.18.6.6,0,0,0-.42,0,2.66,2.66,0,0,1-1.4,0,2.27,2.27,0,0,0-.86,0,5.12,5.12,0,0,1-1.83-.09,18.86,18.86,0,0,0-2.71-.28,4.83,4.83,0,0,1-.84-.11,21.77,21.77,0,0,0-2.39-.43,8.42,8.42,0,0,0-2.55-.27,2,2,0,0,1-.43,0,11.7,11.7,0,0,0-2.7-.3,4.33,4.33,0,0,1-.71-.1l-3.07-.56a24.15,24.15,0,0,1-3.76-.88,7.6,7.6,0,0,0-2-.46,3,3,0,0,1-.7-.16l-2.57-.86a4.69,4.69,0,0,0-.84-.21,34.43,34.43,0,0,1-3.48-.81,1.15,1.15,0,0,0-.82,0,.52.52,0,0,1-.55,0,2.57,2.57,0,0,0-1-.42,25.21,25.21,0,0,0-3.1-.57c-.71-.31-1.51-.24-2.22-.53a10.1,10.1,0,0,0-2.24-.44,1.47,1.47,0,0,1-.28-.08c-1.26-.58-2.68-.68-4-1.24a1.27,1.27,0,0,0-.28-.06,17.57,17.57,0,0,1-3-.84,1.93,1.93,0,0,0-.69-.19,4.69,4.69,0,0,1-1.51-.44,5.3,5.3,0,0,0-.67-.23c-2-.49-4-1.17-6-1.76-1.14-.33-2.32-.56-3.44-1a4.18,4.18,0,0,0-.71-.09,4.59,4.59,0,0,1-.83-.21,33.34,33.34,0,0,0-4.39-1.26c-1.06-.28-2.15-.44-3.21-.75a9.11,9.11,0,0,0-2.38-.45c-.24,0-.48-.06-.71-.09-2-.3-4-.72-6.11-.85-.66,0-1.33-.11-2-.14a10.54,10.54,0,0,0-2.57.19,11.7,11.7,0,0,0-2.71.08,7.2,7.2,0,0,1-1,.15,22.86,22.86,0,0,0-3.41.42,19.08,19.08,0,0,0-2.26.4c-2.07.57-4.15,1.12-6.18,1.82-.86.3-1.74.5-2.57.88-1.28.22-2.42.88-3.68,1.18a2.18,2.18,0,0,0-.38.18c-.47.23-1,.46-1.41.7l-1.53.78c-1,.5-1.9,1.1-2.88,1.58l-.24.16c-.84.63-1.85,1-2.67,1.66a3.06,3.06,0,0,1-.51.26,3.9,3.9,0,0,0-.62.37c-1.13.88-2.26,1.75-3.37,2.66a4.31,4.31,0,0,0-1.28,1.34,1.06,1.06,0,0,1-.28.32,2.27,2.27,0,0,0-.84,1,2,2,0,0,1-.46.54,13.49,13.49,0,0,0-1.63,2c-.22.32-.48.6-.7.91-.59.8-1.27,1.54-1.86,2.35a10.15,10.15,0,0,1-1.47,1.93,2.16,2.16,0,0,0-.37.6,5.54,5.54,0,0,1-1.32,1.86,3.34,3.34,0,0,0-.51.69c-.21.31-.43.63-.63,1a17.67,17.67,0,0,0-1.27,2.07c-.39.82-.83,1.61-1.24,2.42a11.11,11.11,0,0,0-1.11,2.63,5,5,0,0,1-.46,1.2,2.94,2.94,0,0,0-.5,1.61,1,1,0,0,1-.09.4,4.31,4.31,0,0,0-.31.79,21.27,21.27,0,0,0-.55,3,1.71,1.71,0,0,1-.39.9.75.75,0,0,1-.58.36,10.39,10.39,0,0,0-2.55.36c-.68.23-1.35.48-2,.73a.37.37,0,0,0-.19.2c-.11.3-.36.42-.6.59a2.21,2.21,0,0,0-.74.86l-.75,1.54a1.29,1.29,0,0,0-.12.7,2.62,2.62,0,0,1,0,.56,22.12,22.12,0,0,0-.11,3.15c0,.62.08,1.24.12,1.86.48,1.16.32,2.46.79,3.62a5.32,5.32,0,0,0,.83,2.56c.1.18-.12.22-.14.35a2,2,0,0,0,0,.42c.14,1,.53,1.93.6,2.94a.33.33,0,0,0,0,.13c.43.74.53,1.65,1.17,2.28a.33.33,0,0,1,0,.4c-.15.3-.28.61-.43.91a18,18,0,0,0-1.35,3.77,8.37,8.37,0,0,1-.63,2.18.16.16,0,0,1-.1.08c-.09,0-.21,0-.25-.06-.15-.23-.28-.49-.44-.73a9.64,9.64,0,0,0-.92-1.28c-.4-.42-.47-1-.9-1.44a8,8,0,0,1-.81-1.33,15.84,15.84,0,0,0-1.72-2.28c-.74-.81-1.35-1.72-2.08-2.54-.38-.42-.64-1-1.05-1.35a13.32,13.32,0,0,1-1.58-2,13.61,13.61,0,0,0-1.42-1.79,15.55,15.55,0,0,1-1.66-1.78,1.57,1.57,0,0,0-1.27-.57.92.92,0,0,0-.89.6,1.93,1.93,0,0,0-.13.7,13.35,13.35,0,0,1,.1,2.28,1.63,1.63,0,0,0,.08.42,17.44,17.44,0,0,1,.31,2.27,29.6,29.6,0,0,0,.57,4.69c.1.61.21,1.22.3,1.83.07.43.09.86.18,1.28a4.45,4.45,0,0,0,.28,1.25c-.21.43,0,.84.07,1.26.08.66.18,1.32.26,2a1.55,1.55,0,0,1,0,.43,2.51,2.51,0,0,0,.19,1.53c0,.09.11.19.09.26a5.65,5.65,0,0,0,.23,2.38c0,.14,0,.28,0,.42a6.24,6.24,0,0,0,.23,2.27,1.42,1.42,0,0,1,0,.42,9.74,9.74,0,0,0,1.58,4.4c.35.57.71,1.13,1,1.71a4.63,4.63,0,0,0,1.05,1.35,10.12,10.12,0,0,1,1.47,1.73,11.14,11.14,0,0,0,.78,1,28.27,28.27,0,0,0,2.63,2.62,9.37,9.37,0,0,0,2,1.39,11,11,0,0,0,3.4,1.07c.95.32,1.93.58,2.84,1A29.37,29.37,0,0,1,996,628.5a1.65,1.65,0,0,0,1.36.24.37.37,0,0,1,.38.16,4.19,4.19,0,0,1,.49.7,22.92,22.92,0,0,0,1.32,2c.51.76,1,1.5,1.55,2.25s1.31,1.36,1.79,2.19a1.75,1.75,0,0,0,.29.32,8.38,8.38,0,0,0,2.49,1.89,1.36,1.36,0,0,1,.42.38,12.2,12.2,0,0,0,2.41,2,11,11,0,0,1,1.77,1.19,24.3,24.3,0,0,1,2.57,1.7,34.89,34.89,0,0,1-2.3,5.11,1.47,1.47,0,0,0-.2.81c-.52.8-.85,1.7-1.34,2.52a11.89,11.89,0,0,0-.86,1.8,6.81,6.81,0,0,1-1.1,1.83,1.84,1.84,0,0,0-.24.51,1.66,1.66,0,0,1-.24.52c-.52.58-.63,1.39-1.11,2a21.2,21.2,0,0,1-1.67,3.16c-.24.46-.41.95-.62,1.42s-.56,1-.84,1.49c0,.57-.44.94-.69,1.39a3.84,3.84,0,0,0-.71,1.53,1.71,1.71,0,0,1-.32.63c-.17.29-.37.56-.53.85s-.41.76-.6,1.15a5.77,5.77,0,0,0-.53,1.16c-.12.45-.55.63-.7,1.06a5.42,5.42,0,0,1-.88,1.62c-.41.48-.5,1.16-1,1.53-.29.54-.59,1.08-.89,1.62a.94.94,0,0,1-.16.23,11.11,11.11,0,0,0-1.34,1.86c-.24.35-.56.65-.79,1a11.09,11.09,0,0,1-.73,1.21,8.45,8.45,0,0,0-1.14,1.81c-.38.74-1,1.28-1.43,2a3.37,3.37,0,0,0-1,1.32,7.63,7.63,0,0,1-.64,1c-.81,1-1.42,2.15-2.32,3.08a2.44,2.44,0,0,0-.32.47,15.8,15.8,0,0,1-2.05,2.55,3.53,3.53,0,0,0-.7.9,4.76,4.76,0,0,1-.72.87,4.57,4.57,0,0,1-.89.92,5.4,5.4,0,0,0-1.39,1.43,2.24,2.24,0,0,1-.61.58,6.21,6.21,0,0,0-1.19,1,5.54,5.54,0,0,1-1.79,1.4,4,4,0,0,0-1.48,1.31.74.74,0,0,1-.43.35,2.67,2.67,0,0,0-1.26.9.48.48,0,0,0-.09.11l-.19.07-1.37.6a2.24,2.24,0,0,1-.38-.29,3.27,3.27,0,0,0-1.31-.73l-.52-.35a1.39,1.39,0,0,0-1.38-.06c-.32,0-.65-.06-1-.07a.89.89,0,0,0-.75.35,7.48,7.48,0,0,0-.54.84.74.74,0,0,0-.08.41,2,2,0,0,0,1,1.77l.51.27,2.59,1.21a1.46,1.46,0,0,1,.37.2.25.25,0,0,1,0,.25,3.26,3.26,0,0,1-1,.81,9.33,9.33,0,0,0-3,2.13,2.69,2.69,0,0,0-.63,2,.54.54,0,0,0,.09.27,1.44,1.44,0,0,0,1.28.78,4.11,4.11,0,0,0,.85-.1c.32-.07.64-.19,1-.29a2.93,2.93,0,0,0,1.11-.63,4.22,4.22,0,0,1,.84-.52c.11-.06.32.1.3.21a7.76,7.76,0,0,1-.15.84c-.11.47-.26.92-.35,1.39a14.61,14.61,0,0,0-.09,3.85,2.47,2.47,0,0,0,.17.7,1.25,1.25,0,0,0,1.63.74,1.16,1.16,0,0,0,.82-.91l0,0,0,0c.08,0,.21.07.24,0,.19-.21.34-.45.53-.66,0,0,.22,0,.23,0a6.83,6.83,0,0,0,1.32,2,1.85,1.85,0,0,0,1.13.56.67.67,0,0,0,.28,0,1.58,1.58,0,0,0,1-.91,5.38,5.38,0,0,0,.18-.69c.11-.56.19-1.12.31-1.68,0,0,.19-.11.22-.09.23.18.42.39.64.56a1.84,1.84,0,0,0,1.36.35c.36,0,.54-.35.76-.6a1.39,1.39,0,0,0,.36-1.19,5.23,5.23,0,0,0-.06-.57,9.15,9.15,0,0,0-1.38-3.43c-.28-.38-.57-.77-.83-1.17q-.66-1-1.29-2a.58.58,0,0,1,.12-.77c.43-.37.87-.74,1.33-1.08a7.12,7.12,0,0,0,1-.85,36.11,36.11,0,0,1,4.13-3.51c.81-.59,1.45-1.37,2.25-2l.1-.1c.35-.39.69-.79,1.07-1.15,1-1,1.83-2.08,2.86-3a9.36,9.36,0,0,1,1.75-1.86c.1-.1.2-.21.29-.32a45.57,45.57,0,0,0,3.51-4.87,8,8,0,0,1,.5-.69,12,12,0,0,0,1.41-2,5.51,5.51,0,0,1,.37-.61c.46-.73.91-1.45,1.38-2.17a9.17,9.17,0,0,0,1.21-2.27.58.58,0,0,1,.14-.24,10.44,10.44,0,0,0,1.46-2.93,1.62,1.62,0,0,1,.25-.51,9,9,0,0,0,.62-1.29,15.38,15.38,0,0,1,.66-1.43,35.24,35.24,0,0,0,2.16-4.67,3.22,3.22,0,0,0,.2-.69,19.84,19.84,0,0,1,2.23-6,2.16,2.16,0,0,1,.24-.35.6.6,0,0,1,.23-.1,2.22,2.22,0,0,1,0,1c-.15.89-.28,1.79-.4,2.69a8.21,8.21,0,0,1-.09,1.13,22.52,22.52,0,0,0-.47,3.83c-.08.85-.09,1.71-.2,2.56s-.16,1.8-.29,2.7a7.92,7.92,0,0,1-.05.85c-.11.37-.56.31-.81.52s-.23.37-.09.49a.36.36,0,0,0,.12.08,1.21,1.21,0,0,1,.65,1.43c-.1.51-.06,1-.21,1.56a3.39,3.39,0,0,0-.06,1.42,3,3,0,0,1,0,.85,12.5,12.5,0,0,0-.18,3,.8.8,0,0,1-.19.53,1.43,1.43,0,0,0-.3.48.83.83,0,0,0,.16.93.56.56,0,0,1,.25.48c0,.52-.1,1.05-.1,1.57s.11.95.1,1.43-.14,1-.16,1.56a3.25,3.25,0,0,1-.12,1,1.12,1.12,0,0,0,0,.57,9.8,9.8,0,0,1,.16,1.71,2.16,2.16,0,0,0,.24.81.6.6,0,0,1,0,.68.89.89,0,0,0-.06,1.06,1.69,1.69,0,0,1,.12.56c.24,1.6.45,3.21.58,4.83a1.93,1.93,0,0,0,.14.69,2.24,2.24,0,0,1,.32.94c0,.11.14.24.25.3.57.36,1.15.69,1.72,1s1.13.19,1.6.55a16.45,16.45,0,0,1,2.49.61c.42.11.84.18,1.25.27a1.94,1.94,0,0,1,1.52.23.46.46,0,0,1,.26.59,12.16,12.16,0,0,0-.57,2.21,7.55,7.55,0,0,1-.13.85,13.88,13.88,0,0,0-.49,3.68,2.67,2.67,0,0,1-.08.85,5,5,0,0,0-.17,1.84c0,.61-.08,1.23-.09,1.85a13,13,0,0,0-.1,2.86,2.48,2.48,0,0,1,0,.71,8.08,8.08,0,0,0-.05.85c0,1.57.05,3.15.07,4.72,0,.19,0,.38,0,.57a19.85,19.85,0,0,0,0,4.15,5.77,5.77,0,0,1-.05,1.71,5,5,0,0,0,0,1.28,5,5,0,0,1,0,1.28,7.34,7.34,0,0,0,0,1.15c0,.81.15,1.61.22,2.41.09,1,.16,2.09.17,3.14a1.82,1.82,0,0,0,0,.57,16.93,16.93,0,0,1,.38,2.54c.17,1,.26,2.09.4,3.13a5.11,5.11,0,0,0,.44,2.37.3.3,0,0,1,0,.14c-.07.86.29,1.69.21,2.56a1.17,1.17,0,0,0,.1.55,3.82,3.82,0,0,1,.3,1.1,11.22,11.22,0,0,0,.29,1.4c.1.37.31.7.39,1.07a24.81,24.81,0,0,0,1,3.15,2.79,2.79,0,0,1,.17.69,2.31,2.31,0,0,0,.64,1.26.62.62,0,0,0,.77.18,6.58,6.58,0,0,0,.66-.29.83.83,0,0,0,.41-.56,5,5,0,0,0-.28-2.94,11.52,11.52,0,0,1-.57-1.62c-.1-.56-.36-1.08-.49-1.64a18,18,0,0,1-.64-3.65,1.73,1.73,0,0,0-.09-.56,15.5,15.5,0,0,1-.57-3.24c-.14-1.13-.19-2.28-.29-3.42-.06-.61-.12-1.23-.24-1.84a13.53,13.53,0,0,1-.29-3.42,4,4,0,0,0,0-.85,17.07,17.07,0,0,1-.25-3.57c0-.47-.06-1-.08-1.43,0-.71,0-1.42-.09-2.13a5.8,5.8,0,0,1,.11-.85c0-.23,0-.47,0-.71l-.12-4.73c0-.14,0-.29,0-.43,0-1,.1-2,0-3a4.59,4.59,0,0,1,.07-1.28,2.69,2.69,0,0,0,0-.85,9.85,9.85,0,0,1-.07-2.71,17.53,17.53,0,0,1,.28-2.7,2.41,2.41,0,0,0,0-1,5.07,5.07,0,0,1,.11-2.26,3.45,3.45,0,0,0,.12-1.28,3.46,3.46,0,0,1,.06-.71c.1-.85.2-1.71.31-2.56s.31-1.09,1.21-.94c1.22.2,2.46.22,3.69.43a32.6,32.6,0,0,0,3.84.33,8.36,8.36,0,0,1,1,.12,21,21,0,0,0,3.54.44,3.37,3.37,0,0,1,.71.09,10.23,10.23,0,0,0,2.14.22,6.2,6.2,0,0,1,.86.05,12.13,12.13,0,0,0,2.41.2c.47,0,.58.1.66.56a9.56,9.56,0,0,1,.26,2.56,1.83,1.83,0,0,0,.11.84,3.76,3.76,0,0,1,.21,1.4,4.83,4.83,0,0,0,.12.85c.18.84.43,1.67.53,2.52a23.2,23.2,0,0,0,.75,3.5,14.72,14.72,0,0,0,1.8,4.34,1.53,1.53,0,0,1,.18.52,2.72,2.72,0,0,0,.82,1.63,1.74,1.74,0,0,1,.49.7,9.33,9.33,0,0,0,1.31,2,18.13,18.13,0,0,0,2.55,2.48,1,1,0,0,0,.25.15,22.51,22.51,0,0,0,2.6,1.18,8.09,8.09,0,0,1,1,.45,2,2,0,0,0,.53.21,7.73,7.73,0,0,1,1.37.4,13.18,13.18,0,0,0,1.95.47c.81.09,1.61.21,2.41.35a12.87,12.87,0,0,0,4.42,0,8.47,8.47,0,0,1,1.13-.06,6.15,6.15,0,0,0,.86,0c.65-.13,1.29-.31,1.94-.47a2,2,0,0,0,.53-.2,3.58,3.58,0,0,1,1.57-.65,1.16,1.16,0,0,0,.52-.23,16.77,16.77,0,0,0,1.79-1.18,7.87,7.87,0,0,1,1.78-1.18,1.77,1.77,0,0,0,.78-.62,4.78,4.78,0,0,1,1.13-1.07l2.09-1.74a1.56,1.56,0,0,0,.4-.41c.28-.46.78-.7,1.12-1.1s.68-.8,1.05-1.17a7.87,7.87,0,0,1,.75-.66.24.24,0,0,1,.24.06,2.15,2.15,0,0,1,.37.76,7,7,0,0,0,1,2.19c.14.25.31.48.46.72a7.33,7.33,0,0,0,1.5,1.91,1.86,1.86,0,0,1,.49.52,2.13,2.13,0,0,0,1,.8,3.9,3.9,0,0,1,.87.49,13.79,13.79,0,0,0,2.09,1.23,4,4,0,0,0,1.64.46,1.6,1.6,0,0,0,1.39-.58,2.61,2.61,0,0,0,.56-1,1.81,1.81,0,0,0-.14-1.52,2.8,2.8,0,0,1-.46-1.18c-.13-.9-.92-1.43-1.25-2.22a2.28,2.28,0,0,0-.52-.68,1.85,1.85,0,0,0-.58-.41,2.1,2.1,0,0,1-.78-.61,5.06,5.06,0,0,0-1.18-1,2.53,2.53,0,0,1-.42-.38,14,14,0,0,0-1.16-1.26,7.35,7.35,0,0,0-1.8-1.39,1.21,1.21,0,0,1-.68-.69c-.1-.21-.2-.43-.32-.64a1.14,1.14,0,0,0-.54-.45,1.33,1.33,0,0,0-1.36.17,4.32,4.32,0,0,0-.61.6c-.54.6-1,1.25-1.62,1.81a11.47,11.47,0,0,0-1.17,1.25,3.42,3.42,0,0,1-.81.8,6.16,6.16,0,0,0-1.63,1.59,3.65,3.65,0,0,1-1.27,1.14,2.88,2.88,0,0,0-1.06.93,2.5,2.5,0,0,1-1,.82,9.5,9.5,0,0,0-1.22.75c-.52.33-1,.69-1.55,1s-.91.51-1.38.74a9.48,9.48,0,0,1-1.57.69,5.7,5.7,0,0,1-2.65.43,1.45,1.45,0,0,0-.85.07,3.22,3.22,0,0,1-1.41.13,13.46,13.46,0,0,1-2.26-.36,1.73,1.73,0,0,0-.84-.09,2.36,2.36,0,0,1-1.67-.19,2.44,2.44,0,0,0-.55-.12l-2-.44c-1.19-.66-2.65-.82-3.66-1.85-.06-.06-.18-.06-.26-.12a7.1,7.1,0,0,1-2.38-2.4c-.49-.86-1.06-1.68-1.53-2.57s-1-1.74-1.4-2.63a5.77,5.77,0,0,1-.39-.92,14,14,0,0,0-.56-1.77,6.78,6.78,0,0,1-.47-1.78,4.09,4.09,0,0,0-.25-1.1,10.81,10.81,0,0,1-.57-2.22,10.88,10.88,0,0,0-.38-1.67,5.25,5.25,0,0,1-.3-1.68,7.38,7.38,0,0,0-.18-1.13c0-.18-.1-.37-.14-.55s.17-.4.33-.41l.56,0a13.38,13.38,0,0,0,2.29-.09c.76-.16,1.51-.17,2.27-.26a12.93,12.93,0,0,0,3.37-.52,5.21,5.21,0,0,1,1.26-.24,10,10,0,0,0,3.05-.71.64.64,0,0,1,.28-.06,2.66,2.66,0,0,0,1.1-.27,14.73,14.73,0,0,1,2.17-.67,5.34,5.34,0,0,0,1-.3,3.44,3.44,0,0,0,1.41-.94c.3-.38.3-.37.66-.07.21.19.45.36.66.54a1.28,1.28,0,0,0,1.48.13,1.35,1.35,0,0,0,.75-1.41,4.2,4.2,0,0,0-.17-.7,18.27,18.27,0,0,0-1.59-3.66,4.09,4.09,0,0,1-.52-1c-.32-1-.93-1.88-1.22-2.9a1.6,1.6,0,0,1-.2-1.5.94.94,0,0,0-.23-.93c-.66-.76-1-1.74-1.58-2.54a.88.88,0,0,1-.1-.27c-.14-.5-.24-1-.42-1.52a10.69,10.69,0,0,1-.49-1.48,6.56,6.56,0,0,0-.33-.94,7.46,7.46,0,0,1-.6-1.61c-.18-1.23-.77-2.36-.93-3.59a1,1,0,0,0-.14-.41,5.33,5.33,0,0,1-.62-1.89,1.6,1.6,0,0,0-.45-.86.44.44,0,0,1-.11-.39,3,3,0,0,0,0-.85c-.45-1.65-.92-3.31-1.39-5a.65.65,0,0,0,0-.13,8.2,8.2,0,0,1-.43-1.52c-.36-1.48-.53-3-1-4.47a10.75,10.75,0,0,1-.32-1.24,5.57,5.57,0,0,1-.14-1.42c.05-.54-.34-1-.42-1.5,0-.1,0-.19,0-.29-.06-.32-.13-.65-.2-1a14,14,0,0,1-.3-1.4,10.18,10.18,0,0,1-.34-1.83,4.23,4.23,0,0,0-.41-1.8,1.29,1.29,0,0,1,0-.28,5.87,5.87,0,0,0-.13-.84,4.53,4.53,0,0,1-.24-1.26,4.14,4.14,0,0,0-.13-1c-.31-1.16-.41-2.35-.61-3.53a1.79,1.79,0,0,1-.07-.56,4.5,4.5,0,0,0-.21-1.83,11.07,11.07,0,0,1-.22-3.14.19.19,0,0,1,0-.13c.08,0,.2-.11.24-.08a3,3,0,0,1,.54.46c1,1.25,2.08,2.48,3.13,3.71,1.24,1.45,2.46,2.92,3.83,4.25a8.19,8.19,0,0,1,1.34,1.48,1.73,1.73,0,0,0,.38.43c.9.78,1.59,1.78,2.54,2.51a14.61,14.61,0,0,0,2.06,2.17c.63.58,1.24,1.2,1.92,1.72a23,23,0,0,1,1.83,1.6,8.82,8.82,0,0,0,1.53,1.27,11.68,11.68,0,0,1,1.16.83c.86.68,1.7,1.38,2.58,2,1.1.84,2.28,1.57,3.34,2.46a2.31,2.31,0,0,0,1.25.66.58.58,0,0,1,.36.21,3.21,3.21,0,0,0,1.72,1.22,1.26,1.26,0,0,1,.26.13c.88.57,1.76,1.14,2.65,1.7,1.21.77,2.42,1.53,3.7,2.18,1.49.75,3,1.5,4.5,2.19a20.36,20.36,0,0,0,2.9,1.2,10.47,10.47,0,0,1,1.1.29,13.48,13.48,0,0,0,5.18,1c.41,0,.82,0,1.24,0-.15.72-.25,1.45-.33,2.18a5.49,5.49,0,0,0-.18,1.35,8,8,0,0,0,.05,1c0,.54,0,1.09,0,1.63a1.49,1.49,0,0,0,.25.76.43.43,0,0,0,0,.11.81.81,0,0,0,.35.86,1,1,0,0,0,1.31.06,2,2,0,0,0,.53-.47l.15-.22a1.22,1.22,0,0,0,.38-.65,3.11,3.11,0,0,0,.38-1.32,6.37,6.37,0,0,1,.38-1.37.35.35,0,0,1,.47-.14c.57.35,1.14.69,1.7,1.06a5.57,5.57,0,0,0,1.86.69,2.39,2.39,0,0,0,1.78-.29,1.33,1.33,0,0,0,.55-1.84,6,6,0,0,0-1.4-1.79,9.51,9.51,0,0,1-1.11-1.09s0-.09,0-.13a.16.16,0,0,1,.08-.1l1.13-.14a2.41,2.41,0,0,0,.93-.33,1.22,1.22,0,0,0,.48-1.5c-.06-.13-.13-.25-.2-.38a1.06,1.06,0,0,0-.74-.62,2.46,2.46,0,0,1-1.07-.67.25.25,0,0,1,0-.25,8.8,8.8,0,0,1,1.21-1,7.71,7.71,0,0,0,1.36-1.25,3.47,3.47,0,0,0,.73-1.38,1,1,0,0,0-.19-.94,1.21,1.21,0,0,0-.7-.47l-1.55-.31a.2.2,0,0,1-.15-.31,3.92,3.92,0,0,0,.41-.75c.13-.46.32-.89.48-1.34a6.57,6.57,0,0,0,.46-2.37,1.38,1.38,0,0,0-.77-1.27,1.31,1.31,0,0,0-1.49,0,11.59,11.59,0,0,0-1.66,1.55,33.53,33.53,0,0,0-2,2.81,5.11,5.11,0,0,0-.71.9,1.16,1.16,0,0,0-.38.44,4.87,4.87,0,0,1-1.93,2,2.13,2.13,0,0,0-1.48-.41.73.73,0,0,1-.4-.11,3.57,3.57,0,0,0-1.81-.36,14.48,14.48,0,0,1-2.27-.26c-.5-.06-1-.39-1.52-.33a7.25,7.25,0,0,0-2.34-.58.29.29,0,0,1-.13,0,15.82,15.82,0,0,1-1.81-.86c-.62-.38-1.35-.51-1.93-.93a7.38,7.38,0,0,0-1.77-.9,1.45,1.45,0,0,1-.45-.34,7.64,7.64,0,0,0-1.68-1.08,6.37,6.37,0,0,1-1.8-1.16,3.65,3.65,0,0,0-1-.59,10.38,10.38,0,0,1-2.1-1.2,12.45,12.45,0,0,0-2.32-1.4,2.94,2.94,0,0,1-.87-.48,3.43,3.43,0,0,0-1.4-1c-.13,0-.22-.18-.32-.28s-.26-.31-.42-.37a4.09,4.09,0,0,1-1.19-.78,9.78,9.78,0,0,0-1.07-.69,11,11,0,0,1-2.16-1.41,2.3,2.3,0,0,0-.48-.3,12.11,12.11,0,0,1-2.54-1.84c-.85-.84-1.84-1.52-2.66-2.4a.74.74,0,0,0-.34-.25c-.46-.1-.64-.56-1-.74a10.12,10.12,0,0,0-2.14-1.89,14.79,14.79,0,0,1-1.79-1.66,22.36,22.36,0,0,0-1.61-1.62c-.83-.72-1.31-1.76-2.19-2.45a2.54,2.54,0,0,1-.42-.58,8.55,8.55,0,0,0-1.67-2.12,23.54,23.54,0,0,0-2-2.25,1,1,0,0,0-.33-.27,3.15,3.15,0,0,1-.55-.38,17.52,17.52,0,0,0-.77-2,15.36,15.36,0,0,0,2.93-2.71,2.22,2.22,0,0,1,.41-.4,3.46,3.46,0,0,0,.91-1.1c.51-.85,1.09-1.67,1.53-2.57s1-1.75,1.36-2.68,1.1-1.81,1.17-2.9a.6.6,0,0,1,.13-.25,5.85,5.85,0,0,0,.67-1.67l.53-.08a.61.61,0,0,0,.13.22,1.41,1.41,0,0,0,1.58.28c.51-.34,1-.68,1.54-1a5.92,5.92,0,0,1,1.93-.92,5.1,5.1,0,0,0,1.31-.57,11.19,11.19,0,0,1,1.12-.64,2.55,2.55,0,0,0,1.32-1.25.73.73,0,0,1,.16-.23,8.87,8.87,0,0,0,1.85-2.68c.33-.74.72-1.45,1.11-2.16a2.7,2.7,0,0,0,.35-.93,4.07,4.07,0,0,1,.51-1.48,1.7,1.7,0,0,0,.22-.52c.19-.74.46-1.45.64-2.19.26-1.07.62-2.11,1-3.15a6.46,6.46,0,0,0,.34-1.08c.06-.37.26-.72.35-1.08.15-.6.3-1.21.39-1.82,0-.42.14-.85.18-1.27.09-1.09.47-2.14.48-3.25a16.4,16.4,0,0,1,.2-1.7c.06-.48.1-.95.16-1.43s.09-.66.12-1a11,11,0,0,1,.14-1.42c.11-.48-.18-1,0-1.42-.12-.59.2-1.11.27-1.67.2-1.46.33-2.93.64-4.38a5.74,5.74,0,0,1,.46-1.34c.26-.51.53-1,.76-1.54a.82.82,0,0,0-.22-.92.85.85,0,0,0-.91-.28,5.26,5.26,0,0,0-1.3.58,23.32,23.32,0,0,0-2.52,1.89,10.9,10.9,0,0,0-1.92,1.92.55.55,0,0,1-.2.2c-1.29.86-2.09,2.23-3.31,3.16a.52.52,0,0,0-.17.22,22.19,22.19,0,0,1-1.59,2,3.83,3.83,0,0,0-1.11,1.47,2.88,2.88,0,0,1-.36.61,4.07,4.07,0,0,0-.86,1.63c0,.14-.4.23-.5.13a.9.9,0,0,1-.2-.19,18.57,18.57,0,0,1-1.25-1.92,4.62,4.62,0,0,0-.54-.84.59.59,0,0,0-.63-.25,2,2,0,0,1-.46.1,36.6,36.6,0,0,1,.64-6.92,2,2,0,0,0,0-.34c0-.12.08-.24.11-.36.2-.79.17-1.61.42-2.4a18.1,18.1,0,0,0,.38-2.54,12.15,12.15,0,0,0,.14-2,21.32,21.32,0,0,0-.64-4.51,4.36,4.36,0,0,0-1.06-1.84l-.29-.31a.53.53,0,0,1,0-.54c.22-.24.53-.38.72-.68.3-.49.68-.92,1-1.4s.83-.92,1.17-1.42a5.32,5.32,0,0,1,1.41-1.19,1.81,1.81,0,0,0,.33-.28,16.44,16.44,0,0,1,3.27-2.29,6.53,6.53,0,0,1,.94-.35c.34-.16.66-.36,1-.54.84-.45,1.78-.67,2.66-1a2,2,0,0,1,.84-.15c1.19,0,2.38,0,3.57,0a32.9,32.9,0,0,0,3.44,0,8.36,8.36,0,0,1,2,0,30.16,30.16,0,0,0,3.43.06,9,9,0,0,0,2-.19c.47-.08.93-.14,1.4-.18,1.34-.11,2.66-.33,4-.47.38,0,.75-.11,1.13-.12l4.59-.12a3,3,0,0,0,1.38-.31.6.6,0,0,1,.41-.07,4.61,4.61,0,0,0,2.39,0c.33,0,.67-.07,1-.12a35.67,35.67,0,0,0,3.82-.5,5.57,5.57,0,0,1,1.42,0c.48,0,.9-.32,1.39-.3a11.34,11.34,0,0,0,2.84-.36c.42-.09.84-.13,1.27-.18,1.14-.1,2.27-.32,3.41-.42a10.41,10.41,0,0,1,3.1-.31.91.91,0,0,0,.42-.07c.78-.21,1.55-.46,2.34-.64,1.36-.29,2.72-.53,4.08-.8.56-.11,1.12-.23,1.68-.37.88-.22,1.75-.48,2.63-.67a12.77,12.77,0,0,0,1.82-.37c.62-.22,1.31-.25,2-.44,1.23-.38,2.5-.6,3.75-.88a3.27,3.27,0,0,0,1.09-.33.84.84,0,0,1,.4-.14,5.75,5.75,0,0,0,1.52-.38c.48-.18,1.06-.07,1.45-.5a1.78,1.78,0,0,0,.53.13c1.12-.2,2.24-.43,3.37-.63.56-.1,1.14-.13,1.69-.27s1.06-.44,1.61-.59a16.22,16.22,0,0,0,2.7-.92,2.47,2.47,0,0,1,.53-.22,8.62,8.62,0,0,0,2.38-1,.85.85,0,0,1,1,.18,4,4,0,0,1,.48.53,11,11,0,0,0,1.75,1.66c.25.22.55.38.82.58s.7.5,1,.77a2.74,2.74,0,0,0,.75.41,6.48,6.48,0,0,0,1.68.32,2.24,2.24,0,0,0,2.13-.56c.31-.22.63-.44.92-.68a1.81,1.81,0,0,0,.47-.53c.2-.43.33-.89.83-1.1.11,0,.18-.22.24-.34.52-1,1-2,1.55-3.07A4.45,4.45,0,0,0,1168.72,544.82ZM1009.16,664.27a.91.91,0,0,1,0-.63.1.1,0,0,1,.09,0s.07.06.07.09C1009.36,663.92,1009.43,664.15,1009.16,664.27Zm98.17,7.8a.13.13,0,0,1,.12,0s0,.06.06.1-.07.06-.11.06S1107.25,672.14,1107.33,672.07ZM1167,546.3a5.48,5.48,0,0,1-.3.8,13.85,13.85,0,0,1-2,3.46,4.76,4.76,0,0,1-1.65,1.33,1.88,1.88,0,0,1-1.4,0,4.63,4.63,0,0,1-1.26-.67c-.8-.61-1.59-1.21-2.35-1.86a3.85,3.85,0,0,1-.68-.92.44.44,0,0,1,.11-.37c.29-.26.62-.46.9-.71a1,1,0,0,0,.09-1.43,1.46,1.46,0,0,0-.81-.56c-.38-.11-.37-.27-.09-.59.44-.51,1.07-.82,1.42-1.41a.22.22,0,0,1,.1-.09c.75-.42,1.5-.84,2.26-1.24.33-.17.71-.27,1.06-.43a3.23,3.23,0,0,1,3.54.74,5,5,0,0,1,.55.67c.18.27.33.57.5.85-.14.45.2.84.16,1.26A8.56,8.56,0,0,1,1167,546.3Z"/><path d="M995.35,597.36l.48-.52a10.26,10.26,0,0,1,.75-.86c.78-.7,1.54-1.41,2.28-2.16a.87.87,0,0,1,.81-.16c.18,0,.34.16.52.21a.36.36,0,0,0,.27-.06,1.07,1.07,0,0,0,.37-.75c0-.06-.12-.19-.15-.18a20.59,20.59,0,0,1-2.82.4c-.29.05-.58.05-.85.12a8.67,8.67,0,0,1-1.77.55,8.2,8.2,0,0,0-1.64.46c-.25.07-.55-.23-.53-.53a1,1,0,0,1,.43-.71,6,6,0,0,1,1.72-.67,2.63,2.63,0,0,0,1.24-.32,2.74,2.74,0,0,1,1.25-.27,8.8,8.8,0,0,0,2-.25,25.09,25.09,0,0,0,2.93-.63c.9-.3,1.87-.35,2.77-.67a1.25,1.25,0,0,1,.41-.11c.92,0,1.79-.3,2.69-.38a32.69,32.69,0,0,1,3.42-.32,2.24,2.24,0,0,0,1.33-.47.92.92,0,0,1,1.3,0,.61.61,0,0,0,.65.18,8.38,8.38,0,0,1,2.28-.23c1.81-.1,3.62-.29,5.43-.29.58,0,1.15-.12,1.72-.1,1,0,2-.15,3-.18l3-.06a3,3,0,0,0,1.27-.15.49.49,0,0,1,.41,0,.61.61,0,0,0,.89-.1.72.72,0,0,1,.53-.16c1,0,2,0,3-.05a8.93,8.93,0,0,1,1.84.24c.64.37,1.41.17,2.06.49a.53.53,0,0,0,.28,0,26.73,26.73,0,0,1,3.69,0l3.1.56c.6.43,1.4.32,2,.71.93.22,1.85.5,2.79.65a8.21,8.21,0,0,0,1.71-.06c.47,0,1-.1,1.42-.12a.85.85,0,0,1,.82.47c.07.13.13.26.19.39a.67.67,0,0,1,0,.68,1.47,1.47,0,0,1-1.15.75s-.06.06-.08.1,0,.17.14.17.47-.06.71-.07a1.26,1.26,0,0,1,.56.05,1.51,1.51,0,0,0,1.37.1.59.59,0,0,1,.63.25,4.62,4.62,0,0,1,.54.84,18.57,18.57,0,0,0,1.25,1.92.9.9,0,0,0,.2.19c.1.1.47,0,.5-.13a4.07,4.07,0,0,1,.86-1.63,2.88,2.88,0,0,0,.36-.61,3.83,3.83,0,0,1,1.11-1.47,22.19,22.19,0,0,0,1.59-2,.52.52,0,0,1,.17-.22c1.22-.93,2-2.3,3.31-3.16a.55.55,0,0,0,.2-.2,10.9,10.9,0,0,1,1.92-1.92,23.32,23.32,0,0,1,2.52-1.89,5.26,5.26,0,0,1,1.3-.58.85.85,0,0,1,.91.28.82.82,0,0,1,.22.92c-.23.53-.5,1-.76,1.54a5.74,5.74,0,0,0-.46,1.34c-.31,1.45-.44,2.92-.64,4.38-.07.56-.39,1.08-.27,1.67-.21.47.08.94,0,1.42a11,11,0,0,0-.14,1.42l-.12,1c-.06.48-.1,1-.16,1.43a16.4,16.4,0,0,0-.2,1.7c0,1.11-.39,2.16-.48,3.25,0,.42-.13.85-.18,1.27-.09.61-.24,1.22-.39,1.82-.09.36-.29.71-.35,1.08a6.46,6.46,0,0,1-.34,1.08c-.36,1-.72,2.08-1,3.15-.18.74-.45,1.45-.64,2.19a1.7,1.7,0,0,1-.22.52,4.07,4.07,0,0,0-.51,1.48,2.7,2.7,0,0,1-.35.93c-.39.71-.78,1.42-1.11,2.16a8.87,8.87,0,0,1-1.85,2.68.73.73,0,0,0-.16.23,2.55,2.55,0,0,1-1.32,1.25,11.19,11.19,0,0,0-1.12.64,5.1,5.1,0,0,1-1.31.57,5.92,5.92,0,0,0-1.93.92c-.5.36-1,.7-1.54,1a1.41,1.41,0,0,1-1.58-.28.47.47,0,0,1-.13-.25,8.21,8.21,0,0,1,0-1,.41.41,0,0,1,.13-.25,6.88,6.88,0,0,1,1-.8,14.16,14.16,0,0,1,2.46-1.16,17.55,17.55,0,0,0,3-1.6,1.07,1.07,0,0,0,.3-.3,21.61,21.61,0,0,0,2.26-3.48c.11-.21.19-.43.29-.65a5.7,5.7,0,0,1,.4-.91,4.31,4.31,0,0,0,.75-2.13,1.37,1.37,0,0,1,.22-.68,8.39,8.39,0,0,0,1-2.69c.28-1.11.7-2.18,1-3.28a4.3,4.3,0,0,0,.41-1.49.32.32,0,0,1,0-.14,4.86,4.86,0,0,0,.41-1,6.61,6.61,0,0,1,.09-1c.11-.37.18-.75.26-1.12a5.48,5.48,0,0,0,0-.57,6.07,6.07,0,0,1,.2-1.41,13.19,13.19,0,0,0,.29-1.39,1.22,1.22,0,0,0,.07-.41,4.42,4.42,0,0,1,.09-1.7,1.59,1.59,0,0,0,0-.43,8.48,8.48,0,0,1,.2-2.56,19.12,19.12,0,0,0,.36-3.11,2.47,2.47,0,0,1,.13-.7,6.2,6.2,0,0,0,.33-2.53s0-.1-.07-.11a.66.66,0,0,0-.28,0,.44.44,0,0,0-.23.15c-.27.27-.52.56-.79.83a6.49,6.49,0,0,1-1.23,1.17,1.11,1.11,0,0,0-.32.29c-.87,1.14-2.08,2-2.91,3.15a10.38,10.38,0,0,0-1.85,2.17,9,9,0,0,0-1.61,2.17c-.2.33-.34.69-.55,1a1.21,1.21,0,0,0-.11,1.08c.18.59-.11,1-.76,1.11a.64.64,0,0,0-.47.26,7.47,7.47,0,0,1-1.16,1.62c-.09.08-.08.15-.07.25a4.71,4.71,0,0,1-.37,1.51c0,.1-.2.18-.31.26s-.32.25-.28.45c.09.48-.09.95,0,1.43a2.55,2.55,0,0,1,0,1.13c-.09.56-.1,1.14-.14,1.71a.51.51,0,0,0,0,.28,2.93,2.93,0,0,1,0,2,5.16,5.16,0,0,1-.2,1.41.88.88,0,0,0,0,.43,9.26,9.26,0,0,1-.38,3.1,18.77,18.77,0,0,0-.56,3.24,21.44,21.44,0,0,1-.51,2.38,5.56,5.56,0,0,1-.26,1c-.35,1-.61,2-.89,3a6,6,0,0,1-.72,1.86.6.6,0,0,0-.13.25c-.07,1.09-.79,1.93-1.17,2.9s-.92,1.78-1.36,2.68-1,1.72-1.53,2.57a3.46,3.46,0,0,1-.91,1.1,2.22,2.22,0,0,0-.41.4,17.47,17.47,0,0,1-3.51,3.14,4,4,0,0,0-.67.54,12.8,12.8,0,0,1-3,2,.75.75,0,0,1-.4.12,2.93,2.93,0,0,0-1.6.57,2.17,2.17,0,0,1-.64.33,12.09,12.09,0,0,0-2.68,1,4,4,0,0,1-1,.23,1.44,1.44,0,0,0-.66.25,2.38,2.38,0,0,1-1.06.41,24.22,24.22,0,0,1-2.81.47c-.62,0-1.24.11-1.86.14-.81,0-1.62.05-2.43.15a14.34,14.34,0,0,1-2.27,0,13.87,13.87,0,0,1-1.43-.15,2.05,2.05,0,0,1-.56-.1,12.74,12.74,0,0,0-3.51-.61c-.73.08-1.41-.3-2.13-.19a1.35,1.35,0,0,1-.42-.1c-1.25-.3-2.41-.92-3.67-1.19a1.25,1.25,0,0,1-.37-.21,33.76,33.76,0,0,0-2.86-1.9,11,11,0,0,0-1.77-1.19,12.2,12.2,0,0,1-2.41-2,1.36,1.36,0,0,0-.42-.38,8.38,8.38,0,0,1-2.49-1.89,1.75,1.75,0,0,1-.29-.32c-.48-.83-1.25-1.41-1.79-2.19s-1-1.49-1.55-2.25a22.92,22.92,0,0,1-1.32-2,4.19,4.19,0,0,0-.49-.7.37.37,0,0,0-.38-.16,1.65,1.65,0,0,1-1.36-.24,29.37,29.37,0,0,0-2.66-1.41c-.91-.39-1.89-.65-2.84-1a11,11,0,0,1-3.4-1.07,9.37,9.37,0,0,1-2-1.39,28.27,28.27,0,0,1-2.63-2.62,11.14,11.14,0,0,1-.78-1,10.12,10.12,0,0,0-1.47-1.73,4.63,4.63,0,0,1-1.05-1.35c-.33-.58-.69-1.14-1-1.71a9.74,9.74,0,0,1-1.58-4.4,1.42,1.42,0,0,0,0-.42,6.24,6.24,0,0,1-.23-2.27c0-.14,0-.28,0-.42a5.65,5.65,0,0,1-.23-2.38c0-.07-.06-.17-.09-.26a2.51,2.51,0,0,1-.19-1.53,1.55,1.55,0,0,0,0-.43c-.08-.66-.18-1.32-.26-2,0-.42-.28-.83-.07-1.26a4.45,4.45,0,0,1-.28-1.25c-.09-.42-.11-.85-.18-1.28-.09-.61-.2-1.22-.3-1.83a29.6,29.6,0,0,1-.57-4.69,17.44,17.44,0,0,0-.31-2.27,1.63,1.63,0,0,1-.08-.42,13.35,13.35,0,0,0-.1-2.28,1.93,1.93,0,0,1,.13-.7.92.92,0,0,1,.89-.6,1.57,1.57,0,0,1,1.27.57,15.55,15.55,0,0,0,1.66,1.78,13.61,13.61,0,0,1,1.42,1.79,13.32,13.32,0,0,0,1.58,2c.41.39.67.93,1.05,1.35.73.82,1.34,1.73,2.08,2.54a15.84,15.84,0,0,1,1.72,2.28,8,8,0,0,0,.81,1.33c.43.42.5,1,.9,1.44a9.64,9.64,0,0,1,.92,1.28c.16.24.29.5.44.73,0,.06.16.06.25.06a.16.16,0,0,0,.1-.08,8.37,8.37,0,0,0,.63-2.18,18,18,0,0,1,1.35-3.77c.15-.3.28-.61.43-.91a.33.33,0,0,0,0-.4c-.64-.63-.74-1.54-1.17-2.28a.33.33,0,0,1,0-.13c-.07-1-.46-2-.6-2.94a2,2,0,0,1,0-.42c0-.13.24-.17.14-.35a5.32,5.32,0,0,1-.83-2.56c-.47-1.16-.31-2.46-.79-3.62,0-.62-.12-1.24-.12-1.86a22.12,22.12,0,0,1,.11-3.15,2.62,2.62,0,0,0,0-.56,1.29,1.29,0,0,1,.12-.7l.75-1.54a2.21,2.21,0,0,1,.74-.86c.24-.17.49-.29.6-.59a.37.37,0,0,1,.19-.2c.67-.25,1.34-.5,2-.73a10.39,10.39,0,0,1,2.55-.36.75.75,0,0,0,.58-.36,1.71,1.71,0,0,0,.39-.9,21.27,21.27,0,0,1,.55-3,4.31,4.31,0,0,1,.31-.79,1,1,0,0,0,.09-.4,2.94,2.94,0,0,1,.5-1.61,5,5,0,0,0,.46-1.2,11.11,11.11,0,0,1,1.11-2.63c.41-.81.85-1.6,1.24-2.42a17.67,17.67,0,0,1,1.27-2.07c.2-.32.42-.64.63-1a3.34,3.34,0,0,1,.51-.69,5.54,5.54,0,0,0,1.32-1.86,2.16,2.16,0,0,1,.37-.6,10.15,10.15,0,0,0,1.47-1.93c.59-.81,1.27-1.55,1.86-2.35.22-.31.48-.59.7-.91a13.49,13.49,0,0,1,1.63-2,2,2,0,0,0,.46-.54,2.27,2.27,0,0,1,.84-1,1.06,1.06,0,0,0,.28-.32,4.31,4.31,0,0,1,1.28-1.34c1.11-.91,2.24-1.78,3.37-2.66a3.9,3.9,0,0,1,.62-.37,3.06,3.06,0,0,0,.51-.26c.82-.67,1.83-1,2.67-1.66l.24-.16c1-.48,1.91-1.08,2.88-1.58l1.53-.78c.46-.24.94-.47,1.41-.7a2.18,2.18,0,0,1,.38-.18c1.26-.3,2.4-1,3.68-1.18.83-.38,1.71-.58,2.57-.88,2-.7,4.11-1.25,6.18-1.82a19.08,19.08,0,0,1,2.26-.4,22.86,22.86,0,0,1,3.41-.42,7.2,7.2,0,0,0,1-.15,11.7,11.7,0,0,1,2.71-.08,10.54,10.54,0,0,1,2.57-.19c.66,0,1.33.1,2,.14,2.06.13,4.07.55,6.11.85.23,0,.47.08.71.09a9.11,9.11,0,0,1,2.38.45c1.06.31,2.15.47,3.21.75a33.34,33.34,0,0,1,4.39,1.26,4.59,4.59,0,0,0,.83.21,4.18,4.18,0,0,1,.71.09c1.12.39,2.3.62,3.44,1,2,.59,4,1.27,6,1.76a5.3,5.3,0,0,1,.67.23,4.69,4.69,0,0,0,1.51.44,1.93,1.93,0,0,1,.69.19,17.57,17.57,0,0,0,3,.84,1.27,1.27,0,0,1,.28.06c1.27.56,2.69.66,4,1.24a1.47,1.47,0,0,0,.28.08,10.1,10.1,0,0,1,2.24.44c.71.29,1.51.22,2.22.53a25.21,25.21,0,0,1,3.1.57,2.57,2.57,0,0,1,1,.42.52.52,0,0,0,.55,0,1.15,1.15,0,0,1,.82,0,34.43,34.43,0,0,0,3.48.81,4.69,4.69,0,0,1,.84.21l2.57.86a3,3,0,0,0,.7.16,7.6,7.6,0,0,1,2,.46,24.15,24.15,0,0,0,3.76.88l3.07.56a4.33,4.33,0,0,0,.71.1,11.7,11.7,0,0,1,2.7.3,2,2,0,0,0,.43,0,8.42,8.42,0,0,1,2.55.27,21.77,21.77,0,0,1,2.39.43,4.83,4.83,0,0,0,.84.11,18.86,18.86,0,0,1,2.71.28,5.12,5.12,0,0,0,1.83.09,2.27,2.27,0,0,1,.86,0,2.66,2.66,0,0,0,1.4,0,.6.6,0,0,1,.42,0,3.79,3.79,0,0,0,1.7.18c.33,0,.67,0,1,0a5.41,5.41,0,0,0,1.84,0,.85.85,0,0,1,.42,0,5.65,5.65,0,0,0,2.28,0,1.88,1.88,0,0,1,.71,0,9.34,9.34,0,0,0,2.69.13,8.11,8.11,0,0,1,1,0,7.44,7.44,0,0,0,2,0,4.23,4.23,0,0,1,1.7,0,2.42,2.42,0,0,0,.71,0,1.93,1.93,0,0,1,.71,0,3.34,3.34,0,0,0,1.54-.06c.67-.08,1.34-.16,2-.2a1.48,1.48,0,0,0,1-.49,5.11,5.11,0,0,0,.39-.42,7.76,7.76,0,0,1,1.49-1.54c.34-.23.53-.65.88-.92a12,12,0,0,1,4-2.15,5,5,0,0,1,3.1,0,4,4,0,0,1,2.31,1.81,9.5,9.5,0,0,1,1.12,2.93,4.45,4.45,0,0,1-.35,2.8c-.5,1-1,2-1.55,3.07-.06.12-.13.3-.24.34-.5.21-.63.67-.83,1.1a1.81,1.81,0,0,1-.47.53c-.29.24-.61.46-.92.68a2.24,2.24,0,0,1-2.13.56,6.48,6.48,0,0,1-1.68-.32,2.74,2.74,0,0,1-.75-.41c-.33-.27-.68-.52-1-.77s-.57-.36-.82-.58a11,11,0,0,1-1.75-1.66,4,4,0,0,0-.48-.53.85.85,0,0,0-1-.18,8.62,8.62,0,0,1-2.38,1,2.47,2.47,0,0,0-.53.22,16.22,16.22,0,0,1-2.7.92c-.55.15-1.06.44-1.61.59s-1.13.17-1.69.27c-1.13.2-2.25.43-3.37.63a1.78,1.78,0,0,1-.53-.13c-.39.43-1,.32-1.45.5a5.75,5.75,0,0,1-1.52.38.84.84,0,0,0-.4.14,3.27,3.27,0,0,1-1.09.33c-1.25.28-2.52.5-3.75.88-.64.19-1.33.22-2,.44a12.77,12.77,0,0,1-1.82.37c-.88.19-1.75.45-2.63.67-.56.14-1.12.26-1.68.37-1.36.27-2.72.51-4.08.8-.79.18-1.56.43-2.34.64a.91.91,0,0,1-.42.07,10.41,10.41,0,0,0-3.1.31c-1.14.1-2.27.32-3.41.42-.43,0-.85.09-1.27.18a11.28,11.28,0,0,1-2.84.36c-.49,0-.91.28-1.39.3a5.57,5.57,0,0,0-1.42,0,35.67,35.67,0,0,1-3.82.5c-.33,0-.67.08-1,.12a4.61,4.61,0,0,1-2.39,0,.6.6,0,0,0-.41.07,3,3,0,0,1-1.38.31l-4.59.12c-.38,0-.75.08-1.13.12-1.32.14-2.64.36-4,.47-.47,0-.93.1-1.4.18a9,9,0,0,1-2,.19,30.16,30.16,0,0,1-3.43-.06,8.36,8.36,0,0,0-2,0,32.9,32.9,0,0,1-3.44,0c-1.19-.06-2.38,0-3.57,0a2,2,0,0,0-.84.15c-.88.38-1.82.6-2.66,1-.34.18-.66.38-1,.54a6.53,6.53,0,0,0-.94.35,16.44,16.44,0,0,0-3.27,2.29,1.81,1.81,0,0,1-.33.28,5.32,5.32,0,0,0-1.41,1.19c-.34.5-.82.91-1.17,1.42s-.7.91-1,1.4c-.19.3-.5.44-.72.68a.53.53,0,0,0,0,.54l.29.31a4.36,4.36,0,0,1,1.06,1.84,21.32,21.32,0,0,1,.64,4.51,12.15,12.15,0,0,1-.14,2,18.1,18.1,0,0,1-.38,2.54c-.25.79-.22,1.61-.42,2.4a3.71,3.71,0,0,1-1.37,2.11.72.72,0,0,1-.4.12,1.42,1.42,0,0,1-1.18-.7.5.5,0,0,1-.07-.27,2.15,2.15,0,0,1,.26-1.38,1.33,1.33,0,0,0,.22-.67,31.86,31.86,0,0,1,.66-3.23,8.79,8.79,0,0,0,.22-1.7c0-.14,0-.28,0-.43,0-.62.13-1.24.12-1.85a14.25,14.25,0,0,0-.21-1.71,6.14,6.14,0,0,0-.49-1.63.58.58,0,0,0-.59-.34,6,6,0,0,0-2.36.49,1.54,1.54,0,0,1-.54.2,1.32,1.32,0,0,0-.8.56c-.37.44-.72.9-1.08,1.34a2.16,2.16,0,0,1-.4.4,1.2,1.2,0,0,1-1.79-.17,2.9,2.9,0,0,1-.65-1.1,10.91,10.91,0,0,0-1.47-3.08,1.78,1.78,0,0,0-1.86-.78,7.06,7.06,0,0,0-2,.58,3.2,3.2,0,0,0-1.37,1.23,7.27,7.27,0,0,0-.67,1.26c-.29.87-.84,1.61-1.07,2.5a3.16,3.16,0,0,1-.56,1,1.55,1.55,0,0,1-1.67.57,1.27,1.27,0,0,1-1.11-1,4.65,4.65,0,0,0-1-2,1.35,1.35,0,0,1-.25-.51,6.05,6.05,0,0,0-1.89-2.47,2,2,0,0,0-.25-.14.66.66,0,0,0-.68,0,2.62,2.62,0,0,1-.61.37,3.07,3.07,0,0,0-1.74,1.4c-.55.72-.87,1.58-1.43,2.31a2.58,2.58,0,0,0-.33.93,1.56,1.56,0,0,1-1.85,1c-.22-.08-.44-.18-.65-.28a.68.68,0,0,1-.35-.43,2.87,2.87,0,0,1-.14-.56,2.63,2.63,0,0,0-.37-1.07,5.89,5.89,0,0,1-.87-2.1.52.52,0,0,0-.11-.26c-.74-.57-.94-1.54-1.58-2.17a3.17,3.17,0,0,0-.67-.55,1.5,1.5,0,0,0-1.23-.18,5.75,5.75,0,0,0-2,1c-.5.45-1.07.81-1.61,1.21a1.55,1.55,0,0,0-.54.65,11.4,11.4,0,0,1-1.24,2.24c-.35.5-.56,1.1-.94,1.6a1.54,1.54,0,0,1-1.1.59,1,1,0,0,1-.92-.29,2.29,2.29,0,0,1-.7-1,14.63,14.63,0,0,0-.71-1.87c-.12-.31-.28-.61-.39-.92a6.1,6.1,0,0,0-.59-1.3,8,8,0,0,1-.62-1.29,6,6,0,0,0-.74-1,.62.62,0,0,0-.22-.17,4.15,4.15,0,0,0-2.65-.41c-.36.08-.69.32-1,.43a3.07,3.07,0,0,0-1.41,1.18,2,2,0,0,0-.33.78c-.29,1.15-.6,2.31-.82,3.48a2.62,2.62,0,0,1-.72,1.35,1.25,1.25,0,0,1-1.78.3,1.09,1.09,0,0,1-.33-.26,5.56,5.56,0,0,1-.47-.72,4.25,4.25,0,0,0-.74-1,9.65,9.65,0,0,1-.71-1.05,2.87,2.87,0,0,0-2.74-1.21,5.5,5.5,0,0,0-2.6.7,2.82,2.82,0,0,0-1.45,1.67c-.11.41-.28.81-.38,1.23a3,3,0,0,0-.09.85c0,1.23.09,2.47.14,3.7,0,.14-.06.31,0,.42.28.53.08,1.14.34,1.68a2.34,2.34,0,0,1,.23.82,20.1,20.1,0,0,0,.5,2.66,6.07,6.07,0,0,1,.2,1.41,2.79,2.79,0,0,0,.22,1,4.15,4.15,0,0,1,.24,1.11,14.08,14.08,0,0,0,.6,2.94,1.7,1.7,0,0,1-.13,1.36,11.26,11.26,0,0,0-1.09,3.24.27.27,0,0,0,.27.27c.14,0,.33,0,.4-.1a13.31,13.31,0,0,0,1.32-2.21c.15-.3.28-.61.44-.9a1,1,0,0,1,1.23-.43l.27.09a.33.33,0,0,0,.37-.14c.1-.11.16-.24.26-.34a.26.26,0,0,1,.38,0,.8.8,0,0,1,.22.34c0,.07,0,.18,0,.27a5.59,5.59,0,0,1-.43,1.37,1.92,1.92,0,0,0-.19,1.11Zm19.56-5.41a1.4,1.4,0,0,0,.72-.84.21.21,0,0,0-.07-.22.29.29,0,0,0-.26,0,.46.46,0,0,0-.2.19,1,1,0,0,0-.16.94l-.19,0s.06,0,.08,0A.73.73,0,0,0,1014.91,592Zm-15.51,7.47a2.16,2.16,0,0,0,.31-.29c.32-.41.63-.83.93-1.25s.65-.94.94-1.43.71-.75.79-1.3c.71-.82,1.07-1.89,1.85-2.66a.14.14,0,0,0,0-.13.66.66,0,0,0,0-.25s-.09-.05-.12,0a10.6,10.6,0,0,1-1.89.59,2.06,2.06,0,0,0-.54.2.29.29,0,0,0-.13.22,2.23,2.23,0,0,1-.12,1.25c-.35.73-.53,1.52-.93,2.23a7.61,7.61,0,0,0-.72,1.69c-.11.41-.46.75-.35,1.2Zm27.92-1.64c-.25.4-.48.81-.76,1.19a1.2,1.2,0,0,1-1.23.54,1.56,1.56,0,0,1-1.27-1.19c0-.13,0-.28-.08-.42a.88.88,0,0,0-.12-.17l-.09.11a4.83,4.83,0,0,0-.34.45,11.84,11.84,0,0,1-1.7,2.1.7.7,0,0,1-.37.19,1.48,1.48,0,0,1-1.84-1,3.89,3.89,0,0,1-.21-.83c0-.18,0-.38,0-.57a.24.24,0,0,0-.19-.16.32.32,0,0,0-.24.08,2.22,2.22,0,0,0-.25.35c-.21.32-.38.66-.62,1a1.49,1.49,0,0,1-1.55.48,1.4,1.4,0,0,1-.9-1.19,2.82,2.82,0,0,1,0-.71c0-.48.11-.95.16-1.43a.41.41,0,0,0,0-.27.29.29,0,0,0-.22-.11,1,1,0,0,0-.58.6,6.44,6.44,0,0,1-1.94,2.24.94.94,0,0,1-1.29,0,1.64,1.64,0,0,1-.73-.85.12.12,0,0,0-.21-.06,8.36,8.36,0,0,0-.86,1.3,8.79,8.79,0,0,1-1.36,1.83,1,1,0,0,1-.77.34,2.64,2.64,0,0,0-.28,0,1.07,1.07,0,0,1-1.05-.61,1,1,0,0,1-.15-.95c.09-.22.19-.43.26-.66a2.71,2.71,0,0,0,.12-.55.31.31,0,0,0-.09-.25s-.18,0-.24.06c-.28.26-.36.68-.72.88a.41.41,0,0,1-.4.06c-.08,0-.17-.07-.25-.12a.17.17,0,0,0-.25.06.42.42,0,0,0,0,.27.45.45,0,0,0,.14.24.53.53,0,0,1,.1.76l-1,1.41a1.36,1.36,0,0,1-.56.42,2,2,0,0,1-1,.2,1.08,1.08,0,0,1-1-.82c-.07-.28-.11-.56-.18-.84a.14.14,0,0,0-.23,0,6.59,6.59,0,0,0-.68.72c-.39.49-.73,1-1.12,1.49a4.45,4.45,0,0,1-1.92,1.45.88.88,0,0,1-.42.06c-.8-.14-1.19-.49-1.27-1.14a3,3,0,0,1,.07-1.27c.25-.82.42-1.66.62-2.49,0,0,0-.09-.06-.1a.17.17,0,0,0-.14,0c-.17.17-.34.33-.49.51-.61.73-1.16,1.53-1.83,2.19s-1,1.18-1.47,1.75a1,1,0,0,0-.17.82c.09.52.21,1,.29,1.54a8.09,8.09,0,0,0,.52,2.06,9.39,9.39,0,0,1,.38,1.38c.29,1,.56,2,.87,3a21.56,21.56,0,0,1,.79,3,5,5,0,0,0,.19.69,21.51,21.51,0,0,1,1,3.14,1.72,1.72,0,0,0,.17.4c.24.62.46,1.25.72,1.86a11.94,11.94,0,0,0,.87,1.8c.85,1.38,1.71,2.75,2.52,4.15a7.5,7.5,0,0,0,1.25,1.91c.6,1,1.45,1.89,2.09,2.9a6.82,6.82,0,0,0,1,1.17,20.07,20.07,0,0,0,3.37,2.87c.08,0,.12.15.19.21a10.84,10.84,0,0,0,2.7,1.84,12,12,0,0,1,2.3,1.44,12.65,12.65,0,0,0,1,.82,4.9,4.9,0,0,0,1.2.43,7.41,7.41,0,0,0,1.48.43c.56.05,1.1.36,1.66.43a35.16,35.16,0,0,0,3.84.38,2.35,2.35,0,0,1,.83.16,10.76,10.76,0,0,0,2.52.39,2.6,2.6,0,0,0,.56,0c.71,0,1.43,0,2.14-.11a10.27,10.27,0,0,0,2.28-.17,1.58,1.58,0,0,1,.56.05,1.22,1.22,0,0,0,.42,0,16.31,16.31,0,0,0,2.94-.6,6.61,6.61,0,0,1,1.92-.54,1.17,1.17,0,0,0,.53-.19,6.08,6.08,0,0,1,.91-.39,12.19,12.19,0,0,0,2-.87,4,4,0,0,1,1.19-.46,6,6,0,0,0,2.2-1c1.46-1,2.71-2.26,4.09-3.36a1.72,1.72,0,0,0,.29-.31,19.64,19.64,0,0,0,1.47-1.93,9.82,9.82,0,0,1,.66-.93,6.81,6.81,0,0,0,1.49-2.74,6,6,0,0,1,.69-1.71,6.13,6.13,0,0,0,.81-2,2.84,2.84,0,0,1,.28-.65,2.63,2.63,0,0,0,.24-.51,32.31,32.31,0,0,0,1.2-4.41,1,1,0,0,1,0-.14,14.73,14.73,0,0,0,.62-3.37,3.24,3.24,0,0,1,.12-1,4.2,4.2,0,0,0,.4-1.94.88.88,0,0,1,.1-.41,5.63,5.63,0,0,0,.26-2.54,3.36,3.36,0,0,1,0-1.14,4.61,4.61,0,0,0,0-1.85,6.24,6.24,0,0,1,0-2.28,3.29,3.29,0,0,0,0-1.84,2,2,0,0,1,0-.56c-.06-.91-.11-1.81-.18-2.72a2.73,2.73,0,0,0-.14-.69c-.06-.18-.15-.41-.29-.46s-.31.13-.42.3a1.19,1.19,0,0,1-.28.31,1.53,1.53,0,0,1-2.08-.25c-.09-.11-.16-.23-.26-.34a21.41,21.41,0,0,1-1.42-2c-.07-.11-.16-.1-.22,0a2.45,2.45,0,0,0-.27.5,1.71,1.71,0,0,1-.81,1,.72.72,0,0,1-.69.09,2.21,2.21,0,0,1-.73-.42,3.32,3.32,0,0,1-.63-.77,8.78,8.78,0,0,1-.57-1.15,15.34,15.34,0,0,0-.84-1.73c0-.07-.08-.17-.13-.25s-.09-.08-.11-.07-.17.09-.18.15a3.82,3.82,0,0,0-.06,1.84.85.85,0,0,1,0,.42,4.22,4.22,0,0,1-.73,1.84,1.4,1.4,0,0,1-.45.35,1.32,1.32,0,0,1-1.44-.28,6.62,6.62,0,0,1-1.07-1.69c-.14-.3-.27-.61-.43-.9,0-.07-.15-.1-.24-.14a.24.24,0,0,0-.08.09A5.11,5.11,0,0,0,1041,598a6.92,6.92,0,0,1-.34,1.24,1.51,1.51,0,0,1-1,1l-.41.14a1.2,1.2,0,0,1-1.08-.2,3.43,3.43,0,0,1-1.15-1.61c-.12-.31-.2-.64-.31-1s-.32-.8-.48-1.19c0,0-.08,0-.12,0s-.11,0-.12.06a2.1,2.1,0,0,0-.21.52,5.52,5.52,0,0,1-.88,2.09,1.41,1.41,0,0,1-1.36.64.79.79,0,0,1-.5-.24,5,5,0,0,1-.66-.92,2.68,2.68,0,0,1-.3-.8c-.09-.56-.12-1.13-.19-1.7,0-.07-.09-.14-.15-.2s-.1,0-.11,0a4.12,4.12,0,0,1-.39.6.72.72,0,0,0-.14.66.74.74,0,0,1-.06.41,9.6,9.6,0,0,1-1.22,1.92.43.43,0,0,1-.24.15c-1.09.29-1.57.27-2.23-.91a1.48,1.48,0,0,1-.17-.54,1,1,0,0,1,.16-.38c-.11,0-.11,0,0,0S1027.27,597.6,1027.32,597.78ZM1112.44,557a4.49,4.49,0,0,0,1.72-.26,1.74,1.74,0,0,1,.71-.12,24.28,24.28,0,0,0,4-.39c1-.09,1.93-.49,2.93-.59a6.8,6.8,0,0,1,2.08-.5,4.66,4.66,0,0,0,.84-.19,3.67,3.67,0,0,1,1.51-.34c.3,0,.63-.25,1-.26a17.42,17.42,0,0,0,2.78-.6c.33-.06.64-.22,1-.26a9.45,9.45,0,0,0,2.2-.6,4.8,4.8,0,0,1,.82-.24c1.23-.19,2.39-.66,3.6-.92,1-.23,2-.54,3-.78s2.22-.54,3.35-.72c1.37-.22,2.72-.53,4.07-.86a13.37,13.37,0,0,0,1.6-.59.14.14,0,0,0,.06-.11c-.05-.07-.1-.18-.17-.19a8.45,8.45,0,0,0-2.7-.14,3.05,3.05,0,0,1-1,0,2.18,2.18,0,0,0-.72,0,16.85,16.85,0,0,1-3.55,0c-.53,0-1-.09-1.57-.08-2.2.06-4.39-.07-6.58-.09a1.73,1.73,0,0,1-.82-.17,1,1,0,0,0-.8-.08,6.47,6.47,0,0,1-2.7-.07,12.89,12.89,0,0,0-2.55-.39,8.17,8.17,0,0,1-.84-.14,4.33,4.33,0,0,0-.71-.1,3.54,3.54,0,0,1-1.4-.22,3.93,3.93,0,0,0-1.41-.22,11,11,0,0,1-1.14-.1c-1.13-.15-2.26-.29-3.39-.47a14.29,14.29,0,0,1-1.85-.17c-.6-.16-1.21-.27-1.82-.4l-1.68-.34-1.68-.38a8,8,0,0,1-1.65-.43c-.54-.26-1.13-.2-1.66-.41-.35-.14-.73-.2-1.09-.33-.72-.27-1.46-.47-2.19-.69a3.61,3.61,0,0,1-1.51-.37l-1.64-.52a1.75,1.75,0,0,0-.55-.12,43.42,43.42,0,0,1-4.64-.84c-.14,0-.27-.11-.4-.13a24.17,24.17,0,0,0-2.66-.56,8.71,8.71,0,0,1-1.81-.38c-1.69-.51-3.4-.95-5-1.56a2,2,0,0,0-1-.16,1.46,1.46,0,0,1-1-.21,7.81,7.81,0,0,0-1.87-.7,49.07,49.07,0,0,0-5-1.36,2.16,2.16,0,0,1-.41-.13,11.78,11.78,0,0,0-2.17-.73,3.44,3.44,0,0,0-1.32-.48,6.52,6.52,0,0,0-1.38-.36,11.65,11.65,0,0,0-1.94-.46c-1.6-.48-3.15-1.11-4.78-1.48-.6-.13-1.18-.36-1.8-.44s-1.29-.35-1.94-.5-1.12-.2-1.69-.31c-.23,0-.46-.12-.69-.15s-.36-.24-.44-.48-.3-.18-.47,0-.25.3-.47.27a8.82,8.82,0,0,1-1.7-.24,3.9,3.9,0,0,0-.84-.16c-.42-.06-.86-.07-1.28-.16a27.61,27.61,0,0,0-3.27-.31,1.32,1.32,0,0,0-.56,0,8.62,8.62,0,0,1-2.43.13,10.9,10.9,0,0,0-2.42.22l-.28.05a.77.77,0,0,1-.75-.31c-.13-.14-.17-.13-.37.16a.39.39,0,0,1-.33.2,15.91,15.91,0,0,0-2.81.57,5.44,5.44,0,0,1-.7.15,32.47,32.47,0,0,0-5.39,1.44c-.9.3-1.81.6-2.72.88-.55.17-1.11.29-1.66.44-.82.24-1.58.66-2.44.83a1.65,1.65,0,0,0-.39.17,13.66,13.66,0,0,0-1.52.79c-.52.35-1.11.56-1.63.88-1.27.76-2.64,1.32-3.87,2.15-.55.38-1.14.69-1.72,1a4.8,4.8,0,0,0-1.69,1.28c-.1.14-.32.19-.47.29a4,4,0,0,0-.7.5,3.56,3.56,0,0,1-.87.73,3.6,3.6,0,0,0-1.06,1,4.36,4.36,0,0,1-.56.65,16.67,16.67,0,0,0-2.52,2.72c-.34.46-.71.9-1,1.35a14.69,14.69,0,0,1-.92,1.27c-.61.68-1.09,1.45-1.65,2.16-.33.41-.63.85-.94,1.27a22.34,22.34,0,0,0-2.48,3.47,33.8,33.8,0,0,0-2.51,4,19.58,19.58,0,0,0-1.22,2.42c-.53,1.33-1.12,2.64-1.57,4-.15.45-.29.9-.4,1.37-.26,1.07-.52,2.13-.82,3.19a.65.65,0,0,0,.17.64,3,3,0,0,0,.53.48,6.86,6.86,0,0,1,1.16,1.06c.12.15.27.27.4.41s.33,0,.37-.06a4.16,4.16,0,0,0,.27-.66,5.51,5.51,0,0,0,.09-.71,6.52,6.52,0,0,1,1.81-3.18,7,7,0,0,1,2.26-1.2,2,2,0,0,0,.41-.13c.81-.41,1.7-.07,2.53-.25.77.32,1.72.3,2.24,1.13a.68.68,0,0,0,.35.23,2.29,2.29,0,0,1,.93.87c.39.54.68,1.15,1,1.71s.57,1.2.93,1.76a3.51,3.51,0,0,1,.22.67.29.29,0,0,0,.21.16.26.26,0,0,0,.23-.1,9.47,9.47,0,0,0,.65-1.11,7.35,7.35,0,0,1,2.3-2.5,2.48,2.48,0,0,1,.52-.23,1.23,1.23,0,0,0,.39-.16,10.72,10.72,0,0,1,2.09-1.23,2.63,2.63,0,0,1,1.5-.33,5.66,5.66,0,0,1,2.79,1,4.18,4.18,0,0,1,1.4,1.6,3.22,3.22,0,0,0,.33.64,4.8,4.8,0,0,1,1.16,2.26,2.83,2.83,0,0,0,.47.29c.12.05.41-.14.46-.27a.39.39,0,0,0,0-.14,1.88,1.88,0,0,1,.71-1.2c.35-.33.67-.68,1-1a5.09,5.09,0,0,1,3.88-1.52,1.17,1.17,0,0,1,.56.11,5.72,5.72,0,0,1,2.27,1.68,2.66,2.66,0,0,0,.35.46,3.1,3.1,0,0,1,1.15,1.91,4.71,4.71,0,0,0,.45.33c.13.08.34,0,.46-.25.24-.41.45-.84.71-1.24a11,11,0,0,1,1.19-1.77,5.68,5.68,0,0,1,2.63-1.69,8.06,8.06,0,0,1,3-.36,4.11,4.11,0,0,1,2.43,1.11,4.57,4.57,0,0,1,1.23,1.74,2.49,2.49,0,0,0,.59,1,.42.42,0,0,0,.52.08,8.26,8.26,0,0,1,2.25-1.25,1.44,1.44,0,0,0,1-1,1.86,1.86,0,0,1,.67-.91,14.61,14.61,0,0,0,1.69-1.74c.46-.55.95-1.08,1.45-1.59a15.49,15.49,0,0,0,1.48-1.55c1.08-.86,2.2-1.67,3.26-2.56a2.14,2.14,0,0,1,.62-.36,5.41,5.41,0,0,0,1-.57,2.21,2.21,0,0,1,.62-.34,26.48,26.48,0,0,0,2.91-1.19,6.32,6.32,0,0,1,2.89-.7,1.61,1.61,0,0,0,.56-.12,4.24,4.24,0,0,1,2.12-.15,4,4,0,0,0,1.14.1,11.79,11.79,0,0,1,3.14,0h.14a4.6,4.6,0,0,1,1.57.07,6.71,6.71,0,0,0,1.28.09c.56-.06,1.13,0,1.71-.07a12.24,12.24,0,0,1,1.71,0,.94.94,0,0,0,.29,0,17.31,17.31,0,0,1,2.26-.23c1.18-.21,2.38-.21,3.56-.38s2.29-.13,3.43-.18a4.51,4.51,0,0,0,1.42,0c.48,0,1-.09,1.42-.13a6.26,6.26,0,0,1,.86,0c.62,0,1.24,0,1.85,0a2,2,0,0,0,1.34-.23,1.28,1.28,0,0,1,1-.18,5.68,5.68,0,0,0,1.43,0c.48,0,1-.09,1.42-.16a5.76,5.76,0,0,0,1.26-.27c.49-.19.94.16,1.41,0a2.83,2.83,0,0,1,.42-.07c.37-.08.73-.19,1.1-.25s.76-.05,1.14-.11a9,9,0,0,0,1.26-.24A6.06,6.06,0,0,1,1112.44,557ZM975.9,588.37c-.09.07-.21.13-.21.19a5.61,5.61,0,0,0,0,.71,14.37,14.37,0,0,1,.2,1.84c0,1.2.4,2.34.38,3.53a22.63,22.63,0,0,1,.65,3.66c.1,1.09.29,2.17.38,3.27s.23,2.18.29,3.27a3.17,3.17,0,0,0,.19,1.26c.05,1,.31,2.07.38,3.12a11.79,11.79,0,0,0,.51,2.8,11.22,11.22,0,0,0,1.13,2.46,8.47,8.47,0,0,0,1.85,2.52,2.49,2.49,0,0,1,.53.67,4.58,4.58,0,0,0,.93,1.08c.27.27.52.55.79.82a24.58,24.58,0,0,0,2.18,2.27,7.24,7.24,0,0,0,3.86,2,.92.92,0,0,1,.27.08,13.32,13.32,0,0,0,1.36.42c.52.09,1,.31,1.5.41a4.66,4.66,0,0,1,1.82.77,4.16,4.16,0,0,0,.77.36s.08,0,.11,0,.07-.09.06-.12c-.25-.67-.47-1.35-.76-2a2.3,2.3,0,0,1-.25-1.38c.06-.34-.13-.53-.42-.66a1.27,1.27,0,0,1-.67-1l0-.14a23.58,23.58,0,0,0-.85-3.9c-.38-1.33-.74-2.67-1.09-4-.16-.6-.28-1.21-.42-1.81-.24-1.07-.47-2.14-.74-3.21a3,3,0,0,0-.76-1.35,20.3,20.3,0,0,1-2.84-3.55c-.64-1.06-1.45-2-2.06-3.08-.52-.92-1.14-1.76-1.7-2.65a8.65,8.65,0,0,0-.71-.89c-.77-.91-1.61-1.77-2.29-2.75a3.08,3.08,0,0,0-.38-.43,10.07,10.07,0,0,1-1.5-1.88,26.68,26.68,0,0,0-2.11-2.51A.93.93,0,0,0,975.9,588.37Zm62,2.32a3.21,3.21,0,0,1,.22,1.24,12.7,12.7,0,0,0,.58,2.92s.06.06.1.08.16.05.2-.08a8.13,8.13,0,0,0,.49-1.62,7.36,7.36,0,0,1,.6-2.62c0-.09-.11-.29-.23-.32l-1.1-.29-.56-.11c-.3,0-.49.11-.42.37Zm-30,.67-1.74.31c-.13,0-.24.21-.16.32a1.79,1.79,0,0,1,.13,1.89c-.11.26-.24.52-.34.78a1,1,0,0,0-.09.42.32.32,0,0,0,.11.23.45.45,0,0,0,.28,0,.34.34,0,0,0,.19-.18c.06-.18,0-.4.11-.54a14.08,14.08,0,0,1,1.33-2,5.53,5.53,0,0,0,.65-.93s0-.17-.11-.21S1008,591.39,1007.81,591.36Zm16.56-1.1c-.18,0-.46,0-.74.08a.44.44,0,0,0-.39.36c-.13.6-.28,1.2-.38,1.81a5.17,5.17,0,0,0-.12,1.24c0,.1,0,.13.11.07s.25-.17.3-.29a17,17,0,0,1,1.42-2.79.6.6,0,0,0,.06-.27C1024.65,590.36,1024.6,590.3,1024.37,590.26Zm28.54,3.35s0-.23,0-.41-.06-.29-.23-.31l-1-.12c-.25,0-.45.06-.46.22a.75.75,0,0,0,.07.4,7.44,7.44,0,0,1,1.08,1.63c0,.05.16.07.25.08s.07-.06.09-.1A3.06,3.06,0,0,0,1052.91,593.61Zm-23-.87s.12,0,.13,0a3,3,0,0,1,.49-1c.25-.34.25-.82.64-1.09a.27.27,0,0,0,0-.39c-.09-.1-.22-.22-.33-.22a3.32,3.32,0,0,0-.83.11.48.48,0,0,0-.41.63,3.57,3.57,0,0,1,.13,1.13,4.75,4.75,0,0,0,.06.84S1029.86,592.72,1029.89,592.74Zm4-2.26c0,.38.12.89.2,1.41,0,0,.06.08.09.08s.1,0,.13-.06.16-.13.18-.21c.13-.56.25-1.11.37-1.66a.31.31,0,0,0-.35-.35.57.57,0,0,0-.58.51A2.77,2.77,0,0,0,1033.93,590.48Zm9.6,1.46c-.08-.42-.14-.84-.23-1.26,0-.16-.22-.16-.36-.15a.27.27,0,0,0-.3.24,3.2,3.2,0,0,0,.52,1.87s.11,0,.12,0C1043.37,592.38,1043.45,592.16,1043.53,591.94Zm4.41-.08c0-.23,0-.32,0-.41s-.11-.34-.33-.28l-.4.14a.25.25,0,0,0-.14.34c.11.26.22.52.35.77a.31.31,0,0,0,.22.14.28.28,0,0,0,.18-.14A4.87,4.87,0,0,0,1047.94,591.86Zm-28-1.13a1,1,0,0,0-.08-.11.35.35,0,0,0-.4,0,1.6,1.6,0,0,0-.46,1.15c0,.07.08.21.12.21a.33.33,0,0,0,.25-.12c.2-.32.38-.65.57-1C1019.93,590.83,1019.91,590.77,1019.91,590.73Zm-8.35.33c-.1,0-.34.08-.33.17a3.33,3.33,0,0,0,.07.54.75.75,0,0,0,.13-.06.5.5,0,0,0,.28-.45A.28.28,0,0,0,1011.56,591.06ZM1059,600.8l-.11-.19a.24.24,0,0,0-.11.06.8.8,0,0,0-.13.24,1,1,0,0,0,0,.23c.08,0,.17,0,.22-.1A.63.63,0,0,0,1059,600.8Zm-49.14-5.3c0-.09.23-.2,0-.24,0,0-.06.15-.09.23ZM998.25,601s0-.08-.08-.09a.12.12,0,0,0-.16.13c0,.06.07.11.11.16Zm61.41-1.79-.14-.2c0,.07-.13.14-.13.21s.08.13.13.2Z"/><path d="M972.73,719.25a1.16,1.16,0,0,1-.82.91,1.25,1.25,0,0,1-1.63-.74,2.47,2.47,0,0,1-.17-.7,14.61,14.61,0,0,1,.09-3.85c.09-.47.24-.92.35-1.39a7.76,7.76,0,0,0,.15-.84c0-.11-.19-.27-.3-.21a4.22,4.22,0,0,0-.84.52,2.93,2.93,0,0,1-1.11.63c-.31.1-.63.22-1,.29a4.11,4.11,0,0,1-.85.1,1.44,1.44,0,0,1-1.28-.78.54.54,0,0,1-.09-.27,2.69,2.69,0,0,1,.63-2,9.33,9.33,0,0,1,3-2.13,3.26,3.26,0,0,0,1-.81.25.25,0,0,0,0-.25,1.46,1.46,0,0,0-.37-.2l-2.59-1.21-.51-.27a2,2,0,0,1-1-1.77.74.74,0,0,1,.08-.41,7.48,7.48,0,0,1,.54-.84.89.89,0,0,1,.75-.35,9.08,9.08,0,0,1,1.28.11c.43.06.84.19,1.26.28a3.44,3.44,0,0,1,1.65.82c.41.38,1,.57,1.28,1.11a.21.21,0,0,1,0,.27,1,1,0,0,0-.08.11.63.63,0,0,1-.71.35,3.78,3.78,0,0,1-1.35-.45c-.24-.15-.5-.27-.76-.41a2.71,2.71,0,0,0-1.38-.2c-.08,0-.09,0,0,.11a1,1,0,0,0,.68.47,11.5,11.5,0,0,1,3.15,1.32,1.48,1.48,0,0,1,.37.21c.6.5,1,1,.38,2a2.82,2.82,0,0,0-.24.36.29.29,0,0,0,0,.26c.14.13.31.22.46.34a1.17,1.17,0,0,1,.45,1,2.07,2.07,0,0,1-.1.71c-.38.78-.42,1.66-.73,2.47a5.72,5.72,0,0,0-.2,1.26.27.27,0,0,0,.05.13c.07,0,.19,0,.21-.07.17-.34.31-.69.48-1a6.71,6.71,0,0,1,.49-.87.77.77,0,0,1,1.14-.05,1.32,1.32,0,0,1,.43.88q0,.93.09,1.86a4.11,4.11,0,0,0,.51,1.77c0,.05.14.06.22.07s.08-.06.09-.1c0-.52.1-1,.12-1.57a9.6,9.6,0,0,1,.11-1.42,3.72,3.72,0,0,0,0-1,1.12,1.12,0,0,1,.51-1.11.43.43,0,0,0,.1-.09c.2-.19.21-.28.1-.5l-1.11-2.16a2,2,0,0,1-.2-.83,1.46,1.46,0,0,1,.57-1.39A6.63,6.63,0,0,1,977,707a4.18,4.18,0,0,0,1.15-.83c.71-.78,1.59-1.37,2.29-2.17.43-.49,1-.84,1.5-1.31a19.68,19.68,0,0,1,1.6-1.43c.29-.24.6-.46.91-.69a.76.76,0,0,0,.22-.18,26.11,26.11,0,0,1,2.93-3.11c.38-.66,1.13-1,1.44-1.76a14.4,14.4,0,0,0,1.11-1.1,12.2,12.2,0,0,0,.78-1.19,14,14,0,0,0,2-2.41c.71-.84,1.21-1.82,1.83-2.72a2.58,2.58,0,0,1,.61-.78,1.11,1.11,0,0,0,.31-.47,5,5,0,0,1,.91-1.44,5.27,5.27,0,0,0,.58-.82c.78-1.2,1.43-2.48,2.2-3.69a3.06,3.06,0,0,0,.26-.51c.34-1,.84-1.91,1.26-2.87a23.8,23.8,0,0,1,1.39-2.82,15,15,0,0,1,1.27-2.24,10.38,10.38,0,0,0,.6-2,3.33,3.33,0,0,1,.31-1.24c.35-.84.56-1.72.93-2.55a3,3,0,0,0,.43-1,3.55,3.55,0,0,1,.42-1c.16-.34.32-.69.49-1s.32-.69.49-1a15.94,15.94,0,0,0,.89-3.28,1,1,0,0,0-.23-.8l.1,0-.06,0a16.44,16.44,0,0,0-1.3,2.54,9,9,0,0,1-.94,1.76,3.44,3.44,0,0,0-.31.64c-.25.56-.48,1.14-.74,1.7a15,15,0,0,0-.76,1.69,2.7,2.7,0,0,1-.87,1.28l.08-.1c-.19,0,0-.07,0,.09a4.51,4.51,0,0,1-.8,2,26.93,26.93,0,0,0-1.72,3.44c-.13.3-.26.61-.42.91a1,1,0,0,1-.61.56q-.18.06-.15.18c.13.45-.17.74-.41,1a5.89,5.89,0,0,0-.89,1.46,6.71,6.71,0,0,1-1,1.7c-.42.52-.81,1.06-1.2,1.6a16.87,16.87,0,0,0-1,1.4,19.33,19.33,0,0,0-1.46,2.29,3.2,3.2,0,0,1-.55.84,28.58,28.58,0,0,0-2.33,3.24c-.31.48-.65.94-1,1.4a1.69,1.69,0,0,1-.32.27c-.11.08-.3.16-.31.25-.07.58-.5.92-.81,1.34-1.11,1.49-2.22,3-3.37,4.45a18.26,18.26,0,0,1-1.87,2,42.81,42.81,0,0,0-3.36,3.11,4.26,4.26,0,0,1-1.67,1.32c-.43.45-1,.69-1.45,1.15a7.43,7.43,0,0,1-1.87,1.29,1.15,1.15,0,0,1-1,0,.58.58,0,0,1-.24-.14,1.68,1.68,0,0,1-.43-1.18.8.8,0,0,1,.2-.52,2.67,2.67,0,0,1,1.26-.9.74.74,0,0,0,.43-.35,4,4,0,0,1,1.48-1.31,5.54,5.54,0,0,0,1.79-1.4,6.21,6.21,0,0,1,1.19-1,2.24,2.24,0,0,0,.61-.58,5.4,5.4,0,0,1,1.39-1.43,4.57,4.57,0,0,0,.89-.92,4.76,4.76,0,0,0,.72-.87,3.53,3.53,0,0,1,.7-.9,15.8,15.8,0,0,0,2.05-2.55,2.44,2.44,0,0,1,.32-.47c.9-.93,1.51-2.09,2.32-3.08a7.63,7.63,0,0,0,.64-1,3.37,3.37,0,0,1,1-1.32c.43-.68,1.05-1.22,1.43-2a8.45,8.45,0,0,1,1.14-1.81,11.09,11.09,0,0,0,.73-1.21c.23-.36.55-.66.79-1a11.11,11.11,0,0,1,1.34-1.86.94.94,0,0,0,.16-.23c.3-.54.6-1.08.89-1.62.54-.37.63-1,1-1.53a5.42,5.42,0,0,0,.88-1.62c.15-.43.58-.61.7-1.06a5.77,5.77,0,0,1,.53-1.16c.19-.39.39-.77.6-1.15s.36-.56.53-.85a1.71,1.71,0,0,0,.32-.63,3.84,3.84,0,0,1,.71-1.53c.25-.45.69-.82.69-1.39.28-.5.6-1,.84-1.49s.38-1,.62-1.42a21.2,21.2,0,0,0,1.67-3.16c.48-.6.59-1.41,1.11-2a1.66,1.66,0,0,0,.24-.52,1.84,1.84,0,0,1,.24-.51,6.81,6.81,0,0,0,1.1-1.83,11.89,11.89,0,0,1,.86-1.8,23.1,23.1,0,0,1,1.68-3c.24-.29.38-.66.6-1a.63.63,0,0,1,.36-.19c.13,0,.37.23.38.38a2.09,2.09,0,0,1,0,.56,13,13,0,0,1-.85,2.43c-.22.48-.41,1-.61,1.45a.36.36,0,0,0,0,.39.74.74,0,0,0,.68.1.22.22,0,0,0,.1-.09,2.71,2.71,0,0,0,.17-.39c.18-.69.31-1.4.53-2.08s.62-1.28.81-2a3.5,3.5,0,0,1,.56-1,.7.7,0,0,1,.64-.24c.11,0,.19,0,.21.14a1.38,1.38,0,0,1,.06.56,26.93,26.93,0,0,1-.77,2.76c-.31.81-.36,1.67-.6,2.5a.51.51,0,0,0,.25.47,9.47,9.47,0,0,0,2,.4,4.08,4.08,0,0,1,1.55.26,7.19,7.19,0,0,0,2.09.42,2.29,2.29,0,0,1,.7.13,8.47,8.47,0,0,0,3.24.43c.95,0,1.91,0,2.86,0a13.47,13.47,0,0,0,1.56.1,36.52,36.52,0,0,1,4.44-.07,34.35,34.35,0,0,0,5.27-.41c.8-.14,1.58-.38,2.37-.59a7.06,7.06,0,0,1,1.12-.18,22.55,22.55,0,0,0,2.84-.39,9,9,0,0,0,1.72-.7.83.83,0,0,0,.49-.93c-.17-.94-.08-1.9-.24-2.84a1.88,1.88,0,0,1,0-.71,19.48,19.48,0,0,0,.07-2.86,14.39,14.39,0,0,1,.48-4,4.34,4.34,0,0,1,.4-.91.52.52,0,0,1,.85,0,2.59,2.59,0,0,0,1.18,1.2,1,1,0,0,1,.33.27,23.54,23.54,0,0,1,2,2.25,8.55,8.55,0,0,1,1.67,2.12,2.54,2.54,0,0,0,.42.58c.88.69,1.36,1.73,2.19,2.45a20.64,20.64,0,0,1,1.61,1.63,15.56,15.56,0,0,0,1.79,1.65,10.12,10.12,0,0,1,2.14,1.89c.38.18.56.64,1,.74a.74.74,0,0,1,.34.25c.82.88,1.81,1.56,2.66,2.4a12.11,12.11,0,0,0,2.54,1.84,2.3,2.3,0,0,1,.48.3,11,11,0,0,0,2.16,1.41,9.78,9.78,0,0,1,1.07.69,4.09,4.09,0,0,0,1.19.78c.16.06.28.25.42.37s.19.25.32.28a3.43,3.43,0,0,1,1.4,1,2.94,2.94,0,0,0,.87.48,12.45,12.45,0,0,1,2.32,1.4,10.38,10.38,0,0,0,2.1,1.2,3.65,3.65,0,0,1,1,.59,6.37,6.37,0,0,0,1.8,1.16,7.64,7.64,0,0,1,1.68,1.08,1.45,1.45,0,0,0,.45.34,7.38,7.38,0,0,1,1.77.9c.58.42,1.31.55,1.93.93a15.82,15.82,0,0,0,1.81.86.29.29,0,0,0,.13,0,7.25,7.25,0,0,1,2.34.58c.55-.06,1,.27,1.52.33a14.48,14.48,0,0,0,2.27.26,3.57,3.57,0,0,1,1.81.36.73.73,0,0,0,.4.11,2.81,2.81,0,0,1,1.85.63,1.51,1.51,0,0,1,.73,1,1.36,1.36,0,0,1-1.31,1.66,4.91,4.91,0,0,1-.86-.06c-1.72-.4-3.49-.56-5.22-.87-.85-.16-1.68-.39-2.51-.59-.47-.11-.93-.21-1.39-.34a12.2,12.2,0,0,1-2.8-1.08,7.49,7.49,0,0,0-.89-.46,29,29,0,0,1-3.54-1.84,7,7,0,0,1-1.61-1.18,1.19,1.19,0,0,0-.33-.27,7.91,7.91,0,0,1-1.78-1.19,5.12,5.12,0,0,0-1.13-.61,2.68,2.68,0,0,1-1.32-.81.51.51,0,0,0-.23-.15c-.88-.39-1.63-1-2.5-1.41a3.79,3.79,0,0,1-1.36-1,4.23,4.23,0,0,0-1.24-1c-.54-.3-1.06-.64-1.58-1-1.43-.95-2.87-1.89-4.21-3a4,4,0,0,0-1-.63,2.41,2.41,0,0,1-.75-.64,8,8,0,0,0-1.32-1.28,1.65,1.65,0,0,0-1.31-.47,4.72,4.72,0,0,0-.18-.53,2.37,2.37,0,0,0-1.16-1.35c-.2-.07-.34-.31-.5-.48a5,5,0,0,0-.4-.4.58.58,0,0,0-.65-.09.36.36,0,0,0-.3-.36c0-.27-.24-.18-.41-.16a1.12,1.12,0,0,0-.68-1.23.32.32,0,0,0-.37.05c0-.32,0-.32-.35-.27.09-.23.16-.47,0-.67a8.63,8.63,0,0,1-1.38-1.63,2.22,2.22,0,0,0-.42-.38,11.32,11.32,0,0,1-1.44-1.57c-.11-.54-.61-.85-.81-1.32a8.28,8.28,0,0,0-.93-1.25c-.15-.23-.35-.45-.5-.68-.71-1.07-1.58-2-2.2-3.14a.24.24,0,0,0-.11-.09c-.09,0-.2-.11-.26-.08s-.27.16-.29.26a2.2,2.2,0,0,0,.61,2.22c.24.23.43.51.66.75.55.59,1.14,1.14,1.7,1.72s1.08,1.32,1.72,1.91a7.35,7.35,0,0,1,1,1,30,30,0,0,0,2.46,2.58,4.19,4.19,0,0,1,.26.33c.12.09.22.18.33.28.29.28.58.56.86.85a1.85,1.85,0,0,1,.21.33l.4.16.29.36a8.82,8.82,0,0,0,1.88,1.88,8.49,8.49,0,0,1,1,1,1.12,1.12,0,0,0,.16.37q.82.79,1.68,1.56c.21.18.49.29.71.47.51.43,1,.86,1.5,1.33A7.74,7.74,0,0,0,1066,664a2.47,2.47,0,0,1,.75.65,3.18,3.18,0,0,0,1.22,1,9.63,9.63,0,0,1,1.64,1.14,43.5,43.5,0,0,0,3.77,2.82c.24.15.47.32.71.48.75.51,1.5,1,2.29,1.47,1.35.8,2.64,1.71,4,2.57.24.15.48.31.74.44.63.33,1.29.61,1.91,1,1.13.63,2.31,1.15,3.47,1.7,1.43.67,2.88,1.28,4.32,1.92a5.29,5.29,0,0,0,1.21.43c1.22.23,2.4.64,3.62.88a3.3,3.3,0,0,0,1,.13c1-.1,1.91.16,2.86.12a1.55,1.55,0,0,1,.56.11,1.62,1.62,0,0,1,.94,1.33.59.59,0,0,1-.1.26,11.77,11.77,0,0,0-1,1.91,8.2,8.2,0,0,1-.33,1.53c-.13.7-.29,1.39-.44,2.09,0,.14-.09.27-.13.41-.13.45-.3.67-.47.61s-.24-.37-.29-.6a8.25,8.25,0,0,1-.13-1.57,4.23,4.23,0,0,1,.61-2.32,5.08,5.08,0,0,0,.34-.79.29.29,0,0,0-.25-.41c-.47,0-1-.06-1.43,0a13.48,13.48,0,0,1-5.18-1,10.47,10.47,0,0,0-1.1-.29,20.36,20.36,0,0,1-2.9-1.2c-1.51-.69-3-1.44-4.5-2.19-1.28-.65-2.49-1.41-3.7-2.18-.89-.56-1.77-1.13-2.65-1.7a1.26,1.26,0,0,0-.26-.13,3.21,3.21,0,0,1-1.72-1.22.58.58,0,0,0-.36-.21,2.31,2.31,0,0,1-1.25-.66c-1.06-.89-2.24-1.62-3.34-2.46-.88-.66-1.72-1.36-2.58-2a11.68,11.68,0,0,0-1.16-.83,8.82,8.82,0,0,1-1.53-1.27,23,23,0,0,0-1.83-1.6c-.68-.52-1.29-1.14-1.92-1.72a14.61,14.61,0,0,1-2.06-2.17c-1-.73-1.64-1.73-2.54-2.51a1.73,1.73,0,0,1-.38-.43,8.19,8.19,0,0,0-1.34-1.48c-1.37-1.33-2.59-2.8-3.83-4.25-1-1.23-2.1-2.46-3.13-3.71a3,3,0,0,0-.54-.46s-.16,0-.24.08a.19.19,0,0,0,0,.13,11.07,11.07,0,0,0,.22,3.14,4.5,4.5,0,0,1,.21,1.83,1.79,1.79,0,0,0,.07.56c.2,1.18.3,2.37.61,3.53a4.14,4.14,0,0,1,.13,1,4.53,4.53,0,0,0,.24,1.26,5.87,5.87,0,0,1,.13.84,1.29,1.29,0,0,0,0,.28,4.23,4.23,0,0,1,.41,1.8,10.18,10.18,0,0,0,.34,1.83,14,14,0,0,0,.3,1.4c.07.32.14.65.2,1,0,.1,0,.19,0,.29.08.52.47,1,.42,1.5a5.57,5.57,0,0,0,.14,1.42,10.75,10.75,0,0,0,.32,1.24c.45,1.46.62,3,1,4.47a8.2,8.2,0,0,0,.43,1.52.65.65,0,0,1,0,.13c.47,1.65.94,3.31,1.39,5a3,3,0,0,1,0,.85.44.44,0,0,0,.11.39,1.6,1.6,0,0,1,.45.86,5.33,5.33,0,0,0,.62,1.89,1,1,0,0,1,.14.41c.16,1.23.75,2.36.93,3.59a7.46,7.46,0,0,0,.6,1.61,6.56,6.56,0,0,1,.33.94,10.69,10.69,0,0,0,.49,1.48c.18.5.28,1,.42,1.52a.88.88,0,0,0,.1.27c.61.8.92,1.78,1.58,2.54a.94.94,0,0,1,.23.93,1.6,1.6,0,0,0,.2,1.5c.29,1,.9,1.9,1.22,2.9a4.09,4.09,0,0,0,.52,1,18.27,18.27,0,0,1,1.59,3.66,4.2,4.2,0,0,1,.17.7,1.35,1.35,0,0,1-.75,1.41,1.28,1.28,0,0,1-1.48-.13c-.21-.18-.45-.35-.66-.54-.36-.3-.36-.31-.66.07a3.44,3.44,0,0,1-1.41.94,5.34,5.34,0,0,1-1,.3,14.73,14.73,0,0,0-2.17.67,2.66,2.66,0,0,1-1.1.27.64.64,0,0,0-.28.06,10,10,0,0,1-3.05.71,5.21,5.21,0,0,0-1.26.24,12.93,12.93,0,0,1-3.37.52c-.76.09-1.51.1-2.27.26a13.38,13.38,0,0,1-2.29.09l-.56,0c-.16,0-.37.27-.33.41s.1.37.14.55a7.38,7.38,0,0,1,.18,1.13,5.25,5.25,0,0,0,.3,1.68,10.88,10.88,0,0,1,.38,1.67,10.81,10.81,0,0,0,.57,2.22,4.09,4.09,0,0,1,.25,1.1,6.78,6.78,0,0,0,.47,1.78,14,14,0,0,1,.56,1.77,5.77,5.77,0,0,0,.39.92c.45.89.93,1.76,1.4,2.63s1,1.71,1.53,2.57a7.1,7.1,0,0,0,2.38,2.4c.08.06.2.06.26.12,1,1,2.47,1.19,3.66,1.85l2,.44a2.44,2.44,0,0,1,.55.12,2.36,2.36,0,0,0,1.67.19,1.73,1.73,0,0,1,.84.09,13.46,13.46,0,0,0,2.26.36,3.22,3.22,0,0,0,1.41-.13,1.45,1.45,0,0,1,.85-.07,5.76,5.76,0,0,0,2.66-.43,9.76,9.76,0,0,0,1.56-.69c.47-.23.93-.47,1.38-.74s1-.68,1.55-1a9.5,9.5,0,0,1,1.22-.75,2.5,2.5,0,0,0,1-.82,2.88,2.88,0,0,1,1.06-.93,3.65,3.65,0,0,0,1.27-1.14,6.16,6.16,0,0,1,1.63-1.59,3.57,3.57,0,0,0,.81-.79,10.71,10.71,0,0,1,1.17-1.26c.58-.56,1.08-1.21,1.62-1.81a4.32,4.32,0,0,1,.61-.6,1.33,1.33,0,0,1,1.36-.17,1.14,1.14,0,0,1,.54.45c.12.21.22.43.32.64a1.21,1.21,0,0,0,.68.69,7.35,7.35,0,0,1,1.8,1.39,14,14,0,0,1,1.16,1.26,2.53,2.53,0,0,0,.42.38,5.06,5.06,0,0,1,1.18,1,2.1,2.1,0,0,0,.78.61,1.85,1.85,0,0,1,.58.41,2.28,2.28,0,0,1,.52.68c.33.79,1.12,1.32,1.25,2.22a2.8,2.8,0,0,0,.46,1.18,1.77,1.77,0,0,1,.14,1.52,2.61,2.61,0,0,1-.56,1,1.6,1.6,0,0,1-1.39.58,4,4,0,0,1-1.64-.46,13.79,13.79,0,0,1-2.09-1.23,3.9,3.9,0,0,0-.87-.49,2.13,2.13,0,0,1-1-.8,1.86,1.86,0,0,0-.49-.52,7.33,7.33,0,0,1-1.5-1.91c-.15-.24-.32-.47-.46-.72a7,7,0,0,1-1-2.19,2.15,2.15,0,0,0-.37-.76.24.24,0,0,0-.24-.06,7.87,7.87,0,0,0-.75.66c-.37.37-.72.77-1.05,1.17s-.84.64-1.12,1.1a1.56,1.56,0,0,1-.4.41l-2.09,1.74a4.78,4.78,0,0,0-1.13,1.07,1.77,1.77,0,0,1-.78.62,7.87,7.87,0,0,0-1.78,1.18,16.77,16.77,0,0,1-1.79,1.18,1.16,1.16,0,0,1-.52.23,3.58,3.58,0,0,0-1.57.65,2,2,0,0,1-.53.2c-.65.16-1.29.34-1.94.47a6.15,6.15,0,0,1-.86,0,8.47,8.47,0,0,0-1.13.06,12.87,12.87,0,0,1-4.42,0c-.8-.14-1.6-.26-2.41-.35a13.18,13.18,0,0,1-1.95-.47,7.73,7.73,0,0,0-1.37-.4,2,2,0,0,1-.53-.21,8.09,8.09,0,0,0-1-.45,22.51,22.51,0,0,1-2.6-1.18,1,1,0,0,1-.25-.15,18.13,18.13,0,0,1-2.55-2.48,9.33,9.33,0,0,1-1.31-2,1.74,1.74,0,0,0-.49-.7,2.72,2.72,0,0,1-.82-1.63,1.53,1.53,0,0,0-.18-.52,14.72,14.72,0,0,1-1.8-4.34,23.2,23.2,0,0,1-.75-3.5c-.1-.85-.35-1.68-.53-2.52a4.83,4.83,0,0,1-.12-.85,3.76,3.76,0,0,0-.21-1.4,1.83,1.83,0,0,1-.11-.84,9.56,9.56,0,0,0-.26-2.56c-.08-.46-.19-.56-.66-.56a12.13,12.13,0,0,1-2.41-.2,6.2,6.2,0,0,0-.86-.05,10.23,10.23,0,0,1-2.14-.22,3.37,3.37,0,0,0-.71-.09,21,21,0,0,1-3.54-.44,8.36,8.36,0,0,0-1-.12,32.6,32.6,0,0,1-3.84-.33c-1.23-.21-2.47-.23-3.69-.43-.9-.15-1.1,0-1.21.94s-.21,1.71-.31,2.56a3.46,3.46,0,0,0-.06.71,3.45,3.45,0,0,1-.12,1.28,5.07,5.07,0,0,0-.11,2.26,2.41,2.41,0,0,1,0,1,17.53,17.53,0,0,0-.28,2.7,9.85,9.85,0,0,0,.07,2.71,2.69,2.69,0,0,1,0,.85,4.59,4.59,0,0,0-.07,1.28c.13,1,0,2,0,3,0,.14,0,.29,0,.43l.12,4.73c0,.24,0,.48,0,.71a5.8,5.8,0,0,0-.11.85c.06.71.06,1.42.09,2.13,0,.48.09,1,.08,1.43a17.77,17.77,0,0,0,.25,3.57,4,4,0,0,1,0,.85,13.53,13.53,0,0,0,.29,3.42c.12.61.18,1.23.24,1.84.1,1.14.15,2.29.29,3.42a15.5,15.5,0,0,0,.57,3.24,1.5,1.5,0,0,1,.09.56,18,18,0,0,0,.64,3.65c.13.56.39,1.08.49,1.64a11.52,11.52,0,0,0,.57,1.62,5,5,0,0,1,.28,2.94.83.83,0,0,1-.41.56,6.58,6.58,0,0,1-.66.29.62.62,0,0,1-.77-.18,2.31,2.31,0,0,1-.64-1.26,2.79,2.79,0,0,0-.17-.69,24.81,24.81,0,0,1-1-3.15c-.08-.37-.29-.7-.39-1.07a11.22,11.22,0,0,1-.29-1.4,3.82,3.82,0,0,0-.3-1.1,1.17,1.17,0,0,1-.1-.55c.08-.87-.28-1.7-.21-2.56a.3.3,0,0,0,0-.14,5.11,5.11,0,0,1-.44-2.37c-.14-1-.23-2.09-.4-3.13a16.93,16.93,0,0,0-.38-2.54,1.82,1.82,0,0,1,0-.57c0-1-.08-2.09-.17-3.14-.07-.8-.22-1.6-.22-2.41a7.34,7.34,0,0,1,0-1.15,5,5,0,0,0,0-1.28,5,5,0,0,1,0-1.28,5.77,5.77,0,0,0,.05-1.71,19.85,19.85,0,0,1,0-4.15c0-.19,0-.38,0-.57,0-1.57-.05-3.15-.07-4.72a8.08,8.08,0,0,1,.05-.85,2.48,2.48,0,0,0,0-.71,13,13,0,0,1,.1-2.86c0-.62.12-1.24.09-1.85a5,5,0,0,1,.17-1.84,2.67,2.67,0,0,0,.08-.85,13.88,13.88,0,0,1,.49-3.68,7.55,7.55,0,0,0,.13-.85,12.16,12.16,0,0,1,.57-2.21.46.46,0,0,0-.26-.59,1.94,1.94,0,0,0-1.52-.23c-.41-.09-.83-.16-1.25-.27a16.45,16.45,0,0,0-2.49-.61c-.47-.36-1.11-.26-1.6-.55s-1.15-.68-1.72-1c-.11-.06-.25-.19-.25-.3a2.24,2.24,0,0,0-.32-.94,1.93,1.93,0,0,1-.14-.69c-.13-1.62-.34-3.23-.58-4.83a1.69,1.69,0,0,0-.12-.56.89.89,0,0,1,.06-1.06.6.6,0,0,0,0-.68,2.16,2.16,0,0,1-.24-.81,9.8,9.8,0,0,0-.16-1.71,1.12,1.12,0,0,1,0-.57,3.25,3.25,0,0,0,.12-1c0-.52.15-1,.16-1.56s-.1-.95-.1-1.43.07-1.05.1-1.57a.56.56,0,0,0-.25-.48.83.83,0,0,1-.16-.93,1.43,1.43,0,0,1,.3-.48.8.8,0,0,0,.19-.53,12.5,12.5,0,0,1,.18-3,3,3,0,0,0,0-.85,3.39,3.39,0,0,1,.06-1.42c.15-.52.11-1.05.21-1.56a1.21,1.21,0,0,0-.65-1.43.36.36,0,0,1-.12-.08c-.14-.12-.08-.36.09-.49s.7-.15.81-.52a7.92,7.92,0,0,0,.05-.85c.13-.9.19-1.8.29-2.7s.12-1.71.2-2.56a22.52,22.52,0,0,1,.47-3.83,8.21,8.21,0,0,0,.09-1.13c.12-.9.25-1.8.4-2.69a2.07,2.07,0,0,0,0-1c.29-.11.22-.36.21-.58,0,0,0-.07-.07-.09a.1.1,0,0,0-.09,0,.89.89,0,0,0,0,.66c-.08,0-.19.05-.25.11a2.16,2.16,0,0,0-.24.35,19.84,19.84,0,0,0-2.23,6,3.22,3.22,0,0,1-.2.69,35.24,35.24,0,0,1-2.16,4.67,15.38,15.38,0,0,0-.66,1.43,8.51,8.51,0,0,1-.62,1.29,1.62,1.62,0,0,0-.25.51,10.44,10.44,0,0,1-1.46,2.93.58.58,0,0,0-.14.24,9.17,9.17,0,0,1-1.21,2.27c-.47.72-.92,1.44-1.38,2.17a5.51,5.51,0,0,0-.37.61,12,12,0,0,1-1.41,2,8,8,0,0,0-.5.69,45.57,45.57,0,0,1-3.51,4.87c-.09.11-.19.22-.29.32a9.36,9.36,0,0,0-1.75,1.86c-1,.93-1.87,2-2.86,3-.38.36-.72.76-1.07,1.15l-.1.1c-.8.6-1.44,1.38-2.25,2a36.11,36.11,0,0,0-4.13,3.51,7.12,7.12,0,0,1-1,.85c-.46.34-.9.71-1.33,1.08a.58.58,0,0,0-.12.77q.63,1,1.29,2c.26.4.55.79.83,1.17a9.15,9.15,0,0,1,1.38,3.43,5.23,5.23,0,0,1,.06.57,1.39,1.39,0,0,1-.36,1.19c-.22.25-.4.56-.76.6a1.84,1.84,0,0,1-1.36-.35c-.22-.17-.41-.38-.64-.56,0,0-.21,0-.22.09-.12.56-.2,1.12-.31,1.68a5.38,5.38,0,0,1-.18.69,1.58,1.58,0,0,1-1,.91.67.67,0,0,1-.28,0,1.85,1.85,0,0,1-1.13-.56,6.83,6.83,0,0,1-1.32-2s-.2,0-.23,0c-.19.21-.34.45-.53.66,0,0-.16,0-.24,0q.11.13,0,.06Zm73.63-57.79a2.26,2.26,0,0,0,0-1.64,5.12,5.12,0,0,1-.37-2.11,6.18,6.18,0,0,0-.31-2.1c0-.12-.23-.24-.33-.19a3.85,3.85,0,0,1-1.24.32,2.37,2.37,0,0,0-.81.22,1.84,1.84,0,0,1-1,.25l-.86,0a6.55,6.55,0,0,0-2.1.38,7.58,7.58,0,0,1-1.38.36c-1.18.2-2.37.35-3.54.54a26.6,26.6,0,0,1-4.72.12,2.6,2.6,0,0,0-1.27,0,16,16,0,0,1-2.28.15c-1.29-.09-2.57-.12-3.86-.14a12.85,12.85,0,0,1-1.85-.17c-.61-.09-1.21-.31-1.82-.36a9.22,9.22,0,0,1-2.22-.53,5.45,5.45,0,0,0-1.26-.27,12.19,12.19,0,0,1-2.25-.4.45.45,0,0,0-.55.34l-.06.13c-.32,1.1-.38,2.25-.59,3.37a1.58,1.58,0,0,0,0,.57.53.53,0,0,0,.24.32,12.46,12.46,0,0,0,2,.74,21.66,21.66,0,0,1,2.23.49,2.11,2.11,0,0,0,.56.09,25.71,25.71,0,0,0,3.27.34.66.66,0,0,1,.27.06,22.92,22.92,0,0,0,3,.46c1.76,0,3.52.25,5.29,0a3.62,3.62,0,0,1,.57,0c1.1,0,2.2,0,3.29-.05,1.29-.07,2.57-.19,3.84-.34.76-.09,1.53-.1,2.28-.2.42-.06.82-.26,1.25-.32s.86,0,1.27,0a21.2,21.2,0,0,0,3.93-.78,1.05,1.05,0,0,1,.83.07c.18.08.34.17.51.26a5.52,5.52,0,0,1-.11.71,1.18,1.18,0,0,1-1,1c-.23,0-.48,0-.67.19a1.66,1.66,0,0,1-.93.32,8.19,8.19,0,0,0-1,.17,6.06,6.06,0,0,1-2.12.27,3.38,3.38,0,0,0-.7.1,11,11,0,0,1-1.14.12,11,11,0,0,0-2,.23,6.53,6.53,0,0,1-1.54.26c-.56-.06-1.14.08-1.7.07a11.12,11.12,0,0,1-2-.05,1.13,1.13,0,0,0-.57.07,4.07,4.07,0,0,1-1.7.14c-.76,0-1.52.07-2.28,0s-1.62-.13-2.43-.2H1024a4.81,4.81,0,0,1-.85-.09,6.22,6.22,0,0,0-1.42-.14,2.79,2.79,0,0,1-.58,0,37.42,37.42,0,0,0-4-.59,1.3,1.3,0,0,1-.55-.12c-1-.57-2.35-.47-3.34-1.2a5.53,5.53,0,0,1-1.49-.48.34.34,0,0,0-.36.16c-.15.41,0,.86-.2,1.26s-.09.85-.19,1.26c-.37,1.48-.41,3-.78,4.51a2.86,2.86,0,0,0,0,.42c0,.36.11.57.44.62a17,17,0,0,0,3.09.56,1.81,1.81,0,0,1,.55.12,11.67,11.67,0,0,0,2.7.33,15.72,15.72,0,0,1,3.42.25.86.86,0,0,0,.42,0c.44-.17.84.09,1.27.09a2.08,2.08,0,0,1,1.25.2l2.27.23a6.35,6.35,0,0,1,2.13,0,5.21,5.21,0,0,0,1.42-.06,4.83,4.83,0,0,1,1.42,0,8.55,8.55,0,0,0,1.4-.19,5.3,5.3,0,0,1,.57,0,4.62,4.62,0,0,0,1.28-.15,3.43,3.43,0,0,1,.85-.13,7.06,7.06,0,0,0,1.27-.18c.87-.22,1.76-.38,2.65-.56.47-.1.95-.12,1.41-.26a6.39,6.39,0,0,1,1.38-.29,6.26,6.26,0,0,0,2.37-.51,3,3,0,0,1,.69-.15,5.38,5.38,0,0,0,.69-.18,5.81,5.81,0,0,1,2.22-.47.51.51,0,0,0,.45-.49,15.89,15.89,0,0,0-.43-2.82,10.4,10.4,0,0,1-.48-2.66,3.76,3.76,0,0,0-.36-1.51C1046.55,661.55,1046.43,661.52,1046.36,661.46Zm-37.55,33.93a3.53,3.53,0,0,1,0,.72,8.73,8.73,0,0,0,.12,2.55c.05.47.1,1,.16,1.42a.45.45,0,0,0,.34.41c.33.07.65.14,1,.19a7.9,7.9,0,0,1,.85.12,8.61,8.61,0,0,0,2,.3,18.82,18.82,0,0,0,2,.14,14.25,14.25,0,0,1,1.85.12c1.05.09,2.09.22,3.13.32l1.13.09c.38,0,.76,0,1.13.07,1.08.19,2.18.12,3.27.32a7.78,7.78,0,0,0,1.28,0c.34,0,.67,0,1,0,.72,0,1.43.06,2.14.15a14.59,14.59,0,0,0,2.29,0,3.77,3.77,0,0,1,.57,0,16.23,16.23,0,0,0,2.7,0,24.68,24.68,0,0,0,2.86-.14,8.73,8.73,0,0,0,1.84-.14,38.89,38.89,0,0,0,5.71-.31,26.92,26.92,0,0,0,3-.51,2.76,2.76,0,0,1,1.13-.13,1.69,1.69,0,0,0,1.33-.34,1.48,1.48,0,0,1,1.08-.3,1.3,1.3,0,0,0,.69-.16,19.94,19.94,0,0,1,2.27-.85,1.87,1.87,0,0,0,.49-.28.71.71,0,0,0,.33-.87,20.21,20.21,0,0,0-1.17-2.76,3.32,3.32,0,0,1-.46-1.19,11.43,11.43,0,0,0-.39-1.53,4.34,4.34,0,0,1-.43-1.35c0-.54-.37-1-.36-1.53a1.07,1.07,0,0,0-.14-.4.5.5,0,0,0-.6-.25,4.62,4.62,0,0,1-1.63.5c-.89.14-1.77.37-2.65.58a1.39,1.39,0,0,0-.53.22,1.87,1.87,0,0,1-1.35.36,1.22,1.22,0,0,0-.67.2,10.32,10.32,0,0,1-3.46.79,2.39,2.39,0,0,0-1.13.05,14.88,14.88,0,0,1-3,.35,1,1,0,0,0-.28.06l-1.42.16c-.94.12-1.9.05-2.85.15s-1.61-.08-2.42,0a1.89,1.89,0,0,1-.56-.1,4.84,4.84,0,0,0-1.42-.1,3.62,3.62,0,0,1-1.14,0c-.56-.14-1.14-.14-1.7-.25a10.3,10.3,0,0,0-1.84,0c-.77,0-1.53,0-2.3,0a19.23,19.23,0,0,0-2.28-.06,3.1,3.1,0,0,1-.84-.12.89.89,0,0,0-.56,0,1.27,1.27,0,0,1-.69.12c-.38,0-.76-.07-1.14-.12a7,7,0,0,1-1.13-.18c-.44-.14-.84.12-1.27.07s-.77,0-1.15,0c-.8-.1-1.61-.2-2.4-.36a7.54,7.54,0,0,0-1.57-.07.56.56,0,0,0-.57.53A26.75,26.75,0,0,0,1008.81,695.39Zm34.25,16.37c.31-.06.74-.12,1.15-.23a5,5,0,0,1,1.27-.17c.48,0,1-.06,1.43-.1a8.79,8.79,0,0,1,1.14-.11,2.64,2.64,0,0,0,1.38-.28,1.46,1.46,0,0,1,.68-.17c1.06,0,2-.49,3.09-.52a43.73,43.73,0,0,0,4.17-1.45c.26-.12.54-.21.8-.32a1.78,1.78,0,0,1,1.65,0,.21.21,0,0,0,.31-.17c0-.23,0-.47.08-.71a.84.84,0,0,0-.16-.67,5.72,5.72,0,0,1-1.08-2,2.78,2.78,0,0,0-.27-.51l-1.11-2.32c-.12-.25-.17-.59-.36-.75s-.61.13-.92.17-.57.07-.85.12a.86.86,0,0,0-.4.13,3.36,3.36,0,0,1-2.4.74,3.38,3.38,0,0,0-.7.1,12.52,12.52,0,0,1-2.65.57.6.6,0,0,0-.27.1,4.08,4.08,0,0,1-1.25.3c-.7.1-1.41.21-2.12.29a11.88,11.88,0,0,1-2.14.17c-1.15-.08-2.28.17-3.42.17a7.35,7.35,0,0,1-2,.08.45.45,0,0,0-.28,0,6,6,0,0,1-1.84.18c-1.72.1-3.44-.11-5.15,0a2.16,2.16,0,0,1-.57,0,8.33,8.33,0,0,0-2.28-.13,7.43,7.43,0,0,1-1.57-.06c-.57-.11-1.14-.1-1.7-.22a2.21,2.21,0,0,0-.85,0,2,2,0,0,1-1,0,8.56,8.56,0,0,0-1.13-.17c-.86-.07-1.72-.16-2.57-.19a20.25,20.25,0,0,0-2.55-.34c-1.22-.25-2.46-.31-3.69-.46a11.17,11.17,0,0,1-2.51-.5l-.55-.16c-.47-.12-.66,0-.59.47a5.52,5.52,0,0,0,.11.71,10.37,10.37,0,0,1,.33,2.55,3.48,3.48,0,0,0,.12.84,1,1,0,0,0,.62.73,23.72,23.72,0,0,1,2.8,1.07.71.71,0,0,0,.26,0c.9.11,1.79.3,2.67.49s1.68.31,2.52.48a.8.8,0,0,0,.53-.06,1,1,0,0,1,.56-.06c.51.08,1,.09,1.55.18s1.14.09,1.7.17c1.09.15,2.18.22,3.28.28a2.82,2.82,0,0,1,.71.09c1,.28,2.07.24,3.1.44a7.45,7.45,0,0,0,1.56.17,11.34,11.34,0,0,1,2.26.26c.57.1,1.14.07,1.71.12s1.13.16,1.7.23a1.4,1.4,0,0,0,.29,0,18.25,18.25,0,0,1,2.85.23C1041.34,711.63,1042.15,711.67,1043.06,711.76Zm-33.86-27h-.05v.71a5.39,5.39,0,0,1,0,1.14,7.27,7.27,0,0,0-.12,2.13c0,.52.06.58.55.63a15.55,15.55,0,0,0,3.41.19,4,4,0,0,1,.85,0,6.21,6.21,0,0,0,1.28.11,11.57,11.57,0,0,1,2.28,0c1.66.13,3.33-.17,5,.22a7.38,7.38,0,0,0,1.56,0c.48,0,.95,0,1.43,0a9,9,0,0,1,1.56.1,13.52,13.52,0,0,0,1.55,0c.66.05,1.32.11,2,.11a3.44,3.44,0,0,1,.56.09,17,17,0,0,0,4.56.12,26.3,26.3,0,0,0,3.54-.42,7.9,7.9,0,0,0,2.11-.24,16.86,16.86,0,0,1,2.14-.21,3.52,3.52,0,0,0,1-.22,6.86,6.86,0,0,1,1.5-.47,11.23,11.23,0,0,0,1.52-.37,23.45,23.45,0,0,1,3.18-.79,9.37,9.37,0,0,0,1.63-.52.47.47,0,0,0,.32-.44,2.36,2.36,0,0,0-.19-1.26,5.78,5.78,0,0,1-.66-2c-.32-.5-.21-1.12-.49-1.63a5.75,5.75,0,0,1-.61-1.76c-.06-.31-.22-.41-.49-.34a29.63,29.63,0,0,0-3.67,1.19,4.7,4.7,0,0,1-1.08.35,7,7,0,0,0-2.19.62.71.71,0,0,1-.41.1,2.39,2.39,0,0,0-1.23.3,2,2,0,0,1-1.11.19,2.26,2.26,0,0,0-.7.13,4.1,4.1,0,0,1-1,.21,24.42,24.42,0,0,1-3.42.18.67.67,0,0,0-.28,0,4.49,4.49,0,0,1-1.71.11c-.71-.08-1.4.23-2.12.09a1.56,1.56,0,0,0-.41.08,4.34,4.34,0,0,1-.71.06c-.67,0-1.33-.13-2-.13a7.75,7.75,0,0,0-1.86.1,2.4,2.4,0,0,1-1.13,0,5.65,5.65,0,0,0-2.13,0,8.28,8.28,0,0,1-.86.06c-.9,0-1.81,0-2.72,0A18.49,18.49,0,0,1,1015,683a3.68,3.68,0,0,0-.57-.06,8.7,8.7,0,0,1-1.68-.3,13.78,13.78,0,0,1-1.76-.55c-1.47-.55-1.63-.74-1.75,1.13C1009.17,683.73,1009.2,684.26,1009.2,684.78Zm25.46-3.84c.24,0,.38-.05.52-.05.72,0,1.43-.23,2.14-.22a13.56,13.56,0,0,0,3.1-.44,3.47,3.47,0,0,1,.56-.11,3.8,3.8,0,0,0,2-.52,1.53,1.53,0,0,1,.55-.12,15.89,15.89,0,0,0,2.34-.64c1-.4,2-.84,3-1.26.6-.24.84-.3.53-1.17a2.1,2.1,0,0,1-.16-.7,5.64,5.64,0,0,0-.32-1.53,4.76,4.76,0,0,1-.27-1.4,3.16,3.16,0,0,0-.32-1.24.59.59,0,0,0-.57-.36l-2.55.35a9.83,9.83,0,0,1-2.77.66c-.52.08-1,.23-1.54.34-.7.15-1.4.31-2.1.44a5.8,5.8,0,0,1-2.11.34.9.9,0,0,0-.41.09,6,6,0,0,1-1.83.3c-.47,0-1,.08-1.42.13-.72.06-1.43.14-2.14.19a10.26,10.26,0,0,0-1.57.09,12.2,12.2,0,0,1-2.7.06c-.62,0-1.24-.12-1.86-.16a7.31,7.31,0,0,1-2-.27,3.35,3.35,0,0,0-.71-.07c-1.57-.15-3.14-.25-4.7-.48a15.19,15.19,0,0,1-2.12-.28,3.55,3.55,0,0,1-1.41-.16,15.65,15.65,0,0,1-3.28-1c-.3-.13-.54.05-.58.41-.08.76-.18,1.52-.24,2.28a12.2,12.2,0,0,0-.07,2,4.5,4.5,0,0,1-.09,1.42c-.11.5,0,1-.12,1.54a.63.63,0,0,0,.57.68,25.93,25.93,0,0,0,2.63.66,5,5,0,0,1,1.09.36c.38.16.75-.06,1.13,0l.14,0c.73.28,1.52,0,2.26.3a.61.61,0,0,0,.42,0,5.22,5.22,0,0,1,2,0,7.73,7.73,0,0,0,1.86-.07,8.42,8.42,0,0,1,1-.08c1.29-.07,2.57-.09,3.86-.08.67,0,1.34,0,2,0s1.42-.16,2.14-.05a3.19,3.19,0,0,1,1.41-.08,1.82,1.82,0,0,0,.57,0A6.84,6.84,0,0,1,1034.66,680.94Zm-25-25.51c.36-.2.75,0,1.12-.07a.13.13,0,0,0,.09-.07s0-.12,0-.14c-.31-.22-.62-.44-.94-.64,0,0-.18,0-.23.06a1.66,1.66,0,0,0-.4.75c0,.13,0,.2.11.18A1.34,1.34,0,0,0,1009.7,655.43Zm-.88,23.37s0-.09,0-.09a.17.17,0,0,0-.1,0s0,.07,0,.1Z"/><path d="M1104.55,685.63s-.1,0-.13,0a21.59,21.59,0,0,0-2.13-2,2.72,2.72,0,0,1-.3-.29.63.63,0,0,1-.2-.64,1.13,1.13,0,0,0,0-.41.51.51,0,0,1,.37-.65,3.36,3.36,0,0,0,.49-.27.27.27,0,0,0,.07-.36c-.14-.18-.29-.37-.42-.56a.86.86,0,0,1,.06-1.05,2.48,2.48,0,0,1,.91-.66c.56-.25,1.11-.52,1.65-.8a.44.44,0,0,0,.31-.42c.31.07.5-.13.7-.3a.11.11,0,0,0,0-.1s-.07-.07-.09-.06a.88.88,0,0,0-.59.49,2.65,2.65,0,0,0-1.25.18.87.87,0,0,1-.68-.14.62.62,0,0,1-.34-.42,1.23,1.23,0,0,1,.13-1.09,8.57,8.57,0,0,1,1-1.21.85.85,0,0,0,.33-.75c.31-.18.19-.42.1-.66a.47.47,0,0,0,.38-.41l.57,0,0-.32c0,.1,0,.2,0,.3l-.57.06a.38.38,0,0,1-.36.34l-.1.69c-.14,0-.34,0-.39.05a11.12,11.12,0,0,0-1.28,1.7,1.22,1.22,0,0,1-.74.65.55.55,0,0,1-.4,0,1,1,0,0,1-.66-1,2.17,2.17,0,0,1,.36-1.21,13.35,13.35,0,0,1,1.2-1.6,33.53,33.53,0,0,1,2-2.81,11.59,11.59,0,0,1,1.66-1.55,1.31,1.31,0,0,1,1.49,0,1.38,1.38,0,0,1,.77,1.27,6.57,6.57,0,0,1-.46,2.37c-.16.45-.35.88-.48,1.34a3.92,3.92,0,0,1-.41.75.2.2,0,0,0,.15.31l1.55.31a1.21,1.21,0,0,1,.7.47,1,1,0,0,1,.19.94,3.47,3.47,0,0,1-.73,1.38,7.37,7.37,0,0,1-1.36,1.25,8.8,8.8,0,0,0-1.21,1,.25.25,0,0,0,0,.25,2.46,2.46,0,0,0,1.07.67,1.06,1.06,0,0,1,.74.62c.07.13.14.25.2.38a1.22,1.22,0,0,1-.47,1.5,2.52,2.52,0,0,1-.94.33l-1.13.14a.16.16,0,0,0-.08.1s0,.11,0,.13a9.51,9.51,0,0,0,1.11,1.09,6,6,0,0,1,1.4,1.79,1.33,1.33,0,0,1-.55,1.84,2.39,2.39,0,0,1-1.78.29,5.57,5.57,0,0,1-1.86-.69c-.56-.37-1.13-.71-1.7-1.06a.35.35,0,0,0-.47.14,6.37,6.37,0,0,0-.38,1.37,4.24,4.24,0,0,1-.91,2.19,2,2,0,0,1-.53.47,1,1,0,0,1-1.31-.06.81.81,0,0,1-.35-.86c0-.21.1-.37.33-.38a.77.77,0,0,0,.67-.47,3.91,3.91,0,0,0,.34-.94c.2-1,.36-2,.54-2.94,0-.14,0-.29.06-.43a1.05,1.05,0,0,1,1.28-.84,1.41,1.41,0,0,1,.9.4,8.22,8.22,0,0,0,1.24,1c.27.24.53.09.79,0-.12.32-.12.32.13.45l0,0-.06,0Zm-3.35,1.46L1101,687s-.07,0-.1.06.09.15.15.18S1101.19,687.2,1101.2,687.09Zm6.31-14.93s0-.09-.06-.1a.13.13,0,0,0-.12,0c-.08.07,0,.14.07.15S1107.47,672.18,1107.51,672.16Z"/><path d="M1011,768.21a7.81,7.81,0,0,0,1.22.08,3.86,3.86,0,0,1,1.55.12,1,1,0,0,0,.43.06,5.87,5.87,0,0,1,1.56.16,6.51,6.51,0,0,0,1,.09,4.7,4.7,0,0,1,1.38.37.55.55,0,0,1,.24.15,9.52,9.52,0,0,0,2.27,1.45c.25.15.49.29.73.45a1.17,1.17,0,0,1,.3,1.18,1.62,1.62,0,0,1-.86.92c-.44.17-.88.36-1.34.49a22.33,22.33,0,0,0-3.1,1.09,4.11,4.11,0,0,1-.68.21,23.52,23.52,0,0,1-3.8.7,16.81,16.81,0,0,0-2.13.15,2.13,2.13,0,0,1-.71,0c-.43-.05-.85-.14-1.28-.15a24.05,24.05,0,0,1-3.38-.55,4.39,4.39,0,0,1-.94-.34.85.85,0,0,1-.55-1,.7.7,0,0,0-.16-.65.6.6,0,0,1-.13-.38,6.51,6.51,0,0,1,.23-1,1.71,1.71,0,0,1,.29-.48,8,8,0,0,1,1-1,7.49,7.49,0,0,1,1.44-.92,8.28,8.28,0,0,1,2.69-.89Zm-3.43,4.82c-.11,0,0,0,.17,0s.2-.07.23-.14c.21-.52.4-1,.58-1.57,0,0-.1-.19-.16-.19a1.88,1.88,0,0,0-1.58.42c-.31.28-.66.53-1,.8a.59.59,0,0,0-.14.23s0,.11,0,.12A4,4,0,0,0,1007.55,773Z"/><path d="M1047.33,620c.07-.55.16-1.21.26-1.87a1.51,1.51,0,0,1,.13-.41c.42-.88.59-.86,1.46-.6a.71.71,0,0,1,.46.67,11.52,11.52,0,0,1-.21,1.85,24.36,24.36,0,0,0-.49,2.52,1,1,0,0,1-.51.81.4.4,0,0,0-.19.49,1.05,1.05,0,0,1-.13,1.08,3.83,3.83,0,0,1-.86,1.79,1.37,1.37,0,0,0-.2.38,16,16,0,0,1-1.58,2.71,29.45,29.45,0,0,1-2.47,3.32,3.08,3.08,0,0,1-.51.51,37.26,37.26,0,0,1-4.46,3.09,7.75,7.75,0,0,1-3.31,1.27c-.37.08-.75.11-1.12.18a1.28,1.28,0,0,0-.39.13,4.9,4.9,0,0,1-2.24.33,3.43,3.43,0,0,0-.85,0,5.84,5.84,0,0,1-1.72,0c-.8-.08-1.6-.24-2.41-.36l-.85-.12-1.4-.25c-.29,0-.56-.15-.84-.17a5.25,5.25,0,0,1-1.53-.35,1.53,1.53,0,0,0-.56-.09,5.74,5.74,0,0,1-2.76-.57,7.53,7.53,0,0,0-1.48-.48,14.77,14.77,0,0,1-3.75-1.76c-1.2-.69-2.23-1.62-3.36-2.41a2,2,0,0,1-.51-.5c-.78-1.1-1.79-2-2.62-3a3.55,3.55,0,0,1-.35-.44,9,9,0,0,0-1.15-1.64,14.19,14.19,0,0,1-1-1.57c-.23-.42-.42-.86-.66-1.27a3.27,3.27,0,0,1-.27-2.49c0-.08.12-.14.18-.21s.34-.08.39,0a3,3,0,0,1,.37.76,2.94,2.94,0,0,0,.62,1.42,6.58,6.58,0,0,0,1.57,2.19,7.38,7.38,0,0,1,1.17,1.43,4.28,4.28,0,0,0,.82,1c.8.75,1.57,1.53,2.3,2.35a8.64,8.64,0,0,0,1.43,1.18c.57.42,1.17.81,1.78,1.19.44.28.9.53,1.37.77s1,.46,1.43.67c.3.13.62.24.93.35s.83.24,1.23.4a4.77,4.77,0,0,0,1.78.45,6,6,0,0,1,1.69.28,17.24,17.24,0,0,0,3.1.56c.52.06,1,.16,1.54.27a15.63,15.63,0,0,0,3.55.3,13.46,13.46,0,0,0,3.52-.48c.55-.15,1.12-.26,1.68-.38a3.43,3.43,0,0,0,1.19-.48,20.81,20.81,0,0,0,2.4-1.54,2.64,2.64,0,0,1,.47-.33,10.54,10.54,0,0,0,3.43-3.18,6.58,6.58,0,0,1,1.36-2l.08-.12c.24-.47.44-1,.71-1.4a7.21,7.21,0,0,0,.84-1.32,3.4,3.4,0,0,1,.47-.88,2.2,2.2,0,0,0,.35-.92,9.27,9.27,0,0,1,.38-1.37,7.29,7.29,0,0,0,.31-.8A4.63,4.63,0,0,0,1047.33,620Z"/><path d="M1027.29,628.09h-2.17a1.07,1.07,0,0,1-1-.91,1.82,1.82,0,0,1,0-.57,13.86,13.86,0,0,0,.22-2.13c0-.28.21-.57.17-.83a13.54,13.54,0,0,1,.25-3,15,15,0,0,1,.49-3.39c.08-.27.17-.54.28-.81a.52.52,0,0,1,.82-.25c1,.75,1.35.42,1.49,2.18a14.93,14.93,0,0,0,.44,2.09,8.09,8.09,0,0,0,1.3,2.69,5.28,5.28,0,0,0,1.14,1.07,2,2,0,0,1,.77,1.89,1.37,1.37,0,0,1-.7,1.17l-.62.37a2.27,2.27,0,0,1-1.08.32C1028.4,628,1027.69,628.07,1027.29,628.09Zm-1-3.66a4.53,4.53,0,0,0,.12,1.27.6.6,0,0,0,.42.34,5.93,5.93,0,0,0,1.68-.24c.12,0,.19-.28.08-.36a4.55,4.55,0,0,1-1.42-1.91,4.8,4.8,0,0,0-.3-.48.2.2,0,0,0-.12-.06c-.09,0-.25,0-.26,0C1026.4,623.49,1026.34,624,1026.28,624.43Z"/><path d="M1016.3,607.86a1.12,1.12,0,0,1-.85-.44,4.6,4.6,0,0,1-.78-1.8.56.56,0,0,1,0-.28,2.35,2.35,0,0,1,1-1.3.55.55,0,0,1,.53-.06,2.79,2.79,0,0,0,.66.25,1.4,1.4,0,0,1,1,.94.6.6,0,0,1,.06.41,5.24,5.24,0,0,1-.59,1.57C1017.27,607.77,1016.76,607.76,1016.3,607.86Z"/><path d="M1031.17,604.89c.1-.45.17-.83.25-1.2a1.6,1.6,0,0,1,.76-1,1.18,1.18,0,0,1,.69-.16,2.13,2.13,0,0,1,1.06.38.92.92,0,0,1,.48,1,2.77,2.77,0,0,1-.59,1.58,2.93,2.93,0,0,1-.54.46,1.45,1.45,0,0,1-2-.56A1.3,1.3,0,0,1,1031.17,604.89Z"/><path class="cls-9" d="M1053.62,684.07l7.56,23.17c-14.64,7.44-32.17,4.52-48.3,1.43a7.93,7.93,0,0,1-3.44-1.25c-1.9-1.48-2-4.27-2-6.68a453.42,453.42,0,0,1,4.85-54.69,2.86,2.86,0,0,1,.33-1.12c.6-.93,2-.83,3.06-.65,11.1,1.79,20-1.36,30.23-5,1.1,2.68-.11,7.14,0,10.19a73.68,73.68,0,0,0,1.32,11.66A182.61,182.61,0,0,0,1053.62,684.07Z"/><path class="cls-9" d="M1030.25,588.57c9.2-.39,18.93,0,26.73,4.93.58-7,1.16-14-.24-20.84a13.59,13.59,0,0,1-.46-3.63c.17-2.48,3.6-1.28,5.78-2.48s3.07-5,5.54-5.28c12.8-1.68,25.78-1.21,38.65-2.23a167.46,167.46,0,0,0,47.44-10.87c-10.21-2.4-20.91-.82-31.33-2a118.06,118.06,0,0,1-16.07-3.3l-40.72-10.35c-7.6-1.93-15.4-3.88-23.2-3-6.42.73-12.45,3.34-18.37,5.93a32.36,32.36,0,0,0-16.45,12.61c-5.18,6.52-10.59,13.6-11.15,21.91a3.76,3.76,0,0,1-.46,1.94c-.92,1.35-3,.79-4.54,1.44-2,.86-2.34,3.52-2.3,5.7.06,3.14-.61,10.62,1.4,13.21,2.16,2.79,7.09.52,9.91,0A189.61,189.61,0,0,1,1030.25,588.57Z"/></g></g></svg>