<svg id="Capa_1" data-name="Capa 1" xmlns="http://www.w3.org/2000/svg" viewBox="0 0 120 231.02"><defs><style>.cls-1{fill:#f0d44f;}.cls-2{fill:#fff;}.cls-3{fill:#c3d360;}.cls-4{fill:#ed6c6f;}</style></defs><polygon class="cls-1" points="17.71 62.5 12.62 42.15 31.55 53.95 54.76 43.57 42.95 66.58 60.06 86.73 35.22 77.57 26.67 103.42 20.15 81.44 0 80.01 17.71 62.5"/><polygon class="cls-2" points="100.53 45.74 109.65 43.46 104.36 51.94 109.01 62.33 98.71 57.05 89.69 64.7 93.79 53.58 82.21 49.75 92.06 46.84 92.69 37.81 100.53 45.74"/><polygon class="cls-3" points="56.15 12.96 61.67 11.58 58.47 16.72 61.29 23.02 55.04 19.82 49.57 24.46 52.05 17.72 45.03 15.39 51.01 13.63 51.39 8.15 56.15 12.96"/><polygon class="cls-4" points="100.96 215.53 106.49 214.15 103.28 219.29 106.1 225.59 99.86 222.39 94.38 227.03 96.87 220.29 89.85 217.97 95.82 216.2 96.21 210.72 100.96 215.53"/></svg>