<?xml version="1.0" encoding="UTF-8"?>
<svg id="Capa_1" data-name="Capa 1" xmlns="http://www.w3.org/2000/svg" version="1.1" viewBox="0 0 25.5 25.5">
  <defs>
    <style>
      .cls-1 {
        fill: #536472;
        stroke-width: 0px;
      }
    </style>
  </defs>
  <g id="w0EfRe.tif">
    <path class="cls-1" d="M4.6,2c5.4,0,10.9,0,16.3,0,0,0,0,0,0,0,1.5.3,2.5,1.4,2.5,3,0,5.2,0,10.4,0,15.5,0,1.7-1.3,3-3,3-.7,0-1.5,0-2.2,0-4.4,0-8.9,0-13.3,0-1.4,0-2.5-.9-2.9-2.2,0-.1,0-.3-.1-.4,0-5.4,0-10.9,0-16.3,0,0,0-.1,0-.2.2-1,.7-1.7,1.6-2.2.3-.1.6-.2.9-.3ZM13.5,11.5c0-.2,0-.4,0-.6,0-.3-.2-.5-.5-.5-.6,0-1.2,0-1.9,0-.3,0-.5.1-.5.5,0,2.7,0,5.3,0,8,0,.3.2.5.5.5.6,0,1.1,0,1.7,0,.5,0,.6-.1.6-.6,0-1.3,0-2.7,0-4,0-.5.1-1,.4-1.4.3-.5.9-.7,1.5-.6.6,0,.9.4,1,.9.1.4.2.9.2,1.3,0,1.3,0,2.6,0,3.9,0,.4.1.5.5.5.6,0,1.2,0,1.9,0,.4,0,.5-.1.5-.5,0-1.5,0-2.9,0-4.4,0-.6,0-1.2-.2-1.8-.2-1.1-.8-1.9-2-2.2-.3,0-.7-.1-1-.1-1.1,0-2,.2-2.7,1.2ZM9.3,15c0-1.3,0-2.6,0-3.9,0-.4-.2-.6-.5-.6-.6,0-1.2,0-1.7,0-.4,0-.5.2-.5.5,0,2.6,0,5.3,0,7.9,0,.4.2.5.6.5.6,0,1.1,0,1.7,0,.5,0,.6-.1.6-.6,0-1.3,0-2.6,0-3.9ZM9.7,7.9c0-1-.8-1.8-1.8-1.8-1,0-1.9.8-1.9,1.8,0,1,.8,1.8,1.8,1.8,1,0,1.8-.8,1.9-1.8Z"/>
  </g>
</svg>