<svg id="Capa_1" data-name="Capa 1" xmlns="http://www.w3.org/2000/svg" viewBox="0 0 487.92 303.77"><defs><style>.cls-1{fill:#5da6bc;}</style></defs><path class="cls-1" d="M180.24,6.29c-49.16,6.46-99.48,23-133,59.49-22.91,25-36.42,58.61-36,92.5s14.89,67.6,40,90.34c23.53,21.3,54.57,32.25,85.41,39.72a499.76,499.76,0,0,0,141.75,13.43c43.58-2.12,87.73-10.3,125.8-31.62s69.51-57.17,78.18-99.93C506.15,52.88,364.31,13,276.1,4.63A426.83,426.83,0,0,0,180.24,6.29Z"/><path class="cls-1" d="M60.8,53.9A166.88,166.88,0,0,0,4.72,38S48,57.11,50.07,70.34"/></svg>