<svg id="Capa_1" data-name="Capa 1" xmlns="http://www.w3.org/2000/svg" viewBox="0 0 1201.49 228.71"><defs><style>.cls-1{fill:#fffcf4;}</style></defs><path class="cls-1" d="M1169.17,115.94A1138.54,1138.54,0,0,1,1053,139.38c-25.33,6.73-51,12.87-77.19,18.48,3.34-.25,6.73-.51,10.11-.8,43-4,82.51-11.37,121.15-20.73s76.44-20.58,116.38-33.13c2-.7,3.75-.88,4.12-.59s-.93,1.09-3,1.71c-38.94,12.64-74.74,24-114.41,33.26-16.42,3.91-32.52,7.2-48.35,10.46-7.92,1.52-15.77,3.16-23.57,4.61l-11.66,2.25L1015,157.09l11.86-1.51,11.8-1.7,5.87-.87,5.86-.94,11.68-1.94c15.53-2.75,30.94-5.7,46.25-9.1s30.56-7.05,45.8-10.91l11.42-3,5.72-1.51L1177,124l11.44-3.17,11.44-3.34a29.49,29.49,0,0,1,7.22-1.46c.09-.25.59-.59,1.37-.94,3.7-1.58,7.58-3.14,11.58-4.67l12.25-4.73a11.29,11.29,0,0,1,4.65-1c.95.07.07.73-1.67,1.49-4.07,1.53-8,3.05-11.82,4.58s-7.44,2.93-10.84,4.44a17,17,0,0,1-3.93,1.06c.66.48-.78,1.54-3.74,2.59-7.31,2.56-14.68,5.24-22.2,7.57L1171.39,130l-11.46,3.35-5.77,1.66-5.81,1.56-11.68,3.09-11.78,2.88c-3.94,1-7.89,1.91-11.86,2.78L1101.11,148l-12,2.48c-8,1.69-16,3.13-24.09,4.68-16.1,2.89-32.26,5.65-48.37,8.08a6,6,0,0,1-2.57,1.83c-4.31,2.15-13.24,3.86-22.62,4.49l-7.09.24c-28.55,1.63-57,2.84-85.21,3.34a180.37,180.37,0,0,1-19.66,2.41c-24.28,3.18-48.64,6-73.5,8.2,1.58.4,2.54.92,2.55,1.51-.45,1.43-6.19,2.65-12.92,2.77l-10.17.36,29.26.28c1.41,0,2.71,0,3.89.12,10.71-.28,21.53-.66,32.56-1.24,48.09-2.51,95-6.92,140.9-13.52a1256.41,1256.41,0,0,0,135.28-26.92,16.21,16.21,0,0,1,5.11-.81c.94.17.87.66-.74,1.15-27.63,8.87-53.58,17-80.69,24.39a775.22,775.22,0,0,1-87.57,18.66q-28.72,4.4-57.31,7.87T849,204.69q-28.61,2.82-57.33,5.11T733.79,214c-81.46,1.45-157,5.05-240.8,5.5l-21.14.06H461.33l-10.5-.12-41.75-.71c-13.86-.36-27.67-.93-41.44-1.43-6.89-.28-13.76-.48-20.63-.86l-20.6-1.15-20.57-1.19-10.28-.61-10.29-.78-41.14-3.2c-3.44-.25-6.87-.61-10.31-.94l-10.31-1-20.66-2-10.35-1c-3.45-.34-6.91-.65-10.36-1.08L161.35,201c-10.44-1-20.6-2.36-30-4-9.43-1.84-18.13-4-25.66-6.23-15-4.51-25.35-9.55-27.41-14-2.36-5.44,7.71-8.84,25.1-9.66l-10-1.52c-5.25-1.11-10.51-2.1-15.75-3.29-14.88-3.42-27.36-7.54-35-11.64l-10.5-5.24c-3.41-2.2-7.37-4.58-11.58-7s-8.64-4.74-13-7.12c-8.69-4.75-17-9.47-22.31-14l3.16-2.07L-14.3,114c-2.23-.9-4.27-1.8-6.09-2.7a49.15,49.15,0,0,1-4.79-2.74c-2.75-1.8-4.58-3.51-5.39-5l1.51-2.92a16.6,16.6,0,0,1,5.95-4.15,54.75,54.75,0,0,1,10-3.08c0-1.37,1.14-2.49,3.3-3.36-5.69-4.36-8-8.24-2.31-11-3.59-1.62-2.7-2.86,2-2.81a40.4,40.4,0,0,1,5.27.48V76.6c-1.83-1.14-2.44-1.51-5-2.9-3.7-.94-5.8-1.63-5.8-1.63L-34,67.13A78.77,78.77,0,0,1-45.4,62c-7-7.24-7-7.24-5.19-9.36a15.53,15.53,0,0,1,1.73-.35c-6.34-2.15-6.78-2.31-8.48-2.92a24.58,24.58,0,0,1-2.89-1.57c0-1.34,0-1.34-1-2a1.37,1.37,0,0,1-.06-1c3.94-.67,3.94-.67,4.13-1.06A17.4,17.4,0,0,1-55,43.44l6.79.71c-.5-.3-1-.62-1.53-.95l2.38,1,2-.13A51.16,51.16,0,0,1-35.25,47.1c.07,1-2.26,1.11-6.37-.58l-5.72-2.34-.35,0-.5-.05,8.41,5.24,2.23-.74,1.8,2L-36.66,49l4.43,1.82-5-2.33c10.78,2.79,10.78,2.79,15.15,3.65a80.87,80.87,0,0,0,8.92,1.65,1.46,1.46,0,0,1-.26-.83l3.83,1,3,.7,1.63.39V52.59l-4.61-1.15-7.11-2-2.75-.77c-3.18-.41-6.64-1-10.21-1.81C-42.8,44-52.24,39.47-50.64,37c-.3-2.05-2.75-4.71.91-5.64,6.83-1.66,18.11-1.08,30.79.74l-3.38-1.28c-23.82-8.71-28.17-17-10.19-18.61a100.56,100.56,0,0,1,16,.08c3,.22,6.17.53,9.42.94l2.19.3V0H-71.44V256H1237.37V95.29c-3.85,1.35-7.74,2.61-11.61,3.93Q1197.82,108.48,1169.17,115.94Z"/><polygon class="cls-1" points="-9.31 113.74 0.68 107.17 -10.01 113.27 -9.31 113.74"/><path class="cls-1" d="M1079.43,112.44q30.55-5,60.8-11.31h-8.72Q1105.52,107.24,1079.43,112.44Z"/><path class="cls-1" d="M1169.13,104.42c-3,.86-5.92,1.64-8.9,2.43l-8.82,3q20.49-4,40.83-8.73h-9.77C1178,102.25,1173.58,103.36,1169.13,104.42Z"/><path class="cls-1" d="M1109.55,101.13q-20.47,4.26-41.12,7.76c-17.74,3.08-35.6,5.7-53.56,8.06,5.13.66,9,1.71,10.92,3.14a0,0,0,0,1,0,0c5.57-.72,11.13-1.4,16.66-2.16,27.58-4.94,55.18-10.48,82.65-16.83Z"/><path class="cls-1" d="M876.07,102.5c-16.86.66-33.45,1.25-50,1.64a1.41,1.41,0,0,1,.44.79c0,1.08-1.5,2.13-4.12,3.06l56.72-1c19.64-1.8,39.22-3.79,58.93-5.86H903.85Q890,101.93,876.07,102.5Z"/></svg>