<svg id="Capa_1" data-name="Capa 1" xmlns="http://www.w3.org/2000/svg" viewBox="0 0 377.21 152.38"><defs><style>.cls-1{fill:#536472;}.cls-2{fill:#fff;}</style></defs><path class="cls-1" d="M56.81,18.43c-15.07-3.29-30.4,9.92-37.31,28.19S13,86.88,17.42,106.5c1.83,8.21,4.55,16.56,9.69,21.66,5.72,5.69,13.31,6.31,20.43,6.68q116.4,6.07,232.92.91c15.88-.7,32.07-1.63,47-8.9A63.27,63.27,0,0,0,361,84.52c5.6-23.84-3.6-52.29-20.42-63.1-9.72-6.24-20.84-6.84-31.61-7.33L140,6.41c-27.33-1.24-55.53-2.29-81,11"/><path class="cls-1" d="M62.77,22.73c-1.09.42-.21,1.22-.27,1.47C64.12,23.15,62.6,22.49,62.77,22.73Z"/><polygon class="cls-1" points="80.18 13.55 79.95 14.07 82.55 12.32 80.18 13.55"/><path class="cls-1" d="M98.64,10.45c-1-.85-2.69-.58-4.56-.15a20.79,20.79,0,0,1-5.57,1.12l-.62-.32-1.2,1.78C90.56,11.81,95.72,10.22,98.64,10.45Z"/><path class="cls-1" d="M108.84,13.9c-.63-.71,2.12-.73-2.31-.12.23.07.29.11.43.16C107.36,13.91,107.91,13.89,108.84,13.9Z"/><path class="cls-1" d="M107,13.94c-1.95.14,1.3.56,0,0Z"/><path class="cls-1" d="M116,13.31c-.87.22-1.74.43-2.6.68.54.4,2.86.52,2,.83C118.09,14.46,117.55,14,116,13.31Z"/><path class="cls-1" d="M118.51,11.93l-1.36.28C117.39,12.39,117.74,12.46,118.51,11.93Z"/><path class="cls-1" d="M114.27,12.8l2.88-.59c-.38-.3-.42-.92-1.32.21C116.06,11.86,115.49,12.4,114.27,12.8Z"/><path class="cls-1" d="M112.65,12.54c-1.46-.38-3.37-.6-.76-1.31-2.51.17-3.55.62-3.35.95S110.16,12.72,112.65,12.54Z"/><path class="cls-1" d="M99.42,8.41c-.67-.14-1.35-.23-2-.35l-1.64.82C96.57,8.48,99.6,9,99.42,8.41Z"/><path class="cls-1" d="M132.39,14.65c.18-.39-.85-1.11-1-1.63l-2,.39C130.38,13.72,132.28,14.05,132.39,14.65Z"/><path class="cls-1" d="M131.36,13l3-.57C131.7,12.26,131.21,12.57,131.36,13Z"/><polygon class="cls-1" points="119 9.83 114.21 11.28 119.92 9.82 119 9.83"/><polygon class="cls-1" points="143.66 15.19 141.93 16.05 144.99 14.78 143.66 15.19"/><path class="cls-1" d="M151.17,15.37c-1.27.72,1.65,1.38.31,1.8A18.56,18.56,0,0,0,156.9,16,12.16,12.16,0,0,1,151.17,15.37Z"/><path class="cls-1" d="M159.57,15.27a20.62,20.62,0,0,0-2.67.75A10.81,10.81,0,0,0,159.57,15.27Z"/><path class="cls-1" d="M139.35,12.87a3.27,3.27,0,0,0,2.28,1.25l-1.12-1.18Z"/><path class="cls-1" d="M140.47,12.9l0,0,2.52.17Z"/><path class="cls-1" d="M139.05,12.85l.3,0C139.24,12.75,139.17,12.71,139.05,12.85Z"/><path class="cls-1" d="M126.66,11c1.73-.58,5.37-1.14,1.91-2.22C127.31,9.53,129.28,10.14,126.66,11Z"/><path class="cls-1" d="M137.67,11.37l-3.13-.4c.05.31.6.76-.27,1Z"/><polygon class="cls-1" points="139.23 11.08 137.67 11.37 138.83 11.52 139.23 11.08"/><path class="cls-1" d="M154.22,14a15.44,15.44,0,0,1,4.56-.41,45.79,45.79,0,0,0-5.42-.59C153.1,13.32,152.29,13.92,154.22,14Z"/><path class="cls-1" d="M147.55,13.35l.3,0C147.67,13.19,147.52,13.16,147.55,13.35Z"/><path class="cls-1" d="M175.33,14.32l-.26-.22a1.07,1.07,0,0,1-.07.19Z"/><path class="cls-1" d="M153.07,12.75a4.64,4.64,0,0,0-2.95.27,31.25,31.25,0,0,1,3.24,0C153.48,12.82,153.51,12.71,153.07,12.75Z"/><path class="cls-1" d="M164.21,15c-.69-.27-1.49-.5-2.32-.73C162.57,14.61,164,15.23,164.21,15Z"/><path class="cls-1" d="M148.29,13.63l-.2,0C148.52,13.94,148.47,13.81,148.29,13.63Z"/><path class="cls-1" d="M148.29,13.63a8.73,8.73,0,0,0,1.83-.61,16,16,0,0,0-2.27.28A1.88,1.88,0,0,1,148.29,13.63Z"/><path class="cls-1" d="M180.67,7.29c-.29,1-3.89,1.84-6.91.58-3.06.65-1.24,4.18,1.31,6.23.11-.45.13-.87,3.27-1.35-1.06-.62-6.84-1.65-4.17-2.48,4.14-.36,3.36.52,5.34,1.17-1.65-1.39,5.33-1.67,4.52-3.63l-3.65.51C180.33,8,181.66,7.61,180.67,7.29Z"/><path class="cls-1" d="M169.15,13.73l-1.29.07a15.31,15.31,0,0,1,4.36,1.62c2.16-.41,2.62-.78,2.78-1.13l-6.3-.43Z"/><path class="cls-1" d="M162.11,13.54c1-1.1,4.15-1.44,2.32-2.76-3.76-.09-2.67.83-4.94,1.23,6.08,0-1.77.55,2.58,1.4a27.53,27.53,0,0,1-3.29.15c1.09.19,2.13.41,3.11.66l-.13-.07h0v0c-.26-.15-.34-.24-.05-.15l.13,0a1,1,0,0,1,.29-.41c1.75.31.26.31-.29.41,0,.06-.08.11-.08.17l0,0,6.1-.35A36.41,36.41,0,0,0,162.11,13.54Z"/><path class="cls-1" d="M131.89,6.46c.19.11.18.19.19.27C132.47,6.61,132.63,6.52,131.89,6.46Z"/><path class="cls-1" d="M134.36,7.25a3.45,3.45,0,0,1-2.26.41c-1.23-.4,0-.55,0-.93-.88.27-3.06.7-.37,1.36l.43-.14c2.43.49,5.5,2.05,5.07,2.19A8.57,8.57,0,0,0,134.36,7.25Z"/><path class="cls-1" d="M148.42,10.11l5.09-.33L151,8.67l.11.6C148.21,8.91,148.8,9.67,148.42,10.11Z"/><polygon class="cls-1" points="175.88 14.91 175.15 16.09 178.15 14.52 175.88 14.91"/><polygon class="cls-1" points="182.46 15.07 182.17 16.1 183.93 15.55 182.46 15.07"/><path class="cls-1" d="M242.52,143.4l-1.48.34A8.06,8.06,0,0,0,242.52,143.4Z"/><path class="cls-1" d="M253.31,143.15l.25-.53C253.07,142.93,252.87,143.14,253.31,143.15Z"/><path class="cls-1" d="M338.54,28.14a10.58,10.58,0,0,1,.55,1.39c.15.49.28.94.4,1.29.25.71.5,1.05.84.55l.38-1.19a6.39,6.39,0,0,1-1.28-1.06A9.63,9.63,0,0,1,338.54,28.14Z"/><path class="cls-1" d="M338.36,120.33l.71-.12c.16-.65.31-1.25.43-1.79C339.17,119,338.79,119.66,338.36,120.33Z"/><path class="cls-1" d="M340,125.07c-1,.42-1.94.82-2.94,1.17A12,12,0,0,0,340,125.07Z"/><path class="cls-1" d="M183.56,145.59l-1.74,1.17C184.54,146.74,183.34,146.16,183.56,145.59Z"/><path class="cls-1" d="M249.8,17.7a23.85,23.85,0,0,0,4.62.91C252.2,17.85,250.43,16.78,249.8,17.7Z"/><path class="cls-1" d="M246.4,131.09c-.9.23-1.28.48-1.25.73C246.08,131.6,246.6,131.36,246.4,131.09Z"/><path class="cls-1" d="M259.82,18.85c-.32-.13-.64-.2-1-.32a23,23,0,0,1-4.43.08A7.85,7.85,0,0,0,259.82,18.85Z"/><path class="cls-1" d="M7.69,75.35c.06-.16.09-.36.16-.51C7.69,74.79,7.68,75,7.69,75.35Z"/><path class="cls-1" d="M41.91,25.93c-.4.34-1.14.72-1.79,1.2A9.65,9.65,0,0,0,41.91,25.93Z"/><path class="cls-1" d="M208.88,16.77c-1.4,0-.23.12,0,0Z"/><path class="cls-1" d="M202.31,11.92c.3-.11.53-.27.58-.53A1,1,0,0,1,202.31,11.92Z"/><path class="cls-1" d="M274,12.33h.12C273.75,12.1,273.82,12.15,274,12.33Z"/><path class="cls-1" d="M206.81,16.15a12,12,0,0,0,1.76.42A15.38,15.38,0,0,0,206.81,16.15Z"/><path class="cls-1" d="M207.07,16.71l-1.22-.17C205.67,16.72,205.82,16.85,207.07,16.71Z"/><path class="cls-1" d="M210.83,16.8a16,16,0,0,1-2.26-.23c.28.09.39.16.31.2Z"/><path class="cls-1" d="M84.39,140l-.3-.12C82.66,140.26,83.29,140.2,84.39,140Z"/><path class="cls-1" d="M365.83,52.28c0-.06-.06-.09-.09-.15a1.77,1.77,0,0,0,0,.23Z"/><path class="cls-1" d="M367.72,57.42a8.91,8.91,0,0,1-1-1.41,6.23,6.23,0,0,1-.6-1.22,8.4,8.4,0,0,1-.35-2.43c-.95.83-1.9,1.64-2.86,2.42.81.41,1.63.83,2.45,1.27S366.93,57,367.72,57.42Z"/><path class="cls-1" d="M216.67,144.33l3.55,1c-4.23,1.78-7.32,1.24-4,2.64.43-3.59,13.72-.64,14.13-4.26l2.35.71c-.67,0-.77.19-1.43.17,4.57,1.61,3.3-2.66,9.13-2.32,2,.22,3.47.7,2.1,1.16l4.5-1c1.31,0,1,.67-.3.64l6.89-.5-.05.1a35.4,35.4,0,0,1,4.24-2c1.77.45-.86.41-.4.84l3.79-1c1.59.87-1.55,1.89-4.19,1.85,3.7,3.46,3.14-1,10.91.8l-3.59.59c2.41,2,5.2,1.1,9.33,2.21-1-.63-8.3-2.87-4.18-3.94a8.77,8.77,0,0,0,4.93-.52c.07,1.27,2.24.87,5,.69l-.11,1.7c2.93-.61,2.67-1.47,4.37-2.31,3.33,0,4.1,1.27,5,2.33,5.41-.06-3.85-1.87,2.5-2.59,4.52.32,7.69-.63,12.94-2.39,3.26.11-.4,1.11.81,1.42.88-.58,1.75-1.2,2.61-1.8.69-.09.54.36.46.59,2.28-1-.09-1.69,3.48-2.89.29-1,2.29-.75,4.77-.78a16.93,16.93,0,0,0,3.9-.39,7.34,7.34,0,0,0,3.42-1.77c1.26,0-.15,1.18.41,1.66,1.41-.95,2.42-1.59,3.18-2.14s1.31-1,1.82-1.37a15.38,15.38,0,0,0,1.53-1.4c.56-.6,1.28-1.27,2.17-2.37l2.23-.67c.74-.24,1.46-.52,2.2-.78-1.75.4-1.91-.33-1.39-1.51a45.08,45.08,0,0,1,2.73-4.4c-1.28.19-2.35.31-3,.48l1.93-2,1.81-2.09c.68-.21.65.58.4,1.7a10.69,10.69,0,0,0,.52-1c1-.4,1.39-.29,1.55.17a3.77,3.77,0,0,1-.25,2.07c-.76.19-1.52.36-2.25.51-.44,1.67-.89,3.37-.05,4a7.1,7.1,0,0,1,1.28-1.52c-.13.45-.18.79.07.82s.54-.66,1-1.61l2.25.58-.23-.79c1.14-.69,2.21-1.46,3.32-2.21s2.14-1.61,3.21-2.43c.59-1.4,1.12-2.76,1.57-4.17s.89-2.83,1.29-4.36c.22-.76.45-1.52.7-2.3s.47-1.61.76-2.44c.58-1.65,1.15-3.46,1.94-5.4.29,2.49,1.82,1.44,3.24,2.27a3.76,3.76,0,0,0-1.57,1.61,22.36,22.36,0,0,0-1.1,2.51c-.38.93-.72,2-1.22,3a14.54,14.54,0,0,1-1.82,2.88c1.54-1.86,1.87-1,1.74-.31.58-1.31,1.18-2.58,1.66-3.91s1-2.62,1.4-4c1.06.8,1.78-1,3.17-2.79-1.56.16-1.25-1.4-.62-3.45.29-1,.71-2.18,1.05-3.29a18.76,18.76,0,0,0,.62-3c.46,0,.84.3.92,1a4.78,4.78,0,0,1-.13,1.5c-.07.32-.17.68-.29,1.07s-.33.82-.54,1.29a4.18,4.18,0,0,0,1.35-2.6,7.55,7.55,0,0,0-.22-2.47,11.2,11.2,0,0,1-.4-2.44,4.81,4.81,0,0,1,.88-2.65c-.15,1-.48,1.44-.12,1.93-.15-2.39,1.38-7.81,1.92-6.4a8,8,0,0,1-.14,1c.21-.8.3-1.73.45-2.73s.3-2.06.35-3.17a42.58,42.58,0,0,0-.1-6.69c-.11-1.07-.2-2.1-.39-3a23.66,23.66,0,0,0-.66-2.51,8.5,8.5,0,0,0-.74-1.75,1.68,1.68,0,0,0-.88-.79,9.63,9.63,0,0,1,3.31.85q-2.26-2.73-4.62-5.14c-.83-.8-1.64-1.57-2.45-2.33L359,52.74l-1.29-1.05c1.07.2,2.46-.88,3.88-1.47a3.09,3.09,0,0,1,2.14-.22,3.46,3.46,0,0,1,2,2.13,12,12,0,0,0-.4-2.78,15.61,15.61,0,0,0-.58-1.76,11.1,11.1,0,0,0-1-2.06c.15,1.12-1.88,3.38-2.43,2.06a15.9,15.9,0,0,0,.36-3.78c0-.43-.06-.88-.1-1.55s-.16-1.56-.25-2.9c.14.83-.67,1.13-1.62.94a3.67,3.67,0,0,1-2.55-1.95c.59.14,2.58-1.53,3.31-.83a59.53,59.53,0,0,0-5.68-4.08c1.28,1,2.32-1.06,2.23-2.78,0,.22-.23,0-.54-.39-.15-.22-.32-.49-.52-.8l-.71-1a19.42,19.42,0,0,0-2.91-3.65l.68,1.28.56,1.32c-.25-.39-.51-.73-.76-1.05a9.06,9.06,0,0,0-.82-.82,10,10,0,0,0-1.59-1.15,8.93,8.93,0,0,0-1.53-.69c-.53-.15-1-.25-1.55-.35a21.66,21.66,0,0,1-3.09-.75,11.61,11.61,0,0,1-3.65-1.85,3,3,0,0,0,1.94-1.3,1.74,1.74,0,0,0,.24-1.39,3.12,3.12,0,0,0-1.3-1.64c-1.14.21-3.71.91-6.49,1.66a33.49,33.49,0,0,1-8.58,1.6l-.86-1.07c-1.46,0-2.92.14-4.38.28a31,31,0,0,1,7.52-3.32,27.71,27.71,0,0,1,9.56-1.24,8.62,8.62,0,0,1-1.53-1.51,7.18,7.18,0,0,0-2.82-1.24c-.59-.63.05-.74,1-.64a14.91,14.91,0,0,1,2.85.72,54.13,54.13,0,0,0-9.57-3.51c0,.92-1.91.95-3.78,1.08s-3.69.28-3.6,1.05a61.83,61.83,0,0,1,10.52.1c0,.92-1.86,1.69-4.34,2.2a26.51,26.51,0,0,1-8.73.34c-1.55-.85,1.5-3,1.45-3.64a11.82,11.82,0,0,1-3.52.46A8.74,8.74,0,0,1,313,9.53l2.75-.78c-3.54-.92-5.87,2-9.92.15-1.43-.18-4.17-2.49-4.46-1.44,2.24,2.13,2.41,8.43.79,9.89-.5-.16-7.42-2.29-9-3.36-2.29-1.7,3.7-3.64,1.76-5.09-.11.48-1.44,1-2,1.19-1.48-.49.69-1.48-2.58-1.41-.62,1.78-6.62-.45-1.61,1.46-3.21.37-3.37-.53-7.12-.62,1.14,1.22-3.54,3.81-6.76,4.18.21-.45-.48-1.08-.82-1.37-6.53-.46-10-1.43-16.1-1.73-.54-.46-3.46-1.12-2.17-1.84a8.45,8.45,0,0,1-3.61.81c-3.57-1.72,4.21-.05,1.52-2.05-.29,1-4.93,1.22-7.64,1.76.75,1.65,6.17.59,8.89.06-.09,2.23-4.87,4.36-11.29,5.1-5.09.32-2.13-1.54-3-1.27-9.5-.82-8.28,3.54-16.11,1.57-3.07-1.57,0-2.84-.66-3.9,4.15-.35,6.29,1.19,9.09,1.26l-3.41-.83a11.69,11.69,0,0,1,5.59-.16c-2.57-1.4-16.06-1-23.35-2.49-1.33.41-3.6.81-2.56,1.43l2.33-.1c2.08,1.25-4.44,1.39-1.53,2.06-3.15.67-6.7,1.77-11.05.93l-.75-1.66c.07.47,2.82,1.09,4.07.65-1.86.64-6.62-2.5-8.72-.46l3,1.26c-3.16.67-7.11,2.22-11,1.53,1.7,1.68.9-.14,3.58,1.86-2.29-2.44,9.94.55,6.2-2.08,2.74,2.31,4.87,1.15,8.49,3.17-.09-.54-1.27-1.08,2-.67a3.53,3.53,0,0,1,.74-.44l.22,0-.18-.07c.15-.07.16-.09-.07,0a3.92,3.92,0,0,1-1.62-.89c1.67-1.16,6.86-.88,8.64-1.44,1.93.34-.83.58.2,1.2l2.66-.84c.21,1.2,5.06,2.21.46,2.7L221,17a18,18,0,0,0,7.77.79c1.92.34,4.95-1.1,3.22-.24l6.47-.45.05.3c6.34.44,13.16-1.37,20.33,1.1a29.84,29.84,0,0,1,7.94,0l.65,1.06c2.76-.23,8.2,1.41,9.42.39,2.84,2.9,13.3,1.21,18.11,1.92l.24-1.33a69,69,0,0,0,10.68-.37l-.2-1.19c3.62-.79,9.11,1.17,14.28,1.66-.41.41-1.7.14-2.64-.21,3.05,1.62,6.21,1.56,9.32,1.73a21.62,21.62,0,0,1,4.49.59,7.46,7.46,0,0,1,3.58,2.06,4,4,0,0,1,2.68,1.55.58.58,0,0,0-.3-.11,5.06,5.06,0,0,1,.42.3c.34.5.65,1,1,1.53a6.26,6.26,0,0,0-.79-1.37c.77.58,2.1,1.19,3.36,2.05l-.4,1.36c.1.06.17.13.27.19.71,1.27,1.29.35,1.38-.87a21,21,0,0,0,1.95.94,1.55,1.55,0,0,0,.2,1.4,11.71,11.71,0,0,0,1.05,1.1c.77.76,1.58,1.61,1.18,2.89.7.16,2,1.67,3.25,3.22a15.46,15.46,0,0,0,1.91,2.13,2.89,2.89,0,0,0,1.85.94c-.24.18-.17.68-.55-.13a13.33,13.33,0,0,0,2.14,4.9l-1.26,1.27a42.59,42.59,0,0,1,3.28,3.17,4.87,4.87,0,0,1-.64,2.61c-.38.35-.83.09-1.78-.88a22.81,22.81,0,0,1,2.42,4.7,22.21,22.21,0,0,0,2,4.31L358.26,62c.17,1.75,1.9,4.53,1,5.66-.92,2-.92,6.91-1.9,12.43s-3.09,11.65-6.11,15.67c1.77-.22,1,.73-.07,1.8a10.25,10.25,0,0,0-1.45,1.66c-.35.54-.47,1,0,1.42-.93.13-2,1.06-1.7-.62a16.61,16.61,0,0,1-.79,1.58c-.29.47-.6.89-.9,1.29a24.26,24.26,0,0,1-1.76,2.07,11.19,11.19,0,0,0-1.48,1.92,6.88,6.88,0,0,0-1,2.44c-.92-.07-.09-1.53-.75-1.43a5.6,5.6,0,0,1-.42,1,1.33,1.33,0,0,1-.85.7c-.67,0,.08-.93.35-1.72-1.65,1.84-2.21,3.23-2.25,4.38a5.71,5.71,0,0,0,1.1,3.06c-2.71,1-3.61,1.91-4.39,4.19-.58,0-1.29.09-1.55-.11s0-.62,1.21-1.7c-.76.51-3.17,2-5.42,3.19s-4.27,2.46-4,3.27c-.71-.15-2.41,1-2.81,1.31-3.93,1.45-4.34,1.4-8.26,2.72l1.18,0a2.72,2.72,0,0,1-2.41,1.72,24.45,24.45,0,0,0-4.08.59l.06-.22c-2,0-3.17.08-4,.18a7.74,7.74,0,0,0-1.59.39c-.8.25-1.59.54-5.52.13l.56,1.22c-.21,1.39-2,1.19-4.24.76s-5-1.08-7.21-.43l1.68.63c-2.44,1.1-7.13-3.35-9.64-3.58-.56-.22.85-.42,1.6-.63-6.63-1.34-.78,1.7-5.65,2.29-.94-.86,1.06-2.33-2.23-2.36-1.67-.66-9.44,3.3-14,1.72,1,.66,2,1.31-.23,1.91-3.48.38-9.5-2.28-12.59,0-.44-.18-.62-.35-.64-.53-2.65.64-8.63,1.2-10.21,2.41-2.56-4.33-16.53,2.52-16.55-1.55l-8.2.35.21-.41c-5.24-.18-7.08.79-8.91,1.79-1.22-.27-.34-.65-.24-.87-7.67-.72-8.42-.54-14.83,1.5l-.68-1.31c-.87.39-3.64-.11-7.13-.51a37.25,37.25,0,0,0-11.45,0c.07-.15.23-.4.83-.58-8.47,1.52-20.19-3.76-23.33,1l-5.6,1.11c7.22.46-1.1,2.06,1.86,2.89-2.85.25-7.33-1.53-3.83-1.74l.54.25c1.32-2.46-9-1-8.73-2.73-14.2-.12-28-1.9-41.27-2.47l1.46,2-4.63-.28c-1.2-.5-1.58-1.57,1.72-1.37-1.7-1.16-5.58.71-5.69,1.13-6.44-1,2.62-2.17.63-2.29l-2.7,0,.6.25c-2.21.71-2.44,1.54-6.41,1.27-2.5-.49-1.24-1.25-2.23-1.36,0-.14-.32-.22-1.51-.13L63,129.78l2.26,1.63c-2.62.64-5.48-.33-2.87,1.53-1.92-1.43-7.35-1.94-12.6-2.21-2.66-.13-5.14-.21-7.06-.41a10.82,10.82,0,0,1-3.73-.83,10.59,10.59,0,0,1-9-3.29,1,1,0,0,1-.21,1.3.9.9,0,0,1-.9,0,4,4,0,0,1-.68-.42,7.19,7.19,0,0,1-.78-.83c1.73-.76,1-2,.1-3.83s-1.9-4.15-1.23-5.92c-.29,1.45-1.38-.68-2.29-2.87s-1.76-4.26-2.36-1.91c-.56-3,1.21-.55,1.43-3C21.59,105.37,21,101.27,20.65,97s-.37-8.72-.81-13.19c-.47-.12-1.1,1.44-1.9-.48.74-1.64,1.42-3.25,2.23-4.82-.21-1.74-2.72-1.68-1-4.88-.41.44-1,1.11-1.13-.1.77-4.41,1.42-8.8,2.25-13.17A83.92,83.92,0,0,1,23.68,47.5,39.38,39.38,0,0,1,30,36.05a24.11,24.11,0,0,1,10-7.53c-2.27.51-1.18-.37.16-1.39-1,.47-.63-1-1.16-1.36a15.06,15.06,0,0,1,1.72-.57c.57-.16,1.13-.35,1.7-.47a22.37,22.37,0,0,1,3.36-.5A2.11,2.11,0,0,1,47,23a12.42,12.42,0,0,1,2.32-.64c.83-.08,1.63-.23,2.27-.34a1.6,1.6,0,0,0,1.33-.71l-1.06.13-.52.06-.51.13c1.33-1.1.41-2.16-1.22-3.15-.4-.25-.84-.5-1.27-.75s-.86-.43-1.25-.66c-.77-.46-1.37-1-1.39-1.61C44,17,41.29,17.12,38.2,17.92s-6.27,2.46-7.65,5.88c-1.44.59.39-1.43-.58-1.35a8.39,8.39,0,0,1-1.46,2.78,31.3,31.3,0,0,1-3.14,3.2l.07-.49A124.74,124.74,0,0,0,18,38.45L16.48,41c-.5.89-1,1.84-1.5,2.84s-1,2.08-1.5,3.24-1,2.42-1.48,3.8l1.45-.48a18.52,18.52,0,0,1-1.93,3.8c.59,1.6,1-.08,1.49-1.78s1.13-3.37,1.77-1.84c-1.72,1.17-2.84,5.41-3.63,9.53S9.9,68.25,8.41,69.25C8.12,73,9.94,68.25,9.65,72l-.82,1,1,1c-.28,2.44-1.22,3.67-1.89,3.77a19.71,19.71,0,0,0-.22-2.37c-1,3.23.37,9.1.19,10.19.08-1.22.2-2.44.33-3.65,1,10.25,1.87,22.71,6.17,32l.36-.9a32.39,32.39,0,0,1,2.39,6.62,17.62,17.62,0,0,0,.86,2.79,19.7,19.7,0,0,0,2.49,4.41l-.3-.21c1.48,1.24,3.16,3,5,4.8-1.11-.56-.54.44.05,1.42s1.21,1.86-.36,1.1a20,20,0,0,0,4.61,2.25,5.91,5.91,0,0,0,1.92.35c.83-.07,1.41-.24,4.46-.51.33.44.68.84,1,1.27,1.06-.22,1.62-.46,2.46-.59a24.43,24.43,0,0,1,4-.08c-1.71.26-1.11.69-.53,1.16s1.12,1-.88,1.33a20.5,20.5,0,0,0,10,.73c2.55-.29,4.52-.49,6.36,1.17,4-2.53-7.13-1.86-5-2.34-1.75-1,3.25-1.87,5.85-1.47,2.65.2,4.35,3.69,11.05,3.92-.67,0-.72.16-1.39.12,2.48.8,5-.72,8,.53,1.79-1.58,4,.24,4.56-1.83l-6.15.25c3.5-.41,6.85-2.75,12.53-1.35A11.3,11.3,0,0,1,84.39,140c1.65.68,3.24-.29,5,.41-.57,2.08-7.47.18-11.26,1.64,1.76.95,7.11-1.26,5.15.95,2.8-2.8,6.58.62,11.19-1.46l-.34,1.25a12.59,12.59,0,0,1,3.55-.65l-2.44,1.56c3.71-1.28,7,1.43,10.59.78-7.38-.18-1.62-1.56-4.71-2.57,9.14-1.41,5.14,3.43,15.34,3.09-1.38.14-5.15-.88-3-1.41a20.15,20.15,0,0,1,5.65,1.54c6.76-.12-1-1.31,1.88-2,2.27,1.57,3.33-.56,6.29-1v1.28c7.67,1,2.09-2.62,9-1.51l-3,1.72,3.62-.4-.77,1.44c3.94-1,5.16-.73,9-.27-.88-.91.53-2.32,3.94-2.31,2.31.78-1.32,1.2,3.51,1.06-1.09.78-2.3,1.79-4.39.58-.22.42-1.08.79-1.31,1.2,2.5.92,6.29.25,8,.26a7.15,7.15,0,0,1-1.89-.31l7-1.73c1.1.49.22.87-.64,1.24,1.41-.13,2.4-.71,4.48-.8-.54,1-.42,2.11-3.37,2.57l6.67-1.12c.45.45,3.43,1.24,2.56,1.62,3.7.61,9.07-2,14-1.23a4.06,4.06,0,0,1,1.8-.55c4.61.22,8.71,1.47,14.15,0l3.12,1.83c4.28-.47-4.22-2.3,2.89-3.08,5-.65,1.91,1.56,3.68,2.06,2.5-1,6.82-3,11.48-1.53A28.73,28.73,0,0,1,216.67,144.33ZM269.36,142c-1,.31-3,1.23-3.79.5C266.68,141,267.61,141.65,269.36,142Zm76.54-25.09c-.23.88-1.3,1.56-2.64,2.13A11.83,11.83,0,0,1,345.9,116.91ZM224.21,16.43l.11-.06C226.57,17,225.77,16.74,224.21,16.43Zm-4.69-.77c-.48.15-.46.33-.27.52a4.45,4.45,0,0,1,2.61-.14C221.54,15.69,220.94,15.43,219.52,15.66ZM69.84,130.76l.9.38C68.66,131.42,69.25,131.11,69.84,130.76Z"/><path class="cls-1" d="M339.81,124.49a1.09,1.09,0,0,1-.79-.28C338.81,124.64,338.94,124.85,339.81,124.49Z"/><path class="cls-1" d="M183.88,145.37l-.16,0a.48.48,0,0,0-.16.24Z"/><path class="cls-1" d="M293.07,8.15a4.93,4.93,0,0,1,1.84.75C295,8.59,294.55,8.3,293.07,8.15Z"/><path class="cls-1" d="M194.43,16.69l3-.19a6.67,6.67,0,0,1-2.7-.55C194.81,16.26,195.37,16.71,194.43,16.69Z"/><path class="cls-1" d="M168.56,7.6c-.45.14-.93,0-1.38.11l.1.6C169.16,8.36,170.5,7.94,168.56,7.6Z"/><path class="cls-1" d="M191.82,12.32c-.19-1.08-2.1-.81-4.23-.7H188C187.28,13.11,189.55,12.71,191.82,12.32Z"/><path class="cls-1" d="M187.1,11.63a12.63,12.63,0,0,1-1.95-.06C184.87,12.16,185.93,11.73,187.1,11.63Z"/><path class="cls-1" d="M213.5,16.1c-1-.33-.69,1.34-1.24.88C211.08,18.29,219,15.63,213.5,16.1Z"/><polygon class="cls-1" points="190.27 8.71 190.97 10.07 192.2 9.05 190.27 8.71"/><path class="cls-1" d="M206.93,10.44l-3.36-.52c0,.22-.39.33-.93.41C204.72,10.47,207,10.83,206.93,10.44Z"/><path class="cls-1" d="M202.64,10.33a8.65,8.65,0,0,0-2.73.09A18.94,18.94,0,0,0,202.64,10.33Z"/><polygon class="cls-1" points="194.91 8.52 195.9 8.84 198.28 9.04 194.91 8.52"/><path class="cls-1" d="M243.27,12.35l3.71-.22c.4-.43-.6-.76-2-.64C244.1,11.77,242.73,11.88,243.27,12.35Z"/><path class="cls-1" d="M232.28,8.21a3.38,3.38,0,0,1,1.58,1.08l.19-1.64Z"/><path class="cls-1" d="M243.06,8.31c.38-.44,5.41-1.06.73-1.17C243.39,7.57,239.68,7.78,243.06,8.31Z"/><polygon class="cls-1" points="298.57 12.92 297.63 12.9 297.64 15.6 298.57 12.92"/><path class="cls-1" d="M349.9,19.71a6.74,6.74,0,0,0-1.82-1.66,1.05,1.05,0,0,0-.89,0c-.45.16-.81.36-2.48-1.35-1.32-.17,2.7,2.77,1.36,2.48a9.49,9.49,0,0,1,1.75,1,8.3,8.3,0,0,0,1.14.67C349.55,21.06,349.83,20.85,349.9,19.71Z"/><path class="cls-1" d="M346.07,19.16c-.46-.2-.95-.4-1.5-.58A7.41,7.41,0,0,0,346.07,19.16Z"/><path class="cls-1" d="M50,24.6l1,.17.49.08L52,25a7.6,7.6,0,0,0-1.33-.83Z"/><path class="cls-1" d="M54,22.54c.11.6.21,1.2.28,1.79.47-.45,1-.91,1.54-1.35C55.3,23,54.34,23,54,22.54Z"/><path class="cls-1" d="M277.34,145.14l.2-.42c-.46-.43-1.12-.44-2.44-.45Z"/><polygon class="cls-1" points="239.01 145.19 239.67 145.2 238.4 143.69 239.01 145.19"/><path class="cls-1" d="M206.9,147.83c1.31,0,2.85-.33,4.17-.28C208.21,147.88,206.51,145.9,206.9,147.83Z"/><path class="cls-2" d="M42.57,45.72,40,45.66a67.68,67.68,0,0,1-.26-7.94V36.23a8.63,8.63,0,0,1,.32-2.72A2.7,2.7,0,0,1,41.39,32a3,3,0,0,1,1.45-.28,6.37,6.37,0,0,1,1.43.13A2.73,2.73,0,0,1,46.11,33a4.13,4.13,0,0,1,.49,2.14,3.61,3.61,0,0,1-.94,2.75,1.81,1.81,0,0,1,1,.51,4.57,4.57,0,0,1,.78.9,4.29,4.29,0,0,1,.52,2.29,3.72,3.72,0,0,1-1.31,3.22A6.88,6.88,0,0,1,42.57,45.72ZM45.85,40a2.21,2.21,0,0,0-.63-.41A3.23,3.23,0,0,0,44,39.36a22.35,22.35,0,0,0-2.69.27c0,2.18,0,3.66.1,4.43a11.26,11.26,0,0,0,3.29-.33A2.52,2.52,0,0,0,46,42.94a1.74,1.74,0,0,0,.33-1c0-.36,0-.61,0-.76a3.53,3.53,0,0,0-.12-.61A1.53,1.53,0,0,0,45.85,40Zm-4.52-4.46,0,2.4.68-.1c.43-.06.79-.13,1.08-.2a2.32,2.32,0,0,0,2-2.41,1.68,1.68,0,0,0-.53-1.39,2.1,2.1,0,0,0-1.39-.44,2,2,0,0,0-1.46.4l-.26.28a.67.67,0,0,0-.14.37,2.64,2.64,0,0,0,0,.36,2.51,2.51,0,0,0,0,.4C41.32,35.35,41.33,35.46,41.33,35.49Z"/><path class="cls-2" d="M49.82,36.17a.8.8,0,0,1,.53-.24.72.72,0,0,1,.42.11.48.48,0,0,1,.19.19,2.47,2.47,0,0,1,.07.29c-.08,1.09-.12,2.08-.12,2.95a17.26,17.26,0,0,0,.3,3c.2,1.13.42,1.69.66,1.69a2.49,2.49,0,0,0,1.37-.63,4.12,4.12,0,0,0,1.19-1.32c-.16-2-.24-3.74-.24-5.19a1.11,1.11,0,0,1,.27-.75.84.84,0,0,1,.65-.32c.42,0,.62.3.62.88,0,1,.07,2.47.21,4.43A25.85,25.85,0,0,0,56.38,45a2.23,2.23,0,0,1,0,.39.54.54,0,0,1-.27.42,1.19,1.19,0,0,1-.71.2c-.28,0-.47-.17-.57-.5a11.72,11.72,0,0,0-.2-1.26,3.92,3.92,0,0,1-2.82,1.53,1.6,1.6,0,0,1-1.18-.52,3.6,3.6,0,0,1-.83-1.43,11.75,11.75,0,0,1-.52-3.28c0-1,.06-2.28.16-3.78A1.2,1.2,0,0,1,49.82,36.17Z"/><path class="cls-2" d="M58.72,36.64a2.87,2.87,0,0,1,2-.73,5.63,5.63,0,0,1,2.14.42q1,.42,1,1.11a.7.7,0,0,1-.26.57.81.81,0,0,1-.45.21h-.3a4.91,4.91,0,0,1-.81-.39,2.69,2.69,0,0,0-1.27-.38,1.56,1.56,0,0,0-1,.31,1,1,0,0,0-.41.89,1.07,1.07,0,0,0,.47.92,4.49,4.49,0,0,0,1.65.58,5,5,0,0,1,1.82.68,1.88,1.88,0,0,1,.63,1.64A3.07,3.07,0,0,1,63,44.93a3.22,3.22,0,0,1-2.12.72,5.75,5.75,0,0,1-2.11-.35,1.17,1.17,0,0,1-.87-1.07c0-.55.26-.82.78-.82a2.93,2.93,0,0,1,.88.29A3.35,3.35,0,0,0,61,44a1.24,1.24,0,0,0,1-.45,1.67,1.67,0,0,0,.35-1,.92.92,0,0,0-.46-.85,4.73,4.73,0,0,0-1.41-.43,7,7,0,0,1-1.38-.35,2.17,2.17,0,0,1-1.2-2.25A2.5,2.5,0,0,1,58.72,36.64Z"/><path class="cls-2" d="M65.68,38.28a4.79,4.79,0,0,1,4-2.31,4.53,4.53,0,0,1,1.67.26c.42.18.63.41.63.7a1.76,1.76,0,0,1-.23.86.7.7,0,0,1-.61.43,3.54,3.54,0,0,1-.77-.24,3,3,0,0,0-.81-.25,2.6,2.6,0,0,0-2,.9A3.37,3.37,0,0,0,66.71,41a4.21,4.21,0,0,0,.45,2.19,1.69,1.69,0,0,0,1.56.73,4.13,4.13,0,0,0,1.51-.54,4.89,4.89,0,0,1,1.33-.53A.54.54,0,0,1,72,43a.6.6,0,0,1,.16.42,1.54,1.54,0,0,1-.61,1.07,5.07,5.07,0,0,1-1.51.92,4.45,4.45,0,0,1-1.62.37,2.9,2.9,0,0,1-2.52-1.32A6.3,6.3,0,0,1,65,40.84,4.84,4.84,0,0,1,65.68,38.28Z"/><path class="cls-2" d="M78.61,36c.59,0,.88.52.89,1.57v.36l0,1.47c0,.46,0,.92,0,1.36l.3,4.75c0,.35-.34.53-1,.53h-.3a.34.34,0,0,1-.32-.19.73.73,0,0,1,0-.47,1,1,0,0,0,0-.6,3.13,3.13,0,0,1-2.44,1c-1.88,0-2.83-1.52-2.83-4.57a6.77,6.77,0,0,1,.91-3.85A3,3,0,0,1,76.29,36a4.53,4.53,0,0,1,1.6.3A.83.83,0,0,1,78.61,36Zm-2.08,1.91a2.06,2.06,0,0,0-1.7.69,4.15,4.15,0,0,0-.56,2.54c0,2.08.53,3.11,1.6,3.11a1.54,1.54,0,0,0,.93-.4,2.14,2.14,0,0,0,.71-.9,7.59,7.59,0,0,0,.38-2.48,4.46,4.46,0,0,0-.31-2A1.09,1.09,0,0,0,76.53,37.86Z"/><path class="cls-2" d="M85.43,32.16a2.2,2.2,0,0,1,.24-1,.76.76,0,0,1,.62-.25c.57,0,.86.25.86.74s0,1.36-.09,3-.09,3-.09,4.28a27.28,27.28,0,0,0,.14,3c.16,1.34.39,2,.68,2s.51-.22.66-.66a1.49,1.49,0,0,1,.32-.45.83.83,0,0,1,.56-.2c.47,0,.7.42.7,1.24a1.91,1.91,0,0,1-.69,1.34,2,2,0,0,1-1.37.66,2.15,2.15,0,0,1-1.09-.24,1.81,1.81,0,0,1-.66-.73,6.06,6.06,0,0,1-.4-.93,5,5,0,0,1-.21-1.11c-.08-.69-.14-1.82-.17-3.37s0-3-.06-4.43S85.4,32.68,85.43,32.16Z"/><path class="cls-2" d="M96.4,35.94c.59,0,.89.53.89,1.58v.36l0,1.47c0,.46,0,.91,0,1.36l.3,4.75c0,.35-.34.52-1,.52h-.29a.31.31,0,0,1-.32-.19.64.64,0,0,1,0-.46,1,1,0,0,0-.06-.61,3.09,3.09,0,0,1-2.44,1c-1.88,0-2.82-1.52-2.83-4.58a6.68,6.68,0,0,1,.92-3.84A3,3,0,0,1,94.08,36a4.75,4.75,0,0,1,1.6.29A.85.85,0,0,1,96.4,35.94Zm-2.08,1.92a2.06,2.06,0,0,0-1.7.69,4.15,4.15,0,0,0-.56,2.54c0,2.07.53,3.11,1.6,3.11a1.61,1.61,0,0,0,.93-.4,2.2,2.2,0,0,0,.71-.9,7.63,7.63,0,0,0,.38-2.48,4.54,4.54,0,0,0-.31-2A1.07,1.07,0,0,0,94.32,37.86Z"/><path class="cls-2" d="M105.86,42.68l0,2.17a.94.94,0,0,1-.33.69,1,1,0,0,1-.65.31c-.31,0-.5-.25-.58-.75,0-.11-.07-1.14-.16-3.08a26.11,26.11,0,0,0-.54-4.57,7.26,7.26,0,0,1-.18-.94c0-.46.26-.69.8-.69a.64.64,0,0,1,.54.27,1.33,1.33,0,0,1,.25.56c0,.18.06.44.09.76s0,.53.06.61a3.17,3.17,0,0,1,1.26-1.57,3.43,3.43,0,0,1,1.85-.53c1.09,0,1.64.29,1.64.88a.93.93,0,0,1-.29.71,1,1,0,0,1-.67.26,2.62,2.62,0,0,0-2.41,1.13A7.65,7.65,0,0,0,105.86,42.68Z"/><path class="cls-2" d="M113.87,36a3.53,3.53,0,0,1,2,.66,1.88,1.88,0,0,1,1,1.6,2.8,2.8,0,0,1-.78,1.85A3.25,3.25,0,0,1,114,41.21a11.7,11.7,0,0,1-1.69.09,3.81,3.81,0,0,0,.87,2.35.68.68,0,0,0,.54.23,2.87,2.87,0,0,0,2.08-.83c.56-.55,1-.83,1.2-.83s.27.1.48.31a.86.86,0,0,1,.32.59c0,.37-.42.89-1.26,1.58a4.94,4.94,0,0,1-1.35.81,4,4,0,0,1-1.47.32c-1.17,0-2-.78-2.57-2.35a9.32,9.32,0,0,1-.52-3.19,5.59,5.59,0,0,1,.78-3A2.67,2.67,0,0,1,113.87,36Zm.11,1.45a1.56,1.56,0,0,0-1.31.91,4.61,4.61,0,0,0-.38,1.43c1.87,0,2.81-.49,2.81-1.45C115.1,37.77,114.72,37.47,114,37.47Z"/><path class="cls-2" d="M120.15,36.63a2.87,2.87,0,0,1,1.95-.73,5.54,5.54,0,0,1,2.13.42c.68.28,1,.65,1,1.11A.68.68,0,0,1,125,38a.75.75,0,0,1-.45.21h-.3a5,5,0,0,1-.8-.39,2.69,2.69,0,0,0-1.27-.38,1.62,1.62,0,0,0-1,.3,1.16,1.16,0,0,0,.06,1.82,4.42,4.42,0,0,0,1.65.58,4.93,4.93,0,0,1,1.81.68,1.84,1.84,0,0,1,.64,1.64,3.07,3.07,0,0,1-.87,2.47,3.24,3.24,0,0,1-2.12.72,5.51,5.51,0,0,1-2.11-.36,1.15,1.15,0,0,1-.87-1.07c0-.54.26-.82.78-.82a3.18,3.18,0,0,1,.88.3,3.45,3.45,0,0,0,1.35.29,1.21,1.21,0,0,0,1-.45,1.61,1.61,0,0,0,.35-1,.9.9,0,0,0-.46-.85,4.56,4.56,0,0,0-1.4-.43,6.28,6.28,0,0,1-1.38-.36,2.17,2.17,0,0,1-1.21-2.24A2.51,2.51,0,0,1,120.15,36.63Z"/><path class="cls-2" d="M130.22,36a2.74,2.74,0,0,1,2.38,1.45,6.27,6.27,0,0,1,.93,3.47,6.14,6.14,0,0,1-.95,3.46,2.94,2.94,0,0,1-5.06,0,5.81,5.81,0,0,1-1-3.25,6.64,6.64,0,0,1,.88-3.65A3.09,3.09,0,0,1,130.22,36ZM130,37.68a1.59,1.59,0,0,0-1.38.92,3.84,3.84,0,0,0-.54,2,4.15,4.15,0,0,0,.6,2.43,1.7,1.7,0,0,0,1.36.84,1.65,1.65,0,0,0,1.75-1.24,6,6,0,0,0,.16-1.47C131.93,38.83,131.28,37.68,130,37.68Z"/><path class="cls-2" d="M134.7,32.15a2,2,0,0,1,.24-1,.74.74,0,0,1,.61-.24c.58,0,.86.24.86.73s0,1.37-.09,3-.09,3-.09,4.29a24.57,24.57,0,0,0,.15,3c.16,1.34.38,2,.68,2s.51-.22.66-.65a1.17,1.17,0,0,1,.32-.46.82.82,0,0,1,.56-.2c.47,0,.7.42.7,1.24a1.89,1.89,0,0,1-.69,1.34,2,2,0,0,1-1.37.66,2.12,2.12,0,0,1-1.09-.24,1.7,1.7,0,0,1-.67-.73,7.24,7.24,0,0,1-.4-.93,5,5,0,0,1-.21-1.1c-.08-.7-.13-1.83-.17-3.37s0-3,0-4.44S134.67,32.67,134.7,32.15Z"/><path class="cls-2" d="M140.38,36.16a.79.79,0,0,1,.53-.25.72.72,0,0,1,.42.11.44.44,0,0,1,.18.19,1.34,1.34,0,0,1,.07.29c-.08,1.09-.12,2.08-.12,3a17.46,17.46,0,0,0,.3,3c.21,1.12.43,1.69.67,1.69a2.52,2.52,0,0,0,1.37-.63A4.15,4.15,0,0,0,145,42.19c-.16-2-.24-3.74-.24-5.18a1.12,1.12,0,0,1,.27-.76.84.84,0,0,1,.65-.32c.41,0,.62.3.62.89,0,1,.07,2.47.21,4.43a26.86,26.86,0,0,0,.43,3.74,1.48,1.48,0,0,1,0,.38.54.54,0,0,1-.27.42,1.1,1.1,0,0,1-.7.2c-.28,0-.47-.16-.57-.5s-.09-.7-.2-1.26a3.93,3.93,0,0,1-2.82,1.53,1.64,1.64,0,0,1-1.19-.52,3.71,3.71,0,0,1-.82-1.43,11.34,11.34,0,0,1-.52-3.28c0-1,.05-2.28.16-3.78A1.14,1.14,0,0,1,140.38,36.16Z"/><path class="cls-2" d="M148.53,38.27A4.77,4.77,0,0,1,152.48,36a4.37,4.37,0,0,1,1.68.27q.63.26.63.69a1.85,1.85,0,0,1-.23.86.69.69,0,0,1-.61.43,3.39,3.39,0,0,1-.78-.24,3.2,3.2,0,0,0-.81-.24,2.62,2.62,0,0,0-2,.89,3.34,3.34,0,0,0-.82,2.36,4.25,4.25,0,0,0,.45,2.2,1.69,1.69,0,0,0,1.55.72,4.19,4.19,0,0,0,1.51-.53,4.73,4.73,0,0,1,1.34-.54.57.57,0,0,1,.42.17.61.61,0,0,1,.16.42,1.56,1.56,0,0,1-.61,1.06,4.93,4.93,0,0,1-1.52.92,4.26,4.26,0,0,1-1.62.37,2.89,2.89,0,0,1-2.51-1.32,6.26,6.26,0,0,1-.91-3.61A4.73,4.73,0,0,1,148.53,38.27Z"/><path class="cls-2" d="M157.19,32.47a.93.93,0,0,1,.68.35,1.14,1.14,0,0,1,.32.75,1.24,1.24,0,0,1-.35.79,1,1,0,0,1-.73.4,1,1,0,0,1-.69-.34,1.2,1.2,0,0,1-.31-.86,1,1,0,0,1,1-1.09Zm.84,11,0,1.47a.83.83,0,0,1-.3.66.94.94,0,0,1-.64.27.48.48,0,0,1-.52-.53q-.26-6.71-.26-7.41c0-.48,0-1.06.06-1.75,0-.25.18-.37.46-.37q1.07,0,1.2.9a6,6,0,0,1,.06.73L158,38.77Z"/><path class="cls-2" d="M163.9,36a2.76,2.76,0,0,1,2.38,1.45,6.32,6.32,0,0,1,.93,3.48,6.1,6.1,0,0,1-1,3.45,2.94,2.94,0,0,1-5.06,0,5.76,5.76,0,0,1-1-3.24,6.65,6.65,0,0,1,.88-3.66A3.11,3.11,0,0,1,163.9,36Zm-.24,1.72a1.58,1.58,0,0,0-1.38.93,3.8,3.8,0,0,0-.54,1.95,4.16,4.16,0,0,0,.6,2.44,1.7,1.7,0,0,0,1.36.84,1.66,1.66,0,0,0,1.75-1.24,6,6,0,0,0,.16-1.47Q165.61,37.67,163.66,37.67Zm.12-5.85a.49.49,0,0,1,.51-.36.79.79,0,0,1,.62.25.66.66,0,0,1,.23.41.68.68,0,0,1,0,.26A5.14,5.14,0,0,1,164,34.17c-.5.56-.88.84-1.15.84a.78.78,0,0,1-.6-.21.65.65,0,0,1,.12-1A4.36,4.36,0,0,0,163.78,31.82Z"/><path class="cls-2" d="M169.19,45.09,169,36.56a.87.87,0,0,1,.26-.65.77.77,0,0,1,.52-.25.65.65,0,0,1,.74.56,7.54,7.54,0,0,1,.08,1.18,3.27,3.27,0,0,1,2.71-1.49c1.66,0,2.48,2,2.48,5.94V43.5a7.76,7.76,0,0,1-.12,1.61.77.77,0,0,1-.86.63c-.32,0-.48-.23-.48-.68l0-1.17a24,24,0,0,0-.15-3.33c-.1-.6-.2-1.07-.29-1.42-.23-.75-.59-1.13-1.1-1.13a1.44,1.44,0,0,0-1.4.75,4.67,4.67,0,0,0-.52,1.94c-.1,1.3-.14,2.68-.14,4.13a.85.85,0,0,1-.3.68,1.15,1.15,0,0,1-.73.25C169.36,45.76,169.19,45.53,169.19,45.09Z"/><path class="cls-2" d="M186.88,35.91l0-4.06c0-.75.23-1.13.69-1.13a.67.67,0,0,1,.77.63c0,.18.06,1.28.11,3.3s.1,3.9.19,5.67.13,3.4.13,4.93q0,.63-.9.63c-.4,0-.6-.29-.6-.88a3.1,3.1,0,0,1-2.05.71,3,3,0,0,1-2.43-1.17,4.6,4.6,0,0,1-.94-2.9,7.75,7.75,0,0,1,.68-3.22,4.12,4.12,0,0,1,2.09-2.16,4.21,4.21,0,0,1,1.7-.4A3.58,3.58,0,0,1,186.88,35.91Zm.11,2.86a2,2,0,0,0-.35-.69.74.74,0,0,0-.43-.29,2.2,2.2,0,0,0-.55-.06,1.73,1.73,0,0,0-.78.26,2,2,0,0,0-.78.81,4.76,4.76,0,0,0-.64,2.39,3.9,3.9,0,0,0,.47,2,1.48,1.48,0,0,0,1.34.78,1.52,1.52,0,0,0,1.37-.9,4.65,4.65,0,0,0,.5-2.31A8.28,8.28,0,0,0,187,38.77Z"/><path class="cls-2" d="M192.79,36a3.59,3.59,0,0,1,2,.65,1.9,1.9,0,0,1,1,1.61,2.78,2.78,0,0,1-.78,1.84,3.31,3.31,0,0,1-2.09,1.09,13.48,13.48,0,0,1-1.68.08,3.87,3.87,0,0,0,.86,2.35.68.68,0,0,0,.54.23,2.83,2.83,0,0,0,2.09-.83c.56-.55,1-.83,1.2-.83s.27.11.48.32a.9.9,0,0,1,.32.59c0,.36-.42.89-1.26,1.57a5.09,5.09,0,0,1-1.35.81,3.87,3.87,0,0,1-1.48.33c-1.16,0-2-.79-2.56-2.35a9.34,9.34,0,0,1-.52-3.2,5.59,5.59,0,0,1,.78-3A2.68,2.68,0,0,1,192.79,36Zm.1,1.45a1.55,1.55,0,0,0-1.3.9,4.7,4.7,0,0,0-.38,1.43c1.87,0,2.81-.48,2.81-1.45C194,37.75,193.64,37.46,192.89,37.46Z"/><path class="cls-2" d="M202.92,38.25a4.76,4.76,0,0,1,1.81-1.73,4.69,4.69,0,0,1,2.15-.58,4.31,4.31,0,0,1,1.67.27q.63.26.63.69a1.74,1.74,0,0,1-.23.86.68.68,0,0,1-.61.43,3.54,3.54,0,0,1-.77-.24,3.2,3.2,0,0,0-.81-.24,2.62,2.62,0,0,0-2,.89A3.39,3.39,0,0,0,204,41a4.28,4.28,0,0,0,.45,2.2,1.7,1.7,0,0,0,1.56.72,4.25,4.25,0,0,0,1.51-.53,4.72,4.72,0,0,1,1.33-.54.54.54,0,0,1,.42.17.57.57,0,0,1,.16.42,1.52,1.52,0,0,1-.61,1.06,4.88,4.88,0,0,1-1.51.92,4.26,4.26,0,0,1-1.62.37,2.9,2.9,0,0,1-2.52-1.32,6.26,6.26,0,0,1-.91-3.61A4.85,4.85,0,0,1,202.92,38.25Z"/><path class="cls-2" d="M213.81,35.94a2.76,2.76,0,0,1,2.37,1.45,6.25,6.25,0,0,1,.94,3.48,6.1,6.1,0,0,1-1,3.45,2.94,2.94,0,0,1-5.06,0,5.77,5.77,0,0,1-1-3.24,6.65,6.65,0,0,1,.89-3.66A3.1,3.1,0,0,1,213.81,35.94Zm-.24,1.72a1.58,1.58,0,0,0-1.38.93,3.83,3.83,0,0,0-.54,1.95,4.16,4.16,0,0,0,.6,2.44,1.68,1.68,0,0,0,1.36.84,1.64,1.64,0,0,0,1.74-1.24,5.54,5.54,0,0,0,.16-1.47C215.51,38.81,214.86,37.66,213.57,37.66Z"/><path class="cls-2" d="M219.1,45.08l-.22-8.53a.89.89,0,0,1,.26-.65.75.75,0,0,1,.52-.25.66.66,0,0,1,.74.56,9,9,0,0,1,.08,1.18,3.24,3.24,0,0,1,2.71-1.49q2.48,0,2.48,5.94v1.65a7.69,7.69,0,0,1-.12,1.61.77.77,0,0,1-.86.63c-.32,0-.48-.23-.48-.68l0-1.17a24,24,0,0,0-.15-3.33c-.1-.59-.2-1.07-.29-1.42-.23-.75-.6-1.13-1.1-1.13a1.46,1.46,0,0,0-1.41.76,4.9,4.9,0,0,0-.52,1.93c-.09,1.3-.14,2.68-.14,4.13a.85.85,0,0,1-.3.68,1.12,1.12,0,0,1-.72.25C219.27,45.75,219.1,45.52,219.1,45.08Z"/><path class="cls-2" d="M236.11,42.6c.47,0,.7.41.7,1.23a1.89,1.89,0,0,1-.69,1.34,2,2,0,0,1-1.37.66,2.12,2.12,0,0,1-1.09-.24,1.63,1.63,0,0,1-.66-.73,6.15,6.15,0,0,1-.41-.93,6.37,6.37,0,0,1-.23-1.1c-.06-.7-.1-1.36-.11-2s0-1.74-.05-3.39a1.82,1.82,0,0,1-.66.18H231l-.58,0c0,.56.09,1.56.18,3s.14,2.83.14,4.19a.81.81,0,0,1-.32.67,1,1,0,0,1-.66.26c-.36,0-.54-.23-.54-.67,0-1.27,0-2.49-.14-3.68s-.16-2.44-.2-3.76c-1.21,0-1.91-.12-2.11-.38a.55.55,0,0,1-.12-.37.69.69,0,0,1,.43-.72,2.78,2.78,0,0,1,1-.17h.81a18,18,0,0,1,.36-4.24,1.53,1.53,0,0,1,.49-.74,1.08,1.08,0,0,1,.54-.28q.23,0,1.05,0a3.4,3.4,0,0,1,1.34.23,1.21,1.21,0,0,1,.49-.08.83.83,0,0,1,.56.19.77.77,0,0,1,.23.65q0,.46-.09,2.85c-.06,1.6-.08,3-.08,4.29a24.88,24.88,0,0,0,.14,3c.16,1.35.38,2,.68,2s.52-.22.68-.65a1,1,0,0,1,.3-.46A.81.81,0,0,1,236.11,42.6Zm-4.35-6.53a1.09,1.09,0,0,1,.42.06c0-1.77,0-2.94,0-3.53a5.52,5.52,0,0,0-1-.31c-.47,0-.75.29-.84.88a11.91,11.91,0,0,0,0,1.29v1.61Z"/><path class="cls-2" d="M239,32.45a.91.91,0,0,1,.68.36,1.1,1.1,0,0,1,.33.74,1.18,1.18,0,0,1-.36.79,1,1,0,0,1-.73.4.94.94,0,0,1-.69-.33,1.24,1.24,0,0,1-.31-.87,1,1,0,0,1,1-1.09Zm.85,11,0,1.47a.85.85,0,0,1-.3.66,1,1,0,0,1-.64.26.48.48,0,0,1-.53-.52q-.26-6.7-.26-7.42t.06-1.74a.4.4,0,0,1,.46-.38c.71,0,1.11.3,1.21.9a6.15,6.15,0,0,1,.06.74l-.08,1.32Z"/><path class="cls-2" d="M242.57,38.25a4.72,4.72,0,0,1,4-2.31,4.33,4.33,0,0,1,1.67.26q.63.25.63.69a1.82,1.82,0,0,1-.23.86.68.68,0,0,1-.61.43,3.54,3.54,0,0,1-.77-.24,3.2,3.2,0,0,0-.81-.24,2.62,2.62,0,0,0-2,.89A3.41,3.41,0,0,0,243.6,41a4.21,4.21,0,0,0,.45,2.19,1.69,1.69,0,0,0,1.56.72,4.11,4.11,0,0,0,1.51-.53,4.72,4.72,0,0,1,1.33-.54.54.54,0,0,1,.42.17.57.57,0,0,1,.16.42,1.5,1.5,0,0,1-.61,1.06,5.22,5.22,0,0,1-1.51.93,4.42,4.42,0,0,1-1.62.36,2.9,2.9,0,0,1-2.52-1.32,6.24,6.24,0,0,1-.91-3.61A4.81,4.81,0,0,1,242.57,38.25Z"/><path class="cls-2" d="M250.41,35.91l1,0a1.21,1.21,0,0,0,.38,0v-4.3a.79.79,0,0,1,.34-.61,1,1,0,0,1,.6-.25.58.58,0,0,1,.45.19.82.82,0,0,1,.15.59c0,.26,0,1.72,0,4.36l2.34-.08c.4,0,.6.24.6.73a1,1,0,0,1-.31.82,1.11,1.11,0,0,1-.66.3l-.69,0-1.22,0c0,.57.06,1.71.17,3.4s.2,2.79.27,3.29a3,3,0,0,1,0,1,.46.46,0,0,1-.22.31,1.69,1.69,0,0,1-.7.12c-.29,0-.47-.17-.52-.5a68.1,68.1,0,0,1-.54-7.56c-.12,0-.58,0-1.39,0s-1.2-.24-1.2-.73C249.29,36.27,249.67,35.91,250.41,35.91Z"/><path class="cls-2" d="M260.35,35.93a2.79,2.79,0,0,1,2.38,1.45,6.32,6.32,0,0,1,.93,3.48,6.1,6.1,0,0,1-1,3.45,2.94,2.94,0,0,1-5.06,0,5.76,5.76,0,0,1-1-3.24,6.65,6.65,0,0,1,.88-3.66A3.1,3.1,0,0,1,260.35,35.93Zm-.24,1.73a1.57,1.57,0,0,0-1.38.92,3.83,3.83,0,0,0-.54,2,4.16,4.16,0,0,0,.6,2.44,1.68,1.68,0,0,0,1.36.84,1.65,1.65,0,0,0,1.75-1.24,6,6,0,0,0,.16-1.47C262.05,38.8,261.41,37.66,260.11,37.66Z"/><path class="cls-2" d="M266.06,36.6a2.87,2.87,0,0,1,1.95-.73,5.55,5.55,0,0,1,2.14.42q1,.42,1,1.11a.7.7,0,0,1-.26.57.75.75,0,0,1-.45.21h-.3a5,5,0,0,1-.8-.39,2.73,2.73,0,0,0-1.27-.38,1.61,1.61,0,0,0-1,.31,1,1,0,0,0-.41.89,1.07,1.07,0,0,0,.47.92,4.56,4.56,0,0,0,1.66.58,5,5,0,0,1,1.81.68,1.88,1.88,0,0,1,.63,1.64,3.06,3.06,0,0,1-.87,2.47,3.21,3.21,0,0,1-2.11.72,5.57,5.57,0,0,1-2.12-.35,1.17,1.17,0,0,1-.87-1.07c0-.55.26-.82.78-.82a2.84,2.84,0,0,1,.88.29,3.36,3.36,0,0,0,1.36.29,1.23,1.23,0,0,0,1-.45,1.65,1.65,0,0,0,.35-1,.92.92,0,0,0-.46-.85,4.75,4.75,0,0,0-1.4-.43,7.39,7.39,0,0,1-1.39-.35,2.17,2.17,0,0,1-1.2-2.25A2.5,2.5,0,0,1,266.06,36.6Z"/><path class="cls-2" d="M283.59,36a.85.85,0,0,1,.51.19.53.53,0,0,1,.25.42,60.93,60.93,0,0,1-1.7,6.6q-1.69,6-2.52,8.4c-.12.38-.31.56-.56.56a.7.7,0,0,1-.6-.28,1.32,1.32,0,0,1-.22-.83,12.08,12.08,0,0,1,.67-2.61q.66-2.07.81-2.64-.51-.89-3.39-8.82a.7.7,0,0,1,0-.27.77.77,0,0,1,.24-.44.84.84,0,0,1,.66-.28.77.77,0,0,1,.68.45c.19.5.5,1.38.92,2.63s.76,2.16,1,2.72.45,1.14.67,1.74c.19-.66.51-1.93,1-3.83s.71-3,.78-3.24S283.06,36,283.59,36Z"/><path class="cls-2" d="M290.78,35.91l1,0a2.09,2.09,0,0,0,.38,0V31.6a.79.79,0,0,1,.34-.61,1,1,0,0,1,.6-.25.58.58,0,0,1,.45.19.83.83,0,0,1,.15.59c0,.26,0,1.72,0,4.37L296,35.8c.4,0,.6.25.6.74a1,1,0,0,1-1,1.11l-.69,0-1.22,0c0,.57.06,1.71.17,3.4s.2,2.79.27,3.29a3,3,0,0,1,0,1,.46.46,0,0,1-.22.31,1.69,1.69,0,0,1-.7.12c-.29,0-.47-.16-.52-.5a67.71,67.71,0,0,1-.54-7.56c-.12,0-.58,0-1.39,0s-1.2-.24-1.2-.73C289.66,36.26,290,35.91,290.78,35.91Z"/><path class="cls-2" d="M299.76,42.65l0,2.16a.94.94,0,0,1-.33.69,1,1,0,0,1-.65.32c-.31,0-.5-.25-.58-.76,0-.11-.07-1.14-.16-3.07a27,27,0,0,0-.54-4.57,7.26,7.26,0,0,1-.18-1c0-.46.26-.69.8-.69a.65.65,0,0,1,.54.27,1.33,1.33,0,0,1,.25.56c0,.19.06.44.09.77s.05.52.06.6a3.17,3.17,0,0,1,1.26-1.57,3.43,3.43,0,0,1,1.84-.53c1.1,0,1.65.3,1.65.89a.92.92,0,0,1-.29.7,1,1,0,0,1-.67.26,2.6,2.6,0,0,0-2.41,1.14A7.49,7.49,0,0,0,299.76,42.65Z"/><path class="cls-2" d="M310.48,35.9c.59,0,.88.53.88,1.58v.35l0,1.48c0,.46,0,.91,0,1.36l.3,4.75c0,.35-.34.52-1,.52h-.29a.32.32,0,0,1-.32-.19.64.64,0,0,1,0-.46,1,1,0,0,0-.05-.61,3.12,3.12,0,0,1-2.44,1c-1.89,0-2.83-1.52-2.83-4.58a6.68,6.68,0,0,1,.91-3.84,3,3,0,0,1,2.61-1.3,4.8,4.8,0,0,1,1.61.29A.82.82,0,0,1,310.48,35.9Zm-2.08,1.91a2.08,2.08,0,0,0-1.71.7,4.22,4.22,0,0,0-.56,2.54c0,2.07.54,3.11,1.61,3.11a1.61,1.61,0,0,0,.93-.4,2.25,2.25,0,0,0,.71-.91,7.8,7.8,0,0,0,.38-2.47,4.7,4.7,0,0,0-.31-2A1.1,1.1,0,0,0,308.4,37.81Z"/><path class="cls-2" d="M312.78,31.51c0-.56.34-.84,1-.84.31,0,.49.2.54.59v3.15c0,.59,0,1.18,0,1.77a3.2,3.2,0,0,1,1-.13,3.58,3.58,0,0,1,3,1.36,5.4,5.4,0,0,1,1.07,3.43,5,5,0,0,1-1.26,3.47A4.06,4.06,0,0,1,315,45.73c-1.31,0-2-.39-2-1.16s0-2.76-.11-5.93S312.78,33.1,312.78,31.51Zm4.05,6.76a2.34,2.34,0,0,0-2.42-.41q.12,1.71.12,6.11a2.06,2.06,0,0,0,.7.12,2.51,2.51,0,0,0,1.56-.61A2.94,2.94,0,0,0,318,40.91,3.2,3.2,0,0,0,316.83,38.27Z"/><path class="cls-2" d="M326.59,35.9c.58,0,.88.52.88,1.58v.35l0,1.47c0,.46,0,.92,0,1.37l.3,4.74c0,.35-.34.53-1,.53h-.29a.31.31,0,0,1-.32-.19.65.65,0,0,1,0-.46,1.09,1.09,0,0,0-.05-.61,3.16,3.16,0,0,1-2.45,1q-2.82,0-2.82-4.58a6.68,6.68,0,0,1,.91-3.84A3,3,0,0,1,324.26,36a4.58,4.58,0,0,1,1.61.3A.82.82,0,0,1,326.59,35.9Zm-2.09,1.91a2.06,2.06,0,0,0-1.7.69,4.26,4.26,0,0,0-.56,2.55c0,2.07.53,3.1,1.6,3.1a1.59,1.59,0,0,0,.94-.4,2.16,2.16,0,0,0,.71-.9,7.82,7.82,0,0,0,.38-2.48,4.68,4.68,0,0,0-.31-1.95A1.09,1.09,0,0,0,324.5,37.81Z"/><path class="cls-2" d="M329.89,36.1a1.19,1.19,0,0,1,.78-.22.52.52,0,0,1,.58.52,45,45,0,0,1,.29,4.9c0,1.54-.05,3.08-.14,4.63a12.45,12.45,0,0,1-.64,3.58,2.48,2.48,0,0,1-2.47,1.66,2.28,2.28,0,0,1-1.56-.59,1.82,1.82,0,0,1-.66-1.41.79.79,0,0,1,.3-.67,1.08,1.08,0,0,1,.66-.23.7.7,0,0,1,.54.19.89.89,0,0,1,.24.42c.14.4.37.61.69.61s.61-.28.84-.82a7,7,0,0,0,.46-2.23c.08-.94.11-1.93.11-3a63.14,63.14,0,0,0-.24-6.8A.62.62,0,0,1,329.89,36.1Zm.42-3.56a.91.91,0,0,1,.68.36,1.05,1.05,0,0,1,.32.74,1.19,1.19,0,0,1-.35.79,1,1,0,0,1-.73.4.92.92,0,0,1-.69-.34,1.2,1.2,0,0,1-.31-.86,1,1,0,0,1,1-1.09Z"/><path class="cls-2" d="M337.11,35.92a2.74,2.74,0,0,1,2.37,1.45,6.27,6.27,0,0,1,.93,3.47,6.14,6.14,0,0,1-1,3.46,2.94,2.94,0,0,1-5.06,0,5.81,5.81,0,0,1-1-3.25,6.64,6.64,0,0,1,.88-3.65A3.11,3.11,0,0,1,337.11,35.92Zm-.25,1.72a1.58,1.58,0,0,0-1.38.93,3.77,3.77,0,0,0-.54,2,4.15,4.15,0,0,0,.6,2.43,1.7,1.7,0,0,0,1.37.84,1.64,1.64,0,0,0,1.74-1.23,5.67,5.67,0,0,0,.16-1.48C338.81,38.79,338.16,37.64,336.86,37.64Z"/><path class="cls-2" d="M59.85,61.13l0-4.05q0-1.14.69-1.14a.68.68,0,0,1,.78.63c0,.18.06,1.28.1,3.3s.1,3.91.19,5.67.13,3.41.13,4.93q0,.63-.9.63c-.4,0-.6-.29-.6-.88a3.11,3.11,0,0,1-2,.72,2.94,2.94,0,0,1-2.43-1.18,4.52,4.52,0,0,1-.93-2.9,7.77,7.77,0,0,1,.67-3.22,4.24,4.24,0,0,1,3.79-2.55A3.6,3.6,0,0,1,59.85,61.13ZM60,64a2.07,2.07,0,0,0-.36-.7.74.74,0,0,0-.43-.29,2.19,2.19,0,0,0-.55,0,1.7,1.7,0,0,0-.78.25,2,2,0,0,0-.78.82,4.72,4.72,0,0,0-.64,2.38,4,4,0,0,0,.47,2,1.49,1.49,0,0,0,1.34.79,1.55,1.55,0,0,0,1.38-.91,4.76,4.76,0,0,0,.5-2.31A8.18,8.18,0,0,0,60,64Z"/><path class="cls-2" d="M65.77,61.23a3.59,3.59,0,0,1,2,.65,1.91,1.91,0,0,1,1,1.61A2.8,2.8,0,0,1,68,65.34a3.34,3.34,0,0,1-2.08,1.08,12,12,0,0,1-1.69.08,3.82,3.82,0,0,0,.87,2.36.68.68,0,0,0,.54.23,2.87,2.87,0,0,0,2.08-.83c.56-.56,1-.83,1.2-.83s.27.1.48.31a.86.86,0,0,1,.32.59c0,.37-.42.89-1.26,1.58a4.68,4.68,0,0,1-1.35.8,3.86,3.86,0,0,1-1.47.33c-1.17,0-2-.78-2.57-2.35a9.32,9.32,0,0,1-.52-3.19,5.6,5.6,0,0,1,.78-3A2.69,2.69,0,0,1,65.77,61.23Zm.1,1.45a1.54,1.54,0,0,0-1.31.91A4.61,4.61,0,0,0,64.18,65c1.87,0,2.81-.48,2.81-1.45C67,63,66.61,62.68,65.87,62.68Z"/><path class="cls-2" d="M75.41,57.36a2,2,0,0,1,.24-1,.74.74,0,0,1,.61-.24c.58,0,.86.24.86.73s0,1.37-.09,3-.09,3-.08,4.29a24.88,24.88,0,0,0,.14,3c.16,1.35.38,2,.68,2s.51-.22.66-.65a1.28,1.28,0,0,1,.32-.46.81.81,0,0,1,.56-.19c.47,0,.7.41.7,1.23a1.89,1.89,0,0,1-.69,1.34,2,2,0,0,1-1.37.66,2.12,2.12,0,0,1-1.09-.24,1.63,1.63,0,0,1-.66-.73,6.15,6.15,0,0,1-.41-.93,5,5,0,0,1-.21-1.1c-.08-.7-.13-1.83-.17-3.37s0-3,0-4.44S75.38,57.88,75.41,57.36Z"/><path class="cls-2" d="M86.38,61.15c.59,0,.88.52.88,1.57v.36l0,1.47c0,.46,0,.91,0,1.36l.3,4.75c0,.35-.34.52-1,.52h-.29a.32.32,0,0,1-.32-.19.7.7,0,0,1,0-.46,1,1,0,0,0,0-.61,3.1,3.1,0,0,1-2.44,1q-2.83,0-2.83-4.57a6.69,6.69,0,0,1,.91-3.85,3,3,0,0,1,2.62-1.3,4.75,4.75,0,0,1,1.6.29A.82.82,0,0,1,86.38,61.15ZM84.3,63.06a2.06,2.06,0,0,0-1.7.69A4.14,4.14,0,0,0,82,66.29c0,2.07.54,3.11,1.61,3.11a1.54,1.54,0,0,0,.93-.4,2.2,2.2,0,0,0,.71-.9,7.91,7.91,0,0,0,.38-2.48,4.46,4.46,0,0,0-.31-2A1.09,1.09,0,0,0,84.3,63.06Z"/><path class="cls-2" d="M89.83,61.84a2.88,2.88,0,0,1,2-.74,5.54,5.54,0,0,1,2.13.42c.69.28,1,.65,1,1.12a.7.7,0,0,1-.26.56.81.81,0,0,1-.45.21h-.31a4.18,4.18,0,0,1-.8-.39,2.67,2.67,0,0,0-1.27-.37,1.62,1.62,0,0,0-1,.3,1,1,0,0,0-.41.89,1.09,1.09,0,0,0,.47.93,4.64,4.64,0,0,0,1.65.57,4.81,4.81,0,0,1,1.82.69A1.86,1.86,0,0,1,95,67.65a3,3,0,0,1-.87,2.47,3.23,3.23,0,0,1-2.12.73,5.51,5.51,0,0,1-2.11-.36,1.17,1.17,0,0,1-.87-1.07c0-.55.26-.82.78-.82a3.27,3.27,0,0,1,.88.29,3.3,3.3,0,0,0,1.35.3,1.21,1.21,0,0,0,1-.45,1.63,1.63,0,0,0,.35-1,.89.89,0,0,0-.46-.85,4.3,4.3,0,0,0-1.4-.43,7.68,7.68,0,0,1-1.38-.36A2.17,2.17,0,0,1,89,63.81,2.49,2.49,0,0,1,89.83,61.84Z"/><path class="cls-2" d="M103.55,67.88l0,2.17a.94.94,0,0,1-.33.69,1,1,0,0,1-.65.31c-.31,0-.5-.25-.58-.75,0-.11-.07-1.14-.16-3.08a26.11,26.11,0,0,0-.54-4.57,7.26,7.26,0,0,1-.18-.94c0-.46.26-.69.8-.69a.63.63,0,0,1,.54.27,1.33,1.33,0,0,1,.25.56c0,.19.06.44.09.76s0,.53.06.61a3.17,3.17,0,0,1,1.26-1.57,3.43,3.43,0,0,1,1.85-.53c1.09,0,1.64.29,1.64.88a.93.93,0,0,1-.29.71,1,1,0,0,1-.67.26,2.62,2.62,0,0,0-2.41,1.13A7.65,7.65,0,0,0,103.55,67.88Z"/><path class="cls-2" d="M111.57,61.22a3.52,3.52,0,0,1,2,.66,1.88,1.88,0,0,1,1,1.6,2.8,2.8,0,0,1-.78,1.85,3.25,3.25,0,0,1-2.08,1.08,11.7,11.7,0,0,1-1.69.09,3.81,3.81,0,0,0,.87,2.35.68.68,0,0,0,.54.23,2.87,2.87,0,0,0,2.08-.83c.56-.55,1-.83,1.2-.83s.27.1.48.31a.86.86,0,0,1,.32.59c0,.37-.42.89-1.26,1.58a4.94,4.94,0,0,1-1.35.81,4,4,0,0,1-1.47.32c-1.17,0-2-.78-2.57-2.35a9.32,9.32,0,0,1-.52-3.19,5.59,5.59,0,0,1,.78-3A2.69,2.69,0,0,1,111.57,61.22Zm.1,1.45a1.56,1.56,0,0,0-1.31.91A4.61,4.61,0,0,0,110,65c1.87,0,2.81-.49,2.81-1.45C112.79,63,112.41,62.67,111.67,62.67Z"/><path class="cls-2" d="M116.6,57.35a2.2,2.2,0,0,1,.24-1,.74.74,0,0,1,.61-.24c.58,0,.87.24.87.73s0,1.37-.09,3-.09,3-.09,4.29a24.88,24.88,0,0,0,.14,3c.16,1.35.39,2,.68,2s.51-.22.66-.65a1.17,1.17,0,0,1,.32-.45.77.77,0,0,1,.56-.2c.47,0,.7.41.7,1.24a1.89,1.89,0,0,1-.69,1.33,2,2,0,0,1-1.37.66,2.15,2.15,0,0,1-1.09-.24,1.65,1.65,0,0,1-.66-.72,6.6,6.6,0,0,1-.4-.94,5,5,0,0,1-.21-1.1c-.08-.7-.14-1.82-.18-3.37s0-3,0-4.43S116.57,57.87,116.6,57.35Z"/><path class="cls-2" d="M127.57,61.14c.59,0,.88.52.89,1.57v.36l0,1.47c0,.46,0,.92,0,1.36l.3,4.75c0,.35-.34.53-1,.53h-.3a.34.34,0,0,1-.32-.19.73.73,0,0,1,0-.47,1,1,0,0,0-.05-.6,3.13,3.13,0,0,1-2.44,1c-1.88,0-2.83-1.53-2.83-4.58a6.77,6.77,0,0,1,.91-3.85,3,3,0,0,1,2.62-1.3,4.53,4.53,0,0,1,1.6.3A.83.83,0,0,1,127.57,61.14Zm-2.08,1.91a2.06,2.06,0,0,0-1.7.69,4.15,4.15,0,0,0-.56,2.54c0,2.08.53,3.11,1.6,3.11a1.54,1.54,0,0,0,.93-.4,2.08,2.08,0,0,0,.71-.9,7.59,7.59,0,0,0,.38-2.48,4.46,4.46,0,0,0-.31-2A1.09,1.09,0,0,0,125.49,63.05Z"/><path class="cls-2" d="M130.27,63.47a4.79,4.79,0,0,1,3.95-2.31,4.55,4.55,0,0,1,1.68.26q.63.27.63.69a1.82,1.82,0,0,1-.23.86.68.68,0,0,1-.61.43,3.38,3.38,0,0,1-.77-.24,3.12,3.12,0,0,0-.82-.24,2.62,2.62,0,0,0-2,.89,3.37,3.37,0,0,0-.82,2.37,4.21,4.21,0,0,0,.45,2.19,1.69,1.69,0,0,0,1.55.73,4.16,4.16,0,0,0,1.52-.54,4.72,4.72,0,0,1,1.33-.54.57.57,0,0,1,.42.17.57.57,0,0,1,.16.42,1.5,1.5,0,0,1-.61,1.06,5.22,5.22,0,0,1-1.51.93A4.43,4.43,0,0,1,133,71a2.9,2.9,0,0,1-2.51-1.32,6.24,6.24,0,0,1-.91-3.61A4.73,4.73,0,0,1,130.27,63.47Z"/><path class="cls-2" d="M138.93,57.67a.91.91,0,0,1,.68.36,1.07,1.07,0,0,1,.32.74,1.19,1.19,0,0,1-.35.79,1,1,0,0,1-.73.4.92.92,0,0,1-.69-.34,1.2,1.2,0,0,1-.31-.86,1,1,0,0,1,1-1.09Zm.85,11,0,1.47a.86.86,0,0,1-.3.67,1,1,0,0,1-.65.26c-.33,0-.5-.18-.52-.53q-.26-6.69-.26-7.41c0-.47,0-1.06.06-1.74a.4.4,0,0,1,.46-.38q1.07,0,1.2.9a6.15,6.15,0,0,1,.06.74L139.77,64Z"/><path class="cls-2" d="M145.64,61.16A2.75,2.75,0,0,1,148,62.6a6.32,6.32,0,0,1,.93,3.48,6.1,6.1,0,0,1-.95,3.45,2.94,2.94,0,0,1-5.06,0,5.76,5.76,0,0,1-1-3.24,6.68,6.68,0,0,1,.88-3.66A3.12,3.12,0,0,1,145.64,61.16Zm-.24,1.72a1.59,1.59,0,0,0-1.38.92,3.83,3.83,0,0,0-.54,2,4.16,4.16,0,0,0,.6,2.44,1.7,1.7,0,0,0,1.37.84,1.65,1.65,0,0,0,1.74-1.24,5.54,5.54,0,0,0,.16-1.47C147.35,64,146.7,62.88,145.4,62.88Z"/><path class="cls-2" d="M150.94,70.29l-.23-8.53a.89.89,0,0,1,.26-.65.77.77,0,0,1,.52-.25.67.67,0,0,1,.75.57,9,9,0,0,1,.08,1.17,3.24,3.24,0,0,1,2.7-1.49q2.49,0,2.49,5.94V68.7a7.69,7.69,0,0,1-.12,1.61.78.78,0,0,1-.86.63c-.32,0-.49-.22-.49-.67l0-1.18a24.11,24.11,0,0,0-.15-3.33,14.08,14.08,0,0,0-.29-1.41c-.22-.76-.59-1.14-1.1-1.14a1.44,1.44,0,0,0-1.4.76,4.58,4.58,0,0,0-.52,1.93c-.1,1.3-.14,2.68-.14,4.14a.83.83,0,0,1-.3.67,1.07,1.07,0,0,1-.72.25C151.1,71,150.94,70.74,150.94,70.29Z"/><path class="cls-2" d="M162.11,61.22a3.45,3.45,0,0,1,2,.65,1.9,1.9,0,0,1,1,1.6,2.78,2.78,0,0,1-.78,1.85,3.25,3.25,0,0,1-2.09,1.08,11.44,11.44,0,0,1-1.68.09,3.87,3.87,0,0,0,.86,2.35.71.71,0,0,0,.54.23,2.87,2.87,0,0,0,2.09-.83c.56-.55,1-.83,1.2-.83s.27.1.48.31a.9.9,0,0,1,.32.59c0,.37-.42.89-1.26,1.58a4.94,4.94,0,0,1-1.35.81A4,4,0,0,1,162,71c-1.17,0-2-.78-2.57-2.35a9.28,9.28,0,0,1-.52-3.19,5.59,5.59,0,0,1,.78-3A2.68,2.68,0,0,1,162.11,61.22Zm.1,1.44a1.56,1.56,0,0,0-1.3.91,4.61,4.61,0,0,0-.38,1.43c1.87,0,2.81-.49,2.81-1.45C163.34,63,163,62.66,162.21,62.66Z"/><path class="cls-2" d="M168.38,61.82a2.91,2.91,0,0,1,2-.73,5.54,5.54,0,0,1,2.13.42q1,.42,1,1.11a.68.68,0,0,1-.26.57.75.75,0,0,1-.45.21h-.3a5,5,0,0,1-.8-.39,2.69,2.69,0,0,0-1.27-.38,1.56,1.56,0,0,0-1,.31,1,1,0,0,0-.41.89,1,1,0,0,0,.47.92,4.42,4.42,0,0,0,1.65.58,4.93,4.93,0,0,1,1.81.68,1.9,1.9,0,0,1,.64,1.64,3.07,3.07,0,0,1-.88,2.47,3.19,3.19,0,0,1-2.11.72,5.71,5.71,0,0,1-2.11-.35,1.18,1.18,0,0,1-.88-1.08.72.72,0,0,1,.79-.82,3.18,3.18,0,0,1,.88.3,3.29,3.29,0,0,0,1.35.29,1.21,1.21,0,0,0,1-.45,1.61,1.61,0,0,0,.35-1,.9.9,0,0,0-.46-.85,4.65,4.65,0,0,0-1.4-.43,6.28,6.28,0,0,1-1.38-.36,2.14,2.14,0,0,1-1.21-2.24A2.5,2.5,0,0,1,168.38,61.82Z"/><path class="cls-2" d="M176.42,68.75a.72.72,0,0,1,.72.59,7,7,0,0,1-.42,2.5,1.76,1.76,0,0,1-.41.67.8.8,0,0,1-.57.27c-.44,0-.66-.24-.66-.73a1.56,1.56,0,0,1,.06-.44,3.39,3.39,0,0,0,.62-2.21C175.84,69,176.06,68.75,176.42,68.75Z"/><path class="cls-2" d="M189.32,70.07a2.25,2.25,0,0,1-1.82.88,2.74,2.74,0,0,1-1.9-.71,5,5,0,0,1-1.69-4.18,5.22,5.22,0,0,1,1.16-3.54,3.66,3.66,0,0,1,2.87-1.33,2.36,2.36,0,0,1,2.32,1.22,7.44,7.44,0,0,1,.54,3.23l0,1.72c0,.82,0,1.94.12,3.37S191,73.25,191,74a3.63,3.63,0,0,1-.85,2.65,3.59,3.59,0,0,1-2.6.86,5.36,5.36,0,0,1-2.12-.47c-.72-.3-1.08-.66-1.08-1.07a.88.88,0,0,1,.23-.67.74.74,0,0,1,.53-.23,4.69,4.69,0,0,1,1.35.46A4.36,4.36,0,0,0,188,76c1,0,1.44-.82,1.44-2.47S189.38,70.7,189.32,70.07Zm0-4.44a3.89,3.89,0,0,0-.43-2.14,1.54,1.54,0,0,0-1.35-.62,1.67,1.67,0,0,0-1.48.88,4.07,4.07,0,0,0-.56,2.24,3.78,3.78,0,0,0,.53,2.15,1.81,1.81,0,0,0,1.63.8,1.35,1.35,0,0,0,1.42-1A8.5,8.5,0,0,0,189.3,65.63Z"/><path class="cls-2" d="M195.37,61.21a3.62,3.62,0,0,1,2,.65,1.9,1.9,0,0,1,1,1.61,2.78,2.78,0,0,1-.78,1.84,3.31,3.31,0,0,1-2.09,1.09,13.48,13.48,0,0,1-1.68.08,3.81,3.81,0,0,0,.86,2.35.68.68,0,0,0,.54.23,2.83,2.83,0,0,0,2.09-.83c.56-.55,1-.83,1.2-.83s.27.11.48.32a.88.88,0,0,1,.32.59c0,.36-.42.89-1.26,1.57a5.26,5.26,0,0,1-1.35.81,3.87,3.87,0,0,1-1.48.33c-1.16,0-2-.79-2.56-2.36a9.28,9.28,0,0,1-.52-3.19,5.59,5.59,0,0,1,.78-3A2.68,2.68,0,0,1,195.37,61.21Zm.1,1.45a1.54,1.54,0,0,0-1.3.9,4.7,4.7,0,0,0-.38,1.43c1.87,0,2.8-.48,2.8-1.45C196.59,63,196.22,62.66,195.47,62.66Z"/><path class="cls-2" d="M201.64,61.82a2.88,2.88,0,0,1,2-.74,5.54,5.54,0,0,1,2.13.42q1,.42,1,1.11a.68.68,0,0,1-.26.57.75.75,0,0,1-.45.21h-.3a5,5,0,0,1-.8-.39,2.73,2.73,0,0,0-1.27-.38,1.67,1.67,0,0,0-1,.31,1,1,0,0,0-.41.89,1.09,1.09,0,0,0,.48.93,4.64,4.64,0,0,0,1.65.57,4.93,4.93,0,0,1,1.81.68,1.88,1.88,0,0,1,.63,1.64A3.06,3.06,0,0,1,206,70.1a3.2,3.2,0,0,1-2.11.73,5.59,5.59,0,0,1-2.12-.36,1.17,1.17,0,0,1-.87-1.07c0-.55.26-.82.78-.82a3.3,3.3,0,0,1,.89.29,3.3,3.3,0,0,0,1.35.3,1.19,1.19,0,0,0,1-.46,1.64,1.64,0,0,0,.35-1,.91.91,0,0,0-.46-.86,5.07,5.07,0,0,0-1.4-.43A7.39,7.39,0,0,1,202,66a2.17,2.17,0,0,1-1.2-2.25A2.49,2.49,0,0,1,201.64,61.82Z"/><path class="cls-2" d="M208.67,61.12l1,0a1.4,1.4,0,0,0,.38,0v-4.3a.79.79,0,0,1,.34-.61A1,1,0,0,1,211,56a.58.58,0,0,1,.45.18.85.85,0,0,1,.15.59c0,.27,0,1.72,0,4.37l2.34-.08c.4,0,.61.24.61.73a1,1,0,0,1-.31.82,1.09,1.09,0,0,1-.67.29q-.35,0-.69,0l-1.22,0c0,.58.06,1.71.17,3.41s.21,2.79.27,3.28a3.06,3.06,0,0,1,0,1,.42.42,0,0,1-.22.3,1.53,1.53,0,0,1-.7.13c-.29,0-.47-.17-.52-.5a68.1,68.1,0,0,1-.54-7.56c-.12,0-.58,0-1.38,0s-1.21-.25-1.21-.74C207.55,61.47,207.93,61.12,208.67,61.12Z"/><path class="cls-2" d="M216.39,57.66a.9.9,0,0,1,.68.35,1.14,1.14,0,0,1,.32.75,1.24,1.24,0,0,1-.35.79,1,1,0,0,1-.73.4.92.92,0,0,1-.69-.34,1.2,1.2,0,0,1-.31-.86,1,1,0,0,1,1-1.09Zm.84,11,0,1.47a.83.83,0,0,1-.3.66.93.93,0,0,1-.64.26.47.47,0,0,1-.52-.52c-.18-4.47-.26-6.94-.26-7.41s0-1.06.06-1.75c0-.25.18-.37.46-.37.71,0,1.11.3,1.2.9a6,6,0,0,1,.06.73L217.23,64Z"/><path class="cls-2" d="M223.1,61.14a2.74,2.74,0,0,1,2.37,1.45,6.21,6.21,0,0,1,.94,3.47,6.11,6.11,0,0,1-.95,3.46,2.94,2.94,0,0,1-5.06,0,5.88,5.88,0,0,1-1-3.25,6.64,6.64,0,0,1,.89-3.65A3.08,3.08,0,0,1,223.1,61.14Zm-.24,1.72a1.58,1.58,0,0,0-1.38.93,3.77,3.77,0,0,0-.54,1.95,4.19,4.19,0,0,0,.6,2.44,1.68,1.68,0,0,0,1.36.84,1.64,1.64,0,0,0,1.74-1.24,5.64,5.64,0,0,0,.16-1.47C224.8,64,224.16,62.86,222.86,62.86ZM223,57a.49.49,0,0,1,.51-.35.79.79,0,0,1,.62.25.72.72,0,0,1,.23.41.68.68,0,0,1,0,.26,5.14,5.14,0,0,1-1.07,1.79c-.5.56-.88.84-1.15.84a.78.78,0,0,1-.6-.21.65.65,0,0,1,.12-1A4.41,4.41,0,0,0,223,57Z"/><path class="cls-2" d="M228.39,70.27l-.22-8.52a.87.87,0,0,1,.26-.65.75.75,0,0,1,.52-.25.65.65,0,0,1,.74.56,7.54,7.54,0,0,1,.08,1.18,3.22,3.22,0,0,1,2.71-1.49Q235,61.1,235,67v1.65a7.58,7.58,0,0,1-.12,1.6.77.77,0,0,1-.86.63c-.32,0-.48-.22-.48-.67l0-1.17a23.91,23.91,0,0,0-.15-3.33c-.1-.6-.2-1.07-.29-1.42-.23-.76-.6-1.13-1.1-1.13a1.47,1.47,0,0,0-1.41.75,5,5,0,0,0-.52,1.94c-.09,1.3-.14,2.68-.14,4.13a.82.82,0,0,1-.3.67,1.08,1.08,0,0,1-.72.26C228.56,71,228.39,70.72,228.39,70.27Z"/><path class="cls-2" d="M247.68,61.22a.79.79,0,0,1,.51.19.52.52,0,0,1,.26.42,63.48,63.48,0,0,1-1.71,6.59q-1.69,6-2.52,8.4c-.12.38-.31.57-.56.57a.72.72,0,0,1-.6-.28,1.32,1.32,0,0,1-.22-.83,12,12,0,0,1,.67-2.62c.45-1.38.72-2.25.81-2.63q-.49-.89-3.39-8.82a.7.7,0,0,1,0-.27.79.79,0,0,1,.24-.45.84.84,0,0,1,.66-.27.78.78,0,0,1,.68.44c.19.51.5,1.38.93,2.64s.75,2.16,1,2.72.46,1.14.67,1.74c.19-.66.51-1.94,1-3.83s.72-3,.78-3.25S247.15,61.22,247.68,61.22Z"/><path class="cls-2" d="M259.16,61.09l0-4.05q0-1.14.69-1.14a.69.69,0,0,1,.78.63c0,.19.06,1.29.1,3.3s.1,3.91.19,5.67.13,3.41.13,4.94q0,.63-.9.63c-.4,0-.6-.3-.6-.89a3.11,3.11,0,0,1-2,.72,2.94,2.94,0,0,1-2.43-1.18,4.51,4.51,0,0,1-.93-2.89,7.79,7.79,0,0,1,.67-3.23,4.24,4.24,0,0,1,3.79-2.55A3.6,3.6,0,0,1,259.16,61.09Zm.11,2.87a2,2,0,0,0-.35-.69.76.76,0,0,0-.43-.3,2.79,2.79,0,0,0-.55,0,1.7,1.7,0,0,0-.78.25,2,2,0,0,0-.78.82,4.75,4.75,0,0,0-.64,2.38,4,4,0,0,0,.47,2,1.47,1.47,0,0,0,1.34.79,1.51,1.51,0,0,0,1.37-.91,4.55,4.55,0,0,0,.5-2.31A8.18,8.18,0,0,0,259.27,64Z"/><path class="cls-2" d="M265.07,61.2a3.52,3.52,0,0,1,2,.65,1.9,1.9,0,0,1,1,1.6,2.78,2.78,0,0,1-.78,1.85,3.25,3.25,0,0,1-2.08,1.08,11.7,11.7,0,0,1-1.69.09,3.87,3.87,0,0,0,.86,2.35.72.72,0,0,0,.55.23,2.87,2.87,0,0,0,2.08-.83c.56-.55,1-.83,1.2-.83s.27.11.48.32a.86.86,0,0,1,.32.58c0,.37-.42.89-1.26,1.58a4.94,4.94,0,0,1-1.35.81,4,4,0,0,1-1.47.32c-1.17,0-2-.78-2.57-2.35a9.28,9.28,0,0,1-.52-3.19,5.59,5.59,0,0,1,.78-3A2.68,2.68,0,0,1,265.07,61.2Zm.1,1.44a1.56,1.56,0,0,0-1.3.91,4.61,4.61,0,0,0-.38,1.43c1.87,0,2.81-.49,2.81-1.45C266.3,62.94,265.92,62.64,265.17,62.64Z"/><path class="cls-2" d="M271.35,61.8a2.87,2.87,0,0,1,1.95-.73,5.54,5.54,0,0,1,2.13.42q1,.42,1,1.11a.68.68,0,0,1-.26.57.75.75,0,0,1-.45.21h-.3a5,5,0,0,1-.8-.39,2.69,2.69,0,0,0-1.27-.38,1.56,1.56,0,0,0-1,.31,1,1,0,0,0-.41.89,1,1,0,0,0,.47.92,4.42,4.42,0,0,0,1.65.58,4.93,4.93,0,0,1,1.81.68,1.88,1.88,0,0,1,.64,1.64,3,3,0,0,1-.88,2.47,3.19,3.19,0,0,1-2.11.72,5.71,5.71,0,0,1-2.11-.35,1.17,1.17,0,0,1-.87-1.08q0-.81.78-.81a3,3,0,0,1,.88.29,3.29,3.29,0,0,0,1.35.29,1.21,1.21,0,0,0,1-.45,1.61,1.61,0,0,0,.35-1,.9.9,0,0,0-.46-.85,4.65,4.65,0,0,0-1.4-.43,6.28,6.28,0,0,1-1.38-.36,2.14,2.14,0,0,1-1.21-2.24A2.47,2.47,0,0,1,271.35,61.8Z"/><path class="cls-2" d="M283.47,61.11c.58,0,.88.52.88,1.57V63l0,1.47c0,.46,0,.92,0,1.36l.3,4.75c0,.35-.34.53-1,.53h-.29A.33.33,0,0,1,283,71a.65.65,0,0,1,0-.46,1.09,1.09,0,0,0-.05-.61,3.16,3.16,0,0,1-2.45,1q-2.82,0-2.82-4.58a6.64,6.64,0,0,1,.91-3.84,3,3,0,0,1,2.61-1.31,4.49,4.49,0,0,1,1.6.3A.83.83,0,0,1,283.47,61.11ZM281.38,63a2.06,2.06,0,0,0-1.7.69,4.22,4.22,0,0,0-.56,2.54c0,2.08.53,3.11,1.6,3.11a1.54,1.54,0,0,0,.93-.4,2.18,2.18,0,0,0,.72-.9,7.86,7.86,0,0,0,.38-2.48,4.47,4.47,0,0,0-.32-1.95A1.07,1.07,0,0,0,281.38,63Z"/><path class="cls-2" d="M288.32,67.85l0,2.16a.94.94,0,0,1-.33.69,1,1,0,0,1-.66.32c-.3,0-.5-.25-.58-.76,0-.11-.06-1.13-.16-3.07a25.18,25.18,0,0,0-.54-4.57,7.26,7.26,0,0,1-.18-.95c0-.46.27-.69.8-.69a.63.63,0,0,1,.54.27,1.26,1.26,0,0,1,.25.56,5.65,5.65,0,0,1,.09.77c0,.32.05.52.06.61a3.16,3.16,0,0,1,1.27-1.58,3.39,3.39,0,0,1,1.84-.52c1.09,0,1.64.29,1.64.88a.9.9,0,0,1-.29.7.94.94,0,0,1-.67.26,2.58,2.58,0,0,0-2.4,1.14A7.49,7.49,0,0,0,288.32,67.85Z"/><path class="cls-2" d="M296,67.85l0,2.16a.94.94,0,0,1-.33.69,1,1,0,0,1-.65.32c-.31,0-.5-.25-.58-.76,0-.11-.07-1.14-.16-3.07a25.83,25.83,0,0,0-.55-4.57,7.26,7.26,0,0,1-.18-.95q0-.69.81-.69a.65.65,0,0,1,.54.27,1.47,1.47,0,0,1,.25.56c0,.19.06.44.09.77a4.63,4.63,0,0,0,.06.6,3.21,3.21,0,0,1,1.26-1.57,3.4,3.4,0,0,1,1.84-.53c1.1,0,1.65.3,1.65.89a.89.89,0,0,1-.3.7,1,1,0,0,1-.67.26,2.6,2.6,0,0,0-2.4,1.14A7.49,7.49,0,0,0,296,67.85Z"/><path class="cls-2" d="M304.7,61.12a2.78,2.78,0,0,1,2.38,1.45,6.32,6.32,0,0,1,.93,3.48,6.1,6.1,0,0,1-.95,3.45,2.94,2.94,0,0,1-5.06,0,5.76,5.76,0,0,1-1-3.24,6.65,6.65,0,0,1,.88-3.66A3.14,3.14,0,0,1,304.7,61.12Zm-.24,1.73a1.59,1.59,0,0,0-1.38.92,3.83,3.83,0,0,0-.54,1.95,4.16,4.16,0,0,0,.6,2.44,1.7,1.7,0,0,0,1.36.84,1.65,1.65,0,0,0,1.75-1.24,6,6,0,0,0,.16-1.47C306.41,64,305.76,62.85,304.46,62.85Z"/><path class="cls-2" d="M316.51,67.78c.46,0,.7.41.7,1.24a1.87,1.87,0,0,1-.69,1.33A2.16,2.16,0,0,1,315,71a1.9,1.9,0,0,1-1.8-1.3,2.4,2.4,0,0,1-.83.92,2.09,2.09,0,0,1-1.14.39,2,2,0,0,1-1-.25,1.78,1.78,0,0,1-.66-.72,6.79,6.79,0,0,1-.4-.94A6.18,6.18,0,0,1,309,68c-.07-.7-.12-1.82-.15-3.37s-.05-3-.05-4.43,0-2.37.05-2.9a2,2,0,0,1,.24-1,.71.71,0,0,1,.59-.24c.59,0,.88.25.88.74s0,1.36-.09,3-.09,3-.09,4.28a27.28,27.28,0,0,0,.14,3c.17,1.34.39,2,.69,2s.52-.21.68-.65a.94.94,0,0,1,.3-.45.8.8,0,0,1,.56-.2h0q-.18-1.84-.18-5.76c0-2.61,0-4.18.05-4.71a2,2,0,0,1,.24-1,.69.69,0,0,1,.59-.24c.59,0,.88.25.88.74s0,1.36-.09,3-.09,3-.09,4.28a27.28,27.28,0,0,0,.14,3c.16,1.34.39,2,.68,2s.52-.21.68-.65a1.11,1.11,0,0,1,.3-.45A.84.84,0,0,1,316.51,67.78Z"/><path class="cls-2" d="M321.41,61.12a2.76,2.76,0,0,1,2.38,1.45,6.3,6.3,0,0,1,.93,3.48,6.1,6.1,0,0,1-1,3.45,2.94,2.94,0,0,1-5.06,0,5.76,5.76,0,0,1-1-3.24,6.65,6.65,0,0,1,.88-3.66A3.09,3.09,0,0,1,321.41,61.12Zm-.24,1.72a1.58,1.58,0,0,0-1.38.93,3.8,3.8,0,0,0-.54,1.95,4.16,4.16,0,0,0,.6,2.44,1.7,1.7,0,0,0,1.36.84A1.66,1.66,0,0,0,323,67.76a6,6,0,0,0,.16-1.47Q323.12,62.84,321.17,62.84Z"/><path class="cls-2" d="M70.57,86.33l0-4.06c0-.75.23-1.13.69-1.13a.67.67,0,0,1,.77.63c0,.18.06,1.28.1,3.3s.1,3.9.19,5.67.13,3.41.13,4.93q0,.63-.9.63c-.4,0-.6-.29-.6-.88a3.06,3.06,0,0,1-2,.72A3,3,0,0,1,66.45,95a4.52,4.52,0,0,1-.93-2.9,7.74,7.74,0,0,1,.67-3.22A4.19,4.19,0,0,1,70,86.29,3.69,3.69,0,0,1,70.57,86.33Zm.11,2.86a2.21,2.21,0,0,0-.35-.69.81.81,0,0,0-.43-.29,2.29,2.29,0,0,0-.55,0,1.63,1.63,0,0,0-.78.25,2.09,2.09,0,0,0-.79.82,4.83,4.83,0,0,0-.64,2.38,4,4,0,0,0,.47,2,1.52,1.52,0,0,0,2.72-.12,4.76,4.76,0,0,0,.5-2.31A8.34,8.34,0,0,0,70.68,89.19Z"/><path class="cls-2" d="M76.48,86.43a3.56,3.56,0,0,1,2,.65,1.91,1.91,0,0,1,1,1.61,2.8,2.8,0,0,1-.78,1.85,3.32,3.32,0,0,1-2.08,1.08,13.6,13.6,0,0,1-1.68.08,3.73,3.73,0,0,0,.86,2.35.66.66,0,0,0,.54.24,2.85,2.85,0,0,0,2.08-.83c.56-.56,1-.83,1.21-.83.1,0,.26.1.48.31a.9.9,0,0,1,.32.59c0,.36-.42.89-1.26,1.57a4.67,4.67,0,0,1-1.36.81,3.82,3.82,0,0,1-1.47.33c-1.16,0-2-.78-2.56-2.35a9.32,9.32,0,0,1-.53-3.19,5.6,5.6,0,0,1,.78-3A2.71,2.71,0,0,1,76.48,86.43Zm.1,1.45a1.54,1.54,0,0,0-1.3.9,4.42,4.42,0,0,0-.38,1.43c1.87,0,2.8-.48,2.8-1.45C77.7,88.17,77.33,87.88,76.58,87.88Z"/><path class="cls-2" d="M89.34,96.13a2,2,0,0,1-1.26-.48l-.26-.23v6.3a1.52,1.52,0,0,1-.42.7.91.91,0,0,1-.64.28c-.35,0-.52-.24-.52-.73V87.33a2,2,0,0,1,.29-.77.61.61,0,0,1,.54-.24.54.54,0,0,1,.48.18,4.47,4.47,0,0,1,.27,1,1.28,1.28,0,0,1,.64-.78,2.73,2.73,0,0,1,1.5-.35,3,3,0,0,1,2.91,1.55,7.47,7.47,0,0,1,.86,3.66,4.64,4.64,0,0,1-1.17,3.34A4.23,4.23,0,0,1,89.34,96.13Zm-1.52-6.3v3.91a1.34,1.34,0,0,1,.28.21,1.83,1.83,0,0,0,1.26.54c1.85,0,2.77-1,2.77-3,0-1.69-.42-2.76-1.25-3.21A2.5,2.5,0,0,0,89.6,88a2,2,0,0,0-1.26.69A1.69,1.69,0,0,0,87.82,89.83Z"/><path class="cls-2" d="M97.34,93.08l0,2.17a.94.94,0,0,1-.33.69,1,1,0,0,1-.65.32c-.31,0-.51-.26-.59-.76,0-.11-.06-1.14-.16-3.08a24.93,24.93,0,0,0-.54-4.56,7.59,7.59,0,0,1-.18-1c0-.46.27-.69.8-.69a.63.63,0,0,1,.54.27,1.22,1.22,0,0,1,.25.56,5.48,5.48,0,0,1,.09.76c0,.33,0,.53.06.61a3.18,3.18,0,0,1,1.27-1.57,3.4,3.4,0,0,1,1.84-.53c1.09,0,1.64.3,1.64.88a.89.89,0,0,1-.29.71,1,1,0,0,1-.67.26A2.6,2.6,0,0,0,98,89.3,7.54,7.54,0,0,0,97.34,93.08Z"/><path class="cls-2" d="M106,86.36a2.76,2.76,0,0,1,2.37,1.45,6.25,6.25,0,0,1,.94,3.48,6.1,6.1,0,0,1-.95,3.45,2.94,2.94,0,0,1-5.06,0,5.84,5.84,0,0,1-1-3.24,6.65,6.65,0,0,1,.89-3.66A3.1,3.1,0,0,1,106,86.36Zm-.24,1.73a1.57,1.57,0,0,0-1.38.92,3.83,3.83,0,0,0-.54,1.95,4.16,4.16,0,0,0,.6,2.44,1.68,1.68,0,0,0,1.36.84A1.64,1.64,0,0,0,107.55,93a5.54,5.54,0,0,0,.16-1.47C107.71,89.23,107.07,88.08,105.77,88.09Z"/><path class="cls-2" d="M116.93,86.44a.9.9,0,0,1,.51.19.53.53,0,0,1,.25.42,63.88,63.88,0,0,1-1.7,6.6q-1.71,6-2.52,8.4c-.12.38-.31.57-.56.57a.74.74,0,0,1-.61-.29,1.37,1.37,0,0,1-.22-.83,12.76,12.76,0,0,1,.67-2.61c.45-1.38.72-2.26.82-2.64-.34-.59-1.47-3.52-3.39-8.82a.7.7,0,0,1,0-.27.77.77,0,0,1,.24-.44.84.84,0,0,1,.66-.27.76.76,0,0,1,.68.44c.19.5.49,1.38.92,2.63s.76,2.16,1,2.72.46,1.14.68,1.74c.18-.65.5-1.93,1-3.83s.71-3,.78-3.24S116.4,86.44,116.93,86.44Z"/><path class="cls-2" d="M121.9,86.42a3.56,3.56,0,0,1,2,.65,1.91,1.91,0,0,1,1,1.61,2.8,2.8,0,0,1-.78,1.85A3.32,3.32,0,0,1,122,91.61a11.85,11.85,0,0,1-1.68.08,3.79,3.79,0,0,0,.86,2.36.68.68,0,0,0,.54.23,2.85,2.85,0,0,0,2.08-.83c.56-.56,1-.83,1.2-.83s.27.1.49.31a.9.9,0,0,1,.32.59c0,.36-.42.89-1.27,1.58a4.68,4.68,0,0,1-1.35.8,3.86,3.86,0,0,1-1.47.33c-1.16,0-2-.78-2.57-2.35a9.57,9.57,0,0,1-.52-3.19,5.6,5.6,0,0,1,.78-3A2.7,2.7,0,0,1,121.9,86.42Zm.1,1.45a1.53,1.53,0,0,0-1.3.91,4.33,4.33,0,0,0-.38,1.42c1.87,0,2.8-.48,2.8-1.45C123.12,88.17,122.75,87.87,122,87.87Z"/><path class="cls-2" d="M127.42,88.67a4.79,4.79,0,0,1,4-2.31,4.55,4.55,0,0,1,1.68.26q.63.27.63.69a1.82,1.82,0,0,1-.23.86.68.68,0,0,1-.61.43,3.38,3.38,0,0,1-.77-.24,3.12,3.12,0,0,0-.82-.24,2.59,2.59,0,0,0-2,.9,3.33,3.33,0,0,0-.82,2.36,4.21,4.21,0,0,0,.45,2.19,1.67,1.67,0,0,0,1.55.73,4.16,4.16,0,0,0,1.52-.54,4.55,4.55,0,0,1,1.33-.53.57.57,0,0,1,.42.16.58.58,0,0,1,.16.42,1.5,1.5,0,0,1-.61,1.06,5.22,5.22,0,0,1-1.51.93,4.46,4.46,0,0,1-1.63.37,2.88,2.88,0,0,1-2.51-1.33,6.24,6.24,0,0,1-.91-3.61A4.73,4.73,0,0,1,127.42,88.67Z"/><path class="cls-2" d="M135.26,86.34l1,0a1.91,1.91,0,0,0,.38,0V82a.85.85,0,0,1,.34-.61,1,1,0,0,1,.6-.25.59.59,0,0,1,.46.19.82.82,0,0,1,.15.59c0,.26,0,1.72,0,4.36l2.34-.08c.4,0,.6.25.6.74a1,1,0,0,1-.31.81,1.1,1.1,0,0,1-.66.3l-.69,0-1.22,0c0,.57.05,1.71.17,3.4s.2,2.79.27,3.29a3,3,0,0,1,0,1,.46.46,0,0,1-.22.31,1.69,1.69,0,0,1-.7.12c-.3,0-.47-.16-.52-.5a69.78,69.78,0,0,1-.55-7.56c-.12,0-.58,0-1.38,0s-1.2-.24-1.2-.73C134.14,86.69,134.51,86.34,135.26,86.34Z"/><path class="cls-2" d="M145.2,86.36a2.75,2.75,0,0,1,2.37,1.44,6.33,6.33,0,0,1,.94,3.48,6,6,0,0,1-1,3.45,2.93,2.93,0,0,1-5.05,0,5.69,5.69,0,0,1-1-3.24,6.7,6.7,0,0,1,.88-3.65A3.11,3.11,0,0,1,145.2,86.36ZM145,88.08a1.59,1.59,0,0,0-1.38.92,3.84,3.84,0,0,0-.54,2,4.15,4.15,0,0,0,.6,2.43,1.68,1.68,0,0,0,1.36.84A1.64,1.64,0,0,0,146.74,93a5.54,5.54,0,0,0,.16-1.47C146.9,89.23,146.25,88.08,145,88.08Z"/><path class="cls-2" d="M150.91,87a2.88,2.88,0,0,1,2-.74,5.63,5.63,0,0,1,2.14.42q1,.42,1,1.11a.7.7,0,0,1-.26.57.81.81,0,0,1-.45.21H155a4.62,4.62,0,0,1-.8-.39,2.76,2.76,0,0,0-1.28-.38,1.64,1.64,0,0,0-1,.31,1,1,0,0,0-.41.89A1.1,1.1,0,0,0,152,90a4.79,4.79,0,0,0,1.65.57,5,5,0,0,1,1.82.68,1.88,1.88,0,0,1,.63,1.64,3.06,3.06,0,0,1-.87,2.47,3.23,3.23,0,0,1-2.12.73,5.54,5.54,0,0,1-2.11-.36,1.17,1.17,0,0,1-.87-1.07c0-.55.26-.82.78-.82a3.27,3.27,0,0,1,.88.29,3.37,3.37,0,0,0,1.35.3,1.22,1.22,0,0,0,1-.46,1.64,1.64,0,0,0,.35-1,.93.93,0,0,0-.46-.86,5,5,0,0,0-1.41-.43,7,7,0,0,1-1.38-.35,2.17,2.17,0,0,1-1.2-2.25A2.48,2.48,0,0,1,150.91,87Z"/><path class="cls-2" d="M168.44,86.43a.9.9,0,0,1,.51.19.53.53,0,0,1,.25.42,63.88,63.88,0,0,1-1.7,6.6q-1.71,6-2.52,8.4c-.12.38-.31.57-.56.57a.74.74,0,0,1-.61-.29,1.37,1.37,0,0,1-.22-.83,12.76,12.76,0,0,1,.67-2.61c.45-1.38.72-2.26.82-2.64q-.51-.87-3.39-8.82a.7.7,0,0,1,0-.27.77.77,0,0,1,.24-.44.84.84,0,0,1,.66-.27.76.76,0,0,1,.68.44c.19.5.49,1.38.92,2.63s.76,2.16,1,2.72.46,1.14.68,1.74c.18-.65.5-1.93,1-3.83s.71-3,.78-3.24S167.91,86.43,168.44,86.43Z"/><path class="cls-2" d="M178,86.41a3.59,3.59,0,0,1,2,.65,1.91,1.91,0,0,1,1,1.61,2.8,2.8,0,0,1-.78,1.85,3.32,3.32,0,0,1-2.08,1.08,12,12,0,0,1-1.69.08,3.84,3.84,0,0,0,.87,2.36.68.68,0,0,0,.54.23,2.85,2.85,0,0,0,2.08-.83c.56-.56,1-.83,1.2-.83s.27.1.48.31a.86.86,0,0,1,.32.59c0,.36-.42.89-1.26,1.57a4.49,4.49,0,0,1-1.35.81,3.86,3.86,0,0,1-1.47.33c-1.16,0-2-.78-2.57-2.35a9.57,9.57,0,0,1-.52-3.19,5.6,5.6,0,0,1,.78-3A2.69,2.69,0,0,1,178,86.41Zm.1,1.45a1.55,1.55,0,0,0-1.31.9,4.7,4.7,0,0,0-.38,1.43c1.87,0,2.81-.48,2.81-1.45C179.24,88.16,178.86,87.86,178.12,87.86Z"/><path class="cls-2" d="M184.25,96.16c-.35,0-.56-.21-.62-.61a53.21,53.21,0,0,0-.48-7.56,1.1,1.1,0,0,1,.29-.76.86.86,0,0,1,.66-.34.6.6,0,0,1,.55.45,2.3,2.3,0,0,1,2-1,2.68,2.68,0,0,1,2.45,1.59,3,3,0,0,1,2.65-1.51,2.68,2.68,0,0,1,2.47,1.38A5.93,5.93,0,0,1,195,90a28.56,28.56,0,0,1,.22,4,5,5,0,0,1-.2,1.57.81.81,0,0,1-.84.55c-.35,0-.52-.23-.52-.69l.05-2.62q0-4.73-2.34-4.73a1.08,1.08,0,0,0-1,.55,3.5,3.5,0,0,0-.4,1.36c-.06.84-.08,1.61-.08,2.29v3a.68.68,0,0,1-.32.56,1.1,1.1,0,0,1-.66.23c-.3,0-.48-.2-.56-.6l.06-4.35c0-1.54-.25-2.5-.75-2.88a1.8,1.8,0,0,0-1.09-.27,1.17,1.17,0,0,0-1.08.57,3.6,3.6,0,0,0-.35,1.82l.12,3.91C185.19,95.55,184.88,96.16,184.25,96.16Z"/><path class="cls-2" d="M199.9,96.11a2,2,0,0,1-1.27-.48l-.26-.23v6.3a1.52,1.52,0,0,1-.42.7.91.91,0,0,1-.64.28c-.34,0-.52-.24-.52-.73V87.31a2.32,2.32,0,0,1,.29-.78.63.63,0,0,1,.54-.23q.38,0,.48.18a4.47,4.47,0,0,1,.27,1,1.31,1.31,0,0,1,.64-.78,2.79,2.79,0,0,1,1.51-.36,3,3,0,0,1,2.9,1.56,7.34,7.34,0,0,1,.86,3.66,4.64,4.64,0,0,1-1.17,3.34A4.22,4.22,0,0,1,199.9,96.11Zm-1.53-6.3v3.91a1.13,1.13,0,0,1,.28.21,1.83,1.83,0,0,0,1.27.54c1.84,0,2.76-1,2.76-3,0-1.69-.41-2.76-1.24-3.21a2.55,2.55,0,0,0-1.28-.3,2,2,0,0,0-1.27.69A1.74,1.74,0,0,0,198.37,89.81Z"/><path class="cls-2" d="M208.85,86.34a2.76,2.76,0,0,1,2.37,1.45,6.25,6.25,0,0,1,.94,3.48,6.1,6.1,0,0,1-.95,3.45,2.94,2.94,0,0,1-5.06,0,5.77,5.77,0,0,1-1-3.24,6.65,6.65,0,0,1,.89-3.66A3.1,3.1,0,0,1,208.85,86.34Zm-.24,1.73a1.57,1.57,0,0,0-1.38.92,3.83,3.83,0,0,0-.54,2,4.16,4.16,0,0,0,.6,2.44,1.68,1.68,0,0,0,1.36.84A1.64,1.64,0,0,0,210.39,93a5.54,5.54,0,0,0,.16-1.47C210.55,89.21,209.91,88.07,208.61,88.07Z"/><path class="cls-2" d="M218.17,86.3l0-4q0-1.14.69-1.14a.68.68,0,0,1,.77.63c0,.18.06,1.28.1,3.3s.1,3.91.19,5.67.13,3.41.13,4.93q0,.63-.9.63c-.4,0-.6-.29-.6-.88a3.1,3.1,0,0,1-2,.72,2.94,2.94,0,0,1-2.44-1.18,4.52,4.52,0,0,1-.93-2.9,7.77,7.77,0,0,1,.67-3.22,4.24,4.24,0,0,1,3.8-2.55A3.69,3.69,0,0,1,218.17,86.3Zm.11,2.87a2.27,2.27,0,0,0-.35-.7.81.81,0,0,0-.43-.29,2.33,2.33,0,0,0-.56-.05,1.7,1.7,0,0,0-.78.25,2.14,2.14,0,0,0-.78.82,4.72,4.72,0,0,0-.64,2.38,4,4,0,0,0,.47,2,1.5,1.5,0,0,0,1.35.79,1.54,1.54,0,0,0,1.37-.91,4.76,4.76,0,0,0,.5-2.31A8.18,8.18,0,0,0,218.28,89.17Z"/><path class="cls-2" d="M224.08,86.4a3.59,3.59,0,0,1,2,.65,1.91,1.91,0,0,1,1,1.61,2.8,2.8,0,0,1-.78,1.85,3.32,3.32,0,0,1-2.08,1.08,11.94,11.94,0,0,1-1.68.08,3.76,3.76,0,0,0,.86,2.36.68.68,0,0,0,.54.23,2.85,2.85,0,0,0,2.08-.83c.56-.56,1-.83,1.2-.83s.27.1.48.31a.87.87,0,0,1,.33.59c0,.37-.43.89-1.27,1.58a4.68,4.68,0,0,1-1.35.8,3.86,3.86,0,0,1-1.47.33c-1.16,0-2-.78-2.57-2.35a9.57,9.57,0,0,1-.52-3.19,5.62,5.62,0,0,1,.78-3A2.69,2.69,0,0,1,224.08,86.4Zm.1,1.45a1.53,1.53,0,0,0-1.3.91,4.26,4.26,0,0,0-.39,1.42c1.87,0,2.81-.48,2.81-1.45C225.3,88.15,224.93,87.85,224.18,87.85Z"/><path class="cls-2" d="M231.75,93.06l0,2.16a1.11,1.11,0,0,1-1,1c-.31,0-.5-.25-.58-.76,0-.11-.07-1.13-.16-3.07a27.12,27.12,0,0,0-.54-4.57,7.6,7.6,0,0,1-.18-.94c0-.47.26-.7.8-.7a.64.64,0,0,1,.54.28,1.29,1.29,0,0,1,.25.55c0,.19.06.45.09.77s.05.52.06.61a3.19,3.19,0,0,1,1.26-1.58,3.42,3.42,0,0,1,1.84-.52c1.1,0,1.65.29,1.65.88a.9.9,0,0,1-.29.7,1,1,0,0,1-.67.26,2.6,2.6,0,0,0-2.41,1.14A7.54,7.54,0,0,0,231.75,93.06Z"/><path class="cls-2" d="M242.47,86.32c.59,0,.88.52.88,1.57v.36l0,1.47c0,.46,0,.92,0,1.36l.3,4.75c0,.35-.34.52-1,.52h-.29a.33.33,0,0,1-.32-.18.67.67,0,0,1,0-.47,1,1,0,0,0-.05-.61,3.1,3.1,0,0,1-2.44,1q-2.83,0-2.83-4.57a6.69,6.69,0,0,1,.91-3.85,3,3,0,0,1,2.62-1.3,4.79,4.79,0,0,1,1.6.29A.82.82,0,0,1,242.47,86.32Zm-2.08,1.91a2.08,2.08,0,0,0-1.71.69,4.22,4.22,0,0,0-.56,2.54c0,2.07.54,3.11,1.61,3.11a1.54,1.54,0,0,0,.93-.4,2.29,2.29,0,0,0,.71-.9,7.86,7.86,0,0,0,.38-2.48,4.62,4.62,0,0,0-.31-2A1.09,1.09,0,0,0,240.39,88.23Z"/><path class="cls-2" d="M245.88,96.14c-.35,0-.56-.2-.62-.61a53.31,53.31,0,0,0-.49-7.56,1.12,1.12,0,0,1,.29-.75.86.86,0,0,1,.66-.34.6.6,0,0,1,.56.44,2.33,2.33,0,0,1,2-1,2.68,2.68,0,0,1,2.44,1.6,3.06,3.06,0,0,1,2.66-1.51,2.69,2.69,0,0,1,2.47,1.38,5.93,5.93,0,0,1,.76,2.27,26.82,26.82,0,0,1,.23,4,4.88,4.88,0,0,1-.2,1.56.81.81,0,0,1-.85.56c-.34,0-.52-.23-.52-.69l.06-2.63q0-4.72-2.34-4.72a1.07,1.07,0,0,0-1,.55,3.45,3.45,0,0,0-.4,1.36c-.06.84-.08,1.6-.08,2.29v3a.68.68,0,0,1-.32.57,1.1,1.1,0,0,1-.66.23c-.3,0-.49-.2-.57-.61l.06-4.34c0-1.54-.24-2.5-.74-2.88a1.8,1.8,0,0,0-1.09-.27,1.18,1.18,0,0,0-1.08.56,3.56,3.56,0,0,0-.35,1.83l.12,3.91C246.82,95.54,246.5,96.14,245.88,96.14Z"/><path class="cls-2" d="M259.68,82.85a.93.93,0,0,1,.68.35,1.14,1.14,0,0,1,.32.75,1.24,1.24,0,0,1-.35.79,1,1,0,0,1-.73.4.9.9,0,0,1-.69-.34,1.2,1.2,0,0,1-.31-.86,1,1,0,0,1,1-1.09Zm.84,11,0,1.47a.83.83,0,0,1-.3.66.94.94,0,0,1-.64.27.48.48,0,0,1-.52-.53c-.17-4.46-.26-6.94-.26-7.41s0-1.06.06-1.75c0-.25.18-.37.46-.37q1.07,0,1.2.9a6,6,0,0,1,.06.73l-.08,1.33Z"/><path class="cls-2" d="M265.73,86.4a3.49,3.49,0,0,1,2,.65,1.91,1.91,0,0,1,1,1.6,2.75,2.75,0,0,1-.79,1.85,3.23,3.23,0,0,1-2.08,1.08,11.44,11.44,0,0,1-1.68.09A3.81,3.81,0,0,0,265,94a.68.68,0,0,0,.54.23,2.85,2.85,0,0,0,2.08-.83c.57-.55,1-.83,1.21-.83s.26.11.48.32a.88.88,0,0,1,.32.58c0,.37-.42.89-1.26,1.58a5.16,5.16,0,0,1-1.36.81,4,4,0,0,1-1.47.32c-1.16,0-2-.78-2.56-2.35a9.28,9.28,0,0,1-.52-3.19,5.5,5.5,0,0,1,.78-3A2.68,2.68,0,0,1,265.73,86.4Zm.1,1.44a1.55,1.55,0,0,0-1.3.91,4.34,4.34,0,0,0-.38,1.43c1.87,0,2.8-.49,2.8-1.45C267,88.14,266.58,87.84,265.83,87.84Z"/><path class="cls-2" d="M271.58,95.47l-.22-8.53a.87.87,0,0,1,.26-.65.75.75,0,0,1,.52-.25.65.65,0,0,1,.74.56,7.54,7.54,0,0,1,.08,1.18,3.25,3.25,0,0,1,2.71-1.49q2.47,0,2.48,5.94v1.65a7.76,7.76,0,0,1-.12,1.61.77.77,0,0,1-.86.63c-.32,0-.48-.23-.48-.68l0-1.17a24,24,0,0,0-.15-3.33c-.1-.59-.2-1.07-.29-1.42-.23-.75-.6-1.13-1.1-1.13a1.47,1.47,0,0,0-1.41.75,5,5,0,0,0-.52,1.94c-.09,1.3-.14,2.68-.14,4.13a.85.85,0,0,1-.3.68,1.12,1.12,0,0,1-.72.25C271.75,96.14,271.58,95.91,271.58,95.47Z"/><path class="cls-2" d="M280.38,86.31l1,0a2.09,2.09,0,0,0,.38,0V82a.8.8,0,0,1,.34-.61,1,1,0,0,1,.6-.25.59.59,0,0,1,.45.19.83.83,0,0,1,.15.59c0,.27,0,1.72,0,4.37l2.34-.09c.41,0,.61.25.61.74a1.06,1.06,0,0,1-.31.82,1.09,1.09,0,0,1-.67.29c-.23,0-.46,0-.69,0l-1.22,0c0,.58.06,1.71.17,3.4s.21,2.79.27,3.29a3.06,3.06,0,0,1,0,1,.46.46,0,0,1-.22.3,1.65,1.65,0,0,1-.7.13c-.29,0-.47-.17-.52-.51a67.71,67.71,0,0,1-.54-7.56c-.12,0-.58,0-1.38,0s-1.21-.24-1.21-.73C279.25,86.66,279.63,86.31,280.38,86.31Z"/><path class="cls-2" d="M290.31,86.33a2.76,2.76,0,0,1,2.38,1.45,6.27,6.27,0,0,1,.93,3.47,6.16,6.16,0,0,1-.95,3.46,2.94,2.94,0,0,1-5.06,0,5.81,5.81,0,0,1-1-3.25,6.64,6.64,0,0,1,.88-3.65A3.09,3.09,0,0,1,290.31,86.33Zm-.24,1.72a1.59,1.59,0,0,0-1.38.92,3.84,3.84,0,0,0-.54,2,4.15,4.15,0,0,0,.6,2.43,1.7,1.7,0,0,0,1.36.84A1.65,1.65,0,0,0,291.86,93a6,6,0,0,0,.16-1.47C292,89.2,291.37,88.05,290.07,88.05Z"/><path class="cls-2" d="M304.24,86.28l0-4c0-.76.23-1.13.69-1.13a.67.67,0,0,1,.77.63c0,.18.06,1.28.1,3.29s.1,3.91.19,5.67.13,3.41.13,4.94q0,.63-.9.63c-.4,0-.6-.3-.6-.88a3.13,3.13,0,0,1-2,.71,3,3,0,0,1-2.44-1.17,4.54,4.54,0,0,1-.93-2.9,7.79,7.79,0,0,1,.67-3.23A4.18,4.18,0,0,1,302,86.64a4.09,4.09,0,0,1,1.71-.4A5.46,5.46,0,0,1,304.24,86.28Zm.11,2.87a2.21,2.21,0,0,0-.35-.69.89.89,0,0,0-.43-.3,3,3,0,0,0-.55,0,1.7,1.7,0,0,0-.79.25,2.14,2.14,0,0,0-.78.82,4.87,4.87,0,0,0-.64,2.39,3.93,3.93,0,0,0,.47,2,1.5,1.5,0,0,0,1.35.79,1.53,1.53,0,0,0,1.37-.9,4.82,4.82,0,0,0,.5-2.31A8.28,8.28,0,0,0,304.35,89.15Z"/><path class="cls-2" d="M310.15,86.39a3.49,3.49,0,0,1,2,.65,1.9,1.9,0,0,1,1,1.6,2.78,2.78,0,0,1-.78,1.85,3.23,3.23,0,0,1-2.08,1.08,11.63,11.63,0,0,1-1.68.09,3.75,3.75,0,0,0,.86,2.35.68.68,0,0,0,.54.23,2.85,2.85,0,0,0,2.08-.83c.56-.55,1-.83,1.2-.83s.27.11.49.32a.88.88,0,0,1,.32.58c0,.37-.42.89-1.27,1.58a4.94,4.94,0,0,1-1.35.81,3.83,3.83,0,0,1-1.47.32c-1.16,0-2-.78-2.57-2.35a9.53,9.53,0,0,1-.52-3.19,5.59,5.59,0,0,1,.78-3A2.7,2.7,0,0,1,310.15,86.39Zm.1,1.45a1.54,1.54,0,0,0-1.3.9,4.42,4.42,0,0,0-.38,1.43c1.87,0,2.8-.49,2.8-1.45C311.37,88.13,311,87.84,310.25,87.84Z"/><path class="cls-2" d="M119.58,107.75a2,2,0,0,1,.24-1,.74.74,0,0,1,.61-.24c.57,0,.86.24.86.73s0,1.37-.09,3-.09,3-.09,4.29a27.08,27.08,0,0,0,.14,3c.16,1.35.39,2,.68,2s.52-.22.67-.65a1.07,1.07,0,0,1,.32-.45.76.76,0,0,1,.56-.2c.46,0,.7.41.7,1.24a1.89,1.89,0,0,1-.69,1.33,2,2,0,0,1-1.37.66,2.19,2.19,0,0,1-1.1-.24,1.78,1.78,0,0,1-.66-.72,6.6,6.6,0,0,1-.4-.94,5,5,0,0,1-.21-1.1c-.08-.7-.14-1.83-.17-3.37s0-3,0-4.43S119.54,108.27,119.58,107.75Z"/><path class="cls-2" d="M130.55,111.54c.59,0,.88.52.88,1.57v.36l0,1.47c0,.46,0,.92,0,1.36l.3,4.75c0,.35-.34.53-1,.53h-.29a.34.34,0,0,1-.32-.19.67.67,0,0,1,0-.47,1,1,0,0,0-.05-.6,3.15,3.15,0,0,1-2.45,1c-1.88,0-2.82-1.52-2.82-4.57a6.69,6.69,0,0,1,.91-3.85,3,3,0,0,1,2.61-1.3,4.8,4.8,0,0,1,1.61.29A.82.82,0,0,1,130.55,111.54Zm-2.09,1.91a2.07,2.07,0,0,0-1.7.69,4.22,4.22,0,0,0-.56,2.54c0,2.08.54,3.11,1.6,3.11a1.55,1.55,0,0,0,.94-.4,2.22,2.22,0,0,0,.71-.9,7.86,7.86,0,0,0,.38-2.48,4.62,4.62,0,0,0-.31-2A1.09,1.09,0,0,0,128.46,113.45Z"/><path class="cls-2" d="M134,112.23a2.92,2.92,0,0,1,2-.74,5.54,5.54,0,0,1,2.13.42c.68.28,1,.65,1,1.12a.66.66,0,0,1-.26.56.75.75,0,0,1-.45.21h-.3a3.58,3.58,0,0,1-.8-.39A2.67,2.67,0,0,0,136,113a1.62,1.62,0,0,0-1,.3,1,1,0,0,0-.41.89,1.07,1.07,0,0,0,.47.93,4.81,4.81,0,0,0,1.65.58,4.76,4.76,0,0,1,1.81.68,1.87,1.87,0,0,1,.63,1.64,3,3,0,0,1-.87,2.46,3.15,3.15,0,0,1-2.11.73,5.51,5.51,0,0,1-2.11-.36c-.59-.24-.88-.59-.88-1.07s.26-.82.79-.82a3.18,3.18,0,0,1,.88.3,3.45,3.45,0,0,0,1.35.29,1.21,1.21,0,0,0,1-.45,1.67,1.67,0,0,0,.35-1,.9.9,0,0,0-.46-.85,4.38,4.38,0,0,0-1.4-.43,6.28,6.28,0,0,1-1.38-.36,2.16,2.16,0,0,1-1.21-2.25A2.49,2.49,0,0,1,134,112.23Z"/><path class="cls-2" d="M140.65,121.64a1.27,1.27,0,0,1,.06-.3c.87-2.14,1.81-4.63,2.84-7.45s2-5.34,2.84-7.52a.9.9,0,0,1,.83-.55.57.57,0,0,1,.4.15.53.53,0,0,1,.16.39,7.07,7.07,0,0,1-.5,1.46c-.34.81-1.14,2.93-2.42,6.35s-2.25,6-2.93,7.59a1,1,0,0,1-.74.49C140.83,122.25,140.65,122,140.65,121.64Z"/><path class="cls-2" d="M149,107.74a2,2,0,0,1,.24-1,.74.74,0,0,1,.61-.24c.57,0,.86.25.86.74s0,1.36-.09,3-.09,3-.09,4.28a27.28,27.28,0,0,0,.14,3q.24,2,.69,2c.29,0,.51-.21.66-.65a1.07,1.07,0,0,1,.32-.45.8.8,0,0,1,.56-.2c.47,0,.7.41.7,1.24a1.87,1.87,0,0,1-.69,1.33,2,2,0,0,1-1.37.67,2.18,2.18,0,0,1-1.1-.25,1.78,1.78,0,0,1-.66-.72,7.24,7.24,0,0,1-.4-.93,5.1,5.1,0,0,1-.21-1.11c-.08-.7-.14-1.82-.17-3.37s0-3,0-4.43S148.92,108.27,149,107.74Z"/><path class="cls-2" d="M157.88,111.55a2.76,2.76,0,0,1,2.37,1.45,6.32,6.32,0,0,1,.93,3.48,6,6,0,0,1-1,3.45,2.9,2.9,0,0,1-2.52,1.43,2.93,2.93,0,0,1-2.54-1.46,5.76,5.76,0,0,1-1-3.24,6.65,6.65,0,0,1,.88-3.66A3.13,3.13,0,0,1,157.88,111.55Zm-.24,1.72a1.6,1.6,0,0,0-1.39.93,3.83,3.83,0,0,0-.54,2,4.16,4.16,0,0,0,.6,2.44,1.71,1.71,0,0,0,1.37.84,1.64,1.64,0,0,0,1.74-1.24,5.54,5.54,0,0,0,.16-1.47C159.58,114.42,158.93,113.27,157.64,113.27Z"/><path class="cls-2" d="M163.59,112.22a2.87,2.87,0,0,1,1.95-.73,5.54,5.54,0,0,1,2.13.42c.68.28,1,.65,1,1.11a.68.68,0,0,1-.27.57.75.75,0,0,1-.45.21h-.3a5,5,0,0,1-.8-.39,2.69,2.69,0,0,0-1.27-.38,1.56,1.56,0,0,0-1,.31,1,1,0,0,0-.41.89,1,1,0,0,0,.47.92,4.42,4.42,0,0,0,1.65.58,4.93,4.93,0,0,1,1.81.68,1.86,1.86,0,0,1,.64,1.64,3.07,3.07,0,0,1-.87,2.47,3.24,3.24,0,0,1-2.12.72,5.71,5.71,0,0,1-2.11-.35,1.17,1.17,0,0,1-.87-1.08q0-.81.78-.81a3,3,0,0,1,.88.29,3.29,3.29,0,0,0,1.35.29,1.21,1.21,0,0,0,1-.45,1.61,1.61,0,0,0,.35-1,.9.9,0,0,0-.46-.85,4.65,4.65,0,0,0-1.4-.43,6.28,6.28,0,0,1-1.38-.36,2.17,2.17,0,0,1-1.21-2.24A2.51,2.51,0,0,1,163.59,112.22Z"/><path class="cls-2" d="M177.61,111.61a3.56,3.56,0,0,1,2,.65,1.9,1.9,0,0,1,1,1.61,2.8,2.8,0,0,1-.78,1.85,3.37,3.37,0,0,1-2.09,1.08,11.76,11.76,0,0,1-1.68.08,3.85,3.85,0,0,0,.86,2.36.68.68,0,0,0,.54.23,2.89,2.89,0,0,0,2.09-.83c.56-.56,1-.83,1.2-.83s.26.1.48.31a.9.9,0,0,1,.32.59c0,.36-.42.89-1.26,1.58a4.88,4.88,0,0,1-1.36.8,3.78,3.78,0,0,1-1.47.33c-1.16,0-2-.78-2.56-2.35a9.32,9.32,0,0,1-.52-3.19,5.6,5.6,0,0,1,.78-3A2.68,2.68,0,0,1,177.61,111.61Zm.1,1.45a1.54,1.54,0,0,0-1.3.9,4.7,4.7,0,0,0-.38,1.43c1.87,0,2.8-.48,2.8-1.45C178.83,113.35,178.46,113.06,177.71,113.06Z"/><path class="cls-2" d="M183.88,112.22a2.88,2.88,0,0,1,2-.74,5.55,5.55,0,0,1,2.14.42c.68.28,1,.66,1,1.12a.68.68,0,0,1-.26.56.75.75,0,0,1-.45.21H188a3.81,3.81,0,0,1-.8-.38,2.61,2.61,0,0,0-1.27-.38,1.67,1.67,0,0,0-1,.3,1.06,1.06,0,0,0-.41.89,1.09,1.09,0,0,0,.47.93,4.75,4.75,0,0,0,1.66.58,4.83,4.83,0,0,1,1.81.68,1.87,1.87,0,0,1,.63,1.64,3,3,0,0,1-.87,2.46,3.15,3.15,0,0,1-2.11.73,5.56,5.56,0,0,1-2.12-.36c-.58-.24-.87-.59-.87-1.07s.26-.82.78-.82a3,3,0,0,1,.88.3,3.54,3.54,0,0,0,1.36.29,1.23,1.23,0,0,0,1-.45,1.67,1.67,0,0,0,.35-1,.9.9,0,0,0-.46-.85,4.47,4.47,0,0,0-1.4-.43,6.57,6.57,0,0,1-1.39-.36,2.16,2.16,0,0,1-1.2-2.25A2.49,2.49,0,0,1,183.88,112.22Z"/><path class="cls-2" d="M190.91,111.53l1,0a2.09,2.09,0,0,0,.38,0v-4.31a.79.79,0,0,1,.34-.61,1,1,0,0,1,.6-.25.58.58,0,0,1,.45.19.82.82,0,0,1,.15.59c0,.26,0,1.72,0,4.36l2.34-.08c.4,0,.6.24.6.73a1,1,0,0,1-.31.82,1.05,1.05,0,0,1-.66.3l-.69,0-1.22,0c0,.57.06,1.71.17,3.4s.2,2.79.27,3.29a3,3,0,0,1,0,1,.46.46,0,0,1-.22.31,1.69,1.69,0,0,1-.7.12c-.29,0-.47-.16-.52-.5a67.71,67.71,0,0,1-.54-7.56c-.12,0-.58,0-1.39,0s-1.2-.24-1.2-.73C189.79,111.88,190.17,111.53,190.91,111.53Z"/><path class="cls-2" d="M197.61,111.75a.75.75,0,0,1,.53-.25.72.72,0,0,1,.42.11.44.44,0,0,1,.18.19,2.47,2.47,0,0,1,.07.29c-.08,1.09-.12,2.08-.12,3a17.26,17.26,0,0,0,.3,3c.2,1.13.42,1.69.66,1.69a2.49,2.49,0,0,0,1.37-.63,4,4,0,0,0,1.19-1.32q-.24-3-.24-5.19a1.11,1.11,0,0,1,.27-.75.84.84,0,0,1,.65-.32c.42,0,.63.3.63.89,0,1,.07,2.47.21,4.43a24.92,24.92,0,0,0,.43,3.73,1.61,1.61,0,0,1,0,.39.54.54,0,0,1-.27.42,1.12,1.12,0,0,1-.7.2.57.57,0,0,1-.57-.5c0-.28-.1-.7-.2-1.26a4,4,0,0,1-2.83,1.53,1.62,1.62,0,0,1-1.18-.52,3.59,3.59,0,0,1-.82-1.43,11.34,11.34,0,0,1-.52-3.28q0-1.53.15-3.78A1.16,1.16,0,0,1,197.61,111.75Z"/><path class="cls-2" d="M210.11,111.5l0-4q0-1.14.69-1.14a.67.67,0,0,1,.77.63c0,.19.06,1.28.1,3.3s.1,3.91.19,5.67.13,3.41.13,4.94q0,.63-.9.63c-.4,0-.6-.3-.6-.89a3.08,3.08,0,0,1-2,.72,2.94,2.94,0,0,1-2.44-1.18,4.52,4.52,0,0,1-.93-2.9,7.77,7.77,0,0,1,.67-3.22,4.24,4.24,0,0,1,3.8-2.55A3.69,3.69,0,0,1,210.11,111.5Zm.11,2.87a2.4,2.4,0,0,0-.35-.7.87.87,0,0,0-.43-.29,3,3,0,0,0-.55,0,1.7,1.7,0,0,0-.79.25,2.14,2.14,0,0,0-.78.82,4.86,4.86,0,0,0-.64,2.38,4,4,0,0,0,.47,2,1.48,1.48,0,0,0,1.35.79,1.52,1.52,0,0,0,1.37-.91,4.76,4.76,0,0,0,.5-2.31A8.18,8.18,0,0,0,210.22,114.37Z"/><path class="cls-2" d="M214.45,108.06a1,1,0,0,1,.69.35,1.14,1.14,0,0,1,.32.75,1.24,1.24,0,0,1-.35.79,1,1,0,0,1-.74.4,1,1,0,0,1-.69-.34,1.24,1.24,0,0,1-.31-.86,1,1,0,0,1,1-1.09Zm.85,11,0,1.47a.83.83,0,0,1-.3.66.94.94,0,0,1-.64.26.47.47,0,0,1-.52-.52q-.27-6.71-.27-7.41c0-.48,0-1.06.06-1.75,0-.25.18-.37.46-.38a1.06,1.06,0,0,1,1.21.91,6,6,0,0,1,.06.73l-.08,1.33Z"/><path class="cls-2" d="M223.21,111.52c.59,0,.88.52.88,1.57v.36l0,1.47c0,.46,0,.92,0,1.37l.3,4.74c0,.35-.34.53-1,.53H223a.34.34,0,0,1-.32-.19.65.65,0,0,1,0-.46,1,1,0,0,0-.05-.61,3.13,3.13,0,0,1-2.44,1q-2.83,0-2.83-4.58a6.66,6.66,0,0,1,.91-3.84,3,3,0,0,1,2.62-1.31,4.57,4.57,0,0,1,1.6.3A.82.82,0,0,1,223.21,111.52Zm-2.08,1.91a2.09,2.09,0,0,0-1.71.69,4.26,4.26,0,0,0-.56,2.55c0,2.07.54,3.1,1.61,3.1a1.54,1.54,0,0,0,.93-.4,2.08,2.08,0,0,0,.71-.9,7.86,7.86,0,0,0,.38-2.48,4.52,4.52,0,0,0-.31-1.95A1.09,1.09,0,0,0,221.13,113.43Z"/><path class="cls-2" d="M226.24,120.68l-.22-8.53a.84.84,0,0,1,.26-.65.73.73,0,0,1,.52-.25.65.65,0,0,1,.74.56,9,9,0,0,1,.08,1.18,3.21,3.21,0,0,1,2.7-1.49q2.49,0,2.49,5.94v1.65a7.58,7.58,0,0,1-.12,1.6.79.79,0,0,1-.86.64c-.32,0-.48-.23-.48-.68l0-1.17a23.91,23.91,0,0,0-.15-3.33c-.11-.6-.2-1.07-.3-1.42-.22-.75-.59-1.13-1.1-1.13a1.45,1.45,0,0,0-1.4.75,4.78,4.78,0,0,0-.52,1.94c-.09,1.3-.14,2.68-.14,4.13a.82.82,0,0,1-.3.67,1.08,1.08,0,0,1-.72.26C226.4,121.35,226.24,121.12,226.24,120.68Z"/><path class="cls-2" d="M235,111.52l1,0a1.91,1.91,0,0,0,.38,0v-4.31a.85.85,0,0,1,.34-.61,1,1,0,0,1,.6-.25.55.55,0,0,1,.45.19.79.79,0,0,1,.16.59c0,.26,0,1.72,0,4.37l2.34-.09c.4,0,.6.25.6.74a1,1,0,0,1-.31.82,1.09,1.09,0,0,1-.66.29l-.69,0-1.22,0c0,.57.05,1.71.17,3.4s.2,2.79.27,3.29a3,3,0,0,1,0,1,.46.46,0,0,1-.22.31,1.73,1.73,0,0,1-.7.12c-.3,0-.47-.16-.52-.5a69.78,69.78,0,0,1-.55-7.56c-.12,0-.58,0-1.38,0s-1.2-.24-1.2-.73C233.91,111.87,234.28,111.52,235,111.52Z"/><path class="cls-2" d="M244.31,111.6a3.56,3.56,0,0,1,2,.65,1.9,1.9,0,0,1,1,1.61,2.78,2.78,0,0,1-.78,1.84,3.28,3.28,0,0,1-2.08,1.09,13.72,13.72,0,0,1-1.68.08,3.75,3.75,0,0,0,.86,2.35.65.65,0,0,0,.54.23,2.81,2.81,0,0,0,2.08-.83c.56-.55,1-.83,1.2-.83s.27.11.48.32a.87.87,0,0,1,.33.59c0,.36-.43.89-1.27,1.57a4.94,4.94,0,0,1-1.35.81,3.86,3.86,0,0,1-1.47.33c-1.16,0-2-.79-2.57-2.35a9.59,9.59,0,0,1-.52-3.2,5.59,5.59,0,0,1,.78-3A2.7,2.7,0,0,1,244.31,111.6Zm.1,1.45a1.54,1.54,0,0,0-1.3.9,4.42,4.42,0,0,0-.38,1.43c1.87,0,2.8-.48,2.8-1.45C245.53,113.34,245.16,113.05,244.41,113.05Z"/><path class="cls-2" d="M250.58,112.21a2.88,2.88,0,0,1,1.95-.74,5.63,5.63,0,0,1,2.14.42q1,.42,1,1.11a.7.7,0,0,1-.26.57.81.81,0,0,1-.45.21h-.3a4.91,4.91,0,0,1-.81-.39,2.69,2.69,0,0,0-1.27-.38,1.69,1.69,0,0,0-1,.31,1,1,0,0,0-.41.89,1.1,1.1,0,0,0,.47.93,4.71,4.71,0,0,0,1.65.57,4.81,4.81,0,0,1,1.82.69,1.86,1.86,0,0,1,.63,1.63,3,3,0,0,1-.87,2.47,3.23,3.23,0,0,1-2.12.73,5.54,5.54,0,0,1-2.11-.36,1.17,1.17,0,0,1-.87-1.07c0-.55.26-.82.78-.82a3.27,3.27,0,0,1,.88.29,3.37,3.37,0,0,0,1.35.3,1.24,1.24,0,0,0,1-.45,1.69,1.69,0,0,0,.35-1,.89.89,0,0,0-.47-.85,4.3,4.3,0,0,0-1.4-.43,7.68,7.68,0,0,1-1.38-.36,2.17,2.17,0,0,1-1.2-2.25A2.49,2.49,0,0,1,250.58,112.21Z"/><path class="cls-2" d="M258.5,118.8a1,1,0,0,1,.75.34,1.47,1.47,0,0,1,.39.92,1.32,1.32,0,0,1-.32.85,1,1,0,0,1-.76.39,1.32,1.32,0,0,1-.77-.24.87.87,0,0,1-.34-.75,1.91,1.91,0,0,1,.31-1A.9.9,0,0,1,258.5,118.8Z"/></svg>