<svg id="Capa_1" data-name="Capa 1" xmlns="http://www.w3.org/2000/svg" viewBox="0 0 1207.79 516.24"><defs><style>.cls-1{fill:#70c4c2;}.cls-2{fill:#7fc9c8;}.cls-3{fill:#7cc8c6;}.cls-4{fill:#fff;}</style></defs><polyline class="cls-1" points="32.5 120.88 32.44 120.95 32.44 120.95 32.5 120.88"/><path class="cls-1" d="M6,121.12a1.12,1.12,0,0,0-.29,0l.32,0H6"/><path class="cls-1" d="M49.59,119.9,48.5,120l0,0,1.13-.08"/><path class="cls-1" d="M56.63,120.67s.13.07.35.07h.11l-.46-.06"/><polyline class="cls-1" points="73.29 119.08 73.34 119.1 73.29 119.08"/><path class="cls-1" d="M67,119.15l-.46.08a1.34,1.34,0,0,0,.46-.08"/><path class="cls-1" d="M66.49,119.23c-.12,0-.22,0-.21,0h0l.21,0"/><path class="cls-1" d="M80.89,116.93a9.74,9.74,0,0,0-1.28.22l1.28-.22h0"/><polyline class="cls-1" points="26.89 54.59 26.87 54.69 26.89 54.59"/><path class="cls-1" d="M80.36,117.84h0"/><path class="cls-1" d="M48.49,121.7c-.46.14-1.43.1-1.42.19h0a4.9,4.9,0,0,0,1.42-.19"/><path class="cls-1" d="M33.89,45.24l-.33.11.33-.11"/><path class="cls-1" d="M80.63,117.79l-.27,0h.39l-.12,0"/><polyline class="cls-1" points="66.1 68.39 66.17 68.5 66.16 68.48 66.1 68.39"/><path class="cls-1" d="M66.93,70.57a3.17,3.17,0,0,0,.26.53l-.26-.53"/><path class="cls-1" d="M79.61,117.15l-.73.12a5.06,5.06,0,0,0,.73-.12"/><path class="cls-1" d="M92.77,73.67l.22.07-.22-.07"/><path class="cls-1" d="M41.76,122.18h0m6.06-.59.1,0-.1,0m-28.11-.1h0m34.14-1.92h0m23.25-.14h0m0,0h0m-8.79-.18-.09,0,.09,0m10.94-1.32v0m-91.76-11.57a0,0,0,0,1,0,0v0m-4.09-9.87h0s0,0,.05,0,0,0,0,0M-16,93.8s0,.06,0,.09,0-.06,0-.09m0-3.5a0,0,0,0,0,0,0v0m3.64-2.08,0,0,0,0M95.82,75.86h0s0,0,0,0h0m-75.43-16s0,0,0,0v0M25.06,58s0,.06,0,.09a.81.81,0,0,0,0-.09M41.23,44.35H40.11c-.33,0-.67,0-1,.06s-.7,0-1.07.07l-1.13.13c.05,0,0,0-.07,0a4.67,4.67,0,0,0-.87.13,5.33,5.33,0,0,1-.73.12c-.1,0-.13,0,0-.12-.85.22-.85.31-.67.31h0c.22,0,.57,0,.16.19a9.59,9.59,0,0,1-1.1.33h-.06c.23-.13-.47,0,0-.17l-.62.21-.6.26h0s.16-.12.28-.19l-.88.42a7,7,0,0,0-.83.39c-.52.3-1.05.53-1.53.83s-1,.59-1.42.92-.88.72-1.31,1.12c0,0,0,0,0,0a1.37,1.37,0,0,0,.32-.22,1.39,1.39,0,0,1,.33-.23s0,0,0,0l-.56.53-.41.41c-.25.23-.45.4-.64.56A7.26,7.26,0,0,0,24.29,52l.19-.43a12.08,12.08,0,0,1-1.23,1.82h0c-.17,0,.5-.91.77-1.4-.24.33-.65.92-.93,1.38s-.33.65-.28.65.05,0,.1-.08c-.45.86-.75,1.1-1,1.57h0a1,1,0,0,0,.16-.21c.07-.11.14-.22.17-.22s0,.06,0,.2A16,16,0,0,0,20.49,60h-.08s0,0,0,0a5.07,5.07,0,0,1-.17,1.29c0,.17-.1.37-.15.63a6.67,6.67,0,0,0,0,1.08c0,.31,0,.63,0,1s.09.64.13,1a8.58,8.58,0,0,0,.18,1c.09.33.18.66.28,1a8.68,8.68,0,0,0,.29.93l.12.36.07.23,0,.1,0,.05,0,0H21l-.17,0-1.65.33-1.64.21L16,69.25a17.06,17.06,0,0,1-3.53.35l-.14-.26-1.13.08c-.46-.08.87,0,.06-.15l-.43.17c-.08-.1-2.92-.07-1-.26H9.35c-1.32,0-2.67,0-4,.08-1,0-.59.25-1.71.26-.24-.06.4-.08.3-.17A10.69,10.69,0,0,0,.27,70l-.7.23c-.24.1-.49.2-.76.29s-.56.19-.88.29l-1.06.37.25-.13c-.25.13-.63.28-.94.41a4.28,4.28,0,0,0-.55.3h.08a.73.73,0,0,0,.47-.22,2.39,2.39,0,0,1,.94-.38c0,.24-1.13.53-1,.69a9.48,9.48,0,0,0-1.65.91,13.6,13.6,0,0,0-1.67,1c-.54.39-1,.79-1.4,1-.36.45-.65,1-1.39,1.94-.2.17-.28.21-.32.21h0a0,0,0,0,0,0,0s-.09.07-.4.43v.23c-.37.49-.47.6-.5.6s0,0,0-.05h0c-.56.83-.32.78-1,1.81l.24-.66c-.42.82-.64,1.13-1.21,2.28-.06-.06.17-.53.37-.85-.5.52-.45,1.12-.64,1.44.08-.06.34-.55.42-.55s0,0,0,.13a7.75,7.75,0,0,0-.35.91,2.76,2.76,0,0,1-.35.75l.14-.69c-.2.63-.23.81-.28,1s-.15.4-.42,1.11l0-.1a11.31,11.31,0,0,1-.44,1.58q-.14.42-.3.9c-.09.31-.18.64-.27,1l0-.27c-.09.57-.06.89-.12,1.19.17-.52.22-.58.28-.58h.1a3.05,3.05,0,0,0-.26,1.38,10.09,10.09,0,0,1-.22,1.89,1.31,1.31,0,0,1,.05-.92,3.75,3.75,0,0,1-.19-1.77A5.18,5.18,0,0,1-16,90.33h0l.15.21c-.06.39-.11.7-.15,1t0,0s.08-.07.12-.14.07-.14.1-.14,0,.1,0,.41c0,.57-.13.66-.18.66H-16a.16.16,0,0,0,0,0,10.49,10.49,0,0,1,0,1.95c0-.11,0-.29,0-.43-.07.47-.09,1-.13,1.5a2.41,2.41,0,0,1-.2,1.07.79.79,0,0,1-.1-.54l0,0a1.16,1.16,0,0,0-.06-.33,2.43,2.43,0,0,0,0,.46c0,.23,0,.46-.07.46h0a3.35,3.35,0,0,1,0,.67c0,.41,0,.91,0,1.22l.15-.2c.21.86.2,1,.11,1h-.11c-.12,0-.23.12-.15,1a2.08,2.08,0,0,0,.09.49,1.15,1.15,0,0,0,0-.2c0-.1,0-.2,0-.2s0,0,.06.21c0,.44,0,.74,0,1.09a7.51,7.51,0,0,0,.17,1.39c0,.36,0,1.1-.13,1.2.11.38.21,1,.32,1.52a4.4,4.4,0,0,0,.39,1.24,17.93,17.93,0,0,1-.59-2.86c.07.13.16.27.24.4.19,1.07.61,2.4.76,3.14,0-.11,0-.18,0-.18l0,0c.26.73.46,1.19.66,1.64a16.93,16.93,0,0,1,.66,1.6s0,0,0,0-.36-.7-.57-1.23a7,7,0,0,0,.32,1c.13.3.31.64.59,1.35,0,0,0,0,0,0s-.39-1-.57-1.06c.24.51.46,1,.73,1.52h0c.32.12.54,1.17,1.16,2a9.78,9.78,0,0,0,2.88,3.05c.16.24.22.37.15.37l-.06,0c-.34-.5-.33-.36-.51-.48.5.51,1,1.24.82,1.24a.15.15,0,0,1-.1,0,2.33,2.33,0,0,0,.39.32s0-.08-.11-.17-.13-.17-.1-.17.07,0,.18.13c.46.39.89.82,1.38,1.19-.07-.14-.3-.37-.23-.37a1.82,1.82,0,0,1,.43.24c.66.44.94.71,1.83,1.23h0s0,0,0,.06,0,.06,0,.06a1.25,1.25,0,0,1-.4-.2,3.85,3.85,0,0,0,1.41.72c-.18-.11-.23-.16-.2-.16a5.93,5.93,0,0,1,.63.24,3.28,3.28,0,0,0,.68.23c.05,0,0,0-.08-.13.32.18.67.33,1,.5a6.22,6.22,0,0,1-.64-.19c.24.27.89.28,1.26.39a11.33,11.33,0,0,1,1.42.5h0a5.14,5.14,0,0,1,1.36.32h.17c.23,0-.09-.12,0-.14.59.1,1.18.12,1.78.18.08.1.22.38,0,.4.63,0,.32-.23,1-.23h.22c-.57.17,1.29.18.47.38a13.21,13.21,0,0,0,2.44.16h.6c.55-.14-.95-.11-.89-.26H7a12.46,12.46,0,0,0,2.26-.18,8.6,8.6,0,0,1,1.66-.18h.46l-.47,0a9.57,9.57,0,0,0,1.66-.19c-.28.17,1,.43,2.62.43h.53c.15-.1-1.05-.17-.75-.32l1.24,0c.09,0-.05,0-.21.08l.4,0a7.81,7.81,0,0,1,.86,0c.25,0,.48,0,.67,0a.79.79,0,0,0,.45-.1l1.13.25-.45-.11a14.63,14.63,0,0,1,1.65-.2,10.79,10.79,0,0,1,1.24-.08,8.55,8.55,0,0,1,1.17.09c-.22-.07-.77-.22.22-.29,0,.12.34.15.74.15h1c.2,0,.33,0,.33,0h.63c.27,0,.5,0,.53-.08l-.06.19c.08-.26,1.54-.33,2.66-.44-.08.12,0,.15.21.15l.43,0a4.53,4.53,0,0,1,.52,0,1.12,1.12,0,0,1,.58.11c.2-.25,2-.22,2.17-.44h.28c.57,0,.53.18.73.24l.4-.12a5.09,5.09,0,0,0,.8,0h1.07l1.09,0h.06l.88-.28.34.08c.14-.07.88-.15.41-.2l.49,0c0-.24.67-.11,1.63-.29.23,0,.17.09,0,.13h.13c.29,0,.19.1.38.15-.11-.07,1.68-.54.44-.55-.1-.08.62-.21,1.1-.21h0l.3.19.55-.26a4.1,4.1,0,0,1,.57,0l.46,0,.46,0h.18c-.53.06-1.15.41-.24.41l.5,0a16.23,16.23,0,0,0-1.67.32h.2c.17,0,.18,0-.21.12,1.24-.16.41-.16,1.63-.28,0,.16.19.21.89.21h.48l-.81-.07.15-.06H46.7c-.25,0-.33,0-.39-.09.21,0,1.12-.27,1.49-.27h0c-1-.18,2.22-.38,1.44-.49a3,3,0,0,1,.82-.1.53.53,0,0,1,.27,0c-1,.22.79.15.63.3.38-.09-.82-.08-.31-.19l.46,0a7.54,7.54,0,0,1,1,.08l-.26,0h1c.15-.11-.92-.09-.06-.21h.07l.44,0,.45,0c.08,0,.13,0,.12,0-.4.16-.09.31-.83.4.62-.06,2.57-.24,1.77-.35l.73-.06c-.47,0-1.77-.08-.3-.22v0l1-.23.45.06s.14-.1.52-.13c.1,0,.46,0,.44.12,1.1-.1,1-.19,1.14-.25a3.87,3.87,0,0,1,.51,0c.21,0,.24,0,.06.13.71,0,1.87-.15,2.56-.15l.34,0c1.12-.18-.24,0,.41-.2a4.32,4.32,0,0,0,.89.07c1.28,0,3.25-.28,4.68-.41-.49-.24.42-.09.78-.33.08.09,1.63.09.2.26l1-.1c.68.12-1.62.23-.59.38a30,30,0,0,1,3-.43h.09c-.11.06-.1.08,0,.08l.31,0,.33,0c.1,0,.15,0,.07.09a5.41,5.41,0,0,1-1,.13l.23,0c2.42-.11.69-.29,1.94-.51l.71,0c.65,0,.48.14.55.21h.13a7.33,7.33,0,0,0,1.18-.13,3,3,0,0,1-.64.06c-.54,0-.87-.13-.57-.25a1.89,1.89,0,0,0,.57.07,9,9,0,0,0,2-.29c-.55,0-.91,0-1.18,0h-.55l-.49,0c-.27,0-.63,0-1.23-.06-.26.09-.21.28-1.31.28h-.09c.74-.15-.06-.11-.27-.13.23.1-.82.1-1.18.18-.31-.07.57-.29-.31-.29h-.2l-.21.29c-.36,0-.07-.12-.34-.12l-.47,0c.53-.18-.18-.22,1.17-.35l-.58,0a17.15,17.15,0,0,0-3.14.52.45.45,0,0,0,.18-.07,7.49,7.49,0,0,1-1,.15c-.83,0,.65-.18.42-.24l-1.34.11,0,0h0a3.37,3.37,0,0,1-.64.08l-.17,0c.39-.12.54-.23.8-.32l-1.39.3c.14-.11-1.18-.07-.18-.22l-2.08.21-.19-.18c-.4.06-.49.1-.21.1h.23c-.58,0-2,.32-2.51.32-.21,0-.3,0-.21-.14-1.63.29-2.22.27-4.2.53,1.52-.3-1.76-.08-.15-.29h0a9.51,9.51,0,0,0-1.83.31c-.69,0-.43-.22.27-.36l-.81.15v0l-.76.17c-.72,0-.33-.14-.77-.14h-.27l-.17.18-.58,0c.22.06-.27.14-.88.2v0l-.75.09c.27-.06.25-.07.13-.07h-.35c-.15,0-.24,0-.13-.07-.64,0-.65,0-1.8.17l.21.1a5.3,5.3,0,0,1-.63.07c-.15,0-.12,0-.11-.08s0-.08-.25-.08h-.3l.09.13h-.46a13.67,13.67,0,0,0-1.93.16,12.53,12.53,0,0,1-1.68.16h-.19c.65-.08.58-.19.54-.19h0c-1.11.14-2.93.23-4.07.47a3.67,3.67,0,0,0-1.73-.21,2.86,2.86,0,0,0-1.25.22h-.13c-.32,0-.71,0-1.08,0s-.72,0-1,0-.28,0-.29,0h0c-.18.12-.75,0-1.2.15l-.1,0,.08.12a6.9,6.9,0,0,0-.75,0,10.67,10.67,0,0,0-1.3.11,10.34,10.34,0,0,1-1.3.11,5,5,0,0,1-.65,0l.26,0-.63.09c-.1-.06.16-.1.18-.18l-2.92.1.58.08c-.52,0-.9.14-1.43.14H23c.39-.08.41-.11.26-.11l-.46,0-.57,0a.85.85,0,0,1-.39-.05l.62-.07c-.85,0-.85,0-.77.17h-.34a2,2,0,0,1-.53-.06,1.55,1.55,0,0,0-.41-.06,2.93,2.93,0,0,0-.51,0h.73c.21.07-.31.19-.79.2-.11,0-.44-.06-.14-.09-.87.07-2.15.05-2.52.1s-.32-.13-.07-.17c-.71.06-1,.07-1.19.07h-.31c-.19,0-.48,0-1.21.06l0-.08-.64.1-.92-.15.33.1c-.42,0-.73,0-1.11,0l-.6,0,.28-.11h-.47c-.49,0-.85,0-1.18-.06s-.64,0-1,0a8.94,8.94,0,0,0-1,0c-.11,0,.14,0,.28-.07l-.64,0a3.7,3.7,0,0,1-.68-.06,2.67,2.67,0,0,0-.65-.07,5.52,5.52,0,0,0-.72.05c.1,0-.07-.09,0-.12L5,121.2l0-.15-.57.21L4,121.09l-.27.07a3.89,3.89,0,0,0-1.22-.26c-.23,0-.46,0-.7-.09a4.42,4.42,0,0,1-.68-.21l.13.21a6.09,6.09,0,0,1-.94-.06c-.32-.06-.64-.14-1-.22s-.33-.08-.5-.14l-.48-.2c-.32-.14-.65-.26-1-.43a27.54,27.54,0,0,1-3.62-2.38l.14-.09c-.33-.21-.68-.42-1-.65-.1-.16-.11-.21-.09-.21a.84.84,0,0,1,.19.11.67.67,0,0,0,.17.12s0,0,0,0a3.14,3.14,0,0,0-.75-.56,2.75,2.75,0,0,1-.81-.74c-.12-.19-.15-.26-.12-.26s.45.46.64.63a17.22,17.22,0,0,1-1.53-1.82,7.35,7.35,0,0,1-.64-1,6.91,6.91,0,0,1-.44-.82h-.07a18.33,18.33,0,0,1-1.36-3h0c.08,0,.17.24.28.48a6.82,6.82,0,0,0-.44-1.13l.26.32c-.06-.19-.15-.42-.25-.66s-.17-.51-.25-.75a3.2,3.2,0,0,1-.23-1s0,0,0,0-.15-.14-.27-.63a3.32,3.32,0,0,0-.22-1.22c-.08-.28-.16-.58-.23-.88a4.64,4.64,0,0,1-.12-.88,4.54,4.54,0,0,1,.18.74s0,0,0,0a6.22,6.22,0,0,0-.35-1.53l.11.14c-.14-.87-.29-1.73-.38-2.61.17-.39-.09-2.32,0-2.32s0,0,0,0a1.05,1.05,0,0,0,0-.3.5.5,0,0,0,0,.17.58.58,0,0,1-.05.16s0-.1,0-.43,0-1,.11-1h0v.13c0-.28,0-.55,0-.83l.12.53a2.3,2.3,0,0,0-.21-1.3,11.78,11.78,0,0,1,.34-1.92v.25c.19-1.9.9-3,1-4.51,0,0,0-.06,0-.06s0,0,0,.16c.08-.36.2-.71.31-1.07l0,.3.18-1,.23-.93.07.05a31.94,31.94,0,0,1,2-4.39l-.09.23A7.44,7.44,0,0,1-8.81,80c.22-.29.41-.52.76-1.05l-.06.13c.23-.3.46-.59.7-.88l-.1.24a3.66,3.66,0,0,1,1-1l.42-.3-.09,0c.28-.37.83-.92.89-1.07.42-.28.53-.34.58-.34s0,0,0,0h0a.73.73,0,0,0,.3-.12c.36-.23.55-.4.81-.53a7,7,0,0,1,1.08-.54v.08c.52-.19.81-.38,1.55-.63l-.22.1a5.75,5.75,0,0,1,1.36-.36,3.07,3.07,0,0,0,1.17-.34,11.92,11.92,0,0,1,1.3-.13c.16,0,.27,0,.25.07A35.38,35.38,0,0,1,7.6,73a.37.37,0,0,0,.26.11l.23,0,.34,0a4.43,4.43,0,0,1,.57,0L8.93,73h.25c.87,0,1.78,0,2.74.09s1.92.09,2.9.09c.74,0,1.47,0,2.21-.09l.09.13.55-.19c.48,0,1-.1,1.51-.15l.79-.09.78-.13.78-.14a7.69,7.69,0,0,0,1-.24,3.93,3.93,0,0,0,2-1.35,4,4,0,0,0,.59-3.29c-.06-.28-.09-.38-.14-.56s-.09-.28-.13-.41-.15-.47-.19-.63-.26-.68-.43-1.11A9,9,0,0,1,24,63.42l0,.11A10.82,10.82,0,0,1,25,57.86c0,.11.08,0,.08.1a5.14,5.14,0,0,1,.68-1.39,4.23,4.23,0,0,0-.33.41,3.7,3.7,0,0,1,.92-1.45l.42-.84.14-.1,0-.18a3.29,3.29,0,0,1,.44-.28c.12-.2.87-1.17,1.06-1.54.07,0,.41-.31.45-.31s0,.06-.15.21a16.06,16.06,0,0,1,2.68-2.06l-.47.24c-.06,0,.11-.21.35-.42a3.6,3.6,0,0,1,.84-.48c-.25.19-.27.25-.18.25a5.25,5.25,0,0,0,.52-.12c.11-.08.12-.11.08-.11l-.15,0-.16,0s0,0,0,0a7,7,0,0,1,1.88-1l-.3.19a2.4,2.4,0,0,1,.92-.25,5.67,5.67,0,0,0,.94-.18c.66-.25,1.18-.26,1-.45a3,3,0,0,1,.51-.09c.11,0,.12,0,.12.08s0,.07.07.07h0A6.05,6.05,0,0,1,38.57,48a3.47,3.47,0,0,1,.94.08,1.34,1.34,0,0,1,.71-.13c.27,0,.59,0,.9.05s.87.12,1.12.12.2,0,.24-.06c.27.08.54.17.81.28,0,0,.15-.15.51-.15a2.25,2.25,0,0,1,.41,0c.63.2.44.32.62.43l.49-.16a34.86,34.86,0,0,1,5.79,2.52A23.55,23.55,0,0,1,56.41,55a27.74,27.74,0,0,1,4.43,4.63l-.18-.17c.42.6.85,1.19,1.24,1.82-.26-.47-.55-.91-.83-1.37a11.35,11.35,0,0,1,.84,1c1.3,2,2.83,4.9,4.25,7.57a3.13,3.13,0,0,1,.7,1.46,3.51,3.51,0,0,0,.58,1.45c-.09-.13-.16-.17-.25-.29.91,1.81,1.37,2.82,2.28,4.66h0c-.06,0-.07.06-.05.15l.06.19c0,.11.09.22.14.34a4.74,4.74,0,0,1,.39,1h0l.21.2c.11.4.34,1.07.52,1.62l.06.2,0,.1,0,0,.27-.06h.13s0,0,0,0L72.85,79l.13.1.9-.25.88-.32c.43-.14.87-.33,1.3-.5a9.24,9.24,0,0,1,2-.66c2.72-1.43,6.92-3.67,10.15-4.09a7.29,7.29,0,0,1,.94-.19,4.53,4.53,0,0,1,.52,0h.62a5.55,5.55,0,0,1,.72.25c.18,0,.36,0,.54,0l.54.09.52.1a2.2,2.2,0,0,1,.46.23H93c.67.27,1.22.71,1.87,1s1.07,1,1,1.1a1.93,1.93,0,0,1,.66.63,8.78,8.78,0,0,1,.52.76s.47.54,1.26,1.61a56,56,0,0,1,3.1,4.67,34.25,34.25,0,0,1,3.28,7.23,25.07,25.07,0,0,1,1,4.38,22.07,22.07,0,0,1,0,4.67,18.34,18.34,0,0,1-1.1,4.58,14.22,14.22,0,0,1-2.35,4,15.31,15.31,0,0,1-3.39,3.09l-.47.33-.49.29c-.33.19-.65.39-1,.57-.68.32-1.34.68-2,.94a40.67,40.67,0,0,1-7.95,2.27c-2.42.48-4.49.79-6,1.07h0c-.4.17-1.52.32-1.08.45l-.5,0a2.76,2.76,0,0,1-.44,0l-.31,0a.26.26,0,0,0-.19,0c1.19,0-.35.36.82.45l-.74.08s0,0,0,0l.33,0,.39,0c.08,0,.12,0,.1,0l.18-.23a4.73,4.73,0,0,1,1.16.09,5.38,5.38,0,0,1,2.16-.46h.09l-.37,0,.5,0c.45,0,.23.13.42.15l-.24,0,.93,0h0a6.51,6.51,0,0,0-1,.11c-.29.06-.46.12-.34.12h.13c1.32,0-.35,0,.64-.15l.26,0c.29,0,.18.11.17.17l1.09-.13c0,.12-.73.08-.27.14.46-.09.91-.17,1.36-.28a.43.43,0,0,0,.24.06,4.05,4.05,0,0,0,.78-.14,4.12,4.12,0,0,1,.88-.14.88.88,0,0,1,.24,0c-1,.24.11.08,0,.2l1.2-.22,1.21-.27h0c.08,0,0,0-.13.08l-.23.07.09,0a3.44,3.44,0,0,0,1-.28h0a6.2,6.2,0,0,0,.77-.16,5.32,5.32,0,0,1,.87-.16c.07,0,.11,0,.11,0,.81-.19,1-.3,1.1-.41s.26-.19,1-.43c.12,0-.17.13-.4.23s-.32.12-.23.12l.17,0,1.5-.62a1.57,1.57,0,0,1-.8.48,29.47,29.47,0,0,0,5.18-2.18,14.75,14.75,0,0,0,2.16-1.44c.34-.29.67-.62,1-.95a8.58,8.58,0,0,0,1-1.15.46.46,0,0,1,.16-.1c.08,0-.4.57-.56.88.45-.63.87-1.13,1.23-1.59.18-.24.35-.47.52-.68l.46-.65a11,11,0,0,0,1.59-2.94l-.09-.08a16.7,16.7,0,0,0,1.41-5.76,29,29,0,0,0-.3-6.25v.5a9.45,9.45,0,0,1-.3-1c-.1-.36-.2-.74-.3-1.06v0l.06,0,.06,0c.06,0,.07-.11-.12-.75,0,.22.09.63,0,.63s0,0,0,0a22.68,22.68,0,0,0-.81-3.16,34.6,34.6,0,0,0-1.6-3.86,55.85,55.85,0,0,0-4.68-7.66,26.85,26.85,0,0,0-4.09-4.46,13.34,13.34,0,0,0-2.79-1.8c-.25-.13-.52-.23-.79-.34l-.81-.26-.82-.24-.85-.13a12.24,12.24,0,0,0-1.81-.13,15.87,15.87,0,0,0-4.64.74,37.94,37.94,0,0,0-5.38,2.2,1.93,1.93,0,0,1,.59-.21c.18,0-.14.27-.68.48-2.27.54-3.51,1.78-5.68,2.27l-.34.13-.17.06,0,0h0l-.08,0-.09,0,0,0,0-.17h0v0l0-.09-.13-.35-.25-.71a35.07,35.07,0,0,0-2.43-5.43l.09-.13a7.69,7.69,0,0,0-.64-1.24h0c-.58-1.38-1.57-2.91-1.94-3.69l-.15,0a8.33,8.33,0,0,0-.67-1.2L67,62l-.68-.84c.14,0-.19-.56-.6-1.17s-.92-1.28-1.09-1.6c-.71-.93-2.17-2.6-3.34-3.93a6.65,6.65,0,0,0-1-1.21c-.54-.55-1.18-1.2-1.7-1.67a35.05,35.05,0,0,0-3.88-2.82,37.13,37.13,0,0,0-4.76-2.49v.18l-.86-.32s0-.07,0-.07h0a2.51,2.51,0,0,0-.57-.3c-.23-.08-.49-.15-.75-.22-.51-.15-1-.28-1.38-.42.41.26.62.19,1.12.36.29.13.33.19.2.19a5.15,5.15,0,0,1-1.19-.32l0,0-.7-.08c0-.15-.64-.37-.69-.51a21.12,21.12,0,0,0-4-.39"/><polyline class="cls-1" points="43.5 122.07 43.68 122.08 43.5 122.07"/><path class="cls-1" d="M41.25,122l-.49.06a2.71,2.71,0,0,0,.49-.06"/><polyline class="cls-1" points="40.26 122.16 39.65 122.19 39.64 122.22 40.26 122.16"/><path class="cls-1" d="M44.44,122c-.24,0-.56,0-.76,0h.22a2.84,2.84,0,0,0,.54,0"/><path class="cls-1" d="M16,123.24H16l-.25,0,.31,0"/><polyline class="cls-1" points="37.62 122.61 37.53 122.61 37.36 122.66 37.62 122.61"/><path class="cls-1" d="M47.07,121.89h0a2,2,0,0,0-.3.06h.35l0,0"/><path class="cls-1" d="M25.43,123.05c-.21,0-.33,0-.24.14.17-.07.23-.11.24-.14"/><path class="cls-2" d="M845.3,199.05l-.19,0h.07q.14,0,.12-.06"/><path class="cls-2" d="M908.23,204l-.73.05a2.56,2.56,0,0,0,.73-.05"/><path class="cls-2" d="M828.2,163.54c0,.86.06,1.72.12,2.58l0,.09c-.05-.59-.1-1.38-.16-2.67"/><path class="cls-2" d="M1042.39,202.82l-.84.06c.38,0,.63,0,.84-.06"/><path class="cls-2" d="M963.75,204.32a2.37,2.37,0,0,0-.91.1,7.09,7.09,0,0,1,1.07-.1h-.16"/><path class="cls-2" d="M831.59,146.51l-.35,1c.08,0,.22-.36.35-1"/><polyline class="cls-2" points="851.69 116.79 851.59 116.8 851.69 116.79"/><path class="cls-2" d="M839.89,125.49l-.63.86c.29-.34.67-.78.63-.86"/><path class="cls-2" d="M839.26,126.35c-.18.22-.32.4-.29.42h0l.29-.42"/><path class="cls-2" d="M868.34,109.14a18.61,18.61,0,0,0-3.09.4c1.06-.13,2.13-.33,3.21-.4h-.12"/><path class="cls-2" d="M1125.84,138.14s0,0,0,0h0l.26.15c-.15-.13-.22-.17-.25-.17"/><path class="cls-2" d="M867.07,110.84h0"/><path class="cls-2" d="M831.67,166.18c.25,1.06.29,3.24.46,3.24h0a17.48,17.48,0,0,0-.47-3.24"/><path class="cls-2" d="M1098.32,135.94l.71.09-.71-.09"/><path class="cls-2" d="M867.71,110.76l-.64.08H868a1.07,1.07,0,0,0-.27-.08"/><polyline class="cls-2" points="1026.49 93.89 1026.23 94.1 1026.27 94.07 1026.27 94.07 1026.27 94.07 1026.49 93.89"/><path class="cls-2" d="M1021.37,97.28a6.94,6.94,0,0,0-1.12,1.07c.36-.36.72-.7,1.12-1.07"/><path class="cls-2" d="M865.25,109.54c-.6.1-1.2.25-1.8.37.65-.1,1.23-.26,1.8-.37"/><path class="cls-2" d="M990.17,67.44c.2.14.41.27.59.41a4.33,4.33,0,0,0-.59-.41"/><path class="cls-2" d="M957.16,204.31s0,.05.17.05l.42,0-.59,0"/><polyline class="cls-2" points="1007.57 198.57 1007.55 198.57 1007.57 198.57 1007.57 198.57 1007.57 198.57"/><path class="cls-2" d="M1007.55,198.57a14.22,14.22,0,0,0-2.65.31h.13a12.13,12.13,0,0,0,2.52-.31"/><path class="cls-2" d="M1013,198.49h0"/><polyline class="cls-2" points="959.73 199.09 959.73 199.11 959.73 199.11 959.76 199.09 959.73 199.09"/><path class="cls-2" d="M970.33,199a6.25,6.25,0,0,0,.73.07,5.46,5.46,0,0,0-.73-.07"/><polyline class="cls-2" points="1039.56 196.86 1039.54 196.87 1039.6 196.86 1039.56 196.86"/><path class="cls-2" d="M972.13,204.56l0,0,0,0M875.48,203h0m126.85-3.67h0m-6-.73c-.06,0-.09.06-.09.09s.11-.06.09-.09m14-.43s0,0,0,0l0,0m-175.93-17v0m-2.85-13.61a.82.82,0,0,0,0,.24c0-.07,0-.15,0-.24m293.1-11s0,0,0,.06v-.06m-296.5-3c0,.08,0,.16,0,.23v-.23m303.33-5c0,.09.08.19.13.28a1.25,1.25,0,0,0-.13-.28M897.35,127.22l.23.34-.23-.34m-55-3.86a.94.94,0,0,0-.11.17,1.63,1.63,0,0,0,.11-.17m2.36-.79-.35.35.35-.35M860,114.63c-.25.08-.56.2-.89.33l.89-.33m4.56-3.53,0,0,0,0M1002.4,97.61a3.79,3.79,0,0,0,.12.36l-.12-.36M981,61.86c-.08,0-.12,0-.13,0h0a.2.2,0,0,0,.14,0h0m-14-3.1c-.82,0-1.7.05-2.62.08a40.66,40.66,0,0,0-12.61,2.81,54.82,54.82,0,0,0-13.75,8,74.64,74.64,0,0,0-12.53,12.64A142.41,142.41,0,0,0,915.24,97.7c-3.11,5.32-6,10.68-9,15.74-1.5,2.54-3,5-4.58,7.35-.36.54-.72,1.08-1.07,1.62l-.16.27-.12.2-.09.15-.15-.15-.1-.09-.06-.06-.52-.59a27.6,27.6,0,0,0-2.15-2.32,26.9,26.9,0,0,0-2.33-2.11,38,38,0,0,0-9.83-5.89A36.66,36.66,0,0,0,871.18,109c-1,0-1.89,0-2.72.11h0c-1,.23-3.81.6-2.72.82-2.12.28-3.17.05-3.54.34.3,0,.54,0,.71,0,.72,0,.47.18.3.36s-.26.36.76.36h.28l-1.76.3s0,0,0,0a6.8,6.8,0,0,0,.87-.15,8,8,0,0,1,1-.15c.11,0,.16,0,.13.08l.42-.5h.79a8.61,8.61,0,0,1,2,.17c.67-.12,1.23-.28,2-.42a5.93,5.93,0,0,1,1.11-.1,12.49,12.49,0,0,1,2.37.27l-.9-.06c1.33.11,1.73.26,1.85.38s0,.19.27.27l-.58-.1,2.15.62a12.26,12.26,0,0,0-2.64-.4h0c-.7,0-1,0-.3.11s1.15.21,1.23.21-.1-.06-.26-.12-.31-.11-.14-.11a6,6,0,0,1,.72.08c1.44.23,1,.4.9.53.86.12,1.69.37,2.53.57,0,0-.06,0-.12,0a2,2,0,0,1-.5-.09l-.38-.09s0,0,.31.19l1.61.29,1.59.41c.2.36,1.07.54,2,.89a6.39,6.39,0,0,1,2.54,1.28,5.33,5.33,0,0,0-.92-.36c-.08,0,.15.15.36.31s.4.3.27.3h0c.84.44,1.71.83,2.5,1.35a24.84,24.84,0,0,1,2.39,1.53c.06.06.07.08.05.08a2.33,2.33,0,0,1-.44-.23l-.38-.22.18.12a10.51,10.51,0,0,0,2,1.26,20.6,20.6,0,0,0,1.67,1.55c.72.66,1.29,1.36,1.11,1.42.64.72,1,1.13,1.3,1.42a3,3,0,0,0,.6.48,2.86,2.86,0,0,1,.58.45,5.51,5.51,0,0,1,.47.52c.18.26.39.59.66,1,0,.06,0,.09,0,.09a4.84,4.84,0,0,1-.75-.95,2.36,2.36,0,0,0-.45-.48s0,.11.2.4c.42.55.84,1.17,1.26,1.74l.62.87.55.91a4.32,4.32,0,0,1-1.27-1.42c.83,1.27,1.47,2.6,2.17,3.89l.12.07.13-.12.28-.33.56-.64,1.1-1.28c.75-.84,1.42-1.69,2.14-2.54l1-1.24.8-1c.52-.66,1.06-1.3,1.56-2a68.82,68.82,0,0,0,5.84-9c.18-.2.27-.29.3-.29s-.69,1.37-1,2.09c3.13-6,5.24-7.95,8.08-12.87l-.13-.2c4.59-6.46,9.2-14.71,15.42-20.71l-.81.65a12.34,12.34,0,0,1,1.36-1.71c.55-.6,1.1-1.23,1.6-1.74h0s0,.07,0,.14,0,.14.07.14.42-.21,1.22-1a8.28,8.28,0,0,1-1.11.73s0,0,0-.08a67.74,67.74,0,0,1,13-8.62,34,34,0,0,1,14.88-3.65,25.32,25.32,0,0,1,2.92.17,29.25,29.25,0,0,1,11.23,3.24,34.35,34.35,0,0,1,5.15,3.23,37.75,37.75,0,0,1,4.63,4c5.74,5.76,9.59,13.17,12.21,20.64-.25-.75-.27-1.06-.17-1.06s.53.69.8,1.71a53.67,53.67,0,0,0,1.57,6.82c.15.53.3,1.07.43,1.63.07.27.14.55.2.83.12.49.24,1.08.34,1.63.2,1.12.39,2.26.58,3.47s.31,2.58.45,4c.25,1.6.5,3.19.74,4.76s.46,3.09.68,4.61l6.6-9.15c1.11-1.51,2.21-3,3.33-4.44l.85-1.09.6-.75.87-1a85.23,85.23,0,0,1,7.25-7.65l.28.1c1-.65,1.22-1,2.26-1.71v.08a42.86,42.86,0,0,1,4.06-2.18,16.45,16.45,0,0,1,3.43-1.18l0-.31c1.71-.4.93,0,2.65-.44l0,.15a19.4,19.4,0,0,1,2-.43c0,.13.23.19.68.21s1.1,0,1.76.13a17.43,17.43,0,0,1,2,.31,6.5,6.5,0,0,1,1.4.5A14.4,14.4,0,0,1,1051.9,99a16.89,16.89,0,0,1,3.91,3.64c.11.33.83,1.31,1.61,2.59a28,28,0,0,1,2.11,4.15,33.73,33.73,0,0,1,2.82,9,35.61,35.61,0,0,1,.43,5.29c0,.45,0,.9,0,1.34l0,.66,0,.33v.17s0,.11,0,.24l-.33,2.6c-.13.89-.35,1.89-.52,2.83l.42-.46-.68,3.71s-.13.27-.16.27,0-.06,0-.23l-.13.46a5.24,5.24,0,0,0,.58,0c1.32,0,3.25-.19,5-.35l2.9-.23,1.3-.08h.43l.3,0-.35-.07-.17,0H1071c-.35,0-.66,0-1,.06-.64.06-1.34.17-2.36.23h-.18c-2.52,0,.42-.49,3.9-.55l0,.08,1.48-.23c.17.25,1.52.32,1.69.57,3.22-.11,5.92-.21,8.65-.23h.84a72.07,72.07,0,0,1,8,.4c-.71.2,4.76.4,3.37.76.61,0,1,.06,1.28.06,1.45,0-1.6-.56,0-.67a8.88,8.88,0,0,1,2.46.36c-.49,0,.62.36.15.36H1099c.88.09,1.76.21,2.64.33.14,0,0,.06-.19.06H1101a52.64,52.64,0,0,1,7.34,1.28c2.25.53,4.32,1.09,6.38,1.7.38-.07-1.62-.62-1.27-.68a9.9,9.9,0,0,1,3.73,1.51c.37.25.71.51,1.15.82.23.15.44.36.72.56a10.6,10.6,0,0,1,1,.71,3.7,3.7,0,0,0-.74-.3,6.08,6.08,0,0,1,2.62,2.52c0,.06,0,.08-.06.08a.26.26,0,0,1-.14-.09,5,5,0,0,1-.51-.48c-.19-.21-.4-.46-.62-.68s-.46-.38-.64-.52a19.74,19.74,0,0,1,1.79,2,3.24,3.24,0,0,0,.76.88s0-.07,0-.21a6.55,6.55,0,0,1,.82,1.66c.13.47.17.86.3,1.29h0a1.44,1.44,0,0,0-.07-.47c0-.23-.08-.46,0-.46s.09.07.2.26l.28.88c.09.31.15.65.24,1a22.21,22.21,0,0,1,.6,6.86h0l-.07,0-.06,0s0,0-.06-.07a4.71,4.71,0,0,1-.23,2.24c-.08.31-.23.63-.37,1.07s-.26,1-.49,1.75a27.07,27.07,0,0,1-7.64,11.95,48.38,48.38,0,0,1-12.73,8.47,37.39,37.39,0,0,1-7.35,3.66l-.48-.35c-.77.37-1.56.71-2.35,1l-.21,0c-.12,0,.14-.11.41-.23s.52-.22.4-.22a3.59,3.59,0,0,0-.58.11l-.81.62h0c-.25,0-1.72.49-2.71.77a6.26,6.26,0,0,1-.89.19c-.17,0,.13-.16,1.31-.66-1.58.52-3.18,1-4.76,1.48l-4.83,1.31c-2.15.51-1.16.72-3.57,1.16-.52,0,.83-.3.6-.43-7.26,1.21-8.15,2.75-15,3.57l.57-.15c-.57.15-1.41.31-2.11.44a11,11,0,0,0-1.28.23,1.26,1.26,0,0,0,.5.11c.62,0,1.12-.54,2.83-.55-.12.45-2.57.62-2.39.92a29.35,29.35,0,0,0-4,.61c-2.07,0-4.88.43-6.81.43-.34,0-.64,0-.92,0a27.11,27.11,0,0,1-5,1c-1.59-.17-.15-.31-1.29-.31h-.8l-.38.28c-.6,0-1,.05-1.25.05-.64,0-.46-.08-.42-.16-2.18.11-1.79.45-4.55.45l1.52-.33c-2,.22-2.86.2-5.69.32a5.85,5.85,0,0,1,2-.19h0a4.71,4.71,0,0,0-.88-.08,6.74,6.74,0,0,0-1.44.18,5.82,5.82,0,0,1-1.12.19h0c.24.1,2.2.05,1.26.35-1.1,0-2.3.29-3.26.29a2.85,2.85,0,0,1-.74-.08l1.52-.3a25.74,25.74,0,0,1-4.93.41c.18,0,.09-.09.17-.14a24,24,0,0,1-4.26.26h-3.83l.6-.08c-1.27.12-2,.37-2.66.37,1.81.09,1.32.18,1.49.42a7.75,7.75,0,0,0-1-.08,15,15,0,0,0-2.43.28,20.48,20.48,0,0,1-3.24.27l-.81,0a2.49,2.49,0,0,1,1.39-.26,5.38,5.38,0,0,1,.68,0,11.16,11.16,0,0,1,3.83-1.1c-.9.09-1.91.17-2.46.17-.27,0-.43,0-.43-.06l-.4.36-2.27,0h0c-.38.26,1.82.36-.25.58-.35,0-.62,0-.84,0-.49,0-.66-.06-.71-.13s0-.13,0-.13l-.08,0c-2.85.22-1.67.42-3.56.42h-.85a8,8,0,0,1,1-.1l-1.09,0h-1.3l-1.27,0a5.5,5.5,0,0,1-2.29-.27,2,2,0,0,1,1.06-.24h.17l0,.08c.76-.13.84-.16.62-.16l-.59,0-.76,0c-.36,0-.64,0-.64-.1a18.91,18.91,0,0,1-3.19.16h-1.07l.45.29a12.29,12.29,0,0,1-2,.31c-.4,0-.2-.18-.21-.35s-.22-.36-1.44-.36H988c-2.93.26,1.11.06-.69.3-1.48,0-2.27-.15-3.79-.15-.51,0-1.1,0-1.83.06s-2.46-.24-2.6-.56c-.62.06-1.48.07-2.36.07h-1a13,13,0,0,0-3,.19c.52,0,1,.06,1.33.06a13.56,13.56,0,0,0,1.56-.09c.47,0,1-.09,1.58-.09a19.49,19.49,0,0,1,2,.12l-1,.34c-2,0-4.35.14-6.09.14-.43,0-.82,0-1.15,0,.34.06.49.14.28.21-3.14.15-4.26.43-7,.43h-.9c-.44-.29,1.53-.26,3-.29a16.13,16.13,0,0,0-1.77-.1l-1.08,0-1.51,0h-1.3c-.18-.26,2.28,0,2.67-.26l-3.74.11v0h0a2,2,0,0,1-1.1.19c-.4,0-.87,0-1.4-.05s-1.09-.05-1.68-.05c-.32,0-.64,0-1,0-5.42,0-6.25.59-9.25.94-.81-.11-1.05-.22-.71-.33a6.49,6.49,0,0,0,.92.09c.34,0,.34-.09.65-.16h-.27c-1.77,0-3.69-.42-2.72-.59-2.91.13,1,.23-.73.36l-4,0c.47.22,1.87.27-.19.43l-1.69,0c-.88,0-1.74,0-3.16,0,.31-.1-.64-.31.81-.31h.18c-.47,0-1-.06-1.6-.06a7.68,7.68,0,0,0-1.88.16c2.49.21-4.08.18-2.23.52l-2.48-.21h0a2.58,2.58,0,0,0,.53-.05,3.81,3.81,0,0,1,.59-.05h.31a1.78,1.78,0,0,0-.72-.13c-.7,0-1.56.23-2.19.24a33.17,33.17,0,0,1-3.33-.24c-.22,0-.51,0-.84,0a9.19,9.19,0,0,1-2.23-.2c-1.17.06-.1.22-.44.32l-4-.06c-.21-.19-.54-.7.06-.76-1.44.15-.63.5-2.52.5h-.3c1.31-.35-3-.3-1.11-.71a33.43,33.43,0,0,0-5-.26c-.77,0-1.5,0-2.1,0-1.27.27,2.22.18,2.08.47-5.12,0-6,.67-9.07.67l-1.26,0,1.1.09a26.85,26.85,0,0,0-3.88.32c.73-.34-2.91-1-7.19-1h-.11c-.37.18,2.41.38,1.7.66h-2.87c-.21,0,.11-.09.48-.13h-.52c-.83,0-1.62-.06-2.32-.13s-1.33-.12-1.82-.12a1.85,1.85,0,0,0-.91.16l-2.63-.5,1,.21a38,38,0,0,1-3.84.35c-.95.07-1.71.1-2.34.1a19.35,19.35,0,0,1-3.25-.3c.5.16,1.77.51-.53.53,0-.3-1.19-.38-2.38-.43a8,8,0,0,1-2.33-.28c-.69,0-1.77-.24-2.31-.24-.18,0-.3,0-.33.08l.19-.35c-.09.17-.55.25-1.2.25-.3,0-.64,0-1,0l-1.92-.19-1.95-.33c.35-.29-.34-.38-1.22-.58a5.83,5.83,0,0,1-2.38-.92.41.41,0,0,1-.21,0,10.13,10.13,0,0,1-2.17-.56,14.09,14.09,0,0,0-2.2-.77l-.09,0a2.73,2.73,0,0,1-1.32-1c-.14-.24-.13-.4-.29-.59l-.83-.3c-.36-.32-1.13-1.11-2.07-1.89-.43-.43-.83-.94-1.25-1.4l-.59-.67-.44-.68a12.65,12.65,0,0,1-1.42-1.33l-.21-.71c-.21-.13-.7-1-.8-1s0,.1.06.34l-.44-1h-.05c-.21,0-.39-.32-.65-.84s-.55-1.44-1-2.43c0-.24,0-.35,0-.35s.14.14.25.36c-.32-1,0-.69,0-1.19a0,0,0,0,1,0,0,6.8,6.8,0,0,1-.83-1.19c-.19-.31-.37-.56-.47-.56s-.11.27,0,1t0,0a7,7,0,0,1-.89-2.5l.25-.74-.7-1.19a25.2,25.2,0,0,1-.44-3.81c.14.76.5,1.57.71,1.57s.24-.56,0-2.19a24.43,24.43,0,0,0,1,3.7,1.94,1.94,0,0,1-.07-.7,2.44,2.44,0,0,1,.3.7c-.62-2.74-.45-.87-.93-3.62h.06c.33,0,.27-.82.14-3.13,0,.61-.05,1.23,0,1.84a1,1,0,0,1-.15-.33c.06.69,0,.89-.09,1.06a28.14,28.14,0,0,1-.69-3.44c0,.29-.08.41-.13.41a4.63,4.63,0,0,1-.42-1.79,12.67,12.67,0,0,0-.37-2.22s-.05.09-.08.28a6.89,6.89,0,0,1-.07-2.51c.08.52.14.73.19.73s.13-.55.19-1.09.11-1.09.2-1.09l0,0c0-.12,0-.17,0-.17a1.75,1.75,0,0,0-.12.58c0,.29-.07.58-.12.58s-.06-.09-.09-.3a15.4,15.4,0,0,1,.24-3.25l.08.59c0-.73.09-1.45.15-2.18,0,0,0,0,0,0s-.11.24-.16.47-.08.47-.12.47-.06-.2-.09-.8a19.46,19.46,0,0,1,.16-2.48h0c.23,1,.56.27.6,2,0-.7,0-2.2,0-3.25,0-.7,0-1.23-.08-1.23s-.1.12-.18.41l.13-1.64a12.23,12.23,0,0,1-.51,2.13c-.06,0-.07-.41,0-1.56l.07,0,0-1.17,0-1.17.34-1h0c-.09,0-.12-.38,0-1.22.12-.19.35-.9.48-.9h0c.55-2.43.33-2.28.3-2.63.28-.93.48-1.44.58-1.44s.06.1.06.31a33.71,33.71,0,0,1,1.21-3.29,13.89,13.89,0,0,1,1.35-2.72,5.46,5.46,0,0,0,.38-1s-.08.11-.15.21-.14.21-.17.21,0-.11.08-.44c.74-.86,1.85-2.65,3.12-4.61a43.92,43.92,0,0,1,4.27-5.54,1.45,1.45,0,0,1-.33.08c-.35,0,1-.94,1.25-1.71h0c.1,0,.66-.47,1.12-.71a2.29,2.29,0,0,1,.45-.22c.08,0-.06.17-.57.67.42-.39.87-.75,1.3-1.14a.94.94,0,0,1,.26-.11c.13,0-.31.43-.74.86s-.86.86-.7.86a1.65,1.65,0,0,0,.55-.25c.94-.77,1.58-1.59,2.38-2.31.41-.36.83-.72,1.3-1.08a7.7,7.7,0,0,1,1.67-1.05c-.11.14-.13.2-.08.2a3.47,3.47,0,0,0,.75-.42,2.93,2.93,0,0,1,.8-.42s.06.05,0,.16a12.8,12.8,0,0,1-1.86,1.2l.48-.18c2.34-1.27,2.63-1.55,2.63-1.71s-.34-.26.91-1c.75-.35,1.28-.57,1.66-.71a2.78,2.78,0,0,1,.72-.13h0c.28,0,.21.19.33.24a12.32,12.32,0,0,0,1.95-.66,6.94,6.94,0,0,1-1.79.37c-.34,0-.44-.11-.12-.33a5.86,5.86,0,0,0,1.38-.26l.8-.27.84-.23a23.38,23.38,0,0,0,2.57-.9c-4.75.62-3.22.65-7.63,1.71-.51.41-.28.67-2.77,1.7.51-.35.62-.47.54-.47a8.6,8.6,0,0,0-1.19.51h0c.45,0-1.65,1-2.27,1.52l-.13,0c-.11,0,0-.14,0-.27s.14-.28,0-.28a4,4,0,0,0-1.19.64l-.12.74a.9.9,0,0,1-.38.17.09.09,0,0,1-.09,0,.1.1,0,0,0-.07,0c-.1,0-.34.14-1.11.78.81-1-.59-.14,1.94-2a17.44,17.44,0,0,0-2.17,1.34,18.61,18.61,0,0,0-1.56,1.47c-1,.93-1.64,2-2.61,3.09a2.1,2.1,0,0,0,.23-.37c-.18.23-.41.5-.66.77s-.61.75-.88,1.08-.4.4-.44.4.19-.36.44-.73.49-.73.42-.73l0,0-2,2.39-.08,0h0a5.66,5.66,0,0,1-1.12,1.53c.41-.86.47-1.27.74-1.87L837,129.34s0-.05,0-.05-.28.23-.48.47a2.28,2.28,0,0,1-.44.47s0-.21.37-.83a49.06,49.06,0,0,0-2.39,4.31l-.51.2c-.23.54-.34.83-.3.83s.08-.1.2-.3c-.85,1.8-1.77,5.55-2.17,5.55,0,0-.07,0-.1-.13-.23.95-.43,1.74-.62,2.46s-.29,1.4-.43,2.1a38.57,38.57,0,0,0-.76,5.2c0-.72,0-1,0-1a3.26,3.26,0,0,0-.33,1.19,8.18,8.18,0,0,1-.22,1.16,4.24,4.24,0,0,1,0-1.1,18.79,18.79,0,0,0,0,4.47c-.07.64-.17.92-.26.92s-.29-.6-.35-1.57l.11,1.87-.07,0,.19,1.82c-.17,1.93-.36.41-.38,2.41l.33.43-.14,1.35q0-.12.06-.12a10.07,10.07,0,0,1,.28,2.23l-.08,0,.17,1.75a2.47,2.47,0,0,0-.12-.5,3,3,0,0,0,0,.72,1.93,1.93,0,0,1,0,.73s0,0-.07-.12c.1,1.5.11,1.54.47,4.24l.17-.5c.3,1.58.26,1.77.17,1.77h-.1c-.09,0-.16.15,0,1.3l.22-.21c.23,4.18,1.61,6.88,2.33,9.87-.38-1-.57-1.23-.65-1.23s-.05.08,0,.09c.22.63.49,1.36.77,2.15s.65,1.59,1,2.41.8,1.61,1.27,2.33a17.72,17.72,0,0,0,1.38,1.92,6.67,6.67,0,0,0,.52,1.36,11.49,11.49,0,0,0,1.72,2.28,8.62,8.62,0,0,0,1.63,1.38,4.1,4.1,0,0,0,1,.49c.19.18.4.37.64.56l.8.51,1.67,1a7.6,7.6,0,0,1,2,1.11c.51,0,1.69.76,2.81,1l.19.18-.08-.3a9.07,9.07,0,0,0,2.35.92,14,14,0,0,0,2.26.47c.75.11,1.5.21,2.27.36a16.28,16.28,0,0,1,2.46.5l-.62,0c.5,0,1,.08,1.51.1.22.13-.4.14-.48.27,1.16.14,2.32.24,3.48.35l3.47.21c-.45-.07-.9-.17-1.35-.26h.52c.39,0,.75,0,1.11,0s.73,0,1.12,0a11.42,11.42,0,0,1,1.36.08c-1.39.16-.82.18.16.19h.48a7.82,7.82,0,0,1,2.09.14l-1.48.09c2,0,2,0,1.86-.27h.6a5.86,5.86,0,0,1,1.42.14,4,4,0,0,0,1,.13,9.6,9.6,0,0,0,1.15-.08h-1.72c-.5-.14.73-.36,1.87-.37.25,0,1,.13.34.18.88,0,1.92-.06,2.89-.06h1.35c.72,0,1.31,0,1.62,0,1.1.08.73.26.14.33,1.25-.05,1.95-.07,2.41-.07l.79,0,.81,0c.46,0,1.16,0,2.35-.06l-.07.14,1.5-.15,2.15.34-.77-.2c.92,0,1.62,0,2.43,0,.47,0,1,0,1.59.05l-.68.21h.73c1.33,0,2.26.06,3.11.12s1.62.13,2.63.13c.59,0,1.27,0,2.09-.08.26,0-.34.1-.65.13.65-.05,1.15-.07,1.56-.07a10.82,10.82,0,0,1,1.51.11,8.68,8.68,0,0,0,1.43.12,17.81,17.81,0,0,0,1.8-.11c-.22.07.17.16,0,.22l1.64-.12-.13.28,1.35-.41,1,.31.64-.14c1.74.57,4.22.18,6.61.61l-.41-.37a38.15,38.15,0,0,1,4.5-.23c2.15,0,4.41.12,6.73.23s4.68.22,7,.22c1,0,1.91,0,2.85-.06l-.13.29,3-.34c1.61.23-1,.25-.47.4,3.22-.17,1.34-.43,5.09-.52,1.92.19-.67.22-1.57.32,2.58-.11,6.06-.23,8.72-.23.95,0,1.8,0,2.46.06.06,0,.21-.1.08-.11,1-.06,2.19-.08,3.39-.08h4.62c-.06.13-.7.16-1.34.19.51,0,1.12,0,1.7,0a8.33,8.33,0,0,0,1.29-.08l-1,.26h.44c.64,0,1.39,0,2.15,0s1.52,0,2.15,0a5.24,5.24,0,0,1,1.46.11c-.18-.11,0-.31,1.61-.31a3.24,3.24,0,0,0,1.19.14c.65,0,1.47,0,2.35-.11s1.84-.12,2.75-.12c.38,0,.75,0,1.11,0-.31.1-2.21.16-1.82.16h0l.68,0a23.86,23.86,0,0,0,3.14-.31l-.37.19,6.4-.36a5,5,0,0,0,1.58.16c.61,0,1.3,0,1.94-.06s1.22-.05,1.61-.05.57,0,.47.1c2.29,0-1.92-.15,1-.27a3.48,3.48,0,0,0,.69.05l.7,0,.64,0c.31,0,.51,0,.47.13l-.31,0,2-.06-1.27.31c1.74-.1,3-.42,3.09-.63.47,0,1,0,1.54,0h1.44a7.14,7.14,0,0,1,1.76.13l-.61.08c.62,0,1.21,0,1.78,0,1.23,0,2.36.06,3.43.12s2.08.12,3.09.12a18.48,18.48,0,0,0,3-.23c.27,0,.24.1-.33.12l2.86-.08-.68.24,4.73-.5-.06.15c3.13-.05,8-.34,12.06-.6l-.6.1c4.39-.49,4.26-.09,7.48-.49a1.31,1.31,0,0,1-.34.09l2.9-.22-.63.19a17.94,17.94,0,0,1,3.41-.26l1.06,0h.59c.1,0,0,0-.22,0a24.71,24.71,0,0,0,3.63-.83c.9-.1,1.35-.14,1.58-.14s.24,0,.26.09.09.08.48.08l.44,0c2.29-.26,2.67-.55,5.78-.83l0,.16c1.45-.24,2.33-.48,4.35-.8l-.59.16c3.23-.82,4.17-.27,6.63-1.35,1.13-.13,3-.56,3.68-.56.16,0,.25,0,.24.09,2-.52,3.8-1,5.59-1.52l5.52-1.66a1,1,0,0,0,.36.07c.51,0,.92-.44,3-.84l-.25-.19,4.33-1.36,2.26-.7,2.28-.78a58.66,58.66,0,0,0,9.12-3.81l.29.14,1-.86a57.68,57.68,0,0,0,9.86-6.39,42.65,42.65,0,0,0,4.31-4,39.17,39.17,0,0,0,3.22-4l.83-1.44.89-1.77c.31-.63.59-1.34.92-2s.57-1.45.89-2.19l-.08.32a32.21,32.21,0,0,0,.92-17.25c0,.09.09.11.11.11l0,0,0,0s0,0,0,0a20.71,20.71,0,0,1-.69-2.14c-.3-.85-.51-1.71-.81-2.32.19.5.28,1,.42,1.53-.78-1.59-1.88-3.9-2.27-4.78a24.72,24.72,0,0,0-2-2.12c-.1-.16-.29-.38-.28-.44h0l-.46-.27c-.29-.43-.58-.88-.89-1.32-.31-.19-1.23-.9-2.26-1.52a10.2,10.2,0,0,0-2.75-1.16c-.14-.19-1.51-.84-1.37-.84a4.65,4.65,0,0,1,.7.25,43.66,43.66,0,0,0-9.14-2.75l1.37.4c0,.07-.11.1-.35.1a19.2,19.2,0,0,1-3.58-.55l.52,0c.93,0-.4-.39-1-.68h-.21c-.71,0,1.18.41.56.44a49.48,49.48,0,0,1-5.55-.75l.92,0c-2.07-.21-3-.78-5-1-1.06,0-2-.11-2.46-.11s-.55.06-.41.26c-2.66-.17-1-.39-1.85-.52l-.45,0a24.83,24.83,0,0,1-5-.55,5,5,0,0,1-1.52.16c-.79,0-1.74-.06-2.66-.12s-1.81-.13-2.47-.13a2.09,2.09,0,0,0-1.1.17l-2.19-.29c-.07.14-.5.46-2.28.56-1.67-.12-1.28-.38-1.79-.51l-1.11.58h-1.19l-.5-.05-.36,0-.27,0c.07-.23.12-.43.16-.62l.06-.47h0s0-.38,0-.66l0-.88a40.85,40.85,0,0,0-.31-7.15,46.61,46.61,0,0,0-3.89-13.46,36.74,36.74,0,0,0-4.84-7,29.19,29.19,0,0,0-7.32-6l.65.29a22.36,22.36,0,0,0-5.86-2.55,23.43,23.43,0,0,1,4.28,1.82,16.1,16.1,0,0,0-1.81-.66l-.88-.29-.92-.26a22.33,22.33,0,0,0-7-1.07,25.85,25.85,0,0,0-4.44.38,29.61,29.61,0,0,0-11.37,4.64h0c-1,.84-1.69,1.37-2.2,1.74a9.76,9.76,0,0,1-1.26.76,9.36,9.36,0,0,0-3.11,2.57c.26-.32.32-.49.55-.79a52.71,52.71,0,0,0-4.37,4.91c-.61.77-1.2,1.55-1.8,2.4-.15.22-.31.43-.46.66l-.12.16v0l0,.09c-.05.14-.11.28-.17.43,0-.18-.09-.25-.14-.25s-.08.07-.12.16-.11.26-.14.26,0,0,0-.13l0,.47h-.14l-.09,0c-.07,0-.1,0,0-.3,0,.14-.11.34-.16.46l-.13.17.16-.59c0-.23-.12-.5-.16-.84l0-.25v-.14a3.06,3.06,0,0,0,0-.32,10,10,0,0,1-.16-1.94,126.84,126.84,0,0,0-4.24-12.66c-.95-2.32-2-4.65-3.22-6.89a61.57,61.57,0,0,0-3.89-6.3c-1-1-2.65-3.13-4.17-4.66-.44-.65-.93-1.25-1.4-1.87-.8-.76-1.76-1.4-2.64-2.09s-1.77-1.33-2.56-2h0a.5.5,0,0,1,.22.09,26.12,26.12,0,0,0-5.56-3.37c-1.89-1-3.81-2-3.71-2.17a2.82,2.82,0,0,1-.77-.22c-.48-.16-1.1-.4-1.7-.65s-1.2-.5-1.65-.67l-.76-.3-.76-.21-2.27-.5-1.67-.25a14.87,14.87,0,0,0-2-.2L967,58.76"/><path class="cls-2" d="M960.42,198.87l-2.07.18,1.38,0c0-.07.06-.14.69-.22"/><path class="cls-2" d="M1023.89,197.84c-.33,0-.44.06-.48.1l.48-.1"/><path class="cls-2" d="M1039.11,196.67c-1.11.13-.11.14.45.19,0-.06,0-.13-.45-.19"/><path class="cls-2" d="M921.82,199.68c-.32,0-.39.08-.34.12.24,0,.38-.06.34-.12"/><path class="cls-2" d="M833.3,177c0,.13,0,.24,0,.4a2.61,2.61,0,0,0,0-.4"/><path class="cls-2" d="M834.37,182.36a8.38,8.38,0,0,0,.44,1,10.15,10.15,0,0,0-.44-1"/><path class="cls-2" d="M947.26,199.66a4.63,4.63,0,0,0-1.07.1,6.07,6.07,0,0,0,1.07-.1"/><path class="cls-2" d="M835.28,184.39c.15.43.37.81.55,1.22h.06c-.2-.41-.44-.8-.61-1.22"/><path class="cls-2" d="M833,175.33c.1.52.26,1.23.34,1.69a8.37,8.37,0,0,0-.34-1.69"/><path class="cls-2" d="M884.78,199.69l-.73.07h.15a3.71,3.71,0,0,0,.58-.06"/><polyline class="cls-2" points="838.55 189.11 838.64 189.26 838.92 189.5 838.55 189.11"/><path class="cls-2" d="M832.21,169.31l-.07.11a4.85,4.85,0,0,0,.13.68c0-.21,0-.47-.06-.79"/><path class="cls-2" d="M862.79,199.15c-.39.09-.55.15-.57.21h.22c.33,0,.51-.05.35-.21"/><path class="cls-3" d="M526.85,95.22v0m-.22-2.33a1.36,1.36,0,0,0,0,.17l0,0a.3.3,0,0,0-.07-.13m-.54-.16,0,.17c0-.07,0-.12,0-.17M526,92.4s0,0,0,.11h0s.05.08.07.22a1.64,1.64,0,0,0-.06-.33m45.56-5h0l-.05.06h0l.05-.06m44.25-19.79-.06.08.06-.08m-88.63,27a.16.16,0,0,1,.09,0,.14.14,0,0,1,.1,0c0,.1,0,.15,0,.15s-.09-.06-.15-.17m-.61-1.83.09-.25a3.3,3.3,0,0,1,0,.73,1.77,1.77,0,0,1,0-.2,2.81,2.81,0,0,0-.12,1.36h0a.13.13,0,0,0,.1-.07s0-.07.06-.07h0a4.09,4.09,0,0,1,.13.48l0,.16V95c0,.11.06.25.08.37a.59.59,0,0,1,0,.23,1,1,0,0,1,0-.38s0,0,0,0a4.71,4.71,0,0,1-.55-1.38c0-.11.07-.26.1-.41s.14-.6.22-.6h0l0-.11m94.54-32.32a13.93,13.93,0,0,0-4.71.78,11.26,11.26,0,0,0-5.59,4.49,15.74,15.74,0,0,1-1.58,1.93c-.79,1.62-1.42,3.35-2.14,4.85a15.71,15.71,0,0,1-1.12,2,10.25,10.25,0,0,1-1.33,1.61l.11-.08a9.78,9.78,0,0,1-3.56,1.85l-.27.24-.08,0a14,14,0,0,0-1.46.34,11.21,11.21,0,0,1-2.58.34h-.3a8.86,8.86,0,0,1-3.06-.6,5.82,5.82,0,0,1-1.65-.83l-.51-.25a41.06,41.06,0,0,0-5.22-3.49,9.81,9.81,0,0,0-3.53-1c-.23,0-.47,0-.7,0a9.35,9.35,0,0,0-2.88.48c-.42.28-.87.55-1.26.85a10.92,10.92,0,0,0-1,.9c-.66.26-.62.61-1.26,1.09-1.76.56-2.41,1.43-2.08,1.43a.76.76,0,0,0,.35-.14c-1,1.15-2,2.27-2.94,3.27-.35.47-.7.93-1.05,1.41a1.09,1.09,0,0,1-.89.51c-.79.88-.68.5-1.65,1.13h0a.91.91,0,0,0-.46.27c-.22.17-.5.37-.78.61a4.83,4.83,0,0,1-1.38.83h0l.17-.09a3.91,3.91,0,0,1-1,.13,8.13,8.13,0,0,1-1.21-.12,10,10,0,0,0-1.27-.11h-.13a67.38,67.38,0,0,1-12.4-2.2c-.1.29.93.13.88.54-1.21-.29-2.35-.67-3.69-1a16.91,16.91,0,0,0-2.11-.36,12,12,0,0,0-1.58-.09h-.53c-.51-.08-1.14-.14-1.39-.22h0c-.86,0-.48.18-1.13.26l-.13-.26a2.09,2.09,0,0,1-.9.18h-.63a2,2,0,0,0-.83.16c0,.12-.34.22-.67.3,0-.06-.06-.08-.13-.08a1.19,1.19,0,0,0-.4.12,1.3,1.3,0,0,1-.39.11.08.08,0,0,1-.09-.07v0a3.66,3.66,0,0,1-.58.17c-.17.09-1,.74-1.82,1.39l-1.08,1c-.29.3-.49.56-.56.64l-.18.08c-.36.28-.46.54-.32.54a.24.24,0,0,0,.12,0,3.71,3.71,0,0,0-.54.44l0-.08-.52.48a.37.37,0,0,1-.14,0c-.09,0-.16-.05-.12-.2a4.87,4.87,0,0,1-.37.52,3.57,3.57,0,0,1-.42.51,9.26,9.26,0,0,1,3.11-1.87c-.29.36-1,.66-1.36,1.07a5.51,5.51,0,0,0-1.09.69c-.38.36-.81.76-1.16,1.15-.1.21.11.52-.26.9-.31.13-.3.5-.57.86a3.5,3.5,0,0,1,.61-1.38h0c-.27,0-.78,1-.93,1.41,0,.22-.45,1.16-.4,1.83,0-.06-.07-.08-.09-.08s-.13.23-.19.47l0-.16a.88.88,0,0,1,0,.17,2,2,0,0,1-.13.47c-.07.36,0,.6.08.6s0,0,0,0h0s.08-.07.11-.18c0,.13.06.26.1.39a8.77,8.77,0,0,0,.52,1.49s0,0,0,0,0-.13.07-.13h0s0,.07.07.07h0a.13.13,0,0,0,.08,0s.05,0,.05-.13l-.08-.15c0-.41.07-.54.2-.54a1.36,1.36,0,0,1,.55.28,1.23,1.23,0,0,0,.56.25c.17,0,.29-.15.28-.6-.07.19-.13.27-.18.27s-.22-.68-.25-1.27a1.88,1.88,0,0,0,.49-.93c0-.47-.08-.29-.15-.4.14-.21.32-.6.46-.6l.06,0c-.09-.42.28-.5.43-.9,0-.16,0-.18,0-.18h0s0,0,0-.12a6.88,6.88,0,0,1,1.1-1.45,2.18,2.18,0,0,1,.4,0c.21,0,.39.06.34.31s-.19.17-.24.17-.07-.06-.09-.13,0-.12-.06-.12-.1.06-.23.24h0c.42,0-.42.67-.27.94a2.2,2.2,0,0,0,.84-.89l-.09,0c.23-.31.73-.94,1.2-1,0,.16.21.13,0,.32l.44-.29c0-.05,0-.11,0-.11l-.08,0a.87.87,0,0,1,.56-.38h0a7.23,7.23,0,0,0,1.11-.92c.53-.41,1.07-.82,1.11-.82h0a1,1,0,0,1,.42-.07,7.61,7.61,0,0,0-1.16.69,6.82,6.82,0,0,0-1.16.91l0,0a2.67,2.67,0,0,0,.68-.44c.35-.25.82-.54,1.28-.85s1-.52,1.38-.69a2.78,2.78,0,0,1,.7-.2h.07c.28-.08.62-.2.52-.33h.06c.39,0-.13.3.23.36,0,0-.05-.06.07-.08l.36.12c.71-.38,1.85-.22,2.62-.56a3.72,3.72,0,0,1-.94.65l-.1-.07c-.07.06-.47.15-.44.29h.27a3.16,3.16,0,0,0,1.09-.22,2.74,2.74,0,0,1,.28.11v-.06c.17.09.15.1.09.16l0,0a.4.4,0,0,0,.36.13,5.25,5.25,0,0,0,.77-.1c.32,0,.68-.1,1-.1a1.3,1.3,0,0,1,.54.1c.26,0,0-.07.35-.11.83.26,1.44.54,2.35.82.33-.12.37-.18,0-.44l.7.21c-.75.32,1.22.74.41,1.05a2,2,0,0,0,1,.29.38.38,0,0,1,.38-.21,1.24,1.24,0,0,1,.3,0c.67.32.51.22,1.06.51.1.18-.13.19-.13.32,1,0,.71.52,1.59.68a10.53,10.53,0,0,0,1.3.15c.23,0,.4,0,.43-.14.75.15.71.35.6.56l.61.14a49.83,49.83,0,0,1-5.93-1.45,27.35,27.35,0,0,0,6.7,2.38,12.6,12.6,0,0,0,2.29.22,8,8,0,0,0,4.55-1.23c.19.36,1,.57,2,.57a7,7,0,0,0,1.11-.09,10.13,10.13,0,0,0,1.91-.5c.5-.21.81-.41.8-.48a11.77,11.77,0,0,0,1.32-1.09c.42-.36.77-.73,1.13-1.1-.5.51-1,1-1.63,1.49.58-.49,1.13-1,1.63-1.49l.05-.06h0c2.3-2.45,4-5,6-6.83a8.18,8.18,0,0,1,3-1.92,4.77,4.77,0,0,1,1.33-.2,4.45,4.45,0,0,1,1.5.27A11.82,11.82,0,0,1,585.84,80c1.08.66,2.39,1.63,4,2.6a16.57,16.57,0,0,0,5.56,2.21,17.6,17.6,0,0,0,3.29.3c.53,0,1,0,1.42,0a17.29,17.29,0,0,0,2-.31,15.63,15.63,0,0,1-2.26.25,17.52,17.52,0,0,0,6.93-3.35,9.29,9.29,0,0,0-1.52.32,11.7,11.7,0,0,0,1.07-.52c.34-.47,1-1.07,1.6-1.73a9.58,9.58,0,0,0,.86-1,5.27,5.27,0,0,0,.61-.89q0,.09.06.09c.18,0,.68-.56,1-1.1l-.3.18c1.74-2.5,2.46-5.49,3.5-7.23a1,1,0,0,1,.44-.45,10.3,10.3,0,0,1,.91-1.53s0,0,.08,0a1,1,0,0,0,.4-.17,1.69,1.69,0,0,1,.34-.17s0,0,0,.14a5.25,5.25,0,0,1,.53-.62c.24-.19.49-.35.74-.53s.54-.28.81-.41a8.25,8.25,0,0,0,.85-.41,9.51,9.51,0,0,1,2-.2,24.09,24.09,0,0,1,5.56.83c2.73.68,5.52,1.61,8.38,2.36l-.1-.16c2,.49,3.9.55,6.31,1.25a19.82,19.82,0,0,0,3-.18,6,6,0,0,0,1.24-.33,1.87,1.87,0,0,0,.72-.5,6.31,6.31,0,0,0,1.16-.38c.31-.17.58-.34.84-.5l.72-.63c.21-.26.49-.49.75-.82h0c-.19,0,0-.34.17-.63s.27-.48.16-.48a.45.45,0,0,0-.21.12c-1,.43-.81.73-1.67.91l.08.08a5.9,5.9,0,0,1-2.64.56,13.81,13.81,0,0,1-3.23-.46A57.14,57.14,0,0,1,635,64c-3.39-.94-7-2.69-11.18-3.34a18.75,18.75,0,0,0-2.65-.2"/><path class="cls-3" d="M572.92,111.33l0,.12h0a.23.23,0,0,0,0-.12m-.34-.42c0,.06-.05.11-.08.18h0l.08-.18m.1-.26s0,0-.06.06,0,.08,0,.2c.08-.15.12-.26.1-.26m89.39-21.41-.07.15.07-.15m-89.62,23.61s0-.08,0-.21a.15.15,0,0,1,.11.16.21.21,0,0,1-.09,0m.5-1.6.17-.08a1.76,1.76,0,0,1-.3.42s0-.1,0-.14c-.19,0-.54.41-.75.61a.16.16,0,0,0,.12,0h.07a1.35,1.35,0,0,1-.2.31l-.07.09-.07,0a2,2,0,0,1-.18.23.31.31,0,0,1-.16.06l.22-.21,0,0c-.08,0,.16-.5.41-1v0a1.49,1.49,0,0,0,.27-.15,1.09,1.09,0,0,1,.37-.18.05.05,0,0,1,0,0l0-.08M680.26,74a27.77,27.77,0,0,0-4.17.31,34.51,34.51,0,0,0-11,4.42,11.86,11.86,0,0,0-1.31,1c-.42.34-.86.67-1.27,1a25.12,25.12,0,0,0-2.28,2.34A40.62,40.62,0,0,0,657,87.65a3.42,3.42,0,0,1-1.41,1.12,5.35,5.35,0,0,1-4.28,2.13,8.55,8.55,0,0,1-2.27-.35l.14.06c-1.48-.42-2.5-1.27-4.12-2,0,0,0,0-.07,0s-.25-.06-.35-.07a4.69,4.69,0,0,0-1.67-.8,19.63,19.63,0,0,0-4-1,13.45,13.45,0,0,0-2-.14,11.27,11.27,0,0,0-2.44.24c-1.22.25-2,.57-2.24.57h0a4.72,4.72,0,0,0-.61.27,24.76,24.76,0,0,0-9.85,6.38c-.35.66-.75,1.35-1,1.93-.52.29-.34.62-.83,1.08-1.48.55-2,1.27-1.68,1.27a.91.91,0,0,0,.3-.09,23.43,23.43,0,0,1-2.76,2.72c-.37.39-.74.77-1.13,1.13a1,1,0,0,1-.68.33l-.21,0a1.84,1.84,0,0,1-.81.46c-.2,0-.4.11-.92.27h0a5.79,5.79,0,0,0-1.29.61,6.37,6.37,0,0,1-.87.39,2.29,2.29,0,0,1-.5.13h0l.17,0h-.13c-1.18,0-1.86-.64-3-.93-1.69-.53-3.65-1.41-6-2.13a19,19,0,0,0-3.66-.78,12.64,12.64,0,0,0-1.83-.14c-.23,0-.44,0-.66,0-.38,0-.75,0-1.11,0,0,.09.08.12.21.12l.24,0h.26c.18,0,.34,0,.36.18h-.36a21.24,21.24,0,0,0-7.54,1.19,7.14,7.14,0,0,1-1.29.19h0c-.82.23-.38.35-.95.58l-.2-.22c-.69.61-1.31.32-2,.85,0,.12-.24.28-.5.42a.12.12,0,0,0-.1,0,.89.89,0,0,0-.36.17.79.79,0,0,1-.33.17.06.06,0,0,1-.07,0v0a2.33,2.33,0,0,1-.45.25,36.09,36.09,0,0,0-2.45,3l-.15,0c-.3.24-.36.48-.23.48l.1,0-.45.33,0-.06-.44.33h-.08c-.09,0-.18,0-.15-.2a2.17,2.17,0,0,1-.69.69,18.8,18.8,0,0,1,2.69-1.17c-.23.31-.87.58-1.16.86a11.51,11.51,0,0,0-2,1c-.12.12,0,.45-.37.58h-.06c-.24,0-.29.29-.61.36a2.79,2.79,0,0,1,.79-.74.17.17,0,0,0-.1,0c-.26,0-.74.48-1,.6,0,.15-.64.55-.92.9,0-.08,0-.12-.08-.12a.64.64,0,0,0-.28.15l0,.08,0-.08a1.2,1.2,0,0,1-.3.15c-.24.17-.31.37-.18.37h0a.09.09,0,0,0,.09,0,.18.18,0,0,0,.09,0,10.11,10.11,0,0,0-.68,1.29h0l.07,0s0,0,.06,0a.08.08,0,0,0,0,.1s0,.09.06.09l.08,0,0-.13a.56.56,0,0,1,.31-.16c.22,0,.26.34.31.67s.11.66.34.66a.75.75,0,0,0,.41-.2l-.21,0c-.34,0,.2-.49.61-.91h.08a1.81,1.81,0,0,0,.8-.3c.3-.3.1-.26.11-.38a2.2,2.2,0,0,1,.57-.23.1.1,0,0,1,.1.06c.11-.37.48-.24.73-.54s-.07-.06.05-.29a15.72,15.72,0,0,1,1.34-1c.23,0,.79-.05.67.37-.13.1-.2.13-.25.13s-.07-.07-.07-.13,0-.13,0-.13-.12,0-.26.17c.52.07-.49.53-.42.86a2.33,2.33,0,0,0,1-.68l-.1,0a3,3,0,0,1,1.27-.92c0,.16.21.13,0,.33l.43-.3c0-.05,0-.11,0-.11l-.08,0a.87.87,0,0,1,.57-.39h0a7.73,7.73,0,0,0,1-1,9.59,9.59,0,0,1,1-1h0a1.1,1.1,0,0,1,.38-.15c-.27.21-.64.54-1,.86-.55.53-1,1-1,1l0,0a14.77,14.77,0,0,0,1.75-1.53,6.69,6.69,0,0,1,1.8-1.33h0c.23-.15.52-.35.39-.44a.41.41,0,0,1,.15,0c.09,0,.07.08.06.15s0,.15.12.15h0s-.06,0,0-.09h.37a4.32,4.32,0,0,1,1.1-.65,3.67,3.67,0,0,0,1.15-.65,3,3,0,0,1-.67.9l-.11,0c0,.06-.39.27-.31.4a2.8,2.8,0,0,0,1.19-.6h.29l0-.05c.18,0,.17,0,.14.12l0,0a.28.28,0,0,0,.16,0,2.8,2.8,0,0,0,1-.45,2.85,2.85,0,0,1,1.23-.45h0c.22-.11,0-.07.28-.22a3.54,3.54,0,0,1,.45,0h1.49l.36,0c.26-.2.28-.27-.08-.44l.67,0c-.56.51,1.21.38.58.9a1.27,1.27,0,0,0,.56.11,2,2,0,0,0,.34,0c0-.11.09-.29.49-.29h0a7.37,7.37,0,0,1,.93.38c.09.17-.1.21-.1.34l.18,0c.58,0,.47.45,1.09.57a8.76,8.76,0,0,0,1.16.18c.14,0,.25,0,.29-.1.62.21.56.41.42.6l.5.21c-.84-.29-1.65-.58-2.43-.82a11.52,11.52,0,0,0-1.16-.28,7.91,7.91,0,0,0-1.18-.22,22.85,22.85,0,0,1,2.5,1.06c.84.41,1.74.87,2.72,1.28a13.32,13.32,0,0,0,3.19.9,10.15,10.15,0,0,0,1.1.07,6.35,6.35,0,0,0,2.22-.37c.12.56,1.5,1.1,2.95,1.19h.44a5.06,5.06,0,0,0,2.38-.41,22,22,0,0,0,2.8-1.71,18.85,18.85,0,0,1-1.9,1.16,18.85,18.85,0,0,0,1.9-1.16,55.1,55.1,0,0,0,6.92-6.31,69.74,69.74,0,0,1,6.39-6c1.19-1,3.44-2.65,5.54-3a6.48,6.48,0,0,1,1.15-.11,7.06,7.06,0,0,1,1.85.26,12.49,12.49,0,0,1,2.56,1l1.22.65c-.68-.41-.68-.41-1.33-.78,1.83.44,3.69,1.11,5.67,1.72a5.67,5.67,0,0,0-1-1c.29.16.57.33.89.49h.09a11,11,0,0,1,2,.35,11.54,11.54,0,0,0,2.13.3h.11c-.28.2.6.4,1.44.43l-.32-.16c.21,0,.43,0,.65,0a9,9,0,0,0,4.17-1A13.87,13.87,0,0,0,659.25,92a1.76,1.76,0,0,1,.63-.44c.47-.63.9-1.25,1.29-1.85a.08.08,0,0,0,.07,0c.1,0,.29-.16.47-.32a1.73,1.73,0,0,1,.39-.33s0,0,0,.15a10,10,0,0,1,1.16-1.79,12.5,12.5,0,0,0,1.25-1.71,28.35,28.35,0,0,1,13.63-7.2l-.14-.1a17.39,17.39,0,0,1,4.45-.86,8.61,8.61,0,0,1,1.39.12c.42-.06.89-.1,1.37-.14h1.43a6.61,6.61,0,0,0,2.15-.23c.49.12.92.19,1.3.28s.73.17,1.08.25l1.09.24c.38.13.78.27,1.26.47-.07-.11,0-.15.08-.15a2.58,2.58,0,0,1,.61.13,3.73,3.73,0,0,0,.57.13c.1,0,.11-.06-.08-.23-1-1-1.27-.73-2.2-1.55V77a26,26,0,0,0-12.21-3"/><path class="cls-3" d="M46.84,368.79a0,0,0,0,1,0,0H47l-.11,0m.52-.32.22.07s0,0,0-.06,0,0,0,0l-.15,0m-.17-.06h0l.17.06-.17-.06M76.8,352.72l-.16,0,.16,0M45.58,368.6h0c-.08-.08,0-.12,0-.12h.1a.14.14,0,0,1-.13.11m0-.7a.31.31,0,0,1-.06-.16l.2.19s0,0,0,0a4.79,4.79,0,0,1,.94.32c.09.22.4.55.27.62l.08,0,.07.15a1.55,1.55,0,0,1-.39-.25l.13,0c0-.17-.38-.47-.56-.65-.08.08,0,.16-.07.19a2.19,2.19,0,0,1-.29-.16l-.09-.07,0-.06-.21-.14m43.54-15.35.22.16c-.52,0-1.07,0-1.62,0-1.26,0-2.57,0-3.84.07-.43,0-1,0-1.25.06l-.87.06-1.64.08h-.08a1.12,1.12,0,0,1-.56-.13l-2,.31c.12-.3-1.41-.16-.89-.36-1.39.44-2.85.37-4.16.89a75.32,75.32,0,0,0-15.15,3.44l.15.08c-1.71.62-3.1,1.59-5.25,2-1.39.82-3.45,1.66-3.83,2.47a42.64,42.64,0,0,0-3.83,1.9c.51.15-1.33.87-.66.87h.28a2.78,2.78,0,0,0,1-.16,2.62,2.62,0,0,1,.94-.16h.07l-.06-.09c4.44-1,8.87-2,13.36-2.85a71.81,71.81,0,0,1,9.34-1.88c3.37-.61,7-1.19,10-1.65a3.44,3.44,0,0,1,.43,0,6.44,6.44,0,0,1,1.39.26q.92-.09,1.92-.15l1-.06c.45,0,.93,0,1.47-.08,0,.09,0,.18,0,.27l0-.06a2.61,2.61,0,0,1-.41.77,2.14,2.14,0,0,0-.37.64l.09.13h0a4.23,4.23,0,0,0-.57,1.38c-.28.87-.63,2-1,3.16a35,35,0,0,1-1.64,4.86c-.05.16-.1.33-.16.49-1.53,3-3.73,5.87-4.91,8.52-.09.66-.24,1.37-.27,2-.39.38-.11.62-.43,1.16-1.14.82-1.44,1.6-1.21,1.6a.49.49,0,0,0,.3-.18c-.47,1.21-1.13,2.34-1.61,3.38-.19.5-.37,1-.56,1.51a1,1,0,0,1-.66.72,2.11,2.11,0,0,1-.19.44l-.13.15a1.5,1.5,0,0,0-.38.37h0c-.13,0-.22.41-.26.78a3.31,3.31,0,0,1-.23,1l0-.14c0,.06,0,.08-.06.08s-.18-.18-.26-.29a4.29,4.29,0,0,1-.29-.5,3.25,3.25,0,0,0-.42-.74,3,3,0,0,0-.32-.34L68,387.69l-2.28-1.9c-1.52-1.26-3-2.49-4.3-3.71-.23.21.63.47.39.81-1.54-1.42-2.86-3.12-4.38-4.58a4.94,4.94,0,0,1-.52-.95c-.41-.54-.39-.16-.73-.52l.15-.25c-.69-.32-.56-.95-1.13-1.33h0c-.11,0-.27-.13-.42-.28.2-.22-.55-.5-.34-.67h0a1.28,1.28,0,0,1-.28-.32c-.27-.11-2.7-1.32-3-1.43l-.06-.13a.6.6,0,0,0-.36-.19c-.09,0-.13.06-.07.16l-.33-.35,0,0-.32-.35a.17.17,0,0,1,.17-.25h0a1.44,1.44,0,0,1-.67-.51,22.88,22.88,0,0,1,1.23,2.26c-.3-.15-.61-.67-.88-.9a11.4,11.4,0,0,0-1-1.72c-.11-.09-.42.07-.55-.27,0-.28-.27-.26-.35-.58a2.29,2.29,0,0,1,.71.64c.15-.23-.42-.69-.55-.92-.14,0-.52-.53-.84-.76.2,0,.09-.17,0-.33l-.11-.05.11.05a.87.87,0,0,1-.14-.27.44.44,0,0,0-.28-.2c-.05,0-.07,0-.07.08s-.06.09,0,.16l-.23-.1a8.91,8.91,0,0,0-1-.42s0,0,0,0,0,.11,0,.13h0a.07.07,0,0,0-.06,0c-.07,0-.13,0-.06.14l.13,0c.76.89-1.83.35-1,1.37-.05-.22,0-.3,0-.3s.49.34.79.61a1.23,1.23,0,0,0,.28.82c.12.1.18.13.22.13s.07-.06.14-.07c.09.21.33.54.17.63.36.06.24.43.54.63.08,0,.11.06.14.06s0,0,0,0,0,0,0,0l.08,0c.31.35.76.84,1,1.13,0,.21.09.7-.27.7h0c-.48-.53.49-.11-.08-.59,0,.11,0,.15-.08.15s-.2-.11-.32-.22-.27-.23-.38-.23h-.06a1.84,1.84,0,0,0,.71.88l0-.09a2.85,2.85,0,0,1,1,1.08c-.11,0-.12.12-.19.12a.28.28,0,0,1-.13-.06l.33.36h.07s.06,0,0-.11a.8.8,0,0,1,.43.48c-.06.14,2.28,1.38,2.17,1.39a1,1,0,0,1,.22.32c-.65-.49-2.1-1.46-2.13-1.46l0,0c.1.34,3.37,2.27,3.35,2.61a1,1,0,0,0,.43.27.08.08,0,0,0,.07,0c.28.35-.28.1-.14.42H53l.09.34c.66.31,1.2,1.2,1.93,1.47a2.5,2.5,0,0,1-1.06-.2v-.11c-.07,0-.28-.15-.41-.15a.08.08,0,0,0-.07,0,2.33,2.33,0,0,0,1,.82l.11.25,0,0c.06.16,0,.16,0,.17h0c-.08.5,1.46,1,1.91,1.67a.22.22,0,0,0,.12,0h0a.46.46,0,0,1,.17.06,19.42,19.42,0,0,0,1.42,1.78l.17,0c.17,0,.19-.09.09-.37l.45.47h0c-.34,0-.2.27-.06.54s.29.54,0,.54h-.06a1.46,1.46,0,0,0,.67.66.44.44,0,0,1,.22-.07.65.65,0,0,1,.41.19c.38.54.3.4.6.86,0,.2-.2.12-.26.23.75.38.32.73.93,1.2.34.24.94.72,1.22.72a.14.14,0,0,0,.11,0c.49.43.36.58.17.71l.39.37c-1.34-1.08-2.64-2.32-3.91-3.57a28.45,28.45,0,0,0,4,4.66,14,14,0,0,0,1.15.92l.6.4.15.09.24.16.53.34a10,10,0,0,0,3.62,1.59,4.92,4.92,0,0,0,1,1.69c.28.34.61.71,1,1.09l.55.56c0,.06.07.08.09.08s.08-.08.12-.12l.18-.24a13.51,13.51,0,0,0,1.84-3.08c.26-.69.53-1.38.79-2.05l.74-1.86-1.06,2.55,1.06-2.55.29-.71a6.14,6.14,0,0,0,.25-.62l.34-.9c.23-.61.49-1.2.75-1.8.52-1.2,1.1-2.4,1.71-3.6,1.23-2.41,2.6-4.83,4-7.32,1.53-2.74,5.12-10.49,6.57-13.38l.62-1.26-.75,1.38c.23-1.32,1.45-5.24,2.22-7.77a18.29,18.29,0,0,0-1.25,1.84l.63-1.36a14.33,14.33,0,0,1,.82-3.52,15,15,0,0,0-1.5.11c.57-.23-.42-.28-1.33-.32"/><path class="cls-4" d="M625.9,465.49c.1.14.21.27.32.41l-.32-.41"/><path class="cls-3" d="M644.45,456h-5.19c-.78,2.22-1.55,4.46-2.31,6.68l-4.1,11.82-.08.17-.15-.17-.26-.33a5.9,5.9,0,0,1-.37-.55l-.67-.67-.34-.36-.17-.18-.27-.3c-1-1.12-1.94-2.24-2.84-3.41l0,0a9.18,9.18,0,0,0-1.12-1.88,19.49,19.49,0,0,1-1.19-1.88,4.18,4.18,0,0,1,.47.54,63.73,63.73,0,0,1-5.2-7.87c-.3-.55-.61-1.09-.9-1.63h-5.73a93.66,93.66,0,0,0,12.83,19c.21.26.75.85,1.15,1.28l1.23,1.37,2.33,2.64,2.33,2.63.59.67c0,.07.07.09.09.09s.08-.15.12-.22l.15-.37.64-1.54L643.74,458c.24-.67.47-1.34.71-2"/><path class="cls-3" d="M586.43,377.93a3.39,3.39,0,0,0-.53.82c-1.42,2.29-2.09,3.53-2.75,4.67a33.43,33.43,0,0,1-2.57,4.05l.16-.06a112.53,112.53,0,0,1-14.4,17.92,102.32,102.32,0,0,1-8.49,7.77c-1.13,1-2.67,2.14-4.1,3.19l-2.18,1.62-1.1.81-1.2.83-9.45,6.52a7.18,7.18,0,0,0,.72.05l1,0,2,0,4-.11,8-.22,12.16-.33c7.32-.37,15-.63,22.66-.87l5.78-.18,1.25,0a14.13,14.13,0,0,1,3.63.37,4.6,4.6,0,0,1,2.87,2,13.38,13.38,0,0,1,1.66,4.31c.42,1.82.88,4,1.41,6.07.29,1,.57,2.08.86,3.12l1,3.1a95.29,95.29,0,0,0,4.94,11.91c.14.27.27.55.41.82h5.73c-1.29-2.34-2.48-4.7-3.6-7A91.36,91.36,0,0,1,611,432.55c-.32-1.44-.62-3-1.1-4.51a14.5,14.5,0,0,0-2.26-4.63,9.39,9.39,0,0,0-4.47-3.23,15.89,15.89,0,0,0-5-.75h-.28c-1.51,0-2.92.09-4.34.15l-4.53.2-9.07.43-17.92.92c.15,0,.24.07.44.1l-5,.39-2.82.23L553,422l-.77.06H552l0,0,.24-.18,1.86-1.39,2.06-1.61c.73-.55,1.47-1.18,2.26-1.79s1.51-1.25,2.5-2c2.64-2.55,5.73-5.72,8.23-8.67a43.43,43.43,0,0,0,5.07-7,81,81,0,0,0,5.67-8.22c1.49-2.49,2.91-5,4.78-8.6-.11.15-.18.21-.21.21s0-.21.18-.56c.22-.54.6-1.38,1-2.18a11,11,0,0,0,.83-2M586.3,370v0m-1.14-7,.11.47c0-.06,0-.11,0-.15a1,1,0,0,0-.12-.32m-.58-.23c0,.26.12.58.2.94v0c-.08-.37-.15-.68-.2-.92m-.2-.84a1.4,1.4,0,0,0,0,.33,0,0,0,0,1,0,0,2.15,2.15,0,0,1,.16.54c-.12-.52-.19-.84-.2-.84m2.07,6.23c0-.07,0-.11.07-.11s.08.06.12.19c.05.32.05.47,0,.47a1.69,1.69,0,0,1-.21-.55m-1.37-5.48,0-.78c.1.47.24,1.29.35,2.14,0-.2-.09-.4-.13-.57a39.12,39.12,0,0,0,.45,4.09c.11,0,.07-.43.12-.43h0c.09.4.19,1,.3,1.51,0,.16.05.33.08.49l0,.31c.08.38.15.81.22,1.18a4.79,4.79,0,0,1,0,.72,9.85,9.85,0,0,1-.19-1.25q0,.15,0,.15c-.06,0-.57-2.09-1-4.18,0-.34,0-.79-.08-1.25a7.94,7.94,0,0,1-.06-1.82h0l-.08-.32m104.44-20.55,0-.23,0,.23m0-.27v0M583.44,309.47v0l0,.2,0,.41,0,0a15.88,15.88,0,0,0-.33,3.21,17.3,17.3,0,0,1-.28,3l0,0,0,.08c-.07,1.31-.1,2.25-.24,3.85,0,.31,0,1,0,1.85,0,.54,0,.69,0,1s0,.62,0,1c0,1.38.12,3.1.2,4.83.18,3.45.45,6.9.52,7.57l0,.63a5.43,5.43,0,0,0,.24,2s.06-.15.07-.49l0,2.29,0-.26.06,2.28c0,.27-.06.57-.14.57s-.09-.09-.15-.31a38.61,38.61,0,0,1,.29,4c0-3.6.11-8.06.39-11.81.1,1.54,0,4.32.09,6-.15,2-.12,6.11-.06,9.3a10.65,10.65,0,0,1,.41,2.76,28.6,28.6,0,0,0,.1,3.13,40.31,40.31,0,0,1-.42-4.54c-.26.28.1,3.76.14,5,.13.56.33,3.54.61,5.39-.05-.11-.08-.16-.11-.16a4.14,4.14,0,0,0,0,1.4c0,.18.07.37.11.56,0-.18-.07-.37-.11-.54,0,.49.07,1,.07,1.38a5.26,5.26,0,0,0,.32,1.69s0,0,0-.16l0,0s.06-.19,0-.48c.07.36.15.73.23,1.09.49,2.34,1,4.61,1,4.61a.82.82,0,0,0,0-.1c0-.29,0-.39,0-.39a.05.05,0,0,1,0,0c0,.14.07.23.09.23l0,0c0,.08.07.14.1.14s0-.1,0-.41l-.15-.5c-.16-1.27-.12-1.7,0-1.7s.42.53.69,1.06.56,1.07.72,1.07.2-.54,0-2.17c0,.7,0,1-.07,1a30.38,30.38,0,0,1-.81-4.72,18.87,18.87,0,0,0-.05-3.66c-.22-1.79-.23-1-.35-1.37a12.71,12.71,0,0,1,0-2.69h0c-.33-1.37-.06-2.24-.27-3.9-.07-.54-.1-.67-.12-.67s0,0,0,.06,0,.06,0,.06-.05-.09-.1-.39c-.14-2.22-.3-5.33-.33-7.1.1-.51.23-1.81.43-1.81s.14.15.22.53c0,1,0,1.31,0,1.31s-.08-.12-.12-.23-.08-.23-.11-.23a4.6,4.6,0,0,0,0,1.39c.05-.22.08-.31.11-.31.19,0,.21,3.48.5,4a44.2,44.2,0,0,0-.16-5.26l0,.38a49.1,49.1,0,0,1-.16-6.79c0,.12.07.14.11.14h.06s.09.09.12.73l0-2.29a1.09,1.09,0,0,0-.08-.32s0,.1,0,.39a14.83,14.83,0,0,1,0-3c.06-.12-.1-3.16-.19-6.13s-.14-5.69-.11-5.69h0c0-.76.1-1.22.15-1.65,0,.14,0,.28,0,.43,0,1.32,0,3.28,0,5.12,0,3.22.15,6.24.16,6.24v-.2c.08-.7-.08-5.4,0-10,0-2.1,0-4.34.12-6.11,0-.11,0-.22,0-.33l.25.15.48.27.81.48a7.28,7.28,0,0,1,.91.61,12.41,12.41,0,0,0,2,1.08s0,0,0-.07c.64.45.7.54.6.54l-.13,0-.2,0c-.09,0-.09.06.26.34,0,0,0,0,0,0s.09,0,.27.14l1.07.91c2.82,1.56,6.5,4.5,9.34,6.3a42.23,42.23,0,0,1-3.75-2.06l-.26-.28a13.88,13.88,0,0,0-1.77-1l0,0c1.63,1.24,3.06,2.25,4.87,3.42.29.26.64.58.86.8v-.07c.32.33.41.43.37.43a.59.59,0,0,1-.17-.07l-.14-.07c.78,1.07,6.47,4.74,9.11,7.41.86.68.13,0,1.2.86,2.72,2.68,4.53,4.58,7.26,7.49a3.69,3.69,0,0,0,.83.55c.1,0-.1-.3-.63-1,.7.73,1.4,1.48,2.17,2.19a1.5,1.5,0,0,0-.52-.27c-.22,0,.52.82,1.36,1.6s1.76,1.44,1.52,1.44a3.14,3.14,0,0,1-.72-.26,9.31,9.31,0,0,0,4.88,2,1.79,1.79,0,0,1,.69-.14c.43,0,1.15,0,2.36-.17a17.82,17.82,0,0,0,2.78-.43c.53-.12,1-.23,2.22-.56h.1c.42,0-.33.32-.2.4,3.58-1.46,3.26-.78,6.64-2,2.1-.79,6.27-2.27,6.29-2.57a12.15,12.15,0,0,1,2.61-.74c.23,0,.19.12.1.25l2.33-.78-11.49,4-5.87,2a22.43,22.43,0,0,1-6.85,1.4h.33a25.38,25.38,0,0,0,7.24-1.37l6.73-2c4.51-1.4,9-2.85,13.42-4.35a175.21,175.21,0,0,0,23.13-9.39,1.42,1.42,0,0,0,.33,0,18,18,0,0,0,3.28-.57c.91-.22,1.92-.48,3-.77l1.51-.42.22,0a1.15,1.15,0,0,1,.24.06v.11l0,.12c0,.13,0,.21,0,.21l0,.07v.59l0,1.32c0,.88-.08,1.76-.13,2.64s-.12,1.78-.21,2.66-.14,1.56-.24,2.34v.11l0,.23a95.23,95.23,0,0,1-3.68,17c-.87,2.83-1.9,5.64-3.06,8.43-.57,1.4-1.21,2.76-1.84,4.15s-1.36,2.87-2,4.48a18.73,18.73,0,0,0-1.28,5.35,12,12,0,0,0,1.08,5.95,21.57,21.57,0,0,0,3,4.58c1.06,1.22,2.11,2.45,3.17,3.69l12.69,14.82,9.69,11.23,2.69,3.11.46.58,0,0h0l-.1,0-.18.06-.18.07-.36.09-.35.09-.18,0-.1,0-.28,0-2.24.37a37.24,37.24,0,0,1-4.36.25,67.57,67.57,0,0,1-13.94-1.76c-5.77-1.25-10.93-2.58-14.69-3.36-1.07-.25-2.17-.46-3.28-.65s-2.21-.41-3.36-.55c1.9.26,2.79.49,3.72.65s1.85.36,3.65.78a88.22,88.22,0,0,0-13.58-1.39h-.3a22.2,22.2,0,0,0-3.37.23,12,12,0,0,0-4,1.33,9.31,9.31,0,0,0-3.26,3,15.59,15.59,0,0,0-1.64,3.35,20.93,20.93,0,0,1,1.07-1.81,13.66,13.66,0,0,1,.92-1.28,9.85,9.85,0,0,1,2-1.91,10.84,10.84,0,0,0-3.19,4.19c-.34,1-.68,2.29-1.07,3.6s-.87,2.8-1.35,4.28c-1,3-2,5.94-2.54,7.87,0-.11,0-.16,0-.16a34.29,34.29,0,0,0-2,4.87l.51-1c-1.05,2.9-2.12,5.94-3.19,9h5.19c2.26-6.49,4.56-13.1,6.68-19.37l-.25.67c.63-1.83,1.24-3.54,1.84-5.19a15.1,15.1,0,0,1,1.84-3.93,3.73,3.73,0,0,1,1.09-1,5.13,5.13,0,0,1,1.54-.53,12.77,12.77,0,0,1,2.35-.19c.7,0,1.47,0,2.28.1,0,0,.16,0,.41,0h1.23c.15.05.93.16,2.19.33s3,.41,5.05.73c4.14.68,9.58,1.88,15.22,2.93a83.86,83.86,0,0,0,14.87,1.65l1.3,0h.27c1.06,0,2.06-.13,3-.2l1.39-.13,1.22-.22a28.42,28.42,0,0,0,3-.6l3.2-1.08a20.4,20.4,0,0,0,2-.77l2.07-.85,1-.43.21-.11-.16-.21-.34-.42-1.35-1.68c-.86-1.11-1.93-2.29-2.91-3.46l-2.18-2.58-7.64-9.17c-5-6-9.89-11.83-14.46-17l-3.26-3.25c-1.09-1.09-2.06-2.05-2.79-2.89l-1.16-1.94a4.82,4.82,0,0,1-.7-2.22,13.23,13.23,0,0,1,1-3.87c.44-1.13.88-2.07,1.16-2.74s.42-1.07.35-1.07-.31.36-.75,1.15c.55-1.33,1.21-2.71,1.84-4.15s1.22-2.84,1.82-4.23c1.12-2.82,2.14-5.6,3-8.24.71-2.47,1.36-4.94,1.9-7.47a24.44,24.44,0,0,1,1.25-4.37c.48-2.77.67-3.75.87-4.75s.46-2,.87-5a21.27,21.27,0,0,0,.35-2.93c0-.74.09-1.57.13-2.46,0-1.33.06-2.73.09-4.14s0-2.87,0-4.2v-1.22h-.08l-.12,0-.46.17-1.75.64c-2.19.8-3.83,1.42-4.43,1.6l1.39-.53-3.42,1.15-2.15.67-4.06,1.2c-2.66.77-5.3,1.54-8.39,2.61-8.61,2.9-17.57,6.05-26.38,9.15L640,342.36c-2.16.74-4.4,1.6-6.3,2.15a11.63,11.63,0,0,1-3.15.51,5.73,5.73,0,0,1-1.75-.26,11.39,11.39,0,0,1-4.17-2.87c-.16.06.47.65,1.12,1.18s1.31,1,1.26,1.19a30.87,30.87,0,0,1-5-4.65c-1.75-1.83-3.56-3.61-5.39-5.37a141.07,141.07,0,0,0-11.58-10c-1.41-1.18-3.14-2.64-3.77-3.2-2.6-2-1.67-1-3.61-2.39l-.11-.41c-.76-.44-1.39-.85-2-1.25l-2-1.42c-1.95-1.33-4-2.65-6.64-4.2a7.65,7.65,0,0,1-1.4-.71l-1.25-.73-.69-.41-.08-.05,0,0"/></svg>