<svg id="Capa_1" data-name="Capa 1" xmlns="http://www.w3.org/2000/svg" xmlns:xlink="http://www.w3.org/1999/xlink" viewBox="0 0 62.36 61.18"><defs><style>.cls-1{fill:none;}.cls-2{fill:#5da6bc;}.cls-3{clip-path:url(#clip-path);}</style><clipPath id="clip-path"><rect class="cls-1" x="-177.54" y="3548.77" width="1341" height="1296.03"/></clipPath></defs><path class="cls-2" d="M32,32.43a3.25,3.25,0,0,0-3.39,0A4.48,4.48,0,0,0,26.7,35.2a3.71,3.71,0,0,0,.11,2.44c.92,2.07,4.39,2.25,5.95.55S34,33.74,32.53,32"/><path class="cls-2" d="M33.06,31.53c-.08,0-.23.18-.18.19l.29-.2Z"/><path class="cls-2" d="M32.71,32.12a2.56,2.56,0,0,0,.66-.42c-.29.17-.19.07-.53.28-.05,0,0-.12.15-.19-.08,0,0-.09-.15,0s-.16.25,0,.17A1,1,0,0,1,32.71,32.12Z"/><path class="cls-2" d="M33.3,35.21l0,0Z"/><path class="cls-2" d="M32.8,36.9s0,0-.06,0Z"/><path class="cls-2" d="M32.34,37h0S32.32,37,32.34,37Z"/><path class="cls-2" d="M33.3,35.21l-.11.06C33.3,35.27,33.27,35.24,33.3,35.21Z"/><path class="cls-2" d="M33.67,32.05s-.05,0-.09,0h.05Z"/><path class="cls-2" d="M32.92,34.47v0l-.13,0Z"/><path class="cls-2" d="M32.7,33.92a3.13,3.13,0,0,0,.4-.12c-.12,0-.18.05-.2,0Z"/><path class="cls-2" d="M32.75,32.81h0Z"/><path class="cls-2" d="M32.92,34.89l-.1,0Z"/><path class="cls-2" d="M31.71,30.77v.05S31.72,30.77,31.71,30.77Z"/><polygon class="cls-2" points="31.99 32.49 31.97 32.5 31.88 32.63 31.99 32.49"/><path class="cls-2" d="M31.79,37.11h0S31.77,37.09,31.79,37.11Z"/><path class="cls-2" d="M28.35,37.66c-.12.23-.27.23-.39.5A2.63,2.63,0,0,0,28.35,37.66Z"/><path class="cls-2" d="M33.65,32.08l0,0S33.67,32.08,33.65,32.08Z"/><path class="cls-2" d="M28,38.16h0v0Z"/><path class="cls-2" d="M31.21,37.78l.07.12Z"/><path class="cls-2" d="M32.06,37.69h0Z"/><path class="cls-2" d="M31,38.32s0,0,0,0v0S31,38.28,31,38.32Z"/><path class="cls-2" d="M30.52,38.44l0,.05h0Z"/><path class="cls-2" d="M29.23,30.87a1.86,1.86,0,0,1,.1.25C29.27,30.92,29.37,30.82,29.23,30.87Z"/><path class="cls-2" d="M33.54,32.14c.06,0,.09-.06.11-.06h0S33.55,32.12,33.54,32.14Z"/><path class="cls-2" d="M31.67,40.54h-.14A.17.17,0,0,0,31.67,40.54Z"/><path class="cls-2" d="M25.61,34.66l0,0S25.57,34.65,25.61,34.66Z"/><path class="cls-2" d="M31.18,40.68a.73.73,0,0,0-.11-.19v.08Z"/><path class="cls-2" d="M29.33,31.12Z"/><path class="cls-2" d="M30.06,30.3c-.13,0,0,.38,0,.61s-.09-.28-.16-.47c-.09.11-.1.47-.17.47a.86.86,0,0,1,0-.17c0,.32-.28.07-.29.47l0-.09a4.36,4.36,0,0,1,.15.51c-.05,0,0,.26-.1,0,0,0,0-.1,0-.18l0,.12c-.14-.34,0-.14,0-.4-.07.14-.09.46-.19.39-.13-.34.14-.17-.06-.44l.16.09c-.25-.51.09,0-.17-.54-.2,0-.13.23-.33.2,0,.2.11.27.15.47-.07.4-.52-.76-.5-.25.05.24.24.64,0,.48l-.15-.37c-.17.05.19.55-.09.4-.05-.16,0-.18,0-.21-.25-.22,0,.23,0,.28l-.2-.3c-.13.14-.13.46-.23.62a.73.73,0,0,0-.2-.26c-.08.29-.42.3-.74.33l.16.28a.33.33,0,0,1-.16-.13c-.14,0,.15.14.21.25s-.18-.07-.23-.15c.09.29.16.68-.19.62l-.06-.08c-.18,0,.44.47.14.4l0-.05c-.26.15-.14.53-.65.51.39.22-.29.16.27.42-.34,0-.43-.07-.69.07-.05,0,.33.21.37.29l-.31-.1.29.2-.38-.07.06.09a.42.42,0,0,1,.24,0c.11.13-.28.17-.44.13l.2.31a.7.7,0,0,1-.23-.14c.29.21-.34-.05-.07.14a1.17,1.17,0,0,1,.25.07c-.21,0-.24.15-.17.27l-.22-.06c-.09.19.05.42,0,.64a.72.72,0,0,1,.53,0h-.35c.21.05.14,0,.39,0,0,.07-.39,0-.5,0l.12.11c-.11,0-.16,0-.29,0,.21,0-.35.18,0,.24H25c0,.24.13.34.16.52.3,0,.24.05.49.07-.08.14-.28.34-.21.5s.25,0,.43,0c-.26.08-.19.23-.4.21a.74.74,0,0,0,.44.38c.09-.07.12-.11.21-.13s-.06.13-.18.18h0c.25,0,.14.26.08.5s-.07.47.22.39h.35c0,.11-.2.09-.26.26.51-.14.27.34.63.25-.33.74.5.29.44.81l.08-.17c.13-.14,0,.12,0,.18.06-.13,0-.18.1-.25.5,0,.78.6,1.26.87.17.08.25-.94.39-.47l-.11.33c.38-.36.71.08,1-.29,0,.08,0,.19,0,.19.08.25.26,0,.24-.21,0,0,0,.18.07.28s.14-.33.2-.08c0,0,0,.08,0,.1s.22,0,.14-.28c.14.11.2-.17.33,0,0-.32.24.11.15-.35.11.47.31.31.32.08,0,.14.11.12.14.32.09,0,.14-.14,0-.37.36.47.13-.54.5.09a7.14,7.14,0,0,1,.41-.83c.25.41-.19.17.07.59.12-.28,0-.7.23-.73.08,0,.09.18.13.26.07-.28.38-.28.35-.6a.2.2,0,0,1,.06.12s.12,0,0-.17l0,.07c-.27-.18-.36-.55-.49-.66.42.45.22,0,.75.55a.51.51,0,0,0-.18-.23s.12,0,.22.18c0-.19-.21-.29-.13-.38.09.06.1.11.19.19-.12-.17-.24-.33-.12-.37s.12.08.11.1c.07-.17-.29-.53,0-.59.37.27.16,0,.51.2l-.05-.15L34,37.76c0-.08-.18-.28,0-.29l.12.13v-.18l-.18,0c-.15-.16-.45-.19-.31-.24s0-.07.26,0h0c-.1-.08-.21-.17-.1-.19s.41.16.49.18c-.3-.15,0-.22-.34-.38a2.4,2.4,0,0,0,.31.11L34,36.78a.5.5,0,0,1,.29,0c.07-.11-.49-.1-.25-.18,0,0,.06,0,.09.05s-.09-.29.05-.39c.39,0,.08.13.41.15,0-.21-.39-.46-.3-.62l0,0c-.55-.07.28-.11,0-.22a1,1,0,0,0,.24,0c.1-.12-.13-.26-.31-.44l.15,0c.12-.07.07-.19.12-.27-.14,0-.12-.06-.33,0,.79-.33-.47-.37.15-.68,0,0,.13,0,.13,0l-.16-.16a2.1,2.1,0,0,0-.32.13c-.14,0-.26,0-.27-.05a.76.76,0,0,0,.5-.15l-.22.05c.39-.19-.48.1-.23-.08l.13,0c-.08,0-.25,0-.23-.07.27-.1.14,0,.36-.05,0-.07-.54,0-.29-.12.08,0,.09,0,.18,0,.29-.16.21-.15.24-.21h0l.1-.16-.08.06c-.72.15-.19-.13-.67-.07.46-.06.25-.08.55-.19a.6.6,0,0,1,.23-.16c-.26,0,.15-.17-.23-.1.09,0,0-.06.22-.16-.1,0-.15.09-.27.14-.37,0,.27-.44-.25-.37-.24,0-.55.11-.76.09a.75.75,0,0,1,.34-.16c.1-.13,0-.17-.09-.16a.65.65,0,0,0,.22-.17c-.05,0-.33.18-.24,0a2.53,2.53,0,0,1,.37-.18c-.12,0-.31,0-.42,0a1,1,0,0,1,.35-.16A.54.54,0,0,0,33,32l-.06.09s.19-.15.24-.16c.22-.08,0,.13-.1.19H33c-.47.38.17.09.2.19l-.39.21.36-.12a.94.94,0,0,1-.37.21c-.15.17.16,0,0,.14l-.07,0h.14c-.08,0-.26.16-.22.1-.17.21.36,0,.09.17h0c.2.05.29-.14.68-.22l-.67.43.29-.13s0,.05-.13.1c.22,0,.12-.07.32-.13-.23.19.21.13-.25.35.23-.07.14-.14.33-.13-.5.23.12,0-.08.2s-.16,0-.37.13c.46-.14-.06.15,0,.16.35-.12.18.06.33.1-.12,0-.15.23-.26.34H32.9c.38-.08.33,0,.43.06a1.31,1.31,0,0,1-.43,0v.05a.4.4,0,0,1,.24,0l-.28.05c0,.06.36.08.19.2.26,0,.72-.2.92-.11a1.65,1.65,0,0,1-.45,0s.12,0,.06,0h-.24c-.1.07.2,0,.18,0a2.62,2.62,0,0,1-.3.06s.08,0,0,0a.59.59,0,0,1-.31.14.83.83,0,0,1,.31,0c0,.08-.24.06-.35.11.15,0,0,.06.31,0,0,0-.14,0-.22.06.14,0,.05.17.37.11h0c.31.13-.16.28,0,.4h-.11c.12.08.06.17.28.25a.68.68,0,0,1-.31,0c.07.06.18.09,0,.14s-.16,0-.12-.07-.27,0,0,.17c-.26-.07-.34,0-.27,0H33s0,.07,0,.1l-.33-.09c-.44,0,.63.42-.08.32.23.11.19,0,.45.1-.06.06-.56-.05-.57,0-.2,0,.45.25.3.29a1.15,1.15,0,0,1,.51.27c-.08,0-.52-.14-.59-.22s0,0,.07,0a.34.34,0,0,0-.2-.11l.11.06c-.13,0-.15.05-.33-.06a.34.34,0,0,0,.25.11c-.2,0-.06.1-.2.12a.67.67,0,0,1,.19.09c-.19,0,.18.16.18.27-.19-.06-.38-.26-.29-.1A1,1,0,0,1,32.1,37c.16.18-.2,0-.25,0l-.07-.08s0,.06,0,.07l.21.13a.27.27,0,0,1-.14-.06,3.93,3.93,0,0,1,.49.4c-.12-.05,0,.16-.21,0,.14,0-.27-.2-.26-.29s0,0,0,0l-.06-.06c-.27-.14.26.26.2.33-.13-.14-.27-.22-.25-.19s.24.2.32.32c-.14-.07,0,.11,0,.12l.08,0c.12.13.08.14.09.21-.11-.1,0-.1-.1-.13.19.27-.3-.18-.2,0-.1-.07-.22-.26-.29-.31.09.22-.21-.17-.14,0a1,1,0,0,1,.23.37v-.21l.16.34s0-.18,0-.15a.71.71,0,0,0,.21.28c-.28-.27,0,.24-.17.08l-.35-.51c-.21-.19.05.34-.13.27l.08.07c.11.23-.05.07,0,.17a2.09,2.09,0,0,0-.21-.34c.07.13-.07,0,.08.4l-.16-.23c-.12-.07.13.58,0,.56a2.73,2.73,0,0,1-.14-.52s-.06,0,0,.12c-.05-.11,0,.29-.08.11,0,.09.07.3,0,.3l0-.1a1,1,0,0,0,.08.36c-.27-.59-.29.13-.5-.41-.06.08-.13.17-.2.19s0-.1,0-.08c-.11-.19,0,.59-.13.39s.05-.19,0-.31c-.06-.68-.12.1-.21-.29l0,0c-.05-.23-.12.26-.21.21a.8.8,0,0,0,0-.11.81.81,0,0,1-.3.55,1.4,1.4,0,0,0,.06-.41s0,.44-.11.5a1.85,1.85,0,0,1,0-.57h.07c0-.37-.09,0-.12-.06l0-.16c-.1,0-.18.45-.29.39v.12c-.15.38,0-.23-.14.05l.08-.41c-.06.08-.25.36-.35.4a6,6,0,0,1,.36-.57s-.14,0-.21.18c0,0,.07-.12.07-.05-.14.3-.26.42-.34.38.29-.74-.14-.26.07-.86-.24.22-.14-.21-.25-.24-.32.54,0,0-.41.52-.06,0-.07,0,0,0a3,3,0,0,1,.16-.37c.11-.15.11-.08.2-.2s.16-.22.25-.37c-.15.18-.23.23-.19.15l-.17.25c-.3.18.32-.43,0-.24l.15-.12c-.1.05,0-.08-.5.18a2.79,2.79,0,0,1,.25-.17c0-.09-.58.1-.34-.12l.15-.06c-.05,0-.29.08-.15,0L28,37c-.05,0-.27,0-.19,0l.17,0c.17-.15-.46,0-.59-.13a1.69,1.69,0,0,0,.66-.24h.06c.05-.11-.4-.17-.58-.32.5-.07.23-.28.53-.38a1.12,1.12,0,0,1-.4-.09c.1,0-.3-.15.12-.07h0c.41.05.31,0,.34-.08l-.54-.13c.81.06-.18-.47.53-.33-.12-.08-.1-.12-.22-.2l.28.11c.1-.06.16-.09.14-.22l.18.11s-.74-.43-.73-.5l.41.18c.05-.12.43,0,.15-.31.05,0,.16.1.16.13s.36,0-.15-.32c.33.22.09-.07,0-.23l.22.18c-.26-.27-.34-.33-.37-.46s.19.14.12.11c.16.05-.18-.22,0-.18l.12.15c.06,0,0-.1-.15-.27s.14,0,.33.14c-.11-.12-.23-.3-.15-.27a.53.53,0,0,1,.12.15c.21.08-.11-.36.14-.19l.12.13c-.07,0-.13.07-.14,0a2.66,2.66,0,0,1,.47.51c-.11-.18-.32-.57-.19-.51l.06.07v0s0,0,0-.05.07,0,.09,0c.14.18.12.06.15.06-.17-.24-.1-.23-.27-.41a.06.06,0,0,1,0,.06v0l0,0-.05.06c-.07-.14-.11-.26,0-.14-.09-.17-.18-.34-.22-.43a8.13,8.13,0,0,1,.59.68,1.18,1.18,0,0,0-.06-.72c0-.08.1.13.14.21s0,.06,0,.13c0-.15.13-.11,0-.48.13.14.08.35.16.26l0,.12c.19.26.17,0,.2-.23s.1-.46.27-.09a.22.22,0,0,1-.05-.13c.27.31.56-.37.77.21,0,.13.08-.12.16-.3l0,.32.15-.35c.19-.23,0,.8.22.35l.06-.21c0,.06.19-.05.09.17,0,0,.1-.2.07-.09l-.06.15a1.5,1.5,0,0,1,.23-.2c0,.15-.32.57-.25.65a2.92,2.92,0,0,0,.41-.44.45.45,0,0,1,.1-.26l.09,0c.28-.41.63-.78.64-1.17l-.27.18.08-.22.11,0c0-.22-.08-.08-.19,0a.53.53,0,0,0,.07-.26l-.33.36c.07-.18.22-.31.18-.45-.14.17-.13.41-.27.5,0-.23.12-.39,0-.24A.41.41,0,0,1,32.1,31c-.12.11-.2,0-.32.22,0-.28-.22,0-.08-.43-.06.09-.22.31-.27.32.24-.52-.21-.09-.06-.66-.18.47-.35.16-.53.42,0,0,0-.11.05-.09s-.09-.2-.13-.29a3,3,0,0,1-.24.74c-.08-.39.07-.48.05-.86,0,.33-.18.33-.14.61a1.24,1.24,0,0,1-.11-.46c0,.51-.07.09-.12.41-.12-.25-.05-.48-.16-.32A.41.41,0,0,1,30.06,30.3Zm-2.28,1.79h0l0,0Zm-.16.14.08,0c.07.07.13.16.11.17S27.7,32.27,27.62,32.23Zm1.52,1.39c0,.05,0,0-.06,0v0l0,0Z"/><path class="cls-2" d="M29,33.29v0l-.05,0,0,.08Z"/><path class="cls-2" d="M33.34,35.19Z"/><polygon class="cls-2" points="25.54 34.39 25.61 34.41 25.56 34.37 25.54 34.39"/><path class="cls-2" d="M34.2,34.08l.07,0Z"/><path class="cls-2" d="M34.14,33.62l.08-.1S34.15,33.59,34.14,33.62Z"/><path class="cls-2" d="M34.16,33.23l-.12,0h0Z"/><path class="cls-2" d="M33.47,39.07v0C33.48,39.16,33.49,39.12,33.47,39.07Z"/><path class="cls-2" d="M33.9,37.17a1.2,1.2,0,0,1,.11.1S34.06,37.23,33.9,37.17Z"/><path class="cls-2" d="M31.68,40.55h0Z"/><path class="cls-2" d="M34,37.35c.06,0,.06,0,0-.08S34,37.31,34,37.35Z"/><path class="cls-2" d="M33.51,31.75v0l0,0Z"/><path class="cls-2" d="M33.47,31.76h0Z"/><path class="cls-2" d="M33.35,31.77h.08S33.42,31.73,33.35,31.77Z"/><path class="cls-2" d="M33.67,32.24l.09-.05Z"/><path class="cls-2" d="M33.77,32.35s.16-.2.07-.2l-.08,0C33.92,32.12,33.6,32.41,33.77,32.35Z"/><path class="cls-2" d="M32.85,33.44l0-.12c-.09.06-.22.15-.26.12C32.36,33.69,32.84,33.31,32.85,33.44Z"/><path class="cls-2" d="M32.81,33.78c-.07,0-.15.06-.22.08A.29.29,0,0,0,32.81,33.78Z"/><path class="cls-2" d="M33.09,35.85l-.26,0S32.93,35.83,33.09,35.85Z"/><polygon class="cls-2" points="34.38 36.53 34.55 36.52 34.32 36.44 34.38 36.53"/><polygon class="cls-2" points="32.47 36.31 32.43 36.29 32.51 36.37 32.47 36.31"/><path class="cls-2" d="M30.56,38.17l.07.32C30.64,38.43,30.57,38.06,30.56,38.17Z"/><path class="cls-2" d="M29.18,38.5c0-.17,0-.28-.05-.13S29.16,38.54,29.18,38.5Z"/><polygon class="cls-2" points="27.95 35.58 28.05 35.63 27.97 35.56 27.95 35.58"/><path class="cls-2" d="M22.65,52c-.48-2,.37-4,1.26-5.83,1-2,2.24-4.2,4.26-5a7.28,7.28,0,0,1,2.7-.38,6.16,6.16,0,0,1,3.32.73c1.52,1,2.22,2.89,2.81,4.67l1.19,3.6a1.79,1.79,0,0,1,.14,1,1.55,1.55,0,0,1-.74.89,13.24,13.24,0,0,1-5.52,1.74c-3.34.51-7,.84-9.78-1.27"/><path class="cls-2" d="M22.68,51.63c-.07,0-.17.22-.1.22l.23-.23Z"/><path class="cls-2" d="M22.69,52.37a1.23,1.23,0,0,0,.49-.55c-.23.22-.17.1-.44.36-.08,0,0-.15,0-.24-.07.06,0-.11-.19,0s0,.33.22.22A.81.81,0,0,1,22.69,52.37Z"/><path class="cls-2" d="M29,54.22l-.05,0S29,54.22,29,54.22Z"/><path class="cls-2" d="M33.16,53.89a.07.07,0,0,0,0,.07S33.17,53.91,33.16,53.89Z"/><path class="cls-2" d="M33.93,54.11l0,0S33.92,54.13,33.93,54.11Z"/><path class="cls-2" d="M29,54.22l.12.1C29.14,54.21,29.07,54.24,29,54.22Z"/><path class="cls-2" d="M23.82,52.12l-.09.06h.06Z"/><path class="cls-2" d="M27.15,54.5h0l0,.13Z"/><path class="cls-2" d="M25.69,54.39s.09-.26.12-.37c0,.11-.07.16-.1.17A1,1,0,0,0,25.69,54.39Z"/><path class="cls-2" d="M23.61,53.26l-.06,0Z"/><path class="cls-2" d="M28.19,54.58a.3.3,0,0,0,0,.1A.3.3,0,0,0,28.19,54.58Z"/><path class="cls-2" d="M23.82,50.5h0Z"/><polygon class="cls-2" points="22.58 52.02 22.56 52.01 22.41 52.04 22.58 52.02"/><path class="cls-2" d="M35.34,54.13h0S35.33,54.16,35.34,54.13Z"/><path class="cls-2" d="M36.94,43c-.15.24-.39-.06-.53.26C36.5,43.2,36.88,43.25,36.94,43Z"/><path class="cls-2" d="M23.83,52.17l.05,0A.06.06,0,0,0,23.83,52.17Z"/><path class="cls-2" d="M36.41,43.27h0v0Z"/><path class="cls-2" d="M38.35,52.59l-.11-.07Z"/><path class="cls-2" d="M36,53.36H36S36,53.35,36,53.36Z"/><path class="cls-2" d="M39.1,51l0,0s.05,0,0-.09h0s0,0,0,.09Z"/><polygon class="cls-2" points="38.88 49.37 38.83 49.41 38.86 49.44 38.88 49.37"/><path class="cls-2" d="M24.59,47.46l-.25-.06C24.53,47.47,24.53,47.65,24.59,47.46Z"/><path class="cls-2" d="M23.75,52.26a.18.18,0,0,1,.08-.09h0A.23.23,0,0,0,23.75,52.26Z"/><path class="cls-2" d="M36.91,50.41l.05,0Z"/><path class="cls-2" d="M29.25,42l0,0S29.25,42.07,29.25,42Z"/><path class="cls-2" d="M36.9,50.32a.43.43,0,0,0,.18-.08l-.07,0Z"/><path class="cls-2" d="M24.34,47.4Z"/><path class="cls-2" d="M24.51,48.71c.06-.15-.3-.2-.49-.3,0-.22.28,0,.48,0,0-.15-.32-.36-.27-.45a.36.36,0,0,1,.15.06c-.22-.23.13-.36-.13-.66l.09,0a3,3,0,0,1-.46-.18c0-.07-.15-.23.08-.16,0,0,.06.09.11.14L24,47.08c.34.08.06.15.29.26,0-.19-.21-.48-.08-.55.32.12,0,.3.32.28l-.19.12c.53.09-.09.09.48.21.19-.18,0-.32.16-.5-.14-.14-.26-.11-.4-.24-.14-.47.88.12.59-.31-.16-.16-.53-.37-.24-.44l.3.23c.14-.19-.42-.37-.08-.47.11.11,0,.22.08.21.34,0-.13-.2-.07-.31l.3.13c.08-.24,0-.6.09-.87.08.06.14.16.26.15,0-.38.43-.6.77-.73L26.44,44s.13,0,.16.1-.14-.12-.2-.23.19,0,.23.11c-.07-.31,0-.82.38-.77l0,.09c.2,0-.28-.56,0-.48v.06c.34-.16.54-.62,1-.39-.16-.38.37,0,.14-.52.31.18.29.29.6.39.07,0,0-.38.06-.46l.09.29,0-.34.15.34.07-.09a.33.33,0,0,1-.12-.21c.11-.16.38.15.4.3.1-.1.2-.2.31-.29,0,.12-.05.16-.09.25.15-.33.06.31.2,0,0-.06,0-.18,0-.24a.29.29,0,0,0,.43.09l0,.21c.26,0,.58-.11.88-.1-.11-.1-.07-.46,0-.49l0,.32c.06-.2-.1-.13,0-.36.12,0,.07.36,0,.46l.14-.1a1.66,1.66,0,0,1-.05.26c.07-.19.21.34.31,0v.1c.28,0,.41-.07.63,0,.05-.27.12-.19.24-.4.15.13.25.38.43.42s.11-.21.23-.34c-.08.24.09.29-.07.42a1.55,1.55,0,0,0,.6,0c0-.1,0-.16.09-.22s0,.16,0,.25h0c.24-.06.28.21.28.45s0,.44.28.37h0a2.47,2.47,0,0,1,.38,0c0,.13-.19.05-.27.21.52,0,.21.43.57.51-.56.52.38.64,0,1.1l.16-.08c.18,0-.06.12-.08.18s.12-.13.22-.12c.44.52.22,1.34.29,2.07,0,.26.91-.15.61.29l-.33,0c.53.37.32,1,.79,1.39-.08,0-.17,0-.18,0-.19.18.11.38.29.32,0,.08-.16.07-.23.15s.37.16.16.29a.09.09,0,0,1-.1,0c.13,0,.07.33.31.18-.07.21.24.32.12.48.31,0-.12.1.31.07-.45,0-.35.07-.14.16-.14,0-.15,0-.34-.06h0a.83.83,0,0,0,.31.15c-.28-.07-.18,0-.13.06s.07.16-.19-.07a.33.33,0,0,1,.05.16.64.64,0,0,1-.11.24,2.36,2.36,0,0,1-.33.42c-.2-.39.29-.21.05-.61-.16.3-.15.73-.49.76-.09,0,0-.19,0-.27-.21.3-.56.19-.74.51a.2.2,0,0,1,0-.13s-.14,0-.07.17l0-.07c.19.25,0,.65,0,.8-.07-.58-.32-.05-.38-.8a.33.33,0,0,0,0,.28c-.06,0-.1-.09-.09-.25-.16.16,0,.35-.22.39s0-.14,0-.26c0,.21-.09.42-.26.38,0-.06,0-.13,0-.14-.25.09-.35.6-.69.48,0-.43-.13-.11-.21-.47l-.14.14.09.16c-.14,0-.22.31-.36.21l.08-.17-.26.12.18.11c-.12.21.09.45-.12.39,0-.05-.15,0-.26-.18h0c0,.13-.11.26-.23.19s0-.4-.07-.48c0,.32-.33.14-.37.48a.74.74,0,0,0,0-.31l0,.25c-.08-.06-.1-.1-.11-.25-.21,0,.14.45-.14.28,0,0,0,0,0-.1-.26-.06-.45.23-.69.13-.11-.35.18-.11.07-.41-.31.11-.61.52-.93.47l.06,0c0,.52-.26-.24-.39,0,0,0,0-.29,0-.23-.22-.06-.42.17-.73.35l0-.14c-.13-.11-.33,0-.47-.1,0,.13-.11.12-.06.31-.43-.75-.8.42-1.16-.22,0,0,.11-.12.08-.12l-.32.11c0,.23,0,.14.09.32s-.14.23-.22.23c.15-.15,0-.37,0-.5a1.64,1.64,0,0,1,0,.22c-.13-.41-.06.45-.27.16l0-.12c-.09.06-.19.21-.28.16,0-.26.11-.11.13-.32-.12,0-.3.47-.39.19.07-.06.14-.05.21-.12-.09-.32-.11-.25-.2-.31h0l-.18-.17,0,.09c-.27.65-.34.08-.63.47.29-.37.08-.23.16-.52,0-.09-.1-.2-.06-.28-.14.22-.11-.21-.32.1,0-.1-.1,0,0-.27-.14,0,0,.17-.06.29-.28.25-.32-.49-.71-.17-.29.08-.46.38-.74.42,0-.17.2-.29.2-.29-.06-.18-.15-.19-.3-.15.06-.06.06-.14.08-.25s-.22.29-.26.11a2.43,2.43,0,0,1,.26-.3c-.13,0-.31.13-.45.15.06-.16.18-.19.27-.26a.6.6,0,0,0-.53.17l0,.13c-.05,0,.09-.21.15-.23s.09.15,0,.24h-.1c-.2.53.34.1.46.19l-.24.33.3-.23c0,.11-.08.33-.19.35,0,.24.17-.08.17.17a.09.09,0,0,1,0,.06l.16-.06c-.06.07-.1.27-.14.19.11.32.45-.15.42.17l0,0c.34,0,.13-.27.46-.53l-.08.76.12-.28a.12.12,0,0,1,0,.17c.18-.16,0-.13.14-.3.07.31.43,0,.35.46.11-.2-.1-.2.1-.32-.08.51.2,0,.28.22-.09.25-.2.08-.11.34.18-.42.26.16.4.09.06-.35.28-.1.49-.19,0,.12.35.23.53.38v.06c.07-.36.25-.27.4-.34a.59.59,0,0,1-.13.39h.13a.31.31,0,0,1,.17-.21l-.05.27c.18,0,.37-.3.59-.12,0-.25-.16-.7.07-.87,0,.14,0,.37,0,.43s.07-.12.11-.06l-.09.23c.1.1.05-.19.13-.17,0,.2.06.14.05.29s-.07-.08-.1,0a.45.45,0,0,1,.24.3c0-.11,0-.26.07-.29s.06.23.16.33c0-.14.16,0,.15-.29.05,0,.07.13.09.21.09-.13.42,0,.31-.36l0,0h0c.27-.31.61.13.89,0v.1c.16-.13.38-.1.48-.32.05,0,.14.16.13.27.12-.08.12-.19.33-.06-.11.19.06.15-.12.14.18.07.24.22.39-.07,0,.25.17.29.24.21l-.14-.16a.37.37,0,0,1,.25,0v.33c.41.34.53-.76.89-.14.06-.24-.21-.13-.17-.41.17,0,.4.46.45.45.25.14.13-.5.38-.42,0-.11-.13-.41,0-.55.16,0,.27.45.19.56s-.06,0-.07-.06a.16.16,0,0,0,0,.23v-.12c.1.1.32,0,.3.25.11-.13,0-.2-.08-.24.24.13.33,0,.56,0,0-.05-.1-.18-.07-.19.34.08.1-.24.3-.33.15.14,0,.42.22.23.16.09.1.29.07.4.15-.26.4,0,.53.07l-.08.11a.2.2,0,0,1,.15-.09l-.11-.21c.07,0,.12,0,.14.1,0-.16-.14-.36-.07-.59.11.09.21-.19.32.1-.28,0,.11.29-.09.4,0-.05.08-.06.16,0a.06.06,0,0,1,0,.08c.33.2,0-.36.28-.43,0,.17.16.29.19.24s-.14-.26-.09-.42c.21.08.15-.15.24-.16l-.12,0c0-.18.06-.18.15-.27.06.12-.07.12,0,.16,0-.33.39.2.49-.07.12.08.13.3.23.35.11-.29.32.12.45-.15-.16-.18-.14-.12-.1-.4l-.26.31.07-.41c-.1,0-.15.23-.23.22,0-.22,0-.16-.09-.32.28.26.18-.3.43-.16l.25.52c.36.11.28-.48.64-.53l-.14,0c-.09-.22.16-.14.2-.28a.48.48,0,0,0,.32.25c-.09-.1.32-.22.07-.52a1.87,1.87,0,0,0,.34,0c.36-.24-.17-.63,0-.85.15.18.35.09.37.37.07-.11.15-.2,0-.25.12,0,0-.26,0-.37a.07.07,0,0,1,.06-.07c-.08-.07-.27-.12-.25-.23a.22.22,0,0,1,.1,0c-.1,0-.13-.19-.35-.11.3-.12.26-.37.18-.58s-.17-.36,0-.54a2.82,2.82,0,0,1-.3-.47c.06,0,.09,0,.08,0,.1-.26-.57.05-.46-.25s.21.07.29,0c.6-.23-.17-.26.13-.53l0,0c.16-.19-.33-.22-.35-.43l.09,0a1,1,0,0,1-.69-.41c.25,0,.15,0,.38-.07-.06-.08-.38.15-.5,0a1.16,1.16,0,0,1,.43-.36l.07.16c.31-.2-.08-.21,0-.31l.15,0c-.13-.23-.5-.11-.56-.38l-.1.06c-.41,0,.16-.19-.15-.24l.35-.17a2.64,2.64,0,0,1-.6-.37,2.1,2.1,0,0,1,.72.23c0-.09-.14-.31-.33-.3,0,0,.15,0,.11.1-.33,0-.52-.12-.59-.31.72-.22,0-.56.49-.92-.4-.24-.18-.73-.43-1.13-.44.41-.07-.11-.59.19-.08-.07-.09-.11-.06-.14l.16-.45c.11-.15.16,0,.27,0-.07-.23.17-.22.23-.44-.17.14-.31.09-.32-.08l-.13.32c-.44-.11.26-.53-.2-.64l.22,0c-.19-.09-.44-.57-.92-.37,0-.07.12-.22.2-.18-.27-.41-1.07-.29-1.19-.72l.11-.1c-.1,0-.27.16-.29,0s.1-.11.07-.13-.32.11-.38,0l.16-.11c-.35-.38-.79.1-1.13.11a.63.63,0,0,0-.33-.74l0-.06c-.49-.15-.88.22-1.29.37-.24-.49-.85-.23-1.26-.48.07.07,0,.33-.07.38s-.25.31-.26-.09h0c-.09-.39-.3-.27-.46-.27l0,.52c-.24-.36-.53-.25-.77-.13s-.44.27-.66,0c-.07.15-.2.2-.26.35L27.9,40a1.39,1.39,0,0,0-.81.32l0-.22c-.21.1.14.84,0,.94l-.27-.32c-.29.19-.83.14-.85.66,0,0-.11-.14-.07-.19-.14.09-.69.25-.23.61-.27-.26-.28.23-.27.47l-.19-.2c.16.35.23.41.18.63-.06,0-.2-.1-.11-.11-.21,0,.13.26-.11.33l-.09-.17c-.12.12,0,.17.07.36s-.24.22-.45.1c.11.1.22.29.11.33a.26.26,0,0,1-.13-.13c-.31.13.05.51-.28.53a.31.31,0,0,0-.16-.06c.13-.18.23-.33.24-.3-.21-.14-.34,0-.56-.32.08.23.3.66.11.74l-.08,0,0,0s0,.06,0,.11a.38.38,0,0,0-.14.09c-.19-.09-.2.12-.25.2.25.12.15.2.4.22t0-.09a.06.06,0,0,0,0,0h0l.09-.2c.09.13.16.25,0,.26l.33.32c-.4-.08-.69,0-.91-.06,0,.31-.2.61.19,1,0,.1-.17,0-.26,0s0-.1,0-.16c0,.2-.15.42.16.61-.23.1-.25-.24-.31,0L23,46.09c-.74.22.49,1.12-.4,1.35a.17.17,0,0,1,.14,0c-.56.49-.18,1.33-.82,1.85-.14.17.08.24.24.38h-.3l.3.25c.22.28-.78.42-.32.82l.2,0c0,.12.12.39-.1.38,0,0,.21,0,.1.09h-.15a4.11,4.11,0,0,0,.29.3c-.08.25-.62,0-.59.42.09.14.52.3.61.22s.07-.15.22-.19l.1.1a2.26,2.26,0,0,0,1.19-.42l-.31-.1.22-.08a.53.53,0,0,0,0,.12c.19-.1,0-.11-.13-.15a.75.75,0,0,0,.24-.09l-.45-.1c.17,0,.35,0,.45-.07-.21-.06-.4.1-.54,0,.2-.09.37-.07.19-.15a.43.43,0,0,1,.25,0c-.15-.07-.06-.19-.31-.24.26-.07-.05-.27.38-.24-.1,0-.33-.16-.34-.24.5.19.07-.28.61-.16-.44-.17-.14-.38-.35-.61,0,0,.1,0,.08.06s.2-.08.3-.12c-.37-.11-.41-.29-.61-.45.4,0,.41.2.77.26-.3-.08-.24-.3-.5-.33a.85.85,0,0,1,.45,0c-.45-.17,0-.11-.3-.29.28-.06.44.12.36-.08C24.4,48.52,24.51,48.71,24.51,48.71Zm1-3.93h0l0,.08Zm.17-.29a.36.36,0,0,0-.08.12c-.09,0-.17-.1-.15-.13S25.57,44.49,25.66,44.49Zm-2-.33c0-.07.05-.06.1,0a.31.31,0,0,0,0,.11l0,0A.45.45,0,0,1,23.64,44.16Z"/><path class="cls-2" d="M23.9,44.43v0H24l-.07-.06Z"/><path class="cls-2" d="M29,54.18h0s0,0,0,0Z"/><polygon class="cls-2" points="28.98 42.24 28.97 42.17 28.96 42.24 28.98 42.24"/><path class="cls-2" d="M27,53.23a.19.19,0,0,0,0-.07A.19.19,0,0,0,27,53.23Z"/><path class="cls-2" d="M26.25,53.09,26.16,53A.65.65,0,0,0,26.25,53.09Z"/><path class="cls-2" d="M25.68,52.86l0,.11h0Z"/><path class="cls-2" d="M35.3,51.63a0,0,0,0,0,0,0C35.35,51.54,35.33,51.57,35.3,51.63Z"/><path class="cls-2" d="M32.62,52.91a.64.64,0,0,1,.08-.14C32.64,52.76,32.6,52.76,32.62,52.91Z"/><polygon class="cls-2" points="36.91 50.41 36.91 50.41 36.91 50.41 36.91 50.41"/><path class="cls-2" d="M32.83,52.75a.08.08,0,0,0-.13,0S32.8,52.8,32.83,52.75Z"/><path class="cls-2" d="M23.39,51.86l0,0,0,0Z"/><path class="cls-2" d="M23.34,51.87h0S23.32,51.89,23.34,51.87Z"/><path class="cls-2" d="M23.21,51.91l.09,0S23.26,51.85,23.21,51.91Z"/><path class="cls-2" d="M24,52.32l.05-.09Z"/><path class="cls-2" d="M24.22,52.39s0-.25-.13-.23l0,.07C24.14,52.11,24.11,52.53,24.22,52.39Z"/><path class="cls-2" d="M24.83,53.9l-.2-.14c0,.11,0,.26-.09.26C24.74,54.41,24.55,53.77,24.83,53.9Z"/><path class="cls-2" d="M25.49,54.21c-.13,0,0,.15,0,.21S25.56,54.32,25.49,54.21Z"/><path class="cls-2" d="M30.53,54.27l0,.25C30.63,54.47,30.53,54.42,30.53,54.27Z"/><polygon class="cls-2" points="31.29 52.86 31.18 52.72 31.17 52.95 31.29 52.86"/><polygon class="cls-2" points="32.09 54.55 32.05 54.59 32.19 54.48 32.09 54.55"/><path class="cls-2" d="M39.18,49.49l-.29.13C39,49.67,39.3,49.57,39.18,49.49Z"/><path class="cls-2" d="M37.77,46.24c.13-.08.19-.21,0-.22C37.81,46.1,37.72,46.21,37.77,46.24Z"/><polygon class="cls-2" points="29.44 39.64 29.51 39.53 29.36 39.63 29.44 39.64"/><path class="cls-2" d="M14.88,8.06c-1.54-.37-3,1-3.45,2.43A4,4,0,0,0,12,14.24a3.18,3.18,0,0,0,3.74.86,3.2,3.2,0,0,0,1-.89,4,4,0,0,0,.69-3.37A4.25,4.25,0,0,0,15.2,8.15"/><path class="cls-2" d="M15.5,7.52c-.05.08-.13.27-.09.25l.18-.3Z"/><path class="cls-2" d="M15.41,8.2a3.27,3.27,0,0,0,.43-.66c-.2.27-.14.15-.37.48-.05,0,0-.13.07-.24-.06.07,0-.09-.13.09s-.05.3.11.13C15.49,8.07,15.44,8.14,15.41,8.2Z"/><path class="cls-2" d="M16.88,10.63l0,0Z"/><path class="cls-2" d="M16.88,12.2l-.07,0Z"/><path class="cls-2" d="M16.46,12.39h0S16.44,12.38,16.46,12.39Z"/><path class="cls-2" d="M16.88,10.63l-.09.07C16.9,10.67,16.87,10.65,16.88,10.63Z"/><path class="cls-2" d="M16.23,7.72l-.07.06h0Z"/><path class="cls-2" d="M16.32,10.13h0l-.12.07Z"/><path class="cls-2" d="M16,9.75a2.77,2.77,0,0,0,.33-.25c-.1.08-.15.11-.17.11Z"/><path class="cls-2" d="M15.68,8.79l0,0Z"/><path class="cls-2" d="M16.44,10.48l-.09,0Z"/><path class="cls-2" d="M14,6.64v.05S14,6.64,14,6.64Z"/><polygon class="cls-2" points="14.86 8.14 14.85 8.15 14.8 8.31 14.86 8.14"/><path class="cls-2" d="M16,12.67Z"/><path class="cls-2" d="M13.59,14c-.07.26-.21.28-.28.57A2.33,2.33,0,0,0,13.59,14Z"/><path class="cls-2" d="M16.23,7.76l0,0S16.24,7.76,16.23,7.76Z"/><path class="cls-2" d="M13.31,14.52h0v0Z"/><path class="cls-2" d="M15.7,13.52l.11.08Z"/><path class="cls-2" d="M16.45,13.13h0Z"/><path class="cls-2" d="M15.75,14.07s-.05,0,0,0l0,0S15.71,14.05,15.75,14.07Z"/><path class="cls-2" d="M15.45,14.3l0,0v0Z"/><path class="cls-2" d="M11.88,7.7a1.14,1.14,0,0,1,.19.19C11.93,7.73,12,7.6,11.88,7.7Z"/><path class="cls-2" d="M16.14,7.86c.05-.06.07-.09.09-.1h0Z"/><path class="cls-2" d="M17.28,15.82l-.12,0A.17.17,0,0,0,17.28,15.82Z"/><path class="cls-2" d="M10,12.18l0,0S10,12.17,10,12.18Z"/><path class="cls-2" d="M16.88,16.14a1,1,0,0,0-.17-.13.41.41,0,0,0,0,.08Z"/><path class="cls-2" d="M12.08,7.89h0Z"/><path class="cls-2" d="M12.35,6.86c-.12.06.13.36.22.57-.06.16-.2-.22-.34-.36,0,.13.11.47.06.49a.39.39,0,0,1-.1-.14c.11.31-.21.17,0,.53,0,0-.05,0-.06-.06.13.14.25.29.34.4s.1.24-.08.06c0,0,0-.09-.08-.16l0,.11c-.27-.25,0-.14-.21-.35,0,.16.13.45,0,.42-.25-.26,0-.2-.24-.37L12,8c-.43-.37.09,0-.37-.42-.19,0,0,.25-.2.28.11.17.21.21.33.37.11.39-.77-.5-.53,0,.15.19.48.49.23.41l-.28-.28c-.13.09.39.42.09.37-.11-.11,0-.17-.09-.18-.31-.12.14.2.1.25l-.3-.2c0,.16.07.45,0,.62A.66.66,0,0,0,10.77,9c0,.28-.26.38-.55.5l.25.2s-.14,0-.19-.06.18.08.28.16-.19,0-.26-.07c.18.25.39.57,0,.61l-.08,0c-.15.08.57.28.27.31l0,0c-.19.2,0,.5-.44.63.44.08-.22.23.4.29-.31.12-.43.07-.63.27,0,.06.38.09.45.15H9.94l.34.08-.38.06.09.06a.46.46,0,0,1,.23-.06c.15.09-.21.25-.37.27l.29.21a.53.53,0,0,1-.26-.05c.34.09-.34.07,0,.15a1.14,1.14,0,0,1,.26,0c-.19.08-.17.22-.07.3l-.22,0c0,.2.19.37.25.56a.77.77,0,0,1,.51-.16l-.32.13c.21,0,.1-.09.37-.1,0,.07-.35.17-.47.16l.14,0a1.42,1.42,0,0,1-.28.07c.22,0-.26.28.11.21l-.09,0c.08.2.23.24.32.39.26-.13.24,0,.47-.12,0,.15-.15.39,0,.5s.22-.11.39-.18c-.22.16-.11.27-.31.32a.62.62,0,0,0,.5.18.51.51,0,0,1,.16-.19c.06,0,0,.14-.12.22l0,0c.43-.12-.08,1,.45.69h0a2,2,0,0,0,.34-.12c.06.09-.16.14-.19.32.43-.25.29.24.59.07-.2.78.49.15.5.68l0-.18c.1-.16,0,.12.05.18,0-.14,0-.18.06-.27.45-.09.8.47,1.33.64.19,0,.07-1,.3-.53l0,.35c.31-.44.75-.09,1-.54,0,.08,0,.18,0,.19.15.21.27-.09.19-.28.06,0,.08.17.16.25s0-.37.18-.16a.09.09,0,0,1,0,.1c0-.13.23-.08.05-.31.18.06.14-.23.32-.15-.13-.3.27,0,0-.38.28.39.41.17.32-.05.07.12.15.07.25.23.07-.06.07-.18-.11-.35.52.29-.12-.53.48-.11a5.15,5.15,0,0,1,0-.87c.39.27-.1.22.31.5,0-.29-.31-.6-.12-.71s.17.13.23.19c-.07-.28.23-.34.07-.61a.2.2,0,0,1,.1.08s.1,0-.1-.13l0,.06c-.3-.08-.54-.39-.69-.45.54.29.2-.09.89.28a.56.56,0,0,0-.25-.15c.05,0,.13,0,.27.1-.06-.17-.29-.2-.25-.3a1.79,1.79,0,0,1,.24.12c-.17-.12-.35-.24-.24-.3s.14,0,.13.06c0-.17-.45-.39-.22-.5.43.14.16,0,.54,0l-.1-.11h-.19c0-.08-.25-.19-.12-.24l.16.08-.06-.16-.16.07c-.19-.11-.49-.06-.37-.14s0-.07.25-.09h0c-.12-.05-.25-.09-.15-.14s.43,0,.51,0c-.32-.06-.08-.19-.43-.24h.33l-.26,0a.45.45,0,0,1,.29,0c0-.11-.5,0-.29-.09,0,0,.06,0,.1,0s-.18-.23-.06-.36c.39-.08.11.1.43,0-.09-.18-.51-.3-.45-.48l0,0c-.55.1.24-.18,0-.2a1.09,1.09,0,0,0,.24,0c.05-.14-.2-.21-.42-.3l.14,0c.1-.11,0-.19,0-.29-.14,0-.14,0-.32.1.65-.56-.56-.17-.06-.66,0,0,.13,0,.13,0l-.21-.08c-.2.14-.11.1-.25.22s-.25.09-.27.06a.85.85,0,0,0,.42-.32l-.19.13c.31-.31-.42.26-.24,0l.11-.07c-.08,0-.24.07-.23,0,.21-.18.13,0,.32-.17-.06-.05-.5.22-.32,0,.08,0,.11,0,.19,0,.22-.25.14-.21.15-.28h0l0-.19-.05.08c-.61.41-.21,0-.64.2.4-.23.21-.16.44-.37a.72.72,0,0,1,.16-.24c-.22.14.08-.21-.24,0,.07-.08,0,0,.15-.23-.11,0-.11.14-.21.23-.31.18.09-.5-.35-.24-.23.07-.46.33-.64.4a.8.8,0,0,1,.24-.28c0-.16,0-.17-.14-.1A.8.8,0,0,0,16.09,8c-.05,0-.23.29-.2.13a2.69,2.69,0,0,1,.27-.32c-.11,0-.26.17-.36.22a1.13,1.13,0,0,1,.25-.3.57.57,0,0,0-.4.28v.11s.11-.22.15-.25,0,.12,0,.21l-.07,0c-.27.53.19,0,.25.08l-.27.35.27-.26a1,1,0,0,1-.25.34c-.07.21.13-.1,0,.13l0,.06.12-.08c-.07.07-.18.26-.17.19-.08.25.32-.17.14.11h0c.19,0,.21-.24.53-.46l-.46.64L16,9s0,0-.09.15c.19-.13.09-.11.25-.25-.15.26.23,0-.12.41.19-.16.09-.18.26-.25-.38.4.12,0,0,.21s-.15,0-.29.25c.37-.3,0,.15.09.12.29-.25.18,0,.33,0-.1.07-.07.25-.15.38l0,0c.32-.21.31-.11.4-.1a1.42,1.42,0,0,1-.37.19l0,0a.46.46,0,0,1,.23-.07l-.25.14c.05,0,.36-.06.23.11.24-.12.62-.43.83-.42a2.14,2.14,0,0,1-.41.2s.12,0,.08,0l-.24.08c-.07.09.19-.08.19,0-.19.09-.12.08-.27.15s.06-.06,0,0a.62.62,0,0,1-.25.22,1,1,0,0,1,.29-.11c0,.05-.22.13-.3.2.14,0,0,0,.3-.07,0,0-.12.08-.2.12.14,0,.1.12.39,0l0,0h0c.33,0-.08.29.07.36l-.1,0c.13,0,.1.13.33.13,0,0-.17.09-.3.1.09,0,.21,0,.05.13s-.16,0-.14,0c-.08.08-.24.11.05.14-.27,0-.33.08-.25.1l.19-.06s0,.06,0,.09H16.5c-.42.13.73.2,0,.3.24,0,.17-.07.46,0a2.66,2.66,0,0,1-.55.11c-.2.06.5.1.36.18a1.17,1.17,0,0,1,.56.11,1.22,1.22,0,0,1-.62,0s0,0,.08,0a.32.32,0,0,0-.23,0l.12,0c-.13,0-.13.09-.33,0a.34.34,0,0,0,.27,0c-.19,0,0,.11-.15.16l.21,0c-.18.08.22.1.25.19-.19,0-.43-.12-.3,0a1,1,0,0,1-.41-.12c.21.13-.19.07-.24.09l-.08-.06c.05,0,0,0,0,.06l.24.06a.22.22,0,0,1-.15,0c.15.07.4.12.6.23-.13,0,.09.13-.22,0,.13,0-.31-.1-.34-.18s0,0,0,0l-.08,0c-.3,0,.34.16.3.24a.77.77,0,0,0-.3-.1,1.3,1.3,0,0,1,.41.2c-.15,0,.07.1.05.12h.07c.17.09.13.11.16.17-.13-.06-.07-.08-.13-.09.27.19-.35-.06-.18.09-.13,0-.31-.16-.4-.18.18.17-.25-.07-.11.08a.84.84,0,0,1,.36.25l-.09-.19.27.25s-.1-.15,0-.15a.64.64,0,0,0,.3.19c-.35-.14.13.21-.12.13L16,13.34c-.27-.09.18.29,0,.29l.11,0c.19.16,0,.07,0,.16a2.55,2.55,0,0,0-.34-.23c.12.1-.06,0,.25.32l-.24-.14c-.13,0,.37.47.25.49a3.68,3.68,0,0,1-.35-.41s-.06,0,0,.11c-.1-.08.14.26,0,.13.05.07.19.24.15.25l-.07-.08c.07.08.05.14.22.3-.47-.45-.19.21-.56-.22a.41.41,0,0,1-.09.22l0-.08c-.14-.15.21.56,0,.4s0-.18-.1-.29c-.27-.62-.06.12-.25-.24v0c-.1-.21,0,.28-.09.24l0-.1a.77.77,0,0,1-.12.59,1.43,1.43,0,0,0,0-.41s.07.43,0,.52a2.44,2.44,0,0,1-.13-.56l.06,0c-.07-.36-.07,0-.11,0v-.17c-.08.06-.07.48-.18.44v.13c-.08.4,0-.24-.11.06v-.41a1.56,1.56,0,0,1-.26.45c.09-.3.18-.44.24-.62,0,0-.11,0-.16.22,0,0,.05-.14.06-.07-.08.32-.18.47-.25.44.16-.78-.16-.24,0-.86-.2.26-.17-.18-.28-.18-.22.58,0,0-.31.58,0,0-.06,0,0,0a2.74,2.74,0,0,1,.09-.39c.07-.17.09-.11.15-.24s.11-.25.17-.41c-.11.2-.18.27-.17.18l-.11.28c-.25.25.22-.5,0-.25l.13-.16c-.1.08-.1-.07-.45.3a1.08,1.08,0,0,1,.18-.23c0-.1-.54.25-.37,0l.13-.1s-.25.17-.14,0l.12-.1s-.24.13-.19.05l.16-.09c.1-.19-.44.13-.59.09a1.8,1.8,0,0,0,.53-.45L13,13c0-.11-.42,0-.64-.06.44-.24.12-.31.37-.49a1,1,0,0,1-.4.06c.08,0-.33,0,.08-.09h0c.4-.1.28-.13.29-.17l-.55.07c.78-.21-.33-.33.4-.43-.14,0-.14-.07-.28-.1h.3c.07-.08.12-.11,0-.22l.21,0S12,11.47,12,11.4l.44,0c0-.11.4-.13,0-.31l.2.06s.33-.09-.26-.23c.39.1.07-.09-.08-.2l.28.09c-.34-.15-.44-.19-.51-.29s.22.07.14.06c.17,0-.24-.14-.07-.15l.16.09s0-.07-.24-.19.12-.07.36,0c-.14-.07-.32-.19-.24-.19l.17.09c.22,0-.23-.28.05-.21a.74.74,0,0,0,.16.08c0,.06-.09.11-.1.09a4.09,4.09,0,0,1,.61.32c-.16-.13-.51-.42-.37-.4l.09,0,0,0s0,0,0-.05.08,0,.09,0c.19.11.13,0,.16,0a3.54,3.54,0,0,0-.4-.29s0,0,0,.05l0,0,0,0a.26.26,0,0,1,0,.08c-.11-.1-.2-.2,0-.13l-.37-.31c.37.19.59.27.8.41-.09-.17,0-.21-.34-.63,0-.07.14.08.21.13s0,.06.07.12c-.07-.14.06-.14-.2-.43.17.08.22.28.25.17l.07.1c.27.16.15-.05.07-.28S13,8.76,13.32,9a.38.38,0,0,1-.09-.09c.19.08.24,0,.32-.15s.2-.18.37.06c.08.09,0-.14,0-.34l.08.31c0-.12,0-.25,0-.37.08-.29.25.75.3.24l0-.22s.14-.12.12.13c0,0,0-.22,0-.11v.16c0-.09.08-.19.13-.28.06.14-.09.66,0,.7a4.42,4.42,0,0,0,.21-.56s0-.11,0-.27l.07-.08A2.76,2.76,0,0,0,15,6.84l-.18.27V6.87H15c0-.23-.1,0-.16.08a.63.63,0,0,0,0-.26,3.52,3.52,0,0,0-.18.45c0-.19.09-.38,0-.49-.08.22,0,.43-.08.57,0-.22,0-.4-.1-.22a.47.47,0,0,1,0-.26c-.07.15-.18.06-.21.32-.07-.27-.2.09-.23-.37a1.1,1.1,0,0,1-.13.4c0-.57-.22,0-.31-.58,0,.5-.25.28-.3.59,0,0,0-.12,0-.1s-.16-.15-.24-.22a3.24,3.24,0,0,1,.1.78c-.24-.33-.14-.47-.31-.81.13.31,0,.37.12.61A1.59,1.59,0,0,1,12.68,7c.21.47,0,.1.06.41-.2-.17-.25-.41-.27-.21A.46.46,0,0,1,12.35,6.86ZM11.14,9.25h0v0Zm-.1.17a.12.12,0,0,0,.05-.07c.1.05.18.1.17.12A.45.45,0,0,0,11,9.42Zm1.91.79s0,0-.08,0a.11.11,0,0,0,0,0l0,0Z"/><path class="cls-2" d="M12.65,10v0l-.06,0,.07.05Z"/><path class="cls-2" d="M16.92,10.59h0l0,0Z"/><polygon class="cls-2" points="9.87 11.95 9.94 11.95 9.88 11.93 9.87 11.95"/><path class="cls-2" d="M17.4,9.33l.06-.05Z"/><path class="cls-2" d="M17.19,8.94l0-.11A.8.8,0,0,0,17.19,8.94Z"/><path class="cls-2" d="M17.08,8.59l-.1.08h0Z"/><path class="cls-2" d="M18.24,13.93v0C18.29,14,18.28,14,18.24,13.93Z"/><path class="cls-2" d="M18,12.16l.13.06S18.18,12.17,18,12.16Z"/><polygon class="cls-2" points="17.3 15.82 17.3 15.81 17.28 15.82 17.3 15.82"/><path class="cls-2" d="M18.13,12.3c.06,0,.05-.05,0-.08S18.09,12.27,18.13,12.3Z"/><path class="cls-2" d="M16,7.53v0l0,0Z"/><path class="cls-2" d="M16,7.55l0,0S15.93,7.58,16,7.55Z"/><path class="cls-2" d="M15.84,7.62l.07,0S15.89,7.55,15.84,7.62Z"/><path class="cls-2" d="M16.3,7.9l.06-.09Z"/><path class="cls-2" d="M16.43,8s.07-.24,0-.21l-.06.06C16.48,7.7,16.3,8.08,16.43,8Z"/><path class="cls-2" d="M16,9.29V9.17c-.07.09-.16.22-.21.21C15.6,9.7,15.91,9.18,16,9.29Z"/><path class="cls-2" d="M16,9.6c-.07,0-.12.11-.17.15S16,9.69,16,9.6Z"/><path class="cls-2" d="M16.86,11.22l-.27,0S16.69,11.25,16.86,11.22Z"/><polygon class="cls-2" points="18.28 11.47 18.45 11.41 18.2 11.41 18.28 11.47"/><polygon class="cls-2" points="16.38 11.78 16.34 11.77 16.44 11.81 16.38 11.78"/><path class="cls-2" d="M15.36,14.05l.19.27C15.53,14.26,15.33,14,15.36,14.05Z"/><path class="cls-2" d="M14.46,14.63c0-.17,0-.28-.07-.12S14.44,14.67,14.46,14.63Z"/><polygon class="cls-2" points="12.54 12.21 12.65 12.21 12.55 12.18 12.54 12.21"/><path class="cls-2" d="M6.73,30.26a47.08,47.08,0,0,1,3-10.49,4.57,4.57,0,0,1,1.19-1.87,5.47,5.47,0,0,1,3.63-.81l1.87,0a1.63,1.63,0,0,1,.82.15,1.48,1.48,0,0,1,.54.78q1.66,4.2,2.93,8.52c.25.82.43,1.83-.23,2.42a2.59,2.59,0,0,1-1.14.48c-3.92.87-8,.72-12,.56"/><path class="cls-2" d="M7.35,29.33c0,.09,0,.29.05.25l.06-.34Z"/><path class="cls-2" d="M7.77,30a1.36,1.36,0,0,0,.15-.78c-.09.33-.1.19-.2.58-.07,0-.11-.11-.1-.24,0,.09-.09-.08-.14.14s.19.28.31.07A.6.6,0,0,1,7.77,30Z"/><path class="cls-2" d="M14.25,30.58l0,0S14.24,30.58,14.25,30.58Z"/><path class="cls-2" d="M18.33,30.35s0,0,0,.08S18.34,30.37,18.33,30.35Z"/><path class="cls-2" d="M19.09,30.59h0S19.09,30.62,19.09,30.59Z"/><path class="cls-2" d="M14.25,30.58l.12.11C14.37,30.57,14.31,30.6,14.25,30.58Z"/><path class="cls-2" d="M8.69,29.18a.35.35,0,0,0-.06.09l.06,0Z"/><path class="cls-2" d="M12.47,30.91h0l0,.14Z"/><path class="cls-2" d="M11.1,31s.05-.28.06-.41c0,.12,0,.18-.07.2A1.7,1.7,0,0,0,11.1,31Z"/><path class="cls-2" d="M9,30.39l0,0Z"/><path class="cls-2" d="M13.46,31s0,.08,0,.1A.31.31,0,0,0,13.46,31Z"/><path class="cls-2" d="M8.37,29h0Z"/><polygon class="cls-2" points="6.66 30.25 6.65 30.22 6.48 30.19 6.66 30.25"/><path class="cls-2" d="M20.79,30.49h0C20.74,30.54,20.77,30.52,20.79,30.49Z"/><path class="cls-2" d="M19.14,18.13c-.2.22-.4-.07-.6.22C18.64,18.29,19,18.35,19.14,18.13Z"/><path class="cls-2" d="M8.73,29.22h0Z"/><path class="cls-2" d="M18.54,18.35h0l0,0Z"/><path class="cls-2" d="M22,26.38l-.11.07A.24.24,0,0,0,22,26.38Z"/><path class="cls-2" d="M21.34,29.29l.08,0C21.37,29.26,21.35,29.27,21.34,29.29Z"/><path class="cls-2" d="M21.26,25.4s0,0,0-.08l0,0S21.29,25.36,21.26,25.4Z"/><path class="cls-2" d="M20.91,24.29l-.05,0,0,0Z"/><path class="cls-2" d="M9,25.62l-.27,0C9,25.64,9,25.82,9,25.62Z"/><path class="cls-2" d="M8.69,29.35c0-.08,0-.11,0-.13l0,0A.2.2,0,0,0,8.69,29.35Z"/><path class="cls-2" d="M19,26v-.18A.37.37,0,0,0,19,26Z"/><path class="cls-2" d="M11.8,18.74v0S11.82,18.77,11.8,18.74Z"/><path class="cls-2" d="M18.81,25.35a.58.58,0,0,0,.16-.16h-.08Z"/><path class="cls-2" d="M8.75,25.6h0Z"/><path class="cls-2" d="M9.13,26.92c0-.17-.35-.17-.55-.26s.29,0,.5,0c-.06-.15-.38-.33-.34-.42a.34.34,0,0,1,.16,0c-.26-.21.09-.39-.24-.65h.09a3.88,3.88,0,0,1-.51-.12c0-.08-.2-.21,0-.17,0,.05.08.08.15.12l-.09-.11c.37,0,.1.15.36.22-.08-.19-.32-.45-.18-.54.34.08,0,.31.38.24l-.18.14c.58,0-.07.1.55.14.16-.21-.1-.31.06-.52-.17-.1-.28-.06-.46-.17-.24-.44.94,0,.56-.39-.21-.13-.63-.29-.35-.39l.37.18c.11-.21-.52-.31-.18-.46.14.09.07.22.13.2.35-.06-.19-.18-.15-.3l.35.09c0-.26-.13-.6-.1-.89.09.05.18.13.31.1-.06-.39.29-.69.6-.94l-.24-.23a.24.24,0,0,1,.2.05c.15-.08-.18-.07-.28-.17s.2,0,.27,0c-.16-.31-.28-.82.12-.93l.06.08c.19-.14-.5-.44-.16-.5l0,.05c.28-.34.21-.87.74-.89-.36-.27.33-.18-.18-.52.36,0,.42.11.7.1.06,0-.23-.32-.21-.42l.22.23a3,3,0,0,1-.16-.31l.28.27v-.1a.41.41,0,0,1-.18-.16c0-.19.33.05.41.2a1.5,1.5,0,0,1,.09-.35.53.53,0,0,1,0,.27c0-.36.15.3.14,0a1.09,1.09,0,0,1-.07-.24.2.2,0,0,0,.35,0l0,.22c.2,0,.42-.19.69-.21-.1-.09-.12-.48,0-.52l.07.34c0-.22-.1-.13,0-.39.11,0,.1.38,0,.49l.12-.12c0,.1,0,.16,0,.29,0-.22.24.33.3,0v.1c.29,0,.43-.12.69-.14,0-.29.1-.23.19-.46.19.09.41.33.64.3s0-.24.13-.42c0,.27.25.25.12.44a1.41,1.41,0,0,0,.72-.27c0-.11-.08-.15-.05-.25s.1.12.09.25v0c.1-.2.21,0,.19.19s-.12.33.11.13l0,0a1,1,0,0,1,.29-.11c0,.08-.18.1-.3.24.2-.1.21,0,.19,0s0,.27.21.34c-.66.5.34.73,0,1.2l.17-.09c.2,0-.07.13-.09.2.14-.06.13-.14.24-.13.45.55.22,1.38.29,2.08,0,.25,1-.19.64.26l-.36,0c.56.34.32,1,.81,1.33-.08,0-.18,0-.2,0-.2.18.11.37.31.31,0,.08-.17.07-.26.15s.39.15.17.28a.13.13,0,0,1-.11,0c.13,0,.06.31.32.16-.07.21.23.3.11.49.34,0,0,.35.39.24-.45.13-.26.42,0,.47-.15,0-.11.14-.31.15,0,.13.16.22.39.13-.47.4.58.34-.08.68a2.66,2.66,0,0,1,.72.79c-.46,0-.08-.29-.57-.2.23.21.64.29.51.43s-.2-.06-.28-.07c.18.16-.06.15.08.39a.41.41,0,0,1-.09-.1s-.09,0,.08.13l0-.06c.3.17.41.56.49.7-.37-.51-.27,0-.68-.7a1.36,1.36,0,0,0,.15.26s-.1-.09-.17-.24c0,.13.13.32,0,.35s0-.14-.08-.25c0,.2.08.4-.09.36,0-.07,0-.14,0-.15-.21.09-.32.62-.65.49,0-.46-.13-.12-.22-.5l-.14.15.1.17c-.14,0-.21.32-.35.22l.07-.18L18,29l.18.12c-.11.22.1.48-.11.41,0-.05-.14,0-.25-.2h0c-.05.14-.11.28-.23.2s0-.43-.07-.51c0,.33-.32.13-.36.49a1.12,1.12,0,0,0,0-.33l0,.27c-.08-.07-.1-.11-.11-.27-.2,0,.13.48-.13.3,0,0,0-.07,0-.11-.25-.08-.44.22-.67.12-.1-.39.18-.12.07-.44-.3.1-.6.53-.92.46l.06,0c0,.56-.24-.26-.38,0,0-.05,0-.32,0-.25-.21-.08-.41.16-.72.35l0-.14c-.13-.12-.33-.06-.47-.12,0,.14-.11.12-.05.33-.44-.8-.78.46-1.17-.21.05,0,.11-.13.07-.13l-.31.13c0,.25,0,.15.11.34s-.13.25-.2.25c.14-.16,0-.39-.07-.52,0,.07,0,.16,0,.23-.17-.43,0,.49-.26.2l0-.13c-.09.07-.17.24-.26.2,0-.28.09-.13.1-.36-.13,0-.25.53-.37.25.06-.08.13-.08.19-.16-.12-.33-.14-.24-.23-.3h0l-.22-.15.06.09c-.17.73-.33.13-.55.6.22-.45,0-.26.06-.58-.05-.08-.13-.18-.11-.27-.1.25-.16-.21-.31.16,0-.1-.11,0-.08-.26-.13.07,0,.17,0,.3-.21.35-.46-.43-.77,0-.26.19-.31.53-.55.69-.08-.16.07-.37.07-.37-.12-.15-.22-.13-.34,0a.47.47,0,0,0,0-.28c-.1,0-.08.36-.2.21a3.59,3.59,0,0,1,.11-.41c-.11.09-.23.28-.36.37,0-.18.09-.27.13-.38-.13.07-.35.14-.4.42l.08.11c-.05,0,0-.25,0-.3.13-.21.16.11.17.21l-.09.06c.06.61.34-.08.51,0l-.09.43.19-.35c0,.11.05.36,0,.42.12.22.12-.15.21.09a.11.11,0,0,1,0,.08l.12-.13c0,.09,0,.31-.06.24.2.26.35-.31.42,0l0,0c.3-.14,0-.32.27-.69l.13.79,0-.32s.09,0,.07.17c.12-.22,0-.14.06-.35.14.3.41-.12.43.39.06-.24-.14-.19,0-.36,0,.55.19-.09.31.17,0,.28-.17.13,0,.38.09-.48.26.11.38,0,0-.38.25-.16.44-.28,0,.13.36.21.54.35v.06c0-.38.22-.31.35-.39a.58.58,0,0,1-.1.42h.13a.31.31,0,0,1,.15-.23l0,.28c.17,0,.33-.34.55-.15,0-.27-.18-.74,0-.93a1.08,1.08,0,0,1,0,.46s.06-.13.1-.07l-.08.25c.1.11,0-.2.12-.18,0,.2.06.14.06.31s-.07-.09-.1,0a.45.45,0,0,1,.24.31c0-.12,0-.28,0-.31s.07.25.17.35c0-.15.15,0,.14-.31,0,0,.07.14.09.23.08-.14.4-.06.29-.38l0,0v0h0c.27-.32.6.15.87,0v.1c.16-.13.37-.1.47-.33.05,0,.14.18.13.31.12-.09.12-.21.32-.06-.11.19.06.16-.12.15.18.07.23.23.39-.07,0,.27.16.32.23.24l-.14-.18a.37.37,0,0,1,.25,0V31c.4.38.53-.79.89-.12.05-.26-.21-.15-.17-.44.16,0,.4.49.45.49.25.15.13-.53.37-.44-.05-.12-.13-.44,0-.59.16,0,.28.48.2.6s-.06,0-.07-.06a.16.16,0,0,0,0,.24v-.13c.1.11.31.06.3.27.1-.14,0-.21-.09-.26.24.14.32-.05.56,0-.05-.06-.11-.2-.08-.21.34.09.09-.26.28-.35.16.16.06.45.23.25.16.1.1.32.07.43.14-.28.41.06.59.06a.67.67,0,0,0-.11.14.36.36,0,0,1,.22-.13l-.17-.21c.11,0,.19,0,.23.09,0-.19-.21-.37-.12-.64.16.08.24-.24.45,0-.4.07.21.27-.09.47a.29.29,0,0,1,.24-.11.08.08,0,0,1,0,.1c.54,0,0-.41.3-.62.08.18.31.21.33.13-.13.11-.26-.18-.26-.37.27-.08.09-.26.18-.34l-.14.06c-.12-.15,0-.21,0-.37.12.07,0,.17.09.16-.2-.3.49-.17.37-.51.15-.07.33.11.45,0-.17-.36.32-.29.15-.67-.25.08-.19.08-.43-.15a2.28,2.28,0,0,1,.13.53,1.89,1.89,0,0,0-.32-.37c0,.13.12.32.07.4-.18-.2-.12-.16-.33-.15.4-.11-.18-.36.07-.53h.62c.25-.42-.37-.53-.29-.9l-.08.13c-.25,0-.08-.2-.2-.28a.77.77,0,0,0,.37-.21c-.15.05-.06-.25-.46-.15l.22-.21c0-.26-.64-.1-.64-.34.23,0,.34-.14.54,0,0-.07,0-.15-.14-.11.11-.09-.33-.13-.16-.26-.1,0-.31.05-.32,0l.1,0c-.1,0-.17-.09-.37.05.54-.42-.25-.63.22-1a2.07,2.07,0,0,1-.31-.46c.06,0,.1,0,.09,0,.12-.26-.61.06-.48-.24.28-.22.21.07.31,0,.64-.25-.18-.25.15-.53l.05,0c.18-.19-.34-.21-.36-.42a.29.29,0,0,0,.09,0,1.07,1.07,0,0,1-.72-.39c.27,0,.16,0,.41-.09-.07-.07-.41.17-.53,0a1.24,1.24,0,0,1,.46-.38l.07.16c.33-.21-.08-.2-.05-.31l.16,0c-.14-.23-.53-.09-.59-.36l-.11.07c-.43,0,.18-.2-.16-.24l.38-.18a2.39,2.39,0,0,1-.63-.33,2.11,2.11,0,0,1,.75.19c0-.09-.14-.3-.35-.28.05,0,.17,0,.12.09-.35,0-.55-.09-.61-.28.76-.24,0-.55.54-.9-.4-.22-.12-.69-.31-1.05-.53.36-.06-.1-.65.15-.07-.07-.07-.11,0-.13l.25-.41c.15-.13.17,0,.3,0,0-.22.22-.17.32-.39-.19.13-.35,0-.35-.23,0,.14-.1.27-.16.4-.48-.26.32-.68-.24-.93h.25c-.2-.17-.67-.8-1.17-.45,0-.08,0-.26.16-.25-.53-.41-1.48.22-1.72-.09l0-.16c-.07.05-.12.3-.2.14s0-.16,0-.17-.18.28-.27.18l.08-.17c-.34-.21-.53.42-.82.53a.7.7,0,0,0-.4-.69v-.07c-.41-.06-.72.38-1.11.58-.27-.5-.88-.16-1.39-.33a.42.42,0,0,1,0,.42c-.13-.07-.2.38-.3,0h0c-.19-.37-.39-.2-.58-.14l.17.53c-.36-.29-.66-.07-.86.17s-.34.48-.7.33c0,.18-.1.3-.07.48l-.22-.2A1.34,1.34,0,0,0,9,18.1l-.15-.18c-.13.19.61.66.55.82L9,18.59c-.14.31-.63.46-.37.89-.06,0-.18-.08-.17-.14-.07.13-.49.41.09.58-.37-.14-.15.28-.05.5l-.26-.13c.3.26.39.3.42.52-.05,0-.23,0-.14-.08-.2.09.21.21,0,.33l-.15-.13c-.07.13,0,.16.2.31s-.17.25-.43.19c.15.07.32.22.22.28a.26.26,0,0,1-.17-.1c-.28.18.19.48-.14.55a.43.43,0,0,0-.18,0c.08-.2.15-.35.17-.33-.26-.09-.36.06-.66-.2.14.2.48.56.31.68h-.1l0,0s0,.07,0,.11-.1.06-.12.11c-.22-.06-.18.14-.22.22.29.09.21.17.47.15,0,0,0,0,0-.08s0,0,0,0h0c0-.05,0-.12,0-.2.12.11.22.21,0,.25l.42.26c-.43,0-.71.12-1,.07.08.29-.07.61.41.92,0,.09-.18,0-.27,0s0-.1-.09-.15c.09.18-.07.43.29.57-.22.13-.31-.2-.32.06l-.1-.06c-.74.31.73,1-.18,1.35a.21.21,0,0,1,.15,0c-.5.52,0,1.32-.66,1.79-.15.15.09.22.25.36l-.32,0,.32.26c.21.3-.85.28-.42.7h.22c-.06.11.06.38-.18.32,0,0,.21.08.09.1l-.16,0,.23.33c-.16.2-.64-.15-.73.17,0,.13.41.42.53.39s.12-.1.29-.08l.07.12A2,2,0,0,0,8,30.28l-.26-.23L8,30v.16c.24-.05,0-.14-.07-.22a.82.82,0,0,0,.27,0l-.43-.26c.19,0,.36.14.49.05-.2-.13-.44,0-.56-.16.24-.05.41,0,.24-.13a.34.34,0,0,1,.25.1c-.13-.12,0-.25-.26-.35.28,0,0-.31.44-.21-.1-.05-.32-.23-.33-.32.51.26.1-.3.67-.14-.46-.21-.13-.44-.36-.7,0,0,.11.06.08.07s.22-.1.33-.15c-.4-.1-.45-.3-.67-.45.41,0,.45.2.83.24-.33-.07-.27-.31-.55-.33a1,1,0,0,1,.48,0c-.5-.14-.06-.12-.35-.28.29-.09.48.08.37-.12C9,26.73,9.13,26.92,9.13,26.92Zm.29-4.08h0v0Zm.1-.33-.06.14c-.1,0-.19-.07-.18-.1S9.42,22.53,9.52,22.51Zm-2.17,0c0-.06,0-.06.1-.05v.1l0,0A.46.46,0,0,1,7.35,22.54Z"/><path class="cls-2" d="M7.69,22.76v0h.07l-.08-.05Z"/><path class="cls-2" d="M14.2,30.54h0s0,0,0,0Z"/><polygon class="cls-2" points="11.74 18.98 11.69 18.92 11.72 18.98 11.74 18.98"/><path class="cls-2" d="M12.28,29.57a.24.24,0,0,0,0-.08A.31.31,0,0,0,12.28,29.57Z"/><path class="cls-2" d="M11.47,29.5l-.12-.1A.31.31,0,0,0,11.47,29.5Z"/><path class="cls-2" d="M10.85,29.35l0,.12h0Z"/><path class="cls-2" d="M19.71,28.1a0,0,0,0,0,0,0S19.68,28.05,19.71,28.1Z"/><path class="cls-2" d="M17.79,29.3a.69.69,0,0,1,.07-.15C17.8,29.14,17.76,29.14,17.79,29.3Z"/><polygon class="cls-2" points="19.02 26.05 19.03 26.05 19.02 26.04 19.02 26.05"/><path class="cls-2" d="M18,29.13c-.06-.05-.1,0-.13,0S18,29.18,18,29.13Z"/><path class="cls-2" d="M8.13,29.14l0,0v.05Z"/><path class="cls-2" d="M8.1,29.17l0,0S8.09,29.2,8.1,29.17Z"/><path class="cls-2" d="M8,29.27l.07-.07S8,29.19,8,29.27Z"/><path class="cls-2" d="M9,29.3v-.1S9,29.25,9,29.3Z"/><path class="cls-2" d="M9.21,29.28c-.06,0-.14-.23-.23-.17v.09C9,29,9.15,29.46,9.21,29.28Z"/><path class="cls-2" d="M10.23,30.63,10,30.54c0,.11.08.27,0,.29C10.27,31.18,10,30.58,10.23,30.63Z"/><path class="cls-2" d="M10.9,30.81c-.12.05,0,.16,0,.23C11,30.93,11,30.91,10.9,30.81Z"/><path class="cls-2" d="M15.72,30.68v.26C15.82,30.9,15.73,30.84,15.72,30.68Z"/><polygon class="cls-2" points="16.49 29.21 16.39 29.05 16.38 29.3 16.49 29.21"/><polygon class="cls-2" points="17.26 31.04 17.23 31.08 17.37 30.96 17.26 31.04"/><path class="cls-2" d="M21.22,24.41l-.31.12C21,24.57,21.35,24.47,21.22,24.41Z"/><path class="cls-2" d="M19.8,21.21c.14-.1.21-.22,0-.23C19.84,21.07,19.74,21.18,19.8,21.21Z"/><polygon class="cls-2" points="11.05 16.3 11.1 16.16 10.96 16.32 11.05 16.3"/><path class="cls-2" d="M47.79,8.49a2.18,2.18,0,0,0-2.88.35A4.08,4.08,0,0,0,44,11.71a4.37,4.37,0,0,0,1.16,3.21,3.21,3.21,0,0,0,2.71.77A3,3,0,0,0,50.11,14a4.7,4.7,0,0,0,.31-1.86,5.19,5.19,0,0,0-.37-2.38,2.41,2.41,0,0,0-1.95-1.4"/><path class="cls-2" d="M48.12,7.67c0,.09,0,.29,0,.25l.05-.34Z"/><path class="cls-2" d="M48.32,8.33a2.56,2.56,0,0,0,.2-.76,3.71,3.71,0,0,0-.2.57s0-.12,0-.25c0,.09-.06-.08-.1.14s.07.28.17.08A1.43,1.43,0,0,1,48.32,8.33Z"/><path class="cls-2" d="M49.84,10.69l0,0Z"/><path class="cls-2" d="M49.73,12.52s0,0-.07,0A.09.09,0,0,0,49.73,12.52Z"/><path class="cls-2" d="M49.33,12.78l0,0S49.3,12.77,49.33,12.78Z"/><path class="cls-2" d="M49.84,10.69l-.09.07C49.86,10.74,49.82,10.72,49.84,10.69Z"/><path class="cls-2" d="M49.06,7.67a.45.45,0,0,0-.07.07l0,0Z"/><path class="cls-2" d="M49.36,10.1h0l-.13.05Z"/><path class="cls-2" d="M49.06,9.74l.33-.25-.17.11Z"/><path class="cls-2" d="M48.74,8.83l0,0Z"/><path class="cls-2" d="M49.43,10.46l-.1,0Z"/><path class="cls-2" d="M47.43,6.8v0S47.44,6.8,47.43,6.8Z"/><polygon class="cls-2" points="47.75 8.54 47.73 8.55 47.62 8.68 47.75 8.54"/><path class="cls-2" d="M48.88,13.15h0S48.86,13.13,48.88,13.15Z"/><path class="cls-2" d="M46.35,14.26c-.09.25-.23.26-.32.55A2.57,2.57,0,0,0,46.35,14.26Z"/><path class="cls-2" d="M49.07,7.72h0S49.08,7.71,49.07,7.72Z"/><path class="cls-2" d="M46,14.81h0v0Z"/><path class="cls-2" d="M48.69,13.89l.1.08Z"/><path class="cls-2" d="M49.38,13.55h0Z"/><path class="cls-2" d="M48.7,14.43s-.05,0,0,0l0,0S48.67,14.4,48.7,14.43Z"/><path class="cls-2" d="M48.35,14.66l0,.05v0Z"/><path class="cls-2" d="M44.82,7.35a1.66,1.66,0,0,1,.16.21C44.87,7.39,44.94,7.26,44.82,7.35Z"/><path class="cls-2" d="M49,7.83c0-.07,0-.1.07-.11h0A.76.76,0,0,0,49,7.83Z"/><path class="cls-2" d="M50.09,16.3l-.14.05A.24.24,0,0,0,50.09,16.3Z"/><path class="cls-2" d="M42.86,12.13l0,0S42.82,12.12,42.86,12.13Z"/><path class="cls-2" d="M49.64,16.6a.57.57,0,0,0-.16-.14.64.64,0,0,1,0,.07Z"/><path class="cls-2" d="M45,7.56h0Z"/><path class="cls-2" d="M45.56,6.57c-.14,0,0,.38.08.6s-.15-.24-.27-.42c-.07.14,0,.49-.07.51a.59.59,0,0,1-.07-.16c0,.32-.27.14-.19.54a.35.35,0,0,1,0-.08c.11.16.2.34.27.46s.05.25-.09,0c0,0,0-.09-.05-.17V8c-.23-.29,0-.14-.14-.38,0,.16,0,.48-.09.43-.22-.28.09-.2-.18-.4l.19,0c-.39-.42.09,0-.31-.47-.23,0-.08.27-.3.31.09.18.19.22.29.4,0,.41-.76-.53-.59,0,.13.21.46.52.2.45l-.27-.3c-.15.11.37.44.06.41-.11-.12,0-.19-.08-.2-.32-.1.13.21.08.27l-.29-.19c-.07.18,0,.48,0,.67a.62.62,0,0,0-.29-.15c0,.29-.26.44-.54.6l.27.18s-.15,0-.2,0,.19.06.29.14-.19,0-.27-.05c.2.24.44.54.09.63L43,10.27c-.15.1.6.24.3.29l0,0c-.17.23.09.51-.38.67.43,0-.21.24.41.27-.31.13-.42.09-.62.29,0,.05.38.07.45.13h-.32l.34.07-.39.07.09,0a.67.67,0,0,1,.24-.06c.15.09-.22.25-.38.26l.29.21a.63.63,0,0,1-.26,0c.34.09-.34.06,0,.14a2.29,2.29,0,0,1,.25,0c-.18.08-.17.21-.07.29l-.22,0c0,.19.16.36.21.55a.78.78,0,0,1,.51-.12l-.32.11c.21,0,.11-.09.38-.08,0,.08-.37.14-.49.13l.14.06c-.1,0-.16,0-.28.05.21,0-.29.25.08.21l-.09,0c.06.21.2.26.28.42.28-.1.24,0,.48-.07,0,.15-.19.38-.09.51s.24-.09.41-.14c-.23.14-.13.26-.34.29a.67.67,0,0,0,.49.25.62.62,0,0,1,.18-.18c.06,0,0,.14-.14.22h0c.23,0,.17.21.15.45s0,.46.26.33h0l.36-.08c0,.1-.17.12-.21.3.46-.21.29.29.62.14-.23.78.51.2.52.73l0-.18c.12-.15,0,.13.06.18,0-.14,0-.18.06-.26.49-.07.84.5,1.38.68.2.06.1-1,.32-.52l0,.35c.32-.43.77-.07,1-.51,0,.08,0,.18,0,.19.14.22.27-.07.2-.27.06,0,.07.17.14.26s.06-.37.19-.15c0,0,0,.08,0,.11,0-.13.22-.07.06-.31.18.07.16-.22.33-.12-.11-.32.27,0,.05-.38.24.4.4.19.33,0,.06.13.14.08.24.25.07-.06.09-.19-.08-.36.51.31-.06-.56.51-.1,0-.39,0-.69.08-.94.39.27-.11.24.29.53,0-.33-.28-.65-.07-.78s.16.12.22.18c0-.3.26-.41.08-.69a.28.28,0,0,1,.11.08s.1-.06-.11-.13l0,.06c-.31-.06-.57-.35-.72-.4.57.24.19-.12.91.19a.47.47,0,0,0-.26-.13.34.34,0,0,1,.28.06c-.07-.16-.31-.17-.28-.28a1.61,1.61,0,0,1,.26.09c-.19-.1-.37-.2-.27-.28s.14,0,.14,0c0-.18-.49-.35-.28-.49.44.1.15,0,.54,0l-.1-.1-.2,0c0-.08-.26-.17-.13-.23l.16.07-.07-.15-.15.07c-.2-.09-.5,0-.38-.11s0-.07.24-.1h0c-.12,0-.25-.09-.15-.14s.43,0,.51,0c-.32,0-.09-.18-.43-.23a1.25,1.25,0,0,0,.33,0l-.27,0a.6.6,0,0,1,.29,0c0-.1-.5,0-.28-.09,0,0,.06,0,.1,0s-.17-.24,0-.35c.39-.05.1.1.43.05-.08-.18-.49-.34-.41-.51l0,0c-.55,0,.27-.15,0-.21a1.17,1.17,0,0,0,.24,0c.08-.13-.16-.23-.37-.37h.15c.11-.09,0-.2.08-.29-.14,0-.13,0-.33,0,.37-.21.23-.31.07-.37s-.32-.1-.05-.33c0,0,.14,0,.13,0l-.19-.12a1,1,0,0,0-.28.19c-.14,0-.26.05-.28,0a.86.86,0,0,0,.45-.27c-.06,0-.14.06-.21.1.34-.29-.43.22-.23,0l.11-.06c-.08,0-.24,0-.24,0,.23-.17.14,0,.34-.15-.06-.06-.52.18-.33,0,.08,0,.11,0,.19,0,.23-.24.16-.2.17-.28h0l0-.2-.05.09c-.62.38-.23-.07-.66.16.41-.23.21-.16.44-.37a.62.62,0,0,1,.15-.25c-.23.14.06-.23-.27,0,.07-.08,0-.05.14-.23-.12,0-.1.14-.19.23-.31.19,0-.53-.42-.25-.25.08-.44.37-.62.47a.78.78,0,0,1,.2-.31c0-.17-.07-.17-.17-.09A.86.86,0,0,0,49,7.94c-.07,0-.17.33-.19.17a2.64,2.64,0,0,1,.2-.37c-.11.06-.23.22-.33.29a.82.82,0,0,1,.18-.35.51.51,0,0,0-.35.37l0,.11s0-.24.07-.29.08.12,0,.22l-.06.05c-.12.59.2,0,.29,0l-.19.4a2.32,2.32,0,0,1,.22-.3,1,1,0,0,1-.18.38c0,.22.11-.12.06.12l0,.06.11-.09c-.05.08-.14.28-.13.21,0,.26.28-.22.14.08l0,0c.19-.06.18-.27.48-.52-.13.24-.26.47-.4.69l.2-.25s0,0-.07.15c.17-.14.08-.12.23-.26-.13.26.24,0-.1.41.19-.16.08-.18.25-.26-.36.41.13,0,0,.22s-.14,0-.28.26c.37-.31,0,.14.08.11.3-.24.19,0,.33,0-.1.08-.08.25-.17.37l-.06,0c.34-.18.31-.08.41-.06a1.47,1.47,0,0,1-.4.15l0,0a.55.55,0,0,1,.24-.05l-.27.11s.37,0,.22.14c.25-.08.67-.34.88-.29a1.83,1.83,0,0,1-.44.13s.13,0,.08,0l-.25,0c-.09.08.2,0,.19,0-.19.06-.13.07-.29.12s.07-.06,0,0a.6.6,0,0,1-.27.18.7.7,0,0,1,.3-.06c0,.06-.23.09-.32.15.14,0,0,.06.3,0,0,0-.13.06-.21.09.14,0,.07.15.39,0h0c.33.07-.12.29,0,.39h-.1c.12.06.08.16.31.19,0,0-.19.07-.31.07.08,0,.2,0,0,.15-.18-.05-.16,0-.13-.06-.09.08-.25.1,0,.17-.26,0-.33.07-.25.1l.19-.05s0,.07,0,.11l-.35,0c-.42.15.73.28,0,.39.25.05.18-.08.46,0,0,.08-.55.14-.55.16-.2.09.51.11.37.2a1.36,1.36,0,0,1,.57.08c-.05.08-.52.06-.62,0s0,0,.07,0a.33.33,0,0,0-.23,0h.12c-.13,0-.12.12-.32.09a.32.32,0,0,0,.27,0c-.19.07,0,.13-.15.2h.22c-.17.11.23.09.27.18-.2,0-.45-.08-.3,0a1,1,0,0,1-.43-.07c.23.1-.17.1-.22.12l-.09,0c.05,0,.05,0,0,.06l.25,0a.24.24,0,0,1-.15,0c.15.06.41.07.61.16-.12,0,.11.12-.21,0,.13,0-.32-.07-.36-.15s0,0,0,0l-.09,0c-.3,0,.36.12.33.2-.18-.07-.34-.09-.31-.07a1.45,1.45,0,0,1,.43.15c-.16,0,.08.09.05.12h.08c.17.07.14.09.18.15-.14,0-.08-.07-.15-.08.29.17-.35,0-.17.1-.12,0-.31-.15-.4-.17.19.15-.25-.08-.1.06a.82.82,0,0,1,.36.24l-.1-.18.28.24s-.1-.14,0-.14a.78.78,0,0,0,.3.18c-.35-.14.14.2-.11.13L49,13.74c-.26-.11.2.28,0,.27l.1,0c.18.17,0,.07,0,.17a2.85,2.85,0,0,0-.33-.25c.12.1-.06,0,.23.33l-.22-.16c-.14,0,.33.5.2.51a4.05,4.05,0,0,1-.31-.43s-.06,0,0,.11c-.09-.09.11.27,0,.13.05.08.17.25.13.26l-.06-.08c.06.08,0,.15.2.31-.44-.47-.23.2-.57-.24a.51.51,0,0,1-.12.22l0-.08c-.14-.15.17.57,0,.41s0-.19-.09-.3c-.23-.64-.07.12-.25-.24v0c-.1-.21,0,.27-.13.24l0-.1a.77.77,0,0,1-.15.59,1.48,1.48,0,0,0,0-.42s.06.44,0,.52a2.08,2.08,0,0,1-.12-.56l.06,0c-.06-.37-.08,0-.12,0v-.17c-.08.06-.09.47-.2.44v.12c-.09.4,0-.23-.12.07l0-.42a1.62,1.62,0,0,1-.28.45c.1-.3.2-.44.26-.62,0,0-.11,0-.17.22,0,0,.06-.14.06-.07-.09.31-.19.45-.27.43.19-.78-.16-.25,0-.86-.21.24-.17-.19-.28-.2-.25.57,0,0-.34.57,0,0-.06,0,0,0s.07-.26.11-.38.1-.11.17-.23.12-.24.19-.4c-.12.19-.2.26-.17.17l-.13.27c-.27.23.26-.48,0-.25l.14-.14c-.1.07-.08-.08-.47.26a.84.84,0,0,1,.21-.21c0-.11-.58.18-.38-.09l.13-.09s-.26.14-.14,0l.13-.09s-.26.1-.2,0l.17-.07c.12-.19-.46.07-.61,0a1.46,1.46,0,0,0,.57-.41l.06,0c0-.12-.43-.06-.65-.16.46-.21.13-.34.38-.53a1.12,1.12,0,0,1-.4,0c.09,0-.33,0,.09-.1h0c.41-.08.29-.13.3-.19l-.56.06c.79-.22-.32-.39.4-.51-.14,0-.14-.08-.28-.12h.3c.07-.1.11-.14,0-.27l.21,0c0-.06-.85-.11-.86-.18h.44c0-.12.4-.19,0-.35a.71.71,0,0,1,.21.05c0-.05.32-.14-.28-.23.39.07.06-.1-.1-.2l.29.07c-.36-.13-.45-.16-.54-.26s.23,0,.16.05c.16,0-.26-.12-.09-.15l.17.08c0-.05-.06-.08-.25-.17s.11-.1.36,0c-.15-.06-.34-.17-.25-.18a.61.61,0,0,1,.17.09c.21,0-.25-.28,0-.22l.16.07c0,.06-.08.11-.1.09a4.76,4.76,0,0,1,.64.27c-.17-.1-.54-.37-.4-.36l.09,0,0,0s0,0,0-.05h.09c.19.11.13,0,.15,0-.25-.16-.19-.17-.41-.27,0,0,0,0,0,0s0,0,0,0h0a.25.25,0,0,1,0,.07c-.12-.1-.21-.19,0-.13l-.37-.3a8.84,8.84,0,0,1,.79.41,1.28,1.28,0,0,0-.33-.62c0-.07.13.1.19.16s0,0,.06.11c-.07-.13.06-.12-.17-.43.16.1.19.3.22.2l.06.1c.24.21.13,0,.09-.25s0-.46.2-.13A.63.63,0,0,1,46,8.78c.17.12.24,0,.35-.07s.24-.12.34.16c.06.11.06-.14.12-.32v.31c0-.12.06-.24.09-.36s0,.79.2.32l.06-.2s.17-.07.06.15c0,0,.11-.2.08-.09l-.07.15a1.39,1.39,0,0,1,.21-.21c0,.15-.33.57-.29.63s.35-.33.42-.42,0-.11.12-.24l.1,0c.3-.38.7-.71.73-1.11a2.8,2.8,0,0,0-.3.15l.09-.22.12.06c.06-.23-.09-.1-.2,0a.52.52,0,0,0,.07-.25c-.12.1-.24.22-.35.33.07-.18.23-.3.19-.45-.16.17-.13.41-.3.5,0-.23.12-.39,0-.25a.39.39,0,0,1,.14-.22c-.13.1-.22,0-.34.21,0-.28-.25,0-.13-.44-.05.1-.21.33-.27.33.21-.52-.24-.07-.15-.65-.14.49-.36.2-.51.49,0,0,0-.12,0-.1s-.13-.18-.19-.27a3.1,3.1,0,0,1-.12.77c-.16-.37,0-.48-.1-.85.05.32-.13.36,0,.62a1.35,1.35,0,0,1-.19-.43c.09.51-.06.1-.05.43-.17-.22-.15-.46-.23-.28A.4.4,0,0,1,45.56,6.57ZM43.81,9.06h0v0Zm-.09.19a.56.56,0,0,0,.05-.08c.09,0,.18.09.17.11S43.81,9.26,43.72,9.25Zm2,.68s0,0-.08,0l0-.05,0,0Z"/><path class="cls-2" d="M45.35,9.7v0l-.06,0,.07.06Z"/><path class="cls-2" d="M49.89,10.66h0Z"/><polygon class="cls-2" points="42.7 11.91 42.78 11.91 42.71 11.89 42.7 11.91"/><path class="cls-2" d="M50.52,9.43l.06,0Z"/><path class="cls-2" d="M50.32,9l0-.12A.31.31,0,0,0,50.32,9Z"/><path class="cls-2" d="M50.18,8.58l-.1.08h0Z"/><path class="cls-2" d="M51.24,14.21v0C51.29,14.29,51.27,14.26,51.24,14.21Z"/><path class="cls-2" d="M50.86,12.4l.14,0S51,12.4,50.86,12.4Z"/><polygon class="cls-2" points="50.1 16.3 50.1 16.29 50.09 16.3 50.1 16.3"/><path class="cls-2" d="M51,12.52c.06,0,0,0,0-.07S50.94,12.5,51,12.52Z"/><path class="cls-2" d="M48.69,7.53l0,0v0Z"/><path class="cls-2" d="M48.66,7.55l0,0S48.65,7.59,48.66,7.55Z"/><path class="cls-2" d="M48.56,7.64l.07-.06S48.59,7.56,48.56,7.64Z"/><path class="cls-2" d="M49.19,7.85l.05-.1Z"/><path class="cls-2" d="M49.36,7.9s0-.26-.08-.22l0,.07C49.34,7.62,49.24,8,49.36,7.9Z"/><path class="cls-2" d="M49.06,9.29V9.17c-.06.1-.14.23-.18.23C48.73,9.72,49,9.19,49.06,9.29Z"/><path class="cls-2" d="M49.13,9.58c-.07,0-.12.12-.17.16A.37.37,0,0,0,49.13,9.58Z"/><path class="cls-2" d="M49.74,11.34h-.27S49.57,11.35,49.74,11.34Z"/><polygon class="cls-2" points="51.14 11.73 51.3 11.69 51.06 11.67 51.14 11.73"/><polygon class="cls-2" points="49.23 11.99 49.19 11.98 49.29 12.04 49.23 11.99"/><path class="cls-2" d="M48.29,14.39l.17.29C48.45,14.62,48.27,14.29,48.29,14.39Z"/><path class="cls-2" d="M47.22,15c0-.16,0-.27-.06-.11S47.21,15,47.22,15Z"/><polygon class="cls-2" points="45.37 12.19 45.48 12.21 45.39 12.17 45.37 12.19"/><path class="cls-2" d="M41.77,29.16a24.24,24.24,0,0,1,0-6.48,8.1,8.1,0,0,1,1.4-3.89,5.52,5.52,0,0,1,8.42-.22c1.31,1.51,1.58,3.56,2,5.47a31,31,0,0,0,1.13,4,1.51,1.51,0,0,1,.13.72c-.09.55-.75.83-1.32,1a19.65,19.65,0,0,1-11.68-.57"/><path class="cls-2" d="M42.12,28.53c-.06.07-.12.27,0,.25l.16-.31Z"/><path class="cls-2" d="M42.3,29.27a1.39,1.39,0,0,0,.36-.7c-.18.29-.15.15-.35.5-.08,0-.07-.14,0-.26,0,.08-.06-.1-.17.09s.08.33.26.15A.53.53,0,0,1,42.3,29.27Z"/><path class="cls-2" d="M48.5,30.86l0,0S48.48,30.86,48.5,30.86Z"/><path class="cls-2" d="M52.53,30.67a.07.07,0,0,0,0,.08A.08.08,0,0,0,52.53,30.67Z"/><path class="cls-2" d="M53.29,30.9h0S53.29,30.93,53.29,30.9Z"/><path class="cls-2" d="M48.5,30.86l.1.11C48.61,30.86,48.55,30.89,48.5,30.86Z"/><path class="cls-2" d="M43.37,28.73s0,0-.08.08l.06,0Z"/><path class="cls-2" d="M46.7,31.05h0l0,.14Z"/><path class="cls-2" d="M45.32,30.93s.09-.27.12-.39c0,.11-.07.17-.1.18S45.33,30.85,45.32,30.93Z"/><path class="cls-2" d="M43.32,30l0,0Z"/><path class="cls-2" d="M47.68,31.19a.28.28,0,0,0,0,.1A.34.34,0,0,0,47.68,31.19Z"/><path class="cls-2" d="M43,27.54h0S43,27.55,43,27.54Z"/><polygon class="cls-2" points="41.7 29.17 41.68 29.15 41.52 29.16 41.7 29.17"/><path class="cls-2" d="M55.21,30.58h0C55.17,30.64,55.2,30.62,55.21,30.58Z"/><path class="cls-2" d="M53,18.31c-.13.27-.42,0-.53.35C52.53,18.57,53,18.56,53,18.31Z"/><path class="cls-2" d="M43.39,28.78h0S43.4,28.77,43.39,28.78Z"/><path class="cls-2" d="M52.45,18.66h0v0Z"/><path class="cls-2" d="M55.6,26.66l-.12.06A.43.43,0,0,0,55.6,26.66Z"/><path class="cls-2" d="M55.51,29.42l.07,0Z"/><path class="cls-2" d="M54.9,25.76s.05-.05,0-.07l0,0S54.94,25.72,54.9,25.76Z"/><path class="cls-2" d="M54.62,24.69l0,0,0,0Z"/><path class="cls-2" d="M42.89,24.27a1.18,1.18,0,0,1-.27,0C42.83,24.3,42.89,24.46,42.89,24.27Z"/><path class="cls-2" d="M43.32,28.89c0-.07,0-.1.07-.11h0A.26.26,0,0,0,43.32,28.89Z"/><path class="cls-2" d="M52.65,26.34v-.19A.32.32,0,0,0,52.65,26.34Z"/><path class="cls-2" d="M45.66,18.36l0,0S45.66,18.39,45.66,18.36Z"/><path class="cls-2" d="M52.45,25.61a.48.48,0,0,0,.18-.15.22.22,0,0,0-.08,0Z"/><path class="cls-2" d="M42.62,24.3Z"/><path class="cls-2" d="M43.26,25.46c0-.16-.38-.09-.6-.13-.1-.2.29-.08.49-.14-.1-.12-.45-.23-.43-.32a.48.48,0,0,1,.17,0c-.3-.14,0-.38-.37-.56h.1a2.89,2.89,0,0,1-.53,0c0-.07-.23-.16,0-.16,0,0,.09.05.17.08l-.1-.09c.36,0,.11.12.38.14-.11-.16-.39-.36-.28-.47.36,0,.1.28.43.16l-.15.16c.57-.08-.05.11.56,0,.12-.22-.16-.28,0-.5-.19-.07-.3,0-.49-.09-.31-.38.92-.15.48-.45-.22-.09-.67-.18-.41-.32l.39.11c.08-.21-.55-.21-.25-.4.15.07.11.19.16.17.34-.1-.21-.14-.19-.26l.36,0c0-.24-.22-.54-.23-.81a.51.51,0,0,0,.32.07c-.1-.35.21-.64.51-.82l-.25-.21s.15,0,.19.06-.18-.08-.27-.18.19,0,.26.07c-.17-.27-.26-.76.13-.77l.06.08c.18-.06-.44-.48-.12-.46l0,.06c.29-.2.36-.68.86-.51-.25-.37.37-.05,0-.55.35.13.37.25.69.29.07,0-.11-.39-.06-.49l.16.28-.06-.35.24.31,0-.11s-.12-.1-.16-.18.39.06.45.22c0-.12.12-.24.18-.36a.49.49,0,0,1,0,.27c0-.36.13.32.17,0a.82.82,0,0,1-.06-.25.23.23,0,0,0,.38,0l0,.23c.21,0,.41-.19.66-.2-.1-.1-.11-.49,0-.53l.05.34c0-.21-.09-.12,0-.39.11,0,.08.39,0,.5l.11-.12c0,.1,0,.15,0,.28,0-.21.18.34.25,0v.1c.22,0,.34-.09.54-.07.05-.29.12-.21.23-.43.14.13.24.39.42.42s.11-.22.23-.37c-.08.26.1.3-.06.45a1.37,1.37,0,0,0,.63,0c0-.11,0-.17.07-.24s.06.15,0,.26l0,0c.24-.1.31.18.35.42s0,.45.31.31l0,0a2.45,2.45,0,0,1,.38,0c.05.11-.19.09-.25.27.51-.12.23.34.59.34-.55.57.38.5,0,1l.16-.1c.19,0-.06.12-.08.18.13-.07.12-.13.23-.14.44.42.15,1.19.12,1.81,0,.24,1-.09.6.3h-.35c.5.38.18,1,.62,1.4-.08,0-.18,0-.19-.05-.23.16.06.39.27.35,0,.08-.18.06-.27.13s.37.2.14.31a.18.18,0,0,1-.11,0c.13,0,0,.33.31.2-.09.21.21.32.08.51.33,0-.08.36.38.27-.47.11-.29.43,0,.48-.15,0-.11.14-.32.15,0,.13.16.23.39.14-.47.4.58.36-.07.71.18.15.34.31.49.46s.14.18.19.22l.14.11c-.47.09-.1-.16-.59-.06.08.09.13,0,.21.07l.21,0c.12,0,.23.1.19.17s-.23,0-.32,0c.24.13,0,.16.19.38l-.12-.1s-.1,0,.12.13l0,0a1.74,1.74,0,0,1,.68.62c-.52-.46-.31,0-.89-.61a1.48,1.48,0,0,0,.21.23.71.71,0,0,1-.24-.22c0,.12.21.3.12.33s-.08-.12-.15-.23c.11.18.16.38,0,.33s-.07-.13,0-.13-.05.17-.1.29a.26.26,0,0,1-.34.17c0-.46-.13-.12-.23-.5l-.12.15.1.18c-.14,0-.2.32-.34.22l.07-.18-.24.12.17.12c-.1.22.11.48-.09.41,0,0-.14,0-.26-.19h0c0,.13-.1.27-.22.19s0-.43-.08-.5c0,.33-.3.14-.34.49a.79.79,0,0,0,0-.32v.27a.33.33,0,0,1-.11-.28c-.2,0,.13.48-.13.3,0,0,0-.06,0-.11-.25-.08-.43.23-.66.11-.1-.38.18-.11.07-.43-.28.09-.58.53-.89.44l.06.05c0,.55-.23-.27-.37,0a.51.51,0,0,0,0-.25c-.2-.08-.41.15-.72.33l0-.15c-.12-.12-.31-.07-.44-.14,0,.14-.11.12-.07.33-.37-.82-.79.4-1.11-.3.05,0,.11-.12.08-.12l-.31.1c0,.24,0,.15.07.35s-.14.24-.22.23c.15-.15,0-.39,0-.53a1.81,1.81,0,0,1,0,.23c-.11-.44-.08.48-.26.17l0-.12c-.08.05-.18.21-.26.16,0-.28.1-.11.13-.34-.12,0-.31.49-.38.2.06-.07.14-.06.2-.13-.08-.35-.1-.27-.18-.33h0l-.18-.18,0,.1c-.26.7-.32.08-.61.51.28-.4.08-.25.15-.56,0-.09-.1-.2-.06-.29-.14.24-.12-.22-.32.12,0-.1-.1,0,0-.28-.13.05,0,.18,0,.31-.26.29-.35-.51-.72-.11-.28.13-.41.45-.68.56a.44.44,0,0,1,.16-.34c-.08-.18-.18-.17-.32-.1a.59.59,0,0,0,0-.28c-.09,0-.16.34-.24.16a2.6,2.6,0,0,1,.21-.36c-.13.05-.29.21-.43.26,0-.18.15-.24.22-.34a.61.61,0,0,0-.48.31l0,.13s.06-.24.11-.28.12.14.09.24l-.1,0c-.1.59.35,0,.49.08l-.19.4.26-.3c0,.12,0,.36-.13.4,0,.25.14-.12.17.14a.07.07,0,0,1,0,.07l.15-.09c0,.08-.06.3-.12.22.15.3.42-.23.41.11l0,0c.32-.07.1-.3.4-.61l0,.8.1-.31a.14.14,0,0,1,0,.18c.15-.19,0-.14.12-.33.08.32.41-.05.34.46.1-.23-.1-.21.09-.35-.06.55.19-.06.28.21-.09.27-.19.1-.11.37.17-.45.24.15.37.08.07-.37.27-.12.48-.21,0,.12.32.26.49.41l0,.06c.08-.38.25-.29.39-.35a.63.63,0,0,1-.14.41h.13c0-.12.08-.18.17-.21l-.06.28c.17,0,.37-.32.57-.11,0-.27-.12-.75.11-.92a.94.94,0,0,1-.07.45s.08-.12.11-.05l-.1.24c.09.11.06-.2.13-.18,0,.21,0,.16,0,.32s-.06-.09-.09,0a.49.49,0,0,1,.21.33c0-.12,0-.28.08-.31s.05.25.14.36c.05-.14.15,0,.16-.3,0,0,.06.15.07.24.09-.14.41,0,.32-.36l0,0h0c.28-.31.58.18.86,0v.1c.16-.12.37-.08.47-.31,0,0,.13.18.12.31.12-.09.12-.21.32-.05-.11.19.06.15-.12.14.17.08.23.24.38-.06,0,.27.16.32.23.24L50.58,31a.33.33,0,0,1,.24,0v.35c.4.38.53-.78.89-.13,0-.25-.22-.14-.18-.43.16,0,.41.49.46.48.25.16.12-.53.36-.44-.05-.12-.13-.44,0-.59.16,0,.3.47.22.59s-.07,0-.07-.06-.1.12,0,.24v-.12c.11.11.32.05.31.26.1-.14,0-.21-.09-.26.24.14.32-.05.55,0,0-.06-.11-.2-.08-.21.34.08.08-.26.26-.36.18.15,0,.46.27.24.22.07.14.3.09.42.21-.3.62,0,.84-.06l-.12.15a.57.57,0,0,1,.23-.16l-.22-.17c.11,0,.19,0,.25.05,0-.18-.3-.32-.27-.58.18.06.19-.25.45,0-.39.11.27.23,0,.44a.27.27,0,0,1,.21-.12.06.06,0,0,1,0,.08c.53,0-.11-.37.16-.59.11.15.35.15.36.07-.12.12-.3-.13-.34-.3.27-.1,0-.25.12-.34l-.12.08c-.14-.13-.06-.19-.07-.34.15,0,0,.15.12.13-.24-.25.45-.22.26-.53.13-.08.35.07.44,0-.25-.32.26-.29,0-.63-.24.1-.17.09-.47-.1a3.72,3.72,0,0,1,.27.48,4.23,4.23,0,0,0-.42-.32c0,.13.21.29.17.36-.22-.16-.16-.13-.36-.1.36-.13-.29-.31-.09-.49l.63-.05c.16-.41-.54-.6-.46-.86l-.07.12c-.25,0-.09-.16-.21-.22a.82.82,0,0,0,.36-.21c-.14.05,0-.2-.45-.1l.22-.2c0-.26-.64-.09-.63-.33.23,0,.35-.13.54,0,0-.08,0-.15-.14-.11.12-.08-.32-.12-.15-.24-.1,0-.31,0-.31-.05a.24.24,0,0,1,.1,0c-.1,0-.17-.1-.38,0,.57-.39-.2-.62.29-.95a1.54,1.54,0,0,1-.26-.46c.06,0,.1,0,.08,0,.15-.24-.6,0-.44-.28s.2.09.31,0c.66-.17-.15-.26.21-.49l0,0c.21-.17-.31-.24-.3-.45a.27.27,0,0,0,.1,0,1,1,0,0,1-.66-.47c.27,0,.15.06.41,0-.05-.08-.42.11-.53,0a1.24,1.24,0,0,1,.51-.31l.05.16c.35-.17-.06-.21,0-.31l.16,0c-.11-.24-.51-.15-.55-.42l-.11.05c-.43,0,.19-.18-.14-.24l.39-.16a2.84,2.84,0,0,1-.61-.37,1.84,1.84,0,0,1,.74.24c0-.1-.12-.33-.33-.32,0,0,.16.05.11.11-.35,0-.54-.13-.6-.32.77-.23,0-.56.52-.94-.43-.23-.22-.76-.52-1.15-.44.48-.09-.1-.61.28-.09-.06-.11-.1-.08-.13a4.21,4.21,0,0,0,.12-.48c.1-.18.18,0,.28-.1-.11-.23.15-.25.18-.49-.16.17-.31.14-.34,0l-.09.35c-.48,0,.2-.6-.3-.62l.22-.06c-.21-.05-.52-.49-1-.18,0-.08.09-.24.18-.23-.32-.34-1.07-.07-1.2-.48l.1-.13c-.09,0-.25.21-.27,0s.09-.12.07-.15-.3.16-.36.05l.15-.13c-.32-.36-.74.17-1.07.19a.66.66,0,0,0-.31-.77l0-.06c-.49-.15-.89.25-1.31.43-.27-.51-.93-.18-1.41-.35.09.06.06.35,0,.41s-.2.38-.28,0h0c-.17-.38-.36-.22-.53-.17l.15.53c-.33-.31-.58-.14-.78,0s-.34.37-.63.11c0,.18-.13.24-.14.41l-.16-.25a1.22,1.22,0,0,0-.68.45L43,16.72c-.18.14.35.83.24,1l-.34-.29c-.25.24-.81.28-.7.82-.05-.05-.15-.13-.13-.19-.11.12-.63.39-.08.66-.34-.21-.22.29-.14.53l-.25-.16c.26.31.35.36.36.59-.06,0-.23-.06-.14-.09-.21.09.21.23,0,.34l-.15-.14c-.09.15,0,.18.19.34s-.18.26-.44.2c.15.08.32.23.22.29a.29.29,0,0,1-.17-.09c-.27.21.21.48-.11.58a.34.34,0,0,0-.17,0c.05-.21.12-.38.14-.35-.26-.08-.36.09-.68-.16.16.21.52.55.36.69H41l0,0s0,.08,0,.12-.1.07-.11.12c-.22,0-.16.18-.19.26.3.05.23.15.49.09,0,0,0,0,0-.08a0,0,0,0,0,0,0h0a1.83,1.83,0,0,1,0-.21c.13.1.24.19.06.25l.45.2c-.43,0-.68.22-.94.21.12.29,0,.63.55.85.06.08-.17.06-.26.08s0-.1-.11-.13c.12.16,0,.44.38.51-.19.16-.34-.14-.3.12l-.12-.05c-.66.44.91.87.09,1.35a.24.24,0,0,1,.14-.05c-.38.61.29,1.26-.25,1.88-.11.17.14.19.33.28l-.31.05.37.17c.28.23-.75.48-.22.78l.21-.06c0,.12.15.35-.09.36,0,0,.22,0,.11.07l-.16,0,.31.25c-.1.23-.66,0-.65.37a.88.88,0,0,0,.62.22c0-.05.09-.13.25-.16l.1.1a2.14,2.14,0,0,0,1.3-.32l-.32-.14.23-.08,0,.14c.22-.11,0-.14-.13-.18a.55.55,0,0,0,.25-.1l-.48-.13c.19,0,.39,0,.48-.08-.22-.06-.42.12-.57,0,.21-.11.39-.1.2-.18a.36.36,0,0,1,.26,0c-.16-.07-.08-.22-.34-.25.26-.1-.1-.29.37-.31-.12,0-.38-.13-.4-.21.56.12,0-.3.61-.29-.5-.09-.23-.38-.51-.56,0,0,.12,0,.09,0s.19-.14.28-.21c-.41,0-.5-.18-.75-.27.39-.13.48.08.86,0-.33,0-.33-.23-.61-.19a1,1,0,0,1,.46-.13c-.51,0-.08-.09-.4-.18.26-.15.48,0,.33-.19C43.08,25.31,43.26,25.46,43.26,25.46Zm-.44-3.85h0v0Zm.07-.31a.39.39,0,0,0,0,.13c-.1,0-.2-.05-.18-.08S42.79,21.32,42.89,21.3Zm-2.15.24c0-.06,0-.07.09-.06a.41.41,0,0,0,0,.1l0,0Z"/><path class="cls-2" d="M41.09,21.72s0,0,0,0l.07,0-.08,0Z"/><path class="cls-2" d="M48.45,30.82h0s0,0,0,0Z"/><polygon class="cls-2" points="45.46 18.62 45.43 18.55 45.44 18.62 45.46 18.62"/><path class="cls-2" d="M46.65,29.7a.22.22,0,0,0,0-.08A.25.25,0,0,0,46.65,29.7Z"/><path class="cls-2" d="M45.89,29.54l-.1-.12A.32.32,0,0,0,45.89,29.54Z"/><path class="cls-2" d="M45.32,29.3l0,.12h0Z"/><path class="cls-2" d="M53.56,28.45h0Z"/><path class="cls-2" d="M52,29.64l.06-.15S52,29.47,52,29.64Z"/><polygon class="cls-2" points="52.65 26.36 52.65 26.36 52.65 26.34 52.65 26.36"/><path class="cls-2" d="M52.17,29.47c-.06,0-.1,0-.13,0S52.14,29.52,52.17,29.47Z"/><path class="cls-2" d="M42.87,28.55l0,0s0,0,0,0Z"/><path class="cls-2" d="M42.83,28.58l0,0S42.82,28.61,42.83,28.58Z"/><path class="cls-2" d="M42.7,28.65l.09,0S42.75,28.57,42.7,28.65Z"/><path class="cls-2" d="M43.58,28.91l0-.1Z"/><path class="cls-2" d="M43.82,28.94s-.08-.26-.17-.21l0,.08C43.7,28.67,43.72,29.1,43.82,28.94Z"/><path class="cls-2" d="M44.52,30.46l-.19-.13c0,.12,0,.28-.08.29C44.45,31,44.25,30.36,44.52,30.46Z"/><path class="cls-2" d="M45.14,30.75c-.12,0,0,.16,0,.22S45.21,30.86,45.14,30.75Z"/><path class="cls-2" d="M50,31v.27C50,31.23,50,31.17,50,31Z"/><polygon class="cls-2" points="50.72 29.55 50.62 29.39 50.61 29.64 50.72 29.55"/><polygon class="cls-2" points="51.48 31.38 51.45 31.42 51.59 31.3 51.48 31.38"/><path class="cls-2" d="M54.92,24.82l-.31.11C54.68,25,55,24.89,54.92,24.82Z"/><path class="cls-2" d="M53.88,21.59c.15-.07.23-.2.06-.22C53.93,21.46,53.83,21.56,53.88,21.59Z"/><polygon class="cls-2" points="45.18 15.85 45.22 15.71 45.1 15.85 45.18 15.85"/><path class="cls-2" d="M12.62,22.36c-.1,0-.28.09-.19.2l.36,0Z"/><path class="cls-2" d="M12.39,23.48a.82.82,0,0,0,.82-.08c-.37,0-.26-.11-.69-.12a.18.18,0,0,1,.13-.29c-.1,0,0-.23-.24-.22-.18.27-.1.49.2.63C12.56,23.47,12.45,23.46,12.39,23.48Z"/><path class="cls-2" d="M19.07,35.64l0-.1A.44.44,0,0,0,19.07,35.64Z"/><path class="cls-2" d="M24.47,42.36s-.09,0-.12,0S24.46,42.39,24.47,42.36Z"/><path class="cls-2" d="M25.17,43.71l0-.08S25.14,43.72,25.17,43.71Z"/><path class="cls-2" d="M19.07,35.64l.06.24C19.23,35.83,19.12,35.74,19.07,35.64Z"/><path class="cls-2" d="M13.92,24.86a.21.21,0,0,0-.13-.07.3.3,0,0,1,.08.08Z"/><path class="cls-2" d="M16.59,32.72l0-.06-.15,0Z"/><path class="cls-2" d="M14.94,30.28c0,.06.29-.07.41-.12a.33.33,0,0,1-.25,0A.76.76,0,0,0,14.94,30.28Z"/><path class="cls-2" d="M13.13,26l-.08-.05Z"/><path class="cls-2" d="M17.76,34.47l-.07.08A.18.18,0,0,0,17.76,34.47Z"/><path class="cls-2" d="M18.42,22.72v-.06S18.4,22.71,18.42,22.72Z"/><polygon class="cls-2" points="15.07 21.22 15.11 21.2 15.13 21.04 15.07 21.22"/><path class="cls-2" d="M26.71,46h0C26.64,45.91,26.67,45.94,26.71,46Z"/><path class="cls-2" d="M44.36,30.78c-.38.06,0-.56-.47-.41C44,30.41,44,31,44.36,30.78Z"/><path class="cls-2" d="M13.92,24.94a.37.37,0,0,1,.05.11A.19.19,0,0,0,13.92,24.94Z"/><path class="cls-2" d="M43.89,30.37h0l0,0Z"/><path class="cls-2" d="M33,45.3l-.14,0S32.91,45.3,33,45.3Z"/><path class="cls-2" d="M28.38,46.88l.1.16A.49.49,0,0,0,28.38,46.88Z"/><path class="cls-2" d="M34.14,43.17c.06,0,.1,0,.12-.12h0C34.23,43.1,34.22,43.14,34.14,43.17Z"/><path class="cls-2" d="M35.68,41.21H35.6l0,.07Z"/><path class="cls-2" d="M26,22.66a1.53,1.53,0,0,1-.11-.27C25.91,22.6,25.54,22.67,26,22.66Z"/><path class="cls-2" d="M13.78,24.93c.07,0,.11,0,.14,0l-.05-.07S13.79,24.9,13.78,24.93Z"/><path class="cls-2" d="M32.38,41.65l.27-.28A1.45,1.45,0,0,0,32.38,41.65Z"/><path class="cls-2" d="M43.83,22.81l-.09,0A.08.08,0,0,0,43.83,22.81Z"/><path class="cls-2" d="M33.35,40.42a.51.51,0,0,0,.29-.05.13.13,0,0,0,0-.08Z"/><path class="cls-2" d="M25.87,22.39Z"/><path class="cls-2" d="M23.26,23.06c.37,0,.18-.38.26-.6.45-.1.21.29.36.49.28-.1.5-.46.71-.44,0,.07.05.09,0,.17.3-.31.89,0,1.24-.39a.69.69,0,0,1,0,.1,1.74,1.74,0,0,1-.05-.53c.17,0,.32-.25.38,0-.1,0-.11.09-.16.17l.17-.11c.16.37-.24.12-.24.39.35-.11.75-.41,1-.3.06.36-.62.11-.27.43l-.4-.14c.3.57-.25,0,0,.56.54.11.6-.17,1.14-.06.12-.2,0-.29.08-.49.77-.35.6.9,1.16.43.15-.23.21-.68.61-.44l-.14.4c.52.05.3-.57.84-.3-.09.16-.41.13-.33.18.35.32.25-.23.53-.22l.05.35c.55,0,1.17-.3,1.78-.36,0,.11-.14.22,0,.33a5,5,0,0,1,2.4.28l.29-.3a.12.12,0,0,1,0,.2c.29.12,0-.2.16-.32a.15.15,0,0,1,.11.27,2.46,2.46,0,0,1,2-.21L37,22.7c.43.13.49-.62.88-.33l-.08.05c.91.15,1.93-.13,2.62.35.14-.44.91.2,1-.41.52.31.37.42,1.11.63.19,0,.29-.38.54-.44v.32l.33-.33.17.38.23-.08a.24.24,0,0,1-.17-.24.8.8,0,0,1,.87.4l.85-.26c0,.13-.17.17-.28.25.45-.32.08.34.49.05,0-.08,0-.19,0-.26a1.21,1.21,0,0,0,1,.13.89.89,0,0,1,0,.22c.07,0,.07,0,.15,0a.55.55,0,0,1,.23-.07,2.14,2.14,0,0,1,.63-.52l-.38.34c.32-.21.07-.13.51-.39.09,0-.46.39-.63.5l.25-.12-.44.28c.17-.1.07,0,0,.05s-.18.11.18-.07l-.19.1h0s.16,0,.13,0a1.15,1.15,0,0,1,.62,0c-.26.18-.61.25-.65.34s.2.15.3.3c-.19-.19-.51.26-.49-.08A5.86,5.86,0,0,0,46,25.14c.14,0,.23,0,.27.06a.25.25,0,0,1-.37.08v-.05c-.21.93-1.84,1.08-1.83,2v-.05l-.21.74c-.24.23,0-.28-.31-.19-.13.88-.81.91-1,1.6-.93-.11-1,1.39-1.84,1.6l.17.09c0,.24-.21.09-.32.17.12.07.25-.05.26.1-.72,1.27-2.06,2.18-3.11,3.24-.37.39.57.84-.2,1.1l-.16-.37C37,36.35,36,37,35.59,38c0-.1-.1-.16,0-.24-.34,0-.53.65-.37.78-.12.11-.17-.09-.32-.07s-.1.64-.37.58c0,0,0-.1,0-.14,0,.19-.45.52-.14.59-.36.23-.37.68-.71.83.13.36-.54.44-.22.78-.36-.32-.74.32-.72.65-.06-.15-.26.09-.35-.11-.18.23-.27.49-.05.6-.77.07-.3,1.13-1.06.92-.17.41-.34.81-.52,1.18s-.42.78-.44.9c-.13-.21-.12-.24-.06-.34s.22-.34,0-.48a1.42,1.42,0,0,0-.14.46.93.93,0,0,1,0,.25c0,.17-.06.39-.2.43s0-.29,0-.4c0,.22-.21.21-.28.11a.32.32,0,0,0-.31-.14s.08,0,.11-.07,0-.12-.16,0h.07a.46.46,0,0,1-.38.27c-.19,0-.42-.06-.49,0,.6-.25-.32-.57.48-.85a.29.29,0,0,0-.32.07c-.06-.12,0-.21.18-.22-.39-.26-.45,0-.73-.3.08-.07.16,0,.28-.08a.8.8,0,0,1-.76-.36c.07,0,.1-.11.17,0-.44-.43-1.1-.4-1.4-1,.47-.16,0-.27.22-.56l-.32-.19-.05.24c-.2-.24-.6-.25-.68-.54l.27.07-.44-.39.11.34c-.36-.1-.35.36-.54,0,.08,0-.21-.24-.15-.52h0c-.2,0-.41-.06-.48-.3s.35-.25.39-.33c-.35.1-.55-.49-.94-.41a.49.49,0,0,0,.28-.18l-.29.08c0-.17,0-.21.13-.3-.25-.36-.28.43-.46-.1,0,0,.06,0,.14,0-.25-.46-.77-.65-1-1.1.21-.36.34.26.49-.08-.5-.47-1.28-.78-1.63-1.36l.05.13c-.49.27-.1-.56-.52-.66.09,0,.31-.11.25-.08C21,36,20.55,35.71,20,35.28l.17,0a6.3,6.3,0,0,0-.5-.87c-.16,0-.24-.13-.35.07.12-1.19-1.36-1.11-1.27-2.15.06.07.24.11.19,0l-.49-.48c-.17.19-.07.16-.15.38a.52.52,0,0,1-.46-.22c.3.16.32-.22.36-.41-.05.06-.14.07-.2.12.16-.53-.43.23-.46-.34l.12,0c-.16-.12-.39-.16-.47-.35.19-.22.22.09.42,0-.16-.21-.75-.15-.64-.52.12.06.21.2.35.26.12-.41,0-.39,0-.59v0l-.11-.47,0,.14c-.8.1-.48-.51-1.13-.66.63.15.26-.07.55-.2,0-.15,0-.35.12-.35-.33-.06,0-.42-.48-.49.08-.06-.11-.2.14-.29-.21-.2-.12.15-.25.19-.52-.21-.13-1.08-.83-1.41-.43-.38-.78-.31-1.17-.68.08-.23.4,0,.4,0a.76.76,0,0,0-.31-.67c.1,0,.15-.07.22-.19-.12-.17-.4,0-.38-.27a1.44,1.44,0,0,1,.46,0c-.19-.18-.46-.32-.65-.5.13-.14.31,0,.45.05-.2-.22-.44-.59-.74-.56l0,.21c-.05-.09.2-.15.28-.1.29.13.05.36,0,.41l-.13-.13c-.47.41.39.61.51.95l-.46.05.49.18c-.07.12-.26.27-.4.14-.08.33.24.14.12.45,0,0,0,0-.07,0l.23.17c-.11,0-.26.18-.28,0,0,.53.64.51.43.82l0,0c.43.5.32-.09.87.15l-.55.66.31-.09c0,.06.07.18-.06.23.32.1.1-.11.36-.09-.1.42.55.69.14,1,.27,0,0-.36.33-.15-.43.36.27.29.2.66-.29.07-.3-.24-.37.14.5-.1.21.53.41.7.33-.2.42.36.74.64-.12.05.25.76.35,1.15l-.06,0c.36-.15.52.22.74.41a.44.44,0,0,1-.47.06l.15.22a.46.46,0,0,1,.38.13l-.28.11c.23.29.7.4.81.88.23-.13.4-.73.82-.44-.11.1-.3.26-.42.19,0,0,.19,0,.18.16l-.31,0c0,.23.23,0,.31.12-.17.12-.05.19-.19.27s0-.17-.12-.18a.76.76,0,0,1,0,.59c.09-.09.23-.17.33-.07.23.27-.12.24-.08.47.16,0,.18.26.43.08.06.08,0,.19-.08.27.22.07.55.67.69.3l0-.05,0,0h0c.62.29.64,1.1,1.12,1.49L20.1,37c.31.21.56.58.89.63a.28.28,0,0,1-.11.36c.23.16.34.11.46.53-.31-.1-.06.17-.28-.14.16.34.09.5.55.61-.29.08-.08.43.09.5l0-.31a1.46,1.46,0,0,1,.34.41l-.33.15c.15.84,1.41.53,1.24,1.42.31,0-.13-.42.19-.47.19.28,0,.87.11,1,.16.48.67,0,.89.43a.4.4,0,0,1,.59-.2c.19.28-.12.66-.33.56-.06,0-.06-.1,0-.13s-.24-.12-.25.07l.12,0c0,.21.34.54.11.6.26.11.23-.06.15-.24.15.44.44.5.65.91,0-.1.07-.24.12-.19.32.59.36.05.7.34,0,.32-.39.24,0,.46.09.29-.2.27-.35.26.45.13.39.66.52.86l-.22-.09a.65.65,0,0,1,.27.21l.1-.26c.05.12.12.2,0,.27.21,0,.24-.35.58-.32,0,.21.44.28.24.55-.27-.46-.21.27-.55,0a.37.37,0,0,1,.21.23s-.06,0-.1,0c.13.57.43-.08.78.31-.18.07-.18.32-.09.36-.14-.16.16-.29.39-.24.22.44.44.32.59.5l-.15-.27c.18-.08.31.11.55.27,0,.17-.24-.11-.19,0,.36-.08.46.9,1,.81.21.18,0,.37.21.47a1.19,1.19,0,0,1,.63-.08.54.54,0,0,0,.56-.27c-.25-.15-.21-.06,0-.58a2.25,2.25,0,0,1-.73.68,1.84,1.84,0,0,0,.41-.65c-.18.17-.41.46-.6.44.25-.27.21-.22.08-.38.18.13.32,0,.43-.2s.18-.41.38-.44l.32.59a1.92,1.92,0,0,0,.7-.94,1.38,1.38,0,0,1,.41-.73l-.21.1c-.14-.22.22-.34.27-.56.15.14.29.08.45.09-.13-.08.3-.36,0-.66l.4-.06c.41-.34-.1-.83.27-1.18.08.26.34.17.25.53.11-.13.23-.22.12-.31.16,0,.07-.54.32-.54,0-.11-.19-.26-.06-.4a.14.14,0,0,1,.08.06c-.08-.06.08-.32-.2-.33.82,0,.85-1.16,1.56-1.17a7.84,7.84,0,0,1,.59-1c0,.06.08.07,0,.1.44-.24-.29-.58.2-.86.43,0,0,.33.17.28.58.36.32-.55.85-.58l0,.09c.34-.07.2-.68.51-1a.19.19,0,0,0,.08.07A2.43,2.43,0,0,1,38.35,37c.13.27,0,.24.26.34.08-.17-.38-.22-.21-.57.19,0,.46-.14.71,0L38.9,37c.41.09.28-.37.45-.47l.11.12c.29-.46,0-.73.36-1.17l-.13,0c-.13-.5.34-.06.3-.5l.39.18A5.77,5.77,0,0,1,40.69,34a3,3,0,0,1-.07,1.13c.13-.16.42-.57.32-.78,0,.09,0,.23-.1.26a1.17,1.17,0,0,1,.25-1.09c.58.55.83-.73,1.5-.58.23-.77,1-1.07,1.5-1.78-.68-.14.14-.21-.39-.56.09-.18.14-.24.19-.23l.67-.23c.24,0,0,.23.12.31.31-.32.33,0,.64-.1-.22-.1-.16-.33.06-.47l-.45.1c.11-.7.75-.09.87-.78l0,.28c.11-.32.73-.92.52-1.48.09,0,.27.05.22.19.53-.55.61-1.66,1.23-1.93l.08.14c0-.14-.08-.37.16-.41,0,0,.08.14.13.09s0-.46.21-.55l0,.23c.53-.34.57-1.42.94-2.07.51.1,1.34-.71,1.79-1.16h.09a5,5,0,0,0,1.12-2c-.55.07-1.06.15-1.54.2,0-.25-.66-.31-1.43-.34a15.7,15.7,0,0,1-2.33-.19c.21.08-.11.36-.33.4a.53.53,0,0,0-.39.07c-.1,0-.18,0-.16-.18h.06c-.13-.42-.52-.31-.81-.32l-.06.55c-.77-.81-2,.27-2.47-.45-.19.13-.43.13-.61.27v-.3a4.71,4.71,0,0,0-1.43-.06L41,20c-.36,0-.47.85-.8.86l-.1-.44c-.63,0-1.27-.4-1.91,0,0-.07,0-.19.14-.21-.3,0-1.16-.31-1,.3,0-.4-.66-.05-1,.12l.06-.29c-.29.37-.3.47-.71.57-.1,0-.08-.23.05-.16-.32-.15-.26.28-.64.12l.14-.19c-.32,0-.3.08-.48.29a.53.53,0,0,1-.67-.34c-.05.16-.23.37-.42.29a.17.17,0,0,1,.08-.19c-.55-.2-.82.33-1.2,0,0-.1,0-.15-.06-.17a3.74,3.74,0,0,1,.76.05c0-.27-.35-.32-.07-.69-.28.2-.77.63-1.12.5a.39.39,0,0,1,0-.09l0,0a.23.23,0,0,0-.21,0,.79.79,0,0,0-.29-.08c0-.23-.4-.13-.58-.14,0,.3-.21.25,0,.49,0,0,0,0,.15,0l.07,0v0h.44c-.14.14-.29.27-.48.1-.09.19-.19.38-.25.48-.24-.42-.7-.65-.76-.9-.54.16-1.27.1-1.61.65-.16.07-.18-.16-.23-.25s.19-.05.24-.13c-.31.14-.91,0-1,.44-.39-.18.22-.36-.31-.3l.07-.12c-1-.63-1.7,1-2.85.16.08.05.12.08.14.14-1.31-.36-2.72.3-4-.27-.37-.11-.41.13-.64.32l-.07-.32-.39.36c-.55.26-.94-.79-1.64-.29l.09.22c-.25-.05-.79.11-.74-.13,0,0-.09.22-.18.11v-.17l-.61.28c-.47-.13.08-.66-.61-.7-.26.06-.73.48-.64.59a.31.31,0,0,1,.27.27l-.24.08c0,.49-.23,1,.34,1.34l.41-.3.12.24h-.33c.19.23.31,0,.45-.1a.4.4,0,0,0,.16.26l.4-.46c.05.19-.18.37.08.48.19-.21-.17-.43.14-.57.19.23.13.41.36.22a.21.21,0,0,1-.11.26c.2-.15.53-.06.64-.31.19.27.67-.07.65.39a1,1,0,0,1,.54-.37c-.34.55.69,0,.59.63.26-.5.91-.21,1.35-.48,0,0-.07.12-.11.09.24,0,.32.19.47.29,0-.41.43-.5.64-.75.3.4-.19.48-.1.86,0-.33.53-.33.43-.6.23.24.2.12.32.46,0-.51.21-.09.41-.4.34.26.08.48.45.33C23.59,22.88,23.26,23.06,23.26,23.06Zm8.81-.79h0l-.19,0Zm.74,0-.33,0c0-.1,0-.2.08-.2S32.7,22.18,32.81,22.27Zm-1.55-2.06c.12,0,.16,0,.18.08l-.21,0v0A.54.54,0,0,1,31.26,20.21Z"/><path class="cls-2" d="M31.05,20.6l-.05,0,.07.06,0-.09Z"/><path class="cls-2" d="M19.05,35.52v0a.09.09,0,0,1,0,0S19.05,35.51,19.05,35.52Z"/><polygon class="cls-2" points="43.01 22.95 43.01 22.87 42.94 22.93 43.01 22.95"/><path class="cls-2" d="M17.48,31.63a.1.1,0,0,0,0-.08A.22.22,0,0,0,17.48,31.63Z"/><path class="cls-2" d="M16.58,30.14l0-.26A.78.78,0,0,0,16.58,30.14Z"/><path class="cls-2" d="M16,28.93l-.13.05h0Z"/><path class="cls-2" d="M29.43,45.11h0C29.51,45.09,29.48,45.09,29.43,45.11Z"/><path class="cls-2" d="M24.8,41l.24.07C25,41,24.92,40.94,24.8,41Z"/><polygon class="cls-2" points="32.34 41.68 32.35 41.69 32.38 41.65 32.34 41.68"/><path class="cls-2" d="M25.23,41.33a.29.29,0,0,0-.19-.22A.41.41,0,0,0,25.23,41.33Z"/><path class="cls-2" d="M13.45,23.78v-.07h0Z"/><path class="cls-2" d="M13.39,23.72l-.06,0S13.36,23.73,13.39,23.72Z"/><path class="cls-2" d="M13.21,23.57l.12.1S13.3,23.56,13.21,23.57Z"/><path class="cls-2" d="M14.07,25.42l.11,0Z"/><path class="cls-2" d="M14.34,25.89c0-.13.05-.39-.08-.52l-.08,0C14.35,25.4,14.12,25.86,14.34,25.89Z"/><path class="cls-2" d="M14.25,28.5l-.15-.44c-.06.13-.14.29-.27.13C13.82,28.86,14,28,14.25,28.5Z"/><path class="cls-2" d="M14.83,29.82c-.17-.18-.14.09-.2.11C14.8,30,14.85,30,14.83,29.82Z"/><path class="cls-2" d="M20.86,38.18l-.22.15C20.79,38.45,20.72,38.26,20.86,38.18Z"/><polygon class="cls-2" points="23.18 38.78 23.19 38.53 22.95 38.63 23.18 38.78"/><polygon class="cls-2" points="22.49 40.9 22.41 40.87 22.69 41.04 22.49 40.9"/><path class="cls-2" d="M35.61,41.72l-.3-.16C35.28,41.7,35.56,42,35.61,41.72Z"/><path class="cls-2" d="M39.93,35.69c.17,0,.39-.06.34-.26C40.15,35.55,39.94,35.6,39.93,35.69Z"/><polygon class="cls-2" points="45 20.32 45.15 20.21 44.87 20.3 45 20.32"/><g class="cls-3"><image width="1341" height="4904" transform="translate(-177.54 -59.2)" xlink:href="../../../../../../../Downloads/screencapture-aurora-db30bf-webflow-io-2023-09-18-12_40_29.png"/></g></svg>