<svg xmlns="http://www.w3.org/2000/svg" viewBox="0 0 328.54 379.59"><defs><style>.cls-1{isolation:isolate;}.cls-2{fill:#fff;stroke:#1d1d1b;stroke-miterlimit:10;stroke-width:0.39px;}.cls-3{fill:#b7d164;mix-blend-mode:darken;}</style></defs><g class="cls-1"><g id="Capa_1" data-name="Capa 1"><path class="cls-2" d="M32.16,59.22c.24,2.43.49,4.85.73,7.27a42.05,42.05,0,0,0,1.41,7.37c.61,2.13,1.26,4.26,1.9,6.39.59,1.93,1.17,3.86,1.8,5.77a8.7,8.7,0,0,0,.92,1.86c1.19,1.89,2.29,3.82,3.44,5.72a40.3,40.3,0,0,0,5.32,7.21,21.84,21.84,0,0,1,1.76,2.07,20.22,20.22,0,0,0,5.21,4.76c2.58,1.65,5.18,3.25,7.89,4.67a5.93,5.93,0,0,1,.56.29c.84.54,1.9.44,2.76.88a8.45,8.45,0,0,0,2.77.83l4.14.52a19.76,19.76,0,0,0,5,0,39.8,39.8,0,0,0,8.88-2.2,41.68,41.68,0,0,0,9.51-5.15,17.61,17.61,0,0,0,2.92-2.67,13,13,0,0,0,3.19-7.56,33.32,33.32,0,0,0-.33-8.52c-.31-1.78-.59-3.57-1-5.34a13.93,13.93,0,0,0-2.25-4.67,3.76,3.76,0,0,0-.8-.66.54.54,0,0,1-.15-.73.66.66,0,0,0-.1-.77,56.81,56.81,0,0,0-4.79-4.65,15.76,15.76,0,0,0-1.72-1.17c-.65-.41-1.33-.76-2-1.17a14.08,14.08,0,0,0-3.78-1.73,4.29,4.29,0,0,1-1.88-.86,1.81,1.81,0,0,0-.75-.31,19.08,19.08,0,0,0-5.57-.69,16.5,16.5,0,0,0-2.87.46,2.38,2.38,0,0,0-1.49,1.08,1.62,1.62,0,0,0,0,1.77,6.1,6.1,0,0,0,.88.88c.59.48,1.23.91,1.82,1.39a10.44,10.44,0,0,1,2.94,3.74,19.45,19.45,0,0,1,1.7,4.91c.35,2.06.74,4.11,1.06,6.16a6.28,6.28,0,0,1-.36,3.29A6,6,0,0,1,74,93.24a24.06,24.06,0,0,1-8-3.84,15.79,15.79,0,0,1-2.81-2.79c-1-1.31-2.07-2.62-3.07-4a8.43,8.43,0,0,1-1.74-5c0-.56,0-1.11,0-1.67,0-1.25.08-2.51,0-3.76A23,23,0,0,1,60.18,63c.79-1.93,1.7-3.81,2.55-5.71a8.71,8.71,0,0,1,3.58-4c.78-.46,1.59-.87,2.39-1.27.62-.32,1.27-.57,1.88-.9a10.56,10.56,0,0,1,4.79-1.27c1.18,0,2.36-.11,3.54-.18a43.92,43.92,0,0,1,4.59.18,20.27,20.27,0,0,1,4.3.74,23.47,23.47,0,0,1,7.65,3.69A53.58,53.58,0,0,1,100,58c.63.55,1.25,1.12,1.87,1.67a15.46,15.46,0,0,1,2.2,2.23,3.32,3.32,0,0,0,1.62,1.26,1.33,1.33,0,0,1,.94,1A8.75,8.75,0,0,0,108,67c1.23,1.86,2.45,3.72,3.64,5.6a119,119,0,0,1,6.63,11.82A38.14,38.14,0,0,1,120.52,90c2.55,8.38,5,16.8,7,25.31.67,2.77,1.22,5.57,1.84,8.35.21,1,.46,1.89.68,2.84a15.92,15.92,0,0,0,1.13,3.35,10.88,10.88,0,0,1,1,3.81c.17,2.16.7,4.25,1.07,6.37.2,1.17.46,2.32.72,3.48a6,6,0,0,0,.49,1.58,1.15,1.15,0,0,1,0,1.16.77.77,0,0,0,.26.93c.1.09.24.2.25.32s-.1.24-.19.34-.38.41-.55.63a1.27,1.27,0,0,0,.08,1.85c.15.15.32.27.47.42a.56.56,0,0,1,0,.89,1,1,0,0,1-.15.14L132.49,153a.46.46,0,0,1-.54-.16,5.77,5.77,0,0,0-.27-.56,1.58,1.58,0,0,0-1.62-.7,7.26,7.26,0,0,0-1,.26,3.14,3.14,0,0,0-2.22,2c-.33,1-.58,2-.87,3a1.14,1.14,0,0,1-.78.89,3.26,3.26,0,0,0-.38.18l-.37.19a1.42,1.42,0,0,0-.88,1.31,6.93,6.93,0,0,1-.2,1.86,5.92,5.92,0,0,0-.07,2.48c.16,1,.34,2.06.49,3.09.07.48.09,1,.12,1.45a.22.22,0,0,1-.24.26c-.07,0-.16,0-.2,0-.28-.2-.56-.41-.82-.63-2.42-2.1-5-4.05-7.55-5.94-.45-.33-.92-.62-1.36-1a2.35,2.35,0,0,0-1.58-.41,1.59,1.59,0,0,0-1.47,1.27,3.33,3.33,0,0,0,.08,1.85c.44,1.46.85,2.94,1.32,4.39.72,2.25,1.48,4.49,2.21,6.74a8.14,8.14,0,0,1,.57,3,4.31,4.31,0,0,0,.18,1.23,19.33,19.33,0,0,0,5.46,9.45A8.42,8.42,0,0,0,125,191a8.85,8.85,0,0,1,6.27,4.42,3.07,3.07,0,0,1,.2.36c2.58,4.81,6.33,8.6,10.47,12.05a13.45,13.45,0,0,0,2.63,1.7l1.16.57a2.66,2.66,0,0,0,0,.69,7,7,0,0,1-.13,2.49,1.1,1.1,0,0,0-.39.32,28.39,28.39,0,0,0-2.77,4.41c-.34.69-.66,1.38-1,2.08a127,127,0,0,1-5.82,11.31c-2,3.5-3.89,7.06-5.58,10.73a47.59,47.59,0,0,1-2.24,4.24c-1.4,2.33-2.78,4.66-4,7.11a4.27,4.27,0,0,1-1.4,1.76,7.57,7.57,0,0,0-2.19,2.76c-1.14,2.16-2.5,4.18-3.81,6.22-1.91,3-4,5.87-6.15,8.69a19.05,19.05,0,0,1-1.46,1.77,1.63,1.63,0,0,1-1.7.53,4.42,4.42,0,0,0-2.85.16,26.48,26.48,0,0,1-4,1.15A3.23,3.23,0,0,0,98,278.23a1.53,1.53,0,0,0,.34,2.06,4.62,4.62,0,0,0,.5.37c.69.53.88.46.16,1.47-.25.33-.46.69-.69,1a2.55,2.55,0,0,0-.33,1.4,2.06,2.06,0,0,0,2.41,2c.47-.11.93-.28,1.39-.41.18,0,.29,0,.29.21,0,.62,0,1.25-.06,1.87,0,.34-.11.69-.13,1a1.69,1.69,0,0,0,1.29,1.68,3.25,3.25,0,0,0,2.79-.43,6,6,0,0,1,.53-.34.48.48,0,0,1,.56.1l1.33,1.86a1.92,1.92,0,0,0,2.92-.15,4,4,0,0,0,.45-.93c.25-.72.46-1.46.69-2.19.37-1.15.41-1.16,1.31-.44a6.54,6.54,0,0,0,.65.53,6.75,6.75,0,0,0,1.1.57,2.4,2.4,0,0,0,2.52-.53,1.41,1.41,0,0,0,.38-.49,3,3,0,0,0,.08-2.82,13,13,0,0,0-4.36-5.22c-.23-.15-.48-.27-.72-.42a1.73,1.73,0,0,0-1.49-.28,16.61,16.61,0,0,1,3.51-3.35,13.74,13.74,0,0,0,2-2,15.14,15.14,0,0,0,2.94-3.18c.43-.63.9-1.24,1.37-1.84a21.78,21.78,0,0,0,2.65-4,7.79,7.79,0,0,1,1-1.35c.46-.61,1-1.19,1.39-1.82,4.38-6.28,8.66-12.62,12.74-19.1a63.61,63.61,0,0,0,3.29-5.8c.71-1.43,1.4-2.87,2.14-4.29.14-.28.2-.67.61-.75a2.89,2.89,0,0,1,.06.82,71.78,71.78,0,0,0-.8,7.88c-.25,3.68-.44,7.36-.84,11-.17,1.52-.4,3-.59,4.55a12,12,0,0,0-.14,1.46c0,2.92-.3,5.83-.51,8.75-.18,2.42-.42,4.85-.65,7.27-.17,1.87-.36,3.74-.53,5.61-.22,2.56-.44,5.13-.64,7.7-.09,1.17-.16,2.36-.2,3.54a3.69,3.69,0,0,1-.55,2,5.41,5.41,0,0,0-.47.93,1.27,1.27,0,0,0,.49,1.46,2.9,2.9,0,0,0,.54.31,35.7,35.7,0,0,0,8.06,2,24.46,24.46,0,0,0,2.71.06c1.25,0,2.51,0,3.76,0,.41,0,.83.08,1.24.13a.82.82,0,0,1,.63.74,42.3,42.3,0,0,1,.07,5.63c-.1,1.6-.14,3.2-.26,4.79-.2,2.64-.43,5.27-.66,7.91,0,.2-.06.41-.07.62-.23,4.1-.56,8.19-.41,12.3,0,.63,0,1.25,0,1.88,0,.42.06.83.11,1.25a2.53,2.53,0,0,0,2.14,2.25c.81.19,1.65.28,2.47.4.28,0,.56.05.83.08s.65.27.63.66c-.06,1.11-.11,2.22-.21,3.33-.22,2.64-.48,5.27-.69,7.9-.24,2.84-.45,5.69-.67,8.53,0,.56-.09,1.11-.11,1.67-.07,1.73-.16,1.59-1.73,1.19a40.5,40.5,0,0,0-12.21-1.05,8.9,8.9,0,0,0-2,.36,3.15,3.15,0,0,0-2.25,3.72c.1.41.17.82.27,1.23a1.53,1.53,0,0,0,1.48,1.24,16,16,0,0,0,2.5-.12,7.21,7.21,0,0,1,2.89,0,6.33,6.33,0,0,0,2.49,0c1-.17,2-.38,3.08-.56a3.85,3.85,0,0,1,.82-.11,10,10,0,0,0,3.69-.55,1.55,1.55,0,0,1,1,0,4.33,4.33,0,0,0,1,.15,1.42,1.42,0,0,0,1.39-1.05,6.17,6.17,0,0,0,.1-.62q.19-3.12.37-6.25c0-.62,0-1.25.07-1.88.28-3.26.23-6.53.21-9.8,0-1.74-.1-3.48-.14-5.22a6.43,6.43,0,0,1,.18-2.27.68.68,0,0,1,.56-.54c.69-.11,1.38-.21,2.06-.35a2.48,2.48,0,0,0,2.21-2.39c.11-1,.18-1.94.22-2.91.23-5.21.49-10.43.55-15.65,0-2.29.17-4.59.21-6.88,0-2.92,0-5.85.07-8.77,0-.48,0-1,.07-1.45a.45.45,0,0,1,.24-.32c.53-.16,1.07-.3,1.62-.41.81-.17,1.63-.31,2.46-.45a.92.92,0,0,1,1,.78c0,.49.07,1,.07,1.46,0,2.64,0,5.29,0,7.93,0,4.39,0,8.77,0,13.16,0,2.36.16,4.72.24,7.09q.08,2.61.12,5.22a11.52,11.52,0,0,0,.35,2.68,13.87,13.87,0,0,0,.51,1.58,2.55,2.55,0,0,0,2.61,1.71c.62,0,1.24-.06,1.87-.12.48,0,1-.12,1.45-.16,1.05-.07,1.1.18,1,1-.24,1.58-.48,3.16-.68,4.75-.39,3-.81,6.06-1.41,9.07-.45,2.31-.92,4.63-1.38,7-.08.41-.12.83-.16,1.24a3,3,0,0,0,.37,1.81,4.15,4.15,0,0,1,.6,1.76,1.11,1.11,0,0,0,.77.9,5.18,5.18,0,0,0,1,.34c.82.16,1.64.32,2.47.41,1.52.17,3,.36,4.57.41,3.83.13,7.65.17,11.48.1a3.06,3.06,0,0,0,1.94-.62,1.55,1.55,0,0,0,.41-.47,1.63,1.63,0,0,0,.12-.59.78.78,0,0,0-.1-.39c-.51-1-1-2-1.55-3a3.52,3.52,0,0,0-2.29-1.68,10.81,10.81,0,0,0-2-.39c-1.25,0-2.48-.36-3.74-.32a20.75,20.75,0,0,0-4.16.29,2.41,2.41,0,0,1-1.63-.11,3.28,3.28,0,0,0-2-.18c-.48.06-1,.19-1.43.22a1.54,1.54,0,0,1-.79-.19.66.66,0,0,1-.35-.48c.05-.69.17-1.38.28-2.06.34-2,.75-4,1-6a47.71,47.71,0,0,0,.29-4.78c0-1.74,0-3.48,0-5.22,0-.56,0-1.12,0-1.67a.89.89,0,0,1,.6-1,8.7,8.7,0,0,0,1-.38,2.14,2.14,0,0,0,1.21-1.6,6,6,0,0,0,.09-1c.27-6.61.51-13.21.43-19.83-.05-4-.15-7.93-.24-11.89,0-.56-.08-1.11-.13-1.66a4,4,0,0,1-.09-.83,46.81,46.81,0,0,0,0-6c0-.35,0-.7,0-1a1.17,1.17,0,0,1,.9-1c.47-.1.95-.18,1.43-.27,2.52-.48,5-1,7.57-1.44a7.73,7.73,0,0,0,1.79-.54,3.61,3.61,0,0,0,1.88-1.87,2.11,2.11,0,0,0-.28-2.68c-.13-.11-.08-.22.12-.27l.39-.11a.4.4,0,0,0,.37-.42,8.74,8.74,0,0,0-.15-1.24,12.57,12.57,0,0,1-.15-4.15,8.8,8.8,0,0,0,.06-1.45c-.05-1.95-.07-3.9-.19-5.85a66.07,66.07,0,0,0-1-8.28,4.85,4.85,0,0,1-.09-1.86,5.59,5.59,0,0,0-.25-2.26,11,11,0,0,1-.31-2.48,28.89,28.89,0,0,0-.95-6.6c-.18-.74-.36-1.48-.53-2.23a4.66,4.66,0,0,1-.06-1.86.25.25,0,0,1,.29-.23.36.36,0,0,1,.19.06c.44.44.89.87,1.3,1.34,2.41,2.7,4.8,5.42,7.22,8.11,1.26,1.4,2.56,2.75,3.83,4.13,2,2.15,4,4.28,5.94,6.45a64,64,0,0,0,7.39,7.06,8.57,8.57,0,0,1,.79.68,1.05,1.05,0,0,1,.28,1.14q-.4,1.08-.78,2.16c-.31.92-.62,1.85-.88,2.78a7.18,7.18,0,0,0-.18,2.69,1.35,1.35,0,0,0,1.26,1.18,2.18,2.18,0,0,0,1.86-.76c.35-.42.69-.86,1-1.29a.33.33,0,0,1,.52.05c.38.5.74,1,1.11,1.51a1.81,1.81,0,0,0,2.22.65,2.76,2.76,0,0,0,1.91-2.71c0-.69-.06-1.39-.09-2.08,0-.17.31-.39.45-.32a10.08,10.08,0,0,1,.94.44,2.59,2.59,0,0,0,1.41.3,1.59,1.59,0,0,0,1.11-.52,1.48,1.48,0,0,0,.34-1.72,21.65,21.65,0,0,0-1.24-1.92c-.43-.63-.91-1.22-1.35-1.84,0-.05.09-.32.16-.32a16.61,16.61,0,0,1,1.86-.13,7.16,7.16,0,0,0,2.06-.28,2.86,2.86,0,0,0,1.72-1.42,1.46,1.46,0,0,0,0-1.59,4.46,4.46,0,0,0-1-1.06,6.16,6.16,0,0,0-4.09-1.31c-.34,0-.69,0-1,.08a9,9,0,0,1-5.26-.88c-.88-.4-1.74-.85-2.6-1.32a52.88,52.88,0,0,1-9-6.09,13.86,13.86,0,0,1-1.64-1.61q-3.19-3.86-6.33-7.76a109.75,109.75,0,0,1-6.62-9.12,59,59,0,0,1-3.76-6.73c-.3-.63-.62-1.25-.9-1.88-1.71-3.81-3.63-7.51-5.71-11.13a60.81,60.81,0,0,1-3.81-7.88c-.1-.26-.19-.52-.28-.78a.53.53,0,0,1,.17-.57,8.44,8.44,0,0,1,.81-.64l2.41-1.66a5.87,5.87,0,0,0,1.78-1.73,5.52,5.52,0,0,1,1.64-1.59,11.81,11.81,0,0,0,3.66-4.48c1.28-2.54,2.6-5.07,3.9-7.61.25-.49.47-1,.74-1.49a7.76,7.76,0,0,0,.37-.77,1.65,1.65,0,0,0,.83,0,1.52,1.52,0,0,0,1.19,1,.75.75,0,0,0,.2,0,1.69,1.69,0,0,0,.4-.12,27,27,0,0,0,7.31-5.13,15.85,15.85,0,0,0,2.51-3.32,15.47,15.47,0,0,0,1.77-5.75c.22-2,.41-4,.45-6a10.14,10.14,0,0,1,.1-1.46,42,42,0,0,0,.3-6c0-2.23,0-4.45-.05-6.68a6.57,6.57,0,0,0-.08-1.25,3.13,3.13,0,0,0-.37-1,1.42,1.42,0,0,0-2-.46,8.14,8.14,0,0,0-1.22,1.13c-1.18,1.36-2.34,2.75-3.51,4.13-.27.32-.56.61-.85.91-.11.13-.43,0-.51-.17-.2-.51-.41-1-.6-1.54l-2.48-6.87c-.21-.58-.47-1.16-.7-1.74a9.9,9.9,0,0,0-4.92-5.17.61.61,0,0,0-.44,0q-.37-.21-.78-.39a21.91,21.91,0,0,0-2.4-5,23.76,23.76,0,0,1-2.54-4.54,142.52,142.52,0,0,0-7-13.3,3.25,3.25,0,0,0-.56-.87,8.65,8.65,0,0,1-1.79-2.79l-.75-1.49c-.22-.43-.44-.87-.7-1.28a21.3,21.3,0,0,1-1.37-2.08c-.36-.75-.67-1.52-1.08-2.25-.78-1.4-1.6-2.77-2.51-4.09-.67-1-1.29-2-1.89-3-1.21-2-2.4-4.07-3.6-6.11a44.49,44.49,0,0,0-3.42-5q-2.31-3-4.63-5.92A26.18,26.18,0,0,1,164.11,85,21.68,21.68,0,0,0,162,82c-.56-.71-1.14-1.41-1.72-2.1a25.24,25.24,0,0,1-2.88-4.08,9.29,9.29,0,0,0-1.63-2.16,16.92,16.92,0,0,1-1.38-1.56c-2.48-3.11-5.06-6.11-7.71-9.07l-6-6.66a59.17,59.17,0,0,0-8.29-7.61L130,46.93a27.37,27.37,0,0,1-3.15-2.74,10,10,0,0,0-1.07-1,82.38,82.38,0,0,0-11.72-8.33c-1-.58-2.06-1.16-3.06-1.8a69.31,69.31,0,0,0-11.17-5.58c-1.66-.69-3.35-1.34-5-2a6.76,6.76,0,0,0-2.63-.58,10.88,10.88,0,0,1-3.47-.65c-1.39-.41-2.77-.88-4.2-1.19a11.15,11.15,0,0,0-2.06-.25l-4.17-.18c-.56,0-1.12-.06-1.67,0-2.3.06-4.59.16-6.89.22a11.81,11.81,0,0,0-3.67.69c-3.15,1.11-6.37,1.92-9.61,2.72A11.84,11.84,0,0,0,53,27.66q-4.34,2.7-8.65,5.43c-.53.33-1,.75-1.51,1.13a15.85,15.85,0,0,0-4.44,5.19,34.52,34.52,0,0,1-2.57,4.29,7.76,7.76,0,0,0-1.19,2.88c-.83,3.59-1.62,7.18-2.44,10.78A5.53,5.53,0,0,0,32.16,59.22Zm96.1,194.29a.75.75,0,0,1-.71.09A.85.85,0,0,1,128.26,253.51Z"/><path d="M202.34,155c.28,0-.05-.25.13,0s.05.2-.08.21.12.07-.09-.12a1.34,1.34,0,0,0,0-.84,2.17,2.17,0,0,1-1.08-.59l-5-3.77a3.63,3.63,0,0,1-.47-.41.36.36,0,0,1-.06-.19c0-.13.06-.23.24-.22a4.91,4.91,0,0,1,1,.13,11,11,0,0,1,2.46,1.13c.65.4,1.29.82,1.95,1.21s1.07.89,1.84.84c.59-.68.13-1.45.16-2.17a2,2,0,0,0-.66-1.49,5.48,5.48,0,0,1-1.23-1.4,1.2,1.2,0,0,1-.08-.57c0-.14.35-.2.55-.1a9.9,9.9,0,0,1,4.92,5.17c.23.58.49,1.16.7,1.74l2.48,6.87c.19.52.4,1,.6,1.54.08.19.4.3.51.17.29-.3.58-.59.85-.91,1.17-1.38,2.33-2.77,3.51-4.13a8.14,8.14,0,0,1,1.22-1.13,1.42,1.42,0,0,1,2,.46,3.13,3.13,0,0,1,.37,1,6.57,6.57,0,0,1,.08,1.25c0,2.23,0,4.45.05,6.68a42,42,0,0,1-.3,6,10.14,10.14,0,0,0-.1,1.46c0,2-.23,4-.45,6a15.47,15.47,0,0,1-1.77,5.75,15.85,15.85,0,0,1-2.51,3.32,27,27,0,0,1-7.31,5.13,1.69,1.69,0,0,1-.4.12.75.75,0,0,1-.2,0,1.52,1.52,0,0,1-1.26-1.45,1.79,1.79,0,0,1,.51-1.33,11.76,11.76,0,0,1,1.3-1c1.07-.77,2.18-1.49,3.22-2.3a14.52,14.52,0,0,0,5.46-9.76,39.72,39.72,0,0,0,.46-5c0-.83.09-1.67.18-2.5a59.64,59.64,0,0,0,.22-8.13.62.62,0,0,0-.2-.32c-.1-.11-.24-.08-.36,0-1.19,1.17-2.39,2.33-3.56,3.52a1.44,1.44,0,0,0-.34.74,12.24,12.24,0,0,1-1.84,4.16,2.09,2.09,0,0,1-.45.44.74.74,0,0,1-1.15-.42,2.15,2.15,0,0,1,.07-1.23c.18-.52.44-1,.6-1.56.48-1.59.66-1.71-.72-2.88a8.12,8.12,0,0,0-.67-.48.23.23,0,0,0-.2,0,.22.22,0,0,0-.12.15c.15.81.34,1.62.46,2.44a3.44,3.44,0,0,1-.68,3.14.36.36,0,0,0,0,.54,1.61,1.61,0,0,1,.53,1.68,16,16,0,0,0-.18,3.32,11.93,11.93,0,0,1-.11,1.88c-.09.89-.2,1.79-.33,2.69a42.44,42.44,0,0,1-1.4,7.15c-.3.93-.5,1.88-.71,2.83a13.19,13.19,0,0,1-1.14,3.34c-.27.49-.49,1-.74,1.49-1.3,2.54-2.62,5.07-3.9,7.61a11.81,11.81,0,0,1-3.66,4.48,5.52,5.52,0,0,0-1.64,1.59,5.87,5.87,0,0,1-1.78,1.73l-2.41,1.66a8.44,8.44,0,0,0-.81.64.53.53,0,0,0-.17.57c.09.26.18.52.28.78a60.81,60.81,0,0,0,3.81,7.88c2.08,3.62,4,7.32,5.71,11.13.28.63.6,1.25.9,1.88a59,59,0,0,0,3.76,6.73,109.75,109.75,0,0,0,6.62,9.12q3.14,3.91,6.33,7.76a13.86,13.86,0,0,0,1.64,1.61,52.88,52.88,0,0,0,9,6.09c.86.47,1.72.92,2.6,1.32a9,9,0,0,0,5.26.88c.35-.05.7-.05,1-.08a6.16,6.16,0,0,1,4.09,1.31,4.46,4.46,0,0,1,1,1.06,1.46,1.46,0,0,1,0,1.59,2.86,2.86,0,0,1-1.72,1.42,7.16,7.16,0,0,1-2.06.28,16.61,16.61,0,0,0-1.86.13c-.07,0-.2.27-.16.32.44.62.92,1.21,1.35,1.84a21.65,21.65,0,0,1,1.24,1.92,1.48,1.48,0,0,1-.34,1.72,1.54,1.54,0,0,1-1.11.51,2.5,2.5,0,0,1-1.41-.29,10.08,10.08,0,0,0-.94-.44c-.14-.07-.46.15-.45.32,0,.69.1,1.39.09,2.08a2.76,2.76,0,0,1-1.91,2.71,1.8,1.8,0,0,1-2.22-.65c-.37-.5-.73-1-1.11-1.51a.33.33,0,0,0-.52-.05c-.35.43-.69.87-1,1.29a2.18,2.18,0,0,1-1.86.76,1.35,1.35,0,0,1-1.26-1.18,7.39,7.39,0,0,1,.17-2.69c.27-.93.58-1.86.89-2.78q.38-1.08.78-2.16a1.05,1.05,0,0,0-.28-1.14,8.57,8.57,0,0,0-.79-.68,64,64,0,0,1-7.39-7.06c-2-2.17-4-4.3-5.94-6.45-1.27-1.38-2.57-2.73-3.83-4.13-2.42-2.69-4.81-5.41-7.22-8.11-.41-.47-.86-.9-1.3-1.34a.36.36,0,0,0-.19-.06.25.25,0,0,0-.29.23,4.66,4.66,0,0,0,.06,1.86c.17.75.35,1.49.53,2.23a28.89,28.89,0,0,1,.95,6.6,11,11,0,0,0,.31,2.48,5.59,5.59,0,0,1,.25,2.26,4.66,4.66,0,0,0,.09,1.86,66.07,66.07,0,0,1,1,8.28c.12,1.95.14,3.9.19,5.85a8.8,8.8,0,0,1-.06,1.45,12.31,12.31,0,0,0,.15,4.15,8.74,8.74,0,0,1,.15,1.24.4.4,0,0,1-.37.42l-.39.11c-.2.05-.24.16-.12.27a2.11,2.11,0,0,1,.28,2.68,3.61,3.61,0,0,1-1.88,1.87,7.73,7.73,0,0,1-1.79.54c-2.53.45-5.05,1-7.57,1.44-.48.09-1,.17-1.43.27a1.17,1.17,0,0,0-.9,1c0,.34,0,.69,0,1a46.81,46.81,0,0,1,0,6,4,4,0,0,0,.09.83c0,.55.12,1.1.13,1.66.09,4,.19,7.93.24,11.89.08,6.62-.16,13.22-.43,19.83a6,6,0,0,1-.09,1,2.14,2.14,0,0,1-1.21,1.6,8.7,8.7,0,0,1-1,.38.89.89,0,0,0-.6,1c0,.55,0,1.11,0,1.67,0,1.74.07,3.48,0,5.22a47.71,47.71,0,0,1-.29,4.78c-.25,2-.66,4-1,6-.11.68-.23,1.37-.28,2.06a.66.66,0,0,0,.35.48,1.54,1.54,0,0,0,.79.19c.48,0,.95-.16,1.43-.22a3.28,3.28,0,0,1,2,.18,2.41,2.41,0,0,0,1.63.11,20.75,20.75,0,0,1,4.16-.29c1.26,0,2.49.27,3.74.32a10.81,10.81,0,0,1,2,.39,3.52,3.52,0,0,1,2.29,1.68c.55,1,1,2,1.55,3a.78.78,0,0,1,.1.39,1.63,1.63,0,0,1-.12.59,1.55,1.55,0,0,1-.41.47,3.06,3.06,0,0,1-1.94.62c-3.83.07-7.65,0-11.48-.1-1.53,0-3.05-.24-4.57-.41-.83-.09-1.65-.25-2.47-.41a5.18,5.18,0,0,1-1-.34,1.11,1.11,0,0,1-.77-.9,4.15,4.15,0,0,0-.6-1.76,3,3,0,0,1-.37-1.81c0-.41.08-.83.16-1.24.46-2.32.93-4.64,1.38-7,.6-3,1-6,1.41-9.07.2-1.59.44-3.17.68-4.75.14-.86.09-1.11-1-1-.49,0-1,.12-1.45.16-.63.06-1.25.12-1.87.12a2.55,2.55,0,0,1-2.61-1.71,13.87,13.87,0,0,1-.51-1.58,11.52,11.52,0,0,1-.35-2.68q0-2.61-.12-5.22c-.08-2.37-.22-4.73-.24-7.09,0-4.39,0-8.77,0-13.16,0-2.64,0-5.29,0-7.93,0-.49,0-1-.07-1.46a.92.92,0,0,0-1-.78c-.83.14-1.65.28-2.46.45-.55.11-1.09.25-1.62.41a.45.45,0,0,0-.24.32c0,.48-.07,1-.07,1.45,0,2.92,0,5.85-.07,8.77,0,2.29-.19,4.59-.21,6.88-.06,5.22-.32,10.44-.55,15.65,0,1-.11,1.95-.22,2.91a2.48,2.48,0,0,1-2.21,2.39c-.68.14-1.37.24-2.06.35a.68.68,0,0,0-.56.54,6.43,6.43,0,0,0-.18,2.27c0,1.74.13,3.48.14,5.22,0,3.27.07,6.54-.21,9.8-.05.63,0,1.26-.07,1.88q-.18,3.13-.37,6.25a6.17,6.17,0,0,1-.1.62,1.42,1.42,0,0,1-1.39,1.05,4.33,4.33,0,0,1-1-.15,1.55,1.55,0,0,0-1,0,10,10,0,0,1-3.69.55,3.85,3.85,0,0,0-.82.11c-1,.18-2,.39-3.08.56a6.33,6.33,0,0,1-2.49,0,7.21,7.21,0,0,0-2.89,0,16,16,0,0,1-2.5.12,1.53,1.53,0,0,1-1.48-1.24c-.1-.41-.17-.82-.27-1.23a3.15,3.15,0,0,1,2.25-3.72,8.9,8.9,0,0,1,2-.36,40.5,40.5,0,0,1,12.21,1.05c1.57.4,1.66.54,1.73-1.19,0-.56.07-1.11.11-1.67.22-2.84.43-5.69.67-8.53.21-2.63.47-5.26.69-7.9.1-1.11.15-2.22.21-3.33,0-.39-.21-.62-.63-.66s-.55,0-.83-.08c-.82-.12-1.66-.21-2.47-.4a2.53,2.53,0,0,1-2.14-2.25c-.05-.42-.09-.83-.11-1.25,0-.63,0-1.25,0-1.88-.15-4.11.18-8.2.41-12.3,0-.21.06-.42.07-.62.23-2.64.46-5.27.66-7.91.12-1.59.16-3.19.26-4.79a44.06,44.06,0,0,0-.07-5.63.82.82,0,0,0-.63-.74c-.41,0-.83-.12-1.24-.13-1.25,0-2.51,0-3.76,0a24.46,24.46,0,0,1-2.71-.06,35.7,35.7,0,0,1-8.06-2,2.9,2.9,0,0,1-.54-.31,1.27,1.27,0,0,1-.49-1.46,5.41,5.41,0,0,1,.47-.93,3.69,3.69,0,0,0,.55-2c0-1.18.11-2.37.2-3.54.2-2.57.42-5.14.64-7.7.17-1.87.36-3.74.53-5.61.23-2.42.47-4.85.65-7.27.21-2.92.49-5.83.51-8.75a12,12,0,0,1,.14-1.46c.19-1.52.42-3,.59-4.55.4-3.67.59-7.35.84-11a71.78,71.78,0,0,1,.8-7.88,2.89,2.89,0,0,0-.06-.82c-.41.08-.47.47-.62.75-.73,1.42-1.42,2.86-2.13,4.29a63.61,63.61,0,0,1-3.29,5.8c-4.08,6.48-8.36,12.82-12.74,19.1-.43.63-.93,1.21-1.39,1.82a7.79,7.79,0,0,0-1,1.35,21.78,21.78,0,0,1-2.65,4c-.47.6-.94,1.21-1.37,1.84a15.61,15.61,0,0,1-6.89,5.55c-.64.27-1.24.61-1.87.92a3.47,3.47,0,0,1-2.41,1.05c-.34.06-.69.11-1,.2a.41.41,0,0,0-.2.32,3.47,3.47,0,0,1-.07,2.25s.14.22.24.29a2.44,2.44,0,0,0,.56.28,1,1,0,0,0,1.3-.3c.3-.38.53-.82.85-1.18.75-.82,1.43-1.2,2.56-.52.24.15.49.27.72.42a13,13,0,0,1,4.36,5.22,3,3,0,0,1-.08,2.82,1.41,1.41,0,0,1-.38.49,2.4,2.4,0,0,1-2.52.53,6.75,6.75,0,0,1-1.1-.57,6.54,6.54,0,0,1-.65-.53c-.9-.72-.94-.71-1.31.44-.23.73-.44,1.47-.69,2.19a3.66,3.66,0,0,1-.46.93,1.91,1.91,0,0,1-2.91.15l-1.33-1.86a.48.48,0,0,0-.56-.1,6,6,0,0,0-.53.34,3.25,3.25,0,0,1-2.79.43,1.69,1.69,0,0,1-1.29-1.68c0-.34.11-.69.13-1,0-.62,0-1.25.06-1.87,0-.17-.11-.25-.29-.21-.46.13-.92.3-1.39.41a2.06,2.06,0,0,1-2.41-2,2.55,2.55,0,0,1,.33-1.4c.23-.35.44-.71.69-1,.72-1,.53-.94-.16-1.47a4.62,4.62,0,0,1-.5-.37,1.53,1.53,0,0,1-.34-2.06,3.23,3.23,0,0,1,2.28-1.67,26.48,26.48,0,0,0,4-1.15,4.42,4.42,0,0,1,2.85-.16,1.63,1.63,0,0,0,1.7-.53,19.05,19.05,0,0,0,1.46-1.77c2.15-2.82,4.24-5.7,6.15-8.69,1.31-2,2.67-4.06,3.81-6.22a7.57,7.57,0,0,1,2.19-2.76,4.27,4.27,0,0,0,1.4-1.76c1.18-2.45,2.56-4.78,4-7.11a47.59,47.59,0,0,0,2.24-4.24c1.69-3.67,3.57-7.23,5.58-10.73a127,127,0,0,0,5.82-11.31c.31-.7.63-1.39,1-2.08a28.39,28.39,0,0,1,2.77-4.41,1.06,1.06,0,0,1,.48-.36.77.77,0,0,1,.6,0,.66.66,0,0,1,.21.54,4.35,4.35,0,0,1-.27,1c-1.49,4-3.07,7.91-4.77,11.79-.45,1-.94,2-1.48,3-1.15,2.07-2.26,4.16-3.24,6.31a9.43,9.43,0,0,1-1,1.8,2.11,2.11,0,0,0-.51,1.09c0,.22-.27.27-.47.34-.49.17-.52.2-.25.64a.9.9,0,0,1,.05,1c-1.77,3.55-3.56,7.08-5.5,10.54-.27.49-.54,1-.79,1.47a.81.81,0,0,0,.1.79c-.29-.18-.55-.05-.82.06-.06.35-.1.7-.15,1.06l-.1.06c0-.14,0-.15.06,0a.63.63,0,0,0,.09-.67c-.12-.19,0-.32,0-.48a.79.79,0,0,0,.81-.07,7.14,7.14,0,0,1,2.29-2.38,1.27,1.27,0,0,0,.66-1,2.68,2.68,0,0,1,.77-1.66q1.5-1.87,3-3.78c.46-.6.94-1.21,1.35-1.85q1.78-2.82,3.54-5.66c.76-1.25,1.5-2.51,2.28-3.74a15.66,15.66,0,0,0,1.31-2.37,3.19,3.19,0,0,1,1.8-1.92,1.35,1.35,0,0,0,.73-1,4.5,4.5,0,0,0,.14-.83c.41-3.17.8-6.34,1.25-9.51.2-1.45.5-2.88.77-4.31a3.09,3.09,0,0,1,.23-.57c.06-.13.46-.16.54,0a2.2,2.2,0,0,1,.39.72,7,7,0,0,1,0,1.45c-.15,2.22-.26,4.45-.49,6.66s-.28,4.17-.3,6.25a44,44,0,0,1-.26,4.59c-.19,1.66-.38,3.32-.46,5-.15,3.48-.46,6.95-.45,10.43a49.25,49.25,0,0,1-.36,7.08,21,21,0,0,0-.18,3.54,7.84,7.84,0,0,1-.25,3.3,2.5,2.5,0,0,0-.1,1c.07,2.16-.11,4.31-.22,6.46s-.2,4.17-.36,6.25-.43,4.29-.63,6.44c-.25,2.56-.42,5.13-.79,7.68a6,6,0,0,0,0,2.28,1.64,1.64,0,0,0,1.31,1.43,25.6,25.6,0,0,0,3.44.8,45.62,45.62,0,0,0,7.3-.14c1-.08,2.07-.19,3.11-.29.49-.05,1-.05,1.45-.14a18.1,18.1,0,0,1,4-.24,29.81,29.81,0,0,0,5.81-.37,38,38,0,0,0,8.64-2.27,36,36,0,0,1,5-1.48c.59-.15,1.26,0,1.86-.13s1.28-.54,1.94-.7c1.42-.35,2.85-.62,4.28-.92s2.86-.58,4.28-.9a1.38,1.38,0,0,0,1.11-1.11,10.86,10.86,0,0,0,.28-2.9c-.05-1.66-.09-3.34-.2-5-.2-3.27-.25-6.54-.59-9.79-.22-2.08-.32-4.17-.57-6.24q-.81-6.74-1.85-13.43c-.21-1.37-.37-2.76-.53-4.14a38.27,38.27,0,0,0-1.46-7.35c-.93-2.92-1.7-5.87-2.4-8.85-.45-2-1-3.91-1.57-5.84-.82-2.73-1.72-5.43-2.59-8.14a.6.6,0,0,0-.67-.38,7.91,7.91,0,0,0-.82.16c-1.53.45-3.08.86-4.58,1.39a33.54,33.54,0,0,1-7.08,1.63,40.73,40.73,0,0,1-11-.25,36.62,36.62,0,0,1-10.49-3.3c-2.44-1.18-4.85-2.42-7.28-3.61a13.45,13.45,0,0,1-2.63-1.7c-4.14-3.45-7.89-7.24-10.47-12.05a3.07,3.07,0,0,0-.2-.36A8.85,8.85,0,0,0,125,191a8.42,8.42,0,0,1-4.52-2.41,19.33,19.33,0,0,1-5.46-9.45,4.31,4.31,0,0,1-.18-1.23,8.14,8.14,0,0,0-.57-3c-.73-2.25-1.49-4.49-2.21-6.74-.47-1.45-.88-2.93-1.32-4.39a3.33,3.33,0,0,1-.08-1.85,1.59,1.59,0,0,1,1.47-1.27,2.35,2.35,0,0,1,1.58.41c.44.34.91.63,1.36,1,2.59,1.89,5.13,3.84,7.55,5.94.26.22.54.43.82.63,0,0,.13,0,.2,0a.22.22,0,0,0,.24-.26c0-.48,0-1-.12-1.45-.15-1-.33-2.06-.49-3.09a5.92,5.92,0,0,1,.07-2.48,6.93,6.93,0,0,0,.2-1.86,1.42,1.42,0,0,1,.88-1.31l.37-.19a3.26,3.26,0,0,1,.38-.18,1.14,1.14,0,0,0,.78-.89c.29-1,.54-2,.87-3a3.14,3.14,0,0,1,2.22-2,7.26,7.26,0,0,1,1-.26,1.58,1.58,0,0,1,1.62.7,5.77,5.77,0,0,1,.27.56.46.46,0,0,0,.54.16l2.16-1.27a1,1,0,0,0,.15-.14.56.56,0,0,0,0-.89c-.15-.15-.32-.27-.47-.42a1.27,1.27,0,0,1-.08-1.85c.17-.22.37-.41.55-.63s.2-.23.19-.34-.15-.23-.25-.32a.77.77,0,0,1-.26-.93,1.15,1.15,0,0,0,0-1.16,6,6,0,0,1-.49-1.58c-.26-1.16-.52-2.31-.72-3.48-.37-2.12-.9-4.21-1.07-6.37a10.88,10.88,0,0,0-1-3.81,15.92,15.92,0,0,1-1.13-3.35c-.22-1-.47-1.89-.68-2.84-.62-2.78-1.17-5.58-1.84-8.35-2.08-8.51-4.49-16.93-7-25.31a38.14,38.14,0,0,0-2.24-5.61,119,119,0,0,0-6.63-11.82c-1.19-1.88-2.41-3.74-3.64-5.6a8.75,8.75,0,0,1-1.37-2.79,1.33,1.33,0,0,0-.94-1,3.32,3.32,0,0,1-1.62-1.26,15.46,15.46,0,0,0-2.2-2.23c-.62-.55-1.24-1.12-1.87-1.67a53.58,53.58,0,0,0-4.56-3.65,23.47,23.47,0,0,0-7.65-3.69,20.27,20.27,0,0,0-4.3-.74,43.92,43.92,0,0,0-4.59-.18c-1.18.07-2.36.16-3.54.18a10.56,10.56,0,0,0-4.79,1.27c-.61.33-1.26.58-1.88.9-.8.4-1.61.81-2.39,1.27a8.71,8.71,0,0,0-3.58,4C61.88,59.22,61,61.1,60.18,63a23,23,0,0,0-1.79,9.15c0,1.25,0,2.51,0,3.76,0,.56,0,1.11,0,1.67a8.43,8.43,0,0,0,1.74,5c1,1.34,2,2.65,3.07,4A15.79,15.79,0,0,0,66,89.4a24.06,24.06,0,0,0,8,3.84,6,6,0,0,0,6.94-3.63,6.28,6.28,0,0,0,.36-3.29c-.32-2-.71-4.1-1.06-6.16a19.45,19.45,0,0,0-1.7-4.91,10.44,10.44,0,0,0-2.94-3.74c-.59-.48-1.23-.91-1.82-1.39a6.1,6.1,0,0,1-.88-.88,1.62,1.62,0,0,1,0-1.77,2.38,2.38,0,0,1,1.49-1.08,16.5,16.5,0,0,1,2.87-.46,19.08,19.08,0,0,1,5.57.69,1.81,1.81,0,0,1,.75.31,4.29,4.29,0,0,0,1.88.86,14.08,14.08,0,0,1,3.78,1.73c.64.41,1.32.76,2,1.17a15.76,15.76,0,0,1,1.72,1.17,56.81,56.81,0,0,1,4.79,4.65.66.66,0,0,1,.1.77.54.54,0,0,0,.15.73,3.76,3.76,0,0,1,.8.66A13.93,13.93,0,0,1,101,83.34c.36,1.77.64,3.56,1,5.34a33.32,33.32,0,0,1,.33,8.52,13,13,0,0,1-3.19,7.56,17.61,17.61,0,0,1-2.92,2.67,41.68,41.68,0,0,1-9.51,5.15,39.8,39.8,0,0,1-8.88,2.2,19.76,19.76,0,0,1-5,0l-4.14-.52a8.45,8.45,0,0,1-2.77-.83c-.86-.44-1.92-.34-2.76-.88a5.93,5.93,0,0,0-.56-.29c-2.71-1.42-5.31-3-7.89-4.67a20.22,20.22,0,0,1-5.21-4.76,21.84,21.84,0,0,0-1.76-2.07,40.3,40.3,0,0,1-5.32-7.21c-1.15-1.9-2.25-3.83-3.44-5.72A8.7,8.7,0,0,1,38,86c-.63-1.91-1.21-3.84-1.8-5.77-.64-2.13-1.29-4.26-1.9-6.39a42.05,42.05,0,0,1-1.41-7.37c-.24-2.42-.49-4.84-.73-7.27a5.53,5.53,0,0,1,0-1.86c.82-3.6,1.61-7.19,2.44-10.78a7.76,7.76,0,0,1,1.19-2.88,34.52,34.52,0,0,0,2.57-4.29,15.85,15.85,0,0,1,4.44-5.19c.5-.38,1-.8,1.51-1.13q4.31-2.73,8.65-5.43a11.84,11.84,0,0,1,3.46-1.41c3.24-.8,6.46-1.61,9.61-2.72a11.81,11.81,0,0,1,3.67-.69c2.3-.06,4.59-.16,6.89-.22.55,0,1.11,0,1.67,0l4.17.18a11.15,11.15,0,0,1,2.06.25c1.43.31,2.81.78,4.2,1.19a10.88,10.88,0,0,0,3.47.65,6.76,6.76,0,0,1,2.63.58c1.69.64,3.38,1.29,5,2A69.31,69.31,0,0,1,111,33.07c1,.64,2,1.22,3.06,1.8a82.38,82.38,0,0,1,11.72,8.33,10,10,0,0,1,1.07,1A27.37,27.37,0,0,0,130,46.93l2.32,1.78a59.17,59.17,0,0,1,8.29,7.61l6,6.66c2.65,3,5.23,6,7.71,9.07a16.92,16.92,0,0,0,1.38,1.56,9.29,9.29,0,0,1,1.63,2.16,25.24,25.24,0,0,0,2.88,4.08c.58.69,1.16,1.39,1.72,2.1A21.68,21.68,0,0,1,164.11,85a26.18,26.18,0,0,0,2.36,3.44q2.33,3,4.63,5.92a44.49,44.49,0,0,1,3.42,5c1.2,2,2.39,4.08,3.6,6.11.6,1,1.22,2,1.89,3,.91,1.32,1.73,2.69,2.51,4.09.41.73.72,1.5,1.08,2.25a21.3,21.3,0,0,0,1.37,2.08c.26.41.48.85.7,1.28l.75,1.49a8.65,8.65,0,0,0,1.79,2.79,3.25,3.25,0,0,1,.56.87,142.52,142.52,0,0,1,7,13.3,23.76,23.76,0,0,0,2.54,4.54,22.7,22.7,0,0,1,2.44,5.06,1.86,1.86,0,0,1,.08.41,1.22,1.22,0,0,1-1,1.37,2.62,2.62,0,0,1-1.44-.11c-.65-.25-1.3-.48-1.94-.75a35.84,35.84,0,0,0-9.9-2.35,5.91,5.91,0,0,0-1,0c-.05,0-.11.07-.12.11s0,.18,0,.2a9.31,9.31,0,0,0,1,.7q7,4,14,7.9c.24.14.51.24.74.39a1.09,1.09,0,0,0,1.18,0A.61.61,0,0,0,202.34,155Zm-21.21-2.66c-.08-.34.09-.24.26-.12a.56.56,0,0,0,.74.46c.2,0,.39-.12.59-.18-.26.54-.26.58.11.7a2.62,2.62,0,0,0,.38.09,1.28,1.28,0,0,0,.19,0c0-.12,0-.28-.08-.34a5.59,5.59,0,0,0-.61-.44,1.77,1.77,0,0,1-1.35-.35C181.35,152.27,181.15,152.36,181.13,152.29Zm14.1,81.27c-.1-.08-.12,0,0,.12a.46.46,0,0,1,.07.14,3.78,3.78,0,0,0,.06.83q.81,3.09,1.64,6.16a.67.67,0,0,0,.52.57,3.39,3.39,0,0,1,2.13,1.51c.49.66,1,1.29,1.55,1.91a.45.45,0,0,0,.57,0l-.09.3s.06,0,.06-.06a1.16,1.16,0,0,0,0-.18c-2.09-3.42-4-6.93-5.89-10.49-.12-.24-.2-.51-.55-.51C195.27,233.77,195.3,233.6,195.23,233.56ZM130.52,158c-.81.38-1.67.66-2.51,1a.92.92,0,0,0-.63,1c.08,1.32.14,2.63.29,3.94a6.47,6.47,0,0,1,0,2.06,1.91,1.91,0,0,0,.11,1.22c.08.18.32.36.46.29a.28.28,0,0,0,.15-.35c-.13-.54-.25-1.08-.37-1.62a2.42,2.42,0,0,1,.39-2q1.69-2.37,3.4-4.73c.24-.34.52-.65.76-1a.62.62,0,0,0-.08-.76l.14,0c-.09.11-.12.09-.09-.07A6.84,6.84,0,0,1,130.52,158Zm89.34,107.44c.09,0,.09.1-.07.06a3.44,3.44,0,0,1,.47.4,37.64,37.64,0,0,0,6.31,5.72,4.61,4.61,0,0,1,2.2,3.79.33.33,0,0,0,.46.23c.41-.25.83-.49,1.23-.78s.73-.58.15-1.14a2.45,2.45,0,0,1-.57-2.32.76.76,0,0,0-.35-.71,2.88,2.88,0,0,0-.34-.23l-8.52-4.8a1.14,1.14,0,0,0-1-.09C219.88,265.32,219.59,265.52,219.86,265.47ZM199,157s.13.07.13.08-.16.15-.27,0a.41.41,0,0,0,0-.56,4.6,4.6,0,0,0-.67-.49c-1.38-.81-2.73-1.67-4.13-2.43-3.67-2-7.37-3.91-11-5.86l-1.11-.57a1.88,1.88,0,0,1-1.17-1.59c-.07-.73-.67-1-1.33-1.11-.82-.09-1.66-.07-2.5-.09q-1.87-.06-3.75-.09a.42.42,0,0,0-.32.19c-.07.14,0,.26.17.31a5.79,5.79,0,0,0,.57.25,89.81,89.81,0,0,1,13.37,5.76c3.78,1.91,7.54,3.86,11.3,5.81a3.83,3.83,0,0,1,.65.51S198.94,157,199,157Zm-21.55-6.17s.06.09.11.11a.17.17,0,0,0,.17,0c.1-.09.08-.19-.06-.28l-.15-.11a29.42,29.42,0,0,0-4.24-2.21,4.55,4.55,0,0,0-1-.3c-.33-.09-.68-.14-1-.24-1.31-.38-1.68-1.26-1.07-2.57.08-.18.19-.36.26-.55a.2.2,0,0,0-.2-.28c-.7,0-1.39-.1-2.08-.1-2.51,0-5,.05-7.52.09-.69,0-1.38.12-2.07.18s-1.11.14-1.66.18a58.28,58.28,0,0,0-14.43,3.06c-.39.13-.76.33-1.14.5a.42.42,0,0,0-.14.54c.17.3.37.59.52.9a2,2,0,0,1-.15,2.17c-.4.57-.83,1.11-1.26,1.66s-1,1.31-1.54,2a.47.47,0,0,0-.06.35.23.23,0,0,0,.36.08,51.61,51.61,0,0,1,4.5-2.61,3.92,3.92,0,0,0,1.56-1.35,6.44,6.44,0,0,1,1.79-1.74,20,20,0,0,0,2.62-2.06,2,2,0,0,1,2.14-.39,1.93,1.93,0,0,1,.56.27,2.31,2.31,0,0,0,2.38,0c.52-.22,1-.54,1.51-.71a2.24,2.24,0,0,1,2.64.68.28.28,0,0,1,0,.37,2.19,2.19,0,0,1-1.13.89,19.74,19.74,0,0,0-4.84,2.83c-2.11,1.48-4.25,2.9-6.4,4.31a56.84,56.84,0,0,0-9.3,7.72l-3.66,3.72a14.3,14.3,0,0,1-2.21,1.9,2.16,2.16,0,0,1-2.36.15.71.71,0,0,0-.39-.1c-.1,0-.26.18-.25.26.28,1.64.58,3.28.86,4.92.61,3.57,1.24,7.13,1.81,10.7.22,1.3.3,2.62.47,3.93a13.19,13.19,0,0,0,2.26,6,41.66,41.66,0,0,0,12.24,11.78,19.44,19.44,0,0,0,4.94,2.17c2.28.63,4.54,1.31,6.75,2.14a39.39,39.39,0,0,0,4.44,1.09c1.35.34,2.74.43,4.11.67a13.34,13.34,0,0,0,3.34.06c1.17-.08,2.35-.2,3.52-.37a28.46,28.46,0,0,0,2.86-.59,15.54,15.54,0,0,1,3.45-.7,6.14,6.14,0,0,0,1.62-.37A30.47,30.47,0,0,0,193.52,204a19.23,19.23,0,0,0,3.92-5.37c.64-1.31,1.3-2.61,2-3.91a2.34,2.34,0,0,1,.54-.88,2.86,2.86,0,0,0,1.09-1.91,10.38,10.38,0,0,1,.8-1.92,25.9,25.9,0,0,0,1.91-5.94,91.91,91.91,0,0,0,1.51-9.47,90.28,90.28,0,0,0,.59-9.16c0-.32-.22-.6-.48-.53a4.67,4.67,0,0,1-3-.4L191,159.85l-.2-.07c-3.46-1.62-6.95-3.17-10.55-4.45a10.57,10.57,0,0,1-1.34-.57,28.83,28.83,0,0,0-5.61-2.21,29,29,0,0,1-3.87-1.52c-1.86-.79-3.69-1.62-5.53-2.43a1.87,1.87,0,0,1-1.07-1.21,1.63,1.63,0,0,1,.93-2.23.47.47,0,0,1,.58.07.57.57,0,0,0,.72.18,2,2,0,0,1,2.39.79,4.93,4.93,0,0,1,.45.7,2.15,2.15,0,0,0,1.11.9c.19.08.37.19.57.26l6.85,2.48a1.21,1.21,0,0,0,1.19-.06A1.55,1.55,0,0,0,177.44,150.8ZM86.17,47.14a20.14,20.14,0,0,1,6.75,2,38.11,38.11,0,0,1,3.62,2.08c1.26.86,2.53,1.73,3.77,2.62a12.33,12.33,0,0,1,2.6,2.4,10.83,10.83,0,0,0,1.15,1.2,38.25,38.25,0,0,1,6.28,7.5c1.79,2.82,3.65,5.59,5.47,8.39a45.8,45.8,0,0,1,3.29,6c1.64,3.61,3.29,7.21,4.57,11,.92,2.7,1.67,5.45,2.35,8.22,1.77,7.29,3.55,14.58,5.27,21.89,1.18,5,2.28,10,3.36,15.06a86.64,86.64,0,0,1,1.43,9.06c0,.55.15,1.1.25,1.65.2,1.13.31,1.22,1.32.9s2-.69,3-1a10.72,10.72,0,0,1,3-.71A3.2,3.2,0,0,0,145,145a16.42,16.42,0,0,1,5-1.46c1.38-.2,2.74-.52,4.12-.66,2.28-.25,4.57-.4,6.85-.57,1-.08,2.09-.07,3.13-.14a6.43,6.43,0,0,1,2.27.13,4,4,0,0,0,1.24.07,99.54,99.54,0,0,1,11.06.22,16.16,16.16,0,0,0,2.09.09,39,39,0,0,1,6.65.49,49.87,49.87,0,0,1,6.49,1.46c.67.2,1.34.37,2,.53.06,0,.25-.17.24-.24a1.54,1.54,0,0,0-.2-.58q-4.92-9.44-9.86-18.85c-.55-1-1.18-2-1.79-3.07-2.37-3.93-4.73-7.86-6.77-12a15.47,15.47,0,0,0-1.53-2.48,34.39,34.39,0,0,1-2-2.93c-2.21-3.54-4.51-7-7-10.36l-1.76-2.34a17.6,17.6,0,0,1-1.1-1.51,49.56,49.56,0,0,0-3.41-4.75c-.81-1-1.54-2.14-2.28-3.24a58,58,0,0,0-5.56-7,21,21,0,0,1-2.08-2.62,17.41,17.41,0,0,0-1.43-1.78q-3-3.36-6-6.7a40.57,40.57,0,0,1-3.14-3.9,15.87,15.87,0,0,0-3-3.2c-2.7-2.19-5.4-4.39-8.06-6.62-1.92-1.61-3.79-3.29-5.7-4.91-1.22-1-2.43-2.09-3.73-3A126.57,126.57,0,0,0,102.4,32.69a55.8,55.8,0,0,0-7.75-3,12.77,12.77,0,0,0-2.47-.43,19.08,19.08,0,0,1-3.65-.82c-1-.32-2-.54-3-.8a3.15,3.15,0,0,0-.61-.13C83,27.41,81.18,27,79.29,27a24.6,24.6,0,0,1-2.71-.14,23.51,23.51,0,0,0-6.64.4l-5.73,1.08a13.2,13.2,0,0,0-1.41.35,42.41,42.41,0,0,0-15.23,7.51c-1.62,1.32-3.14,2.75-4.7,4.14a1,1,0,0,0-.15.14c-1,1.18-1.55,2.63-2.54,3.81-.2.66-.4,1.32-.61,2-.47,1.53-.94,3.06-1.43,4.58-.42,1.32-.89,2.63-1.33,4a6.67,6.67,0,0,0-.29,3.29,15.25,15.25,0,0,1,.13,2.71,34.69,34.69,0,0,0,.82,7.66c.66,3,1.29,6,2.1,8.93a45.34,45.34,0,0,0,2.14,6.09A16.39,16.39,0,0,1,42.63,86a7.53,7.53,0,0,0,1.06,2.26c1.8,2.65,3.62,5.28,5.66,7.75l4.14,5a19.88,19.88,0,0,0,4.91,4.18c2.19,1.34,4.4,2.65,6.7,3.82.55.28,1.12.54,1.69.79a8.3,8.3,0,0,0,3.63.81,3.53,3.53,0,0,1,1.63.27,3.86,3.86,0,0,0,2,.2,18.17,18.17,0,0,1,3.76-.08,10.19,10.19,0,0,0,4.69-.75c.19-.08.4-.1.6-.18a75.36,75.36,0,0,0,10.08-5,19.32,19.32,0,0,0,2.68-2,7.24,7.24,0,0,0,2.6-5.28c.1-1.87.38-3.73.31-5.62a27,27,0,0,0-1.6-8.78A19.87,19.87,0,0,0,93,76.75a14.51,14.51,0,0,0-3.79-2.91c-.8-.42-1.56-.91-2.32-1.41A17.12,17.12,0,0,0,81,70a3.82,3.82,0,0,0-.83,0c-.18,0-.36.28-.26.43.49.76,1,1.54,1.49,2.27a12.3,12.3,0,0,1,2.08,4.74c.51,2.31.84,4.65,1.14,7a14.7,14.7,0,0,1-.32,5.6,11.86,11.86,0,0,1-2.5,4.76A6.82,6.82,0,0,1,77,97.12a11.79,11.79,0,0,1-4.93-.58c-1.19-.4-2.38-.76-3.56-1.17a12,12,0,0,1-3.8-2.13c-1.23-1-2.41-2.11-3.59-3.19a11.77,11.77,0,0,1-1.93-2.46,28.83,28.83,0,0,0-2.76-3.92,4.12,4.12,0,0,1-.91-2.08c-.2-1.24-.36-2.48-.52-3.72-.08-.69-.12-1.39-.18-2.08a25.87,25.87,0,0,1,.69-8.9,57.72,57.72,0,0,1,2.85-8.5,25.36,25.36,0,0,1,1.82-3.51,12.89,12.89,0,0,1,6.44-5.39c2.08-.78,4.15-1.6,6.24-2.34a8,8,0,0,1,2.67-.46c1.11,0,2.22,0,3.18,0A35,35,0,0,1,86.17,47.14Zm28.74,118.41c.74,2.24,1.27,4.55,1.8,6.84a42.73,42.73,0,0,0,5.36,12.38,3.91,3.91,0,0,0,2.39,1.88l2.8.77a.41.41,0,0,0,.46-.51c-.11-.4-.21-.8-.36-1.19a25.57,25.57,0,0,1-1.27-5.47,47,47,0,0,0-1.31-6.1c-.11-.4-.28-.79-.39-1.19a3.21,3.21,0,0,0-1.18-1.67l-7.4-5.76a.93.93,0,0,0-.74-.31s-.09.09-.14.14A.41.41,0,0,0,114.91,165.55ZM158.57,327.8c0,.27,0,.56.27.72a3.36,3.36,0,0,0,.74.36,1.64,1.64,0,0,0,.62,0,4.63,4.63,0,0,1,3,.61,1,1,0,0,1,.31.26c.08.1.19.28.15.36s-.23.41-.39.43a3,3,0,0,1-1.22,0,20.3,20.3,0,0,0-2.67-.42.62.62,0,0,0-.65.65,2.81,2.81,0,0,0,.06.82,1,1,0,0,0,.67.73,13.18,13.18,0,0,0,5.15.41,1.31,1.31,0,0,0,1.07-1.13c0-.62,0-1.24,0-1.87,0-1.52,0-3.05,0-4.58a.67.67,0,0,0-.63-.69l-1.67-.1a17.28,17.28,0,0,1-3.28-.46c-.06,0-.15-.08-.14-.11s0-.3.09-.38a2.08,2.08,0,0,1,1.29-.61,6.3,6.3,0,0,1,2.48.15c.46.14.94.24,1.41.35a.23.23,0,0,0,.32-.17,4.1,4.1,0,0,0,.13-1.84.49.49,0,0,0-.25-.31,5.65,5.65,0,0,0-1-.3c-1.64-.25-3.29-.48-4.93-.71a.58.58,0,0,0-.68.59c-.05.55-.09,1.1-.12,1.66,0,.83-.06,1.66-.09,2.49h-.05Zm8.75-30.43a.57.57,0,0,0-.51-.54,25.48,25.48,0,0,0-5.38.33,1.06,1.06,0,0,0-.87.79,1.08,1.08,0,0,0-.08.19.39.39,0,0,0,.3.6c.41,0,.82-.05,1.24-.06,1.31-.07,2.63-.14,3.94-.18a1.77,1.77,0,0,1,.59.15c.14,0,.24.4.14.53s-.24.37-.41.43a14.67,14.67,0,0,1-4,.92,7.18,7.18,0,0,0-1,.1,1.31,1.31,0,0,0-1,1,7.17,7.17,0,0,0,.07,3.29.41.41,0,0,0,.32.21c.61-.09,1.21-.26,1.83-.31a9.67,9.67,0,0,1,2.68.2,7.69,7.69,0,0,0,1.44.08.4.4,0,0,0,.29-.25A4.28,4.28,0,0,0,167,304c.06-1,.1-2.07.15-3.11h.08C167.25,299.72,167.29,298.54,167.32,297.37Zm17.94-4.45a.45.45,0,0,0-.48-.28c-.32.1-.65.21-1,.33a38.28,38.28,0,0,1-5.29,1.79,1,1,0,0,0-.64,1.17c0,.1.18.27.25.26a2.51,2.51,0,0,1,1.94.5,1.13,1.13,0,0,0,.8.07,2.18,2.18,0,0,0,.76-.31,2.07,2.07,0,0,1,2.16.07.42.42,0,0,1,.14.54,3.84,3.84,0,0,1-.44.69.54.54,0,0,1-.74.1c-.27-.22-.51-.47-.78-.68-.07-.05-.31,0-.33.05a1.37,1.37,0,0,1-1.54.79c-.48,0-1,0-1.45,0-.21,0-.42,0-.62,0a.62.62,0,0,0-.58.7c0,.41.11.82.18,1.23a.86.86,0,0,0,.61.5c.55,0,1.11,0,1.66,0l4.15-.25c1-.07,1.28-.36,1.29-1.46,0-.55,0-1.1,0-1.66v-1h0C185.31,295,185.29,294,185.26,292.92Zm-19.68,20.29a.68.68,0,0,0,.49-.31,3.89,3.89,0,0,0,.13-2,.44.44,0,0,0-.27-.29,11.4,11.4,0,0,0-1.42-.25l-2.91-.21A1.58,1.58,0,0,1,161,310a.53.53,0,0,1-.27-.28.4.4,0,0,1,.13-.34,2.43,2.43,0,0,1,.73-.38,6.61,6.61,0,0,1,2.47-.17,11.53,11.53,0,0,0,1.86.06.62.62,0,0,0,.55-.73,1.24,1.24,0,0,0-1.28-1.33c-.91,0-1.81,0-2.71,0-2.55,0-2.34-.29-2.58,2.49-.1,1.11-.15,2.22-.21,3.32a.57.57,0,0,0,.48.58l2.58.11C163.78,313.28,164.68,313.26,165.58,313.21Zm18,20.58a.92.92,0,0,0,.38-1.23.7.7,0,0,0-.35-.21c-1.23-.2-2.47-.38-3.7-.56-.21,0-.25-.12-.15-.29s.05-.14.09-.18a2.78,2.78,0,0,1,1.71-.66c.7,0,1.39,0,2.09,0s.82-.23.85-.92a10.28,10.28,0,0,0,0-1.24c0-.11-.16-.24-.27-.28a2.57,2.57,0,0,0-.62-.08,39,39,0,0,0-4.57.42,1,1,0,0,0-.65.74,4.42,4.42,0,0,0,0,.63c.09,1,.19,1.94.3,2.9a4.52,4.52,0,0,0,.22.8,1.1,1.1,0,0,0,1,.66c.55-.06,1.1-.15,1.65-.23v0C182.24,334,182.93,333.9,183.61,333.79Zm0-19.24a2.5,2.5,0,0,0,.81-.13.53.53,0,0,0,.39-.44c0-.63,0-1.25,0-1.87,0-1.53-.11-1.62-1.7-1.48l-3.94.38a1.36,1.36,0,0,0-1.05.89,3.34,3.34,0,0,0,.05,2.05.69.69,0,0,0,.62.48,8.88,8.88,0,0,0,1,.05h1.66v-.06C182.22,314.47,182.91,314.53,183.6,314.55Zm-23.2.57a.81.81,0,0,0-.82.77c-.09.69-.14,1.38-.21,2.07,0,.15.2.47.32.48,1.45.18,2.89.38,4.34.51,1.84.16,1.74.21,1.95-1.72.05-.49.05-1,.07-1.46a.62.62,0,0,0-.65-.65h-2.71C161.93,315.11,161.17,315.1,160.4,315.12Zm22.73-5.93a5,5,0,0,0,1-.18,1,1,0,0,0,.76-.88c0-.55,0-1.11.05-1.66a.42.42,0,0,0-.35-.44c-.61-.11-1.24-.13-1.85-.26a2.18,2.18,0,0,0-1.6.21,3,3,0,0,1-1.61.31,13.9,13.9,0,0,0-1.44.08.47.47,0,0,0-.42.59c.05.41.11.83.19,1.24.12.69.44,1,1.1,1s1.38,0,2.07,0h0C181.75,309.2,182.44,309.22,183.13,309.19Zm-.29,17.63c1.81,0,1.79,0,1.79-1.89,0-.55,0-1.1-.06-1.66,0-.19-.28-.37-.43-.28a5.07,5.07,0,0,1-3,.54c-.69,0-1.38-.08-2.07-.11a.7.7,0,0,0-.66.67c0,.69,0,1.38,0,2.07a.68.68,0,0,0,.69.63h2.5v0Zm-.24-8c2.09,0,2,0,2-2.1a2,2,0,0,0-.08-.61c0-.11-.2-.27-.27-.26a21.71,21.71,0,0,1-4.34.13,7.32,7.32,0,0,0-1.24.09.46.46,0,0,0-.4.42c0,.41-.06.82-.06,1.23,0,.9.19,1.07,1.11,1.1h3.32Zm.55-14.5c.55,0,1.2.21,1.61-.19a3.7,3.7,0,0,0,1.09-2c0-.18,0-.27-.23-.28a10.28,10.28,0,0,0-1.24,0c-2.08.12-4.17.27-6.25.41a.68.68,0,0,0-.67.65,6,6,0,0,0,0,1,.44.44,0,0,0,.25.27,1.86,1.86,0,0,0,.61.1h2.92C181.9,304.31,182.53,304.33,183.15,304.31Zm1,17.56a.65.65,0,0,0,.6-.7,5,5,0,0,0-.09-1c0-.1-.17-.23-.28-.25a3.77,3.77,0,0,0-.82,0l-4.53.32c-.84.05-.86.33-.74,1.1a.68.68,0,0,0,.71.61c.82,0,1.65,0,2.47,0v0Z"/><path d="M131.19,209.09a12.6,12.6,0,0,0-.36-3.9.62.62,0,0,1,.32-.7,11.12,11.12,0,0,0,1.2-.83,1.87,1.87,0,0,0,.75-1.64,5.52,5.52,0,0,0-5.16-5.36,2.55,2.55,0,0,0-2.06.82,3.88,3.88,0,0,0-1.26,2.56,5.83,5.83,0,0,0,.2,2.28,4.21,4.21,0,0,0,3.2,3,7,7,0,0,1,.79.2.46.46,0,0,1,.19.33,2.85,2.85,0,0,1-2.45,2.87,3.9,3.9,0,0,0-1.57.53c-1,.53-1,.52-2.31.3a2.09,2.09,0,0,0-2.08.65c-.5.58-1,1.18-1.42,1.8s-.69,1-1,1.56c-.16.23-.34.13-.51,0a.38.38,0,0,0-.55,0,30.19,30.19,0,0,0-1.77,2.58,26.9,26.9,0,0,1-6.65,7.41c-.43.35-.87.69-1.29,1.06a3,3,0,0,0-.71.76,8.38,8.38,0,0,1-1.77,2.29,1.76,1.76,0,0,0-.45.7c-.9,2.47-2.06,4.86-2.75,7.42a54.24,54.24,0,0,0-1.1,5.51c0,.28-.06.56-.09.83a2.65,2.65,0,0,0,1.28,2.66,1.82,1.82,0,0,0,1,.3,1.52,1.52,0,0,0,1.45-.65,18.48,18.48,0,0,0,1-1.6c.67-1.21,1.31-2.45,2-3.68a4.51,4.51,0,0,1,.46-.68.36.36,0,0,1,.36,0c.32.26.59.58.91.85a1.9,1.9,0,0,0,2.91-.34,9.83,9.83,0,0,0,.78-1.47c1.28-2.93,2.8-5.75,4.23-8.6.63-1.24,1.36-2.43,2.08-3.62,1.42-2.31,2.86-4.6,4.3-6.9,0-.07.22-.07.34-.08s.1.12.1.17a14.76,14.76,0,0,1-.27,1.64c-.78,3.1-1.74,6.15-2.78,9.17-1.84,5.32-3.54,10.68-5.23,16.05a14.68,14.68,0,0,0-.47,1.6,7,7,0,0,0-.13,1.44,1.81,1.81,0,0,0,2,1.71,1.78,1.78,0,0,0,1.1-.52,3,3,0,0,0,.74-1.24c1.71-4.77,3.52-9.51,5-14.37.82-2.73,1.72-5.43,2.59-8.15,0-.05.11-.08.16-.12s.16.21.15.31a8.93,8.93,0,0,1-.09,1,13.92,13.92,0,0,0-.23,1.44,46,46,0,0,1-.91,6.18c-.2,1-.43,2-.57,3.07-.3,2.28-.94,4.49-1.4,6.73-.09.41-.21.81-.3,1.22a1.63,1.63,0,0,0,.46,1.53,3.4,3.4,0,0,0,.83.62,1.1,1.1,0,0,0,1.32-.26,3.63,3.63,0,0,0,.83-1.43,12.77,12.77,0,0,0,.44-1.61c.49-2.31.93-4.63,1.45-6.93a14.92,14.92,0,0,0,.35-2.9,48.78,48.78,0,0,1,.58-5.39,8.57,8.57,0,0,0,.15-1.24,54.92,54.92,0,0,1,.78-7.67c.19-1.16.3-2.34.41-3.52C130.73,214.46,130.93,212.1,131.19,209.09Z"/><path d="M227.3,231.81a.25.25,0,0,0-.18-.06c-.15,0-.17.15-.08.3s.18.31.29.46-.08-.11.19,0a1.74,1.74,0,0,0,0,.61c.21.51.49,1,.72,1.51a18.25,18.25,0,0,1,1.54,5.17,4.88,4.88,0,0,1-.18,2.05,1.48,1.48,0,0,1-2,.93,3.9,3.9,0,0,1-1.61-1.28c-.77-1.07-1.53-2.15-2.26-3.25s-1.31-2.14-2-3.15a50.8,50.8,0,0,1-4-7.3,2.34,2.34,0,0,1-.2-.58,7.38,7.38,0,0,0-1.19-2.65l-1.69-2.63c-.26-.41-.51-.83-.73-1.26a1,1,0,0,1,.07-1c.12-.17.27-.32.4-.49a.54.54,0,0,0-.11-.86,3.24,3.24,0,0,0-1.29-.66,2.42,2.42,0,0,1-1.4-1.17c-.47-.77-1-1.51-1.49-2.25-.06-.09-.24-.11-.36-.14s-.08.1-.08.16a2.82,2.82,0,0,0,.55,2.36,4.4,4.4,0,0,1,.94,2.06c.42,2.19,1.11,4.3,1.65,6.46a54.16,54.16,0,0,1,1.57,7.12,11.18,11.18,0,0,0,.24,1.64,14.56,14.56,0,0,0,.57,1.56,1.94,1.94,0,0,1,.12.39,27.9,27.9,0,0,1,.65,4.54,15.78,15.78,0,0,1-.15,2.28,1.63,1.63,0,0,1-2.1,1.18,1.36,1.36,0,0,1-.67-.45,11.48,11.48,0,0,1-.8-1.46,3.74,3.74,0,0,1-.49-2,2.12,2.12,0,0,0-.27-1.2,8.89,8.89,0,0,1-.77-2.37c-.1-.53-.28-1-.43-1.57,0-.18-.13-.19-.17,0a2.05,2.05,0,0,0-.11.6c.06.9.21,1.8.2,2.7,0,1.32-.15,2.64-.27,4a3.14,3.14,0,0,1-.26,1,2,2,0,0,1-2.79.92,1,1,0,0,1-.59-.81c0-.55-.05-1.11-.05-1.66,0-2.51.08-5,.09-7.51,0-2-.24-3.88-.42-5.82-.22-2.29-.35-4.58-.59-6.86a32.23,32.23,0,0,1-.23-4.16,4.07,4.07,0,0,0-.56-2.58c-.42-.59-.14-1.36-.18-2a2.52,2.52,0,0,1,.46-1.76,2.19,2.19,0,0,0,.32-1.4c0-.63-.05-1.25-.06-1.88a1.51,1.51,0,0,1,.64-1.25,6,6,0,0,1,1.05-.67,1.7,1.7,0,0,1,1.93.3c.53.54,1,1.11,1.54,1.69q4.33,4.95,8.65,9.9c1.86,2.15,3.92,4.14,5.64,6.43a2,2,0,0,0,.48.36,1.6,1.6,0,0,0,.72,1.17s.13,0,.2,0a2.7,2.7,0,0,0,0,.57.34.34,0,0,0,.44.24c0,.19,0,.39,0,.58s.07.15.11.15.25-.1.23-.25a.49.49,0,0,0-.35-.45c0-.35,0-.72-.45-.8a1.31,1.31,0,0,0-.79-1.29,1.46,1.46,0,0,0-.38-.94c-1-1.45-2-2.87-2.9-4.33-2.2-3.46-4.43-6.89-6.86-10.2A4.35,4.35,0,0,1,214,207a1.66,1.66,0,0,0-.45-.67c-.57-.61-1.17-1.2-1.74-1.8a1.58,1.58,0,0,1-.33-.52.37.37,0,0,1,.14-.32,1.09,1.09,0,0,1,1.33.19,1.64,1.64,0,0,1,.27.32,3.32,3.32,0,0,0,1.23,1.37,9.86,9.86,0,0,1,2.51,2.48c1.44,1.88,2.89,3.74,4.29,5.64.87,1.17,1.66,2.4,2.49,3.59A20.69,20.69,0,0,0,225,219a14,14,0,0,1,1.5,2.25,19.17,19.17,0,0,0,1.31,2.12,38.9,38.9,0,0,1,2.55,3.81c.43.71.84,1.44,1.33,2.11a3.91,3.91,0,0,1,.87,3.31,1.33,1.33,0,0,0,0,.2,1.11,1.11,0,0,0,.29.76,10.14,10.14,0,0,0,.76.71,6.2,6.2,0,0,1,1.62,2.39,3,3,0,0,1,.23,1.43,1.78,1.78,0,0,1-.24.78,1.71,1.71,0,0,1-2.53.35,13.49,13.49,0,0,1-1.17-1.45c-1.12-1.59-2.22-3.2-3.34-4.79-.15-.22-.31-.46-.64-.46A.57.57,0,0,0,227.3,231.81Zm-7.11-4.47c.45.27.49.34.4.78a1.21,1.21,0,0,0,.93-.08c.16,0,.23.11.16.24a.16.16,0,0,1-.29,0c-.09-.13,0-.22.14-.23a1.33,1.33,0,0,0-.94.1c-.43-.12-.45-.44-.4-.79s.29-.86-.15-1.22c-.1-.31-.21-.61-.32-.91-.12.26.22.11-.06.11-.07,0,0-.1.12-.05-.1.59-.1.59.33.77Z"/><path d="M201.56,200.41c0,.35,0,.69.09,1a2.82,2.82,0,0,0,1.79,2.37,8.49,8.49,0,0,0,2.82.67,2.27,2.27,0,0,0,1.54-.52,4.38,4.38,0,0,0,1.69-3.43,3.85,3.85,0,0,0-1.21-2.79,3.67,3.67,0,0,0-4.19-.95c-.13,0-.26.11-.38.16A3.26,3.26,0,0,0,201.56,200.41Z"/><path d="M165.09,185.15a1.79,1.79,0,0,1-1.41-1.61,4,4,0,0,1,.24-1.84c.58-1.48,1.19-2.95,1.72-4.46a2.26,2.26,0,0,1,2.54-1.65h.21a.9.9,0,0,1,.88.73c.12.61.2,1.23.34,1.84.29,1.28.62,2.56.92,3.84a7,7,0,0,1,.16,1,1.63,1.63,0,0,1-1.27,1.87,12.13,12.13,0,0,1-2.68.39A15.09,15.09,0,0,1,165.09,185.15Zm2-2.72a.83.83,0,0,0,1-1c-.11-.68-.26-1.36-.4-2a.2.2,0,0,0-.3-.17c-.06,0-.16,0-.17.07a7,7,0,0,0-.67,2.58A.69.69,0,0,0,167.11,182.43Z"/><path d="M152,168a4.2,4.2,0,0,0,.33,2.11,1.69,1.69,0,0,0,1.93.78,2.58,2.58,0,0,0,1.55-3.5,3.13,3.13,0,0,0-1.12-1.44,1.62,1.62,0,0,0-2.19.42,4,4,0,0,0-.47,1.13A1.3,1.3,0,0,0,152,168Z"/><path d="M177.85,167.39c0-.39,0-.81-.09-1.22a1.51,1.51,0,0,0-1.64-1.24,2.36,2.36,0,0,0-2.1,2.22,4,4,0,0,0,0,1,3,3,0,0,0,.39.95,1.72,1.72,0,0,0,1.71,1,2,2,0,0,0,1.69-1.85C177.86,168,177.85,167.69,177.85,167.39Z"/><path d="M166.06,200.68c.18,0,.37,0,.55,0a15.67,15.67,0,0,0,4.43-.27,26.6,26.6,0,0,0,5.18-1.39,5.85,5.85,0,0,0,.84-.39c.5-.31.77-1,1.5-.94l1.74-1.06c.53-.32,1.07-.63,1.59-1a5.93,5.93,0,0,0,1.47-1.4,29.93,29.93,0,0,0,3.4-5.93,6.06,6.06,0,0,0,.62-3.24,2.37,2.37,0,0,0-.09-.36.17.17,0,0,0-.12-.1c-.11,0-.27,0-.33.08a1.5,1.5,0,0,0-.34.63,7.8,7.8,0,0,1-1.27,3.05,29.54,29.54,0,0,1-2.5,3.66c-.49.56-1,1.08-1.54,1.61a2.61,2.61,0,0,1-.58.46c-1.84,1-3.61,2.14-5.5,3.06a6.86,6.86,0,0,1-2.1.66c-1.65.21-3.28.6-4.95.72a8.37,8.37,0,0,1-1.66,0,2.26,2.26,0,0,0-.73-.06,11.36,11.36,0,0,1-3.68-.06c-.1,0-.22.1-.34.12s-.29,0-.3,0c-.21-.65-.9-.58-1.34-.89s-.91-.38-1.33-.63a19.3,19.3,0,0,1-3.89-2.48c-.56-.25-.9-.85-1.54-1a.74.74,0,0,1-.46-.55,3.31,3.31,0,0,0-.75-1.26c-.53-.53-.64-1.35-1.25-1.82-.16-.54-.32-1.07-.49-1.6a1.31,1.31,0,0,0-1.88-.49,1.12,1.12,0,0,0-.38,1,5.06,5.06,0,0,0,.75,2.07,25.64,25.64,0,0,0,1.64,2.46c.65.83,1.36,1.59,2.08,2.36a3.4,3.4,0,0,0,.77.5,32.67,32.67,0,0,1,2.83,1.76A19.31,19.31,0,0,0,160,200c1.45.23,2.83.9,4.36.63a10.33,10.33,0,0,1,1.67,0Z"/><path class="cls-3" d="M135,148c-3.29-10.66-4.75-21.74-6.31-32.76-1.6-11.24-6.56-20.62-11.23-31-3.79-8.4-7.64-16.91-13.5-24S89.92,47.42,80.74,46.62C62.27,45,50.66,66,56.07,82.33c2.62,7.87,10.09,14.3,18.39,14.31a10.43,10.43,0,0,0,6.44-1.89c3.23-2.52,3.82-7.2,3.31-11.27a30.21,30.21,0,0,0-6.47-15.17c4.57-.1,8.78,2.46,12.22,5.46,6,5.25,10.73,13,9.41,20.86-1.65,9.72-11.82,15.19-20.75,16.55-22.54,3.41-51-31.51-45.91-53,2-8.25,6.65-17,13-22.68C58.9,23.84,80,20.16,96.44,26.29c8.46,3.15,15.7,8.84,22.66,14.58,15.76,13,28.41,27,40.79,43.23,12.56,16.49,28.14,34.84,34.88,54.76,2.1,6.22.48,5.94-5.75,5.72-5.9-.21-11.74-.59-17.65-.49A200.82,200.82,0,0,0,135,148Z"/><path class="cls-3" d="M192.19,227.54c3,17.93,6,35.89,6.92,54,.08,1.51.09,3.2-.92,4.33a5.91,5.91,0,0,1-2.66,1.44,151.78,151.78,0,0,1-49.18,7.53,4.61,4.61,0,0,1-3.25-.91c-.93-.92-.91-2.41-.82-3.72l5.19-75.15c.12-1.8.6-4,2.36-4.43a4.5,4.5,0,0,1,2.8.68,39.63,39.63,0,0,0,26.38,2.4c4.59-1.11,6-2.81,9.29.87C191,217.64,191.55,223.73,192.19,227.54Z"/></g></g></svg>