<svg id="Capa_1" data-name="Capa 1" xmlns="http://www.w3.org/2000/svg" xmlns:xlink="http://www.w3.org/1999/xlink" viewBox="0 0 62.36 61.18"><defs><style>.cls-1{fill:none;}.cls-2{fill:#5da6bc;}.cls-3{fill:#fff;}.cls-4{clip-path:url(#clip-path);}</style><clipPath id="clip-path"><rect class="cls-1" x="-32.49" y="3548.77" width="1341" height="1296.03"/></clipPath></defs><path class="cls-2" d="M12.57,17.22A3,3,0,0,0,9,16.87a5.29,5.29,0,0,0-2.25,3.06,6.79,6.79,0,0,0,1.12,6.55,4.37,4.37,0,0,0,6.06.44,6.31,6.31,0,0,0,1.55-3.29,7.89,7.89,0,0,0,0-3.95A3.85,3.85,0,0,0,12.92,17"/><path class="cls-2" d="M13.09,16.23c0,.1-.08.31,0,.29l.14-.36Z"/><path class="cls-2" d="M13.24,17a2.27,2.27,0,0,0,.4-.77,4,4,0,0,0-.37.55c-.06,0,0-.14,0-.28,0,.09-.06-.1-.16.12s.06.33.22.14A1,1,0,0,1,13.24,17Z"/><path class="cls-2" d="M15.19,20.8l0,0Z"/><path class="cls-2" d="M14.8,23.47a.12.12,0,0,0-.08,0S14.76,23.47,14.8,23.47Z"/><path class="cls-2" d="M14.29,23.82l0,0S14.26,23.8,14.29,23.82Z"/><path class="cls-2" d="M15.19,20.8l-.11.08C15.2,20.88,15.17,20.84,15.19,20.8Z"/><path class="cls-2" d="M14.32,16.52l-.1.06h.07Z"/><path class="cls-2" d="M14.65,19.78v0l-.16,0Z"/><path class="cls-2" d="M14.26,19.09a4.31,4.31,0,0,0,.4-.21.62.62,0,0,1-.21.08Z"/><path class="cls-2" d="M13.79,17.75l0,0Z"/><path class="cls-2" d="M14.74,20.36l-.11,0Z"/><path class="cls-2" d="M12.13,15.18l0,.06S12.14,15.19,12.13,15.18Z"/><polygon class="cls-2" points="12.51 17.28 12.48 17.28 12.35 17.4 12.51 17.28"/><path class="cls-2" d="M13.67,24.43h0S13.65,24.41,13.67,24.43Z"/><path class="cls-2" d="M9.27,25.91c-.12.27-.32.21-.43.54C8.91,26.34,9.22,26.11,9.27,25.91Z"/><path class="cls-2" d="M14.33,16.58l0,0S14.34,16.57,14.33,16.58Z"/><path class="cls-2" d="M8.84,26.45h0v0Z"/><path class="cls-2" d="M13.1,25.83l.12.08Z"/><path class="cls-2" d="M14.11,25.08h0S14.11,25.09,14.11,25.08Z"/><path class="cls-2" d="M13,26.52s-.06,0-.05,0l0,0S12.94,26.49,13,26.52Z"/><path class="cls-2" d="M12.44,26.81l0,.06,0,0Z"/><path class="cls-2" d="M8.51,15.6a1.08,1.08,0,0,1,.18.24C8.57,15.64,8.7,15.49,8.51,15.6Z"/><path class="cls-2" d="M14.23,16.68c0-.07.07-.1.1-.1h0A.24.24,0,0,0,14.23,16.68Z"/><path class="cls-2" d="M14.39,28.66l-.18.07A.4.4,0,0,0,14.39,28.66Z"/><path class="cls-2" d="M5.11,21.85l0,0S5.07,21.83,5.11,21.85Z"/><path class="cls-2" d="M13.72,29a.51.51,0,0,0-.18-.15.25.25,0,0,0,0,.08Z"/><path class="cls-2" d="M8.7,15.84h0Z"/><path class="cls-2" d="M9.65,14.71c-.2,0,0,.42,0,.67-.17.17-.17-.28-.29-.47-.12.14-.1.55-.19.56a.38.38,0,0,1-.07-.17c0,.36-.39.17-.35.63a.47.47,0,0,1-.06-.09,4.57,4.57,0,0,1,.28.51c-.06,0,0,.3-.14.06,0,0,0-.11,0-.2v.14c-.25-.32,0-.16-.11-.43-.09.19,0,.56-.19.51-.24-.31.15-.24-.16-.46l.23,0c-.43-.47.12,0-.33-.53-.28,0-.14.31-.41.36.09.21.21.26.29.46,0,.5-.82-.61-.69,0,.13.24.44.62.15.54l-.27-.36c-.19.13.36.54,0,.49-.1-.14,0-.22,0-.23-.36-.14.11.25,0,.33L7,16.78c-.12.23-.05.6-.14.84a.55.55,0,0,0-.29-.2c0,.37-.41.54-.76.72L6,18.4s-.16,0-.21-.08.19.1.29.21-.22,0-.29-.09c.16.32.34.77-.07.84l-.08-.08c-.19.12.59.41.24.45l0,0c-.25.3,0,.74-.6.9.47.14-.28.31.39.45-.37.14-.48.07-.73.33,0,.08.4.16.47.26l-.36,0,.36.16-.42,0,.08.1a.4.4,0,0,1,.27-.06c.15.15-.27.33-.45.33l.3.34a.55.55,0,0,1-.28-.11c.36.18-.37,0,0,.2a1.29,1.29,0,0,1,.28,0,.25.25,0,0,0-.1.41H4.8c0,.27.17.53.21.82a.64.64,0,0,1,.57-.09l-.36.09c.24,0,.13-.11.42,0,0,.1-.4.14-.53.1l.15.11a2.69,2.69,0,0,1-.32,0c.24,0-.33.3.09.29l-.11,0a2.88,2.88,0,0,0,.32.61c.31-.09.27,0,.54,0,0,.19-.21.46-.11.65s.27-.07.47-.09c-.26.12-.15.3-.39.29a1,1,0,0,0,.56.43c.09-.09.12-.15.22-.18s0,.17-.17.23h0c.28,0,.2.32.16.59s0,.55.29.46h.41c.06.14-.22.09-.28.29.58-.1.34.44.78.36-.35.85.65.39.62,1l.08-.19c.17-.14,0,.15.06.21.07-.14,0-.2.1-.28.66.06,1.08.78,1.77,1.08.25.09.28-1,.51-.51l-.12.37c.52-.41,1,.06,1.49-.41,0,.09,0,.2,0,.21.15.25.39-.05.34-.28.07,0,.06.2.13.3s.17-.41.29-.16c0,0,0,.1,0,.12,0-.14.32-.06.16-.35.23.08.28-.25.49-.13-.07-.37.36,0,.15-.46.24.48.51.21.46-.07,0,.16.18.08.26.29.12-.09.17-.24,0-.44.6.32,0-.69.69-.2.1-.49.15-.87.23-1.2.42.3-.17.32.27.64,0-.41-.25-.79,0-1,.1,0,.17.15.24.22,0-.37.32-.5.17-.86a.29.29,0,0,1,.11.11c0-.06.12-.08-.1-.17l0,.07c-.35-.07-.59-.46-.76-.53.6.33.25-.16,1,.27a.51.51,0,0,0-.27-.17c.06,0,.15,0,.3.09-.05-.21-.32-.23-.26-.38a2.26,2.26,0,0,1,.26.14c-.18-.15-.37-.29-.24-.39s.16,0,.14.08c0-.23-.46-.53-.19-.7.46.19.18,0,.6.05l-.1-.16h-.21c0-.11-.26-.27-.1-.33l.16.11,0-.22-.18.08c-.2-.15-.54-.1-.39-.21s0-.11.28-.12h0c-.13-.08-.26-.16-.14-.22s.46.1.56.1c-.35-.12-.06-.28-.43-.4a2,2,0,0,0,.36.07l-.28-.09a.46.46,0,0,1,.32,0c.07-.15-.55,0-.29-.17a.23.23,0,0,1,.1.05c.15-.17-.14-.38,0-.53.44,0,.09.16.46.13,0-.27-.48-.56-.38-.79l0,0c-.62,0,.3-.17,0-.3a1.32,1.32,0,0,0,.27,0c.1-.18-.16-.35-.37-.58h.16c.12-.11.05-.27.1-.39-.16,0-.14-.07-.36,0,.41-.23.26-.39.09-.5s-.36-.22,0-.47c0,0,.15,0,.15,0l-.22-.21a1.1,1.1,0,0,0-.33.2c-.16,0-.29,0-.31-.05.2,0,.4-.15.52-.25l-.24.08c.39-.29-.5.18-.27-.09l.13-.05c-.09,0-.29,0-.28-.08.27-.16.16,0,.39-.11-.06-.09-.6.09-.37-.13.09,0,.12.05.22.05.28-.25.19-.23.2-.32h0a2,2,0,0,0,.05-.24l-.06.09c-.76.3-.27-.16-.8,0,.5-.15.25-.14.55-.33.05-.09.1-.22.19-.26-.28.1.08-.26-.32-.1.09-.08-.05-.09.18-.25-.15,0-.13.15-.25.23-.39.12.07-.64-.5-.45-.31,0-.58.29-.83.34a.66.66,0,0,1,.29-.3c0-.2-.08-.22-.22-.16a.73.73,0,0,0,.14-.28c-.09,0-.27.32-.27.13a2.52,2.52,0,0,1,.3-.35c-.14,0-.33.17-.46.22.06-.19.19-.24.28-.34a.55.55,0,0,0-.51.3v.13s.09-.26.15-.29c.19-.18.08.15,0,.26l-.09,0c-.23.62.27,0,.39.14l-.3.38.32-.27a.79.79,0,0,1-.27.38c-.06.24.16-.1.07.16a.21.21,0,0,1-.05.07l.15-.07c-.07.07-.2.28-.19.19-.07.3.4-.14.2.17l0,0c.25,0,.24-.26.64-.45q-.25.36-.54.69l.27-.23s0,.07-.09.16c.22-.11.1-.11.3-.23-.18.29.3.12-.12.49.23-.14.1-.2.31-.23-.46.39.16,0,0,.28s-.18,0-.36.22c.46-.25,0,.2.12.2.36-.21.23,0,.41.09-.12.06-.1.31-.2.47l-.06,0c.39-.14.37,0,.48.05a1.35,1.35,0,0,1-.46.1l0,.07a.41.41,0,0,1,.27,0l-.31.09c.05.08.42.08.25.27.29-.06.76-.33,1-.21a1.9,1.9,0,0,1-.49.09s.14,0,.08.06h-.28c-.1.09.23,0,.22,0-.23,0-.15.07-.33.11s.08-.07,0-.07a.53.53,0,0,1-.31.22.73.73,0,0,1,.34,0c0,.1-.27.09-.37.17.16,0,0,.09.35,0,0,0-.16.07-.25.09.16,0,.08.24.43.14l0,0h0c.36.16-.16.41,0,.59h-.11c.13.11.08.24.32.33,0,0-.21.08-.34.06.08.09.21.1,0,.22-.19-.1-.18,0-.14-.1-.1.11-.29.12,0,.26-.29-.06-.38.05-.29.11l.21-.06c0,.06,0,.11,0,.16l-.38-.07c-.49.16.74.5-.06.56.26.1.21-.09.51,0-.07.1-.63.11-.64.14-.23.1.53.23.36.36.14,0,.5.05.6.2-.07.1-.59,0-.68-.08s0,0,.08,0a.26.26,0,0,0-.24-.09l.13,0c-.15,0-.16.17-.37.09a.23.23,0,0,0,.29,0c-.22.08,0,.2-.21.3.08,0,.24,0,.23,0-.21.15.23.14.25.3-.22,0-.47-.16-.34,0-.16,0-.35-.09-.45-.15.22.19-.23.16-.29.2l-.09-.09c0,.06,0,.08,0,.11l.27.05a.16.16,0,0,1-.17,0,4.54,4.54,0,0,1,.65.27c-.15,0,.09.19-.26.08.17-.1-.35-.1-.36-.24,0,0,0,.06,0,.08a.16.16,0,0,1-.08-.05c-.35,0,.36.2.3.34-.18-.09-.37-.12-.34-.08s.33.1.45.21c-.18,0,.07.14,0,.18l.1,0c.18.1.13.13.16.23-.15-.07-.07-.11-.15-.11.3.22-.41,0-.23.18a4.07,4.07,0,0,1-.45-.19c.18.22-.29,0-.15.16s.19.07.38.28l-.07-.26.28.31c0-.05-.09-.2,0-.2a.61.61,0,0,0,.33.21c-.4-.14.12.27-.18.21l-.57-.37c-.31-.07.17.38-.08.41l.13,0c.2.19,0,.1,0,.21a2.93,2.93,0,0,0-.37-.26c.12.12-.09.07.22.4l-.26-.17c-.17,0,.32.58.16.62-.12-.22-.26-.31-.31-.5,0,0-.08,0,0,.14-.1-.11.08.31-.07.15,0,.1.16.3.11.31a.43.43,0,0,1-.06-.09c.06.09,0,.18.18.36-.48-.54-.36.26-.73-.26a.66.66,0,0,1-.23.26c0-.07,0-.11,0-.1-.17-.17.09.66-.12.47s0-.22,0-.34c-.17-.72-.15.13-.32-.29l0,0c-.1-.24-.13.3-.26.25a.66.66,0,0,0,0-.11.8.8,0,0,1-.36.62,1.16,1.16,0,0,0,0-.45c-.06,0,0,.47-.12.55a1.76,1.76,0,0,1-.09-.62h.1c0-.41-.12,0-.17-.07l0-.18c-.14,0-.22.49-.38.43v.13c-.18.42,0-.26-.19,0l.08-.45a1.54,1.54,0,0,1-.46.42,7.54,7.54,0,0,1,.45-.61s-.18,0-.28.19c0,0,.09-.13.1-.06-.17.32-.33.46-.45.41.33-.82-.22-.33,0-1-.32.21-.25-.29-.44-.36-.33.6-.06,0-.47.55-.07,0-.08,0-.05-.06s.08-.29.13-.43.14-.09.24-.21.16-.25.24-.43c-.16.19-.26.24-.24.13l-.16.3c-.37.16.33-.51,0-.34l.19-.12c-.15,0-.16-.2-.66.09.06-.06.2-.19.26-.19,0-.19-.75,0-.52-.34l.15-.07c-.06,0-.31.1-.18,0s.16-.06.16-.08-.31.05-.25,0l.2-.05c.12-.26-.55-.07-.74-.2A1.07,1.07,0,0,0,8.27,24l.06,0c0-.21-.5-.23-.75-.42.51-.24.15-.5.44-.75a.86.86,0,0,1-.45,0c.1-.06-.36-.13.1-.15v0c.45-.06.32-.15.33-.24H7.39c.88-.21-.31-.61.5-.68-.15-.07-.14-.13-.29-.21l.33,0c.09-.14.15-.2.1-.38l.23.07c0-.08-.91-.29-.91-.4l.49.07c0-.18.48-.23.11-.52.07,0,.2.07.21.1s.41-.18-.23-.38c.41.14.1-.15,0-.32l.3.13c-.35-.23-.46-.28-.51-.43s.24.08.15.08c.2,0-.24-.19,0-.23l.17.13c.06-.08,0-.12-.23-.27s.16-.14.42,0c-.15-.09-.33-.26-.23-.27a.63.63,0,0,1,.18.13c.26,0-.2-.4.13-.33l.17.1c-.08.09-.14.17-.16.15.26.15.35.1.66.38-.16-.18-.49-.55-.32-.55l.09.05,0,0s0,0,0-.07a.23.23,0,0,0,.12,0c.2.13.16,0,.2,0-.25-.2-.17-.21-.42-.34,0,0,0,0,0,.07a0,0,0,0,0,0,0l0,0-.05.11c-.11-.13-.2-.25,0-.18-.15-.15-.29-.31-.36-.39a8.21,8.21,0,0,1,.87.48c0-.22.13-.29-.19-.82,0-.08.15.11.22.17s0,.07,0,.15c0-.17.14-.19-.08-.55.19.1.17.36.25.22l.06.12c.29.21.22-.06.21-.34s.05-.54.33-.17a.49.49,0,0,1-.08-.13c.23.13.37,0,.55-.08s.38-.12.51.2c.08.14.12-.14.21-.33l0,.35L11.2,17c.26-.23,0,.88.32.42l.07-.22c0,.07.26,0,.12.2,0,0,.14-.2.1-.08l-.09.16a1.78,1.78,0,0,1,.3-.17c0,.18-.44.57-.36.68a3,3,0,0,0,.55-.38s0-.13.15-.26l.12,0c.39-.38.87-.67.91-1.15a2.59,2.59,0,0,0-.37.11l.12-.24a.71.71,0,0,1,.14.1c.09-.26-.11-.13-.25-.06a.59.59,0,0,0,.1-.28l-.46.31c.1-.19.31-.3.25-.47-.2.15-.18.44-.38.5.05-.26.17-.42,0-.29a.37.37,0,0,1,.18-.23c-.17.1-.28-.06-.44.18,0-.32-.32,0-.14-.52-.08.1-.3.32-.38.32.32-.55-.31-.12-.13-.74-.23.5-.5.16-.74.45,0,0,0-.13.06-.1s-.14-.22-.22-.32c0,.45-.2.56-.28.84-.16-.43.06-.54,0-.95,0,.36-.24.38-.16.68a1.34,1.34,0,0,1-.2-.49c0,.57-.1.11-.13.47-.2-.25-.14-.51-.28-.31C9.52,14.94,9.65,14.71,9.65,14.71Zm-2.72,3h0l0-.07Zm-.15.25.08-.1C7,17.88,7,18,7,18S6.88,17.94,6.78,17.93Zm2.12.88c0,.05,0,0-.1,0s0,0,0-.06l0,0Z"/><path class="cls-2" d="M8.6,18.51s0,0,0,0l-.07,0,.07.07Z"/><path class="cls-2" d="M15.24,20.76h0l0,0Z"/><polygon class="cls-2" points="4.97 21.51 5.05 21.51 4.98 21.48 4.97 21.51"/><path class="cls-2" d="M16,19.15l.07,0Z"/><path class="cls-2" d="M15.77,18.5l.06-.14A.62.62,0,0,0,15.77,18.5Z"/><path class="cls-2" d="M15.63,18l-.12.07h0Z"/><path class="cls-2" d="M16.11,25.94v0C16.15,26,16.14,26,16.11,25.94Z"/><path class="cls-2" d="M16.06,23.46a.45.45,0,0,1,.13.1S16.24,23.49,16.06,23.46Z"/><polygon class="cls-2" points="14.41 28.65 14.41 28.65 14.39 28.66 14.41 28.65"/><path class="cls-2" d="M16.17,23.66c.07,0,.06-.07,0-.1S16.12,23.61,16.17,23.66Z"/><path class="cls-2" d="M13.86,16.24l0,0s0,0,0,0Z"/><path class="cls-2" d="M13.82,16.26l-.05,0A.05.05,0,0,0,13.82,16.26Z"/><path class="cls-2" d="M13.68,16.33l.09,0S13.73,16.25,13.68,16.33Z"/><path class="cls-2" d="M14.46,16.76l.08-.09Z"/><path class="cls-2" d="M14.67,16.87c0-.05,0-.28-.07-.27l-.06.07C14.68,16.55,14.51,17,14.67,16.87Z"/><path class="cls-2" d="M14.23,18.47V18.3c-.08.11-.19.24-.25.22C13.79,18.88,14.16,18.3,14.23,18.47Z"/><path class="cls-2" d="M14.33,18.9c-.09,0-.15.1-.21.14C14.24,19,14.27,19,14.33,18.9Z"/><path class="cls-2" d="M15,21.76l-.29,0C14.77,21.8,14.84,21.74,15,21.76Z"/><polygon class="cls-2" points="16.49 22.52 16.68 22.47 16.42 22.41 16.49 22.52"/><polygon class="cls-2" points="14.36 22.64 14.32 22.61 14.42 22.72 14.36 22.64"/><path class="cls-2" d="M12.43,26.51l.16.33C12.59,26.77,12.43,26.39,12.43,26.51Z"/><path class="cls-2" d="M10.62,27c0-.18,0-.31-.09-.14S10.58,27.08,10.62,27Z"/><polygon class="cls-2" points="7.85 22.29 7.97 22.33 7.87 22.25 7.85 22.29"/><path class="cls-2" d="M5.15,53.16a38,38,0,0,0,0-8.73,23.1,23.1,0,0,1,.65-8.66c.9-2.76,3-5.28,5.71-5.9a2.64,2.64,0,0,1,2.34.36,3.39,3.39,0,0,1,.76,1.1A45.05,45.05,0,0,1,19.42,50.2,3.45,3.45,0,0,1,19,52.29,3.19,3.19,0,0,1,17,53.39a26.37,26.37,0,0,1-11.46,0"/><path class="cls-2" d="M5.67,52.64c-.06.09-.08.31,0,.29l.14-.36Z"/><path class="cls-2" d="M6.14,53.46a1.24,1.24,0,0,0,.33-.82c-.18.35-.17.19-.37.59-.11,0-.14-.15-.1-.29,0,.09-.12-.11-.22.12.06.31.21.36.42.15A.66.66,0,0,1,6.14,53.46Z"/><path class="cls-2" d="M15.47,54.22l-.07,0A.09.09,0,0,0,15.47,54.22Z"/><path class="cls-2" d="M20.17,50.62a.11.11,0,0,0,.08.07S20.21,50.61,20.17,50.62Z"/><path class="cls-2" d="M20.56,49.58l0,.06S20.59,49.59,20.56,49.58Z"/><path class="cls-2" d="M15.47,54.22l.17.1C15.63,54.19,15.55,54.24,15.47,54.22Z"/><path class="cls-2" d="M7.54,52.76a.28.28,0,0,0-.1.09l.08,0Z"/><path class="cls-2" d="M12.91,54.81h-.05l0,.16Z"/><path class="cls-2" d="M10.9,54.92s.06-.31.08-.45c0,.13-.06.19-.1.22A1.06,1.06,0,0,0,10.9,54.92Z"/><path class="cls-2" d="M7.78,54.12l-.06,0Z"/><path class="cls-2" d="M14.35,54.76l0,.11A.2.2,0,0,0,14.35,54.76Z"/><path class="cls-2" d="M6.9,51h0Z"/><polygon class="cls-2" points="5.06 53.14 5.05 53.11 4.87 53.07 5.06 53.14"/><path class="cls-2" d="M20.86,47.7h0S20.89,47.73,20.86,47.7Z"/><path class="cls-2" d="M16.15,31.39c-.18.3-.47-.12-.63.28C15.62,31.59,16.09,31.68,16.15,31.39Z"/><path class="cls-2" d="M7.58,52.81h.08S7.6,52.8,7.58,52.81Z"/><path class="cls-2" d="M15.52,31.67h0v0Z"/><path class="cls-2" d="M20.11,43.48l-.13.06A.28.28,0,0,0,20.11,43.48Z"/><path class="cls-2" d="M20.1,46.68l0-.08A.12.12,0,0,0,20.1,46.68Z"/><path class="cls-2" d="M19.34,42c0-.05.06-.07,0-.12l0,0C19.36,41.87,19.38,41.89,19.34,42Z"/><polygon class="cls-2" points="18.96 40.29 18.9 40.34 18.93 40.38 18.96 40.29"/><path class="cls-2" d="M6.62,45.75a1.4,1.4,0,0,1-.29.09C6.56,45.8,6.66,46,6.62,45.75Z"/><path class="cls-2" d="M7.51,52.94c0-.08,0-.11.07-.13H7.52A.26.26,0,0,0,7.51,52.94Z"/><path class="cls-2" d="M16.83,42.42v-.26A.77.77,0,0,0,16.83,42.42Z"/><path class="cls-2" d="M7.71,34.7v.06S7.73,34.73,7.71,34.7Z"/><path class="cls-2" d="M16.6,41.43a.56.56,0,0,0,.19-.19H16.7Z"/><path class="cls-2" d="M6.33,45.84Z"/><path class="cls-2" d="M7.2,47.57c0-.26-.42-.1-.67-.14-.13-.3.31-.16.52-.28-.12-.18-.52-.31-.51-.45s.09,0,.18,0c-.35-.18,0-.59-.49-.8l.1,0a2.22,2.22,0,0,1-.58.08c0-.11-.28-.19,0-.25,0,.07.11.06.2.09l-.13-.11c.39-.13.15.15.45.13-.15-.22-.5-.47-.4-.65.39-.06.16.4.49.14l-.13.29c.61-.25,0,.17.62-.07.09-.37-.23-.39-.14-.75-.22-.07-.32,0-.54,0-.42-.49,1-.46.42-.8-.27-.08-.77-.09-.52-.37l.45.07c0-.35-.65-.17-.37-.54.18.05.16.26.21.21.34-.25-.26-.16-.27-.34l.39-.05c-.07-.36-.37-.75-.44-1.15.11,0,.24.09.36,0a1.87,1.87,0,0,1,.3-1.52L6.36,40s.16-.06.22,0c.14-.17-.21,0-.34-.11s.2-.13.3-.06c-.27-.33-.54-1-.13-1.27l.09.07c.17-.23-.64-.39-.3-.59l.06.06c.23-.54.08-1.24.69-1.51-.45-.22.36-.46-.26-.71.42-.18.5-.06.87-.37.07-.09-.32-.33-.32-.49l.32.15-.25-.34.42.09v-.16a.34.34,0,0,1-.29,0c0-.27.47-.34.63-.25,0-.19,0-.38,0-.57.11.08.11.18.15.28-.16-.41.34.17.19-.21-.08,0-.16-.13-.22-.18a.46.46,0,0,0,.45-.4l.17.18c.26-.23.38-.63.67-.9-.18,0-.46-.31-.39-.42l.29.24c-.1-.22-.19,0-.27-.34.15-.07.36.26.38.4l0-.22a2.51,2.51,0,0,1,.18.27c-.1-.23.46.11.28-.27l.08.08c.29-.21.35-.41.6-.57-.15-.28,0-.29,0-.56.26,0,.59.14.82,0s0-.27,0-.48c.1.28.35.18.27.42a2.38,2.38,0,0,0,.68-.4c0-.12-.09-.17-.07-.28s.16.13.15.27l0,0c.16-.18.34,0,.4.14s0,.37,0,.38.06,0,.17-.07l0,0a.83.83,0,0,1,.41,0c0,.16-.24,0-.33.23.61.07.26.67.73.87-.64.66.54,1,.21,1.62l.17-.11c.23,0-.05.17-.06.27.14-.08.12-.19.25-.17.6.77.48,1.91.62,2.87.06.34,1.06-.17.75.41h-.4c.66.52.44,1.38,1,1.93-.1,0-.21,0-.23,0-.22.22.15.53.36.47,0,.11-.19.08-.28.17s.43.27.19.42c0,0-.1,0-.13,0,.16.06.09.44.37.27-.08.29.26.45.13.7.38,0-.06.47.44.4-.51.1-.31.54,0,.65-.16,0-.13.18-.35.16a.3.3,0,0,0,.43.24c-.54.47.63.6-.12.94A6.39,6.39,0,0,1,18,45.1c-.52.06-.14-.55-.68-.44.28.44.78.65.71,1.14-.05.13-.23,0-.32-.07.27.45.07.92.39,1.32A.28.28,0,0,1,18,47c0,.08-.06.21.18.17l-.07-.07c.32-.17.74.26.93.26-.69-.08-.13.44-1,.29a.38.38,0,0,0,.33.08c0,.09-.13.12-.32.06.16.29.4.16.41.43-.11,0-.16,0-.3-.06.24.12.47.25.39.49-.07,0-.16,0-.16,0,.07.39.64.65.44,1.1-.5-.11-.16.15-.59.19l.14.23.21-.1c0,.21.32.38.18.55l-.18-.14.08.35.17-.2c.22.2.54,0,.42.25,0-.06,0,.21-.28.28h0c.13.11.26.23.13.35s-.46-.12-.56-.12c.34.17,0,.35.32.59a1.19,1.19,0,0,0-.32-.18l.23.18c-.11,0-.16,0-.31-.1-.14.12.5.25.16.32,0,0,0,0-.06-.11-.21.09-.22.48-.54.49-.26-.35.13-.2-.12-.47-.18.2-.49.77-.93.76l.08,0c.08.61-.38-.23-.53.1a.58.58,0,0,0,0-.28c-.31,0-.57.27-1,.54l0-.17c-.19-.11-.47,0-.66,0,0,.16-.15.16,0,.37-.69-.81-1.08.61-1.67-.09.06,0,.14-.15.09-.15l-.43.18c.05.26.06.15.17.36a.38.38,0,0,1-.28.3c.2-.2,0-.43-.12-.58a2.26,2.26,0,0,1,0,.26c-.26-.47,0,.54-.35.23V53.7c-.12.07-.22.27-.36.23-.06-.31.13-.15.13-.4-.18,0-.35.59-.52.28.08-.09.19-.09.26-.17-.18-.36-.2-.27-.33-.33h0l-.3-.16.08.1c-.23.8-.46.14-.78.66.31-.49.06-.29.09-.64-.07-.1-.19-.21-.15-.31-.15.28-.23-.23-.44.17,0-.11-.16,0-.11-.3-.19.08,0,.2,0,.34-.31.36-.63-.5-1.08,0-.38.18-.49.55-.85.69-.09-.19.15-.39.15-.39-.16-.19-.3-.17-.49-.07a.37.37,0,0,0,0-.31c-.13,0-.15.39-.3.2a2.39,2.39,0,0,1,.2-.43c-.17.08-.36.26-.54.33,0-.2.15-.27.22-.39-.19.06-.5.09-.61.39l.1.13c-.07,0,0-.27.07-.32.2-.21.21.15.2.26l-.13,0c0,.68.49,0,.72.05l-.17.46.3-.36c0,.13,0,.4-.09.46.14.26.18-.15.29.13,0,0,0,.07,0,.08L8,54c0,.1,0,.34-.11.26.28.31.54-.3.62.08l0,0c.44-.12.08-.34.43-.72l.14.88.07-.35a.15.15,0,0,1,.11.19c.18-.23,0-.15.09-.37.19.33.59-.11.61.45.09-.27-.19-.22,0-.4,0,.61.27-.09.45.2-.07.31-.25.13-.06.42.13-.52.38.12.55,0,0-.42.36-.17.64-.32,0,.14.53.23.79.37v.07c0-.43.3-.36.49-.46a.59.59,0,0,1-.12.48l.18,0a.39.39,0,0,1,.21-.27l0,.32c.25,0,.46-.4.8-.22,0-.3-.32-.8,0-1,0,.15.07.42,0,.5S13.89,54,14,54l-.11.28c.16.1.05-.23.17-.22,0,.23.1.15.1.34,0,0-.11-.09-.14,0a.57.57,0,0,1,.37.32c0-.13,0-.31.06-.35.24,0,.11.26.27.36,0-.16.22,0,.18-.36.07,0,.1.15.14.24.11-.17.59-.13.39-.47l0,0,0,0h0c.35-.39.88,0,1.25-.17l0,.11c.21-.18.52-.19.63-.47.07,0,.22.16.23.3.17-.14.15-.26.49-.18-.14.26.12.15-.16.21.28,0,.43.15.59-.26,0,.31.37.23.47.07l-.3-.08a1.8,1.8,0,0,1,.4-.23l.15.36c.44,0,.61-.45.67-.79s.06-.63.53-.75c-.19-.26-.32.29-.55,0,.17-.23.77-.41.79-.52.29-.4-.49-.46-.32-.82-.14,0-.5.06-.62-.19.05-.23.57-.29.68-.14s0,.09-.08.09.11.19.26.09l-.14,0c.15-.13.13-.47.35-.4-.13-.18-.22-.07-.29.07.19-.32,0-.47.11-.78-.08,0-.23.1-.23,0,.14-.45-.27-.18-.35-.47.2-.19.5,0,.32-.26.12-.2.36-.06.47,0-.28-.26.14-.52.18-.69l.12.14a.27.27,0,0,1-.08-.23l-.27.11c0-.09,0-.17.15-.17-.18-.08-.45.1-.71-.06.13-.12-.17-.33.19-.4-.1.37.36-.07.44.23a.19.19,0,0,1,0-.22.11.11,0,0,1,.1,0c.29-.37-.42-.12-.45-.48.21,0,.38-.12.33-.17,0,.14-.33.1-.5,0,.13-.24-.15-.23-.14-.35l-.06.14c-.21,0-.19-.14-.27-.29.16,0,.12.13.19.07-.38-.13.32-.44.05-.65.12-.13.38-.06.46-.17-.3-.24.24-.34,0-.6-.26.12-.19.13-.48,0l.25.45-.43-.25c0,.14.21.28.17.37-.24-.12-.17-.11-.39,0,.38-.25-.28-.35,0-.61L20.2,45c.25-.39-.43-.55-.33-1l-.1.16c-.27,0-.08-.26-.21-.38a.8.8,0,0,0,.42-.22c-.17,0-.05-.32-.5-.28l.26-.25c.06-.37-.71-.27-.71-.62.27,0,.39-.14.61.06,0-.12,0-.23-.15-.2.12-.09-.37-.25-.18-.39-.11,0-.34,0-.35-.12a.22.22,0,0,1,.11,0c-.11,0-.19-.16-.42,0,.62-.5-.27-.93.25-1.37a4.75,4.75,0,0,1-.36-.71c.07,0,.11,0,.1,0,.12-.36-.68,0-.54-.42.3-.27.24.13.34,0,.71-.25-.22-.38.13-.73l.06,0c.19-.25-.4-.35-.43-.65l.11,0a1.47,1.47,0,0,1-.86-.65c.31,0,.19.08.45-.07-.08-.11-.44.19-.6,0,.13-.13.21-.35.5-.47l.09.22c.35-.25-.12-.29-.09-.44l.17,0c-.18-.33-.61-.19-.71-.57l-.11.08c-.5,0,.17-.26-.22-.34l.4-.22a4,4,0,0,1-.76-.52,2.4,2.4,0,0,1,.89.33c-.05-.13-.21-.44-.44-.43.06,0,.19.07.14.14a.78.78,0,0,1-.74-.44c.84-.29-.08-.76.47-1.23-.5-.33-.28-1-.59-1.49-.52.48-.09-.15-.71.19-.1-.11-.11-.16-.08-.19l.2-.56c.14-.18.2.05.33,0-.08-.3.21-.25.29-.51-.21.14-.36.07-.37-.15-.05.13-.11.26-.17.38-.53-.21.36-.62-.27-.93l.29,0c-.18-.12-.47-.62-1-.8a.65.65,0,0,0-.53,0c0-.1,0-.31.19-.26a1.84,1.84,0,0,0-1.33-.29c-.42,0-.75.13-1,0l0-.17c-.14.05-.2.33-.37.18,0-.07,0-.18,0-.18s-.28.34-.45.28l.09-.22c-.69-.08-.79.69-1.17,1-.19-.48-.69-.43-.95-.4l0-.06c-.68.29-.82,1-1.16,1.51-.66-.18-1.11.69-1.73,1,.14,0,.3.27.28.38-.17.05,0,.52-.32.22l0,0c-.44-.19-.51.13-.65.31l.49.37c-.53,0-.68.38-.76.74s-.12.67-.55.65c.08.19,0,.36.1.54l-.3-.13a2,2,0,0,0-.41,1l-.2-.16c-.1.26.8.6.76.83l-.49-.06c-.12.45-.64.83-.28,1.37-.07,0-.21-.06-.22-.14,0,.21-.46.79.22.81-.44-.06-.11.46.06.72l-.32-.07c.39.25.5.26.59.55,0,.07-.26,0-.17,0-.19.21.29.19.1.45l-.2-.11c0,.22.07.21.3.35s-.09.42-.39.45c.18,0,.41.17.33.3a.31.31,0,0,1-.21-.06c-.23.38.36.57,0,.83a.4.4,0,0,0-.2,0A1.72,1.72,0,0,1,4.11,41c-.29,0-.35.24-.75,0,.22.2.7.54.57.78l-.1,0,0,0s0,.1,0,.15a.32.32,0,0,0-.08.2c-.25,0-.13.28-.14.4.33,0,.28.14.54,0,0,0,0,0,0-.11l0,0h0q0-.12,0-.3c.17.09.31.19.13.33l.53.15c-.45.18-.68.5-1,.56.19.36.16.86.78,1,.09.1-.16.13-.26.18s-.06-.13-.15-.16c.17.2.1.61.53.63-.17.27-.4-.12-.31.23l-.13,0c-.63.75,1.16,1.07.34,1.89a.23.23,0,0,1,.14-.1c-.33.89.46,1.8-.15,2.66-.13.24.14.26.35.42l-.35,0,.4.26c.28.38-.87.59-.35,1.06l.24,0c-.05.16.09.52-.17.47,0,0,.24.08.11.13H4.62l.26.42c-.17.29-.71-.13-.8.3,0,.16.45.54.58.5s.14-.15.32-.13l.07.17c.53.11,1,.34,1.48,0l-.28-.33.27-.06,0,.24c.27-.1.06-.22-.07-.33a.46.46,0,0,0,.3-.09l-.48-.33c.21,0,.4.17.54,0-.23-.16-.48.07-.62-.16.26-.11.45-.05.26-.23a.3.3,0,0,1,.28.1c-.15-.16,0-.38-.32-.48.31-.12,0-.48.46-.43-.12-.06-.39-.27-.41-.4.6.26,0-.48.7-.41-.54-.19-.23-.64-.54-.94,0,0,.13,0,.1.07,0-.17.21-.22.31-.34-.45,0-.56-.28-.84-.41.43-.22.53.11,1,0-.37,0-.38-.35-.68-.27.27-.17.13-.14.5-.24-.57,0-.1-.15-.46-.26.27-.25.53-.09.35-.33C7,47.36,7.2,47.57,7.2,47.57ZM5.92,41.75h0l0,.12Zm0-.48a1.34,1.34,0,0,0,0,.21c-.11,0-.23,0-.22,0S5.82,41.34,5.91,41.27ZM3.68,42.35c-.05-.08,0-.11.08-.12s0,.08,0,.14h0A.65.65,0,0,1,3.68,42.35Z"/><path class="cls-2" d="M4.11,42.48s0,0,0,0l.07-.05-.1,0Z"/><path class="cls-2" d="M15.39,54.18h0l0,0Z"/><polygon class="cls-2" points="7.64 35.2 7.56 35.17 7.61 35.23 7.64 35.2"/><path class="cls-2" d="M12.56,53.35a.12.12,0,0,0,0-.08Z"/><path class="cls-2" d="M11.41,53.31l-.16-.11A.76.76,0,0,0,11.41,53.31Z"/><path class="cls-2" d="M10.53,53.14a.93.93,0,0,0,0,.14h0Z"/><path class="cls-2" d="M18,47l0,0C17.86,46.87,17.89,46.92,18,47Z"/><path class="cls-2" d="M18.92,51.08a.89.89,0,0,1-.14-.13C18.75,51,18.74,51.06,18.92,51.08Z"/><polygon class="cls-2" points="16.83 42.45 16.84 42.45 16.83 42.42 16.83 42.45"/><path class="cls-2" d="M18.79,50.77a.13.13,0,0,0,0,.18C18.8,50.9,18.84,50.83,18.79,50.77Z"/><path class="cls-2" d="M6.77,52.61l0,0a.09.09,0,0,1,0,0Z"/><path class="cls-2" d="M6.72,52.64l0,0S6.71,52.67,6.72,52.64Z"/><path class="cls-2" d="M6.55,52.73l.12-.06S6.59,52.64,6.55,52.73Z"/><path class="cls-2" d="M7.9,52.93l0-.11A.27.27,0,0,0,7.9,52.93Z"/><path class="cls-2" d="M8.25,52.94c-.08,0-.18-.27-.3-.21l0,.09C8,52.65,8.15,53.13,8.25,52.94Z"/><path class="cls-2" d="M9.63,54.53l-.3-.12c0,.13.1.3,0,.32C9.66,55.13,9.22,54.45,9.63,54.53Z"/><path class="cls-2" d="M10.59,54.75c-.17,0,0,.18,0,.25C10.69,54.89,10.72,54.86,10.59,54.75Z"/><path class="cls-2" d="M17.61,54l.06.29C17.8,54.21,17.64,54.18,17.61,54Z"/><path class="cls-2" d="M18.13,52.12,18,52l.11.24A.59.59,0,0,0,18.13,52.12Z"/><path class="cls-2" d="M20.26,52.82l0,.11a2.74,2.74,0,0,0,.08-.37Z"/><path class="cls-2" d="M19.31,40.51l-.35.13C19.05,40.71,19.45,40.63,19.31,40.51Z"/><path class="cls-2" d="M17.47,35.76c.15-.11.21-.29,0-.31C17.5,35.57,17.4,35.72,17.47,35.76Z"/><polygon class="cls-2" points="5.71 32.66 5.67 32.49 5.64 32.73 5.71 32.66"/><path class="cls-2" d="M14.37,30a8.54,8.54,0,0,1,4.91,4.09,3.25,3.25,0,0,0,.77,1.12,2.73,2.73,0,0,0,1.95.33,40.78,40.78,0,0,1,7.16.11c.78.08,1.72.3,2,1.06.41,1.11-.91,2-2,2.37a20.53,20.53,0,0,1-7.75.81,10.22,10.22,0,0,1-6.31-2.47c-1.67-1.62-2.45-4.4-1.3-6.46"/><path class="cls-2" d="M14.46,31.38c-.08-.07-.28-.17-.27-.1l.32.22Z"/><path class="cls-2" d="M13.65,31.42a1.79,1.79,0,0,0,.76.42c-.32-.19-.17-.15-.54-.39,0-.07.16,0,.28,0-.08-.06.11,0-.09-.18s-.36,0-.18.22A.8.8,0,0,1,13.65,31.42Z"/><path class="cls-2" d="M14.52,37.63v-.06S14.51,37.62,14.52,37.63Z"/><path class="cls-2" d="M18,40a.09.09,0,0,0-.07.06S18,40,18,40Z"/><path class="cls-2" d="M18.56,40.62l0,0S18.55,40.64,18.56,40.62Z"/><path class="cls-2" d="M14.52,37.63v.17C14.6,37.72,14.54,37.69,14.52,37.63Z"/><path class="cls-2" d="M14.3,32.42l-.09-.06,0,0Z"/><path class="cls-2" d="M13.16,36.24v0l-.16,0Z"/><path class="cls-2" d="M12.57,34.84s.31,0,.45-.06c-.14,0-.2,0-.23,0Z"/><path class="cls-2" d="M13,32.48l0,0Z"/><path class="cls-2" d="M13.67,37.2l-.09.08Z"/><path class="cls-2" d="M15.07,32l0-.05S15.06,32,15.07,32Z"/><polygon class="cls-2" points="14.4 29.96 14.42 29.95 14.48 29.78 14.4 29.96"/><path class="cls-2" d="M19.8,41.31h0S19.77,41.33,19.8,41.31Z"/><path class="cls-2" d="M32.28,38.3c-.37.08-.26-.31-.71-.16C31.72,38.13,32,38.45,32.28,38.3Z"/><path class="cls-2" d="M14.25,32.44a0,0,0,0,1,0,.05S14.27,32.46,14.25,32.44Z"/><path class="cls-2" d="M31.57,38.14Z"/><path class="cls-2" d="M22.86,41.39a.52.52,0,0,0,0-.14A.45.45,0,0,0,22.86,41.39Z"/><path class="cls-2" d="M20.67,40.78l0,0A.23.23,0,0,0,20.67,40.78Z"/><path class="cls-2" d="M24,40.92s0,.07.08,0l0,0C24.07,41,24.05,41,24,40.92Z"/><path class="cls-2" d="M25.2,40.84l0-.07,0,0Z"/><path class="cls-2" d="M17.36,33.7l.2-.22C17.39,33.64,17.24,33.58,17.36,33.7Z"/><path class="cls-2" d="M14.12,32.39a.36.36,0,0,1,.13,0,0,0,0,0,0,0,0Z"/><path class="cls-2" d="M24,38.36l.17,0A.33.33,0,0,0,24,38.36Z"/><path class="cls-2" d="M25.22,36.79l0,0S25.21,36.83,25.22,36.79Z"/><path class="cls-2" d="M24.62,38.32a.63.63,0,0,0,.11.22s0,0,0-.09Z"/><path class="cls-2" d="M17.56,33.48Z"/><path class="cls-2" d="M16.32,33.27c.09.11.34-.25.53-.41.21,0-.16.28-.27.48.15,0,.49-.22.53-.15a.4.4,0,0,1-.13.13c.33-.14.23.24.65.08l-.07.08c.15-.15.32-.29.44-.39s.3-.06.09.14c0,0-.11,0-.19.06H18c-.27.29-.17,0-.4.19.19,0,.56,0,.53.12-.31.25-.25-.13-.45.19l0-.22c-.42.47,0-.1-.48.39,0,.22.29.07.32.3.21-.09.26-.2.46-.28.5.06-.7.72-.15.63.25-.08.7-.3.55,0l-.42.16c.07.21.62-.2.48.17-.18,0-.22-.1-.25,0-.23.31.27,0,.34.11l-.33.21a2.7,2.7,0,0,0,.47.38l.58.35c-.09.08-.23.11-.23.28.56.25,1,.7,1.66,1a2.51,2.51,0,0,0,.25-.32s.07.16,0,.22c.18.14,0-.21.11-.34s.13.2.06.3c.34-.27.78-.64,1-.3l0,.11c.2.12.17-.71.36-.41l0,.07c.42.12.86-.21,1.19.29,0-.49.4.2.42-.48.24.33.17.46.5.68.09,0,.13-.42.23-.5v.36L25,36.5l.08.42.1-.09s-.08-.16-.08-.26c.16-.16.39.25.39.43l.38-.29c0,.14-.08.19-.13.28.21-.36,0,.37.22,0a1.27,1.27,0,0,1,0-.28.29.29,0,0,0,.45.14l0,.25c.27.07.59-.1.89-.08-.1-.12-.05-.54,0-.57l0,.37c.07-.22-.09-.14.05-.42.11.05.05.43,0,.55l.15-.12a2.37,2.37,0,0,1-.06.31c.08-.23.22.39.33,0v.12a.84.84,0,0,0,.35,0,.15.15,0,0,1,.08-.08,1.85,1.85,0,0,1,.22-.49c.06.11,0,.35,0,.34s.21-.26.38-.43c-.21.27-.12.26-.33.45a5.11,5.11,0,0,0,.52-.19,3,3,0,0,1,.3-.23c.09,0-.08.13-.26.24l0,0c.35-.14.18.1-.08.26s-.53.23,0,.17h-.06a2.38,2.38,0,0,1,.54,0c-.09.07-.36,0-.67.07.41,0,.36.08.29.1s-.18,0,0,.13c-.67-.09-.64-.1-.59,0s.1.14-.21,0l.22.14c.19.14-.14-.07-.19-.1.16.11.2.12.3.2s-.15.13-.28,0a.39.39,0,0,1-.1-.08s0-.07-.13-.08a4.61,4.61,0,0,0-.5-.07c-.23,0,.12,1.07-.28.66v-.39c-.36.54-.92.17-1.31.62,0-.09,0-.2,0-.21-.13-.26-.35,0-.32.26-.08,0-.05-.2-.1-.3s-.2.37-.28.11a.12.12,0,0,1,0-.12c0,.14-.3,0-.2.31-.19-.13-.32.18-.47,0-.06.36-.31-.15-.3.35,0-.51-.32-.4-.42-.15,0-.16-.1-.16-.07-.38-.12,0-.23.12-.2.38-.24-.62-.46.51-.59-.29a3.25,3.25,0,0,1-1.07.56c0-.52.38,0,.39-.58-.32.2-.54.64-.84.49-.08-.08.06-.22.09-.31-.33.19-.59-.1-.9.15a.29.29,0,0,1,.08-.14c-.06,0-.12-.09-.14.15l.06-.06c0,.35-.32.68-.36.86.19-.66-.25-.22,0-1a.47.47,0,0,0-.12.3c-.05,0-.05-.15,0-.32-.21.1-.19.36-.36.32a1.46,1.46,0,0,1,.11-.28c-.13.2-.27.41-.4.28,0-.06,0-.16.07-.14-.25,0-.57.48-.79.2.21-.46-.06-.19,0-.61l-.18.08v.22c-.12,0-.33.22-.4.05l.15-.14h-.26l.08.2c-.2.17-.16.52-.3.35.06,0-.13,0-.11-.32h0c-.12.11-.24.22-.29.08s.2-.43.21-.52c-.19.31-.32,0-.55.28a1.26,1.26,0,0,0,.17-.32l-.17.24c0-.11,0-.15.08-.31-.15-.13-.19.52-.28.21,0,0,0-.06.09-.08-.15-.2-.47,0-.58-.26.17-.41.2,0,.33-.36-.28-.06-.78.13-.95-.12v.07c-.4.46,0-.37-.27-.23a.9.9,0,0,0,.2-.19c-.08-.19-.38-.13-.72-.2l.13-.08c0-.18-.14-.26-.16-.4-.14.07-.16,0-.31.18.22-.42,0-.48-.18-.54s-.43-.14-.19-.47c0,0,.16,0,.15,0l-.26-.17c-.22.14-.12.1-.28.25s-.3,0-.34-.05c.22.05.38-.19.49-.3a2.4,2.4,0,0,1-.23.11c.37-.34-.5.2-.29-.13l.13,0c-.1,0-.3,0-.29-.14.27-.14.16,0,.4-.06-.06-.09-.63,0-.38-.23.1,0,.13.09.22.11.31-.23.22-.21.25-.3h0a2.29,2.29,0,0,1,.1-.23l-.08.07c-.81.09-.22-.23-.77-.31.52.09.29,0,.63-.09.09-.06.18-.15.28-.15-.29,0,.19-.17-.23-.22.11,0,0-.1.28-.11-.1-.09-.19,0-.33.06-.41-.15.43-.42-.1-.65-.2-.22-.59-.29-.75-.54a.55.55,0,0,1,.4.11c.18-.1.17-.18.06-.31a.58.58,0,0,0,.3,0c0-.08-.39-.13-.2-.21s.31.12.42.18a4.09,4.09,0,0,1-.33-.38c.2,0,.27.14.39.21a.77.77,0,0,0-.37-.46l-.13,0c0-.05.26.07.3.11.2.16-.15.1-.25.07l-.05-.09c-.66-.11,0,.34,0,.46l-.46-.16.36.24c-.12,0-.39,0-.45-.1-.25.08.15.13-.13.2a.15.15,0,0,1-.08,0l.13.14c-.1,0-.34,0-.26-.09-.31.21.33.39,0,.46l0,0c.15.31.35,0,.76.26-.29.05-.57.1-.86.17l.35,0s0,.09-.18.09c.25.1.15,0,.38,0-.3.18.19.38-.36.49.27,0,.19-.17.39,0-.58.14.14.16-.11.34-.31,0-.18-.14-.42,0,.52,0-.06.3.08.4.4-.1.23.21.43.36-.14,0-.1.43-.15.66l-.07,0c.41-.14.4.07.55.15a.73.73,0,0,1-.47.11l.07.12a.37.37,0,0,1,.3,0l-.3.12c.1.16.51.13.45.44.25-.15.6-.58.88-.5-.13.09-.35.25-.44.23s.15,0,.12.06l-.28.07c0,.15.22-.08.24,0-.19.13-.1.14-.25.23s0-.11-.06-.09a.58.58,0,0,1-.14.41c.1-.08.25-.18.31-.14s-.19.21-.21.37c.15-.06.1.13.37-.08,0,0-.09.15-.14.23.17,0,.32.3.52,0v0h0c.44,0,.3.57.63.66l-.07.08c.22,0,.35.19.6.06,0,0,0,.24-.12.34.16,0,.23-.09.3.17-.23.09-.06.17-.2,0,.09.17,0,.35.36.19-.21.22-.07.39.05.35v-.24a.33.33,0,0,1,.23.14l-.23.31c.13.61,1-.4.87.42.2-.21-.1-.26.1-.51.13.11.08.69.13.71.15.29.41-.44.58-.22,0-.14.12-.49.32-.56.13.1,0,.61-.13.68s-.05,0,0-.1-.16.07-.14.23l.06-.12c0,.16.26.22.14.41.16-.08.12-.19.05-.29.15.25.32.1.5.29,0-.08,0-.24,0-.23.26.24.2-.22.42-.22.07.23-.16.47.09.35.1.17-.05.36-.13.46.25-.22.33.25.44.32l-.13.09a.21.21,0,0,1,.18,0V41c.05.06.1.07.08.18.09-.16,0-.46.2-.67.06.15.27-.11.24.26-.24-.17,0,.36-.27.38.06,0,.11,0,.16,0a.1.1,0,0,1,0,.09c.19.37.18-.38.43-.33-.06.19,0,.39.05.35-.1,0,0-.34.12-.48.14.17.19-.1.27-.07l-.09-.09c.06-.2.13-.16.25-.21,0,.16-.11.1-.08.17.16-.34.24.4.43.18.07.15,0,.38,0,.48.22-.24.19.3.41.1,0-.28-.05-.21.11-.47l-.35.17.25-.39c-.1,0-.23.16-.28.11.12-.22.1-.15.07-.38.1.42.29-.22.42.07l-.05.68c.23.31.45-.32.75-.15l-.1-.12c.05-.27.19,0,.3-.14a.86.86,0,0,0,.09.46c0-.17.23,0,.26-.44l.13.3c.26.12.28-.65.52-.58-.07.25.05.41-.11.59.08,0,.15,0,.15-.12.05.15.21-.31.29-.1,0-.1,0-.34.12-.32a.59.59,0,0,1,0,.11c0-.11.13-.16,0-.41.28.7.66-.09.93.49a2.31,2.31,0,0,1,.52-.22c0,.07,0,.11,0,.09.24.19.05-.66.32-.46s-.1.22,0,.34c.14.74.28-.14.51.27l0,.05c.17.23.26-.33.48-.31a.34.34,0,0,0,0,.11,1.09,1.09,0,0,1,.47-.72c0,.3-.05.17,0,.45.07-.06-.13-.46,0-.58a1.82,1.82,0,0,1,.33.56l-.16.06c.17.38.21-.06.31,0l0,.18c.24-.12.14-.56.41-.59l-.06-.13c0-.47.19.21.25-.15l.16.43a3.59,3.59,0,0,1,.43-.67,1.35,1.35,0,0,1-.29.83c.13,0,.48-.19.44-.41,0,.06-.06.18-.14.13,0-.38.1-.58.32-.65.24.38.44.35.65.28a.89.89,0,0,1,.78,0c.12-.48.92-.54,1.17-1.06-.8,0,.07-.14-.68-.29,0-.1.05-.14.1-.13a3.38,3.38,0,0,0,.58-.25c.24-.06.12.13.29.14.15-.26.35-.08.58-.26-.27,0-.33-.12-.22-.29a2.26,2.26,0,0,1-.37.22c-.3-.37.66-.35.28-.75l.23.11c-.12-.2-.12-.84-.77-.85.07-.05.23-.16.32-.09-.06-.25-.35-.43-.62-.56s-.53-.2-.53-.41l.18-.09c-.11,0-.4.12-.35-.05s.18-.1.15-.13-.46.1-.49,0l.25-.1c-.3-.42-1.09.09-1.51.15.28-.47-.11-.69-.33-.81l0-.07a1.57,1.57,0,0,0-.94.13,4.81,4.81,0,0,1-.55.37c-.2-.57-.78-.28-1.14-.6a.56.56,0,0,1-.09.44c-.09-.11-.26.34-.23-.12h0c-.05-.46-.23-.35-.38-.36l0,.61c-.36-.9-1,.31-1.17-.48-.09.15-.2.15-.28.3V34a1,1,0,0,0-.68,0l.06-.23c-.18,0-.2.95-.35,1l-.07-.48c-.29,0-.62-.4-.89.06,0-.07,0-.21,0-.24-.14,0-.57-.29-.47.37,0-.43-.32,0-.44.18v-.32c-.09.42-.09.53-.25.65,0,0,0-.26,0-.18-.12-.16-.1.31-.24.14l.06-.21c-.12,0-.11.09-.19.32s-.19-.11-.12-.39c0,.17-.17.39-.2.29a.63.63,0,0,1,.09-.2c0-.23-.38.26-.3-.08a1,1,0,0,0,.1-.16c.07.06.14.1.12.12a4.55,4.55,0,0,1,.33-.69c-.09.21-.46.57-.42.4l.06-.08,0,0s0,0-.06,0,.05-.08,0-.09c.18-.17.08-.12.08-.15-.27.19-.26.11-.46.29h.07l.08.07c-.14.09-.28.13-.16,0l-.48.23a8,8,0,0,1,.7-.75c-.26-.11-.42-.51-1-.33-.1,0,.11-.16.17-.24s.1.06.19,0c-.22,0-.3-.36-.68-.15.05-.26.39-.13.18-.31l.13,0c.12-.42-.24-.44-.56-.45s-.63,0-.51-.53a.31.31,0,0,1-.06.16c-.19-.76-1.19-.64-1.34-1.49-.09-.21-.26,0-.46.12l.15-.32-.37.24c-.36.13,0-1-.56-.64l-.06.23c-.09-.1-.41,0-.28-.28,0,0-.13.21-.13.08l.07-.17-.39.17c-.17-.2.3-.66,0-.82-.15,0-.52.39-.51.52s.09.15,0,.32l-.14.06a2.94,2.94,0,0,0-.31,1.44l.26-.26,0,.26-.12,0c0,.25.1.06.2-.05a.7.7,0,0,0,0,.29l.33-.42c-.06.2-.22.36-.17.5.16-.19.11-.46.29-.56,0,.26-.13.43,0,.28a.47.47,0,0,1-.16.24c.14-.11.21,0,.38-.21-.07.3.27.05,0,.5.07-.1.31-.29.38-.27-.42.46.22.17-.15.71.36-.41.41,0,.72-.17,0,0-.1.09-.09.06s0,.24,0,.36c.28-.35.46-.34.71-.5-.18.41-.4.36-.63.71.23-.29.39-.15.56-.41a1.27,1.27,0,0,1-.24.46c.38-.41.13,0,.41-.22-.09.29-.33.41-.11.38A.49.49,0,0,1,16.32,33.27Zm3.06,2.55h0l-.1-.08Zm.4.29L19.61,36c.05-.1.13-.18.17-.15S19.77,36,19.78,36.11Zm1-2.08s0,0-.06.07h0l0,0Z"/><path class="cls-2" d="M20.44,34.25h0l-.05.05.08-.05Z"/><path class="cls-2" d="M14.52,37.56h0l0,0Z"/><polygon class="cls-2" points="24.86 36.95 24.86 36.87 24.83 36.94 24.86 36.95"/><path class="cls-2" d="M14.4,35.42a.18.18,0,0,0,.07-.05Z"/><path class="cls-2" d="M14.21,34.73l.07-.13A.23.23,0,0,0,14.21,34.73Z"/><path class="cls-2" d="M14.22,34.16l-.14,0h0Z"/><path class="cls-2" d="M20.9,38.62h0C21,38.56,20.94,38.58,20.9,38.62Z"/><path class="cls-2" d="M18.07,38.72l.13-.11S18.13,38.55,18.07,38.72Z"/><polygon class="cls-2" points="23.94 38.36 23.94 38.36 23.96 38.36 23.94 38.36"/><path class="cls-2" d="M18.32,38.66c0-.08-.07-.08-.12,0S18.27,38.69,18.32,38.66Z"/><path class="cls-2" d="M14.44,32l0,0-.05,0Z"/><path class="cls-2" d="M14.41,32l0,0S14.38,32,14.41,32Z"/><path class="cls-2" d="M14.33,31.87l.06.08S14.41,31.91,14.33,31.87Z"/><path class="cls-2" d="M14.15,32.62l.11,0Z"/><path class="cls-2" d="M14.16,32.82s.26-.09.2-.16l-.1,0C14.43,32.69,14,32.75,14.16,32.82Z"/><path class="cls-2" d="M12.73,33.84l.07-.23c-.12,0-.28.11-.33,0C12.13,34,12.75,33.54,12.73,33.84Z"/><path class="cls-2" d="M12.67,34.58c-.09-.11-.18,0-.25.05C12.55,34.69,12.58,34.7,12.67,34.58Z"/><path class="cls-2" d="M15.55,38.79l-.18.24C15.48,39.05,15.44,38.93,15.55,38.79Z"/><polygon class="cls-2" points="17.11 37.97 17.13 37.77 16.97 37.99 17.11 37.97"/><polygon class="cls-2" points="16.65 40.09 16.59 40.11 16.79 40.08 16.65 40.09"/><path class="cls-2" d="M25,41.14,25,40.78C24.9,40.85,24.92,41.26,25,41.14Z"/><path class="cls-2" d="M28.46,40.18c.09.17.21.26.23.07C28.6,40.24,28.49,40.13,28.46,40.18Z"/><polygon class="cls-2" points="25.78 34.05 25.85 33.92 25.72 34.02 25.78 34.05"/><path class="cls-2" d="M47.91,16.38A2.94,2.94,0,0,1,51.43,16a5.31,5.31,0,0,1,2.26,3.06,6.77,6.77,0,0,1-1.13,6.55,4.36,4.36,0,0,1-6.06.44A6.31,6.31,0,0,1,45,22.79a8,8,0,0,1,0-3.95,3.83,3.83,0,0,1,2.59-2.7"/><path class="cls-2" d="M47.74,16.89c0-.1-.07-.32-.1-.27l.07.38Z"/><path class="cls-2" d="M47.27,16.29a2.23,2.23,0,0,0,.24.83c-.09-.36,0-.21-.13-.65,0,0,.11.1.14.23,0-.09.09.07,0-.17s-.22-.26-.2,0A.78.78,0,0,1,47.27,16.29Z"/><path class="cls-2" d="M44.22,19.84l.05,0A.06.06,0,0,0,44.22,19.84Z"/><path class="cls-2" d="M44.22,22.93s0,0-.09,0A.14.14,0,0,0,44.22,22.93Z"/><path class="cls-2" d="M43.93,23.55l0,0S43.9,23.55,43.93,23.55Z"/><path class="cls-2" d="M44.22,19.84l-.13.08C44.21,19.93,44.19,19.88,44.22,19.84Z"/><path class="cls-2" d="M47.19,17.35a.44.44,0,0,0,0-.1s0,0,0,0Z"/><path class="cls-2" d="M44.23,18.38v0l-.14-.07Z"/><path class="cls-2" d="M44.68,17.3s.25.19.36.28c-.1-.08-.15-.13-.16-.17Z"/><path class="cls-2" d="M46.3,16.37v0Z"/><path class="cls-2" d="M43.94,19.15h0Z"/><path class="cls-2" d="M49.37,17.21l0-.05Z"/><polygon class="cls-2" points="47.85 16.32 47.85 16.3 47.72 16.17 47.85 16.32"/><path class="cls-2" d="M43.83,24.66h0C43.79,24.64,43.8,24.66,43.83,24.66Z"/><path class="cls-2" d="M52.85,27.18c-.27-.15-.08-.41-.41-.55C52.53,26.71,52.62,27.13,52.85,27.18Z"/><path class="cls-2" d="M47.15,17.32a0,0,0,0,1,0,0S47.16,17.34,47.15,17.32Z"/><path class="cls-2" d="M52.44,26.63h0l0,0Z"/><path class="cls-2" d="M45.33,26.86a.94.94,0,0,0,.09-.12Z"/><path class="cls-2" d="M44.68,25l0,.06A.15.15,0,0,0,44.68,25Z"/><path class="cls-2" d="M46.44,27.21s0,.08,0,.07l0,0S46.43,27.27,46.44,27.21Z"/><path class="cls-2" d="M47.37,27.7v-.07h0Z"/><path class="cls-2" d="M50.7,17.19l.11-.27C50.72,17.13,50.62,17.17,50.7,17.19Z"/><path class="cls-2" d="M47.1,17.19a.3.3,0,0,1,0,.13,0,0,0,0,0,0,0Z"/><path class="cls-2" d="M47.9,25.12l0,.08S47.92,25.13,47.9,25.12Z"/><path class="cls-2" d="M52.73,21.14l0,0S52.69,21.13,52.73,21.14Z"/><path class="cls-2" d="M48.15,25.26a1.55,1.55,0,0,0-.06.22l0-.07Z"/><path class="cls-2" d="M50.82,16.91h0Z"/><path class="cls-2" d="M50.11,17.48c.06,0,.12-.4.18-.64s0,.32-.06.54c.07-.11.23-.46.27-.43a.88.88,0,0,1-.06.17c.18-.3.16,0,.41-.31l0,.1a4.25,4.25,0,0,1,.25-.52s.2-.2.09.05c0,0-.08.08-.13.15l.1-.08c-.16.37-.13.09-.26.35.12-.08.39-.3.4-.17-.2.34-.21,0-.32.37v-.18c-.25.57,0-.06-.3.54,0,.15.21-.11.23,0,.15-.16.18-.26.33-.42.41-.19-.49.85-.07.53.19-.18.55-.53.44-.26l-.33.29c0,.12.5-.4.39-.09-.15.1-.18,0-.2.08-.2.3.22-.13.27-.08l-.28.28c.13.05.45,0,.61.1a.86.86,0,0,0-.29.21c.27.05.19.39.07.66l.34-.08s-.13.09-.19.11.19-.09.33-.12-.15.14-.26.16c.32,0,.74.14.45.41h-.1c-.09.15.7-.1.44.11h-.07c-.06.29.32.51-.14.81.48-.05-.17.29.5.19-.3.21-.43.18-.64.41,0,0,.43,0,.51.1l-.35,0L53,21l-.42.07.09.06a.61.61,0,0,1,.26-.06c.16.09-.23.26-.42.26l.3.23a.85.85,0,0,1-.28-.08c.36.13-.38,0,0,.13a2.46,2.46,0,0,1,.28,0c-.21.06-.23.18-.14.28l-.25,0c-.06.16.09.36.06.54a1,1,0,0,1,.57.1l-.38,0c.22.08.15,0,.42.09-.06.07-.43,0-.54-.09l.11.11-.31-.08c.22.08-.39.06,0,.19l-.11,0c-.05.17.07.29,0,.43.3.1.22.13.45.26-.13.09-.42.1-.44.23s.24.14.4.26c-.27-.11-.31,0-.47-.14,0,.16,0,.21.08.5a.82.82,0,0,1,.25.11c0,.06-.15,0-.27-.07l0,0c.13.22-.13.22-.36.2s-.42-.05-.24.22l0,0a2.42,2.42,0,0,1,.12.35c-.09,0-.12-.19-.3-.27.22.47-.24.13-.14.47-.6-.62-.31.29-.73-.11l.1.17c.06.2-.09-.08-.14-.11.08.14.12.15.15.26-.21.39-.78,0-1.08-.15-.11,0,.07,1.06-.15.59v-.38c-.22.47-.48,0-.75.35,0-.09,0-.2.07-.2,0-.28-.17,0-.22.18,0,0,0-.2,0-.32s-.21.31-.16,0a.46.46,0,0,1,0-.1c-.06.13-.11-.07-.19.24,0-.17-.21.08-.2-.13-.19.3,0-.22-.29.23.24-.46.08-.43-.1-.27.1-.12.06-.16.19-.33,0,0-.14,0-.3.25.32-.55-.51.22,0-.4a1.3,1.3,0,0,1-.82-.07c.43-.29.17.15.6-.19-.26,0-.7.15-.7-.09,0-.08.21-.08.3-.12-.28,0-.13-.33-.46-.38a.34.34,0,0,1,.14,0s0-.11-.17,0h.07a2.45,2.45,0,0,1-.89.19c.65-.19.08-.24.92-.46a.83.83,0,0,0-.31.07c0-.05.11-.09.29-.12-.16-.08-.38.05-.42-.07a2.11,2.11,0,0,1,.29-.06c-.23,0-.46,0-.4-.11s.15-.05.15,0c-.08-.16-.66-.14-.5-.41.49-.06.14-.1.55-.22l-.15-.07-.19.09c0-.1-.34-.12-.22-.23l.19,0-.12-.16-.14.14c-.23-.06-.53.12-.44,0,.05,0,0-.11.23-.2h0c-.15,0-.3-.06-.21-.15s.48-.07.56-.09c-.36,0-.13-.21-.52-.22a1.23,1.23,0,0,0,.36,0h-.3a.54.54,0,0,1,.31-.09c0-.14-.53.12-.32-.07,0,0,.07,0,.12,0,.1-.17-.23-.29-.1-.46.43-.08.12.12.48,0-.1-.2-.55-.41-.45-.62l-.05,0c-.61,0,.3-.16,0-.26a1.26,1.26,0,0,0,.27,0c.1-.14-.15-.28-.32-.52l.16,0c.15-.06.1-.2.18-.28-.15,0-.11-.09-.35-.09.47-.07.37-.2.27-.36s-.23-.32.16-.32c0,0,.12.1.12.08l-.08-.23a1.05,1.05,0,0,0-.37-.05c-.14-.08-.23-.18-.21-.23.13.15.4.14.55.16-.08,0-.16-.07-.23-.09.48.07-.5-.22-.14-.25l.12.07c0-.08-.18-.21-.12-.25.29.11.1.12.33.23,0-.08-.45-.42-.13-.35,0,.08,0,.12.09.19.36.09.28.05.36,0h0l.21,0-.11,0c-.63-.5,0-.25-.37-.66.33.4.22.18.5.39a.69.69,0,0,1,.29.12c-.19-.22.23.06-.05-.26.09.07.05,0,.26.15,0-.11-.16-.11-.27-.2-.2-.36.52.11.27-.37,0-.26-.25-.57-.23-.83a.71.71,0,0,1,.21.35c.16.08.19,0,.19-.12a1.19,1.19,0,0,0,.18.25c0-.06-.18-.37,0-.27l.19.42a2.37,2.37,0,0,1,0-.46,1.81,1.81,0,0,1,.14.41.9.9,0,0,0,0-.54l-.09-.08s.12.24.13.3c0,.25-.14-.06-.19-.16v-.08c-.34-.57-.15.2-.25.21l-.21-.43c0,.13.07.27.11.4-.09-.09-.25-.3-.24-.4-.21-.14,0,.19-.19,0,0,0,0-.05,0-.07v.17c-.05-.09-.22-.26-.13-.24-.32-.11,0,.45-.27.21v0c-.07.28.21.28.38.69-.22-.19-.45-.36-.69-.54l.24.27s-.08,0-.18-.08c.12.22.12.09.26.28-.32-.13-.08.32-.53,0,.18.2.22,0,.3.25-.5-.34,0,.17-.28.09s0-.2-.33-.27c.39.36-.22.11-.19.25.36.23,0,.26.1.46-.12-.07-.33.15-.53.23l-.06,0c.38.19.25.29.29.42a.83.83,0,0,1-.4-.24l0,.1c.12.07.18.13.2.2l-.29-.12c0,.14.27.37,0,.48.29.08.83.09,1,.29a1.36,1.36,0,0,1-.47-.15s.11.08,0,.1L44.48,19c-.14,0,.2.09.17.14-.22-.05-.17,0-.35,0,0,0,.11,0,0-.08a.6.6,0,0,1-.39.11c.13,0,.3.06.32.12s-.27,0-.4.05c.15.06,0,.12.31.17,0,0-.17,0-.26,0,.13.09,0,.33.37.29h0c.31.25-.24.43-.1.66h-.11c.12.13.07.29.32.37,0,0-.21.1-.34.09.09.09.21.1,0,.25-.2-.09-.17,0-.15-.1-.09.14-.27.18.05.3-.29,0-.36.13-.26.18l.2-.11c0,.07,0,.13,0,.19h-.39c-.43.33.84.38.1.69.28,0,.17-.18.49-.16,0,.12-.56.34-.55.38-.18.2.58.05.47.25a1,1,0,0,1,.63,0c0,.13-.53.26-.65.21s0,0,.06,0a.22.22,0,0,0-.26,0l.14,0c-.12.09-.07.25-.3.26a.2.2,0,0,0,.28-.09c-.16.2,0,.24,0,.43.06-.05.21-.11.22-.08-.11.27.28,0,.37.17-.17.14-.49.1-.27.21-.11.14-.35.12-.47.11.3.08-.08.33-.1.43l-.13,0a.13.13,0,0,1,.1.11l.25-.13c0,.06,0,.1-.13.13.19,0,.42-.18.69-.16-.11.1.2.13-.14.27,0-.23-.33.15-.44,0q.08,0,0,.12a.12.12,0,0,1-.1,0c-.23.31.42-.05.49.14-.21.05-.35.19-.29.21s.3-.17.47-.16c-.09.18.16.08.18.15l0-.1c.2-.06.2,0,.3.06-.14.07-.14,0-.19,0,.37-.07-.24.37,0,.39-.1.12-.34.18-.4.28.32,0-.15.3.14.35.2-.19.14-.16.43-.2l-.31-.14.44-.05c0-.07-.24-.06-.22-.13.23,0,.17,0,.35-.16-.31.31.31.06.14.31l-.58.37c-.13.35.5.11.53.42l0-.15c.23-.14.13.11.27.1a1,1,0,0,0-.28.36c.12-.11.13.17.47-.13l-.12.29c.1.25.63-.31.72-.13-.2.16-.22.35-.45.39.06.05.09.13.18,0,0,.14.35-.14.28.08.08-.07.21-.26.26-.21a.24.24,0,0,1-.06.1c.07-.1.18-.07.26-.32-.18.72.49.21.42.82a4.13,4.13,0,0,1,.49,0c0,.07,0,.11,0,.08.12.26.27-.6.4-.32s-.15.16-.12.32c-.12.74.27-.06.34.4l0,0c.08.28.31-.24.47-.18a1,1,0,0,0,0,.11,1.3,1.3,0,0,1,.51-.61c0,.3-.07.16,0,.46.07-.05,0-.48.1-.57a2.39,2.39,0,0,1,.2.61l-.14,0c.11.41.19,0,.27,0v.18c.22-.09.15-.53.38-.54l0-.13c0-.46.15.23.2-.13l.14.44a4.09,4.09,0,0,1,.26-.62,1.72,1.72,0,0,1-.15.78.3.3,0,0,0,.25-.34c0,.05,0,.17-.08.12,0-.38.06-.58.2-.62.29.83.46.05.86.61.13-.42.62-.17.91-.44-.51-.48.08-.08-.36-.63,0-.09.06-.1.09-.06l.46.17c.18.11,0,.17.15.28.18-.08.25.18.48.23-.19-.17-.19-.32,0-.33l-.34-.12c-.07-.46.59.25.52-.21l.1.22c0-.19.36-.41,0-.86.08,0,.25.13.26.21.28-.23-.09-.92.32-.95l.13.11c0-.08-.23-.24,0-.23s.14.11.16.09-.2-.28-.07-.3l.14.14c.35-.18-.23-.63-.25-.88a.73.73,0,0,0,.82-.08l.07,0c.18-.34-.23-.71-.36-1,.58-.08.34-.61.68-.9a.67.67,0,0,1-.45-.1c.11-.06-.33-.22.13-.18v0c.46,0,.35-.2.36-.32l-.61,0c.9-.32-.34-.77.43-1-.16-.07-.16-.16-.32-.21l.32,0a.64.64,0,0,0,0-.57h.24c0-.16-.95,0-1-.13l.47-.14c-.06-.23.28-.6-.21-.72.07,0,.2-.05.23,0,0-.12.17-.56-.45-.29.41-.15-.05-.27-.27-.31l.3-.1c-.42.05-.53.09-.69,0,0-.05.22-.14.17-.06.1-.18-.32,0-.22-.16l.2,0c0-.13-.12-.07-.37,0s0-.24.21-.4c-.16.07-.4.12-.36,0a.53.53,0,0,1,.2-.08c.07-.3-.48-.07-.29-.36a.61.61,0,0,0,.14-.13c.09.15.15.28.12.28.25-.15.22-.31.63-.42-.25,0-.77.11-.73-.08l.07-.07h0s0,0-.1,0,0-.12,0-.15c.19-.17,0-.22,0-.29-.24.21-.26.11-.41.34,0,0,0,0,.07,0h.05l0,0a.47.47,0,0,1,.13.12c-.17,0-.31.1-.22-.07l-.46.25c.3-.35.35-.66.53-.87-.28,0-.48-.31-1,.07-.09,0,.06-.17.1-.26s.1,0,.17-.05c-.2,0-.34-.19-.61.15,0-.25.3-.27.08-.34l.1-.09c0-.41-.32-.28-.59-.14s-.49.29-.58-.2a.42.42,0,0,1,0,.16.74.74,0,0,0-.78-.21.91.91,0,0,1-.83-.22c-.17-.1-.16.17-.21.38l-.1-.33c0,.14,0,.28-.07.42-.1.33-.64-.71-.73-.07l.13.2c-.12,0-.22.26-.34,0,0,0,.09.23,0,.15l-.1-.16c0,.14,0,.27,0,.4-.23,0-.39-.61-.68-.43a.83.83,0,0,0,.24.67s.15,0,.28.14v.13a7.26,7.26,0,0,0,1.08,1,2.91,2.91,0,0,1-.17-.3l.18.19,0,.05c.18.16.06,0,0-.14a2.79,2.79,0,0,0,.2.22,5.06,5.06,0,0,1-.24-.46,3.59,3.59,0,0,0,.3.44c-.1-.22-.28-.38-.31-.55.16.19.24.37.18.17a1.3,1.3,0,0,1,.12.26c0-.16,0-.1-.06-.37.15.26.1-.12.27.36a.83.83,0,0,1,0-.43c.1.6.14,0,.26.64-.07-.55.1-.27.16-.57,0,0,0,.13,0,.1a1,1,0,0,1,.1.31,2.37,2.37,0,0,1,.15-.83,7.32,7.32,0,0,1-.07.95c0-.37.12-.36.13-.66a1.63,1.63,0,0,1,0,.51c.08-.56.05-.1.15-.43,0,.29-.08.53,0,.37A.92.92,0,0,1,50.11,17.48Zm2,.36h0l0,0Zm.12.17a.12.12,0,0,0,0-.08c.09-.07.19-.13.2-.11S52.31,17.93,52.25,18Zm1.51-1.75c.07,0,0,.07,0,.11a.29.29,0,0,0-.08,0l0,0Z"/><path class="cls-2" d="M53.37,16.46h0l0,.07.09-.05Z"/><path class="cls-2" d="M44.28,19.81h0Z"/><polygon class="cls-2" points="52.56 20.92 52.64 20.91 52.57 20.9 52.56 20.92"/><path class="cls-2" d="M45.66,18.76l.08,0Z"/><path class="cls-2" d="M45.94,18.33h0Z"/><path class="cls-2" d="M46.27,18.09,46.16,18h0Z"/><path class="cls-2" d="M46.64,24.09h0C46.73,24.1,46.7,24.09,46.64,24.09Z"/><path class="cls-2" d="M45.38,22.44l.16,0S45.56,22.4,45.38,22.44Z"/><polygon class="cls-2" points="47.9 25.11 47.89 25.11 47.9 25.12 47.9 25.11"/><path class="cls-2" d="M45.55,22.57c.06-.05,0-.08,0-.1S45.5,22.55,45.55,22.57Z"/><path class="cls-2" d="M47.45,17.24h0l0-.05Z"/><path class="cls-2" d="M47.45,17.2v0S47.44,17.17,47.45,17.2Z"/><path class="cls-2" d="M47.45,17.07v.09S47.48,17.16,47.45,17.07Z"/><path class="cls-2" d="M47,17.33l.06.1Z"/><path class="cls-2" d="M46.92,17.44s.21.15.2.06l0-.07C47.16,17.57,46.82,17.26,46.92,17.44Z"/><path class="cls-2" d="M45.39,16.91l.18-.07c-.11-.06-.26-.14-.23-.22C44.91,16.54,45.58,16.77,45.39,16.91Z"/><path class="cls-2" d="M44.91,17.24c0-.11-.15-.1-.2-.14S44.78,17.24,44.91,17.24Z"/><path class="cls-2" d="M44,21h-.29C43.72,21,43.79,21,44,21Z"/><polygon class="cls-2" points="45.54 21.52 45.72 21.44 45.45 21.44 45.54 21.52"/><polygon class="cls-2" points="43.51 22.17 43.46 22.15 43.58 22.25 43.51 22.17"/><path class="cls-2" d="M47.08,27.9l.12-.34C47.13,27.59,47,28,47.08,27.9Z"/><path class="cls-2" d="M50.17,27.86c.06.17.17.26.19.08C50.29,27.93,50.19,27.8,50.17,27.86Z"/><polygon class="cls-2" points="55.49 21.46 55.61 21.52 55.51 21.41 55.49 21.46"/><path class="cls-2" d="M55.33,52.32a38,38,0,0,1,0-8.72,23.15,23.15,0,0,0-.66-8.67c-.9-2.76-3-5.28-5.71-5.9a2.64,2.64,0,0,0-2.34.36,3.55,3.55,0,0,0-.76,1.1,45.21,45.21,0,0,0-4.79,18.88,3.5,3.5,0,0,0,.39,2.08,3.19,3.19,0,0,0,2.07,1.11,26.53,26.53,0,0,0,11.46,0"/><path class="cls-2" d="M55.14,53.3c0-.11-.06-.32-.14-.26v.39Z"/><path class="cls-2" d="M54.36,52.74a1.17,1.17,0,0,0,0,.87,6.39,6.39,0,0,0,.14-.69c.08-.06.19.09.2.23,0-.1.16.05.16-.19-.18-.27-.33-.25-.45,0A.45.45,0,0,1,54.36,52.74Z"/><path class="cls-2" d="M45.17,52.33l.06.05A.1.1,0,0,0,45.17,52.33Z"/><path class="cls-2" d="M41.79,49.77a.08.08,0,0,0,.08.06S41.82,49.76,41.79,49.77Z"/><path class="cls-2" d="M42.24,48.84l0,.06S42.27,48.86,42.24,48.84Z"/><path class="cls-2" d="M45.17,52.33l-.12-.14C45,52.31,45.11,52.29,45.17,52.33Z"/><path class="cls-2" d="M53.22,53.86a.19.19,0,0,0,.08-.11l-.08,0Z"/><path class="cls-2" d="M47.67,52.29h0s0-.1,0-.15Z"/><path class="cls-2" d="M49.55,52.27s0,.31-.06.45c0-.13,0-.19.09-.22A1.2,1.2,0,0,0,49.55,52.27Z"/><path class="cls-2" d="M52.61,52.63l0-.06Z"/><path class="cls-2" d="M46.33,52.1V52A.24.24,0,0,0,46.33,52.1Z"/><path class="cls-2" d="M56.61,50h0Z"/><polygon class="cls-2" points="55.25 52.33 55.23 52.3 55.05 52.33 55.25 52.33"/><path class="cls-2" d="M42.76,47.13h0S42.79,47.16,42.76,47.13Z"/><path class="cls-2" d="M46.74,31.72c-.34,0-.21-.43-.62-.32C46.25,31.43,46.47,31.84,46.74,31.72Z"/><path class="cls-2" d="M53.17,53.83l-.08,0A.11.11,0,0,0,53.17,53.83Z"/><path class="cls-2" d="M46.12,31.4Z"/><path class="cls-2" d="M43.09,43.12l-.14,0A.45.45,0,0,0,43.09,43.12Z"/><path class="cls-2" d="M42.21,46l0-.07A.23.23,0,0,0,42.21,46Z"/><path class="cls-2" d="M43,41.5s.07,0,0-.1h0S43,41.46,43,41.5Z"/><path class="cls-2" d="M43.31,39.9l-.07,0v0Z"/><path class="cls-2" d="M56.58,45.09a1.45,1.45,0,0,1-.3.06C56.52,45.14,56.58,45.39,56.58,45.09Z"/><path class="cls-2" d="M53.2,53.68c0,.09,0,.13,0,.15l0,0A.43.43,0,0,0,53.2,53.68Z"/><path class="cls-2" d="M40.46,40.89l.1-.25A.82.82,0,0,0,40.46,40.89Z"/><path class="cls-2" d="M55.1,32.63l.07,0A.05.05,0,0,0,55.1,32.63Z"/><path class="cls-2" d="M40.7,39.83a.49.49,0,0,0,.26-.1l-.08,0Z"/><path class="cls-2" d="M56.28,45.15Z"/><path class="cls-2" d="M57,46.91c0-.24-.41-.14-.65-.2-.11-.3.32-.12.54-.21-.1-.19-.49-.35-.46-.49a.28.28,0,0,1,.18,0c-.32-.21,0-.58-.39-.84l.11,0a2.73,2.73,0,0,1-.58,0c0-.11-.26-.22,0-.25,0,.07.1.08.18.12l-.11-.12c.41-.08.13.17.43.19-.12-.24-.43-.53-.31-.7.4,0,.11.42.47.21l-.17.26c.63-.17-.05.16.62,0,.14-.36-.17-.42,0-.78-.22-.09-.33,0-.54-.09-.36-.53,1-.34.51-.75-.25-.12-.75-.18-.47-.44l.44.11c.06-.35-.63-.23-.31-.59.17.07.13.29.19.24.36-.23-.25-.19-.24-.37l.4,0c-.05-.39-.32-.82-.39-1.25.12,0,.24.1.36,0A2.65,2.65,0,0,1,57,39.23l-.34-.18s.14-.1.21,0c.12-.22-.21,0-.35-.09s.18-.17.29-.1c-.31-.35-.7-1-.39-1.41l.11.07c.09-.33-.74-.24-.47-.56l.07,0c0-.68-.43-1.3-.07-1.93-.5,0,0-.71-.66-.53.19-.47.35-.42.34-1,0-.15-.47,0-.61-.17l.32-.15L55,33.09l.33-.31-.16-.11a.31.31,0,0,1-.17.24c-.27-.16-.09-.69.06-.79-.2-.13-.39-.27-.6-.39.13-.07.23,0,.35,0-.49-.09.28-.26-.17-.34,0,.08-.19.1-.25.14a.68.68,0,0,0-.36-.71l.22-.11a6.13,6.13,0,0,0-1.16-1.1c.07.22-.26.49-.4.42l.21-.32c-.23.1,0,.21-.32.28-.12-.16.18-.41.35-.42l-.27-.07c.06-.09.15-.1.25-.19-.22.1-.11-.58-.48-.36l.06-.1a6.26,6.26,0,0,0-1.18-.6c-.17.29-.29.13-.53.31a2.22,2.22,0,0,0-.91-.73c-.32.08-.16.24-.34.39.07-.29-.33-.37-.08-.52a2.36,2.36,0,0,0-1.36.1c.08.13.15.18.11.28s-.27-.13-.26-.27l0,0a1.84,1.84,0,0,1-1.09.1,1.86,1.86,0,0,0-1.28.33.68.68,0,0,0-.24.48v-.05a3.21,3.21,0,0,0-.15.75c-.18.21-.1-.27-.36-.18.09.82-.49.78-.4,1.33-.94-.07-.46,1.12-1.15,1.3l.2.06c.13.19-.17.08-.25.15.15,0,.22,0,.3.07-.17,1-1.08,1.78-1.6,2.71-.18.34.93.55.31.83l-.32-.25c.19.87-.51,1.48-.34,2.3-.07-.06-.18-.1-.16-.17-.31.08-.18.56,0,.62,0,.1-.2,0-.33,0s.24.47,0,.48c-.05,0-.08-.06-.09-.1.1.14-.16.46.18.44-.23.23,0,.55-.23.72.31.23-.28.43.2.59-.51-.14-.52.38-.32.6-.14-.09-.19.12-.39,0,0,.2,0,.4.3.42-.7.24.34.83-.48.88A11.48,11.48,0,0,1,40.58,44c-.52-.1,0-.59-.51-.66.14.54.52.89.34,1.37-.09.12-.21-.1-.3-.16.15.53-.17,1,.07,1.45a.23.23,0,0,1-.13-.11c0,.09-.1.2.14.21L40.13,46c.36-.1.68.42.86.45-.66-.21-.21.42-1,.11a.39.39,0,0,0,.3.15c0,.08-.15.1-.32,0,.1.33.36.24.34.53-.12,0-.16-.08-.29-.12.21.17.42.33.31.56-.07,0-.16,0-.15-.07,0,.42.54.74.31,1.18-.49-.15-.17.15-.6.16l.12.25.21-.09c0,.21.29.41.15.61l-.18-.18.08.44.16-.25c.23.23.55,0,.43.27,0-.06,0,.21-.24.36h0c.15.1.31.19.23.37s-.47.06-.55.11c.36,0,.26.61.7.59a.75.75,0,0,0-.35.13l.32,0c0,.15,0,.19-.22.26.18.37.38-.39.45.11,0,0-.06,0-.14,0,.2.47.74.48,1,.76-.09.45-.36-.07-.42.31.62.26,1.28,0,1.7.18l-.07-.07c.2-.57.27.37.56.14-.07,0-.14.32-.12.25.3.17.67,0,1.17-.13l-.08.15c.16.17.47.15.65.25.09-.14.19-.1.16-.34.5,1,1.21-.33,1.68.44-.06,0-.17.13-.11.14l.47-.12c0-.27-.05-.16-.13-.38a.41.41,0,0,1,.32-.26c-.22.17,0,.43.06.58a2.11,2.11,0,0,1,0-.25c.22.48.06-.53.38-.2l0,.14c.13-.07.25-.25.38-.21,0,.31-.14.15-.15.4.19,0,.38-.58.54-.27-.08.08-.19.08-.27.17.17.36.2.27.34.33h0l.32.17-.08-.1c.23-.81.48-.15.78-.69-.29.51,0,.29-.05.64.08.1.21.2.18.3.14-.29.26.21.46-.21,0,.11.16,0,.14.29.19-.11-.06-.2,0-.34.28-.4.75.42,1.14-.15.35-.25.38-.64.69-.87.14.17,0,.42,0,.42a.34.34,0,0,0,.5-.06c0,.1,0,.18.09.3.14,0,0-.42.25-.29a1.91,1.91,0,0,1-.07.47c.15-.13.28-.36.43-.49.08.19,0,.32-.09.45.18-.12.47-.26.47-.58L54,53c.07,0,.09.26,0,.33-.12.26-.25-.07-.28-.18l.11-.09c-.24-.62-.47.18-.72.18l0-.49-.19.44c-.07-.12-.15-.38,0-.47-.2-.21-.13.19-.31,0,0,0,0-.06,0-.08l-.15.16c0-.11-.07-.34,0-.28-.33-.24-.45.42-.6.07l0,0c-.4.21,0,.36-.28.8l-.29-.84v.35a.15.15,0,0,1-.13-.17c-.14.25,0,.15,0,.38-.23-.3-.57.19-.65-.37-.06.27.21.2,0,.39-.1-.6-.26.12-.46-.15,0-.31.23-.16,0-.43-.1.54-.37-.1-.52,0,0,.42-.35.18-.62.32,0-.14-.5-.24-.74-.4v-.07c-.06.42-.32.33-.51.41a.6.6,0,0,1,.17-.46h-.18a.33.33,0,0,1-.22.24l.06-.31c-.23,0-.49.34-.77.1-.05.29.17.84-.18,1,0-.16,0-.43.11-.49s-.11.13-.16.05l.16-.25c-.13-.13-.1.22-.21.18,0-.23-.06-.17,0-.35,0,0,.09.1.14,0a.52.52,0,0,1-.28-.38c0,.13,0,.3-.13.32s0-.28-.16-.41c-.08.15-.2,0-.25.31-.07,0-.06-.17-.07-.27-.14.13-.56,0-.48.34l0,0h0c-.45.27-.78-.33-1.19-.26l0-.12c-.26.08-.53,0-.74.17-.07,0-.1-.24,0-.36-.18,0-.25.15-.41-.1.22-.14,0-.18.2-.09-.16-.15-.12-.33-.43-.13.18-.24.05-.38,0-.34a1.92,1.92,0,0,0,0,.24.29.29,0,0,1-.21-.14l.25-.29c0-.26-.11-.13-.3-.11s-.36,0,0-.27c-.28,0-.12.2-.43.26,0-.18.48-.45.47-.48.18-.21-.58-.11-.46-.39-.13,0-.5.1-.63-.13,0-.22.57-.26.68-.13s0,.07-.08.07a.18.18,0,0,0,.26.06l-.14,0c.14-.09.13-.37.35-.3-.12-.16-.22-.07-.29,0,.2-.26,0-.43.16-.71-.07,0-.24.08-.23,0,.18-.42-.25-.2-.3-.49.21-.16.49.08.33-.22.15-.17.36,0,.47.06-.24-.27.21-.47.27-.62l.1.15a.33.33,0,0,1-.05-.22l-.28,0c.06-.07.06-.14.18-.13-.18-.1-.46,0-.69-.16.14-.09-.13-.34.24-.35-.15.33.36,0,.4.29a.18.18,0,0,1,0-.21.11.11,0,0,1,.09.05c.35-.3-.39-.19-.35-.52.2.06.39,0,.36-.1,0,.13-.35,0-.49-.11.18-.2-.1-.25-.07-.36l-.09.12c-.2-.06-.16-.17-.21-.33.16,0,.1.15.17.1-.34-.21.42-.33.21-.59.15-.1.38,0,.48-.05-.23-.29.32-.24.14-.54-.29,0-.22.06-.46-.17l.13.48-.36-.35c0,.14.14.31.08.39-.21-.17-.14-.14-.37-.11.43-.13-.2-.4.11-.58l.68.1c.35-.27-.26-.62,0-1l-.13.12c-.26-.1,0-.27-.08-.42a.86.86,0,0,0,.47,0c-.17,0,.07-.3-.37-.42l.33-.13c.18-.32-.57-.51-.42-.82.22.14.41,0,.53.28,0-.11.09-.19-.06-.23.15,0-.24-.36,0-.41-.09-.07-.32-.14-.27-.26a.3.3,0,0,1,.11,0c-.11,0-.11-.22-.38-.17.77-.18.17-.95.83-1.09a3.88,3.88,0,0,1,0-.77c.07,0,.11,0,.08.06.28-.23-.58-.35-.26-.62.4-.07.14.23.3.16.73.16,0-.42.51-.52l0,.06c.3-.09-.15-.49,0-.75a.29.29,0,0,0,.1,0,1.4,1.4,0,0,1-.32-1c.26.17.11.17.41.21,0-.13-.46-.12-.47-.38a1.27,1.27,0,0,1,.68-.07l-.06.23c.43,0,.09-.29.2-.39l.16.08c.07-.36-.36-.52-.2-.87h-.14c-.35-.35.29-.08.06-.39l.45.1a3,3,0,0,1-.22-.88A2.8,2.8,0,0,1,45,35c0-.13.13-.45,0-.6,0,.07.1.18,0,.2a.73.73,0,0,1-.24-.81c.8.38.49-.58,1.19-.5-.1-.57.52-.81.71-1.34-.71-.11.05-.15-.6-.42,0-.14,0-.18.1-.17l.55-.18c.23,0,.09.18.24.24.17-.23.32,0,.56-.05-.24-.08-.27-.26-.12-.34a2.58,2.58,0,0,0-.39,0c-.16-.51.67,0,.48-.42l.15.18c0-.14.08-.2,0-.34s-.08-.19-.14-.31a.88.88,0,0,1,.18.28c.06,0,0-.15.16-.3s.3-.23.42-.05l0,.17c.05-.05.13-.31.19-.13s0,.17,0,.18.21-.28.29-.15l-.11.17c.27.29.68-.31,1.07-.29a.83.83,0,0,0,.11.88l0,.06c.34.26.87,0,1.36.17-.14.6.56.82.61,1.37,0-.11.31-.24.4-.2s.47,0,.09.29l0,0c-.31.33-.1.43,0,.58l.52-.31c-.24.44,0,.64.19.84s.42.39.12.67c.19,0,.23.17.42.21l-.31.12a1.74,1.74,0,0,0,.24.8H53c0,.21,1,0,1,.19l-.45.19c.11.38-.22.84.27,1.14-.07,0-.21,0-.24,0,0,.18-.21.74.44.59-.43.06,0,.4.23.61H54c.43.14.54.14.68.39,0,.07-.25.08-.18,0-.15.22.32.14.16.4l-.21-.08c0,.21.1.19.35.29s-.07.42-.36.46c.18,0,.42.13.34.26a.27.27,0,0,1-.21-.05c-.21.36.38.53.06.78a.49.49,0,0,0-.19,0,1.6,1.6,0,0,1,0-.49c-.3,0-.35.23-.76.06.23.17.71.49.57.71l-.1,0,0,0c0,.06,0,.1.05.15s-.09.11-.09.18c-.25,0-.14.26-.16.37.33,0,.27.15.54,0,0,0,0,0-.05-.1s0,0,0-.05h0v-.29c.16.09.29.19.11.32.21.06.42.14.52.18-.46.14-.72.44-1,.47.17.36.08.83.68,1.09.07.11-.18.11-.28.14s-.05-.13-.13-.17c.14.22,0,.61.44.69-.21.24-.38-.17-.33.18l-.13,0c-.72.65,1,1.2.09,1.92a.25.25,0,0,1,.15-.08c-.43.87.27,1.84-.34,2.72-.12.26.15.29.35.44l-.34.06.4.26c.31.35-.83.68-.24,1.13l.23-.07c0,.17.18.52-.09.52,0,0,.25,0,.13.11l-.18,0,.36.39c-.09.34-.73,0-.7.53.1.17.6.42.71.34s.09-.2.27-.24l.11.15c.54-.06,1.1-.05,1.41-.46l-.36-.2.25-.12,0,.21c.23-.16,0-.2-.15-.26a.67.67,0,0,0,.27-.14l-.54-.19c.2,0,.43.06.52-.11-.24-.09-.46.16-.63,0,.23-.14.43-.13.21-.25a.35.35,0,0,1,.3,0c-.18-.11-.1-.32-.39-.37.29-.15-.11-.43.4-.44-.12,0-.41-.21-.43-.32.61.19,0-.45.68-.41-.56-.14-.25-.56-.55-.85,0,0,.13,0,.1.08,0-.16.21-.21.32-.31-.46,0-.55-.28-.83-.43.44-.18.53.14.95.09-.37,0-.36-.36-.66-.3.27-.14.13-.13.51-.19-.56,0-.09-.14-.43-.29.29-.2.53,0,.37-.28C56.76,46.69,57,46.91,57,46.91Zm-.67-6h0l0,.13Zm0-.51a1.48,1.48,0,0,0,0,.22c-.11,0-.23,0-.22,0S56.19,40.5,56.28,40.42Zm-2.26,1c0-.08,0-.1.09-.11a.38.38,0,0,0,0,.13h0A.41.41,0,0,1,54,41.44Z"/><path class="cls-2" d="M54.44,41.59l0,0,.07,0-.1,0Z"/><path class="cls-2" d="M45.24,52.39h0a.43.43,0,0,1,0,0Z"/><polygon class="cls-2" points="55.52 33.11 55.45 33.15 55.53 33.16 55.52 33.11"/><path class="cls-2" d="M47.85,53.77a.16.16,0,0,0,0,.09A.23.23,0,0,0,47.85,53.77Z"/><path class="cls-2" d="M49.06,53.88l.17.12A.78.78,0,0,0,49.06,53.88Z"/><path class="cls-2" d="M50,54a.93.93,0,0,0,0-.14h0Z"/><path class="cls-2" d="M40.05,45.87a.08.08,0,0,0,0,0C40,45.74,40,45.8,40.05,45.87Z"/><path class="cls-2" d="M40.58,50.34a1.17,1.17,0,0,1-.16-.15C40.4,50.28,40.4,50.35,40.58,50.34Z"/><polygon class="cls-2" points="40.45 40.92 40.45 40.92 40.46 40.9 40.45 40.92"/><path class="cls-2" d="M40.41,50a.17.17,0,0,0,0,.22A.24.24,0,0,0,40.41,50Z"/><path class="cls-2" d="M54.06,53.76h0a.11.11,0,0,1,0,0Z"/><path class="cls-2" d="M54.1,53.71l0-.05S54.1,53.67,54.1,53.71Z"/><path class="cls-2" d="M54.23,53.57l-.09.09S54.23,53.66,54.23,53.57Z"/><path class="cls-2" d="M52.81,53.8v0Z"/><path class="cls-2" d="M52.44,53.88c.09,0,.25.22.37.14v-.1C52.77,54.1,52.5,53.68,52.44,53.88Z"/><path class="cls-2" d="M50.78,52.57l.3.08c-.06-.12-.14-.29,0-.33C50.68,52,51.17,52.6,50.78,52.57Z"/><path class="cls-2" d="M49.85,52.43c.15-.06,0-.18,0-.25C49.75,52.29,49.72,52.32,49.85,52.43Z"/><path class="cls-2" d="M43.26,51.73l.09-.28C43.24,51.46,43.32,51.56,43.26,51.73Z"/><path class="cls-2" d="M41.4,52.53l0,.25.22-.18Z"/><path class="cls-2" d="M42.51,50.68h-.08Z"/><path class="cls-2" d="M43.52,40.26l-.36,0C43.21,40.3,43.6,40.42,43.52,40.26Z"/><path class="cls-2" d="M44.59,35.5c.19,0,.34-.07.2-.22C44.73,35.38,44.56,35.43,44.59,35.5Z"/><polygon class="cls-2" points="52.34 33.34 52.19 33.33 52.36 33.42 52.34 33.34"/><path class="cls-2" d="M46.1,29.2a8.52,8.52,0,0,0-4.9,4.09,3.48,3.48,0,0,1-.77,1.13,2.77,2.77,0,0,1-2,.32,40.77,40.77,0,0,0-7.16.11c-.79.08-1.72.3-2,1.07-.4,1.1.91,2,2,2.36a20.55,20.55,0,0,0,7.75.81,10.2,10.2,0,0,0,6.31-2.47c1.68-1.62,2.45-4.4,1.31-6.46"/><path class="cls-2" d="M47.36,29.79c-.1,0-.29.15-.22.19l.36-.13Z"/><path class="cls-2" d="M46.94,30.53a1.68,1.68,0,0,0,.84-.2,4.48,4.48,0,0,0-.68.06c-.07,0,.06-.16.19-.21-.1,0,0-.14-.21-.06s-.19.3.09.32A.84.84,0,0,1,46.94,30.53Z"/><path class="cls-2" d="M45.18,36.06h0Z"/><path class="cls-2" d="M42,37.75s0,0,0-.09S42,37.72,42,37.75Z"/><path class="cls-2" d="M41.3,37.53l0,0S41.3,37.5,41.3,37.53Z"/><path class="cls-2" d="M45.18,36.06H45C45.11,36.14,45.13,36.08,45.18,36.06Z"/><path class="cls-2" d="M48.1,31.2s-.07,0-.12-.05l.06.05Z"/><path class="cls-2" d="M45.81,34.63v0l-.13-.09Z"/><path class="cls-2" d="M46.16,33.54a2.16,2.16,0,0,0,.43.17.42.42,0,0,1-.2-.12Z"/><path class="cls-2" d="M46.85,31.73l-.05,0Z"/><path class="cls-2" d="M45.32,35.29l-.1-.06Z"/><path class="cls-2" d="M44,28.46l0,.05S44,28.46,44,28.46Z"/><polygon class="cls-2" points="46.13 29.28 46.11 29.3 46.16 29.48 46.13 29.28"/><path class="cls-2" d="M40.14,37.36h0S40.15,37.34,40.14,37.36Z"/><path class="cls-2" d="M31.55,36.78c-.38.14-.61,0-1,.2A5.23,5.23,0,0,0,31.55,36.78Z"/><path class="cls-2" d="M48.06,31.25a.14.14,0,0,1,0,.06S48.08,31.26,48.06,31.25Z"/><path class="cls-2" d="M30.53,37h0l0,0Z"/><path class="cls-2" d="M37.57,37.78c0,.06,0,.1,0,.14A.58.58,0,0,0,37.57,37.78Z"/><path class="cls-2" d="M39.58,38.11l-.06,0S39.56,38.11,39.58,38.11Z"/><path class="cls-2" d="M36.53,38.23s0-.08-.07,0v0C36.49,38.19,36.5,38.17,36.53,38.23Z"/><path class="cls-2" d="M35.45,38.15v.07h0Z"/><path class="cls-2" d="M41,31.16a1.66,1.66,0,0,1,.27.13C41.05,31.16,41.11,31,41,31.16Z"/><path class="cls-2" d="M47.92,31.23c.08,0,.12,0,.14,0s0,0,0-.05Z"/><path class="cls-2" d="M36.38,40.78l-.19-.06A.31.31,0,0,0,36.38,40.78Z"/><path class="cls-2" d="M35.24,33.31l0,0S35.25,33.28,35.24,33.31Z"/><path class="cls-2" d="M35.61,40.73a.91.91,0,0,0-.09-.23l0,.08Z"/><path class="cls-2" d="M41.25,31.29Z"/><path class="cls-2" d="M41.63,29.75c-.15.14.22.37.36.58-.08.24-.3-.15-.51-.25,0,.19.17.55.09.61s-.09,0-.14-.12c.14.34-.3.36-.09.77l-.09-.05a5.75,5.75,0,0,1,.47.35c0,.07.12.29-.12.14,0,0-.05-.11-.1-.18l0,.14c-.37-.18,0-.18-.27-.36,0,.22.14.57,0,.61-.33-.2.08-.33-.31-.39l.25-.08c-.59-.24.12-.07-.5-.36-.27.17,0,.38-.29.55.14.18.27.17.42.34.13.53-1-.26-.71.27.18.2.6.47.27.51L40,32.56c-.17.22.49.44.11.52-.14-.12-.05-.23-.11-.23-.38,0,.17.22.12.32L39.78,33a.41.41,0,0,0,.06.31.4.4,0,0,1,0,.28,1.27,1.27,0,0,0-.24-.28c0,.24-.26.08-.32-.16a1.28,1.28,0,0,1,0,.34s0-.15,0-.21,0,.21,0,.35-.08-.2,0-.3c-.13.3-.56.6-.79.22l0-.1c-.19-.15-.26.68-.43.35l0,0c-.42-.18-.91.11-1.22-.41-.07.48-.42-.23-.46.45-.24-.34-.17-.46-.52-.69-.09,0-.14.42-.25.49v-.35l-.16.37-.08-.43-.11.1a.33.33,0,0,1,.08.26c-.16.16-.41-.25-.41-.43l-.4.31a.52.52,0,0,1,.13-.29c-.21.37,0-.37-.24,0a.87.87,0,0,1,0,.28.33.33,0,0,0-.49-.11L34,33c-.31-.05-.63.15-1,.16a.56.56,0,0,1,0,.58L33,33.39c0,.23.11.13,0,.42-.13,0-.11-.42,0-.54l-.14.14a1.79,1.79,0,0,1,0-.32c0,.24-.28-.36-.34,0l0-.11a1.43,1.43,0,0,0-.42.1,4.85,4.85,0,0,1-.6.13c.08.32-.12.27-.15.54-.32-.06-.82-.26-1.16-.12-.13.21.12.26.15.45-.22-.25-.52-.1-.52-.34a1.1,1.1,0,0,0-.62.69c.15,0,.24.05.31.12s-.26,0-.38-.06v0c0,.28-.4.35-.75.55s-.6.47-.35.75l0,0a2.3,2.3,0,0,0,.26.49c-.05.21-.22-.14-.4,0,.5.51,0,.8.52,1.13-.39.23-.22.5,0,.73s.57.41.52.73l.17-.14c.27,0,0,.17,0,.26.13-.11.06-.2.22-.22a13.41,13.41,0,0,1,1.44.84l.4.24.36.22a3.82,3.82,0,0,0,.49.33c.25.11.39-1,.61-.45l-.18.35c.62-.32,1.08.24,1.67-.06-.05.08-.06.19-.12.19.07.29.41.07.44-.16.08,0,0,.21,0,.33s.32-.32.35,0c0,.05,0,.09-.07.11s.34.07.3-.25c.18.17.39-.11.53.09.13-.35.32.2.39-.3,0,.52.32.44.45.2,0,.15.1.16,0,.38.15,0,.28-.09.26-.36.26.63.53-.49.67.3a6.41,6.41,0,0,1,1.17-.62c0,.52-.41.07-.37.61.35-.23.53-.68.89-.59.09.07,0,.23-.06.32.33-.24.7,0,1-.34a.21.21,0,0,1,0,.15c.06,0,.16.06.12-.17l0,.07c-.14-.33.15-.74.13-.93,0,.69.33.12.3,1a.51.51,0,0,0,0-.33c.07,0,.1.13.07.31.2-.16.08-.4.28-.43a1.53,1.53,0,0,1,0,.3c.07-.24.12-.47.31-.41,0,.07,0,.15,0,.16.29-.1.36-.69.72-.56,0,.5.15.13.28.54l.14-.18-.13-.18c.15,0,.19-.37.36-.28l-.06.2.25-.17-.2-.1c.07-.26-.19-.51,0-.46,0,.06.14,0,.3.17h0c0-.16,0-.32.18-.26s.16.45.21.53c-.07-.36.3-.24.23-.62a1.21,1.21,0,0,0,.13.34l-.07-.3c.1.06.13.09.2.26.22,0-.3-.46,0-.36,0,0,0,.07,0,.12.29,0,.35-.39.62-.37.29.33-.12.19.13.47.28-.25.34-.82.66-.93H45c-.33-.52.38.09.33-.25,0,.06.17.3.14.24.25-.07.27-.43.37-.8l.09.14c.19,0,.31-.21.46-.28-.09-.14,0-.18-.23-.29.49.11.54-.15.54-.4s0-.5.39-.48c0,0,.06.16.08.13s0-.25,0-.38c-.25-.09-.17,0-.38-.06s-.19-.25-.16-.32c.1.21.39.19.55.19A2.4,2.4,0,0,1,47,35c.51,0-.47-.25-.09-.33l.12.07c0-.11-.17-.25-.1-.32.31.08.1.14.34.24,0-.14-.46-.45-.13-.46.06.08,0,.16.1.24.38,0,.3-.05.39-.13h0l.22-.18-.11,0c-.73-.39,0-.38-.51-.71.45.31.27.09.61.18.11,0,.23-.11.32-.07-.25-.16.26-.16-.12-.38.11,0,0-.12.3-.06-.07-.17-.2,0-.34,0-.35-.25.52-.52,0-.87-.23-.28-.6-.3-.82-.51a.52.52,0,0,1,.42,0c.14-.15.09-.26-.05-.36a.51.51,0,0,0,.29-.1c0-.1-.41,0-.28-.16a2.37,2.37,0,0,1,.46,0c-.13-.11-.36-.18-.49-.28.18-.09.3,0,.44,0a.59.59,0,0,0-.6-.26l-.07.12s.24-.12.31-.1c.27.05,0,.21-.15.25l-.1-.06c-.6.27.19.3.2.5l-.48,0a3.15,3.15,0,0,1,.42.09c-.12.06-.38.13-.46.06-.22.15.18.08-.06.21a.1.1,0,0,1-.09,0l.16.09c-.1,0-.33.06-.27,0-.26.21.38.29,0,.38h0c.17.26.36,0,.77.22l-.87.13.35,0s0,.08-.18.06c.24.12.15,0,.38.07-.34.11.1.41-.45.36.25.09.21-.1.38.07-.6,0,.07.19-.22.27-.3-.1-.12-.18-.42-.11.51.18-.15.2-.08.31.4.11.12.26.19.47-.13-.06-.33.23-.53.3l-.06,0c.37.2.24.32.26.46a.83.83,0,0,1-.38-.28l0,.1c.11.08.16.14.17.23l-.27-.17c0,.13.18.43-.09.48.24.18.78.3.82.6-.13-.08-.37-.22-.39-.31s.07.13,0,.12l-.18-.21c-.15,0,.16.16.1.21-.19-.13-.17-.05-.31-.16s.11,0,0-.07a.49.49,0,0,1-.4,0c.11.07.25.18.24.24s-.24-.12-.39-.12c.11.12-.08.08.18.3,0,0-.15-.06-.23-.11.07.16-.19.28.13.47h0v0h0c.07.43-.51.24-.6.5l-.07-.08c0,.19-.21.27-.16.53,0,0-.21-.11-.27-.23,0,.13,0,.25-.23.19,0-.23-.13-.13,0-.19-.18,0-.3-.14-.27.21-.11-.28-.28-.26-.3-.15l.19.13c0,.07-.12.08-.19.1l-.15-.36c-.45-.28-.12,1-.66.34,0,.28.22.11.29.42-.16,0-.5-.44-.54-.42-.24-.14,0,.58-.19.52.06.12.22.45.11.62-.16,0-.36-.48-.31-.62s.06,0,.07.06a.19.19,0,0,0,0-.25l0,.13c-.11-.11-.28,0-.31-.26a.2.2,0,0,0,.12.27c-.22-.14-.26.07-.48,0,0,.06.12.21.09.22-.31-.1,0,.28-.22.38-.15-.17-.08-.49-.22-.27-.14-.12-.1-.35-.09-.47-.1.29-.34-.1-.44-.13l.07-.13a.14.14,0,0,1-.12.09l.1.26c-.06,0-.1,0-.13-.14,0,.18.13.44.07.7-.09-.13-.19.18-.27-.17.24.08-.09-.36.08-.45,0,.05-.07.06-.13,0a.16.16,0,0,1,0-.1c-.26-.28,0,.42-.24.45,0-.21-.11-.38-.14-.33s.09.33,0,.5c-.16-.14-.13.14-.21.13l.09.06c0,.21-.07.19-.17.27,0-.16.08-.12,0-.19-.07.37-.3-.34-.42-.08-.09-.14,0-.39-.12-.47-.14.28-.2-.27-.36,0,.07.27.07.21,0,.48l.29-.21-.16.41c.09,0,.18-.19.23-.14-.07.23-.07.16,0,.38-.16-.4-.24.26-.41,0l0-.69c-.23-.29-.37.38-.66.21l.1.12c0,.27-.18,0-.26.15a1.25,1.25,0,0,0-.1-.45c0,.17-.2,0-.23.44l-.12-.3c-.23-.12-.27.65-.49.57.07-.25,0-.41.12-.58-.07,0-.13,0-.14.11,0-.15-.21.3-.27.08,0,.1-.06.33-.14.31a.25.25,0,0,1,0-.11c0,.11-.14.14-.08.4-.19-.72-.65,0-.8-.62a1.74,1.74,0,0,1-.51.11c0-.06,0-.11,0-.08-.17-.24-.2.63-.4.37s.15-.18.09-.33c.07-.75-.29.06-.37-.39l0,0c-.08-.27-.33.23-.51.15a.54.54,0,0,0,0-.11,1,1,0,0,1-.67.49c.11-.28.11-.14.14-.43-.09,0-.08.47-.26.51a1.48,1.48,0,0,1-.05-.64l.15,0c0-.42-.2,0-.26-.12l.05-.17c-.24,0-.36.44-.6.34V38c-.25.4-.05-.27-.27,0l.08-.45c-.13.08-.35.36-.56.39a6.86,6.86,0,0,0,.53-.59s-.14,0-.28.19c0,0,.11-.13.1-.06-.2.32-.42.44-.56.38.28-.37.25-.44.21-.5s-.13-.1.18-.36c-.21.09-.25,0-.21,0s.13-.15.06-.18c-.93.3-.06,0-1.06.23-.11,0-.1,0,0-.07a3.11,3.11,0,0,1,.56-.22c.31,0,.26,0,.5,0a3,3,0,0,1,.75-.1c-.4,0-.58,0-.43,0a4.36,4.36,0,0,0-.52,0c-.64-.1.95,0,.34-.12l.36,0c-.21,0,0,0-.86-.33.13,0,.43.13.51.16s-.13-.12-.24-.24-.13-.23.11-.1l.19.15s-.32-.29-.11-.15l.19.16c-.06-.06-.25-.28-.12-.2l.16.18c.24.19-.26-.46-.13-.6.29.48.42.64.46.72l0,.07c.05,0,0-.08.11-.23a3.81,3.81,0,0,1,.46-.44c.25.54.76.19,1.12.48a.58.58,0,0,1,0-.45c.09.1.22-.36.22.11h0c.08.46.24.33.38.34v-.61c.37.87.92-.34,1.11.46.08-.16.19-.15.27-.3v.32a.84.84,0,0,0,.63.06l-.06.23c.16,0,.23-.93.38-1l0,.49c.28,0,.54.45.85,0,0,.07,0,.21-.08.23.14,0,.49.36.49-.31,0,.43.28.06.47-.12l0,.32c.17-.4.18-.51.39-.62,0,0,0,.26,0,.18.17.17.13-.3.34-.14l-.07.21c.18,0,.17-.09.25-.34s.38,0,.49.3c0-.18,0-.43.17-.38a.27.27,0,0,1,0,.21c.45.08.32-.53.68-.39a.49.49,0,0,0,.14.13,1,1,0,0,1-.47.22c.12.27.4.19.39.65.14-.31.15-.9.4-1a.31.31,0,0,1,.1,0v0a.13.13,0,0,0,.08-.15A.42.42,0,0,0,41.7,35c.21.14.3-.17.38-.29-.27-.17-.15-.27-.45-.29,0,0,0,0,0,.12a.13.13,0,0,0,0,.06v0l-.17.26c-.06-.19-.12-.34.1-.34-.14-.17-.29-.34-.36-.41.45.13.79,0,1,.13,0-.33.14-.51-.31-1,0-.1.19,0,.28.06s0,.09.07.15c-.06-.18.14-.34-.19-.6.25,0,.27.29.34.07l.09.1c.4,0,.28-.26.2-.56s-.11-.6.38-.48a.32.32,0,0,1-.15-.06c.64-.12.61-1.09,1.43-.91.19,0,.06-.22,0-.45l.21.28-.07-.43c.06-.38.76.54.75-.07l-.14-.2c.11,0,.25-.27.35,0,0-.05-.07-.24,0-.15l.08.17.12-.39c.24.05.24.68.51.62a1.28,1.28,0,0,0,0-.7s-.15-.07-.21-.24l.07-.13c-.14-.51-.21-1.07-.62-1.33l-.09.38-.15-.22.16-.08c-.18-.2-.17,0-.18.2A.5.5,0,0,0,45,28v.55c-.1-.18-.07-.42-.25-.47,0,.26.27.4.19.6-.19-.18-.24-.37-.27-.13a.37.37,0,0,1-.06-.29c0,.2-.23.18-.15.46-.23-.22-.28.23-.51-.22A.86.86,0,0,1,44,29c-.15-.62-.33.14-.63-.43.18.54-.28.47-.29.86,0-.05-.05-.13,0-.12-.14,0-.27-.07-.4-.1.26.37.17.57.26.85-.4-.24-.26-.47-.56-.76.23.28,0,.46.25.66a1.21,1.21,0,0,1-.45-.28c.35.44,0,.15.13.48-.32-.09-.4-.36-.42-.1C41.64,30,41.63,29.75,41.63,29.75ZM40,33.67h0l0,0Zm-.14.11a.09.09,0,0,0,.07,0c.07.09.14.19.11.2S39.88,33.85,39.81,33.78Zm2.06,1.11c0,.1-.09.09-.15,0a.53.53,0,0,0,.07-.15l0,0A.58.58,0,0,1,41.87,34.89Z"/><path class="cls-2" d="M41.62,34.51s0,0,0,0h-.09l.07.08Z"/><path class="cls-2" d="M45.25,36.07h0l0,0Z"/><polygon class="cls-2" points="35.63 33.16 35.63 33.24 35.66 33.16 35.63 33.16"/><path class="cls-2" d="M47.21,35.12l.09,0Z"/><path class="cls-2" d="M47.61,34.32l.15-.08A.47.47,0,0,0,47.61,34.32Z"/><path class="cls-2" d="M48,33.69l-.14,0h0Z"/><path class="cls-2" d="M39.89,40.25l0,0C39.82,40.34,39.86,40.31,39.89,40.25Z"/><path class="cls-2" d="M42.75,38.8a1,1,0,0,1,0,.18C42.77,39,42.82,39,42.75,38.8Z"/><polygon class="cls-2" points="36.4 40.78 36.4 40.78 36.38 40.78 36.4 40.78"/><path class="cls-2" d="M42.57,39c.08,0,.12,0,.14,0S42.6,39,42.57,39Z"/><path class="cls-2" d="M48,30.54v0H47.9Z"/><path class="cls-2" d="M47.9,30.51l0,0S47.86,30.52,47.9,30.51Z"/><path class="cls-2" d="M47.74,30.43l.11.05S47.84,30.42,47.74,30.43Z"/><path class="cls-2" d="M48,31.53h0Z"/><path class="cls-2" d="M48.1,31.82c0-.07.23-.2.14-.3h-.09C48.33,31.56,47.9,31.78,48.1,31.82Z"/><path class="cls-2" d="M46.64,32.88l.11-.18c-.13,0-.3,0-.32,0C46,32.86,46.71,32.64,46.64,32.88Z"/><path class="cls-2" d="M46.37,33.41c0-.1-.18,0-.25-.06C46.22,33.44,46.24,33.46,46.37,33.41Z"/><path class="cls-2" d="M44.07,36.74l-.16-.25C43.88,36.57,44,36.59,44.07,36.74Z"/><polygon class="cls-2" points="44.11 38.51 44.28 38.62 44.19 38.36 44.11 38.51"/><polygon class="cls-2" points="42.71 36.86 42.72 36.81 42.65 36.96 42.71 36.86"/><path class="cls-2" d="M35.66,37.89v.36C35.72,38.19,35.76,37.79,35.66,37.89Z"/><path class="cls-2" d="M32.43,37.71c0-.18,0-.32-.15-.16C32.35,37.59,32.38,37.75,32.43,37.71Z"/><polygon class="cls-2" points="34.75 36.07 34.69 36.2 34.81 36.09 34.75 36.07"/><path class="cls-3" d="M30.17,40.55s.07-.13,0-.12l-.09.14Z"/><path class="cls-3" d="M30.25,40.23a1.62,1.62,0,0,0-.21.31l.18-.23s0,.06,0,.12,0,0,.05,0,0-.14,0-.06A.73.73,0,0,1,30.25,40.23Z"/><path class="cls-3" d="M29.51,39.28h0Z"/><path class="cls-3" d="M29.15,38.66h0Z"/><path class="cls-3" d="M29.25,38.46h0Z"/><path class="cls-3" d="M29.51,39.28l0-.05S29.51,39.26,29.51,39.28Z"/><path class="cls-3" d="M29.89,40.48l0,0h0Z"/><path class="cls-3" d="M29.82,39.4h0l.05,0Z"/><path class="cls-3" d="M30,39.54l-.13.14.07-.07Z"/><path class="cls-3" d="M30.16,40h0Z"/><path class="cls-3" d="M29.72,39.26l0,0Z"/><path class="cls-3" d="M29.83,33v0Z"/><polygon class="cls-3" points="30.25 33.62 30.24 33.63 30.25 33.71 30.25 33.62"/><path class="cls-3" d="M29.3,38.19Z"/><path class="cls-3" d="M28.72,36.43c-.13,0-.17,0-.31,0A1.11,1.11,0,0,0,28.72,36.43Z"/><path class="cls-3" d="M29.89,40.46h0Z"/><polygon class="cls-3" points="28.41 36.44 28.41 36.44 28.39 36.45 28.41 36.44"/><path class="cls-3" d="M29,37.8l-.06,0Z"/><path class="cls-3" d="M29,38.22v0Z"/><path class="cls-3" d="M28.77,37.7s0,0,0,0h0S28.79,37.69,28.77,37.7Z"/><polygon class="cls-3" points="28.71 37.51 28.68 37.52 28.69 37.52 28.71 37.51"/><path class="cls-3" d="M29,33.31l.07.11C29.06,33.33,29.08,33.28,29,33.31Z"/><path class="cls-3" d="M29.93,40.41s0,.05,0,.05h0Z"/><path class="cls-3" d="M27.7,38.06v0A.06.06,0,0,0,27.7,38.06Z"/><path class="cls-3" d="M27.79,34.8v0Z"/><path class="cls-3" d="M27.65,37.91l.09,0h0Z"/><path class="cls-3" d="M29.11,33.42Z"/><path class="cls-3" d="M29.23,33s.06.18.09.29-.08-.12-.13-.2,0,.22,0,.23a.2.2,0,0,1,0-.08c0,.15-.09.06,0,.24l0,0,.13.23s0,.11,0,0,0,0,0-.08v.05c-.1-.14,0-.06-.07-.18,0,.07,0,.22,0,.19s0-.08-.08-.2l.07,0c-.16-.22,0,0-.14-.24-.08,0,0,.11-.09.1s.08.12.12.21-.3-.33-.22-.1.18.28.07.21l-.1-.16c-.06,0,.14.24,0,.17s0-.08,0-.09.05.1,0,.12l-.11-.13c0,.06,0,.2,0,.27a.65.65,0,0,0-.11-.12c0,.12-.15.11-.28.11l.09.12a.18.18,0,0,1-.08-.06c-.06,0,.07.06.11.11s-.09,0-.11-.07c.05.13.11.29-.05.24l0,0c-.08,0,.22.22.08.17v0c-.12,0,0,.21-.29.16.19.12-.13,0,.14.19-.16,0-.21,0-.32,0s.16.11.18.14l-.14-.06.14.1-.18,0,0,0,.11,0c.06.06-.12,0-.2,0l.1.13a.35.35,0,0,1-.11-.07c.14.1-.16,0,0,0l.12,0c-.1,0-.12,0-.09.08l-.1,0c0,.06,0,.15,0,.22a.54.54,0,0,1,.25.06l-.17,0c.1,0,.07,0,.19,0,0,0-.19,0-.24,0l0,0-.14,0c.1,0-.18,0,0,.08h-.05c0,.07,0,.11,0,.17a.93.93,0,0,1,.22.08c-.05,0-.17.06-.16.11s.12,0,.2.05c-.13,0-.12,0-.21,0s0,.08.11.16h.13s-.06,0-.12,0h0c.2.1-.39.18-.12.26h0l.14.07s-.1,0-.18,0c.22.07,0,.12.12.18-.38.06,0,.17-.21.25h.09c.1,0-.05,0-.06,0s.07,0,.12,0-.1.31-.15.48.47-.05.27,0h-.17c.22.07,0,.23.23.29h-.09c-.11,0,0,.08.11,0s-.08,0-.13.05.16,0,.05.06h-.05c.06,0,0,.07.14,0-.06.06.08.06,0,.11.15,0,0,.09.16,0-.22.07-.15.12,0,.11-.07,0-.06,0-.16.07s.06,0,.17,0c-.24.15.25,0-.07.18a1.26,1.26,0,0,1,.33.11c-.21.1-.05-.06-.27,0,.11,0,.31,0,.29.07s-.1,0-.14,0c.12,0,0,.14.19.14l-.06,0s0,0,.07,0h0a2.05,2.05,0,0,1,.38-.14c-.28.12,0,.09-.39.24l.13,0s-.05,0-.12.07.16-.06.17,0a.33.33,0,0,1-.12,0c.1,0,.2-.06.18,0s-.06,0-.07,0,.28,0,.23,0-.05.06-.21.16h.06l.07-.06s.15,0,.11,0l-.08,0,.06,0,0-.06c.1,0,.21-.14.18-.08s0,0-.07.1h0c.06,0,.12,0,.09,0l-.21.14c.14-.08.08,0,.23,0l-.13.09.11-.07a.37.37,0,0,1-.11.1s.19-.15.13,0l0,0c0,.07.12,0,.09.1s-.06,0-.18.1c.07,0,.27,0,.27,0v0c.22-.16-.07.12.05.07s-.13.09-.1.07.1,0,.21,0l-.06,0c0,.06,0,.07,0,.11s.06,0,.13-.1c-.23.34.26,0,.07.25l0,0h.09a.76.76,0,0,0,.1-.13c.05-.05.1-.07.11-.06a.42.42,0,0,0-.16.19l.08-.08c-.12.17.16-.17.1,0l0,0s.1-.06.11,0-.06,0-.14.11.21-.16.14,0l-.08,0c-.09.14-.06.11-.06.14h0v.09l0,0c.25-.25.09,0,.27-.16-.17.15-.09.1-.19.22a.27.27,0,0,1-.06.12c.09-.09,0,.1.1,0,0,0,0,0-.06.11s0-.07.08-.12,0,.23.15.08a3.45,3.45,0,0,0,.28-.23.45.45,0,0,1-.11.15c0,.07,0,.07.05,0l-.06.12s.11-.14.09-.07l-.13.16.16-.12a.49.49,0,0,1-.12.15.35.35,0,0,0,.18-.14v-.05l-.07.12c-.08.08,0-.06,0-.1l0,0c.14-.26-.08,0-.1,0l.13-.17-.13.13a.83.83,0,0,1,.12-.17c0-.1-.06.05,0-.06l0,0-.05,0s.08-.12.07-.09-.14.1-.06,0h0c-.08,0-.09.12-.23.24l.2-.32-.1.12s0,0,0-.07,0,.05-.11.13c.07-.13-.1,0,.05-.2-.08.09,0,.09-.11.14.16-.22-.06,0,0-.1s.07,0,.12-.14c-.16.17,0-.07,0,0s-.09,0-.15.06,0-.12,0-.19l0,0c-.13.13-.13.08-.17.1a.84.84,0,0,1,.15-.14l0,0-.09.07.1-.1s-.16.08-.12,0c-.09.09-.23.28-.33.31a1,1,0,0,1,.17-.15s-.05,0,0,0l.1-.07c0-.05-.08.06-.08,0s0-.06.1-.12,0,0,0,0a.29.29,0,0,1,.08-.14s-.09.1-.11.1.08-.09.11-.14,0,0-.13.08l.07-.09c-.06,0-.06,0-.17.09h0c-.15.07,0-.13-.08-.13l0,0c-.07,0-.07,0-.17,0s.06-.07.11-.11-.09,0-.05,0,.06-.05.07,0,.07-.1-.06,0c.11-.07.12-.12.08-.1l-.06.07s0,0,0,0l.14-.1c.13-.16-.35.13-.09-.11-.11,0-.05.07-.17.14s.19-.19.18-.2-.22.11-.19,0a.77.77,0,0,1-.25.14.67.67,0,0,1,.25-.18s0,0,0,0a.18.18,0,0,0,.1-.06l-.05,0c.05,0,0-.07.11-.12a.2.2,0,0,0-.11.08c.06-.08,0,0,0-.11s-.08.07-.09.06-.11,0-.15,0,.2-.1.11-.09a.52.52,0,0,1,.19-.11c-.12,0,0-.08,0-.11h.05s0,0,0,0l-.11.07s0,0,.06,0-.17.1-.28.14c0,0-.08,0,.06-.09,0,.07.14-.08.18-.06s0,0,0,0l0,0c.11-.1-.16.07-.18,0s.15-.08.13-.08a.54.54,0,0,1-.2.09c.05,0-.06,0-.06,0l0,0c-.09,0-.08,0-.11,0s.05,0,.07,0c-.15.06.13-.11,0-.09.05,0,.15-.07.18-.1s.1-.08,0-.07a.37.37,0,0,1-.2.07l.1,0-.17,0s.08,0,.07,0a.44.44,0,0,0-.16.06c.16-.09-.11,0,0-.07L29,38c.11-.09-.17,0-.12-.08l0,0c-.11,0,0,0-.08,0a1,1,0,0,0,.18-.09c-.07,0,0,0-.2,0l.12-.07s-.29.06-.27,0a1.07,1.07,0,0,1,.25-.07s0,0-.05,0-.14,0-.06,0-.14,0-.14,0h.05a.41.41,0,0,0-.17,0c.28-.14-.07-.11.18-.23,0,0-.08,0-.09-.07s0,0,0,0-.29,0-.2,0,.09,0,.15,0c.32-.09-.06,0,.12-.11h0c.11,0-.13,0-.12-.06h0a.48.48,0,0,1-.29,0,.69.69,0,0,0,.2,0s-.21,0-.25,0a1.29,1.29,0,0,1,.27-.08v0c.17-.05,0,0,0-.05l.08,0s-.23,0-.22-.05l-.06,0c-.2,0,.1,0,0,0l.2,0a.65.65,0,0,1-.24-.06,2,2,0,0,1,.32,0s0-.06-.12,0,.07,0,0,0-.24,0-.24-.06c.39,0,.09-.1.39-.15-.16,0,.05-.12,0-.18-.3,0,0,0-.32,0,0,0,0,0,0,0l.18,0c.09,0,.07,0,.14,0s.13,0,.22,0c-.12,0-.16,0-.12,0l-.15,0c-.16,0,.27,0,.1-.09l.1,0c-.06,0,0-.09-.25-.12h.15s-.26-.15-.11-.18h.08s-.14,0-.07,0h.08s-.13,0-.08,0l.08,0c.11-.05-.19-.11-.24-.17a.71.71,0,0,0,.34,0h0c0-.06-.16-.13-.23-.21.25,0,.13-.09.28-.11a.85.85,0,0,1-.19-.06c.05,0-.14-.09.06,0h0c.19.05.15,0,.16,0l-.26-.09c.39.08-.09-.2.24-.1l-.11-.09.13.06c.05,0,.07,0,.06-.07l.09,0s-.36-.22-.36-.24l.2.1s.19,0,.05-.11a.18.18,0,0,1,.08.06s.16,0-.08-.14c.15.11,0,0,0-.1l.11.09c-.14-.12-.17-.15-.19-.21s.09.07,0,0-.09-.1,0-.07l.06.06s0,0-.08-.12.06,0,.15.08c-.05-.06-.12-.14-.08-.13l.06.07c.1,0-.07-.16,0-.08l.07.06s-.05,0-.06,0a1.8,1.8,0,0,1,.24.24c-.06-.08-.18-.26-.12-.23l0,0h0s0,0,0,0,0,0,0,0,.05,0,.07,0-.07-.1-.16-.19a0,0,0,0,1,0,0h0l0,0c0-.06-.07-.11,0-.06l-.13-.19c.14.14.23.2.31.3a.56.56,0,0,0-.1-.33s.06.06.09.09a.07.07,0,0,0,0,.06c0-.07,0-.06-.06-.22.07.06.08.16.09.11l0,0c.2.23-.12-.49.14-.18l0,0c.15.11.14-.24.32,0,0,0,0-.07,0-.16l0,.15v-.18c0-.14.14.35.15.1l0-.1s.05-.07.06.05,0-.11,0-.05v.08l0-.15c0,.06,0,.32.07.34a1.39,1.39,0,0,0,0-.3s0,0,0-.13l0,0a1.79,1.79,0,0,0-.06-.64l0,.14,0-.11h0c0-.11,0,0-.05.06a.21.21,0,0,0,0-.13l0,.23a.71.71,0,0,0,0-.23c0,.11,0,.2,0,.28,0-.11,0-.2-.05-.1A.28.28,0,0,1,30,33c0,.08-.06,0,0,.17,0-.13-.07,0-.11-.18a.41.41,0,0,1,0,.2c0-.28-.08,0-.13-.29,0,.24-.08.13-.09.28,0,0,0-.06,0-.05s-.06-.08-.1-.12a2.71,2.71,0,0,1,.06.37c-.1-.17-.06-.22-.13-.4,0,.16,0,.18,0,.3a1.11,1.11,0,0,1-.11-.2c.08.24,0,0,0,.2-.08-.1-.1-.21-.11-.13A.29.29,0,0,1,29.23,33Zm-.59.89h0v0Zm-.06.06,0,0s.07.07.06.07Zm.77.64s0,0,0,0v0Z"/><polygon class="cls-3" points="29.24 34.42 29.24 34.41 29.21 34.39 29.24 34.42 29.24 34.42"/><path class="cls-3" d="M29.49,39.3h0l0,0Z"/><polygon class="cls-3" points="27.75 34.69 27.79 34.7 27.76 34.68 27.75 34.69"/><path class="cls-3" d="M29.4,39.9l0,0Z"/><path class="cls-3" d="M29.5,40v.06A.18.18,0,0,0,29.5,40Z"/><path class="cls-3" d="M29.55,40.17l0,0h0Z"/><path class="cls-3" d="M28.14,38.66h0S28.11,38.66,28.14,38.66Z"/><path class="cls-3" d="M28.73,39l-.07,0S28.66,39.06,28.73,39Z"/><polygon class="cls-3" points="27.7 38.07 27.7 38.07 27.7 38.06 27.7 38.07"/><path class="cls-3" d="M28.65,39s0,0,0,0S28.67,39,28.65,39Z"/><polygon class="cls-3" points="29.98 40.55 29.98 40.56 30 40.54 29.98 40.55"/><path class="cls-3" d="M30,40.54h0Z"/><path class="cls-3" d="M30,40.51l0,0S30,40.54,30,40.51Z"/><path class="cls-3" d="M29.87,40.41l0,0Z"/><path class="cls-3" d="M29.82,40.39s0,.11,0,.09l0,0C29.79,40.51,29.88,40.32,29.82,40.39Z"/><path class="cls-3" d="M30,39.75v0s.06-.11.09-.11C30.19,39.53,30.06,39.79,30,39.75Z"/><path class="cls-3" d="M30,39.61s.05-.06.07-.08A.18.18,0,0,0,30,39.61Z"/><path class="cls-3" d="M29.41,39l.1-.08S29.47,39,29.41,39Z"/><polygon class="cls-3" points="28.77 39.3 28.72 39.36 28.82 39.3 28.77 39.3"/><polygon class="cls-3" points="29.47 38.67 29.49 38.67 29.43 38.67 29.47 38.67"/><path class="cls-3" d="M28.84,37.51l-.15.05S28.89,37.51,28.84,37.51Z"/><path class="cls-3" d="M28.55,37c.08,0,.12,0,0,0S28.53,37,28.55,37Z"/><polygon class="cls-3" points="28.91 35.31 28.96 35.34 28.92 35.31 28.91 35.31"/><path class="cls-2" d="M38.36,10.91c-.06-.08-.23-.24-.22-.19l.26.29Z"/><path class="cls-2" d="M37.72,10.54a4.26,4.26,0,0,0,.58.64c-.24-.28-.12-.18-.41-.51,0-.05.12.05.22.15-.06-.07.09,0-.07-.15s-.28-.16-.14.05Z"/><path class="cls-2" d="M35.38,12.13l0,0Z"/><path class="cls-2" d="M34.05,13.23l0-.07A.16.16,0,0,0,34.05,13.23Z"/><path class="cls-2" d="M33.55,13.15h0S33.53,13.13,33.55,13.15Z"/><path class="cls-2" d="M35.38,12.13l-.12-.05C35.35,12.17,35.34,12.13,35.38,12.13Z"/><path class="cls-2" d="M38.12,11.46l-.06-.09a.06.06,0,0,1,0,0Z"/><path class="cls-2" d="M35.67,11.37h0l-.1-.12Z"/><path class="cls-2" d="M36,10.91a3.71,3.71,0,0,0,.31.32.62.62,0,0,1-.14-.17Z"/><path class="cls-2" d="M37.08,10.63l0,0Z"/><path class="cls-2" d="M35.34,11.63l-.09-.08Z"/><path class="cls-2" d="M23.71,17.61l0,0Z"/><polygon class="cls-2" points="24.56 16.08 24.58 16.08 24.73 15.97 24.56 16.08"/><path class="cls-2" d="M32.88,13.24h0S32.87,13.22,32.88,13.24Z"/><path class="cls-2" d="M29.53,17c.26.14.22.31.52.45C30,17.35,29.72,17,29.53,17Z"/><path class="cls-2" d="M38.07,11.44v0S38.08,11.45,38.07,11.44Z"/><path class="cls-2" d="M30.05,17.42h0Z"/><path class="cls-2" d="M32.17,14.23l.11.09Z"/><path class="cls-2" d="M33.13,13.92l0,0Z"/><path class="cls-2" d="M32.16,14.88s-.06,0,0,0l0,0S32.11,14.86,32.16,14.88Z"/><path class="cls-2" d="M31.81,15.22l.05,0v0Z"/><path class="cls-2" d="M24.83,18.72l.2-.21C24.86,18.67,24.75,18.66,24.83,18.72Z"/><path class="cls-2" d="M38,11.33c0,.06.08.09.08.11v0Z"/><path class="cls-2" d="M33.92,16.74l-.09,0A.1.1,0,0,0,33.92,16.74Z"/><path class="cls-2" d="M28.33,21.63l0,.05S28.33,21.67,28.33,21.63Z"/><path class="cls-2" d="M33.68,17l-.18-.13,0,.07Z"/><path class="cls-2" d="M25,18.51Z"/><path class="cls-2" d="M24.1,18.6c0,.06.34-.24.54-.39s-.21.24-.36.4c.13,0,.45-.24.47-.2a.87.87,0,0,1-.14.12c.3-.17.13.13.5-.1l-.08.08.44-.39s.25-.12,0,.07c0,0-.09,0-.16.1l.11-.06c-.28.29-.13.06-.36.25.15,0,.45-.19.4-.07-.29.26-.18,0-.4.27l.06-.16c-.43.45,0-.07-.47.41,0,.15.24,0,.22.12.18-.13.24-.22.42-.34.4-.14-.67.73-.2.48.22-.15.6-.47.45-.23l-.35.26c0,.11.52-.37.37-.09-.15.1-.17,0-.2.08-.21.28.23-.12.26-.08l-.29.26c.12.05.42-.05.55,0a1.18,1.18,0,0,0-.27.23c.13,0,.16.06.18.18a3.88,3.88,0,0,1,.06.53l.29-.18s-.08.15-.13.19.14-.17.25-.24-.07.21-.16.27c.31-.08.66-.18.58.3l-.07.07c0,.25.43-.57.36-.18l0,0a.7.7,0,0,0,.27.31c.1.08.17.19.19.52.13-.49.16.34.29-.37.07.4,0,.52.19.79,0,0,.05,0,.07-.13a1.72,1.72,0,0,1,.12-.35v.36l.1-.38,0,.43.07-.1a.49.49,0,0,1-.06-.26c.09-.18.24.2.26.39l.18-.39a1,1,0,0,1,0,.33c.07-.43.07.39.14,0a1.09,1.09,0,0,1,0-.31c.08.2.21.14.27,0l0,.27c.19,0,.33-.36.51-.5a1.06,1.06,0,0,1-.23-.59l.17.37c-.06-.26-.1-.1-.16-.44.07,0,.22.39.23.54l0-.2a2.09,2.09,0,0,1,.12.33c-.07-.25.32.22.18-.22l.06.1c.19-.18.2-.38.33-.55-.2-.27-.1-.27-.23-.51.15,0,.43.06.53-.1s-.18-.22-.29-.38c.24.18.28.09.41.26.05-.12.06-.16,0-.43a1.52,1.52,0,0,1-.23-.16s.14,0,.24.12l0,0c-.22-.42.93.24.54-.26l0,0-.16-.31c.08,0,.15.17.32.25-.29-.43.2-.13,0-.44.72.49.17-.29.67,0L32,18.48c-.13-.15.11.05.16.07-.12-.11-.16-.1-.23-.19,0-.37.59-.2.9-.25.11,0-.71-.79-.28-.53l.25.29c-.18-.47.29-.26.18-.69.05.08.12.16.11.18.22.17.13-.11,0-.28,0,0,.15.15.24.22s-.16-.34.05-.16a.37.37,0,0,1,.06.1c-.07-.12.13-.08-.11-.29.16.06,0-.21.2-.12-.22-.29.22,0-.12-.35.35.38.39.21.26,0,.1.13.15.09.28.26,0-.05,0-.15-.18-.34.51.37-.19-.51.41,0a2.21,2.21,0,0,1-.06-.77c.36.37-.09.16.3.54,0-.26-.3-.64-.1-.65s.14.17.19.24c0-.25.24-.17.13-.46a.32.32,0,0,1,.08.12s.1,0-.07-.16l0,.07a4.49,4.49,0,0,1-.57-.71c.46.51.22,0,.78.67a1.25,1.25,0,0,0-.2-.24c.05,0,.12.07.23.22,0-.16-.23-.31-.17-.37a2.19,2.19,0,0,1,.2.22c-.13-.18-.26-.37-.15-.35s.12.11.11.12-.29-.56,0-.51c.33.37.15.08.47.37l-.05-.14-.17-.12s-.14-.3,0-.24l.1.16,0-.15-.16-.06c-.12-.2-.4-.37-.26-.35s.05,0,.26.11h0c-.08-.12-.16-.24,0-.2s.34.34.41.39c-.24-.27,0-.17-.22-.46a2.93,2.93,0,0,0,.25.25l-.19-.22a.89.89,0,0,1,.25.2c.1,0-.42-.35-.17-.27l.06.09c.16,0,0-.27.18-.24.33.28,0,.13.3.36,0-.15-.18-.56,0-.59l0,0c-.44-.43.29.14.12-.11,0,0,.23.25.19.2.13,0,0-.24,0-.47l.1.12c.14.06.16-.05.25,0-.1-.12-.06-.13-.24-.27.78.48-.11-.58.54-.18,0,0,.07.12.08.11l0-.19a1.26,1.26,0,0,0-.3-.22c-.1-.12-.16-.24-.14-.26a1.28,1.28,0,0,0,.44.37l-.18-.17c.39.27-.39-.38-.09-.23l.1.1c0-.08-.14-.23-.08-.23.23.2.08.13.26.31,0-.06-.35-.48-.09-.31,0,.08,0,.1.07.18.3.21.23.14.3.15h0l.19,0-.09-.05c-.54-.6,0-.2-.33-.63.3.41.2.21.45.46a1.1,1.1,0,0,1,.25.17c-.17-.23.21.1,0-.23.08.08,0,0,.23.18,0-.1-.15-.13-.25-.23-.21-.33.48.18.19-.28-.09-.22-.34-.5-.41-.71a1.39,1.39,0,0,1,.28.31c.15.08.16,0,.1-.1l.23.2c0-.05-.27-.3-.11-.23l.29.35c0-.11-.16-.29-.19-.4a1.71,1.71,0,0,1,.27.33.83.83,0,0,0-.24-.45l-.1,0S38,11,38,11s-.13,0-.21-.11l0-.07c-.49-.44,0,.17-.1.2l-.32-.36.23.33a1.29,1.29,0,0,1-.33-.33c-.2-.13.09.15-.13,0l-.06-.06.07.14c-.06-.08-.25-.23-.18-.21-.26-.12.16.36-.13.13v0c0,.2.24.25.47.61l-.67-.56.25.25s-.06,0-.15-.1c.14.2.11.1.26.28-.28-.18,0,.23-.43-.15.18.2.19.1.28.28-.45-.4,0,.13-.22,0s-.06-.16-.3-.31c.36.39-.16,0-.12.11.3.29.06.2.1.35-.1-.1-.27,0-.43-.09l0-.05c.29.3.18.3.21.4a1.37,1.37,0,0,1-.31-.35l0,0a.48.48,0,0,1,.14.22l-.22-.23c0,.07.18.36,0,.29.21.2.65.51.73.71a3.06,3.06,0,0,1-.36-.35s.08.11,0,.08l-.17-.22c-.11,0,.15.17.11.18-.17-.16-.14-.09-.26-.22s.08,0,0,0a.71.71,0,0,1-.32-.16c.09.08.22.21.22.25s-.21-.17-.33-.22c.11.12,0,0,.2.27,0,0-.13-.09-.2-.15.08.13-.09.16.2.37h0v0h0c.17.32-.31.05-.29.24l-.08-.08c0,.14-.05.17.09.37,0,0-.18-.11-.28-.21,0,.1.12.19-.07.12s-.14-.1-.07-.14c-.12,0-.26-.13-.09.14-.19-.22-.3-.21-.26-.13l.18.11c0,.06,0,.06-.07.07l-.27-.28c-.44-.21.4.74-.24.28.16.21.19.07.39.31-.08,0-.53-.31-.54-.3-.22-.08.34.45.17.42a1.61,1.61,0,0,1,.43.47c-.09,0-.48-.34-.53-.45s0,0,.08,0a.44.44,0,0,0-.17-.19l.09.1c-.12-.08-.18,0-.32-.17a.3.3,0,0,0,.22.19c-.2-.07-.1.09-.25.06.06,0,.19.15.18.16-.21,0,.14.22.13.32-.19-.11-.35-.36-.28-.17a1.1,1.1,0,0,1-.34-.34c.14.24-.23,0-.29,0l0-.11c0,.06,0,.08,0,.09l.21.17a.2.2,0,0,1-.15-.08c.11.15.34.31.48.51-.12-.07,0,.18-.23-.07.16,0-.27-.24-.25-.35,0,.05,0,.06-.05,0a.19.19,0,0,1-.06-.07c-.3-.16.27.32.19.38-.14-.15-.3-.25-.28-.21s.26.23.35.36c-.16-.06,0,.14,0,.15l.09,0c.13.16.09.16.1.24-.11-.11,0-.11-.11-.15.22.29-.34-.18-.22,0-.12-.07-.27-.26-.36-.31.13.24-.26-.14-.16.08a.88.88,0,0,1,.31.35l0-.23.22.34s-.06-.18,0-.16a1,1,0,0,0,.26.28c-.33-.25.09.25-.15.1L32.58,14c-.28-.14.12.37-.09.34l.12.06c.17.2,0,.08,0,.19a2,2,0,0,0-.34-.3c.12.12-.08.06.23.39l-.25-.18c-.16,0,.37.55.25.56-.15-.19-.3-.28-.37-.45,0,0-.08,0,0,.12-.11-.09.15.29,0,.15.06.08.22.26.18.27l-.08-.08c.08.08.06.15.26.31-.56-.44-.17.23-.65-.15a.7.7,0,0,1-.05.28c0-.06-.08-.09,0-.08-.21-.09.4.52.16.41s-.09-.18-.21-.26c-.52-.54,0,.16-.37-.11v-.05c-.22-.15.09.31,0,.33l-.08-.08a1.13,1.13,0,0,1,.23.62,1.92,1.92,0,0,0-.3-.34c0,.06.34.34.34.45a3.7,3.7,0,0,1-.49-.38l0-.06c-.32-.27-.06.08-.14,0l-.12-.13c0,.13.28.45.17.51l.11.09c.27.36-.22-.14,0,.14l-.34-.3a3.49,3.49,0,0,1,.22.53,2.9,2.9,0,0,1-.38-.63s-.08.13.07.3c0,0-.09-.13,0-.1.23.29.31.46.25.51-.65-.6-.32,0-.87-.39.14.34-.31.14-.39.32.56.39,0,.05.52.5,0,.06,0,.06,0,0l-.41-.18c-.17-.11-.09-.13-.21-.23s-.26-.16-.44-.24c.2.16.26.26.15.24l.3.15c.21.34-.53-.3-.32,0L29,17c.06.13-.15.17.25.58-.07,0-.23-.15-.25-.21s.25.65-.09.51l-.13-.12c0,.05.22.24.07.16l-.14-.12c0,.05.18.25.08.21l-.13-.15c-.28,0,.27.42.29.58l-.53-.54,0-.06a3.13,3.13,0,0,1,.25.65c-.27-.53-.18-.15-.3-.48,0,.11.11.46.12.53,0-.11,0,.46-.06-.11h0c-.11-.55-.09-.4-.1-.41l.1.79c-.1-.55-.09-.44-.12-.29s-.07.29-.05-.26l0,.15-.05.25,0-.45c0-.12,0-.18,0-.1l.06-.29S28,19,27.92,19l.13-.6s.12-.52-.08-.07l.1-.24s.13-.36-.19.3c.21-.43,0-.07-.13.08l.17-.29c-.23.35-.3.45-.4.51s.15-.23.11-.15c.08-.16-.21.23-.13.05l.14-.15s-.08.05-.25.22,0-.13.21-.34c-.13.13-.32.27-.27.19l.16-.13c.13-.18-.37.14-.18-.12l.14-.13c.05.07.08.14.06.15a3,3,0,0,1,.57-.51c-.21.1-.64.35-.58.2l.07-.07,0,0s0,0-.06,0,0-.08,0-.1c.18-.17,0-.15,0-.18-.24.21-.23.14-.41.35,0,0,0,0,.06,0h0l.08.06c-.15.08-.27.15-.16,0l-.43.31c.31-.33.44-.56.64-.75a.88.88,0,0,0-.76.23c-.08,0,.11-.14.17-.21s.07,0,.14-.06c-.16.06-.16-.09-.49.17.09-.18.32-.22.2-.25l.11-.08c.38-.59-1.05.45-.53-.29a.35.35,0,0,1-.1.12c.13-.44-.62-.18-.31-.76.05-.14-.16,0-.35.12l.26-.23-.36.19c-.3.1.55-.67,0-.43l-.18.16c0-.07-.2,0,0-.2,0,0-.21.14-.12.05l.14-.11L25,16.1c.05-.15.58-.43.53-.55a1.8,1.8,0,0,0-.59.29s-.06.11-.21.22l-.1,0a5.07,5.07,0,0,0-1.13.94l.32-.14-.19.18-.06,0c-.17.18,0,.07.15,0l-.2.2.45-.24c-.16.13-.35.22-.41.33.21-.11.35-.31.52-.36-.17.18-.34.3-.14.21a.8.8,0,0,1-.25.15c.16-.06.13.05.37-.11-.21.22.15.06-.26.37a1.33,1.33,0,0,1,.4-.17c-.52.33.06.14-.46.53.46-.3.31,0,.6-.13,0,0-.11.07-.09.05s-.12.18-.18.28a3.37,3.37,0,0,1,.73-.43c-.3.32-.44.3-.75.59.28-.24.35-.15.58-.36a2.74,2.74,0,0,1-.35.37c.44-.35.1,0,.39-.22-.17.23-.39.36-.21.3A.86.86,0,0,1,24.1,18.6Zm1.9.72Zm.1.11a.07.07,0,0,0,0-.06c.08-.08.17-.15.18-.13A.79.79,0,0,0,26.1,19.43Zm1.5-1.71s0,0,0,.08H27.5l0,0Z"/><path class="cls-2" d="M27.25,18h0l-.05.05.08-.06Z"/><path class="cls-2" d="M35.43,12.15h0l0,0Z"/><path class="cls-2" d="M28.09,21.81v-.08l0,.07Z"/><path class="cls-2" d="M36.8,12.32a.18.18,0,0,0,.07,0Z"/><path class="cls-2" d="M37.09,12.12l.12,0Z"/><path class="cls-2" d="M37.39,12l-.09-.1h0Z"/><path class="cls-2" d="M34.69,15.43h0C34.72,15.51,34.72,15.48,34.69,15.43Z"/><path class="cls-2" d="M35.05,14l.08.14S35.18,14.1,35.05,14Z"/><polygon class="cls-2" points="33.93 16.73 33.92 16.73 33.92 16.74 33.93 16.73"/><path class="cls-2" d="M35.08,14.15c.07,0,.07,0,.05,0S35.06,14.1,35.08,14.15Z"/><path class="cls-2" d="M38.3,11.31h0l0,0Z"/><path class="cls-2" d="M38.28,11.27v0S38.26,11.24,38.28,11.27Z"/><path class="cls-2" d="M38.23,11.16l0,.07S38.29,11.22,38.23,11.16Z"/><path class="cls-2" d="M38,11.45l.08.09Z"/><path class="cls-2" d="M37.9,11.55s.22.13.2.06L38,11.54C38.14,11.67,37.77,11.4,37.9,11.55Z"/><path class="cls-2" d="M36.54,10.87h.13c-.1-.07-.24-.17-.23-.22C36.09,10.47,36.66,10.82,36.54,10.87Z"/><path class="cls-2" d="M36.21,11c0-.07-.13-.12-.18-.17C36.09,10.88,36.11,10.91,36.21,11Z"/><path class="cls-2" d="M34.81,12.44l-.21-.21C34.6,12.29,34.68,12.31,34.81,12.44Z"/><polygon class="cls-2" points="35.65 13.77 35.81 13.87 35.62 13.67 35.65 13.77"/><polygon class="cls-2" points="33.97 12.49 33.95 12.45 33.98 12.57 33.97 12.49"/><path class="cls-2" d="M31.67,15l.26.26C31.9,15.14,31.63,14.85,31.67,15Z"/><path class="cls-2" d="M30.83,16.27c-.14-.12-.25-.17-.14,0C30.73,16.24,30.85,16.31,30.83,16.27Z"/><polygon class="cls-2" points="28.28 18.28 28.27 18.12 28.27 18.26 28.28 18.28"/><g class="cls-4"><image width="1341" height="4904" transform="translate(-32.49 -59.2)" xlink:href="../../../../../../../Downloads/screencapture-aurora-db30bf-webflow-io-2023-09-18-12_40_29.png"/></g></svg>