<?xml version="1.0" encoding="UTF-8"?>
<svg id="Capa_1" data-name="Capa 1" xmlns="http://www.w3.org/2000/svg" viewBox="0 0 377.21 152.38">
  <defs>
    <style>
      .cls-1 {
        fill: #5ca4b7;
      }

      .cls-1, .cls-2, .cls-3 {
        stroke-width: 0px;
      }

      .cls-2 {
        fill: #fffaf0;
      }

      .cls-4 {
        opacity: .2;
      }

      .cls-3 {
        fill: #fff;
      }
    </style>
  </defs>
  <g>
    <path class="cls-1" d="M58.53,20.22C10.66,10.56,13.47,82.39,19.67,106.73c2.12,8.31,5.9,17.26,14.4,21.05,4.53,2.02,9.75,2.25,14.79,2.44,81.87,3.07,164.02,6.14,245.63-.53,25.34-2.07,53.87-6.85,67.64-26.09,14.06-19.66,12.01-61.9-8.59-77.93-10.24-7.97-23.64-8.58-36.5-9.18-44.27-2.08-88.56-3.96-132.83-5.9-41.06-1.8-84.88-7.62-123.48,8.66"/>
    <g>
      <path class="cls-1" d="M64.81,26.52c-1.15.31-.2,1.46-.27,1.76,1.7-.98.09-2.09.27-1.76Z"/>
      <path class="cls-1" d="M82.67,17.5l-.21.65c.84-.7,1.7-1.41,2.59-2.04-.81.42-1.6.9-2.37,1.39Z"/>
      <path class="cls-1" d="M101.31,14.43c-2.09-2.29-6.78,1.27-10.23.91l-.64-.44-1.15,2.2c1.95-.59,4.22-1.28,6.36-1.87,1.07-.3,2.11-.56,3.07-.73.96-.13,1.84-.17,2.58-.08Z"/>
      <path class="cls-1" d="M111.73,18.82c-.67-.9,2.1-.95-2.33-.15.23.09.3.14.44.21.4-.04.95-.07,1.9-.06Z"/>
      <path class="cls-1" d="M109.83,18.88c-1.95.19,1.33.71,0,0h0Z"/>
      <path class="cls-1" d="M118.9,17.91l-2.57.92c.56.54,2.87.59,2.03,1.02,2.64-.54,2.09-1.08.55-1.94Z"/>
      <path class="cls-1" d="M121.33,16.07l-1.35.4c.24.23.6.3,1.35-.4Z"/>
      <path class="cls-1" d="M117.13,17.31l2.85-.84c-.39-.38-.45-1.16-1.31.31.22-.72-.34-.02-1.54.53Z"/>
      <path class="cls-1" d="M115.49,16.99c-1.49-.49-3.4-.7-.81-1.67-2.51.29-3.53.89-3.32,1.29.21.43,1.64.62,4.14.38Z"/>
      <path class="cls-1" d="M102.02,11.84l-2.07-.5c-.55.33-1.09.64-1.63.99.81-.51,3.91.26,3.7-.49Z"/>
      <path class="cls-1" d="M135.23,19.15c.18-.51-.86-1.39-1.04-2.05l-1.96.56c1,.37,2.89.73,3,1.49Z"/>
      <path class="cls-1" d="M134.19,17.1l2.95-.83c-2.62-.15-3.1.26-2.95.83Z"/>
      <path class="cls-1" d="M121.76,13.38l-4.75,2c1.88-.67,3.77-1.4,5.68-2.03l-.93.03Z"/>
      <polygon class="cls-1" points="146.41 19.6 144.69 20.71 147.74 19.05 146.41 19.6"/>
      <path class="cls-1" d="M153.9,19.75c-1.29.92,1.62,1.76.27,2.29,2.05-.06,3.83-.81,5.44-1.49-1.69.33-3.46.13-5.71-.81Z"/>
      <path class="cls-1" d="M162.32,19.6c-.85.19-1.75.56-2.71.96.9-.18,1.8-.45,2.71-.96Z"/>
      <path class="cls-1" d="M142.15,16.7c.22.32.62,1.15,2.26,1.55l-1.1-1.49c-.35-.02-.75-.04-1.16-.06Z"/>
      <path class="cls-1" d="M143.26,16.72l.04.05c1.25.07,2.13.14,2.5.18-.32-.03-1.09-.1-2.54-.23Z"/>
      <path class="cls-1" d="M141.85,16.68c.11,0,.19.01.29.02-.11-.15-.17-.2-.29-.02Z"/>
      <path class="cls-1" d="M129.46,14.65c1.73-.78,5.37-1.58,1.88-2.88-1.26.97.73,1.71-1.88,2.88Z"/>
      <path class="cls-1" d="M140.48,14.83l-3.13-.44c.05.38.6.96-.27,1.33l3.4-.89Z"/>
      <polygon class="cls-1" points="142.03 14.42 140.48 14.83 141.64 14.99 142.03 14.42"/>
      <path class="cls-1" d="M156.98,17.95c1.4-.55,2.89-.53,4.59-.53-1.8-.39-3.65-.64-5.43-.74-.27.44-1.1,1.21.84,1.27Z"/>
      <path class="cls-1" d="M150.31,17.19c.1-.03.22-.04.31-.07-.18-.13-.33-.18-.31.07Z"/>
      <path class="cls-1" d="M178.29,18.35c-.09-.08-.17-.19-.26-.28-.03.08-.04.16-.08.25l.33.03Z"/>
      <path class="cls-1" d="M155.86,16.39c-1.34-.35-2.17-.04-2.97.36,1.02-.09,2.1-.12,3.26-.07.12-.2.15-.33-.29-.29Z"/>
      <path class="cls-1" d="M167.01,19.19c-.69-.34-1.48-.65-2.31-.93.67.5,2.04,1.29,2.31.93Z"/>
      <path class="cls-1" d="M151.05,17.55c-.07.02-.13.04-.21.05.43.33.38.18.21-.05Z"/>
      <path class="cls-1" d="M151.05,17.55c.71-.17,1.27-.51,1.84-.8-.83.07-1.6.19-2.27.37.16.11.32.27.44.42Z"/>
      <path class="cls-1" d="M183.8,9.32c-.3,1.33-3.95,2.39-6.97.8-3.1.83-1.36,5.36,1.21,7.96.12-.58.15-1.12,3.35-1.76-1.07-.79-6.91-2.05-4.19-3.14,4.2-.49,3.39.64,5.39,1.45-1.64-1.75,5.4-2.18,4.6-4.69l-3.68.7c-.05-.39,1.29-.93.3-1.33Z"/>
      <path class="cls-1" d="M172.03,17.62l-1.31.09c1.46.32,2.49.91,4.38,2.07,2.2-.54,2.68-1.02,2.85-1.46l-6.38-.53.45-.18Z"/>
      <path class="cls-1" d="M164.93,17.39c1.09-1.4,4.22-1.84,2.42-3.53-3.79-.12-2.72,1.06-5.02,1.57,6.13,0-1.8.71,2.56,1.79-1.21.18-2.3.19-3.32.19,1.09.24,2.14.52,3.12.85-.05-.04-.09-.06-.13-.1h-.03s0,0,0-.02c-.25-.2-.33-.31-.04-.19.02-.02.1-.02.13-.02.05-.2.18-.37.31-.53,1.75.4.26.39-.31.53-.02.07-.08.14-.09.21,0,0,.01.01.02.02l6.17-.45c-1.29-.27-2.92-.32-5.8-.32Z"/>
      <path class="cls-1" d="M134.64,8.7c.19.13.18.24.19.34.4-.17.55-.29-.19-.34Z"/>
      <path class="cls-1" d="M137.14,9.62c-.45.2-.83.77-2.27.6-1.24-.46.02-.7-.04-1.18-.88.37-3.06.99-.35,1.75l.44-.19c2.44.52,5.53,2.49,5.1,2.66-.67-1.34-1.27-2.3-2.87-3.64Z"/>
      <path class="cls-1" d="M151.25,13.04l5.12-.45-2.52-1.4.09.77c-2.88-.45-2.3.52-2.69,1.09Z"/>
      <polygon class="cls-1" points="178.84 19.11 178.08 20.61 181.17 18.59 178.84 19.11"/>
      <polygon class="cls-1" points="185.53 19.24 185.22 20.57 187.01 19.84 185.53 19.24"/>
      <path class="cls-1" d="M249.54,140.48l-1.49.44c.71-.14,1.16-.29,1.49-.44Z"/>
      <path class="cls-1" d="M260.46,140.06l.23-.67c-.49.39-.68.67-.23.67Z"/>
      <path class="cls-1" d="M344.12,29.68c.23.48.43.99.62,1.46.18.47.3.95.44,1.29.26.69.51.97.85.3.15-.5.27-.98.4-1.48-.56-.18-.98-.44-1.35-.7-.38-.25-.69-.55-.95-.87Z"/>
      <path class="cls-1" d="M347.13,117.16c.25.02.52.04.78.06.21-.7.4-1.35.55-1.95-.38.57-.84,1.21-1.33,1.89Z"/>
      <path class="cls-1" d="M348.67,123.3c-1.08.22-2.17.38-3.24.56.77-.02,1.82-.16,3.24-.56Z"/>
      <path class="cls-1" d="M189.94,143.26l-1.76,1.5c2.75-.02,1.54-.77,1.76-1.5Z"/>
      <path class="cls-1" d="M253.4,21.71c1.86.66,3.34.96,4.66,1.09-2.23-.94-4-2.29-4.66-1.09Z"/>
      <path class="cls-1" d="M253.13,124.7c-.9.31-1.27.63-1.23.95.93-.3,1.44-.6,1.23-.95Z"/>
      <path class="cls-1" d="M263.49,23.04c-.32-.16-.65-.25-.98-.39-1.39.18-2.78.32-4.46.15,1.65.7,3.55,1.17,5.44.24Z"/>
      <path class="cls-1" d="M7.91,74.5c.07-.16.1-.36.18-.51-.2-.05-.21.18-.18.51Z"/>
      <path class="cls-1" d="M42.62,26.98c-.2.12-.51.2-.81.35-.3.15-.62.31-.94.47.18-.03.39-.1.67-.25.14-.08.29-.17.46-.27.18-.08.39-.18.61-.3Z"/>
      <path class="cls-1" d="M212.15,21.07c-1.41.03-.23.15,0,0h0Z"/>
      <path class="cls-1" d="M205.58,14.96c.31-.15.54-.35.59-.69-.13.35-.34.56-.59.69Z"/>
      <path class="cls-1" d="M277.9,14.53s.07,0,.12.01c-.4-.31-.34-.25-.12-.01Z"/>
      <path class="cls-1" d="M210.07,20.3c.52.2,1.12.38,1.78.52-.29-.13-.83-.29-1.78-.52Z"/>
      <path class="cls-1" d="M210.32,21.01c-.48-.08-.86-.14-1.22-.2-.19.24-.04.4,1.22.2Z"/>
      <path class="cls-1" d="M214.11,21.07c-.8-.01-1.55-.12-2.27-.25.27.11.38.2.31.25.41,0,1,0,1.96,0Z"/>
      <path class="cls-1" d="M89.98,136.16c-.09-.05-.2-.08-.3-.15-1.44.56-.81.49.3.15Z"/>
      <path class="cls-1" d="M375.27,49.15c-.03-.07-.08-.09-.11-.15,0,.07,0,.17,0,.23l.1-.08Z"/>
      <path class="cls-1" d="M377.57,54.35c-1.1-1-1.72-1.81-2.02-2.61-.3-.8-.34-1.59-.39-2.51-1.22.95-2.41,1.87-3.67,2.76,2.01.7,4.09,1.48,6.07,2.36Z"/>
      <path class="cls-1" d="M223.41,141.72l3.6,1.23c-4.26,2.28-7.4,1.6-4,3.38.4-4.61,13.89-.8,14.25-5.45l2.38.88c-.68-.02-.77.25-1.44.23,4.65,2.04,3.28-3.44,9.19-3,2.06.29,3.53.86,2.15,1.48l4.52-1.35c1.33.03,1.05.84-.28.81l6.96-.7-.04.14c.96-.77,3.15-1.98,4.23-2.53,1.8.55-.86.54-.38,1.09l3.79-1.35c1.64,1.1-1.49,2.44-4.17,2.43,3.86,4.37,3.14-1.35,11.08.86l-3.62.8c2.51,2.46,5.31,1.36,9.56,2.7-1.05-.76-8.54-3.58-4.42-4.97,1.2.27,2.77.36,4.97-.74.13,1.63,2.31,1.07,5.07.77l-.03,2.18c2.95-.85,2.63-1.93,4.31-3.03,3.35-.04,4.16,1.59,5.09,2.93,5.47-.14-3.97-2.35,2.4-3.32,4.57.4,7.7-.81,12.91-2.85,3.27.27-.36,1.39.86,1.84l2.55-2.13c.69-.08.56.48.49.77,2.26-1.08-.15-2.17,3.42-3.4.28-1.24,2.3-.79,4.82-.46,1.26.18,2.63.22,3.95.04,1.31-.18,2.55-.64,3.5-1.65,1.29.26-.18,1.44.4,2.14,1.45-.88,2.49-1.52,3.31-2.01.8-.53,1.38-.93,1.91-1.32,1.05-.81,1.98-1.56,3.98-3.72l2.38-.22c.8-.09,1.58-.24,2.39-.36-1.89.02-2.02-.91-1.41-2.19.6-1.3,1.99-2.87,3.1-4.5-1.36-.1-2.5-.25-3.23-.28.75-.55,1.43-1.21,2.13-1.83.68-.63,1.38-1.23,2.03-1.88.71-.09.73.89.4,2.11.24-.34.45-.68.58-.98,2.06-.46,1.97,1.14,1.37,3.02-.84,0-1.69-.04-2.5-.09-.55,1.84-1.07,3.83-.21,4.8.23-.42.78-.99,1.44-1.51-.16.51-.22.91.04,1.01.29.09.62-.65,1.19-1.62.81.46,1.64.9,2.48,1.34l-.23-1,3.82-1.74c1.28-.61,2.49-1.38,3.75-2.09.8-1.39,1.31-3.01,1.85-4.51.25-.77.54-1.5.75-2.31.21-.79.42-1.59.64-2.42.23-.79.46-1.6.7-2.44.2-.86.47-1.71.69-2.6.46-1.78,1-3.63,1.6-5.67.76,2.67,2.44,1.63,4.32,2.57-.75.36-1.29.94-1.7,1.71-.39.77-.72,1.7-1.06,2.73-.31,1.04-.76,2.14-1.25,3.27-.56,1.06-1.25,2.09-2.11,2.98,1.79-1.87,2.25-.84,2.09-.08l1-2.09.86-2.2c.5-1.47.97-2.92,1.3-4.38.72.48,1.22.2,1.75-.43.51-.63,1.01-1.61,1.8-2.55-1.9.16-1.8-1.57-1.31-3.73.45-2.18,1.27-4.89,1.1-6.65,1.13.04,2.2,1.12.72,5.15,1.91-1.89,1.33-3.68.63-5.33-.33-.83-.72-1.65-.83-2.5-.11-.85.06-1.73.75-2.74-.11.99-.37,1.49.12,1.98-.13-.62-.16-1.43-.09-2.27.08-.84.23-1.71.41-2.47.38-1.51.91-2.57,1.35-1.85-.01.34-.05.67-.08,1,.56-3.31.77-8.44.11-12.78-.62-4.35-2.04-7.82-3.52-8.06.36-.13,3.56.32,4.19.66-3.76-3.55-7.76-6.62-11.89-9.06,1.32.09,3.13-1.16,4.94-1.92,1.79-.75,3.71-.98,5.12,1.6-.03-.84-.09-1.78-.41-2.89-.29-1.11-.86-2.4-1.87-3.88.06,1.22-2.45,3.78-3.15,2.48.64-2.36.64-3.17.63-4.06-.02-.91-.16-1.87-.28-4.76.17.89-.85,1.32-2.03,1.27-1.2-.05-2.49-.56-3.08-1.67.71.06,3.2-2.13,4.05-1.47-1.13-.67-2.25-1.3-3.37-1.88-1.17-.56-2.26-1.11-3.44-1.56,1.53.85,2.8-1.66,2.65-3.6-.03.26-.28.09-.66-.33-.38-.42-.94-1.05-1.54-1.77-1.21-1.41-2.76-3.02-3.64-3.48.61.87,1.13,1.78,1.62,2.69-1.28-1.51-2.67-2.24-3.88-2.65-1.28-.33-2.43-.36-3.58-.27-1.17.12-2.26.2-3.47.17-.61-.02-1.22-.11-1.88-.29-.67-.14-1.38-.38-2.15-.75.52-.2,1.49-1.09,1.94-2.18.45-1.07.34-2.42-1.42-3.32-.59.3-1.54.82-2.69,1.51-1.08.64-2.4,1.43-3.88,2.31-2.81,1.64-5.79,3.33-8.65,3.72l-.94-1.23c-1.49.24-2.99.54-4.48.85,1.48-1.36,4.27-3.42,7.48-5.18,3.19-1.78,6.9-3.18,9.61-3.65-1.26-.79-1.38-1.16-1.7-1.46-.32-.31-.85-.51-2.95-.91-1.3-1.33,2.62-1.11,3.94-.78-3.3-1.09-6.59-1.88-9.8-2.5.08,1.17-1.84,1.48-3.67,1.86-1.85.35-3.63.72-3.52,1.67,3.34-.56,6.79-1.03,10.43-1.24.03,1.15-1.74,2.5-4.19,3.49-2.46.98-5.59,1.68-8.72,1.3-1.56-1,1.44-3.97,1.37-4.74-.92.71-6.11,1.17-6.65.6l2.72-1.09c-3.46-1.03-5.82,2.76-9.9.4-1.43-.21-4.16-3.12-4.48-1.78,2.23,2.7,2.31,10.75.66,12.63-.5-.2-7.45-2.82-9.03-4.17-2.28-2.14,3.79-4.69,1.85-6.53-.12.62-1.46,1.33-2.02,1.55-1.49-.6.72-1.9-2.58-1.76-.66,2.28-6.68-.49-1.64,1.88-3.25.52-3.4-.63-7.18-.69,1.13,1.54-3.62,4.92-6.88,5.44.22-.58-.47-1.37-.81-1.74-6.58-.5-10.07-1.71-16.22-2-.54-.58-3.48-1.39-2.17-2.33-.9.37-1.75,1.11-3.65,1.09-3.58-2.16,4.24-.12,1.55-2.64-.3,1.33-4.99,1.63-7.72,2.35.74,2.11,6.22.67,8.96-.04-.12,2.86-4.96,5.64-11.44,6.67-5.14.48-2.13-1.94-3.03-1.58-9.57-.92-8.39,4.62-16.26,2.21-3.08-1.96.02-3.63-.62-4.97,4.19-.5,6.33,1.44,9.15,1.49l-3.43-1.02c1.35-.55,4.15-.88,5.64-.29-2.57-1.75-16.19-1.03-23.52-2.87-1.34.55-3.64,1.08-2.6,1.86l2.35-.15c2.09,1.56-4.5,1.83-1.56,2.65-3.19.89-6.78,2.36-11.16,1.33l-.74-2.11c.07.61,2.83,1.36,4.1.79-1.88.84-6.65-3.11-8.79-.48l3.03,1.58c-3.2.9-7.19,2.93-11.08,2.1,1.69,2.13.91-.19,3.59,2.33-2.28-3.09,10.01.57,6.28-2.74,2.73,2.91,4.89,1.4,8.52,3.94-.09-.69-1.26-1.37,2.01-.88.16-.19.52-.43.75-.57.1.02.13.04.22.06-.06-.03-.11-.06-.18-.09.15-.1.16-.12-.07-.03-.77-.33-1.39-.72-1.63-1.12,1.7-1.5,6.93-1.22,8.73-1.95,1.94.41-.85.75.18,1.53l2.7-1.1c.19,1.53,5.07,2.76.44,3.44l4.13.25c2.4.96,5.73,1.45,7.83.9,1.94.42,5-1.46,3.25-.35l6.53-.65.04.38c6.39.48,13.29-1.93,20.49,1.14,2.17-.29,4.42-.66,8.01-.07l.64,1.35c2.79-.34,8.25,1.68,9.5.37,2.82,3.67,13.39,1.37,18.23,2.21l.26-1.71c3.34.25,6.58-.1,10.77-.6l-.19-1.53c3.62-1.07,9.26,1.45,14.66,1.66-.4.55-1.78.31-2.74-.1,3.19,1.9,6.51,1.53,9.74,1.24,3.2-.3,6.45-.47,8.54,1.53.7-.08,1.25.03,1.7.23.45.21.84.47,1.15.84-.11-.04-.21-.06-.31-.05.11.07.28.15.45.22.38.47.78.94,1.17,1.43-.25-.58-.6-1.02-.93-1.33.44.18,1.02.35,1.62.58.62.21,1.32.4,1.99.63-.12.57-.24,1.13-.38,1.68.1.04.17.08.28.12.68,1.22,1.3-.01,1.41-1.46.72.2,1.46.31,2.11.32-.19.71-.08,1.15.19,1.49.27.32.7.55,1.11.84.42.28.86.55,1.12.98.25.44.33.99.05,1.74.42-.06.97.22,1.58.7.31.23.65.49.99.79.33.31.68.63,1.03.96,1.42,1.29,2.89,2.66,4.36,2.39-.31.23-.24.73-.67-.03.14.43.28.87.43,1.29.14.43.28.85.46,1.25.37.79.81,1.52,1.49,2.13l-1.64,1.47c1.31.86,2.67,1.78,3.93,2.8-.22,1.36-.48,2.32-.95,2.71-.47.39-1.09.18-2.19-.7,1.95,2.35,2.41,3.49,2.86,4.47.24.49.42.97.78,1.6.36.63.87,1.41,1.64,2.58l-1.36-.05c.34,1.71,2.38,4.42,1.34,5.6-1.14,2.08-.97,6.95-1.65,12.54-.33,2.78-.83,5.74-1.7,8.48-.85,2.74-2.04,5.27-3.51,7.17,2.18-.07,1.34.79.26,1.81-.56.48-1.15,1.02-1.47,1.51-.33.48-.36.97.25,1.44-1.07.02-2.16.71-2.11-.89-.71,2.09-2.23,3.18-3.25,4.26-.55.53-1.11.98-1.5,1.62-.2.31-.37.66-.51,1.06-.07.2-.13.42-.18.65-.07.22-.13.45-.18.7-1.03-.36-.15-1.65-.89-1.76-.14.37-.58,1.54-1.31,1.42-.71-.13,0-1.03.27-1.78-.84.75-1.38,1.47-1.7,2.19-.35.69-.53,1.34-.52,2,0,1.32.59,2.6,1.19,3.83-1.42.26-2.44.48-3.16,1.03-.73.53-1.15,1.41-1.63,2.63-1.28-.37-3.03-.5-.3-2.25-.4.21-1.29.5-2.34.92-.52.21-1.09.45-1.68.68-.6.23-1.22.46-1.83.69-2.38,1.01-4.61,1.97-4.35,3.04-.37-.16-1,.02-1.59.29-.59.26-1.17.58-1.37.77-2.06.54-3.18.81-4.32,1.03-1.14.22-2.22.55-4.27,1.09.41.03.82.08,1.22.1-.52,1.46-1.37,1.77-2.49,1.87-1.11.09-2.49-.05-4.17.38l.05-.28c-4.04-.22-4.85.05-5.65.39-.8.31-1.61.62-5.61.01l.62,1.56c-.15,1.79-1.96,1.49-4.26.93-2.3-.53-5.08-1.37-7.3-.5l1.73.78c-2.4,1.42-7.39-4.21-9.91-4.45-.57-.26.83-.55,1.57-.83-6.72-1.57-.69,2.19-5.56,3.04-.98-1.08.96-3-2.35-2.97-1.69-.81-9.33,4.3-13.97,2.38,1.04.82,2.08,1.65-.17,2.45-3.49.52-9.62-2.88-12.65.06-.46-.22-.63-.44-.66-.66-2.64.87-8.65,1.54-10.21,3.11-1.34-2.76-5.47-1.93-9.3-1.07-3.83.83-7.35,1.71-7.38-.88l-8.24.46.21-.53c-5.27-.27-7.12,1-8.96,2.26-1.22-.34-.34-.83-.24-1.1-7.72-.92-8.47-.75-14.93,1.87l-.68-1.68c-1.75,1.01-11.14-2.63-18.71-.71.08-.19.23-.52.84-.75-8.53,1.91-20.29-4.87-23.51,1.17l-5.65,1.41c7.27.6-1.13,2.63,1.84,3.7-2.87.31-7.37-1.98-3.84-2.23l.54.32c1.35-3.15-9.02-1.32-8.77-3.49-14.31-.16-28.21-2.36-41.6-2.94l1.46,2.53-4.67-.3c-1.21-.62-1.58-1.99,1.75-1.78-1.71-1.46-5.64.98-5.75,1.52-6.5-1.23,2.65-2.8.65-2.93l-2.73.09.6.31c-2.24.93-2.47,2-6.48,1.74-2.52-.59-1.25-1.57-2.24-1.71.01-.18-.32-.27-1.53-.13l-5.89-.43,2.29,2.04c-2.65.87-5.54-.3-2.9,2.01-1.93-1.78-7.42-2.29-12.73-2.5-2.65-.08-5.25-.15-7.33-.21-2.04-.08-3.48-.25-4.01-.57-3.39,1.1-6.63.56-9.46-1.34.25.41.28,1.13-.12,1.57-.2.22-.52.36-.95.29-.43-.07-1.03-.29-1.67-.88.93-.72,1.13-1.43,1.01-2.08-.11-.68-.57-1.31-1.06-2.09-1-1.48-2.17-3.56-1.3-5.44-.39,1.47-1.64-.27-2.7-2.24-1.07-1.91-2.05-3.9-2.87-1.49-.59-2.94,1.53-.72,1.9-3.13-1.83-3.05-2.34-7.06-2.53-11.31-.19-4.26-.04-8.74-.56-13.24-.6-.12-1.43,1.47-2.42-.46.9-1.66,1.88-3.29,2.83-4.89-.28-1.76-3.48-1.65-1.33-4.91-.51.45-1.29,1.13-1.45-.08.83-4.46,1.36-8.91,1.98-13.33.63-4.41,1.33-8.82,2.54-13.03,1.2-4.19,2.96-8.21,5.53-11.36.29-.42.65-.77,1.01-1.12l1.06-1.04c.73-.65,1.55-1.16,2.32-1.71.85-.42,1.67-.84,2.53-1.14l1.32-.31c.44-.09.85-.21,1.31-.2-.55-.1-.87-.12-1.06-.21-.19-.09-.23-.21-.17-.35.11-.33.73-.62,1.38-.94-.99.14-.61-1.34-1.11-2,.58-.05,1.13-.13,1.7-.15l1.71.07c1.08-.03,2.23.27,3.28.43.1-.3.28-.55.52-.76.25-.2.57-.3.92-.4.72-.18,1.58-.28,2.45-.3,1.76.11,3.43.08,3.94-.85-.77-.02-1.51.15-2.25.22,1.55-1.19.7-2.64-.78-4.21-.36-.39-.76-.8-1.15-1.19-.39-.36-.78-.73-1.13-1.1-.69-.75-1.2-1.52-1.11-2.34-.5.39-1.04.62-1.62.75-.58.13-1.21.25-1.89.26-.68.02-1.4-.03-2.17-.09-.77-.04-1.57,0-2.42,0-.42.01-.85.03-1.29.06-.44.02-.88.07-1.3.19-.86.2-1.73.47-2.56.83-.21.09-.42.19-.62.29-.2.12-.38.25-.57.39-.37.27-.73.57-1.07.9-.66.67-1.29,1.39-1.65,2.39-1.65.47.44-1.69-.67-1.76-.34,1.15-.86,2.11-1.75,3.05-.43.49-.89,1.02-1.49,1.55-.57.55-1.33,1.08-2.05,1.78l.03-.58c-3.55,4.46-5.57,7.82-7.59,11.35-1.98,3.54-3.95,7.33-5.69,13.06l1.75-.5c-.74,2.41-1.32,2.83-1.96,3.92.94,1.64,1.28-.09,1.72-1.83.39-1.75.97-3.49,1.95-1.91-1.01.61-1.68,2.01-2.27,3.78-.29.88-.48,1.86-.69,2.88-.21,1.02-.38,2.07-.51,3.12-.63,4.2-.95,8.24-2.87,9.26-.21,3.82,1.88-1.02,1.72,2.76l-1.03.98,1.27.98c-.26,2.46-1.48,3.72-2.34,3.82.1-.61-.24-1.73-.31-2.38-1.25,3.27.57,9.16.27,10.27.15-1.23.27-2.46.45-3.68.65,5.17.99,10.88,1.85,16.57.41,2.84.99,5.68,1.76,8.42.8,2.77,1.83,5.38,3.2,7.75.15-.34.29-.67.46-1.01,1.97,3.57,2.53,5.09,3.07,6.82.3.86.57,1.76,1.22,2.92.61,1.16,1.61,2.6,3.4,4.33l-.39-.14c1.92.98,4.09,2.44,6.37,3.9-1.3-.29-.55.71.24,1.67.79.9,1.6,1.81-.25,1.43,2.59.94,4.24,1.11,5.3,1.22,1.06.07,1.58,0,2.01-.14.43-.13.76-.34,1.39-.61.62-.28,1.54-.62,3.02-1.15.38.47.77.93,1.16,1.39,2-.97,2.21-1.53,6.26-1.7-3.35.95,2.5,2.01-1.26,3.29,8.31,3.06,12.55-2.31,16.25,1.85,3.98-3.33-7.18-2.2-5-2.86-1.76-1.2,3.27-2.48,5.89-2.03,2.67.17,4.39,4.61,11.12,4.79-.67-.04-.72.22-1.39.18,2.49.98,4.98-1.02,8.02.53,1.81-2.04,4.01.26,4.6-2.4l-6.2.41c3.53-.58,6.92-3.6,12.64-1.88-.47.53-2.21,1.18-3.4,1.53,1.66.85,3.27-.41,4.99.46-.59,2.67-7.53.32-11.35,2.24,1.77,1.2,7.17-1.7,5.18,1.14,2.84-3.6,6.62.7,11.28-1.98l-.35,1.6c.73-.23,2.25-.94,3.58-.86l-2.47,2.01c3.75-1.66,7.08,1.79,10.66.92-7.43-.18-1.61-1.99-4.71-3.26,9.22-1.87,5.14,4.36,15.43,3.88-1.4.19-5.19-1.11-3-1.8,1.94.39,4.51,1.07,5.68,1.95,6.81-.17-1-1.68,1.92-2.59,2.27,2.01,3.36-.72,6.35-1.28l-.02,1.63c7.72,1.23,2.13-3.35,9.07-1.93l-2.99,2.2,3.65-.51-.79,1.85c3.99-1.31,5.21-.93,9.08-.34-.88-1.17.56-2.96,3.99-2.95,2.33,1.01-1.34,1.54,3.54,1.37-1.11,1.01-2.34,2.28-4.43.74-.23.53-1.1,1.01-1.33,1.53,2.51,1.17,6.34.35,8.1.35-.68-.07-1.49-.17-1.9-.4l7.09-2.18c1.1.63.22,1.11-.66,1.58,1.43-.16,2.43-.9,4.53-1.02-.56,1.32-.44,2.69-3.42,3.29l6.75-1.41c.45.58,3.45,1.6,2.57,2.09,3.74.78,9.17-2.52,14.12-1.52.26-.26.77-.51,1.82-.7,4.65.26,8.79,1.92,14.3.01l3.16,2.34c4.32-.6-4.28-2.94,2.9-3.94,5.08-.83,1.93,2.01,3.73,2.64,2.52-1.22,6.86-3.8,11.59-1.96-1.54.49-2.76.16-4.21.37ZM276.66,138.4c-1.01.4-3,1.59-3.82.67,1.06-1.94,2.02-1.1,3.82-.67ZM355.6,115.28c-.27.99-1.53,1.45-3.03,1.77.75-.72,1.78-1.25,3.03-1.77ZM227.61,20.42s.08-.04.11-.07c2.26.74,1.46.45-.11.07ZM222.89,19.5c-.49.21-.46.43-.27.67.35-.4,1.42-.38,2.63-.21-.32-.44-.92-.76-2.36-.46ZM75.35,124.64l.91.46c-2.11.39-1.51,0-.91-.46Z"/>
      <path class="cls-1" d="M348.54,122.56c-.41-.08-.63-.31-.84-.54-.26.42-.11.75.84.54Z"/>
      <path class="cls-1" d="M190.27,142.98c-.05-.01-.11,0-.16-.02-.09.1-.14.2-.16.3l.32-.28Z"/>
      <path class="cls-1" d="M297.16,8.93c.97.28,1.5.6,1.85.93.07-.4-.36-.75-1.85-.93Z"/>
      <path class="cls-1" d="M197.58,21.16l3.06-.29c-1.48.02-1.99-.36-2.72-.66.05.38.61.96-.35.95Z"/>
      <path class="cls-1" d="M171.6,9.79c-.46.18-.94-.03-1.39.15l.08.77c1.9.06,3.26-.48,1.32-.91Z"/>
      <path class="cls-1" d="M195,15.61c-.18-1.38-2.11-1-4.26-.84.13,0,.25,0,.38.02-.71,1.89,1.59,1.36,3.88.83Z"/>
      <path class="cls-1" d="M190.25,14.79c-.66.04-1.33.04-1.97-.05-.28.76.79.2,1.97.05Z"/>
      <path class="cls-1" d="M216.82,20.14c-1-.4-.71,1.73-1.26,1.14-1.21,1.7,6.84-1.82,1.26-1.14Z"/>
      <polygon class="cls-1" points="193.47 11.01 194.16 12.74 195.42 11.42 193.47 11.01"/>
      <path class="cls-1" d="M210.26,13l-3.39-.62c.04.29-.4.43-.94.54,2.1.15,4.38.59,4.33.08Z"/>
      <path class="cls-1" d="M205.93,12.92c-1.09-.08-2.13-.09-2.76.16.59,0,1.87,0,2.76-.16Z"/>
      <polygon class="cls-1" points="198.15 10.7 199.15 11.1 201.55 11.33 198.15 10.7"/>
      <path class="cls-1" d="M246.88,14.95l3.74-.32c.41-.56-.59-.96-1.99-.8-.91.37-2.3.53-1.75,1.12Z"/>
      <path class="cls-1" d="M235.84,9.81c.99.4,1.04.78,1.58,1.36l.21-2.1-1.79.73Z"/>
      <path class="cls-1" d="M246.71,9.8c.4-.57,5.48-1.43.75-1.51-.4.56-4.15.88-.75,1.51Z"/>
      <polygon class="cls-1" points="302.64 14.95 301.7 14.93 301.67 18.38 302.64 14.95"/>
      <path class="cls-1" d="M355.72,16.06c-2.17-1.85-2.78-1.44-3.22-1.14-.23.16-.45.33-.84.26-.39-.08-.97-.38-1.96-1.1-.74.12.08.71.87,1.28.79.62,1.55,1.23.83,1.25,1.61.32,2.7.92,3.39,1.03.69.11,1-.22.95-1.59Z"/>
      <path class="cls-1" d="M351.39,16.62c-.51-.11-1.05-.23-1.66-.25.9.18,1.35.26,1.66.25Z"/>
      <polygon class="cls-1" points="50.63 27.66 52.8 28.5 51.44 27.27 50.63 27.66"/>
      <path class="cls-1" d="M55.34,25.53c.08.75.16,1.51.22,2.26.57-.58,1.17-1.17,1.79-1.74-.58.01-1.67.04-2.01-.52Z"/>
      <path class="cls-1" d="M284.9,142.27l.18-.54c-.48-.54-1.16-.53-2.5-.52l2.32,1.06Z"/>
      <polygon class="cls-1" points="246.02 142.77 246.69 142.79 245.37 140.85 246.02 142.77"/>
      <path class="cls-1" d="M213.55,146.18c1.33.06,2.88-.4,4.22-.33-2.89.4-4.62-2.14-4.22.33Z"/>
    </g>
  </g>
  <g>
    <g class="cls-4">
      <path class="cls-2" d="M185.71,54.03c12.83.48,25.36-.11,38.07-2.35,3.37-.59,6.64-1.59,9.48-3.87,2.84-2.28,4.89-6.5,4.07-10.51-.78-3.79-3.88-6.32-7.04-7.1-10.03-2.46-20.18-2.34-30.32-2.05-16.36.47-33.38-2.16-49.54,2.05-2.9.76-5.88,1.8-8.09,4.2-2.21,2.4-3.41,6.52-2.04,9.71,1.15,2.7,3.7,4,6.07,4.97,12.6,5.16,26.15,6.86,39.36,4.93"/>
      <g>
        <path class="cls-2" d="M185.15,51.87c.32,0,.15-.37.19-.44-.51.15-.16.54-.19.44Z"/>
        <polygon class="cls-2" points="180.06 53.27 180.14 53.11 179.39 53.54 180.06 53.27"/>
        <path class="cls-2" d="M175.16,53.44c.47.67,1.78-.14,2.65.08l.15.14.37-.54c-1.05.11-2.42.52-3.17.32Z"/>
        <path class="cls-2" d="M172.6,51.99c.15.26-.56.19.59.1-.06-.03-.07-.05-.11-.07-.1,0-.25,0-.49-.04Z"/>
        <path class="cls-2" d="M173.09,52.03c.51,0-.32-.23,0,0h0Z"/>
        <path class="cls-2" d="M170.74,52.07c.23-.05.45-.13.68-.19-.13-.15-.72-.22-.49-.31-.69.07-.56.23-.18.5Z"/>
        <path class="cls-2" d="M170.08,52.5l.35-.07c-.06-.07-.15-.1-.35.07Z"/>
        <path class="cls-2" d="M171.18,52.27c-.25.06-.5.11-.75.15.09.11.09.32.34-.05-.07.19.09.02.41-.11Z"/>
        <path class="cls-2" d="M171.59,52.39c.37.16.85.27.17.46,1.29-.04,1.12-.5-.17-.46Z"/>
        <path class="cls-2" d="M174.91,54.11l.52.19.44-.22c-.22.11-.99-.18-.96.02Z"/>
        <path class="cls-2" d="M166.64,51.36c-.06.13.18.39.21.57l.51-.1c-.24-.12-.71-.26-.72-.47Z"/>
        <path class="cls-2" d="M166.85,51.93l-.77.16c.66.1.79,0,.77-.16Z"/>
        <path class="cls-2" d="M169.91,53.21c.42-.14.84-.26,1.26-.41-.5.15-.99.27-1.49.4h.24Z"/>
        <polygon class="cls-2" points="163.86 50.97 164.32 50.71 163.51 51.07 163.86 50.97"/>
        <path class="cls-2" d="M162.01,50.7c.35-.21-.33-.51.02-.62-.5-.03-.97.09-1.39.21.43-.03.85.1,1.37.4Z"/>
        <path class="cls-2" d="M159.94,50.45c.22-.02.45-.09.7-.16-.23.01-.46.06-.7.16Z"/>
        <path class="cls-2" d="M164.84,51.84c-.04-.09-.12-.32-.52-.47l.23.42c.09.01.19.03.29.05Z"/>
        <path class="cls-2" d="M164.56,51.81h0c-.31-.07-.53-.11-.62-.12.08.02.27.05.63.12Z"/>
        <path class="cls-2" d="M164.91,51.86s-.05,0-.07-.01c.02.04.04.06.07.01Z"/>
        <path class="cls-2" d="M167.98,52.69c-.46.17-1.4.3-.55.73.34-.23-.14-.47.55-.73Z"/>
        <path class="cls-2" d="M165.2,52.39l.77.2c0-.1-.12-.27.1-.35l-.88.15Z"/>
        <polygon class="cls-2" points="164.8 52.45 165.2 52.39 164.91 52.31 164.8 52.45"/>
        <path class="cls-2" d="M161.18,51.09c-.37.1-.73.03-1.15-.03.43.17.88.31,1.31.39.08-.11.32-.29-.16-.36Z"/>
        <path class="cls-2" d="M162.81,51.49s-.05,0-.08,0c.04.04.08.06.08,0Z"/>
        <polygon class="cls-2" points="156 50.09 156.04 50.17 156.07 50.11 156 50.09"/>
        <path class="cls-2" d="M161.4,51.54c.32.13.54.07.75,0-.26,0-.53-.03-.81-.07-.04.05-.05.08.06.08Z"/>
        <path class="cls-2" d="M158.77,50.39c.15.12.33.23.52.34-.14-.15-.44-.42-.52-.34Z"/>
        <path class="cls-2" d="M162.64,51.37h.05c-.1-.11-.09-.07-.05,0Z"/>
        <path class="cls-2" d="M162.64,51.37c-.18.02-.33.1-.48.16.21,0,.41,0,.58-.03-.04-.03-.07-.08-.09-.13Z"/>
        <path class="cls-2" d="M154.09,52.14c.16-.33,1.13-.4,1.79.19.83-.08.62-1.33.15-2.15-.06.15-.1.29-.91.28.21.26,1.57.92.84,1.05-1.06-.11-.8-.36-1.24-.68.3.55-1.47.27-1.44.95.32.02.64.02.96.04-.01.1-.38.17-.16.33Z"/>
        <path class="cls-2" d="M157.47,50.58l.32.03c-.34-.15-.56-.35-.96-.74-.56.04-.7.13-.77.24.5.17,1.01.29,1.52.44l-.12.03Z"/>
        <path class="cls-2" d="M159.2,50.94c-.33.34-1.13.31-.76.84.94.18.73-.18,1.32-.22-1.52-.22.48-.12-.56-.57.31,0,.57.03.83.07-.26-.1-.5-.21-.73-.34l.03.03h0s0,0,0,0c.05.06.07.09,0,.05,0,0-.02,0-.03,0-.02.05-.06.09-.1.13-.41-.17-.05-.11.1-.13,0-.02.02-.03.03-.05h0c-.51-.03-1.02-.1-1.53-.15.3.12.69.23,1.4.33Z"/>
        <path class="cls-2" d="M166.52,54.17s-.04-.07-.04-.1c-.11.04-.15.07.04.1Z"/>
        <path class="cls-2" d="M165.9,53.86c.12-.04.23-.19.59-.11.3.15-.02.19-.02.32.23-.08.8-.2.13-.46l-.12.04c-.61-.19-1.33-.8-1.22-.84.13.37.26.65.63,1.05Z"/>
        <path class="cls-2" d="M162.44,52.56l-1.3-.03.59.45v-.21c.71.21.6-.07.72-.21Z"/>
        <polygon class="cls-2" points="155.91 49.86 156.18 49.51 155.32 49.87 155.91 49.86"/>
        <polygon class="cls-2" points="154.31 49.46 154.47 49.14 153.99 49.22 154.31 49.46"/>
        <path class="cls-2" d="M210.5,25.87l.39-.1c-.18.03-.3.06-.39.1Z"/>
        <path class="cls-2" d="M207.69,25.83l-.07.18c.13-.1.18-.17.07-.18Z"/>
        <path class="cls-2" d="M156.83,31.18c.59.25,1.26.69,1.14.29l-.22-.37c-.36.12-.66.12-.92.07Z"/>
        <path class="cls-2" d="M184.95,27.93c-.05-.04-.11-.08-.16-.12-.14.13-.27.25-.39.37.17-.07.35-.16.55-.24Z"/>
        <path class="cls-2" d="M185.39,26.31l.73.28c-.16-.09-.4-.19-.73-.28Z"/>
        <path class="cls-2" d="M226.02,26.71l.53-.32c-.72-.12-.44.13-.53.32Z"/>
        <path class="cls-2" d="M141.96,42.23c.08-.36.14-.64.14-.88-.21.42-.49.83-.14.88Z"/>
        <path class="cls-2" d="M209.37,30.04c.23-.07.33-.15.33-.24-.24.06-.38.14-.33.24Z"/>
        <path class="cls-2" d="M142.16,40.33c-.05.06-.08.12-.12.18.05.27.08.53.07.84.16-.32.27-.64.05-1.02Z"/>
        <path class="cls-2" d="M206.54,56.01s-.09-.02-.13-.04c0,.05.05.05.13.04Z"/>
        <path class="cls-2" d="M190.4,52.43c.16-.02.41-.02.65-.02-.12-.03-.31-.03-.65.02Z"/>
        <path class="cls-2" d="M148.12,47.13c.33.1.07-.02,0,0h0Z"/>
        <path class="cls-2" d="M149.16,49.21c-.09.02-.16.05-.2.13.06-.08.13-.12.2-.13Z"/>
        <path class="cls-2" d="M140.77,36.6v-.03c-.1.06-.08.05,0,.03Z"/>
        <path class="cls-2" d="M148.54,47.49c-.1-.09-.23-.19-.37-.27.06.05.17.14.37.27Z"/>
        <path class="cls-2" d="M148.54,47.29c.11.06.19.1.27.15.06-.05.04-.1-.27-.15Z"/>
        <path class="cls-2" d="M147.66,46.98c.19.07.35.15.51.24-.05-.05-.07-.08-.05-.09-.1-.03-.23-.08-.46-.16Z"/>
        <path class="cls-2" d="M235.31,47.52s-.05.03-.08.04c-.16.41-.05.26.08-.04Z"/>
        <path class="cls-2" d="M165.67,26.14s-.03.02-.04.02c.02,0,.04,0,.05.01v-.03Z"/>
        <path class="cls-2" d="M166.97,25.79c-.54.51-.85.47-1.28.38l.49,1.12.79-1.5Z"/>
        <path class="cls-2" d="M217.27,26l-.91-.41c1.16-.53,1.97-.25,1.12-.81-.21,1.21-3.64-.07-3.81,1.17l-.6-.28c.17.02.2-.06.38-.04-1.17-.62-.91.86-2.42.66-.53-.1-.89-.28-.53-.43l-1.18.29c-.34-.02-.26-.24.08-.21l-1.8.1v-.04c-.24.2-.82.5-1.1.63-.46-.17.23-.13.11-.29l-.99.31c-.41-.31.41-.64,1.1-.6-.94-1.22-.82.32-2.83-.37l.93-.17c-.62-.69-1.34-.42-2.41-.83.26.22,2.14,1.05,1.07,1.38-.3-.09-.7-.12-1.28.14-.02-.44-.58-.32-1.28-.27l.03-.58c-.76.19-.69.48-1.13.76-.84-.04-1.02-.49-1.22-.87-1.33-.07.94.71-.64.84-1.11-.2-1.89.03-3.23.38-.78-.2.14-.36-.14-.52l-.7.46c-.17-.01-.11-.15-.08-.23-.59.17-.05.58-.98.72-.26.63-1.88-.96-3.04-.26-.28-.17.14-.35.06-.58-1.58.44-1.35.32-2.66.92l-1.09-.41c.8.46-.25.95-1.17,1.34.28.22.52.41.68.5l-1.46.27c-.17-.1-.02-.3.22-.53-.1.04-.2.09-.27.13-.51-.23-.23-.56.15-.87l.51.37c.37-.34.71-.72.65-1.07-.1.06-.28.12-.48.14.1-.09.16-.18.12-.24-.05-.06-.2.06-.44.2l-.31-.66-.09.25-1.88-.46c-1.37.61-2.58,1.54-4.73,1.77.54-.47.13-.77.17-1.34.58.6,1.67-.22,2.79-.07-.58-.08-.45-.34-.3-.43l-2.01.49c.05-.46-.42-.35-.94-.55.38.92-1.5.58-2.31.85-.05-.31.15-.62,1.14-.53-1.09-.7-1.42,1.05-2.49.47.24,0,.37.04.47-.12-.57.27-1.95.05-1.62-.21h.24c-1.61-.12-4.92.07-5.12.87-.02-.1.18-.94.27-1.1-.93.91-1.85,1.79-2.73,2.73.21-.68-.86-2.19.46-2.66-.39-.07-.88-.14-1.68.15.27.08.72.91.37,1-1.03-.67-.71-.35-1.97-.88.41.1.06,1.18-.56,1.21.08-.16-.15-1.02.07-1.15l-1.44,1.18c.36-.22-.02-.87-.41-1.12.18.17-1.35.13-1.75.31l.69.14c-1.77.11-1.52,1.63-3.22,1.88.17-.25.29-1.38-.61-1.34-.32.61-1.31,2.76-2.64,3.52l-.35-.23-1.03.59c.48-.91,2.1-3.04,3.12-3.85-.7-.11-.25-.31-1.22-.1-.4-.2.45-.52.74-.59-.78.07-1.55.2-2.33.32.24.57-1.6,1-1.38,1.48l2.31-1.19c.22.58-1.03,2-2.61,2.3-.47-.12.01-1.13-.07-1.32-.15.25-1.42.81-1.61.73l.59-.52c-.99.06-1.21,1.22-2.49,1.11-.38.11-1.45-.2-1.36.16.94.31,1.89,2.26,1.79,2.88-.06,0-.54.06-1.06.11-.52.07-1.1.17-1.37.15-.4-.04-.42-.44-.39-.84.03-.4.1-.81-.27-.85.07.15-.12.53-.2.68-.43.15-.17-.54-.87.12.26.55-1.45,1.26,0,.69-.54.74-.79.55-1.47,1.42.26-.02.38.39.42.87.04.49.03,1.05-.08,1.44-.12-.12-.39-.05-.51-.01-.41.74-.7,1.34-.95,1.94-.25.6-.44,1.23-.5,2.05-.18.13-.35.96-.62.61.11.25.32.47.39.99-.42,1.1-.21-1.19-.76-.34.35.05.64,1.38,1.13,2.02.21-.2.13-.6-.04-1.06-.17-.46-.39-1-.51-1.38.76,0,1.56,1.2,2.42,2.29.65.89-.21.66-.03.78.52.99,1.16,1.07,1.62,1.14.5.06.85.08,1.45.79.38.79-.47.85-.51,1.24-1.01-.39-1.15-1.15-1.64-1.59.14.25.31.49.48.73-.36-.07-.98-.46-1.12-.85.05.4.79,1.18,1.81,1.83,1.01.66,2.25,1.21,3.06,1.75.38-.03.98.03.8-.26l-.58-.15c-.36-.56,1.25-.1.61-.54.85.03,1.81-.03,2.79.53v.59c.04-.16-.57-.56-.92-.5.52-.08,1.37,1.28,2.09.76l-.61-.63c.84.01,1.95-.26,2.83.2-.26-.66-.24,0-.7-.83.16.47-.43.28-.98.1-.54-.2-1.05-.37-.73.19-.42-.95-1.06-.7-1.71-1.63-.04.18.18.45-.55.07-.05.04-.16.07-.23.09-.02-.01-.03-.02-.05-.03l.03.04s-.05.02.01.01c.15.15.27.29.29.41-.53.24-1.76-.24-2.24-.21-.41-.26.27-.12.1-.4l-.72.05c.1-.4-.79-1.12.25-.89-.28-.14-.56-.28-.82-.42-.37-.45-.86-.87-1.27-.98-.23-.28-.98-.27-.54-.28-.35-.2-.66-.44-.95-.71l.08-.07c-.29-.47-.68-.91-.91-1.51-.23-.59-.27-1.34.16-2.01-.05-.42-.12-.9.21-1.58l.38-.03c.04-.59.95-1.32.75-1.69.57,0,.9-.43,1.31-.92.42-.51.92-1.07,1.38-1.26l-.22-.41c.59-.35,1.13-.78,1.93-1.31l-.21-.35c.65-.64,2.13-.47,3.46-.85-.06.17-.4.22-.67.2,1.83.49,3.28-1.51,4.94-1.1.35-.22.63-.22.91-.16-.03,0-.06.02-.09.04.04,0,.1-.01.15-.02.18.04.36.09.55.12-.17-.07-.34-.12-.47-.13.29-.07.72-.19,1.14-.35l.25.41s.06-.02.1-.03c.45.1.31-.25.04-.55.21-.1.4-.22.54-.34.44.66,1.11-.41,1.68.29.25-.4,2.17-.5,2.34-1.3.02.1.16.13-.08.16.5.03,1,.1,1.43-.16l.25.54,1.03-.82c.68.29.96.47.33.94,1.53-.75,1.26-.31,2.57-1.02l-.05.36c.48-.04,1.23-.55,1.53-.25,1.09.65,5.32.01,8.09.72-.52-1.07,1.28.5,1.4-.32.16.25.54.41.09.61,1.42-.21,2.11.45,3.11-.22.16.26-.31.36-.17.51.12-.05.46-.2.6-.05.14.15-.21.2-.44.31,1.45,0,1.62-.77,1.74-1.49.72.36,1.09.33,1.64-.13.25.24.67.5-.24.56.51.05,3.09.44,3.16-.15.16.15.71.06.84,0,1.14.06,1.24.12,2.36.08l-.31-.1c.46-.69.93-.14,1.84-.21l-.03.07c2.07.53.9-.24,2.94.35l-.11-.44c.18-.93,1.82.54,3.01.16l-.43-.24c.64-.33,1.85,1.24,2.5,1.34.14.08-.22.14-.41.2,1.71.51.2-.58,1.46-.74.24.3-.28.79.57.83.43.24,2.44-1.06,3.6-.48-.26-.23-.51-.47.07-.65.9-.1,2.42.88,3.22.14.11.07.16.13.16.19.68-.19,2.22-.29,2.64-.68.58,1.49,4.27-.56,4.18.83l2.08.07-.07.14c1.31.21,1.81-.07,2.31-.36.3.13.06.23.02.3,1.9.5,2.08.48,3.8.04l.1.47c.49-.18,2.63,1.15,4.56,1.09-.03.05-.09.12-.25.15.27,0,.56.03.82.09.23.06.46.14.68.26.44.22.84.55,1.18.85.7.6,1.17,1.09,1.99.74.38.19.76.41,1.12.67-.46-.68-.31-.75-.03-.74.27.02.66.14.52-.23.57.52.62,1.79.11,1.11v-.16c-.44.12-.2.59,0,1.08.22.49.4,1.02.11,1.1.54,1.43.46,3.03-.01,4.46-.46,1.44-1.27,2.74-2.19,3.84.24.05.49.1.74.14-.23.28-.46.54-.71.79-.3.1-.62-.09-.12-.61-.52.03-.6,1.09-.55,1.21-.64.37-.65.12-.55-.17.09-.29.27-.62.11-.49l-.39.4.15-.02c-.2.51-.07.79-.86,1.28-.57.2-.47-.18-.68-.09-.02-.04-.1-.02-.31.16-.39.21-.8.39-1.21.56l.72.24c-.43.51-1.21.52-.37.8-.63-.21-1.85.2-3.1.52-1.23.34-2.47.63-2.79.54-.85.53-1.76.69-2.89.81.3.07.56.62-.43.7.17-1.26-1.86-.25-2.76-1.02.78.49-2.74.5-1.54,1.18-.83,0-.11-.45-.76-.66-1.88.71-4.29.17-6.66.52-.02.16.4.37-.1.65l-1.33-.7c-.47.11-.37.95-1.28.45.13.13.33.32.01.39-4.73-.47-9.64,1.05-14.43-.47.64.32.21.34-.28.35.32.08-.01.39.05.61l-2-.64c-.38.6-2.15-.02-2.38.55l.64-.08c-.87.65,1.14,1.55,1,2.41.97-.75,2.51,1.2,4.1.1.35.18-.3.28-.11.48.4-.37.88-.44,1.78-.28l-.1.09c2.51-.1,3.59.25,6.43.41l-.22-.42c.61.03.74.16,1.03.26.67-.68-1.71.03-1.1-.72.84.86,4.27-.16,4.87.79.93-.06-.3-.48.63-.53l.26.25.21-.36c.61.02.95.33.99.56-.15-.02-.42.09-.58.12.82.27,2.23-.28,2.51-.19l-.91-.09c2.52-.44,5.67-.4,8.05-1.26l-.21-.18c1.82-.6,1.52.03,3.55-.43l-.07.06c.38-.26.91-.45,1.47-.51-.48.31,1.04.31.41.67,1.95-.73.95-.48,2.15-1.44l.36.28c.4-.38.42-.54,1.42-.84-.79.46.77.36-.11.94,1.18.13,1.97-.27,2.59-.61.63-.34,1.09-.61,1.78-.3.33-.64-.19-.55-.72-.41-.53.15-1.09.38-.84.2-.54-.14.59-.91,1.25-1.09.64-.25,1.62.67,3.28-.32-.17.09-.14.16-.31.25.75-.16,1.02-1,1.94-1.22.03-.73.95-.74.55-1.37-.39.45-.82.86-1.24,1.24.34-.36.55-.86.84-1.36.28-.51.62-1,1.26-1.49.04.19-.11.68-.27.99.49-.21.49-.78.96-1.04.25.27-.04.74-.48,1.25-.42.52-1.02,1.05-1.28,1.63.66-.12,1.2-1.84,1.35-.89-.08-.65.27-.97.66-1.38.39-.4.83-.89.84-1.65l.33.29c.06-.22.08-.71.27-1.05.06.29.11.59.16.9.11-1.18,1.34-1.79,1.4-2.97-.71,2.19-.65.33-1.26,1.1.21-1.34.52-1.63.95-1.99.4-.35.93-.79.88-2.47.09.47-.38,1.64-.51.94.15-.59.32-1.41.5-1.82-.32-2.19-.39.37-.75-.52.41-.79-.36-1.01-.77-1.8l.42-.14c-.24-1.2-.59-1.24-.82-1.27-.27-.02-.46-.02-.84-.98.33.13.65.29.97.47-.21-.32-.46-.61-.7-.89l.55-.07c-1.01-.85-1.15-1.17-1.92-2.14-.02.42-.65.44-1.43-.15-.4-.62.58-.13-.66-.89.41-.05.95-.12,1.21.6.14-.07.43,0,.58-.06-.41-.77-1.58-1.27-2.06-1.52.18.12.39.27.47.39-.74-.22-1.48-.35-2.2-.42-.26-.26.04-.31.34-.32-.43-.12-.78-.05-1.41-.18.25-.29.32-.69,1.29-.52-.72-.14-1.52-.2-2.07-.18-.08-.18-.8-.62-.54-.7-.93-.43-2.51.17-3.75-.32-.08.06-.22.1-.5.1-1.19-.27-2.21-.86-3.71-.54l-.75-.73c-1.14.04,1.02.91-.88.97-1.34.08-.44-.59-.89-.81-.69.27-1.87.82-3.05.25.41-.1.72.01,1.1-.01ZM203.52,26.09c.26-.1.79-.39.98-.14-.29.51-.53.27-.98.14ZM182.97,27.03c.2-.14.5-.06.84.12-.25.03-.53,0-.84-.12ZM144.74,45.97s-.02,0-.03,0c-.32-.4-.21-.25.03,0ZM145.56,46.64c.12,0,.14-.06.13-.14-.12.07-.34-.04-.56-.19.01.13.09.27.43.33ZM230.52,47.57h.24c-.35.34-.29.18-.24,0Z"/>
        <path class="cls-2" d="M185.33,26.49c.07.08.09.16.11.24.11-.07.11-.16-.11-.24Z"/>
        <path class="cls-2" d="M225.92,26.77h.04s.04-.03.06-.06l-.1.06Z"/>
        <path class="cls-2" d="M142.89,31.54c.27-.12.45-.14.58-.13-.04-.09-.21-.11-.58.13Z"/>
        <path class="cls-2" d="M151.56,48.2l-.75-.14c.35.1.44.23.59.36.02-.1-.07-.29.15-.22Z"/>
        <path class="cls-2" d="M157.19,52.66c.12-.03.24.05.36.03l.02-.21c-.47-.1-.84-.02-.38.18Z"/>
        <path class="cls-2" d="M151.77,49.8c-.06.37.44.4.98.49-.03,0-.06-.01-.09-.03.31-.44-.29-.45-.89-.46Z"/>
        <path class="cls-2" d="M152.87,50.32c.16.03.33.08.48.14.12-.18-.18-.1-.48-.14Z"/>
        <path class="cls-2" d="M146.95,46.99c.19.18.32-.38.39-.19.42-.33-1.69-.1-.39.19Z"/>
        <polygon class="cls-2" points="151.81 51.09 151.76 50.6 151.36 50.85 151.81 51.09"/>
        <path class="cls-2" d="M147.86,49.33l.77.43c.01-.08.13-.08.27-.06-.49-.21-1.01-.51-1.04-.37Z"/>
        <path class="cls-2" d="M148.9,49.7c.26.1.51.18.69.16-.14-.05-.46-.14-.69-.16Z"/>
        <polygon class="cls-2" points="150.63 50.84 150.42 50.67 149.85 50.43 150.63 50.84"/>
        <path class="cls-2" d="M140.74,44.11c-.16-.25-.31-.52-.44-.8-.18-.05-.21.23-.02.54.17.18.38.45.45.26Z"/>
        <path class="cls-2" d="M141.49,47.2c-.14-.27-.08-.35-.08-.56l-.43.37.51.19Z"/>
        <path class="cls-2" d="M139.54,44.79c-.21,0-1.02-1.35-.46-.01.19.06.8.97.46.01Z"/>
        <polygon class="cls-2" points="145.06 31.97 144.85 32.1 145.35 32.88 145.06 31.97"/>
        <path class="cls-2" d="M156.95,26.4c-1.19-.05-.19.58-1.27.5-.23.26.88.07.64.31.65-.33,1.04-.25.63-.81Z"/>
        <path class="cls-2" d="M156.32,27.2c-.1.05-.21.12-.33.2.19-.09.28-.16.33-.2Z"/>
        <polygon class="cls-2" points="187.78 51.87 187.06 51.65 187.52 51.98 187.78 51.87"/>
        <path class="cls-2" d="M186.37,52.51l-.15-.59-.45.52c.16-.02.48-.06.6.08Z"/>
        <path class="cls-2" d="M201.46,24.95l-.05.14c.12.15.29.16.63.17l-.58-.32Z"/>
        <polygon class="cls-2" points="211.44 25.3 211.27 25.29 211.58 25.83 211.44 25.3"/>
        <path class="cls-2" d="M219.96,25.07c-.35-.06-.77.02-1.11-.02.77-.04,1.15.7,1.11.02Z"/>
      </g>
    </g>
    <g>
      <path class="cls-3" d="M163.11,43.38c-.48.08-1.16.12-2.04.12s-1.48-.15-1.8-.44c-.32-.29-.48-.93-.48-1.91,0-.98.07-2.06.22-3.23s.31-2.04.49-2.59c.18-.55.54-.83,1.07-.83.36,0,.57.15.62.46v.38c0,.17-.04.42-.12.74-.32,2.35-.48,4.02-.48,5.02,0,.24,0,.44.02.6.24.05.56.08.97.08s.92-.04,1.55-.12c.03-.28.04-.66.04-1.13s0-.87.02-1.19c.01-.32.06-.55.14-.68.08-.13.31-.2.69-.2.38,0,.62.07.72.2.1.13.15.32.15.55s-.02.72-.06,1.46c-.04.74-.06,2.82-.06,6.25,0,.6-.29.9-.88.9h-.08c-.49,0-.74-.41-.74-1.22v-1.1l.04-2.12Z"/>
      <path class="cls-3" d="M168.04,33.54c.68,0,1.12.33,1.32,1,.08.23.12.48.12.76-.07.55-.34.96-.82,1.24-.25.16-.55.24-.9.24s-.7-.14-1.05-.43c-.35-.29-.53-.68-.53-1.17,0-.49.18-.89.53-1.19.35-.3.8-.45,1.33-.45ZM168.53,35.06c0-.27-.07-.45-.2-.54-.13-.09-.28-.14-.45-.14s-.33.07-.48.21c-.15.14-.23.3-.23.49,0,.43.23.64.68.64s.68-.22.68-.66Z"/>
      <path class="cls-3" d="M175.61,34.28c0-.53.33-.8,1-.8.31,0,.49.19.54.56v3c0,.56,0,1.12.02,1.68.27-.08.61-.12,1.02-.12,1.29,0,2.29.43,3,1.3.71.87,1.06,1.95,1.06,3.26,0,1.31-.42,2.41-1.25,3.31-.83.9-1.9,1.35-3.21,1.35-1.31,0-1.96-.37-1.96-1.11,0-.74-.04-2.62-.11-5.64-.07-3.02-.11-5.28-.11-6.79ZM179.65,40.72c-.48-.37-.99-.56-1.52-.56-.29,0-.59.05-.9.16.08,1.09.12,3.03.12,5.82.23.08.46.12.7.12.52,0,1.04-.19,1.56-.58.77-.53,1.16-1.35,1.16-2.45,0-1.1-.37-1.94-1.12-2.51Z"/>
      <path class="cls-3" d="M189.39,38.46c.59,0,.88.5.88,1.5v.34l-.04,1.4c-.01.44-.02.87-.02,1.3l.3,4.52c0,.33-.34.5-1.02.5-.04,0-.14,0-.29,0s-.26-.06-.32-.18-.07-.27-.02-.44c.05-.17.03-.37-.05-.58-.61.65-1.43.98-2.44.98-1.88,0-2.82-1.45-2.82-4.36,0-1.61.3-2.83.91-3.66.61-.83,1.48-1.24,2.61-1.24.53,0,1.07.09,1.6.28.17-.24.41-.36.72-.36ZM187.31,40.28c-.76,0-1.33.22-1.7.66-.37.44-.56,1.25-.56,2.42,0,1.97.53,2.96,1.6,2.96.28,0,.59-.13.93-.38.34-.25.58-.54.71-.86.25-.72.38-1.51.38-2.36,0-.85-.1-1.47-.31-1.86-.21-.39-.56-.58-1.05-.58ZM187.24,34.54c.08-.23.25-.34.51-.34s.47.08.62.24c.15.16.23.29.23.39s-.01.18-.04.25c-.21.6-.57,1.17-1.07,1.7-.5.53-.88.8-1.15.8s-.47-.07-.6-.2c-.13-.13-.2-.29-.2-.47,0-.18.1-.35.3-.51.72-.59,1.19-1.21,1.4-1.86Z"/>
      <path class="cls-3" d="M192.83,39.12c.56-.47,1.21-.7,1.95-.7.74,0,1.45.13,2.13.4.68.27,1.02.62,1.02,1.06,0,.23-.09.41-.26.54-.17.13-.32.2-.45.2s-.23,0-.3-.01c-.07,0-.34-.13-.8-.37-.46-.24-.88-.36-1.27-.36-.39,0-.72.1-.99.29-.27.19-.41.48-.41.85,0,.37.16.67.47.88.31.21.86.4,1.65.55s1.39.37,1.81.65c.42.28.63.8.63,1.56,0,1.11-.29,1.89-.87,2.35s-1.28.69-2.11.69c-.83,0-1.53-.11-2.11-.34-.58-.23-.87-.57-.87-1.02,0-.52.26-.78.78-.78.13,0,.43.09.88.28.45.19.9.28,1.35.28s.79-.14,1.02-.43c.23-.29.35-.62.35-.99s-.15-.64-.46-.81c-.31-.17-.77-.3-1.4-.41-.63-.11-1.09-.22-1.38-.34-.8-.32-1.2-1.03-1.2-2.14,0-.79.28-1.41.84-1.88Z"/>
      <path class="cls-3" d="M200.66,35.16c.24,0,.47.11.68.34.21.23.32.46.32.71s-.12.5-.35.75c-.23.25-.48.38-.73.38s-.48-.11-.69-.32c-.21-.21-.31-.49-.31-.82,0-.64.35-.99,1.04-1.04h.04ZM201.51,45.63l.02,1.4c0,.25-.1.46-.3.63-.2.17-.41.25-.64.25-.33,0-.51-.17-.52-.5-.17-4.25-.26-6.61-.26-7.06s.02-1.01.06-1.66c.03-.24.18-.36.46-.36.71,0,1.11.29,1.2.86.04.29.06.53.06.7l-.08,1.26v4.48Z"/>
      <path class="cls-3" d="M204.26,40.67c.47-.73,1.08-1.28,1.81-1.65.73-.37,1.45-.55,2.14-.55s1.25.08,1.67.25.63.39.63.66-.08.55-.23.82-.36.41-.61.41c-.09,0-.35-.08-.77-.23s-.69-.23-.81-.23c-.77,0-1.43.28-1.98.85-.55.57-.82,1.32-.82,2.25,0,.93.15,1.63.45,2.09.3.46.82.69,1.55.69.29,0,.8-.17,1.51-.51.71-.34,1.16-.51,1.33-.51s.31.05.42.16c.11.11.16.24.16.4,0,.32-.2.66-.61,1.01-.41.35-.91.65-1.51.88-.6.23-1.14.35-1.62.35-1.07,0-1.9-.42-2.51-1.26-.61-.84-.91-1.99-.91-3.44,0-.89.24-1.71.71-2.44Z"/>
      <path class="cls-3" d="M215.13,38.47c.96,0,1.75.46,2.37,1.38.62.92.93,2.02.93,3.31,0,1.29-.32,2.38-.95,3.29-.63.91-1.47,1.36-2.52,1.36-1.05,0-1.89-.46-2.53-1.39s-.96-1.96-.96-3.09c0-1.45.29-2.61.88-3.48.63-.92,1.55-1.38,2.78-1.38ZM214.89,40.11c-.56,0-1.02.29-1.38.88-.36.59-.54,1.21-.54,1.86,0,1.01.2,1.79.6,2.32.4.53.85.8,1.36.8.91,0,1.49-.39,1.74-1.18.11-.37.16-.84.16-1.4,0-2.19-.65-3.28-1.94-3.28Z"/>
    </g>
  </g>
  <g>
    <path class="cls-3" d="M165.05,89.25c1.47.19,1.19,1.81,2.78,2.01,2.57.36,3.16-1.16,3.51-2.94.7-3.73-1.48-6.53-3.87-9.62-1.11-1.45-1.71-2.7-1.36-4.55.55-2.61,2.05-4.39,5.33-4.4.28,0,.55,0,.87.03,1.07.1,1.82.29,1.63,1.22-.35,1.62-4.55-1.11-5.45,3.51-.43,2.11.6,2.97,1.95,4.88,2.11,3.03,3.93,5.73,3.23,9.3-.55,2.71-1.89,4.29-5.09,4.3-.32,0-.63,0-.95-.03-1.39-.2-3.8-1.31-3.81-2.66,0-.07.04-.17.04-.23.04-.4.63-.79,1.19-.79Z"/>
    <path class="cls-3" d="M183.6,68.2c8.79-.02,10.04,23.44,1.33,24.08-.16,0-.32.03-.47.03-3.32,0-5.15-1.64-6.11-4.67-.52-1.98-4.68-19.42,5.25-19.44ZM180.24,86.12c.32,1.09,1.63,4.22,3.61,4.38.2.03.36,0,.47,0,2.65-.2,3.51-4.06,3.86-5.62.63-2.64,1.11-14.88-4.51-14.87h-.32c-5.98.47-3.88,13.7-3.12,16.1Z"/>
    <path class="cls-3" d="M196.1,79.29c-.72-1.19-4.1-6.82-4.73-8.01-1.03-1.88,1.18-2.15,1.58-1.22l4.53,7.91,2.63-8.75c.16-.92,2.53-.86,2.53.23v.13s-3.89,10.04-3.89,10.04l1.42,13.39c0,.53-.51.73-1.07.73-.55,0-1.07-.16-1.19-.62-.57-4.16-.66-10.16-1.82-13.82Z"/>
  </g>
  <g>
    <path class="cls-3" d="M71.21,114.93c-.1-1.44-.15-3.39-.15-5.85,0-2.46.03-4.05.1-4.78.07-.45.38-.75.92-.89.55-.15,1.27-.22,2.16-.22,1.32,0,2.43.28,3.33.85.9.57,1.35,1.4,1.35,2.51,0,.91-.13,1.67-.38,2.28-.25.61-.57,1.06-.95,1.36-.62.48-1.53.71-2.73.71-.52,0-1.2-.07-2.04-.21.07,2.8.1,4.56.08,5.29-.01.73-.26,1.09-.73,1.09-.31,0-.5-.06-.59-.17s-.14-.19-.17-.24-.06-.12-.08-.22c-.03-.1-.05-.18-.06-.24-.01-.06-.02-.16-.03-.28s-.02-.22-.03-.29c-.01-.21-.02-.44-.02-.69ZM77.19,106.6c0-.57-.31-1.01-.92-1.34s-1.27-.49-1.97-.49-1.19.06-1.47.19c-.06.83-.08,1.59-.08,2.28,0,.69.03,1.32.08,1.88.38.04.64.08.78.1.36.04.68.06.93.06s.43,0,.52-.01c.09,0,.27-.03.52-.06.26-.04.44-.09.56-.18.11-.08.25-.2.42-.34.17-.14.29-.3.36-.48.18-.5.27-1.04.27-1.61Z"/>
    <path class="cls-3" d="M83.62,114l.02,2.16c0,.25-.12.48-.35.69s-.46.32-.68.32c-.32,0-.52-.25-.61-.76-.01-.11-.07-1.14-.17-3.08-.1-1.94-.29-3.46-.57-4.57-.13-.53-.19-.85-.19-.95,0-.46.28-.69.84-.69.24,0,.43.09.57.27.14.18.23.37.26.56.03.19.07.44.09.77.03.32.05.53.06.61.29-.7.73-1.23,1.32-1.58s1.23-.53,1.93-.53c1.15,0,1.72.29,1.72.88,0,.29-.1.53-.3.7-.2.17-.44.26-.7.26-1.19,0-2.03.38-2.52,1.13-.49.76-.73,2.02-.73,3.78Z"/>
    <path class="cls-3" d="M92.71,107.28c1.01,0,1.84.48,2.49,1.45.65.97.98,2.12.98,3.48,0,1.35-.33,2.5-1,3.45s-1.55,1.43-2.65,1.43-1.98-.49-2.66-1.46c-.67-.97-1.01-2.05-1.01-3.24,0-1.53.31-2.74.92-3.65.66-.97,1.63-1.45,2.92-1.45ZM92.46,109c-.59,0-1.07.31-1.45.92s-.57,1.27-.57,1.95c0,1.06.21,1.88.63,2.44.42.56.9.84,1.43.84.95,0,1.56-.41,1.83-1.24.11-.39.17-.88.17-1.47,0-2.3-.68-3.44-2.04-3.44Z"/>
    <path class="cls-3" d="M103.49,116.2c-.5.59-1.14.88-1.91.88s-1.44-.24-2-.71c-1.18-.91-1.76-2.3-1.76-4.18,0-1.47.41-2.65,1.22-3.54.81-.89,1.81-1.33,3-1.33s2,.41,2.44,1.22c.38.71.57,1.79.57,3.23l-.04,1.72c0,.81.04,1.94.12,3.37.08,1.43.12,2.52.12,3.24,0,1.2-.3,2.09-.89,2.66-.59.57-1.5.85-2.72.85-.73,0-1.47-.15-2.23-.46-.76-.31-1.13-.66-1.13-1.07,0-.29.08-.52.24-.67.16-.15.35-.23.56-.23.21,0,.68.15,1.42.46.74.31,1.26.46,1.59.46,1.01,0,1.51-.83,1.51-2.48,0-1.65-.03-2.79-.08-3.42ZM103.47,111.76c0-1.01-.15-1.73-.45-2.14s-.77-.62-1.42-.62-1.16.29-1.55.88c-.39.59-.59,1.33-.59,2.24s.19,1.62.56,2.15c.37.53.94.8,1.71.8s1.27-.33,1.49-.99c.17-.53.25-1.3.25-2.32Z"/>
    <path class="cls-3" d="M109.51,113.99l.02,2.16c0,.25-.12.48-.35.69-.23.21-.46.32-.68.32-.32,0-.52-.25-.61-.76-.01-.11-.07-1.14-.17-3.08-.1-1.94-.29-3.46-.57-4.57-.13-.53-.19-.85-.19-.95,0-.46.28-.69.84-.69.24,0,.43.09.57.27.14.18.23.37.26.56.03.19.07.44.09.77.03.32.05.53.06.61.29-.7.73-1.23,1.32-1.58s1.23-.53,1.93-.53c1.15,0,1.72.29,1.72.88,0,.29-.1.53-.3.7-.2.17-.44.26-.7.26-1.19,0-2.03.38-2.52,1.13-.49.76-.73,2.02-.73,3.78Z"/>
    <path class="cls-3" d="M120.75,107.25c.62,0,.92.52.92,1.57v.36l-.04,1.47c-.01.46-.02.92-.02,1.37l.32,4.75c0,.35-.36.53-1.07.53h-.3c-.16,0-.27-.06-.34-.19s-.07-.28-.02-.46c.05-.18.03-.38-.05-.61-.64.69-1.5,1.03-2.56,1.03-1.97,0-2.96-1.53-2.96-4.58,0-1.69.32-2.97.95-3.84.64-.87,1.55-1.3,2.74-1.3.56,0,1.12.1,1.68.29.18-.25.43-.38.76-.38ZM118.56,109.16c-.8,0-1.39.23-1.79.69-.39.46-.59,1.31-.59,2.54,0,2.07.56,3.11,1.68,3.11.29,0,.62-.13.98-.4.36-.27.61-.57.75-.9.27-.76.4-1.58.4-2.48s-.11-1.55-.33-1.95c-.22-.41-.58-.61-1.1-.61Z"/>
    <path class="cls-3" d="M124.32,117.08c-.36,0-.58-.2-.65-.61,0-2.83-.17-5.35-.51-7.56,0-.28.1-.53.3-.76.2-.22.43-.34.69-.34s.45.15.58.44c.52-.69,1.21-1.03,2.08-1.03,1.11,0,1.96.53,2.56,1.6.7-1.01,1.63-1.51,2.78-1.51s2.02.46,2.59,1.39c.38.57.64,1.33.8,2.27.15.94.23,2.27.23,3.99,0,.67-.07,1.19-.21,1.56-.14.37-.43.56-.88.56-.36,0-.55-.23-.55-.69l.06-2.62c0-3.15-.82-4.73-2.46-4.73-.52,0-.88.18-1.09.55-.24.43-.38.89-.42,1.36-.06.84-.08,1.6-.08,2.29v3.04c0,.22-.11.41-.34.57-.22.16-.46.23-.69.23-.31,0-.5-.2-.59-.61l.06-4.35c0-1.54-.26-2.5-.78-2.88-.25-.18-.63-.27-1.14-.27s-.89.19-1.13.57c-.25.38-.37.99-.37,1.83l.13,3.91c0,1.2-.33,1.81-.99,1.81Z"/>
    <path class="cls-3" d="M143.26,107.25c.62,0,.92.52.92,1.57v.36l-.04,1.47c-.01.46-.02.92-.02,1.37l.32,4.75c0,.35-.36.53-1.07.53h-.3c-.16,0-.27-.06-.34-.19s-.07-.28-.02-.46c.05-.18.03-.38-.05-.61-.64.69-1.5,1.03-2.56,1.03-1.97,0-2.96-1.53-2.96-4.58,0-1.69.32-2.97.96-3.84.64-.87,1.55-1.3,2.74-1.3.56,0,1.12.1,1.68.29.18-.25.43-.38.76-.38ZM141.08,109.16c-.8,0-1.39.23-1.79.69-.39.46-.59,1.31-.59,2.54,0,2.07.56,3.11,1.68,3.11.29,0,.62-.13.98-.4.36-.27.61-.57.75-.9.27-.76.4-1.58.4-2.48,0-.9-.11-1.55-.33-1.95-.22-.41-.58-.61-1.1-.61Z"/>
    <path class="cls-3" d="M157.25,107.14c.2,0,.34.07.44.2.1.13.15.28.15.43l-.02.21c-.59,1.5-1.02,2.72-1.3,3.65-.18.66-.32,1.15-.41,1.47-.09.32-.24.89-.45,1.7-.21.81-.35,1.34-.42,1.58-.2.48-.54.71-1.03.71-.24,0-.41-.15-.5-.46-.45-1.4-1.11-2.98-1.97-4.75-.87-1.76-1.36-2.77-1.48-3.03s-.18-.49-.18-.7.09-.41.28-.61c.19-.2.4-.29.64-.29s.44.13.61.38c.15.31.59,1.17,1.31,2.58.72,1.41,1.23,2.53,1.52,3.34.01-.08.06-.26.15-.53.71-2.48,1.29-4.25,1.74-5.31.24-.38.55-.57.92-.57Z"/>
    <path class="cls-3" d="M160.25,103.78c.25,0,.49.12.71.36.22.24.34.49.34.75s-.12.52-.37.79c-.25.27-.5.4-.77.4s-.51-.11-.73-.34c-.22-.22-.33-.51-.33-.86,0-.67.36-1.04,1.09-1.09h.04ZM161.13,114.78l.02,1.47c0,.27-.1.49-.31.66-.21.18-.43.26-.67.26-.35,0-.53-.17-.55-.53-.18-4.47-.27-6.94-.27-7.41s.02-1.06.06-1.74c.03-.25.19-.38.48-.38.74,0,1.16.3,1.26.9.04.31.06.55.06.74l-.08,1.32v4.7Z"/>
    <path class="cls-3" d="M166.28,113.98l.02,2.16c0,.25-.12.48-.35.69-.23.21-.46.32-.68.32-.32,0-.52-.25-.61-.76-.01-.11-.07-1.14-.17-3.08-.1-1.94-.29-3.46-.57-4.57-.13-.53-.19-.85-.19-.95,0-.46.28-.69.84-.69.24,0,.43.09.57.27.14.18.23.37.26.56.03.19.07.44.09.77.03.32.05.53.06.61.29-.7.73-1.23,1.32-1.58s1.23-.53,1.93-.53c1.15,0,1.72.29,1.72.88,0,.29-.1.53-.3.7-.2.17-.44.26-.7.26-1.19,0-2.03.38-2.52,1.13-.49.76-.73,2.02-.73,3.78Z"/>
    <path class="cls-3" d="M172.18,107.24l1.05.02c.24,0,.37,0,.4-.02v-4.31c.01-.24.13-.44.36-.61.22-.17.43-.25.63-.25s.35.06.47.19c.12.13.17.32.16.59-.01.27-.02,1.72-.02,4.37l2.46-.08c.42,0,.63.25.63.74,0,.36-.11.64-.33.82-.22.18-.45.28-.69.29-.25.01-.49.02-.72.02l-1.28-.02c0,.57.06,1.71.18,3.4.12,1.69.21,2.79.28,3.29.07.5.08.82.04.97-.04.15-.12.25-.23.3-.18.08-.43.13-.73.13s-.49-.17-.55-.5c-.28-1.83-.47-4.35-.57-7.56-.13.01-.61.02-1.45.02s-1.26-.24-1.26-.73c0-.7.39-1.05,1.18-1.05Z"/>
    <path class="cls-3" d="M179.19,107.46c.18-.16.37-.24.56-.24s.34.04.44.11.17.13.19.19c.02.06.05.15.07.29-.08,1.09-.13,2.08-.13,2.95,0,.88.1,1.88.32,3,.21,1.13.44,1.69.69,1.69.38,0,.86-.21,1.44-.63.58-.42,1-.86,1.25-1.32-.17-2.02-.25-3.75-.25-5.19,0-.29.09-.55.28-.76s.42-.31.68-.31c.43,0,.65.29.65.88,0,.99.07,2.47.22,4.43s.3,3.21.45,3.74c.03.11.04.24.04.39s-.09.29-.28.42-.43.2-.73.2-.5-.17-.6-.5c-.03-.28-.1-.7-.21-1.26-.98,1.02-1.97,1.53-2.96,1.53-.46,0-.88-.17-1.24-.52-.36-.35-.65-.83-.86-1.43-.36-1.16-.55-2.25-.55-3.28s.06-2.28.17-3.78c.06-.24.17-.44.36-.6Z"/>
    <path class="cls-3" d="M193.13,107.24c.62,0,.92.52.92,1.57v.36l-.04,1.47c-.01.46-.02.92-.02,1.37l.32,4.75c0,.35-.36.53-1.07.53h-.3c-.16,0-.27-.06-.34-.19s-.07-.28-.02-.46c.05-.18.03-.38-.05-.61-.64.69-1.5,1.03-2.56,1.03-1.97,0-2.96-1.53-2.96-4.58,0-1.69.32-2.97.96-3.84.64-.87,1.55-1.3,2.74-1.3.56,0,1.12.1,1.68.29.18-.25.43-.38.76-.38ZM190.95,109.15c-.8,0-1.39.23-1.79.69-.39.46-.59,1.31-.59,2.54,0,2.07.56,3.11,1.68,3.11.29,0,.62-.13.98-.4s.61-.57.75-.9c.27-.76.4-1.58.4-2.48,0-.9-.11-1.55-.33-1.95-.22-.41-.58-.61-1.1-.61Z"/>
    <path class="cls-3" d="M195.45,103.45c.03-.52.12-.87.25-1.03.13-.16.35-.24.64-.24.6,0,.9.24.9.73,0,.38-.03,1.37-.09,2.96-.06,1.6-.09,3.02-.09,4.28,0,1.26.05,2.28.15,3.04.17,1.34.41,2.02.71,2.02s.54-.22.69-.65c.07-.17.18-.32.34-.45.15-.13.35-.2.59-.2.49,0,.73.41.73,1.24,0,.45-.24.89-.72,1.33-.48.44-.96.66-1.44.66s-.86-.08-1.14-.24c-.29-.16-.52-.4-.69-.72-.18-.32-.32-.63-.42-.93-.1-.3-.18-.67-.22-1.1-.08-.7-.14-1.82-.18-3.37-.04-1.55-.05-3.02-.05-4.43,0-1.41.02-2.37.05-2.9Z"/>
    <path class="cls-3" d="M209.64,107.26c1.01,0,1.84.48,2.49,1.45.65.97.98,2.12.98,3.48,0,1.35-.33,2.5-1,3.45-.67.95-1.55,1.43-2.65,1.43s-1.98-.49-2.66-1.46c-.67-.97-1.01-2.05-1.01-3.24,0-1.53.31-2.74.92-3.65.66-.97,1.63-1.45,2.92-1.45ZM209.39,108.98c-.59,0-1.07.31-1.45.92s-.57,1.27-.57,1.95c0,1.06.21,1.88.63,2.44.42.56.9.84,1.43.84.95,0,1.56-.41,1.83-1.24.11-.39.17-.88.17-1.47,0-2.3-.68-3.44-2.04-3.44Z"/>
    <path class="cls-3" d="M222.54,117.02c-.48,0-.92-.16-1.32-.48l-.27-.23v6.3c-.08.28-.23.51-.44.7-.21.19-.43.28-.67.28-.36,0-.55-.25-.55-.73v-14.64c.08-.36.18-.62.3-.78.12-.15.31-.23.57-.23s.43.06.5.18c.08.12.17.44.28.98.06-.28.28-.54.67-.78.39-.24.92-.36,1.57-.36,1.43,0,2.44.52,3.05,1.55.6,1.04.9,2.26.9,3.66,0,1.41-.41,2.52-1.23,3.34-.82.82-1.94,1.23-3.37,1.23ZM220.94,110.72v3.91c.08.04.18.11.29.21.41.36.85.55,1.32.54,1.93,0,2.9-.99,2.9-2.98,0-1.69-.43-2.77-1.3-3.21-.36-.2-.81-.29-1.34-.29-.52.07-.96.3-1.32.68-.36.39-.55.77-.55,1.14Z"/>
    <path class="cls-3" d="M230.91,113.97l.02,2.16c0,.25-.12.48-.35.69-.23.21-.46.32-.68.32-.32,0-.52-.25-.61-.76-.01-.11-.07-1.14-.17-3.08-.1-1.94-.29-3.46-.57-4.57-.13-.53-.19-.85-.19-.95,0-.46.28-.69.84-.69.24,0,.43.09.57.27.14.18.23.37.26.56s.07.44.09.77c.03.32.05.53.06.61.29-.7.73-1.23,1.32-1.58.59-.35,1.23-.53,1.93-.53,1.15,0,1.72.29,1.72.88,0,.29-.1.53-.3.7-.2.17-.44.26-.7.26-1.19,0-2.03.38-2.52,1.14-.49.76-.73,2.02-.73,3.78Z"/>
    <path class="cls-3" d="M239.31,107.31c.74,0,1.45.22,2.12.65.67.43,1.01.97,1.01,1.61,0,.64-.27,1.25-.82,1.85s-1.27.96-2.18,1.08c-.39.06-.98.08-1.76.08.15,1.19.46,1.97.9,2.35.14.15.33.23.57.23.87,0,1.6-.28,2.18-.83s1.01-.83,1.26-.83c.11,0,.28.11.5.31.22.21.34.41.34.59,0,.36-.44.89-1.32,1.58-.39.32-.86.59-1.42.81s-1.07.33-1.54.33c-1.22,0-2.11-.78-2.69-2.35-.36-.97-.55-2.03-.55-3.19s.27-2.16.82-3c.55-.84,1.41-1.26,2.58-1.26ZM239.42,108.76c-.53,0-.99.3-1.37.9-.14.21-.27.69-.4,1.43,1.96,0,2.94-.48,2.94-1.45,0-.59-.39-.88-1.18-.88Z"/>
    <path class="cls-3" d="M245.89,107.92c.59-.49,1.27-.73,2.05-.73.78,0,1.52.14,2.24.42.71.28,1.07.65,1.07,1.11,0,.24-.09.43-.27.57-.18.14-.34.21-.47.21s-.24,0-.31-.01c-.08,0-.36-.14-.84-.39-.48-.25-.93-.38-1.33-.38-.41,0-.75.1-1.04.3-.29.2-.43.5-.43.89,0,.39.17.7.49.92.33.22.91.42,1.73.58.83.16,1.46.39,1.9.68.44.29.66.84.66,1.64,0,1.16-.3,1.98-.91,2.47-.61.48-1.35.72-2.22.72-.87,0-1.61-.12-2.22-.36s-.91-.59-.91-1.07c0-.55.27-.82.82-.82.14,0,.45.1.92.29s.95.29,1.42.29c.47,0,.83-.15,1.07-.45.24-.3.37-.65.37-1.04s-.16-.68-.48-.85-.81-.32-1.47-.43c-.66-.11-1.14-.23-1.45-.36-.84-.34-1.26-1.08-1.26-2.25,0-.83.29-1.48.88-1.97Z"/>
    <path class="cls-3" d="M255.76,107.31c.74,0,1.45.22,2.12.65s1.01.97,1.01,1.61c0,.64-.27,1.25-.82,1.85-.55.59-1.27.96-2.18,1.08-.39.06-.98.08-1.76.08.15,1.19.46,1.97.9,2.35.14.15.33.23.57.23.87,0,1.6-.28,2.18-.83.59-.55,1.01-.83,1.26-.83.11,0,.28.11.5.32.22.21.34.41.34.59,0,.36-.44.89-1.32,1.58-.39.32-.86.59-1.42.81s-1.07.33-1.54.33c-1.22,0-2.11-.78-2.69-2.35-.36-.97-.55-2.03-.55-3.19s.27-2.16.82-3c.55-.84,1.41-1.26,2.58-1.26ZM255.86,108.76c-.53,0-.99.3-1.37.9-.14.21-.27.69-.4,1.43,1.96,0,2.94-.48,2.94-1.45,0-.59-.39-.88-1.18-.88Z"/>
    <path class="cls-3" d="M261.89,116.38l-.23-8.53c0-.27.09-.48.27-.65.18-.17.36-.25.55-.25.45,0,.71.19.78.57.06.38.08.77.08,1.18.76-1,1.7-1.49,2.83-1.49,1.74,0,2.6,1.98,2.6,5.94,0,.36,0,.91,0,1.65,0,.73-.04,1.27-.13,1.61-.1.42-.4.63-.9.63-.34,0-.5-.22-.5-.67l.02-1.18c0-1.62-.05-2.73-.16-3.33-.1-.59-.21-1.07-.3-1.42-.24-.76-.62-1.13-1.16-1.13-.7,0-1.19.25-1.47.76-.31.55-.49,1.19-.55,1.93-.1,1.3-.15,2.68-.15,4.14,0,.28-.1.5-.31.67s-.46.25-.76.25c-.35,0-.53-.22-.53-.67Z"/>
    <path class="cls-3" d="M271.03,109.56c.5-.77,1.13-1.35,1.9-1.73.77-.38,1.52-.58,2.25-.58s1.31.09,1.75.26c.44.17.66.41.66.69s-.08.57-.24.86c-.16.29-.37.43-.64.43-.1,0-.37-.08-.81-.24s-.72-.24-.85-.24c-.81,0-1.51.3-2.08.89-.57.6-.86,1.38-.86,2.36,0,.98.16,1.71.47,2.19.32.48.86.72,1.63.72.31,0,.84-.18,1.59-.54.75-.36,1.21-.54,1.4-.54s.33.06.44.17c.11.11.17.25.17.42,0,.34-.21.69-.64,1.06s-.96.68-1.58.92c-.63.25-1.2.37-1.7.37-1.12,0-2-.44-2.64-1.32s-.96-2.09-.96-3.61c0-.94.25-1.79.75-2.56Z"/>
    <path class="cls-3" d="M280.12,103.76c.25,0,.49.12.71.36s.34.49.34.75-.12.52-.37.79c-.24.27-.5.4-.77.4s-.51-.11-.72-.34c-.22-.22-.33-.51-.33-.86,0-.67.36-1.04,1.09-1.09h.04ZM281,114.76l.02,1.47c0,.27-.1.49-.31.66s-.43.26-.67.26c-.35,0-.53-.17-.55-.53-.18-4.47-.27-6.94-.27-7.41,0-.48.02-1.06.06-1.74.03-.25.19-.38.48-.38.74,0,1.16.3,1.26.9.04.31.06.55.06.74l-.08,1.32v4.7Z"/>
    <path class="cls-3" d="M289.29,107.22c.62,0,.92.52.92,1.57v.36l-.04,1.47c-.01.46-.02.92-.02,1.37l.32,4.75c0,.35-.36.53-1.07.53-.04,0-.14,0-.3,0-.16,0-.27-.06-.34-.19s-.07-.28-.02-.46c.05-.18.03-.38-.05-.61-.64.69-1.5,1.03-2.56,1.03-1.97,0-2.96-1.52-2.96-4.58,0-1.69.32-2.97.96-3.84.64-.87,1.55-1.3,2.74-1.3.56,0,1.12.1,1.68.29.18-.25.43-.38.76-.38ZM287.11,109.13c-.8,0-1.39.23-1.79.69-.39.46-.59,1.31-.59,2.54,0,2.07.56,3.11,1.68,3.11.29,0,.62-.13.98-.4.36-.27.61-.57.75-.9.27-.76.4-1.58.4-2.48,0-.9-.11-1.55-.33-1.95-.22-.41-.58-.61-1.1-.61Z"/>
    <path class="cls-3" d="M291.61,103.43c.03-.52.12-.87.25-1.03.13-.16.35-.24.64-.24.6,0,.9.25.9.74,0,.38-.03,1.37-.09,2.96-.06,1.6-.09,3.02-.09,4.28,0,1.26.05,2.28.15,3.04.17,1.34.41,2.02.71,2.02.31,0,.54-.22.69-.65.07-.17.18-.32.34-.45.15-.13.35-.2.59-.2.49,0,.73.41.73,1.24,0,.45-.24.89-.72,1.33-.48.44-.96.66-1.44.66-.48,0-.86-.08-1.14-.24-.29-.16-.52-.4-.69-.72-.18-.32-.32-.63-.42-.93-.1-.3-.18-.67-.22-1.1-.08-.7-.14-1.82-.18-3.37-.04-1.55-.05-3.02-.05-4.43,0-1.41.02-2.37.05-2.9Z"/>
  </g>
</svg>