<svg id="Capa_1" data-name="Capa 1" xmlns="http://www.w3.org/2000/svg" viewBox="0 0 34.12 31.77"><defs><style>.cls-1{fill:#fff;}</style></defs><path class="cls-1" d="M22.28,20c0-.09,0-.29,0-.25l-.07.33Z"/><path class="cls-1" d="M21.9,19.33a1.38,1.38,0,0,0-.21.73,5.77,5.77,0,0,0,.25-.54c.06,0,.1.12.08.24,0-.09.09.08.14-.13s-.16-.28-.29-.08A.53.53,0,0,1,21.9,19.33Z"/><path class="cls-1" d="M17.11,16.08v.05A.11.11,0,0,0,17.11,16.08Z"/><path class="cls-1" d="M15.91,12.83a.08.08,0,0,0,.08,0S15.94,12.82,15.91,12.83Z"/><path class="cls-1" d="M16.21,12.22l0,0S16.24,12.23,16.21,12.22Z"/><path class="cls-1" d="M17.11,16.08l0-.14C17,16,17.1,16,17.11,16.08Z"/><path class="cls-1" d="M20.88,20A.18.18,0,0,0,21,19.9l-.06,0Z"/><path class="cls-1" d="M18.37,17l0,0,.1-.09Z"/><path class="cls-1" d="M19.34,17.6s-.17.22-.24.32a.33.33,0,0,1,.15-.14C19.27,17.73,19.3,17.68,19.34,17.6Z"/><path class="cls-1" d="M20.88,18.78l0,0Z"/><path class="cls-1" d="M17.81,16.38l.06-.08Z"/><path class="cls-1" d="M23.35,20.2v-.05S23.34,20.2,23.35,20.2Z"/><polygon class="cls-1" points="21.77 18.75 21.79 18.74 21.82 18.58 21.77 18.75"/><path class="cls-1" d="M16.58,11.22h0S16.6,11.24,16.58,11.22Z"/><path class="cls-1" d="M22.83,7.31c-.06-.27.24-.28.14-.59C23,6.83,22.73,7.12,22.83,7.31Z"/><path class="cls-1" d="M20.86,19.93h0Z"/><path class="cls-1" d="M23,6.72h0v0Z"/><path class="cls-1" d="M17,9.05l-.12,0Z"/><path class="cls-1" d="M16.08,10.57l0,0S16.08,10.56,16.08,10.57Z"/><path class="cls-1" d="M17.07,8.17s.06,0,.05,0h0S17.12,8.18,17.07,8.17Z"/><polygon class="cls-1" points="17.72 7.63 17.67 7.59 17.66 7.62 17.72 7.63"/><path class="cls-1" d="M27,18.69a.86.86,0,0,1-.2-.18C26.94,18.67,26.83,18.84,27,18.69Z"/><path class="cls-1" d="M20.92,19.82c0,.06,0,.1-.06.11h0A.58.58,0,0,0,20.92,19.82Z"/><path class="cls-1" d="M15.42,6.65l.2-.16A.94.94,0,0,0,15.42,6.65Z"/><path class="cls-1" d="M29.53,10.33l0,0S29.56,10.34,29.53,10.33Z"/><path class="cls-1" d="M16.14,6a.67.67,0,0,0,.22.09.12.12,0,0,0,0-.08Z"/><path class="cls-1" d="M26.81,18.51Z"/><path class="cls-1" d="M26,19.79c.19-.09-.07-.38-.13-.59.16-.19.22.2.38.33.1-.15,0-.51.13-.55s.06.06.08.14c0-.33.39-.26.32-.67l.08.06a2.07,2.07,0,0,1-.32-.4c.06-.05,0-.28.15-.1-.05,0,0,.11,0,.18v-.13c.27.23,0,.16.13.37.08-.19,0-.54.21-.54.24.24-.17.28.16.4l-.24,0c.46.33-.13.05.34.42.3-.11.15-.34.43-.46-.08-.18-.21-.19-.29-.37,0-.51.83.39.71-.15-.12-.21-.43-.51-.12-.51l.25.3c.2-.19-.34-.47,0-.53.09.13,0,.25,0,.24.36,0-.09-.23,0-.34l.29.18a7.25,7.25,0,0,0,.18-1c.08.07.15.17.28.15,0-.43.41-.74.74-1.06L29.57,15s.15,0,.19,0c.15-.11-.18-.06-.27-.16s.2-.06.27,0c-.16-.34-.34-.84,0-1.06l.08.06c.15-.2-.57-.31-.28-.48l.05,0c.17-.46-.11-1,.3-1.35-.43,0,.13-.5-.47-.43.24-.31.37-.26.47-.68,0-.11-.4-.06-.49-.16l.29-.09-.36-.06.33-.2-.12-.09c0,.05-.1.14-.19.16s.05-.48.2-.55a3.19,3.19,0,0,0-.42-.3.47.47,0,0,1,.29,0c-.39-.07.28-.17-.08-.25-.05.06-.17.07-.23.09.13-.17,0-.39-.15-.51L29.2,9c-.12-.31-.45-.54-.67-.83,0,.17-.32.36-.41.3l.24-.23c-.2.07,0,.16-.31.2-.05-.12.24-.3.37-.3L28.23,8c.07-.07.14-.07.24-.14-.2.08.07-.43-.26-.28l.06-.07A3.69,3.69,0,0,0,27.6,7c-.2.2-.24.08-.45.19-.1-.2-.13-.54-.36-.67s-.19.16-.35.25c.14-.22-.08-.35.13-.43a1.39,1.39,0,0,0-.8-.19c0,.11,0,.17-.06.24s-.08-.17,0-.28h0c-.52.14-.58-1.14-1.13-.76l0,0-.43.15c-.14-.09.16-.16.09-.35-.49.3-.57-.23-1,0-.1-.8-.86-.11-1.13-.61v.18c-.1.17-.1-.11-.16-.16,0,.14.08.17,0,.26-.72.16-1.48-.3-2.28-.35-.29,0,0,.93-.41.57l0-.35c-.46.5-1.11.23-1.53.75,0-.09,0-.18,0-.2-.19-.19-.42.15-.34.33-.09,0-.09-.15-.18-.22s-.15.4-.32.22,0-.09,0-.12c0,.14-.36.16-.15.37-.27,0-.31.32-.55.29.09.31-.41.12-.16.49-.28-.37-.56,0-.5.27-.07-.14-.19,0-.3-.17-.11.14-.15.32.06.44-.65-.06,0,.73-.65.52,0,.52,0,1,0,1.37-.42-.17.1-.42-.34-.58,0,.44.33.75.14,1.06-.09.08-.18-.1-.24-.15.08.4-.22.69,0,1.06a.19.19,0,0,1-.11-.09c0,.07-.09.14.11.16l0-.07c.31-.05.58.34.74.36-.58-.18-.18.28-.91,0a.34.34,0,0,0,.27.11c0,.06-.13.07-.28,0,.09.24.31.17.3.37-.1,0-.14,0-.25-.08.19.12.38.23.29.4-.06,0-.14,0-.14-.05,0,.31.52.49.36.81-.44-.06-.14.11-.51.17l.13.16.17-.09c0,.16.31.25.2.39l-.17-.09.11.27L14.7,13c.21.12.47-.09.39.12,0,0,0,.14-.18.25h0c.14.05.27.09.2.22s-.41.07-.48.11c.32,0,.17.32.52.31a.79.79,0,0,0-.31.07l.26,0c-.06.09-.09.11-.25.15,0,.21.44-.21.32.09,0,0-.06,0-.11,0,0,.27.31.39.27.64-.32.21-.16-.15-.42,0,.19.3.69.44.76.76v-.08c.48-.22-.12.34.18.35,0,0-.28.11-.22.09,0,.24.36.31.68.47l-.14,0c0,.18.16.31.19.46.14-.06.17,0,.29-.15-.29.85.83.29.67,1,0,0-.17,0-.14,0l.33.11c.13-.19.05-.13.12-.31s.26-.11.31-.07c-.2,0-.23.29-.26.44a1.24,1.24,0,0,1,.14-.18c-.13.43.31-.35.31,0l-.08.1c.1,0,.26-.1.31,0-.13.24-.15.06-.28.23.12.06.49-.28.43,0-.08,0-.14,0-.23,0-.08.34,0,.28,0,.37h0l.12.24v-.11c.5-.51.35.06.76-.24-.39.28-.15.2-.31.47,0,.1,0,.22,0,.29.21-.17.08.25.37,0,0,.09.1.06,0,.27.16,0,0-.17.11-.27.31-.22.3.57.75.24.31-.09.45-.39.71-.49,0,.17-.16.33-.16.33.08.17.18.17.32.09a.47.47,0,0,0,0,.27c.1,0,.14-.34.23-.17a2.1,2.1,0,0,1-.18.37c.14-.07.29-.22.42-.29,0,.18-.12.25-.18.35a.58.58,0,0,0,.45-.36l-.07-.11c.05,0,0,.24,0,.28-.15.19-.15-.12-.14-.22l.1-.05c0-.57-.34,0-.5,0l.16-.39-.25.3c0-.11,0-.35.12-.39-.05-.23-.13.12-.17-.13,0,0,0-.06,0-.07l-.14.09c0-.08.06-.29.11-.21-.11-.28-.39.21-.36-.12l0,0c-.3.05-.12.29-.44.56l.14-.76-.13.28s-.07-.07,0-.18c-.18.16,0,.13-.17.3,0-.31-.4,0-.22-.5-.14.19,0,.22-.16.31.19-.5-.19,0-.19-.27.16-.22.19,0,.2-.31-.28.37-.16-.2-.28-.17-.19.32-.27,0-.48,0,.08-.09-.15-.35-.19-.54l0-.05c-.25.28-.33.12-.47.11a.68.68,0,0,1,.32-.26L18.39,17c-.1.08-.17.11-.25.09l.2-.19c-.11-.08-.43.06-.44-.21-.19.17-.38.63-.65.6.09-.1.25-.28.33-.28s-.13,0-.11,0l.22-.11c0-.14-.17.11-.2,0,.14-.14.06-.14.18-.24s0,.1.06.06a.42.42,0,0,1,.08-.35c-.08.08-.2.19-.26.16s.15-.2.17-.33c-.13.07-.08-.09-.31.1,0,0,.08-.13.13-.19-.15,0-.24-.24-.44,0v0h0c-.4,0-.18-.52-.41-.65l.09-.06c-.18-.06-.23-.24-.47-.23,0,0,.12-.18.23-.22-.12-.06-.23,0-.15-.24.21,0,.13-.1.17.05,0-.17.15-.26-.16-.29.25-.06.25-.22.16-.26l-.14.17a.25.25,0,0,1-.06-.2l.32-.09c.29-.38-.83-.27-.23-.67-.25,0-.12.19-.4.2,0-.14.44-.39.43-.43.14-.2-.51-.05-.42-.27-.12,0-.43.13-.57,0,0-.15.48-.24.58-.18s0,.06-.06.06a.17.17,0,0,0,.23,0H16.1c.11-.08.07-.25.27-.24a.16.16,0,0,0-.25.07c.15-.19,0-.26.07-.45-.06,0-.2.07-.2.05.13-.27-.24-.1-.3-.28.18-.1.44,0,.28-.15.12-.11.32,0,.42,0-.24-.15.15-.28.19-.36l.1.08a.1.1,0,0,1-.05-.12l-.25,0c.05,0,.05-.09.15-.08-.16-.06-.4,0-.61-.09.12-.06-.12-.21.2-.21-.13.19.32,0,.36.17,0,0,0-.07,0-.11l.09,0c.3-.15-.36-.11-.33-.3.17,0,.34,0,.31,0s-.3,0-.43-.09c.16-.11-.08-.16-.05-.22l-.08.06c-.17-.05-.14-.11-.18-.22.14,0,.08.1.15.08-.29-.16.36-.16.18-.34.13,0,.33.07.42,0-.18-.2.28-.09.14-.29-.24,0-.19,0-.39-.17l.1.3-.3-.26c0,.08.11.21.05.24-.17-.13-.11-.1-.31-.12.38,0-.15-.28.13-.34l.57.18c.31-.08-.19-.42.05-.59l-.13,0c-.2-.12,0-.15,0-.26a1,1,0,0,0,.39.1c-.14-.06.08-.14-.26-.34l.28,0c.18-.09-.37-.49-.19-.61.14.17.3.2.36.38,0-.05.09-.06,0-.15.11.06-.11-.29.07-.2-.05-.08-.2-.23-.14-.27l.07.07c-.07-.07,0-.17-.21-.28.55.32.41-.41.86-.06A1.1,1.1,0,0,1,18,7.26s0,.09,0,.08c.23.09-.14-.57.14-.47.22.26,0,.21.07.3.28.59.2-.18.46.13l0,0c.17.18.16-.32.35-.32a.43.43,0,0,0,0,.1.83.83,0,0,1,.38-.65c0,.26,0,.15,0,.39.07,0-.12-.4,0-.5a1.26,1.26,0,0,1,.28.49l-.14,0c.14.34.18,0,.26,0l0,.15c.2-.08.15-.48.39-.47l0-.12c.1-.41.14.21.24-.1l.08.4A1.63,1.63,0,0,1,21,6.28a2.35,2.35,0,0,1-.35.64A.31.31,0,0,0,21,6.68s-.07.14-.11.08c.09-.32.23-.48.41-.47,0,.77.45.2.53.81.31-.26.55.17.86.19,0-.61.1,0,.2-.61.09,0,.12,0,.12,0l.15.42c0,.19-.1.12-.13.25.15.09,0,.27.06.46,0-.22.14-.3.2-.19l-.05-.31c.32-.25.05.55.36.31l-.13.16c.14-.07.38.14.68-.27,0,.08-.05.24-.11.26.21.17.8-.2.84.18l-.09.12c.06,0,.23-.2.2,0s-.1.11-.08.14.26-.15.27,0L25,8.28c.11.3.58-.1.84,0a.75.75,0,0,0-.19.71l0,0c.17.24.62.1,1,.23-.25.44.21.63.13,1a.54.54,0,0,1,.37-.14c0,.1.36,0,0,.2v0c-.32.23-.16.3-.13.4l.49-.21c-.58.56.55.62-.06,1,.14,0,.16.12.31.15l-.28.06a.73.73,0,0,0,.05.5l-.2,0c0,.12.83.05.86.19l-.42.07c0,.24-.35.44,0,.68-.07,0-.19,0-.2-.06,0,.11-.33.36.26.4-.38,0-.07.22.06.39l-.27-.08c.33.18.43.21.48.38s-.22,0-.14-.05c-.17.08.24.16.05.27l-.16-.11c-.06.12,0,.14.22.27s-.16.21-.4.14c.14.07.31.21.21.26a.39.39,0,0,1-.16-.1c-.25.11.17.43-.15.44a.38.38,0,0,0-.16-.05c.08-.15.15-.26.17-.24-.24-.11-.33,0-.62-.25.14.16.44.52.27.57l-.09,0,0,0s0,0,0,.08l-.12,0c-.19-.09-.17.06-.21.11.24.15.15.2.39.26,0,0,0,0,0-.07s0,0,0,0l0,0a1,1,0,0,1,.07-.15c.1.11.17.23,0,.21l.33.33a5.39,5.39,0,0,1-.87-.25c0,.25-.2.41.09.88,0,.09-.16-.06-.23-.1s0-.09,0-.15c0,.18-.2.27,0,.57-.22,0-.17-.31-.28-.13l0-.1c-.34-.1-.3.17-.32.44s-.08.56-.47.33a.34.34,0,0,1,.12.09c-.59,0-.89.77-1.55.38-.16-.06-.12.16-.18.36l-.09-.29-.09.37c-.2.29-.45-.69-.68-.19l.05.2c-.1,0-.32.14-.31-.1,0,0,0,.21-.07.1v-.16l-.26.27c-.18-.13.07-.63-.18-.69a1.15,1.15,0,0,0-.32.54s.1.11.08.27l-.11.07c-.09.46-.27.93,0,1.29l.24-.26,0,.23h-.17c.07.23.16,0,.24-.08a.47.47,0,0,0,.07.25c.08-.14.15-.29.23-.44,0,.19-.11.37,0,.47.1-.2-.08-.41.07-.55.1.22.07.39.19.21a.3.3,0,0,1-.06.25c.11-.14.28-.07.32-.32.12.27.34-.09.37.36,0-.12.14-.37.23-.4-.1.55.35,0,.4.55.05-.5.44-.3.59-.62,0,0,0,.12,0,.1.13,0,.21.13.32.2-.1-.39.06-.53.08-.8.27.31.06.47.23.8-.11-.3.15-.39,0-.63a1,1,0,0,1,.31.36c-.16-.47.08-.12.05-.44.25.15.23.41.34.18C26,19.55,26,19.79,26,19.79Zm2.76-3.7h0l0,.09Zm.16-.33a.47.47,0,0,0-.08.14c-.09,0-.18-.09-.16-.12S28.77,15.77,28.87,15.76Zm-2-.37c0-.05,0,0,.09,0s0,0,0,.08l0,0Z"/><path class="cls-1" d="M27.1,15.66v0l.07,0-.07-.06Z"/><path class="cls-1" d="M17.1,16.14h0l0,0Z"/><polygon class="cls-1" points="29.79 10.7 29.72 10.72 29.79 10.74 29.79 10.7"/><path class="cls-1" d="M17.69,18.1a.15.15,0,0,0,0,.07Z"/><path class="cls-1" d="M18.33,18.63l0,.15A.59.59,0,0,0,18.33,18.63Z"/><path class="cls-1" d="M18.81,19.08l.07-.1h0Z"/><path class="cls-1" d="M14.2,10.3s0,0,0,0S14.16,10.25,14.2,10.3Z"/><path class="cls-1" d="M14.91,13.35l-.15-.06C14.75,13.34,14.75,13.38,14.91,13.35Z"/><polygon class="cls-1" points="15.4 6.66 15.4 6.67 15.42 6.65 15.4 6.66"/><path class="cls-1" d="M14.74,13.15a.1.1,0,0,0,0,.14S14.79,13.18,14.74,13.15Z"/><path class="cls-1" d="M21.46,20.11l0,0a.07.07,0,0,1,0-.05Z"/><path class="cls-1" d="M21.5,20.08l0,0S21.51,20.05,21.5,20.08Z"/><path class="cls-1" d="M21.62,20l-.08.06S21.59,20.07,21.62,20Z"/><path class="cls-1" d="M20.63,19.8l0,.1A.41.41,0,0,0,20.63,19.8Z"/><path class="cls-1" d="M20.37,19.76c.05,0,.09.25.2.21l0-.07C20.51,20,20.48,19.61,20.37,19.76Z"/><path class="cls-1" d="M19.87,18.21l.14.15c0-.11,0-.26.11-.26C20,17.71,20.07,18.35,19.87,18.21Z"/><path class="cls-1" d="M19.42,17.81c.11,0,.08-.14.11-.19S19.4,17.69,19.42,17.81Z"/><path class="cls-1" d="M16.59,14.93l.23-.11C16.76,14.77,16.74,14.86,16.59,14.93Z"/><polygon class="cls-1" points="15.02 14.68 14.9 14.82 15.14 14.77 15.02 14.68"/><polygon class="cls-1" points="16.61 13.63 16.65 13.65 16.53 13.56 16.61 13.63"/><path class="cls-1" d="M17.73,7.92l-.2-.25C17.52,7.74,17.73,8,17.73,7.92Z"/><path class="cls-1" d="M20.28,6.77c0,.15.14.24.17.08C20.39,6.84,20.31,6.72,20.28,6.77Z"/><polygon class="cls-1" points="27.1 10.77 26.98 10.77 27.11 10.82 27.1 10.77"/><path class="cls-1" d="M16,16.92a102.3,102.3,0,0,1-8.24,6.9c-.65.49-1.39,1.23-1,1.73a1.22,1.22,0,0,0,1.3.13,4.66,4.66,0,0,0,1.24-.81l7.57-6.33a2.29,2.29,0,0,0,.89-1.1c.13-.69-1-1.07-1.7-.57"/><path class="cls-1" d="M15.89,16.63s.06.11.1.07l-.05-.15Z"/><path class="cls-1" d="M16.3,16.71a.39.39,0,0,0,0-.33c0,.15-.05.1,0,.28s-.09,0-.11-.06-.08,0-.06.1.17,0,.21-.08S16.29,16.69,16.3,16.71Z"/><path class="cls-1" d="M16.13,18.9h0Z"/><path class="cls-1" d="M14.1,20.49s0,0,0,0S14.09,20.48,14.1,20.49Z"/><path class="cls-1" d="M13.66,20.65h0S13.66,20.64,13.66,20.65Z"/><path class="cls-1" d="M16.13,18.9h-.08S16.1,18.91,16.13,18.9Z"/><path class="cls-1" d="M16.89,16.28s0,0-.05,0h.05Z"/><path class="cls-1" d="M16.92,18.08h0l0-.06Z"/><path class="cls-1" d="M17.37,17.53l.14.08s-.06,0-.06-.06Z"/><path class="cls-1" d="M17,16.79l0,0Z"/><path class="cls-1" d="M16.43,18.46l0,0Z"/><path class="cls-1" d="M14.86,17.18l0,0Z"/><polygon class="cls-1" points="16.01 16.94 16.01 16.96 16.05 17.01 16.01 16.94"/><path class="cls-1" d="M12.94,21h0S13,21,12.94,21Z"/><path class="cls-1" d="M7.43,25.29c0,.11-.07.14,0,.26C7.42,25.51,7.49,25.36,7.43,25.29Z"/><path class="cls-1" d="M16.92,16.29h0Z"/><polygon class="cls-1" points="7.42 25.55 7.42 25.55 7.43 25.57 7.42 25.55"/><path class="cls-1" d="M11.57,22.29l0,0Z"/><path class="cls-1" d="M12.74,21.54h0Z"/><path class="cls-1" d="M11.13,22.88s0,0-.05,0h0S11.1,22.88,11.13,22.88Z"/><polygon class="cls-1" points="10.56 23.36 10.58 23.37 10.6 23.35 10.56 23.36"/><path class="cls-1" d="M13.22,18.73a.24.24,0,0,1,.09.06C13.25,18.73,13.31,18.63,13.22,18.73Z"/><path class="cls-1" d="M16.89,16.35a.1.1,0,0,1,0-.06h0A0,0,0,0,0,16.89,16.35Z"/><path class="cls-1" d="M11.72,23.64l-.1.07Z"/><path class="cls-1" d="M9.12,22.14v0S9.12,22.12,9.12,22.14Z"/><path class="cls-1" d="M11.36,23.94l-.1,0a.08.08,0,0,0,0,0Z"/><path class="cls-1" d="M13.32,18.79h0Z"/><path class="cls-1" d="M13.71,18.06c-.09.07.06.15.11.23s-.13,0-.22-.07,0,.24,0,.27,0,0-.05,0c0,.16-.2.18-.17.37l0,0a1.05,1.05,0,0,1,.15.15s0,.14-.08.08,0-.06,0-.09V19c-.13-.08,0-.09,0-.17,0,.1-.05.28-.14.3s.11-.16-.06-.19l.13,0c-.22-.12.07,0-.16-.17-.15.07-.09.18-.24.25,0,.08.09.08.12.17-.08.26-.38-.17-.38.09s.14.26,0,.26l-.07-.15c-.13.09.09.24-.11.26,0-.07.06-.12,0-.12s0,.12-.05.17l-.11-.1c-.11.12-.18.32-.31.46,0,0,0-.09-.08-.1a1.15,1.15,0,0,1-.62.38v.15s-.06,0-.06-.05.05.06.05.13-.1,0-.1-.07c-.05.18-.19.46-.4.46v-.05c-.13,0,0,.29-.11.27v0c-.25.13-.41.41-.69.39.08.17-.27.11-.12.32-.2,0-.19-.07-.42,0-.05,0,0,.18,0,.25L9.3,22v.18L9.16,22l0,.07a.11.11,0,0,1,.11.05c-.05.11-.27.08-.31,0l-.13.24s0-.08,0-.13c0,.19-.11-.1-.13.08,0,0,0,.07.06.09s-.21.06-.27.15l0-.09c-.16.1-.29.28-.45.4.08,0,.17.13.13.18L8,23c0,.1.08,0,.09.14s-.14-.1-.14-.16l0,.1s0-.06-.06-.11-.21,0-.17.14l0,0c-.17.13-.2.21-.35.34.07.1,0,.12,0,.23a1.15,1.15,0,0,0-.43.21c0,.13,0,.1.07.19-.09-.08-.2.05-.2-.07a1.27,1.27,0,0,0-.26.51c.06,0,.1,0,.12,0s-.12.09-.16.06v0c0,.2-.2.37-.29.61s-.07.52.13.6h0l.13.1.17.08c.11.11-.13,0-.09.12.41.08.55.3.9.21.25.34.68-.09,1,0l0-.06c0-.1.08,0,.13,0s-.09,0-.07-.09c.44-.29,1-.45,1.35-.69.14-.09-.18-.37.09-.36l0,.15c.14-.34.52-.42.67-.74,0,0,0,.07,0,.09.12,0,.2-.16.15-.23s.05.06.11.07,0-.21.14-.16,0,0,0,.06.17-.13.06-.19c.12,0,.14-.19.26-.2,0-.14.2-.08.09-.24.12.16.27,0,.26-.13,0,.06.09,0,.12.08s.11-.13,0-.2c.28.08.13-.35.39-.18a3.94,3.94,0,0,1,.42-.64c.12.16-.19.18-.05.33.12-.2.11-.41.31-.52s0,.09,0,.13c.12-.21.34-.26.43-.47,0,0,0,0,0,.07s.09,0,0-.1v0c-.13-.06-.05-.31-.09-.36.11.23.19-.08.31.24a.13.13,0,0,0,0-.13s.07,0,.08.09c.08-.13,0-.17.08-.25a.66.66,0,0,1,0,.11c0-.1,0-.21.09-.25s.05,0,0,.06c.13-.13.1-.37.3-.44.08.19.09,0,.21.13l0-.11-.09,0c.08-.06.06-.2.16-.22V21l.12-.14-.12,0c0-.13-.14-.15,0-.2s.07-.06.17,0h0c0-.07,0-.15.08-.16s.11.15.14.17c-.05-.14.14-.17.09-.32a.24.24,0,0,0,.08.11l0-.11c.06,0,.07,0,.11.07s-.16-.13,0-.16a.08.08,0,0,1,0,.05c.15-.07.19-.25.34-.3s-.07.11,0,.19c.14-.16.2-.43.38-.53h0c-.12-.19.19,0,.2-.15,0,0,.06.11,0,.09s.18-.22.3-.41l0,.06c.09,0,.18-.11.26-.15s0-.09-.05-.13c.42.08.28-.47.64-.41,0,0,0,.08,0,.07l.13-.18c-.08-.07-.07,0-.15-.06a.17.17,0,0,1,0-.17c0,.11.11.12.18.13s0-.05-.06-.07c.2.05-.13-.16.06-.17l0,0c0-.06,0-.15.05-.18s0,.08.07.15-.05-.27.08-.26,0,.09,0,.14.14,0,.2-.06h0l.14-.11-.05,0c-.18-.23,0-.26,0-.42l0-.05.05.05c.07.07.07,0,.12,0H18c.05,0,.09-.12.13-.1s.09-.18-.09-.28c0,0,0-.1.08-.11-.08-.11-.06.05-.11.05s-.1-.16-.15-.28a.3.3,0,0,0-.31-.22c-.24,0-.31.1-.48.13s.08-.14.08-.14a.18.18,0,0,0-.24,0s0-.07,0-.12-.05.15-.14.09a.61.61,0,0,1,.07-.17,2.2,2.2,0,0,0-.25.17c0-.07,0-.12.07-.17s-.26.11-.26.23l.07,0s0-.1,0-.12.13,0,.14.06l-.05,0c.09.24.22-.07.35,0l-.06.18a.86.86,0,0,1,.13-.14c0,.05,0,.15,0,.17s.07-.06.12.05,0,0,0,0l.08,0s0,.12-.05.09.23-.07.21.07h0c.16,0,.07-.12.29-.16a1.22,1.22,0,0,1-.17.29l.12-.08s0,.05,0,.08c.12,0,0,0,.14-.07-.05.12.18.2,0,.28.11,0,.07-.1.15,0-.23.07.06.11-.06.19s-.06-.08-.17,0c.07,0,.08,0,.07.05s-.13.06-.12.09,0,.13,0,.25c0,0-.2.12-.31.15l0,0c.1.12,0,.18,0,.26C17,18.12,17,18.08,17,18l-.06.05a.15.15,0,0,1,0,.13l-.07-.1c-.07.07-.06.24-.22.27.06.09.28.17.22.32,0-.05-.11-.12-.1-.16s0,.06,0,.06l0-.12c-.08,0,0,.09,0,.11s-.07,0-.11-.08.06,0,.05,0a.28.28,0,0,1-.2,0s.08.09.05.12-.09,0-.17,0-.07.06,0,.16-.07,0-.1,0-.19.18,0,.24h0c-.06.21-.33.18-.44.34l0,0c-.05.11-.17.17-.17.29s-.11,0-.13-.06,0,.12-.15.15-.07,0,0-.1c-.11,0-.17,0-.18.17a.09.09,0,0,0-.17,0h.11a.41.41,0,0,1-.13.1l-.07-.13c-.28,0-.11.48-.42.36,0,.12.13,0,.17.11s-.3-.05-.33,0,0,.25-.11.3a.19.19,0,0,1,.1.23c-.09,0-.23-.09-.21-.16s0,0,0,0,0-.08,0-.1l0,0c-.07,0-.17.08-.2,0,0,.09,0,.09.09.08-.15,0-.16.12-.29.17,0,0,.09,0,.07.05-.19.08,0,.13-.09.24s-.1-.17-.16,0-.1-.09-.1-.15c0,.16-.22.1-.28.13l0-.08a.16.16,0,0,1-.06.09l.09.05s-.06,0-.09,0,.13.11.14.23-.08.14-.19,0c.15-.07-.1-.1,0-.2a.09.09,0,0,1-.07.06s0,0,0,0c-.19,0,.05.17-.07.26,0-.07-.12-.09-.13-.06s.11.08.1.17-.05.1-.1.13l.06,0c0,.07,0,.1,0,.16s0-.07,0-.08c0,.16-.22,0-.25.15-.07,0-.09-.11-.15-.11s-.17,0-.21.15.08,0,.08.16l.11-.19V22s.06-.14.1-.15,0,.08.07.13c-.17-.07-.07.18-.22.16l-.16-.2c-.19,0-.12.27-.31.35h.08c0,.1-.09.09-.11.16a.24.24,0,0,0-.15-.09c0,.05-.12.08,0,.23l-.14,0c-.15.06,0,.3-.11.37,0-.1-.12-.1-.08-.22s-.09,0,0,.1,0,.18-.12.14.06.12,0,.15l0,0s0,.1.07.14c-.29-.11-.32.29-.57.2a2,2,0,0,1-.22.27s0,0,0,0c-.15,0,.1.24-.08.28s0-.12-.06-.12c-.19-.21-.12.15-.3.09v0c-.13,0-.09.21-.2.27l0,0a.62.62,0,0,1-.14.43c0-.11,0-.08-.09-.16s.13.13.06.23a.4.4,0,0,1-.24-.1l.07-.07c-.14-.09-.1.09-.16.11l0-.06c-.11.12,0,.26-.14.36l0,0c0,.2-.12,0-.11.14l-.13-.12a1.22,1.22,0,0,1-.14.35,1.38,1.38,0,0,1,.05-.37S8.57,25,8.6,25s0-.08,0-.07a.3.3,0,0,1-.12.32c-.16-.29-.31.09-.49-.12-.13.2-.34.08-.51.11.09.25,0,0,0,.28,0,0-.07,0-.07,0a.37.37,0,0,1-.07-.16c0-.08,0-.06.05-.12s0-.11,0-.18c0,.09-.07.13-.06.09a.56.56,0,0,0,0,.12c-.15.11.1-.2,0-.1l.08-.06H7.14l.13,0s-.2-.17,0-.2l0,0s-.06-.11,0-.11,0,.05,0,0,0-.14,0-.15l0,.08c.19-.08.08-.34.18-.49A.32.32,0,0,0,8,24.4v0c.19-.12.25-.39.39-.59.24.08.45-.24.71-.29A.13.13,0,0,1,9,23.39c.06,0,0-.2.14-.06h0c.14.11.2,0,.28-.05L9.3,23.1c.39.12.41-.48.69-.32,0-.08.07-.12.08-.2l.07.1a1.32,1.32,0,0,0,.35-.26l0,.09c.09-.06-.11-.36,0-.43l.14.13c.15-.13.4-.12.45-.37,0,0,0,.07,0,.09s.35-.12.16-.3c.11.13.17-.11.2-.23l.07.1c0-.17-.06-.21,0-.32s.08.06,0,.06c.11,0,0-.14.11-.16l0,.09c.08-.06.05-.09,0-.19s.17-.1.25,0-.05-.16,0-.18a.1.1,0,0,1,0,.08c.18,0,.1-.27.26-.25s.05,0,.06,0a1.16,1.16,0,0,1-.18.14c.07.08.16,0,.2.2,0-.12,0-.35.12-.38l0,0v0a.05.05,0,0,0,0-.06.14.14,0,0,0,.09,0c.07.07.12,0,.17-.07s0-.12-.14-.15,0,0,0,0a0,0,0,0,1,0,0h0l-.1.1c0-.08,0-.15.08-.13l-.07-.2c.17.08.33.06.42.13.08-.16.26-.28.19-.52,0-.06.08,0,.12,0s0,.05,0,.08.2-.19.11-.33c.13,0,0,.16.15,0v.05c.41,0,.12-.64.6-.62H14c.39-.16.52-.65,1-.74.12,0,.06-.12.05-.22l.11.08,0-.19c0-.2.43,0,.44-.25l-.08-.05c.07,0,.14-.2.2-.11s0-.09,0-.07l0,.05.05-.22c.14-.06.17.22.33.09s0-.3,0-.31A.12.12,0,0,1,16,17L16,17c-.13-.16-.23-.35-.46-.33v.17l-.09-.05.07-.07c-.11,0-.08.05-.07.12a.19.19,0,0,0-.11,0l0,.22c-.06-.05-.07-.15-.15-.13s.16.1.13.2-.14-.09-.14,0a.12.12,0,0,1-.05-.1c0,.08-.1.12,0,.22-.12,0-.13.16-.25,0,0,0,0,.18,0,.22-.08-.24-.16.13-.3-.07.08.2-.14.25-.16.42,0,0,0-.05,0-.05s-.13,0-.19,0c.11.13,0,.24.07.36-.18-.06-.09-.19-.22-.29.1.1,0,.21.08.28-.12,0-.08,0-.2-.08.13.16,0,.07,0,.2-.15,0-.15-.13-.19,0S13.71,18.06,13.71,18.06Zm-1.75,2h0l0,0Zm-.17.15.08-.06s.05.07,0,.08S11.84,20.2,11.79,20.2Zm.91.34s0,0-.06,0l0-.05h0Z"/><path class="cls-1" d="M12.64,20.38v0h0l0,0Z"/><path class="cls-1" d="M16.17,18.89h0Z"/><polygon class="cls-1" points="9.28 21.94 9.29 21.96 9.29 21.93 9.28 21.94"/><path class="cls-1" d="M17.38,18.41l0,0Z"/><path class="cls-1" d="M17.79,18l.08-.05Z"/><path class="cls-1" d="M18.07,17.53l-.05,0h0Z"/><path class="cls-1" d="M13.29,22.15h0S13.28,22.18,13.29,22.15Z"/><path class="cls-1" d="M14.58,20.7a.19.19,0,0,1,0,.08S14.62,20.75,14.58,20.7Z"/><polygon class="cls-1" points="11.74 23.64 11.73 23.63 11.72 23.64 11.74 23.64"/><path class="cls-1" d="M14.5,20.84a.09.09,0,0,0,.07-.06S14.51,20.8,14.5,20.84Z"/><path class="cls-1" d="M16.43,16.3h0v0Z"/><path class="cls-1" d="M16.41,16.32l0,0Z"/><path class="cls-1" d="M16.34,16.39l.05-.05A0,0,0,0,0,16.34,16.39Z"/><path class="cls-1" d="M17.11,16.35V16.3A.43.43,0,0,0,17.11,16.35Z"/><path class="cls-1" d="M17.31,16.38s-.1-.12-.18-.11v0C17.17,16.24,17.24,16.44,17.31,16.38Z"/><path class="cls-1" d="M17.51,17.2s0-.07,0-.1-.08.09-.11.06C17.31,17.32,17.47,17.08,17.51,17.2Z"/><path class="cls-1" d="M17.45,17.48c0-.05-.07,0-.09,0S17.4,17.5,17.45,17.48Z"/><path class="cls-1" d="M15.37,19.43l-.07-.09C15.27,19.39,15.33,19.37,15.37,19.43Z"/><polygon class="cls-1" points="15.29 20.25 15.38 20.27 15.33 20.17 15.29 20.25"/><polygon class="cls-1" points="14.52 19.86 14.52 19.83 14.48 19.93 14.52 19.86"/><path class="cls-1" d="M10.59,23.19l.1.1C10.7,23.24,10.61,23.12,10.59,23.19Z"/><path class="cls-1" d="M9,24.72c-.06,0-.13,0-.12.05S9,24.75,9,24.72Z"/><polygon class="cls-1" points="9.49 23.17 9.48 23.23 9.53 23.15 9.49 23.17"/></svg>