<svg id="Capa_1" data-name="Capa 1" xmlns="http://www.w3.org/2000/svg" viewBox="0 0 377.21 152.38"><defs><style>.cls-1{fill:#62a7bc;}.cls-2{fill:#fff;}.cls-3{opacity:0.2;}.cls-4{fill:#fffcf6;}</style></defs><path class="cls-1" d="M58.53,20.22c-47.87-9.66-45.06,62.17-38.86,86.51,2.12,8.31,5.91,17.26,14.4,21,4.52,2,9.74,2.25,14.79,2.44,81.87,3.07,164,6.14,245.63-.54,25.34-2.07,53.87-6.85,67.64-26.09,14.06-19.66,12-61.9-8.59-77.92-10.24-8-23.64-8.58-36.5-9.19-44.27-2.07-88.56-4-132.83-5.89C143.15,8.79,99.33,3,60.73,19.25"/><path class="cls-1" d="M64.81,26.52c-1.15.3-.21,1.46-.27,1.76C66.23,27.3,64.62,26.19,64.81,26.52Z"/><path class="cls-1" d="M82.67,17.5l-.21.65c.84-.71,1.7-1.41,2.58-2C84.24,16.53,83.45,17,82.67,17.5Z"/><path class="cls-1" d="M101.31,14.43c-2.09-2.3-6.78,1.27-10.23.91l-.64-.44L89.3,17.1c2-.58,4.22-1.27,6.36-1.87,1.07-.29,2.11-.55,3.07-.72A9.53,9.53,0,0,1,101.31,14.43Z"/><path class="cls-1" d="M111.73,18.82c-.67-.91,2.1-.95-2.33-.15a2.88,2.88,0,0,1,.43.21A17.07,17.07,0,0,1,111.73,18.82Z"/><path class="cls-1" d="M109.83,18.88c-2,.19,1.33.71,0,0Z"/><path class="cls-1" d="M118.9,17.91l-2.58.93c.57.53,2.87.59,2,1C121,19.31,120.44,18.78,118.9,17.91Z"/><path class="cls-1" d="M121.33,16.07l-1.35.4C120.23,16.7,120.59,16.77,121.33,16.07Z"/><path class="cls-1" d="M117.13,17.31l2.85-.84c-.39-.38-.45-1.16-1.31.31C118.88,16.06,118.33,16.77,117.13,17.31Z"/><path class="cls-1" d="M115.49,17c-1.49-.49-3.41-.69-.81-1.67-2.51.29-3.54.89-3.33,1.3S113,17.23,115.49,17Z"/><path class="cls-1" d="M102,11.84l-2.08-.5c-.54.33-1.09.65-1.62,1C99.13,11.82,102.22,12.59,102,11.84Z"/><path class="cls-1" d="M135.23,19.15c.18-.51-.85-1.39-1-2l-2,.56C133.23,18,135.12,18.39,135.23,19.15Z"/><path class="cls-1" d="M134.19,17.1l2.95-.83C134.52,16.12,134,16.53,134.19,17.1Z"/><path class="cls-1" d="M121.76,13.38l-4.75,2c1.88-.67,3.76-1.4,5.68-2Z"/><polygon class="cls-1" points="146.41 19.6 144.69 20.71 147.74 19.05 146.41 19.6"/><path class="cls-1" d="M153.9,19.75c-1.3.92,1.61,1.76.26,2.3a15.43,15.43,0,0,0,5.45-1.49A9.62,9.62,0,0,1,153.9,19.75Z"/><path class="cls-1" d="M162.32,19.6a17.09,17.09,0,0,0-2.71,1A9.39,9.39,0,0,0,162.32,19.6Z"/><path class="cls-1" d="M142.15,16.7a3.16,3.16,0,0,0,2.25,1.55l-1.1-1.49Z"/><path class="cls-1" d="M143.26,16.72l0,0c1.26.07,2.13.15,2.51.18Z"/><path class="cls-1" d="M141.85,16.68l.3,0C142,16.56,142,16.51,141.85,16.68Z"/><path class="cls-1" d="M129.46,14.65c1.73-.77,5.37-1.58,1.88-2.87C130.08,12.75,132.08,13.48,129.46,14.65Z"/><path class="cls-1" d="M140.48,14.83l-3.13-.44c.05.38.6,1-.27,1.33Z"/><polygon class="cls-1" points="142.03 14.42 140.48 14.83 141.64 14.99 142.03 14.42"/><path class="cls-1" d="M157,18a12.34,12.34,0,0,1,4.59-.54,34,34,0,0,0-5.42-.73C155.87,17.12,155.05,17.89,157,18Z"/><path class="cls-1" d="M150.31,17.19c.1,0,.22,0,.31-.06C150.44,17,150.29,17,150.31,17.19Z"/><path class="cls-1" d="M178.29,18.35c-.09-.08-.16-.18-.26-.27,0,.08,0,.16-.07.25Z"/><path class="cls-1" d="M155.86,16.39a3.78,3.78,0,0,0-3,.36,24.79,24.79,0,0,1,3.26-.07C156.27,16.48,156.3,16.35,155.86,16.39Z"/><path class="cls-1" d="M167,19.19a22,22,0,0,0-2.32-.93C165.36,18.76,166.73,19.55,167,19.19Z"/><path class="cls-1" d="M151.05,17.55l-.2.05C151.27,17.93,151.23,17.78,151.05,17.55Z"/><path class="cls-1" d="M151.05,17.55a8.58,8.58,0,0,0,1.84-.8,12.2,12.2,0,0,0-2.27.38A1.91,1.91,0,0,1,151.05,17.55Z"/><path class="cls-1" d="M183.8,9.32c-.29,1.33-4,2.39-7,.8-3.1.84-1.36,5.37,1.2,8,.13-.58.16-1.12,3.36-1.76-1.08-.79-6.92-2.05-4.2-3.13,4.21-.49,3.4.64,5.39,1.44-1.64-1.74,5.41-2.18,4.6-4.68l-3.68.7C183.45,10.26,184.8,9.72,183.8,9.32Z"/><path class="cls-1" d="M172,17.62l-1.3.09a13.52,13.52,0,0,1,4.38,2.07c2.2-.54,2.68-1,2.85-1.45l-6.38-.53Z"/><path class="cls-1" d="M164.93,17.39c1.09-1.4,4.22-1.84,2.41-3.53-3.79-.12-2.72,1.07-5,1.57,6.12,0-1.8.71,2.56,1.79a21.82,21.82,0,0,1-3.32.19c1.09.24,2.14.53,3.12.85l-.13-.1h0v0c-.25-.19-.33-.31,0-.19l.13,0a1.42,1.42,0,0,1,.31-.53c1.75.4.25.39-.31.53a1.89,1.89,0,0,0-.09.21l0,0,6.17-.45A30.26,30.26,0,0,0,164.93,17.39Z"/><path class="cls-1" d="M134.64,8.7a.36.36,0,0,1,.19.34C135.23,8.87,135.39,8.75,134.64,8.7Z"/><path class="cls-1" d="M137.14,9.62a2.93,2.93,0,0,1-2.27.6c-1.24-.46,0-.7,0-1.18-.88.37-3.06,1-.35,1.75l.44-.19c2.44.52,5.53,2.48,5.09,2.66A9.86,9.86,0,0,0,137.14,9.62Z"/><path class="cls-1" d="M151.25,13l5.11-.45-2.52-1.4.09.76C151.06,11.5,151.63,12.48,151.25,13Z"/><polygon class="cls-1" points="178.84 19.11 178.08 20.61 181.17 18.59 178.84 19.11"/><polygon class="cls-1" points="185.53 19.24 185.22 20.57 187.01 19.84 185.53 19.24"/><path class="cls-1" d="M249.54,140.48l-1.5.44A6.8,6.8,0,0,0,249.54,140.48Z"/><path class="cls-1" d="M260.46,140.06l.23-.68C260.2,139.77,260,140.05,260.46,140.06Z"/><path class="cls-1" d="M344.12,29.68c.22.47.43,1,.61,1.45s.31.95.44,1.29c.27.69.51,1,.86.3.14-.5.27-1,.39-1.48a5,5,0,0,1-1.35-.7A4,4,0,0,1,344.12,29.68Z"/><path class="cls-1" d="M347.13,117.16l.78.06c.21-.7.4-1.35.55-1.94C348.07,115.85,347.62,116.49,347.13,117.16Z"/><path class="cls-1" d="M348.67,123.3c-1.08.21-2.17.37-3.23.55A13.11,13.11,0,0,0,348.67,123.3Z"/><path class="cls-1" d="M189.94,143.26l-1.76,1.5C190.94,144.74,189.73,144,189.94,143.26Z"/><path class="cls-1" d="M253.4,21.71a19.32,19.32,0,0,0,4.65,1.1C255.82,21.86,254.05,20.52,253.4,21.71Z"/><path class="cls-1" d="M253.13,124.7c-.9.31-1.28.62-1.24,1C252.82,125.36,253.34,125.05,253.13,124.7Z"/><path class="cls-1" d="M263.49,23c-.32-.16-.65-.25-1-.39a18,18,0,0,1-4.46.16A6.3,6.3,0,0,0,263.49,23Z"/><path class="cls-1" d="M7.91,74.5c.07-.16.1-.36.18-.51C7.89,73.94,7.88,74.16,7.91,74.5Z"/><path class="cls-1" d="M42.62,27c-.21.12-.51.2-.81.35l-.94.48a2.36,2.36,0,0,0,.67-.25l.47-.27C42.19,27.2,42.39,27.11,42.62,27Z"/><path class="cls-1" d="M212.15,21.07c-1.41,0-.23.15,0,0Z"/><path class="cls-1" d="M205.58,15a1,1,0,0,0,.59-.69A1.21,1.21,0,0,1,205.58,15Z"/><path class="cls-1" d="M277.9,14.53H278C277.62,14.23,277.69,14.29,277.9,14.53Z"/><path class="cls-1" d="M210.07,20.3a9.88,9.88,0,0,0,1.78.52A12,12,0,0,0,210.07,20.3Z"/><path class="cls-1" d="M210.32,21l-1.22-.2C208.91,21.05,209.06,21.21,210.32,21Z"/><path class="cls-1" d="M214.11,21.07a12.41,12.41,0,0,1-2.26-.25c.27.11.38.2.3.25C212.57,21.06,213.15,21.06,214.11,21.07Z"/><path class="cls-1" d="M90,136.16a2.63,2.63,0,0,1-.3-.14C88.24,136.58,88.87,136.5,90,136.16Z"/><path class="cls-1" d="M375.27,49.15c0-.07-.08-.09-.11-.15s0,.16,0,.23Z"/><path class="cls-1" d="M377.57,54.35a7.21,7.21,0,0,1-2-2.61,8.2,8.2,0,0,1-.39-2.51c-1.22,1-2.41,1.87-3.67,2.76C373.51,52.69,375.58,53.47,377.57,54.35Z"/><path class="cls-1" d="M223.41,141.72,227,143c-4.26,2.27-7.4,1.6-4,3.37.4-4.61,13.89-.79,14.24-5.45l2.39.88c-.68,0-.78.26-1.44.24,4.65,2,3.28-3.45,9.19-3,2.06.29,3.52.86,2.15,1.48l4.52-1.35c1.33,0,1.05.84-.28.81l7-.69,0,.13a32.32,32.32,0,0,1,4.23-2.52c1.8.55-.87.54-.38,1.09l3.79-1.35c1.64,1.1-1.49,2.44-4.17,2.43,3.87,4.37,3.14-1.35,11.08.86l-3.61.81c2.51,2.45,5.31,1.36,9.56,2.7-1.05-.76-8.55-3.58-4.42-5a7,7,0,0,0,5-.75c.13,1.63,2.31,1.07,5.07.77l0,2.18c2.94-.85,2.62-1.93,4.31-3,3.34,0,4.16,1.6,5.08,2.93,5.47-.14-4-2.35,2.41-3.33,4.57.41,7.7-.8,12.91-2.85,3.27.27-.36,1.39.86,1.84l2.55-2.13c.7-.08.56.49.49.77,2.26-1.08-.15-2.17,3.42-3.4.28-1.24,2.3-.79,4.82-.46a14.9,14.9,0,0,0,3.95,0,5.76,5.76,0,0,0,3.5-1.66c1.29.26-.18,1.44.4,2.15l3.3-2c.8-.53,1.38-.92,1.91-1.32a27.86,27.86,0,0,0,4-3.72l2.38-.22c.8-.09,1.58-.24,2.39-.36-1.89,0-2-.9-1.42-2.18a43.88,43.88,0,0,1,3.11-4.51c-1.36-.1-2.5-.25-3.23-.28a26.65,26.65,0,0,0,2.13-1.83c.68-.64,1.38-1.24,2-1.88.71-.09.73.89.4,2.11a5.81,5.81,0,0,0,.58-1c2.06-.47,2,1.13,1.37,3-.85,0-1.69,0-2.5-.09-.55,1.85-1.07,3.84-.21,4.8a5.93,5.93,0,0,1,1.44-1.51c-.16.5-.22.91.05,1s.61-.64,1.18-1.62c.82.46,1.64.91,2.49,1.34l-.23-1,3.82-1.74c1.28-.61,2.49-1.37,3.75-2.08a28.26,28.26,0,0,0,1.86-4.52c.25-.77.54-1.5.74-2.3l.64-2.43c.23-.78.46-1.59.7-2.44s.47-1.71.7-2.6c.45-1.78,1-3.62,1.59-5.67.77,2.67,2.45,1.63,4.33,2.57a3.82,3.82,0,0,0-1.71,1.71,21.71,21.71,0,0,0-1.06,2.73,25.71,25.71,0,0,1-1.25,3.26,13.29,13.29,0,0,1-2.11,3c1.79-1.87,2.25-.84,2.09-.08l1-2.09.86-2.2a43.48,43.48,0,0,0,1.3-4.38c.72.48,1.22.2,1.75-.42s1-1.62,1.81-2.56c-1.9.16-1.8-1.56-1.31-3.73s1.27-4.89,1.1-6.65c1.13,0,2.2,1.13.71,5.15,1.91-1.89,1.33-3.68.63-5.34a10.79,10.79,0,0,1-.83-2.5,3.83,3.83,0,0,1,.74-2.74c-.11,1-.37,1.49.12,2a8.25,8.25,0,0,1-.09-2.27,18.71,18.71,0,0,1,.41-2.47c.38-1.51.9-2.56,1.34-1.85,0,.34,0,.67-.08,1a44.78,44.78,0,0,0,.12-12.79c-.62-4.34-2-7.82-3.52-8.06a14.23,14.23,0,0,1,4.19.66,68,68,0,0,0-11.89-9.06c1.33.1,3.13-1.15,4.94-1.92s3.72-1,5.13,1.6a11.37,11.37,0,0,0-.41-2.89,12.61,12.61,0,0,0-1.87-3.88c.06,1.22-2.45,3.78-3.15,2.48a12.52,12.52,0,0,0,.63-4.07c0-.91-.16-1.86-.28-4.76.17.89-.85,1.32-2,1.28A3.58,3.58,0,0,1,365,35.48c.71.06,3.2-2.13,4-1.46-1.13-.67-2.25-1.3-3.37-1.88s-2.26-1.12-3.44-1.56c1.53.85,2.8-1.66,2.65-3.61,0,.26-.29.09-.66-.33s-.94-1.05-1.54-1.77A17.93,17.93,0,0,0,359,21.39a26.65,26.65,0,0,1,1.62,2.69,8.46,8.46,0,0,0-3.88-2.65,10.3,10.3,0,0,0-3.58-.27,28.2,28.2,0,0,1-3.47.17,9.35,9.35,0,0,1-1.88-.29,10,10,0,0,1-2.15-.76,4.47,4.47,0,0,0,1.94-2.18,2.43,2.43,0,0,0-1.42-3.31c-.59.3-1.54.81-2.69,1.51l-3.88,2.3c-2.81,1.64-5.79,3.34-8.65,3.73L330,21.09c-1.49.25-3,.54-4.48.85A41.41,41.41,0,0,1,333,16.76a33.41,33.41,0,0,1,9.62-3.65,6.18,6.18,0,0,1-1.7-1.46c-.32-.3-.85-.51-2.95-.91-1.3-1.33,2.62-1.11,3.94-.78a79.37,79.37,0,0,0-9.81-2.5c.08,1.17-1.84,1.49-3.67,1.86S324.84,10,325,11a96.06,96.06,0,0,1,10.43-1.24c0,1.16-1.75,2.5-4.19,3.5a18.31,18.31,0,0,1-8.72,1.3c-1.56-1,1.44-4,1.36-4.74-.91.71-6.1,1.17-6.64.59l2.72-1.09c-3.46-1-5.82,2.76-9.9.4-1.43-.21-4.16-3.12-4.47-1.78,2.22,2.7,2.31,10.75.65,12.63-.49-.2-7.44-2.82-9-4.18-2.28-2.14,3.79-4.69,1.85-6.53-.12.62-1.46,1.33-2,1.55-1.49-.6.71-1.9-2.59-1.76-.65,2.28-6.67-.49-1.64,1.88-3.25.52-3.4-.63-7.18-.69,1.14,1.54-3.62,4.92-6.87,5.43.22-.57-.47-1.37-.81-1.73-6.58-.5-10.07-1.71-16.21-2-.54-.58-3.48-1.39-2.17-2.33a7.16,7.16,0,0,1-3.65,1.09c-3.58-2.16,4.24-.13,1.55-2.65-.29,1.33-5,1.64-7.72,2.35.74,2.11,6.22.68,9,0-.11,2.86-5,5.64-11.44,6.67-5.14.49-2.13-1.94-3-1.57-9.57-.93-8.4,4.62-16.27,2.21-3.07-2,0-3.63-.62-5,4.19-.51,6.33,1.44,9.16,1.49l-3.43-1a9.46,9.46,0,0,1,5.63-.28c-2.57-1.76-16.18-1-23.52-2.87-1.34.55-3.63,1.08-2.59,1.86l2.35-.15c2.09,1.56-4.5,1.83-1.56,2.65-3.19.89-6.78,2.35-11.16,1.33l-.74-2.11c.06.61,2.83,1.36,4.1.78-1.88.84-6.65-3.11-8.79-.48l3,1.58c-3.19.9-7.19,2.93-11.08,2.1,1.7,2.13.92-.19,3.6,2.33-2.29-3.09,10,.57,6.27-2.74,2.74,2.91,4.89,1.4,8.52,3.94-.08-.69-1.26-1.37,2-.89a3.61,3.61,0,0,1,.75-.57l.22.06-.18-.08c.15-.1.16-.12-.07,0a3.77,3.77,0,0,1-1.63-1.11c1.71-1.5,6.93-1.22,8.74-1.95,1.93.41-.85.75.18,1.52l2.7-1.1c.19,1.54,5.07,2.76.43,3.45l4.13.25c2.4,1,5.74,1.45,7.83.9,1.94.41,5-1.47,3.25-.35l6.53-.65.05.38c6.39.47,13.29-1.93,20.48,1.13a24,24,0,0,1,8-.06l.64,1.34c2.79-.33,8.25,1.69,9.5.37,2.82,3.67,13.39,1.37,18.23,2.21l.26-1.71a54.39,54.39,0,0,0,10.77-.6l-.18-1.53c3.62-1.07,9.26,1.45,14.66,1.66-.4.55-1.77.31-2.74-.1,3.2,1.9,6.51,1.53,9.75,1.24S337.86,25,340,27a3.2,3.2,0,0,1,1.7.23,3.36,3.36,0,0,1,1.15.84.7.7,0,0,0-.31-.05,3.16,3.16,0,0,0,.45.22c.38.48.79.94,1.18,1.44a4.15,4.15,0,0,0-.93-1.33c.44.18,1,.35,1.62.58s1.31.4,2,.63c-.12.56-.24,1.13-.38,1.68l.29.12c.68,1.22,1.3,0,1.41-1.46a8.93,8.93,0,0,0,2.1.32,1.58,1.58,0,0,0,.19,1.49,6,6,0,0,0,1.11.84,3.33,3.33,0,0,1,1.12,1,2,2,0,0,1,.06,1.74,2.43,2.43,0,0,1,1.58.69c.31.24.65.49,1,.79l1,1c1.42,1.29,2.89,2.66,4.35,2.39-.3.22-.24.72-.67,0,.14.43.28.87.43,1.29a13.31,13.31,0,0,0,.46,1.25,6.35,6.35,0,0,0,1.48,2.12l-1.63,1.48A47.89,47.89,0,0,1,364.65,49a4.82,4.82,0,0,1-.95,2.71c-.46.39-1.09.18-2.19-.7a16.74,16.74,0,0,1,2.87,4.48c.23.49.42,1,.78,1.6s.87,1.41,1.64,2.58l-1.36-.05c.34,1.71,2.38,4.42,1.34,5.59-1.14,2.08-1,7-1.65,12.54a47.29,47.29,0,0,1-1.7,8.49,23.34,23.34,0,0,1-3.51,7.16c2.18-.07,1.34.8.26,1.82a8.24,8.24,0,0,0-1.47,1.5.93.93,0,0,0,.24,1.44c-1.06,0-2.16.71-2.1-.89-.71,2.09-2.23,3.18-3.25,4.26a8.18,8.18,0,0,0-1.5,1.62,5,5,0,0,0-.51,1.06,5.56,5.56,0,0,0-.18.65,6.49,6.49,0,0,0-.18.7c-1-.36-.15-1.65-.89-1.76-.14.37-.58,1.54-1.3,1.42s0-1,.27-1.78a6.55,6.55,0,0,0-1.7,2.19,4.2,4.2,0,0,0-.52,2,8.91,8.91,0,0,0,1.19,3.83,7.31,7.31,0,0,0-3.16,1,5.47,5.47,0,0,0-1.63,2.62c-1.28-.37-3-.5-.3-2.25-.39.22-1.29.51-2.34.93l-1.68.68-1.83.69c-2.38,1-4.61,2-4.35,3a2.28,2.28,0,0,0-1.58.29,5.57,5.57,0,0,0-1.37.77c-2.06.54-3.18.81-4.32,1s-2.23.55-4.27,1.09c.41,0,.82.08,1.22.1a2.49,2.49,0,0,1-2.48,1.87,19.47,19.47,0,0,0-4.17.38l.05-.28c-4-.22-4.85,0-5.65.39s-1.61.61-5.61,0l.61,1.56c-.15,1.79-2,1.49-4.26.93s-5.07-1.37-7.3-.5l1.73.78c-2.4,1.42-7.39-4.21-9.91-4.45-.57-.26.83-.55,1.57-.83-6.71-1.57-.69,2.19-5.56,3-1-1.08,1-3-2.35-3-1.69-.81-9.33,4.3-14,2.38,1.05.83,2.08,1.65-.16,2.45-3.49.52-9.63-2.88-12.65.06-.46-.22-.64-.44-.67-.66-2.64.87-8.65,1.54-10.21,3.11-1.34-2.76-5.47-1.92-9.3-1.06s-7.34,1.7-7.37-.89l-8.24.47.2-.53c-5.27-.27-7.11,1-8.95,2.26-1.23-.33-.34-.83-.25-1.1-7.71-.92-8.47-.75-14.93,1.87l-.67-1.68c-1.76,1-11.14-2.62-18.71-.7a1.3,1.3,0,0,1,.84-.75c-8.54,1.91-20.29-4.87-23.51,1.17l-5.65,1.41c7.27.6-1.13,2.63,1.85,3.7-2.88.31-7.37-2-3.85-2.23l.55.32c1.35-3.15-9-1.32-8.78-3.49-14.31-.16-28.2-2.37-41.6-2.94l1.46,2.53-4.67-.3c-1.21-.62-1.58-2,1.75-1.78-1.71-1.46-5.64,1-5.75,1.52-6.5-1.23,2.65-2.8.65-2.93l-2.73.09.61.31c-2.24.94-2.48,2-6.48,1.74-2.52-.59-1.25-1.58-2.25-1.71,0-.17-.32-.27-1.53-.13l-5.88-.42,2.28,2c-2.65.87-5.54-.3-2.9,2-1.93-1.78-7.42-2.29-12.72-2.5l-7.34-.21a11.48,11.48,0,0,1-4-.57,10.57,10.57,0,0,1-9.47-1.34,1.38,1.38,0,0,1-.12,1.56,1,1,0,0,1-.95.29,3.23,3.23,0,0,1-1.66-.88,2.09,2.09,0,0,0,1-2.08,6.44,6.44,0,0,0-1.06-2.09c-1-1.48-2.18-3.56-1.31-5.44-.39,1.47-1.64-.27-2.69-2.24s-2-3.9-2.87-1.49c-.59-2.94,1.53-.71,1.9-3.13-1.84-3.06-2.35-7.06-2.54-11.31s0-8.75-.55-13.24c-.6-.12-1.44,1.46-2.42-.46.9-1.66,1.88-3.29,2.83-4.89-.28-1.75-3.48-1.65-1.34-4.9-.51.44-1.29,1.13-1.44-.09.83-4.46,1.36-8.91,2-13.33a95,95,0,0,1,2.55-13,31.68,31.68,0,0,1,5.53-11.36,8.24,8.24,0,0,1,1-1.12l1.06-1A24.68,24.68,0,0,1,35.56,31a23.34,23.34,0,0,1,2.52-1.14l1.33-.31a5.12,5.12,0,0,1,1.31-.2,6.09,6.09,0,0,1-1.06-.21c-.19-.08-.23-.2-.17-.35.12-.33.73-.63,1.38-.94-1,.14-.6-1.34-1.11-2,.58,0,1.14-.13,1.7-.15l1.7.06a20,20,0,0,1,3.28.43,1.73,1.73,0,0,1,.52-.76,2.58,2.58,0,0,1,.92-.41,12.26,12.26,0,0,1,2.45-.3c1.76.11,3.43.08,3.94-.85a20.65,20.65,0,0,0-2.25.22c1.54-1.19.69-2.64-.78-4.21-.37-.39-.76-.8-1.16-1.2s-.78-.73-1.13-1.1a3.24,3.24,0,0,1-1.11-2.34,4,4,0,0,1-1.62.75,9.27,9.27,0,0,1-1.89.26,21.06,21.06,0,0,1-2.18-.1c-.76,0-1.57,0-2.41,0-.42,0-.86,0-1.29.06a5.67,5.67,0,0,0-1.3.19,15,15,0,0,0-2.56.83l-.62.29a5.72,5.72,0,0,0-.57.39,10,10,0,0,0-1.07.9,6.64,6.64,0,0,0-1.65,2.39c-1.65.47.45-1.68-.66-1.76a7.22,7.22,0,0,1-1.76,3.05A14.9,14.9,0,0,1,26.78,24c-.58.55-1.33,1.09-2.05,1.78l0-.57a82,82,0,0,0-7.6,11.34,62.12,62.12,0,0,0-5.69,13.06l1.76-.5a12.54,12.54,0,0,1-2,3.92c.94,1.64,1.27-.09,1.71-1.83s1-3.48,1.95-1.91c-1,.61-1.67,2-2.26,3.78A26.47,26.47,0,0,0,12,56c-.21,1-.38,2.07-.51,3.12-.63,4.2-1,8.23-2.87,9.26-.2,3.82,1.88-1,1.72,2.76l-1,1,1.27,1c-.25,2.46-1.48,3.72-2.34,3.82a11.87,11.87,0,0,0-.31-2.38c-1.25,3.27.57,9.16.27,10.27.15-1.23.27-2.46.45-3.68.65,5.16,1,10.87,1.86,16.56a66.74,66.74,0,0,0,1.76,8.43,34.34,34.34,0,0,0,3.2,7.75c.15-.34.29-.68.46-1A31.9,31.9,0,0,1,19,119.64a16.15,16.15,0,0,0,1.21,2.92,17.2,17.2,0,0,0,3.4,4.33l-.38-.14c1.91,1,4.09,2.43,6.37,3.9-1.3-.29-.55.71.24,1.66s1.6,1.81-.25,1.43A19.36,19.36,0,0,0,34.86,135a5.17,5.17,0,0,0,2-.14c.43-.13.76-.34,1.39-.61s1.53-.62,3-1.14c.38.47.76.93,1.16,1.39,2-1,2.21-1.54,6.26-1.7-3.35,1,2.5,2-1.27,3.29,8.31,3.07,12.55-2.3,16.26,1.86,4-3.33-7.18-2.2-5-2.87-1.76-1.2,3.27-2.47,5.89-2,2.67.18,4.38,4.61,11.12,4.79-.67,0-.72.22-1.39.18,2.49,1,5-1,8,.53,1.81-2,4,.26,4.61-2.4l-6.2.4c3.52-.58,6.92-3.6,12.63-1.88a10,10,0,0,1-3.4,1.53c1.66.85,3.27-.41,5,.46-.59,2.67-7.53.33-11.35,2.24,1.77,1.2,7.16-1.69,5.18,1.15,2.83-3.6,6.62.69,11.28-2l-.35,1.6a10.21,10.21,0,0,1,3.58-.86l-2.48,2c3.76-1.66,7.08,1.79,10.66.92-7.43-.17-1.61-2-4.71-3.25,9.22-1.87,5.14,4.35,15.43,3.88-1.4.18-5.19-1.12-3-1.8,1.94.39,4.51,1.08,5.68,1.95,6.82-.17-1-1.67,1.92-2.59,2.27,2,3.36-.72,6.35-1.28v1.64c7.72,1.22,2.13-3.35,9.07-1.94l-3,2.21,3.65-.52-.79,1.85c4-1.31,5.21-.93,9.08-.34-.88-1.17.56-3,4-2.95,2.32,1-1.34,1.55,3.53,1.37-1.11,1-2.34,2.28-4.43.74-.23.53-1.1,1-1.33,1.53,2.5,1.17,6.34.35,8.1.35a5.92,5.92,0,0,1-1.9-.4l7.09-2.19c1.1.63.22,1.11-.66,1.58,1.43-.16,2.43-.9,4.53-1-.56,1.32-.44,2.69-3.42,3.28l6.74-1.41c.45.58,3.45,1.6,2.57,2.09,3.74.78,9.17-2.52,14.13-1.52a3.4,3.4,0,0,1,1.82-.7c4.65.26,8.79,1.92,14.3,0l3.16,2.34c4.32-.6-4.28-2.94,2.9-3.94,5.08-.83,1.94,2,3.74,2.64,2.51-1.22,6.86-3.8,11.59-2C226.08,141.83,224.85,141.51,223.41,141.72Zm53.25-3.32c-1,.41-3,1.59-3.81.67C273.91,137.13,274.87,138,276.66,138.4Zm78.94-23.12c-.28,1-1.54,1.45-3,1.77A9.58,9.58,0,0,1,355.6,115.28Zm-128-94.86a.3.3,0,0,0,.11-.07C230,21.08,229.18,20.8,227.61,20.42Zm-4.72-.92c-.49.21-.47.44-.27.67.35-.4,1.41-.38,2.62-.21C224.93,19.52,224.32,19.2,222.89,19.5ZM75.35,124.64l.91.46C74.16,125.5,74.76,125.1,75.35,124.64Z"/><path class="cls-1" d="M348.54,122.56a1.46,1.46,0,0,1-.84-.54C347.44,122.44,347.59,122.77,348.54,122.56Z"/><path class="cls-1" d="M190.27,143l-.16,0a.77.77,0,0,0-.17.3Z"/><path class="cls-1" d="M297.16,8.93a4.45,4.45,0,0,1,1.85.92C299.08,9.46,298.65,9.1,297.16,8.93Z"/><path class="cls-1" d="M197.58,21.16l3.06-.29a5.56,5.56,0,0,1-2.72-.66C198,20.6,198.53,21.17,197.58,21.16Z"/><path class="cls-1" d="M171.6,9.79c-.46.18-.95,0-1.4.15l.08.76C172.18,10.76,173.54,10.22,171.6,9.79Z"/><path class="cls-1" d="M195,15.61c-.18-1.39-2.11-1-4.26-.85.13,0,.25,0,.38,0C190.41,16.68,192.71,16.14,195,15.61Z"/><path class="cls-1" d="M190.25,14.79a10.88,10.88,0,0,1-2,0C188,15.49,189.07,14.93,190.25,14.79Z"/><path class="cls-1" d="M216.82,20.14c-1-.39-.71,1.73-1.26,1.15C214.35,23,222.4,19.47,216.82,20.14Z"/><polygon class="cls-1" points="193.47 11.01 194.16 12.74 195.42 11.42 193.47 11.01"/><path class="cls-1" d="M210.26,13l-3.39-.62c0,.28-.4.43-.94.54C208,13.06,210.32,13.5,210.26,13Z"/><path class="cls-1" d="M205.93,12.92a6.89,6.89,0,0,0-2.75.15A16.34,16.34,0,0,0,205.93,12.92Z"/><polygon class="cls-1" points="198.15 10.7 199.15 11.1 201.55 11.33 198.15 10.7"/><path class="cls-1" d="M246.88,15l3.74-.32c.41-.56-.59-1-2-.79C247.73,14.2,246.34,14.36,246.88,15Z"/><path class="cls-1" d="M235.84,9.81c1,.4,1,.78,1.58,1.36l.21-2.1Z"/><path class="cls-1" d="M246.71,9.8c.4-.57,5.48-1.43.76-1.51C247.06,8.85,243.32,9.17,246.71,9.8Z"/><polygon class="cls-1" points="302.64 14.95 301.7 14.93 301.67 18.38 302.64 14.95"/><path class="cls-1" d="M355.72,16.06c-2.17-1.86-2.78-1.44-3.23-1.14a1,1,0,0,1-.84.26,6.24,6.24,0,0,1-2-1.1c-.74.12.08.71.87,1.29s1.55,1.23.83,1.25c1.61.32,2.69.92,3.38,1S355.77,17.42,355.72,16.06Z"/><path class="cls-1" d="M351.39,16.62a8.38,8.38,0,0,0-1.66-.25A8.71,8.71,0,0,0,351.39,16.62Z"/><polygon class="cls-1" points="50.63 27.66 52.8 28.5 51.44 27.27 50.63 27.66"/><path class="cls-1" d="M55.34,25.53c.08.76.16,1.51.22,2.26.57-.58,1.17-1.16,1.79-1.74C56.78,26.06,55.69,26.09,55.34,25.53Z"/><path class="cls-1" d="M284.9,142.27l.18-.54c-.49-.54-1.16-.53-2.5-.52Z"/><polygon class="cls-1" points="246.03 142.77 246.69 142.79 245.37 140.85 246.03 142.77"/><path class="cls-1" d="M213.55,146.18c1.33.06,2.88-.4,4.22-.34C214.88,146.24,213.15,143.7,213.55,146.18Z"/><path class="cls-2" d="M62.67,76.91c-.09-1.3-.13-3.07-.13-5.29s0-3.67.09-4.32a1,1,0,0,1,.84-.81,7.83,7.83,0,0,1,2-.2,5.48,5.48,0,0,1,3,.77,2.51,2.51,0,0,1,1.23,2.27,5.38,5.38,0,0,1-.34,2.06,2.83,2.83,0,0,1-.86,1.22,3.92,3.92,0,0,1-2.47.65,11.41,11.41,0,0,1-1.84-.19c.06,2.54.09,4.13.08,4.79s-.24,1-.67,1-.45,0-.53-.15-.13-.18-.15-.22a1,1,0,0,1-.08-.2c0-.09,0-.16,0-.22a.84.84,0,0,1,0-.26c0-.11,0-.2,0-.26S62.67,77.14,62.67,76.91Zm5.41-7.54a1.36,1.36,0,0,0-.83-1.21,3.74,3.74,0,0,0-1.79-.45,3.68,3.68,0,0,0-1.33.17c0,.75-.07,1.44-.07,2.07s0,1.19.07,1.7c.34,0,.58.07.71.09a7,7,0,0,0,.84.06h.48l.47-.06a1,1,0,0,0,.5-.16l.38-.3a1.14,1.14,0,0,0,.33-.44A4.38,4.38,0,0,0,68.08,69.37Z"/><path class="cls-2" d="M71.24,76.2l0-1.48.17-7.94a.4.4,0,0,1,.24-.36,1.34,1.34,0,0,1,.63-.13c.61,0,.91.21.91.64,0,.14-.07,1.21-.21,3.19s-.22,3.18-.22,3.58v2c0,1,.06,1.47.19,1.56a2.19,2.19,0,0,0,.66.09l2.74-.19c.59,0,.89.22.89.65a.79.79,0,0,1-.48.75,2.38,2.38,0,0,1-1,.26c-.32,0-.7,0-1.16,0a12.16,12.16,0,0,1-3.23-.19c-.09-.07-.14-.36-.15-.86s0-.85,0-1S71.24,76.37,71.24,76.2Z"/><path class="cls-2" d="M82.71,66.32a1,1,0,0,1,.8.42,7.84,7.84,0,0,1,.84,1.73,54.88,54.88,0,0,1,2.34,9.71,1.09,1.09,0,0,1,0,.22.47.47,0,0,1-.19.3.73.73,0,0,1-.51.16.93.93,0,0,1-.56-.16.82.82,0,0,1-.3-.53c-.05-.25-.15-.73-.29-1.45a10.37,10.37,0,0,0-.61-2.51,5.64,5.64,0,0,0-1.51-.29c-.85-.1-1.42-.15-1.7-.15a.87.87,0,0,0-.49.08c-.23.2-.54,1.74-.93,4.61-.05.24-.29.37-.72.37s-.65-.19-.65-.56a25.9,25.9,0,0,1,1-5.22,27.46,27.46,0,0,1,1.67-5.11C81.48,66.86,82.08,66.32,82.71,66.32Zm-.07,2.11q-.28,0-1,1.68a8.4,8.4,0,0,0-.7,2.08.18.18,0,0,0,0,.14,2.83,2.83,0,0,0,1.19.26c.7.08,1.16.12,1.39.12a.76.76,0,0,0,.38,0,.71.71,0,0,0,0-.3,15,15,0,0,0-.52-2.09C83.13,69,82.85,68.43,82.64,68.43Z"/><path class="cls-2" d="M87.9,66.51l7.7-.11c.36.11.55.29.55.55,0,.63-.26,1-.78,1-1,0-2,0-3,.07-.07,1.09-.1,1.91-.1,2.46v1.06l.08,6.67c0,.39-.1.62-.31.68a1.79,1.79,0,0,1-.56.08c-.37,0-.57-.21-.61-.63q-.12-1.46-.12-5.46c0-2.67,0-4.27.12-4.82-.27,0-.66,0-1.18,0s-1.17,0-1.94,0a.62.62,0,0,1-.48-.19.67.67,0,0,1-.17-.46.78.78,0,0,1,.24-.54A.9.9,0,0,1,87.9,66.51Z"/><path class="cls-2" d="M100.88,66.32a1,1,0,0,1,.79.42,7.6,7.6,0,0,1,.84,1.73,55,55,0,0,1,2.34,9.7,1.27,1.27,0,0,1,0,.22.44.44,0,0,1-.18.31.78.78,0,0,1-.51.16,1,1,0,0,1-.57-.16.84.84,0,0,1-.3-.54c0-.24-.15-.73-.28-1.45a11.17,11.17,0,0,0-.61-2.51,5.94,5.94,0,0,0-1.51-.28c-.86-.1-1.43-.15-1.7-.15a1,1,0,0,0-.5.07q-.34.31-.93,4.62-.07.36-.72.36c-.43,0-.65-.18-.65-.55a25.9,25.9,0,0,1,1-5.22,28.45,28.45,0,0,1,1.67-5.12C99.65,66.86,100.24,66.32,100.88,66.32Zm-.08,2.11q-.28,0-1,1.68a8.27,8.27,0,0,0-.7,2.08c0,.06,0,.11,0,.13a2.78,2.78,0,0,0,1.2.27c.69.08,1.15.11,1.38.11s.36,0,.38,0,0-.13,0-.3a16.18,16.18,0,0,0-.51-2.09Q101.13,68.43,100.8,68.43Z"/><path class="cls-2" d="M109.22,66.53l2.11,0c.93,0,1.4.25,1.4.74a.67.67,0,0,1-.07.37l-.12.16a.26.26,0,0,1-.15.1A1.84,1.84,0,0,1,112,68l-.21,0a6,6,0,0,1-.7.06l-1.44,0c-.62,0-1.39,0-2.3-.08v3.5h3.87a.52.52,0,0,1,.39.19.57.57,0,0,1,.18.41c0,.59-.24.88-.74.88h-3.7l.07,5c0,.64-.21,1-.65,1s-.7-.29-.77-.88c0-.19-.06-1.8-.07-4.83s0-4.78,0-5.24c-.47,0-.7-.21-.7-.8a.87.87,0,0,1,.19-.5c.13-.18.24-.28.33-.29a1.94,1.94,0,0,1,.36,0c.15,0,.51,0,1.08.07A20.56,20.56,0,0,0,109.22,66.53Z"/><path class="cls-2" d="M118.17,66.2a3.23,3.23,0,0,1,2.26.86c1.21,1.09,1.82,2.8,1.82,5.15a7.49,7.49,0,0,1-2,5.54,3.78,3.78,0,0,1-2.41,1.11A3.43,3.43,0,0,1,115,77.62a7.43,7.43,0,0,1-1.43-2.76,10.81,10.81,0,0,1-.43-3,6.63,6.63,0,0,1,1.16-4A4.45,4.45,0,0,1,118.17,66.2ZM118,67.78a3,3,0,0,0-3.17,2.41,5.87,5.87,0,0,0-.19,1.66,8.71,8.71,0,0,0,.38,2.33,4.49,4.49,0,0,0,1.52,2.51,2.31,2.31,0,0,0,1.43.46,2,2,0,0,0,1.5-.75,4.11,4.11,0,0,0,.91-1.91,11.63,11.63,0,0,0,.25-2.34,7.07,7.07,0,0,0-.6-3.23A2.11,2.11,0,0,0,118,67.78Z"/><path class="cls-2" d="M124.88,78.64a1,1,0,0,1-.66.27c-.23,0-.4-.15-.48-.45,0-1.68-.06-3.34-.06-5l-.06-4.79a2,2,0,0,1,1.27-2,5.73,5.73,0,0,1,2.43-.48,4,4,0,0,1,1.55.35,4.54,4.54,0,0,1,1.49,1,2.08,2.08,0,0,1,.65,1.46,2.79,2.79,0,0,1-.72,1.69,7.72,7.72,0,0,1-1.79,1.6,9.49,9.49,0,0,1-2.07,1A18.81,18.81,0,0,1,129.51,76a4,4,0,0,1,1.31,2.2.62.62,0,0,1-.24.46.87.87,0,0,1-.6.22.74.74,0,0,1-.6-.3,6.54,6.54,0,0,0-1.59-2.12,19,19,0,0,0-2.72-2.12l.11,3.65A.84.84,0,0,1,124.88,78.64ZM128,71.25c1.06-.67,1.59-1.27,1.59-1.81a1.36,1.36,0,0,0-.8-1.24,3.77,3.77,0,0,0-1.89-.44,4.6,4.6,0,0,0-1.74.27c0,.64,0,2.07,0,4.29A6,6,0,0,0,128,71.25Z"/><path class="cls-2" d="M141.29,66.18c.3,0,.5.22.59.66q.09,3.1.1,6.76c0,2.44,0,3.85,0,4.23a1.31,1.31,0,0,1-.25.79,1,1,0,0,1-.76.23c-.33,0-.49-.2-.49-.61V74c0-.7,0-1.41,0-2.15s0-1.19,0-1.38a5.48,5.48,0,0,1-1.71,1.81,4.21,4.21,0,0,1-2.38.71,2.76,2.76,0,0,1-2.2-1.08c0,.77,0,1.69,0,2.75s0,2.17,0,3.33a.76.76,0,0,1-.31.69,1.19,1.19,0,0,1-.71.22c-.35,0-.52-.21-.52-.62,0-1.14,0-3,0-5.42v-5.4a1,1,0,0,1,.22-.62.65.65,0,0,1,.51-.31.94.94,0,0,1,.54.17.55.55,0,0,1,.27.48,6.82,6.82,0,0,0,.68,3.13,1.73,1.73,0,0,0,1.45,1,3.29,3.29,0,0,0,1.43-.28,3.66,3.66,0,0,0,1-.63,3.86,3.86,0,0,0,.75-1,15.83,15.83,0,0,0,1-2.34C140.55,66.46,140.86,66.18,141.29,66.18Z"/><path class="cls-2" d="M147.77,66.31a1,1,0,0,1,.8.42,8.18,8.18,0,0,1,.83,1.73,54.88,54.88,0,0,1,2.34,9.71,1.06,1.06,0,0,1,0,.21.44.44,0,0,1-.18.31.73.73,0,0,1-.51.16.93.93,0,0,1-.56-.16.85.85,0,0,1-.31-.53c0-.25-.14-.74-.28-1.46a10.78,10.78,0,0,0-.61-2.5,5.75,5.75,0,0,0-1.51-.29c-.86-.1-1.42-.15-1.7-.15a1,1,0,0,0-.5.07q-.33.32-.93,4.62-.07.36-.72.36c-.43,0-.64-.18-.64-.55a25.64,25.64,0,0,1,1-5.22A28.26,28.26,0,0,1,146,67.93C146.54,66.85,147.14,66.31,147.77,66.31Zm-.08,2.11c-.19,0-.52.56-1,1.68a8.63,8.63,0,0,0-.71,2.08.26.26,0,0,0,0,.14,3,3,0,0,0,1.2.26c.69.08,1.16.11,1.39.11s.35,0,.37,0a.65.65,0,0,0,0-.31,16.18,16.18,0,0,0-.51-2.09Q148,68.42,147.69,68.42Z"/><path class="cls-2" d="M158.38,66.74a1.28,1.28,0,0,1,.67-.19.47.47,0,0,1,.48.44q0,2.2.08,6.59c0,1.79-.05,3.3-.15,4.55a.77.77,0,0,1-.36.5,1,1,0,0,1-.63.22c-.36,0-.53-.19-.53-.55.12-1.27.19-2.84.19-4.72L158,67.2A.81.81,0,0,1,158.38,66.74Z"/><path class="cls-2" d="M169.49,66.25a.73.73,0,0,1,.55.26.84.84,0,0,1,.24.59c0,5,0,8,.07,9s.07,1.56.07,1.59a1.51,1.51,0,0,1-.23.79c-.15.24-.32.37-.5.37a2.12,2.12,0,0,1-.42,0l-.26-.07a.56.56,0,0,1-.23-.15l-.19-.19a1.59,1.59,0,0,1-.19-.29c-.09-.15-.15-.27-.2-.36s-.13-.24-.24-.46-.34-.67-.71-1.36-.68-1.3-1-1.84a29.85,29.85,0,0,0-2.8-4.35,71,71,0,0,1-.34,8.57c0,.3-.27.45-.7.45a.8.8,0,0,1-.5-.15.56.56,0,0,1-.2-.49c0-.23,0-1.49.14-3.77s.14-3.7.14-4.26V69c0-.92.07-1.43.21-1.54a.64.64,0,0,1,.43-.17c.7,0,1.77,1.14,3.2,3.41q.42.67,1.59,2.79t1.41,2.61l-.23-7.88c0-1.09.12-1.71.36-1.87A1,1,0,0,1,169.49,66.25Z"/><path class="cls-2" d="M171.9,66.5l7.69-.12c.37.11.55.3.55.55,0,.63-.25.95-.77.95-1,0-2,0-3,.08-.07,1.09-.1,1.91-.1,2.46v1l.08,6.67c0,.39-.1.62-.31.69a1.85,1.85,0,0,1-.57.07c-.36,0-.57-.21-.6-.62-.08-1-.12-2.8-.12-5.47s0-4.27.11-4.81l-1.17,0-1.94,0a.66.66,0,0,1-.48-.19.7.7,0,0,1-.17-.47.82.82,0,0,1,.24-.54A.85.85,0,0,1,171.9,66.5Z"/><path class="cls-2" d="M181,72.29a.56.56,0,0,1-.27-.5.9.9,0,0,1,.21-.58c-.05-1.27-.07-2.61-.07-4a1,1,0,0,1,1-.93c1.67.07,3.48.11,5.44.11q.72.15.72.63,0,.8-1.56.93l-.91,0h-1.24c-.24,0-.9-.06-2-.15,0,1.58,0,2.67.07,3.26.68,0,2,0,3.88,0,.46.09.68.3.68.62a.82.82,0,0,1-.55.75.61.61,0,0,1-.21.07l-3.28,0a2.29,2.29,0,0,0-.5,0l.08,3.26a14.21,14.21,0,0,1-.06,1.58l4.41-.06c.41.07.61.24.61.52a.87.87,0,0,1-.26.57,1.11,1.11,0,0,1-.6.36l-4.86.07a.89.89,0,0,1-.61-.16.71.71,0,0,1-.17-.54,13.36,13.36,0,0,0,.08-1.71V75.08Z"/><path class="cls-2" d="M190.31,78.62a.93.93,0,0,1-.65.28c-.24,0-.4-.15-.49-.46,0-1.67-.06-3.33-.06-5l-.05-4.79a2,2,0,0,1,1.27-2,5.82,5.82,0,0,1,2.43-.47,3.88,3.88,0,0,1,1.55.35,4.47,4.47,0,0,1,1.48,1,2.07,2.07,0,0,1,.66,1.47,2.79,2.79,0,0,1-.72,1.69,7.66,7.66,0,0,1-1.79,1.59,9.12,9.12,0,0,1-2.07,1A19.24,19.24,0,0,1,195,76a4,4,0,0,1,1.31,2.19.62.62,0,0,1-.25.47.89.89,0,0,1-.6.22.75.75,0,0,1-.6-.31,6.33,6.33,0,0,0-1.58-2.11,18.56,18.56,0,0,0-2.73-2.12l.12,3.65A.83.83,0,0,1,190.31,78.62Zm3.09-7.38c1-.67,1.58-1.28,1.58-1.81a1.36,1.36,0,0,0-.79-1.25,4,4,0,0,0-1.9-.43,4.6,4.6,0,0,0-1.73.26c0,.65,0,2.08,0,4.3A6.05,6.05,0,0,0,193.4,71.24Z"/><path class="cls-2" d="M201.9,66.3a1,1,0,0,1,.8.42,8.18,8.18,0,0,1,.83,1.73,55,55,0,0,1,2.34,9.7,1.27,1.27,0,0,1,0,.22.44.44,0,0,1-.18.31.78.78,0,0,1-.51.16,1,1,0,0,1-.56-.16.85.85,0,0,1-.31-.53c-.05-.25-.14-.74-.28-1.46a10.78,10.78,0,0,0-.61-2.5,5.75,5.75,0,0,0-1.51-.29c-.86-.1-1.42-.15-1.7-.15a1,1,0,0,0-.5.07q-.33.32-.93,4.62-.08.36-.72.36c-.43,0-.64-.18-.64-.55a25.64,25.64,0,0,1,1-5.22,28.45,28.45,0,0,1,1.67-5.12C200.67,66.84,201.27,66.3,201.9,66.3Zm-.08,2.11c-.19,0-.52.56-1,1.68a8.49,8.49,0,0,0-.71,2.08.2.2,0,0,0,0,.13,2.78,2.78,0,0,0,1.2.27c.69.08,1.16.11,1.39.11a.86.86,0,0,0,.38,0,.87.87,0,0,0,0-.31,16.18,16.18,0,0,0-.51-2.09Q202.15,68.41,201.82,68.41Z"/><path class="cls-2" d="M212.63,66.39a9.34,9.34,0,0,1,2.82.5.75.75,0,0,1,.34.58.72.72,0,0,1-.31.55,1.15,1.15,0,0,1-.72.23,8,8,0,0,0-1.92-.26,3.92,3.92,0,0,0-3.11,1.21,5.38,5.38,0,0,0-1.07,3.62,5.27,5.27,0,0,0,1.26,3.74,2,2,0,0,0,1.54.7,7.62,7.62,0,0,0,2.85-1,2.67,2.67,0,0,1,.91-.32c.33,0,.49.17.49.51a1,1,0,0,1-.47.86,18.2,18.2,0,0,1-2.55,1.15,5.37,5.37,0,0,1-1.57.29,3.13,3.13,0,0,1-2.34-1,7.18,7.18,0,0,1-1.73-5.08,6.3,6.3,0,0,1,1.64-4.77A5.56,5.56,0,0,1,212.63,66.39Z"/><path class="cls-2" d="M217.5,66.49l7.69-.12c.37.12.55.3.55.55,0,.64-.26,1-.77,1-.95,0-2,0-3,.08q-.09,1.64-.09,2.46v1l.08,6.67c0,.4-.1.62-.31.69a1.85,1.85,0,0,1-.57.07c-.36,0-.57-.21-.6-.62-.08-1-.12-2.8-.12-5.47s0-4.27.11-4.81l-1.17,0-1.94,0a.64.64,0,0,1-.48-.19.7.7,0,0,1-.17-.47.82.82,0,0,1,.24-.54A.85.85,0,0,1,217.5,66.49Z"/><path class="cls-2" d="M227.44,66.73a1.31,1.31,0,0,1,.68-.19c.25,0,.41.15.47.44,0,1.47,0,3.67.08,6.59,0,1.79,0,3.3-.15,4.54a.77.77,0,0,1-.35.51,1.13,1.13,0,0,1-.64.21c-.35,0-.53-.18-.53-.55.13-1.26.19-2.83.19-4.71l-.12-6.38A.85.85,0,0,1,227.44,66.73Z"/><path class="cls-2" d="M235.63,78.45q-.78-2.3-1.62-4.2c-.56-1.28-1.27-2.88-2.15-4.8-.3-.67-.49-1.09-.57-1.25a1.25,1.25,0,0,1-.11-.53.85.85,0,0,1,.29-.58.93.93,0,0,1,.66-.28.73.73,0,0,1,.61.36l.91,2.09q1.92,4.42,2.74,6.44l.34-1.33c.28-1.17.57-2.32.87-3.46.86-3.12,1.71-4.67,2.55-4.67a.59.59,0,0,1,.39.13.47.47,0,0,1,.16.36,1.56,1.56,0,0,1-.24.66,10.33,10.33,0,0,0-.6,1.58c-.24.76-.39,1.21-.45,1.34s-.36,1.2-.91,3.2-1,3.58-1.41,4.72a.94.94,0,0,1-.36.5,1,1,0,0,1-.6.2C235.91,78.93,235.74,78.77,235.63,78.45Z"/><path class="cls-2" d="M245.62,66.29a1,1,0,0,1,.8.42,8.18,8.18,0,0,1,.83,1.73,54.88,54.88,0,0,1,2.34,9.71,1.09,1.09,0,0,1,0,.22.45.45,0,0,1-.18.3.73.73,0,0,1-.51.16.91.91,0,0,1-.56-.16.81.81,0,0,1-.31-.53c-.05-.25-.14-.73-.28-1.46a11,11,0,0,0-.61-2.5,5.75,5.75,0,0,0-1.51-.29c-.86-.1-1.42-.15-1.7-.15a.91.91,0,0,0-.5.08c-.22.2-.54,1.74-.93,4.61q-.08.36-.72.36c-.43,0-.65-.18-.65-.55a25.9,25.9,0,0,1,1-5.22,28.26,28.26,0,0,1,1.67-5.11C244.39,66.83,245,66.29,245.62,66.29Zm-.08,2.11q-.28,0-1,1.68a8.9,8.9,0,0,0-.7,2.08.18.18,0,0,0,0,.14,2.85,2.85,0,0,0,1.2.26c.69.08,1.16.12,1.38.12s.36,0,.38-.05a.62.62,0,0,0,0-.31,16.62,16.62,0,0,0-.51-2.09Q245.87,68.4,245.54,68.4Z"/><path class="cls-2" d="M257.23,75.07l-1.58,0a.64.64,0,0,1-.45-.19.87.87,0,0,1,.05-1.12.85.85,0,0,1,.65-.23h4.73a.64.64,0,0,1,.7.72.79.79,0,0,1-.85.8Z"/><path class="cls-2" d="M272,78.45c-.52-1.54-1.06-2.94-1.61-4.21s-1.28-2.87-2.15-4.8l-.57-1.24a1.19,1.19,0,0,1-.12-.54.81.81,0,0,1,.3-.57.91.91,0,0,1,.65-.29.72.72,0,0,1,.61.36l.91,2.09c1.28,3,2.2,5.1,2.74,6.44l.34-1.33c.28-1.16.57-2.32.88-3.46q1.29-4.66,2.54-4.67a.59.59,0,0,1,.39.13.44.44,0,0,1,.16.36,1.69,1.69,0,0,1-.23.67,9.7,9.7,0,0,0-.6,1.57c-.24.76-.39,1.21-.45,1.34s-.36,1.21-.91,3.21-1,3.57-1.42,4.71a.94.94,0,0,1-.36.5.9.9,0,0,1-.59.2C272.27,78.92,272.11,78.76,272,78.45Z"/><path class="cls-2" d="M279,66.72a1.29,1.29,0,0,1,.68-.19c.25,0,.41.15.47.44,0,1.47,0,3.67.08,6.59,0,1.79-.05,3.3-.15,4.54a.77.77,0,0,1-.35.51,1.13,1.13,0,0,1-.64.21c-.35,0-.53-.18-.53-.55.12-1.26.19-2.83.19-4.71l-.12-6.38A.85.85,0,0,1,279,66.72Z"/><path class="cls-2" d="M283.49,78.61a1,1,0,0,1-.66.27c-.23,0-.4-.15-.48-.45,0-1.68-.06-3.34-.06-5l-.06-4.79a2,2,0,0,1,1.27-2,5.9,5.9,0,0,1,2.44-.47,4,4,0,0,1,1.54.35,4.54,4.54,0,0,1,1.49,1,2.08,2.08,0,0,1,.65,1.46,2.79,2.79,0,0,1-.72,1.69,7.72,7.72,0,0,1-1.79,1.6,9.49,9.49,0,0,1-2.07,1A18.81,18.81,0,0,1,288.12,76a4,4,0,0,1,1.31,2.2.62.62,0,0,1-.24.46.87.87,0,0,1-.6.22.74.74,0,0,1-.6-.3,6.44,6.44,0,0,0-1.59-2.12,19,19,0,0,0-2.72-2.12l.11,3.65A.84.84,0,0,1,283.49,78.61Zm3.08-7.39c1.06-.67,1.59-1.27,1.59-1.81a1.38,1.38,0,0,0-.8-1.25,3.88,3.88,0,0,0-1.89-.43,4.83,4.83,0,0,0-1.74.26c0,.65,0,2.08,0,4.3A6,6,0,0,0,286.57,71.22Z"/><path class="cls-2" d="M291,66.47l7.69-.11c.37.11.56.29.56.55,0,.63-.26,1-.78,1-.95,0-2,0-3,.08-.07,1.09-.1,1.9-.1,2.46v1l.08,6.67c0,.39-.1.62-.31.68a1.82,1.82,0,0,1-.57.08c-.36,0-.57-.21-.6-.63q-.12-1.45-.12-5.46c0-2.67,0-4.27.11-4.82-.26,0-.65,0-1.17,0s-1.17,0-1.94,0a.62.62,0,0,1-.48-.19.67.67,0,0,1-.17-.46.8.8,0,0,1,.24-.54A.9.9,0,0,1,291,66.47Z"/><path class="cls-2" d="M307.27,66.45a.79.79,0,0,1,.59-.3.64.64,0,0,1,.55.32,19,19,0,0,1,.33,3.7v1.45a16.2,16.2,0,0,1-.06,1.93c0,.19-.08.41-.11.65s-.08.43-.11.55-.08.3-.14.52a4.5,4.5,0,0,1-.59,1.25,4.42,4.42,0,0,1-1.5,1.67,3.39,3.39,0,0,1-1.89.61,3.19,3.19,0,0,1-2-.83,6.6,6.6,0,0,1-1.66-2.09,9.71,9.71,0,0,1-1-4.47c0-.59.09-2,.27-4.24a1.46,1.46,0,0,1,.4-.54.87.87,0,0,1,.57-.23q.41,0,.51.57c-.18,2.19-.27,3.57-.27,4.16a8.16,8.16,0,0,0,.82,3.7,6.06,6.06,0,0,0,1.26,1.78,2.22,2.22,0,0,0,1.48.71c.79,0,1.48-.62,2.05-1.86a4.78,4.78,0,0,0,.4-2.07,2.24,2.24,0,0,1,0-.54l0-2.5a18.51,18.51,0,0,0-.26-3.2A1,1,0,0,1,307.27,66.45Z"/><path class="cls-2" d="M314.42,66.28a1,1,0,0,1,.79.42,7.6,7.6,0,0,1,.84,1.73,55,55,0,0,1,2.34,9.7,1.18,1.18,0,0,1,0,.22.44.44,0,0,1-.18.31.79.79,0,0,1-.52.16,1,1,0,0,1-.56-.16.84.84,0,0,1-.3-.54c-.05-.24-.15-.73-.28-1.45a11.17,11.17,0,0,0-.61-2.51,6.06,6.06,0,0,0-1.51-.28c-.86-.1-1.43-.15-1.7-.15a1,1,0,0,0-.5.07q-.35.32-.93,4.62-.07.36-.72.36c-.43,0-.65-.18-.65-.55A25.9,25.9,0,0,1,311,73a28.45,28.45,0,0,1,1.67-5.12C313.19,66.82,313.78,66.28,314.42,66.28Zm-.08,2.11q-.29,0-1,1.68a8.27,8.27,0,0,0-.7,2.08c0,.06,0,.11,0,.13a3,3,0,0,0,1.2.27c.69.07,1.15.11,1.38.11s.36,0,.38,0,0-.13,0-.3a16.18,16.18,0,0,0-.51-2.09C314.83,69,314.56,68.39,314.34,68.39Z"/><path class="cls-2" d="M319.28,76.16l0-1.48.17-8a.4.4,0,0,1,.25-.36,1.27,1.27,0,0,1,.62-.13c.61,0,.92.21.92.65,0,.14-.08,1.2-.22,3.19s-.22,3.18-.22,3.57v2c0,1,.06,1.47.19,1.56a2.2,2.2,0,0,0,.67.1l2.73-.19c.6,0,.89.21.89.64a.77.77,0,0,1-.48.75,2.48,2.48,0,0,1-1,.27c-.32,0-.7,0-1.16,0a12.75,12.75,0,0,1-3.23-.19q-.14-.12-.15-.87t0-1.05C319.28,76.51,319.28,76.32,319.28,76.16Z"/><path class="cls-2" d="M168.54,51.35c1.46.19,1.19,1.81,2.78,2,2.57.36,3.16-1.16,3.51-2.94.7-3.73-1.48-6.53-3.87-9.62a5.25,5.25,0,0,1-1.35-4.55c.54-2.61,2-4.4,5.33-4.4.27,0,.55,0,.87,0,1.07.1,1.82.29,1.62,1.22-.35,1.61-4.55-1.12-5.45,3.5-.43,2.12.6,3,2,4.88,2.1,3,3.93,5.74,3.23,9.3-.55,2.7-1.89,4.29-5.1,4.3-.31,0-.63,0-.95,0-1.38-.2-3.8-1.32-3.8-2.67,0-.06,0-.16,0-.23C167.39,51.75,168,51.35,168.54,51.35Z"/><path class="cls-2" d="M187.09,30.3c8.78,0,10,23.43,1.33,24.08l-.48,0c-3.32,0-5.15-1.64-6.11-4.67C181.31,47.76,177.15,30.32,187.09,30.3Zm-3.36,17.92c.32,1.08,1.63,4.22,3.61,4.38a2.53,2.53,0,0,0,.48,0c2.65-.21,3.51-4.07,3.86-5.62.63-2.64,1.11-14.88-4.51-14.87h-.32C180.88,32.59,183,45.81,183.73,48.22Z"/><path class="cls-2" d="M199.58,41.39c-.71-1.19-4.09-6.82-4.73-8-1-1.87,1.18-2.14,1.58-1.22L201,40.07l2.62-8.75c.16-.92,2.53-.86,2.54.23v.13l-3.89,10,1.42,13.39c0,.52-.51.72-1.07.72s-1.07-.16-1.19-.62C200.84,51.05,200.74,45.05,199.58,41.39Z"/><g class="cls-3"><path class="cls-4" d="M185.71,120.68a179.26,179.26,0,0,0,38.07-2.34,20.23,20.23,0,0,0,9.48-3.87A11.24,11.24,0,0,0,237.33,104a9.45,9.45,0,0,0-7.05-7.09c-10-2.47-20.18-2.34-30.32-2.05-16.36.47-33.38-2.16-49.54,2.05-2.91.76-5.89,1.8-8.1,4.2s-3.4,6.52-2,9.72c1.16,2.69,3.7,4,6.08,5a75.05,75.05,0,0,0,39.35,4.92"/><path class="cls-4" d="M185.15,118.52c.31,0,.15-.37.18-.44C184.83,118.23,185.17,118.62,185.15,118.52Z"/><polygon class="cls-4" points="180.06 119.93 180.14 119.77 179.39 120.19 180.06 119.93"/><path class="cls-4" d="M175.16,120.09c.47.67,1.78-.13,2.66.08l.14.14.38-.53A12.16,12.16,0,0,1,175.16,120.09Z"/><path class="cls-4" d="M172.6,118.65c.15.25-.56.19.59.1l-.1-.07Z"/><path class="cls-4" d="M173.09,118.68c.5,0-.33-.22,0,0Z"/><path class="cls-4" d="M170.74,118.72c.23,0,.46-.12.68-.19-.13-.15-.72-.21-.49-.31C170.24,118.29,170.37,118.45,170.74,118.72Z"/><path class="cls-4" d="M170.08,119.15l.35-.07C170.37,119,170.28,119,170.08,119.15Z"/><path class="cls-4" d="M171.18,118.92c-.25.07-.5.11-.75.16.09.11.09.32.34,0C170.7,119.22,170.86,119.05,171.18,118.92Z"/><path class="cls-4" d="M171.59,119c.37.16.86.27.17.46C173.05,119.47,172.87,119,171.59,119Z"/><path class="cls-4" d="M174.91,120.76l.52.2.44-.22C175.65,120.85,174.88,120.56,174.91,120.76Z"/><path class="cls-4" d="M166.64,118c-.06.13.18.39.21.57l.5-.11C167.11,118.36,166.64,118.22,166.64,118Z"/><path class="cls-4" d="M166.85,118.59l-.77.15C166.74,118.84,166.87,118.74,166.85,118.59Z"/><path class="cls-4" d="M169.91,119.86c.42-.14.84-.26,1.25-.42-.49.15-1,.27-1.49.41Z"/><polygon class="cls-4" points="163.86 117.62 164.32 117.36 163.51 117.73 163.86 117.62"/><path class="cls-4" d="M162,117.35c.35-.2-.33-.51,0-.61a3.87,3.87,0,0,0-1.39.21A2.36,2.36,0,0,1,162,117.35Z"/><path class="cls-4" d="M159.94,117.11a4.31,4.31,0,0,0,.7-.16A2,2,0,0,0,159.94,117.11Z"/><path class="cls-4" d="M164.84,118.5a.85.85,0,0,0-.52-.48l.23.43Z"/><path class="cls-4" d="M164.56,118.46h0l-.62-.11Z"/><path class="cls-4" d="M164.91,118.51h-.07S164.87,118.55,164.91,118.51Z"/><path class="cls-4" d="M168,119.35c-.46.17-1.4.3-.55.72C167.78,119.84,167.29,119.6,168,119.35Z"/><path class="cls-4" d="M165.2,119l.78.2c0-.1-.13-.27.1-.35Z"/><polygon class="cls-4" points="164.8 119.11 165.2 119.04 164.91 118.97 164.8 119.11"/><path class="cls-4" d="M161.18,117.74a2.81,2.81,0,0,1-1.15,0,7.23,7.23,0,0,0,1.31.39C161.43,118,161.66,117.82,161.18,117.74Z"/><path class="cls-4" d="M162.81,118.14h-.08S162.81,118.21,162.81,118.14Z"/><polygon class="cls-4" points="156 116.74 156.04 116.83 156.07 116.77 156 116.74"/><path class="cls-4" d="M161.4,118.19a.92.92,0,0,0,.75,0,6.15,6.15,0,0,1-.81-.08C161.3,118.15,161.29,118.19,161.4,118.19Z"/><path class="cls-4" d="M158.77,117a5.37,5.37,0,0,0,.53.34C159.16,117.22,158.86,117,158.77,117Z"/><path class="cls-4" d="M162.64,118h.05C162.6,117.91,162.6,118,162.64,118Z"/><path class="cls-4" d="M162.64,118a2.56,2.56,0,0,0-.49.16,3.51,3.51,0,0,0,.58,0A.43.43,0,0,1,162.64,118Z"/><path class="cls-4" d="M154.09,118.8c.16-.33,1.13-.41,1.8.18.82-.08.61-1.33.15-2.15-.06.14-.1.28-.91.27.21.27,1.56.92.84,1.06-1.07-.11-.8-.36-1.24-.68.3.55-1.47.27-1.44,1l1,0C154.24,118.57,153.87,118.64,154.09,118.8Z"/><path class="cls-4" d="M157.47,117.23l.33,0a3.18,3.18,0,0,1-1-.74c-.56,0-.7.13-.77.24.5.16,1,.29,1.52.44Z"/><path class="cls-4" d="M159.2,117.6c-.33.34-1.12.31-.76.83.94.19.73-.17,1.32-.22-1.52-.22.48-.12-.56-.57a6.61,6.61,0,0,1,.83.07,7,7,0,0,1-.73-.33l0,0h0c.06.06.07.1,0,0s0,0,0,0a.41.41,0,0,1-.1.13c-.41-.17,0-.12.1-.13s0,0,0-.06h0c-.52,0-1-.1-1.53-.14A6.38,6.38,0,0,0,159.2,117.6Z"/><path class="cls-4" d="M166.52,120.82a.1.1,0,0,1,0-.1C166.37,120.76,166.33,120.79,166.52,120.82Z"/><path class="cls-4" d="M165.9,120.52a.71.71,0,0,1,.6-.11c.3.15,0,.18,0,.31.23-.07.8-.19.13-.45l-.11,0c-.61-.19-1.34-.81-1.22-.84A2.6,2.6,0,0,0,165.9,120.52Z"/><path class="cls-4" d="M162.44,119.22l-1.3,0,.58.45v-.21C162.43,119.63,162.32,119.36,162.44,119.22Z"/><polygon class="cls-4" points="155.91 116.51 156.18 116.16 155.32 116.53 155.91 116.51"/><polygon class="cls-4" points="154.31 116.12 154.47 115.79 153.99 115.87 154.31 116.12"/><path class="cls-4" d="M210.5,92.52l.39-.1A2.36,2.36,0,0,0,210.5,92.52Z"/><path class="cls-4" d="M207.69,92.49l-.07.17C207.75,92.57,207.8,92.5,207.69,92.49Z"/><path class="cls-4" d="M156.83,97.84c.59.25,1.26.68,1.14.29l-.23-.37A1.75,1.75,0,0,1,156.83,97.84Z"/><path class="cls-4" d="M184.94,94.58l-.15-.13-.39.37Z"/><path class="cls-4" d="M185.39,93l.73.27A3.57,3.57,0,0,0,185.39,93Z"/><path class="cls-4" d="M226,93.36l.52-.31C225.82,92.93,226.11,93.18,226,93.36Z"/><path class="cls-4" d="M142,108.89a4.6,4.6,0,0,0,.15-.88C141.89,108.42,141.62,108.84,142,108.89Z"/><path class="cls-4" d="M209.38,96.69c.23-.07.33-.14.32-.23C209.46,96.52,209.33,96.6,209.38,96.69Z"/><path class="cls-4" d="M142.16,107a1.22,1.22,0,0,0-.12.19,3.76,3.76,0,0,1,.07.84A1,1,0,0,0,142.16,107Z"/><path class="cls-4" d="M206.54,122.67l-.13,0C206.4,122.68,206.46,122.68,206.54,122.67Z"/><path class="cls-4" d="M190.4,119.08a6.23,6.23,0,0,1,.65,0A1.81,1.81,0,0,0,190.4,119.08Z"/><path class="cls-4" d="M148.12,113.79c.33.1.07,0,0,0Z"/><path class="cls-4" d="M149.16,115.86a.26.26,0,0,0-.2.13A.32.32,0,0,1,149.16,115.86Z"/><path class="cls-4" d="M140.77,103.26v0C140.67,103.29,140.69,103.28,140.77,103.26Z"/><path class="cls-4" d="M148.54,114.14a3,3,0,0,0-.37-.27A2,2,0,0,0,148.54,114.14Z"/><path class="cls-4" d="M148.54,113.94l.27.15C148.88,114.05,148.86,114,148.54,113.94Z"/><path class="cls-4" d="M147.66,113.63a3.43,3.43,0,0,1,.51.24c-.06-.05-.07-.08,0-.08Z"/><path class="cls-4" d="M235.31,114.18l-.09,0C235.06,114.62,235.17,114.48,235.31,114.18Z"/><path class="cls-4" d="M165.67,92.8l0,0h.06Z"/><path class="cls-4" d="M167,92.45a1.19,1.19,0,0,1-1.28.38l.49,1.12Z"/><path class="cls-4" d="M217.27,92.66l-.9-.41c1.15-.53,2-.25,1.12-.82-.22,1.21-3.64-.07-3.82,1.17l-.6-.28c.18,0,.21,0,.38,0-1.17-.62-.9.86-2.42.66-.52-.1-.89-.29-.53-.43l-1.18.3c-.34,0-.26-.24.08-.22l-1.79.1v0a7.25,7.25,0,0,1-1.11.64c-.46-.18.23-.14.11-.29l-1,.31c-.41-.32.41-.64,1.1-.6-.95-1.22-.82.32-2.83-.36l.93-.18c-.61-.69-1.34-.42-2.41-.83.26.22,2.14,1.05,1.07,1.38a1.77,1.77,0,0,0-1.27.14c0-.44-.58-.31-1.29-.27l0-.58c-.76.19-.69.48-1.13.75a1.28,1.28,0,0,1-1.23-.86c-1.33-.07.94.7-.64.84a7,7,0,0,0-3.23.38c-.78-.2.14-.35-.14-.52l-.7.46c-.17,0-.11-.15-.08-.22-.59.17-.06.58-1,.72-.26.63-1.88-1-3-.26-.28-.18.15-.36.06-.58a10.37,10.37,0,0,0-2.66.92l-1.08-.42c.79.46-.26,1-1.18,1.35a8.14,8.14,0,0,0,.69.5l-1.46.27c-.17-.1,0-.29.23-.53l-.27.13c-.51-.23-.23-.56.14-.87l.52.37c.36-.34.71-.72.64-1.06a1.32,1.32,0,0,1-.47.14c.09-.09.15-.18.11-.24s-.2.07-.44.21l-.31-.66-.09.26-1.88-.46c-1.37.61-2.58,1.54-4.73,1.76.54-.47.13-.77.17-1.33.57.6,1.67-.22,2.79-.07-.58-.08-.45-.35-.3-.44l-2,.5c.05-.46-.42-.35-.94-.55.38.91-1.5.58-2.31.85-.05-.31.15-.62,1.14-.53-1.09-.7-1.43,1.06-2.49.47.24,0,.37,0,.46-.11-.56.27-1.94,0-1.62-.21h.24c-1.61-.11-4.92.07-5.12.87a4.19,4.19,0,0,1,.27-1.1c-.94.92-1.85,1.79-2.74,2.74.22-.68-.86-2.19.46-2.66A2.84,2.84,0,0,0,164,93c.27.08.72.92.36,1a6.9,6.9,0,0,0-2-.88c.4.1.05,1.18-.56,1.21.08-.16-.15-1,.07-1.15l-1.44,1.18c.36-.23,0-.87-.41-1.12.18.17-1.35.13-1.75.3l.69.15c-1.77.1-1.52,1.63-3.22,1.88.17-.25.3-1.38-.6-1.34-.32.61-1.31,2.76-2.64,3.52l-.35-.23-1,.6a16.81,16.81,0,0,1,3.12-3.85c-.7-.11-.25-.32-1.23-.1-.4-.21.45-.53.74-.59-.78.06-1.55.2-2.33.32.24.57-1.6,1-1.38,1.47l2.31-1.19c.22.58-1,2-2.61,2.3-.47-.12,0-1.13-.07-1.32a3.25,3.25,0,0,1-1.61.73l.59-.52c-1,.06-1.21,1.22-2.49,1.11-.38.11-1.45-.2-1.36.16a3.82,3.82,0,0,1,1.78,2.89l-1.06.11a11.88,11.88,0,0,1-1.37.15c-.4,0-.42-.44-.39-.84s.09-.82-.28-.85c.07.15-.12.53-.2.67-.43.15-.17-.53-.87.12.26.56-1.45,1.26,0,.69-.53.74-.79.55-1.47,1.42.26,0,.38.4.42.87a4.48,4.48,0,0,1-.08,1.44c-.11-.12-.38-.06-.5,0a17.92,17.92,0,0,0-1,1.94,6.05,6.05,0,0,0-.49,2c-.18.13-.35,1-.62.61a2.72,2.72,0,0,1,.39,1c-.41,1.1-.2-1.19-.76-.34.35,0,.64,1.38,1.13,2,.22-.2.13-.6,0-1.06s-.39-1-.51-1.38c.77,0,1.57,1.2,2.43,2.29.65.88-.21.66,0,.78a1.85,1.85,0,0,0,1.62,1.14,1.81,1.81,0,0,1,1.45.79c.38.79-.47.86-.51,1.24-1-.39-1.15-1.15-1.64-1.59a6.65,6.65,0,0,0,.49.73,1.75,1.75,0,0,1-1.12-.85c0,.4.78,1.18,1.8,1.82s2.25,1.21,3.06,1.75c.38,0,1,0,.79-.26l-.58-.15c-.36-.57,1.25-.1.62-.54a5.3,5.3,0,0,1,2.79.53v.59c0-.16-.58-.55-.93-.5.52-.08,1.37,1.28,2.09.76l-.62-.62c.84,0,2-.27,2.83.2-.26-.66-.23,0-.7-.83.17.47-.42.27-1,.09s-1.05-.37-.73.19c-.43-1-1.07-.7-1.71-1.63,0,.19.18.45-.55.07a.85.85,0,0,1-.22.09l-.05,0,0,0c-.05,0-.05,0,0,0a1.06,1.06,0,0,1,.29.42c-.53.24-1.76-.24-2.24-.21-.41-.27.26-.12.1-.4l-.72,0c.1-.4-.79-1.13.26-.9a9,9,0,0,1-.82-.42,2.85,2.85,0,0,0-1.27-1c-.23-.28-1-.27-.54-.29a5.11,5.11,0,0,1-1-.71l.08-.07a8.76,8.76,0,0,1-.91-1.51,2.2,2.2,0,0,1,.17-2,2.53,2.53,0,0,1,.2-1.58l.38,0c0-.59.95-1.32.76-1.69.56,0,.9-.43,1.31-.92a4.57,4.57,0,0,1,1.38-1.26l-.23-.4c.6-.35,1.13-.78,1.93-1.31l-.21-.36c.66-.64,2.13-.47,3.47-.85-.06.17-.41.23-.67.2,1.82.5,3.28-1.51,4.94-1.1a1.17,1.17,0,0,1,.91-.17.19.19,0,0,0-.09,0l.15,0c.18,0,.36.09.56.12a1.74,1.74,0,0,0-.47-.14c.28-.07.71-.19,1.13-.34l.25.4.1,0c.45.1.31-.26,0-.55a2.78,2.78,0,0,0,.54-.34c.44.65,1.11-.41,1.68.29.25-.4,2.17-.5,2.33-1.3,0,.1.16.14-.07.17a2.43,2.43,0,0,0,1.42-.16l.25.54,1-.82c.68.29,1,.47.34.94,1.53-.75,1.25-.3,2.57-1l-.06.37c.48,0,1.24-.55,1.53-.25,1.09.65,5.33,0,8.09.72-.52-1.07,1.28.49,1.4-.32.16.26.54.41.09.61,1.42-.21,2.11.45,3.11-.21.15.25-.32.36-.18.51.12,0,.46-.21.6,0s-.21.2-.44.3c1.45,0,1.62-.76,1.75-1.48a1.23,1.23,0,0,0,1.63-.14c.25.25.67.51-.23.57.51,0,3.09.43,3.16-.15.15.15.71.06.84,0a18.84,18.84,0,0,0,2.37.08l-.31-.1c.45-.69.93-.14,1.84-.21l0,.07c2.07.52.9-.24,2.94.35l-.11-.44c.19-.93,1.82.54,3,.16l-.43-.24c.64-.33,1.85,1.24,2.49,1.34.15.07-.21.13-.41.2,1.71.5.2-.58,1.46-.75.24.31-.28.79.57.83.43.24,2.44-1.05,3.6-.47-.26-.24-.52-.47.07-.66.89-.09,2.41.89,3.22.14.11.07.16.13.16.19.68-.19,2.22-.3,2.64-.69.58,1.5,4.27-.56,4.18.84l2.08.07-.06.14a3,3,0,0,0,2.31-.36c.3.13.06.23,0,.3a5.25,5.25,0,0,0,3.8,0l.09.47c.49-.18,2.63,1.15,4.57,1.09a.33.33,0,0,1-.25.15,3.75,3.75,0,0,1,.82.09,3,3,0,0,1,.68.26,5.48,5.48,0,0,1,1.18.85c.7.6,1.18,1.09,2,.74a8.08,8.08,0,0,1,1.12.67c-.46-.69-.31-.75,0-.74s.66.14.52-.23c.57.52.62,1.79.1,1.11v-.16c-.44.12-.2.59,0,1.08s.4,1,.11,1.1a6.69,6.69,0,0,1,0,4.46,11.73,11.73,0,0,1-2.18,3.84l.73.14a8.88,8.88,0,0,1-.71.79c-.3.1-.62-.09-.12-.6-.51,0-.6,1.08-.54,1.21-.64.37-.65.12-.56-.17s.27-.62.11-.49l-.38.4.14,0c-.2.51-.07.79-.86,1.29-.57.2-.47-.19-.68-.09,0,0-.1,0-.3.16-.4.2-.8.38-1.22.56l.72.23c-.43.51-1.21.52-.37.8-.62-.2-1.85.2-3.09.53a10.6,10.6,0,0,1-2.8.54,6.69,6.69,0,0,1-2.88.81c.29.06.55.62-.43.7.17-1.26-1.86-.25-2.77-1,.78.49-2.73.5-1.53,1.18-.83,0-.11-.45-.76-.66-1.87.71-4.28.17-6.66.52,0,.16.4.37-.1.65l-1.32-.69c-.47.1-.37.94-1.28.45.13.12.33.31,0,.38-4.73-.47-9.63,1.06-14.42-.46.64.31.21.34-.29.35.32.07,0,.39,0,.61l-2-.64c-.38.6-2.15,0-2.37.55l.64-.08c-.87.65,1.14,1.54,1,2.4,1-.74,2.5,1.2,4.09.11.35.18-.29.28-.11.48.4-.37.88-.45,1.78-.28l-.11.09a58.12,58.12,0,0,1,6.43.42l-.22-.43a2.68,2.68,0,0,1,1,.27c.67-.68-1.71,0-1.1-.72.84.86,4.27-.16,4.87.79.93-.06-.31-.48.63-.54l.26.26.21-.36c.62,0,1,.33,1,.56a2.5,2.5,0,0,0-.58.12c.82.27,2.24-.28,2.52-.2l-.91-.09c2.52-.44,5.67-.4,8-1.26l-.21-.18c1.82-.6,1.52,0,3.54-.42l-.06,0a3.29,3.29,0,0,1,1.47-.5c-.48.31,1,.3.4.67,2-.73.95-.48,2.15-1.44l.37.28a2.31,2.31,0,0,1,1.41-.84c-.78.46.77.36-.1.94a4.08,4.08,0,0,0,2.59-.61c.63-.34,1.09-.61,1.79-.31.32-.63-.19-.55-.72-.4s-1.09.38-.85.19c-.54-.14.59-.91,1.26-1.09s1.62.67,3.28-.32c-.16.09-.14.16-.3.25.75-.16,1-1,1.94-1.22,0-.73,1-.75.55-1.37a13.06,13.06,0,0,1-1.24,1.23,7,7,0,0,0,.84-1.36,4.32,4.32,0,0,1,1.26-1.49,2.21,2.21,0,0,1-.26,1c.48-.22.49-.79.95-1,.25.26,0,.73-.48,1.24A9.26,9.26,0,0,0,234.5,116c.66-.12,1.2-1.84,1.35-.89a1.62,1.62,0,0,1,.66-1.39,2.32,2.32,0,0,0,.84-1.65l.32.3a4.13,4.13,0,0,1,.28-1c.05.29.11.59.16.9.11-1.18,1.33-1.8,1.39-3-.7,2.19-.64.32-1.25,1.1.21-1.34.52-1.63.95-2s.93-.79.88-2.47c.08.47-.38,1.64-.51.94a14.6,14.6,0,0,1,.51-1.81c-.32-2.2-.4.37-.75-.53.41-.79-.37-1-.78-1.8l.42-.13c-.24-1.21-.59-1.25-.82-1.27s-.46,0-.84-1a6.72,6.72,0,0,1,1,.48c-.22-.32-.46-.61-.7-.9l.54-.07a10.43,10.43,0,0,1-1.92-2.14c0,.43-.65.45-1.44-.15-.39-.61.59-.13-.65-.89.41-.06.95-.13,1.21.6.14-.07.43,0,.58-.06a4.75,4.75,0,0,0-2.07-1.51,1.94,1.94,0,0,1,.47.39,12.39,12.39,0,0,0-2.2-.43c-.26-.26,0-.31.34-.31-.44-.12-.79,0-1.41-.18.25-.29.32-.69,1.29-.52a10.74,10.74,0,0,0-2.07-.19c-.08-.17-.8-.61-.54-.69-.94-.43-2.52.16-3.75-.32a.9.9,0,0,1-.5.11c-1.19-.28-2.22-.87-3.71-.55l-.75-.72c-1.14,0,1,.9-.88,1-1.33.08-.44-.59-.89-.81a3.69,3.69,0,0,1-3,.25A5,5,0,0,1,217.27,92.66Zm-13.75.08c.26-.1.79-.39,1-.14C204.21,93.11,204,92.87,203.52,92.74ZM183,93.68c.2-.14.5-.06.84.12A1.86,1.86,0,0,1,183,93.68Zm-38.23,18.94h0C144.39,112.22,144.5,112.37,144.74,112.62Zm.82.67c.13,0,.15-.07.13-.14s-.33,0-.56-.19C145.15,113.09,145.23,113.23,145.56,113.29Zm85,.94h.25C230.41,114.57,230.47,114.4,230.52,114.23Z"/><path class="cls-4" d="M185.33,93.15a.39.39,0,0,1,.1.24C185.54,93.32,185.54,93.23,185.33,93.15Z"/><path class="cls-4" d="M225.92,93.42h0a.2.2,0,0,0,.06-.07Z"/><path class="cls-4" d="M142.89,98.19a1.08,1.08,0,0,1,.58-.13C143.43,98,143.26,98,142.89,98.19Z"/><path class="cls-4" d="M151.56,114.85l-.74-.14a1.22,1.22,0,0,1,.59.36C151.43,115,151.34,114.78,151.56,114.85Z"/><path class="cls-4" d="M157.19,119.31c.12,0,.23.06.35,0l0-.21C157.09,119,156.72,119.11,157.19,119.31Z"/><path class="cls-4" d="M151.77,116.46c-.06.36.44.39,1,.49l-.09,0C153,116.48,152.36,116.47,151.77,116.46Z"/><path class="cls-4" d="M152.87,117a2.57,2.57,0,0,1,.47.15C153.46,116.94,153.16,117,152.87,117Z"/><path class="cls-4" d="M147,113.65c.18.18.31-.38.39-.19C147.76,113.14,145.64,113.36,147,113.65Z"/><polygon class="cls-4" points="151.81 117.74 151.76 117.25 151.35 117.51 151.81 117.74"/><path class="cls-4" d="M147.86,116l.77.44c0-.08.13-.08.27-.06C148.41,116.15,147.89,115.85,147.86,116Z"/><path class="cls-4" d="M148.9,116.36a1.69,1.69,0,0,0,.69.16A3.52,3.52,0,0,0,148.9,116.36Z"/><polygon class="cls-4" points="150.63 117.5 150.42 117.32 149.85 117.08 150.63 117.5"/><path class="cls-4" d="M140.74,110.76a8.69,8.69,0,0,1-.44-.8c-.17,0-.2.23,0,.54S140.67,111,140.74,110.76Z"/><path class="cls-4" d="M141.49,113.85a.91.91,0,0,1-.09-.56l-.42.37Z"/><path class="cls-4" d="M139.54,111.44c-.21,0-1-1.35-.46,0C139.26,111.48,139.87,112.4,139.54,111.44Z"/><polygon class="cls-4" points="145.06 98.63 144.85 98.75 145.35 99.54 145.06 98.63"/><path class="cls-4" d="M157,93.05c-1.18,0-.18.58-1.26.5-.23.26.88.07.63.31C157,93.53,157.36,93.61,157,93.05Z"/><path class="cls-4" d="M156.32,93.86a2.36,2.36,0,0,0-.32.2A2.43,2.43,0,0,0,156.32,93.86Z"/><polygon class="cls-4" points="187.78 118.52 187.06 118.31 187.52 118.63 187.78 118.52"/><path class="cls-4" d="M186.37,119.16l-.15-.59-.45.52C185.94,119.07,186.25,119,186.37,119.16Z"/><path class="cls-4" d="M201.46,91.6l-.05.14c.12.15.29.16.63.18Z"/><polygon class="cls-4" points="211.44 91.96 211.27 91.94 211.58 92.48 211.44 91.96"/><path class="cls-4" d="M220,91.73c-.35-.06-.77,0-1.12,0C219.61,91.66,220,92.4,220,91.73Z"/></g><path class="cls-2" d="M163.11,110a13.21,13.21,0,0,1-2,.12,2.74,2.74,0,0,1-1.8-.44,2.68,2.68,0,0,1-.48-1.91,25.52,25.52,0,0,1,.22-3.23,14.39,14.39,0,0,1,.49-2.59,1,1,0,0,1,1.07-.83.54.54,0,0,1,.62.46V102a3.33,3.33,0,0,1-.12.74,42.59,42.59,0,0,0-.48,5,5.26,5.26,0,0,0,0,.6,4.88,4.88,0,0,0,1,.08,12.84,12.84,0,0,0,1.55-.12c0-.28,0-.66,0-1.13s0-.87,0-1.19a1.47,1.47,0,0,1,.14-.68c.08-.14.31-.2.69-.21s.62.07.72.2a.92.92,0,0,1,.15.55c0,.24,0,.72-.06,1.46s-.06,2.83-.06,6.25a.79.79,0,0,1-.88.9h-.08c-.5,0-.74-.4-.74-1.21v-1.1Z"/><path class="cls-2" d="M168,100.19a1.28,1.28,0,0,1,1.33,1,2.29,2.29,0,0,1,.12.76,1.73,1.73,0,0,1-1.72,1.49,1.66,1.66,0,0,1-1.05-.44,1.39,1.39,0,0,1-.53-1.17,1.44,1.44,0,0,1,.53-1.18A1.91,1.91,0,0,1,168,100.19Zm.49,1.52a.65.65,0,0,0-.2-.54.82.82,0,0,0-.45-.14.74.74,0,0,0-.48.21.63.63,0,0,0-.23.49c0,.43.22.64.68.64A.59.59,0,0,0,168.53,101.71Z"/><path class="cls-2" d="M175.61,100.93c0-.53.33-.8,1-.8.31,0,.49.19.55.56v3c0,.56,0,1.12,0,1.68a3.56,3.56,0,0,1,1-.12,3.68,3.68,0,0,1,3,1.3,5,5,0,0,1,1.06,3.26,4.7,4.7,0,0,1-1.25,3.31,4.2,4.2,0,0,1-3.21,1.35c-1.31,0-2-.37-2-1.11s0-2.62-.11-5.64S175.61,102.44,175.61,100.93Zm4,6.44a2.46,2.46,0,0,0-1.52-.56,2.85,2.85,0,0,0-.9.16q.12,1.65.12,5.82a2.06,2.06,0,0,0,.7.12,2.59,2.59,0,0,0,1.56-.58,2.78,2.78,0,0,0,1.16-2.45A3,3,0,0,0,179.65,107.37Z"/><path class="cls-2" d="M189.39,105.11c.58,0,.88.5.88,1.5V107l0,1.4c0,.44,0,.87,0,1.3l.3,4.52c0,.33-.34.5-1,.5h-.29a.32.32,0,0,1-.32-.18.59.59,0,0,1,0-.44,1,1,0,0,0-.05-.58,3.22,3.22,0,0,1-2.44,1q-2.82,0-2.82-4.36a6.14,6.14,0,0,1,.91-3.66,3,3,0,0,1,2.61-1.24,4.78,4.78,0,0,1,1.6.28A.83.83,0,0,1,189.39,105.11Zm-2.08,1.82a2.1,2.1,0,0,0-1.7.66,3.82,3.82,0,0,0-.56,2.42c0,2,.53,3,1.6,3a1.63,1.63,0,0,0,.93-.38,2.12,2.12,0,0,0,.71-.86,7.17,7.17,0,0,0,.38-2.36,4.28,4.28,0,0,0-.31-1.86A1.09,1.09,0,0,0,187.31,106.93Zm-.07-5.74a.48.48,0,0,1,.51-.34.81.81,0,0,1,.62.24.52.52,0,0,1,.19.64,4.8,4.8,0,0,1-1.07,1.7c-.49.53-.88.8-1.14.8a.82.82,0,0,1-.6-.2.61.61,0,0,1-.2-.47.64.64,0,0,1,.3-.51A4.17,4.17,0,0,0,187.24,101.19Z"/><path class="cls-2" d="M192.83,105.77a2.94,2.94,0,0,1,1.95-.7,5.72,5.72,0,0,1,2.13.4c.68.27,1,.62,1,1.06a.65.65,0,0,1-.26.54.85.85,0,0,1-.45.2h-.3a4.53,4.53,0,0,1-.8-.37,2.8,2.8,0,0,0-1.27-.36,1.68,1.68,0,0,0-1,.29,1,1,0,0,0-.41.85,1,1,0,0,0,.47.88,4.7,4.7,0,0,0,1.65.55,5,5,0,0,1,1.81.65,1.74,1.74,0,0,1,.63,1.56,2.83,2.83,0,0,1-.87,2.35,3.3,3.3,0,0,1-2.11.69,5.73,5.73,0,0,1-2.11-.34q-.87-.35-.87-1a.69.69,0,0,1,.78-.78,3.21,3.21,0,0,1,.88.28,3.44,3.44,0,0,0,1.35.28,1.25,1.25,0,0,0,1-.43,1.55,1.55,0,0,0,.35-1,.87.87,0,0,0-.46-.81,4.83,4.83,0,0,0-1.4-.41,7.19,7.19,0,0,1-1.38-.34,2,2,0,0,1-1.2-2.14A2.32,2.32,0,0,1,192.83,105.77Z"/><path class="cls-2" d="M200.66,101.81a1,1,0,0,1,.69.34,1,1,0,0,1,.32.71,1.13,1.13,0,0,1-.35.75,1,1,0,0,1-.73.38.93.93,0,0,1-.69-.32,1.14,1.14,0,0,1-.32-.82c0-.64.35-1,1-1Zm.85,10.48,0,1.4a.8.8,0,0,1-.3.63,1,1,0,0,1-.64.25.46.46,0,0,1-.52-.5c-.18-4.26-.26-6.61-.26-7.06s0-1,.06-1.66c0-.24.18-.36.46-.36.7,0,1.1.28,1.2.86a5.33,5.33,0,0,1,.06.7l-.08,1.26Z"/><path class="cls-2" d="M204.26,107.33a4.41,4.41,0,0,1,1.81-1.65,4.7,4.7,0,0,1,2.14-.55,4.55,4.55,0,0,1,1.67.25q.63.24.63.66a1.73,1.73,0,0,1-.23.82.7.7,0,0,1-.61.41,3.7,3.7,0,0,1-.77-.23,3,3,0,0,0-.81-.23,2.62,2.62,0,0,0-2,.85,3.07,3.07,0,0,0-.82,2.25,3.89,3.89,0,0,0,.45,2.09,1.7,1.7,0,0,0,1.55.69,4.36,4.36,0,0,0,1.51-.51,4.77,4.77,0,0,1,1.33-.51.57.57,0,0,1,.42.16.56.56,0,0,1,.16.4,1.47,1.47,0,0,1-.61,1,5.36,5.36,0,0,1-1.51.88,4.6,4.6,0,0,1-1.62.35,2.91,2.91,0,0,1-2.51-1.26,5.75,5.75,0,0,1-.91-3.44A4.33,4.33,0,0,1,204.26,107.33Z"/><path class="cls-2" d="M215.13,105.12a2.77,2.77,0,0,1,2.37,1.38,5.82,5.82,0,0,1,.93,3.31,5.66,5.66,0,0,1-1,3.3,3,3,0,0,1-2.52,1.36,3,3,0,0,1-2.53-1.39,5.33,5.33,0,0,1-1-3.09,6.06,6.06,0,0,1,.88-3.48A3.16,3.16,0,0,1,215.13,105.12Zm-.24,1.65a1.58,1.58,0,0,0-1.38.88,3.47,3.47,0,0,0-.54,1.86,3.84,3.84,0,0,0,.6,2.32,1.71,1.71,0,0,0,1.36.8,1.66,1.66,0,0,0,1.74-1.19,5.39,5.39,0,0,0,.16-1.4C216.83,107.86,216.18,106.77,214.89,106.77Z"/></svg>