<svg id="Capa_1" data-name="Capa 1" xmlns="http://www.w3.org/2000/svg" xmlns:xlink="http://www.w3.org/1999/xlink" viewBox="0 0 164.52 154.57"><defs><style>.cls-1{fill:none;}.cls-2{fill:#fff;}.cls-3{fill:#ed6c6f;}.cls-4{clip-path:url(#clip-path);}</style><clipPath id="clip-path"><rect class="cls-1" x="-719.22" y="3722.42" width="1341" height="1296.03"/></clipPath></defs><path class="cls-2" d="M4.44,54.76c-4,19.4.52,40.07,10.66,57.08,14.56,24.4,41.55,41.65,70,42,38.3.46,74-32.62,76.36-70.85,2.23-35.44-28.31-78-65.17-81.69C57.58-2.55,13,13.09,4.44,54.76Z"/><path class="cls-3" d="M116.57,67.15c-.18-.15-.57-.06-.49.38l.68.31Z"/><path class="cls-3" d="M115.38,70.15c.33.52.91,1.11,1.52.76-.65-.5-.38-.63-1.16-1.18-.09-.44.2-.77.45-.7-.18-.16.13-.69-.29-.92a1.67,1.67,0,0,0-.08,2.07C115.68,70.34,115.5,70.19,115.38,70.15Z"/><path class="cls-3" d="M115.1,113.44l.07-.28A.72.72,0,0,0,115.1,113.44Z"/><path class="cls-3" d="M106.39,117.47c0,.19.09.28.15.29C106.49,117.57,106.45,117.43,106.39,117.47Z"/><path class="cls-3" d="M107.37,113.08a2,2,0,0,1-.07.26C107.37,113.25,107.42,113.15,107.37,113.08Z"/><path class="cls-3" d="M115.1,113.44l-.2.72C115.12,114.2,115.06,113.79,115.1,113.44Z"/><path class="cls-3" d="M117.1,76.09a1.07,1.07,0,0,0-.18-.39c0,.13,0,.25.07.37Z"/><path class="cls-3" d="M114.35,101.63v-.22a1.78,1.78,0,0,0-.27-.17Z"/><path class="cls-3" d="M114.08,92.56c0,.21.55.27.8.34a.68.68,0,0,1-.4-.44A1.1,1.1,0,0,0,114.08,92.56Z"/><path class="cls-3" d="M114.83,78.16l-.08-.25A2.41,2.41,0,0,0,114.83,78.16Z"/><path class="cls-3" d="M114.34,108.12a.41.41,0,0,0-.2.09A.33.33,0,0,0,114.34,108.12Z"/><path class="cls-3" d="M117.54,56.17s0,0-.07.07S117.62,56.26,117.54,56.17Z"/><path class="cls-3" d="M113.94,66.1l.14,0c0-.1,0-.2,0-.3A3.13,3.13,0,0,1,113.94,66.1Z"/><path class="cls-3" d="M108.89,104.7v0C108.93,105,108.92,104.84,108.89,104.7Z"/><path class="cls-3" d="M46.94,83.84c.41.18.15.4-.08.62s-.43.42.21.6C47,84.86,47.92,84,46.94,83.84Z"/><path class="cls-3" d="M117,76.33a2.26,2.26,0,0,1,0,.37A1.05,1.05,0,0,0,117,76.33Z"/><path class="cls-3" d="M47.07,85.06h0l.14,0Z"/><path class="cls-3" d="M100.77,85.31a.86.86,0,0,0,.07.34C100.86,85.6,100.86,85.5,100.77,85.31Z"/><path class="cls-3" d="M107.67,99.47l0-.39A1.94,1.94,0,0,0,107.67,99.47Z"/><path class="cls-3" d="M92.15,84.3c-.21,0-.3-.11-.57,0l.09,0A.43.43,0,0,1,92.15,84.3Z"/><path class="cls-3" d="M84.33,85.85a.4.4,0,0,0,.16.08l.23-.08Z"/><path class="cls-3" d="M101.11,38.78a1.57,1.57,0,0,1,.44.57c-.06-.22.33-.3.49-.34S102.1,38.85,101.11,38.78Z"/><path class="cls-3" d="M116.78,76.1a.3.3,0,0,1,.25.23,2,2,0,0,0,0-.26C116.91,76.05,116.83,76,116.78,76.1Z"/><path class="cls-3" d="M92.29,88.79l-1.1.07A7.3,7.3,0,0,0,92.29,88.79Z"/><path class="cls-3" d="M49.05,45.9l.28-.13A.37.37,0,0,0,49.05,45.9Z"/><path class="cls-3" d="M87.83,89.64a1.87,1.87,0,0,0-.77-.22.69.69,0,0,0-.1.17Z"/><path class="cls-3" d="M101.55,39.35Z"/><path class="cls-3" d="M108.92,46.53c-.27-1.16-.84-.37-1.32-.51-.58-1.39.35-.82.58-1.45-.5-1-1.46-1.5-1.86-2.26.07-.12,0-.3.25-.2-.59-.41-1.19-1.21-2.08-1.84a3.37,3.37,0,0,0-2.77-.7.56.56,0,0,1-.17-.22,1.39,1.39,0,0,1,0,1c-.64-.1-1.12.38-1.35-.11.36,0,.4-.18.59-.33-.23.07-.45.13-.65.21-.62-.69.87-.27.94-.74-1.48.11-2.67,1-3.53,1-.17-.31.3-.48.69-.61s.67-.2,0-.4c.48,0,1,0,1.51.06-.64-.49-.41-.49-.16-.51s.56,0-.09-.56a4.93,4.93,0,0,0-2.09.42,5.39,5.39,0,0,1-1.72.48c-.26.45.23.53,0,1-1,.56-1.46.15-1.78-.26s-.49-.73-1.19-.35c-.37.44-.71,1.26-1.68.56.19-.21.37-.43.55-.67-1.27-.44-1.1.89-2.37-.15.38-.19,1.17.17,1,0-.7-.94-.81.18-1.54-.15l.13-.7c-1.49-.54-3.39-1-5.22-1.78.19-.14.59-.18.27-.58-1.23-.39-2.46-1-3.83-1.54a16.94,16.94,0,0,0-4.38-1.23,7.37,7.37,0,0,0-1.08.65c-.25,0-.51-.21-.24-.35-1.18-.09,0,.38-.51.67s-.88-.15-.52-.42a32.16,32.16,0,0,0-3.26,1.82,13.27,13.27,0,0,1-3,1.65l.19-.35c-1.31.63-.55,1.9-1.87,2.23l.12-.23c-1.23.8-2.33,1.81-3.42,2.62a6.21,6.21,0,0,1-3.25,1.47.56.56,0,0,1-.33.54,4.62,4.62,0,0,1-.8.3c-.58.17-1.12.36-1,.95a7.46,7.46,0,0,1-1.52-.26,7.76,7.76,0,0,0-1.94-.08c-.59.07-.71.92-1.43,1.19l-.14-.61-.89.85L50,45.45l-.69.32c.29,0,.67.14.66.32a3.76,3.76,0,0,1-3,0,25.92,25.92,0,0,0-2.6,1.46c0-.25.4-.52.71-.82-1.25,1.21-.53-.54-1.68.65.25,0,.06.38.09.51a3.48,3.48,0,0,0-1.62.55,7.34,7.34,0,0,0-1.64,1.36l-.09-.49c-2,1.51-3.24,4-4.22,6.21.56-.74,1.14-.21.92.44h-.72c.21.58.5-.57.62.47-.4.79-.93.3-.93-.28-.07.38-.13.75-.17,1.11-.21,0-.22-.28-.44-.43.23.55-1.25,1.62-.72,2.44h-.2a38.88,38.88,0,0,0-.86,5.16c.55.13.3.81.67,1.44A16.93,16.93,0,0,0,33,70.3c.23,1.2.47.37.78.91-.54.06-.49,1.75-.86.87a18.53,18.53,0,0,0,.19,2.39,11.65,11.65,0,0,0,.24,1.17,13.89,13.89,0,0,0,.46,1.59c.16-.32.2-.64.4-.51.17.45,0,1.09-.29,1.07l-.07-.11c.66,1.36.71,3.08,1.25,4.83s1.51,3.5,3,3.9l-.16,0,.64.34.69.25a7.33,7.33,0,0,0,1.34.4c1.15.54-.87.08-.11.72l3.81.56a5.88,5.88,0,0,0,3.23-.32c1,.6,2.6.17,4-.49s2.77-1.47,3.94-1.5l-.27-.27c.34-.56.69-.11,1.09-.22-.18-.22-.67,0-.46-.35A24.88,24.88,0,0,1,62,82.68a11.39,11.39,0,0,1,2.88-.48,4.06,4.06,0,0,1,2,.4c.35.14.63-.17,1-.43s.75-.31,1,.53c-.27.07-.52.15-.75.23a2.47,2.47,0,0,1,.73.4,4.3,4.3,0,0,1,.67.72c.45.6.88,1.38,1.45,2.23A8,8,0,0,0,76.53,90c-.29.07-.36.26-.78.12a3,3,0,0,0,2,.65c.77,0,1.36-.19,1.37-.39.62.06.13.36.52.57a2.12,2.12,0,0,0,1.43-.2c.46-.17.86-.31,1.09-.11.08.06-.19.19-.34.24.5-.29,2.37-.32,1.79-.79,1.37,0,2.4-.78,3.44-.68.51-.77,2.12-.18,2.13-1.09.13.89,2.16.32,2.81-.18-.2.3.64.22.4.63.77-.07,1.45-.27,1.31-.73a1.51,1.51,0,0,0,1,.38,3.25,3.25,0,0,0,.93-.07c.59-.06,1.18,0,1.23.75A7.93,7.93,0,0,1,102,92.44c-.41.21-.73-.27-1.08-.7s-.7-.79-1-.43c1.45,1.11,2.75,1.87,3.31,3.88.07.54-.48-.14-.69-.24a8.46,8.46,0,0,1,1,2.77,21.06,21.06,0,0,0,.65,2.77c-.09,0-.19-.19-.28-.37.06.36-.07.85.34.79l-.14-.35c.28-.31.63,0,.93.48s.55,1,.71,1.06c-1.18-.66-.32,2-1.81.88.08.25.26.58.54.53-.1.37-.26.48-.56.09.17,1.38.62.92.53,2.19-.2,0-.25-.28-.48-.43a3.06,3.06,0,0,1,.4,2.42c-.11-.08-.28,0-.25-.29-.12,1.87.69,3.3.12,5.35-.82-.7-.35.69-1.11.75l.14,1.16.4-.43c-.09,1,.43,1.91.17,2.77l-.3-.76c0,.64.07,1.28.13,1.92.09-.37.18-.73.28-1.08.39,1,1-.11.76,1.22-.1-.27,0,1-.39,1.54h0a2.93,2.93,0,0,1,.54,1.74c-.2.25-.86,0-1,.16.37.21.54.82.82,1.44s.68,1.25,1.16,1.34a.56.56,0,0,0-.63.21l.7.11c.2.52.23.63-.07.78.61.68.68.36.73.16s.07-.33.78.36c-.16,0-.14.07-.45,0a3.75,3.75,0,0,0,2.8.84,13.27,13.27,0,0,0,2.61-.61c.4.23.07.44-.29.62s-.75.3-.35.51a6.8,6.8,0,0,0,3.2-2.57,9.43,9.43,0,0,0,.94-1.73c.25-.56.46-1.12.67-1.66l-.21.38c-.46-.33-.2-.66.12-1.11a2,2,0,0,0,.53-1.63c0,.28.54.44.43.35.39-1.55,0-3.16-.43-5.3l.28.26a24.4,24.4,0,0,0,.22-3.13c-.28-.26-.25-.78-.64-.46,1.52-2.83-.94-5.33.32-7.84,0,.3.26.7.25.47l-.29-2.12c-.46.18-.28.28-.63.74a2.13,2.13,0,0,1-.52-1.39c.33.95.75,0,1-.43-.15.07-.31-.07-.45,0,.81-1.12-1-.17-.41-1.69l.24.07a5.17,5.17,0,0,1-.41-1.69c.54-.26.27.6.71.63,0-.85-1-1.67-.53-2.45.16.36.17.88.33,1.24a2.2,2.2,0,0,0,.55-1.58l0,.06.26-1.45-.16.37c-1.43-1-.3-2.18-1.25-3.61.9,1.39.51.23,1.13.32.16-.37.34-.93.52-.77-.51-.68.37-1.15-.37-2.1.19-.05,0-.73.5-.59-.17-.88-.34.22-.59.15-.7-1.36.76-3.23-.2-5.18-.41-1.69-1.08-2-1.44-3.56.31-.54.73.42.73.42a3.58,3.58,0,0,0,0-2.31c.17.16.32,0,.53-.26-.06-.65-.72-.42-.45-1.28a2.93,2.93,0,0,1,.81.63c-.2-.76-.58-1.5-.77-2.29.34-.22.53.47.76.74-.17-.89-.35-2.3-.9-2.56l-.19.57c0-.32.47-.17.57.06a.71.71,0,0,1-.37,1.15l-.13-.56c-1.15.6.22,2.26.18,3.4l-.86-.46.72,1.15c-.21.25-.68.43-.81-.13-.41.82.31.71-.14,1.42-.08.08-.12,0-.15,0l.26.79c-.18-.15-.59.15-.48-.34-.46,1.43.68,2.28,0,2.83l-.06-.12c.32,2,.63.18,1.38,1.65l-1.51,1,.62.18c0,.21-.06.61-.3.54.43.75.26-.13.67.3-.55,1,.31,2.7-.67,2.94.48.35.35-.94.69.1-1,.32.2,1.21-.27,2.11-.55-.26-.27-1.12-.75-.21.94.52-.17,1.75,0,2.5.74,0,.34,1.64.61,2.91-.25-.08-.36,2.39-.61,3.58l-.12,0c.74.21.63,1.43.8,2.32-.45,0-.63-.19-.84-.66l0,.83a1.46,1.46,0,0,1,.47,1l-.56-.2c0,1.11.69,2.22.35,3.66.52.07,1.42-1.16,1.79.34-.27.06-.75.13-.88-.27,0,.13.25.46.13.72l-.48-.59c-.2.65.4.33.36.85-.4,0-.27.39-.59.32,0-.13.15-.45,0-.65a2.63,2.63,0,0,1-.58,1.54.45.45,0,0,1,.6.42c0,1.11-.48.39-.67,1,.28.26,0,1,.6,1,0,.32-.27.39-.43.51.27.57.12,2.69.75,2l0-.15s0,.06,0,.09h0c.62,1.88-.21,3.92-.15,5.67l-.19,0c.13,1.09-.26,2.27-.16,3.1-.12.3-.63.5-.79.28a5.49,5.49,0,0,1-.23.8,1.62,1.62,0,0,1-.79.68c.23-.75-.37,0,.29-.7a6.59,6.59,0,0,1-.84.53,2.32,2.32,0,0,0-.67.82c0-.29-.22-.36-.45-.31a1.35,1.35,0,0,0-.67.26,5.65,5.65,0,0,0,.65.15,1.91,1.91,0,0,1-1.16.3q.06-.35.09-.69a1.59,1.59,0,0,0-.81-.15,3.13,3.13,0,0,1-.77.06.92.92,0,0,1-.82-1.38c-.29-.11-.3.14-.27.38s.06.51-.29.47c-.35-.8.4-1.93.35-2.16.18-1.18-1.14-1-1-2.42-.22.18-.88.4-1.12-.7.07-1,1-1.24,1.19-.61,0,.24,0,.36-.13.35.09.32.2.73.45.34l-.24-.13c.22-.49.25-1.85.63-1.52-.19-.76-.39-.34-.52.22.38-1.27.09-2,.44-3.33-.15.2-.45.37-.42.16.47-2-.38-.91-.35-2.28.45-.73.84.37.68-1,.34-.81.66-.11.82.25-.33-1.3.55-2.32.7-3l.13.7a3.63,3.63,0,0,1,0-1.09l-.51.34c.12-.38.14-.72.34-.7-.28-.44-.82.25-1.18-.6.29-.51-.15-1.62.49-1.78-.31,1.68.65-.15.67,1.29a2.17,2.17,0,0,1,.07-1c.08-.06.13.06.16.17.63-1.63-.67-.78-.64-2.48.36.22.68-.4.59-.69,0,.7-.59.33-.88-.29.24-1.11-.28-1.2-.29-1.77l-.08.67c-.37-.19-.36-.74-.59-1.48.27-.1.29.66.37.38-.36-.39-.26-.87-.18-1.42a2.2,2.2,0,0,0-.19-1.7c.09-.61.65-.23.66-.76-.86-1.18,0-1.62-1-2.87-.26.6-.13.59-1-.13A22.65,22.65,0,0,1,107,94.23c-.41-.4-.8-.79-1.21-1.16.25.65.84,1.27.88,1.71-.59-.56-.47-.51-.74-.07a1.41,1.41,0,0,0-.39-1.37,2.37,2.37,0,0,1-.71-1.36l1.08-.53a3.94,3.94,0,0,0-1.37-2.11c-.34-.29-.68-.58-1-.91a10.06,10.06,0,0,1-1.1-1.14,4.44,4.44,0,0,1,.38.67c-.52.1-1-.95-1.77-1.23.29-.28,0-.67-.14-1.08-.11.26-1.55-1-2.09-.25a10.84,10.84,0,0,0-.8-.87,3,3,0,0,0-1.17-.25,4,4,0,0,0-.91.25,6,6,0,0,1-.84.29,2.65,2.65,0,0,1-1,.1c.53-.42-.27-.73.94-1-.6,0-1.14-.11-1.14.17-.38-.28-1.56.62-2.11.28-.21.21-.23.64-.84.69-.08-.07,0-.2,0-.2,0,.2-.9.41-.3.76-1.87-1-4.45,1.07-6,.32a18.17,18.17,0,0,1-3.3.9c0-.13,0-.2.17-.18-1.32-.27-.74,1.27-2.29.83-.72-.66.8-.34.34-.59-.09-.66-.49-.6-1-.58a1.25,1.25,0,0,1-1.36-.44h.22a1.32,1.32,0,0,0-1-.41,3.29,3.29,0,0,1-.69-.23,1.43,1.43,0,0,1-.63-.46s.12,0,.15-.12c-1,0-2.1-1.5-3-2.54.66.07.57.37.86-.14-.41-.47-.59.6-1.42-.31,0-.49-.47-1.35-.22-1.84a7,7,0,0,1,.94,1,1.1,1.1,0,0,0-.63-1.09A7.5,7.5,0,0,1,70.57,79l.26-.2a3.23,3.23,0,0,0-1.21-.53,3.55,3.55,0,0,0-.94-.1,16.56,16.56,0,0,1-2.22-.11l.2.26c-.59.33-.78.25-1,.11a.76.76,0,0,0-1,.08c-.14-.25-.29-.51-.45-.75-.75.3-2.29,1.33-3.32,1.93a7.26,7.26,0,0,1,2.61-2.12c-.76.13-2.39.74-2.56,1.25.23-.17.49-.48.81-.45a6.39,6.39,0,0,1-2.69,2.1c-.47-1.52-3.27,1.17-4.62.52-1.78,1.53-4.1,1.79-6.31,2.53,1.15.94-.65.22-.21,1.38-.54.21-.77.22-.83.16a9.74,9.74,0,0,1-1.73-.56c-.37-.33.48-.3.4-.57-.54,0-.64-.15-.7-.32a.75.75,0,0,0-.38-.52c.11.45-.39.61-.89.35a7.56,7.56,0,0,0,.7.68.94.94,0,0,1-1.26-.42,1,1,0,0,0-1.1-.67,2.32,2.32,0,0,0,.53-.17,1.44,1.44,0,0,1-.62-.2l-.38-.17-.37-.24a2.67,2.67,0,0,0-.41-.22,3.68,3.68,0,0,0-.39-.24,3.18,3.18,0,0,0-.89-.24c0-.2.23-.53.48-.31-.44-.73-1.11-1.55-1.64-2.51a7.72,7.72,0,0,1-.61-1.48,3.1,3.1,0,0,1-.06-1.41l.31.12c-.12-.38-.63-.63-.38-1.16.12,0,.31.13.31,0a2.58,2.58,0,0,1-.44-1.59l.36.45c.34-2.1-.8-3.3-.82-5.2.88.09,1.38-1.57,1.67-2.37l.12,0c.57-2.56.06-4.47.43-6.8a9.88,9.88,0,0,0,1.77-2.67,6.51,6.51,0,0,1,2.21-2.57c-.32.1-.47-.53-.26-.85.45-.18.68-1.33,1.1-.61l-.15.08c.75.43,1.37-.22,2.1-.52l-.32-1c1.29.28,2.54-.26,3.87-.74S52.22,49.48,53,50c.53-.39,1.26-.53,1.8-.93l.1.56a13.43,13.43,0,0,0,4.72-1.38l-.28.57c1.28-.5.84-2.18,1.79-2.75l.73.56c1.87-1.14,4-1.9,5-3.73a.48.48,0,0,1-.06.58c.37-.29,1.16-.74,1.71-1.17s.9-.88.43-1.26c.47.58,1.56-1,2.26-1.79l.14.57c.35-1,.3-1.22,1.27-1.83.28,0,.37.35,0,.33.9,0,.48-.75,1.6-.7l-.3.44c.85-.16.74-.26,1.2-.76a1.56,1.56,0,0,1,1.1,0,1,1,0,0,1,.69.68.94.94,0,0,1,1.24-.36c0,.21-.19.28-.3.31,1.34.71,2.44.08,3.27,1a.42.42,0,0,0,0,.39c-1.17-.56-2.09-.9-2-.9-.16.49.7.89-.25,1.32.81-.14,2.46-.35,3.29.35a.79.79,0,0,1,0,.23h-.12a1.11,1.11,0,0,0,.62.22,3.81,3.81,0,0,0,.71.54c-.09.44,1,.79,1.53,1.07.21-.53.84-.12.42-.85.07.08-.13,0-.46-.13a.93.93,0,0,0-.24-.06l0,0-1.23-.59A1.34,1.34,0,0,1,85,41.1c.42-.19.87-.39,1.11-.47.31,1.06,1.54,2.08,1.57,2.61a22.08,22.08,0,0,0,3,.61,3.69,3.69,0,0,0,2.67-.57c.52-.16.61.28.83.44-.31.12-.7.12-.88.28.57-.16,1.4-.18,2.07-.4s1.16-.46,1.19-.85c1.27,0-.5.83,1.09.33l-.16.27c1.73.2,2.6-.48,3.64-.76a2,2,0,0,1,1.61.18,1.9,1.9,0,0,1,.81,1.77c0-.21,0-.33.08-.42.5,1.64.86,3.71,1.72,5.86a10.76,10.76,0,0,0,1.83,3c.76.9,1.57,1.68,2.31,2.51s1.25.51,2,.58l-.11.65,1.37,0a2.65,2.65,0,0,1,1.53,1.69c.08.18.16.36.25.52a1.35,1.35,0,0,0,.19.42,1.28,1.28,0,0,0,.28.39,2.78,2.78,0,0,0,.46.43l.29-.37a9.55,9.55,0,0,1,.42,1.22c.1.43.07.78-.16.74.09.06.44.2.23.47H116a4.68,4.68,0,0,1,.29,1.66c-.33.55-.63.29-.88.18a.76.76,0,0,0-.76,0,2.07,2.07,0,0,1-.36.69c-.19.23-.42.46-.31.57a1.1,1.1,0,0,1,.77.46,2.36,2.36,0,0,1-.64.19,5.45,5.45,0,0,0-.15,1.38.9.9,0,0,0,.51.63,2.36,2.36,0,0,0,.66.24,5.51,5.51,0,0,0,1,0,8.27,8.27,0,0,0,.81-.75,5.32,5.32,0,0,0,.63-.94,4.92,4.92,0,0,0,.77-.25c-.18.25-.37.5-.57.73a7.89,7.89,0,0,1-.76.65,1.75,1.75,0,0,0,1.16-.86,2.3,2.3,0,0,0,.3-1.09,1.1,1.1,0,0,0,.81-.54,6,6,0,0,0-.44-1.9c.39-.16.65.87,1-.26-.17-.42-.4-.23-.59-.13s-.37.13-.47-.47c.42-.72.8-.57.33-1.42.23-.16.4,0,.55.37-.31-.8-.57-2.17-1.19-2.39a2.54,2.54,0,0,0-.61-1.63c-.35-.52-.69-.93-.34-1.22a7.8,7.8,0,0,1-2-.75c.8-.07.32-.45-.24-.89s-1.2-.87-.76-1.28c-1.24.35-2.63-1.11-3.84-1.39.1,0,.3-.07.35,0a2,2,0,0,1-.55-1.18c-.63.53-1.38,0-2.06-.2.12-.52.4-.52.68-.51a.88.88,0,0,0,.82-.24c-.26.19-.53.07-.79-.08s-.48-.35-.67-.12c.22-.72,0-.56.54-1.06-1,.22-.33-.47-1.06-.85.22-1.09.84-.46.27-1.5C108.33,45.59,108.93,46.55,108.92,46.53ZM83.52,37h0l.53.23Zm-2.21-1c.27.13.62.27,1,.43,0,.22-.17.37-.38.26C82.07,36.58,81.6,36.25,81.31,36ZM84,41.65c-.37-.1-.42-.26-.41-.38.15.07.34.14.6.23l.07,0A.79.79,0,0,1,84,41.65Z"/><path class="cls-3" d="M85,41.29a.44.44,0,0,1,.15,0A1.64,1.64,0,0,0,85,41.1l-.2.1Z"/><path class="cls-3" d="M115.19,113.11l0,0a1,1,0,0,1,.08-.11S115.21,113.09,115.19,113.11Z"/><polygon class="cls-3" points="51.56 45.08 51.6 45.22 51.77 45.06 51.56 45.08"/><path class="cls-3" d="M116.92,100.36a.42.42,0,0,0,.14-.17S117,100.27,116.92,100.36Z"/><path class="cls-3" d="M117,94.86l.18-.78A4.51,4.51,0,0,0,117,94.86Z"/><path class="cls-3" d="M117.15,90.63a1.11,1.11,0,0,0-.24-.08h0Z"/><path class="cls-3" d="M103.9,100.12a.58.58,0,0,0,0-.14C103.72,99.65,103.79,99.88,103.9,100.12Z"/><path class="cls-3" d="M104.31,119.92a4.18,4.18,0,0,1-.31-.64C104,119.65,104,119.94,104.31,119.92Z"/><path class="cls-3" d="M92.4,88.79h0Z"/><path class="cls-3" d="M104,118.32a1.55,1.55,0,0,0,0,1A2.58,2.58,0,0,0,104,118.32Z"/><path class="cls-3" d="M117.09,72.32l0-.2-.1,0Z"/><path class="cls-3" d="M117,72.1l-.07-.23C116.94,72,117,72.07,117,72.1Z"/><path class="cls-3" d="M116.79,71.4l.15.47C116.94,71.71,117,71.5,116.79,71.4Z"/><path class="cls-3" d="M116.92,77.92l.21.06A.35.35,0,0,0,116.92,77.92Z"/><path class="cls-3" d="M117,79.62c0-.41.42-1,.29-1.59l-.17,0C117.44,78.24,116.66,79.24,117,79.62Z"/><path class="cls-3" d="M114.59,86.75l.14-1.42c-.22.25-.51.58-.57-.06C113.53,87.07,114.64,84.89,114.59,86.75Z"/><path class="cls-3" d="M114.34,91.17c-.11-.76-.31,0-.44,0C114.11,91.63,114.16,91.75,114.34,91.17Z"/><path class="cls-3" d="M113.66,122.23l-.43-.31C113.08,122.35,113.4,122,113.66,122.23Z"/><path class="cls-3" d="M109.93,127.4a5.19,5.19,0,0,0,.79.25,5.2,5.2,0,0,0,.26-.53A5.06,5.06,0,0,1,109.93,127.4Z"/><path class="cls-3" d="M108.49,123.12l.13,0a1.63,1.63,0,0,1-.45-.29A2.33,2.33,0,0,0,108.49,123.12Z"/><path class="cls-3" d="M85.53,85.05l.33.58C86.22,85.43,86.13,84.71,85.53,85.05Z"/><path class="cls-3" d="M66.74,77.74a1.29,1.29,0,0,0-1.57-.24C65.81,77.51,66.41,77.77,66.74,77.74Z"/><path class="cls-3" d="M47,51.5l-.29.34c.2-.14.41-.29.64-.42Z"/><path class="cls-3" d="M100.14,100.23c0-.17-.2-.53-.22-.45l.22.64Z"/><path class="cls-3" d="M99.41,99.17a7.84,7.84,0,0,0,.46,1.44c-.17-.62-.07-.38-.29-1.11,0-.09.15.18.23.41,0-.17.12.11,0-.29s-.32-.46-.23,0A3.12,3.12,0,0,1,99.41,99.17Z"/><path class="cls-3" d="M95.34,99.06l0,.08A.16.16,0,0,0,95.34,99.06Z"/><path class="cls-3" d="M93,98.77s0-.08,0-.14A.29.29,0,0,0,93,98.77Z"/><path class="cls-3" d="M92.64,98l0,0C92.65,98,92.65,98,92.64,98Z"/><path class="cls-3" d="M95.34,99.06l-.09-.2C95.27,99.07,95.3,99,95.34,99.06Z"/><path class="cls-3" d="M99.4,100.88s0-.1,0-.18,0,.06,0,.08Z"/><path class="cls-3" d="M96.28,98.39h0c0-.07,0-.17,0-.27Z"/><path class="cls-3" d="M97,98.13s.1.53.14.78a1.46,1.46,0,0,1,0-.39Z"/><path class="cls-3" d="M98.48,98.75v0Z"/><path class="cls-3" d="M95.72,98.35c0-.08,0-.15,0-.2A1.18,1.18,0,0,0,95.72,98.35Z"/><path class="cls-3" d="M74.25,89.87l.09,0Q74.25,89.85,74.25,89.87Z"/><polygon class="cls-3" points="76.53 87.94 76.56 87.95 76.87 87.85 76.53 87.94"/><path class="cls-3" d="M92,97.22h0C92.06,97.16,92,97.17,92,97.22Z"/><path class="cls-3" d="M86,95.75c-.18.48-.42.52-.58,1.07A6.52,6.52,0,0,0,86,95.75Z"/><path class="cls-3" d="M99.35,100.81s0,0,0,0S99.35,100.84,99.35,100.81Z"/><path class="cls-3" d="M85.42,96.82h0v0Z"/><path class="cls-3" d="M90.44,97.3c0,.1,0,.18,0,.25S90.43,97.42,90.44,97.3Z"/><path class="cls-3" d="M91.48,98.32l0-.08C91.47,98.29,91.48,98.31,91.48,98.32Z"/><path class="cls-3" d="M89.65,98s0-.12,0,0V98C89.63,97.9,89.65,97.87,89.65,98Z"/><path class="cls-3" d="M89,97.77l0,.12,0,0Z"/><path class="cls-3" d="M75.58,92.09c.13-.1.28-.19.43-.29C75.66,92,75.48,92,75.58,92.09Z"/><path class="cls-3" d="M99.29,100.58a.72.72,0,0,1,.06.23s0,0,0,0A1,1,0,0,0,99.29,100.58Z"/><path class="cls-3" d="M88.51,102.31l-.11-.11A.19.19,0,0,0,88.51,102.31Z"/><path class="cls-3" d="M79.32,96.69l-.07,0S79.27,96.73,79.32,96.69Z"/><path class="cls-3" d="M88,102.16a1.65,1.65,0,0,0,0-.4s0,.08-.05.14Z"/><path class="cls-3" d="M76,91.8h0Z"/><path class="cls-3" d="M74.41,91.64c0,.13.68-.27,1.08-.44.26,0-.46.31-.78.53.23,0,.87-.25.87-.18a1.74,1.74,0,0,1-.28.16c.57-.2.16.25.87,0l-.15.1c.32-.2.65-.39.89-.52,0,0,.45-.14,0,.12,0,0-.17,0-.31.12l.21-.06c-.59.39-.25.05-.7.31.25,0,.81-.19.68,0-.59.36-.29-.06-.77.35l.17-.25c-.9.63,0-.11-.94.55-.08.26.39,0,.32.27.35-.17.48-.31.83-.47.72-.16-1.37,1.07-.48.75.41-.21,1.16-.66.84-.31l-.68.39c0,.19,1-.53.65-.09-.27.14-.29,0-.35.1-.45.43.41-.18.46-.1l-.56.4c.2.09.72,0,.93.07a2.24,2.24,0,0,0-.51.36c.42,0,.24.51.09,1l.53-.29a1,1,0,0,1-.29.25c-.12.21.3-.23.51-.34s-.22.27-.38.35c.5-.18,1.14-.32.77.23L77.8,95c-.09.26,1-.68.69-.22l-.1,0c0,.4.6.27.12,1,.65-.57-.06.47.81-.35-.3.53-.49.65-.59,1.1,0,.09.59-.46.73-.5l-.43.45.53-.39-.47.58.16-.07a1.65,1.65,0,0,1,.28-.37c.27-.13-.1.51-.31.75l.56-.19a1.72,1.72,0,0,1-.4.3c.53-.37-.42.51.07.17a3.89,3.89,0,0,1,.34-.36c-.2.33-.08.43.12.38l-.3.31c.09.22.48.12.65.27a2.41,2.41,0,0,1,.65-.79l-.4.53c.29-.29.11-.23.49-.57a2.54,2.54,0,0,1-.6.76l.22-.11c-.11.16-.2.22-.36.41.29-.29-.26.64.23.12l-.12.16c.19.15.41,0,.58.13.34-.46.32-.31.63-.65,0,.22-.12.67,0,.73.25-.17.3-.38.53-.63-.28.43-.12.48-.4.74.21,0,.27.06.71-.16a1.93,1.93,0,0,1,.23-.43c.08,0,0,.24-.18.45l0,0c.63-.52-.26,1.65.5.84l0,0,.49-.38c0,.13-.25.31-.34.62.65-.63.3.3.76-.11-.58,1.43.55.17.3,1.15l.15-.33c.2-.29,0,.21,0,.31a3,3,0,0,1,.2-.48c.61-.17.68.87,1,1.38.14.16.79-1.69.68-.81l-.3.6c.61-.6.69.31,1.25-.24-.07.14-.13.33-.16.32-.09.48.26.11.38-.27,0,.06-.1.34-.13.55s.37-.54.26-.07a.43.43,0,0,1-.09.18c.12-.21.2.13.32-.42,0,.29.31-.17.32.18.24-.58.14.36.39-.49-.25.88,0,.79.22.38-.09.26,0,.29-.12.66.1,0,.22-.14.32-.6-.08,1.11.54-.79.33.61a4.27,4.27,0,0,1,1-.86c-.17.9-.28,0-.46,1,.32-.32.59-1.07.78-.8,0,.13-.1.38-.15.53.3-.31.46.15.74-.32a.75.75,0,0,1-.08.24c.05,0,.08.15.13-.26l-.06.1a9.44,9.44,0,0,1,.37-1.54c-.21,1.17.17.32-.12,1.8a2.32,2.32,0,0,0,.12-.55,1.21,1.21,0,0,1-.05.56c.17-.21.17-.65.3-.63,0,.2-.06.28-.1.51.11-.38.22-.77.31-.58s0,.27,0,.27c.2,0,.41-1,.59-.61-.12.87,0,.3,0,1l.13-.21,0-.37c.1,0,.21-.54.29-.29l-.09.31.19-.14-.09-.29c.11-.38,0-1,.15-.74,0,.08.09,0,.13.46h0c.05-.24.11-.5.17-.31s0,.84,0,1c.06-.63.23-.17.3-.85a4.93,4.93,0,0,0,0,.64l0-.51a1.59,1.59,0,0,1,.05.56c.13.09-.05-1,.11-.55a1,1,0,0,1,0,.2c.17.21.31-.33.46-.07.07.76-.13.18-.06.83.22-.14.42-.91.63-.76l0-.08c0-1.08.19.51.26,0a2.74,2.74,0,0,0,0,.47c.16.16.28-.29.45-.64v.27c.11.24.24.12.35.24a2,2,0,0,0,0-.63c.49,1.52.4-.87.84.36,0,0,0,.25,0,.25l.17-.3a4.47,4.47,0,0,0-.18-.62c0-.28,0-.5,0-.51a2.52,2.52,0,0,0,.23,1c0-.14-.06-.29-.08-.44.26.8-.16-.93.09-.41l0,.25c0-.14,0-.47.08-.41.13.53,0,.26.08.7.08,0,0-1,.14-.53,0,.16-.06.17-.06.32.21.61.19.45.27.53h0l.21.25-.07-.16c-.21-1.4.15-.3.07-1.22a3.48,3.48,0,0,0,.24,1.09,1.94,1.94,0,0,1,.2.5c0-.49.22.36.13-.37.06.19.08,0,.19.49,0-.17-.11-.33-.16-.57,0-.67.54.69.47-.26.06-.42-.11-1.07-.08-1.43a2.14,2.14,0,0,1,.18.7c.17.25.22.18.22-.06a2.17,2.17,0,0,0,.2.5c0-.07-.19-.69,0-.44s.16.55.2.77c0-.2,0-.57,0-.76a2.78,2.78,0,0,1,.18.72,1.35,1.35,0,0,0-.05-.88l-.12-.17a1.91,1.91,0,0,1,.19.54c.07.42-.17-.15-.24-.33v-.14c-.45-1.07-.14.25-.28.22l-.23-.81.12.69A2.9,2.9,0,0,1,98.7,99c-.21-.37,0,.3-.18-.12a.3.3,0,0,1,0-.14V99c0-.17-.2-.56-.12-.46-.26-.42,0,.67-.24.08v-.06c-.09.33.16.6.24,1.34l-.52-1.43.16.6s-.07,0-.13-.29a5.65,5.65,0,0,0,.15.65c-.23-.51-.17.32-.45-.63.09.46.18.34.17.67-.29-1-.07.2-.27-.25s0-.27-.16-.73c.18.91-.19-.17-.21,0,.16.72-.08.33-.14.59,0-.24-.29-.35-.44-.59l0-.12c.12.73,0,.62-.06.78a4.87,4.87,0,0,1-.09-.82l-.07,0a1.12,1.12,0,0,1,0,.46l-.08-.55c-.08,0-.08.69-.26.34a7.75,7.75,0,0,1,.23,1.78,4.89,4.89,0,0,1-.1-.87s0,.23,0,.12l0-.48c-.08-.2,0,.4,0,.36-.06-.4-.08-.28-.12-.6,0,0,.07.16.06,0a1.67,1.67,0,0,1-.21-.6,2.32,2.32,0,0,1,0,.59c-.1,0-.1-.47-.18-.67,0,.28-.08,0,0,.59a1.79,1.79,0,0,1-.1-.44c0,.27-.22.1-.09.73v.07h0c-.11.6-.38-.31-.52,0l0-.2c-.08.24-.2.16-.25.6a1.74,1.74,0,0,1-.09-.6c-.07.15-.07.39-.19.06.06-.35,0-.31.07-.26-.11-.17-.14-.49-.22,0,0-.51-.09-.64-.13-.49l.07.37c0,.07-.09,0-.14,0V98c-.18-.82-.33,1.39-.48,0,0,.47.1.33,0,.88a8.92,8.92,0,0,1-.19-1.06c-.1-.38-.13,1-.25.73a3.68,3.68,0,0,1-.11,1.1,3,3,0,0,1,0-1.2s0,.06,0,.14a.94.94,0,0,0,0-.45l0,.24c0-.25-.16-.22-.11-.62a.77.77,0,0,0,0,.52c-.09-.35-.17,0-.27-.25a1.6,1.6,0,0,1,0,.41c-.15-.32-.11.45-.24.54,0-.37.09-.87,0-.58a2.21,2.21,0,0,1,.09-.83c-.15.45-.17-.32-.21-.41l.07-.19c0,.11-.07.1-.1.1v.48a.44.44,0,0,1,0-.29c-.07.31-.06.8-.17,1.22,0-.25-.16.25-.11-.39.12.23.06-.64.18-.73,0,.07,0,.07-.07,0a.5.5,0,0,1,0-.16c-.06-.58-.14.71-.27.68.06-.36,0-.68,0-.61a2.72,2.72,0,0,1-.13.87c-.05-.29-.12.19-.17.16l0,.13c-.07.36-.11.3-.19.41,0-.28.09-.19.08-.31-.16.62-.06-.66-.21-.25,0-.25.1-.67.09-.84-.18.45,0-.51-.2-.15a2,2,0,0,1-.18.82l.23-.3-.23.67c.06,0,.17-.28.19-.19A1.86,1.86,0,0,0,91,99c.05-.73-.22.39-.23-.11l.21-1.18c0-.55-.33.55-.45.22l0,.22c-.12.46-.12,0-.21.22a6.89,6.89,0,0,0,.11-.79c-.06.29-.11,0-.3.73l0-.53c-.09-.24-.42,1.07-.52.91a6,6,0,0,1,.31-1s-.07-.1-.13.17c0-.25-.25.5-.2.12-.06.17-.17.57-.22.53l0-.19a2.9,2.9,0,0,0-.21.68c.18-1.25-.42,0-.24-1.1a.76.76,0,0,1-.38.18c0-.11.06-.19.06-.14,0-.39-.42,1.07-.43.63.13-.64.18-.31.21-.55.39-1.26-.22.12-.06-.64l0-.07c.08-.44-.32.42-.41.3a1.4,1.4,0,0,0,.07-.19,2,2,0,0,1-.7.89,4.43,4.43,0,0,0,.31-.74c-.08,0-.29.8-.44.89a7.78,7.78,0,0,1,.28-1.06h.1c.22-.69-.12,0-.12-.16l.12-.29c-.17,0-.47.78-.6.66l-.07.23c-.39.69.1-.44-.21.07l.29-.75a4.63,4.63,0,0,1-.66.73,10.17,10.17,0,0,1,.74-1s-.2,0-.38.33c0-.06.15-.23.12-.11-.31.55-.53.8-.63.74.66-1.4-.12-.47.34-1.6-.43.42-.23-.4-.46-.42-.5,1.11-.08,0-.65,1.1-.08.05-.09,0-.06,0l.21-.73c.14-.34.18-.22.3-.46,0-.14.21-.49.31-.81-.2.4-.34.54-.31.36l-.2.54c-.47.5.39-1-.07-.47l.24-.32c-.19.17-.25-.14-.83.67a2.05,2.05,0,0,1,.3-.49c-.08-.23-.93.66-.73.06l.18-.25c-.08,0-.36.44-.23.16a1.47,1.47,0,0,0,.17-.27c-.07.08-.37.39-.32.22l.23-.26c.06-.43-.71.53-1,.6a2.69,2.69,0,0,0,.59-1.2l.08-.1c-.1-.22-.73.36-1.11.5.5-.84-.09-.58.1-1.13a2.78,2.78,0,0,1-.54.58c.08-.17-.51.38,0-.23v0c.5-.63.28-.52.24-.59l-.72.79c.9-1.3-.77,0,.1-1-.22.16-.26.11-.48.27l.4-.41c0-.19,0-.29-.19-.3l.31-.27c0-.08-1.27,1.07-1.36,1l.6-.61c-.13-.1.33-.73-.35-.33a1.66,1.66,0,0,1,.32-.25c0-.07.26-.6-.61.19.58-.5,0-.18-.37,0l.44-.35a3.31,3.31,0,0,1-1,.57c0-.07.34-.31.25-.19.17-.25-.46.29-.3,0l.31-.2c0-.09-.17,0-.53.26s0-.22.4-.54c-.25.18-.62.39-.53.26a1.21,1.21,0,0,1,.3-.2c.22-.34-.65.21-.26-.2l.26-.22c0,.11.08.2,0,.22a8,8,0,0,1,1.06-.81c-.35.18-1.11.58-1,.36l.14-.12,0,0s0,0-.1,0,.1-.12.09-.15c.35-.26.14-.22.13-.26a5,5,0,0,0-.78.53.08.08,0,0,1,.09,0,.08.08,0,0,0,.06,0l0,0,.1.07c-.26.14-.48.25-.25,0l-.8.47c.62-.51.91-.85,1.31-1.13a2,2,0,0,0-1.31.34c-.14,0,.23-.2.37-.3a1.33,1.33,0,0,0,.24-.08c-.28.08-.22-.14-.88.23.23-.26.62-.3.44-.36l.21-.1c.92-.82-1.87.53-.67-.49l-.22.16c.46-.62-.94-.39-.08-1.16.16-.17-.28,0-.64.09l.56-.26-.69.17c-.53.05,1.31-.78.33-.6l-.38.16c0-.09-.3-.12.15-.27-.07,0-.41.13-.22,0l.3-.11-.58,0c.18-.19,1.21-.39,1.21-.57a4.52,4.52,0,0,0-1.15.19,1.18,1.18,0,0,1-.47.23h-.19a9.86,9.86,0,0,0-2.4.88l.59-.06-.42.19-.07-.1c-.38.2,0,.12.26.08a2.32,2.32,0,0,0-.46.21L75,89c-.34.14-.71.18-.87.34a9.93,9.93,0,0,1,1-.33c-.38.2-.72.3-.35.25a1.75,1.75,0,0,1-.48.14c.3,0,.18.12.66,0-.47.25.21.16-.63.48a2.47,2.47,0,0,1,.75-.11c-1,.29,0,.24-1,.65.92-.29.51.12,1,.05-.07,0-.22.07-.18,0s-.3.25-.44.37a8.75,8.75,0,0,1,1.43-.42,12,12,0,0,1-1.53.67c.58-.27.67-.11,1.13-.37a4.29,4.29,0,0,1-.75.48c.9-.42.19,0,.76-.22-.38.32-.82.44-.49.42A1.45,1.45,0,0,1,74.41,91.64Zm3,1.66h0l-.06,0Zm.13.19a.12.12,0,0,0,0-.1c.15-.12.32-.24.32-.21A1.78,1.78,0,0,0,77.53,93.49Zm3-2.67c.08,0,0,.05-.1.12h-.08l-.06,0Z"/><path class="cls-3" d="M79.85,91.2s0,0,0,0a.75.75,0,0,1-.09.09l.15-.09Z"/><path class="cls-3" d="M95.38,99.15h0a.45.45,0,0,1,0,.08Z"/><polygon class="cls-3" points="78.93 96.7 79.03 96.59 78.93 96.67 78.93 96.7"/><path class="cls-3" d="M96.85,100.91a.57.57,0,0,0,0,.14A.84.84,0,0,1,96.85,100.91Z"/><path class="cls-3" d="M97.41,100.92l.12.19A.9.9,0,0,0,97.41,100.92Z"/><path class="cls-3" d="M97.9,101.11c0-.1,0-.17-.05-.24h0Z"/><path class="cls-3" d="M91,102.09l0,0C90.91,102.22,91,102.18,91,102.09Z"/><path class="cls-3" d="M93.13,100.94c0,.1,0,.2-.08.27S93.12,101.26,93.13,100.94Z"/><path class="cls-3" d="M88.53,102.32h0Z"/><path class="cls-3" d="M93,101.19c0,.12.06.09.09,0S93,101.11,93,101.19Z"/><path class="cls-3" d="M99.79,100.8l0,0a.46.46,0,0,0,0-.09Z"/><path class="cls-3" d="M99.79,100.73v-.07S99.77,100.67,99.79,100.73Z"/><path class="cls-3" d="M99.78,100.51v.15S99.83,100.66,99.78,100.51Z"/><path class="cls-3" d="M99.15,100.74l.06.2Z"/><path class="cls-3" d="M99,100.85c.06,0,.24.39.26.24l-.05-.15C99.28,101.24,98.93,100.51,99,100.85Z"/><path class="cls-3" d="M97.64,98.61l.17.13c-.08-.21-.19-.48-.15-.55C97.34,97.6,97.82,98.65,97.64,98.61Z"/><path class="cls-3" d="M97.19,98.38c0-.11-.08-.31-.1-.43A.66.66,0,0,0,97.19,98.38Z"/><path class="cls-3" d="M94.47,98.78l0-.52C94.41,98.34,94.46,98.46,94.47,98.78Z"/><polygon class="cls-3" points="93.99 101.47 94.05 101.79 94.07 101.31 93.99 101.47"/><polygon class="cls-3" points="93.64 97.77 93.66 97.7 93.58 97.88 93.64 97.77"/><path class="cls-3" d="M89.26,97.33l-.16.61C89.17,97.84,89.37,97.16,89.26,97.33Z"/><path class="cls-3" d="M87.2,97.29c.1-.31.13-.52,0-.24C87.2,97.11,87.14,97.35,87.2,97.29Z"/><polygon class="cls-3" points="82.83 93.35 83 93.22 82.83 93.3 82.83 93.35"/><path class="cls-3" d="M53.94,68.51c.15.12.52.24.52.06l-.57-.36Z"/><path class="cls-3" d="M55.54,68.08a2.5,2.5,0,0,0-1.2-1c.48.49.22.41.81.94,0,.17-.31.15-.52,0,.13.12-.25.17.1.41.56,0,.68-.16.42-.6A1.07,1.07,0,0,1,55.54,68.08Z"/><path class="cls-3" d="M67.78,64l-.07-.1A.2.2,0,0,0,67.78,64Z"/><path class="cls-3" d="M71.84,64.59s.1,0,.13-.07A.17.17,0,0,0,71.84,64.59Z"/><path class="cls-3" d="M71.78,63.41a.64.64,0,0,0,0,.07S71.83,63.39,71.78,63.41Z"/><path class="cls-3" d="M67.78,64l.15.26C68,64.1,67.87,64.12,67.78,64Z"/><path class="cls-3" d="M55.44,65.38a.36.36,0,0,0,0,.22.57.57,0,0,1,0-.14Z"/><path class="cls-3" d="M64.26,64.37H64.2a2.13,2.13,0,0,0,0,.27Z"/><path class="cls-3" d="M61.73,65c.07,0-.1-.54-.16-.78,0,.23,0,.35,0,.41S61.66,64.89,61.73,65Z"/><path class="cls-3" d="M57.62,66.44v.11A.4.4,0,0,1,57.62,66.44Z"/><path class="cls-3" d="M66.14,64.45a1.44,1.44,0,0,0,0,.21A.74.74,0,0,0,66.14,64.45Z"/><path class="cls-3" d="M97.4,85.73l0-.1C97.36,85.69,97.36,85.73,97.4,85.73Z"/><polygon class="cls-3" points="93.45 82.84 93.51 82.82 93.61 82.51 93.45 82.84"/><path class="cls-3" d="M71.94,61.61h0C72,61.65,72,61.63,71.94,61.61Z"/><path class="cls-3" d="M89,55.59c-.47-.32,0-.75-.6-1.06C88.58,54.7,88.63,55.47,89,55.59Z"/><path class="cls-3" d="M55.56,65.36l.09-.11C55.59,65.29,55.56,65.32,55.56,65.36Z"/><path class="cls-3" d="M88.44,54.53h0l-.06,0Z"/><path class="cls-3" d="M73,58.53a1.08,1.08,0,0,0-.17-.19A1.15,1.15,0,0,0,73,58.53Z"/><path class="cls-3" d="M70.81,60.5l.1-.08C70.85,60.45,70.82,60.47,70.81,60.5Z"/><path class="cls-3" d="M74.31,57.2s.08.11.14,0l0-.06C74.4,57.24,74.38,57.28,74.31,57.2Z"/><path class="cls-3" d="M76.38,57.15s0-.08,0-.12l-.07,0Z"/><path class="cls-3" d="M104.91,79.78a2.16,2.16,0,0,1-.51-.16C104.77,79.8,104.65,80.26,104.91,79.78Z"/><path class="cls-3" d="M55.68,65.59c-.09-.11-.13-.17-.12-.23a.93.93,0,0,0-.05.1A.59.59,0,0,0,55.68,65.59Z"/><path class="cls-3" d="M73.64,52.75h.57A1.54,1.54,0,0,0,73.64,52.75Z"/><path class="cls-3" d="M102.74,60l.11,0S102.81,60,102.74,60Z"/><path class="cls-3" d="M75.81,52.61a1,1,0,0,0,.28.4.6.6,0,0,0,.07-.14Z"/><path class="cls-3" d="M104.39,79.62h0Z"/><path class="cls-3" d="M103.4,83c.35-.35-.37-.68-.6-1.06.21-.54.57.2,1,.31.1-.41-.24-1-.07-1.23.1.06.17,0,.26.2-.26-.66.65-.89.23-1.66l.18.05a4.27,4.27,0,0,1-.89-.5c.09-.17-.22-.54.23-.34-.07.08.09.2.19.32l-.07-.28c.7.21.06.36.5.64,0-.47-.25-1.14.05-1.32.64.26-.12.75.6.67a3.11,3.11,0,0,1-.47.29c1.14.23-.22.22,1,.51.52-.5,0-.84.53-1.34-.28-.3-.54-.2-.82-.48-.3-1.08,1.88,0,1.27-1-.38-.33-1.2-.64-.63-1l.71.37c.24-.62-1-.62-.33-1.15.29.18.15.55.26.48.71-.3-.37-.41-.31-.72l.69.06a13.13,13.13,0,0,0-.51-2.26c.21,0,.42.16.63,0a4.93,4.93,0,0,1,.24-2.92l-.64-.24c0-.07.24-.19.37-.12.16-.39-.38,0-.64-.07-.07-.18.29-.32.49-.23-.62-.51-1.44-1.37-1-2.14l.2.06c.09-.55-1.32-.12-.94-.71l.12.05c-.09-1.07-1.06-1.85-.58-2.93-.83.25-.13-1.07-1.21-.57.26-.79.51-.74.46-1.64,0-.22-.8.09-1-.07l.53-.32-.74,0,.54-.55-.27-.13c0,.1-.13.32-.29.4-.44-.17-.13-1,.14-1.2l-.94-.47c.22-.12.38,0,.58,0-.8-.05.5-.43-.23-.48-.09.12-.33.18-.44.24a.83.83,0,0,0-.42-1l.39-.19c-.28-.61-1-1-1.38-1.63,0,.33-.65.71-.84.57l.49-.45c-.41.13-.07.33-.64.39-.1-.27.5-.59.77-.58l-.38-.14a3.26,3.26,0,0,1,.5-.26c-.41.13.2-.85-.5-.61l.15-.13a12.58,12.58,0,0,0-1.33-1.31c-.45.36-.53.07-1,.22-.2-.48-.31-1.24-.9-1.65-.56-.07-.41.3-.78.44.3-.44-.33-.79.19-.9a3.45,3.45,0,0,0-2.22-.48c0,.24.13.37,0,.52s-.33-.35-.24-.58l.06,0a1.19,1.19,0,0,1-1-.09c-.31-.13-.64-.32-1-.51-.68-.33-1.47-.55-1.82.1l0-.06a5.29,5.29,0,0,0-.78.79c-.44.05.13-.45-.28-.66a1.56,1.56,0,0,1-1.09.79,1.13,1.13,0,0,0-.91.62c-.65-.5-1.14-.17-1.53.24s-.74.91-1.36.81l.27.24c.08.4-.33,0-.49.05.2.19.38.09.42.32a5.5,5.5,0,0,1-.81.92l-.24.2-.12.1s-.11.08-.07,0h-.18a.63.63,0,0,1-.44-.55V54c0-.09.05,2.23-.12,1.1,0-.23.08-.47.1-.72,0,.21-.11.27-.17.29a.09.09,0,0,1-.09,0l-.2-.11a3.06,3.06,0,0,0-2-.57c.12-.12.2-.3.32-.26-.1-.56-1-.37-1.11,0-.19-.1,0-.36,0-.59s-.85.42-.89-.08c0-.08.11-.14.17-.16-.23.19-.87-.24-.78.35-.48-.33-1,.1-1.39-.24-.29.61-.9-.33-1,.58,0-.93-1-.69-1.26-.19.07-.29-.35-.24-.28-.64-.4.07-.73.36-.55.79-.48-.45-.81-.13-1,.17s-.44.51-.93,0a15.64,15.64,0,0,0-1.18,1.44,10,10,0,0,0-.94,1.51c-.34-.29-.18-.58,0-.82s.41-.47.08-.82a3.54,3.54,0,0,0-.36.81c-.06.27-.1.52-.14.76a2.58,2.58,0,0,1-.48,1.28c-.23.19-.29-.3-.38-.46a9.86,9.86,0,0,1-.42,1.5,2,2,0,0,0,0,1.4c-.09,0-.17-.11-.23-.21,0,.17-.17.4.24.41l-.09-.18c.61-.18,1.2.75,1.52.75-1.2-.29-.27.77-1.79.37a.57.57,0,0,0,.56.21c-.07.16-.23.24-.56.08.26.62.7.34.77.87-.2,0-.3-.06-.54-.09.44.23.84.4.81.87-.12,0-.26.1-.3,0a2,2,0,0,0,.81.85,1.26,1.26,0,0,1,.65.89c-.87.24-.09.4-.68.88.17.1.35.2.52.28l.15-.39c.28.37.9.25,1,.65l-.46,0,.74.43c-.07-.18-.13-.35-.18-.52.56,0,.56-.77.82-.31-.13,0,.29.18.28.68h0c.28-.11.53-.31.74,0,0,.26-.3.79-.29.95.2-.28.45-.22.71-.25s.53,0,.65-.38a1.35,1.35,0,0,0-.08.63c.07-.17.13-.34.18-.5a.57.57,0,0,1,.11.11l.24.31.47-1.81c0-.13.1-.2.31-.33-.28-.45-.64.72-.72,0,.06,0,.1-.06.23,0-.26-.59-1-.64-1.27-1.14.36-.69.51.17.78-.44a4.81,4.81,0,0,0-1.3-.41,2,2,0,0,1-1.17-.39l.08.14c-.58.9-.25-.76-.84-.43.12,0,.36-.5.28-.4-.43-.36-1.12-.2-2,0l.17-.24c-.24-.31-.76-.37-1.07-.52-.14.26-.32.19-.27.6a.88.88,0,0,0-1.4-.47c-.48.25-.89.47-1.37-.12.1,0,.24-.27.16-.26l-.76.32c.11.46.13.27.32.62-.07.29-.25.52-.42.54.28-.34-.09-.75-.27-1,0,.14,0,.31,0,.45-.5-.78.08.94-.51.48l0-.25c-.17.16-.27.51-.49.48-.2-.51.15-.28.07-.72-.3.1-.33,1.09-.71.66.07-.19.25-.23.34-.4-.45-.56-.45-.38-.69-.41h0L61,62l.18.12c.08,1.46-.68.47-.78,1.55.1-1-.12-.5-.33-1.08-.19-.1-.46-.19-.47-.37,0,.55-.57-.17-.58.63-.11-.18-.25.12-.43-.35-.23.31.23.26.32.5-.06.42-.4.39-.78.42s-.77.11-.77.72c-.25.7.06,1.23-.06,1.85-.34-.09-.39-.62-.39-.62-.41,0-.54.22-.57.58-.09-.16-.24-.21-.47-.29-.12.21.43.57,0,.62a3,3,0,0,1-.46-.69c-.06.34.09.81.06,1.14-.32-.13-.32-.44-.44-.67-.08.38-.25.91.16,1.27l.28-.06c0,.1-.43-.2-.46-.33-.2-.47.39-.23.56-.13v.24c.54.24.6.07.58-.22s-.13-.69,0-.81l.53.67c-.1-.24-.18-.49-.26-.75.22.09.6.37.57.59.48.1-.06-.38.43-.21a.15.15,0,0,1,.1.11v-.36c.09.16.44.4.25.42.61,0,.13-.93.66-.56V66c.3-.61-.34-.52-.39-1.41.39.34.76.69,1.14,1.07l-.3-.55c.07,0,.21,0,.32.18,0-.48-.18-.2-.27-.61.56.32.62-.71,1.15.16-.11-.47-.44-.2-.28-.63.56.91.28-.33.75,0,.14.54-.21.38.24.71-.21-.91.55,0,.69-.25-.23-.7.38-.45.69-.8,0,.22.82.23,1.2.42v.13c-.06-.76.34-.69.6-.85a1.35,1.35,0,0,1-.11.83l.24,0a.56.56,0,0,1,.26-.47l0,.56c.3-.07.63-.72,1-.33.05-.51-.36-1.45.16-1.78,0,.28,0,.76-.11.87,0,0,.15-.23.23-.11l-.2.47c.19.21.11-.39.28-.35,0,.4.11.29.07.61,0,0-.13-.17-.2,0a.8.8,0,0,1,.42.61c0-.22,0-.54.17-.57.33,0,.07.49.23.72.11-.26.27.05.36-.54.09,0,.07.29.08.46.21-.26.77.07.72-.59l0,0,0,0h0a.71.71,0,0,1,.89.14c.25.2.45.49.76.47l-.08.19a1.55,1.55,0,0,1,.57,0,.75.75,0,0,0,.57-.09c.09.06,0,.44-.13.62.28,0,.46-.19.56.3-.39.14-.09.28-.35.07.18.3,0,.62.61.39-.4.33-.23.64,0,.6l.08-.4a.52.52,0,0,1,.34.29l-.51.44c-.14.7.73.31,1.08.49l1.23-2.59c-.1,0-.22-.06-.25-.47-.16.46.18.34,0,.89a.9.9,0,0,1-.23-.58c0-.28,0-.53,0-.53,0-.37-.53.86-.69.49-.09.21-.35.82-.76.83-.2-.28.39-1,.6-1.06,0,0,0,.09,0,.16.11,0,.23-.06.32-.32l-.16.18c.08-.27-.12-.39.19-.64a.4.4,0,0,0-.32.4c0-.19,0-.29-.1-.35s-.17-.12-.14-.31c-.09.11-.3.31-.32.26,0-.55-.51.08-.76-.21.25-.34.82-.3.41-.48.15-.27.58-.26.79-.29-.56,0,.15-.56.18-.67l.23.07c-.13,0-.16-.09-.16-.16l-.46.18c.06-.09.07-.17.26-.2-.32,0-.78.23-1.23.11.23-.16-.33-.38.31-.48-.17.4.63-.09.78.18-.08,0-.1-.11,0-.2a.3.3,0,0,1,.17,0c.56-.34-.72-.08-.73-.46.36,0,.68-.07.62-.12,0,.12-.61,0-.87-.11.3-.22-.19-.29-.15-.42l-.14.14c-.36-.1-.3-.23-.36-.44.28,0,.15.2.29.15-.56-.33.7-.31.4-.64.27,0,.64.21.83.18-.37-.42.54,0,.29-.37-.45-.19-.37-.1-.68-.52l.09.56A5.75,5.75,0,0,1,71,59c-.07.15.11.41,0,.47-.32-.3-.19-.25-.6-.33.38,0,.34-.09.28-.27s-.16-.39.14-.36l1,.67c.31.05.23-.12.19-.35s-.08-.48.2-.5L72,58.23c-.28-.42.21-.22.23-.48a2.12,2.12,0,0,0,.54.59c-.16-.27.3-.12,0-.86a5,5,0,0,1,.42.37c.43.09,0-1.25.52-1.23,0,.45.24.68.07,1,.13,0,.25,0,.19-.25.12.23.24-.62.45-.25,0-.19,0-.6.16-.59a.89.89,0,0,1,0,.19c0-.19.23-.31,0-.72.31.6.61.55.93.51s.65-.09.79.48a2.77,2.77,0,0,1,1.05-.12c0,.12,0,.2-.09.15.31.44.53-1.05.91-.52.06.69-.35.26-.27.54-.32,1.27.6,0,.64.84l-.09,0c0,.48.71-.24,1,0a.54.54,0,0,0-.09.18,1.32,1.32,0,0,1,.85-.38,6,6,0,0,1,.88.14c-.28.44-.3.13-.36.73.25.07.21-.88.62-.8a7.91,7.91,0,0,1,.3,1.59l-.45-.31c.11,1,.6.44.81.76l0,.37c.61.38.66-.28,1-.22.06,0,.12-.23.22-.31l-.11-.26c0-1.37.34.28.41-.8.12.29.24.57.37.85.15-.51.32-1.73.52-2.18a6,6,0,0,1-.21,2.32c.21-.27.69-1,.57-1.49,0,.16,0,.47-.18.46A2.39,2.39,0,0,1,85,56.77c1.12,1.07,1-.51,2.08.17.11-.88,1.14-.68,1.66-1.12-.88-.86.16-.14-.54-1.16.11-.18.19-.2.24-.13a9.09,9.09,0,0,1,.83.39c.26.26,0,.32.13.56.34-.08.37.38.69.6-.23-.38-.17-.61.06-.53l-.47-.42c.08-.4.29-.2.47,0s.34.44.43.07v.41c.06-.15.23-.2.38-.32a1.21,1.21,0,0,0,.34-.83,1,1,0,0,1,0,.57c.22,0,.43-.19.71-.39s.57-.25.64.13l-.14.27c.1-.06.35-.48.34-.16-.06.11-.16.26-.13.29s.44-.39.46-.16l-.25.24c.13.53,1.06-.3,1.62-.06a1.5,1.5,0,0,0-.47,1.43l-.1.07c.36.58,1.36.53,2.12,1-.49,1,.66,1.63.67,2.59a.82.82,0,0,1,.73-.31c0,.26.81.08.11.51l0-.06c-.58.57-.2.76,0,1l.92-.55c-.87,1.49,1.58,1.43.6,2.51.33,0,.43.22.75.25l-.5.27a2.45,2.45,0,0,0,.57,1.24l-.42.07c.13.32,1.68-.36,1.85-.07l-.73.46c.29.55-.18,1.37.75,1.63-.12,0-.36.1-.42,0,.07.27-.19,1.17.89.7-.73.25.1.59.52.82l-.56.1c.77.06,1,0,1.25.36,0,.1-.43.18-.31,0-.23.36.59.11.36.54l-.38-.06c0,.31.2.24.64.34.26.16,0,.62-.54.72.31,0,.74.12.61.32a.5.5,0,0,1-.37,0c-.32.53.72.72.18,1.1a1,1,0,0,0-.34.07c0-.4,0-.72.06-.69-.51,0-.6.35-1.32.16.4.19,1.27.6,1,.92l-.19,0,0,0c-.06.07,0,.12.07.18-.09.08-.16.14-.17.22-.44,0-.25.29-.28.43.57,0,.44.24.94.11,0,0-.06,0-.08-.14s0,0,0-.07l0,0c0-.1,0-.23,0-.38.28.13.51.29.19.43.36.12.72.26.89.33a9,9,0,0,1-1.81.39c.21.5,0,1,.84,1.71.08.18-.34,0-.52,0s0-.2-.15-.29c.15.35-.18.79.45,1.16-.47.17-.53-.47-.64,0l-.18-.16c-.72.15-.47.66-.33,1.24s.17,1.18-.74,1.12a.45.45,0,0,1,.28.07c-.65.25-.94.8-1.35,1.28a1.54,1.54,0,0,1-1.67.69c-.37,0-.19.4-.24.81l-.31-.54q0,.39-.06.78c-.15.36-.49,0-.78-.22s-.51-.44-.74.05l.13.4c-.22-.06-.7.31-.67-.17,0,.07-.07.42-.15.2V82c-.17.17-.36.34-.57.52-.38-.27.2-1.24-.29-1.41a2.55,2.55,0,0,0-.79,1c.09,0,.18.25.11.56l-.27.11c-.3.9-.88,1.75-.27,2.57.23-.15.44-.29.65-.45l.09.49-.46-.07c.17.48.42.14.64-.08a.72.72,0,0,0,.16.52,9.79,9.79,0,0,0,.62-.86c0,.37-.29.72.07.94.27-.4-.19-.84.21-1.09.24.43.18.81.47.42a.48.48,0,0,1-.13.51c.27-.31.74-.18.82-.69.34.52.84-.27,1,.6,0-.23.31-.8.52-.89-.06.57.16.53.44.48s.57-.16.72.4a.92.92,0,0,1,.51-.9,1.53,1.53,0,0,0,.69-.75c0,.09,0,.25,0,.23.32-.09.56.12.83.15-.39-.69-.1-1.12-.19-1.66.76.4.37.88.9,1.41-.39-.51.17-.91-.28-1.25.52.18.33,0,.87.42-.61-.79.1-.32-.13-.93.64.08.74.61.85.06C103.44,82.45,103.4,83,103.4,83Zm2.77-10.43h0c0,.09,0,.17,0,.22A1.78,1.78,0,0,0,106.17,72.58Zm0-.83a1.4,1.4,0,0,0,0,.36c-.19,0-.4,0-.39-.07S106,71.88,106.13,71.75Zm-3.95,1.48c-.08-.1,0-.12.15-.12a.54.54,0,0,0,.06.16l.07,0Z"/><path class="cls-3" d="M102.91,73.47s0,0,0,0l.13,0-.18,0Z"/><path class="cls-3" d="M67.7,63.93h0s0,0,0-.08S67.7,63.9,67.7,63.93Z"/><polygon class="cls-3" points="103.44 60.65 103.32 60.73 103.47 60.72 103.44 60.65"/><path class="cls-3" d="M63.57,61.83a.46.46,0,0,0-.08-.13A.51.51,0,0,0,63.57,61.83Z"/><path class="cls-3" d="M61.6,62.12,61.27,62A1.23,1.23,0,0,0,61.6,62.12Z"/><path class="cls-3" d="M60,62.37a1.63,1.63,0,0,0,.07.23h0Z"/><path class="cls-3" d="M67,60.09A.24.24,0,0,0,67,60C66.92,59.83,66.94,60,67,60.09Z"/><path class="cls-3" d="M71.33,66.81a1.3,1.3,0,0,1-.37.11C71.08,67,71.19,67.1,71.33,66.81Z"/><polygon class="cls-3" points="73.58 52.75 73.58 52.76 73.64 52.75 73.58 52.75"/><path class="cls-3" d="M70.62,66.71a.31.31,0,0,0,.34.21C70.87,66.82,70.78,66.7,70.62,66.71Z"/><path class="cls-3" d="M54.51,66.54l-.07,0a.22.22,0,0,1,.07.06Z"/><path class="cls-3" d="M54.51,66.65v.11S54.56,66.69,54.51,66.65Z"/><path class="cls-3" d="M54.54,67l0-.22S54.42,66.87,54.54,67Z"/><path class="cls-3" d="M56.08,65,56,64.85A.69.69,0,0,0,56.08,65Z"/><path class="cls-3" d="M56.5,64.5c-.15.06-.58,0-.65.22l.1.13C55.81,64.55,56.62,64.85,56.5,64.5Z"/><path class="cls-3" d="M59.94,65.18l-.45.09c.18.14.41.35.28.49C60.54,66.06,59.42,65.4,59.94,65.18Z"/><path class="cls-3" d="M61.26,64.91c-.17.18.12.29.15.41C61.46,65.08,61.48,65,61.26,64.91Z"/><path class="cls-3" d="M70.25,65.42l-.28.44C70.14,65.87,70.07,65.69,70.25,65.42Z"/><path class="cls-3" d="M73.48,64.53l.07-.39-.4.28A1.83,1.83,0,0,1,73.48,64.53Z"/><polygon class="cls-3" points="73.27 64.08 73.27 64.07 71.5 67.82 71.41 67.83 71.48 67.84 73.27 64.05 73.17 64.17 73.27 64.08"/><path class="cls-3" d="M76,57.61V57C75.84,57.08,75.79,57.8,76,57.61Z"/><path class="cls-3" d="M83.32,60.29c.14.35.42.32.44-.24C83.59,60.21,83.37,60.08,83.32,60.29Z"/><polygon class="cls-3" points="98.03 61.63 97.77 61.63 98.07 61.76 98.03 61.63"/><g class="cls-4"><image width="1341" height="4904" transform="translate(-719.22 114.46)" xlink:href="../../../../../../../Downloads/screencapture-aurora-db30bf-webflow-io-2023-09-18-12_40_29.png"/></g></svg>