<svg id="Capa_1" data-name="Capa 1" xmlns="http://www.w3.org/2000/svg" viewBox="0 0 224.75 58.7"><defs><style>.cls-1{fill:#536472;}</style></defs><path class="cls-1" d="M80.82,21.16h3.62a4.87,4.87,0,0,1,5.07,4.66v1.55A4.87,4.87,0,0,1,84.44,32H82.27v6.43a1.4,1.4,0,0,1-1.45,1.33,1.38,1.38,0,0,1-1.44-1.33v-16A1.39,1.39,0,0,1,80.82,21.16Zm3.62,2.66H82.27v5.54h2.17a2.07,2.07,0,0,0,2.17-2V25.82A2.08,2.08,0,0,0,84.44,23.82Z"/><path class="cls-1" d="M99.93,35.15a2.06,2.06,0,0,0-.63-1.66L94.47,29a4.33,4.33,0,0,1-1.41-3.6,4.59,4.59,0,0,1,2-3.35,5.47,5.47,0,0,1,4.07-.86,5.07,5.07,0,0,1,3.37,2.24,1.3,1.3,0,0,1-.54,1.83,1.5,1.5,0,0,1-2-.5,2.25,2.25,0,0,0-3.2-.58A1.81,1.81,0,0,0,96,25.57a1.79,1.79,0,0,0,.6,1.52l4.8,4.54a4.59,4.59,0,0,1,1.47,3.71,4.75,4.75,0,0,1-2,3.47,5.69,5.69,0,0,1-4.19.88,5.16,5.16,0,0,1-3.46-2.3,1.24,1.24,0,0,1,.51-1.82,1.56,1.56,0,0,1,2,.49,2.32,2.32,0,0,0,1.54,1A2.49,2.49,0,0,0,99,36.67,2,2,0,0,0,99.93,35.15Z"/><path class="cls-1" d="M107.64,38.45V22.38a1.41,1.41,0,0,1,1.45-1.33,1.39,1.39,0,0,1,1.44,1.33V38.45a1.38,1.38,0,0,1-1.44,1.33A1.4,1.4,0,0,1,107.64,38.45Z"/><path class="cls-1" d="M116.15,35.12V25.71a4.72,4.72,0,0,1,3.74-4.49,5.24,5.24,0,0,1,5.7,2.16,1.27,1.27,0,0,1-.51,1.83,1.55,1.55,0,0,1-2-.5,2.24,2.24,0,0,0-2.45-.92,2,2,0,0,0-1.59,1.92v9.41a2,2,0,0,0,1.59,1.94,2.3,2.3,0,0,0,2.45-.94,1.55,1.55,0,0,1,2-.5,1.27,1.27,0,0,1,.51,1.83,5.24,5.24,0,0,1-5.7,2.16A4.72,4.72,0,0,1,116.15,35.12Z"/><path class="cls-1" d="M129.93,35.12V25.71a5.08,5.08,0,0,1,10.13,0v9.41a5.08,5.08,0,0,1-10.13,0Zm2.89-9.41v9.41a2.18,2.18,0,0,0,4.34,0V25.71a2.18,2.18,0,0,0-4.34,0Z"/><path class="cls-1" d="M145,38.45V22.38a1.36,1.36,0,0,1,1.11-1.3,1.46,1.46,0,0,1,1.63.75s2.14,4.13,3.53,6.84l3.5-6.84a1.47,1.47,0,0,1,1.62-.75,1.39,1.39,0,0,1,1.15,1.3V38.45a1.4,1.4,0,0,1-1.45,1.33,1.38,1.38,0,0,1-1.44-1.33V28.34c-1,2-2.08,4-2.08,4a1.5,1.5,0,0,1-2.63,0l-2-4V38.45a1.39,1.39,0,0,1-1.44,1.33A1.38,1.38,0,0,1,145,38.45Z"/><path class="cls-1" d="M164.64,21.16h6a1.4,1.4,0,0,1,1.45,1.33,1.38,1.38,0,0,1-1.45,1.33h-4.58v5h4a1.39,1.39,0,0,1,1.44,1.33,1.37,1.37,0,0,1-1.44,1.33h-4V37h4.58a1.33,1.33,0,1,1,0,2.65h-6a1.4,1.4,0,0,1-1.45-1.33V22.49A1.42,1.42,0,0,1,164.64,21.16Z"/><path class="cls-1" d="M184.88,21.16a1.39,1.39,0,0,1,1.45,1.33,1.37,1.37,0,0,1-1.45,1.33h-2.47V38.45A1.38,1.38,0,0,1,181,39.78a1.39,1.39,0,0,1-1.44-1.33V23.82H177a1.39,1.39,0,0,1-1.44-1.33A1.41,1.41,0,0,1,177,21.16Z"/><path class="cls-1" d="M197.5,31.49,200.12,38a1.28,1.28,0,0,1-.84,1.71,1.5,1.5,0,0,1-1.87-.77L194.6,32H193v6.43a1.38,1.38,0,0,1-1.45,1.33,1.4,1.4,0,0,1-1.45-1.33v-16a1.42,1.42,0,0,1,1.45-1.33h3.62a4.86,4.86,0,0,1,5.06,4.66v1.55A4.57,4.57,0,0,1,197.5,31.49ZM193,29.36h2.17a2.08,2.08,0,0,0,2.17-2V25.82a2.09,2.09,0,0,0-2.17-2H193Z"/><path class="cls-1" d="M205.48,38.45V22.38a1.42,1.42,0,0,1,1.45-1.33,1.39,1.39,0,0,1,1.45,1.33V38.45a1.38,1.38,0,0,1-1.45,1.33A1.4,1.4,0,0,1,205.48,38.45Z"/><path class="cls-1" d="M213,37.86l4.19-7.72L213.26,23a1.31,1.31,0,0,1,.63-1.8,1.53,1.53,0,0,1,2,.61l2.93,5.37,2.92-5.37a1.5,1.5,0,0,1,1.93-.61,1.28,1.28,0,0,1,.66,1.8l-3.89,7.15,4.19,7.72a1.27,1.27,0,0,1-.66,1.78,1.53,1.53,0,0,1-1.93-.58l-3.22-6-3.23,6a1.55,1.55,0,0,1-2,.58A1.29,1.29,0,0,1,213,37.86Z"/><path class="cls-1" d="M27.47,13.35l-.74-6.3A3.74,3.74,0,0,0,22.81,3.8L4.46,5.07A3.85,3.85,0,0,0,1,8.84V27.11A2.82,2.82,0,0,0,4.41,30l4.95-.93a17.33,17.33,0,0,1,1.07-3.88C13.71,16.93,22.23,14.24,27.47,13.35Z"/><path class="cls-1" d="M32.05,12.94c1.16-.06,6.87-.08,10.32,4.12,3.13,3.81,1.38,4.55,3.8,8.39A5.47,5.47,0,0,0,48.06,27H58.4a3.26,3.26,0,0,0,3.29-3.59L59.93,3.59A4,4,0,0,0,56,0H31.42a3.06,3.06,0,0,0-3.11,3.57l1.3,9.49c1.35-.14,2.19-.14,2.19-.14Z"/><path class="cls-1" d="M65.42,55.13,64.15,32a3.8,3.8,0,0,0-4.07-3.47l-8.46.33c1.37.69,2.53,1.41,2.83,2.28a2.6,2.6,0,0,1-.35,2.28c-.49.85-1.23,1.59-1.53,2.21a1.37,1.37,0,0,0-.14.4c-.12,1.12,2.36,7.77,1.18,10.11a3.66,3.66,0,0,1-1,1.1c-2.18,1.77-6.81,3-8,3.28a1.23,1.23,0,0,0-.51.29A17.17,17.17,0,0,0,41,55.35c-.38.91-.73,1.86-1,2.77l22,.57A3.22,3.22,0,0,0,65.42,55.13Z"/><path class="cls-1" d="M18.7,48.38a24.79,24.79,0,0,1-4.37-3.5A17.65,17.65,0,0,1,9.16,30.69L3.52,31.9A4.65,4.65,0,0,0,0,36.25v17.2a3.81,3.81,0,0,0,3.6,3.76L18,57.52a12.63,12.63,0,0,0,.8-2.23C19.42,52.72,19.66,50.22,18.7,48.38Z"/></svg>