<svg id="Capa_1" data-name="Capa 1" xmlns="http://www.w3.org/2000/svg" viewBox="0 0 206.56 168.82"><defs><style>.cls-1{fill:#e4edf2;}.cls-2{fill:#ed6c6f;}</style></defs><path class="cls-1" d="M206.61,147.81a.23.23,0,0,0-.25-.35l-.17.5Z"/><path class="cls-1" d="M204.73,147c-.31.26-.66.7-.43,1.14.29-.49.38-.29.69-.87.28-.07.49.13.45.32.09-.13.43.09.56-.23a.91.91,0,0,0-1.28,0C204.62,147.2,204.71,147.07,204.73,147Z"/><path class="cls-1" d="M178,147.4l.17,0A.38.38,0,0,0,178,147.4Z"/><path class="cls-1" d="M161.43,147.88c.13,0,.18-.07.18-.12S161.4,147.83,161.43,147.88Z"/><path class="cls-1" d="M158.58,147.46l.17,0C158.68,147.44,158.62,147.42,158.58,147.46Z"/><path class="cls-1" d="M178,147.4l-.45-.13C177.52,147.43,177.77,147.38,178,147.4Z"/><path class="cls-1" d="M201.1,148.34a.51.51,0,0,0,.23-.15l-.22.07A.25.25,0,0,1,201.1,148.34Z"/><path class="cls-1" d="M185.26,146.67h.14a1,1,0,0,0,.1-.21Z"/><path class="cls-1" d="M190.86,146.34c-.13,0-.15.41-.19.6a.42.42,0,0,1,.26-.3A.79.79,0,0,0,190.86,146.34Z"/><path class="cls-1" d="M199.77,146.69l.15-.07A1,1,0,0,0,199.77,146.69Z"/><path class="cls-1" d="M181.25,146.76a.53.53,0,0,0-.05-.15A.25.25,0,0,0,181.25,146.76Z"/><path class="cls-1" d="M24.83,157v-.08S24.79,157,24.83,157Z"/><path class="cls-1" d="M18.25,155.18l.09,0c0-.08,0-.16,0-.24Z"/><path class="cls-1" d="M153.39,147.15h0C153.54,147.1,153.47,147.11,153.39,147.15Z"/><path class="cls-1" d="M105.94,149.6c.55.35-.85.52,0,.9C105.83,150.34,106.62,149.81,105.94,149.6Z"/><path class="cls-1" d="M201,148.29h-.23A.53.53,0,0,0,201,148.29Z"/><path class="cls-1" d="M105.91,150.5h0l.09,0Z"/><path class="cls-1" d="M141.49,147.94a.38.38,0,0,0,.13.18A.38.38,0,0,0,141.49,147.94Z"/><path class="cls-1" d="M150.39,148.14l-.22,0A.49.49,0,0,0,150.39,148.14Z"/><path class="cls-1" d="M136.9,148.74c-.12,0-.16-.08-.32,0l0,.05A.21.21,0,0,1,136.9,148.74Z"/><path class="cls-1" d="M132.11,149l.09.08.15,0Z"/><path class="cls-1" d="M39.4,156.12a1.24,1.24,0,0,1-.24-.37C39.25,156.05,38.55,156.19,39.4,156.12Z"/><path class="cls-1" d="M201.09,148.1a.24.24,0,0,1-.14.19l.16,0A.2.2,0,0,0,201.09,148.1Z"/><path class="cls-1" d="M136.86,152.07l-.77,0A3.86,3.86,0,0,0,136.86,152.07Z"/><path class="cls-1" d="M73.8,154.51l-.17.06A.2.2,0,0,0,73.8,154.51Z"/><path class="cls-1" d="M133.84,152.21a1.13,1.13,0,0,0-.45-.27.31.31,0,0,0-.08.11Z"/><path class="cls-1" d="M39.16,155.75Z"/><path class="cls-1" d="M34.18,157c.73,0,.32-.55.46-.88.86-.2.42.39.73.66.53-.17.92-.7,1.33-.69,0,.09.11.12,0,.23.56-.46,1.7-.09,2.34-.68a.37.37,0,0,1,.1.14A1.76,1.76,0,0,1,39,155c.33,0,.59-.38.73,0-.2,0-.21.15-.3.26l.33-.17c.33.51-.45.2-.44.59.66-.2,1.42-.67,1.93-.54.13.5-1.18.22-.48.64l-.8-.16c.64.78-.48,0,.11.8,1,.1,1.15-.31,2.19-.21.22-.29-.09-.41.13-.7,1.45-.58,1.21,1.22,2.26.5.27-.36.35-1,1.13-.7l-.23.59c1,0,.53-.85,1.6-.51-.17.23-.78.22-.62.28.7.43.46-.34,1-.37l.13.51c1.07-.13,2.23-.55,3.41-.7-.06.15-.26.32,0,.47a13.15,13.15,0,0,1,4.64.15l.54-.46c.12,0,.24.19.11.28.57.14,0-.28.28-.47s.43.24.23.38c1-.42,2.79-.93,3.85-.51l-.19.14c.82.14.87-.94,1.65-.57l-.14.09c1.77.11,3.7-.38,5.08.22.23-.64,1.76.21,1.83-.68,1,.39.75.56,2.18.79.38,0,.54-.58,1-.69l0,.46.61-.51.36.54.44-.14c-.18,0-.38-.19-.36-.33.67-.24,1.69.25,1.71.49l1.61-.47c0,.19-.3.27-.51.39.85-.51.18.48,1,0-.11-.09,0-.27.06-.37a3.14,3.14,0,0,0,2,.08l-.11.32c1.2,0,2.53-.26,3.88-.32a.38.38,0,0,1,0-.75l.18.48c.24-.32-.42-.17.09-.56.5,0,.36.54.08.71l.6-.2c0,.15-.09.23-.12.42.24-.32,1.08.44,1.42-.1l0,.14c1.35-.06,2-.25,3.06-.33,0-.42.44-.34.75-.7a12.51,12.51,0,0,0,2.7.31c.68-.24.18-.37.48-.63.07.38,1,.3.55.6a13.82,13.82,0,0,0,3-.52c-.16-.15-.35-.21-.26-.35.27-.07.62.14.59.32l-.07,0c1.64-.64,3.88.95,5.17.09l-.07,0,1.35-.47c.64,0-.36.3.11.52,1.45-.71,2.35,0,3.55-.5,1,1.09,3.34-.23,4.64.44l-.08-.26c.32-.28.4.13.65.18,0-.2-.37-.22-.17-.38,2.77-.44,5.77.13,8.64.25,1,0,.53-1.41,1.88-.83l-.36.51c2.09-.69,4.32-.18,6.36-.77-.12.12-.11.27-.32.27.46.34,1.62-.05,1.61-.35.32,0,.09.27.29.41.45.19,1.08-.51,1.33-.16,0,0-.12.12-.2.15.28-.19,1.33,0,1-.42.78.16,1.47-.25,2.1,0,.39-.48,1.34.16,1.44-.5,0,.68,1.38.48,1.86.14-.16.22.43.2.25.49.56,0,1.07-.18,1-.53,1.06.77,2-.74,2.67.27a41.29,41.29,0,0,1,4.65-1c0,.68-1.65.14-1.55.85,1.41-.35,2.2-1,3.61-.86.37.07-.19.3-.31.42,1.4-.34,2.74-.06,4-.49,0,.07-.13.14-.26.2.25,0,.59.07.54-.23l-.23.09c-.42-.43.94-1,1-1.21-.38.9,1.26.16.64,1.31.16-.07.36-.22.31-.43.25.05.33.17.09.41.89-.21.56-.52,1.36-.55,0,.15-.15.22-.23.39a1.83,1.83,0,0,1,1.48-.52c0,.09,0,.21-.16.21,1.17-.09,2-.86,3.26-.63-.35.66.44.19.54.74l.68-.19-.29-.26c.6,0,1.12-.45,1.65-.29l-.44.25,1.13-.16-.65-.18c.6-.32-.1-.71.71-.59-.16.07.61,0,.94.3h0a1.2,1.2,0,0,1,1.05-.27c.12.17-.07.62,0,.73.28-.48,1.41-.19,1.76-.7a.52.52,0,0,0-.07.47l.24-.39c.28.11.32.16.29.4.84,0-.3-.7.71-.44-.07,0,0,.09-.19.16,1,.11,1.92-.33,2.86-.18.29.55-.8.17-.47.63,1.32-.16,2.72-.8,4-.72l-.25,0c.15-.81,1,.34,1.61-.06-.15.07-.19.45-.15.36a10.65,10.65,0,0,0,3.12-.59l-.16.22a15.44,15.44,0,0,0,1.94.11c.16-.21.48-.2.27-.48,1.79,1.08,3.28-.78,4.86.12-.19,0-.43.2-.29.2l1.3-.25c-.12-.34-.18-.2-.47-.46a1.21,1.21,0,0,1,.85-.4c-.58.25,0,.55.29.73-.05-.1,0-.22,0-.33.71.59.08-.7,1-.33l0,.19c.34-.11.65-.37,1-.33.18.39-.36.2-.37.53.53,0,1-.8,1.51-.42-.22.12-.55.13-.76.25a1.22,1.22,0,0,0,1,.39h0l.91.17-.23-.12c.61-1.07,1.33-.25,2.19-1-.83.68-.12.38-.17.83.24.12.59.25.49.38.41-.39.72.25,1.29-.31,0,.15.45,0,.37.37.55-.14-.14-.25-.1-.44.82-.53,2,.52,3.2-.22,1-.33,1.2-.83,2.16-1.12.34.22-.24.55-.24.55a1.83,1.83,0,0,0,1.42-.06c-.09.13,0,.23.18.39.39-.05.24-.54.78-.35a2,2,0,0,1-.38.6c.47-.15.92-.45,1.4-.6.15.25-.27.4-.44.57.55-.13,1.41-.29,1.57-.7l-.36-.13c.2,0,.12.34,0,.42a.43.43,0,0,1-.72-.25l.35-.11c-.4-.84-1.39.2-2.09.18l.26-.64-.7.55c-.16-.15-.28-.49.07-.6-.52-.29-.44.24-.88-.09,0,0,0-.08,0-.1l-.48.2c.09-.13-.1-.43.2-.36-.9-.32-1.4.53-1.75.08l.07,0c-1.21.26-.1.46-1,1l-.66-1.1-.1.46c-.13,0-.38,0-.34-.22-.46.33.09.19-.17.5-.63-.39-1.66.27-1.83-.45-.21.36.59.24-.05.51-.22-.77-.74.17-1.31-.16.15-.42.69-.22.12-.56-.31.7-1.09-.1-1.55,0,0,.54-1,.27-1.78.49,0-.19-1.49-.23-2.23-.4l0-.09c-.12.56-.87.49-1.42.63a.61.61,0,0,1,.39-.63l-.51,0a.84.84,0,0,1-.6.36l.11-.42c-.69,0-1.36.54-2.25.31,0,.39.75,1-.17,1.33-.05-.2-.1-.55.14-.65-.08,0-.28.19-.44.1l.36-.36c-.41-.14-.2.3-.52.28,0-.3-.25-.2-.21-.44.08,0,.28.11.4,0a1.53,1.53,0,0,1-1-.41c0,.17,0,.4-.24.45-.69,0-.25-.34-.66-.48-.15.21-.6,0-.59.46-.2,0-.25-.19-.33-.31-.35.21-1.66.13-1.24.58l.1,0-.06,0h0c-1.14.49-2.43-.14-3.57.1v-.15a7.68,7.68,0,0,0-2,.51c-.2,0-.49-.25-.41-.43a1.71,1.71,0,0,1-1.35.1c.52-.29-.19-.22.54-.22-.69-.09-.86-.32-1.58.11.24-.39-.53-.45-.85-.32l.49.25a3.84,3.84,0,0,1-1,0l.15-.5c-1.42-.55-2.47,1.14-3.58.17-.36.37.77.22.45.64-.64,0-1.35-.73-1.55-.72-.89-.23-.79.77-1.72.62.13.17.26.64-.42.84-.65,0-.83-.71-.43-.87.16,0,.23,0,.23.09.21-.07.48-.16.21-.34l-.07.18c-.33-.17-1.22-.11-1-.41-.48.19-.2.3.17.38a19.13,19.13,0,0,0-2.15-.09c.14.09.27.3.14.3-1.26-.16-.54.36-1.38.48-.49-.25.15-.65-.69-.39-.53-.16-.14-.47.06-.62-.76.38-1.45-.16-1.9-.2l.4-.17a1.75,1.75,0,0,1-.64.12l.25.34c-.25-.05-.45,0-.45-.19-.24.24.21.58-.26.92-.33-.16-1,.24-1.1-.23,1,.12-.13-.47.72-.58a1.11,1.11,0,0,1-.61,0c0-.05,0-.1.1-.13-1-.38-.42.55-1.42.59.12-.27-.25-.5-.41-.43.4,0,.21.43-.15.65-.65-.18-.69.19-1,.18l.38.08c-.11.27-.43.25-.88.35,0-.2.4-.16.24-.24-.48.49-1.14-.43-1.82-.09-.32-.16-.05-.5-.34-.61-.75.38-.85-.32-1.65,0,.25.35.29.26-.27.63l1.33-.31-.84.56c.41,0,.84-.27,1.09-.22-.4.31-.36.22-.15.51-.58-.51-1.08.36-1.74,0l0-.89c-1-.35-1.68.53-2.94.37l.41.13c-.15.36-.76.09-1.16.25,0-.3-.23-.4-.41-.57,0,.22-.92,0-1,.62l-.58-.37c-1-.11-1.11.9-2.08.84.28-.34-.17-.53.47-.79-.32,0-.62,0-.61.18-.2-.18-.88.44-1.19.17-.13.14-.16.45-.52.44a.2.2,0,0,1,0-.15c0,.15-.55.23-.22.54-1-.88-2.78.19-3.68-.56-.7.13-1.54.27-2.18.32,0-.09,0-.15.12-.13-.9-.23-.51.88-1.52.61-.54-.45.52-.28.19-.44-.18-1-1.2.18-1.91-.35l.17-.07c-.54-.31-1.25.43-2.09.39a.2.2,0,0,0,0-.14,5.68,5.68,0,0,1-2.45.91c.24-.39.36-.22.19-.6-.36.07.13.62-.59.76-.24-.2-.77-.36-.86-.77l.68-.05c-.37-.52-.88.06-1.25,0l0-.24c-1,.13-1,.72-2.17.72l.13.18c-.59.61-.53-.31-1.13.15l-.21-.58a13.06,13.06,0,0,1-2.12.78,6.45,6.45,0,0,1,1.75-1c-.4,0-1.37.11-1.56.41.16-.06.35-.22.52-.13a2.75,2.75,0,0,1-1.92.77c.09-1.15-2.11-.2-2.73-1.06-1.4.49-2.83,0-4.48.09.63.86-.48,0-.34,1-.38.07-.53.06-.56,0l-1.2-.5c-.29-.25.36-.22.32-.42-.85,0-.38-.37-1-.59.13.32-.27.48-.75.38l.69.39c-1.16.54-1-.72-2.22-.19l.36-.3c-.6.19-2.25.09-2.81.86-.12-.1-.27-.35,0-.43-1.47,0-3.21.93-4.37.53l.1-.23c-.27.08-.45.44-.8.23,0-.09.1-.23,0-.23s-.7.42-1.07.31l.3-.27c-1.44-.23-2.16.71-3.35.92,0-.66-1.15-.82-1.71-.9V150c-1.66,0-2.79.68-4.31,1-1-.67-3.24-.15-4.79-.48.24.11,0,.51-.28.59-.37-.12-1,.5-.94-.1h.13c-.3-.58-1-.39-1.61-.38l-.06.8c-1.56-1.09-3.93.6-4.8-.4-.35.22-.8.24-1.15.45V151a11.85,11.85,0,0,0-2.76.07l.24-.32c-.71,0-.83,1.27-1.48,1.32l-.22-.62c-1.23.06-2.5-.44-3.68.19a.31.31,0,0,1,.24-.31c-.58,0-2.25-.33-2,.53,0-.57-1.27,0-1.92.28l.08-.42c-.53.56-.54.7-1.32.89-.18,0-.17-.33.08-.24-.63-.19-.46.42-1.22.23l.26-.28c-.63,0-.57.14-.91.47-.39.18-1.21-.05-1.32-.43a.7.7,0,0,1-.78.47c-.06-.14.07-.24.14-.28-1.07-.24-1.56.55-2.3.18a.33.33,0,0,0-.14-.25,9.33,9.33,0,0,1,1.46,0c0-.38-.7-.42-.18-1-.53.32-1.44,1-2.11.84a.43.43,0,0,1-.09-.13l.06,0a.58.58,0,0,0-.41.08,2.33,2.33,0,0,0-.56-.09c-.09-.31-.79-.13-1.13-.13.05.42-.4.37,0,.7-.06,0,.06-.06.28-.08l.14,0,0,0,.84-.06c-.25.22-.53.42-.91.2a7.69,7.69,0,0,1-.44.7c-.49-.57-1.4-.84-1.54-1.2-1,.28-2.44.27-3,1.09-.29.11-.35-.21-.47-.33.17-.09.37-.09.46-.21-.58.23-1.74.16-1.86.72-.75-.22.4-.53-.62-.39l.13-.18c-2-.79-3.2,1.56-5.47.53.16.06.23.09.27.18-2.56-.39-5.2.71-7.74,0-.72-.12-.78.23-1.2.52l-.18-.44-.71.55c-1,.43-1.88-1-3.18-.24l.19.29c-.48,0-1.51.25-1.44-.1-.05.05-.15.32-.34.17l0-.24-1.15.46c-.92-.13.1-.94-1.23-.93-.49.11-1.38.75-1.19.9s.52.13.54.36l-.44.15c-.05.7-.37,1.43.76,1.87l.76-.46.26.32-.65.05c.38.3.61,0,.86-.19a.61.61,0,0,0,.34.36l.73-.71c.1.27-.32.56.2.69.34-.33-.37-.6.21-.83.38.3.29.57.71.28.07.17,0,.29-.19.38.38-.23,1-.14,1.21-.52.4.38,1.3-.16,1.29.5a2,2,0,0,1,1-.59c-.61.82,1.33,0,1.2.84.44-.73,1.71-.39,2.55-.82-.05,0-.14.17-.21.14a2.49,2.49,0,0,1,.94.37c0-.59.77-.76,1.16-1.14.61.54-.32.7-.12,1.24-.05-.47,1-.52.78-.91.47.33.4.15.65.63.05-.74.41-.14.76-.61.67.33.2.68.91.42C34.81,156.68,34.18,157,34.18,157Zm16.9-2h0l-.34,0Zm1.43-.07c-.18,0-.39,0-.62,0-.06-.14,0-.3.13-.29C52,154.69,52.29,154.76,52.51,154.87Zm-3.15-2.78c.23-.07.3,0,.34.09a2.51,2.51,0,0,0-.39.07l0,.05A.58.58,0,0,1,49.36,152.09Z"/><path class="cls-1" d="M49,152.66a.24.24,0,0,1-.09,0,.55.55,0,0,0,.14.09c0-.05,0-.09.07-.14Z"/><path class="cls-1" d="M178.19,147.46h0a.2.2,0,0,1,.07.06Z"/><polygon class="cls-1" points="72.22 154.79 72.22 154.68 72.1 154.78 72.22 154.79"/><path class="cls-1" d="M186.11,148.55a.19.19,0,0,0,.11.11S186.16,148.59,186.11,148.55Z"/><path class="cls-1" d="M189.5,148.5l.49.12A2.26,2.26,0,0,0,189.5,148.5Z"/><path class="cls-1" d="M192.12,148.59a.5.5,0,0,0,0-.19h0Z"/><path class="cls-1" d="M150.69,151l-.1,0C150.36,151.07,150.52,151,150.69,151Z"/><path class="cls-1" d="M163,149.41a2.88,2.88,0,0,1-.38.22C162.82,149.65,163,149.65,163,149.41Z"/><path class="cls-1" d="M136.94,152.08h0Z"/><path class="cls-1" d="M162,149.65a.87.87,0,0,0,.58,0A1.14,1.14,0,0,0,162,149.65Z"/><path class="cls-1" d="M203.43,148.27h.12s0-.05,0-.07Z"/><path class="cls-1" d="M203.56,148.21l.14-.05C203.64,148.16,203.58,148.17,203.56,148.21Z"/><path class="cls-1" d="M204,148l-.29.12C203.8,148.15,203.93,148.16,204,148Z"/><path class="cls-1" d="M200,148.23l0,.16A.34.34,0,0,0,200,148.23Z"/><path class="cls-1" d="M198.92,148.32c.25,0,.64.3,1,.19l0-.12C199.78,148.62,199.15,148.05,198.92,148.32Z"/><path class="cls-1" d="M194.46,146.63l.88.08c-.16-.15-.37-.36,0-.42C194.24,145.86,195.61,146.64,194.46,146.63Z"/><path class="cls-1" d="M191.72,146.52c.47-.1,0-.24,0-.33C191.43,146.35,191.36,146.39,191.72,146.52Z"/><path class="cls-1" d="M172,147.4l0-.38C171.7,147.09,172.06,147.17,172,147.4Z"/><polygon class="cls-1" points="168.36 149.55 168.72 149.78 168.87 149.42 168.36 149.55"/><polygon class="cls-1" points="166.01 146.92 166.17 146.86 165.56 147.03 166.01 146.92"/><path class="cls-1" d="M133,148.55l.13.47C133.32,148.92,133.35,148.39,133,148.55Z"/><path class="cls-1" d="M118.69,149.67a.56.56,0,0,0-.81-.12C118.2,149.57,118.53,149.74,118.69,149.67Z"/><polygon class="cls-1" points="75.84 150.83 76.12 150.66 75.58 150.82 75.84 150.83"/><path class="cls-1" d="M80.37,150.51c.13.05.42,0,.36-.13l-.5-.08Z"/><path class="cls-1" d="M81.25,149.55a1.47,1.47,0,0,0-1.12-.2c.48.14.28.19.86.34.06.14-.16.25-.34.23.13,0-.1.22.21.28.38-.19.39-.42.06-.65C81,149.5,81.16,149.55,81.25,149.55Z"/><path class="cls-1" d="M81.58,136.06l-.06.09A.15.15,0,0,0,81.58,136.06Z"/><path class="cls-1" d="M81.57,127.71a.11.11,0,0,0,.11.09S81.61,127.7,81.57,127.71Z"/><path class="cls-1" d="M82.07,126.18l0,.13S82.11,126.2,82.07,126.18Z"/><path class="cls-1" d="M81.58,136.06l.15-.22C81.56,135.83,81.61,136,81.58,136.06Z"/><path class="cls-1" d="M80,147.74a.29.29,0,0,0,.13.11l-.06-.11Z"/><path class="cls-1" d="M82.1,139.73v.07l.2,0Z"/><path class="cls-1" d="M82.27,142.55c0-.07-.4-.07-.59-.09.18,0,.26.07.3.13A2,2,0,0,0,82.27,142.55Z"/><path class="cls-1" d="M81.68,147.05l.06.08S81.71,147.07,81.68,147.05Z"/><path class="cls-1" d="M82.13,137.71l.15,0Z"/><path class="cls-1" d="M41.66,150h-.08S41.65,150.07,41.66,150Z"/><polygon class="cls-1" points="39.52 153.29 39.5 153.24 39.26 153.23 39.52 153.29"/><path class="cls-1" d="M80.36,122.42h0C80.51,122.43,80.45,122.41,80.36,122.42Z"/><path class="cls-1" d="M55.45,121.81c.28.38-.44.49,0,.91C55.38,122.55,55.79,122.06,55.45,121.81Z"/><path class="cls-1" d="M80.05,147.66a.41.41,0,0,1,0-.11S80,147.64,80.05,147.66Z"/><path class="cls-1" d="M55.42,122.72h0l0,0Z"/><path class="cls-1" d="M73.45,122.11a.47.47,0,0,0,.06.19A.55.55,0,0,0,73.45,122.11Z"/><path class="cls-1" d="M77.91,122.91l-.1-.06S77.88,122.91,77.91,122.91Z"/><path class="cls-1" d="M71.1,122.62c-.06,0-.08-.09-.16,0s0,0,0,0S71,122.55,71.1,122.62Z"/><path class="cls-1" d="M68.68,122.55a.3.3,0,0,0,0,.08l.08,0Z"/><path class="cls-1" d="M41.56,142.69a2.5,2.5,0,0,1-.39.11C41.48,142.76,41.58,143.12,41.56,142.69Z"/><path class="cls-1" d="M80.23,147.73c-.1,0-.16,0-.18-.07a.19.19,0,0,0,0,.08A.26.26,0,0,0,80.23,147.73Z"/><path class="cls-1" d="M70.89,125.94l-.38-.07A1.07,1.07,0,0,0,70.89,125.94Z"/><path class="cls-1" d="M41.74,125.92l0,0Z"/><path class="cls-1" d="M69.37,125.89a.66.66,0,0,0-.21-.3s0,.06,0,.11Z"/><path class="cls-1" d="M41.17,142.8Z"/><path class="cls-1" d="M42.14,145.34c0-.36-.54-.18-.86-.26-.15-.44.41-.2.7-.34-.15-.28-.65-.49-.63-.7.09,0,.13,0,.24,0-.44-.3,0-.86-.56-1.2a.27.27,0,0,1,.14,0,3.45,3.45,0,0,1-.76,0c0-.17-.35-.31,0-.37,0,.1.13.11.24.16l-.15-.17c.52-.15.17.23.56.24-.16-.34-.59-.74-.44-1,.51-.05.16.6.62.27l-.2.39c.81-.29-.06.24.81,0,.15-.52-.26-.58-.1-1.1-.28-.13-.42,0-.7-.09-.5-.75,1.29-.57.62-1.12-.34-.15-1-.21-.64-.6l.58.14c.06-.5-.83-.3-.43-.82.22.09.18.4.25.32.46-.34-.32-.25-.32-.51l.51-.05c-.07-.54-.43-1.14-.51-1.74.15,0,.31.14.46,0a3.53,3.53,0,0,1,.4-2.34l-.44-.28c0-.06.2-.12.29,0,.17-.29-.28,0-.45-.16s.26-.21.39-.11c-.37-.5-.79-1.43-.31-1.95l.13.1c.18-.41-.9-.47-.48-.85l.08.08c.2-.89-.19-1.88.48-2.55-.63-.14.3-.88-.58-1,.44-.5.6-.35.9-1.06,0-.19-.55-.31-.64-.52h.47a1.87,1.87,0,0,1-.49-.16,5.29,5.29,0,0,1,.56,0,.47.47,0,0,1-.12-.09.92.92,0,0,1-.34,0c-.1-.1,0-.18.14-.18a1.11,1.11,0,0,1,.44.16.92.92,0,0,1-.2-.46c.13.17.15.25.23.36-.29-.46.38.4.11,0a2.26,2.26,0,0,1-.23-.34c.24.23.29.23.35.11l.07.31c-.17.09.81-.17,1.42-.18-.25-.15-.21-.7,0-.76l.09.49c.13-.31-.21-.18,0-.56.25,0,.18.55,0,.72l.3-.18c0,.14-.05.22-.06.41.12-.31.54.48.71,0l0,.14c.67,0,1-.18,1.53-.22,0-.42.22-.33.38-.68a3.66,3.66,0,0,0,1.35.41c.35-.22.1-.36.25-.61,0,.38.52.34.27.62a4,4,0,0,0,1.49-.41c-.08-.16-.17-.23-.13-.36s.31.16.29.35l0,0c.83-.59,1.94,1.1,2.59.29l0,0,.68-.42c.32.07-.19.29,0,.53.74-.65,1.17.09,1.79-.34.47,1.13,1.68-.08,2.32.65l0-.27c.17-.26.2.15.32.22,0-.21-.18-.24-.07-.39,1.4-.31,2.88.41,4.31.68.53.07.32-1.38,1-.73l-.19.49c1.07-.58,2.16.06,3.21-.42-.06.11-.07.26-.17.26.21.36.81,0,.82-.26.16,0,0,.27.13.42s.56-.44.67-.08c0,.06-.07.11-.11.14.15-.17.67.06.54-.36.38.21.75-.16,1,.09.22-.45.66.25.75-.41,0,.68.66.57.92.26-.09.21.21.22.1.5.28,0,.54-.11.51-.46.48.83,1.06-.62,1.31.43a12.21,12.21,0,0,1,2.39-.67c-.06.68-.83,0-.83.74.72-.24,1.16-.81,1.86-.61.18.1-.12.29-.18.4.72-.25,1.37.13,2-.21a.3.3,0,0,1-.15.17c.13,0,.29.12.29-.19l-.13.08c-.09-.23.06-.46.21-.66a4.82,4.82,0,0,0,.32-.49c-.3.87.38.26-.17,1.33a1.38,1.38,0,0,0,.21-.39c0,.07,0,.19-.15.41.22-.13.36-.46.54-.37-.1.13-.18.16-.3.32.24-.24.59-.42.6-.16-.09.06-.18.16-.2.12s.31.08.49.18a.34.34,0,0,1,.17.5c-.65,0-.21.12-.76.23l.17.35.27-.15c0,.3.42.56.24.83l-.23-.22.12.57.2-.33c.3.29.71-.06.57.35-.06-.08,0,.31-.32.47h0c.18.15.37.3.24.53-.18.06-.62,0-.74,0,.47.14.16.71.66.88a1.12,1.12,0,0,0-.47,0l.38.12c-.12.14-.17.16-.41.15,0,.43.71-.16.42.36,0,0-.09,0-.15-.1-.14.51.27,1,.1,1.44-.56.15-.15-.4-.62-.23.13.67.72,1.37.61,2l.06-.12c.8.06-.38.49,0,.81-.06-.08-.45-.09-.36-.07-.11.44.23.9.5,1.56l-.21-.07c-.17.26-.08.69-.16,1,.21.07.18.24.47.13-1.13.91.68,1.64-.26,2.45,0-.1-.19-.22-.19-.14l.21.65c.35-.06.21-.09.48-.24a.53.53,0,0,1,.37.42c-.24-.29-.55,0-.74.15.1,0,.22,0,.33,0-.6.37.7,0,.3.52l-.18,0c.1.18.34.33.3.52-.4.1-.2-.18-.53-.18,0,.27.78.5.39.76-.12-.11-.12-.28-.24-.39-.46.28-.34.31-.41.51v0l-.2.46.13-.12c1.05.29.21.67.91,1.1-.66-.42-.38-.06-.83-.08-.12.12-.26.3-.39.25.37.2-.28.36.27.65-.15,0,0,.22-.38.19.13.27.26-.08.44-.06.51.41-.57,1,.13,1.61.3.52.8.6,1.06,1.08-.23.18-.53-.11-.53-.11a.51.51,0,0,0,0,.71c-.13,0-.23,0-.4.1,0,.2.54.11.33.39a2.38,2.38,0,0,1-.59-.19c.14.24.42.46.56.7-.25.08-.39-.13-.56-.21.13.27.26.71.66.78l.14-.18c0,.1-.34.06-.42,0-.32-.23.13-.35.28-.37l.1.18c.85-.21-.17-.7-.13-1.06l.63.13-.53-.35c.16-.08.51-.14.61,0,.3-.27-.23-.22.1-.45.06,0,.09,0,.11,0l-.19-.24c.13,0,.44-.06.35.1.35-.46-.49-.7,0-.89l0,0c-.23-.61-.46,0-1-.49l1.12-.35-.46,0a.2.2,0,0,1,.23-.18c-.32-.22-.2.05-.5-.08.41-.32-.22-.83.51-.93-.35-.09-.26.31-.51,0,.78-.12-.15-.37.2-.67.41.08.2.35.55.06-.69-.15.14-.55,0-.78-.55,0-.25-.51-.44-.9.18,0,.27-.75.46-1.12h.09c-.55,0-.46-.43-.59-.7a.74.74,0,0,1,.62.19v-.26a.51.51,0,0,1-.35-.3l.42.05c0-.35-.51-.68-.25-1.13-.39,0-1.06.38-1.33-.08.21,0,.56-.05.65.07,0,0-.18-.14-.09-.22l.35.17c.15-.2-.29-.09-.26-.26.29,0,.2-.12.44-.11,0,0-.12.15,0,.21a.76.76,0,0,1,.44-.49c-.17,0-.4,0-.44-.12,0-.35.35-.13.49-.34-.21-.08,0-.3-.44-.3,0-.1.2-.12.32-.17-.2-.17-.08-.83-.55-.61l0,.05,0,0h0c-.46-.57.21-1.23,0-1.8h.15c-.18-.34-.12-.77-.45-1,0-.11.26-.26.44-.22-.12-.26-.29-.28-.06-.67.27.25.23-.1.2.26.12-.35.35-.43-.06-.79a.29.29,0,0,0,.35-.43l-.27.25a1,1,0,0,1,0-.51l.5.07c.58-.73-1.08-1.24-.08-1.81-.35-.17-.23.39-.65.24.06-.33.77-.69.76-.79.26-.46-.74-.39-.57-.86-.17.06-.64.13-.82-.21,0-.33.73-.42.88-.22s0,.11-.1.11.15.24.34.11l-.18,0c.18-.17.14-.61.44-.52-.18-.24-.3-.09-.38.09.24-.44,0-.61.14-1.13-.1.13-.3.19-.3.12.17-1-.35-.37-.49-.91.2-.4.66-.1.3-.61,0-.45.39-.31.58-.2-.47-.44-.32-1.2-.57-1.55a2.79,2.79,0,0,1,.34.18,2.59,2.59,0,0,1-.46-.38c0,.14-.06.27-.1.4-.1-.19-.23-.29-.13-.4-.31.06-.27.52-.77.57-.09-.29-.71-.12-.57-.56.64.41.14-.48.82-.25a1.1,1.1,0,0,1-.47-.22c0-.06.08-.08.14-.08-.64-.66-.59.34-1.37.22a.3.3,0,0,0-.26-.47c.37,0,.07.45-.23.64-.27-.12-.29-.08-.38,0s-.12.14-.21.12l.19.11c-.08.26-.24.22-.47.29,0-.21.22-.13.14-.23-.27.46-.54-.51-.91-.21-.15-.19,0-.5-.12-.63-.41.33-.41-.38-.83-.12.1.37.12.28-.18.62l.68-.23L76,123c.2,0,.44-.21.56-.14-.22.28-.2.19-.11.49-.26-.55-.57.29-.88-.09l0-.88c-.46-.42-.88.41-1.5.16l.2.17c-.1.35-.39,0-.6.17a1,1,0,0,0-.17-.6c0,.22-.46,0-.54.55l-.27-.4c-.5-.18-.61.82-1.09.7.15-.31-.06-.53.28-.75-.17,0-.31-.07-.32.14-.09-.19-.47.38-.61.09-.07.13-.1.44-.29.41a.5.5,0,0,1,0-.15c0,.15-.29.19-.15.53-.47-.94-1.4,0-1.81-.79a5.83,5.83,0,0,1-1.12.19c0-.09,0-.15.07-.12-.44-.28-.3.84-.79.52-.25-.48.27-.25.11-.43,0-1-.61.12-.94-.46l.09-.06c-.26-.33-.65.36-1.07.28a.35.35,0,0,0,0-.15,2.1,2.1,0,0,1-1.27.78c.14-.38.19-.2.12-.59-.18,0,0,.62-.32.72-.12-.21-.38-.39-.41-.81h.35c-.17-.54-.45,0-.63-.09l0-.23c-.54.06-.55.65-1.12.6l0,.18c-.31.58-.25-.33-.57.1l-.08-.59a5.08,5.08,0,0,1-1.1.67c.21-.44.65-.66.92-.92-.21,0-.7,0-.81.33.09-.06.19-.2.27-.11a1.09,1.09,0,0,1-1,.68c.08-1.15-1-.3-1.34-1.2-.72.43-1.43-.18-2.27-.12.3.9-.24,0-.19.95-.2.05-.27,0-.29,0l-.59-.55c-.14-.26.19-.2.17-.4-.43-.07-.18-.39-.47-.64.06.33-.14.47-.39.35l.35.42c-.6.49-.52-.77-1.12-.28l.19-.29c-.31.17-1.15,0-1.44.74-.06-.11-.13-.36,0-.42-.74-.11-1.63.79-2.21.35l.05-.23c-.14.07-.23.43-.41.2,0-.09.05-.22,0-.23s-.36.39-.54.27l.15-.26c-.73-.28-1.1.63-1.7.8a1.07,1.07,0,0,0-.86-1v-.09c-.84-.07-1.41.58-2.18.85a1.34,1.34,0,0,0-1.1-.44c-.23,0-.46,0-.68,0a2.57,2.57,0,0,1-.35-.06,5,5,0,0,1-.56-.09c.23.11,0,.51-.16.59-.35-.12-.6.54-.79,0l.11,0c-.45-.52-1-.15-1.44.13l.44.67c-.85-.12-1.3.73-1.33,1.47,0,.38,0,.74,0,1s-.13.59-.39.65c.2.19.19.41.39.6l-.43,0a3.16,3.16,0,0,0-.08,1.39l-.3-.13c0,.35,1.22.46,1.24.79l-.64.09c0,.62-.56,1.24,0,1.86-.1,0-.28,0-.3-.14,0,.29-.45,1.12.42,1-.56,0-.06.64.18,1l-.41,0c.53.29.67.3.81.69-.05.09-.33.08-.22,0-.23.3.39.24.16.62l-.26-.15c0,.32.1.3.41.48s-.11.6-.49.65c.23,0,.54.22.42.41a.35.35,0,0,1-.27-.08c-.29.53.48.8.06,1.16a.49.49,0,0,0-.25.06,2.22,2.22,0,0,1,.07-.73c-.38,0-.45.33-1,0,.28.28.91.76.72,1.09l-.13.05,0,0a.17.17,0,0,0,.05.21.58.58,0,0,0-.11.28c-.32,0-.18.39-.2.56.42,0,.35.22.7,0,0,0,0,0-.06-.15s0-.05-.05-.07h0c0-.11,0-.26,0-.42.21.13.39.28.15.46l.68.25c-.59.23-.92.68-1.28.73.23.53.14,1.24.93,1.58.1.15-.23.16-.36.22-.08-.09-.06-.19-.18-.24.2.3.07.88.62,1-.25.37-.5-.22-.42.3l-.17-.07c-.9,1,1.39,1.66.24,2.77.07-.08.1-.12.2-.13-.52,1.27.43,2.64-.38,3.89-.17.36.19.4.45.62l-.45.07.51.38c.38.54-1.12.91-.41,1.59l.31-.08c-.06.24.17.76-.18.72.05,0,.32.08.16.18h-.24l.4.6c-.18.46-.94-.09-1,.58.09.25.68.72.84.63a.38.38,0,0,1,.39-.26l.12.23c.7,0,1.41.24,1.91-.32l-.43-.39.34-.12,0,.33c.32-.19,0-.31-.15-.44a.64.64,0,0,0,.38-.16l-.67-.39c.28-.05.54.18.7-.08-.31-.18-.62.17-.82-.13.32-.19.58-.13.31-.35a.39.39,0,0,1,.38.11c-.22-.2-.09-.52-.46-.63.4-.19-.09-.66.57-.63-.16-.06-.51-.35-.54-.53.79.34.06-.67.9-.57-.7-.25-.3-.88-.69-1.31.06,0,.17.07.14.11.06-.24.27-.31.41-.46-.59,0-.72-.42-1.08-.63.57-.28.69.19,1.24.11-.48,0-.47-.52-.87-.43.35-.22.17-.19.66-.3-.73-.05-.12-.21-.57-.41.37-.32.69-.07.47-.43C41.88,145,42.14,145.34,42.14,145.34ZM41,136.77h0l0,.18Zm0-.72a1.51,1.51,0,0,0,0,.31c-.15,0-.3,0-.29-.08S40.86,136.16,41,136.05Zm-2.94,1.48c-.06-.11,0-.15.11-.16a.59.59,0,0,0,.05.19l0,0Z"/><path class="cls-1" d="M38.6,137.74s0,0,0,0a.31.31,0,0,0,.09-.07l-.13,0Z"/><path class="cls-1" d="M81.51,136.17v0a.09.09,0,0,1-.06,0Z"/><path class="cls-1" d="M41.93,126.16h-.1a.12.12,0,0,1,.09,0A.06.06,0,0,1,41.93,126.16Z"/><path class="cls-1" d="M80.2,140.17a.24.24,0,0,0-.11.06A.24.24,0,0,0,80.2,140.17Z"/><path class="cls-1" d="M80.16,141.89l-.14.24A.79.79,0,0,0,80.16,141.89Z"/><path class="cls-1" d="M80,143.21l.18,0H80Z"/><path class="cls-1" d="M77.86,125.73l0,0C77.69,125.83,77.77,125.8,77.86,125.73Z"/><path class="cls-1" d="M80,128.51a1,1,0,0,1-.21-.19C79.76,128.43,79.76,128.52,80,128.51Z"/><polygon class="cls-1" points="70.93 125.95 70.93 125.94 70.89 125.94 70.93 125.95"/><path class="cls-1" d="M79.79,128a.23.23,0,0,0,0,.29A.37.37,0,0,0,79.79,128Z"/><path class="cls-1" d="M80,148.91l0,.06h.07Z"/><path class="cls-1" d="M80.05,149l0,.07S80.1,149,80.05,149Z"/><path class="cls-1" d="M80.21,149.19l-.11-.14S80.09,149.16,80.21,149.19Z"/><path class="cls-1" d="M80.13,147.16h0Z"/><path class="cls-1" d="M80.07,146.64c0,.12-.31.32-.21.5H80C79.75,147.07,80.33,146.75,80.07,146.64Z"/><path class="cls-1" d="M81.89,144.37l-.11.44c.16-.08.37-.19.42,0C82.67,144.25,81.84,145,81.89,144.37Z"/><path class="cls-1" d="M82.08,143c.08.23.23,0,.32,0C82.25,142.84,82.21,142.8,82.08,143Z"/><path class="cls-1" d="M81.75,133.06h.38C82.07,132.89,82,133.07,81.75,133.06Z"/><polygon class="cls-1" points="79.7 131.23 79.47 131.41 79.82 131.49 79.7 131.23"/><polygon class="cls-1" points="82.39 130.01 82.45 130.09 82.3 129.79 82.39 130.01"/><path class="cls-1" d="M69.12,122.19l0,.47C69.29,122.58,69.33,122.05,69.12,122.19Z"/><path class="cls-1" d="M61.89,122.51c-.08-.24-.28-.39-.41-.16C61.64,122.38,61.8,122.57,61.89,122.51Z"/><path class="cls-1" d="M39.06,123c0-.09,0-.19,0-.29a4.39,4.39,0,0,0-.21.44Z"/><path class="cls-1" d="M153.14,140.08c.13.16.43.07.36-.37l-.49-.3Z"/><path class="cls-1" d="M154,137.14c-.24-.51-.67-1.1-1.12-.76.48.5.28.62.85,1.17.06.43-.15.76-.34.69.13.15-.1.68.21.91a2.09,2.09,0,0,0,.07-2C153.82,137,154,137.1,154,137.14Z"/><path class="cls-1" d="M154.51,94.47l0,.28A1,1,0,0,0,154.51,94.47Z"/><path class="cls-1" d="M154.6,68c0,.2.06.29.11.3C154.67,68.15,154.64,68,154.6,68Z"/><path class="cls-1" d="M155.11,63.53l0,.26A.28.28,0,0,0,155.11,63.53Z"/><path class="cls-1" d="M154.51,94.47l.15-.7C154.5,93.72,154.55,94.13,154.51,94.47Z"/><path class="cls-1" d="M152.8,131.27a1.15,1.15,0,0,0,.14.38l-.06-.36Z"/><path class="cls-1" d="M155,106.12v.22l.2.18Z"/><path class="cls-1" d="M155.14,115.07c0-.21-.41-.27-.59-.35a.62.62,0,0,1,.29.44A.71.71,0,0,0,155.14,115.07Z"/><path class="cls-1" d="M154.5,129.25l.06.25Z"/><path class="cls-1" d="M155,99.72a.27.27,0,0,0,.15-.08A.22.22,0,0,0,155,99.72Z"/><path class="cls-1" d="M114.42,142.93a.22.22,0,0,0-.08,0S114.42,143,114.42,142.93Z"/><path class="cls-1" d="M112.3,153.29l0-.15-.24,0Z"/><path class="cls-1" d="M155.59,55.26v0C155.64,55.52,155.63,55.39,155.59,55.26Z"/><path class="cls-1" d="M115.19,12.66c.57.17,0,.38-.51.6-.15.1-.18.18.07.24a2.09,2.09,0,0,0,.44.07C115.08,13.42,116.29,12.77,115.19,12.66Z"/><path class="cls-1" d="M152.86,131c0-.12,0-.24,0-.36A1.31,1.31,0,0,0,152.86,131Z"/><path class="cls-1" d="M115.19,13.57h0l.16,0Z"/><path class="cls-1" d="M155.2,36.24a.47.47,0,0,0-.18.19S155.12,36.38,155.2,36.24Z"/><path class="cls-1" d="M154.71,50.42l0-.36A1.29,1.29,0,0,0,154.71,50.42Z"/><path class="cls-1" d="M154.56,28.88a1,1,0,0,0,0-.52.35.35,0,0,0-.05.08A.56.56,0,0,1,154.56,28.88Z"/><path class="cls-1" d="M154.39,21.15s0,.1-.08.15l0,.24Z"/><path class="cls-1" d="M114.28,119.64a1.27,1.27,0,0,1-.38.36C114.2,119.88,114.31,121,114.28,119.64Z"/><path class="cls-1" d="M153,131.26a.26.26,0,0,1-.18-.23l0,.26A.14.14,0,0,0,153,131.26Z"/><path class="cls-1" d="M151.23,28.59l.05-1.22A11.36,11.36,0,0,0,151.23,28.59Z"/><path class="cls-1" d="M114.39,64.68l0,.28A.49.49,0,0,0,114.39,64.68Z"/><path class="cls-1" d="M151.18,23.8a2,2,0,0,0,.27-.68.5.5,0,0,0-.12-.13Z"/><path class="cls-1" d="M113.9,120Z"/><path class="cls-1" d="M114.88,128c0-1.16-.54-.55-.86-.79-.15-1.39.41-.64.69-1.11-.14-.87-.65-1.53-.62-2.18.09,0,.12-.17.24,0-.44-.92,0-2.72-.57-3.78a.36.36,0,0,1,.14-.14,1.09,1.09,0,0,1-.76.16c0-.52-.35-1,0-1.16,0,.32.14.35.25.5l-.15-.55c.52-.49.17.74.56.75a11.79,11.79,0,0,1-.44-3.12c.51-.17.16,1.9.62.82l-.2,1.26c.81-1-.06.76.8-.12.16-1.66-.25-1.85-.1-3.51-.28-.37-.42.13-.7-.25-.5-2.35,1.29-1.84.61-3.57-.33-.45-1-.63-.63-1.86l.57.42c.06-1.6-.82-.91-.43-2.59.22.3.19,1.26.25,1,.46-1.09-.32-.78-.32-1.61l.51-.17c-.07-1.71-.43-3.6-.52-5.49.15.11.31.43.47,0a32.56,32.56,0,0,1,.38-7.4l-.44-.88c0-.2.2-.38.29-.16.17-.89-.28,0-.45-.48s.25-.67.38-.34c-.36-1.59-.79-4.52-.31-6.18l.13.32c.18-1.3-.9-1.47-.48-2.67l.07.23c.2-2.82-.19-5.93.48-8.08-.63-.41.29-2.79-.59-3a13.48,13.48,0,0,0,.9-3.41c0-.61-.55-.9-.64-1.65l.46,0-.48-1,.55-.54-.11-.7c0,.28-.21.59-.35.55a3.77,3.77,0,0,1,.57-2.7l-.38-2.59c.18.05.25.49.36.83-.46-1.38.49-.25.06-1.52-.1.17-.27-.09-.37-.12a7.77,7.77,0,0,0,.18-3.14l.32.21c.08-1.93-.14-4.06-.13-6.22-.15.77-.71.59-.76,0l.49-.25c-.3-.41-.18.66-.55-.18.06-.81.56-.54.71-.08l-.16-1c.14-.06.22.17.41.23-.31-.4.49-1.69,0-2.27l.14,0c0-2.16-.15-3.14-.17-4.9-.42,0-.33-.73-.67-1.25a31.44,31.44,0,0,0,.45-4.28c-.21-1.1-.36-.32-.61-.82.38-.08.35-1.63.63-.82a36.09,36.09,0,0,0-.38-4.76c-.16.26-.23.55-.36.4-.06-.43.17-1,.35-.92l0,.12c-.56-2.66,1.12-6.13.39-8.19l0,.12c-.12-.72-.22-1.43-.31-2.14.14-1,.24.59.53-.1a4.64,4.64,0,0,1,0-2.06,2.61,2.61,0,0,1,.06-.27.69.69,0,0,1,.06-.18,1.11,1.11,0,0,1,.5-.55l.07-.06c1.43.92,5.17-.68,7.18-.05l-.13-.26c.5-.29.63.12,1,.16-.06-.21-.57-.21-.26-.37,4.36-.56,9,.23,13.43.88,1.61.22,1.06-1.28,3-.43l-.64.43c3.36-.21,6.67,1,9.93,1.18-.22.07-.25.21-.56.15a3,3,0,0,0,1.46.44l.39,0c.09,0,.09-.05.14-.07a.86.86,0,0,0,.16-.18c.13.08-.1.25-.14.4s.07.06.19.09.27.28.12.45-.15-.13-.2-.2c.28.23.27,1.75.62,1.31-.06,1.14.37,2.22.16,3.19.49.62-.18,2.09.48,2.28-.68-.08-.53,2.17-.21,3-.2-.26-.2.68-.49.38,0,.89.15,1.71.49,1.55-.8,1.65.68,3.3-.35,4.24.38,2.65.65,5.1.82,7.49-.68-.08-.08-2.64-.79-2.53.29,2.26.88,3.56.73,5.81-.08.58-.29-.33-.41-.53.3,2.26,0,4.38.35,6.39-.06,0-.13-.22-.18-.43,0,.4-.1.93.21.88l-.09-.39c.45-.63,1,1.57,1.18,1.64-.88-.67-.2,2-1.32.93.06.26.2.59.41.53-.06.38-.18.51-.41.12.17,1.42.5.91.5,2.2-.15,0-.21-.27-.39-.4a4.1,4.1,0,0,1,.48,2.39c-.09-.06-.21.06-.21-.26.06,1.87.8,3.18.53,5.23-.65-.6-.21.7-.77.81l.18,1.1.27-.44c0,1,.41,1.82.23,2.65l-.24-.72.12,1.81.21-1c.29,1,.71-.11.56,1.18-.06-.26,0,1-.33,1.47h0a2.87,2.87,0,0,1,.24,1.68c-.18.19-.62-.14-.74,0,.47.47.15,2.26.65,2.85a.37.37,0,0,0-.47-.14l.38.39c-.12.45-.18.52-.41.45-.06,1.34.71-.44.41,1.16,0-.12-.09-.06-.15-.32-.14,1.6.27,3.09.09,4.57-.56.44-.15-1.29-.62-.79.12,2.13.71,4.4.59,6.46l.06-.39c.8.28-.38,1.54,0,2.57-.06-.25-.44-.33-.35-.26a26.15,26.15,0,0,0,.48,5l-.21-.26a30.6,30.6,0,0,0-.17,3.08c.2.27.17.78.47.46-1.15,2.78.66,5.27-.29,7.73,0-.29-.19-.7-.19-.46l.21,2.08c.34-.16.2-.27.47-.71a2.59,2.59,0,0,1,.38,1.37c-.24-.94-.56,0-.75.42.1-.07.22.07.33,0-.61,1.1.7.18.29,1.67l-.18-.08a6.22,6.22,0,0,1,.29,1.67c-.39.26-.19-.59-.52-.62,0,.84.77,1.66.38,2.42-.11-.35-.12-.87-.23-1.23a2.62,2.62,0,0,0-.42,1.55v-.06l-.2,1.43.12-.36c1.06,1,.21,2.15.91,3.57-.66-1.38-.38-.23-.84-.33-.12.36-.26.92-.39.76.38.67-.28,1.13.27,2.07-.15,0,0,.72-.38.57.12.88.25-.21.44-.13.51,1.34-.59,3.17.11,5.11.3,1.67.79,2,1,3.52-.23.53-.54-.42-.54-.42a4.59,4.59,0,0,0,0,2.27c-.13-.16-.24,0-.4.25,0,.64.54.43.33,1.27a2,2,0,0,1-.59-.63c.14.75.41,1.49.55,2.27-.25.21-.39-.47-.56-.74.12.88.25,2.27.66,2.54l.14-.57c0,.32-.35.17-.43-.07-.32-.74.14-1.08.28-1.12l.1.55c.86-.57-.15-2.23-.11-3.35l.63.47-.53-1.15c.16-.24.51-.41.61.14.3-.8-.23-.71.11-1.4.05-.07.08,0,.11,0l-.19-.78c.13.15.43-.14.35.35.35-1.41-.49-2.27,0-2.8l0,.12c-.22-2-.46-.19-1-1.65l1.13-1-.46-.19c0-.2,0-.6.23-.52-.32-.75-.2.13-.5-.31.41-1-.21-2.67.52-2.89-.36-.34-.27.93-.52-.1.79-.3-.14-1.2.21-2.08.41.26.2,1.1.56.22-.69-.53.14-1.73,0-2.47-.55,0-.24-1.62-.43-2.87.18.08.28-2.36.47-3.53l.09,0c-.55-.22-.45-1.43-.57-2.3.33,0,.46.19.61.66v-.82a1.64,1.64,0,0,1-.34-1l.41.2c0-1.09-.5-2.2-.23-3.61-.39-.08-1.06,1.13-1.33-.36.21-.06.56-.11.65.28a1.31,1.31,0,0,1-.09-.72l.35.6c.15-.65-.29-.34-.26-.85.29,0,.21-.38.44-.31,0,.13-.12.45,0,.64a3.22,3.22,0,0,1,.44-1.51c-.16,0-.4,0-.44-.42,0-1.09.36-.37.5-1-.2-.27,0-1-.44-1,0-.32.21-.38.33-.51-.2-.56-.08-2.64-.54-2l0,.14,0-.09h0c-.46-1.85.22-3.86,0-5.7h.15a18.62,18.62,0,0,0-.45-3.23c0-.32.27-.77.45-.63a4.18,4.18,0,0,1,0-2.15c.26.85.22-.29.19.87a4.07,4.07,0,0,0-.05-2.51c.38.39.47-.83.35-1.35l-.27.77a9.61,9.61,0,0,1,0-1.61l.5.27c.6-2.24-1.06-4-.05-5.73-.36-.59-.24,1.22-.65.69a13.5,13.5,0,0,1,.77-2.43c.26-1.41-.74-1.3-.56-2.78-.18.19-.66.37-.83-.73.06-1,.74-1.27.88-.62,0,.25,0,.37-.09.36.06.33.14.76.33.36l-.18-.14c.18-.51.15-1.92.45-1.59-.18-.78-.3-.33-.39.24.25-1.32,0-2.06.16-3.42-.1.22-.3.42-.3.2.2-2-.35-.87-.44-2.22.27-.77.65.27.42-1.09.18-.83.47-.18.62.15-.36-1.23.2-2.31.26-3l.15.65a4.27,4.27,0,0,1-.09-1l-.35.37c.06-.38.06-.71.21-.7-.24-.39-.59.31-.92-.47.18-.52-.2-1.56.27-1.74-.15,1.61.47-.18.56,1.18a2.61,2.61,0,0,1,0-1c.05-.05.1.06.12.16.41-1.54-.54-.7-.54-2.29.27.2.51-.37.45-.63,0,.64-.44.31-.65-.28.2-1-.16-1.11-.14-1.64l-.1.61c-.27-.21-.23-.72-.32-1.43.2-.06.14.65.23.39-.47-.79.48-1.79.15-2.89.18-.51.5-.05.62-.5-.35-1.23.36-1.34.06-2.64-.35.38-.27.45-.62-.47l.27,2.14-.53-1.37c0,.64.23,1.36.17,1.74-.29-.65-.2-.58-.5-.27.53-.88-.32-1.74,0-2.77l.89,0c.38-1.53-.48-2.72-.27-4.71l-.15.64c-.35-.26-.06-1.23-.2-1.87.29.06.4-.34.58-.62-.22,0,0-1.46-.58-1.63l.38-.89c.15-1.61-.85-1.83-.76-3.37.32.46.53-.24.76.79,0-.52.05-1-.15-1,.18-.3-.41-1.42-.13-1.9-.14-.21-.45-.28-.43-.86.06-.07.15,0,.15,0s-.2-.9-.53-.4c.92-1.6-.1-4.43.58-5.88a24.74,24.74,0,0,0-.75-3.64c.11,0,.14,0,.17.18a1.82,1.82,0,0,0-.33-.94,1,1,0,0,0-.49-.33,3.52,3.52,0,0,1-.53-.25,7.74,7.74,0,0,0-.89-.48c-.4-.34-.15-.35.19-.29s.67.27.41,0c.06-.24-.09-.44-.39-.56a2.37,2.37,0,0,0-.51-.13,2.68,2.68,0,0,0-.42-.05,3.31,3.31,0,0,1-1.79-.47h.27c-.76-.48-2.07-.06-3.4-.36,0,0,.08-.07,0-.14a14.94,14.94,0,0,1-4.07.15c.45-.32.61-.12.42-.54-.59,0,.08.64-1.08.59-.35-.25-1.16-.55-1.23-1l1.1.12c-.49-.61-1.42-.16-2-.31l.1-.23c-1.7-.11-1.78.49-3.58.29l.17.19c-1,.51-.8-.38-1.82,0l-.27-.61c-.66.1-2.32.46-3.49.55a12.69,12.69,0,0,1,2.93-.83,6.59,6.59,0,0,0-2.57.25,1.61,1.61,0,0,1,.86-.09,6.5,6.5,0,0,1-3.15.64c.22-1.17-3.37-.25-4.35-1.09-2.28.54-4.58.11-7.25.49,1,.77-.78.12-.5,1-.62.14-.83.15-.93.11l-.43,0a3.06,3.06,0,0,0-1.13.1,2.5,2.5,0,0,0-1,.63c-.28.2-.21,0-.06-.31s.44-.56.34-.61a6.39,6.39,0,0,0-.8.8.92.92,0,0,1-.32.27c-.16.08-.33,0-.72.82.21-.12.24.17.21.55a4.55,4.55,0,0,1-.22,1.13c.2-.39.41-.74.67-1.18a3.24,3.24,0,0,1-.49,2,2.3,2.3,0,0,0-.29,1.86l-.25-.65c.07,1.05-.16,3.73.57,4.69-.1.18-.36.41-.42,0-.12,2.35.77,5.2.31,7L111,30.4c.07.44.42.76.19,1.3-.09,0-.22-.17-.23,0a3.93,3.93,0,0,1,.25,1.73l-.25-.49c-.3,2.27.61,3.49.76,5.39-.66,0-.88,1.78-1,2.67l-.1,0c-.09,2.65.54,4.5.79,7-.72,1.52-.32,5.15-.73,7.59.12-.37.52.07.58.5-.13.57.46,1.59-.15,1.5v-.21c-.59.43-.44,1.61-.46,2.53l.8.15c-1.16,2.41.4,6.31-.64,7.63.2.58.2,1.3.39,1.87l-.42,0a29.68,29.68,0,0,0-.08,4.4l-.3-.4c0,1.12,1.22,1.42,1.24,2.45l-.63.31c0,2-.56,3.94,0,5.88a.4.4,0,0,1-.3-.41c0,.92-.44,3.56.43,3.23-.57,0-.06,2,.19,3.08l-.42-.17a3.78,3.78,0,0,1,.82,2.17c-.06.3-.34.26-.23-.13-.22,1,.4.77.17,2l-.27-.44a1.82,1.82,0,0,0,.42,1.49c.17.63-.11,1.92-.49,2.07a1.35,1.35,0,0,1,.43,1.28c-.14.08-.23-.13-.28-.24-.28,1.69.48,2.52.07,3.68a.3.3,0,0,0-.25.2,22.33,22.33,0,0,1,.07-2.33c-.39,0-.46,1.08-1,.22a8.1,8.1,0,0,1,.73,3.42.43.43,0,0,1-.13.14l0-.11a1.34,1.34,0,0,0,.06.67,4.64,4.64,0,0,0-.12.88c-.32.12-.18,1.25-.19,1.79.42,0,.35.66.7,0,0,.09-.05-.1-.07-.46a1.07,1.07,0,0,0,0-.23l0,0c0-.35,0-.82,0-1.34a1.67,1.67,0,0,1,.16,1.47c.27.28.55.59.68.76-.59.74-.92,2.17-1.28,2.36.23,1.66.14,3.9.93,5,.1.47-.22.54-.35.71a3.33,3.33,0,0,0-.18-.74c.2.94.07,2.79.62,3-.25,1.19-.5-.67-.42,1l-.17-.22c-.89,3.2,1.4,5.22.26,8.76.07-.24.1-.36.19-.41-.51,4,.45,8.34-.36,12.34-.16,1.13.19,1.26.46,1.95l-.46.25.52,1.18c.38,1.69-1.12,2.91-.4,5l.31-.27c-.06.76.17,2.42-.18,2.29.05.08.31.25.15.55l-.23,0,.4,1.88c-.18,1.46-.94-.23-1,1.89.09.79.69,2.25.85,2s.15-.81.39-.84l.12.72c.69.14,1.41.69,1.9-1.08l-.42-1.23.34-.4,0,1c.32-.59,0-1-.16-1.38a.81.81,0,0,0,.38-.52l-.67-1.21c.28-.15.55.54.7-.27-.31-.57-.62.54-.82-.4.32-.59.58-.42.31-1.11.18-.1.3,0,.37.32-.21-.61-.08-1.63-.45-2,.39-.61-.1-2.08.56-2a4.41,4.41,0,0,1-.54-1.66c.79,1,0-2.12.9-1.84-.71-.77-.31-2.77-.7-4.13.06.07.17.22.14.34a5.15,5.15,0,0,1,.41-1.47c-.59-.1-.72-1.29-1.08-1.94.57-.93.69.57,1.23.28-.47.05-.47-1.63-.86-1.31.35-.72.17-.62.66-1-.74-.13-.13-.67-.58-1.27.37-1,.69-.26.47-1.4C114.62,127,114.88,128,114.88,128Zm-1.19-27.09h0l0,.56Zm0-2.28c0,.28,0,.62,0,1-.15.08-.3,0-.29-.24C113.48,99.53,113.56,99,113.69,98.65Zm-2.94,4.81c-.06-.36,0-.48.11-.53,0,.17,0,.37,0,.63l0,0A.49.49,0,0,1,110.75,103.46Z"/><path class="cls-1" d="M111.3,104.11a.58.58,0,0,1,0,.14,2,2,0,0,0,.1-.21,1.59,1.59,0,0,1-.13-.13Z"/><path class="cls-1" d="M154.45,94.8v0a.44.44,0,0,1-.06.1S154.43,94.82,154.45,94.8Z"/><polygon class="cls-1" points="114.59 67.22 114.48 67.22 114.57 67.42 114.59 67.22"/><path class="cls-1" d="M153.09,107.35a.26.26,0,0,0-.11.16S153.05,107.43,153.09,107.35Z"/><path class="cls-1" d="M153,112.76l-.14.77A5.61,5.61,0,0,0,153,112.76Z"/><path class="cls-1" d="M152.85,116.93a.52.52,0,0,0,.18.08h0Z"/><path class="cls-1" d="M151.89,50.72s0-.11,0-.16C151.78,50.19,151.82,50.44,151.89,50.72Z"/><path class="cls-1" d="M153,70.42a5.1,5.1,0,0,1-.2-.63C152.78,70.14,152.77,70.41,153,70.42Z"/><path class="cls-1" d="M151.22,28.72h0v0Z"/><path class="cls-1" d="M152.81,68.87a2,2,0,0,0,0,.92A3.54,3.54,0,0,0,152.81,68.87Z"/><path class="cls-1" d="M152.79,135l0,.2.07,0Z"/><path class="cls-1" d="M152.84,135.2l0,.23C152.89,135.32,152.89,135.23,152.84,135.2Z"/><path class="cls-1" d="M153,135.89l-.11-.46C152.89,135.59,152.88,135.79,153,135.89Z"/><path class="cls-1" d="M153,129.47l-.16-.07A.22.22,0,0,0,153,129.47Z"/><path class="cls-1" d="M152.89,127.79a5.53,5.53,0,0,0-.22,1.56l.12.05C152.56,129.14,153.15,128.17,152.89,127.79Z"/><path class="cls-1" d="M154.73,120.78l-.11,1.41c.16-.25.38-.57.42.07C155.51,120.48,154.68,122.62,154.73,120.78Z"/><path class="cls-1" d="M154.93,116.43c.09.75.24,0,.33,0C155.11,116,155.07,115.87,154.93,116.43Z"/><path class="cls-1" d="M154.71,85l.39.07C155,84.47,155,85,154.71,85Z"/><polygon class="cls-1" points="152.69 78.98 152.45 79.54 152.81 79.81 152.69 78.98"/><polygon class="cls-1" points="155.4 75.41 155.45 75.66 155.31 74.69 155.4 75.41"/><path class="cls-1" d="M154.83,22.53l-.46.19C154.47,23.12,155,23.19,154.83,22.53Z"/><path class="cls-1" d="M135.78,12.72a1.23,1.23,0,0,0-1.28-.24A10.59,10.59,0,0,0,135.78,12.72Z"/><polygon class="cls-1" points="110.82 61.16 110.66 60.7 110.79 61.56 110.82 61.16"/><path class="cls-1" d="M145.61,146c-.19.45.21.43,1-.64l.19-1Z"/><path class="cls-1" d="M151.79,139.66c.31-.59.5-1.1.38-1.26s-.52,0-1.12.38c.21.13.1.37,0,.59a6.85,6.85,0,0,0-.3,1.11,6.38,6.38,0,0,1-.49.62c-.19.2-.35.37-.5.5s-.49.34-.49.2c-.19.44-1.36,1.53-1.55,2.28a14.56,14.56,0,0,0,2-2.05,15.11,15.11,0,0,0,1.63-2.42C151.81,139.27,151.74,139.56,151.79,139.66Z"/><path class="cls-1" d="M144.78,123.4l-.68.48A7.46,7.46,0,0,0,144.78,123.4Z"/><path class="cls-1" d="M141.14,110c-.48.36-.66.54-.66.6C140.92,110.26,141.28,110,141.14,110Z"/><path class="cls-1" d="M149.79,101l.61-.35,1.61,2.5-.09.06.09,0-1.62-2.51A2.5,2.5,0,0,0,149.79,101Z"/><path class="cls-1" d="M144.78,123.4l1.75-1.22C146.54,122,145.61,122.78,144.78,123.4Z"/><path class="cls-1" d="M146.52,139.36a9.68,9.68,0,0,0,1-.53l-1,.44A.36.36,0,0,1,146.52,139.36Z"/><path class="cls-1" d="M116.66,144.48l-.54.36a4.52,4.52,0,0,0-.34.46Z"/><path class="cls-1" d="M135.21,133.68c-.56.24-.57.72-.7,1a3.55,3.55,0,0,1,1.07-.83C135.56,133.76,135.45,133.71,135.21,133.68Z"/><path class="cls-1" d="M140.28,139.94l.69-.32Z"/><path class="cls-1" d="M132.55,133.48a.46.46,0,0,0,.28,0S132.69,133.43,132.55,133.48Z"/><path class="cls-1" d="M125.93,22s0,0,.06.05C126.06,21.9,126.07,21.84,125.93,22Z"/><path class="cls-1" d="M112,28.09l.34-.26a.47.47,0,0,0,0-.25Z"/><path class="cls-1" d="M133.23,110.6s0,0,0,0C133.39,110.45,133.33,110.49,133.23,110.6Z"/><path class="cls-1" d="M122.18,81.63c-2.29,1.27,3.07-2.95-.29-.91C122.28,80.63,119.46,83.38,122.18,81.63Z"/><path class="cls-1" d="M145.85,139.56l-1,.4A10.43,10.43,0,0,0,145.85,139.56Z"/><path class="cls-1" d="M121.89,80.72h0l-.35.21Z"/><path class="cls-1" d="M147.4,95.76a2.48,2.48,0,0,0-.55.27S147,96,147.4,95.76Z"/><path class="cls-1" d="M125.39,116.45a.08.08,0,0,1,0,0l.08-.06-.11.09C125.25,116.52,125.31,116.5,125.39,116.45Z"/><path class="cls-1" d="M140.36,92.91a8.81,8.81,0,0,0-1.42.63l.24-.06A4.41,4.41,0,0,1,140.36,92.91Z"/><path class="cls-1" d="M119.24,101.94c.13,0,.29,0,.43-.07l.67-.29Z"/><path class="cls-1" d="M130.94,31.61l1.18-.63C131.32,31.34,131.65,30.88,130.94,31.61Z"/><path class="cls-1" d="M146.43,139.15a1.32,1.32,0,0,1-.58.41l.71-.29C146.6,139.18,146.59,139.12,146.43,139.15Z"/><path class="cls-1" d="M140.92,96.32l-3.37,1.49C138.5,97.42,139.73,96.88,140.92,96.32Z"/><path class="cls-1" d="M143.17,45.6l-.71.45A4,4,0,0,0,143.17,45.6Z"/><path class="cls-1" d="M127.53,102.22a14.71,14.71,0,0,0-2,.51,3.09,3.09,0,0,0-.36.26Z"/><path class="cls-1" d="M132.14,31h0Z"/><path class="cls-1" d="M129.54,32.07l.13-.12c1-.92,1.08-1,1.21-1.12.52-.49,1-1,1.57-1.46,1-.66.74-.41.08.16l-2.16,1.85L132.19,30c.79-.6,1.71-1.28,2.34-1.72.12-.07.13-.06,0,.06-.59.46-.86.67-1.46,1.11.8-.56.7-.4.44-.12a10.58,10.58,0,0,0-.83.93c-.13.19-.15.32,0,.42l-.5.3c.88-.48,1.74-.93,2.23-1.13a8.89,8.89,0,0,0-.83,1,3,3,0,0,1-1,.81c.52-.51.28-.47.24-.59q-.19.3-.48.69c-1.5.74.7-.94-.2-.6-.32.43-.72,1-1.34,1.81l-.25.3-.4.45-.79.84c-.51.54-1,1-1.47,1.42-.72,0,4-4.14,1.31-2.17l.71-.63.35-.3.16-.13.72-.57c-.51.22-.64.22-.69.2s0-.08.1-.15.15-.14.08-.15-.29.07-.65.12a1.29,1.29,0,0,0-.2.15l-.75.75c-.58.59-1.06,1.11-1.53,1.62-1,1-1.9,2-3.72,3.74-.6,1,.56,0,0,1-4.69,5.33-4.87,3-8.1,7.13A10.27,10.27,0,0,1,112.05,51l.5-1.3a14.86,14.86,0,0,0-2.83,3.43l1.85,2a15.41,15.41,0,0,1,2.52-2.26c-.51.77-2.68,2.69-2.09,2.25,2.73-1.87,1.49-1.8,3.36-3.49l.73,0c3.75-3.5,7.72-7.53,12-11.22-.14.31-.79,1.05.33.33a98.28,98.28,0,0,1,18-12.59c.66-.59,1.33-1.15,2-1.7.53-.3,1.07-.38.55,0a7,7,0,0,0,1-.54l-2.35-3.1c-.15.19,0,.15.13.13l2.13,2.81c-.13,0-.25,0-.11-.2l-1.86-2.45a.7.7,0,0,1-.15.24c-1,1.12-1.6,1.27-1,.48-3.08,3.66-9,10.23-12.83,13.47l.6-.79c-2.88,2.66-2.46,3.78-5.3,6.07l.43-.55-2.75,2.71-3,3.06-8.27,8.37a28,28,0,0,0-1.94,3.78l.22,0a12.55,12.55,0,0,1,1.61-.23,5.56,5.56,0,0,0,2-.25,15.3,15.3,0,0,0,2.39-1.72l5.35-2.38c.78-.35,1.68-.78,3.07-1.48l1.13-.56.78-.38,2-1c1.62-.84,2.11-1.79,4-3l.27.38,2.45-1.9,1.69-.3,1.8-1.13c-.76.39-1.67.68-1.62.51,2.79-1.78,7.2-3.6,7.38-3.44l3.83-2.36L150,37.93l-2.33,2.37a10.84,10.84,0,0,1,1.6-2c-2.74,3.17-.88.16-3.4,3,.45-.27,0,.39,0,.52a75.5,75.5,0,0,0-7.11,6.18l.24-.64c-4.36,3.78-9,8.16-14,12.36,1.87-1.4,1.82-.63.4.64l-.89.12c-.74,1,1.63-1.14-.05.77-1.89,1.52-1.61.63-.65-.39l-2.14,2c-.23,0,.25-.51.27-.77-.73,1-4.21,2.89-5.22,4.4h-.22l-8.76,7.33,2.08,3.54,3.05-1.31c-.08-.44,1.88-1.16,3.19-2.13A129.13,129.13,0,0,0,128,68.8c2.85-1.71.7-.76,1.9-1.67.4.24,4.53-2,2.51-.63A137,137,0,0,0,144.64,59c-.74.27-1.53.67-1.21.32,1.08-.72,2.59-1.42,2.54-1.16l-.27.21c2-1.46,4.34-2.93,6.73-4.37l-1.88-2.14c-4.2,4.38-9.08,8.29-11.89,11.63l.23-.27c-1.5,1.58-3,3.13-4.59,4.68-2.34,1.9,1.18-1.4-.67-.13-5,5.07-8.66,7-13,10.91-3.79,1.64-11,8-16.36,11.4l2,3.58c.78-.26,1.49-.48,2.15-.65l-.43-.12c1.38-.82,1.84-.56,3-.93-.23-.13-1.69.41-.83-.09,12.36-5.2,25.89-9.75,38.77-14.55,3-1.13,3-1.77,4.3-2.54L151.41,72a15.68,15.68,0,0,1-3.17,2.81l1-1.57c-7.1,7.22-15.53,13.62-22.91,20.22a4.35,4.35,0,0,1,1.06-1.19c-1.85,1-6,4.82-5.89,5.07-1.23.93-.45,0-1.28.48-1.78,1.13-3.87,3.59-5,4-.18.07.4-.45.69-.71-.53.53-2,1.59-3,2.38L114.9,107c1.06-.41,1.74-.72,1.1-.69,3.59-1.11,6.64-2.72,9.5-3.61,1.63-1.14,6-2.26,6.32-3.11,0,.74,6.24-2.13,8.24-3.45-.63.52,2-.67,1.24,0,2.44-1.16,4.61-2.37,4-2.48,3.09-.92,5.76-2.74,8-4L151.47,87a10.14,10.14,0,0,1-3,2.37c-5.48,5.83-10.6,11.16-15.64,16.28-.29-.67,5.64-5.58,4.93-5.88-2.35,2.48-4.13,4.5-5.94,6.49l-.7.75c-.36.39-.73.77-1.11,1.16l-2.24,2.28c-1.53,1.53-3.14,3.11-5.14,5-1.11,1-1.09.89-.69.39s1.2-1.38,1.42-1.67c-1.9,1.94-3.77,3.8-5.67,5.67-.23.62-.55,1.3-.82,1.94s-.52,1.25-.81,1.88a8.36,8.36,0,0,0,1.33-.36,2.11,2.11,0,0,1-.66.25c.48-.1.89,0,1.28-.44l-.6.23c-.18-.11.49-.4,1.72-1.16a37.58,37.58,0,0,0,3.26-2.17c-1.2,1-1.17,1.05-.94,1s.78-.23.84-.09c.5-.2.46,0-2,1.92l-.3.25.08,0a22.66,22.66,0,0,0,3.23-2.47c1.3-.74,1.62-.79-.68.91,3.29-2.14,4.44-3,5.44-3.74s1.84-1.35,4.28-2.85a20.23,20.23,0,0,1-1.84,1.58c1.5-1.09,2.83-2.09,4.25-3.08l1.06-.72.81-.54c.56-.37,1.19-.75,1.91-1.16-.12.18.26.08-.57.59,4.76-3,7.74-5.7,13.14-8.71-.64.8-.08.5.69.07l-1.35-2.08c-.66.39-1.48.89-1.75.76l-2.66,2,1.25-.53c-2.41,1.63-4.28,3.45-6.44,4.74l1.64-1.44-4.39,3.25,2.64-1.62c-2.23,1.94.66.39-2.58,2.51.61-.5-2.36,1.7-3.78,2.33h0a25.67,25.67,0,0,1-3.94,3.2c-.55.19,0-.77-.37-.64-.86,1.21-5.36,4.22-6.47,5.72.4-.46.25-.71,0-.64l-.7,1c-1.14.73-1.33.81-1.3.49-1.62,1.23-1.26,1.17-1,1.14s.25,0,.08.16a4.84,4.84,0,0,1-.5.4l-1.16.84c.33-.3.16-.24.73-.77l-.48.36-.59.46-1.18.94q-1.15.92-2.31,1.89l-4.3,3.65,0,.12s0,0,0,0h.18l.71-.05,1.38-.08,2.6-.17c.41.25-.85.39-2.13.52s-2.63.2-2.08.41c1.2-.08,2.3-.2,3.46-.31s2.37-.32,3.51-.48c.58-.08,1.18-.21,1.76-.33l1.6-.37c.81-.2,1.61-.45,2.42-.67,3.19-1,6.27-2.09,9.21-3.13l-1.11.34c.53-1,4.48-1.28,7.22-2.89-.68.36-.75.8-.59.64a106.56,106.56,0,0,0,10.32-5l-.85-1.34-2.7,2.43.48-.66c-2,1.44-5.16,4.05-7.34,5.63-.51.65-1.74,1.57-.82,1.23-7.26,4.15-12.32,10-19,13.35.73-.49,1.63-1.33,1-.93q-2.53,1.85-5.1,3.65c.61,0,.8-.28,2.05-.78a20.19,20.19,0,0,1-3.24,2.57c1.76-1.37.55-.86-.59-.34l.66,1.18.91-.27c-.23,0,.1-.29,0-.35,3.23-.84.2-.86,4.43-2.39l-.13.26c1.47-.8,2.77-1.67,4.43-2.39.85,0-1.54.92-1.5,1.27,2.29-1.1,4.22-2.82,6.47-3.44-.93.56-2.34,1.23-3.27,1.79a22.48,22.48,0,0,0,4.4-1.6l-.17.07,4-1.64-1,.35c2.43-2.3,5.78-2.93,9.36-5.37-3.49,2.36-.46.63-.56,1.18,1-.36,2.61-.94,2.24-.62,1.68-1.19,3.18-1.18,5.54-2.88.05,0,.23,0,.47-.13l-1.42-1.78c-.4.45-1,1.17-1,.75-1.55,2.07.59-.3.59,0a26.53,26.53,0,0,1-4.59,5.17c-1.88,1.76-4,3.57-6,5.63l-3.5,3.17.48.91c1.55-.83,2.82-1.56,5.28-2.66,1.55-.35-1,1-1,1a41.15,41.15,0,0,0,6.39-2.47c-.41.3.1.22.84.11a6.1,6.1,0,0,0,1.48-.84,4.72,4.72,0,0,1,1.72-.74c-.16.15-.33.33-.49.51a1.68,1.68,0,0,1-.3.28l-.54.36.73-.35.44-.24,1-.55c.74-.39,1.64-.85,2.6-1.29,0,.15-.5.43-1,.7s-.95.54-1.24.74l3.23-1.51c-.2.39-.32.73-.07.71l1.23-1.32c-.46.6-1.17.91-1.1.71a.39.39,0,0,1,0-.18c-.74.37-.93.38-1,.31s0-.25.12-.36l1.48-.67c.49-.65-1.4.12-3.16.94l-2.49,1.22c-.34.17-.78.37-1.21.56s-.84.36-1.23.5l1.08-1.09-3,1.73c-.74.11-1.34,0,.18-.72-2.36.59-1.91,1-4,1.41-.23,0-.15,0,0-.14l-2.13,1c.38-.29-.52-.27.86-.71a32.21,32.21,0,0,0-5.2,2.09l.48.92a9.37,9.37,0,0,1,2.34-1.6l-.26.24c2.29-1.88,2.29-2.1,2.17-2.18s-.41-.09,1.07-1.73c1-.36,2-.75,3-1.16l.1-.74c.45-.41,1.31-1.24,1.29-.95,1.35-1.85-.41.14.29-1,1.77-1.36,3.82-4.18,5.07-5.54l-.32-.4a2.06,2.06,0,0,1-1.23.22c-.79.76,2.64-.95-.07.6-1.14-.33-3.2,1.65-5.76,2.46.57-.72,2.94-1.6.37-.79-1.16,1.3-4.75,2.07-6.73,3.14.14.54-4.32,2.29-7.65,4.06.14-.27-6.54,2.74-9.8,4.06l.06-.13c-.31.64-2.55,1.71-4.62,2.74l.52.94,1.3-.91c.08.29-.14.6-1,1.33l-1-1.81a2,2,0,0,1,.35-.24l-.38.18L114.4,146l1.72-1.13a13.3,13.3,0,0,1,2.29-1.92l-.29.69c2.74-1.86,5.24-4.13,8.86-6.36,0-.45-3.37,1.08.13-1.72.26.07.6.26-.31,1a12.4,12.4,0,0,1,1.7-1.32l-1.25,1.33c1.66-1,.65-.83,1.92-1.7.15.26,1.05-.5,1-.18a13.82,13.82,0,0,0-1.58,1.13,27.3,27.3,0,0,1,4-2.32c-.23,0-.24-.32.76-1.11,2.63-2,1.12-.39,2.75-1.43.52-.64,2.32-1.76,2.09-2.14a3.17,3.17,0,0,1,1.4-.67c1.25-1.19,6.23-5,4.43-4.17l-.36.25.2-.19h0c1.75-1.63,3.66-3.19,5.6-4.71l-.5-.79c-3,1.33-6.14,2.58-9,4l0-.14c-3,1.49-6.72,2.92-8.83,4-.93.32-2.27.49-1.93.18a23.6,23.6,0,0,1-6.14,1.78c2.38-.85-.89,0,2.45-.82-1.58.39-2.57.49-3.57.71l-.73.14-.45.12-1.38.43c.55-.29.29-.36-.05-.38a6.51,6.51,0,0,0-1.42.14,1.17,1.17,0,0,0,.58.25,11.25,11.25,0,0,1-1.32.16l-.57,0h-.27c-.08,0,0,0,0-.06l.13-.1.35-.27c.3-.07.63-.16,1-.28l.25-.09.09-.05a6.8,6.8,0,0,0,1.5-1.1l.57-.61.35-.38.19-.2.38-.35a27.82,27.82,0,0,1,6.35-4.76c1.19-1.36-3,2-2,.73,2.48-1.84,5.48-3.2,6.26-3.78,3.55-2.3,2.72-2.94,6.41-5.39-.56.19-1.27.11,1.32-2,2.56-1.74,3.53-1.59,2-.35-.6.45-.92.61-.93.54-.78.63-1.79,1.46-.69.9l.22-.38c1.35-.75,4.82-3.2,4.17-2.39,1.81-1.47.65-.81-.82.11,3.39-2.06,5.08-3.53,8.56-5.66-.59.28-1.2.44-.67.08l.6-.37-1.3-2c-4.32,2.5-1.62,1.43-4.87,3.53-2.1,1,.36-1-3,1.36-2.22,1.16-.7-.12.07-.77a59.87,59.87,0,0,1-7.89,4.54l1.6-1.16c-.48.35-.92.65-1.35.92L134,110s0,.06.12,0l.28-.07.57-.14-.71.39a.78.78,0,0,1-.21.09c-.08,0-.13,0-.13-.08a.79.79,0,0,0,0,.52c0,.18.06.35-.54.91a7.05,7.05,0,0,0-1.35.8c-.5.32-.9.54-.47,0,.77-.38.91-.61,1-.87a2.89,2.89,0,0,1,.81-.93c-.19.18-.42.32-.5.3a2.61,2.61,0,0,1,.32-.34c.09-.25.05-.18-.32.17s-.92.89-1.53,1.41a12,12,0,0,1-1.28,1c.65-.56,1.09-1,1.39-1.27s.42-.41.22-.26a37,37,0,0,1-3.52,2.94c0-.1-.48.23-1.13.7s-1.4,1-1.67,1.19a.44.44,0,0,0,.17,0c-1.46,1.14-2.21,1.64-3.23,2.32l.38-.44c1.49-1.16.13.07,1.11-.76-1.17.81.41-.55,1.82-1.73l1.9-1.59c.48-.41.73-.65.66-.7.7-.55,1.24-.9,1.76-1.24s1-.67,1.39-.95a.24.24,0,0,1-.1,0c-.08-.07.52-.51.95-.79s.72-.46.73-.66a7.36,7.36,0,0,1-.76.31c-.08,0-.1-.09.11-.54-.61.71-1.06,1.27-1.35,1.67-.21,0-.21-.29,0-.74a9.8,9.8,0,0,0-.92,1,4,4,0,0,1-.69.75c-.27-.14.1-.38-1.39.66a9.11,9.11,0,0,0,2.28-2.09,9.94,9.94,0,0,1,2.09-2.09q.39.24.81.45l.25-.15.59-.53c.4-.38.79-.75,1.17-1.14.76-.76,1.48-1.55,2.23-2.37a69.63,69.63,0,0,1,5.33-5.43L141.2,101c.33-.81,2.62-2.61,3.91-4.06.07.33,1-.43,1.74-.88-.23-.08,3.15-3,3.13-3.84l2.19-1.58c.58-.53,1.06-1,1.45-1.41L152,86.9c-2.71,1.55-3.38,2.67-6.9,4.32,1.11-.91-.87-.16,1.8-1.74-1.38.68-2.65,1.25-2.58,1.44-.89.23-3.69,2.22-5.1,2.56A6.52,6.52,0,0,1,137,95c-.2,0-.05-.14-.05-.14s-2.4,1.31-.88,1c-4.7,1.14-12.21,5.35-16.39,6.08-1.85.78-3.94,1.62-5.79,2.34l.9,1.67,3.36-2.64c-.1.19.09.12-.39.45,3.53-2.38,1.54-2.26,5.53-5,2.23-1.16-1.85,1.79-.53,1,1.13.35,4.48-3.72,7.36-5.34l-.58.54c2.14-1.31,4.47-4.13,7.61-6.69,0,0-.09.19.08.13,1.81-2.17,5.69-5.72,8.52-8.4-.66,1.08-1.2,1.32-.39,1.12,1.28-1.2-.79-.12,1.75-2.52,1-.59,3-2.14,3.52-2.06l-2.45,2.22c1.62-.73,3.17-2.86,4.52-4V75l.79-.76L152,71.89c-3.67,1.59-3.92,2.22-8.57,4l.59,0c-2.55,1.63-2.44.6-5,2.09l-1-.23c-1.76.85-6.16,3-9.38,4.42,1.69-1.13,5.42-2.84,7.69-4a56.45,56.45,0,0,0-7,3.09,14.92,14.92,0,0,1,2.32-1,50,50,0,0,1-8.46,4.06c.21-1.32-9.48,3.41-12.41,3.6-1.91.9-3.85,1.69-5.84,2.46l1.43,2.62c3.88-2.75,8-5.4,12.45-8.73-2.81,1,1.86-1.41.91-1.85a15.48,15.48,0,0,1,2.19-1.63q2.41-1.48,4.8-3c1.22-.61-1.27,1.25-1,1.31,3.26-2.46,1.59-.75,3.86-2.24-.64.08.83-1.24,2.7-2.64-.93.59-1.87,1.18-2.81,1.74,4.11-4,4.33-2.5,8.38-6.65l-1.18,1.42c1-1,3.12-2.84,5.07-4.75a31.88,31.88,0,0,0,4.56-5.21c.44-.29,1.11-.61.23.36a84.86,84.86,0,0,0,6.43-7.16l-2.23-2.54a70.57,70.57,0,0,1-9.61,6.25l.33-.47a15,15,0,0,1-3.23,2.16c0-.12.33-.45-.19-.16a30.31,30.31,0,0,1-4.36,2.79l1.16-.94c-6.06,3.05-8.87,5.51-14,8.13-.27-.58-5.19,1.48-7.68,2.43l0-.12c-1.77.76-3.41,1.46-5,2.16l2.11,3.59c4.07-3.46,7.34-6.65,11.5-10.38,4-2.37,12.06-9.79,17.84-14.39-.93.65-.21-.51.73-1.43,1.38-1,3.26-3.53,3.46-2.89l-.47.4c1.37-.42,3.91-2.93,6-4.79l-.2-.89a35.1,35.1,0,0,0,3.13-2.38l-1.91-2.64c-6.29,3.09-13.47,8.14-16.78,9-1.44,1-3.34,2.06-4.76,3.07l-.12-.42-1.14.6-.21.09-.35.14c-.22.1-.41.2-.71.37l-.72.46c.46-.37.87-.71,1.23-1l-2.22,1.74c-1.33,1-3.1,2.32-4.45,3.24-.2.11-.22.08,0-.13l3.47-2.61c.43-.45,1.15-1.08,1.71-1.56s1-.83,1.26-1.13a2.39,2.39,0,0,0,.22-.23l.1-.13a.34.34,0,0,1,.08-.1l.24-.27c.65-.71,1.29-1.45,1.89-2.2,0,.13,0,.39-.64,1.08,2-2,7.84-7.33,6.52-7.22.45.34,4.31-4.29,6.37-6.73l-.05.64a27.36,27.36,0,0,1,4-5.22c.66-.6.78-.32-.12.45,2.24-2,1.34-1.93,4-4.33l-.75,1.14c.71-.7,1.15-1.16,1.43-1.48l-1.41-1.86a14,14,0,0,0-1.93,1.55,31.92,31.92,0,0,1-3.18,1.88,8,8,0,0,1-2.42,1,10.38,10.38,0,0,1-3,2.55c-.28,0,.2-.43.45-.65-4.37,2.72-5.86,4.89-8.87,6.75-.15-.06-.37,0-.62.18,3.17-2.56,5.84-4.48,5.61-4.27-.23-.31-2.92,1.61-1.13-.39-2,1.83-5.12,5.13-7.69,7.05a2,2,0,0,1-.41.17l.23-.25A13.67,13.67,0,0,0,124,40.08c-.83.61-1.34,1-2.09,1.64-.5,0-3,2.35-4.19,3.42.38.23-1.26,1.6.47.53-.22.15.19-.24,1-1,.17-.17.39-.36.49-.49l-.06.1c.8-.72,1.85-1.65,3-2.69a14.64,14.64,0,0,1-3.25,3c-.45.76-1,1.58-1.26,2-2.06,1-5.47,3.7-6.15,3.83l-2.44,2.38,2.19,2.31c3-3.1,6.27-6.46,7.59-8.63a4,4,0,0,1,1.78-1.26c-.53.63-1.23,1.31-1.46,1.7,1.87-2.13,5.92-5.94,6-6.81,2.72-2.33-1.07,1.77,2.36-1.74l-.36.59c1.17-1,2.22-1.91,3.2-2.86l.72-.71.77-.79,2.09-2.17c2.68-2.84,4.62-5.1,6.49-7.17a13.52,13.52,0,0,1,1.69-2.29c.77-.91,1.75-2,2.5-2.94l-.44.17.44-.16-.23.27.22-.27c-2,.86-3.75,1.47-5.75,2.31l-11,6.59-3.28,2c-.9.54-1.81,1.07-2.65,1.54a20.58,20.58,0,0,1-3.13,1.54l.52-.52c1-1,1-1.14,1-1.21s-.38,0-.28-.28c.58-.43,1.14-.83,1.66-1.19v0a2,2,0,0,1,.31-1.1,14.38,14.38,0,0,1,1.82-2.06l2.44-2.28a36.19,36.19,0,0,0,5.41-6l-.77.41c.47-.51,1.1-1.23,1.74-2l-.72-1c-2.08.81-4.21,1.78-4.06,1.45a3.21,3.21,0,0,1-1.46.81l-.16-.18c-1.68.9-3.33,1.86-4.94,2.86-2,1-1.94.68-2.12.53s-.58-.2-3.39,1.43c-2,1.3-5.38,4.29-4.53,3.92.8-.54,2.13-1.24,2.32-1.08-.59.43-1.17.86-1.75,1.31.07.82-.9,2.26,3.76-.19,1-.78,1.92-1.52,2.9-2.26l1.19-.3c-.88.52-1.77,1-2.64,1.58A11.92,11.92,0,0,0,121,24.47a3.89,3.89,0,0,0,1.52-.4c1-.76,1.92-1.49,2.9-2.22.51.06-1.21,1.19,1,.29,1.39-1-1.73.13.72-1.24,1.73-.43,1.36,0,3.14-1,.34.05,0,.33-.74.72,1-.58,2.48-1.17,3.64-1.69l-1.76-2.56a7.2,7.2,0,0,0-1,1.52C128.92,19,126.36,22.62,126,22c-.14.27-.58,1-1.13,1.76-.28.4-.58.82-.88,1.22l-.45.59-.22.27c-.09.1-.17.21-.26.3a1.1,1.1,0,0,0,.16-.28l.08-.19a.55.55,0,0,0,0-.2c0-.06-.12,0-.29.14l-.14.13-.25.26-.62.68-1.53,1.7c-1.1,1.22-2.27,2.54-3.25,3.55s-1.78,1.75-2,1.69a16,16,0,0,1-1.55,2.23c.29.2.33.62.33,1.09s0,1-.11,1.52a4.55,4.55,0,0,0,1.3-.1,1,1,0,0,1-.54.12c.9.06.86.41,1,.89a6,6,0,0,1,1.41-1c2.35-1.65,5.18-3.47,6.86-4.73,1.6-.61,1.16-.15.08.68s-2.64,1.93-2.18,2a23.16,23.16,0,0,1,3.81-2.77c.84-.56,1.61-1.07,2.06-1.41A2.91,2.91,0,0,0,128,32a.28.28,0,0,0,.07-.11c0-.05,0-.08-.15-.06l.66-.26.26-.11.17-.06.23,0c.09,0,.19,0,.24.3a.89.89,0,0,1,.45-.73,3,3,0,0,0,1-.77c.25.06-.14.48-.3.69s-.24.29.33-.16l.05,0a13.75,13.75,0,0,1-1,1ZM128,40.25h0l-1.27,1.09ZM133.34,36c-.67.49-1.48,1.12-2.33,1.81-.28,0-.17-.24.37-.66C131.15,37.44,132.46,36.5,133.34,36Zm-13,7c.78-.77,1.12-.94,1.28-1-.38.34-.83.74-1.4,1.29a1.34,1.34,0,0,0-.06.12A1,1,0,0,1,120.31,43Z"/><path class="cls-1" d="M119.21,44.69c-.12.11-.17.18-.32.32l.55-.36.2-.35Z"/><path class="cls-1" d="M144,124l.12-.08a1.45,1.45,0,0,1-.28.14Z"/><polygon class="cls-1" points="136.58 49.47 136.52 49.38 136.04 49.75 136.58 49.47"/><path class="cls-1" d="M115,145.39a1.66,1.66,0,0,0,.49-.11A1.87,1.87,0,0,0,115,145.39Z"/><path class="cls-1" d="M129.79,138.54l2.15-.85C131,138,130.33,138.31,129.79,138.54Z"/><path class="cls-1" d="M141.22,133.39a.5.5,0,0,0,.14-.26h0Z"/><path class="cls-1" d="M116.76,123.53l-.19,0C116.14,123.65,116.41,123.62,116.76,123.53Z"/><path class="cls-1" d="M134.43,112.88c.47-.44.92-.87,1.43-1.29C135,112.19,134.31,112.66,134.43,112.88Z"/><path class="cls-1" d="M141.29,96.16h0l-.38.17Z"/><path class="cls-1" d="M138.1,110a17.19,17.19,0,0,0-2.24,1.61C136.57,111.1,137.43,110.54,138.1,110Z"/><path class="cls-1" d="M152,137.36l-.22.25a.88.88,0,0,1,.17-.1Z"/><path class="cls-1" d="M152,137.51l-.07.16C152,137.55,152.08,137.45,152,137.51Z"/><path class="cls-1" d="M151.71,138.09a3.9,3.9,0,0,0,.2-.42C151.75,137.87,151.55,138.11,151.71,138.09Z"/><path class="cls-1" d="M141.41,141.17l-.12.21Q141.43,141.28,141.41,141.17Z"/><path class="cls-1" d="M136.73,143a46.13,46.13,0,0,0,4.46-1.48l.1-.17C140.64,141.88,137.7,142.38,136.73,143Z"/><path class="cls-1" d="M148.17,130.76q-1.42,1.61-2.92,3.12c.63-.44,1.46-1,.16.44,2-1.81,1.74-1.7,1.47-1.59S146.34,132.88,148.17,130.76Z"/><path class="cls-1" d="M139,132.13c2-1-.12-.21,0-.34C137.72,132.54,137.42,132.72,139,132.13Z"/><path class="cls-1" d="M128.17,126.66l.1-.43C126.64,126.79,128.3,126.38,128.17,126.66Z"/><polygon class="cls-1" points="111.8 130.02 109.19 131.85 109.2 131.86 109.86 131.76 110.83 131.53 110.28 131.58 110.16 131.46 111.8 130.02"/><polygon class="cls-1" points="123.86 123.83 123.3 124.34 125.5 122.44 123.86 123.83"/><path class="cls-1" d="M122.91,100.1l.66.25C124.63,99.82,124.66,99.24,122.91,100.1Z"/><path class="cls-1" d="M143.9,75.43a10.21,10.21,0,0,0-3.66,1.27C141.69,76.16,143.19,75.77,143.9,75.43Z"/><polygon class="cls-1" points="152.12 40.9 151.21 41.96 152.51 40.64 150.26 37.53 149.62 37.93 150.29 37.58 152.47 40.6 152.12 40.9"/><path class="cls-2" d="M95.66,18.41c-.13,0-.43,0-.37.07h.5Z"/><path class="cls-2" d="M94.75,18.84a3.27,3.27,0,0,0,1.13.05c-.48-.05-.28-.07-.85-.12-.07-.05.15-.1.33-.1-.13,0,.11-.1-.2-.11s-.4.18-.08.27A1.82,1.82,0,0,1,94.75,18.84Z"/><path class="cls-2" d="M94.21,24.47l.05,0S94.21,24.46,94.21,24.47Z"/><path class="cls-2" d="M94,28s-.06,0-.1,0A.18.18,0,0,0,94,28Z"/><path class="cls-2" d="M93.51,28.55l0,0S93.48,28.55,93.51,28.55Z"/><path class="cls-2" d="M94.21,24.47l-.16.1C94.21,24.57,94.17,24.52,94.21,24.47Z"/><path class="cls-2" d="M96,19.56a.44.44,0,0,0-.13,0l.06,0Z"/><path class="cls-2" d="M93.75,23v0l-.21,0Z"/><path class="cls-2" d="M93.63,21.79a2.85,2.85,0,0,0,.58,0,.63.63,0,0,1-.29,0Z"/><path class="cls-2" d="M94.29,19.9l-.06,0Z"/><path class="cls-2" d="M93.69,23.8l-.15,0Z"/><path class="cls-2" d="M97.06,56.68h0Z"/><polygon class="cls-2" points="94.94 57.99 94.92 57.97 94.69 57.96 94.94 57.99"/><path class="cls-2" d="M93,29.65h0C93,29.62,93,29.63,93,29.65Z"/><path class="cls-2" d="M93.48,39.58c.37-.12.48.18.9,0C94.22,39.6,93.72,39.43,93.48,39.58Z"/><path class="cls-2" d="M95.93,19.59a.09.09,0,0,1,0,.05S96,19.6,95.93,19.59Z"/><path class="cls-2" d="M94.38,39.58Z"/><path class="cls-2" d="M93.31,32.14l.19,0Z"/><path class="cls-2" d="M93.87,30.26l-.05,0S93.87,30.28,93.87,30.26Z"/><path class="cls-2" d="M93.93,33.09s-.09,0,0,.07h0C93.89,33.14,93.86,33.12,93.93,33.09Z"/><path class="cls-2" d="M94,34.09l.08,0,0,0Z"/><path class="cls-2" d="M96.93,53.6l-.38,0C96.85,53.63,97,53.78,96.93,53.6Z"/><path class="cls-2" d="M95.75,19.57a.53.53,0,0,1,.18,0s0,0,0,0Z"/><path class="cls-2" d="M97.26,33.07l-.06.16A.27.27,0,0,0,97.26,33.07Z"/><path class="cls-2" d="M97,46.35l0,0S97,46.36,97,46.35Z"/><path class="cls-2" d="M97.27,33.7a.92.92,0,0,0-.29.1l.11,0Z"/><path class="cls-2" d="M96.54,53.64h0Z"/><path class="cls-2" d="M97.52,54.72c0-.15-.54-.08-.86-.12-.15-.19.41-.08.7-.14-.15-.11-.65-.21-.63-.29a.64.64,0,0,1,.24,0c-.44-.13,0-.36-.57-.51l.14,0a6.62,6.62,0,0,1-.76,0c0-.07-.35-.13,0-.15,0,0,.13,0,.24.07l-.15-.08c.52-.05.18.1.56.11-.17-.14-.59-.31-.44-.42.51,0,.16.26.62.12l-.2.16c.81-.11-.06.1.8,0,.16-.21-.25-.25-.1-.46-.28-.06-.42,0-.7,0-.5-.32,1.28-.22.61-.46-.34-.06-1-.1-.64-.25l.58.06c.06-.21-.83-.13-.44-.35.23,0,.19.17.26.14.45-.14-.33-.11-.33-.22H97c-.07-.23-.44-.48-.53-.73a1.06,1.06,0,0,0,.47,0c-.25-.32.07-.67.38-1L96.86,50s.2,0,.28,0-.28,0-.45-.07.26-.08.39,0c-.37-.21-.8-.6-.33-.82l.13,0c.18-.17-.9-.2-.48-.36l.07,0c.2-.37-.2-.78.46-1.06-.63-.06.29-.37-.59-.4.43-.2.59-.14.89-.44,0-.08-.55-.12-.64-.22h.46l-.49-.14.56-.07L97,46.39a.57.57,0,0,1-.34.07c-.21-.14.32-.35.56-.35l-.39-.35a.85.85,0,0,1,.37.12c-.47-.19.48,0,0-.2a2.3,2.3,0,0,1-.37,0c.28-.08.29-.27.17-.42l.32,0c.08-.25-.15-.53-.15-.82a1.07,1.07,0,0,1-.75,0l.49,0c-.31,0-.19.09-.56,0,.06-.11.56-.07.72,0L97,44.25a3.43,3.43,0,0,1,.41,0c-.31-.05.49-.22,0-.3h.15c0-.28-.17-.41-.19-.64-.42,0-.33-.1-.67-.17.13-.17.46-.36.43-.56-.21-.15-.36,0-.61-.11.38,0,.35-.21.62-.11a1,1,0,0,0-.39-.62.92.92,0,0,1-.35.05c-.07-.06.16-.13.34-.12h0c-.58-.34,1.12-.81.32-1.08h0l-.42-.29c.06-.13.29.08.52,0-.64-.31.09-.49-.34-.74,1.13-.21-.08-.71.64-1h-.27c-.26-.06.15-.08.22-.13-.21,0-.24.07-.39,0-.33-.58.38-1.21.61-1.82.07-.22-1.38-.11-.75-.39l.5.07c-.6-.44,0-.91-.5-1.34.11,0,.26,0,.26.07.36-.1,0-.34-.28-.34,0-.07.26,0,.41-.06s-.46-.23-.11-.28a.22.22,0,0,1,.15,0c-.18-.06,0-.28-.38-.22.2-.16-.19-.31.06-.44-.47-.08.22-.28-.44-.3.68,0,.54-.3.22-.39.21,0,.21-.1.5-.06,0-.12-.14-.23-.49-.2.8-.23-.66-.42.37-.56a3.85,3.85,0,0,1-.79-1c.68,0,.08.35.79.32-.29-.29-.87-.45-.72-.75.09-.08.3,0,.41.06-.28-.29,0-.58-.32-.83a.37.37,0,0,1,.18.05c0-.05.1-.13-.21-.11l.08.05c-.44.09-.93-.19-1.17-.19.88.06.22-.27,1.33-.16a.88.88,0,0,0-.41-.06c.06-.05.18-.07.42,0-.18-.18-.5-.11-.5-.28.15,0,.21,0,.38,0-.29-.08-.58-.15-.46-.3.09,0,.21,0,.21,0-.06-.25-.79-.4-.51-.68.64.06.21-.09.77-.12l-.18-.15-.27.07c0-.13-.4-.23-.22-.34l.23.09-.11-.24-.21.14c-.29-.12-.71,0-.56-.14.06,0,0-.12.34-.2h0c-.18-.06-.37-.12-.24-.21s.62,0,.74,0c-.47-.05-.14-.3-.64-.36A2.44,2.44,0,0,0,96,27l-.38,0a.73.73,0,0,1,.41-.07c.07-.18-.7.08-.4-.14,0,0,.08,0,.14,0,.16-.22-.25-.4-.07-.6.56-.07.14.17.62.08-.11-.27-.7-.55-.57-.83l-.06,0c-.8,0,.38-.21,0-.33a1.24,1.24,0,0,0,.36,0c.12-.19-.21-.37-.47-.65l.2,0c.18-.11.1-.29.19-.41-.21,0-.18-.1-.47,0,1.15-.41-.65-.68.31-1,0,0,.18.08.18.05l-.2-.27a2.14,2.14,0,0,0-.48.11c-.2,0-.37-.09-.37-.16a1.12,1.12,0,0,0,.75-.08c-.11,0-.22,0-.33,0,.61-.16-.7,0-.29-.21h.18c-.1-.07-.34-.13-.29-.21.4-.05.19.07.52.06,0-.11-.77-.19-.37-.3.11,0,.11.11.23.15.46-.13.34-.14.42-.22h0l.21-.2-.13.05c-1.05-.09-.2-.27-.89-.43.66.15.38,0,.83,0a1,1,0,0,1,.39-.12c-.37-.07.28-.16-.26-.26.15,0,0-.09.38-.09-.12-.11-.25,0-.43,0-.51-.16.58-.45-.11-.67-.29-.21-.79-.23-1-.42a.93.93,0,0,1,.53,0c.21-.12.17-.2,0-.3a1,1,0,0,0,.4-.05c0-.08-.54,0-.33-.15a5.87,5.87,0,0,1,.59.05c-.14-.09-.41-.17-.55-.27a1.34,1.34,0,0,1,.56.07.82.82,0,0,0-.65-.3l-.14.08s.34,0,.42,0c.32.08-.14.15-.28.16l-.1-.07c-.85.11.15.29.11.44l-.63,0,.53.13a1.15,1.15,0,0,1-.61,0c-.3.12.23.08-.11.19a.19.19,0,0,1-.11,0l.19.09c-.13,0-.44,0-.35,0-.35.2.48.28,0,.37l0,0c.22.25.46,0,1,.18L94,20.67h.46s0,.08-.23.08c.32.09.2,0,.49,0-.41.14.21.34-.51.4.35,0,.26-.13.51,0-.79.08.14.16-.22.29s-.19-.14-.55,0c.69,0-.14.23,0,.32.55,0,.24.21.43.36-.19,0-.29.33-.48.49h-.09c.55,0,.45.17.57.28a1.52,1.52,0,0,1-.61-.07v.11a.49.49,0,0,1,.33.12l-.41,0c0,.15.5.27.23.47.38,0,1.06-.19,1.33,0a2.66,2.66,0,0,1-.65,0s.17.05.08.09l-.35-.07c-.15.09.3,0,.27.1-.3,0-.21.06-.45.06,0,0,.12-.06,0-.08a.77.77,0,0,1-.44.21c.17,0,.4,0,.44,0s-.36.06-.51.15c.21,0,0,.13.44.11,0,0-.2.06-.32.08.19.07.06.35.53.25l0,0h0c.45.23-.23.51,0,.75h-.15c.17.14.11.32.43.41,0,0-.26.11-.44.1.11.11.28.11,0,.28-.26-.1-.23.05-.19-.11-.12.15-.36.19,0,.33-.38,0-.48.12-.36.19l.27-.11c.06.07,0,.14,0,.21l-.5,0c-.59.31,1,.5,0,.75.35.07.24-.17.65-.11-.06.14-.77.3-.77.34-.27.19.73.15.55.35a1.36,1.36,0,0,1,.82.07c-.06.14-.74.19-.88.11s0-.05.1-.05a.35.35,0,0,0-.34,0l.18,0c-.18.07-.15.25-.45.22a.33.33,0,0,0,.39,0c-.26.18,0,.27-.17.45a.77.77,0,0,1,.3,0c-.21.27.34.11.43.28-.27.11-.65,0-.42.16a.88.88,0,0,1-.62,0c.35.16-.22.31-.28.41l-.14-.08c.08.05.08.09.08.13l.36-.06c-.06.05-.06.1-.21.1a4.92,4.92,0,0,1,.91,0c-.18.07.2.2-.27.23.15-.21-.48,0-.56-.14.06,0,.06.08,0,.13a.25.25,0,0,1-.13,0c-.41.21.54.08.53.29-.26,0-.5.06-.44.09s.44-.05.65,0c-.21.14.15.14.13.21l.1-.08c.26,0,.23.09.32.18-.21,0-.15-.08-.24,0,.47.09-.48.24-.16.38-.18.07-.5,0-.62.08.35.15-.36.18-.07.35a.79.79,0,0,1,.62,0l-.26-.27.53.17c0-.09-.23-.18-.17-.23a.72.72,0,0,0,.5,0c-.54.13.32.22,0,.36l-.89,0c-.39.21.46.34.25.61l.15-.09c.35,0,0,.16.19.24a2,2,0,0,0-.58.1c.22,0,0,.19.57.2l-.38.12c-.16.22.85.23.75.43-.32,0-.53,0-.77-.09,0,.07,0,.13.16.13-.19,0,.4.18.12.25.13,0,.44,0,.42.1h-.15c.15,0,.2.12.53,0-.92.22.07.58-.72.77a1.41,1.41,0,0,1,.23.46c-.09,0-.15,0-.12,0-.27.19.85.1.55.31-.48.12-.26-.11-.44,0-1,0,.14.26-.43.41l-.06,0c-.33.12.37.26.31.44a.68.68,0,0,0-.15,0,1.25,1.25,0,0,1,.81.51c-.38-.05-.21-.08-.59,0,0,.08.62,0,.73.12a2.92,2.92,0,0,1-.8.19l0-.15c-.53.08,0,.19-.07.26h-.23c.08.22.67.21.63.45l.17,0c.59.12-.32.11.11.24l-.59,0a3.41,3.41,0,0,1,.69.45,3.51,3.51,0,0,1-.93-.37.34.34,0,0,0,.34.33c-.06,0-.2-.08-.11-.11.46.1.7.23.69.4-1.15,0-.29.44-1.18.57.43.3-.17.6-.1.94.89-.13,0,.1.94.07.06.08,0,.12,0,.12l-.54.25c-.27.06-.2-.07-.41-.06-.07.17-.39.07-.63.19.33,0,.47.06.34.16l.43-.14c.49.24-.77.21-.29.46L93,40.36c.18.13,0,.47.74.6-.11,0-.36,0-.42,0-.11.31.78.68.33.92l-.22,0c.06,0,.42.09.19.17s-.22,0-.24,0,.4.15.27.23l-.26-.07c-.29.3.62.46.78.71a1.16,1.16,0,0,0-1,.35h-.09c-.08.34.55.58.81.91-.72.19-.3.67-.71,1a1,1,0,0,1,.58.07c-.13.07.46.21-.14.19v0c-.6,0-.44.2-.46.33l.8,0c-1.16.31.42.83-.62,1,.2.08.2.18.39.25h-.42a.55.55,0,0,0-.06.57l-.31,0c0,.14,1.23.19,1.25.33l-.63,0c0,.26-.55.52,0,.77-.1,0-.28,0-.3,0,0,.12-.44.46.43.43-.56,0-.06.26.19.4l-.41,0c.53.13.67.13.82.3,0,0-.33,0-.23,0-.22.12.4.1.17.26L94,49.85c0,.13.11.12.42.2.16.08-.11.25-.49.26.23,0,.54.1.43.18a.78.78,0,0,1-.28,0c-.28.22.49.34.07.48a1,1,0,0,0-.25,0c0-.18,0-.32.07-.31-.38,0-.45.14-1,0,.28.12.91.32.73.46h-.18s0,.06.06.09-.11.07-.11.11c-.32,0-.18.16-.19.23.42,0,.35.09.7,0,0,0,0,0-.07-.06l0,0h0a.9.9,0,0,1,0-.18c.21.06.39.12.16.19l.68.11c-.59.09-.91.27-1.28.3.24.22.15.51.94.66.1.06-.23.07-.35.09s-.07-.08-.18-.1c.2.12.07.36.62.4-.25.15-.5-.09-.42.12l-.17,0c-.89.4,1.4.71.26,1.15a.53.53,0,0,1,.2-.05c-.52.52.45,1.11-.36,1.61-.16.15.19.17.45.27l-.45,0,.52.17c.38.23-1.12.36-.4.65l.3,0c-.06.1.17.33-.18.3.06,0,.32,0,.16.08h-.24l.4.26c-.17.19-.94,0-1,.22a1.62,1.62,0,0,0,.84.28s.15-.1.39-.1l.12.1a4.55,4.55,0,0,0,1.91-.09l-.43-.18.34,0,0,.14c.32-.07,0-.13-.15-.19a1.15,1.15,0,0,0,.37-.06l-.66-.17c.27,0,.54.08.69,0-.3-.09-.61,0-.81-.08.32-.07.58,0,.31-.13a.73.73,0,0,1,.37.05c-.21-.09-.09-.22-.46-.27.4-.07-.09-.28.57-.25-.16,0-.52-.16-.54-.24.79.16,0-.27.9-.22-.71-.12-.31-.37-.7-.56.06,0,.17,0,.13.05s.28-.12.42-.19a3.3,3.3,0,0,1-1.08-.27c.57-.12.69.09,1.23.06-.47,0-.47-.23-.87-.19a2,2,0,0,1,.66-.12c-.73,0-.12-.09-.57-.18.37-.13.69,0,.47-.17A.7.7,0,0,1,97.52,54.72Zm-1.21-3.59h0l0,.07Zm0-.3a.25.25,0,0,0,0,.13c-.14,0-.29,0-.29,0S96.19,50.87,96.31,50.83Zm-2.93.59c-.06-.05,0-.06.11-.07a.25.25,0,0,0,.05.08h0Z"/><path class="cls-2" d="M93.93,51.51l0,0,.1,0h-.14Z"/><path class="cls-2" d="M94.27,24.43h0Z"/><polygon class="cls-2" points="97.15 46.69 97.05 46.69 97.14 46.72 97.15 46.69"/><path class="cls-2" d="M95.66,22.73l.11,0Z"/><path class="cls-2" d="M95.73,22l.14-.11A.47.47,0,0,0,95.73,22Z"/><path class="cls-2" d="M95.91,21.45h0Z"/><path class="cls-2" d="M96.69,30.16s0,0,0,0S96.76,30.19,96.69,30.16Z"/><path class="cls-2" d="M95.64,27.59a2.07,2.07,0,0,1,.2.08C95.87,27.62,95.88,27.58,95.64,27.59Z"/><polygon class="cls-2" points="97.26 33.05 97.26 33.05 97.26 33.07 97.26 33.05"/><path class="cls-2" d="M95.83,27.79c.09-.05.07-.09,0-.12S95.77,27.75,95.83,27.79Z"/><path class="cls-2" d="M96,19.07l0,0H96Z"/><path class="cls-2" d="M96,19l0,0S95.9,19,96,19Z"/><path class="cls-2" d="M95.79,19l.11.05S95.91,19,95.79,19Z"/><path class="cls-2" d="M95.84,19.8h0Z"/><path class="cls-2" d="M95.89,20c0-.05.32-.14.22-.21H96C96.22,19.83,95.63,20,95.89,20Z"/><path class="cls-2" d="M94,21l.12-.19c-.16,0-.38.09-.42,0C93.26,21.09,94.1,20.78,94,21Z"/><path class="cls-2" d="M93.83,21.6c-.08-.1-.24,0-.33,0A.29.29,0,0,0,93.83,21.6Z"/><path class="cls-2" d="M94,25.73H93.6C93.65,25.8,93.75,25.72,94,25.73Z"/><polygon class="cls-2" points="95.99 26.45 96.22 26.37 95.87 26.35 95.99 26.45"/><polygon class="cls-2" points="93.27 27 93.21 26.97 93.36 27.09 93.27 27"/><path class="cls-2" d="M93.57,33.92l.48,0C94,33.84,93.43,33.84,93.57,33.92Z"/><path class="cls-2" d="M94.1,36.91c-.24,0-.39.12-.15.17C94,37,94.16,36.94,94.1,36.91Z"/><polygon class="cls-2" points="93.37 45.88 93.21 45.81 93.34 45.93 93.37 45.88"/><path class="cls-2" d="M101.35,26.18c.11-.07.33-.26.27-.25l-.4.3Z"/><path class="cls-2" d="M101.93,25.44a6,6,0,0,0-.9.66c.39-.27.24-.14.71-.46.06,0-.09.14-.24.25.11-.07,0,.11.2-.08s.26-.32,0-.16C101.75,25.57,101.86,25.5,101.93,25.44Z"/><path class="cls-2" d="M100.59,22.55l0,.05S100.59,22.56,100.59,22.55Z"/><path class="cls-2" d="M99.59,20.89a.23.23,0,0,0,.1-.05A.19.19,0,0,0,99.59,20.89Z"/><path class="cls-2" d="M99.81,20.29v0S99.84,20.27,99.81,20.29Z"/><path class="cls-2" d="M100.59,22.55l.09-.14C100.55,22.51,100.6,22.51,100.59,22.55Z"/><path class="cls-2" d="M100.73,25.86a.33.33,0,0,0,.12-.06l0,0Z"/><path class="cls-2" d="M101.43,23h0l.17-.11Z"/><path class="cls-2" d="M101.9,23.41a5.22,5.22,0,0,0-.47.35,1.73,1.73,0,0,1,.24-.16Z"/><path class="cls-2" d="M102,24.67l.06,0Z"/><path class="cls-2" d="M101.21,22.54l.11-.1Z"/><path class="cls-2" d="M91.52,23.75l-.07,0Z"/><polygon class="cls-2" points="89.31 23.48 89.3 23.46 89.09 23.35 89.31 23.48"/><path class="cls-2" d="M99.85,19.49h0C99.9,19.48,99.88,19.47,99.85,19.49Z"/><path class="cls-2" d="M95.21,14.61c0,.46-.22.45-.22,1A4.21,4.21,0,0,0,95.21,14.61Z"/><path class="cls-2" d="M100.77,25.82l0,0S100.75,25.82,100.77,25.82Z"/><path class="cls-2" d="M95,15.59h0v0Z"/><path class="cls-2" d="M98.79,18.58l-.14.12A.64.64,0,0,0,98.79,18.58Z"/><path class="cls-2" d="M99,19.75l0-.05S99,19.74,99,19.75Z"/><path class="cls-2" d="M98,18.54s.06-.08,0-.05l0,0C98,18.49,98,18.48,98,18.54Z"/><path class="cls-2" d="M97.64,18.11l-.06.06h0Z"/><path class="cls-2" d="M92.1,22.15,91.75,22C92,22.13,92.08,22.25,92.1,22.15Z"/><path class="cls-2" d="M100.92,25.71l-.15.11h0Z"/><path class="cls-2" d="M95.39,20.61v-.1A.09.09,0,0,0,95.39,20.61Z"/><path class="cls-2" d="M93.6,19l0,0Z"/><path class="cls-2" d="M95.17,20.34a1.55,1.55,0,0,0,.2-.22l-.09.06Z"/><path class="cls-2" d="M91.74,22h0Z"/><path class="cls-2" d="M92.37,23c0-.07-.46-.28-.74-.43-.09-.17.39.14.66.23-.11-.12-.54-.39-.5-.42a1.31,1.31,0,0,1,.21.1c-.36-.25.07-.18-.39-.5l.13.05c-.25-.11-.5-.24-.68-.33,0,0-.28-.22,0-.07,0,0,.11.09.2.15l-.12-.11c.48.2.14.13.48.3-.12-.14-.46-.42-.3-.4.46.22.09.2.53.33h-.22c.75.29-.07,0,.72.35.19,0-.17-.24,0-.28-.24-.15-.38-.18-.62-.33-.38-.38,1.21.46.66,0-.29-.18-.86-.48-.52-.41l.5.29c.11-.08-.71-.43-.31-.37.2.12.13.17.2.18.44.14-.26-.19-.24-.25l.46.22c0-.15-.28-.43-.3-.6a1.5,1.5,0,0,0,.42.21c-.15-.27.22-.3.56-.31l-.36-.26a.9.9,0,0,1,.26.12c.18,0-.25-.13-.39-.23s.25.07.36.15c-.29-.27-.57-.66-.1-.55l.11.08c.2,0-.76-.5-.35-.4l.06.05c.26-.09,0-.48.66-.32-.54-.33.28.08-.47-.38.39.18.52.28.78.42,0,0-.44-.36-.5-.44l.37.3-.37-.35.43.37-.08-.09-.27-.23c-.14-.19.28.17.44.36a3.27,3.27,0,0,1-.25-.36l.25.32c-.32-.41.34.41,0,0l-.26-.32c.2.23.21.22.14.09l.21.3c0,.07-.08-.18-.06-.21a6.55,6.55,0,0,1-.42-.84l.27.54c-.16-.35-.11-.19-.3-.62a7.59,7.59,0,0,1,.39.8l-.08-.21.22.47c-.16-.36.26.57,0-.06l.07.17S94,19.09,94,19c-.18-.56-.13-.45-.26-.92a5.27,5.27,0,0,0,.23.53c0-.32-.1-.52-.17-.9.12.56.14.49.2.9A5.22,5.22,0,0,0,94,18c0-.23,0-.33-.07-.53s.06.24.08.52v.06c0-.44.1,0,.13.39s0,.71.06.15v.05a4.85,4.85,0,0,1,.09-.55c0,.11-.06.39-.08.73.15-.84,0,.16.15-.36-.14.73-.14.7-.1.63s.1-.19-.05.21l.11-.29c.12-.28,0,.17-.08.24.09-.22.1-.25.16-.41.22-.25-.07.53-.26.67s1-1,.54-.5l-.36.33a.62.62,0,0,1,.21-.15s.09.08.12.12.12.23.39.16c-.09.06-.21.15-.22.13-.25.27.1.16.33,0,0,.05-.2.17-.3.28s.43-.19.17.06a.4.4,0,0,1-.12.07c.15-.08.06.15.36-.14-.1.2.25,0,.11.23.39-.26-.08.26.44-.14-.53.42-.33.46,0,.31-.17.11-.14.17-.37.33,0,.05.18,0,.45-.22-.56.61.65-.22-.11.49a3,3,0,0,1,.94-.07c-.53.42-.17-.1-.72.35.32-.05.83-.34.81-.11s-.25.16-.35.23c.32-.05.16.28.53.16a.65.65,0,0,1-.16.09s0,.12.2-.08l-.08,0a6.83,6.83,0,0,1,1-.64c-.71.52-.08.25-1,.89a1.37,1.37,0,0,0,.34-.23.85.85,0,0,1-.32.27c.2,0,.43-.26.48-.18-.11.09-.17.11-.31.22.25-.15.51-.29.46-.15s-.16.13-.17.11.75-.31.62,0c-.53.38-.13.18-.56.54l.18-.05.19-.19c0,.06.39-.15.29,0l-.21.11.16,0,.12-.19c.27-.13.54-.45.48-.28s0,.06-.19.29h0c.16-.08.32-.17.25-.05s-.49.39-.58.47c.39-.27.21,0,.62-.24l-.37.29.31-.22a.92.92,0,0,1-.3.29c0,.12.53-.47.37-.19l-.13.08c0,.19.33,0,.25.22-.42.38-.16,0-.51.34.18.06.72-.18.72,0l0-.06c.63-.48-.24.34.1.16-.06,0-.36.26-.29.2,0,.16.29,0,.58,0l-.17.11c-.11.16,0,.19,0,.3a1.73,1.73,0,0,0,.39-.27c-.78.89.72-.1.08.65a.42.42,0,0,0-.16.09h.24a2.68,2.68,0,0,0,.34-.34c.18-.12.33-.19.35-.16a2,2,0,0,0-.56.5l.26-.21c-.43.45.55-.43.29-.08l-.14.11c.09,0,.3-.15.29-.08-.3.26-.17.08-.43.29.06,0,.67-.39.39-.09-.1,0-.13,0-.23.07-.33.34-.23.27-.26.35h0l-.1.22.08-.1c.86-.6.24,0,.84-.35-.57.33-.3.22-.66.5a1.24,1.24,0,0,1-.27.29c.32-.19-.17.25.29,0-.12.1,0,0-.27.28.13,0,.18-.18.33-.29.45-.24-.33.56.3.24.29-.08.69-.38,1-.44a1.9,1.9,0,0,1-.43.31c-.13.18-.07.19.09.13a2.27,2.27,0,0,0-.3.27c.06,0,.44-.31.31-.13s-.35.25-.49.33c.14,0,.39-.17.53-.21a2.66,2.66,0,0,1-.47.31,1.16,1.16,0,0,0,.61-.26l.09-.12a1.5,1.5,0,0,1-.33.26c-.28.16.06-.15.17-.25l.1,0c.64-.58-.21,0-.22-.14l.5-.36-.45.26a1.8,1.8,0,0,1,.47-.37c.21-.24-.2.1,0-.16l.09-.07-.18.08c.11-.08.34-.29.29-.2.21-.31-.47.16-.13-.16l0,0c-.25,0-.37.28-.85.53l.83-.76-.36.27s0-.06.16-.17c-.28.15-.15.13-.4.29.28-.32-.28,0,.28-.5-.28.2-.17.22-.4.32.6-.51-.16,0,.08-.26s.2-.06.44-.34c-.56.4,0-.19-.1-.15-.42.34-.25,0-.45.1.15-.11.13-.32.23-.51l.07-.06c-.44.34-.41.2-.54.22a3.37,3.37,0,0,1,.5-.34l0-.05a.67.67,0,0,1-.3.16l.33-.25c-.07-.05-.48.18-.33-.07a5,5,0,0,1-1,.81,4.32,4.32,0,0,1,.52-.39s-.16.09-.1,0l.3-.18c.09-.13-.24.16-.24.11.23-.18.15-.15.33-.29,0,0-.07.1,0,0a1,1,0,0,1,.28-.37,1.68,1.68,0,0,1-.36.25c-.07-.05.26-.25.35-.38-.17.11,0-.06-.38.22,0,0,.14-.15.23-.24-.18.09-.16-.11-.5.22l0,0h0c-.42.17,0-.38-.21-.36l.11-.1c-.18,0-.18-.07-.47.09a1.29,1.29,0,0,1,.32-.32c-.12,0-.26.12-.12-.1s.16-.16.18-.07c.05-.14.23-.31-.14-.12.31-.21.33-.34.22-.3l-.18.21c-.07,0-.06,0-.06-.1l.4-.29c.37-.51-1,.42-.28-.32-.29.19-.13.23-.47.45,0-.1.51-.61.5-.63.15-.25-.63.39-.55.19a2.39,2.39,0,0,1-.67.47c0-.1.52-.54.66-.59s0,0-.06.08a.52.52,0,0,0,.27-.19l-.14.11c.12-.15,0-.22.28-.38a.47.47,0,0,0-.29.26c.14-.24-.09-.13,0-.31-.07.07-.22.22-.23.2.08-.25-.3.17-.43.14.18-.22.52-.39.28-.33a1.71,1.71,0,0,1,.49-.38c-.32.15.07-.27.08-.35l.15-.05c-.09,0-.1,0-.11,0l-.26.25a.32.32,0,0,1,.13-.18c-.2.13-.45.39-.73.55.12-.14-.22,0,.14-.27-.06.19.36-.31.48-.28-.06,0-.07,0,0-.06a.37.37,0,0,1,.1-.07c.26-.36-.44.29-.51.2.22-.16.38-.34.32-.32s-.33.3-.51.39c.11-.19-.17,0-.18,0l0,.1c-.21.15-.21.1-.31.12.16-.14.14-.06.2-.13-.4.25.3-.41,0-.27.12-.14.39-.32.46-.42-.32.15.22-.3-.06-.2a1.39,1.39,0,0,1-.5.37l.29,0-.46.25s.23-.07.2,0a1.45,1.45,0,0,0-.4.3c.38-.39-.32.1-.08-.19l.69-.55c.23-.34-.48.13-.4-.12l-.09.13c-.29.21-.09,0-.23,0a4.18,4.18,0,0,0,.42-.41c-.17.14-.05-.09-.51.27l.26-.3c0-.19-.74.43-.73.28a3.73,3.73,0,0,1,.63-.43s0-.09-.17,0c.14-.14-.37.17-.17,0-.11.07-.36.26-.37.22l.12-.1a2.16,2.16,0,0,0-.43.31c.65-.67-.25-.21.3-.78a.72.72,0,0,1-.33-.06c.07-.06.12-.1.1-.07.15-.25-.7.49-.53.21.33-.35.24-.12.35-.26.75-.63-.19,0,.21-.45l.05,0c.22-.25-.38.12-.38,0l.11-.09a1.49,1.49,0,0,1-.8.28,2.3,2.3,0,0,0,.47-.35c-.08,0-.47.4-.62.4a6.38,6.38,0,0,1,.52-.64l.09.08c.36-.41-.11-.11-.08-.22l.18-.16c-.18-.1-.59.34-.66.17l-.11.16c-.43.39.16-.33-.17,0l.35-.51c-.14.06-.49.31-.61.34a2.4,2.4,0,0,1,.71-.59c0-.06-.18-.16-.36.08.05,0,.15-.13.12,0-.32.35-.5.49-.57.4.6-1.09-.05-.52.27-1.5-.35.27-.3-.53-.56-.62-.16,1-.07,0-.29,1-.05,0-.06,0-.05-.07,0-.23,0-.46,0-.69s.09-.19.13-.42,0-.45,0-.75c0,.36-.12.48-.17.32l0,.5c-.22.44,0-.9-.27-.45l.09-.28c-.11.14-.37-.11-.48.63a1,1,0,0,1,0-.43c-.25-.16-.5.72-.71.29v-.22c0,.06,0,.43-.11.21a.93.93,0,0,0,0-.24c0,.09-.07.42-.14.3V14.1c-.3-.24-.24.72-.32,1-.17-.66-.39-.8-.5-.86l0-.1c-.27.05-.19.81-.22,1.25-.44-.62-.49.07-.89-.06a1.77,1.77,0,0,1,.33.58c-.12-.07.2.56-.18,0h0c-.41-.49-.4-.22-.46-.13l.53.69c-.46-.37-.49-.09-.47.15s0,.46-.4.2c.13.19.09.27.22.45L90.58,17a.55.55,0,0,0-.31.48L90,17.26c-.1.14,1,.74,1,.8l-.57-.26c-.06.13-.62,0-.17.39A1.33,1.33,0,0,1,90,18s-.5,0,.29.41c-.5-.26-.11.1.07.28L90,18.53c.44.29.57.36.67.51-.06,0-.31-.14-.2-.11-.23,0,.33.23.09.2L90.35,19c-.06.05.07.11.33.29s-.15.08-.5-.08c.2.11.46.28.34.27a.85.85,0,0,1-.23-.14c-.31,0,.35.38-.06.28a.83.83,0,0,0-.22-.1c0-.09.1-.15.13-.13a4.39,4.39,0,0,1-.89-.43c.23.19.75.57.55.56l-.12-.05,0,0s0,0,0,.07-.12,0-.14,0c-.29-.14-.19,0-.22,0a4.11,4.11,0,0,0,.62.32s0,0,0-.07l0,0,0,0a.44.44,0,0,1,0-.1c.18.12.32.23.09.17l.59.35c-.55-.21-.88-.27-1.21-.42.15.22,0,.33.68.75.08.08-.22-.07-.34-.11s0-.07-.13-.13c.15.15,0,.22.46.48-.26,0-.43-.27-.4-.13l-.15-.09c-.89-.19,1.09,1,0,.69l.18.06c-.58,0,.15.76-.69.66-.18,0,.13.17.35.33l-.41-.19.42.32c.29.28-1.08-.32-.51.15l.29.12c-.08,0,.08.23-.23.07,0,0,.27.16.12.1l-.21-.1.3.3c-.2,0-.83-.43-.94-.32a2.69,2.69,0,0,0,.69.51.76.76,0,0,1,.37.12l.09.1a8.22,8.22,0,0,0,1.73.79L90.69,24l.32.12,0,.08c.31.11.07-.05-.09-.16a1.79,1.79,0,0,0,.35.13l-.56-.37a3.58,3.58,0,0,0,.63.29c-.26-.18-.57-.24-.72-.39.3.1.53.23.31.06a1.76,1.76,0,0,1,.32.19c-.17-.14,0-.15-.35-.33.37.13,0-.18.57.12a1.73,1.73,0,0,1-.43-.36c.67.43.11-.11.86.29-.61-.37-.2-.32-.5-.59,0,0,.14.09.1.08a1.68,1.68,0,0,1,.42.09,6.09,6.09,0,0,1-.91-.61,11.37,11.37,0,0,1,1.1.57c-.43-.21-.38-.32-.74-.48A4.14,4.14,0,0,1,92,23c-.65-.34-.09-.1-.47-.34.35.09.62.29.46.11A1.39,1.39,0,0,1,92.37,23Zm-.25-2.32h0v0Zm.07-.15a.07.07,0,0,0,0,.05c-.14-.06-.27-.13-.25-.14A1.43,1.43,0,0,0,92.19,20.5Zm-2.76-1c-.05,0,0,0,.11,0a.15.15,0,0,0,0,.06l0,0Z"/><path class="cls-2" d="M89.9,19.78l0,0,.09,0-.11-.07Z"/><path class="cls-2" d="M100.55,22.61h0l0,0Z"/><polygon class="cls-2" points="93.74 19.22 93.66 19.15 93.73 19.22 93.74 19.22"/><path class="cls-2" d="M100,24.23a.3.3,0,0,0-.08.08Z"/><path class="cls-2" d="M100.17,24.59l-.08.14A.55.55,0,0,0,100.17,24.59Z"/><path class="cls-2" d="M100.2,25l.14-.11h0Z"/><path class="cls-2" d="M96.79,21.54h0Z"/><path class="cls-2" d="M98.46,22a.79.79,0,0,1-.19.09S98.27,22.18,98.46,22Z"/><polygon class="cls-2" points="95.39 20.63 95.4 20.62 95.39 20.61 95.39 20.63"/><path class="cls-2" d="M98.24,22.07c0,.07,0,.07,0,.05S98.3,22,98.24,22.07Z"/><path class="cls-2" d="M100.87,26.1v0l0,0Z"/><path class="cls-2" d="M100.92,26.08l0,0S101,26.05,100.92,26.08Z"/><path class="cls-2" d="M101.08,26l-.11,0S101,26.09,101.08,26Z"/><path class="cls-2" d="M100.77,25.66l-.12.1Z"/><path class="cls-2" d="M100.66,25.6s-.21.26-.11.23l.1-.07C100.46,25.88,100.88,25.46,100.66,25.6Z"/><path class="cls-2" d="M101.81,24l0,.16c.12-.12.27-.27.33-.26C102.41,23.5,101.84,24.16,101.81,24Z"/><path class="cls-2" d="M101.8,23.62c.09,0,.18-.15.25-.21A.52.52,0,0,0,101.8,23.62Z"/><path class="cls-2" d="M100.36,21.85l.3-.24C100.59,21.61,100.55,21.7,100.36,21.85Z"/><polygon class="cls-2" points="98.55 22.76 98.39 22.94 98.67 22.73 98.55 22.76"/><polygon class="cls-2" points="100.51 20.84 100.56 20.82 100.41 20.85 100.51 20.84"/><path class="cls-2" d="M98,18l-.36.31C97.72,18.22,98.13,17.89,98,18Z"/><path class="cls-2" d="M96.44,16.8c.14-.2.19-.38,0-.23C96.47,16.64,96.39,16.83,96.44,16.8Z"/><polygon class="cls-2" points="91.1 16.05 91.02 15.87 91.06 16.07 91.1 16.05"/></svg>