<svg id="Capa_1" data-name="Capa 1" xmlns="http://www.w3.org/2000/svg" viewBox="0 0 97.16 98.32"><defs><style>.cls-1{fill:#f1d54d;}.cls-2{fill:#fff;}</style></defs><path class="cls-1" d="M68.33,17.12C43,3.28,16,13.15,10.59,42.4c-1.35,7.27-1.43,15,1.28,21.85,9.15,23.23,46,30.28,65.47,15,8.3-6.48,21.21-47.88-7.82-62.61"/><path class="cls-1" d="M69.87,16c-.16,0-.2.25.14.39l.39-.21Z"/><path class="cls-1" d="M71.64,17.79c.47,0,1,0,1-.41-.56.1-.57-.08-1.18.07-.34-.14-.49-.41-.37-.5-.16,0-.45-.35-.73-.24a1.85,1.85,0,0,0,1.43.88C71.87,17.72,71.7,17.75,71.64,17.79Z"/><path class="cls-1" d="M86.93,47.07l0-.23A1.37,1.37,0,0,0,86.93,47.07Z"/><path class="cls-1" d="M83.25,67.93c0-.15,0-.23,0-.25C83.23,67.83,83.21,68,83.25,67.93Z"/><path class="cls-1" d="M81.5,71.11l.11-.18C81.54,71,81.49,71.06,81.5,71.11Z"/><path class="cls-1" d="M86.93,47.07l-.1.57C87,47.68,86.91,47.35,86.93,47.07Z"/><path class="cls-1" d="M76.15,19.84a.9.9,0,0,0-.31-.13l.26.16Z"/><path class="cls-1" d="M85.38,37.86l0-.16a1,1,0,0,0-.18-.1Z"/><path class="cls-1" d="M82.89,31.22c.06.15.37.06.53.05a.51.51,0,0,1-.36-.22A.54.54,0,0,0,82.89,31.22Z"/><path class="cls-1" d="M76.57,21.88l-.17-.11Z"/><path class="cls-1" d="M86.25,42.89a.24.24,0,0,0-.11.08A.14.14,0,0,0,86.25,42.89Z"/><path class="cls-1" d="M61.14,12.25s0,0,0,.05S61.19,12.27,61.14,12.25Z"/><path class="cls-1" d="M68.29,17.2l-.11,0a.76.76,0,0,0-.11.14Z"/><path class="cls-1" d="M77.93,76.43l0,0C78,76.26,78,76.34,77.93,76.43Z"/><path class="cls-1" d="M22.83,76.57c.36.64-1.11-.4-.49.48C22.34,76.9,23.38,77.23,22.83,76.57Z"/><path class="cls-1" d="M76.27,20l.24.19A1.49,1.49,0,0,0,76.27,20Z"/><path class="cls-1" d="M22.34,77.05h0l.06.09Z"/><path class="cls-1" d="M65.53,83.89a.54.54,0,0,0,.19.08S65.66,83.92,65.53,83.89Z"/><path class="cls-1" d="M75.73,79.33l-.25.13Z"/><path class="cls-1" d="M60,85.74a.86.86,0,0,0-.41,0s0,0,.07,0A.41.41,0,0,1,60,85.74Z"/><path class="cls-1" d="M53.88,86.39l.12.06.19,0Z"/><path class="cls-1" d="M41.84,9.81a.94.94,0,0,1,.32.25C42,9.85,43,9.66,41.84,9.81Z"/><path class="cls-1" d="M76,20a.21.21,0,0,1,.23,0l-.17-.12S76,19.93,76,20Z"/><path class="cls-1" d="M60.15,88.26l-1,.1C59.42,88.35,59.79,88.31,60.15,88.26Z"/><path class="cls-1" d="M10,39.22,10,39A.37.37,0,0,0,10,39.22Z"/><path class="cls-1" d="M56.11,88.77a1.81,1.81,0,0,0-.59-.17.52.52,0,0,0-.11.1Z"/><path class="cls-1" d="M42.16,10.06Z"/><path class="cls-1" d="M48.93,9.27c-1-.07-.49.38-.72.61-1.16,0-.52-.34-.91-.58-.74.09-1.3.48-1.84.46,0-.07-.15-.09,0-.18-.77.3-2.3.1-3.15.57a.23.23,0,0,1-.13-.09.82.82,0,0,1,.19.56c-.43.06-.76.35-1,.1.27,0,.28-.13.39-.23l-.43.17c-.45-.35.59-.21.57-.5a16.28,16.28,0,0,1-2.53.69c-.21-.36,1.54-.4.6-.59.35,0,.71,0,1.06,0-.88-.52.65,0-.17-.6-1.42.05-1.53.44-2.93.55-.26.28.16.29-.1.57-1.81.84-1.76-.62-3,.32-.29.36-.28.85-1.34.93l.19-.53c-1.29.43-.51.86-1.93,1.08.17-.24.94-.51.73-.48-1,0-.53.44-1.17.73l-.28-.3A34.09,34.09,0,0,0,27.1,15c0-.15.18-.4-.2-.3-1.65,1.17-3.58,2.4-5.22,3.51l-.32.76c-.13.12-.34.11-.25-.06-.64.43.12.18-.06.52s-.55.26-.42,0c-.4.55-.91,1.38-1.51,2.12a10.06,10.06,0,0,1-1.76,1.95l.09-.27c-.77.8-.17,1.4-1,2l.06-.19C15.06,27,14,29.4,12.87,30.84c.15.26-.16.76-.4,1.27s-.44,1-.15,1.19a8.62,8.62,0,0,0-1.6,2.47c-.18.48.14.84,0,1.46l-.34-.08.13.92L10,38.4,10,39c.09-.23.29-.45.37-.39-.11.92-.73,2.12-.93,2.1-.05.74-.12,1.46-.13,2.19-.13-.07-.12-.44-.16-.74.16,1.2-.4.14-.25,1.25.1-.13.19.11.25.14a6.55,6.55,0,0,0-.48,2.58l-.22-.2a39.76,39.76,0,0,0-.24,5.23c.12-.66.53-.49.57,0l-.37.21c.22.35.14-.55.42.15-.05.67-.43.46-.55.07,0,.27.08.55.14.82-.11,0-.18-.14-.32-.19.24.33-.34,1.45.1,1.93l-.11,0a29.15,29.15,0,0,0,.6,4.13c.32,0,.35.56.69.94a15.33,15.33,0,0,0,.59,3.59c.44.84.34.18.65.51-.25.16.23,1.39-.2.82a15.72,15.72,0,0,0,.79,1.7,13.61,13.61,0,0,0,1.14,1.85c0-.24-.06-.48.08-.41.22.29.28.77.14.8l-.07-.07a17.18,17.18,0,0,1,1.76,3.21,6.18,6.18,0,0,0,2,2.64l-.09-.05c.49.39,1,.81,1.47,1.16.56.64-.51-.21-.2.36A11.45,11.45,0,0,1,19.37,77a6.78,6.78,0,0,0,1.77,1.42C21.59,80,24.8,81.07,26,82.37l0-.23c.48.06.4.38.67.57,0-.16-.33-.38,0-.35C30,84,33.49,86,37.17,87.2c1.35.45,1-.81,2.63.08l-.58.25c2.85.22,5.69,1.14,8.49,1-.17.07-.18.18-.45.15a2.7,2.7,0,0,0,2.17-.07c.43,0,.1.2.36.33.58.2,1.47-.32,1.78,0,.06,0-.16.09-.27.11.38-.13,1.79,0,1.41-.28,1,.12,2-.23,2.81-.09.51-.4,1.79,0,1.91-.51,0,.54,1.86.17,2.46-.17-.19.18.59.07.37.32.75-.14,1.4-.38,1.22-.61,1.5.35,2.58-1.12,3.53-.55,2.07-.9,3.95-1.76,5.71-2.72.07.25-.43.49-.91.73s-1,.41-.83.65a17.3,17.3,0,0,0,2.11-1.33,16.62,16.62,0,0,1,2.11-1.23c.46-.17-.14.33-.24.49a13.85,13.85,0,0,1,1.19-.75l1.16-.73a9.9,9.9,0,0,0,2.07-1.59s-.09.19-.21.32c.26-.21.68-.4.51-.56l-.23.24c-.31,0-.15-.32.08-.68A3,3,0,0,0,78,79c0,.43.36.19.68,0s.61-.45.6.19c.12-.2.23-.49.08-.56.26-.22.41-.25.31.13.71-1,.21-.86.88-1.73.09.07,0,.27,0,.44a4.59,4.59,0,0,1,.83-1.89c0,.08.16,0,0,.27.76-1.38.8-2.59,1.69-4,.24.66.39-.46.81-.37.1-.3.17-.6.24-.9l-.32.26a16.27,16.27,0,0,1,.66-2.1c0,.21,0,.42-.05.62.16-.47.29-1,.44-1.43l-.44.74c.07-.84-.53-.11-.06-1.06,0,.22.28-.74.63-1.06h0a2.54,2.54,0,0,1,.25-1.37c.18-.11.42.25.53.18-.22-.47.41-1.83.18-2.4,0,.18.26.25.32.21l-.2-.39c.17-.33.23-.38.39-.27.31-1.07-.6.21-.08-1,0,.1.06.06,0,.28.44-1.25.36-2.53.72-3.69.49-.28-.09,1.06.34.72a26.46,26.46,0,0,0,.16-2.7,17.42,17.42,0,0,1,.16-2.64l-.07.31c-.57-.28.39-1.23.17-2.11,0,.21.31.3.25.24a7.11,7.11,0,0,0,0-1.85c-.06-.68-.13-1.42-.26-2.3l.16.22a17.92,17.92,0,0,0,.06-2.55c-.17-.22-.18-.64-.38-.37a5.68,5.68,0,0,0-.16-3.28,7,7,0,0,1-.47-3.07c0,.24.24.54.2.35-.14-.56-.36-1.1-.54-1.65-.22.19-.1.26-.21.66a2.32,2.32,0,0,1-.54-1c.36.7.4-.11.46-.48-.06.08-.18,0-.25,0,.21-1-.54,0-.61-1.25l.15,0a5.7,5.7,0,0,1-.63-1.23c.22-.3.29.41.53.36-.21-.67-1-1.08-1-1.77.19.24.35.63.54.88a2.38,2.38,0,0,0-.18-1.31v0c-.11-.39-.19-.79-.33-1.16l0,.31c-1.12-.44-.9-1.55-1.94-2.33,1,.75.35,0,.69-.07-.07-.3-.22-.75-.07-.69-.53-.34-.3-.93-1.06-1.39.09-.1-.34-.5,0-.55-.5-.55-.06.25-.21.27a4.57,4.57,0,0,1-1.13-1.59,4.38,4.38,0,0,0-1.55-1.72,4.29,4.29,0,0,0-1.32-.82A6.14,6.14,0,0,1,77,21.86c-.19-.43.52-.05.52-.05a3,3,0,0,0-1.4-1.24c.17,0,.11-.14,0-.37-.44-.31-.53.09-1-.47a1.54,1.54,0,0,1,.69,0,14.82,14.82,0,0,0-1.76-.81c0-.26.49,0,.76,0-.66-.34-1.68-.93-2-.79l.32.35c-.23-.14,0-.3.22-.23.66.15.69.59.65.7l-.42-.2c0,.4.4.63.89.84a5.92,5.92,0,0,1,1.36.76l-.59.12,1,.29c.07.22,0,.51-.39.28.35.59.57.22.8.8,0,.07,0,.07-.07.05l.55.33c-.16,0-.15.32-.38,0,.61,1,1.57,1,1.59,1.58l-.08-.05c1.15,1.08.35-.13,1.44.51l-.14,1.15.37-.1c.11.13.27.41.13.44.54.35.06-.17.44,0,.2.82,1.42,1.66,1,2.13.37.1-.22-.75.37-.13-.38.52.59.78.73,1.53-.38,0-.59-.69-.46.06.7.09.56,1.26.91,1.74.39-.16.76,1.08,1.23,2-.07,0,.06.45.23,1a16.51,16.51,0,0,1,.38,1.75h-.07c.46.05.68,1,.92,1.66-.25,0-.37-.06-.57-.4l.16.64a1.26,1.26,0,0,1,.44.7l-.35-.09a8.93,8.93,0,0,1,.74,2.8c.3,0,.63-1,1,.13-.15.07-.4.15-.52-.15a1.08,1.08,0,0,1,.15.57c-.11-.15-.21-.3-.33-.44,0,.53.25.23.29.65-.23,0-.12.33-.31.29,0-.1.05-.37-.06-.51a2.64,2.64,0,0,1-.18,1.24c.12,0,.3,0,.37.3.12.87-.22.33-.29.85.17.19,0,.77.38.75,0,.26-.13.32-.22.42.21.45.15,2.12.49,1.6l0-.12,0,.07h0c.39,1.5-.16,3.12-.09,4.6h-.12A23.13,23.13,0,0,0,86.92,54c0,.26-.27.59-.39.47a3.34,3.34,0,0,1-.19,1.72c-.09-.7-.2.21,0-.71a3.73,3.73,0,0,0-.27,2c-.24-.37-.44.59-.45,1,.1-.19.22-.38.31-.57a7.08,7.08,0,0,1-.25,1.28l-.33-.3a5.92,5.92,0,0,0-.39,2.43,2.69,2.69,0,0,1-.64,2c.13.53.44-.89.63-.4a10.21,10.21,0,0,1-1.1,1.71c-.54,1,.22,1.17-.3,2.24.18-.09.57-.12.39.77-.33.77-.88.76-.8.24,0-.19.12-.27.17-.25,0-.26.1-.61-.14-.35l.09.14c-.27.34-.65,1.41-.76,1.08-.12.61.1.32.34-.08-.59.9-.6,1.54-1.18,2.46.14-.12.35-.2.27-.05-.81,1.38,0,.76-.47,1.75-.47.45-.34-.42-.68.62-.43.52-.38,0-.36-.32A4.37,4.37,0,0,1,79,74.84c.06-.16.13-.31.18-.47a2.82,2.82,0,0,1-.38.69L79.2,75c-.2.22-.34.43-.43.36,0,.36.5,0,.36.7-.34.25-.61,1.06-1,1,.84-.91-.36-.12.21-1a1.9,1.9,0,0,1-.44.57c-.05,0,0-.08,0-.15-.47.36-.49.48-.47.68a.83.83,0,0,1-.35.82c0-.23-.45-.11-.55,0,.32-.28.39.1.16.51-.74.35-.63.61-1,.85l.44-.23c0,.26-.36.48-.79.87-.13-.11.36-.4.15-.33-.3.68-1.38.47-2,1.14-.41.1-.23-.3-.57-.19-.72.71-1.06.26-1.84.93.38.11.4,0-.12.6l1.4-1-.77.86c.45-.24.87-.66,1.16-.77-.35.44-.34.36,0,.44-.82,0-1.11.9-2,1l-.26-.61a4.11,4.11,0,0,0-1.56.75,5.87,5.87,0,0,1-1.81.86l.52-.07c-.11.32-.9.4-1.36.65,0-.23-.36-.21-.61-.28.08.15-1.1.34-1.11.82l-.76-.11c-1.27.2-1.26,1-2.5,1.17.31-.31-.27-.35.5-.69-.4.08-.77.12-.74.27-.26-.1-1.06.54-1.48.37-.15.12-.17.36-.64.42-.05,0,0-.11,0-.11s-.7.25-.26.44a5.65,5.65,0,0,0-2.43,0A4.41,4.41,0,0,1,54,86.45a23.36,23.36,0,0,1-2.81.22c.06-.07,0-.11.16-.09-1.12-.21-.71.65-2,.36-.64-.4.7-.17.29-.32-.14-.76-1.56,0-2.39-.49l.21,0c-.63-.32-1.63.16-2.69-.07,0,0,.06-.06,0-.11a5.5,5.5,0,0,1-1.53.19c-.58,0-1.19-.07-1.72-.12.38-.22.5-.06.36-.39-.47,0,.05.49-.89.4-.27-.21-.9-.52-.91-.84l.85.19c-.35-.5-1.1-.25-1.54-.43l.1-.16c-1.31-.24-1.44.14-2.83-.29l.11.17c-.9.2-.56-.42-1.42-.37l-.08-.5a15.2,15.2,0,0,1-2.77-.49,17,17,0,0,1,2.4.17,6.44,6.44,0,0,0-2-.48,1.48,1.48,0,0,1,.66.18,4.63,4.63,0,0,1-2.51-.49c.26-.36-.33-.69-1-1s-1.48-.81-1.65-1.27c-1.74-.58-3-1.93-4.7-3.11.18,1-.5-.36-.82.27-.41-.27-.56-.39-.56-.46a12.47,12.47,0,0,1-.88-1.27c-.13-.38.45.19.51,0-.75-.75-.14-.52-.53-1.12-.05.28-.53,0-.89-.46.12.29.27.54.41.81-1.36-.73-.51-1.31-1.82-2.09l.48.19a15.31,15.31,0,0,1-1.27-1.24,4.75,4.75,0,0,0-1.45-1.11c0-.15,0-.41.27-.17-1.07-1.44-2.75-3-3.11-4.48l.21,0c-.2-.27-.56-.38-.57-.84.07,0,.21,0,.15-.1a3.21,3.21,0,0,1-.72-1.15l.33.27C13,62.69,12.05,62,11.55,60.57c.47-.12.31-1.52.27-2.21h.07c-.3-2-.91-3.41-1.17-5.36.47-1.21.24-4.09.77-6-.12.29-.39-.09-.4-.44.16-.44-.19-1.3.26-1.17l0,.16c.49-.28.5-1.22.64-1.94l-.57-.22a7.89,7.89,0,0,0,.93-3.25,4.51,4.51,0,0,1,.89-2.56c0-.48.18-1,.18-1.5l.29.13c.46-1.19.77-1.75,1.26-3.24l.1.39c.35-.8-.39-1.39-.07-2.15l.54,0c.67-1.41,1.8-2.54,2.25-4.05a.32.32,0,0,1,0,.4c.35-.64,1.85-2.1,1.16-2.29.33.22,1-1.22,1.4-2l.15.31a2.73,2.73,0,0,1,.69-1.69c.19-.15.32,0,0,.19.66-.44.18-.67,1-1.2l-.11.38c.6-.53.47-.56.64-1s1.21-1,1.48-.81a1.12,1.12,0,0,1,.59-.9c.12,0,0,.2,0,.29,1.19-.64,1.39-1.51,2.34-1.75a.23.23,0,0,0,.24.07c-.91.55-1.59,1.09-1.55,1,.18.23.89-.22.58.5a5.48,5.48,0,0,1,1.92-1.94.4.4,0,0,1,.15,0l-.06.07a1.25,1.25,0,0,0,.43-.31,3.37,3.37,0,0,0,.65-.25c.2.17.91-.35,1.3-.52-.17-.27.36-.46-.23-.48.07,0-.06.06-.31.21a.87.87,0,0,0-.14.12v0l-.93.52a1.38,1.38,0,0,1,1-.66,5.5,5.5,0,0,1,.32-.73c.74.16,1.86-.1,2.11.11.58-.31,1.28-.62,1.92-.93a4,4,0,0,0,1.55-1c.34-.19.47.06.62.11-.19.11-.44.16-.53.28.68-.34,2.13-.58,2.22-1,1,0-.44.47.82.18l-.15.16a8,8,0,0,0,3.33-.64,5.56,5.56,0,0,1,3.6-.17c-.2-.05-.3-.08-.34-.15,3.22.37,6.77.08,9.78,1.43A2.53,2.53,0,0,0,57,13l.1.38,1-.11a3.32,3.32,0,0,1,1.73.82,3.84,3.84,0,0,0,2,.79l-.12-.29c.56.27,1.87.59,1.67.81a.37.37,0,0,1,.45.07l-.06.18,1.51.35c1,.61-.46.54,1,1.35.59.22,1.84.36,1.69.15s-.53-.4-.46-.57l.56.19c.35-.42,1-.68-.12-1.68L67,15.29l-.18-.38.78.38c-.33-.44-.7-.39-1.08-.42a.63.63,0,0,0-.27-.44l-1.13,0c0-.24.59-.18,0-.57-.52,0,.23.61-.55.43-.35-.42-.14-.56-.75-.59,0-.15.13-.19.36-.16-.54-.05-1.29-.44-1.64-.28-.37-.48-1.65-.55-1.43-1a3.79,3.79,0,0,1-1.44-.05c.5-.15.08-.3-.41-.48s-1.08-.35-.87-.63a2.77,2.77,0,0,1-1.59-.08,10.05,10.05,0,0,0-1.91-.26c.07,0,.21-.08.31,0a7,7,0,0,1-1.16-.56c-.16.42-1.16.35-1.73.52-.7-.55.55-.43.38-.88,0,.35-1.41.14-1.19.48-.56-.33-.5-.18-.76-.59-.17.54-.57,0-1.1.31-.84-.35-.18-.54-1.15-.43C48.05,9.42,48.93,9.27,48.93,9.27ZM27.15,15.13h0l.39-.26Zm-1.6,1,.69-.45c.12.06.12.2,0,.29C26.24,15.88,25.83,16.07,25.55,16.16Zm4.48-.1c-.23.17-.34.16-.41.12.11-.07.25-.15.42-.27v-.05A.68.68,0,0,1,30,16.06Z"/><path class="cls-1" d="M30.28,15.44s0,0,.1-.07h-.19l0,.14Z"/><path class="cls-1" d="M87,46.81v0a.22.22,0,0,1,0-.08Z"/><polygon class="cls-1" points="10.35 37.13 10.43 37.15 10.41 36.97 10.35 37.13"/><path class="cls-1" d="M86.54,36.53a.28.28,0,0,0,0-.15S86.55,36.45,86.54,36.53Z"/><path class="cls-1" d="M85.12,32.27,85,31.63A3.74,3.74,0,0,0,85.12,32.27Z"/><path class="cls-1" d="M83.76,29.07a.42.42,0,0,0-.16,0h.16Z"/><path class="cls-1" d="M77.17,80.92l-.1.09C76.85,81.25,77,81.1,77.17,80.92Z"/><path class="cls-1" d="M85,66.52a4.87,4.87,0,0,1,0,.54C85.12,66.79,85.2,66.58,85,66.52Z"/><polygon class="cls-1" points="60.26 88.25 60.27 88.24 60.15 88.26 60.26 88.25"/><path class="cls-1" d="M84.75,67.77a1.67,1.67,0,0,0,.26-.71A3.55,3.55,0,0,0,84.75,67.77Z"/><path class="cls-1" d="M73.66,18l-.14-.1s0,0,0,0Z"/><path class="cls-1" d="M73.48,17.89l-.18-.07C73.37,17.86,73.44,17.9,73.48,17.89Z"/><path class="cls-1" d="M72.93,17.66l.37.16A.56.56,0,0,0,72.93,17.66Z"/><path class="cls-1" d="M77.24,20.88l.11,0A.14.14,0,0,0,77.24,20.88Z"/><path class="cls-1" d="M78.27,21.84a5.16,5.16,0,0,0-.82-1l-.1,0C77.63,20.86,77.91,21.76,78.27,21.84Z"/><path class="cls-1" d="M80.88,27.12l-.58-1c0,.23,0,.54-.29.14C80.54,27.66,80.06,25.9,80.88,27.12Z"/><path class="cls-1" d="M82.55,30.17c-.32-.51-.15.09-.23.1C82.59,30.55,82.66,30.63,82.55,30.17Z"/><path class="cls-1" d="M86.39,54.7l-.29-.1C86.09,55.07,86.22,54.62,86.39,54.7Z"/><polygon class="cls-1" points="87.1 59.77 87.37 59.35 87.15 59.08 87.1 59.77"/><path class="cls-1" d="M84.45,62.13v-.21c0,.26,0,.52-.09.78C84.4,62.51,84.43,62.32,84.45,62.13Z"/><path class="cls-1" d="M55,86.05l.17.35C55.43,86.32,55.46,85.92,55,86.05Z"/><path class="cls-1" d="M36.9,84.34a1.09,1.09,0,0,0-.95-.42A5.14,5.14,0,0,0,36.9,84.34Z"/><path class="cls-1" d="M12,42.59l.06.38q0-.34,0-.69Z"/><path class="cls-2" d="M27.64,38.7a5.26,5.26,0,0,0,3.45-3.23,15.58,15.58,0,0,0,.9-4.81,7.1,7.1,0,0,0,7.55,7.1c-2.29.81-3.75,3.13-4.34,5.49a13.37,13.37,0,0,0-.71,4c.38-2.49-.17-1.91-1.56-4a10.36,10.36,0,0,0-6-4.28"/><path class="cls-2" d="M27.09,38.3c-.05.09-.09.3,0,.28l.14-.34Z"/><path class="cls-2" d="M27.34,39.07a1.51,1.51,0,0,0,.36-.74,6,6,0,0,0-.36.53c-.07,0-.08-.14,0-.26,0,.08-.08-.11-.18.1s.11.33.29.14A.52.52,0,0,1,27.34,39.07Z"/><path class="cls-2" d="M32.09,43v-.06A.13.13,0,0,0,32.09,43Z"/><path class="cls-2" d="M33.89,46s0,0-.07,0S33.86,46,33.89,46Z"/><path class="cls-2" d="M33.47,46.52l0,0S33.45,46.51,33.47,46.52Z"/><path class="cls-2" d="M32.09,43l0,.15C32.16,43.08,32.1,43.05,32.09,43Z"/><path class="cls-2" d="M28.5,38.55a.18.18,0,0,0-.09.07l.07,0Z"/><path class="cls-2" d="M30.78,42l0,0-.11.09Z"/><path class="cls-2" d="M29.78,41.27s.2-.22.29-.32a.62.62,0,0,1-.17.14A1.11,1.11,0,0,0,29.78,41.27Z"/><path class="cls-2" d="M28.31,39.83l0,0Z"/><path class="cls-2" d="M31.35,42.67l-.08.08Z"/><path class="cls-2" d="M29.87,39.26l0,0S29.86,39.27,29.87,39.26Z"/><polygon class="cls-2" points="27.63 38.62 27.64 38.6 27.61 38.43 27.63 38.62"/><path class="cls-2" d="M36,46.87h0S36.05,46.89,36,46.87Z"/><path class="cls-2" d="M39.57,37.64s-.25,0-.27.07S39.57,37.69,39.57,37.64Z"/><path class="cls-2" d="M28.52,38.6l.06,0A.07.07,0,0,0,28.52,38.6Z"/><polygon class="cls-2" points="39.3 37.71 39.3 37.71 39.31 37.71 39.3 37.71"/><path class="cls-2" d="M36.29,44.29h0Z"/><path class="cls-2" d="M35.46,46.11l0,0A.12.12,0,0,0,35.46,46.11Z"/><path class="cls-2" d="M36.14,43.14s.08,0,0-.06h0S36.2,43.13,36.14,43.14Z"/><path class="cls-2" d="M36.49,42.15h-.07v0Z"/><path class="cls-2" d="M32.14,36.28l-.22-.18C32.09,36.25,32.14,36.34,32.14,36.28Z"/><path class="cls-2" d="M28.44,38.71c0-.07.06-.1.08-.11h0A.51.51,0,0,0,28.44,38.71Z"/><path class="cls-2" d="M33.82,42.41l.11-.18A.37.37,0,0,0,33.82,42.41Z"/><path class="cls-2" d="M32.6,35.84v0Z"/><path class="cls-2" d="M34.08,41.63a.61.61,0,0,0,.24,0l-.06-.05Z"/><path class="cls-2" d="M31.92,36.1Z"/><path class="cls-2" d="M32.05,37.4c.12-.18-.29-.29-.46-.45,0-.27.31,0,.54.08,0-.19-.28-.47-.22-.57s.09,0,.16.08a.28.28,0,0,1-.07-.19s0,0,0-.05,0-.09-.15-.26l.08.06c-.17-.13-.33-.26-.45-.37s-.15-.29.06-.11c0,0,.06.11.12.18l-.07-.13c.3.25.07.16.29.36-.07-.14-.25-.53-.15-.52.26.35,0,.26.3.49l-.13,0c.45.43-.05,0,.43.47.09.07-.11-.22,0-.16-.13-.24-.2-.32-.33-.57-.17-.64.59,1.06.31.37L32,35.38c0-.16-.06-.25,0-.11l.22.66s-.3-1-.14-.65.06.31.09.38c.17.51-.11-.44-.1-.5l.18.65c0-.15-.12-.79-.13-1.09,0,.24.08.47.14.76-.06-.54,0-.16.12.45l-.1-1c0,.09,0,.41.07.6s-.07-.6-.11-1c0-.1.06.53.09.83,0-.44-.08-1-.09-1.26V34c0,.17,0,.34,0,.56l0,.28c0,.46-.18-2-.09-.94l0,.15a2.84,2.84,0,0,0,0,.39c0,.1.05.32.1.95-.06-1,.06.57,0-.79.06.77.06,1,.09,1.44,0,.07,0-.69,0-.75l0,.57c0-.19,0-.37.05-.54l0,.67,0-.11s0-.26,0-.41,0,.49,0,.7l0-.09a.78.78,0,0,1,.11-.18l-.11.29c.14-.37-.12.43,0,.08,0-.09.08-.22.11-.29-.07.25-.05.27,0,.23l-.13.2s0,0,.06,0h0l.11.09.22.19c0-.17.29-.43.4-.38l-.23.28c.21-.11,0-.18.31-.27.07.13-.21.36-.35.39l.21,0a2.88,2.88,0,0,1-.24.19c.2-.12,0,.47.33.26l-.06.08a4.25,4.25,0,0,0,.79.44c.18-.25.24-.13.46-.29.12.21.22.54.48.65.24-.05.17-.21.33-.33-.12.25.13.35-.08.47l.2.06.07,0,.24-.12a1.39,1.39,0,0,1,.15-.22c.07,0,0,.12-.11.22l0,0c.2-.12.21,0,.12.13s-.47.34,0,.14l0,0,.56-.17s-.36.12-.6.23c.41-.13.45-.12.42-.1s-.11.06.26,0c-.85.24-.78.22-.64.19s.2,0-.33.09l.39-.08-.33.07.56-.11c.21,0-.54.23-.78.2l-.13,0s1,.38.47.28l-.3-.2a.24.24,0,0,1,.05.23,1.85,1.85,0,0,1-.21.33,1.22,1.22,0,0,0-.34.82c0-.07-.15-.13-.12-.17-.29,0-.23.39,0,.48-.07.07-.19-.07-.31-.07s.17.42-.09.36c-.05,0-.06-.06-.07-.09s-.19.32.12.37c-.21.14,0,.42-.26.51.29.22-.28.28.17.47-.47-.17-.5.23-.31.42-.13-.09-.18.06-.37,0,0,.15,0,.31.28.35-.66.12.33.6-.44.55a4.11,4.11,0,0,1,.26,1.22c-.48-.14.05-.4-.45-.52.11.39.46.68.27,1.05-.09.09-.2-.1-.28-.16.12.46-.16.78.08,1.12a.32.32,0,0,1-.12-.08c0,.06-.09.14.14.15l-.06-.07c.33-.06.66.3.83.32-.63-.15-.18.29-1,.06a.42.42,0,0,0,.29.11c-.05.05-.14.06-.3,0,.1.22.35.17.33.36a2.05,2.05,0,0,1-.28-.08c.21.11.41.22.31.38-.07,0-.15,0-.15,0a.22.22,0,0,0,0,.1l1.84.2c-.09-.26-.45-.49-.24-.76.46.14.17-.1.58-.08l-.11-.21-.21.07c0-.17-.27-.32-.14-.47l.17.13a3.34,3.34,0,0,0-.1-.36,1.18,1.18,0,0,1-.14.22c-.22-.17-.51,0-.42-.18.05,0,0-.16.2-.3h0c-.15-.06-.3-.09-.25-.24a4.32,4.32,0,0,1,.5-.2c-.34,0-.31-.39-.68-.28a1,1,0,0,0,.3-.17l-.27.1c0-.12,0-.15.19-.25-.11-.22-.36.38-.35,0,0,0,0,0,.11,0-.07-.27-.44-.24-.47-.49.27-.31.19.07.41-.21-.25-.17-.77-.16-.87-.46v.07c-.5.31.11-.35-.2-.31a.57.57,0,0,0,.23-.11c0-.21-.37-.3-.71-.45l.14,0c0-.19-.15-.33-.19-.48-.14.06-.17,0-.31.16.36-.9-.88-.3-.64-1.06,0,0,.17,0,.14,0l-.34-.13c-.15.2-.07.14-.15.33s-.28.11-.34.06c.22,0,.27-.3.32-.45,0,.06-.12.11-.17.18.17-.46-.35.36-.32,0l.09-.09c-.11,0-.28.08-.33,0,.16-.25.16,0,.32-.23-.12-.08-.54.27-.46,0,.09,0,.16,0,.25,0,.11-.36,0-.3,0-.4h0L30.87,40v.11c-.57.52-.36-.08-.82.21.44-.28.18-.21.38-.48,0-.1,0-.24.06-.31-.24.17-.05-.27-.38,0,0-.09-.1-.07.06-.29-.17,0-.07.18-.15.29-.36.21-.22-.65-.74-.34-.33.06-.52.37-.81.44,0-.19.22-.33.22-.33-.06-.2-.16-.21-.32-.15a.47.47,0,0,0,.07-.28c-.1,0-.2.34-.27.14a2.12,2.12,0,0,1,.25-.36c-.15.05-.33.19-.48.24,0-.19.17-.24.25-.34a.6.6,0,0,0-.53.31l.05.13c-.05,0,.05-.25.11-.29s.13.15.1.25l-.11,0c-.12.61.35,0,.51.12l-.24.4.31-.29c0,.12-.09.37-.19.4,0,.25.16-.11.15.16a.15.15,0,0,1,0,.08l.16-.08c-.06.08-.12.3-.15.21.07.32.44-.17.36.17l0,0c.32,0,.17-.29.55-.54l-.26.8.18-.28s.06.07,0,.18c.21-.14.06-.13.22-.29,0,.33.42.08.17.55.17-.19,0-.24.21-.31-.27.51.2,0,.17.3-.2.23-.21,0-.25.32.34-.37.14.23.28.21.23-.33.28,0,.5,0-.08.09.14.38.17.59l-.05,0c.29-.29.36-.11.51-.09a.83.83,0,0,1-.36.27l.08.07a.35.35,0,0,1,.27-.09l-.23.2c.12.09.47,0,.47.24.21-.18.44-.66.73-.63-.1.11-.28.3-.37.3s.14,0,.12,0l-.25.12c0,.14.19-.12.22,0-.15.15-.07.15-.2.26s0-.11-.06-.07a.46.46,0,0,1-.1.38c.08-.09.21-.2.28-.17s-.16.21-.19.35c.14-.07.08.1.33-.1,0,0-.08.14-.14.2.16,0,.26.26.48,0v0h0c.43,0,.18.55.44.69l-.09.06c.2.07.28.28.54.23,0,0-.09.22-.2.28.14.05.24,0,.22.25-.23,0-.1.14-.19,0,0,.19-.08.34.27.29-.25.13-.18.32-.07.33l.08-.22a.36.36,0,0,1,.15.2l-.3.21c-.06.27.18.26.37.25s.35,0,.06.25c.24-.1.1-.17.37-.3,0,.12-.42.42-.42.42-.17.11.54-.09.42.07.13,0,.47-.13.61,0,0,.15-.54.18-.65.12s0,0,.08,0a.28.28,0,0,0-.25,0h.13c-.13,0-.11.2-.33.16a.22.22,0,0,0,.28,0c-.18.14,0,.24-.15.4.08,0,.23,0,.23,0-.19.25.23.14.27.33-.22.09-.47-.09-.33.12-.15.09-.35,0-.45-.08.13.11.05.19,0,.25l2.65.29c.08-.06.18-.11.2-.16l.1.11a.18.18,0,0,1,0-.16l-.26,0c0-.06,0-.1.16-.1-.16-.07-.43,0-.66-.12.14-.06-.12-.24.23-.24-.14.23.34,0,.38.21,0,0,0-.09,0-.15a.13.13,0,0,1,.09,0c.32-.21-.38-.14-.36-.37.2,0,.38,0,.34-.07s-.33,0-.47-.08c.16-.13-.1-.17-.08-.24l-.07.08c-.2,0-.17-.12-.22-.23.16,0,.1.1.17.08-.33-.15.38-.22.17-.38.14,0,.36,0,.46,0-.23-.18.28-.09.11-.28-.27,0-.21,0-.43-.16a2.71,2.71,0,0,0,.13.3l-.34-.24c0,.08.12.2.07.24-.19-.12-.13-.1-.35-.1.4,0-.18-.28.11-.36l.63.15c.33-.12-.23-.45,0-.7l-.13.07c-.24-.11,0-.19-.07-.31a1.13,1.13,0,0,0,.44,0c-.16,0,.07-.21-.34-.35l.31-.06c.17-.2-.53-.42-.4-.62.21.13.38.07.51.25,0-.07.07-.12-.07-.16.14,0-.23-.26,0-.27-.09-.06-.3-.13-.26-.2a.23.23,0,0,1,.1,0c-.1,0-.1-.17-.35-.17.71,0,.17-.63.78-.59a1.67,1.67,0,0,1,0-.51c.06,0,.1,0,.07.06.27-.08-.51-.38-.2-.48.36.06.11.19.26.19.65.3,0-.28.48-.21l0,0c.26,0-.1-.36,0-.49l.09.06a.85.85,0,0,1-.14-.8c.19.21,0,.17.31.29,0-.1-.38-.24-.33-.43a2.25,2.25,0,0,1,.67.12l-.12.17c.42.12.15-.22.33-.28l.15.09c.31-.31-.26-.47.15-.7H38c-.2-.12-.09-.12.07-.13s.24,0,0-.13h.62c-.13-.11-.42-.34-.39-.44.28,0,.42.23.65.37,0-.09,0-.33-.21-.36,0,0,.15.07.06.11-.38-.12-.44-.18-.31-.31a.76.76,0,0,0,.56-.2A.61.61,0,0,1,39.5,38c-.06-.08.13-.17.2-.23s0,0-.06,0,0,0-.25,0H39.3a.11.11,0,0,1,0-.1c.08,0,.12,0,.18,0s.13-.07.22-.16c-.14.06-.23,0-.2,0l-.15.13c-.38,0,.32-.25,0-.3l.2,0c-.14,0-.1-.47-.78-.3.07-.07.27-.23.35-.19a.57.57,0,0,0-.24-.34l-.6.08-.46,0c-.29,0-.46,0-.54-.18l.15-.13c-.15,0-.37.21-.41,0s.13-.13.08-.15-.42.14-.48,0l.18-.12c-.19-.19-.25-.11-.44,0a1.07,1.07,0,0,1-.48.2.85.85,0,0,0,.1-.79l0-.05c-.22-.22-.67,0-1-.06a.5.5,0,0,0-.07-.54l-.22-.32a2,2,0,0,1-.24-.56c0,.16-.24.31-.33.28,0-.24-.38,0-.13-.47l0,.06A1,1,0,0,0,34,33c0-.19-.12-.39-.18-.57l-.28.78a5.14,5.14,0,0,0,0-.68c0-.28,0-.54,0-.78-.22-.11-.43.05-.57.08s-.22-.06-.27-.54c-.08.22-.13.18-.19.37v-.47c-.16-.17-.21-.23-.32-.19v-.26c-.06,0,0,1-.05.9l0-.49a.75.75,0,0,1-.1-.24c0-.08,0-.08,0,0s0-.1,0-.1,0-.19,0,0c0-.06,0-.08,0-.1s0-.09,0,0v0c0,.08,0,.11,0,.24s0,0,0-.05,0,.15,0,.21v-.11a.9.9,0,0,0,0,.26c0,.13,0,.16-.08,0a1.22,1.22,0,0,1,0,.34.73.73,0,0,1,0-.18c-.08-.06,0,.54-.11.35s0-.15,0-.18.1-.14.09-.12a3.05,3.05,0,0,1-.1-.63c0,.18,0,.76-.08.68l0-.1v-.05s0,0,0,.09-.05-.08-.08-.07c-.07-.3-.11-.13-.17-.13a3.61,3.61,0,0,0,.17.76.13.13,0,0,1,0-.1v0a.88.88,0,0,1,.07-.12c0,.24,0,.47-.05.27.05.32.1.65.13.8-.17-.54-.39-.84-.55-1.29-.05.23-.21.32-.24.64a6.07,6.07,0,0,0,.26,1.25c0,.24-.15-.14-.22-.24a2.4,2.4,0,0,0-.07-.43c.07.52-.07.9.22,1.44-.2,0-.25-.62-.28-.14l-.08-.2c-.33.07-.23.71-.13,1.13s.15.81-.31.81a.26.26,0,0,1,.15,0c-.29.16-.35.43-.47.7a.68.68,0,0,1-.67.49c-.19,0,0,.21,0,.42L29,37.08c0,.13.09.26.13.39,0,.39-.78-.42-.7.15l.14.18c-.1,0-.22.27-.32,0,0,0,.07.23,0,.14l-.08-.16a2.59,2.59,0,0,1-.11.37c-.22,0-.22-.65-.45-.6a1.33,1.33,0,0,0-.07.66s.13.08.18.24l-.08.12c.11.5.1,1,.53,1.29,0-.12.1-.24.14-.36l.15.21-.19.08c.18.19.19,0,.22-.2a.43.43,0,0,0,.19.22,4.89,4.89,0,0,0,0-.54c.11.17.06.41.25.44,0-.25-.27-.36-.18-.57.2.17.26.35.28.11a.31.31,0,0,1,.07.27c0-.19.25-.2.16-.47.25.18.29-.26.55.14a.8.8,0,0,1,0-.51c.2.58.33-.21.69.29-.23-.49.24-.53.2-.91,0,0,.06.11,0,.11.13-.07.27,0,.41,0-.31-.3-.25-.52-.39-.77.43.13.33.39.68.6-.28-.21-.09-.45-.36-.58a1.05,1.05,0,0,1,.49.14c-.43-.33,0-.15-.22-.42.32,0,.45.23.42,0C32,37.14,32.05,37.4,32.05,37.4Zm.08-2.92v0Zm0-.19s0,0,0,.05a3.37,3.37,0,0,1-.08-.52A4.3,4.3,0,0,0,32.15,34.29Zm-.79-3.1c0-.07,0,0,.06.09s0,0,0,.08v.05C31.38,31.33,31.36,31.25,31.36,31.19Z"/><path class="cls-2" d="M31.44,31.8a.06.06,0,0,1,0,0l0,.08,0-.15Z"/><path class="cls-2" d="M32.11,42.93h0l0,0Z"/><polygon class="cls-2" points="32.54 36 32.55 35.87 32.54 35.98 32.54 36"/><path class="cls-2" d="M31.58,40.84a.19.19,0,0,0,0-.08Z"/><path class="cls-2" d="M31,40.24l0-.16A.3.3,0,0,0,31,40.24Z"/><path class="cls-2" d="M30.5,39.73l-.08.1h0Z"/><path class="cls-2" d="M33.41,46l0,0C33.34,45.88,33.36,45.92,33.41,46Z"/><path class="cls-2" d="M35,45.5a.42.42,0,0,1,.16.09C35.18,45.51,35.18,45.46,35,45.5Z"/><polygon class="cls-2" points="33.81 42.43 33.81 42.44 33.82 42.41 33.81 42.43"/><path class="cls-2" d="M35.19,45.77a.12.12,0,0,0,0-.18C35.16,45.65,35.14,45.72,35.19,45.77Z"/><path class="cls-2" d="M27.94,38.32l0,0a.17.17,0,0,0,0,.05Z"/><path class="cls-2" d="M27.9,38.34l0,0S27.88,38.37,27.9,38.34Z"/><path class="cls-2" d="M27.76,38.41l.09,0S27.8,38.34,27.76,38.41Z"/><path class="cls-2" d="M28.73,38.77l.05-.1A.89.89,0,0,0,28.73,38.77Z"/><path class="cls-2" d="M29,38.85c0-.05,0-.28-.16-.26l0,.08C28.89,38.54,28.86,39,29,38.85Z"/><path class="cls-2" d="M29.29,40.56l-.13-.17c0,.12-.07.28-.16.26C29,41.08,29.09,40.39,29.29,40.56Z"/><path class="cls-2" d="M29.71,41c-.11,0-.09.14-.13.2C29.69,41.18,29.72,41.17,29.71,41Z"/><path class="cls-2" d="M32.76,44.26l-.23.16C32.62,44.47,32.62,44.36,32.76,44.26Z"/><polygon class="cls-2" points="34.45 44.05 34.53 43.87 34.31 44.01 34.45 44.05"/><path class="cls-2" d="M33.23,45.7h0Z"/><path class="cls-2" d="M36.67,42.43l-.33-.11C36.38,42.4,36.74,42.54,36.67,42.43Z"/><path class="cls-2" d="M38.47,39.36a.81.81,0,0,0,.51-.1.27.27,0,0,0-.11-.08l0,.06C38.65,39.29,38.47,39.32,38.47,39.36Z"/><path class="cls-2" d="M33.66,32.09l0,0h0s-.08-.24-.11-.34Z"/><path class="cls-2" d="M55.15,37.58a5.26,5.26,0,0,0,3.45-3.23,15.58,15.58,0,0,0,.9-4.8,7.1,7.1,0,0,0,7.55,7.09c-2.29.81-3.75,3.13-4.35,5.49a13.68,13.68,0,0,0-.7,4.06c.37-2.49-.17-1.92-1.56-4a10.46,10.46,0,0,0-6-4.28"/><path class="cls-2" d="M54.59,37.19c0,.08-.08.29,0,.27l.14-.34Z"/><path class="cls-2" d="M54.85,38a1.59,1.59,0,0,0,.36-.75,6.29,6.29,0,0,0-.36.54c-.08,0-.08-.15,0-.27,0,.08-.09-.11-.18.1s.11.34.29.15A.63.63,0,0,1,54.85,38Z"/><path class="cls-2" d="M59.6,41.88v-.06A.18.18,0,0,0,59.6,41.88Z"/><path class="cls-2" d="M61.4,44.88s0,0-.08,0S61.37,44.89,61.4,44.88Z"/><path class="cls-2" d="M61,45.41l0,0S61,45.4,61,45.41Z"/><path class="cls-2" d="M59.6,41.88l0,.15C59.67,42,59.61,41.94,59.6,41.88Z"/><path class="cls-2" d="M56,37.44l-.09.06H56Z"/><path class="cls-2" d="M58.28,40.88l0,0-.12.1Z"/><path class="cls-2" d="M57.29,40.16a2.34,2.34,0,0,0,.29-.33c-.09.1-.14.14-.18.14S57.33,40.08,57.29,40.16Z"/><path class="cls-2" d="M55.81,38.71l-.05,0Z"/><path class="cls-2" d="M58.85,41.55l-.07.09Z"/><path class="cls-2" d="M57.37,38.15l0,0S57.36,38.15,57.37,38.15Z"/><polygon class="cls-2" points="55.13 37.5 55.15 37.48 55.11 37.31 55.13 37.5"/><path class="cls-2" d="M63.54,45.75h0S63.56,45.77,63.54,45.75Z"/><path class="cls-2" d="M67.07,36.53s-.24,0-.26.06S67.07,36.58,67.07,36.53Z"/><path class="cls-2" d="M56,37.49l.06,0S56.05,37.48,56,37.49Z"/><polygon class="cls-2" points="66.81 36.59 66.81 36.59 66.81 36.6 66.81 36.59"/><path class="cls-2" d="M63.8,43.18h0Z"/><path class="cls-2" d="M63,45,63,45S63,45,63,45Z"/><path class="cls-2" d="M63.65,42s.07,0,0-.06h0S63.7,42,63.65,42Z"/><path class="cls-2" d="M64,41h-.06v0Z"/><path class="cls-2" d="M59.65,35.16,59.43,35C59.6,35.14,59.65,35.23,59.65,35.16Z"/><path class="cls-2" d="M56,37.6a.21.21,0,0,1,.08-.11h0A.19.19,0,0,0,56,37.6Z"/><path class="cls-2" d="M61.33,41.3l.1-.19A.57.57,0,0,0,61.33,41.3Z"/><path class="cls-2" d="M60.11,34.73l0,0S60.1,34.78,60.11,34.73Z"/><path class="cls-2" d="M61.59,40.51a.66.66,0,0,0,.24,0,.13.13,0,0,0-.07,0Z"/><path class="cls-2" d="M59.42,35h0Z"/><path class="cls-2" d="M59.55,36.29c.13-.19-.28-.3-.45-.46,0-.27.31.06.53.09,0-.2-.28-.48-.22-.57s.1,0,.16.07a.46.46,0,0,1-.07-.18s0,0,0-.06,0-.08-.15-.26l.08.06c-.16-.12-.32-.26-.44-.36s-.15-.29.05-.11c0,0,.07.11.12.18l-.06-.14c.3.25.07.17.29.37-.07-.14-.26-.54-.15-.52.26.35,0,.26.29.48l-.13,0c.46.42,0,0,.44.46.09.07-.12-.21,0-.16-.13-.24-.2-.32-.32-.57-.17-.64.59,1.06.31.37-.07-.2-.18-.49-.24-.68s-.06-.24,0-.11l.22.67s-.3-1-.14-.66.06.31.08.38c.18.51-.11-.44-.1-.5l.18.65a10.94,10.94,0,0,1-.12-1.09l.13.77c-.05-.54,0-.16.13.44l-.11-1c0,.09.05.41.07.61s-.06-.61-.1-1c0-.1.06.53.09.83,0-.43-.08-1-.1-1.26v-.17s0,0,0,0,0,.34,0,.56l0,.29c0,.45-.18-2-.09-1V33a3.51,3.51,0,0,0,0,.39,8.1,8.1,0,0,1,.11.95c-.06-1,.05.57,0-.8.06.77.06,1,.08,1.45,0,.06,0-.7.06-.76l0,.57c0-.19,0-.36.06-.53l0,.66,0-.11s0-.25,0-.41,0,.49,0,.71l0-.09a.72.72,0,0,1,.11-.19c-.05.13-.08.2-.11.3.14-.38-.13.42,0,.08,0-.09.08-.23.11-.3-.06.26-.05.28,0,.23l-.13.21s0,0,.06,0h0l.12.09.22.2c0-.18.29-.44.39-.39l-.22.28c.21-.1,0-.17.31-.26.06.12-.22.36-.36.38l.21,0c-.06.09-.13.1-.23.19.2-.11,0,.48.32.26l-.06.09a4,4,0,0,0,.8.43c.18-.25.24-.12.45-.28.13.2.23.54.48.64s.17-.2.33-.33c-.11.26.14.36-.07.48l.2,0h.06l.25-.13a1.39,1.39,0,0,1,.15-.22c.07,0,0,.12-.11.23l0,0c.2-.12.21,0,.11.12s-.47.34,0,.14l0,0a5.26,5.26,0,0,1,.55-.16s-.36.12-.59.22c.41-.13.45-.11.42-.09s-.11,0,.25,0c-.84.23-.78.21-.63.19s.19,0-.34.08l.4-.08-.33.07.55-.11c.22,0-.53.24-.77.2l-.13,0c-.05,0,1,.38.46.29a1.57,1.57,0,0,0-.3-.2.22.22,0,0,1,.06.22,1.53,1.53,0,0,1-.22.33,1.23,1.23,0,0,0-.33.82c-.06-.07-.15-.12-.12-.17-.29,0-.23.39,0,.49-.06.06-.18-.07-.3-.08s.17.42-.1.37c0,0-.06-.07-.07-.1.08.13-.18.32.13.38-.22.14,0,.42-.26.51.28.22-.28.28.16.47-.46-.18-.49.22-.3.41-.14-.08-.18.07-.37,0,0,.15,0,.31.27.35-.65.13.34.6-.43.55a4.24,4.24,0,0,1,.26,1.23c-.48-.15,0-.41-.46-.52.11.38.47.68.27,1-.08.09-.2-.1-.27-.15.11.45-.16.78.08,1.11a.2.2,0,0,1-.13-.08c0,.07-.08.14.14.15l0-.06c.33-.07.66.29.83.32-.64-.16-.19.28-1,.06a.43.43,0,0,0,.3.1c0,.06-.14.07-.31,0,.11.22.35.16.33.35a2,2,0,0,1-.27-.08c.2.12.41.23.3.38-.06,0-.15,0-.14,0a.3.3,0,0,0,0,.1l1.84.21c-.08-.27-.44-.5-.23-.77.46.15.16-.09.57-.08l-.11-.21-.2.07c0-.17-.28-.32-.15-.47L63,45c0-.12-.05-.22-.09-.35a1.1,1.1,0,0,1-.14.21c-.22-.16-.51,0-.42-.18,0,0,0-.15.2-.3h0c-.14-.06-.29-.09-.25-.24s.43-.14.51-.2c-.34,0-.31-.39-.68-.27a.72.72,0,0,0,.29-.18l-.27.1c0-.11.06-.15.2-.24-.11-.22-.36.37-.36,0,0,0,.06,0,.12,0-.08-.27-.45-.25-.48-.5.28-.31.2.08.42-.2-.25-.17-.77-.17-.87-.47v.08c-.49.3.11-.35-.19-.31a.83.83,0,0,0,.23-.12c0-.2-.37-.3-.72-.44l.15-.06c0-.18-.15-.33-.19-.48-.14.07-.18,0-.31.17.35-.91-.88-.3-.65-1.06,0,0,.17,0,.15-.05l-.34-.13c-.15.21-.07.15-.16.34s-.27.11-.33.05c.22,0,.27-.3.32-.45-.05.07-.12.12-.17.18.17-.45-.35.36-.33,0l.1-.1c-.11,0-.28.09-.33,0,.15-.25.16,0,.31-.23-.11-.07-.54.27-.45,0,.09,0,.15,0,.25,0,.11-.35,0-.29,0-.39h0l-.09-.26V39c-.58.51-.36-.09-.82.21.44-.28.18-.21.38-.48,0-.11,0-.25,0-.31-.23.17,0-.28-.38,0,0-.09-.09-.07.07-.28-.17,0-.07.17-.15.28-.36.21-.23-.64-.74-.34-.33.07-.53.37-.81.44,0-.18.21-.33.21-.33,0-.19-.16-.21-.32-.14a.5.5,0,0,0,.08-.29c-.11,0-.21.34-.27.15a2.19,2.19,0,0,1,.25-.37c-.15,0-.33.19-.48.24,0-.18.17-.24.25-.33a.59.59,0,0,0-.53.3l.05.13c-.06,0,0-.25.1-.29s.13.15.1.26l-.1,0c-.13.62.35,0,.51.12l-.24.4.3-.29c0,.13-.08.37-.18.4,0,.26.15-.1.15.17,0,0,0,.06,0,.07l.16-.08c-.06.08-.11.3-.15.21.07.32.44-.17.36.18h0c.32,0,.17-.28.54-.54l-.26.8.19-.28s.06.08,0,.19c.21-.15,0-.14.22-.3,0,.33.41.08.16.55.18-.19,0-.24.21-.31-.27.51.21,0,.17.31s-.21,0-.25.32c.34-.38.15.22.28.2.24-.33.29,0,.51,0-.09.1.13.39.16.6l0,0c.28-.29.36-.12.51-.1a.82.82,0,0,1-.37.27l.09.07a.34.34,0,0,1,.27-.08l-.23.2c.12.09.47,0,.46.24.22-.19.45-.67.74-.64-.11.12-.29.3-.37.3s.13,0,.11,0L59,41c0,.14.19-.11.22,0-.16.15-.07.14-.21.25s0-.1-.06-.07a.46.46,0,0,1-.1.38c.09-.08.22-.19.28-.17s-.16.21-.18.35c.13-.07.08.11.32-.1,0,0-.08.14-.13.21.16,0,.25.26.47,0v0h0c.42,0,.17.54.44.68l-.09.06c.2.08.27.28.54.24,0,0-.09.21-.21.27.15.06.25,0,.23.25-.23,0-.1.14-.2,0,0,.19-.07.34.28.3-.26.12-.19.32-.07.33l.07-.22a.33.33,0,0,1,.16.19l-.31.21c0,.28.19.26.38.26s.35,0,0,.24c.25-.09.11-.16.38-.3,0,.13-.42.42-.42.42-.18.12.53-.09.42.07.13,0,.47-.13.6,0,0,.15-.54.18-.64.11s0,0,.07,0a.26.26,0,0,0-.24,0h.13c-.13,0-.12.2-.33.16a.22.22,0,0,0,.28,0c-.19.13,0,.23-.15.4.07,0,.23,0,.22,0-.19.25.24.14.27.34-.21.08-.46-.1-.32.11-.15.1-.35,0-.45-.08.13.11.05.19,0,.25l2.65.3a1,1,0,0,0,.2-.16l.1.1a.17.17,0,0,1-.05-.15l-.26,0s0-.1.16-.09c-.17-.07-.44,0-.66-.12.14-.07-.13-.24.22-.24-.13.23.35,0,.39.2,0,0,0-.09,0-.14a.09.09,0,0,1,.09,0c.32-.2-.39-.14-.36-.37.19,0,.37,0,.33-.06s-.32,0-.47-.08c.17-.14-.09-.17-.07-.25l-.08.08c-.19,0-.16-.12-.21-.22.15,0,.1.1.17.07-.33-.15.37-.21.16-.38.14,0,.37.05.46,0-.23-.19.29-.1.11-.28-.26,0-.2,0-.42-.16a2.52,2.52,0,0,0,.12.29,3.53,3.53,0,0,1-.34-.24c0,.08.13.2.08.24-.2-.12-.14-.1-.36-.1.41,0-.17-.28.12-.36l.63.16c.32-.13-.23-.46,0-.7l-.13.06c-.24-.1,0-.19-.06-.31a.84.84,0,0,0,.44,0c-.16,0,.07-.21-.34-.34l.31-.06c.17-.21-.53-.43-.4-.62.21.12.38.07.51.24,0-.06.07-.11-.07-.15.14,0-.23-.27,0-.28-.08-.05-.29-.13-.25-.2l.1,0c-.1,0-.1-.16-.35-.17.71,0,.16-.62.78-.59a1.33,1.33,0,0,1,0-.5c.06,0,.1,0,.07.06.26-.09-.51-.38-.21-.49.37.06.12.19.27.19.64.31,0-.28.47-.2l0,0c.26,0-.09-.37.05-.5l.09.06a.85.85,0,0,1-.15-.8c.19.22.06.17.32.3,0-.11-.39-.24-.34-.44a2.25,2.25,0,0,1,.67.12l-.12.18c.42.11.16-.23.34-.28l.15.08c.3-.31-.26-.47.15-.7h-.21c-.21-.12-.09-.12.07-.13s.23,0,0-.12h.62c-.13-.11-.43-.33-.4-.44.28,0,.42.24.65.38,0-.1,0-.34-.2-.37,0,0,.14.08,0,.12-.37-.12-.43-.18-.31-.31a.76.76,0,0,0,.56-.2.68.68,0,0,1,.36-.23c-.06-.08.14-.18.21-.23s0,0-.06,0-.05,0-.25,0-.1,0-.09,0,0-.05,0-.1.11,0,.18,0,.12-.07.21-.16c-.14,0-.23,0-.19,0l-.16.13c-.37,0,.33-.25,0-.31l.2,0c-.15,0-.1-.47-.79-.3.07-.07.27-.22.35-.19a.6.6,0,0,0-.24-.34l-.6.09-.46,0c-.28,0-.45,0-.53-.19l.15-.12c-.15,0-.38.2-.42,0s.14-.13.09-.15-.42.14-.49,0a1.13,1.13,0,0,1,.18-.12c-.18-.2-.24-.11-.43,0a1,1,0,0,1-.48.19.84.84,0,0,0,.09-.79l0,0c-.21-.22-.66,0-1,0a.51.51,0,0,0-.07-.55l-.23-.31a2.06,2.06,0,0,1-.23-.57c0,.17-.24.32-.33.28,0-.24-.38,0-.14-.47l0,.06a1,1,0,0,0,0-.65c0-.19-.12-.38-.17-.57l-.28.79a5.14,5.14,0,0,0,0-.68c0-.28,0-.55,0-.79-.22-.11-.43.06-.58.09s-.21-.06-.26-.55c-.09.22-.14.19-.19.38v-.47c-.15-.18-.2-.23-.31-.2v-.26c-.06,0,0,1,0,.9L59.62,30a1.45,1.45,0,0,1-.09-.25c0-.07,0-.08,0,0a.46.46,0,0,1,0-.1c0-.05,0-.18,0,0,0-.06,0-.08,0-.09s0-.1,0,0v0a2.14,2.14,0,0,0,0,.24s0,0,0-.05,0,.15,0,.2v-.11a.8.8,0,0,0,0,.26c0,.13,0,.16-.07,0,0,.11,0,.33,0,.33a1.23,1.23,0,0,1,0-.17c-.08-.06,0,.53-.11.35s0-.16,0-.18.09-.15.09-.12a3.31,3.31,0,0,1-.1-.63c0,.17,0,.76-.08.68l0-.11v0s0,0,0,.08-.06-.07-.08-.07c-.07-.3-.12-.13-.18-.12a3.44,3.44,0,0,0,.18.75.12.12,0,0,1,0-.1.11.11,0,0,0,0-.06v0l.07-.12c0,.23,0,.46,0,.27.05.31.1.64.12.8-.17-.55-.39-.85-.55-1.3,0,.23-.21.32-.24.65a6.29,6.29,0,0,0,.27,1.25c0,.23-.15-.15-.22-.25s0-.24-.07-.43c.07.53-.08.9.21,1.45-.19,0-.25-.62-.28-.15l-.08-.2c-.33.07-.22.72-.13,1.14s.16.8-.31.8a.2.2,0,0,1,.15,0c-.29.15-.35.43-.47.69a.66.66,0,0,1-.67.49c-.18,0,0,.21,0,.42L56.52,36c0,.13.09.25.13.39,0,.38-.78-.43-.71.15l.15.17c-.11,0-.23.27-.32,0,0,0,.07.22,0,.13l-.07-.15c0,.12-.07.24-.11.37-.22-.06-.23-.65-.46-.61a1.35,1.35,0,0,0-.06.66s.13.08.18.25l-.08.11c.11.5.09,1,.52,1.3a2.35,2.35,0,0,0,.14-.37l.15.21-.18.08c.18.19.19,0,.21-.2a.59.59,0,0,0,.19.23,5.07,5.07,0,0,0,0-.55c.11.18.06.41.26.45,0-.25-.28-.37-.18-.58.19.17.25.35.28.11a.36.36,0,0,1,.07.28c0-.2.25-.21.16-.48.25.19.28-.26.54.14,0-.12-.05-.43,0-.5.2.58.32-.22.68.29-.22-.49.24-.53.2-.92,0,0,.07.12,0,.12.13-.07.27,0,.41,0-.32-.3-.25-.52-.39-.77.42.13.33.39.67.6-.27-.21-.09-.45-.36-.58a1.19,1.19,0,0,1,.5.14c-.43-.32,0-.15-.22-.42.32,0,.45.23.42,0C59.49,36,59.55,36.29,59.55,36.29Zm.09-2.92h0v0Zm0-.2s0,0,0,.06l-.08-.52C59.59,32.89,59.62,33,59.66,33.17Zm-.8-3.09c0-.08,0,0,.06.08a.34.34,0,0,0,0,.08v.06Z"/><path class="cls-2" d="M58.94,30.68v0l0,.09,0-.15Z"/><path class="cls-2" d="M59.61,41.81h0s0,0,0,0Z"/><polygon class="cls-2" points="60.05 34.88 60.05 34.75 60.04 34.86 60.05 34.88"/><path class="cls-2" d="M59.09,39.72l0-.07A.24.24,0,0,0,59.09,39.72Z"/><path class="cls-2" d="M58.46,39.13l0-.17A1.09,1.09,0,0,0,58.46,39.13Z"/><path class="cls-2" d="M58,38.62l-.08.1h0Z"/><path class="cls-2" d="M60.91,44.85s0,0,0,0S60.87,44.8,60.91,44.85Z"/><path class="cls-2" d="M62.51,44.38a.68.68,0,0,1,.17.09C62.69,44.4,62.68,44.34,62.51,44.38Z"/><polygon class="cls-2" points="61.32 41.32 61.32 41.32 61.33 41.3 61.32 41.32"/><path class="cls-2" d="M62.7,44.65a.13.13,0,0,0,0-.18C62.67,44.53,62.64,44.6,62.7,44.65Z"/><path class="cls-2" d="M55.45,37.2l0,0a.05.05,0,0,1,0,0Z"/><path class="cls-2" d="M55.4,37.22l0,0S55.39,37.26,55.4,37.22Z"/><path class="cls-2" d="M55.26,37.3l.1,0S55.31,37.22,55.26,37.3Z"/><path class="cls-2" d="M56.24,37.66l0-.1A.3.3,0,0,0,56.24,37.66Z"/><path class="cls-2" d="M56.5,37.73s-.06-.28-.17-.25l0,.08C56.4,37.42,56.36,37.88,56.5,37.73Z"/><path class="cls-2" d="M56.8,39.45l-.13-.18c0,.12-.07.28-.16.27C56.55,40,56.6,39.28,56.8,39.45Z"/><path class="cls-2" d="M57.22,39.92c-.12,0-.09.15-.14.2C57.2,40.07,57.23,40.05,57.22,39.92Z"/><path class="cls-2" d="M60.27,43.15l-.24.16C60.12,43.36,60.12,43.24,60.27,43.15Z"/><polygon class="cls-2" points="61.96 42.93 62.04 42.76 61.82 42.89 61.96 42.93"/><path class="cls-2" d="M60.73,44.58h0Z"/><path class="cls-2" d="M64.18,41.31l-.33-.1C63.89,41.28,64.24,41.43,64.18,41.31Z"/><path class="cls-2" d="M66,38.24a.92.92,0,0,0,.51-.09.2.2,0,0,0-.11-.08.12.12,0,0,1,0,0C66.16,38.17,66,38.2,66,38.24Z"/><path class="cls-2" d="M61.16,31l0,.05h.06c-.06,0-.08-.24-.12-.34Z"/><path class="cls-2" d="M31.87,57.42a247.29,247.29,0,0,0,32.19-1.5A11.91,11.91,0,0,1,57.2,69.78a22,22,0,0,1-7,1.15c-3.78.21-7.74.31-11.13-1.36-4.36-2.15-7.31-6.09-7.2-12.15"/><path class="cls-2" d="M32.6,57.44c-.09,0-.31,0-.26.09l.36.08Z"/><path class="cls-2" d="M31.94,58.23a.92.92,0,0,0,.82.17c-.35-.12-.21-.15-.62-.29,0-.12.11-.21.24-.19-.09,0,.08-.18-.15-.24-.28.15-.28.35,0,.55C32.1,58.27,32,58.23,31.94,58.23Z"/><path class="cls-2" d="M36.66,68.7l0-.07A.1.1,0,0,0,36.66,68.7Z"/><path class="cls-2" d="M43.56,71.57a.08.08,0,0,0-.09.06C43.53,71.62,43.57,71.6,43.56,71.57Z"/><path class="cls-2" d="M44.81,72.09l-.08,0S44.79,72.11,44.81,72.09Z"/><path class="cls-2" d="M36.66,68.7l.1.21C36.84,68.82,36.72,68.78,36.66,68.7Z"/><path class="cls-2" d="M32.93,59.72a.2.2,0,0,0-.11-.09.41.41,0,0,1,0,.09Z"/><path class="cls-2" d="M34,66.62l0-.05-.15.05Z"/><path class="cls-2" d="M32.53,64.46c0,.06.29-.07.42-.11-.13,0-.2,0-.24,0Z"/><path class="cls-2" d="M31.78,60.43l-.06-.06Z"/><path class="cls-2" d="M35.25,68l0,.09A.41.41,0,0,0,35.25,68Z"/><path class="cls-2" d="M34.7,58.91v0S34.68,58.91,34.7,58.91Z"/><polygon class="cls-2" points="31.87 57.34 31.91 57.33 31.92 57.15 31.87 57.34"/><path class="cls-2" d="M47.16,72.54h0C47.09,72.57,47.12,72.57,47.16,72.54Z"/><path class="cls-2" d="M65.21,62.42c-.33.17-.24-.49-.63-.21C64.71,62.21,65,62.68,65.21,62.42Z"/><path class="cls-2" d="M32.9,59.78a.29.29,0,0,1,0,.09S32.92,59.8,32.9,59.78Z"/><path class="cls-2" d="M64.58,62.21h0l0,0Z"/><path class="cls-2" d="M52.48,72.1a.54.54,0,0,0-.07-.13A.28.28,0,0,0,52.48,72.1Z"/><path class="cls-2" d="M48.51,71.89l.1,0A.16.16,0,0,0,48.51,71.89Z"/><path class="cls-2" d="M54.51,71.41c.06,0,.09,0,.15,0l0,0S54.58,71.45,54.51,71.41Z"/><path class="cls-2" d="M56.68,70.9l-.06-.05-.07,0Z"/><path class="cls-2" d="M41.13,58.73a.94.94,0,0,1-.1-.28C41.06,58.67,40.75,58.75,41.13,58.73Z"/><path class="cls-2" d="M32.76,59.74c.08,0,.12,0,.14,0l0-.06S32.78,59.72,32.76,59.74Z"/><path class="cls-2" d="M54.18,69h.31A1.1,1.1,0,0,0,54.18,69Z"/><path class="cls-2" d="M56.27,57.93l-.08,0A.08.08,0,0,0,56.27,57.93Z"/><path class="cls-2" d="M55.36,68.75a.49.49,0,0,0,.22.16s0,0,0-.08Z"/><path class="cls-2" d="M41,58.45Z"/><path class="cls-2" d="M38.82,59.21c.32,0,.15-.4.22-.63.38-.12.18.3.31.5.24-.11.41-.48.59-.47,0,.07.05.09,0,.18.25-.33.75,0,1-.44a.42.42,0,0,1,0,.1,1.65,1.65,0,0,1-.06-.56c.14,0,.26-.26.32,0-.09,0-.09.1-.13.18L41.3,58c.15.38-.2.14-.19.42.29-.13.62-.45.85-.35,0,.37-.52.14-.22.46l-.35-.13c.28.58-.21,0,0,.58.46.1.51-.2,1-.1.09-.21,0-.31.05-.52.64-.38.54.93,1,.42.12-.25.15-.72.49-.49l-.1.43c.45,0,.24-.61.71-.35-.08.17-.35.15-.28.2.31.32.21-.24.44-.25l.06.37c.47-.08,1-.36,1.49-.45,0,.11-.11.23,0,.34a3.52,3.52,0,0,1,2.05.17l.23-.33c.06,0,.11.14,0,.21.26.1,0-.21.12-.34s.19.17.11.27c.42-.29,1.21-.64,1.69-.33l-.09.1c.37.11.37-.68.72-.4l-.06.06c.78.1,1.62-.25,2.24.19.08-.47.78.15.79-.49.46.28.34.41,1,.58.17,0,.22-.43.42-.51l0,.34.26-.38.17.4.19-.1a.28.28,0,0,1-.17-.24c.29-.18.75.17.78.35l.68-.35c0,.14-.11.19-.2.29.35-.38.1.35.42,0-.05-.07,0-.2,0-.27a.89.89,0,0,0,.87.05l0,.24c.53,0,1.1-.22,1.7-.27-.23-.09-.22-.49,0-.55l.11.35c.09-.23-.2-.12,0-.41.22,0,.19.39.07.52l.26-.15c0,.1,0,.17,0,.3.09-.23.5.31.63-.09l0,.11a4.57,4.57,0,0,0,.71-.13l.3-.08.11,0c0-.32.08-.25.2-.52.18.08.21.32.37.28a.9.9,0,0,0,.22-.22,1.37,1.37,0,0,1,.2-.22c-.23.31-.18.41-.36.53.06.1.09.09.33.25.11,0,.16-.1.25-.1s-.1.15-.23.17l0,0c.26.29,0,.71-.12,1.06s-.39.67-.11,1l0,0a4.53,4.53,0,0,1,.23.57c-.08.24-.18-.18-.38,0,.38.65-.24.87,0,1.41-.89.11-.37,1.27-1.08,1.51l.19.06c.12.2-.16.1-.24.16.14.06.21,0,.27.07-.28,1.1-1.4,1.81-2.25,2.43-.31.23.57.9-.15.9l-.13-.36c-.32.88-1.27,1-1.77,1.7,0-.1,0-.19,0-.23-.26-.14-.54.26-.46.46-.12,0-.11-.17-.22-.24s-.25.49-.43.28c0,0,0-.1,0-.13,0,.16-.48.15-.28.4-.33,0-.52.31-.8.2-.08.37-.55,0-.5.45-.09-.49-.61-.27-.77,0,0-.16-.2-.13-.16-.34-.22,0-.41.16-.34.41-.49-.52-.79.59-1.12-.14a9.41,9.41,0,0,1-1.95.71c0-.5.71-.09.64-.61-.59.24-.92.68-1.54.6-.16-.06.08-.22.13-.31-.61.24-1.19,0-1.72.3,0,0,.06-.1.11-.14-.11,0-.25-.06-.23.16l.1-.06c.18.32-.4.69-.42.86.17-.64-.54-.15-.27-1a.34.34,0,0,0-.14.3c-.1,0-.13-.12,0-.3-.38.13-.24.37-.59.36,0-.11.07-.15.11-.28-.18.22-.35.43-.64.33,0-.07,0-.15.07-.15-.49,0-.87.55-1.41.3.19-.46-.18-.16-.17-.57l-.3.09.1.21c-.25,0-.51.25-.71.09l.2-.15-.48,0,.25.19c-.28.17,0,.52-.37.36.08,0-.26,0-.35-.3h0c-.15.1-.3.22-.47.08s.12-.44.1-.53c-.18.33-.59,0-.83.3a.7.7,0,0,0,.12-.33l-.17.25a.27.27,0,0,1,0-.33c-.32-.14,0,.54-.37.21,0,0,0-.06.11-.08-.37-.22-.84-.06-1.16-.33,0-.42.35,0,.35-.35-.53-.11-1.24.05-1.68-.3l.07.08c-.34.48-.23-.44-.6-.33.08,0,.24-.24.19-.19-.26-.27-.72-.24-1.28-.43l.14-.08c-.1-.23-.43-.39-.56-.59-.15.07-.24,0-.31.19,0-.56-.33-.69-.67-.83s-.66-.29-.62-.75c.05,0,.22,0,.18,0a4.6,4.6,0,0,1-.45-.32c-.17.19-.08.15-.15.37a.45.45,0,0,1-.44-.12c.29.09.31-.26.36-.42,0,.06-.14.08-.2.14.18-.5-.44.27-.43-.24l.12-.06c-.14-.09-.36-.1-.42-.26.2-.21.2.06.41-.07-.14-.17-.72-.07-.57-.4.12,0,.18.16.3.19.18-.37.1-.34.07-.51v0l0-.39,0,.12c-.82.13-.37-.43-1-.56.59.14.27-.06.59-.17,0-.12.07-.29.18-.29-.32-.06.09-.34-.36-.42.09-.05-.06-.18.21-.24-.16-.17-.16.11-.29.15-.49-.22.17-.91-.45-1.25-.29-.38-.68-.38-.93-.77.15-.17.4.05.4.05a.5.5,0,0,0-.08-.61c.1,0,.17,0,.28-.1,0-.16-.41-.06-.28-.31a2.74,2.74,0,0,1,.45.12c-.13-.18-.33-.36-.45-.56.18-.07.29.1.42.16-.1-.22-.21-.57-.51-.63l-.1.16c0-.09.25-.06.31,0,.25.18-.08.29-.18.31l-.08-.14c-.61.2.13.59.15.88l-.47-.06.42.25c-.11.09-.35.17-.44,0-.19.25.18.17,0,.4,0,0-.06,0-.08,0l.16.2c-.1,0-.31.09-.26-.06-.19.45.46.56.16.78l0,0c.27.5.33,0,.81.27l-.71.48.33,0c0,.06,0,.17-.12.19.28.14.13-.07.37,0-.22.35.38.64-.1.89.28,0,.09-.31.36-.11-.5.29.2.28.07.6-.31.05-.26-.23-.4.1.52-.06.12.49.3.65.35-.17.36.34.66.58-.14,0,.17.68.25,1l-.06,0c.36-.18.5.14.73.28-.2.14-.3.17-.47.12l.15.19a.39.39,0,0,1,.37.07l-.27.14c.22.25.7.24.82.68.22-.18.35-.77.76-.61-.09.12-.27.32-.39.28,0,0,.18,0,.19.1l-.3.06c.05.21.22-.08.31,0-.16.16,0,.19-.17.3s0-.16-.13-.13a.61.61,0,0,1,.09.54c.08-.11.2-.22.31-.16s-.1.27,0,.48c.16-.07.22.18.43-.07.07.06,0,.19,0,.28.21,0,.63.44.69,0l0,0h0c.61.05.8.77,1.33.92l-.06.1c.33,0,.65.26,1,.16.08,0,.1.28,0,.37.26,0,.33-.07.58.24-.3.07,0,.19-.29,0,.25.22.26.41.69.26-.21.21.1.41.27.38L40,70.76a1.54,1.54,0,0,1,.44.16l-.2.32c.52.64,1.34-.38,1.64.44.22-.21-.31-.25-.09-.51.27.11.48.69.57.71.38.26.47-.45.86-.26a.46.46,0,0,1,.29-.57c.28.09.29.59.09.67s-.1,0-.09-.09-.23.08-.14.23l.06-.12c.13.15.54.18.42.38.24-.1.11-.2,0-.28.36.22.59.07,1,.22,0-.08-.1-.24,0-.23.56.2.27-.22.65-.26.2.2-.1.47.29.31.23.15,0,.35-.06.45.36-.23.66.19.86.24l-.19.1a.59.59,0,0,1,.3-.06l-.1-.26c.11.05.2.05.2.16.11-.17-.09-.43.13-.67.15.13.44-.14.49.2-.45-.11.05.35-.33.41a.32.32,0,0,1,.27,0s0,.07,0,.09c.44.31.2-.39.64-.39,0,.2.12.37.19.33-.18,0-.1-.33.06-.48.29.14.31-.12.46-.11l-.17-.06c0-.2.19-.18.39-.25,0,.15-.18.11-.11.18.21-.35.51.33.81.09.15.12,0,.36.16.44.33-.27.38.25.73,0-.12-.26-.13-.2.11-.46l-.58.21.36-.4c-.18,0-.37.19-.48.15.17-.23.15-.16.06-.37.26.38.47-.26.76,0l0,.65c.44.26.73-.37,1.3-.25l-.19-.1c.06-.26.34-.06.51-.18,0,.22.12.29.21.41,0-.15.42,0,.42-.46l.28.26c.47.07.45-.67.88-.66-.09.26.13.38-.14.59.14,0,.28,0,.26-.15.11.12.36-.35.53-.17,0-.11,0-.33.18-.35a.17.17,0,0,1,0,.11c0-.11.23-.19,0-.4.58.58,1.2-.32,1.74.11.29-.17.64-.36.9-.49,0,.07,0,.1,0,.1.46,0,0-.67.5-.66.36.22-.15.28,0,.34.37.61.48-.32.94-.13l0,.08c.34.07.4-.52.74-.71a.21.21,0,0,0,.06.09,2.53,2.53,0,0,1,.57-1.16c.09.29,0,.23.2.4.1-.14-.32-.32-.13-.59a1.2,1.2,0,0,1,.68.19l-.23.22c.38.18.3-.29.47-.35l.11.14c.31-.39,0-.7.38-1.06l-.13,0c-.13-.49.34,0,.28-.44l.38.2a9.81,9.81,0,0,1,.2-1.08A2.26,2.26,0,0,1,62.56,67c.12-.15.38-.53.25-.74,0,.09,0,.24-.08.25a1.07,1.07,0,0,1,.09-1c.7.51.67-.71,1.37-.65,0-.75.7-1.17.9-2-.71.06.06-.23-.6-.38,0-.18,0-.25.09-.25l.52-.43c.22-.08.1.21.25.23.15-.39.32-.1.56-.33-.25,0-.29-.21-.17-.43-.12.09-.24.18-.37.26-.24-.62.64-.38.39-1l.18.21c0-.31.12-1.13-.4-1.44.08,0,.27-.11.31,0a2.46,2.46,0,0,0-.23-1.13c-.05-.18-.12-.36-.15-.52a1.67,1.67,0,0,1,0-.67l.17,0c-.07-.22-.35-.24-.24-.54.06,0,.17,0,.16-.1s-.38-.35-.35-.66a1.89,1.89,0,0,1,.21.09A1.5,1.5,0,0,0,65,54.66a9.24,9.24,0,0,1-1.27.52c.25-.5-.49-.59-.91-.62l0-.08a4.22,4.22,0,0,0-.85.13,2.57,2.57,0,0,0-.45.2,7.37,7.37,0,0,1-.88.48c-.46-.48-1.42-.08-2.11-.32.11.08,0,.38-.1.44s-.4.37-.42-.07h.06c-.15-.42-.46-.28-.72-.27v.58c-.72-.78-1.69.45-2.11-.28-.15.16-.34.17-.49.33v-.31a3.08,3.08,0,0,0-1.2,0l.09-.23c-.31,0-.32.92-.61,1l-.11-.46c-.53,0-1.1-.33-1.6.12,0-.06,0-.2.1-.22-.26,0-1-.26-.87.37,0-.41-.55,0-.83.19l0-.31c-.22.41-.22.51-.56.64-.08,0-.08-.24,0-.17-.28-.15-.2.3-.53.15l.11-.2c-.28,0-.25.1-.39.33s-.53-.05-.58-.32c0,.17-.17.4-.34.33a.21.21,0,0,1,.06-.21c-.47-.19-.68.39-1,.1a.28.28,0,0,0-.06-.18,2.53,2.53,0,0,1,.64,0c0-.28-.31-.32-.09-.72-.23.22-.62.7-.91.58a.36.36,0,0,1,0-.09l0,0c-.06,0-.12,0-.18.05a.57.57,0,0,0-.24-.08c0-.23-.35-.11-.49-.12,0,.31-.18.27,0,.52,0,0,0,0,.13-.06s.05,0,.06,0v0l.37,0c-.11.16-.23.3-.4.13-.07.2-.14.41-.19.51-.22-.43-.61-.64-.68-.91-.44.19-1.06.15-1.33.74-.12.08-.15-.16-.2-.25s.16-.06.2-.14c-.25.15-.76.08-.81.48-.33-.17.17-.37-.27-.3l0-.12c-.88-.63-1.4,1.06-2.39.25.07,0,.11.07.12.14-1.11-.35-2.28.37-3.38-.22-.31-.11-.34.15-.53.34l-.07-.33-.33.38c-.46.28-.79-.82-1.37-.29l.07.22c-.21,0-.66.13-.63-.13,0,0-.07.23-.15.11v-.17l-.52.29c-.4-.14.07-.69-.5-.74-.22.07-.63.5-.55.61a.29.29,0,0,1,.22.29l-.2.09c-.05.51-.21,1,.27,1.39l.35-.3.1.25h-.29c.16.23.27,0,.39-.11a.39.39,0,0,0,.14.27l.34-.48c0,.2-.16.4.07.51.16-.22-.15-.45.11-.59.16.23.11.42.31.22a.26.26,0,0,1-.1.28c.18-.16.46-.07.55-.34.16.29.57-.07.55.42a1,1,0,0,1,.46-.4c-.29.58.59,0,.51.66.21-.52.76-.23,1.14-.52,0,0-.06.13-.1.1.22,0,.28.2.41.3,0-.43.36-.53.53-.8.26.42-.15.51-.07.91,0-.35.45-.35.36-.64.2.25.17.12.27.47,0-.53.19-.09.35-.42.29.26.08.5.39.34C39.1,59,38.82,59.21,38.82,59.21Zm7.45-1.12h0l-.15,0Zm.63,0a2.61,2.61,0,0,0-.28,0c0-.1,0-.21.06-.21S46.8,58,46.9,58.06ZM45.49,56c.1,0,.13,0,.15.08a.68.68,0,0,0-.17,0v0A.65.65,0,0,1,45.49,56Z"/><path class="cls-2" d="M45.33,56.39l0,0,.06.06,0-.1Z"/><path class="cls-2" d="M36.61,68.61v0S36.61,68.6,36.61,68.61Z"/><polygon class="cls-2" points="55.58 58.14 55.57 58.06 55.52 58.13 55.58 58.14"/><path class="cls-2" d="M34.9,65.49a.25.25,0,0,0,0-.09A.19.19,0,0,0,34.9,65.49Z"/><path class="cls-2" d="M34.18,64.28v-.22A.71.71,0,0,0,34.18,64.28Z"/><path class="cls-2" d="M33.82,63.26l-.13,0h0Z"/><path class="cls-2" d="M48.36,69.83h0C48.5,69.75,48.43,69.78,48.36,69.83Z"/><path class="cls-2" d="M43.08,70.32a1,1,0,0,1,.19-.12C43.18,70.16,43.11,70.14,43.08,70.32Z"/><polygon class="cls-2" points="54.15 69 54.15 69.01 54.18 69 54.15 69"/><path class="cls-2" d="M43.51,70.24a.2.2,0,0,0-.24,0A.34.34,0,0,0,43.51,70.24Z"/><path class="cls-2" d="M32.87,58.76v0h-.05Z"/><path class="cls-2" d="M32.83,58.7l0-.05S32.79,58.7,32.83,58.7Z"/><path class="cls-2" d="M32.7,58.53l.09.12S32.79,58.56,32.7,58.53Z"/><path class="cls-2" d="M32.89,60.19h0Z"/><path class="cls-2" d="M33,60.61c0-.1.19-.29.1-.42H33C33.17,60.23,32.78,60.55,33,60.61Z"/><path class="cls-2" d="M32.17,62.8a2.71,2.71,0,0,1,0-.4c-.1.1-.22.24-.3.07C31.64,63.07,32,62.29,32.17,62.8Z"/><path class="cls-2" d="M32.49,64c-.14-.18-.15.07-.22.09C32.43,64.2,32.47,64.22,32.49,64Z"/><path class="cls-2" d="M38.89,70.26l-.14.24C38.92,70.54,38.8,70.41,38.89,70.26Z"/><polygon class="cls-2" points="40.96 69.52 40.87 69.31 40.72 69.53 40.96 69.52"/><path class="cls-2" d="M41.36,71.72l-.08,0,.3,0Z"/><path class="cls-2" d="M56.37,71.27,56.22,71C56.13,71.05,56.21,71.43,56.37,71.27Z"/><path class="cls-2" d="M61.89,67.44c.17.06.39,0,.33-.21C62.11,67.34,61.9,67.35,61.89,67.44Z"/><polygon class="cls-2" points="57.01 55.24 57.13 55.12 56.9 55.23 57.01 55.24"/></svg>