<?xml version="1.0" encoding="UTF-8"?>
<svg id="Capa_1" data-name="Capa 1" xmlns="http://www.w3.org/2000/svg" viewBox="0 0 377.21 152.38">
  <defs>
    <style>
      .cls-1 {
        fill: #f27271;
      }

      .cls-1, .cls-2, .cls-3 {
        stroke-width: 0px;
      }

      .cls-2 {
        fill: #fffaf0;
      }

      .cls-4 {
        opacity: .2;
      }

      .cls-3 {
        fill: #fff;
      }
    </style>
  </defs>
  <g>
    <path class="cls-1" d="M60.72,18.68c-14.78-3.27-29.81,9.85-36.58,28-6.77,18.14-6.34,40-2.04,59.49,1.8,8.15,4.46,16.45,9.5,21.52,5.61,5.65,13.05,6.27,20.03,6.63,76.09,4.02,152.28,4.29,228.39.9,15.58-.69,31.44-1.62,46.09-8.84,14.65-7.22,28.15-21.86,32.83-42.05,5.49-23.69-3.53-51.95-20.02-62.68-9.53-6.2-20.44-6.8-31-7.29-55.22-2.54-110.44-5.08-165.66-7.63-26.79-1.23-54.45-2.28-79.43,10.92"/>
    <g>
      <path class="cls-1" d="M66.61,22.89c-1.07.42-.19,1.21-.25,1.45,1.58-1.04.09-1.69.25-1.45Z"/>
      <polygon class="cls-1" points="83.68 13.8 83.45 14.31 86 12.57 83.68 13.8"/>
      <path class="cls-1" d="M101.82,10.71c-.96-.83-2.64-.57-4.48-.14-1.83.51-3.81,1.15-5.48,1.11l-.61-.32-1.18,1.76c3.8-1.06,8.87-2.63,11.74-2.41Z"/>
      <path class="cls-1" d="M111.86,14.12c-.62-.7,2.08-.72-2.27-.12.22.07.29.11.42.16.39-.03.93-.05,1.85-.04Z"/>
      <path class="cls-1" d="M110,14.16c-1.91.14,1.28.55,0,0h0Z"/>
      <path class="cls-1" d="M118.92,13.54c-.85.22-1.71.42-2.55.66.53.4,2.81.52,1.97.82,2.62-.35,2.09-.78.59-1.49Z"/>
      <path class="cls-1" d="M121.36,12.18l-1.34.27c.23.18.59.24,1.34-.27Z"/>
      <path class="cls-1" d="M117.2,13.03l2.83-.58c-.37-.3-.41-.91-1.3.21.23-.55-.33-.02-1.53.37Z"/>
      <path class="cls-1" d="M115.6,12.78c-1.44-.38-3.32-.59-.75-1.29-2.46.17-3.49.61-3.3.93.19.31,1.6.54,4.05.36Z"/>
      <path class="cls-1" d="M102.59,8.71c-.67-.14-1.33-.23-2-.35l-1.61.81c.81-.4,3.78.08,3.61-.46Z"/>
      <path class="cls-1" d="M135.01,14.87c.18-.39-.83-1.09-1.01-1.61l-1.95.38c.98.31,2.85.64,2.96,1.23Z"/>
      <path class="cls-1" d="M134,13.27l2.92-.57c-2.58-.18-3.06.12-2.92.57Z"/>
      <path class="cls-1" d="M121.84,10.11l-4.71,1.43c1.86-.48,3.73-.98,5.62-1.44h-.91Z"/>
      <polygon class="cls-1" points="146.09 15.42 144.4 16.26 147.4 15.01 146.09 15.42"/>
      <path class="cls-1" d="M153.49,15.6c-1.26.7,1.62,1.36.3,1.77,2.01-.04,3.76-.62,5.33-1.13-1.65.25-3.4.09-5.63-.64Z"/>
      <path class="cls-1" d="M161.74,15.5c-.83.14-1.69.43-2.63.74.88-.14,1.75-.35,2.63-.74Z"/>
      <path class="cls-1" d="M141.85,13.12c.21.25.62.9,2.24,1.24l-1.1-1.17c-.35-.02-.75-.05-1.15-.07Z"/>
      <path class="cls-1" d="M142.96,13.15l.04.04c1.24.09,2.11.15,2.47.18-.32-.03-1.07-.09-2.51-.21Z"/>
      <path class="cls-1" d="M141.56,13.1c.11,0,.18.01.29.02-.1-.11-.17-.15-.29-.02Z"/>
      <path class="cls-1" d="M129.37,11.28c1.71-.58,5.29-1.12,1.89-2.19-1.25.73.7,1.33-1.89,2.19Z"/>
      <path class="cls-1" d="M140.21,11.64l-3.08-.39c.05.3.59.75-.27,1.02l3.35-.63Z"/>
      <polygon class="cls-1" points="141.74 11.35 140.21 11.64 141.35 11.79 141.74 11.35"/>
      <path class="cls-1" d="M156.49,14.21c1.36-.42,2.83-.4,4.48-.4-1.76-.3-3.59-.5-5.33-.58-.26.34-1.05.93.85.98Z"/>
      <path class="cls-1" d="M149.92,13.6c.09-.02.21-.04.3-.05-.18-.1-.32-.14-.3.05Z"/>
      <path class="cls-1" d="M177.24,14.57c-.09-.07-.16-.14-.25-.21-.02.06-.04.13-.07.19l.32.02Z"/>
      <path class="cls-1" d="M155.35,13.01c-1.32-.28-2.13-.04-2.9.27,1-.07,2.06-.09,3.19-.05.12-.15.14-.26-.29-.22Z"/>
      <path class="cls-1" d="M166.31,15.19c-.68-.27-1.46-.5-2.28-.72.66.38,2.02,1,2.28.72Z"/>
      <path class="cls-1" d="M150.65,13.88c-.07.01-.13.03-.2.04.43.26.38.14.2-.04Z"/>
      <path class="cls-1" d="M150.65,13.88c.69-.13,1.24-.38,1.8-.6-.81.05-1.57.14-2.23.27.16.09.32.21.43.33Z"/>
      <path class="cls-1" d="M182.5,7.63c-.28,1.02-3.83,1.82-6.8.57-3.01.64-1.22,4.13,1.29,6.15.11-.45.13-.86,3.22-1.33-1.05-.61-6.73-1.63-4.1-2.45,4.08-.35,3.31.52,5.25,1.16-1.62-1.37,5.24-1.64,4.45-3.57l-3.59.5c-.05-.3,1.26-.71.28-1.02Z"/>
      <path class="cls-1" d="M171.16,13.98l-1.27.07c1.43.25,2.44.71,4.29,1.6,2.12-.41,2.57-.77,2.73-1.11l-6.19-.43.44-.13Z"/>
      <path class="cls-1" d="M164.24,13.79c1.04-1.08,4.08-1.42,2.29-2.72-3.7-.09-2.63.82-4.86,1.21,5.98,0-1.74.55,2.54,1.38-1.18.14-2.24.15-3.23.15,1.07.19,2.1.4,3.06.66-.05-.03-.09-.05-.13-.08h-.03s0,0,0-.02c-.25-.15-.33-.24-.05-.15.02-.01.09-.01.13-.02.05-.15.16-.29.29-.41,1.72.31.26.3-.29.41-.02.05-.07.11-.08.16,0,0,.01.01.02.02l6-.34c-1.26-.21-2.84-.26-5.65-.26Z"/>
      <path class="cls-1" d="M134.53,6.79c.18.11.17.19.18.27.39-.12.54-.21-.18-.27Z"/>
      <path class="cls-1" d="M136.95,7.57c-.44.14-.82.58-2.22.4-1.21-.39.03-.54-.02-.91-.86.26-3,.69-.36,1.34l.43-.14c2.38.48,5.41,2.03,4.98,2.16-.65-1.04-1.24-1.79-2.8-2.86Z"/>
      <path class="cls-1" d="M150.78,10.4l5-.32-2.49-1.09.1.59c-2.82-.36-2.24.39-2.61.82Z"/>
      <polygon class="cls-1" points="177.79 15.15 177.07 16.31 180.02 14.76 177.79 15.15"/>
      <polygon class="cls-1" points="184.26 15.31 183.97 16.33 185.71 15.79 184.26 15.31"/>
      <path class="cls-1" d="M242.58,142.79l-1.46.34c.69-.11,1.14-.22,1.46-.34Z"/>
      <path class="cls-1" d="M253.2,142.54l.24-.52c-.48.3-.68.51-.24.52Z"/>
      <path class="cls-1" d="M337.43,28.63c.39.88.6,2.03.86,2.7.24.69.48,1.02.82.54l.41-1.16c-1.06-.65-1.6-1.45-2.09-2.09Z"/>
      <path class="cls-1" d="M336.78,119.91c.23-.03.47-.08.7-.13.16-.64.3-1.23.41-1.76-.32.57-.7,1.22-1.11,1.89Z"/>
      <path class="cls-1" d="M338.39,124.57c-.95.42-1.9.82-2.88,1.17.71-.16,1.65-.51,2.88-1.17Z"/>
      <path class="cls-1" d="M184.58,144.95l-1.71,1.16c2.68-.02,1.5-.6,1.71-1.16Z"/>
      <path class="cls-1" d="M250.49,17.94c1.82.53,3.27.78,4.55.89-2.18-.75-3.92-1.81-4.55-.89Z"/>
      <path class="cls-1" d="M246.39,130.64c-.89.23-1.26.47-1.23.73.91-.22,1.43-.45,1.23-.73Z"/>
      <path class="cls-1" d="M260.35,19.07c-.32-.13-.63-.2-.96-.31-1.35.13-2.71.22-4.35.07,1.61.56,3.47.94,5.31.24Z"/>
      <path class="cls-1" d="M12.53,74.81c.06-.16.09-.35.15-.5-.15-.05-.17.17-.15.5Z"/>
      <path class="cls-1" d="M46.13,26.1c-.39.34-1.12.71-1.76,1.2.34-.19.9-.48,1.76-1.2Z"/>
      <path class="cls-1" d="M210.25,17c-1.38.01-.22.11,0,0h0Z"/>
      <path class="cls-1" d="M203.78,12.21c.3-.11.53-.27.57-.53-.13.27-.32.43-.57.53Z"/>
      <path class="cls-1" d="M274.33,12.65s.07,0,.12,0c-.4-.24-.33-.2-.12,0Z"/>
      <path class="cls-1" d="M208.21,16.39c.51.16,1.1.31,1.74.42-.28-.1-.81-.23-1.74-.42Z"/>
      <path class="cls-1" d="M208.46,16.94c-.47-.07-.84-.12-1.19-.16-.18.18-.03.31,1.19.16Z"/>
      <path class="cls-1" d="M212.16,17.03c-.78-.02-1.51-.11-2.21-.22.27.09.38.16.3.19.4,0,.97.01,1.91.03Z"/>
      <path class="cls-1" d="M87.03,139.34c-.09-.04-.19-.07-.29-.12-1.4.42-.79.37.29.12Z"/>
      <path class="cls-1" d="M363.89,52.92c-.03-.06-.06-.09-.09-.15,0,.07,0,.16,0,.22l.08-.07Z"/>
      <path class="cls-1" d="M365.71,57.99c-1.7-2.03-1.84-3.26-1.9-5-.94.81-1.89,1.59-2.84,2.35,1.64.81,3.17,1.7,4.74,2.64Z"/>
      <path class="cls-1" d="M217.16,143.71l3.49.96c-4.16,1.75-7.21,1.22-3.92,2.6.43-3.54,13.5-.63,13.9-4.2l2.31.69c-.66-.02-.76.19-1.41.17,4.49,1.59,3.24-2.62,8.98-2.29,2,.21,3.41.69,2.06,1.15l4.42-1.01c1.3.03,1,.66-.29.63l6.78-.49-.05.11c.95-.59,3.11-1.53,4.17-1.93,1.74.45-.85.41-.39.83l3.72-.99c1.56.87-1.52,1.87-4.12,1.83,3.64,3.41,3.08-.99,10.73.79l-3.53.59c2.37,1.94,5.11,1.08,9.18,2.17-.98-.62-8.16-2.83-4.12-3.88,1.16.22,2.68.28,4.85-.52.07,1.26,2.21.86,4.89.68l-.11,1.68c2.88-.6,2.63-1.45,4.3-2.28,3.27,0,4.03,1.25,4.88,2.3,5.32-.06-3.78-1.84,2.46-2.55,4.45.32,7.56-.62,12.73-2.37,3.2.11-.39,1.1.8,1.4.86-.57,1.72-1.19,2.56-1.78.68-.08.54.36.46.58,2.24-.96-.1-1.66,3.41-2.85.28-1.03,2.25-.74,4.7-.78,2.44.01,5.39-.35,7.2-2.15,1.24,0-.15,1.17.41,1.64,1.39-.94,2.37-1.58,3.13-2.12.75-.55,1.28-.95,1.78-1.36.5-.39.94-.82,1.5-1.39.55-.59,1.25-1.25,2.12-2.34l2.19-.67c.73-.24,1.44-.52,2.17-.78-1.72.4-1.88-.31-1.38-1.48.53-1.14,1.65-2.82,2.65-4.35-1.26.19-2.31.31-2.95.48l1.88-1.98,1.77-2.06c.67-.21.65.56.41,1.67.2-.35.38-.68.5-.95.94-.4,1.36-.3,1.53.16.16.45.03,1.23-.23,2.04-.74.19-1.49.36-2.21.51-.43,1.65-.85,3.33-.02,3.95.19-.38.67-.95,1.25-1.51-.13.44-.17.78.07.81.27.03.53-.65.98-1.59.73.2,1.48.38,2.23.56l-.23-.77c1.11-.69,2.16-1.46,3.25-2.2,1.06-.77,2.09-1.59,3.15-2.4.57-1.38,1.07-2.73,1.51-4.12.4-1.42.86-2.8,1.25-4.3.41-1.49.89-3.01,1.4-4.67.57-1.62,1.12-3.41,1.9-5.32.29,2.44,1.79,1.41,3.2,2.22-.66.33-1.15.88-1.54,1.59-.39.71-.7,1.57-1.07,2.48-.37.91-.69,1.95-1.18,2.93-.49.98-1.05,1.97-1.78,2.84,1.51-1.83,1.84-.98,1.72-.31.56-1.29,1.15-2.54,1.61-3.85.49-1.3.98-2.58,1.36-3.9.54.4.96.13,1.44-.44.24-.29.49-.65.77-1.04.26-.41.56-.84.91-1.28-1.53.17-1.25-1.38-.62-3.39.29-1.02.68-2.15,1.03-3.23.29-1.1.53-2.16.59-2.99.45.04.83.3.92,1.04.06.72-.07,1.96-.95,3.79.43-.43.75-.86.97-1.28.2-.43.31-.86.36-1.27.1-.83-.06-1.64-.22-2.43-.36-1.6-.84-3.11.48-5-.18.95-.47,1.41-.13,1.89-.05-1.18.26-3.09.69-4.54.22-.72.46-1.33.68-1.68.2-.35.39-.42.54-.07-.03.32-.1.64-.15.97.22-.79.32-1.7.46-2.68.13-.98.27-2.03.36-3.11.04-1.08.07-2.2.08-3.31,0-.55.02-1.11-.01-1.65-.05-.54-.09-1.08-.13-1.61-.1-1.05-.22-2.06-.36-2.99-.19-.92-.41-1.75-.64-2.46-.47-1.42-.96-2.35-1.57-2.51.29-.11,2.76.51,3.23.86-1.41-1.8-3.01-3.49-4.49-5.09-1.63-1.58-3.16-3.09-4.84-4.46,1.05.21,2.43-.84,3.84-1.4.71-.28,1.42-.43,2.12-.2.35.12.69.33,1.03.67.31.34.61.82.89,1.45-.02-1.58-.28-3.56-1.85-6.51.08,1.12-1.92,3.31-2.46,2.01.47-2.16.44-2.89.42-3.72-.06-.83-.08-1.77-.27-4.38.25,1.62-3.21,1.15-4.07-1.06.57.16,2.59-1.47,3.24-.75-.85-.76-1.83-1.45-2.72-2.15-.92-.68-1.78-1.37-2.77-1.96,1.26,1.02,2.31-1,2.24-2.68-.08.44-.76-.76-1.67-2.19-.98-1.39-2.07-3.08-2.77-3.64.44.84.76,1.74,1.13,2.59-.5-.76-.98-1.38-1.48-1.88-.53-.48-1.06-.85-1.57-1.15-1.04-.58-1.95-.92-2.98-1.11-1.01-.21-2.01-.38-3.04-.79-.5-.22-1.07-.43-1.66-.73-.59-.3-1.21-.68-1.87-1.19.49-.02,1.44-.48,1.95-1.23.25-.38.39-.83.27-1.35-.11-.52-.46-1.13-1.23-1.68-1.13.19-3.67.77-6.43,1.48-2.79.68-5.74,1.47-8.46,1.4-.27-.36-.53-.73-.81-1.08-1.44.03-2.87.09-4.3.22,1.45-.93,4.23-2.28,7.44-3.17,3.19-.92,6.87-1.26,9.46-1.01-2.27-1.76-.26-1.35-4.24-2.82-.57-.61.08-.74,1.03-.6.95.15,2.21.52,2.8.79-3.04-1.58-6.23-2.78-9.4-3.69.01.9-1.91.91-3.76,1.01-1.86.07-3.65.24-3.57.98,3.34-.18,6.82-.15,10.4.28-.05.91-1.88,1.63-4.32,2.08-2.46.46-5.55.68-8.62.23-1.52-.85,1.5-3,1.46-3.58-.93.46-6.12.61-6.65.18.9-.26,1.81-.52,2.73-.76-3.5-.92-5.81,1.99-9.8.12-1.4-.18-4.09-2.45-4.38-1.43,2.2,2.11,2.36,8.33.77,9.76-.49-.16-7.29-2.26-8.85-3.32-2.24-1.68,3.65-3.58,1.74-5.02-.11.48-1.41,1.01-1.95,1.17-1.46-.48.68-1.46-2.54-1.39-.62,1.76-6.52-.45-1.59,1.44-3.16.36-3.32-.52-7-.61,1.12,1.2-3.49,3.76-6.65,4.13.21-.44-.47-1.07-.8-1.35-6.42-.46-9.84-1.42-15.83-1.72-.53-.46-3.4-1.11-2.13-1.82-.88.28-1.7.84-3.55.8-3.51-1.7,4.14-.05,1.49-2.02-.28,1.02-4.85,1.21-7.51,1.73.74,1.64,6.07.59,8.74.06-.09,2.2-4.79,4.3-11.1,5.03-5.01.32-2.09-1.52-2.97-1.25-9.34-.82-8.15,3.48-15.84,1.53-3.02-1.55-.01-2.8-.65-3.84,4.08-.34,6.19,1.18,8.94,1.25l-3.36-.82c1.31-.41,4.04-.64,5.49-.16-2.53-1.38-15.8-.97-22.96-2.47-1.3.41-3.54.8-2.52,1.41l2.29-.09c2.05,1.23-4.37,1.37-1.5,2.03-3.1.65-6.59,1.75-10.88.91l-.74-1.64c.07.47,2.78,1.08,4.01.65-1.83.63-6.51-2.47-8.58-.47l2.97,1.25c-3.11.66-6.99,2.19-10.79,1.51,1.67,1.66.89-.14,3.52,1.83-2.25-2.41,9.77.55,6.1-2.05,2.69,2.28,4.78,1.13,8.34,3.13-.09-.53-1.24-1.07,1.95-.66.15-.15.5-.33.73-.43.1.02.13.03.21.05-.06-.03-.11-.04-.17-.07.14-.07.16-.09-.06-.02-.75-.27-1.36-.57-1.6-.88,1.65-1.14,6.75-.87,8.5-1.41,1.89.34-.82.57.19,1.18l2.62-.82c.2,1.19,4.97,2.18.45,2.66l4.04.24c2.35.77,5.6,1.18,7.64.78,1.89.34,4.87-1.08,3.17-.23l6.37-.44.04.3c6.24.44,12.95-1.35,20,1.1,2.12-.2,4.31-.46,7.81.03l.64,1.05c2.72-.23,8.06,1.39,9.27.38,2.79,2.86,13.08,1.2,17.81,1.9l.24-1.32c3.27.23,6.42,0,10.5-.35l-.2-1.18c3.56-.78,8.94,1.16,13.98,1.7-.4.39-1.67.13-2.58-.23,2.97,1.61,6.03,1.62,9.08,1.81,3,.19,6.04.71,7.82,2.78.67.09,1.15.35,1.57.61.43.26.73.62.98,1-.09-.07-.19-.11-.28-.13.09.09.24.2.4.31.32.49.62,1,.98,1.5-.23-.52-.48-.99-.76-1.34.39.27.89.59,1.47.91.56.37,1.15.81,1.8,1.19l-.42,1.32c.1.06.16.13.27.19.63,1.32,1.21.44,1.38-.82.65.42,1.3.78,1.89.99-.18.56-.07.99.18,1.37.25.38.6.76.98,1.14.38.38.76.78,1.01,1.24.12.23.21.48.24.74.01.28-.03.58-.15.91.36.07.83.49,1.38,1.08.27.3.57.63.88.98.3.36.58.77.88,1.16.6.79,1.25,1.55,1.87,2.12.59.6,1.19.99,1.79.96-.24.17-.18.66-.54-.14.24.88.49,1.76.82,2.57.28.84.65,1.61,1.22,2.28l-1.26,1.24c.57.49,1.1,1.01,1.62,1.54l1.58,1.62c-.11,1.29-.33,2.22-.69,2.56-.36.34-.85.09-1.72-.89,1.52,2.53,1.99,3.65,2.31,4.66.31,1.02.69,1.91,1.9,4.26l-1.05-.13c.09.87.55,1.97.88,3.01.37,1.04.46,2.02.06,2.56-.48,1-.65,2.7-.94,4.82-.13,1.06-.19,2.24-.4,3.48-.08.62-.17,1.26-.26,1.92-.04.33-.08.66-.13,1-.07.33-.13.67-.2,1-.92,5.41-3.04,11.48-6.01,15.44,1.75-.21,1.02.72-.06,1.77-.53.53-1.1,1.11-1.42,1.65-.35.52-.46,1.01,0,1.4-.92.13-1.96,1.05-1.68-.61-.24.57-.5,1.09-.76,1.56-.29.46-.59.88-.88,1.27-.58.78-1.16,1.44-1.73,2.04-.56.61-1.03,1.22-1.44,1.9-.42.67-.74,1.43-.93,2.41-.9-.06-.1-1.5-.75-1.41-.07.2-.2.6-.41.95-.22.34-.5.65-.83.69-.66.05.07-.91.33-1.69-1.61,1.82-2.15,3.19-2.18,4.32-.01,1.15.54,2.1,1.1,3.01-2.66,1.03-3.53,1.9-4.29,4.16-.57.01-1.27.09-1.53-.11-.24-.18-.02-.61,1.18-1.68-.75.51-3.1,1.94-5.31,3.17-2.18,1.28-4.19,2.44-3.93,3.23-.7-.14-2.36.97-2.75,1.3-3.87,1.44-4.26,1.39-8.11,2.7l1.17-.04c-.49,1.19-1.31,1.52-2.37,1.7-1.08.14-2.39.15-4.01.59l.05-.22c-1.94.04-3.11.09-3.89.19-.78.11-1.17.25-1.56.38-.78.25-1.57.54-5.43.14l.55,1.2c-.21,1.37-1.95,1.17-4.17.75-2.21-.41-4.89-1.06-7.09-.42l1.65.62c-2.4,1.08-7.01-3.3-9.49-3.54-.55-.21.83-.41,1.57-.62-6.52-1.32-.76,1.68-5.56,2.26-.92-.85,1.05-2.3-2.2-2.33-1.64-.64-9.28,3.26-13.76,1.71,1,.65,1.99,1.29-.23,1.89-3.42.37-9.35-2.25-12.38-.02-.44-.17-.61-.35-.63-.52-2.6.63-8.49,1.18-10.04,2.37-2.52-4.27-16.26,2.49-16.28-1.53l-8.06.35.2-.41c-5.16-.18-6.97.78-8.77,1.77-1.19-.26-.33-.64-.23-.85-7.54-.71-8.28-.54-14.59,1.48l-.66-1.29c-1.71.78-10.89-1.99-18.28-.49.07-.15.23-.4.81-.58-8.32,1.5-19.85-3.71-22.95.96l-5.5,1.09c7.1.46-1.09,2.03,1.82,2.86-2.8.24-7.2-1.52-3.77-1.71l.53.24c1.3-2.43-8.81-1.02-8.59-2.7-13.97-.13-27.54-1.89-40.59-2.46l1.44,1.97-4.56-.28c-1.18-.49-1.55-1.56,1.7-1.35-1.67-1.15-5.49.7-5.6,1.12-6.34-1.01,2.58-2.14.62-2.25l-2.66.04.59.25c-2.18.7-2.4,1.51-6.31,1.25-2.46-.49-1.22-1.23-2.19-1.35.01-.14-.31-.21-1.49-.12l-5.73-.41,2.23,1.61c-2.58.64-5.4-.34-2.83,1.51-1.88-1.41-7.23-1.92-12.39-2.18-2.6-.13-5.01-.22-6.86-.46-1.85-.23-3.15-.58-3.59-.9-3.21.33-6.13-.95-8.58-3.58.21.41.14,1.04-.26,1.26-.4.22-1.23.04-2.27-1.39,1.74-.66,1.04-1.99.24-3.78-.83-1.78-1.75-4.2-1.06-5.92-.32,1.44-1.34-.72-2.22-2.88-.88-2.14-1.69-4.23-2.3-1.93-.51-3,1.21-.52,1.44-2.93-1.52-3.3-2.08-7.33-2.38-11.51-.29-4.2-.3-8.59-.73-12.99-.47-.12-1.1,1.41-1.86-.48.72-1.61,1.42-3.19,2.21-4.73-.22-1.72-2.67-1.66-.95-4.81-.4.43-1.01,1.09-1.11-.1.77-4.34,1.42-8.66,2.24-12.96.82-4.29,1.82-8.58,3.29-12.69,1.46-4.06,3.48-7.97,6.16-11.3,2.66-3.32,6.04-6.07,9.76-7.47-2.23.51-1.16-.36.15-1.36-.98.46-.63-.95-1.15-1.34.54-.25,1.12-.4,1.68-.57.56-.16,1.11-.35,1.67-.48,1.14-.19,2.21-.49,3.3-.5.12-.49.59-.93,1.23-1.24.65-.25,1.47-.5,2.27-.64.81-.07,1.59-.22,2.22-.33.63-.09,1.11-.29,1.3-.7l-1.03.13-.51.06-.51.13c1.31-1.09.41-2.13-1.2-3.1-.4-.25-.83-.5-1.26-.75-.43-.21-.85-.42-1.23-.64-.76-.45-1.35-.94-1.38-1.58-1.71,1.54-4.33,1.68-7.37,2.48-2.94.83-6.16,2.47-7.49,5.84-1.42.59.37-1.41-.59-1.33-.3.93-.67,1.85-1.41,2.75-.76.89-1.69,1.93-3.07,3.17l.06-.48c-3.17,4.08-5.16,7.13-7.23,10.37-.49.83-.99,1.66-1.51,2.53-.5.88-.96,1.81-1.47,2.8-.54.99-.97,2.04-1.47,3.18-.52,1.14-.97,2.38-1.45,3.73l1.42-.47c-.85,2.28-1.32,2.69-1.89,3.73.59,1.58,1-.08,1.48-1.74.53-1.66,1.09-3.32,1.73-1.81-1.68,1.15-2.81,5.31-3.56,9.36-.74,4.05-1.23,7.98-2.72,8.96-.29,3.72,1.51-.97,1.22,2.72-.29.31-.55.62-.82.94l.96.98c-.27,2.4-1.23,3.61-1.88,3.69.08-.59-.18-1.69-.2-2.33-.52,1.58-.43,3.83-.25,5.8.21,1.97.49,3.67.39,4.21.07-1.19.23-2.39.34-3.58.48,5.04.88,10.61,1.72,16.08.86,5.47,2.06,10.79,4.14,15.35l.36-.87c1.51,3.45,1.89,4.91,2.23,6.51.18.8.37,1.64.77,2.75.43,1.11,1.04,2.52,2.3,4.37l-.28-.21c1.41,1.24,2.98,3.03,4.69,4.88-1.03-.62-.58.43-.02,1.39.53.97,1.08,1.89-.42,1.07,2.06,1.44,3.48,2.09,4.44,2.44.95.37,1.46.43,1.88.45.42,0,.76-.05,1.39-.11.63-.05,1.54-.09,3.05-.19.32.43.65.87.99,1.29,1.05-.2,1.62-.4,2.45-.51.83-.1,1.91-.09,3.93,0-1.69.23-1.11.66-.54,1.14.55.45,1.1.97-.9,1.29,2.16.8,4.05,1.04,5.66,1.08,1.61.03,2.98-.14,4.24-.28,2.51-.29,4.45-.48,6.25,1.16,3.89-2.49-7.01-1.84-4.88-2.31-1.72-.96,3.2-1.85,5.75-1.45,2.61.19,4.28,3.65,10.86,3.88-.65-.04-.71.16-1.36.12,2.43.79,4.86-.72,7.84.53,1.76-1.55,3.92.24,4.49-1.81l-6.05.24c3.44-.39,6.74-2.71,12.33-1.32-.45.4-2.15.89-3.31,1.15,1.63.67,3.19-.29,4.87.4-.56,2.05-7.35.18-11.08,1.62,1.74.94,7-1.24,5.07.93,2.76-2.76,6.48.62,11.01-1.42l-.34,1.23c.71-.17,2.19-.71,3.49-.64l-2.4,1.53c3.65-1.26,6.93,1.42,10.41.78-7.26-.19-1.58-1.55-4.62-2.55,8.99-1.38,5.05,3.39,15.09,3.06-1.36.14-5.07-.87-2.94-1.39,1.9.3,4.41.84,5.56,1.52,6.65-.11-.99-1.3,1.85-1.99,2.23,1.55,3.27-.55,6.19-.98v1.26c7.54.95,2.05-2.58,8.83-1.49l-2.9,1.7,3.56-.39-.75,1.43c3.88-1.01,5.08-.72,8.86-.27-.87-.9.52-2.28,3.87-2.28,2.28.78-1.29,1.19,3.46,1.05-1.08.78-2.26,1.77-4.32.58-.22.41-1.07.78-1.29,1.18,2.45.9,6.18.26,7.9.26-.66-.05-1.45-.12-1.86-.31l6.9-1.7c1.08.48.22.86-.63,1.22,1.4-.13,2.36-.7,4.41-.79-.54,1.02-.41,2.08-3.32,2.54l6.57-1.11c.44.45,3.37,1.23,2.51,1.6,3.64.6,8.93-1.97,13.75-1.21.25-.2.75-.39,1.78-.55,4.53.21,8.56,1.45,13.92-.03l3.07,1.8c4.2-.46-4.15-2.27,2.84-3.04,4.95-.64,1.87,1.54,3.62,2.03,2.46-.97,6.71-2.93,11.29-1.51-1.5.37-2.69.12-4.09.28ZM268.98,141.4c-.99.3-2.96,1.21-3.73.49,1.09-1.48,2-.83,3.73-.49ZM344.19,116.51c-.22.87-1.28,1.54-2.59,2.11.63-.76,1.52-1.43,2.59-2.11ZM225.32,16.67s.07-.03.11-.06c2.21.59,1.43.36-.11.06ZM220.71,15.91c-.47.15-.45.33-.26.52.34-.3,1.38-.28,2.56-.13-.31-.35-.9-.6-2.3-.38ZM72.73,130.27l.89.37c-2.05.27-1.47-.03-.89-.37Z"/>
      <path class="cls-1" d="M338.24,124.01c-.37.01-.58-.13-.78-.27-.21.42-.07.63.78.27Z"/>
      <path class="cls-1" d="M184.89,144.73c-.05,0-.11,0-.16-.01-.09.08-.13.15-.16.23l.32-.22Z"/>
      <path class="cls-1" d="M293.06,8.53c.95.23,1.47.48,1.81.74.07-.31-.36-.59-1.81-.74Z"/>
      <path class="cls-1" d="M196.03,16.91l2.99-.19c-1.44,0-1.94-.3-2.66-.54.05.3.6.75-.33.73Z"/>
      <path class="cls-1" d="M170.6,7.93c-.44.13-.92-.03-1.36.11l.09.59c1.85.05,3.17-.37,1.27-.7Z"/>
      <path class="cls-1" d="M193.47,12.6c-.19-1.07-2.07-.8-4.16-.7.12,0,.24,0,.37.02-.68,1.45,1.56,1.07,3.79.68Z"/>
      <path class="cls-1" d="M188.83,11.92c-.64.02-1.3.02-1.93-.06-.27.58.77.16,1.93.06Z"/>
      <path class="cls-1" d="M214.79,16.34c-.97-.32-.68,1.33-1.22.87-1.16,1.3,6.66-1.33,1.22-.87Z"/>
      <polygon class="cls-1" points="191.95 9.03 192.63 10.38 193.85 9.37 191.95 9.03"/>
      <path class="cls-1" d="M208.34,10.75l-3.31-.52c.04.22-.39.33-.91.41,2.05.14,4.28.5,4.22.11Z"/>
      <path class="cls-1" d="M204.12,10.64c-1.07-.07-2.08-.09-2.69.09.58.01,1.82.03,2.69-.09Z"/>
      <polygon class="cls-1" points="196.51 8.85 197.48 9.17 199.82 9.37 196.51 8.85"/>
      <path class="cls-1" d="M244.08,12.65l3.65-.21c.39-.43-.59-.75-1.95-.64-.88.27-2.24.38-1.7.84Z"/>
      <path class="cls-1" d="M233.26,8.56c.97.32,1.02.61,1.56,1.07l.19-1.62-1.74.55Z"/>
      <path class="cls-1" d="M243.87,8.67c.38-.43,5.33-1.05.72-1.16-.39.43-4.04.64-.72,1.16Z"/>
      <polygon class="cls-1" points="298.47 13.24 297.54 13.21 297.55 15.88 298.47 13.24"/>
      <path class="cls-1" d="M348.86,20.65c-1.67-1.98-2.18-1.87-2.6-1.73-.42.13-.8.33-2.42-1.36-1.31-.19,2.61,2.74,1.29,2.44,2.61,1.48,3.54,2.87,3.73.65Z"/>
      <path class="cls-1" d="M345.12,20c-.45-.21-.94-.41-1.47-.59.79.38,1.2.53,1.47.59Z"/>
      <path class="cls-1" d="M54.01,24.76l1,.17.49.08.47.16c-.4-.34-.84-.58-1.3-.82l-.66.41Z"/>
      <path class="cls-1" d="M57.95,22.73c.11.59.2,1.18.27,1.76.46-.45.96-.89,1.5-1.33-.51,0-1.45.02-1.78-.43Z"/>
      <path class="cls-1" d="M276.83,144.5l.19-.42c-.45-.42-1.1-.43-2.41-.44l2.21.86Z"/>
      <polygon class="cls-1" points="239.13 144.55 239.77 144.57 238.52 143.07 239.13 144.55"/>
      <path class="cls-1" d="M207.54,147.16c1.29.05,2.81-.32,4.1-.28-2.81.33-4.48-1.63-4.1.28Z"/>
    </g>
  </g>
  <g>
    <path class="cls-3" d="M67.72,69.69h.16c7.13.25,8.13,7.21,8.15,12.03,0,.49-.04.99-.04,1.42-.18,6.27-2.3,11.32-9.03,11.33-.55,0-1.11-.03-1.7-.13,0,0,.03-3.69.06-5.21.11-4.22.29-8.22.48-12.5.04-.56.1-5.38.14-6.01l.04-.2c.04-.56,1.15-.73,1.74-.73ZM67.35,93.01c.32.03.4.03.44.03,5.03,0,5.84-7.07,5.99-9.78.19-3.1,0-11.35-5.57-11.73l-.85,21.48Z"/>
    <path class="cls-3" d="M80.62,69.99c.24-.2.63-.4.99-.4,1.42,0,1.35,1.25,1.31,2.11v.2c-.07,3.3-.54,6.53-.61,9.83-.07,2.24-1.31,11.29,2.92,11.28,1.94,0,3.24-3.17,3.51-4.2,1.45-5.78,2.34-11.85,2.33-17.65v-.73c0-.49.79-.66,1.3-.66.67,0,1.23.49,1.23.99l-.04.5c-.38,5.08-.84,9.77-1.9,14.82l-.08.43c-.04.07-.04.2-.12.33-.47,2.38-1.6,7.82-5.99,7.83-5.03,0-5.44-4.48-5.44-7.35v-.59c0-.2.03-4.45.06-6.04.11-3.56.1-7.13.52-10.69Z"/>
    <path class="cls-3" d="M96.56,91.27l-.02-6.53c-.01-4.72-.58-7.75-.59-12.47v-1.68c6.33-.44,7.04-.08,7.04.65,0,.23-.2.73-.47.82h-4.31c-.28,0-.28.17-.28.27,0,3.5.41,6.07.66,9.67.59.13,3.92.03,4.59.02,1.35.03,2.26,1.94.44,1.95h-5.03s.1,7.73.1,7.73c.95.2,5.98-.64,5.98.81,0,.4-.24.79-.75.86h-.2c-1.46.1-7.08.48-7.13-.48l-.04-1.62Z"/>
    <path class="cls-3" d="M109.56,71.26c.75-1.19,1.9-.14,2.3.32,2.39,5.67,4.03,11.44,6.93,17.34l.38-4.62c.42-4.16.45-7.75.4-11.91.16-.56.87-.83,1.5-.83.47,0,.87.1,1.11.43-.69,7.13-.99,14.71-1.24,22.3l-.04.43c-.08.17-.59.63-.95.63-.36,0-.95-.39-1.11-.62-2.47-6.16-5.26-12.2-7.65-18.39l-.23,18.8c-.91,1.72-2.29.83-2.34-.16l.92-23.72Z"/>
    <path class="cls-3" d="M128.67,69.57h.16c7.13.25,8.13,7.21,8.15,12.03,0,.49-.04.99-.04,1.42-.18,6.27-2.3,11.32-9.03,11.33-.55,0-1.11-.03-1.7-.13,0,0,.03-3.69.07-5.21.11-4.22.29-8.22.48-12.5.04-.56.1-5.38.14-6l.04-.2c.04-.56,1.15-.73,1.74-.73ZM128.3,92.9c.32.03.4.03.44.03,5.03,0,5.84-7.07,5.99-9.78.19-3.1,0-11.35-5.57-11.73l-.85,21.48Z"/>
    <path class="cls-3" d="M141.52,91.19l-.02-6.53c-.01-4.72-.58-7.75-.59-12.47v-1.68c6.33-.44,7.04-.08,7.04.65,0,.23-.2.73-.47.83h-4.31c-.28,0-.28.17-.28.27,0,3.5.41,6.07.66,9.67.59.13,3.92.02,4.59.02,1.35.03,2.26,1.94.44,1.95h-5.03s.1,7.73.1,7.73c.95.2,5.98-.64,5.98.81,0,.4-.24.79-.75.86h-.2c-1.46.1-7.08.48-7.13-.48l-.04-1.62Z"/>
    <path class="cls-3" d="M153.27,91.1c1.47.19,1.19,1.81,2.78,2.01,2.57.36,3.16-1.16,3.51-2.94.7-3.73-1.48-6.53-3.87-9.62-1.11-1.45-1.71-2.7-1.36-4.55.55-2.61,2.05-4.39,5.33-4.4.28,0,.55,0,.87.03,1.07.1,1.82.29,1.63,1.22-.35,1.62-4.55-1.11-5.45,3.51-.43,2.11.6,2.97,1.95,4.88,2.11,3.03,3.93,5.73,3.23,9.3-.55,2.71-1.89,4.29-5.09,4.3-.32,0-.63,0-.95-.03-1.39-.2-3.8-1.31-3.81-2.67,0-.07.04-.17.04-.23.04-.4.63-.79,1.19-.79Z"/>
    <path class="cls-3" d="M180.56,69.47h.16c7.13.25,8.13,7.21,8.15,12.03,0,.49-.04.99-.04,1.42-.18,6.27-2.3,11.32-9.03,11.33-.55,0-1.11-.03-1.7-.13,0,0,.03-3.69.07-5.21.11-4.22.29-8.22.48-12.5.04-.56.1-5.38.14-6.01l.04-.2c.04-.56,1.15-.73,1.74-.73ZM180.19,92.8c.32.03.4.03.44.03,5.03,0,5.84-7.07,5.99-9.78.19-3.1,0-11.35-5.57-11.73l-.85,21.48Z"/>
    <path class="cls-3" d="M193.41,91.09l-.02-6.53c-.01-4.72-.58-7.75-.59-12.47v-1.68c6.33-.44,7.04-.08,7.04.65,0,.23-.2.73-.47.83h-4.31c-.28,0-.28.17-.28.27,0,3.5.41,6.07.66,9.67.59.13,3.92.02,4.59.02,1.35.03,2.26,1.94.44,1.95h-5.03s.1,7.73.1,7.73c.95.2,5.98-.64,5.98.81,0,.4-.24.79-.75.86h-.2c-1.46.1-7.08.48-7.13-.48l-.04-1.62Z"/>
    <path class="cls-3" d="M225.17,70.31h.28c1.58.06,3.49.75,3.49,2.37,0,.33-.12.73-.67.73-1.31-.03-1.51-1.35-2.97-1.51-.04,0-.12-.03-.24-.03-5.42,0-9.09,20.74.02,21.05h.2c2.85,0,1.73-3.07,3.99-3.08h.12c.55,0,.95.26.95.72-.04.59-.24.59-.59,1.29-.91,1.62-2.29,2.45-4.43,2.45h-.36c-7.64-.28-7.94-9.09-7.44-13.38.15-3.2,1.83-10.59,7.65-10.6Z"/>
    <path class="cls-3" d="M237.96,69.92c8.79-.02,10.04,23.44,1.33,24.08-.16,0-.32.03-.47.03-3.32,0-5.15-1.64-6.11-4.67-.52-1.98-4.68-19.42,5.25-19.44ZM234.6,87.84c.32,1.09,1.63,4.22,3.61,4.38.2.03.36,0,.47,0,2.65-.2,3.51-4.06,3.86-5.62.63-2.64,1.11-14.88-4.51-14.87h-.32c-5.98.47-3.88,13.7-3.12,16.11Z"/>
    <path class="cls-3" d="M249.35,68.94c.63,0,1.15.66,1.31,1.15.34,7.46.32,15.01,1.13,22.5,1.19-.27,3.2-.7,4.75-.7.71,0,1.35.16,1.35.82,0,.43-.12.76-.79.96-1.34.4-3.13.34-4.51.67-.51.1-1.07.43-1.7.43-.47,0-1.15-.46-1.23-.89-.49-3.96-.3-8.21-.55-12.11l-.54-8.15v-4.19c.19-.36.42-.5.78-.5Z"/>
    <path class="cls-3" d="M263.72,69.87c8.79-.02,10.04,23.44,1.33,24.08-.16,0-.32.03-.47.03-3.32,0-5.15-1.64-6.11-4.67-.52-1.98-4.68-19.42,5.25-19.44ZM260.37,87.79c.32,1.09,1.63,4.22,3.61,4.38.2.03.36,0,.47,0,2.65-.2,3.51-4.06,3.86-5.62.63-2.64,1.11-14.88-4.51-14.87h-.32c-5.98.47-3.88,13.7-3.12,16.11Z"/>
    <path class="cls-3" d="M273.65,81.17c0-1.02-.22-7.03-.3-8.58,0-.33-.25-3.23-.29-3.6v-.13c0-.76,1.03-.96,1.82-.96,5.46-.01,7.41,3.25,7.42,7.04,0,3.04-1.37,4.89-3.9,6.41,4.56,1.67,5.68,7.05,5.69,10.74,0,.59-.43.83-1.15.83-.47,0-.67,0-.87-.53-.2-2.47-.98-9.47-5.57-9.46-.04,0-.32.03-.4.03-.43,3.73-.06,7.49-.33,11.25-.51.59-1.62.63-2.1,0,.03-1.98,0-11.08-.04-13.06ZM275.82,80.37c2.81-.47,4.35-3.04,4.34-5.12,0-1.75-.89-5.38-3.74-5.37-.16,0-1.39,0-1.38.27l.78,10.23Z"/>
    <path class="cls-3" d="M287.93,90.91l-.02-6.53c-.01-4.72-.58-7.75-.59-12.47v-1.68c6.33-.44,7.04-.08,7.04.65,0,.23-.2.73-.47.83h-4.31c-.28,0-.28.17-.28.27,0,3.5.41,6.07.66,9.67.59.13,3.92.02,4.59.02,1.35.03,2.26,1.94.44,1.95h-5.03s.1,7.73.1,7.73c.95.2,5.98-.64,5.98.81,0,.4-.24.79-.75.86h-.2c-1.46.1-7.08.48-7.13-.48l-.04-1.62Z"/>
    <path class="cls-3" d="M299.68,90.82c1.47.19,1.19,1.81,2.78,2.01,2.57.36,3.16-1.16,3.51-2.94.7-3.73-1.48-6.53-3.87-9.63-1.11-1.45-1.71-2.7-1.36-4.55.55-2.61,2.05-4.39,5.33-4.4.28,0,.55,0,.87.03,1.07.1,1.82.29,1.63,1.22-.35,1.62-4.55-1.11-5.45,3.51-.43,2.11.6,2.97,1.95,4.88,2.11,3.03,3.93,5.73,3.23,9.3-.55,2.71-1.89,4.29-5.09,4.3-.32,0-.63,0-.95-.03-1.39-.2-3.8-1.31-3.81-2.67,0-.07.04-.17.04-.23.04-.4.63-.79,1.19-.79Z"/>
  </g>
  <g>
    <g class="cls-4">
      <path class="cls-2" d="M183.61,53.81c17.73.48,35.03-.11,52.58-2.35,4.66-.59,9.17-1.59,13.09-3.87,3.92-2.28,6.75-6.5,5.62-10.51-1.07-3.79-5.37-6.32-9.73-7.1-13.86-2.46-27.88-2.34-41.88-2.05-22.6.47-46.11-2.16-68.43,2.05-4.01.76-8.13,1.8-11.18,4.2-3.05,2.4-4.71,6.52-2.82,9.71,1.59,2.7,5.11,4,8.39,4.97,17.4,5.16,36.13,6.86,54.37,4.93"/>
      <g>
        <path class="cls-2" d="M183,51.26c.42,0,.23-.43.28-.52-.69.16-.25.63-.28.52Z"/>
        <polygon class="cls-2" points="176.13 52.81 176.25 52.62 175.24 53.11 176.13 52.81"/>
        <path class="cls-2" d="M169.59,52.99c.63.76,2.37-.17,3.54.09l.2.17.5-.64c-1.41.15-3.24.58-4.24.38Z"/>
        <path class="cls-2" d="M166.14,51.31c.21.3-.75.24.8.11-.08-.03-.1-.05-.14-.08-.14,0-.33,0-.66-.03Z"/>
        <path class="cls-2" d="M166.79,51.34c.68-.02-.44-.25,0,0h0Z"/>
        <path class="cls-2" d="M163.64,51.43l.91-.24c-.18-.18-.98-.24-.68-.36-.92.12-.74.3-.23.6Z"/>
        <path class="cls-2" d="M162.77,51.95l.47-.09c-.08-.07-.2-.11-.47.09Z"/>
        <path class="cls-2" d="M164.24,51.65l-1,.21c.13.13.13.37.46-.07-.09.22.12.01.54-.14Z"/>
        <path class="cls-2" d="M164.79,51.79c.5.18,1.15.3.24.54,1.73-.05,1.48-.6-.24-.54Z"/>
        <path class="cls-2" d="M169.26,53.78l.69.22.59-.27c-.3.14-1.32-.19-1.28.04Z"/>
        <path class="cls-2" d="M158.09,50.7c-.07.16.27.45.32.67l.68-.13c-.33-.14-.97-.29-.99-.53Z"/>
        <path class="cls-2" d="M158.4,51.37l-1.01.2c.89.1,1.06-.02,1.01-.2Z"/>
        <path class="cls-2" d="M162.57,52.79c.56-.16,1.11-.35,1.67-.52-.66.18-1.32.36-1.98.51h.32Z"/>
        <polygon class="cls-2" points="154.32 50.34 154.92 50.02 153.87 50.48 154.32 50.34"/>
        <path class="cls-2" d="M151.82,50.12c.45-.26-.5-.59-.04-.73-.68-.03-1.29.16-1.84.33.57-.06,1.15.05,1.88.4Z"/>
        <path class="cls-2" d="M149.02,49.94c.29-.03.59-.12.92-.22-.3.03-.6.09-.92.22Z"/>
        <path class="cls-2" d="M155.71,51.34c-.07-.11-.19-.38-.73-.54l.34.49c.12.01.25.03.39.05Z"/>
        <path class="cls-2" d="M155.33,51.31v-.02c-.43-.06-.73-.1-.85-.11.11.02.36.05.85.13Z"/>
        <path class="cls-2" d="M155.8,51.35s-.06,0-.1-.01c.03.05.05.07.1.01Z"/>
        <path class="cls-2" d="M159.97,52.23c-.6.22-1.85.39-.69.87.44-.28-.22-.55.69-.87Z"/>
        <path class="cls-2" d="M156.24,51.97l1.05.19c-.01-.12-.19-.31.11-.42l-1.16.23Z"/>
        <polygon class="cls-2" points="155.71 52.06 156.24 51.97 155.85 51.89 155.71 52.06"/>
        <path class="cls-2" d="M150.76,50.61c-.48.14-.98.1-1.54.04.58.19,1.2.3,1.79.38.1-.13.39-.35-.25-.42Z"/>
        <path class="cls-2" d="M152.97,51.02s-.07,0-.1.01c.06.05.11.06.1-.01Z"/>
        <polygon class="cls-2" points="143.73 49.74 143.8 49.84 143.84 49.77 143.73 49.74"/>
        <path class="cls-2" d="M151.1,51.12c.44.15.73.07,1-.04-.34,0-.71-.01-1.09-.06-.05.06-.06.1.09.1Z"/>
        <path class="cls-2" d="M147.46,49.91c.22.13.47.25.74.37-.21-.18-.64-.47-.74-.37Z"/>
        <path class="cls-2" d="M152.73,50.88h.07c-.14-.13-.12-.08-.07,0Z"/>
        <path class="cls-2" d="M152.73,50.88c-.24.04-.44.12-.63.2.28,0,.54-.02.77-.06-.05-.04-.1-.1-.14-.14Z"/>
        <path class="cls-2" d="M141.51,52.3c.16-.39,1.43-.54,2.38.08,1.08-.13.64-1.62-.09-2.54-.06.17-.1.35-1.17.4.31.3,2.2.94,1.26,1.17-1.42-.03-1.1-.35-1.73-.7.47.63-1.9.4-1.76,1.22l1.27-.02c0,.12-.48.22-.16.4Z"/>
        <path class="cls-2" d="M145.76,50.23l.43.02c-.47-.16-.79-.39-1.37-.83-.74.08-.91.21-.99.34l2.08.43-.16.04Z"/>
        <path class="cls-2" d="M148.1,50.55c-.4.4-1.46.44-.91,1.03,1.26.16.94-.25,1.72-.33-2.04-.2.62-.17-.8-.65.41-.02.77.01,1.11.05-.35-.11-.69-.23-1.01-.37.02.01.03.02.04.04h0,0c.08.08.1.12,0,.07,0,0-.03,0-.04,0-.02.06-.07.11-.12.16-.57-.18-.07-.13.12-.16,0-.02.03-.04.03-.06h0s-2.06-.07-2.06-.07c.42.13.95.2,1.91.29Z"/>
        <path class="cls-2" d="M158.11,54.01c-.06-.05-.06-.08-.06-.11-.14.05-.19.08.06.11Z"/>
        <path class="cls-2" d="M157.28,53.66c.16-.05.3-.23.78-.14.41.17-.02.22,0,.37.3-.1,1.05-.25.15-.54l-.15.05c-.82-.22-1.83-.88-1.68-.93.2.43.39.74.91,1.19Z"/>
        <path class="cls-2" d="M152.57,52.3h-1.73s.82.51.82.51v-.24c.94.22.77-.1.91-.27Z"/>
        <polygon class="cls-2" points="143.58 49.48 143.89 49.05 142.8 49.54 143.58 49.48"/>
        <polygon class="cls-2" points="141.4 49.12 141.57 48.72 140.95 48.85 141.4 49.12"/>
        <path class="cls-2" d="M216.67,25.27l.51-.12c-.24.04-.4.07-.51.12Z"/>
        <path class="cls-2" d="M212.96,25.24l-.09.21c.17-.12.24-.2.09-.21Z"/>
        <path class="cls-2" d="M145.26,31.19c.77.32,1.63.85,1.5.38l-.27-.44c-.5.13-.89.12-1.23.06Z"/>
        <path class="cls-2" d="M182.79,27.7c-.07-.05-.14-.1-.21-.15-.18.16-.35.3-.51.43.22-.09.46-.18.72-.29Z"/>
        <path class="cls-2" d="M183.36,25.79l.97.32c-.22-.11-.53-.22-.97-.32Z"/>
        <path class="cls-2" d="M237.06,25.8l.66-.41c-.95-.1-.56.18-.66.41Z"/>
        <path class="cls-2" d="M122.79,42.07c.04-.39.1-.66.09-.9-.23.41-.51.92-.09.9Z"/>
        <path class="cls-2" d="M215.21,30.18c.31-.08.44-.18.43-.28-.32.08-.5.17-.43.28Z"/>
        <path class="cls-2" d="M122.97,40.12c-.06.06-.09.12-.14.18.02.3.08.56.06.88.19-.33.31-.62.08-1.06Z"/>
        <path class="cls-2" d="M211.16,56.25c-.05-.02-.12-.03-.17-.05-.01.06.06.06.17.05Z"/>
        <path class="cls-2" d="M189.81,51.9c.21-.03.55-.02.87-.03-.16-.03-.42-.03-.87.03Z"/>
        <path class="cls-2" d="M132.82,46.88c.46.1.08-.03,0,0h0Z"/>
        <path class="cls-2" d="M134.57,49.22c-.11.03-.2.07-.24.17.07-.1.15-.15.24-.17Z"/>
        <path class="cls-2" d="M122.36,35.34l.03-.03c-.16.05-.13.04-.03.03Z"/>
        <path class="cls-2" d="M133.45,47.26c-.16-.1-.34-.2-.54-.29.08.06.25.16.54.29Z"/>
        <path class="cls-2" d="M133.41,47.03c.15.06.27.1.38.14.08-.06.04-.12-.38-.14Z"/>
        <path class="cls-2" d="M132.19,46.72c.26.07.49.15.71.25-.08-.06-.11-.09-.08-.1-.13-.03-.32-.08-.63-.15Z"/>
        <path class="cls-2" d="M250.08,48.76s-.08.02-.12.02c-.35.41-.17.29.12-.02Z"/>
        <path class="cls-2" d="M157.3,25.57s-.03.02-.05.02c.02,0,.05.01.07.01l-.02-.04Z"/>
        <path class="cls-2" d="M159.02,25.17c-.72.6-1.14.54-1.7.43l.61,1.32,1.09-1.75Z"/>
        <path class="cls-2" d="M225.58,25.32l-1.2-.47c1.5-.63,2.56-.34,1.44-.98-.23,1.43-4.77-.01-4.96,1.45l-.8-.32c.23.02.27-.07.49-.05-1.55-.72-1.17,1.02-3.17.8-.7-.12-1.18-.33-.71-.5l-1.56.36c-.45-.03-.34-.28.11-.25l-2.37.12.02-.04c-.34.23-1.1.59-1.47.74-.6-.2.3-.16.14-.34l-1.3.37c-.54-.37.54-.75,1.45-.7-1.24-1.44-1.08.37-3.73-.43l1.23-.2c-.81-.81-1.77-.5-3.18-.99.34.26,2.82,1.25,1.41,1.63-.4-.1-.93-.15-1.69.16-.02-.52-.76-.37-1.7-.33l.05-.68c-1.01.22-.92.56-1.5.88-1.12-.05-1.35-.58-1.62-1.02-1.78-.09,1.24.83-.87.99-1.48-.23-2.53.02-4.31.44-1.04-.24.18-.42-.19-.61l-.93.54c-.23-.02-.15-.18-.11-.27-.78.2-.07.68-1.3.85-.34.75-2.5-1.12-4.03-.3-.37-.2.19-.42.08-.68-2.09.52-1.79.38-3.52,1.1l-1.45-.48c1.06.54-.32,1.11-1.53,1.59.38.26.7.48.91.59l-1.93.33c-.23-.12-.03-.35.29-.63-.13.05-.26.11-.35.16-.68-.27-.32-.65.18-1.02.23.15.46.29.68.44.48-.41.93-.86.84-1.26-.13.08-.37.14-.63.17.13-.11.21-.21.15-.28-.06-.07-.27.07-.58.24l-.42-.77-.11.3-2.5-.53c-1.81.73-3.4,1.83-6.25,2.1.72-.55.17-.91.21-1.57.77.71,2.21-.26,3.69-.09-.77-.09-.6-.4-.4-.51l-2.65.59c.07-.54-.55-.42-1.24-.65.51,1.08-1.98.69-3.06,1.01-.06-.36.2-.72,1.51-.62-1.44-.82-1.88,1.23-3.3.55.32,0,.49.05.62-.14-.75.32-2.58.06-2.15-.25h.32c-2.13-.15-6.49.04-6.79.96-.02-.12.25-1.1.38-1.29l-3.7,3.17c.31-.79-1.05-2.61.7-3.1-.51-.09-1.15-.22-2.21.12.35.09.91,1.08.44,1.18-1.34-.8-.92-.42-2.56-1.08.53.14.02,1.39-.8,1.39.12-.19-.14-1.2.15-1.34-.66.43-1.31.89-1.96,1.34.49-.25.02-1.02-.46-1.33.23.22-1.77.11-2.31.27l.89.21c-2.33,0-2.12,1.9-4.39,2.05.24-.27.52-1.59-.67-1.62-.47.67-1.99,3.25-3.88,3.97l-.43-.29-1.44.65c.77-1.1,3.16-3.39,4.56-4.33-.9-.16-.29-.38-1.58-.17-.5-.27.64-.59,1.02-.66l-3.06.2c.24.69-2.2,1.1-1.98,1.67,1.04-.42,2.09-.88,3.15-1.25.12.35-.29.91-.98,1.42-.69.53-1.66.99-2.72,1.11-.59-.19.18-1.33.1-1.56-.24.29-1.93.8-2.16.68l.83-.54c-1.25-.05-1.74,1.3-3.33.96-.5.07-1.73-.51-1.71-.07,1.06.56,1.8,2.99,1.47,3.71-.17-.04-2.58-.05-3.25-.19-1.02-.3.61-1.87-.24-2.14.04.19-.32.59-.47.74-.57.05-.02-.66-1.1-.1.11.72-2.23,1.05-.25.8-.94.72-1.18.42-2.34,1.22.61.15-.1,1.99-.61,2.87-.09-.18-.43-.17-.59-.15-.78.82-1.32,1.51-1.79,2.25-.45.74-.83,1.55-.95,2.67-.22.17-.42,1.32-.73.84.13.35.39.65.56,1.36-.13.77-.25.39-.41-.07-.13-.45-.23-.99-.54-.35.21.02.43.51.73,1.07.32.55.73,1.18,1.14,1.52.18-.31-.1-.79-.41-1.38-.34-.58-.65-1.31-.82-1.83.46-.03.93.39,1.47.9.54.52,1.16,1.08,1.88,1.62,1.13.87.04.87.3.96,1.07,1.02,1.92.95,2.54.92.66-.04,1.18-.08,2.25.65.77.88-.33,1.09-.26,1.56-1.4-.27-1.87-1.11-2.68-1.51.29.25.6.5.91.74-.48,0-1.4-.3-1.74-.71.24.46,1.46,1.15,2.95,1.7,1.48.57,3.2,1.04,4.35,1.62.48-.06,1.28-.05.99-.37l-.79-.14c-.58-.64,1.6-.21.7-.69,1.1-.01,2.38-.24,3.75.39l.12.71c.01-.19-.85-.62-1.3-.53.67-.12,2.01,1.42,2.87.73l-.91-.67c1.11-.09,2.53-.45,3.76,0-.45-.75-.31.02-1.06-.93.58,1.1-3.24-.78-2.21.47-.73-1.06-1.52-.76-2.53-1.79-.02.22.32.51-.71.14-.06.05-.2.1-.28.12-.03-.02-.04-.02-.07-.03l.05.04c-.05.02-.06.02.02.01.23.16.4.32.46.46-.66.36-2.34-.14-2.98-.05-.6-.28.33-.16.05-.48l-.96.13c.04-.48-1.4-1.25.12-1.09l-1.27-.41c-.66-.49-1.56-.94-2.18-.99-.47-.31-1.48-.13-.89-.25-.58-.19-1.12-.4-1.61-.65l.06-.1c-.59-.49-1.21-.9-1.59-1.48-.37-.56-.48-1.39.09-2.1-.05-.46-.06-1.04.48-1.76l.44.06c.09-.32.47-.67.8-.97.34-.3.65-.54.61-.8.62.19,1.29-.27,2.1-.78.8-.51,1.76-1.09,2.47-1.24l-.13-.53c.96-.31,1.86-.73,3.11-1.25l-.19-.45c1.04-.66,3.03-.3,4.88-.64-.1.2-.57.23-.93.18,1.21.35,2.33-.06,3.45-.45,1.12-.39,2.22-.81,3.28-.55.48-.25.86-.21,1.23-.13-.05,0-.09.02-.12.04.05,0,.13,0,.21-.02.23.06.48.13.73.18-.22-.09-.44-.17-.62-.19.39-.05.98-.17,1.55-.35l.3.49s.08-.02.13-.03c.59.13.44-.29.1-.64.29-.11.55-.24.75-.39.54.78,1.52-.4,2.23.44.36-.46,2.93-.55,3.19-1.45.03.12.2.16-.11.19.67.07,1.33.14,1.91-.15l.31.64,1.4-.95c.89.37,1.26.59.41,1.12,2.07-.84,1.69-.34,3.46-1.16l-.08.43c.64-.03,1.65-.61,2.04-.26,1.44.76,7.08.07,10.75.87-.7-1.26,1.7.58,1.86-.38.21.3.72.47.12.72,1.88-.26,2.81.52,4.13-.27.21.3-.41.42-.22.6.15-.06.6-.24.79-.06.19.18-.28.24-.58.36,1.92,0,2.14-.91,2.29-1.76.97.42,1.45.38,2.17-.17.33.29.89.59-.3.66.67.06,4.1.49,4.19-.19.21.18.94.07,1.12,0,1.51.07,1.64.14,3.13.09l-.41-.12c.6-.82,1.24-.17,2.44-.26l-.04.08c2.74.62,1.19-.28,3.9.41l-.15-.51c.25-1.1,2.4.65,3.98.2l-.57-.29c.85-.39,2.44,1.47,3.3,1.59.19.09-.29.16-.55.24,2.26.61.28-.68,1.95-.87.32.36-.38.93.75.97.56.28,3.25-1.23,4.79-.55-.34-.27-.68-.55.09-.77,1.19-.11,3.22,1.03,4.29.16.15.08.21.15.21.22.91-.23,2.95-.36,3.5-.83.8,1.77,5.67-.74,5.6.91l2.78.04-.08.16c1.77.2,2.41-.15,3.07-.49.4.14.09.27.05.35,2.57.51,2.81.47,5.06-.12l.17.55c.63-.25,3.62,1.22,6.2,1-.03.06-.1.15-.31.19,1.42-.08,3.19.53,4.29,1.04,1.2.53,2.09,1,2.94.35.57.11,1.14.27,1.7.46-.89-.68-.74-.79-.39-.87.33-.06.85-.03.52-.43.93.42,1.58,1.94.65,1.28l-.08-.18c-.46.28.06.76.52,1.29.49.52.88,1.12.58,1.29,1.16,1.56,1.17,3.47.34,5.13-.82,1.67-2.28,3.06-3.85,4.12.27.13.54.25.83.37-.39.27-.79.52-1.2.75-.45.03-.7-.28.12-.76-.61-.11-1.29,1.16-1.25,1.32-1.98.61.31-1.16-.27-.91-.24.14-.47.29-.72.42h.21c-.48.57-.4.93-1.6,1.35-.81.13-.55-.31-.86-.24-.02-.06-.12-.04-.46.13-.59.17-1.2.32-1.81.46l.89.4c-.73.52-1.75.42-.72.88-.77-.35-2.53-.05-4.26.2-1.72.26-3.45.53-3.87.42-1.17.6-2.39.72-3.9.83.39.09.69.75-.62.81.33-1.47-2.44-.38-3.59-1.31,1,.6-3.67.49-2.12,1.33-1.09-.02-.11-.53-.96-.79-2.54.76-5.71.08-8.89.43-.04.19.51.45-.16.76l-1.73-.85c-.62.12-.53,1.11-1.71.51.17.15.42.38,0,.46-6.29-.65-12.82,1.12-19.19-.67.86.37.28.4-.37.41.43.09-.01.46.07.72l-2.66-.74c-.5.7-2.86,0-3.16.66l.85-.1c-1.15.77,1.54,1.81,1.36,2.83,1.28-.89,3.33,1.4,5.42.11.46.21-.39.33-.15.57.53-.43,1.17-.52,2.35-.33l-.13.11c3.32-.11,4.74.31,8.49.52l-.29-.5c.8.05.98.2,1.35.32.9-.79-2.25.01-1.43-.86,1.09,1.02,5.65-.14,6.41.99,1.24-.04-.38-.57.85-.61l.34.3.29-.42c.81.03,1.24.41,1.28.67-.2-.02-.56.1-.77.13,1.07.33,2.96-.27,3.32-.17l-1.2-.13c3.35-.47,7.49-.34,10.69-1.26l-.27-.22c2.44-.66,2.01.1,4.7-.38l-.09.07c.52-.29,1.23-.48,1.98-.53-.66.35,1.35.4.48.8,2.63-.77,1.29-.51,2.95-1.6l.45.34c.56-.43.59-.62,1.92-.89-1.07.47.94.49-.25,1.09,1.48.26,2.55-.13,3.4-.44.85-.32,1.5-.57,2.31-.1,1.09-1.34-2.62-.08-1.93-.47-.68-.24.93-.99,1.83-1.09.89-.2,1.88,1.04,4.21.24-.23.07-.22.16-.45.23.97-.03,1.56-.95,2.77-.99.3-.86,1.36-.61,1.13-1.45-.63.4-1.27.78-1.93,1.12.54-.35.97-.87,1.49-1.39.53-.51,1.15-.99,2.14-1.39-.03.24-.43.77-.75,1.11.68-.12.93-.79,1.6-.97.18.39-.36.88-1.11,1.35-.74.48-1.6.92-2.1,1.5.79.05,2.05-1.77,1.88-.63.16-.76.74-1.06,1.37-1.44.64-.37,1.37-.85,1.69-1.79l.27.45c.15-.27.4-.85.73-1.25-.03.39-.09.78-.16,1.16.33-.73.87-1.21,1.42-1.73.55-.51,1.1-1.09,1.32-1.86-.73,1.47-1.03,1.47-1.15,1.33-.14-.16-.21-.5-.71-.08.71-1.7,1.11-2.07,1.72-2.51.27-.24.6-.48.86-1,.26-.51.53-1.3.45-2.56.13.72-.52,2.44-.62,1.4.26-.86.36-2.09.53-2.72-.38-1.64-.56-1.43-.58-1.06-.07.4-.12.98-.42.37.3-1.19-.69-1.41-1.48-2.34l.44-.28c-.79-1.52-1.23-1.43-1.51-1.4-.31.05-.54.11-1.43-.92.45.06.9.14,1.36.27-.4-.32-.82-.59-1.23-.86l.61-.26c-1.57-.68-1.89-.98-3.19-1.85.15.49-.58.72-1.77.26-.72-.58.65-.31-1.13-.83.49-.19,1.09-.42,1.68.33.14-.12.51-.13.66-.25-.78-.75-2.34-.97-3.01-1.11.26.08.56.19.69.31-.93-.03-1.94,0-2.76.11-.34-.25-.02-.36.3-.46-.5-.03-.87.15-1.59.08.25-.38.28-.82,1.33-.84l-2.38.08c-.13-.2-1.11-.67-.79-.77-1.25-.44-3.25.38-4.9-.13-.1.07-.28.13-.65.15-1.58-.27-2.96-.9-4.89-.47l-1.02-.82c-1.49.07,1.39,1.04-1.09,1.16-1.75.14-.61-.67-1.21-.92-.89.32-2.42,1.03-4,.36.53-.13.95,0,1.44-.03ZM207.45,25.53c.35-.11,1.04-.46,1.3-.16-.39.59-.7.32-1.3.16ZM180.17,26.65c.26-.16.66-.07,1.11.13-.33.04-.7,0-1.11-.13ZM127.89,45.83s-.03,0-.04.01c-.59-.43-.39-.27.04-.01ZM129.25,46.52c.17-.02.18-.09.14-.18-.14.09-.47,0-.83-.16.06.16.22.31.69.34ZM244.07,47.69l.32.03c-.58.36-.45.17-.32-.03Z"/>
        <path class="cls-2" d="M183.28,26.01c.1.09.12.19.14.28.14-.08.14-.18-.14-.28Z"/>
        <path class="cls-2" d="M236.94,25.87h.05s.05-.05.07-.08l-.12.08Z"/>
        <path class="cls-2" d="M126.99,29.96c.37-.07.59-.05.74,0-.02-.12-.22-.17-.74,0Z"/>
        <path class="cls-2" d="M137.56,47.83l-1.02-.1c.48.08.63.23.85.37,0-.12-.14-.33.17-.27Z"/>
        <path class="cls-2" d="M145.64,52.71c.16-.03.32.05.47,0v-.24c-.64-.09-1.11.02-.47.24Z"/>
        <path class="cls-2" d="M138.1,49.71c-.02.44.64.44,1.36.52-.04,0-.08-.01-.12-.03.33-.55-.45-.52-1.24-.49Z"/>
        <path class="cls-2" d="M139.62,50.25c.22.02.44.06.65.12.13-.22-.25-.1-.65-.12Z"/>
        <path class="cls-2" d="M131.25,46.8c.29.2.35-.48.49-.25.51-.43-2.34.03-.49.25Z"/>
        <polygon class="cls-2" points="138.35 51.23 138.21 50.65 137.73 50.98 138.35 51.23"/>
        <path class="cls-2" d="M132.89,49.5l1.08.43c0-.09.16-.11.35-.1-.68-.19-1.41-.49-1.43-.33Z"/>
        <path class="cls-2" d="M134.32,49.83c.36.1.7.18.92.14-.2-.04-.62-.13-.92-.14Z"/>
        <polygon class="cls-2" points="136.77 51.04 136.46 50.85 135.68 50.63 136.77 51.04"/>
        <path class="cls-2" d="M121.95,44.57c-.29-.26-.57-.55-.81-.87-.22-.02-.15.34.18.67.28.16.62.45.64.19Z"/>
        <path class="cls-2" d="M124.19,48.02c-.27-.26-.24-.39-.33-.63l-.36.56c.23.03.46.06.69.08Z"/>
        <path class="cls-2" d="M120.84,45.75c-.24.07-1.78-1.43-.55.12.25.02,1.37.96.55-.12Z"/>
        <polygon class="cls-2" points="129.52 30.98 129.22 31.09 129.6 32.11 129.52 30.98"/>
        <path class="cls-2" d="M145.84,25.56c-1.55-.1-.29.7-1.7.52-.33.29,1.15.15.81.41.88-.36,1.38-.26.89-.93Z"/>
        <path class="cls-2" d="M144.95,26.49c-.14.06-.29.13-.45.21.26-.09.38-.16.45-.21Z"/>
        <polygon class="cls-2" points="186.32 51.26 185.37 51.01 185.97 51.39 186.32 51.26"/>
        <path class="cls-2" d="M184.46,52.02l-.21-.7-.59.61c.22-.03.64-.08.8.08Z"/>
        <path class="cls-2" d="M204.74,24.19l-.07.17c.15.18.38.19.83.21l-.76-.37Z"/>
        <polygon class="cls-2" points="217.89 24.6 217.67 24.58 218.09 25.21 217.89 24.6"/>
        <path class="cls-2" d="M229.05,24.15c-.46-.05-1,.06-1.46,0,1-.06,1.53.78,1.46,0Z"/>
      </g>
    </g>
    <g>
      <path class="cls-3" d="M140.52,44.87c0,.65-.35.98-1.06.98-.15,0-.28-.06-.39-.19-.11-.13-.17-.32-.17-.59l-.06-5.08c0-1.68.02-3.26.06-4.74-.45.4-.89.86-1.32,1.38-.43.52-.72.87-.87,1.04-.15.17-.35.34-.6.51s-.48.25-.69.25-.38-.07-.51-.22c-.13-.15-.19-.33-.19-.54s.16-.5.47-.87c.31-.37,1.47-1.61,3.47-3.73.31-.28.69-.42,1.16-.42.23,0,.41.07.56.2.15.13.22.29.22.46l-.14,5.38.06,6.18Z"/>
      <path class="cls-3" d="M143.94,31.55c.68,0,1.12.33,1.32,1,.08.23.12.48.12.76-.07.55-.34.96-.82,1.24-.25.16-.55.24-.9.24s-.7-.14-1.05-.43c-.35-.29-.53-.68-.53-1.17s.18-.89.53-1.19.8-.45,1.33-.45ZM144.42,33.07c0-.27-.07-.45-.2-.54-.13-.09-.28-.14-.45-.14s-.33.07-.48.21c-.15.14-.23.3-.23.49,0,.43.23.64.68.64s.68-.22.68-.66Z"/>
      <path class="cls-3" d="M157.84,36.57c.17,0,.34.06.51.18.17.12.25.25.25.4,0,.39-.57,2.48-1.7,6.28-1.13,3.8-1.97,6.47-2.52,8-.12.36-.31.54-.56.54s-.45-.09-.6-.27c-.15-.18-.22-.44-.22-.79s.22-1.18.67-2.49c.45-1.31.72-2.15.81-2.51-.33-.56-1.46-3.36-3.38-8.4-.03-.07-.04-.15-.04-.26s.08-.25.24-.42c.16-.17.38-.26.66-.26s.51.14.68.42c.19.48.49,1.32.92,2.51.43,1.19.76,2.06.99,2.59.23.53.46,1.09.67,1.66.19-.63.51-1.84.96-3.65.45-1.81.71-2.84.78-3.09.05-.29.35-.44.88-.44Z"/>
      <path class="cls-3" d="M160.04,46.09c0-.05.02-.15.06-.28.87-2.04,1.81-4.41,2.84-7.1,1.03-2.69,1.97-5.08,2.84-7.16.19-.35.46-.52.82-.52.16,0,.29.05.4.14.11.09.16.22.16.37s-.17.62-.5,1.39c-.33.77-1.14,2.79-2.41,6.05-1.27,3.26-2.25,5.67-2.93,7.23-.23.31-.47.46-.74.46-.36,0-.54-.19-.54-.58Z"/>
      <path class="cls-3" d="M171.92,36.49c.96,0,1.75.46,2.37,1.38.62.92.93,2.02.93,3.31,0,1.29-.32,2.38-.95,3.29-.63.91-1.47,1.36-2.52,1.36s-1.89-.46-2.53-1.39c-.64-.93-.96-1.96-.96-3.09,0-1.45.29-2.61.88-3.48.63-.92,1.55-1.38,2.78-1.38ZM171.68,38.13c-.56,0-1.02.29-1.38.88-.36.59-.54,1.21-.54,1.86,0,1.01.2,1.79.6,2.32.4.53.85.8,1.36.8.91,0,1.49-.39,1.74-1.18.11-.37.16-.84.16-1.4,0-2.19-.65-3.28-1.94-3.28Z"/>
      <path class="cls-3" d="M186.14,45.84l-2.94-.04h-.4c-1.32,0-1.98-.25-1.98-.76,0-.36.07-.7.2-1.02.13-.32.26-.56.38-.72.12-.16.36-.43.72-.8s.62-.65.78-.84c.16-.19.64-.66,1.45-1.42.81-.76,1.41-1.45,1.82-2.06.41-.61.61-1.26.61-1.94,0-1.05-.42-1.73-1.26-2.04-.24-.08-.49-.12-.74-.12-.57,0-1.15.25-1.72.74-.23.21-.47.32-.72.32-.08,0-.15,0-.22-.02-.33-.08-.5-.31-.5-.7,0-.52.37-.95,1.1-1.3.79-.37,1.64-.56,2.57-.56s1.69.34,2.28,1.01c.59.67.89,1.51.89,2.51,0,1.43-.44,2.65-1.32,3.68-.41.48-.83.93-1.26,1.34-1.35,1.28-2.25,2.25-2.7,2.92.6.04,1.34.06,2.23.06s1.98-.05,3.29-.16c.2.04.36.13.49.27.13.14.19.3.19.47,0,.45-.24.77-.72.94-.48.16-1.32.24-2.52.24Z"/>
      <path class="cls-3" d="M192.11,31.54c.68,0,1.12.33,1.32,1,.08.23.12.48.12.76-.07.55-.34.96-.82,1.24-.25.16-.55.24-.9.24s-.7-.14-1.05-.43c-.35-.29-.53-.68-.53-1.17s.18-.89.53-1.19c.35-.3.8-.45,1.33-.45ZM192.6,33.06c0-.27-.07-.45-.2-.54-.13-.09-.28-.14-.45-.14s-.33.07-.48.21c-.15.14-.23.3-.23.49,0,.43.23.64.68.64s.68-.22.68-.66Z"/>
      <path class="cls-3" d="M199.67,32.28c0-.53.33-.8,1-.8.31,0,.49.19.54.56v3c0,.56,0,1.12.02,1.68.27-.08.61-.12,1.02-.12,1.29,0,2.29.43,3,1.3.71.87,1.06,1.95,1.06,3.26,0,1.31-.42,2.41-1.25,3.31-.83.9-1.9,1.35-3.21,1.35s-1.96-.37-1.96-1.11c0-.74-.04-2.62-.11-5.64-.07-3.02-.11-5.28-.11-6.79ZM203.72,38.72c-.48-.37-.99-.56-1.52-.56-.29,0-.59.05-.9.16.08,1.09.12,3.03.12,5.82.23.08.46.12.7.12.52,0,1.04-.19,1.56-.58.77-.53,1.16-1.35,1.16-2.45,0-1.1-.37-1.94-1.12-2.51Z"/>
      <path class="cls-3" d="M213.46,36.46c.59,0,.88.5.88,1.5v.34l-.04,1.4c-.01.44-.02.87-.02,1.3l.3,4.52c0,.33-.34.5-1.02.5h-.29c-.15,0-.26-.06-.32-.18s-.07-.27-.02-.44c.05-.17.03-.37-.05-.58-.61.65-1.43.98-2.44.98-1.88,0-2.82-1.45-2.82-4.36,0-1.61.3-2.83.91-3.66.61-.83,1.48-1.24,2.61-1.24.53,0,1.07.09,1.6.28.17-.24.41-.36.72-.36ZM211.38,38.28c-.76,0-1.33.22-1.7.66-.37.44-.56,1.25-.56,2.42,0,1.97.53,2.96,1.6,2.96.28,0,.59-.13.93-.38.34-.25.58-.54.71-.86.25-.72.38-1.51.38-2.36,0-.85-.1-1.47-.31-1.86-.21-.39-.56-.58-1.05-.58ZM211.31,32.54c.08-.23.25-.34.51-.34s.47.08.62.24c.15.16.23.29.23.39s-.01.18-.04.25c-.21.6-.57,1.17-1.07,1.7s-.88.8-1.15.8-.47-.07-.6-.2c-.13-.13-.2-.29-.2-.47s.1-.35.3-.51c.72-.59,1.19-1.21,1.4-1.86Z"/>
      <path class="cls-3" d="M216.9,37.12c.56-.47,1.21-.7,1.95-.7.74,0,1.45.13,2.13.4.68.27,1.02.62,1.02,1.06,0,.23-.09.41-.26.54-.17.13-.32.2-.45.2s-.23,0-.3-.01c-.07,0-.34-.13-.8-.37-.46-.24-.88-.36-1.27-.36s-.72.1-.99.29-.41.48-.41.85.16.67.47.88c.31.21.86.4,1.65.55.79.15,1.39.37,1.81.65.42.28.63.8.63,1.56,0,1.11-.29,1.89-.87,2.35-.58.46-1.28.69-2.11.69-.83,0-1.53-.11-2.11-.34-.58-.23-.87-.57-.87-1.02,0-.52.26-.78.78-.78.13,0,.43.09.88.28.45.19.9.28,1.35.28.45,0,.79-.14,1.02-.43.23-.29.35-.62.35-.99,0-.37-.15-.64-.46-.81-.31-.17-.77-.3-1.4-.41-.63-.11-1.09-.22-1.38-.34-.8-.32-1.2-1.03-1.2-2.14,0-.79.28-1.41.84-1.88Z"/>
      <path class="cls-3" d="M224.73,33.16c.24,0,.47.11.68.34.21.23.32.46.32.71,0,.25-.12.5-.35.75-.23.25-.48.38-.73.38-.25,0-.48-.11-.69-.32-.21-.21-.31-.49-.31-.82,0-.64.35-.99,1.04-1.04h.04ZM225.58,43.63l.02,1.4c0,.25-.1.46-.3.63-.2.17-.41.25-.64.25-.33,0-.51-.17-.52-.5-.17-4.25-.26-6.61-.26-7.06,0-.45.02-1.01.06-1.66.03-.24.18-.36.46-.36.71,0,1.11.29,1.2.86.04.29.06.53.06.7l-.08,1.26v4.48Z"/>
      <path class="cls-3" d="M228.33,38.67c.47-.73,1.08-1.28,1.81-1.65.73-.37,1.45-.55,2.14-.55s1.25.08,1.67.25c.42.17.63.39.63.66s-.08.55-.23.82c-.15.27-.36.41-.61.41-.09,0-.35-.08-.77-.23-.42-.15-.69-.23-.81-.23-.77,0-1.43.28-1.98.85-.55.57-.82,1.32-.82,2.25,0,.93.15,1.63.45,2.09.3.46.82.69,1.55.69.29,0,.8-.17,1.51-.51.71-.34,1.16-.51,1.33-.51s.31.05.42.16c.11.11.16.24.16.4,0,.32-.2.66-.61,1.01-.41.35-.91.65-1.51.88-.6.23-1.14.35-1.62.35-1.07,0-1.9-.42-2.51-1.26-.61-.84-.91-1.99-.91-3.44,0-.89.24-1.71.71-2.44Z"/>
      <path class="cls-3" d="M239.19,36.47c.96,0,1.75.46,2.37,1.38.62.92.93,2.02.93,3.31,0,1.29-.32,2.38-.95,3.29-.63.91-1.47,1.36-2.52,1.36-1.05,0-1.89-.46-2.53-1.39-.64-.93-.96-1.96-.96-3.09,0-1.45.29-2.61.88-3.48.63-.92,1.55-1.38,2.78-1.38ZM238.96,38.11c-.56,0-1.02.29-1.38.88-.36.59-.54,1.21-.54,1.86,0,1.01.2,1.79.6,2.32.4.53.85.8,1.36.8.91,0,1.49-.39,1.74-1.18.11-.37.16-.84.16-1.4,0-2.19-.65-3.28-1.94-3.28Z"/>
    </g>
  </g>
  <g>
    <path class="cls-3" d="M66.61,103.17c0-.15.11-.3.34-.45s.44-.23.66-.23.38.05.5.15.19.22.2.36c.29,3.78.44,6.17.44,7.17,0,1-.01,1.75-.04,2.26s-.1,1.05-.21,1.63c-.11.58-.27,1.04-.48,1.38-.46.78-1.2,1.18-2.23,1.18s-1.85-.34-2.5-1.02-.97-1.66-.97-2.93c0-.21.11-.4.33-.58.22-.17.45-.26.7-.26.31,0,.5.29.57.86.18,1.62.79,2.44,1.83,2.44.27,0,.49-.09.68-.26.19-.17.33-.38.43-.63.1-.24.17-.57.23-.98.08-.59.13-1.29.13-2.11,0-.82-.1-2.31-.31-4.48-.2-2.17-.31-3.33-.31-3.48Z"/>
    <path class="cls-3" d="M70.47,106.92c.18-.16.37-.24.56-.24s.34.04.44.11.17.13.19.19c.02.06.05.15.07.29-.08,1.09-.13,2.08-.13,2.95,0,.88.1,1.88.32,3,.21,1.13.44,1.69.69,1.69.38,0,.86-.21,1.44-.63.58-.42,1-.86,1.25-1.32-.17-2.02-.25-3.75-.25-5.19,0-.29.09-.55.28-.76s.42-.31.68-.31c.43,0,.65.29.65.88,0,.99.07,2.47.22,4.43s.3,3.21.45,3.74c.03.11.04.24.04.39s-.09.29-.28.42-.43.2-.73.2-.5-.17-.6-.5c-.03-.28-.1-.7-.21-1.26-.98,1.02-1.97,1.53-2.96,1.53-.46,0-.88-.18-1.24-.53-.36-.35-.65-.83-.86-1.43-.36-1.16-.55-2.25-.55-3.28s.06-2.28.17-3.78c.06-.24.17-.44.36-.6Z"/>
    <path class="cls-3" d="M81.58,106.79c.74,0,1.45.22,2.12.65s1.01.97,1.01,1.61c0,.64-.27,1.25-.82,1.85-.55.6-1.27.96-2.18,1.08-.39.06-.98.08-1.76.08.15,1.19.46,1.97.9,2.35.14.15.33.23.57.23.87,0,1.6-.28,2.18-.83.59-.55,1.01-.83,1.26-.83.11,0,.28.11.5.32.22.21.34.41.34.59,0,.36-.44.89-1.32,1.58-.39.32-.86.59-1.42.81s-1.07.33-1.54.33c-1.22,0-2.11-.78-2.69-2.35-.36-.97-.55-2.03-.55-3.19s.27-2.16.82-3c.55-.84,1.41-1.26,2.58-1.26ZM81.69,108.23c-.53,0-.99.3-1.37.9-.14.21-.27.69-.4,1.43,1.96,0,2.94-.48,2.94-1.45,0-.59-.39-.88-1.18-.88Z"/>
    <path class="cls-3" d="M92.94,115.65c-.5.59-1.14.88-1.91.88s-1.44-.24-2-.71c-1.18-.91-1.76-2.3-1.76-4.18,0-1.47.41-2.65,1.22-3.54.81-.89,1.81-1.33,3-1.33s2,.41,2.44,1.22c.38.71.57,1.79.57,3.23l-.04,1.72c0,.81.04,1.94.12,3.37.08,1.43.12,2.52.12,3.24,0,1.2-.3,2.09-.89,2.66-.59.57-1.5.85-2.72.85-.73,0-1.47-.15-2.23-.46-.76-.31-1.13-.67-1.13-1.07,0-.29.08-.52.24-.67.16-.15.35-.23.56-.23s.68.15,1.42.46c.74.31,1.26.46,1.59.46,1.01,0,1.51-.83,1.51-2.48,0-1.65-.03-2.79-.08-3.42ZM92.92,111.2c0-1.01-.15-1.73-.45-2.14s-.77-.62-1.42-.62-1.16.29-1.55.88c-.39.59-.59,1.33-.59,2.24s.19,1.62.56,2.15c.37.53.94.8,1.71.8s1.27-.33,1.49-.99c.17-.53.25-1.3.25-2.32Z"/>
    <path class="cls-3" d="M99.98,106.72c1.01,0,1.84.48,2.49,1.45.65.97.98,2.12.98,3.48,0,1.35-.33,2.5-1,3.45s-1.55,1.43-2.65,1.43c-1.1,0-1.98-.49-2.66-1.46-.67-.97-1.01-2.05-1.01-3.24,0-1.53.31-2.74.92-3.65.66-.97,1.63-1.45,2.92-1.45ZM99.72,108.44c-.59,0-1.07.31-1.45.93s-.57,1.27-.57,1.95c0,1.06.21,1.88.63,2.44.42.56.9.84,1.43.84.95,0,1.56-.41,1.83-1.24.11-.39.17-.88.17-1.47,0-2.3-.68-3.44-2.04-3.44Z"/>
    <path class="cls-3" d="M106.24,107.71c.3,0,.57.11.8.34.23.22.37.53.41.92,0,.31-.12.59-.35.85-.23.26-.49.39-.79.39s-.56-.08-.8-.25c-.24-.17-.36-.42-.36-.75s.1-.66.31-1c.21-.34.47-.5.77-.5ZM106.53,114.13c.11,0,.25.04.42.11.1.06.21.21.33.46.12.25.18.5.18.76s-.12.49-.36.7c-.24.22-.5.33-.8.33s-.54-.11-.72-.33c-.19-.22-.28-.49-.28-.83,0-.8.41-1.2,1.24-1.2Z"/>
    <path class="cls-3" d="M114.95,106.7l1.05.02c.24,0,.37,0,.4-.02v-4.31c.01-.24.13-.44.36-.61.22-.17.43-.25.63-.25s.35.06.47.19c.12.13.17.32.16.59-.01.27-.02,1.72-.02,4.37l2.46-.08c.42,0,.63.25.63.74,0,.36-.11.64-.33.82-.22.18-.45.28-.69.29-.25.02-.49.02-.72.02l-1.28-.02c0,.57.06,1.71.18,3.4.12,1.69.21,2.79.28,3.29.07.5.08.82.04.97-.04.15-.12.25-.23.3-.18.08-.43.13-.73.13s-.49-.17-.55-.5c-.28-1.83-.47-4.35-.57-7.56-.13.01-.61.02-1.45.02-.84,0-1.26-.24-1.26-.73,0-.7.39-1.05,1.18-1.05Z"/>
    <path class="cls-3" d="M127.51,106.69c.62,0,.92.52.92,1.57v.36l-.04,1.47c-.01.46-.02.92-.02,1.37l.32,4.75c0,.35-.36.53-1.07.53h-.3c-.16,0-.27-.06-.34-.19s-.07-.28-.02-.46c.05-.18.03-.38-.05-.61-.64.69-1.5,1.03-2.56,1.03-1.97,0-2.96-1.53-2.96-4.58,0-1.69.32-2.97.96-3.84.64-.87,1.55-1.3,2.74-1.3.56,0,1.12.1,1.68.29.18-.25.43-.38.76-.38ZM125.32,108.6c-.8,0-1.39.23-1.79.69-.39.46-.59,1.31-.59,2.54,0,2.07.56,3.11,1.68,3.11.29,0,.62-.13.98-.4.36-.27.61-.57.75-.9.27-.76.4-1.58.4-2.48,0-.9-.11-1.55-.33-1.95-.22-.41-.58-.61-1.1-.61Z"/>
    <path class="cls-3" d="M129.92,102.3c0-.56.35-.84,1.05-.84.32,0,.51.2.57.59v3.15c0,.59,0,1.18.02,1.76.28-.08.64-.13,1.07-.13,1.36,0,2.41.46,3.15,1.36.74.91,1.11,2.05,1.11,3.42,0,1.37-.44,2.53-1.31,3.48-.87.95-2,1.42-3.37,1.42s-2.06-.39-2.06-1.17-.04-2.75-.12-5.92-.12-5.55-.12-7.13ZM134.16,109.07c-.5-.39-1.04-.59-1.6-.59-.31,0-.62.06-.95.17.08,1.15.13,3.18.13,6.11.24.08.48.13.74.13.55,0,1.09-.2,1.64-.61.81-.56,1.22-1.42,1.22-2.57,0-1.15-.39-2.03-1.18-2.63Z"/>
    <path class="cls-3" d="M138.48,102.9c.03-.52.12-.87.25-1.03.13-.16.35-.24.64-.24.6,0,.9.25.9.74,0,.38-.03,1.37-.09,2.96-.06,1.6-.09,3.02-.09,4.28,0,1.26.05,2.28.15,3.04.17,1.34.41,2.01.71,2.01s.54-.22.69-.65c.07-.17.18-.32.34-.45.15-.13.35-.2.59-.2.49,0,.73.41.73,1.24,0,.45-.24.89-.72,1.33-.48.44-.96.66-1.44.66s-.86-.08-1.14-.24c-.29-.16-.52-.4-.69-.72-.18-.32-.32-.63-.42-.93-.1-.3-.18-.67-.22-1.1-.08-.7-.14-1.82-.18-3.37-.04-1.55-.05-3.02-.05-4.43,0-1.41.02-2.37.05-2.9Z"/>
    <path class="cls-3" d="M147.14,106.77c.74,0,1.45.22,2.12.65.67.43,1.01.97,1.01,1.61,0,.64-.27,1.25-.82,1.85s-1.27.96-2.18,1.08c-.39.06-.98.08-1.76.08.15,1.19.46,1.97.9,2.35.14.15.33.23.57.23.87,0,1.6-.28,2.18-.83s1.01-.83,1.26-.83c.11,0,.28.1.5.31.22.21.34.41.34.59,0,.36-.44.89-1.32,1.58-.39.32-.86.59-1.42.81s-1.07.33-1.54.33c-1.22,0-2.11-.78-2.69-2.35-.36-.97-.55-2.03-.55-3.19s.27-2.16.82-3c.55-.84,1.41-1.26,2.58-1.26ZM147.25,108.22c-.53,0-.99.3-1.37.9-.14.21-.27.69-.4,1.43,1.96,0,2.94-.48,2.94-1.45,0-.59-.39-.88-1.18-.88Z"/>
    <path class="cls-3" d="M155.19,113.43l.02,2.16c0,.25-.12.48-.35.69-.23.21-.46.32-.68.32-.32,0-.52-.25-.61-.76-.01-.11-.07-1.14-.17-3.08-.1-1.94-.29-3.46-.57-4.57-.13-.53-.19-.85-.19-.95,0-.46.28-.69.84-.69.24,0,.43.09.57.27.14.18.23.37.26.56s.07.44.09.77c.03.32.05.53.06.61.29-.7.73-1.23,1.32-1.58.59-.35,1.23-.53,1.93-.53,1.15,0,1.72.29,1.72.88,0,.29-.1.53-.3.7-.2.17-.44.26-.7.26-1.19,0-2.03.38-2.52,1.13-.49.76-.73,2.02-.73,3.78Z"/>
    <path class="cls-3" d="M164.28,106.71c1.01,0,1.84.48,2.49,1.45.65.97.98,2.12.98,3.48,0,1.35-.33,2.5-1,3.45-.67.95-1.55,1.43-2.65,1.43s-1.98-.49-2.66-1.46c-.67-.97-1.01-2.05-1.01-3.24,0-1.53.31-2.74.92-3.66.66-.97,1.63-1.45,2.92-1.45ZM164.03,108.43c-.59,0-1.07.31-1.45.92-.38.62-.57,1.27-.57,1.95,0,1.06.21,1.88.63,2.44.42.56.9.84,1.43.84.95,0,1.56-.41,1.83-1.24.11-.39.17-.88.17-1.47,0-2.3-.68-3.44-2.04-3.44Z"/>
    <path class="cls-3" d="M170.6,114.31c.38,0,.63.2.76.59,0,.92-.15,1.76-.44,2.5-.1.27-.24.49-.43.67-.19.18-.39.27-.6.27-.46,0-.69-.25-.69-.73,0-.15.02-.3.06-.44.43-.49.65-1.22.65-2.21.08-.43.32-.65.69-.65Z"/>
    <path class="cls-3" d="M178.55,109.02c.5-.77,1.13-1.35,1.9-1.73.77-.38,1.52-.58,2.25-.58s1.31.09,1.75.26c.44.17.66.41.66.69s-.08.57-.24.86c-.16.29-.37.43-.64.43-.1,0-.37-.08-.81-.24s-.72-.24-.85-.24c-.81,0-1.51.3-2.08.89-.57.6-.86,1.38-.86,2.36,0,.98.16,1.71.47,2.19.32.48.86.72,1.63.72.31,0,.84-.18,1.59-.54.75-.36,1.21-.54,1.4-.54s.33.06.44.17c.11.11.17.25.17.42,0,.34-.21.69-.64,1.06s-.96.68-1.58.92c-.63.25-1.2.37-1.7.37-1.12,0-2-.44-2.64-1.32s-.96-2.09-.96-3.61c0-.94.25-1.79.75-2.56Z"/>
    <path class="cls-3" d="M192.1,106.68c.62,0,.92.52.92,1.57v.36l-.04,1.47c-.01.46-.02.92-.02,1.37l.32,4.75c0,.35-.36.53-1.07.53h-.3c-.16,0-.27-.06-.34-.19s-.07-.28-.02-.46c.05-.18.03-.38-.05-.61-.64.69-1.5,1.03-2.56,1.03-1.97,0-2.96-1.52-2.96-4.58,0-1.69.32-2.97.96-3.84.64-.87,1.55-1.3,2.74-1.3.56,0,1.12.1,1.68.29.18-.25.43-.38.76-.38ZM189.92,108.59c-.8,0-1.39.23-1.79.69-.39.46-.59,1.31-.59,2.54,0,2.07.56,3.11,1.68,3.11.29,0,.62-.13.98-.4.36-.27.61-.57.75-.9.27-.76.4-1.58.4-2.48,0-.9-.11-1.55-.33-1.95-.22-.41-.58-.61-1.1-.61Z"/>
    <path class="cls-3" d="M197.18,113.42l.02,2.16c0,.25-.12.48-.35.69-.23.21-.46.32-.68.32-.32,0-.52-.25-.61-.76-.01-.11-.07-1.14-.17-3.08-.1-1.94-.29-3.46-.57-4.57-.13-.53-.19-.85-.19-.95,0-.46.28-.69.84-.69.24,0,.43.09.57.27.14.18.23.37.26.56s.07.44.09.77c.03.32.05.53.06.61.29-.7.73-1.23,1.32-1.58.59-.35,1.23-.53,1.93-.53,1.15,0,1.72.29,1.72.88,0,.29-.1.53-.3.7-.2.17-.44.26-.7.26-1.19,0-2.03.38-2.52,1.13-.49.76-.73,2.02-.73,3.78Z"/>
    <path class="cls-3" d="M203.08,106.68l1.05.02c.24,0,.37,0,.4-.02v-4.31c.01-.24.13-.44.36-.61.22-.17.43-.25.63-.25s.35.06.47.19c.12.13.17.32.16.59-.01.27-.02,1.72-.02,4.37l2.46-.08c.42,0,.63.25.63.74,0,.36-.11.64-.33.82-.22.18-.45.28-.69.29-.25.01-.49.02-.72.02l-1.28-.02c0,.57.06,1.71.18,3.4.12,1.69.21,2.79.28,3.29.07.5.08.82.04.97-.04.15-.12.25-.23.3-.18.08-.43.13-.74.13s-.49-.17-.55-.5c-.28-1.83-.47-4.35-.57-7.56-.13.01-.61.02-1.45.02s-1.26-.24-1.26-.73c0-.7.39-1.05,1.18-1.05Z"/>
    <path class="cls-3" d="M215.64,106.68c.62,0,.92.52.92,1.57v.36l-.04,1.47c-.01.46-.02.92-.02,1.37l.32,4.75c0,.35-.36.53-1.07.53h-.3c-.16,0-.27-.06-.34-.19s-.07-.28-.02-.46c.05-.18.03-.38-.05-.61-.64.69-1.5,1.03-2.56,1.03-1.97,0-2.96-1.52-2.96-4.58,0-1.69.32-2.97.95-3.84.64-.87,1.55-1.3,2.74-1.3.56,0,1.12.1,1.68.29.18-.25.43-.38.76-.38ZM213.46,108.59c-.8,0-1.39.23-1.79.69-.39.46-.59,1.31-.59,2.54,0,2.07.56,3.11,1.68,3.11.29,0,.62-.13.98-.4.36-.27.61-.57.75-.9.27-.76.4-1.58.4-2.48s-.11-1.55-.33-1.95c-.22-.41-.58-.61-1.1-.61Z"/>
    <path class="cls-3" d="M219.25,107.37c.59-.49,1.27-.73,2.05-.73s1.52.14,2.24.42,1.07.65,1.07,1.11c0,.24-.09.43-.27.57-.18.14-.34.21-.47.21s-.24,0-.31-.01c-.08,0-.36-.14-.84-.39-.48-.25-.93-.38-1.33-.38s-.75.1-1.04.3c-.29.2-.43.5-.43.89s.16.7.49.92c.33.22.91.42,1.73.58.83.16,1.46.39,1.9.68s.66.84.66,1.64c0,1.16-.3,1.98-.91,2.47-.61.48-1.35.72-2.22.72s-1.61-.12-2.22-.36c-.61-.24-.91-.59-.91-1.07,0-.55.27-.82.82-.82.14,0,.45.1.92.29.48.2.95.29,1.42.29s.83-.15,1.07-.45c.25-.3.37-.65.37-1.04s-.16-.68-.48-.85c-.32-.17-.81-.32-1.47-.43-.66-.11-1.14-.23-1.45-.36-.84-.34-1.26-1.08-1.26-2.25,0-.83.29-1.48.88-1.97Z"/>
    <path class="cls-3" d="M237.63,106.78c.18,0,.36.06.54.19.17.13.26.27.26.42,0,.41-.59,2.6-1.78,6.59s-2.07,6.79-2.64,8.4c-.13.38-.32.57-.59.57s-.48-.09-.63-.28c-.15-.19-.23-.47-.23-.83s.23-1.24.7-2.62c.47-1.38.75-2.26.85-2.63-.35-.59-1.53-3.53-3.55-8.82-.03-.07-.04-.16-.04-.27s.08-.26.25-.44c.17-.18.4-.27.69-.27s.53.15.71.44c.2.5.52,1.38.97,2.63.45,1.25.79,2.16,1.04,2.72.25.56.48,1.14.7,1.74.2-.66.53-1.94,1.01-3.83.48-1.9.75-2.98.82-3.25.06-.31.36-.46.92-.46Z"/>
    <path class="cls-3" d="M249.66,106.65l-.02-4.05c0-.76.24-1.13.72-1.13s.75.21.81.63c.03.18.06,1.28.11,3.3.04,2.02.11,3.91.2,5.67.09,1.76.14,3.41.14,4.93,0,.42-.31.63-.94.63-.42,0-.63-.29-.63-.88-.6.48-1.32.71-2.14.71-1.05,0-1.9-.39-2.55-1.18-.65-.78-.98-1.75-.98-2.9s.23-2.22.7-3.22c.47-1,1.2-1.72,2.19-2.15.62-.27,1.21-.4,1.78-.4.21,0,.41.01.61.04ZM249.78,109.52c-.1-.3-.23-.53-.37-.69-.14-.16-.29-.26-.45-.29s-.35-.05-.58-.05c-.22,0-.5.08-.82.25-.32.17-.6.44-.82.82-.45.76-.67,1.55-.67,2.38s.16,1.51.49,2.04c.33.53.8.79,1.41.79.61,0,1.09-.3,1.44-.9.35-.6.52-1.37.52-2.31,0-1.05-.05-1.73-.16-2.03Z"/>
    <path class="cls-3" d="M255.86,106.75c.74,0,1.45.22,2.12.65.67.43,1.01.97,1.01,1.61s-.27,1.25-.82,1.85c-.55.59-1.27.96-2.18,1.08-.39.06-.98.08-1.76.08.15,1.19.46,1.97.9,2.35.14.15.33.23.57.23.87,0,1.6-.28,2.18-.83s1.01-.83,1.26-.83c.11,0,.28.11.5.32s.34.41.34.59c0,.36-.44.89-1.32,1.58-.39.32-.86.59-1.42.81-.55.22-1.07.33-1.54.33-1.22,0-2.11-.78-2.69-2.35-.36-.97-.55-2.03-.55-3.19,0-1.16.27-2.16.82-3,.55-.84,1.41-1.26,2.58-1.26ZM255.96,108.2c-.53,0-.99.3-1.36.9-.14.21-.27.69-.4,1.43,1.96,0,2.94-.48,2.94-1.45,0-.59-.39-.88-1.18-.88Z"/>
    <path class="cls-3" d="M262.43,107.36c.59-.49,1.27-.73,2.05-.74.78,0,1.52.14,2.24.42s1.07.65,1.07,1.11c0,.24-.09.43-.27.57-.18.14-.34.21-.47.21s-.24,0-.31-.01c-.08,0-.36-.14-.84-.39-.48-.25-.93-.38-1.33-.38s-.75.1-1.04.31c-.29.2-.43.5-.43.89s.16.7.49.92c.33.22.91.42,1.73.58s1.46.39,1.9.68.66.84.66,1.64c0,1.16-.3,1.98-.91,2.47-.61.48-1.35.72-2.22.72s-1.61-.12-2.22-.36c-.61-.24-.91-.59-.91-1.07,0-.55.27-.82.82-.82.14,0,.45.1.92.29.48.2.95.29,1.42.29s.83-.15,1.07-.45c.25-.3.37-.65.37-1.04s-.16-.68-.48-.85-.81-.32-1.47-.43c-.66-.11-1.14-.23-1.45-.36-.84-.34-1.26-1.08-1.26-2.25,0-.83.29-1.48.88-1.97Z"/>
    <path class="cls-3" d="M275.14,106.67c.62,0,.92.52.92,1.57v.36l-.04,1.47c-.01.46-.02.92-.02,1.37l.32,4.75c0,.35-.36.53-1.07.53h-.3c-.16,0-.27-.06-.34-.19s-.07-.28-.02-.46c.05-.18.03-.38-.05-.61-.64.69-1.5,1.03-2.56,1.03-1.97,0-2.96-1.53-2.96-4.58,0-1.69.32-2.97.95-3.84.64-.87,1.55-1.3,2.74-1.3.56,0,1.12.1,1.68.29.18-.25.43-.38.76-.38ZM272.95,108.58c-.8,0-1.39.23-1.79.69-.39.46-.59,1.31-.59,2.54,0,2.07.56,3.11,1.68,3.11.29,0,.62-.13.98-.4.36-.27.61-.57.75-.9.27-.76.4-1.58.4-2.48s-.11-1.55-.33-1.95c-.22-.41-.58-.61-1.1-.61Z"/>
    <path class="cls-3" d="M280.37,101.76c.22-.16.41-.25.57-.27.16-.02.53-.03,1.11-.03s1.06.08,1.44.25.57.5.57,1.01c0,.5-.2.76-.61.76-.08,0-.32-.07-.71-.22-.39-.15-.64-.22-.76-.22-.49,0-.78.29-.88.88-.03.21-.04.64-.04,1.29s0,1.19,0,1.61h1.47c.62.03.92.25.92.65,0,.59-.42.9-1.26.92-.13.01-.28.02-.46.02s-.39,0-.63-.02c.03.56.09,1.56.19,2.99.1,1.44.15,2.83.15,4.19,0,.28-.11.5-.34.67-.22.17-.46.25-.69.25-.38,0-.57-.22-.57-.67,0-1.26-.05-2.48-.15-3.67-.1-1.19-.17-2.44-.21-3.76-1.26,0-2-.12-2.21-.38-.08-.1-.13-.22-.13-.38,0-.36.15-.6.45-.71.3-.11.65-.17,1.04-.17s.67,0,.84,0c.04-2.28.17-3.7.38-4.24.13-.34.3-.58.51-.75Z"/>
    <path class="cls-3" d="M286.54,102.53c.08-.24.26-.36.54-.36s.49.08.65.25.24.3.24.41-.01.19-.04.26c-.22.63-.6,1.23-1.12,1.79s-.93.84-1.21.84-.49-.07-.63-.21c-.14-.14-.21-.3-.21-.49s.11-.38.34-.56c.74-.6,1.22-1.25,1.45-1.93ZM287.32,114.2l.02,1.47c0,.27-.1.49-.31.66s-.43.26-.67.26c-.35,0-.53-.17-.55-.53-.18-4.47-.27-6.94-.27-7.41s.02-1.06.06-1.74c.03-.25.19-.38.48-.38.74,0,1.16.3,1.26.9.04.31.06.55.06.74l-.08,1.32v4.7Z"/>
    <path class="cls-3" d="M293.47,106.68c1.01,0,1.84.48,2.49,1.45.65.97.98,2.12.98,3.48,0,1.35-.33,2.5-1,3.45s-1.55,1.43-2.65,1.43-1.98-.49-2.66-1.46c-.67-.97-1.01-2.05-1.01-3.24,0-1.53.31-2.74.92-3.65.66-.97,1.63-1.45,2.92-1.45ZM293.22,108.4c-.59,0-1.07.31-1.45.92s-.57,1.27-.57,1.95c0,1.06.21,1.88.63,2.44.42.56.9.84,1.43.84.95,0,1.56-.41,1.83-1.24.11-.39.17-.88.17-1.47,0-2.3-.68-3.44-2.04-3.44Z"/>
    <path class="cls-3" d="M299.45,107.35c.59-.49,1.27-.74,2.05-.74s1.52.14,2.24.42c.71.28,1.07.65,1.07,1.11,0,.24-.09.43-.27.57-.18.14-.34.21-.47.21s-.24,0-.31-.01c-.08,0-.36-.14-.84-.39-.48-.25-.93-.38-1.33-.38s-.75.1-1.04.3c-.29.2-.43.5-.43.89,0,.39.17.7.49.92.33.22.91.42,1.73.58.83.16,1.46.39,1.9.68.44.29.66.84.66,1.64,0,1.16-.3,1.99-.91,2.47-.61.48-1.35.72-2.22.72s-1.61-.12-2.22-.36c-.61-.24-.91-.59-.91-1.07,0-.55.27-.82.82-.82.14,0,.45.1.92.29s.95.29,1.42.29.83-.15,1.07-.45c.24-.3.37-.65.37-1.04s-.16-.68-.48-.85-.81-.32-1.47-.43c-.66-.11-1.14-.23-1.45-.36-.84-.33-1.26-1.08-1.26-2.25,0-.83.29-1.48.88-1.97Z"/>
  </g>
</svg>