<svg id="Capa_1" data-name="Capa 1" xmlns="http://www.w3.org/2000/svg" viewBox="0 0 1417.63 698.03"><defs><style>.cls-1{fill:#f2938e;}.cls-2{fill:#ef7c7b;}.cls-3{fill:#f1d54d;}.cls-4{opacity:0.88;}</style></defs><path class="cls-1" d="M1204.4,288.29h0M1127.94,287h0m100.35-2.9h0m-4.78-.58s-.07.05-.07.07.09,0,.07-.07m11.08-.34s0,0,0,0l0,0m-139.17-13.47v.07s0,0,0-.07M1093.17,259a.5.5,0,0,0,0,.19c0-.06,0-.12,0-.19M1325,250.22v0m-234.54-2.35a1.34,1.34,0,0,0,0,.2v-.2m239.94-4a2.29,2.29,0,0,0,.1.23,2.29,2.29,0,0,0-.1-.23m-185.17-16.77.18.27-.18-.27m-43.51-3.05a.77.77,0,0,0-.09.13.51.51,0,0,0,.09-.13m1.87-.62-.27.27.27-.27m12.06-6.29c-.2.06-.44.16-.7.25.22-.07.46-.15.7-.25m3.6-2.79,0,0,0,0m109.08-10.66c0,.08.06.17.09.27l-.09-.27m-16.91-28.29c-.06,0-.09,0-.1,0h0a.16.16,0,0,0,.11,0h0m-11.1-2.45c-.66,0-1.35,0-2.08.06a32.31,32.31,0,0,0-10,2.22,43.46,43.46,0,0,0-10.88,6.3,59.79,59.79,0,0,0-9.91,10,112,112,0,0,0-8.1,12.22c-2.46,4.2-4.78,8.45-7.15,12.45-1.19,2-2.38,4-3.62,5.82-.29.42-.57.85-.85,1.27l-.13.21-.09.17-.07.12-.12-.13-.08-.07,0,0-.42-.47a22.59,22.59,0,0,0-1.7-1.84,23.91,23.91,0,0,0-1.84-1.67,30.68,30.68,0,0,0-7.78-4.66,29,29,0,0,0-11-2.2q-1.17,0-2.16.09h0c-.81.18-3,.47-2.15.65-1.67.22-2.5,0-2.8.26l.57,0c.56,0,.37.15.24.29s-.21.28.59.28h.23l-1.4.24s0,0,0,0a6.26,6.26,0,0,0,.69-.12,5.56,5.56,0,0,1,.8-.12c.08,0,.13,0,.1.06l.33-.4h.63a6.64,6.64,0,0,1,1.57.14c.54-.1,1-.22,1.62-.33a4.45,4.45,0,0,1,.87-.08,9.91,9.91,0,0,1,1.88.21l-.71,0c1,.09,1.36.21,1.46.3s0,.15.21.22l-.45-.08,1.7.49a10.1,10.1,0,0,0-2.1-.32h0c-.56,0-.81,0-.24.09s.9.17,1,.17-.08-.05-.21-.1-.24-.09-.11-.09l.57.06c1.14.19.78.32.71.43a19.25,19.25,0,0,1,2,.44s0,0-.1,0a1.61,1.61,0,0,1-.39-.07l-.3-.07s0,0,.24.15l1.28.23,1.25.32c.16.29.85.43,1.59.71a5,5,0,0,1,2,1,4.49,4.49,0,0,0-.73-.29c-.06,0,.11.13.28.25s.32.24.21.24h0a22.17,22.17,0,0,1,2,1.06,21,21,0,0,1,1.89,1.22s0,.06,0,.06a1.62,1.62,0,0,1-.35-.18l-.3-.18.14.09a7.83,7.83,0,0,0,1.55,1,16.39,16.39,0,0,0,1.33,1.23c.57.52,1,1.08.88,1.13.5.56.82.88,1,1.11a2.38,2.38,0,0,0,.48.39,2.41,2.41,0,0,1,.46.35c.1.11.22.23.37.42s.31.46.52.8c0,0,0,.07,0,.07a3.55,3.55,0,0,1-.6-.75,2.23,2.23,0,0,0-.36-.38s0,.09.16.31c.33.44.67.93,1,1.38l.49.69.44.72c-.17-.12-.38-.2-1-1.12.66,1,1.16,2.06,1.72,3.07l.09.06.11-.1.22-.25.44-.51c.29-.35.59-.68.87-1,.59-.67,1.12-1.34,1.69-2l.82-1,.63-.79c.41-.52.84-1,1.23-1.56a53.24,53.24,0,0,0,4.62-7.12c.14-.16.22-.22.24-.22s-.55,1.08-.75,1.65c2.47-4.75,4.14-6.29,6.39-10.18l-.1-.16c3.63-5.11,7.28-11.64,12.2-16.39l-.64.52a9.5,9.5,0,0,1,1.07-1.35c.43-.47.87-1,1.26-1.38h0s0,.06,0,.11,0,.11.05.11.33-.16,1-.78a8.35,8.35,0,0,1-.88.57s0,0,0-.06A53.71,53.71,0,0,1,1188,181.8a26.82,26.82,0,0,1,11.77-2.89,19.37,19.37,0,0,1,2.31.14,23,23,0,0,1,8.88,2.56,27.43,27.43,0,0,1,4.07,2.55,30,30,0,0,1,3.67,3.2c4.54,4.56,7.59,10.42,9.66,16.34-.2-.6-.22-.86-.14-.86a2.66,2.66,0,0,1,.63,1.36,42.93,42.93,0,0,0,1.24,5.39c.13.43.24.85.35,1.29,0,.22.1.44.16.66.09.39.18.85.26,1.29.16.88.31,1.79.46,2.75s.25,2,.36,3.18.39,2.52.58,3.76.36,2.44.54,3.65l5.23-7.24c.87-1.19,1.74-2.38,2.63-3.52l.66-.86.48-.59.69-.82a67.53,67.53,0,0,1,5.74-6l.22.08c.83-.52,1-.79,1.78-1.36v.07a34.45,34.45,0,0,1,3.22-1.73,13,13,0,0,1,2.71-.93l0-.24c1.35-.32.73,0,2.1-.36l0,.12c.52-.12,1.06-.26,1.59-.33,0,.1.18.15.55.16s.86,0,1.39.11a11.33,11.33,0,0,1,1.58.24,4.84,4.84,0,0,1,1.11.4,11.1,11.1,0,0,1,3,1.43,13.21,13.21,0,0,1,3.09,2.88c.09.26.66,1,1.28,2.05a22,22,0,0,1,1.67,3.28,26.72,26.72,0,0,1,2.23,7.13,27.65,27.65,0,0,1,.33,4.19c0,.35,0,.71,0,1.06l0,.52,0,.26v.14l0,.18c-.09.69-.17,1.38-.26,2.06s-.28,1.5-.41,2.24l.33-.37-.54,2.94s-.1.21-.12.21,0-.05,0-.18l-.1.37h.47c1,0,2.56-.15,4-.27l2.3-.19,1-.06h.34l.24,0-.28-.06-.13,0h-.21c-.27,0-.52,0-.78.05-.51.05-1.06.13-1.86.18h-.15c-2,0,.33-.38,3.09-.43l0,.06,1.16-.18c.14.2,1.21.25,1.35.45,2.54-.09,4.67-.17,6.84-.18h.66a57.73,57.73,0,0,1,6.3.32c-.56.15,3.76.31,2.67.6.48,0,.81,0,1,0,1.15,0-1.27-.44,0-.53a7.08,7.08,0,0,1,2,.29c-.38,0,.5.28.12.28h-.15c.7.08,1.39.17,2.09.27.11,0,0,0-.15,0h-.36a42.15,42.15,0,0,1,5.81,1c1.78.42,3.41.86,5,1.34.29,0-1.29-.48-1-.53a7.76,7.76,0,0,1,3,1.19l.91.65c.18.12.35.28.58.44s.5.31.76.57a3,3,0,0,0-.58-.24,4.8,4.8,0,0,1,2.07,2h-.17a2.64,2.64,0,0,1-.39-.38c-.16-.16-.32-.36-.49-.53l-.51-.42a15.55,15.55,0,0,1,1.41,1.58,2.66,2.66,0,0,0,.6.7s0-.05,0-.17a5.59,5.59,0,0,1,.65,1.32c.1.37.13.68.23,1h0s0-.19,0-.37-.06-.37,0-.37.07.06.15.21.15.45.22.7.13.51.2.78a17.3,17.3,0,0,1,.34,1.74,17.7,17.7,0,0,1,.13,3.69h0l-.05,0,0,0s0,0,0-.06a3.56,3.56,0,0,1-.18,1.77c-.06.25-.18.5-.29.85s-.21.79-.39,1.39a21.43,21.43,0,0,1-6,9.45,38.43,38.43,0,0,1-10.07,6.7,29.8,29.8,0,0,1-5.81,2.9l-.39-.29c-.61.3-1.23.57-1.86.83l-.16,0c-.1,0,.11-.09.32-.18s.42-.18.32-.18l-.46.09-.64.49h0c-.2,0-1.36.38-2.15.61a6.12,6.12,0,0,1-.7.15c-.13,0,.11-.14,1-.53-1.25.41-2.52.78-3.77,1.17l-3.82,1c-1.7.41-.91.57-2.82.92-.42,0,.66-.24.47-.35-5.74,1-6.44,2.18-11.89,2.84l.45-.13c-.46.13-1.12.25-1.68.35a5.41,5.41,0,0,0-1,.19,1,1,0,0,0,.39.08,10.17,10.17,0,0,1,2.24-.44c-.09.36-2,.5-1.9.73a22.85,22.85,0,0,0-3.13.49c-1.65,0-3.87.33-5.4.33q-.39,0-.72,0a21.39,21.39,0,0,1-4,.79c-1.26-.14-.12-.25-1-.25h-.63l-.31.22c-.47,0-.78,0-1,0-.51,0-.37-.06-.33-.13a32.49,32.49,0,0,1-3.6.36l1.2-.26c-1.6.17-2.26.15-4.5.25a4.77,4.77,0,0,1,1.6-.15,3.51,3.51,0,0,0-.69-.07,5.34,5.34,0,0,0-1.14.15,4.72,4.72,0,0,1-.89.15h0c.2.08,1.75,0,1,.27-.87,0-1.82.24-2.58.24a2.1,2.1,0,0,1-.58-.07l1.2-.24a19.64,19.64,0,0,1-3.9.33c.15,0,.07-.07.13-.11a19.06,19.06,0,0,1-3.37.21H1240l-1.38,0,.47-.07c-1,.1-1.56.29-2.1.3,1.43.07,1,.14,1.18.32a6.23,6.23,0,0,0-.83-.06,11.9,11.9,0,0,0-1.92.22,15.51,15.51,0,0,1-2.57.21h-.63a1.91,1.91,0,0,1,1.1-.2l.53,0a8.73,8.73,0,0,1,3-.87c-.71.07-1.51.13-1.95.13-.21,0-.33,0-.33,0l-.32.29-1.8,0h0c-.29.21,1.44.28-.19.46l-.66,0c-.4,0-.53-.05-.56-.1s0-.11,0-.11l-.07,0a28.15,28.15,0,0,1-2.82.33h-.66a6.56,6.56,0,0,1,.8-.08h-2.88a4.22,4.22,0,0,1-1.82-.22,1.65,1.65,0,0,1,.84-.19h.13l0,0c.6-.09.67-.12.5-.12l-.47,0h-.6c-.29,0-.51,0-.51-.08a15.27,15.27,0,0,1-2.53.13h-.83l.35.23a10.37,10.37,0,0,1-1.56.25c-.32,0-.16-.14-.16-.28s-.18-.29-1.15-.29l-.59,0c-2.32.2.88,0-.54.23-1.18,0-1.8-.12-3-.12-.4,0-.87,0-1.45.05s-1.94-.19-2.06-.44c-.49,0-1.15.05-1.85.05h-.72a10.9,10.9,0,0,0-2.45.15c.42,0,.76,0,1.06,0a10.77,10.77,0,0,0,1.23-.07,10.87,10.87,0,0,1,1.25-.07,13.56,13.56,0,0,1,1.62.1l-.78.26c-1.54,0-3.43.11-4.81.11-.34,0-.65,0-.91,0,.27.05.39.11.22.17-2.49.11-3.37.33-5.5.33h-.71c-.35-.23,1.21-.21,2.35-.23a11.38,11.38,0,0,0-1.4-.08h-.86l-1.19,0h-1c-.14-.2,1.8,0,2.11-.2l-3,.09v0h0a1.55,1.55,0,0,1-.87.15c-.31,0-.69,0-1.1,0s-.87,0-1.34,0l-.76,0a39.31,39.31,0,0,0-7.32.75c-.64-.09-.82-.18-.56-.26a5.91,5.91,0,0,0,.73.07c.26,0,.27-.07.51-.13h-.21c-1.4,0-2.92-.34-2.15-.47-2.3.1.83.18-.58.29l-3.15,0c.37.17,1.48.21-.15.34l-1.33,0-2.51,0c.25-.08-.5-.25.64-.25h.15c-.37,0-.83-.05-1.27-.05a6.23,6.23,0,0,0-1.48.13c2,.17-3.23.14-1.77.41l-2-.16h0a2.39,2.39,0,0,0,.42,0,2.68,2.68,0,0,1,.48,0h.23a1.42,1.42,0,0,0-.57-.1c-.55,0-1.23.18-1.73.19a25.76,25.76,0,0,1-2.64-.19,6,6,0,0,1-.66,0,7,7,0,0,1-1.76-.16c-.93,0-.08.17-.35.25l-3.14-.05c-.17-.15-.43-.55,0-.6-1.14.12-.5.4-2,.4h-.23c1-.27-2.38-.23-.88-.56a26.63,26.63,0,0,0-3.92-.2l-1.66,0c-1,.21,1.75.15,1.64.38-4.05,0-4.72.52-7.17.52-.31,0-.63,0-1,0l.86.08a20,20,0,0,0-3.06.25c.57-.27-2.31-.79-5.69-.79h-.09c-.29.14,1.91.3,1.35.52h-2.27c-.17,0,.08-.07.38-.1h-.41c-.66,0-1.28,0-1.84-.09s-1-.1-1.44-.1a1.43,1.43,0,0,0-.72.13l-2.08-.4.82.17a29.17,29.17,0,0,1-3,.27c-.76.06-1.35.08-1.86.08a14.93,14.93,0,0,1-2.56-.23c.39.12,1.39.4-.43.41,0-.23-.93-.29-1.88-.34a6,6,0,0,1-1.84-.22c-.55,0-1.39-.19-1.83-.19-.14,0-.23,0-.26.07l.15-.28c-.07.13-.43.2-1,.2-.23,0-.5,0-.79,0l-1.51-.16-1.55-.26c.28-.22-.27-.3-1-.45a4.73,4.73,0,0,1-1.89-.73.35.35,0,0,1-.16,0,8.11,8.11,0,0,1-1.72-.44,10,10,0,0,0-1.74-.61h-.07a2,2,0,0,1-1-.77c-.12-.18-.11-.31-.23-.46l-.66-.24c-.28-.25-.89-.87-1.64-1.49-.34-.34-.66-.75-1-1.11-.17-.18-.32-.36-.47-.53s-.24-.37-.35-.54a9.23,9.23,0,0,1-1.12-1.05l-.17-.56c-.16-.11-.55-.77-.63-.77s0,.07,0,.26l-.35-.76h0c-.16,0-.3-.25-.51-.66s-.43-1.14-.8-1.92c0-.19,0-.28,0-.28s.11.11.2.29c-.25-.78,0-.55,0-.94h0a5.6,5.6,0,0,1-.66-.94c-.15-.25-.29-.44-.37-.44s-.09.21,0,.8c0,0,0,0,0,0a5.5,5.5,0,0,1-.71-2l.2-.59-.55-.94a19,19,0,0,1-.35-3c.11.61.4,1.25.56,1.25s.19-.45,0-1.73a20.38,20.38,0,0,0,.79,2.92,1.63,1.63,0,0,1,0-.55s.1.16.23.55a26.65,26.65,0,0,1-.73-2.86h0c.26,0,.21-.65.11-2.48,0,.49,0,1,0,1.46l-.11-.26c0,.54,0,.7-.07.83a22.17,22.17,0,0,1-.55-2.71c0,.22-.06.32-.1.32a3.67,3.67,0,0,1-.33-1.41,11.74,11.74,0,0,0-.29-1.76s0,.07-.07.22a5.6,5.6,0,0,1-.06-2c.07.42.12.58.16.58a2.5,2.5,0,0,0,.14-.86c.05-.44.09-.87.16-.87l0,0c0-.09,0-.14,0-.14s-.06.23-.09.46-.06.46-.1.46,0-.06-.07-.24a11.62,11.62,0,0,1,.19-2.56l.06.46c0-.57.07-1.15.12-1.72t0,0s-.08.19-.12.37a1.2,1.2,0,0,1-.09.37s0-.16-.07-.63a15,15,0,0,1,.12-2h0c.18.76.44.21.47,1.56v-2.57a2.31,2.31,0,0,0-.06-1s-.08.1-.14.32l.1-1.3a10.29,10.29,0,0,1-.4,1.69c-.05,0-.06-.32,0-1.23l.06,0,0-.93,0-.92.27-.77h0c-.07,0-.09-.3,0-1,.1-.16.28-.71.38-.71h0c.43-1.92.26-1.8.24-2.08.22-.73.37-1.14.45-1.14s0,.08,0,.25a26.72,26.72,0,0,1,1-2.6,11.94,11.94,0,0,1,1.07-2.16,3.3,3.3,0,0,0,.3-.78,1.24,1.24,0,0,0-.11.17c-.06.08-.11.17-.14.17s0-.09.07-.35c.58-.69,1.46-2.1,2.46-3.65a35.72,35.72,0,0,1,3.38-4.39.83.83,0,0,1-.26.07c-.28,0,.77-.75,1-1.35h0c.08,0,.52-.37.88-.56a1.82,1.82,0,0,1,.36-.18c.06,0,0,.13-.45.54.33-.31.69-.6,1-.91a.53.53,0,0,1,.2-.08c.11,0-.24.34-.58.68s-.68.68-.55.68a1.52,1.52,0,0,0,.43-.2c.75-.61,1.25-1.26,1.89-1.83.31-.29.65-.57,1-.86a6.22,6.22,0,0,1,1.32-.83c-.08.11-.1.16-.06.16a3,3,0,0,0,.59-.33,2.37,2.37,0,0,1,.63-.33s0,0,0,.12a10.74,10.74,0,0,1-1.47.95l.38-.14c1.85-1,2.08-1.23,2.08-1.35s-.27-.21.71-.76c.6-.28,1-.46,1.32-.57a2.49,2.49,0,0,1,.57-.1h0c.23,0,.17.15.27.19a10.16,10.16,0,0,0,1.55-.53,5.18,5.18,0,0,1-1.43.3c-.27,0-.34-.08-.09-.26a4.69,4.69,0,0,0,1.09-.21l.63-.2.67-.19a17.74,17.74,0,0,0,2-.71c-3.76.49-2.55.51-6,1.36-.4.31-.21.52-2.18,1.34.4-.28.49-.37.42-.37a5.93,5.93,0,0,0-.94.4h0c.35,0-1.31.78-1.8,1.2a.26.26,0,0,1-.11,0c-.08,0,0-.1,0-.21s.1-.22,0-.22a2.86,2.86,0,0,0-1,.51l-.09.58a.78.78,0,0,1-.3.13s-.06,0-.07,0a.07.07,0,0,0-.06,0c-.08,0-.27.11-.88.61.65-.78-.47-.11,1.54-1.6a13.92,13.92,0,0,0-1.72,1.05c-.46.4-.86.78-1.23,1.17-.77.73-1.3,1.59-2.07,2.44a1.28,1.28,0,0,0,.18-.29,5.31,5.31,0,0,1-.52.61c-.24.28-.48.59-.69.86s-.32.31-.35.31.15-.29.35-.58.38-.57.33-.57h0l-1.6,1.89-.06,0h0a4.44,4.44,0,0,1-.88,1.21c.31-.68.37-1,.58-1.47l-1.29,2.29s0,0,0,0-.22.19-.37.38a2.14,2.14,0,0,1-.35.37s0-.16.29-.65c-.64,1.13-1.36,2.21-1.89,3.4l-.4.16a2,2,0,0,0-.24.66,1,1,0,0,0,.16-.24c-.67,1.42-1.4,4.39-1.72,4.39,0,0-.06,0-.08-.1-.18.75-.34,1.37-.49,1.94s-.23,1.11-.34,1.66a30.61,30.61,0,0,0-.6,4.12c0-.57,0-.78,0-.78a2.56,2.56,0,0,0-.27.94,4.49,4.49,0,0,1-.17.91,3.73,3.73,0,0,1,0-.87,15.23,15.23,0,0,0,0,3.54c-.06.51-.13.73-.21.73s-.22-.48-.27-1.23l.08,1.47,0,0,.15,1.45c-.14,1.52-.28.32-.3,1.9l.26.34-.11,1.07c0-.07,0-.1,0-.1a7.26,7.26,0,0,1,.21,1.77l0,0,.13,1.38a1.85,1.85,0,0,0-.1-.39,3.09,3.09,0,0,0,0,.57c0,.29,0,.57,0,.57s0,0,0-.09c.08,1.19.08,1.22.37,3.36l.13-.4c.24,1.25.21,1.4.14,1.4h-.08c-.07,0-.12.13,0,1l.18-.17c.18,3.32,1.26,5.44,1.84,7.81-.3-.81-.46-1-.52-1s0,.06,0,.07l.61,1.7c.26.61.52,1.26.81,1.91s.63,1.27,1,1.84a15.84,15.84,0,0,0,1.1,1.52,5,5,0,0,0,.41,1.07,8.54,8.54,0,0,0,1.36,1.81,6.36,6.36,0,0,0,1.29,1.09,3.38,3.38,0,0,0,.75.39c.15.14.32.29.51.44l.63.41,1.32.81a5.8,5.8,0,0,1,1.57.88c.4,0,1.33.6,2.22.76l.15.14-.07-.23a8,8,0,0,0,1.86.72,10.76,10.76,0,0,0,1.79.37c.59.09,1.19.17,1.8.28a13.68,13.68,0,0,1,1.94.4h-.49l1.19.08c.18.1-.3.11-.37.21.91.11,1.83.19,2.75.28l2.75.16-1.07-.2h.41c.31,0,.6,0,.88,0s.58,0,.89,0a8.31,8.31,0,0,1,1.07.06c-1.1.12-.65.14.13.15h.38a6.26,6.26,0,0,1,1.65.11l-1.17.07c1.6,0,1.6,0,1.47-.21h.47a4.85,4.85,0,0,1,1.12.11,3,3,0,0,0,.83.11,7.4,7.4,0,0,0,.9-.07h-1.36c-.4-.11.58-.28,1.48-.29.2,0,.79.11.26.14.7,0,1.52,0,2.29,0h1c.59,0,1.07,0,1.33,0,.86.07.57.21.11.26,1,0,1.52-.05,1.89-.05h.63l.64,0c.37,0,.92,0,1.87-.05l-.06.11,1.19-.11,1.7.26-.61-.15c.73,0,1.28,0,1.92,0,.38,0,.78,0,1.26,0l-.54.16h.57c1,0,1.79.05,2.47.1s1.28.1,2.08.1c.47,0,1,0,1.65-.06.21,0-.27.08-.51.1.51,0,.9-.06,1.23-.06a8.55,8.55,0,0,1,1.2.09,6.56,6.56,0,0,0,1.12.09,12.83,12.83,0,0,0,1.44-.09c-.18.06.13.13,0,.18l1.3-.1-.11.23,1.06-.33.8.24.5-.1c1.38.45,3.35.14,5.23.48l-.32-.29a31.06,31.06,0,0,1,3.56-.18c1.69,0,3.49.09,5.32.18s3.71.18,5.56.18c.76,0,1.51,0,2.26-.05l-.1.22,2.38-.26c1.28.18-.77.19-.37.31,2.55-.13,1.06-.34,4-.41,1.51.15-.53.17-1.25.25,2-.08,4.82-.18,6.92-.18.75,0,1.41,0,1.93,0l.06-.08c.82-.05,1.74-.06,2.7-.06H1199c0,.11-.55.13-1.06.15.4,0,.88,0,1.34,0a6.22,6.22,0,0,0,1-.06l-.76.2h.35l1.69,0,1.71,0a4.08,4.08,0,0,1,1.15.09c-.15-.09,0-.25,1.27-.25a2.7,2.7,0,0,0,.94.12c.52,0,1.17-.05,1.87-.1s1.45-.09,2.17-.09c.3,0,.6,0,.88,0-.25.08-1.76.13-1.44.13h.57a19.47,19.47,0,0,0,2.49-.24l-.29.15,5.06-.28a4.16,4.16,0,0,0,1.26.12c.48,0,1,0,1.52,0s1-.05,1.28-.05.45,0,.37.08c1.81,0-1.52-.12.77-.21a2.77,2.77,0,0,0,.54,0h.56l.51,0c.24,0,.39,0,.36.1l-.24,0,1.59-.06-1,.25a5.18,5.18,0,0,0,2.45-.5c.38,0,.8,0,1.22,0h1.16a5.38,5.38,0,0,1,1.37.1l-.48.06,1.4,0c1,0,1.86.05,2.71.09s1.64.1,2.44.1a15.05,15.05,0,0,0,2.39-.18c.22,0,.2.08-.25.09l2.26-.06-.53.19,3.73-.39,0,.11c2.47,0,6.35-.27,9.54-.47l-.48.08c3.48-.39,3.37-.07,5.92-.39l-.27.07,2.3-.17-.5.14a14.51,14.51,0,0,1,2.68-.2h.85l.47,0c.08,0,0,0-.18,0a20.48,20.48,0,0,0,2.87-.67c.71-.07,1.07-.1,1.25-.1s.19,0,.21.06.07.07.38.07h.35c1.81-.21,2.11-.44,4.57-.66l0,.12c1.14-.19,1.84-.38,3.44-.63l-.47.12c2.56-.64,3.3-.21,5.25-1.06.89-.11,2.38-.44,2.91-.44.13,0,.2,0,.19.07,1.59-.41,3-.83,4.41-1.2l4.37-1.32a.83.83,0,0,0,.29.06c.4,0,.73-.35,2.34-.66l-.2-.15,3.43-1.08,1.79-.55,1.8-.63a45.18,45.18,0,0,0,7.22-3l.22.11.83-.68a45.83,45.83,0,0,0,7.8-5.05,35.89,35.89,0,0,0,3.41-3.16,31.83,31.83,0,0,0,2.55-3.15l.65-1.15.7-1.39c.25-.5.47-1.06.73-1.62s.45-1.15.71-1.73l-.07.26a25.5,25.5,0,0,0,.73-13.65c0,.07.07.09.09.09l0,0,0,0,0,0a13.27,13.27,0,0,1-.54-1.68,19,19,0,0,0-.65-1.84c.15.39.22.81.33,1.21-.61-1.26-1.49-3.09-1.79-3.78a19,19,0,0,0-1.56-1.67l-.23-.36-.37-.21c-.22-.34-.45-.7-.7-1-.24-.15-1-.71-1.78-1.2a8.11,8.11,0,0,0-2.18-.93c-.11-.14-1.19-.66-1.08-.66a4.8,4.8,0,0,1,.55.2,34.32,34.32,0,0,0-7.23-2.18l1.08.32c0,.05-.09.08-.28.08a14.75,14.75,0,0,1-2.83-.44l.42,0c.74,0-.31-.31-.83-.54h-.17c-.57,0,.93.33.44.35a38.38,38.38,0,0,1-4.39-.6l.73,0c-1.64-.16-2.35-.62-4-.79-.83,0-1.53-.09-1.94-.09s-.43,0-.32.21c-2.11-.14-.79-.31-1.47-.41h-.36a19.33,19.33,0,0,1-3.94-.43,4.1,4.1,0,0,1-1.2.13c-.62,0-1.38-.05-2.1-.1s-1.43-.1-2-.1a1.61,1.61,0,0,0-.87.13l-1.73-.23c-.06.11-.4.36-1.8.44-1.33-.09-1-.29-1.42-.4l-.88.46h-.94l-.39,0-.29,0-.22,0a4,4,0,0,0,.13-.49l0-.37h0s0-.3,0-.52l0-.7a33.61,33.61,0,0,0-.24-5.66,37.34,37.34,0,0,0-3.08-10.64,28.22,28.22,0,0,0-3.84-5.5,22.76,22.76,0,0,0-5.78-4.72l.51.23a17.47,17.47,0,0,0-4.64-2,18.18,18.18,0,0,1,3.39,1.44,11.89,11.89,0,0,0-1.43-.52L1266,198l-.73-.2a17.52,17.52,0,0,0-5.56-.86,21.06,21.06,0,0,0-3.51.3,23.48,23.48,0,0,0-9,3.68h0c-.81.66-1.34,1.08-1.74,1.37a9.33,9.33,0,0,1-1,.61,7.46,7.46,0,0,0-2.46,2c.21-.26.25-.39.44-.63a44.79,44.79,0,0,0-3.46,3.88c-.49.61-1,1.23-1.43,1.91l-.36.51-.09.14v0l0,.07-.14.34c0-.15-.08-.2-.11-.2s-.06.06-.09.13-.09.21-.11.21,0,0,0-.11l0,.37h-.18c-.05,0-.08,0,0-.23l-.13.36-.1.13.13-.46c0-.18-.09-.39-.13-.67l0-.19v-.11l0-.26a7.64,7.64,0,0,1-.13-1.53,100.64,100.64,0,0,0-3.36-10c-.75-1.83-1.6-3.67-2.54-5.44a49.56,49.56,0,0,0-3.08-5c-.76-.75-2.1-2.47-3.3-3.69-.34-.51-.73-1-1.1-1.47-.64-.61-1.4-1.11-2.09-1.66a24.6,24.6,0,0,1-2-1.57l.19.06a21.13,21.13,0,0,0-4.39-2.67,15.44,15.44,0,0,1-2.94-1.71,2.4,2.4,0,0,1-.61-.17c-.38-.13-.87-.32-1.34-.52s-1-.39-1.31-.53l-.6-.23s-.2-.07-.61-.17l-1.79-.4-1.32-.2a12.3,12.3,0,0,0-1.58-.15l-1.84-.11"/><path class="cls-2" d="M111.4,484.93c-9.78,0-19.61,4.57-23.84,13.53-2.18,4.62-2.74,10-5.28,14.38-4.65,8.07-14.48,10.89-23.71,10.89-1,0-2,0-3-.1C48,523.13,40.44,521.4,33,521.4a37.88,37.88,0,0,0-7.42.68c-9.9,2-19.65,11.36-17.4,21.45,3,13.6,24.41,17.66,24.28,31.65-.09,9.92-11.26,14.94-21.27,14.94a28.92,28.92,0,0,1-3.64-.23c-7-.92-14.27-3.08-21.18-3.08a22.6,22.6,0,0,0-10.64,2.36c-9.74,5-13.47,18.66-9.57,29.06s13.81,17.45,24.33,20.06a53.38,53.38,0,0,0,12.78,1.46,97.6,97.6,0,0,0,19.51-2.3c4.94-1,10-2.22,15-2.22a23.22,23.22,0,0,1,7.35,1.09c9.18,3,14.8,12.14,21,19.72,16.64,20.4,42.59,31.52,68.48,31.52a84.58,84.58,0,0,0,40.43-10c11-6,21.48-14.58,33.87-15.5.76-.06,1.52-.09,2.27-.09,11.49,0,22.23,6.27,33.54,8.85a30.46,30.46,0,0,0,6.88.84c8.81,0,14.6-4.65,22.42-10.49,4-3,7.26-3.89,10.53-3.89,4.89,0,9.8,2,17.23,2.08H302c8.78,0,18-3.18,23.44-10.36s5.61-18.91-1.15-24.73c-5.43-4.67-13.23-4.54-20.13-6.25s-14.28-7.78-12.35-14.87c1.64-6.07,8.55-8,15-8,1.1,0,2.18.05,3.22.15,2.22.21,4.58.42,6.92.42,5.13,0,10.1-1,12.92-5.17s2-10.28-1.14-14.24-7.92-6.09-12.76-7.12a49.17,49.17,0,0,0-10.34-1c-3.84,0-7.71.31-11.58.61s-7.74.61-11.6.61h-1c-11.52-.16-24.5-4.7-28.54-15.79-3.11-8.53,0-18.15-.88-27.23-1.15-11.28-9.26-21.41-19.76-24.68a26.33,26.33,0,0,0-7.82-1.17A29.1,29.1,0,0,0,202.22,511c-5.74,6.93-8.72,16.83-16.63,20.85a15.71,15.71,0,0,1-7.17,1.66,23.76,23.76,0,0,1-14.11-5.2c-6-4.67-10.25-11.31-14.77-17.54-7.57-10.45-16.81-20.45-28.9-24.36a30.24,30.24,0,0,0-9.24-1.43"/><polygon class="cls-3" points="1077.9 167.3 1075.16 156.35 1085.34 162.7 1097.82 157.12 1091.47 169.49 1100.66 180.32 1087.31 175.4 1082.72 189.29 1079.21 177.47 1068.38 176.71 1077.9 167.3"/><g class="cls-4"><path class="cls-3" d="M673.39,633.09c0,.16.22.29.39,0l-.16-.45Z"/><path class="cls-3" d="M675.32,632.21c.09-.39.09-.93-.35-1,.07.52-.11.46,0,1.07-.16.25-.45.28-.53.13,0,.15-.38.26-.3.56a1.14,1.14,0,0,0,1-.94C675.27,632,675.28,632.14,675.32,632.21Z"/><path class="cls-3" d="M673.57,619.36h.2A.44.44,0,0,0,673.57,619.36Z"/><path class="cls-3" d="M661.91,610.91c.08.12.14.15.18.13S661.93,610.87,661.91,610.91Z"/><path class="cls-3" d="M660.72,607.78l.12.28A.46.46,0,0,0,660.72,607.78Z"/><path class="cls-3" d="M673.57,619.36l-.49,0C673.07,619.47,673.34,619.38,673.57,619.36Z"/><path class="cls-3" d="M677.12,628.55a.7.7,0,0,0-.08.27l.12-.22Z"/><path class="cls-3" d="M681.55,617.32l.21,0,.22-.22Z"/><path class="cls-3" d="M685,619.67c.11-.19-.32-.14-.49-.14.15,0,.18.14.14.28A1.76,1.76,0,0,0,685,619.67Z"/><path class="cls-3" d="M679.1,628.36l-.07.17A1.47,1.47,0,0,0,679.1,628.36Z"/><path class="cls-3" d="M677,618.21a.36.36,0,0,0-.08-.12A.2.2,0,0,0,677,618.21Z"/><path class="cls-3" d="M672.6,641.2l.06,0S672.59,641.15,672.6,641.2Z"/><path class="cls-3" d="M672.41,633.93l0,.09a1.2,1.2,0,0,0,.2,0Z"/><path class="cls-3" d="M656.4,600.91l0,0C656.46,600.52,656.43,600.68,656.4,600.91Z"/><path class="cls-3" d="M631.78,634.28c-.28-.26.25-.2.66-.19s.72,0,.35-.31c0,.07-.45.08-.82.13S631.31,634,631.78,634.28Z"/><path class="cls-3" d="M677.25,628.46a1.43,1.43,0,0,1,.14-.2A.67.67,0,0,0,677.25,628.46Z"/><path class="cls-3" d="M632.79,633.78h0l-.08-.06Z"/><path class="cls-3" d="M652.54,617.24a.48.48,0,0,0,.19-.09S652.64,617.16,652.54,617.24Z"/><path class="cls-3" d="M655.52,607.42l-.12.31A1.38,1.38,0,0,0,655.52,607.42Z"/><path class="cls-3" d="M651.82,622.22a.52.52,0,0,0-.11.33l.06,0A.26.26,0,0,1,651.82,622.22Z"/><path class="cls-3" d="M650.59,626.74h.08l0-.09Z"/><path class="cls-3" d="M674.21,648.81l.13.45C674.28,648.93,674.42,648.91,674.21,648.81Z"/><path class="cls-3" d="M677.28,628.67a.19.19,0,0,1,0-.21l-.09.14A.12.12,0,0,0,677.28,628.67Z"/><path class="cls-3" d="M654.53,623.11l-.26.79A7.33,7.33,0,0,0,654.53,623.11Z"/><path class="cls-3" d="M647.36,656.56l.06,0S647.4,656.54,647.36,656.56Z"/><path class="cls-3" d="M653.73,626.29a1.18,1.18,0,0,0-.36.41.75.75,0,0,0,.06.13Z"/><path class="cls-3" d="M674.34,649.27h0Z"/><path class="cls-3" d="M674.18,648.16l1.05,1c.29.55-.47-.4-.83-.76.11.13.33.43.55.74s.23.4.15.34-.17-.22-.28-.39c.19.32,0,.24-.09.18s-.24-.08-.32.14l-.07-.17a6.59,6.59,0,0,1,.22.88c-.2-.11-.42.1-.5-.31.14.09.15-.05.2-.13a.78.78,0,0,1-.22,0c-.14-.6.29,0,.24-.42A1.49,1.49,0,0,1,673,649c.06-.22.36-.09.58,0s.2.05.17-.19a3.13,3.13,0,0,0,.26.35c-.07-.84.13.12.1-.74,0-.06-.05-.07-.08-.07l-.41-.16a3.63,3.63,0,0,1-1.05-.56c-.34.08-.11.35-.45.43-1.59-.43-.53-1.58-1.84-1.67-.4.09-.78.51-1.36-.17l.5-.28c-.92-.59-.9.3-1.72-.56.28-.07.82.29.71.16-.44-.71-.59,0-1.08-.32l.12-.43a13.63,13.63,0,0,0-1.81-.75,4.91,4.91,0,0,0-2.6-.21c.07-.14.43-.33-.09-.39a7.87,7.87,0,0,0-2.82,1.77c-.67.55-1.38,1-2,1.49l-.17.69c-.11.09-.31.05-.25-.1-.54.32.14.19,0,.5s-.48.16-.4-.07a8.41,8.41,0,0,1-2.83,3.12l.08-.24c-.74.51-.18,1.25-1,1.56l.07-.15c-1.49,1.21-2.78,2.93-4.23,3.53.09.29-.29.58-.64.87s-.41.33-.28.73A.47.47,0,0,1,648,657a1.36,1.36,0,0,1-.22-.25s-.27.84-.41.73l.22-.58a.9.9,0,0,1-.34.31,5.16,5.16,0,0,1,.29-.62l-.11,0a1.05,1.05,0,0,1-.19.36c-.12-.06-.14-.34-.06-.5a1.05,1.05,0,0,0,.07-.11,1.08,1.08,0,0,1,0-.21.32.32,0,0,1,.13-.22c-.22-.5-.48-1-.66-1.54.16,0,.25.27.4.46-.55-.79.38-.22-.12-1-.07.12-.24,0-.32,0a4.6,4.6,0,0,0-.07-2l.28.11a28.13,28.13,0,0,1,0-3.91c-.17.47-.63.32-.64-.1l.43-.11c-.23-.29-.2.41-.45-.17.12-.52.52-.28.61,0l-.05-.63c.13,0,.17.14.32.2-.23-.3.59-1,.23-1.41h.13a25.66,25.66,0,0,1,.72-3c-.33-.15-.1-.53-.25-1,.24-.37.49-.7.77-1.11a3.2,3.2,0,0,0,.28-.47,5.39,5.39,0,0,0,.25-.6,3,3,0,0,0,.15-1.29c-.19-.59-.34-.62-.4-.6s-.13.12-.32-.06c.14-.1,0-.51-.17-.78s-.3-.44.12-.21a3.66,3.66,0,0,0-1.15-.74,5.52,5.52,0,0,0-1-.3c-.44-.09-.93-.17-1.73-.28.12.18.29.29.16.37-.29,0-.59-.33-.5-.47h.08c-1.87-.06-3.69-2.14-5.27-1.91h.09l-1.53-.1c-.64-.25.47-.11,0-.46a4.66,4.66,0,0,1-2-.4.68.68,0,0,0-.63-.11c.38-.39.41-.36.12-.39s-.87-.1.12-.12h-.77c-.88,0,.45,0,.63,0-.59,0-.77,0-1.14,0-.08-.14.78-.3,1.27-.28l.33,0,.12,0,0,0s0,0,.12,0l2.27-.25c1.1-.14.41-1.28,1.89-1l-.33.49c2.14-.88,4.52-.61,6.67-1.18-.12.1-.12.23-.33.24.48.27,1.71-.08,1.7-.33.35,0,.09.22.31.34.48.16,1.12-.43,1.46-.14,0,0-.16.11-.25.14a8.39,8.39,0,0,1,1.06-.18c.52-.11.85-.3.54-.38a2.44,2.44,0,0,0,1.64-1.18c.35-.53.51-1.24.69-1.52-.27-.55.54-1.36,0-1.64.55.2.81-1.31.68-1.9.12.22.28-.4.47-.14.14-.59.17-1.16-.15-1.13,1-.91,0-2.31,1-2.71.14-1.82.34-3.5.6-5.1.55.19-.38,1.75.23,1.83.14-1.55-.13-2.53.38-4,.17-.36.19.28.25.43a13.69,13.69,0,0,1,.44-2.19,2.54,2.54,0,0,0,.13-.6,2.17,2.17,0,0,0,0-.49,1.28,1.28,0,0,1,.1.26c0-.12.11-.1-.08-.41l0,.18a1.31,1.31,0,0,1-.37-.84c-.07-.43-.1-1-.15-1.16.4,1.48.33-.57.77,1.62a5.91,5.91,0,0,0-.16-.83c.06,0,.11.2.19.71a13.58,13.58,0,0,1,0-1.52l0,.07c0,.24,0,.33,0,.52l0,.31v-.17c0-.5.09-.74.29-.18,0,.14,0,.38,0,.29.13.2.28.13.5.25a1.53,1.53,0,0,1,.62.92c-.28.06-.27.17-.26.26a.48.48,0,0,1,0,.17.29.29,0,0,1-.11.26l.48.59.06-.38c.31.58.9.92,1,1.49l-.41-.33.68,1-.18-.7c.54.46.5-.35.8.48-.13-.13.31.58.23,1h0a1.58,1.58,0,0,1,.72.91c-.07.18-.51.16-.56.29.5.08.84,1.29,1.41,1.44a.36.36,0,0,0-.4.11l.41.07c.06.32,0,.38-.16.44.39.83.39-.55.68.53-.06-.07-.08,0-.21-.14.41,1,1.18,1.74,1.55,2.71-.26.51-.55-.73-.73-.22A6.18,6.18,0,0,0,666,621a3.64,3.64,0,0,0,1.32.55,7.3,7.3,0,0,0,1.28.11l-.3,0c.11-.34.38-.26.74-.18a1.36,1.36,0,0,0,1.12-.06c-.16.09-.15.42-.12.33a15,15,0,0,0,3.26-1.07l-.14.2a19.37,19.37,0,0,0,2.08-.26c.14-.21.49-.26.23-.46,2,.58,3.4-1.26,5.2-.8-.2.05-.43.25-.28.22l.65-.22.42-.17c0-.3-.09-.17-.32-.35a1.46,1.46,0,0,1,.86-.5c-.64.33-.11.51-.05.66,0-.09.13-.22.16-.32.21.49.5-.71,1.14-.49l-.21.21a6.2,6.2,0,0,1,1.31-.53c-.39.43-.6.29-1,.67a11.33,11.33,0,0,0,1.12-.54c.16,0,.13.23-.23.62a.43.43,0,0,1,0-.23.48.48,0,0,0,0-.12s0-.09-.09,0a4.64,4.64,0,0,0-.85,1.07l0,0c-.17.24-.35.46-.5.65l.21-.19c.55-.09.45.24.3.52a1.64,1.64,0,0,0-.25,1.07c0-.49-.15-.48-.23-.46a.37.37,0,0,1-.36.05,1.65,1.65,0,0,1-.26.14c-.1.07-.18.1-.2,0,.07.55-.57.54-.48,1.32-.12,0-.25.41-.47.16-.21.55.26,0,.37.11-.09,1-1.51,1.55-1.75,2.94-.43,1.06-.2,1.47-.66,2.45-.37.17-.19-.5-.19-.5a2.53,2.53,0,0,0-.93,1.22c0-.16-.16-.12-.37-.08-.24.35.17.51-.32.83a1.69,1.69,0,0,1-.13-.64c-.22.46-.35,1-.61,1.47-.26,0,0-.46,0-.69-.3.51-.83,1.28-.7,1.64l.34-.2c-.13.17-.29-.11-.24-.27.13-.55.57-.48.68-.41l-.18.33c.81.19.89-1.23,1.38-1.79l.22.58c.05-.29.09-.59.13-.88.21-.05.52,0,.35.39.54-.28.15-.5.66-.7.07,0,.08,0,.07.07l.18-.52c0,.15.36.15.1.37.83-.6.58-1.5,1.12-1.56l0,.08c.6-1.21-.25-.33-.08-1.41l1.17,0-.26-.32c.09-.11.26-.32.36-.2.05-.57-.19,0-.25-.4.66-.38.79-1.64,1.4-1.47-.15-.35-.51.44-.35-.28.69.15.3-.75.85-1.16.21.35-.21.75.34.37-.15-.34,0-.62.31-1a4.05,4.05,0,0,0,.71-1.05c-.27,0-.18-.26,0-.66a9.37,9.37,0,0,0,.54-1.36c.06,0,.16-.16.29-.38l.22-.38c0-.07.1-.17.11-.21h-.19c-.52,0-1.22.11-1.66.11l.1-.1a5.9,5.9,0,0,1-2.29,1c.1-.31.25-.46.77-.69l-.8.17a2.18,2.18,0,0,1-.91.48,3.2,3.2,0,0,1,.16-.39l-.41.11a1.69,1.69,0,0,0-.27.1l-.55.24a3,3,0,0,1-1.28.26c0,.33.93.74,0,1.16-.08-.17-.18-.45.07-.58-.08,0-.27.21-.46.17l.33-.38c-.45,0-.17.3-.52.34,0-.25-.29-.12-.28-.33.08,0,.32,0,.43-.08a1.92,1.92,0,0,1-1.08-.17.28.28,0,0,1-.21.42c-.72.18-.31-.24-.76-.28-.14.21-.64.13-.58.5-.21,0-.28-.12-.39-.2-.34.24-1.75.42-1.24.72h.1l-.06,0h0c-1.15.62-2.61.33-3.8.75l0-.13c-.72.31-1.53.4-2,.62-.21,0-.41-.3-.29-.43-.41,0-.59.09-.94-.51.47.13,0-.21.44.16-.36-.41-.25-.61-.93-1,.4,0,.09-.62-.16-.89l0,.54a4.52,4.52,0,0,1-.51-.94l.46,0c-.28-1.58-2.09-2-1.89-3.4-.46-.21.21.82-.27.67-.28-.64-.1-1.57-.2-1.76-.26-.95-1-.48-1.32-1.44-.07.19-.37.49-.86-.1-.29-.64.15-1.06.47-.73.09.14.09.23,0,.25.15.17.35.4.36.08h-.17c0-.37-.51-1.21-.18-1.13-.39-.39-.33-.08-.21.3a4.17,4.17,0,0,0-.47-1.06l-.27-.47c-.1-.19-.14-.3-.31-.69,0,.26,0,.51-.12.32-.84-1.9-.64-.57-1.26-1.55-.24-.9.39-.44-.35-1.38-.37-1,0-.8.26-.61a5.84,5.84,0,0,1-1-1.76c-.28-.7-.55-1.48-.77-1.94l.39.47a7.12,7.12,0,0,1-.64-1l.27,1.12a4.64,4.64,0,0,1-.44-1.17c-.09,0,0,.44,0,.8s.07.7-.08.72a1.6,1.6,0,0,0-.15-.35c-.14.46-.24,1.58-.44,1a1.44,1.44,0,0,0,.11-1.1,2.2,2.2,0,0,1,0-1.36,4.33,4.33,0,0,1-.29,1.13,1,1,0,0,1,0-.44c-.65,1.1,0,1.87-.42,3.53-.08-.61-.38-.27-.43.12.2-.77.33.27.3,1.09-.39.84-.18,1.28-.33,1.77l.22-.52a3.78,3.78,0,0,1-.1,1.52c-.18,0,0-.66-.09-.48a1.79,1.79,0,0,1-.33,1.24,1.57,1.57,0,0,0-.38,1c-.24.3-.42-.07-.6.2.08.89-.52.81-.5,1.72.36-.17.3-.23.43.44l.15-1.46.2,1c.11-.42,0-.94.15-1.18.14.49.08.43.37.29-.59.47,0,1.21-.49,1.81l-.73-.21c-.58.93-.07,1.89-.59,3.16l.24-.39c.24.25-.17.82-.15,1.27-.24-.1-.39.15-.59.29.19,0-.26,1,.2,1.2l-.47.5c-.39,1,.4,1.38.06,2.38-.19-.37-.48,0-.5-.68-.09.34-.21.63,0,.68-.2.16.1,1-.21,1.28.07.17.31.28.2.65-.06,0-.12,0-.12,0s0,.64.37.38a3.15,3.15,0,0,0-.84,1.88,5.83,5.83,0,0,1-.25,1,.5.5,0,0,1-.46.36c-.18.43-.67.58-1.41.61,0-.07,0-.12.12-.1-1-.2-.57.74-1.67.52-.58-.38.58-.25.22-.38-.19-.82-1.32.17-2.09-.25l.17-.06c-.59-.25-1.36.42-2.28.45a.15.15,0,0,0,0-.13,8,8,0,0,1-2.62,1c.23-.36.38-.23.16-.53-.38.1.19.51-.58.71-.28-.14-.87-.2-1-.54l.74-.13c-.45-.4-1,.17-1.36.15v-.2c-1.13.26-1.05.76-2.27,1l.15.13c-.55.62-.61-.17-1.19.34l-.31-.45c-.2.11-.79.36-1.23.6s-.92.47-1.3.63c0-.4,1.16-.89,2-1.31-.67.15-2.25.61-2.26.87a1.32,1.32,0,0,1,.7-.28,3.32,3.32,0,0,1-1.89,1.12,4.05,4.05,0,0,0-2.54.17,15.7,15.7,0,0,1-3.52.69,4.46,4.46,0,0,1-.58.29s-.14,0-.14.07l.23.07.43.13c.55.19,1,.38,1.47.58l1.46.63.85.34c.33.12.71.23,1.09.34.27-.71.87.25,1.84-.27.6.13.78.2.77.25a15.16,15.16,0,0,0,1.36.91c.35.35-.72,0-.79.12,1.48.52.47.49,1.46,1,0-.31.42-.29.89,0l-.6-.56c1.35,0,.87,1,2.22.94l-.46.12c.67.06,2.33.73,3.14.32.08.12.17.37-.13.34,1.49.55,3.57.4,4.63,1.13l-.17.15c.3,0,.59-.19.89.1,0,.07-.17.15,0,.2a3.5,3.5,0,0,1,.53,0,.88.88,0,0,0,.21,0,.17.17,0,0,1,.1.06,1.08,1.08,0,0,0-.2.16c.1.17.28.09.53.22a.61.61,0,0,1,.28.8c-.48-.3-1.22.82-1.54,1.4l-.06-.06c-.78,1.8-.63,3.27-.74,5-.81,1-.75,3.63-1,5.41.08-.28.44,0,.51.33-.09.42.47,1.1-.05,1.08v-.15c-.46.36-.27,1.21-.15,1.87h.68a2.78,2.78,0,0,0-.08,1.49,4.15,4.15,0,0,0,.2.77l.17.5c.07.2.13.41.21.58a11.46,11.46,0,0,1,1.23,3.82,3.14,3.14,0,0,1,.24.33l.12.19a1.35,1.35,0,0,0,.2-.21,11.31,11.31,0,0,0,.79-.92l-.08.56c.68-.54,1.21-1,1.81-1.54l.93-.9.49-.49.32-.34,0,.37c.57-.51,0-1.42.47-1.92l.52.24c1-.93,2.26-1.52,2.86-2.78a.29.29,0,0,1,0,.37c.46-.42,2-1.41,1.32-1.79.35.34,1-.92,1.4-1.57l.16.33a2.3,2.3,0,0,1,.57-1.53c.18-.1.33.09.07.2.62-.32.15-.6.86-1l-.06.38c.52-.46.39-.51.48-1s1-.84,1.3-.68a.82.82,0,0,1,.38-.87c.12,0,.07.2,0,.28,1-.62.94-1.52,1.67-1.54a.29.29,0,0,0,.18.14,12.47,12.47,0,0,0-1,.74c.24.22.74-.15.68.52.18-.54.47-1.39.82-1.25a.33.33,0,0,1,.05.12l0,0c.07,0,.12,0,.2,0a1.15,1.15,0,0,0,.29.16c0,.26.46.33.76.52.15-.33.51-.06.29-.52,0,.05-.08,0-.28-.08a.22.22,0,0,0-.13,0l0,0A5.08,5.08,0,0,0,664,646a.54.54,0,0,1,.78.16,4,4,0,0,1,.69-.28c.18.68.89,1.41.84,1.74,1.08.4,2.36,1.23,3.31,1,.32.09.22.35.27.51-.2,0-.38-.16-.52-.13.64.18,1.67.9,2,.57.59.59-.61.15.39.64l-.2,0c.51.74,2.28,1.43,3.25,1.68a7.77,7.77,0,0,1,1.49.52,11.91,11.91,0,0,1,2.21,1.6,4.67,4.67,0,0,1-.58-.53l.71.49a51.45,51.45,0,0,0-1.48-5.16l-.39-1.28c-.13-.43-.19-.66-.27-1a9.65,9.65,0,0,1-.27-1.93c-.08-.78-.39-.78-.74-1.17l.33-.27-.65-.65c-.62-1,.38-2.17-.61-3.39l-.2.25c-.09-.52-.59-1.54-.28-1.54-.06,0-.3-.09-.23-.32l.19-.07-.68-1.14c-.12-1,.82-.07.47-1.47-.22-.49-1-1.31-1.06-1.08s0,.57-.16.64l-.24-.45c-.59.08-1.28-.12-1.36,1.15l.58.71-.21.34-.21-.67c-.15.45.15.63.39.86a.58.58,0,0,0-.21.43l.77.64c-.2.16-.55-.23-.52.33.36.3.4-.49.74.08-.15.46-.4.4,0,.79-.13.11-.25,0-.36-.12.29.35.37,1.05.74,1.17-.21.49.46,1.34-.09,1.45a2.52,2.52,0,0,1,.75,1c-.84-.5.35,1.4-.4,1.41.73.34.77,1.74,1.35,2.54-.06,0-.19-.11-.18-.19a3.15,3.15,0,0,1-.06,1.06.75.75,0,0,1,.65.35l.29.35.15.17.13.07c-.19.21-.36.14-.52.12a1,1,0,0,0-.24,0c-.08,0-.19,0-.28.07.38-.15.47.17.82.17-.28.13-.11.15-.57,0,.36.15.41.21.42.25s0,.07.24.31c-.33,0-.76-.53-.45-.14C674.5,648.49,674.17,648.13,674.18,648.16ZM663,644h0a3.62,3.62,0,0,1,.54-.07A3.63,3.63,0,0,0,663,644Zm-1.79.9c.18-.12.4-.29.68-.45.12.07.11.22,0,.31C661.93,644.6,661.52,644.78,661.25,644.87Zm3,1.72c-.17,0-.19-.1-.19-.17l.29.07,0,0A.57.57,0,0,1,664.28,646.59Z"/><path class="cls-3" d="M664.8,646.32h.09c0-.05,0-.09-.07-.13l-.12.07Z"/><path class="cls-3" d="M673.8,619.37h0l.07,0S673.82,619.38,673.8,619.37Z"/><polygon class="cls-3" points="647.63 656.77 647.58 656.91 647.64 656.82 647.63 656.77"/><path class="cls-3" d="M681.9,618.92s0,.07,0,.09S681.92,619,681.9,618.92Z"/><path class="cls-3" d="M683.24,619.24l-.32.39A3.09,3.09,0,0,0,683.24,619.24Z"/><path class="cls-3" d="M682.3,620.78l.13.07h0Z"/><path class="cls-3" d="M657.53,609.34v0C657.57,609.52,657.56,609.45,657.53,609.34Z"/><path class="cls-3" d="M661.49,613a2.6,2.6,0,0,1-.36-.3C661.22,612.91,661.31,613.07,661.49,613Z"/><polygon class="cls-3" points="654.55 623.02 654.55 623.02 654.53 623.11 654.55 623.02"/><path class="cls-3" d="M660.84,612.14a1,1,0,0,0,.29.54A1.57,1.57,0,0,0,660.84,612.14Z"/><path class="cls-3" d="M675.51,630.43l-.1.08,0,0Z"/><path class="cls-3" d="M675.45,630.56l-.07.14C675.42,630.65,675.46,630.61,675.45,630.56Z"/><path class="cls-3" d="M675.24,631l.14-.3C675.31,630.78,675.21,630.88,675.24,631Z"/><path class="cls-3" d="M678,627.68l-.08-.11A.33.33,0,0,0,678,627.68Z"/><path class="cls-3" d="M678.58,626.76c-.18.19-.61.37-.77.72l.06.09C677.82,627.31,678.61,627.09,678.58,626.76Z"/><path class="cls-3" d="M682.51,623.66l-.58.78c.2-.07.48-.17.28.23C683.19,623.83,681.82,624.72,682.51,623.66Z"/><path class="cls-3" d="M684.25,620.86c-.25.66.21,0,.28.07C684.61,620.47,684.61,620.4,684.25,620.86Z"/><path class="cls-3" d="M667.6,620.06l.13-.31C667.51,619.73,667.68,619.87,667.6,620.06Z"/><polygon class="cls-3" points="664.01 618.23 664.02 618.66 664.37 618.68 664.01 618.23"/><polygon class="cls-3" points="664.89 614.99 665.01 615.12 664.59 614.6 664.89 614.99"/><path class="cls-3" d="M650.49,626.22l.41,0C650.9,626,650.47,625.86,650.49,626.22Z"/><path class="cls-3" d="M636.89,628.59a.72.72,0,0,0-.89,0C636.35,628.6,636.73,628.68,636.89,628.59Z"/><path class="cls-3" d="M644,655.54l-.2-.3c.07.2.16.4.24.59Z"/></g></svg>