<svg id="Capa_1" data-name="Capa 1" xmlns="http://www.w3.org/2000/svg" viewBox="0 0 128.27 30.11"><defs><style>.cls-1{fill:#fff;}.cls-2{fill:#536472;}</style></defs><path class="cls-1" d="M.88,16.76C.49,22.7,3.29,26,9.63,28.06s15,1,21.85.64l72.87-3.59c5.37-.27,10.87-.56,15.8-2.47s6.79-5.86,7.2-10.53c.44-5-2.09-7.88-7.19-10.08S105.77,1.25,100,1.36c-22,.42-42.23,2.17-64,3.26C26.2,5.11,1.76,3.73.88,16.76Z"/><path class="cls-2" d="M9.44,22.91c-.16-1.29-.31-3.05-.43-5.27S8.83,14,8.86,13.32a1,1,0,0,1,.78-.86,8.1,8.1,0,0,1,1.95-.31,5.68,5.68,0,0,1,3.05.6A2.53,2.53,0,0,1,16,15,5.52,5.52,0,0,1,15.77,17,3,3,0,0,1,15,18.3a4,4,0,0,1-2.43.78A11.63,11.63,0,0,1,10.7,19c.21,2.52.32,4.12.35,4.77s-.18,1-.61,1q-.42,0-.54-.12a1.93,1.93,0,0,1-.16-.21,1,1,0,0,1-.09-.2c0-.08-.05-.16-.07-.21a1.18,1.18,0,0,1,0-.26,2.43,2.43,0,0,0,0-.26C9.47,23.35,9.45,23.14,9.44,22.91Zm5-7.82a1.34,1.34,0,0,0-.91-1.17,3.6,3.6,0,0,0-1.8-.34,3.41,3.41,0,0,0-1.32.24c0,.75,0,1.44,0,2.06a15.74,15.74,0,0,0,.17,1.7c.34,0,.58,0,.71.05a8.28,8.28,0,0,0,.85,0,3.09,3.09,0,0,0,.47,0l.47-.08a1,1,0,0,0,.49-.19L14,17a1.09,1.09,0,0,0,.29-.46A4.16,4.16,0,0,0,14.42,15.09Z"/><path class="cls-2" d="M19.53,24.08a.91.91,0,0,1-.63.31c-.24,0-.41-.13-.51-.42-.14-1.67-.25-3.33-.34-5l-.33-4.78a1.94,1.94,0,0,1,1.16-2,5.58,5.58,0,0,1,2.4-.61,3.93,3.93,0,0,1,1.56.26,4.47,4.47,0,0,1,1.54.94,2.07,2.07,0,0,1,.74,1.42,2.76,2.76,0,0,1-.63,1.73,7.56,7.56,0,0,1-1.69,1.7,9.44,9.44,0,0,1-2,1.15A19.22,19.22,0,0,1,24,21.22a4,4,0,0,1,1.43,2.12.63.63,0,0,1-.22.47.89.89,0,0,1-.59.26A.75.75,0,0,1,24,23.8a6.59,6.59,0,0,0-1.71-2,18.6,18.6,0,0,0-2.84-2l.32,3.64A.76.76,0,0,1,19.53,24.08Zm2.67-7.54c1-.73,1.51-1.37,1.48-1.91a1.36,1.36,0,0,0-.87-1.19,3.89,3.89,0,0,0-1.91-.33,4.66,4.66,0,0,0-1.72.36c0,.65.1,2.08.22,4.29A5.93,5.93,0,0,0,22.2,16.54Z"/><path class="cls-2" d="M31.29,11a3.24,3.24,0,0,1,2.31.72c1.27,1,2,2.7,2.11,5.05A7.45,7.45,0,0,1,34,22.37a3.71,3.71,0,0,1-2.34,1.24,3.44,3.44,0,0,1-2.88-1.07,7.54,7.54,0,0,1-1.59-2.68,10.89,10.89,0,0,1-.59-2.93,6.58,6.58,0,0,1,.93-4.06A4.39,4.39,0,0,1,31.29,11Zm0,1.58a3,3,0,0,0-3,2.59,6,6,0,0,0-.1,1.66,8.83,8.83,0,0,0,.51,2.31,4.53,4.53,0,0,0,1.66,2.42,2.23,2.23,0,0,0,1.45.37,2,2,0,0,0,1.46-.83,4.18,4.18,0,0,0,.8-2,10.87,10.87,0,0,0,.11-2.35,7,7,0,0,0-.78-3.19A2.11,2.11,0,0,0,31.25,12.54ZM31,7.27a.45.45,0,0,1,.46-.35.79.79,0,0,1,.61.19.58.58,0,0,1,.23.36.62.62,0,0,1,0,.24,4.78,4.78,0,0,1-.92,1.67c-.45.53-.8.8-1,.82a.79.79,0,0,1-.58-.16.62.62,0,0,1-.22-.43.67.67,0,0,1,.28-.52A3.91,3.91,0,0,0,31,7.27Z"/><path class="cls-2" d="M38,23.33c-.43,0-.65-.15-.67-.51a1.24,1.24,0,0,1,.11-.62l1.36-1.69c.81-1,1.56-2,2.24-2.93q-2.81-3.87-3.58-5.07a1.26,1.26,0,0,1-.12-.49.83.83,0,0,1,.24-.58.86.86,0,0,1,.61-.32.64.64,0,0,1,.58.29q2.07,3,3.33,4.74a42.69,42.69,0,0,0,3.45-5.37,1,1,0,0,1,.88-.62.54.54,0,0,1,.39.12.41.41,0,0,1,.18.34,1.71,1.71,0,0,1-.08.54A60.12,60.12,0,0,1,43,17.34a34.67,34.67,0,0,0,3.26,4.05,1.34,1.34,0,0,1,.18.57.82.82,0,0,1-.24.56.86.86,0,0,1-.6.32.94.94,0,0,1-.6-.16c-.61-.68-1.64-2-3.08-3.93q-1.18,1.58-3.39,4.32A1,1,0,0,1,38,23.33Z"/><path class="cls-2" d="M49.35,10.48a1.34,1.34,0,0,1,.67-.23.48.48,0,0,1,.5.41q.13,2.21.45,6.58c.1,1.79.13,3.3.1,4.54a.73.73,0,0,1-.32.53,1.14,1.14,0,0,1-.62.25.48.48,0,0,1-.57-.52c.06-1.27,0-2.84-.07-4.71L49,11A.82.82,0,0,1,49.35,10.48Z"/><path class="cls-2" d="M61.62,9.21c.31,0,.52.2.63.64.18,2.05.34,4.3.48,6.73s.2,3.85.2,4.23a1.37,1.37,0,0,1-.2.81,1,1,0,0,1-.75.27c-.33,0-.5-.18-.53-.58L61.21,17c0-.69-.09-1.41-.16-2.14s-.11-1.19-.12-1.38a5.46,5.46,0,0,1-1.6,1.91,4.21,4.21,0,0,1-2.33.84,2.76,2.76,0,0,1-2.26-.95c0,.77,0,1.68.11,2.74s.13,2.16.21,3.33a.79.79,0,0,1-.27.71,1.3,1.3,0,0,1-.7.26c-.34,0-.52-.18-.55-.6,0-1.14-.15-2.94-.29-5.41L53,11a1.1,1.1,0,0,1,.18-.64.63.63,0,0,1,.5-.34,1.09,1.09,0,0,1,.55.13.61.61,0,0,1,.29.47,6.85,6.85,0,0,0,.86,3.09,1.73,1.73,0,0,0,1.5.95,3.34,3.34,0,0,0,1.42-.36,4.23,4.23,0,0,0,1-.69,4.3,4.3,0,0,0,.69-1.07,15.84,15.84,0,0,0,.85-2.39C60.9,9.54,61.19,9.24,61.62,9.21Z"/><path class="cls-2" d="M68.1,9a1,1,0,0,1,.82.37A8.3,8.3,0,0,1,69.85,11a54.75,54.75,0,0,1,2.89,9.56c0,.05,0,.12,0,.22a.44.44,0,0,1-.17.31.69.69,0,0,1-.5.19,1,1,0,0,1-.57-.13.79.79,0,0,1-.33-.51c-.07-.24-.19-.72-.37-1.44a10.29,10.29,0,0,0-.75-2.47,5.88,5.88,0,0,0-1.52-.19,15.32,15.32,0,0,0-1.71-.06,1,1,0,0,0-.49.1c-.21.22-.44,1.77-.66,4.67,0,.24-.28.37-.7.4s-.66-.15-.68-.52A25.5,25.5,0,0,1,65,15.89a27.61,27.61,0,0,1,1.38-5.2C66.9,9.59,67.47,9,68.1,9Zm0,2.11c-.19,0-.48.59-.89,1.73a8.46,8.46,0,0,0-.58,2.12.2.2,0,0,0,0,.13,2.87,2.87,0,0,0,1.21.2c.7,0,1.17.05,1.39,0s.36,0,.38-.07a.77.77,0,0,0,0-.31,16.25,16.25,0,0,0-.63-2.06C68.67,11.67,68.36,11.08,68.14,11.09Z"/><path class="cls-2" d="M82.17,8.05c.3,0,.51.19.62.63.18,2.06.34,4.3.48,6.74s.21,3.84.2,4.22a1.3,1.3,0,0,1-.2.81,1,1,0,0,1-.75.27c-.32,0-.5-.17-.52-.58l-.25-4.29c0-.69-.09-1.4-.16-2.14s-.1-1.19-.11-1.38a5.6,5.6,0,0,1-1.61,1.91,4.22,4.22,0,0,1-2.33.85,2.78,2.78,0,0,1-2.26-1c0,.77.06,1.69.12,2.74s.13,2.17.21,3.33a.81.81,0,0,1-.28.71,1.22,1.22,0,0,1-.7.26q-.51,0-.54-.6c-.06-1.14-.15-2.94-.29-5.41l-.31-5.38a1.1,1.1,0,0,1,.18-.64.63.63,0,0,1,.5-.33,1,1,0,0,1,.55.13A.55.55,0,0,1,75,9.4a6.85,6.85,0,0,0,.86,3.1,1.74,1.74,0,0,0,1.5.94,3.34,3.34,0,0,0,1.42-.36,3.53,3.53,0,0,0,.95-.69,3.66,3.66,0,0,0,.69-1.07,14.47,14.47,0,0,0,.85-2.39C81.44,8.37,81.74,8.07,82.17,8.05Z"/><path class="cls-2" d="M85.11,14a.57.57,0,0,1-.29-.48.92.92,0,0,1,.17-.6c-.12-1.26-.22-2.59-.3-4A1.27,1.27,0,0,1,85,8.25a1.31,1.31,0,0,1,.68-.31c1.68,0,3.49-.08,5.43-.19.49.07.74.27.76.58q0,.8-1.5,1l-.91.07-1.24.07c-.24,0-.9,0-2,0,.09,1.58.18,2.67.27,3.26.67,0,2-.09,3.87-.2.46.06.7.26.71.58a.83.83,0,0,1-.5.78.72.72,0,0,1-.21.09l-3.28.13a2.6,2.6,0,0,0-.49.06l.26,3.26a15.35,15.35,0,0,1,0,1.58l4.4-.31q.61.06.63.48a.85.85,0,0,1-.22.58,1.15,1.15,0,0,1-.58.4l-4.85.35a.88.88,0,0,1-.62-.13.74.74,0,0,1-.2-.53,12.56,12.56,0,0,0,0-1.71l-.07-1.33Z"/><path class="cls-2" d="M100.63,7.07a.75.75,0,0,1,.56.23.79.79,0,0,1,.28.58c.28,5,.48,7.93.58,9s.15,1.56.16,1.58a1.5,1.5,0,0,1-.19.8c-.14.26-.3.39-.48.4h-.42l-.26-.06a.48.48,0,0,1-.23-.14l-.2-.17a1.4,1.4,0,0,1-.22-.29l-.22-.34a4.74,4.74,0,0,1-.26-.45c-.12-.21-.38-.65-.78-1.31l-1.08-1.79a29.48,29.48,0,0,0-3-4.18A73.79,73.79,0,0,1,95,19.46c0,.31-.25.47-.68.5a.78.78,0,0,1-.51-.13.56.56,0,0,1-.23-.48c0-.23,0-1.48-.07-3.76s-.07-3.71-.1-4.27,0-.92-.06-1.07c0-.91,0-1.43.12-1.55a.71.71,0,0,1,.43-.2q1-.06,3.38,3.24c.3.42.89,1.32,1.75,2.69s1.38,2.2,1.55,2.52L99.89,9.1c-.07-1.09,0-1.72.25-1.88A1,1,0,0,1,100.63,7.07Z"/><path class="cls-2" d="M103.05,7.18l7.68-.55c.37.1.56.27.58.52,0,.63-.21,1-.73,1-.94.06-2,.14-3,.25,0,1.09,0,1.91.05,2.46s0,.91.06,1.06l.45,6.65c0,.39-.06.63-.26.7a1.75,1.75,0,0,1-.57.11c-.36,0-.58-.18-.64-.59-.13-1-.27-2.79-.42-5.45s-.21-4.27-.16-4.82l-1.18.09L103,8.69a.61.61,0,0,1-.49-.16.67.67,0,0,1-.2-.46.81.81,0,0,1,.21-.55A.87.87,0,0,1,103.05,7.18Z"/><path class="cls-2" d="M112.47,12.45a.53.53,0,0,1-.3-.48,1,1,0,0,1,.18-.6c-.12-1.26-.23-2.59-.31-4a1.31,1.31,0,0,1,.32-.69,1.2,1.2,0,0,1,.67-.3c1.68,0,3.49-.09,5.44-.2.48.08.74.27.75.59q0,.79-1.5,1l-.91.07-1.23.07c-.24,0-.91,0-2,0,.09,1.58.17,2.67.26,3.26l3.87-.2q.69.09.72.57a.8.8,0,0,1-.51.78.63.63,0,0,1-.2.09l-3.29.13a2.6,2.6,0,0,0-.49.07l.26,3.26a15.19,15.19,0,0,1,0,1.57l4.4-.3c.41,0,.62.2.64.47a.89.89,0,0,1-.23.59,1.09,1.09,0,0,1-.57.39l-4.86.35a.86.86,0,0,1-.61-.12.7.7,0,0,1-.2-.53,14.65,14.65,0,0,0,0-1.72l-.08-1.32Z"/></svg>