<?xml version="1.0" encoding="utf-8"?>
<!-- Generator: Adobe Illustrator 26.1.0, SVG Export Plug-In . SVG Version: 6.00 Build 0)  -->
<svg version="1.1" id="Capa_1" xmlns="http://www.w3.org/2000/svg" xmlns:xlink="http://www.w3.org/1999/xlink" x="0px" y="0px"
	 viewBox="0 0 1353.2 553.6" style="enable-background:new 0 0 1353.2 553.6;" xml:space="preserve">
<style type="text/css">
	.st0{fill:#99D6D5;}
</style>
<path class="st0" d="M87.2,405.4c-0.3,0.2-0.7,0.3-1,0.5c-0.6,0.4-1.3,0.8-1.9,1.2s-1.2,1-1.8,1.5l0,0c0.2-0.1,0.3-0.2,0.4-0.3
	c0.1-0.1,0.3-0.2,0.4-0.3l0,0l-0.8,0.7l-0.6,0.6c-0.3,0.3-0.6,0.5-0.9,0.8c-0.7,0.6-1.4,1.3-1.9,2.1l0.3-0.6c-0.5,0.9-1,1.8-1.6,2.5
	l0,0c-0.2,0,0.7-1.2,1-1.9c-0.3,0.5-0.9,1.2-1.3,1.9s-0.4,0.9-0.4,0.9s0.1,0,0.1-0.1c-0.6,1.2-1,1.5-1.3,2.1l0,0
	c0.1-0.1,0.1-0.2,0.2-0.3c0.1-0.1,0.2-0.3,0.2-0.3s0,0.1,0,0.3c-1.1,2-1.9,4.2-2.3,6.4l0,0l0,0l0,0c0,0,0,0,0-0.1
	c0,0.6-0.1,1.2-0.2,1.7c-0.1,0.2-0.1,0.5-0.2,0.9c0,0.5,0,1,0,1.5c0,0.4,0,0.8,0,1.3s0.1,0.9,0.2,1.3c0.1,0.5,0.1,0.9,0.2,1.3
	c0.1,0.4,0.2,0.9,0.4,1.3s0.3,0.9,0.4,1.3l0.2,0.5c0,0.1,0.1,0.3,0.1,0.3l0,0v0.1l-0.1,0.1l0,0l0,0h-0.1l-0.2,0.1l-2.2,0.5l-2.2,0.3
	l-2.1,0.1c-1.6,0.3-3.2,0.5-4.8,0.5l-0.2-0.4l-1.5,0.1c-0.6-0.1,1.2-0.1,0.1-0.2l-0.6,0.2c-0.1-0.1-4-0.1-1.4-0.4h-0.7
	c-1.8,0-3.6,0-5.4,0.1c-1.4,0.1-0.8,0.4-2.3,0.4c-0.3-0.1,0.5-0.1,0.4-0.2c-1.7,0-3.3,0.3-4.9,0.9L46,437l-1,0.4
	c-0.4,0.1-0.8,0.3-1.2,0.4s-0.9,0.3-1.4,0.5l0.3-0.2c-0.3,0.2-0.9,0.4-1.3,0.6c-0.3,0.1-0.5,0.3-0.7,0.4h0.1c0.2,0,0.5-0.1,0.6-0.3
	c0.4-0.3,0.8-0.4,1.3-0.5c0,0.3-1.5,0.7-1.3,0.9c-0.8,0.3-1.5,0.7-2.2,1.2c-0.8,0.4-1.5,0.8-2.2,1.3c-0.7,0.5-1.4,1.1-1.9,1.4
	c-0.5,0.6-0.9,1.4-1.9,2.6c-0.3,0.2-0.4,0.3-0.4,0.3s0,0,0,0l0,0c0,0-0.1,0.1-0.6,0.6v0.3c-0.5,0.7-0.6,0.8-0.7,0.8s0,0,0-0.1l0,0
	c-0.8,1.1-0.4,1.1-1.4,2.5c0.1-0.3,0.2-0.6,0.3-0.9c-0.6,1.1-0.9,1.5-1.6,3.1c-0.1-0.1,0.2-0.7,0.5-1.1c-0.7,0.7-0.6,1.5-0.9,2
	c0.1-0.1,0.5-0.8,0.6-0.8s0,0,0,0.2c-0.2,0.4-0.4,0.8-0.5,1.2c-0.1,0.4-0.3,0.7-0.5,1l0.2-0.9c-0.3,0.9-0.3,1.1-0.4,1.4
	s-0.2,0.5-0.6,1.5c0-0.1,0-0.1,0-0.1c-0.2,0.7-0.4,1.4-0.6,2.1c-0.1,0.4-0.3,0.8-0.4,1.2s-0.2,0.9-0.4,1.3v-0.4
	c-0.1,0.8-0.1,1.2-0.2,1.6c0.2-0.7,0.3-0.8,0.4-0.8h0.1c-0.3,0.6-0.4,1.2-0.4,1.9c0,0.9-0.1,1.7-0.3,2.5c-0.1-0.4-0.1-0.8,0.1-1.2
	c-0.3-0.8-0.4-1.6-0.3-2.4c0,0.6-0.1,1.2-0.3,1.7l0,0l0.2,0.3c-0.1,0.5-0.1,0.9-0.2,1.3l0,0c0,0,0.1-0.1,0.2-0.2s0.1-0.2,0.1-0.2
	s0.1,0.1,0,0.5c-0.1,0.8-0.2,0.9-0.2,0.9l0,0l0,0l0,0c0.1,0.9,0.1,1.8,0,2.6c0-0.2,0-0.4,0-0.6c-0.1,0.6-0.1,1.4-0.2,2
	c0,0.5-0.1,1-0.3,1.5c-0.1-0.2-0.2-0.5-0.1-0.7h0c0-0.1,0-0.3-0.1-0.4c0,0.2,0,0.4,0,0.6c0,0.3,0,0.6-0.1,0.6l0,0
	c0.1,0.3,0.1,0.6,0,0.9c0,0.6,0,1.2,0,1.6l0.2-0.3c0.3,1.2,0.3,1.3,0.1,1.3h-0.1h-0.1c-0.1,0-0.3,0.2-0.2,1.3c0,0.2,0.1,0.4,0.1,0.7
	c0-0.1,0-0.2,0-0.3c0-0.1,0-0.2,0-0.3c0,0,0,0.1,0.1,0.3c0,0.6,0,1,0,1.5c0,0.6,0.1,1.3,0.2,1.9c0,0.5,0,1.5-0.2,1.6
	c0.1,0.5,0.3,1.3,0.4,2.1c0.1,0.6,0.3,1.1,0.5,1.7c-0.3-1.8-0.7-1.7-0.8-3.9c0.1,0.2,0.2,0.4,0.3,0.5c0.2,1.5,0.8,3.2,1,4.2
	c0-0.1,0-0.2,0-0.2s0,0,0.1,0c0.4,1,0.6,1.6,0.9,2.2c0.3,0.7,0.6,1.4,0.9,2.2c0,0,0,0.1,0,0.1c-0.3-0.5-0.6-1.1-0.8-1.7
	c0.1,0.5,0.2,0.9,0.4,1.4c0.2,0.4,0.4,0.9,0.8,1.8l0,0c-0.1,0-0.5-1.3-0.8-1.4c0.3,0.7,0.6,1.4,1,2l0,0c0.4,0.1,0.7,1.6,1.6,2.7
	c1.8,2.8,2.5,2.9,3.9,4.1c0.2,0.3,0.3,0.5,0.2,0.5h-0.1c-0.5-0.7-0.5-0.5-0.7-0.6c0.7,0.7,1.3,1.7,1.1,1.7c-0.1,0-0.1,0-0.1-0.1
	c0.2,0.2,0.3,0.3,0.5,0.4c0,0-0.1-0.1-0.2-0.2s-0.2-0.2-0.1-0.2c0.1,0,0.2,0.1,0.2,0.2c0.6,0.5,1.2,1.1,1.9,1.6
	c-0.1-0.2-0.4-0.5-0.3-0.5c0.2,0.1,0.4,0.2,0.6,0.3c0.9,0.6,1.3,1,2.5,1.6l0,0c0,0,0,0,0,0.1s0,0.1,0,0.1c-0.2-0.1-0.4-0.1-0.5-0.3
	c0.6,0.5,1.2,0.8,1.9,1c-0.2-0.1-0.3-0.2-0.3-0.2c0.3,0.1,0.6,0.2,0.8,0.3c0.3,0.1,0.6,0.2,0.9,0.3c0.1,0,0,0-0.1-0.2
	c0.4,0.2,0.9,0.4,1.4,0.7c-0.3-0.1-0.6-0.1-0.9-0.2c0.3,0.4,1.2,0.4,1.7,0.5c0.7,0.2,1.3,0.4,1.9,0.7l0,0c0.6,0.1,1.2,0.2,1.8,0.4
	h0.2c0.3,0-0.1-0.2,0.1-0.2c0.8,0.1,1.6,0.2,2.4,0.2c0.1,0.1,0.3,0.5-0.1,0.5c0.9,0,0.4-0.3,1.4-0.3h0.3c-0.8,0.2,1.7,0.2,0.6,0.5
	c1.1,0.2,2.2,0.2,3.3,0.2h0.8c0.7-0.2-1.3-0.1-1.2-0.4h0.1c1,0,2-0.1,3.1-0.2c0.7-0.2,1.5-0.2,2.2-0.2H62l-0.6-0.1
	c0.8,0,1.5-0.1,2.2-0.2c-0.4,0.2,1.4,0.6,3.5,0.6h0.7c0.2-0.1-1.4-0.2-1-0.4l1.7-0.1c0.1,0-0.1,0.1-0.3,0.1c0.2,0,0.4,0,0.5,0
	c0.4,0,0.8,0,1.2,0s0.7,0.1,0.9,0.1c0.2,0,0.4,0,0.6-0.1L73,509l-0.6-0.1c0.7-0.1,1.5-0.2,2.2-0.3c0.6-0.1,1.1-0.1,1.7-0.1
	c0.5,0,1.1,0,1.6,0.1c-0.3-0.1-1-0.3,0.3-0.4c0,0.2,0.4,0.2,1,0.2h1.3c0.3,0,0.5,0,0.5,0.1h0.8c0.4,0,0.7,0,0.7-0.1l-0.1,0.3
	c0.1-0.4,2.1-0.5,3.6-0.6c-0.1,0.2,0,0.2,0.3,0.2h0.6h0.3V506c-0.4,0-0.8,0.1-1.2,0.1c-0.6,0.1-1.2,0.1-1.8,0.1c-0.3,0-0.6,0-0.9,0
	l0.3-0.1l-0.8,0.1c-0.1-0.1,0.2-0.1,0.2-0.2l-4,0.1l0.8,0.1c-0.7,0-1.2,0.2-1.9,0.2h-0.4c0.5-0.1,0.6-0.1,0.3-0.1h-0.6h-0.8
	c-0.2,0-0.4,0-0.5-0.1l0.8-0.1c-1.2,0.1-1.2,0-1.1,0.2h-0.4c-0.2,0-0.5,0-0.7-0.1c-0.2-0.1-0.4-0.1-0.6-0.1c-0.2,0-0.5,0-0.7,0.1h1
	c0.3,0.1-0.4,0.3-1.1,0.3c-0.2,0-0.6-0.1-0.2-0.1c-1.2,0.1-2.9,0.1-3.4,0.1s-0.4-0.2-0.1-0.2c-1,0.1-1.4,0.1-1.6,0.1h-0.4
	c-0.3,0-0.7,0-1.6,0.1v-0.1l-0.9,0.1l-1.2-0.2l0.4,0.1c-0.6,0-1,0-1.5,0c-0.2,0-0.5,0-0.8,0l0.4-0.1h-0.6c-0.7,0-1.2,0-1.6-0.1
	s-0.9-0.1-1.4-0.1c-0.4,0-0.8,0-1.3,0.1c-0.2,0,0.2-0.1,0.4-0.1c-0.3,0-0.6,0-0.9,0c-0.3,0-0.6,0-0.9-0.1c-0.3-0.1-0.6-0.1-0.9-0.1
	c-0.3,0-0.7,0-1,0.1c0.1,0-0.1-0.1,0-0.2l-1,0.1l0.1-0.2l-0.8,0.3l-0.6-0.2l-0.4,0.1c-0.5-0.2-1.1-0.3-1.7-0.4
	c-0.3,0-0.6-0.1-0.9-0.1c-0.3-0.1-0.6-0.2-0.9-0.3l0.2,0.3c-0.4,0-0.8,0-1.3-0.1c-0.4-0.1-0.9-0.2-1.3-0.3c-0.2-0.1-0.5-0.1-0.7-0.2
	l-0.7-0.3c-0.4-0.2-0.8-0.4-1.2-0.6c-1.7-0.9-3.4-2-4.9-3.2l0.2-0.1c-0.4-0.3-0.9-0.6-1.3-0.9c-0.1-0.2-0.2-0.3-0.1-0.3
	c0.1,0,0.2,0.1,0.2,0.2c0.1,0.1,0.2,0.1,0.2,0.1c0,0,0,0,0,0c-0.3-0.3-0.6-0.6-1-0.8c-0.4-0.3-0.8-0.6-1.1-1
	c-0.2-0.2-0.2-0.3-0.2-0.3s0.6,0.6,0.9,0.9c-0.7-0.8-1.4-1.6-2.1-2.5c-0.3-0.4-0.6-0.9-0.9-1.3c-0.2-0.4-0.4-0.7-0.6-1.1h-0.1
	c-0.7-1.3-1.4-2.6-1.9-4l0,0c0.1,0,0.2,0.3,0.4,0.6c-0.1-0.5-0.3-1-0.6-1.5l0.4,0.4c-0.1-0.3-0.2-0.6-0.3-0.9l-0.3-1
	c-0.2-0.4-0.3-0.9-0.3-1.4c0,0,0,0,0,0s-0.2-0.2-0.4-0.9c0-0.6-0.1-1.1-0.3-1.6c-0.1-0.4-0.2-0.8-0.3-1.2c-0.1-0.4-0.1-0.8-0.2-1.2
	c0.1,0.3,0.2,0.7,0.2,1l0,0c-0.1-0.7-0.2-1.4-0.5-2.1l0.2,0.2c-0.2-1.2-0.4-2.4-0.5-3.5c0.2-0.5-0.1-3.1,0-3.1l0,0
	c0-0.1,0-0.3,0-0.4c0,0.1,0,0.1,0,0.2c0,0.1,0,0.2-0.1,0.2c0-0.2,0-0.4,0-0.6c0.1-0.4,0-1.4,0.1-1.4l0,0v0.2c0-0.4,0-0.8,0-1.1
	l0.1,0.7c0.1-0.6,0-1.2-0.3-1.7c0.1-0.9,0.2-1.8,0.5-2.6c0,0.1,0,0.2,0,0.3c0.3-2.6,1.2-4.1,1.4-6.1c0,0,0-0.1,0.1-0.1s0,0.1,0,0.2
	c0.1-0.5,0.3-1,0.4-1.4v0.4l0.2-1.3l0.3-1.3l0.1,0.1c0.8-2,1.7-4,2.7-5.9l-0.1,0.3c0.3-0.7,0.7-1.3,1.2-1.9c0.3-0.4,0.6-0.7,1-1.4
	l-0.1,0.2c0.3-0.4,0.6-0.8,1-1.2l-0.1,0.3c0.3-0.5,0.8-1,1.3-1.4c0.3-0.2,0.6-0.4,0.6-0.4l-0.1,0.1c0.4-0.5,1.1-1.2,1.2-1.5
	c0.6-0.4,0.7-0.5,0.8-0.5l0,0h0.1c0.1,0,0.3-0.1,0.4-0.2c0.5-0.3,0.7-0.5,1.1-0.7c0.5-0.3,1-0.5,1.5-0.7v0.1
	c0.7-0.3,1.1-0.5,2.1-0.9l-0.3,0.1c0.6-0.2,1.2-0.4,1.8-0.5c0.6,0,1.1-0.2,1.6-0.5c0.5-0.1,1.3-0.2,1.8-0.2c0.2,0,0.4,0,0.3,0.1
	c2.1-0.3,4.2-0.6,6.3-0.6c0.1,0.1,0.2,0.2,0.4,0.1h0.3c0.2,0,0.3,0,0.5,0c0.3,0,0.5,0,0.8,0.1l-0.1-0.2H59c1.2,0,2.4,0.1,3.7,0.1
	s2.6,0.1,3.9,0.1c1,0,2,0,3-0.1l0.1,0.2l0.7-0.2c0.7,0,1.3-0.1,2-0.2l1.1-0.1l1.1-0.2l1-0.2c0.4-0.1,0.9-0.2,1.3-0.3
	c2.7-0.7,4.3-3.4,3.6-6.1c0-0.1,0-0.1-0.1-0.2c-0.1-0.4-0.1-0.5-0.2-0.8s-0.1-0.4-0.2-0.6c-0.1-0.4-0.2-0.6-0.3-0.9l-0.6-1.5
	c-0.2-0.7-0.3-1.3-0.3-2v0.1c-0.3-2.6,0.2-5.3,1.3-7.7c0,0.1,0.1,0,0.1,0.1c0.2-0.7,0.5-1.3,0.9-1.9c-0.2,0.2-0.3,0.4-0.4,0.5
	c0.2-0.8,0.7-1.4,1.2-2l0.6-1.1l0.2-0.1v-0.2c0.2-0.1,0.4-0.3,0.6-0.4c0.2-0.3,1.2-1.6,1.4-2.1c0.1,0,0.6-0.4,0.6-0.4s0,0.1-0.2,0.3
	c0.6-0.6,1.2-1.1,1.8-1.5v-6.1"/>
<path class="st0" d="M142.9,502.8c-1.4,0.1-2.9,0.3-4.2,0.7c0.1,0,0.2,0,0.2-0.1c-0.5,0.1-0.9,0.2-1.4,0.2c-1.1,0,0.9-0.2,0.6-0.3
	l-1.8,0.1l0,0l0,0c-0.3,0.1-0.6,0.1-0.9,0.1c-0.1,0-0.2,0-0.2,0c0.5-0.2,0.7-0.3,1.1-0.4l-1.9,0.4c0.2-0.1-1.6-0.1-0.2-0.3l-2.8,0.3
	l-0.3-0.2c-0.5,0.1-0.6,0.1-0.3,0.1h0.3c-0.8,0-2.6,0.4-3.4,0.4c-0.3,0-0.4,0-0.3-0.2c-2.2,0.4-3,0.4-5.7,0.7c2-0.4-2.4-0.1-0.2-0.4
	l0,0c-0.8,0.1-1.7,0.2-2.5,0.4c-0.9,0-0.6-0.3,0.4-0.5l-1.1,0.2v0l-1,0.2c-1,0-0.4-0.2-1-0.2H116l-0.2,0.2l-0.8-0.1
	c0.3,0.1-0.4,0.2-1.2,0.3v0l-1,0.1c0.4-0.1,0.3-0.1,0.2-0.1h-0.5c-0.2,0-0.3,0-0.2-0.1c-0.9,0.1-0.9,0.1-2.4,0.2l0.3,0.1
	c-0.3,0.1-0.6,0.1-0.9,0.1c-0.2,0-0.2-0.1-0.2-0.1s0-0.1-0.3-0.1h-0.4l0.1,0.2h-0.6c-0.9,0-1.8,0.1-2.6,0.2
	c-0.8,0.1-1.5,0.2-2.3,0.2h-0.2c0.9-0.1,0.8-0.3,0.7-0.3l0,0c-1.5,0.2-4,0.3-5.5,0.6c-0.7-0.3-1.5-0.4-2.3-0.3
	c-0.6,0-1.2,0.1-1.7,0.3h-0.3c-0.4,0-1,0-1.5,0.1s-1,0.1-1.3,0.1s-0.4,0-0.4-0.1l0,0c-0.2,0.2-1,0-1.6,0.2l-0.1-0.1l0.1,0.2
	c-0.3-0.1-0.7-0.1-1-0.1h-0.5v2.3h0.4c0.3,0,0.5,0,0.8,0.1c0.3-0.3,2.7-0.3,2.9-0.6c0.1,0,0.2,0,0.4,0c0.8,0,0.7,0.2,1,0.3l0.5-0.1
	c0.4,0,0.7,0.1,1.1,0h1.5h1.4h0.1l1.2-0.4l0.4,0.1c0.2-0.1,1.2-0.2,0.6-0.3h0.7c0-0.3,0.9-0.1,2.2-0.4c0.3,0,0.2,0.1,0,0.2h0.2
	c0.4,0,0.2,0.1,0.5,0.2c-0.2-0.1,2.3-0.7,0.6-0.7c-0.1-0.1,0.8-0.3,1.5-0.3l0,0l0.4,0.3l0.8-0.4c0.3,0,0.5-0.1,0.8,0
	c0.2,0,0.4,0,0.6,0h0.6h0.2c-0.7,0.1-1.6,0.5-0.3,0.5h0.7c-1.1,0.1-1.7,0.3-2.2,0.4h0.3c0.2,0,0.2,0-0.3,0.2
	c1.7-0.2,0.5-0.2,2.2-0.4c-0.1,0.2,0.2,0.3,1.2,0.3h0.7l-1.1-0.1l0.2-0.1h-0.1c-0.3,0-0.4,0-0.5-0.1c0.3,0,1.5-0.4,2-0.4l0,0
	c-1.3-0.2,3-0.5,1.9-0.7c0.4-0.1,0.7-0.1,1.1-0.1c0.1,0,0.3,0,0.4,0c-1.4,0.3,1.1,0.2,0.8,0.4c0.5-0.1-1.1-0.1-0.4-0.2h0.6
	c0.4,0,0.8,0,1.3,0l-0.3,0.1h1.3c0.2-0.1-1.3-0.1-0.1-0.3h0.1h0.6h0.6c0.1,0,0.2,0,0.2,0c-0.5,0.2-0.1,0.4-1.1,0.5
	c0.8-0.1,3.5-0.3,2.4-0.5l1-0.1c-0.6-0.1-2.4-0.1-0.4-0.3v0l1.4-0.3l0.6,0.1c0-0.1,0.2-0.1,0.7-0.2c0.1,0.1,0.6,0,0.6,0.2
	c1.5-0.1,1.4-0.2,1.6-0.3c0.2,0,0.5,0,0.7,0c0.3,0,0.3,0,0.1,0.2c1,0,2.5-0.2,3.5-0.2h0.4c1.5-0.2-0.3,0,0.6-0.3
	c0.4,0.1,0.8,0.1,1.2,0.1c1.7,0,4.4-0.4,6.3-0.6c-0.7-0.3,0.6-0.1,1.1-0.4c0.1,0.1,2.2,0.1,0.3,0.4l1.3-0.1c0.9,0.1-2.2,0.3-0.8,0.5
	c1.4-0.3,2.7-0.5,4.1-0.6h0.1c-0.1,0.1-0.1,0.1,0,0.1h0.4c0.1,0,0.3,0,0.4,0c0.1,0,0.2,0,0.1,0.1c-0.4,0.1-0.9,0.2-1.3,0.2h0.3
	c3.3-0.1,0.9-0.4,2.6-0.7c0.4,0,0.7,0,1,0c0.9,0,0.6,0.2,0.8,0.3h0.2c0.5,0,1-0.1,1.6-0.2c-0.3,0-0.5,0.1-0.8,0.1
	c-0.7,0-1.2-0.2-0.8-0.3c0.3,0.1,0.5,0.1,0.8,0.1c0.9,0,1.8-0.2,2.7-0.4c-0.8,0-1.2-0.1-1.6-0.1h-0.7h-0.7c-0.4,0-0.8,0-1.6-0.1
	c-0.4,0.1-0.3,0.4-1.8,0.4h-0.1c1-0.2-0.1-0.1-0.4-0.2c0.3,0.1-1.1,0.1-1.6,0.2c-0.4-0.1,0.8-0.4-0.4-0.4h-0.3l-0.3,0.4
	c-0.5,0-0.1-0.2-0.4-0.2c-0.2,0-0.4,0-0.6,0.1c0.7-0.2-0.2-0.3,1.6-0.5c-0.3,0-0.5,0-0.8,0 M102.3,402h-1.5c-0.4,0-0.9,0.1-1.4,0.1
	s-1,0-1.4,0.1l-1.5,0.2c0.1,0,0,0-0.1,0c-0.4,0-0.8,0.1-1.2,0.2c-0.3,0.1-0.7,0.1-1,0.2c-0.2,0-0.2,0,0-0.2
	c-1.2,0.3-1.2,0.4-0.9,0.4h0.1c0.3,0,0.8,0,0.2,0.3c-0.5,0.2-1,0.3-1.5,0.5H92c0.3-0.2-0.6,0-0.1-0.2l-0.8,0.3l-0.8,0.4l0,0
	c-0.1,0,0.2-0.2,0.4-0.3c-0.4,0.2-0.8,0.4-1.2,0.6s-0.8,0.3-1.1,0.5s-0.7,0.4-1.1,0.6v6.1c0.6-0.4,1.2-0.9,1.8-1.2l-0.6,0.3
	c-0.1,0,0.1-0.3,0.5-0.6c0.3-0.3,0.7-0.5,1.1-0.6c-0.3,0.3-0.4,0.3-0.2,0.3s0.5-0.1,0.7-0.2s0.2-0.1,0.1-0.1l-0.2,0l-0.2,0
	c0,0,0,0,0-0.1c0.8-0.6,1.6-1,2.6-1.3l-0.4,0.2c0.4-0.2,0.8-0.3,1.2-0.3c0.4,0,0.8-0.1,1.3-0.2c0.9-0.3,1.6-0.4,1.4-0.6
	c0.2-0.1,0.5-0.1,0.7-0.1c0.2,0,0.2,0,0.2,0.1s0,0.1,0.1,0.1l0,0c0.5-0.1,1-0.2,1.5-0.2c0.4,0,0.9,0,1.3,0.1c0.3-0.2,0.7-0.2,1-0.2
	c0.4,0,0.8,0,1.2,0.1c0.6,0,1.2,0.2,1.5,0.2c0.2,0,0.3,0,0.3-0.1c0.4,0.1,0.7,0.2,1.1,0.4c0-0.1,0.2-0.2,0.7-0.2c0.2,0,0.4,0,0.6,0
	c0.8,0.3,0.6,0.4,0.8,0.6l0.7-0.2c2.7,0.9,5.3,2,7.8,3.4c2.6,1.4,5,3.2,7.2,5.3c2.2,1.8,4.3,4,6,6.3l-0.2-0.2
	c0.6,0.8,1.1,1.6,1.7,2.5c-0.4-0.6-0.8-1.2-1.1-1.9c0.4,0.5,0.8,0.9,1.1,1.4c1.8,2.8,3.8,6.6,5.8,10.2c0.5,0.6,0.8,1.3,0.9,2
	c0.1,0.7,0.4,1.4,0.8,2c-0.1-0.2-0.2-0.2-0.3-0.4c1.2,2.5,1.9,3.8,3.1,6.3l0,0c-0.1,0-0.1,0.1-0.1,0.2c0,0.1,0,0.2,0.1,0.3l0.2,0.5
	c0.2,0.4,0.4,0.9,0.5,1.4l0,0l0.3,0.3c0.1,0.5,0.5,1.5,0.7,2.2l0.1,0.3v0.1l0.1,0.1l0.4-0.1h0.2c0.1,0,0.1,0,0,0l2.2-0.9l0.2,0.1
	l1.2-0.4l1.2-0.4c0.6-0.2,1.2-0.5,1.8-0.7c0.9-0.4,1.8-0.7,2.7-0.9c3.7-1.9,9.4-5,13.7-5.5c0.4-0.1,0.8-0.2,1.3-0.3
	c0.2,0,0.5,0,0.7,0h0.8c0.3,0.1,0.7,0.2,1,0.3c0.2,0,0.5,0,0.7,0l0.7,0.1c0.2,0,0.5,0.1,0.7,0.1c0.2,0.1,0.4,0.2,0.6,0.3h-0.1
	c0.9,0.4,1.6,1,2.5,1.4c0.8,0.6,1.4,1.4,1.3,1.5c0.4,0.2,0.7,0.5,0.9,0.9c0.2,0.3,0.5,0.7,0.7,1c0,0,0.6,0.7,1.7,2.2
	c1.5,2,2.9,4.1,4.2,6.3c1.9,3.1,3.3,6.4,4.4,9.8c0.6,1.9,1,3.9,1.3,5.9c0.2,2.1,0.2,4.2,0,6.3c-0.2,2.1-0.7,4.2-1.5,6.2
	c-0.8,2-1.8,3.8-3.2,5.4c-1.3,1.6-2.9,3-4.6,4.2l-0.6,0.5l-0.7,0.4c-0.4,0.2-0.9,0.5-1.3,0.8c-0.9,0.5-1.8,0.9-2.8,1.3
	c-3.5,1.4-7.1,2.4-10.8,3.1c-3.3,0.6-6.1,1.1-8.1,1.5l0,0c-0.5,0.2-2,0.4-1.4,0.6c-0.2,0-0.4,0-0.7,0c-0.2,0-0.4,0-0.6,0h-0.4
	c-0.1,0-0.2,0-0.3,0.1c1.6,0-0.5,0.5,1.1,0.6l-1,0.1l0,0h0.4c0.2,0,0.4,0,0.5,0c0.1,0,0.2,0,0.1,0.1l0.2-0.3c0.5,0,1.1,0,1.6,0.1
	c0.9-0.4,1.9-0.6,2.9-0.6h0.1l-0.5,0.1c0.3,0,0.5,0,0.7,0c0.6,0,0.3,0.2,0.6,0.2h-0.3h1.3l0,0c-0.5,0-0.9,0.1-1.4,0.1
	c-0.4,0.1-0.6,0.2-0.5,0.2h0.2c1.8-0.1-0.5,0,0.9-0.2h0.4c0.4,0,0.2,0.1,0.2,0.2l1.5-0.2c0,0.2-1,0.1-0.4,0.2
	c0.6-0.1,1.2-0.2,1.8-0.4c0.1,0.1,0.2,0.1,0.3,0.1c0.4,0,0.7-0.1,1.1-0.2c0.4-0.1,0.8-0.2,1.2-0.2c0.1,0,0.2,0,0.3,0
	c-1.3,0.3,0.1,0.1,0,0.3l1.6-0.3l1.6-0.4l0,0c0.1,0,0,0.1-0.2,0.1l-0.3,0.1h0.1c0.5-0.1,0.9-0.2,1.3-0.4l0,0c0.3-0.1,0.7-0.1,1-0.2
	c0.4-0.1,0.8-0.2,1.2-0.2c0.1,0,0.1,0,0.1,0.1c0.5-0.1,1-0.3,1.5-0.6c0.2-0.2,0.4-0.3,1.4-0.6c0.2,0-0.2,0.2-0.5,0.3
	s-0.4,0.2-0.3,0.2h0.2l2-0.9c-0.3,0.3-0.7,0.5-1.1,0.7c2.4-0.8,4.8-1.8,7-3c1-0.6,2-1.2,2.9-2c0.5-0.4,0.9-0.8,1.4-1.3
	c0.5-0.5,0.9-1,1.3-1.6c0.1-0.1,0.2-0.1,0.2-0.1s-0.5,0.8-0.8,1.2c0.6-0.9,1.2-1.5,1.7-2.2c0.2-0.3,0.5-0.6,0.7-0.9l0.6-0.9
	c0.9-1.2,1.6-2.6,2.1-4l-0.1-0.1c1.1-2.5,1.7-5.1,1.9-7.8c0.2-2.8,0-5.7-0.4-8.5v0.7c-0.2-0.4-0.3-0.9-0.4-1.4
	c-0.1-0.5-0.3-1-0.4-1.4l0,0h0.1h0.1c0.1,0,0.1-0.2-0.2-1c0.1,0.3,0.1,0.6,0.1,0.9l0,0c-0.3-1.5-0.6-2.9-1.1-4.3
	c-0.6-1.8-1.3-3.5-2.2-5.2c-1.8-3.7-3.9-7.2-6.3-10.5c-1.6-2.2-3.5-4.2-5.5-6c-1.1-1-2.4-1.8-3.8-2.4c-0.3-0.2-0.7-0.3-1.1-0.5
	s-0.7-0.2-1.1-0.4l-1.1-0.3l-1.1-0.2c-0.8-0.1-1.6-0.2-2.4-0.2c-2.1,0-4.2,0.4-6.3,1c-2.5,0.8-4.9,1.8-7.3,3
	c0.2-0.1,0.5-0.2,0.8-0.3c0.2,0-0.2,0.4-0.9,0.6c-3.1,0.7-4.7,2.4-7.7,3.1l-0.5,0.2l-0.2,0.1h-0.1l0,0l-0.1,0h-0.1h-0.1l-0.1-0.2
	l0,0l0,0v-0.1l-0.1-0.1l-0.2-0.5l-0.3-1c-0.9-2.5-2-5-3.3-7.4l0.1-0.2c-0.2-0.6-0.5-1.1-0.9-1.7h0.1c-0.8-1.9-2.1-3.9-2.6-5H138
	c-0.6-1-0.2-0.6-0.9-1.6h0.1c-0.3-0.4-0.6-0.8-0.9-1.1c0.2,0-0.3-0.8-0.8-1.6s-1.3-1.7-1.5-2.1c-1-1.2-2.9-3.5-4.5-5.3
	c-0.4-0.6-0.8-1.1-1.3-1.6c-0.7-0.7-1.6-1.6-2.3-2.3c-1.7-1.4-3.4-2.7-5.2-3.8c-2.1-1.3-4.2-2.4-6.4-3.4v0.2l-1.2-0.4
	c0,0-0.1-0.1,0-0.1h0c-0.2-0.2-0.5-0.3-0.8-0.4c-0.3-0.1-0.7-0.2-1-0.3c-0.7-0.2-1.4-0.4-1.9-0.6c0.5,0.2,1,0.4,1.5,0.5
	c0.4,0.2,0.4,0.3,0.3,0.3c-0.6-0.1-1.1-0.2-1.6-0.4l0,0l-0.9-0.1c-0.1-0.2-0.9-0.5-0.9-0.7C105.9,402.2,104.1,402,102.3,402"/>
<path class="st0" d="M145.6,134.5L145.6,134.5L145.6,134.5 M151.6,133.9h0.1H151.6 M123.5,133.8L123.5,133.8 M157.7,131.9
	L157.7,131.9 M180.9,131.7L180.9,131.7 M180.9,131.7L180.9,131.7 M180.9,131.7L180.9,131.7 M180.9,131.7L180.9,131.7 M172.1,131.6
	L172.1,131.6L172.1,131.6 M183.1,130.2L183.1,130.2L183.1,130.2 M91.3,118.7L91.3,118.7L91.3,118.7 M87.3,108.8L87.3,108.8
	L87.3,108.8L87.3,108.8 M87.8,106.1C87.8,106.1,87.8,106.2,87.8,106.1C87.8,106.2,87.8,106.1,87.8,106.1 M87.8,102.6L87.8,102.6
	L87.8,102.6 M91.5,100.5L91.5,100.5 M199.7,88.2L199.7,88.2 M124.2,72.2L124.2,72.2 M128.9,70.2C128.9,70.2,128.9,70.3,128.9,70.2
	C128.9,70.3,128.9,70.2,128.9,70.2 M145,56.7h-1.1c-0.3,0-0.7,0-1,0.1s-0.7,0-1.1,0.1l-1.1,0.1c0,0,0,0-0.1,0
	c-0.3,0-0.6,0.1-0.9,0.1c-0.2,0.1-0.5,0.1-0.7,0.1c-0.1,0-0.1,0,0-0.1c-0.9,0.2-0.9,0.3-0.7,0.3l0,0c0.2,0,0.6,0,0.2,0.2
	c-0.4,0.1-0.7,0.2-1.1,0.3l0,0c0.2-0.1-0.5,0-0.1-0.2l-0.6,0.2l-0.6,0.3l0,0c0,0,0.2-0.1,0.3-0.2l-0.9,0.4c-0.3,0.1-0.6,0.2-0.8,0.4
	c-0.5,0.3-1.1,0.5-1.5,0.8s-1,0.6-1.4,0.9s-0.9,0.7-1.3,1.1c-0.3,0.3-0.3,0.3,0,0c0.1-0.1,0.2-0.1,0.3-0.2c0.1-0.1,0.2-0.2,0.3-0.2
	l0,0l-0.6,0.5l-0.4,0.4c-0.2,0.2-0.4,0.4-0.6,0.6c-0.5,0.4-1,1-1.4,1.5l0.2-0.4c-0.4,0.6-0.8,1.2-1.2,1.8l0,0
	c-0.2,0,0.5-0.9,0.8-1.4c-0.2,0.3-0.6,0.9-0.9,1.4s-0.3,0.7-0.3,0.7l0.1-0.1c-0.4,0.9-0.8,1.1-1,1.6l0,0c0.1-0.1,0.1-0.1,0.2-0.2
	c0-0.1,0.1-0.2,0.2-0.2c0,0,0,0.1,0,0.2c-0.8,1.5-1.4,3.1-1.7,4.7h-0.1l0,0c0,0.4-0.1,0.9-0.2,1.3c0,0.2-0.1,0.4-0.2,0.6
	c0,0.4,0,0.7,0,1.1c0,0.3,0,0.6,0,1s0.1,0.6,0.1,1c0,0.3,0.1,0.7,0.2,1c0.1,0.3,0.2,0.7,0.3,1s0.2,0.7,0.3,0.9l0.1,0.4l0.1,0.2v0.1
	l0,0l0,0l0,0h-0.2l-1.7,0.3l-1.6,0.2l-1.6,0.1c-1.2,0.2-2.3,0.4-3.5,0.3l-0.1-0.3l-1.1,0.1c-0.5-0.1,0.9,0,0-0.2l-0.4,0.2
	c-0.1-0.1-2.9-0.1-1-0.3h-0.5c-1.3,0-2.7,0-4,0.1c-1,0-0.6,0.2-1.7,0.3c-0.2-0.1,0.4-0.1,0.3-0.2c-1.2,0-2.5,0.2-3.6,0.7l-0.7,0.2
	c-0.2,0.1-0.5,0.2-0.8,0.3s-0.6,0.2-0.9,0.3l-1.1,0.4l0.3-0.1c-0.3,0.1-0.6,0.3-1,0.4c-0.2,0.1-0.4,0.2-0.6,0.3h0.1
	c0.2,0,0.3-0.1,0.5-0.2c0.3-0.2,0.6-0.3,0.9-0.4c0,0.2-1.1,0.5-1,0.7c-0.6,0.2-1.1,0.5-1.7,0.9c-0.6,0.3-1.1,0.6-1.7,1
	c-0.6,0.4-1,0.8-1.4,1c-0.4,0.4-0.7,1-1.4,1.9c-0.2,0.2-0.3,0.2-0.3,0.2l0,0l0,0c0,0-0.1,0.1-0.4,0.4v0.2c-0.4,0.5-0.5,0.6-0.5,0.6
	s0,0,0,0l0,0c-0.6,0.8-0.3,0.8-1,1.8c0.1-0.2,0.2-0.4,0.2-0.7c-0.4,0.8-0.7,1.1-1.2,2.3c-0.1-0.1,0.2-0.5,0.4-0.8
	c-0.5,0.5-0.4,1.1-0.6,1.4c0.1-0.1,0.3-0.6,0.4-0.6s0,0,0,0.1c-0.1,0.3-0.3,0.6-0.4,0.9c-0.1,0.3-0.2,0.5-0.3,0.8l0.1-0.7
	c-0.2,0.6-0.2,0.8-0.3,1s-0.2,0.4-0.4,1.1V97c-0.2,0.5-0.4,1-0.6,1.5c-0.1,0.3-0.2,0.6-0.3,0.9c-0.1,0.3-0.2,0.6-0.3,1v-0.3
	c-0.1,0.6-0.1,0.9-0.1,1.2c0.2-0.5,0.2-0.6,0.3-0.6h0.1c-0.2,0.4-0.3,0.9-0.3,1.4c0,0.6-0.1,1.3-0.2,1.9c-0.1-0.3-0.1-0.6,0-0.9
	c-0.2-0.6-0.3-1.2-0.2-1.8c0,0.4-0.1,0.9-0.2,1.3l0,0l0.2,0.2c-0.1,0.4-0.1,0.7-0.2,1c0,0.2,0,0.2,0,0c0.1-0.3,0.1-0.1,0.1-0.1
	s0.1-0.1,0.1-0.1s0,0.1,0,0.4c0,0.6-0.1,0.7-0.2,0.7h-0.1l0,0c0.1,0.7,0.1,1.3,0,2c0-0.1,0-0.3,0-0.4c-0.1,0.5-0.1,1-0.1,1.5
	c0,0.4-0.1,0.7-0.2,1.1c-0.1-0.2-0.1-0.4-0.1-0.6l0,0c0-0.1,0-0.2-0.1-0.3c0,0.2,0,0.3,0,0.5c0,0.2,0,0.5-0.1,0.5l0,0
	c0,0.2,0,0.4,0,0.7c0,0.4,0,0.9,0,1.2l0.1-0.2c0.2,0.9,0.2,1,0.1,1h-0.1c-0.1,0-0.2,0.1-0.2,1c0,0.2,0,0.3,0.1,0.5
	c0-0.1,0-0.1,0-0.2s0-0.1,0-0.2c0,0,0,0,0.1,0.2c0,0.4,0,0.7,0,1.1c0,0.5,0.1,0.9,0.2,1.4c0,0.4,0,1.1-0.1,1.2
	c0.1,0.4,0.2,1,0.3,1.5c0.1,0.4,0.2,0.8,0.4,1.2c-0.3-0.9-0.5-1.9-0.6-2.9l0.2,0.4c0.2,1.1,0.6,2.4,0.8,3.1c0-0.1,0-0.2,0-0.2l0,0
	c0.3,0.7,0.5,1.2,0.7,1.6c0.2,0.5,0.5,1.1,0.7,1.6l0,0c0,0-0.4-0.7-0.6-1.2c0.1,0.3,0.2,0.7,0.3,1c0.1,0.3,0.3,0.7,0.6,1.3l0,0
	c-0.1,0-0.4-1-0.6-1.1c0.2,0.5,0.5,1,0.7,1.5l0,0c0.3,0.1,0.5,1.2,1.2,2c0.7,1.2,1.7,2.2,2.9,3c0.2,0.2,0.2,0.4,0.2,0.4h-0.1
	c-0.3-0.5-0.3-0.4-0.5-0.5c0.5,0.5,1,1.2,0.8,1.2c0,0-0.1,0-0.1-0.1c0.3,0.2,0.4,0.3,0.4,0.3s0-0.1-0.1-0.2s-0.1-0.2-0.1-0.2
	s0.1,0,0.2,0.1c0.5,0.4,0.9,0.8,1.4,1.2c-0.1-0.1-0.3-0.4-0.2-0.4c0.2,0.1,0.3,0.1,0.4,0.2c0.7,0.4,0.9,0.7,1.8,1.2l0,0
	c0,0,0,0,0,0.1s0,0.1,0,0.1c-0.1,0-0.3-0.1-0.4-0.2c0.4,0.3,0.9,0.6,1.4,0.7c-0.2-0.1-0.2-0.2-0.2-0.2c0.2,0.1,0.4,0.1,0.6,0.2
	c0.2,0.1,0.5,0.2,0.7,0.2c0,0,0,0-0.1-0.1c0.3,0.2,0.7,0.3,1,0.5c-0.2,0-0.4-0.1-0.6-0.2c0.2,0.3,0.9,0.3,1.2,0.4
	c0.5,0.1,1,0.3,1.4,0.5l0,0c0.5,0,0.9,0.2,1.3,0.3h0.2c0.2,0-0.1-0.1,0-0.1c0.6,0.1,1.2,0.1,1.8,0.2c0.1,0.1,0.2,0.4,0,0.4
	c0.6,0,0.3-0.2,1-0.2h0.2c-0.6,0.2,1.3,0.2,0.5,0.4c0.8,0.1,1.6,0.2,2.4,0.2h0.6c0.6-0.1-1-0.1-0.9-0.3l0,0c0.8,0,1.5-0.1,2.3-0.2
	c0.5-0.1,1.1-0.2,1.7-0.2h0.5h-0.5c0.6,0,1.1-0.1,1.7-0.2c-0.3,0.2,1,0.4,2.6,0.4h0.5c0.2-0.1-1-0.2-0.7-0.3h1.2c0.1,0,0,0-0.2,0.1
	h0.4c0.3,0,0.6,0,0.9,0c0.3,0,0.5,0,0.7,0c0.2,0,0.3,0,0.4-0.1l1.1,0.2l-0.4-0.1c0.5-0.1,1.1-0.2,1.6-0.2c0.4-0.1,0.8-0.1,1.2-0.1
	c0.4,0,0.8,0,1.2,0.1c-0.2-0.1-0.8-0.2,0.2-0.3c0,0.1,0.3,0.1,0.7,0.1h1c0.2,0,0.3,0,0.3,0h0.6c0.3,0,0.5,0,0.5-0.1l-0.1,0.2
	c0.1-0.3,1.6-0.3,2.7-0.4c-0.1,0.1,0,0.1,0.2,0.1h0.4c0.2,0,0.3,0,0.5,0c0.2,0,0.4,0,0.6,0.1c0.2-0.2,2-0.2,2.2-0.4h0.3
	c0.6,0,0.5,0.2,0.7,0.2l0.4-0.1c0.3,0,0.5,0,0.8,0h1.1h1.2l0.9-0.3l0.3,0.1c0.1-0.1,0.9-0.1,0.4-0.2h0.5c0-0.2,0.7-0.1,1.6-0.3
	c0.2,0,0.2,0.1,0,0.1h0.1c0.3,0,0.2,0.1,0.4,0.1c-0.1-0.1,1.7-0.5,0.4-0.6c-0.1-0.1,0.6-0.2,1.1-0.2l0,0l0.3,0.2l0.6-0.3
	c0.2,0,0.4,0,0.6,0h0.5h0.5h0.2c-0.5,0.1-1.2,0.4-0.2,0.4h0.5c-0.8,0.1-1.2,0.2-1.7,0.3h0.2c0.2,0,0.2,0-0.2,0.1
	c1.2-0.2,0.4-0.2,1.6-0.3c0,0.2,0.2,0.2,0.9,0.2h0.5l-0.8-0.1l0.1-0.1h-0.1c-0.2,0-0.3,0-0.4-0.1c0.2,0,1.1-0.3,1.5-0.3l0,0
	c-0.9-0.2,2.2-0.4,1.4-0.5c0.3-0.1,0.5-0.1,0.8-0.1c0.1,0,0.2,0,0.3,0c-1,0.2,0.8,0.1,0.6,0.3c0.4-0.1-0.8-0.1-0.3-0.2
	c0.2,0,0.3,0,0.5,0c0.3,0,0.7,0,1,0.1l-0.2,0.1h0.9c0.1-0.1-0.9-0.1-0.1-0.2h0.1h0.4h0.4c0.1,0,0.1,0,0.1,0
	c-0.4,0.2-0.1,0.3-0.8,0.4c0.6-0.1,2.6-0.2,1.8-0.4l0.7-0.1c-0.5,0-1.8-0.1-0.3-0.2l0,0l1-0.2l0.4,0.1c0,0,0.1-0.1,0.5-0.1
	c0.1,0,0.5,0,0.4,0.1c1.1-0.1,1-0.2,1.1-0.2c0.2,0,0.3,0,0.5,0c0.2,0,0.2,0,0.1,0.1c0.7,0,1.9-0.1,2.6-0.1h0.3
	c1.1-0.2-0.2,0,0.4-0.2c0.3,0.1,0.6,0.1,0.9,0.1c1.3,0,3.3-0.3,4.7-0.4c-0.5-0.2,0.4-0.1,0.8-0.3c0.1,0.1,1.6,0.1,0.2,0.3l1-0.1
	c0.7,0.1-1.6,0.2-0.6,0.4c1-0.2,2-0.3,3-0.4h0.1c-0.1,0.1-0.1,0.1,0,0.1h0.3h0.3c0.1,0,0.1,0,0.1,0.1c-0.3,0.1-0.7,0.1-1,0.1h0.2
	c2.4-0.1,0.7-0.3,1.9-0.5h0.7c0.7,0,0.5,0.1,0.6,0.2h0.1c0.4,0,0.8-0.1,1.1-0.1c-0.2,0-0.4,0-0.6,0c-0.6,0-0.9-0.1-0.6-0.2
	c0.2,0.1,0.4,0.1,0.6,0.1c0.7,0,1.3-0.1,2-0.3c-0.6,0-0.9,0-1.2,0h-0.5h-0.5c-0.3,0-0.6,0-1.2-0.1c-0.3,0.1-0.2,0.3-1.3,0.3h-0.1
	c0.7-0.1-0.1-0.1-0.3-0.1c0.2,0.1-0.8,0.1-1.2,0.2c-0.3-0.1,0.6-0.3-0.3-0.3h-0.2l-0.2,0.3c-0.4,0-0.1-0.1-0.3-0.1h-0.5
	c0.5-0.2-0.2-0.2,1.2-0.4h-0.6c-1.1,0.1-2.1,0.3-3.1,0.5c0.1,0,0.1,0,0.2-0.1c-0.3,0.1-0.7,0.1-1,0.1c-0.8,0,0.6-0.2,0.4-0.2
	l-1.3,0.1l0,0l0,0c-0.2,0-0.4,0.1-0.6,0.1h-0.2c0.4-0.1,0.5-0.2,0.8-0.3l-1.4,0.3c0.1-0.1-1.2-0.1-0.2-0.2l-2.1,0.2l-0.2-0.2
	c-0.4,0.1-0.5,0.1-0.2,0.1h0.2c-0.6,0-1.9,0.3-2.5,0.3c-0.2,0-0.3,0-0.2-0.1c-1.6,0.3-2.2,0.3-4.2,0.5c1.5-0.3-1.8-0.1-0.2-0.3l0,0
	c-0.6,0-1.2,0.1-1.8,0.3c-0.7,0-0.4-0.2,0.3-0.4l-0.8,0.1l0,0l-0.8,0.2c-0.7,0-0.3-0.1-0.8-0.1H155l-0.2,0.2l-0.6-0.1
	c0.2,0.1-0.3,0.1-0.9,0.2l0,0l-0.7,0.1c0.3-0.1,0.2-0.1,0.1-0.1h-0.4c-0.1,0-0.2,0-0.1-0.1c-0.6,0.1-0.7,0.1-1.8,0.2l0.2,0.1
	c-0.2,0-0.4,0.1-0.6,0.1c-0.1,0-0.1,0-0.1-0.1s0-0.1-0.2-0.1h-0.3l0.1,0.1H149c-0.6,0-1.3,0.1-1.9,0.2c-0.6,0.1-1.1,0.1-1.7,0.2
	h-0.2c0.6-0.1,0.6-0.2,0.5-0.2l0,0c-1.1,0.1-2.9,0.2-4.1,0.5c-0.5-0.2-1.1-0.3-1.7-0.3c-0.4,0-0.9,0.1-1.3,0.2h-0.1
	c-0.3,0-0.7,0-1.1,0.1s-0.7,0.1-1,0.1s-0.3,0-0.3-0.1l0,0c-0.2,0.1-0.8,0-1.2,0.1l-0.1-0.1l0.1,0.1c-0.2,0-0.5,0-0.8-0.1
	c-0.4,0-0.9,0-1.3,0.1c-0.4,0.1-0.9,0.1-1.3,0.1c-0.2,0-0.4,0-0.6,0h0.2l-0.6,0.1c-0.1-0.1,0.1-0.1,0.2-0.2l-2.9,0.1l0.6,0.1
	c-0.5,0-0.9,0.1-1.4,0.1h-0.3c0.4-0.1,0.4-0.1,0.3-0.1h-0.5H126c-0.1,0-0.3,0-0.4,0l0.6-0.1c-0.8,0-0.8,0-0.8,0.2h-0.3
	c-0.2,0-0.4,0-0.5-0.1c-0.1,0-0.3-0.1-0.4-0.1c-0.2,0-0.3,0-0.5,0.1h0.7c0.2,0.1-0.3,0.2-0.8,0.2c-0.1,0-0.4-0.1-0.1-0.1
	c-0.9,0.1-2.2,0.1-2.5,0.1s-0.3-0.1-0.1-0.2c-0.7,0.1-1,0.1-1.2,0.1h-0.3c-0.2,0-0.5,0-1.2,0.1v-0.1l-0.6,0.1l-0.9-0.1l0.3,0.1
	c-0.4,0-0.7,0-1.1,0h-0.6l0.3-0.1H115c-0.5,0-0.8,0-1.2-0.1s-0.6-0.1-1-0.1c-0.3,0-0.7,0-1,0.1c-0.1,0,0.2-0.1,0.3-0.1h-0.6
	c-0.2,0-0.5,0-0.7-0.1c-0.2,0-0.4-0.1-0.7-0.1c-0.2,0-0.5,0-0.7,0.1c0.1,0-0.1-0.1,0-0.1l-0.7,0.1l0.1-0.1l-0.6,0.2l-0.4-0.2
	l-0.3,0.1c-0.4-0.1-0.8-0.2-1.2-0.2c-0.2,0-0.5,0-0.7-0.1c-0.2-0.1-0.5-0.1-0.7-0.2l0.1,0.2c-0.3,0-0.6,0-0.9-0.1
	c-0.3-0.1-0.6-0.1-1-0.2c-0.2-0.1-0.3-0.1-0.5-0.1l-0.5-0.2c-0.3-0.1-0.7-0.3-1-0.4c-1.3-0.7-2.5-1.5-3.6-2.4l0.1-0.1
	c-0.3-0.2-0.7-0.4-1-0.6c-0.1-0.2-0.1-0.2-0.1-0.2c0.1,0,0.1,0.1,0.2,0.1c0.1,0.1,0.2,0.1,0.2,0.1l0,0c-0.2-0.2-0.5-0.4-0.8-0.6
	c-0.3-0.2-0.6-0.4-0.8-0.7c-0.1-0.2-0.1-0.3-0.1-0.3s0.4,0.5,0.7,0.6c-0.6-0.6-1.1-1.2-1.5-1.8c-0.2-0.3-0.5-0.7-0.6-1
	c-0.2-0.3-0.3-0.5-0.4-0.8h-0.1c-0.5-1-1-2-1.4-3l0,0c0.1,0,0.2,0.2,0.3,0.5c-0.1-0.4-0.3-0.8-0.4-1.1l0.3,0.3l-0.2-0.7
	c-0.1-0.2-0.2-0.5-0.3-0.8c-0.1-0.3-0.2-0.7-0.2-1l0,0c-0.1,0-0.2-0.1-0.3-0.6c0-0.4-0.1-0.8-0.2-1.2c-0.1-0.3-0.2-0.6-0.2-0.9
	c-0.1-0.3-0.1-0.6-0.1-0.9c0.1,0.2,0.1,0.5,0.2,0.7l0,0c-0.1-0.5-0.2-1-0.3-1.5l0.1,0.1c-0.1-0.9-0.3-1.7-0.4-2.6
	c0.2-0.4-0.1-2.3,0-2.3l0,0c0-0.1,0-0.2,0-0.3c0,0.1,0,0.1,0,0.2c0,0.1,0,0.2,0,0.2c0-0.1,0-0.3,0-0.4c0.1-0.3,0-1,0.1-1l0,0v0.1
	c0-0.3,0-0.6,0-0.8l0.1,0.5c0-0.7-0.1-1.2-0.2-1.3c0.1-0.7,0.2-1.3,0.3-1.9v0.2c0.2-1.9,0.9-3,1-4.5v-0.1c0,0,0,0,0,0.2
	c0.1-0.4,0.2-0.7,0.3-1.1v0.3l0.3-1l0.2-0.9h0.1c0.6-1.5,1.2-3,2-4.4l-0.1,0.2c0.2-0.5,0.5-0.9,0.8-1.4c0.2-0.3,0.4-0.5,0.8-1
	l-0.1,0.1c0.2-0.3,0.5-0.6,0.7-0.9l-0.1,0.2c0.3-0.4,0.6-0.7,1-1l0.4-0.3l-0.1,0.1c0.3-0.4,0.8-0.9,0.9-1.1c0.4-0.3,0.5-0.3,0.6-0.3
	l0,0l0,0c0.1,0,0.2-0.1,0.3-0.1c0.4-0.2,0.6-0.4,0.8-0.5c0.3-0.2,0.7-0.4,1.1-0.5v0c0.5-0.2,0.8-0.4,1.6-0.6l-0.2,0.1
	c0.4-0.2,0.9-0.3,1.3-0.4c0.4,0,0.8-0.2,1.2-0.3c0.4,0,1-0.1,1.3-0.1c0.2,0,0.3,0,0.2,0.1c1.5-0.3,3.1-0.4,4.6-0.5
	c0.1,0.1,0.2,0.1,0.3,0.1h0.2h0.3c0.2,0,0.4,0,0.6,0l-0.1-0.1h0.3c0.9,0,1.8,0,2.7,0.1s1.9,0.1,2.9,0.1c0.7,0,1.5,0,2.2-0.1l0.1,0.1
	l0.6-0.2c0.5,0,1-0.1,1.5-0.2l0.8-0.1l0.8-0.1l0.8-0.1c0.3-0.1,0.7-0.1,1-0.2c2-0.5,3.2-2.5,2.7-4.4c0-0.1,0-0.1-0.1-0.2
	c-0.1-0.3-0.1-0.4-0.1-0.6l-0.1-0.4c-0.1-0.3-0.2-0.5-0.2-0.6l-0.5-1.1c-0.1-0.5-0.2-1-0.2-1.5v0.1c-0.2-1.9,0.2-3.9,1-5.7
	c0,0.1,0.1,0,0.1,0.1c0.2-0.5,0.4-1,0.7-1.4c-0.1,0.1-0.2,0.3-0.3,0.4c0.2-0.6,0.5-1.1,0.9-1.5l0.4-0.8l0.1-0.1v-0.2
	c0.1-0.1,0.3-0.2,0.4-0.3c0.1-0.2,0.9-1.2,1.1-1.5c0.1,0,0.4-0.3,0.5-0.3s0,0-0.2,0.2c0.8-0.8,1.7-1.5,2.7-2.1l-0.5,0.2
	c-0.1,0,0.1-0.2,0.4-0.4c0.3-0.2,0.5-0.4,0.8-0.5c-0.2,0.2-0.3,0.2-0.2,0.2s0.4-0.1,0.5-0.1s0.1-0.1,0.1-0.1h-0.2H136l0,0
	c0.6-0.4,1.2-0.8,1.9-1l-0.3,0.2c0.3-0.1,0.6-0.2,0.9-0.2c0.3,0,0.6-0.1,0.9-0.2c0.7-0.2,1.2-0.3,1-0.5c0.2,0,0.3-0.1,0.5-0.1
	c0.1,0,0.1,0,0.1,0.1s0,0.1,0.1,0.1h0.1c0.4-0.1,0.7-0.2,1.1-0.2c0.3,0,0.6,0,0.9,0.1c0.2-0.1,0.5-0.2,0.7-0.1c0.3,0,0.6,0,0.9,0
	s0.9,0.1,1.1,0.1c0.1,0,0.2,0,0.2-0.1c0.3,0.1,0.5,0.2,0.8,0.3c0,0,0.1-0.1,0.5-0.1c0.1,0,0.3,0,0.4,0c0.6,0.2,0.4,0.3,0.6,0.4
	l0.5-0.2c2,0.7,3.9,1.5,5.8,2.5c1.9,1.1,3.7,2.4,5.3,3.9c1.7,1.4,3.1,2.9,4.4,4.6l-0.2-0.2c0.4,0.6,0.8,1.2,1.2,1.8
	c-0.3-0.5-0.6-0.9-0.8-1.4c0.3,0.4,0.6,0.6,0.9,1c1.3,2,2.8,4.9,4.2,7.6c0.4,0.4,0.6,0.9,0.7,1.5c0.1,0.5,0.3,1,0.6,1.4
	c-0.1-0.1-0.2-0.2-0.2-0.3c0.9,1.8,1.4,2.8,2.3,4.7l0,0c-0.1,0-0.1,0.1-0.1,0.2l0.1,0.2c0,0.1,0.1,0.2,0.1,0.3
	c0.2,0.3,0.3,0.7,0.4,1l0,0l0.2,0.2c0.1,0.4,0.3,1.1,0.5,1.6l0.1,0.2v0.1l0,0l0.3-0.1h0.2c0.1,0,0.1,0,0,0l1.6-0.6l0.1,0.1l0.9-0.2
	l0.9-0.3c0.4-0.1,0.9-0.3,1.3-0.5c0.6-0.3,1.3-0.5,2-0.7c2.7-1.4,6.9-3.7,10.2-4.1c0.3-0.1,0.6-0.1,0.9-0.2c0.2,0,0.3,0,0.5,0h0.6
	c0.2,0.1,0.5,0.2,0.7,0.2c0.2,0,0.4,0,0.5,0l0.5,0.1l0.5,0.1c0.2,0.1,0.3,0.1,0.5,0.2h-0.1c0.7,0.3,1.2,0.7,1.9,1s1.1,1,1,1.1
	c0.3,0.2,0.5,0.4,0.6,0.6c0.2,0.2,0.4,0.5,0.5,0.8c0,0,0.5,0.5,1.3,1.6c1.1,1.5,2.2,3.1,3.1,4.7c1.4,2.3,2.5,4.7,3.3,7.2
	c0.4,1.4,0.8,2.9,0.9,4.4c0.2,1.6,0.2,3.1,0,4.7c-0.2,1.6-0.5,3.1-1.1,4.6c-0.6,1.5-1.4,2.8-2.4,4c-1,1.2-2.1,2.2-3.4,3.1l-0.5,0.3
	l-0.5,0.3c-0.3,0.2-0.6,0.4-1,0.6c-0.7,0.3-1.4,0.7-2.1,0.9c-2.6,1-5.2,1.8-7.9,2.3c-2.4,0.5-4.5,0.8-6,1.1l0,0
	c-0.4,0.2-1.5,0.3-1.1,0.4h-0.5c-0.2,0-0.3,0-0.4,0h-0.3c-0.1,0-0.1,0-0.2,0.1c1.2,0-0.4,0.4,0.8,0.4l-0.7,0.1l0,0h0.3h0.4
	c0.1,0,0.1,0,0.1,0l0.2-0.2c0.4,0,0.8,0,1.1,0.1c0.7-0.3,1.4-0.5,2.2-0.5h0.1l-0.4,0.1h0.5c0.4,0,0.2,0.1,0.4,0.1h-0.2
	c0.3,0,0.6,0,0.9,0l0,0c-0.3,0-0.7,0-1,0.1c-0.3,0.1-0.5,0.1-0.4,0.1h0.1c1.3,0-0.3,0,0.6-0.1h0.3c0.3,0,0.2,0.1,0.2,0.2l1.1-0.1
	c0,0.1-0.7,0.1-0.3,0.1c0.5-0.1,0.9-0.2,1.4-0.3c0.1,0,0.1,0.1,0.2,0.1c0.3,0,0.5-0.1,0.8-0.1c0.3-0.1,0.6-0.1,0.9-0.1
	c0.1,0,0.2,0,0.2,0c-1,0.2,0.1,0.1,0,0.2l1.2-0.2l1.2-0.3l0,0c0.1,0,0,0-0.1,0.1l-0.2,0.1h0.1c0.3,0,0.7-0.1,1-0.3l0,0
	c0.3,0,0.5,0.1,0.8,0.1c0.3-0.1,0.6-0.1,0.9-0.2c0.1,0,0.1,0,0.1,0c0.8-0.2,1-0.3,1.1-0.4c0.3-0.2,0.6-0.4,1-0.4
	c0.1,0-0.2,0.1-0.4,0.2s-0.3,0.1-0.2,0.1h0.2l1.5-0.6c-0.2,0.2-0.5,0.4-0.8,0.5c1.8-0.6,3.5-1.3,5.2-2.2c0.8-0.4,1.5-0.9,2.1-1.4
	c0.4-0.3,0.7-0.6,1-1c0.4-0.4,0.7-0.7,1-1.2c0,0,0.1-0.1,0.2-0.1c0.1,0-0.4,0.6-0.6,0.9c0.4-0.6,0.9-1.1,1.2-1.6
	c0.2-0.2,0.3-0.5,0.5-0.7l0.5-0.7c0.7-0.9,1.2-1.9,1.6-2.9l-0.1-0.1c0.8-1.8,1.3-3.8,1.4-5.8c0.1-2.1,0-4.2-0.3-6.2v0.5
	c-0.1-0.3-0.2-0.7-0.3-1c-0.1-0.4-0.2-0.7-0.3-1.1l0,0l0,0h0.1c0.1,0,0.1-0.1-0.1-0.8c0,0.2,0.1,0.4,0.1,0.6l0,0
	c-0.2-1.1-0.5-2.1-0.8-3.2c-0.4-1.3-1-2.6-1.6-3.9c-1.3-2.6-2.9-5.2-4.7-7.6c-1.2-1.6-2.6-3.1-4.1-4.5c-0.8-0.7-1.8-1.3-2.8-1.8
	c-0.2-0.1-0.5-0.2-0.8-0.3l-0.8-0.2l-0.8-0.2l-0.8-0.1c-0.6-0.1-1.2-0.1-1.8-0.1c-1.6,0-3.1,0.3-4.6,0.7c-1.8,0.6-3.6,1.3-5.4,2.2
	c0.2-0.1,0.4-0.2,0.6-0.2c0.2,0-0.1,0.3-0.7,0.5c-2.3,0.5-3.5,1.8-5.7,2.3l-0.3,0.1l-0.2,0.1l0,0l0,0h-0.1H177h-0.1v-0.2l0,0l0,0
	v-0.1l-0.1-0.3l-0.2-0.7c-0.7-1.9-1.5-3.7-2.5-5.4l0.1-0.1c-0.2-0.4-0.4-0.8-0.6-1.2l0,0c-0.6-1.4-1.6-2.9-1.9-3.7h-0.2
	c-0.4-0.8-0.1-0.5-0.7-1.2h0.1c-0.2-0.3-0.4-0.6-0.7-0.8c0.1,0-0.2-0.6-0.6-1.2s-0.9-1.3-1.1-1.6c-0.7-0.9-2.2-2.6-3.3-3.9
	c-0.3-0.4-0.6-0.8-1-1.2c-0.5-0.6-1.2-1.2-1.7-1.7c-1.2-1-2.5-2-3.9-2.8c-1.5-1-3.1-1.8-4.8-2.5v0.2l-0.9-0.3v-0.1h0.1
	c-0.2-0.1-0.4-0.2-0.6-0.3l-0.7-0.2c-0.5-0.1-0.9-0.3-1.4-0.4c0.4,0.2,0.7,0.3,1.1,0.4c0.3,0.1,0.3,0.2,0.2,0.2
	c-0.4-0.1-0.8-0.2-1.2-0.3l0,0l-0.7-0.1c0-0.2-0.6-0.4-0.7-0.5C147.7,56.8,146.3,56.7,145,56.7"/>
<path class="st0" d="M1297.2,192.9l-0.6,0.2v0.1L1297.2,192.9 M1296.6,134v6.9c0.9,0.1,1.8,0.1,2.7,0.2c-0.7,0.2,4.8,0.4,3.4,0.8
	c0.6,0,1,0.1,1.3,0.1c1.4,0-1.6-0.6,0-0.7c0.8,0,1.7,0.1,2.5,0.4c-0.5,0,0.6,0.4,0.2,0.4h-0.2c0.9,0.1,1.8,0.2,2.7,0.3
	c0.1,0,0,0.1-0.2,0.1h-0.4c2.5,0.3,4.9,0.7,7.3,1.3c2.2,0.5,4.3,1.1,6.4,1.7c0.4-0.1-1.6-0.6-1.3-0.7c1.3,0.2,2.6,0.8,3.7,1.5
	c0.4,0.2,0.7,0.5,1.2,0.8c0.2,0.1,0.4,0.4,0.7,0.6c0.3,0.2,0.7,0.5,1,0.7c-0.2-0.1-0.5-0.2-0.7-0.3c1.1,0.6,2,1.4,2.6,2.5
	c0,0.1,0,0.1-0.1,0.1c-0.1,0-0.1,0-0.1-0.1c-0.2-0.1-0.4-0.3-0.5-0.5c-0.2-0.2-0.4-0.5-0.6-0.7s-0.5-0.4-0.7-0.5
	c0.6,0.6,1.3,1.3,1.8,2c0.2,0.3,0.5,0.6,0.8,0.9c0,0,0-0.1,0-0.2c0.4,0.5,0.6,1.1,0.8,1.7c0.1,0.5,0.2,0.9,0.3,1.3l0,0
	c0-0.2,0-0.3-0.1-0.5c0-0.2-0.1-0.5,0-0.5s0.1,0.1,0.2,0.3s0.2,0.6,0.3,0.9s0.2,0.6,0.2,1c0.2,0.7,0.3,1.5,0.4,2.2
	c0.2,1.5,0.3,3.1,0.2,4.6l0,0h-0.1h-0.1c0,0,0,0-0.1-0.1c0.1,0.8,0,1.5-0.2,2.2c-0.1,0.3-0.2,0.6-0.4,1.1s-0.3,1-0.5,1.8
	c-1.4,4.6-4.1,8.7-7.6,11.9c-3.8,3.5-8.1,6.3-12.7,8.5c-2.3,1.5-4.8,2.7-7.3,3.7l-0.5-0.4c-0.8,0.4-1.6,0.7-2.4,1h-0.2
	c-0.1,0,0.1-0.1,0.4-0.2s0.5-0.2,0.4-0.2c-0.2,0-0.4,0.1-0.6,0.1l-0.8,0.6l0,0c-0.2,0-1.7,0.5-2.7,0.8h-0.2v7.4
	c0.3-0.1,0.7-0.2,1.1-0.2l-0.2-0.2l4.3-1.4l2.3-0.7l2.3-0.8c3.1-1,6.2-2.3,9.1-3.8l0.3,0.1l1-0.9c3.5-1.8,6.8-3.9,9.9-6.4
	c1.5-1.2,3-2.6,4.3-4c1.2-1.3,2.2-2.6,3.2-4l0.8-1.4c0.3-0.6,0.6-1.1,0.9-1.8s0.6-1.3,0.9-2s0.6-1.5,0.9-2.2l-0.1,0.3
	c1.9-5.6,2.2-11.5,0.9-17.2c0,0.1,0.1,0.1,0.1,0.1l0,0l0,0l0,0c-0.3-0.7-0.5-1.4-0.7-2.1c-0.3-0.9-0.5-1.7-0.8-2.3
	c0.2,0.5,0.3,1,0.4,1.5c-0.8-1.6-1.9-3.9-2.3-4.8c-0.6-0.7-1.3-1.5-2-2.1c-0.1-0.1-0.2-0.3-0.3-0.4l0,0l-0.5-0.3
	c-0.3-0.4-0.6-0.9-0.9-1.3c-0.3-0.2-1.2-0.9-2.3-1.5c-0.9-0.5-1.8-0.9-2.8-1.2c-0.1-0.2-1.5-0.8-1.4-0.8c0.2,0.1,0.5,0.1,0.7,0.2
	c-2.9-1.2-6-2.2-9.1-2.8l1.4,0.4c0,0.1-0.1,0.1-0.4,0.1c-1.2-0.1-2.4-0.3-3.6-0.6h0.5c0.9,0-0.4-0.4-1.1-0.7h-0.2
	c-0.7,0,1.2,0.4,0.6,0.4c-1.9-0.1-3.7-0.4-5.6-0.8h0.9c-2.1-0.2-3-0.8-5-1c-1.1,0-2-0.1-2.5-0.1s-0.6,0.1-0.4,0.3
	c-2.7-0.2-1-0.4-1.8-0.5h-0.4c-0.7,0-1.8-0.1-2.8-0.2"/>
<path class="st0" d="M1104.6,133.2l0.2,0.3L1104.6,133.2 M1049.6,129.3c0,0.1-0.1,0.1-0.1,0.2
	C1049.6,129.4,1049.6,129.4,1049.6,129.3 M1052,128.6l-0.3,0.3L1052,128.6 M1067.2,120.6c-0.2,0.1-0.6,0.2-0.9,0.3L1067.2,120.6
	 M1070,119.3c-4.8,0.6-3.2,0.7-7.6,1.7c-0.5,0.4-0.3,0.7-2.8,1.7c0.5-0.3,0.6-0.5,0.5-0.5c-0.4,0.1-0.8,0.3-1.2,0.5l0,0
	c0.4,0-1.7,1-2.3,1.5h-0.1c-0.1,0,0-0.1,0-0.3s0.1-0.3,0-0.3c-0.4,0.1-0.8,0.4-1.2,0.6l-0.1,0.7c-0.1,0.1-0.2,0.1-0.4,0.2
	c0,0-0.1,0-0.1,0c0,0-0.1,0-0.1,0c-0.1,0-0.3,0.1-1.1,0.8c0.8-1-0.6-0.2,1.9-2c-0.8,0.4-1.5,0.8-2.2,1.3c-0.6,0.5-1.1,0.9-1.6,1.5
	c-1,0.9-1.6,2-2.6,3.1c0.1-0.1,0.2-0.2,0.2-0.4c-0.2,0.2-0.4,0.5-0.7,0.8s-0.6,0.8-0.9,1.1s-0.4,0.4-0.4,0.4s0.2-0.4,0.4-0.7
	s0.5-0.7,0.4-0.7l0,0l-2,2.4h-0.1l0,0c-0.3,0.6-0.7,1.1-1.1,1.5c0.4-0.9,0.5-1.3,0.7-1.9l-1.6,2.9v-0.1c0,0-0.3,0.2-0.5,0.5
	c-0.1,0.2-0.3,0.3-0.4,0.5c0,0,0-0.2,0.4-0.8c-0.9,1.4-1.7,2.8-2.4,4.3l-0.5,0.2c-0.1,0.3-0.2,0.5-0.3,0.8c0,0,0.1-0.1,0.2-0.3
	c-0.8,1.8-1.8,5.6-2.2,5.6c0,0-0.1,0-0.1-0.1c-0.2,0.9-0.4,1.7-0.6,2.5s-0.3,1.4-0.4,2.1c-0.4,1.7-0.6,3.5-0.8,5.2c0-0.7,0-1,0-1
	c-0.2,0.4-0.3,0.8-0.3,1.2c-0.1,0.4-0.1,0.8-0.3,1.2c0-0.4,0-0.7,0-1.1c-0.2,1.5-0.2,3,0,4.5c-0.1,0.6-0.2,0.9-0.3,0.9
	s-0.3-0.6-0.3-1.6l0.1,1.9h-0.1l0.2,1.8c-0.2,1.9-0.4,0.4-0.4,2.4l0.3,0.4l-0.1,1.4c0-0.1,0-0.1,0.1-0.1c0.2,0.7,0.3,1.5,0.3,2.2
	h-0.1l0.2,1.8c0-0.2-0.1-0.3-0.1-0.5c0,0.2,0,0.5,0,0.7c0,0.2,0,0.5,0,0.7c0,0,0,0-0.1-0.1c0.1,1.5,0.1,1.5,0.5,4.2l0.2-0.5
	c0.3,1.6,0.3,1.8,0.2,1.8h-0.1c-0.1,0-0.2,0.1,0,1.3l0.2-0.2c0.2,4.2,1.6,6.9,2.3,9.9c-0.4-1-0.6-1.2-0.7-1.2s0,0.1,0,0.1
	c0.2,0.6,0.5,1.4,0.8,2.1s0.7,1.6,1,2.4s0.8,1.6,1.3,2.3c0.4,0.7,0.9,1.3,1.4,1.9c0.1,0.5,0.3,0.9,0.5,1.4c0.5,0.8,1.1,1.6,1.7,2.3
	c0.5,0.5,1,1,1.6,1.4c0.3,0.2,0.6,0.4,0.9,0.5c0.2,0.2,0.4,0.4,0.7,0.6l0.8,0.5l1.7,1c0.7,0.3,1.4,0.6,2,1.1c0.5,0,1.7,0.8,2.8,1
	l0.2,0.2l-0.1-0.3c0.7,0.4,1.5,0.7,2.3,0.9c0.7,0.2,1.5,0.4,2.3,0.5c0.8,0.1,1.5,0.2,2.3,0.4c0.8,0.1,1.7,0.3,2.5,0.5h-0.6
	c0.5,0,1,0.1,1.5,0.1c0.2,0.1-0.4,0.1-0.5,0.3c1.2,0.1,2.3,0.2,3.5,0.4l3.5,0.2c-0.4-0.1-0.9-0.2-1.3-0.3h0.5c0.4,0,0.8,0,1.1,0
	s0.7,0,1.1,0c0.4,0,0.9,0,1.3,0.1c-1.4,0.2-0.8,0.2,0.2,0.2h0.5c0.7,0,1.4,0,2.1,0.1l-1.5,0.1c2,0,2,0,1.8-0.3h0.6
	c0.5,0,1,0,1.4,0.1c0.3,0.1,0.7,0.1,1,0.1c0.4,0,0.8,0,1.1-0.1h-1.7c-0.5-0.1,0.7-0.4,1.9-0.4c0.2,0,1,0.1,0.3,0.2
	c0.9,0,1.9-0.1,2.9-0.1h1.3c0.7,0,1.3,0,1.6,0c1.1,0.1,0.7,0.3,0.1,0.3c1.2,0,2-0.1,2.4-0.1h0.8h0.8c0.5,0,1.2,0,2.3-0.1l-0.1,0.1
	l1.5-0.1l2.2,0.3l-0.8-0.2c0.9,0,1.6,0,2.4,0c0.5,0,1,0,1.6,0.1l-0.7,0.2h0.7c1.3,0,2.2,0.1,3.1,0.1s1.6,0.1,2.6,0.1
	c0.6,0,1.3,0,2.1-0.1c0.3,0-0.3,0.1-0.7,0.1c0.7-0.1,1.2-0.1,1.6-0.1c0.5,0,1,0,1.5,0.1c0.5,0.1,1,0.1,1.4,0.1c0.6,0,1.2,0,1.8-0.1
	c-0.2,0.1,0.2,0.2,0,0.2l1.6-0.1l-0.1,0.3l1.3-0.4l1,0.3l0.6-0.1c1.7,0.6,4.2,0.2,6.6,0.6l-0.4-0.4c1.5-0.2,3-0.2,4.5-0.2
	c2.1,0,4.4,0.1,6.7,0.2s4.7,0.2,7,0.2c1,0,1.9,0,2.8-0.1l-0.1,0.3l3-0.3c1.6,0.2-1,0.2-0.5,0.4c3.2-0.2,1.3-0.4,5.1-0.5
	c1.9,0.2-0.7,0.2-1.6,0.3c2.6-0.1,6.1-0.2,8.7-0.2c1,0,1.8,0,2.4,0.1c0.1,0,0.2-0.1,0.1-0.1c1-0.1,2.2-0.1,3.4-0.1h4.6
	c-0.1,0.1-0.7,0.2-1.3,0.2c0.5,0,1.1,0,1.7,0c0.4,0,0.9,0,1.3-0.1l-1,0.2h0.4c0.6,0,1.4,0,2.1,0s1.5-0.1,2.2-0.1c0.5,0,1,0,1.5,0.1
	c-0.2-0.1,0-0.3,1.6-0.3c0.4,0.1,0.8,0.2,1.2,0.1c0.7,0,1.5-0.1,2.3-0.1s1.8-0.1,2.8-0.1c0.4,0,0.8,0,1.1,0
	c-0.3,0.1-2.2,0.2-1.8,0.2l0,0h0.7c1.1,0,2.1-0.1,3.2-0.3l-0.4,0.2l6.4-0.4c0.5,0.1,1,0.2,1.6,0.2c0.6,0,1.3,0,1.9-0.1
	s1.2-0.1,1.6-0.1s0.6,0,0.5,0.1c2.3,0-1.9-0.1,1-0.3c0.2,0,0.5,0.1,0.7,0.1h0.7h0.6c0.3,0,0.5,0,0.5,0.1h-0.3l2-0.1l-1.3,0.3
	c1.1,0,2.1-0.2,3.1-0.6c0.5,0,1,0,1.6,0h1.5c0.6,0,1.2,0,1.7,0.1l-0.6,0.1c0.6,0,1.2,0,1.8,0c1.2,0,2.4,0.1,3.4,0.1s2.1,0.1,3.1,0.1
	c1,0,2-0.1,3-0.2c0.3,0,0.2,0.1-0.3,0.1l2.9-0.1l-0.7,0.2l4.7-0.5l-0.1,0.1c3.1-0.1,8-0.3,12.1-0.6l-0.6,0.1
	c4.4-0.5,4.3-0.1,7.5-0.5c-0.1,0-0.2,0.1-0.3,0.1l2.9-0.2l-0.6,0.2c1.1-0.2,2.3-0.3,3.4-0.3h1.1h0.6c0.1,0,0,0-0.2,0
	c1.2-0.2,2.4-0.5,3.6-0.8c0.9-0.1,1.4-0.1,1.6-0.1s0.2,0,0.3,0.1s0.1,0.1,0.5,0.1h0.4c2.3-0.3,2.7-0.6,5.8-0.8v0.2
	c1.4-0.2,2.3-0.5,4.3-0.8l-0.6,0.2c3.2-0.8,4.2-0.3,6.6-1.4c1.1-0.1,3-0.6,3.7-0.6c0.2,0,0.2,0,0.2,0.1c2-0.5,3.8-1,5.6-1.5l5.5-1.7
	c0.1,0,0.2,0.1,0.4,0.1c0.6-0.2,1.3-0.4,1.9-0.6v-7.7c-0.2,0.1-0.5,0.1-0.7,0.1c-0.1,0,0-0.1,0.7-0.4v-0.1c-1.4,0.4-2.8,0.9-4.2,1.3
	l-4.8,1.3c-2.2,0.5-1.2,0.7-3.6,1.2c-0.5,0,0.8-0.3,0.6-0.4c-7.3,1.2-8.2,2.8-15,3.6l0.6-0.1c-0.6,0.1-1.4,0.3-2.1,0.4
	c-0.4,0.1-0.9,0.1-1.3,0.2c0.2,0.1,0.3,0.1,0.5,0.1c0.6,0,1.1-0.5,2.8-0.6c-0.1,0.4-2.6,0.6-2.4,0.9c-1.3,0.1-2.7,0.3-4,0.6
	c-2.1,0-4.9,0.4-6.8,0.4c-0.3,0-0.6,0-0.9,0c-1.6,0.5-3.3,0.8-5,1c-1.6-0.2-0.2-0.3-1.3-0.3h-0.8l-0.4,0.3c-0.6,0-1,0.1-1.2,0.1
	c-0.6,0-0.5-0.1-0.4-0.2c-2.2,0.1-1.8,0.5-4.5,0.5l0,0l1.5-0.3c-2,0.2-2.9,0.2-5.7,0.3c0.7-0.2,1.3-0.2,2-0.2l0,0
	c-0.3-0.1-0.6-0.1-0.9-0.1c-0.5,0-1,0.1-1.4,0.2c-0.4,0.1-0.7,0.2-1.1,0.2l0,0c0.2,0.1,2.2,0.1,1.3,0.4c-1.1,0-2.3,0.3-3.3,0.3
	c-0.2,0-0.5,0-0.7-0.1l1.5-0.3c-1.6,0.3-3.3,0.4-4.9,0.4c0.2,0,0.1-0.1,0.2-0.1c-1.4,0.2-2.8,0.3-4.2,0.3h-3.8l0.6-0.1
	c-1.3,0.1-2,0.4-2.7,0.4c1.8,0.1,1.3,0.2,1.5,0.4c-0.3,0-0.7-0.1-1-0.1c-0.8,0-1.6,0.1-2.4,0.3c-1.1,0.2-2.2,0.3-3.2,0.3h-0.8
	c0.4-0.2,0.9-0.3,1.4-0.3c0.2,0,0.5,0,0.7,0c1.2-0.6,2.5-1,3.8-1.1c-0.9,0.1-1.9,0.2-2.5,0.2c-0.3,0-0.4,0-0.4-0.1l-0.4,0.4h-2.3
	l0,0c-0.4,0.3,1.8,0.4-0.2,0.6c-0.3,0-0.6,0-0.8,0c-0.5,0-0.7-0.1-0.7-0.1s0-0.1,0-0.1h-0.1c-2.9,0.2-1.7,0.4-3.6,0.4h-0.8
	c0.3-0.1,0.7-0.1,1-0.1h-1.1h-1.3h-1.3c-0.8,0.1-1.6,0-2.3-0.3c0.3-0.2,0.7-0.3,1.1-0.2h0.2v0.1c0.8-0.1,0.8-0.2,0.6-0.2h-0.6h-0.8
	c-0.4,0-0.7,0-0.6-0.1c-1.1,0.1-2.1,0.2-3.2,0.2h-1.1l0.4,0.3c-0.7,0.2-1.3,0.3-2,0.3c-0.4,0-0.2-0.2-0.2-0.4s-0.2-0.4-1.4-0.4h-0.8
	c-2.9,0.3,1.1,0.1-0.7,0.3c-1.5,0-2.3-0.1-3.8-0.1c-0.5,0-1.1,0-1.8,0.1s-2.5-0.2-2.6-0.6c-0.6,0.1-1.4,0.1-2.3,0.1h-1
	c-1,0-2,0-3,0.2c0.5,0,1,0.1,1.3,0.1c0.6,0,1.1-0.1,1.6-0.1c0.5-0.1,1.1-0.1,1.6-0.1c0.7,0,1.3,0,2,0.1l-1,0.3c-2,0-4.3,0.1-6.1,0.1
	c-0.4,0-0.8,0-1.2,0c0.3,0.1,0.5,0.1,0.3,0.2c-3.1,0.1-4.3,0.4-6.9,0.4h-0.9c-0.4-0.3,1.5-0.3,3-0.3c-0.8-0.1-1.3-0.1-1.8-0.1h-1.1
	h-1.5h-1.3c-0.2-0.3,2.3,0,2.7-0.3l-3.7,0.1l0,0l0,0c-0.3,0.2-0.7,0.2-1.1,0.2c-0.4,0-0.9,0-1.4-0.1s-1.1-0.1-1.7-0.1
	c-0.3,0-0.6,0-1,0c-5.4,0-6.2,0.6-9.2,0.9c-0.8-0.1-1-0.2-0.7-0.3c0.3,0.1,0.6,0.1,0.9,0.1c0.3,0,0.3-0.1,0.6-0.2h-0.3
	c-1.8,0-3.7-0.4-2.7-0.6c-2.9,0.1,1,0.2-0.7,0.4h-4c0.5,0.2,1.9,0.3-0.2,0.4h-1.7c-0.9,0-1.7,0-3.2,0c0.3-0.1-0.6-0.3,0.8-0.3h0.2
	c-0.5,0-1-0.1-1.6-0.1c-0.6,0-1.3,0-1.9,0.2c2.5,0.2-4.1,0.2-2.2,0.5l-2.5-0.2l0,0c0.2,0,0.3,0,0.5-0.1c0.2,0,0.4,0,0.6-0.1h0.3
	c-0.2-0.1-0.5-0.1-0.7-0.1c-0.7,0-1.6,0.2-2.2,0.2c-0.9-0.1-3.2-0.1-3.3-0.2s-0.5,0-0.8,0c-0.7,0-1.5,0-2.2-0.2
	c-1.2,0.1-0.1,0.2-0.4,0.3l-4-0.1c-0.2-0.2-0.5-0.7,0.1-0.8c-1.4,0.1-0.6,0.5-2.5,0.5h-0.3c1.3-0.4-3-0.3-1.1-0.7
	c-1.7-0.2-3.3-0.3-5-0.3c-0.8,0-1.5,0-2.1,0c-1.3,0.3,2.2,0.2,2.1,0.5c-5.1,0-6,0.7-9.1,0.7h-1.3l1.1,0.1c-1.3,0-2.6,0.1-3.9,0.3
	c0.7-0.3-2.9-1-7.2-1h0.1c-0.4,0.2,2.4,0.4,1.7,0.6h-2.9c-0.2,0,0.1-0.1,0.5-0.1h-0.5c-0.8,0-1.6,0-2.3-0.1
	c-0.7-0.1-1.3-0.1-1.8-0.1c-0.3,0-0.6,0-0.9,0.2l-2.6-0.5l1,0.2c-1.3,0.2-2.5,0.3-3.8,0.3c-0.9,0.1-1.7,0.1-2.3,0.1
	c-1.1,0-2.2-0.1-3.2-0.3c0.5,0.2,1.8,0.5-0.5,0.5c0-0.3-1.2-0.4-2.4-0.4c-0.8,0-1.6-0.1-2.3-0.3c-0.7,0-1.8-0.2-2.3-0.2
	c-0.2,0-0.3,0-0.3,0.1l0.2-0.4c-0.1,0.2-0.6,0.2-1.2,0.2c-0.3,0-0.6,0-1,0l-1.9-0.2l-2-0.3c0.4-0.3-0.3-0.4-1.2-0.6
	c-0.9-0.1-1.7-0.4-2.4-0.9c-0.1,0-0.1,0-0.2,0c-0.7-0.1-1.5-0.3-2.2-0.6c-0.7-0.3-1.4-0.6-2.2-0.8h-0.1c-0.5-0.2-1-0.5-1.3-1
	c-0.2-0.2-0.1-0.4-0.3-0.6l-0.8-0.3c-0.4-0.3-1.1-1.1-2.1-1.9c-0.4-0.4-0.8-0.9-1.2-1.4l-0.6-0.7l-0.4-0.7c-0.5-0.4-1-0.9-1.4-1.3
	l-0.2-0.7c-0.2-0.1-0.7-1-0.8-1s0,0.1,0.1,0.3l-0.4-1h-0.1c-0.2,0-0.4-0.3-0.6-0.9s-0.6-1.4-1-2.4c0-0.2,0-0.4,0-0.4
	s0.1,0.1,0.2,0.4c-0.3-1,0-0.7,0-1.2l0,0c-0.3-0.4-0.6-0.8-0.8-1.2c-0.2-0.3-0.4-0.6-0.5-0.6s-0.1,0.3,0,1l0,0
	c-0.5-0.8-0.8-1.6-0.9-2.5l0.2-0.7l-0.6-0.9c-0.2-1.3-0.4-2.5-0.4-3.8c0.1,0.8,0.5,1.6,0.7,1.6s0.2-0.6,0-2.2c0.2,1.3,0.6,2.5,1,3.7
	c-0.1-0.2-0.1-0.5-0.1-0.7c0.1,0.2,0.2,0.4,0.3,0.7c-0.6-2.7-0.4-0.9-0.9-3.6h0.1c0.3,0,0.3-0.8,0.1-3.1c0,0.6,0,1.2,0,1.8
	c-0.1-0.1-0.1-0.2-0.1-0.3c0.1,0.7,0,0.9-0.1,1.1c-0.3-1.1-0.5-2.3-0.7-3.4c0,0.3-0.1,0.4-0.1,0.4c-0.3-0.6-0.4-1.2-0.4-1.8
	c-0.1-0.7-0.2-1.5-0.4-2.2c0,0,0,0.1-0.1,0.3c-0.2-0.8-0.2-1.7-0.1-2.5c0.1,0.5,0.2,0.7,0.2,0.7s0.1-0.5,0.2-1.1s0.1-1.1,0.2-1.1
	s0,0,0,0v-0.2c-0.1,0.2-0.1,0.4-0.1,0.6s0,0.4-0.1,0.6c0,0-0.1-0.1-0.1-0.3c0-1.1,0-2.2,0.2-3.2l0.1,0.6c0-0.7,0.1-1.5,0.2-2.2l0,0
	c0,0-0.1,0.2-0.2,0.5s-0.1,0.5-0.1,0.5s-0.1-0.2-0.1-0.8c0-0.8,0.1-1.7,0.2-2.5l0,0c0.2,1,0.6,0.3,0.6,2c0-0.7,0-2.2,0-3.2
	c0-0.7,0-1.2-0.1-1.2s-0.1,0.1-0.2,0.4l0.1-1.6c-0.1,0.7-0.3,1.4-0.5,2.1c-0.1,0-0.1-0.4,0-1.6h0.1v-1.2v-1.2l0.3-1l0,0
	c-0.1,0-0.1-0.4,0-1.2c0.1-0.2,0.4-0.9,0.5-0.9l0,0c0.6-2.4,0.3-2.3,0.3-2.6c0.3-0.9,0.5-1.4,0.6-1.4s0.1,0.1,0.1,0.3
	c0.3-0.9,0.7-2.2,1.2-3.3c0.4-0.9,0.8-1.9,1.3-2.7c0.2-0.3,0.3-0.7,0.4-1c0,0-0.1,0.1-0.2,0.2s-0.1,0.2-0.2,0.2s0-0.1,0.1-0.4
	c0.7-0.9,1.8-2.6,3.1-4.6c1.3-2,2.7-3.8,4.3-5.5c-0.1,0-0.2,0.1-0.3,0.1c-0.4,0,1-0.9,1.2-1.7l0,0c0.1,0,0.7-0.5,1.1-0.7
	c0.1-0.1,0.3-0.2,0.4-0.2c0.1,0-0.1,0.2-0.6,0.7c0.4-0.4,0.9-0.8,1.3-1.2c0.1,0,0.2-0.1,0.3-0.1c0.1,0-0.3,0.4-0.7,0.9
	s-0.9,0.9-0.7,0.9c0.2,0,0.4-0.1,0.6-0.2c0.9-0.8,1.6-1.6,2.4-2.3c0.4-0.4,0.8-0.7,1.3-1.1c0.5-0.4,1.1-0.8,1.7-1.1
	c-0.1,0.1-0.1,0.2-0.1,0.2c0.3-0.1,0.5-0.3,0.8-0.4c0.2-0.2,0.5-0.3,0.8-0.4c0.1,0,0.1,0,0,0.2c-0.6,0.5-1.2,0.9-1.9,1.2l0.5-0.2
	c2.3-1.3,2.6-1.6,2.6-1.7s-0.3-0.3,0.9-1c0.8-0.3,1.3-0.6,1.7-0.7c0.2-0.1,0.5-0.1,0.7-0.1l0,0c0.3,0,0.2,0.2,0.3,0.2
	c0.7-0.2,1.3-0.4,1.9-0.7c-0.6,0.2-1.2,0.3-1.8,0.4c-0.3,0-0.4-0.1-0.1-0.3c0.5,0,0.9-0.1,1.4-0.3l0.8-0.3l0.8-0.2
	C1068.4,119.8,1069.3,119.5,1070,119.3 M1071.9,116.9L1071.9,116.9L1071.9,116.9 M1209.8,103.5c0,0.1,0.1,0.2,0.1,0.3L1209.8,103.5
	 M1188.4,67.7c-0.1,0-0.1,0-0.1,0l0,0C1188.3,67.7,1188.4,67.7,1188.4,67.7L1188.4,67.7 M1174.4,64.6c-0.8,0-1.7,0-2.6,0.1
	c-4.4,0.3-8.7,1.3-12.8,2.9c-5,2-9.6,4.7-13.8,8c-4.7,3.7-8.9,7.9-12.5,12.6c-3.7,4.9-7.2,10.1-10.2,15.4c-3.1,5.3-6,10.7-9,15.7
	c-1.5,2.5-3,5-4.6,7.3c-0.4,0.5-0.7,1.1-1.1,1.6l-0.2,0.3l-0.1,0.2l-0.1,0.1l-0.2-0.1l-0.1-0.1l-0.1-0.1l-0.5-0.6
	c-0.7-0.8-1.4-1.6-2.2-2.3c-0.7-0.7-1.5-1.5-2.3-2.1c-3-2.5-6.3-4.4-9.8-5.9c-4.4-1.8-9.1-2.8-13.8-2.8c-1,0-1.9,0-2.7,0.1l0,0
	c-1,0.2-3.8,0.6-2.7,0.8c-2.1,0.3-3.2,0-3.5,0.3h0.7c0.7,0,0.5,0.2,0.3,0.4s-0.3,0.4,0.8,0.4h0.3l-1.8,0.3l0,0
	c0.3,0,0.6-0.1,0.9-0.2c0.3-0.1,0.7-0.1,1-0.2c0.1,0,0.2,0,0.1,0.1l0.4-0.5h0.8c0.7,0,1.3,0,2,0.2c0.7-0.1,1.2-0.3,2-0.4
	c0.4-0.1,0.7-0.1,1.1-0.1c0.8,0,1.6,0.1,2.4,0.3l-0.9-0.1c1.3,0.1,1.7,0.3,1.8,0.4s0,0.2,0.3,0.3l-0.6-0.1l2.2,0.6
	c-0.9-0.2-1.7-0.4-2.6-0.4h-0.1c-0.7,0-1,0-0.3,0.1s1.2,0.2,1.2,0.2s-0.1-0.1-0.3-0.1s-0.3-0.1-0.1-0.1c0.2,0,0.5,0,0.7,0.1
	c1.4,0.2,1,0.4,0.9,0.5c0.9,0.1,1.7,0.3,2.5,0.6c0,0-0.1,0-0.1,0c-0.2,0-0.3,0-0.5-0.1l-0.4-0.1c0,0,0,0,0.3,0.2l1.6,0.3l1.6,0.4
	c0.2,0.4,1.1,0.5,2,0.9c0.9,0.2,1.8,0.7,2.6,1.3c-0.3-0.1-0.6-0.3-0.9-0.4c-0.1,0,0.1,0.2,0.3,0.3s0.4,0.3,0.3,0.3l0,0
	c0.8,0.4,1.7,0.8,2.5,1.3c0.8,0.5,1.6,1,2.4,1.5c0.1,0.1,0.1,0.1,0,0.1c-0.2-0.1-0.3-0.1-0.4-0.2l-0.4-0.2l0.2,0.1
	c0.6,0.5,1.3,0.9,2,1.3c0.5,0.5,1.1,1.1,1.7,1.6c0.7,0.7,1.3,1.4,1.1,1.4c0.6,0.7,1,1.1,1.3,1.4c0.2,0.2,0.4,0.3,0.6,0.5
	c0.2,0.1,0.4,0.3,0.6,0.4c0.2,0.2,0.3,0.3,0.5,0.5c0.2,0.3,0.4,0.6,0.7,1c0,0.1,0,0.1,0,0.1c-0.3-0.3-0.5-0.6-0.8-1
	c-0.1-0.2-0.3-0.3-0.4-0.5c0,0,0,0.1,0.2,0.4c0.4,0.6,0.8,1.2,1.3,1.7l0.6,0.9l0.6,0.9c-0.5-0.4-1-0.9-1.3-1.4
	c0.8,1.3,1.5,2.6,2.2,3.9l0.1,0.1l0.1-0.1l0.3-0.3l0.6-0.6l1.1-1.3c0.8-0.8,1.4-1.7,2.1-2.5l1-1.2l0.8-1c0.5-0.7,1.1-1.3,1.6-2
	c2.2-2.8,4.1-5.9,5.8-9c0.2-0.2,0.3-0.3,0.3-0.3c-0.3,0.7-0.6,1.4-1,2.1c3.1-6,5.2-8,8.1-12.9l-0.1-0.2c4.6-6.5,9.2-14.7,15.4-20.7
	l-0.8,0.7c0.4-0.6,0.9-1.2,1.4-1.7c0.6-0.6,1.1-1.2,1.6-1.7l0,0c0,0,0,0.1,0,0.1s0,0.1,0.1,0.1s0.4-0.2,1.2-1
	c-0.3,0.3-0.7,0.5-1.1,0.7c0,0,0,0,0-0.1c4-3.4,8.3-6.3,13-8.6c4.6-2.3,9.7-3.6,14.9-3.7c1,0,2,0.1,2.9,0.2
	c3.9,0.3,7.7,1.4,11.2,3.2c1.8,0.9,3.5,2,5.2,3.2c1.6,1.2,3.2,2.5,4.6,4c5.8,5.8,9.6,13.2,12.2,20.7c-0.2-0.8-0.3-1.1-0.2-1.1
	s0.5,0.7,0.8,1.7c0.4,2.3,0.9,4.6,1.6,6.8c0.2,0.5,0.3,1.1,0.4,1.6c0.1,0.3,0.1,0.6,0.2,0.8c0.1,0.5,0.2,1.1,0.3,1.6
	c0.2,1.1,0.4,2.3,0.6,3.5s0.3,2.6,0.4,4c0.2,1.6,0.5,3.2,0.7,4.8c0.2,1.6,0.4,3.1,0.7,4.6l6.6-9.2c1.1-1.5,2.2-3,3.3-4.4l0.8-1.1
	l0.6-0.8l0.9-1c2.3-2.7,4.7-5.3,7.2-7.7l0.3,0.1c1.1-0.7,1.2-1,2.3-1.7v0.1c1.3-0.8,2.7-1.5,4.1-2.2c1.1-0.5,2.2-0.9,3.4-1.2v-0.3
	c1.7-0.4,0.9,0,2.7-0.4v0.2c0.7-0.2,1.3-0.3,2-0.4c0,0.1,0.2,0.2,0.7,0.2s1.1,0,1.8,0.1c0.7,0.1,1.3,0.2,2,0.3
	c0.5,0.1,1,0.3,1.4,0.5c1.4,0.4,2.7,1,3.8,1.8c1.5,1,2.8,2.2,3.9,3.6c0.1,0.3,0.8,1.3,1.6,2.6c0.8,1.3,1.5,2.7,2.1,4.2
	c1.4,2.9,2.3,5.9,2.8,9c0.3,1.8,0.4,3.5,0.4,5.3c0,0.4,0,0.9,0,1.3v0.7v0.3v0.2c0,0,0,0.1,0,0.2l-0.3,2.6c-0.1,0.9-0.3,1.9-0.5,2.8
	l0.4-0.5l-0.7,3.7c0,0-0.1,0.3-0.2,0.3s0-0.1,0-0.2c0,0.1-0.1,0.3-0.1,0.5c0.2,0,0.4,0,0.6,0c1.3,0,3.2-0.2,5-0.4l2.9-0.2l1.3-0.1
	h0.4h0.3l-0.3-0.1h-0.2h-0.3c-0.3,0-0.7,0-1,0.1c-0.6,0.1-1.3,0.2-2.4,0.2h-0.2c-2.5,0,0.4-0.5,3.9-0.6v0.1l1.5-0.2
	c0.2,0.2,1.5,0.3,1.7,0.6c3.2-0.1,5.9-0.2,8.7-0.2h0.8c1.7,0,3.4,0,5.3,0.2V134c-0.7,0-1.5-0.2-2.2-0.4c-0.5,0.1-1,0.2-1.5,0.2
	c-0.8,0-1.7-0.1-2.7-0.1s-1.8-0.1-2.5-0.1c-0.4,0-0.8,0-1.1,0.2l-2.2-0.3c-0.1,0.1-0.5,0.5-2.3,0.6c-1.7-0.1-1.3-0.4-1.8-0.5
	l-1.1,0.6h-1.2l-0.5-0.1h-0.4c-0.1,0-0.2,0-0.3,0c0.1-0.2,0.1-0.4,0.2-0.6l0.1-0.5l0,0c0,0,0-0.4,0-0.7v-0.9c0.1-2.4,0-4.8-0.3-7.2
	c-0.6-4.7-1.9-9.2-3.9-13.5c-1.3-2.5-3-4.9-4.8-7c-2.1-2.4-4.6-4.4-7.3-6l0.7,0.3c-1.8-1.1-3.8-2-5.9-2.6c1.5,0.4,3,1,4.4,1.8
	c-0.6-0.3-1.2-0.5-1.8-0.7l-0.9-0.3l-0.9-0.3c-2.3-0.7-4.6-1.1-7-1.1c-1.5,0-3,0.1-4.4,0.4c-4.1,0.7-7.9,2.3-11.4,4.6l0,0
	c-1,0.8-1.7,1.4-2.2,1.7c-0.4,0.3-0.8,0.5-1.3,0.8c-1.2,0.6-2.3,1.5-3.1,2.6c0.3-0.3,0.3-0.5,0.6-0.8c-1.6,1.5-3,3.2-4.4,4.9
	c-0.6,0.8-1.2,1.6-1.8,2.4c-0.2,0.2-0.3,0.4-0.5,0.7l-0.1,0.2l0,0v0.1l-0.2,0.4c0-0.2-0.1-0.2-0.1-0.2s-0.1,0.1-0.1,0.2
	s-0.1,0.3-0.1,0.3s0,0,0-0.1v0.5h-0.2h-0.1c-0.1,0-0.1-0.1,0-0.3c0,0.1-0.1,0.3-0.2,0.5l-0.1,0.2l0.2-0.6c0-0.2-0.1-0.5-0.2-0.8
	v-0.2V112c0-0.1,0-0.2,0-0.3c-0.1-0.6-0.2-1.3-0.2-1.9c-1.2-4.3-2.6-8.5-4.2-12.7c-0.9-2.3-2-4.7-3.2-6.9c-1.2-2.2-2.5-4.3-3.9-6.3
	c-1-1-2.7-3.1-4.2-4.7c-0.4-0.7-0.9-1.2-1.4-1.9c-0.8-0.8-1.8-1.4-2.6-2.1s-1.8-1.3-2.6-2l0,0c0.1,0,0.1,0,0.2,0.1
	c-1.7-1.4-3.6-2.5-5.6-3.4c-1.9-1.1-3.8-2-3.7-2.2c-0.3,0-0.5-0.1-0.8-0.2c-0.5-0.2-1.1-0.4-1.7-0.7s-1.2-0.5-1.7-0.7l-0.8-0.3
	l-0.8-0.2l-2.3-0.5l-1.7-0.2c-0.7-0.1-1.3-0.2-2-0.2L1174.4,64.6"/>
<path class="st0" d="M363.9,234.7h0.2l0,0H363.9 M363.6,234.7C363.6,234.7,363.6,234.7,363.6,234.7
	C363.7,234.8,363.6,234.8,363.6,234.7l0.2,0.1L363.6,234.7 M364.3,234.3c-0.1,0-0.1,0-0.1,0H364.3L364.3,234.3 M377.9,191
	c0,0.1,0,0.1,0,0.2C377.9,191.1,377.9,191.1,377.9,191 M365.8,234.4c0-0.1,0-0.1,0.1-0.1c0,0,0,0,0,0
	C366,234.4,365.9,234.4,365.8,234.4 M364.1,234.3l-0.1-0.1c0.2,0,0.4,0.1,0.6,0.2h-0.2c0.3,0.2,0.6,0.4,1,0.6c0.1-0.1,0-0.2,0-0.2
	c0.1,0,0.3,0.1,0.4,0.1h0.1l0.1,0.1l0.3,0.1c0.1,0,0.1,0.1,0.1,0.1l0,0c-0.1,0-0.2-0.1-0.3-0.1c0.1,0,0,0.1,0,0.1
	c-0.4,0-0.8-0.1-1.1-0.2c-0.2-0.2-0.7-0.5-0.6-0.6L364.1,234.3 M374.4,179.6c-0.5,0-0.9,0-1.4,0.1c-1.3,0.2-2.5,0.7-3.6,1.4l0.2-0.1
	c-1,0.5-2,1.1-2.9,1.8c-0.9,0.6-1.7,1.4-2.4,2.2c0.1,0.1-0.2,0.3-0.2,0.5c-0.1,0-0.2,0.2-0.5,0.5c-0.3,0.4-0.6,0.9-0.9,1.4
	c-0.2,0.3-0.3,0.7-0.5,1c-0.2,0.4-0.3,0.7-0.5,1.1c-0.3,0.7-0.5,1.5-0.8,2.3c-0.9,3.1-1.2,6.4-1.4,6.8c0,0.2,0,0.5,0,0.7
	c-0.1,0.5-0.2,1-0.3,1.4l-0.1,0.7l0,0.4v0.2c-0.1,0.4-0.2,0.7-0.3,1c-0.1,0.3-0.2,0.7-0.3,1v0.1l-0.1-0.1l-0.1-0.1
	c0,0.2,0,0.4-0.2,0.6c-0.1-0.2-0.1-0.2-0.2-0.2h-0.1c0,0,0,0-0.1,0c0,0-0.1,0-0.2-0.1c-0.4-0.9-0.5-1.1-0.6-1.2l0,0
	c-0.1,0-0.1,0.1,0,0.4c-0.2-0.1-0.2-0.1-0.5-0.3l-0.9-0.5c-1.4-0.9-2.9-1.6-4.5-1.8c-0.5-0.1-0.9-0.3-1.3-0.6c-0.4,0-0.7-0.1-1-0.1
	c-0.2,0-0.4,0-0.6-0.1c-0.5-0.1-0.9-0.2-1.4-0.2h-0.3c-0.1,0-0.2,0-0.2,0c-0.8,0.1-1.6,0.3-2.4,0.7c-1.1,0.5-2.1,1.2-2.4,1.3
	l0.3-0.2c-0.5,0.2-0.9,0.5-1.4,0.7s-0.8,0.4-1.2,0.7c-0.9,0.5-1.7,1.3-2.3,2.1c-1.1,1.5-1.7,3.3-1.7,5.1c0,0.2,0,0.5,0,0.7l0.1,0.7
	c0.1,0.5,0.2,0.9,0.3,1.4c0.3,0.8,0.7,1.6,1.2,2.4c0.9,1.2,1.9,2.3,3.1,3.3c1,0.9,2,1.6,2.9,2.3c0.2-0.2-0.8-0.6-0.6-0.9
	c2.1,1.7,4.1,3.6,6.3,5.2c0.3,0.3,0.6,0.6,0.9,1c0.7,0.6,0.5,0.2,1,0.6l-0.1,0.3c0.9,0.3,1,1,1.8,1.4h0.1c0.2,0.1,0.4,0.2,0.6,0.3
	c-0.1,0.3,0.8,0.5,0.6,0.7l0,0c0.2,0.1,0.3,0.2,0.4,0.3c0.4,0.1,3.6,1.2,4,1.3l0.1,0.1c0.1,0.1,0.3,0.1,0.5,0.2c0.1,0,0.2-0.1,0-0.2
	l0.5,0.3h-0.1l0.5,0.3c0.1,0.1,0.1,0.3-0.1,0.3c0.4,0.1,0.7,0.2,1,0.5c-0.8-0.7-1.6-1.5-2.4-2.3c0.5,0.3,0.9,0.5,1.4,0.9
	c0.6,0.6,1.2,1.2,1.9,1.7c0,0,0.1,0,0.1,0h0.2c0.2,0,0.3,0.1,0.4,0.2c0.1,0.3,0.4,0.2,0.6,0.6c-0.4-0.1-0.8-0.3-1.1-0.6
	c-0.1,0.3,0.8,0.7,1,0.9c0.2,0,0.8,0.5,1.3,0.6c-0.2,0.1,0,0.2,0.2,0.4h0.1H364c0.1,0.1,0.2,0.2,0.3,0.2c0.1,0.1,0.2,0.1,0.4,0.2
	c0.1,0,0.1,0,0.1-0.1s0-0.1,0-0.2l0.3,0.1c0.4,0.1,0.8,0.2,1.3,0.2l0,0c0,0-0.1-0.1,0-0.1l0,0c0,0,0.1,0,0.1-0.1
	c0.1,0,0.1-0.1,0-0.1h-0.2c-1.3-0.8,1.9-0.7,0.4-1.6c0.2,0.2,0.2,0.3,0.1,0.3c-0.4-0.1-0.8-0.3-1.1-0.5c-0.1-0.3-0.4-0.6-0.7-0.8
	c-0.1-0.1-0.2-0.1-0.3-0.1c-0.1,0-0.1,0.1-0.1,0.1c-0.2-0.2-0.6-0.5-0.5-0.6c-0.4,0-0.5-0.4-0.9-0.6h-0.2c0,0,0,0,0,0s0,0,0,0h-0.1
	c-0.5-0.3-1.2-0.8-1.6-1c-0.1-0.2-0.4-0.8,0.1-0.8c0.8,0.5-0.5,0.2,0.3,0.6c0-0.1,0-0.2,0.1-0.2c0.1,0,0.3,0.1,0.4,0.2
	c0.2,0.1,0.3,0.2,0.5,0.2h0.1c-0.3-0.4-0.7-0.7-1.2-0.8l0.1,0.1c-0.6-0.2-1.1-0.6-1.5-1c0.1,0,0.1-0.2,0.2-0.2l0.1,0.1l-0.5-0.3h0
	c-0.1,0-0.1,0,0,0.1c-0.3-0.1-0.5-0.2-0.7-0.4c0-0.1-3.1-1.2-3-1.3c-0.1-0.1-0.3-0.2-0.4-0.3c0.9,0.5,2.9,1.4,2.9,1.4h0
	c-0.2-0.3-4.6-2.1-4.7-2.5c-0.2-0.1-0.4-0.2-0.6-0.3c0,0-0.1,0-0.1,0.1c-0.4-0.4,0.3-0.1,0-0.5l0,0c0,0,0,0-0.1,0l-0.2-0.4
	c-0.8-0.3-1.7-1.2-2.6-1.5c0.4,0,0.9,0,1.3,0.2v0.1c0.2,0.1,0.3,0.1,0.5,0.1c0,0,0.1,0,0.1,0c-0.4-0.4-0.8-0.7-1.4-0.8
	c-0.1-0.1-0.1-0.2-0.2-0.3l0,0c-0.1-0.2-0.1-0.2,0-0.2h0c0-0.5-1.9-1-2.6-1.8l-0.1-0.1H348c-0.1,0-0.1,0-0.2-0.1
	c-0.7-0.7-1.2-1.3-2-2h-0.2c-0.2,0-0.2,0.1,0,0.4l-0.6-0.5h0.1c0.4,0,0.1-0.3-0.1-0.6s-0.4-0.6-0.1-0.6h0.1
	c-0.2-0.3-0.5-0.6-0.9-0.8c-0.1,0-0.1,0.1-0.2,0.1c-0.2,0-0.4-0.1-0.5-0.2c-0.3-0.3-0.5-0.6-0.7-0.9c0-0.2,0.2-0.1,0.3-0.2
	c-0.8-0.4-0.4-0.8-0.9-1.3c-0.3-0.3-0.8-0.9-1-0.9H341c-0.3-0.5,0-0.6,0.2-0.6c0-0.1-0.1-0.2-0.1-0.4c0.7,1.5,1.8,2.9,3.2,3.9
	c-0.7-0.8-1.3-1.7-1.9-2.6c-0.4-0.6-0.6-1.3-0.6-1.9c-0.1-0.5-0.1-1,0-1.5c0.1-0.7,0.2-1.4,0.4-2.1c0.2,0.1,0.3,0.1,0.5,0.1
	c0.6,0,1.1-0.1,1.7-0.3c0.8-0.2,1.6-0.3,1.6-0.4c0.5-0.4,1.2-0.6,1.8-0.7c-0.2,0-0.4,0.1-0.6,0.1c-0.2,0-0.4,0.1-0.6,0.2
	c0.2-0.1,0.4-0.2,0.6-0.2c0.2-0.1,0.4-0.1,0.6-0.1l0.3-0.1h0.4c0.2,0,0.5,0,0.7,0.1c0.5,0.1,1.1,0.2,1.6,0.4
	c0.6,0.2,1.1,0.4,1.6,0.7c0.3,0.1,0.5,0.3,0.8,0.4c0.2,0.1,0.4,0.2,0.5,0.4l0.6,0.4c2.1,1.6,4,3.4,5.8,5.3l3,3.1l1.5,1.6l0.8,0.8
	c0.2,0.2,0.4,0.4,0.6,0.6c-0.3-2.1-0.6-4.2-0.9-6.4c-0.2-1.1-0.4-2.4-0.6-3.9c-0.1-0.7-0.2-1.4-0.2-2.2s0-1.4-0.1-2.2
	c0-0.8,0-1.5,0.1-2.3c0-0.5,0.1-0.8,0.1-1.2c0.1-0.8,0.3-1.6,0.5-2.4c0.3-1.5,0.8-3,1.4-4.5c0.4-1,0.9-2.1,1.6-3
	c0.3-0.4,0.5-0.7,0.8-1c-0.3,0.4-0.7,0.7-0.9,1.1c0.6-1.7,1.6-3.2,2.9-4.5c-0.4,0-0.8,0.1-1.2,0.3c0.2-0.2,0.5-0.3,0.8-0.5
	c0.3-0.5,0.7-1,1.2-1.3c0.3-0.2,0.5-0.3,0.8-0.5c0.3-0.1,0.5-0.3,0.7-0.3c0,0.1,0.1,0.2,0.3,0.2h0.7l-0.2-0.1h0.2
	c0.8,0,1.7,0.2,2.3,0.8c0.8,0.6,1.3,1.4,1.5,2.4c0.1,0.2,0.1,0.4,0,0.6c0.2,0.7,0.3,1.3,0.4,2l0,0c-0.1,0-0.2,0.3-0.2,0.5
	s-0.1,0.5-0.1,0.5s0,0-0.1-0.1c0.1,0.8,0.1,1.6,0,2.4c-0.1,0.9-0.2,1.8-0.1,2.6c-0.9,6.1-2.1,12.5-3.4,18.8l0.1-0.1
	c-0.4,2.2-0.4,4.3-1.5,6.8c-0.2,2-1,4.7-0.7,5.6c-0.7,2.1-0.8,3.1-1.5,5.2c0,0,0.1,0,0.1-0.1c0.1,0,0,0.4,0,0.7s-0.2,0.7-0.1,0.7
	s0.1-0.1,0.2-0.2c1-1.2,0.7-1.4,1.5-2.4h-0.1c2.7-5.3,5-10.9,6.7-16.6c0.8-3.9,2-8.1,2.8-12.2c0.4-2.2,0.7-4.5,0.9-6.8
	c0.3-2.3,0.3-4.5,0.1-6.8c-0.2-1,0-1.9-0.2-2.9c-0.4-1.2-1-2.4-1.8-3.4c-0.2-0.3-0.5-0.5-0.7-0.8c-0.3-0.3-0.5-0.5-0.8-0.7
	c-0.3-0.2-0.6-0.4-0.9-0.6c-0.3-0.2-0.7-0.3-1-0.5c-1-0.4-2-0.5-3-0.5"/>
</svg>
