<svg id="Capa_1" data-name="Capa 1" xmlns="http://www.w3.org/2000/svg" xmlns:xlink="http://www.w3.org/1999/xlink" viewBox="0 0 201.32 26.69"><defs><style>.cls-1{fill:none;}.cls-2{clip-path:url(#clip-path);}.cls-3{fill:#61a7bc;}</style><clipPath id="clip-path"><path class="cls-1" d="M-199.65-415.33c-21.26,5.75-43.7,12.88-57.67,29.9-15.69,19.12-16.9,46.06-15.49,70.75,1.88,32.79,7.26,65.88,21.31,95.58s37.53,55.86,68,68.12c46.91,18.87,100,2.43,147.08-15.86,36.75-14.26,75.2-31.37,96.89-64.28,25-37.95,21.11-89.9-.89-129.66C42.2-392.2-3.37-446.86-42.59-448.5c-22.76-1-50.48,8.7-72.71,13.21Q-157.78-426.66-199.65-415.33Z"/></clipPath></defs><g class="cls-2"><image width="1000" height="672" transform="translate(-538.44 -498.71) scale(0.74)" xlink:href="../../../../../../../../Downloads/AdobeStock_515390288_Preview.jpeg"/></g><path class="cls-3" d="M42.4,5.1c17-2.39,38-1.21,55.19-2.93,20.69-2.24,43.19-2.36,63.93-2,0,.91-1.76,2.24,0,2.73,6.89,1.46,6.85,3.28,6.82,5.09,0,.91-5.16-.08-3.46.86-5.16-.1-13.77.28-8.62,1.24,1.71.92,8.6.12,10.29,1.51s-1.76,2.7-.06,4.08l6.85.13c1.69.95-1.76,2.69-.05,2.73,5.11,1,12,.74,18.8.93,0,.91,1.66,1.87-1.77,2.22-59.85-.93-121.27,2.14-181,5-6.84,0-1.87-2.14,3.16-3.86-1.67.58-1.77-.78-3.44-.21-.1-1.36,3.16-3.87,10-4.78l-5.14.35c-1.74-.34-.09-1.36-.15-2.27,1.71-.12,3.42-.24,3.39-.69L17,13.42l-6.86.47c1.72-.11,3.43-.23,3.4-.69l-.12-1.81c3.4-.7,8.62-.1,12-.78l-.08-1.36c-3.47-.23-8.61.53-12,.78C15,9.46,15,9,14.93,8.1c5.13-.8,10.38.24,15.46-1.43L25.23,7C28.53,4.49,37.26,5.83,42.4,5.1Z"/></svg>