<svg xmlns="http://www.w3.org/2000/svg" viewBox="0 0 328.54 379.59"><defs><style>.cls-1{isolation:isolate;}.cls-2{fill:#fff;stroke:#1d1d1b;stroke-miterlimit:10;stroke-width:0.35px;}.cls-3{fill:#f0d44f;mix-blend-mode:darken;}</style></defs><g class="cls-1"><g id="Capa_1" data-name="Capa 1"><path class="cls-2" d="M193.54,132.47a3.67,3.67,0,0,1,.57.27l-.17,1.1-.15,0C193.71,133.36,193.63,132.92,193.54,132.47Z"/><path class="cls-2" d="M40.12,149.89a3.67,3.67,0,0,0,1.76.72c2.48,0,4.77,1,7.2,1.26a11.57,11.57,0,0,1,4.22,1.07c1.09.58,1.83,1.8,2.75,2.71,1.62,1.6,3.26,3.18,4.9,4.76,1.28,1.25,2.68,2.39,3.85,3.73a73.12,73.12,0,0,0,13.68,11.71c3.47,2.41,7.09,4.6,10.25,7.44,1.06,1,2.55,1.39,3.82,2.12a2.7,2.7,0,0,1,.69.55c2.28,1.18,4.54,2.44,6.83,3.65a1.89,1.89,0,0,1,1.83.87l0,.09a55.4,55.4,0,0,0,5.24,2.33,1.14,1.14,0,0,1,.89-.1,1.38,1.38,0,0,1,.92.73,28,28,0,0,0,6.38,1.27,2,2,0,0,1,1.39.67c.18,0,.36.06.55.11.47.13.92.3,1.39.46a55.11,55.11,0,0,0,11.83,2.82,1.48,1.48,0,0,1,1.39,2,37.64,37.64,0,0,1-2.23,7.46,31.88,31.88,0,0,0-1.45,4.12q-4,12.8-8,25.6c-1.59,3.22-2.47,6.7-3.89,10a54.42,54.42,0,0,1-2.42,5.32,32.11,32.11,0,0,0-2.44,5.3c-2.14,6.15-5.2,11.9-7.73,17.89a2.08,2.08,0,0,1-1.45,1.14,2.17,2.17,0,0,0-1.19.76,1.55,1.55,0,0,0,0,1.33,2.33,2.33,0,0,0,1.14.84,34.9,34.9,0,0,0,4.58,1.67,60.07,60.07,0,0,0,15.9,2.05c2.93-.09,5.85-.09,8.78-.12.65,0,1.29.07,1.94.11.46,0,1,.53,1,.87-.62,5.34-.4,10.72-.66,16.08-.39,7.95-.9,15.91-1.33,23.86-.19,3.41-.32,6.83-.46,10.24-.12,2.92-.21,5.85-.29,8.78a2.39,2.39,0,0,1-.75,1.71,36,36,0,0,0-3,3.17,30.1,30.1,0,0,1-5.65,5.34c-2.6,1.95-5.1,4-7.63,6.07-.39.31-.77.61-1.12.94a9,9,0,0,0-3.1,7.38c.1,2.18.73,2.78,2.93,3.22a9.78,9.78,0,0,0,5.73-.78c1.65-.7,3.27-1.44,4.88-2.21a14.83,14.83,0,0,0,4.61-3.55c3.24-3.65,6.58-7.22,8.81-11.64.52-1,1.22-1.92,1.81-2.9a2.85,2.85,0,0,0,.1-3.2,2.08,2.08,0,0,1-.14-1.38,38.67,38.67,0,0,0,.54-7.29c.05-2.6.09-5.21.36-7.79.91-8.42,1.22-16.87,1.51-25.32.23-6.66.46-13.33.44-20a7.87,7.87,0,0,1,.12-1,1.73,1.73,0,0,1,1.22-1.35c2.1-.22,4.2-.43,6.31-.59a.86.86,0,0,1,.65.52,10.76,10.76,0,0,1,.34,2.38c0,7.65.07,15.29.41,22.93.14,3.08,0,6.18,0,9.27,0,2.92,0,5.85,0,8.77-.11,4.87-.3,9.75-.42,14.62a7,7,0,0,1-.93,4.2,2.17,2.17,0,0,0-.23.94,2.67,2.67,0,0,0,.62,2.26,8.16,8.16,0,0,0,3.19,2.18c2.87,1.15,5.69,2.43,8.61,3.42,3.69,1.26,7.37,2.52,11,3.92.61.23,1.25.36,1.88.53a6.93,6.93,0,0,0,8-3,3.6,3.6,0,0,0-.95-5.15,15.19,15.19,0,0,0-3.5-1.67c-5.93-1.73-11.88-3.34-17.83-5a.94.94,0,0,0-.46.07l-.18.06-2.63-1.78a2.07,2.07,0,0,0,0-.5c-.05-2.93.26-5.84.35-8.76q.81-24.36.88-48.75a6.81,6.81,0,0,1,.18-1.92,2,2,0,0,1,.87-1.09,6.42,6.42,0,0,1,2.24-.84,82.6,82.6,0,0,0,17.1-3.66c1.22-.42,2.52-.64,3.77-1,1.92-.55,2.46-1.38,2-3.18a53.85,53.85,0,0,0-1.56-5.63,96.53,96.53,0,0,1-3-10.79c-.73-3-1.66-5.95-2.43-8.93-1.13-4.41-2.2-8.84-3.3-13.25-.66-2.68-1.32-5.36-2-8,0-.14.08-.31.13-.46.25.1.62.14.73.33,1.46,2.34,3,4.66,4.3,7.07,2.59,4.71,5.7,9.09,8.53,13.65,3.33,5.38,6.84,10.65,9.75,16.28.51,1,1.21,1.92,1.79,2.89a6.24,6.24,0,0,1,.63,1.3,2.51,2.51,0,0,1-.39,2.73c-.78.82-1.59,1.63-2.32,2.5a7,7,0,0,0-1,1.66,1.41,1.41,0,0,0,.3,1.78,2,2,0,0,1,.75,2.54,4.31,4.31,0,0,0-.07,1.44,1.32,1.32,0,0,0,1.81,1c.54-.35,1-.81,1.57-1.12a.89.89,0,0,1,.81.27c.4.69.64,1.48,1,2.18a1.38,1.38,0,0,0,2.09.19,8.44,8.44,0,0,0,1.66-3.48.79.79,0,0,1,1.2-.34c.43.23.79.57,1.23.77a1.9,1.9,0,0,0,2.25-.27,1.88,1.88,0,0,0,.45-1.81c-.37-1.24-.84-2.45-1.27-3.68a1.18,1.18,0,0,1,.69-1.56c1.07-.37,2.15-.72,3.2-1.12a1.64,1.64,0,0,0,1-1.56,1.78,1.78,0,0,0-.88-1.62,14.56,14.56,0,0,0-4.54-1.73c-1.48-.36-2.44-.57-3.16-.81a1.7,1.7,0,0,0-1.3-.66,17.49,17.49,0,0,1-2.73-3.57c-2.19-3.23-4.75-6.2-6.89-9.45-3.23-4.88-6.31-9.86-9.33-14.87-3.28-5.45-5.49-11.41-7.86-17.29-1.64-4.07-3.13-8.2-4.85-12.24A71.4,71.4,0,0,1,168,195.61a11.65,11.65,0,0,0-.49-1.48,2,2,0,0,0,0-1q-.7-2.49-1.29-5l.67-.17a12.38,12.38,0,0,0,4.39-2.06c1.83-1.35,3.67-2.71,5.38-4.19a25.78,25.78,0,0,0,6.44-8.49,60.4,60.4,0,0,0,6.14-24.44c0-.44,0-.87,0-1.31,0-.84,0-1.68,0-2.53-.07-1.78,0-3.56,0-5.34,0-.11.18-.28.31-.33a.85.85,0,0,1,0-.17c-.21-1.23-.35-2.47-.45-3.7-.18-.06-.35-.14-.4-.26a14.46,14.46,0,0,1-.82-4.88c.26.15.61.27.64.45a2.23,2.23,0,0,0,.29.78q-.07-1.24-.18-2.49a1.66,1.66,0,0,1,.74-1.62.77.77,0,0,1,.56-.68c.31-.08.64-.12.95-.21,2-.57,2.22-1.05,1.75-3.2a6.2,6.2,0,0,1-.28-.93.88.88,0,0,1,.79-1,6,6,0,0,0,.95-.23c1.11-.47,1.43-1.49.69-2.29a13.79,13.79,0,0,0-1.74-1.68,80.66,80.66,0,0,0-12-7.43c-.72-.37-1.47-.68-2.2-1-1.39-.7-1.59-1.22-1-2.72.46-1.22.89-2.45,1.45-3.62,2.39-5,4.74-10,7.24-14.92A66.85,66.85,0,0,1,200,69.17q3.34-3.18,6.95-6a34,34,0,0,1,15.77-7.24,37,37,0,0,1,8.7-.89,12.39,12.39,0,0,1,6,1.92c3.48,2.19,4.88,5.53,5.3,9.4.14,1.28,0,2.59.08,3.88,0,.24.35.55.6.66a1.11,1.11,0,0,0,.9,0,14,14,0,0,0,2.46-2.33A29.36,29.36,0,0,0,251.43,59,16.18,16.18,0,0,0,250.54,48a59.35,59.35,0,0,0-5.24-8.78,8.36,8.36,0,0,0-2-2.07,22,22,0,0,0-11.61-4.64,108.85,108.85,0,0,0-15.11-.07,56.45,56.45,0,0,0-11,2c-6.76,1.84-13.2,4.54-19.71,7A33.41,33.41,0,0,0,182.78,43a141.52,141.52,0,0,0-19.16,11.63c-.13.1-.28.18-.4.28-4.87,4.06-9.83,8-13.9,12.93-3.32,4-6.76,7.93-9.49,12.38-2.47,4-4.8,8.11-7.19,12.17a5.92,5.92,0,0,0-.44.87c-1.11,2.88-2.4,5.69-3.79,8.45-.81,1.58-1.4,3.29-.62,5.13a.81.81,0,0,1-.37.71c-2,.65-4,1.2-6,1.85a15,15,0,0,0-2.17,1c-.42.23-.66,1-.42,1.25s.41.58.67.64c1,.24,2.11.4,3.38.63-1.16.72-2.15,1.26-3,1.93-1.17.87-2.74,1.06-3.69,2.3-1.87,2.45-4.3,4.45-5.54,7.39-.69,1.64-1.61,3.18-2.38,4.79a1.57,1.57,0,0,0,.87,2.37c1,.35,1.73.77,1.87,1.91.07.65.35,1.27.41,1.91.36,3.72.69,7.44,1,11.17a1.84,1.84,0,0,1-.46,1.28c.44,1.91.86,3.82,1.32,5.72,1.53,6.32,3.2,12.69,6.17,18.5q0-.09.09-.09a1.38,1.38,0,0,1,.79.14,2.48,2.48,0,0,1,.61.75,35.17,35.17,0,0,0,14.69,12.84l-.32,3a7.11,7.11,0,0,1-3.44,1.33,48,48,0,0,1-6,.46,2,2,0,0,1-1.4.18,64.85,64.85,0,0,1-10.54-3.32,1.5,1.5,0,0,1-2-.66l-.06-.23A95.48,95.48,0,0,1,101,181s0,.09-.08.14a.45.45,0,0,1-.1.14,1.89,1.89,0,0,0-.69-.53l-2.56-1.24a1.48,1.48,0,0,1,0-.69c-1-.66-2-1.34-3-2a1.22,1.22,0,0,1-1.07.29c-.44-.06-.86-.65-.69-1l.15-.32c-.92-.59-1.83-1.21-2.72-1.86-.4.65-.93.72-1.63.2-3.39-2.52-6.85-5-10.13-7.6-4.3-3.48-8.48-7.1-12.66-10.71a29.34,29.34,0,0,1-3.75-3.81,4.79,4.79,0,0,1-1.07-4.1c.44-1.9,1-3.78,1.43-5.68a11.74,11.74,0,0,0,.31-4.83c-.09-.54-1-1.14-1.49-.88a9.61,9.61,0,0,0-2,1.3c-1.48,1.37-1.61,1.37-2.4-.6-.36-.91-.7-1.82-1.07-2.72-.26-.6-.55-1.18-.84-1.76a2.18,2.18,0,0,0-1.52-1.07,2.12,2.12,0,0,0-1.21,1.4c-.11,1.29-.19,2.59-.3,3.88s-.57,1.45-1.54,1c-.29-.13-.53-.38-.83-.5a4.17,4.17,0,0,0-.94-.23,1.27,1.27,0,0,0-1.4,1c-.09.48-.08,1-.14,1.45-.11,1-.2,1.08-1.06,1.3-.32.07-.66.06-1,.15-1,.31-1.43,1-1.34,2.22s.09,1.27-.9,1.68A21,21,0,0,0,40,146.17,2.28,2.28,0,0,0,40.12,149.89Zm149.52-25.42a3.44,3.44,0,0,0,.71-.66C190.43,124.08,190,124.37,189.64,124.47Zm-2.9,4.79c.68-.08.93.28.91.91C187,130.26,186.74,129.87,186.74,129.26Zm16.61,143.68c.16-.15.3-.3.36-.34a7.13,7.13,0,0,1,1.16-.78c0,.51-.14.92-.86,1A1.73,1.73,0,0,0,203.35,272.94Zm-4.07-1.76c.31-.4.65-.77.95-1.17l.09.25a5.29,5.29,0,0,0-1.36,2.07,1.78,1.78,0,0,0-.59.41A3.88,3.88,0,0,1,199.28,271.18Zm-2.18-10c.35.21.75.38,1.1.59a2.29,2.29,0,0,0-.45.62Zm-30,86.95-1.27-.54,2.55.81C168,348.33,167.52,348.24,167.1,348.14Zm-2.3,4.49,1.5.4v.15Z"/><path d="M40.12,149.89a3.67,3.67,0,0,0,1.76.72c2.48,0,4.77,1,7.2,1.26a11.57,11.57,0,0,1,4.22,1.07c1.09.58,1.83,1.8,2.75,2.71,1.62,1.6,3.26,3.18,4.9,4.76,1.28,1.25,2.68,2.39,3.85,3.73a73.12,73.12,0,0,0,13.68,11.71c3.47,2.41,7.09,4.6,10.25,7.44,1.06,1,2.55,1.39,3.82,2.12a2.44,2.44,0,0,1,1.28,1.94,23.07,23.07,0,0,0,.48,2.88,2.19,2.19,0,0,0,3.19,1.17c.67-.45,1.24-1.05,1.88-1.54a1.86,1.86,0,0,1,2.52.62,4.06,4.06,0,0,1,.54,1.34c.12.8.07,1.62.14,2.43.08,1,.67,1.86,1.27,1.87a2,2,0,0,0,1.65-.83,5.67,5.67,0,0,0,.82-1.2c.36-.78.79-1.53,1.76-1.29s1.12,1.06,1.32,1.87a9.83,9.83,0,0,0,.64,1.82,2.07,2.07,0,0,0,2.53.88,14.2,14.2,0,0,0,2-1.35,2.87,2.87,0,0,1,2.76-.44c.47.13.92.3,1.39.46a55.11,55.11,0,0,0,11.83,2.82,1.48,1.48,0,0,1,1.39,2,37.84,37.84,0,0,1-2.23,7.46,31.88,31.88,0,0,0-1.45,4.12q-4,12.8-8,25.6c-1.59,3.22-2.47,6.7-3.89,10a54.42,54.42,0,0,1-2.42,5.32,32.11,32.11,0,0,0-2.44,5.3c-2.14,6.15-5.2,11.9-7.73,17.89a2.08,2.08,0,0,1-1.45,1.14,2.17,2.17,0,0,0-1.19.76,1.55,1.55,0,0,0,0,1.33,2.33,2.33,0,0,0,1.14.84,34.9,34.9,0,0,0,4.58,1.67,60.07,60.07,0,0,0,15.9,2.05c2.93-.09,5.85-.09,8.78-.12.65,0,1.29.07,1.94.11.46,0,1,.53,1,.87-.62,5.34-.4,10.72-.66,16.08-.39,7.95-.9,15.91-1.33,23.86-.19,3.41-.32,6.83-.46,10.24-.12,2.93-.21,5.85-.29,8.78a2.39,2.39,0,0,1-.75,1.71,36,36,0,0,0-3,3.17,30.1,30.1,0,0,1-5.65,5.34c-2.6,1.95-5.1,4-7.63,6.07-.38.31-.77.61-1.12.94a9,9,0,0,0-3.1,7.38c.1,2.18.73,2.78,2.93,3.22a9.78,9.78,0,0,0,5.73-.78q2.46-1,4.88-2.21a14.83,14.83,0,0,0,4.61-3.55c3.24-3.65,6.58-7.22,8.81-11.64.52-1,1.22-1.92,1.81-2.9a2.85,2.85,0,0,0,.1-3.2,2.08,2.08,0,0,1-.14-1.38,38.67,38.67,0,0,0,.54-7.29c.05-2.6.09-5.21.36-7.79.91-8.42,1.22-16.87,1.51-25.32.23-6.66.46-13.33.44-20a7.87,7.87,0,0,1,.12-1,1.73,1.73,0,0,1,1.22-1.35c2.1-.22,4.2-.43,6.31-.59a.86.86,0,0,1,.65.52,10.76,10.76,0,0,1,.34,2.38c0,7.65.07,15.29.41,22.93.14,3.08,0,6.18,0,9.27,0,2.92,0,5.85,0,8.77-.11,4.87-.3,9.75-.42,14.62a7,7,0,0,1-.93,4.2,2.17,2.17,0,0,0-.23.94,2.67,2.67,0,0,0,.62,2.26,8.16,8.16,0,0,0,3.19,2.18c2.87,1.15,5.69,2.43,8.61,3.42,3.69,1.26,7.37,2.52,11,3.92.61.23,1.25.36,1.88.53a6.93,6.93,0,0,0,8-3,3.6,3.6,0,0,0-.95-5.15,15.19,15.19,0,0,0-3.5-1.67c-5.93-1.73-11.88-3.34-17.83-5a.94.94,0,0,0-.46.07c-.16.05-.37.1-.43.21s.1.29.17.43a3.17,3.17,0,0,0,2,1.37c3.7,1.2,7.42,2.37,11.13,3.54,2,.64,4,1.25,6,1.91a5.65,5.65,0,0,1,1.24.74,1.84,1.84,0,0,1,.23,2.6,4.71,4.71,0,0,1-4.86,1.49,23.57,23.57,0,0,1-3.25-1c-5.66-2.49-11.59-4.26-17.3-6.59a8.32,8.32,0,0,1-2.11-1.21,2,2,0,0,1-.53-1.29,1.1,1.1,0,0,1,.7-1.16,22.23,22.23,0,0,0,2.33-.65,2.82,2.82,0,0,0,1.92-2.6c-.05-2.93.26-5.84.35-8.76q.81-24.36.88-48.75a6.81,6.81,0,0,1,.18-1.92,2,2,0,0,1,.87-1.09,6.42,6.42,0,0,1,2.24-.84,82.6,82.6,0,0,0,17.1-3.66c1.22-.42,2.52-.64,3.77-1,1.92-.55,2.46-1.38,2-3.18a53.85,53.85,0,0,0-1.56-5.63,96.53,96.53,0,0,1-3-10.79c-.73-3-1.66-5.95-2.43-8.93-1.13-4.41-2.2-8.84-3.3-13.25-.66-2.68-1.32-5.36-2-8,0-.14.08-.31.13-.46.25.1.62.14.73.33,1.46,2.34,3,4.66,4.3,7.07,2.59,4.71,5.7,9.09,8.53,13.65,3.33,5.37,6.84,10.65,9.75,16.28.51,1,1.21,1.92,1.79,2.89a6.24,6.24,0,0,1,.63,1.3,2.51,2.51,0,0,1-.39,2.73c-.78.82-1.59,1.63-2.32,2.5a7,7,0,0,0-1,1.66,1.41,1.41,0,0,0,.3,1.78,2,2,0,0,1,.75,2.54,4.31,4.31,0,0,0-.07,1.44,1.32,1.32,0,0,0,1.81,1c.54-.35,1-.81,1.57-1.12a.89.89,0,0,1,.81.27c.4.69.64,1.48,1,2.18a1.38,1.38,0,0,0,2.09.19,8.32,8.32,0,0,0,1.66-3.48.79.79,0,0,1,1.2-.34c.42.23.79.57,1.23.77a1.9,1.9,0,0,0,2.25-.27,1.88,1.88,0,0,0,.45-1.81c-.37-1.24-.84-2.45-1.27-3.67a1.19,1.19,0,0,1,.69-1.57c1.07-.37,2.15-.72,3.2-1.12a1.64,1.64,0,0,0,1-1.56,1.78,1.78,0,0,0-.88-1.62,14.56,14.56,0,0,0-4.54-1.73c-4.8-1.18-4.23-.71-7.19-5.05-2.19-3.22-4.75-6.19-6.89-9.44-3.23-4.88-6.31-9.86-9.33-14.87-3.28-5.45-5.5-11.41-7.86-17.29-1.64-4.07-3.13-8.2-4.85-12.24A71.4,71.4,0,0,1,168,195.61a24.71,24.71,0,0,0-1.18-3.17.54.54,0,0,0-.36,0c-.37.22-.75,1.33-1.08,0a4.49,4.49,0,0,0-.51-1.35,1,1,0,0,0-.79-.39,1,1,0,0,0-.67.56,3.2,3.2,0,0,0-.17,1c-.23,1.42.52,2.91-.31,4.29-1.23.39-2.45.81-3.69,1.18-2.33.7-4.68,1.34-7,2.07a24.2,24.2,0,0,1-10.59,1c-1.77-.24-3.55-.4-5.32-.63-.55-.07-.92-.81-.81-1.45.45-2.72,1.11-5.39,1.8-8.06a7.23,7.23,0,0,0,.22-1.91c0-.23-.36-.48-.6-.67a.63.63,0,0,0-.47-.08.74.74,0,0,0-.4.23,6.61,6.61,0,0,1-4.25,2.08,49.41,49.41,0,0,1-7.78.47,1.83,1.83,0,0,1-1.91-1.8c-.57-3.53-1.09-7.07-1.68-10.59-.33-1.91-.77-3.8-1.14-5.71,0-.13.11-.42.18-.42a1.38,1.38,0,0,1,.79.14,2.67,2.67,0,0,1,.62.75c4.63,7.33,11.39,11.88,19.36,14.86a40.28,40.28,0,0,0,5.05,1.76,30.38,30.38,0,0,0,14,.25c2.53-.6,5-1.33,7.55-2a12.38,12.38,0,0,0,4.39-2.06c1.83-1.35,3.67-2.71,5.38-4.19a25.78,25.78,0,0,0,6.44-8.49A59.45,59.45,0,0,0,189.16,145c-.07-1.78,0-3.56,0-5.34,0-.11.18-.28.31-.33a.58.58,0,0,1,.47.06c1.16,1.14,2.31,2.28,3.43,3.45.15.16.11.53.09.8,0,.07-.27.16-.43.18-.48.05-1,0-1.44.11a1.18,1.18,0,0,0-.77,1.51,7.13,7.13,0,0,0,1.17,1.53,45.31,45.31,0,0,0,4.58,3.63,26.67,26.67,0,0,1,9,9.77,4.5,4.5,0,0,1-2.37-1.54c-1.74-1.67-3.43-3.4-5.23-5a50.79,50.79,0,0,0-4.55-3.58,4,4,0,0,0-1.84-.34,1.21,1.21,0,0,0-1,1.35,4.15,4.15,0,0,0,.51,1.34c1.26,1.58,2.58,3.11,3.87,4.65l-1.64,1a1.54,1.54,0,0,0-.83,1.61c.05.48.21.94.29,1.42a1,1,0,0,1-.47,1.21,1.85,1.85,0,0,0-.86,2.5c.76,1.78,1.7,3.49,2.56,5.23.23.46.08.84-.48,1.09-.15.06-.33,0-.47.11-1.35.6-1.8,1.51-1.34,2.61a25.1,25.1,0,0,0,3.15,5.46c1.27,1.68,2.68,3.26,4,4.86.63.74,1.35,1.41,2,2.16a7.59,7.59,0,0,1,1.54,6.4,1.22,1.22,0,0,1-1.5.82,7.68,7.68,0,0,1-2-1.24,15.57,15.57,0,0,1-4.53-7.88,18.08,18.08,0,0,0-2.55-6.79,9.67,9.67,0,0,0-.92-1.11c-.34-.39-1.5-.62-1.79-.28a2.31,2.31,0,0,0-.61,1.24c0,1.07.09,2.13.15,3.2a6.65,6.65,0,0,0-1.17-.57,1.27,1.27,0,0,0-1.72,1.12c0,1,0,2-.09,2.93-.24,2.26-.49,4.52-.87,6.76a12.16,12.16,0,0,1-1,2.73c-.38.88-1.35,1.59-1.76,1.36a1.89,1.89,0,0,1-.89-1.64,22,22,0,0,1,0-5.84,16.5,16.5,0,0,0,.19-2.9,1.05,1.05,0,0,0-.9-1,1.15,1.15,0,0,0-1.24.53,17.93,17.93,0,0,0-.13,12.4,3.11,3.11,0,0,0,4.88,1.18A8,8,0,0,0,186,195.2c.36-.73.68-1.47,1-2.2s.6-1.15.95-1.81c.91,1.26,1.69,2.46,2.59,3.55a5.28,5.28,0,0,0,1.6,1.07,1.67,1.67,0,0,0,2.17-.45c.37-.53.62-1.15,1-1.66.15-.19.65-.36.79-.26,1.05.76,2,1.63,3.07,2.38a5.82,5.82,0,0,0,1.77.76,3.35,3.35,0,0,0,4.08-2.5c.2-1.12.25-2.26.45-3.38a.89.89,0,0,1,.64-.56,9.92,9.92,0,0,1,1.44,0,3.47,3.47,0,0,0,3.43-3.43,11.7,11.7,0,0,0-.65-4.8,3.06,3.06,0,0,1-.11-1.88,10.62,10.62,0,0,0,.83-4.27,2.93,2.93,0,0,1,.58-1.31,3.7,3.7,0,0,0,.2-3.3,17.86,17.86,0,0,0-2.07-4.4,2.93,2.93,0,0,1-.48-1.81,9.81,9.81,0,0,0-1.34-6.09c-.52-.93-.69-1.76.46-2.45a2.43,2.43,0,0,0,1-3,13.75,13.75,0,0,0-.88-2.26,2.13,2.13,0,0,1-.14-1.87,3.5,3.5,0,0,0-.35-3.26,2.22,2.22,0,0,0-.23-.43,55.17,55.17,0,0,0-10.36-11,27.86,27.86,0,0,0-3.38-1.92,5,5,0,0,0-3.21-.5,22.35,22.35,0,0,0-1.58-4.39.76.76,0,0,1,.46-1.13c.31-.08.64-.12.95-.21,2-.57,2.22-1.05,1.75-3.2a6.58,6.58,0,0,1-.28-.93.88.88,0,0,1,.79-1,6,6,0,0,0,.95-.23c1.11-.47,1.43-1.49.69-2.29a13.79,13.79,0,0,0-1.74-1.68,80.66,80.66,0,0,0-12-7.43c-.72-.37-1.47-.68-2.2-1-1.39-.7-1.59-1.22-1-2.72.46-1.22.89-2.45,1.45-3.62,2.39-5,4.74-10,7.24-14.92A66.7,66.7,0,0,1,200,69.17q3.34-3.18,6.95-6a34,34,0,0,1,15.77-7.24,37,37,0,0,1,8.7-.89,12.39,12.39,0,0,1,6,1.92c3.48,2.19,4.88,5.53,5.3,9.4.14,1.28,0,2.59.08,3.88,0,.24.35.55.6.66a1.08,1.08,0,0,0,.9,0,14,14,0,0,0,2.46-2.33A29.36,29.36,0,0,0,251.43,59,16.18,16.18,0,0,0,250.54,48a59.35,59.35,0,0,0-5.24-8.78,8.36,8.36,0,0,0-2-2.07,22,22,0,0,0-11.61-4.64,108.85,108.85,0,0,0-15.11-.07,56.45,56.45,0,0,0-11,2c-6.76,1.84-13.2,4.54-19.71,7A33.41,33.41,0,0,0,182.78,43a141.52,141.52,0,0,0-19.16,11.63c-.13.1-.28.18-.4.28-4.87,4.06-9.83,8-13.9,12.93-3.32,4-6.76,7.93-9.49,12.38-2.47,4-4.8,8.11-7.19,12.17a5.92,5.92,0,0,0-.44.87c-1.11,2.88-2.4,5.69-3.79,8.45-.81,1.58-1.4,3.29-.62,5.13a.81.81,0,0,1-.37.71c-2,.65-4,1.2-6,1.85a15,15,0,0,0-2.17,1c-.42.23-.66,1-.42,1.25s.41.58.67.64c1,.24,2.11.4,3.38.63-1.16.72-2.15,1.26-3,1.93-1.17.87-2.74,1.06-3.69,2.3-1.87,2.45-4.3,4.45-5.54,7.39-.69,1.64-1.61,3.18-2.38,4.79a1.57,1.57,0,0,0,.87,2.37c1,.35,1.72.77,1.87,1.91.07.65.35,1.27.41,1.91.36,3.72.69,7.44,1,11.17a1.8,1.8,0,0,1-.86,1.61c-1.2.51-2.62.12-3.73,1s-2,1.59-3.07,2.37a1.17,1.17,0,0,1-.44.15,1.89,1.89,0,0,1-.3-.87,13.66,13.66,0,0,1,1.35-4.65,17.4,17.4,0,0,0,1.62-8,23.53,23.53,0,0,1,.27-2.89,1,1,0,0,0-.82-1,.64.64,0,0,0-.68.57,1.94,1.94,0,0,1-.4.87.93.93,0,0,1-.81.24c-1.32-.64-1.61-1.57-.78-2.65a13.87,13.87,0,0,0,2.36-4.23,2.45,2.45,0,0,0-.12-1.88,1.53,1.53,0,0,0-1.64-.75,3.91,3.91,0,0,0-1.91,1.44,13.59,13.59,0,0,0-2.4,5.29,15.38,15.38,0,0,1-2,4.94,28.48,28.48,0,0,0-3.93,11.41,13.86,13.86,0,0,1-.63,2.33,5.58,5.58,0,0,0-.37,1.4,2.21,2.21,0,0,0,.36,1.35,1.05,1.05,0,0,0,1.32.08c.56-.31,1.18-1,1.67-.88a18.59,18.59,0,0,1,3.6,1.21c.21.09.37.54.37.82a5,5,0,0,1-.22,1.44c-.46,1.56.3,3.4-.73,4.74a29.69,29.69,0,0,1-3.29,2.89,18.15,18.15,0,0,0-4.06,5.44,35.51,35.51,0,0,1-2,3.36c-.4.65-.93.72-1.63.2-3.39-2.52-6.85-5-10.13-7.6-4.3-3.48-8.48-7.1-12.66-10.71a29.34,29.34,0,0,1-3.75-3.81,4.75,4.75,0,0,1-1.06-4.1c.43-1.9,1-3.78,1.42-5.68a11.74,11.74,0,0,0,.31-4.83c-.09-.54-1-1.14-1.49-.88a9.61,9.61,0,0,0-2,1.3c-1.48,1.37-1.61,1.37-2.4-.6-.36-.91-.7-1.82-1.07-2.72-.26-.6-.55-1.18-.84-1.76a2.18,2.18,0,0,0-1.52-1.07,2.12,2.12,0,0,0-1.21,1.4c-.11,1.29-.19,2.59-.3,3.88s-.57,1.45-1.54,1c-.29-.13-.53-.38-.83-.5a4.17,4.17,0,0,0-.94-.23,1.27,1.27,0,0,0-1.4,1c-.09.48-.08,1-.14,1.45-.11,1-.2,1.08-1.06,1.3-.32.07-.66.06-1,.15-1,.31-1.43,1-1.34,2.22s.09,1.27-.9,1.68A21,21,0,0,0,40,146.17,2.28,2.28,0,0,0,40.12,149.89ZM192.4,190.52c0,.22-.28.43-.43.64-.25-.19-.64-.34-.73-.59a49.09,49.09,0,0,1-1.68-5c-.38-1.49-1.16-2.94-.85-4.56.13,0,.28.08.33.16a21.86,21.86,0,0,1,3.21,7.45A9.46,9.46,0,0,1,192.4,190.52Zm10-15.65c-.11.07-.34.14-.43.08a19.16,19.16,0,0,1-5.85-6.62,4.29,4.29,0,0,1,1.3.5,25.23,25.23,0,0,1,5.15,5.71C202.63,174.59,202.53,174.81,202.43,174.87Zm3.48,5.54a3.25,3.25,0,0,1,1.52,1.82c.35,1.07.67,2.15.85,2.75,0,.68,0,.84,0,1a1.2,1.2,0,0,1-1.6,1.21,5.36,5.36,0,0,1-2.92-2.45c-1.19-2.11-2.32-4.26-3.48-6.39-.2-.36-.19-.64.18-.83a.56.56,0,0,1,.44,0C202.58,178.46,204.24,179.45,205.91,180.41Zm-5.44-31.51a6.89,6.89,0,0,1,5.71,3.57.72.72,0,0,1,.07.48.77.77,0,0,1-.24.38.56.56,0,0,1-.38.18,5.33,5.33,0,0,1-2.82-1.79C202,150.86,200.76,150.24,200.47,148.9Zm-.81-1.2.57,1A.89.89,0,0,1,199.66,147.7Zm-.88-7.16a.68.68,0,0,1,.47-.15c.22,0,.38.32.57.5a1.13,1.13,0,0,1-.32,0,4,4,0,0,1-.42-.2A2,2,0,0,1,198.78,140.54Zm-1.25-1.46c.86.28.86.33.48,1.1a.91.91,0,0,1-.17.23C197.74,140,197.63,139.52,197.53,139.08Zm-1.55-2.4a1.92,1.92,0,0,1-.2,1.84c1.11-.22,1.19-.23,1.54.38l-1.56-.36C195.65,137.88,195.42,137.21,196,136.68Zm-1.27-.29a.64.64,0,0,1,.43-.08,3.06,3.06,0,0,1,.83.33v0a1.76,1.76,0,0,1-.63.36c-.22,0-.49-.19-.71-.33A.35.35,0,0,1,194.71,136.39Zm2.39,124.8a6.62,6.62,0,0,1,1.59,1,11.72,11.72,0,0,1,2,2.69,5.19,5.19,0,0,0,5.1,3,8.22,8.22,0,0,1,4.11,1.26c.12.07.28.28.25.34a.7.7,0,0,1-.37.3c-1.23.54-2.53.3-3.81.35a1.24,1.24,0,0,0-1.12,1.32c0,.69,0,1.3-.88,1.35-1.26.07-1.42,1.06-1.78,2-.28.71-.6.25-.81-.17a1.29,1.29,0,0,0-1.12-.72c-2.29-.37-2.46-.87-1-2.69a18.91,18.91,0,0,0,1.19-1.52,1.74,1.74,0,0,0,.18-1.82Zm-34.37-55.1a31.11,31.11,0,0,1-4.67,1.32c-2.85.64-5.72,1.24-8.6,1.76a19.81,19.81,0,0,1-5.57.32,30.55,30.55,0,0,1-3.66-.22c-2.07-.34-4.13-.81-6.19-1.28a1.67,1.67,0,0,1-1-2c1.2-4.11,1-3.74,5-3.52,1,.06,1.92.36,2.88.51a20.86,20.86,0,0,0,8.21-.27,79,79,0,0,0,10.19-3.26c.9-.35,1.82-.67,2.74-.95a1.47,1.47,0,0,1,1.88,1.06c.17,1.28.31,2.57.43,3.87C164.51,205.21,163.91,205.63,162.73,206.09ZM177,227l.63.24-.3.73c-.1-.09-.29-.18-.3-.29A3.83,3.83,0,0,1,177,227Zm-8-15.21c-.37-.87-.51-1.85-.81-2.76-.84-2.62-.87-5.38-1.35-8.06l.06-.09c0,.06,0,.12,0,.17.33.34.82.62,1,1,2.78,7.89,5.84,15.68,8.91,23.45a3.72,3.72,0,0,1,.09,1.3,1.86,1.86,0,0,1-1.29-1.13A148.3,148.3,0,0,1,169,211.75Zm-16.57,71.86c0-.27.26-.7.47-.75a26.66,26.66,0,0,1,3.3-.63c.16,0,.55.44.54.66-.07,1.79-.24,3.56-.32,5.35-.19,4.05-.35,8.1-.52,12.16-.15,3.56-.33,7.12-.43,10.68-.14,4.87-.23,9.74-.33,14.61,0,2.11,0,4.22-.17,6.31-.24,2.42-.84,4.81.53,7.09-.07.8-.12,1.6-.23,2.39-.06.42-.84.85-1.13.65s-.55-.41-.56-.64a28.26,28.26,0,0,1-.06-2.91c.26-14.12.33-28.24-.61-42.34-.2-3.08-.34-6.15-.5-9.12C152.44,285.88,152.41,284.74,152.46,283.61Zm-15.9,65.21a2,2,0,0,1-.1,1.68,53.28,53.28,0,0,1-7.57,11.26c-2.11,2.57-4.36,4.77-7.59,5.8a9.58,9.58,0,0,0-2.14,1.14,6.64,6.64,0,0,1-4.69.78,1.1,1.1,0,0,1-1-.89,4.92,4.92,0,0,1,1.17-4.53c1.11-1.17,2.31-2.27,3.53-3.33,1.83-1.6,3.7-3.16,5.58-4.7a25.13,25.13,0,0,0,6.91-8c.35-.71.9-.81,1.5-.21A4,4,0,0,0,136.56,348.82Zm-.76-29.77c.21-4.86.18-9.74.28-16.19-.05-3.63-.12-8.83-.18-14,0-1.14,0-2.27.08-3.41a1.49,1.49,0,0,1,1.22-1.32,7.66,7.66,0,0,1,1-.21c1-.15,1.72.3,1.69,1.16q-.19,5.85-.46,11.68c0,1.14-.23,2.26-.29,3.4-.25,4.71-.37,9.42-.73,14.12s-.09,9.44-1.09,14.09a5.22,5.22,0,0,0,0,1c-.12,4.06-.2,8.12-.38,12.17a10.86,10.86,0,0,1-.72,4.29c-.06.13-.27.29-.38.27-.28-.05-.68-.12-.8-.32a4.74,4.74,0,0,1-.46-2.83C135,335,135.45,327,135.8,319.05Zm-8.15-51a75.54,75.54,0,0,1,8.16,1.26,22,22,0,0,0,4.84.47c7.63-.18,15.26-.36,22.78-1.86,4-.79,8-1.44,11.89-2.54s4-.74,5,2.83c.28,1.11.57,2.21.85,3.31s.12,1.66-1.18,2.18a24.86,24.86,0,0,1-3.21,1.11c-2.05.5-4.15.78-6.18,1.34-6,1.62-12.17,2-18.16,3.49-4.22.16-8.37,1.12-12.62,1.08-2.27,0-4.55.14-6.82.22v0c-2.92.16-5.84.37-8.76.47a33.75,33.75,0,0,1-3.88-.21c-1.29-.1-2.58-.32-3.87-.36a50.06,50.06,0,0,1-8.17-1.33,4.57,4.57,0,0,1-.87-.41,1.18,1.18,0,0,1-.57-1.21q2.76-6.22,5.53-12.44a.73.73,0,0,1,.28-.38c.26-.13.63-.34.83-.24C118,266.9,122.77,267.58,127.65,268Zm-2-31.13a44.52,44.52,0,0,0,12.52,1.67c3.25,0,6.51.06,9.76,0A76.51,76.51,0,0,0,170,235.18a1.38,1.38,0,0,1,1.6.7,106.41,106.41,0,0,1,3.11,11.75c.08.35-.31.92-.63,1.22a4.09,4.09,0,0,1-1.3.6,25.83,25.83,0,0,1-6.67,1.29c-4.19.53-8.38,1.1-12.59,1.37a45.43,45.43,0,0,1-12.64-.6c-3.28.08-6.44-.74-9.61-1.42-1.9-.41-3.76-1-5.66-1.42a25.24,25.24,0,0,0-4.33-.45c-.3,0-.69.59-.88,1-.08.17.18.68.4.79a14.82,14.82,0,0,0,2.69,1.08c1.73.46,3.51.72,5.23,1.19,6.31,1.74,12.8,2.2,19.28,2.59a36,36,0,0,0,4.86-.19c2-.14,3.89-.34,5.83-.54a79.77,79.77,0,0,0,13.89-2.4,7.56,7.56,0,0,1,1.89-.42c.43,0,1.14.25,1.23.54a52.45,52.45,0,0,1,2.24,8.46c0,.32.14.64.18,1a1.56,1.56,0,0,1-.93,1.54c-1.57.42-3.13.88-4.71,1.2-3,.61-6.05,1.2-9.1,1.67s-6.11.91-9.19,1.14c-2.42.18-4.87,0-7.3,0-4.54,0-9.11.53-13.58-.69a7.78,7.78,0,0,0-1-.11c-3.07-.35-6.14-.67-9.21-1.07a22.1,22.1,0,0,1-8.28-2.65,1.18,1.18,0,0,1-.63-1.61c.8-2,1.57-3.93,2.5-5.81a57.52,57.52,0,0,0,3.83-8.95c.78-2.64,1.89-5.18,2.86-7.76C123.85,237.08,124.64,236.58,125.67,236.89ZM129,224.71c1,.21,1.89.46,2.84.67a45.2,45.2,0,0,0,8.15,1.37c4.53.11,9.09.4,13.58-.63.63-.14,1.29-.12,1.93-.22,3.69-.55,7.38-1.09,11.06-1.67,1.52-.24,2.11.05,2.49,1.5.51,1.88,1,3.77,1.42,5.66a1.81,1.81,0,0,1-1.27,2.25c-5.41,1.05-10.81,2.22-16.37,2.14-2.6,0-5.2,0-7.79,0a106.71,106.71,0,0,1-13.14-.27,19.6,19.6,0,0,1-5.66-1.31,1.44,1.44,0,0,1-.86-1.54c.59-2,1.17-4,1.76-6.07.09-.31.24-.6.36-.9A1.37,1.37,0,0,1,129,224.71Zm4.27-14.15c2.95,1,6.07,1,9.1,1.48a16.21,16.21,0,0,0,6.27-.28c5.19-1.18,10.39-2.34,15.51-3.83a.52.52,0,0,1,.74.44l2.61,11.84a4,4,0,0,1,.08.48,1.17,1.17,0,0,1-1.1,1.29c-3.68.58-7.4.87-11.08,1.4a71.42,71.42,0,0,1-10.69.72,38.1,38.1,0,0,1-12.43-1.44c-3.16-.91-4.13-.3-2.72-4.4.58-1.68.91-3.44,1.4-5.15a13.12,13.12,0,0,1,.72-1.79A1.34,1.34,0,0,1,133.31,210.56ZM122.81,193a5.13,5.13,0,0,1,.94-.22,45.45,45.45,0,0,0,8.7-.89,1.25,1.25,0,0,1,1.53,1.38,8.72,8.72,0,0,1-.28,1.91c-.35,1.17-.95,1.59-2.54,1.63a24.72,24.72,0,0,1-8.06-1.92c-.27-.11-.45-.44-.64-.68A.92.92,0,0,1,122.81,193Zm-11.92-39.23a15.6,15.6,0,0,1-.19,2,8.25,8.25,0,0,1-4.7,6.32,1.56,1.56,0,0,1-1.78-.29,1.48,1.48,0,0,1-.57-1.68,22.41,22.41,0,0,1,3.28-6.42,9.32,9.32,0,0,1,2.17-1.86C109.67,151.38,110.86,152.12,110.89,153.74ZM119.66,119c-.22.06-.44.13-.66.18-.46.12-.62-.06-.42-.47a.42.42,0,0,1,.41-.12A3.88,3.88,0,0,1,119.66,119Zm4.26,4.4a1,1,0,0,1-.15.39l-.24-.33c0-.13.1-.26.16-.4C123.77,123.16,123.9,123.27,123.92,123.39Zm4.35-13.3c-.08.08-.14.21-.23.24a.55.55,0,0,1-.4,0c-.26-.18-.17-.34.25-.36A1.16,1.16,0,0,1,128.27,110.09Zm1.39,13.13c.2-.07.77.23.76.33-.2,2.39-.44,4.79-.69,7.18a.87.87,0,0,1-.25.39,2.28,2.28,0,0,1-.39.28c-.38.24-.66.15-.71-.29-.12-1-.21-1.92-.2-1.88-.09-2-.19-2.94-.16-3.9A2.19,2.19,0,0,1,129.66,123.22Zm-.66-9.41c.58-.19,1.17-.35,1.76-.51v0c.46-.12.9-.26,1.36-.36a.61.61,0,0,1,.42.07c.26.18.09.26-.3.49a4.23,4.23,0,0,1-3.06.87.61.61,0,0,1-.36-.29C128.8,114.07,128.91,113.84,129,113.81Zm2.89-4.49a3.44,3.44,0,0,1-.9.19c-.12,0-.25-.17-.38-.27.12-.11.23-.3.35-.31a4,4,0,0,1,.91.09A.51.51,0,0,1,131.89,109.32ZM175.71,106a1.57,1.57,0,0,1-1.63.77c-1.39-.44-2.77-.92-4.17-1.35a13.74,13.74,0,0,0-7.2-.47c-3.47.78-7,1.52-10.5.06a5.34,5.34,0,0,0-1.93-.19,53.57,53.57,0,0,0-11.66.63,14.17,14.17,0,0,1-2.91.22,2,2,0,0,1-1.33-.41,1.46,1.46,0,0,0-2.11-.3,7.56,7.56,0,0,1-1.74.73c-.19,0-.72-.35-.7-.48a13.5,13.5,0,0,1,.72-2.76c.77-1.79,1.79-3.48,2.48-5.29a51.41,51.41,0,0,1,4.16-8.25c1-1.67,2-3.37,2.93-5.06a93.37,93.37,0,0,1,15.37-19.46c8-8,17.51-14,27.53-19.11a119.21,119.21,0,0,1,21.78-8.33,59.68,59.68,0,0,1,17.8-2.39c2,0,3.9-.06,5.85,0a26.07,26.07,0,0,1,10.76,2.79,11.45,11.45,0,0,1,4.38,3.78c1.29,1.88,2.55,3.78,3.67,5.76a14.66,14.66,0,0,1,2,5.45,16.5,16.5,0,0,1-2.82,12.05c-.09.13-.2.25-.29.38a.66.66,0,0,1-1.11-.21c-.49-1.19-.88-2.44-1.46-3.59C241.07,55.85,237,53,231.24,53a46.78,46.78,0,0,0-8.24.82,29.58,29.58,0,0,0-8.83,2.63c-2.7,1.43-5.55,2.62-8,4.62S198,68.33,194.77,71.65a58.3,58.3,0,0,0-10.41,15.23C181.32,93.17,178.19,99.42,175.71,106Zm-39.66,8.76.6.48c-.1.12-.22.36-.3.35a6.42,6.42,0,0,1-.84-.29Zm3.48,1.87c-.06-.17.23-.51.42-.73a.45.45,0,0,1,.45,0c1.8,1.53,3.67,3,4.29,5.46a.67.67,0,0,1-.34.09C141.84,120.73,140.42,118.91,139.53,116.6ZM142,126c.72-.78.72-.78,1.45-.14.15.13.3.23.46.35l-2.11,0A1.56,1.56,0,0,0,142,126Zm-2.68-13.15a.82.82,0,0,1,.17-.78.64.64,0,0,1,1.06.37c0,.25-.26.51-.41.77C139.88,113.13,139.49,113.09,139.34,112.88Zm6.59,9.18c-.89.22-1,.18-1.1-.6Zm.57,1.16a1.26,1.26,0,0,1-.38-.87Zm1.07,1.06a.75.75,0,0,1-.79-.73A.7.7,0,0,1,147.57,124.28Zm1.78.58v0h0c-.58,0-1.23.22-1.56-.41Zm7.88-2.7-.52-.43A.86.86,0,0,1,157.23,122.16Zm.84,1.38a1.58,1.58,0,0,1-.53-1C158.17,122.81,158.23,122.89,158.07,123.54Zm1.13.71-.8-.53C158.93,123.69,159,123.76,159.2,124.25Zm2.81-12c.07-.11.14-.27.24-.3a.49.49,0,0,1,.43,0c.26.26.15.46-.29.46C162.26,112.42,162.13,112.27,162,112.2Zm.12,6.3a.91.91,0,0,1-.76-.76C162.05,117.76,162.11,117.82,162.13,118.5Zm1.1.89a1.23,1.23,0,0,1-.91-.73C162.83,118.63,163.06,119,163.23,119.39Zm.06,7.38a2.08,2.08,0,0,1-1.48-.16,4.94,4.94,0,0,1-2.35-2.12A1.72,1.72,0,0,1,161,125,8,8,0,0,0,163.29,126.77Zm-2.68-10.22c.15.28.29.57.43.85A1.34,1.34,0,0,1,160.61,116.55Zm3,10.47c.15.39.29.79.44,1.19A1.17,1.17,0,0,1,163.62,127Zm21.07-12.47c-.84.29-1.54-.32-2.31-.45a3.47,3.47,0,0,1,.68-.31C183.9,113.58,184.11,113.68,184.69,114.55Zm.12.43c-.07-.07,0-.24,0-.38a2.86,2.86,0,0,1,2.19.49c1.57,1.07,3.1,2.2,4.63,3.31a.79.79,0,0,1,.24.4.33.33,0,0,1-.1.3c-.3.1-.64.27-.89.19A14.09,14.09,0,0,1,184.81,115Zm-.71,7.43c-.23-.16-.31-.53-.46-.8a1.13,1.13,0,0,1,.14-.39c.09-.11.28-.24.38-.22,1.84.52,3.68,1,5.49,1.64.33.12.54.73.7,1.16s-.53.71-1,.71A9.4,9.4,0,0,1,184.1,122.41Zm3.63,7.87c.26.14.61.27.64.45.22,1.22,1.06,1.51,2.1,1.59l.23,0a8.75,8.75,0,0,0-1.13,2.88.46.46,0,0,1-.36.25c-.24-.06-.58-.15-.66-.33A14.46,14.46,0,0,1,187.73,130.28Zm-.08-.11c-.7.09-.91-.3-.91-.9C187.41,129.19,187.66,129.55,187.65,130.17Zm-71,62.08c.09-.1.16-.26.25-.26s.19.14.29.22c-.09.09-.16.25-.25.25S116.75,192.32,116.65,192.25Zm-1.47-47c-.72-5.16-.51-10.39-1.47-15.52a.69.69,0,0,1,.08-.47,2.72,2.72,0,0,1,.64-.67c.34-.23,1,.23,1,.66,0,1.29-.1,2.59-.11,3.88,0,1,0,1.95.13,2.92a1.44,1.44,0,0,0,1.79,1.19c.91-.22,1.66-.8,2.75-.22a1.74,1.74,0,0,0,2.72-.9c.67-1.48,1.31-3,2-4.43.2-.41.45-.9,1.12-.88.06.63.11,1.27.17,1.92s.09,1.3.21,1.94a5.58,5.58,0,0,0,.45,1.38,1.86,1.86,0,0,0,1.47,1.14,1.7,1.7,0,0,0,1.7-.69c.44-.68.84-1.39,1.27-2.07.24-.39.5-.37.71.06a17.41,17.41,0,0,0,.81,1.75,1.67,1.67,0,0,0,2.83-.13,8.19,8.19,0,0,0,.63-1.82,19.08,19.08,0,0,0-.81-8.65c-.64-2.17-2.24-3.94-2.66-6.23,0-.28-.4-.5-.56-.78-.37-.66-.21-1,.63-1.42s1.33-.26,1.66.36c.69,1.29,1.3,2.62,2,3.88,1.24,2.08,2.69,4,5.1,4.84a2.48,2.48,0,0,0,.36.77,24.28,24.28,0,0,0,1.92,2.13c.58.54,1.26,1,1.89,1.46.89.69,1.85-.22,2.74.13.45.17.84.48,1.28.67a1.58,1.58,0,0,0,.89.17,1.12,1.12,0,0,0,.7-.53,1.94,1.94,0,0,0-.16-1.82,2.45,2.45,0,0,1,.06-2.28c.06.3,0,.68.24.83,1.59,1.35,3.21,2.68,4.88,3.94a1.88,1.88,0,0,0,1.37.3,5,5,0,0,0,3-1.33c.3-.36.47-.94.84-1.13.67-.34,1.13.33,1.65.63,1,.56,2,1.14,3,1.64a1.62,1.62,0,0,0,1.82-.21c.81-.75,1.93-1.19,2.3-2.41.15-.49.7-.57,1.2-.41a19,19,0,0,1,3.64,1.24c1.43.83,2.71,1.71,4.45.83.33-.16.92.15,1.37.29s.89.4,1.35.54,1.32-.78,1.26-1.25a2,2,0,0,0-.17-.93c-.8-1.21-1.66-2.38-2.5-3.56-.37-.52-.75-1-1.11-1.57-.08-.12-.11-.41-.07-.43a1.75,1.75,0,0,1,.85-.32c1.92.23,3.07,1.7,4.38,2.86.79.71,1.78,1.4,1.7,2.7-.6.25-1.07.62-.95,1.37.19,1.12.45,2.23.63,3.35a29.71,29.71,0,0,1,.54,3.85,129.13,129.13,0,0,1-.28,15.11,31.63,31.63,0,0,1-.56,3.35,61.91,61.91,0,0,1-5.07,15.2,24,24,0,0,1-7.46,9.46c-1.57,1.13-3,2.53-4.83,3.25a1.7,1.7,0,0,1-.37.1,4.53,4.53,0,0,1-1.41.44,23.44,23.44,0,0,1-3.25,1,2.09,2.09,0,0,1-.34.21,12.61,12.61,0,0,1-2.69,1.08,26.39,26.39,0,0,1-7.1.81c-1.58-.08-2.55-.11-3.52-.17a26.78,26.78,0,0,1-10.59-3.17.61.61,0,0,1-.19-.2,19,19,0,0,1-2.29-1.08,8.83,8.83,0,0,1-2-.93,1.7,1.7,0,0,1-.92-.28c-1.23-.78-2.42-1.64-3.59-2.5A26.91,26.91,0,0,1,121.93,169c-2.31-4.88-3.57-10.08-5.13-15.19A57,57,0,0,1,115.18,145.23Zm-.11,23.55c0,.1-.06.24-.1.36l-.21-.29C114.8,168.38,114.92,168.35,115.07,168.78Zm-2.57,22c.33-.17.57-.08.66.31,0,.08-.21.32-.31.31C112.45,191.36,112.34,191.12,112.5,190.78Zm-.4-.39c.28-.1.39,0,.34.32a.75.75,0,0,1-.3,0S112.08,190.39,112.1,190.39Zm-8.4-18.28a.65.65,0,0,1,0-.36c.62-2.17,1.74-4.15,2.35-6.34a1.37,1.37,0,0,1,.61-.72c1.1-.68,2.21-1.33,3.35-1.92.16-.08.67.17.75.38a13.53,13.53,0,0,1,.67,2.31c.4,2.07.66,4.17,1.13,6.22.57,2.52,1,5.09,2.55,7.29a3.25,3.25,0,0,1,.47,1.83,40,40,0,0,1-.32,4.36,4.6,4.6,0,0,1-.63,1.81,1.87,1.87,0,0,1-1.12.73,1.59,1.59,0,0,1-1.63-.8,8.15,8.15,0,0,1-.37-1.87c-.08-2.92-.1-5.84-.15-8.76,0-.48-.06-1-.11-1.45a1.88,1.88,0,0,0-1.25-1.33c-.49-.1-1.21.5-1.36,1.15-.4,1.73-.78,3.46-1.18,5.19,0,.13-.2.23-.3.34-.16-.19-.46-.38-.46-.57,0-1.93-.35-3.88.4-5.77a2.9,2.9,0,0,0-.13-1.41,1.34,1.34,0,0,0-1.52-.88C104.83,171.71,104.27,171.92,103.7,172.11ZM102,186.34l.32,0-.14.34Zm-3.93-6a1.45,1.45,0,0,1-.34-2.1q2.73-3,5.49-5.95c.07-.07.23,0,.38,0a6.31,6.31,0,0,1,.07,1.78,27.3,27.3,0,0,1-2.83,7.11.93.93,0,0,1-1.22.31A15.57,15.57,0,0,1,98.1,180.32ZM97.23,184a4.76,4.76,0,0,1,.4-.69c0-.06.31,0,.41.07a3.05,3.05,0,0,1,.6.59c.09.11.17.36.12.41s-.41.41-.63.41A.88.88,0,0,1,97.23,184ZM92.67,176c.91-2,1.84-4,2.77-6a2.25,2.25,0,0,1,.33.82,13.89,13.89,0,0,1-1.18,5.65,1.1,1.1,0,0,1-1.23.53C92.92,177,92.5,176.42,92.67,176ZM65.24,161.17a2.1,2.1,0,0,1,2.64.18c2,1.68,4.06,3.21,6,4.93a110,110,0,0,0,10.31,8.07c.92.65,1.87,1.27,2.78,1.93a8.75,8.75,0,0,1,1,1,.57.57,0,0,1,.1.42c-.24.16-.63.45-.77.36-2.33-1.43-4.67-2.86-6.93-4.4a68,68,0,0,1-10.93-8.8c-1-1.05-2-2.14-3-3.15A3.93,3.93,0,0,0,65.24,161.17Zm-1.62-2.49c.55.23.55.31.32,1.12ZM62.21,158c1-.4,1-.4,1.21.42Zm-.35-1.45c.57.35.41.88.3,1.37Zm-1.09-.94c.57-.07.85.21.93.75C61,156.42,60.91,156.37,60.77,155.64Zm-1.12-.85a.76.76,0,0,1,1,.77C60.09,155.61,59.84,155.24,59.65,154.79Zm-.37-.37s.06-.18.09-.28c.23.09.28.26.19.52A1.08,1.08,0,0,1,59.28,154.42Zm-8.1-6.21a6.35,6.35,0,0,1,3-3,1.72,1.72,0,0,1,1.35,0,6.22,6.22,0,0,0,2.3.63,1.06,1.06,0,0,1,.47,1.83,5.89,5.89,0,0,0-1.57,1.8c-.31.72-.93.8-1.61.66l-1.59-.33s-1.07-.31-2.12-.72A.84.84,0,0,1,51.18,148.21Zm-4.09.1a1.43,1.43,0,0,1,.31-.24.77.77,0,0,1,.4,0,1.69,1.69,0,0,1,.37.15l-.7.26Z"/><path d="M195.05,157.35h-.11s0-.06,0-.1Z"/><path d="M195,157.46c.32-.06.08.14,0,0Z"/><path d="M196.05,168.18l.11,0,0,.08Z"/><path d="M205.57,160.35l.09.15-.11,0Z"/><path d="M199.34,147.47c0,.34-.17,0,0,0Z"/><path d="M206.37,274.87c.17.25-.06.12,0,0Z"/><path d="M197,261h.09a.62.62,0,0,1,0,.13Z"/><path d="M197.09,260.91c-.35,0-.08-.18,0,0Z"/><path d="M100.84,148.38c-.2-.38.2-.15,0,0Z"/><path d="M119.86,118.93l-.14,0-.06-.14Z"/><path d="M144.17,126.41l-.11,0v0Z"/><path d="M144.06,126.53c.32.07.06.18,0,0Z"/><path d="M149.38,126.74l-.07,0,.07,0Z"/><path d="M151.2,126.9a.09.09,0,0,1,0,0l-.08,0Z"/><path d="M164.29,120.67c-.21-.23.06-.15,0,0Z"/><path d="M160.37,116.08l.06.12h0Z"/><path d="M163.61,119.82a1.19,1.19,0,0,1,.16.34Z"/><path d="M155.41,120.1l.06.09-.06,0Z"/><path d="M182.24,113.92c-.36.14-.11-.17,0,0Z"/><path d="M182.27,114.09h-.08l.08,0Z"/><path d="M95.76,170.06l-.3,0a.93.93,0,0,0,.05-.1Z"/><path d="M65.18,161.15v-.05l0,.06Z"/><path d="M64,159.86v0a1.32,1.32,0,0,1,.3.09Z"/><path d="M206.21,167.43h-.35c0-.35.1-.46.12,0Z"/><polygon points="150 119.89 150.03 120.14 150.25 119.99 150 119.89"/><polygon points="153.91 113.24 154.14 113.2 153.99 112.97 153.91 113.24"/><path d="M155,159.54c-.15-.56-.36-1.32-.59-2.07,0-.12-.21-.22-.34-.29s-.5,0-.61.4a2.9,2.9,0,0,0-.07.93,3,3,0,0,1-1.32,3.28c-.1.06,0,.6.14.84a.83.83,0,0,0,1.21.26A3.06,3.06,0,0,0,155,159.54Z"/><path class="cls-3" d="M182.1,270.9a3.85,3.85,0,0,1,.16,1.87c-.35,1.42-2,2-3.47,2.25a338.27,338.27,0,0,1-48.51,6.25c-8.75.49-17.76.6-26-2.34,12.89-27.91,25.9-56.22,31.18-86.51.32-1.86.77-4,2.37-4.95,1.8-1.11,4.1-.29,6.11.37a34,34,0,0,0,12.35,1.59c5.39-.31,7.95-3.48,8.73,2.53,1.14,8.8,1.28,17.5,3.05,26.27C171.66,236.06,177.64,253.29,182.1,270.9Z"/><path class="cls-3" d="M224.41,53.84c-11.84,1.34-22.14,9.09-29.55,18.42S182.4,92.52,176.73,103a11.11,11.11,0,0,1-3.57,4.45c-1.75,1.07-3.91,1.1-6,1.08a298.91,298.91,0,0,1-38.39-2.86c13.69-35,36.77-56.56,68.08-67.34,11.19-3.85,24.37-5.45,36-3.45a25.12,25.12,0,0,1,9.29,3.24c3.2,2,4.63,5.44,6.37,8.71a17.5,17.5,0,0,1,1.47,3.32,13,13,0,0,1,.4,3.73,20.52,20.52,0,0,1-2.3,9.21,15,15,0,0,1-2.86,3.85c-1.73,1.61-2.21-.47-2.43-2.11a13.73,13.73,0,0,0-.65-3.68,9.2,9.2,0,0,0-1.51-2.26,11.13,11.13,0,0,0-2.58-2.59,17.91,17.91,0,0,0-3.38-1.42A23,23,0,0,0,224.41,53.84Z"/><path d="M168.37,143a4.33,4.33,0,0,1-.35,2.2,1.76,1.76,0,0,1-2,.81,2.69,2.69,0,0,1-1.61-3.65,3.28,3.28,0,0,1,1.16-1.49,1.69,1.69,0,0,1,2.28.43,4.13,4.13,0,0,1,.48,1.17A1.35,1.35,0,0,1,168.37,143Z"/><path d="M141.44,142.39c0-.4,0-.84.09-1.27a1.58,1.58,0,0,1,1.71-1.29,2.46,2.46,0,0,1,2.18,2.32,4.33,4.33,0,0,1,0,1.08,2.9,2.9,0,0,1-.4,1,1.8,1.8,0,0,1-1.78,1,2.09,2.09,0,0,1-1.75-1.93C141.43,143,141.44,142.71,141.44,142.39Z"/><path d="M153.71,177a5.61,5.61,0,0,0-.58,0,16.51,16.51,0,0,1-4.6-.28,28,28,0,0,1-5.4-1.45,5.75,5.75,0,0,1-.87-.41c-.52-.32-.8-1-1.56-1l-1.81-1.1c-.55-.33-1.11-.65-1.65-1a5.75,5.75,0,0,1-1.53-1.46,30.8,30.8,0,0,1-3.54-6.17,6.2,6.2,0,0,1-.64-3.36,1.24,1.24,0,0,1,.09-.38.17.17,0,0,1,.12-.1c.12,0,.29,0,.34.07a1.59,1.59,0,0,1,.36.66,8.14,8.14,0,0,0,1.32,3.17,29.27,29.27,0,0,0,2.61,3.82c.5.58,1,1.12,1.59,1.67a3.09,3.09,0,0,0,.6.48c1.92,1,3.76,2.22,5.73,3.18a7,7,0,0,0,2.19.69c1.72.22,3.41.63,5.15.74a7.61,7.61,0,0,0,1.72,0,2.87,2.87,0,0,1,.77-.07,11.39,11.39,0,0,0,3.82-.06c.11,0,.23.11.36.13s.3,0,.31,0c.22-.68.94-.61,1.39-.92s.95-.4,1.39-.66a20.08,20.08,0,0,0,4-2.58c.59-.26.94-.88,1.61-1,.26-.05.39-.32.48-.56a3.35,3.35,0,0,1,.78-1.32c.55-.54.66-1.4,1.29-1.9l.51-1.65a1.37,1.37,0,0,1,2-.51,1.15,1.15,0,0,1,.4,1,5.17,5.17,0,0,1-.78,2.15,27.8,27.8,0,0,1-1.71,2.56c-.67.86-1.42,1.66-2.16,2.45a3.54,3.54,0,0,1-.81.53,34.3,34.3,0,0,0-2.94,1.83,20.62,20.62,0,0,1-4.08,2.14c-1.5.24-2.94.94-4.54.66a10,10,0,0,0-1.73,0Z"/></g></g></svg>