<svg id="Capa_1" data-name="Capa 1" xmlns="http://www.w3.org/2000/svg" viewBox="0 0 1160.69 124.43"><defs><style>.cls-1{fill:#536472;}.cls-2{fill:#ed6c6f;}.cls-3{fill:#b7d164;}.cls-4{fill:#62a7bc;}.cls-5{fill:#f0d44f;}</style></defs><path class="cls-1" d="M993.65,33.38c1.46-.37.87-.45,1.08-.55C992.31,33.53,993.72,33.42,993.65,33.38Z"/><polygon class="cls-1" points="969.75 40.3 970.16 40.1 966.67 41.26 969.75 40.3"/><path class="cls-1" d="M947.29,46.31c2.22-.2,8.12-2.24,12.16-3.18l.68-.09,1.73-.78C957,43.61,950.74,45.5,947.29,46.31Z"/><path class="cls-1" d="M935.1,48.71c.77-.06-2.56.81,2.8-.7l-.51.09Z"/><path class="cls-1" d="M937.39,48.1c2.36-.64-1.59.3,0,0Z"/><path class="cls-1" d="M926.48,51.11l3.08-1c-.67.09-3.45.81-2.44.47C924,51.55,924.63,51.46,926.48,51.11Z"/><path class="cls-1" d="M923.6,52.17l1.6-.48A7.25,7.25,0,0,0,923.6,52.17Z"/><path class="cls-1" d="M928.59,50.65l-3.39,1a3.1,3.1,0,0,0,1.56-.47C926.51,51.41,927.16,51.12,928.59,50.65Z"/><path class="cls-1" d="M930.55,50.19c1.77-.39,4-.94,1,0C937.44,48.57,936.5,48.54,930.55,50.19Z"/><path class="cls-1" d="M946.25,47l2.36-.52,2-.66C949.61,46.15,946.07,46.92,946.25,47Z"/><path class="cls-1" d="M907,56.11c-.18.13,1.1-.07,1.36,0l2.28-.71A31,31,0,0,1,907,56.11Z"/><path class="cls-1" d="M908.38,56.08,905,57.14C908.05,56.33,908.6,56.12,908.38,56.08Z"/><polygon class="cls-1" points="923.16 52.73 928.74 50.94 922.07 53.03 923.16 52.73"/><polygon class="cls-1" points="893.86 59.62 895.77 58.91 892.36 60.12 893.86 59.62"/><path class="cls-1" d="M885.15,62c1.4-.54-2,.27-.55-.23-2.36.66-4.35,1.33-6.14,1.94C880.38,63.11,882.44,62.58,885.15,62Z"/><path class="cls-1" d="M875.44,64.68c1-.29,1.95-.62,3-1C877.44,64,876.44,64.33,875.44,64.68Z"/><path class="cls-1" d="M899.1,58.67a14.17,14.17,0,0,0-2.77.5l1.41-.14Z"/><path class="cls-1" d="M897.79,59h0l-2.93.77Z"/><path class="cls-1" d="M899.44,58.58l-.34.09A.86.86,0,0,0,899.44,58.58Z"/><path class="cls-1" d="M914.07,55c-2,.66-6.17,1.93-2,1C913.44,55.43,911.08,56,914.07,55Z"/><path class="cls-1" d="M901.2,58.41l3.67-.93c-.09,0-.77.05.21-.28Z"/><polygon class="cls-1" points="899.42 58.96 901.2 58.41 899.84 58.75 899.42 58.96"/><path class="cls-1" d="M881.77,63.22c-1.56.52-3.29,1-5.23,1.53,2.1-.52,4.27-1.08,6.33-1.63C883.14,63,884,62.61,881.77,63.22Z"/><path class="cls-1" d="M889.56,61.2l-.35.11C889.43,61.27,889.61,61.23,889.56,61.2Z"/><path class="cls-1" d="M857.31,69.89l.32,0,.06,0Z"/><path class="cls-1" d="M883.23,63.07a30.56,30.56,0,0,0,3.38-1l-3.74,1C882.74,63.19,882.72,63.22,883.23,63.07Z"/><path class="cls-1" d="M870.11,66.22l2.76-.6A24.35,24.35,0,0,0,870.11,66.22Z"/><path class="cls-1" d="M888.66,61.39l.24-.08C888.37,61.4,888.44,61.41,888.66,61.39Z"/><path class="cls-1" d="M888.66,61.39c-.8.24-1.42.47-2,.69l2.6-.77Z"/><path class="cls-1" d="M851.87,72.88a40.45,40.45,0,0,1,7.94-2.32c3.47-1.09,1-1.16-2.18-.72-.08.12-.06.21-3.64,1.3,1.29-.23,8.09-1.89,5.09-.88a43.44,43.44,0,0,1-6.3,1.49c2.05-.27-6,2-4.85,2.1l4.17-1.25C852.19,72.63,850.69,73.13,851.87,72.88Z"/><path class="cls-1" d="M864.53,68,866,67.6c-1.71.42-2.94.66-5.22,1.1a16.38,16.38,0,0,0-3.1,1.09L865,67.86Z"/><path class="cls-1" d="M872.69,65.81c-1.11.54-4.65,1.59-2.4,1.25,4.36-1.19,3-1,5.59-1.8-7,1.94,2-.67-3.13.56l3.79-1.07-3.67.87.16,0h0c.31,0,.41-.06.07,0l-.15,0a1.29,1.29,0,0,1-.29.17c-2.06.5-.34,0,.29-.17,0,0,.07,0,.08-.06h0l-7,2C867.51,67.23,869.38,66.72,872.69,65.81Z"/><path class="cls-1" d="M908.4,57.46c-.23,0-.22,0-.24,0C907.71,57.62,907.54,57.69,908.4,57.46Z"/><path class="cls-1" d="M905.46,58.11a20.13,20.13,0,0,1,2.58-.8c1.47-.32,0,.11.12.16,1-.33,3.47-1.1.29-.37l-.49.17a58.07,58.07,0,0,1-6.1,1.21A24.28,24.28,0,0,0,905.46,58.11Z"/><path class="cls-1" d="M888.89,62.07,883,63.75l3-.6-.18-.08C889.25,62.22,888.49,62.27,888.89,62.07Z"/><polygon class="cls-1" points="856.61 69.95 857.33 69.51 854.02 70.75 856.61 69.95"/><polygon class="cls-1" points="848.98 72.03 849.21 71.74 847.23 72.41 848.98 72.03"/><path class="cls-1" d="M419.12,85.49l-1.71.51C418.22,85.77,418.74,85.61,419.12,85.49Z"/><path class="cls-1" d="M431.65,82.24l.28-.18C431.36,82.27,431.14,82.37,431.65,82.24Z"/><path class="cls-1" d="M662.69,47.66c-2.45-.9-5.17-2-4.93-1.67l.7.44C660.23,46.88,661.56,47.29,662.69,47.66Z"/><path class="cls-1" d="M534,54.35l.75-.13,1.65-.66Z"/><path class="cls-1" d="M532.42,55.75l-3.36.71C529.82,56.32,530.9,56.09,532.42,55.75Z"/><path class="cls-1" d="M350.09,73.55l-2.08-.3C351.16,74.08,349.81,73.6,350.09,73.55Z"/><path class="cls-1" d="M771.58,78.52c-2.14-.7-3.85-1.23-5.36-1.66A36.08,36.08,0,0,0,771.58,78.52Z"/><path class="cls-1" d="M423.42,81.8a5.35,5.35,0,0,0-1.44.52C423.06,82,423.66,81.8,423.42,81.8Z"/><path class="cls-1" d="M760,75.09l1.13.38c1.59.41,3.19.83,5.11,1.39A52.72,52.72,0,0,0,760,75.09Z"/><path class="cls-1" d="M103.11,63.72l-.57.12S102.75,63.82,103.11,63.72Z"/><path class="cls-1" d="M30.34,80.63l3-.81C32.76,80,31.87,80.19,30.34,80.63Z"/><path class="cls-1" d="M818.23,80.15c1.62-.45.25-.1,0,0Z"/><path class="cls-1" d="M826.35,78.94a1.69,1.69,0,0,0-.62.28A2.15,2.15,0,0,1,826.35,78.94Z"/><path class="cls-1" d="M743.51,72l-.14,0C743.84,72.09,743.76,72.06,743.51,72Z"/><path class="cls-1" d="M820.7,79.6l-2.09.49Z"/><path class="cls-1" d="M820.34,79.58l1.42-.36C822,79.13,821.77,79.16,820.34,79.58Z"/><path class="cls-1" d="M816,80.76l2.63-.67c-.33.07-.46.09-.38.06Z"/><path class="cls-1" d="M235.3,42.22l-.34-.11C233.3,41.77,234,41.94,235.3,42.22Z"/><path class="cls-1" d="M620,38.13l.19,0-.24-.08Z"/><path class="cls-1" d="M614.2,36.66A34.7,34.7,0,0,1,620,38.09l-1.73-1.19Z"/><path class="cls-1" d="M388.49,83.56l4,1.29c-5-1-8.56-2-4.79-.73.76-.56,15.9,4.15,16.66,3.59l1.32.43.67.22,1,.3-.81-.21-.36-.08-.83-.21.9.29c.19.07.78.23,1.16.34l1-.25.51-.14c.32-.1.6-.19.86-.29.53-.19,1-.38,1.49-.59a36,36,0,0,1,5.39-1.65c2.37-.56,4-.88,2.45-.38L424.33,84c1.53-.39,1.19-.17-.34.22L432,82l-.05,0c1.11-.41,3.66-1.25,4.9-1.65,2.06-.43-1,.34-.46.29l4.39-1.32c1.86-.29-1.77.84-4.84,1.61,4.32-.36,3.63-1.13,12.68-3l-4.17,1.18c2.81-.3,6-1.3,10.83-2.28-1.15.16-9.64,1.83-4.87.41,1.37-.3,3.16-.74,5.72-1.56.09.24,2.61-.48,5.78-1.32l-.13.39A49.24,49.24,0,0,0,466.82,73c3.83-1,4.69-.91,5.65-.92,6.13-1.54-4.33.68,2.89-1.27,5.13-1.19,8.67-2.26,14.7-4,3.59-.81-.57.36.73.13l3.09-1.09c.78-.2.55,0,.43,0,2.64-.8.14-.4,4.3-1.58,1-.66,8.72-1.69,13.79-3.46,1.3-.23-.56.37-.14.4,7-2.13,6-1.79,11.78-3.67l5-1.08c-3.71.7.87-.81,4.9-2.11-1.33.21-2.46.39-3.22.54L537.21,53c.8-.15.18.14-.85.55l1.17-.39c2.36-.48,1.2,0-.42.65l-2.4.4c-1.56.62-3,1.24-2.62,1.35.42-.15,1.22-.39,2.12-.65-.41.17-.67.29-.46.27a16,16,0,0,0,1.93-.64h1.58l.32-.24,8.59-2c6-2,11.17-3.89,20.82-6.57-2.33.9-.4.58-.45.94-2.73.35-7.46,2.1-12.5,3.34,2.63-.65,2.09-.35,1.44-.12l8.87-2.64c-.13.32,2-.3,4.32-.79-1.9-.07,6.59-2.09,10.19-3.2.27.12-.55.53-5,1.64,5-.88,6.18-2.26,11.08-3.18a14.37,14.37,0,0,0-2.09.61c2.5-.81,8.73-2.3,7.31-1.77l-1.08.29c3.11-.79,7.62-2,11.81-3.08l5.83-1.62,2.34-.69c.69-.21,1.32-.41,1.59-.52a6,6,0,0,0,1.1.13c.09.08-1,.19-1.11.31a.18.18,0,0,1-.08.07l.08,0a12.26,12.26,0,0,1,1.36.19l1.63.26,3.26.53,6.51,1.05c-1.23.06,2.84,2.18-3.16.72,1.69.53,3.78,1.19,7.41,2.08-1.15-.39-2.74-1.37-1.14-1,4.24,1.66,3,1.09,8.24,3-1.72-.58.39-.62,3.14.17-.46,0,.06.66-1,.43l7,1.36c-1.74-.38-.44.41,1,1-.68-.32,5.93,1.69,7.77,2.15l-2.87-1c7.72,2.28,7.89,1.34,15.56,3.54-1-.14-2.51.1,1.38,1.28A111.51,111.51,0,0,1,682,53.73l1.26.54,5.27,1.28c-3.37-.47-12.76-2.1-17.84-3.14a43.38,43.38,0,0,0,5.1,1.65c1.48.59-2.44-.43-3.72-.78l10.08,3c-.35-.48,7.83,1.84,7.52,1.44l-11.08-2.75c-.34-.47,6.63.81,13.78,2.89,1.78.66-1.54.24-1.43.4,1,.14,6.87,1.69,7.5,2l-3.09-.67c4,1.26,6.64,1.38,11.33,3.07,1.65.49,4.81,1.84,5.16,1.72-2.59-1.16-2.76-2.55-.88-2.34.57.19,8.57,2.84,10.41,3.57,2.63,1.08-4.3-.41-2.06.51a14.19,14.19,0,0,1,2.3.38c1.71.57-.8.09,3,1.12.73-.18,7.67,2.2,1.87.2,3.72,1,3.91,1.19,8.24,2.4-1.31-.62,4.12.32,7.84,1.26-.24,0,.56.38.94.55,7.56,2.17,11.58,3.48,18.63,5.48.63.27,4,1.34,2.51,1.08,1,.22,2,.37,4.18,1,4.12,1.5-4.87-1.32-1.76,0,.33-.12,5.71,1.31,8.84,2.06-.86-.59-7.14-2.09-10.28-2.84.11-.44,5.64.63,13.07,2.51,5.9,1.55,2.46,1,3.5,1.23,4.79,1.39,7.23,1.93,9.2,2.33,1,.2,1.86.37,2.86.6l1.61.39.93.25.78.22,2.79-.68c3.72-.69.32.52,1.18.51-1.52.44-2.88.79-4,1.06-2.41-.73-4.3-1.4-6.49-2L795,86.31c-1.55-.33-4.75-1.16-6.47-1.73,1.26.46,4.71,1.47,9,2.7,5.91-1.57,13.2-3.53,18.19-4.72,1.49-.5,4.08-1.3,2.81-1.08l-2.69.76c-2.54.44,5-1.67,1.56-.86,3.57-1.13,7.56-2.47,12.69-3.7l1,.06a35.21,35.21,0,0,0-4.78,1.18c2.08-.71,7.92-1.65,10.14-2.7L832.9,77c3.59-1.14,8-2.68,12.53-3.78-2.14.23-1,.31-4.34.8,2.91-.28-11.55,3.07-7,2.36-3.41.45-5.75,1.34-10.15,2.13.16.07,1.58-.21-2.23.75-.16.08-.55.23-.81.32l-.25.06.21,0c-.16.06-.18.06.08,0a18.28,18.28,0,0,1,2-.36c-1.81.75-7.84,2.35-9.85,3-2.26.56.91-.37-.35-.15l-3,1c-.37-.15-6.08,1.21-.82-.35L804.18,84c-1.06.23-2.26.51-3.47.81l-1.81.46-1.32.35-1.67-.42c-2.23-.68-5.74-1.34-3.73-1l-7.49-2-.06-.08c-7.34-2.11-15.24-3.9-23.52-6.69-2.49-.64-5.07-1.3-9.19-2.53l-.75-.43c-3.2-.83-9.49-2.9-10.91-3.08-3.28-1.51-15.39-4.48-21-6.15l-.29.2c-3.84-1.1-7.55-2.07-12.35-3.32l.23.32c-4.18-1-10.54-3.16-17.06-5a26.21,26.21,0,0,1,3.27.91c-7.63-2.72-16.52-4.25-23.47-6.63a41.64,41.64,0,0,1-4.26-1.21l.44.11-.73-.21-2.4-.81c.72.26,1.41.51,2,.7-1.36-.37-3.42-.93-5.46-1.44l-.79-.49L658,46.3c-2-.65-1.63-.33-.62.16-1-.25-2-.46-2.71-.6-1.5-.86-5.33-1.36-7.4-2.41-1.42-.18-10.18-2.71-11.38-2.57,0-.08-.64-.28.45,0-2.23-.69-4.46-1.37-6.51-1.82L629,38.5l-5-1c-2.93-1-4.13-1.49-1.11-.9-3.62-.82-5.08-1.2-6.41-1.54l-2.14-.53-3.61-.82a3.52,3.52,0,0,1,.41-.1l-.43-.12c-.85.23-1.32.37-2,.57l-1.88.57a22.5,22.5,0,0,1-3,.76c-5,.88-24.2,6.24-36.84,9.14,2.59,0-5.9,1.24-6.28,1.85-.77,0-2.54.42-.54-.24-6.36,1.81-9.68,2.28-14,3.82-.77,0,1.31-.56.64-.48a22.5,22.5,0,0,1-2.69.74c-.68.09.9-.36,1.9-.69-6.53,1.73-7.08,2.34-7.45,2.88a39.21,39.21,0,0,0-7.33,2c-1.19.17-3.16.52.9-.58-2.3.57-14,3.43-14.17,3.83a38,38,0,0,0-3.79,1c-5.14,1.31-5.6,1.4-10.63,2.74l1.41-.31c-1.88.92-4.16,1.18-8.21,2.29l.1-.07c-9.38,2.13-4,1.18-13.25,3.24l.56.12c-.72.76-8.22,1.8-13.5,3.39l2-.35c-2.86.94-8.33,1.38-11.27,2.07-.65.12,1-.33,1.87-.6-7.74,1.67-.91.59-6.6,2.15-1.1.09,1.24-.81-2.61.16-2,.36-11,3.47-16.31,4.5,1.19-.17,2.37-.33-.26.46-4.05,1.11-11.11,2.34-14.67,3.73-.53.1-.73.11-.76.08-3.08.92-10,2.81-11.85,3.53a6.59,6.59,0,0,0-1.19.11l-.8.14-.69.14-.3-.09-.57-.16-1.2-.33L402.76,85l-5.42-1.3c-3.42-.82-6.12-1.52-6-1.83l-9.55-2.49.27,0a93.88,93.88,0,0,0-10.48-2.43c-1.39-.43-.35-.23-.22-.24A173.54,173.54,0,0,0,354,72.38l-.71-.47c-2.07-.39-12.78-3.83-21.59-5.84a3.8,3.8,0,0,1,1,.13c-9.91-2.3-23.35-7-27.2-7L299,57.73c8.38,2.3-1.36.08,2.05,1.15-3.31-.82-8.45-2.55-4.38-1.52l.62.22c1.62-.1-10.39-2.95-10.07-3.22-16.52-4.36-32.55-8.91-48-13l1.68.86-5.39-1.46c-1.4-.46-1.83-.8,2,.24a36.64,36.64,0,0,0-6.64-1.48c-7.49-2.16,3.07.33.76-.29l-3.15-.81.7.24A71.18,71.18,0,0,1,221.67,37a18.16,18.16,0,0,1-2.59-1s-.09,0-.35-.12l-1.41-.36-6.79-1.84,2.63,1c-1.52-.33-3.12-.76-3.95-1-.51-.12-.86-.2-.74-.13a3.83,3.83,0,0,0,.46.2l.89.35c-.34-.14-.69-.27-1.43-.5l-3,.69-3.65.91-8.34,2.18c-5.61,1.5-10.75,2.9-12.08,3.17-4.16,1.34-8.33,2.45-13.5,3.79,1.3-.28,2.16-.14-2.3,1,1.44-1.13-8.23,1.86-12,2.32,3.3-.52-12.64,3.44-7.47,2.58-3.72.93-.29-.2-3.15.38-8.77,2.62-19.53,5-30.43,8-.15.14,1.72-.21-.59.55L106,60.32c-2.14.62-1.84,1.06-5.87,1.79.58-.08,1.44-.18,0,.23-21.52,5.25-43.64,12-65.6,16.94,3-.6,1-.06-1.21.54,1.47-.34,0,.24.35.29l-9.2,2.07c-1.56.79-9.75,2.62-10.61,3.2l2.87-.82C13,86,22.3,84,21.87,84.64c4.18-1.58,11.49-2.35,18.36-4.86,1.58-.31-1.28.52-.42.41a59.11,59.11,0,0,1,7.89-2.27l-.43.17c11.2-3,16.07-4.1,28.71-7.31H75c2.72-.69,3.31-.76,4.6-1,3-1.2-7.62,2-4.89.84,3.72-.46,19.1-5.08,21.68-5.15,4.17-1.1-1.3,0,2.87-1.07l1.14-.13,1-.48c2.75-.7,4.17-.87,4.31-.77-.67.16-1.87.54-2.58.74,3.59-.76,10-2.72,11.2-3l-4,1c11.33-3.17,25.27-6.66,36.17-9.9l-.86.11c8.33-2.45,6.75-1.66,15.94-4.21l-.33.12c1.81-.61,4.26-1.32,6.78-2-2.29.75,4.45-.9,1.44.06,9-2.65,4.45-1.38,10.35-3.41l1.43-.17A60,60,0,0,1,188,40.2c-3.73,1.17,3-.49-1.16.85,9.77-2.14,14.23-4.24,18.82-4.8,4.29-1.71-8.43,1.93-6,1.15-2.13.38,3.55-1.37,6.6-2.12l1.13-.27.57-.11.46-.08,1.65.63,2.18.77c1.65.57,3.74,1.22,6.65,2l-1.61-.39c2.87.91,5.74,1.33,9.24,2.5,2.09.2,4.62,1.24,5.31,1l-7.14-1.79c4.06,1,8,1.48,14.56,3.48-.54-.05-2.55-.47-3.93-.77,1.92.64,3.77.92,5.75,1.58-.68.26-8.67-2.21-13.08-3,2,.72,8.26,1.87,6,1.74,3.27.26,7.62,2.1,13,3.06l-.41.16c.84.18,2.59.52,4.12.93l-2.85-.41c4.32.85,8.13,2.41,12.25,3.35-8.54-2.26-1.83-.81-5.4-2,10.63,2.47,5.89,2.26,17.72,5.27-1.61-.39-6-1.74-3.43-1.19,2.23.65,5.17,1.53,6.52,2,7.83,2-1.14-.58,2.23.15,2.58,1,3.87.9,7.32,1.71l0,.26c8.86,2.53,2.5.1,10.47,2.43L292,57.75l4.2,1-.94,0c4.61,1,6,1.43,10.44,2.69-1-.45.71-.3,4.65.74,2.65.87-1.57-.16,4,1.29a20.86,20.86,0,0,1-5.11-1.23c-.27,0-1.28-.17-1.56-.15,2.85.94,7.27,2,9.29,2.5-.77-.21-1.7-.47-2.17-.64l8.2,1.81c1.25.43.22.24-.81,0,1.65.4,2.82.59,5.24,1.21-.68,0-.59.29-4-.52l7.79,1.82c.49.23,3.89,1.3,2.87,1.11,4.25,1.26,10.61,2.39,16.25,4.06.3,0,.9.15,2.12.45,5.32,1.46,10,3,16.38,4.36l3.49,1.32c5,1.24-4.74-1.75,3.55.3,5.87,1.44,2.09.89,4.11,1.54a114.11,114.11,0,0,1,13.39,3.27C391.53,84.4,390.16,84,388.49,83.56Zm61.78-6.28a34.63,34.63,0,0,1-4.4,1.22A17.42,17.42,0,0,1,450.27,77.28Zm92.82-24.79a30.17,30.17,0,0,1-3.8.93C540.4,53.11,541.67,52.79,543.09,52.49ZM800.53,85.1l-.12.05C797.75,85.76,798.69,85.55,800.53,85.1ZM806,83.75c.54-.19.5-.21.25-.18a29.31,29.31,0,0,1-3,.85A15.7,15.7,0,0,0,806,83.75ZM218.45,35.93l1.05.35C217.07,35.71,217.76,35.83,218.45,35.93Z"/><path class="cls-1" d="M532.63,55.58a1.17,1.17,0,0,1-.54,0C531.64,55.73,531.64,55.78,532.63,55.58Z"/><path class="cls-1" d="M350.47,73.61l-.18,0a.76.76,0,0,0-.2,0Z"/><path class="cls-1" d="M721.47,66.78c-1.11-.35-1.73-.57-2.13-.74C719.26,66.09,719.76,66.28,721.47,66.78Z"/><path class="cls-1" d="M835,75.55l-3.49,1c1.7-.46,2.32-.57,3.19-.76C834.56,75.75,833.87,75.85,835,75.55Z"/><path class="cls-1" d="M865.85,69c.5-.17,1.08-.3,1.58-.46l-.17-.08C865.08,69,863.57,69.51,865.85,69Z"/><path class="cls-1" d="M838.44,75.52c.33.13,2.52-.53,5-1.22l-.43.11C843.61,73.92,841,74.72,838.44,75.52Z"/><path class="cls-1" d="M844,74.14c.76-.22,1.53-.43,2.27-.62C846.5,73.33,845.31,73.74,844,74.14Z"/><path class="cls-1" d="M813,81.75c1.18-.26.65-.47,1.34-.56C815.53,80.57,806.61,83.6,813,81.75Z"/><polygon class="cls-1" points="840.62 75.68 839.66 75.66 838.34 76.23 840.62 75.68"/><path class="cls-1" d="M821.15,80.68l4-1a3.68,3.68,0,0,1,1-.38C823.71,80,821,80.63,821.15,80.68Z"/><path class="cls-1" d="M826.13,79.33c1.26-.33,2.46-.65,3.15-.89C828.6,78.63,827.13,79,826.13,79.33Z"/><polygon class="cls-1" points="835.27 77.2 834.09 77.45 831.31 78.18 835.27 77.2"/><path class="cls-1" d="M779.11,81.72l-4.29-1.13c-.46,0,.69.35,2.29.76C778.15,81.58,779.74,82,779.11,81.72Z"/><path class="cls-1" d="M791.83,86.08a14.35,14.35,0,0,1-1.83-.73l-.22.29Z"/><path class="cls-1" d="M779.35,82.64c-.45,0-6.27-1.5-.85,0C779,82.69,783.26,83.82,779.35,82.64Z"/><polygon class="cls-1" points="715.12 64.03 716.2 64.33 716.2 63.76 715.12 64.03"/><path class="cls-1" d="M658,49.26c5,1.56,1.29,0,5.82,1.46,1.23.21-3.7-1.18-2.45-.95C658.32,49,656.74,48.51,658,49.26Z"/><path class="cls-1" d="M661.41,49.77l1.58.36Z"/><polygon class="cls-1" points="18.29 83.53 14.99 84.28 17.15 83.9 18.29 83.53"/><path class="cls-1" d="M12.12,85.59l-.86-.13-1.88.82A26.8,26.8,0,0,1,12.12,85.59Z"/><path class="cls-1" d="M459.54,75.6l.23-.15a24.39,24.39,0,0,0-2.84.62Z"/><polygon class="cls-1" points="415.08 86.89 415.85 86.7 414.34 86.77 415.08 86.89"/><path class="cls-1" d="M376.94,81.2l4.84,1.24C378.45,81.62,376.63,80.71,376.94,81.2Z"/><polygon class="cls-2" points="209.12 21.57 190.38 10.09 194.07 29.55 177.19 41.86 201.04 41.87 199.34 67.74 212.33 45.72 235.14 49.78 220.43 31.04 225.8 10.02 209.12 21.57"/><polygon class="cls-3" points="408.82 79.31 406.97 57.41 393.47 71.91 373.56 65.61 387.68 84.82 365.83 98.77 391.26 96.21 401.5 116.99 407.89 94.03 428.01 85.91 408.82 79.31"/><polygon class="cls-4" points="602.91 33.04 601.5 16.36 591.21 27.41 576.04 22.6 586.8 37.24 570.15 47.87 589.53 45.92 597.33 61.75 602.2 44.26 617.53 38.07 602.91 33.04"/><polygon class="cls-5" points="797.13 85.9 795.72 69.22 785.43 80.27 770.26 75.46 781.02 90.1 764.37 100.73 783.75 98.78 791.55 114.61 796.42 97.12 811.75 90.93 797.13 85.9"/><polygon class="cls-1" points="997.8 34.52 995.97 12.88 982.64 27.21 962.96 20.98 976.91 39.97 955.32 53.76 980.46 51.23 990.57 71.76 996.88 49.08 1016.77 41.05 997.8 34.52"/></svg>