<svg id="Capa_1" data-name="Capa 1" xmlns="http://www.w3.org/2000/svg" viewBox="0 0 377.21 152.38"><defs><style>.cls-1{fill:#f0d44f;}.cls-2{fill:#536472;}.cls-3{opacity:0.3;}.cls-4{fill:#fffcf6;}</style></defs><path class="cls-1" d="M55.36,16.48c-15-3.34-30.34,10.07-37.23,28.6s-6.46,40.85-2.08,60.75c1.83,8.33,4.54,16.8,9.67,22,5.71,5.77,13.28,6.4,20.39,6.78q116.18,6.15,232.47.92c15.85-.71,32-1.65,46.91-9a64,64,0,0,0,33.42-42.95c5.59-24.19-3.6-53-20.38-64-9.7-6.34-20.8-6.95-31.55-7.44L138.36,4.29C111.09,3,82.94,2,57.51,15.44"/><path class="cls-1" d="M61.37,20.77c-1.09.43-.19,1.23-.25,1.49C62.73,21.19,61.2,20.53,61.37,20.77Z"/><polygon class="cls-1" points="78.74 11.49 78.52 12.01 81.11 10.24 78.74 11.49"/><path class="cls-1" d="M97.22,8.34c-1-.85-2.69-.58-4.56-.15a21.4,21.4,0,0,1-5.58,1.14L86.46,9l-1.2,1.79C89.14,9.72,94.3,8.11,97.22,8.34Z"/><path class="cls-1" d="M107.44,11.81c-.63-.71,2.12-.74-2.31-.12a2.74,2.74,0,0,1,.42.17C106,11.83,106.5,11.8,107.44,11.81Z"/><path class="cls-1" d="M105.55,11.86c-2,.14,1.31.56,0,0Z"/><path class="cls-1" d="M114.63,11.23c-.86.22-1.74.42-2.6.67.55.41,2.87.53,2,.84C116.7,12.38,116.16,11.94,114.63,11.23Z"/><path class="cls-1" d="M117.12,9.84l-1.36.28C116,10.3,116.36,10.36,117.12,9.84Z"/><path class="cls-1" d="M112.88,10.71l2.88-.59c-.38-.31-.42-.93-1.32.21C114.67,9.77,114.1,10.31,112.88,10.71Z"/><path class="cls-1" d="M111.26,10.45c-1.47-.39-3.38-.61-.77-1.32-2.51.17-3.55.62-3.35.95S108.77,10.63,111.26,10.45Z"/><path class="cls-1" d="M98,6.29c-.68-.14-1.36-.24-2-.35l-1.64.82C95.15,6.35,98.18,6.85,98,6.29Z"/><path class="cls-1" d="M131,12.58c.19-.39-.85-1.11-1-1.63l-2,.38C129,11.65,130.91,12,131,12.58Z"/><path class="cls-1" d="M130,11l3-.58C130.34,10.18,129.85,10.49,130,11Z"/><path class="cls-1" d="M117.61,7.73l-4.8,1.45c1.9-.48,3.81-1,5.73-1.46Z"/><polygon class="cls-1" points="142.32 13.14 140.59 14 143.66 12.72 142.32 13.14"/><path class="cls-1" d="M149.85,13.32c-1.28.72,1.65,1.39.31,1.81A17.93,17.93,0,0,0,155.58,14,12,12,0,0,1,149.85,13.32Z"/><path class="cls-1" d="M158.26,13.22a21.19,21.19,0,0,0-2.68.75A10,10,0,0,0,158.26,13.22Z"/><path class="cls-1" d="M138,10.79a3.32,3.32,0,0,0,2.28,1.27l-1.11-1.19Z"/><path class="cls-1" d="M139.13,10.83l0,0,2.52.18Z"/><path class="cls-1" d="M137.7,10.78h.3C137.89,10.68,137.83,10.64,137.7,10.78Z"/><path class="cls-1" d="M125.28,8.92c1.75-.59,5.39-1.14,1.93-2.23C125.94,7.43,127.92,8,125.28,8.92Z"/><path class="cls-1" d="M136.32,9.29l-3.13-.4c.05.3.6.76-.28,1Z"/><polygon class="cls-1" points="137.88 9 136.32 9.29 137.49 9.44 137.88 9"/><path class="cls-1" d="M152.91,11.91a15.38,15.38,0,0,1,4.56-.41,45.79,45.79,0,0,0-5.42-.59C151.78,11.26,151,11.86,152.91,11.91Z"/><path class="cls-1" d="M146.22,11.28l.3,0C146.34,11.13,146.19,11.09,146.22,11.28Z"/><path class="cls-1" d="M174.05,12.28l-.26-.22a1.46,1.46,0,0,1-.07.19Z"/><path class="cls-1" d="M151.75,10.68a4.6,4.6,0,0,0-3,.28,31.59,31.59,0,0,1,3.26-.05C152.17,10.75,152.19,10.65,151.75,10.68Z"/><path class="cls-1" d="M162.91,12.91c-.69-.27-1.49-.51-2.32-.74C161.26,12.56,162.65,13.19,162.91,12.91Z"/><path class="cls-1" d="M147,11.57l-.2,0C147.19,11.87,147.14,11.75,147,11.57Z"/><path class="cls-1" d="M147,11.57a9.35,9.35,0,0,0,1.83-.61,17.69,17.69,0,0,0-2.27.27A1.91,1.91,0,0,1,147,11.57Z"/><path class="cls-1" d="M179.41,5.2c-.29,1-3.9,1.86-6.93.58-3.06.65-1.24,4.22,1.31,6.28.12-.46.14-.88,3.29-1.36-1.07-.63-6.86-1.67-4.19-2.5,4.16-.35,3.37.53,5.35,1.18-1.64-1.4,5.35-1.67,4.54-3.65l-3.66.52C179.07,5.94,180.4,5.52,179.41,5.2Z"/><path class="cls-1" d="M167.86,11.68l-1.29.07a15.53,15.53,0,0,1,4.37,1.63c2.16-.41,2.62-.78,2.78-1.13l-6.31-.44Z"/><path class="cls-1" d="M160.81,11.49c1.05-1.11,4.16-1.45,2.33-2.78-3.77-.1-2.68.84-5,1.23,6.09,0-1.77.56,2.59,1.41a27.6,27.6,0,0,1-3.3.15c1.09.19,2.14.41,3.12.67l-.14-.08h0v0c-.25-.16-.33-.25,0-.15l.12,0a1.09,1.09,0,0,1,.3-.42c1.75.32.26.31-.3.42,0,.06-.07.11-.08.17h0l6.12-.34A36.55,36.55,0,0,0,160.81,11.49Z"/><path class="cls-1" d="M130.54,4.34a.29.29,0,0,1,.18.28C131.12,4.49,131.27,4.4,130.54,4.34Z"/><path class="cls-1" d="M133,5.13a3.4,3.4,0,0,1-2.27.42c-1.23-.4,0-.55,0-.93-.88.27-3.06.7-.37,1.36l.44-.13c2.42.48,5.5,2.06,5.07,2.2A8.61,8.61,0,0,0,133,5.13Z"/><path class="cls-1" d="M147.1,8l5.09-.33-2.53-1.11.1.6C146.89,6.82,147.48,7.58,147.1,8Z"/><polygon class="cls-1" points="174.6 12.87 173.88 14.05 176.88 12.48 174.6 12.87"/><polygon class="cls-1" points="181.2 13.03 180.9 14.08 182.67 13.52 181.2 13.03"/><path class="cls-1" d="M240.41,143.23l-1.49.35A9,9,0,0,0,240.41,143.23Z"/><path class="cls-1" d="M251.22,143l.25-.52C251,142.75,250.78,143,251.22,143Z"/><path class="cls-1" d="M337.13,26.73c.73,2,1,4.29,1.69,3.33.15-.4.29-.78.43-1.18A6.9,6.9,0,0,1,337.13,26.73Z"/><path class="cls-1" d="M336.35,119.88l.72-.13c.15-.66.3-1.26.41-1.8C337.15,118.53,336.78,119.2,336.35,119.88Z"/><path class="cls-1" d="M338,124.62c-1,.44-1.94.84-2.94,1.2A12.25,12.25,0,0,0,338,124.62Z"/><path class="cls-1" d="M181.32,145.43l-1.74,1.19C182.31,146.6,181.11,146,181.32,145.43Z"/><path class="cls-1" d="M248.67,15.72a24.13,24.13,0,0,0,4.64.92C251.08,15.87,249.31,14.79,248.67,15.72Z"/><path class="cls-1" d="M244.29,130.84c-.91.23-1.29.48-1.25.74C244,131.35,244.49,131.12,244.29,130.84Z"/><path class="cls-1" d="M258.71,16.88c-.32-.13-.64-.2-1-.32a22.84,22.84,0,0,1-4.42.08A7.74,7.74,0,0,0,258.71,16.88Z"/><path class="cls-1" d="M6.3,73.7c.06-.16.09-.36.16-.5C6.31,73.14,6.29,73.37,6.3,73.7Z"/><path class="cls-1" d="M40.51,24.06c-.4.35-1.14.72-1.78,1.22A10.18,10.18,0,0,0,40.51,24.06Z"/><path class="cls-1" d="M207.67,14.76c-1.4,0-.23.12,0,0Z"/><path class="cls-1" d="M201.09,9.88c.3-.12.54-.27.58-.54A1,1,0,0,1,201.09,9.88Z"/><path class="cls-1" d="M273,10.33h.12C272.67,10.1,272.74,10.14,273,10.33Z"/><path class="cls-1" d="M205.59,14.14a14,14,0,0,0,1.77.42A13.27,13.27,0,0,0,205.59,14.14Z"/><path class="cls-1" d="M205.85,14.7l-1.21-.17C204.45,14.71,204.6,14.84,205.85,14.7Z"/><path class="cls-1" d="M209.62,14.79a16,16,0,0,1-2.26-.23c.28.1.39.17.31.2Z"/><path class="cls-1" d="M82,139.71l-.3-.12C80.22,140,80.85,140,82,139.71Z"/><path class="cls-1" d="M364,51.62a.83.83,0,0,0-.09-.16,1.85,1.85,0,0,1,0,.23Z"/><path class="cls-1" d="M365.83,56.78a7,7,0,0,1-1.92-5.09c-1,.82-1.93,1.62-2.9,2.39C362.69,54.9,364.23,55.81,365.83,56.78Z"/><path class="cls-1" d="M214.51,144.17l3.55,1c-4.23,1.78-7.34,1.24-4,2.65.22-1.82,3.66-2,7.09-2.12s6.87-.35,7.08-2.16l2.34.7c-.66,0-.77.2-1.43.18,4.58,1.62,3.31-2.68,9.15-2.34,2,.22,3.48.7,2.11,1.17l4.5-1c1.32,0,1,.67-.3.64l6.91-.5-.05.11a33.55,33.55,0,0,1,4.25-2c1.77.46-.87.42-.4.85l3.79-1c1.59.88-1.54,1.91-4.19,1.87,3.7,3.48,3.14-1,10.93.8l-3.59.59c2.41,2,5.2,1.11,9.34,2.22-1-.63-8.31-2.88-4.19-4a8.73,8.73,0,0,0,4.94-.53c.07,1.29,2.25.88,5,.69l-.11,1.71c2.94-.61,2.68-1.48,4.38-2.32,3.34,0,4.11,1.28,5,2.34,5.42-.06-3.85-1.88,2.51-2.6,4.53.32,7.71-.63,13-2.42,3.26.11-.4,1.12.81,1.43.88-.58,1.75-1.21,2.61-1.82.7-.08.55.37.47.59,2.28-1-.1-1.69,3.48-2.91.29-1.05,2.29-.75,4.79-.79s5.48-.37,7.32-2.2c1.27,0-.14,1.19.42,1.66,1.42-.95,2.42-1.61,3.19-2.16s1.3-1,1.81-1.38a17.17,17.17,0,0,0,1.52-1.42c.56-.61,1.28-1.28,2.16-2.39l2.24-.69c.73-.25,1.46-.53,2.2-.8-1.75.41-1.92-.32-1.41-1.51a44.65,44.65,0,0,1,2.69-4.43c-1.28.19-2.35.32-3,.49l1.91-2,1.8-2.11c.69-.21.66.58.42,1.71a10.43,10.43,0,0,0,.51-1c1-.41,1.39-.3,1.56.17a3.82,3.82,0,0,1-.23,2.07c-.76.2-1.52.37-2.25.53-.43,1.68-.86,3.39,0,4a6.73,6.73,0,0,1,1.27-1.54c-.13.45-.17.8.07.83s.54-.66,1-1.63c.75.2,1.5.39,2.27.57l-.24-.79c1.13-.7,2.2-1.48,3.31-2.24s2.13-1.63,3.2-2.45c.58-1.41,1.09-2.78,1.54-4.2s.86-2.85,1.26-4.38.91-3.06,1.42-4.76,1.14-3.47,1.93-5.42c.29,2.49,1.83,1.44,3.26,2.27a3.81,3.81,0,0,0-1.57,1.61c-.39.73-.71,1.6-1.09,2.53a32,32,0,0,1-1.2,3,14,14,0,0,1-1.81,2.9c1.54-1.87,1.88-1,1.75-.32.57-1.32,1.17-2.59,1.64-3.93s1-2.63,1.38-4c.55.41,1,.14,1.46-.45.24-.29.5-.65.79-1.06a13.14,13.14,0,0,1,.92-1.3c-1.57.17-1.28-1.41-.64-3.45.29-1,.69-2.19,1-3.29a17.59,17.59,0,0,0,.6-3c.46,0,.85.3.94,1a7.78,7.78,0,0,1-1,3.86,4.88,4.88,0,0,0,1-1.3,4.05,4.05,0,0,0,.37-1.3,7.58,7.58,0,0,0-.23-2.47c-.36-1.62-.86-3.17.49-5.09-.19,1-.48,1.44-.13,1.93a16.46,16.46,0,0,1,.71-4.62,7.63,7.63,0,0,1,.69-1.71c.21-.35.4-.43.55-.07,0,.33-.1.65-.16,1a22.55,22.55,0,0,0,.48-2.73c.13-1,.26-2.07.37-3.17s.07-2.24.08-3.37c0-.57,0-1.13,0-1.69s-.1-1.1-.14-1.64c-.1-1.07-.22-2.1-.37-3a22.24,22.24,0,0,0-.64-2.51c-.47-1.45-1-2.4-1.59-2.56a9.58,9.58,0,0,1,3.29.88c-.69-.92-1.49-1.8-2.26-2.67s-1.54-1.71-2.31-2.52c-1.64-1.62-3.23-3.15-4.91-4.56,1.07.22,2.48-.84,3.92-1.41a3.07,3.07,0,0,1,2.16-.2,3.43,3.43,0,0,1,1.94,2.16A13.54,13.54,0,0,0,362,44.83c.06,1.14-2,3.36-2.52,2a15.42,15.42,0,0,0,.41-2.4,9.76,9.76,0,0,0,0-1.39c-.07-.85-.07-1.81-.25-4.46.26,1.65-3.28,1.16-4.15-1.1.57.17,2.64-1.48,3.3-.75-.85-.79-1.85-1.49-2.76-2.2s-1.8-1.41-2.81-2c1.28,1.05,2.36-1,2.3-2.72-.08.45-.79-.77-1.68-2.24a28.25,28.25,0,0,0-2.8-3.72c.41.88.76,1.78,1.13,2.65a14.44,14.44,0,0,0-1.5-1.93,9.44,9.44,0,0,0-1.59-1.18,10.16,10.16,0,0,0-3-1.15,14.67,14.67,0,0,1-6.69-2.8,3.05,3.05,0,0,0,2-1.24,1.75,1.75,0,0,0,.29-1.38,3,3,0,0,0-1.24-1.72c-1.15.18-3.74.75-6.57,1.46A35,35,0,0,1,325.31,18l-.82-1.11c-1.47,0-2.93.09-4.38.21a29.88,29.88,0,0,1,7.58-3.2,27.84,27.84,0,0,1,9.65-1,7.07,7.07,0,0,1-1.49-1.55c-.28-.32-.77-.61-2.81-1.36-1.18-1.29,2.69-.36,3.91.23a51.59,51.59,0,0,0-9.57-3.81c0,.91-1.95.91-3.84,1s-3.72.24-3.64,1a60.35,60.35,0,0,1,10.6.33c-.05.93-1.92,1.65-4.42,2.1a27.35,27.35,0,0,1-8.78.2c-.77-.43-.39-1.2.18-1.93s1.35-1.41,1.32-1.71c-.95.46-6.25.61-6.79.17.92-.27,1.85-.53,2.79-.77-3.57-1-5.93,2-10,.11-1.43-.18-4.17-2.5-4.46-1.45,2.24,2.15,2.4,8.49.77,10-.49-.16-7.42-2.3-9-3.38-2.29-1.71,3.71-3.66,1.77-5.12-.11.48-1.44,1-2,1.19-1.49-.48.69-1.48-2.59-1.41-.63,1.79-6.63-.46-1.61,1.46-3.22.37-3.38-.53-7.14-.62,1.14,1.22-3.55,3.83-6.78,4.2.21-.45-.48-1.09-.81-1.38-6.55-.46-10-1.45-16.13-1.75-.55-.46-3.47-1.13-2.18-1.85a8.45,8.45,0,0,1-3.61.81c-3.58-1.74,4.21,0,1.52-2.06-.29,1-4.94,1.23-7.66,1.76.75,1.67,6.19.6,8.91.07-.1,2.24-4.88,4.38-11.32,5.13-5.1.32-2.13-1.56-3-1.28-9.52-.83-8.31,3.55-16.15,1.56-3.07-1.57,0-2.85-.65-3.92,4.15-.35,6.3,1.2,9.1,1.28l-3.41-.84A11.7,11.7,0,0,1,234,9.08c-2.57-1.41-16.09-1-23.39-2.52C209.23,7,207,7.37,208,8l2.33-.1c2.09,1.26-4.45,1.4-1.53,2.07-3.16.67-6.72,1.78-11.08.93L197,9.23c.07.48,2.83,1.1,4.08.66-1.86.64-6.63-2.52-8.74-.47l3,1.27c-3.17.67-7.12,2.23-11,1.53,1.69,1.7.9-.14,3.58,1.88-2.29-2.46,10,.55,6.22-2.09,2.74,2.32,4.87,1.16,8.5,3.19-.09-.54-1.27-1.09,2-.67a3.45,3.45,0,0,1,.73-.44l.22.05-.17-.07c.14-.08.16-.09-.07,0a3.91,3.91,0,0,1-1.63-.89c1.68-1.17,6.88-.89,8.67-1.45,1.92.35-.84.58.19,1.21l2.67-.84c.2,1.21,5.06,2.23.46,2.72l4.11.24a18.08,18.08,0,0,0,7.79.8c1.92.34,5-1.1,3.22-.24l6.49-.45,0,.3c6.36.45,13.2-1.37,20.37,1.12a29.65,29.65,0,0,1,8,0l.65,1.07c2.77-.24,8.22,1.41,9.45.39,2.84,2.92,13.32,1.22,18.14,1.94l.24-1.34a69.1,69.1,0,0,0,10.7-.36l-.2-1.2c3.63-.8,9.09,1.18,14.23,1.75-.41.4-1.71.13-2.62-.25,3,1.66,6.12,1.67,9.22,1.88s6.15.75,7.94,2.88A3.66,3.66,0,0,1,336,25a1,1,0,0,0-.29-.14,4.24,4.24,0,0,0,.41.32c.32.5.63,1,1,1.52a6,6,0,0,0-.77-1.36c.39.28.91.6,1.5.94s1.17.83,1.82,1.23l-.43,1.34c.1.06.16.13.27.19.62,1.38,1.23.47,1.4-.81a8.77,8.77,0,0,0,1.93,1,1.49,1.49,0,0,0,.18,1.4,5.8,5.8,0,0,0,1,1.17c.76.78,1.61,1.6,1.1,3a3.53,3.53,0,0,1,1.41,1.1c.28.3.59.64.9,1l.89,1.19a19.87,19.87,0,0,0,1.89,2.17,2.61,2.61,0,0,0,1.83,1c-.25.17-.18.68-.56-.14.25.91.51,1.79.83,2.63a6.78,6.78,0,0,0,1.25,2.32l-1.29,1.26c1.15,1,2.15,2.11,3.25,3.23a4.88,4.88,0,0,1-.71,2.61c-.37.35-.88.09-1.75-.91A21.21,21.21,0,0,1,355.39,57a25.26,25.26,0,0,0,1.93,4.35l-1.07-.13a16.9,16.9,0,0,0,.9,3.07,3.07,3.07,0,0,1,.05,2.61,20.53,20.53,0,0,0-1,4.91c-.12,1.09-.2,2.29-.41,3.55-.09.64-.17,1.29-.26,2-.05.34-.09.67-.14,1s-.13.67-.2,1c-1,5.51-3.1,11.69-6.13,15.73,1.79-.21,1,.73-.06,1.81a9.93,9.93,0,0,0-1.45,1.68c-.36.53-.46,1,0,1.42-.94.13-2,1.07-1.72-.62a14.74,14.74,0,0,1-.77,1.59c-.3.47-.6.9-.9,1.3a22.76,22.76,0,0,1-1.76,2.08,13.31,13.31,0,0,0-1.47,1.93,6.87,6.87,0,0,0-.94,2.46c-.92-.06-.11-1.53-.76-1.43a4.93,4.93,0,0,1-.42,1c-.22.35-.5.67-.84.7-.67.06.07-.93.33-1.72-1.64,1.86-2.18,3.25-2.21,4.41a5.65,5.65,0,0,0,1.12,3.06c-2.7,1-3.59,1.94-4.35,4.24-.59,0-1.3.1-1.56-.1s0-.63,1.2-1.72c-.76.52-3.16,2-5.41,3.24s-4.26,2.49-4,3.29c-.71-.14-2.4,1-2.8,1.34-3.93,1.47-4.34,1.42-8.26,2.75l1.19,0a2.74,2.74,0,0,1-2.42,1.74,24.67,24.67,0,0,0-4.07.6l.05-.22c-2,0-3.17.09-4,.19a7.74,7.74,0,0,0-1.59.39c-.8.26-1.6.55-5.53.14l.56,1.23c-.21,1.4-2,1.2-4.25.76s-5-1.08-7.22-.42l1.68.63c-2.44,1.1-7.14-3.37-9.66-3.61-.56-.21.85-.42,1.6-.63-6.64-1.34-.77,1.71-5.66,2.31-.94-.87,1.07-2.35-2.24-2.38-1.66-.65-9.45,3.33-14,1.74,1,.66,2,1.32-.23,1.93-3.48.38-9.52-2.3-12.61,0-.45-.18-.62-.36-.64-.53-2.66.64-8.65,1.21-10.23,2.42-2.57-4.35-16.56,2.54-16.59-1.56l-8.21.36.21-.42c-5.25-.18-7.1.8-8.93,1.8-1.22-.26-.34-.65-.24-.87-7.68-.72-8.44-.55-14.86,1.51l-.68-1.32c-1.74.79-11.09-2-18.62-.5a1.21,1.21,0,0,1,.83-.6c-8.48,1.54-20.22-3.78-23.37,1l-5.61,1.11c7.23.47-1.11,2.07,1.86,2.91-2.85.25-7.34-1.55-3.84-1.75l.55.25c1.32-2.47-9-1-8.75-2.75-14.23-.13-28-1.93-41.35-2.52l1.46,2L82,132.35c-1.2-.5-1.58-1.58,1.73-1.38-1.7-1.17-5.59.72-5.7,1.14-6.46-1,2.62-2.18.63-2.3l-2.7,0,.6.25c-2.22.72-2.45,1.54-6.43,1.28-2.5-.5-1.24-1.26-2.23-1.38,0-.14-.32-.22-1.52-.12l-5.84-.43,2.27,1.65c-2.63.65-5.5-.35-2.88,1.53-1.92-1.44-7.36-2-12.62-2.23-2.65-.13-5.09-.24-7-.49a9.91,9.91,0,0,1-3.64-.94,10.12,10.12,0,0,1-8.67-3.74,1,1,0,0,1-.28,1.28c-.41.22-1.25,0-2.3-1.45,1.79-.65,1.08-2,.28-3.85s-1.76-4.3-1-6.06c-.34,1.46-1.37-.74-2.25-3s-1.71-4.33-2.34-2c-.51-3.07,1.23-.53,1.48-3-1.54-3.38-2.11-7.48-2.4-11.74s-.3-8.75-.73-13.23c-.47-.13-1.13,1.44-1.9-.49.74-1.64,1.46-3.25,2.26-4.82-.23-1.76-2.72-1.7-1-4.9-.41.44-1,1.11-1.14-.1.8-4.43,1.46-8.83,2.29-13.21a86.78,86.78,0,0,1,3.36-12.93A40,40,0,0,1,28.65,34.3a24.12,24.12,0,0,1,9.93-7.63c-2.27.52-1.18-.37.15-1.39-1,.47-.65-1-1.18-1.36a13.29,13.29,0,0,1,1.71-.59c.58-.16,1.13-.36,1.7-.49a22.61,22.61,0,0,1,3.36-.51,2.15,2.15,0,0,1,1.25-1.27,12.87,12.87,0,0,1,2.31-.65c.82-.07,1.62-.23,2.26-.34a1.57,1.57,0,0,0,1.32-.72l-1.05.13-.52.06-.51.14c1.33-1.11.41-2.17-1.23-3.16-.4-.26-.84-.51-1.28-.77s-.86-.42-1.25-.65c-.77-.46-1.38-1-1.41-1.61-1.74,1.57-4.41,1.71-7.5,2.54s-6.28,2.53-7.62,6c-.71.31-.64-.06-.48-.48s.38-.91-.12-.87a8.35,8.35,0,0,1-1.44,2.81,31.58,31.58,0,0,1-3.12,3.23l.07-.5c-3.22,4.17-5.24,7.28-7.35,10.58-.5.84-1,1.69-1.53,2.58s-1,1.84-1.5,2.85-1,2.08-1.49,3.24-1,2.42-1.48,3.8l1.45-.47a18,18,0,0,1-1.93,3.8c.61,1.6,1-.09,1.51-1.78s1.11-3.37,1.76-1.84c-1.71,1.18-2.86,5.41-3.62,9.53S8.56,66.61,7,67.6c-.29,3.78,1.54-1,1.25,2.76-.3.32-.57.64-.85,1l1,1C8.15,74.75,7.17,76,6.5,76.07a18,18,0,0,0-.2-2.37A16.15,16.15,0,0,0,6,79.61a31.59,31.59,0,0,1,.4,4.29c.07-1.21.24-2.43.35-3.64.49,5.13.88,10.8,1.73,16.38.22,1.39.43,2.78.72,4.14s.56,2.72.91,4a44.22,44.22,0,0,0,2.55,7.46l.38-.88A29.34,29.34,0,0,1,15.32,118a19.25,19.25,0,0,0,3.08,7.26l-.29-.21c1.43,1.27,3,3.1,4.72,5-1-.64-.59.43,0,1.42s1.06,2-.44,1.09a19.54,19.54,0,0,0,4.48,2.55,5.67,5.67,0,0,0,1.91.48c.43,0,.78,0,1.42-.1s1.58-.08,3.12-.16c.32.44.65.88,1,1.33,1.08-.19,1.66-.39,2.51-.5a26.26,26.26,0,0,1,4,0c-1.72.23-1.13.67-.56,1.16s1.12,1-.92,1.31a17.22,17.22,0,0,0,5.78,1.12,30.76,30.76,0,0,0,4.33-.28c2.55-.3,4.53-.49,6.37,1.18,4-2.54-7.14-1.88-5-2.36-1.75-1,3.26-1.88,5.86-1.48,2.66.2,4.36,3.73,11.07,4-.67,0-.72.17-1.39.13,2.48.8,5-.73,8,.53,1.79-1.58,4,.25,4.57-1.84l-6.17.25c3.51-.4,6.87-2.76,12.57-1.34A11.46,11.46,0,0,1,82,139.71c1.66.68,3.25-.29,5,.41-.57,2.09-7.48.18-11.28,1.65,1.77,1,7.12-1.26,5.16.95,2.81-2.81,6.6.63,11.21-1.45l-.34,1.26a12.28,12.28,0,0,1,3.56-.66l-2.45,1.57c3.72-1.28,7.06,1.44,10.61.79-7.39-.19-1.61-1.57-4.71-2.59,9.15-1.41,5.14,3.46,15.37,3.12-1.39.15-5.17-.89-3-1.42a20.21,20.21,0,0,1,5.66,1.55c6.77-.1-1-1.32,1.89-2,2.27,1.59,3.33-.56,6.3-1v1.29c7.69,1,2.09-2.64,9-1.52l-3,1.73,3.63-.4-.77,1.46c3.95-1,5.17-.74,9-.28-.89-.92.53-2.33,3.94-2.32,2.32.79-1.31,1.21,3.52,1.07-1.1.79-2.3,1.8-4.4.58-.22.42-1.08.8-1.31,1.21,2.5.92,6.3.26,8.05.26a7.15,7.15,0,0,1-1.89-.31l7-1.74c1.1.5.22.88-.65,1.25,1.42-.13,2.41-.71,4.5-.81-.55,1-.42,2.12-3.39,2.59l6.7-1.13c.44.46,3.42,1.26,2.55,1.64,3.71.61,9.1-2,14-1.23a4,4,0,0,1,1.81-.56c4.62.21,8.72,1.48,14.18,0l3.13,1.84c4.28-.47-4.23-2.31,2.89-3.1,5-.65,1.91,1.58,3.69,2.07,2.5-1,6.83-3,11.5-1.54A28.78,28.78,0,0,1,214.51,144.17Zm52.8-2.36c-1,.31-3,1.24-3.8.5C264.62,140.8,265.54,141.46,267.31,141.81ZM343.9,116.4c-.23.89-1.3,1.57-2.63,2.15A11.11,11.11,0,0,1,343.9,116.4ZM223,14.42l.11-.05C225.39,15,224.6,14.74,223,14.42Zm-4.7-.77c-.48.15-.46.33-.27.52a4.39,4.39,0,0,1,2.61-.13C220.35,13.68,219.75,13.42,218.33,13.65ZM67.39,130.45l.9.38C66.2,131.11,66.8,130.8,67.39,130.45Z"/><path class="cls-1" d="M337.85,124.05a1.14,1.14,0,0,1-.79-.28C336.85,124.2,337,124.41,337.85,124.05Z"/><path class="cls-1" d="M181.64,145.21h-.16a.48.48,0,0,0-.16.23Z"/><path class="cls-1" d="M292,6.14a4.92,4.92,0,0,1,1.85.75C294,6.57,293.52,6.29,292,6.14Z"/><path class="cls-1" d="M193.19,14.67l3-.19a6.68,6.68,0,0,1-2.71-.55C193.58,14.24,194.13,14.7,193.19,14.67Z"/><path class="cls-1" d="M167.28,5.51c-.45.14-.94,0-1.38.11l.09.61C167.88,6.27,169.22,5.85,167.28,5.51Z"/><path class="cls-1" d="M190.58,10.28c-.19-1.1-2.1-.82-4.23-.72.12,0,.25,0,.37,0C186,11.07,188.31,10.67,190.58,10.28Z"/><path class="cls-1" d="M185.85,9.58a12.8,12.8,0,0,1-2-.06C183.62,10.11,184.68,9.68,185.85,9.58Z"/><path class="cls-1" d="M212.3,14.09c-1-.33-.69,1.35-1.24.88C209.87,16.3,217.84,13.62,212.3,14.09Z"/><polygon class="cls-1" points="189.03 6.64 189.73 8.01 190.97 6.98 189.03 6.64"/><path class="cls-1" d="M205.73,8.39l-3.37-.53c0,.23-.4.34-.93.42C203.51,8.42,205.79,8.79,205.73,8.39Z"/><path class="cls-1" d="M201.43,8.28a8.68,8.68,0,0,0-2.74.09A20.69,20.69,0,0,0,201.43,8.28Z"/><polygon class="cls-1" points="193.68 6.45 194.67 6.77 197.06 6.98 193.68 6.45"/><path class="cls-1" d="M242.14,10.33l3.71-.21c.4-.44-.6-.77-2-.65C243,9.75,241.59,9.86,242.14,10.33Z"/><path class="cls-1" d="M231.12,6.16c1,.32,1,.62,1.59,1.09l.18-1.65Z"/><path class="cls-1" d="M241.92,6.27c.39-.44,5.43-1.07.74-1.18C242.26,5.53,238.54,5.74,241.92,6.27Z"/><polygon class="cls-1" points="297.54 10.94 296.6 10.91 296.61 13.63 297.54 10.94"/><path class="cls-1" d="M348.85,18.68c-1.7-2-2.22-1.91-2.65-1.77s-.79.31-2.44-1.41c-.68-.1,0,.6.65,1.28s1.25,1.41.63,1.22C347.7,19.52,348.64,20.93,348.85,18.68Z"/><path class="cls-1" d="M345,18a9.82,9.82,0,0,0-1.49-.62A14.12,14.12,0,0,0,345,18Z"/><path class="cls-1" d="M48.53,22.69l1,.17.49.08.48.16a7,7,0,0,0-1.32-.83Z"/><path class="cls-1" d="M52.54,20.61c.11.61.2,1.21.28,1.8.46-.45,1-.91,1.53-1.36C53.83,21.06,52.87,21.07,52.54,20.61Z"/><path class="cls-1" d="M275.3,145l.2-.43c-.46-.43-1.12-.43-2.45-.45Z"/><polygon class="cls-1" points="236.89 145.03 237.55 145.04 236.27 143.52 236.89 145.03"/><path class="cls-1" d="M204.71,147.69c1.32.05,2.86-.33,4.18-.28C206,147.74,204.33,145.74,204.71,147.69Z"/><path class="cls-2" d="M40.16,52.85c1.46.19,1.19,1.81,2.77,2,2.58.36,3.16-1.16,3.52-2.94.7-3.73-1.49-6.53-3.87-9.63a5.23,5.23,0,0,1-1.36-4.54c.55-2.61,2.05-4.4,5.33-4.4.28,0,.56,0,.87,0,1.07.1,1.83.29,1.63,1.22-.35,1.61-4.55-1.12-5.45,3.5-.43,2.12.6,3,1.95,4.88,2.11,3,3.94,5.74,3.23,9.3-.54,2.71-1.89,4.29-5.09,4.3-.32,0-.64,0-.95,0-1.39-.2-3.81-1.31-3.81-2.67,0-.06,0-.16,0-.23C39,53.25,39.6,52.85,40.16,52.85Z"/><path class="cls-2" d="M60.4,30.9c7.09.65,6.1,14.7,5.71,19.09-.27,2.41-1.72,6.6-5.68,6.61-7,0-7.35-10-7.36-13.81C53.06,38.6,53.39,30.92,60.4,30.9ZM55.33,42.66c0,9.66,2.17,12.3,5,12.29,3.88,0,3.89-8.38,3.89-10.46v-.13c0-2.54-.87-11.78-4.63-11.77-3,0-4.22,5.51-4.21,7.16C55.32,40.81,55.32,41.73,55.33,42.66Z"/><path class="cls-2" d="M83.25,36.47,79,45.25c-.07.66-1.94.73-2.25.43a1.87,1.87,0,0,1-.28-.39c-1-2.77-2-5.51-3.27-8.21-.65,6.2.19,12.54-.74,18.71a2.26,2.26,0,0,1-1.23.23c-.83,0-.79-.16-.79-.79,0-1.06.35-1.75.22-22.57,0-1,1.81-1.75,2.29-.66l4.86,11c1.14-1.09,4.56-10.37,5.43-11.59.39-.66,1.26-.56,2.25,0,0,0,.27,10.88.33,15.53,0,2.94.25,6,.26,9a1.15,1.15,0,0,1-1.23,1.12c-.63,0-.79-.13-1-.66C83.92,49.73,83.67,43.1,83.25,36.47Z"/><path class="cls-2" d="M96.69,30.83c7.09.65,6.1,14.7,5.72,19.09-.27,2.41-1.73,6.6-5.68,6.61-7,0-7.35-10-7.36-13.81C89.35,38.53,89.69,30.85,96.69,30.83ZM91.62,42.59c0,9.66,2.17,12.3,5,12.29,3.88,0,3.9-8.38,3.89-10.46v-.14c0-2.54-.86-11.77-4.62-11.76-3,0-4.22,5.51-4.22,7.16C91.62,40.74,91.62,41.66,91.62,42.59Z"/><path class="cls-2" d="M106.92,51.13c1.59.4.09,3.3,2.07,4.26h.24c2.22,0,2.84-2.55,2.84-3.9A11.57,11.57,0,0,0,111,46c-1.87-3.56-5.88-6.52-5.89-10.61,0-1.84,1.33-4.92,4.06-4.92,1.74,0,4.64,1.14,4.64,2.86,0,.63-.23,1-1,1-1.55,0-1.08-2-3.26-2-2,0-2.17,2.34-2.16,3.5,0,3.33,3.38,5.67,5.17,8.43,1.63,2.54,2.47,6.24,1.52,8.74-.62,1.72-2.4,4.07-4.81,4.07-2.93,0-3.85-3-3.86-5C105.38,51.53,106.29,51,106.92,51.13Z"/><path class="cls-2" d="M119.75,37.78a1.65,1.65,0,0,1,1.79,1.62c0,.72-.83.82-1.58.82a1.36,1.36,0,0,1-1.55-1.44C118.41,38.35,119.28,37.78,119.75,37.78Zm0,16.83a1.63,1.63,0,0,1,1.78,1.61c0,.73-.83.83-1.58.83a1.37,1.37,0,0,1-1.55-1.45C118.45,55.17,119.32,54.61,119.8,54.61Z"/><path class="cls-2" d="M137.83,33.13c-.09-1.32,2.09-2.12,2.92-.21l8.13,18.23c0-1.45.33-9.56.56-12.8a28,28,0,0,1,.46-5.84c0-.36.43-.36,1-.36,1,0,1,.06,1,.79-.11,3.43-.7,6.86-.85,10.29-.07,1.91-.44,11.05-.44,13-.27.69-1.5.3-1.82-.26s-.71-1.35-9.16-20l-.22,20.25c0,1-2,.9-2,.2Z"/><path class="cls-2" d="M161.73,30.71c7.08.64,6.09,14.7,5.71,19.09-.27,2.41-1.72,6.6-5.68,6.61-7,0-7.35-9.95-7.36-13.81C154.39,38.41,154.72,30.72,161.73,30.71Zm-5.08,11.75c0,9.67,2.17,12.3,5,12.3,3.88,0,3.9-8.39,3.89-10.47v-.13c0-2.54-.86-11.78-4.62-11.77-3,0-4.22,5.52-4.22,7.17C156.65,40.61,156.65,41.54,156.65,42.46Z"/><path class="cls-2" d="M172,51c1.58.39.08,3.3,2.07,4.25h.23c2.22,0,2.85-2.54,2.84-3.9A11.53,11.53,0,0,0,176,45.89c-1.87-3.56-5.88-6.52-5.89-10.61,0-1.85,1.33-4.92,4.06-4.93,1.75,0,4.64,1.15,4.64,2.86,0,.63-.23,1-1,1-1.55,0-1.08-2-3.25-2s-2.17,2.35-2.17,3.5c0,3.34,3.38,5.67,5.17,8.44,1.63,2.54,2.47,6.23,1.53,8.74-.63,1.72-2.41,4.06-4.82,4.07-2.93,0-3.85-3-3.86-5C170.41,51.41,171.32,50.85,172,51Z"/><path class="cls-2" d="M195.34,49.15c0-2.64.16-15,.23-17.62.2-.46,1.19-.4,1.66-.4,4.12,0,7.1,3,7.1,6.32,0,3.57-2.9,7.56-6.82,9.09,0,.53-.19,3.1-.19,3.63,0,1.12,0,6.2,0,7.29a1.6,1.6,0,0,1-1.22.43,1.17,1.17,0,0,1-.75-.2Zm2.09-4.82a1.46,1.46,0,0,0,.83-.23c2.29-1.76,3.63-3.77,3.62-6.41,0-1.72-1.48-4.81-4.21-4.81Z"/><path class="cls-2" d="M206.8,54.34c0-7.42.27-14.91.49-22.33.07-1.52.75-1.52,2.33-1.53h.4c3.64,0,6,2,6,4.87v.37c0,2.4-.74,5.21-3.35,6.7a14,14,0,0,1,1.27,1.28c1.79,1.95,1.36,6.67,1.57,8.94,0,.2.24,1.72.24,1.91v.27c0,.56-.63.63-1.14.63h0c-.44,0-.95,0-1.11-.46,0-1.09-.42-6.14-.5-7.26-.16-1.62-.56-3.82-3-3.82h-.63a15.78,15.78,0,0,0-.23,1.91c0,.3-.22,7.63-.25,10.43,0,.63.12,1.32-.87,1.32a1.57,1.57,0,0,1-1.19-.46Zm3-12.77c2.81,0,3.86-4.33,3.86-5.85s-.88-3.53-3.14-3.52c-.59,0-1,.29-1,.86,0,2.87-.27,5.28-.26,8.21C209.33,41.53,209.61,41.57,209.85,41.57Z"/><path class="cls-2" d="M220,33.17A1.36,1.36,0,0,1,221.34,32h6.25a2.15,2.15,0,0,1,1.07.66.23.23,0,0,1,0,.16c0,.66-1.06,1-1.7,1h-4.74l.22,11,4.28-.53H227c1.87,0,1.16,1.51-.43,1.71l-4,.51-.1,8.61c.36,0,1.7,0,2.06,0,2.65,0,4.59-.76,4.71.75.09,1.13-8.78,1-8.78.38Z"/><path class="cls-2" d="M233.22,49.08c0-2.64.16-15,.23-17.62.2-.46,1.19-.4,1.66-.4,4.12,0,7.1,3,7.1,6.32,0,3.56-2.9,7.56-6.82,9.09,0,.52-.19,3.1-.19,3.63,0,1.12,0,6.2,0,7.29a1.6,1.6,0,0,1-1.22.43,1.23,1.23,0,0,1-.75-.2Zm2.09-4.82a1.4,1.4,0,0,0,.83-.24c2.29-1.75,3.63-3.76,3.62-6.4,0-1.72-1.48-4.82-4.21-4.81Z"/><path class="cls-2" d="M246.37,50l-.24.2-.66,3.73c-.08.49,0,1.91-1.19,1.91-.51,0-.87-.85-.87-1.18,4.05-23.93,4.09-24,4.09-24,.2-.62.47-1.55,1.46-1.55a1.62,1.62,0,0,1,1.23.49l.32.69c2.31,7.56,3.4,15.31,4.49,23.09l.25,2.14s0,0,0,.07c-.28.63-.44.89-1.19.89h-.12c-.23,0-.63,0-.67-.23l-1-6.26Zm.58-2,5,.09-2.69-15.4Z"/><path class="cls-2" d="M257.66,54.24c0-7.42.27-14.91.49-22.33.07-1.52.75-1.52,2.33-1.52h.4c3.64,0,6,2,6,4.87v.37c0,2.41-.74,5.21-3.35,6.7a14.09,14.09,0,0,1,1.27,1.29c1.79,1.94,1.37,6.66,1.57,8.93,0,.2.24,1.72.24,1.92v.26c0,.56-.63.63-1.14.63h0c-.44,0-.95,0-1.11-.46,0-1.09-.41-6.14-.5-7.26-.16-1.61-.56-3.82-3-3.82h-.64a15.71,15.71,0,0,0-.23,1.92c0,.29-.22,7.62-.25,10.42,0,.63.12,1.32-.87,1.32a1.53,1.53,0,0,1-1.18-.46Zm3-12.77c2.81,0,3.87-4.33,3.86-5.85s-.88-3.53-3.13-3.52c-.6,0-1,.3-1,.86.05,2.87-.26,5.28-.26,8.21C260.2,41.44,260.47,41.47,260.71,41.47Z"/><path class="cls-2" d="M273.84,50l-.24.2-.66,3.73c-.08.5,0,1.92-1.19,1.92-.51,0-.87-.86-.87-1.19,4.05-23.92,4.09-24,4.09-24,.19-.63.47-1.55,1.46-1.55a1.62,1.62,0,0,1,1.23.49l.32.69c2.31,7.55,3.4,15.3,4.49,23.09l.25,2.14s0,0,0,.07c-.28.62-.44.89-1.19.89h-.12c-.23,0-.63,0-.67-.23l-1-6.27Zm.58-2,4.95.09-2.69-15.4Z"/><path class="cls-2" d="M299.52,36.05l-4.25,8.78c-.07.66-1.93.73-2.25.44a2.3,2.3,0,0,1-.28-.4c-1-2.77-1.95-5.5-3.27-8.21-.65,6.21.2,12.54-.74,18.71a2.24,2.24,0,0,1-1.22.23c-.84,0-.8-.16-.8-.79,0-1.05.35-1.75.22-22.56,0-1,1.81-1.75,2.29-.67l4.86,11c1.14-1.09,4.56-10.37,5.43-11.59.39-.66,1.26-.56,2.26,0,0,0,.26,10.88.32,15.54,0,2.93.25,6,.26,9a1.15,1.15,0,0,1-1.23,1.12c-.63,0-.79-.13-1-.66C300.19,49.31,299.94,42.68,299.52,36.05Z"/><path class="cls-2" d="M313,30.42c7.08.64,6.09,14.7,5.71,19.09-.27,2.4-1.72,6.6-5.68,6.6-7,0-7.35-9.94-7.36-13.8C305.62,38.12,306,30.43,313,30.42Zm-5.08,11.75c0,9.67,2.17,12.3,5,12.29,3.88,0,3.9-8.38,3.89-10.46v-.13c0-2.54-.86-11.78-4.62-11.77-3,0-4.22,5.52-4.22,7.17C307.89,40.32,307.89,41.25,307.89,42.17Z"/><path class="cls-2" d="M323.19,50.72c1.59.39.09,3.3,2.07,4.25h.24c2.22,0,2.85-2.55,2.84-3.9a11.53,11.53,0,0,0-1.08-5.47c-1.87-3.56-5.88-6.52-5.89-10.62,0-1.84,1.33-4.91,4.06-4.92,1.74,0,4.64,1.15,4.64,2.86,0,.63-.23,1-1,1-1.55,0-1.08-2-3.26-2-2,0-2.17,2.35-2.16,3.5,0,3.33,3.38,5.67,5.17,8.44,1.63,2.53,2.47,6.23,1.52,8.74-.62,1.71-2.4,4.06-4.81,4.06-2.93,0-3.85-3-3.86-5C321.65,51.12,322.56,50.55,323.19,50.72Z"/><g class="cls-3"><path class="cls-4" d="M185.58,126.11a195.61,195.61,0,0,0,39.78-2.34,21.71,21.71,0,0,0,9.91-3.87c3-2.28,5.1-6.5,4.25-10.51a9.68,9.68,0,0,0-7.36-7.09c-10.49-2.47-21.09-2.34-31.69-2-17.09.47-34.88-2.16-51.77,2-3,.76-6.15,1.8-8.46,4.2s-3.56,6.52-2.13,9.72c1.21,2.69,3.86,4,6.35,5a81.69,81.69,0,0,0,41.12,4.92"/><path class="cls-4" d="M185,123.9c.33,0,.16-.37.2-.45C184.68,123.6,185,124,185,123.9Z"/><polygon class="cls-4" points="179.72 125.33 179.8 125.16 179.02 125.6 179.72 125.33"/><path class="cls-4" d="M174.63,125.49c.48.69,1.84-.14,2.75.08l.16.15.39-.55A13.21,13.21,0,0,1,174.63,125.49Z"/><path class="cls-4" d="M172,124c.15.26-.59.2.62.1l-.12-.07A3.79,3.79,0,0,1,172,124Z"/><path class="cls-4" d="M172.46,124.05c.53,0-.33-.23,0,0Z"/><path class="cls-4" d="M170,124.1l.71-.2c-.14-.16-.75-.21-.52-.31C169.5,123.66,169.63,123.82,170,124.1Z"/><path class="cls-4" d="M169.34,124.54l.36-.07C169.64,124.4,169.55,124.37,169.34,124.54Z"/><path class="cls-4" d="M170.48,124.3c-.26.07-.52.12-.78.17.1.11.1.33.36,0C170,124.61,170.15,124.43,170.48,124.3Z"/><path class="cls-4" d="M170.91,124.42c.38.16.89.27.18.47C172.43,124.86,172.24,124.38,170.91,124.42Z"/><path class="cls-4" d="M174.36,126.18l.54.19.46-.22C175.13,126.27,174.33,126,174.36,126.18Z"/><path class="cls-4" d="M165.75,123.39c-.06.14.19.4.22.58l.53-.1C166.25,123.74,165.76,123.6,165.75,123.39Z"/><path class="cls-4" d="M166,124l-.79.17C165.86,124.24,166,124.13,166,124Z"/><path class="cls-4" d="M169.16,125.26c.44-.14.87-.27,1.31-.43-.52.17-1,.28-1.55.42Z"/><polygon class="cls-4" points="162.85 123 163.33 122.73 162.49 123.11 162.85 123"/><path class="cls-4" d="M160.93,122.74c.36-.21-.35-.52,0-.63a4.35,4.35,0,0,0-1.44.23A2.58,2.58,0,0,1,160.93,122.74Z"/><path class="cls-4" d="M158.77,122.5a4.62,4.62,0,0,0,.73-.16A2.46,2.46,0,0,0,158.77,122.5Z"/><path class="cls-4" d="M163.88,123.89a.85.85,0,0,0-.55-.48l.25.44Z"/><path class="cls-4" d="M163.59,123.86h0l-.65-.11Z"/><path class="cls-4" d="M164,123.91l-.08,0S163.92,124,164,123.91Z"/><path class="cls-4" d="M167.16,124.75c-.48.17-1.46.31-.57.74C167,125.26,166.44,125,167.16,124.75Z"/><path class="cls-4" d="M164.27,124.45l.8.2c0-.11-.13-.28.11-.36Z"/><polygon class="cls-4" points="163.85 124.52 164.26 124.45 163.97 124.37 163.85 124.52"/><path class="cls-4" d="M160.07,123.14a2.87,2.87,0,0,1-1.2,0,7,7,0,0,0,1.37.39C160.33,123.4,160.57,123.21,160.07,123.14Z"/><path class="cls-4" d="M161.77,123.54h-.08S161.77,123.61,161.77,123.54Z"/><polygon class="cls-4" points="154.67 122.17 154.72 122.25 154.75 122.19 154.67 122.17"/><path class="cls-4" d="M160.31,123.6a1,1,0,0,0,.78,0,6.57,6.57,0,0,1-.85-.08S160.19,123.6,160.31,123.6Z"/><path class="cls-4" d="M157.56,122.45a3.64,3.64,0,0,0,.55.33C158,122.62,157.64,122.36,157.56,122.45Z"/><path class="cls-4" d="M161.59,123.42h0C161.54,123.31,161.55,123.36,161.59,123.42Z"/><path class="cls-4" d="M161.59,123.42a1.84,1.84,0,0,0-.5.17,3.7,3.7,0,0,0,.6,0A.32.32,0,0,1,161.59,123.42Z"/><path class="cls-4" d="M152.73,124.28c.16-.34,1.16-.41,1.86.18.86-.09.62-1.38.13-2.21-.07.15-.1.3-.95.29.22.28,1.65.92.89,1.07-1.1-.1-.83-.35-1.29-.68.32.56-1.52.28-1.48,1l1,0C152.88,124.05,152.5,124.12,152.73,124.28Z"/><path class="cls-4" d="M156.21,122.65l.34,0a3.13,3.13,0,0,1-1-.74c-.58,0-.72.14-.79.25.52.16,1.06.29,1.59.44Z"/><path class="cls-4" d="M158,123c-.34.35-1.16.33-.77.87,1,.17.75-.19,1.36-.24-1.58-.22.49-.13-.59-.58a5.61,5.61,0,0,1,.86.06,5.84,5.84,0,0,1-.76-.34l0,0h0c0,.06.07.1,0,.05h0a.36.36,0,0,1-.1.14c-.43-.17,0-.12.1-.14l0-.05h0c-.53,0-1.06-.08-1.59-.13A5.37,5.37,0,0,0,158,123Z"/><path class="cls-4" d="M165.65,126.26a.1.1,0,0,1,0-.1C165.5,126.2,165.45,126.23,165.65,126.26Z"/><path class="cls-4" d="M165,126a.77.77,0,0,1,.61-.11c.32.15,0,.19,0,.32.24-.08.83-.2.13-.47l-.12,0c-.63-.19-1.39-.8-1.27-.84A2.6,2.6,0,0,0,165,126Z"/><path class="cls-4" d="M161.4,124.65l-1.36,0,.62.45v-.21C161.4,125.07,161.28,124.79,161.4,124.65Z"/><polygon class="cls-4" points="154.57 121.93 154.84 121.57 153.96 121.95 154.57 121.93"/><polygon class="cls-4" points="152.91 121.54 153.07 121.2 152.57 121.3 152.91 121.54"/><path class="cls-4" d="M211.34,97.9l.41-.1A2.44,2.44,0,0,0,211.34,97.9Z"/><path class="cls-4" d="M208.42,97.87l-.07.18C208.49,98,208.54,97.88,208.42,97.87Z"/><path class="cls-4" d="M155.59,103.29c.61.26,1.3.7,1.18.3l-.23-.37A1.89,1.89,0,0,1,155.59,103.29Z"/><path class="cls-4" d="M184.81,100l-.16-.13-.41.37Z"/><path class="cls-4" d="M185.27,98.35l.76.28A3.65,3.65,0,0,0,185.27,98.35Z"/><path class="cls-4" d="M227.43,98.69l.54-.32C227.22,98.25,227.52,98.5,227.43,98.69Z"/><path class="cls-4" d="M139.82,114.33a5.3,5.3,0,0,0,.14-.89C139.74,113.87,139.47,114.29,139.82,114.33Z"/><path class="cls-4" d="M210.18,102.17c.24-.07.34-.15.34-.24C210.27,102,210.13,102.07,210.18,102.17Z"/><path class="cls-4" d="M140,112.41l-.13.18a3.37,3.37,0,0,1,.07.85A1,1,0,0,0,140,112.41Z"/><path class="cls-4" d="M207.2,128.16l-.14,0S207.11,128.17,207.2,128.16Z"/><path class="cls-4" d="M190.45,124.47a6.75,6.75,0,0,1,.68,0A2,2,0,0,0,190.45,124.47Z"/><path class="cls-4" d="M146.43,119.22c.35.1.07,0,0,0Z"/><path class="cls-4" d="M147.55,121.33a.27.27,0,0,0-.2.14A.37.37,0,0,1,147.55,121.33Z"/><path class="cls-4" d="M138.69,108.54l0,0C138.58,108.57,138.61,108.57,138.69,108.54Z"/><path class="cls-4" d="M146.88,119.58a4.62,4.62,0,0,0-.4-.27A2.3,2.3,0,0,0,146.88,119.58Z"/><path class="cls-4" d="M146.87,119.38l.29.15C147.22,119.48,147.2,119.43,146.87,119.38Z"/><path class="cls-4" d="M146,119.07a2.85,2.85,0,0,1,.53.24c-.06,0-.08-.08,0-.09Z"/><path class="cls-4" d="M237.2,119.82l-.09,0C236.92,120.26,237,120.12,237.2,119.82Z"/><path class="cls-4" d="M164.81,98.18l0,0h.06Z"/><path class="cls-4" d="M166.16,97.82a1.22,1.22,0,0,1-1.33.39l.5,1.14Z"/><path class="cls-4" d="M218.36,98l-.94-.41c1.2-.54,2-.26,1.16-.84-.22,1.24-3.77-.06-4,1.21L214,97.7c.18,0,.21-.06.39,0-1.21-.63-.94.88-2.51.68-.54-.1-.92-.29-.55-.44l-1.22.31c-.36,0-.27-.25.08-.22l-1.86.1v0a8.69,8.69,0,0,1-1.15.65c-.47-.18.24-.14.11-.3l-1,.32c-.42-.32.42-.65,1.14-.61-1-1.25-.85.32-2.94-.38l1-.17c-.64-.71-1.39-.43-2.5-.85.27.22,2.22,1.07,1.11,1.41a1.85,1.85,0,0,0-1.32.14c0-.45-.6-.32-1.33-.28l0-.59c-.79.19-.72.49-1.17.77a1.3,1.3,0,0,1-1.27-.89c-1.39-.07,1,.73-.67.87a7.39,7.39,0,0,0-3.36.38c-.81-.2.14-.36-.15-.53l-.72.47c-.18,0-.12-.16-.09-.23-.61.18-.05.59-1,.74-.28.65-1.95-1-3.16-.27-.29-.17.15-.36.07-.59a11.3,11.3,0,0,0-2.76.94L186,98.63c.82.47-.26,1-1.22,1.38a8.36,8.36,0,0,0,.71.51l-1.51.28c-.18-.1,0-.3.23-.55l-.28.14c-.53-.23-.24-.57.16-.89l.53.38c.38-.35.74-.74.67-1.09a1.29,1.29,0,0,1-.5.15c.1-.1.17-.18.12-.24s-.21.06-.46.2l-.32-.67-.09.26L182.12,98c-1.43.63-2.68,1.58-4.91,1.81.56-.48.13-.79.17-1.36.6.61,1.74-.23,2.9-.08-.61-.07-.47-.35-.31-.44l-2.08.51c.05-.47-.44-.36-1-.56.39.93-1.56.59-2.4.87-.05-.32.15-.63,1.18-.54-1.13-.72-1.48,1.07-2.59.48.26,0,.39,0,.49-.12-.59.28-2,0-1.69-.22h.26c-1.68-.12-5.11.06-5.32.88a4.37,4.37,0,0,1,.28-1.12c-1,.93-1.92,1.83-2.85,2.78.23-.69-.88-2.24.49-2.71a3,3,0,0,0-1.74.14c.28.08.74.94.38,1a8,8,0,0,0-2-.91c.43.12.06,1.2-.58,1.24.08-.17-.15-1,.08-1.18l-1.51,1.2c.38-.23,0-.89-.41-1.14.19.18-1.4.12-1.81.29l.71.15c-1.84.1-1.6,1.68-3.36,1.91.18-.25.32-1.41-.61-1.38-.33.63-1.39,2.81-2.79,3.58l-.36-.24-1.08.6a17.79,17.79,0,0,1,3.3-3.9c-.72-.12-.26-.33-1.27-.12-.42-.22.47-.52.77-.59-.81.06-1.61.17-2.41.3.23.58-1.67,1-1.46,1.5l2.41-1.2c.22.59-1.1,2-2.74,2.32-.48-.13,0-1.15-.05-1.35a3.24,3.24,0,0,1-1.67.72l.62-.52c-1,0-1.28,1.22-2.59,1.08-.39.11-1.49-.25-1.41.13a3.83,3.83,0,0,1,1.73,3c-.13,0-2,.21-2.53.2s-.42-.46-.37-.88.14-.83-.24-.88c.06.16-.15.54-.24.68-.45.14-.15-.55-.9.1.24.58-1.56,1.24,0,.7-.59.75-.85.53-1.59,1.4.28,0,.36.42.39.92a5,5,0,0,1-.15,1.48c-.11-.12-.39-.06-.52,0a18.35,18.35,0,0,0-1,2,6.16,6.16,0,0,0-.54,2.12c-.18.14-.36,1-.63.64a3.05,3.05,0,0,1,.41,1c-.19.57-.28.27-.34-.07s-.16-.74-.44-.28c.35,0,.67,1.44,1.2,2.09.21-.21.11-.62-.08-1.1s-.41-1-.53-1.43c.78,0,1.6,1.24,2.52,2.33.71.89-.19.69,0,.81a2,2,0,0,0,1.73,1.11,1.92,1.92,0,0,1,1.55.78c.43.8-.45.88-.47,1.28-1.06-.37-1.25-1.15-1.78-1.58a7.74,7.74,0,0,0,.55.73,1.85,1.85,0,0,1-1.2-.83c.07.4.87,1.18,1.95,1.81s2.36,1.19,3.22,1.72c.38,0,1,0,.81-.27l-.6-.15c-.39-.58,1.29-.12.62-.57a5.73,5.73,0,0,1,2.91.52l0,.61c0-.17-.61-.57-1-.51.54-.08,1.45,1.3,2.19.76l-.65-.63c.87,0,2-.3,2.94.17-.29-.67-.25,0-.75-.84.36,1-2.45-.81-1.76.31-.46-1-1.12-.71-1.81-1.65,0,.19.2.46-.56.08a1,1,0,0,1-.24.09l0,0,0,0s0,0,0,0a.85.85,0,0,1,.31.43c-.54.25-1.82-.24-2.33-.19-.43-.27.28-.13.1-.41l-.75.05c.09-.41-.87-1.14.24-.91-.31-.14-.6-.28-.88-.43a3.25,3.25,0,0,0-1.38-1c-.26-.28-1-.24-.58-.28a5.58,5.58,0,0,1-1-.7l.08-.07a8.33,8.33,0,0,1-1-1.51,2.14,2.14,0,0,1,.15-2,2.49,2.49,0,0,1,.24-1.61l.39,0c0-.6,1-1.33.82-1.7.58,0,.92-.38,1.39-.9a4.8,4.8,0,0,1,1.5-1.25l-.2-.43c.64-.34,1.22-.77,2.07-1.3l-.2-.37c.71-.64,2.24-.45,3.64-.81-.06.17-.43.22-.7.19,1.9.52,3.44-1.51,5.16-1.08a1.24,1.24,0,0,1,.94-.17l-.09,0,.16,0,.58.13a1.91,1.91,0,0,0-.49-.15,9.2,9.2,0,0,0,1.19-.34l.25.42.1,0c.47.11.33-.26.05-.56a2.55,2.55,0,0,0,.56-.35c.45.68,1.16-.41,1.75.32.26-.41,2.25-.51,2.43-1.32,0,.1.17.13-.08.17a2.58,2.58,0,0,0,1.49-.15l.25.55,1.07-.84c.71.3,1,.48.35,1,1.59-.76,1.31-.31,2.67-1l-.05.37c.49,0,1.28-.55,1.59-.25,1.12.67,5.53,0,8.4.74-.54-1.09,1.32.51,1.45-.32.17.26.56.41.09.62,1.48-.21,2.2.46,3.23-.22.16.26-.32.37-.18.52.12-.05.48-.21.62-.05s-.22.21-.45.31c1.5,0,1.68-.78,1.81-1.52a1.3,1.3,0,0,0,1.7-.14c.25.25.69.52-.25.58.53,0,3.21.44,3.28-.15.16.15.74.06.88,0a18.31,18.31,0,0,0,2.45.09l-.32-.11c.47-.71,1-.14,1.91-.21l0,.07c2.15.54.93-.24,3.06.35l-.12-.44c.19-1,1.89.56,3.12.16l-.45-.24c.67-.34,1.92,1.27,2.59,1.37.15.08-.22.14-.43.2,1.77.52.22-.59,1.52-.76.25.31-.29.81.59.85.44.24,2.53-1.08,3.74-.49-.27-.24-.53-.47.07-.66.93-.1,2.51.9,3.35.13a.3.3,0,0,1,.17.2c.7-.2,2.3-.31,2.73-.71.61,1.53,4.44-.58,4.36.84.72,0,1.44,0,2.16.07l-.07.14a3.11,3.11,0,0,0,2.4-.37c.31.13.07.23,0,.3a5.54,5.54,0,0,0,4,0l.11.48c.5-.19,2.74,1.16,4.76,1.08a.37.37,0,0,1-.26.15,3.78,3.78,0,0,1,1.62.34,6.84,6.84,0,0,1,1.28.82c.76.6,1.28,1.09,2.11.7a9.18,9.18,0,0,1,1.19.64c-.51-.68-.36-.76-.07-.76s.67.13.52-.25c.62.5.73,1.82.17,1.13l0-.15c-.44.14-.17.61.07,1.1s.44,1,.16,1.13a6.45,6.45,0,0,1,0,4.56,11.45,11.45,0,0,1-2.36,3.9l.75.16c-.24.28-.51.54-.77.79-.33.08-.62-.11-.09-.63-.52,0-.68,1.09-.63,1.23-.68.37-.7.11-.56-.19s.31-.64.14-.51-.27.27-.43.41l.16,0c-.25.52-.12.81-1,1.29-.59.2-.48-.2-.7-.1,0,0-.1,0-.32.15q-.63.3-1.29.54c.24.1.49.19.74.27-.48.51-1.28.5-.42.81-.64-.23-1.93.16-3.24.47a11.09,11.09,0,0,1-2.92.52,6.68,6.68,0,0,1-3,.81c.31.07.57.64-.45.72.19-1.28-1.93-.27-2.86-1.06.8.51-2.85.5-1.61,1.2-.85,0-.1-.46-.78-.68-2,.72-4.45.16-6.92.51,0,.17.41.38-.1.67l-1.38-.72c-.48.11-.39,1-1.32.46.13.13.33.32,0,.39-4.92-.49-10,1.07-15-.49.67.32.22.35-.29.36.33.08,0,.4.05.62l-2.08-.65c-.39.61-2.23,0-2.47.56l.67-.08c-.91.66,1.19,1.58,1,2.46,1-.77,2.6,1.22,4.25.1.36.19-.31.29-.12.5.42-.38.92-.46,1.85-.29l-.11.1a60,60,0,0,1,6.67.42l-.23-.43a2.76,2.76,0,0,1,1.06.27c.7-.69-1.77,0-1.13-.73.86.87,4.43-.16,5,.81,1-.05-.31-.49.66-.54l.27.26.23-.37c.63,0,1,.34,1,.57a3.22,3.22,0,0,0-.6.13c.84.28,2.32-.28,2.61-.19l-.95-.1c2.62-.44,5.89-.39,8.36-1.26l-.21-.18c1.89-.61,1.58,0,3.68-.42l-.07.06a3.55,3.55,0,0,1,1.53-.51c-.5.32,1.08.32.41.69,2-.73,1-.48,2.25-1.46l.37.28a2.47,2.47,0,0,1,1.48-.83c-.82.46.79.38-.13,1a4.2,4.2,0,0,0,2.69-.58c.66-.33,1.14-.6,1.85-.27.36-.63-.18-.57-.73-.43s-1.13.37-.87.18c-.56-.16.63-.92,1.33-1.08s1.64.72,3.39-.25c-.17.09-.15.16-.32.26.78-.15,1.09-1,2-1.2.07-.75,1-.72.63-1.38a16.69,16.69,0,0,1-1.33,1.22c.73-.75.95-1.93,2.3-2.85a2.46,2.46,0,0,1-.32,1c.5-.21.54-.79,1-1,.24.28-.08.76-.55,1.27a9.38,9.38,0,0,0-1.4,1.61c.3,0,.68-.5.93-.82s.44-.53.5,0a1.7,1.7,0,0,1,.75-1.41,2.41,2.41,0,0,0,.93-1.68l.32.31A4.88,4.88,0,0,1,240,117c.05.31.09.62.13.94.16-1.22,1.43-1.84,1.53-3.07-.79,2.28-.67.33-1.31,1.13.25-1.39.57-1.69,1-2.06a2.1,2.1,0,0,0,.63-.77,3.53,3.53,0,0,0,.29-1.82c.1.5-.39,1.73-.51,1a16.64,16.64,0,0,1,.51-1.91c-.37-2.31-.39.39-.78-.55.41-.83-.39-1.06-.84-1.87l.42-.15c-.3-1.25-.64-1.29-.89-1.3s-.46,0-.91-1c.33.14.69.28,1,.46a11.06,11.06,0,0,0-.77-.9,5.43,5.43,0,0,1,.56-.09,12.06,12.06,0,0,1-2.1-2.13c0,.44-.64.48-1.48-.1-.44-.61.59-.15-.72-.89a1,1,0,0,1,1.28.57c.14-.08.44,0,.59-.09a5,5,0,0,0-2.2-1.46,1.92,1.92,0,0,1,.5.38,12.19,12.19,0,0,0-2.29-.34c-.27-.27,0-.31.34-.35-.45-.1-.81,0-1.46-.13.25-.3.3-.71,1.31-.57-.38-.06-.76-.08-1.14-.12h-1c-.08-.18-.83-.63-.57-.71-1-.42-2.6.2-3.88-.28a.9.9,0,0,1-.52.1c-1.24-.26-2.3-.86-3.85-.52l-.78-.74c-1.18,0,1.06.92-.9,1-1.38.08-.46-.61-.93-.83a3.82,3.82,0,0,1-3.16.27A6.14,6.14,0,0,1,218.36,98Zm-14.26.11c.27-.1.81-.4,1-.14C204.82,98.51,204.57,98.26,204.1,98.13Zm-21.34,1c.21-.14.52-.06.87.12A1.85,1.85,0,0,1,182.76,99.09Zm-39.91,19h0C142.47,117.67,142.59,117.82,142.85,118.07Zm.89.67c.13,0,.15-.06.13-.14-.11.07-.35,0-.59-.19C143.3,118.55,143.39,118.69,143.74,118.74Zm88.51,1h.25C232.13,120.07,232.19,119.9,232.25,119.72Z"/><path class="cls-4" d="M185.21,98.54a.55.55,0,0,1,.11.25C185.43,98.72,185.43,98.63,185.21,98.54Z"/><path class="cls-4" d="M227.33,98.75l0,0a.42.42,0,0,0,.06-.08Z"/><path class="cls-4" d="M141.12,103.4a1.23,1.23,0,0,1,.61-.11C141.68,103.19,141.52,103.18,141.12,103.4Z"/><path class="cls-4" d="M150,120.27l-.78-.14a1.34,1.34,0,0,1,.62.37C149.89,120.39,149.79,120.2,150,120.27Z"/><path class="cls-4" d="M156,124.79c.12,0,.24,0,.37,0v-.21C155.84,124.5,155.46,124.58,156,124.79Z"/><path class="cls-4" d="M150.27,121.91c-.05.38.47.4,1,.5l-.09,0C151.51,121.92,150.89,121.92,150.27,121.91Z"/><path class="cls-4" d="M151.42,122.43a4.1,4.1,0,0,1,.5.14C152,122.39,151.73,122.47,151.42,122.43Z"/><path class="cls-4" d="M145.2,119.09c.21.19.33-.39.41-.19C146,118.56,143.83,118.81,145.2,119.09Z"/><polygon class="cls-4" points="150.34 123.23 150.28 122.73 149.87 122.99 150.34 123.23"/><path class="cls-4" d="M146.22,121.48l.8.43c0-.07.13-.08.28-.07C146.78,121.65,146.24,121.34,146.22,121.48Z"/><path class="cls-4" d="M147.3,121.84a1.85,1.85,0,0,0,.71.16A4.47,4.47,0,0,0,147.3,121.84Z"/><polygon class="cls-4" points="149.11 122.99 148.89 122.82 148.29 122.58 149.11 122.99"/><path class="cls-4" d="M138.63,116.28a6,6,0,0,1-.48-.81c-.19,0-.2.24,0,.55S138.56,116.48,138.63,116.28Z"/><path class="cls-4" d="M139.55,119.44c-.16-.26-.1-.36-.12-.58l-.42.4C139.19,119.32,139.37,119.39,139.55,119.44Z"/><path class="cls-4" d="M137.42,117c-.21,0-1.1-1.38-.47,0C137.13,117.08,137.82,118,137.42,117Z"/><polygon class="cls-4" points="143.35 103.93 143.12 104.05 143.6 104.87 143.35 103.93"/><path class="cls-4" d="M155.77,98.4c-1.22-.06-.19.6-1.31.49-.25.26.91.09.65.33C155.79,98.89,156.19,99,155.77,98.4Z"/><path class="cls-4" d="M155.11,99.22a2.37,2.37,0,0,0-.34.19A1.57,1.57,0,0,0,155.11,99.22Z"/><polygon class="cls-4" points="187.72 123.9 186.98 123.68 187.45 124.01 187.72 123.9"/><path class="cls-4" d="M186.27,124.56l-.16-.61-.47.53C185.81,124.46,186.14,124.42,186.27,124.56Z"/><path class="cls-4" d="M202,97l-.06.15c.12.15.3.16.66.18Z"/><polygon class="cls-4" points="212.31 97.32 212.13 97.31 212.46 97.86 212.31 97.32"/><path class="cls-4" d="M221.14,97.06c-.36-.06-.79,0-1.15,0C220.78,97,221.18,97.75,221.14,97.06Z"/></g><path class="cls-2" d="M45.85,81.13c-.09-1.3-.14-3.07-.14-5.29s0-3.66.1-4.32a1,1,0,0,1,.83-.81,8,8,0,0,1,2-.2,5.59,5.59,0,0,1,3,.77,2.51,2.51,0,0,1,1.23,2.27,5.37,5.37,0,0,1-.35,2.06,2.92,2.92,0,0,1-.85,1.23,4,4,0,0,1-2.47.64,11.31,11.31,0,0,1-1.84-.19c.06,2.54.09,4.13.07,4.79s-.23,1-.66,1-.46,0-.53-.15l-.16-.22a.88.88,0,0,1-.07-.2,1.5,1.5,0,0,1-.06-.22c0-.06,0-.14,0-.25a.91.91,0,0,0,0-.27C45.85,81.57,45.85,81.36,45.85,81.13Zm5.41-7.53a1.35,1.35,0,0,0-.84-1.22,3.67,3.67,0,0,0-1.78-.44,3.44,3.44,0,0,0-1.33.17c-.05.74-.08,1.43-.08,2.06s0,1.19.08,1.7L48,76a7.17,7.17,0,0,0,.85.06h.47l.48-.06a1,1,0,0,0,.5-.16,4.78,4.78,0,0,0,.38-.3,1,1,0,0,0,.32-.44A4.13,4.13,0,0,0,51.26,73.6Z"/><path class="cls-2" d="M54.41,80.43l0-1.48.17-8a.4.4,0,0,1,.25-.36,1.28,1.28,0,0,1,.63-.13c.6,0,.91.21.91.64,0,.14-.07,1.21-.22,3.2S56,77.53,56,77.92v2c0,.95.07,1.47.19,1.56a2.22,2.22,0,0,0,.67.09l2.73-.18c.6,0,.9.21.9.64a.78.78,0,0,1-.49.75,2.48,2.48,0,0,1-1,.27c-.31,0-.7,0-1.16,0a12.81,12.81,0,0,1-3.23-.19,1.79,1.79,0,0,1-.15-.87q0-.75,0-1C54.42,80.78,54.41,80.59,54.41,80.43Z"/><path class="cls-2" d="M65.89,70.54a1,1,0,0,1,.8.42,8.45,8.45,0,0,1,.83,1.73,55.12,55.12,0,0,1,2.34,9.71,1.09,1.09,0,0,1,0,.22.43.43,0,0,1-.18.3.73.73,0,0,1-.51.16.93.93,0,0,1-.56-.16.76.76,0,0,1-.31-.53L68,80.94a11,11,0,0,0-.61-2.51,5.94,5.94,0,0,0-1.51-.28,16.45,16.45,0,0,0-1.7-.16.91.91,0,0,0-.5.08q-.33.3-.93,4.62-.07.36-.72.36c-.43,0-.64-.18-.64-.55a25.57,25.57,0,0,1,1-5.23,28.55,28.55,0,0,1,1.67-5.11C64.66,71.08,65.25,70.54,65.89,70.54Zm-.08,2.11c-.19,0-.52.56-1,1.69a8.49,8.49,0,0,0-.71,2.08.22.22,0,0,0,0,.13,3,3,0,0,0,1.2.27c.69.07,1.16.11,1.38.11s.36,0,.38-.05,0-.13,0-.3a16.18,16.18,0,0,0-.51-2.09C66.31,73.27,66,72.65,65.81,72.65Z"/><path class="cls-2" d="M78.77,70.49a.74.74,0,0,1,.55.25.82.82,0,0,1,.25.6c0,5,0,8,.07,9s.06,1.56.06,1.58a1.47,1.47,0,0,1-.22.79c-.16.25-.32.37-.51.37a2.26,2.26,0,0,1-.42,0A1.53,1.53,0,0,1,78.3,83a.75.75,0,0,1-.23-.15l-.19-.19a1.37,1.37,0,0,1-.2-.3l-.2-.35c0-.09-.13-.24-.24-.47s-.34-.67-.7-1.35-.69-1.3-1-1.85A30.17,30.17,0,0,0,72.77,74a73,73,0,0,1-.34,8.57c0,.31-.28.46-.71.46a.8.8,0,0,1-.5-.15.6.6,0,0,1-.2-.5c0-.22,0-1.48.14-3.76s.14-3.7.14-4.26V73.24c0-.91.07-1.42.21-1.54a.72.72,0,0,1,.44-.17q1,0,3.19,3.42c.28.44.81,1.37,1.6,2.79S78,80,78.15,80.35l-.23-7.89q0-1.63.36-1.86A.89.89,0,0,1,78.77,70.49Z"/><path class="cls-2" d="M82.24,71a1.17,1.17,0,0,1,.67-.19c.26,0,.41.14.48.44,0,1.47,0,3.66.07,6.59,0,1.78,0,3.3-.15,4.54a.7.7,0,0,1-.35.5,1.07,1.07,0,0,1-.63.22.48.48,0,0,1-.54-.55c.13-1.27.19-2.84.19-4.71l-.11-6.38A.81.81,0,0,1,82.24,71Z"/><path class="cls-2" d="M88.8,70.75l2.11,0c.94,0,1.41.25,1.41.74a.65.65,0,0,1-.08.37l-.11.16a.36.36,0,0,1-.15.1,2,2,0,0,1-.38.09l-.21,0a4.53,4.53,0,0,1-.71.06l-1.43,0c-.63,0-1.4,0-2.31-.08v3.5h3.88a.52.52,0,0,1,.39.19.61.61,0,0,1,.18.42c0,.58-.25.87-.74.87H86.94l.08,5c0,.65-.22,1-.66,1s-.69-.29-.77-.88c0-.18-.06-1.8-.06-4.83s0-4.78,0-5.23c-.47,0-.71-.22-.71-.8a1,1,0,0,1,.19-.51c.13-.18.24-.28.34-.29l.36,0c.14,0,.5,0,1.07.08C87.52,70.71,88.21,70.75,88.8,70.75Z"/><path class="cls-2" d="M93.83,71a1.17,1.17,0,0,1,.67-.19c.26,0,.41.14.48.43,0,1.47,0,3.67.07,6.6,0,1.78,0,3.3-.15,4.54a.7.7,0,0,1-.35.5,1.07,1.07,0,0,1-.63.22.48.48,0,0,1-.54-.55c.13-1.27.19-2.84.19-4.71l-.11-6.39A.76.76,0,0,1,93.83,71Z"/><path class="cls-2" d="M102.79,70.63a9.33,9.33,0,0,1,2.81.5.72.72,0,0,1,.34.58.69.69,0,0,1-.31.55,1.15,1.15,0,0,1-.72.23,7.94,7.94,0,0,0-1.91-.26,3.9,3.9,0,0,0-3.12,1.22,5.33,5.33,0,0,0-1.06,3.61,5.27,5.27,0,0,0,1.25,3.74,2,2,0,0,0,1.54.7,7.7,7.7,0,0,0,2.85-1,2.75,2.75,0,0,1,.91-.32.45.45,0,0,1,.5.51,1,1,0,0,1-.48.86,17.25,17.25,0,0,1-2.54,1.14,5.22,5.22,0,0,1-1.58.3,3.15,3.15,0,0,1-2.34-1A7.18,7.18,0,0,1,97.2,77a6.28,6.28,0,0,1,1.64-4.77A5.57,5.57,0,0,1,102.79,70.63Z"/><path class="cls-2" d="M111.74,70.54a1,1,0,0,1,.79.41,7.84,7.84,0,0,1,.84,1.73,55.12,55.12,0,0,1,2.34,9.71,1.18,1.18,0,0,1,0,.22.43.43,0,0,1-.18.3.74.74,0,0,1-.52.17,1,1,0,0,1-.56-.17.79.79,0,0,1-.3-.53c0-.25-.15-.73-.29-1.45a10.7,10.7,0,0,0-.6-2.51,6.07,6.07,0,0,0-1.52-.28,16.22,16.22,0,0,0-1.7-.16.89.89,0,0,0-.49.08q-.34.3-.93,4.62-.08.36-.72.36c-.43,0-.65-.18-.65-.55a26,26,0,0,1,1-5.23A28.55,28.55,0,0,1,110,72.15C110.51,71.08,111.1,70.54,111.74,70.54Zm-.08,2.11q-.28,0-1,1.68a8.27,8.27,0,0,0-.7,2.08c0,.06,0,.11,0,.13a2.94,2.94,0,0,0,1.19.27c.7.07,1.16.11,1.39.11s.36,0,.38,0,0-.13,0-.3a16.18,16.18,0,0,0-.51-2.09Q112,72.65,111.66,72.65Z"/><path class="cls-2" d="M122.47,70.63a9.19,9.19,0,0,1,2.81.49.74.74,0,0,1,.34.58.68.68,0,0,1-.31.55,1.15,1.15,0,0,1-.71.24,7.17,7.17,0,0,0-1.92-.26,3.92,3.92,0,0,0-3.12,1.21,5.35,5.35,0,0,0-1.06,3.61,5.28,5.28,0,0,0,1.25,3.74,2,2,0,0,0,1.54.71,7.7,7.7,0,0,0,2.85-1,2.81,2.81,0,0,1,.92-.33c.33,0,.49.17.49.52a1,1,0,0,1-.47.85,18.2,18.2,0,0,1-2.55,1.15A5.16,5.16,0,0,1,121,83a3.11,3.11,0,0,1-2.33-1A7.15,7.15,0,0,1,116.89,77a6.2,6.2,0,0,1,1.64-4.77A5.55,5.55,0,0,1,122.47,70.63Z"/><path class="cls-2" d="M128.39,71a1.17,1.17,0,0,1,.67-.19c.26,0,.41.15.48.44,0,1.47,0,3.66.08,6.59,0,1.79-.05,3.3-.16,4.54a.7.7,0,0,1-.35.5,1.07,1.07,0,0,1-.63.22.48.48,0,0,1-.54-.55c.13-1.26.19-2.83.19-4.71L128,71.43A.81.81,0,0,1,128.39,71Z"/><path class="cls-2" d="M136.78,70.42a3.23,3.23,0,0,1,2.26.85q1.82,1.64,1.82,5.16a7.49,7.49,0,0,1-2,5.54,3.76,3.76,0,0,1-2.41,1.1,3.45,3.45,0,0,1-2.82-1.23,7.55,7.55,0,0,1-1.43-2.77,10.74,10.74,0,0,1-.43-2.95,6.61,6.61,0,0,1,1.16-4A4.42,4.42,0,0,1,136.78,70.42ZM136.64,72a3,3,0,0,0-3.17,2.42,5.84,5.84,0,0,0-.19,1.65,8.84,8.84,0,0,0,.38,2.34,4.52,4.52,0,0,0,1.52,2.51,2.3,2.3,0,0,0,1.43.45,2,2,0,0,0,1.5-.75A4.11,4.11,0,0,0,139,78.7a11.48,11.48,0,0,0,.25-2.34,7.07,7.07,0,0,0-.6-3.23A2.11,2.11,0,0,0,136.64,72Zm0-5.28a.47.47,0,0,1,.49-.32.81.81,0,0,1,.59.23.64.64,0,0,1,.22.37.86.86,0,0,1,0,.24,4.7,4.7,0,0,1-1,1.61c-.47.51-.84.76-1.09.76a.77.77,0,0,1-.57-.19A.61.61,0,0,1,135,69a.68.68,0,0,1,.3-.5A3.81,3.81,0,0,0,136.64,66.71Z"/><path class="cls-2" d="M150.06,70.47a.77.77,0,0,1,.55.26.86.86,0,0,1,.25.6q0,7.42.06,9c.05,1,.07,1.57.07,1.59a1.42,1.42,0,0,1-.23.79c-.15.25-.32.37-.5.37a2.26,2.26,0,0,1-.42,0,1.49,1.49,0,0,1-.25-.07.46.46,0,0,1-.23-.15l-.19-.19a1.51,1.51,0,0,1-.2-.29l-.2-.35-.24-.47-.7-1.36-1-1.84a28.26,28.26,0,0,0-2.8-4.35,68.78,68.78,0,0,1-.34,8.57c0,.3-.27.46-.7.46a.81.81,0,0,1-.5-.16.55.55,0,0,1-.2-.49c0-.23.05-1.48.14-3.76s.14-3.7.14-4.27V73.23c0-.91.07-1.43.21-1.54a.72.72,0,0,1,.44-.17c.69,0,1.76,1.14,3.19,3.42.28.44.81,1.37,1.6,2.78s1.25,2.28,1.4,2.61l-.23-7.88q0-1.64.36-1.86A1,1,0,0,1,150.06,70.47Z"/><path class="cls-2" d="M157.13,82.44a.59.59,0,0,1-.29-.46.52.52,0,0,1,.21-.43,47.91,47.91,0,0,1-.36-6.23c0-.71,0-2.09.09-4.15a1.07,1.07,0,0,1,.39-.49,1,1,0,0,1,.56-.21,1.78,1.78,0,0,1,.33,0,10.05,10.05,0,0,1,4.73,2.93,7.84,7.84,0,0,1,2.11,5.22c0,2.23-.93,3.63-2.77,4.2a5.91,5.91,0,0,1-1.69.25A7.71,7.71,0,0,1,158.9,83a.94.94,0,0,1,.07.41.65.65,0,0,1-.31.5,1.25,1.25,0,0,1-.74.23q-.43,0-.54-.51Zm1.14-7.28a48.75,48.75,0,0,0,.38,6.31,7.17,7.17,0,0,0,3.62-.23c.66-.24,1-.59,1-1.06a8,8,0,0,0,.06-.82A7.49,7.49,0,0,0,162.06,75a8.29,8.29,0,0,0-3.7-2.89Q158.27,74.35,158.27,75.16Z"/><path class="cls-2" d="M166.08,76.51a.55.55,0,0,1-.27-.49.93.93,0,0,1,.21-.59c-.05-1.27-.08-2.6-.08-4a1.41,1.41,0,0,1,.35-.67,1.29,1.29,0,0,1,.7-.26c1.67.07,3.48.11,5.43.11q.72.15.72.63c0,.53-.52.84-1.55.93l-.92,0h-1.23c-.24,0-.91-.05-2-.15,0,1.58,0,2.67.08,3.26.67,0,2,0,3.88,0,.45.09.68.3.68.62a.82.82,0,0,1-.55.75.76.76,0,0,1-.21.08L168,76.7a2.25,2.25,0,0,0-.49,0l.08,3.27a14.12,14.12,0,0,1-.06,1.57l4.41,0c.4.06.6.23.61.51a.87.87,0,0,1-.26.57,1.11,1.11,0,0,1-.6.36l-4.86.08a.91.91,0,0,1-.61-.16.71.71,0,0,1-.17-.55,13.85,13.85,0,0,0,.07-1.71V79.3Z"/><path class="cls-2" d="M178.88,81.11c-.09-1.31-.13-3.07-.13-5.29s0-3.67.09-4.33a1,1,0,0,1,.84-.81,7.93,7.93,0,0,1,2-.19,5.58,5.58,0,0,1,3,.76,2.53,2.53,0,0,1,1.22,2.27,5.43,5.43,0,0,1-.34,2.07,3,3,0,0,1-.85,1.22,4,4,0,0,1-2.47.65,12.67,12.67,0,0,1-1.85-.19c.07,2.53.09,4.13.08,4.79s-.23,1-.66,1q-.42,0-.54-.15l-.15-.22a.88.88,0,0,1-.07-.2,1.43,1.43,0,0,1-.06-.21c0-.06,0-.15,0-.26s0-.2,0-.27S178.88,81.33,178.88,81.11Zm5.42-7.54a1.34,1.34,0,0,0-.84-1.21,4.29,4.29,0,0,0-3.12-.28c-.05.75-.07,1.44-.07,2.06s0,1.2.07,1.7c.35,0,.58.07.71.1a6.89,6.89,0,0,0,.84,0h.48l.47-.06a1.22,1.22,0,0,0,.51-.16l.38-.31a1,1,0,0,0,.32-.43A4.43,4.43,0,0,0,184.3,73.57Z"/><path class="cls-2" d="M188.9,82.84a1,1,0,0,1-.66.28c-.23,0-.4-.15-.48-.46,0-1.67-.06-3.33-.06-5l-.06-4.79a2,2,0,0,1,1.27-2,5.88,5.88,0,0,1,2.43-.47,3.84,3.84,0,0,1,1.55.35,4.51,4.51,0,0,1,1.49,1,2.1,2.1,0,0,1,.65,1.47,2.79,2.79,0,0,1-.72,1.69,7.47,7.47,0,0,1-1.79,1.59,9.12,9.12,0,0,1-2.07,1,18.81,18.81,0,0,1,3.08,2.65,3.91,3.91,0,0,1,1.31,2.19.64.64,0,0,1-.24.47.92.92,0,0,1-.6.22.72.72,0,0,1-.6-.31,6.52,6.52,0,0,0-1.59-2.11,17.91,17.91,0,0,0-2.73-2.12l.12,3.65A.82.82,0,0,1,188.9,82.84ZM192,75.46c1.06-.67,1.59-1.28,1.59-1.81a1.37,1.37,0,0,0-.8-1.25,3.88,3.88,0,0,0-1.89-.44,4.6,4.6,0,0,0-1.74.27c0,.65,0,2.08,0,4.3A6.05,6.05,0,0,0,192,75.46Z"/><path class="cls-2" d="M201.38,70.41a3.23,3.23,0,0,1,2.26.85q1.81,1.63,1.82,5.16a7.51,7.51,0,0,1-2,5.54,3.76,3.76,0,0,1-2.41,1.1,3.45,3.45,0,0,1-2.82-1.23,7.55,7.55,0,0,1-1.43-2.77,10.74,10.74,0,0,1-.43-3,6.59,6.59,0,0,1,1.16-4A4.42,4.42,0,0,1,201.38,70.41ZM201.24,72a3,3,0,0,0-3.17,2.42,5.84,5.84,0,0,0-.19,1.65,8.84,8.84,0,0,0,.38,2.34,4.45,4.45,0,0,0,1.52,2.5,2.23,2.23,0,0,0,1.43.46,2,2,0,0,0,1.5-.75,4.11,4.11,0,0,0,.91-1.91,11.48,11.48,0,0,0,.25-2.34,7.07,7.07,0,0,0-.6-3.23A2.11,2.11,0,0,0,201.24,72Z"/><path class="cls-2" d="M209.51,78.44l0-1a1.82,1.82,0,0,0-.31-1c-.21-.31-.72-1.23-1.52-2.75a13.73,13.73,0,0,1-1.19-2.58.74.74,0,0,1,.24-.53.73.73,0,0,1,.49-.24c.16,0,.35.15.57.44a22.12,22.12,0,0,1,1.31,2.3c.65,1.24,1,1.93,1.13,2a34.19,34.19,0,0,1,2.93-4.56.77.77,0,0,1,.42-.25.65.65,0,0,1,.24,0c.3.13.46.3.46.51a.91.91,0,0,1-.16.54c-.1.15-.37.55-.83,1.19a23.32,23.32,0,0,0-1.74,2.84,6.48,6.48,0,0,0-.73,1.76v3.48l.06,1.52a.67.67,0,0,1-.23.58.93.93,0,0,1-.56.16.45.45,0,0,1-.45-.36,3.81,3.81,0,0,1-.13-1c0-.39,0-1,0-1.73Z"/><path class="cls-2" d="M215.57,76.5a.55.55,0,0,1-.27-.49.93.93,0,0,1,.21-.59c0-1.27-.07-2.6-.07-4a1.26,1.26,0,0,1,.35-.67,1.28,1.28,0,0,1,.69-.26c1.67.07,3.48.11,5.44.11q.72.15.72.63,0,.8-1.56.93l-.91,0h-1.24c-.24,0-.9,0-2-.15,0,1.58,0,2.67.07,3.26.68,0,2,0,3.88,0,.46.09.68.3.68.62a.82.82,0,0,1-.55.75.56.56,0,0,1-.21.08l-3.28-.06a2.29,2.29,0,0,0-.5,0l.08,3.27a14.12,14.12,0,0,1-.06,1.57l4.41,0c.41.06.61.23.61.51a.87.87,0,0,1-.26.57,1.11,1.11,0,0,1-.6.36l-4.86.08a1,1,0,0,1-.61-.16.75.75,0,0,1-.17-.55,13.36,13.36,0,0,0,.08-1.71V79.29Z"/><path class="cls-2" d="M229.31,70.61a9.29,9.29,0,0,1,2.81.49.74.74,0,0,1,.34.58.68.68,0,0,1-.31.55,1.16,1.16,0,0,1-.72.24,7.5,7.5,0,0,0-1.91-.27,3.93,3.93,0,0,0-3.12,1.22A5.35,5.35,0,0,0,225.34,77a5.24,5.24,0,0,0,1.25,3.74,2,2,0,0,0,1.54.71,7.7,7.7,0,0,0,2.85-1,2.86,2.86,0,0,1,.91-.33c.33,0,.5.17.5.52a1,1,0,0,1-.48.85,17.54,17.54,0,0,1-2.54,1.15,5.22,5.22,0,0,1-1.58.3,3.15,3.15,0,0,1-2.34-1,7.19,7.19,0,0,1-1.73-5.08,6.28,6.28,0,0,1,1.64-4.77A5.53,5.53,0,0,1,229.31,70.61Z"/><path class="cls-2" d="M234.17,70.7l7.7-.11c.36.11.55.29.55.55,0,.63-.26,1-.78,1-.95,0-2,0-3,.07-.07,1.09-.1,1.91-.1,2.47v1.05l.08,6.67c0,.39-.1.62-.31.68a1.79,1.79,0,0,1-.56.08c-.37,0-.57-.21-.61-.63Q237,81,237,77c0-2.67,0-4.27.12-4.82-.27,0-.66,0-1.18,0s-1.17,0-1.94,0a.62.62,0,0,1-.48-.19.67.67,0,0,1-.17-.46.8.8,0,0,1,.24-.54A.9.9,0,0,1,234.17,70.7Z"/><path class="cls-2" d="M248,70.4a3.21,3.21,0,0,1,2.26.85q1.83,1.64,1.83,5.16a7.46,7.46,0,0,1-2,5.54,3.74,3.74,0,0,1-2.41,1.1,3.43,3.43,0,0,1-2.81-1.23,7.73,7.73,0,0,1-1.44-2.77,11.14,11.14,0,0,1-.43-3,6.61,6.61,0,0,1,1.16-4A4.42,4.42,0,0,1,248,70.4ZM247.91,72a3,3,0,0,0-3.18,2.42,6.23,6.23,0,0,0-.19,1.65,8.5,8.5,0,0,0,.39,2.34,4.4,4.4,0,0,0,1.52,2.5,2.2,2.2,0,0,0,1.42.46,2,2,0,0,0,1.5-.75,4.11,4.11,0,0,0,.91-1.91,10.82,10.82,0,0,0,.25-2.34,7.07,7.07,0,0,0-.6-3.23A2.1,2.1,0,0,0,247.91,72Z"/><path class="cls-2" d="M260.05,79.29l-1.58,0a.56.56,0,0,1-.44-.19.73.73,0,0,1-.18-.54.79.79,0,0,1,.22-.58.9.9,0,0,1,.65-.23h4.73a.65.65,0,0,1,.7.73.77.77,0,0,1-.85.79Z"/><path class="cls-2" d="M271.71,75.75a17.28,17.28,0,0,0,2.72.25c.82,0,1.35,0,1.58,0,0-1,0-1.89,0-2.78V71.4a2.41,2.41,0,0,1,0-.6c0-.08.11-.16.24-.24a1.41,1.41,0,0,1,.61-.11c.38,0,.57.23.57.68v6.73q0,2.08-.09,4.59c0,.37-.32.56-.93.56-.31,0-.46-.19-.46-.55l.08-5c-.41,0-1,0-1.66,0a19.87,19.87,0,0,1-2.66-.23c0,1.67.08,3.42.23,5.25a.45.45,0,0,1-.26.46,1.41,1.41,0,0,1-.71.16.42.42,0,0,1-.47-.43c-.17-1.8-.25-3.58-.25-5.32l.11-5.93a.61.61,0,0,1,.29-.56,1.11,1.11,0,0,1,.61-.18.46.46,0,0,1,.53.51Z"/><path class="cls-2" d="M280.47,66.69a.47.47,0,0,1,.49-.33.81.81,0,0,1,.59.23.64.64,0,0,1,.21.37.83.83,0,0,1,0,.24,4.75,4.75,0,0,1-1,1.61c-.48.51-.84.76-1.09.76a.74.74,0,0,1-.57-.19.58.58,0,0,1-.19-.44.7.7,0,0,1,.3-.51A3.79,3.79,0,0,0,280.47,66.69ZM280,70.94a1.17,1.17,0,0,1,.67-.19c.26,0,.41.15.48.44,0,1.47,0,3.67.07,6.59,0,1.79,0,3.3-.15,4.54a.74.74,0,0,1-.35.51,1.13,1.13,0,0,1-.63.21.48.48,0,0,1-.54-.55c.13-1.26.19-2.83.19-4.71l-.11-6.38A.81.81,0,0,1,280,70.94Z"/><path class="cls-2" d="M286.33,83l-2.45-.06a58.69,58.69,0,0,1-.25-7.18V74.4a7.71,7.71,0,0,1,.3-2.46,2.5,2.5,0,0,1,1.27-1.36,3.07,3.07,0,0,1,1.38-.25,5.9,5.9,0,0,1,1.36.12,2.55,2.55,0,0,1,1.74,1,3.55,3.55,0,0,1,.46,1.94,3.15,3.15,0,0,1-.89,2.49,1.68,1.68,0,0,1,.91.46,3.94,3.94,0,0,1,.74.81,3.77,3.77,0,0,1,.5,2.07,3.33,3.33,0,0,1-1.24,2.92A6.76,6.76,0,0,1,286.33,83Zm3.1-5.22a1.82,1.82,0,0,0-.6-.37,2.9,2.9,0,0,0-1.15-.17,20.77,20.77,0,0,0-2.55.25c0,2,0,3.31.09,4a11.08,11.08,0,0,0,3.12-.3,2.46,2.46,0,0,0,1.21-.72,1.52,1.52,0,0,0,.31-.91c0-.33,0-.56,0-.69a2.75,2.75,0,0,0-.11-.55A1.22,1.22,0,0,0,289.43,77.77Zm-4.28-4,0,2.17.64-.09a8.6,8.6,0,0,0,1-.18,2.13,2.13,0,0,0,1.92-2.18,1.51,1.51,0,0,0-.51-1.26A2.07,2.07,0,0,0,287,71.8a2,2,0,0,0-1.39.36l-.24.25a.63.63,0,0,0-.14.33c0,.16,0,.26,0,.33a2,2,0,0,0,0,.36C285.14,73.61,285.15,73.71,285.15,73.73Z"/><path class="cls-2" d="M294.15,82.82a.93.93,0,0,1-.65.28c-.24,0-.4-.15-.49-.46,0-1.67-.05-3.34-.05-5l-.06-4.79a2,2,0,0,1,1.27-2,5.88,5.88,0,0,1,2.43-.47,3.88,3.88,0,0,1,1.55.35,4.37,4.37,0,0,1,1.48,1,2.07,2.07,0,0,1,.66,1.47,2.79,2.79,0,0,1-.72,1.69,7.47,7.47,0,0,1-1.79,1.59,9.12,9.12,0,0,1-2.07,1,18.81,18.81,0,0,1,3.08,2.65,4,4,0,0,1,1.31,2.19.62.62,0,0,1-.25.47.88.88,0,0,1-.59.22.72.72,0,0,1-.6-.31,6.52,6.52,0,0,0-1.59-2.11,17.91,17.91,0,0,0-2.73-2.12l.12,3.64A.8.8,0,0,1,294.15,82.82Zm3.09-7.38c1.06-.67,1.59-1.28,1.59-1.81a1.37,1.37,0,0,0-.8-1.25,3.88,3.88,0,0,0-1.89-.43,4.62,4.62,0,0,0-1.74.26c0,.65,0,2.08,0,4.3A6.05,6.05,0,0,0,297.24,75.44Z"/><path class="cls-2" d="M302.71,70.94a1.2,1.2,0,0,1,.68-.19.46.46,0,0,1,.47.43q0,2.2.08,6.6c0,1.78-.05,3.3-.15,4.54a.77.77,0,0,1-.35.5,1.1,1.1,0,0,1-.64.22c-.36,0-.53-.18-.53-.55.12-1.27.19-2.84.19-4.71l-.12-6.39A.83.83,0,0,1,302.71,70.94Z"/><path class="cls-2" d="M306.41,82.41a.59.59,0,0,1-.29-.46.53.53,0,0,1,.21-.43,47.91,47.91,0,0,1-.36-6.23c0-.71,0-2.09.1-4.14a1,1,0,0,1,.38-.5,1,1,0,0,1,.56-.21,1.78,1.78,0,0,1,.33,0,10.07,10.07,0,0,1,4.73,2.94,7.76,7.76,0,0,1,2.11,5.21q0,3.35-2.77,4.2a5.58,5.58,0,0,1-1.69.25,7.78,7.78,0,0,1-1.54-.14,1,1,0,0,1,.07.41.65.65,0,0,1-.31.5,1.19,1.19,0,0,1-.74.24c-.29,0-.47-.18-.54-.52Zm1.14-7.27a50.55,50.55,0,0,0,.38,6.3,6,6,0,0,0,1.54.14,6.12,6.12,0,0,0,2.08-.37c.66-.24,1-.59,1.05-1.06a7.82,7.82,0,0,0,.06-.82A7.49,7.49,0,0,0,311.34,75a8.15,8.15,0,0,0-3.7-2.88Q307.55,74.32,307.55,75.14Z"/><path class="cls-2" d="M320.12,70.38a3.24,3.24,0,0,1,2.27.86q1.82,1.64,1.82,5.16a7.48,7.48,0,0,1-2,5.53A3.78,3.78,0,0,1,319.79,83,3.42,3.42,0,0,1,317,81.8,7.43,7.43,0,0,1,315.54,79a10.81,10.81,0,0,1-.43-3,6.63,6.63,0,0,1,1.16-4A4.43,4.43,0,0,1,320.12,70.38ZM320,72a3,3,0,0,0-3.17,2.41,5.92,5.92,0,0,0-.19,1.66,8.71,8.71,0,0,0,.38,2.33,4.49,4.49,0,0,0,1.52,2.51,2.29,2.29,0,0,0,1.43.46,2,2,0,0,0,1.5-.75,4.21,4.21,0,0,0,.91-1.91,11.56,11.56,0,0,0,.25-2.34,7.2,7.2,0,0,0-.6-3.23A2.11,2.11,0,0,0,320,72Z"/><path class="cls-2" d="M160,108.8a4.55,4.55,0,0,1,1.58-.3,4.62,4.62,0,0,1,1.47.24,4.12,4.12,0,0,1,1.3.74,3.53,3.53,0,0,1,1,1.37,5.22,5.22,0,0,1,.36,2,4.87,4.87,0,0,1-1.12,3.24,3.33,3.33,0,0,1-2.59,1.32,4.86,4.86,0,0,1-2.58-.67q-1.11-.66-1.11-1.47a1.41,1.41,0,0,1,.09-.57.71.71,0,0,1,.33-.31,1,1,0,0,1,.43-.12,1.09,1.09,0,0,1,.52.23l.93.65a2.35,2.35,0,0,0,1.38.42,1.71,1.71,0,0,0,1.38-.79,2.8,2.8,0,0,0,.6-1.73c0-1.8-.81-2.7-2.42-2.7a8.07,8.07,0,0,0-1.21.1l-.9.12a1.11,1.11,0,0,1-.57-.14q-.42-.39-.42-2.55a25.8,25.8,0,0,1,.09-2.78c.07-.42.18-.66.34-.73a9.51,9.51,0,0,1,2.51-.18,11.37,11.37,0,0,1,3.36.4.76.76,0,0,1,.39.69,1,1,0,0,1-.24.73.54.54,0,0,1-.53.22,15.74,15.74,0,0,0-3.34-.36c-.35,0-.7,0-1,0Q160,106.7,160,108.8Z"/><path class="cls-2" d="M168.54,103.16a1.26,1.26,0,0,1,1.32,1,2.29,2.29,0,0,1,.12.76,1.56,1.56,0,0,1-.81,1.24,1.64,1.64,0,0,1-2-.19,1.44,1.44,0,0,1-.53-1.17,1.5,1.5,0,0,1,.53-1.19A2,2,0,0,1,168.54,103.16Zm.48,1.52c0-.27-.06-.45-.2-.54a.77.77,0,0,0-.45-.14.73.73,0,0,0-.48.21.65.65,0,0,0-.23.49c0,.43.23.64.68.64S169,105.12,169,104.68Z"/><path class="cls-2" d="M176.1,103.9c0-.53.34-.8,1-.8.31,0,.49.19.54.56v3c0,.56,0,1.12,0,1.68a3.56,3.56,0,0,1,1-.12,3.65,3.65,0,0,1,3,1.3,5,5,0,0,1,1.06,3.26,4.72,4.72,0,0,1-1.25,3.31,4.2,4.2,0,0,1-3.21,1.35c-1.31,0-2-.37-2-1.11s0-2.62-.11-5.64S176.1,105.41,176.1,103.9Zm4.05,6.44a2.46,2.46,0,0,0-1.52-.56,2.59,2.59,0,0,0-.9.16q.12,1.64.12,5.82a2.06,2.06,0,0,0,.7.12,2.65,2.65,0,0,0,1.56-.58,2.79,2.79,0,0,0,1.16-2.45A3,3,0,0,0,180.15,110.34Z"/><path class="cls-2" d="M189.88,108.08c.59,0,.89.5.89,1.5v.34l0,1.4c0,.44,0,.87,0,1.3l.3,4.52c0,.33-.34.5-1,.5h-.29a.32.32,0,0,1-.32-.18.59.59,0,0,1,0-.44,1,1,0,0,0-.05-.58,3.22,3.22,0,0,1-2.44,1c-1.88,0-2.82-1.46-2.82-4.36a6.17,6.17,0,0,1,.9-3.66,3,3,0,0,1,2.61-1.24,4.79,4.79,0,0,1,1.61.28A.83.83,0,0,1,189.88,108.08Zm-2.07,1.82a2.1,2.1,0,0,0-1.7.66,3.8,3.8,0,0,0-.56,2.42c0,2,.53,3,1.6,3a1.63,1.63,0,0,0,.93-.38,2.18,2.18,0,0,0,.71-.86,7.17,7.17,0,0,0,.38-2.36,4.21,4.21,0,0,0-.31-1.86A1.09,1.09,0,0,0,187.81,109.9Zm-.07-5.74a.48.48,0,0,1,.51-.34.81.81,0,0,1,.62.24.52.52,0,0,1,.19.64,4.89,4.89,0,0,1-1.07,1.7c-.5.53-.88.8-1.15.8a.85.85,0,0,1-.6-.2.61.61,0,0,1,.1-1A4.13,4.13,0,0,0,187.74,104.16Z"/><path class="cls-2" d="M193.33,108.74a2.94,2.94,0,0,1,1.95-.7,5.91,5.91,0,0,1,2.13.39c.68.27,1,.62,1,1.06a.65.65,0,0,1-.26.54.78.78,0,0,1-.45.2h-.3a3.82,3.82,0,0,1-.8-.37,2.91,2.91,0,0,0-1.27-.35,1.61,1.61,0,0,0-1,.29,1,1,0,0,0-.41.85,1,1,0,0,0,.47.87,4.67,4.67,0,0,0,1.65.56,5,5,0,0,1,1.81.64,1.74,1.74,0,0,1,.63,1.56,2.83,2.83,0,0,1-.87,2.35,3.37,3.37,0,0,1-2.11.7,5.71,5.71,0,0,1-2.11-.35c-.58-.22-.87-.56-.87-1a.69.69,0,0,1,.78-.78,3.21,3.21,0,0,1,.88.28,3.63,3.63,0,0,0,1.35.28,1.25,1.25,0,0,0,1-.44,1.52,1.52,0,0,0,.35-1,.87.87,0,0,0-.46-.81,4.87,4.87,0,0,0-1.4-.4,7.19,7.19,0,0,1-1.38-.34,2.06,2.06,0,0,1-1.2-2.14A2.31,2.31,0,0,1,193.33,108.74Z"/><path class="cls-2" d="M201.16,104.77a1,1,0,0,1,.68.34,1,1,0,0,1,.32.71,1.08,1.08,0,0,1-.35.75,1,1,0,0,1-.73.38.93.93,0,0,1-.69-.32,1.14,1.14,0,0,1-.31-.82c0-.64.35-1,1-1Zm.85,10.48,0,1.4a.77.77,0,0,1-.3.63,1,1,0,0,1-.64.25.45.45,0,0,1-.52-.5c-.18-4.25-.26-6.6-.26-7.06s0-1,.06-1.66q0-.36.45-.36c.71,0,1.11.29,1.21.86a5.61,5.61,0,0,1,.06.7l-.08,1.26Z"/><path class="cls-2" d="M204.76,110.29a4.55,4.55,0,0,1,1.81-1.65,4.9,4.9,0,0,1,3.81-.3q.63.25.63.66a1.67,1.67,0,0,1-.23.82.69.69,0,0,1-.61.41,3.12,3.12,0,0,1-.77-.23,3.48,3.48,0,0,0-.81-.23,2.65,2.65,0,0,0-2,.85,3.1,3.1,0,0,0-.82,2.25,3.86,3.86,0,0,0,.45,2.09,1.7,1.7,0,0,0,1.55.69,4.36,4.36,0,0,0,1.51-.51,4.77,4.77,0,0,1,1.33-.51.61.61,0,0,1,.42.16.58.58,0,0,1,.16.4,1.45,1.45,0,0,1-.61,1,4.93,4.93,0,0,1-1.51.88,4.39,4.39,0,0,1-1.62.35,2.91,2.91,0,0,1-2.51-1.26,5.73,5.73,0,0,1-.91-3.44A4.38,4.38,0,0,1,204.76,110.29Z"/><path class="cls-2" d="M215.62,108.09a2.8,2.8,0,0,1,2.38,1.38,5.78,5.78,0,0,1,.93,3.31,5.62,5.62,0,0,1-1,3.29,3,3,0,0,1-5,0,5.31,5.31,0,0,1-1-3.09,6.18,6.18,0,0,1,.87-3.48A3.16,3.16,0,0,1,215.62,108.09Zm-.23,1.64a1.58,1.58,0,0,0-1.38.88,3.52,3.52,0,0,0-.54,1.86,3.82,3.82,0,0,0,.6,2.32,1.71,1.71,0,0,0,1.36.8,1.64,1.64,0,0,0,1.74-1.18,5.45,5.45,0,0,0,.16-1.4C217.33,110.82,216.68,109.73,215.39,109.73Z"/></svg>