<svg id="Capa_1" data-name="Capa 1" xmlns="http://www.w3.org/2000/svg" xmlns:xlink="http://www.w3.org/1999/xlink" viewBox="0 0 164.52 154.57"><defs><style>.cls-1{fill:none;}.cls-2{fill:#fff;}.cls-3{fill:#f1d54d;}.cls-4{clip-path:url(#clip-path);}</style><clipPath id="clip-path"><rect class="cls-1" x="-534.69" y="3722.42" width="1341" height="1296.03"/></clipPath></defs><path class="cls-2" d="M13.72,111.73c14.45,24,40.16,37.61,67.71,39.58,23.42,1.68,54.63-1.37,70.12-21.54,18.57-24.15,7.47-70.57-8.08-93.42C112-9.9,36.53-8.6,10.51,42.47-.45,64,1.36,91.21,13.72,111.73Z"/><path class="cls-3" d="M75.32,116.29a.29.29,0,0,0-.53.2,6.34,6.34,0,0,0,.62.34Z"/><path class="cls-3" d="M74.2,118.89a1.17,1.17,0,0,0,1.65.14c-.74-.15-.54-.31-1.38-.61-.18-.39.12-.73.36-.68-.21-.12.12-.56-.29-.78a1.18,1.18,0,0,0,.1,1.84C74.53,119,74.33,118.89,74.2,118.89Z"/><path class="cls-3" d="M92,112l.13-.2A.46.46,0,0,0,92,112Z"/><path class="cls-3" d="M74.67,111.11c-.07.06,0,.23.11.27s0-.14,0-.19S74.72,111.14,74.67,111.11Z"/><path class="cls-3" d="M77.32,111.89l-.11-.06C77.24,111.9,77.29,111.94,77.32,111.89Z"/><path class="cls-3" d="M92,112a2.65,2.65,0,0,1-.39.42C91.78,112.59,91.87,112.28,92,112Z"/><path class="cls-3" d="M78.65,122a1.16,1.16,0,0,0-.37,0c.09,0,.2.07.29.11Z"/><path class="cls-3" d="M93.88,113.42l0,.22a1.81,1.81,0,0,0,.31.13Z"/><path class="cls-3" d="M95,123.61c.13,0,.11-.15,0-.27s-.45-.41-.6-.54a1.78,1.78,0,0,1,.24.32.37.37,0,0,1-.19.26A1.42,1.42,0,0,0,95,123.61Z"/><path class="cls-3" d="M79.31,125l-.28,0Z"/><path class="cls-3" d="M90.61,109.22c0,.09,0,.16,0,.2A.46.46,0,0,0,90.61,109.22Z"/><path class="cls-3" d="M76.17,99.43l-.1,0C76.14,99.5,76.19,99.51,76.17,99.43Z"/><path class="cls-3" d="M73.72,110.55v-.14a2,2,0,0,0-.31-.07Z"/><path class="cls-3" d="M86.41,113.18h-.06C86.07,113.31,86.23,113.26,86.41,113.18Z"/><path class="cls-3" d="M110.73,48.08c0,1-1.33-.9-1.09.56C109.76,48.41,111.05,49.22,110.73,48.08Z"/><path class="cls-3" d="M78.77,122.2l.27.16A1,1,0,0,0,78.77,122.2Z"/><path class="cls-3" d="M109.64,48.64h0l0,.15Z"/><path class="cls-3" d="M93.35,95.8a.55.55,0,0,0-.28,0A.48.48,0,0,0,93.35,95.8Z"/><path class="cls-3" d="M91.17,108.74l.31-.33A1.82,1.82,0,0,0,91.17,108.74Z"/><path class="cls-3" d="M98.27,91.62c.18,0,.27,0,.48-.17l-.1,0A.39.39,0,0,1,98.27,91.62Z"/><path class="cls-3" d="M105.43,88.3a1.08,1.08,0,0,0-.19,0l-.21.16Z"/><path class="cls-3" d="M62.79,79a1.4,1.4,0,0,1-.14.6C62.87,79.24,63.74,80,62.79,79Z"/><path class="cls-3" d="M78.48,122.31c.11-.1.19-.14.29-.11l-.2-.09C78.51,122.17,78.46,122.24,78.48,122.31Z"/><path class="cls-3" d="M96.71,87.39l1.2-.43A8,8,0,0,0,96.71,87.39Z"/><path class="cls-3" d="M64.79,36.22l-.2.18A.28.28,0,0,0,64.79,36.22Z"/><path class="cls-3" d="M101.15,85.45a1.54,1.54,0,0,0,.75.08.42.42,0,0,0,.06-.19Z"/><path class="cls-3" d="M62.65,79.61h0Z"/><path class="cls-3" d="M69.06,85c-.75-1-.92,0-1.42.07-1.08-1,0-.85,0-1.47-.73-.57-1.69-.65-2.11-1.16.06-.11,0-.24.23-.23-1.07-.32-1.86-2.06-3.14-2.36a.44.44,0,0,1,0-.23,2,2,0,0,1-.66.81c-.36-.39-1-.42-.77-.89.21.25.37.14.59.15l-.53-.27c.2-.83.68.4,1.07,0-.88-.64-2.15-1.19-2.53-1.94.4-.57,1.44,1.28,1.17.06l.64,1.12c.18-1.44.46.63.74-.81-1-1.37-1.49-1.15-2.4-2.52-.53,0-.35.45-.89.42-2-1.37.18-2.49-1.55-3.25-.62-.06-1.43.31-1.76-.93l.87-.12c-.81-1.3-1.41-.1-1.87-1.74.41.08.88.87.83.63,0-1.2-.8-.37-1.2-1.07l.51-.49a25.38,25.38,0,0,1-2.83-4.34c.23,0,.52.23.59-.22A9.93,9.93,0,0,1,52,57.68l-.58-.8c0-.19.27-.34.38-.13.24-.8-.38-.06-.6-.47,0-.47.4-.59.55-.28-.47-1.45-.47-4.36.67-5.65l.07.34c.58-1-.7-1.71.24-2.58l0,.25c.61-1.19,1.21-2.45,1.9-3.59a13.14,13.14,0,0,1,1.15-1.52,5.61,5.61,0,0,1,1.36-1c-.2-.42.31-.85.76-1.27s.92-.81.57-1.31A6,6,0,0,1,60,39.23a9.72,9.72,0,0,0,1.73-.68c.48-.26.23-1.11.78-1.58l.35.52.47-1.05c.27.12.54.26.81.4l.49-.44c-.24.09-.62,0-.67-.17.78-.76,2.45-.7,2.59-.41.65-.49,1.36-.9,2.07-1.34,0,.25-.33.47-.58.73,1-1,.42.54,1.36-.37-.19-.09,0-.38,0-.51a6.22,6.22,0,0,0,2.91-.47l-.11.46a39,39,0,0,1,5.7-.73c-.72-.2-.58-1,0-1l.24.66c.39-.4-.63-.25.18-.75.78.08.49.76.06,1a9.4,9.4,0,0,1,.92-.2c0,.2-.17.29-.24.54.4-.38,1.51.74,2.1.12l0,.2a40.42,40.42,0,0,1,4.48.58c.18-.54.76-.23,1.37-.53,1.14.53,2.23,1.45,3.59,2,1,.2.47-.31,1-.4-.15.5,1.19,1.1.33,1.1,1.6.77,2,1,4.14,1.88-.08-.31-.26-.55,0-.61.39.17.66.72.46.89l-.12,0c1.28.41,2.21,1.66,3,2.82s1.51,2.32,2.59,2.68l-.11,0c.6.39,1.22.77,1.81,1.2.55.81-.66-.2-.46.56,2.13,1.2,2.08,2.88,3.56,4.12-.25,1,.41,2.07,1.12,3.2s1.44,2.34,1.34,3.41l.29-.24c.52.32,0,.63.09,1,.25-.15.11-.62.4-.41a16.09,16.09,0,0,1,1.62,6.2,27.6,27.6,0,0,1-.38,6.28c-.09.73.32,1,.66,1.29s.56.68,0,1.55l-.56-.66a9.27,9.27,0,0,1-1,4.47c-.63,1.41-1.4,2.7-2,4.08,0-.23-.19-.36,0-.59-.72.24-1.41,1.73-1.15,2-.34.31-.33-.16-.67-.11-.6.22-.68,1.5-1.25,1.34-.09,0,0-.23.09-.33-.13.45-1.47,1-.84,1.28-1,.37-1.68,1.31-2.67,1.42-.27.84-2,.58-1.81,1.47-.26-.88-2.29.17-2.88.9.14-.36-.77,0-.63-.45-.86.39-1.6,1-1.23,1.3A3,3,0,0,0,93,89.91c-.63.63-1.12,1.16-2,1a12.82,12.82,0,0,0-2.53,4.24,11.65,11.65,0,0,0-.53,4.49c-.45,0-.5-.91-.38-1.72s.29-1.54-.19-1.62c-.45,3,.68,4.85,1.16,7.08,0,.58-.47-.19-.69-.38a5,5,0,0,1,.71,2.43,5.6,5.6,0,0,1-.58,1.67c-.06,0,0-.24,0-.4-.19.25-.56.43-.24.7l.11-.31c.4,0,.44.44.35,1a7.71,7.71,0,0,0-.29,1.13c-.09-.64-.51-.48-.86-.41s-.69,0-.64-.81a.58.58,0,0,0-.13.64c-.29,0-.4-.11-.26-.5-.87.47-.47.84-1.54.93,0-.2.22-.29.3-.54a2.11,2.11,0,0,1-2.11.57c.07-.11,0-.27.27-.25-1.73-.09-3.19.6-5.26,0,.22-.19.24-.32.22-.4s-.15-.14-.35-.19c-.4-.11-.93-.18-1.08-.57l-.87,0-.81.13.79.36a6.1,6.1,0,0,0-1.72.26,5.18,5.18,0,0,1-1.54.24l-.11,0,0-.11a6.73,6.73,0,0,1,.6-.33l-.81.14c-.11.17-.28.27-.35.5a7.82,7.82,0,0,0-.13.8c.18-.36.3-.84.71-.86a.55.55,0,0,0,.21.74c.15.13.18.23,0,.85,0-.16-.07.1-.13.45a2.71,2.71,0,0,1-.31,1h0a7.12,7.12,0,0,1,.91,1.88c-.14.25-.94,0-1,.12.47.25.84.91,1.39,1.49s1.18,1.11,1.63,1c-.28,0-.54.28-.53.4l.67-.13c.31.43.36.53.11.75.66.48.68.17.69,0s0-.36.77.2c-.15,0-.12.09-.43,0,1.66,1,3.42.67,5,.9.5.78-1.43.17-.89.82,2.51,0,4.7-1.32,6.78-1.65h-.4c0-1.1,1.69.14,2.61-.77-.23.17-.13.68-.1.55a5.63,5.63,0,0,0,2.26-1.23,7.18,7.18,0,0,0,2-2.73,3,3,0,0,1,.07.43,3.83,3.83,0,0,0,.88-1.77,7.19,7.19,0,0,0,.14-2c-.31-.32-.45-.94-.74-.46a2.63,2.63,0,0,0-.47-2,3.1,3.1,0,0,0-1.87-1.2l-2.47-.5.89,2.06c.63,1.48,1.61,2.85,1.13,4.5-.06-.28-.38-.62-.33-.4.23.66.45,1.32.67,2,.42-.25.22-.32.5-.82a2.06,2.06,0,0,1,.74,1.26c-.48-.87-.74.15-.92.59.12-.09.31,0,.44,0-.64,1.21,1,0,.65,1.59l-.25,0a4.68,4.68,0,0,1,.61,1.62c-.5.32-.33-.56-.78-.54.15.82,1.24,1.54.79,2.35-.19-.32-.26-.85-.45-1.18a2.56,2.56,0,0,0-.38.9,1.51,1.51,0,0,0,0,.3,1.19,1.19,0,0,1,0,.25v0a5.33,5.33,0,0,1-.22.78l.17-.14a2,2,0,0,1,.83,1.14,4.93,4.93,0,0,1-.86.38,2.1,2.1,0,0,0-.88.77c.44-.63.33-.73.22-.79s-.32,0-.43-.33c-.2-.1-.85-.08-.75-.3-.46.69-1.15,0-1.8,1-.1-.18-.67.17-.67-.35-.75.36.28.29.29.54a2.93,2.93,0,0,1-2.17.45,4.58,4.58,0,0,0-2.54.39,13.21,13.21,0,0,0-1.75.58,3.73,3.73,0,0,1-.78.23,2.82,2.82,0,0,1-1,0c-.2-.23,0-.36.17-.45a2.24,2.24,0,0,1,.45-.11,4.54,4.54,0,0,0-2-.85c.22-.07.14-.27.08-.58-.51-.26-.74.4-1.2-.31a3.85,3.85,0,0,1,.94-.3,8.13,8.13,0,0,1-2-.8c.14-.35.69,0,1,0-.67-.39-1.44-1.27-2-1.25a3.41,3.41,0,0,0,.1.54c-.19-.24.32-.36.51-.25a.65.65,0,0,1,.3,1.05l-.42-.33c-.31.57.11,1,.68,1.29a18.56,18.56,0,0,1,1.72.73c-.27.16-.56.32-.85.46a8.55,8.55,0,0,0,1.34,0c.09.3,0,.81-.52.66.56.76.77.06,1.26.76,0,.1,0,.13-.08.13a8.23,8.23,0,0,0,.86,0c-.2.12,0,.62-.5.34a2.38,2.38,0,0,0,1.85.37c.51-.06.87-.18,1.14.17l-.13,0c1.06-.1,1.09-.28,1.08-.48s-.09-.48.61-.87c.35.49.74,1,1.15,1.43l.12-.64c.21,0,.63,0,.59.23.69-.56-.17-.24.2-.72,1.1.4,2.56-.88,3,0,.2-.55-1-.07-.1-.69.61.92,1.11-.54,2.1-.39-.07.61-1,.63,0,.78.07-.51.62-.66,1.24-.74a6,6,0,0,0,1.86-.41.21.21,0,0,1,0-.38,6.83,6.83,0,0,1-.22-1.46,10.12,10.12,0,0,0-.26-1.75c.27,0,.13-2.44.19-3.66h.13c-.77-.11-.83-1.34-1.15-2.19.44,0,.65.08.93.52l-.16-.83a1.49,1.49,0,0,1-.63-.91l.58.1c-.25-1.1-1.11-2.08-1.1-3.57-.52.06-1.12,1.45-1.83.08.26-.12.71-.29.92.06-.07-.12-.34-.39-.29-.67l.61.47c0-.69-.47-.24-.56-.75.39-.09.18-.45.5-.46.08.12,0,.49.17.64a3.6,3.6,0,0,1,0-1.36L90.58,109a.47.47,0,0,1,0,.23c.06-.2.2-.53.46-.43s.24.33.14.44-.22.25-.21.41c.3-.06.22.41.77.23.09.21-.19.34-.32.45a1.59,1.59,0,0,1,.27,1c0,.37,0,.67.43.5l.06-.11a.19.19,0,0,1,0,.08h0a2.17,2.17,0,0,1-1.15,2.09c-.72.5-1.55.77-2.29,1.22l-.07-.19c-.86.61-2.17.86-2.83,1.45-.32.08-.83-.19-.74-.45a2.73,2.73,0,0,1-2,.42c.75-.46-.32-.25.78-.38-1.07,0-1.3-.28-2.35.33.33-.52-.76-.61-1.21-.49a7.44,7.44,0,0,0,.68.38,4,4,0,0,1-1.45-.09l.32-.65a3.08,3.08,0,0,0-1.23-.37c-.4,0-.8,0-1.17,0a1.9,1.9,0,0,1-1-.32.93.93,0,0,1-.33-.4.55.55,0,0,1,.06-.44c-.28.06-.27.19-.22.37s.18.42-.17.48a.88.88,0,0,1-.12-.94c.12-.28.34-.43.32-.47.11-.22-.2-.27-.58-.48s-.8-.51-.63-.85a2.25,2.25,0,0,1-.74-.28,1.38,1.38,0,0,1-.67-1.09c.07-.52.8-.12,1.14.12s.61.56.57.67-.09,0-.13,0a.21.21,0,0,1-.15-.06c.06.28.19.55.55.58l-.3-.27a.45.45,0,0,0,.22-.08l.35.07a.82.82,0,0,1,.62.38c0-.24-.19-.42-.6-.54a2.17,2.17,0,0,0,.88.17,1.23,1.23,0,0,1,.71.14c-.07-.14-.19-.44-.08-.42a2,2,0,0,0,.75.15.55.55,0,0,0,.37-.13c.16-.14.25-.35.93-.3.71.48-.41.82,1,.73.83.37.09.66-.28.8,1.34-.27,2.4.65,3.26.76l-.78.15a4.72,4.72,0,0,1,1.23,0l-.42-.51c.43.12.84.11.83.31.47-.32-.34-.8.55-1.24a2.6,2.6,0,0,0,1.16-.06c.4-.08.77-.15,1,.14-1,.13-.93.23-.81.43s.31.41-.57.56a5.52,5.52,0,0,1,1.28-.19c.09,0,0,.14-.18.21,1.12.06,1.34-.26,1.49-.58s.3-.67,1.23-1.25c-.06.46.85.3,1.08,0-.74.61-.66-.21-.27-.92a1.7,1.7,0,0,0,.88-.9,3.47,3.47,0,0,1,.35-.74,3,3,0,0,1-.57.51c-.11-.4.31-.84.62-1.67.14,0,.1.24,0,.41s-.14.27,0,.18c0-.6.38-1,.71-1.62a2.34,2.34,0,0,0,.28-2.12c.13-.68.66-.16.71-.79a2.16,2.16,0,0,1-.37-1.46,1.59,1.59,0,0,0-.25-1.18c-.39.41-.28.45-.9-.2.22.56.52,1.12.85,1.83-.37-.41-.72-.75-1.05-1.1.14.57.66,1.18.7,1.62-.57-.57-.44-.51-.73-.1.44-1.08-.94-1.55-.59-2.58l1.19-.15a3,3,0,0,0-.07-1.61,2.48,2.48,0,0,1,.31-1.94l-.38.39c-.17-.17-.12-.43,0-.69a2.54,2.54,0,0,0,.43-.79c.31.26.62.09.94.08-.27-.19.75-.82.36-1.51l.92-.08a2.17,2.17,0,0,0,1-1.25,2,2,0,0,1,1.13-1.23c-.19.59.52.53-.19,1.26.43-.22.84-.36.73-.6.36.1,1-1.09,1.61-.93.12-.25,0-.66.56-.86a.2.2,0,0,1,.08.18c-.08-.18.73-.6.09-.81,2,.53,4.08-1.84,5.86-1.66a26.9,26.9,0,0,0,2.94-2.42c0,.14.13.16-.05.26A1,1,0,0,0,108.8,85c0-.39,0-.74.71-1.23,1.06-.21-.35.91.19.67.56.36.9-.06,1.23-.63s.64-1.28,1.28-1.56l-.1.28c.92-.49.8-2.12,1.52-3.35,0,0,.07.11.17.09a21,21,0,0,1,.51-4.3c.38.54.09.67.66.57.1-.61-.85-.08-.66-1.27.36-.3.81-1.1,1.37-1.11-.07.38-.16.77-.23,1.15.85-.42.31-1.5.53-2.09l.29.13c.15-1.84-.63-1.93-.51-3.81l-.24.19c-.76-1,.45-.87-.16-1.88l.78-.35c-.21-.7-1-2.33-1.32-3.48a8.65,8.65,0,0,1,1.61,2.84c0-.69-.31-2.34-.76-2.62.11.26.36.58.27.86a6.19,6.19,0,0,1-1.5-3c.79-.06.68-.94.45-2s-.61-2.14-.22-2.81c-1.38-2-1.62-4.53-3.13-6.95-.55,1.47-.43-.69-1.42.1-.41-.5-.52-.72-.48-.81-.12-.68-.3-1.35-.46-2,0-.6.57.35.77.15-.74-1.24.1-.8-.2-1.78-.24.42-.81,0-1.17-.79l.24,1.27c-1.72-1.2-.23-2-2-3.19.24.07.47.15.71.24-.41-.34-1.07-1-1.79-1.71a3.9,3.9,0,0,0-2.26-1.17c0-.23,0-.64.41-.39a13.24,13.24,0,0,0-3.24-2.3,9.84,9.84,0,0,1-2.87-2l.32-.14c-.44-.2-1,0-1.32-.53.09-.09.32-.16.14-.29a3.94,3.94,0,0,1-1.78-.63l.63,0c-2-1.58-3.72-1-5.63-1.54.33-.83-1.39-1.79-2.31-2.17l.07-.12c-2.79-.91-5-.41-7.58-.27a7,7,0,0,0-3.7-.71c-1.53,0-3.17.17-4.54.14.43.09,0,.69-.39.86-.66-.09-1.54.95-1.62.13l.22,0A1.4,1.4,0,0,0,69,29.24a15.93,15.93,0,0,0-1.54.43l.16,1.07a4.14,4.14,0,0,0-2.25.17A12.31,12.31,0,0,0,63.18,32c-.66.44-1.28.84-1.84,1.15a2.24,2.24,0,0,1-1.58.38c-.39.57-1,1.05-1.38,1.62l-.31-.48c-.76.49-1.3.9-1.88,1.34a16.92,16.92,0,0,0-1.82,1.89v-.62c-.87.94.14,2.25-.49,3.14L53,40.14c-1.28,1.67-3.12,3.2-3.32,5.48a.45.45,0,0,1-.17-.57c-.52.86-2.08,3.45-.82,3.49-.37-.12-.56.41-.66,1.11a12.08,12.08,0,0,0,0,2.17l-.51-.3a4.22,4.22,0,0,1,.68,2.5c-.13.3-.5.22-.28-.18-.44,1,.44.87,0,2.1l-.32-.5c-.15,1.09.1,1,.5,1.62.18.67-.11,2-.6,2.23a1.43,1.43,0,0,1,.72,1.32c-.18.11-.34-.1-.41-.22-.14,1.9,1.11,2.54.89,3.87a.37.37,0,0,0-.25.29,13.17,13.17,0,0,1-.54-2.47c-.52.09-.33,1.31-1.25.5.3.45.76,1,1.14,1.63A4,4,0,0,1,48.69,66a.47.47,0,0,1-.12.2l-.09-.09a1.31,1.31,0,0,0,.32.67,3.53,3.53,0,0,0,.24.93c-.33.3.34,1.36.59,1.89.49-.3.78.41.85-.43,0,.1-.12-.06-.3-.4a1.15,1.15,0,0,0-.15-.2h.06c-.17-.34-.39-.79-.63-1.3a1.46,1.46,0,0,1,.84,1.35l1.18.29c-.33,1,0,2.6-.25,3,.63.65,1.21,1.52,1.89,2.19a4,4,0,0,0,2.13,1.32c.41.29.11.62.09.86-.26-.15-.46-.42-.67-.44.82.59,1.89,2.18,2.62,1.86.53,1.13-1-.08.21,1.11l-.32,0c1.25,3.28,5,2.7,6.15,6.4-.09-.25-.14-.37-.08-.49a46.67,46.67,0,0,0,3.82,4.84,16.43,16.43,0,0,1,1.77,2.5,8.6,8.6,0,0,1,1.08,2.78c.34,1.06.74,1,1.36,1.46l-.48.45c.36.27.74.53,1.1.82a3.19,3.19,0,0,1,.35,2.35,3.22,3.22,0,0,0,.57,2.5l.35-.33c.11.71.55,2.26,0,2.16.08.07.45.22.23.51l-.32,0c.19.58.34,1.2.48,1.83-.37,1.42-1.23-.34-1.51,1.74,0,.79.66,2.35.91,2.08.06-.32.3-.79.62-.78l.08.75c.92.24,1.81.91,2.68-.8L76,108.28l.5-.36L76.37,109c.49-.55.15-1-.07-1.45a.88.88,0,0,0,.55-.5c-.26-.46-.53-.92-.82-1.37.38-.16.72.64,1-.28-.4-.64-.84.59-1.1-.46.43-.65.78-.49.37-1.26.24-.13.4,0,.53.34-.31-.71-.32-1.92-.9-2.17.41-.83-.68-2.2.19-2.38A4.39,4.39,0,0,1,74.83,98c1.35.66-.65-2.09.47-2.24a3,3,0,0,1-1.39-1.64,7.49,7.49,0,0,0-1.41-2.07c.11,0,.32.11.34.25a7.21,7.21,0,0,1-.31-1.68c-.74.32-1.57-.66-2.33-1,.07-1.24,1.11,0,1.54-.67-.49.37-1.53-1.07-1.77-.49,0-.88-.19-.66.12-1.37-.88.48-.55-.47-1.43-.59-.28-1.15.56-.79-.42-1.54C68.13,84.37,69.06,85,69.06,85ZM51.9,64.54h0c.08.2.16.37.2.49C52.07,64.92,52,64.78,51.9,64.54Zm-.63-2.06a4.66,4.66,0,0,0,.21.91c-.17.13-.39.11-.45-.11C51.19,63.36,51.18,62.83,51.27,62.48Zm-2.05,6c-.24-.33-.19-.5-.11-.59.09.16.19.35.35.6h.08A.69.69,0,0,1,49.22,68.44Z"/><path class="cls-3" d="M50.18,68.76a.34.34,0,0,1,.1.13,1.32,1.32,0,0,0,0-.27l-.21-.05Z"/><path class="cls-3" d="M92.15,111.8l0,0a.33.33,0,0,1,.1-.06Z"/><polygon class="cls-3" points="62.9 37.62 62.82 37.49 62.73 37.7 62.9 37.62"/><path class="cls-3" d="M91.56,115.1a.31.31,0,0,0-.12.19A.44.44,0,0,0,91.56,115.1Z"/><path class="cls-3" d="M92.16,120.31c0,.16-.11.3-.16.43A1.15,1.15,0,0,0,92.16,120.31Z"/><path class="cls-3" d="M90.94,121.84c0,.1,0,.17.06.24h0Z"/><path class="cls-3" d="M88,106.71a.19.19,0,0,0,0-.1C88,106.34,88,106.5,88,106.71Z"/><path class="cls-3" d="M72,111.88a4.36,4.36,0,0,1-.32-.85C71.63,111.45,71.64,111.79,72,111.88Z"/><path class="cls-3" d="M96.58,87.44h0l.13-.06Z"/><path class="cls-3" d="M71.8,109.93a1.77,1.77,0,0,0-.14,1.1A6.23,6.23,0,0,0,71.8,109.93Z"/><path class="cls-3" d="M76.51,119.91l-.06-.15a.16.16,0,0,1-.09,0Z"/><path class="cls-3" d="M76.36,119.79l-.16-.11C76.25,119.75,76.29,119.81,76.36,119.79Z"/><path class="cls-3" d="M75.9,119.42c.11.09.19.18.3.26C76.13,119.57,76.09,119.42,75.9,119.42Z"/><path class="cls-3" d="M79.89,122.92l.13-.17A.52.52,0,0,0,79.89,122.92Z"/><path class="cls-3" d="M81.25,123.27c-.32-.11-.67-.61-1.13-.66l-.1.14C80.3,122.56,80.84,123.56,81.25,123.27Z"/><path class="cls-3" d="M88.18,125.35c-.49.07-1,.12-1.47.17.29.16.7.38,0,.57C88.74,126.33,86.27,125.71,88.18,125.35Z"/><path class="cls-3" d="M92.91,124.11c-1,.47.18.27.22.39C93.7,124.07,93.77,124,92.91,124.11Z"/><path class="cls-3" d="M84.79,115.76l0-.52C84.22,115.42,84.79,115.44,84.79,115.76Z"/><path class="cls-3" d="M78.81,118.75c.19.14.4.28.6.41l.35-.45A7.47,7.47,0,0,1,78.81,118.75Z"/><path class="cls-3" d="M77,114.22l.18,0a4.27,4.27,0,0,1-.65-.24C76.69,114.09,76.85,114.15,77,114.22Z"/><path class="cls-3" d="M104.37,89.44l-.46-.49C103.59,89.24,103.82,89.93,104.37,89.44Z"/><path class="cls-3" d="M116.12,68.75a1.07,1.07,0,0,0,.21-1.37A10.81,10.81,0,0,0,116.12,68.75Z"/><polygon class="cls-3" points="66.15 30.38 66.56 30 65.72 30.5 66.15 30.38"/><path class="cls-3" d="M89.54,126.75c-.17,0-.57-.06-.49,0l.66.09Z"/><path class="cls-3" d="M88.28,126.77c.32.06.88.18,1.5.24-.64-.12-.37-.09-1.13-.21-.07,0,.22,0,.47,0-.17,0,.15,0-.27-.08s-.54,0-.12.1Z"/><path class="cls-3" d="M86.7,128l.07,0Z"/><path class="cls-3" d="M85.81,128.48l-.08-.11A.59.59,0,0,0,85.81,128.48Z"/><path class="cls-3" d="M85.24,128l0,0S85.21,128,85.24,128Z"/><path class="cls-3" d="M86.7,128l-.19-.1C86.69,128.07,86.65,128,86.7,128Z"/><path class="cls-3" d="M89.83,127.36l-.17-.06.07,0Z"/><path class="cls-3" d="M86.43,127.42h0l-.24-.13Z"/><path class="cls-3" d="M86.45,127.14l.73.31-.35-.16Z"/><path class="cls-3" d="M87.55,127l-.08,0Z"/><path class="cls-3" d="M86.23,127.53l-.17-.1Z"/><path class="cls-3" d="M76.79,126.11h.1C76.83,126.11,76.79,126.1,76.79,126.11Z"/><polygon class="cls-3" points="79.64 125.67 79.67 125.68 79.98 125.72 79.64 125.67"/><path class="cls-3" d="M84.65,127.53h0C84.63,127.48,84.63,127.49,84.65,127.53Z"/><path class="cls-3" d="M83.43,128.21c-.09.5-.19.62-.28,1.18C83.2,129.18,83.38,128.54,83.43,128.21Z"/><path class="cls-3" d="M89.75,127.36a0,0,0,0,1,0,0S89.77,127.37,89.75,127.36Z"/><path class="cls-3" d="M83.15,129.39h0v0Z"/><path class="cls-3" d="M84.47,128l.11.22Z"/><path class="cls-3" d="M85.17,128.56l0-.06Z"/><path class="cls-3" d="M84.59,128.83s0-.11,0,0l0,.07C84.56,128.78,84.56,128.75,84.59,128.83Z"/><path class="cls-3" d="M84.38,128.89a.81.81,0,0,0,0,.11v0Z"/><path class="cls-3" d="M77.27,127.79l.49-.15C77.37,127.75,77.21,127.7,77.27,127.79Z"/><path class="cls-3" d="M89.51,127.3l.24.06,0,0Z"/><path class="cls-3" d="M86,133.08l-.12,0S86,133.1,86,133.08Z"/><path class="cls-3" d="M79.22,131l-.06,0Z"/><path class="cls-3" d="M85.68,133.19a2.6,2.6,0,0,0-.15-.36l0,.14Z"/><path class="cls-3" d="M77.77,127.64h0Z"/><path class="cls-3" d="M76.32,127.34c0,.09.73-.08,1.16-.14.22.06-.54.14-.91.25.21,0,.89-.06.87,0l-.31.07c.59-.07.07.18.82.07l-.18.06,1-.27s.47-.07,0,.07a1.58,1.58,0,0,0-.33.06l.21,0c-.67.21-.24,0-.75.15.24,0,.82-.07.64,0-.66.2-.25-.05-.82.18l.23-.15c-1,.35.06-.07-1,.29-.15.18.37,0,.22.21.37-.09.54-.17.91-.26.7-.08-1.6.66-.69.48.44-.12,1.26-.41.86-.18l-.74.25c0,.13,1.06-.34.61-.05-.29.09-.27,0-.35.06-.54.3.43-.11.45-.06l-.63.27c.15.07.66,0,.82,0a3.29,3.29,0,0,0-.57.27c.38,0,.07.34-.19.69l.54-.24a1.28,1.28,0,0,1-.32.2c-.17.17.32-.18.54-.28.05,0-.27.22-.44.29.5-.16,1.07-.33.61.11l-.16.08c-.15.22,1.06-.61.64-.23l-.09,0c-.1.3.43.11-.17.79.68-.54-.16.39.75-.39a4.92,4.92,0,0,0-.75,1c0,.07.59-.47.71-.52L79,131l.52-.41-.51.55.15-.08a2,2,0,0,1,.3-.36c.25-.15-.18.44-.4.67l.49-.26a3,3,0,0,1-.37.33c.5-.41-.43.5,0,.13.08-.12.25-.27.33-.37-.22.31-.13.38,0,.31l-.29.32c0,.18.36,0,.48.13a3.63,3.63,0,0,1,.6-.82l-.37.54a6.68,6.68,0,0,1,.45-.59,3.86,3.86,0,0,1-.57.78l.19-.15c-.11.16-.18.24-.33.44.26-.32-.28.62.17.06l-.11.16c.13.1.32,0,.45,0a7.73,7.73,0,0,1,.54-.73c0,.2-.15.64,0,.65a4.19,4.19,0,0,0,.43-.7c-.24.46-.12.47-.34.77.16,0,.2,0,.53-.32a3.28,3.28,0,0,1,.17-.45c.06-.07,0,.22-.13.45l0,0c.44-.66-.15,1.58.38.62l0,.05.33-.5c0,.11-.16.37-.2.69.41-.78.23.2.52-.32-.23,1.52.4,0,.39.95l0-.35c.09-.35,0,.21,0,.29a4.87,4.87,0,0,1,.05-.51c.37-.39.64.59,1,.91.15.09,0-1.87.2-1v.67c.2-.81.55,0,.7-.73a1.72,1.72,0,0,1,0,.35c.13.47.2,0,.12-.4,0,0,.07.35.14.55s0-.63.13-.17a.83.83,0,0,1,0,.2c0-.24.17,0,0-.52.15.24.09-.29.25,0-.13-.62.23.25,0-.61.26.88.38.66.28.24.08.26.14.25.25.62.06,0,0-.22-.12-.65.5,1-.11-.91.47.38a7.3,7.3,0,0,1,0-1.16c.4.82-.12.15.3,1,0-.42-.3-1.15-.07-1a2.1,2.1,0,0,1,.23.5c0-.39.31-.08.16-.57a1.2,1.2,0,0,1,.11.23s.12.08-.1-.27l0,.1c-.35-.49-.59-1.11-.76-1.38.61,1,.26.19,1,1.49a1.94,1.94,0,0,0-.27-.49,2.37,2.37,0,0,1,.32.47c0-.24-.33-.59-.26-.63.12.17.15.24.28.44-.19-.35-.39-.69-.24-.59s.17.22.15.23-.47-1-.15-.71c.52.7.21.2.69.78l-.08-.22-.26-.26c.06,0-.26-.49-.07-.33l.17.26v-.18l-.23-.17c-.22-.33-.63-.72-.45-.61s.05,0,.36.29h0c-.15-.19-.3-.4-.15-.28s.58.61.68.73c-.41-.48,0-.22-.47-.73.11.12.39.41.45.46l-.35-.38a2.92,2.92,0,0,1,.41.38c.12,0-.69-.66-.34-.43,0,0,.08.08.13.15.22.08-.12-.35.12-.24.58.49.09.18.58.59,0-.19-.51-.79-.31-.77l-.07,0c-.83-.69.46.26.1-.1a4.75,4.75,0,0,0,.37.3c.19,0-.1-.3-.31-.58l.22.17c.23.1.18,0,.32,0a2.62,2.62,0,0,0-.52-.37c1.42.69-.57-.67.63-.14,0,0,.19.15.2.14l-.17-.23a4.91,4.91,0,0,0-.59-.26,1.83,1.83,0,0,1-.41-.29,5.12,5.12,0,0,0,.92.44l-.4-.21c.77.32-.84-.42-.31-.24l.22.11c-.1-.08-.38-.24-.3-.24.49.22.21.14.61.33,0-.06-.89-.5-.38-.32.13.08.12.1.25.18.6.22.45.15.56.15h0l.3,0-.17,0c-1.28-.6-.19-.22-1-.62a6,6,0,0,0,1.05.41,3.23,3.23,0,0,1,.51.14c-.45-.2.4.06-.26-.23a2.13,2.13,0,0,1,.5.13c-.13-.11-.33-.1-.57-.18-.61-.28.84,0,0-.33-.34-.2-1-.38-1.29-.52a5.07,5.07,0,0,1,.69.18c.3,0,.26,0,0-.11.17,0,.32.06.54.09,0,0-.71-.16-.41-.15s.56.12.77.18c-.17-.08-.53-.19-.7-.26a3.78,3.78,0,0,1,.73.17,1.84,1.84,0,0,0-.82-.29h-.2a3.29,3.29,0,0,1,.56.09c.42.11-.19,0-.39,0l-.12,0c-1.15-.16.17.14.09.19L88,127l.67.19a5.33,5.33,0,0,1-.79-.17c-.42-.06.28.09-.18,0l-.14,0,.23.08c-.17,0-.58-.13-.45-.12-.49-.06.59.24,0,.1l-.05,0c.26.15.6.17,1.28.43l-1.47-.39.59.19a1.12,1.12,0,0,1-.31-.07c.4.15.26.07.64.2-.55-.13.21.2-.73-.11a5,5,0,0,1,.65.23c-1-.34.16.11-.32,0a4.07,4.07,0,0,0-.69-.27c.86.35-.21,0,0,.07.68.28.26.17.47.31-.22-.1-.41-.08-.67-.17l-.11-.05c.67.33.52.31.64.41l-.72-.4v0a2,2,0,0,1,.38.24l-.49-.27s.55.38.2.23a16,16,0,0,1,1.54.92c-.24-.14-.66-.38-.75-.45s.19.13.08.08l-.39-.26c-.19-.08.33.21.28.21l-.52-.3s.15.07,0,0a3.45,3.45,0,0,1-.56-.27,5.92,5.92,0,0,1,.5.32c0,.05-.42-.24-.6-.33.23.15,0,0,.48.34l-.38-.23c.21.16,0,.11.55.45l0,0,0,0h0c.45.4-.36-.08-.19.12l-.16-.12c.16.17.05.15.37.45a3.63,3.63,0,0,1-.48-.37c.09.12.26.28,0,.09s-.24-.19-.17-.19c-.16-.08-.4-.29,0,.1-.37-.35-.5-.41-.39-.3l.28.23c0,.07,0,.05,0,0l-.49-.46c-.63-.54.92,1.06-.09.12.32.35.26.22.63.62-.09,0-.78-.72-.78-.72-.28-.25.64.75.43.59a8,8,0,0,1,.71.85,6.61,6.61,0,0,1-.8-.89s0,0,.1.1a2.13,2.13,0,0,0-.29-.35l.15.18a2.81,2.81,0,0,1-.43-.43,2.07,2.07,0,0,0,.34.39c-.25-.24,0,0-.23-.13.09.1.26.32.26.32-.23-.2.27.38.29.49-.24-.28-.52-.7-.37-.43a7.71,7.71,0,0,1-.5-.67c.25.39-.23-.21-.28-.28l-.11-.16c.07.1.06.1,0,.1l.29.39a1.81,1.81,0,0,1-.18-.23c.17.27.47.65.7,1-.15-.19.1.25-.26-.28.16.16-.36-.53-.39-.63,0,.06,0,.07,0,0l-.1-.14c-.34-.46.39.6.35.61a4.84,4.84,0,0,0-.34-.5,3.33,3.33,0,0,1,.19.28l.27.46c-.17-.22.08.2,0,.18l.09.1a1.18,1.18,0,0,1,.18.39c-.15-.24-.08-.18-.15-.28.29.56-.39-.53-.2-.15-.12-.21-.33-.58-.42-.72.2.42-.26-.42-.1-.07a6.38,6.38,0,0,1,.37.74l-.1-.32.29.64s-.1-.29,0-.22a3.77,3.77,0,0,0,.32.59c-.38-.62.14.4-.13,0l-.54-1.07c-.27-.46.21.58,0,.34l.11.18c.19.44,0,.08,0,.26-.17-.36-.23-.49-.33-.72.12.27,0,0,.26.73l-.23-.48c-.11-.19.37,1.08.26,1-.13-.41-.25-.67-.33-1,0,0-.05-.06,0,.2-.09-.24.14.52,0,.17a3.38,3.38,0,0,1,.15.54c0-.08-.06-.19-.06-.19a5.17,5.17,0,0,0,.21.68c-.43-1.17-.15.13-.48-.89a.84.84,0,0,1,0,.32c0-.12,0-.2,0-.16-.12-.35.21,1.13.06.73a3.82,3.82,0,0,1-.1-.58c-.25-1.29,0,.18-.19-.57v-.07c-.08-.44,0,.5,0,.41l0-.2A3.25,3.25,0,0,1,84,130c0-.51,0-.27-.05-.79,0,.07.08.83,0,1,0-.28-.08-.52-.12-1.08l0,0c-.06-.72,0,0-.06-.1v-.32c0,.11,0,.91-.08.85v.24c0,.79,0-.44-.06.14v-.8a6.31,6.31,0,0,1-.15.92c.07-.58.1-.89.14-1.24,0,0,0,0-.08.45,0-.08,0-.28,0-.15-.05.62-.11.93-.16.91.13-1.54-.08-.39,0-1.59-.13.55,0-.26-.1-.17-.24,1.18,0,0-.29,1.24,0,.07,0,0,0,0l.12-.74c.09-.35.09-.26.15-.53,0-.1.13-.51.2-.83-.11.43-.17.61-.13.45l-.14.55c-.23.62.26-1,.05-.39l.12-.37c-.08.22,0,0-.39.91.05-.13.16-.45.2-.53s-.5.94-.3.36l.13-.27c0,.07-.25.51-.14.22a3.21,3.21,0,0,0,.14-.29c0,.1-.25.47-.18.3l.16-.3c.14-.37-.45.71-.61.86.44-.78.55-1,.62-1.18l.06-.1c0-.12-.45.58-.72.82.53-.8.14-.4.44-.86-.1.13-.44.54-.51.6.11-.15-.44.44.1-.18v0c.52-.62.36-.46.36-.5l-.72.8c1-1.18-.53.28.44-.73-.21.18-.22.16-.42.33l.42-.39c.09-.12.13-.18,0-.12l.32-.26s-1.29,1-1.34,1l.66-.55s.54-.52-.12-.1l.34-.23s.43-.38-.53.28c.63-.43,0-.07-.27.08l.48-.3a6.65,6.65,0,0,1-1,.54c.06,0,.38-.25.26-.16.24-.18-.47.26-.23.06l.32-.17c0-.05-.15.06-.52.25-.21.09.09-.13.53-.38-.27.15-.65.33-.53.24l.33-.17c.32-.22-.62.23-.14,0l.3-.16a.08.08,0,0,1,0,.1c.46-.24.54-.3,1.18-.61-.35.17-1.13.51-.92.37l.16-.08,0,0s0,0-.08,0a.6.6,0,0,0,.13-.08c.39-.18.2-.12.22-.14-.52.23-.45.17-.87.37l.09,0,.05,0,0,0,0,0c-.27.11-.5.2-.22,0l-.85.34c.71-.34,1.09-.54,1.55-.72a7.49,7.49,0,0,0-1.25.31c-.13,0,.29-.12.45-.18l.23,0a3.63,3.63,0,0,0-.84.17c.31-.14.66-.18.53-.2l.22-.06c.56-.21.1-.1-.33,0s-.83.08-.1-.13l-.25.07c.65-.23-.68-.22.38-.45.22,0-.26,0-.62,0l.61,0h-.71c-.52-.07,1.49-.11.52-.17h-.41c.08,0-.24-.1.24-.07-.08,0-.43,0-.22,0l.32,0-.54-.1c.24,0,1.27.11,1.33.07-.12,0-.92-.17-1.13-.19a2.74,2.74,0,0,1-.52,0l-.16,0a15.35,15.35,0,0,0-2.56-.25l.57.15-.46,0,0-.07c-.44,0-.06.06.2.12a3.05,3.05,0,0,0-.51,0l.9.16a4.74,4.74,0,0,0-.94-.05c.41.07.83,0,1.1.1-.43,0-.78,0-.42,0a1.85,1.85,0,0,1-.5,0c.29.06.11.13.61.17-.53,0,.14.14-.75.13a3.89,3.89,0,0,1,.74.12c-1.07-.06-.06.14-1.21.16,1,0,.44.2,1,.26-.08,0-.24,0-.19,0a3.32,3.32,0,0,1-.54.16c.79-.07,1,0,1.48,0a16.48,16.48,0,0,1-1.66.18c.64-.08.65,0,1.18,0a8.38,8.38,0,0,1-.87.19c1-.13.17,0,.78,0-.47.15-.91.17-.6.2A2.06,2.06,0,0,1,76.32,127.34Zm2.2,1.31h0l0,0Zm.07.12a.08.08,0,0,0,0-.07l.36-.16A1.89,1.89,0,0,0,78.59,128.77Zm3.48-1.88c.07,0,0,0-.13.07l-.07,0-.07,0Z"/><path class="cls-3" d="M81.38,127.18h0l-.12.06.17-.07Z"/><path class="cls-3" d="M86.78,128.08h0l.07.05Z"/><polygon class="cls-3" points="78.9 131.06 79 130.97 78.9 131.04 78.9 131.06"/><path class="cls-3" d="M88.77,128.56l.13.05Z"/><path class="cls-3" d="M89,128.32l.2,0Z"/><path class="cls-3" d="M89.37,128.19l-.22-.09h0Z"/><path class="cls-3" d="M87.17,131.81v0C87.21,131.94,87.2,131.89,87.17,131.81Z"/><path class="cls-3" d="M87.33,130c.06.09.12.17.15.23S87.54,130.27,87.33,130Z"/><polygon class="cls-3" points="86.05 133.09 86.05 133.08 86.04 133.08 86.05 133.09"/><path class="cls-3" d="M87.43,130.28c.09.07.09,0,0,0S87.39,130.21,87.43,130.28Z"/><path class="cls-3" d="M89.92,127.13h0l-.09,0Z"/><path class="cls-3" d="M89.85,127.1l-.06,0S89.79,127.09,89.85,127.1Z"/><path class="cls-3" d="M89.65,127l.14,0S89.81,127.06,89.65,127Z"/><path class="cls-3" d="M89.6,127.43l.2,0Z"/><path class="cls-3" d="M89.63,127.55c.05,0,.44,0,.33,0l-.16,0C90.09,127.57,89.3,127.45,89.63,127.55Z"/><path class="cls-3" d="M87.09,127.18h.17a3.15,3.15,0,0,1-.55-.18C86.08,126.87,87.19,127.15,87.09,127.18Z"/><path class="cls-3" d="M86.73,127.21a3.89,3.89,0,0,0-.41-.16A2.31,2.31,0,0,0,86.73,127.21Z"/><path class="cls-3" d="M86.21,128.08l-.39-.33A3.41,3.41,0,0,0,86.21,128.08Z"/><polygon class="cls-3" points="88.04 130.06 88.3 130.26 87.96 129.92 88.04 130.06"/><polygon class="cls-3" points="85.28 127.6 85.23 127.55 85.35 127.7 85.28 127.6"/><path class="cls-3" d="M84.29,128.4l.17.61A5.12,5.12,0,0,0,84.29,128.4Z"/><path class="cls-3" d="M83.8,129.12c0-.31,0-.52,0-.21C83.77,129,83.79,129.21,83.8,129.12Z"/><polygon class="cls-3" points="82.68 127.6 82.83 127.45 82.69 127.57 82.68 127.6"/><path class="cls-3" d="M92.43,55.29c-.11.14-.32.47-.25.43l.4-.54Z"/><path class="cls-3" d="M92,56.47a9,9,0,0,0,.92-1.2c-.41.5-.26.27-.74.88-.08,0,.07-.22.21-.42-.11.13,0-.16-.22.18s-.21.51.09.19C92.13,56.23,92,56.37,92,56.47Z"/><path class="cls-3" d="M93.56,59.6l.06-.06Z"/><path class="cls-3" d="M93.81,61.35h0Z"/><path class="cls-3" d="M93.09,61.64h0C93.07,61.63,93,61.64,93.09,61.64Z"/><path class="cls-3" d="M93.56,59.6l-.15.15C93.6,59.64,93.53,59.64,93.56,59.6Z"/><path class="cls-3" d="M93.34,55.48l-.14.12.07,0Z"/><path class="cls-3" d="M92.65,59.24h0l-.21.17Z"/><path class="cls-3" d="M92.17,58.86s.4-.37.59-.54a2.43,2.43,0,0,1-.3.25Z"/><path class="cls-3" d="M92.06,57.41l-.07.05Z"/><path class="cls-3" d="M92.81,59.66l-.17.12Z"/><path class="cls-3" d="M89.91,53.45l0,.1C89.93,53.49,89.92,53.45,89.91,53.45Z"/><polygon class="cls-3" points="91.64 56.08 91.63 56.1 91.65 56.41 91.64 56.08"/><path class="cls-3" d="M92.35,61.82h0C92.3,61.8,92.31,61.81,92.35,61.82Z"/><path class="cls-3" d="M91.42,62.81c-.18.52-.33.61-.51,1.19C91,63.79,91.31,63.15,91.42,62.81Z"/><path class="cls-3" d="M93.31,55.55l0,0S93.33,55.54,93.31,55.55Z"/><path class="cls-3" d="M90.91,64h0l0,0Z"/><path class="cls-3" d="M92.5,62.39l.21.13Z"/><path class="cls-3" d="M93.44,62.24h0Z"/><path class="cls-3" d="M93,63.09s-.1-.08,0,0l0,0C92.94,63.06,92.92,63,93,63.09Z"/><path class="cls-3" d="M92.76,63.32l.07.1v0Z"/><path class="cls-3" d="M87.28,55.68a4.37,4.37,0,0,1,.44.27C87.38,55.72,87.36,55.51,87.28,55.68Z"/><path class="cls-3" d="M93.14,55.73a1,1,0,0,1,.17-.18h0Z"/><path class="cls-3" d="M96.16,66.31l-.19.08A.27.27,0,0,0,96.16,66.31Z"/><path class="cls-3" d="M86,61.91l-.07,0S85.92,61.92,86,61.91Z"/><path class="cls-3" d="M95.62,66.84a1.77,1.77,0,0,0-.32-.25l.07.14Z"/><path class="cls-3" d="M87.72,56Z"/><path class="cls-3" d="M87.52,54.18c-.16.12.43.6.69.94,0,.28-.44-.34-.76-.56,0,.24.47.78.39.82a1.11,1.11,0,0,1-.25-.21c.37.49-.22.31.29.88l-.16-.1c.32.21.62.44.83.6,0,.06.32.36-.08.09,0,0-.13-.14-.24-.24l.13.17c-.6-.37-.15-.21-.56-.52.09.25.52.68.3.64-.59-.36-.07-.31-.65-.54l.3,0c-1-.52.12,0-.9-.61-.29.08.16.4-.13.48.3.24.49.28.79.52.46.56-1.61-.66-.92,0,.38.27,1.15.67.68.59l-.68-.39c-.16.15,1,.58.41.53-.27-.15-.18-.24-.27-.25-.61-.13.36.27.33.35l-.64-.25c0,.23.4.61.46.84a2.49,2.49,0,0,0-.6-.2c.24.37-.25.53-.71.72l.56.23a.86.86,0,0,1-.38-.06c-.25.06.36.08.58.18,0,.06-.35,0-.52-.07.47.3,1,.67.34.77L86,59.48c-.26.12,1.19.28.63.36l-.1,0c-.3.3.26.63-.64.89.85,0-.37.36.83.3-.58.22-.8.2-1.16.51-.05.07.75,0,.88.06l-.62.09.67,0-.73.17.17,0a1.37,1.37,0,0,1,.44-.13c.3.06-.37.36-.68.43l.57.17a1.77,1.77,0,0,1-.5,0c.65,0-.64.17,0,.19.14,0,.37-.08.49-.11-.35.16-.31.33-.13.4l-.42.09c0,.26.33.4.42.64a2.33,2.33,0,0,1,1-.34l-.61.25c.4-.09.21-.15.71-.23a2.38,2.38,0,0,1-.9.34l.25,0a5.32,5.32,0,0,1-.52.17c.39-.1-.54.44.15.24l-.18.08c.1.26.35.27.48.46.51-.26.44-.12.88-.27-.09.23-.36.64-.2.81.32,0,.42-.23.73-.37-.42.3-.25.46-.62.59.23.16.29.23.81.19a1.32,1.32,0,0,1,.32-.37c.09,0-.09.24-.27.41l-.05,0c.4-.14.25.27.19.68s-.08.8.35.44l0,0c.19-.09.37-.19.55-.29.06.15-.27.28-.36.62.71-.57.4.41.9,0-.21.74,0,.82.23.8s.46-.12.5.4l.07-.36c.15-.32,0,.23.08.32.05-.27,0-.33.08-.51.34-.13.62,0,.94.29a3.45,3.45,0,0,0,1.08.66c.29.06-.11-1.86.3-1.07l0,.68a.76.76,0,0,1,.65-.57c.23-.07.49-.13.56-.55,0,.15.12.34.08.36.28.4.35-.17.16-.52.09,0,.18.31.31.47s-.07-.68.21-.29a.41.41,0,0,1,.06.2c-.06-.25.29-.14-.06-.58.3.12.14-.4.43-.23-.31-.55.42,0-.12-.67.57.72.72.33.48-.06.17.23.27.13.51.44.09-.12,0-.33-.32-.63.48.29.41,0,.32-.17s-.14-.35.46,0c-.15-.62-.3-1.08-.35-1.44.82.41-.08.35.76.8-.15-.49-.81-1-.5-1.13.14,0,.35.18.49.26-.24-.4.27-.52-.14-.9a.7.7,0,0,1,.23.11c0-.06.16-.08-.25-.18l.1.08a10.13,10.13,0,0,1-1.49-.55c1.14.33.33-.14,1.78.27a1.32,1.32,0,0,0-.53-.17,1,1,0,0,1,.56.09c-.19-.22-.64-.23-.61-.38.2,0,.27.07.51.12-.38-.14-.76-.26-.58-.37s.28,0,.27.06c0-.26-1-.42-.64-.64.87,0,.28-.09,1-.14L97,61.27l-.36.08c0-.12-.55-.15-.32-.27l.32.05L96.52,61l-.27.14c-.4-.05-1,.12-.76,0s0-.09.43-.21h0c-.24,0-.5,0-.33-.1s.83-.15,1-.19c-.63.07-.21-.21-.89-.11.16,0,.55-.11.62-.13l-.51.08a1.74,1.74,0,0,1,.54-.18c0-.16-.92.28-.56,0l.19,0c.17-.22-.39-.2-.2-.41.7-.3.22.06.81-.2-.21-.19-1-.11-.94-.36l-.06.07c-1,.42.43-.37-.08-.24.08,0,.55-.24.44-.19.08-.21-.38-.16-.77-.16l.25-.12c.17-.19,0-.26.07-.4a1.83,1.83,0,0,0-.56.3c.59-.54.33-.54.06-.5s-.56.12-.11-.38c0,0,.23-.09.22-.11h-.33a5,5,0,0,0-.46.45c-.24.16-.43.25-.46.22a2.93,2.93,0,0,0,.76-.67l-.35.28c.57-.61-.73.59-.39.13l.19-.15c-.13,0-.4.22-.38.14.39-.38.22-.13.56-.42-.08,0-.86.57-.51.16.13-.08.17-.05.3-.13.42-.48.29-.38.33-.49h0l.11-.29-.1.14c-1.09.91-.32,0-1.07.6.7-.54.37-.35.81-.78a1.72,1.72,0,0,1,.32-.43c-.39.31.19-.36-.38.1.13-.15,0-.07.31-.42-.17.05-.22.27-.39.44-.55.41.31-.82-.44-.24-.37.18-.81.68-1.12.86a2.35,2.35,0,0,1,.48-.54c.12-.27,0-.27-.16-.13a2.92,2.92,0,0,0,.32-.45c-.08,0-.47.55-.36.27s.37-.43.53-.59c-.17.1-.44.35-.61.45a3.56,3.56,0,0,1,.5-.55,1.38,1.38,0,0,0-.69.55l-.07.18a2.44,2.44,0,0,1,.33-.45c.31-.31,0,.21-.14.37l-.12.07c-.64,1,.27,0,.31.09l-.54.64.5-.49a2.92,2.92,0,0,1-.51.64c-.2.36.23-.2,0,.2a.65.65,0,0,1-.09.11l.2-.16c-.12.13-.36.47-.31.35-.23.45.54-.37.16.15l0,0c.3-.12.41-.47,1-.94l-.94,1.21.42-.46s0,.09-.18.27c.33-.28.17-.21.47-.48-.32.46.34-.05-.32.68.34-.32.19-.31.48-.49-.71.78.2-.07-.09.34s-.24.12-.53.52c.67-.64,0,.23.11.14.52-.51.3-.12.54-.22-.18.16-.17.4-.32.64l-.1.08c.58-.47.53-.31.69-.36a5.3,5.3,0,0,1-.66.48l0,0A1.26,1.26,0,0,1,93,59l-.45.33c.07,0,.61-.28.38,0a9.24,9.24,0,0,1,1.46-1,5.71,5.71,0,0,1-.72.5s.21-.11.13,0l-.41.24c-.14.16.33-.21.32-.15-.33.23-.22.18-.48.36,0,0,.12-.12,0,0a1.7,1.7,0,0,1-.44.44,2.34,2.34,0,0,1,.5-.31c.07,0-.38.29-.53.44.24-.14,0,.05.53-.27a2.4,2.4,0,0,1-.36.27c.24-.11.16.11.68-.26l0,0h0c.59-.18-.16.42.13.41l-.18.08c.24,0,.19.1.61,0a2.33,2.33,0,0,1-.54.28c.16,0,.38-.08.1.12s-.28.13-.26,0c-.13.13-.43.25.11.13-.49.15-.59.26-.44.24l.33-.16c.09,0,0,0,0,.09l-.64.2c-.76.32,1.4-.16.1.27.46-.07.31-.14.85-.24a6.12,6.12,0,0,1-1,.35c-.36.13,1-.11.74,0a4.64,4.64,0,0,1,1.11-.1,3.85,3.85,0,0,1-1.19.19s0,0,.13,0a1.4,1.4,0,0,0-.45,0l.24,0a1.91,1.91,0,0,1-.6.15,1.45,1.45,0,0,0,.52-.07c-.35.1,0,.12-.24.18a2.78,2.78,0,0,1,.42,0c-.3.1.45,0,.56.11-.37,0-.88,0-.57,0a5.45,5.45,0,0,1-.83,0c.46.06-.32,0-.4,0l-.19,0c.11,0,.11,0,.11,0l.48,0a1.59,1.59,0,0,1-.29,0c.31.05.8.08,1.22.17-.24,0,.25.12-.38,0,.22,0-.63-.1-.73-.16.07,0,.07,0,0,0l-.17,0c-.57-.07.71.14.68.2a4,4,0,0,0-.6-.11,1.69,1.69,0,0,1,.33.06c.18.05.39.1.52.15-.28,0,.2.1.16.12h.13c.35.1.29.12.39.19-.27-.07-.18-.09-.3-.11.59.23-.66-.1-.26.08-.24-.06-.64-.22-.8-.26.42.21-.48-.14-.14,0a3.77,3.77,0,0,1,.76.35L93,62.31l.62.32s-.25-.18-.16-.16a2.6,2.6,0,0,0,.62.25c-.69-.22.34.27-.13.14l-1.09-.5c-.49-.2.51.35.21.29l.19.08c.4.25,0,.08.18.21-.34-.22-.47-.29-.68-.42.25.17,0,0,.6.5l-.44-.29c-.2-.1.85.79.68.78-.31-.31-.54-.49-.75-.72,0,0-.08,0,.13.16-.19-.17.35.42.06.17.12.14.41.44.37.45l-.14-.15a5.29,5.29,0,0,0,.48.55c-.47-.43-.49-.38-.5-.3s0,.19-.37-.25a.68.68,0,0,1,0,.36l-.08-.15c-.23-.3.54,1.08.25.76-.35-.58-.13-.36-.27-.57-.61-1.24,0,.22-.37-.49l0-.08c-.2-.43.13.52,0,.46l-.07-.2a2.33,2.33,0,0,1,.11,1.18,4.93,4.93,0,0,0-.18-.83,6.7,6.7,0,0,1,.18,1,7.29,7.29,0,0,1-.3-1.13l0,0c-.17-.76-.05,0-.1-.09l0-.34c0,.12.06,1,0,.94l0,.25c0,.86-.08-.47-.11.16l0-.86a3.94,3.94,0,0,1-.21,1c.08-.64.15-1,.18-1.36,0,0-.08.07-.12.5,0-.08,0-.29.05-.16-.05.68-.15,1-.23,1,.18-1.66-.15-.45,0-1.74-.21.59-.06-.3-.12-.22a12.81,12.81,0,0,1-.52,1.25c-.06.06-.07,0,0,0a6.75,6.75,0,0,1,.25-.76c.15-.35.14-.25.26-.52a7.74,7.74,0,0,1,.38-.82c-.21.42-.31.59-.23.43-.1.18-.18.36-.27.54-.38.58.5-1,.14-.4l.22-.34c-.14.2,0,0-.65.79.09-.12.3-.4.37-.47s-.82.71-.42.22l.23-.21c-.07.06-.44.37-.22.15l.25-.21c-.08.07-.43.32-.3.2l.27-.21c.3-.26-.71.43-1,.45.76-.47,1-.65,1.13-.72l.11-.06c.06-.12-.75.14-1.14.13.88-.43.28-.41.77-.7a4.52,4.52,0,0,1-.77.19c.17-.08-.62.06.17-.14v0c.77-.23.55-.23.56-.29l-1,.24c.73-.25.59-.3.41-.35s-.37-.12.31-.25a4.9,4.9,0,0,1-.54,0l.57-.06c.14-.09.21-.12.07-.2h.41s-1.66,0-1.69-.06l.85,0c0-.12.74-.16,0-.31a2.5,2.5,0,0,1,.4,0s.59-.11-.58-.23c.76.09.09-.09-.23-.21l.55.09a3.28,3.28,0,0,1-1.08-.31c.08,0,.45.06.3.06.3,0-.52-.14-.21-.17l.35.1c.06-.05-.13-.08-.54-.21-.21-.09.18-.1.67,0-.3-.09-.69-.23-.54-.23a2.34,2.34,0,0,1,.36.11c.39,0-.59-.34,0-.25l.33.09c0,.07-.09.12-.13.1a12.33,12.33,0,0,1,1.29.36c-.37-.14-1.16-.48-.91-.46l.18.05,0,0s0,0-.07-.06a.49.49,0,0,0,.16,0c.41.14.24,0,.27,0-.53-.2-.43-.21-.88-.35a.12.12,0,0,1,.08.06l0,0h0a.19.19,0,0,1,0,.08c-.27-.12-.48-.23-.17-.16l-.84-.38c.76.24,1.19.34,1.64.53a3.89,3.89,0,0,0-1-.82c-.11-.09.29.12.44.19a.83.83,0,0,0,.19.16c-.22-.19,0-.19-.65-.59.33.12.57.4.51.25l.19.14c.55.26.16-.05-.13-.37s-.52-.67.11-.23a1.3,1.3,0,0,1-.21-.16c.33.16.27,0,.3-.18s.09-.28.44.15c.14.17-.07-.25-.19-.6l.27.55c-.08-.22-.15-.44-.22-.67s.15.08.29.36.24.53.16.06l-.13-.39c.07.07.1-.25.19.2,0-.07-.07-.41,0-.21l.07.31a4.69,4.69,0,0,1,0-.53c.12.23.18,1.22.27,1.28,0-.12,0-.89,0-1.09a1.39,1.39,0,0,1-.09-.5l0-.16a7.81,7.81,0,0,0-.31-2.55c0,.19-.08.38-.11.58l-.11-.46.14,0c-.13-.43-.15,0-.17.22a1.41,1.41,0,0,0-.15-.5c0,.3,0,.6,0,.9-.09-.37-.06-.73-.22-.92,0,.42.23.8.17,1.09-.16-.41-.22-.75-.23-.38a1.14,1.14,0,0,1-.07-.5c0,.3-.21.17-.12.66-.23-.5-.22.18-.5-.66a2.08,2.08,0,0,1,0,.77c-.25-1-.29,0-.71-1,.28.9-.21.57-.13,1.12,0-.07-.08-.21,0-.18-.14,0-.31-.25-.48-.37a8.34,8.34,0,0,1,.57,1.39c-.54-.55-.46-.82-.91-1.4.36.53.16.68.52,1.08a4.19,4.19,0,0,1-.66-.61c.6.78,0,.19.34.72-.43-.28-.64-.68-.57-.34A1,1,0,0,1,87.52,54.18ZM87.06,58h0V58Zm-.07.23a.15.15,0,0,0,.06-.09c.19.05.38.12.36.14A1.67,1.67,0,0,0,87,58.25Zm3.86.91c.07,0,0,0-.15,0s0,0,0-.05l-.06,0Z"/><path class="cls-3" d="M90.17,58.86l0,0-.12,0,.16.08Z"/><path class="cls-3" d="M93.63,59.53h0l.07,0Z"/><polygon class="cls-3" points="85.66 61.67 85.81 61.65 85.68 61.65 85.66 61.67"/><path class="cls-3" d="M94.6,57.53l.1-.11A.55.55,0,0,0,94.6,57.53Z"/><path class="cls-3" d="M94.35,57.05l.09-.19A.7.7,0,0,0,94.35,57.05Z"/><path class="cls-3" d="M94.27,56.56l-.18.17h0Z"/><path class="cls-3" d="M97.12,63.21l0,0C97.23,63.32,97.2,63.27,97.12,63.21Z"/><path class="cls-3" d="M95.92,60.86l.28,0S96.24,60.81,95.92,60.86Z"/><polygon class="cls-3" points="96.18 66.31 96.17 66.3 96.16 66.31 96.18 66.31"/><path class="cls-3" d="M96.2,61c.11,0,.09-.08,0-.1S96.11,61,96.2,61Z"/><path class="cls-3" d="M93.08,55.22v0l0,.07Z"/><path class="cls-3" d="M93,55.26l-.06,0S93,55.31,93,55.26Z"/><path class="cls-3" d="M92.84,55.4l.12-.1S92.94,55.27,92.84,55.4Z"/><path class="cls-3" d="M93.35,55.76l.13-.16Z"/><path class="cls-3" d="M93.51,55.81c0-.06.2-.4.08-.34l-.11.13C93.69,55.37,93.26,56.06,93.51,55.81Z"/><path class="cls-3" d="M92.3,58.14l0-.2c-.13.18-.31.41-.38.42C91.6,58.93,92.26,58,92.3,58.14Z"/><path class="cls-3" d="M92.31,58.59c-.11,0-.23.22-.32.31A1,1,0,0,0,92.31,58.59Z"/><path class="cls-3" d="M93.54,60.34l-.48.2A3,3,0,0,0,93.54,60.34Z"/><polygon class="cls-3" points="96.22 59.88 96.51 59.73 96.05 59.85 96.22 59.88"/><polygon class="cls-3" points="92.75 61.16 92.67 61.17 92.87 61.16 92.75 61.16"/><path class="cls-3" d="M92.5,62.87l.39.52C92.84,63.28,92.39,62.69,92.5,62.87Z"/><path class="cls-3" d="M92,63.86c0-.35-.07-.57-.07-.23C91.91,63.68,92,64,92,63.86Z"/><polygon class="cls-3" points="90.79 61.27 91 61.25 90.82 61.24 90.79 61.27"/><path class="cls-3" d="M84,108c.17,0,.57.06.49,0l-.66-.1Z"/><path class="cls-3" d="M85.24,107.69a5.48,5.48,0,0,0-1.49-.24c.63.13.36.12,1.12.26.07.07-.22.09-.47.06.17,0-.15.08.26.15s.56-.13.14-.27A2,2,0,0,1,85.24,107.69Z"/><path class="cls-3" d="M86.84,102l-.09,0A.16.16,0,0,0,86.84,102Z"/><path class="cls-3" d="M87.57,98.41s.08,0,.14.06A.22.22,0,0,0,87.57,98.41Z"/><path class="cls-3" d="M88.37,97.88l-.05,0C88.38,97.9,88.42,97.89,88.37,97.88Z"/><path class="cls-3" d="M86.84,102l.22-.07C86.84,101.87,86.89,101.93,86.84,102Z"/><path class="cls-3" d="M83.71,106.74a.57.57,0,0,0,.17.07l-.07-.06Z"/><path class="cls-3" d="M87.22,103.61v0l.27,0Z"/><path class="cls-3" d="M87.21,104.84a4.93,4.93,0,0,0-.79-.12,1,1,0,0,1,.38.09Z"/><path class="cls-3" d="M86,106.68l.07,0Z"/><path class="cls-3" d="M87.43,102.75h0Z"/><path class="cls-3" d="M87.49,68.18h.1C87.53,68.18,87.49,68.17,87.49,68.18Z"/><polygon class="cls-3" points="90.49 67.2 90.52 67.23 90.83 67.28 90.49 67.2"/><path class="cls-3" d="M89.22,96.83h0C89.27,96.87,89.26,96.85,89.22,96.83Z"/><path class="cls-3" d="M90,86.5c-.52.06-.62-.27-1.21-.16C89,86.35,89.65,86.61,90,86.5Z"/><path class="cls-3" d="M83.78,106.72v-.06S83.76,106.7,83.78,106.72Z"/><path class="cls-3" d="M88.79,86.34Z"/><path class="cls-3" d="M89.16,94.21h-.25A1,1,0,0,0,89.16,94.21Z"/><path class="cls-3" d="M88.14,96.05l.08,0A.14.14,0,0,0,88.14,96.05Z"/><path class="cls-3" d="M88.48,93.12s.12,0,0-.06h-.07C88.53,93.08,88.57,93.1,88.48,93.12Z"/><path class="cls-3" d="M88.59,92.08h-.11l0,0Z"/><path class="cls-3" d="M87.27,71.39l.52,0C87.38,71.37,87.26,71.19,87.27,71.39Z"/><path class="cls-3" d="M84,106.77a1.39,1.39,0,0,1-.25,0l0,0Z"/><path class="cls-3" d="M84,92.57l.1-.16A.2.2,0,0,0,84,92.57Z"/><path class="cls-3" d="M86.28,78.88l-.06,0S86.22,78.87,86.28,78.88Z"/><path class="cls-3" d="M84.09,91.91a2,2,0,0,0,.4,0l-.14,0Z"/><path class="cls-3" d="M87.79,71.41Z"/><path class="cls-3" d="M86.62,70.12c0,.16.71.18,1.13.28.18.22-.56,0-.94,0,.18.15.84.34.8.43a1,1,0,0,1-.32,0c.57.22,0,.38.69.63h-.19l1,.13c0,.08.45.2,0,.16,0,0-.17-.08-.32-.12l.2.11c-.71,0-.23-.14-.74-.22.2.18.75.44.54.52-.68-.08-.19-.3-.82-.24l.29-.13c-1.09,0,.09-.09-1.08-.15-.23.2.31.31.08.5.37.11.56.07.93.18.64.42-1.75,0-.87.37.44.12,1.3.27.82.37L87,72.72c-.11.21,1.09.29.54.44-.3-.08-.23-.21-.33-.19-.63.06.42.17.4.29L87,73.18c.07.25.53.58.61.85a1.83,1.83,0,0,0-.62-.09c.29.38-.19.69-.63.94l.57.21a.84.84,0,0,1-.39,0c-.24.09.38.06.6.15,0,.08-.35,0-.52,0,.47.29,1,.77.32.9L86.74,76c-.26.15,1.18.37.61.46l-.1,0c-.31.35.17.85-.76,1,.84.17-.43.33.75.52-.62.14-.82,0-1.26.3-.06.07.73.22.84.34l-.62-.08.63.23-.75,0,.14.12a.94.94,0,0,1,.47,0c.26.19-.48.31-.8.27l.47.42a1.4,1.4,0,0,1-.47-.18c.6.28-.66,0-.11.2a3.73,3.73,0,0,1,.5.08c-.39,0-.42.24-.28.4l-.42-.08c-.15.25.13.58.08.87a1.85,1.85,0,0,1,1,.14l-.66,0c.4.11.26-.06.74.12-.09.1-.76,0-1-.11l.21.16c-.2,0-.3-.06-.54-.1.4.1-.69.14,0,.31l-.19,0c0,.3.16.46.16.71.57.07.43.15.87.28-.2.16-.67.29-.65.51.26.19.48.11.8.22-.51-.06-.49.16-.85,0,.05.27.06.34.44.72a1.27,1.27,0,0,1,.48,0c.08.07-.23.1-.48.06l-.05,0c.73.46-1.61.64-.57,1.07l0,0,.52.37c-.1.12-.38-.14-.71-.07.82.43-.19.49.35.83-1.54,0,0,.74-1,.9l.35,0c.35.11-.21.06-.3.1.28,0,.33,0,.52,0,.36.66-.67,1.19-1.07,1.78-.13.22,1.83.35.94.54l-.65-.16c.74.55-.14.93.48,1.46-.15,0-.35-.06-.34-.11-.49,0-.06.35.33.4,0,.06-.36,0-.56,0s.58.32.1.31a.3.3,0,0,1-.19-.07c.23.09-.09.29.47.29-.29.14.21.35-.14.45.62.16-.33.26.55.39-.91-.12-.77.21-.35.36-.28-.06-.3.06-.68,0,0,.12.16.25.63.29-1.12.1.83.55-.58.52A4.07,4.07,0,0,1,85,94.54c-.9-.12,0-.37-1-.47.34.36,1.1.62.84.9-.13.07-.38-.09-.54-.13.34.35-.14.59.32.92a.7.7,0,0,1-.24-.09c0,.06-.15.12.27.15l-.11-.06a6.3,6.3,0,0,1,1.54.39c-1.17-.22-.32.24-1.8-.06a1.41,1.41,0,0,0,.54.13.89.89,0,0,1-.56,0c.21.22.65.2.62.38-.2,0-.27-.07-.5-.11.38.13.76.26.57.39s-.28,0-.27-.07c0,.27,1,.55.59.79-.86-.18-.3.06-1,0l.21.17.37,0c0,.13.51.31.25.39l-.3-.13.11.27.3-.11c.38.17,1,.08.73.24-.07,0,0,.13-.47.15h0c.24.09.48.18.29.26s-.83-.11-1-.11c.63.13.15.33.81.48a4.73,4.73,0,0,0-.63-.09l.5.11a1,1,0,0,1-.56,0c-.11.18,1,0,.53.22a1.85,1.85,0,0,1-.2-.06c-.23.19.28.45,0,.63-.76,0-.16-.2-.81-.2.11.31.85.7.64,1l.09,0c1.06.14-.55.15-.06.35a2.19,2.19,0,0,0-.47-.09c-.19.18.22.42.53.75l-.27-.07c-.26.09-.17.29-.31.4.27.06.22.13.62.12-1.6.23.77.81-.57,1,0,0-.23-.11-.23-.08l.22.31a2.58,2.58,0,0,0,.66,0c.27.07.48.17.47.24a1.84,1.84,0,0,0-1,0c.14,0,.3,0,.44,0-.84.07.94.12.36.27l-.24,0c.11.08.43.18.35.26-.54,0-.24-.11-.68-.15,0,.12,1,.32.45.38-.15-.07-.14-.14-.29-.2-.64.05-.48.08-.59.15h0l-.3.17.17,0c1.4.28.23.32,1.14.6-.86-.27-.51-.08-1.12-.15a1.43,1.43,0,0,1-.54.06c.49.13-.4.11.31.31-.2,0,0,.1-.52,0,.14.13.34,0,.59,0,.65.24-.86.35,0,.71.36.26,1,.36,1.33.61a1.63,1.63,0,0,1-.71-.13c-.3.09-.26.18,0,.31a1.6,1.6,0,0,0-.54,0c0,.09.71.12.41.21s-.57-.1-.78-.16c.17.12.53.25.69.38a2.45,2.45,0,0,1-.73-.17,1.2,1.2,0,0,0,.82.42l.2-.06c0,.05-.47,0-.56-.06-.42-.14.2-.13.4-.12l.12.09c1.16,0-.16-.32-.08-.47l.83.14-.68-.22a2,2,0,0,1,.81.1c.43-.08-.29-.13.18-.18a.28.28,0,0,1,.15,0l-.24-.13c.17,0,.59,0,.47.09.5-.15-.61-.37,0-.38l0,0c-.26-.29-.62-.08-1.32-.35h1.53l-.61-.09s.07-.07.32,0c-.41-.14-.27,0-.66-.1.57-.08-.23-.39.75-.33-.46-.09-.37.09-.68-.08,1.06.06-.17-.18.33-.25.54.08.24.17.74.1-.92-.16.22-.22,0-.34-.73-.07-.28-.25-.51-.44.25,0,.44-.28.72-.42l.12,0c-.74-.1-.58-.25-.73-.39a2.64,2.64,0,0,1,.81.17v-.11a.79.79,0,0,1-.43-.18l.55.09c0-.16-.63-.37-.24-.52-.51-.07-1.45,0-1.78-.23a4,4,0,0,1,.87.12s-.23-.08-.1-.1l.46.12c.21-.06-.39-.08-.34-.15.4,0,.29,0,.61,0,0,0-.17,0,0,.09a1.11,1.11,0,0,1,.63-.15,1.32,1.32,0,0,1-.58-.11c0-.16.48,0,.69-.07-.27-.07,0-.13-.57-.2,0,0,.29,0,.45,0-.25-.1,0-.37-.68-.34h-.07c-.56-.32.39-.49.16-.77l.2,0c-.21-.17-.1-.35-.52-.5a1.21,1.21,0,0,1,.61,0c-.14-.13-.36-.17,0-.3.33.15.31,0,.24.14.18-.13.51-.13,0-.34.5.1.65,0,.51-.14l-.38.07c-.06-.09,0-.15,0-.22l.67.11c.84-.22-1.33-.69.06-.78-.47-.13-.35.13-.89,0,.1-.13,1.08-.18,1.09-.22.39-.15-1-.28-.69-.45a2.42,2.42,0,0,1-1.09-.22,2.06,2.06,0,0,1,1.2,0s-.06,0-.14,0a.57.57,0,0,0,.44.09l-.23,0c.25,0,.24-.24.63-.15a.49.49,0,0,0-.52,0c.36-.15,0-.28.29-.44-.13,0-.42,0-.41,0,.32-.24-.44-.17-.53-.36.38-.07.87.13.58-.09a1.42,1.42,0,0,1,.83.11c-.44-.22.34-.28.43-.37l.19.11c-.11-.06-.11-.11-.1-.15h-.48a.35.35,0,0,1,.29-.07,9.69,9.69,0,0,1-1.22-.19c.26,0-.23-.24.4-.2-.23.2.64,0,.73.24-.08,0-.07-.08,0-.13a.39.39,0,0,1,.17,0c.59-.14-.71-.17-.67-.39.35.07.68,0,.61,0s-.6,0-.87-.13c.3-.11-.19-.17-.15-.24l-.14.07c-.35-.07-.3-.13-.4-.24.28,0,.18.11.31.08-.62-.17.68-.17.27-.36.25,0,.67.06.84,0-.44-.22.51-.13.15-.34a1.49,1.49,0,0,1-.83-.16l.31.33L88,95.18c0,.09.28.22.2.26a1.21,1.21,0,0,0-.67-.11c.73,0-.39-.28.11-.37l1.19.14c.55-.15-.57-.44-.24-.67l-.22.06c-.47-.09,0-.17-.23-.28a3.5,3.5,0,0,0,.8,0c-.29,0,0-.19-.74-.31l.54-.06c.24-.19-1.11-.38-.95-.57.43.11.72,0,1,.22,0-.07.09-.12-.18-.15.25,0-.52-.26-.13-.28-.17,0-.59-.11-.55-.18l.2,0c-.2,0-.25-.15-.7-.13,1.26-.08,0-.62,1.07-.68a1.23,1.23,0,0,1-.24-.51c.12,0,.2,0,.16,0,.39-.14-1.13-.25-.69-.42.65,0,.33.16.58.12,1.31.12-.15-.29.63-.34L89,91c.45-.06-.47-.33-.35-.5l.2,0a1.71,1.71,0,0,1-1-.66,2.56,2.56,0,0,0,.78.14c-.06-.09-.84-.08-1-.25a4.23,4.23,0,0,1,1.1,0v.15c.73,0,0-.2.13-.26l.32,0c-.08-.24-.87-.34-.78-.58H88.2c-.77-.23.45-.06-.11-.26l.79.05a4.19,4.19,0,0,1-.86-.58,6.37,6.37,0,0,1,1.2.54c0-.08,0-.3-.41-.39.07,0,.26.11.13.13-.61-.19-.9-.36-.86-.54,1.53.22.44-.4,1.65-.38-.53-.38.32-.58.27-1-1.21,0,0-.11-1.25-.24-.07-.1,0-.13,0-.12l.76-.16c.37,0,.26.11.54.14.12-.17.53,0,.87-.09-.44,0-.62-.15-.44-.23l-.58.08c-.62-.34,1.06-.1.44-.43l.38.13c-.21-.17.07-.49-.9-.75a1.38,1.38,0,0,1,.56.08c.19-.29-1-.84-.32-1l.3.06c-.08-.07-.55-.18-.24-.21a1.2,1.2,0,0,0,.32,0c-.1,0-.51-.23-.32-.28l.33.11c.43-.26-.77-.58-.94-.87a1.77,1.77,0,0,0,1.36-.19l.13,0c.16-.34-.65-.7-1-1.08,1-.08.5-.64,1.08-.9a1.79,1.79,0,0,1-.77-.17c.19-.06-.58-.3.23-.18l0,0c.8.05.61-.14.65-.26l-1.06-.17c1.59-.11-.45-.93,1-.92-.26-.11-.24-.21-.49-.33l.56.09c.18-.2.27-.3.17-.59l.4.11c0-.14-1.62-.41-1.63-.56l.85.08c0-.27.81-.43.08-.8.12,0,.37.06.39.11,0-.12.65-.4-.52-.52.75.1.11-.26-.2-.46l.55.11c-.7-.23-.89-.26-1.06-.45.07,0,.45,0,.3.06.31-.09-.52-.18-.2-.3l.35.11c.06-.13-.13-.15-.53-.28-.22-.12.17-.24.68-.19-.3-.06-.7-.2-.55-.26a1.36,1.36,0,0,1,.37.09c.41-.18-.6-.44,0-.51l.33,0c0,.18-.09.32-.13.3a4.56,4.56,0,0,1,1.32.16c-.37-.17-1.18-.5-.92-.61h.18l.06,0c.06,0,0-.06-.07-.1.09,0,.16,0,.17-.09.43,0,.26-.14.29-.21-.57-.08-.46-.16-.94-.14,0,0,.06,0,.08.08s0,0,0,0h0s0,.11,0,.18c-.28-.09-.51-.19-.19-.23L90,73.84c.8,0,1.25-.12,1.74-.07-.28-.27-.13-.56-1.17-.86-.13-.08.31,0,.48,0s.08.1.23.14c-.25-.17,0-.39-.78-.53.35-.11.66.19.58,0l.22.06c1.24-.25-1.78-1-.2-1.24a.71.71,0,0,1-.26,0c.75-.44-.46-1.22.68-1.6.24-.12-.23-.21-.57-.36l.61.06-.68-.27c-.47-.31,1.55-.16.63-.6l-.42,0c.1-.09-.19-.36.28-.27-.07,0-.42-.1-.2-.11l.32.05-.51-.34c.26-.16,1.25.23,1.36,0a2.72,2.72,0,0,0-1.09-.44s-.22.08-.53,0l-.15-.12A7.74,7.74,0,0,0,88,67l.54.25H88v-.15c-.43,0-.07.12.18.22a3.05,3.05,0,0,0-.51,0l.87.31c-.37,0-.71-.19-.93-.11.4.14.83,0,1.08.22-.44,0-.78-.06-.43.09a1.32,1.32,0,0,1-.49-.12c.27.13.09.24.57.36-.53,0,.1.31-.78.16a2,2,0,0,1,.69.34c-1-.3-.11.28-1.23.07.93.25.36.44.86.7-.08,0-.23-.06-.17-.07-.1.09-.39.08-.58.12a5.67,5.67,0,0,1,1.41.48,10.58,10.58,0,0,1-1.64-.29c.63.09.6.32,1.13.36a3.71,3.71,0,0,1-.89,0c1,.16.15.11.74.29-.51.06-.93-.11-.65.09A1.26,1.26,0,0,1,86.62,70.12Zm1.15,3.94h0a.45.45,0,0,1,0-.08Zm0,.31a.4.4,0,0,0,0-.13c.19,0,.39.06.38.09S87.91,74.35,87.74,74.37Zm4-.09c.07.07,0,.07-.16.06a.31.31,0,0,0,0-.1l-.07,0Z"/><path class="cls-3" d="M91,74.09l0,0h-.13l.18.05Z"/><path class="cls-3" d="M86.74,102h0Z"/><polygon class="cls-3" points="86.05 78.5 86.2 78.52 86.08 78.47 86.05 78.5"/><path class="cls-3" d="M84.63,103.53h0Z"/><path class="cls-3" d="M84.43,104.25l-.21.09A.53.53,0,0,0,84.43,104.25Z"/><path class="cls-3" d="M84.09,104.8l.24,0h0Z"/><path class="cls-3" d="M84.35,95.67l0,0C84.22,95.59,84.26,95.62,84.35,95.67Z"/><path class="cls-3" d="M85.38,98.51a1.47,1.47,0,0,1-.25-.12S85.06,98.47,85.38,98.51Z"/><path class="cls-3" d="M84,92.59h0s0,0,0,0Z"/><path class="cls-3" d="M85.15,98.27c-.12,0-.1.08,0,.12S85.23,98.32,85.15,98.27Z"/><path class="cls-3" d="M83.61,107.24l0,0h.09Z"/><path class="cls-3" d="M83.67,107.28l.07,0S83.73,107.29,83.67,107.28Z"/><path class="cls-3" d="M83.87,107.39l-.13-.07S83.71,107.37,83.87,107.39Z"/><path class="cls-3" d="M83.94,106.51l-.21,0Z"/><path class="cls-3" d="M83.9,106.28c-.05,0-.45.1-.33.18l.16,0C83.43,106.42,84.24,106.36,83.9,106.28Z"/><path class="cls-3" d="M86.53,105.56l-.18.18c.22,0,.52,0,.56.06C87.59,105.62,86.42,105.8,86.53,105.56Z"/><path class="cls-3" d="M86.9,105c.1.11.32,0,.45,0A.51.51,0,0,0,86.9,105Z"/><path class="cls-3" d="M87.33,100.71l.51.07C87.77,100.69,87.64,100.76,87.33,100.71Z"/><polygon class="cls-3" points="84.75 99.62 84.42 99.67 84.89 99.75 84.75 99.62"/><polygon class="cls-3" points="88.47 99.52 88.54 99.56 88.36 99.41 88.47 99.52"/><path class="cls-3" d="M89.07,92.32l-.64,0C88.54,92.34,89.25,92.44,89.07,92.32Z"/><path class="cls-3" d="M88.79,89.15c.32,0,.54-.06.23-.15C89,89.07,88.71,89.11,88.79,89.15Z"/><polygon class="cls-3" points="91.01 80.02 91.22 80.11 91.06 79.97 91.01 80.02"/><path class="cls-3" d="M73.46,56.13c-.11.13-.33.46-.24.43l.42-.53Z"/><path class="cls-3" d="M73,57.36a6.82,6.82,0,0,0,1-1.16c-.44.48-.29.25-.8.83-.09,0,0-.23.2-.43-.12.13,0-.17-.26.16s-.18.53.15.24A2.6,2.6,0,0,1,73,57.36Z"/><path class="cls-3" d="M75.87,61.66l0-.07A.18.18,0,0,0,75.87,61.66Z"/><path class="cls-3" d="M76.22,64.12a.32.32,0,0,0-.14,0A.32.32,0,0,0,76.22,64.12Z"/><path class="cls-3" d="M75.44,64.3h0C75.43,64.29,75.39,64.28,75.44,64.3Z"/><path class="cls-3" d="M75.87,61.66l-.14.18C75.92,61.73,75.85,61.72,75.87,61.66Z"/><path class="cls-3" d="M74.62,56.53a.63.63,0,0,0-.15.1l.08,0Z"/><path class="cls-3" d="M74.69,61l0,0-.22.17Z"/><path class="cls-3" d="M74,60.33s.4-.37.58-.54a1,1,0,0,1-.31.24Z"/><path class="cls-3" d="M73.38,58.49l-.07,0Z"/><path class="cls-3" d="M75,61.58l-.16.12Z"/><path class="cls-3" d="M72.39,54.85l0,.1C72.38,54.9,72.4,54.86,72.39,54.85Z"/><polygon class="cls-3" points="72.34 58.12 72.31 58.13 72.09 58.36 72.34 58.12"/><path class="cls-3" d="M74.63,64.38h0S74.59,64.36,74.63,64.38Z"/><path class="cls-3" d="M69.65,65.21c-.16.5-.42.53-.56,1.09A5,5,0,0,0,69.65,65.21Z"/><path class="cls-3" d="M74.6,56.6s0,0,0,0S74.62,56.59,74.6,56.6Z"/><path class="cls-3" d="M69.09,66.3h0v0Z"/><path class="cls-3" d="M74.17,65.24c0,.08.1.15.13.21S74.24,65.34,74.17,65.24Z"/><path class="cls-3" d="M75.43,65.24l-.07,0Z"/><path class="cls-3" d="M74,66.21s-.06-.1-.06,0l0,.06C73.92,66.17,73.92,66.14,74,66.21Z"/><path class="cls-3" d="M73.28,66.41a.76.76,0,0,1,0,.11l0,0Z"/><path class="cls-3" d="M68,54.84a3.41,3.41,0,0,1,.18.48C68,54.93,68.18,54.74,68,54.84Z"/><path class="cls-3" d="M74.42,56.78a1.36,1.36,0,0,1,.18-.18h0A1.55,1.55,0,0,0,74.42,56.78Z"/><path class="cls-3" d="M75.47,70.45h-.24A.33.33,0,0,0,75.47,70.45Z"/><path class="cls-3" d="M62.77,62.53l-.07-.05S62.7,62.52,62.77,62.53Z"/><path class="cls-3" d="M74.65,70.7a1.66,1.66,0,0,0-.22-.35c0,.05,0,.08,0,.15Z"/><path class="cls-3" d="M68.13,55.33h0Z"/><path class="cls-3" d="M69.45,53.78c-.24,0-.08.74-.1,1.17-.23.23-.16-.54-.28-.92-.16.21-.2.91-.31.9a.77.77,0,0,1-.05-.32c-.07.61-.5.11-.51.89,0-.06,0-.12-.07-.17a9.49,9.49,0,0,1,.27,1c-.07,0,0,.49-.17,0,0,0,0-.19,0-.34l0,.23c-.26-.66,0-.27-.08-.77-.12.26-.13.87-.3.73-.25-.65.22-.32-.14-.85l.28.19c-.46-1,.16,0-.31-1-.38-.1-.24.45-.6.36.07.38.22.52.3.9-.08.78-1-1.45-.92-.48.13.44.52,1.23.12.92l-.31-.71c-.31.09.42,1-.1.75-.13-.29.05-.34,0-.4-.5-.41.11.45,0,.53l-.41-.55c-.22.27-.18.88-.33,1.19-.13-.16-.23-.36-.43-.45-.1.55-.73.64-1.33.79.13.16.26.32.4.47,0,0-.26-.08-.34-.18-.28,0,.32.21.47.4,0,.1-.35-.07-.47-.21.25.53.58,1.19-.12,1.21l-.14-.12c-.31.13,1,.67.46.66l-.09-.07c-.41.38,0,1-.92,1.19.84.18-.44.45.75.59-.61.21-.82.12-1.23.52-.06.11.75.16.88.27l-.63,0,.66.15-.74.13.17.11a.81.81,0,0,1,.45-.12c.29.15-.39.48-.71.53.2.13.39.26.59.37a1.33,1.33,0,0,1-.52-.06c.68.13-.64.15,0,.28A2.18,2.18,0,0,1,63,63.4c-.35.18-.3.44-.09.58l-.43.07c0,.38.41.66.53,1a1.55,1.55,0,0,1,.95-.37l-.59.29c.4-.09.19-.19.7-.26,0,.15-.65.38-.88.38l.27.07a4.38,4.38,0,0,1-.52.18c.4-.1-.47.57.22.36l-.17.1c.19.37.46.42.67.68.49-.3.45-.13.88-.31,0,.27-.25.73,0,.92.34,0,.41-.26.72-.42-.39.34-.18.51-.55.65.27.19.35.24.92.21a1.37,1.37,0,0,1,.29-.39c.11,0,0,.26-.22.44l0,0c.42-.14.34.29.32.71s0,.82.46.47l0,0c.21-.09.41-.18.6-.28.09.17-.29.28-.36.61.78-.54.48.44,1,.07-.24.74,0,.82.24.82s.54-.06.53.46l.11-.35c.2-.3,0,.23.06.33.08-.26,0-.33.13-.5.8-.18,1.27.92,2,1.35.28.13.36-1.83.6-.94l-.15.66c.6-.75,1.16.08,1.7-.64,0,.16,0,.36-.07.36.16.47.45,0,.4-.41.09,0,.06.35.14.55s.21-.66.34-.19a.31.31,0,0,1,0,.2c0-.24.37,0,.2-.54.26.22.33-.32.56,0-.05-.63.43.2.22-.66.24.89.58.59.55.14,0,.28.21.23.29.61.15-.07.22-.28,0-.71.71.91.14-1,.9.17A14.87,14.87,0,0,1,77,68.32c.54.75-.31.34.24,1.12.16-.56-.17-1.3.26-1.4.16,0,.23.33.3.48,0-.55.67-.54.52-1.16a.6.6,0,0,1,.14.21c0-.07.22-.06-.12-.3l.05.13c-.54-.29-.85-1-1.13-1.14.93.76.42-.1,1.59.86a1.08,1.08,0,0,0-.41-.38c.1,0,.26.05.49.28,0-.36-.49-.49-.38-.68a4.28,4.28,0,0,1,.43.3c-.29-.3-.6-.56-.37-.66.11.06.27.1.24.15.07-.36-.8-.86-.34-1,.83.32.3,0,1,.11l-.18-.25H79c0-.17-.48-.39-.21-.49l.29.16a1.73,1.73,0,0,0-.11-.32,2.09,2.09,0,0,1-.3.14c-.36-.19-.94-.09-.72-.25.07,0,0-.12.46-.18h0c-.24-.09-.49-.15-.3-.25s.83,0,1,0c-.62-.06-.2-.37-.88-.39a3.78,3.78,0,0,0,.64-.05h-.52a1.05,1.05,0,0,1,.55-.14c.06-.23-.94.2-.57-.1a1.56,1.56,0,0,1,.2,0c.19-.29-.42-.38-.22-.65.72-.28.23.14.83-.1-.22-.34-1.08-.38-1-.72l-.06.09c-1,.39.4-.42-.13-.35a1.73,1.73,0,0,0,.44-.17c.06-.26-.42-.29-.87-.35l.26-.11c.15-.23,0-.34,0-.52-.25.12-.25,0-.56.3.54-.6.25-.64,0-.64s-.61.06-.21-.48c0,0,.24-.08.22-.11l-.38-.06a3.32,3.32,0,0,0-.43.49c-.23.16-.44.24-.49.19a1.92,1.92,0,0,0,.73-.71c-.1.1-.23.19-.34.29.53-.66-.72.61-.43.1l.19-.16c-.14,0-.42.21-.42.1.37-.39.23-.11.57-.41-.11-.07-.9.55-.57.1.14-.07.18,0,.33-.09.38-.52.25-.42.27-.55v0l.06-.34-.08.15c-1.1.9-.39,0-1.16.52.73-.51.37-.34.8-.78a1.56,1.56,0,0,1,.29-.46c-.4.3.16-.39-.43.06.13-.15-.06-.08.29-.44-.19,0-.21.28-.38.45-.59.39.22-.9-.59-.36-.41.15-.87.64-1.22.77a1.71,1.71,0,0,1,.49-.52c.1-.3,0-.31-.22-.19a1.78,1.78,0,0,0,.31-.45c-.1,0-.49.53-.39.24s.38-.43.55-.58c-.19.08-.49.32-.68.4a2.72,2.72,0,0,1,.53-.54,1.24,1.24,0,0,0-.78.49l-.06.2s.27-.39.35-.45c.34-.29,0,.23-.12.39l-.13.06c-.64,1,.33,0,.41.17l-.57.63.55-.47a2,2,0,0,1-.52.63c-.18.39.25-.18,0,.24a.37.37,0,0,1-.1.11l.24-.14c-.13.13-.37.48-.34.35-.18.48.62-.32.26.21l-.05,0c.36-.07.42-.46,1-.89l-.91,1.23.42-.45s0,.1-.16.28c.35-.26.17-.21.47-.48-.29.5.42,0-.22.77.35-.32.16-.34.47-.5-.69.8.24,0,0,.4s-.27.09-.53.52c.68-.63,0,.28.18.21.52-.52.36-.08.63-.15-.18.17-.11.48-.21.75l-.1.08c.57-.48.56-.28.74-.3a2.88,2.88,0,0,1-.67.48l.06.06a1,1,0,0,1,.41-.2l-.44.34c.1.06.67-.23.47.12.42-.31,1.06-1,1.44-1.06a4.1,4.1,0,0,1-.71.51s.22-.1.14,0l-.41.23c-.13.18.33-.21.33-.14-.32.24-.2.21-.46.39,0,0,.1-.14,0-.06a1.14,1.14,0,0,1-.39.5,1.59,1.59,0,0,1,.5-.31c.1.08-.36.31-.49.48.24-.14,0,.08.54-.25,0,0-.21.19-.34.29.25-.1.21.19.71-.21l0,0h0c.63-.12-.07.54.23.59l-.18.08c.26,0,.24.17.66.09a1.7,1.7,0,0,1-.53.29c.17,0,.38,0,.12.18-.36,0-.29.13-.28,0-.12.16-.41.26.13.2-.49.12-.6.25-.44.25l.34-.16c.08,0,0,.08,0,.14l-.66.14c-.38.16,0,.14.26.16s.5.09-.18.2c.48,0,.32-.12.88-.13a4.32,4.32,0,0,1-1,.24c-.38.06,1,.08.73.19a3,3,0,0,1,1.1.15,2.92,2.92,0,0,1-1.2-.06s.06,0,.14,0a1,1,0,0,0-.45-.07l.24,0a1.25,1.25,0,0,1-.63,0,1,1,0,0,0,.52.06c-.36,0,0,.13-.27.16l.4.09c-.32.06.42.18.48.33-.37,0-.82-.29-.57-.1a3.25,3.25,0,0,1-.78-.29c.41.23-.31,0-.4,0l-.16-.09c.1,0,.09.06.08.07l.44.19a.82.82,0,0,1-.27-.1c.28.16.73.34,1.09.58-.23-.09.18.23-.38-.08.23,0-.56-.31-.62-.41s0,0,0,0l-.14-.09c-.52-.25.6.39.54.46a2.51,2.51,0,0,0-.51-.32,4.53,4.53,0,0,1,.7.52c-.26-.11.12.18.07.2l.13,0c.28.24.21.24.26.36-.21-.17-.11-.16-.22-.22.44.47-.59-.33-.32,0-.2-.14-.48-.47-.62-.57.27.39-.39-.32-.17,0a2.76,2.76,0,0,1,.51.67,3.07,3.07,0,0,0-.11-.36c.14.19.27.39.39.59,0,0-.12-.3,0-.26a1.82,1.82,0,0,0,.45.51c-.55-.49.15.43-.25.12l-.75-.93c-.39-.37.22.61-.1.45l.16.15c.23.41,0,.12,0,.31a7.54,7.54,0,0,0-.45-.67c.15.26-.1,0,.25.75l-.3-.44c-.21-.15.33,1.11.12,1a6.46,6.46,0,0,1-.32-1s-.11,0,0,.22c-.11-.23.07.55-.1.21,0,.17.17.57.1.56s-.06-.19-.06-.19a2.8,2.8,0,0,0,.19.69c-.53-1.14-.46.23-.85-.79a.81.81,0,0,1-.29.35c0-.12,0-.2,0-.16-.19-.35.07,1.16-.17.76-.15-.63.06-.35,0-.59-.16-1.31-.17.2-.34-.56l0-.08c-.1-.44-.16.51-.3.42a1.22,1.22,0,0,0,0-.2,1.7,1.7,0,0,1-.44,1.07,3,3,0,0,0,.07-.8c-.06.07,0,.85-.16,1a4.55,4.55,0,0,1-.06-1.09l.11,0c0-.73-.14,0-.19-.12l0-.31c-.17.08-.27.87-.45.79l0,.24c-.23.76,0-.45-.22.11l.11-.8a3.42,3.42,0,0,1-.55.83c.21-.56.41-.82.55-1.16-.06,0-.21,0-.34.4,0-.07.12-.26.12-.13-.21.59-.4.87-.54.82.43-1.49-.25-.48.05-1.65-.4.47-.3-.37-.52-.38-.44,1.13-.08,0-.6,1.13-.1,0-.11,0-.08-.07,0-.25.11-.49.18-.73s.17-.22.3-.47c0-.13.21-.48.31-.8-.2.39-.34.53-.31.36l-.21.53c-.48.49.42-1,0-.48l.24-.3c-.18.15-.19-.14-.85.61a2,2,0,0,1,.34-.46c0-.2-1,.54-.71,0l.23-.21c-.09,0-.45.36-.26.12a1.89,1.89,0,0,0,.22-.23c-.08.07-.45.3-.35.15l.28-.21c.19-.38-.8.35-1.08.32a4.07,4.07,0,0,0,1-.93l.11-.07c0-.17-.78.15-1.19.09.83-.49.22-.53.69-.86a2.7,2.7,0,0,1-.76.17c.16-.08-.64,0,.16-.16v0c.77-.22.55-.24.56-.31l-1.06.18c.75-.23.6-.31.42-.41s-.35-.21.34-.27c-.27,0-.27-.09-.53-.14h.57c.15-.11.22-.14.11-.29l.4.08c0-.05-1.64-.31-1.65-.41l.85.11c0-.16.77-.07.06-.42a2,2,0,0,1,.38.15c0-.06.62,0-.49-.4.71.28.12-.09-.14-.32l.5.26c-.62-.37-.8-.48-.91-.67.07,0,.4.2.26.16.3.08-.43-.32-.11-.26l.28.22c.08,0-.09-.14-.41-.42-.16-.18.23-.07.64.23-.25-.19-.55-.49-.4-.44a1.25,1.25,0,0,1,.28.25c.37.15-.35-.59.12-.29a3,3,0,0,0,.25.23c-.07.06-.15.09-.18.06a11.86,11.86,0,0,1,1,.87c-.28-.27-.83-1-.6-.82a1.58,1.58,0,0,1,.13.13l0,0s0,0,0-.09.12.09.14.08c.28.33.19.14.23.14a6.81,6.81,0,0,0-.57-.76.1.1,0,0,1,0,.1s0,0,0,.05l0,0a.47.47,0,0,1,0,.1c-.16-.24-.29-.46,0-.24-.21-.31-.41-.62-.5-.78a12.76,12.76,0,0,1,1.14,1.3,3.83,3.83,0,0,0-.28-1.31c0-.14.17.26.25.41a1.73,1.73,0,0,0,0,.24c0-.27.16-.19-.09-.89.23.28.19.67.28.5l.06.23c.32.51.23,0,.26-.41s.12-.87.38-.13a1.2,1.2,0,0,1-.07-.26c.23.32.39.14.59,0s.43-.13.49.42c0,.24.15-.23.31-.56l-.13.59c.09-.22.19-.44.29-.65s.12.17.07.48-.13.59.16.18l.16-.38c0,.09.33-.11.08.3,0-.07.24-.36.15-.16l-.16.27a5.7,5.7,0,0,1,.44-.37c0,.27-.74,1-.68,1.16.09-.08.72-.61.86-.78,0,0,.07-.19.27-.44l.18-.07c.63-.7,1.41-1.31,1.56-2.05l-.55.3.21-.41.19.11c.17-.42-.13-.17-.35,0a1.31,1.31,0,0,0,.21-.47c-.25.2-.48.4-.71.62.18-.33.5-.56.46-.82-.31.3-.35.75-.64.9.13-.43.33-.72,0-.47a.8.8,0,0,1,.31-.4c-.25.18-.36,0-.63.37.12-.53-.41,0-.05-.85-.12.17-.46.57-.56.58.54-1-.36-.19,0-1.27-.41.88-.66.27-1,.75,0-.07.08-.22.09-.17-.13-.1-.13-.39-.2-.58a6.48,6.48,0,0,1-.5,1.41c-.11-.77.17-.92.18-1.65-.05.63-.36.62-.32,1.16a3.31,3.31,0,0,1-.16-.89c0,1-.13.16-.24.77-.19-.49-.07-.93-.27-.62A.91.91,0,0,1,69.45,53.78Zm-4,3.36h0l0-.08Zm-.26.28a.41.41,0,0,0,.13-.1c.15.13.28.28.25.3S65.38,57.49,65.22,57.42Zm3.07,2.52c0,.07,0,0-.12-.1a.26.26,0,0,0,0-.07l0-.06Z"/><path class="cls-3" d="M67.86,59.33l0,0a.38.38,0,0,0-.09-.09l.1.14Z"/><path class="cls-3" d="M75.93,61.58h0l.07-.05Z"/><polygon class="cls-3" points="62.47 62.1 62.61 62.09 62.48 62.06 62.47 62.1"/><path class="cls-3" d="M76.55,59.16a.52.52,0,0,0,.1-.11Z"/><path class="cls-3" d="M76.15,58.54l.07-.22A1.18,1.18,0,0,0,76.15,58.54Z"/><path class="cls-3" d="M76,57.94l-.18.17h0Z"/><path class="cls-3" d="M78.44,67.57v.05C78.48,67.74,78.48,67.68,78.44,67.57Z"/><path class="cls-3" d="M78.39,64l.26.1S78.71,64,78.39,64Z"/><path class="cls-3" d="M75.49,70.45h0Z"/><path class="cls-3" d="M78.64,64.25c.11,0,.09-.1,0-.15S78.55,64.2,78.64,64.25Z"/><path class="cls-3" d="M74.26,56.18v0l-.06.08Z"/><path class="cls-3" d="M74.19,56.22l-.06,0S74.15,56.26,74.19,56.22Z"/><path class="cls-3" d="M74,56.33l.13-.08S74.1,56.21,74,56.33Z"/><path class="cls-3" d="M74.68,56.84l.14-.16A.82.82,0,0,0,74.68,56.84Z"/><path class="cls-3" d="M74.89,56.93c0-.07.17-.42,0-.37l-.1.12C75,56.47,74.63,57.17,74.89,56.93Z"/><path class="cls-3" d="M73.89,59.44v-.23c-.13.18-.3.43-.39.42C73.21,60.25,73.79,59.23,73.89,59.44Z"/><path class="cls-3" d="M74,60c-.13,0-.22.23-.31.31A.59.59,0,0,0,74,60Z"/><path class="cls-3" d="M76,62.69l-.48.18C75.59,62.89,75.69,62.8,76,62.69Z"/><polygon class="cls-3" points="78.77 62.61 79.06 62.45 78.59 62.52 78.77 62.61"/><polygon class="cls-3" points="75.2 63.65 75.13 63.64 75.32 63.67 75.2 63.65"/><path class="cls-3" d="M73.29,65.9l.17.61C73.47,66.39,73.3,65.69,73.29,65.9Z"/><path class="cls-3" d="M71.2,66.61c0-.32,0-.53-.09-.23C71.15,66.43,71.16,66.68,71.2,66.61Z"/><polygon class="cls-3" points="67.62 62.39 67.84 62.39 67.65 62.36 67.62 62.39"/><path class="cls-3" d="M78.89,107.68c.18,0,.57-.07.48-.12l-.67.06Z"/><path class="cls-3" d="M80.06,107.12a5.91,5.91,0,0,0-1.51.12c.65,0,.39,0,1.16,0,.08,0-.2.13-.45.15.18,0-.13.11.29.08s.51-.24.07-.28A3.84,3.84,0,0,1,80.06,107.12Z"/><path class="cls-3" d="M80.23,101.45l-.07,0S80.23,101.47,80.23,101.45Z"/><path class="cls-3" d="M80,98s.09,0,.15,0A.25.25,0,0,0,80,98Z"/><path class="cls-3" d="M80.63,97.26l0,0C80.65,97.28,80.69,97.26,80.63,97.26Z"/><path class="cls-3" d="M80.23,101.45l.2-.13C80.21,101.35,80.27,101.4,80.23,101.45Z"/><path class="cls-3" d="M78.35,106.6a.66.66,0,0,0,.18,0l-.08,0Z"/><path class="cls-3" d="M81,102.87v0l.28,0Z"/><path class="cls-3" d="M81.3,104a6,6,0,0,0-.79.08,1.17,1.17,0,0,1,.4,0Z"/><path class="cls-3" d="M80.59,106l.09,0Z"/><path class="cls-3" d="M81,102l.19,0Z"/><path class="cls-3" d="M69.81,71.12l.1,0Z"/><polygon class="cls-3" points="72.16 69.06 72.2 69.07 72.5 68.99 72.16 69.06"/><path class="cls-3" d="M81.16,96.06h0C81.21,96.08,81.2,96.07,81.16,96.06Z"/><path class="cls-3" d="M78.78,86.35c-.48.22-.68,0-1.2.25A3.84,3.84,0,0,0,78.78,86.35Z"/><path class="cls-3" d="M78.42,106.56a0,0,0,0,1,0,0S78.4,106.55,78.42,106.56Z"/><path class="cls-3" d="M77.58,86.6h0l0,0Z"/><path class="cls-3" d="M80.36,93.66l-.24.07Z"/><path class="cls-3" d="M79.91,95.64l.06-.06S79.91,95.63,79.91,95.64Z"/><path class="cls-3" d="M79.38,92.86s.12,0,0-.07l-.07,0C79.43,92.81,79.47,92.82,79.38,92.86Z"/><path class="cls-3" d="M79.18,91.88l-.1,0,0,0Z"/><path class="cls-3" d="M70.87,74l.48-.18C71,73.9,70.79,73.8,70.87,74Z"/><path class="cls-3" d="M78.67,106.55a.73.73,0,0,1-.25,0l0,0A1,1,0,0,0,78.67,106.55Z"/><path class="cls-3" d="M75,93.69l0-.17A.18.18,0,0,0,75,93.69Z"/><path class="cls-3" d="M72.71,80.84l-.08,0S72.64,80.84,72.71,80.84Z"/><path class="cls-3" d="M74.85,93.07a1.13,1.13,0,0,0,.36-.16h-.14Z"/><path class="cls-3" d="M71.36,73.78h0Z"/><path class="cls-3" d="M69.78,73.13c0,.15.73-.12,1.15-.2.25.11-.51.22-.86.38.22.06.9,0,.9,0a1.24,1.24,0,0,1-.32.08c.61,0,.12.34.88.28l-.17.06c.35-.12.72-.22,1-.29,0,.07.49,0,0,.15,0,0-.19,0-.34,0h.22c-.66.25-.26,0-.76.11.25.07.86.08.7.23-.66.2-.29-.18-.85.11l.21-.22c-1,.4,0-.12-1,.29-.14.26.4.15.26.4.38,0,.54-.16.93-.21.74.12-1.62.68-.67.66.46-.06,1.3-.26.9,0l-.77.14c0,.23,1.11-.16.66.18-.3,0-.29-.09-.37,0-.56.29.45,0,.48.09l-.66.2c.16.18.7.29.89.5a1.9,1.9,0,0,0-.61.16c.41.21.08.66-.24,1l.6,0a.74.74,0,0,1-.36.12c-.19.17.36-.09.6-.09.06,0-.31.17-.49.17.54.07,1.2.3.63.67h-.18c-.19.22,1.23-.12.73.17h-.11c-.16.41.47.68-.34,1.16.85-.15-.28.45.88.18-.52.35-.75.34-1.06.72,0,.09.75-.06.89,0l-.6.15.67,0-.71.25.17,0a1.29,1.29,0,0,1,.43-.18c.31.07-.34.44-.65.52l.6.2a1.47,1.47,0,0,1-.51,0c.66,0-.64.19,0,.21a4.74,4.74,0,0,1,.49-.1c-.35.17-.31.35-.12.45l-.43.07c0,.27.32.46.38.74a1.87,1.87,0,0,1,1-.23l-.63.18c.41,0,.22-.14.73-.15,0,.12-.71.24-.94.23l.26.08c-.19.05-.3,0-.55.09.41,0-.59.37.12.28l-.19,0c.06.27.31.34.39.56.56-.13.45,0,.92,0-.14.21-.54.49-.44.67.3.08.47-.06.82-.08-.5.13-.41.32-.8.3.14.21.17.27.65.48a1.58,1.58,0,0,1,.46-.16c.09,0-.19.18-.43.22h-.06c.84.17-1.3,1.11-.18,1.14h-.06l.61.16c-.06.15-.39,0-.69.17.91.11,0,.5.6.62-1.45.52.25.66-.65,1.12l.35-.09c.36,0-.18.12-.25.19.27-.07.3-.14.5-.14.55.47-.27,1.27-.47,1.92,0,.23,1.86-.26,1.07.18l-.67.06c.87.26.15.88.9,1.16-.15,0-.35,0-.36,0-.46.19,0,.33.44.26,0,.07-.35.08-.54.16s.65.1.19.25a.42.42,0,0,1-.2,0c.24,0,0,.28.53.12-.23.21.31.25,0,.44.64,0-.24.33.64.18-.9.17-.67.42-.23.44-.28,0-.27.14-.65.17,0,.11.22.19.68.08-1,.41.95.25-.41.63a4.29,4.29,0,0,1,1.21.76c-.9.16-.16-.32-1.1-.12.43.21,1.23.23,1.07.56-.11.1-.4,0-.56,0,.43.21,0,.57.56.73a.52.52,0,0,1-.25,0s-.11.15.29.07l-.12,0a6.6,6.6,0,0,1,1.59-.08c-1.18.13-.24.31-1.75.44a1.42,1.42,0,0,0,.56,0c-.07.07-.23.11-.55.12.26.14.68,0,.7.16a3.93,3.93,0,0,1-.52,0c.41,0,.81,0,.66.2-.12,0-.27.06-.27,0,.1.23,1.1.22.77.55-.87.08-.26.14-1,.29l.24.1.36-.12c0,.13.57.14.34.29l-.32,0,.18.21.26-.18c.4,0,.94-.18.76,0-.08,0,0,.12-.42.27h0c.25,0,.51,0,.34.16s-.82.12-1,.17c.63,0,.22.26.9.22a4.31,4.31,0,0,0-.63.09l.51,0a1.09,1.09,0,0,1-.54.15c-.06.19.94-.22.57.06a1.56,1.56,0,0,1-.2,0c-.18.24.39.34.17.57-.74.19-.21-.13-.83,0,.18.25,1,.41.86.71l.08-.07c1.06-.14-.49.29,0,.34a4,4,0,0,0-.48,0c-.14.21.32.33.7.55h-.28c-.22.15-.09.3-.19.44a1.46,1.46,0,0,0,.63,0c-1.49.61,1,.55-.3,1.07,0,0-.25,0-.25,0l.3.23a2.65,2.65,0,0,0,.62-.2c.28,0,.51,0,.52.1a1.94,1.94,0,0,0-1,.22c.14,0,.3,0,.45-.07-.8.27.93-.13.41.16l-.25,0c.14.06.47.07.41.16-.53.12-.26,0-.7,0,0,.1,1,.05.53.23-.16,0-.17-.08-.33-.11-.61.21-.44.2-.53.29h0l-.25.23.16-.07c1.41-.09.3.23,1.24.27-.89,0-.51.05-1.11.13a1.24,1.24,0,0,1-.52.18c.51,0-.36.21.38.22-.2,0,0,.09-.5.15.17.09.33-.08.58-.11.7.07-.75.53.21.64.4.16,1.07.1,1.43.25a1.6,1.6,0,0,1-.72,0c-.27.16-.21.23,0,.3a2,2,0,0,0-.53.11c.06.07.72,0,.45.1s-.57,0-.8,0c.2.06.58.11.77.18a2.17,2.17,0,0,1-.76,0,1.3,1.3,0,0,0,.9.21l.18-.1a1.86,1.86,0,0,1-.56.07c-.44,0,.16-.17.36-.2l.14,0c1.13-.24-.23-.26-.19-.41l.85-.07-.72,0a2.09,2.09,0,0,1,.81-.11c.4-.16-.31,0,.14-.2a.45.45,0,0,1,.14,0l-.26-.06c.18,0,.59-.11.48,0,.45-.25-.67-.2,0-.36h0c-.32-.21-.61.07-1.36,0l1.49-.36-.62.07s.06-.09.31-.12c-.44,0-.27.06-.67.06.54-.21-.31-.3.66-.48-.48,0-.34.17-.69.09,1-.2-.2-.13.26-.31s.28.1.74-.09c-.92.07.17-.25,0-.32-.73.11-.34-.17-.61-.29.25,0,.35-.37.59-.56H81c-.73.08-.62-.09-.79-.18a2.53,2.53,0,0,1,.82,0l0-.1a.78.78,0,0,1-.46-.06l.55-.06c0-.14-.69-.18-.35-.42a6,6,0,0,1-1.78.24,3.64,3.64,0,0,1,.87-.11s-.24,0-.12-.07h.47c.19-.12-.39,0-.36,0,.39-.07.27-.1.59-.14,0,0-.16.08,0,.08A1.25,1.25,0,0,1,81,102a1.48,1.48,0,0,1-.6,0c0-.14.47-.13.66-.24-.28,0,0-.13-.6,0,0,0,.27-.1.43-.14-.28,0-.14-.33-.75-.14l0,0h0c-.62-.14.25-.55,0-.75l.2,0c-.25-.1-.19-.29-.63-.32a1.33,1.33,0,0,1,.58-.18c-.16-.09-.39-.06-.09-.27.37,0,.3-.09.27.07.15-.17.46-.26-.1-.32.51,0,.61-.22.45-.26l-.34.16c-.09-.06-.06-.13,0-.21l.67-.08c.76-.43-1.46-.28-.15-.73-.48,0-.3.21-.85.24.06-.15,1-.46,1-.5.33-.25-1,0-.79-.23a2.57,2.57,0,0,1-1.1.1,2.14,2.14,0,0,1,1.17-.29s-.05,0-.13.07a.62.62,0,0,0,.45,0l-.24,0c.23-.11.17-.29.57-.32a.52.52,0,0,0-.51.13c.32-.23,0-.27.17-.49-.13,0-.4.13-.41.1.25-.31-.47,0-.6-.19.34-.16.87-.12.53-.24a1.66,1.66,0,0,1,.83-.13c-.49-.07.24-.35.31-.46l.2.05c-.12,0-.12-.07-.13-.11l-.46.13a.36.36,0,0,1,.26-.14,11.08,11.08,0,0,1-1.22.16c.23-.11-.3-.15.33-.29-.18.24.62-.14.76,0-.08,0-.09-.07,0-.13a.34.34,0,0,1,.17,0c.52-.3-.73,0-.75-.17.35,0,.66-.17.58-.19s-.59.15-.87.12c.25-.18-.23-.1-.21-.18l-.12.1c-.36,0-.32,0-.45-.1.27-.06.2,0,.32,0-.64,0,.6-.35.16-.41.22-.12.66-.14.81-.22-.49-.08.45-.27,0-.36a1.47,1.47,0,0,1-.83.09l.38.21-.72,0c0,.08.33.11.26.18a1.19,1.19,0,0,0-.67.09c.69-.25-.46-.15,0-.37l1.18-.22c.48-.3-.68-.24-.43-.55l-.19.12c-.47.06-.09-.14-.3-.19a3.82,3.82,0,0,0,.77-.23c-.29.06,0-.19-.8-.06l.49-.22c.18-.25-1.16,0-1.07-.24a4.5,4.5,0,0,1,1-.1c0-.06.06-.14-.22-.08.24-.09-.56-.09-.2-.22-.18,0-.59.08-.57,0a.88.88,0,0,1,.19,0,1.79,1.79,0,0,0-.71.09c1.19-.45-.2-.56.82-.94a1.18,1.18,0,0,1-.38-.4c.12,0,.19,0,.16,0,.33-.26-1.15.11-.78-.17.61-.24.36,0,.59-.08,1.28-.29-.23-.21.5-.5l.08,0c.42-.2-.54-.16-.48-.36l.19,0a1.84,1.84,0,0,1-1.16-.3,2.69,2.69,0,0,0,.79-.11c-.09-.06-.82.19-1,.07a5.11,5.11,0,0,1,1-.39l.06.13c.69-.21-.06-.17,0-.27l.31-.06c-.15-.19-.93,0-.92-.27l-.23.07c-.8,0,.41-.2-.19-.2l.78-.21a4.19,4.19,0,0,1-1-.25,6.28,6.28,0,0,1,1.3.11c0-.08-.12-.27-.51-.23.08,0,.28,0,.17.08q-1,0-1-.21c1.52-.29.29-.51,1.44-.88-.62-.17.12-.63,0-1-1.15.38,0-.09-1.26.19-.09-.06-.08-.09,0-.12l.67-.4c.34-.13.28,0,.55,0,.06-.19.5-.18.79-.37-.42.12-.63.08-.48-.06l-.53.27c-.7-.1,1-.44.28-.54h.39c-.25-.07-.09-.46-1.09-.37a1.38,1.38,0,0,1,.56-.12c.08-.33-1.19-.43-.64-.8l.3,0c-.1,0-.58,0-.3-.11a1.28,1.28,0,0,0,.32-.08c-.11,0-.56,0-.4-.14h.35c.32-.38-.91-.27-1.17-.46a1.84,1.84,0,0,0,1.21-.64l.13,0c0-.36-.86-.41-1.27-.64.89-.42.24-.75.69-1.19a2.06,2.06,0,0,1-.78.12c.16-.12-.65-.06.15-.24v0c.77-.24.53-.35.52-.47l-1,.23c1.44-.67-.75-.67.56-1.16-.27,0-.29-.11-.57-.12l.56-.13c.09-.24.13-.36-.06-.58l.41,0c0-.15-1.65.22-1.71.09l.82-.24c-.08-.25.59-.69-.23-.74a1.12,1.12,0,0,1,.41,0c0-.12.45-.6-.68-.27.74-.19,0-.27-.36-.33l.56-.11c-.73.06-.92.1-1.16,0,.06-.06.43-.15.31-.06.25-.2-.55,0-.29-.2l.36,0c0-.14-.18-.08-.6,0-.24,0,.08-.28.57-.42-.31.06-.73.09-.61,0a1.13,1.13,0,0,1,.37-.06c.32-.31-.72-.16-.22-.44a2.51,2.51,0,0,0,.32-.11c0,.17,0,.32,0,.31a5.11,5.11,0,0,1,1.28-.36c-.41,0-1.28,0-1.08-.18l.17-.07H76s0-.06-.1-.06c.07-.06.12-.11.12-.15.41-.13.18-.22.19-.29-.55.15-.49,0-.92.24a.07.07,0,0,1,.1,0,.12.12,0,0,0,.07,0h0l.08.17c-.3,0-.55,0-.26-.14l-.91.14c.74-.29,1.11-.59,1.57-.74-.36-.12-.33-.44-1.4-.3-.15,0,.28-.14.44-.21s.1,0,.26,0c-.3,0-.2-.32-.93-.16.29-.24.69-.09.52-.27l.23,0c1-.71-2-.16-.67-1a.89.89,0,0,1-.24.12c.52-.69-.89-.89,0-1.68.17-.2-.29-.09-.67-.08l.58-.19-.72,0c-.56-.08,1.34-.77.33-.78l-.39.15c0-.12-.32-.24.14-.35-.07,0-.42.08-.22,0l.3-.09-.59-.08C73,69.16,74,69.09,74,68.8a3,3,0,0,0-1.18.07s-.16.16-.47.25l-.18-.05a8.47,8.47,0,0,0-2.44.84h.6l-.42.17L69.87,70c-.39.19,0,.13.25.11a1.68,1.68,0,0,0-.46.21l.91-.1c-.35.12-.73.13-.9.29.43,0,.78-.29,1.08-.25-.39.19-.74.26-.36.25a1.48,1.48,0,0,1-.5.1c.31,0,.18.17.67.07-.48.22.21.23-.65.46a1.75,1.75,0,0,1,.77,0c-1.07.15,0,.28-1.1.55,1-.16.5.23,1.06.26-.07,0-.23,0-.18,0,0,.12-.32.23-.48.33a6.36,6.36,0,0,1,1.48-.14,12.41,12.41,0,0,1-1.62.41c.62-.18.67,0,1.18-.15a3.41,3.41,0,0,1-.83.35c1-.24.19,0,.8,0-.44.26-.89.28-.56.34A1.29,1.29,0,0,1,69.78,73.13Zm2.56,3h0l0-.07Zm.08.29a.15.15,0,0,0,0-.13c.19-.06.39-.1.39-.07A1.17,1.17,0,0,0,72.42,76.37Zm3.67-1.6c.09,0,0,.07-.13.1a.17.17,0,0,0-.09-.06H75.8Z"/><path class="cls-3" d="M75.34,74.87s0,0,0,0l-.12.06.18,0Z"/><path class="cls-3" d="M80.15,101.51h0a.15.15,0,0,1-.08,0Z"/><polygon class="cls-3" points="72.36 80.59 72.5 80.55 72.37 80.56 72.36 80.59"/><path class="cls-3" d="M78.48,103.44l-.14,0Z"/><path class="cls-3" d="M78.47,104.15l-.19.13A.81.81,0,0,0,78.47,104.15Z"/><path class="cls-3" d="M78.27,104.73l.25,0h0Z"/><path class="cls-3" d="M76.17,96.37h0C76,96.33,76.07,96.36,76.17,96.37Z"/><path class="cls-3" d="M77.93,98.66a1.88,1.88,0,0,1-.28,0S77.61,98.71,77.93,98.66Z"/><path class="cls-3" d="M75,93.71h0Z"/><path class="cls-3" d="M77.64,98.5c-.1.07-.07.1,0,.12S77.73,98.52,77.64,98.5Z"/><path class="cls-3" d="M78.37,107.09l0,0h.09Z"/><path class="cls-3" d="M78.44,107.11h.07S78.5,107.1,78.44,107.11Z"/><path class="cls-3" d="M78.66,107.16l-.15,0S78.5,107.17,78.66,107.16Z"/><path class="cls-3" d="M78.52,106.34l-.2,0Z"/><path class="cls-3" d="M78.43,106.13c0,.06-.41.2-.28.25l.17,0C78,106.37,78.78,106.13,78.43,106.13Z"/><path class="cls-3" d="M80.82,104.85l-.13.2c.21-.06.49-.15.56-.07C81.86,104.65,80.77,105.1,80.82,104.85Z"/><path class="cls-3" d="M81.05,104.23c.11.09.31,0,.44-.06A.52.52,0,0,0,81.05,104.23Z"/><path class="cls-3" d="M80.39,100.16l.51-.08C80.81,100,80.7,100.12,80.39,100.16Z"/><polygon class="cls-3" points="77.61 99.84 77.31 99.97 77.78 99.92 77.61 99.84"/><polygon class="cls-3" points="81.17 98.75 81.25 98.77 81.04 98.68 81.17 98.75"/><path class="cls-3" d="M79.71,92l-.62.15C79.21,92.13,79.92,92,79.71,92Z"/><path class="cls-3" d="M78.48,89.15c.3-.1.49-.22.17-.21C78.62,89,78.39,89.13,78.48,89.15Z"/><polygon class="cls-3" points="77.52 80.15 77.74 80.16 77.54 80.09 77.52 80.15"/><path class="cls-3" d="M86.11,63.41c0-.18-.06-.57-.08-.49l0,.67Z"/><path class="cls-3" d="M85.84,62.17c0,.33-.07.9,0,1.51a11.08,11.08,0,0,0,.08-1.14c0-.08,0,.22.06.46,0-.17.06.15,0-.27s-.08-.54-.12-.11C85.84,62.47,85.84,62.3,85.84,62.17Z"/><path class="cls-3" d="M85.24,60.62l0,.06S85.24,60.63,85.24,60.62Z"/><path class="cls-3" d="M84.71,59.22s.06-.06.1-.11Z"/><path class="cls-3" d="M85,58.39v0S85,58.35,85,58.39Z"/><path class="cls-3" d="M85.24,60.62a1.06,1.06,0,0,0,.15-.15C85.22,60.6,85.28,60.58,85.24,60.62Z"/><path class="cls-3" d="M85.3,63.75a.63.63,0,0,0,.06-.17.15.15,0,0,1,0,.06Z"/><path class="cls-3" d="M85.87,60.52h0l.2-.18Z"/><path class="cls-3" d="M86,60.53s-.34.42-.49.62l.24-.31Z"/><path class="cls-3" d="M85.68,61.46l0-.07Z"/><path class="cls-3" d="M85.87,60.33,86,60.2Z"/><path class="cls-3" d="M78.58,64.84l-.06-.08Z"/><polygon class="cls-3" points="76.57 62.82 76.55 62.79 76.36 62.54 76.57 62.82"/><path class="cls-3" d="M85,57.37h0C85,57.33,85,57.34,85,57.37Z"/><path class="cls-3" d="M80.54,57.21c.16.5.08.72.27,1.26A11.13,11.13,0,0,0,80.54,57.21Z"/><path class="cls-3" d="M85.29,63.67h0S85.28,63.69,85.29,63.67Z"/><path class="cls-3" d="M80.81,58.47h0l0,.05Z"/><path class="cls-3" d="M83.88,57l-.07.25A1.71,1.71,0,0,1,83.88,57Z"/><path class="cls-3" d="M84.24,58.24l0-.08A.2.2,0,0,0,84.24,58.24Z"/><path class="cls-3" d="M83.26,57.63s0-.12,0-.05a.64.64,0,0,1,0,.07C83.26,57.57,83.27,57.54,83.26,57.63Z"/><path class="cls-3" d="M82.86,57.52v0Z"/><path class="cls-3" d="M79.15,64.07l-.32-.4C79.08,64,79.13,64.13,79.15,64.07Z"/><path class="cls-3" d="M85.35,63.43c0,.14,0,.21-.06.24l0,0C85.33,63.56,85.35,63.48,85.35,63.43Z"/><path class="cls-3" d="M82,62.65l0-.11A.45.45,0,0,0,82,62.65Z"/><path class="cls-3" d="M80.84,62.71l0,.07S80.87,62.77,80.84,62.71Z"/><path class="cls-3" d="M82,62.64c0-.25.07-.39.09-.48s0,.1,0,.18Z"/><path class="cls-3" d="M78.83,63.67Z"/><path class="cls-3" d="M79.38,64.94a8.39,8.39,0,0,0-.67-.95c-.08-.2.36.43.6.72-.09-.18-.48-.74-.44-.74l.19.26c-.33-.5.07-.09-.35-.71a1.58,1.58,0,0,1,.12.15l-.62-.82s-.25-.41.05,0a1.69,1.69,0,0,0,.18.28l-.11-.18c.44.55.12.21.44.63-.11-.21-.42-.7-.27-.56.41.54.08.23.48.69l-.2-.18c.68.85-.07,0,.65.87.17.12-.15-.33,0-.21l-.56-.76c-.33-.61,1.1,1.34.6.57-.26-.38-.77-1.08-.46-.74l.45.63c.1,0-.64-.92-.27-.54.17.25.11.24.18.31.4.46-.24-.37-.22-.39l.42.54c0-.12-.25-.57-.26-.71a4.7,4.7,0,0,0,.38.5c-.13-.33.21,0,.52.23l-.32-.5a2.15,2.15,0,0,1,.23.3c.16.16-.22-.3-.35-.5a2.16,2.16,0,0,1,.32.41c-.25-.44-.5-1-.07-.51l.09.15c.19.17-.68-1-.31-.59l.06.09c.24.14,0-.37.62.3-.5-.7.31.24-.39-.72a11,11,0,0,0,.82.88c.06,0-.41-.62-.47-.74l.38.5-.36-.55.46.59-.07-.14a3.26,3.26,0,0,1-.29-.36c-.14-.25.34.29.53.54l-.23-.48a3.09,3.09,0,0,1,.27.42c-.34-.55.4.52.09,0-.09-.11-.22-.3-.29-.4.24.28.29.25.23.1l.25.35c.13,0,0-.26.08-.3a6.1,6.1,0,0,1-.61-.82l.4.53c-.24-.34-.16-.2-.45-.61.06,0,.45.6.58.78l-.13-.19.32.45c-.23-.34.39.54,0-.05l.11.16s-.11-.19-.11-.23c-.3-.49-.23-.38-.45-.79.11.14.34.53.32.48l-.36-.75c.24.47.23.41.39.76,0-.09,0-.1-.17-.53-.09-.2-.13-.28-.2-.45a4,4,0,0,1,.2.44l0,0c-.14-.39,0,0,.17.28s.23.63.07.08v.05l-.15-.59c0,.08.11.4.21.73-.22-.91.06.11-.07-.51.36,1.64,0-.16.23.91l-.06-.4c-.06-.4,0,.23,0,.32,0-.31,0-.36-.08-.58,0-.53.15.55.14,1,0,.11,0-2.27,0-1.23v.82c0-1,0,0,.12-.82,0,.19,0,.41,0,.44,0,.6,0,0,.08-.46,0,.07,0,.44-.08.69s.11-.76,0-.17c0,.1,0,.2,0,.24,0-.29,0,.08.1-.61,0,.33.08-.3,0,.11.16-.77-.06.37.17-.71-.24,1.12-.18.9,0,.39-.08.34-.09.35-.2.81l.05-.18c0-.13.09-.32.16-.59-.35,1.3.35-1-.14.63a5.6,5.6,0,0,1,.49-1.12c-.39,1-.07.07-.47,1.15.17-.42.53-1.26.46-1s-.18.42-.26.59c.2-.38,0,.12.26-.38,0,.09-.09.18-.13.25s-.06.15.15-.27l-.06.11c.29-.64.66-1.26.83-1.57-.62,1.18-.12.34-.92,1.82l.29-.54c0,.08-.12.25-.29.56.13-.21.36-.65.37-.62L82.5,62c.22-.37.44-.74.36-.56a2,2,0,0,1-.15.26c.05,0,.63-.92.45-.52-.53.78-.17.27-.62,1l.15-.19.22-.33s.35-.44.21-.2l-.2.25.11-.09.16-.26c.26-.32.6-.83.49-.61-.05,0,0,0-.26.42h0c.17-.19.34-.39.23-.21l-.65.82c.42-.51.14-.11.6-.63-.1.13-.37.44-.42.5l.34-.39a4.75,4.75,0,0,1-.37.45c0,.1.65-.76.39-.4l-.14.14c-.12.2.28-.17.12.05-.53.57-.15.11-.59.59.11-.07.71-.57.61-.39l.06-.07c.81-.71-.38.39,0,.08l-.37.3c-.11.14.24-.12.54-.27l-.22.16c-.19.15,0,.16-.13.27a5,5,0,0,0,.51-.38c-1.13,1.1.78-.35-.12.59a.75.75,0,0,0-.2.15l.27-.09a5.92,5.92,0,0,0,.45-.47,1.51,1.51,0,0,1,.4-.29,4.81,4.81,0,0,0-.71.72l.32-.31c-.56.62.67-.66.32-.22L84.5,62c.1-.07.34-.29.31-.23a5.52,5.52,0,0,1-.5.49c.06,0,.76-.7.42-.28a2.35,2.35,0,0,1-.25.19c-.39.5-.27.39-.31.49h0l-.11.28.09-.15c.93-1.06.27-.12.87-.82a6.93,6.93,0,0,0-.67.9,2.37,2.37,0,0,1-.26.47c.32-.38-.12.39.33-.19-.1.18,0,0-.22.47.15-.09.16-.31.29-.51s.16-.07.15.12,0,.36.25,0a5.93,5.93,0,0,0,.65-1.24,4.23,4.23,0,0,1-.22.69c0,.29,0,.25.14,0a2.64,2.64,0,0,0-.09.54c.06,0,.15-.7.16-.4a7.14,7.14,0,0,1-.18.77,6,6,0,0,0,.28-.7,3.62,3.62,0,0,1-.14.74,1.34,1.34,0,0,0,.26-.85l0-.19a3.27,3.27,0,0,1,0,.56c-.09.43-.07-.19,0-.38l0-.13c.07-1.15-.13.19-.22.09l.17-.82c-.05.23-.11.45-.18.67a5.52,5.52,0,0,1,.18-.79c.07-.42-.1.28,0-.17l0-.15-.08.24a3,3,0,0,1,.14-.45c.14-.47-.24.59,0,0v-.05c-.13.26-.22.58-.55,1.22.19-.47.39-.94.6-1.4l-.27.56a1.86,1.86,0,0,1,.13-.29c-.2.37-.12.23-.31.59.24-.51-.22.18.29-.67a6.69,6.69,0,0,1-.37.59c.56-.9-.13.14.11-.29a5.83,5.83,0,0,0,.43-.61c-.54.75.1-.19,0,0-.45.59-.21.22-.39.39.16-.18.22-.33.39-.54l.09-.09c-.52.53-.45.4-.58.49l.6-.56h0a3.7,3.7,0,0,1-.34.3l.41-.38s-.52.41-.27.13c-.4.33-1.07,1-1.37,1.15l.67-.56s-.19.14-.1.06l.37-.29c.15-.15-.3.24-.28.2.3-.26.21-.19.46-.39,0,0-.12.11,0,0a3.21,3.21,0,0,1,.45-.43l-.47.37a5.3,5.3,0,0,1,.52-.46,4,4,0,0,0-.48.34,3.05,3.05,0,0,1,.34-.28c-.22.15-.11,0-.6.38l0,0,0,0h0c-.51.31.17-.36-.09-.28l.16-.13c-.21.11-.18,0-.52.25a3.72,3.72,0,0,1,.43-.44c-.13.07-.3.23-.09-.06s.21-.23.21-.14c.09-.17.31-.42-.12-.08.38-.35.44-.51.31-.42l-.24.31c-.07,0,0,0,0-.09l.49-.49c.47-.76-1.09.88-.23-.28-.33.35-.18.32-.56.74,0-.12.62-.95.61-1,.18-.38-.68.75-.57.47a7.22,7.22,0,0,1-.71.9,6.75,6.75,0,0,1,.72-1s0,.07-.07.13a1.28,1.28,0,0,0,.29-.36L85,59c.13-.24.06-.28.31-.6a1.17,1.17,0,0,0-.3.45c.16-.35-.07-.09,0-.36a4.06,4.06,0,0,1-.23.37c.1-.34-.29.36-.4.4.18-.35.5-.76.28-.54a3.63,3.63,0,0,1,.47-.74c-.31.36.06-.38.06-.49l.14-.15c-.08.09-.1.07-.11.06l-.24.45a1,1,0,0,1,.12-.29c-.18.27-.4.74-.65,1.1.1-.24-.19.19.12-.41,0,.27.31-.59.42-.63,0,.06-.06,0,0,0a.83.83,0,0,1,.09-.15c.21-.59-.39.63-.45.56a1.91,1.91,0,0,0,.26-.59,3.92,3.92,0,0,1-.42.8c.08-.3-.15.15-.15.1l0,.15c-.17.33-.17.27-.24.35.12-.27.11-.16.15-.28-.31.57.22-.68,0-.31.08-.25.29-.64.33-.82-.25.4.13-.51-.09-.19a3.25,3.25,0,0,1-.35.78l.23-.25-.34.62s.18-.24.16-.15a3.63,3.63,0,0,0-.28.63c.26-.72-.23.35-.08-.15l.46-1.14c.13-.57-.36.51-.34.16l0,.22c-.17.45-.08,0-.17.2.13-.39.16-.54.23-.79-.1.29-.07-.07-.32.7l.11-.53c0-.24-.41,1.07-.44.9.14-.41.18-.7.31-1,0,0,0-.1-.1.17,0-.25-.21.5-.14.12a3,3,0,0,1-.17.53l0-.2a4.61,4.61,0,0,0-.19.69c.2-1.24-.21,0-.07-1a1,1,0,0,1-.23.27c0-.12,0-.2,0-.16,0-.37-.2,1.13-.22.72,0-.64.09-.35.09-.59.15-1.3-.12.17-.1-.59l0-.07c0-.45-.16.46-.22.38s0-.11,0-.2A5.39,5.39,0,0,1,82,58.5c0-.52,0-.28,0-.8,0,.08,0,.84-.08,1,0-.28,0-.52,0-1.09l.06,0c0-.73-.08,0-.11-.08v-.32c-.1.12-.08.93-.17.9l0,.24c0,.82-.06-.44-.08.17l-.05-.81c0,.2-.06.83-.09,1a9.85,9.85,0,0,1,0-1.34s-.12.1-.1.51c0-.08,0-.29,0-.17a3,3,0,0,1-.06,1c-.15-1.61-.18-.33-.4-1.56,0,.64-.28-.15-.42,0,.31,1.23,0,.06.25,1.34,0,.09,0,.08,0,0l-.27-.71a3.36,3.36,0,0,1-.11-.58c-.1-.06-.16-.52-.31-.83.13.45.14.66.05.52l.22.54c.08.73-.38-1-.31-.27L80,56.73c0,.27-.24.13,0,1.15a2.47,2.47,0,0,1-.19-.56c-.21,0,.11,1.22-.22.7l-.11-.29c0,.1.19.56,0,.3a2.05,2.05,0,0,0-.13-.3c0,.11.16.54.06.4l-.12-.34c-.31-.26.17.91.2,1.15-.43-.8-.67-1-.8-1.06l-.06-.11c-.22,0,.12.83.21,1.2-.67-.71-.45-.17-.85-.55a5.25,5.25,0,0,1,.46.64c-.13-.13.32.53-.17-.13h0c-.5-.63-.41-.43-.45-.43l.63.86c-1-1.19.15.61-.73-.48.14.23.12.24.26.47l-.34-.46c-.14-.08-.21-.12-.19,0l-.23-.34c-.06,0,.94,1.36.93,1.41l-.52-.68c0,.06-.57-.5-.16.17a2.25,2.25,0,0,1-.23-.34s-.46-.38.25.56c-.46-.61-.11,0,.06.28l-.33-.46a7.19,7.19,0,0,1,.6,1c-.06-.05-.28-.35-.18-.25-.21-.21.29.45.08.24l-.21-.3s.06.14.3.49c.11.2-.15-.07-.46-.48.18.26.42.6.31.5s-.18-.25-.22-.3c-.28-.27.32.58,0,.17-.12-.15-.17-.23-.21-.27a.12.12,0,0,1,.13,0c-.31-.41-.4-.46-.81-1.06.21.34.67,1.06.49.88L77,60l0,0s0,0,0,.09l-.12-.11c-.26-.34-.18-.15-.21-.16.34.46.27.4.57.76a.12.12,0,0,1,0-.08l0-.06,0,.05a.14.14,0,0,1,0-.07c.16.25.29.45.08.21l.53.76c-.5-.62-.8-.93-1.1-1.32a3.37,3.37,0,0,0,.61,1.14c.06.12-.2-.23-.31-.36s0-.09-.12-.22a2.07,2.07,0,0,0,.41.76c-.24-.24-.39-.57-.37-.43l-.13-.19c-.81-.88,1,1.65,0,.51a1.93,1.93,0,0,1,.17.2c-.53-.45.12.7-.65-.06-.16-.15.12.24.31.54l-.37-.48.38.59c.26.46-1-1.13-.47-.3l.26.32c-.08,0,.06.26-.22-.13,0,.06.25.35.12.19l-.2-.26.27.49c-.18-.16-.75-1-.85-1a7.69,7.69,0,0,0,.62,1,2.51,2.51,0,0,1,.34.39l.07.15c.56.76,1.12,1.55,1.57,2l-.3-.49.28.35v0c.27.33.06,0-.09-.2l.32.39-.5-.75c.23.29.42.6.57.74-.23-.34-.51-.65-.65-.89.28.33.48.62.28.31a3.37,3.37,0,0,1,.29.41A2.88,2.88,0,0,0,78,64.2c.34.41,0-.16.52.56a6.24,6.24,0,0,1-.39-.63c.61.88.1,0,.78.92-.55-.78-.17-.4-.44-.86,0,.06.13.19.09.15a3.23,3.23,0,0,1,.38.41c-.47-.64-.54-.81-.81-1.22.48.59.54.76,1,1.34-.38-.51-.33-.55-.66-1a8.31,8.31,0,0,1,.56.69c-.59-.8-.08-.16-.42-.66.32.37.56.74.42.47A3.6,3.6,0,0,1,79.38,64.94Zm-.17-2h0v0Zm.07-.07s0,0,0,0a3.6,3.6,0,0,1-.23-.32A3.5,3.5,0,0,0,79.28,62.86Zm-2.51-3c0-.07,0,0,.11.11a.14.14,0,0,0,0,.07l0,.06Z"/><path class="cls-3" d="M77.2,60.43l0,0,.08.1-.1-.14Z"/><path class="cls-3" d="M85.18,60.68h0l-.07,0Z"/><polygon class="cls-3" points="80.92 63 80.84 62.88 80.91 62.99 80.92 63"/><path class="cls-3" d="M84,62.35l-.1.11Z"/><path class="cls-3" d="M84.17,62.66l-.09.19A1.2,1.2,0,0,0,84.17,62.66Z"/><path class="cls-3" d="M84.22,63.06l.14-.2h0Z"/><path class="cls-3" d="M82.41,62v0C82.34,62.16,82.36,62.12,82.41,62Z"/><path class="cls-3" d="M83.41,61.12l-.18.21C83.21,61.38,83.21,61.39,83.41,61.12Z"/><polygon class="cls-3" points="81.99 62.66 81.99 62.65 81.99 62.65 81.99 62.66"/><path class="cls-3" d="M83.23,61.3c-.07.11,0,.09,0,0S83.29,61.24,83.23,61.3Z"/><path class="cls-3" d="M85.65,63.84l0,0v-.09Z"/><path class="cls-3" d="M85.68,63.77l0-.07S85.68,63.71,85.68,63.77Z"/><path class="cls-3" d="M85.75,63.56l0,.14S85.73,63.72,85.75,63.56Z"/><path class="cls-3" d="M85.17,63.5l0,.2S85.15,63.59,85.17,63.5Z"/><path class="cls-3" d="M85,63.51c0,.06,0,.46.06.35l.05-.16C85,64,85.14,63.19,85,63.51Z"/><path class="cls-3" d="M85.72,61.05l-.06.16c.1-.19.22-.44.25-.5s0-.05,0,0A2.36,2.36,0,0,1,85.72,61.05Z"/><path class="cls-3" d="M85.85,60.76c.07-.07.19-.26.27-.35C86,60.57,86,60.6,85.85,60.76Z"/><path class="cls-3" d="M85.24,60l.39-.36C85.55,59.65,85.48,59.76,85.24,60Z"/><polygon class="cls-3" points="83.19 61.72 82.97 61.97 83.31 61.62 83.19 61.72"/><polygon class="cls-3" points="85.63 58.75 85.69 58.71 85.52 58.8 85.63 58.75"/><path class="cls-3" d="M83,57l-.11.63C83,57.57,83.1,56.86,83,57Z"/><path class="cls-3" d="M81.71,57.7c0-.33-.06-.53-.07-.2C81.67,57.54,81.7,57.78,81.71,57.7Z"/><polygon class="cls-3" points="78.06 58.75 77.94 58.57 78.02 58.73 78.06 58.75"/><g class="cls-4"><image width="1341" height="4904" transform="translate(-534.69 114.46)" xlink:href="../../../../../../../Downloads/screencapture-aurora-db30bf-webflow-io-2023-09-18-12_40_29.png"/></g></svg>