<?xml version="1.0" encoding="utf-8"?>
<!-- Generator: Adobe Illustrator 21.1.0, SVG Export Plug-In . SVG Version: 6.00 Build 0)  -->
<svg version="1.1" id="Capa_1" xmlns="http://www.w3.org/2000/svg" xmlns:xlink="http://www.w3.org/1999/xlink" x="0px" y="0px"
	 viewBox="0 0 377.2 152.4" style="enable-background:new 0 0 377.2 152.4;" xml:space="preserve">
<style type="text/css">
	.st0{fill:#F27271;}
</style>
<g>
	<path class="st0" d="M60.7,18.7c-14.8-3.3-29.8,9.9-36.6,28c-6.8,18.1-6.3,40-2,59.5c1.8,8.2,4.5,16.4,9.5,21.5
		c5.6,5.6,13,6.3,20,6.6c76.1,4,152.3,4.3,228.4,0.9c15.6-0.7,31.4-1.6,46.1-8.8s28.1-21.9,32.8-42.1c5.5-23.7-3.5-52-20-62.7
		c-9.5-6.2-20.4-6.8-31-7.3c-55.2-2.5-110.4-5.1-165.7-7.6c-26.8-1.2-54.4-2.3-79.4,10.9"/>
	<g>
		<path class="st0" d="M66.6,22.9c-1.1,0.4-0.2,1.2-0.2,1.5C67.9,23.3,66.4,22.6,66.6,22.9z"/>
		<polygon class="st0" points="83.7,13.8 83.4,14.3 86,12.6 		"/>
		<path class="st0" d="M101.8,10.7c-1-0.8-2.6-0.6-4.5-0.1c-1.8,0.5-3.8,1.1-5.5,1.1l-0.6-0.3l-1.2,1.8
			C93.9,12.1,98.9,10.5,101.8,10.7L101.8,10.7z"/>
		<path class="st0" d="M111.9,14.1c-0.6-0.7,2.1-0.7-2.3-0.1c0.2,0.1,0.3,0.1,0.4,0.2C110.4,14.1,110.9,14.1,111.9,14.1z"/>
		<path class="st0" d="M110,14.2C108.1,14.3,111.3,14.7,110,14.2L110,14.2z"/>
		<path class="st0" d="M118.9,13.5c-0.8,0.2-1.7,0.4-2.6,0.7c0.5,0.4,2.8,0.5,2,0.8C121,14.7,120.4,14.2,118.9,13.5L118.9,13.5z"/>
		<path class="st0" d="M121.4,12.2l-1.3,0.3C120.3,12.6,120.6,12.7,121.4,12.2z"/>
		<path class="st0" d="M117.2,13l2.8-0.6c-0.4-0.3-0.4-0.9-1.3,0.2C119,12.1,118.4,12.6,117.2,13z"/>
		<path class="st0" d="M115.6,12.8c-1.4-0.4-3.3-0.6-0.8-1.3c-2.5,0.2-3.5,0.6-3.3,0.9C111.7,12.7,113.1,13,115.6,12.8z"/>
		<path class="st0" d="M102.6,8.7c-0.7-0.1-1.3-0.2-2-0.4L99,9.2C99.8,8.8,102.8,9.2,102.6,8.7z"/>
		<path class="st0" d="M135,14.9c0.2-0.4-0.8-1.1-1-1.6l-1.9,0.4C133,14,134.9,14.3,135,14.9L135,14.9z"/>
		<path class="st0" d="M134,13.3l2.9-0.6C134.3,12.5,133.9,12.8,134,13.3z"/>
		<path class="st0" d="M121.8,10.1l-4.7,1.4c1.9-0.5,3.7-1,5.6-1.4L121.8,10.1L121.8,10.1z"/>
		<polygon class="st0" points="146.1,15.4 144.4,16.3 147.4,15 		"/>
		<path class="st0" d="M153.5,15.6c-1.3,0.7,1.6,1.4,0.3,1.8c2,0,3.8-0.6,5.3-1.1C157.5,16.5,155.7,16.3,153.5,15.6z"/>
		<path class="st0" d="M161.7,15.5c-0.8,0.1-1.7,0.4-2.6,0.7C160,16.1,160.9,15.9,161.7,15.5z"/>
		<path class="st0" d="M141.9,13.1c0.2,0.2,0.6,0.9,2.2,1.2l-1.1-1.2C142.6,13.2,142.2,13.1,141.9,13.1L141.9,13.1z"/>
		<path class="st0" d="M143,13.1L143,13.1c1.3,0.1,2.1,0.2,2.5,0.2C145.1,13.3,144.4,13.3,143,13.1L143,13.1z"/>
		<path class="st0" d="M141.6,13.1c0.1,0,0.2,0,0.3,0C141.7,13,141.7,13,141.6,13.1z"/>
		<path class="st0" d="M129.4,11.3c1.7-0.6,5.3-1.1,1.9-2.2C130,9.8,132,10.4,129.4,11.3z"/>
		<path class="st0" d="M140.2,11.6l-3.1-0.4c0.1,0.3,0.6,0.8-0.3,1L140.2,11.6z"/>
		<polygon class="st0" points="141.7,11.4 140.2,11.6 141.4,11.8 		"/>
		<path class="st0" d="M156.5,14.2c1.4-0.4,2.8-0.4,4.5-0.4c-1.8-0.3-3.6-0.5-5.3-0.6C155.4,13.6,154.6,14.2,156.5,14.2z"/>
		<path class="st0" d="M149.9,13.6c0.1,0,0.2,0,0.3-0.1C150,13.4,149.9,13.4,149.9,13.6z"/>
		<path class="st0" d="M177.2,14.6c-0.1-0.1-0.2-0.1-0.2-0.2c0,0.1,0,0.1-0.1,0.2L177.2,14.6z"/>
		<path class="st0" d="M155.4,13c-1.3-0.3-2.1,0-2.9,0.3c1-0.1,2.1-0.1,3.2-0.1C155.8,13.1,155.8,13,155.4,13L155.4,13z"/>
		<path class="st0" d="M166.3,15.2c-0.7-0.3-1.5-0.5-2.3-0.7C164.7,14.8,166.1,15.5,166.3,15.2z"/>
		<path class="st0" d="M150.6,13.9c-0.1,0-0.1,0-0.2,0C150.9,14.2,150.8,14.1,150.6,13.9z"/>
		<path class="st0" d="M150.6,13.9c0.7-0.1,1.2-0.4,1.8-0.6c-0.8,0.1-1.6,0.1-2.2,0.3C150.4,13.6,150.5,13.8,150.6,13.9z"/>
		<path class="st0" d="M182.5,7.6c-0.3,1-3.8,1.8-6.8,0.6c-3,0.6-1.2,4.1,1.3,6.2c0.1-0.4,0.1-0.9,3.2-1.3c-1.1-0.6-6.7-1.6-4.1-2.4
			c4.1-0.4,3.3,0.5,5.2,1.2c-1.6-1.4,5.2-1.6,4.4-3.6l-3.6,0.5C182.2,8.4,183.5,8,182.5,7.6L182.5,7.6z"/>
		<path class="st0" d="M171.2,14l-1.3,0.1c1.4,0.2,2.4,0.7,4.3,1.6c2.1-0.4,2.6-0.8,2.7-1.1l-6.2-0.4L171.2,14L171.2,14z"/>
		<path class="st0" d="M164.2,13.8c1-1.1,4.1-1.4,2.3-2.7c-3.7-0.1-2.6,0.8-4.9,1.2c6,0-1.7,0.6,2.5,1.4c-1.2,0.1-2.2,0.1-3.2,0.1
			c1.1,0.2,2.1,0.4,3.1,0.7c-0.1,0-0.1-0.1-0.1-0.1h0c0,0,0,0,0,0c-0.2-0.1-0.3-0.2-0.1-0.1c0,0,0.1,0,0.1,0
			C164,14,164.1,13.9,164.2,13.8c1.7,0.3,0.3,0.3-0.3,0.4c0,0.1-0.1,0.1-0.1,0.2c0,0,0,0,0,0l6-0.3
			C168.6,13.8,167.1,13.8,164.2,13.8L164.2,13.8z"/>
		<path class="st0" d="M134.5,6.8c0.2,0.1,0.2,0.2,0.2,0.3C135.1,6.9,135.2,6.8,134.5,6.8z"/>
		<path class="st0" d="M136.9,7.6c-0.4,0.1-0.8,0.6-2.2,0.4c-1.2-0.4,0-0.5,0-0.9c-0.9,0.3-3,0.7-0.4,1.3l0.4-0.1
			c2.4,0.5,5.4,2,5,2.2C139.1,9.4,138.5,8.6,136.9,7.6L136.9,7.6z"/>
		<path class="st0" d="M150.8,10.4l5-0.3L153.3,9l0.1,0.6C150.6,9.2,151.1,10,150.8,10.4z"/>
		<polygon class="st0" points="177.8,15.1 177.1,16.3 180,14.8 		"/>
		<polygon class="st0" points="184.3,15.3 184,16.3 185.7,15.8 		"/>
		<path class="st0" d="M242.6,142.8l-1.5,0.3C241.8,143,242.3,142.9,242.6,142.8z"/>
		<path class="st0" d="M253.2,142.5l0.2-0.5C253,142.3,252.8,142.5,253.2,142.5z"/>
		<path class="st0" d="M337.4,28.6c0.4,0.9,0.6,2,0.9,2.7c0.2,0.7,0.5,1,0.8,0.5l0.4-1.2C338.5,30.1,337.9,29.3,337.4,28.6
			L337.4,28.6z"/>
		<path class="st0" d="M336.8,119.9c0.2,0,0.5-0.1,0.7-0.1c0.2-0.6,0.3-1.2,0.4-1.8C337.6,118.6,337.2,119.2,336.8,119.9
			L336.8,119.9z"/>
		<path class="st0" d="M338.4,124.6c-1,0.4-1.9,0.8-2.9,1.2C336.2,125.6,337.2,125.2,338.4,124.6z"/>
		<path class="st0" d="M184.6,144.9l-1.7,1.2C185.5,146.1,184.4,145.5,184.6,144.9z"/>
		<path class="st0" d="M250.5,17.9c1.8,0.5,3.3,0.8,4.6,0.9C252.9,18.1,251.1,17,250.5,17.9z"/>
		<path class="st0" d="M246.4,130.6c-0.9,0.2-1.3,0.5-1.2,0.7C246.1,131.1,246.6,130.9,246.4,130.6z"/>
		<path class="st0" d="M260.4,19.1c-0.3-0.1-0.6-0.2-1-0.3c-1.4,0.1-2.7,0.2-4.4,0.1C256.6,19.4,258.5,19.8,260.4,19.1z"/>
		<path class="st0" d="M12.5,74.8c0.1-0.2,0.1-0.3,0.1-0.5C12.5,74.3,12.5,74.5,12.5,74.8z"/>
		<path class="st0" d="M46.1,26.1c-0.4,0.3-1.1,0.7-1.8,1.2C44.7,27.1,45.3,26.8,46.1,26.1z"/>
		<path class="st0" d="M210.2,17C208.9,17,210,17.1,210.2,17L210.2,17z"/>
		<path class="st0" d="M203.8,12.2c0.3-0.1,0.5-0.3,0.6-0.5C204.2,12,204,12.1,203.8,12.2z"/>
		<path class="st0" d="M274.3,12.6c0,0,0.1,0,0.1,0C274,12.4,274.1,12.4,274.3,12.6z"/>
		<path class="st0" d="M208.2,16.4c0.5,0.2,1.1,0.3,1.7,0.4C209.7,16.7,209.1,16.6,208.2,16.4z"/>
		<path class="st0" d="M208.5,16.9c-0.5-0.1-0.8-0.1-1.2-0.2C207.1,17,207.2,17.1,208.5,16.9z"/>
		<path class="st0" d="M212.2,17c-0.8,0-1.5-0.1-2.2-0.2c0.3,0.1,0.4,0.2,0.3,0.2C210.6,17,211.2,17,212.2,17z"/>
		<path class="st0" d="M87,139.3c-0.1,0-0.2-0.1-0.3-0.1C85.3,139.6,85.9,139.6,87,139.3z"/>
		<path class="st0" d="M363.9,52.9c0-0.1-0.1-0.1-0.1-0.2C363.8,52.8,363.8,52.9,363.9,52.9L363.9,52.9L363.9,52.9z"/>
		<path class="st0" d="M365.7,58c-1.7-2-1.8-3.3-1.9-5c-0.9,0.8-1.9,1.6-2.8,2.3C362.6,56.2,364.1,57,365.7,58L365.7,58z"/>
		<path class="st0" d="M217.2,143.7l3.5,1c-4.2,1.8-7.2,1.2-3.9,2.6c0.4-3.5,13.5-0.6,13.9-4.2l2.3,0.7c-0.7,0-0.8,0.2-1.4,0.2
			c4.5,1.6,3.2-2.6,9-2.3c2,0.2,3.4,0.7,2.1,1.1l4.4-1c1.3,0,1,0.7-0.3,0.6l6.8-0.5l-0.1,0.1c0.9-0.6,3.1-1.5,4.2-1.9
			c1.7,0.4-0.9,0.4-0.4,0.8l3.7-1c1.6,0.9-1.5,1.9-4.1,1.8c3.6,3.4,3.1-1,10.7,0.8l-3.5,0.6c2.4,1.9,5.1,1.1,9.2,2.2
			c-1-0.6-8.2-2.8-4.1-3.9c1.2,0.2,2.7,0.3,4.9-0.5c0.1,1.3,2.2,0.9,4.9,0.7l-0.1,1.7c2.9-0.6,2.6-1.4,4.3-2.3c3.3,0,4,1.2,4.9,2.3
			c5.3-0.1-3.8-1.8,2.5-2.6c4.5,0.3,7.6-0.6,12.7-2.4c3.2,0.1-0.4,1.1,0.8,1.4c0.9-0.6,1.7-1.2,2.6-1.8c0.7-0.1,0.5,0.4,0.5,0.6
			c2.2-1-0.1-1.7,3.4-2.9c0.3-1,2.2-0.7,4.7-0.8c2.4,0,5.4-0.4,7.2-2.1c1.2,0-0.1,1.2,0.4,1.6c1.4-0.9,2.4-1.6,3.1-2.1
			c0.8-0.6,1.3-0.9,1.8-1.4c0.5-0.4,0.9-0.8,1.5-1.4c0.5-0.6,1.2-1.2,2.1-2.3l2.2-0.7c0.7-0.2,1.4-0.5,2.2-0.8
			c-1.7,0.4-1.9-0.3-1.4-1.5c0.5-1.1,1.6-2.8,2.6-4.3c-1.3,0.2-2.3,0.3-3,0.5l1.9-2l1.8-2.1c0.7-0.2,0.6,0.6,0.4,1.7
			c0.2-0.3,0.4-0.7,0.5-0.9c0.9-0.4,1.4-0.3,1.5,0.2c0.2,0.4,0,1.2-0.2,2c-0.7,0.2-1.5,0.4-2.2,0.5c-0.4,1.7-0.9,3.3,0,3.9
			c0.2-0.4,0.7-0.9,1.2-1.5c-0.1,0.4-0.2,0.8,0.1,0.8c0.3,0,0.5-0.7,1-1.6c0.7,0.2,1.5,0.4,2.2,0.6l-0.2-0.8
			c1.1-0.7,2.2-1.5,3.2-2.2c1.1-0.8,2.1-1.6,3.1-2.4c0.6-1.4,1.1-2.7,1.5-4.1c0.4-1.4,0.9-2.8,1.2-4.3c0.4-1.5,0.9-3,1.4-4.7
			c0.6-1.6,1.1-3.4,1.9-5.3c0.3,2.4,1.8,1.4,3.2,2.2c-0.7,0.3-1.1,0.9-1.5,1.6s-0.7,1.6-1.1,2.5s-0.7,1.9-1.2,2.9s-1,2-1.8,2.8
			c1.5-1.8,1.8-1,1.7-0.3c0.6-1.3,1.1-2.5,1.6-3.8c0.5-1.3,1-2.6,1.4-3.9c0.5,0.4,1,0.1,1.4-0.4c0.2-0.3,0.5-0.7,0.8-1
			c0.3-0.4,0.6-0.8,0.9-1.3c-1.5,0.2-1.2-1.4-0.6-3.4c0.3-1,0.7-2.2,1-3.2c0.3-1.1,0.5-2.2,0.6-3c0.5,0,0.8,0.3,0.9,1
			c0.1,0.7-0.1,2-1,3.8c0.4-0.4,0.8-0.9,1-1.3c0.2-0.4,0.3-0.9,0.4-1.3c0.1-0.8-0.1-1.6-0.2-2.4c-0.4-1.6-0.8-3.1,0.5-5
			c-0.2,0.9-0.5,1.4-0.1,1.9c0-1.2,0.3-3.1,0.7-4.5c0.2-0.7,0.5-1.3,0.7-1.7c0.2-0.3,0.4-0.4,0.5-0.1c0,0.3-0.1,0.6-0.1,1
			c0.2-0.8,0.3-1.7,0.5-2.7c0.1-1,0.3-2,0.4-3.1c0-1.1,0.1-2.2,0.1-3.3c0-0.6,0-1.1,0-1.7c0-0.5-0.1-1.1-0.1-1.6
			c-0.1-1.1-0.2-2.1-0.4-3c-0.2-0.9-0.4-1.8-0.6-2.5c-0.5-1.4-1-2.3-1.6-2.5c0.3-0.1,2.8,0.5,3.2,0.9c-1.4-1.8-3-3.5-4.5-5.1
			c-1.6-1.6-3.2-3.1-4.8-4.5c1,0.2,2.4-0.8,3.8-1.4c0.7-0.3,1.4-0.4,2.1-0.2c0.4,0.1,0.7,0.3,1,0.7c0.3,0.3,0.6,0.8,0.9,1.5
			c0-1.6-0.3-3.6-1.9-6.5c0.1,1.1-1.9,3.3-2.5,2c0.5-2.2,0.4-2.9,0.4-3.7c-0.1-0.8-0.1-1.8-0.3-4.4c0.2,1.6-3.2,1.2-4.1-1.1
			c0.6,0.2,2.6-1.5,3.2-0.8c-0.9-0.8-1.8-1.5-2.7-2.2c-0.9-0.7-1.8-1.4-2.8-2c1.3,1,2.3-1,2.2-2.7c-0.1,0.4-0.8-0.8-1.7-2.2
			c-1-1.4-2.1-3.1-2.8-3.6c0.4,0.8,0.8,1.7,1.1,2.6c-0.5-0.8-1-1.4-1.5-1.9c-0.5-0.5-1.1-0.9-1.6-1.1c-1-0.6-2-0.9-3-1.1
			c-1-0.2-2-0.4-3-0.8c-0.5-0.2-1.1-0.4-1.7-0.7s-1.2-0.7-1.9-1.2c0.5,0,1.4-0.5,2-1.2c0.2-0.4,0.4-0.8,0.3-1.4
			c-0.1-0.5-0.5-1.1-1.2-1.7c-1.1,0.2-3.7,0.8-6.4,1.5c-2.8,0.7-5.7,1.5-8.5,1.4c-0.3-0.4-0.5-0.7-0.8-1.1c-1.4,0-2.9,0.1-4.3,0.2
			c1.5-0.9,4.2-2.3,7.4-3.2c3.2-0.9,6.9-1.3,9.5-1c-2.3-1.8-0.3-1.4-4.2-2.8c-0.6-0.6,0.1-0.7,1-0.6c1,0.1,2.2,0.5,2.8,0.8
			c-3-1.6-6.2-2.8-9.4-3.7c0,0.9-1.9,0.9-3.8,1c-1.9,0.1-3.6,0.2-3.6,1c3.3-0.2,6.8-0.1,10.4,0.3c0,0.9-1.9,1.6-4.3,2.1
			c-2.5,0.5-5.5,0.7-8.6,0.2c-1.5-0.9,1.5-3,1.5-3.6c-0.9,0.5-6.1,0.6-6.6,0.2c0.9-0.3,1.8-0.5,2.7-0.8c-3.5-0.9-5.8,2-9.8,0.1
			c-1.4-0.2-4.1-2.4-4.4-1.4c2.2,2.1,2.4,8.3,0.8,9.8c-0.5-0.2-7.3-2.3-8.9-3.3c-2.2-1.7,3.6-3.6,1.7-5c-0.1,0.5-1.4,1-2,1.2
			c-1.5-0.5,0.7-1.5-2.5-1.4c-0.6,1.8-6.5-0.4-1.6,1.4c-3.2,0.4-3.3-0.5-7-0.6c1.1,1.2-3.5,3.8-6.6,4.1c0.2-0.4-0.5-1.1-0.8-1.4
			c-6.4-0.5-9.8-1.4-15.8-1.7c-0.5-0.5-3.4-1.1-2.1-1.8c-0.9,0.3-1.7,0.8-3.6,0.8c-3.5-1.7,4.1-0.1,1.5-2c-0.3,1-4.9,1.2-7.5,1.7
			c0.7,1.6,6.1,0.6,8.7,0.1c-0.1,2.2-4.8,4.3-11.1,5c-5,0.3-2.1-1.5-3-1.2c-9.3-0.8-8.1,3.5-15.8,1.5c-3-1.6,0-2.8-0.6-3.8
			c4.1-0.3,6.2,1.2,8.9,1.2l-3.4-0.8c1.3-0.4,4-0.6,5.5-0.2c-2.5-1.4-15.8-1-23-2.5c-1.3,0.4-3.5,0.8-2.5,1.4l2.3-0.1
			c2.1,1.2-4.4,1.4-1.5,2c-3.1,0.6-6.6,1.8-10.9,0.9l-0.7-1.6c0.1,0.5,2.8,1.1,4,0.6c-1.8,0.6-6.5-2.5-8.6-0.5l3,1.2
			c-3.1,0.7-7,2.2-10.8,1.5c1.7,1.7,0.9-0.1,3.5,1.8c-2.2-2.4,9.8,0.5,6.1-2.1c2.7,2.3,4.8,1.1,8.3,3.1c-0.1-0.5-1.2-1.1,1.9-0.7
			c0.1-0.1,0.5-0.3,0.7-0.4c0.1,0,0.1,0,0.2,0c-0.1,0-0.1,0-0.2-0.1c0.1-0.1,0.2-0.1-0.1,0c-0.8-0.3-1.4-0.6-1.6-0.9
			c1.6-1.1,6.8-0.9,8.5-1.4c1.9,0.3-0.8,0.6,0.2,1.2l2.6-0.8c0.2,1.2,5,2.2,0.4,2.7l4,0.2c2.4,0.8,5.6,1.2,7.6,0.8
			c1.9,0.3,4.9-1.1,3.2-0.2l6.4-0.4l0,0.3c6.2,0.4,12.9-1.4,20,1.1c2.1-0.2,4.3-0.5,7.8,0l0.6,1c2.7-0.2,8.1,1.4,9.3,0.4
			c2.8,2.9,13.1,1.2,17.8,1.9l0.2-1.3c3.3,0.2,6.4,0,10.5-0.4l-0.2-1.2c3.6-0.8,8.9,1.2,14,1.7c-0.4,0.4-1.7,0.1-2.6-0.2
			c3,1.6,6,1.6,9.1,1.8c3,0.2,6,0.7,7.8,2.8c0.7,0.1,1.1,0.4,1.6,0.6c0.4,0.3,0.7,0.6,1,1c-0.1-0.1-0.2-0.1-0.3-0.1
			c0.1,0.1,0.2,0.2,0.4,0.3c0.3,0.5,0.6,1,1,1.5c-0.2-0.5-0.5-1-0.8-1.3c0.4,0.3,0.9,0.6,1.5,0.9c0.6,0.4,1.1,0.8,1.8,1.2l-0.4,1.3
			c0.1,0.1,0.2,0.1,0.3,0.2c0.6,1.3,1.2,0.4,1.4-0.8c0.6,0.4,1.3,0.8,1.9,1c-0.2,0.6-0.1,1,0.2,1.4c0.2,0.4,0.6,0.8,1,1.1
			s0.8,0.8,1,1.2c0.1,0.2,0.2,0.5,0.2,0.7c0,0.3,0,0.6-0.1,0.9c0.4,0.1,0.8,0.5,1.4,1.1c0.3,0.3,0.6,0.6,0.9,1
			c0.3,0.4,0.6,0.8,0.9,1.2c0.6,0.8,1.2,1.5,1.9,2.1c0.6,0.6,1.2,1,1.8,1c-0.2,0.2-0.2,0.7-0.5-0.1c0.2,0.9,0.5,1.8,0.8,2.6
			c0.3,0.8,0.6,1.6,1.2,2.3l-1.3,1.2c0.6,0.5,1.1,1,1.6,1.5l1.6,1.6c-0.1,1.3-0.3,2.2-0.7,2.6c-0.4,0.3-0.9,0.1-1.7-0.9
			c1.5,2.5,2,3.7,2.3,4.7c0.3,1,0.7,1.9,1.9,4.3l-1-0.1c0.1,0.9,0.5,2,0.9,3c0.4,1,0.5,2,0.1,2.6c-0.5,1-0.6,2.7-0.9,4.8
			c-0.1,1.1-0.2,2.2-0.4,3.5c-0.1,0.6-0.2,1.3-0.3,1.9c0,0.3-0.1,0.7-0.1,1c-0.1,0.3-0.1,0.7-0.2,1c-0.9,5.4-3,11.5-6,15.4
			c1.8-0.2,1,0.7-0.1,1.8c-0.5,0.5-1.1,1.1-1.4,1.7c-0.4,0.5-0.5,1,0,1.4c-0.9,0.1-2,1.1-1.7-0.6c-0.2,0.6-0.5,1.1-0.8,1.6
			c-0.3,0.5-0.6,0.9-0.9,1.3c-0.6,0.8-1.2,1.4-1.7,2c-0.6,0.6-1,1.2-1.4,1.9c-0.4,0.7-0.7,1.4-0.9,2.4c-0.9-0.1-0.1-1.5-0.8-1.4
			c-0.1,0.2-0.2,0.6-0.4,0.9c-0.2,0.3-0.5,0.7-0.8,0.7c-0.7,0.1,0.1-0.9,0.3-1.7c-1.6,1.8-2.1,3.2-2.2,4.3c0,1.2,0.5,2.1,1.1,3
			c-2.7,1-3.5,1.9-4.3,4.2c-0.6,0-1.3,0.1-1.5-0.1c-0.2-0.2,0-0.6,1.2-1.7c-0.8,0.5-3.1,1.9-5.3,3.2c-2.2,1.3-4.2,2.4-3.9,3.2
			c-0.7-0.1-2.4,1-2.8,1.3c-3.9,1.4-4.3,1.4-8.1,2.7l1.2,0c-0.5,1.2-1.3,1.5-2.4,1.7c-1.1,0.1-2.4,0.1-4,0.6l0-0.2
			c-1.9,0-3.1,0.1-3.9,0.2c-0.8,0.1-1.2,0.2-1.6,0.4c-0.8,0.2-1.6,0.5-5.4,0.1l0.5,1.2c-0.2,1.4-2,1.2-4.2,0.8
			c-2.2-0.4-4.9-1.1-7.1-0.4l1.6,0.6c-2.4,1.1-7-3.3-9.5-3.5c-0.5-0.2,0.8-0.4,1.6-0.6c-6.5-1.3-0.8,1.7-5.6,2.3
			c-0.9-0.9,1-2.3-2.2-2.3c-1.6-0.6-9.3,3.3-13.8,1.7c1,0.6,2,1.3-0.2,1.9c-3.4,0.4-9.4-2.2-12.4,0c-0.4-0.2-0.6-0.4-0.6-0.5
			c-2.6,0.6-8.5,1.2-10,2.4c-2.5-4.3-16.3,2.5-16.3-1.5l-8.1,0.4l0.2-0.4c-5.2-0.2-7,0.8-8.8,1.8c-1.2-0.3-0.3-0.6-0.2-0.9
			c-7.5-0.7-8.3-0.5-14.6,1.5l-0.7-1.3c-1.7,0.8-10.9-2-18.3-0.5c0.1-0.1,0.2-0.4,0.8-0.6c-8.3,1.5-19.9-3.7-22.9,1l-5.5,1.1
			c7.1,0.5-1.1,2,1.8,2.9c-2.8,0.2-7.2-1.5-3.8-1.7l0.5,0.2c1.3-2.4-8.8-1-8.6-2.7c-14-0.1-27.5-1.9-40.6-2.5l1.4,2l-4.6-0.3
			c-1.2-0.5-1.6-1.6,1.7-1.4c-1.7-1.1-5.5,0.7-5.6,1.1c-6.3-1,2.6-2.1,0.6-2.2l-2.7,0l0.6,0.2c-2.2,0.7-2.4,1.5-6.3,1.2
			c-2.5-0.5-1.2-1.2-2.2-1.4c0-0.1-0.3-0.2-1.5-0.1l-5.7-0.4l2.2,1.6c-2.6,0.6-5.4-0.3-2.8,1.5c-1.9-1.4-7.2-1.9-12.4-2.2
			c-2.6-0.1-5-0.2-6.9-0.5c-1.8-0.2-3.2-0.6-3.6-0.9c-3.2,0.3-6.1-0.9-8.6-3.6c0.2,0.4,0.1,1-0.3,1.3c-0.4,0.2-1.2,0-2.3-1.4
			c1.7-0.7,1-2,0.2-3.8c-0.8-1.8-1.8-4.2-1.1-5.9c-0.3,1.4-1.3-0.7-2.2-2.9c-0.9-2.1-1.7-4.2-2.3-1.9c-0.5-3,1.2-0.5,1.4-2.9
			c-1.5-3.3-2.1-7.3-2.4-11.5c-0.3-4.2-0.3-8.6-0.7-13c-0.5-0.1-1.1,1.4-1.9-0.5c0.7-1.6,1.4-3.2,2.2-4.7c-0.2-1.7-2.7-1.7-1-4.8
			c-0.4,0.4-1,1.1-1.1-0.1c0.8-4.3,1.4-8.7,2.2-13c0.8-4.3,1.8-8.6,3.3-12.7c1.5-4.1,3.5-8,6.2-11.3c2.7-3.3,6-6.1,9.8-7.5
			c-2.2,0.5-1.2-0.4,0.2-1.4c-1,0.5-0.6-1-1.2-1.3c0.5-0.2,1.1-0.4,1.7-0.6c0.6-0.2,1.1-0.4,1.7-0.5c1.1-0.2,2.2-0.5,3.3-0.5
			c0.1-0.5,0.6-0.9,1.2-1.2c0.7-0.2,1.5-0.5,2.3-0.6c0.8-0.1,1.6-0.2,2.2-0.3c0.6-0.1,1.1-0.3,1.3-0.7l-1,0.1l-0.5,0.1l-0.5,0.1
			c1.3-1.1,0.4-2.1-1.2-3.1c-0.4-0.2-0.8-0.5-1.3-0.8c-0.4-0.2-0.8-0.4-1.2-0.6c-0.8-0.5-1.3-0.9-1.4-1.6c-1.7,1.5-4.3,1.7-7.4,2.5
			c-2.9,0.8-6.2,2.5-7.5,5.8c-1.4,0.6,0.4-1.4-0.6-1.3c-0.3,0.9-0.7,1.9-1.4,2.8c-0.8,0.9-1.7,1.9-3.1,3.2l0.1-0.5
			c-3.2,4.1-5.2,7.1-7.2,10.4c-0.5,0.8-1,1.7-1.5,2.5c-0.5,0.9-1,1.8-1.5,2.8c-0.5,1-1,2-1.5,3.2c-0.5,1.1-1,2.4-1.5,3.7l1.4-0.5
			c-0.9,2.3-1.3,2.7-1.9,3.7c0.6,1.6,1-0.1,1.5-1.7c0.5-1.7,1.1-3.3,1.7-1.8c-1.7,1.2-2.8,5.3-3.6,9.4c-0.7,4-1.2,8-2.7,9
			c-0.3,3.7,1.5-1,1.2,2.7c-0.3,0.3-0.6,0.6-0.8,0.9l1,1c-0.3,2.4-1.2,3.6-1.9,3.7c0.1-0.6-0.2-1.7-0.2-2.3
			c-0.5,1.6-0.4,3.8-0.2,5.8c0.2,2,0.5,3.7,0.4,4.2c0.1-1.2,0.2-2.4,0.3-3.6c0.5,5,0.9,10.6,1.7,16.1c0.9,5.5,2.1,10.8,4.1,15.3
			l0.4-0.9c1.5,3.4,1.9,4.9,2.2,6.5c0.2,0.8,0.4,1.6,0.8,2.8c0.4,1.1,1,2.5,2.3,4.4l-0.3-0.2c1.4,1.2,3,3,4.7,4.9
			c-1-0.6-0.6,0.4,0,1.4c0.5,1,1.1,1.9-0.4,1.1c2.1,1.4,3.5,2.1,4.4,2.4c1,0.4,1.5,0.4,1.9,0.4c0.4,0,0.8-0.1,1.4-0.1
			c0.6-0.1,1.5-0.1,3-0.2c0.3,0.4,0.7,0.9,1,1.3c1-0.2,1.6-0.4,2.5-0.5c0.8-0.1,1.9-0.1,3.9,0c-1.7,0.2-1.1,0.7-0.5,1.1
			c0.5,0.4,1.1,1-0.9,1.3c2.2,0.8,4,1,5.7,1.1c1.6,0,3-0.1,4.2-0.3c2.5-0.3,4.5-0.5,6.2,1.2c3.9-2.5-7-1.8-4.9-2.3
			c-1.7-1,3.2-1.9,5.8-1.4c2.6,0.2,4.3,3.6,10.9,3.9c-0.7,0-0.7,0.2-1.4,0.1c2.4,0.8,4.9-0.7,7.8,0.5c1.8-1.6,3.9,0.2,4.5-1.8
			l-6.1,0.2c3.4-0.4,6.7-2.7,12.3-1.3c-0.4,0.4-2.2,0.9-3.3,1.1c1.6,0.7,3.2-0.3,4.9,0.4c-0.6,2.1-7.3,0.2-11.1,1.6
			c1.7,0.9,7-1.2,5.1,0.9c2.8-2.8,6.5,0.6,11-1.4l-0.3,1.2c0.7-0.2,2.2-0.7,3.5-0.6l-2.4,1.5c3.7-1.3,6.9,1.4,10.4,0.8
			c-7.3-0.2-1.6-1.6-4.6-2.6c9-1.4,5.1,3.4,15.1,3.1c-1.4,0.1-5.1-0.9-2.9-1.4c1.9,0.3,4.4,0.8,5.6,1.5c6.7-0.1-1-1.3,1.8-2
			c2.2,1.6,3.3-0.6,6.2-1v1.3c7.5,0.9,2.1-2.6,8.8-1.5l-2.9,1.7l3.6-0.4l-0.8,1.4c3.9-1,5.1-0.7,8.9-0.3c-0.9-0.9,0.5-2.3,3.9-2.3
			c2.3,0.8-1.3,1.2,3.5,1.1c-1.1,0.8-2.3,1.8-4.3,0.6c-0.2,0.4-1.1,0.8-1.3,1.2c2.4,0.9,6.2,0.3,7.9,0.3c-0.7-0.1-1.4-0.1-1.9-0.3
			l6.9-1.7c1.1,0.5,0.2,0.9-0.6,1.2c1.4-0.1,2.4-0.7,4.4-0.8c-0.5,1-0.4,2.1-3.3,2.5l6.6-1.1c0.4,0.4,3.4,1.2,2.5,1.6
			c3.6,0.6,8.9-2,13.8-1.2c0.2-0.2,0.8-0.4,1.8-0.6c4.5,0.2,8.6,1.4,13.9,0l3.1,1.8c4.2-0.5-4.1-2.3,2.8-3c4.9-0.6,1.9,1.5,3.6,2
			c2.5-1,6.7-2.9,11.3-1.5C219.7,143.9,218.5,143.6,217.2,143.7L217.2,143.7z M269,141.4c-1,0.3-3,1.2-3.7,0.5
			C266.3,140.4,267.2,141.1,269,141.4z M344.2,116.5c-0.2,0.9-1.3,1.5-2.6,2.1C342.2,117.9,343.1,117.2,344.2,116.5z M225.3,16.7
			c0,0,0.1,0,0.1-0.1C227.6,17.2,226.9,17,225.3,16.7z M220.7,15.9c-0.5,0.1-0.4,0.3-0.3,0.5c0.3-0.3,1.4-0.3,2.6-0.1
			C222.7,16,222.1,15.7,220.7,15.9L220.7,15.9z M72.7,130.3l0.9,0.4C71.6,130.9,72.2,130.6,72.7,130.3z"/>
		<path class="st0" d="M338.2,124c-0.4,0-0.6-0.1-0.8-0.3C337.2,124.2,337.4,124.4,338.2,124z"/>
		<path class="st0" d="M184.9,144.7c-0.1,0-0.1,0-0.2,0c-0.1,0.1-0.1,0.1-0.2,0.2L184.9,144.7z"/>
		<path class="st0" d="M293.1,8.5c1,0.2,1.5,0.5,1.8,0.7C294.9,9,294.5,8.7,293.1,8.5z"/>
		<path class="st0" d="M196,16.9l3-0.2c-1.4,0-1.9-0.3-2.7-0.5C196.4,16.5,197,16.9,196,16.9z"/>
		<path class="st0" d="M170.6,7.9c-0.4,0.1-0.9,0-1.4,0.1l0.1,0.6C171.2,8.7,172.5,8.3,170.6,7.9z"/>
		<path class="st0" d="M193.5,12.6c-0.2-1.1-2.1-0.8-4.2-0.7c0.1,0,0.2,0,0.4,0C189,13.4,191.2,13,193.5,12.6L193.5,12.6z"/>
		<path class="st0" d="M188.8,11.9c-0.6,0-1.3,0-1.9-0.1C186.6,12.4,187.7,12,188.8,11.9z"/>
		<path class="st0" d="M214.8,16.3c-1-0.3-0.7,1.3-1.2,0.9C212.4,18.5,220.2,15.9,214.8,16.3z"/>
		<polygon class="st0" points="191.9,9 192.6,10.4 193.9,9.4 		"/>
		<path class="st0" d="M208.3,10.8l-3.3-0.5c0,0.2-0.4,0.3-0.9,0.4C206.2,10.8,208.4,11.1,208.3,10.8z"/>
		<path class="st0" d="M204.1,10.6c-1.1-0.1-2.1-0.1-2.7,0.1C202,10.7,203.2,10.8,204.1,10.6z"/>
		<polygon class="st0" points="196.5,8.9 197.5,9.2 199.8,9.4 		"/>
		<path class="st0" d="M244.1,12.6l3.6-0.2c0.4-0.4-0.6-0.8-1.9-0.6C244.9,12.1,243.5,12.2,244.1,12.6L244.1,12.6z"/>
		<path class="st0" d="M233.3,8.6c1,0.3,1,0.6,1.6,1.1L235,8L233.3,8.6L233.3,8.6z"/>
		<path class="st0" d="M243.9,8.7c0.4-0.4,5.3-1.1,0.7-1.2C244.2,7.9,240.6,8.2,243.9,8.7z"/>
		<polygon class="st0" points="298.5,13.2 297.5,13.2 297.5,15.9 		"/>
		<path class="st0" d="M348.9,20.6c-1.7-2-2.2-1.9-2.6-1.7c-0.4,0.1-0.8,0.3-2.4-1.4c-1.3-0.2,2.6,2.7,1.3,2.4
			C347.7,21.5,348.7,22.9,348.9,20.6z"/>
		<path class="st0" d="M345.1,20c-0.5-0.2-0.9-0.4-1.5-0.6C344.4,19.8,344.9,19.9,345.1,20z"/>
		<path class="st0" d="M54,24.8l1,0.2l0.5,0.1l0.5,0.2c-0.4-0.3-0.8-0.6-1.3-0.8C54.7,24.4,54,24.8,54,24.8z"/>
		<path class="st0" d="M58,22.7c0.1,0.6,0.2,1.2,0.3,1.8c0.5-0.5,1-0.9,1.5-1.3C59.2,23.2,58.3,23.2,58,22.7L58,22.7z"/>
		<path class="st0" d="M276.8,144.5l0.2-0.4c-0.5-0.4-1.1-0.4-2.4-0.4L276.8,144.5L276.8,144.5z"/>
		<polygon class="st0" points="239.1,144.6 239.8,144.6 238.5,143.1 		"/>
		<path class="st0" d="M207.5,147.2c1.3,0.1,2.8-0.3,4.1-0.3C208.8,147.2,207.2,145.2,207.5,147.2z"/>
	</g>
</g>
</svg>
