<?xml version="1.0" encoding="UTF-8"?>
<svg id="Capa_1" data-name="Capa 1" xmlns="http://www.w3.org/2000/svg" viewBox="0 0 377.21 152.38">
  <defs>
    <style>
      .cls-1 {
        fill: #4f616f;
      }

      .cls-1, .cls-2, .cls-3 {
        stroke-width: 0px;
      }

      .cls-2 {
        fill: #acd371;
      }

      .cls-3 {
        fill: #fffaf0;
      }

      .cls-4 {
        opacity: .3;
      }
    </style>
  </defs>
  <g>
    <path class="cls-2" d="M56.93,17.31c-15.12-3.34-30.49,10.06-37.41,28.59-6.92,18.53-6.49,40.86-2.09,60.75,1.84,8.33,4.57,16.8,9.72,21.98,5.74,5.77,13.35,6.4,20.49,6.78,77.82,4.11,155.75,4.38,233.59.92,15.93-.71,32.16-1.65,47.14-9.03,14.98-7.38,28.79-22.32,33.58-42.94,5.62-24.19-3.61-53.06-20.48-64.02-9.75-6.33-20.9-6.94-31.7-7.44-56.48-2.6-112.96-5.19-169.44-7.79-27.4-1.26-55.69-2.33-81.24,11.16"/>
    <g>
      <path class="cls-2" d="M62.95,21.62c-1.1.43-.2,1.23-.26,1.49,1.62-1.06.09-1.73.26-1.49Z"/>
      <polygon class="cls-2" points="80.41 12.33 80.18 12.85 82.79 11.07 80.41 12.33"/>
      <path class="cls-2" d="M98.96,9.18c-.98-.85-2.7-.59-4.58-.15-1.87.52-3.89,1.17-5.6,1.14l-.62-.32-1.2,1.79c3.89-1.08,9.07-2.69,12-2.46Z"/>
      <path class="cls-2" d="M109.22,12.66c-.64-.71,2.13-.74-2.32-.12.23.07.29.11.43.17.4-.03.95-.05,1.9-.04Z"/>
      <path class="cls-2" d="M107.32,12.7c-1.96.14,1.31.56,0,0h0Z"/>
      <path class="cls-2" d="M116.44,12.07c-.87.23-1.75.43-2.61.68.54.41,2.87.53,2.01.84,2.67-.36,2.13-.8.6-1.52Z"/>
      <path class="cls-2" d="M118.94,10.68l-1.37.28c.24.18.6.25,1.37-.28Z"/>
      <path class="cls-2" d="M114.68,11.55l2.89-.59c-.38-.31-.42-.93-1.33.21.24-.56-.34-.02-1.56.38Z"/>
      <path class="cls-2" d="M113.05,11.29c-1.47-.38-3.39-.61-.76-1.32-2.52.17-3.57.62-3.37.95.19.31,1.64.55,4.14.37Z"/>
      <path class="cls-2" d="M99.75,7.12c-.68-.15-1.36-.24-2.04-.36l-1.65.82c.83-.41,3.87.09,3.69-.47Z"/>
      <path class="cls-2" d="M132.89,13.43c.18-.4-.85-1.12-1.03-1.64l-1.99.39c1,.32,2.91.65,3.02,1.26Z"/>
      <path class="cls-2" d="M131.86,11.78l2.98-.58c-2.64-.19-3.13.13-2.98.58Z"/>
      <path class="cls-2" d="M119.43,8.56l-4.81,1.46c1.9-.49,3.82-1,5.75-1.47h-.93Z"/>
      <polygon class="cls-2" points="144.23 13.98 142.49 14.84 145.57 13.56 144.23 13.98"/>
      <path class="cls-2" d="M151.79,14.16c-1.29.72,1.65,1.39.31,1.81,2.06-.04,3.84-.63,5.45-1.16-1.69.26-3.47.09-5.75-.65Z"/>
      <path class="cls-2" d="M160.23,14.06c-.85.15-1.73.44-2.69.75.9-.14,1.79-.36,2.69-.75Z"/>
      <path class="cls-2" d="M139.89,11.63c.22.26.63.92,2.29,1.27l-1.12-1.19c-.36-.02-.76-.05-1.17-.07Z"/>
      <path class="cls-2" d="M141.02,11.66l.04.04c1.27.09,2.15.15,2.53.18-.32-.03-1.1-.09-2.57-.22Z"/>
      <path class="cls-2" d="M139.6,11.61c.11,0,.19.01.29.02-.11-.12-.17-.16-.29-.02Z"/>
      <path class="cls-2" d="M127.13,9.76c1.75-.59,5.41-1.15,1.93-2.24-1.27.74.71,1.36-1.93,2.24Z"/>
      <path class="cls-2" d="M138.21,10.12l-3.15-.4c.05.3.6.77-.28,1.05l3.42-.65Z"/>
      <polygon class="cls-2" points="139.77 9.83 138.21 10.12 139.37 10.27 139.77 9.83"/>
      <path class="cls-2" d="M154.85,12.75c1.39-.43,2.89-.41,4.58-.41-1.8-.31-3.67-.51-5.45-.59-.27.35-1.08.95.86,1Z"/>
      <path class="cls-2" d="M148.14,12.12c.1-.02.22-.04.31-.05-.18-.1-.33-.14-.31.05Z"/>
      <path class="cls-2" d="M176.07,13.11c-.09-.08-.17-.14-.26-.22-.02.07-.04.13-.07.19l.33.03Z"/>
      <path class="cls-2" d="M153.69,11.52c-1.35-.28-2.18-.04-2.97.28,1.02-.07,2.11-.09,3.26-.05.12-.16.15-.26-.29-.23Z"/>
      <path class="cls-2" d="M164.9,13.74c-.7-.27-1.49-.51-2.33-.74.68.39,2.06,1.02,2.33.74Z"/>
      <path class="cls-2" d="M148.89,12.41c-.07.02-.13.03-.21.04.44.27.39.14.21-.04Z"/>
      <path class="cls-2" d="M148.89,12.41c.71-.13,1.27-.39,1.84-.61-.83.05-1.61.14-2.28.28.17.09.33.22.44.34Z"/>
      <path class="cls-2" d="M181.45,6.02c-.29,1.05-3.91,1.86-6.95.58-3.08.65-1.25,4.22,1.32,6.29.12-.46.14-.88,3.29-1.36-1.07-.63-6.88-1.67-4.2-2.5,4.17-.35,3.38.53,5.37,1.18-1.65-1.4,5.36-1.67,4.55-3.65l-3.67.51c-.05-.3,1.29-.72.29-1.05Z"/>
      <path class="cls-2" d="M169.86,12.51l-1.29.07c1.46.25,2.49.72,4.39,1.64,2.17-.42,2.63-.79,2.79-1.13l-6.33-.44.45-.14Z"/>
      <path class="cls-2" d="M162.78,12.32c1.06-1.1,4.17-1.45,2.34-2.78-3.78-.09-2.69.84-4.97,1.23,6.11,0-1.78.56,2.59,1.42-1.21.14-2.29.15-3.31.15,1.09.19,2.14.41,3.13.67-.05-.03-.09-.05-.14-.08h-.03s0,0,0-.02c-.26-.16-.34-.25-.05-.15.02-.01.1-.02.13-.02.05-.16.17-.29.3-.42,1.75.32.26.31-.3.42-.02.06-.07.11-.08.17,0,0,.01.01.02.02l6.14-.35c-1.29-.22-2.91-.26-5.78-.26Z"/>
      <path class="cls-2" d="M132.4,5.16c.19.11.17.19.18.28.4-.13.55-.22-.18-.28Z"/>
      <path class="cls-2" d="M134.88,5.96c-.45.14-.84.59-2.27.41-1.24-.4.03-.55-.02-.93-.88.27-3.07.7-.37,1.37l.44-.14c2.44.49,5.53,2.07,5.09,2.21-.67-1.07-1.27-1.83-2.86-2.92Z"/>
      <path class="cls-2" d="M149.02,8.85l5.11-.33-2.54-1.11.1.6c-2.88-.37-2.29.4-2.67.84Z"/>
      <polygon class="cls-2" points="176.63 13.71 175.9 14.89 178.92 13.31 176.63 13.71"/>
      <polygon class="cls-2" points="183.25 13.87 182.95 14.91 184.73 14.36 183.25 13.87"/>
      <path class="cls-2" d="M242.96,144.07l-1.49.34c.71-.11,1.16-.23,1.49-.34Z"/>
      <path class="cls-2" d="M253.82,143.81l.25-.53c-.49.3-.69.52-.25.53Z"/>
      <path class="cls-2" d="M339.89,27.44c.21.43.36.97.5,1.46.14.49.26.94.39,1.29.25.71.49,1.04.84.56l.41-1.18c-.53-.34-.95-.7-1.29-1.07-.34-.37-.6-.75-.85-1.06Z"/>
      <path class="cls-2" d="M339.28,120.7c.24-.03.48-.08.72-.13.16-.65.31-1.26.42-1.8-.33.58-.71,1.25-1.14,1.93Z"/>
      <path class="cls-2" d="M340.93,125.46c-.97.43-1.94.84-2.95,1.19.73-.16,1.69-.52,2.95-1.19Z"/>
      <path class="cls-2" d="M183.66,146.27l-1.75,1.19c2.74-.02,1.53-.61,1.75-1.19Z"/>
      <path class="cls-2" d="M250.96,16.55c1.86.54,3.34.8,4.66.91-2.23-.77-4.01-1.85-4.66-.91Z"/>
      <path class="cls-2" d="M246.86,131.65c-.91.24-1.29.48-1.25.74.93-.23,1.46-.46,1.25-.74Z"/>
      <path class="cls-2" d="M261.05,17.71c-.33-.13-.65-.2-.98-.32-1.38.13-2.77.22-4.45.07,1.65.57,3.55.97,5.43.25Z"/>
      <path class="cls-2" d="M7.65,74.68c.06-.16.09-.36.16-.51-.15-.06-.17.17-.16.51Z"/>
      <path class="cls-2" d="M42.01,24.89c-.4.35-1.15.73-1.8,1.22.35-.2.92-.49,1.8-1.22Z"/>
      <path class="cls-2" d="M209.82,15.6c-1.41.01-.23.12,0,0h0Z"/>
      <path class="cls-2" d="M203.21,10.7c.3-.12.54-.27.59-.54-.13.27-.33.44-.59.54Z"/>
      <path class="cls-2" d="M275.34,11.15s.07,0,.12,0c-.41-.25-.34-.2-.12,0Z"/>
      <path class="cls-2" d="M207.73,14.97c.52.17,1.12.31,1.78.43-.29-.1-.83-.24-1.78-.43Z"/>
      <path class="cls-2" d="M207.99,15.53c-.48-.07-.86-.12-1.22-.17-.19.18-.03.31,1.22.17Z"/>
      <path class="cls-2" d="M211.77,15.62c-.8-.02-1.55-.11-2.26-.22.27.09.38.16.31.2.41,0,.99.01,1.96.03Z"/>
      <path class="cls-2" d="M83.93,140.55c-.09-.04-.2-.07-.3-.12-1.43.43-.81.37.3.12Z"/>
      <path class="cls-2" d="M366.99,52.21c-.03-.07-.06-.1-.09-.16,0,.07,0,.16,0,.23l.08-.07Z"/>
      <path class="cls-2" d="M368.86,57.39c-1.73-2.07-1.88-3.33-1.95-5.11-.96.83-1.93,1.63-2.9,2.41,1.67.82,3.25,1.73,4.85,2.7Z"/>
      <path class="cls-2" d="M216.97,145.01l3.57.98c-4.25,1.79-7.37,1.25-4.01,2.66.44-3.62,13.8-.64,14.21-4.29l2.36.71c-.67-.02-.77.2-1.44.18,4.59,1.62,3.32-2.68,9.18-2.34,2.05.22,3.49.7,2.11,1.17l4.52-1.03c1.33.03,1.02.67-.3.64l6.93-.51-.05.11c.97-.6,3.18-1.56,4.26-1.98,1.78.46-.87.42-.4.85l3.81-1.01c1.6.88-1.55,1.91-4.21,1.87,3.72,3.49,3.15-1.02,10.98.8l-3.61.6c2.42,1.98,5.22,1.11,9.38,2.22-1.01-.63-8.35-2.89-4.21-3.97,1.19.22,2.74.29,4.96-.53.07,1.29,2.26.88,5,.69l-.11,1.72c2.95-.61,2.69-1.48,4.4-2.33,3.34,0,4.12,1.28,4.98,2.35,5.44-.06-3.87-1.88,2.52-2.61,4.55.33,7.73-.63,13.02-2.42,3.28.11-.4,1.12.82,1.43.88-.58,1.76-1.21,2.62-1.82.7-.09.55.36.47.59,2.29-.98-.1-1.7,3.49-2.92.29-1.05,2.3-.76,4.8-.79,1.25.02,2.62-.11,3.92-.4,1.3-.32,2.51-.89,3.44-1.8,1.27,0-.15,1.19.42,1.67,1.42-.96,2.43-1.61,3.2-2.17.77-.56,1.31-.98,1.82-1.38.51-.4.96-.83,1.53-1.42.56-.6,1.28-1.28,2.17-2.39l2.24-.69c.74-.25,1.47-.53,2.21-.8-1.76.41-1.93-.32-1.41-1.51.54-1.16,1.69-2.88,2.71-4.45-1.28.19-2.36.32-3.01.49l1.93-2.02,1.81-2.11c.69-.21.66.58.42,1.71.2-.35.39-.69.52-.97.96-.41,1.39-.3,1.56.17.16.46.03,1.25-.24,2.08-.76.2-1.52.37-2.26.52-.44,1.69-.87,3.41-.02,4.04.19-.39.69-.97,1.28-1.54-.13.45-.18.8.07.83.28.03.54-.66,1-1.63.75.2,1.51.39,2.28.58l-.24-.79c1.14-.7,2.21-1.49,3.33-2.24,1.08-.79,2.14-1.63,3.22-2.46.59-1.41,1.1-2.79,1.55-4.21.41-1.45.88-2.86,1.28-4.39.42-1.52.92-3.07,1.44-4.77.58-1.66,1.15-3.49,1.94-5.44.29,2.5,1.83,1.44,3.27,2.27-.68.34-1.17.9-1.58,1.62-.4.72-.72,1.6-1.1,2.53-.37.93-.7,1.99-1.21,2.99-.5,1-1.07,2.01-1.83,2.9,1.54-1.87,1.88-1,1.75-.32.58-1.32,1.18-2.59,1.65-3.94.5-1.33,1-2.64,1.39-3.99.55.41.98.14,1.47-.45.24-.29.5-.66.79-1.07.27-.41.57-.86.93-1.3-1.57.17-1.28-1.41-.63-3.46.3-1.04.7-2.2,1.06-3.31.3-1.13.55-2.21.61-3.06.46.04.85.31.94,1.06.06.74-.07,2.01-.97,3.88.44-.44.77-.88.99-1.31.2-.44.32-.87.36-1.3.1-.85-.06-1.67-.23-2.48-.37-1.63-.86-3.18.49-5.11-.18.98-.48,1.44-.13,1.94-.05-1.21.26-3.16.71-4.64.22-.74.47-1.36.69-1.72.2-.35.4-.43.55-.07-.03.33-.1.66-.15.99.22-.81.32-1.74.47-2.74.13-1,.28-2.07.37-3.18.06-2.22.2-4.57-.07-6.73-.1-1.08-.22-2.11-.37-3.05-.2-.94-.42-1.79-.66-2.52-.48-1.45-.98-2.41-1.61-2.57.29-.11,2.83.51,3.31.88-1.45-1.84-3.08-3.56-4.6-5.21-1.68-1.61-3.23-3.15-4.96-4.55,1.08.21,2.49-.86,3.93-1.44.72-.29,1.45-.44,2.17-.2.72.23,1.42.86,1.96,2.16-.02-1.62-.29-3.64-1.91-6.65.09,1.14-1.95,3.38-2.51,2.05.48-2.2.44-2.95.43-3.81-.05-.86-.12-1.84-.28-4.47.26,1.66-3.27,1.18-4.17-1.08.59.15,2.64-1.51,3.31-.78-.88-.78-1.87-1.48-2.79-2.19-.94-.7-1.83-1.39-2.84-2,1.29,1.04,2.36-1.03,2.29-2.75-.08.45-.77-.78-1.72-2.23-1.01-1.42-2.12-3.15-2.84-3.71.46.85.78,1.77,1.17,2.64-.51-.77-.99-1.42-1.52-1.92-.55-.49-1.08-.87-1.6-1.17-1.06-.59-1.99-.94-3.06-1.13-1.04-.21-2.05-.39-3.11-.8-.51-.23-1.1-.43-1.71-.73-.6-.31-1.23-.7-1.91-1.22.5-.02,1.47-.49,1.98-1.26.26-.39.39-.85.28-1.38-.11-.54-.48-1.15-1.26-1.71-1.16.19-3.74.79-6.57,1.53-2.85.7-5.87,1.51-8.65,1.45-.27-.37-.54-.75-.84-1.1-1.47.03-2.93.1-4.4.23,1.49-.95,4.32-2.34,7.6-3.26,3.26-.94,7.02-1.31,9.67-1.05-2.32-1.8-.27-1.38-4.34-2.87-.58-.63.07-.76,1.05-.62.97.16,2.26.53,2.87.8-3.11-1.6-6.37-2.82-9.61-3.75.01.93-1.95.93-3.83,1.04-1.9.08-3.73.25-3.65,1.01,3.42-.2,6.96-.17,10.63.27-.05.92-1.91,1.67-4.41,2.13-2.52.47-5.67.71-8.81.25-1.55-.87,1.53-3.06,1.49-3.66-.95.47-6.25.63-6.8.19.92-.26,1.84-.53,2.79-.78-3.57-.94-5.94,2.03-10.01.13-1.43-.18-4.18-2.51-4.48-1.46,2.25,2.16,2.42,8.51.78,9.98-.5-.16-7.46-2.3-9.05-3.39-2.29-1.71,3.73-3.66,1.78-5.14-.11.49-1.44,1.03-2,1.2-1.49-.49.69-1.49-2.59-1.42-.63,1.79-6.66-.46-1.62,1.47-3.23.37-3.39-.53-7.16-.62,1.15,1.23-3.57,3.85-6.8,4.22.21-.45-.48-1.09-.82-1.38-6.57-.47-10.06-1.45-16.19-1.75-.54-.47-3.48-1.14-2.18-1.86-.9.28-1.73.86-3.63.82-3.59-1.74,4.23-.05,1.52-2.07-.29,1.05-4.96,1.23-7.68,1.77.75,1.67,6.21.6,8.94.06-.09,2.25-4.9,4.4-11.35,5.14-5.12.33-2.14-1.56-3.04-1.28-9.55-.83-8.33,3.56-16.2,1.57-3.09-1.58-.01-2.86-.66-3.93,4.17-.35,6.33,1.2,9.14,1.28l-3.43-.84c1.34-.42,4.13-.65,5.62-.17-2.58-1.41-16.15-.99-23.48-2.52-1.33.42-3.62.81-2.58,1.44l2.34-.09c2.09,1.26-4.47,1.4-1.54,2.08-3.17.67-6.74,1.79-11.12.93l-.75-1.68c.07.48,2.84,1.11,4.1.67-1.87.64-6.66-2.53-8.77-.48l3.04,1.28c-3.18.68-7.15,2.24-11.04,1.54,1.7,1.7.91-.14,3.6,1.88-2.3-2.46,9.99.56,6.24-2.09,2.75,2.33,4.89,1.16,8.53,3.2-.09-.54-1.27-1.09,2-.68.16-.15.51-.34.74-.44.1.02.13.03.22.05-.06-.03-.11-.05-.18-.07.15-.07.16-.09-.07-.03-.77-.27-1.39-.59-1.63-.9,1.69-1.16,6.9-.89,8.7-1.45,1.94.35-.84.58.19,1.21l2.68-.84c.21,1.21,5.08,2.23.46,2.72l4.13.24c2.4.78,5.73,1.21,7.81.8,1.94.35,4.98-1.1,3.24-.24l6.51-.45.05.3c6.38.44,13.24-1.38,20.44,1.12,2.16-.2,4.4-.47,7.99.03l.65,1.07c2.78-.24,8.24,1.42,9.48.39,2.85,2.93,13.37,1.22,18.21,1.94l.25-1.35c3.34.23,6.56,0,10.74-.36l-.2-1.21c3.64-.8,9.14,1.18,14.31,1.73-.41.41-1.71.13-2.64-.24,3.04,1.64,6.17,1.65,9.29,1.84,3.07.18,6.19.71,8.01,2.82.68.09,1.18.35,1.61.62.21.14.4.29.58.46.16.18.3.37.43.56-.1-.07-.19-.11-.28-.13.1.09.25.21.4.32.33.5.64,1.03,1.01,1.53-.24-.53-.5-1.02-.78-1.37.4.28.91.6,1.51.93.58.36,1.18.82,1.84,1.2l-.43,1.35c.1.07.17.13.27.2.66,1.33,1.24.45,1.41-.85.66.43,1.33.8,1.94,1.01-.36,1.15.45,1.75,1.19,2.56.75.79,1.63,1.59,1.13,2.95.36.07.85.5,1.42,1.1.28.31.58.65.9,1,.31.37.59.78.91,1.18.61.8,1.27,1.58,1.92,2.17.6.61,1.22,1.01,1.83.98-.25.17-.18.68-.56-.14.25.9.5,1.8.84,2.63.3.85.67,1.64,1.26,2.32l-1.28,1.27.86.77.8.81,1.62,1.66c-.12,1.32-.33,2.27-.7,2.62-.37.35-.87.09-1.76-.91,1.56,2.58,2.03,3.73,2.37,4.76.32,1.05.7,1.95,1.95,4.36l-1.07-.13c.19,1.75,1.88,4.56.96,5.7-.49,1.02-.66,2.76-.96,4.93-.13,1.09-.19,2.3-.41,3.56-.08.64-.17,1.29-.26,1.96-.04.34-.09.68-.13,1.02-.07.34-.14.68-.21,1.02-.94,5.53-3.11,11.73-6.15,15.78,1.79-.22,1.05.73-.06,1.81-.54.54-1.13,1.13-1.46,1.68-.36.53-.47,1.03,0,1.43-.94.13-2,1.07-1.72-.62-.25.58-.51,1.11-.78,1.6-.3.47-.6.9-.9,1.29-.6.8-1.18,1.48-1.77,2.09-.57.62-1.05,1.25-1.48,1.94-.43.68-.76,1.46-.95,2.46-.92-.06-.1-1.53-.76-1.44-.07.2-.2.61-.42.97-.22.35-.51.67-.85.7-.67.05.07-.93.34-1.73-1.65,1.86-2.2,3.26-2.24,4.42-.02,1.18.55,2.15,1.12,3.08-2.72,1.05-3.61,1.94-4.38,4.25-.59.01-1.3.09-1.56-.11-.25-.19-.02-.62,1.2-1.72-.76.52-3.18,1.98-5.43,3.24-2.23,1.3-4.28,2.49-4.02,3.3-.71-.14-2.42.99-2.82,1.33-3.95,1.48-4.36,1.42-8.3,2.76l1.19-.04c-.5,1.21-1.34,1.55-2.42,1.74-1.1.14-2.45.15-4.1.6l.05-.23c-1.99.04-3.18.09-3.98.19-.79.11-1.19.26-1.6.39-.8.26-1.6.55-5.55.14l.56,1.23c-.21,1.4-2,1.2-4.26.76-2.26-.42-5-1.08-7.25-.43l1.69.63c-2.45,1.1-7.17-3.38-9.7-3.62-.56-.22.85-.42,1.61-.63-6.67-1.35-.78,1.71-5.68,2.31-.95-.87,1.07-2.35-2.24-2.38-1.67-.66-9.49,3.33-14.07,1.74,1.02.66,2.04,1.32-.23,1.93-3.5.38-9.56-2.3-12.66-.02-.45-.18-.62-.36-.65-.53-2.66.64-8.68,1.21-10.27,2.43-2.58-4.36-16.62,2.54-16.65-1.57l-8.24.36.21-.42c-5.27-.18-7.12.8-8.96,1.8-1.22-.26-.34-.65-.24-.87-7.71-.73-8.47-.55-14.92,1.51l-.68-1.32c-.87.39-3.66-.11-7.17-.52-3.51-.43-7.74-.75-11.52.02.07-.15.23-.41.83-.59-8.51,1.54-20.3-3.79-23.46.98l-5.62,1.12c7.26.47-1.11,2.08,1.87,2.92-2.86.25-7.37-1.55-3.85-1.75l.55.25c1.33-2.48-9.01-1.04-8.78-2.76-14.28-.13-28.15-1.93-41.5-2.51l1.47,2.01-4.66-.29c-1.21-.5-1.58-1.59,1.74-1.38-1.71-1.17-5.61.72-5.72,1.14-6.48-1.03,2.63-2.18.64-2.3l-2.72.04.6.25c-2.23.72-2.46,1.55-6.45,1.28-2.51-.5-1.25-1.26-2.24-1.38.01-.14-.32-.22-1.52-.12l-5.86-.42,2.28,1.64c-2.64.65-5.52-.34-2.89,1.54-1.93-1.45-7.39-1.96-12.67-2.23-2.66-.13-5.13-.23-7.02-.47-1.9-.24-3.23-.58-3.68-.91-3.29.35-6.28-.94-8.8-3.62.22.42.15,1.06-.26,1.29-.4.22-1.25.04-2.32-1.41,1.77-.68,1.05-2.04.23-3.87-.85-1.81-1.8-4.28-1.1-6.04-.33,1.47-1.37-.74-2.27-2.94-.9-2.19-1.73-4.32-2.35-1.97-.53-3.07,1.23-.54,1.47-2.99-1.55-3.37-2.13-7.49-2.44-11.76-.3-4.29-.32-8.78-.76-13.28-.47-.13-1.12,1.44-1.9-.49.74-1.65,1.45-3.26,2.26-4.84-.23-1.76-2.73-1.7-.97-4.91-.41.44-1.03,1.11-1.14-.1.79-4.44,1.45-8.86,2.29-13.26.84-4.39,1.86-8.78,3.37-12.97,1.49-4.15,3.56-8.15,6.31-11.55,2.72-3.39,6.18-6.2,9.98-7.63-2.28.52-1.19-.37.15-1.39-1.01.47-.64-.97-1.18-1.37.55-.25,1.15-.41,1.72-.58.58-.16,1.13-.36,1.7-.49,1.16-.19,2.26-.5,3.37-.51.12-.5.6-.95,1.26-1.27.67-.25,1.5-.51,2.32-.65.83-.07,1.63-.23,2.27-.34.64-.09,1.13-.3,1.33-.72l-1.06.13-.52.06-.52.13c1.34-1.11.42-2.18-1.23-3.17-.4-.25-.85-.51-1.29-.76-.44-.22-.87-.43-1.25-.66-.77-.46-1.38-.97-1.41-1.62-1.75,1.57-4.43,1.71-7.54,2.53-3.01.85-6.3,2.52-7.66,5.96-1.45.61.38-1.45-.6-1.36-.31.95-.69,1.89-1.45,2.81-.77.91-1.73,1.97-3.14,3.23l.07-.5c-3.24,4.17-5.28,7.29-7.4,10.6-.5.85-1.01,1.7-1.54,2.58-.51.9-.98,1.85-1.51,2.86-.55,1.01-.99,2.09-1.5,3.26-.53,1.16-.99,2.43-1.48,3.82l1.46-.48c-.87,2.33-1.35,2.75-1.94,3.81.6,1.61,1.02-.08,1.51-1.78.54-1.69,1.12-3.39,1.77-1.85-1.72,1.18-2.87,5.43-3.64,9.57-.75,4.15-1.26,8.16-2.78,9.16-.29,3.8,1.54-.99,1.25,2.78-.29.32-.56.64-.84.96l.98,1c-.28,2.45-1.25,3.69-1.92,3.78.08-.6-.18-1.72-.21-2.38-.52,1.61-.45,3.92-.25,5.93.21,2.02.5,3.75.4,4.31.07-1.22.23-2.45.35-3.66.94,10.29,1.79,22.84,6.01,32.13l.37-.89c1.55,3.53,1.94,5.01,2.3,6.66.18.82.38,1.67.8,2.81.45,1.13,1.07,2.57,2.37,4.46l-.29-.21c1.45,1.27,3.06,3.09,4.82,4.97-1.05-.63-.58.44,0,1.42.54.99,1.13,1.92-.42,1.1,2.12,1.46,3.57,2.12,4.55,2.47.97.38,1.49.42,1.92.45.43.01.78-.06,1.42-.13.64-.06,1.58-.1,3.11-.21.33.44.67.89,1.02,1.32,1.08-.2,1.66-.42,2.5-.53.85-.11,1.96-.1,4.02-.01-1.73.24-1.13.68-.55,1.17.56.46,1.12.99-.92,1.32,2.21.81,4.14,1.06,5.78,1.09,1.64.03,3.05-.14,4.34-.29,2.56-.29,4.55-.49,6.39,1.19,3.97-2.55-7.17-1.88-4.99-2.36-1.75-.98,3.27-1.89,5.88-1.48,2.67.2,4.38,3.73,11.11,3.96-.67-.04-.72.16-1.39.12,2.49.81,4.97-.73,8.02.54,1.8-1.59,4.01.25,4.59-1.85l-6.19.25c3.52-.4,6.89-2.77,12.61-1.35-.46.41-2.2.91-3.39,1.18,1.66.69,3.26-.29,4.98.41-.57,2.1-7.51.18-11.33,1.65,1.78.96,7.15-1.27,5.18.95,2.82-2.82,6.62.63,11.26-1.46l-.34,1.26c.73-.18,2.24-.73,3.57-.65l-2.46,1.57c3.74-1.29,7.08,1.45,10.65.8-7.42-.19-1.62-1.58-4.73-2.6,9.19-1.41,5.16,3.47,15.43,3.13-1.39.14-5.19-.89-3-1.43,1.94.31,4.51.86,5.69,1.56,6.79-.11-1.01-1.32,1.89-2.04,2.28,1.59,3.35-.57,6.33-1v1.29c7.71.97,2.09-2.64,9.03-1.52l-2.97,1.74,3.64-.4-.77,1.46c3.97-1.04,5.19-.74,9.05-.28-.89-.92.53-2.33,3.96-2.33,2.33.79-1.32,1.22,3.54,1.07-1.1.8-2.31,1.81-4.41.59-.22.42-1.09.8-1.32,1.21,2.51.92,6.32.26,8.08.26-.68-.05-1.49-.13-1.9-.31l7.05-1.74c1.1.49.22.87-.65,1.25,1.43-.13,2.42-.72,4.51-.81-.55,1.04-.42,2.13-3.39,2.6l6.71-1.13c.45.46,3.44,1.25,2.57,1.64,3.72.61,9.13-2.01,14.06-1.24.26-.2.77-.4,1.82-.56,4.63.21,8.75,1.48,14.23-.03l3.14,1.84c4.3-.48-4.25-2.32,2.9-3.11,5.06-.66,1.91,1.58,3.7,2.08,2.51-.99,6.86-2.99,11.54-1.55-1.53.38-2.75.12-4.19.29ZM269.96,142.65c-1.02.31-3.03,1.24-3.81.5,1.11-1.52,2.04-.85,3.81-.5ZM346.86,117.22c-.23.89-1.31,1.57-2.64,2.16.65-.78,1.55-1.46,2.64-2.16ZM225.23,15.25s.08-.03.11-.06c2.26.61,1.46.37-.11.06ZM220.52,14.48c-.49.16-.46.34-.27.53.35-.31,1.41-.28,2.62-.14-.32-.35-.92-.61-2.35-.39ZM69.31,131.27l.91.38c-2.1.28-1.5-.03-.91-.38Z"/>
      <path class="cls-2" d="M340.77,124.88c-.38.01-.59-.13-.79-.28-.21.43-.07.64.79.28Z"/>
      <path class="cls-2" d="M183.98,146.05c-.05-.01-.11,0-.16-.01-.09.08-.14.16-.16.23l.32-.22Z"/>
      <path class="cls-2" d="M294.49,6.94c.97.23,1.5.49,1.85.75.07-.31-.36-.6-1.85-.75Z"/>
      <path class="cls-2" d="M195.28,15.51l3.05-.2c-1.47,0-1.98-.31-2.72-.55.05.3.61.77-.34.74Z"/>
      <path class="cls-2" d="M169.28,6.33c-.45.14-.94-.03-1.39.11l.09.6c1.89.05,3.24-.37,1.29-.72Z"/>
      <path class="cls-2" d="M192.67,11.1c-.19-1.09-2.11-.81-4.25-.71.13,0,.25,0,.38.02-.7,1.49,1.59,1.09,3.87.69Z"/>
      <path class="cls-2" d="M187.92,10.4c-.66.02-1.33.02-1.97-.06-.28.6.79.16,1.97.06Z"/>
      <path class="cls-2" d="M214.47,14.92c-1-.33-.7,1.36-1.25.89-1.19,1.33,6.81-1.36,1.25-.89Z"/>
      <polygon class="cls-2" points="191.11 7.45 191.81 8.83 193.05 7.8 191.11 7.45"/>
      <path class="cls-2" d="M207.87,9.21l-3.38-.53c.04.23-.4.34-.93.41,2.09.14,4.38.51,4.32.11Z"/>
      <path class="cls-2" d="M203.55,9.09c-1.09-.08-2.13-.1-2.75.1.59.01,1.86.03,2.75-.1Z"/>
      <polygon class="cls-2" points="195.77 7.27 196.77 7.59 199.16 7.8 195.77 7.27"/>
      <path class="cls-2" d="M244.41,11.15l3.73-.21c.4-.44-.6-.77-1.99-.65-.9.28-2.29.39-1.74.86Z"/>
      <path class="cls-2" d="M233.35,6.97c.99.32,1.04.63,1.59,1.09l.19-1.65-1.78.56Z"/>
      <path class="cls-2" d="M244.19,7.08c.39-.44,5.45-1.07.74-1.18-.4.44-4.13.65-.74,1.18Z"/>
      <polygon class="cls-2" points="300.02 11.74 299.07 11.72 299.08 14.45 300.02 11.74"/>
      <path class="cls-2" d="M351.55,19.24c-1.71-2.02-2.23-1.91-2.66-1.77-.45.15-.82.34-2.48-1.39-1.34-.2,2.67,2.8,1.32,2.49,2.69,1.5,3.63,2.93,3.82.66Z"/>
      <path class="cls-2" d="M347.73,18.58c-.46-.21-.96-.42-1.5-.6.81.39,1.23.54,1.5.6Z"/>
      <path class="cls-2" d="M50.06,23.52l1.02.18.5.08.48.16c-.41-.35-.86-.59-1.33-.84l-.68.42Z"/>
      <path class="cls-2" d="M54.1,21.45c.11.6.2,1.2.28,1.8.47-.46.98-.91,1.54-1.36-.52,0-1.48.02-1.82-.44Z"/>
      <path class="cls-2" d="M277.98,145.81l.2-.43c-.46-.43-1.12-.44-2.46-.45l2.26.88Z"/>
      <polygon class="cls-2" points="239.43 145.87 240.1 145.89 238.81 144.35 239.43 145.87"/>
      <path class="cls-2" d="M207.13,148.53c1.32.05,2.87-.33,4.2-.28-2.88.34-4.58-1.67-4.2.28Z"/>
    </g>
  </g>
  <g>
    <path class="cls-1" d="M62.82,58.53h.28c1.58.06,3.49.75,3.49,2.37,0,.33-.12.73-.67.73-1.31-.03-1.51-1.35-2.97-1.51-.04,0-.12-.03-.24-.03-5.42.01-9.09,20.74.02,21.05h.2c2.85,0,1.73-3.07,3.99-3.08h.12c.55,0,.95.26.95.72-.04.59-.24.59-.59,1.29-.91,1.62-2.29,2.45-4.43,2.45h-.36c-7.64-.28-7.94-9.09-7.44-13.38.15-3.2,1.83-10.59,7.65-10.6Z"/>
    <path class="cls-1" d="M75.6,58.15c8.79-.02,10.04,23.44,1.33,24.08-.16,0-.32.03-.47.03-3.32,0-5.15-1.64-6.11-4.67-.52-1.98-4.68-19.42,5.25-19.44ZM72.24,76.07c.32,1.09,1.63,4.22,3.61,4.38.2.03.36,0,.47,0,2.65-.2,3.51-4.06,3.86-5.62.63-2.64,1.11-14.88-4.51-14.87h-.32c-5.98.47-3.88,13.7-3.12,16.11Z"/>
    <path class="cls-1" d="M85.93,59.22c.75-1.19,1.9-.14,2.3.32,2.39,5.67,4.03,11.44,6.93,17.34l.38-4.62c.42-4.16.45-7.75.4-11.91.16-.56.87-.83,1.5-.83.47,0,.87.1,1.11.43-.69,7.13-.99,14.71-1.24,22.3l-.04.43c-.08.17-.59.63-.95.63-.36,0-.95-.39-1.11-.62-2.47-6.16-5.26-12.2-7.65-18.39l-.23,18.8c-.91,1.72-2.29.83-2.34-.16l.92-23.72Z"/>
    <path class="cls-1" d="M106.9,68.51c0-2.54-.06-8.94-.1-8.97l-3.17-.09c-1.27-.29-1.75-1.32.19-1.72,3.09.06,6.1-.01,9.3.18,1.78.13,1.67,1.78.52,1.78l-4.31-.06s-.17,10.49-.24,14.75c0,1.35-.15,3.89-.14,5.48v.43c-.31.99-1.94.7-2.22-.23.03-2.34.17-9.17.17-11.55Z"/>
    <path class="cls-1" d="M118.9,59.15c.23-3.04,2.61-2.25,3.29,0,1,3.3,1.76,6.3,6.12,23.77,0,.73-1.18,1.29-1.9.23l-1.44-5.93-5.34.67c-.31,1.55-.58,4.49-.66,5.87-.08.79-1.78.6-1.74,0l1.67-24.61ZM119.7,74.52c-.04.23-.07,1.52-.07,1.78l4.95-.6-3.92-14.67c-.15,2.01-.84,11.45-.95,13.5Z"/>
    <path class="cls-1" d="M130.65,69.29c0-2.61.69-7.66,4.13-9.05,1.98-.8,7.12-.48,7.13,2.16,0,.4-.2.82-.87.83-1.42,0-1.94-1.78-3.96-1.77h-.16c-3.68.17-4.3,4.79-4.29,7.27v.66c.21,3.3.22,5.74,1.06,8.84.4,1.55,1.47,3.2,3.77,3.19h.2c3.6-.17,3.71-4.1,3.59-5.98l-.33-4.88c-1.15,0-2.3.27-3.56.17-.36-.2-.48-1.02-.48-1.05,0-.99,2.73-.8,5.3-.84,1.19.26,1.03,1.91,1.16,3.96v.33c.25,3.59.62,9.7-5.12,9.94-.28,0-.51.03-.79,0-5.34.27-6.74-5.17-6.77-13.78Z"/>
    <path class="cls-1" d="M149.5,59.03l1.8,20.12c.08.63.2,1.15.2,1.75-.04.53-.67.73-1.34.73-.87,0-1.03-.62-1.15-1.25l-1.03-14.48c-.2-2.38-.65-4.75-.57-7.12.04-.83,2.02-.53,2.1.26Z"/>
    <path class="cls-1" d="M157.18,59.08c.23-3.04,2.61-2.25,3.29,0,1,3.3,1.76,6.3,6.12,23.77,0,.73-1.18,1.29-1.9.23l-1.44-5.93-5.34.67c-.31,1.55-.58,4.49-.66,5.87-.08.79-1.78.6-1.74,0l1.67-24.61ZM157.97,74.45c-.04.23-.07,1.52-.07,1.78l4.95-.6-3.92-14.67c-.15,2.01-.84,11.45-.95,13.5Z"/>
    <path class="cls-1" d="M169.92,59.05c.75-1.19,1.9-.13,2.3.33,2.39,5.67,4.03,11.44,6.93,17.34l.38-4.62c.42-4.16.45-7.75.4-11.91.16-.56.87-.83,1.5-.83.47,0,.87.1,1.11.43-.69,7.13-.99,14.71-1.24,22.3l-.04.43c-.08.17-.59.63-.95.63s-.95-.39-1.11-.62c-2.47-6.16-5.26-12.2-7.65-18.39l-.23,18.8c-.91,1.72-2.29.83-2.34-.16l.92-23.72Z"/>
    <path class="cls-1" d="M189.04,57.37h.16c7.13.25,8.13,7.21,8.15,12.03,0,.49-.04.99-.04,1.42-.18,6.27-2.3,11.32-9.03,11.33-.55,0-1.11-.03-1.7-.13,0,0,.03-3.69.06-5.21.11-4.22.29-8.22.48-12.5.04-.56.1-5.38.14-6.01l.04-.2c.04-.56,1.15-.73,1.74-.73ZM188.67,80.69c.32.03.4.03.44.03,5.03,0,5.84-7.07,5.99-9.78.19-3.1,0-11.35-5.57-11.73l-.85,21.48Z"/>
    <path class="cls-1" d="M207.88,57.89c8.79-.02,10.04,23.44,1.33,24.08-.16,0-.32.03-.47.03-3.32,0-5.15-1.64-6.11-4.67-.52-1.98-4.68-19.42,5.25-19.44ZM204.52,75.81c.32,1.09,1.63,4.22,3.61,4.38.2.03.36,0,.47,0,2.65-.2,3.51-4.06,3.86-5.62.63-2.64,1.11-14.88-4.51-14.87h-.32c-5.98.47-3.88,13.7-3.12,16.11Z"/>
    <path class="cls-1" d="M238.83,58.2h.28c1.58.06,3.49.75,3.49,2.37,0,.33-.12.73-.67.73-1.31-.03-1.51-1.35-2.97-1.51-.04,0-.12-.03-.24-.03-5.42.01-9.09,20.74.02,21.05h.2c2.85,0,1.73-3.07,3.99-3.08h.12c.55,0,.95.26.95.72-.04.59-.24.59-.59,1.29-.91,1.62-2.29,2.45-4.43,2.45h-.36c-7.64-.28-7.94-9.09-7.44-13.38.15-3.2,1.83-10.59,7.65-10.6Z"/>
    <path class="cls-1" d="M251.61,57.81c8.79-.02,10.04,23.44,1.33,24.08-.16,0-.32.03-.47.03-3.32,0-5.15-1.64-6.11-4.67-.52-1.98-4.68-19.42,5.25-19.44ZM248.26,75.73c.32,1.09,1.63,4.22,3.61,4.38.2.03.36,0,.47,0,2.65-.2,3.51-4.06,3.86-5.62.63-2.64,1.11-14.88-4.51-14.87h-.32c-5.98.47-3.88,13.7-3.12,16.11Z"/>
    <path class="cls-1" d="M263.01,56.83c.63,0,1.15.66,1.31,1.15.34,7.45.32,15.01,1.13,22.5,1.19-.27,3.2-.7,4.75-.7.71,0,1.35.16,1.35.82,0,.43-.12.76-.79.96-1.34.4-3.13.34-4.51.67-.51.1-1.07.43-1.7.43-.47,0-1.15-.46-1.23-.89-.49-3.96-.3-8.21-.55-12.11l-.54-8.15v-4.19c.19-.36.42-.5.78-.5Z"/>
    <path class="cls-1" d="M277.38,57.76c8.79-.02,10.04,23.44,1.33,24.08-.16,0-.32.03-.47.03-3.32,0-5.15-1.64-6.11-4.67-.52-1.98-4.68-19.42,5.25-19.44ZM274.03,75.68c.32,1.09,1.63,4.22,3.61,4.38.2.03.36,0,.47,0,2.65-.2,3.51-4.06,3.86-5.62.63-2.64,1.11-14.88-4.51-14.87h-.32c-5.98.47-3.88,13.7-3.12,16.11Z"/>
    <path class="cls-1" d="M287.31,69.06c0-1.02-.22-7.03-.3-8.58,0-.33-.25-3.23-.29-3.59v-.13c0-.76,1.03-.96,1.82-.96,5.46-.01,7.41,3.25,7.42,7.05,0,3.04-1.37,4.88-3.9,6.41,4.56,1.67,5.68,7.05,5.69,10.74,0,.59-.43.83-1.15.83-.47,0-.67,0-.87-.53-.2-2.47-.98-9.47-5.57-9.46-.04,0-.32.03-.4.03-.43,3.73-.06,7.49-.33,11.25-.51.59-1.62.63-2.1,0,.03-1.98,0-11.08-.04-13.06ZM289.48,68.26c2.81-.47,4.35-3.04,4.34-5.12,0-1.75-.89-5.38-3.74-5.37-.16,0-1.39,0-1.38.27l.78,10.22Z"/>
    <path class="cls-1" d="M301.58,78.79l-.02-6.53c-.01-4.72-.58-7.75-.59-12.47v-1.68c6.33-.44,7.04-.08,7.04.65,0,.23-.2.73-.47.83h-4.31c-.28,0-.28.17-.28.27,0,3.5.41,6.07.66,9.67.59.13,3.92.02,4.59.02,1.35.03,2.26,1.94.44,1.95h-5.03s.1,7.73.1,7.73c.95.2,5.98-.64,5.98.81,0,.4-.24.79-.75.86h-.2c-1.46.1-7.08.48-7.13-.48l-.04-1.62Z"/>
    <path class="cls-1" d="M313.34,78.7c1.47.2,1.19,1.81,2.78,2.01,2.57.36,3.16-1.16,3.51-2.94.7-3.73-1.48-6.53-3.87-9.63-1.11-1.45-1.71-2.7-1.36-4.55.55-2.61,2.05-4.39,5.33-4.4.28,0,.55,0,.87.03,1.07.1,1.82.29,1.63,1.22-.35,1.62-4.55-1.11-5.45,3.51-.43,2.11.6,2.97,1.95,4.88,2.11,3.03,3.93,5.73,3.23,9.3-.55,2.71-1.89,4.29-5.09,4.3-.32,0-.63,0-.95-.03-1.39-.2-3.8-1.31-3.81-2.67,0-.07.04-.17.04-.23.04-.4.63-.79,1.19-.79Z"/>
  </g>
  <g>
    <g class="cls-4">
      <path class="cls-3" d="M185.33,48.47c14.54.48,28.74-.11,43.13-2.35,3.82-.59,7.52-1.59,10.74-3.87,3.22-2.28,5.54-6.5,4.61-10.51-.88-3.79-4.4-6.32-7.98-7.1-11.37-2.46-22.87-2.34-34.36-2.05-18.54.47-37.82-2.16-56.14,2.05-3.29.76-6.67,1.8-9.17,4.2s-3.86,6.52-2.31,9.71c1.31,2.7,4.19,4,6.88,4.97,14.28,5.16,29.64,6.86,44.6,4.93"/>
      <g>
        <path class="cls-3" d="M184.75,46.17c.35,0,.18-.39.22-.47-.57.15-.19.57-.22.47Z"/>
        <polygon class="cls-3" points="179.04 47.62 179.13 47.45 178.3 47.9 179.04 47.62"/>
        <path class="cls-3" d="M173.57,47.8c.52.71,1.98-.15,2.96.08l.17.15.42-.57c-1.17.13-2.71.54-3.55.34Z"/>
        <path class="cls-3" d="M170.7,46.27c.17.27-.63.21.67.11-.06-.03-.08-.05-.12-.07-.12,0-.28,0-.55-.04Z"/>
        <path class="cls-3" d="M171.24,46.3c.57,0-.37-.23,0,0h0Z"/>
        <path class="cls-3" d="M168.62,46.36l.76-.21c-.15-.16-.81-.22-.56-.33-.77.09-.62.25-.2.54Z"/>
        <path class="cls-3" d="M167.88,46.82l.39-.08c-.06-.07-.17-.1-.39.08Z"/>
        <path class="cls-3" d="M169.11,46.57c-.28.06-.56.13-.83.18.1.12.1.35.38-.06-.08.2.1.01.45-.12Z"/>
        <path class="cls-3" d="M169.57,46.69c.41.17.96.28.19.49,1.45-.04,1.24-.54-.19-.49Z"/>
        <path class="cls-3" d="M173.29,48.51l.57.21.49-.24c-.25.13-1.11-.19-1.07.03Z"/>
        <path class="cls-3" d="M164,45.65c-.06.14.21.41.25.61l.57-.12c-.27-.13-.8-.27-.82-.49Z"/>
        <path class="cls-3" d="M164.25,46.25l-.85.17c.74.1.88,0,.85-.17Z"/>
        <path class="cls-3" d="M167.7,47.58c.47-.14.93-.29,1.4-.46-.55.17-1.11.3-1.66.45h.27Z"/>
        <polygon class="cls-3" points="160.88 45.26 161.39 44.99 160.5 45.39 160.88 45.26"/>
        <path class="cls-3" d="M158.81,45.02c.38-.23-.39-.54,0-.66-.56-.04-1.08.13-1.55.26.48-.03.96.07,1.55.4Z"/>
        <path class="cls-3" d="M156.48,44.8c.24-.02.5-.1.78-.18-.25.02-.51.07-.78.18Z"/>
        <path class="cls-3" d="M162,46.19c-.05-.1-.15-.34-.6-.5l.27.45c.1.01.21.03.32.05Z"/>
        <path class="cls-3" d="M161.69,46.16h0c-.35-.07-.59-.11-.7-.13.09.02.3.05.71.13Z"/>
        <path class="cls-3" d="M162.09,46.2s-.05,0-.08-.01c.03.04.04.06.08.01Z"/>
        <path class="cls-3" d="M165.54,47.05c-.51.18-1.56.33-.59.78.38-.25-.17-.5.59-.78Z"/>
        <path class="cls-3" d="M162.43,46.76c.29.07.58.14.87.19,0-.11-.15-.28.11-.37-.33.07-.65.13-.98.18Z"/>
        <polygon class="cls-3" points="161.98 46.84 162.43 46.76 162.11 46.69 161.98 46.84"/>
        <path class="cls-3" d="M157.9,45.45c-.41.13-.82.05-1.29,0,.48.17.99.32,1.48.38.09-.12.34-.31-.19-.38Z"/>
        <path class="cls-3" d="M159.73,45.85s-.06,0-.09.01c.05.04.09.06.09-.01Z"/>
        <polygon class="cls-3" points="152.06 44.51 152.12 44.6 152.15 44.53 152.06 44.51"/>
        <path class="cls-3" d="M158.16,45.92c.36.14.6.07.84-.02-.29,0-.59-.02-.91-.07-.04.05-.05.09.07.09Z"/>
        <path class="cls-3" d="M155.18,44.75c.18.12.38.23.6.34-.17-.16-.51-.44-.6-.34Z"/>
        <path class="cls-3" d="M159.53,45.72h.06c-.11-.12-.1-.07-.06,0Z"/>
        <path class="cls-3" d="M159.53,45.72c-.2.03-.37.11-.53.17.23,0,.45,0,.64-.04-.04-.04-.08-.09-.11-.13Z"/>
        <path class="cls-3" d="M150.06,46.74c.16-.36,1.23-.44,2,.15.91-.1.62-1.45.06-2.29-.06.16-.1.31-1,.32.24.29,1.79.92.99,1.1-1.19-.07-.9-.36-1.41-.69.36.58-1.62.31-1.55,1.06h1.07c0,.12-.42.2-.16.37Z"/>
        <path class="cls-3" d="M153.74,44.99l.36.03c-.39-.15-.64-.36-1.1-.77-.62.06-.78.17-.85.28l1.72.43-.13.03Z"/>
        <path class="cls-3" d="M155.68,45.33c-.35.36-1.24.37-.81.91,1.05.17.8-.21,1.46-.27-1.7-.21.52-.14-.64-.6.34,0,.64.03.92.06-.29-.11-.57-.22-.83-.35.01.01.02.02.03.03h0s0,0,0,0c.06.06.08.1,0,.06,0,0-.03,0-.04,0-.02.05-.06.1-.1.14-.47-.17-.06-.12.1-.14,0-.02.03-.04.03-.06h0c-.57-.03-1.15-.06-1.71-.12.34.13.78.22,1.58.32Z"/>
        <path class="cls-3" d="M163.94,48.64c-.05-.04-.04-.07-.05-.1-.12.04-.16.07.05.1Z"/>
        <path class="cls-3" d="M163.25,48.32c.13-.05.25-.2.66-.12.34.16-.02.2-.02.34.26-.09.89-.22.14-.49l-.13.04c-.68-.2-1.51-.82-1.38-.87.16.4.3.69.73,1.1Z"/>
        <path class="cls-3" d="M159.35,47l-1.45-.02.67.47v-.22c.79.21.66-.08.78-.23Z"/>
        <polygon class="cls-3" points="151.95 44.27 152.23 43.88 151.3 44.29 151.95 44.27"/>
        <polygon class="cls-3" points="150.15 43.88 150.31 43.52 149.79 43.63 150.15 43.88"/>
        <path class="cls-3" d="M212.99,20.17l.43-.1c-.21.03-.34.07-.43.1Z"/>
        <path class="cls-3" d="M209.87,20.14l-.08.19c.14-.11.2-.18.08-.19Z"/>
        <path class="cls-3" d="M153.15,25.7c.65.28,1.39.75,1.26.33l-.24-.39c-.41.13-.74.12-1.02.07Z"/>
        <path class="cls-3" d="M184.55,22.37c-.06-.04-.12-.09-.18-.13-.15.14-.3.27-.43.39.18-.08.39-.17.61-.26Z"/>
        <path class="cls-3" d="M185.03,20.64l.81.29c-.18-.1-.44-.2-.81-.29Z"/>
        <path class="cls-3" d="M230.2,20.87l.57-.35c-.8-.12-.48.15-.57.35Z"/>
        <path class="cls-3" d="M135.62,36.72c.08-.38.12-.66.13-.9-.23.43-.5.87-.13.9Z"/>
        <path class="cls-3" d="M211.75,24.62c.26-.08.37-.16.36-.26-.27.07-.42.15-.36.26Z"/>
        <path class="cls-3" d="M135.82,34.76c-.05.06-.08.12-.13.19.04.28.08.55.07.87.17-.33.28-.65.06-1.06Z"/>
        <path class="cls-3" d="M208.49,50.63s-.1-.02-.14-.04c-.01.06.05.06.14.04Z"/>
        <path class="cls-3" d="M190.54,46.76c.17-.02.46-.02.73-.02-.13-.03-.35-.03-.73.02Z"/>
        <path class="cls-3" d="M143.12,41.58c.38.1.07-.02,0,0h0Z"/>
        <path class="cls-3" d="M144.41,43.76c-.09.02-.17.06-.21.15.06-.09.13-.13.21-.15Z"/>
        <path class="cls-3" d="M134.65,30.64l.02-.03c-.13.06-.11.05-.02.03Z"/>
        <path class="cls-3" d="M143.61,41.95c-.12-.1-.27-.19-.43-.28.07.06.2.14.43.28Z"/>
        <path class="cls-3" d="M143.6,41.74c.12.06.22.11.31.15.07-.05.04-.11-.31-.15Z"/>
        <path class="cls-3" d="M142.6,41.43c.21.07.4.15.58.25-.06-.05-.09-.08-.06-.09-.11-.03-.26-.08-.52-.16Z"/>
        <path class="cls-3" d="M240.87,42.56s-.06.02-.1.03c-.23.43-.1.28.1-.03Z"/>
        <path class="cls-3" d="M163.12,20.45s-.03.02-.05.02c.02,0,.04,0,.06.01l-.02-.03Z"/>
        <path class="cls-3" d="M164.57,20.08c-.6.54-.95.49-1.43.4l.53,1.19.9-1.59Z"/>
        <path class="cls-3" d="M220.51,20.27l-1.01-.43c1.27-.56,2.17-.3,1.23-.88-.22,1.29-4.03-.05-4.21,1.27l-.67-.29c.19.02.23-.06.42-.04-1.3-.65-1,.92-2.68.72-.59-.11-1-.3-.59-.45l-1.31.32c-.38-.03-.29-.25.09-.23l-1.99.11v-.04c-.27.21-.91.53-1.22.67-.51-.18.25-.14.12-.3l-1.1.33c-.45-.33.45-.68,1.22-.64-1.05-1.3-.91.34-3.14-.39l1.04-.18c-.68-.74-1.49-.45-2.68-.89.29.24,2.38,1.12,1.19,1.47-.34-.09-.78-.13-1.42.15-.02-.47-.64-.34-1.43-.29l.04-.62c-.84.2-.77.51-1.26.8-.93-.05-1.14-.52-1.36-.92-1.49-.08,1.04.75-.72.9-1.24-.21-2.11.03-3.61.4-.87-.21.15-.38-.16-.56l-.78.49c-.19-.01-.13-.17-.1-.24-.65.18-.06.62-1.09.77-.29.67-2.09-1.02-3.38-.28-.31-.18.16-.38.07-.62-1.76.47-1.5.34-2.96.99l-1.22-.44c.89.49-.28,1.01-1.3,1.43.31.23.58.44.76.53l-1.62.29c-.19-.11-.02-.31.25-.57-.11.05-.22.1-.3.14-.57-.24-.26-.59.16-.93.19.13.38.27.57.4.41-.37.79-.77.72-1.14-.11.07-.31.12-.53.15.11-.1.17-.19.13-.25-.05-.07-.22.07-.49.22l-.35-.7-.1.27-2.1-.49c-1.53.65-2.86,1.65-5.26,1.89.6-.5.14-.82.18-1.42.64.64,1.86-.23,3.1-.08-.65-.08-.5-.36-.33-.46l-2.23.53c.06-.49-.46-.38-1.04-.59.42.97-1.67.62-2.57.91-.05-.33.17-.66,1.27-.56-1.21-.75-1.58,1.12-2.77.5.27,0,.41.04.52-.12-.63.29-2.17.06-1.81-.22h.27c-1.79-.13-5.46.05-5.7.9-.02-.11.2-1,.31-1.17-1.04.96-2.07,1.92-3.07,2.89.25-.72-.92-2.35.55-2.82-.43-.09-.97-.17-1.86.13.3.08.78.98.39,1.06-1.14-.72-.78-.37-2.18-.96.45.13.04,1.25-.65,1.28.09-.17-.14-1.09.1-1.22l-1.62,1.24c.41-.23,0-.93-.42-1.2.2.2-1.5.1-1.94.29l.76.16c-1.97.08-1.73,1.75-3.63,1.94.19-.26.38-1.46-.62-1.44-.37.64-1.55,2.94-3.08,3.68l-.37-.25-1.18.61c.3-.49.91-1.28,1.6-2.07.69-.78,1.47-1.51,2.04-1.96-.77-.13-.26-.34-1.35-.13-.44-.23.52-.54.84-.61-.86.08-1.73.14-2.58.27.24.62-1.81,1.04-1.59,1.55l2.6-1.23c.22.62-1.23,2.14-3,2.39-.51-.16.08-1.2,0-1.4-.18.25-1.59.81-1.8.7l.68-.53c-1.08.02-1.41,1.24-2.79,1.04-.42.09-1.55-.33-1.49.06.98.41,1.83,2.56,1.64,3.22-.14-.03-2.14.13-2.73.08-.43-.08-.4-.51-.31-.94.08-.43.21-.86-.19-.93.06.17-.2.55-.31.7-.48.11-.11-.59-.96.04.2.62-1.75,1.19-.1.73-.69.74-.94.51-1.8,1.36.29.01.34.47.31.99-.03.53-.12,1.14-.29,1.56-.11-.14-.4-.09-.54-.06-1,1.58-1.65,2.51-1.85,4.35-.19.15-.37,1.08-.66.69.11.29.35.53.44,1.12-.16.62-.27.3-.35-.08-.08-.37-.17-.8-.46-.3.36.06.74,1.57,1.36,2.24.21-.24.06-.68-.15-1.19-.2-.51-.46-1.11-.59-1.54.82,0,1.67,1.33,2.73,2.4.39.46.37.62.26.72-.11.09-.31.08-.2.14.7,1.02,1.43,1.04,1.94,1.07.56.02.97.02,1.74.74.52.83-.41.95-.41,1.37-1.15-.34-1.41-1.14-2.02-1.56.2.26.41.5.64.74-.4-.04-1.14-.4-1.35-.8.11.43,1.04,1.18,2.23,1.79,1.18.62,2.59,1.15,3.52,1.68.41-.04,1.08,0,.86-.3l-.65-.15c-.44-.59,1.37-.14.64-.6.93.02,2.01-.11,3.13.47l.05.64c.02-.17-.67-.58-1.06-.51.57-.1,1.59,1.35,2.37.75-.24-.21-.48-.42-.72-.64.93-.02,2.16-.35,3.15.13-.33-.7-.26,0-.82-.87.41,1.01-2.67-.79-1.88.36-.53-1-1.22-.73-2-1.69-.03.19.23.47-.6.09-.06.04-.17.08-.24.1-.02-.02-.03-.02-.05-.03l.04.04s-.05.02.02.01c.18.15.31.31.35.43-.57.28-1.95-.21-2.5-.16-.49-.27.29-.14.08-.43l-.81.08c.07-.43-1.02-1.17.2-.97-.34-.14-.67-.27-.98-.42-.48-.47-1.12-.9-1.6-.99-.32-.29-1.15-.21-.66-.27-.43-.2-.81-.43-1.16-.69l.07-.08c-.39-.47-.83-.9-1.11-1.5-.27-.59-.35-1.38.14-2.08-.05-.44-.09-.96.3-1.66h.4c.04-.3.32-.65.57-.95.26-.3.48-.55.4-.77.6.05.99-.33,1.57-.86.54-.51,1.2-1.08,1.75-1.26l-.18-.46c.73-.33,1.4-.76,2.36-1.29l-.2-.39c.8-.64,2.45-.41,3.98-.75-.07.18-.47.22-.77.18,1.03.29,1.95-.08,2.86-.49.91-.4,1.82-.77,2.72-.56.4-.22.71-.22,1.02-.16-.04,0-.07.02-.1.04.04,0,.11-.01.17-.02.2.05.4.11.62.15-.19-.08-.37-.15-.53-.17.33-.05.81-.16,1.29-.33l.27.44s.07-.02.11-.03c.5.11.36-.27.06-.58.24-.11.45-.23.61-.36.47.69,1.26-.41,1.87.35.29-.42,2.43-.52,2.64-1.36.02.11.17.15-.09.17.56.06,1.12.12,1.6-.14l.27.58,1.16-.87c.75.32,1.06.53.36,1.01,1.72-.77,1.41-.32,2.88-1.07l-.06.39c.53-.04,1.38-.56,1.71-.25,1.21.69,5.93.04,9.01.78-.58-1.14,1.42.53,1.56-.34.17.27.6.43.1.65,1.58-.23,2.35.47,3.46-.24.17.27-.35.38-.19.54.13-.05.51-.22.67-.06.16.16-.24.22-.49.33,1.61,0,1.8-.82,1.93-1.59.81.39,1.22.34,1.82-.15.28.26.75.54-.26.6.56.05,3.44.46,3.52-.16.17.16.79.06.94,0,1.27.06,1.38.13,2.63.08l-.34-.11c.5-.74,1.04-.15,2.05-.23l-.03.08c2.3.56,1-.25,3.27.37l-.12-.46c.21-.99,2.02.58,3.35.17l-.48-.26c.71-.35,2.06,1.33,2.77,1.43.16.08-.24.15-.46.21,1.9.54.23-.61,1.63-.79.27.32-.31.84.63.88.47.25,2.72-1.12,4.01-.5-.29-.25-.57-.5.08-.7,1-.1,2.7.94,3.6.14.13.07.17.14.18.2.76-.2,2.47-.32,2.94-.74.66,1.6,4.76-.63,4.68.86.78,0,1.55.03,2.33.06l-.07.15c1.47.19,2.02-.09,2.58-.41.33.13.07.25.04.32,2.13.51,2.34.47,4.24-.03l.12.5c.54-.21,2.98,1.18,5.14,1.05-.03.05-.09.13-.27.16.59-.02,1.29.12,1.83.32.53.2,1.03.51,1.46.79.88.58,1.5,1.06,2.33.59.45.16.9.35,1.33.6-.6-.69-.46-.78-.16-.8.3-.02.74.08.52-.31.7.49.96,1.87.29,1.19l-.03-.17c-.46.19-.11.65.17,1.17.3.51.55,1.07.26,1.18.73,1.49.67,3.22.09,4.74-.58,1.53-1.6,2.87-2.73,3.97.25.08.52.16.77.23-.28.27-.57.54-.88.78-.34.08-.65-.17-.03-.66-.56-.02-.81,1.1-.78,1.25-1.56.7.08-1.04-.37-.77l-.53.42.17-.02c-.31.54-.19.85-1.13,1.32-.65.18-.49-.23-.74-.15-.02-.05-.11-.03-.36.15-.47.19-.94.36-1.43.52l.78.3c-.54.52-1.41.48-.5.83-.68-.27-2.09.1-3.51.39-1.41.31-2.81.58-3.18.48-.96.55-1.98.7-3.24.82.33.07.6.67-.5.74.23-1.33-2.06-.3-3.05-1.13.86.53-3.06.49-1.74,1.23-.92,0-.11-.48-.83-.71-2.11.72-4.78.14-7.44.48-.03.17.44.4-.12.69l-1.47-.76c-.52.11-.43,1.01-1.43.47.14.14.36.34,0,.41-5.27-.54-10.75,1.07-16.08-.54.72.34.24.36-.31.37.36.08-.01.42.05.65l-2.23-.68c-.42.64-2.4-.01-2.65.59l.71-.09c-.97.69,1.28,1.64,1.12,2.56,1.08-.8,2.79,1.27,4.56.11.39.19-.33.3-.13.51.45-.39.98-.47,1.97-.3l-.11.1c2.79-.1,3.99.27,7.14.46l-.25-.45c.68.04.82.18,1.14.28.75-.72-1.9.02-1.21-.77.92.92,4.75-.15,5.4.87,1.04-.05-.33-.51.71-.56l.29.27.24-.38c.68.02,1.05.36,1.09.6-.17-.02-.47.09-.64.13.9.29,2.48-.27,2.79-.18l-1.01-.11c2.81-.44,6.3-.38,8.97-1.25l-.23-.19c2.03-.62,1.69.05,3.95-.4l-.08.06c.43-.27,1.02-.46,1.65-.52-.54.33,1.15.34.43.72,2.19-.73,1.07-.49,2.43-1.5l.39.3c.46-.4.47-.56,1.59-.84-.89.46.83.42-.16.99,1.29.19,2.17-.21,2.88-.53.71-.33,1.24-.59,1.97-.21.41-.66-.16-.61-.75-.48-.59.13-1.22.34-.94.16-.59-.18.72-.94,1.47-1.09.73-.23,1.7.82,3.62-.09-.19.08-.17.16-.36.24.84-.11,1.22-.98,2.26-1.14.14-.79,1.08-.67.76-1.4-.48.43-.98.82-1.49,1.19.83-.74,1.15-1.95,2.67-2.85.02.2-.22.73-.44,1.05.56-.18.65-.8,1.19-1.04.23.32-.15.8-.7,1.31-.54.53-1.28,1.02-1.6,1.59.67-.02,1.54-1.83,1.56-.79.02-.71.44-1.03.92-1.43.48-.4,1.03-.89,1.13-1.74l.32.35c.08-.25.2-.76.42-1.14.04.33.06.67.06,1,.15-.66.55-1.11.95-1.6.4-.48.81-.99.88-1.64-.45,1.25-.68,1.3-.81,1.19-.15-.12-.25-.4-.64-.01.36-1.49.71-1.79,1.19-2.19.23-.2.49-.41.69-.83.21-.41.38-1.03.33-2,.1.55-.42,1.9-.54,1.09.19-.68.33-1.63.52-2.11-.2-1.29-.35-1.15-.42-.85-.09.3-.18.76-.41.27.4-.93-.45-1.16-.98-2.01l.43-.18c-.42-1.34-.79-1.35-1.05-1.35-.28,0-.49.02-1.05-.99.38.11.74.26,1.12.42-.29-.32-.58-.63-.9-.91l.58-.14c-1.22-.81-1.43-1.14-2.41-2.08.04.46-.63.55-1.57,0-.52-.61.61-.2-.84-.88.44-.1,1.01-.24,1.4.5.14-.1.47-.06.61-.13-.56-.77-1.89-1.15-2.44-1.37.21.11.45.25.56.36-.82-.15-1.64-.2-2.44-.2-.31-.26,0-.33.33-.38-.47-.08-.89.03-1.48-.04.12-.17.19-.35.34-.49.08-.07.17-.13.31-.17.15-.03.36-.04.62-.02l-.6-.04h-.51s-1.01.01-1.01.01c-.1-.19-.91-.65-.63-.73-1.05-.42-2.77.26-4.15-.23-.08.06-.24.11-.55.12-1.33-.26-2.47-.87-4.12-.51l-.84-.76c-1.26.05,1.15.96-.95,1.04-1.48.1-.5-.62-1.01-.85-.76.29-2.06.9-3.38.29.45-.11.8.01,1.22-.02ZM205.24,20.41c.29-.1.87-.42,1.09-.14-.33.54-.59.29-1.09.14ZM182.35,21.41c.22-.15.56-.06.93.12-.28.03-.59,0-.93-.12ZM139.17,40.46s-.02,0-.03,0c-.42-.42-.27-.26.03,0ZM140.19,41.14c.14-.01.16-.08.13-.16-.13.08-.39-.02-.66-.18.03.14.14.29.53.33ZM235.63,42.18h.27c-.44.36-.35.19-.27,0Z"/>
        <path class="cls-3" d="M184.97,20.84c.08.08.1.17.12.26.12-.08.12-.17-.12-.26Z"/>
        <path class="cls-3" d="M230.09,20.94h.05s.05-.04.06-.06l-.1.06Z"/>
        <path class="cls-3" d="M137.68,25.39c.31-.1.5-.1.64-.08-.04-.11-.21-.13-.64.08Z"/>
        <path class="cls-3" d="M147.02,42.61l-.84-.13c.4.1.51.24.68.37.01-.11-.1-.31.16-.24Z"/>
        <path class="cls-3" d="M153.51,47.22c.14-.03.26.05.4.02v-.22c-.52-.1-.93,0-.4.2Z"/>
        <path class="cls-3" d="M147.35,44.31c-.04.4.51.41,1.11.5-.04,0-.07-.01-.1-.03.31-.48-.35-.48-1.01-.48Z"/>
        <path class="cls-3" d="M148.59,44.84c.18.03.37.07.54.14.12-.19-.2-.1-.54-.14Z"/>
        <path class="cls-3" d="M141.8,41.47c.23.19.33-.42.43-.21.45-.36-1.95-.05-.43.21Z"/>
        <polygon class="cls-3" points="147.46 45.69 147.39 45.16 146.95 45.45 147.46 45.69"/>
        <path class="cls-3" d="M142.99,43.95c.29.15.58.3.88.43.01-.08.14-.09.3-.08-.57-.19-1.15-.5-1.18-.35Z"/>
        <path class="cls-3" d="M144.16,44.3c.29.1.58.18.77.16-.16-.05-.51-.14-.77-.16Z"/>
        <polygon class="cls-3" points="146.14 45.47 145.9 45.29 145.25 45.05 146.14 45.47"/>
        <path class="cls-3" d="M134.49,38.81c-.21-.26-.39-.54-.55-.84-.19-.04-.18.26.04.59.22.17.45.46.52.25Z"/>
        <path class="cls-3" d="M135.76,42.08c-.19-.27-.14-.37-.18-.6l-.4.45.58.15Z"/>
        <path class="cls-3" d="M133.3,39.67c-.22.02-1.28-1.41-.5.03.2.05,1,1,.5-.03Z"/>
        <polygon class="cls-3" points="139.99 26.07 139.74 26.19 140.18 27.07 139.99 26.07"/>
        <path class="cls-3" d="M153.45,20.6c-1.31-.07-.22.64-1.42.49-.27.27.97.12.69.36.73-.34,1.16-.25.72-.85Z"/>
        <path class="cls-3" d="M152.73,21.45c-.12.05-.24.12-.37.2.21-.09.31-.15.37-.2Z"/>
        <polygon class="cls-3" points="187.61 46.17 186.82 45.94 187.33 46.28 187.61 46.17"/>
        <path class="cls-3" d="M186.05,46.85l-.17-.63-.5.55c.18-.02.54-.07.67.08Z"/>
        <path class="cls-3" d="M202.95,19.19l-.06.15c.13.16.32.17.7.18l-.64-.34Z"/>
        <polygon class="cls-3" points="214.03 19.57 213.84 19.55 214.19 20.12 214.03 19.57"/>
        <path class="cls-3" d="M223.46,19.24c-.38-.06-.85.04-1.23,0,.85-.05,1.28.72,1.23,0Z"/>
      </g>
    </g>
    <g>
      <path class="cls-1" d="M161.65,29.61c-.79,0-1.52.34-2.2,1.02-.19.13-.35.2-.5.2s-.27-.01-.38-.04c-.31-.09-.46-.31-.46-.64,0-.55.35-1.03,1.04-1.44.69-.41,1.51-.62,2.46-.62.95,0,1.74.25,2.37.75.63.5.95,1.15.95,1.95,0,.8-.09,1.47-.27,2s-.57.97-1.17,1.32c1.41.53,2.12,1.49,2.12,2.88,0,1.17-.35,2.18-1.06,3.03-.71.85-1.57,1.27-2.59,1.27-1.02,0-1.92-.24-2.69-.73-.77-.49-1.16-1.04-1.16-1.65,0-.12.07-.26.2-.42.13-.16.33-.24.58-.24s.53.12.82.35c.29.23.63.47,1,.7.37.23.79.35,1.26.35,1.33,0,2-.83,2-2.5,0-.64-.23-1.16-.69-1.55-.46-.39-1.11-.59-1.95-.61-.17-.01-.3-.03-.39-.04-.09-.01-.2-.07-.34-.18-.14-.11-.21-.27-.21-.5,0-.48.27-.74.8-.78.53-.04,1.01-.28,1.43-.72s.63-.99.63-1.66c0-.37-.16-.72-.48-1.03-.32-.31-.69-.47-1.12-.47Z"/>
      <path class="cls-1" d="M168.73,27.03c.68,0,1.12.33,1.32,1,.08.23.12.48.12.76-.07.55-.34.96-.82,1.24-.25.16-.55.24-.9.24s-.7-.14-1.05-.43-.53-.68-.53-1.17.18-.89.53-1.19c.35-.3.8-.45,1.33-.45ZM169.21,28.55c0-.27-.07-.45-.2-.54-.13-.09-.28-.14-.45-.14s-.33.07-.48.21c-.15.14-.23.3-.23.49,0,.43.23.64.68.64s.68-.22.68-.66Z"/>
      <path class="cls-1" d="M176.29,27.77c0-.53.33-.8,1-.8.31,0,.49.19.54.56v3c0,.56,0,1.12.02,1.68.27-.08.61-.12,1.02-.12,1.29,0,2.29.43,3,1.3.71.87,1.06,1.95,1.06,3.26,0,1.31-.42,2.41-1.25,3.31s-1.9,1.35-3.21,1.35c-1.31,0-1.96-.37-1.96-1.11,0-.74-.04-2.62-.11-5.64-.07-3.02-.11-5.28-.11-6.79ZM180.33,34.2c-.48-.37-.99-.56-1.52-.56-.29,0-.59.05-.9.16.08,1.09.12,3.03.12,5.82.23.08.46.12.7.12.52,0,1.04-.19,1.56-.58.77-.53,1.16-1.35,1.16-2.45,0-1.1-.37-1.94-1.12-2.51Z"/>
      <path class="cls-1" d="M190.07,31.94c.59,0,.88.5.88,1.5,0,.11,0,.22,0,.34l-.04,1.4c-.01.44-.02.87-.02,1.3l.3,4.52c0,.33-.34.5-1.02.5h-.29c-.15,0-.26-.06-.32-.18s-.07-.27-.02-.44c.05-.17.03-.37-.05-.58-.61.65-1.43.98-2.44.98-1.88,0-2.82-1.45-2.82-4.36,0-1.61.3-2.83.91-3.66.61-.83,1.48-1.24,2.61-1.24.53,0,1.07.09,1.6.28.17-.24.41-.36.72-.36ZM187.99,33.76c-.76,0-1.33.22-1.7.66-.37.44-.56,1.25-.56,2.42,0,1.97.53,2.96,1.6,2.96.28,0,.59-.13.93-.38.34-.25.58-.54.71-.86.25-.72.38-1.51.38-2.36,0-.85-.1-1.47-.31-1.86-.21-.39-.56-.58-1.05-.58ZM187.92,28.02c.08-.23.25-.34.51-.34s.47.08.62.24c.15.16.23.29.23.39s-.01.18-.04.25c-.21.6-.57,1.17-1.07,1.7-.5.53-.88.8-1.15.8s-.47-.07-.6-.2c-.13-.13-.2-.29-.2-.47s.1-.35.3-.51c.72-.59,1.19-1.21,1.4-1.86Z"/>
      <path class="cls-1" d="M193.51,32.6c.56-.47,1.21-.7,1.95-.7s1.45.13,2.13.4c.68.27,1.02.62,1.02,1.06,0,.23-.09.41-.26.54-.17.13-.32.2-.45.2s-.23,0-.3-.01c-.07,0-.34-.13-.8-.37-.46-.24-.88-.36-1.27-.36s-.72.1-.99.29c-.27.19-.41.48-.41.85s.16.67.47.88c.31.21.86.4,1.65.55.79.15,1.39.37,1.81.65.42.28.63.8.63,1.56,0,1.11-.29,1.89-.87,2.35-.58.46-1.28.69-2.11.69s-1.53-.11-2.11-.34c-.58-.23-.87-.57-.87-1.02,0-.52.26-.78.78-.78.13,0,.43.09.88.28s.9.28,1.35.28.79-.14,1.02-.43c.23-.29.35-.62.35-.99,0-.37-.15-.64-.46-.81-.31-.17-.77-.3-1.4-.41-.63-.11-1.09-.22-1.38-.34-.8-.32-1.2-1.03-1.2-2.14,0-.79.28-1.41.84-1.88Z"/>
      <path class="cls-1" d="M201.35,28.64c.24,0,.47.11.68.34.21.23.32.46.32.71s-.12.5-.35.75c-.23.25-.48.38-.73.38s-.48-.11-.69-.32c-.21-.21-.31-.49-.31-.82,0-.64.35-.99,1.04-1.04h.04ZM202.19,39.12l.02,1.4c0,.25-.1.46-.3.63-.2.17-.41.25-.64.25-.33,0-.51-.17-.52-.5-.17-4.25-.26-6.61-.26-7.06,0-.45.02-1.01.06-1.66.03-.24.18-.36.46-.36.71,0,1.11.29,1.2.86.04.29.06.53.06.7l-.08,1.26v4.48Z"/>
      <path class="cls-1" d="M204.94,34.16c.47-.73,1.08-1.28,1.81-1.65.73-.37,1.45-.55,2.14-.55.69,0,1.25.08,1.67.25.42.17.63.39.63.66s-.08.55-.23.82c-.15.27-.36.41-.61.41-.09,0-.35-.08-.77-.23s-.69-.23-.81-.23c-.77,0-1.43.28-1.98.85-.55.57-.82,1.32-.82,2.25,0,.93.15,1.63.45,2.09.3.46.82.69,1.55.69.29,0,.8-.17,1.51-.51.71-.34,1.16-.51,1.33-.51s.31.05.42.16c.11.11.16.24.16.4,0,.32-.2.66-.61,1.01-.41.35-.91.65-1.51.88s-1.14.35-1.62.35c-1.07,0-1.9-.42-2.51-1.26s-.91-1.99-.91-3.44c0-.89.24-1.71.71-2.44Z"/>
      <path class="cls-1" d="M215.81,31.96c.96,0,1.75.46,2.37,1.38.62.92.93,2.02.93,3.31,0,1.29-.32,2.38-.95,3.29-.63.91-1.47,1.36-2.52,1.36s-1.89-.46-2.53-1.39c-.64-.93-.96-1.96-.96-3.09,0-1.45.29-2.61.88-3.48.63-.92,1.55-1.38,2.78-1.38ZM215.57,33.6c-.56,0-1.02.29-1.38.88-.36.59-.54,1.21-.54,1.86,0,1.01.2,1.79.6,2.32.4.53.85.8,1.36.8.91,0,1.49-.39,1.74-1.18.11-.37.16-.84.16-1.4,0-2.19-.65-3.28-1.94-3.28Z"/>
    </g>
  </g>
  <g>
    <path class="cls-1" d="M85.59,93.5c.29,0,.5.21.61.63-.08,1.41-.17,2.42-.27,3.01-.1.59-.18,1.12-.24,1.56s-.1.76-.13.92-.08.51-.18,1.03c-.1.52-.2,1.03-.3,1.54-.1.51-.17.82-.19.91s-.15.72-.39,1.88c-.24,1.16-.42,1.86-.54,2.12-.12.26-.32.39-.61.39s-.51-.08-.68-.25c-.64-.88-1.25-1.97-1.83-3.28-.14-.34-.3-.7-.47-1.09-.18-.39-.3-.69-.39-.88l-.19-.44c-.29.5-.7,1.36-1.22,2.56-.52,1.2-.97,2.17-1.36,2.9-.25.32-.53.48-.84.48-.64,0-1.13-1.71-1.47-5.14,0-.01-.01-.09-.03-.23s-.05-.38-.08-.74c-.04-.35-.08-.74-.13-1.17-.05-.43-.23-2.19-.54-5.3,0-.28.1-.54.31-.77.21-.23.44-.35.69-.35.31,0,.52.2.63.61.38,4.55.76,7.91,1.14,10.08.11-.2.4-.84.86-1.94s.88-1.97,1.26-2.63c.38-.65.74-.98,1.09-.98.24,0,.44.13.61.38.88,2.51,1.64,4.27,2.27,5.29.01-.15.1-.57.25-1.26l.27-1.34c0-.08.02-.2.05-.36s.06-.3.08-.45c.02-.15.05-.28.07-.41l.23-1.32c.34-2.07.55-3.77.63-5.1.06-.24.19-.44.39-.62s.41-.26.62-.26Z"/>
    <path class="cls-1" d="M90.97,97.72c1.01,0,1.84.48,2.49,1.45.65.97.98,2.12.98,3.47,0,1.35-.33,2.5-1,3.46-.67.95-1.55,1.43-2.65,1.43s-1.98-.49-2.66-1.46c-.67-.97-1.01-2.05-1.01-3.24,0-1.53.31-2.74.92-3.65.66-.97,1.63-1.45,2.92-1.45ZM90.72,99.44c-.59,0-1.07.31-1.45.92-.38.62-.57,1.27-.57,1.95,0,1.06.21,1.88.63,2.43.42.56.9.84,1.43.84.95,0,1.56-.41,1.83-1.24.11-.39.17-.88.17-1.47,0-2.3-.68-3.44-2.04-3.44Z"/>
    <path class="cls-1" d="M98.42,104.44l.02,2.16c0,.25-.12.48-.35.69s-.46.32-.68.32c-.32,0-.52-.25-.61-.76-.01-.11-.07-1.14-.17-3.08-.1-1.94-.29-3.46-.57-4.57-.13-.53-.19-.85-.19-.95,0-.46.28-.69.84-.69.24,0,.43.09.57.27.14.18.23.37.26.56.03.19.07.44.09.77.03.32.05.53.06.61.29-.7.73-1.23,1.32-1.58.59-.35,1.23-.53,1.93-.53,1.15,0,1.72.29,1.72.88,0,.29-.1.53-.3.7-.2.17-.44.26-.7.26-1.19,0-2.03.38-2.52,1.14-.49.76-.73,2.02-.73,3.78Z"/>
    <path class="cls-1" d="M111.3,106.56c0,.66-.3.99-.9.99-.25,0-.6-.62-1.03-1.86-.43-1.24-1.02-2.19-1.74-2.87-.07.1-.37.37-.89.83s-.84.73-.93.83v2.1c-.03.21-.06.37-.1.48-.04.11-.14.22-.28.32s-.35.15-.6.15c-.38,0-.57-.23-.57-.69,0-1.3-.06-3.32-.17-6.06-.11-2.74-.17-5.19-.17-7.36,0-.27.11-.48.33-.63.22-.16.44-.23.68-.23.32,0,.52.2.59.61v3.72c0,.45,0,.78.02,1.01.01.22.03.56.04,1.01.03.92.08,1.97.15,3.13.41-.31.93-.79,1.56-1.46.64-.67,1.12-1.24,1.44-1.71.5-.8.97-1.2,1.39-1.2.11,0,.22.03.34.08.29.17.44.36.44.59s-.1.52-.29.88c-.5.87-1.08,1.66-1.74,2.37.63.7,1.26,1.7,1.89,3,.38.84.57,1.5.57,1.97Z"/>
    <path class="cls-1" d="M112.55,93.31c0-.56.35-.84,1.05-.84.32,0,.51.2.57.59v3.15c0,.59,0,1.18.02,1.76.28-.08.64-.13,1.07-.13,1.36,0,2.41.46,3.15,1.37s1.11,2.05,1.11,3.42c0,1.37-.44,2.53-1.31,3.48-.88.95-2,1.42-3.37,1.42-1.37,0-2.06-.39-2.06-1.17,0-.78-.04-2.75-.12-5.92-.08-3.17-.12-5.55-.12-7.13ZM116.8,100.07c-.5-.39-1.04-.59-1.6-.59-.31,0-.62.06-.94.17.08,1.15.13,3.18.13,6.11.24.08.48.12.73.12.55,0,1.09-.2,1.64-.61.81-.56,1.22-1.42,1.22-2.57,0-1.15-.39-2.03-1.18-2.63Z"/>
    <path class="cls-1" d="M124.88,97.71c1.01,0,1.84.48,2.49,1.45.65.97.98,2.12.98,3.48,0,1.35-.33,2.5-1,3.45s-1.55,1.43-2.65,1.43c-1.1,0-1.98-.49-2.66-1.46-.67-.97-1.01-2.05-1.01-3.24,0-1.53.31-2.74.92-3.65.66-.97,1.63-1.45,2.92-1.45ZM124.63,99.44c-.59,0-1.07.31-1.45.92s-.57,1.27-.57,1.95c0,1.06.21,1.88.63,2.44.42.56.9.84,1.43.84.95,0,1.56-.41,1.83-1.24.11-.39.17-.88.17-1.47,0-2.3-.68-3.44-2.04-3.44Z"/>
    <path class="cls-1" d="M133.34,97.71c1.01,0,1.84.48,2.49,1.45.65.97.98,2.12.98,3.48,0,1.35-.33,2.5-1,3.45-.67.95-1.55,1.43-2.65,1.43s-1.98-.49-2.66-1.46c-.67-.97-1.01-2.05-1.01-3.24,0-1.53.31-2.74.92-3.66.66-.97,1.63-1.45,2.92-1.45ZM133.09,99.43c-.59,0-1.07.31-1.45.92-.38.62-.57,1.27-.57,1.95,0,1.06.21,1.88.63,2.44.42.56.9.84,1.43.84.95,0,1.56-.41,1.83-1.24.11-.39.17-.88.17-1.47,0-2.3-.68-3.44-2.04-3.44Z"/>
    <path class="cls-1" d="M145.59,106.55c0,.66-.3.99-.9.99-.25,0-.6-.62-1.03-1.86s-1.02-2.19-1.74-2.87c-.07.1-.37.37-.89.83s-.84.73-.93.83v2.1c-.03.21-.06.37-.1.48-.04.11-.14.22-.28.32s-.35.15-.6.15c-.38,0-.57-.23-.57-.69,0-1.3-.06-3.32-.17-6.06-.11-2.74-.17-5.19-.17-7.36,0-.27.11-.48.33-.63.22-.15.44-.23.68-.23.32,0,.52.2.59.61v3.72c0,.45,0,.78.02,1.01.01.22.03.56.04,1.01.03.92.08,1.97.15,3.13.41-.31.93-.79,1.56-1.46.64-.67,1.12-1.24,1.44-1.71.5-.8.97-1.2,1.39-1.2.11,0,.22.03.34.08.29.17.44.36.44.59s-.1.52-.29.88c-.5.87-1.08,1.66-1.74,2.37.63.7,1.26,1.7,1.89,3,.38.84.57,1.5.57,1.97Z"/>
    <path class="cls-1" d="M148.33,98.7c.3,0,.57.11.8.34.23.22.37.53.41.92,0,.31-.12.59-.35.85s-.49.39-.79.39-.56-.08-.8-.25c-.24-.17-.36-.42-.36-.75s.1-.66.31-1,.47-.5.77-.5ZM148.61,105.12c.11,0,.25.04.42.11.1.06.21.21.33.46.12.25.18.5.18.76,0,.25-.12.49-.36.7-.24.22-.5.33-.8.33s-.54-.11-.72-.33c-.19-.22-.28-.49-.28-.83,0-.8.41-1.2,1.24-1.2Z"/>
    <path class="cls-1" d="M157.96,108.92c0,.32.18.62.55.9s.74.42,1.11.42c.69,0,1.24-.28,1.65-.83.41-.55.74-.83.99-.83s.45.08.61.23c.16.15.24.36.24.61,0,.53-.37,1.07-1.12,1.63-.75.55-1.53.83-2.34.83-1.15,0-2.06-.46-2.73-1.39-.36-.49-.55-1.02-.55-1.58,0-.92.38-1.82,1.15-2.69.31-.36.62-.7.95-1.01.76-.76,1.13-1.27,1.13-1.53,0-.27-.09-.56-.28-.87-.19-.31-.28-.55-.28-.69s.08-.29.24-.44c.16-.15.33-.22.49-.22.39,0,.75.21,1.08.63s.49.9.49,1.43c0,.88-.35,1.7-1.05,2.46-.39.42-.69.72-.9.9-.95.88-1.43,1.56-1.43,2.04ZM160.83,98.64c0,.27-.09.52-.27.74-.18.22-.39.33-.61.33-.45,0-.75-.06-.9-.18-.15-.12-.23-.4-.23-.83,0-.74.32-1.11.97-1.11.24,0,.47.11.7.33.23.22.35.46.35.74Z"/>
    <path class="cls-1" d="M173.96,106.4l-.27-.32c-.99.85-2.21,1.35-3.65,1.49-1.06-.08-2.02-.45-2.87-1.1s-1.48-1.47-1.91-2.46-.64-1.98-.64-2.97c0-1.9.48-3.6,1.45-5.1.46-.74,1.06-1.33,1.81-1.77.74-.43,1.55-.65,2.44-.65s1.71.2,2.5.61c.78.41,1.43.96,1.93,1.66,1.04,1.46,1.55,3.12,1.55,5,0,1.41-.42,2.76-1.26,4.03,0,.01.22.25.65.69.41.45.61.78.61,1s-.07.44-.22.66c-.15.22-.39.34-.72.34s-.8-.37-1.39-1.11ZM167.24,104.11c.64,1.16,1.66,1.79,3.04,1.87,1.12-.1,2-.39,2.62-.86l-1.66-1.91c-.43-.49-.65-.86-.65-1.12,0-.26.09-.48.27-.65.18-.17.41-.26.68-.26s.63.24,1.08.71c.27.31.62.75,1.07,1.32.2.28.32.45.38.5.45-.81.67-1.7.67-2.67,0-2.18-.73-3.85-2.19-5-.73-.59-1.59-.88-2.58-.88-1.29,0-2.24.59-2.86,1.76-.52,1.04-.78,2.23-.78,3.58,0,1.35.29,2.55.88,3.6Z"/>
    <path class="cls-1" d="M178.45,97.9c.18-.16.37-.24.56-.24s.34.04.44.11.17.13.19.19c.02.06.05.15.07.29-.08,1.09-.13,2.08-.13,2.95,0,.88.1,1.88.32,3,.21,1.13.44,1.69.69,1.69.38,0,.86-.21,1.44-.63.58-.42,1-.86,1.25-1.32-.17-2.02-.25-3.75-.25-5.19,0-.29.09-.55.28-.76s.42-.31.68-.31c.43,0,.65.29.65.88,0,.99.07,2.47.22,4.43s.3,3.21.45,3.74c.03.11.04.24.04.39s-.09.29-.28.42-.43.2-.73.2-.5-.17-.6-.5c-.03-.28-.1-.7-.21-1.26-.98,1.02-1.97,1.53-2.96,1.53-.46,0-.88-.18-1.24-.53-.36-.35-.65-.83-.86-1.43-.36-1.16-.55-2.25-.55-3.28s.06-2.28.17-3.78c.06-.24.17-.44.36-.6Z"/>
    <path class="cls-1" d="M189.56,97.77c.74,0,1.45.22,2.12.65s1.01.97,1.01,1.61c0,.64-.27,1.25-.82,1.85-.55.6-1.27.96-2.18,1.08-.39.06-.98.08-1.76.08.15,1.19.46,1.97.9,2.35.14.15.33.23.57.23.87,0,1.6-.28,2.18-.83.59-.55,1.01-.83,1.26-.83.11,0,.28.11.5.32.22.21.34.41.34.59,0,.36-.44.89-1.32,1.58-.39.32-.86.59-1.42.81s-1.07.33-1.54.33c-1.22,0-2.11-.78-2.69-2.35-.36-.97-.55-2.03-.55-3.19s.27-2.16.82-3c.55-.84,1.41-1.26,2.58-1.26ZM189.67,99.21c-.53,0-.99.3-1.37.9-.14.21-.27.69-.4,1.43,1.96,0,2.94-.48,2.94-1.45,0-.59-.39-.88-1.18-.88ZM189.81,93.63c.08-.24.26-.36.54-.36s.49.08.65.25c.16.17.24.3.24.41s-.01.19-.04.26c-.22.63-.6,1.23-1.12,1.79s-.93.84-1.21.84-.49-.07-.63-.21-.21-.3-.21-.49.1-.38.31-.56c.76-.6,1.25-1.25,1.47-1.93Z"/>
    <path class="cls-1" d="M202.75,97.76c.74,0,1.45.22,2.12.65.67.43,1.01.97,1.01,1.61s-.27,1.25-.82,1.85-1.27.96-2.18,1.08c-.39.06-.98.08-1.76.08.15,1.19.46,1.97.9,2.35.14.15.33.23.57.23.87,0,1.6-.28,2.18-.83s1.01-.83,1.26-.83c.11,0,.28.11.5.32s.34.41.34.59c0,.36-.44.89-1.32,1.58-.39.32-.86.59-1.42.81-.55.22-1.07.33-1.54.33-1.22,0-2.11-.78-2.69-2.35-.36-.97-.55-2.03-.55-3.19,0-1.16.27-2.16.82-3s1.41-1.26,2.58-1.26ZM202.85,99.21c-.53,0-.99.3-1.36.9-.14.21-.27.69-.4,1.43,1.96,0,2.94-.48,2.94-1.45,0-.59-.39-.88-1.18-.88Z"/>
    <path class="cls-1" d="M208.88,106.83l-.23-8.53c0-.27.09-.48.27-.65.18-.17.36-.25.55-.25.45,0,.71.19.78.57.06.38.08.77.08,1.18.76-.99,1.7-1.49,2.83-1.49,1.74,0,2.6,1.98,2.61,5.94v1.65c0,.73-.04,1.27-.13,1.61-.1.42-.4.63-.9.63-.34,0-.5-.22-.5-.67l.02-1.18c0-1.62-.05-2.73-.16-3.33-.11-.59-.21-1.07-.3-1.42-.24-.76-.62-1.13-1.16-1.13-.7,0-1.19.25-1.47.76-.31.55-.49,1.19-.55,1.93-.1,1.3-.15,2.68-.15,4.14,0,.28-.11.5-.32.67s-.46.25-.76.25c-.35,0-.52-.22-.52-.67Z"/>
    <path class="cls-1" d="M218.1,97.68l1.05.02c.24,0,.37,0,.4-.02v-4.31c.01-.24.13-.44.36-.61.22-.17.43-.25.63-.25s.35.06.47.19c.12.13.17.32.16.59-.01.27-.02,1.72-.02,4.37l2.46-.08c.42,0,.63.25.63.74,0,.36-.11.64-.33.82-.22.18-.45.28-.69.29-.25.01-.49.02-.72.02l-1.28-.02c0,.57.06,1.71.18,3.4.12,1.69.21,2.79.28,3.29.07.5.08.82.04.97-.04.15-.12.25-.23.3-.18.08-.43.13-.74.13s-.49-.17-.55-.5c-.28-1.83-.47-4.35-.57-7.56-.13.01-.61.02-1.45.02-.84,0-1.26-.24-1.26-.73,0-.7.39-1.05,1.18-1.05Z"/>
    <path class="cls-1" d="M226.18,94.21c.25,0,.49.12.71.36.22.24.34.49.34.75s-.12.52-.37.79c-.25.27-.5.4-.77.4s-.51-.11-.73-.34c-.22-.22-.33-.51-.33-.86,0-.67.36-1.04,1.09-1.09h.04ZM227.07,105.21l.02,1.47c0,.27-.1.49-.31.66s-.43.26-.67.26c-.35,0-.53-.17-.55-.53-.18-4.47-.27-6.94-.27-7.41s.02-1.06.06-1.74c.03-.25.19-.38.48-.38.74,0,1.16.3,1.26.9.04.31.06.55.06.74l-.08,1.32v4.7Z"/>
    <path class="cls-1" d="M232.53,97.76c.74,0,1.45.22,2.12.65.67.43,1.01.97,1.01,1.61s-.27,1.25-.82,1.85-1.27.96-2.18,1.08c-.39.06-.98.08-1.76.08.15,1.19.46,1.97.9,2.35.14.15.33.23.57.23.87,0,1.6-.28,2.18-.83s1.01-.83,1.26-.83c.11,0,.28.11.5.32s.34.41.34.59c0,.36-.44.89-1.32,1.58-.39.32-.86.59-1.42.81-.55.22-1.07.33-1.54.33-1.22,0-2.11-.78-2.69-2.35-.36-.97-.55-2.03-.55-3.19,0-1.16.27-2.16.82-3s1.41-1.26,2.58-1.26ZM232.63,99.21c-.53,0-.99.3-1.36.9-.14.21-.27.69-.4,1.43,1.96,0,2.94-.48,2.94-1.45,0-.59-.39-.88-1.18-.88Z"/>
    <path class="cls-1" d="M238.66,106.83l-.23-8.53c0-.27.09-.48.27-.65.18-.17.36-.25.55-.25.45,0,.71.19.78.57.06.38.08.77.08,1.18.76-.99,1.7-1.49,2.83-1.49,1.74,0,2.6,1.98,2.61,5.94v1.65c0,.73-.04,1.27-.13,1.61-.1.42-.4.63-.9.63-.34,0-.5-.22-.5-.67l.02-1.18c0-1.62-.05-2.73-.16-3.33-.11-.59-.21-1.07-.3-1.42-.24-.76-.62-1.13-1.16-1.13-.7,0-1.19.25-1.47.76-.31.55-.49,1.19-.55,1.93-.1,1.3-.15,2.68-.15,4.14,0,.28-.11.5-.32.67s-.46.25-.76.25c-.35,0-.52-.22-.52-.67Z"/>
    <path class="cls-1" d="M252.37,97.65l-.02-4.05c0-.76.24-1.13.72-1.13.48,0,.75.21.81.63.03.18.06,1.28.11,3.3s.11,3.91.2,5.67.14,3.41.14,4.93c0,.42-.31.63-.95.63-.42,0-.63-.29-.63-.88-.6.48-1.32.71-2.14.71-1.05,0-1.9-.39-2.55-1.17-.65-.78-.98-1.75-.98-2.9,0-1.15.23-2.22.7-3.22s1.2-1.72,2.19-2.15c.62-.27,1.21-.4,1.78-.4.21,0,.41.01.61.04ZM252.49,100.51c-.1-.3-.23-.53-.37-.69-.14-.16-.29-.26-.45-.29-.16-.04-.35-.05-.58-.05s-.5.08-.82.25c-.32.17-.6.44-.82.82-.45.76-.67,1.55-.67,2.38,0,.83.16,1.51.49,2.04.33.53.8.79,1.41.79s1.09-.3,1.44-.9c.35-.6.52-1.37.52-2.31,0-1.05-.05-1.73-.16-2.03Z"/>
    <path class="cls-1" d="M259.26,97.69c1.01,0,1.84.48,2.49,1.45.65.97.98,2.12.98,3.48,0,1.35-.33,2.5-1,3.45s-1.55,1.43-2.65,1.43c-1.1,0-1.98-.49-2.66-1.46-.67-.97-1.01-2.05-1.01-3.24,0-1.53.31-2.74.92-3.65.66-.97,1.63-1.45,2.92-1.45ZM259.01,99.41c-.59,0-1.07.31-1.45.93s-.57,1.27-.57,1.95c0,1.06.21,1.88.63,2.44.42.56.9.84,1.43.84.95,0,1.56-.41,1.83-1.24.11-.39.17-.88.17-1.47,0-2.3-.68-3.44-2.04-3.44Z"/>
    <path class="cls-1" d="M272.16,107.45c-.48,0-.92-.16-1.32-.48l-.27-.23v6.3c-.08.28-.23.51-.44.7-.21.19-.43.28-.67.28-.36,0-.55-.25-.55-.73v-14.64c.08-.36.18-.62.3-.78.12-.15.31-.23.57-.23s.43.06.5.18c.08.12.17.44.28.98.06-.28.28-.54.67-.78.39-.24.92-.36,1.57-.36,1.43,0,2.44.52,3.05,1.55.6,1.04.9,2.26.9,3.66,0,1.41-.41,2.52-1.23,3.34-.82.82-1.94,1.23-3.37,1.23ZM270.56,101.15v3.91c.08.04.18.11.29.21.41.36.85.55,1.32.55,1.93,0,2.9-1,2.9-2.98,0-1.69-.43-2.77-1.3-3.21-.36-.2-.81-.29-1.34-.29-.52.07-.96.3-1.32.68-.36.39-.55.77-.55,1.14Z"/>
    <path class="cls-1" d="M281.54,97.68c1.01,0,1.84.48,2.49,1.45.65.96.98,2.12.98,3.47,0,1.35-.33,2.5-1,3.46-.67.95-1.55,1.43-2.65,1.43s-1.98-.49-2.66-1.46c-.67-.97-1.01-2.05-1.01-3.24,0-1.53.31-2.74.92-3.65.66-.97,1.63-1.45,2.92-1.45ZM281.29,99.41c-.59,0-1.07.31-1.45.92-.38.62-.57,1.27-.57,1.95,0,1.06.21,1.88.63,2.44.42.56.9.84,1.43.84.95,0,1.56-.41,1.83-1.24.11-.39.17-.88.17-1.47,0-2.3-.68-3.44-2.04-3.44Z"/>
    <path class="cls-1" d="M289,104.4l.02,2.16c0,.25-.12.48-.35.69s-.46.32-.68.32c-.32,0-.52-.25-.61-.76-.01-.11-.07-1.14-.17-3.08-.1-1.94-.29-3.46-.57-4.57-.13-.53-.19-.85-.19-.95,0-.46.28-.69.84-.69.24,0,.43.09.57.27.14.18.23.37.26.56.03.19.07.44.09.77.03.32.05.53.06.61.29-.7.73-1.23,1.32-1.58.59-.35,1.23-.53,1.93-.53,1.15,0,1.72.29,1.72.88,0,.29-.1.53-.3.7-.2.17-.44.26-.7.26-1.19,0-2.03.38-2.52,1.13-.49.76-.73,2.02-.73,3.78Z"/>
    <path class="cls-1" d="M107.77,121.03c.5-.77,1.13-1.35,1.9-1.73.77-.38,1.52-.58,2.25-.58s1.31.09,1.75.26c.44.17.66.41.66.69s-.08.57-.24.86c-.16.29-.37.43-.64.43-.1,0-.37-.08-.81-.24s-.72-.24-.85-.24c-.81,0-1.5.3-2.08.89-.57.6-.86,1.38-.86,2.36s.16,1.71.47,2.19c.32.48.86.72,1.63.72.31,0,.84-.18,1.59-.54.75-.36,1.21-.54,1.4-.54s.33.06.44.17c.11.11.17.25.17.42,0,.34-.21.69-.64,1.06-.43.37-.96.68-1.59.92-.63.25-1.2.37-1.7.37-1.12,0-2-.44-2.64-1.32s-.96-2.09-.96-3.61c0-.94.25-1.79.75-2.56Z"/>
    <path class="cls-1" d="M119.18,118.72c1.01,0,1.84.48,2.49,1.45.65.97.98,2.12.98,3.48,0,1.35-.33,2.5-1,3.45-.67.95-1.55,1.43-2.65,1.43-1.1,0-1.98-.49-2.66-1.46-.67-.97-1.01-2.05-1.01-3.24,0-1.53.31-2.74.92-3.65.66-.97,1.63-1.45,2.92-1.45ZM118.93,120.44c-.59,0-1.07.31-1.45.92s-.57,1.27-.57,1.95c0,1.06.21,1.88.63,2.44.42.56.9.84,1.43.84.95,0,1.56-.41,1.83-1.24.11-.39.17-.88.17-1.47,0-2.3-.68-3.44-2.04-3.44Z"/>
    <path class="cls-1" d="M124.73,127.85l-.23-8.53c0-.27.09-.48.27-.65.18-.17.36-.25.55-.25.45,0,.71.19.78.57.06.38.08.77.08,1.18.76-.99,1.7-1.49,2.83-1.49,1.74,0,2.6,1.98,2.6,5.94v1.65c0,.73-.04,1.27-.13,1.61-.1.42-.4.63-.9.63-.34,0-.5-.22-.5-.67l.02-1.18c0-1.62-.05-2.73-.16-3.33-.1-.59-.21-1.07-.3-1.42-.24-.76-.62-1.13-1.16-1.13-.7,0-1.19.25-1.47.76-.31.55-.49,1.19-.55,1.93-.1,1.3-.15,2.68-.15,4.14,0,.28-.1.5-.31.67s-.46.25-.76.25c-.35,0-.53-.22-.53-.67Z"/>
    <path class="cls-1" d="M140.21,118.59c.2,0,.34.07.44.2.1.13.15.28.15.43l-.02.21c-.59,1.5-1.02,2.72-1.3,3.66-.18.66-.32,1.15-.41,1.47-.09.32-.24.89-.45,1.7-.21.81-.35,1.34-.42,1.58-.2.48-.54.71-1.03.71-.24,0-.41-.15-.5-.46-.45-1.4-1.11-2.98-1.98-4.75-.87-1.76-1.36-2.78-1.48-3.03-.12-.26-.18-.49-.18-.7s.09-.41.28-.61c.19-.2.4-.29.64-.29s.44.13.61.38c.15.31.59,1.17,1.31,2.58.72,1.41,1.23,2.53,1.52,3.34.01-.08.06-.26.15-.53.71-2.48,1.29-4.25,1.74-5.31.24-.38.55-.57.92-.57Z"/>
    <path class="cls-1" d="M143.21,115.22c.25,0,.49.12.71.36.22.24.34.49.34.75,0,.26-.12.52-.37.79-.25.27-.5.4-.77.4s-.51-.11-.72-.34c-.22-.22-.33-.51-.33-.86,0-.67.36-1.04,1.09-1.09h.04ZM144.09,126.23l.02,1.47c0,.27-.1.49-.31.66s-.43.26-.67.26c-.35,0-.53-.17-.55-.53-.18-4.47-.27-6.94-.27-7.41s.02-1.06.06-1.74c.03-.25.19-.38.48-.38.74,0,1.16.3,1.26.9.04.31.06.55.06.74l-.08,1.32v4.7Z"/>
    <path class="cls-1" d="M153.31,118.58c.2,0,.34.07.44.2.1.13.15.28.15.43l-.02.21c-.59,1.5-1.02,2.72-1.3,3.65-.18.66-.32,1.15-.41,1.47-.09.32-.24.89-.45,1.7-.21.81-.35,1.34-.42,1.58-.2.48-.54.71-1.03.71-.24,0-.41-.15-.5-.46-.45-1.4-1.11-2.98-1.98-4.75s-1.36-2.78-1.48-3.03c-.12-.26-.18-.49-.18-.7s.09-.41.28-.61c.19-.2.4-.29.64-.29s.44.13.61.38c.15.31.59,1.17,1.31,2.58.72,1.41,1.23,2.53,1.52,3.34.01-.08.06-.26.15-.53.71-2.48,1.29-4.25,1.74-5.31.24-.38.55-.57.92-.57Z"/>
    <path class="cls-1" d="M157.95,118.77c.74,0,1.45.22,2.12.65.67.43,1.01.97,1.01,1.61,0,.64-.27,1.25-.82,1.85-.55.59-1.27.96-2.18,1.08-.39.06-.98.08-1.76.08.15,1.19.46,1.97.9,2.35.14.15.33.23.57.23.87,0,1.6-.28,2.18-.83.59-.55,1.01-.83,1.26-.83.11,0,.28.11.5.32s.34.41.34.59c0,.36-.44.89-1.32,1.58-.39.32-.86.59-1.42.81-.55.22-1.07.33-1.54.33-1.22,0-2.11-.78-2.69-2.35-.36-.97-.55-2.03-.55-3.19,0-1.16.27-2.16.82-3,.55-.84,1.41-1.26,2.58-1.26ZM158.06,120.22c-.53,0-.99.3-1.36.9-.14.21-.27.69-.4,1.43,1.96,0,2.94-.48,2.94-1.45,0-.59-.39-.88-1.18-.88Z"/>
    <path class="cls-1" d="M164.08,127.84l-.23-8.53c0-.27.09-.48.27-.65s.36-.25.55-.25c.45,0,.71.19.78.57.06.38.08.77.08,1.18.76-1,1.7-1.49,2.83-1.49,1.74,0,2.6,1.98,2.6,5.94,0,.36,0,.91,0,1.65s-.04,1.27-.13,1.61c-.1.42-.4.63-.9.63-.34,0-.5-.22-.5-.67l.02-1.18c0-1.62-.05-2.73-.16-3.33-.1-.59-.21-1.07-.3-1.42-.24-.76-.62-1.13-1.15-1.13-.7,0-1.19.25-1.47.76-.31.55-.49,1.19-.55,1.93-.1,1.3-.15,2.68-.15,4.14,0,.28-.1.5-.31.67s-.46.25-.76.25c-.35,0-.52-.22-.53-.67Z"/>
    <path class="cls-1" d="M173.23,121.02c.5-.77,1.13-1.35,1.9-1.73.77-.38,1.52-.58,2.25-.58s1.31.09,1.75.26c.44.17.66.41.66.69s-.08.57-.24.86c-.16.29-.37.43-.64.43-.1,0-.37-.08-.81-.24s-.72-.24-.85-.24c-.81,0-1.5.3-2.08.89-.57.6-.86,1.38-.86,2.36s.16,1.71.47,2.19c.32.48.86.72,1.63.72.31,0,.84-.18,1.59-.54.75-.36,1.21-.54,1.4-.54s.33.06.44.17c.11.11.17.25.17.42,0,.34-.21.69-.64,1.06-.43.37-.96.68-1.59.92-.63.25-1.2.37-1.7.37-1.12,0-2-.44-2.64-1.32s-.96-2.09-.96-3.61c0-.94.25-1.79.75-2.56Z"/>
    <path class="cls-1" d="M182.31,115.22c.25,0,.49.12.71.36.22.24.34.49.34.75,0,.26-.12.52-.37.79-.25.27-.5.4-.77.4s-.51-.11-.72-.33c-.22-.22-.33-.51-.33-.86,0-.67.36-1.04,1.09-1.09h.04ZM183.19,126.22l.02,1.47c0,.27-.1.49-.31.66s-.43.26-.67.26c-.35,0-.53-.17-.55-.53-.18-4.46-.27-6.94-.27-7.41s.02-1.06.06-1.74c.03-.25.19-.38.48-.38.74,0,1.16.3,1.26.9.04.31.06.55.06.74l-.08,1.32v4.7Z"/>
    <path class="cls-1" d="M191.49,118.68c.62,0,.92.52.92,1.57v.36l-.04,1.47c-.01.46-.02.92-.02,1.37l.32,4.75c0,.35-.36.53-1.07.53h-.3c-.16,0-.27-.06-.34-.19s-.07-.28-.02-.46c.05-.18.03-.38-.05-.61-.64.69-1.5,1.03-2.56,1.03-1.97,0-2.96-1.52-2.96-4.58,0-1.69.32-2.97.95-3.84.64-.87,1.55-1.3,2.74-1.3.56,0,1.12.1,1.68.29.18-.25.43-.38.76-.38ZM189.3,120.59c-.8,0-1.39.23-1.78.69-.39.46-.59,1.31-.59,2.54,0,2.07.56,3.11,1.68,3.11.29,0,.62-.13.98-.4.36-.27.61-.57.75-.9.27-.76.4-1.58.4-2.48s-.11-1.55-.33-1.95c-.22-.41-.58-.61-1.1-.61Z"/>
    <path class="cls-1" d="M201.71,118.76c.74,0,1.45.22,2.12.65.67.43,1.01.97,1.01,1.61s-.27,1.25-.82,1.85-1.27.96-2.18,1.08c-.39.06-.98.08-1.76.08.15,1.19.46,1.97.9,2.35.14.15.33.23.57.23.87,0,1.6-.28,2.18-.83s1.01-.83,1.26-.83c.11,0,.28.11.5.32.22.21.34.41.34.59,0,.36-.44.89-1.32,1.58-.39.32-.86.59-1.42.81s-1.07.33-1.54.33c-1.22,0-2.11-.78-2.69-2.35-.36-.97-.55-2.03-.55-3.19,0-1.16.27-2.16.82-3,.55-.84,1.41-1.26,2.58-1.26ZM201.82,120.21c-.53,0-.99.3-1.36.9-.14.21-.27.69-.4,1.43,1.96,0,2.94-.48,2.94-1.45,0-.59-.39-.88-1.18-.88Z"/>
    <path class="cls-1" d="M208.29,119.37c.59-.49,1.27-.73,2.05-.73s1.52.14,2.24.42c.71.28,1.07.65,1.07,1.11,0,.24-.09.43-.27.57-.18.14-.34.21-.47.21s-.24,0-.31-.01c-.08,0-.36-.13-.84-.39-.48-.25-.93-.38-1.33-.38s-.75.1-1.04.3c-.29.2-.43.5-.43.89s.16.7.49.92c.33.22.91.42,1.73.58.83.16,1.46.39,1.9.68.44.29.66.84.66,1.64,0,1.16-.3,1.98-.91,2.47-.61.48-1.35.72-2.22.72s-1.61-.12-2.22-.36c-.61-.24-.91-.59-.91-1.07,0-.55.27-.82.82-.82.14,0,.45.1.92.29s.95.29,1.42.29.83-.15,1.07-.45c.25-.3.37-.65.37-1.04s-.16-.68-.48-.85-.81-.32-1.47-.43c-.66-.11-1.14-.23-1.45-.36-.84-.34-1.26-1.08-1.26-2.25,0-.83.29-1.48.88-1.97Z"/>
    <path class="cls-1" d="M215.58,121.01c.5-.77,1.13-1.35,1.9-1.73.77-.39,1.52-.58,2.25-.58s1.31.09,1.75.26c.44.17.66.41.66.69s-.08.57-.24.86c-.16.29-.37.43-.64.43-.1,0-.37-.08-.81-.24s-.72-.24-.85-.24c-.81,0-1.5.3-2.08.89-.57.6-.86,1.38-.86,2.36s.16,1.71.47,2.19c.32.48.86.72,1.63.72.31,0,.84-.18,1.59-.54.75-.36,1.21-.54,1.4-.54s.33.06.44.17c.11.11.17.25.17.42,0,.34-.21.69-.64,1.06-.43.37-.96.68-1.59.92-.63.25-1.2.37-1.7.37-1.12,0-2-.44-2.64-1.32s-.96-2.09-.96-3.61c0-.94.25-1.79.75-2.56Z"/>
    <path class="cls-1" d="M227,118.7c1.01,0,1.84.48,2.49,1.45.65.97.98,2.12.98,3.48,0,1.35-.33,2.5-1,3.45-.67.95-1.55,1.43-2.65,1.43-1.1,0-1.98-.49-2.66-1.46-.67-.97-1.01-2.05-1.01-3.24,0-1.53.31-2.74.92-3.65.66-.97,1.63-1.45,2.92-1.45ZM226.75,120.42c-.59,0-1.07.31-1.45.92s-.57,1.27-.57,1.95c0,1.06.21,1.88.63,2.44.42.56.9.84,1.43.84.95,0,1.56-.41,1.83-1.24.11-.39.17-.88.17-1.47,0-2.3-.68-3.44-2.04-3.44Z"/>
    <path class="cls-1" d="M231.69,114.88c.03-.52.12-.87.25-1.03.13-.16.35-.24.64-.24.6,0,.9.24.9.73,0,.38-.03,1.37-.09,2.96-.06,1.6-.09,3.02-.09,4.28,0,1.26.05,2.28.15,3.04.17,1.34.41,2.02.71,2.02s.54-.22.69-.65c.07-.17.18-.32.34-.45.15-.13.35-.2.59-.2.49,0,.73.41.73,1.24,0,.45-.24.89-.72,1.33-.48.44-.96.66-1.44.66s-.86-.08-1.14-.24c-.29-.16-.52-.4-.69-.72-.17-.32-.31-.63-.42-.93-.1-.3-.18-.67-.22-1.1-.08-.7-.14-1.82-.18-3.37-.04-1.55-.05-3.02-.05-4.43,0-1.41.02-2.37.05-2.9Z"/>
    <path class="cls-1" d="M243.19,118.67c.62,0,.92.52.92,1.57v.36l-.04,1.47c-.01.46-.02.92-.02,1.37l.32,4.75c0,.35-.36.53-1.07.53-.04,0-.14,0-.3,0s-.27-.06-.34-.19-.07-.28-.02-.46c.05-.18.03-.38-.05-.61-.64.69-1.5,1.03-2.56,1.03-1.97,0-2.96-1.52-2.96-4.58,0-1.69.32-2.97.96-3.84.64-.87,1.55-1.3,2.74-1.3.56,0,1.12.1,1.68.29.18-.25.43-.38.76-.38ZM241,120.58c-.8,0-1.39.23-1.79.69s-.59,1.31-.59,2.54c0,2.07.56,3.11,1.68,3.11.29,0,.62-.13.98-.4.36-.27.6-.57.75-.9.27-.76.4-1.58.4-2.48,0-.9-.11-1.55-.33-1.95-.22-.41-.58-.61-1.1-.61Z"/>
    <path class="cls-1" d="M248.27,125.41l.02,2.16c0,.25-.12.48-.35.69-.23.21-.46.32-.68.32-.32,0-.52-.25-.61-.76-.01-.11-.07-1.14-.17-3.08-.1-1.94-.29-3.46-.57-4.57-.13-.53-.19-.85-.19-.95,0-.46.28-.69.84-.69.24,0,.43.09.57.27.14.18.23.37.26.56s.07.44.09.77c.03.32.05.53.06.61.29-.7.73-1.23,1.32-1.58.59-.35,1.23-.53,1.93-.53,1.15,0,1.72.29,1.72.88,0,.29-.1.53-.3.7s-.44.26-.7.26c-1.19,0-2.03.38-2.52,1.13-.49.76-.73,2.02-.73,3.78Z"/>
    <path class="cls-1" d="M258.69,116.5c0-.34-.18-.64-.54-.9-.36-.27-.72-.4-1.08-.4s-.7.08-1.01.24c-.31.16-.53.35-.67.58-.39.56-.69.84-.9.84-.6,0-.9-.29-.9-.88,0-.53.37-1.07,1.11-1.63.74-.55,1.52-.83,2.33-.83,1.15,0,2.06.47,2.73,1.41.36.52.55,1.04.55,1.58,0,.92-.38,1.81-1.13,2.67-.32.36-.64.71-.97,1.03-.77.77-1.15,1.28-1.15,1.53s.1.53.29.84c.18.31.27.52.27.63s-.04.24-.1.38c-.17.25-.41.38-.72.38s-.63-.21-.96-.64-.48-.9-.48-1.42c0-.91.34-1.74,1.03-2.48.32-.35.62-.64.9-.88.94-.88,1.41-1.56,1.41-2.04ZM255.85,126.7c0-.25.09-.47.28-.68.19-.21.45-.32.79-.32s.58.06.72.19.22.4.22.82c0,.74-.34,1.11-1.01,1.11-.25,0-.48-.13-.69-.38-.21-.25-.32-.5-.32-.75Z"/>
  </g>
</svg>