<svg id="Capa_1" data-name="Capa 1" xmlns="http://www.w3.org/2000/svg" xmlns:xlink="http://www.w3.org/1999/xlink" viewBox="0 0 78.52 80.12"><defs><style>.cls-1{fill:#fffcf4;}.cls-2{clip-path:url(#clip-path);}.cls-3{fill:#5da6bc;}</style><clipPath id="clip-path"><path class="cls-1" d="M4.15-407.48c-78.41,61-71.44,149.34-4.67,216.4C69.11-121.15,179-86.21,275.94-107.31c115.94-25.24,198.5-121,154.16-237.46-17.85-46.86-50.69-92.7-99.16-112.85-57-23.71-130.57-8.57-187.71,7.12C93.37-436.81,45-439.25,4.15-407.48Z"/></clipPath></defs><path class="cls-1" d="M4.15-407.48c-78.41,61-71.44,149.34-4.67,216.4C69.11-121.15,179-86.21,275.94-107.31c115.94-25.24,198.5-121,154.16-237.46-17.85-46.86-50.69-92.7-99.16-112.85-57-23.71-130.57-8.57-187.71,7.12C93.37-436.81,45-439.25,4.15-407.48Z"/><polygon class="cls-3" points="23.16 26.62 16.5 0 41.26 15.44 71.6 1.86 56.16 31.94 78.52 58.29 46.05 46.31 34.87 80.11 26.35 51.37 0 49.51 23.16 26.62"/></svg>