<svg id="Capa_1" data-name="Capa 1" xmlns="http://www.w3.org/2000/svg" viewBox="0 0 224.75 57.52"><defs><style>.cls-1{fill:#536472;}</style></defs><g id="NIqQo8"><path class="cls-1" d="M87.9,19.38c0-5.08,0-10.16,0-15.24,0-.41.09-.55.53-.54q2.52,0,5,0c.33,0,.41.1.41.41,0,2.53,0,5.05,0,7.58,0,.35.08.46.45.46,2.13,0,4.26-.09,6.38.07a11.15,11.15,0,0,1,6.49,2.36,9.48,9.48,0,0,1,3.29,6.07,14.85,14.85,0,0,1-.77,8.16,9.72,9.72,0,0,1-8.33,6.34,16.43,16.43,0,0,1-2,.11H88.51c-.61,0-.61,0-.61-.59Zm6,4.32V30c0,.18-.08.42.26.41,1.73-.05,3.45.11,5.17-.11a5.29,5.29,0,0,0,4.82-4.06,11.22,11.22,0,0,0,.15-4.58,5.38,5.38,0,0,0-1.15-2.77,5.61,5.61,0,0,0-3.83-1.8C97.64,16.91,96,17,94.34,17c-.38,0-.49.08-.49.48C93.87,19.54,93.86,21.62,93.86,23.7Z"/><path class="cls-1" d="M127.91,35.14c-2.7,0-5.4,0-8.1,0A6.11,6.11,0,0,1,114.27,32a8.07,8.07,0,0,1-.75-4.72,9.66,9.66,0,0,1,.19-1.18c.56-2.58,2.34-3.85,4.77-4.42a17.16,17.16,0,0,1,4-.41c2.54,0,5.09,0,7.63,0,.37,0,.51-.1.45-.47,0-.22,0-.46,0-.69-.34-2.19-1.25-3-3.51-3.25a19.82,19.82,0,0,0-2-.09c-3.17,0-6.33,0-9.49,0-.44,0-.53-.14-.52-.54,0-1.25,0-2.49,0-3.74,0-.36.11-.44.45-.44,4,0,8.11,0,12.16,0a16,16,0,0,1,3.58.38,6.73,6.73,0,0,1,5.32,5.66,12.34,12.34,0,0,1,.22,2.43q0,7,0,14.09c0,.44-.1.56-.55.56-2.76,0-5.52,0-8.28,0Zm-1.7-4.47c1.53,0,2.78,0,4,0,.35,0,.45-.08.45-.43q0-2.05,0-4.11c0-.36-.1-.47-.46-.46h-7.08a9.09,9.09,0,0,0-1.47.11,2,2,0,0,0-1.78,1.34,3.17,3.17,0,0,0-.07,1.78,2.32,2.32,0,0,0,2.24,1.68C123.53,30.77,125,30.62,126.21,30.67Z"/><path class="cls-1" d="M156.32,14.77c0-3.2,0-6.41,0-9.61,0-.34.09-.43.43-.42,1.38,0,2.75,0,4.12,0,.33,0,.41.08.41.41,0,6.11,0,12.22,0,18.33a19.86,19.86,0,0,1-.89,6.31,7.21,7.21,0,0,1-6,5.12,13.92,13.92,0,0,1-5.64-.1,7.71,7.71,0,0,1-5.79-5.61,17.34,17.34,0,0,1-.77-4.95c-.1-6.38,0-12.77-.05-19.16,0-.29.09-.36.36-.35,1.39,0,2.78,0,4.17,0,.37,0,.41.12.41.44,0,6,0,12,0,18a11.9,11.9,0,0,0,.43,3.51,4.16,4.16,0,0,0,4.85,3.09c2.34-.24,3.49-1.42,3.83-3.81a18.21,18.21,0,0,0,.19-2.66Q156.32,19,156.32,14.77Z"/><path class="cls-1" d="M222.29,14.41c-.67,0-1.35,0-2,0-.32,0-.43-.06-.48-.41a5.35,5.35,0,0,0-2.46-4,4.92,4.92,0,0,0-7.19,2.22,13.66,13.66,0,0,0-1.36,5.13,22.06,22.06,0,0,0,.35,6.78A9.13,9.13,0,0,0,211,28.24a4.86,4.86,0,0,0,8-1.28,7.55,7.55,0,0,0,.74-2.59c0-.29.11-.39.42-.39,1.4,0,2.8,0,4.2,0,.25,0,.37.05.33.33a13.56,13.56,0,0,1-3,7.62,9.08,9.08,0,0,1-7.5,3.19c-4.27-.11-7-2.46-8.78-6.13a18.67,18.67,0,0,1-1.66-6.52,31.09,31.09,0,0,1,.1-6.54,16.19,16.19,0,0,1,3.37-8.62A9.15,9.15,0,0,1,215.61,4c4.45.39,7.54,3.6,8.67,7.78.2.76.32,1.53.45,2.3.06.33-.06.39-.35.38C223.68,14.4,223,14.41,222.29,14.41Z"/><path class="cls-1" d="M12.41,23.58c0-3.68,0-7.35,0-11,0-.41.1-.52.51-.52,3.67,0,7.34,0,11,0a20.92,20.92,0,0,1,4.17.42,5.92,5.92,0,0,1,4.9,5,16.05,16.05,0,0,1,.29,3.17c0,4.66,0,9.33,0,14,0,.41-.09.55-.53.54-1.68,0-3.36,0-5,0-.37,0-.46-.11-.46-.47q0-7.11,0-14.22a6.48,6.48,0,0,0,0-.88c-.24-1.47-1.2-2.25-2.93-2.4-1.9-.16-3.79,0-5.69-.08-.3,0-.31.14-.31.37,0,.94,0,1.88,0,2.81,0,4.78,0,9.55,0,14.32,0,.46-.13.56-.56.55-1.54,0-3.09,0-4.63,0-.79,0-.7.1-.7-.68Z"/><path class="cls-1" d="M82.22,23.61c0,3.68,0,7.36,0,11,0,.38-.06.53-.5.53-3.68,0-7.36,0-11,0a17.7,17.7,0,0,1-4.16-.47,6.13,6.13,0,0,1-4.85-5.3,12.85,12.85,0,0,1-.22-2.48c0-4.78,0-9.57,0-14.36,0-.39.07-.53.5-.52,1.62,0,3.23,0,4.85,0,.41,0,.52.09.52.51q0,6.69,0,13.39a8.62,8.62,0,0,0,.07,1.43,3.08,3.08,0,0,0,3.21,2.87c1.81.1,3.61,0,5.41.06.31,0,.36-.13.35-.39,0-.85,0-1.69,0-2.54,0-4.93,0-9.85,0-14.78,0-.45.13-.56.57-.55,1.61,0,3.23,0,4.85,0,.4,0,.48.13.48.5C82.21,16.22,82.22,19.91,82.22,23.61Z"/><path class="cls-1" d="M177.15,15.23a1,1,0,0,0,.08-.55c0-3.17,0-6.34,0-9.51,0-.34.07-.44.43-.44,1.21,0,2.43,0,3.65,0,.4,0,.51.09.51.5,0,4.85,0,9.7,0,14.55,0,4.68,0,9.36,0,14,0,.37-.07.5-.47.49-1.2,0-2.41,0-3.61,0-.3,0-.39-.08-.38-.39,0-.73,0-1.47,0-2.25a.82.82,0,0,0-.35.41,5.66,5.66,0,0,1-3.88,2.73,5.76,5.76,0,0,1-5.46-2,11.21,11.21,0,0,1-2.49-5.41,20.07,20.07,0,0,1,.23-9.31,9.55,9.55,0,0,1,2.83-4.76,5.49,5.49,0,0,1,8.41,1.15Zm-7.66,8.41a12,12,0,0,0,.13,2,6.87,6.87,0,0,0,1.23,3.23,3.22,3.22,0,0,0,5.17,0,5.3,5.3,0,0,0,.75-1.36,12.9,12.9,0,0,0,.6-5.68,7,7,0,0,0-1.15-3.55,3.27,3.27,0,0,0-5.46,0,5,5,0,0,0-.59,1.09A10.91,10.91,0,0,0,169.49,23.64Z"/><path class="cls-1" d="M195.2,24.78h-5.5c-.38,0-.51.07-.46.48a10.44,10.44,0,0,0,.73,3.12,3.49,3.49,0,0,0,3.61,2,3.22,3.22,0,0,0,2.73-2.27.37.37,0,0,1,.42-.3c1.33,0,2.65,0,4,0,.32,0,.37.06.3.39a8,8,0,0,1-4.4,5.95c-2.65,1.26-6.51,1.09-8.75-1a9.39,9.39,0,0,1-2.69-4.94,19.52,19.52,0,0,1,.31-10.77,7.35,7.35,0,0,1,4.52-5,7.66,7.66,0,0,1,8.14,1.42,9.3,9.3,0,0,1,2.64,5,21.78,21.78,0,0,1,.47,5.22c0,.73,0,.73-.73.73Zm-2.3-3.61H196c.19,0,.44.06.4-.28a6.47,6.47,0,0,0-.93-3,3.16,3.16,0,0,0-5-.18,7,7,0,0,0-1.19,3.15c-.05.31.14.31.36.31C190.74,21.16,191.82,21.17,192.9,21.17Z"/><path class="cls-1" d="M52.62,12c1.44,0,2.87,0,4.3,0,.32,0,.42.09.42.42,0,1.38,0,2.77,0,4.15,0,.33-.1.41-.42.41-2.59,0-5.18,0-7.77,0a7.62,7.62,0,0,0-2.36.38,4.25,4.25,0,0,0-2.87,3,11,11,0,0,0-.07,6.28c.63,2.26,2.29,3.31,4.53,3.59a14,14,0,0,0,1.94.1c2.2,0,4.41,0,6.61,0,.28,0,.41,0,.41.37,0,1.37,0,2.74,0,4.11,0,.27-.06.38-.36.37-3.07,0-6.14.11-9.2-.08A11.36,11.36,0,0,1,40,31.83a9.75,9.75,0,0,1-2.56-5.18,16.93,16.93,0,0,1,.19-7A9,9,0,0,1,45,12.49a19.13,19.13,0,0,1,4.13-.44C50.28,12,51.45,12,52.62,12Z"/><path class="cls-1" d="M6.9,19.41c0,5.08,0,10.16,0,15.24,0,.39-.08.53-.5.52-1.73,0-3.45,0-5.18,0-.32,0-.46,0-.46-.42Q.79,19.38.77,4c0-.35.14-.39.43-.39,1.74,0,3.49,0,5.23,0,.39,0,.48.1.48.48C6.89,9.19,6.9,14.3,6.9,19.41Z"/></g><path class="cls-1" d="M.53,41.62H4.07a2.2,2.2,0,0,1,1.7.71,2.84,2.84,0,0,1,.65,2,3.25,3.25,0,0,1-.58,1.91,2,2,0,0,1-1.76.82H1.6v4H.53Zm4.16,1.29a2,2,0,0,0-1-.19H1.6V46H3.72a1.82,1.82,0,0,0,1.17-.36,1.6,1.6,0,0,0,.44-1.29A1.49,1.49,0,0,0,4.69,42.91Z"/><path class="cls-1" d="M7.69,41.62h1V51h-1Z"/><path class="cls-1" d="M13.21,46.88a.53.53,0,0,0,.44-.34,1.28,1.28,0,0,0-.28-1.3,1.64,1.64,0,0,0-1-.26,1.19,1.19,0,0,0-1.08.48,1.86,1.86,0,0,0-.23.81h-.9a2.09,2.09,0,0,1,.69-1.77,2.49,2.49,0,0,1,1.54-.5,2.78,2.78,0,0,1,1.65.46,1.67,1.67,0,0,1,.63,1.44v4a.62.62,0,0,0,.06.29.3.3,0,0,0,.27.1h.14l.17,0v.85a1.94,1.94,0,0,1-.34.09,1.47,1.47,0,0,1-.32,0,.76.76,0,0,1-.73-.42,1.77,1.77,0,0,1-.17-.63,2.74,2.74,0,0,1-.85.8,2.36,2.36,0,0,1-1.22.34,1.7,1.7,0,0,1-1.32-.58,2.12,2.12,0,0,1-.51-1.45,2,2,0,0,1,.51-1.48,2.18,2.18,0,0,1,1.31-.64ZM11.16,50a1.05,1.05,0,0,0,.73.29,2,2,0,0,0,1-.28,1.65,1.65,0,0,0,.81-1.53v-.93a1.52,1.52,0,0,1-.46.23,2.62,2.62,0,0,1-.54.12L12.1,48a2,2,0,0,0-.79.27,1.05,1.05,0,0,0-.45,1A1,1,0,0,0,11.16,50Z"/><path class="cls-1" d="M16.45,42.25h1v1.92h.92v.94h-.92v4.48a.52.52,0,0,0,.2.48.85.85,0,0,0,.38.07h.15l.19,0V51l-.35.08a2.42,2.42,0,0,1-.39,0,1,1,0,0,1-.92-.41,2.09,2.09,0,0,1-.24-1.07V45.11h-.79v-.94h.79Z"/><path class="cls-1" d="M22.41,46.88a.56.56,0,0,0,.45-.34,1.25,1.25,0,0,0,.06-.44,1,1,0,0,0-.35-.86,1.62,1.62,0,0,0-1-.26,1.19,1.19,0,0,0-1.07.48,1.74,1.74,0,0,0-.23.81h-.91A2.15,2.15,0,0,1,20,44.5a2.53,2.53,0,0,1,1.54-.5,2.83,2.83,0,0,1,1.66.46,1.67,1.67,0,0,1,.63,1.44v4a.62.62,0,0,0,.06.29c0,.07.13.1.26.1h.15l.17,0v.85a2,2,0,0,1-.35.09,1.42,1.42,0,0,1-.32,0,.77.77,0,0,1-.73-.42,1.79,1.79,0,0,1-.16-.63,2.78,2.78,0,0,1-.86.8,2.33,2.33,0,0,1-1.22.34,1.68,1.68,0,0,1-1.31-.58,2.12,2.12,0,0,1-.51-1.45,2.07,2.07,0,0,1,.5-1.48,2.18,2.18,0,0,1,1.31-.64Zm-2,3.11a1,1,0,0,0,.73.29,2,2,0,0,0,1-.28,1.65,1.65,0,0,0,.81-1.53v-.93a1.52,1.52,0,0,1-.46.23,2.86,2.86,0,0,1-.55.12L21.3,48a2.07,2.07,0,0,0-.79.27,1.05,1.05,0,0,0-.45,1A1,1,0,0,0,20.37,50Z"/><path class="cls-1" d="M25.91,42.08a1.37,1.37,0,0,1,1.31-.59h.19l.22,0v1.05h-.35c-.3,0-.48.09-.53.27a6.22,6.22,0,0,0-.09,1.39h1v.91h-1V51h-1V45.11h-.8V44.2h.8V43.13A2.24,2.24,0,0,1,25.91,42.08Z"/><path class="cls-1" d="M32.7,44.85a3.83,3.83,0,0,1,.77,2.6,5.1,5.1,0,0,1-.67,2.74,2.3,2.3,0,0,1-2.1,1.08,2.19,2.19,0,0,1-1.87-1,4.21,4.21,0,0,1-.7-2.57A4.64,4.64,0,0,1,28.86,45a2.31,2.31,0,0,1,2-1A2.37,2.37,0,0,1,32.7,44.85Zm-.6,4.56a5,5,0,0,0,.36-1.93,4,4,0,0,0-.26-1.56A1.41,1.41,0,0,0,30.81,45a1.32,1.32,0,0,0-1.28.8,4.32,4.32,0,0,0-.4,1.95,3.74,3.74,0,0,0,.4,1.82,1.35,1.35,0,0,0,1.26.73A1.29,1.29,0,0,0,32.1,49.41Z"/><path class="cls-1" d="M34.69,44.17h.92v1.18a2.74,2.74,0,0,1,.55-.84,1.36,1.36,0,0,1,1-.5h.09l.23,0v1.21l-.16,0h-.16a1.3,1.3,0,0,0-1.13.56,2.23,2.23,0,0,0-.39,1.29v4h-1Z"/><path class="cls-1" d="M38.34,44.17h1v1a3.26,3.26,0,0,1,.62-.73A1.69,1.69,0,0,1,41,44a1.53,1.53,0,0,1,1.11.41,2,2,0,0,1,.43.68,2.33,2.33,0,0,1,.76-.82,1.83,1.83,0,0,1,1-.27,1.58,1.58,0,0,1,1.59,1,3.84,3.84,0,0,1,.22,1.45V51h-1V46.26a1.24,1.24,0,0,0-.28-.94,1.05,1.05,0,0,0-.71-.26,1.29,1.29,0,0,0-1,.46A2.21,2.21,0,0,0,42.71,47v4h-1V46.55a2.85,2.85,0,0,0-.14-1,.82.82,0,0,0-.82-.48,1.31,1.31,0,0,0-1,.51,2.81,2.81,0,0,0-.45,1.83V51h-1Z"/><path class="cls-1" d="M50.62,46.88a.53.53,0,0,0,.45-.34,1.22,1.22,0,0,0,.07-.44,1,1,0,0,0-.36-.86,1.61,1.61,0,0,0-1-.26,1.19,1.19,0,0,0-1.08.48,1.74,1.74,0,0,0-.23.81h-.91a2.15,2.15,0,0,1,.69-1.77A2.54,2.54,0,0,1,49.8,44a2.8,2.8,0,0,1,1.65.46,1.67,1.67,0,0,1,.63,1.44v4a.62.62,0,0,0,.06.29c0,.07.13.1.26.1h.15l.17,0v.85a2.19,2.19,0,0,1-.34.09,1.52,1.52,0,0,1-.33,0,.78.78,0,0,1-.73-.42,2,2,0,0,1-.16-.63,2.74,2.74,0,0,1-.85.8,2.37,2.37,0,0,1-1.23.34,1.69,1.69,0,0,1-1.31-.58,2.12,2.12,0,0,1-.51-1.45,2.07,2.07,0,0,1,.5-1.48,2.2,2.2,0,0,1,1.32-.64Zm-2,3.11a1.05,1.05,0,0,0,.73.29,2,2,0,0,0,1-.28,1.65,1.65,0,0,0,.81-1.53v-.93a1.52,1.52,0,0,1-.46.23,2.71,2.71,0,0,1-.55.12l-.58.09a2.12,2.12,0,0,0-.8.27,1.05,1.05,0,0,0-.45,1A1,1,0,0,0,48.58,50Z"/><path class="cls-1" d="M59.91,44.38a3,3,0,0,1,.58.67V41.59h.93V51h-.87v-1a2.29,2.29,0,0,1-.8.92,2,2,0,0,1-1.06.28,2,2,0,0,1-1.66-1,4.27,4.27,0,0,1-.7-2.57A5,5,0,0,1,57,45.15a2,2,0,0,1,1.83-1.1A1.83,1.83,0,0,1,59.91,44.38Zm-2.17,5.14a1.31,1.31,0,0,0,1.26.74,1.29,1.29,0,0,0,1.1-.68,3.73,3.73,0,0,0,.43-2,3.27,3.27,0,0,0-.45-1.92,1.3,1.3,0,0,0-1.1-.63,1.37,1.37,0,0,0-1.18.67,3.51,3.51,0,0,0-.45,2A3.92,3.92,0,0,0,57.74,49.52Z"/><path class="cls-1" d="M66.44,44.36a2.37,2.37,0,0,1,.87.88,3.66,3.66,0,0,1,.39,1.21A10.68,10.68,0,0,1,67.78,48h-4.2A3.34,3.34,0,0,0,64,49.64a1.28,1.28,0,0,0,1.19.64,1.43,1.43,0,0,0,1.2-.6,2.14,2.14,0,0,0,.36-.81h1a2.6,2.6,0,0,1-.25.85,3.19,3.19,0,0,1-.47.76,2.22,2.22,0,0,1-1.09.69,3.1,3.1,0,0,1-.79.1,2.25,2.25,0,0,1-1.81-.93,4.06,4.06,0,0,1-.75-2.61,4.43,4.43,0,0,1,.75-2.68,2.33,2.33,0,0,1,2-1A2.28,2.28,0,0,1,66.44,44.36Zm.35,2.69a3.31,3.31,0,0,0-.28-1.2,1.42,1.42,0,0,0-2.43-.26,2.38,2.38,0,0,0-.47,1.46Z"/><path class="cls-1" d="M72.31,41.62h5.74v1.15H73.36v2.86H77.7v1.09H73.36v3.19h4.78V51H72.31Z"/><path class="cls-1" d="M79.44,44.17h1v1a3.55,3.55,0,0,1,.62-.73,1.71,1.71,0,0,1,1.09-.4,1.53,1.53,0,0,1,1.11.41,2,2,0,0,1,.43.68,2.33,2.33,0,0,1,.76-.82,1.83,1.83,0,0,1,1-.27A1.58,1.58,0,0,1,87,45a3.82,3.82,0,0,1,.23,1.45V51h-1V46.26a1.24,1.24,0,0,0-.29-.94,1,1,0,0,0-.7-.26,1.31,1.31,0,0,0-1,.46A2.27,2.27,0,0,0,83.81,47v4h-1V46.55a2.64,2.64,0,0,0-.14-1,.81.81,0,0,0-.82-.48,1.31,1.31,0,0,0-1,.51,2.81,2.81,0,0,0-.45,1.83V51h-1Z"/><path class="cls-1" d="M88.55,44.2h1v.91a2.69,2.69,0,0,1,.64-.72A1.8,1.8,0,0,1,91.29,44a2,2,0,0,1,1.67.9,4.08,4.08,0,0,1,.69,2.55,4.33,4.33,0,0,1-1,3.2,2.05,2.05,0,0,1-1.46.61,1.8,1.8,0,0,1-1.1-.34,3.12,3.12,0,0,1-.58-.66v3.5h-1Zm3.65,5.38a3.69,3.69,0,0,0,.45-2,4.2,4.2,0,0,0-.2-1.41A1.41,1.41,0,0,0,91.07,45c-.68,0-1.14.4-1.39,1.2a5.7,5.7,0,0,0-.2,1.63,4.09,4.09,0,0,0,.2,1.35,1.4,1.4,0,0,0,1.39,1.06A1.32,1.32,0,0,0,92.2,49.58Z"/><path class="cls-1" d="M94.8,44.17h.92v1.18a2.63,2.63,0,0,1,.56-.84,1.32,1.32,0,0,1,1-.5h.1l.22,0v1.21l-.16,0h-.16a1.3,1.3,0,0,0-1.13.56,2.23,2.23,0,0,0-.39,1.29v4h-1Z"/><path class="cls-1" d="M102,44.36a2.37,2.37,0,0,1,.87.88,3.25,3.25,0,0,1,.39,1.21,9.08,9.08,0,0,1,.09,1.52h-4.2a3.34,3.34,0,0,0,.41,1.67,1.29,1.29,0,0,0,1.19.64,1.44,1.44,0,0,0,1.21-.6,2.29,2.29,0,0,0,.35-.81h1a2.64,2.64,0,0,1-.26.85,3.19,3.19,0,0,1-.47.76,2.13,2.13,0,0,1-1.09.69,3.08,3.08,0,0,1-.78.1,2.26,2.26,0,0,1-1.82-.93,4.12,4.12,0,0,1-.74-2.61,4.43,4.43,0,0,1,.75-2.68,2.32,2.32,0,0,1,2-1A2.25,2.25,0,0,1,102,44.36Zm.35,2.69a3.55,3.55,0,0,0-.27-1.2,1.37,1.37,0,0,0-1.32-.83,1.35,1.35,0,0,0-1.11.57,2.45,2.45,0,0,0-.48,1.46Z"/><path class="cls-1" d="M104.59,44.17h.92v1a2.7,2.7,0,0,1,.86-.86,2,2,0,0,1,1-.27,1.63,1.63,0,0,1,1.66,1,4.2,4.2,0,0,1,.24,1.6V51h-1V46.7a2.87,2.87,0,0,0-.15-1,1,1,0,0,0-.94-.64,1.55,1.55,0,0,0-.57.09,1.47,1.47,0,0,0-.7.56,1.88,1.88,0,0,0-.31.7,5.5,5.5,0,0,0-.07,1V51h-1Z"/><path class="cls-1" d="M113.89,44.38a2.74,2.74,0,0,1,.59.67V41.59h.93V51h-.87v-1a2.37,2.37,0,0,1-.8.92,2,2,0,0,1-1.06.28,2,2,0,0,1-1.66-1,4.28,4.28,0,0,1-.71-2.57,5,5,0,0,1,.65-2.59,2,2,0,0,1,1.83-1.1A1.78,1.78,0,0,1,113.89,44.38Zm-2.16,5.14a1.31,1.31,0,0,0,1.25.74,1.29,1.29,0,0,0,1.11-.68,3.83,3.83,0,0,0,.43-2,3.27,3.27,0,0,0-.45-1.92,1.3,1.3,0,0,0-1.1-.63,1.37,1.37,0,0,0-1.18.67,3.51,3.51,0,0,0-.45,2A3.92,3.92,0,0,0,111.73,49.52Z"/><path class="cls-1" d="M116.86,41.62h1v1.31h-1Zm0,2.58h1V51h-1Z"/><path class="cls-1" d="M119.31,44.17h1v1a3.26,3.26,0,0,1,.63-.73A1.69,1.69,0,0,1,122,44a1.53,1.53,0,0,1,1.11.41,2.22,2.22,0,0,1,.43.68,2.25,2.25,0,0,1,.76-.82,1.83,1.83,0,0,1,1-.27,1.57,1.57,0,0,1,1.58,1,3.82,3.82,0,0,1,.23,1.45V51h-1V46.26a1.2,1.2,0,0,0-.29-.94,1,1,0,0,0-.7-.26,1.29,1.29,0,0,0-1,.46,2.21,2.21,0,0,0-.42,1.52v4h-1V46.55a2.85,2.85,0,0,0-.14-1,.83.83,0,0,0-.83-.48,1.33,1.33,0,0,0-1,.51,2.81,2.81,0,0,0-.45,1.83V51h-1Z"/><path class="cls-1" d="M128.51,41.62h1v1.31h-1Zm0,2.58h1V51h-1Z"/><path class="cls-1" d="M134.52,44.36a2.32,2.32,0,0,1,.88.88,3.44,3.44,0,0,1,.38,1.21,9.08,9.08,0,0,1,.09,1.52h-4.2a3.45,3.45,0,0,0,.41,1.67,1.3,1.3,0,0,0,1.19.64,1.43,1.43,0,0,0,1.21-.6,2.12,2.12,0,0,0,.35-.81h1a2.87,2.87,0,0,1-.25.85,2.92,2.92,0,0,1-.48.76,2.15,2.15,0,0,1-1.08.69,3.16,3.16,0,0,1-.79.1,2.24,2.24,0,0,1-1.81-.93,4.06,4.06,0,0,1-.75-2.61,4.43,4.43,0,0,1,.75-2.68,2.32,2.32,0,0,1,2-1A2.25,2.25,0,0,1,134.52,44.36Zm.35,2.69a3.55,3.55,0,0,0-.27-1.2,1.42,1.42,0,0,0-2.43-.26,2.45,2.45,0,0,0-.48,1.46Z"/><path class="cls-1" d="M137.1,44.17H138v1a2.62,2.62,0,0,1,.87-.86,1.94,1.94,0,0,1,1-.27,1.64,1.64,0,0,1,1.66,1,4.44,4.44,0,0,1,.23,1.6V51h-1V46.7a2.85,2.85,0,0,0-.16-1,1,1,0,0,0-.94-.64,1.46,1.46,0,0,0-.56.09,1.43,1.43,0,0,0-.7.56,1.76,1.76,0,0,0-.32.7,5.5,5.5,0,0,0-.07,1V51h-1Z"/><path class="cls-1" d="M143.43,42.25h1v1.92h.92v.94h-.92v4.48a.53.53,0,0,0,.21.48.8.8,0,0,0,.37.07h.15l.19,0V51l-.35.08a2.42,2.42,0,0,1-.39,0,1,1,0,0,1-.92-.41,2.09,2.09,0,0,1-.24-1.07V45.11h-.78v-.94h.78Z"/><path class="cls-1" d="M150.48,44.85a3.88,3.88,0,0,1,.77,2.6,5.2,5.2,0,0,1-.67,2.74,2.3,2.3,0,0,1-2.1,1.08,2.21,2.21,0,0,1-1.88-1,4.28,4.28,0,0,1-.69-2.57,4.64,4.64,0,0,1,.73-2.75,2.31,2.31,0,0,1,2-1A2.37,2.37,0,0,1,150.48,44.85Zm-.6,4.56a5,5,0,0,0,.36-1.93,4,4,0,0,0-.26-1.56,1.41,1.41,0,0,0-1.4-.94,1.31,1.31,0,0,0-1.27.8,4.32,4.32,0,0,0-.4,1.95,3.74,3.74,0,0,0,.4,1.82,1.34,1.34,0,0,0,1.26.73A1.29,1.29,0,0,0,149.88,49.41Z"/><path class="cls-1" d="M153,48.87a2,2,0,0,0,.24.89,1.46,1.46,0,0,0,1.3.55,1.75,1.75,0,0,0,1-.27,1,1,0,0,0,.42-.86.77.77,0,0,0-.34-.68,3.58,3.58,0,0,0-.84-.32L154,48a3.66,3.66,0,0,1-1.11-.49,1.51,1.51,0,0,1-.63-1.29,2,2,0,0,1,2.2-2.18,2.1,2.1,0,0,1,1.91.91,2.2,2.2,0,0,1,.35,1.24h-.91a1.5,1.5,0,0,0-.24-.71,1.4,1.4,0,0,0-1.19-.45,1.27,1.27,0,0,0-.85.25.85.85,0,0,0-.29.66.83.83,0,0,0,.38.71,2.1,2.1,0,0,0,.65.28l.65.19a4.56,4.56,0,0,1,1.43.58,1.66,1.66,0,0,1,.57,1.39,2.17,2.17,0,0,1-2.4,2.25,2.17,2.17,0,0,1-1.84-.7,2.85,2.85,0,0,1-.59-1.72Z"/><path class="cls-1" d="M166.72,41.62v1.12h-2.67V51H163V42.74H160.3V41.62Z"/><path class="cls-1" d="M169.92,44.36a2.37,2.37,0,0,1,.87.88,3.44,3.44,0,0,1,.38,1.21,9.08,9.08,0,0,1,.09,1.52h-4.2a3.45,3.45,0,0,0,.41,1.67,1.3,1.3,0,0,0,1.2.64,1.43,1.43,0,0,0,1.2-.6,2.12,2.12,0,0,0,.35-.81h1a2.87,2.87,0,0,1-.25.85,2.92,2.92,0,0,1-.48.76,2.15,2.15,0,0,1-1.08.69,3.16,3.16,0,0,1-.79.1,2.24,2.24,0,0,1-1.81-.93,4.06,4.06,0,0,1-.75-2.61,4.43,4.43,0,0,1,.75-2.68,2.31,2.31,0,0,1,3.15-.69Zm.34,2.69a3.55,3.55,0,0,0-.27-1.2,1.42,1.42,0,0,0-2.43-.26,2.45,2.45,0,0,0-.48,1.46Z"/><path class="cls-1" d="M176.3,44.53a3,3,0,0,1,.74,1.94h-.95a2.24,2.24,0,0,0-.39-1,1.13,1.13,0,0,0-1-.42,1.38,1.38,0,0,0-1.32,1.08,5,5,0,0,0-.26,1.72,3.66,3.66,0,0,0,.37,1.73,1.2,1.2,0,0,0,1.15.7,1.16,1.16,0,0,0,1-.44,2.61,2.61,0,0,0,.48-1.19H177a3.25,3.25,0,0,1-.81,2,2.27,2.27,0,0,1-1.66.63,2.07,2.07,0,0,1-1.8-1,4.21,4.21,0,0,1-.68-2.45,4.67,4.67,0,0,1,.74-2.81,2.26,2.26,0,0,1,1.88-1A2.29,2.29,0,0,1,176.3,44.53Z"/><path class="cls-1" d="M178,44.17h.92v1a2.62,2.62,0,0,1,.87-.86,1.93,1.93,0,0,1,1-.27,1.63,1.63,0,0,1,1.66,1,4.2,4.2,0,0,1,.24,1.6V51h-1V46.7a2.85,2.85,0,0,0-.16-1,1,1,0,0,0-.94-.64,1.46,1.46,0,0,0-.56.09,1.49,1.49,0,0,0-.71.56,1.88,1.88,0,0,0-.31.7,5.5,5.5,0,0,0-.07,1V51h-1Z"/><path class="cls-1" d="M188.33,44.85a3.88,3.88,0,0,1,.76,2.6,5.1,5.1,0,0,1-.67,2.74,2.29,2.29,0,0,1-2.09,1.08,2.2,2.2,0,0,1-1.88-1,4.21,4.21,0,0,1-.7-2.57,4.71,4.71,0,0,1,.73-2.75,2.31,2.31,0,0,1,2-1A2.39,2.39,0,0,1,188.33,44.85Zm-.61,4.56a5,5,0,0,0,.36-1.93,4,4,0,0,0-.26-1.56,1.41,1.41,0,0,0-1.39-.94,1.32,1.32,0,0,0-1.28.8,4.32,4.32,0,0,0-.4,1.95,3.74,3.74,0,0,0,.4,1.82,1.35,1.35,0,0,0,1.27.73A1.29,1.29,0,0,0,187.72,49.41Z"/><path class="cls-1" d="M190.31,41.62h1V51h-1Z"/><path class="cls-1" d="M196.92,44.85a3.88,3.88,0,0,1,.76,2.6,5.1,5.1,0,0,1-.67,2.74,2.29,2.29,0,0,1-2.09,1.08,2.2,2.2,0,0,1-1.88-1,4.21,4.21,0,0,1-.7-2.57,4.71,4.71,0,0,1,.73-2.75,2.31,2.31,0,0,1,2-1A2.39,2.39,0,0,1,196.92,44.85Zm-.61,4.56a5,5,0,0,0,.36-1.93,4,4,0,0,0-.26-1.56A1.41,1.41,0,0,0,195,45a1.32,1.32,0,0,0-1.28.8,4.32,4.32,0,0,0-.4,1.95,3.74,3.74,0,0,0,.4,1.82,1.35,1.35,0,0,0,1.27.73A1.29,1.29,0,0,0,196.31,49.41Zm-.12-8-1.44,1.85H194l1-1.85Z"/><path class="cls-1" d="M202.08,44.44a3,3,0,0,1,.56.66v-.87h.9v6.24a5.24,5.24,0,0,1-.33,2.06,2.25,2.25,0,0,1-2.27,1.4,2.45,2.45,0,0,1-1.56-.5,2.06,2.06,0,0,1-.71-1.55h1a1.49,1.49,0,0,0,.28.71,1.3,1.3,0,0,0,1,.38,1.4,1.4,0,0,0,1.46-.93,6.52,6.52,0,0,0,.18-2,1.82,1.82,0,0,1-1.77,1,2.12,2.12,0,0,1-1.64-.79,3.91,3.91,0,0,1-.7-2.62A4.5,4.5,0,0,1,199.2,45a2.07,2.07,0,0,1,1.7-1A1.86,1.86,0,0,1,202.08,44.44Zm.12,1.24a1.33,1.33,0,0,0-1.12-.62,1.41,1.41,0,0,0-1.39,1.14,5.07,5.07,0,0,0-.2,1.6,3.26,3.26,0,0,0,.39,1.76,1.2,1.2,0,0,0,1.06.61,1.5,1.5,0,0,0,1.46-1.12,4.21,4.21,0,0,0,.24-1.48A3.29,3.29,0,0,0,202.2,45.68Z"/><path class="cls-1" d="M205,41.62h1v1.31h-1Zm0,2.58h1V51h-1Z"/><path class="cls-1" d="M211.28,44.53a3,3,0,0,1,.73,1.94h-.94a2.35,2.35,0,0,0-.39-1,1.16,1.16,0,0,0-1-.42,1.39,1.39,0,0,0-1.33,1.08,5,5,0,0,0-.25,1.72,3.78,3.78,0,0,0,.36,1.73,1.22,1.22,0,0,0,1.15.7,1.13,1.13,0,0,0,1-.44,2.51,2.51,0,0,0,.49-1.19H212a3.25,3.25,0,0,1-.81,2,2.26,2.26,0,0,1-1.65.63,2.08,2.08,0,0,1-1.81-1,4.21,4.21,0,0,1-.67-2.45,4.67,4.67,0,0,1,.74-2.81,2.25,2.25,0,0,1,1.88-1A2.29,2.29,0,0,1,211.28,44.53Z"/><path class="cls-1" d="M217.16,44.85a3.88,3.88,0,0,1,.77,2.6,5.2,5.2,0,0,1-.67,2.74,2.3,2.3,0,0,1-2.1,1.08,2.21,2.21,0,0,1-1.88-1,4.28,4.28,0,0,1-.69-2.57,4.64,4.64,0,0,1,.73-2.75,2.31,2.31,0,0,1,2-1A2.37,2.37,0,0,1,217.16,44.85Zm-.6,4.56a5,5,0,0,0,.36-1.93,4,4,0,0,0-.26-1.56,1.41,1.41,0,0,0-1.4-.94,1.31,1.31,0,0,0-1.27.8,4.32,4.32,0,0,0-.4,1.95,3.74,3.74,0,0,0,.4,1.82,1.34,1.34,0,0,0,1.26.73A1.29,1.29,0,0,0,216.56,49.41Z"/><path class="cls-1" d="M219.7,48.87a2,2,0,0,0,.24.89,1.46,1.46,0,0,0,1.3.55,1.75,1.75,0,0,0,1-.27,1,1,0,0,0,.42-.86.77.77,0,0,0-.34-.68,3.58,3.58,0,0,0-.84-.32l-.78-.23a3.66,3.66,0,0,1-1.11-.49,1.51,1.51,0,0,1-.63-1.29,2,2,0,0,1,2.2-2.18,2.1,2.1,0,0,1,1.91.91,2.2,2.2,0,0,1,.35,1.24h-.91a1.5,1.5,0,0,0-.24-.71,1.4,1.4,0,0,0-1.19-.45,1.27,1.27,0,0,0-.85.25.85.85,0,0,0-.29.66.83.83,0,0,0,.38.71,2.1,2.1,0,0,0,.65.28l.65.19a4.56,4.56,0,0,1,1.43.58,1.66,1.66,0,0,1,.57,1.39,2.17,2.17,0,0,1-2.4,2.25,2.17,2.17,0,0,1-1.84-.7,2.85,2.85,0,0,1-.59-1.72Z"/></svg>