<svg id="Capa_1" data-name="Capa 1" xmlns="http://www.w3.org/2000/svg" viewBox="0 0 299.92 246.15"><defs><style>.cls-1{fill:#e4edf2;}.cls-2{fill:#5da6bc;}.cls-3{fill:#f0d44f;}.cls-4{fill:#cd576a;}.cls-5{fill:#536472;}</style></defs><path class="cls-1" d="M11.7,122.48c.58,37.45,13.07,76.07,40.14,97,21.4,16.51,48.85,20.08,75.24,21.48A620.54,620.54,0,0,0,219,239c20.84-2,43.65-6.17,57.92-23.82,16.69-20.62,15.43-51.38,13.12-78.42-3.54-41.42-9.83-88.21-40.67-110.39-18.08-13-41-14.49-62.82-15.6l-77-3.91C91,5.88,58.46-3.35,41,5.92,13.48,20.52,11.78,95.12,11.7,122.48Z"/><path class="cls-2" d="M69.24,116.5a177.45,177.45,0,0,0,11.9,60.55c2,5.11,4.36,10.37,8.86,13.78,4.87,3.69,11.42,4.61,17.64,5.19,18.37,1.72,36.87,1.68,55.33,1.63,20.67-.05,41.65-.15,61.5-5.57,3-.81,6.07-1.82,8.17-4,2.89-3,3.27-7.33,3.38-11.35a206.17,206.17,0,0,0-9-66.1c-1.31-4.28-2.89-8.72-6.34-11.76-4.5-4-11.13-4.68-17.27-5.1A559.79,559.79,0,0,0,93,97.21c-6.6.86-13.51,2-18.72,5.89s-7.84,11.6-3.88,16.66"/><path class="cls-2" d="M69.84,120.15c.23.15.28-.06-.16-.65l-.57-.27Z"/><path class="cls-2" d="M68.49,115.46a9,9,0,0,0-.4-1.13c-.12-.28-.26-.4-.41-.11.14.44.24.7.31,1a2.61,2.61,0,0,0,.45,1c.16.7.26,1.23.09,1.16a3.76,3.76,0,0,1,.27.67,1.81,1.81,0,0,0,.47.68c-.26-.94-.6-2-1-3.22C68.32,115.16,68.43,115.41,68.49,115.46Z"/><path class="cls-2" d="M127.43,94.24H127A2.16,2.16,0,0,0,127.43,94.24Z"/><path class="cls-2" d="M169.91,93.15c-.32,0-.46,0-.47.06C169.74,93.19,170,93.18,169.91,93.15Z"/><path class="cls-2" d="M177.16,93.61l-.42,0A1.29,1.29,0,0,0,177.16,93.61Z"/><path class="cls-2" d="M127.43,94.24l1.14,0C128.64,94.16,128,94.23,127.43,94.24Z"/><path class="cls-2" d="M70.29,106a3.08,3.08,0,0,0-.28.59,5.39,5.39,0,0,1,.3-.52A.64.64,0,0,1,70.29,106Z"/><path class="cls-2" d="M108.78,96.09l-.35,0a1.91,1.91,0,0,0-.27.16Z"/><path class="cls-2" d="M94.5,97.78c.32,0,.4-.31.51-.45a1.57,1.57,0,0,1-.68.28S94.38,97.72,94.5,97.78Z"/><path class="cls-2" d="M73.27,104.29l-.26.3Z"/><path class="cls-2" d="M119,95.2a.28.28,0,0,0,.14.09S119.11,95.23,119,95.2Z"/><path class="cls-2" d="M69.08,133.29s0,0,0,0S69.07,133.18,69.08,133.29Z"/><path class="cls-2" d="M69.31,116.5l0,.23a.44.44,0,0,0,.15,0Z"/><path class="cls-2" d="M190.41,94.39h-.06C190,94.4,190.2,94.4,190.41,94.39Z"/><path class="cls-2" d="M232.89,186c.43-.45.23,0,.06.42s-.33.75.34,0C233.14,186.5,233.81,184.72,232.89,186Z"/><path class="cls-2" d="M70.56,105.75l.36-.5A4.32,4.32,0,0,0,70.56,105.75Z"/><path class="cls-2" d="M233.29,186.42h0l.14-.16Z"/><path class="cls-2" d="M219.45,99.37a1,1,0,0,0-.15-.28S219.32,99.19,219.45,99.37Z"/><path class="cls-2" d="M198.23,94.25l.56.07A4.73,4.73,0,0,0,198.23,94.25Z"/><path class="cls-2" d="M225.58,108.64a4.41,4.41,0,0,0,.24.78.62.62,0,0,0,0-.13A1.92,1.92,0,0,1,225.58,108.64Z"/><path class="cls-2" d="M229,120.43v-.23c0-.12-.08-.26-.11-.38Z"/><path class="cls-2" d="M77.39,170a2.1,2.1,0,0,1,0-.62C77.32,169.65,76.69,167.94,77.39,170Z"/><path class="cls-2" d="M70.42,106.13a.61.61,0,0,1,.14-.38l-.25.36S70.35,106.19,70.42,106.13Z"/><path class="cls-2" d="M227.79,108.43l.56,1.91C228.21,109.8,228,109.11,227.79,108.43Z"/><path class="cls-2" d="M153,198.78l-.45,0A1.57,1.57,0,0,0,153,198.78Z"/><path class="cls-2" d="M230,116a6.16,6.16,0,0,0,.11,1.12.84.84,0,0,0,.13.21Z"/><path class="cls-2" d="M77.44,169.4h0Z"/><path class="cls-2" d="M73.17,157.12c.46,1.82.56.77.86,1.1.67,2.14,0,1.07,0,1.86.48,1.32,1.06,2.27,1.36,3.27,0,.09,0,.29-.14.09a20,20,0,0,1,1,2.79,16.69,16.69,0,0,0,1.17,2.93.47.47,0,0,1,0,.24c.09-.32.25-.42.39-.4.26.8.71,1.4.59,1.78a1.75,1.75,0,0,0-.41-.71l.38.8c0,.86-.51-1.09-.74-1,.68,1.59,1.57,3.39,1.95,4.65-.23.38-1.14-2.85-.83-1.1l-.55-2c0,1.65-.38-1.18-.43.36.78,2.57,1.17,2.77,2,5.32.38.5.18-.29.57.21a8.4,8.4,0,0,1,1,3.14,4.16,4.16,0,0,0,.93,2.39,5.74,5.74,0,0,1,1.84,2.49c-.23-.13-.46-.26-.68-.41a5,5,0,0,0,1.32,1.68,7.68,7.68,0,0,1,1.38,1.74c-.45-.28-1.38-1.61-1.17-1.25a2.53,2.53,0,0,0,.91,1.2,3.5,3.5,0,0,1,.94.77l0,.44a17.05,17.05,0,0,0,3.58,2.81,24.46,24.46,0,0,0,4.28,2c-.19,0-.74-.08-.09.29a72.2,72.2,0,0,0,11.9,2.68l1.45-.15c.33,0,.6.18.24.21,1.43.23.09-.18.79-.23s1.07.26.55.3a74.67,74.67,0,0,1,10,.5l-.52,0c2.08.24,2.39-.45,4.32-.09l-.38,0c4.54.35,9.57.23,13,.73.67-.4,4.49.26,4.79-.31a45.81,45.81,0,0,0,5.5.63c1,0,1.46-.35,2.67-.41l0,.3,1.63-.31.88.36,1.13-.07c-.45,0-1-.14-.89-.22A13.63,13.63,0,0,1,156,199l4.18-.26a5,5,0,0,1-1.35.24c2.23-.31.41.31,2.45,0-.27-.07.15-.18.19-.24a31.06,31.06,0,0,0,5.06.09l-.33.21c3.1,0,6.54-.13,10-.18-1.25-.08-1-.44.06-.49l.41.31c.66-.2-1.07-.1.28-.36,1.3,0,.88.34.14.46l1.58-.14c.09.1-.28.15-.37.28.64-.21,2.74.25,3.67-.11l.09.09c3.49-.1,5.07-.28,7.91-.44,0-.27,1.15-.28,2-.55,2.09,0,4.42,0,6.93-.24,1.76-.3.5-.27,1.27-.51.16.23,2.66,0,1.38.27,3-.38,3.84-.47,7.6-1.21-.42,0-.89,0-.66-.14.68-.13,1.57-.13,1.49,0l-.17.06c4.17-1,9.92-1.07,13.13-2.46l-.18.07c1.13-.38,2.25-.74,3.38-1.18,1.6-.45-.9.47.32.25a43,43,0,0,0,4.63-2.13,8.76,8.76,0,0,0,3.43-3.26,6.32,6.32,0,0,0,1.51-2.24,13.72,13.72,0,0,0,.9-3.35c.35-2.38.29-4.8.56-6.43l-.18.19c-.16-.86.12-1,.17-1.66-.14.09-.17.92-.26.39-.07-7.2.08-14.88-.44-22.28-.21-2.7-1-1.44-1-4.87l.43.93c-1-5.38-1.45-11.08-2.79-16.27a2.11,2.11,0,0,1,.32.81,11.37,11.37,0,0,0-1-4.08c-.15-.82.13-.22.12-.74-.09-1.15-.91-2.71-.82-3.35,0-.11.15.29.21.49-.27-.7-.74-3.36-.85-2.61-.37-2-1-3.69-1.31-5.27-.56-.92-.76-3.35-1.28-3.54.45,0-.63-3.47-1.24-4.63.26.37-.22-1.1.11-.68-.46-1.4-1.06-2.64-1.17-2.31a9.8,9.8,0,0,0-1.67-3.64,12.64,12.64,0,0,1-1.68-2.71,16.43,16.43,0,0,0-5.42-3.81A25.56,25.56,0,0,0,211.93,94c.11-.2,1.19,0,2.22.3s2,.65,2,.4a24.74,24.74,0,0,0-4.8-1l-4.73-.54c-.94-.14.55-.14.88-.17-3.7-.21-7.06-.55-10.32-.54a2.29,2.29,0,0,1,.69-.07c-.64,0-1.48-.16-1.42,0h.63c1,.34-2.57.46-2.69.62,1.11-.52-3.2-.31-1.44-.94-.42,0-.95.08-.86.22-.62-.07-.82-.16-.18-.27-2.29,0-1.49.23-3.56.15,0-.1.43-.12.65-.22a15.11,15.11,0,0,1-3.87.15c.11,0-.1-.14.43-.12-3-.09-5.15.35-8.45.08,1-.4-1.12-.17-1.28-.53l-1.78.08.71.19c-1.56,0-2.94.22-4.28.08l1.16-.13-2.91,0,1.64.16c-1.57.17.17.46-1.9.34.42,0-1.55,0-2.37-.22h0a11.05,11.05,0,0,1-2.71.15c-.3-.12.24-.4,0-.48-.75.29-3.64.11-4.6.44.32-.08.34-.27.23-.3l-.64.25c-.72-.07-.82-.11-.71-.26-2.17,0,.7.45-1.88.29a3.53,3.53,0,0,1,.53-.11c-2.59-.07-5,.28-7.37.21-.71-.35,2.07-.15,1.26-.43-3.42.14-7.07.67-10.38.72h.62c-.44.54-2.48-.13-4.14.2.4-.06.52-.32.41-.25-2.27,0-4.63.38-8.05.75l.42-.16c-1.34,0-3.52.17-5,.22-.42.16-1.25.2-.73.36a25.88,25.88,0,0,0-6.4.36,30.87,30.87,0,0,1-6,.48c.47,0,1.11-.22.73-.19l-3.33.46c.28.2.45.09,1.17.19a9.23,9.23,0,0,1-2.17.46c1.49-.3-.05-.36-.72-.42.12.06-.1.16,0,.22-1.79-.2-.25.48-2.66.48l.11-.13a26,26,0,0,1-2.65.48c-.43-.21.93-.23,1-.45-1.35.17-2.61.78-3.86.68.56-.14,1.38-.24,2-.38A9.29,9.29,0,0,0,98,96h.1l-2.3.15h.59c-1.6.89-3.43.54-5.64,1.3,2.15-.73.33-.29.46-.61-.59,0-1.49,0-1.25-.08-1,.4-1.84.09-3.3.72-.09-.09-1.15.22-1-.06-1.38.36.37.09.27.23-2,.75-5.18.77-8,2.52a13.1,13.1,0,0,0-2.46,1.7c-.3.26-.59.52-.92.83s-.69.64-1.14,1.07c-.76.43.31-.71.31-.71a8.42,8.42,0,0,0-2.63,2.65c.1-.27-.12-.09-.45.17a1.88,1.88,0,0,0-.39.85,3.21,3.21,0,0,1-.57,1,3.21,3.21,0,0,1,.22-1.11,14.93,14.93,0,0,0-1.32,3.58c-.27.28,0-.83.11-1.29a10.78,10.78,0,0,0-.65,2.44,4.37,4.37,0,0,0,0,1.77l.21-.91c0,.52-.26.24-.26-.16,0-1.29.53-1.74.64-1.77-.06.3-.16.59-.19.89a6.94,6.94,0,0,0,.93-2.21c.16-.48.37-1,.57-1.47a8.88,8.88,0,0,1,.75-1.3,8.08,8.08,0,0,0-.08.86,14,14,0,0,1,.82-1.7c.34-.24.68-.29.15.42,1-.84.63-1,1.58-1.57.11-.06.08,0,0,.08a12.32,12.32,0,0,1,.87-.9c-.14.22.33.09-.29.53,1.83-1.21,2.8-2.27,3.68-2.41l-.15.11c1.35-.75,1.41-.82,1.34-.91s-.23-.15.8-.77c.59,0,1.16.07,1.74.15l.2-.38c.3-.1.92-.26.84-.11,1.09-.53-.23-.06.38-.44,1.56-.19,4.15-1.12,4.59-.7.51-.32-1.49.09.11-.36.55.41,1.88-.41,3.32-.39-.39.32-1.74.39-.3.41.78-.57,2.75-.29,3.93-.51,0-.36,2.57-.47,4.56-.84-.12.12,3.78-.24,5.66-.32l0,.07c.32-.39,2.25-.55,3.64-.76,0,.22-.27.33-1,.5l1.31-.13a5.19,5.19,0,0,1,1.56-.37l-.31.3a46.66,46.66,0,0,1,5.77-.69c.11-.26-1.86-.53.52-.91.1.13.21.35-.41.46a4.41,4.41,0,0,1,1.13-.15l-.93.3c1,0,.52-.23,1.34-.28,0,.19.62.08.52.24a7,7,0,0,0-1,.09,10.89,10.89,0,0,1,2.44.08c-.09-.1,0-.25.65-.34,1.76-.16.62.18,1.65.2.42-.17,1.55-.11,1.56-.4a1.44,1.44,0,0,1,.82.15c.9-.19,4.24-.35,3.19-.58h-.23l.15,0h0c3-.48,6.2-.25,9.15-.51v.09c1.76-.2,3.93-.26,5.18-.53.53,0,1.25.13,1,.25a17.27,17.27,0,0,1,3.45-.15c-1.35.22.47.14-1.39.18a16.34,16.34,0,0,0,4-.17c-.64.26,1.33.27,2.16.18l-1.23-.15c.93-.06,1.76-.05,2.59-.05l-.44.33c3.59.29,6.46-.79,9.21-.17,1-.24-2-.14-1.11-.41a38,38,0,0,1,3.9.48c2.26.18,2.11-.48,4.48-.35-.3-.12-.59-.43,1.18-.53,1.66.06,2,.51,1,.59-.4,0-.59,0-.57-.08-.54,0-1.24.09-.58.21l.21-.11c.82.13,3.1.14,2.56.32,1.25-.09.54-.18-.39-.25,2.12.2,3.32,0,5.5.2-.35-.07-.67-.22-.32-.21,3.2.22,1.41-.18,3.58-.18,1.23.21-.45.41,1.74.32,1.33.15.27.31-.26.39a24.78,24.78,0,0,1,4.84.35l-1,.06a15.47,15.47,0,0,1,1.67,0l-.59-.25c.61.06,1.13.08,1.12.18.63-.13-.47-.4.79-.56.82.14,2.5,0,2.77.3-2.57-.23.27.32-1.91.27a8.73,8.73,0,0,1,1.55.07c.09,0-.09.06-.26.07,2.45.4,1.15-.29,3.71-.15-.34.15.57.35,1,.34-1-.06-.48-.31.47-.4a18.69,18.69,0,0,0,2.65.07l-1-.13a9.2,9.2,0,0,1,2.31-.06c.09.14-1,0-.64.11,1.29-.22,2.85.49,4.63.4.8.18,0,.33.76.46,2-.06,2.1.4,4.15.46-.55-.3-.67-.27.8-.29-1.13-.11-2.25-.19-3.38-.23.73,0,1.46-.08,2.2-.11-1-.12-2.17-.08-2.78-.17,1-.1.94,0,.47-.29,1.37.47,2.81.08,4.38.57l-.15.56c1.16.33,2.21.47,3.34.69A12.22,12.22,0,0,1,217,97.49a8.85,8.85,0,0,0-.84-.5c.48-.07,1.73.78,2.59,1.25-.18.11.29.51.55.85,0-.07.45.27.91.63s.91.8,1.15.77c.24.4.47.8.67,1.21a20.41,20.41,0,0,0,1.6,2.1,7.21,7.21,0,0,1,1.35,2.26c-.49-.59-.16.46-1-1,.34.73.57,1.42.7,1.38a21.36,21.36,0,0,1,1.09,2.8,2.86,2.86,0,0,1,.68,1.24c0,.11-.09,0-.09,0s.53,1.36.51.52c.16,2.61,2,6.84,2.06,9.13.51,1.73,1.08,3.83,1.45,5.43-.08-.09-.1,0-.15-.3.34,2.25.86,1.24,1.19,3.8,0,1.35-.44-1.3-.39-.47-.54.47.73,3,.67,4.79l-.12-.4c0,1.33.82,3.12,1.12,5.27,0,0-.07-.1-.09,0a39.48,39.48,0,0,1,1.43,6.22c-.33-.61-.25-.92-.45-.5.15.92.37-.32.67,1.52-.06.61,0,2-.26,2.17l-.23-1.74c-.22.93.29,2.25.32,3.18l-.16-.1c.33,2.66.72,2.66.93,5.55l.09-.31c.51,1.55-.1,1.34.28,2.89l-.35.5c.17,1,.59,3.63.73,5.5-.33-1-.55-3.23-.83-4.57a28.29,28.29,0,0,0,.43,4,5.54,5.54,0,0,1-.13-1.34,19.43,19.43,0,0,1,.61,5c-.72-.35-.09,5.38-.71,6.87a38.48,38.48,0,0,1-.1,5.47,22.44,22.44,0,0,1-1.14,5.51c.5-.55.42-.28.27.13s-.39.93-.07.95a3.71,3.71,0,0,1-.68,1.2,8.86,8.86,0,0,1-2.13,1.8c-.61.26.59-.63.4-.7-.72.62-.95.66-1.08.68s-.22,0-.8.22c.33,0-.41.63-1.51,1a14.17,14.17,0,0,0,1.57-.47,5.08,5.08,0,0,1-2.45,1,10.3,10.3,0,0,0-2.65.75l.85-.45c-.69.29-2.08.64-3.46,1a21.64,21.64,0,0,0-3.43,1.21c-.28,0-.67-.09,0-.28-3.63.76-8,2.1-11,2.19l.26-.18a7,7,0,0,1-2,.41c0-.06.26-.18-.06-.14a13.88,13.88,0,0,1-2.73.5l.77-.26a34.48,34.48,0,0,0-4.5.62c-1.3.27-2.54.53-4.06.7,0-.41-2.89-.36-4.32-.35l0-.07c-4.23.18-7.18.7-11.11,1-2.45-.4-8.28-.05-12.22-.31.61.08-.09.34-.79.38-.92-.08-2.55.31-2.41-.08h.33c-.69-.38-2.59-.27-4.07-.28l-.25.51c-3.87-.73-10.15.29-12.26-.39-.93.12-2.09.12-3,.24l0-.28c-2.58-.09-3.88-.14-7.07-.12l.65-.19c-1.8-.05-2.29.76-4,.74l-.5-.43c-3.14-.06-6.31-.53-9.43-.28.06-.06.15-.18.66-.17-1.48-.07-5.7-.55-5.19,0,0-.37-3.24-.22-4.94-.18l.28-.25a12,12,0,0,1-3.51.28c-.47-.07-.4-.25.23-.13-1.57-.26-1.25.16-3.15-.15l.72-.11a6.22,6.22,0,0,0-2.4.06,8.06,8.06,0,0,1-3.26-.66,4.05,4.05,0,0,1-2.07,0c-.12-.11.23-.12.41-.12-2.62-.59-4-.41-5.7-1.19,0-.09-.11-.17-.25-.24,2,.64,3.7.94,3.54.94,0-.24-1.61-.64-.21-.7a14.49,14.49,0,0,1-5.21-1.05.66.66,0,0,1-.17-.16l.17,0a8.47,8.47,0,0,0-1-.37l-1.16-.68c-.09-.24-1.56-1.05-2.19-1.57-.12.26-.94-.46-.28.36-.09-.1.13.08.6.38l.3.19-.06,0A20.8,20.8,0,0,0,93,191.71a4.42,4.42,0,0,1-2-1.1,8.64,8.64,0,0,1-1.21-.36,16.07,16.07,0,0,1-2-3.17c-1.78-1.82-3.36-5-4.49-6.29a1.76,1.76,0,0,1-.25-1.13,11.21,11.21,0,0,0,.58,1c-.75-1.3-1.75-4.08-2.2-4.29-.52-1.84.68.88-.29-1.55l.23.3c-1.23-5-3.69-7.58-4.59-13.28a2,2,0,0,1,.07.68c-1.51-6.31-3.66-12.91-4.27-19.33a9.46,9.46,0,0,0-.79-3l.22-.44-.6-1.83a14.71,14.71,0,0,1-.29-3.77,17.75,17.75,0,0,0-.42-4.29l-.15.46c-.1-1.23-.47-3.87-.21-3.68a1.33,1.33,0,0,1-.17-.87l.15-.05c-.17-1-.32-2-.45-3,0-2.34.61.33.49-3.07-.09-1.26-.55-3.59-.64-3.11s-.05,1.31-.21,1.35l-.11-1.16c-.46-.2-1-1.1-1.18,1.78l.34,2-.19.66c0-.56-.06-1.13-.08-1.69a4.65,4.65,0,0,0,.2,2.24,1.75,1.75,0,0,0-.2.85l.54,1.93c-.16.25-.42-.86-.42.47.27.9.33-.91.58.6-.14,1-.32.7-.07,1.81-.1.16-.19-.07-.28-.51a18.74,18.74,0,0,0,.57,3.13c-.17,1,.41,3.34,0,3.29a14.79,14.79,0,0,1,.67,2.62c-.73-1.6.44,3.41-.16,3,.64,1.16.88,4.41,1.55,6.52a1.64,1.64,0,0,1-.18-.53,21.07,21.07,0,0,1,.17,2.4c.4.09.89,1.95,1.32,2.92,0,1.56-.62-.81-.87-.27.28-.13.85,2.52,1,1.95,0,1.18.12,1-.05,1.66.51.09.31,1,.83,1.9.18,1.68-.33.53.27,2.28C73.74,158.67,73.17,157.12,73.17,157.12Zm21.54,37.1h0l-.87-.34Zm3.58,1.11-1.56-.44c-.1-.13.06-.18.42-.07C96.94,194.82,97.77,195.12,98.29,195.33Zm-6.35-4.6c.48.26.61.4.65.48-.24-.12-.49-.28-.84-.47h-.07A.54.54,0,0,1,91.94,190.73Z"/><path class="cls-2" d="M90.92,190.48a2.19,2.19,0,0,1-.2-.11l.23.24.21,0Z"/><path class="cls-2" d="M126.9,94.23H127l-.16,0Z"/><polygon class="cls-2" points="148.91 198.9 148.91 198.83 148.59 198.89 148.91 198.9"/><path class="cls-2" d="M106.71,95.05a.64.64,0,0,0-.27,0A.76.76,0,0,0,106.71,95.05Z"/><path class="cls-2" d="M98,96,96.8,96C97.33,96,97.72,96,98,96Z"/><path class="cls-2" d="M91.35,96.69a.49.49,0,0,0-.11.13h0Z"/><path class="cls-2" d="M197.87,92.4h.26C198.74,92.38,198.33,92.38,197.87,92.4Z"/><path class="cls-2" d="M166.11,92.1c.34,0,.67-.1,1-.13C166.57,92,166.13,91.94,166.11,92.1Z"/><path class="cls-2" d="M227.72,108.22h0l.08.21Z"/><path class="cls-2" d="M168.61,92a7.35,7.35,0,0,0-1.48,0A12.17,12.17,0,0,0,168.61,92Z"/><path class="cls-2" d="M67.8,111.82c0,.11,0,.22-.07.34s0,0,0,0A2.34,2.34,0,0,1,67.8,111.82Z"/><path class="cls-2" d="M67.77,112.2v.39A1,1,0,0,0,67.77,112.2Z"/><path class="cls-2" d="M67.75,113.39a7.15,7.15,0,0,1,0-.8A1.8,1.8,0,0,0,67.75,113.39Z"/><path class="cls-2" d="M72.34,103.79v-.14A.12.12,0,0,0,72.34,103.79Z"/><path class="cls-2" d="M74.5,102a9.65,9.65,0,0,0-2.14,1.54v.12C72.54,103.19,74.08,102.46,74.5,102Z"/><path class="cls-2" d="M85.42,98.92c-.74.13-1.47.29-2.2.45.41,0,.94,0,0,.29C86,99.28,82.56,99.55,85.42,98.92Z"/><path class="cls-2" d="M92.31,97.92c-1.19.21,0,.15,0,.22C93,97.94,93.22,97.89,92.31,97.92Z"/><path class="cls-2" d="M142.69,93.59l-.11.25C143.51,93.77,142.58,93.75,142.69,93.59Z"/><polygon class="cls-2" points="152.32 92 151.41 91.87 150.98 92.11 152.32 92"/><polygon class="cls-2" points="158.07 93.67 157.66 93.71 159.22 93.6 158.07 93.67"/><path class="cls-2" d="M228.19,118.38l.22-.35C228.19,117.43,227.83,117.39,228.19,118.38Z"/><path class="cls-2" d="M234.7,154.31a4.84,4.84,0,0,0,.06,2.06C234.73,155.55,234.77,154.72,234.7,154.31Z"/><polygon class="cls-2" points="158.65 196.45 159.39 196.35 158 196.44 158.65 196.45"/><path class="cls-1" d="M215.59,89.44c0-.13-.18-.21-.33,0l.12.36Z"/><path class="cls-1" d="M213.93,90.42c-.09.34-.12.81.25.85,0-.45.11-.42,0-.92.15-.23.39-.29.45-.18,0-.12.34-.27.28-.51a1.23,1.23,0,0,0-.88.92C214,90.6,214,90.47,213.93,90.42Z"/><path class="cls-1" d="M195.83,109.78l.14-.09A.46.46,0,0,0,195.83,109.78Z"/><path class="cls-1" d="M184.41,121.57c.08-.09.09-.15.08-.18S184.37,121.57,184.41,121.57Z"/><path class="cls-1" d="M182.2,123.33l.13-.1A.18.18,0,0,0,182.2,123.33Z"/><path class="cls-1" d="M195.83,109.78l-.38.25C195.51,110.13,195.67,109.92,195.83,109.78Z"/><path class="cls-1" d="M212.13,93.7a1.17,1.17,0,0,0,.09-.24l-.12.19Z"/><path class="cls-1" d="M200.53,104.28l.09-.1a1.11,1.11,0,0,0,0-.17Z"/><path class="cls-1" d="M204.22,100.13c-.09.09.09.31.15.42a.38.38,0,0,1,0-.33A.37.37,0,0,0,204.22,100.13Z"/><path class="cls-1" d="M210.45,93.88l.07-.14Z"/><path class="cls-1" d="M197.8,107.17a.19.19,0,0,0-.11,0A.15.15,0,0,0,197.8,107.17Z"/><path class="cls-1" d="M71.23,109.27s0,0,0,0S71.2,109.25,71.23,109.27Z"/><path class="cls-1" d="M66.43,104.75l.09,0,.1-.12Z"/><path class="cls-1" d="M178.35,126.74h0C178.45,126.61,178.4,126.67,178.35,126.74Z"/><path class="cls-1" d="M143.58,145c.38.46-.92-.08-.31.52C143.25,145.4,144.11,145.45,143.58,145Z"/><path class="cls-1" d="M212,93.78l-.15.18A.93.93,0,0,0,212,93.78Z"/><path class="cls-1" d="M143.27,145.53h0l.06.06Z"/><path class="cls-1" d="M170.13,135.21a.33.33,0,0,0,.17,0A.29.29,0,0,0,170.13,135.21Z"/><path class="cls-1" d="M176.64,129.28l-.18.13A.93.93,0,0,0,176.64,129.28Z"/><path class="cls-1" d="M167.14,138.69c-.1.07-.15.07-.24.21H167C167,138.82,167,138.75,167.14,138.69Z"/><path class="cls-1" d="M163.73,142l.1,0,.1-.11Z"/><path class="cls-1" d="M83.81,116.48a.85.85,0,0,1-.07-.33C83.71,116.36,83.06,116.07,83.81,116.48Z"/><path class="cls-1" d="M212,93.6a.17.17,0,0,1,0,.18l.1-.13S212.05,93.59,212,93.6Z"/><path class="cls-1" d="M168.55,140.41l-.57.5A4.85,4.85,0,0,0,168.55,140.41Z"/><path class="cls-1" d="M113.83,132.85l-.17,0A.24.24,0,0,0,113.83,132.85Z"/><path class="cls-1" d="M166.39,142.51a1.27,1.27,0,0,0-.44.15.25.25,0,0,0,0,.12Z"/><path class="cls-1" d="M79.09,114.22c.62.37.47-.14.71-.25.8.35.21.44.37.75.51.19,1,.1,1.38.32,0,.06,0,.12-.07.14.64,0,1.47.83,2.23.84,0,.06,0,.09,0,.12a.78.78,0,0,1,.17-.49c.28.16.63.1.62.37-.17-.1-.23,0-.35,0l.35.08c.09.45-.47-.13-.59.1a6.79,6.79,0,0,1,1.83.7c-.08.34-1.09-.49-.65.1l-.62-.5c.26.77-.39-.27-.2.5.85.6,1.09.43,1.93,1,.3,0,.08-.29.37-.33,1.44.43.58,1.31,1.74,1.44.35-.06.66-.38,1.21.2l-.41.2c.85.52.76-.2,1.55.54-.24,0-.75-.28-.64-.16.44.59.53,0,1,.3l-.07.35c1,.47,2.09.83,3.15,1.35-.1,0-.33,0-.14.27a19.16,19.16,0,0,1,3.91,2.44h.62c.11.06.14.23,0,.21.43.37.11-.15.4-.12s.29.35.07.33a8.89,8.89,0,0,1,3.49,1.64l-.22,0c.65.49,1.08-.1,1.61.5l-.15,0c1.49.94,3.33,1.61,4.3,2.63.42-.25,1.44,1,1.82.51a7.49,7.49,0,0,0,1.61,1.51c.32.2.66-.06,1.11.1l-.14.28h.71l.13.49.42.13c-.14-.1-.26-.29-.19-.36.66.19,1.37,1,1.31,1.11l1.56.5c-.09.1-.35,0-.58,0,.91.11,0,.36.83.46-.06-.11.13-.14.18-.18a4.68,4.68,0,0,0,1.69,1l-.21.13c1,.59,2.29,1.06,3.49,1.67-.39-.31-.12-.59.25-.44V137c.32-.07-.31-.3.27-.28.43.26.13.48-.18.45l.6.17c0,.1-.16.08-.25.18.31-.07.79.76,1.27.61v.11c1.2.6,1.79.78,2.78,1.25.15-.24.5,0,.9-.06a18,18,0,0,0,2.26,1.44c.67.18.28-.12.63-.14-.07.25.81.66.28.6a18.54,18.54,0,0,0,2.77,1.07c-.1-.16-.24-.28-.12-.32s.5.36.41.45h-.07c1.65.37,3.1,2.34,4.52,2.42H138l1.36.34c.54.3-.43,0-.08.35,1.52.25,2.08,1.05,3.29,1.32.53,1.08,3,1.35,4,2.33v-.19c.37,0,.32.26.52.39,0-.14-.26-.29,0-.29a29.38,29.38,0,0,1,3.64,1.73l1.79,1,.44.25.22.13.29.15,1.8.91.65-.58a3.39,3.39,0,0,0,.73-.84l.08-.16a.41.41,0,0,1,0-.11v-.19c0-.26.07-.51.69-.8l0,.5c1.26-1.73,3.13-2.93,4.38-4.59,0,.13,0,.21-.11.35.48-.13,1.17-1.1,1-1.25.24-.2.17.08.38,0,.42-.2.58-1,.91-1,.06,0,0,.14-.07.21.12-.28,1-.89.58-.9.65-.44,1-1.12,1.53-1.43.07-.5,1.05-.8.84-1.21.28.37,1.23-.67,1.42-1.17,0,.21.4-.19.4.08.39-.4.7-.81.47-.91,1.11-.33,1.16-1.75,2.06-1.66,1-1.33,2-2.53,3-3.65.28.36-1.14,1.19-.76,1.48a16,16,0,0,1,2.24-2.88c.3-.21,0,.29,0,.43.86-1.13,2-1.9,2.66-3,0,0,0,.16-.1.27.16-.18.45-.36.29-.48l-.13.21c-.49.06.25-1.14.17-1.28.12.71,1-.78,1,.22.09-.14.16-.36,0-.43.19-.14.3-.14.24.15.54-.71.17-.64.73-1.21.07.07,0,.21,0,.35a2.45,2.45,0,0,1,.83-1.27c0,.07.12.07,0,.21.8-.85,1-1.77,2-2.56,0,.57.41-.21.72,0l.4-.57-.32.07c.42-.42.59-1,1-1.28l-.2.43.73-.86-.54.36c.28-.57-.39-.28.24-.78-.08.14.43-.43.8-.5h0a1.63,1.63,0,0,1,.62-.86c.16,0,.23.35.34.35,0-.42.91-1.07.92-1.57a.27.27,0,0,0,.17.28v-.35c.25-.15.3-.15.39,0,.61-.57-.53-.13.3-.71,0,.07,0,.07-.07.21.77-.64,1.22-1.5,1.94-2.08.45.06-.49.64,0,.64a34.47,34.47,0,0,1,2.49-3.17l-.19.14c-.27-.49.84-.51,1.1-1.15-.08.14.07.35.06.28a15.67,15.67,0,0,0,1.91-2.49l0,.22c.44-.3,1-.95,1.41-1.31,0-.22.24-.44,0-.43,1.74-.74,1.92-2.69,3.43-3.38-.13.14-.21.4-.11.29l.78-1c-.24-.08-.22,0-.53.11a1.5,1.5,0,0,1,.39-.79c-.28.53.28.24.54.14-.08,0-.08-.13-.15-.16.76-.23-.26-.4.56-.9l.06.12a3.86,3.86,0,0,1,.56-.9c.3.07-.15.36,0,.53.34-.4.32-1.11.84-1.28-.09.21-.31.45-.4.66a1.51,1.51,0,0,0,.85-.52l0,0,.7-.57-.21.11c-.08-1,.8-1.08,1.05-2-.25.93.09.27.27.52.22-.11.51-.3.51-.18.1-.47.61-.39.74-1.07.09,0,.31-.32.43-.09.3-.46-.22,0-.28-.13.31-.85,1.62-1.2,2.07-2.41.55-.91.43-1.27,1-2.1.33-.14.09.44.09.44a2.72,2.72,0,0,0,.94-1.06c0,.13.12.1.3.06.25-.32-.09-.44.36-.73a1.34,1.34,0,0,1,0,.55c.24-.41.4-.88.66-1.3.21,0,0,.39,0,.59.3-.46.81-1.17.72-1.47l-.3.2c.12-.16.24.08.18.22-.15.49-.51.45-.6.4l.18-.3c-.67-.11-.85,1.11-1.33,1.61l-.12-.5-.21.77c-.18,0-.43,0-.25-.33-.48.23-.18.42-.63.59-.06,0-.06,0,0-.06l-.23.45c0-.13-.28-.14,0-.32-.76.49-.7,1.26-1.16,1.3l0-.07c-.69,1,.15.29-.18,1.21l-1,0,.15.3c-.09.08-.27.25-.33.14-.15.48.15,0,.12.36-.61.26-1,1.32-1.46,1.1,0,.31.51-.31.2.28-.51-.22-.42.61-1,.86-.09-.31.37-.6-.18-.35.12.55-.79.73-1,1.13.25.26-.56.85-1,1.51,0-.12-1.13,1-1.71,1.4l0-.06c.18.35-.38.86-.68,1.31-.15-.16-.15-.3,0-.58l-.34.38a.93.93,0,0,1-.24.6l-.12-.28c-.45.51-.69,1.23-1.41,1.75.15.21,1,0,.49.76-.12-.06-.32-.2-.2-.41,0,.07-.11.28-.26.36l.08-.43c-.34.22,0,.28-.23.5-.14-.13-.26.08-.35-.06s.25-.15.28-.29a1.92,1.92,0,0,1-.86.49c.1,0,.2.18,0,.39-.45.51-.33,0-.68.23,0,.21-.41.44-.2.65-.13.14-.26.07-.37.08-.14.34-1.09,1.22-.59,1.15l.08,0,0,0h0c-.57,1-1.76,1.64-2.45,2.56l-.07-.07a12.24,12.24,0,0,0-1.17,1.65c-.14.15-.46.23-.48.08a2.6,2.6,0,0,1-.9,1c.23-.5-.24,0,.27-.48-.52.44-.74.44-1.05,1.15,0-.35-.58.16-.75.44l.46-.22a5.38,5.38,0,0,1-.69.73l-.12-.36c-1.25.73-1.23,2.28-2.45,2.58-.09.43.64-.43.61,0-.48.43-1.28.58-1.42.73-.74.5-.21.93-.94,1.49.17,0,.47.14.08.71s-.91.22-.7-.14c.1-.11.18-.14.21-.11.11-.17.26-.4,0-.31l0,.14c-.31.14-.91.78-.91.5-.25.42,0,.28.29.07-.69.47-.89.91-1.56,1.44.14,0,.32,0,.23,0-1,.79-.22.55-.76,1.19-.47.21-.19-.43-.68.28-.44.28-.3-.14-.22-.35-.38.7-1.12.92-1.45,1.2l.21-.36a2.39,2.39,0,0,1-.41.5h.33c-.19.14-.34.28-.4.21-.06.29.41.14.22.64-.31.14-.58.78-.88.64.77-.64-.31-.15.25-.78a1.57,1.57,0,0,1-.43.42c-.05,0,0-.07,0-.13-.86.48,0,.56-.75,1.26,0-.21-.4-.07-.48.07.28-.28.34.07.18.43-.55.35-.41.56-.66.78l.31-.22c0,.22-.2.42-.47.78-.13-.07.21-.36.06-.29-.13.57-1,.56-1.35,1.19-.31.14-.25-.21-.51-.07-.38.71-.76.42-1.19,1.12.33,0,.32-.06.08.5l.82-1.06-.35.85c.28-.28.48-.7.68-.84-.15.42-.16.35.12.36-.64.13-.62.91-1.24,1.19l-.41-.44c-.86.49-1,1.41-2,2.17l.35-.21c0,.29-.52.56-.73.91-.12-.16-.34,0-.55,0,.12.09-.65.63-.46,1l-.57.2c-.79.62-.42,1.2-1.16,1.82.06-.36-.35-.15,0-.71-.23.22-.46.4-.37.5-.22,0-.44.81-.78.88,0,.16.07.33-.2.57,0,0-.06-.07-.06-.07s-.31.49.06.43c-1.13.24-1.95,2-2.93,2.16-.46.53-1,1.16-1.47,1.61,0-.07-.06-.07,0-.14-.76.48,0,.78-.86,1.32-.59.12.26-.49,0-.35-.55-.38-.81.89-1.56,1.07l.1-.13c-.53.19-.74,1-1.38,1.58,0,0,0-.07-.06-.08a7.48,7.48,0,0,1-1.42,2.08c0-.36.17-.35-.12-.43-.24.27.36.22-.11.77-.27.06-.73.33-1,.17l.48-.47c-.49,0-.63.61-.93.81l-.07-.15a3.68,3.68,0,0,0-.35.42c-.08.12,0,.15-.09.24a1.25,1.25,0,0,1-.25.53,1.32,1.32,0,0,1-.28-.11l.07.16a.27.27,0,0,1-.4-.1c-.06-.1-.14-.23-.48-.22v-.44a18.32,18.32,0,0,1-2.14-.47,7.72,7.72,0,0,1,1.88.18,3.76,3.76,0,0,0-1.52-.45c.16,0,.39,0,.51.15a3.48,3.48,0,0,1-2-.39c.45-.63-1.81-1-2.08-1.82-1.4-.34-2.48-1.29-4-1.95.28.79-.44-.18-.61.41-.36-.12-.49-.2-.5-.25l-.89-.82c-.18-.28.38,0,.41-.11-.74-.4-.21-.38-.64-.77,0,.25-.39.16-.79-.12l.49.54c-1.2-.21-.7-.9-1.9-1.11h.42c-.59-.16-2-1-2.76-.78-.06-.11-.12-.32.14-.25-1.27-.69-3.12-.93-4-1.69l.16-.09c-.26-.08-.54.05-.78-.23,0-.05.16-.09.05-.15a2.29,2.29,0,0,1-1-.32h.35c-1.18-.8-2.12-.59-3.23-1,.2-.39-.73-1-1.19-1.32l0,0a28.2,28.2,0,0,0-4.09-1.45c-.63-.85-2.77-1.61-4-2.55.17.18-.19.29-.45.21-.28-.24-1-.18-.78-.51l.11.06c-.06-.47-.76-.71-1.26-1l-.33.42c-1-1.36-3.6-1.55-4-2.54-.38-.05-.78-.26-1.15-.3l.14-.25a17.42,17.42,0,0,0-2.4-1.3l.32-.06c-.6-.35-1.16.3-1.73,0l0-.47c-1.08-.56-2-1.47-3.23-1.69a.25.25,0,0,1,.32-.06c-.5-.28-1.81-1.31-1.91-.7.17-.34-1.08-.63-1.74-.79l.23-.2a2.2,2.2,0,0,1-1.45-.16c-.15-.11,0-.27.14-.09-.46-.42-.54,0-1.12-.48l.33,0a1.1,1.1,0,0,0-1-.2c-.4-.09-1-.64-1-.9a.81.81,0,0,1-.84-.14c0-.1.15-.09.22-.08-.83-.68-1.52-.48-2-1.07a.2.2,0,0,0,0-.2,13.5,13.5,0,0,1,1.25.74c.12-.23-.45-.59.19-.65a4.85,4.85,0,0,1-2.1-.59.42.42,0,0,1,0-.12h.07a.86.86,0,0,0-.38-.17,2.3,2.3,0,0,0-.44-.33c0-.22-.62-.48-.9-.65-.12.26-.48,0-.23.41,0,0,.07,0,.27.1a.43.43,0,0,0,.14,0h0l.74.4a1,1,0,0,1-.86-.36,5.65,5.65,0,0,1-.63.17c-.21-.57-.88-1.19-.87-1.46-1-.37-2.15-1.1-3-1-.29-.09-.22-.3-.27-.42.17,0,.34.14.46.12-.58-.17-1.53-.82-1.83-.56-.56-.51.53-.09-.38-.54l.17,0c-1.43-1.5-3.28-.79-4.81-2.55.11.12.17.17.16.24-2-1.56-4.64-2.33-6.5-4.06-.55-.45-.74-.29-1.2-.35l0-.34-.81-.07c-1-.32-1.18-1.56-2.55-1.83l0,.26c-.39-.28-1.35-.67-1.16-.83-.06,0-.25.1-.35-.09l.07-.14-1.14-.37c-.71-.56.45-.46-.67-1.17-.45-.2-1.43-.33-1.33-.14s.38.34.31.48l-.42-.16c-.31.36-.86.59-.08,1.44l.8.15.1.32-.56-.32c.2.37.5.33.79.35a.52.52,0,0,0,.14.38h.88c0,.2-.48.14-.09.48.4,0-.08-.52.49-.34.2.38,0,.47.48.54,0,.13-.12.15-.3.11.41.07.9.47,1.2.36.2.42,1.15.61.89,1a2.51,2.51,0,0,1,1.07.21c-.82.12,1.12.7.69,1.1.65-.16,1.59.7,2.45.9-.06,0-.18,0-.23,0a3.33,3.33,0,0,1,.65.7c.25-.3.93,0,1.4,0,.31.62-.54.22-.56.62.13-.29,1,.24,1-.09.27.43.28.29.31.69.32-.38.4.14.88.06.43.54-.09.48.6.71C79.72,114.39,79.09,114.22,79.09,114.22Zm15.07,7.61h0l-.32-.15Zm1.24.68a5.78,5.78,0,0,0-.53-.31c0-.11.1-.17.22-.1C95,122.12,95.26,122.33,95.4,122.51Zm-1.67-3.16c.21.08.25.16.25.23l-.36-.16h0A.71.71,0,0,1,93.73,119.35Z"/><path class="cls-1" d="M93.2,119.48l-.09,0a.62.62,0,0,0,.08.12l.12,0Z"/><path class="cls-1" d="M196,109.67l0,0,.08,0Z"/><polygon class="cls-1" points="112.37 132.24 112.4 132.18 112.27 132.18 112.37 132.24"/><path class="cls-1" d="M202,104.58a.14.14,0,0,0,.12,0S202,104.56,202,104.58Z"/><path class="cls-1" d="M204.29,102.13l.4-.28A3.67,3.67,0,0,0,204.29,102.13Z"/><path class="cls-1" d="M206.13,100.3a.44.44,0,0,0-.06-.12h0Z"/><path class="cls-1" d="M178.1,130.48l-.06.08C177.91,130.76,178,130.64,178.1,130.48Z"/><path class="cls-1" d="M186.2,121.26a2.64,2.64,0,0,1-.18.38C186.19,121.49,186.31,121.38,186.2,121.26Z"/><polygon class="cls-1" points="168.61 140.36 168.61 140.35 168.55 140.41 168.61 140.36"/><path class="cls-1" d="M185.62,122a1.27,1.27,0,0,0,.4-.4A1.69,1.69,0,0,0,185.62,122Z"/><path class="cls-1" d="M213.66,92l.09-.09a.08.08,0,0,1,0,0Z"/><path class="cls-1" d="M213.73,91.85l.07-.13C213.75,91.77,213.72,91.81,213.73,91.85Z"/><path class="cls-1" d="M213.93,91.46l-.13.26C213.86,91.65,214,91.56,213.93,91.46Z"/><path class="cls-1" d="M211.31,94.47l.05.1A.16.16,0,0,0,211.31,94.47Z"/><path class="cls-1" d="M210.64,95.27c.18-.17.57-.32.76-.63l0-.07C211.36,94.79,210.67,95,210.64,95.27Z"/><path class="cls-1" d="M206.81,97.69l.65-.6c-.19,0-.43.09-.19-.22C206.3,97.47,207.61,96.86,206.81,97.69Z"/><path class="cls-1" d="M204.89,99.59c.28-.38-.12-.1-.15-.16C204.62,99.72,204.59,99.79,204.89,99.59Z"/><path class="cls-1" d="M191.67,114l-.15-.21C191.29,114.05,191.59,113.83,191.67,114Z"/><polygon class="cls-1" points="190.06 117.59 190.42 117.45 190.37 117.17 190.06 117.59"/><polygon class="cls-1" points="187.22 117.93 187.3 117.79 186.95 118.29 187.22 117.93"/><path class="cls-1" d="M164.16,141.24l.3.15C164.6,141.18,164.39,140.89,164.16,141.24Z"/><path class="cls-1" d="M154.56,150.56c-.11-.22-.16-.35-.39-.29C154.36,150.38,154.45,150.56,154.56,150.56Z"/><polygon class="cls-1" points="116.87 131.74 117.17 131.77 116.66 131.6 116.87 131.74"/><path class="cls-3" d="M173.62,89.73a110.93,110.93,0,0,1-19.84,10.11,63,63,0,0,1,5.78-14.16,5,5,0,0,0,.95-3.19,5.27,5.27,0,0,0-1.37-2.29A29.93,29.93,0,0,1,152.44,58c.56-5.12,2.44-10,4.48-14.73a13.4,13.4,0,0,1,2.5-4.22,11.8,11.8,0,0,1,4.84-2.67c12-4,26.16-1.75,35.76,6.52s13.92,22.49,9.75,34.46A20.26,20.26,0,0,1,205,85.34c-3.69,3.59-9,5.09-14.16,5.15s-10.21-1.17-15.2-2.4"/><path class="cls-3" d="M175.8,87.33c-.13.07-.12.31.19.34l.3-.32Z"/><path class="cls-3" d="M177.62,88.52c.39-.1.87-.33.73-.73-.43.28-.48.11-.95.45-.31,0-.49-.24-.41-.37-.12.07-.43-.2-.65,0a1.3,1.3,0,0,0,1.36.4C177.79,88.38,177.66,88.45,177.62,88.52Z"/><path class="cls-3" d="M206,85.06l-.17.11A.55.55,0,0,0,206,85.06Z"/><path class="cls-3" d="M212.1,67.61c0,.14.05.2.09.21S212.13,67.57,212.1,67.61Z"/><path class="cls-3" d="M212.34,64.35v.19A.21.21,0,0,0,212.34,64.35Z"/><path class="cls-3" d="M206,85.06l.43-.3C206.36,84.65,206.2,84.9,206,85.06Z"/><path class="cls-3" d="M181.8,88.5a.66.66,0,0,0-.28,0h.26Z"/><path class="cls-3" d="M199.17,89.89l-.15,0c0,.06-.05.13-.07.2Z"/><path class="cls-3" d="M192.88,91.31c.15,0,.17-.33.21-.48a.49.49,0,0,1-.29.26A.4.4,0,0,0,192.88,91.31Z"/><path class="cls-3" d="M182.91,90.07l-.18,0Z"/><path class="cls-3" d="M203.36,87.84a.25.25,0,0,0,.12.07A.16.16,0,0,0,203.36,87.84Z"/><path class="cls-3" d="M166.68,92.08s0,0,0,0S166.72,92.06,166.68,92.08Z"/><path class="cls-3" d="M173.67,89.8l-.07.07a.65.65,0,0,0,.08.17Z"/><path class="cls-3" d="M211.62,58.39v0C211.69,58.56,211.67,58.47,211.62,58.39Z"/><path class="cls-3" d="M168,34c.66.15-.9.59.07.7C168,34.6,168.82,34,168,34Z"/><path class="cls-3" d="M182,88.57l.25.05A.72.72,0,0,0,182,88.57Z"/><path class="cls-3" d="M168.1,34.7h0Z"/><path class="cls-3" d="M205.12,46.25a.65.65,0,0,0,0,.2S205.13,46.38,205.12,46.25Z"/><path class="cls-3" d="M209.84,55.29l-.06-.25A.7.7,0,0,0,209.84,55.29Z"/><path class="cls-3" d="M201.15,42.7c-.09-.11-.09-.18-.26-.27a.25.25,0,0,0,0,.07C201,42.51,201.07,42.56,201.15,42.7Z"/><path class="cls-3" d="M196.79,39.37a.37.37,0,0,0,.05.11l.15.09Z"/><path class="cls-3" d="M156.05,97.15l-.45.44C156,97.28,156,97.36,156.05,97.15Z"/><path class="cls-3" d="M181.77,88.68a.19.19,0,0,1,.18-.11l-.17,0S181.74,88.64,181.77,88.68Z"/><path class="cls-3" d="M199.26,44.49a7.67,7.67,0,0,0-.58-.56Z"/><path class="cls-3" d="M153.73,63.69l.06.18A.21.21,0,0,0,153.73,63.69Z"/><path class="cls-3" d="M196.76,42.51a1.29,1.29,0,0,0-.24-.45.3.3,0,0,0-.13,0Z"/><path class="cls-3" d="M155.6,97.6h0Z"/><path class="cls-3" d="M157.37,96.33c-.72.31-.19.55-.21.83-.36.28-.24-.25-.33-.45-.07.15-.32.69-.49.74a.68.68,0,0,1,.12-.25c-.28.37-.47.36-.76.55,0,0-.09,0-.27,0a1,1,0,0,1,.17-.18c-.33.33-.66.65-.89.84.06-.22-.23-.21.18-.58,0,.16.1.06.2,0l-.09-.11c.6-.57.09.18.52-.18a1.11,1.11,0,0,1-.18-.35.77.77,0,0,1,.1-.58c.44-.08-.07.65.46.18a3.84,3.84,0,0,0-.31.45c.89-.71-.1.18.83-.52.1-.12,0-.11,0-.16a.13.13,0,0,1,0-.09c0-.06,0,0,.13-.32-.12-.31-.34,0-.46-.34.17-1.66,1.37-.84,1.3-2.13-.14-.38-.57-.68,0-1.36l.3.44c.46-1-.35-.83.39-1.77.07.26-.21.86-.1.72.62-.53,0-.58.22-1.1l.41,0c.43-1.08.73-2.36,1.28-3.54.07.12.08.37.33.16a24.47,24.47,0,0,1,1.24-2.42,5.66,5.66,0,0,0,.56-1.67,4.17,4.17,0,0,0-.16-2,3.49,3.49,0,0,0-.7-.6c-.09-.15,0-.36.11-.24-.34-.71-.2.09-.52-.12s-.17-.54.07-.41a14.29,14.29,0,0,1-1.62-1.41,4.48,4.48,0,0,1-1.1-1.78l.2.13c-.33-.8-1.14-.45-1.26-1.33l.13.1c-.82-1.69-2-3.52-1.93-5.06-.57-.1-.36-1.83-1-1.76a11.51,11.51,0,0,0,.15-2.38c0-.4-.52-.52-.68-1l.35-.07c-.16-.2-.3-.41-.46-.62l.39-.41-.15-.45c0,.18-.12.41-.22.39a2.09,2.09,0,0,1,.28-1.82c-.1-.57-.24-1.14-.32-1.72.14,0,.18.33.28.55-.37-.91.38-.16.06-1-.08.11-.21-.06-.28-.09a5.2,5.2,0,0,0,.27-2.06l.23.16c.19-1.25.26-2.67.61-4.08-.24.48-.63.27-.57-.16l.41-.08c-.16-.32-.25.4-.39-.22.17-.52.51-.25.55.08l0-.67c.12,0,.14.16.27.24-.16-.33.67-1,.39-1.48h.12c.43-1.39.53-2,.92-3.18-.3-.14-.07-.55-.18-1a24.75,24.75,0,0,0,1.41-2.6c.15-.76-.17-.31-.22-.7.3.06.7-.94.68-.34.48-1.19.56-1.53,1.1-2.94-.19.07-.33.2-.37.07s.44-.47.54-.35l0,.08a3,3,0,0,1,1.89-1.7,6,6,0,0,0,2.16-1.06l-.06.06c.4-.28.82-.55,1.25-.81.67-.14-.32.34.22.37a4.92,4.92,0,0,1,1.87-.76,5.85,5.85,0,0,0,1.74-.49c1.14.62,3.53-.68,5-.22l-.1-.2c.34-.24.43.08.69.12,0-.16-.39-.18-.18-.3,3-.46,6.19.28,9.11,1,1.07.28.84-.92,2.12-.15l-.48.3c2.3.07,4.41,1.23,6.56,1.78-.15,0-.2.14-.4.05.33.41,1.55.73,1.66.53.3.18,0,.23.11.42.34.36,1.22.2,1.29.59,0,.06-.15,0-.24,0,.33,0,1.2.74,1.11.32.64.53,1.42.72,1.86,1.25.57-.06,1,.95,1.46.64-.38.4.87,1.22,1.42,1.4-.24,0,.22.43-.08.46.44.39.9.69,1,.42a2.44,2.44,0,0,0,1.06,1.19c.41.29.77.56.67,1,.67.59,1.29,1.18,1.88,1.79s1.09,1.25,1.56,1.9c-.44.21-1-1.44-1.44-1.08a10.53,10.53,0,0,1,2.49,3c.1.39-.29-.1-.45-.16a12.68,12.68,0,0,1,1.07,1.93,11.14,11.14,0,0,0,.93,1.86s-.15-.1-.24-.21c.12.24.16.6.37.49l-.16-.22c.09-.26.36-.08.63.17s.51.58.61.58c-.8-.22.26,1.34-.8.92.1.15.28.33.42.24,0,.26,0,.37-.29.17.43.87.55.48.77,1.33-.12,0-.2-.14-.36-.19a2.43,2.43,0,0,1,.74,1.49c-.07,0-.14.07-.2-.14a11.66,11.66,0,0,0,.6,1.64,3.83,3.83,0,0,1,.34,1.81c-.55-.36-.12.49-.55.6l.2.72a3.21,3.21,0,0,0,.19-.31,6.87,6.87,0,0,1,.23,1.79l-.19-.48.12,1.22.14-.7c.24.67.56-.07.45.81,0-.18,0,.67-.31,1h0a1.79,1.79,0,0,1,.12,1.17c-.15.12-.48-.14-.58-.07.34.36-.09,1.53.25,2a.31.31,0,0,0-.35-.15l.26.31c-.13.29-.2.33-.37.25-.24.88.61-.19.15.83,0-.08-.06,0-.07-.24a8.86,8.86,0,0,0-.3,1.57,6.06,6.06,0,0,1-.42,1.47c-.5.15.15-.87-.3-.65a14.55,14.55,0,0,1-1.14,4.22l.15-.21c.48.45-.72.8-.82,1.54.05-.18-.19-.37-.15-.3-.55.77-.85,1.73-1.63,3v-.23c-.46.33-1,1-1.53,1.37,0,.23-.29.44,0,.48A5.64,5.64,0,0,0,201.82,87,3.37,3.37,0,0,1,199.55,88c.18-.08.38-.31.23-.25-.4.22-.81.45-1.24.65.2.22.23.09.59.19a1.56,1.56,0,0,1-.8.59c.56-.39-.14-.4-.45-.47.07.06,0,.18.06.25-.86-.24,0,.58-1.05.53l0-.15a3.23,3.23,0,0,1-1.07.48c-.24-.26.37-.23.33-.48-.55.15-1,.81-1.58.59.23-.12.58-.19.8-.32a1.75,1.75,0,0,0-1.09-.15h0c-.33,0-.65,0-1,0l.26.08c-.63.88-1.44.3-2.39.85.93-.53.14-.29.21-.65-.26-.09-.63-.19-.52-.3-.46.29-.76-.21-1.41.19,0-.12-.48,0-.37-.32-.59.07.13.21.08.35-.95.35-2.11-.6-3.48-.24-1.17.07-1.44.41-2.54.41-.33-.24.37-.36.37-.36a3,3,0,0,0-1.55-.29c.12-.08,0-.18-.11-.34-.44-.06-.38.35-.91.06a1.68,1.68,0,0,1,.52-.35c-.53,0-1.07.09-1.62.07-.1-.22.38-.22.59-.31-.61,0-1.57-.17-1.82.1l.35.2c-.22,0-.05-.29.12-.31.57-.13.71.27.72.39h-.4c.24.74,1.54.23,2.29.42l-.42.41.86-.24c.15.16.21.45-.18.45.5.34.52-.08.94.27,0,.06,0,.07,0,.08l.57,0c-.12.08,0,.35-.29.22.93.45,1.63-.1,1.94.32l-.09,0c1.38,0,.19-.34,1.25-.63l.59,1,.16-.35c.14,0,.42.08.36.22.54-.2-.08-.17.24-.37.66.39,1.87,0,2,.53.25-.27-.64-.24.09-.4.2.62.84-.09,1.45.17-.18.33-.78.17-.14.44.36-.54,1.22.07,1.76-.07,0-.43,1.13-.29,2-.57a9.65,9.65,0,0,0,2.53-.15v.07c.05-.45.89-.61,1.45-.9.06.25,0,.39-.3.6l.56-.2a1.18,1.18,0,0,1,.58-.49l0,.36a18.4,18.4,0,0,1,2.3-1.27c-.1-.28-1.08-.36-.28-1,.12.13.29.35.08.54a.92.92,0,0,1,.41-.31c-.07.16-.15.3-.23.45.46-.12.1-.31.42-.48.11.2.31,0,.36.18s-.32.09-.39.24a2.47,2.47,0,0,1,1.11-.29c-.1-.08-.17-.26.06-.46.63-.47.39.08.83-.11.06-.25.56-.45.35-.72.18-.14.31-.06.45,0,.22-.37,1.36-1.39.76-1.31l-.09.06,0-.06h0c.65-1.18,1.91-2,2.47-3.23l.1.06a7.8,7.8,0,0,0,.77-2.19c.1-.2.41-.41.5-.26a3.08,3.08,0,0,1,.55-1.43c0,.63.24-.13-.08.63.37-.69.62-.8.56-1.71.2.37.53-.45.55-.84l-.36.47a6.88,6.88,0,0,1,.34-1.11l.32.3a3.59,3.59,0,0,0,.37-2.19,2.65,2.65,0,0,1,.42-1.89c-.22-.46-.3.84-.57.42.14-.71.8-1.42.83-1.66.26-1-.52-1-.33-2-.15.13-.51.24-.62-.53s.56-.9.68-.44c0,.18,0,.27-.07.26.06.23.11.55.27.26l-.14-.1c.13-.36.08-1.39.32-1.15-.15-.56-.24-.23-.3.18a12,12,0,0,0,0-2.47c-.06.17-.21.32-.22.17,0-1.44-.32-.6-.5-1.54.12-.57.54.12.19-.81,0-.61.34-.19.5,0-.43-.84-.1-1.69-.2-2.2l.22.43a2.77,2.77,0,0,1-.24-.72l-.21.33c0-.28-.08-.51,0-.53-.25-.23-.4.32-.78-.16,0-.39-.4-1-.11-1.26.19,1.15.34-.23.64.71a2,2,0,0,1-.17-.69s.09,0,.13.09c0-1.17-.56-.37-.91-1.47.25.08.29-.38.19-.54.14.44-.26.32-.54,0-.1-.74-.4-.7-.52-1.06l.09.43c-.25-.06-.36-.4-.61-.85.13-.1.27.39.27.19-.54-.37-.12-1.33-.71-1.94,0-.39.33-.2.28-.53-.65-.68-.16-1-.84-1.72-.11.37,0,.37-.59-.06.31.41.64.81.91,1.25-.26-.24-.53-.46-.82-.68a8.34,8.34,0,0,1,.69,1c-.4-.32-.32-.3-.43,0,.11-.77-.81-1-.92-1.73l.61-.33c-.27-1.14-1.35-1.47-2-2.75l.16.45c-.32,0-.53-.7-.92-1,.21-.1.1-.38.09-.63-.12.13-.65-.83-1.08-.63l-.2-.68c-.71-.92-1.34-.54-2.08-1.34.41.05.16-.42.83,0-.27-.26-.48-.52-.6-.41-.06-.25-1-.47-1.06-.86-.19,0-.37.1-.68-.16,0-.07.08-.09.08-.09s-.61-.28-.49.14a3.56,3.56,0,0,0-1.46-1.56,3.78,3.78,0,0,1-1.52-1.35c-.73-.36-1.6-.77-2.23-1.13.07,0,0-.1.16,0-.78-.67-.86.31-1.75-.42-.36-.59.63.09.37-.2.19-.76-1.28-.53-1.81-1.21l.19,0c-.46-.45-1.43-.32-2.32-.66a.11.11,0,0,0,0-.11,11.31,11.31,0,0,1-2.87-.24c.36-.22.45-.05.36-.38-.41-.07,0,.5-.82.36-.22-.22-.75-.53-.76-.85.26.05.51.12.76.18-.28-.52-1-.23-1.37-.38l.09-.17c-1.19-.17-1.28.22-2.54,0l.11.16c-.75.35-.54-.34-1.27-.1l-.15-.49c-.48,0-1.66.3-2.48.31a8.76,8.76,0,0,1,2.09-.55,4.24,4.24,0,0,0-1.82.12c.19,0,.43-.13.61,0a4.66,4.66,0,0,1-2.23.42c.09-.45-.5-.51-1.2-.56s-1.5,0-1.85-.32c-1.61.42-3.24.13-5.13.52.79.58-.54.11-.29.79-.41.15-.58.17-.63.14l-1.39-.12c-.36-.13.37-.25.29-.4-1,.17-.47-.21-1.15-.23.2.21-.23.46-.79.52l.84.1c-1.19.76-1.3-.26-2.51.53l.35-.36c-.62.32-2.57,1-2.94,1.86-.16,0-.41-.09-.14-.3a6.46,6.46,0,0,0-2.24,2c-.62.82-1,1.63-1.5,2.14l-.09-.21c-.12.32,0,.66-.33,1-.05-.05-.1-.2-.17-.07a3.05,3.05,0,0,1-.35,1.24l0-.41c-.87,1.4-.54,2.45-.94,3.74-.47-.2-1.1.91-1.4,1.48l-.06,0a19.54,19.54,0,0,0-1,4.9c-.85.89-1.14,3.53-1.65,5.26.13-.26.39.09.41.41-.16.4.25,1.18-.22,1.07l0-.15c-.5.28-.43,1.16-.45,1.83l.61.13a4.87,4.87,0,0,0-.18,3.06,4.27,4.27,0,0,1,.1,2.48c.23.39.3.91.55,1.29l-.33,0a12.21,12.21,0,0,0,.76,3.13l-.32-.21c.24.79,1.22.69,1.49,1.37l-.38.39c.48,1.32.73,2.83,1.78,3.87a.28.28,0,0,1-.35-.15c.29.61,1,2.44,1.48,1.86-.38.26.76,1.27,1.37,1.76l-.33.1a2.88,2.88,0,0,1,1.47.84c.09.19-.09.31-.2,0,.3.67.6.24,1,1l-.34-.09c.38.52.41.4.8.56a.85.85,0,0,1,.24.63.46.46,0,0,1-.3.44.49.49,0,0,1,.24.7c-.12,0-.15-.12-.17-.18-.44.79-.26,1.56-.92,2.13a.25.25,0,0,0-.24,0c.49-.84.79-1.41.77-1.35-.26-.12-.6.44-.75-.21a4.33,4.33,0,0,1-.59,2.32l-.14,0v-.09a1,1,0,0,0-.18.45,3.38,3.38,0,0,0-.36.51c-.27,0-.52.73-.7,1.08.31.11,0,.54.5.23-.05,0,0-.08.09-.31a.62.62,0,0,0,0-.16l0,0c.1-.23.24-.53.4-.86a1.07,1.07,0,0,1-.35,1c.1.27.21.56.25.71-.64.27-1.29,1.08-1.61,1.1-.31,1.14-1,2.6-.65,3.51-.05.34-.31.29-.44.37,0-.2.1-.41,0-.54-.09.68-.62,1.87-.26,2.17-.11.17-.19.25-.24.25s-.07-.07-.08-.13,0-.21-.27.6l-.06-.24a7.88,7.88,0,0,0-.95,2.87,13.43,13.43,0,0,0-.07,1.92,6.22,6.22,0,0,1,2.71-.91c-.19,0-.29,0-.29,0a20.46,20.46,0,0,0,2.61-1c.67-.3,1.32-.63,2-1a19.46,19.46,0,0,1,4-1.68c.77-.24.72-.54,1.06-.94l.31.23.55-.75c.89-.81,2.21-.2,3.24-1.43l-.29-.12c.49-.22,1.4-1,1.46-.68,0-.07,0-.3.27-.31l.11.16,1-1c.94-.43.25.71,1.54,0,.43-.36,1-1.3.8-1.29s-.54.21-.66.06l.38-.35c-.22-.51-.2-1.18-1.44-.85l-.54.73-.38-.08.6-.39c-.47,0-.57.32-.74.61a.56.56,0,0,0-.46-.07l-.44.88c-.2-.13.1-.55-.44-.37-.21.41.57.22.09.69-.47,0-.47-.24-.78.19-.13-.09-.09-.22.05-.37-.29.36-.94.63-1,1-.52-.06-1.21.78-1.42.3a2.68,2.68,0,0,1-.8.93c.34-.89-1.31.65-1.45,0-.21.74-1.57,1.09-2.27,1.78,0-.06.08-.19.16-.2a2.94,2.94,0,0,1-1,.16c.14.45-.55.9-.84,1.34-.77-.13.13-.66-.24-1,.19.32-.85.81-.52,1-.57,0-.45,0-.83-.19.15.56-.38.28-.61.77-.77,0-.39-.42-1,.06C156.82,96.8,157.37,96.33,157.37,96.33Zm2.41-9.22h0l-.16.35C159.65,87.39,159.7,87.29,159.78,87.11Zm.75-1.38c-.11.17-.23.38-.35.6a.15.15,0,0,1-.12-.25C160.09,86.19,160.32,85.9,160.53,85.73Zm-3.6,1.91c.07-.25.17-.29.24-.3s-.1.25-.16.42l0,0A.3.3,0,0,1,156.93,87.64Z"/><path class="cls-3" d="M157.11,88.25s0,.06,0,.1l.13-.1-.05-.13Z"/><path class="cls-3" d="M205.81,85.19l0,0-.08,0Z"/><polygon class="cls-3" points="154.1 65.34 154.01 65.35 154.11 65.47 154.1 65.34"/><path class="cls-3" d="M197.88,88.75a.14.14,0,0,0-.13,0S197.82,88.73,197.88,88.75Z"/><path class="cls-3" d="M194.3,89.5l-.53,0A4.12,4.12,0,0,0,194.3,89.5Z"/><path class="cls-3" d="M191.48,89.6a.27.27,0,0,0,0,.14h0Z"/><path class="cls-3" d="M207.86,56.29l-.06-.1C207.65,56,207.74,56.13,207.86,56.29Z"/><path class="cls-3" d="M210.81,69.23a2.16,2.16,0,0,1-.14-.43C210.64,69,210.62,69.22,210.81,69.23Z"/><polygon class="cls-3" points="199.32 44.56 199.32 44.55 199.26 44.49 199.32 44.56"/><path class="cls-3" d="M210.71,68.17a1.26,1.26,0,0,0,0,.63A1.91,1.91,0,0,0,210.71,68.17Z"/><path class="cls-3" d="M179.31,87.92l-.13,0,0,0Z"/><path class="cls-3" d="M179.15,87.92H179C179.06,87.94,179.12,88,179.15,87.92Z"/><path class="cls-3" d="M178.65,87.93H179A.4.4,0,0,0,178.65,87.93Z"/><path class="cls-3" d="M183,88.85l.07-.11A.23.23,0,0,0,183,88.85Z"/><path class="cls-3" d="M184.13,89a3.29,3.29,0,0,0-1-.36l-.05.08C183.27,88.61,183.84,89.17,184.13,89Z"/><path class="cls-3" d="M188.8,91l-1-.16c.16.14.38.33-.07.33C189,91.65,187.5,90.89,188.8,91Z"/><path class="cls-3" d="M191.89,91.21c-.53.08,0,.19,0,.26C192.22,91.33,192.3,91.3,191.89,91.21Z"/><path class="cls-3" d="M209.8,79.41l.25.17C210.18,79.17,210,79.53,209.8,79.41Z"/><polygon class="cls-3" points="209.68 74.95 209.38 75.27 209.6 75.51 209.68 74.95"/><path class="cls-3" d="M212.28,72.94c0,.07,0,.13,0,.19,0-.23,0-.48,0-.71Z"/><path class="cls-3" d="M197.76,39.68l-.11.38C197.92,40.16,198.21,39.86,197.76,39.68Z"/><path class="cls-3" d="M182.52,34.13a.82.82,0,0,0-.89-.25A6.85,6.85,0,0,0,182.52,34.13Z"/><polygon class="cls-3" points="150.82 61.37 150.69 61.04 150.81 61.67 150.82 61.37"/><path class="cls-2" d="M169.2,67.81c4.83,0,4.83-7.5,0-7.5s-4.83,7.5,0,7.5Z"/><path class="cls-2" d="M182.48,65c4.83,0,4.83-7.5,0-7.5s-4.83,7.5,0,7.5Z"/><path class="cls-2" d="M196.46,63.61c4.83,0,4.84-7.5,0-7.5s-4.83,7.5,0,7.5Z"/><path class="cls-4" d="M24.62,58.59c0-.09-.33.19-.4.22C24.36,58.86,24.71,58.52,24.62,58.59Z"/><polygon class="cls-4" points="26.12 59.18 25.96 59.24 26.42 59.22 26.12 59.18"/><path class="cls-4" d="M26.67,60.34c.62-.4-.3-.39-.17-.69l.13-.11-.56.17C26.26,59.91,26.8,60.07,26.67,60.34Z"/><path class="cls-4" d="M25.44,61.49c.25-.13.28,0,0-.16l-.06,0A.29.29,0,0,1,25.44,61.49Z"/><path class="cls-4" d="M25.42,61.37c-.06-.1-.19.15,0,0Z"/><path class="cls-4" d="M25.75,61.84l-.28-.08c-.14.08-.14.23-.27.21C25.37,62.08,25.52,62,25.75,61.84Z"/><path class="cls-4" d="M26.29,61.85l-.12-.06C26.11,61.83,26.09,61.85,26.29,61.85Z"/><path class="cls-4" d="M25.91,61.68l.26.11c.1,0,.33-.12-.1-.06C26.28,61.69,26.08,61.71,25.91,61.68Z"/><path class="cls-4" d="M26,61.55c.12-.13.17-.28.46-.19C26.23,61.08,25.78,61.3,26,61.55Z"/><path class="cls-4" d="M27.37,60.12l.15-.21-.27,0C27.38,59.9,27.17,60.21,27.37,60.12Z"/><path class="cls-4" d="M25.64,62.88c.15,0,.38-.13.57-.18l-.2-.08A.69.69,0,0,1,25.64,62.88Z"/><path class="cls-4" d="M26.21,62.7l.29.12C26.51,62.65,26.36,62.65,26.21,62.7Z"/><polygon class="cls-4" points="27.06 61.66 26.46 61.51 27.08 61.72 27.06 61.66"/><polygon class="cls-4" points="25.72 63.54 25.35 63.49 25.91 63.59 25.72 63.54"/><path class="cls-4" d="M25.85,64c-.3,0-.48.15-.67.09.06.11.31.19.54.26C25.59,64.22,25.62,64.12,25.85,64Z"/><path class="cls-4" d="M26.05,64.44a3.26,3.26,0,0,0-.33-.13A1,1,0,0,0,26.05,64.44Z"/><path class="cls-4" d="M26.47,63.15a1,1,0,0,0-.41.21l.42-.14Z"/><path class="cls-4" d="M26.49,63.22h0v.16Z"/><path class="cls-4" d="M26.47,63.13v0S26.52,63.13,26.47,63.13Z"/><path class="cls-4" d="M26.81,62.25c.26,0,.58.24.87-.07C27.37,62.16,27.21,62.34,26.81,62.25Z"/><path class="cls-4" d="M27,63l.07-.22a1,1,0,0,1-.39.06Z"/><polygon class="cls-4" points="27.13 63.03 26.98 62.95 26.96 63.03 27.13 63.03"/><path class="cls-4" d="M26.44,64.09a.32.32,0,0,1,.24.26.55.55,0,0,0,.11-.35C26.66,64,26.42,64,26.44,64.09Z"/><path class="cls-4" d="M26.51,63.66l0,0S26.58,63.65,26.51,63.66Z"/><path class="cls-4" d="M26.71,65.4l.07,0h-.07Z"/><path class="cls-4" d="M26.87,64c.08-.09,0-.14-.17-.17a.31.31,0,0,1,.09.2C26.85,64,26.89,64,26.87,64Z"/><path class="cls-4" d="M26.27,64.71a.86.86,0,0,0,.22-.15C26.36,64.61,26.16,64.7,26.27,64.71Z"/><path class="cls-4" d="M26.42,63.72h0C26.31,63.75,26.36,63.74,26.42,63.72Z"/><path class="cls-4" d="M26.42,63.72a1.58,1.58,0,0,0,.28.08.43.43,0,0,0-.17-.12Z"/><path class="cls-4" d="M29.43,65.83c-.39,0-.75-.31-.31-.53a5,5,0,0,0-2.34.08.72.72,0,0,1,.56.22c.22-.06.53-.46.88-.27.19.3-.15.24-.37.37.5-.11.7.4,1.43.38L29,65.8C29.15,65.8,29.33,65.9,29.43,65.83Z"/><path class="cls-4" d="M26.83,65l0-.08c-.07.1-.21.17-.53.28a.87.87,0,0,0,.46.18,3,3,0,0,0,.06-.4Z"/><path class="cls-4" d="M26.76,64.56c.43,0,.62.24,1.08.1,0-.26-.37-.17-.56-.3.13.39-.25-.1-.48.19a.48.48,0,0,1-.12-.2,1.2,1.2,0,0,1-.19.21h0s.08,0,0,0h.17c-.08.11-.11,0-.16,0h-.07l.26.37C26.83,64.84,26.81,64.74,26.76,64.56Z"/><path class="cls-4" d="M28.64,62.21l-.09,0C28.61,62.26,28.65,62.26,28.64,62.21Z"/><path class="cls-4" d="M28.42,62.44c-.06,0-.23,0-.21-.12s.2,0,.34-.08c-.13,0-.36-.15-.51.09h.06a1.5,1.5,0,0,1-.67.5A5.26,5.26,0,0,0,28.42,62.44Z"/><path class="cls-4" d="M27.74,63.56a2.6,2.6,0,0,1,.25.33l.36-.22-.22,0C28.19,63.49,27.92,63.56,27.74,63.56Z"/><polygon class="cls-4" points="26.49 65.43 26.04 65.38 26.67 65.58 26.49 65.43"/><polygon class="cls-4" points="26.53 65.84 26.13 65.81 26.37 65.93 26.53 65.84"/><path class="cls-4" d="M8.2,76.52l-.17,0A.32.32,0,0,0,8.2,76.52Z"/><path class="cls-4" d="M8.77,77.33l.17-.11C8.82,77.26,8.75,77.29,8.77,77.33Z"/><path class="cls-4" d="M22.34,74.61c-.34-.21-.8-.59-.52-.25l.3.33C22.14,74.57,22.23,74.57,22.34,74.61Z"/><path class="cls-4" d="M16.2,79.15l0,.14.15-.41C16.33,79,16.26,79.06,16.2,79.15Z"/><path class="cls-4" d="M15.83,80.91l-.22-.3A1.15,1.15,0,0,0,15.83,80.91Z"/><path class="cls-4" d="M5.61,71.79l-.47-.07C5.2,72,5.39,71.81,5.61,71.79Z"/><path class="cls-4" d="M25.79,70a.65.65,0,0,0-.36.17C25.71,70.15,26.11,70.18,25.79,70Z"/><path class="cls-4" d="M12.12,74.08a.52.52,0,0,0-.26.1A.33.33,0,0,0,12.12,74.08Z"/><path class="cls-4" d="M25.29,70.49l.12,0a.3.3,0,0,1,0-.29C25.21,70.2,25.06,70.26,25.29,70.49Z"/><path class="cls-4" d="M13.84,55.7l.06,0C13.88,55.67,13.86,55.68,13.84,55.7Z"/><path class="cls-4" d="M19.92,57.77a.79.79,0,0,1-.16.08S19.85,57.85,19.92,57.77Z"/><path class="cls-4" d="M26.16,67.46c0-.09,0,0,0,0Z"/><path class="cls-4" d="M27.91,67.3a1,1,0,0,0,.21.07Z"/><path class="cls-4" d="M27.28,72.55h0C27.36,72.57,27.35,72.56,27.28,72.55Z"/><path class="cls-4" d="M26.37,67.36l-.14.09A.29.29,0,0,0,26.37,67.36Z"/><path class="cls-4" d="M26.17,67.35l0-.07C26.15,67.26,26.1,67.26,26.17,67.35Z"/><path class="cls-4" d="M26.16,67.58a.19.19,0,0,1,.07-.13.06.06,0,0,1-.07,0Z"/><path class="cls-4" d="M8.1,63.35h.05C8,63.17,8,63.22,8.1,63.35Z"/><path class="cls-4" d="M22.5,79.82v0h0Z"/><path class="cls-4" d="M22.24,80.31c-.06-.57.06-.55.24-.52l-.67-1.06C22,79.25,22.1,79.78,22.24,80.31Z"/><path class="cls-4" d="M6.92,74.55,6.71,75c-.75-.08-.68-.46-1,.07.63-.27.79,0,1,.29s.38.53,1,.21l-.14.33c0-.06-.09,0-.11-.09-.33.7,1-.24,1.1.28,0,.2-.06.42-.27.41l.51.13c0,.11-.15.23-.2.12A4.68,4.68,0,0,0,9,77.2l0,0a5.18,5.18,0,0,1,.77-.15c-.05.24-.16,0-.26.17l.46,0c-.16.34-.6.37-.73.15-.78,1.14.43,0,.35,1a2.53,2.53,0,0,1-.36-.12c-.41.71,0,.69,0,1.33.08-.27.24-1.42.77-1.4,0,.15.08.29.41.22-.32.36-.09.41.12.56l-.42.48c.34,0,.53-.23.84-.36.21.23,0,.67-.21,1.06.37.39.17-.86.73-.61.19.46.63.37,1.22.27.15.33-.23.32-.22.53l.46-.33c.05,0,0,.17-.08.24.27-.08.29-.56.66-.6.33-.62.23,1.22.9.6,0,.2-.16.36-.21.61a2.84,2.84,0,0,0,1.19-.82c.09.16.19.34.29.49-.19-.51.27-1,.59-1.46-.06-.24-.1-.45-.13-.55l.43-.3a1.15,1.15,0,0,1-.12.58.55.55,0,0,0,.09-.14,1.19,1.19,0,0,1-.12,1,3,3,0,0,1-.12-.4,4.18,4.18,0,0,0-.35,1.16.4.4,0,0,1,.18-.16.63.63,0,0,0-.07.26c0,.07.08-.07.18-.22l0,.72.06-.28a8.27,8.27,0,0,0,.66.51c.52-.71.84-1.78,1.41-2.15a4.84,4.84,0,0,0,.15,1.47c-.27-.63-.53.34-.94.22.21.06.18.36.13.46a8,8,0,0,0,.65-.65c0,.51.19.36.4.55-.27-1,.4-.74.6-1.1.09.32.1.68-.26.66.53.66.23-1.24.7-.7-.07,0-.13,0-.12.16a.3.3,0,0,1,.58.08l-.07,0c.56,0,1.55-.54,1.26-1.35a11.7,11.7,0,0,1,.38,1.14,22.21,22.21,0,0,0-.43-3c.26.69,1.34,2.09,1.13,2.66.16,0,.37.07.48-.29-.13,0-.68-.83-.62-.94.66.57.4.29,1.09.69-.2-.08-.65-1.13-.48-1.2a11.29,11.29,0,0,1,.61,1.1c0-.41-.11-.81-.19-1.22a2.38,2.38,0,0,0,.77,1c-.16-.15.38-.25.43-.42l-.33-.08c.57-.21-.49-1.6-.06-1.85.11.21.79,1.21,1.09,1.13a18.29,18.29,0,0,1-1.45-3l.29.19c0-.16,0-.31-.05-.48a12.4,12.4,0,0,1,1.52,3.24c.33,0,.3.24.53,0a.38.38,0,0,1,.12.55l.72-.4c-.49-.45,0-.9-.49-1.27a9.83,9.83,0,0,1-.09,1.08c-.49-.49-1-1.66-.59-1.95.28.08.82.88,1,1-.13-.21,0-.67.15-.6l.12.41c.4-.07-.36-.94.37-.8.11-.06.9.23.6,0a15.06,15.06,0,0,1-3-2.16,7.62,7.62,0,0,1,1.27.12c.6.18,1,1,1.54,1.21a1.37,1.37,0,0,1-.31-.41c.2,0,.44.36.53.09-.54-.41.36-.42-.41-.42,0-.32.28-.15.4-.43a3,3,0,0,1-1.22-1.29,1.71,1.71,0,0,0,.47.19c.3-.4.69-.51.88-.94.17,0,.45-.11.68.1-.09-.11-.27-.26-.23-.4.66,0-.05.34.69.41-.36-.18-.33-.57-.5-.86-.58-.15-.3.4-.15.7A3.34,3.34,0,0,1,27,70c-.09-.4.57,0,.47-.06.35-.61-1.21-1-.5-1.3.57-.08,1,.25,1.42.3.14.36-.44.37-.49.56l.33-.17c.14.14.2.38,0,.44.55,0,.41-1.13,1-1.58-.15-.14-.3-.33-.53-.29l0,.18c-.46.07-.52-.42-.77-.25-.25-.28-.71-.58-.42-.84l.61,0c-.18,0-.39.15-.21.26-.25-.15.89-.37.11-.6l-.45.16c-.28-.25-.89-.56-.69-.79-.61.07.06.07-.65.18.91-.07-.12.62.83.48-.84.08-.39.27-1.11.39.2,0,.39,0,.27.17l.17.07h0s0,0,0,0a1,1,0,0,1,.31,0c.46.18.38.52.58.68-.12.11-.22-.1-.44-.07l.31.24c-.44-.07-.8.16-1-.18l-.08.25c-.28.09-.41.26-.27.43-.13.08.38.43.08.23l.13.46-.1,0c-.16.35.4,1.07-.53,1.16.05.17.12.37-.09.51L25,70.84c0,.22-.58.25-.26.51-.5-.18-.64,0-.7.16s-.07.46-.22.53l.4.3c-.14.14-.11.4-.12.71l.36.27c.13.41-.63.24-.82.53-.11-.13,0-.17.1-.15-.51-.18-.51.1-.52.39s0,.64-.38.49c0,.19-.05.19-.17.15s0,0,0,0l0,0-.25-.11a.85.85,0,0,0,.23.12.57.57,0,0,0-.12.31l-.33-.35s0,0,0,0c-.19-.08.07.23.33.49a1.47,1.47,0,0,0,.06.32c-.53-.58-.09.39-.66-.22.18.38-.28.56.09,1.32-.06-.09-.11-.12-.06-.16-.17,0-.32,0-.31.23l-.34-.51c.05.28.09.57.13.86a1.12,1.12,0,0,1-.54-.91c0,.83-.16.38-.19,1.18l-.14-.37c-.11.06-.1.63-.29.35-.5-.59-1.35.35-2.12-.27.28,1.14-.35-.47-.28.42a1.22,1.22,0,0,1-.08-.67c-.3.3-.45-.41-.66.35,0-.28.07-.4,0-.57,0,.06-.1.24-.12.08s.05-.23.09-.35c-.26,0-.35.86-.45,1.65-.15-.39-.22-.35-.43.16,0-.27-.08-.54.14-.62-.13,0-.6-.51-.77.11,0-.17-.15-.09-.21,0-.26-.09-.25-.19-.52-.22l0,.12c-.38.68-.29.07-.53.08l0-.07c-.21-.73-.33.12-.47-.67l-.22.43c-.28.43-.32.24-.32,0s0-.65-.2-.57l-.07.29c-.36.17.46-1.39.45-1.57s.13-.07.21-.1c.12-.71-.44.45-.75.37.19-.29.62-.61.53-.78.06-.13-.22,0-.5,0s-.53,0-.38-.29c-.15.22-.3.44-.55.46s.39-1-.37-.72a.67.67,0,0,1,.14-.15c-.26,0-.61-.23-1-.1.66-.51.36-.62,0-.73s-.61-.23.07-.56l-.29-.43.14,0c0-.34-.39-.32-.79-.31.07-.11.23-.1.31-.13.11-.56.06-.55-.78-.78l.47-.16c-.15,0,0-.25.09-.49s.21-.51-.11-.71a.66.66,0,0,1,.23,0c-.35-.23,0-.58.18-.83s.24-.45-.66-.6l-.42-.39c-.17.48-.78-.13-1.09,0-.09-.23.57-.48.65-.22l-.09,0c.91.17.42-.56,1.05-.44.09-.91.9-1.61,1.28-2.31l-.71-.22.18-.26c.19,0,.55.16.44.33.42.09-.16-.47-.3-.55.45-.24.68.54.76.43l0-.17h-.09c-.19-.26-.46-.43-.3-.63s.44.16.49.12.08,0,.07-.08a3.08,3.08,0,0,1,.24-.27l-.56-.19c-.15-.3.23-.29-.42-.5a.81.81,0,0,0,1-.36c.23-.26.38-.58.55-.54a.6.6,0,0,1,.27-.82c-.13,0-.63-.45-.39-.59.87,1,.76.06,1.57.64-.56-.35.43-.6-.37-1.09.24-.06.33.37.66.51,0-.36.31-.47.62-.55a1.42,1.42,0,0,0,.87-.35c-.08-.16-.32-.32-.35-.62l.76.57c.05-.13-.43-.92.08-.52-.1-.11-.26-.28-.22-.37a3,3,0,0,0,1.8-.73,1.65,1.65,0,0,1,2,0c-.26-.27-.17-.34,0-.39-.1-.05-.12-.42-.21-.64.24.16.47.31.7.48-.08-.66.54-.18.44-.81l-.14.15c.06-.78-.72-1.52-.95-2.46,0,.88-1.12-1-1.22.33-.17-.15,0-.32-.14-.52,0,.43-.1.55-.42.48v-.1c-.7.36-1.16.11-2.1.25l.26.4c-.2,0-.3-.09-.43-.15.12.73.5-.2.66.6-.65-.77-1.18.59-1.86-.28-.26.15.35.43.09.58l-.22-.22.13.37c-.2,0-.48-.22-.61-.43,0,0,.08-.13.11-.18-.4-.16-.57.48-.69.44h.34a5.07,5.07,0,0,1-1,.85,2,2,0,0,0-.79,1.09l.19.13c-.17.71-.52.14-.88.72v0c0,.25,0,.46-.13.56-.07-.3-.58-.12-.63-.49-.14.79,0,.48.34,1.35l-.34-.17c.16.33.29.46.16.76-.07-.41-.57-.2-.7-.7-1.1,0,0,1.3-1.13.87.66.85.82-.16.89.11.35.09.47.66.27.77s-1.3-.45-1.58.07c0,0,0-.09,0-.14-.34.06.09.54-.41.56.46.42-.19.29.49.69a3.08,3.08,0,0,1,.08-.53c0,.35.74,1,.14,1.22a1.32,1.32,0,0,1-.32-.46c-.27,0,0,.31-.26.34-.7-.37.12-.64-.27-1.21-.37,0,.24.82-.46.28.89.7-.39.47.22,1.18l-.43-.21c0,.09.21.29.16.4l-.5-.43c.37.49-.66.43-.5.84.22-.64.59,0,1-.09.32.93-1.33,0-1.38,1,0-.14.4-.38.56-.13a1.33,1.33,0,0,1-.65.37c-.06.63.49,0,.71.34-.6.08.17.36.31.64l-.47-.09c-.43.65.95.34.49.89-.22-.11-.42-.23-.62-.34,0,.11.07.23.12.34l-.54-.12c.38.4.27.49.1.85.34-.07.87.08.87.37-.29.2-.47-.12-.39.31-.3-.09-.69-.21-.23-.4-.16,0-.3-.1-.46-.13-.35.23-.08.6-.06.76a.22.22,0,0,1,.1-.18c.23.21.47.42.7.61a.44.44,0,0,1-.47,0c.06.13.28.2.33.38-.39,0-.79,0-1-.23a5.27,5.27,0,0,0,.48.58c-.16.06-.41.38-.57.32-.17.4.86.73.68,1.22a.41.41,0,0,1,.24.11c0,.43-.35,1,.34,1.26l-.57.5C6,74,6.4,73,6.87,73.5c.36.34-.5.39-.62.61.43.09,1.24.12.9.75C7,74.79,7,74.65,6.92,74.55Zm3,3.71c-.14,0-.51.11-.35-.15C10.05,77.81,9.92,78,9.93,78.26Zm6.81,1.88c-.07.15-.17.06-.27-.13C16.56,80,16.64,80,16.74,80.14Zm9.59-11.66h0C26.14,68.59,26.22,68.56,26.33,68.48Zm.27-.24a.37.37,0,0,0-.19-.07c.11,0,.1.12.05.19C26.59,68.37,26.68,68.35,26.6,68.24ZM11.47,64l-.14,0C11.28,63.76,11.37,63.86,11.47,64Z"/><path class="cls-4" d="M15.88,80.71a1.13,1.13,0,0,1,0-.26A.22.22,0,0,0,15.88,80.71Z"/><path class="cls-4" d="M5.69,71.8s0,0,0,0h0Z"/><path class="cls-4" d="M28.11,74.83a.57.57,0,0,1-.29,0A.21.21,0,0,0,28.11,74.83Z"/><path class="cls-4" d="M26.06,66.55l.1.2c0-.09.1-.11.18-.15C26.23,66.59,26.06,66.61,26.06,66.55Z"/><path class="cls-4" d="M29.13,64.91c-.06,0,0-.07-.07-.1h-.23C28.85,65,29,65.06,29.13,64.91Z"/><path class="cls-4" d="M27.68,66.54c.41,0,.29-.13.22-.28v0C27.33,66.2,27.52,66.37,27.68,66.54Z"/><path class="cls-4" d="M27.89,66.23a.17.17,0,0,1,0-.14C27.66,66.06,27.83,66.14,27.89,66.23Z"/><path class="cls-4" d="M26.42,67.8c.12,0-.5-.14-.33-.14C25.6,67.49,26.61,68.2,26.42,67.8Z"/><polygon class="cls-4" points="29.03 66.54 28.52 66.55 28.91 66.67 29.03 66.54"/><path class="cls-4" d="M28.5,67.72l.17-.22a.21.21,0,0,1-.16-.1C28.47,67.55,28.35,67.7,28.5,67.72Z"/><path class="cls-4" d="M28.51,67.4a.19.19,0,0,0-.05-.21A.3.3,0,0,0,28.51,67.4Z"/><polygon class="cls-4" points="29.13 66.9 29.02 66.96 28.96 67.14 29.13 66.9"/><path class="cls-4" d="M27.73,70.26l.05.31c.15.08.27.05.24-.07S27.9,70.28,27.73,70.26Z"/><path class="cls-4" d="M29.3,69.88a.92.92,0,0,1-.41,0l.6.19Z"/><path class="cls-4" d="M29.17,70.74c.15.09.32.59.41.21C29.43,70.86,29.39,70.53,29.17,70.74Z"/><polygon class="cls-4" points="26.46 74.22 26.49 74.16 25.66 73.57 26.46 74.22"/><path class="cls-4" d="M25.34,78.84c.47,0-.31-.55.16-.52-.08-.24-.38,0-.44-.24C25,78.41,24.84,78.37,25.34,78.84Z"/><path class="cls-4" d="M25.06,78.08a1.2,1.2,0,0,0,0-.19A.4.4,0,0,0,25.06,78.08Z"/><polygon class="cls-4" points="20.72 58.11 20.95 58.27 20.75 57.97 20.72 58.11"/><path class="cls-4" d="M20.89,57.29l.19.62,0-.6S21,57.42,20.89,57.29Z"/><path class="cls-4" d="M9.61,79.74l.11-.11a.23.23,0,0,0,0-.31Z"/><polygon class="cls-4" points="7.49 76.61 7.51 76.67 7.93 76.25 7.49 76.61"/><path class="cls-4" d="M5.39,74.2c0,.13.2.22.23.35C5.4,74.33,6.06,73.9,5.39,74.2Z"/><path class="cls-5" d="M112.41,78.64c0,.08.19,0,.23,0C112.53,78.49,112.36,78.67,112.41,78.64Z"/><polygon class="cls-5" points="111.32 77.7 111.41 77.68 111.13 77.62 111.32 77.7"/><path class="cls-5" d="M110.69,76.62c-.24.29.28.36.28.62l0,.07.3,0C111.05,77,110.71,76.84,110.69,76.62Z"/><path class="cls-5" d="M111,75.64c-.09.1-.17-.07,0,.15v0Z"/><path class="cls-5" d="M111.07,75.75c.08.11.06-.14,0,0Z"/><path class="cls-5" d="M110.67,75.27l.21.08c.05-.07,0-.21.06-.2C110.78,75,110.73,75.12,110.67,75.27Z"/><path class="cls-5" d="M110.36,75.28l.1,0S110.47,75.26,110.36,75.28Z"/><path class="cls-5" d="M110.66,75.42l-.2-.1c0,.06-.13.12.08.05C110.44,75.42,110.55,75.4,110.66,75.42Z"/><path class="cls-5" d="M110.67,75.54c0,.13,0,.26-.18.18C110.71,76,110.9,75.8,110.67,75.54Z"/><path class="cls-5" d="M110.35,76.76l0,.16.16,0C110.4,76.94,110.44,76.69,110.35,76.76Z"/><path class="cls-5" d="M110.22,74.26c-.07,0-.14.16-.21.23l.14.06C110.16,74.46,110.13,74.33,110.22,74.26Z"/><path class="cls-5" d="M110,74.49l-.22-.09C109.87,74.55,109.94,74.54,110,74.49Z"/><polygon class="cls-5" points="110.01 75.46 110.42 75.58 109.97 75.42 110.01 75.46"/><polygon class="cls-5" points="109.81 73.64 110.01 73.63 109.68 73.62 109.81 73.64"/><path class="cls-5" d="M109.5,73.25c.17,0,.14-.24.26-.22a.74.74,0,0,0-.41-.14A.33.33,0,0,1,109.5,73.25Z"/><path class="cls-5" d="M109.12,72.85l.23,0A.68.68,0,0,0,109.12,72.85Z"/><path class="cls-5" d="M109.64,74.11a.32.32,0,0,0,.09-.25l-.13.18Z"/><path class="cls-5" d="M109.59,74.05h0l-.09-.14Z"/><path class="cls-5" d="M109.65,74.12h0S109.62,74.13,109.65,74.12Z"/><path class="cls-5" d="M109.89,74.94c-.16,0-.4-.15-.43.14C109.63,75.06,109.65,74.9,109.89,74.94Z"/><path class="cls-5" d="M109.48,74.35l.07.2s.09-.11.17-.1Z"/><polygon class="cls-5" points="109.37 74.31 109.48 74.35 109.45 74.28 109.37 74.31"/><path class="cls-5" d="M109.16,73.25a.4.4,0,0,1-.26-.17,1.22,1.22,0,0,0,.14.33C109.11,73.38,109.23,73.35,109.16,73.25Z"/><path class="cls-5" d="M109.35,73.65h0S109.32,73.67,109.35,73.65Z"/><polygon class="cls-5" points="108.25 72.21 108.23 72.25 108.26 72.23 108.25 72.21"/><path class="cls-5" d="M109,73.45c0,.09.09.11.17.11a1.06,1.06,0,0,1-.15-.15S109,73.43,109,73.45Z"/><path class="cls-5" d="M108.87,72.66a1.15,1.15,0,0,0,0,.19C108.89,72.77,108.92,72.64,108.87,72.66Z"/><path class="cls-5" d="M109.36,73.58h0S109.38,73.55,109.36,73.58Z"/><path class="cls-5" d="M109.36,73.58a.47.47,0,0,0-.17,0,.5.5,0,0,0,.14.08Z"/><path class="cls-5" d="M107,72.78a.25.25,0,0,1,.4.25c.24.06.69-.43.87-.78-.07,0-.14.09-.35,0,0,.12.07.5-.18.47s-.08-.21-.07-.38c-.13.24-.49,0-.75.22l.25.11S107,72.7,107,72.78Z"/><path class="cls-5" d="M108.45,72.57l.07.05a.72.72,0,0,1,0-.39.37.37,0,0,0-.3,0l.23.34Z"/><path class="cls-5" d="M108.75,72.92c-.21.07-.41,0-.52.2.15.18.24,0,.4.1-.26-.3.16,0,.1-.29a1.29,1.29,0,0,1,.17.15,1.85,1.85,0,0,1,0-.23v0h0s0,0,0,0h0l-.08,0c0-.13,0,0,.08,0h0l-.34-.25A1.07,1.07,0,0,0,108.75,72.92Z"/><path class="cls-5" d="M109,75.16l0,0S108.94,75.12,109,75.16Z"/><path class="cls-5" d="M109,75s.13,0,.16.06-.09.06-.14.1.23.08.22-.12h0c0-.17.09-.49.13-.48A1.54,1.54,0,0,0,109,75Z"/><path class="cls-5" d="M108.82,74l-.27-.21-.06.24.09-.07C108.64,74.11,108.74,74,108.82,74Z"/><polygon class="cls-5" points="108.31 72.12 108.52 72.02 108.15 72.06 108.31 72.12"/><polygon class="cls-5" points="108.03 71.8 108.2 71.69 108.03 71.67 108.03 71.8"/><path class="cls-5" d="M88.49,58.58h0Z"/><path class="cls-5" d="M89.08,58.89l.06-.07S89.06,58.88,89.08,58.89Z"/><path class="cls-5" d="M100.84,64.12c0-.23.09-.55,0-.37l-.11.19A.22.22,0,0,1,100.84,64.12Z"/><path class="cls-5" d="M94.42,60.79v.07l.19-.12Z"/><path class="cls-5" d="M93.84,61.48l-.07-.22A.79.79,0,0,0,93.84,61.48Z"/><path class="cls-5" d="M85.09,57.22l-.18.16C85.06,57.44,85,57.31,85.09,57.22Z"/><path class="cls-5" d="M105.16,68.47a.75.75,0,0,0-.1-.32C105.06,68.35,105,68.56,105.16,68.47Z"/><path class="cls-5" d="M89.8,56.66a.18.18,0,0,0-.14.08C89.73,56.73,89.78,56.71,89.8,56.66Z"/><path class="cls-5" d="M104.82,67.89s0,.06,0,.08a.66.66,0,0,1,.23.18C105.05,68,105,67.88,104.82,67.89Z"/><path class="cls-5" d="M72.46,53.39s0,0,0,0S72.44,53.39,72.46,53.39Z"/><path class="cls-5" d="M68.78,50.78H69A.25.25,0,0,0,68.78,50.78Z"/><path class="cls-5" d="M107,70.37c.07.07,0,0,0,0Z"/><path class="cls-5" d="M106.65,71.26a.17.17,0,0,0-.11,0A.21.21,0,0,1,106.65,71.26Z"/><path class="cls-5" d="M103.23,68.16h0S103.22,68.19,103.23,68.16Z"/><path class="cls-5" d="M107.05,70.54a.59.59,0,0,0,0-.13A.37.37,0,0,0,107.05,70.54Z"/><path class="cls-5" d="M107.12,70.46l0,.08S107.2,70.5,107.12,70.46Z"/><path class="cls-5" d="M107,70.28a.54.54,0,0,1,.07.13s0,0,0,0Z"/><path class="cls-5" d="M79.55,54.38v0C79.43,54.42,79.47,54.41,79.55,54.38Z"/><polygon class="cls-5" points="97.63 64.33 97.64 64.33 97.64 64.31 97.63 64.33"/><path class="cls-5" d="M97.28,64.27c.28-.13.32-.06.36,0l.31-.56Z"/><path class="cls-5" d="M87,57.91l.11.27c-.37.17-.49,0-.43.33.32-.6.78.32,1.11-.28l.07.19s-.06,0-.1,0c.11.42.41-.35.69-.09.09.1.12.23,0,.26l.33,0a.06.06,0,1,1-.07.09l.41.15,0,0a2.27,2.27,0,0,1,.4-.18c.06.13-.08,0-.09.12l.29,0c0,.19-.26.26-.39.16-.13.7.26-.07.48.52l-.23,0c-.07.41.15.37.25.71,0-.14-.14-.79.16-.8,0,.08.11.15.3.1-.12.21,0,.23.18.3l-.17.27c.2,0,.27-.13.44-.2.16.13.07.36,0,.57.25.21,0-.46.37-.31.17.24.4.22.78.23.11.19-.13.15-.12.26l.28-.13s0,.08,0,.11c.17,0,.18-.26.42-.22.24-.27.12.68.56.5,0,.12-.13.15-.18.26a2,2,0,0,0,.83-.09l.1.32c0-.31.34-.4.65-.47a1.89,1.89,0,0,0,0-.32l.39.06c0,.07-.08.14-.21.21l.1,0c0,.17-.12.28-.29.38v-.24a1.42,1.42,0,0,0-.46.41.38.38,0,0,1,.15,0,.22.22,0,0,0-.1.09s.06,0,.15,0l-.13.34.1-.1.25.44a2.7,2.7,0,0,1,1.54-.2c-.26.13-.27.33-.46.57.08-.35-.41-.11-.6-.32a.14.14,0,0,1-.07.23l.57,0c-.15.2,0,.22,0,.38.22-.47.48,0,.73-.06-.09.15-.23.26-.4.08,0,.46.63-.27.64.15,0,0-.06-.07-.13,0,.2,0,.4.26.24.33l0,0c.27.28.93.72,1.24.43a5.78,5.78,0,0,1-.43.42l1.45-.69c-.28.25-.64,1.06-1,1a.33.33,0,0,0,.33.23c0-.08.21-.51.3-.48a2.3,2.3,0,0,0,0,.74c0-.12.42-.49.52-.38-.07,0-.35.44-.43.45l.64-.18c-.13,0-.32.35-.36.52,0-.1.24.22.35.25l0-.21c.26.34.84-.32,1.14,0-.12,0-.57.45-.46.65.26-.16,1.25-.75,1.69-.66l-.06.17.35,0a12.1,12.1,0,0,1-1.87.63c0,.2-.1.17.09.31,0,.17-.25.09-.31,0l.34.43c.21-.26.54,0,.71-.18-.21-.06-.45-.1-.67-.14.2-.26.91-.49,1.15-.16,0,.16-.47.38-.54.47.12-.05.41.1.38.18l-.24,0c.07.24.56-.08.52.34,0,.07-.11.49,0,.36a4.92,4.92,0,0,1,1.24-1.38,2.82,2.82,0,0,1,0,.81c-.11.31-.67.35-.76.62a.62.62,0,0,1,.26-.09c0,.13-.23.18-.06.29.27-.21.28.32.28-.13.21.07.1.2.28.35a1,1,0,0,1,.9-.29.51.51,0,0,0-.14.21c.28.31.3.6.56.88,0,.09,0,.29-.15.33.08,0,.2,0,.29,0-.07.37-.21-.17-.36.2.16-.12.41,0,.61.09.19-.24-.22-.33-.42-.38a1.22,1.22,0,0,1,1.25-.18c.3.18-.11.29,0,.29.35.5.9-.09,1,.49-.07.32-.4.35-.52.51-.25-.13-.14-.41-.27-.54l.05.25c-.12,0-.29-.09-.29-.22-.08.29.66.79.76,1.3.13,0,.29.07.33,0l-.12-.1c.08-.24.4,0,.36-.18.24.06.57.09.65.39l-.21.23c.07-.06,0-.26-.09-.26.18,0-.06.6.33.45l0-.29c.24.07.65.07.73.33.17-.28-.06,0,.11-.39-.25.39-.38-.52-.59,0,.2-.4-.06-.36.06-.77-.07.07-.1.19-.19,0l-.1,0v0s0,0,0,0a.39.39,0,0,1-.06.18c-.24.06-.44-.21-.6-.22s.12,0,.16-.16l-.24,0c.16-.15.06-.49.36-.35l-.17-.2a.46.46,0,0,0-.28-.44c0-.13-.4-.07-.19-.11l-.39-.22,0,0c-.25-.33-.84-.39-.85-1a.65.65,0,0,1-.39-.34l.11-.17c-.17-.08-.24-.51-.44-.43.24-.5-.54-.7-.7-1l-.18.17a1.88,1.88,0,0,0-.61-.38l-.14.18c-.29,0-.31-.54-.59-.78.08,0,.13,0,.14.12,0-.68-.94-.34-1-.88a.16.16,0,0,1-.18-.16h0l0,0a1.13,1.13,0,0,0,0-.18.81.81,0,0,0,0,.17.78.78,0,0,0-.29-.14l.12-.21h0c0-.14-.14,0-.22.2a.44.44,0,0,0-.2,0c.18-.35-.31-.09-.14-.49-.18.1-.52-.26-.84,0,0,0,0-.09.07,0-.06-.12-.12-.24-.29-.22l.16-.27-.47.14c0-.24,0-.37.28-.45-.55,0-.35-.09-.84,0l.14-.15c-.1-.06-.42,0-.38-.15,0-.46-1-.85-1.38-1.56-.23.55-.1-.41-.39-.05,0-.14,0-.25.17-.29-.37-.09-.32-.48-.74-.3,0-.14.18-.13.19-.22s-.16,0-.14-.05.11-.07.19-.08c-.32-.19-.59.14-.84.46,0-.26-.14-.29-.39-.15,0-.14,0-.32.22-.23-.09-.09-.54-.59-.72-.33,0-.09-.14-.12-.19-.11a2.16,2.16,0,0,0-.47-.34l0,.08c-.29.26-.24-.05-.46-.12l0,0c-.3-.5-.26,0-.54-.53l-.1.22c-.3.42-.23-.49-.58-.47l0,.17c-.23.07,0-.83-.15-1s.09,0,.15,0c-.22-.48-.21.24-.52.15,0-.18.28-.34.11-.48s-.8.16-.9-.26c0,.15,0,.29-.19.31s-.32-.71-.69-.44a.19.19,0,0,1,0-.11c-.2,0-.58-.1-.77,0,.22-.81-1.14-.12-.8-.8l-.49-.21.05-.06a.5.5,0,0,0-.66.05c0-.08,0-.12.05-.16-.39-.33-.45-.32-1-.14l0-.24c-.15.08-.5-.65-1.06-.57a.12.12,0,0,1,.09-.08c-.6,0-1-1.15-1.49-.36l-.41.08c.41.22-.2.35-.08.55-.19,0-.35-.41-.12-.38l0,.05c.24-.41-.49-.35-.37-.65-.87-.28-1.63-.85-2.46-1.09v.38l-.28-.1c0-.11,0-.31.18-.23-.05-.23-.4.06-.43.14-.36-.26.28-.37.16-.41l-.17,0,0,.05c-.18.1-.23.25-.48.16s0-.24-.07-.27,0,0-.1,0l-.35-.13.07.32c-.2.09-.34-.11-.26.25-.05-.28-.38-.42-.71-.52s-.66-.1-.72-.19a.89.89,0,0,1-.78,0c.06.07,0,.4-.2.31.23-.64-.38-.38-.48-.9.11.36-.7-.07-.52.44-.19-.1,0-.25-.09-.44-.52.13-1-.37-1.66-.37,0,.08.06.23-.09.34L73,51.08c-.13,0-.19.49-.36.15,0,.08,0,.2,0,.21a4.08,4.08,0,0,0-1.79-.34,2.78,2.78,0,0,1-1.8-.51c.16.18,0,.19-.08.18.08,0,0,.22,0,.34l-.48-.37c-.12.32-.55,0-.62.29L68,51c-.23.35.25.85.19,1.32.26-.4.57.68,1,.1.08.11-.08.15-.05.27a.28.28,0,0,1,.44-.12l0,0a4.39,4.39,0,0,1,1.51.43l0-.24c.14.05.16.13.22.2.21-.33-.4-.08-.21-.45.14.5,1,.16,1.08.72.22,0,0-.28.19-.25l0,.16.09-.18c.14,0,.18.25.17.37s-.11,0-.15,0c.16.2.54,0,.6.08l-.2-.12a12.86,12.86,0,0,0,2,.09l0-.12c.48-.1.33.2.83.22l0,0a.43.43,0,0,1,.39-.08c-.15.11.18.3,0,.41.53-.11.28-.12.69-.45l0,.19c.15-.14.18-.22.44-.21-.24.11.08.3-.19.46.41.49.85-.2.93.43.36-.43-.36-.4-.2-.47-.07-.19.29-.32.43-.22s.1.71.51.82c0,0-.06,0-.09,0,.11.17.34-.09.46.17.19-.27.24.09.38-.28l-.4,0c.24,0,.57-.43.85-.11a.73.73,0,0,1-.27.17c.07.14.22,0,.29.13-.15.37-.47,0-.78.18.06.19.5-.16.27.22.31-.47.37.18.76-.14L80,55c.06,0,.18-.1.26-.07l-.24.25c.3-.19.36.33.6.28-.43-.15,0-.31-.14-.54.64-.11.12.7.75.8-.09,0-.26-.24-.1-.3a.79.79,0,0,1,.25.37c.41.1,0-.25.23-.33,0,.32.24,0,.44-.06l-.08.22c.4.31.29-.43.64-.1l-.29.25h.24l-.14.24c.3-.1.36,0,.55.12,0-.17.19-.39.39-.33s-.16.19.14.26c-.12.11-.26.27-.3,0,0,.07-.12.12-.16.19s.35.17.46.2a.16.16,0,0,1-.09-.09l.52-.15c0,.12-.05.16-.12.21.09,0,.19-.07.31,0-.1.17-.17.36-.37.37l.46,0c0,.09.1.3,0,.35.16.2.66-.13.88.13a.18.18,0,0,1,.14,0c.25.16.38.48.8.37l0,.39c.28,0,0-.5.41-.45s0,.32,0,.45c.21-.09.61-.29.74.1C87.17,58,87.12,57.92,87,57.91Zm3,1.37c-.08,0-.26.08-.23-.06C90,59,90,59.16,90,59.28Zm4.56,2.16c-.09,0-.12,0-.14-.15A.21.21,0,0,1,94.57,61.44Zm11.68,8.29h0C106.21,69.56,106.22,69.63,106.25,69.73Zm.13.3a.08.08,0,0,0,.08,0c-.06,0-.11,0-.14-.1S106.27,70,106.38,70ZM79.09,52.56l0,.08C79,52.67,79,52.62,79.09,52.56Z"/><path class="cls-5" d="M93.91,61.4a.5.5,0,0,1,0-.13A.1.1,0,0,0,93.91,61.4Z"/><path class="cls-5" d="M85.13,57.19h0l0,0Z"/><path class="cls-5" d="M101.71,68a.32.32,0,0,1,0-.17S101.65,67.91,101.71,68Z"/><path class="cls-5" d="M107.71,71.05l-.17-.12a.23.23,0,0,1,0,.19S107.67,71,107.71,71.05Z"/><path class="cls-5" d="M107.56,73.29s0,0,.08,0l.09-.07C107.65,73.18,107.52,73.17,107.56,73.29Z"/><path class="cls-5" d="M107.19,71.69c-.15.14,0,.19.09.27h0C107.51,71.8,107.35,71.75,107.19,71.69Z"/><path class="cls-5" d="M107.31,72a.39.39,0,0,1,.08.1C107.49,72,107.37,72,107.31,72Z"/><path class="cls-5" d="M106.73,70.24c0,.09.23-.13.18,0C107.16,70.08,106.41,70.05,106.73,70.24Z"/><polygon class="cls-5" points="106.73 72.19 106.9 71.99 106.69 72.06 106.73 72.19"/><path class="cls-5" d="M106.22,71.23l.08.21s.06,0,.1,0S106.27,71.18,106.22,71.23Z"/><path class="cls-5" d="M106.4,71.44a.25.25,0,0,0,.14.11A.4.4,0,0,0,106.4,71.44Z"/><polygon class="cls-5" points="106.49 72 106.49 71.92 106.41 71.79 106.49 72"/><path class="cls-5" d="M104.74,69.43l-.21-.13c-.08,0-.08.13,0,.17S104.7,69.52,104.74,69.43Z"/><path class="cls-5" d="M104.7,70.42c0-.08,0-.12.07-.21l-.24.2Z"/><path class="cls-5" d="M104.19,70c-.08,0-.41-.09-.2.12C104.07,70,104.28,70.16,104.19,70Z"/><polygon class="cls-5" points="102.05 67.13 102.1 67.17 102.45 66.8 102.05 67.13"/><path class="cls-5" d="M99,65.93c.12.27.25-.19.34.08.13-.05-.07-.22,0-.26C99.15,65.74,99.13,65.63,99,65.93Z"/><path class="cls-5" d="M99.36,65.75h.11A.19.19,0,0,0,99.36,65.75Z"/><polygon class="cls-5" points="68.13 50.45 67.95 50.33 68.06 50.51 68.13 50.45"/><path class="cls-5" d="M67.76,50.8l0-.33-.12.29S67.73,50.72,67.76,50.8Z"/><path class="cls-5" d="M90.11,60.1l0-.07c0-.08,0-.11-.08-.16Z"/><polygon class="cls-5" points="88.15 58.76 88.18 58.79 88.25 58.49 88.15 58.76"/><path class="cls-5" d="M86.22,58.21c.07,0,.18,0,.25.07C86.29,58.25,86.35,57.87,86.22,58.21Z"/><path class="cls-5" d="M112.21,63.57s-.19,0-.23,0S112.27,63.57,112.21,63.57Z"/><polygon class="cls-5" points="112.74 64.26 112.65 64.25 112.87 64.35 112.74 64.26"/><path class="cls-5" d="M112.76,65c.36-.08-.06-.25.06-.38l.08,0-.29,0C112.66,64.66,112.86,64.85,112.76,65Z"/><path class="cls-5" d="M112,65.35c.14,0,.12.07,0-.09l0,0A.26.26,0,0,1,112,65.35Z"/><path class="cls-5" d="M112,65.28c0-.07-.12,0,0,0Z"/><path class="cls-5" d="M112.09,65.61l-.12-.09c-.08,0-.1.1-.16.07S112,65.67,112.09,65.61Z"/><path class="cls-5" d="M112.35,65.7l0,0S112.25,65.67,112.35,65.7Z"/><path class="cls-5" d="M112.19,65.55l.11.1c.06,0,.17,0,0-.05C112.36,65.61,112.26,65.59,112.19,65.55Z"/><path class="cls-5" d="M112.24,65.48c.08,0,.13-.12.25,0C112.44,65.27,112.19,65.3,112.24,65.48Z"/><path class="cls-5" d="M113.13,65l.1-.08-.12-.06C113.17,64.88,113,65,113.13,65Z"/><path class="cls-5" d="M111.9,66.21a1.65,1.65,0,0,0,.3,0l-.08-.07C112.06,66.14,112,66.21,111.9,66.21Z"/><path class="cls-5" d="M112.2,66.17l.13.11C112.35,66.19,112.29,66.17,112.2,66.17Z"/><polygon class="cls-5" points="112.75 65.72 112.47 65.54 112.75 65.75 112.75 65.72"/><polygon class="cls-5" points="111.89 66.62 111.72 66.56 111.98 66.67 111.89 66.62"/><path class="cls-5" d="M111.92,66.89c-.15,0-.25.06-.34,0s.15.14.26.2C111.78,67,111.79,67,111.92,66.89Z"/><path class="cls-5" d="M112,67.2l-.16-.1A.64.64,0,0,0,112,67.2Z"/><path class="cls-5" d="M112.29,66.47a.33.33,0,0,0-.21.08l.21,0Z"/><path class="cls-5" d="M112.3,66.51h0v.09Z"/><path class="cls-5" d="M112.3,66.45v0S112.32,66.46,112.3,66.45Z"/><path class="cls-5" d="M112.55,66c.12.06.25.2.43.07C112.84,66,112.73,66.1,112.55,66Z"/><path class="cls-5" d="M112.56,66.41l0-.12a.46.46,0,0,1-.2,0Z"/><polygon class="cls-5" points="112.63 66.46 112.56 66.41 112.55 66.45 112.63 66.46"/><path class="cls-5" d="M112.2,67a.2.2,0,0,1,.12.16.35.35,0,0,0,.06-.19C112.32,67,112.2,66.94,112.2,67Z"/><path class="cls-5" d="M112.27,66.76h0S112.31,66.76,112.27,66.76Z"/><polygon class="cls-5" points="112.3 67.78 112.34 67.77 112.3 67.77 112.3 67.78"/><path class="cls-5" d="M112.42,67s0-.08-.07-.11a.27.27,0,0,1,0,.12S112.43,67,112.42,67Z"/><path class="cls-5" d="M112.09,67.37l.12-.08C112.15,67.31,112,67.36,112.09,67.37Z"/><path class="cls-5" d="M112.22,66.79h0S112.19,66.8,112.22,66.79Z"/><path class="cls-5" d="M112.22,66.79a.4.4,0,0,0,.13.07l-.07-.09Z"/><path class="cls-5" d="M113.66,68c-.2,0-.37-.15-.16-.26a2.28,2.28,0,0,0-1.16,0,.38.38,0,0,1,.28.13c.1,0,.26-.25.43-.14s-.07.12-.18.19c.25-.06.35.21.72.19l-.13-.14C113.52,68,113.61,68.05,113.66,68Z"/><path class="cls-5" d="M112.36,67.55l0,0a.83.83,0,0,1-.27.15.4.4,0,0,0,.23.11l0-.23Z"/><path class="cls-5" d="M112.34,67.3c.22,0,.31.15.54.09,0-.14-.18-.1-.27-.18,0,.22-.11-.07-.24.09a.2.2,0,0,1-.05-.13l-.11.12h0s0,0,0,0h0l.08,0c0,.06,0,0-.08,0h0l.11.23A.25.25,0,0,0,112.34,67.3Z"/><path class="cls-5" d="M113.44,66.19h0S113.44,66.22,113.44,66.19Z"/><path class="cls-5" d="M113.31,66.28s-.11,0-.09-.08.1,0,.17,0-.15-.11-.25,0h0a.72.72,0,0,1-.37.19A3,3,0,0,0,113.31,66.28Z"/><path class="cls-5" d="M112.89,66.8l.1.19.19-.09h-.11C113.11,66.8,113,66.82,112.89,66.8Z"/><polygon class="cls-5" points="112.19 67.8 111.96 67.76 112.28 67.88 112.19 67.8"/><polygon class="cls-5" points="112.21 68.04 112.01 68.02 112.13 68.09 112.21 68.04"/><path class="cls-5" d="M109.94,80.13l-.07,0Z"/><path class="cls-5" d="M110.48,80.27l0-.09S110.45,80.26,110.48,80.27Z"/><path class="cls-5" d="M111.82,74c-.19.07-.48.13-.26.14h.22A.09.09,0,0,1,111.82,74Z"/><path class="cls-5" d="M112.7,78.21h.06l-.19-.16Z"/><path class="cls-5" d="M113.53,78.78l-.15.07A.34.34,0,0,0,113.53,78.78Z"/><path class="cls-5" d="M107.76,79.84l-.11.2C107.75,80.06,107.73,79.94,107.76,79.84Z"/><path class="cls-5" d="M112.16,70.51a.43.43,0,0,0-.15.17C112.14,70.6,112.33,70.55,112.16,70.51Z"/><path class="cls-5" d="M110.64,77.93a.2.2,0,0,0-.08.12A.16.16,0,0,0,110.64,77.93Z"/><path class="cls-5" d="M112,70.87l0,0a.19.19,0,0,1,0-.16C111.92,70.73,111.85,70.8,112,70.87Z"/><path class="cls-5" d="M100.11,77.81s0,0,0,0S100.1,77.81,100.11,77.81Z"/><path class="cls-5" d="M98.33,75.13a.18.18,0,0,1,.1,0S98.39,75.11,98.33,75.13Z"/><path class="cls-5" d="M112.07,69s0,0,0,0Z"/><path class="cls-5" d="M112.94,68.79a.13.13,0,0,0,.1,0Z"/><path class="cls-5" d="M113.31,71.48h0S113.34,71.48,113.31,71.48Z"/><path class="cls-5" d="M112.17,68.93l-.07.06Z"/><path class="cls-5" d="M112.07,68.93l0,0S112,68.89,112.07,68.93Z"/><path class="cls-5" d="M112.08,69.07s0,0,0-.08h0Z"/><path class="cls-5" d="M104.36,78.24v0C104.29,78.29,104.31,78.28,104.36,78.24Z"/><polygon class="cls-5" points="113.94 75.53 113.93 75.52 113.92 75.53 113.94 75.53"/><path class="cls-5" d="M114.08,75.73c-.26-.11-.22-.15-.16-.2h-.63Z"/><path class="cls-5" d="M109,80l.09.22c-.23.27-.32.14-.26.43.17-.65.51,0,.68-.6l0,.16s0,0,0,0c.08.36.23-.45.42-.3a.17.17,0,0,1,0,.24,1.43,1.43,0,0,1,.21-.12c.07,0,0,.14,0,.11l.4,0v0c.07-.09.2-.23.26-.29.09.12-.05.06,0,.15l.2-.12c.09.21-.07.34-.23.28.21.75.17-.14.65.39l-.21,0c.19.45.36.34.71.67-.13-.16-.66-.78-.44-.9.07.07.17.12.26,0,.07.27.19.23.34.26l.11.35c.15-.06.07-.25.1-.39.2.08.37.38.54.63.36.14-.44-.51-.1-.49.33.2.44.09.56-.07.26.17.14.23.27.35a1.52,1.52,0,0,0-.14-.38s.08.07.11.12c-.07-.24-.27-.39-.33-.67-.3-.41.5.15.18-.49.09,0,.17.2.28.3a3,3,0,0,0-.43-1l.22-.07c-.24,0-.48-.39-.68-.64l-.27-.06-.14-.26a.69.69,0,0,1,.28.17L112.5,78a.81.81,0,0,1,.46.26l-.2,0a4.24,4.24,0,0,0,.55.44.46.46,0,0,1-.07-.14.61.61,0,0,0,.12.09s0-.06-.1-.15l.34.11-.13-.08c.09-.1.17-.2.26-.32-.31-.43-.81-.74-.92-1a2.36,2.36,0,0,0,.73.09c-.17,0-.14.09-.08.17s.14.23.1.33c0-.11.19-.06.23,0a1.31,1.31,0,0,0-.25-.4c.25,0,.19,0,.3-.11-.5,0-.3-.25-.44-.38.16,0,.33.06.28.19.39-.11-.57-.26-.23-.38,0,0,0,.05,0,.07-.14-.09,0-.28.14-.22v0c.08-.23.08-.7-.34-.78l.59.1-1.39-.55c.36.08,1.24,0,1.43.23.06,0,.12-.11,0-.24a1.36,1.36,0,0,1-.57,0,2.27,2.27,0,0,0,.59-.22c-.08,0-.65-.07-.62-.15A5.82,5.82,0,0,1,114,75l-.54-.27a1.5,1.5,0,0,0,.64,0c-.11,0,0-.19,0-.26l-.14.09c.1-.25-.77-.32-.72-.57.12,0,.71.14.79,0a5.57,5.57,0,0,1-1.56-.61l.17,0-.17-.18a13.7,13.7,0,0,1,1.64.7c.14-.08.2,0,.2-.15a.2.2,0,0,1,.23.14l.13-.32c-.34,0-.32-.28-.6-.29l.32.39c-.34,0-.93-.29-.86-.52a3.92,3.92,0,0,1,.71.1c-.11,0-.2-.23-.12-.25l.17.11c.14-.11-.43-.24-.09-.37,0,0,.44-.13.24-.15a7.87,7.87,0,0,1-1.85-.1,2.45,2.45,0,0,1,.58-.3c.31-.06.7.19,1,.14a.54.54,0,0,1-.24-.1c.08,0,.28,0,.25-.07-.34-.05,0-.25-.28-.08-.09-.13.08-.13.07-.27a1.4,1.4,0,0,1-.82-.3.94.94,0,0,0,.25,0c0-.24.21-.36.23-.58.08,0,.19-.12.33-.07-.05,0-.17-.07-.17-.14.3-.12,0,.16.4.08-.2,0-.26-.2-.38-.31-.31,0-.07.23,0,.34a1.52,1.52,0,0,1-1-.48c-.09-.2.28-.07.22-.1.09-.35-.72-.35-.4-.62a2,2,0,0,1,.73,0c.1.16-.18.22-.18.33l.14-.12c.08.05.15.16.06.21.25-.08.09-.59.32-.86-.08,0-.17-.14-.28-.1l0,.08c-.22.07-.29-.17-.4-.07-.14-.12-.38-.26-.25-.42H113c-.09,0-.19.09-.1.14-.13-.07.43-.23,0-.32l-.22.1c-.14-.12-.46-.27-.36-.41-.3,0,0,0-.32.12.44-.07,0,.36.43.24-.42.09-.18.17-.54.29.1,0,.2,0,.14.08l.09,0h0s0,0,0,0a.38.38,0,0,1,.15,0c.23.07.22.26.33.33,0,.07-.11,0-.22,0l.17.1c-.22,0-.38.17-.5,0l0,.15c-.13.08-.19.2-.1.28s.24.19.07.12l.12.25h-.06c0,.23.35.5-.08.74,0,.08.12.17,0,.3h-.19c.06.1-.22.29,0,.35-.53.07-.15.48-.26.65l.26,0a.6.6,0,0,0,.12.41h.23c.17.14-.19.32-.18.53-.09,0-.06-.07,0-.11-.53.21.32.56-.07.75.08.07,0,.1,0,.14s0,0,0,0v0l-.13.06a.44.44,0,0,0,.13,0,.34.34,0,0,0,.07.18h-.24v0c-.09,0,.11.06.3,0a.45.45,0,0,0,.13.1c-.39,0,.12.18-.3.21.2.07.12.34.54.42,0,0-.08,0-.08,0s-.11.14,0,.21h-.31l.4.19a.51.51,0,0,1-.53,0c.33.26.11.2.45.43l-.19,0c0,.07.25.21.08.23-.39.12-.13.76-.52,1.12.59,0-.28.16.17.23a.76.76,0,0,1-.34,0c.13.13-.22.06.14.24a2.51,2.51,0,0,0-.27-.1s.11.06,0,0l-.17-.08a4.66,4.66,0,0,0,.8.45c-.18,0-.16,0,.08.23-.13,0-.26-.1-.29-.21,0,0-.21.11.08.37-.07-.05,0,0,0,.09s-.06.07,0,.21l0,0c.34.45.07.19.1.33l0,0c-.14-.06-.11,0-.12,0s0,.06-.22-.16l.19.29c.34.62-.4-.41-.37-.2l.12.17c0,.18-.53-.85-.56-.92a.16.16,0,0,1,0-.11c-.19-.36.11.35,0,.41-.07-.19-.12-.47-.16-.52s0,.56-.15.2a.76.76,0,0,1,0,.37c-.11,0-.1-.53-.26-.15v-.1c-.12.08-.35.09-.46.3.1-.83-.7.24-.52-.5l-.3,0,0-.08c-.18-.09-.29.07-.4.23,0-.06,0-.12,0-.16-.24-.21-.27-.19-.6.12l0-.24c-.1.12-.31-.48-.65-.26a.24.24,0,0,1,0-.1c-.37.21-.57-.85-.89,0l-.26.17c.25.13-.13.37-.05.54-.12,0-.21-.33-.07-.34v0c.15-.45-.29-.24-.21-.55a15.6,15.6,0,0,1-1.44-.62l0,.37-.16-.06c0-.09,0-.29.12-.25,0-.21-.24.12-.26.2-.2-.2.19-.39.12-.42h-.11l0,0c-.12.13-.16.28-.3.23s0-.23,0-.26,0,0,0,0l-.21-.08,0,.3c-.12.12-.19-.06-.17.28,0-.53-.75-.37-.8-.54a.36.36,0,0,1-.47.07c0,.07,0,.4-.15.32.2-.64-.19-.34-.19-.84,0,.34-.41,0-.36.46-.1-.08.05-.24,0-.42-.34.19-.57-.31-.93-.31,0,.09,0,.23-.1.34l-.09-.47c-.07,0-.17.48-.23.15,0,.08,0,.2,0,.21-.58-.58-1.44,0-1.95-.93.06.18,0,.19-.08.18s-.05.21-.06.33l-.22-.4c-.12.31-.31,0-.4.25l.1,0c-.2.34,0,.85-.13,1.31.22-.38.22.7.57.16,0,.11-.08.14-.08.26.1-.19.18-.21.28-.09l0,0c.36,0,.47.27.83.5l0-.24c.08,0,.08.13.11.19.17-.32-.24-.07-.06-.44,0,.5.59.15.55.71.13,0,0-.28.15-.25v.16l.07-.18c.08,0,.08.24.06.36s-.07,0-.09,0c.07.2.32,0,.35.08l-.11-.12c.39,0,.78.24,1.18,0v-.11c.31-.14.18.17.49.14v0c.08-.1.17-.13.24-.1-.1.11.08.28,0,.4.33-.15.17-.14.45-.5v.19c.1-.15.12-.23.28-.24-.16.12,0,.29-.15.47.2.47.53-.29.54.32.25-.47-.2-.34-.1-.43s.2-.35.29-.27,0,.67.25.72c0,0,0,0,0,0,.06.15.21-.13.28.11.13-.29.14,0,.24-.33l-.24,0c.15-.07.37-.49.53-.22a.72.72,0,0,1-.18.21c0,.13.14,0,.17.08-.1.38-.28,0-.49.28,0,.18.32-.21.16.19.22-.51.22.12.48-.24l-.07.22s.12-.12.16-.11l-.15.28c.19-.22.2.29.36.18-.27-.06,0-.29-.07-.49.4-.23,0,.65.44.63-.06,0-.15-.18,0-.27a.5.5,0,0,1,.14.3c.26,0,0-.24.16-.36,0,.3.14-.09.27-.15l-.05.24c.24.21.19-.48.39-.23l-.18.3.15-.06-.09.26c.19-.16.22-.1.34,0,0-.17.12-.42.24-.4s-.09.21.09.22c-.08.14-.16.31-.19.08a2,2,0,0,1-.1.21c0,.18.22.09.28.1a.08.08,0,0,1,0-.07l.33-.26a.24.24,0,0,1-.08.22c.06,0,.12-.11.2-.11-.07.18-.11.38-.24.44l.29-.15c0,.09.07.26,0,.32.11.14.42-.29.56-.1a.12.12,0,0,1,.09-.08c.15.08.24.35.5.13l0,.37c.18,0,0-.46.24-.53s0,.31,0,.42c.13-.15.38-.47.47-.15C109.08,80,109.05,80,109,80Zm2.41.42s-.14.17-.21,0S111.29,80.28,111.4,80.39Zm1.77-2.29c.08.06,0,.11-.06.13A.1.1,0,0,1,113.17,78.1Zm-.94-8.53h0C112.15,69.66,112.18,69.63,112.23,69.57Zm.12-.16a.18.18,0,0,0-.1,0c.06,0,.06.06,0,.1S112.4,69.46,112.35,69.41Zm-8.16,7.12,0,.07C104.12,76.65,104.16,76.59,104.19,76.53Z"/><path class="cls-5" d="M113.44,78.71l-.13,0S113.39,78.73,113.44,78.71Z"/><polygon class="cls-5" points="107.78 79.8 107.78 79.8 107.76 79.84 107.78 79.8"/><path class="cls-5" d="M114.21,72.26a.38.38,0,0,1-.13.06S114.19,72.31,114.21,72.26Z"/><path class="cls-5" d="M112,68.47l.06.11s0-.07.08-.09S112,68.5,112,68.47Z"/><path class="cls-5" d="M113.51,67.56s0,0,0,0h-.11A.08.08,0,0,0,113.51,67.56Z"/><path class="cls-5" d="M112.79,68.4c.2,0,.14-.07.1-.15h0C112.61,68.23,112.7,68.31,112.79,68.4Z"/><path class="cls-5" d="M112.89,68.23a.09.09,0,0,1,0-.07C112.77,68.14,112.86,68.19,112.89,68.23Z"/><path class="cls-5" d="M112.23,69.18s-.26,0-.18-.06C111.8,69.07,112.35,69.39,112.23,69.18Z"/><polygon class="cls-5" points="113.46 68.37 113.21 68.38 113.41 68.44 113.46 68.37"/><path class="cls-5" d="M113.25,69l.07-.12a.1.1,0,0,1-.08,0C113.23,68.9,113.17,69,113.25,69Z"/><path class="cls-5" d="M113.24,68.82a.08.08,0,0,0,0-.1A.19.19,0,0,0,113.24,68.82Z"/><polygon class="cls-5" points="113.53 68.54 113.47 68.58 113.45 68.66 113.53 68.54"/><path class="cls-5" d="M113.12,70.32l.07.15c.08,0,.14,0,.1-.07S113.21,70.31,113.12,70.32Z"/><path class="cls-5" d="M113.83,70s-.11,0-.19,0l.31,0Z"/><path class="cls-5" d="M113.88,70.36c.09,0,.24.21.23,0S114,70.24,113.88,70.36Z"/><polygon class="cls-5" points="113.34 72.4 113.34 72.37 112.83 72.33 113.34 72.4"/><path class="cls-5" d="M114.4,74.33c.13-.15-.31-.07-.15-.2-.11,0-.13.11-.23.06C114.14,74.3,114.06,74.35,114.4,74.33Z"/><path class="cls-5" d="M114,74.19l-.07-.06A.13.13,0,0,0,114,74.19Z"/><polygon class="cls-5" points="98.02 74.77 97.94 74.64 97.97 74.83 98.02 74.77"/><path class="cls-5" d="M97.74,75.09l.05-.32-.13.27S97.74,75,97.74,75.09Z"/><path class="cls-5" d="M112.07,81.22l0-.09c0-.1-.1-.11-.19-.15Z"/><polygon class="cls-5" points="109.74 80.41 109.76 80.42 109.78 80.12 109.74 80.41"/><path class="cls-5" d="M108.49,80.49c.05,0,.12,0,.16,0C108.54,80.51,108.57,80.13,108.49,80.49Z"/></svg>