<svg id="Capa_1" data-name="Capa 1" xmlns="http://www.w3.org/2000/svg" viewBox="0 0 670.78 87.63"><defs><style>.cls-1{fill:#5da6bc;}</style></defs><path class="cls-1" d="M362.74,22.84c22.73.53,11.4.12,34.43.94.83-3.54.68-6.73-4.33-9-7-4.58-31.64-.31-45.69-1.78C308.46,7,266.21,9.15,227.34,5.83c-28.29-2.14-56.45.47-84.51,3.42-9.63,1.25-19.5,2-29.4,2.5s-19.8.86-29.48,1.34c-19.36.92-37.82,2.27-53.32,6.53C3.12,27.85,15.86,47.84,44.28,53.07c.14,1.49.41,4.47.55,6-28-.76-12.72,13-15.46,20.76,13.76-1.14,27.71-.67,41.85,2.8L85,81.65c40.37-2.74,79.55-5.48,118.56-7.28s77.81-2.7,117.32-1.52c-50.89-2.57-98.68-2.78-149.53.93-.3.86-.06,1.51,3.16,1.37-3.22.14-3.46-.51-3.16-1.37l-.37,0,.37,0c.33-1,151.61-2.38,151.62-.87,9.11.3,18.26.64,27.46,1.19s18.44,1.13,27.73,1.93c7.73.06,14.41-2.7,20-6.13-3.81-.81-6.66-6.61-35.86-7.75l-12.12-.79c34.68,2.61,17.09-1,48.18,4l5.06,1c2.24-1.68,4.25-3.37,6.05-4.86,7.05-7.37,10.82-17.79-3-25.48L396,35.82c-1.33-3-.49-6.15.38-9.19C373.79,24.75,362.74,22.84,362.74,22.84Z"/></svg>