<svg id="Capa_1" data-name="Capa 1" xmlns="http://www.w3.org/2000/svg" viewBox="0 0 25.51 25.51"><defs><style>.cls-1{fill:#536472;}</style></defs><path class="cls-1" d="M17.17,23.22H8.34a6.06,6.06,0,0,1-6.06-6.06V8.35A6.06,6.06,0,0,1,8.34,2.29h8.83a6.06,6.06,0,0,1,6.06,6.06v8.83A6.06,6.06,0,0,1,17.17,23.22ZM8.34,4.41A3.93,3.93,0,0,0,4.4,8.35v8.83a3.93,3.93,0,0,0,3.94,3.94h8.83a3.93,3.93,0,0,0,3.94-3.94h0V8.35a3.93,3.93,0,0,0-3.94-3.94H8.34Z"/><path class="cls-1" d="M12.76,18.06a5.3,5.3,0,1,1,5.29-5.3A5.29,5.29,0,0,1,12.76,18.06Zm0-8.83a3.54,3.54,0,1,0,3.53,3.53,3.53,3.53,0,0,0-3.53-3.53Z"/><circle class="cls-1" cx="18.15" cy="7.21" r="1.24"/></svg>