<svg id="Capa_1" data-name="Capa 1" xmlns="http://www.w3.org/2000/svg" viewBox="0 0 377.21 152.38"><defs><style>.cls-1{fill:#62a7bc;}.cls-2{font-size:21px;fill:#fff;font-family:PatrickHand-Regular, Patrick Hand;}</style></defs><path class="cls-1" d="M58.53,20.22c-47.87-9.66-45.06,62.17-38.86,86.51,2.12,8.31,5.91,17.26,14.4,21,4.52,2,9.74,2.25,14.79,2.44,81.87,3.07,164,6.14,245.63-.54,25.34-2.07,53.87-6.85,67.64-26.09,14.06-19.66,12-61.9-8.59-77.92-10.24-8-23.64-8.58-36.5-9.19-44.27-2.07-88.56-4-132.83-5.89C143.15,8.79,99.33,3,60.73,19.25"/><path class="cls-1" d="M64.81,26.52c-1.15.3-.21,1.46-.27,1.76C66.23,27.3,64.62,26.19,64.81,26.52Z"/><path class="cls-1" d="M82.67,17.5l-.21.65c.84-.71,1.7-1.41,2.58-2C84.24,16.53,83.45,17,82.67,17.5Z"/><path class="cls-1" d="M101.31,14.43c-2.09-2.3-6.78,1.27-10.23.91l-.64-.44L89.3,17.1c2-.58,4.22-1.27,6.36-1.87,1.07-.29,2.11-.55,3.07-.72A9.53,9.53,0,0,1,101.31,14.43Z"/><path class="cls-1" d="M111.73,18.82c-.67-.91,2.1-.95-2.33-.15a2.88,2.88,0,0,1,.43.21A17.07,17.07,0,0,1,111.73,18.82Z"/><path class="cls-1" d="M109.83,18.88c-2,.19,1.33.71,0,0Z"/><path class="cls-1" d="M118.9,17.91l-2.58.93c.57.53,2.87.59,2,1C121,19.31,120.44,18.78,118.9,17.91Z"/><path class="cls-1" d="M121.33,16.07l-1.35.4C120.23,16.7,120.59,16.77,121.33,16.07Z"/><path class="cls-1" d="M117.13,17.31l2.85-.84c-.39-.38-.45-1.16-1.31.31C118.88,16.06,118.33,16.77,117.13,17.31Z"/><path class="cls-1" d="M115.49,17c-1.49-.49-3.41-.69-.81-1.67-2.51.29-3.54.89-3.33,1.3S113,17.23,115.49,17Z"/><path class="cls-1" d="M102,11.84l-2.08-.5c-.54.33-1.09.65-1.62,1C99.13,11.82,102.22,12.59,102,11.84Z"/><path class="cls-1" d="M135.23,19.15c.18-.51-.85-1.39-1-2l-2,.56C133.23,18,135.12,18.39,135.23,19.15Z"/><path class="cls-1" d="M134.19,17.1l2.95-.83C134.52,16.12,134,16.53,134.19,17.1Z"/><path class="cls-1" d="M121.76,13.38l-4.75,2c1.88-.67,3.76-1.4,5.68-2Z"/><polygon class="cls-1" points="146.41 19.6 144.69 20.71 147.74 19.05 146.41 19.6"/><path class="cls-1" d="M153.9,19.75c-1.3.92,1.61,1.76.26,2.3a15.43,15.43,0,0,0,5.45-1.49A9.62,9.62,0,0,1,153.9,19.75Z"/><path class="cls-1" d="M162.32,19.6a17.09,17.09,0,0,0-2.71,1A9.39,9.39,0,0,0,162.32,19.6Z"/><path class="cls-1" d="M142.15,16.7a3.16,3.16,0,0,0,2.25,1.55l-1.1-1.49Z"/><path class="cls-1" d="M143.26,16.72l0,0c1.26.07,2.13.15,2.51.18Z"/><path class="cls-1" d="M141.85,16.68l.3,0C142,16.56,142,16.51,141.85,16.68Z"/><path class="cls-1" d="M129.46,14.65c1.73-.77,5.37-1.58,1.88-2.87C130.08,12.75,132.08,13.48,129.46,14.65Z"/><path class="cls-1" d="M140.48,14.83l-3.13-.44c.05.38.6,1-.27,1.33Z"/><polygon class="cls-1" points="142.03 14.42 140.48 14.83 141.64 14.99 142.03 14.42"/><path class="cls-1" d="M157,18a12.34,12.34,0,0,1,4.59-.54,34,34,0,0,0-5.42-.73C155.87,17.12,155.05,17.89,157,18Z"/><path class="cls-1" d="M150.31,17.19c.1,0,.22,0,.31-.06C150.44,17,150.29,17,150.31,17.19Z"/><path class="cls-1" d="M178.29,18.35c-.09-.08-.16-.18-.26-.27,0,.08,0,.16-.07.25Z"/><path class="cls-1" d="M155.86,16.39a3.78,3.78,0,0,0-3,.36,24.79,24.79,0,0,1,3.26-.07C156.27,16.48,156.3,16.35,155.86,16.39Z"/><path class="cls-1" d="M167,19.19a22,22,0,0,0-2.32-.93C165.36,18.76,166.73,19.55,167,19.19Z"/><path class="cls-1" d="M151.05,17.55l-.2.05C151.27,17.93,151.23,17.78,151.05,17.55Z"/><path class="cls-1" d="M151.05,17.55a8.58,8.58,0,0,0,1.84-.8,12.2,12.2,0,0,0-2.27.38A1.91,1.91,0,0,1,151.05,17.55Z"/><path class="cls-1" d="M183.8,9.32c-.29,1.33-4,2.39-7,.8-3.1.84-1.36,5.37,1.2,8,.13-.58.16-1.12,3.36-1.76-1.08-.79-6.92-2.05-4.2-3.13,4.21-.49,3.4.64,5.39,1.44-1.64-1.74,5.41-2.18,4.6-4.68l-3.68.7C183.45,10.26,184.8,9.72,183.8,9.32Z"/><path class="cls-1" d="M172,17.62l-1.3.09a13.52,13.52,0,0,1,4.38,2.07c2.2-.54,2.68-1,2.85-1.45l-6.38-.53Z"/><path class="cls-1" d="M164.93,17.39c1.09-1.4,4.22-1.84,2.41-3.53-3.79-.12-2.72,1.07-5,1.57,6.12,0-1.8.71,2.56,1.79a21.82,21.82,0,0,1-3.32.19c1.09.24,2.14.53,3.12.85l-.13-.1h0v0c-.25-.19-.33-.31,0-.19l.13,0a1.42,1.42,0,0,1,.31-.53c1.75.4.25.39-.31.53a1.89,1.89,0,0,0-.09.21l0,0,6.17-.45A30.26,30.26,0,0,0,164.93,17.39Z"/><path class="cls-1" d="M134.64,8.7a.36.36,0,0,1,.19.34C135.23,8.87,135.39,8.75,134.64,8.7Z"/><path class="cls-1" d="M137.14,9.62a2.93,2.93,0,0,1-2.27.6c-1.24-.46,0-.7,0-1.18-.88.37-3.06,1-.35,1.75l.44-.19c2.44.52,5.53,2.48,5.09,2.66A9.86,9.86,0,0,0,137.14,9.62Z"/><path class="cls-1" d="M151.25,13l5.11-.45-2.52-1.4.09.76C151.06,11.5,151.63,12.48,151.25,13Z"/><polygon class="cls-1" points="178.84 19.11 178.08 20.61 181.17 18.59 178.84 19.11"/><polygon class="cls-1" points="185.53 19.24 185.22 20.57 187.01 19.84 185.53 19.24"/><path class="cls-1" d="M249.54,140.48l-1.5.44A6.8,6.8,0,0,0,249.54,140.48Z"/><path class="cls-1" d="M260.46,140.06l.23-.68C260.2,139.77,260,140.05,260.46,140.06Z"/><path class="cls-1" d="M344.12,29.68c.22.47.43,1,.61,1.45s.31.95.44,1.29c.27.69.51,1,.86.3.14-.5.27-1,.39-1.48a5,5,0,0,1-1.35-.7A4,4,0,0,1,344.12,29.68Z"/><path class="cls-1" d="M347.13,117.16l.78.06c.21-.7.4-1.35.55-1.94C348.07,115.85,347.62,116.49,347.13,117.16Z"/><path class="cls-1" d="M348.67,123.3c-1.08.21-2.17.37-3.23.55A13.11,13.11,0,0,0,348.67,123.3Z"/><path class="cls-1" d="M189.94,143.26l-1.76,1.5C190.94,144.74,189.73,144,189.94,143.26Z"/><path class="cls-1" d="M253.4,21.71a19.32,19.32,0,0,0,4.65,1.1C255.82,21.86,254.05,20.52,253.4,21.71Z"/><path class="cls-1" d="M253.13,124.7c-.9.31-1.28.62-1.24,1C252.82,125.36,253.34,125.05,253.13,124.7Z"/><path class="cls-1" d="M263.49,23c-.32-.16-.65-.25-1-.39a18,18,0,0,1-4.46.16A6.3,6.3,0,0,0,263.49,23Z"/><path class="cls-1" d="M7.91,74.5c.07-.16.1-.36.18-.51C7.89,73.94,7.88,74.16,7.91,74.5Z"/><path class="cls-1" d="M42.62,27c-.21.12-.51.2-.81.35l-.94.48a2.36,2.36,0,0,0,.67-.25l.47-.27C42.19,27.2,42.39,27.11,42.62,27Z"/><path class="cls-1" d="M212.15,21.07c-1.41,0-.23.15,0,0Z"/><path class="cls-1" d="M205.58,15a1,1,0,0,0,.59-.69A1.21,1.21,0,0,1,205.58,15Z"/><path class="cls-1" d="M277.9,14.53H278C277.62,14.23,277.69,14.29,277.9,14.53Z"/><path class="cls-1" d="M210.07,20.3a9.88,9.88,0,0,0,1.78.52A12,12,0,0,0,210.07,20.3Z"/><path class="cls-1" d="M210.32,21l-1.22-.2C208.91,21.05,209.06,21.21,210.32,21Z"/><path class="cls-1" d="M214.11,21.07a12.41,12.41,0,0,1-2.26-.25c.27.11.38.2.3.25C212.57,21.06,213.15,21.06,214.11,21.07Z"/><path class="cls-1" d="M90,136.16a2.63,2.63,0,0,1-.3-.14C88.24,136.58,88.87,136.5,90,136.16Z"/><path class="cls-1" d="M375.27,49.15c0-.07-.08-.09-.11-.15s0,.16,0,.23Z"/><path class="cls-1" d="M377.57,54.35a7.21,7.21,0,0,1-2-2.61,8.2,8.2,0,0,1-.39-2.51c-1.22,1-2.41,1.87-3.67,2.76C373.51,52.69,375.58,53.47,377.57,54.35Z"/><path class="cls-1" d="M223.41,141.72,227,143c-4.26,2.27-7.4,1.6-4,3.37.4-4.61,13.89-.79,14.24-5.45l2.39.88c-.68,0-.78.26-1.44.24,4.65,2,3.28-3.45,9.19-3,2.06.29,3.52.86,2.15,1.48l4.52-1.35c1.33,0,1.05.84-.28.81l7-.69,0,.13a32.32,32.32,0,0,1,4.23-2.52c1.8.55-.87.54-.38,1.09l3.79-1.35c1.64,1.1-1.49,2.44-4.17,2.43,3.87,4.37,3.14-1.35,11.08.86l-3.61.81c2.51,2.45,5.31,1.36,9.56,2.7-1.05-.76-8.55-3.58-4.42-5a7,7,0,0,0,5-.75c.13,1.63,2.31,1.07,5.07.77l0,2.18c2.94-.85,2.62-1.93,4.31-3,3.34,0,4.16,1.6,5.08,2.93,5.47-.14-4-2.35,2.41-3.33,4.57.41,7.7-.8,12.91-2.85,3.27.27-.36,1.39.86,1.84l2.55-2.13c.7-.08.56.49.49.77,2.26-1.08-.15-2.17,3.42-3.4.28-1.24,2.3-.79,4.82-.46a14.9,14.9,0,0,0,3.95,0,5.76,5.76,0,0,0,3.5-1.66c1.29.26-.18,1.44.4,2.15l3.3-2c.8-.53,1.38-.92,1.91-1.32a27.86,27.86,0,0,0,4-3.72l2.38-.22c.8-.09,1.58-.24,2.39-.36-1.89,0-2-.9-1.42-2.18a43.88,43.88,0,0,1,3.11-4.51c-1.36-.1-2.5-.25-3.23-.28a26.65,26.65,0,0,0,2.13-1.83c.68-.64,1.38-1.24,2-1.88.71-.09.73.89.4,2.11a5.81,5.81,0,0,0,.58-1c2.06-.47,2,1.13,1.37,3-.85,0-1.69,0-2.5-.09-.55,1.85-1.07,3.84-.21,4.8a5.93,5.93,0,0,1,1.44-1.51c-.16.5-.22.91.05,1s.61-.64,1.18-1.62c.82.46,1.64.91,2.49,1.34l-.23-1,3.82-1.74c1.28-.61,2.49-1.37,3.75-2.08a28.26,28.26,0,0,0,1.86-4.52c.25-.77.54-1.5.74-2.3l.64-2.43c.23-.78.46-1.59.7-2.44s.47-1.71.7-2.6c.45-1.78,1-3.62,1.59-5.67.77,2.67,2.45,1.63,4.33,2.57a3.82,3.82,0,0,0-1.71,1.71,21.71,21.71,0,0,0-1.06,2.73,25.71,25.71,0,0,1-1.25,3.26,13.29,13.29,0,0,1-2.11,3c1.79-1.87,2.25-.84,2.09-.08l1-2.09.86-2.2a43.48,43.48,0,0,0,1.3-4.38c.72.48,1.22.2,1.75-.42s1-1.62,1.81-2.56c-1.9.16-1.8-1.56-1.31-3.73s1.27-4.89,1.1-6.65c1.13,0,2.2,1.13.71,5.15,1.91-1.89,1.33-3.68.63-5.34a10.79,10.79,0,0,1-.83-2.5,3.83,3.83,0,0,1,.74-2.74c-.11,1-.37,1.49.12,2a8.25,8.25,0,0,1-.09-2.27,18.71,18.71,0,0,1,.41-2.47c.38-1.51.9-2.56,1.34-1.85,0,.34,0,.67-.08,1a44.78,44.78,0,0,0,.12-12.79c-.62-4.34-2-7.82-3.52-8.06a14.23,14.23,0,0,1,4.19.66,68,68,0,0,0-11.89-9.06c1.33.1,3.13-1.15,4.94-1.92s3.72-1,5.13,1.6a11.37,11.37,0,0,0-.41-2.89,12.61,12.61,0,0,0-1.87-3.88c.06,1.22-2.45,3.78-3.15,2.48a12.52,12.52,0,0,0,.63-4.07c0-.91-.16-1.86-.28-4.76.17.89-.85,1.32-2,1.28A3.58,3.58,0,0,1,365,35.48c.71.06,3.2-2.13,4-1.46-1.13-.67-2.25-1.3-3.37-1.88s-2.26-1.12-3.44-1.56c1.53.85,2.8-1.66,2.65-3.61,0,.26-.29.09-.66-.33s-.94-1.05-1.54-1.77A17.93,17.93,0,0,0,359,21.39a26.65,26.65,0,0,1,1.62,2.69,8.46,8.46,0,0,0-3.88-2.65,10.3,10.3,0,0,0-3.58-.27,28.2,28.2,0,0,1-3.47.17,9.35,9.35,0,0,1-1.88-.29,10,10,0,0,1-2.15-.76,4.47,4.47,0,0,0,1.94-2.18,2.43,2.43,0,0,0-1.42-3.31c-.59.3-1.54.81-2.69,1.51l-3.88,2.3c-2.81,1.64-5.79,3.34-8.65,3.73L330,21.09c-1.49.25-3,.54-4.48.85A41.41,41.41,0,0,1,333,16.76a33.41,33.41,0,0,1,9.62-3.65,6.18,6.18,0,0,1-1.7-1.46c-.32-.3-.85-.51-2.95-.91-1.3-1.33,2.62-1.11,3.94-.78a79.37,79.37,0,0,0-9.81-2.5c.08,1.17-1.84,1.49-3.67,1.86S324.84,10,325,11a96.06,96.06,0,0,1,10.43-1.24c0,1.16-1.75,2.5-4.19,3.5a18.31,18.31,0,0,1-8.72,1.3c-1.56-1,1.44-4,1.36-4.74-.91.71-6.1,1.17-6.64.59l2.72-1.09c-3.46-1-5.82,2.76-9.9.4-1.43-.21-4.16-3.12-4.47-1.78,2.22,2.7,2.31,10.75.65,12.63-.49-.2-7.44-2.82-9-4.18-2.28-2.14,3.79-4.69,1.85-6.53-.12.62-1.46,1.33-2,1.55-1.49-.6.71-1.9-2.59-1.76-.65,2.28-6.67-.49-1.64,1.88-3.25.52-3.4-.63-7.18-.69,1.14,1.54-3.62,4.92-6.87,5.43.22-.57-.47-1.37-.81-1.73-6.58-.5-10.07-1.71-16.21-2-.54-.58-3.48-1.39-2.17-2.33a7.16,7.16,0,0,1-3.65,1.09c-3.58-2.16,4.24-.13,1.55-2.65-.29,1.33-5,1.64-7.72,2.35.74,2.11,6.22.68,9,0-.11,2.86-5,5.64-11.44,6.67-5.14.49-2.13-1.94-3-1.57-9.57-.93-8.4,4.62-16.27,2.21-3.07-2,0-3.63-.62-5,4.19-.51,6.33,1.44,9.16,1.49l-3.43-1a9.46,9.46,0,0,1,5.63-.28c-2.57-1.76-16.18-1-23.52-2.87-1.34.55-3.63,1.08-2.59,1.86l2.35-.15c2.09,1.56-4.5,1.83-1.56,2.65-3.19.89-6.78,2.35-11.16,1.33l-.74-2.11c.06.61,2.83,1.36,4.1.78-1.88.84-6.65-3.11-8.79-.48l3,1.58c-3.19.9-7.19,2.93-11.08,2.1,1.7,2.13.92-.19,3.6,2.33-2.29-3.09,10,.57,6.27-2.74,2.74,2.91,4.89,1.4,8.52,3.94-.08-.69-1.26-1.37,2-.89a3.61,3.61,0,0,1,.75-.57l.22.06-.18-.08c.15-.1.16-.12-.07,0a3.77,3.77,0,0,1-1.63-1.11c1.71-1.5,6.93-1.22,8.74-1.95,1.93.41-.85.75.18,1.52l2.7-1.1c.19,1.54,5.07,2.76.43,3.45l4.13.25c2.4,1,5.74,1.45,7.83.9,1.94.41,5-1.47,3.25-.35l6.53-.65.05.38c6.39.47,13.29-1.93,20.48,1.13a24,24,0,0,1,8-.06l.64,1.34c2.79-.33,8.25,1.69,9.5.37,2.82,3.67,13.39,1.37,18.23,2.21l.26-1.71a54.39,54.39,0,0,0,10.77-.6l-.18-1.53c3.62-1.07,9.26,1.45,14.66,1.66-.4.55-1.77.31-2.74-.1,3.2,1.9,6.51,1.53,9.75,1.24S337.86,25,340,27a3.2,3.2,0,0,1,1.7.23,3.36,3.36,0,0,1,1.15.84.7.7,0,0,0-.31-.05,3.16,3.16,0,0,0,.45.22c.38.48.79.94,1.18,1.44a4.15,4.15,0,0,0-.93-1.33c.44.18,1,.35,1.62.58s1.31.4,2,.63c-.12.56-.24,1.13-.38,1.68l.29.12c.68,1.22,1.3,0,1.41-1.46a8.93,8.93,0,0,0,2.1.32,1.58,1.58,0,0,0,.19,1.49,6,6,0,0,0,1.11.84,3.33,3.33,0,0,1,1.12,1,2,2,0,0,1,.06,1.74,2.43,2.43,0,0,1,1.58.69c.31.24.65.49,1,.79l1,1c1.42,1.29,2.89,2.66,4.35,2.39-.3.22-.24.72-.67,0,.14.43.28.87.43,1.29a13.31,13.31,0,0,0,.46,1.25,6.35,6.35,0,0,0,1.48,2.12l-1.63,1.48A47.89,47.89,0,0,1,364.65,49a4.82,4.82,0,0,1-.95,2.71c-.46.39-1.09.18-2.19-.7a16.74,16.74,0,0,1,2.87,4.48c.23.49.42,1,.78,1.6s.87,1.41,1.64,2.58l-1.36-.05c.34,1.71,2.38,4.42,1.34,5.59-1.14,2.08-1,7-1.65,12.54a47.29,47.29,0,0,1-1.7,8.49,23.34,23.34,0,0,1-3.51,7.16c2.18-.07,1.34.8.26,1.82a8.24,8.24,0,0,0-1.47,1.5.93.93,0,0,0,.24,1.44c-1.06,0-2.16.71-2.1-.89-.71,2.09-2.23,3.18-3.25,4.26a8.18,8.18,0,0,0-1.5,1.62,5,5,0,0,0-.51,1.06,5.56,5.56,0,0,0-.18.65,6.49,6.49,0,0,0-.18.7c-1-.36-.15-1.65-.89-1.76-.14.37-.58,1.54-1.3,1.42s0-1,.27-1.78a6.55,6.55,0,0,0-1.7,2.19,4.2,4.2,0,0,0-.52,2,8.91,8.91,0,0,0,1.19,3.83,7.31,7.31,0,0,0-3.16,1,5.47,5.47,0,0,0-1.63,2.62c-1.28-.37-3-.5-.3-2.25-.39.22-1.29.51-2.34.93l-1.68.68-1.83.69c-2.38,1-4.61,2-4.35,3a2.28,2.28,0,0,0-1.58.29,5.57,5.57,0,0,0-1.37.77c-2.06.54-3.18.81-4.32,1s-2.23.55-4.27,1.09c.41,0,.82.08,1.22.1a2.49,2.49,0,0,1-2.48,1.87,19.47,19.47,0,0,0-4.17.38l.05-.28c-4-.22-4.85,0-5.65.39s-1.61.61-5.61,0l.61,1.56c-.15,1.79-2,1.49-4.26.93s-5.07-1.37-7.3-.5l1.73.78c-2.4,1.42-7.39-4.21-9.91-4.45-.57-.26.83-.55,1.57-.83-6.71-1.57-.69,2.19-5.56,3-1-1.08,1-3-2.35-3-1.69-.81-9.33,4.3-14,2.38,1.05.83,2.08,1.65-.16,2.45-3.49.52-9.63-2.88-12.65.06-.46-.22-.64-.44-.67-.66-2.64.87-8.65,1.54-10.21,3.11-1.34-2.76-5.47-1.92-9.3-1.06s-7.34,1.7-7.37-.89l-8.24.47.2-.53c-5.27-.27-7.11,1-8.95,2.26-1.23-.33-.34-.83-.25-1.1-7.71-.92-8.47-.75-14.93,1.87l-.67-1.68c-1.76,1-11.14-2.62-18.71-.7a1.3,1.3,0,0,1,.84-.75c-8.54,1.91-20.29-4.87-23.51,1.17l-5.65,1.41c7.27.6-1.13,2.63,1.85,3.7-2.88.31-7.37-2-3.85-2.23l.55.32c1.35-3.15-9-1.32-8.78-3.49-14.31-.16-28.2-2.37-41.6-2.94l1.46,2.53-4.67-.3c-1.21-.62-1.58-2,1.75-1.78-1.71-1.46-5.64,1-5.75,1.52-6.5-1.23,2.65-2.8.65-2.93l-2.73.09.61.31c-2.24.94-2.48,2-6.48,1.74-2.52-.59-1.25-1.58-2.25-1.71,0-.17-.32-.27-1.53-.13l-5.88-.42,2.28,2c-2.65.87-5.54-.3-2.9,2-1.93-1.78-7.42-2.29-12.72-2.5l-7.34-.21a11.48,11.48,0,0,1-4-.57,10.57,10.57,0,0,1-9.47-1.34,1.38,1.38,0,0,1-.12,1.56,1,1,0,0,1-.95.29,3.23,3.23,0,0,1-1.66-.88,2.09,2.09,0,0,0,1-2.08,6.44,6.44,0,0,0-1.06-2.09c-1-1.48-2.18-3.56-1.31-5.44-.39,1.47-1.64-.27-2.69-2.24s-2-3.9-2.87-1.49c-.59-2.94,1.53-.71,1.9-3.13-1.84-3.06-2.35-7.06-2.54-11.31s0-8.75-.55-13.24c-.6-.12-1.44,1.46-2.42-.46.9-1.66,1.88-3.29,2.83-4.89-.28-1.75-3.48-1.65-1.34-4.9-.51.44-1.29,1.13-1.44-.09.83-4.46,1.36-8.91,2-13.33a95,95,0,0,1,2.55-13,31.68,31.68,0,0,1,5.53-11.36,8.24,8.24,0,0,1,1-1.12l1.06-1A24.68,24.68,0,0,1,35.56,31a23.34,23.34,0,0,1,2.52-1.14l1.33-.31a5.12,5.12,0,0,1,1.31-.2,6.09,6.09,0,0,1-1.06-.21c-.19-.08-.23-.2-.17-.35.12-.33.73-.63,1.38-.94-1,.14-.6-1.34-1.11-2,.58,0,1.14-.13,1.7-.15l1.7.06a20,20,0,0,1,3.28.43,1.73,1.73,0,0,1,.52-.76,2.58,2.58,0,0,1,.92-.41,12.26,12.26,0,0,1,2.45-.3c1.76.11,3.43.08,3.94-.85a20.65,20.65,0,0,0-2.25.22c1.54-1.19.69-2.64-.78-4.21-.37-.39-.76-.8-1.16-1.2s-.78-.73-1.13-1.1a3.24,3.24,0,0,1-1.11-2.34,4,4,0,0,1-1.62.75,9.27,9.27,0,0,1-1.89.26,21.06,21.06,0,0,1-2.18-.1c-.76,0-1.57,0-2.41,0-.42,0-.86,0-1.29.06a5.67,5.67,0,0,0-1.3.19,15,15,0,0,0-2.56.83l-.62.29a5.72,5.72,0,0,0-.57.39,10,10,0,0,0-1.07.9,6.64,6.64,0,0,0-1.65,2.39c-1.65.47.45-1.68-.66-1.76a7.22,7.22,0,0,1-1.76,3.05A14.9,14.9,0,0,1,26.78,24c-.58.55-1.33,1.09-2.05,1.78l0-.57a82,82,0,0,0-7.6,11.34,62.12,62.12,0,0,0-5.69,13.06l1.76-.5a12.54,12.54,0,0,1-2,3.92c.94,1.64,1.27-.09,1.71-1.83s1-3.48,1.95-1.91c-1,.61-1.67,2-2.26,3.78A26.47,26.47,0,0,0,12,56c-.21,1-.38,2.07-.51,3.12-.63,4.2-1,8.23-2.87,9.26-.2,3.82,1.88-1,1.72,2.76l-1,1,1.27,1c-.25,2.46-1.48,3.72-2.34,3.82a11.87,11.87,0,0,0-.31-2.38c-1.25,3.27.57,9.16.27,10.27.15-1.23.27-2.46.45-3.68.65,5.16,1,10.87,1.86,16.56a66.74,66.74,0,0,0,1.76,8.43,34.34,34.34,0,0,0,3.2,7.75c.15-.34.29-.68.46-1A31.9,31.9,0,0,1,19,119.64a16.15,16.15,0,0,0,1.21,2.92,17.2,17.2,0,0,0,3.4,4.33l-.38-.14c1.91,1,4.09,2.43,6.37,3.9-1.3-.29-.55.71.24,1.66s1.6,1.81-.25,1.43A19.36,19.36,0,0,0,34.86,135a5.17,5.17,0,0,0,2-.14c.43-.13.76-.34,1.39-.61s1.53-.62,3-1.14c.38.47.76.93,1.16,1.39,2-1,2.21-1.54,6.26-1.7-3.35,1,2.5,2-1.27,3.29,8.31,3.07,12.55-2.3,16.26,1.86,4-3.33-7.18-2.2-5-2.87-1.76-1.2,3.27-2.47,5.89-2,2.67.18,4.38,4.61,11.12,4.79-.67,0-.72.22-1.39.18,2.49,1,5-1,8,.53,1.81-2,4,.26,4.61-2.4l-6.2.4c3.52-.58,6.92-3.6,12.63-1.88a10,10,0,0,1-3.4,1.53c1.66.85,3.27-.41,5,.46-.59,2.67-7.53.33-11.35,2.24,1.77,1.2,7.16-1.69,5.18,1.15,2.83-3.6,6.62.69,11.28-2l-.35,1.6a10.21,10.21,0,0,1,3.58-.86l-2.48,2c3.76-1.66,7.08,1.79,10.66.92-7.43-.17-1.61-2-4.71-3.25,9.22-1.87,5.14,4.35,15.43,3.88-1.4.18-5.19-1.12-3-1.8,1.94.39,4.51,1.08,5.68,1.95,6.82-.17-1-1.67,1.92-2.59,2.27,2,3.36-.72,6.35-1.28v1.64c7.72,1.22,2.13-3.35,9.07-1.94l-3,2.21,3.65-.52-.79,1.85c4-1.31,5.21-.93,9.08-.34-.88-1.17.56-3,4-2.95,2.32,1-1.34,1.55,3.53,1.37-1.11,1-2.34,2.28-4.43.74-.23.53-1.1,1-1.33,1.53,2.5,1.17,6.34.35,8.1.35a5.92,5.92,0,0,1-1.9-.4l7.09-2.19c1.1.63.22,1.11-.66,1.58,1.43-.16,2.43-.9,4.53-1-.56,1.32-.44,2.69-3.42,3.28l6.74-1.41c.45.58,3.45,1.6,2.57,2.09,3.74.78,9.17-2.52,14.13-1.52a3.4,3.4,0,0,1,1.82-.7c4.65.26,8.79,1.92,14.3,0l3.16,2.34c4.32-.6-4.28-2.94,2.9-3.94,5.08-.83,1.94,2,3.74,2.64,2.51-1.22,6.86-3.8,11.59-2C226.08,141.83,224.85,141.51,223.41,141.72Zm53.25-3.32c-1,.41-3,1.59-3.81.67C273.91,137.13,274.87,138,276.66,138.4Zm78.94-23.12c-.28,1-1.54,1.45-3,1.77A9.58,9.58,0,0,1,355.6,115.28Zm-128-94.86a.3.3,0,0,0,.11-.07C230,21.08,229.18,20.8,227.61,20.42Zm-4.72-.92c-.49.21-.47.44-.27.67.35-.4,1.41-.38,2.62-.21C224.93,19.52,224.32,19.2,222.89,19.5ZM75.35,124.64l.91.46C74.16,125.5,74.76,125.1,75.35,124.64Z"/><path class="cls-1" d="M348.54,122.56a1.46,1.46,0,0,1-.84-.54C347.44,122.44,347.59,122.77,348.54,122.56Z"/><path class="cls-1" d="M190.27,143l-.16,0a.77.77,0,0,0-.17.3Z"/><path class="cls-1" d="M297.16,8.93a4.45,4.45,0,0,1,1.85.92C299.08,9.46,298.65,9.1,297.16,8.93Z"/><path class="cls-1" d="M197.58,21.16l3.06-.29a5.56,5.56,0,0,1-2.72-.66C198,20.6,198.53,21.17,197.58,21.16Z"/><path class="cls-1" d="M171.6,9.79c-.46.18-.95,0-1.4.15l.08.76C172.18,10.76,173.54,10.22,171.6,9.79Z"/><path class="cls-1" d="M195,15.61c-.18-1.39-2.11-1-4.26-.85.13,0,.25,0,.38,0C190.41,16.68,192.71,16.14,195,15.61Z"/><path class="cls-1" d="M190.25,14.79a10.88,10.88,0,0,1-2,0C188,15.49,189.07,14.93,190.25,14.79Z"/><path class="cls-1" d="M216.82,20.14c-1-.39-.71,1.73-1.26,1.15C214.35,23,222.4,19.47,216.82,20.14Z"/><polygon class="cls-1" points="193.47 11.01 194.16 12.74 195.42 11.42 193.47 11.01"/><path class="cls-1" d="M210.26,13l-3.39-.62c0,.28-.4.43-.94.54C208,13.06,210.32,13.5,210.26,13Z"/><path class="cls-1" d="M205.93,12.92a6.89,6.89,0,0,0-2.75.15A16.34,16.34,0,0,0,205.93,12.92Z"/><polygon class="cls-1" points="198.15 10.7 199.15 11.1 201.55 11.33 198.15 10.7"/><path class="cls-1" d="M246.88,15l3.74-.32c.41-.56-.59-1-2-.79C247.73,14.2,246.34,14.36,246.88,15Z"/><path class="cls-1" d="M235.84,9.81c1,.4,1,.78,1.58,1.36l.21-2.1Z"/><path class="cls-1" d="M246.71,9.8c.4-.57,5.48-1.43.76-1.51C247.06,8.85,243.32,9.17,246.71,9.8Z"/><polygon class="cls-1" points="302.64 14.95 301.7 14.93 301.67 18.38 302.64 14.95"/><path class="cls-1" d="M355.72,16.06c-2.17-1.86-2.78-1.44-3.23-1.14a1,1,0,0,1-.84.26,6.24,6.24,0,0,1-2-1.1c-.74.12.08.71.87,1.29s1.55,1.23.83,1.25c1.61.32,2.69.92,3.38,1S355.77,17.42,355.72,16.06Z"/><path class="cls-1" d="M351.39,16.62a8.38,8.38,0,0,0-1.66-.25A8.71,8.71,0,0,0,351.39,16.62Z"/><polygon class="cls-1" points="50.63 27.66 52.8 28.5 51.44 27.27 50.63 27.66"/><path class="cls-1" d="M55.34,25.53c.08.76.16,1.51.22,2.26.57-.58,1.17-1.16,1.79-1.74C56.78,26.06,55.69,26.09,55.34,25.53Z"/><path class="cls-1" d="M284.9,142.27l.18-.54c-.49-.54-1.16-.53-2.5-.52Z"/><polygon class="cls-1" points="246.03 142.77 246.69 142.79 245.37 140.85 246.03 142.77"/><path class="cls-1" d="M213.55,146.18c1.33.06,2.88-.4,4.22-.34C214.88,146.24,213.15,143.7,213.55,146.18Z"/><text class="cls-2" transform="matrix(1, 0, 0, 1, 65.12, 58.19)">Busca la autogestión emocional y <tspan x="0.79" y="25.2">reconocimiento de las emociones </tspan><tspan x="95.31" y="50.4">básicas.</tspan></text></svg>