<svg id="Capa_1" data-name="Capa 1" xmlns="http://www.w3.org/2000/svg" viewBox="0 0 224.75 58.7"><defs><style>.cls-1{fill:#536472;}</style></defs><polygon class="cls-1" points="23.27 37.62 21.2 29.35 28.89 34.15 38.33 29.93 33.53 39.28 40.48 47.47 30.39 43.75 26.91 54.26 24.26 45.32 16.07 44.74 23.27 37.62"/><polygon class="cls-1" points="191.81 26.55 190.43 21.03 195.57 24.23 201.87 21.41 198.66 27.66 203.31 33.13 196.56 30.65 194.24 37.67 192.47 31.7 187 31.31 191.81 26.55"/><path class="cls-1" d="M50,3.94c0,1-1.72.83-2.13.83h-.18c-2.87,0-4.14,5.94-4.14,9.29,0,3.78.24,6.47,2.84,8.63,1.27,1.06,3.22,0,3.67.77.59,1-.5,1.39-1.45,1.39-6.71-.15-7.75-9-6.39-14.82.71-3.07,2.55-7.18,6.39-7.18C49.23,2.85,50,3.26,50,3.94Z"/><path class="cls-1" d="M57.07,2.53c5.29.59,4.52,13.18,4.22,17.11-.2,2.16-1.3,5.92-4.25,5.92-5.24,0-5.47-8.93-5.47-12.39C51.57,9.41,51.83,2.53,57.07,2.53ZM53.25,13.05c0,8.66,1.6,11,3.7,11,2.89,0,2.92-7.51,2.92-9.37v-.12C59.87,12.31,59.25,4,56.44,4,54.23,4,53.28,9,53.28,10.45,53.25,11.39,53.25,12.22,53.25,13.05Z"/><path class="cls-1" d="M64.84,4.65c-.06-1.18,1.57-1.89,2.19-.17l6,16.35c0-1.3.27-8.58.44-11.48a29.91,29.91,0,0,1,.36-5.23c0-.32.32-.32.77-.32.71,0,.77.06.74.71-.09,3.07-.54,6.15-.65,9.22-.06,1.71-.36,9.9-.36,11.62-.21.62-1.12.27-1.36-.24s-.53-1.21-6.8-18L66,25.29c0,.89-1.5.8-1.5.18Z"/><path class="cls-1" d="M79.68,20.74c1.19.35.06,3,1.54,3.81h.18c1.65,0,2.13-2.28,2.13-3.49a12.19,12.19,0,0,0-.8-4.91C81.34,13,78.35,10.3,78.35,6.63c0-1.65,1-4.4,3.05-4.4,1.3,0,3.46,1,3.46,2.57,0,.56-.18.89-.77.89-1.16,0-.8-1.78-2.43-1.78S80,6,80,7.05c0,3,2.51,5.08,3.84,7.57,1.21,2.27,1.83,5.58,1.12,7.83-.47,1.54-1.8,3.64-3.6,3.64-2.19,0-2.87-2.72-2.87-4.49A1,1,0,0,1,79.68,20.74Z"/><path class="cls-1" d="M89.14,4.39c-1.83.12-2.66.09-2.72-.42.06-1,.06-1.36,3.14-1.18H92c.65,0,1.75.12,1.75,1a.67.67,0,0,1-.6.56H90.71l.56,18.77c0,.27-.59.42-.77.42s-.76-.15-.76-.42Z"/><path class="cls-1" d="M95.12,4.83a1.08,1.08,0,0,1,1-1h4.67a1.61,1.61,0,0,1,.8.59.25.25,0,0,1,0,.14c0,.6-.8.86-1.27.86H96.83L97,15.21l3.19-.47h.15c1.39,0,.86,1.35-.33,1.53L97,16.72,97,24.43c.27,0,1.27,0,1.54,0,2,0,3.43-.68,3.51.68.06,1-6.56.89-6.56.33Z"/><path class="cls-1" d="M105.76,26.12s-.38-15.26-.38-17.27c0-.56-.36-5.08-.39-5.65V3a.55.55,0,0,1,.21-.53,3.2,3.2,0,0,1,.56-.06c.53,0,.77,0,.95.62a13.24,13.24,0,0,1,.17,3c.15,6,.21,12.16.57,18.25h.2c1.24,0,2.43-.42,3.7-.42.47,0,1,.12,1,.71a.61.61,0,0,1-.59.65Z"/><path class="cls-1" d="M116.14,20l-.18.18-.5,3.34c-.06.44,0,1.71-.89,1.71-.38,0-.65-.77-.65-1.06C117,2.7,117,2.64,117,2.64c.15-.56.36-1.39,1.1-1.39a1.12,1.12,0,0,1,.92.45l.23.62A155.85,155.85,0,0,1,122.58,23l.18,1.93s0,0,0,.06c-.21.56-.32.79-.89.79h-.09c-.17,0-.47,0-.5-.2L120.51,20Zm.44-1.83,3.7.08-2-13.8Z"/><path class="cls-1" d="M132.84,3.94c0,1-1.71.83-2.13.83h-.17c-2.87,0-4.14,5.94-4.14,9.29,0,3.78.23,6.47,2.84,8.63,1.27,1.06,3.22,0,3.66.77.59,1-.5,1.39-1.45,1.39-6.71-.15-7.74-9-6.38-14.82.71-3.07,2.54-7.18,6.38-7.18C132.07,2.85,132.84,3.26,132.84,3.94Z"/><path class="cls-1" d="M136.6,3.91c.2-.59.35-.62,1-.62.86,0,.86.39.86,1.24,0,.09,0,.48,0,.54l-.89,20.22c-.06,1.3-1.71,1.42-1.71.56Z"/><path class="cls-1" d="M146.21,2.53c5.29.59,4.52,13.18,4.22,17.11-.2,2.16-1.3,5.92-4.25,5.92-5.24,0-5.47-8.93-5.47-12.39C140.71,9.41,141,2.53,146.21,2.53Zm-3.82,10.52c0,8.66,1.6,11,3.7,11,2.9,0,2.92-7.51,2.92-9.37v-.12C149,12.31,148.39,4,145.59,4c-2.22,0-3.17,4.94-3.17,6.42C142.39,11.4,142.39,12.22,142.39,13.05Z"/><path class="cls-1" d="M154,4.65c-.06-1.18,1.57-1.89,2.19-.17l6,16.35c0-1.3.27-8.58.44-11.47A31,31,0,0,1,163,4.12c0-.32.32-.32.77-.32.71,0,.77.06.74.71-.09,3.07-.53,6.15-.65,9.22-.06,1.72-.36,9.91-.36,11.62-.2.62-1.12.27-1.36-.24s-.53-1.21-6.8-18l-.2,18.15c0,.89-1.51.8-1.51.18Z"/><path class="cls-1" d="M167.49,4.83a1.09,1.09,0,0,1,1-1h4.67a1.61,1.61,0,0,1,.8.59.27.27,0,0,1,0,.15c0,.59-.8.85-1.27.85h-3.55l.15,9.82,3.19-.47h.15c1.39,0,.85,1.36-.33,1.53l-3,.45-.09,7.71c.26,0,1.27,0,1.53,0,2,0,3.43-.68,3.52.68.06,1-6.56.89-6.56.33Z"/><path class="cls-1" d="M177.55,20.74c1.18.35.06,3,1.53,3.81h.18c1.66,0,2.13-2.27,2.13-3.49a12.11,12.11,0,0,0-.8-4.9c-1.39-3.2-4.37-5.86-4.37-9.52,0-1.66,1-4.41,3-4.41,1.3,0,3.46,1,3.46,2.57,0,.56-.18.89-.77.89-1.15,0-.8-1.77-2.42-1.77S177.9,6,177.9,7.05c0,3,2.51,5.09,3.84,7.57,1.22,2.28,1.84,5.59,1.13,7.83-.47,1.54-1.8,3.64-3.61,3.64-2.19,0-2.87-2.72-2.87-4.49A1,1,0,0,1,177.55,20.74Z"/><path class="cls-1" d="M63.88,49.87c0-2.54,0-14.36,0-16.88v-.12a1.63,1.63,0,0,1,.86-1.59H65a4.9,4.9,0,0,1,3.32,1.06c3.16,2.84,3.75,7.93,3.57,11.95C71.66,50,70.33,55.43,65.45,56c-1,.12-1.57,0-1.57-1.12Zm1.69-5.7c0,2.63-.06,7.12,0,10.14,3.66-.56,4.67-6.42,4.67-9.67,0-2.33-.15-11.47-4.26-11.47h-.21C65.71,34.83,65.57,42.54,65.57,44.17Z"/><path class="cls-1" d="M74.88,34.29a1.08,1.08,0,0,1,1-1h4.67a1.61,1.61,0,0,1,.8.59.27.27,0,0,1,0,.15c0,.59-.8.86-1.27.86H76.59l.15,9.81,3.19-.47h.15c1.39,0,.86,1.36-.32,1.53l-3,.45-.09,7.72c.27,0,1.27,0,1.54,0,2,0,3.43-.69,3.52.67.06,1-6.57.89-6.57.33Z"/><path class="cls-1" d="M101.9,33.41c0,1-1.71.82-2.13.82H99.6c-2.87,0-4.14,6-4.14,9.29,0,3.78.23,6.47,2.83,8.63,1.28,1.07,3.23,0,3.67.77.59,1-.5,1.39-1.45,1.39-6.71-.15-7.74-9.05-6.38-14.81.7-3.08,2.54-7.19,6.38-7.19C101.13,32.31,101.9,32.73,101.9,33.41Z"/><path class="cls-1" d="M109,32c5.29.59,4.52,13.18,4.22,17.12-.2,2.15-1.3,5.91-4.25,5.91-5.24,0-5.47-8.93-5.47-12.39C103.47,38.88,103.73,32,109,32Zm-3.82,10.52c0,8.67,1.6,11,3.7,11,2.9,0,2.93-7.51,2.93-9.37v-.12c0-2.28-.62-10.55-3.43-10.55-2.22,0-3.17,4.93-3.17,6.41C105.15,40.86,105.15,41.68,105.15,42.51Z"/><path class="cls-1" d="M116.45,55.58s-.39-15.25-.39-17.27c0-.56-.35-5.08-.38-5.64v-.21a.56.56,0,0,1,.21-.53,3.2,3.2,0,0,1,.56-.06c.53,0,.77,0,.94.62a12.75,12.75,0,0,1,.18,3c.15,6,.21,12.15.56,18.24h.21c1.24,0,2.42-.42,3.7-.42.47,0,1,.12,1,.71a.62.62,0,0,1-.59.65Z"/><path class="cls-1" d="M128,32c5.29.59,4.52,13.18,4.23,17.12C132.06,51.26,131,55,128,55c-5.23,0-5.47-8.93-5.47-12.39C122.54,38.88,122.8,32,128,32Zm-3.82,10.52c0,8.67,1.6,11,3.7,11,2.9,0,2.93-7.51,2.93-9.37v-.12c0-2.28-.62-10.55-3.43-10.55-2.22,0-3.17,4.93-3.17,6.41C124.22,40.86,124.22,41.68,124.22,42.51Z"/><path class="cls-1" d="M135.46,53.24c0-6.65.24-13.36.41-20,.06-1.36.56-1.36,1.75-1.36h.29a4.17,4.17,0,0,1,4.47,4.38v.32c0,2.16-.56,4.67-2.52,6a12.25,12.25,0,0,1,.95,1.16c1.33,1.74,1,6,1.15,8,0,.18.18,1.54.18,1.71v.24c0,.5-.47.56-.86.56h0c-.32,0-.71,0-.82-.41,0-1-.3-5.5-.36-6.51-.12-1.45-.41-3.43-2.22-3.43h-.47a16.72,16.72,0,0,0-.18,1.72c0,.26-.17,6.83-.2,9.34,0,.56.09,1.18-.65,1.18a1.08,1.08,0,0,1-.89-.41Zm2.3-11.44c2.1,0,2.9-3.87,2.9-5.23s-.65-3.16-2.33-3.16a.69.69,0,0,0-.74.77c0,2.57-.21,4.73-.21,7.36C137.38,41.77,137.59,41.8,137.76,41.8Z"/><path class="cls-1" d="M145.33,34.29a1.09,1.09,0,0,1,1-1H151a1.61,1.61,0,0,1,.8.59.27.27,0,0,1,0,.15c0,.59-.8.86-1.27.86h-3.55l.15,9.81,3.19-.47h.15c1.39,0,.86,1.36-.33,1.54l-3,.44-.09,7.72c.26,0,1.27,0,1.53,0,2,0,3.43-.68,3.52.68.06,1-6.56.88-6.56.32Z"/><path class="cls-1" d="M155.39,50.2c1.18.36.06,3,1.53,3.81h.18c1.66,0,2.13-2.27,2.13-3.48a12.16,12.16,0,0,0-.8-4.91c-1.39-3.19-4.37-5.86-4.37-9.52,0-1.66,1-4.41,3-4.41,1.3,0,3.46,1,3.46,2.58,0,.56-.18.88-.77.88-1.15,0-.8-1.77-2.42-1.77s-1.63,2.1-1.63,3.13c0,3,2.52,5.09,3.85,7.57,1.21,2.28,1.83,5.59,1.12,7.84-.47,1.53-1.8,3.63-3.61,3.63-2.19,0-2.87-2.72-2.87-4.49A1,1,0,0,1,155.39,50.2Z"/></svg>