<svg id="Capa_1" data-name="Capa 1" xmlns="http://www.w3.org/2000/svg" viewBox="0 0 1213.43 122.64"><defs><style>.cls-1{fill:#fffcf4;}.cls-2{fill:#c3d360;}</style></defs><path class="cls-1" d="M-19.13-28.26V118.06l0-.43q.46-13.81.93-27.57,1.51-47.29,3-94H13.07l.72-9.2,1203.77,9.2V42.9q-21.16-.87-42.4-1.64-68.57-2.41-138.06-3.62c-15.09-.27-30.29-.35-45.52-.53l-44.86-.51q-25.12-.16-50-.16c-58.4,0-115.92.68-173.66,2.05-74.13,1.79-148.6,4.8-225.61,9.78-65.77,4.29-127.34,9.44-188.63,16.09S186.54,79.25,122.13,90.5l-16.92,2.94-4.21.73L96.81,95l-8.36,1.65-33.24,6.55c-2.76.51-5.48,1.18-8.22,1.78L38.8,106.8l-25.48,5.65c-2.09.46-10.18.93-12.26,1.39l-7.3,1.62L-13,117l-3.39.75-1.7.37-.85.19h-.17v43.25H1235.79V-28.26ZM1217.56,45.38q-36-1.34-72-2.32-82.87-2.31-165.68-2.89c-9.8,0-18.59-.27-20.33-.52-.91-.21,4.27-.37,12.5-.37h2.76q83.4.3,167.68,2.39c25,.67,50,1.37,75,2.26Z"/><path class="cls-1" d="M-6.32,100.53l-.06,2,0,.49c0,.06,0,.08,0,.08l.13,0,.24,0,1-.22,3.88-.85,2.21-.49c4.42-1,14.85-2,19.27-2.94L49,92.14c9.05-1.84,18.12-3.56,27.17-5.35l13.57-2.66c4.53-.87,9-1.81,13.58-2.55l27.22-4.69c9.07-1.55,18.11-3.21,27.21-4.51L185,68.23l12-1.83q-43,6-85.7,13.4L98.72,81.92,86.18,84.33l-25.06,4.8C57,90,52.76,90.69,48.6,91.58L36.14,94.3l-33.35,6-1.73.37-5.17,1.13L-5,102l-.43.09-.11,0,0,0v-.22l.07-1.77.13-3.53.52-14.12,1-26.9q.94-25.53,1.9-51,.16-4.17.32-8.36h-1.1Q-4.38,44.45-6,92.63Z"/><path class="cls-1" d="M-16,114.72c.24,0,.62-.16.89-.19l1.67-.37,3.33-.73L-3.4,112l4.46-1,14.86-2,24.22-5.36c11.49-2.69,23.12-4.84,34.72-7.13l17.42-3.4,8.71-1.7,8.76-1.5,35.07-6c5.83-1.06,11.72-1.86,17.6-2.77l17.63-2.66,17.65-2.67c2.94-.47,5.89-.85,8.85-1.24l8.86-1.17,35.48-4.7c11.86-1.45,23.75-2.77,35.64-4.17l17.84-2.06c6-.66,11.93-1.22,17.9-1.83L358.14,57l36-3.15,18-1.57c6-.5,12.05-.91,18.08-1.37l36.24-2.69,36.37-2.31,18.23-1.14c6.08-.37,12.18-.65,18.27-1L576,41.89l36.76-1.57,18.43-.78,18.47-.62,37.05-1.21,37.18-.91,16.05-.38,16-.27,31.82-.53,31.65-.33c10.53-.09,21-.24,31.52-.24-.54-.08-1-.16-1-.24,0-.32,4-.63,10.7-.91l-17.89,0-17.93.15-35.93.3c-24,.4-48.05.61-72.14,1.21-67,2-134,4.9-202,9s-137,9.41-208,16.67l-36.11,4L252.8,67.16l-17.57,2.19-34.7,4.3-34.14,4.82-16.93,2.39-16.81,2.71L99.17,89,65.92,95.09,57.6,96.62c-2.76.53-5.55,1-8.3,1.59L31.82,101.9,1.06,107.35l-4.34,1-7.3,1.61-1.82.4-.06,0v-.34l0-.47,0-.93.13-3.71.51-14.89,1.67-49.29q.73-22.26,1.48-44.56H-12.3q-1.93,59-3.86,118.11C-16.29,114.6-16.17,114.72-16,114.72Z"/><path class="cls-1" d="M-7.14,96.82-7.29,101l-.08,2.11,0,1.06c0,.06,0,.08,0,.08l.14,0,.25-.05.52-.12,7.53-1.63,15-2,30.7-6.68c4.64-1.06,9.35-1.85,14-2.77l14-2.68,14-2.68c4.68-.86,9.34-1.85,14-2.59,22.55-3.79,45-7.94,67.67-11.13l16.95-2.55L196,68.14l4.24-.63,4.25-.56,34-4.48c5.67-.73,11.32-1.55,17-2.19l17-2,34.1-3.91L340.76,51l17.11-1.72L375,47.74c-6.35.37-11.87.62-16.36.8-4,.2-7.17.3-9.4.3h-.82L306.13,53c-64.42,7.19-129,16-193.51,27.41l-12.1,2.09c-4,.71-8,1.55-12.06,2.32L64.33,89.55,52.25,91.91c-4,.8-8,1.75-12,2.62l-26.86,6-12.31,1.4-7.68,1.69-.22.05V103l0-.89.06-1.78.12-3.57.24-7.14q.48-13.83.94-27.69.84-24.75,1.68-49.53l.57-16.28h-.19Q-5.09,42.26-6.82,88.37Z"/><path class="cls-1" d="M974.85,39.28h-2.76c-8.23,0-13.41.16-12.5.37,1.74.25,10.53.48,20.33.52q82.78.61,165.68,2.89,36,1,72,2.32V43.93c-25-.89-50.06-1.59-75-2.26Q1058.31,39.57,974.85,39.28Z"/><path class="cls-1" d="M-5.44,61.9q-.46,13.84-.94,27.69l-.24,7.14-.12,3.57-.06,1.78,0,.89v.65l.22-.05,7.68-1.69v-.44l-2.21.49-3.88.85L-6,103l-.24,0-.13,0s0,0,0-.08l0-.49.06-2,.27-7.9Q-4.39,44.47-2.72-3.91h-.47l-.57,16.28Q-4.6,37.15-5.44,61.9Z"/><path class="cls-1" d="M-18.11,118.08l1.7-.37L-13,117l6.78-1.5,7.3-1.62V111l-4.46,1-6.67,1.48-3.33.73-1.67.37c-.27,0-.65.19-.89.19s-.33-.12-.2-.52Q-14.22,55.09-12.3-3.91h-2.85q-1.51,46.76-3,94-.46,13.75-.93,27.57l0,.43v.21H-19Z"/><polygon class="cls-2" points="1107.7 17.06 1105.18 6.97 1114.56 12.82 1126.06 7.68 1120.21 19.08 1128.68 29.06 1116.37 24.52 1112.14 37.33 1108.91 26.44 1098.93 25.73 1107.7 17.06"/></svg>