<svg id="Capa_1" data-name="Capa 1" xmlns="http://www.w3.org/2000/svg" viewBox="0 0 670.78 87.63"><defs><style>.cls-1{opacity:0.85;}.cls-2{fill:#cd576a;}</style></defs><g class="cls-1"><path class="cls-2" d="M438.2,69.15l-51.35-.1c19.3.85,68.88,9,81.71-10.1,3.84-5.71,2.54-11.31,0-16.67-1.52-3.2-3.48-6.32-5.05-9.33A39.78,39.78,0,0,1,442,34.32c5-1.25,19-9.92,11.73-14.29-7-4.24-17.23-3.82-25.21-3.78-42.59.25-85.59,2.7-128,.5Q290,16.2,279.56,15.4t-20.76-2c-27.47-2.89-53.06-.63-78.91.15a326.18,326.18,0,0,1-39.19-.87,191.38,191.38,0,0,1-41-8.33c-21.57-6.31-59.67.21-79.64,2.23-25.51,15.91-8.34,52.19-6.8,54.28,9.45,12.91,16.87,17,33.6,16,23.36-1.34,46.82-2.82,70.24-4L99.71,81.47c61.92,5.34,122.9,1.44,184.84,1.29,42.1-2.44,84-6.63,125.75-11.51"/></g></svg>