<svg id="Capa_1" data-name="Capa 1" xmlns="http://www.w3.org/2000/svg" viewBox="0 0 206.56 168.82"><defs><style>.cls-1{fill:#e4edf2;}.cls-2{fill:#ed6c6f;}.cls-3{fill:#f0d44f;}</style></defs><path class="cls-1" d="M36.76,164.35c.13.08.42,0,.36-.19l-.5-.14Z"/><path class="cls-1" d="M37.64,162.86a1.07,1.07,0,0,0-1.13-.36c.49.24.29.31.86.57a.29.29,0,0,1-.33.35c.13.07-.1.34.21.45a.62.62,0,0,0,.06-1C37.42,162.77,37.55,162.84,37.64,162.86Z"/><path class="cls-1" d="M37.9,141.44l-.06.14A.35.35,0,0,0,37.9,141.44Z"/><path class="cls-1" d="M37.85,128.17c0,.1.06.14.11.15S37.89,128.15,37.85,128.17Z"/><path class="cls-1" d="M38.34,125.89l0,.14S38.38,125.92,38.34,125.89Z"/><path class="cls-1" d="M37.9,141.44l.15-.36C37.88,141.06,37.93,141.26,37.9,141.44Z"/><path class="cls-1" d="M36.37,159.93a.45.45,0,0,0,.14.19l-.06-.18Z"/><path class="cls-1" d="M38.44,147.27v.11l.2.09Z"/><path class="cls-1" d="M38.63,151.76c0-.1-.41-.13-.59-.16a.4.4,0,0,1,.29.21A1.33,1.33,0,0,0,38.63,151.76Z"/><path class="cls-1" d="M38.06,158.89l.06.12Z"/><path class="cls-1" d="M38.46,144.06l.15,0A.24.24,0,0,0,38.46,144.06Z"/><path class="cls-1" d="M32.25,18.67h.08S32.25,18.64,32.25,18.67Z"/><path class="cls-1" d="M34.21,13.42l0,.07h.23Z"/><path class="cls-1" d="M38.78,121.74s0,0,0,0S38.81,121.8,38.78,121.74Z"/><path class="cls-1" d="M37.55,83.71c-.37.44-.5-.69-.9,0C36.81,83.62,37.32,84.25,37.55,83.71Z"/><path class="cls-1" d="M36.43,159.82a.59.59,0,0,1,0-.19A.37.37,0,0,0,36.43,159.82Z"/><path class="cls-1" d="M36.65,83.68h0l0,.07A.16.16,0,0,1,36.65,83.68Z"/><path class="cls-1" d="M38.3,112.2a.57.57,0,0,0-.19.1S38.21,112.27,38.3,112.2Z"/><path class="cls-1" d="M37.87,119.32l.05-.17A.35.35,0,0,0,37.87,119.32Z"/><path class="cls-1" d="M37.61,108.52c0-.1.09-.13,0-.26l0,0C37.65,108.35,37.68,108.41,37.61,108.52Z"/><path class="cls-1" d="M37.52,104.68l-.09.07,0,.12Z"/><path class="cls-1" d="M32.74,30.35a1.09,1.09,0,0,1,.37-.19C32.81,30.23,32.69,29.66,32.74,30.35Z"/><path class="cls-1" d="M36.61,159.93c-.11,0-.16-.05-.18-.11a.5.5,0,0,0,0,.12A.28.28,0,0,0,36.61,159.93Z"/><path class="cls-1" d="M34.28,108.44l0-.61A2.9,2.9,0,0,0,34.28,108.44Z"/><path class="cls-1" d="M33.46,57.92l-.05-.14A.16.16,0,0,0,33.46,57.92Z"/><path class="cls-1" d="M34.23,106a1,1,0,0,0,.28-.35,1.05,1.05,0,0,0-.11-.07Z"/><path class="cls-1" d="M33.12,30.16h0Z"/><path class="cls-1" d="M32,26.16c0,.58.55.26.87.38.17.69-.4.33-.68.57.16.43.67.75.66,1.07-.09,0-.12.09-.24,0,.45.45.06,1.36.62,1.88a.27.27,0,0,1-.13.08,1.75,1.75,0,0,1,.75-.1c0,.26.37.47,0,.58,0-.16-.14-.17-.26-.24l.17.27c-.52.26-.19-.37-.58-.36.18.53.63,1.14.49,1.55-.51.1-.19-.95-.63-.4l.18-.63c-.79.5,0-.39-.81.08-.12.83.29.92.16,1.75.29.18.42-.07.7.11.54,1.17-1.25,1-.56,1.81.35.22,1,.29.67.91l-.58-.19c0,.8.84.44.47,1.29-.23-.14-.21-.63-.27-.51-.44.56.34.38.35.8l-.51.1c.1.86.49,1.79.61,2.74-.16,0-.32-.21-.47,0a8.38,8.38,0,0,1-.28,3.72l.45.43a.17.17,0,0,1-.28.08c-.15.46.28,0,.46.23a.22.22,0,0,1-.38.19c.39.78.86,2.24.41,3.09l-.14-.16c-.16.66.92.71.53,1.33l-.08-.12c-.16,1.42.28,3-.36,4.07.64.19-.25,1.41.64,1.48-.42.82-.58.59-.85,1.73,0,.31.56.44.66.81l-.46,0,.5.49-.55.29.13.35c0-.14.2-.31.33-.29a1.25,1.25,0,0,1-.52,1.37l.42,1.29c-.19,0-.25-.24-.38-.41.49.69-.48.14,0,.77.1-.09.27,0,.37.05a2,2,0,0,0-.13,1.58l-.32-.1c-.06,1,.2,2,.22,3.12a.4.4,0,0,1,.76,0l-.49.14c.31.19.18-.34.56.07-.05.41-.55.29-.72.06l.18.49c-.14,0-.22-.08-.41-.11.31.19-.47.86.07,1.14l-.15,0c0,1.08.2,1.57.25,2.45.42,0,.34.36.68.61a8.47,8.47,0,0,0-.37,2.16c.22.55.36.15.61.4-.38,0-.32.82-.61.43a9.71,9.71,0,0,0,.45,2.37c.15-.13.22-.28.35-.21.07.22-.15.5-.34.47l0-.06c.61,1.32-1,3.1-.22,4.14l0,0,.45,1.09c-.06.5-.3-.3-.53.08.67,1.17-.05,1.87.4,2.84-1.11.78.15,2.68-.55,3.72l.27-.07c.26.26-.15.33-.21.52.21,0,.24-.29.39-.13.37,2.23-.28,4.62-.47,6.92,0,.84,1.39.44.78,1.51l-.5-.29c.64,1.68.06,3.46.61,5.1-.12-.09-.27-.09-.27-.26-.35.36,0,1.3.31,1.3,0,.25-.27.06-.41.22-.21.36.48.87.13,1.07-.06,0-.12-.1-.15-.16.18.22,0,1.06.39.84-.18.62.21,1.18,0,1.68.47.31-.2,1.07.46,1.16-.68,0-.52,1.1-.19,1.48-.21-.12-.21.35-.49.2,0,.45.15.86.5.77-.79.85.69,1.65-.34,2.14a26.19,26.19,0,0,1,.86,3.74c-.67,0-.1-1.32-.8-1.26.3,1.13.9,1.77.76,2.9-.08.3-.29-.15-.41-.25.3,1.13,0,2.2.38,3.2-.06,0-.13-.11-.19-.21,0,.2-.09.46.22.43l-.09-.19c.44-.33,1,.77,1.19.8-.89-.32-.2,1-1.32.49a.41.41,0,0,0,.41.26c-.05.19-.17.26-.41.07.19.7.51.44.51,1.09-.14,0-.2-.13-.38-.19a1.26,1.26,0,0,1,.48,1.19c-.09,0-.2,0-.21-.13.07.94.82,1.58.56,2.62-.65-.29-.2.35-.76.42l.18.55.26-.23c0,.48.42.9.25,1.32l-.24-.35.13.9.2-.52c.3.49.71-.06.57.58-.06-.13,0,.49-.32.75h0a.82.82,0,0,1,.24.84c-.17.09-.62-.06-.73,0,.47.22.15,1.13.66,1.42a.59.59,0,0,0-.47-.06l.38.19c-.12.22-.17.26-.41.23-.05.67.71-.23.42.57,0-.06-.09,0-.15-.16-.14.81.28,1.55.11,2.3-.56.23-.15-.65-.62-.38.13,1.06.73,2.19.62,3.22l.06-.19c.79.12-.38.77,0,1.29-.06-.13-.45-.16-.36-.13a7,7,0,0,0,.51,2.51l-.21-.13a8.76,8.76,0,0,0-.16,1.55c.21.13.18.39.47.22-1.13,1.42.69,2.63-.25,3.89,0-.15-.18-.35-.18-.23l.21,1c.35-.09.21-.14.47-.37a.87.87,0,0,1,.38.68c-.24-.47-.55,0-.74.23.1,0,.22,0,.33,0-.6.56.7.07.3.83l-.18,0c.1.28.35.53.3.84-.4.13-.19-.3-.52-.31,0,.42.78.82.39,1.21-.12-.18-.13-.43-.24-.61-.46.43-.34.47-.41.79v0l-.2.73.13-.19c1.06.51.21,1.08.92,1.77-.67-.67-.38-.1-.84-.14-.12.18-.25.46-.38.39.37.32-.28.57.27,1-.15,0,0,.36-.38.29.13.44.26-.11.44-.07.52.66-.57,1.6.14,2.56.31.83.8,1,1.07,1.75-.23.26-.54-.21-.54-.21a1.2,1.2,0,0,0,0,1.15c-.13-.08-.24,0-.4.13,0,.32.54.2.33.63a2.24,2.24,0,0,1-.59-.31c.14.38.42.74.57,1.13-.26.11-.4-.22-.57-.36.13.44.26,1.14.67,1.26l.14-.28c0,.16-.35.09-.43,0-.32-.37.13-.55.28-.57l.1.28c.85-.31-.17-1.12-.13-1.68l.63.22-.53-.57c.16-.12.5-.21.6.06.3-.41-.23-.35.11-.7,0,0,.08,0,.11,0l-.2-.39c.13.07.44-.08.36.17.34-.72-.5-1.13,0-1.41l0,.06c-.24-1-.46-.08-1-.8l1.12-.52-.46-.09c0-.1,0-.3.23-.27-.33-.36-.2.07-.5-.14.4-.49-.23-1.33.5-1.46-.35-.17-.26.47-.51,0,.78-.17-.15-.6.2-1.05.4.13.2.55.55.1-.69-.25.13-.87,0-1.24-.55,0-.25-.81-.44-1.43.18,0,.27-1.19.45-1.78h.09c-.55-.09-.46-.7-.59-1.14a.64.64,0,0,1,.62.32v-.41a.65.65,0,0,1-.35-.48l.41.09c0-.55-.51-1.09-.25-1.81-.38,0-1,.59-1.33-.15.21,0,.56-.07.65.12,0-.06-.18-.22-.09-.35l.36.29c.14-.33-.3-.16-.27-.42.29,0,.2-.2.44-.17,0,.07-.12.23,0,.33a1.13,1.13,0,0,1,.44-.77c-.17,0-.4,0-.45-.2,0-.55.35-.2.5-.52-.21-.13,0-.49-.45-.48,0-.16.21-.2.32-.26-.2-.28-.08-1.33-.55-1l0,.07s0,0,0,0h0c-.46-.92.21-1.94,0-2.86h.14c-.18-.55-.13-1.23-.45-1.62,0-.16.26-.39.44-.32-.13-.42-.29-.46-.06-1.08.26.42.22-.15.2.43.11-.55.34-.68-.07-1.26.38.19.46-.42.34-.68l-.26.39a2.76,2.76,0,0,1,0-.81l.5.13c.58-1.14-1.08-2-.08-2.87-.36-.29-.23.61-.65.35.06-.51.76-1.07.76-1.23.26-.71-.75-.64-.58-1.38a.56.56,0,0,1-.83-.35c.06-.52.74-.66.89-.33,0,.12,0,.18-.1.18.07.16.15.38.34.17l-.18-.06c.17-.26.14-1,.43-.81-.18-.39-.29-.16-.38.13.24-.67,0-1,.14-1.72-.09.11-.3.21-.3.11.19-1-.35-.44-.44-1.11.26-.39.65.12.4-.55.18-.43.47-.1.62.06-.36-.62.2-1.17.25-1.52l.16.32a1.12,1.12,0,0,1-.1-.52l-.35.2c.06-.2.05-.36.2-.36-.24-.19-.59.17-.91-.22.17-.26-.22-.77.25-.87-.14.81.48-.1.57.58a.73.73,0,0,1,0-.49c.06,0,.1,0,.13.08.4-.78-.54-.34-.55-1.14.27.09.5-.2.44-.33,0,.32-.44.17-.65-.12.19-.52-.17-.56-.15-.83l-.09.31c-.27-.09-.24-.35-.33-.71.2,0,.15.32.24.2-.48-.39.46-.91.13-1.46.17-.26.5,0,.62-.26-.36-.61.34-.68,0-1.33-.35.2-.26.23-.62-.22l.28,1.07-.54-.68c0,.32.24.68.18.87-.29-.32-.21-.29-.5-.12.53-.46-.33-.87,0-1.39h.88c.38-.78-.48-1.35-.28-2.36l-.15.33c-.36-.13-.06-.62-.22-.94.3,0,.4-.18.58-.32-.21,0,0-.73-.59-.81l.38-.45c.14-.81-.86-.9-.78-1.68.33.23.53-.13.77.38,0-.25,0-.49-.16-.49.18-.15-.42-.7-.14-1-.13-.1-.44-.13-.43-.42a.2.2,0,0,1,.15,0c-.15,0-.21-.45-.53-.18.9-.82-.12-2.23.65-2.94a14.45,14.45,0,0,1-.25-1.75c.08,0,.14,0,.11.09.26-.71-.86-.41-.57-1.22.47-.42.27.42.45.16,1-.14-.16-1,.4-1.52l.06.13c.32-.42-.4-1-.34-1.68a.2.2,0,0,0,.14,0,3.89,3.89,0,0,1-.84-2c.38.2.2.29.59.16-.06-.29-.62.1-.74-.48.2-.19.37-.62.78-.68l0,.55c.53-.3,0-.71.05-1l.24,0c-.1-.84-.69-.84-.67-1.74l-.17.09c-.6-.48.31-.42-.13-.9l.59-.16a9.83,9.83,0,0,1-.73-1.71,4.9,4.9,0,0,1,1,1.41c0-.32-.07-1.09-.37-1.25.06.12.21.28.12.42a2,2,0,0,1-.72-1.55c1.15.09.25-1.68,1.13-2.17-.45-1.13.13-2.27,0-3.59-.88.49,0-.39-1-.28-.07-.31-.06-.43,0-.46l.53-1c.26-.23.21.29.41.26.06-.68.38-.29.62-.75-.33.1-.48-.22-.36-.61l-.41.55c-.51-.93.75-.83.24-1.77l.3.29c-.18-.48,0-1.8-.79-2.27.1-.08.35-.2.42,0,.09-1.17-.84-2.58-.41-3.5l.23.08c-.07-.22-.43-.37-.22-.65.1,0,.23.09.24,0s-.41-.57-.28-.86l.26.24c.26-1.14-.66-1.73-.84-2.68.66,0,.86-.92,1-1.37h.09c.05-1.32-.6-2.24-.89-3.46.7-.78.24-2.59.61-3.83-.11.19-.51,0-.58-.23.12-.29-.48-.79.13-.75v.1c.59-.23.41-.82.42-1.28l-.79-.06c1.12-1.24-.5-3.15.51-3.84-.2-.28-.21-.65-.42-.93H37a7.8,7.8,0,0,0,0-2.22l.31.2c0-.56-1.25-.68-1.28-1.2L36.7,52c0-1,.5-2-.1-3,.09,0,.27,0,.3.2,0-.46.39-1.8-.48-1.61.57,0,0-1-.23-1.54l.42.07c-.54-.43-.69-.44-.85-1.06.05-.15.33-.14.23.06.2-.5-.41-.38-.2-1l.27.21c0-.5-.12-.46-.44-.73a.84.84,0,0,1,.46-1.05c-.23-.07-.55-.34-.45-.64a.25.25,0,0,1,.28.12c.27-.86-.51-1.25-.12-1.85a.33.33,0,0,0,.25-.1,4.85,4.85,0,0,1,0,1.17c.39,0,.44-.56,1-.14-.3-.43-1-1.16-.79-1.7l.14-.07,0,.05a.36.36,0,0,0-.07-.33,1.49,1.49,0,0,0,.11-.44c.31-.07.15-.63.16-.91-.42,0-.36-.32-.7,0,0,0,0,.05.07.23s0,.09,0,.12l0,0c0,.18,0,.41,0,.67-.22-.21-.41-.43-.18-.73-.28-.13-.56-.28-.69-.36.58-.39.88-1.12,1.24-1.22-.26-.83-.21-2-1-2.46-.11-.23.22-.27.34-.37.09.14.08.3.19.37-.21-.46-.11-1.39-.67-1.49.24-.6.52.32.41-.5l.17.11c.85-1.63-1.47-2.58-.38-4.39-.07.13-.1.19-.19.22.45-2.05-.57-4.18.17-6.2.15-.58-.2-.63-.48-1l.45-.14-.54-.58c-.4-.83,1.08-1.48.33-2.53l-.3.14c.05-.38-.21-1.21.14-1.15-.06,0-.32-.12-.16-.28h.23l-.43-.94c.16-.73,1,.1,1-1-.1-.39-.72-1.11-.88-1a.44.44,0,0,1-.37.43l-.13-.36c-.7-.05-1.42-.31-1.89.59l.44.61-.33.21,0-.52c-.31.3,0,.48.18.69a.54.54,0,0,0-.37.27l.68.59c-.27.08-.55-.26-.69.15.32.28.61-.29.82.18-.31.3-.57.22-.29.56a.29.29,0,0,1-.38-.15c.23.31.12.82.49,1-.38.32.13,1-.53,1a1.54,1.54,0,0,1,.56.81c-.8-.5,0,1.07-.87.95.72.37.35,1.39.76,2.06-.06,0-.17-.11-.14-.17,0,.38-.26.5-.39.75.59,0,.74.63,1.11.94-.56.48-.7-.27-1.24-.11.48,0,.5.81.89.64-.34.37-.16.31-.64.51.73,0,.13.33.59.62-.35.53-.69.15-.45.71C32.29,26.66,32,26.16,32,26.16Zm1.6,13.56h0c0-.12,0-.22,0-.28S33.6,39.58,33.62,39.72Zm0,1.14c0-.14,0-.31,0-.5s.29,0,.29.12C33.85,40.42,33.77,40.69,33.65,40.86Zm2.86-2.49c.07.18,0,.25-.1.27s0-.18-.06-.31l-.05,0A.58.58,0,0,1,36.51,38.37Z"/><path class="cls-1" d="M36,38.06a.15.15,0,0,1,0-.07.44.44,0,0,0-.09.11l.13.06A.34.34,0,0,0,36,38.06Z"/><path class="cls-1" d="M37.83,141.6v0a.1.1,0,0,1-.06,0Z"/><polygon class="cls-1" points="33.23 56.65 33.33 56.65 33.24 56.55 33.23 56.65"/><path class="cls-1" d="M36.54,147.93a.17.17,0,0,0-.11.08S36.5,148,36.54,147.93Z"/><path class="cls-1" d="M36.51,150.65l-.14.38A1.85,1.85,0,0,0,36.51,150.65Z"/><path class="cls-1" d="M36.35,152.74l.18,0h0Z"/><path class="cls-1" d="M35.05,119.54a.19.19,0,0,0,0-.08C35,119.27,35,119.4,35.05,119.54Z"/><path class="cls-1" d="M36.28,129.4a2,2,0,0,1-.21-.32C36,129.26,36,129.4,36.28,129.4Z"/><path class="cls-1" d="M34.28,108.51h0a.15.15,0,0,1,0-.07Z"/><path class="cls-1" d="M36.07,128.62a.53.53,0,0,0,0,.46A.9.9,0,0,0,36.07,128.62Z"/><path class="cls-1" d="M36.38,161.8l0,.1h.07Z"/><path class="cls-1" d="M36.43,161.91l.06.11C36.48,162,36.48,161.92,36.43,161.91Z"/><path class="cls-1" d="M36.6,162.25l-.11-.23C36.49,162.1,36.48,162.2,36.6,162.25Z"/><path class="cls-1" d="M36.51,159l-.16,0A.35.35,0,0,0,36.51,159Z"/><path class="cls-1" d="M36.44,158.19c0,.2-.31.51-.21.79l.12,0C36.12,158.87,36.71,158.37,36.44,158.19Z"/><path class="cls-1" d="M38.25,154.64l-.11.7c.16-.12.38-.29.42,0C39,154.47,38.2,155.56,38.25,154.64Z"/><path class="cls-1" d="M38.43,152.45c.09.37.24,0,.33,0C38.61,152.22,38.57,152.16,38.43,152.45Z"/><path class="cls-1" d="M38.05,136.67l.38,0C38.37,136.4,38.29,136.7,38.05,136.67Z"/><polygon class="cls-1" points="35.99 133.7 35.76 133.99 36.12 134.11 35.99 133.7"/><polygon class="cls-1" points="38.68 131.85 38.74 131.98 38.59 131.49 38.68 131.85"/><path class="cls-1" d="M37.91,105.35l-.47.1C37.53,105.65,38.06,105.67,37.91,105.35Z"/><path class="cls-1" d="M37.15,93.92c.23-.13.38-.45.14-.65C37.26,93.53,37.08,93.79,37.15,93.92Z"/><polygon class="cls-1" points="37.09 59.59 37.25 59.82 37.11 59.39 37.09 59.59"/><path class="cls-1" d="M191,145.58c.09-.13,0-.42-.23-.35l-.16.51Z"/><path class="cls-1" d="M189.28,144.76a1,1,0,0,0-.39,1.14c.27-.49.35-.3.64-.88a.32.32,0,0,1,.42.32c.08-.13.4.09.52-.23a.8.8,0,0,0-1.19,0C189.18,145,189.26,144.85,189.28,144.76Z"/><path class="cls-1" d="M164.39,145.25l.16.05A.28.28,0,0,0,164.39,145.25Z"/><path class="cls-1" d="M149,145.64c.11,0,.16-.07.17-.11S149,145.6,149,145.64Z"/><path class="cls-1" d="M146.33,145.2l.15,0C146.42,145.18,146.36,145.16,146.33,145.2Z"/><path class="cls-1" d="M164.39,145.25l-.42-.14C164,145.27,164.19,145.22,164.39,145.25Z"/><path class="cls-1" d="M185.92,146.14a.6.6,0,0,0,.21-.14l-.2.06Z"/><path class="cls-1" d="M171.16,144.53h.12a1,1,0,0,0,.1-.21Z"/><path class="cls-1" d="M176.36,144.19c-.12,0-.14.41-.17.6a.39.39,0,0,1,.24-.3A.76.76,0,0,0,176.36,144.19Z"/><path class="cls-1" d="M184.66,144.5l.14-.07A.91.91,0,0,0,184.66,144.5Z"/><path class="cls-1" d="M167.42,144.61a.38.38,0,0,0,0-.14A.24.24,0,0,0,167.42,144.61Z"/><path class="cls-1" d="M21.61,150.53s0-.05,0-.07S21.57,150.53,21.61,150.53Z"/><path class="cls-1" d="M15.58,148.38l.08,0a2,2,0,0,0,0-.23Z"/><path class="cls-1" d="M141.49,144.84h0C141.64,144.79,141.57,144.81,141.49,144.84Z"/><path class="cls-1" d="M97.33,146.41c.5.37-.81.5,0,.91C97.21,147.15,98,146.64,97.33,146.41Z"/><path class="cls-1" d="M185.78,146.09l-.21,0A.44.44,0,0,0,185.78,146.09Z"/><path class="cls-1" d="M97.28,147.32h0l.08,0Z"/><path class="cls-1" d="M130.42,145.48a.44.44,0,0,0,.12.18A.48.48,0,0,0,130.42,145.48Z"/><path class="cls-1" d="M138.7,145.8l-.21-.05A1,1,0,0,0,138.7,145.8Z"/><path class="cls-1" d="M126.15,146.22c-.11,0-.15-.09-.3,0l0,.05C126,146.18,126,146.15,126.15,146.22Z"/><path class="cls-1" d="M121.68,146.35l.09.08.14,0Z"/><path class="cls-1" d="M35.2,150.42A1.3,1.3,0,0,1,35,150C35.06,150.34,34.4,150.45,35.2,150.42Z"/><path class="cls-1" d="M185.9,145.9c0,.11-.05.17-.12.19l.15,0A.18.18,0,0,0,185.9,145.9Z"/><path class="cls-1" d="M126.07,149.55l-.71,0A3.94,3.94,0,0,0,126.07,149.55Z"/><path class="cls-1" d="M67.28,150.3l-.16,0A.16.16,0,0,0,67.28,150.3Z"/><path class="cls-1" d="M123.25,149.63a1,1,0,0,0-.41-.28.44.44,0,0,0-.08.11Z"/><path class="cls-1" d="M35,150Z"/><path class="cls-1" d="M30.31,151c.67,0,.32-.55.46-.86.81-.16.38.41.65.69.5-.14.89-.65,1.27-.63,0,.1.1.13,0,.24.54-.43,1.59,0,2.21-.56A.29.29,0,0,1,35,150a1.78,1.78,0,0,1-.09-.76c.3,0,.57-.35.68,0-.19,0-.2.14-.29.25l.32-.15c.28.52-.44.17-.44.56.62-.17,1.35-.59,1.82-.45.1.52-1.11.17-.48.63l-.73-.2c.56.8-.45-.06.06.8,1,.15,1.09-.25,2-.1.22-.28-.07-.42.15-.7,1.37-.51,1.08,1.28,2.09.6.26-.34.36-1,1.08-.64l-.25.58c.94.06.54-.83,1.52-.44-.18.23-.74.19-.6.26.64.45.45-.33.94-.33l.1.51c1-.08,2.1-.44,3.2-.54-.06.16-.25.32,0,.47a11.65,11.65,0,0,1,4.32.36l.51-.44c.12,0,.22.2.1.29.52.16,0-.28.27-.46.3,0,.4.25.21.39.92-.38,2.63-.82,3.6-.35l-.19.13c.76.18.86-.9,1.56-.49l-.13.08c1.64.18,3.46-.23,4.72.43.23-.64,1.63.27,1.73-.62.94.43.67.59,2,.88.35,0,.52-.56,1-.65v.46l.59-.49.32.55.41-.12c-.16,0-.35-.21-.32-.34a1.56,1.56,0,0,1,1.58.55l1.51-.4c0,.18-.29.25-.49.37.81-.48.16.48.89.05-.1-.11,0-.28.07-.37a2.81,2.81,0,0,0,1.83.14l-.11.32c1.12.07,2.36-.18,3.62-.19a.38.38,0,0,1,0-.75l.15.48c.24-.3-.39-.18.1-.55.47.05.32.55,0,.71l.57-.17c0,.14-.09.22-.13.41.23-.31,1,.48,1.33-.06l0,.15c1.26,0,1.83-.19,2.86-.22,0-.42.42-.34.72-.68a11.28,11.28,0,0,0,2.51.39c.63-.22.18-.36.46-.61,0,.38,1,.33.49.61a12.78,12.78,0,0,0,2.77-.43c-.15-.16-.32-.22-.24-.35.25-.07.58.15.54.33l-.06,0c1.54-.6,3.59,1.07,4.81.25l-.07,0,1.27-.45c.59.06-.34.3.1.53,1.36-.67,2.18,0,3.31-.4.9,1.11,3.12-.14,4.32.55l-.08-.26c.3-.27.38.14.6.2,0-.21-.33-.23-.15-.38,2.6-.37,5.38.26,8,.44,1,0,.52-1.39,1.76-.79l-.34.51c2-.64,4-.08,5.94-.65-.11.12-.11.27-.3.27.42.35,1.5,0,1.5-.32.3,0,.08.27.27.41.41.2,1-.49,1.23-.13,0,.05-.11.12-.18.15.26-.19,1.24,0,1-.4.73.17,1.38-.23,2,0,.36-.47,1.25.19,1.35-.47,0,.68,1.28.51,1.73.18-.15.21.4.19.23.49.52,0,1-.17.89-.52,1,.78,1.91-.72,2.48.31a38.22,38.22,0,0,1,4.35-.92c0,.68-1.53.12-1.45.83,1.31-.32,2.05-.93,3.37-.81.34.08-.18.3-.29.42,1.31-.32,2.55,0,3.71-.44,0,.06-.12.13-.24.19.23,0,.54.08.5-.23l-.22.1c-.39-.44.88-1,.92-1.21-.36.9,1.16.18.58,1.32.15-.07.34-.22.3-.42.22.05.3.16.08.41.82-.2.52-.52,1.27-.54,0,.15-.15.21-.22.39a1.59,1.59,0,0,1,1.38-.5c0,.09,0,.2-.15.21,1.09-.09,1.83-.85,3-.61-.33.66.41.2.5.75l.63-.19-.27-.26c.57,0,1.05-.44,1.54-.28l-.41.25,1.05-.15-.6-.19c.55-.31-.09-.7.66-.58-.15.07.57,0,.87.3h0a1.06,1.06,0,0,1,1-.27c.12.17-.06.62,0,.74.25-.48,1.31-.19,1.64-.7a.56.56,0,0,0-.07.47l.22-.39c.26.11.3.17.27.41.79,0-.28-.7.67-.43-.08,0,0,.08-.19.15.94.12,1.8-.32,2.67-.17.27.56-.75.17-.44.64,1.24-.16,2.54-.79,3.74-.71l-.22-.05c.13-.8.91.35,1.49,0-.14.06-.17.45-.13.36a9.57,9.57,0,0,0,2.9-.58l-.15.21a10.8,10.8,0,0,0,1.81.11c.14-.21.45-.19.25-.48,1.67,1.09,3-.76,4.52.14-.17,0-.4.2-.26.19l1.2-.25c-.11-.34-.17-.2-.43-.46a1.1,1.1,0,0,1,.78-.4c-.54.26,0,.56.27.74,0-.11,0-.23,0-.33.67.58.07-.71,1-.34l0,.19c.32-.11.61-.37,1-.33.17.39-.33.2-.34.53.49,0,.94-.8,1.4-.43-.2.13-.5.14-.71.26a1.08,1.08,0,0,0,.93.38h0l.84.18-.21-.12c.56-1.08,1.24-.25,2-1-.77.69-.11.38-.15.84.22.11.55.24.46.37.38-.38.67.26,1.2-.31,0,.15.42,0,.35.37.51-.14-.13-.25-.1-.44.76-.53,1.88.51,3-.23,1-.34,1.12-.84,2-1.14.32.22-.22.55-.22.55a1.6,1.6,0,0,0,1.32-.06c-.08.13,0,.23.17.39.37-.06.22-.55.72-.36a2,2,0,0,1-.34.61c.43-.16.85-.46,1.3-.61.13.24-.25.4-.4.57.5-.14,1.31-.3,1.44-.71l-.33-.13c.18,0,.11.34,0,.42-.42.34-.64-.1-.67-.25l.31-.11c-.37-.84-1.29.21-1.94.2l.24-.64-.64.55c-.15-.15-.27-.5.05-.61-.49-.28-.4.25-.82-.07-.05-.05,0-.09,0-.11l-.45.21c.08-.14-.1-.44.19-.36-.84-.32-1.3.54-1.63.08l.06,0c-1.12.27-.08.46-.9,1l-.64-1.09-.08.46c-.12,0-.36,0-.32-.22-.42.34.08.2-.16.51-.58-.39-1.54.27-1.71-.45-.18.36.56.24,0,.51-.21-.77-.69.17-1.23-.16.14-.41.64-.22.11-.56-.28.7-1-.1-1.44.06,0,.54-.93.27-1.65.49,0-.19-1.39-.23-2.08-.4l0-.09c-.11.56-.81.49-1.32.63a.62.62,0,0,1,.36-.63l-.48,0a.77.77,0,0,1-.56.36l.11-.42c-.64.06-1.26.55-2.1.32,0,.38.71,1-.15,1.33,0-.2-.09-.56.13-.65-.07,0-.26.18-.41.1l.33-.37c-.38-.13-.18.3-.48.29,0-.3-.23-.2-.2-.44.07,0,.27.11.37,0a1.41,1.41,0,0,1-.9-.42c0,.17,0,.4-.22.45-.64.05-.24-.34-.62-.48-.14.21-.56,0-.55.46-.18,0-.23-.2-.31-.31-.32.21-1.53.12-1.14.58l.09,0-.06,0h0c-1.06.49-2.26-.15-3.32.09v-.15c-.63.2-1.42.16-1.86.5-.19,0-.46-.25-.39-.43-.48.14-.53.31-1.25.09.48-.28-.18-.22.5-.21-.64-.1-.8-.33-1.46.1.21-.39-.5-.45-.8-.33l.46.26a3.73,3.73,0,0,1-.94,0l.14-.5c-1.33-.55-2.3,1.13-3.34.15-.33.37.72.22.43.64-.6,0-1.26-.73-1.44-.73-.84-.24-.74.76-1.61.61.12.17.24.64-.39.84-.6,0-.77-.72-.4-.88.15,0,.22,0,.22.1.19-.07.44-.16.19-.34l-.07.18c-.3-.17-1.13-.12-.94-.42-.45.19-.19.3.15.38-.78-.23-1.2,0-2-.1.13.09.26.3.13.3-1.17-.18-.5.36-1.28.46-.46-.25.13-.65-.65-.39-.49-.17-.12-.47.07-.62-.71.37-1.36-.18-1.77-.23l.37-.15a1.68,1.68,0,0,1-.6.1l.23.35c-.22-.06-.41-.05-.41-.2-.22.24.2.59-.25.92-.3-.17-.9.23-1-.24.94.13-.12-.47.67-.57a1,1,0,0,1-.56,0c0-.05,0-.1.08-.13-.91-.39-.39.55-1.31.57.1-.27-.24-.49-.39-.43.38,0,.2.44-.14.65-.6-.18-.64.18-1,.17l.36.08c-.11.27-.41.25-.82.35-.05-.21.37-.16.22-.24-.45.48-1.06-.45-1.69-.11-.31-.17-.05-.5-.31-.61-.71.37-.8-.34-1.54,0,.23.35.26.26-.26.63l1.24-.29-.78.54c.37,0,.78-.25,1-.2-.37.31-.34.22-.14.51-.54-.52-1,.35-1.62,0v-.88c-.91-.37-1.57.5-2.74.32l.38.14c-.14.36-.71.07-1.08.23,0-.3-.22-.4-.38-.58,0,.22-.85,0-.94.6l-.53-.37c-.94-.13-1,.88-1.94.81.26-.33-.16-.53.44-.78-.3,0-.57,0-.57.17-.18-.18-.82.43-1.11.15-.12.14-.15.45-.49.43,0,0,0-.14,0-.14,0,.15-.52.21-.22.53-1-.89-2.58.14-3.41-.63a19.88,19.88,0,0,1-2,.28c0-.09,0-.15.11-.12-.82-.25-.48.86-1.42.58-.49-.46.49-.27.19-.44-.16-1-1.13.16-1.77-.39l.15-.06c-.49-.32-1.16.4-1.95.35a.16.16,0,0,0,0-.14,4.91,4.91,0,0,1-2.29.86c.23-.39.34-.21.19-.6-.34.07.11.62-.56.75-.22-.21-.72-.38-.79-.79l.63,0c-.34-.52-.82,0-1.16,0l0-.24c-1,.1-1,.69-2,.68l.12.17c-.56.6-.49-.32-1,.13l-.19-.59a11.25,11.25,0,0,1-2,.74,5.69,5.69,0,0,1,1.65-1c-.38,0-1.28.08-1.46.37.14-.06.33-.21.48-.12a2.39,2.39,0,0,1-1.79.73c.1-1.15-2-.24-2.52-1.13-1.32.46-2.63-.12-4.17,0,.56.89-.45,0-.34.95-.35.07-.49.06-.53,0l-1.09-.53c-.27-.26.33-.21.3-.41-.79-.06-.34-.38-.87-.62.12.33-.26.48-.71.36l.64.41c-1.09.51-1-.75-2.06-.24l.34-.3c-.56.19-2.09,0-2.64.78-.1-.1-.24-.35,0-.42-1.36-.09-3,.83-4.07.39l.1-.22c-.25.07-.44.43-.76.21,0-.1.1-.23,0-.24s-.67.4-1,.28l.28-.26c-1.33-.27-2,.65-3.13.82,0-.66-1-.86-1.57-1l0-.09c-1.55-.07-2.62.57-4,.85-.9-.71-3-.27-4.44-.65.22.12,0,.51-.28.58-.34-.13-.92.47-.87-.13h.12c-.26-.6-1-.43-1.48-.44l-.09.79c-1.41-1.14-3.67.45-4.44-.57-.34.2-.76.2-1.1.4l0-.43a10.32,10.32,0,0,0-2.57,0l.24-.3c-.66,0-.82,1.23-1.42,1.26l-.19-.64c-1.14,0-2.3-.53-3.42.05,0-.1,0-.28.23-.31-.54,0-2.08-.42-1.88.45,0-.57-1.18,0-1.79.2l.09-.42c-.52.54-.53.68-1.26.83-.17-.05-.15-.33.08-.22-.58-.22-.45.39-1.15.17l.26-.26c-.59,0-.54.11-.87.42s-1.12-.1-1.2-.48a.67.67,0,0,1-.75.43c-.05-.14.08-.23.14-.27-1-.28-1.47.48-2.15.07a.34.34,0,0,0-.11-.25,7.54,7.54,0,0,1,1.35.07c0-.39-.63-.46-.13-1-.5.29-1.37.92-2,.74a.41.41,0,0,1-.08-.13l.06,0a.53.53,0,0,0-.39.07A1.64,1.64,0,0,0,45,147c-.07-.32-.73-.17-1-.19,0,.42-.39.35,0,.7,0,0,.06,0,.27-.06,0,0,.1,0,.13,0l0,0,.79,0c-.25.22-.52.4-.86.16-.17.27-.35.55-.45.68-.43-.59-1.26-.91-1.38-1.27-1,.24-2.27.15-2.88,1-.27.1-.31-.23-.41-.36.15-.08.34-.06.43-.18-.55.21-1.63.08-1.76.63-.69-.25.39-.5-.56-.42l.13-.17c-1.86-.89-3,1.4-5.11.25.14.07.21.11.24.2-2.36-.52-4.87.45-7.19-.37-.66-.17-.74.19-1.14.45l-.14-.45-.7.51c-1,.38-1.69-1.12-2.93-.41l.15.3c-.44-.06-1.41.17-1.33-.18-.05.06-.15.32-.32.16l0-.24-1.1.39c-.84-.18.15-.94-1.09-1-.46.08-1.32.67-1.15.83s.48.16.49.39l-.43.12c-.08.7-.41,1.41.62,1.91l.72-.42.23.34-.61,0c.34.32.56,0,.81-.15a.57.57,0,0,0,.3.37l.71-.66c.09.28-.32.54.15.7.34-.31-.31-.62.24-.82.35.32.24.58.65.32a.29.29,0,0,1-.19.37c.36-.22.95-.09,1.14-.45.36.39,1.22-.09,1.18.57a1.82,1.82,0,0,1,1-.54c-.61.78,1.24.06,1.07.9.45-.7,1.62-.3,2.41-.68,0,.05-.13.17-.2.13.45.06.57.28.86.42.06-.59.76-.72,1.14-1.08.54.57-.34.69-.17,1.23,0-.48.95-.47.77-.87.41.36.36.18.57.66.08-.73.39-.12.74-.57.6.37.15.69.82.47C30.9,150.76,30.31,151,30.31,151Zm15.82-1.23h0l-.33,0Zm1.32,0a5,5,0,0,0-.57,0c-.05-.14,0-.29.13-.29C46.94,149.58,47.26,149.67,47.45,149.79Zm-2.81-2.93c.22-.06.29,0,.31.11l-.36.05,0,0A.66.66,0,0,1,44.64,146.86Z"/><path class="cls-1" d="M44.27,147.42l-.09,0a.6.6,0,0,0,.13.09l.07-.13Z"/><path class="cls-1" d="M164.58,145.31h0s0,0,.06.06S164.59,145.32,164.58,145.31Z"/><polygon class="cls-1" points="65.81 150.52 65.8 150.41 65.69 150.5 65.81 150.52"/><path class="cls-1" d="M172,146.41a.27.27,0,0,0,.11.1S172,146.45,172,146.41Z"/><path class="cls-1" d="M175.12,146.34l.45.13A3.09,3.09,0,0,0,175.12,146.34Z"/><path class="cls-1" d="M177.55,146.43a.45.45,0,0,0,0-.18h0Z"/><path class="cls-1" d="M139,148.61l-.1,0C138.66,148.72,138.81,148.69,139,148.61Z"/><path class="cls-1" d="M150.42,147.19a2.24,2.24,0,0,1-.36.21C150.27,147.42,150.42,147.42,150.42,147.19Z"/><polygon class="cls-1" points="126.15 149.55 126.15 149.54 126.07 149.55 126.15 149.55"/><path class="cls-1" d="M149.53,147.41a.69.69,0,0,0,.53,0A1.06,1.06,0,0,0,149.53,147.41Z"/><path class="cls-1" d="M188.08,146.06h.12a.17.17,0,0,1,0-.07Z"/><path class="cls-1" d="M188.21,146l.13-.05C188.28,146,188.23,146,188.21,146Z"/><path class="cls-1" d="M188.61,145.83l-.27.12C188.43,145.94,188.55,146,188.61,145.83Z"/><path class="cls-1" d="M184.86,146l0,.16A.35.35,0,0,0,184.86,146Z"/><path class="cls-1" d="M183.89,146.14c.23,0,.6.29.92.18l0-.12C184.69,146.43,184.09,145.87,183.89,146.14Z"/><path class="cls-1" d="M179.71,144.47l.83.08c-.15-.15-.35-.36,0-.42C179.5,143.7,180.79,144.48,179.71,144.47Z"/><path class="cls-1" d="M177.17,144.36c.43-.1,0-.23,0-.33C176.9,144.2,176.83,144.24,177.17,144.36Z"/><path class="cls-1" d="M158.84,145.23l0-.38C158.53,144.92,158.87,145,158.84,145.23Z"/><polygon class="cls-1" points="155.42 147.36 155.76 147.59 155.91 147.23 155.42 147.36"/><polygon class="cls-1" points="153.24 144.72 153.38 144.66 152.83 144.82 153.24 144.72"/><path class="cls-1" d="M122.47,146l.11.47C122.81,146.33,122.84,145.8,122.47,146Z"/><path class="cls-1" d="M109.19,146.8a.5.5,0,0,0-.76-.14C108.73,146.68,109,146.86,109.19,146.8Z"/><polygon class="cls-1" points="69.3 146.7 69.57 146.54 69.07 146.68 69.3 146.7"/><path class="cls-1" d="M178.75,22.36c-.08-.13-.37-.19-.42.06l.38.35Z"/><path class="cls-1" d="M177.2,23.54c.1.36.34.85.83.86-.31-.47-.1-.45-.48-1a.32.32,0,0,1,.48-.23c-.08-.13.26-.31,0-.56a.8.8,0,0,0-.57,1C177.35,23.73,177.27,23.59,177.2,23.54Z"/><path class="cls-1" d="M163,43l.15-.07A.51.51,0,0,0,163,43Z"/><path class="cls-1" d="M151.41,52.52c.09-.08.1-.15.08-.19S151.37,52.5,151.41,52.52Z"/><path class="cls-1" d="M149,53.52l.15-.06C149.08,53.45,149,53.47,149,53.52Z"/><path class="cls-1" d="M163,43l-.38.19C162.68,43.36,162.81,43.16,163,43Z"/><path class="cls-1" d="M176.86,27.13a.6.6,0,0,0,0-.26,1.43,1.43,0,0,1,0,.22Z"/><path class="cls-1" d="M167,37.85l.08-.1a1.24,1.24,0,0,0-.1-.2Z"/><path class="cls-1" d="M170,33.79c-.08.09.24.36.37.5a.41.41,0,0,1-.1-.37A.85.85,0,0,0,170,33.79Z"/><path class="cls-1" d="M174.8,27.36v-.15S174.8,27.32,174.8,27.36Z"/><path class="cls-1" d="M164.61,40.52l-.15-.06A.34.34,0,0,0,164.61,40.52Z"/><path class="cls-1" d="M31.6,79.14v-.08S31.56,79.14,31.6,79.14Z"/><path class="cls-1" d="M25.59,77.35l.08,0a1.93,1.93,0,0,0,0-.24Z"/><path class="cls-1" d="M144.82,55.56h0C144.92,55.46,144.87,55.5,144.82,55.56Z"/><path class="cls-1" d="M105.13,70.52c.55.29-.69.62.11.9C105.15,71.27,105.78,70.66,105.13,70.52Z"/><path class="cls-1" d="M176.75,27.23a1.21,1.21,0,0,1-.09.2A.43.43,0,0,0,176.75,27.23Z"/><path class="cls-1" d="M105.24,71.42h0l.09,0Z"/><path class="cls-1" d="M135.53,60.82a.52.52,0,0,0,.18.12S135.64,60.87,135.53,60.82Z"/><path class="cls-1" d="M142.89,57.66l-.2.05A.72.72,0,0,0,142.89,57.66Z"/><path class="cls-1" d="M132,63.06c-.11,0-.17,0-.28.09a.09.09,0,0,0,.06,0A.19.19,0,0,1,132,63.06Z"/><path class="cls-1" d="M128,64.68a.27.27,0,0,0,.11,0l.12-.07Z"/><path class="cls-1" d="M44.86,78.48a1.14,1.14,0,0,1-.21-.37C44.72,78.41,44.08,78.53,44.86,78.48Z"/><path class="cls-1" d="M176.64,27c.09.07.12.13.11.2l0-.14A.19.19,0,0,0,176.64,27Z"/><path class="cls-1" d="M133.14,66.2c-.23.07-.45.16-.68.22A3,3,0,0,0,133.14,66.2Z"/><path class="cls-1" d="M76.3,77.33l-.16.06A.17.17,0,0,0,76.3,77.33Z"/><path class="cls-1" d="M130.53,67.25a1.15,1.15,0,0,0-.48-.13.5.5,0,0,0,0,.13Z"/><path class="cls-1" d="M44.64,78.1h0Z"/><path class="cls-1" d="M40.1,79.24c.66,0,.3-.55.43-.88.78-.18.37.4.65.67.49-.16.85-.68,1.22-.67,0,.09.1.13,0,.24.51-.45,1.55-.06,2.14-.63a.27.27,0,0,1,.08.13,2,2,0,0,1-.11-.75c.3,0,.54-.37.66,0-.18,0-.19.14-.27.26l.3-.17c.3.51-.42.19-.4.58.6-.19,1.29-.64,1.76-.5.11.5-1.08.2-.45.63L45.41,78c.57.79-.44,0,.09.8,1,.12,1-.29,2-.16.21-.29-.08-.42.13-.71,1.33-.54,1.09,1.25,2.06.55.24-.34.33-1,1-.67l-.23.58c.92,0,.51-.84,1.48-.47-.17.23-.72.2-.58.27.63.44.43-.34.91-.35l.11.51c1-.11,2-.5,3.12-.63-.05.16-.23.32,0,.47a11,11,0,0,1,4.24.25l.49-.46c.12,0,.23.2.1.28.52.16,0-.28.26-.46s.4.25.21.38c.9-.4,2.56-.87,3.53-.44l-.18.13c.75.15.8-.93,1.51-.54l-.13.08c1.62.13,3.39-.34,4.65.26.2-.64,1.61.21,1.67-.68.94.39.69.56,2,.8.35,0,.49-.58.91-.7l0,.46L75.4,77l.35.53.39-.14c-.16,0-.35-.19-.34-.32a1.53,1.53,0,0,1,1.59.46l1.46-.48c0,.19-.27.27-.46.4.77-.52.18.48.88,0-.11-.1,0-.28,0-.37a2.64,2.64,0,0,0,1.81,0l-.09.32c1.11,0,2.32-.33,3.55-.42a.38.38,0,0,1,0-.75l.19.47c.21-.32-.4-.15,0-.56.47,0,.36.53.11.71l.55-.22c0,.14-.08.23-.1.42.2-.33,1,.39,1.3-.16l0,.14c1.23-.12,1.78-.34,2.79-.46,0-.43.38-.37.64-.74a10.6,10.6,0,0,0,2.5.14c.6-.29.14-.38.39-.66.09.37,1,.23.55.56a10.86,10.86,0,0,0,2.66-.73c-.17-.13-.34-.18-.27-.32.23-.1.57.08.56.27l-.06,0c1.43-.8,3.66.6,4.75-.38l-.06,0,1.17-.63c.59,0-.29.34.17.5,1.23-.86,2.14-.28,3.17-.89,1.07,1,3-.7,4.31-.23l-.12-.24c.24-.32.39.07.62.08-.07-.19-.37-.16-.22-.34a20.39,20.39,0,0,1,3.88-.81c1.33-.17,2.72-.22,4-.51,1-.2.15-1.48,1.5-1.21l-.2.57a9.55,9.55,0,0,1,2.77-1.1,11.12,11.12,0,0,0,2.72-1.15c-.07.14,0,.28-.2.34.5.21,1.42-.47,1.32-.75.3-.06.16.23.38.31.46.07.81-.76,1.13-.5.06,0-.06.15-.12.2.19-.25,1.16-.41.78-.7.74-.08,1.21-.68,1.83-.66.18-.56,1.23-.24,1.09-.89.21.64,1.39,0,1.68-.43-.06.25.44,0,.39.36.47-.22.85-.53.63-.81,1.2.35,1.48-1.38,2.4-.66,1.27-.93,2.41-1.82,3.57-2.59.26.62-1.33.75-1,1.36,1.05-.85,1.46-1.71,2.69-2.15.34-.07,0,.35-.08.5,1-.82,2.26-1.17,3.09-2.06,0,0-.05.17-.12.28.19-.14.51-.18.33-.44l-.15.19c-.54-.21.32-1.26.24-1.49.11,1,1.1-.38,1.14.89a.41.41,0,0,0,0-.51c.23-.06.35,0,.27.33.63-.56.21-.69.85-1.07.08.13,0,.27,0,.45a1.64,1.64,0,0,1,.92-1.14c0,.1.14.16,0,.26.89-.63,1.12-1.66,2.27-2.06.07.72.45,0,.82.38l.44-.49-.37-.08c.49-.29.63-.94,1.13-1.06l-.2.43.78-.71-.6.18c.28-.57-.46-.54.22-.85-.08.13.45-.32.88-.23h0c.12-.3.23-.62.64-.75.2.08.31.54.43.6-.06-.54,1-.88,1-1.48a.57.57,0,0,0,.22.42l-.05-.43c.27-.07.34,0,.45.16.64-.44-.63-.4.27-.75,0,.07,0,.1,0,.24.81-.47,1.21-1.33,2-1.73.55.27-.49.58,0,.76a36.73,36.73,0,0,1,2.46-2.86l-.21.1c-.42-.7.91-.32,1.09-1-.06.15.16.46.13.37a8.93,8.93,0,0,0,1.79-2.32l0,.25c.48-.2.94-.85,1.36-1.16,0-.26.18-.45-.15-.52a2.49,2.49,0,0,0,1.73-1.53c.37-.66.69-1.31,1.49-1.57-.11.13-.12.43,0,.33l.61-1.07c-.33-.15-.27,0-.63,0a1.07,1.07,0,0,1,.2-.85c-.15.57.44.35.74.28-.11,0-.15-.17-.25-.22.88-.11-.48-.52.38-.93l.11.15c.13-.31.12-.69.37-.92.41.13-.06.38.19.59.28-.4,0-1.2.57-1.31,0,.24-.21.46-.25.69.68-.1.62-.2.88-.46l0,0,.64-.56-.22.1c-.51-1.11.54-1.14.43-2.2.09,1,.24.32.58.62.22-.1.52-.29.58-.15-.09-.52.61-.38.46-1.13.14.06.25-.34.51-.07.19-.48-.28,0-.41-.17,0-.89,1.46-1.27,1.44-2.59.23-1-.12-1.38.1-2.27.36-.15.35.47.35.47A1.54,1.54,0,0,0,176,27c.07.14.22.11.42,0,.12-.35-.37-.46,0-.8a2,2,0,0,1,.37.59c.07-.46,0-1,.07-1.43.28,0,.24.41.32.63.11-.51.34-1.3,0-1.61l-.26.24c.05-.18.35.06.36.21.1.53-.39.51-.53.47l0-.33c-.91-.07-.41,1.22-.73,1.79l-.45-.53c.06.28.14.56.18.83-.21.05-.57,0-.5-.35-.5.26,0,.46-.5.64-.07,0-.08,0-.08-.07l-.06.48c-.07-.14-.42-.15-.21-.34-.71.52-.22,1.34-.78,1.37V28.8c-.36,1.07.35.32.41,1.31L172.9,30l.34.33c-.07.09-.22.27-.35.14.06.53.2,0,.34.4-.61.28-.66,1.39-1.34,1.11.18.35.52-.3.4.32-.76-.28-.27.64-.85.86-.25-.35.19-.63-.39-.41.4.63-.67.72-.8,1.14.44.33-.33.89-.58,1.59-.11-.14-1.07.87-1.63,1.26L168,36.7c.36.44-.15.91-.37,1.37a.64.64,0,0,1-.24-.68l-.28.36a.76.76,0,0,1-.09.65l-.24-.35c-.38.48-.37,1.31-1.14,1.7.26.29,1.24.23.86,1-.18-.11-.47-.32-.38-.54,0,.07,0,.31-.21.35l0-.47c-.36.16.09.33-.13.52-.22-.2-.3,0-.45-.17,0-.07.26-.1.25-.26a1.27,1.27,0,0,1-.91.32c.14.1.29.27.16.47-.4.47-.41-.08-.76.08.05.25-.37.39-.06.7-.12.14-.29,0-.43,0-.07.37-1,1.14-.38,1.2l.07,0,0,0h0c-.39,1.1-1.74,1.35-2.35,2.21l-.1-.11c-.34.56-.94,1-1.05,1.57-.13.13-.5.1-.56-.08-.26.41-.2.57-.89.82.2-.5-.28-.06.25-.45-.56.3-.82.21-1.06.94-.08-.44-.67-.07-.82.2l.51-.07a2.92,2.92,0,0,1-.71.58l-.2-.49c-1.35.32-1.06,2.3-2.48,2-.06.48.7-.21.71.29-.51.3-1.43.08-1.58.19-.8.24-.16,1-.94,1.36a.54.54,0,0,1,.14.91c-.51.3-1-.18-.79-.51.1-.1.19-.09.22,0,.11-.16.26-.37,0-.39l0,.19c-.34,0-1,.51-1,.16-.25.4,0,.35.34.23-.74.24-.95.67-1.69.94.15,0,.36.13.26.19-1.06.43-.23.55-.82,1-.52,0-.23-.63-.75,0-.49.1-.34-.34-.26-.57-.4.67-1.21.52-1.57.68l.23-.32a1.47,1.47,0,0,1-.45.39l.37.19c-.21.06-.37.16-.44,0-.07.32.45.41.25.92-.33,0-.66.61-1,.26.87-.31-.33-.36.29-.8a.79.79,0,0,1-.47.26c-.06,0,0-.1,0-.15-1,.07-.07.66-.85,1.09a.35.35,0,0,0-.53-.21c.31-.17.37.3.19.64-.6.11-.47.45-.74.58l.35-.09c0,.29-.24.41-.55.68-.13-.16.25-.31.08-.32-.16.64-1.11.09-1.5.67-.33,0-.26-.42-.54-.41-.46.62-.84,0-1.36.6.36.22.35.13,0,.67l1-.77-.45.81c.33-.16.58-.55.8-.59-.19.42-.2.33.1.51-.7-.25-.74.73-1.42.67L139,59.3c-1,0-1.16,1.1-2.26,1.41l.39,0c0,.39-.6.37-.87.65-.09-.28-.35-.28-.57-.39.11.19-.75.32-.6.9l-.62-.15c-.89.22-.6,1.19-1.44,1.46.11-.4-.33-.43.11-.88-.27.12-.53.17-.45.36-.23-.1-.58.7-.94.55-.06.17,0,.48-.28.58a.17.17,0,0,1-.06-.13c.06.13-.4.37,0,.57-1.19-.53-2.32,1-3.34.53a16,16,0,0,1-1.77.93c0-.1,0-.14.06-.15-.85,0-.17,1-1.14,1-.6-.3.37-.41,0-.48-.45-.88-1,.48-1.76.14l.12-.1c-.55-.16-1,.72-1.7.9a.19.19,0,0,0,0-.14A4.24,4.24,0,0,1,120,68.22c.11-.43.26-.28,0-.62-.3.15.28.57-.32.86-.27-.14-.78-.18-1-.56l.58-.19c-.45-.42-.76.24-1.1.25l0-.24c-.89.34-.74.91-1.74,1.16l.15.14c-.38.73-.54-.2-1,.36l-.32-.53A11.11,11.11,0,0,1,113.59,70c.26-.52,1-.92,1.35-1.29-.36.08-1.19.34-1.31.67.13-.09.28-.28.44-.22a2.3,2.3,0,0,1-1.55,1.09c-.14-1.15-1.91.18-2.63-.6-1.16.68-2.53.34-4,.71.69.77-.43.12-.16,1-.34.12-.47.12-.51.07l-1.15-.35c-.29-.22.29-.26.22-.46-.76.07-.38-.32-.92-.48.16.31-.18.51-.63.47l.68.31c-1,.66-1-.6-2,.06l.28-.34c-.51.27-2,.34-2.42,1.13-.12-.09-.28-.32,0-.42-1.32.08-2.79,1.2-3.87.9l.07-.24c-.24.11-.37.48-.71.29,0-.09.07-.23,0-.23s-.6.47-1,.38l.25-.29c-1.31-.13-1.89.85-3,1.13-.07-.66-1.1-.74-1.61-.8v-.1c-1.5.07-2.48.79-3.85,1.19-.92-.62-2.94-.06-4.36-.35.22.1,0,.51-.23.6-.34-.11-.87.53-.86-.08h.12c-.29-.57-1-.36-1.47-.35l0,.8c-1.44-1.07-3.56.64-4.37-.34-.32.22-.73.23-1,.45v-.43a9.69,9.69,0,0,0-2.5.06l.21-.32c-.64,0-.75,1.27-1.33,1.32l-.21-.63c-1.11.07-2.26-.45-3.34.17,0-.1,0-.28.22-.31-.53,0-2.05-.36-1.83.51,0-.57-1.15,0-1.74.25l.08-.42c-.5.55-.51.7-1.21.87-.17-.05-.16-.33.07-.23-.57-.2-.43.41-1.12.2l.25-.27c-.58,0-.53.13-.84.45s-1.1-.07-1.19-.45a.66.66,0,0,1-.73.45c0-.14.07-.23.14-.28-1-.25-1.43.53-2.1.13a.36.36,0,0,0-.12-.24,8,8,0,0,1,1.33,0c0-.39-.64-.44-.16-1-.49.3-1.32.95-1.93.79a.57.57,0,0,1-.08-.13l.06,0a.55.55,0,0,0-.38.07,1.59,1.59,0,0,0-.51-.1c-.08-.32-.71-.15-1-.16,0,.42-.37.36,0,.7,0,0,0,0,.26-.07l.13,0,0,0,.77,0c-.24.22-.49.41-.84.18a6,6,0,0,1-.42.69c-.43-.57-1.26-.87-1.38-1.23-.94.26-2.22.21-2.8,1-.26.11-.31-.22-.42-.34.16-.09.34-.08.42-.2-.53.22-1.59.12-1.7.68-.68-.23.37-.52-.56-.4l.12-.18c-1.86-.83-2.94,1.5-5,.42.14.06.21.09.24.18-2.33-.42-4.75.62-7.06-.08-.66-.14-.72.22-1.1.5L33.87,76l-.66.55c-.94.42-1.71-1-2.9-.27l.18.3c-.44,0-1.38.25-1.32-.1-.05,0-.13.32-.31.17l0-.24-1.06.47c-.84-.13.08-.95-1.14-.93-.44.11-1.24.75-1.06.9s.47.12.5.36l-.41.15c0,.7-.3,1.43.73,1.86l.68-.46.24.33-.59,0c.36.3.55,0,.78-.2a.58.58,0,0,0,.32.36l.65-.7c.1.26-.28.55.19.68.31-.33-.34-.6.18-.83.35.3.27.57.65.27a.3.3,0,0,1-.17.39c.34-.24.93-.14,1.09-.52.37.37,1.18-.16,1.18.5a1.79,1.79,0,0,1,.92-.58c-.56.81,1.21,0,1.09.85.4-.73,1.56-.38,2.32-.81,0,.06-.13.18-.2.15.44,0,.58.25.86.37,0-.59.71-.74,1.06-1.12.56.55-.3.7-.11,1.24,0-.47.91-.5.71-.89.43.33.36.15.59.63,0-.73.38-.13.7-.59.6.34.17.68.82.43C40.67,79,40.1,79.24,40.1,79.24Zm15.43-1.69h0l-.32,0Zm1.3,0a5.21,5.21,0,0,0-.56,0c-.05-.14,0-.29.12-.29C56.32,77.32,56.63,77.4,56.83,77.51ZM54,74.66c.21-.06.28,0,.31.11a2.06,2.06,0,0,0-.36.06l0,0A1.14,1.14,0,0,1,54,74.66Z"/><path class="cls-1" d="M53.65,75.23l-.09,0,.13.09.07-.13Z"/><path class="cls-1" d="M163.14,43h0Z"/><polygon class="cls-1" points="74.86 77.63 74.85 77.52 74.74 77.62 74.86 77.63"/><path class="cls-1" d="M168.94,38.51a.18.18,0,0,0,.14,0A.37.37,0,0,0,168.94,38.51Z"/><path class="cls-1" d="M170.94,36.1l.37-.28A1.93,1.93,0,0,0,170.94,36.1Z"/><path class="cls-1" d="M172.46,34.22a.43.43,0,0,0-.12-.14h0Z"/><path class="cls-1" d="M144.43,60a.22.22,0,0,0-.07.06C144.21,60.27,144.32,60.17,144.43,60Z"/><path class="cls-1" d="M153.44,53a1.48,1.48,0,0,1-.18.38C153.45,53.3,153.58,53.21,153.44,53Z"/><polygon class="cls-1" points="133.21 66.17 133.21 66.16 133.14 66.2 133.21 66.17"/><path class="cls-1" d="M152.83,53.7a.65.65,0,0,0,.43-.31A1.1,1.1,0,0,0,152.83,53.7Z"/><path class="cls-1" d="M177.8,25.19l.06-.1-.05,0Z"/><path class="cls-1" d="M177.81,25.05v-.14C177.79,25,177.77,25,177.81,25.05Z"/><path class="cls-1" d="M177.84,24.62l0,.29C177.86,24.82,177.92,24.72,177.84,24.62Z"/><path class="cls-1" d="M176.23,28l.11.1A.27.27,0,0,0,176.23,28Z"/><path class="cls-1" d="M175.79,28.86c.14-.19.57-.36.65-.69l-.1-.08C176.47,28.33,175.67,28.54,175.79,28.86Z"/><path class="cls-1" d="M172.16,31.37a6,6,0,0,0,.52-.61c-.21,0-.49.08-.34-.25C171.42,31.11,172.77,30.54,172.16,31.37Z"/><path class="cls-1" d="M170.58,33.28c.18-.4-.2-.13-.26-.2C170.29,33.39,170.29,33.46,170.58,33.28Z"/><path class="cls-1" d="M158.9,46.57l-.22-.32C158.48,46.52,158.78,46.37,158.9,46.57Z"/><polygon class="cls-1" points="157.57 50.29 157.97 50.26 157.87 49.89 157.57 50.29"/><path class="cls-1" d="M154.3,49.45l.08-.13c-.11.15-.22.31-.34.45A4,4,0,0,0,154.3,49.45Z"/><path class="cls-1" d="M128.55,64.05l.27.41C129,64.3,128.84,63.79,128.55,64.05Z"/><path class="cls-1" d="M116.49,68.59a.5.5,0,0,0-.75,0C116,68.6,116.36,68.69,116.49,68.59Z"/><polygon class="cls-1" points="78.08 73.63 78.33 73.46 77.85 73.62 78.08 73.63"/><path class="cls-1" d="M179.59,33.24c.13,0,.4-.14.33-.16l-.48.14Z"/><path class="cls-1" d="M180.36,32.66a4.75,4.75,0,0,0-1.08.3c.47-.11.28,0,.84-.17.07,0-.13.12-.3.18.12,0-.08.1.22,0s.33-.25,0-.21A3,3,0,0,1,180.36,32.66Z"/><path class="cls-1" d="M180,28.6l-.05,0Z"/><path class="cls-1" d="M179.87,26.14s.07,0,.11,0A.13.13,0,0,0,179.87,26.14Z"/><path class="cls-1" d="M180.36,25.67l0,0S180.4,25.67,180.36,25.67Z"/><path class="cls-1" d="M180,28.6l.14-.1C180,28.53,180.05,28.56,180,28.6Z"/><path class="cls-1" d="M179,32.51a.32.32,0,0,0,.14,0l-.06,0Z"/><path class="cls-1" d="M180.66,29.55v0l.2,0Z"/><path class="cls-1" d="M180.94,30.33a3.65,3.65,0,0,0-.58.12l.29,0Z"/><path class="cls-1" d="M180.61,31.8h0Z"/><path class="cls-1" d="M180.61,29l.15,0Z"/><path class="cls-1" d="M167.48,29l0-.06Z"/><polygon class="cls-1" points="165.56 27.76 165.56 27.73 165.44 27.53 165.56 27.76"/><path class="cls-1" d="M180.82,24.87h0C180.87,24.89,180.86,24.88,180.82,24.87Z"/><path class="cls-1" d="M177.49,18.58c0,.45-.31.76-.27,1.23C177.24,19.6,177.56,18.83,177.49,18.58Z"/><path class="cls-1" d="M179.09,32.47s0,0,0,0S179.07,32.47,179.09,32.47Z"/><path class="cls-1" d="M177.22,19.81h0v0Z"/><path class="cls-1" d="M180.44,22.56l-.18.1A.88.88,0,0,0,180.44,22.56Z"/><path class="cls-1" d="M179.93,24.51l.06,0A.1.1,0,0,0,179.93,24.51Z"/><path class="cls-1" d="M179.86,21.72s.09-.1,0-.1l0,.05C179.9,21.64,179.93,21.64,179.86,21.72Z"/><path class="cls-1" d="M179.89,20.58l-.09.11h0Z"/><path class="cls-1" d="M169.27,27.71a2.49,2.49,0,0,1-.23-.31C169.2,27.65,169.17,27.8,169.27,27.71Z"/><path class="cls-1" d="M179.27,32.44a.38.38,0,0,1-.18,0l0,0Z"/><path class="cls-1" d="M176.57,24l.06-.06S176.57,24,176.57,24Z"/><path class="cls-1" d="M173.69,25V25S173.71,25,173.69,25Z"/><path class="cls-1" d="M176.57,23.94a2.75,2.75,0,0,1,.29-.27l-.11.09Z"/><path class="cls-1" d="M169,27.4Z"/><path class="cls-1" d="M168.91,28.65c.1,0-.24-.49-.39-.77,0-.21.27.31.45.53,0-.17-.21-.63-.15-.65A1.28,1.28,0,0,1,169,28c-.16-.43.21-.16,0-.68l.09.11c-.16-.23-.31-.47-.41-.64s-.1-.35.1-.05c0,0,0,.13.09.24l0-.16c.31.42,0,.19.23.52,0-.2-.12-.63,0-.55.28.43-.06.24.26.58l-.2-.11c.49.64-.1,0,.42.68.21.05,0-.31.23-.26-.12-.26-.23-.35-.34-.61-.08-.56.81,1,.6.33-.14-.31-.46-.87-.19-.64l.27.52c.16,0-.36-.76,0-.51.1.21,0,.23.05.27.33.34-.1-.31,0-.36l.28.43c.1-.15.06-.56.17-.73a1.37,1.37,0,0,0,.24.4c.06-.34.45-.2.79-.06l-.16-.42a.62.62,0,0,1,.16.24c.16.1-.14-.24-.19-.41s.18.18.23.31c-.07-.4-.06-.91.32-.59L172,26c.19.09-.35-.84,0-.55l0,.08c.33,0,.37-.48.89,0-.3-.56.37.11-.07-.66.36.3.4.46.74.6.07,0-.22-.52-.2-.64l.24.4-.17-.47.33.45V25a.91.91,0,0,1-.22-.26c0-.23.39.14.51.34v-.46a1.08,1.08,0,0,1,.12.36c-.13-.47.28.4.16,0a2.69,2.69,0,0,1-.19-.32c.2.21.32.14.34,0l.15.29c.2,0,.25-.33.43-.44a1.49,1.49,0,0,1-.39-.64l.28.4c-.13-.28-.15-.12-.28-.48.1,0,.33.45.38.61v-.2c.08.13.1.2.19.36-.12-.27.4.34.17-.14l.08.12c.18-.1.17-.29.3-.4-.22-.36-.11-.32-.25-.63a2.58,2.58,0,0,1,.31.13.65.65,0,0,0,.15.05s0,0,0,0c-.07-.2-.16-.32-.26-.56a2.6,2.6,0,0,1,.3.55,1.77,1.77,0,0,0,0-.45,2.91,2.91,0,0,1-.12-.35c0-.08.09.14.13.33v0c0-.32.11-.08.16.18s.07.52.1,0v0q0-.26.09-.54c0,.07-.05.37-.05.65.14-.84.05.08.19-.51-.14.75-.14.73-.09.62s.14-.32,0,.22l.14-.4c.15-.4-.08.22-.11.32l.21-.58c.14-.28.16-.17.07.08a6.35,6.35,0,0,1-.42.87c.09-.14.2-.35.39-.67.35-.6.74-1.25.35-.56l-.49.81c.29-.47.29-.41.27-.35s0,.12.2-.16c-.11.13-.21.27-.26.32-.35.47,0,0,.27-.28,0,.05-.26.32-.4.5s.44-.49.09-.08l-.14.15a4.8,4.8,0,0,0,.37-.37c-.2.23.17-.11-.06.15.45-.39-.22.23.42-.3-.66.56-.54.47-.22.28-.2.13-.21.16-.49.35l.47-.28c-.39.27-.23.17-.1.13s.24-.07-.27.17a1,1,0,0,1,.77,0c-.67.11-.07-.1-.77.08.27,0,.85-.09.7.11s-.3,0-.41,0c.29.21,0,.44.35.62l-.19,0s-.09.1.22.07l-.09,0a4.6,4.6,0,0,1,1.18.06c-.89,0-.2.21-1.32.21a1.22,1.22,0,0,0,.41,0,.63.63,0,0,1-.41.05c.18.13.5,0,.51.17-.15,0-.21,0-.39,0,.3,0,.59.07.48.19s-.21,0-.21,0c.07.18.8.23.55.46-.65,0-.2.09-.76.17l.18.09.27-.08c0,.1.41.13.24.23l-.24,0,.13.16.2-.12c.3.05.7-.11.56,0-.06,0,0,.09-.31.18h0c.18,0,.37,0,.24.13s-.61.08-.73.1c.47,0,.17.21.67.19a4.53,4.53,0,0,0-.47.05l.38,0a.8.8,0,0,1-.4.11c0,.14.69-.15.41.05,0,0-.08,0-.14,0-.14.18.28.26.12.43-.55.14-.16-.1-.62,0,.14.19.74.31.65.53l0-.05c.79-.12-.36.22,0,.25a1.39,1.39,0,0,0-.35,0c-.1.16.25.24.54.39h-.21c-.16.12-.06.24-.13.34a1.09,1.09,0,0,0,.47-.06c-1.08.53.72.36-.17.81,0,0-.19,0-.18,0l.23.16a2.17,2.17,0,0,0,.45-.19c.2,0,.37,0,.38,0a1.49,1.49,0,0,0-.71.22l.32-.07c-.57.25.68-.16.31.08l-.18,0c.11,0,.35,0,.32.08-.39.13-.2,0-.52.08,0,.07.77,0,.41.13-.12,0-.13,0-.25-.06-.43.2-.32.18-.37.26h0l-.17.19.11-.07c1-.18.24.15.94.1-.66.05-.37.08-.81.2a1.22,1.22,0,0,1-.36.18c.37,0-.24.18.3.12-.14.05,0,.07-.35.16.13.06.23-.09.41-.13.52,0-.49.47.22.45.32.08.8-.05,1.08,0a1.23,1.23,0,0,1-.52.12c-.18.15-.12.19.06.21a1.8,1.8,0,0,0-.37.15c.05,0,.52-.13.34,0l-.58.13c.15,0,.43,0,.58,0a1.36,1.36,0,0,1-.54.11.87.87,0,0,0,.68,0l.12-.1s-.33.13-.4.13c-.33,0,.09-.14.23-.19l.11,0c.79-.33-.2-.16-.19-.28l.61-.15-.53.06a1.48,1.48,0,0,1,.58-.18c.27-.17-.23,0,.07-.16a.18.18,0,0,1,.11,0l-.2,0c.13,0,.42-.14.34-.07.31-.24-.51-.06-.07-.25h0c-.26-.11-.44.12-1,.14l1.05-.42-.44.12s0-.07.21-.11c-.32,0-.19.06-.48.11.37-.21-.26-.19.43-.41-.34.06-.23.16-.49.13.75-.24-.16-.07.16-.25s.21.05.54-.13c-.67.14.1-.2,0-.23-.52.15-.26-.08-.46-.14.18-.05.23-.3.4-.45l.09,0c-.54.12-.47,0-.6-.07a2.06,2.06,0,0,1,.6-.08l0-.08a.62.62,0,0,1-.34,0l.4-.08c-.05-.1-.52-.09-.28-.28a4.25,4.25,0,0,1-1.3.27,2.87,2.87,0,0,1,.64-.12s-.18,0-.1-.05l.35,0c.14-.09-.29,0-.27,0,.29-.07.2-.08.43-.13,0,0-.11.07,0,.06a.93.93,0,0,1,.41-.24,1,1,0,0,1-.44.06c0-.09.34-.11.48-.2-.21,0,0-.09-.45,0,0,0,.2-.08.31-.12-.2,0-.1-.22-.55-.07l0,0h0c-.46-.08.18-.41,0-.53l.14,0c-.19-.07-.14-.21-.47-.22a1,1,0,0,1,.43-.14c-.12-.06-.29,0-.07-.19.27,0,.23-.07.21.05.1-.13.33-.19-.08-.23.38,0,.45-.15.33-.18l-.25.12c-.07,0,0-.1,0-.15l.5-.06c.57-.29-1.08-.2-.1-.51-.35,0-.22.15-.64.16.06-.1.75-.3.75-.33.25-.17-.74,0-.57-.18a1.91,1.91,0,0,1-.82.05,1.6,1.6,0,0,1,.87-.18s0,0-.1.05a.45.45,0,0,0,.34,0l-.18,0c.17-.07.14-.2.43-.21a.42.42,0,0,0-.38.08c.24-.16,0-.19.14-.34a.72.72,0,0,1-.3.06c.2-.21-.34,0-.44-.16.27-.1.65,0,.41-.14a1.23,1.23,0,0,1,.62-.06c-.35-.07.2-.23.26-.3l.15.05c-.09,0-.09-.06-.09-.09l-.36.07a.28.28,0,0,1,.21-.08,8,8,0,0,1-.91.05c.17-.07-.21-.13.26-.19-.15.16.47-.06.56.06s-.06-.05,0-.09a.47.47,0,0,1,.12,0c.41-.17-.54,0-.54-.15.27,0,.5-.08.44-.1s-.44.07-.64,0c.2-.11-.17-.09-.15-.14l-.09.07c-.26,0-.23,0-.32-.11.2,0,.14.05.23,0-.47,0,.47-.2.15-.28.18-.06.5,0,.62-.09-.35-.11.36-.09.06-.28-.35.09-.27.08-.62,0,0,0,.09.13.13.15l.14.08L179.7,24c0,.06.23.11.17.15a1,1,0,0,0-.5,0c.53-.11-.32-.14,0-.31l.88-.1c.38-.33-.47-.34-.26-.68l-.15.14c-.35.07,0-.16-.2-.2a1.93,1.93,0,0,0,.58-.31c-.22.1,0-.24-.57,0l.39-.32c.16-.35-.84.18-.74-.05.32-.14.53-.38.76-.36,0-.08.06-.19-.14-.06.18-.18-.4.06-.12-.2-.13.06-.45.28-.42.19a1.17,1.17,0,0,1,.15-.12,1.84,1.84,0,0,0-.54.36c.47-.45.46-.6.43-.71s-.08-.19.34-.7a.41.41,0,0,1-.21-.26c.09-.09.16-.17.12-.11.3-.54-.89.93-.56.36.51-.73.27-.23.47-.53,1-1.31-.13-.09.48-1l.06,0c.37-.62-.38.22-.3-.07,0,0,.1-.13.16-.23a2.87,2.87,0,0,1-.84.8,9.84,9.84,0,0,0,.64-1s-.68,1.1-.79,1.16c.23-.41.44-.84.89-1.62l0,.12c.59-1,0-.18.1-.43l.25-.42s0,0-.1.06a7.91,7.91,0,0,1-.77,1l-.16.3c-.65,1.08.23-.52-.28.3l.51-1c-.22.3-.76,1.13-1,1.38a18,18,0,0,1,1.09-1.75,2,2,0,0,0-.59.75c.08-.11.23-.38.19-.24a5.46,5.46,0,0,1-.87,1.32c.85-1.85-.14-.25.27-1.54-.52.82-.51.1-.93.44-.18,1.15-.12.09-.39,1.33-.08.12-.1.12-.09,0a5.59,5.59,0,0,0-.08-.59c0-.31.12-.31.16-.58-.17,0,0-.46-.08-.69,0,.41-.16.65-.25.56,0,.14.06.29.08.44-.32.77-.12-.83-.46-.05l.12-.41c-.16.29-.58.34-.67,1.26a.87.87,0,0,1,0-.48c-.18,0-.35.37-.48.64s-.26.46-.44.3l0-.23c-.05.1,0,.47-.12.3s-.05-.23-.08-.23,0,.47-.15.4l0-.28c-.44-.08-.26.88-.31,1.09-.34-.57-.6-.66-.73-.71l0-.08c-.26.06-.08.69-.15,1-.49-.54-.57,0-1-.23a1.53,1.53,0,0,1,.26.53c-.11-.09.11.47-.19-.06h0c-.35-.48-.36-.29-.44-.26l.4.69c-.8-.87-.29.67-.94-.15.06.2,0,.23.06.43l-.22-.36c-.19,0-.28,0-.39.16L170.9,22c-.1,0,.53,1.12.45,1.19l-.35-.53c-.15.11-.6-.27-.46.32a.83.83,0,0,1-.13-.28c-.08,0-.51-.19,0,.54-.29-.49-.19.05-.15.31l-.2-.36c.2.5.28.63.25.81-.05,0-.19-.27-.1-.2-.2-.14.14.38-.07.25l-.11-.25c-.09,0,0,.14.1.43s-.21,0-.42-.31c.11.2.23.49.12.43a.74.74,0,0,1-.12-.25c-.29-.16,0,.54-.26.25a.87.87,0,0,0-.15-.2c.12-.06.22-.09.23-.06a3.73,3.73,0,0,1-.53-.83c.08.29.28.9.1.8l-.08-.11v0s0,0,0,.08-.1-.06-.13-.05c-.18-.27-.19-.09-.25-.07.23.35.13.33.37.6a.06.06,0,0,1,0-.08s0,0,0-.05v0l.1-.09c.07.2.13.38,0,.21.12.25.24.5.29.62-.36-.47-.64-.67-.85-1a1.2,1.2,0,0,0,.09,1.05c0,.11-.16-.16-.24-.26s0-.09,0-.19c0,.22-.18.2.08.69-.22-.16-.21-.47-.29-.31l-.07-.16c-.72-.6.31,1.46-.57.67a.69.69,0,0,1,.14.15c-.59-.23-.44.81-1.17.33-.18-.08,0,.22.08.49l-.26-.38.18.51c.06.41-.81-.81-.61-.08l.18.24c-.09,0-.1.28-.27,0,0,.05.14.28,0,.16l-.12-.2.06.44c-.21-.07-.47-.81-.67-.75a2.22,2.22,0,0,0,.28.82s.15.09.27.29v.14a6.49,6.49,0,0,0,1.07,1.57l-.12-.42.21.27-.07.07c.21.24.09,0,0-.21a2.15,2.15,0,0,0,.23.3l-.25-.63c.16.22.24.49.39.58-.12-.3-.37-.5-.4-.72.22.24.34.47.25.2a1.16,1.16,0,0,1,.17.34c-.06-.22.09-.16-.08-.49.25.3.11-.19.45.38a1.76,1.76,0,0,1-.15-.55c.33.72.2-.07.62.67-.31-.64.06-.41,0-.81,0,0,.07.16,0,.13s.22.19.33.28a4.65,4.65,0,0,1-.41-1c.37.43.31.61.62,1.06-.25-.4-.12-.48-.35-.81a2.9,2.9,0,0,1,.42.52c-.37-.64,0-.14-.19-.56.27.26.38.58.35.33A1.08,1.08,0,0,1,168.91,28.65Zm1.53-2.42h0l0,.05Zm.18-.12a.11.11,0,0,0-.08,0c-.09-.12-.16-.25-.13-.25S170.53,26,170.62,26.11Zm-1.9-2.26c0-.07.05,0,.1.07a.15.15,0,0,0,0,.07l0,.05Z"/><path class="cls-1" d="M169,24.36s0,0,0,0l.07.07-.06-.12Z"/><path class="cls-1" d="M180,28.64h0l-.06,0Z"/><polygon class="cls-1" points="173.59 25.25 173.54 25.16 173.57 25.25 173.59 25.25"/><path class="cls-1" d="M178.83,30.13l-.11.05Z"/><path class="cls-1" d="M178.87,30.67l-.13.11A.56.56,0,0,0,178.87,30.67Z"/><path class="cls-1" d="M178.78,31.12l.17,0h0Z"/><path class="cls-1" d="M177.12,24.77l0,0C177,24.72,177.05,24.75,177.12,24.77Z"/><path class="cls-1" d="M178.32,26.58l-.21,0S178.08,26.62,178.32,26.58Z"/><polygon class="cls-1" points="176.56 24 176.57 24 176.57 24 176.56 24"/><path class="cls-1" d="M178.11,26.46c-.08.05-.06.07,0,.09S178.17,26.48,178.11,26.46Z"/><path class="cls-1" d="M179.13,32.87v0l.06,0Z"/><path class="cls-1" d="M179.18,32.88h0S179.23,32.86,179.18,32.88Z"/><path class="cls-1" d="M179.35,32.89h-.12S179.23,32.92,179.35,32.89Z"/><path class="cls-1" d="M179.14,32.29l-.15.05Z"/><path class="cls-1" d="M179.05,32.15c0,.05-.28.2-.18.22l.12,0C178.77,32.38,179.3,32.11,179.05,32.15Z"/><path class="cls-1" d="M180.65,31l-.08.16c.15-.07.35-.16.41-.12C181.4,30.71,180.64,31.14,180.65,31Z"/><path class="cls-1" d="M180.77,30.5c.09.05.23-.06.32-.08A.43.43,0,0,0,180.77,30.5Z"/><path class="cls-1" d="M180.11,27.68l.38-.06C180.43,27.58,180.35,27.65,180.11,27.68Z"/><polygon class="cls-1" points="178.06 27.46 177.84 27.56 178.19 27.53 178.06 27.46"/><polygon class="cls-1" points="180.71 26.7 180.77 26.71 180.62 26.65 180.71 26.7"/><path class="cls-1" d="M180.27,20.41l-.49.5C179.86,20.88,180.41,20.39,180.27,20.41Z"/><path class="cls-1" d="M179.7,18c.2-.4.26-.61,0-.18C179.72,17.84,179.61,18.13,179.7,18Z"/><polygon class="cls-1" points="172.12 21.71 172.07 21.55 172.07 21.71 172.12 21.71"/><path class="cls-2" d="M129.35,20.83c.1.08.37.19.35.09l-.43-.25Z"/><path class="cls-2" d="M130.38,20.75a2.45,2.45,0,0,0-1-.56c.41.27.22.21.7.52,0,.09-.19.05-.36,0,.11.08-.14.06.13.23s.45,0,.21-.28A.91.91,0,0,1,130.38,20.75Z"/><path class="cls-2" d="M132.55,13.56l-.06,0A.1.1,0,0,0,132.55,13.56Z"/><path class="cls-2" d="M132,8.42a.08.08,0,0,0,.11,0S132,8.38,132,8.42Z"/><path class="cls-2" d="M132,6.91V7C132.06,6.94,132.06,6.89,132,6.91Z"/><path class="cls-2" d="M132.55,13.56l.15-.13C132.54,13.43,132.58,13.5,132.55,13.56Z"/><path class="cls-2" d="M129.63,19.4a.24.24,0,0,0,.1.1.21.21,0,0,1,0-.07Z"/><path class="cls-2" d="M132.87,15.7v0l.2,0Z"/><path class="cls-2" d="M132.71,17.34a2.75,2.75,0,0,0-.56-.17.71.71,0,0,1,.27.13A1.68,1.68,0,0,0,132.71,17.34Z"/><path class="cls-2" d="M131.36,19.65l0,.06A.21.21,0,0,1,131.36,19.65Z"/><path class="cls-2" d="M133,14.53h.15A.38.38,0,0,0,133,14.53Z"/><path class="cls-2" d="M130.31,18.93V19S130.32,18.93,130.31,18.93Z"/><polygon class="cls-2" points="131.86 21.13 131.83 21.15 131.82 21.39 131.86 21.13"/><path class="cls-2" d="M131.44,4.16v0C131.5,4.17,131.48,4.15,131.44,4.16Z"/><path class="cls-2" d="M124.22,13.83c.4.48.3.57.77,1.11A12.93,12.93,0,0,0,124.22,13.83Z"/><path class="cls-2" d="M129.69,19.39a.14.14,0,0,1,0-.06S129.68,19.37,129.69,19.39Z"/><path class="cls-2" d="M125,14.94h0L125,15Z"/><path class="cls-2" d="M127.24,6.32a.65.65,0,0,0,.11.15A.77.77,0,0,0,127.24,6.32Z"/><path class="cls-2" d="M130.25,5.14l-.06,0A.06.06,0,0,0,130.25,5.14Z"/><path class="cls-2" d="M126.3,8.33s-.1,0-.1.09h0S126.22,8.33,126.3,8.33Z"/><path class="cls-2" d="M125.5,9.84h.09V9.79Z"/><path class="cls-2" d="M126.74,18.29c0,.12,0,.25-.07.38C126.75,18.38,127,18.33,126.74,18.29Z"/><path class="cls-2" d="M129.85,19.48a.47.47,0,0,1-.16-.09.06.06,0,0,0,0,0A.37.37,0,0,0,129.85,19.48Z"/><path class="cls-2" d="M128.85,10.51h-.06S128.85,10.52,128.85,10.51Z"/><path class="cls-2" d="M119.61,13.58h.07S119.65,13.56,119.61,13.58Z"/><path class="cls-2" d="M128.7,10.8a.76.76,0,0,0-.3,0l.09.06Z"/><path class="cls-2" d="M126.66,18.67h0Z"/><path class="cls-2" d="M128.15,18.08c-.16-.06-.22.5-.34.8-.26.09,0-.42,0-.71-.17.1-.41.57-.51.51a.55.55,0,0,1,.07-.22c-.27.37-.41-.12-.75.35a.59.59,0,0,1,0-.14,5.91,5.91,0,0,1-.22.73c-.08,0-.27.28-.18-.07,0,0,.1-.11.16-.21l-.14.12c.1-.52.18-.13.31-.5-.22.11-.56.44-.64.25.16-.48.35,0,.35-.53l.12.25c.13-.8.1.09.26-.76-.19-.23-.36.14-.55-.09-.16.24-.13.39-.3.63-.55.33.23-1.28-.29-.77-.2.28-.49.85-.53.46l.3-.5c-.2-.15-.48.69-.56.23.14-.18.27-.09.26-.17,0-.48-.25.25-.38.19l.21-.47c-.28-.05-.71.14-1,.07a.88.88,0,0,0,.23-.41c-.45,0-.68-.45-.8-.91l-.36.29s.06-.19.14-.25c0-.21-.16.23-.31.34s.05-.27.17-.35c-.42.18-1.06.24-1-.3l.12-.07c-.05-.27-.74.57-.64.13l.08,0c-.22-.44-.89-.45-.68-1.19-.49.42-.13-.5-.77.11.13-.49.29-.55.26-1,0-.1-.5.28-.65.25l.34-.31-.47.21.36-.44h-.16a.63.63,0,0,1-.2.29c-.27,0,0-.53.15-.69l-.57,0a1,1,0,0,1,.37-.14c-.39.11,0-.15,0-.22l-2.16,3.41s0,0,.12-.09a1.3,1.3,0,0,1,.11-.35A.34.34,0,0,0,118,16l-.11.3c.31.16.72,0,1.08.11-.09-.18.06-.71.18-.73l-.07.48c.14-.28-.07-.21.16-.53.12.09,0,.56-.15.7l.2-.13a3,3,0,0,1-.13.39c.14-.28.17.55.39.06l0,.14c.36.09.57,0,.87,0,.1-.41.2-.29.36-.6.19.18.36.56.63.59.23-.16.13-.34.27-.56-.07.38.2.4,0,.64a1.42,1.42,0,0,0,.89-.19c0-.16,0-.24,0-.36s.12.2.07.37l0,0c.32-.22.71.16,1.12.51s.95.72,1.15.35l0,0a4.38,4.38,0,0,0,.45-.32c.31.14,0,.28.28.6.21-.28.45-.2.75-.07s.59.27.69.07a2,2,0,0,0,1.49.84,1.94,1.94,0,0,1,1.38.49l-.41-.38c-.27-.36.35.23.55.34a5.56,5.56,0,0,1-.65-.57.34.34,0,0,1,.34-.12,8.7,8.7,0,0,1-.54-1.92c-.07-.32-.16-.68-.25-1a8.85,8.85,0,0,0-.2-1c-.2-.7-1.64-.7-1-1.22l.51.24a5,5,0,0,1-.27-.63.92.92,0,0,1,0-.33.74.74,0,0,0-.1-.69c.11,0,.25.08.24.12.37,0,.09-.31-.19-.4.06,0,.27.06.42.06s-.37-.35,0-.29a.22.22,0,0,1,.13.09c-.16-.12.13-.24-.28-.33.24-.08-.05-.37.22-.39-.38-.28.33-.15-.24-.48.63.27.52.17.3-.07.15.14.18.11.4.3a1.82,1.82,0,0,0-.33-.39c.31.27.2.14.14,0s-.08-.3.21.2a1.76,1.76,0,0,1,0-1.2c.11.92-.14.22.07,1.11,0-.37,0-1.28.15-1.15a3.61,3.61,0,0,1,0,.63c.13-.5.16,0,.4-.68,0,.11-.07.23-.1.33s0,.14.14-.38l-.06.15a10.21,10.21,0,0,1,.64-2,5,5,0,0,0-.28,1.21,10.5,10.5,0,0,1-.34,1.08v0c0-.09.12-.3.23-.63a4.22,4.22,0,0,1-.21.67c.12-.19.29-.71.33-.6l-.23.53c.18-.4.39-.73.35-.46a2.11,2.11,0,0,1-.14.25c.06,0,.64-.64.52-.1-.51.59-.14.28-.58.81l.15-.08.21-.27c0,.08.38-.15.26.08l-.22.1.14.09.15-.25c.29-.08.61-.5.53-.21-.06,0,0,.16-.25.39h0c.18,0,.37,0,.27.12s-.58.23-.69.29c.45-.13.18.16.67.14a1.82,1.82,0,0,0-.46.08l.38,0c-.1.1-.16.12-.39.16,0,.23.68-.21.43.11,0,0-.08,0-.15,0-.11.29.34.47.18.74-.54.15-.16-.19-.62,0,.14.31.78.61.67,1l.05-.07c.8,0-.37.29,0,.43a1.17,1.17,0,0,0-.35,0c-.11.24.23.46.48.81l-.2,0c-.18.14-.1.36-.19.51.2,0,.17.13.47.08-1.18.42.6.91-.41,1.26,0,0-.17-.12-.17-.09l.16.36c.35,0,.21,0,.49-.07s.35.18.34.26c-.21-.18-.55-.05-.75,0,.11,0,.22,0,.33,0-.64.11.69.11.24.31l-.18,0c.08.1.31.22.24.32-.4,0-.17-.13-.49-.18,0,.14.71.39.3.46-.1-.08-.09-.17-.2-.24-.48.07-.36.1-.45.19h0l-.25.19.13,0c1,.35.13.38.75.75-.59-.36-.36-.11-.8-.22a.73.73,0,0,1-.41,0c.34.18-.32.11.17.38-.15,0-.05.11-.4,0,.08.16.26,0,.43.08.43.34-.69.35-.13.83.19.34.64.54.8.87a.79.79,0,0,1-.49-.23c-.24.07-.24.17-.13.35a1,1,0,0,0-.39-.09c0,.11.47.25.22.31a4.63,4.63,0,0,1-.51-.31c.08.16.3.38.37.55-.24-.06-.33-.22-.47-.32a.83.83,0,0,0,.44.62l.17,0c0,.06-.33-.1-.39-.17-.24-.23.2-.11.34-.06l.05.12c.83.22,0-.41.12-.56l.55.28-.42-.36c.17,0,.51.11.57.23.34,0-.17-.19.2-.19a.13.13,0,0,1,.1,0l-.14-.19c.12.06.43.11.32.16.41-.13-.33-.52.15-.47l0,0c-.1-.4-.43-.17-.87-.56l1.14.14-.44-.15s.08-.09.25,0c-.27-.21-.2,0-.47-.18.45-.07-.08-.5.64-.37-.32-.14-.3.1-.49-.13.78.12-.08-.24.3-.31.39.13.15.23.53.15-.65-.23.21-.27.11-.44-.54-.1-.17-.32-.32-.57.18,0,.36-.38.58-.57l.09,0c-.54-.11-.4-.31-.51-.47a1.07,1.07,0,0,1,.59.18v-.15c-.17-.06-.26-.11-.31-.21l.4.07c0-.2-.45-.44-.15-.67-.39,0-1.09.13-1.32-.14a1.63,1.63,0,0,1,.64.08s-.17-.09-.08-.13l.35.13c.16-.11-.29-.08-.26-.17.3,0,.22-.06.45,0,0,0-.12.07,0,.11a.67.67,0,0,1,.46-.25c-.17,0-.4,0-.43-.1s.35,0,.51-.17c-.21,0,0-.18-.43-.18,0-.06.21-.07.33-.09-.19-.11-.07-.49-.53-.37l0,0,0,0h0c-.46-.31.24-.7,0-1h.14c-.18-.18-.13-.43-.46-.54,0-.06.26-.16.43-.16-.12-.14-.29-.13-.08-.38.28.12.22-.08.21.13.1-.21.33-.29-.1-.45.38,0,.45-.22.33-.3l-.25.18c-.08-.09,0-.19,0-.29l.5,0c.26-.26,0-.41-.26-.54s-.41-.23,0-.61c-.37,0-.16.37-.59.34,0-.23.61-.75.58-.86.14-.53-.75,0-.68-.46-.14.15-.55.44-.75.34,0-.22.54-.76.71-.7s0,.11-.06.14c.09,0,.18.1.32-.12l-.16.08c.11-.24,0-.58.23-.71-.21-.08-.26.14-.29.34.09-.52-.17-.51-.17-1-.05.14-.18.38-.2.32,0-.67-.32.12-.48-.08.12-.44.46-.61.18-.67a.73.73,0,0,1,.41-.62c-.34.06-.11-.85-.17-1.13h.16c-.1,0-.13-.09-.17-.19l-.15.54a.78.78,0,0,1,0-.45c-.17.2-.29.82-.54,1,0-.36-.24-.08,0-.78.09.61.21-.7.4-.44-.06,0-.09-.09-.11-.28s.06-.12.08-.12c0-.78-.19-.07-.36.15s-.13.2-.2.21c.15-.38.12-.67.05-.57.13,0-.11.57-.29.85-.16-.15-.29.32-.39.34l.1.06a1.09,1.09,0,0,1-.36.53c0-.25.16-.24.13-.33-.25.65-.29-.4-.56.1-.09-.15,0-.58-.05-.67-.29.54-.29-.26-.6.22.1.36.09.25-.07.76a5.37,5.37,0,0,1,.44-.53c-.11.25-.2.5-.28.74.12-.06.26-.4.34-.37-.14.41-.12.29-.08.6-.15-.52-.3.53-.48.25l-.07-1c-.38-.21-.5.82-.91.92l.17.06c.06.41-.2.24-.27.48a1,1,0,0,0-.35-.49c.1.2-.3.24,0,.84L127,7.12c-.39.2.17,1-.07,1.24-.16-.33-.4-.34-.4-.74-.08.11-.19.18,0,.33-.19-.06.08.57-.2.48.07.13.31.33.22.43a.56.56,0,0,1-.12-.09c.11.09.06.29.39.37-1-.14-.34.77-1.15.7a4.11,4.11,0,0,1,0,.72c-.08,0-.14-.05-.1-.07-.35.18.76.41.38.6-.5,0-.2-.22-.4-.18-1-.2,0,.4-.56.49l0-.07c-.35.11.27.47.18.72l-.15,0a1.6,1.6,0,0,1,.73.83c-.38-.09-.2-.12-.59-.09.06.12.63,0,.73.21a1.65,1.65,0,0,1-.8.13l0-.12c-.54,0,0,.14-.08.19l-.23,0c.08.12.68.29.65.49l.18,0c.61.38-.33,0,.14.28l-.61-.28a4.67,4.67,0,0,1,.81.84c-.5-.43-.76-.71-1-.92,0,0,.08.18.4.43-.06-.07-.23-.2-.13-.16a3.05,3.05,0,0,1,.85.9c-.78-.63-.71-.5-.74-.45s-.08,0-.51-.41c.67.74-.34-.17-.32-.09a12.68,12.68,0,0,1,.84,1.17c0,.06-.06,0-.12,0-.22-.25-.43-.48-.6-.71s-.11-.24-.28-.49a5.5,5.5,0,0,1-.48-.76c.22.39.29.55.2.4q.14.25.3.51c.16.54-.5-.91-.31-.37l-.11-.32c.05.18,0,0,0,.76a2,2,0,0,1,0-.45c-.07-.13-.19.76-.55.21l.08-.21c-.09,0-.23.38-.27.14,0-.09.08-.21.05-.23s-.28.33-.35.18l.14-.22c-.31-.38-.73.45-1.09.53a1,1,0,0,0-.22-1.06l0-.09c-.43-.19-.89.35-1.36.5-.09-.75-.8-.49-1.12-1a.81.81,0,0,1-.22.54c-.06-.15-.37.38-.22-.2l0,0c.06-.6-.18-.49-.33-.54l-.21.76v0l0-.34-1.26,2.4c-.56,1.06,1.08.61.49,1.46.22-.05.32.05.53,0l-.31.29a1.09,1.09,0,0,0,.56.64l-.26.17c.14.17,1-.71,1.19-.6l-.39.51c.27.24.22.9.86.7-.06.07-.19.2-.25.19.12.13.27.76.75,0-.34.45.28.28.58.19l-.27.32c.45-.33.53-.45.81-.44,0,.07-.16.3-.15.17,0,.28.34-.25.39.06l-.22.17c.14.14.21,0,.46-.2s.23.29.06.62c.14-.18.39-.39.43-.24a.57.57,0,0,1-.19.21c.13.4.65-.18.62.28a.7.7,0,0,0-.09.23c-.21-.13-.37-.25-.34-.27-.2.33,0,.49-.47.87.3-.17.85-.57.93-.32a.93.93,0,0,1,0,.13l0,0c0,.06.08,0,.14,0s0,.14.09.17c-.13.3.13.27.22.33.18-.38.27-.26.32-.63,0,0,0,0-.11,0L123,20l0,0-.24-.09c.18-.15.33-.27.32,0l.43-.54c-.15.58-.06,1-.18,1.33.39-.08.74.17,1.23-.48.11-.06,0,.25,0,.37s-.13,0-.2.12c.24-.12.51.12.75-.38.11.31-.3.43,0,.45l-.1.14c.26,1.07,1.36-1,1.61.27a.43.43,0,0,1,0-.2c.59.69,1.56-.07,2.11.84.18.19.26-.15.43-.4l0,.46.29-.48c.34-.33.38,1.17.86.5l0-.31c.13.07.45-.14.4.21,0-.05.07-.31.11-.15v.24l.36-.39c.25.18-.1.94.3,1a1.28,1.28,0,0,0,.38-.83c-.05,0-.14-.15-.14-.39l.13-.12a3.83,3.83,0,0,0-.13-1.91l-.21.42-.05-.34.17,0c-.08-.32-.15,0-.23.15a.85.85,0,0,0-.06-.38l-.23.66c0-.27.12-.54,0-.69-.12.3,0,.61-.13.81-.07-.32,0-.58-.15-.32a.68.68,0,0,1,.08-.37c-.11.21-.26.06-.35.43-.05-.4-.34.06-.25-.59-.05.15-.24.5-.33.51.27-.76-.33-.1-.16-.93-.22.68-.47.25-.75.59,0-.05.07-.16.08-.12s-.1-.3-.15-.45a2.65,2.65,0,0,1-.53,1c0-.59.25-.66.32-1.2-.1.47-.36.41-.4.81a1.7,1.7,0,0,1,0-.68c-.19.72-.13.1-.33.51-.07-.39.14-.68-.09-.51A.66.66,0,0,1,128.15,18.08Zm-4.41-.42h0l.1,0Zm-.32-.19a.45.45,0,0,0,.13.1c-.06.13-.15.26-.18.23S123.4,17.61,123.42,17.47Zm-.68,3c-.09,0-.07-.07,0-.15a.25.25,0,0,0,.13,0l0,0A1.4,1.4,0,0,1,122.74,20.44Z"/><path class="cls-2" d="M123.1,20h0v-.1l-.08.1Z"/><path class="cls-2" d="M132.48,13.62h0l-.06,0Z"/><polygon class="cls-2" points="120.03 13.73 119.95 13.81 120.04 13.77 120.03 13.73"/><path class="cls-2" d="M130.94,15.72h0Z"/><path class="cls-2" d="M130.73,16.59l-.17.1A.57.57,0,0,0,130.73,16.59Z"/><path class="cls-2" d="M130.4,17.22l.17.05h0Z"/><path class="cls-2" d="M129.39,9.35a0,0,0,0,0,0,0Z"/><path class="cls-2" d="M130.71,9.78l-.19,0C130.5,9.87,130.5,9.9,130.71,9.78Z"/><polygon class="cls-2" points="128.86 10.52 128.86 10.51 128.85 10.52 128.86 10.52"/><path class="cls-2" d="M130.5,9.71c-.07.09,0,.11,0,.1S130.56,9.7,130.5,9.71Z"/><path class="cls-2" d="M129.38,19.94l0,0,.07,0Z"/><path class="cls-2" d="M129.42,20l0,.05S129.46,20,129.42,20Z"/><path class="cls-2" d="M129.52,20.16l-.07-.11S129.41,20.1,129.52,20.16Z"/><path class="cls-2" d="M129.87,19.18l-.14-.06Z"/><path class="cls-2" d="M129.91,18.91c0,.05-.35.05-.29.17l.11,0C129.53,19,130.14,19.05,129.91,18.91Z"/><path class="cls-2" d="M132.05,18.27l-.17.21c.16,0,.39,0,.4.12C132.83,18.41,131.91,18.58,132.05,18.27Z"/><path class="cls-2" d="M132.46,17.55c0,.15.23,0,.32.07C132.65,17.5,132.62,17.47,132.46,17.55Z"/><path class="cls-2" d="M132.71,11.83l.38,0C133,11.7,132.94,11.81,132.71,11.83Z"/><polygon class="cls-2" points="130.6 11.07 130.38 11.2 130.73 11.19 130.6 11.07"/><path class="cls-2" d="M133.16,10l.07,0a1.53,1.53,0,0,1-.18-.18Z"/><path class="cls-2" d="M125.27,9.43l.44.16C125.66,9.49,125.19,9.25,125.27,9.43Z"/><path class="cls-2" d="M125,13.51c-.24-.07-.39-.1-.15,0C124.86,13.53,125,13.56,125,13.51Z"/><polygon class="cls-2" points="116.48 15.43 116.3 15.46 116.51 15.51 116.48 15.43"/><path class="cls-3" d="M173.69,86.83c.13,0,.42,0,.36,0l-.49,0Z"/><path class="cls-3" d="M174.61,86.69a8.93,8.93,0,0,0-1.12,0c.48,0,.28,0,.85,0,0,0-.16,0-.35,0,.13,0-.11,0,.21,0s.4-.06.08-.1Z"/><path class="cls-3" d="M175.38,84.67h0Z"/><path class="cls-3" d="M175.66,83.42h.1A.16.16,0,0,0,175.66,83.42Z"/><path class="cls-3" d="M176.2,83.2h0S176.24,83.2,176.2,83.2Z"/><path class="cls-3" d="M175.38,84.67l.16,0C175.38,84.63,175.42,84.65,175.38,84.67Z"/><path class="cls-3" d="M173.41,86.42h0Z"/><path class="cls-3" d="M175.79,85.22h.2Z"/><path class="cls-3" d="M175.86,85.65s-.4,0-.59,0l.29,0Z"/><path class="cls-3" d="M175.12,86.32h0Z"/><path class="cls-3" d="M175.88,84.92h0Z"/><path class="cls-3" d="M172.71,73.05h0Z"/><path class="cls-3" d="M174.8,72.56h0Z"/><path class="cls-3" d="M176.74,82.81h0Z"/><path class="cls-3" d="M176.43,79.21a9,9,0,0,0-.9,0A6.73,6.73,0,0,0,176.43,79.21Z"/><path class="cls-3" d="M173.47,86.4a0,0,0,0,1,0,0S173.45,86.4,173.47,86.4Z"/><path class="cls-3" d="M175.53,79.21Z"/><path class="cls-3" d="M176.49,81.91h0Z"/><path class="cls-3" d="M175.89,82.58l.06,0S175.89,82.57,175.89,82.58Z"/><path class="cls-3" d="M175.89,81.56s.09,0,0,0h-.05C175.93,81.54,176,81.55,175.89,81.56Z"/><path class="cls-3" d="M175.89,81.19h-.06Z"/><path class="cls-3" d="M172.91,74.15h.38C173,74.14,172.88,74.09,172.91,74.15Z"/><path class="cls-3" d="M173.65,86.42l-.18,0,0,0Z"/><path class="cls-3" d="M172.57,81.54l.06-.06S172.57,81.52,172.57,81.54Z"/><path class="cls-3" d="M173,76.76h-.05S172.92,76.76,173,76.76Z"/><path class="cls-3" d="M172.57,81.31l.29,0h-.11Z"/><path class="cls-3" d="M172.29,73.75a3.53,3.53,0,0,0,.86,0c.16.07-.4,0-.69.06.15,0,.66.07.64.1h-.24c.44,0,0,.13.57.18h.62s.35,0,0,.05a1.72,1.72,0,0,0-.25,0l.16,0c-.52,0-.18,0-.56,0,.17,0,.6.11.45.15-.51,0-.17-.09-.63,0l.2-.06c-.8,0,.06,0-.8,0-.15.08.26.09.11.17.28,0,.42,0,.7,0,.51.11-1.28.09-.6.17.34,0,1,0,.64.09l-.58,0c0,.08.83,0,.44.12-.22,0-.19-.06-.26,0-.45,0,.33,0,.33.07h-.51c.08.08.45.17.54.26a3.53,3.53,0,0,0-.46,0c.25.11-.07.24-.37.35l.44,0a1.1,1.1,0,0,1-.28,0c-.17,0,.28,0,.45,0s-.25,0-.39,0c.38.08.81.22.34.29H173c-.18.06.9.07.49.13l-.08,0c-.19.14.21.29-.45.39.63,0-.29.13.6.14a4.8,4.8,0,0,0-.89.16s.55,0,.64.08h-.46l.48,0-.55,0,.12,0a1.3,1.3,0,0,1,.34,0c.21,0-.32.13-.56.13l.39.12a1.73,1.73,0,0,1-.37,0c.48.07-.48,0-.05.08.11,0,.28,0,.37,0-.28,0-.28.1-.17.15h-.31c-.08.09.15.19.14.3a2.74,2.74,0,0,1,.76,0H173a5.34,5.34,0,0,1,.55,0,2.77,2.77,0,0,1-.71,0l.17,0h-.41c.3,0-.49.08,0,.11h-.15c0,.1.16.15.19.23a4.05,4.05,0,0,1,.67.06c-.14.06-.47.13-.43.2a3.74,3.74,0,0,0,.61,0c-.39,0-.35.08-.63,0,.06.09.08.11.39.23a1.53,1.53,0,0,1,.36,0c.06,0-.16,0-.35,0h0c.58.12-1.12.29-.32.39h0l.42.1c-.07,0-.29,0-.53,0,.64.11-.09.18.34.27-1.14.07.08.26-.65.35h.27c.26,0-.15,0-.21,0,.2,0,.24,0,.38,0,.32.21-.39.44-.63.66-.07.08,1.38,0,.74.14l-.49,0c.59.16,0,.33.48.49-.11,0-.26,0-.26,0-.36,0,0,.12.28.12a2.25,2.25,0,0,1-.42,0c-.21,0,.46.09.1.11l-.14,0c.17,0,0,.1.37.08-.2.06.19.11-.06.16.46,0-.22.1.43.11-.68,0-.54.1-.23.14-.2,0-.21,0-.49,0,0,0,.13.08.48.07-.81.08.66.16-.39.2a3.43,3.43,0,0,1,.78.36c-.68,0-.07-.13-.78-.12.28.11.86.17.69.27a1.46,1.46,0,0,1-.41,0c.28.11-.06.21.31.3l-.18,0s-.1,0,.21,0h-.09a10.43,10.43,0,0,1,1.17.07c-.88,0-.22.1-1.33,0a1.86,1.86,0,0,0,.41,0,1.2,1.2,0,0,1-.42,0c.17.07.5,0,.49.1l-.38,0c.29,0,.58.07.45.12s-.2,0-.2,0,.77.16.49.25c-.65,0-.21,0-.77,0l.16.05.28,0s.39.09.21.13l-.23,0,.11.09.21,0c.29,0,.71,0,.55.06s0,0-.34.07h0c.18,0,.37,0,.23.08s-.62,0-.74,0c.47,0,.13.1.63.13h-.47l.38,0a1.59,1.59,0,0,1-.42,0c-.06.07.71,0,.41.06a1.25,1.25,0,0,1-.15,0c-.16.08.24.15.06.22-.57,0-.14-.06-.62,0,.11.1.68.21.55.31l.06,0c.79,0-.39.07,0,.12h-.35c-.13.07.19.14.44.24h-.2c-.18,0-.11.1-.2.14a2,2,0,0,0,.47,0c-1.16.13.62.25-.35.36a.52.52,0,0,0-.18,0l.19.1c.35,0,.21,0,.48,0a.91.91,0,0,1,.37.06,3.08,3.08,0,0,0-.75,0h.33c-.62,0,.7,0,.28.08h-.18c.09,0,.33,0,.28.08-.4,0-.19,0-.52,0,0,0,.76.08.36.11-.11,0-.11,0-.22-.06-.47,0-.35.05-.43.08h0l-.21.07.13,0c1,.06.19.11.87.17a3.88,3.88,0,0,0-.83,0,1.67,1.67,0,0,1-.39,0c.37,0-.29.06.25.1a1.15,1.15,0,0,1-.39,0,1.66,1.66,0,0,0,.44,0c.5.07-.6.15.08.25.28.08.78.09,1,.16a2.18,2.18,0,0,1-.53,0c-.21,0-.18.07,0,.11a2.8,2.8,0,0,0-.4,0s.54,0,.32.06-.42,0-.59,0c.14,0,.41.07.54.11a4,4,0,0,1-.55,0,1.67,1.67,0,0,0,.63.12l.15,0a1.92,1.92,0,0,1-.42,0c-.32,0,.14,0,.28-.06l.1,0c.85,0-.14-.11-.09-.16l.62,0-.51-.05a2.9,2.9,0,0,1,.6,0c.31,0-.22,0,.12-.07h.11l-.19,0c.14,0,.44,0,.35,0,.36-.07-.46-.11,0-.13h0a6.83,6.83,0,0,0-1-.08l1.13,0H175s.05,0,.24,0c-.32,0-.2,0-.5,0,.42,0-.19-.13.54-.14-.35,0-.27,0-.51,0,.78,0-.14-.06.22-.1a2.05,2.05,0,0,0,.55,0c-.68,0,.15-.08,0-.12-.54,0-.22-.08-.41-.13.19,0,.3-.12.5-.17h.09c-.55,0-.44-.07-.56-.11a4.11,4.11,0,0,1,.61,0v0a1.62,1.62,0,0,1-.34,0h.42c0-.06-.49-.11-.21-.18a8.28,8.28,0,0,1-1.33,0,4.35,4.35,0,0,1,.65,0s-.18,0-.09,0l.35,0c.16,0-.29,0-.26,0h.45s-.12,0,0,0a1.49,1.49,0,0,1,.46-.07,2.38,2.38,0,0,1-.44,0c0-.05.36,0,.51-.05a2,2,0,0,0-.44,0l.33,0c-.19,0-.05-.13-.53-.1h-.05c-.44-.09.25-.19.07-.27h.14c-.17-.06-.1-.12-.42-.16a3.06,3.06,0,0,1,.45,0c-.11,0-.28,0,0-.1s.23,0,.19,0c.13,0,.36-.06,0-.12.38,0,.48,0,.36-.06l-.27,0c-.05,0,0-.06,0-.08h.5c.61-.1-1-.19,0-.27-.35,0-.24.06-.65,0a6.9,6.9,0,0,1,.78-.11c.28-.07-.72-.06-.54-.13a3.76,3.76,0,0,1-.82,0,3.22,3.22,0,0,1,.89,0s0,0-.1,0a1,1,0,0,0,.34,0h-.18c.18,0,.16-.09.45-.08a.75.75,0,0,0-.38,0c.26-.07,0-.1.18-.17a1.8,1.8,0,0,1-.31,0c.22-.09-.33,0-.41-.1.27,0,.65,0,.42-.05a2.57,2.57,0,0,1,.62,0c-.35-.06.22-.11.28-.14l.15,0c-.09,0-.09,0-.08,0l-.36,0a.43.43,0,0,1,.21,0c-.23,0-.59,0-.91,0,.18,0-.19-.07.28-.08-.16.08.47,0,.55.06s-.05,0,0,0h.12c.42-.07-.53,0-.52-.11a1.2,1.2,0,0,0,.45,0,2.86,2.86,0,0,1-.65,0c.21,0-.15-.06-.13-.08l-.1,0a.49.49,0,0,1-.31-.07c.2,0,.14,0,.23,0-.47,0,.49-.09.17-.14.18,0,.5,0,.62,0-.34-.06.37-.07.08-.13a2.14,2.14,0,0,1-.62,0l.25.1-.52-.06s.23.06.17.08a1.67,1.67,0,0,0-.5,0c.54,0-.31-.09,0-.14h.88c.4-.08-.45-.13-.23-.23l-.15,0c-.35,0,0-.06-.19-.09a3.1,3.1,0,0,0,.58,0c-.22,0,0-.06-.57-.07l.39,0c.16-.08-.84-.09-.74-.17.32,0,.53,0,.76,0,0,0,.06,0-.15,0,.19,0-.39-.07-.11-.09-.13,0-.44,0-.42-.05h.15a2.63,2.63,0,0,0-.53,0c.92-.08-.07-.22.73-.28a.52.52,0,0,1-.22-.17c.09,0,.15,0,.12,0,.27-.06-.85,0-.55-.11.48,0,.26,0,.44,0,1,0-.13-.09.44-.14h.06c.33,0-.37-.09-.3-.16H176a1.79,1.79,0,0,1-.8-.19,3.84,3.84,0,0,0,.59,0,6.89,6.89,0,0,1-.74,0c.21,0,.4-.05.81-.06l0,0c.54,0,0-.06.08-.09h.23c-.08-.08-.66-.08-.62-.17h-.18c-.58,0,.33,0-.11-.08l.6,0a4.37,4.37,0,0,1-.69-.16,7.89,7.89,0,0,1,.93.14s0-.11-.34-.12c.06,0,.2,0,.11,0-.46,0-.69-.09-.68-.15,1.15,0,.29-.16,1.18-.2-.43-.11.18-.22.11-.34-.89,0,0,0-.94,0-.06,0,0,0,0,0l.54-.09a2.37,2.37,0,0,1,.41,0,3.34,3.34,0,0,1,.63-.07c-.32,0-.47,0-.34-.06l-.42.06c-.49-.09.77-.08.28-.17l.29,0c-.17-.05,0-.17-.73-.22a2,2,0,0,1,.42,0c.11-.11-.78-.24-.33-.33h.23c-.07,0-.42,0-.2-.06h.24c-.08,0-.39,0-.26-.08l.25,0c.29-.11-.62-.17-.77-.26a2.22,2.22,0,0,0,1-.13h.1c.08-.12-.55-.21-.81-.32.72-.08.3-.25.7-.37a2.69,2.69,0,0,1-.58,0c.13,0-.46-.07.15-.07h0c.59,0,.43-.08.45-.12H176c1.15-.11-.43-.3.61-.36-.2,0-.2-.06-.4-.09h.43c.1-.07.16-.11.06-.21l.3,0s-1.22-.06-1.25-.11l.63,0c0-.09.55-.18,0-.28l.3,0s.43-.17-.44-.15c.56,0,0-.1-.2-.15h.42a3.18,3.18,0,0,1-.83-.1c.06,0,.34,0,.23,0,.22,0-.4,0-.17-.09l.26,0s-.11,0-.42-.07.11-.09.49-.1c-.24,0-.54,0-.43-.06h.27c.28-.08-.49-.12-.08-.17H176c0,.06,0,.12-.06.11a7.78,7.78,0,0,1,1,0c-.29,0-.93-.11-.74-.16h.17s0,0-.06,0,.11,0,.12,0c.31,0,.17-.06.18-.08a5.42,5.42,0,0,0-.7,0,.06.06,0,0,1,.07,0h0a.14.14,0,0,1,0,.06c-.21,0-.39,0-.16-.07l-.68,0c.59,0,.91-.11,1.27-.12a1.75,1.75,0,0,0-1-.23c-.1,0,.23,0,.36,0l.18,0c-.21,0-.08-.13-.64-.14.25-.06.51,0,.42-.05h.17c.89-.15-1.41-.24-.28-.41l-.19,0c.5-.2-.47-.4.32-.59.16,0-.19-.06-.46-.09h.46l-.53-.06c-.38-.08,1.11-.14.39-.24h-.3c.05,0-.18-.11.17-.1-.06,0-.32,0-.16,0h.24l-.41-.09c.17-.07.94,0,1-.09a3.7,3.7,0,0,0-.85-.09,1.25,1.25,0,0,1-.39,0l-.12,0a14,14,0,0,0-1.9,0l.42.06-.33,0,0,0c-.31,0,0,0,.16.07l-.37,0,.67.06a5,5,0,0,0-.7,0c.31,0,.61,0,.82,0-.32,0-.58,0-.31.05a1.94,1.94,0,0,1-.37,0c.22,0,.09.08.46.09-.39,0,.1.1-.56.1a2.6,2.6,0,0,1,.55.08c-.79,0-.05.1-.9.08.72,0,.32.14.72.2-.06,0-.18,0-.14,0a1.71,1.71,0,0,1-.41.07,10.26,10.26,0,0,1,1.09.09c-.57,0-.69,0-1.24,0,.48,0,.48.08.87.06a4.64,4.64,0,0,1-.65.05c.73,0,.12,0,.57.06-.36.05-.69,0-.46.07A2.08,2.08,0,0,1,172.29,73.75ZM173.56,75h0l0,0Zm0,.11s0,0,0-.05a1.44,1.44,0,0,1,.28,0A1.92,1.92,0,0,0,173.57,75.15Zm2.92-.23c.06,0,0,0-.11,0s0,0,0,0h.16Z"/><path class="cls-3" d="M175.94,74.89h0Z"/><path class="cls-3" d="M175.31,84.68h0Z"/><polygon class="cls-3" points="172.76 76.64 172.87 76.64 172.78 76.63 172.76 76.64"/><path class="cls-3" d="M173.87,85.28h0Z"/><path class="cls-3" d="M173.77,85.54l-.15,0Z"/><path class="cls-3" d="M173.56,85.73h0Z"/><path class="cls-3" d="M173.07,82.59h0C173,82.57,173,82.58,173.07,82.59Z"/><path class="cls-3" d="M174.05,83.53l-.2,0S173.81,83.53,174.05,83.53Z"/><polygon class="cls-3" points="172.56 81.55 172.57 81.55 172.57 81.54 172.56 81.55"/><path class="cls-3" d="M173.86,83.45c-.08,0-.06,0,0,0S173.93,83.47,173.86,83.45Z"/><path class="cls-3" d="M173.37,86.59h0Z"/><path class="cls-3" d="M173.42,86.6h.05S173.47,86.6,173.42,86.6Z"/><path class="cls-3" d="M173.58,86.64l-.11,0S173.46,86.63,173.58,86.64Z"/><path class="cls-3" d="M173.57,86.33h0Z"/><path class="cls-3" d="M173.52,86.25s-.32,0-.23.07h.12C173.19,86.31,173.78,86.27,173.52,86.25Z"/><path class="cls-3" d="M175.41,85.92l-.12.06a1.32,1.32,0,0,1,.42,0C176.2,85.9,175.35,86,175.41,85.92Z"/><path class="cls-3" d="M175.65,85.71c.07,0,.24,0,.33,0A.91.91,0,0,0,175.65,85.71Z"/><path class="cls-3" d="M175.65,84.22H176C176,84.19,175.89,84.22,175.65,84.22Z"/><polygon class="cls-3" points="173.67 83.93 173.43 83.96 173.78 83.97 173.67 83.93"/><polygon class="cls-3" points="176.4 83.77 176.46 83.78 176.32 83.73 176.4 83.77"/><path class="cls-3" d="M176.26,81.26h-.47C175.88,81.28,176.41,81.29,176.26,81.26Z"/><path class="cls-3" d="M175.78,80.17c.24,0,.39,0,.16-.06C175.91,80.14,175.72,80.16,175.78,80.17Z"/><polygon class="cls-3" points="176.55 76.93 176.71 76.95 176.58 76.91 176.55 76.93"/><path class="cls-3" d="M179.87,80.51c0-.13,0-.42-.05-.36l0,.5Z"/><path class="cls-3" d="M179.66,79.61a9.31,9.31,0,0,0,.08,1.12c0-.48,0-.28,0-.85,0-.06.05.15.06.34,0-.13,0,.1,0-.21s-.09-.39-.09-.07C179.67,79.83,179.67,79.7,179.66,79.61Z"/><path class="cls-3" d="M177.85,79v.06A.35.35,0,0,0,177.85,79Z"/><path class="cls-3" d="M176.75,78.85v-.11A.21.21,0,0,0,176.75,78.85Z"/><path class="cls-3" d="M176.51,78.32s0,0,0,0S176.51,78.29,176.51,78.32Z"/><path class="cls-3" d="M177.85,79l0-.15C177.82,79,177.83,79,177.85,79Z"/><path class="cls-3" d="M179.54,80.82v-.13a.13.13,0,0,1,0,.06Z"/><path class="cls-3" d="M178.28,78.56h0s0-.12,0-.2Z"/><path class="cls-3" d="M178.64,78.45s0,.4,0,.59c0-.18,0-.26,0-.29S178.65,78.57,178.64,78.45Z"/><path class="cls-3" d="M179.29,79.13v0Z"/><path class="cls-3" d="M178,78.5c0-.06,0-.12,0-.15S178,78.45,178,78.5Z"/><path class="cls-3" d="M168.17,82.67a.15.15,0,0,0,0-.07A.24.24,0,0,0,168.17,82.67Z"/><path class="cls-3" d="M167.54,80.64v0a1.79,1.79,0,0,0,0-.23Z"/><path class="cls-3" d="M176.12,77.82h0S176.12,77.79,176.12,77.82Z"/><path class="cls-3" d="M173.07,78.44c.07.37,0,.49.09.9A6.36,6.36,0,0,0,173.07,78.44Z"/><path class="cls-3" d="M179.52,80.77h0S179.52,80.79,179.52,80.77Z"/><path class="cls-3" d="M173.16,79.34h0v0Z"/><path class="cls-3" d="M175.37,78.15q0,.1,0,.18S175.39,78.24,175.37,78.15Z"/><path class="cls-3" d="M176,78.69l0-.06S176,78.68,176,78.69Z"/><path class="cls-3" d="M175.13,78.77s0-.09,0,0v.05C175.11,78.73,175.12,78.71,175.13,78.77Z"/><path class="cls-3" d="M174.82,78.8s0,.06,0,.09v0Z"/><path class="cls-3" d="M169.1,82.38,169,82C169.08,82.3,169,82.41,169.1,82.38Z"/><path class="cls-3" d="M179.51,80.59a.62.62,0,0,1,0,.18s0,0,0,0A.57.57,0,0,0,179.51,80.59Z"/><path class="cls-3" d="M175.45,82.08l0,0S175.43,82.08,175.45,82.08Z"/><path class="cls-3" d="M171.32,82.09v0Z"/><path class="cls-3" d="M175.26,82.1c0-.15,0-.23-.06-.29v.11Z"/><path class="cls-3" d="M169,82Z"/><path class="cls-3" d="M168.82,83a4,4,0,0,0-.06-.86c0-.17.07.4.12.68,0-.15,0-.66,0-.64s0,.12,0,.24c0-.44.11,0,.09-.59a.68.68,0,0,1,0,.14c0-.28-.06-.56-.08-.76,0,0,0-.35,0,0,0,0,0,.13,0,.25v-.16a4.42,4.42,0,0,1,0,.56c0-.17,0-.6.08-.46.05.51-.06.18,0,.62l-.07-.18c.12.79,0-.06.08.8.08.14.05-.27.13-.13,0-.28,0-.42-.06-.7,0-.51.21,1.27.21.59,0-.34-.08-1,0-.65l0,.57c.07,0-.05-.82.06-.45s0,.2,0,.27c.08.44,0-.33,0-.34l.06.51c.06-.08.1-.46.16-.56,0,.15,0,.31,0,.47.07-.27.21,0,.34.33v-.44a1.12,1.12,0,0,1,0,.28c.05.16,0-.28,0-.45s.05.25.05.38c0-.38.1-.82.22-.36v.13c.07.18,0-.9.06-.5v.08c.13.18.22-.23.37.42,0-.63.14.27.06-.61a5.55,5.55,0,0,0,.23.87s0-.55,0-.65l0,.46v-.48l.08.54,0-.12a1.2,1.2,0,0,1-.06-.33c0-.22.14.31.16.54l.07-.4a1.5,1.5,0,0,1,0,.37c0-.47.06.49.07.05,0-.1,0-.27,0-.37.05.28.11.27.14.15l0,.32c.08.07.15-.17.23-.17a3.72,3.72,0,0,1-.07-.75l.06.48c0-.3,0-.18,0-.55a3.24,3.24,0,0,1,.08.71l0-.17c0,.14,0,.22,0,.41,0-.31.12.48.09-.05l0,.15c.08,0,.11-.18.18-.21a5.39,5.39,0,0,1,0-.67c.07.13.16.45.22.41,0-.21,0-.36,0-.61a3.67,3.67,0,0,1,.09.62c.07-.07.09-.09.16-.41a1.55,1.55,0,0,1-.05-.35c0-.07.05.15.07.34v0c.05-.58.36,1.09.36.28v0l0-.42c.05.06,0,.29.06.52,0-.65.16.08.2-.35.17,1.12.21-.11.36.61l0-.27c0-.26,0,.15.06.21,0-.21,0-.24,0-.38.15-.34.42.35.63.57.07.06-.1-1.38,0-.75l0,.49c.08-.6.28,0,.37-.52a2,2,0,0,1,0,.26c.07.36.11,0,.08-.28,0,0,0,.26.06.41s0-.47.07-.11a.88.88,0,0,1,0,.14c0-.17.09,0,0-.37.07.19.07-.2.14,0,0-.46.11.22.05-.44.06.68.14.54.14.22,0,.2.05.21.07.49,0,0,0-.14,0-.49.15.8.07-.66.21.37a3.47,3.47,0,0,1,.23-.8c.06.68-.1.08,0,.79.06-.29.05-.87.16-.72a1.38,1.38,0,0,1,0,.41c.07-.29.19,0,.23-.33a1.08,1.08,0,0,1,0,.18s0,.1,0-.21v.09a11,11,0,0,1-.05-1.17c.06.88.1.21.17,1.32a4.1,4.1,0,0,0,0-.41,1.73,1.73,0,0,1,.05.42c0-.18,0-.5,0-.5,0,.15,0,.21,0,.38,0-.29,0-.58,0-.46a.77.77,0,0,1,0,.2c.07-.05,0-.78.16-.51a6.16,6.16,0,0,0,.11.77l0-.17,0-.27s0-.4.08-.23V81l.06-.12-.06-.2c0-.29-.08-.71,0-.56s0,0,.09.33h0c0-.18,0-.37.05-.23s0,.62.07.74c0-.47.08-.14,0-.64,0,.12,0,.41.05.47l0-.38a2.14,2.14,0,0,1,.06.41c.06.06-.08-.71,0-.41a.74.74,0,0,1,0,.15c.08.15.1-.26.18-.08.08.56,0,.15,0,.62.08-.11.11-.69.21-.57l0-.06c-.07-.79.1.39.1,0a2.89,2.89,0,0,0,0,.35c.07.12.1-.2.16-.46v.2c0,.18.1.1.14.19a2.09,2.09,0,0,0,0-.47c.23,1.15.16-.64.35.31a.54.54,0,0,0,0,.18l.07-.19a3.39,3.39,0,0,0-.08-.48,1,1,0,0,1,0-.37,3.42,3.42,0,0,0,.09.75l0-.33c.11.61-.06-.7,0-.29V80c0-.09,0-.33,0-.29,0,.4,0,.19,0,.52,0,0,0-.76.06-.37,0,.12,0,.12,0,.23.08.47.07.35.1.42h0l.08.21,0-.13c-.06-1,.07-.2.06-.89a4.81,4.81,0,0,0,.07.83c0,.12.06.26.07.39,0-.37.07.28.06-.25a2.44,2.44,0,0,1,.06.37,2.83,2.83,0,0,0-.05-.43c0-.5.19.59.2-.1,0-.29,0-.78,0-1a3.12,3.12,0,0,1,0,.53c.06.21.08.17.1,0a2.17,2.17,0,0,0,.05.4c0-.05,0-.54,0-.33s0,.43,0,.59c0-.13,0-.41,0-.54a3.69,3.69,0,0,1,0,.55,1.61,1.61,0,0,0,0-.64l0-.14a3,3,0,0,1,0,.42c0,.31-.06-.14-.08-.29l0-.09c-.11-.85-.08.14-.13.1l-.05-.62V80a3.67,3.67,0,0,1-.06-.6c-.06-.31,0,.22-.06-.12a.49.49,0,0,1,0-.11l0,.19c0-.13-.05-.44,0-.35-.09-.35,0,.47-.11,0v0a7.82,7.82,0,0,0,0,1L179,78.81l0,.46s0,0-.05-.23c0,.32,0,.2,0,.49-.08-.41-.09.21-.17-.52a2.72,2.72,0,0,1,0,.51c-.09-.78,0,.14-.1-.21a2.24,2.24,0,0,0,0-.55c0,.68-.08-.15-.1,0,.05.54,0,.23-.08.42,0-.19-.12-.29-.19-.48V78.6c.05.54,0,.45,0,.56a4.1,4.1,0,0,1,0-.6h0a1.1,1.1,0,0,1,0,.34l0-.41s0,.49-.13.22a8.48,8.48,0,0,1,.12,1.32c0-.21-.06-.56-.05-.64s0,.17,0,.08v-.35c0-.15,0,.29,0,.26,0-.29,0-.21-.06-.44,0,0,0,.12,0,0a1.55,1.55,0,0,1-.11-.44,2.92,2.92,0,0,1,0,.44s0-.36-.09-.51a1.83,1.83,0,0,0,0,.44,1.75,1.75,0,0,1,0-.32c0,.19-.11.06,0,.53v0h0c0,.44-.18-.24-.23,0l0-.15c0,.18-.09.11-.09.43a2.14,2.14,0,0,1-.07-.44c0,.12,0,.28-.08,0s0-.22,0-.19c-.06-.12-.1-.36-.1,0,0-.38-.08-.47-.09-.36l0,.27c0,.06,0,0-.06,0l0-.5c-.15-.6-.06,1-.23,0,0,.35.07.24.09.65-.05-.07-.16-.77-.18-.77-.08-.27,0,.73-.05.54a4.57,4.57,0,0,1,.05.82,3.67,3.67,0,0,1-.12-.88s0,0,0,.1a.8.8,0,0,0,0-.33v.18a1.54,1.54,0,0,1-.11-.45,1,1,0,0,0,.05.38c-.08-.25-.08,0-.16-.16a1.62,1.62,0,0,1,0,.3c-.1-.21,0,.34-.05.42-.06-.27,0-.64-.08-.41a2.28,2.28,0,0,1-.06-.62c0,.35-.12-.21-.15-.27v-.15c0,.09,0,.09,0,.09l.05.35a.47.47,0,0,1-.05-.21c0,.24.07.59.07.91,0-.18,0,.2-.1-.27.08.15,0-.47,0-.55s0,0,0,0a.57.57,0,0,1,0-.12c-.11-.41,0,.53,0,.53a1.44,1.44,0,0,0-.07-.44,3.67,3.67,0,0,1,.05.64c-.06-.2,0,.16-.05.14l0,.09c0,.27,0,.24,0,.32,0-.2,0-.14,0-.23,0,.47-.12-.48-.14-.16,0-.18-.05-.5-.08-.62,0,.35-.09-.35-.11-.06a2.51,2.51,0,0,1,0,.61l.06-.26v.53s0-.23.05-.17a2.15,2.15,0,0,0,0,.5c-.09-.54,0,.31-.12,0l-.08-.88c-.11-.39-.07.46-.17.25l0,.15c0,.35,0,0-.06.19,0-.29,0-.4-.08-.58,0,.22-.06,0,0,.58l-.08-.39c-.08-.15,0,.85-.06.76,0-.33-.06-.53,0-.77,0,0-.05-.05,0,.16,0-.19,0,.4-.06.12,0,.13,0,.44,0,.42a1.14,1.14,0,0,1,0-.15,3,3,0,0,0,0,.53c-.15-.92-.17.08-.3-.7a.92.92,0,0,1-.12.23c0-.09,0-.15,0-.12-.08-.27,0,.85,0,.55-.09-.47,0-.26,0-.44-.11-1-.07.14-.17-.42v-.06c-.06-.32,0,.38-.1.31s0-.08,0-.14a2.1,2.1,0,0,1-.08.81,4,4,0,0,0,0-.59c0,.06.07.62,0,.73a6,6,0,0,1-.13-.79l0,0c-.08-.53-.06,0-.09-.07l0-.23c-.06.08,0,.67-.08.64l0,.17c0,.59-.06-.32-.06.11l-.07-.58a5,5,0,0,1-.07.69c0-.44,0-.67,0-.93,0,0-.08,0-.07.34,0,0,0-.2,0-.11q0,.71-.06.69c-.11-1.14-.17-.27-.29-1.16-.05.44-.2-.16-.3-.08.12.89,0,0,.07.94,0,.06,0,.05,0,0L173,78.8a2,2,0,0,1,0-.41,3.72,3.72,0,0,1-.12-.62c0,.33,0,.47,0,.35l.09.42c0,.49-.15-.76-.18-.28V78c0,.17-.15,0-.11.74a2.19,2.19,0,0,1,0-.42c-.11-.1-.14.8-.25.36l0-.23c0,.07,0,.43,0,.2a1.62,1.62,0,0,0,0-.23c0,.08,0,.39,0,.27v-.26c-.12-.28-.08.63-.14.79a2.85,2.85,0,0,0-.21-1v-.09c-.12-.07-.13.56-.21.83-.13-.71-.24-.28-.37-.67a4.16,4.16,0,0,1,0,.58c0-.13,0,.47-.07-.14h0c-.08-.59-.11-.42-.15-.44l.07.79c-.21-1.13-.21.45-.37-.57,0,.2,0,.2,0,.4l-.05-.43c-.07-.1-.11-.15-.18,0v-.3s.06,1.22,0,1.25l-.08-.63c-.07,0-.21-.53-.23,0a1.05,1.05,0,0,1,0-.3s-.19-.41-.09.45c-.06-.56-.09,0-.11.21l0-.42a3.83,3.83,0,0,1,0,.84c0-.06,0-.34,0-.23-.06-.21,0,.4-.06.18v-.27s0,.12,0,.43-.09-.1-.14-.47c0,.23,0,.53,0,.43s0-.23,0-.28c-.1-.27-.06.5-.15.09a1.62,1.62,0,0,0,0-.24c.06,0,.1,0,.1,0a8.75,8.75,0,0,1-.11-1c0,.29,0,.93-.06.75a1.23,1.23,0,0,1,0-.13v0s0,0,0,.06,0-.11,0-.11c0-.32-.07-.17-.09-.18,0,.42,0,.36.07.7a.08.08,0,0,1,0-.07s0,0,0,0v0l0,0c0,.21,0,.39,0,.16,0,.27,0,.55,0,.68-.09-.58-.18-.89-.23-1.25a1.94,1.94,0,0,0-.1,1c0,.1-.05-.23-.07-.35a.5.5,0,0,0,0-.18,1.34,1.34,0,0,0-.05.64c-.08-.25,0-.51-.09-.42v-.17c-.22-.86-.07,1.43-.33.32,0,.06,0,.1,0,.19-.22-.48-.3.5-.54-.27-.06-.16,0,.19,0,.46l-.06-.45v.53c0,.39-.23-1.1-.25-.37l.05.31c0-.06-.08.18-.11-.17,0,.06,0,.32,0,.16l0-.23,0,.41c-.08-.16-.09-.94-.18-1a4.89,4.89,0,0,0,0,.85,1.27,1.27,0,0,1,.07.38l0,.12a15.55,15.55,0,0,0,.24,1.89v-.43l.05.34,0,0c0,.32,0,0,0-.16,0,.18,0,.3,0,.37V82a4.7,4.7,0,0,0,.08.69c0-.31-.09-.61-.07-.81.06.31.08.57.08.3a2.93,2.93,0,0,1,0,.37c0-.22.06-.1,0-.47.07.39.08-.11.14.55a2.2,2.2,0,0,1,0-.55c0,.79.09,0,.16.88,0-.71.08-.33.1-.72v.13c0,.06.06.27.1.4a8.79,8.79,0,0,1,0-1.09c.09.57,0,.69.11,1.23-.05-.47,0-.48,0-.87a4.5,4.5,0,0,1,.11.65c-.07-.73,0-.12,0-.58.08.36.08.69.11.46A2.69,2.69,0,0,1,168.82,83Zm1-1.38h0l0,0S169.78,81.67,169.79,81.65Zm.09,0h0a1.21,1.21,0,0,1,0-.29C169.83,81.43,169.86,81.51,169.88,81.63Zm-.49-2.88c0-.06,0,0,0,.1a.08.08,0,0,0,0,.06v0C169.4,78.88,169.4,78.8,169.39,78.75Z"/><path class="cls-3" d="M169.42,79.3v0a.64.64,0,0,0,0,.09v-.13Z"/><path class="cls-3" d="M177.87,79.08h0a.11.11,0,0,1,0,.06Z"/><polygon class="cls-3" points="171.24 82.31 171.23 82.2 171.23 82.3 171.24 82.31"/><path class="cls-3" d="M178.52,80.47s0,.07,0,.1A.58.58,0,0,0,178.52,80.47Z"/><path class="cls-3" d="M178.75,80.54l.05.15A.59.59,0,0,0,178.75,80.54Z"/><path class="cls-3" d="M178.94,80.73c0-.07,0-.13,0-.18h0Z"/><path class="cls-3" d="M176.3,81.49v0C176.29,81.6,176.3,81.56,176.3,81.49Z"/><path class="cls-3" d="M177,80.43v.2S177,80.67,177,80.43Z"/><polygon class="cls-3" points="175.46 82.09 175.46 82.08 175.45 82.08 175.46 82.09"/><path class="cls-3" d="M177,80.63c0,.08,0,.06,0,0S177,80.57,177,80.63Z"/><path class="cls-3" d="M179.69,80.85h0v0Z"/><path class="cls-3" d="M179.7,80.8v0S179.69,80.75,179.7,80.8Z"/><path class="cls-3" d="M179.71,80.64v.11S179.72,80.76,179.71,80.64Z"/><path class="cls-3" d="M179.45,80.68v.15A1,1,0,0,0,179.45,80.68Z"/><path class="cls-3" d="M179.39,80.73s.07.32.08.22v-.12C179.47,81.06,179.38,80.47,179.39,80.73Z"/><path class="cls-3" d="M178.91,78.87,179,79a2,2,0,0,1,0-.42C178.82,78.1,179,78.93,178.91,78.87Z"/><path class="cls-3" d="M178.71,78.66a1,1,0,0,0,0-.33A1.19,1.19,0,0,0,178.71,78.66Z"/><path class="cls-3" d="M177.44,78.78l0-.38A1.35,1.35,0,0,0,177.44,78.78Z"/><polygon class="cls-3" points="177.39 80.78 177.44 81.02 177.41 80.67 177.39 80.78"/><polygon class="cls-3" points="176.97 78.08 176.98 78.02 176.95 78.16 176.97 78.08"/><path class="cls-3" d="M174.84,78.43l0,.47C174.9,78.81,174.85,78.28,174.84,78.43Z"/><path class="cls-3" d="M174,79c0-.23-.07-.38-.07-.15C173.92,78.88,174,79.06,174,79Z"/><polygon class="cls-3" points="171.11 78.51 171.11 78.35 171.09 78.49 171.11 78.51"/></svg>