<svg id="Capa_1" data-name="Capa 1" xmlns="http://www.w3.org/2000/svg" viewBox="0 0 328.54 379.59"><defs><style>.cls-1{fill:#fff;stroke:#1d1d1b;stroke-miterlimit:10;stroke-width:0.34px;}.cls-2{fill:#5da6bc;}</style></defs><path class="cls-1" d="M246.1,185.94a2,2,0,0,0-2.27-1c-.72.14-1.41.42-2.12.61-1,.26-1.4-.09-1.25-1a20.18,20.18,0,0,0,.24-2.18,1.22,1.22,0,0,0-1.23-1,5.72,5.72,0,0,0-1.7.41c-.93.45-1.77,1.07-2.67,1.57a.84.84,0,0,1-.77,0c-.16-.12-.17-.49-.17-.75a20.24,20.24,0,0,0,0-2.2,1.58,1.58,0,0,0-2-1.17,8.59,8.59,0,0,0-2,1,12.93,12.93,0,0,0-1.51,1.62c-1.14,1.23-1.3,1.18-1.93-.58a16.26,16.26,0,0,0-.6-1.65,1.4,1.4,0,0,0-2-.07,5.61,5.61,0,0,0-.81,1.55c-.33,1.44-.5,2.92-.82,4.37a17.6,17.6,0,0,0-.16,7.94,4.71,4.71,0,0,1-.5,3.42c-2.62,4.83-5,9.78-7.35,14.72-3.93,8.14-8.24,16.1-11.62,24.49a2.94,2.94,0,0,1-.53.7c-.26.31-.5.32-.71.05-1.5-1.89-2.15-4.19-3.08-6.35-.23-.52.2-.82.55-1.08a5.57,5.57,0,0,0,2.26-4.61,30.23,30.23,0,0,0-.4-6.65c-.19-1-.36-2-.53-3.06-.42-2.48-.73-5-1.26-7.44a137.31,137.31,0,0,0-4.8-16.63,35.14,35.14,0,0,0-8.17-13.59c-1.16-1.15-2.18-2.43-3.37-3.54s-2.67-2.34-4.08-3.43a3.68,3.68,0,0,0-2.62-.75,11.33,11.33,0,0,0-.8-1.12,9.54,9.54,0,0,1,1.06-1.14c4.75-4.28,7.7-9.74,10.12-15.52A33.33,33.33,0,0,0,189,138.78c0-3.57,0-7.14,0-10.7a2.55,2.55,0,0,1,.81-2c1-1,2-1.63,3.5-1.06a5.77,5.77,0,0,0,2.16.42,1.58,1.58,0,0,0,1.42-.91,1.34,1.34,0,0,0,0-1.26c-1.44-2.6-2.8-5.23-5.09-7.25-1.12-1-2.07-2.12-3.13-3.16a2.67,2.67,0,0,1-.64-2.06c0-.24.11-.65.28-.72,1.41-.55,2.84-.89,4.22.12.6.43,1.16.92,1.79,1.3.15.09.51-.09.74-.21.06,0,.07-.3,0-.42a8.86,8.86,0,0,0-4.8-4.4c-4.33-2-8.76-3.71-13.64-3.71a9.59,9.59,0,0,1-1.75-.25c-.34-.06-.35-.29-.15-.65.69-1.2,1.45-2.14,3.1-1.87a15.86,15.86,0,0,0,3.08,0c.13,0,.25-.12.37-.19-.08-.13-.13-.31-.24-.37a8.52,8.52,0,0,0-4.23-1.12,2.54,2.54,0,0,1-2.66-1.89c-.69-1.63-1.48-3.23-2.23-4.84-.5-1.08-.94-2.19-1.52-3.22-1.92-3.35-3.77-6.74-5.86-10a88,88,0,0,0-16.11-18.92,96.42,96.42,0,0,0-8.69-6.94,139.64,139.64,0,0,0-13-7.83,41.64,41.64,0,0,0-4.36-2.23C116,40,109.74,37.36,103.12,35.64a45.73,45.73,0,0,0-8.75-1.55c-4.3-.23-8.6-.18-12.91-.05A21,21,0,0,0,71,37.41,9.83,9.83,0,0,0,68,40a44.79,44.79,0,0,0-5.22,8.79,12.91,12.91,0,0,0-1.14,6.08A21.54,21.54,0,0,0,68.43,69a1.23,1.23,0,0,0,.81.32c.25,0,.69-.2.71-.36a17.79,17.79,0,0,0,.18-2.63,13,13,0,0,1,1-5.19A10.11,10.11,0,0,1,78.32,55,15.78,15.78,0,0,1,85,54.83c1.91.28,3.78.79,5.67,1.16a23,23,0,0,1,7,2.73,49.83,49.83,0,0,1,10.85,8.36c.42.42.88.8,1.32,1.19a45.51,45.51,0,0,1,5.63,6.3A68.51,68.51,0,0,1,123,87.12c1,2.14,2.12,4.26,3.11,6.42,1.29,2.83,2.53,5.69,3.75,8.56a6,6,0,0,1,.41,1.73,1,1,0,0,1-.34.77,8.44,8.44,0,0,1-1.47,1,34.27,34.27,0,0,0-6.92,4.84,3,3,0,0,0-1.25,2.71,2.14,2.14,0,0,1-.57,1.62c-2,2.57-3.75,5.36-6.2,7.57a1.51,1.51,0,0,0-.14,2.34,1.21,1.21,0,0,1,0,1.59,1.75,1.75,0,0,0-.26,1.24,6.06,6.06,0,0,1,.4,2.57c0,.15.38.44.63.52a1.33,1.33,0,0,0,.86,0c1.27-.49,2.24.1,3.3.71a1.78,1.78,0,0,1,1,1.78c0,.89,0,1.78-.13,2.67-.63,6.13.38,12.13,1.42,18.12a22.65,22.65,0,0,0,1.09,3.84,32.89,32.89,0,0,0,12,15.66q.56.41,1.14.78a22.71,22.71,0,0,0-2.46,2.72h-.15a1.34,1.34,0,0,0-.77.4,22.52,22.52,0,0,0-2.58,3,76,76,0,0,0-6.12,11.34,107.51,107.51,0,0,0-3.59,10.51c-2.36,8.14-4.26,16.35-4.44,24.87,0,.3-.1.59-.1.89a6.52,6.52,0,0,0,.07.88,1.8,1.8,0,0,0,1.4,1.55c1.33.07,2.66.09,4,.13.84,0,1.28.43,1.44,1.36a15.93,15.93,0,0,1,.35,2.64,38.32,38.32,0,0,0,1.62,10.09c.69,2.58,1.42,5.14,2.08,7.73a3.7,3.7,0,0,0,1.79,2.43,1.83,1.83,0,0,1,.86,1.9c-.1.89-.31,1.75-.43,2.63-.14,1-.28,2.06-.32,3.09a2.55,2.55,0,0,0,1.66,2.44c1.21.54,2.5.92,3.76,1.36a1,1,0,0,1,.64,1,21.45,21.45,0,0,1-.15,2.66c-.67,5.32-.55,10.68-.79,16a3.65,3.65,0,0,0,2.48,3.8c.41.17.84.29,1.26.43a22.17,22.17,0,0,0,4.51,1,39.71,39.71,0,0,0,.21,6.72.12.12,0,0,0,0,.08,12.87,12.87,0,0,0-.33,2.62c0,3.41.16,6.84,0,10.24-.16,3.56.89,7.06.4,10.62l1.62,19c0,.15,0,.3.05.45.69,5.14,1.39,10.28,2.07,15.43a18.25,18.25,0,0,1,.13,2.22,1.46,1.46,0,0,1-1,1.35,5.22,5.22,0,0,1-1.24.48c-2.17.44-4.36.83-6.54,1.25a31.14,31.14,0,0,0-8,2.5,8.6,8.6,0,0,0-3.15,2.39,2.19,2.19,0,0,0,.31,2.83,6.08,6.08,0,0,0,1.95,1,13.31,13.31,0,0,0,6.13.37c2.29-.52,4.69-.47,7-1.16a44,44,0,0,1,9.95-2.26,2.38,2.38,0,0,0,.83-.3,5.86,5.86,0,0,0,.71-.52c.52-.43.46-1.69-.14-1.94-1.08-.46-2.2-.84-3.3-1.25a1.44,1.44,0,0,1-.63-1.87c.08-.13.11-.31.21-.38,1.49-1.1,1.73-2.64,1.59-4.34-.07-.74-.12-1.48-.12-2.22,0-3.12-.54-6.21-.67-9.32-.21-5-.21-10.09-.92-15.1a6.39,6.39,0,0,1,0-.88v-16h-.06c0-4,0-8,0-12,0-1.78-.13-3.56-.22-5.33a.8.8,0,0,0-.15-.38c.11-1.4.19-2.8.21-4.2,2.86-.13,5.71-.39,8.58-.26a3.21,3.21,0,0,0,3.14-2.07c.39-.8.63-1.67,1-2.48.09-.22.35-.37.53-.55.12.27.24.53.34.81a3,3,0,0,1,.07.43c.65,2.56,1.49,3.21,4.05,3.05a20.43,20.43,0,0,0,2.2-.31c2-.34,3.9-.72,5.86-1,.24.39.47.77.67,1.17a1.31,1.31,0,0,0-.07.86,28.64,28.64,0,0,1,.53,7.09c0,1.34,0,2.68-.05,4-.23,5.05-.49,10.09-.75,15.14-.2,3.7-.07,7.43-.8,11.09a14.9,14.9,0,0,0-.16,1.78c-.32,4.29-.56,8.59-1,12.88-.34,3.39-.54,6.8-1.15,10.17a55.11,55.11,0,0,0-.55,5.75,1.8,1.8,0,0,0,1.61,1.82,19.06,19.06,0,0,1,2.64.36,3.87,3.87,0,0,1,1.92,1c1,1.16,2,1,3.2.55l2.89-1.13a26.61,26.61,0,0,1,6-1.75,18.84,18.84,0,0,0,4.28-1.16A5,5,0,0,0,196,353.5c-.6-1.18,0-2.29.18-3.43a1.93,1.93,0,0,0-1.07-1.79,7.83,7.83,0,0,0-6.1,0,34,34,0,0,0-6.92,3,24.87,24.87,0,0,1-5.68,2.51.63.63,0,0,1-.77-.7c.42-2.18.83-4.37,1.32-6.54a131,131,0,0,0,2.9-18c.52-6.35,1.37-12.7,1.23-19.11a70.65,70.65,0,0,1,.31-7.12,77.69,77.69,0,0,0,.26-8.9c-.05-1.33,0-2.67.1-4a1.18,1.18,0,0,1,1.19-1.08c2.85.09,5.54-.93,8.34-1.25a7.2,7.2,0,0,0,1.28-.37c1.24-.37,1.8-1,1.69-2.24a83.93,83.93,0,0,0-1-8.84,26.44,26.44,0,0,1-.62-5.72,10.28,10.28,0,0,0-1.38-4.62.56.56,0,0,0-.16-.19q-1.11-2.88-2.2-5.77c0-.28.06-.56.08-.85a107.71,107.71,0,0,0-.32-16.46c-.11-1.48-.36-2.94-.54-4.41-.24-2-.41-4-.66-5.93a9.88,9.88,0,0,1,1,1,.72.72,0,0,0-.17.58c1,2,1.48,4.17,3,5.9a3.69,3.69,0,0,1,.57,1.16c1.42,4,4,7.25,6.65,10.44a6.92,6.92,0,0,0,2.06,1.67,3.64,3.64,0,0,0,5.1-1.17,33.6,33.6,0,0,0,3.16-5.85,71.61,71.61,0,0,1,5.9-11.94c1.75-2.92,3.38-5.92,4.89-9s2.84-6.52,4.41-9.71c1.24-2.53,1.9-5.3,3.39-7.71.48-2.18,1.89-4,2.08-6.32v-.15a1.65,1.65,0,0,0,.32-.28c.17-.2.35-.4.53-.59a5.85,5.85,0,0,0,.85.2c.75.13.86,1.32,1.74,1.12a9.79,9.79,0,0,0,2.08-.76c2-1,4-1.91,5.94-3a5.17,5.17,0,0,0,1.6-1.49,1.66,1.66,0,0,0,.11-1.25.89.89,0,0,0-1-.63c-.44,0-.85.24-1.29.31a3.32,3.32,0,0,1-.82-.09c.08-.22.1-.54.26-.66a49.43,49.43,0,0,0,5.2-4.14c.32-.31.66-.6.95-.93A2.51,2.51,0,0,0,246.1,185.94Zm-72.92-85.39a.91.91,0,0,0,.09-.17.79.79,0,0,1,.12.15c.07.12-.18.28-.47.36Zm5.94,193.1c-.14-.64-.31-1.27-.51-1.9a1.86,1.86,0,0,0,.54-.24C179.15,292.22,179.15,292.94,179.12,293.65Z"/><path class="cls-2" d="M135.4,227A107.35,107.35,0,0,0,130,257c-.08,2.48.26,5.52,2.54,6.48a6.46,6.46,0,0,0,2.05.37,345.68,345.68,0,0,0,46,0c2.44-.16,5.29-.59,6.46-2.74a7.46,7.46,0,0,0,.51-4.12L186,234.75c-.15-2.19-.16-4.72,1.51-6.14s4-1,6.1-.91,4.7-.43,5.31-2.45a5,5,0,0,0,.06-2.08c-1-9.66-2-19.4-5.11-28.6s-8.46-17.93-16.54-23.31a9.59,9.59,0,0,0-4.08-1.77c-2.69-.33-5.19,1.28-7.5,2.69-5.07,3.09-10.87,5.63-16.77,4.91-4.7-.56-9.52-3.15-13.92-1.4-3.69,1.46-5.61,5.43-7.2,9.07-4.11,9.43-8.29,19.13-9.67,29.41-.4,3-1.93,11.35.71,13.41C121.37,229.49,132.28,227.15,135.4,227Z"/><path class="cls-2" d="M77.17,54.42c4.59-1.66,9.71-1.16,14.37.26,9.33,2.84,17.33,9.19,23.4,16.82S125.31,88,129,97.06c.71,1.76,1.46,3.6,3,4.76a8.38,8.38,0,0,0,4.61,1.47c12.53.91,25-9.52,36.75-5.18a26.63,26.63,0,0,0-3.53-7.59c-8.11-13.36-17.3-26.4-29.66-36-12.11-9.38-26.78-15-41.74-18.3C92,34.87,85.5,33.88,79.18,35.15S66.76,40.33,64.39,46.32c-1.1,2.79-2.23,16,2.09,17.07C68.36,63.87,74.18,55.49,77.17,54.42Z"/><path class="cls-2" d="M135,283.86a5.51,5.51,0,0,0,.9,3.12c.9,1.11,2.46,1.37,3.88,1.53a136.67,136.67,0,0,0,15.26.86,4.15,4.15,0,0,0,2.07-.35c2.3-1.29.76-5.45,2.84-7.06,1.67,1.93,3.31,3.88,4.92,5.87l19.82-.69c3.1-.1,6.47-.31,8.81-2.36a148.88,148.88,0,0,0-3.84-19.4,7.3,7.3,0,0,0-1.22-2.81c-2.16-2.61-6.3-1.17-9.51-.07-10.07,3.44-20.8,1.19-31.16,1.46-3.23.08-10.57-.3-12.7,2.63C132.77,269.74,134.69,280.13,135,283.86Z"/><path d="M174.18,170.05a1,1,0,0,0-1.21.24,32.43,32.43,0,0,1-7.09,4.58,34.89,34.89,0,0,1-10.52,3.47c-7.76,1-15.16-.34-21.57-5a32.89,32.89,0,0,1-12-15.66,22.65,22.65,0,0,1-1.09-3.84c-1-6-2-12-1.42-18.12.09-.89.1-1.78.13-2.67a1.78,1.78,0,0,0-1-1.78c-1.06-.61-2-1.2-3.3-.71a1.33,1.33,0,0,1-.86,0c-.25-.08-.65-.37-.63-.52a6.06,6.06,0,0,0-.4-2.57,1.75,1.75,0,0,1,.26-1.24,1.21,1.21,0,0,0,0-1.59,1.51,1.51,0,0,1,.14-2.34c2.45-2.21,4.19-5,6.2-7.57a2.14,2.14,0,0,0,.57-1.62,3,3,0,0,1,1.25-2.71,34.27,34.27,0,0,1,6.92-4.84,8.44,8.44,0,0,0,1.47-1,1,1,0,0,0,.34-.77,6,6,0,0,0-.41-1.73c-1.22-2.87-2.46-5.73-3.75-8.56-1-2.16-2.08-4.28-3.11-6.42a68.51,68.51,0,0,0-7.59-12.55,45.51,45.51,0,0,0-5.63-6.3c-.44-.39-.9-.77-1.32-1.19a49.83,49.83,0,0,0-10.85-8.36,23,23,0,0,0-7-2.73c-1.89-.37-3.76-.88-5.67-1.16a15.78,15.78,0,0,0-6.63.19,10.11,10.11,0,0,0-7.16,6.09,13,13,0,0,0-1,5.19A17.79,17.79,0,0,1,70,68.93c0,.16-.46.36-.71.36a1.23,1.23,0,0,1-.81-.32,21.54,21.54,0,0,1-6.82-14.1,12.91,12.91,0,0,1,1.14-6.08A44.79,44.79,0,0,1,68,40a9.83,9.83,0,0,1,3-2.59A21,21,0,0,1,81.46,34c4.31-.13,8.61-.18,12.91.05a45.73,45.73,0,0,1,8.75,1.55c6.62,1.72,12.92,4.33,19.26,6.84a41.64,41.64,0,0,1,4.36,2.23,139.64,139.64,0,0,1,13,7.83,96.42,96.42,0,0,1,8.69,6.94A88,88,0,0,1,164.49,78.4c2.09,3.24,3.94,6.63,5.86,10,.58,1,1,2.14,1.52,3.22.75,1.61,1.54,3.21,2.23,4.84a2.54,2.54,0,0,0,2.66,1.89A8.52,8.52,0,0,1,181,99.45c.11.06.16.24.24.37-.12.07-.24.19-.37.19a15.86,15.86,0,0,1-3.08,0c-1.65-.27-2.41.67-3.1,1.87-.2.36-.19.59.15.65a9.59,9.59,0,0,0,1.75.25c4.88,0,9.31,1.75,13.64,3.71a8.86,8.86,0,0,1,4.8,4.4c0,.12,0,.39,0,.42-.23.12-.59.3-.74.21-.63-.38-1.19-.87-1.79-1.3-1.38-1-2.81-.67-4.22-.12-.17.07-.29.48-.28.72a2.67,2.67,0,0,0,.64,2.06c1.06,1,2,2.19,3.13,3.16,2.29,2,3.65,4.65,5.09,7.25a1.34,1.34,0,0,1,0,1.26,1.58,1.58,0,0,1-1.42.91,5.77,5.77,0,0,1-2.16-.42c-1.48-.57-2.49.08-3.5,1.06a2.56,2.56,0,0,0-.81,2c0,3.56,0,7.13,0,10.7a33.33,33.33,0,0,1-2.39,13.06c-2.42,5.78-5.37,11.24-10.12,15.52a27,27,0,0,0-2.31,2.69Zm17-52.56c-.15.31-.36.19-.2,0,.39-.44-.31-.09.27,0,.71.46.22,1,.18,1.6l.22,0s-.22,0-.21,0C191.4,118.63,191.31,118.06,191.22,117.49ZM177.62,119l-1.3.74c-.32.26-.34.36-.09.27,0,0,0-.24,0-.36l1.5-.78c-.32.06-.35,0-.1-.14Zm-21-7.53c.54-1,1.94-.61,2.52-1.54a1.65,1.65,0,0,0,.13-.63.59.59,0,0,0-.38-.09c-.55.19-1.09.41-1.63.64-.82.35-.82.35-.64,1.63a3.1,3.1,0,0,0-1.92-.61c-.13,0-.35,0-.38.12-.11.34,0,.57.3.57Zm-13,3.19a5,5,0,0,0-2.93-.46,2.77,2.77,0,0,0-1.86,1c-.23.26-.31.45,0,.72.08.08.25.18.33.14,1.44-.55,3.09-.48,4.37-1.49.15-.28.73-.13.63-.64,0,0-.31,0-.33,0A4.44,4.44,0,0,0,143.62,114.62Zm-9,5.26c-.29,0-.62-.22-.84-.13-2.44,1-4.9,2-7.26,3.22a11,11,0,0,0-4.32,3.71c-.08.12-.18.3-.14.4.13.37.37.43.67.26,3.72-2.07,7.35-4.31,10.92-6.63a4.92,4.92,0,0,0,.86-.95c.08-.24.93.06.42-.6Zm12.83-16.56c-.59,0-1.18.11-1.77.12a27.82,27.82,0,0,0-9.54,2,21.5,21.5,0,0,0-8.51,5.5c-.16.18-.14.54-.2.81a.46.46,0,0,0-.71.28c0,.06.2.29.28.28.38,0,.49-.29.34-.65.29,0,.64.16.85,0,2.95-1.6,6.1-2.78,9.14-4.18a37.62,37.62,0,0,1,9.11-3,1.49,1.49,0,0,0,.79-.33c.15-.16.12-.49.18-.74a1.25,1.25,0,0,1,.37-.09c.1,0,.19.11.28.17ZM88.2,36c-1.63,0-3.27-.07-4.9,0a24.17,24.17,0,0,0-9.85,2.5,11.22,11.22,0,0,0-4.33,3.75c-.91,1.36-1.84,2.7-2.67,4.11a15.64,15.64,0,0,0-2.33,5.74,14.92,14.92,0,0,0,2.71,11.39.69.69,0,0,0,1.08-.09c.48-1.08.89-2.19,1.4-3.25a12,12,0,0,1,11.27-7.29,46.53,46.53,0,0,1,11,1.53,32.22,32.22,0,0,1,7.35,3,28.5,28.5,0,0,1,4.49,2.87,102.47,102.47,0,0,1,10.49,9.6,53.58,53.58,0,0,1,8.72,12.32c2.58,4.84,4.69,9.93,7,14.93.8,1.76,1.43,3.58,2.15,5.37.26.67.78,1,1.35.82a25.72,25.72,0,0,0,4.21-1.42c2.06-1.06,4.37-.76,6.49-1.49a10.86,10.86,0,0,1,3.53-.26,21,21,0,0,1,3.54.29,5.34,5.34,0,0,0,3.86-.59,14.68,14.68,0,0,1,4.61-1.55,34.92,34.92,0,0,1,9.72-.81,10.16,10.16,0,0,0,2.2-.18.78.78,0,0,0,.4-.65,67.49,67.49,0,0,0-2.89-7c-2-3.8-4.22-7.51-6.45-11.19a85.84,85.84,0,0,0-8.14-10.59,80.19,80.19,0,0,0-11.61-11,105.94,105.94,0,0,0-18.16-11.22,108.12,108.12,0,0,0-19.92-7.57A57.11,57.11,0,0,0,88.2,36Zm97.46,99.32c0-.2.15-1.24.16-2.27s-.1-2.08-.17-3.11c-.05-.75-.29-1.14-1-1.19a2.71,2.71,0,0,1-2.83-2.3c-.13-.55-.59-.62-.86-.22-.41.61-.8,1.25-1.23,1.85a16.37,16.37,0,0,1-1.1,1.39,2.07,2.07,0,0,1-3.4-.15,1.31,1.31,0,0,1-.2-.39,1.38,1.38,0,0,0-1.65-1.08,2.83,2.83,0,0,1-3.33-1.59,1.51,1.51,0,0,0-1.08-.6,3.86,3.86,0,0,1-2.7-1.35,1.09,1.09,0,0,0-1.55-.19,9.59,9.59,0,0,1-2,.92,2.18,2.18,0,0,1-2.71-.93,1.67,1.67,0,0,0-2.2-.86,4.68,4.68,0,0,1-2.62.29,3.91,3.91,0,0,0-2.57.41,2.9,2.9,0,0,1-3.56-1c-.55-.67-.89-.62-1.54-.29-.92.46-1.83.93-2.76,1.38a.51.51,0,0,1-.41-.07c-.07,0-.14-.24-.1-.28a17.87,17.87,0,0,1,2.61-3c1.68-1.22,3.25-2.58,4.83-3.93a2.83,2.83,0,0,0,.73-1.09,1,1,0,0,0-.07-.82.87.87,0,0,0-.72-.33,8.06,8.06,0,0,0-4.15,2.44c-2.38,2.45-4.84,4.82-7.1,7.37a27.21,27.21,0,0,1-4.79,3.94,3.57,3.57,0,0,1-1.7.35,1.15,1.15,0,0,1-1.17-1.08c.07-.73.24-1.46.3-2.2a1.26,1.26,0,0,0-.32-.67c-.05-.06-.31,0-.42,0-1.11.73-2.18,1.54-3.34,2.2q-3.09,1.77-6.26,3.37a2.57,2.57,0,0,0-1.54,2.46,86.72,86.72,0,0,0,1.54,18.6,31.43,31.43,0,0,0,5.12,12.19,33.77,33.77,0,0,0,7.12,7.3,23.34,23.34,0,0,0,8.28,4.16,33.46,33.46,0,0,0,11.5.85,10,10,0,0,0,2.17-.41c4.68-1.45,9.22-3.16,13.19-6.18a38.53,38.53,0,0,0,6.52-6,46,46,0,0,0,7.95-14.32,11.41,11.41,0,0,0,.55-2.16,43.07,43.07,0,0,0,.61-7.53C185.63,138.18,185.66,137.14,185.66,135.27ZM166.09,101c.88,0,1.6-.06,2.32-.16a.7.7,0,0,0,.47-.5.82.82,0,0,0-.38-.66,7.93,7.93,0,0,0-4.24.1c-.18,0-.29.42-.38.66,0,0,.14.25.24.26C164.82,100.82,165.53,100.92,166.09,101ZM128,117.3a6.11,6.11,0,0,0,2.71-1.45.52.52,0,0,0,.08-.42.47.47,0,0,0-.74-.24c-.75.46-1.49.94-2.21,1.44a.47.47,0,0,0-.13.4C127.77,117.14,127.93,117.21,128,117.3Zm41.86-13.67c.41,0,.69-.07,1-.12s.55-.29.4-.57a1.18,1.18,0,0,0-.57-.51,2,2,0,0,0-2,.38.48.48,0,0,0-.13.37.33.33,0,0,0,.21.25C169.2,103.53,169.61,103.58,169.89,103.63Zm-14.33,14.76,0-.36c-.27.08-.53.15-.78.25,0,0,0,.21,0,.32Zm29.64-1.52c0-.21,0-.41-.08-.43a1.81,1.81,0,0,0-.77-.23c-.5,0-.74.35-.7.87,0,.36.27.56.56.43A8,8,0,0,0,185.2,116.87ZM172.4,100a1.35,1.35,0,0,0-.37.13.9.9,0,0,0-.25.29c.17.19.35.44.58.51.43.14,1.14-.18,1-.37a1.69,1.69,0,0,0-.61-.5C172.68,100,172.53,100,172.4,100Z"/><path d="M145.23,263.06a89.22,89.22,0,0,1,13.75,1,22.1,22.1,0,0,0,5.33.06c2.66-.27,5.28-.83,7.92-1.18,1.77-.24,3.54-.38,5.32-.5a27.88,27.88,0,0,0,6.54-1.23,1.57,1.57,0,0,0,1.1-1.29,11.54,11.54,0,0,0,.18-1.76c.18-6.1.32-12.19-.7-18.23A55.42,55.42,0,0,0,183,228.05a46.13,46.13,0,0,1-1-7,66.7,66.7,0,0,0-1.31-7.45,20.82,20.82,0,0,1-.4-2.18c-.28-3.85-.71-7.69-1.34-11.5a6.33,6.33,0,0,1,.17-2.2c.08-.4.31-.89.85-.87a3.48,3.48,0,0,1,1.24.26,1.39,1.39,0,0,1,.59.63,6.29,6.29,0,0,1,.71,1.62,21.29,21.29,0,0,1,.44,3.09c.33,4.89,1.29,9.7,2,14.54.58,3.81,1.18,7.62,1.91,11.41.59,3,.79,6.16,1.17,9.25.18,1.47.43,2.93.54,4.41a107.71,107.71,0,0,1,.32,16.46,19.26,19.26,0,0,1-.35,2.64,3.72,3.72,0,0,1-3.3,3.08c-4.22.88-8.49,1.25-12.73,1.86-2.2.31-4.39.7-6.61.83a82.77,82.77,0,0,1-14.68-.49,46.38,46.38,0,0,0-5.77-.31c-2.68,0-5.35.14-8,.23a1.36,1.36,0,0,0-1.23,1.05A26.47,26.47,0,0,0,136,270c0,5.19.07,10.38.12,15.57a3,3,0,0,0,.08.43,1.76,1.76,0,0,0,1.14,1.24c1.9.31,3.8.7,5.71.89a21.35,21.35,0,0,0,4.45,0,68.67,68.67,0,0,1,8-.65,1.32,1.32,0,0,0,1.32-1,11.88,11.88,0,0,0,.94-3.85,9.15,9.15,0,0,1,1.08-4.28,2.42,2.42,0,0,1,2.35-.91,1.85,1.85,0,0,1,1.34,1.06c.5,1.23.91,2.5,1.33,3.76s.78,2.55,1.23,3.81a.89.89,0,0,0,.7.44,21.88,21.88,0,0,0,3.54-.32,40.92,40.92,0,0,1,7.08-.68c3.7-.12,7.4-.49,11.09-.8a10.07,10.07,0,0,0,2.14-.56,1.46,1.46,0,0,0,.95-1.36c-.11-1.18-.23-2.36-.41-3.53a82.42,82.42,0,0,1-1.3-11.51,8.06,8.06,0,0,1,.19-2.2,1.35,1.35,0,0,1,1-.74,1.33,1.33,0,0,1,1.14.47,10.28,10.28,0,0,1,1.38,4.62,26.44,26.44,0,0,0,.62,5.72,83.93,83.93,0,0,1,1,8.84c.11,1.21-.45,1.87-1.69,2.24a7.2,7.2,0,0,1-1.28.37c-2.8.32-5.49,1.34-8.34,1.25a1.18,1.18,0,0,0-1.19,1.08c-.06,1.33-.15,2.67-.1,4a77.69,77.69,0,0,1-.26,8.9,70.65,70.65,0,0,0-.31,7.12c.14,6.41-.71,12.76-1.23,19.11a131,131,0,0,1-2.9,18c-.49,2.17-.9,4.36-1.32,6.54a.64.64,0,0,0,.78.7,25,25,0,0,0,5.67-2.51,34,34,0,0,1,6.92-3,7.83,7.83,0,0,1,6.1,0,1.93,1.93,0,0,1,1.07,1.79c-.19,1.14-.78,2.25-.18,3.43a5,5,0,0,1-3.24,4.88,18.84,18.84,0,0,1-4.28,1.16,26.61,26.61,0,0,0-6,1.75l-2.89,1.13c-1.17.46-2.22.61-3.2-.55a3.87,3.87,0,0,0-1.92-1,19.06,19.06,0,0,0-2.64-.36,1.8,1.8,0,0,1-1.61-1.82,55.11,55.11,0,0,1,.55-5.75c.61-3.37.81-6.78,1.15-10.17.43-4.29.67-8.59,1-12.88a14.9,14.9,0,0,1,.16-1.78c.73-3.66.6-7.39.8-11.09.26-5.05.52-10.09.75-15.14.07-1.33.07-2.67.05-4a28.64,28.64,0,0,0-.53-7.09c-.18-.71.23-1.37.72-1.38a1.31,1.31,0,0,1,1.15,1.1,19.36,19.36,0,0,1,.54,2.6c.31,2.5.56,5,.85,7.5a.37.37,0,0,0,.29.24.45.45,0,0,0,.37-.22,31.87,31.87,0,0,0,1.09-10.56,1.51,1.51,0,0,0-1.35-1.5,19,19,0,0,0-3.11,0c-2.35.34-4.67.8-7,1.21a20.43,20.43,0,0,1-2.2.31c-2.56.16-3.4-.49-4.05-3.05a3,3,0,0,0-.07-.43c-.1-.28-.22-.54-.34-.81-.18.18-.44.33-.53.55-.36.81-.6,1.68-1,2.48a3.21,3.21,0,0,1-3.14,2.07c-3.28-.15-6.53.21-9.79.31a28.49,28.49,0,0,1-10.12-1.15c-.42-.14-.85-.26-1.26-.43a3.65,3.65,0,0,1-2.48-3.8c.24-5.34.12-10.7.79-16a21.45,21.45,0,0,0,.15-2.66,1,1,0,0,0-.64-1c-1.26-.44-2.55-.82-3.76-1.36a2.55,2.55,0,0,1-1.66-2.44c0-1,.18-2.06.32-3.09.12-.88.33-1.74.43-2.63a1.83,1.83,0,0,0-.86-1.9,3.7,3.7,0,0,1-1.79-2.43c-.66-2.59-1.39-5.15-2.08-7.73A37.91,37.91,0,0,1,122,234.43a17.08,17.08,0,0,0-.36-2.64c-.16-.93-.6-1.33-1.44-1.36-1.33,0-2.66-.06-4-.13a1.8,1.8,0,0,1-1.4-1.55,6.52,6.52,0,0,1-.07-.88c0-.3.09-.59.1-.89.18-8.52,2.08-16.73,4.44-24.87a107.51,107.51,0,0,1,3.59-10.51A76,76,0,0,1,129,180.26a22.52,22.52,0,0,1,2.58-3,1.34,1.34,0,0,1,.77-.4,1.94,1.94,0,0,1,.84.17c.35.12.44.39.21.71a55.89,55.89,0,0,0-5.54,9.63,74.55,74.55,0,0,0-5.11,13.74c-1,4-2.12,8-2.9,12.12A53.48,53.48,0,0,0,118.5,226a1.3,1.3,0,0,0,1.43,1.32,60.79,60.79,0,0,1,11.12-.47,1.67,1.67,0,0,0,1.31-1c.09-.44.2-.87.25-1.31.75-5.89,1.44-11.78,2.25-17.66a63.45,63.45,0,0,0,.66-10.21,1.62,1.62,0,0,1,.22-.84,1,1,0,0,1,.67-.45,1,1,0,0,1,.74.36,5.16,5.16,0,0,1,.56,4.27,3.3,3.3,0,0,0-.32,1.69,11.17,11.17,0,0,1,.09,4,126.14,126.14,0,0,1-1.06,12.87c-.48,3.37-.68,6.8-1.28,10.15-.34,1.91-.51,3.81-.66,5.74-.46,5.92-1.27,11.79-2.24,17.65a13.86,13.86,0,0,0-.35,2.19,20.15,20.15,0,0,1-.71,5.73,4.17,4.17,0,0,0,0,1.32,1,1,0,0,0,.78,1,24,24,0,0,0,5.26.85C139.89,263,142.56,263.06,145.23,263.06ZM128.11,230l-3.27.37a1.29,1.29,0,0,0-.76,1,12.55,12.55,0,0,0,.11,1.75c.65,3.19,1.42,6.35,2.17,9.51a49.08,49.08,0,0,0,2,6.33c.05.12.27.29.33.26s.48-.23.53-.4a21.06,21.06,0,0,0,.88-4.33c.13-2.22.46-4.42.71-6.62l.69-6.18a1.46,1.46,0,0,0-1-1.34C129.84,230.2,129.11,230.11,128.11,230Z"/><path d="M229.15,199.12a2.77,2.77,0,0,1,.83-3.22c.57-.48,1.15-.93,1.72-1.41a1,1,0,0,0,0-1.52c-.11-.09-.25-.16-.37-.25-.79-.58-.87-.59-1.51-.18a12.94,12.94,0,0,1-1.49,1,1.52,1.52,0,0,1-2-1.25,9.71,9.71,0,0,1,.21-1.77.76.76,0,0,0-.56-1,3.94,3.94,0,0,0-1.28,0,.51.51,0,0,0-.36.23,4.6,4.6,0,0,0,0,3.46c.11.24.41.41.63.6a1.72,1.72,0,0,1,.63,1.58A8.85,8.85,0,0,1,225,198c-2.49,5.23-5.1,10.39-7.57,15.63-3,6.44-6,12.91-9.15,19.3-.86,1.72-1.5,3.56-2.19,5.36a8.06,8.06,0,0,1-3,3.8,1.69,1.69,0,0,1-1.67.07,4.06,4.06,0,0,1-1.85-1.86c-.61-1.35-1.21-2.71-1.75-4.09-.64-1.66-1.22-3.35-1.8-5a1.36,1.36,0,0,0-1.38-.91c-.74-.05-1.48,0-2.22,0a7.15,7.15,0,0,1-3.42-.9,2,2,0,0,1-.78-1,1.29,1.29,0,0,1,.6-1.52,7.27,7.27,0,0,1,2-.82,18.39,18.39,0,0,1,2.22,0c1.18,0,2.37-.1,3.55-.19a1.31,1.31,0,0,0,1.15-1.14,29.35,29.35,0,0,0-.35-7.54c-.63-3.05-.89-6.17-1.41-9.24-.29-1.76-.76-3.48-1.2-5.21-.33-1.29-.77-2.56-1.1-3.85a80.74,80.74,0,0,0-4.43-12.49,15.39,15.39,0,0,0-1.06-2A70.55,70.55,0,0,0,178,172.13a6.47,6.47,0,0,0-3.83-2.08h0l1.29-.3a3.82,3.82,0,0,1,3.38.62c1.41,1.09,2.79,2.22,4.08,3.43s2.21,2.39,3.37,3.54a35.14,35.14,0,0,1,8.17,13.59,137.31,137.31,0,0,1,4.8,16.63c.53,2.46.84,5,1.26,7.44.17,1,.34,2,.53,3.06a30.23,30.23,0,0,1,.4,6.65,5.57,5.57,0,0,1-2.26,4.61c-.35.26-.78.56-.55,1.08.93,2.16,1.58,4.46,3.08,6.35.21.27.45.26.71-.05a2.94,2.94,0,0,0,.53-.7c3.38-8.39,7.69-16.35,11.62-24.49,2.38-4.94,4.73-9.89,7.35-14.72a4.71,4.71,0,0,0,.5-3.42,17.6,17.6,0,0,1,.16-7.94c.32-1.45.49-2.93.82-4.37a5.61,5.61,0,0,1,.81-1.55,1.4,1.4,0,0,1,2,.07,16.26,16.26,0,0,1,.6,1.65c.63,1.76.79,1.81,1.93.58a12.93,12.93,0,0,1,1.51-1.62,8.59,8.59,0,0,1,2-1,1.58,1.58,0,0,1,2,1.17,20.24,20.24,0,0,1,0,2.2c0,.26,0,.63.17.75a.84.84,0,0,0,.77,0c.9-.5,1.74-1.12,2.67-1.57a5.72,5.72,0,0,1,1.7-.41,1.22,1.22,0,0,1,1.23,1,20.18,20.18,0,0,1-.24,2.18c-.15.9.27,1.25,1.25,1,.71-.19,1.4-.47,2.12-.61a2,2,0,0,1,2.27,1,2.51,2.51,0,0,1-.32,2.5c-.29.33-.62.62-.95.93a49.43,49.43,0,0,1-5.2,4.14c-.16.12-.18.44-.26.66a3.32,3.32,0,0,0,.82.09c.44-.07.85-.27,1.29-.31a.89.89,0,0,1,1,.63,1.66,1.66,0,0,1-.11,1.25,5.17,5.17,0,0,1-1.6,1.49c-1.95,1.06-3.95,2-5.94,3a9.79,9.79,0,0,1-2.08.76c-.88.2-1-1-1.74-1.12a3.18,3.18,0,0,1-2-.89Z"/><path d="M148,313.08v16a6.39,6.39,0,0,0,0,.88c.71,5,.71,10.06.92,15.1.13,3.11.67,6.2.67,9.32,0,.74.05,1.48.12,2.22.14,1.7-.1,3.24-1.59,4.34-.1.07-.13.25-.21.38a1.44,1.44,0,0,0,.63,1.87c1.1.41,2.22.79,3.3,1.25.6.25.66,1.51.14,1.94a5.86,5.86,0,0,1-.71.52,2.38,2.38,0,0,1-.83.3,44,44,0,0,0-9.95,2.26c-2.3.68-4.71.64-7,1.16a13.31,13.31,0,0,1-6.13-.37,6.08,6.08,0,0,1-1.95-1,2.19,2.19,0,0,1-.31-2.83,8.6,8.6,0,0,1,3.15-2.39,31.14,31.14,0,0,1,8-2.5c2.18-.42,4.37-.81,6.54-1.25a5.22,5.22,0,0,0,1.24-.48,1.46,1.46,0,0,0,1-1.35,18.25,18.25,0,0,0-.13-2.22c-.68-5.15-1.38-10.29-2.07-15.43,0-.15,0-.3-.05-.45l-1.62-19c.49-3.56-.56-7.06-.4-10.62.15-3.4,0-6.83,0-10.24a12.87,12.87,0,0,1,.33-2.62c0-.18.45-.38.7-.4a1,1,0,0,1,.75.32c.49.64.3,1.42.33,2.15,0,.4.19.6.39.47s.57-.34.65-.58a9,9,0,0,0,.32-1.72c.09-.73.11-1.47.21-2.21a1.61,1.61,0,0,1,2-1.25c.54.09,1.22.67,1.24,1.12.09,1.77.2,3.55.22,5.33,0,4,0,8,0,12Z"/><path d="M229.05,199a3,3,0,0,1,.28,1.71c-.19,2.28-1.6,4.14-2.08,6.32-1.49,2.41-2.15,5.18-3.39,7.71-1.57,3.19-2.84,6.53-4.41,9.71s-3.14,6-4.89,9a71.61,71.61,0,0,0-5.9,11.94,33.6,33.6,0,0,1-3.16,5.85,3.64,3.64,0,0,1-5.1,1.17,6.92,6.92,0,0,1-2.06-1.67c-2.66-3.19-5.23-6.45-6.65-10.44a3.69,3.69,0,0,0-.57-1.16c-1.48-1.73-2-3.94-3-5.9-.09-.16.12-.6.31-.74a.82.82,0,0,1,.79,0,12.11,12.11,0,0,1,1.75,2q2.28,3.56,4.43,7.19a27.73,27.73,0,0,0,6.06,7,.51.51,0,0,0,.79,0,9,9,0,0,0,1.09-1.39,25.83,25.83,0,0,0,1.8-3.56c2.08-5.59,5.31-10.58,8-15.84q1.83-3.56,3.65-7.11c.21-.39.38-.81.59-1.2a165.39,165.39,0,0,0,7-15.82c.45-1.09.89-2.19,1.39-3.27.64-1.38,1.25-1.61,3.3-1.34Z"/><path d="M153.64,169.68a3.83,3.83,0,0,1-3.76-2,15.49,15.49,0,0,1-1-2.44,1.12,1.12,0,0,0-.88-.86,6.94,6.94,0,0,1-3.31-1.17,3.09,3.09,0,0,0-3.32-.25c-.89.36-1.6-.1-2.1-1.07a1.14,1.14,0,0,1,.23-1.2,6.49,6.49,0,0,1,3.67-1.37,2.46,2.46,0,0,1,1.28.28c.81.35,1.57.82,2.39,1.14a2.11,2.11,0,0,0,1.29,0,27.29,27.29,0,0,0,2.9-1.08,5.34,5.34,0,0,1,5.1.3l.76.44a1.42,1.42,0,0,0,1.64-.18,4.94,4.94,0,0,1,2.73-1.34,1.42,1.42,0,0,1,1.39.84,1.51,1.51,0,0,1-.28,1.64c-1.51.89-2.76,2.27-4.65,2.46a.94.94,0,0,0-.79.94c0,.74,0,1.48,0,2.21a2.69,2.69,0,0,1-2.88,2.71Z"/><path d="M164.74,134.48c.11,2.05-.52,3-1.58,3.67a1.78,1.78,0,0,1-1.71,0,2,2,0,0,1-1-1.83,4.1,4.1,0,0,1,1.49-2.63,1.41,1.41,0,0,1,2,0C164.38,134.12,164.75,134.57,164.74,134.48Z"/><path d="M152.45,147.75c.14,0,.39,0,.41.07a3.84,3.84,0,0,1,.29,1.26,6.58,6.58,0,0,0,.7,3.38c.23.47-.43,1.13-1,1a2.25,2.25,0,0,1-1.93-2.07,5.77,5.77,0,0,1,.8-3.35C151.84,147.9,152.2,147.86,152.45,147.75Z"/><path d="M143.39,136.63a2.94,2.94,0,0,1-.73,2.09,1.61,1.61,0,0,1-2,.19,2.9,2.9,0,0,1-.29-4,1.64,1.64,0,0,1,1.55-.65,2.08,2.08,0,0,1,1.43,1.54C143.37,136.09,143.38,136.39,143.39,136.63Z"/></svg>