<?xml version="1.0" encoding="UTF-8"?>
<svg id="Capa_1" data-name="Capa 1" xmlns="http://www.w3.org/2000/svg" viewBox="0 0 377.21 152.38">
  <defs>
    <style>
      .cls-1 {
        fill: #4f616f;
      }

      .cls-1, .cls-2, .cls-3 {
        stroke-width: 0px;
      }

      .cls-2 {
        fill: #ead159;
      }

      .cls-3 {
        fill: #fffaf0;
      }

      .cls-4 {
        opacity: .3;
      }
    </style>
  </defs>
  <g>
    <path class="cls-2" d="M55.36,16.48c-15.04-3.34-30.34,10.06-37.23,28.59-6.89,18.53-6.46,40.86-2.08,60.75,1.83,8.33,4.54,16.8,9.67,21.98,5.71,5.77,13.29,6.4,20.39,6.78,77.45,4.11,155,4.38,232.47.92,15.85-.71,32-1.65,46.92-9.03,14.91-7.38,28.65-22.32,33.42-42.94,5.59-24.19-3.59-53.06-20.38-64.02-9.7-6.33-20.8-6.94-31.55-7.44-56.21-2.6-112.42-5.19-168.62-7.79-27.27-1.26-55.42-2.33-80.85,11.16"/>
    <g>
      <path class="cls-2" d="M61.37,20.77c-1.09.43-.19,1.23-.26,1.48,1.61-1.06.08-1.72.26-1.48Z"/>
      <polygon class="cls-2" points="78.74 11.49 78.52 12.01 81.11 10.24 78.74 11.49"/>
      <path class="cls-2" d="M97.22,8.34c-.98-.85-2.69-.58-4.56-.15-1.86.52-3.88,1.17-5.58,1.13l-.62-.32-1.2,1.79c3.87-1.08,9.03-2.68,11.96-2.46Z"/>
      <path class="cls-2" d="M107.44,11.81c-.64-.71,2.12-.74-2.32-.12.23.07.29.11.43.17.4-.03.95-.05,1.89-.04Z"/>
      <path class="cls-2" d="M105.55,11.86c-1.95.14,1.3.56,0,0h0Z"/>
      <path class="cls-2" d="M114.63,11.23c-.87.23-1.74.43-2.6.67.54.41,2.86.53,2,.84,2.66-.36,2.12-.8.6-1.51Z"/>
      <path class="cls-2" d="M117.12,9.84l-1.36.28c.24.18.6.25,1.36-.28Z"/>
      <path class="cls-2" d="M112.88,10.71l2.88-.59c-.38-.31-.42-.92-1.32.21.23-.56-.34-.02-1.56.38Z"/>
      <path class="cls-2" d="M111.26,10.45c-1.47-.38-3.38-.6-.76-1.32-2.51.17-3.56.62-3.36.95.19.31,1.63.55,4.12.37Z"/>
      <path class="cls-2" d="M98.01,6.29c-.68-.15-1.36-.24-2.04-.36l-1.64.82c.82-.41,3.86.09,3.68-.47Z"/>
      <path class="cls-2" d="M131.02,12.58c.18-.4-.85-1.11-1.03-1.64l-1.98.39c1,.32,2.9.65,3.01,1.25Z"/>
      <path class="cls-2" d="M129.99,10.95l2.97-.58c-2.63-.19-3.12.12-2.97.58Z"/>
      <path class="cls-2" d="M117.61,7.73l-4.8,1.46c1.9-.49,3.8-1,5.73-1.46h-.93Z"/>
      <polygon class="cls-2" points="142.32 13.14 140.59 14 143.65 12.72 142.32 13.14"/>
      <path class="cls-2" d="M149.85,13.32c-1.28.72,1.65,1.39.31,1.81,2.05-.04,3.83-.63,5.43-1.16-1.69.26-3.46.09-5.73-.65Z"/>
      <path class="cls-2" d="M158.26,13.22c-.84.15-1.72.44-2.68.75.9-.14,1.78-.36,2.68-.75Z"/>
      <path class="cls-2" d="M138,10.79c.22.25.63.92,2.28,1.26l-1.12-1.19c-.36-.02-.76-.05-1.17-.07Z"/>
      <path class="cls-2" d="M139.13,10.83l.04.04c1.27.09,2.14.15,2.52.18-.32-.03-1.09-.09-2.56-.22Z"/>
      <path class="cls-2" d="M137.7,10.78c.11,0,.19.01.29.02-.11-.12-.17-.16-.29-.02Z"/>
      <path class="cls-2" d="M125.28,8.92c1.74-.59,5.39-1.14,1.92-2.23-1.27.74.71,1.36-1.92,2.23Z"/>
      <path class="cls-2" d="M136.32,9.29l-3.13-.4c.05.3.6.77-.28,1.04l3.41-.64Z"/>
      <polygon class="cls-2" points="137.88 9 136.32 9.29 137.49 9.44 137.88 9"/>
      <path class="cls-2" d="M152.91,11.91c1.39-.43,2.88-.41,4.57-.41-1.79-.31-3.66-.51-5.43-.59-.27.35-1.07.95.86,1Z"/>
      <path class="cls-2" d="M146.22,11.28c.09-.02.22-.04.31-.05-.18-.1-.33-.14-.31.05Z"/>
      <path class="cls-2" d="M174.05,12.28c-.09-.08-.17-.14-.26-.22-.02.07-.04.13-.07.19l.33.03Z"/>
      <path class="cls-2" d="M151.75,10.68c-1.35-.28-2.17-.04-2.96.27,1.02-.07,2.1-.09,3.25-.05.12-.16.15-.26-.29-.23Z"/>
      <path class="cls-2" d="M162.91,12.91c-.7-.27-1.49-.51-2.32-.73.67.39,2.06,1.02,2.32.73Z"/>
      <path class="cls-2" d="M146.96,11.57c-.07.01-.13.03-.21.04.43.27.38.14.21-.04Z"/>
      <path class="cls-2" d="M146.96,11.57c.71-.13,1.27-.39,1.83-.61-.83.05-1.6.14-2.27.28.16.09.33.22.44.34Z"/>
      <path class="cls-2" d="M179.41,5.2c-.29,1.04-3.9,1.85-6.93.58-3.07.65-1.25,4.21,1.31,6.27.12-.46.13-.88,3.28-1.36-1.06-.63-6.86-1.67-4.18-2.5,4.15-.35,3.37.53,5.35,1.18-1.65-1.39,5.34-1.67,4.53-3.64l-3.65.51c-.05-.3,1.28-.72.29-1.04Z"/>
      <path class="cls-2" d="M167.86,11.68l-1.29.07c1.45.25,2.48.72,4.37,1.64,2.16-.42,2.62-.79,2.78-1.13l-6.31-.44.45-.14Z"/>
      <path class="cls-2" d="M160.81,11.49c1.05-1.1,4.16-1.45,2.33-2.78-3.77-.09-2.68.84-4.95,1.23,6.09,0-1.77.56,2.58,1.41-1.2.14-2.28.15-3.3.15,1.09.19,2.13.41,3.12.67-.05-.03-.09-.05-.14-.08h-.03s0,0,0-.02c-.26-.16-.34-.25-.05-.15.02-.01.1-.02.13-.02.05-.16.17-.29.29-.42,1.75.32.26.31-.29.42-.02.05-.07.11-.08.17,0,0,.01.01.02.02l6.11-.35c-1.28-.22-2.9-.26-5.76-.26Z"/>
      <path class="cls-2" d="M130.54,4.34c.18.11.17.19.18.27.4-.12.55-.22-.18-.27Z"/>
      <path class="cls-2" d="M133.01,5.13c-.45.14-.84.59-2.27.41-1.23-.39.03-.55-.02-.93-.88.27-3.06.7-.37,1.37l.44-.14c2.43.49,5.51,2.07,5.07,2.2-.67-1.06-1.26-1.83-2.85-2.91Z"/>
      <path class="cls-2" d="M147.1,8.02l5.09-.33-2.54-1.11.1.6c-2.87-.37-2.28.4-2.66.84Z"/>
      <polygon class="cls-2" points="174.6 12.87 173.88 14.05 176.88 12.48 174.6 12.87"/>
      <polygon class="cls-2" points="181.2 13.03 180.9 14.08 182.67 13.52 181.2 13.03"/>
      <path class="cls-2" d="M240.41,143.23l-1.49.34c.7-.11,1.16-.23,1.49-.34Z"/>
      <path class="cls-2" d="M251.22,142.97l.25-.53c-.49.3-.69.52-.25.53Z"/>
      <path class="cls-2" d="M337.13,26.73c.73,1.96.98,4.29,1.69,3.33.16-.4.29-.78.43-1.18-1.07-.67-1.64-1.46-2.11-2.14Z"/>
      <path class="cls-2" d="M336.35,119.88c.24-.03.47-.09.71-.13.16-.65.3-1.25.42-1.8-.33.58-.71,1.25-1.13,1.93Z"/>
      <path class="cls-2" d="M338.01,124.62c-.97.43-1.94.84-2.93,1.19.72-.16,1.68-.52,2.93-1.19Z"/>
      <path class="cls-2" d="M181.32,145.43l-1.74,1.19c2.73-.02,1.53-.61,1.74-1.19Z"/>
      <path class="cls-2" d="M248.67,15.72c1.85.54,3.33.8,4.64.91-2.22-.77-4-1.85-4.64-.91Z"/>
      <path class="cls-2" d="M244.29,130.84c-.9.24-1.28.48-1.25.74.93-.23,1.45-.46,1.25-.74Z"/>
      <path class="cls-2" d="M258.71,16.88c-.32-.13-.65-.2-.98-.32-1.38.13-2.76.22-4.43.07,1.64.57,3.54.96,5.41.25Z"/>
      <path class="cls-2" d="M6.3,73.7c.06-.16.09-.36.16-.51-.15-.06-.17.17-.16.51Z"/>
      <path class="cls-2" d="M40.51,24.06c-.4.35-1.14.73-1.79,1.22.35-.2.91-.49,1.79-1.22Z"/>
      <path class="cls-2" d="M207.67,14.76c-1.4.01-.23.12,0,0h0Z"/>
      <path class="cls-2" d="M201.09,9.88c.3-.12.54-.27.58-.54-.13.27-.33.44-.58.54Z"/>
      <path class="cls-2" d="M272.96,10.33s.07,0,.12,0c-.4-.25-.34-.2-.12,0Z"/>
      <path class="cls-2" d="M205.59,14.14c.52.17,1.12.31,1.77.43-.28-.1-.82-.24-1.77-.43Z"/>
      <path class="cls-2" d="M205.85,14.7c-.48-.07-.86-.12-1.22-.17-.19.18-.03.31,1.22.17Z"/>
      <path class="cls-2" d="M209.62,14.79c-.8-.02-1.54-.11-2.26-.22.27.09.38.16.31.2.41,0,.99.01,1.95.03Z"/>
      <path class="cls-2" d="M81.95,139.71c-.09-.04-.2-.07-.3-.12-1.43.43-.81.37.3.12Z"/>
      <path class="cls-2" d="M363.99,51.62c-.03-.07-.06-.1-.09-.16,0,.07,0,.16,0,.23l.08-.07Z"/>
      <path class="cls-2" d="M365.83,56.78c-1.73-2.07-1.85-3.32-1.92-5.09-.96.82-1.93,1.62-2.9,2.39,1.67.82,3.22,1.74,4.82,2.7Z"/>
      <path class="cls-2" d="M214.51,144.17l3.56.98c-4.24,1.78-7.34,1.25-3.99,2.65.22-1.82,3.66-1.96,7.09-2.12,3.44-.17,6.87-.35,7.07-2.16l2.35.71c-.67-.02-.77.2-1.43.18,4.58,1.62,3.3-2.68,9.15-2.34,2.04.22,3.48.7,2.1,1.17l4.51-1.03c1.32.03,1.02.67-.3.64l6.9-.5-.05.11c.97-.6,3.17-1.56,4.25-1.97,1.77.46-.87.42-.4.85l3.79-1.01c1.59.88-1.55,1.9-4.19,1.86,3.7,3.48,3.14-1.01,10.94.8l-3.6.6c2.41,1.98,5.2,1.1,9.35,2.22-1-.63-8.32-2.88-4.2-3.96,1.18.22,2.73.29,4.94-.53.08,1.29,2.25.88,4.98.69l-.11,1.71c2.94-.61,2.68-1.48,4.38-2.33,3.33,0,4.1,1.28,4.97,2.34,5.42-.06-3.85-1.88,2.51-2.6,4.53.32,7.71-.63,12.97-2.42,3.26.11-.4,1.12.81,1.43.88-.58,1.75-1.21,2.61-1.81.69-.09.55.36.47.59,2.28-.97-.1-1.7,3.47-2.91.29-1.05,2.29-.76,4.79-.79,2.48,0,5.49-.36,7.33-2.2,1.26,0-.15,1.19.42,1.67,1.41-.96,2.42-1.61,3.18-2.16.76-.56,1.31-.98,1.81-1.38.51-.4.96-.83,1.52-1.42.56-.6,1.28-1.28,2.16-2.39l2.23-.69c.74-.25,1.46-.53,2.21-.8-1.76.41-1.92-.32-1.41-1.5.54-1.16,1.67-2.88,2.69-4.44-1.28.19-2.35.32-3,.49l1.92-2.02,1.8-2.11c.69-.21.66.57.42,1.71.2-.35.38-.69.51-.97.96-.41,1.39-.3,1.56.16.16.46.03,1.25-.23,2.08-.76.2-1.52.37-2.25.52-.43,1.68-.85,3.4-.01,4.03.19-.39.68-.97,1.27-1.54-.13.45-.17.8.08.82.28.03.54-.66,1-1.63.75.2,1.5.39,2.27.57l-.24-.79c1.13-.7,2.2-1.49,3.31-2.24,1.08-.79,2.13-1.63,3.2-2.45.58-1.41,1.09-2.78,1.53-4.2.4-1.45.87-2.85,1.26-4.38.42-1.52.91-3.06,1.42-4.76.58-1.66,1.14-3.48,1.93-5.42.29,2.49,1.83,1.43,3.26,2.26-.67.34-1.17.9-1.57,1.62-.39.72-.72,1.6-1.09,2.53-.37.93-.69,1.99-1.2,2.98-.5,1-1.06,2.01-1.81,2.9,1.54-1.87,1.88-1,1.75-.32.57-1.31,1.17-2.59,1.64-3.93.5-1.32.99-2.63,1.38-3.98.55.4.98.14,1.46-.45.24-.29.5-.66.78-1.06.27-.41.57-.86.92-1.3-1.56.17-1.28-1.41-.64-3.45.29-1.04.69-2.19,1.05-3.29.3-1.12.54-2.2.6-3.04.46.04.85.31.93,1.06.07.74-.08,2-.96,3.86.44-.44.76-.87.99-1.3.21-.44.32-.87.37-1.29.1-.85-.06-1.67-.23-2.47-.36-1.63-.86-3.17.49-5.09-.19.97-.48,1.44-.13,1.93-.05-1.2.27-3.15.71-4.63.22-.74.47-1.36.69-1.71.21-.35.4-.43.55-.07-.04.33-.11.66-.16.98.22-.81.33-1.73.47-2.73.13-1,.27-2.07.38-3.17.04-1.1.07-2.24.08-3.37,0-.57.01-1.13,0-1.68-.05-.55-.09-1.1-.14-1.64-.1-1.07-.22-2.1-.37-3.04-.18-.94-.41-1.79-.64-2.51-.47-1.45-.99-2.4-1.59-2.56.3-.11,2.8.52,3.29.89-.69-.92-1.49-1.81-2.26-2.67-.77-.86-1.54-1.71-2.31-2.52-1.64-1.61-3.23-3.15-4.91-4.56,1.07.21,2.48-.84,3.92-1.42.72-.28,1.45-.43,2.16-.19.73.23,1.39.87,1.94,2.16-.02-1.61-.27-3.62-1.86-6.64.06,1.14-1.97,3.36-2.52,2.04.27-1.1.36-1.83.41-2.4.05-.57.05-.97.04-1.39-.07-.84-.07-1.8-.25-4.46.26,1.65-3.28,1.16-4.15-1.09.57.16,2.64-1.49,3.3-.76-.85-.79-1.85-1.49-2.76-2.2-.95-.69-1.8-1.41-2.81-2.01,1.28,1.05,2.36-1.01,2.3-2.72-.08.44-.79-.77-1.68-2.24-.99-1.42-2.12-3.13-2.8-3.72.41.87.76,1.77,1.13,2.65-.5-.77-1-1.41-1.5-1.93-.53-.5-1.07-.87-1.59-1.18-1.05-.6-2-.93-3.03-1.16-2.1-.42-3.96-.81-6.68-2.8.5-.02,1.48-.48,2-1.24.26-.38.4-.84.29-1.37-.12-.52-.46-1.17-1.24-1.73-1.16.18-3.74.76-6.57,1.46-2.85.67-5.86,1.46-8.63,1.38l-.82-1.11c-1.47.02-2.92.08-4.38.21,1.48-.94,4.31-2.31,7.59-3.2,3.26-.92,7.01-1.25,9.65-.97-1.13-.94-1.22-1.24-1.5-1.56-.28-.32-.77-.6-2.81-1.35-1.18-1.3,2.69-.36,3.91.23-3.09-1.63-6.33-2.87-9.57-3.82,0,.92-1.95.92-3.84,1.01-1.9.07-3.73.24-3.65.99,3.41-.18,6.95-.13,10.61.33-.06.93-1.92,1.65-4.42,2.1-2.51.45-5.66.68-8.79.2-.76-.43-.39-1.2.18-1.93.57-.72,1.35-1.41,1.32-1.71-.95.46-6.25.61-6.78.17.92-.27,1.84-.52,2.78-.77-3.56-.94-5.93,2.02-9.99.12-1.43-.18-4.17-2.5-4.46-1.45,2.24,2.15,2.41,8.49.78,9.95-.5-.16-7.43-2.3-9.02-3.38-2.28-1.71,3.72-3.65,1.77-5.12-.11.48-1.44,1.03-1.99,1.2-1.48-.49.69-1.49-2.58-1.42-.63,1.79-6.64-.46-1.62,1.46-3.22.37-3.38-.53-7.14-.62,1.14,1.23-3.55,3.84-6.78,4.21.21-.45-.48-1.09-.82-1.38-6.54-.47-10.02-1.45-16.13-1.75-.54-.47-3.47-1.13-2.17-1.86-.89.28-1.73.86-3.62.82-3.57-1.74,4.21-.05,1.52-2.06-.29,1.04-4.94,1.23-7.65,1.77.75,1.67,6.19.6,8.9.06-.09,2.25-4.88,4.38-11.31,5.13-5.1.32-2.13-1.55-3.03-1.27-9.51-.83-8.3,3.55-16.14,1.56-3.07-1.58-.01-2.86-.66-3.92,4.16-.35,6.3,1.2,9.11,1.27l-3.42-.84c1.34-.42,4.11-.65,5.6-.16-2.57-1.41-16.09-.99-23.39-2.52-1.33.42-3.61.81-2.57,1.44l2.34-.09c2.09,1.25-4.45,1.39-1.53,2.07-3.16.67-6.72,1.78-11.08.93l-.75-1.67c.07.48,2.83,1.11,4.09.67-1.87.64-6.64-2.52-8.74-.48l3.03,1.27c-3.17.68-7.13,2.23-11,1.54,1.7,1.69.91-.14,3.59,1.87-2.29-2.46,9.96.56,6.22-2.09,2.74,2.32,4.87,1.16,8.5,3.19-.09-.54-1.27-1.09,1.99-.67.15-.15.51-.33.74-.44.1.02.13.03.22.05-.06-.03-.11-.05-.18-.07.15-.07.16-.09-.07-.03-.77-.27-1.39-.58-1.63-.9,1.68-1.16,6.88-.88,8.66-1.44,1.93.35-.84.58.19,1.2l2.67-.84c.21,1.21,5.06,2.22.46,2.71l4.11.24c2.39.78,5.71,1.2,7.79.79,1.93.35,4.96-1.1,3.23-.24l6.48-.44.05.3c6.36.44,13.19-1.38,20.37,1.12,2.16-.2,4.39-.47,7.96.04l.65,1.07c2.77-.23,8.21,1.42,9.45.39,2.84,2.92,13.32,1.22,18.14,1.94l.25-1.34c3.33.23,6.54,0,10.7-.36l-.2-1.21c3.63-.8,9.09,1.19,14.23,1.76-.4.39-1.7.13-2.62-.25,3.01,1.66,6.13,1.66,9.23,1.88,3.04.22,6.14.75,7.94,2.88,1.32.26,2.08.88,2.58,1.67-.09-.07-.19-.11-.28-.13.09.09.25.2.4.32.32.5.63,1.02,1,1.52-.23-.52-.49-1.01-.77-1.36.39.28.91.6,1.5.93.55.41,1.17.83,1.82,1.23l-.43,1.34c.1.07.17.13.27.2.62,1.38,1.23.46,1.4-.81.66.43,1.32.8,1.93,1.01-.18.57-.08,1.01.18,1.4.23.41.6.79.99,1.17.75.78,1.61,1.6,1.1,2.95.36.08.85.51,1.41,1.11.28.3.59.64.9,1.01.29.38.59.79.89,1.19.6.8,1.28,1.57,1.9,2.17.6.61,1.22,1.01,1.83.98-.25.17-.18.67-.56-.14.24.9.5,1.79.83,2.62.28.85.66,1.64,1.24,2.32l-1.29,1.26c1.15,1.01,2.15,2.12,3.25,3.23-.11,1.32-.36,2.27-.71,2.61-.36.35-.88.09-1.75-.91,1.53,2.58,2.03,3.72,2.34,4.76.31,1.04.71,1.94,1.93,4.35l-1.07-.13c.09.89.56,2.01.9,3.07.37,1.06.45,2.06.05,2.61-.48,1.02-.67,2.75-.97,4.91-.12,1.08-.2,2.29-.41,3.55-.08.63-.17,1.29-.26,1.96-.04.33-.09.67-.13,1.02-.07.34-.14.68-.21,1.02-.94,5.51-3.1,11.7-6.12,15.73,1.79-.22,1.04.73-.06,1.81-.54.54-1.12,1.13-1.45,1.68-.36.53-.47,1.03,0,1.42-.94.13-2,1.07-1.72-.62-.25.58-.51,1.11-.78,1.59-.3.47-.6.89-.9,1.29-.59.8-1.18,1.47-1.76,2.08-.57.62-1.05,1.25-1.47,1.93-.43.68-.75,1.46-.94,2.46-.92-.06-.11-1.53-.77-1.43-.07.2-.2.61-.41.97-.22.35-.51.67-.85.7-.67.05.07-.93.33-1.73-1.64,1.86-2.19,3.25-2.22,4.41-.01,1.17.56,2.14,1.13,3.07-2.71,1.05-3.6,1.94-4.36,4.24-.58.01-1.3.09-1.55-.11-.25-.19-.02-.62,1.19-1.72-.76.52-3.16,1.98-5.4,3.24-2.21,1.3-4.26,2.49-4,3.3-.71-.14-2.41.99-2.8,1.33-3.94,1.48-4.34,1.42-8.26,2.76l1.19-.04c-.5,1.21-1.33,1.55-2.41,1.73-1.1.14-2.44.15-4.08.61l.05-.23c-1.98.04-3.17.09-3.96.19-.79.11-1.19.26-1.59.39-.8.26-1.6.55-5.53.14l.56,1.23c-.21,1.4-1.99,1.2-4.24.76-2.25-.42-4.98-1.08-7.22-.42l1.68.63c-2.44,1.1-7.14-3.37-9.66-3.61-.56-.22.85-.42,1.6-.63-6.64-1.34-.78,1.71-5.66,2.3-.94-.86,1.07-2.34-2.24-2.37-1.67-.65-9.45,3.33-14.02,1.74,1.02.66,2.03,1.32-.23,1.92-3.49.38-9.52-2.3-12.61-.02-.45-.18-.62-.35-.65-.53-2.65.64-8.65,1.21-10.23,2.42-2.57-4.35-16.56,2.54-16.59-1.56l-8.21.36.21-.42c-5.25-.18-7.1.8-8.93,1.8-1.22-.26-.34-.65-.24-.87-7.68-.73-8.44-.55-14.86,1.51l-.68-1.32c-1.74.79-11.1-2.03-18.62-.51.07-.15.23-.41.83-.59-8.48,1.53-20.22-3.78-23.38.97l-5.6,1.11c7.23.47-1.11,2.07,1.86,2.91-2.85.25-7.34-1.55-3.84-1.75l.54.25c1.32-2.47-8.97-1.04-8.75-2.75-14.23-.13-28.05-1.93-41.35-2.52l1.46,2.01-4.64-.29c-1.2-.5-1.58-1.59,1.73-1.38-1.7-1.17-5.59.72-5.7,1.14-6.46-1.03,2.62-2.18.64-2.3l-2.71.04.6.25c-2.22.71-2.45,1.54-6.43,1.27-2.5-.5-1.24-1.26-2.23-1.38.01-.14-.32-.22-1.52-.12l-5.84-.42,2.27,1.64c-2.63.65-5.5-.35-2.88,1.53-1.92-1.44-7.36-1.96-12.62-2.23-2.64-.13-5.09-.24-6.97-.49-1.88-.24-3.19-.61-3.64-.94-3.26.31-6.22-1.01-8.67-3.75.2.44.14,1.06-.29,1.28-.41.22-1.25.02-2.29-1.44,1.78-.66,1.07-2.01.28-3.86-.82-1.84-1.76-4.3-1.04-6.06-.34,1.46-1.37-.74-2.25-2.95-.89-2.19-1.7-4.32-2.34-1.98-.51-3.06,1.23-.53,1.48-2.98-1.53-3.37-2.11-7.47-2.4-11.73-.29-4.28-.29-8.75-.73-13.23-.47-.13-1.13,1.44-1.9-.49.73-1.64,1.45-3.25,2.26-4.82-.23-1.75-2.72-1.69-.96-4.9-.41.44-1.03,1.11-1.14-.1.79-4.42,1.45-8.83,2.29-13.21.84-4.37,1.85-8.75,3.35-12.93,1.49-4.14,3.54-8.13,6.27-11.52,2.71-3.39,6.14-6.19,9.93-7.63-2.27.52-1.19-.36.15-1.39-1,.47-.65-.96-1.18-1.36.55-.25,1.14-.41,1.71-.58.58-.16,1.13-.36,1.7-.49,1.16-.19,2.25-.5,3.36-.51.12-.5.59-.95,1.25-1.27.67-.25,1.49-.51,2.31-.65.82-.07,1.62-.23,2.26-.34.64-.09,1.13-.3,1.32-.71l-1.05.13-.52.06-.52.13c1.33-1.11.41-2.17-1.22-3.16-.4-.25-.84-.51-1.29-.76-.43-.22-.86-.43-1.25-.66-.77-.46-1.38-.96-1.4-1.61-1.74,1.57-4.41,1.71-7.51,2.54-3,.85-6.27,2.53-7.62,5.96-.71.31-.63-.06-.48-.48.16-.42.38-.91-.12-.87-.31.95-.68,1.88-1.43,2.81-.77.91-1.71,1.97-3.12,3.23l.07-.49c-3.22,4.17-5.24,7.27-7.35,10.58-.5.84-1.01,1.69-1.53,2.58-.51.89-.98,1.85-1.5,2.85-.54,1-.98,2.08-1.49,3.24-.53,1.16-.99,2.42-1.47,3.8l1.45-.47c-.87,2.33-1.35,2.74-1.93,3.8.61,1.61,1.02-.08,1.5-1.77.54-1.69,1.11-3.38,1.76-1.85-1.71,1.18-2.86,5.41-3.62,9.54-.76,4.13-1.26,8.13-2.78,9.12-.29,3.79,1.54-.99,1.25,2.77-.29.32-.57.63-.84.95l.98,1c-.28,2.44-1.26,3.67-1.92,3.76.07-.6-.18-1.72-.2-2.37-.53,1.61-.44,3.9-.26,5.91.22,2.01.5,3.74.4,4.29.07-1.22.24-2.44.35-3.65.48,5.14.88,10.81,1.73,16.38.21,1.39.43,2.78.72,4.14.27,1.37.56,2.72.91,4.03.66,2.62,1.5,5.15,2.55,7.47l.38-.89c1.53,3.52,1.91,5,2.24,6.64.19.82.36,1.67.78,2.8.42,1.13,1.04,2.56,2.31,4.45l-.29-.21c1.43,1.28,3,3.1,4.72,5.01-1.05-.64-.59.43-.05,1.42.53.98,1.07,1.96-.44,1.08,2.07,1.51,3.52,2.17,4.48,2.55.97.38,1.48.47,1.91.48.43,0,.78-.04,1.42-.09.64-.06,1.58-.08,3.11-.16.32.44.65.88,1,1.32,1.08-.19,1.66-.39,2.51-.5.85-.1,1.95-.08,4.01.02-1.73.23-1.14.67-.56,1.16.56.47,1.12,1-.93,1.31,2.21.83,4.14,1.08,5.79,1.12,1.65.04,3.04-.14,4.33-.29,2.55-.29,4.53-.49,6.37,1.18,3.96-2.54-7.14-1.88-4.97-2.36-1.75-.98,3.26-1.88,5.86-1.48,2.66.2,4.36,3.72,11.07,3.96-.67-.04-.72.16-1.39.12,2.48.81,4.96-.73,7.99.54,1.79-1.58,3.99.25,4.57-1.84l-6.17.24c3.51-.39,6.87-2.76,12.56-1.34-.46.41-2.19.9-3.38,1.17,1.66.68,3.25-.29,4.96.41-.57,2.09-7.49.18-11.29,1.65,1.77.96,7.13-1.26,5.16.95,2.81-2.81,6.6.63,11.22-1.45l-.34,1.26c.73-.18,2.23-.73,3.56-.65l-2.45,1.56c3.72-1.28,7.06,1.45,10.61.8-7.39-.19-1.61-1.58-4.71-2.6,9.15-1.4,5.14,3.46,15.37,3.12-1.39.14-5.17-.89-2.99-1.42,1.94.31,4.49.86,5.67,1.55,6.77-.11-1.01-1.32,1.89-2.03,2.27,1.58,3.33-.56,6.3-1v1.29c7.68.97,2.09-2.64,9-1.52l-2.96,1.73,3.62-.4-.77,1.45c3.95-1.03,5.17-.74,9.02-.28-.88-.92.53-2.33,3.94-2.32,2.32.79-1.32,1.22,3.52,1.07-1.1.8-2.31,1.8-4.4.59-.22.42-1.09.79-1.31,1.2,2.5.92,6.3.26,8.05.26-.67-.05-1.48-.13-1.89-.31l7.03-1.73c1.1.49.22.87-.65,1.25,1.42-.13,2.41-.71,4.5-.81-.54,1.04-.42,2.12-3.38,2.59l6.69-1.13c.44.45,3.43,1.25,2.56,1.64,3.71.61,9.09-2,14.01-1.23.25-.2.77-.4,1.81-.56,4.62.21,8.72,1.48,14.18-.03l3.13,1.84c4.28-.47-4.23-2.31,2.89-3.1,5.04-.66,1.91,1.57,3.69,2.07,2.5-.99,6.83-2.99,11.5-1.54-1.53.38-2.74.12-4.17.29ZM267.31,141.81c-1.01.31-3.02,1.23-3.8.5,1.11-1.51,2.04-.85,3.8-.5ZM343.9,116.4c-.23.89-1.3,1.57-2.63,2.16.64-.78,1.54-1.46,2.63-2.16ZM223.03,14.42s.08-.03.11-.06c2.25.61,1.45.37-.11.06ZM218.33,13.65c-.48.16-.46.34-.27.53.34-.31,1.41-.28,2.61-.14-.32-.35-.92-.61-2.34-.39ZM67.39,130.45l.9.38c-2.09.28-1.49-.03-.9-.38Z"/>
      <path class="cls-2" d="M337.85,124.05c-.38.01-.59-.13-.79-.28-.21.43-.07.64.79.28Z"/>
      <path class="cls-2" d="M181.64,145.21c-.05-.01-.11,0-.16-.01-.09.08-.13.16-.16.23l.32-.22Z"/>
      <path class="cls-2" d="M292.03,6.14c.96.23,1.5.49,1.85.75.07-.31-.36-.6-1.85-.75Z"/>
      <path class="cls-2" d="M193.19,14.67l3.04-.19c-1.47,0-1.98-.31-2.71-.55.05.3.61.76-.34.74Z"/>
      <path class="cls-2" d="M167.28,5.51c-.45.14-.94-.03-1.38.11l.09.6c1.89.05,3.23-.37,1.29-.72Z"/>
      <path class="cls-2" d="M190.58,10.28c-.19-1.09-2.11-.81-4.24-.71.13,0,.25,0,.38.02-.69,1.48,1.59,1.09,3.86.69Z"/>
      <path class="cls-2" d="M185.85,9.58c-.66.02-1.32.02-1.96-.06-.28.59.79.16,1.96.06Z"/>
      <path class="cls-2" d="M212.3,14.09c-.99-.32-.69,1.35-1.24.89-1.19,1.32,6.78-1.35,1.24-.89Z"/>
      <polygon class="cls-2" points="189.03 6.64 189.73 8 190.97 6.98 189.03 6.64"/>
      <path class="cls-2" d="M205.73,8.39l-3.37-.53c.04.23-.4.34-.93.41,2.09.14,4.36.51,4.3.11Z"/>
      <path class="cls-2" d="M201.43,8.28c-1.09-.08-2.12-.1-2.74.1.59.01,1.86.03,2.74-.1Z"/>
      <polygon class="cls-2" points="193.68 6.45 194.67 6.77 197.06 6.98 193.68 6.45"/>
      <path class="cls-2" d="M242.14,10.33l3.72-.21c.4-.44-.6-.77-1.98-.65-.9.28-2.28.39-1.73.86Z"/>
      <path class="cls-2" d="M231.12,6.16c.99.32,1.04.62,1.58,1.09l.19-1.65-1.77.56Z"/>
      <path class="cls-2" d="M241.92,6.27c.39-.44,5.43-1.07.74-1.18-.4.44-4.12.65-.74,1.18Z"/>
      <polygon class="cls-2" points="297.54 10.93 296.6 10.91 296.61 13.63 297.54 10.93"/>
      <path class="cls-2" d="M348.85,18.68c-1.7-2.02-2.22-1.91-2.65-1.77-.44.13-.79.3-2.44-1.41-.68-.1,0,.6.66,1.29.69.67,1.25,1.41.63,1.22,2.66,1.52,3.6,2.93,3.81.68Z"/>
      <path class="cls-2" d="M345.04,18c-.42-.24-.95-.43-1.48-.62.8.39,1.24.53,1.48.62Z"/>
      <path class="cls-2" d="M48.53,22.69l1.02.17.5.08.48.16c-.41-.35-.85-.59-1.32-.84l-.67.42Z"/>
      <path class="cls-2" d="M52.54,20.61c.11.6.2,1.2.28,1.8.47-.45.98-.91,1.53-1.36-.52,0-1.47.02-1.81-.44Z"/>
      <path class="cls-2" d="M275.3,144.97l.2-.43c-.46-.43-1.12-.44-2.45-.45l2.25.88Z"/>
      <polygon class="cls-2" points="236.89 145.03 237.55 145.05 236.27 143.52 236.89 145.03"/>
      <path class="cls-2" d="M204.71,147.69c1.32.05,2.86-.33,4.18-.28-2.86.34-4.56-1.66-4.18.28Z"/>
    </g>
  </g>
  <g>
    <g class="cls-4">
      <path class="cls-3" d="M185.58,45.28c13.41.48,26.5-.11,39.78-2.35,3.52-.59,6.94-1.59,9.9-3.87,2.97-2.28,5.11-6.5,4.25-10.51-.81-3.79-4.06-6.32-7.36-7.1-10.48-2.46-21.09-2.34-31.68-2.05-17.1.47-34.88-2.16-51.77,2.05-3.03.76-6.15,1.8-8.46,4.2-2.31,2.4-3.56,6.52-2.13,9.71,1.21,2.7,3.86,4,6.34,4.97,13.16,5.16,27.33,6.86,41.13,4.93"/>
      <g>
        <path class="cls-3" d="M185.01,43.07c.33,0,.16-.38.2-.45-.53.15-.17.55-.2.45Z"/>
        <polygon class="cls-3" points="179.72 44.49 179.8 44.33 179.02 44.76 179.72 44.49"/>
        <path class="cls-3" d="M174.63,44.66c.49.68,1.85-.14,2.76.08l.16.15.39-.55c-1.09.12-2.52.52-3.3.33Z"/>
        <path class="cls-3" d="M171.96,43.18c.16.26-.58.2.62.11-.06-.03-.08-.05-.11-.07-.11,0-.26,0-.51-.04Z"/>
        <path class="cls-3" d="M172.46,43.22c.53,0-.34-.23,0,0h0Z"/>
        <path class="cls-3" d="M170.02,43.27l.71-.2c-.14-.16-.75-.22-.52-.32-.71.08-.58.24-.19.52Z"/>
        <path class="cls-3" d="M169.34,43.7l.37-.07c-.06-.07-.15-.1-.37.07Z"/>
        <path class="cls-3" d="M170.48,43.47c-.26.06-.52.11-.78.16.09.11.09.33.36-.05-.07.19.09.01.42-.11Z"/>
        <path class="cls-3" d="M170.91,43.59c.38.16.89.27.18.47,1.35-.04,1.16-.51-.18-.47Z"/>
        <path class="cls-3" d="M174.36,45.34l.54.2.46-.22c-.23.12-1.03-.18-1,.03Z"/>
        <path class="cls-3" d="M165.75,42.56c-.06.14.19.4.22.58l.53-.11c-.25-.12-.74-.26-.75-.47Z"/>
        <path class="cls-3" d="M165.97,43.14l-.8.16c.68.1.82,0,.8-.16Z"/>
        <path class="cls-3" d="M169.16,44.43c.44-.14.87-.27,1.3-.43-.52.16-1.03.28-1.55.42h.25Z"/>
        <polygon class="cls-3" points="162.85 42.17 163.33 41.9 162.49 42.28 162.85 42.17"/>
        <path class="cls-3" d="M160.93,41.91c.36-.21-.35-.52,0-.63-.52-.03-1.01.11-1.44.23.44-.02.88.09,1.43.4Z"/>
        <path class="cls-3" d="M158.77,41.67c.22-.02.47-.09.73-.16-.24.02-.47.06-.73.16Z"/>
        <path class="cls-3" d="M163.88,43.06c-.05-.09-.13-.33-.55-.48l.24.43c.09.01.2.03.3.05Z"/>
        <path class="cls-3" d="M163.59,43.03h0c-.32-.07-.55-.11-.65-.12.08.02.28.05.66.12Z"/>
        <path class="cls-3" d="M163.96,43.07s-.05,0-.08-.01c.02.04.04.06.08.01Z"/>
        <path class="cls-3" d="M167.16,43.91c-.47.17-1.45.31-.56.74.35-.24-.15-.48.56-.74Z"/>
        <path class="cls-3" d="M164.27,43.61l.81.2c0-.11-.13-.27.1-.36l-.91.16Z"/>
        <polygon class="cls-3" points="163.85 43.69 164.27 43.61 163.97 43.54 163.85 43.69"/>
        <path class="cls-3" d="M160.07,42.31c-.38.1-.76.04-1.2-.02.45.17.91.32,1.37.39.09-.11.33-.3-.17-.37Z"/>
        <path class="cls-3" d="M161.77,42.71s-.06,0-.08,0c.04.04.08.06.08,0Z"/>
        <polygon class="cls-3" points="154.67 41.33 154.72 41.42 154.75 41.36 154.67 41.33"/>
        <path class="cls-3" d="M160.31,42.76c.34.13.56.07.78-.01-.27,0-.55-.03-.85-.07-.04.05-.05.09.06.09Z"/>
        <path class="cls-3" d="M157.56,41.61c.16.12.35.23.55.34-.15-.16-.47-.42-.55-.34Z"/>
        <path class="cls-3" d="M161.59,42.59h.05c-.1-.11-.09-.07-.05,0Z"/>
        <path class="cls-3" d="M161.59,42.59c-.19.03-.35.1-.5.16.22,0,.42,0,.6-.03-.04-.04-.07-.08-.1-.13Z"/>
        <path class="cls-3" d="M152.73,43.45c.16-.34,1.16-.42,1.86.17.86-.09.62-1.37.12-2.2-.06.15-.1.29-.94.29.22.27,1.64.92.89,1.07-1.1-.1-.83-.36-1.29-.68.32.56-1.52.28-1.48.99l1,.02c0,.11-.39.18-.16.34Z"/>
        <path class="cls-3" d="M156.21,41.82l.34.03c-.36-.15-.59-.35-1.01-.75-.58.05-.73.14-.79.25.52.16,1.06.29,1.59.43l-.12.03Z"/>
        <path class="cls-3" d="M158.01,42.18c-.34.35-1.17.33-.77.87.98.17.75-.19,1.36-.24-1.58-.22.49-.13-.59-.58.32,0,.6.03.86.07-.27-.1-.53-.22-.76-.34l.03.03h0s0,0,0,0c.06.06.07.1,0,.05,0,0-.03,0-.03,0-.02.05-.06.09-.1.13-.43-.17-.05-.12.1-.13,0-.02.03-.03.03-.05h0c-.53-.03-1.06-.09-1.59-.14.32.12.72.23,1.46.33Z"/>
        <path class="cls-3" d="M165.65,45.43s-.04-.07-.04-.1c-.11.04-.15.07.04.1Z"/>
        <path class="cls-3" d="M165.01,45.12c.12-.04.24-.19.61-.11.32.15-.02.19-.02.32.24-.08.83-.2.14-.47l-.12.04c-.63-.19-1.39-.81-1.27-.85.14.38.27.67.66,1.06Z"/>
        <path class="cls-3" d="M161.4,43.81l-1.35-.03.61.45v-.21c.74.21.62-.07.74-.22Z"/>
        <polygon class="cls-3" points="154.57 41.1 154.84 40.74 153.96 41.12 154.57 41.1"/>
        <polygon class="cls-3" points="152.91 40.7 153.07 40.37 152.57 40.46 152.91 40.7"/>
        <path class="cls-3" d="M211.34,17.07l.4-.1c-.19.03-.31.06-.4.1Z"/>
        <path class="cls-3" d="M208.42,17.04l-.07.18c.13-.1.19-.17.07-.18Z"/>
        <path class="cls-3" d="M155.59,22.45c.61.26,1.3.71,1.18.31l-.23-.38c-.38.12-.69.12-.95.07Z"/>
        <path class="cls-3" d="M184.81,19.17c-.05-.04-.11-.08-.17-.13-.14.13-.28.26-.4.37.17-.08.37-.16.57-.25Z"/>
        <path class="cls-3" d="M185.27,17.52l.76.28c-.17-.1-.41-.19-.76-.28Z"/>
        <path class="cls-3" d="M227.43,17.86l.54-.33c-.75-.12-.45.14-.54.33Z"/>
        <path class="cls-3" d="M139.82,33.5c.08-.37.13-.65.14-.89-.22.42-.5.85-.14.89Z"/>
        <path class="cls-3" d="M210.18,21.34c.24-.07.34-.15.34-.24-.25.07-.39.15-.34.24Z"/>
        <path class="cls-3" d="M140.02,31.57c-.05.06-.08.12-.12.18.05.28.08.54.07.85.17-.32.28-.64.05-1.04Z"/>
        <path class="cls-3" d="M207.2,47.32s-.09-.02-.13-.04c0,.06.05.05.13.04Z"/>
        <path class="cls-3" d="M190.45,43.64c.16-.02.43-.02.68-.02-.12-.03-.33-.03-.68.02Z"/>
        <path class="cls-3" d="M146.43,38.39c.35.1.07-.02,0,0h0Z"/>
        <path class="cls-3" d="M147.55,40.5c-.09.02-.17.05-.21.14.06-.08.13-.12.21-.14Z"/>
        <path class="cls-3" d="M138.69,27.71l.02-.03c-.12.06-.1.05-.02.03Z"/>
        <path class="cls-3" d="M146.87,38.75c-.11-.09-.24-.19-.39-.27.06.06.18.14.39.27Z"/>
        <path class="cls-3" d="M146.87,38.55c.11.06.2.1.28.15.07-.05.04-.1-.28-.15Z"/>
        <path class="cls-3" d="M145.95,38.23c.2.07.37.15.53.24-.06-.05-.08-.08-.05-.09-.1-.03-.24-.08-.48-.16Z"/>
        <path class="cls-3" d="M237.2,38.99s-.06.03-.09.03c-.19.41-.07.26.09-.03Z"/>
        <path class="cls-3" d="M164.81,17.34s-.03.02-.04.02c.02,0,.04,0,.06.01v-.03Z"/>
        <path class="cls-3" d="M166.16,16.99c-.56.52-.89.48-1.33.39l.5,1.14.83-1.53Z"/>
        <path class="cls-3" d="M218.36,17.19l-.94-.41c1.19-.54,2.04-.26,1.16-.84-.21,1.24-3.77-.06-3.95,1.21l-.62-.28c.18.02.21-.06.39-.04-1.21-.63-.94.88-2.5.68-.55-.1-.93-.29-.55-.44l-1.23.3c-.35-.02-.27-.24.09-.22l-1.86.1v-.04c-.25.2-.85.51-1.14.65-.47-.18.23-.14.11-.29l-1.02.32c-.42-.32.42-.65,1.14-.61-.98-1.25-.85.32-2.93-.38l.97-.18c-.64-.71-1.39-.43-2.5-.85.27.23,2.22,1.07,1.11,1.41-.32-.09-.73-.12-1.32.14-.02-.45-.6-.32-1.33-.28l.03-.6c-.79.19-.72.49-1.17.77-.87-.04-1.06-.5-1.27-.89-1.39-.07.97.72-.67.86-1.16-.2-1.97.03-3.36.39-.81-.21.14-.36-.15-.53l-.72.47c-.18-.01-.12-.16-.09-.23-.61.17-.06.59-1.02.74-.27.65-1.95-.98-3.15-.27-.29-.18.15-.36.06-.59-1.64.45-1.4.32-2.76.94l-1.13-.42c.83.47-.26.97-1.21,1.37.29.22.54.42.71.51l-1.51.28c-.18-.1-.02-.3.23-.54-.1.05-.2.09-.28.13-.53-.23-.24-.57.15-.89l.53.38c.38-.35.74-.74.67-1.09-.1.07-.29.12-.5.15.1-.1.16-.18.12-.24-.05-.06-.21.06-.46.21l-.32-.67-.09.26-1.95-.47c-1.42.63-2.68,1.58-4.91,1.81.56-.48.13-.79.17-1.37.6.62,1.74-.22,2.9-.07-.6-.08-.46-.35-.31-.44l-2.08.51c.06-.47-.43-.36-.97-.56.39.94-1.55.6-2.4.87-.05-.31.15-.63,1.18-.54-1.13-.72-1.48,1.07-2.59.48.25,0,.39.04.49-.12-.59.28-2.02.06-1.69-.22h.25c-1.67-.12-5.1.06-5.32.88-.02-.1.19-.96.28-1.12-.97.93-1.92,1.84-2.85,2.79.23-.69-.88-2.24.49-2.71-.41-.08-.91-.15-1.74.14.28.08.74.93.37,1.02-1.07-.69-.73-.36-2.04-.91.42.12.05,1.2-.59,1.24.09-.17-.15-1.04.08-1.17l-1.5,1.2c.38-.23-.02-.89-.41-1.15.19.18-1.4.12-1.81.3l.71.15c-1.84.1-1.59,1.67-3.36,1.9.18-.25.32-1.41-.61-1.37-.33.62-1.4,2.81-2.79,3.58l-.35-.23-1.08.6c.52-.94,2.23-3.09,3.3-3.91-.72-.12-.25-.32-1.27-.11-.42-.22.47-.53.77-.6-.81.07-1.61.18-2.42.3.24.59-1.67,1.02-1.45,1.5l2.41-1.2c.22.59-1.1,2.05-2.74,2.33-.48-.13.04-1.16-.04-1.35-.17.26-1.48.82-1.67.72l.62-.52c-1.02.04-1.28,1.22-2.59,1.08-.39.1-1.49-.26-1.41.12.95.35,1.87,2.37,1.73,3.01-.13-.02-1.98.2-2.54.2-.42-.06-.41-.46-.36-.88.04-.41.14-.83-.25-.88.07.16-.15.54-.24.69-.44.14-.15-.55-.9.09.24.58-1.55,1.24-.03.71-.59.75-.84.53-1.59,1.4.28,0,.36.42.39.92.01.5-.02,1.08-.14,1.48-.11-.12-.39-.06-.52-.03-.44.76-.76,1.37-1.03,1.99-.27.62-.47,1.27-.54,2.13-.18.14-.35,1-.63.64.11.26.33.49.41,1.03-.18.57-.27.27-.34-.07-.07-.34-.15-.73-.44-.28.35.05.67,1.45,1.21,2.1.21-.21.1-.63-.08-1.11-.18-.48-.41-1.04-.53-1.43.78,0,1.6,1.25,2.53,2.33.7.89-.19.69,0,.81.58.99,1.25,1.06,1.73,1.12.51.05.89.06,1.55.77.43.8-.45.89-.48,1.28-1.06-.37-1.24-1.15-1.77-1.58.16.25.34.5.54.74-.38-.05-1.03-.45-1.2-.84.07.41.87,1.19,1.95,1.82,1.07.64,2.37,1.19,3.22,1.72.39-.03,1.02.02.82-.27l-.61-.15c-.39-.57,1.29-.11.62-.56.88.02,1.88-.06,2.9.51l.02.61c.03-.17-.61-.56-.98-.51.54-.09,1.45,1.3,2.18.76l-.65-.63c.87,0,2.02-.3,2.94.17-.28-.67-.24,0-.74-.85.35.98-2.46-.81-1.77.31-.46-.96-1.12-.71-1.81-1.65-.04.19.2.46-.56.07-.05.04-.16.07-.23.09-.02-.01-.03-.02-.05-.03l.04.04s-.05.02.01.01c.16.15.28.3.31.42-.54.26-1.82-.23-2.33-.19-.43-.27.27-.12.09-.41l-.74.06c.09-.41-.87-1.14.23-.92-.3-.14-.59-.28-.88-.42-.41-.46-.95-.89-1.38-.98-.26-.29-1.04-.25-.58-.28-.37-.21-.71-.44-1.02-.7l.08-.07c-.31-.47-.73-.91-.97-1.51-.24-.59-.3-1.36.15-2.04-.05-.43-.11-.92.24-1.61l.39-.02c.05-.6,1-1.33.82-1.7.58,0,.92-.39,1.39-.9.46-.51,1.02-1.07,1.5-1.26l-.21-.42c.64-.34,1.22-.78,2.08-1.31l-.2-.37c.71-.64,2.24-.45,3.64-.81-.06.17-.43.22-.7.19,1.9.52,3.44-1.51,5.16-1.08.36-.22.66-.22.95-.16-.04,0-.07.02-.09.04.04,0,.1-.01.16-.02.18.04.38.08.58.13-.18-.08-.35-.13-.49-.15.3-.07.75-.17,1.19-.34l.25.42s.06-.02.1-.03c.46.1.33-.26.04-.56.22-.1.42-.22.56-.35.45.67,1.16-.42,1.75.31.27-.4,2.26-.51,2.44-1.32.02.1.16.14-.08.17.52.04,1.04.11,1.48-.15l.26.55,1.07-.84c.7.3.99.48.34.96,1.6-.76,1.31-.31,2.68-1.04l-.06.37c.5-.04,1.28-.55,1.59-.25,1.13.67,5.53.02,8.4.74-.54-1.09,1.33.51,1.46-.33.16.26.56.41.09.63,1.47-.22,2.19.45,3.23-.22.16.26-.33.37-.18.52.12-.05.47-.21.62-.05.15.16-.22.21-.46.31,1.5,0,1.68-.79,1.81-1.52.75.37,1.14.33,1.7-.14.26.25.7.52-.24.58.53.05,3.21.44,3.28-.15.16.15.74.06.88,0,1.18.06,1.29.12,2.45.08l-.32-.1c.47-.71.97-.15,1.91-.22l-.03.07c2.15.54.93-.24,3.06.36l-.12-.45c.19-.95,1.89.56,3.12.16l-.45-.25c.66-.34,1.92,1.27,2.59,1.37.15.08-.23.14-.43.21,1.77.52.21-.59,1.52-.76.25.31-.29.81.59.85.44.24,2.53-1.08,3.74-.49-.27-.24-.53-.48.07-.67.93-.1,2.51.9,3.35.14.12.07.16.13.17.19.71-.19,2.3-.3,2.74-.7.61,1.53,4.43-.59,4.35.84.72,0,1.44.05,2.16.07l-.07.14c1.37.2,1.88-.08,2.4-.38.31.13.06.24.03.31,1.98.51,2.17.48,3.95.01l.11.48c.5-.19,2.74,1.16,4.76,1.08-.03.05-.09.13-.25.16.57-.01,1.18.13,1.62.33.47.22.9.54,1.28.83.76.6,1.28,1.09,2.11.69.41.18.8.39,1.19.64-.51-.68-.36-.76-.07-.76.28,0,.68.13.52-.26.62.51.73,1.82.17,1.14l-.02-.16c-.44.14-.17.61.07,1.11.25.5.44,1.04.16,1.13.6,1.46.52,3.1.02,4.56-.5,1.47-1.38,2.79-2.36,3.89.24.06.49.12.74.16-.24.28-.5.54-.77.79-.33.08-.62-.11-.09-.63-.52.03-.68,1.09-.62,1.23-.69.37-.7.11-.56-.19.12-.3.31-.64.14-.51-.14.13-.27.27-.44.41l.16-.02c-.25.52-.11.81-.96,1.3-.6.2-.48-.21-.7-.11-.02-.04-.1-.02-.33.16-.42.2-.85.38-1.29.54.24.09.49.18.74.26-.47.51-1.27.51-.41.81-.65-.23-1.94.16-3.24.47-1.3.32-2.58.61-2.93.52-.89.53-1.83.7-3.01.81.31.07.57.64-.45.71.19-1.28-1.93-.27-2.86-1.06.81.51-2.85.5-1.6,1.2-.86,0-.11-.46-.78-.67-1.96.71-4.45.16-6.92.51-.03.17.41.38-.11.67l-1.37-.72c-.49.11-.39.97-1.33.46.14.13.34.32.01.4-4.91-.49-10.01,1.06-14.99-.49.67.32.22.35-.29.36.33.08-.01.4.05.63l-2.07-.65c-.39.61-2.23-.01-2.47.56l.66-.09c-.9.67,1.19,1.58,1.04,2.46,1.01-.77,2.6,1.22,4.25.1.36.18-.31.28-.12.49.42-.38.92-.45,1.84-.29l-.1.09c2.6-.1,3.72.26,6.67.43l-.23-.43c.63.04.77.17,1.07.27.7-.69-1.77.03-1.13-.73.86.88,4.43-.16,5.05.82.97-.05-.31-.49.66-.54l.27.26.22-.37c.64.02.98.34,1.02.57-.16-.02-.43.09-.6.12.85.28,2.32-.27,2.61-.19l-.94-.1c2.62-.44,5.89-.39,8.36-1.25l-.22-.18c1.89-.6,1.58.03,3.68-.42l-.07.06c.4-.27.95-.45,1.53-.51-.5.32,1.08.32.41.69,2.03-.73.99-.48,2.24-1.46l.37.29c.42-.38.43-.55,1.48-.84-.82.46.79.38-.13.96,1.21.15,2.04-.25,2.69-.58.66-.33,1.14-.6,1.85-.27.36-.64-.18-.58-.73-.43-.55.14-1.14.37-.88.18-.56-.16.63-.92,1.33-1.09.67-.25,1.65.73,3.4-.25-.17.09-.15.16-.32.25.78-.15,1.09-1,2.05-1.2.07-.75.99-.72.63-1.38-.44.44-.87.84-1.33,1.22.73-.75.95-1.93,2.3-2.85.04.2-.16.69-.32,1.02.5-.21.55-.79,1.03-1.05.24.28-.08.76-.55,1.27-.47.51-1.11,1.06-1.4,1.61.31-.02.68-.5.93-.82.25-.33.44-.53.5-.03-.03-.66.33-.99.75-1.4.42-.4.9-.89.94-1.69l.32.31c.07-.22.12-.73.32-1.08.05.3.1.62.13.94.16-1.22,1.44-1.84,1.54-3.07-.79,2.28-.68.33-1.32,1.13.26-1.39.57-1.69,1.02-2.06.22-.18.45-.39.63-.77.19-.38.34-.94.29-1.82.09.5-.39,1.73-.52.99.16-.62.32-1.48.51-1.91-.37-2.3-.39.4-.78-.54.41-.84-.39-1.06-.84-1.87l.42-.15c-.3-1.25-.64-1.29-.89-1.3-.28,0-.46-.01-.91-.99.33.14.69.28,1.02.46-.23-.32-.51-.61-.77-.9.19-.04.37-.07.56-.09-1.08-.84-1.26-1.16-2.1-2.12,0,.44-.64.47-1.48-.11-.45-.61.59-.15-.72-.88.43-.08.97-.16,1.28.57.14-.08.45-.02.59-.09-.46-.77-1.69-1.23-2.2-1.46.19.11.41.26.5.38-.76-.19-1.53-.3-2.29-.34-.27-.27.03-.31.34-.35-.45-.11-.81,0-1.46-.13.25-.3.3-.71,1.31-.57-.37-.06-.76-.08-1.14-.12h-.95c-.08-.18-.83-.63-.57-.71-.97-.42-2.6.2-3.88-.29-.08.06-.23.1-.52.11-1.24-.27-2.3-.86-3.85-.53l-.78-.74c-1.18.04,1.06.92-.9.99-1.39.08-.46-.6-.93-.82-.72.28-1.94.85-3.16.26.42-.1.74.01,1.14-.01ZM204.1,17.29c.27-.1.81-.4,1.02-.14-.3.52-.55.28-1.02.14ZM182.76,18.26c.21-.14.52-.06.87.12-.26.03-.55,0-.87-.12ZM142.85,37.24s-.02,0-.03,0c-.35-.41-.23-.26.03,0ZM143.74,37.91c.13,0,.15-.07.13-.15-.12.07-.36-.03-.59-.19.02.14.11.28.46.33ZM232.25,38.89h.25c-.38.35-.31.18-.25,0Z"/>
        <path class="cls-3" d="M185.21,17.71c.07.08.09.16.11.25.11-.07.11-.16-.11-.25Z"/>
        <path class="cls-3" d="M227.33,17.92h.04s.05-.04.06-.06l-.1.06Z"/>
        <path class="cls-3" d="M141.12,22.57c.29-.11.47-.13.6-.11-.04-.1-.21-.11-.6.11Z"/>
        <path class="cls-3" d="M150.03,39.44l-.78-.14c.37.1.46.24.62.37.02-.11-.08-.3.16-.23Z"/>
        <path class="cls-3" d="M155.95,43.95c.13-.03.25.05.37.02v-.21c-.48-.1-.86-.02-.37.19Z"/>
        <path class="cls-3" d="M150.27,41.08c-.05.38.47.4,1.02.5-.03,0-.06-.01-.09-.03.31-.46-.31-.46-.93-.47Z"/>
        <path class="cls-3" d="M151.42,41.6c.17.03.34.07.5.14.12-.18-.19-.1-.5-.14Z"/>
        <path class="cls-3" d="M145.2,38.26c.2.18.33-.39.41-.2.43-.34-1.78-.08-.41.2Z"/>
        <polygon class="cls-3" points="150.34 42.4 150.28 41.89 149.87 42.16 150.34 42.4"/>
        <path class="cls-3" d="M146.22,40.64l.8.44c.01-.08.14-.08.28-.07-.52-.19-1.06-.51-1.08-.36Z"/>
        <path class="cls-3" d="M147.3,41.01c.27.1.54.18.71.16-.15-.05-.47-.14-.71-.16Z"/>
        <polygon class="cls-3" points="149.11 42.16 148.89 41.98 148.29 41.75 149.11 42.16"/>
        <path class="cls-3" d="M138.63,35.45c-.19-.25-.33-.53-.48-.81-.19-.04-.19.24,0,.55.18.18.41.45.48.26Z"/>
        <path class="cls-3" d="M139.55,38.6c-.16-.26-.1-.36-.11-.58l-.42.4c.18.06.35.13.53.18Z"/>
        <path class="cls-3" d="M137.42,36.19c-.21,0-1.1-1.38-.47,0,.19.06.87.98.47,0Z"/>
        <polygon class="cls-3" points="143.35 23.09 143.12 23.22 143.6 24.03 143.35 23.09"/>
        <path class="cls-3" d="M155.77,17.56c-1.23-.06-.2.6-1.32.49-.24.26.91.09.66.33.68-.33,1.08-.25.66-.82Z"/>
        <path class="cls-3" d="M155.11,18.38c-.11.05-.22.11-.34.19.2-.09.29-.15.34-.19Z"/>
        <polygon class="cls-3" points="187.72 43.07 186.98 42.85 187.45 43.18 187.72 43.07"/>
        <path class="cls-3" d="M186.27,43.72l-.16-.61-.47.53c.17-.02.5-.06.62.08Z"/>
        <path class="cls-3" d="M201.97,16.13l-.05.15c.12.15.3.16.65.18l-.6-.32Z"/>
        <polygon class="cls-3" points="212.31 16.49 212.13 16.48 212.46 17.02 212.31 16.49"/>
        <path class="cls-3" d="M221.14,16.23c-.36-.06-.79.03-1.15-.02.79-.05,1.19.71,1.15.02Z"/>
      </g>
    </g>
    <g>
      <path class="cls-1" d="M160.03,27.97c.55-.2,1.07-.3,1.58-.3s1,.08,1.47.24c.47.16.91.41,1.3.74.39.33.71.79.95,1.37.24.58.36,1.25.36,2.01,0,1.28-.37,2.36-1.12,3.24-.75.88-1.61,1.32-2.59,1.32s-1.84-.22-2.58-.67c-.74-.45-1.11-.94-1.11-1.47,0-.25.03-.44.09-.57s.17-.23.33-.31c.16-.08.3-.12.43-.12s.3.08.52.23.53.37.93.65c.4.28.86.42,1.38.42s.98-.26,1.38-.79c.4-.53.6-1.1.6-1.73,0-1.8-.81-2.7-2.42-2.7-.35,0-.75.03-1.21.1-.46.07-.76.11-.9.12-.14.01-.33-.03-.57-.14-.28-.27-.42-1.12-.42-2.55,0-1.43.03-2.36.1-2.78.07-.42.18-.66.34-.73.28-.12,1.12-.18,2.51-.18,1.39,0,2.51.13,3.35.4.27.16.4.39.4.69,0,.3-.08.54-.25.73-.17.19-.34.26-.53.22-1.11-.24-2.22-.36-3.34-.36-.35,0-.69.01-1.04.04,0,.52.02,1.48.06,2.88Z"/>
      <path class="cls-1" d="M168.54,22.33c.68,0,1.12.33,1.32,1,.08.23.12.48.12.76-.07.55-.34.96-.82,1.24-.25.16-.55.24-.9.24s-.7-.14-1.05-.43c-.35-.29-.53-.68-.53-1.17s.18-.89.53-1.19c.35-.3.8-.45,1.33-.45ZM169.02,23.85c0-.27-.07-.45-.2-.54-.13-.09-.28-.14-.45-.14s-.33.07-.48.21c-.15.14-.23.3-.23.49,0,.43.23.64.68.64s.68-.22.68-.66Z"/>
      <path class="cls-1" d="M176.1,23.06c0-.53.33-.8,1-.8.31,0,.49.19.54.56v3c0,.56,0,1.12.02,1.68.27-.08.61-.12,1.02-.12,1.29,0,2.29.43,3,1.3.71.87,1.06,1.95,1.06,3.26,0,1.31-.42,2.41-1.25,3.31-.83.9-1.9,1.35-3.21,1.35s-1.96-.37-1.96-1.11c0-.74-.04-2.62-.11-5.64-.07-3.02-.11-5.28-.11-6.79ZM180.15,29.5c-.48-.37-.99-.56-1.52-.56-.29,0-.59.05-.9.16.08,1.09.12,3.03.12,5.82.23.08.46.12.7.12.52,0,1.04-.19,1.56-.58.77-.53,1.16-1.35,1.16-2.45,0-1.1-.37-1.94-1.12-2.51Z"/>
      <path class="cls-1" d="M189.88,27.24c.59,0,.88.5.88,1.5,0,.11,0,.22,0,.34l-.04,1.4c-.01.44-.02.87-.02,1.3l.3,4.52c0,.33-.34.5-1.02.5h-.29c-.15,0-.26-.06-.32-.18s-.07-.27-.02-.44c.05-.17.03-.37-.05-.58-.61.65-1.43.98-2.44.98-1.88,0-2.82-1.45-2.82-4.36,0-1.61.3-2.83.91-3.66.61-.83,1.48-1.24,2.61-1.24.53,0,1.07.09,1.6.28.17-.24.41-.36.72-.36ZM187.81,29.06c-.76,0-1.33.22-1.7.66-.37.44-.56,1.25-.56,2.42,0,1.97.53,2.96,1.6,2.96.28,0,.59-.13.93-.38.34-.25.58-.54.71-.86.25-.72.38-1.51.38-2.36,0-.85-.1-1.47-.31-1.86-.21-.39-.56-.58-1.05-.58ZM187.74,23.32c.08-.23.25-.34.51-.34s.47.08.62.24c.15.16.23.29.23.39s-.01.18-.04.25c-.21.6-.57,1.17-1.07,1.7-.5.53-.88.8-1.15.8s-.47-.07-.6-.2c-.13-.13-.2-.29-.2-.47s.1-.35.3-.51c.72-.59,1.19-1.21,1.4-1.86Z"/>
      <path class="cls-1" d="M193.33,27.9c.56-.47,1.21-.7,1.95-.7s1.45.13,2.13.4c.68.27,1.02.62,1.02,1.06,0,.23-.09.41-.26.54-.17.13-.32.2-.45.2s-.23,0-.3-.01c-.07,0-.34-.13-.8-.37-.46-.24-.88-.36-1.27-.36s-.72.1-.99.29c-.27.19-.41.48-.41.85s.16.67.47.88c.31.21.86.4,1.65.55.79.15,1.39.37,1.81.65s.63.8.63,1.56c0,1.11-.29,1.89-.87,2.35-.58.46-1.28.69-2.11.69-.83,0-1.53-.11-2.11-.34-.58-.23-.87-.57-.87-1.02,0-.52.26-.78.78-.78.13,0,.43.09.88.28.45.19.9.28,1.35.28s.79-.14,1.02-.43c.23-.29.35-.62.35-.99,0-.37-.15-.64-.46-.81-.31-.17-.77-.3-1.4-.41-.63-.11-1.09-.22-1.38-.34-.8-.32-1.2-1.03-1.2-2.14,0-.79.28-1.41.84-1.88Z"/>
      <path class="cls-1" d="M201.16,23.94c.24,0,.47.11.68.34.21.23.32.46.32.71s-.12.5-.35.75c-.23.25-.48.38-.73.38s-.48-.11-.69-.32c-.21-.21-.31-.49-.31-.82,0-.64.35-.99,1.04-1.04h.04ZM202.01,34.42l.02,1.4c0,.25-.1.46-.3.63-.2.17-.41.25-.64.25-.33,0-.51-.17-.52-.5-.17-4.25-.26-6.61-.26-7.06,0-.45.02-1.01.06-1.66.03-.24.18-.36.46-.36.71,0,1.11.29,1.2.86.04.29.06.53.06.7l-.08,1.26v4.48Z"/>
      <path class="cls-1" d="M204.76,29.46c.47-.73,1.08-1.28,1.81-1.65.73-.37,1.45-.55,2.14-.55s1.25.08,1.67.25c.42.17.63.39.63.66s-.08.55-.23.82c-.15.27-.36.41-.61.41-.09,0-.35-.08-.77-.23s-.69-.23-.81-.23c-.77,0-1.43.28-1.98.85-.55.57-.82,1.32-.82,2.25,0,.93.15,1.63.45,2.09.3.46.82.69,1.55.69.29,0,.8-.17,1.51-.51.71-.34,1.16-.51,1.33-.51s.31.05.42.16c.11.11.16.24.16.4,0,.32-.2.66-.61,1.01-.41.35-.91.65-1.51.88-.6.23-1.14.35-1.62.35-1.07,0-1.9-.42-2.51-1.26s-.91-1.99-.91-3.44c0-.89.24-1.71.71-2.44Z"/>
      <path class="cls-1" d="M215.62,27.26c.96,0,1.75.46,2.37,1.38.62.92.93,2.02.93,3.31,0,1.29-.32,2.38-.95,3.29-.63.91-1.47,1.36-2.52,1.36s-1.89-.46-2.53-1.39c-.64-.93-.96-1.96-.96-3.09,0-1.45.29-2.61.88-3.48.63-.92,1.55-1.38,2.78-1.38ZM215.39,28.9c-.56,0-1.02.29-1.38.88-.36.59-.54,1.21-.54,1.86,0,1.01.2,1.79.6,2.32.4.53.85.8,1.36.8.91,0,1.49-.39,1.74-1.18.11-.37.16-.84.16-1.4,0-2.19-.65-3.28-1.94-3.28Z"/>
    </g>
  </g>
  <g>
    <path class="cls-1" d="M72.12,73.35c1.47.2,1.19,1.81,2.78,2.01,2.57.36,3.16-1.16,3.51-2.94.7-3.73-1.48-6.53-3.87-9.63-1.11-1.45-1.71-2.7-1.36-4.55.55-2.61,2.05-4.39,5.33-4.4.28,0,.55,0,.87.03,1.07.1,1.82.29,1.63,1.22-.35,1.62-4.55-1.11-5.45,3.51-.43,2.11.6,2.97,1.95,4.88,2.11,3.03,3.93,5.73,3.23,9.3-.55,2.71-1.89,4.29-5.09,4.3-.32,0-.63,0-.95-.03-1.39-.2-3.8-1.31-3.81-2.67,0-.07.04-.17.04-.23.04-.4.63-.79,1.19-.79Z"/>
    <path class="cls-1" d="M89.87,52.3c8.79-.02,10.04,23.44,1.33,24.08-.16,0-.32.03-.47.03-3.32,0-5.15-1.64-6.11-4.67-.52-1.98-4.68-19.42,5.25-19.44ZM86.52,70.22c.32,1.09,1.63,4.22,3.61,4.38.2.03.36,0,.47,0,2.65-.2,3.51-4.06,3.86-5.62.63-2.64,1.11-14.88-4.51-14.87h-.32c-5.98.47-3.88,13.7-3.12,16.1Z"/>
    <path class="cls-1" d="M100.74,61.15c.14-5.31.65-9.14,1.68-9.14.04,0,.12,0,.16.03.2.16,1.11.26,1.35,1.09.72,2.41,1.8,6.79,4.14,9.56.28-.2,1.77-2.38,2.56-3.57l.2-.26c1.46-2.21,2.44-3.8,3.39-5.94.24-.4.55-.6,1.15-.6.55.03.83.16,1.35.49-.26,7.32-.08,14.68-.26,22l-.04,1.58c-.2.4-.63.79-1.26.79-.32,0-.71-.26-.91-.46l.03-1.95c.14-5.97-.19-11.94.07-17.91-.95,1.42-1.89,2.84-2.72,4.33-.35.49-1.97,3.2-2.32,3.86-.24.43-1.3,1.45-1.9.33-3.98-7.48-4.1-7.48-4.14-7.48-.85,5.97-.92,12.08-.98,18.11-.08.36-.47.63-.83.63-.24,0-.95-.23-1.11-.46l.39-15.04Z"/>
    <path class="cls-1" d="M126.48,52.23c8.79-.02,10.04,23.44,1.33,24.08-.16,0-.32.03-.47.03-3.33,0-5.15-1.64-6.11-4.67-.52-1.98-4.68-19.42,5.25-19.44ZM123.13,70.15c.32,1.09,1.63,4.22,3.61,4.38.2.03.36,0,.48,0,2.65-.2,3.51-4.06,3.86-5.62.63-2.64,1.11-14.88-4.51-14.87h-.32c-5.98.47-3.88,13.7-3.12,16.11Z"/>
    <path class="cls-1" d="M135.37,73.22c1.47.2,1.19,1.81,2.78,2.01,2.57.36,3.16-1.16,3.51-2.94.7-3.73-1.48-6.53-3.87-9.63-1.11-1.45-1.71-2.7-1.36-4.55.55-2.61,2.05-4.39,5.33-4.4.28,0,.55,0,.87.03,1.07.1,1.82.29,1.63,1.22-.35,1.62-4.55-1.11-5.45,3.51-.43,2.11.6,2.97,1.95,4.88,2.11,3.03,3.93,5.73,3.23,9.3-.55,2.71-1.89,4.29-5.09,4.3-.32,0-.63,0-.95-.03-1.39-.2-3.8-1.31-3.81-2.67,0-.07.04-.17.04-.23.04-.4.63-.79,1.19-.79Z"/>
    <path class="cls-1" d="M148.82,58.29c1.07,0,1.78.69,1.79,1.61,0,.73-.83.83-1.58.83-.99,0-1.55-.52-1.55-1.45,0-.43.87-.99,1.34-.99ZM148.87,75.11c1.07,0,1.78.69,1.79,1.61,0,.73-.83.83-1.58.83-.99,0-1.54-.53-1.55-1.45,0-.43.87-.99,1.34-.99Z"/>
    <path class="cls-1" d="M163.1,67.47c0,.38-.23.55-.69.55-.26,0-1.07-.12-1.07-.45l-.02-8.11c0-.29.29-.75.69-.75.32,0,.46.07.72.31.21,2.76.36,5.66.37,8.45ZM166.41,67.3c0,.34-.2.48-.63.48-.26,0-1.01-.09-1.01-.41l-.02-7.1c0-.24.29-.65.66-.65.29,0,.43.07.66.26.21,2.42.33,4.97.34,7.42Z"/>
    <path class="cls-1" d="M169.04,60.24c-.06-.96,1.52-1.54,2.13-.15l5.91,13.26c.03-1.06.24-6.96.41-9.31.08-1.44-.04-2.9.33-4.25,0-.26.32-.26.75-.27.69.02.75.05.72.58-.08,2.5-.5,4.99-.61,7.49-.05,1.39-.32,8.04-.32,9.43-.2.5-1.09.22-1.33-.19-.29-.5-.52-.98-6.66-14.58l-.16,14.74c0,.72-1.47.65-1.47.15l.3-16.9Z"/>
    <path class="cls-1" d="M185.85,58.48c5.16.47,4.44,10.7,4.16,13.89-.2,1.75-1.25,4.8-4.13,4.81-5.1,0-5.35-7.24-5.35-10.05,0-3.05.23-8.64,5.33-8.65ZM182.16,67.03c.02,7.03,1.58,8.95,3.62,8.95,2.82,0,2.83-6.1,2.83-7.61v-.1c0-1.85-.63-8.57-3.36-8.56-2.16,0-3.07,4.01-3.07,5.21-.03.77-.02,1.44-.02,2.11Z"/>
    <path class="cls-1" d="M192.72,73.25c1.15.29.06,2.4,1.51,3.09h.17c1.61,0,2.07-1.85,2.07-2.84,0-1.32-.12-2.74-.79-3.98-1.36-2.59-4.27-4.74-4.28-7.72,0-1.34.97-3.58,2.96-3.58,1.27,0,3.37.83,3.37,2.08,0,.46-.17.72-.75.72-1.12,0-.78-1.44-2.36-1.44-1.47,0-1.58,1.71-1.58,2.55,0,2.42,2.46,4.12,3.76,6.14,1.19,1.85,1.8,4.53,1.11,6.36-.46,1.25-1.75,2.96-3.5,2.96-2.13,0-2.8-2.2-2.8-3.64,0-.41.66-.82,1.12-.7Z"/>
    <path class="cls-1" d="M208.58,71.9c0-1.92.11-10.9.17-12.82.14-.34.86-.29,1.21-.29,2.99,0,5.16,2.2,5.17,4.6,0,2.59-2.12,5.5-4.96,6.61-.03.38-.14,2.26-.14,2.64-.03.82-.02,4.51.01,5.3-.17.24-.6.31-.89.31-.26,0-.32-.02-.55-.14l-.02-6.22ZM210.1,68.39c.2,0,.46-.05.6-.17,1.67-1.28,2.64-2.74,2.64-4.66,0-1.25-1.08-3.5-3.06-3.5l-.18,8.33Z"/>
    <path class="cls-1" d="M216.34,75.68c-.02-5.4.2-10.85.36-16.25.05-1.1.54-1.1,1.7-1.11h.29c2.65,0,4.35,1.43,4.36,3.54v.26c0,1.75-.54,3.79-2.43,4.88.14.12.81.77.92.93,1.3,1.41.99,4.85,1.14,6.5,0,.14.18,1.25.18,1.39v.19c0,.41-.46.46-.83.46h-.03c-.32,0-.69,0-.81-.33-.03-.79-.3-4.46-.36-5.28-.12-1.18-.41-2.78-2.17-2.78h-.46c-.06.22-.17,1.18-.17,1.39-.03.22-.16,5.54-.18,7.58,0,.46.09.96-.63.96-.32,0-.66-.09-.86-.33v-2.02ZM218.56,66.38c2.04,0,2.81-3.15,2.81-4.25,0-1.13-.64-2.57-2.28-2.56-.43,0-.72.22-.72.63.03,2.09-.19,3.84-.18,5.98,0,.19.2.22.38.21Z"/>
    <path class="cls-1" d="M225.34,60.27c0-.43.49-.84,1.01-.84h4.55c.17,0,.75.35.78.47.03.05.03.07.03.12,0,.48-.78.7-1.24.7h-3.46s.17,7.97.17,7.97l3.11-.39h.14c1.35,0,.84,1.1-.31,1.25l-2.88.36-.07,6.27c.26.02,1.24.02,1.5.02,1.93,0,3.34-.56,3.43.54.06.82-6.39.73-6.39.28l-.36-16.75Z"/>
    <path class="cls-1" d="M234.42,71.85c0-1.92.11-10.9.17-12.82.14-.34.86-.29,1.21-.29,2.99,0,5.16,2.2,5.17,4.6,0,2.59-2.12,5.5-4.96,6.61-.03.38-.14,2.26-.14,2.64-.03.82-.02,4.51.01,5.3-.17.24-.6.31-.89.31-.26,0-.32-.02-.55-.14l-.02-6.22ZM235.93,68.34c.2,0,.46-.05.6-.17,1.67-1.28,2.64-2.74,2.64-4.66,0-1.25-1.08-3.5-3.06-3.5l-.18,8.33Z"/>
    <path class="cls-1" d="M243.4,72.53l-.17.14-.48,2.71c-.06.36-.02,1.39-.86,1.39-.37,0-.64-.62-.64-.86,2.95-17.41,2.97-17.46,2.97-17.46.14-.46.34-1.13,1.06-1.13.32,0,.72.12.89.36l.23.5c1.69,5.49,2.48,11.13,3.27,16.8l.18,1.56s-.03.02-.03.05c-.2.46-.31.65-.86.65h-.09c-.17,0-.46,0-.49-.17l-.73-4.56h-4.26ZM243.83,71.04l3.6.06-1.96-11.21-1.64,11.14Z"/>
    <path class="cls-1" d="M251.04,75.61c-.02-5.4.2-10.85.36-16.25.05-1.1.54-1.11,1.7-1.11h.29c2.65,0,4.35,1.43,4.36,3.54v.26c0,1.75-.54,3.79-2.43,4.88.14.12.81.77.92.93,1.3,1.41.99,4.85,1.14,6.5,0,.14.18,1.25.18,1.39v.19c0,.41-.46.46-.83.46h-.03c-.32,0-.69,0-.81-.33-.03-.79-.3-4.46-.36-5.28-.12-1.17-.41-2.78-2.17-2.78h-.46c-.06.22-.17,1.18-.17,1.39-.03.22-.16,5.54-.18,7.58,0,.46.09.96-.63.96-.32,0-.66-.09-.86-.33v-2.02ZM253.26,66.32c2.04,0,2.81-3.15,2.81-4.25,0-1.13-.64-2.57-2.28-2.56-.43,0-.72.22-.72.62.03,2.09-.19,3.84-.18,5.98,0,.19.2.21.38.21Z"/>
    <path class="cls-1" d="M262.24,72.49l-.17.14-.48,2.71c-.06.36-.02,1.39-.86,1.39-.37,0-.64-.62-.64-.86,2.95-17.41,2.97-17.46,2.97-17.46.14-.46.34-1.13,1.06-1.13.32,0,.72.12.89.36l.23.5c1.69,5.49,2.48,11.13,3.27,16.8l.18,1.56s-.03.03-.03.05c-.2.46-.31.65-.86.65h-.09c-.17,0-.46,0-.49-.17l-.73-4.56h-4.26ZM262.67,71l3.6.07-1.96-11.21-1.64,11.14Z"/>
    <path class="cls-1" d="M280.35,62.38l-3.09,6.39c-.06.48-1.41.53-1.64.32-.03-.02-.17-.22-.2-.29-.75-2.01-1.42-4.01-2.38-5.97-.48,4.51.14,9.12-.54,13.61-.32.17-.55.17-.89.17-.6,0-.58-.12-.58-.57,0-.77.26-1.27.16-16.42,0-.72,1.32-1.27,1.67-.48l3.54,8.01c.83-.79,3.32-7.54,3.95-8.43.29-.48.92-.41,1.64,0,.03,0,.19,7.92.23,11.3.03,2.14.19,4.37.19,6.53,0,.43-.34.82-.89.82-.46,0-.58-.09-.75-.48.07-4.85-.11-9.67-.41-14.5Z"/>
    <path class="cls-1" d="M289.56,58.28c5.16.47,4.44,10.7,4.16,13.89-.2,1.75-1.25,4.8-4.13,4.81-5.1,0-5.35-7.24-5.35-10.05,0-3.05.23-8.64,5.33-8.65ZM285.87,66.83c.02,7.03,1.58,8.95,3.62,8.95,2.82,0,2.83-6.1,2.83-7.61v-.1c0-1.85-.63-8.57-3.36-8.56-2.16,0-3.07,4.01-3.07,5.21-.03.77-.02,1.44-.02,2.11Z"/>
    <path class="cls-1" d="M296.43,73.05c1.15.29.06,2.4,1.51,3.09h.17c1.61,0,2.07-1.85,2.07-2.84,0-1.32-.12-2.74-.79-3.98-1.36-2.59-4.27-4.74-4.28-7.72,0-1.34.97-3.58,2.96-3.58,1.27,0,3.37.83,3.37,2.08,0,.46-.17.72-.75.72-1.12,0-.78-1.44-2.36-1.44-1.47,0-1.58,1.71-1.58,2.55,0,2.42,2.46,4.12,3.76,6.14,1.19,1.85,1.8,4.53,1.11,6.36-.46,1.25-1.75,2.96-3.5,2.96-2.13,0-2.8-2.2-2.8-3.64,0-.41.66-.82,1.12-.7Z"/>
    <path class="cls-1" d="M305.97,67.2c0,.38-.23.55-.69.55-.26,0-1.07-.12-1.07-.45l-.02-8.11c0-.29.29-.74.69-.75.32,0,.46.07.72.31.21,2.76.36,5.66.37,8.45ZM309.28,67.02c0,.34-.2.48-.63.48-.26,0-1.01-.09-1.01-.41l-.02-7.1c0-.24.29-.65.66-.65.29,0,.43.07.66.26.21,2.42.33,4.97.34,7.42Z"/>
  </g>
  <g>
    <path class="cls-1" d="M126.17,101.29c-.57-1.69-1.17-3.24-1.79-4.65-.62-1.41-1.41-3.17-2.37-5.3-.34-.74-.55-1.2-.63-1.38s-.13-.37-.13-.59.11-.43.33-.64.46-.32.72-.32c.27,0,.49.13.67.4l1.01,2.31c1.41,3.26,2.42,5.64,3.03,7.12l.38-1.47c.31-1.29.63-2.56.97-3.82.95-3.44,1.89-5.17,2.81-5.17.17,0,.31.05.43.15.12.1.18.23.18.4s-.09.41-.26.74c-.17.32-.4.9-.66,1.74-.27.84-.43,1.33-.49,1.48-.06.15-.4,1.33-1.01,3.54-.61,2.21-1.13,3.95-1.56,5.21-.07.22-.2.41-.4.56-.2.15-.42.22-.66.22s-.43-.17-.56-.53Z"/>
    <path class="cls-1" d="M133.96,88.42c.25,0,.49.12.71.36.22.24.34.49.34.75s-.12.52-.37.79-.5.4-.77.4-.51-.11-.72-.34c-.22-.22-.33-.51-.33-.86,0-.67.36-1.04,1.09-1.09h.04ZM134.84,99.42l.02,1.47c0,.27-.1.49-.31.66s-.43.26-.67.26c-.35,0-.53-.17-.55-.53-.18-4.47-.27-6.94-.27-7.41,0-.48.02-1.06.06-1.74.03-.25.19-.38.48-.38.74,0,1.16.3,1.26.9.04.31.06.55.06.74l-.08,1.32v4.7Z"/>
    <path class="cls-1" d="M139.98,98.62l.02,2.16c0,.25-.12.48-.35.69-.23.21-.46.32-.68.32-.32,0-.52-.25-.61-.76-.01-.11-.07-1.14-.17-3.08-.1-1.94-.29-3.46-.57-4.57-.13-.53-.19-.85-.19-.94,0-.46.28-.69.84-.69.24,0,.43.09.57.27.14.18.23.37.26.56.03.19.07.44.09.77s.05.53.06.61c.29-.7.73-1.23,1.32-1.58.59-.35,1.23-.53,1.93-.53,1.15,0,1.72.29,1.72.88,0,.29-.1.53-.3.7-.2.17-.44.26-.7.26-1.19,0-2.03.38-2.52,1.14s-.73,2.02-.73,3.78Z"/>
    <path class="cls-1" d="M145.88,91.88l1.05.02c.24,0,.37,0,.4-.02v-4.31c.01-.24.13-.44.36-.61.22-.17.43-.25.63-.25s.35.06.47.19.17.32.16.59c-.01.27-.02,1.72-.02,4.37l2.46-.08c.42,0,.63.25.63.74,0,.36-.11.64-.33.82-.22.18-.45.28-.69.29-.25.01-.49.02-.72.02l-1.28-.02c0,.57.06,1.71.18,3.4.12,1.69.21,2.79.28,3.29.07.5.08.82.04.97-.04.15-.12.25-.23.3-.18.08-.43.13-.74.13s-.49-.17-.55-.5c-.28-1.83-.47-4.35-.57-7.56-.13.01-.61.02-1.45.02s-1.26-.24-1.26-.73c0-.7.39-1.05,1.18-1.05Z"/>
    <path class="cls-1" d="M152.9,92.1c.18-.16.37-.24.56-.24s.34.04.44.11c.11.07.17.13.19.19.02.06.05.15.07.29-.08,1.09-.13,2.08-.13,2.95,0,.88.11,1.88.32,3,.21,1.13.44,1.69.69,1.69.38,0,.86-.21,1.44-.63.58-.42,1-.86,1.25-1.32-.17-2.02-.25-3.75-.25-5.19,0-.29.09-.55.28-.76s.42-.32.68-.32c.43,0,.65.29.65.88,0,.99.07,2.47.22,4.43.15,1.96.3,3.21.45,3.74.03.11.04.24.04.39s-.09.29-.28.42-.43.2-.73.2-.5-.17-.6-.5c-.03-.28-.1-.7-.21-1.26-.98,1.02-1.97,1.53-2.96,1.53-.46,0-.88-.18-1.24-.53-.36-.35-.65-.83-.86-1.43-.36-1.16-.55-2.25-.55-3.28,0-1.02.06-2.28.17-3.78.06-.24.17-.44.36-.6Z"/>
    <path class="cls-1" d="M166.84,91.88c.62,0,.92.52.92,1.57v.36l-.04,1.47c-.01.46-.02.92-.02,1.37l.32,4.75c0,.35-.36.53-1.07.53h-.3c-.16,0-.27-.06-.34-.19s-.07-.28-.02-.46c.05-.18.03-.38-.05-.61-.64.69-1.5,1.03-2.56,1.03-1.97,0-2.96-1.52-2.96-4.58,0-1.69.32-2.97.95-3.84s1.55-1.3,2.74-1.3c.56,0,1.12.1,1.68.29.18-.25.43-.38.76-.38ZM164.66,93.79c-.8,0-1.39.23-1.79.69-.39.46-.59,1.31-.59,2.54,0,2.07.56,3.11,1.68,3.11.29,0,.62-.13.98-.4.36-.27.61-.57.75-.9.27-.76.4-1.58.4-2.48,0-.9-.11-1.55-.33-1.95s-.58-.61-1.1-.61Z"/>
    <path class="cls-1" d="M169.16,88.08c.03-.52.12-.87.25-1.03.13-.16.35-.24.64-.24.6,0,.9.25.9.74,0,.38-.03,1.37-.09,2.96-.06,1.6-.09,3.02-.09,4.28,0,1.26.05,2.28.15,3.04.17,1.34.41,2.02.71,2.02s.54-.22.69-.65c.07-.17.18-.32.34-.45.15-.13.35-.2.59-.2.49,0,.73.41.74,1.24,0,.45-.24.89-.72,1.33-.48.44-.96.66-1.44.66s-.86-.08-1.14-.24c-.29-.16-.52-.4-.69-.72-.18-.32-.32-.63-.42-.93-.1-.3-.18-.67-.22-1.1-.08-.7-.14-1.82-.18-3.37-.04-1.55-.05-3.02-.05-4.43,0-1.41.02-2.37.05-2.9Z"/>
    <path class="cls-1" d="M186.33,91.98c.18,0,.36.06.54.19s.26.27.26.42c0,.41-.59,2.6-1.78,6.59-1.19,3.99-2.07,6.79-2.64,8.4-.13.38-.32.57-.59.57s-.48-.09-.63-.28c-.15-.19-.23-.47-.23-.83s.23-1.24.7-2.62c.47-1.38.75-2.26.85-2.63-.35-.59-1.53-3.53-3.55-8.82-.03-.07-.04-.16-.04-.27s.08-.26.25-.44c.17-.18.4-.27.69-.27s.53.15.71.44c.2.5.52,1.38.97,2.63.45,1.25.79,2.16,1.04,2.72.24.56.48,1.14.7,1.74.2-.66.53-1.94,1.01-3.83.48-1.9.75-2.98.82-3.25.06-.31.36-.46.92-.46Z"/>
    <path class="cls-1" d="M188.64,101.97c0-.06.02-.15.06-.29.91-2.14,1.9-4.63,2.98-7.46,1.08-2.83,2.07-5.33,2.98-7.52.2-.36.48-.55.86-.55.17,0,.31.05.42.15.11.1.17.23.17.39s-.18.65-.52,1.46c-.35.81-1.19,2.93-2.53,6.35s-2.36,5.95-3.07,7.59c-.24.32-.5.48-.78.48-.38,0-.57-.2-.57-.61Z"/>
    <path class="cls-1" d="M201.11,91.89c1.01,0,1.84.48,2.49,1.45s.98,2.12.98,3.47c0,1.35-.33,2.5-1,3.46-.67.95-1.55,1.43-2.65,1.43s-1.98-.49-2.66-1.46c-.67-.97-1.01-2.05-1.01-3.24,0-1.53.31-2.74.92-3.65.66-.97,1.63-1.45,2.92-1.45ZM200.86,93.61c-.59,0-1.07.31-1.45.92-.38.62-.57,1.27-.57,1.95,0,1.06.21,1.88.63,2.43.42.56.9.84,1.43.84.95,0,1.56-.41,1.83-1.24.11-.39.17-.88.17-1.47,0-2.3-.68-3.44-2.04-3.44Z"/>
    <path class="cls-1" d="M213.56,86.96c.22-.16.41-.25.57-.27.16-.02.53-.03,1.11-.03s1.06.08,1.44.25c.38.17.57.5.57,1.01,0,.5-.2.76-.61.76-.08,0-.32-.07-.71-.22-.39-.15-.64-.22-.76-.22-.49,0-.78.29-.88.88-.03.21-.04.64-.04,1.29,0,.65,0,1.19,0,1.61h1.47c.62.03.92.24.92.65,0,.59-.42.9-1.26.92-.13.01-.28.02-.46.02s-.39,0-.63-.02c.03.56.09,1.56.19,2.99.1,1.43.15,2.83.15,4.19,0,.28-.11.5-.34.67-.22.17-.46.25-.69.25-.38,0-.57-.22-.57-.67,0-1.26-.05-2.48-.15-3.67-.1-1.19-.17-2.44-.21-3.76-1.26,0-1.99-.13-2.21-.38-.08-.1-.13-.22-.13-.38,0-.36.15-.6.45-.71.3-.11.65-.17,1.04-.17h.84c.04-2.28.17-3.7.38-4.24.13-.34.3-.58.51-.75Z"/>
    <path class="cls-1" d="M219.72,87.73c.08-.24.26-.36.54-.36s.49.08.65.25c.16.17.24.3.24.41s-.01.19-.04.26c-.22.63-.6,1.23-1.12,1.79-.52.56-.93.84-1.21.84s-.49-.07-.63-.21c-.14-.14-.21-.3-.21-.49s.11-.38.34-.56c.74-.6,1.22-1.25,1.45-1.93ZM220.5,99.41l.02,1.47c0,.27-.1.49-.31.66s-.43.26-.67.26c-.35,0-.53-.17-.55-.53-.18-4.47-.27-6.94-.27-7.41,0-.48.02-1.06.06-1.74.03-.25.19-.38.48-.38.74,0,1.16.3,1.26.9.04.31.06.55.06.74l-.08,1.32v4.7Z"/>
    <path class="cls-1" d="M224.17,92.56c.59-.49,1.27-.74,2.05-.74s1.52.14,2.24.42c.71.28,1.07.65,1.07,1.11,0,.24-.09.43-.27.57-.18.14-.34.21-.47.21s-.24,0-.31-.01c-.08,0-.36-.14-.84-.39-.48-.25-.93-.38-1.33-.38s-.75.1-1.04.3c-.29.2-.43.5-.43.89,0,.39.16.7.49.92.33.22.91.42,1.73.58.83.16,1.46.39,1.9.68.44.29.66.84.66,1.64,0,1.16-.3,1.98-.91,2.47-.61.48-1.35.72-2.22.72s-1.61-.12-2.22-.36c-.61-.24-.91-.59-.91-1.07,0-.55.27-.82.82-.82.14,0,.45.1.92.29.48.2.95.29,1.42.29s.83-.15,1.07-.45c.24-.3.37-.65.37-1.04s-.16-.68-.48-.85-.81-.32-1.47-.43c-.66-.11-1.14-.23-1.45-.36-.84-.34-1.26-1.08-1.26-2.25,0-.83.29-1.48.88-1.97Z"/>
    <path class="cls-1" d="M232.4,88.4c.25,0,.49.12.71.36.22.24.34.49.34.75s-.12.52-.37.79-.5.4-.77.4-.51-.11-.72-.34c-.22-.22-.33-.51-.33-.86,0-.67.36-1.04,1.09-1.09h.04ZM233.29,99.4l.02,1.47c0,.27-.1.49-.31.66s-.43.26-.67.26c-.35,0-.53-.17-.55-.53-.18-4.47-.27-6.94-.27-7.41,0-.48.02-1.06.06-1.74.03-.25.19-.38.48-.38.74,0,1.16.3,1.26.9.04.31.06.55.06.74l-.08,1.32v4.7Z"/>
    <path class="cls-1" d="M236.17,94.19c.5-.77,1.13-1.35,1.9-1.73.77-.38,1.52-.58,2.25-.58.73,0,1.31.09,1.75.26.44.17.66.41.66.69s-.08.57-.24.86c-.16.29-.37.43-.64.43-.1,0-.37-.08-.81-.24s-.72-.24-.85-.24c-.81,0-1.51.3-2.08.89-.57.6-.86,1.38-.86,2.36,0,.98.16,1.71.47,2.19.32.48.86.72,1.63.72.31,0,.84-.18,1.59-.54.75-.36,1.21-.54,1.4-.54s.33.06.44.17.17.25.17.42c0,.34-.21.69-.64,1.06-.43.37-.96.68-1.59.92-.63.25-1.2.37-1.7.37-1.12,0-2-.44-2.64-1.32s-.96-2.09-.96-3.61c0-.94.25-1.79.75-2.56Z"/>
    <path class="cls-1" d="M247.59,91.88c1.01,0,1.84.48,2.49,1.45.65.96.98,2.12.98,3.47,0,1.35-.33,2.5-1,3.46-.67.95-1.55,1.43-2.65,1.43s-1.98-.49-2.66-1.46c-.67-.97-1.01-2.05-1.01-3.24,0-1.53.31-2.74.92-3.65.66-.97,1.63-1.45,2.92-1.45ZM247.33,93.6c-.59,0-1.07.31-1.45.92-.38.62-.57,1.27-.57,1.95,0,1.06.21,1.88.63,2.43.42.56.9.84,1.43.84.95,0,1.56-.41,1.83-1.24.11-.39.17-.88.17-1.47,0-2.3-.68-3.44-2.04-3.44Z"/>
    <path class="cls-1" d="M60.26,120.97c-.08-1.17-.12-2.75-.12-4.73,0-1.99.03-3.28.08-3.87.06-.36.31-.6.75-.72.44-.12,1.03-.18,1.75-.18,1.07,0,1.96.23,2.69.69.73.46,1.1,1.14,1.1,2.03,0,.74-.1,1.35-.31,1.84-.2.49-.46.86-.76,1.1-.5.39-1.24.58-2.21.58-.42,0-.97-.06-1.65-.17.06,2.27.08,3.69.07,4.28-.01.59-.21.88-.59.88-.25,0-.41-.04-.48-.14-.07-.09-.11-.16-.14-.2-.02-.04-.05-.1-.07-.18-.02-.08-.04-.14-.05-.19-.01-.05-.02-.13-.03-.23,0-.1-.01-.18-.03-.24-.01-.17-.02-.36-.02-.56ZM65.11,114.23c0-.46-.25-.82-.75-1.09-.5-.27-1.03-.4-1.6-.4s-.96.05-1.19.15c-.05.67-.07,1.28-.07,1.84,0,.56.02,1.07.07,1.52.31.03.52.06.63.08.29.03.55.05.76.05s.35,0,.43,0c.07,0,.22-.02.42-.05s.36-.08.45-.14c.09-.07.2-.16.34-.27s.23-.24.29-.39c.15-.41.22-.84.22-1.3Z"/>
    <path class="cls-1" d="M68.07,111.69c.03-.42.1-.7.2-.83.11-.13.28-.2.52-.2.49,0,.73.2.73.59,0,.31-.03,1.11-.08,2.4-.05,1.29-.08,2.45-.08,3.47,0,1.02.04,1.84.12,2.46.14,1.09.33,1.63.58,1.63s.44-.18.56-.53c.06-.14.15-.26.27-.37.12-.11.28-.16.48-.16.4,0,.59.33.6,1,0,.36-.2.72-.59,1.08-.39.36-.78.54-1.16.54s-.69-.07-.93-.2c-.23-.13-.42-.33-.56-.59s-.26-.51-.34-.76c-.08-.24-.14-.54-.18-.89-.07-.57-.12-1.48-.15-2.73-.03-1.25-.04-2.45-.04-3.59,0-1.14.01-1.92.04-2.35Z"/>
    <path class="cls-1" d="M77.38,114.76c.5,0,.75.43.75,1.28v.29l-.03,1.19c-.01.37-.02.74-.02,1.1l.26,3.84c0,.28-.29.42-.87.42h-.25c-.13,0-.22-.05-.27-.15-.05-.1-.06-.23-.02-.37.04-.15.03-.31-.04-.49-.52.56-1.21.83-2.07.83-1.6,0-2.4-1.24-2.4-3.71,0-1.37.26-2.41.77-3.11.52-.7,1.25-1.05,2.22-1.05.45,0,.91.08,1.36.24.15-.2.35-.31.61-.31ZM75.61,116.31c-.65,0-1.13.19-1.44.56-.32.37-.48,1.06-.48,2.06,0,1.68.45,2.52,1.36,2.52.24,0,.5-.11.79-.32.29-.21.49-.46.6-.73.22-.61.32-1.28.32-2.01,0-.72-.09-1.25-.26-1.58-.18-.33-.47-.49-.89-.49Z"/>
    <path class="cls-1" d="M79.95,122.17l-.19-6.9c0-.22.07-.39.22-.53s.29-.2.44-.2c.36,0,.57.15.63.46.05.31.07.62.07.95.61-.8,1.38-1.21,2.29-1.21,1.41,0,2.11,1.6,2.11,4.81,0,.29,0,.74,0,1.33,0,.59-.03,1.03-.1,1.3-.08.34-.32.51-.73.51-.27,0-.41-.18-.41-.54l.02-.95c0-1.31-.04-2.21-.13-2.69s-.17-.86-.25-1.15c-.19-.61-.5-.92-.94-.92-.57,0-.96.2-1.19.61-.25.44-.4.96-.44,1.56-.08,1.05-.12,2.17-.12,3.35,0,.23-.08.41-.25.54-.17.14-.37.2-.61.2-.28,0-.43-.18-.43-.54Z"/>
    <path class="cls-1" d="M88.11,111.95c.2,0,.4.1.58.29.18.19.27.39.27.6s-.1.42-.3.64-.41.32-.62.32-.41-.09-.59-.27c-.18-.18-.26-.41-.26-.7,0-.54.29-.84.88-.88h.03ZM88.82,120.86l.02,1.19c0,.22-.08.39-.25.54-.17.14-.35.21-.54.21-.28,0-.43-.14-.44-.42-.15-3.62-.22-5.62-.22-6,0-.38.02-.86.05-1.41.02-.2.15-.31.39-.31.6,0,.94.24,1.02.73.03.25.05.45.05.59l-.07,1.07v3.81Z"/>
    <path class="cls-1" d="M96.61,116.54l-.05,4.32c0,.61,0,1.02,0,1.22s-.07.37-.23.51c-.16.14-.35.2-.56.2s-.36-.14-.44-.42c-.14-2.56-.2-4.09-.21-4.6v-1.67c-.25.04-.51.07-.77.07s-.48,0-.65-.02c.02.45.07,1.26.15,2.42.08,1.16.12,2.29.12,3.39,0,.23-.09.41-.27.54-.18.14-.37.2-.56.2-.31,0-.46-.18-.46-.54,0-1.02-.04-2.01-.12-2.97s-.14-1.98-.17-3.04c-1.02,0-1.62-.1-1.79-.3-.07-.08-.1-.18-.1-.31,0-.29.12-.49.37-.58.24-.09.52-.14.84-.14h.68c.03-1.85.14-2.99.31-3.43.1-.27.24-.47.42-.6.18-.13.33-.2.46-.22.13-.02.35-.03.65-.03,1.14,0,1.88.22,2.19.65.24.33.36.73.36,1.21,0,.25-.1.48-.29.68-.19.21-.4.31-.63.31h-.03c-.63-.07-.95-.39-.95-.97,0-.09.05-.24.14-.44-.18-.1-.38-.15-.59-.15-.5,0-.75.44-.76,1.33-.01.09-.02.19-.02.29l.03,1.44,1.97-.08c.28,0,.5.04.65.12.15.08.25.24.28.48.02.31.03.69.03,1.16Z"/>
    <path class="cls-1" d="M97.96,116.64c.4-.62.91-1.09,1.54-1.4.62-.31,1.23-.47,1.82-.47.59,0,1.06.07,1.42.21.36.14.54.33.54.56s-.07.46-.2.7c-.13.23-.3.35-.52.35-.08,0-.3-.07-.65-.2-.36-.13-.59-.19-.69-.19-.66,0-1.22.24-1.68.72-.46.48-.7,1.12-.7,1.91,0,.79.13,1.39.38,1.78.26.39.69.59,1.32.59.25,0,.68-.14,1.28-.43.61-.29.98-.43,1.13-.43s.27.05.36.14c.09.09.14.2.14.34,0,.27-.17.56-.52.86-.35.3-.77.55-1.28.75-.51.2-.97.3-1.38.3-.91,0-1.62-.36-2.13-1.07-.52-.71-.77-1.69-.77-2.92,0-.76.2-1.45.6-2.07Z"/>
    <path class="cls-1" d="M108.93,114.75c.5,0,.75.43.75,1.28v.29l-.03,1.19c-.01.37-.02.74-.02,1.1l.26,3.84c0,.28-.29.42-.87.42h-.25c-.13,0-.22-.05-.27-.15-.05-.1-.06-.23-.02-.37.04-.15.03-.31-.04-.49-.52.56-1.21.83-2.07.83-1.6,0-2.4-1.24-2.4-3.71,0-1.37.26-2.41.77-3.11.52-.7,1.25-1.05,2.22-1.05.45,0,.91.08,1.36.24.15-.2.35-.31.61-.31ZM107.17,116.3c-.65,0-1.13.19-1.44.56-.32.37-.48,1.06-.48,2.06,0,1.68.45,2.52,1.36,2.52.24,0,.5-.11.79-.32.29-.21.49-.46.6-.73.22-.61.32-1.28.32-2.01,0-.72-.09-1.25-.26-1.58-.18-.33-.47-.49-.89-.49Z"/>
    <path class="cls-1" d="M111.22,116.64c.4-.62.91-1.09,1.54-1.4.62-.31,1.23-.47,1.82-.47s1.06.07,1.42.21c.36.14.54.33.54.56s-.07.46-.2.7c-.13.23-.3.35-.52.35-.08,0-.3-.07-.65-.2-.36-.13-.59-.2-.69-.2-.66,0-1.22.24-1.68.72-.46.48-.7,1.12-.7,1.91,0,.79.13,1.39.38,1.78.26.39.69.59,1.32.59.25,0,.68-.14,1.28-.43.61-.29.98-.43,1.13-.43s.27.05.36.14c.09.09.14.2.14.34,0,.27-.17.56-.52.86-.35.3-.77.55-1.28.75s-.97.3-1.38.3c-.91,0-1.62-.36-2.13-1.07-.52-.71-.77-1.69-.77-2.92,0-.76.2-1.45.6-2.07Z"/>
    <path class="cls-1" d="M118.57,111.95c.2,0,.4.1.58.29.18.19.27.39.27.6s-.1.42-.3.64-.41.32-.62.32-.41-.09-.59-.27c-.18-.18-.26-.41-.26-.7,0-.54.29-.84.88-.88h.03ZM119.29,120.86l.02,1.19c0,.22-.08.39-.25.54-.17.14-.35.21-.54.21-.28,0-.43-.14-.44-.42-.15-3.62-.22-5.62-.22-6,0-.38.02-.86.05-1.41.02-.2.15-.31.39-.31.6,0,.94.24,1.02.73.03.25.05.45.05.59l-.07,1.07v3.81Z"/>
    <path class="cls-1" d="M124.27,114.77c.82,0,1.49.39,2.01,1.17s.79,1.72.79,2.81-.27,2.03-.81,2.8c-.54.77-1.25,1.16-2.14,1.16s-1.61-.39-2.15-1.18c-.54-.79-.82-1.66-.82-2.63,0-1.24.25-2.22.75-2.96.53-.78,1.32-1.17,2.36-1.17ZM124.06,116.16c-.48,0-.87.25-1.17.75-.31.5-.46,1.03-.46,1.58,0,.86.17,1.52.51,1.97s.73.68,1.16.68c.77,0,1.26-.33,1.48-1,.09-.32.14-.71.14-1.19,0-1.86-.55-2.79-1.65-2.79ZM124.17,111.42c.07-.19.21-.29.43-.29s.4.07.53.2c.13.14.2.25.2.33s-.01.16-.03.21c-.18.51-.48.99-.91,1.44s-.75.68-.98.68-.4-.06-.51-.17c-.11-.11-.17-.25-.17-.4,0-.15.09-.3.27-.43.6-.5.99-1.03,1.17-1.58Z"/>
    <path class="cls-1" d="M128.76,122.16l-.19-6.9c0-.22.07-.39.22-.53s.29-.2.44-.2c.36,0,.57.15.63.46.05.31.07.62.07.95.61-.8,1.38-1.21,2.29-1.21,1.41,0,2.11,1.6,2.11,4.81,0,.29,0,.74,0,1.33,0,.59-.03,1.03-.1,1.3-.08.34-.32.51-.73.51-.27,0-.41-.18-.41-.54l.02-.95c0-1.31-.04-2.21-.13-2.69s-.17-.86-.25-1.15c-.19-.61-.5-.92-.94-.92-.57,0-.96.2-1.19.61-.25.44-.4.96-.44,1.56-.08,1.05-.12,2.17-.12,3.35,0,.23-.08.41-.25.54-.17.14-.37.2-.61.2-.28,0-.43-.18-.43-.54Z"/>
    <path class="cls-1" d="M143.77,114.73l-.02-3.28c0-.61.2-.92.59-.92s.61.17.65.51c.02.15.05,1.04.09,2.67.03,1.63.09,3.16.16,4.59.07,1.43.11,2.76.11,4,0,.34-.25.51-.76.51-.34,0-.51-.24-.51-.71-.49.38-1.07.58-1.73.58-.85,0-1.54-.32-2.07-.95s-.79-1.42-.79-2.35c0-.93.19-1.8.57-2.61.38-.81.97-1.39,1.78-1.74.5-.21.98-.32,1.44-.32.17,0,.33.01.49.03ZM143.86,117.05c-.08-.24-.18-.43-.3-.56-.11-.13-.24-.21-.37-.24-.13-.03-.29-.04-.47-.04-.18,0-.4.07-.66.2-.26.14-.48.36-.66.66-.36.61-.54,1.26-.54,1.93,0,.67.13,1.22.4,1.65.27.42.65.64,1.14.64.49,0,.88-.25,1.16-.73.28-.49.42-1.11.42-1.87,0-.85-.04-1.4-.13-1.64Z"/>
    <path class="cls-1" d="M148.78,114.82c.6,0,1.17.18,1.72.53s.82.79.82,1.3c0,.52-.22,1.01-.66,1.5-.44.48-1.03.77-1.77.88-.32.04-.79.07-1.43.07.12.96.37,1.6.73,1.9.11.12.27.19.46.19.7,0,1.29-.22,1.77-.67.48-.45.82-.67,1.02-.67.09,0,.23.08.41.26.18.17.27.33.27.48,0,.29-.36.72-1.07,1.28-.32.26-.7.48-1.15.65-.45.18-.86.26-1.25.26-.99,0-1.71-.63-2.18-1.9-.3-.78-.44-1.64-.44-2.58,0-.94.22-1.75.66-2.43.44-.68,1.14-1.02,2.09-1.02ZM148.87,115.99c-.43,0-.8.24-1.1.73-.11.17-.22.56-.32,1.16,1.59,0,2.38-.39,2.38-1.17,0-.48-.32-.71-.95-.71Z"/>
    <path class="cls-1" d="M153.06,111.68c.03-.42.1-.7.2-.83.11-.13.28-.2.52-.2.49,0,.73.2.73.59,0,.31-.03,1.11-.08,2.4-.05,1.29-.08,2.45-.08,3.47,0,1.02.04,1.84.12,2.46.14,1.09.33,1.63.58,1.63s.44-.18.56-.53c.06-.14.15-.26.27-.37.12-.11.28-.16.48-.16.4,0,.59.33.6,1,0,.36-.2.72-.59,1.08-.39.36-.78.54-1.16.54s-.69-.07-.93-.2c-.23-.13-.42-.33-.56-.59s-.26-.51-.34-.76c-.08-.24-.14-.54-.18-.89-.07-.57-.12-1.48-.15-2.73-.03-1.25-.04-2.45-.04-3.59,0-1.14.01-1.92.04-2.35Z"/>
    <path class="cls-1" d="M164.22,122.67c-.39,0-.74-.13-1.07-.39l-.22-.19v5.1c-.07.23-.19.42-.36.57-.17.15-.35.23-.54.23-.29,0-.44-.2-.44-.59v-11.85c.07-.29.15-.5.24-.63.1-.12.25-.19.46-.19s.35.05.41.14c.06.1.14.36.23.79.05-.23.23-.44.54-.63.32-.19.74-.29,1.27-.29,1.16,0,1.98.42,2.47,1.26.49.84.73,1.83.73,2.97,0,1.14-.33,2.04-.99,2.7-.66.66-1.57,1-2.73,1ZM162.93,117.57v3.16c.07.03.15.09.24.17.33.29.69.44,1.07.44,1.56,0,2.35-.8,2.35-2.41,0-1.37-.35-2.24-1.05-2.6-.29-.16-.66-.24-1.09-.24-.42.06-.78.24-1.07.55-.29.31-.44.62-.44.93Z"/>
    <path class="cls-1" d="M171,120.2l.02,1.75c0,.2-.09.39-.28.56s-.37.25-.55.25c-.26,0-.43-.2-.49-.61-.01-.09-.06-.92-.14-2.49-.08-1.57-.23-2.8-.46-3.7-.1-.43-.15-.69-.15-.77,0-.37.23-.56.68-.56.19,0,.35.07.46.22.11.15.18.3.21.45.03.15.05.36.08.62s.04.42.05.49c.24-.57.59-.99,1.07-1.28.48-.28,1-.42,1.56-.42.93,0,1.39.24,1.39.71,0,.24-.08.43-.25.57-.16.14-.35.21-.57.21-.96,0-1.64.31-2.04.92-.4.61-.59,1.63-.59,3.06Z"/>
    <path class="cls-1" d="M178.36,114.76c.82,0,1.49.39,2.01,1.17s.79,1.72.79,2.81-.27,2.03-.81,2.8c-.54.77-1.25,1.16-2.14,1.16-.89,0-1.61-.39-2.15-1.18-.54-.79-.82-1.66-.82-2.63,0-1.24.25-2.22.75-2.96.53-.78,1.32-1.17,2.36-1.17ZM178.16,116.15c-.48,0-.87.25-1.17.75-.31.5-.46,1.03-.46,1.58,0,.86.17,1.52.51,1.97s.73.68,1.16.68c.77,0,1.26-.33,1.48-1,.09-.32.14-.71.14-1.19,0-1.86-.55-2.79-1.65-2.79Z"/>
    <path class="cls-1" d="M187.63,114.83c.15,0,.29.05.43.15.14.1.21.22.21.34,0,.33-.48,2.11-1.44,5.34-.96,3.23-1.68,5.5-2.14,6.8-.1.31-.26.46-.48.46s-.39-.08-.51-.23c-.12-.15-.19-.38-.19-.67s.19-1,.57-2.12c.38-1.12.61-1.83.69-2.13-.28-.48-1.24-2.86-2.87-7.14-.02-.06-.03-.13-.03-.22s.07-.21.2-.36c.14-.15.32-.22.56-.22s.43.12.58.36c.16.41.42,1.12.78,2.13.36,1.01.64,1.75.84,2.2.2.45.39.92.57,1.41.16-.53.43-1.57.82-3.1.38-1.54.61-2.41.66-2.63.05-.25.29-.37.75-.37Z"/>
    <path class="cls-1" d="M191.84,114.81c.6,0,1.17.18,1.72.53.54.35.82.78.82,1.3,0,.52-.22,1.01-.66,1.5-.44.48-1.03.77-1.77.88-.32.04-.79.07-1.43.07.12.96.37,1.6.73,1.9.11.12.27.19.46.19.7,0,1.29-.22,1.77-.67.48-.45.82-.67,1.02-.67.09,0,.23.08.41.26.18.17.27.33.27.48,0,.29-.36.72-1.07,1.28-.32.26-.7.48-1.15.66-.45.18-.86.26-1.25.26-.99,0-1.71-.63-2.18-1.9-.3-.78-.44-1.64-.44-2.58,0-.94.22-1.75.66-2.43.44-.68,1.14-1.02,2.09-1.02ZM191.93,115.98c-.43,0-.8.24-1.1.73-.11.17-.22.56-.32,1.16,1.59,0,2.38-.39,2.38-1.17,0-.48-.32-.71-.95-.71Z"/>
    <path class="cls-1" d="M196.53,116.63c.4-.62.91-1.09,1.54-1.4.62-.31,1.23-.47,1.82-.47s1.06.07,1.42.21c.36.14.54.33.54.56s-.07.46-.2.7c-.13.23-.3.35-.52.35-.08,0-.3-.07-.65-.2-.36-.13-.59-.2-.69-.2-.66,0-1.22.24-1.68.72-.46.48-.7,1.12-.7,1.91,0,.79.13,1.39.38,1.78.26.39.69.59,1.32.59.25,0,.68-.15,1.28-.43.61-.29.98-.43,1.13-.43s.27.05.36.14c.09.09.14.2.14.34,0,.27-.17.56-.52.86-.35.3-.77.55-1.28.75s-.97.3-1.38.3c-.91,0-1.62-.36-2.13-1.07-.52-.71-.77-1.69-.77-2.92,0-.76.2-1.45.6-2.07Z"/>
    <path class="cls-1" d="M203.18,114.74l.85.02c.19,0,.3,0,.32-.02v-3.48c.01-.19.11-.36.29-.49.18-.14.35-.2.51-.2s.29.05.38.15c.1.1.14.26.13.48-.01.22-.02,1.39-.02,3.54l1.99-.07c.34,0,.51.2.51.6,0,.29-.09.52-.26.66-.18.15-.36.23-.56.24-.2.01-.39.02-.59.02l-1.04-.02c0,.46.05,1.38.15,2.75.1,1.37.17,2.26.23,2.66s.07.66.03.78c-.03.12-.1.2-.19.25-.15.07-.35.1-.59.1s-.4-.14-.44-.41c-.23-1.49-.38-3.53-.46-6.12-.1.01-.49.02-1.17.02s-1.02-.2-1.02-.59c0-.57.32-.85.95-.85Z"/>
    <path class="cls-1" d="M211.61,114.75c.82,0,1.49.39,2.01,1.17s.79,1.72.79,2.81-.27,2.03-.81,2.8c-.54.77-1.25,1.16-2.14,1.16s-1.61-.39-2.15-1.18c-.54-.79-.82-1.66-.82-2.63,0-1.24.25-2.22.75-2.96.53-.78,1.32-1.17,2.36-1.17ZM211.41,116.15c-.48,0-.87.25-1.17.75-.31.5-.46,1.03-.46,1.58,0,.86.17,1.52.51,1.97s.73.68,1.16.68c.77,0,1.26-.33,1.48-1,.09-.32.14-.71.14-1.19,0-1.86-.55-2.79-1.65-2.79Z"/>
    <path class="cls-1" d="M216.69,115.55c.24,0,.46.09.65.27.19.18.3.43.33.75,0,.25-.09.48-.28.69-.19.21-.4.31-.64.31s-.45-.07-.65-.2c-.19-.14-.29-.34-.29-.6s.08-.54.25-.81c.17-.27.38-.41.62-.41ZM216.92,120.75c.09,0,.2.03.34.08.08.04.17.17.26.37.1.2.14.41.14.61s-.1.39-.29.57c-.19.18-.41.26-.65.26s-.43-.09-.59-.26-.23-.4-.23-.67c0-.65.33-.97,1-.97Z"/>
    <path class="cls-1" d="M223.41,111.64l6.89-.1c.33.1.49.27.49.49,0,.57-.23.85-.7.85-.85,0-1.75.02-2.7.07-.06.97-.08,1.71-.08,2.2v.94l.07,5.97c0,.35-.09.56-.27.61-.14.04-.31.07-.51.07-.33,0-.51-.19-.54-.56-.07-.87-.1-2.5-.1-4.89,0-2.38.03-3.82.1-4.31-.24.01-.59.02-1.05.02-.46,0-1.04,0-1.73-.02-.18,0-.32-.06-.43-.17-.1-.11-.15-.25-.15-.42s.07-.33.21-.48c.14-.16.31-.25.52-.27Z"/>
    <path class="cls-1" d="M233.46,120.19l.02,1.75c0,.2-.09.39-.28.56s-.37.25-.55.25c-.26,0-.43-.2-.49-.61-.01-.09-.06-.92-.14-2.49-.08-1.57-.23-2.8-.46-3.7-.1-.43-.15-.69-.15-.77,0-.37.23-.56.68-.56.19,0,.35.07.46.22.11.15.18.3.21.45.03.15.05.36.08.62s.04.42.05.49c.24-.57.59-.99,1.07-1.28.48-.28,1-.42,1.56-.43.93,0,1.39.24,1.39.71,0,.24-.08.43-.25.57-.16.14-.35.21-.57.21-.96,0-1.64.31-2.04.92-.4.61-.59,1.63-.59,3.06Z"/>
    <path class="cls-1" d="M242.55,114.73c.5,0,.75.43.75,1.28v.29l-.03,1.19c-.01.37-.02.74-.02,1.1l.26,3.84c0,.28-.29.42-.87.42h-.25c-.13,0-.22-.05-.27-.15-.05-.1-.06-.23-.02-.37.04-.15.03-.31-.04-.49-.52.56-1.21.83-2.07.83-1.6,0-2.4-1.24-2.4-3.71,0-1.37.26-2.41.77-3.11.52-.7,1.25-1.05,2.22-1.05.45,0,.91.08,1.36.24.15-.2.35-.31.61-.31ZM240.78,116.28c-.65,0-1.13.19-1.44.56-.32.37-.48,1.06-.48,2.06,0,1.68.45,2.52,1.36,2.52.24,0,.5-.11.79-.32.29-.21.49-.46.6-.73.22-.61.32-1.28.32-2.01,0-.72-.09-1.25-.26-1.58-.18-.33-.47-.49-.89-.49Z"/>
    <path class="cls-1" d="M244.51,111.18c0-.45.28-.68.85-.68.26,0,.41.16.46.47v2.55c0,.48,0,.95.02,1.43.23-.07.52-.1.87-.1,1.1,0,1.95.37,2.55,1.11s.9,1.66.9,2.77c0,1.11-.35,2.05-1.06,2.81-.71.77-1.62,1.15-2.73,1.15-1.11,0-1.67-.31-1.67-.94,0-.63-.03-2.23-.09-4.79-.06-2.57-.09-4.49-.09-5.77ZM247.94,116.65c-.41-.32-.84-.48-1.29-.48-.25,0-.5.05-.76.14.07.93.1,2.58.1,4.95.19.07.39.1.59.1.44,0,.88-.17,1.33-.49.66-.45.99-1.15.99-2.08,0-.93-.32-1.65-.95-2.13Z"/>
    <path class="cls-1" d="M256.22,114.73c.5,0,.75.43.75,1.28v.29l-.03,1.19c-.01.37-.02.74-.02,1.1l.26,3.84c0,.28-.29.42-.87.42h-.25c-.13,0-.22-.05-.27-.15-.05-.1-.06-.23-.02-.37.04-.15.03-.31-.04-.49-.52.56-1.21.83-2.07.83-1.6,0-2.4-1.24-2.4-3.71,0-1.37.26-2.41.77-3.11.52-.7,1.25-1.05,2.22-1.05.45,0,.91.08,1.36.24.15-.21.35-.31.61-.31ZM254.45,116.28c-.65,0-1.13.19-1.44.56-.32.37-.48,1.06-.48,2.06,0,1.68.45,2.52,1.36,2.52.24,0,.5-.11.79-.32.29-.21.49-.46.6-.73.22-.61.32-1.28.32-2.01,0-.72-.09-1.25-.26-1.58-.18-.33-.47-.49-.89-.49Z"/>
    <path class="cls-1" d="M259.03,114.89c.15-.12.37-.18.66-.18s.46.14.49.42c.16,1.39.24,2.71.24,3.96,0,1.25-.04,2.5-.12,3.75s-.26,2.22-.54,2.9c-.39.89-1.08,1.34-2.09,1.34-.51,0-.95-.16-1.33-.48-.37-.32-.56-.7-.56-1.14,0-.24.08-.42.25-.54s.36-.19.56-.19.36.05.46.15c.1.1.17.22.2.34.11.33.31.49.59.49s.52-.22.71-.66c.2-.44.33-1.04.39-1.8.06-.76.09-1.56.09-2.41,0-2.66-.07-4.5-.21-5.51-.02-.18.04-.33.19-.45ZM259.38,112.01c.2,0,.4.1.58.29.18.19.27.39.27.6s-.1.42-.3.64c-.2.21-.41.32-.62.32s-.41-.09-.59-.27c-.18-.18-.26-.41-.26-.7,0-.54.29-.84.88-.88h.03Z"/>
    <path class="cls-1" d="M265.15,114.74c.82,0,1.49.39,2.01,1.17s.79,1.72.79,2.81-.27,2.03-.81,2.8c-.54.77-1.25,1.16-2.14,1.16s-1.61-.39-2.15-1.18c-.54-.79-.82-1.66-.82-2.63,0-1.24.25-2.22.75-2.96.53-.78,1.32-1.17,2.36-1.17ZM264.94,116.14c-.48,0-.87.25-1.17.75-.31.5-.46,1.03-.46,1.58,0,.86.17,1.52.51,1.97s.73.68,1.16.68c.77,0,1.26-.33,1.48-1,.09-.32.14-.71.14-1.19,0-1.86-.55-2.79-1.65-2.79Z"/>
    <path class="cls-1" d="M277.88,111.37c.54,0,1.09.14,1.62.41.54.27.81.58.81.92,0,.52-.22.78-.65.78-.16,0-.44-.1-.83-.31-.4-.2-.73-.31-1-.31-.97,0-1.79.44-2.44,1.31-.65.87-.98,1.98-.98,3.33,0,1.01.22,1.89.66,2.65.44.76.97,1.14,1.57,1.14.61,0,1.08-.2,1.43-.6.35-.4.52-.86.52-1.37,0-.28-.02-.52-.06-.71-.04-.19-.14-.36-.3-.51-.16-.15-.37-.23-.63-.23s-.51-.06-.74-.17-.35-.27-.35-.46.06-.37.17-.54.27-.27.46-.31c.77,0,1.29.08,1.56.24.27.16.47.29.6.39s.25.27.34.51c.09.24.16.44.21.59.05.16.09.41.11.77.02.59.03,1.28.03,2.07,0,.79-.06,1.27-.17,1.45-.1.15-.27.22-.51.23-.24,0-.4-.04-.49-.14-.09-.1-.15-.33-.17-.68-.27.24-.61.44-1.03.6-.41.16-.78.25-1.1.25-1,0-1.84-.53-2.52-1.59-.68-1.06-1.02-2.34-1.02-3.83,0-.79.13-1.57.39-2.34.26-.77.61-1.41,1.05-1.93.93-1.08,2.07-1.62,3.43-1.62Z"/>
    <path class="cls-1" d="M283.25,120.18l.02,1.75c0,.2-.09.39-.28.56s-.37.25-.55.25c-.26,0-.43-.2-.49-.61-.01-.09-.06-.92-.14-2.49-.08-1.57-.23-2.8-.46-3.7-.1-.43-.15-.69-.15-.77,0-.37.23-.56.68-.56.19,0,.35.07.46.22.11.15.18.3.21.45.03.15.05.36.08.62s.04.42.05.49c.24-.57.59-.99,1.07-1.28.48-.28,1-.42,1.56-.42.93,0,1.39.24,1.39.71,0,.24-.08.43-.25.57s-.35.21-.57.21c-.96,0-1.64.31-2.04.92-.4.61-.59,1.63-.59,3.06Z"/>
    <path class="cls-1" d="M287.86,114.9c.15-.13.3-.2.45-.2s.27.03.36.08.14.11.15.15c.02.04.04.12.06.24-.07.88-.1,1.68-.1,2.39,0,.71.09,1.52.26,2.43.17.91.36,1.37.56,1.37.31,0,.69-.17,1.16-.51.47-.34.81-.7,1.01-1.07-.14-1.63-.2-3.03-.2-4.2,0-.24.08-.44.23-.61.15-.17.34-.26.55-.26.35,0,.53.24.53.71,0,.8.06,2,.18,3.59.12,1.59.24,2.59.37,3.03.02.09.03.2.03.31s-.08.23-.23.34c-.15.11-.35.16-.59.16s-.41-.14-.48-.41c-.02-.23-.08-.57-.17-1.02-.79.83-1.59,1.24-2.4,1.24-.37,0-.71-.14-1-.42-.3-.28-.53-.67-.7-1.16-.3-.94-.44-1.82-.44-2.65s.04-1.85.14-3.06c.05-.19.14-.35.29-.48Z"/>
    <path class="cls-1" d="M297.09,122.64c-.39,0-.74-.13-1.07-.39l-.22-.19v5.1c-.07.23-.19.42-.36.57-.17.15-.35.23-.54.23-.29,0-.44-.2-.44-.59v-11.85c.07-.29.15-.5.24-.63.1-.12.25-.19.46-.19s.35.05.41.14c.06.1.14.36.23.79.05-.23.23-.44.54-.63.32-.19.74-.29,1.27-.29,1.16,0,1.98.42,2.47,1.26.49.84.73,1.83.73,2.97,0,1.14-.33,2.04-.99,2.7-.66.66-1.57,1-2.73,1ZM295.8,117.54v3.16c.07.03.15.09.24.17.33.29.69.44,1.07.44,1.56,0,2.35-.8,2.35-2.41,0-1.37-.35-2.24-1.05-2.6-.29-.16-.66-.24-1.09-.24-.42.06-.78.24-1.07.55-.29.31-.44.62-.44.93Z"/>
    <path class="cls-1" d="M306.42,114.72c.5,0,.75.42.75,1.27v.29l-.03,1.19c-.01.37-.02.74-.02,1.1l.26,3.84c0,.28-.29.43-.87.43h-.25c-.13,0-.22-.05-.27-.15-.05-.1-.06-.23-.02-.37.04-.15.03-.31-.04-.49-.52.56-1.21.83-2.07.83-1.6,0-2.4-1.23-2.4-3.71,0-1.37.26-2.41.77-3.11.52-.7,1.25-1.05,2.22-1.05.45,0,.91.08,1.36.24.15-.2.35-.31.61-.31ZM304.65,116.27c-.65,0-1.13.19-1.44.56-.32.37-.48,1.06-.48,2.06,0,1.68.45,2.52,1.36,2.52.24,0,.5-.11.79-.32.29-.21.49-.46.6-.73.22-.61.32-1.28.32-2.01,0-.72-.09-1.25-.26-1.58-.18-.33-.47-.49-.89-.49Z"/>
    <path class="cls-1" d="M308.3,111.65c.03-.42.1-.7.2-.83.11-.13.28-.2.52-.2.49,0,.73.2.73.59,0,.31-.03,1.11-.08,2.4-.05,1.29-.08,2.45-.08,3.47,0,1.02.04,1.84.12,2.46.14,1.09.33,1.63.58,1.63s.44-.18.56-.53c.06-.14.15-.26.27-.37.12-.11.28-.16.48-.16.4,0,.59.33.6,1,0,.36-.2.72-.59,1.08-.39.36-.78.54-1.16.54s-.69-.07-.93-.2c-.23-.13-.42-.33-.56-.59s-.26-.51-.34-.76c-.08-.24-.14-.54-.18-.89-.07-.57-.12-1.48-.15-2.73-.03-1.25-.04-2.45-.04-3.59,0-1.14.01-1.92.04-2.35Z"/>
  </g>
</svg>