<svg id="Capa_1" data-name="Capa 1" xmlns="http://www.w3.org/2000/svg" viewBox="0 0 97.16 98.32"><defs><style>.cls-1{fill:#b7d164;}</style></defs><path class="cls-1" d="M75.23,19.55c-1.21-5.23-8.65-7.08-13.06-4S56.37,24.7,57.41,30a12.94,12.94,0,0,0,3,6.39c3.85,4.15,11.34,3.65,15-.63s3.44-11.24-.12-15.64"/><path class="cls-1" d="M76.06,19.48c-.12.05-.32.24-.21.29l.42-.23Z"/><path class="cls-1" d="M75.8,20.61a1.75,1.75,0,0,0,1-.46,7.56,7.56,0,0,0-.84.22c-.11-.05,0-.24.16-.33-.12,0,0-.21-.29-.07-.21.34-.12.48.24.46A.91.91,0,0,1,75.8,20.61Z"/><path class="cls-1" d="M77.24,30.34l.06-.05A.1.1,0,0,0,77.24,30.34Z"/><path class="cls-1" d="M74.41,35.44a.08.08,0,0,0,0-.11C74.38,35.38,74.38,35.42,74.41,35.44Z"/><path class="cls-1" d="M73.36,35.7h.06S73.35,35.66,73.36,35.7Z"/><path class="cls-1" d="M77.24,30.34l-.18.13C77.21,30.51,77.19,30.41,77.24,30.34Z"/><path class="cls-1" d="M77.58,21.26a.38.38,0,0,0-.16,0l.09.06Z"/><path class="cls-1" d="M77,27.7v-.05l-.19,0Z"/><path class="cls-1" d="M76.73,25.74a2.2,2.2,0,0,0,.57,0,.5.5,0,0,1-.3,0Z"/><path class="cls-1" d="M76.35,22.47l-.08,0Z"/><path class="cls-1" d="M76.92,29.11h0Z"/><path class="cls-1" d="M75.71,16.18l-.06,0S75.72,16.2,75.71,16.18Z"/><polygon class="cls-1" points="75.13 19.57 75.1 19.55 74.87 19.59 75.13 19.57"/><path class="cls-1" d="M71.7,36.18h0C71.72,36.12,71.71,36.14,71.7,36.18Z"/><path class="cls-1" d="M59.51,31.42c-.29.29-.54-.16-.84.24C58.82,31.59,59.35,31.71,59.51,31.42Z"/><path class="cls-1" d="M77.56,21.34l0,.08A.12.12,0,0,0,77.56,21.34Z"/><path class="cls-1" d="M58.67,31.66h0l0,0Z"/><path class="cls-1" d="M68.1,37.45a.69.69,0,0,0,.05.17A.37.37,0,0,0,68.1,37.45Z"/><path class="cls-1" d="M71.13,37.34l-.09,0A.18.18,0,0,0,71.13,37.34Z"/><path class="cls-1" d="M66.55,38s0-.09-.11,0l0,.06C66.48,38,66.51,37.94,66.55,38Z"/><path class="cls-1" d="M64.93,37.73v.09h0Z"/><path class="cls-1" d="M69.93,12.69a1.6,1.6,0,0,1,0,.38C70,12.78,70.31,12.75,69.93,12.69Z"/><path class="cls-1" d="M77.38,21.37q.14-.06.18,0l0-.05A.26.26,0,0,0,77.38,21.37Z"/><path class="cls-1" d="M66.19,41.18l-.34-.09A1.05,1.05,0,0,0,66.19,41.18Z"/><path class="cls-1" d="M57.11,19V19S57.08,19,57.11,19Z"/><path class="cls-1" d="M64.81,41a.76.76,0,0,0-.13-.31.44.44,0,0,0-.06.1Z"/><path class="cls-1" d="M69.94,13.07Z"/><path class="cls-1" d="M72.44,13c-.31-.16-.37.4-.57.65-.41,0,0-.44,0-.74-.29,0-.65.41-.81.33,0-.08,0-.13.07-.22-.38.32-.74-.25-1.17.22a.33.33,0,0,1,0-.14,3.28,3.28,0,0,1-.14.72c-.13,0-.32.27-.29-.08.08,0,.12-.11.18-.2l-.17.11c0-.52.23-.12.32-.48-.33.09-.72.41-.9.25,0-.5.52-.07.32-.55l.3.26c-.1-.82.19.1.13-.77-.45-.25-.57.14-1-.06-.14.26,0,.4-.15.66-.67.4-.41-1.29-1-.65-.14.32-.19.93-.52.6l.11-.55c-.46-.06-.23.79-.71.45.07-.23.34-.21.27-.27-.33-.42-.2.33-.42.34l-.09-.48c-.49.1-.95.56-1.43.74,0-.15,0-.32-.11-.44a4.26,4.26,0,0,1-2.16.37l0,.49c-.06,0-.19-.13-.17-.23-.31,0,.11.25.07.45s-.28-.12-.26-.28c-.26.56-.69,1.31-1.31,1.25v-.16c-.4.1.21.91-.27.83v-.1c-.71.37-1,1.24-1.84,1.29.41.46-.68.46,0,1-.6.11-.64-.07-1.22.31-.12.13.32.48.3.7l-.39-.21.29.46-.54-.11V19a.39.39,0,0,1,.36,0c0,.34-.6.5-.8.43l.07.79c-.16-.08-.17-.21-.24-.34.27.52-.46-.11-.21.37.11,0,.24.12.32.16-.31.06-.44.44-.43.74L55.9,21a7.83,7.83,0,0,0-.31,1.68c.18-.18.69,0,.71.16l-.47,0c.26.17.2-.13.51.16-.09.19-.55,0-.68-.12l.11.29c-.14,0-.2-.09-.37-.14.27.16-.55.38-.08.62h-.14a8.32,8.32,0,0,0,0,1.34c.4,0,.3.22.62.38-.16.33-.5.7-.46,1.11.2.29.34.09.58.22-.37,0-.34.43-.6.22a2.68,2.68,0,0,0,.43,1.23c.14-.08.21-.16.33-.13s-.13.26-.31.26l0,0c.32.32.08.73-.1,1.15s-.33.84.1,1l0,0,.51.48c0,.27-.3-.09-.48.15.74.46.16,1,.71,1.37-.92.74.54,1.33.15,2.1l.22-.14c.29,0-.06.23-.07.35.17-.1.14-.24.31-.22.79.94.91,2.41,1.73,3.6.33.41,1.13-.75,1.15.12l-.44.23a3.59,3.59,0,0,1,1.35.73,2.41,2.41,0,0,0,1.37.56c-.1.08-.16.21-.25.16,0,.41.69.32.79.06.13.09-.06.25,0,.42s.62-.21.61.13c0,.06-.09.09-.14.1.18-.11.58.23.58-.19.28.28.68,0,.9.3.27-.4.55.33.71-.28-.14.65.53.62.78.32-.1.19.17.22.06.48.25,0,.49-.08.47-.42.44.8.9-.62,1.18.38.73-.39,1.36-.69,2-1,.1.65-.69.2-.56.87.59-.4.82-1,1.43-1,.18,0,0,.3,0,.42.53-.42,1.19-.29,1.57-.84a.33.33,0,0,1,0,.21c.09-.06.27,0,.15-.28l-.07.12c-.32-.34,0-1,0-1.19.19.85.55,0,.76,1.05a.44.44,0,0,0,0-.42c.12,0,.21.09.21.34.28-.33,0-.54.32-.69.06.12,0,.2.08.37,0-.32,0-.66.33-.71,0,.08.12.15.05.2.41-.32.29-1.06.86-1.2.26.59.27,0,.64.43l.13-.31-.27-.12c.22-.15.09-.62.37-.64l0,.29.27-.42-.34.06c0-.38-.5-.46-.17-.58,0,.08.18-.17.5-.06h0c-.06-.21-.12-.42.09-.47s.44.39.55.44c-.28-.38.28-.55,0-.95a1,1,0,0,0,.35.29l-.25-.3c.16,0,.22,0,.39.13.25-.26-.62-.28-.16-.47,0,0,.06.06.07.15.37-.27.22-.8.54-1,.53.14,0,.36.43.45.19-.56-.1-1.32.2-1.77L78,32.6c-.69-.32.5-.25.22-.62a.78.78,0,0,0,.31.16c.21-.32,0-.78-.1-1.36l.18.11c.21-.18.21-.54.33-.76-.19-.1-.14-.22-.43-.18a.62.62,0,0,0,.33-1c-.16-.35-.35-.65.12-1,0,.08.17.18.17.12a4.81,4.81,0,0,0-.2-.53c-.33.05-.19.08-.45.19-.2-.06-.36-.19-.36-.32.23.22.53,0,.71-.14-.1,0-.22,0-.32,0,.57-.32-.67,0-.29-.4h.17c-.09-.13-.35-.23-.32-.38.38-.11.2.12.52.1-.05-.22-.78-.32-.43-.56.12.07.14.2.26.27.42-.27.3-.28.35-.45v0a3.17,3.17,0,0,0,.14-.4l-.1.12c-1-.08-.29-.51-1-.71.68.19.36,0,.79-.1.1-.12.2-.3.33-.29-.38-.08.18-.36-.38-.46.13-.05,0-.18.3-.25-.17-.19-.21.13-.39.16-.54-.18.3-1-.51-1.22-.41-.3-.88-.17-1.26-.41.14-.21.51-.12.51-.12a.37.37,0,0,0-.25-.52c.13,0,.2-.11.31-.24-.11-.13-.5.15-.43-.13a2.73,2.73,0,0,1,.58-.14c-.22-.1-.54-.14-.75-.24.18-.17.37-.09.55-.11-.22-.14-.5-.39-.86-.23l0,.19c0-.05.26-.21.35-.2.36,0,0,.31-.08.39L76.44,21c-.63.56.4.4.5.68l-.58.19a5.37,5.37,0,0,1,.57,0c-.11.12-.39.31-.53.24-.18.3.27.05,0,.35a.09.09,0,0,1-.09,0l.24.08c-.13,0-.37.22-.34.08-.17.43.64.28.27.58h0c.35.35.41-.13,1,0l-.92.6L77,23.7c0,.05,0,.15-.17.19.35.07.17-.09.47-.09-.31.35.37.56-.28.81.34,0,.18-.28.47-.11-.71.27.22.23-.07.53-.4,0-.24-.2-.53.08.66,0-.05.42.1.55.52-.1.3.32.5.58-.18,0-.2.58-.37.86H77c.53,0,.45.29.57.49a1,1,0,0,1-.59-.12v.18a.44.44,0,0,1,.34.21l-.4,0c0,.24.46.5.19.81.37,0,1-.24,1.27.14-.2,0-.54,0-.62-.09s.16.11.08.17l-.33-.16c-.15.14.27.09.24.21-.28,0-.2.08-.43.05,0,0,.12-.1,0-.15a.6.6,0,0,1-.46.31c.17,0,.38,0,.41.13,0,.25-.35.05-.51.18.19.08,0,.21.39.26,0,.08-.2.06-.32.07.19.16,0,.59.42.53l0,0v0h0c.35.52-.4.83-.35,1.27l-.14-.05c.1.3-.07.56.15.84,0,.07-.31.07-.46,0,0,.21.18.3-.14.46-.16-.27-.22,0-.1-.25-.19.18-.43.12-.19.52-.29-.23-.5,0-.45.11l.31,0a.5.5,0,0,1-.17.31l-.39-.28c-.35.07-.26.35-.2.63s.09.54-.42.38c.19.3.35-.06.6.25-.2.15-.88-.09-.92,0-.39.05.39.68,0,.78.15.09.53.36.47.65-.22.14-.72-.29-.72-.49,0,0,.09,0,.13,0a.24.24,0,0,0-.18-.28l.1.14c-.2,0-.39.18-.54-.07,0,.23.15.25.3.22-.36,0-.32.3-.65.35.1,0,.26.17.22.2-.46.1.06.37-.13.62-.28-.11-.31-.53-.43-.19-.25,0-.29-.35-.31-.5,0,.41-.51.07-.65.09l0-.18a.21.21,0,0,1-.12.17l.23.26c-.09,0-.15,0-.22-.1,0,.23.35.46.35.8-.18-.1-.21.32-.46-.06.38,0-.24-.39,0-.58,0,.07-.08.1-.18.08a.14.14,0,0,1,0-.12c-.45-.22.11.52-.19.66-.07-.25-.27-.4-.3-.33.12,0,.24.36.2.59-.28-.11-.16.22-.28.24l.16,0c0,.25-.07.26-.19.4-.08-.18.09-.18,0-.25,0,.49-.52-.28-.65.06-.16-.13-.16-.45-.28-.54-.15.39-.35-.26-.53.08.15.31.15.23,0,.59a4,4,0,0,0,.37-.35l-.15.57c.14,0,.23-.3.32-.26-.06.31-.07.22.08.48-.33-.45-.31.41-.62.11l-.18-.84c-.38-.32-.48.57-.94.39l.15.13c0,.34-.26.07-.39.22a1.11,1.11,0,0,0-.18-.55c0,.21-.3,0-.31.58l-.21-.38c-.33-.15-.39.82-.75.71.12-.3,0-.5.21-.72-.11,0-.21-.07-.22.13-.05-.18-.33.35-.41.08-.06.12-.11.41-.24.37a.7.7,0,0,1,0-.13c0,.13-.23.17-.15.49-.23-.92-1-.11-1.15-.93a3.42,3.42,0,0,1-.79,0c0-.08,0-.14.08-.1-.19-.35-.47.69-.7.28,0-.5.27-.16.23-.36.33-.89-.45,0-.41-.64l.07,0c0-.36-.52.11-.75-.09a.58.58,0,0,0,.08-.12,1.24,1.24,0,0,1-1.15.12c.3-.23.23-.07.41-.4-.13,0-.33.5-.61.42a1.61,1.61,0,0,1,.28-.78l.18.14c.25-.47-.22-.19-.25-.34l.16-.15c-.28-.19-.72.23-1-.11l-.1.15c-.57.19.12-.34-.34-.25l.4-.41a2.53,2.53,0,0,1-1-.23,4.91,4.91,0,0,1,1.08,0,.52.52,0,0,0-.57-.24c.07,0,.23,0,.19.09-.46.12-.79,0-.93-.22,1-.52-.15-.8.53-1.38-.58-.26-.24-.94-.48-1.44-.74.47-.08-.15-.9.16-.1-.11-.1-.17,0-.2.12-.19.25-.37.38-.55s.22.07.41,0c0-.3.32-.23.5-.47-.3.12-.46,0-.39-.17l-.33.33c-.56-.28.62-.52.08-.81l.3.07c-.21-.17-.15-.75-.87-.84.09-.06.32-.14.4-.06,0-.5-.9-1-.5-1.48l.22,0c-.07-.09-.41-.14-.2-.27s.21,0,.22,0-.39-.23-.27-.36l.25.1c.26-.5-.59-.76-.74-1.2a1,1,0,0,0,1-.54l.09,0c.12-.55-.43-1-.58-1.6.73-.2.52-1,1-1.43a.62.62,0,0,1-.5-.27c.16-.08-.3-.47.24-.26l0,0c.58.09.5-.19.59-.36l-.69-.31c.62,0,.63-.38.67-.7s.05-.64.54-.52c-.1-.19,0-.32-.11-.52l.34.22a1.68,1.68,0,0,0,.55-.71l.19.24c.15-.15-.77-.95-.64-1.14l.51.34c.27-.32.9-.24.82-.89,0,.07.16.21.13.27.15-.13.79-.15.22-.75.35.42.36-.21.41-.54l.2.34c-.14-.51-.21-.63-.06-.89.08,0,.21.25.09.2.28.08-.05-.41.27-.36l0,.28c.2-.09.13-.18.1-.5s.44-.08.6.24c-.06-.21-.06-.54.1-.49a.41.41,0,0,1,0,.27c.42.15.38-.61.73-.3a.57.57,0,0,0,.1.21,1.15,1.15,0,0,1-.48.09c.12.35.33.35.33.89.06-.3.19-1,.45-.87a1.34,1.34,0,0,1,.06.12l0,.05c.06,0,.1,0,.13-.08s.12.08.19.07c.08.3.26.12.37.12-.06-.4.1-.35-.08-.67,0,0,0,.05-.09.08s0,0,0,.05v0l-.27.08c0-.22.12-.4.28-.21a5.59,5.59,0,0,1,.08-.67c.24.55.56.83.62,1.17.32-.27.78-.15,1-.91.11-.1.1.22.13.34s-.13.06-.17.17c.22-.21.59,0,.71-.54.23.27-.21.47.16.43l-.07.15c.27.44.57.2.94,0s.76-.37.94.25a.33.33,0,0,1,0-.2,2.75,2.75,0,0,0,1.21.62,2.05,2.05,0,0,1,.6.33,1.12,1.12,0,0,1,.32.64c.09.26.31,0,.6,0l-.27.34.54-.16c.27,0,.19.31.09.59s-.15.5.27.49l.22-.2c.06.15.39.38.09.51,0,0,.3-.09.19,0l-.2.1a3.89,3.89,0,0,1,.53.21c-.06.35-.86.29-.78.68a1.55,1.55,0,0,0,.91.16c0-.06.08-.2.3-.27l.17.14c.65-.14,1.38-.11,1.67-.75l-.5-.23.27-.22.12.3c.23-.27-.06-.3-.27-.35a.57.57,0,0,0,.28-.28,5.78,5.78,0,0,0-.74-.08c.22-.15.55-.06.57-.35-.34,0-.46.39-.76.22.2-.28.44-.35.12-.42a.34.34,0,0,1,.36-.07c-.27-.07-.3-.42-.66-.3.21-.35-.43-.44.09-.8a1.11,1.11,0,0,1-.7-.08c.79-.26-.39-.48.26-1-.65.29-.81-.4-1.38-.34,0,0,.16-.09.16,0-.14-.18-.06-.39-.1-.58-.36.42-.71.33-1.06.53.08-.59.5-.47.72-.94-.24.38-.65.13-.77.5a1.23,1.23,0,0,1,.08-.69c-.38.6-.23,0-.59.3-.1-.43.23-.62-.16-.57C72.06,13.07,72.44,13,72.44,13Zm-7.64.27h0l.15-.05Zm-.59.17.26-.06c.06.13.07.27,0,.28S64.33,13.49,64.21,13.41Zm1.71,2.48c-.06.07-.1,0-.12-.08a.59.59,0,0,0,.11-.08v-.05A1.62,1.62,0,0,1,65.92,15.89Z"/><path class="cls-1" d="M66,15.34s0,0,0,0l-.06-.08v.13Z"/><path class="cls-1" d="M77.31,30.28h0l.06,0Z"/><polygon class="cls-1" points="57.25 18.33 57.34 18.38 57.29 18.29 57.25 18.33"/><path class="cls-1" d="M78.86,27.32l.1-.05A.19.19,0,0,0,78.86,27.32Z"/><path class="cls-1" d="M78.8,25.92l.11-.22A.62.62,0,0,0,78.8,25.92Z"/><path class="cls-1" d="M78.78,24.83l-.17,0h0Z"/><path class="cls-1" d="M72.2,39.83l0,0C72.1,40,72.15,39.92,72.2,39.83Z"/><path class="cls-1" d="M75.94,36.07a.77.77,0,0,1,0,.25C76.06,36.27,76.11,36.22,75.94,36.07Z"/><polygon class="cls-1" points="66.22 41.19 66.23 41.18 66.19 41.18 66.22 41.19"/><path class="cls-1" d="M75.8,36.49c.12,0,.17-.08.17-.17S75.81,36.39,75.8,36.49Z"/><path class="cls-1" d="M77.1,20.39l0-.05,0,0Z"/><path class="cls-1" d="M77,20.37l-.07,0S77,20.39,77,20.37Z"/><path class="cls-1" d="M76.8,20.3l.16.05S76.92,20.26,76.8,20.3Z"/><path class="cls-1" d="M77.66,21.75l.14-.05Z"/><path class="cls-1" d="M77.89,22.13c0-.11.17-.37,0-.47l-.11,0C78,21.67,77.62,22.15,77.89,22.13Z"/><path class="cls-1" d="M76.82,24.39l0-.35c-.13.11-.31.24-.39.12C76.12,24.68,76.76,24,76.82,24.39Z"/><path class="cls-1" d="M76.86,25.4c-.11-.15-.22.05-.31.06C76.71,25.53,76.75,25.55,76.86,25.4Z"/><path class="cls-1" d="M76.41,32.32l-.34-.15C76.07,32.31,76.2,32.23,76.41,32.32Z"/><polygon class="cls-1" points="77.51 34.46 77.78 34.43 77.51 34.21 77.51 34.46"/><polygon class="cls-1" points="74.84 33.79 74.82 33.72 74.83 33.96 74.84 33.79"/><path class="cls-1" d="M65.29,37.46l-.06.45C65.33,37.84,65.46,37.35,65.29,37.46Z"/><path class="cls-1" d="M61,35.51c.13-.2.16-.38-.07-.31C61,35.31,61,35.5,61,35.51Z"/><polygon class="cls-1" points="59.89 21.23 59.99 21.38 59.95 21.16 59.89 21.23"/><path class="cls-1" d="M49.34,84.27c2-12-2.21-24.42,4.06-32.8S69.2,39,77,44c9.57,6.1,13.48,22.82,14.5,37.92-16.7,0-25.76.46-42.46.49"/><path class="cls-1" d="M49,81c-.07.19,0,.6.18.51l.15-.69Z"/><path class="cls-1" d="M50.46,82.3a1.93,1.93,0,0,0,.37-1.57c-.24.67-.3.39-.56,1.19-.21.08-.37-.23-.34-.48-.07.18-.32-.15-.44.28.28.54.63.56,1,.12C50.56,82,50.48,82.17,50.46,82.3Z"/><path class="cls-1" d="M71.07,83.14l-.13-.08A.26.26,0,0,0,71.07,83.14Z"/><path class="cls-1" d="M83.83,83.34a.14.14,0,0,0-.14.15C83.78,83.44,83.85,83.4,83.83,83.34Z"/><path class="cls-1" d="M86,84.09a.43.43,0,0,0-.13,0C85.93,84.1,86,84.14,86,84.09Z"/><path class="cls-1" d="M71.07,83.14l.35.21C71.44,83.12,71.24,83.19,71.07,83.14Z"/><path class="cls-1" d="M53.29,80.61a.44.44,0,0,0-.18.18l.17-.07Z"/><path class="cls-1" d="M65.46,83.8h-.11c0,.08,0,.18-.08.29Z"/><path class="cls-1" d="M61.14,84c.1,0,.12-.57.16-.82-.06.24-.13.36-.21.4A1.75,1.75,0,0,0,61.14,84Z"/><path class="cls-1" d="M54.28,83l-.13.08Z"/><path class="cls-1" d="M68.55,83.88c0,.08,0,.16,0,.21A.46.46,0,0,0,68.55,83.88Z"/><path class="cls-1" d="M52.62,79.43h-.11C52.57,79.46,52.61,79.47,52.62,79.43Z"/><path class="cls-1" d="M49.19,84.24l0-.07-.32-.07Z"/><path class="cls-1" d="M91.81,84.81h0C91.62,84.87,91.72,84.85,91.81,84.81Z"/><path class="cls-1" d="M83.88,47.16c-.16.68-1-.16-1,.73C83,47.7,83.93,47.83,83.88,47.16Z"/><path class="cls-1" d="M53.41,80.68a1,1,0,0,1,.17,0A.24.24,0,0,0,53.41,80.68Z"/><path class="cls-1" d="M82.85,47.89h0v0Z"/><path class="cls-1" d="M93.25,74a.78.78,0,0,0-.24.13A.57.57,0,0,0,93.25,74Z"/><path class="cls-1" d="M93.24,82.4l.07-.2A.32.32,0,0,0,93.24,82.4Z"/><path class="cls-1" d="M91.88,70.52c0-.1.11-.14,0-.26l-.07,0C91.91,70.34,92,70.4,91.88,70.52Z"/><path class="cls-1" d="M91.17,66.82l-.11.09.06.11Z"/><path class="cls-1" d="M52.28,68a2.07,2.07,0,0,1-.53.18C52.17,68.13,52.32,68.66,52.28,68Z"/><path class="cls-1" d="M53.3,80.94c0-.15.05-.22.11-.26l-.13,0A.38.38,0,0,0,53.3,80.94Z"/><path class="cls-1" d="M87.26,71.16l0-.57A1.86,1.86,0,0,0,87.26,71.16Z"/><path class="cls-1" d="M61.34,47.07l-.05.13S61.36,47.15,61.34,47.07Z"/><path class="cls-1" d="M86.84,69a1.08,1.08,0,0,0,.34-.4.65.65,0,0,0-.16,0Z"/><path class="cls-1" d="M51.74,68.19h0Z"/><path class="cls-1" d="M53.24,72c0-.57-.77-.25-1.22-.36-.24-.67.56-.32,1-.56-.22-.42-.94-.72-.92-1,.13,0,.17-.08.34,0-.63-.42-.07-1.3-.85-1.79a.56.56,0,0,1,.19-.07,4.26,4.26,0,0,1-1.07.1c0-.25-.49-.46,0-.56,0,.15.2.16.36.23l-.23-.25c.73-.25.26.35.8.34-.24-.5-.86-1.09-.65-1.48.71-.08.25.91.88.39l-.27.6c1.12-.47-.07.36,1.13-.07.2-.78-.38-.88-.16-1.65-.4-.17-.59.06-1-.12-.69-1.12,1.8-.84.88-1.65-.47-.22-1.37-.34-.86-.89l.8.24c.12-.72-1.16-.5-.55-1.23.3.16.22.59.33.49.67-.45-.43-.38-.39-.76l.72,0a6.26,6.26,0,0,0-.26-1.24A6.26,6.26,0,0,1,52,59.37c.21.08.4.26.65.11A2.49,2.49,0,0,1,53,57.9a4.54,4.54,0,0,1,1-1.29l-.46-.56c0-.08.32,0,.4.08.34-.26-.36-.16-.53-.42,0-.23.45-.12.56.07a3.54,3.54,0,0,1-.06-1.43,1.2,1.2,0,0,1,.86-1l.08.22c.51-.29-.73-1.25.09-1.34l0,.15c1-.85,1.5-2.3,2.85-2.33-.49-.76,1.16-.57.37-1.54,1,0,1,.29,2,0,.23-.13-.18-.86,0-1.16l.4.51,0-.8.65.49.15-.32a.51.51,0,0,1-.47-.25c.22-.55,1.23-.25,1.4,0a11.56,11.56,0,0,1,.69-1c.1.24,0,.39-.07.62.2-.86.42.55.6-.22-.13-.1-.14-.37-.19-.49.42.24.94-.06,1.3-.35l.09.44a5.23,5.23,0,0,0,1.12-.49A6.21,6.21,0,0,1,67,45c-.35-.13-.48-.91-.23-1l.26.65c.08-.44-.33-.2-.09-.77.36,0,.37.72.24,1l.34-.31c.06.2,0,.32,0,.58.09-.44.74.53.86-.19l.05.2a3.74,3.74,0,0,0,1-.2,4.56,4.56,0,0,1,.88-.12c0-.58.31-.46.56-.91a7.42,7.42,0,0,0,1.59.91c.49-.17.25-.45.54-.74-.11.53.5.64.07.93.37,0,.58.15.85.18s.6,0,1.12.06c0-.24-.06-.39.08-.52s.26.4.11.62l-.06,0a1,1,0,0,1,.82.33,4.14,4.14,0,0,1,.5.93,2.89,2.89,0,0,0,.46.82.72.72,0,0,0,.74.28h-.07l1.08.21c.25.36-.47.11-.48.56a1.18,1.18,0,0,1,1.11.71,1.42,1.42,0,0,0,.85.81c-.43.76-.09,1.2.35,1.64s.89.93.69,1.55l.3-.23c.43,0,0,.35,0,.54.24-.17.16-.39.41-.37a6,6,0,0,1,1.29,2.79L83.64,59c.16.74,2-.26,1.46,1l-.75,0c1.29,1.2,1,3,2,4.3-.18-.05-.38,0-.42-.14-.41.44.28,1.16.68,1.07,0,.24-.34.14-.51.33-.21.38.81.65.36.93-.07,0-.18,0-.23-.1.28.15.16,1,.68.65-.15.63.51,1,.25,1.55.7.17-.12,1,.8,1-.94.14-.56,1.14,0,1.42-.31-.07-.25.37-.66.3.07.41.31.76.78.61-1,.94,1.16,1.4-.23,2a16.07,16.07,0,0,1,1.51,3.39c-1,.06-.22-1.24-1.22-1.07A12.9,12.9,0,0,0,89,77.48a2.61,2.61,0,0,1,.32.62,1.11,1.11,0,0,1,.07.31.39.39,0,0,1,0,.18c-.12.11-.42-.09-.59-.1A.6.6,0,0,1,89,79c0,.17,0,.3.32.72a3.83,3.83,0,0,1-.28-.29c0,.09-.14,0,.33.41l-.13-.18a3.84,3.84,0,0,1,1,1l.23.32.08.19a1.13,1.13,0,0,0,.16.31c-1-1.24-.94-.31-2-1.87a2.08,2.08,0,0,0,.37.57,1.28,1.28,0,0,1-.47-.58c-.06.24.29.7,0,.69-.09-.21-.07-.29-.17-.54.11.41,0,.82-.31.64,0-.12-.06-.29,0-.28-.1,0-.18.09-.29.19l-.57.33a1.48,1.48,0,0,1-1.3.18c.29-.91-.34-.3-.4-1.08L85,80l.22.38c-.47,0-.88.56-1.28.31l.34-.33-.87.16.5.29c-.47.41.06,1-.56.78.12-.08-.47,0-.72-.46h0c-.23.25-.46.52-.81.32-.09-.25.07-.87,0-1-.22.66-1.1.19-1.38.9a1.26,1.26,0,0,0,.07-.67l-.19.54c-.22-.17-.25-.25-.22-.58-.65-.09.22,1-.56.58.06,0,0-.13.16-.21-.78-.21-1.49.36-2.21.11-.22-.79.62-.21.37-.87-1,.16-2.11,1-3.11.81l.19.08c-.12,1.12-.75-.53-1.24,0,.12-.08.15-.62.12-.5-.69-.17-1.39.3-2.41.67l.12-.29c-.41-.25-1.06-.13-1.49-.25-.13.29-.37.25-.22.66-1.36-1.61-2.53.92-3.73-.42.14,0,.33-.26.22-.26l-1,.29c.09.48.14.29.36.66a.84.84,0,0,1-.65.53c.44-.33,0-.78-.22-1,0,.15,0,.31,0,.46-.54-.86-.07,1-.8.41l0-.26c-.26.14-.51.48-.8.41-.13-.56.28-.26.3-.73-.41,0-.79,1.08-1.17.53.17-.16.42-.17.59-.33-.41-.65-.45-.49-.75-.59l0,0-.69-.29.18.18c-.49,1.47-1,.28-1.71,1.25.66-.92.1-.53.15-1.17-.18-.17-.45-.37-.38-.55-.31.52-.54-.4-1,.36,0-.21-.35,0-.28-.53-.42.16.1.35.07.61-.64.71-1.53-.83-2.46.14-.8.4-1,1.1-1.69,1.45-.26-.33.2-.75.2-.75a.85.85,0,0,0-1.1,0c.08-.18,0-.33-.12-.56-.31.06-.21.75-.61.45a3.08,3.08,0,0,1,.3-.83c-.36.19-.72.58-1.09.77-.11-.36.22-.55.35-.78-.42.16-1.09.33-1.22.89l.27.2c-.15,0-.08-.48,0-.59.36-.44.53.2.55.41l-.27.13c.28,1.2,1.08-.2,1.62-.13l-.22.87.54-.73c.12.23.21.72-.06.85.39.43.34-.31.68.17a.12.12,0,0,1,0,.15l.37-.26c-.07.18.07.62-.16.49.68.5,1.09-.67,1.35,0l-.06,0c.94-.3.09-.64.78-1.4l.49,1.58.09-.65c.1,0,.29.07.26.33.36-.44-.07-.28.14-.7.47.59,1.29-.28,1.4.74.16-.49-.45-.37.05-.72.15,1.1.57-.19,1,.31-.12.57-.53.27-.1.77.25-1,.84.2,1.2,0,0-.76.78-.33,1.38-.59,0,.26,1.14.4,1.71.67l0,.13c.1-.77.68-.64,1.1-.8a1,1,0,0,1-.3.85h.39a.69.69,0,0,1,.47-.47l-.09.58c.53,0,1-.7,1.74-.33,0-.54-.57-1.49.15-1.86,0,.29.06.79-.12.91.06,0,.21-.25.34-.12l-.28.49c.31.21.16-.41.4-.37,0,.42.19.3.16.63-.06,0-.22-.17-.31,0a1.12,1.12,0,0,1,.74.63c0-.24,0-.56.19-.62.53,0,.19.5.51.7.12-.29.46,0,.46-.62.15,0,.19.29.25.46.27-.28,1.28-.1,1-.76l-.08,0,0,0h0c.88-.63,1.87.32,2.75,0v.21c.53-.25,1.18-.16,1.55-.61.16,0,.38.37.32.62.4-.16.44-.4,1-.07-.4.37.15.32-.41.28.53.17.65.5,1.21-.08-.19.54.41.67.65.5l-.37-.37a1.71,1.71,0,0,1,.78,0l-.13.71c1.09.83,1.93-1.48,2.76-.07.28-.49-.59-.33-.34-.91.5.09,1,1.09,1.18,1.09.68.38.62-1,1.34-.77-.1-.25-.19-.92.34-1.16.5.09.62,1,.31,1.25-.12,0-.18-.06-.17-.14-.16.09-.37.2-.17.47l.06-.25c.25.25.93.22.77.63.37-.24.16-.41-.12-.54.64.36,1,0,1.65.24-.11-.14-.2-.43-.1-.43,1,.3.42-.48,1.07-.59.37.38-.13.91.53.59.4.25.08.66-.07.87.4-.49,1.62.3,2.25.39l-.54.2a2.49,2.49,0,0,1,.91-.12l-.47-.49c.34.08.62.08.69.29.19-.33-.53-.83-.14-1.28.5.25.9-.28,1.48.38-.68-.11-.54.06-.36.27s.43.45-.13.51a1.45,1.45,0,0,1,.84,0c.1.08,0,.14,0,.18,1.81.58.1-.75,1.34-.74a1.54,1.54,0,0,0,1.15.62.82.82,0,0,1-.77-.93c.25-.5-.3-1-.29-1.36l-.11.32a2.49,2.49,0,0,1-.55-1.28c.31.14.25.56.37.48-.37-.49-.21-.65,0-.89A.83.83,0,0,0,93,80c.23-.3.72.17.86-.16a1.05,1.05,0,0,1-.06-1.08A1.35,1.35,0,0,0,94,78.3a.75.75,0,0,0-.14-.54c-.48.23-.35.25-.89-.15l.12.26a1.43,1.43,0,0,1,.12.31l.26.82a9.63,9.63,0,0,0-.83-1c0,.4.41.93.35,1.2-.46-.5-.33-.41-.73-.26.36-.24.21-.56,0-.82s-.35-.43-.13-.7l1.24-.12c.47-.81-.76-1.26-.58-2.26l-.18.34c-.51-.07-.14-.59-.38-.88.41,0,.54-.24.78-.41-.31.06-.07-.71-.9-.69l.48-.51c.1-.81-1.31-.71-1.29-1.47.48.15.72-.24,1.12.22,0-.26,0-.49-.29-.45.24-.19-.66-.6-.31-.9-.19-.07-.63,0-.65-.31a.41.41,0,0,1,.21,0c-.21,0-.36-.38-.77-.06,1.13-1-.48-2.1.45-3a11.27,11.27,0,0,1-.67-1.61c.13,0,.2,0,.18.06.22-.77-1.24-.14-1-1,.55-.55.46.32.64,0,1.3-.44-.42-.87.21-1.59l.11.11c.34-.52-.74-.83-.85-1.49a.36.36,0,0,0,.2-.06,3.41,3.41,0,0,1-1.65-1.52c.57,0,.36.18.84-.1-.16-.25-.81.35-1.12-.14.23-.27.32-.74.85-1l.22.5c.62-.5-.27-.66-.24-1l.32-.07c-.39-.76-1.17-.48-1.42-1.33l-.2.18c-.93-.15.28-.55-.47-.77l.71-.45a8.38,8.38,0,0,1-1.55-1.18,4.61,4.61,0,0,1,1.74.78c-.12-.3-.49-1-.93-1,.13.08.38.15.31.32a1.8,1.8,0,0,1-1.52-1c1.48-.61-.36-1.67.47-2.67-1.11-.71-1-2.14-1.88-3.23-.73,1.14-.27-.3-1.25.53-.25-.2-.3-.31-.25-.38,0-.41,0-.81,0-1.22s.42,0,.62-.15c-.39-.62.22-.58.16-1.18-.28.38-.66.24-.81-.19l-.06.84c-1.16-.29.25-1.42-1-1.67l.53-.06c-.58-.18-1.45-1.43-2.55-.9,0-.17.13-.52.38-.45a5,5,0,0,0-1.9-.87c-.71-.16-1.33-.32-1.63-.85l.23-.23c-.26,0-.65.36-.79-.06.06-.11.22-.25.12-.31s-.82.26-1.05,0l.38-.23a1.58,1.58,0,0,0-1.63-.21,8.1,8.1,0,0,1-1.54.44c.18-.9-.8-1.39-1.32-1.57l0-.13c-1.58-.2-2.64.74-3.88,1.29-1-.86-2.87.16-4.28.18.25.08.23.69.05.86-.37-.06-.53.9-.83.12l.11,0c-.56-.65-1-.16-1.51,0l.44,1c-1-.44-1.6.18-2.17.71s-1,1.13-1.68.76c-.09.39-.37.65-.43,1l-.37-.47a4.79,4.79,0,0,0-1.8,1.5l-.14-.46c-.46.4.66,1.75.32,2.14l-.75-.5c-.67.75-2,1-2,2.34-.09-.1-.27-.28-.2-.43a10.27,10.27,0,0,0-.8.76.6.6,0,0,0,.27,1c-.65-.44-.7.9-.67,1.55l-.47-.36c.44.8.62.9.52,1.58-.14.1-.49-.08-.26-.2-.51.34.32.59-.22,1-.1-.13-.17-.24-.25-.36-.26.47,0,.52.27.94.11.39-.47.88-1,.79.29.17.59.57.38.82a.46.46,0,0,1-.34-.23c-.6.76.35,1.42-.35,1.87a.51.51,0,0,0-.36,0A3.89,3.89,0,0,1,49,57c-.53-.14-.76.41-1.37-.22.26.58,1,1.52.63,2l-.19,0,0-.07a.3.3,0,0,0,0,.36,1.09,1.09,0,0,0-.24.43c-.46,0-.35.62-.38.89.59.05.46.4,1,.12,0,0-.07-.06-.08-.25s0-.09,0-.12l0,0c0-.18,0-.42.07-.69.27.27.47.52.11.78.37.19.74.38.91.49-.85.27-1.37,1-1.89,1,.26.86.12,2,1.2,2.54.14.23-.32.26-.5.34-.11-.14-.09-.3-.25-.37.28.47.1,1.38.87,1.49-.35.58-.71-.33-.59.47l-.24-.1c-1.23,1.59,2,2.51.46,4.26.1-.12.14-.18.27-.21-.66,2,.77,4-.36,5.92-.23.54.27.6.64.94l-.64.1.72.58c.5.83-1.59,1.32-.66,2.36l.44-.1c-.11.35.16,1.16-.33,1.06.08,0,.44.16.21.28l-.34,0c.17.31.33.62.48.94-.33.65-1.3-.26-1.5.7.08.37.82,1.17,1.06,1.08A.53.53,0,0,1,49,83.8l.12.37c1,.21,1.91.67,2.71-.12l-.51-.71.5-.14,0,.53c.49-.24.12-.48-.12-.73a.8.8,0,0,0,.55-.2c-.28-.24-.56-.48-.85-.71.39,0,.73.35,1,0-.41-.33-.88.19-1.13-.31.47-.25.83-.14.48-.52a.49.49,0,0,1,.51.21c-.28-.34-.07-.84-.57-1,.58-.28-.08-1.05.84-1a1.74,1.74,0,0,1-.73-.87c1.09.56.11-1,1.29-.89-1-.4-.43-1.39-1-2.06.08,0,.24.11.19.17.09-.38.39-.5.57-.74-.82,0-1-.62-1.53-.93.79-.47,1,.27,1.73.11-.66,0-.67-.79-1.23-.62.49-.36.23-.31.92-.5-1,0-.18-.33-.83-.6.5-.51,1-.15.64-.7C52.86,71.53,53.24,72,53.24,72ZM51.85,59.33h0v0Zm.19-1a3.49,3.49,0,0,0-.13.42c-.21,0-.4-.08-.37-.18C51.66,58.64,51.84,58.43,52,58.32Zm-4.46,1.6c0-.2.08-.25.2-.25a2.13,2.13,0,0,0,0,.33l.07,0A1.1,1.1,0,0,1,47.58,59.92Z"/><path class="cls-1" d="M48.31,60.35s0,0,0,.08l.14-.09-.18-.09Z"/><path class="cls-1" d="M70.92,83l0,0a.26.26,0,0,1,0-.09Z"/><polygon class="cls-1" points="60.63 47.95 60.54 47.84 60.55 47.99 60.63 47.95"/><path class="cls-1" d="M64.83,81.12a.28.28,0,0,0-.08-.15A.37.37,0,0,0,64.83,81.12Z"/><path class="cls-1" d="M62.22,81l-.38-.2A1.17,1.17,0,0,0,62.22,81Z"/><path class="cls-1" d="M60.2,80.76a1.29,1.29,0,0,0,0,.25h0Z"/><path class="cls-1" d="M89,79.45s0,0,0,0S88.91,79.33,89,79.45Z"/><path class="cls-1" d="M82.66,81.1a1.67,1.67,0,0,1,.31-.29C82.8,80.77,82.66,80.76,82.66,81.1Z"/><path class="cls-1" d="M87.26,71.23h0v0Z"/><path class="cls-1" d="M83.41,80.82a.36.36,0,0,0-.44,0A.52.52,0,0,0,83.41,80.82Z"/><path class="cls-1" d="M51.5,80.56l-.09,0s0,.07,0,.09Z"/><path class="cls-1" d="M51.4,80.63l-.11.07C51.34,80.7,51.38,80.7,51.4,80.63Z"/><path class="cls-1" d="M51.06,80.85l.23-.15C51.21,80.7,51.11,80.68,51.06,80.85Z"/><path class="cls-1" d="M54.16,80.82l0-.21A.51.51,0,0,0,54.16,80.82Z"/><path class="cls-1" d="M55,80.75c-.19,0-.49-.45-.76-.31l0,.17C54.31,80.29,54.79,81.12,55,80.75Z"/><path class="cls-1" d="M58.37,83.38l-.68-.17c.12.23.28.54,0,.59C58.52,84.48,57.48,83.29,58.37,83.38Z"/><path class="cls-1" d="M60.47,83.68c-.36.11,0,.34,0,.47C60.69,83.93,60.75,83.88,60.47,83.68Z"/><path class="cls-1" d="M75.66,83.44l0,.53C75.91,83.89,75.63,83.77,75.66,83.44Z"/><polygon class="cls-1" points="78.52 80.61 78.24 80.28 78.12 80.77 78.52 80.61"/><polygon class="cls-1" points="80.29 84.42 80.17 84.5 80.63 84.3 80.29 84.42"/><path class="cls-1" d="M91.82,67.37l-.63.22C91.34,67.75,92.08,67.65,91.82,67.37Z"/><path class="cls-1" d="M88.05,56.69c.27-.24.34-.62,0-.68C88.06,56.27,87.93,56.6,88.05,56.69Z"/><path class="cls-1" d="M60.15,41.9c0-.1.07-.21.11-.31A4.24,4.24,0,0,0,60,42Z"/><path class="cls-1" d="M52.65,48a4.17,4.17,0,0,1-1.91,2.59A96.34,96.34,0,0,1,34.93,60.61a18.92,18.92,0,0,0-4.4,2.72,8.59,8.59,0,0,0-2.68,6.48,4,4,0,0,0,.51,2,4.23,4.23,0,0,0,2.88,1.67c3.18.63,6.46-.33,9.47-1.53a59.84,59.84,0,0,0,10.84-5.68,18.47,18.47,0,0,0,5.75-5.37A7.91,7.91,0,0,0,58,53.34c-1.19-2.36-4.37-3.71-6.67-2.41"/><path class="cls-1" d="M50.65,49.71c.05.18.27.52.37.39l-.21-.68Z"/><path class="cls-1" d="M52.08,50.5a3.09,3.09,0,0,0-.16-1.59,5.45,5.45,0,0,0-.08,1.26c-.1.12-.31-.13-.38-.37,0,.18-.29,0-.18.39.4.4.57.36.67-.14A1.1,1.1,0,0,1,52.08,50.5Z"/><path class="cls-1" d="M57.45,58.09l.1,0A.13.13,0,0,0,57.45,58.09Z"/><path class="cls-1" d="M53.26,63.34c0-.05,0-.12,0-.17S53.21,63.3,53.26,63.34Z"/><path class="cls-1" d="M51.85,63.46h.08C51.87,63.42,51.83,63.41,51.85,63.46Z"/><path class="cls-1" d="M57.45,58.09l-.26.12C57.41,58.28,57.38,58.17,57.45,58.09Z"/><path class="cls-1" d="M53.94,48.67a.35.35,0,0,0-.16.16l.14-.06Z"/><path class="cls-1" d="M57.05,55.32v0h-.28Z"/><path class="cls-1" d="M56.28,53.67a5.53,5.53,0,0,0,.72-.41,1.15,1.15,0,0,1-.39.15Z"/><path class="cls-1" d="M54.2,51.13l-.08.07Z"/><path class="cls-1" d="M57,56.74a1.46,1.46,0,0,0-.21,0Z"/><path class="cls-1" d="M49.26,48.18l.07.08C49.3,48.2,49.28,48.17,49.26,48.18Z"/><polygon class="cls-1" points="52.8 47.99 52.83 48.04 53.15 48.13 52.8 47.99"/><path class="cls-1" d="M49.59,64.09h0C49.62,64,49.6,64,49.59,64.09Z"/><path class="cls-1" d="M31.67,71.06c.08.56-.44.6-.28,1.24C31.42,72.07,31.83,71.44,31.67,71.06Z"/><path class="cls-1" d="M54,48.76a.32.32,0,0,1,.14,0A.14.14,0,0,0,54,48.76Z"/><path class="cls-1" d="M31.39,72.3h0l0,.06Z"/><path class="cls-1" d="M45.32,67a1.29,1.29,0,0,0,.17.21A.86.86,0,0,0,45.32,67Z"/><path class="cls-1" d="M49.12,65.82l-.13,0A.37.37,0,0,0,49.12,65.82Z"/><path class="cls-1" d="M43.89,68.68c-.06,0-.12-.08-.15,0a.34.34,0,0,0,.06.06C43.78,68.67,43.8,68.62,43.89,68.68Z"/><path class="cls-1" d="M42,69.57l.08.1.05-.06Z"/><path class="cls-1" d="M44.27,52.19a4.68,4.68,0,0,1,.38.39C44.39,52.25,44.56,52,44.27,52.19Z"/><path class="cls-1" d="M53.91,49c0-.15.06-.22.11-.24h-.1A.46.46,0,0,0,53.91,49Z"/><path class="cls-1" d="M45.85,72.92l-.37.08A.71.71,0,0,0,45.85,72.92Z"/><path class="cls-1" d="M30.87,60.07l0-.11S30.86,60,30.87,60.07Z"/><path class="cls-1" d="M44.54,73.54a1.12,1.12,0,0,0-.36-.29,1.43,1.43,0,0,0,0,.16Z"/><path class="cls-1" d="M44.66,52.58h0Z"/><path class="cls-1" d="M45.67,50.16c-.27.17.32.7.52,1.1-.18.41-.47-.36-.81-.61-.07.31.19,1,0,1.08-.08-.1-.14-.12-.2-.27.15.65-.59.45-.4,1.26a.62.62,0,0,1-.14-.14,7.27,7.27,0,0,1,.64.86c-.11.09.05.56-.28.17.08,0,0-.21-.08-.37v.27c-.52-.53,0-.33-.27-.77-.11.36-.06,1.06-.37,1-.43-.56.31-.5-.29-.85l.44,0c-.86-.79.22-.06-.66-.92-.5.09-.22.59-.72.67.13.39.35.47.49.86-.16,1-1.42-1.22-1.3-.16.15.46.6,1.25,0,1L42,53.67c-.42.18.41,1.12-.28.91-.1-.31.15-.41,0-.46-.59-.38.07.5-.13.63l-.42-.58c-.34.35-.52,1.06-.9,1.45-.09-.2-.13-.44-.35-.56-.38.65-1.26.65-2,.6l.1.65c-.06,0-.23-.19-.24-.32-.33-.08.18.35.2.62-.1.1-.34-.22-.35-.43-.12.67-.55,1.61-1.28,1.25v-.21c-.44,0,.24,1.31-.33,1v-.12c-.81.13-1.33,1-2.29.47.31.85-.89,0-.38,1.14-.7-.33-.67-.59-1.49-.63-.2.05.12.82,0,1.05l-.33-.57.06.76L31,59.7l-.11.26c.1,0,.32.15.41.32-.14.42-1,.08-1.19-.18-.14.32-.28.65-.4,1-.15-.21-.08-.38-.09-.59,0,.83-.49-.49-.48.28.14.08.22.32.3.43-.43-.17-.84.2-1,.61l-.27-.37a7.16,7.16,0,0,0-1.33,2c.34-.13.94.37.89.59l-.63-.3c.28.35.35-.05.63.47-.21.19-.77-.24-.87-.5l0,.43c-.19-.08-.24-.21-.45-.36.29.33-.93.25-.37.79l-.19-.07a7.11,7.11,0,0,0-.43,1.84c.56.18.37.39.78.69-.29.38-.85.82-.86,1.41.25.43.49.16.82.36-.54,0-.52.56-.89.24a3.2,3.2,0,0,0,.62,1.79c.2-.15.29-.28.47-.24S26.24,71,26,71l-.07,0c.51.51.3,1.23.38,2.06s.41,1.55,1.18,1.44H27.4a5.47,5.47,0,0,0,1.19.1c.36.3-.45.21-.31.67a1.85,1.85,0,0,1,1.37.21.92.92,0,0,0,1,.15c.11.83.62.91,1.13.85s1-.19,1.4.32l0-.37c.18-.37.22.21.36.3,0-.29-.2-.34-.09-.54,1.49-.45,3.14.27,4.73.21.55-.06-.23-1.94.65-1.28l0,.73c.77-1.11,2.07-.66,2.74-1.69,0,.17.08.37,0,.4.38.39.72-.27.57-.65.16,0,.17.33.34.49s.23-.8.53-.38c0,.07,0,.18,0,.23,0-.28.61-.19.26-.68.45.11.54-.51.94-.32-.09-.67.71,0,.38-.84.37.88.91.42.92-.08.06.29.31.18.4.58.24-.13.38-.4.12-.82,1,.81.46-1.25,1.37-.08a11.34,11.34,0,0,1,1.43-2c.45.85-.63.46-.12,1.32.41-.67.33-1.56,1-1.7.21,0,.12.41.15.58.38-.68,1.16-.59,1.4-1.35a.47.47,0,0,1,0,.29c.09-.09.31,0,.07-.39l0,.16c-.49-.43-.31-1.35-.47-1.64.49,1.15.65,0,1.23,1.44a.81.81,0,0,0-.18-.57c.14,0,.26.13.35.47.22-.43-.16-.73.16-.93a2.71,2.71,0,0,1,.2.51c-.06-.44-.13-.89.24-.92,0,.11.17.23.09.28.43-.37.16-1.42.87-1.46.4.84.35.12.85.72l.12-.39-.34-.22c.25-.17.09-.78.45-.73l0,.39.33-.47-.43,0c0-.5-.65-.75-.22-.82,0,.11.22-.17.63.08h0c-.06-.28-.14-.58.15-.57s.56.67.7.77c-.34-.58.39-.62,0-1.25a2.26,2.26,0,0,0,.44.5l-.3-.46c.22,0,.3.06.52.31.36-.24-.81-.59-.17-.65,0,0,.07.09.08.21.51-.22.37-.94.84-1.13.72.37-.09.44.53.72.33-.65,0-1.68.52-2.15l-.14.06c-.94-.6.72-.16.39-.71,0,.11.52.36.41.29.37-.35.14-1,0-1.73l.25.16c.32-.19.33-.65.51-.91-.26-.15-.18-.3-.61-.27.88-.29.72-.81.47-1.23s-.53-.77.1-1.25c0,.1.28.21.27.13-.12-.23-.23-.46-.36-.67-.47.14-.27.14-.63.34-.29,0-.55-.17-.58-.32.37.21.77-.15,1-.35-.14,0-.31,0-.46.09.75-.55-1,.19-.51-.39l.25,0c-.18-.13-.56-.16-.54-.35.49-.28.3.08.74-.07-.12-.27-1.18-.06-.76-.51.18,0,.25.18.44.22.49-.51.33-.49.32-.72v0c0-.19,0-.4,0-.6l-.08.21c-.72.21-.87.13-1,0s-.21-.35-.7-.19c1-.28.44-.29.94-.69,0-.22,0-.51.22-.59-.54.2,0-.61-.81-.27.13-.17-.19-.18.18-.55-.37-.08-.16.33-.35.51-.4.12-.48-.2-.65-.52s-.43-.63-.95-.33c-.7.13-1,.77-1.52,1-.08-.35.31-.69.31-.69-.19-.36-.43-.36-.72-.15a.87.87,0,0,0,0-.57c-.23,0-.21.72-.47.41a3.32,3.32,0,0,1,.28-.82,6.75,6.75,0,0,0-.83.76c-.1-.35.13-.56.24-.79-.35.17-.86.4-.83,1l.22.16c-.1,0-.14-.47-.07-.59.22-.47.42.16.44.36l-.17.15c.16.59.29.52.48.33s.43-.52.61-.46c-.08.29-.16.57-.22.86a5.43,5.43,0,0,1,.42-.68c0,.24,0,.72-.16.83.14.46.24-.28.33.24a.21.21,0,0,1,0,.14l.26-.2c-.09.17-.13.6-.21.45.16.56.74-.46.64.21l0,0c.56-.07.28-.58,1-1.08a15.1,15.1,0,0,1-.52,1.52l.37-.53s.09.14-.06.35c.39-.27.12-.26.44-.55-.11.61.77.23.16,1,.39-.31.05-.44.49-.52-.68.87.37.08.18.62-.46.32-.38,0-.6.49.79-.55.11.43.32.43.64-.44.48.12.84.27-.23.1-.14.71-.35,1l-.12,0c.75-.17.7.16.89.34a1.78,1.78,0,0,1-.86,0l0,.18a.59.59,0,0,1,.5.14l-.58,0c.06.21.74.43.36.78.54,0,1.5-.33,1.86.11-.3,0-.8,0-.91-.09s.24.13.11.2l-.49-.17c-.21.16.41.1.36.23-.41,0-.29.09-.62,0,0,0,.17-.1,0-.15a.89.89,0,0,1-.66.32c.24,0,.56,0,.61.15,0,.27-.51,0-.74.16.28.1,0,.21.57.31,0,.08-.3,0-.47,0,.25.18-.06.63.62.64l0,0,0,0h0c.48.66-.63.86-.57,1.36l-.19-.08c.11.35-.14.61.15,1-.05.08-.43,0-.63-.17,0,.26.2.41-.25.49-.18-.38-.31-.12-.1-.33-.3.13-.6,0-.31.55-.38-.39-.66-.24-.61,0l.41.08a.45.45,0,0,1-.26.31l-.5-.5c-.5-.06-.37.34-.31.71s.05.69-.61.33c.24.46.47,0,.78.53-.27.13-1.15-.41-1.21-.36-.52-.06.44,1,0,1,.19.15.67.63.59,1-.29.11-.93-.6-.93-.86,0-.06.11,0,.17.05a.36.36,0,0,0-.23-.42l.13.21c-.26-.11-.53.14-.72-.23,0,.31.19.37.39.38-.5-.07-.44.33-.87.35.13.08.35.28.3.31-.62.07.09.52-.15.83-.39-.19-.46-.78-.58-.31-.33-.08-.42-.52-.46-.73,0,.58-.69.09-.9.12l0-.27a.31.31,0,0,1-.17.25l.36.36c-.13,0-.21,0-.32-.14.09.33.53.64.6,1.14-.26-.14-.21.46-.62-.07.5,0-.4-.53-.15-.82,0,.1-.09.15-.23.13a.24.24,0,0,1-.06-.17c-.67-.27.25.74-.12,1-.16-.35-.47-.55-.49-.44.15-.09.41.48.42.81-.39-.1-.14.35-.28.4l.21,0c.15.35,0,.38-.1.59-.17-.24,0-.27-.08-.34.15.68-.78-.32-.81.21-.25-.14-.37-.59-.57-.68,0,.59-.57-.25-.67.27.34.38.29.27.32.82l.33-.6,0,.82c.16-.09.17-.46.3-.44.06.44,0,.32.29.64-.59-.53-.2.63-.7.33l-.61-1.09c-.64-.27-.34.93-1,.92l.25.1c.18.47-.26.23-.32.49a2,2,0,0,0-.54-.65c.15.27-.37.16,0,.92L45,67.77c-.49,0,.09,1.29-.37,1.36-.08-.47-.38-.64-.27-1.06-.13.06-.28.05-.15.31-.19-.2-.11.67-.4.38,0,.19.19.59,0,.63a.88.88,0,0,1-.09-.19c.09.19-.11.36.22.72-1-1-1.1.61-1.91-.25a3.11,3.11,0,0,1-.77.66c0-.12-.08-.19,0-.17-.51-.21.24,1.2-.35,1-.46-.54.09-.43-.14-.61-.58-1.25-.43.38-1-.26l0-.1c-.37-.35-.32.68-.7.72a.94.94,0,0,0-.07-.19,1.87,1.87,0,0,1-.66,1.41c-.06-.54.07-.32-.17-.81-.12.12.32.81.06,1.06a2.78,2.78,0,0,1-.68-1l.27-.12c-.37-.67-.35.13-.54,0L37.25,71c-.39.22-.18,1-.67,1.09l.11.23c-.07.86-.32-.4-.45.25L36,71.77a3.82,3.82,0,0,1-.72,1.11,5.4,5.4,0,0,1,.51-1.41.62.62,0,0,0-.55.58c.05-.09.1-.31.19-.2-.09.69-.33,1-.68,1.08-.11-1.61-.92-.33-1.19-1.58-.54.6-1-.27-1.57-.27,0,1.28-.18,0-.37,1.28-.17.06-.22,0-.22-.06a6.45,6.45,0,0,1-.21-.84c0-.39.18-.25.25-.53-.21-.16.05-.55,0-.91-.12.44-.29.6-.32.4a4.07,4.07,0,0,0,0,.61c-.27.27-.25,0-.18-.28s.21-.5,0-.24l.23-.33c-.17.17,0,0-.89.58a2.44,2.44,0,0,1,.47-.37s0,0-.09,0c-.24.06-1,0-.52-.32h.32c-.1,0-.6-.07-.29-.2.13,0,.31,0,.33,0s-.56-.21-.38-.33l.36.1c.42-.41-.84-.74-1-1.24A1.8,1.8,0,0,0,31,68.08l.12,0c.24-.42-.46-1.06-.52-1.73,1,.2.94-.71,1.69-.69a1.3,1.3,0,0,1-.52-.63c.21.05-.21-.7.36-.07l0,0c.64.54.65.24.81.14l-.67-.89c.71.46.88.16,1.09-.18s.4-.66.9-.11c0-.31.15-.4.16-.72l.27.53a1.63,1.63,0,0,0,1.1-.47l.09.43c.3-.1-.41-1.71-.17-1.88l.49.75c.5-.27,1.38.16,1.5-.82,0,.12.16.35.09.43.25-.11,1.21,0,.54-1,.39.69.56-.22.66-.67l.24.54c-.14-.79-.23-1,0-1.33.11,0,.3.38.12.3.4.13-.08-.59.38-.49l.07.39c.28-.1.16-.27.08-.73,0-.29.55-.15.86.29-.13-.3-.21-.75,0-.71a.6.6,0,0,1,.13.37c.63.1.28-1,.86-.63a1.21,1.21,0,0,0,.23.27c-.34.19-.63.32-.62.27.27.46.59.38.76,1.15,0-.48-.07-1.46.32-1.4a.92.92,0,0,1,.13.14v.07c.09,0,.12-.07.12-.18s.22,0,.3,0c.27.37.44,0,.59,0-.33-.5-.1-.53-.52-.84,0,0,0,.07-.07.15s0,.05,0,.09l0,0a3.13,3.13,0,0,1-.31.23c0-.32-.08-.6.24-.41l-.31-.93c.61.59,1.2.75,1.52,1.15.23-.54.84-.8.49-1.89,0-.2.31.18.44.3s-.09.17,0,.33c.08-.39.62-.54.24-1.22.48.1.24.7.56.33l.08.24c1.47.5.13-2.48,1.87-1.76a.5.5,0,0,1-.26-.15c1.37-.11,1.57-1.93,3.15-1.74.4,0,.13-.43,0-.85l.45.46-.18-.79c0-.71,1.65.71,1.53-.55L52,50.69c.24-.1.38-.72.71-.37,0-.07-.28-.36,0-.29l.26.21a5.14,5.14,0,0,0-.07-.88c.24-.16.51,0,.79.14s.57.24.79-.2c0-.42-.69-1.22-.93-1.13,0,.11-.25.23-.58.14a1.66,1.66,0,0,0-.13-.27c-.47-.13-.93-.28-1.38-.36s-.85-.13-1.2-.17a2.9,2.9,0,0,1,.52.34l-.45-.17s0-.06,0-.09c-.43-.13-.07,0,.14.21-.19-.1-.34-.16-.47-.22a3.75,3.75,0,0,1,.71.61,4.77,4.77,0,0,0-.79-.56c.29.32.73.46.86.75-.41-.2-.65-.48-.45-.13a1.38,1.38,0,0,1-.35-.39c.16.27-.09.27.21.7-.46-.32-.26.42-.85-.3.11.2.26.73.15.86-.46-1-.51.31-1.18-.68.45.92-.33.82-.3,1.49,0-.08-.1-.23,0-.21-.22.06-.45-.15-.67-.21.47.67.32,1,.48,1.54-.69-.49-.45-.88-1-1.44.41.53,0,.8.43,1.2a2,2,0,0,1-.76-.58c.58.85,0,.25.19.86-.53-.25-.63-.74-.7-.3C45.65,50.62,45.67,50.16,45.67,50.16Zm-5.29,5.63h0l.12-.11Zm-.54.33a.93.93,0,0,0,.25-.12c.12.16.21.36.15.38C40.2,56.25,40,56.22,39.84,56.12Zm3.3,2.8c0,.13-.14,0-.21-.05a1.62,1.62,0,0,0,.12-.16l0-.07A2,2,0,0,1,43.14,58.92Z"/><path class="cls-1" d="M42.89,58.16s0,0,0-.06L42.78,58a1.34,1.34,0,0,1,.07.18Z"/><path class="cls-1" d="M57.57,58h0Z"/><polygon class="cls-1" points="31.43 59.4 31.51 59.52 31.5 59.38 31.43 59.4"/><path class="cls-1" d="M59.63,54.46a.3.3,0,0,0,.13-.09A.44.44,0,0,0,59.63,54.46Z"/><path class="cls-1" d="M59.11,52.68l0-.35A1.09,1.09,0,0,0,59.11,52.68Z"/><path class="cls-1" d="M58.49,51.26a1,1,0,0,0-.21.15h0Z"/><path class="cls-1" d="M51.27,69.14a.06.06,0,0,0,0,0C51.21,69.34,51.25,69.26,51.27,69.14Z"/><path class="cls-1" d="M55.23,64.62a2.26,2.26,0,0,1,0,.33C55.37,64.92,55.45,64.87,55.23,64.62Z"/><path class="cls-1" d="M45.89,72.92h0Z"/><path class="cls-1" d="M55.05,65.13c.16,0,.21-.06.22-.18S55.06,65,55.05,65.13Z"/><path class="cls-1" d="M52.45,48.64h-.09a.38.38,0,0,1,0,.1Z"/><path class="cls-1" d="M52.37,48.73l-.08.08S52.37,48.79,52.37,48.73Z"/><path class="cls-1" d="M52.14,49l.15-.19C52.23,48.82,52.14,48.82,52.14,49Z"/><path class="cls-1" d="M54.59,49l.06-.21A.93.93,0,0,0,54.59,49Z"/><path class="cls-1" d="M55.21,49.08c-.12-.1-.25-.54-.5-.46l-.06.16C54.83,48.5,55,49.38,55.21,49.08Z"/><path class="cls-1" d="M55.88,52.36A2.11,2.11,0,0,0,55.7,52c-.07.22-.19.51-.33.48C55.29,53.29,55.59,52,55.88,52.36Z"/><path class="cls-1" d="M56.35,53.27c-.18-.05-.25.22-.36.29C56.21,53.49,56.28,53.48,56.35,53.27Z"/><path class="cls-1" d="M56.18,60.12l-.45-.3C55.73,60,55.91,59.94,56.18,60.12Z"/><polygon class="cls-1" points="57.45 63.13 57.82 63.2 57.49 62.82 57.45 63.13"/><polygon class="cls-1" points="53.93 61.3 53.92 61.2 53.9 61.51 53.93 61.3"/><path class="cls-1" d="M42.1,68.94l.32.59C42.47,69.38,42.18,68.69,42.1,68.94Z"/><path class="cls-1" d="M36.55,71.7c-.15-.31-.35-.47-.38-.13C36.31,71.58,36.5,71.8,36.55,71.7Z"/><polygon class="cls-1" points="32.89 64.78 32.95 65.01 32.98 64.75 32.89 64.78"/><path class="cls-1" d="M29.56,63.15Q17.1,46.58,5.65,29.25"/><path class="cls-1" d="M6.82,28.47c-.16.09-.5.32-.4.33L7,28.45Z"/><path class="cls-1" d="M6,29.52a5.46,5.46,0,0,0,1.37-.78c-.6.32-.37.15-1.08.52-.1,0,.13-.21.35-.34-.16.08.07-.16-.31,0-.41.37-.37.46.06.3A2.53,2.53,0,0,1,6,29.52Z"/><path class="cls-1" d="M8.33,35,8.38,35A.23.23,0,0,0,8.33,35Z"/><path class="cls-1" d="M10.07,38.26a.26.26,0,0,0-.15.05A.23.23,0,0,0,10.07,38.26Z"/><path class="cls-1" d="M9.78,39.21l0-.06C9.75,39.2,9.73,39.23,9.78,39.21Z"/><path class="cls-1" d="M8.33,35l-.12.21C8.4,35.11,8.32,35.09,8.33,35Z"/><path class="cls-1" d="M7.82,29.27a.46.46,0,0,0-.18.06h.09Z"/><path class="cls-1" d="M7,34l0,0-.25.14Z"/><path class="cls-1" d="M6.19,33a6.5,6.5,0,0,0,.71-.41,1.15,1.15,0,0,1-.37.17Z"/><path class="cls-1" d="M6,30.83H6Z"/><path class="cls-1" d="M7.35,34.81l-.17.13Z"/><path class="cls-1" d="M30.92,60.34l-.08.07C30.89,60.38,30.93,60.35,30.92,60.34Z"/><polygon class="cls-1" points="29.43 63.24 29.4 63.25 29.13 63.44 29.43 63.24"/><path class="cls-1" d="M9.8,40.58h0C9.74,40.58,9.76,40.59,9.8,40.58Z"/><path class="cls-1" d="M16.16,49c.36-.41.67-.24,1-.72C17,48.37,16.36,48.63,16.16,49Z"/><path class="cls-1" d="M7.77,29.34s0,0,0,0S7.8,29.34,7.77,29.34Z"/><path class="cls-1" d="M17.2,48.23h0l0,0Z"/><path class="cls-1" d="M11.59,42.55l.2-.17A1.83,1.83,0,0,0,11.59,42.55Z"/><path class="cls-1" d="M11.17,40.46l0,.08A.11.11,0,0,0,11.17,40.46Z"/><path class="cls-1" d="M12.85,42.91c0,.05-.08.1,0,.09l.05,0C12.84,43,12.79,43,12.85,42.91Z"/><path class="cls-1" d="M13.46,43.78l.09-.08H13.5Z"/><path class="cls-1" d="M28.78,58a4.4,4.4,0,0,1-.39.35C28.71,58,28.93,58.08,28.78,58Z"/><path class="cls-1" d="M7.54,29.45a1,1,0,0,1,.23-.11h0A1.28,1.28,0,0,0,7.54,29.45Z"/><path class="cls-1" d="M16.72,40.29l0,.19A.24.24,0,0,0,16.72,40.29Z"/><path class="cls-1" d="M24.25,51.9h.08S24.31,51.87,24.25,51.9Z"/><path class="cls-1" d="M17.1,40.83a2.21,2.21,0,0,0-.29.31l.14-.07Z"/><path class="cls-1" d="M28.38,58.31h0Z"/><path class="cls-1" d="M30.17,58.35c-.08-.13-.66.4-1,.64-.29,0,.41-.41.69-.7-.24,0-.86.38-.89.29a1.27,1.27,0,0,1,.27-.21c-.58.27-.25-.28-1,.07l.14-.13c-.3.25-.61.49-.84.65-.06-.05-.48.19-.08-.14,0,0,.18-.07.32-.15l-.23.07c.55-.49.27-.07.7-.39-.27,0-.86.25-.76,0,.56-.45.35.06.77-.44l-.12.31c.83-.78,0,.13.9-.69,0-.3-.45,0-.41-.29-.35.19-.47.36-.82.56-.76.16,1.3-1.28.39-.9-.42.23-1.16.75-.88.33l.69-.44c-.07-.22-1,.59-.71.08.28-.15.32,0,.38-.1.42-.5-.44.19-.5.09l.56-.44c-.23-.12-.8,0-1.06-.16a1.82,1.82,0,0,0,.53-.39c-.49,0-.35-.61-.19-1.12l-.57.27s.19-.21.31-.25c.11-.24-.32.22-.55.32s.23-.29.4-.36c-.55.13-1.27.17-.87-.41l.17-.07c.1-.29-1.14.58-.77.11l.1,0c0-.47-.72-.48-.14-1.27-.75.48.1-.55-.92.16.37-.54.58-.62.74-1.11,0-.1-.71.35-.87.35l.52-.39-.63.29.59-.52-.2,0c0,.06-.18.24-.34.35-.33,0,.15-.57.42-.77l-.66,0a1.59,1.59,0,0,1,.49-.21c-.65.23.54-.43-.06-.22a2.71,2.71,0,0,1-.43.29c.27-.3.16-.46-.06-.48l.38-.24c-.07-.28-.5-.33-.67-.57a1.91,1.91,0,0,1-.86.61l.53-.43c-.37.2-.15.23-.64.44,0-.14.59-.52.81-.6l-.28,0c.17-.12.27-.16.49-.31-.38.21.42-.59-.23-.22l.17-.13c-.17-.24-.44-.21-.61-.39-.49.34-.43.19-.87.41.05-.25.32-.69.15-.83-.32.05-.43.25-.76.4.44-.32.27-.46.65-.6-.22-.16-.28-.2-.82-.21a1.87,1.87,0,0,1-.38.33c-.11,0,.11-.24.32-.38l.06,0c-.87.17.79-1.6-.29-1.18l.05,0-.65.09c0-.17.38-.17.59-.44-.92.25-.19-.5-.83-.37,1.18-1.09-.52-.53.15-1.35l-.3.23c-.34.15.13-.19.17-.29-.24.18-.23.26-.43.34-.72-.24-.27-1.35-.36-2-.05-.25-1.66,1-1.09.25l.61-.33c-.95.1-.52-.79-1.36-.76.15-.07.32-.18.35-.15.36-.36-.19-.3-.53-.07,0-.08.3-.22.45-.38s-.67.17-.29-.16a.52.52,0,0,1,.2-.08c-.24.09-.12-.27-.56.11.13-.3-.4-.12-.2-.43-.58.3.1-.41-.68.09.79-.54.46-.68,0-.52.26-.13.2-.25.55-.44-.08-.09-.29-.08-.68.21.81-.83-1,.15.11-.78a4.08,4.08,0,0,1-1.47-.24c.79-.53.28.25,1.09-.33-.49,0-1.27.28-1.25-.1.06-.14.36-.2.51-.27-.5,0-.27-.54-.85-.48a.82.82,0,0,1,.24-.1c-.05,0,.05-.18-.31.07l.13,0a7,7,0,0,1-1.48.74c1.07-.63.1-.4,1.47-1.17a1.67,1.67,0,0,0-.51.27c0-.09.17-.2.47-.34-.3,0-.64.28-.74.13.18-.12.26-.13.48-.26-.39.16-.78.32-.72.09.11-.06.24-.17.26-.13-.2-.17-1.14.25-1-.2.8-.45.2-.25.84-.71H13l-.28.27c-.07-.12-.61.11-.46-.13l.32-.11-.26-.12-.17.29c-.41.11-.81.57-.73.3.09,0-.07-.12.28-.43h0c-.24.08-.5.17-.39,0s.73-.47.86-.58c-.58.32-.33-.15-1,.17a4.47,4.47,0,0,0,.55-.35l-.47.25a1.3,1.3,0,0,1,.45-.37c0-.21-.79.6-.56.18,0,0,.11-.06.19-.08.06-.3-.52-.16-.41-.47.62-.5.26,0,.77-.4-.28-.16-1.13,0-1.13-.31l0,.1c-.95.59.34-.49-.18-.31a2.37,2.37,0,0,0,.43-.25c0-.26-.45-.17-.9-.22l.26-.13c.14-.24-.05-.33,0-.51a1.55,1.55,0,0,0-.58.32c1.14-1.23-1.14-.12-.19-1.16,0,0,.26-.06.24-.08l-.38-.1a2.91,2.91,0,0,0-.5.46c-.26.13-.49.19-.53.13a2,2,0,0,0,.84-.64c-.12.1-.26.17-.39.26.64-.61-.83.52-.46,0l.22-.14c-.15,0-.47.14-.45,0,.45-.34.26-.08.65-.33-.09-.08-1,.4-.61,0,.16,0,.2,0,.36,0,.48-.46.34-.38.38-.51v0l.14-.33-.12.14c-1.3.69-.39-.1-1.3.27.86-.35.46-.27,1-.61a1.35,1.35,0,0,1,.4-.39c-.48.21.25-.36-.45-.05.17-.12,0-.09.4-.36-.2,0-.28.22-.5.36-.69.23.47-.84-.48-.53-.46,0-1.06.38-1.46.39a1.7,1.7,0,0,1,.65-.36c.19-.27.1-.31-.16-.27a2,2,0,0,0,.45-.34c-.09,0-.66.36-.47.1s.52-.29.74-.38c-.22,0-.59.14-.81.15a2.5,2.5,0,0,1,.71-.34,1.33,1.33,0,0,0-.94.2l-.13.18s.4-.29.5-.32c.43-.16-.08.23-.25.35H6.57c-1,.73.33.15.36.32l-.77.43.7-.27a2.34,2.34,0,0,1-.72.45c-.3.33.31-.09,0,.26a.32.32,0,0,1-.13.08l.28-.06c-.17.09-.51.36-.44.23-.31.45.72-.1.21.33l0,0c.39.06.55-.34,1.29-.59L6,31.75l.55-.33s0,.11-.23.24c.42-.16.22-.17.6-.35-.41.44.43.16-.4.75.43-.23.24-.32.6-.39-.89.65.25,0-.1.42-.5.28-.31,0-.67.4.85-.47,0,.32.17.3.64-.42.39,0,.7,0-.22.14-.17.51-.31.79l-.11.07c.66-.4.63-.18.83-.17a2.8,2.8,0,0,1-.76.4L7,34a.85.85,0,0,1,.46-.15l-.49.3c.11.11.73-.13.52.25.45-.29,1.16-1,1.57-1a3.64,3.64,0,0,1-.77.48s.23-.08.15,0l-.45.2c-.13.19.36-.19.36-.1-.34.23-.21.2-.49.38,0,0,.11-.15,0-.08a1.07,1.07,0,0,1-.41.53,1.7,1.7,0,0,1,.55-.3c.11.11-.39.33-.52.52.26-.13.07.12.58-.23,0,0-.21.21-.34.32.27-.09.27.26.77-.19l0,0h0c.66-.14,0,.64.37.7l-.17.11c.28,0,.3.21.74,0a1.4,1.4,0,0,1-.48.42c.2,0,.4-.11.21.22-.37.11-.24.21-.29,0-.06.22-.32.44.24.25-.47.26-.49.47-.32.44l.26-.3c.11,0,.11.11.11.2l-.6.36C8,38.12,10,37,9,38c.45-.21.19-.33.7-.59,0,.17-.74.85-.72.89-.21.38.95-.42.84-.11a2.58,2.58,0,0,1,1-.56c0,.17-.77.73-1,.77,0,0,0-.07.09-.12a.69.69,0,0,0-.42.22l.22-.12c-.17.2,0,.35-.4.54a.52.52,0,0,0,.42-.33c-.19.35.15.24.06.53.1-.1.32-.29.34-.26-.1.4.46-.17.65-.08-.25.31-.77.49-.4.46a1.58,1.58,0,0,1-.73.47c.5-.13-.08.44-.09.58l-.22,0c.13,0,.15,0,.17.06l.39-.33a.36.36,0,0,1-.19.25,12.77,12.77,0,0,1,1.09-.67c-.17.2.35,0-.19.42.06-.31-.53.4-.73.3.09,0,.11,0,.07.12a.39.39,0,0,1-.16.08c-.37.51.68-.34.79-.15-.33.19-.56.44-.47.43s.49-.39.77-.49c-.16.28.27,0,.28.09l.07-.15c.32-.19.32-.1.47-.09-.23.17-.21,0-.3.14.6-.28-.42.59,0,.47-.17.2-.58.4-.68.55.49-.13-.32.44.11.36a1.49,1.49,0,0,1,.76-.43l-.46-.05.71-.26c-.05-.07-.37,0-.33-.06a1.29,1.29,0,0,0,.6-.37c-.55.53.5,0,.16.35l-1,.71c-.33.49.74-.06.64.35l.13-.2c.43-.25.15.1.37.06a3.41,3.41,0,0,0-.63.54c.25-.18.09.18.79-.27l-.39.41c0,.31,1.12-.46,1.13-.21-.41.21-.6.46-.94.52,0,.06,0,.16.24,0-.19.18.58-.16.29.12.17-.08.53-.32.55-.24a1.49,1.49,0,0,1-.17.12c.17-.12.3,0,.64-.37-.94.92.42.44-.38,1.24a1.14,1.14,0,0,1,.52.22c-.1.06-.17.12-.15.07-.2.38,1.05-.58.82-.15-.48.47-.36.11-.53.31-1.1.81.31.11-.26.69l-.09,0c-.32.36.58-.07.61.14a1.49,1.49,0,0,0-.17.12,1.88,1.88,0,0,1,1.23-.2,2.58,2.58,0,0,0-.7.44c.11,0,.7-.52.92-.48a5.7,5.7,0,0,1-.82.8l-.11-.11c-.58.5.13.15.07.29l-.28.18c.22.13.9-.34,1-.11l.19-.16c.74-.36-.32.36.26.12l-.66.51a4.32,4.32,0,0,1,1.06-.16,6.29,6.29,0,0,1-1.29.42c.05.07.23.21.59,0-.09,0-.28.1-.2,0,.6-.29,1-.36,1-.2-1.34.9-.07.61-1,1.43.67-.08.15.66.44.9.95-.83.09.07,1.13-.69.12,0,.12.06.06.11l-.48.66c-.27.26-.28.1-.51.27,0,.21-.4.38-.61.68.36-.29.58-.33.49-.14l.4-.47c.71-.18-.75.81,0,.63l-.38.17c.27,0,.28.41,1.2-.08a1.61,1.61,0,0,1-.49.34c.06.35,1.32-.05.94.52l-.27.16c.11,0,.55-.26.33,0-.11.07-.27.16-.27.2s.54-.19.44,0l-.33.15c-.15.49,1-.11,1.31,0-.75.54-.85.91-.9,1.1l-.11.07c.12.37,1,.06,1.48.12-.69.76.07.83-.19,1.43a2,2,0,0,1,.71-.42c-.11.18.65-.2-.05.29v0c-.65.54-.37.54-.31.65l.91-.63c-1.12,1.22,1,.36-.07,1.36.27-.1.33,0,.6-.12l-.49.35c0,.27,0,.4.29.54l-.38.21c.06.14,1.51-.86,1.62-.76l-.69.56c.17.21-.3.89.51.63-.11.07-.32.22-.38.21s-.19.75.77,0c-.64.47.1.27.47.18l-.49.33c.68-.34.85-.46,1.12-.44,0,.08-.36.3-.27.17-.17.29.51-.24.35.08l-.34.17c0,.14.21,0,.6-.19s0,.31-.37.64c.27-.18.66-.37.59-.22a1.23,1.23,0,0,1-.33.2c-.19.43.75-.12.38.35a2.84,2.84,0,0,0-.26.23c-.1-.16-.17-.3-.12-.31-.44.32-.43.5-1.1.84.4-.14,1.24-.5,1.12-.23l-.14.13-.06,0c0,.06,0,.05.13,0s-.08.16-.06.2c-.35.28-.09.28-.07.35.48-.35.46-.22.8-.58t-.12,0H24l.05,0-.14-.13c.27-.13.51-.23.3,0l.83-.48c-.6.57-.85,1-1.24,1.32a1.65,1.65,0,0,0,1.48-.24c.15,0-.22.25-.34.37s-.13,0-.27.07c.31-.07.32.24,1-.19-.18.34-.63.35-.39.45l-.21.12c-.73,1.1,2-.6,1,.74a.58.58,0,0,1,.18-.21c-.23.87,1.22.53.65,1.64-.08.26.33,0,.69-.17l-.49.41.68-.31c.57-.14-1,1.26,0,.88l.32-.28c0,.13.41.11,0,.39.07,0,.38-.24.22-.07l-.26.2.61-.13c-.07.3-1.07.77-1,1a2.9,2.9,0,0,0,1.11-.5s.1-.21.37-.42l.2,0a8.89,8.89,0,0,0,2-1.72l-.58.22.35-.33.11.1c.31-.34,0-.14-.29,0a2,2,0,0,0,.37-.38l-.85.43c.3-.24.66-.39.76-.61-.39.2-.64.58-.95.64.31-.33.61-.53.25-.38a1.36,1.36,0,0,1,.45-.27c-.3.11-.24-.11-.68.17.39-.4-.29-.14.46-.69a2,2,0,0,1-.75.27c1-.55-.12-.27.85-1-.86.51-.58,0-1.14.14.07,0,.21-.12.18-.07,0-.14.23-.34.34-.51a6.13,6.13,0,0,1-1.38.7c.56-.58.83-.52,1.41-1-.53.41-.66.22-1.08.59a3.89,3.89,0,0,1,.65-.66c-.83.6-.19,0-.75.34.33-.41.76-.6.41-.54A1.38,1.38,0,0,1,30.17,58.35Zm-3.65-1.93h0l.07.05Zm-.19-.25a.18.18,0,0,0,.06.13c-.16.13-.34.24-.35.21S26.21,56.31,26.33,56.17Zm-2.92,3c-.09,0,0-.07.08-.15l.11,0,.06,0Z"/><path class="cls-1" d="M24.09,58.75h.05l.09-.1-.16.1Z"/><path class="cls-1" d="M8.39,34.93v0a.34.34,0,0,1,.06-.06Z"/><polygon class="cls-1" points="24.69 52.02 24.57 52.1 24.7 52.05 24.69 52.02"/><path class="cls-1" d="M9.11,32.36a.52.52,0,0,0,.11-.1Z"/><path class="cls-1" d="M8.81,31.67l.11-.2A.69.69,0,0,0,8.81,31.67Z"/><path class="cls-1" d="M8.73,31l-.21.13h0Z"/><path class="cls-1" d="M14.41,38.18h0C14.57,38.16,14.51,38.16,14.41,38.18Z"/><path class="cls-1" d="M11.74,36.73a1.74,1.74,0,0,1,.28-.09C12,36.57,12,36.54,11.74,36.73Z"/><path class="cls-1" d="M16.72,40.27h0v0Z"/><path class="cls-1" d="M12.08,36.75c.07-.11,0-.13-.06-.11S12,36.77,12.08,36.75Z"/><path class="cls-1" d="M7.58,28.81v0l-.08,0Z"/><path class="cls-1" d="M7.51,28.83H7.43S7.45,28.86,7.51,28.83Z"/><path class="cls-1" d="M7.27,28.87l.16,0S7.42,28.79,7.27,28.87Z"/><path class="cls-1" d="M7.77,29.6,8,29.49Z"/><path class="cls-1" d="M8,29.76c0-.08.31-.37.15-.36L8,29.49C8.24,29.34,7.62,29.91,8,29.76Z"/><path class="cls-1" d="M6.28,32l0-.26c-.17.16-.4.36-.5.32C5.38,32.67,6.21,31.77,6.28,32Z"/><path class="cls-1" d="M6.33,32.71c-.14,0-.27.19-.38.25C6.16,32.9,6.21,32.89,6.33,32.71Z"/><path class="cls-1" d="M8.76,36.32l-.46.3C8.41,36.64,8.48,36.5,8.76,36.32Z"/><polygon class="cls-1" points="11.53 35.45 11.76 35.19 11.33 35.44 11.53 35.45"/><polygon class="cls-1" points="8.63 38.01 8.54 38.02 8.78 38.02 8.63 38.01"/><path class="cls-1" d="M12.92,43.93l.54-.4C13.33,43.55,12.71,44,12.92,43.93Z"/><path class="cls-1" d="M15.29,46.12c-.26.22-.38.42-.08.28C15.2,46.31,15.38,46.1,15.29,46.12Z"/><polygon class="cls-1" points="19.89 54.46 19.68 54.54 19.9 54.53 19.89 54.46"/></svg>