<?xml version="1.0" encoding="utf-8"?>
<!-- Generator: Adobe Illustrator 21.1.0, SVG Export Plug-In . SVG Version: 6.00 Build 0)  -->
<svg version="1.1" id="Capa_1" xmlns="http://www.w3.org/2000/svg" xmlns:xlink="http://www.w3.org/1999/xlink" x="0px" y="0px"
	 viewBox="0 0 377.2 152.4" style="enable-background:new 0 0 377.2 152.4;" xml:space="preserve">
<style type="text/css">
	.st0{fill:#62A7BC;}
</style>
<path class="st0" d="M54.5,20.2C6.7,10.6,9.5,82.4,15.7,106.7c2.1,8.3,5.9,17.3,14.4,21c4.5,2,9.7,2.3,14.8,2.4
	c81.9,3.1,164,6.1,245.6-0.5c25.3-2.1,53.9-6.8,67.6-26.1c14.1-19.7,12-61.9-8.6-77.9c-10.2-8-23.6-8.6-36.5-9.2
	c-44.3-2.1-88.6-4-132.8-5.9C139.1,8.8,95.3,3,56.7,19.2"/>
<path class="st0" d="M60.8,26.5c-1.2,0.3-0.2,1.5-0.3,1.8C62.2,27.3,60.6,26.2,60.8,26.5z"/>
<path class="st0" d="M78.7,17.5l-0.2,0.6c0.8-0.7,1.7-1.4,2.6-2C80.2,16.5,79.4,17,78.7,17.5z"/>
<path class="st0" d="M97.3,14.4c-2.1-2.3-6.8,1.3-10.2,0.9l-0.6-0.4l-1.1,2.2c2-0.6,4.2-1.3,6.4-1.9c1.1-0.3,2.1-0.6,3.1-0.7
	C95.6,14.4,96.5,14.3,97.3,14.4z"/>
<path class="st0" d="M107.7,18.8c-0.7-0.9,2.1-1-2.3-0.1c0.1,0.1,0.3,0.1,0.4,0.2C106.5,18.8,107.1,18.8,107.7,18.8z"/>
<path class="st0" d="M105.8,18.9C103.8,19.1,107.2,19.6,105.8,18.9z"/>
<path class="st0" d="M114.9,17.9l-2.6,0.9c0.6,0.5,2.9,0.6,2,1C117,19.3,116.4,18.8,114.9,17.9z"/>
<path class="st0" d="M117.3,16.1l-1.3,0.4C116.2,16.7,116.6,16.8,117.3,16.1z"/>
<path class="st0" d="M113.1,17.3l2.8-0.8c-0.4-0.4-0.4-1.2-1.3,0.3C114.9,16.1,114.3,16.8,113.1,17.3z"/>
<path class="st0" d="M111.5,17c-1.5-0.5-3.4-0.7-0.8-1.7c-2.5,0.3-3.5,0.9-3.3,1.3S109,17.2,111.5,17z"/>
<path class="st0" d="M98,11.8l-2.1-0.5c-0.5,0.3-1.1,0.6-1.6,1C95.1,11.8,98.2,12.6,98,11.8z"/>
<path class="st0" d="M131.2,19.1c0.2-0.5-0.9-1.4-1-2l-2,0.6C129.2,18,131.1,18.4,131.2,19.1z"/>
<path class="st0" d="M130.2,17.1l2.9-0.8C130.5,16.1,130,16.5,130.2,17.1z"/>
<path class="st0" d="M117.8,13.4l-4.8,2c1.9-0.7,3.8-1.4,5.7-2H117.8z"/>
<polygon class="st0" points="142.4,19.6 140.7,20.7 143.7,19 "/>
<path class="st0" d="M149.9,19.8c-1.3,0.9,1.6,1.8,0.3,2.3c1.9-0.2,3.7-0.7,5.4-1.5C153.7,20.9,151.7,20.6,149.9,19.8z"/>
<path class="st0" d="M158.3,19.6c-0.9,0.3-1.8,0.6-2.7,1C156.6,20.4,157.5,20.1,158.3,19.6z"/>
<path class="st0" d="M138.1,16.7c0.5,0.8,1.3,1.4,2.2,1.5l-1.1-1.5L138.1,16.7z"/>
<path class="st0" d="M139.3,16.7L139.3,16.7c1.3,0.1,2.1,0.1,2.5,0.2L139.3,16.7z"/>
<path class="st0" d="M137.9,16.7h0.3C138,16.6,138,16.5,137.9,16.7z"/>
<path class="st0" d="M125.5,14.6c1.7-0.8,5.4-1.6,1.9-2.9C126.1,12.8,128.1,13.5,125.5,14.6z"/>
<path class="st0" d="M136.5,14.8l-3.1-0.4c0.1,0.4,0.6,1-0.3,1.3L136.5,14.8z"/>
<polygon class="st0" points="138,14.4 136.5,14.8 137.6,15 "/>
<path class="st0" d="M153,18c1.5-0.5,3-0.7,4.6-0.5c-1.8-0.4-3.6-0.6-5.4-0.7C151.9,17.1,151.1,17.9,153,18z"/>
<path class="st0" d="M146.3,17.2c0.1,0,0.2,0,0.3-0.1C146.4,17,146.3,17,146.3,17.2z"/>
<path class="st0" d="M174.3,18.4c-0.1-0.1-0.2-0.2-0.3-0.3c0,0.1,0,0.2-0.1,0.2L174.3,18.4z"/>
<path class="st0" d="M151.9,16.4c-1-0.3-2.1-0.2-3,0.4c1.1-0.1,2.2-0.1,3.3-0.1C152.3,16.5,152.3,16.4,151.9,16.4z"/>
<path class="st0" d="M163,19.2c-0.8-0.4-1.5-0.7-2.3-0.9C161.4,18.8,162.7,19.5,163,19.2z"/>
<path class="st0" d="M147.1,17.5l-0.2,0C147.3,17.9,147.2,17.8,147.1,17.5z"/>
<path class="st0" d="M147.1,17.5c0.6-0.2,1.3-0.5,1.8-0.8c-0.8,0.1-1.5,0.2-2.3,0.4C146.8,17.2,146.9,17.4,147.1,17.5z"/>
<path class="st0" d="M179.8,9.3c-0.3,1.3-4,2.4-7,0.8c-3.1,0.8-1.4,5.4,1.2,8c0.1-0.6,0.2-1.1,3.4-1.8c-1.1-0.8-6.9-2.1-4.2-3.1
	c4.2-0.5,3.4,0.6,5.4,1.4c-1.6-1.7,5.4-2.2,4.6-4.7l-3.7,0.7C179.4,10.3,180.8,9.7,179.8,9.3z"/>
<path class="st0" d="M168,17.6l-1.3,0.1c1.6,0.4,3.1,1.1,4.4,2.1c2.2-0.5,2.7-1,2.9-1.5l-6.4-0.5L168,17.6z"/>
<path class="st0" d="M160.9,17.4c1.1-1.4,4.2-1.8,2.4-3.5c-3.8-0.1-2.7,1.1-5,1.6c6.1,0-1.8,0.7,2.6,1.8c-1.1,0.1-2.2,0.2-3.3,0.2
	c1.1,0.2,2.1,0.5,3.1,0.9l-0.1-0.1l0,0l0,0c-0.2-0.2-0.3-0.3,0-0.2h0.1C160.8,17.8,160.9,17.6,160.9,17.4c1.8,0.4,0.3,0.4-0.2,0.6
	c0,0.1-0.1,0.1-0.1,0.2l0,0l6.2-0.5C164.8,17.4,162.9,17.3,160.9,17.4z"/>
<path class="st0" d="M130.6,8.7c0.1,0.1,0.2,0.2,0.2,0.3C131.2,8.9,131.4,8.8,130.6,8.7z"/>
<path class="st0" d="M133.1,9.6c-0.6,0.5-1.5,0.7-2.3,0.6c-1.2-0.5,0-0.7,0-1.2c-0.9,0.4-3.1,1-0.4,1.8l0.4-0.2
	c2.4,0.5,5.5,2.5,5.1,2.7C135.4,11.8,134.4,10.6,133.1,9.6z"/>
<path class="st0" d="M147.2,13l5.1-0.4l-2.5-1.4l0.1,0.8C147.1,11.5,147.6,12.5,147.2,13z"/>
<polygon class="st0" points="174.8,19.1 174.1,20.6 177.2,18.6 "/>
<polygon class="st0" points="181.5,19.2 181.2,20.6 183,19.8 "/>
<path class="st0" d="M245.5,140.5l-1.5,0.4C244.6,140.8,245.1,140.7,245.5,140.5z"/>
<path class="st0" d="M256.5,140.1l0.2-0.7C256.2,139.8,256,140.1,256.5,140.1z"/>
<path class="st0" d="M340.1,29.7c0.2,0.5,0.4,1,0.6,1.5s0.3,1,0.4,1.3c0.3,0.7,0.5,1,0.9,0.3c0.1-0.5,0.3-1,0.4-1.5
	c-0.5-0.2-0.9-0.4-1.4-0.7C340.7,30.3,340.4,30,340.1,29.7z"/>
<path class="st0" d="M343.1,117.2l0.8,0.1c0.2-0.7,0.4-1.3,0.5-1.9C344.1,115.8,343.6,116.5,343.1,117.2z"/>
<path class="st0" d="M344.7,123.3c-1.1,0.2-2.2,0.4-3.2,0.6C342.5,123.8,343.6,123.6,344.7,123.3z"/>
<path class="st0" d="M185.9,143.3l-1.8,1.5C186.9,144.7,185.7,144,185.9,143.3z"/>
<path class="st0" d="M249.4,21.7c1.5,0.6,3.1,0.9,4.6,1.1C251.8,21.9,250.1,20.5,249.4,21.7z"/>
<path class="st0" d="M249.1,124.7c-0.9,0.3-1.3,0.6-1.2,1C248.8,125.4,249.3,125.1,249.1,124.7z"/>
<path class="st0" d="M259.5,23c-0.3-0.2-0.6-0.2-1-0.4c-1.5,0.2-3,0.3-4.5,0.2C255.7,23.7,257.7,23.8,259.5,23z"/>
<path class="st0" d="M3.9,74.5C4,74.3,4,74.1,4.1,74C3.9,73.9,3.9,74.2,3.9,74.5z"/>
<path class="st0" d="M38.6,27c-0.2,0.1-0.5,0.2-0.8,0.4l-0.9,0.5c0.2,0,0.5-0.1,0.7-0.2l0.5-0.3C38.2,27.2,38.4,27.1,38.6,27z"/>
<path class="st0" d="M208.1,21.1C206.7,21.1,207.9,21.2,208.1,21.1z"/>
<path class="st0" d="M201.6,15c0.3-0.1,0.5-0.4,0.6-0.7C202.1,14.6,201.9,14.9,201.6,15z"/>
<path class="st0" d="M273.9,14.5h0.1C273.6,14.2,273.7,14.3,273.9,14.5z"/>
<path class="st0" d="M206.1,20.3c0.6,0.2,1.2,0.4,1.8,0.5C207.3,20.6,206.7,20.4,206.1,20.3z"/>
<path class="st0" d="M206.3,21l-1.2-0.2C204.9,21,205.1,21.2,206.3,21z"/>
<path class="st0" d="M210.1,21.1c-0.8,0-1.5-0.1-2.3-0.2c0.3,0.1,0.4,0.2,0.3,0.2C208.6,21.1,209.1,21.1,210.1,21.1z"/>
<path class="st0" d="M86,136.2c-0.1,0-0.2-0.1-0.3-0.1C84.2,136.6,84.9,136.5,86,136.2z"/>
<path class="st0" d="M371.3,49.2c0-0.1-0.1-0.1-0.1-0.2s0,0.2,0,0.2L371.3,49.2z"/>
<path class="st0" d="M373.6,54.3c-0.9-0.7-1.5-1.6-2-2.6c-0.3-0.8-0.4-1.7-0.4-2.5c-1.2,1-2.4,1.9-3.7,2.8
	C369.5,52.7,371.6,53.5,373.6,54.3z"/>
<path class="st0" d="M219.4,141.7l3.6,1.3c-4.3,2.3-7.4,1.6-4,3.4c0.4-4.6,13.9-0.8,14.2-5.4l2.4,0.9c-0.7,0-0.8,0.3-1.4,0.2
	c4.6,2,3.3-3.4,9.2-3c2.1,0.3,3.5,0.9,2.1,1.5l4.5-1.4c1.3,0,1.1,0.8-0.3,0.8l7-0.7v0.1c1.3-0.9,2.8-1.8,4.2-2.5
	c1.8,0.6-0.9,0.5-0.4,1.1l3.8-1.4c1.6,1.1-1.5,2.4-4.2,2.4c3.9,4.4,3.1-1.4,11.1,0.9l-3.6,0.8c2.5,2.4,5.3,1.4,9.6,2.7
	c-1-0.8-8.5-3.6-4.4-5c1.7,0.4,3.5,0.1,5-0.8c0.1,1.6,2.3,1.1,5.1,0.8v2.2c2.9-0.9,2.6-1.9,4.3-3c3.3,0,4.2,1.6,5.1,2.9
	c5.5-0.1-4-2.4,2.4-3.3c4.6,0.4,7.7-0.8,12.9-2.9c3.3,0.3-0.4,1.4,0.9,1.8l2.5-2.1c0.7-0.1,0.6,0.5,0.5,0.8c2.3-1.1-0.1-2.2,3.4-3.4
	c0.3-1.2,2.3-0.8,4.8-0.5c1.3,0.2,2.6,0.2,4,0c1.3-0.1,2.6-0.7,3.5-1.7c1.3,0.3-0.2,1.4,0.4,2.1l3.3-2c0.8-0.5,1.4-0.9,1.9-1.3
	c1.5-1.1,2.8-2.4,4-3.7l2.4-0.2c0.8-0.1,1.6-0.2,2.4-0.4c-1.9,0-2-0.9-1.4-2.2c0.9-1.6,2-3.1,3.1-4.5c-1.4-0.1-2.5-0.2-3.2-0.3
	c0.7-0.6,1.5-1.2,2.1-1.8c0.7-0.6,1.4-1.2,2-1.9c0.7-0.1,0.7,0.9,0.4,2.1c0.2-0.3,0.4-0.6,0.6-1c2.1-0.5,2,1.1,1.4,3
	c-0.9,0-1.7,0-2.5-0.1c-0.5,1.8-1.1,3.8-0.2,4.8c0.4-0.6,0.9-1.1,1.4-1.5c-0.2,0.5-0.2,0.9,0,1s0.6-0.6,1.2-1.6
	c0.8,0.5,1.6,0.9,2.5,1.3l-0.2-1l3.8-1.7c1.3-0.6,2.5-1.4,3.8-2.1c0.7-1.5,1.4-3,1.9-4.5c0.2-0.8,0.5-1.5,0.7-2.3l0.6-2.4
	c0.2-0.8,0.5-1.6,0.7-2.4s0.5-1.7,0.7-2.6c0.5-1.8,1-3.6,1.6-5.7c0.8,2.7,2.5,1.6,4.3,2.6c-0.7,0.4-1.3,1-1.7,1.7
	c-0.4,0.9-0.8,1.8-1.1,2.7c-0.3,1.1-0.8,2.2-1.2,3.3c-0.6,1.1-1.3,2.1-2.1,3c1.8-1.9,2.2-0.8,2.1-0.1l1-2.1l0.9-2.2
	c0.5-1.4,0.9-2.9,1.3-4.4c0.7,0.5,1.2,0.2,1.8-0.4s1-1.6,1.8-2.6c-1.9,0.2-1.8-1.6-1.3-3.7s1.3-4.9,1.1-6.7c1.1,0,2.2,1.1,0.7,5.2
	c1.9-1.9,1.3-3.7,0.6-5.3c-0.4-0.8-0.7-1.6-0.8-2.5c-0.1-1,0.2-2,0.7-2.7c-0.1,1-0.4,1.5,0.1,2c-0.1-0.7-0.2-1.5-0.1-2.3
	c0.1-0.8,0.2-1.7,0.4-2.5c0.4-1.5,0.9-2.6,1.3-1.8c0,0.3,0,0.7-0.1,1c0.7-4.2,0.7-8.5,0.1-12.8c-0.6-4.3-2-7.8-3.5-8.1
	c1.4,0,2.8,0.2,4.2,0.7c-3.6-3.4-7.6-6.5-11.9-9.1c1.3,0.1,3.1-1.2,4.9-1.9s3.7-1,5.1,1.6c0-1-0.1-1.9-0.4-2.9
	c-0.4-1.4-1-2.7-1.9-3.9c0.1,1.2-2.5,3.8-3.1,2.5c0.4-1.3,0.6-2.7,0.6-4.1c0-0.9-0.2-1.9-0.3-4.8c0.2,0.9-0.9,1.3-2,1.3
	c-1.3,0.1-2.5-0.6-3.2-1.7c0.7,0.1,3.2-2.1,4-1.5c-1.1-0.7-2.2-1.3-3.4-1.9s-2.3-1.1-3.4-1.6c1.5,0.9,2.8-1.7,2.6-3.6
	c0,0.3-0.3,0.1-0.7-0.3s-0.9-1-1.5-1.8c-1-1.3-2.3-2.5-3.6-3.5c0.6,0.9,1.1,1.8,1.6,2.7c-1-1.2-2.4-2.2-3.9-2.6
	c-1.2-0.3-2.4-0.4-3.6-0.3c-1.2,0.1-2.3,0.2-3.5,0.2c-0.6,0-1.3-0.1-1.9-0.3c-0.7-0.2-1.5-0.4-2.1-0.8c0.9-0.5,1.6-1.3,1.9-2.2
	c0.6-1.2,0-2.7-1.2-3.2c-0.1,0-0.1-0.1-0.2-0.1c-0.6,0.3-1.5,0.8-2.7,1.5l-3.9,2.3c-2.8,1.6-5.8,3.3-8.6,3.7l-1-1.2
	c-1.5,0.2-3,0.5-4.5,0.9c2.3-2,4.8-3.7,7.5-5.2c3-1.7,6.2-2.9,9.6-3.6c-0.7-0.4-1.2-0.9-1.7-1.5c-0.3-0.3-0.9-0.5-3-0.9
	c-1.3-1.3,2.6-1.1,3.9-0.8c-3.2-1-6.5-1.9-9.8-2.5c0.1,1.2-1.8,1.5-3.7,1.9S320.8,10,321,11c3.5-0.6,6.9-1,10.4-1.2
	c0,1.2-1.8,2.5-4.2,3.5c-2.8,1.1-5.8,1.6-8.7,1.3c-1.6-1,1.4-4,1.4-4.7c-0.9,0.7-6.1,1.2-6.6,0.6l2.7-1.1c-3.5-1-5.8,2.8-9.9,0.4
	c-1.4-0.2-4.2-3.1-4.5-1.8c2.2,2.7,2.3,10.8,0.6,12.6c-0.5-0.2-7.4-2.8-9-4.2c-2.3-2.1,3.8-4.7,1.9-6.5c-0.1,0.6-1.5,1.3-2,1.6
	c-1.5-0.6,0.7-1.9-2.6-1.8c-0.6,2.3-6.7-0.5-1.6,1.9c-3.2,0.5-3.4-0.6-7.2-0.7c1.1,1.5-3.6,4.9-6.9,5.4c0.2-0.6-0.5-1.4-0.8-1.7
	c-6.6-0.5-10.1-1.7-16.2-2c-0.5-0.6-3.5-1.4-2.2-2.3c-1.1,0.7-2.4,1.1-3.6,1.1c-3.6-2.2,4.2-0.1,1.5-2.6c-0.3,1.3-5,1.6-7.7,2.4
	c0.7,2.1,6.2,0.7,9,0c-0.1,2.9-5,5.6-11.4,6.7c-5.1,0.5-2.1-1.9-3-1.6c-9.6-0.9-8.4,4.6-16.3,2.2c-3.1-2,0-3.6-0.6-5
	c4.2-0.5,6.3,1.4,9.2,1.5l-3.4-1c1.8-0.7,3.8-0.8,5.6-0.3c-2.6-1.8-16.2-1-23.5-2.9c-1.3,0.6-3.6,1.1-2.6,1.9l2.4-0.1
	c2.1,1.6-4.5,1.8-1.6,2.7c-3.2,0.9-6.8,2.4-11.2,1.3l-0.7-2.1c0.1,0.6,2.8,1.4,4.1,0.8c-1.9,0.8-6.6-3.1-8.8-0.5l3,1.6
	c-3.2,0.9-7.2,2.9-11.1,2.1c1.7,2.1,0.9-0.2,3.6,2.3c-2.3-3.1,10,0.6,6.3-2.7c2.7,2.9,4.9,1.4,8.5,3.9c-0.1-0.7-1.3-1.4,2-0.9
	c0.2-0.2,0.5-0.4,0.8-0.6l0.2,0.1l-0.2-0.1c0.1-0.1,0.2-0.1-0.1,0c-0.6-0.2-1.2-0.6-1.6-1.1c1.7-1.5,6.9-1.2,8.7-2
	c1.9,0.4-0.9,0.8,0.2,1.5l2.7-1.1c0.2,1.5,5.1,2.8,0.4,3.5l4.1,0.2c2.4,1,5.7,1.5,7.8,0.9c1.9,0.4,5-1.5,3.2-0.4l6.5-0.6l0.1,0.4
	c6.4,0.5,13.3-1.9,20.5,1.1c2.6-0.5,5.3-0.5,8-0.1l0.6,1.3c2.8-0.3,8.2,1.7,9.5,0.4c2.8,3.7,13.4,1.4,18.2,2.2l0.3-1.7
	c3.6,0.2,7.2,0,10.8-0.6l-0.2-1.5c3.6-1.1,9.3,1.5,14.7,1.7c-0.4,0.5-1.8,0.3-2.7-0.1c3.2,1.9,6.5,1.5,9.8,1.2s6.3-0.6,8.5,1.4
	c0.6-0.1,1.2,0,1.7,0.2c0.4,0.2,0.8,0.5,1.1,0.8c-0.1,0-0.2-0.1-0.3,0c0.1,0.1,0.3,0.2,0.5,0.2c0.4,0.5,0.8,0.9,1.2,1.4
	c-0.2-0.5-0.5-1-0.9-1.3c0.4,0.2,1,0.4,1.6,0.6s1.3,0.4,2,0.6c-0.1,0.6-0.2,1.1-0.4,1.7l0.3,0.1c0.7,1.2,1.3,0,1.4-1.5
	c0.7,0.2,1.4,0.3,2.1,0.3c-0.2,0.5-0.1,1.1,0.2,1.5c0.3,0.3,0.7,0.6,1.1,0.8c0.4,0.2,0.8,0.6,1.1,1c0.3,0.5,0.3,1.2,0.1,1.7
	c0.6,0,1.2,0.3,1.6,0.7c0.3,0.2,0.6,0.5,1,0.8l1,1c1.4,1.3,2.9,2.7,4.4,2.4c-0.3,0.2-0.2,0.7-0.7,0c0.1,0.4,0.3,0.9,0.4,1.3
	c0.1,0.4,0.3,0.8,0.5,1.2c0.3,0.8,0.8,1.5,1.5,2.1l-1.6,1.5c1.3,0.8,2.6,1.7,3.9,2.7c0,1-0.4,1.9-1,2.7c-0.5,0.4-1.1,0.2-2.2-0.7
	c1.2,1.3,2.2,2.8,2.9,4.5c0.2,0.5,0.4,1,0.8,1.6s0.9,1.4,1.6,2.6l-1.4,0c0.3,1.7,2.4,4.4,1.3,5.6c-1.1,2.1-1,7-1.6,12.5
	c-0.3,2.9-0.9,5.7-1.7,8.5c-0.8,2.6-1.9,5-3.5,7.2c2.2-0.1,1.3,0.8,0.3,1.8c-0.6,0.4-1,0.9-1.5,1.5c-0.3,0.4-0.3,1,0.1,1.3
	c0.1,0,0.1,0.1,0.2,0.1c-1.1,0-2.2,0.7-2.1-0.9c-0.7,2.1-2.2,3.2-3.2,4.3c-0.6,0.5-1.1,1-1.5,1.6c-0.2,0.3-0.4,0.7-0.5,1.1
	c-0.1,0.2-0.1,0.4-0.2,0.7c-0.1,0.2-0.1,0.5-0.2,0.7c-1-0.4-0.1-1.7-0.9-1.8c-0.1,0.4-0.6,1.5-1.3,1.4s0-1,0.3-1.8
	c-0.7,0.6-1.3,1.3-1.7,2.2c-0.3,0.6-0.5,1.3-0.5,2c0.1,1.4,0.5,2.7,1.2,3.8c-1.1,0.1-2.2,0.4-3.2,1c-0.8,0.7-1.3,1.6-1.6,2.6
	c-1.3-0.4-3-0.5-0.3-2.2c-0.4,0.2-1.3,0.5-2.3,0.9l-1.7,0.7l-1.8,0.7c-2.4,1-4.6,2-4.4,3c-0.5-0.1-1.1,0-1.6,0.3
	c-0.5,0.2-1,0.4-1.4,0.8c-2.1,0.5-3.2,0.8-4.3,1s-2.2,0.6-4.3,1.1c0.4,0,0.8,0.1,1.2,0.1c-0.3,1.1-1.3,1.9-2.5,1.9
	c-1.4,0-2.8,0.1-4.2,0.4l0-0.3c-4-0.2-4.9,0-5.6,0.4s-1.6,0.6-5.6,0l0.6,1.6c-0.1,1.8-2,1.5-4.3,0.9s-5.1-1.4-7.3-0.5l1.7,0.8
	c-2.4,1.4-7.4-4.2-9.9-4.4c-0.6-0.3,0.8-0.6,1.6-0.8c-6.7-1.6-0.7,2.2-5.6,3c-1-1.1,1-3-2.4-3c-1.7-0.8-9.3,4.3-14,2.4
	c1,0.8,2.1,1.7-0.2,2.4c-3.5,0.5-9.6-2.9-12.6,0.1c-0.5-0.2-0.6-0.4-0.7-0.7c-2.6,0.9-8.6,1.5-10.2,3.1c-1.3-2.8-5.5-1.9-9.3-1.1
	s-7.3,1.7-7.4-0.9l-8.2,0.5l0.2-0.5c-5.3-0.3-7.1,1-8.9,2.3c-1.2-0.3-0.3-0.8-0.2-1.1c-7.7-0.9-8.5-0.8-14.9,1.9l-0.7-1.7
	c-1.8,1-11.1-2.6-18.7-0.7c0.2-0.4,0.5-0.6,0.8-0.8c-8.5,1.9-20.3-4.9-23.5,1.2l-5.6,1.4c7.3,0.6-1.1,2.6,1.9,3.7
	c-2.9,0.3-7.4-2-3.9-2.2l0.6,0.3c1.4-3.2-9-1.3-8.8-3.5c-14.3-0.2-28.2-2.4-41.6-2.9l1.5,2.5l-4.7-0.3c-1.2-0.6-1.6-2,1.8-1.8
	c-1.7-1.5-5.6,1-5.8,1.5c-6.5-1.2,2.7-2.8,0.7-2.9l-2.7,0.1l0.6,0.3c-2.2,0.9-2.5,2-6.5,1.7c-2.5-0.6-1.2-1.6-2.2-1.7
	c0-0.2-0.3-0.3-1.5-0.1l-5.9-0.4l2.3,2c-2.7,0.9-5.5-0.3-2.9,2c-1.9-1.8-7.4-2.3-12.7-2.5l-7.3-0.2c-1.4,0-2.7-0.1-4-0.6
	c-3.2,1.1-6.7,0.6-9.5-1.3c0.3,0.5,0.2,1.1-0.1,1.6c-0.2,0.3-0.6,0.4-1,0.3c-0.6-0.1-1.2-0.4-1.7-0.9c0.7-0.4,1.1-1.2,1-2.1
	c-0.2-0.8-0.6-1.5-1.1-2.1c-1-1.5-2.2-3.6-1.3-5.4c-0.4,1.5-1.6-0.3-2.7-2.2s-2-3.9-2.9-1.5c-0.6-2.9,1.5-0.7,1.9-3.1
	c-1.8-3.1-2.4-7.1-2.5-11.3s0-8.8-0.5-13.2c-0.6-0.1-1.4,1.5-2.4-0.5c0.9-1.7,1.9-3.3,2.8-4.9c-0.3-1.8-3.5-1.7-1.3-4.9
	c-0.5,0.4-1.3,1.1-1.4-0.1c0.8-4.5,1.4-8.9,2-13.3c0.5-4.4,1.4-8.7,2.5-13c1.1-4.1,2.9-8,5.5-11.4c0.3-0.4,0.6-0.8,1-1.1l1.1-1
	c0.7-0.5,1.5-1,2.3-1.5c0.8-0.4,1.7-0.8,2.5-1.1l1.3-0.3c0.4-0.1,0.9-0.2,1.3-0.2c-0.4,0-0.7-0.1-1.1-0.2c-0.2-0.1-0.2-0.2-0.2-0.4
	c0.1-0.3,0.7-0.6,1.4-0.9c-1,0.1-0.6-1.3-1.1-2c0.6,0,1.1-0.1,1.7-0.1l1.7,0.1c1.1,0.1,2.2,0.2,3.3,0.4c0.1-0.3,0.3-0.6,0.5-0.8
	c0.3-0.2,0.6-0.3,0.9-0.4c0.8-0.2,1.6-0.3,2.5-0.3c1.8,0.1,3.4,0.1,3.9-0.9c-0.8,0-1.5,0.1-2.2,0.2c1.5-1.2,0.7-2.6-0.8-4.2
	c-0.4-0.4-0.8-0.8-1.2-1.2S45.3,18,45,17.6c-0.7-0.6-1.1-1.4-1.1-2.3c-0.5,0.4-1,0.6-1.6,0.8c-0.6,0.2-1.3,0.2-1.9,0.3
	c-0.7,0-1.5,0-2.2-0.1c-0.8,0-1.6,0-2.4,0c-0.4,0-0.9,0-1.3,0.1c-0.4,0-0.9,0.1-1.3,0.2c-0.9,0.2-1.7,0.5-2.6,0.8L30,17.5
	c-0.2,0.1-0.4,0.2-0.6,0.4c-0.4,0.3-0.7,0.6-1.1,0.9c-0.7,0.7-1.3,1.5-1.6,2.4c-1.6,0.5,0.5-1.7-0.7-1.8c-0.3,1.1-0.9,2.2-1.8,3
	c-0.5,0.5-1,1-1.5,1.5c-0.6,0.5-1.3,1.1-2,1.8v-0.6c-2.8,3.6-5.4,7.4-7.6,11.3c-2.4,4.1-4.3,8.5-5.7,13.1l1.8-0.5
	c-0.4,1.4-1.1,2.7-2,3.9c0.9,1.6,1.3-0.1,1.7-1.8s1-3.5,1.9-1.9c-1,0.6-1.7,2-2.3,3.8C8.3,54,8.1,55,8,56c-0.2,1-0.4,2.1-0.5,3.1
	c-0.6,4.2-1,8.2-2.9,9.3c-0.2,3.8,1.9-1,1.7,2.8l-1,1l1.3,1c-0.2,2.5-1.5,3.7-2.3,3.8c0-0.8-0.1-1.6-0.3-2.4
	c-1.2,3.3,0.6,9.2,0.3,10.3c0.1-1.2,0.3-2.5,0.4-3.7c0.6,5.2,1,10.9,1.9,16.6c0.4,2.8,1,5.7,1.8,8.4c0.7,2.7,1.8,5.3,3.2,7.8
	c0.1-0.3,0.3-0.7,0.5-1c1.3,2.1,2.3,4.4,3,6.7c0.3,1,0.7,2,1.2,2.9c0.9,1.6,2,3.1,3.4,4.3l-0.4-0.1c1.9,1,4.1,2.4,6.4,3.9
	c-1.3-0.3-0.5,0.7,0.2,1.7s1.6,1.8-0.2,1.4c1.7,0.7,3.5,1.1,5.3,1.3c0.7,0.1,1.3,0,2-0.1c0.4-0.1,0.8-0.3,1.4-0.6s1.5-0.6,3-1.1
	c0.4,0.5,0.8,0.9,1.2,1.4c2-1,2.2-1.5,6.3-1.7c-3.3,1,2.5,2-1.3,3.3c8.3,3.1,12.5-2.3,16.3,1.9c4-3.3-7.2-2.2-5-2.9
	c-1.8-1.2,3.3-2.5,5.9-2c2.7,0.2,4.4,4.6,11.1,4.8c-0.7,0-0.7,0.2-1.4,0.2c2.5,1,5-1,8,0.5c1.8-2,4,0.3,4.6-2.4l-6.2,0.4
	c3.5-0.6,6.9-3.6,12.6-1.9c-1,0.7-2.2,1.2-3.4,1.5c1.7,0.9,3.3-0.4,5,0.5c-0.6,2.7-7.5,0.3-11.3,2.2c1.8,1.2,7.2-1.7,5.2,1.1
	c2.8-3.6,6.6,0.7,11.3-2l-0.3,1.6c1.1-0.5,2.3-0.8,3.6-0.9l-2.5,2c3.8-1.7,7.1,1.8,10.7,0.9c-7.4-0.2-1.6-2-4.7-3.2
	c9.2-1.9,5.1,4.4,15.4,3.9c-1.4,0.2-5.2-1.1-3-1.8c1.9,0.4,4.5,1.1,5.7,1.9c6.8-0.2-1-1.7,1.9-2.6c2.3,2,3.4-0.7,6.3-1.3v1.6
	c7.7,1.2,2.1-3.4,9.1-1.9l-3,2.2l3.6-0.5l-0.8,1.9c4-1.3,5.2-0.9,9.1-0.3c-0.9-1.2,0.6-3,4-2.9c2.3,1-1.3,1.6,3.5,1.4
	c-1.1,1-2.3,2.3-4.4,0.7c-0.2,0.5-1.1,1-1.3,1.5c2.5,1.2,6.3,0.4,8.1,0.4c-0.7,0-1.3-0.2-1.9-0.4l7.1-2.2c1.1,0.6,0.2,1.1-0.7,1.6
	c1.4-0.2,2.4-0.9,4.5-1c-0.6,1.3-0.4,2.7-3.4,3.3l6.7-1.4c0.4,0.6,3.4,1.6,2.6,2.1c3.7,0.8,9.2-2.5,14.1-1.5
	c0.5-0.4,1.2-0.6,1.8-0.7c4.6,0.3,8.8,1.9,14.3,0l3.2,2.3c4.3-0.6-4.3-2.9,2.9-3.9c5.1-0.8,1.9,2,3.7,2.6c2.5-1.2,6.9-3.8,11.6-2
	C222.1,141.8,220.9,141.5,219.4,141.7z M272.7,138.4c-1,0.4-3,1.6-3.8,0.7C269.9,137.1,270.9,138,272.7,138.4z M351.6,115.3
	c-0.3,1-1.5,1.4-3,1.8C349.5,116.3,350.5,115.7,351.6,115.3z M223.6,20.4c0,0,0.1,0,0.1-0.1C226,21.1,225.2,20.8,223.6,20.4
	L223.6,20.4z M218.9,19.5c-0.5,0.2-0.5,0.4-0.3,0.7c0.4-0.4,1.4-0.4,2.6-0.2C220.9,19.5,220.3,19.2,218.9,19.5L218.9,19.5z
	 M71.3,124.6l0.9,0.5C70.2,125.5,70.8,125.1,71.3,124.6z"/>
<path class="st0" d="M344.5,122.6c-0.3-0.1-0.6-0.3-0.8-0.5C343.4,122.4,343.6,122.8,344.5,122.6z"/>
<path class="st0" d="M186.3,143h-0.2c-0.1,0.1-0.1,0.2-0.2,0.3L186.3,143z"/>
<path class="st0" d="M293.2,8.9c0.7,0.2,1.3,0.5,1.9,0.9C295.1,9.5,294.6,9.1,293.2,8.9z"/>
<path class="st0" d="M193.6,21.2l3.1-0.3c-0.9,0-1.9-0.2-2.7-0.7C194,20.6,194.5,21.2,193.6,21.2z"/>
<path class="st0" d="M167.6,9.8c-0.5,0.2-0.9,0-1.4,0.1l0.1,0.8C168.2,10.8,169.5,10.2,167.6,9.8z"/>
<path class="st0" d="M191,15.6c-0.2-1.4-2.1-1-4.3-0.9c0.1,0,0.2,0,0.4,0C186.4,16.7,188.7,16.1,191,15.6z"/>
<path class="st0" d="M186.2,14.8c-0.7,0.1-1.3,0.1-2,0C184,15.5,185.1,14.9,186.2,14.8z"/>
<path class="st0" d="M212.8,20.1c-1-0.4-0.7,1.7-1.3,1.1C210.4,23,218.4,19.5,212.8,20.1z"/>
<polygon class="st0" points="189.5,11 190.2,12.7 191.4,11.4 "/>
<path class="st0" d="M206.3,13l-3.4-0.6c0,0.3-0.4,0.4-0.9,0.5C204,13.1,206.3,13.5,206.3,13z"/>
<path class="st0" d="M201.9,12.9c-0.9-0.1-1.9-0.1-2.8,0.1C200.1,13.1,201,13,201.9,12.9z"/>
<polygon class="st0" points="194.1,10.7 195.1,11.1 197.6,11.3 "/>
<path class="st0" d="M242.9,15l3.7-0.3c0.4-0.6-0.6-1-2-0.8C243.7,14.2,242.3,14.4,242.9,15z"/>
<path class="st0" d="M231.8,9.8c1,0.4,1,0.8,1.6,1.4l0.2-2.1L231.8,9.8z"/>
<path class="st0" d="M242.7,9.8c0.4-0.6,5.5-1.4,0.8-1.5C243.1,8.9,239.3,9.2,242.7,9.8z"/>
<polygon class="st0" points="298.6,14.9 297.7,14.9 297.7,18.4 "/>
<path class="st0" d="M351.7,16.1c-2.2-1.9-2.8-1.4-3.2-1.1c-0.2,0.2-0.5,0.3-0.8,0.3c-0.7-0.2-1.4-0.6-2-1.1
	c-0.7,0.1,0.1,0.7,0.9,1.3s1.5,1.2,0.8,1.2c1.6,0.3,2.7,0.9,3.4,1S351.8,17.4,351.7,16.1z"/>
<path class="st0" d="M347.4,16.6c-0.5-0.1-1.1-0.2-1.7-0.2C346.3,16.5,346.8,16.6,347.4,16.6z"/>
<polygon class="st0" points="46.6,27.7 48.8,28.5 47.4,27.3 "/>
<path class="st0" d="M51.3,25.5c0.1,0.8,0.2,1.5,0.2,2.3c0.6-0.6,1.2-1.2,1.8-1.7C52.8,26.1,51.7,26.1,51.3,25.5z"/>
<path class="st0" d="M280.9,142.3l0.2-0.5c-0.5-0.5-1.2-0.5-2.5-0.5L280.9,142.3z"/>
<polygon class="st0" points="242,142.8 242.7,142.8 241.4,140.9 "/>
<path class="st0" d="M209.6,146.2c1.3,0.1,2.9-0.4,4.2-0.3C210.9,146.2,209.1,143.7,209.6,146.2z"/>
</svg>
