<svg id="Capa_1" data-name="Capa 1" xmlns="http://www.w3.org/2000/svg" viewBox="0 0 62.36 61.18"><defs><style>.cls-1{fill:#5da6bc;}</style></defs><path class="cls-1" d="M20.4,29.39l-.94-10.52,7,11.36,8.72-12.65L31.89,30.19a1.44,1.44,0,0,0,0,1.17,1.46,1.46,0,0,0,.65.43L46.85,37.7,30.64,35.93c3,5.9,7,11.21,11,16.48A105,105,0,0,0,27.81,41,78.81,78.81,0,0,0,20,51.38l1.41-14.8c-4.3,3.62-6.22,3.34-12,6.52.32-3.74,9.69-9.52,9.4-9.84C17,31.34,10.11,30.73,8.33,28.81,13.37,28.71,20.4,29.39,20.4,29.39Z"/><path class="cls-1" d="M20.35,29.89c.11-.06.07-.21-.23-.21l-.23.23Z"/><path class="cls-1" d="M18.42,29.26c-.35.09-.76.28-.56.52.36-.21.43-.11.82-.36.3,0,.51.12.45.21.11-.06.45.09.62-.05a1.77,1.77,0,0,0-1.36-.16C18.28,29.36,18.39,29.3,18.42,29.26Z"/><path class="cls-1" d="M13,37.56l.16-.1A1,1,0,0,0,13,37.56Z"/><path class="cls-1" d="M19.55,38.6c-.06,0-.08.09-.08.12S19.57,38.61,19.55,38.6Z"/><path class="cls-1" d="M20.46,38.41l0-.1C20.46,38.38,20.44,38.42,20.46,38.41Z"/><path class="cls-1" d="M13,37.56l-.41.27C12.58,37.91,12.78,37.7,13,37.56Z"/><path class="cls-1" d="M14.44,29.6l.26-.05h-.25Z"/><path class="cls-1" d="M17.57,33.1l-.06,0-.17,0Z"/><path class="cls-1" d="M12.46,31.33c.13.05.24-.14.31-.21a.47.47,0,0,1-.33.05A.24.24,0,0,0,12.46,31.33Z"/><path class="cls-1" d="M13.13,28.67l.17,0Z"/><path class="cls-1" d="M15.56,35.1a.16.16,0,0,0-.09,0S15.52,35.1,15.56,35.1Z"/><path class="cls-1" d="M20.89,23.68l0-.05S20.89,23.69,20.89,23.68Z"/><path class="cls-1" d="M20.34,29.39l0-.09a.25.25,0,0,0-.12,0Z"/><path class="cls-1" d="M19.8,42.46v0C19.8,42.29,19.79,42.38,19.8,42.46Z"/><path class="cls-1" d="M35.65,42.71c.16.58-.72-.65-.42.19C35.26,42.79,35.94,43.37,35.65,42.71Z"/><path class="cls-1" d="M14.28,29.56H14A1.05,1.05,0,0,0,14.28,29.56Z"/><path class="cls-1" d="M35.23,42.9h0l0,.09Z"/><path class="cls-1" d="M22.6,49.1a.42.42,0,0,0-.17.08S22.48,49.19,22.6,49.1Z"/><path class="cls-1" d="M19.92,45.76l-.05.23A1.2,1.2,0,0,0,19.92,45.76Z"/><path class="cls-1" d="M25.66,44.51a.87.87,0,0,0,.24-.26s0,0-.06,0A.46.46,0,0,1,25.66,44.51Z"/><path class="cls-1" d="M28.38,42.18a.64.64,0,0,1,0-.07l-.08,0Z"/><path class="cls-1" d="M25.29,30.09a1.65,1.65,0,0,1-.09-.51C25.18,29.84,24.45,28.75,25.29,30.09Z"/><path class="cls-1" d="M14.44,29.48a.19.19,0,0,1-.16.08h.17S14.48,29.5,14.44,29.48Z"/><path class="cls-1" d="M24.49,43.29l.55-.62C24.88,42.83,24.68,43.06,24.49,43.29Z"/><path class="cls-1" d="M37.27,34.67l-.18-.05A.45.45,0,0,0,37.27,34.67Z"/><path class="cls-1" d="M26.92,40.44a3.82,3.82,0,0,0,.6-.46l.11-.2Z"/><path class="cls-1" d="M21.81,25c.41.66.43.17.65.22.56.76.05.48.1.82.36.46.82.71,1,1.08,0,.06,0,.14-.09.08a4.18,4.18,0,0,1,.75,1,6.69,6.69,0,0,0,.92,1.18.5.5,0,0,1,0,.18.47.47,0,0,1,.18-.44c.25.4.5.49.51.85-.13-.23-.18-.17-.28-.22l.29.32c.15.74-.39-.47-.51-.28.36.48.72.91,1,1.27a6.09,6.09,0,0,1,.66-1c.19.17-1,1.67-.39,1.12l-.28.34L26,30.71c.46,1.52-.45-.8,0,.71l.45.77c.79-1.14,1-1.66,1.95-3,0-.28-.22-.05-.2-.33.69-1.45,1.24-.66,1.62-1.82a1.22,1.22,0,0,1,.44-1.21l.08.4c.64-.88,0-.75.81-1.57,0,.23-.4.76-.28.64.61-.47.16-.52.48-1l.28.05.23-.38a2.17,2.17,0,0,0,.17-.31c0-.1.09-.21.13-.33a9,9,0,0,1,.47-.92,2.25,2.25,0,0,0-.13.6c.28-.58.57-.86.43-.47-.09.22-.17.43-.26.63.16-.3.3-.56.44-.8,0,.06-.22.46-.3.59-.2.43.28-.52.43-.76a4.56,4.56,0,0,1-.39.75c.15-.21.25-.22.24,0a1.85,1.85,0,0,1-.3.88l-.06-.06c-.08.15,0,.15.05.48a1.2,1.2,0,0,1-.14.87V25c-.28.91-.51,1.88-.74,2.8-.12.45-.25.89-.38,1.3-.07.21-.14.4-.22.59s-.15.32-.25.62c.11.24,0,1,.46,1.6a1.87,1.87,0,0,0,.83.52c.18.05.31,0,.38,0a12,12,0,0,0,2,1.3c.36.17.66,0,1.15.12l-.08.22.73,0,.23.4.46.12c-.17-.08-.33-.25-.28-.3a3.22,3.22,0,0,1,1.57,1l.19,0h.19a3.15,3.15,0,0,1,.37,0,3.43,3.43,0,0,1-.39,0c.52,0-.35.13.13.09a2,2,0,0,1,.37,0c-.14.09-.05.13.34.23L39,35.61a1.53,1.53,0,0,0,.34.12c.21.06.5.15.62.2.41.09,2.13.5,2.53.63l-1.59-.39c1.12.3.47.1,1.88.49h0c-.48-.08-2-.5-2.47-.63l.38.13-1.27-.35c.47.13,0,0-.28-.06s-.47-.14.18.07L39,35.71c-.1,0,.15.1,0,.09.5.27.29.2.45.39a5.57,5.57,0,0,1-.68-.21l-.24-.09-.07,0-.19,0-.39-.05c-.75,0-.23.16-.58.25,0-.2-1.07-.3-.52-.37a31.68,31.68,0,0,0-3.2-.16c.16.1.35.16.24.21-.29,0-.64-.15-.59-.24h.08a6.84,6.84,0,0,1-.94,0l-1.14-.15-1.25-.2L29.26,35a2.06,2.06,0,0,0,.16.48c.28.67.6,1.43.94,2.09.17.34.35.67.53,1a2.32,2.32,0,0,0,.38.49L31.22,39c.3.4.61.8.93,1.19.32.6-.34-.28-.18.22,1.11,1.21,1.3,2.19,2.21,3.18.09,1.18,2.08,3,2.6,4.3l.06-.15c.32.21.19.4.32.63.07-.1-.13-.39.06-.25,1.26,1.54,2.4,3.25,3.54,5l1.56-1.38c-.72-.8-1.46-1.6-2.21-2.35s-.94.08-1.8-1.11l.47.08c-1.9-1.3-3.54-3.07-5.47-4.25.14,0,.19,0,.36.11-.26-.43-1.38-1.08-1.47-1-.27-.23,0-.16-.11-.35-.32-.37-1.1-.53-1.19-.82,0,0,.14,0,.22.07-.3-.11-1.16-.87-1-.53-.16-.14-.32-.26-.48-.38l-.6-.39-.77-.52L27.86,40l-.18-.14a1.83,1.83,0,0,0-.16.13,6,6,0,0,1-1,1.22c-.3.32-.44.47-.37.65-.23-.27-1.18.95-1.38,1.47,0-.2-.38.29-.36,0-.38.48-.67,1-.47,1-1,.63-1.11,2-1.9,2.19,0,.08-.13.22-.15.25l0,.11-.09.23c-.05.14-.12.3-.21.49-.18.38-.42.83-.68,1.3l0,0,.09-.25a4.26,4.26,0,0,1,.34-.74,2.32,2.32,0,0,0,.25-.71c-.09.23-.25.61-.44,1l-.05.11,0,0s0,0,0,0,0,0-.05-.05a1.58,1.58,0,0,1,0-.5c.08-.26.17-.21.24-.33s0-.36,0-.59,0-.34,0-.51a8.87,8.87,0,0,0,0-1s.05.15.07.29c0-.26.1-.61-.05-.6v.27c-.26.4-.36-1.1-.48-1.16.4.49.24-1.33.73-.56,0-.17-.06-.4-.17-.37.06-.26.12-.33.22-.06,0-1-.19-.64-.11-1.5.08,0,.09.19.17.28a3.47,3.47,0,0,1-.08-1.62s.11,0,.09.18c0-.63,0-1.1,0-1.94a11.86,11.86,0,0,1,.16-2.39c.15,0,.2-.16.24-.41s.11-.62.16-.85c0,0,0-.06,0-.13l-1.05,1,.25,0c-.38.31-.78.69-1.13,1a4.38,4.38,0,0,1-1,.75l.54-.53-.71.54-.34.26-.24.17.31-.14.41-.22c-.33.32-.25.38-.23.44s0,.1-.37.3c.13-.11-.56.34-.93.36h0a2.2,2.2,0,0,1-.94.62c-.15,0-.05-.33-.15-.35-.16.36-1.33.69-1.59,1.08.1-.1,0-.24,0-.25L15,40.1c-.3.06-.35,0-.35-.08-.85.33.4.22-.65.5.07-.05,0-.06.18-.15a5.45,5.45,0,0,0-.74.3c-.24.11-.5.24-.63.32a5.63,5.63,0,0,1-1,.46c.09-.35.53-.33.49-.57-.26.15-.59.38-1,.67l-.47.31-.24.15s-.09.07-.1.06l0-.08a1.27,1.27,0,0,1,.23-.75l-.15.21c-.44.24-.22-.06.07-.34s.61-.54.59-.69c0,.08.29,0,.23,0a4.76,4.76,0,0,0,.5-.66,7,7,0,0,1,.45-.58c.19-.24.4-.49.65-.75l-.06.19c.46-.31,1.11-.93,1.6-1.28.07-.19.35-.4.09-.38a6.82,6.82,0,0,0,2.17-1.56c.32-.3.61-.58,1-.87s.9-.61,1.3-1c-.11.17-.26.45-.12.3s.33-.42.29-.68a2,2,0,0,0-.59-.6c-.06.16.09.18.14.45-.21-.14-.66-.33-.95-.51.65.3.29-.17,0-.42,0,.07-.12.06-.13.12-.64-.67-.28.24-1.15-.36l.08-.06a9.35,9.35,0,0,1-1.12-.24c-.09-.25.42,0,.49-.12-.55-.17-1.19,0-1.62-.32.25,0,.58.12.83.13a2.32,2.32,0,0,0-.94-.51l0,0-.9-.37.22.13c-.83.3-1.41-.32-2.42-.29,1,0,.2-.13.34-.33-.21-.13-.52-.33-.4-.35-.48,0-.63-.38-1.28-.39,0-.08-.4-.21-.22-.33-.47-.21,0,.18,0,.23a1.62,1.62,0,0,1-.91-.62l-.36.85a6.28,6.28,0,0,0,2.16,0c1.13-.12,1.34-.36,2.39-.44.35.13-.29.25-.29.25a4.41,4.41,0,0,0,1.53.08c-.12.06,0,.12.15.21.43,0,.3-.26.86-.12a1.34,1.34,0,0,1-.44.28c.51,0,1-.15,1.54-.18.13.13-.33.17-.52.24a4.65,4.65,0,0,0,1.73-.2l-.37-.1c.21,0,.09.18-.07.21-.51.12-.72-.12-.74-.2l.37,0c-.35-.46-1.5,0-2.25-.09l.33-.3-.78.22c-.16-.09-.27-.27.11-.3-.53-.18-.48.09-.94-.11,0,0,0,0,0,0l-.53.07c.11-.06-.08-.22.24-.16-.94-.22-1.53.18-1.88-.07l.08,0c-1.32.09-.14.23-1.13.49l-.66-.57-.13.23c-.13,0-.4,0-.35-.12-.51.17.08.1-.21.26a.78.78,0,0,0-.23-.05l-.16,0,.11.16c.41.61,1.39.79,1.36,1.16.28-.06-.51-.41.17-.21,0,.45.77.26,1.27.62-.24.13-.74-.17-.23.21.45-.2,1.09.45,1.59.53.11-.25,1.09.2,1.92.35-.08.07,1.48.6,2.14,1l0,0c.12-.1.36-.06.63,0a4.65,4.65,0,0,1,.69.3,1,1,0,0,1-.54,0,1.43,1.43,0,0,1,.27.15.79.79,0,0,1,.54.19h-.37l.12.1a.22.22,0,0,1-.05.11,1.06,1.06,0,0,1-.16.23,2.43,2.43,0,0,1-.77.59c.07.19.93,0,.21.68a.21.21,0,0,1-.05-.37,1.18,1.18,0,0,1-.36.33l.21-.39c-.39.2-.09.26-.37.45-.09-.12-.27.08-.3,0s.28-.13.35-.26a2.94,2.94,0,0,1-1,.44c.08,0,.12.16-.09.35-.58.47-.31,0-.7.23-.08.19-.51.4-.38.59a.43.43,0,0,1-.37.08c-.24.32-1.35,1.2-.87,1.09l.09,0-.05,0h0a11.12,11.12,0,0,1-1.39,1.35l-.38.32-.43.43a5.66,5.66,0,0,0-.73.9l-.1,0a4.6,4.6,0,0,0-.82,1.93C9.26,42.6,9,43,9,43a2.06,2.06,0,0,0,0,.34s0,.12,0,.11l.1,0a.4.4,0,0,1,.38,0c-.54.26-.11.23-.46.17.11,0,.13.14.17.21A7.69,7.69,0,0,0,10.65,43c-.62.54.53,0,1.07-.34-.22.07-.43.12-.61.16a13.82,13.82,0,0,1,1.41-.69,4.29,4.29,0,0,1-.28.41,6.85,6.85,0,0,0,.82-.31l.39-.17.23-.12c.3-.16.57-.34.84-.52a3.16,3.16,0,0,1,1.69-.65c.29-.32-.81.22-.56-.11.65-.24,1.47-.23,1.67-.33.95-.33.65-.74,1.58-1.18-.16,0-.39-.14.2-.62s.67,0,.52.2-.13.06-.15,0c-.18.15-.41.35-.12.28l0-.13.42-.17c.11,0,.15,0,.12.08.14-.21.11-.25-.06-.19.27-.06.43-.28.65-.42,0,0,0,.09,0,.14.06-.15.2-.45.19-.37-.2.86.17,0,.15.59-.18.43-.34.14-.26.55-.12.29-.25.06-.32.05s.05.06,0,.22a4.32,4.32,0,0,1-.1.54c-.09.34-.19.63-.23.86l0-.44a3.88,3.88,0,0,1,0,.7l.21-.23c-.06.25-.08.47-.16.45.1.28.32-.17.43.37-.12.33,0,1-.25,1.15.18-1.07-.25.09-.2-.82a2.32,2.32,0,0,1-.07.65s0,0-.05-.12c-.31,1,.23.5.12,1.57-.12-.15-.28.22-.27.4.05-.43.25-.18.31.22-.17.68,0,.75,0,1.11l.09-.4c.12.15.07.49.07,1-.11,0,0-.44-.1-.27a.85.85,0,0,1,0,.42c0,.15-.08.4-.14.63a5.34,5.34,0,0,0-.22,1.58c-.16.63-.29.33-.41.92a5.84,5.84,0,0,1-.15,1.54,7.2,7.2,0,0,0-.19,1.66c.27-1,.21-.81.35-.38l.06-2a4.76,4.76,0,0,0,.18.81c.06-.6,0-1.07.06-1.52.12.38.07.35.28-.19a2.9,2.9,0,0,0-.17,1.26,3.07,3.07,0,0,1-.09,1.2L19,53.5q-.07.44-.12.78a1.87,1.87,0,0,0,0,.53c.37-.61.79-1.38,1.2-2.1a19.64,19.64,0,0,1,1.24-2l-.35.4a3.18,3.18,0,0,1,.48-.89c.19-.27.42-.6.59-.9,0,.28.24,0,.45-.14-.07-.11.95-1.32.76-1.58l.51-.36c.71-.81.39-1.24,1.07-2-.06.35.31,0,0,.66.21-.27.42-.5.34-.56.2-.1.44-.88.75-1,0-.16-.05-.29.21-.59.05,0,.05.05.05.05s.31-.53,0-.37a3.08,3.08,0,0,0,.75-.59l.36-.39.3-.36.24-.28c.08-.08.15-.25.25-.11a1.18,1.18,0,0,1,.39.47c.57.35,1.39.88,1.93,1.26-.06,0-.05.06-.14,0,.67.68.72,0,1.49.78.29.53-.54-.24-.32,0-.18.48,1.07.73,1.46,1.41l-.15-.09c.33.47,1.17.69,1.84,1.29,0,0-.06,0,0,.06a10.31,10.31,0,0,1,2.29,1.4c-.33,0-.36-.18-.36.08.31.23.11-.31.74.16.12.24.48.68.4.89l-.56-.48c.11.45.72.62,1,.91l-.11.06c.86.72,1.07.51,1.94,1.35l0-.15c.68.24.29.5.92.8l-.06.35.73.51.64-.56c-.33-.3-.72-.69-1-1a6.52,6.52,0,0,1,1.16.92l-.89.78-.43-.27.36.34,1-.91a3.58,3.58,0,0,0-.85-.86,1.55,1.55,0,0,1,.39.42,5.05,5.05,0,0,1-1.54-1.46c.55-.23-1.23-1.89-1.23-2.67a32.11,32.11,0,0,1-2.72-3.93c0,.77-.3-.42-.63-.08-.25-.32-.33-.46-.33-.51l-.45-1.19c-.05-.32.29.27.36.18-.45-.77,0-.42-.25-1-.08.19-.37-.13-.59-.6l.2.72c-.87-.93-.24-1.12-1.1-2.08l.33.27c-.2-.25-.5-.77-.82-1.27l-.23-.33-.11-.09-.36-.22s.2,0,.28.06a1,1,0,0,0-.18-.28c-.06-.09.06-.08.15-.12a1.17,1.17,0,0,1,.4,0,4.9,4.9,0,0,1,1,.18l-.13.1c.3,0,.53-.16.88,0,0,.05-.13.1,0,.12a3.47,3.47,0,0,1,1.17,0l-.34.09a6.41,6.41,0,0,0,1.91.1l.84-.08c.39,0,.84,0,1.28,0,.08.18.62.35,1.36.5s1.63.3,2.24.39l.06.06a35.64,35.64,0,0,0,3.93.29c1,0,1.6,0,2.49,0,1.1.23,2.2.41,3.29.56-.67-.32-1.76-.77-2.79-1.22s-2-.87-2.73-1.24c.19.14-1.11-.18-1.64-.36A9.27,9.27,0,0,0,44.55,36c-.4-.13-.61-.22-.12-.18l.19.08c.45-.14-1.21-.74-2.22-1.17l-.84.09c-2.43-1.64-4.74-1.74-5.44-2.59-.4-.06-.85-.25-1.24-.3l.1-.19c-.49-.23-.86-.41-1.26-.58l-.65-.27-.16-.06-.08,0a.53.53,0,0,0,.15-.08s-.73.19-.55-.54l.36-.12a18.35,18.35,0,0,0,1-3.84s.12.09.07.3c.09-.3.29-.86.41-1.34a2.82,2.82,0,0,0,.1-.61c0-.19,0-.36-.16-.27.14,0,.3-.58.43-1.26s.22-1.41.27-1.84l.25-.13a1.87,1.87,0,0,1-.08-1.35c.11-.33.35-.68.16-.16.44-1.27-.17-.15.31-1.56a.28.28,0,0,1,.15,0c.28-1,.13-.73-.07-.59a16.85,16.85,0,0,1,1-3l-.07.12a12.63,12.63,0,0,1-1.06,1.85,6.56,6.56,0,0,1,.42-.84,12.31,12.31,0,0,0-1.2,1.81,5,5,0,0,1-.89,1.29c0-.2,0-.25,0-.23.78-1.13,1.4-2,1.31-1.84.16-.4.08-.39.07-.5s.05-.31.56-1.29l-1.48,2.63a14.42,14.42,0,0,1-1.19,1.9s0,0-.06,0l.08-.16a4.33,4.33,0,0,0-.44.69,7.68,7.68,0,0,0-.55.71c-.09-.16-.86,1.09-1.22,1.6.14.16-.29.73.21.31-.06.06,0-.1.25-.42a1.64,1.64,0,0,0,.12-.22v.06l.78-1.16a3.87,3.87,0,0,1-.82,1.34c-.1.39-.17.72-.2.89a4.39,4.39,0,0,0-.45.3l-.41.31c-.27.21-.49.39-.61.39a11.3,11.3,0,0,0-1.49,3c-.14.29-.3.24-.42.3a2.88,2.88,0,0,0,.21-.47c-.27.58-1,1.58-.89,1.85-.21.2-.2.06-.2,0s0-.1-.17.17v-.15a.74.74,0,0,0-.37.37c-.16-.19-.35-.16-.8-.7a6.19,6.19,0,0,1-1.19-2.1c.05.16.08.24.06.29-.3-.61-.65-1.21-1-1.81s-.8-1.24-1.2-1.86c-.51-.79-1-1.53-1.46-2.35s-1-1.7-1.6-2.9c-.32-.59-.46-.79-.52-.8l.34,1.57-.28-.6.44,1.92a3.7,3.7,0,0,1,0,1.69,6.28,6.28,0,0,0,.18,2.47,1.91,1.91,0,0,1,.14-.21c0,.16,0,.37.05.59l.06.53c0,.33,0,.58,0,.55a.34.34,0,0,1,.11.36l-.11,0,.31,1.24c0,1-.48-.11-.38,1.32.09.52.48,1.47.54,1.27s0-.55.15-.58l.1.48c.36.05.75.39.89-.82l-.29-.81.15-.28.07.7a1.12,1.12,0,0,0-.16-.92.56.56,0,0,0,.16-.37L20.73,26c.13-.11.31.34.33-.21-.19-.37-.27.39-.43-.23.12-.41.26-.31.09-.76.08-.08.15,0,.2.2-.14-.37-.15-1.19-.33-1.13.09-.08.07-.2.06-.31s0-.17.2.05a2.47,2.47,0,0,1-.35-.83c.25.55.24.42.24.35s0-.17.29.53a5.43,5.43,0,0,1-.34-1.07s.12.16.14,0c0,.06,0,.22,0,.14a4.41,4.41,0,0,1,.24.79c-.12-.77,0-.66.19-.74a.72.72,0,0,1-.05.54,1.23,1.23,0,0,0-.07.46c0-.46.18-.17.25-.44,0,.35,0,.24-.1.47.15-.1.15-.14.23,0a1,1,0,0,0,.36.42c.21.69-.2.33.3.93C22.28,25.54,21.81,25,21.81,25Zm10.78-2.74h0l-.12.19Zm.47-.69a2.09,2.09,0,0,0-.2.27,1.86,1.86,0,0,1,.2-.54C33,21.53,33.07,21.47,33.06,21.6ZM31.69,21c.24-.39.33-.45.36-.42l-.4.63,0,.07A1.77,1.77,0,0,1,31.69,21Z"/><path class="cls-1" d="M31.39,21.91c0,.05,0,.09-.08.15l.15-.13c0-.06,0-.12,0-.18Z"/><path class="cls-1" d="M13.15,37.44l0,0,.07,0S13.17,37.44,13.15,37.44Z"/><polygon class="cls-1" points="35.65 34.11 35.67 34.06 35.53 34.05 35.65 34.11"/><path class="cls-1" d="M17.82,32.12s0-.06-.1-.11A.66.66,0,0,0,17.82,32.12Z"/><path class="cls-1" d="M14.26,30.76l-.48-.21A4.73,4.73,0,0,0,14.26,30.76Z"/><path class="cls-1" d="M11.62,29.85l-.08.07h0Z"/><path class="cls-1" d="M21.36,45.7a.2.2,0,0,0,0,.11C21.37,46.07,21.37,45.9,21.36,45.7Z"/><path class="cls-1" d="M17.82,38.72a2.91,2.91,0,0,1,.31-.3C17.92,38.52,17.77,38.61,17.82,38.72Z"/><polygon class="cls-1" points="24.43 43.36 24.43 43.36 24.49 43.29 24.43 43.36"/><path class="cls-1" d="M18.65,38.11a2,2,0,0,0-.52.31A2.47,2.47,0,0,0,18.65,38.11Z"/><path class="cls-1" d="M16.92,29.77l.14,0s0,0,0,0Z"/><path class="cls-1" d="M17.07,29.76l.15,0A.32.32,0,0,0,17.07,29.76Z"/><path class="cls-1" d="M17.54,29.71l-.32,0C17.33,29.75,17.47,29.77,17.54,29.71Z"/><path class="cls-1" d="M13.23,29.46l0,.07A.08.08,0,0,0,13.23,29.46Z"/><path class="cls-1" d="M12.11,29.44a5,5,0,0,0,1,.15l0-.06C13,29.64,12.37,29.31,12.11,29.44Z"/><path class="cls-1" d="M8.86,29.67A3.86,3.86,0,0,1,8.11,29l-.52-.55.74,0h0l0,0-.56-.27L8.1,29c.06.16.14.35-.14.13l-1-.74,1.34-.12h.08l-.08,0L7,28l.93,1.17c.39.49.37.39.36.3S8.32,29.32,8.86,29.67Z"/><path class="cls-1" d="M11.6,31c-.5-.12,0,.12-.07.16C11.87,31.14,12,31.14,11.6,31Z"/><path class="cls-1" d="M8.83,43.32l-.21.12C8.59,43.88,8.71,43.37,8.83,43.32Z"/><path class="cls-1" d="M12.67,40.87l-.2,0c0,.08-.08.16-.12.25Z"/><polygon class="cls-1" points="15.28 41.24 15.13 41.33 15.71 41.01 15.28 41.24"/><path class="cls-1" d="M28,42.14l-.06-.33c-.06,0-.06.18-.05.23S27.93,42.12,28,42.14Z"/><path class="cls-1" d="M39.54,51.21a1.08,1.08,0,0,0,.57.65A6.43,6.43,0,0,0,39.54,51.21Z"/><polygon class="cls-1" points="40.8 34.18 41.41 34.34 40.37 33.98 40.8 34.18"/><polygon class="cls-1" points="40.6 20 53.1 20 45.93 28.65 40.6 20"/><path class="cls-1" d="M40.89,19.83s-.13.07-.08.1l.16-.06Z"/><path class="cls-1" d="M40.8,20.27a.45.45,0,0,0,.36-.12c-.16,0-.11,0-.31,0,0,0,0-.1.06-.13s0-.08-.11,0,0,.19.1.21C40.88,20.25,40.83,20.26,40.8,20.27Z"/><path class="cls-1" d="M43.1,24.5v0Z"/><path class="cls-1" d="M44.59,27.08s0,0-.05,0S44.58,27.09,44.59,27.08Z"/><path class="cls-1" d="M44.7,27.61v0S44.68,27.61,44.7,27.61Z"/><path class="cls-1" d="M43.1,24.5v.09S43.11,24.54,43.1,24.5Z"/><path class="cls-1" d="M41.49,20.63l-.06,0,0,0Z"/><path class="cls-1" d="M42.3,23.45v0l-.07,0Z"/><path class="cls-1" d="M41.75,22.61s.13-.05.19-.07-.09,0-.11,0Z"/><path class="cls-1" d="M41.12,21.12l0,0Z"/><path class="cls-1" d="M42.65,24.08l0,0S42.64,24.09,42.65,24.08Z"/><path class="cls-1" d="M41.77,20.67v0S41.76,20.66,41.77,20.67Z"/><polygon class="cls-1" points="40.6 19.97 40.62 19.96 40.63 19.88 40.6 19.97"/><path class="cls-1" d="M45.26,28.87h0S45.24,28.86,45.26,28.87Z"/><path class="cls-1" d="M51.44,22.91c-.16,0,0-.22-.22-.2C51.27,22.74,51.3,23,51.44,22.91Z"/><path class="cls-1" d="M41.49,20.66l0,0S41.5,20.66,41.49,20.66Z"/><polygon class="cls-1" points="51.22 22.71 51.22 22.71 51.2 22.71 51.22 22.71"/><path class="cls-1" d="M47.38,27.85l-.06,0Z"/><path class="cls-1" d="M45.84,29.26l0,.08A.34.34,0,0,0,45.84,29.26Z"/><path class="cls-1" d="M47.75,27.09s0,0,0,0h0S47.79,27.08,47.75,27.09Z"/><polygon class="cls-1" points="48.3 26.42 48.27 26.41 48.26 26.44 48.3 26.42"/><path class="cls-1" d="M44.39,20.6l0-.13C44.37,20.57,44.24,20.61,44.39,20.6Z"/><path class="cls-1" d="M41.42,20.67a.06.06,0,0,1,.07,0l0,0Z"/><path class="cls-1" d="M46.92,26.35l.1-.09A.41.41,0,0,0,46.92,26.35Z"/><path class="cls-1" d="M50.58,20.58h0S50.57,20.59,50.58,20.58Z"/><path class="cls-1" d="M47.27,25.93a.24.24,0,0,0,.12,0l0,0Z"/><path class="cls-1" d="M44.35,20.47Z"/><path class="cls-1" d="M43.45,20.8c.13,0,.06-.18.09-.28s.07.13.13.23c.09-.05.17-.22.24-.21s0,0,0,.08c.11-.15.31,0,.43-.2a.11.11,0,0,1,0,0,.72.72,0,0,1,0-.25s.1-.12.13,0,0,.05-.06.08l.06-.05c.06.17-.08.06-.08.19.12-.06.26-.2.35-.15s-.22.06-.09.21l-.15-.07c.11.27-.08,0,0,.27.19.05.21-.09.39,0s0-.14,0-.23c.27-.17.21.43.4.2s.07-.33.21-.22l0,.2c.18,0,.1-.28.29-.15,0,.08-.14.06-.12.09s.09-.11.18-.11l0,.17c.2,0,.41-.15.62-.18,0,.05,0,.1,0,.15a1.37,1.37,0,0,1,.84.12l.09-.14s0,.06,0,.09,0-.09.06-.15.07.09,0,.13c.17-.12.5-.27.69-.11l0,0c.15.06.17-.3.31-.16l0,0c.32.07.67-.07.91.16,0-.22.31.09.33-.21.19.15.13.2.39.3.07,0,.1-.18.19-.21v.15l.11-.16.06.18.08,0s-.07-.06-.06-.11.3.11.3.19l.3-.13c0,.06-.06.08-.1.12.16-.16,0,.16.17,0,0,0,0-.09,0-.13a.2.2,0,0,0,.15.08c.08,0,.05,0,.08,0l0,.11s.08-.06.14,0,.2-.24.26-.25l-.16.16c.12-.1,0-.06.21-.19,0,0-.2.19-.26.24l.09-.05-.17.13c.15-.1-.21.16,0,0l-.07.05.16-.06h0a3.62,3.62,0,0,1,.43-.16c-.14.09-.36.19-.36.21s.17,0,.29,0c-.2,0-.22.08-.33.07s0,0,0,.15a.52.52,0,0,1,.14,0s-.09,0-.15,0h0s0,.08,0,.09l-.23.11c-.17.07-.33.15-.3.33v0l0,.28c-.09.07,0-.12-.15-.1,0,.34-.29.3-.32.56-.4-.11-.37.48-.7.5l.08,0c0,.1-.08,0-.13,0s.1,0,.12.06c-.24.46-.76.72-1.15,1.06-.14.13.28.38,0,.42l-.08-.15c-.09.42-.5.59-.61,1,0,0-.06-.07,0-.1-.14,0-.19.22-.12.29s-.07-.05-.13-.06,0,.25-.13.21,0,0,0-.06-.16.18,0,.23c-.14.06-.12.24-.26.27.08.16-.21.14,0,.3-.17-.15-.3.07-.27.21,0-.07-.11,0-.16-.08-.06.08-.09.18,0,.24-.32,0-.07.43-.4.29-.08.28-.26.63-.26.71-.13-.2.05-.09-.1-.29,0,.14.09.35,0,.4s0-.13,0-.18c0,.14-.08.11-.11.22l0,0a.31.31,0,0,0,0-.08s0-.08,0,.08v0a.83.83,0,0,1-.16.47c.12-.36-.06-.23.13-.64a1.16,1.16,0,0,0-.07.15.31.31,0,0,1,.06-.17c-.06,0-.11.15-.14.09l.08-.11c-.07.08-.16.11-.16,0s0,0,.06,0-.37-.11-.4-.34c.22-.05,0-.1.17-.21l-.11-.07-.06.09c0-.1-.22-.11-.21-.22l.11,0-.14-.16v.14c-.14-.05-.2.13-.23,0,0,0,0-.09,0-.2h0c-.08,0-.16,0-.16-.12s.18-.09.21-.13c-.16,0-.17-.19-.35-.16a.23.23,0,0,0,.14-.07l-.13,0c0-.06,0-.08.09-.12s-.17.17-.18,0c0,0,0,0,.06,0,0-.18-.25-.26-.28-.43.13-.14.11.1.22,0-.16-.19-.46-.3-.54-.53V25c-.25.11,0-.21-.15-.25,0,0,.14,0,.11,0,0-.16-.22-.25-.42-.41h.08c0-.11-.1-.22-.13-.33s-.09,0-.16,0c.17-.47-.49-.4-.36-.8,0,0,.09,0,.08,0l-.18-.16c-.09.07,0,.06-.09.15a.2.2,0,0,1-.19-.07c.12,0,.16-.1.19-.17l-.09.05c.11-.21-.21.11-.18-.11l0,0c-.06,0-.15-.05-.18-.11s.09,0,.19,0c-.06-.08-.32,0-.25-.17.06,0,.09.06.14.08.08-.17,0-.15,0-.23h0l0-.17,0,.05c-.36.09-.18-.17-.46-.19.27,0,.12,0,.26-.11s0-.13.06-.14c-.14,0,0-.16-.19-.16,0,0,0-.07.08-.12-.09-.06-.06.07-.12.09-.22,0,0-.41-.33-.47s-.33-.06-.49-.16c0-.09.17-.06.17-.06a.18.18,0,0,0-.13-.21c.05,0,.07-.05.1-.1s-.18.05-.17-.06a.72.72,0,0,1,.21-.05c-.08-.05-.21-.07-.29-.12s.14,0,.2,0-.2-.17-.33-.13v.08s.09-.08.13-.07,0,.13,0,.16l-.06,0c-.21.2.17.19.23.3l-.21.07h.22c0,.06-.12.13-.18.1,0,.13.1,0,0,.15s0,0,0,0l.1,0s-.12.09-.12,0c0,.2.27.13.16.27h0c.17.15.14-.06.38,0l-.27.29.15-.06s0,.06,0,.09c.13,0,.05-.05.16-.06-.06.17.21.22,0,.37.12,0,0-.13.15-.08-.21.17.11.09.06.24s-.12-.07-.17.08c.22-.07.06.19.14.24.16-.1.16.11.28.2,0,0,.06.28.07.42l0,0c.17-.08.21.06.3.12-.1.05-.14.06-.21,0l0,.08a.17.17,0,0,1,.15,0l-.13.05c.07.1.27.13.27.31.12-.06.24-.3.4-.2,0,0-.15.11-.2.09s.08,0,.07.05h-.14c0,.08.1,0,.13,0s0,.08-.11.11,0-.06,0-.06a.25.25,0,0,1,0,.22c.05,0,.11-.07.15,0s-.08.1-.08.19.05.09.18,0,0,.07-.07.1.18.25.27.1h0c.24.1.16.41.32.56l0,0c.11.08.17.22.31.24s0,.12-.09.14.13,0,.14.2c-.13,0,0,.07-.11-.05,0,.13,0,.19.16.23-.13,0-.08.16,0,.19l0-.12a.37.37,0,0,1,.09.16l-.16.06c0,.32.54.21.35.55.13,0,0-.16.14-.18s-.1.34-.08.37c0,.18.29,0,.32.17a.22.22,0,0,1,.28-.07c0,.11-.14.25-.22.21s0,0,0-.05-.09-.05-.12,0l.06,0c0,.08.07.22,0,.24.09,0,.1,0,.09-.09,0,.17.12.19.15.36,0,0,.06-.1.08-.08,0,.23.14,0,.25.14,0,.12-.2.09-.06.18s-.12.1-.18.09c.14,0,.14.39.2.52l-.11-.09a.55.55,0,0,1,.14.17l0-.16c0,.08.06.14,0,.18s.11-.21.24-.19.17.14.11.34c-.13-.3-.07.2-.22,0a.33.33,0,0,1,.1.17s0,0,0,0c.11.43.17-.08.32.17a.36.36,0,0,0,0,.31.18.18,0,0,1,.09-.26c.08.25.12.08.16.17l-.05-.14c0-.09.06-.05.11,0l0-.05a.35.35,0,0,1,0,.12s0,0,0,0l0,0c.07-.26.17.07.28-.23.07,0,0,.23.09.22.13-.33.21-.06.34-.37-.09-.07-.08,0,0-.29l-.21.39c0-.14.07-.27.1-.39-.07.08-.12.26-.17.29.05-.21,0-.16,0-.25.14.11.12-.31.26-.29l.14.29c.26-.1.27-.56.43-.63L47,28c-.07-.1.08-.12.09-.2s.13,0,.2.07.1-.12,0-.27h.16c.16-.11-.08-.34,0-.45,0,.11.16.09.14.23,0,0,.09-.07,0-.12s0-.2.11-.19-.09-.11-.05-.16l0,0s0-.12-.1-.15c.35.06.3-.39.6-.35a2.77,2.77,0,0,1,.2-.34s0,0,0,0c.17-.07-.15-.26,0-.33s0,.13.09.12c.26.19.1-.2.33-.17v0c.15,0,0-.26.17-.36s0,0,0,0a.79.79,0,0,1,.08-.51c.07.12,0,.09.13.16s-.17-.12-.12-.25.19,0,.31.06l-.08.1c.18.07.1-.13.17-.16l.05.06c.1-.16-.05-.29.09-.44l-.06,0c-.08-.21.15,0,.11-.18l.17.1a2,2,0,0,1,.07-.44,1,1,0,0,1,0,.44c.05-.05.15-.19.1-.29s0,.1,0,.1a.39.39,0,0,1,0-.41c.28.26.32-.23.61-.12.06-.29.37-.36.55-.6-.3-.11,0-.07-.2-.25,0-.07.05-.09.07-.08l.27,0c.1,0,0,.09.07.13s.14,0,.26,0c-.09-.06-.08-.14,0-.18h-.19c0-.27.31,0,.33-.24l0,.11c0-.12.26-.31.14-.55,0,0,.12,0,.1.09a1.1,1.1,0,0,0,.2-.39,1,1,0,0,1,.39-.48l.05,0c0-.07-.06-.14.09-.21s.07,0,.1,0a.27.27,0,0,1,.1-.26l0,.07c.44-.37.14-.49.23-.68a2.69,2.69,0,0,0,.94-.61l0,0a1.19,1.19,0,0,0,.17-.22c-.51,0-1.1.19-1.54.26,0-.23-.84-.1-1.26-.23.06,0-.07.17-.15.19s-.29.16-.27,0h0c-.09-.2-.19-.15-.31-.15v.26c-.27-.38-.71.14-.86-.2-.07.07-.15.06-.21.13v-.14a1.13,1.13,0,0,0-.49,0l0-.1c-.13,0-.16.41-.27.41l0-.21c-.22,0-.44-.18-.66,0,0,0,0-.09,0-.1s-.4-.14-.36.15c0-.19-.23,0-.35.06l0-.14c-.1.18-.1.23-.24.28s0-.11,0-.08-.08.14-.22.06l0-.09c-.11,0-.1,0-.16.14s-.22,0-.24-.16c0,.08-.08.18-.14.15a.14.14,0,0,1,0-.1c-.19-.09-.28.17-.41,0s0-.07,0-.08a.81.81,0,0,1,.26,0c0-.13-.12-.15,0-.33-.09.1-.26.31-.38.25l0-.05h0s-.06,0-.08,0-.06,0-.1,0-.14-.06-.2-.06-.07.11,0,.23,0,0,0,0l0,0v0h.16c0,.07-.1.13-.17.05,0,.09-.07.18-.08.23-.09-.2-.25-.31-.27-.43-.19.08-.44.06-.56.32-.05,0-.06-.08-.08-.12s.07,0,.08-.06-.31,0-.33.21c-.14-.08.07-.17-.11-.14l0-.05c-.36-.3-.58.47-1,.09,0,0,0,0,0,.06-.45-.16-.94.16-1.39-.1-.12-.06-.14.06-.22.15l0-.15-.14.17c-.19.13-.33-.37-.56-.13l0,.11c-.09,0-.28.06-.26-.06s0,.1-.06.05V19.7l-.21.14c-.16-.06,0-.32-.21-.33-.09,0-.25.23-.22.28a.14.14,0,0,1,.09.13l-.08,0c0,.23-.08.47.12.64l.14-.15,0,.12h-.12c.07.11.11,0,.16-.05a.32.32,0,0,0,.05.13l.14-.23c0,.09-.06.18,0,.23s-.06-.2.05-.27c.06.11,0,.19.12.1a.12.12,0,0,1,0,.13c.07-.07.19,0,.22-.16.07.13.24,0,.23.19,0-.05.12-.17.19-.18-.12.26.24,0,.21.3.08-.24.31-.11.46-.24,0,0,0,.06,0,0s.11.1.17.14c0-.2.14-.24.22-.36.1.19-.07.23,0,.41,0-.16.18-.16.14-.29.08.12.07.06.11.22,0-.25.08,0,.15-.19.11.12,0,.23.15.15C43.57,20.72,43.45,20.8,43.45,20.8Zm3-.42Zm.26,0h-.11c0-.05,0-.1,0-.09S46.72,20.34,46.76,20.38Zm-.54-1s.05,0,.06,0l-.08,0h0A.19.19,0,0,1,46.22,19.4Z"/><path class="cls-1" d="M46.14,19.59h0l0,0v0Z"/><path class="cls-1" d="M43.1,24.45h0s0,0,0,0Z"/><polygon class="cls-1" points="50.3 20.65 50.3 20.61 50.27 20.64 50.3 20.65"/><path class="cls-1" d="M42.77,23a.05.05,0,0,0,0,0Z"/><path class="cls-1" d="M42.48,22.46v-.1A.16.16,0,0,0,42.48,22.46Z"/><path class="cls-1" d="M42.29,22l0,0h0Z"/><path class="cls-1" d="M46,27.7h0S46,27.67,46,27.7Z"/><path class="cls-1" d="M44.9,26.57a.29.29,0,0,1,.1,0S45,26.53,44.9,26.57Z"/><polygon class="cls-1" points="46.91 26.36 46.91 26.36 46.92 26.35 46.91 26.36"/><path class="cls-1" d="M45.05,26.69c0-.05,0-.08,0-.09A.1.1,0,0,0,45.05,26.69Z"/><path class="cls-1" d="M41.28,20.26v0s0,0,0,0Z"/><path class="cls-1" d="M41.25,20.25h0S41.24,20.26,41.25,20.25Z"/><path class="cls-1" d="M41.17,20.21l.06,0A0,0,0,0,0,41.17,20.21Z"/><path class="cls-1" d="M41.55,20.83l.05,0Z"/><path class="cls-1" d="M41.66,21s0-.15,0-.19l0,0C41.68,20.79,41.57,21,41.66,21Z"/><path class="cls-1" d="M41.54,22l0-.16c0,.06-.07.13-.12.07C41.33,22.15,41.45,21.79,41.54,22Z"/><path class="cls-1" d="M41.73,22.44c-.07-.06-.07,0-.1,0S41.72,22.52,41.73,22.44Z"/><path class="cls-1" d="M43.59,25.45l-.12.06C43.52,25.56,43.52,25.49,43.59,25.45Z"/><polygon class="cls-1" points="44.51 25.68 44.54 25.59 44.42 25.62 44.51 25.68"/><polygon class="cls-1" points="43.94 26.5 43.91 26.49 44.01 26.56 43.94 26.5"/><path class="cls-1" d="M48.3,26.62l-.13-.09S48.29,26.7,48.3,26.62Z"/><path class="cls-1" d="M49.82,24.54c.07,0,.16,0,.13-.08S49.82,24.5,49.82,24.54Z"/><polygon class="cls-1" points="50.98 19.38 51.03 19.33 50.93 19.38 50.98 19.38"/><path class="cls-1" d="M47.18,10.86s-.14,0-.12,0h.17Z"/><path class="cls-1" d="M46.88,11a1.27,1.27,0,0,0,.37,0L47,11s.05,0,.11,0,0,0-.07,0-.13,0,0,.08Z"/><path class="cls-1" d="M46.62,12.44h0Z"/><path class="cls-1" d="M46.53,13.36h0Z"/><path class="cls-1" d="M46.35,13.52h0S46.33,13.51,46.35,13.52Z"/><path class="cls-1" d="M46.62,12.44l0,0S46.61,12.46,46.62,12.44Z"/><path class="cls-1" d="M47.28,11.17h0Z"/><path class="cls-1" d="M46.48,12h0Z"/><path class="cls-1" d="M46.46,11.73a.87.87,0,0,0,.2,0h-.2Z"/><path class="cls-1" d="M46.71,11.24h0Z"/><path class="cls-1" d="M46.45,12.26h0Z"/><path class="cls-1" d="M47.51,20.93h0Z"/><path class="cls-1" d="M46.81,21.29Z"/><path class="cls-1" d="M46.17,13.8h0S46.16,13.8,46.17,13.8Z"/><path class="cls-1" d="M46.27,16.43c.12,0,.16.05.3,0C46.52,16.44,46.35,16.39,46.27,16.43Z"/><path class="cls-1" d="M47.26,11.18h0Z"/><path class="cls-1" d="M46.57,16.43Z"/><path class="cls-1" d="M46.25,14.46h0Z"/><path class="cls-1" d="M46.45,14h0Z"/><path class="cls-1" d="M46.45,14.72s0,0,0,0h0S46.43,14.72,46.45,14.72Z"/><path class="cls-1" d="M46.45,15h0Z"/><path class="cls-1" d="M47.44,20.12l-.12,0C47.42,20.13,47.45,20.17,47.44,20.12Z"/><path class="cls-1" d="M47.2,11.17h0Z"/><path class="cls-1" d="M47.56,14.73l0,0Z"/><path class="cls-1" d="M47.42,18.22h0S47.44,18.22,47.42,18.22Z"/><path class="cls-1" d="M47.56,14.9l-.1,0h0Z"/><path class="cls-1" d="M47.65,20.41s-.18,0-.29,0,.14,0,.23,0-.22-.05-.21-.08h.08c-.15,0,0-.09-.19-.13h-.21s-.12,0,0,0,0,0,.08,0l0,0c.17,0,.06,0,.18,0-.05,0-.2-.08-.15-.11s.06.06.21,0l-.06,0c.26,0,0,0,.26,0,.05-.06-.08-.07,0-.13s-.14,0-.24,0,.43-.07.2-.13-.32,0-.21-.06h.19c0-.05-.27,0-.14-.09s.06,0,.08,0-.11,0-.11-.06h.17c0-.06-.15-.13-.18-.19h.16c-.09-.09,0-.18.12-.26l-.15,0s.07,0,.1,0-.1,0-.15,0,.08,0,.13,0c-.13,0-.27-.15-.12-.21h0c.06,0-.3-.05-.17-.09h0c.06-.1-.07-.21.15-.28-.21,0,.1-.1-.2-.11.15-.05.2,0,.3-.12s-.19,0-.22-.05h.16l-.16,0,.18,0,0,0-.11,0c-.07,0,.1-.09.18-.1l-.13-.09.12,0c-.15,0,.17,0,0-.05a.48.48,0,0,1-.12,0c.09,0,.09-.08.05-.11h.11c0-.06-.05-.14-.05-.21a.42.42,0,0,1-.25,0h.16c-.1,0-.06,0-.18,0s.18,0,.24,0l-.06,0a.65.65,0,0,1,.14,0c-.1,0,.16-.05,0-.07h.05c0-.07-.05-.11-.06-.17s-.11,0-.22,0,.15-.09.14-.15-.12,0-.2,0c.13,0,.11-.05.21,0s0-.08-.13-.16a.26.26,0,0,1-.12,0s0,0,.11,0h0c-.2-.1.37-.22.1-.29h0l-.14-.07s.09,0,.17,0c-.21-.08,0-.13-.11-.19.38-.06,0-.19.22-.26h-.09c-.09,0,.05,0,.07,0s-.08,0-.13,0,.13-.32.21-.48-.46,0-.25-.1l.17,0c-.2-.12,0-.24-.16-.36l.08,0c.12,0,0-.09-.09-.09s.09,0,.14,0-.15-.06,0-.08h0c-.05,0,0-.07-.12-.05.07,0-.06-.09,0-.12-.15,0,.07-.07-.14-.08.22,0,.18-.08.07-.1.07,0,.07,0,.17,0s-.05-.06-.16-.05c.27-.06-.22-.12.13-.15a.8.8,0,0,1-.26-.26c.22,0,0,.09.26.09-.1-.08-.29-.12-.23-.2s.09,0,.13,0,0-.15-.1-.22h.06s0,0-.07,0h0a1.32,1.32,0,0,1-.39,0c.29,0,.07-.07.44,0a.35.35,0,0,0-.13,0s.06,0,.14,0-.17,0-.17-.07h.13c-.1,0-.19,0-.15-.08s.07,0,.07,0-.26-.11-.17-.19.07,0,.26,0l-.05,0h-.1s-.13-.06-.07-.09l.08,0,0-.07-.07,0c-.09,0-.23,0-.18,0s0,0,.11-.05h0c-.06,0-.12,0-.07-.06h.24c-.15,0,0-.08-.21-.1h.16l-.13,0a.28.28,0,0,1,.14,0s-.24,0-.13,0h0c0-.06-.08-.11,0-.16s0,0,.2,0c0-.08-.22-.16-.18-.23l0,0c-.26,0,.13-.06,0-.09h.11c0-.05-.06-.1-.14-.18h.06c.06,0,0-.07.07-.11a.71.71,0,0,0-.16,0c.39-.1-.2-.18.12-.27l.06,0L47.16,12a.57.57,0,0,0-.16,0c-.07,0-.13,0-.13-.05a.52.52,0,0,0,.25,0H47c.21,0-.23,0-.09-.06H47s-.11,0-.09-.06.06,0,.17,0-.25-.05-.12-.08,0,0,.07,0,.12,0,.15,0h0l.07-.05h0c-.35,0-.06-.07-.29-.12.21,0,.12,0,.28,0a.27.27,0,0,1,.13,0c-.13,0,.09,0-.09-.08,0,0,0,0,.13,0,0,0-.08,0-.14,0s.2-.11,0-.18-.26-.07-.34-.12a.4.4,0,0,1,.18,0c.07,0,.06,0,0-.07h.13s-.18,0-.1,0a1.25,1.25,0,0,1,.19,0,1,1,0,0,0-.18-.08.53.53,0,0,1,.19,0A.32.32,0,0,0,47,11L47,11h.14c.1,0,0,0-.1,0h0c-.29,0,0,.07,0,.11h-.21l.17,0a.64.64,0,0,1-.2,0c-.1,0,.08,0,0,.05h0l.06,0c-.05,0-.15,0-.12,0s.16.08,0,.1h0c.07.06.15,0,.33.05l-.38,0h.16s0,0-.08,0c.1,0,.06,0,.16,0-.14,0,.07.1-.18.1.12,0,.09,0,.17,0-.26,0,0,0-.07.07s-.06,0-.18,0c.22,0,0,.06,0,.09s.07,0,.13.1-.09.08-.16.12h0c.18,0,.15.05.19.08a.51.51,0,0,1-.21,0v0a.28.28,0,0,1,.12,0h-.14s.16.08.07.12c.13,0,.35,0,.44,0h-.22s.06,0,0,0l-.11,0c-.06,0,.09,0,.08,0H46.6s0,0,0,0a.33.33,0,0,1-.16,0c.06,0,.14,0,.15,0s-.12,0-.17,0,0,0,.15,0h-.11c.06,0,0,.09.17.07h0c.15.06-.08.13,0,.2h0c.06,0,0,.08.14.11a.26.26,0,0,1-.15,0s.09,0,0,.08-.08,0-.06,0-.12,0,0,.08c-.13,0-.16,0-.12,0l.09,0s0,0,0,.06h-.17c-.2.08.34.14,0,.2.11,0,.08,0,.21,0,0,0-.26.08-.26.09s.24,0,.18.09a.67.67,0,0,1,.28,0s-.25,0-.3,0,0,0,0,0a.11.11,0,0,0-.11,0h.06c-.06,0,0,.07-.15.06a.14.14,0,0,0,.13,0c-.09,0,0,.07-.06.12h.1c-.07.07.11,0,.14.08s-.22,0-.14,0a.37.37,0,0,1-.21,0c.12,0-.07.08-.09.1l0,0s0,0,0,0l.12,0s0,0-.07,0a1.78,1.78,0,0,1,.31,0c-.06,0,.06.05-.1.06.06-.06-.15,0-.18-.05s0,0,0,0h0c-.14.06.17,0,.17.08s-.17,0-.15,0,.15,0,.22,0,.05,0,0,.06l0,0c.09,0,.08,0,.11.05s-.05,0-.08,0c.16,0-.16.06-.06.1h-.2c.11.05-.13.05,0,.09a.38.38,0,0,1,.21,0l-.09-.07.18,0s-.08,0-.06-.06.07,0,.17,0c-.18,0,.1.06,0,.1h-.29c-.14,0,.15.09.07.16l0,0c.12,0,0,0,.07.06a.85.85,0,0,0-.2,0c.07,0,0,0,.19,0l-.13,0c0,.06.28.07.25.12s-.18,0-.25,0,0,0,.05,0,.13.05,0,.06.15,0,.14,0h-.05a.62.62,0,0,0,.18,0c-.31.05,0,.15-.24.2a.37.37,0,0,1,.07.12s0,0,0,0,.28,0,.18.09-.08,0-.14,0c-.33,0,0,.06-.15.1h0c-.11,0,.12.07.1.12h0a.41.41,0,0,1,.27.14c-.13,0-.07,0-.2,0,0,0,.21,0,.24,0a1.09,1.09,0,0,1-.26,0v0c-.18,0,0,0,0,.06h-.07c0,.06.22.06.2.12h.06c.2,0-.11,0,0,.06h-.2a1,1,0,0,1,.23.12,1.25,1.25,0,0,1-.31-.1s0,.08.11.09-.06,0,0,0,.23.06.22.11c-.38,0-.09.11-.39.14.14.08-.06.16,0,.25.3,0,0,0,.32,0,0,0,0,0,0,0l-.18.07c-.09,0-.07,0-.14,0s-.13,0-.21.05c.11,0,.16,0,.12,0l.14,0c.16.06-.26.05-.1.12l-.09,0s0,.12.24.16c0,0-.12,0-.14,0s.26.18.11.25h-.08s.14,0,.07,0h-.08s.13,0,.09.06l-.09,0c-.09.08.21.12.26.19a.46.46,0,0,0-.33.09h0c0,.09.18.15.27.24-.24.05-.1.18-.23.26a.39.39,0,0,1,.19,0s.15,0,0,0h0c-.19,0-.14.06-.15.09h.27c-.39.08.14.22-.21.26.07,0,.07.05.14.07h-.15a.13.13,0,0,0,0,.15l-.1,0s.41.05.42.09H46.3c0,.07-.18.14,0,.2h-.1s-.15.12.14.11c-.18,0,0,.07.07.11h-.14c.18,0,.23,0,.28.08s-.12,0-.08,0,.13,0,.06.07h-.09s0,0,.14.05,0,.06-.16.07c.07,0,.18,0,.14,0a.24.24,0,0,1-.09,0c-.1.05.16.08,0,.12h-.08c0-.05,0-.08,0-.08a1.15,1.15,0,0,1-.33,0c.1,0,.31.08.25.12H46.3s0,0,0,0l0,0c-.1,0-.05,0-.06.06s.12,0,.24,0,0,0,0,0,0,0,0,0h0a.43.43,0,0,1,0,0c.07,0,.13,0,.06,0l.22,0a3.66,3.66,0,0,1-.42.08c.08.06,0,.14.32.17,0,0-.08,0-.12,0s0,0-.06,0,0,.1.21.11c-.08,0-.17,0-.14,0h-.06c-.29.11.47.18.1.31l.06,0c-.17.14.16.29-.11.43,0,0,.07,0,.16.07h-.16l.18,0c.13.06-.37.1-.13.17h.1s.06.09-.06.08.11,0,.06,0h-.08l.13.07c0,.05-.31,0-.33.06a.65.65,0,0,0,.29.07s0,0,.13,0l0,0a2.06,2.06,0,0,0,.63,0l-.14,0,.11,0v0c.1,0,0,0-.05-.05l.12,0-.22,0c.09,0,.18,0,.23,0s-.2,0-.27,0c.1,0,.19,0,.1,0a.2.2,0,0,1,.12,0c-.07,0,0-.06-.15-.07.13,0,0-.07.19-.07a.53.53,0,0,1-.19-.06c.27,0,0-.07.3-.06-.24,0-.1-.1-.24-.14,0,0,.06,0,0,0s.09,0,.14-.05a2,2,0,0,1-.37-.07,3,3,0,0,1,.42,0c-.16,0-.16-.06-.29,0a.52.52,0,0,1,.21,0c-.24,0,0,0-.19,0,.12,0,.23,0,.16-.05A.32.32,0,0,1,47.65,20.41Zm-.42-.93Zm0-.08v0h-.1S47.18,19.41,47.22,19.4Zm-1,.16s0,0,0,0v0h0Z"/><path class="cls-1" d="M46.43,19.59h0Z"/><path class="cls-1" d="M46.64,12.43Z"/><polygon class="cls-1" points="47.49 18.31 47.46 18.31 47.49 18.31 47.49 18.31"/><path class="cls-1" d="M47.12,12h0Z"/><path class="cls-1" d="M47.16,11.81l.05,0Z"/><path class="cls-1" d="M47.23,11.67h0Z"/><path class="cls-1" d="M47.39,14h0S47.41,14,47.39,14Z"/><path class="cls-1" d="M47.06,13.28l.07,0S47.14,13.28,47.06,13.28Z"/><polygon class="cls-1" points="47.56 14.72 47.56 14.72 47.56 14.73 47.56 14.72"/><path class="cls-1" d="M47.13,13.33s0,0,0,0S47.1,13.32,47.13,13.33Z"/><path class="cls-1" d="M47.29,11h0Z"/><path class="cls-1" d="M47.27,11h0Z"/><path class="cls-1" d="M47.22,11h0Z"/><path class="cls-1" d="M47.22,11.23h0Z"/><path class="cls-1" d="M47.24,11.29s.11,0,.08-.06h0C47.35,11.24,47.15,11.28,47.24,11.29Z"/><path class="cls-1" d="M46.61,11.53l0,0s-.13,0-.14,0S46.63,11.47,46.61,11.53Z"/><path class="cls-1" d="M46.53,11.68s-.08,0-.11,0A.11.11,0,0,0,46.53,11.68Z"/><path class="cls-1" d="M46.53,12.77H46.4S46.45,12.77,46.53,12.77Z"/><polygon class="cls-1" points="47.19 12.98 47.27 12.96 47.15 12.95 47.19 12.98"/><polygon class="cls-1" points="46.28 13.1 46.26 13.1 46.31 13.13 46.28 13.1"/><path class="cls-1" d="M46.33,14.94h.15S46.28,14.91,46.33,14.94Z"/><path class="cls-1" d="M46.49,15.73c-.08,0-.13,0-.06,0S46.51,15.74,46.49,15.73Z"/><polygon class="cls-1" points="46.23 18.1 46.18 18.08 46.22 18.11 46.23 18.1"/></svg>