<?xml version="1.0" encoding="utf-8"?>
<!-- Generator: Adobe Illustrator 21.1.0, SVG Export Plug-In . SVG Version: 6.00 Build 0)  -->
<svg version="1.1" id="Capa_1" xmlns="http://www.w3.org/2000/svg" xmlns:xlink="http://www.w3.org/1999/xlink" x="0px" y="0px"
	 viewBox="0 0 377.2 152.4" style="enable-background:new 0 0 377.2 152.4;" xml:space="preserve">
<style type="text/css">
	.st0{fill:#536472;}
</style>
<path class="st0" d="M56.8,18.4c-15.1-3.3-30.4,9.9-37.3,28.2s-6.5,40.3-2.1,59.9c1.8,8.2,4.6,16.6,9.7,21.7
	c5.7,5.7,13.3,6.3,20.4,6.7c77.6,4,155.2,4.4,232.9,0.9c15.9-0.7,32.1-1.6,47-8.9c16.9-8.4,29.2-23.9,33.5-42.3
	c5.6-23.8-3.6-52.3-20.4-63.1c-9.7-6.2-20.8-6.8-31.6-7.3L140,6.4c-27.3-1.2-55.5-2.3-81,11"/>
<path class="st0" d="M62.8,22.7c-1.1,0.4-0.2,1.2-0.3,1.5C64.1,23.1,62.6,22.5,62.8,22.7z"/>
<polygon class="st0" points="80.2,13.6 79.9,14.1 82.6,12.3 "/>
<path class="st0" d="M98.6,10.4c-1-0.9-2.7-0.6-4.6-0.1c-1.8,0.6-3.7,1-5.6,1.1l-0.6-0.3l-1.2,1.8C90.6,11.8,95.7,10.2,98.6,10.4z"
	/>
<path class="st0" d="M108.8,13.9c-0.6-0.7,2.1-0.7-2.3-0.1c0.2,0.1,0.3,0.1,0.4,0.2C107.4,13.9,107.9,13.9,108.8,13.9z"/>
<path class="st0" d="M107,13.9C105.1,14.1,108.3,14.5,107,13.9z"/>
<path class="st0" d="M116,13.3c-0.9,0.2-1.7,0.4-2.6,0.7c0.5,0.4,2.9,0.5,2,0.8C118.1,14.5,117.6,14,116,13.3z"/>
<path class="st0" d="M118.5,11.9l-1.4,0.3C117.4,12.4,117.7,12.5,118.5,11.9z"/>
<path class="st0" d="M114.3,12.8l2.9-0.6c-0.4-0.3-0.4-0.9-1.3,0.2C116.1,11.9,115.5,12.4,114.3,12.8z"/>
<path class="st0" d="M112.7,12.5c-1.5-0.4-3.4-0.6-0.8-1.3c-2.5,0.2-3.6,0.6-3.3,0.9S110.2,12.7,112.7,12.5z"/>
<path class="st0" d="M99.4,8.4c-0.7-0.1-1.3-0.2-2-0.4l-1.6,0.8C96.6,8.5,99.6,9,99.4,8.4z"/>
<path class="st0" d="M132.4,14.6c0.2-0.4-0.9-1.1-1-1.6l-2,0.4C130.4,13.7,132.3,14.1,132.4,14.6z"/>
<path class="st0" d="M131.4,13l3-0.6C131.7,12.3,131.2,12.6,131.4,13z"/>
<polygon class="st0" points="119,9.8 114.2,11.3 119.9,9.8 "/>
<polygon class="st0" points="143.7,15.2 141.9,16 145,14.8 "/>
<path class="st0" d="M151.2,15.4c-1.3,0.7,1.6,1.4,0.3,1.8c1.9-0.1,3.7-0.5,5.4-1.2C155,16.3,153,16,151.2,15.4z"/>
<path class="st0" d="M159.6,15.3c-0.9,0.2-1.8,0.4-2.7,0.8C157.8,15.9,158.7,15.6,159.6,15.3z"/>
<path class="st0" d="M139.4,12.9c0.6,0.7,1.4,1.2,2.3,1.2l-1.1-1.2L139.4,12.9z"/>
<path class="st0" d="M140.5,12.9L140.5,12.9l2.5,0.2L140.5,12.9z"/>
<path class="st0" d="M139.1,12.9h0.3C139.2,12.8,139.2,12.7,139.1,12.9z"/>
<path class="st0" d="M126.7,11c1.7-0.6,5.4-1.1,1.9-2.2C127.3,9.5,129.3,10.1,126.7,11z"/>
<path class="st0" d="M137.7,11.4l-3.1-0.4c0.1,0.3,0.6,0.8-0.3,1L137.7,11.4z"/>
<polygon class="st0" points="139.2,11.1 137.7,11.4 138.8,11.5 "/>
<path class="st0" d="M154.2,14c1.5-0.4,3-0.5,4.6-0.4c-1.8-0.3-3.6-0.5-5.4-0.6C153.1,13.3,152.3,13.9,154.2,14z"/>
<path class="st0" d="M147.6,13.4h0.3C147.7,13.2,147.5,13.2,147.6,13.4z"/>
<path class="st0" d="M175.3,14.3l-0.3-0.2c0,0.1,0,0.1-0.1,0.2L175.3,14.3z"/>
<path class="st0" d="M153.1,12.8c-1-0.2-2-0.1-2.9,0.3c1.1-0.1,2.2-0.1,3.2,0C153.5,12.8,153.5,12.7,153.1,12.8z"/>
<path class="st0" d="M164.2,15c-0.7-0.3-1.5-0.5-2.3-0.7C162.6,14.6,164,15.2,164.2,15z"/>
<path class="st0" d="M148.3,13.6h-0.2C148.5,13.9,148.5,13.8,148.3,13.6z"/>
<path class="st0" d="M148.3,13.6c0.6-0.1,1.2-0.3,1.8-0.6c-0.8,0-1.5,0.1-2.3,0.3C148,13.4,148.2,13.5,148.3,13.6z"/>
<path class="st0" d="M180.7,7.3c-0.3,1-3.9,1.8-6.9,0.6c-3.1,0.6-1.2,4.2,1.3,6.2c0.1-0.4,0.1-0.9,3.3-1.4c-1.1-0.6-6.8-1.6-4.2-2.5
	c4.1-0.4,3.4,0.5,5.3,1.2c-1.6-1.4,5.3-1.7,4.5-3.6l-3.6,0.5C180.3,8,181.7,7.6,180.7,7.3z"/>
<path class="st0" d="M169.1,13.7l-1.3,0.1c1.5,0.3,3,0.9,4.4,1.6c2.2-0.4,2.6-0.8,2.8-1.1l-6.3-0.4L169.1,13.7z"/>
<path class="st0" d="M162.1,13.5c1-1.1,4.1-1.4,2.3-2.8c-3.8-0.1-2.7,0.8-4.9,1.2c6.1,0-1.8,0.6,2.6,1.4c-1.1,0.1-2.2,0.2-3.3,0.1
	c1.1,0.2,2.1,0.4,3.1,0.7l-0.1-0.1l0,0l0,0c-0.3-0.1-0.3-0.2-0.1-0.1h0.1C161.9,13.8,162,13.7,162.1,13.5c1.8,0.4,0.3,0.4-0.3,0.5
	c0,0.1-0.1,0.1-0.1,0.2l0,0l6.1-0.4C166,13.6,164,13.5,162.1,13.5z"/>
<path class="st0" d="M131.9,6.5c0.2,0.1,0.2,0.2,0.2,0.3C132.5,6.6,132.6,6.5,131.9,6.5z"/>
<path class="st0" d="M134.4,7.2c-0.7,0.4-1.5,0.5-2.3,0.4c-1.2-0.4,0-0.6,0-0.9c-0.9,0.3-3.1,0.7-0.4,1.4l0.4-0.1
	c2.4,0.5,5.5,2,5.1,2.2C136.5,9,135.5,8,134.4,7.2z"/>
<path class="st0" d="M148.4,10.1l5.1-0.3L151,8.7l0.1,0.6C148.2,8.9,148.8,9.7,148.4,10.1z"/>
<polygon class="st0" points="175.9,14.9 175.1,16.1 178.1,14.5 "/>
<polygon class="st0" points="182.5,15.1 182.2,16.1 183.9,15.6 "/>
<path class="st0" d="M242.5,143.4l-1.5,0.3C241.5,143.7,242,143.6,242.5,143.4z"/>
<path class="st0" d="M253.3,143.1l0.2-0.5C253.1,142.9,252.9,143.1,253.3,143.1z"/>
<path class="st0" d="M338.5,28.1c0.2,0.4,0.4,0.9,0.5,1.4c0.1,0.5,0.3,0.9,0.4,1.3c0.2,0.7,0.5,1,0.8,0.5l0.4-1.2
	c-0.5-0.3-0.9-0.7-1.3-1.1C339.1,28.8,338.8,28.5,338.5,28.1z"/>
<path class="st0" d="M338.4,120.3l0.7-0.1c0.2-0.7,0.3-1.2,0.4-1.8C339.2,119,338.8,119.7,338.4,120.3z"/>
<path class="st0" d="M340,125.1c-1,0.4-1.9,0.8-2.9,1.2C338.1,126,339.1,125.6,340,125.1z"/>
<path class="st0" d="M183.6,145.6l-1.7,1.2C184.5,146.7,183.3,146.2,183.6,145.6z"/>
<path class="st0" d="M249.8,17.7c1.5,0.5,3.1,0.8,4.6,0.9C252.2,17.9,250.4,16.8,249.8,17.7z"/>
<path class="st0" d="M246.4,131.1c-0.9,0.2-1.3,0.5-1.2,0.7C246.1,131.6,246.6,131.4,246.4,131.1z"/>
<path class="st0" d="M259.8,18.9c-0.3-0.1-0.6-0.2-1-0.3c-1.5,0.2-3,0.2-4.4,0.1C256.1,19.3,258,19.4,259.8,18.9z"/>
<path class="st0" d="M7.7,75.3c0.1-0.2,0.1-0.4,0.2-0.5C7.7,74.8,7.7,75,7.7,75.3z"/>
<path class="st0" d="M41.9,25.9c-0.4,0.3-1.1,0.7-1.8,1.2C40.8,26.8,41.4,26.4,41.9,25.9z"/>
<path class="st0" d="M208.9,16.8C207.5,16.8,208.7,16.9,208.9,16.8z"/>
<path class="st0" d="M202.3,11.9c0.3-0.1,0.5-0.3,0.6-0.5C202.8,11.6,202.6,11.8,202.3,11.9z"/>
<path class="st0" d="M274,12.3h0.1C273.8,12.1,273.8,12.1,274,12.3z"/>
<path class="st0" d="M206.8,16.1c0.6,0.2,1.2,0.3,1.8,0.4C208,16.4,207.4,16.3,206.8,16.1z"/>
<path class="st0" d="M207.1,16.7l-1.2-0.2C205.7,16.7,205.8,16.9,207.1,16.7z"/>
<path class="st0" d="M210.8,16.8c-0.8,0-1.5-0.1-2.3-0.2c0.3,0.1,0.4,0.2,0.3,0.2L210.8,16.8z"/>
<path class="st0" d="M84.4,140l-0.3-0.1C82.7,140.3,83.3,140.2,84.4,140z"/>
<path class="st0" d="M365.8,52.3c0-0.1-0.1-0.1-0.1-0.2C365.7,52.2,365.7,52.3,365.8,52.3L365.8,52.3z"/>
<path class="st0" d="M367.7,57.4c-0.4-0.4-0.7-0.9-1-1.4c-0.2-0.4-0.4-0.8-0.6-1.2c-0.2-0.8-0.4-1.6-0.4-2.4c-1,0.8-1.9,1.6-2.9,2.4
	c0.8,0.4,1.6,0.8,2.5,1.3S366.9,57,367.7,57.4z"/>
<path class="st0" d="M216.7,144.3l3.6,1c-4.2,1.8-7.3,1.2-4,2.6c0.4-3.6,13.7-0.6,14.1-4.3l2.4,0.7c-0.7,0-0.8,0.2-1.4,0.2
	c4.6,1.6,3.3-2.7,9.1-2.3c2,0.2,3.5,0.7,2.1,1.2l4.5-1c1.3,0,1,0.7-0.3,0.6l6.9-0.5l-0.1,0.1c1.4-0.8,2.8-1.4,4.2-2
	c1.8,0.4-0.9,0.4-0.4,0.8l3.8-1c1.6,0.9-1.5,1.9-4.2,1.9c3.7,3.5,3.1-1,10.9,0.8l-3.6,0.6c2.4,2,5.2,1.1,9.3,2.2
	c-1-0.6-8.3-2.9-4.2-3.9c1.7,0.3,3.4,0.1,4.9-0.5c0.1,1.3,2.2,0.9,5,0.7l-0.1,1.7c2.9-0.6,2.7-1.5,4.4-2.3c3.3,0,4.1,1.3,5,2.3
	c5.4-0.1-3.9-1.9,2.5-2.6c4.5,0.3,7.7-0.6,12.9-2.4c3.3,0.1-0.4,1.1,0.8,1.4c0.9-0.6,1.8-1.2,2.6-1.8c0.7-0.1,0.5,0.4,0.5,0.6
	c2.3-1-0.1-1.7,3.5-2.9c0.3-1,2.3-0.8,4.8-0.8c1.3,0,2.6-0.1,3.9-0.4c1.3-0.3,2.5-0.9,3.4-1.8c1.3,0-0.1,1.2,0.4,1.7
	c1.4-0.9,2.4-1.6,3.2-2.1s1.3-1,1.8-1.4c0.5-0.4,1.1-0.9,1.5-1.4c0.6-0.6,1.3-1.3,2.2-2.4l2.2-0.7c0.7-0.2,1.5-0.5,2.2-0.8
	c-1.8,0.4-1.9-0.3-1.4-1.5c0.8-1.5,1.7-3,2.7-4.4c-1.3,0.2-2.4,0.3-3,0.5l1.9-2l1.8-2.1c0.7-0.2,0.6,0.6,0.4,1.7
	c0.2-0.3,0.4-0.7,0.5-1c1-0.4,1.4-0.3,1.5,0.2c0.1,0.7,0,1.4-0.2,2.1c-0.8,0.2-1.5,0.4-2.2,0.5c-0.4,1.7-0.9,3.4,0,4
	c0.4-0.6,0.8-1.1,1.3-1.5c-0.1,0.4-0.2,0.8,0.1,0.8s0.5-0.7,1-1.6l2.2,0.6l-0.2-0.8c1.1-0.7,2.2-1.5,3.3-2.2s2.1-1.6,3.2-2.4
	c0.6-1.4,1.1-2.8,1.6-4.2s0.9-2.8,1.3-4.4c0.2-0.8,0.5-1.5,0.7-2.3s0.5-1.6,0.8-2.4c0.6-1.7,1.1-3.5,1.9-5.4
	c0.3,2.5,1.8,1.4,3.2,2.3c-0.7,0.4-1.2,0.9-1.6,1.6c-0.4,0.8-0.8,1.7-1.1,2.5c-0.4,0.9-0.7,2-1.2,3c-0.5,1-1.1,2-1.8,2.9
	c1.5-1.9,1.9-1,1.7-0.3c0.6-1.3,1.2-2.6,1.7-3.9s1-2.6,1.4-4c1.1,0.8,1.8-1,3.2-2.8c-1.6,0.2-1.2-1.4-0.6-3.4c0.3-1,0.7-2.2,1-3.3
	c0.3-1,0.5-2,0.6-3c0.5,0,0.8,0.3,0.9,1c0,0.5,0,1-0.1,1.5c-0.1,0.3-0.2,0.7-0.3,1.1s-0.3,0.8-0.5,1.3c0.7-0.7,1.2-1.6,1.4-2.6
	c0.1-0.8,0-1.7-0.2-2.5c-0.2-0.8-0.4-1.6-0.4-2.4c0-1,0.3-1.9,0.9-2.7c-0.1,1-0.5,1.4-0.1,1.9c-0.1-2.4,1.4-7.8,1.9-6.4
	c0,0.3-0.1,0.7-0.1,1c0.2-0.8,0.3-1.7,0.5-2.7s0.3-2.1,0.4-3.2c0.1-2.2,0.1-4.5-0.1-6.7c-0.1-1.1-0.2-2.1-0.4-3
	c-0.2-0.8-0.4-1.7-0.7-2.5c-0.2-0.6-0.4-1.2-0.7-1.8c-0.2-0.4-0.5-0.6-0.9-0.8c1.1,0.1,2.3,0.4,3.3,0.8c-1.5-1.8-3-3.5-4.6-5.1
	c-0.8-0.8-1.6-1.6-2.5-2.3l-1.3-1.1l-1.3-1c1.1,0.2,2.5-0.9,3.9-1.5c0.7-0.3,1.4-0.4,2.1-0.2c0.9,0.4,1.7,1.2,2,2.1
	c0-0.9-0.2-1.9-0.4-2.8c-0.2-0.6-0.4-1.2-0.6-1.8c-0.3-0.7-0.6-1.4-1-2.1c0.1,1.1-1.9,3.4-2.4,2.1c0.3-1.2,0.4-2.5,0.4-3.8
	c0-0.4-0.1-0.9-0.1-1.5s-0.2-1.6-0.2-2.9c0.1,0.8-0.7,1.1-1.6,0.9c-1.1-0.2-2-0.9-2.5-2c0.6,0.1,2.6-1.5,3.3-0.8
	c-1.8-1.5-3.7-2.8-5.7-4.1c1.3,1,2.3-1.1,2.2-2.8c0,0.2-0.2,0-0.5-0.4c-0.1-0.2-0.3-0.5-0.5-0.8l-0.7-1c-0.8-1.3-1.8-2.6-2.9-3.6
	l0.7,1.3l0.6,1.3c-0.2-0.4-0.5-0.7-0.8-1c-0.3-0.3-0.5-0.6-0.8-0.8c-0.5-0.4-1-0.8-1.6-1.1c-0.5-0.3-1-0.5-1.5-0.7
	c-0.5-0.1-1-0.2-1.5-0.4c-1-0.2-2.1-0.4-3.1-0.8c-1.3-0.4-2.6-1-3.6-1.9c0.8-0.2,1.5-0.6,1.9-1.3c0.3-0.4,0.4-0.9,0.2-1.4
	c-0.2-0.7-0.7-1.3-1.3-1.6c-1.1,0.2-3.7,0.9-6.5,1.7c-2.8,0.9-5.7,1.4-8.6,1.6l-0.9-1.1c-1.5,0-2.9,0.1-4.4,0.3
	c2.3-1.4,4.9-2.6,7.5-3.3c3.1-1,6.3-1.4,9.6-1.2c-0.6-0.4-1.1-0.9-1.5-1.5c-0.8-0.6-1.8-1-2.8-1.2c-0.6-0.6,0-0.7,1-0.6
	c1,0.1,1.9,0.4,2.9,0.7c-3.1-1.5-6.3-2.6-9.6-3.5c0,0.9-1.9,0.9-3.8,1.1s-3.7,0.3-3.6,1.1c3.5-0.3,7-0.2,10.5,0.1
	c0,0.9-1.9,1.7-4.3,2.2c-2.9,0.6-5.8,0.7-8.7,0.3c-1.5-0.9,1.5-3,1.5-3.6c-1.1,0.3-2.3,0.5-3.5,0.5c-1.1,0.1-2.1,0-3.2-0.2l2.8-0.8
	c-3.5-0.9-5.9,2-9.9,0.1c-1.4-0.2-4.2-2.5-4.5-1.4c2.2,2.1,2.4,8.4,0.8,9.9c-0.5-0.2-7.4-2.3-9-3.4c-2.3-1.7,3.7-3.6,1.8-5.1
	c-0.1,0.5-1.4,1-2,1.2c-1.5-0.5,0.7-1.5-2.6-1.4c-0.6,1.8-6.6-0.4-1.6,1.5c-3.2,0.4-3.4-0.5-7.1-0.6c1.1,1.2-3.5,3.8-6.8,4.2
	c0.2-0.4-0.5-1.1-0.8-1.4c-6.5-0.5-10-1.4-16.1-1.7c-0.5-0.5-3.5-1.1-2.2-1.8c-1.1,0.5-2.4,0.8-3.6,0.8c-3.6-1.7,4.2-0.1,1.5-2.1
	c-0.3,1-4.9,1.2-7.6,1.8c0.8,1.6,6.2,0.6,8.9,0.1c-0.1,2.2-4.9,4.4-11.3,5.1c-5.1,0.3-2.1-1.5-3-1.3c-9.5-0.8-8.3,3.5-16.1,1.6
	c-3.1-1.6,0-2.8-0.7-3.9c4.1-0.4,6.3,1.2,9.1,1.3l-3.4-0.8c1.8-0.5,3.7-0.6,5.6-0.2c-2.6-1.4-16.1-1-23.4-2.5
	c-1.3,0.4-3.6,0.8-2.6,1.4l2.3-0.1c2.1,1.2-4.4,1.4-1.5,2.1c-3.1,0.7-6.7,1.8-11.1,0.9l-0.8-1.7c0.1,0.5,2.8,1.1,4.1,0.6
	c-1.9,0.6-6.6-2.5-8.7-0.5l3,1.3c-3.2,0.7-7.1,2.2-11,1.5c1.7,1.7,0.9-0.1,3.6,1.9c-2.3-2.4,9.9,0.5,6.2-2.1
	c2.7,2.3,4.9,1.1,8.5,3.2c-0.1-0.5-1.3-1.1,2-0.7c0.2-0.2,0.5-0.3,0.7-0.4h0.2l-0.2-0.1c0.1-0.1,0.2-0.1-0.1,0
	c-0.6-0.2-1.2-0.5-1.6-0.9c1.7-1.2,6.9-0.9,8.6-1.4c1.9,0.3-0.8,0.6,0.2,1.2l2.7-0.8c0.2,1.2,5.1,2.2,0.5,2.7L221,17
	c2.5,0.8,5.2,1.1,7.8,0.8c1.9,0.3,4.9-1.1,3.2-0.2l6.5-0.5l0.1,0.3c6.3,0.4,13.2-1.4,20.3,1.1c2.6-0.4,5.3-0.4,7.9,0l0.6,1.1
	c2.8-0.2,8.2,1.4,9.4,0.4c2.8,2.9,13.3,1.2,18.1,1.9l0.2-1.3c3.6,0.2,7.1,0,10.7-0.4l-0.2-1.2c3.6-0.8,9.1,1.2,14.3,1.7
	c-0.4,0.4-1.7,0.1-2.6-0.2c3,1.6,6.2,1.6,9.3,1.7c1.5,0,3,0.2,4.5,0.6c1.4,0.3,2.6,1.1,3.6,2.1c1.1,0.1,2,0.7,2.7,1.5
	c-0.1-0.1-0.2-0.1-0.3-0.1c0.1,0.1,0.3,0.2,0.4,0.3c0.3,0.5,0.6,1,1,1.5c-0.2-0.5-0.5-0.9-0.8-1.4c0.8,0.6,2.1,1.2,3.4,2l-0.4,1.4
	c0.1,0.1,0.2,0.1,0.3,0.2c0.7,1.3,1.3,0.4,1.4-0.9c0.6,0.3,1.3,0.7,2,0.9c-0.2,0.5-0.1,1,0.2,1.4c0.3,0.4,0.7,0.8,1,1.1
	c0.8,0.8,1.6,1.6,1.2,2.9c0.7,0.2,2,1.7,3.2,3.2c0.6,0.8,1.2,1.5,1.9,2.1c0.5,0.5,1.1,0.9,1.9,0.9c-0.2,0.2-0.2,0.7-0.5-0.1
	c0.4,1.8,1.1,3.4,2.1,4.9l-1.3,1.3c1.1,1,2.2,2.1,3.3,3.2c0,0.9-0.2,1.8-0.6,2.6c-0.4,0.3-0.8,0.1-1.8-0.9c1,1.5,1.8,3,2.4,4.7
	c0.5,1.5,1.2,2.9,2,4.3l-1.1,0c0.2,1.8,1.9,4.5,1,5.7c-0.9,2-0.9,6.9-1.9,12.4s-3.1,11.7-6.1,15.7c1.8-0.2,1,0.7-0.1,1.8
	c-0.5,0.5-1,1.1-1.5,1.7c-0.4,0.5-0.5,1,0,1.4c-0.9,0.1-2,1.1-1.7-0.6c-0.2,0.5-0.5,1.1-0.8,1.6c-0.3,0.5-0.6,0.9-0.9,1.3
	c-0.5,0.7-1.1,1.4-1.8,2.1c-0.6,0.6-1.1,1.2-1.5,1.9c-0.5,0.7-0.8,1.6-1,2.4c-0.9-0.1-0.1-1.5-0.8-1.4c-0.1,0.3-0.2,0.7-0.4,1
	c-0.2,0.3-0.5,0.6-0.9,0.7c-0.7,0,0.1-0.9,0.4-1.7c-1.6,1.8-2.2,3.2-2.2,4.4c0.1,1.1,0.4,2.2,1.1,3.1c-2.7,1-3.6,1.9-4.4,4.2
	c-0.6,0-1.3,0.1-1.5-0.1s0-0.6,1.2-1.7c-0.8,0.5-3.2,2-5.4,3.2s-4.3,2.5-4,3.3c-0.7-0.2-2.4,1-2.8,1.3c-3.9,1.4-4.3,1.4-8.3,2.7h1.2
	c-0.4,1-1.3,1.7-2.4,1.7c-1.4,0.1-2.7,0.3-4.1,0.6l0.1-0.2c-2,0-3.2,0.1-4,0.2c-0.5,0.1-1.1,0.2-1.6,0.4c-0.8,0.2-1.6,0.5-5.5,0.1
	l0.6,1.2c-0.2,1.4-2,1.2-4.2,0.8s-5-1.1-7.2-0.4l1.7,0.6c-2.4,1.1-7.1-3.4-9.6-3.6c-0.6-0.2,0.9-0.4,1.6-0.6
	c-6.6-1.3-0.8,1.7-5.6,2.3c-0.9-0.9,1.1-2.3-2.2-2.4c-1.7-0.7-9.4,3.3-14,1.7c1,0.7,2,1.3-0.2,1.9c-3.5,0.4-9.5-2.3-12.6,0
	c-0.4-0.2-0.6-0.4-0.6-0.5c-2.6,0.6-8.6,1.2-10.2,2.4c-2.6-4.3-16.5,2.5-16.6-1.6l-8.2,0.4l0.2-0.4c-5.2-0.2-7.1,0.8-8.9,1.8
	c-1.2-0.3-0.3-0.6-0.2-0.9c-7.7-0.7-8.4-0.5-14.8,1.5l-0.7-1.3c-0.9,0.4-3.6-0.1-7.1-0.5c-3.8-0.6-7.7-0.6-11.4,0
	c0.1-0.1,0.2-0.4,0.8-0.6c-8.5,1.5-20.2-3.8-23.3,1l-5.6,1.1c7.2,0.5-1.1,2.1,1.9,2.9c-2.9,0.2-7.3-1.5-3.8-1.7l0.5,0.2
	c1.3-2.5-9-1-8.7-2.7c-14.2-0.1-28-1.9-41.3-2.5l1.5,2l-4.6-0.3c-1.2-0.5-1.6-1.6,1.7-1.4c-1.7-1.2-5.6,0.7-5.7,1.1
	c-6.4-1,2.6-2.2,0.6-2.3h-2.7l0.6,0.2c-2.2,0.7-2.4,1.5-6.4,1.3c-2.5-0.5-1.2-1.2-2.2-1.4c0-0.1-0.3-0.2-1.5-0.1l-5.8-0.5l2.3,1.6
	c-2.6,0.6-5.5-0.3-2.9,1.5c-1.9-1.4-7.3-1.9-12.6-2.2c-2.7-0.1-5.1-0.2-7.1-0.4c-1.3-0.1-2.5-0.3-3.7-0.8c-3.4,0.4-6.7-0.8-9-3.3
	c0.3,0.4,0.2,1-0.2,1.3c-0.3,0.2-0.6,0.2-0.9,0c-0.2-0.1-0.5-0.3-0.7-0.4c-0.3-0.3-0.5-0.5-0.8-0.8c1.7-0.8,1-2,0.1-3.8
	s-1.9-4.2-1.2-5.9c-0.3,1.4-1.4-0.7-2.3-2.9s-1.8-4.3-2.4-1.9c-0.6-3,1.2-0.6,1.4-3c-1.5-3.3-2.1-7.4-2.4-11.7s-0.4-8.7-0.8-13.2
	c-0.5-0.1-1.1,1.4-1.9-0.5c0.7-1.6,1.4-3.2,2.2-4.8c-0.2-1.7-2.7-1.7-1-4.9c-0.4,0.4-1,1.1-1.1-0.1c0.8-4.4,1.4-8.8,2.2-13.2
	c0.8-4.4,1.9-8.7,3.4-12.9c1.5-4.1,3.6-8,6.3-11.5c2.6-3.3,6.1-5.9,10-7.5c-2.3,0.5-1.2-0.4,0.2-1.4c-1,0.5-0.6-1-1.2-1.4
	c0.6-0.2,1.1-0.4,1.7-0.6c0.6-0.2,1.1-0.4,1.7-0.5c1.1-0.3,2.2-0.4,3.4-0.5c0.2-0.6,0.7-1,1.2-1.2c0.8-0.3,1.5-0.5,2.3-0.6
	c0.8-0.1,1.6-0.2,2.3-0.3c0.5,0,1-0.3,1.3-0.7l-1.1,0.1l-0.5,0.1l-0.5,0.1c1.3-1.1,0.4-2.2-1.2-3.1c-0.4-0.2-0.8-0.5-1.3-0.8
	s-0.9-0.4-1.2-0.7c-0.8-0.5-1.4-1-1.4-1.6c-1.7,1.5-4.4,1.7-7.5,2.5s-6.3,2.5-7.6,5.9c-1.4,0.6,0.4-1.4-0.6-1.4
	c-0.3,1-0.8,2-1.5,2.8c-1,1.1-2,2.2-3.1,3.2l0.1-0.5c-2.7,3.4-5.1,6.9-7.4,10.5L16.5,41c-0.5,0.9-1,1.8-1.5,2.8s-1,2.1-1.5,3.2
	s-1,2.4-1.5,3.8l1.4-0.5c-0.5,1.3-1.1,2.6-1.9,3.8c0.6,1.6,1-0.1,1.5-1.8s1.1-3.4,1.8-1.8c-1.7,1.2-2.8,5.4-3.6,9.5
	s-1.2,8.1-2.7,9.1c-0.3,3.8,1.5-1,1.2,2.8l-0.8,1l1,1c-0.3,2.4-1.2,3.7-1.9,3.8c0-0.8-0.1-1.6-0.2-2.4c-1,3.2,0.4,9.1,0.2,10.2
	c0.1-1.2,0.2-2.4,0.3-3.7c1,10.2,1.9,22.7,6.2,32l0.4-0.9c1,2.1,1.8,4.3,2.4,6.6c0.2,1,0.5,1.9,0.9,2.8c0.6,1.6,1.5,3.1,2.5,4.4
	l-0.3-0.2c1.5,1.2,3.2,3,5,4.8c-1.1-0.6-0.5,0.4,0,1.4s1.2,1.9-0.4,1.1c1.4,0.9,3,1.7,4.6,2.2c0.6,0.2,1.3,0.3,1.9,0.4
	c0.8-0.1,1.4-0.2,4.5-0.5c0.3,0.4,0.7,0.8,1,1.3c1.1-0.2,1.6-0.5,2.5-0.6c1.3-0.1,2.7-0.2,4-0.1c-1.7,0.3-1.1,0.7-0.5,1.2
	s1.1,1-0.9,1.3c3.2,1.1,6.7,1.3,10,0.7c2.5-0.3,4.5-0.5,6.4,1.2c4-2.5-7.1-1.9-5-2.3c-1.8-1,3.2-1.9,5.8-1.5c2.7,0.2,4.3,3.7,11,3.9
	c-0.7,0-0.7,0.2-1.4,0.1c2.5,0.8,5-0.7,8,0.5c1.8-1.6,4,0.2,4.6-1.8l-6.2,0.2c3.5-0.4,6.8-2.8,12.5-1.4c-1.1,0.5-2.2,0.9-3.4,1.1
	c1.7,0.7,3.2-0.3,5,0.4c-0.6,2.1-7.5,0.2-11.3,1.6c1.8,0.9,7.1-1.3,5.2,0.9c2.8-2.8,6.6,0.6,11.2-1.5l-0.3,1.2
	c1.1-0.4,2.3-0.6,3.6-0.6l-2.4,1.6c3.7-1.3,7,1.4,10.6,0.8c-7.4-0.2-1.6-1.6-4.7-2.6c9.1-1.4,5.1,3.4,15.3,3.1
	c-1.4,0.1-5.2-0.9-3-1.4c1.9,0.2,3.9,0.8,5.7,1.5c6.8-0.1-1-1.3,1.9-2c2.3,1.6,3.3-0.6,6.3-1v1.3c7.7,1,2.1-2.6,9-1.5l-3,1.7
	l3.6-0.4l-0.8,1.4c3.9-1,5.2-0.7,9-0.3c-0.9-0.9,0.5-2.3,3.9-2.3c2.3,0.8-1.3,1.2,3.5,1.1c-1.1,0.8-2.3,1.8-4.4,0.6
	c-0.2,0.4-1.1,0.8-1.3,1.2c2.5,0.9,6.3,0.2,8,0.3c-0.6,0-1.3-0.1-1.9-0.3l7-1.7c1.1,0.5,0.2,0.9-0.6,1.2c1.4-0.1,2.4-0.7,4.5-0.8
	c-0.5,1-0.4,2.1-3.4,2.6l6.7-1.1c0.4,0.4,3.4,1.2,2.6,1.6c3.7,0.6,9.1-2,14-1.2c0.5-0.3,1.2-0.5,1.8-0.6c4.6,0.2,8.7,1.5,14.1,0
	l3.1,1.8c4.3-0.5-4.2-2.3,2.9-3.1c5-0.6,1.9,1.6,3.7,2.1c2.5-1,6.8-3,11.5-1.5C219.4,144.3,218.1,144.4,216.7,144.3z M269.4,142
	c-1,0.3-3,1.2-3.8,0.5C266.7,141,267.6,141.6,269.4,142z M345.9,116.9c-0.2,0.9-1.3,1.6-2.6,2.1C344,118.2,344.9,117.5,345.9,116.9z
	 M224.2,16.4l0.1-0.1C226.6,17,225.8,16.7,224.2,16.4z M219.5,15.7c-0.5,0.1-0.5,0.3-0.3,0.5c0.8-0.3,1.7-0.4,2.6-0.1
	C221.5,15.7,220.9,15.4,219.5,15.7z M69.8,130.8l0.9,0.4C68.7,131.4,69.2,131.1,69.8,130.8z"/>
<path class="st0" d="M339.8,124.5c-0.3,0-0.6-0.1-0.8-0.3C338.8,124.6,338.9,124.8,339.8,124.5z"/>
<path class="st0" d="M183.9,145.4h-0.2c-0.1,0.1-0.1,0.1-0.2,0.2L183.9,145.4z"/>
<path class="st0" d="M293.1,8.1c0.7,0.1,1.3,0.4,1.8,0.8C295,8.6,294.5,8.3,293.1,8.1z"/>
<path class="st0" d="M194.4,16.7l3-0.2c-0.9,0-1.8-0.2-2.7-0.6C194.8,16.3,195.4,16.7,194.4,16.7z"/>
<path class="st0" d="M168.6,7.6c-0.4,0.1-0.9,0-1.4,0.1l0.1,0.6C169.2,8.4,170.5,7.9,168.6,7.6z"/>
<path class="st0" d="M191.8,12.3c-0.2-1.1-2.1-0.8-4.2-0.7h0.4C187.3,13.1,189.6,12.7,191.8,12.3z"/>
<path class="st0" d="M187.1,11.6c-0.7,0-1.3,0-1.9-0.1C184.9,12.2,185.9,11.7,187.1,11.6z"/>
<path class="st0" d="M213.5,16.1c-1-0.3-0.7,1.3-1.2,0.9C211.1,18.3,219,15.6,213.5,16.1z"/>
<polygon class="st0" points="190.3,8.7 191,10.1 192.2,9.1 "/>
<path class="st0" d="M206.9,10.4l-3.4-0.5c0,0.2-0.4,0.3-0.9,0.4C204.7,10.5,207,10.8,206.9,10.4z"/>
<path class="st0" d="M202.6,10.3c-0.9-0.1-1.8-0.1-2.7,0.1C200.8,10.5,201.7,10.4,202.6,10.3z"/>
<polygon class="st0" points="194.9,8.5 195.9,8.8 198.3,9 "/>
<path class="st0" d="M243.3,12.4l3.7-0.2c0.4-0.4-0.6-0.8-2-0.6C244.1,11.8,242.7,11.9,243.3,12.4z"/>
<path class="st0" d="M232.3,8.2c0.6,0.2,1.2,0.6,1.6,1.1l0.2-1.6L232.3,8.2z"/>
<path class="st0" d="M243.1,8.3c0.4-0.4,5.4-1.1,0.7-1.2C243.4,7.6,239.7,7.8,243.1,8.3z"/>
<polygon class="st0" points="298.6,12.9 297.6,12.9 297.6,15.6 "/>
<path class="st0" d="M349.9,19.7c-0.5-0.7-1.1-1.2-1.8-1.7c-0.3-0.1-0.6-0.1-0.9,0c-0.5,0.2-0.8,0.4-2.5-1.4
	c-1.3-0.2,2.7,2.8,1.4,2.5c0.6,0.3,1.2,0.6,1.8,1c0.4,0.3,0.7,0.5,1.1,0.7C349.5,21.1,349.8,20.9,349.9,19.7z"/>
<path class="st0" d="M346.1,19.2c-0.5-0.2-1-0.4-1.5-0.6C345,18.8,345.6,19,346.1,19.2z"/>
<path class="st0" d="M50,24.6l1,0.2l0.5,0.1L52,25c-0.4-0.3-0.9-0.6-1.3-0.8L50,24.6z"/>
<path class="st0" d="M54,22.5c0.1,0.6,0.2,1.2,0.3,1.8c0.5-0.5,1-0.9,1.5-1.4C55.3,23,54.3,23,54,22.5z"/>
<path class="st0" d="M277.3,145.1l0.2-0.4c-0.5-0.4-1.1-0.4-2.4-0.4L277.3,145.1z"/>
<polygon class="st0" points="239,145.2 239.7,145.2 238.4,143.7 "/>
<path class="st0" d="M206.9,147.8c1.3,0,2.9-0.3,4.2-0.3C208.2,147.9,206.5,145.9,206.9,147.8z"/>
</svg>
