<svg xmlns="http://www.w3.org/2000/svg" viewBox="0 0 278.92 225.78"><defs><style>.cls-1{isolation:isolate;}.cls-2{fill:#fff;stroke:#1d1d1b;stroke-miterlimit:10;stroke-width:0.35px;}.cls-3{fill:#b7d164;mix-blend-mode:darken;}.cls-4{fill:none;}</style></defs><g class="cls-1"><g id="Capa_1" data-name="Capa 1"><path class="cls-2" d="M27,91.64c1.64,1.44,3.26,2.9,4.89,4.35a38.25,38.25,0,0,0,5.39,4c1.7,1,3.42,2,5.14,3.06,1.56.92,3.11,1.84,4.69,2.72a8.08,8.08,0,0,0,1.73.68c1.93.52,3.83,1.13,5.74,1.69a35.68,35.68,0,0,0,7.88,1.53,19.35,19.35,0,0,1,2.41.3,18,18,0,0,0,6.33,0c2.7-.47,5.39-1,8-1.7a4.92,4.92,0,0,1,.55-.14c.88-.15,1.52-.87,2.36-1.1a7.4,7.4,0,0,0,2.33-1.13c1-.71,2-1.43,3-2.16a16.89,16.89,0,0,0,3.26-3.06,35.68,35.68,0,0,0,4.53-6.83,37.06,37.06,0,0,0,3.15-9.16,14.54,14.54,0,0,0,.31-3.54,11.6,11.6,0,0,0-2.46-6.92,30.17,30.17,0,0,0-5.4-5.43c-1.27-1-2.54-2-3.86-2.94a12.15,12.15,0,0,0-4.31-1.72,2.68,2.68,0,0,0-.93.05.51.51,0,0,1-.55-.4.56.56,0,0,0-.52-.44,52,52,0,0,0-6-.17,12.89,12.89,0,0,0-1.85.27c-.68.12-1.34.31-2,.42A12.24,12.24,0,0,0,67.36,65a4,4,0,0,1-1.76.57,1.54,1.54,0,0,0-.69.26,16.87,16.87,0,0,0-4.1,2.91,14.53,14.53,0,0,0-1.61,2,2.05,2.05,0,0,0-.33,1.61A1.42,1.42,0,0,0,60,73.55a5.14,5.14,0,0,0,1.11,0c.68,0,1.36-.14,2.05-.18a9.36,9.36,0,0,1,4.21.68,17.24,17.24,0,0,1,4.09,2.22c1.48,1.14,3,2.26,4.44,3.42a5.72,5.72,0,0,1,1.75,2.39,5.34,5.34,0,0,1-2.38,6.6,21.56,21.56,0,0,1-7.63,2.34,14.07,14.07,0,0,1-3.55-.14c-1.48-.23-3-.47-4.43-.75a7.58,7.58,0,0,1-4.2-2.27l-1-1.11c-.75-.84-1.47-1.7-2.24-2.51a20.51,20.51,0,0,1-4.36-7.13c-.66-1.75-1.19-3.54-1.78-5.32a7.66,7.66,0,0,1,0-4.78c.23-.78.52-1.53.8-2.29.22-.58.49-1.15.7-1.73a9.51,9.51,0,0,1,2.4-3.74c.76-.73,1.49-1.5,2.22-2.27a39.75,39.75,0,0,1,3.14-2.66,18.1,18.1,0,0,1,3.29-2.12,21,21,0,0,1,7.29-2.2,48,48,0,0,1,5.22-.35l2.25,0a13.84,13.84,0,0,1,2.8.14,2.94,2.94,0,0,0,1.83-.15,1.22,1.22,0,0,1,1.24.1,7.45,7.45,0,0,0,2.6,1c1.94.49,3.87,1,5.8,1.49a108.89,108.89,0,0,1,11.54,3.8A33.65,33.65,0,0,1,104,58.39c6.76,4,13.46,8.08,20,12.44,2.12,1.42,4.18,2.94,6.27,4.4.72.5,1.46,1,2.17,1.46a14.5,14.5,0,0,0,2.78,1.53,9.77,9.77,0,0,1,3,1.9c1.42,1.32,3,2.39,4.57,3.56.84.65,1.71,1.25,2.58,1.86a6.13,6.13,0,0,0,1.28.75,1,1,0,0,1,.71.76.69.69,0,0,0,.74.45.6.6,0,0,1,.36.06c.07.06.07.22.08.34s0,.5,0,.75a1.14,1.14,0,0,0,1.18,1.17c.19,0,.38,0,.56,0a.51.51,0,0,1,.53.6,1.23,1.23,0,0,1,0,.19c-.22.71-.43,1.43-.65,2.14a.43.43,0,0,1-.46.23,3.22,3.22,0,0,0-.51-.21,1.39,1.39,0,0,0-1.5.52,6.61,6.61,0,0,0-.52.78,2.84,2.84,0,0,0-.23,2.69c.37.85.82,1.67,1.23,2.51a1,1,0,0,1,0,1.06,3.65,3.65,0,0,0-.14.35c0,.11-.09.23-.13.35a1.27,1.27,0,0,0,.21,1.39,6.06,6.06,0,0,1,1,1.35,5.12,5.12,0,0,0,1.46,1.68c.73.59,1.47,1.15,2.2,1.74.33.28.64.59,1,.89a.2.2,0,0,1,0,.32c-.05,0-.09.1-.15.11-.3,0-.61.07-.92.08-2.87.08-5.73.33-8.58.65-.49.06-1,.16-1.48.2a2.07,2.07,0,0,0-1.29.68,1.42,1.42,0,0,0-.21,1.73,3.08,3.08,0,0,0,1.18,1.17c1.18.7,2.34,1.42,3.53,2.1,1.84,1,3.7,2.07,5.55,3.11a7.42,7.42,0,0,1,2.23,1.67,3.66,3.66,0,0,0,.86.7,17.32,17.32,0,0,0,9.33,2.93,7.56,7.56,0,0,0,4.45-1.14,7.89,7.89,0,0,1,6.81-.89l.36.11a37,37,0,0,0,14.22,1.61,11.24,11.24,0,0,0,2.75-.47l1.12-.32a2.55,2.55,0,0,0,.42.45,6.34,6.34,0,0,1,1.42,1.72,1,1,0,0,0-.06.45,25.59,25.59,0,0,0,.85,4.59c.19.66.39,1.31.61,2a112.46,112.46,0,0,1,3,11c.79,3.53,1.71,7,2.82,10.47a39.51,39.51,0,0,1,1.08,4.15c.5,2.38,1,4.76,1.7,7.09a4,4,0,0,1,.15,2,6.73,6.73,0,0,0,.23,3.15c.55,2.11.88,4.27,1.25,6.42.55,3.13.91,6.29,1.21,9.46a17.59,17.59,0,0,1,.1,2,1.46,1.46,0,0,1-.79,1.39,4,4,0,0,0-1.8,1.83,23.43,23.43,0,0,1-1.93,3.18,2.84,2.84,0,0,0-.49,2.49,1.36,1.36,0,0,0,1.46,1.15,5,5,0,0,0,.56-.06c.78-.07.86-.23,1,.87,0,.37.12.74.19,1.11a2.3,2.3,0,0,0,.62,1.13,1.85,1.85,0,0,0,2.79-.16c.25-.36.45-.75.68-1.11.09-.14.21-.15.31,0,.37.42.74.84,1.09,1.27.2.24.35.52.55.76a1.52,1.52,0,0,0,1.87.33,2.89,2.89,0,0,0,1.57-2,4.77,4.77,0,0,1,.15-.54.45.45,0,0,1,.43-.28l2,.42a1.71,1.71,0,0,0,1.83-1.86,3.57,3.57,0,0,0-.26-.9c-.28-.62-.59-1.23-.87-1.86-.46-1-.44-1,.59-1.08a6.16,6.16,0,0,0,.75-.05,6,6,0,0,0,1.08-.29,2.17,2.17,0,0,0,1.34-1.87,1.34,1.34,0,0,0-.05-.56,2.7,2.7,0,0,0-1.65-1.91,11.69,11.69,0,0,0-6-.8c-.24,0-.48.11-.72.16a1.53,1.53,0,0,0-1.16.72,14.6,14.6,0,0,1,.29-4.34,13.06,13.06,0,0,0,.07-2.57,13.93,13.93,0,0,0,0-3.87c-.1-.68-.16-1.37-.21-2.05a19.72,19.72,0,0,0-.67-4.24,7.14,7.14,0,0,1-.18-1.48c-.06-.68-.09-1.37-.18-2-.92-6.79-1.94-13.57-3.17-20.32a57.91,57.91,0,0,0-1.34-5.83c-.41-1.38-.82-2.75-1.2-4.13-.07-.27-.27-.57,0-.87a3.21,3.21,0,0,1,.53.51,67.3,67.3,0,0,0,4.25,5.69c2.06,2.58,4.18,5.12,6.13,7.79.81,1.11,1.58,2.24,2.37,3.36.26.36.5.72.79,1.05,1.76,1.94,3.34,4,5,6.08,1.35,1.71,2.66,3.46,4,5.2,1,1.34,2,2.69,3.05,4,1.41,1.83,2.82,3.66,4.24,5.47.66.84,1.33,1.66,2,2.46a3.34,3.34,0,0,1,.83,1.64,4.55,4.55,0,0,0,.26.89,1.13,1.13,0,0,0,1.2.68,4.9,4.9,0,0,0,.55-.13,31.87,31.87,0,0,0,6.55-3.54,21.38,21.38,0,0,0,1.83-1.6c.84-.75,1.66-1.51,2.51-2.25a7.51,7.51,0,0,1,.9-.67.75.75,0,0,1,.86.1,38.71,38.71,0,0,1,3.45,3.68c.91,1.12,1.85,2.2,2.74,3.32,1.47,1.86,2.91,3.75,4.36,5.62.11.15.21.31.33.45,2.33,2.85,4.59,5.76,7.18,8.38.4.4.77.82,1.17,1.21a10,10,0,0,0,.83.76,2.27,2.27,0,0,0,2.78.19c.65-.37,1.25-.82,1.87-1.23.21-.14.4-.31.6-.46a.54.54,0,0,1,.81.06c.64.77,1.28,1.54,1.89,2.33,1.45,1.87,2.87,3.76,4.32,5.63,1.57,2,3.16,4,4.73,6,.31.39.62.79.94,1.17,1,1.18.87,1.14-.42,1.83a36.65,36.65,0,0,0-8.7,6.71,8.16,8.16,0,0,0-1.13,1.48,2.82,2.82,0,0,0,.77,3.82c.31.21.61.44.92.64a1.35,1.35,0,0,0,1.73-.07,13.18,13.18,0,0,0,1.58-1.59,6.65,6.65,0,0,1,1.92-1.74,5.63,5.63,0,0,0,1.64-1.51c.58-.74,1.13-1.49,1.7-2.24a3.75,3.75,0,0,1,.47-.57,9,9,0,0,0,2.11-2.6,1.33,1.33,0,0,1,.66-.62,3.64,3.64,0,0,0,.77-.53,1.27,1.27,0,0,0,.28-1.53,4.76,4.76,0,0,0-.31-.47L293,207.68c-.36-.43-.75-.84-1.09-1.28-1.8-2.32-3.82-4.46-5.81-6.6-1.06-1.15-2.17-2.24-3.26-3.36a6.15,6.15,0,0,1-1.26-1.61.62.62,0,0,1,.05-.7c.39-.49.78-1,1.15-1.47a2.22,2.22,0,0,0,0-2.92c-.5-.71-1.05-1.39-1.61-2.06-3-3.58-6-7.18-9.13-10.66-1.37-1.53-2.66-3.14-4-4.67-1.74-2-3.52-3.89-5.27-5.83-.29-.33-.57-.66-.83-1a.4.4,0,0,1,0-.35c.26-.43.53-.85.82-1.25.44-.61.9-1.2,1.35-1.79a.82.82,0,0,1,1.16-.12c.33.3.64.6.93.92l4.84,5.22c2.66,2.89,5.31,5.79,8,8.66,1.45,1.54,3,3,4.46,4.53,1.09,1.12,2.16,2.24,3.24,3.37a9.87,9.87,0,0,0,1.86,1.56,12.81,12.81,0,0,0,1.3.74,2.28,2.28,0,0,0,2.75-.45c.41-.38.79-.8,1.17-1.21s.56-.67.86-1c.65-.69.83-.55,1.26.1.8,1.19,1.6,2.38,2.43,3.55,1.58,2.24,3.14,4.5,4.57,6.84,1.1,1.81,2.19,3.62,3.3,5.43.2.31.42.62.64.92a2.65,2.65,0,0,0,1.34,1,3.71,3.71,0,0,1,1.47.8,1,1,0,0,0,1.06.13,5,5,0,0,0,.85-.37c.63-.39,1.27-.79,1.87-1.23,1.11-.81,2.23-1.61,3.27-2.5q3.92-3.34,7.64-6.89a2.75,2.75,0,0,0,.91-1.58,1.32,1.32,0,0,0,0-.56,1.47,1.47,0,0,0-.27-.47.77.77,0,0,0-.31-.19c-.94-.35-1.87-.71-2.81-1a3.16,3.16,0,0,0-2.53.28,8.94,8.94,0,0,0-1.59,1c-.86.73-1.85,1.27-2.67,2.06a19.42,19.42,0,0,0-2.57,2.71,2,2,0,0,1-1.14.91,3.08,3.08,0,0,0-1.46,1.13c-.28.33-.51.7-.81,1a1.39,1.39,0,0,1-.64.35.61.61,0,0,1-.52-.11c-.38-.49-.72-1-1.06-1.53-1-1.52-1.91-3.07-3-4.54-.83-1.17-1.77-2.26-2.71-3.34s-2.13-2.28-3.19-3.42l-1-1.11a.78.78,0,0,1-.2-1,8.16,8.16,0,0,0,.41-.84A1.93,1.93,0,0,0,297,180a6.54,6.54,0,0,0-.56-.74c-3.83-4.53-7.68-9-11.74-13.35-2.44-2.59-4.91-5.14-7.37-7.71-.34-.36-.73-.68-1.1-1a3.76,3.76,0,0,1-.55-.5,41.89,41.89,0,0,0-3.68-4c-.21-.23-.42-.46-.62-.7a1.05,1.05,0,0,1,0-1.22l.78-1.05c1.38-1.85,2.74-3.71,4.13-5.54a6.57,6.57,0,0,0,.85-1.44,3.21,3.21,0,0,0,.11-2.38c-.3-.87-.74-1.59-1.81-1.59-.15,0-.18-.1-.09-.26l.2-.31a.37.37,0,0,0,0-.5,8.4,8.4,0,0,0-.85-.73,11,11,0,0,1-2.62-2.64,7.29,7.29,0,0,0-.84-1c-1.22-1.26-2.41-2.53-3.67-3.74a57.1,57.1,0,0,0-5.67-4.87,4.57,4.57,0,0,1-1.18-1.18,5,5,0,0,0-1.54-1.34,10.33,10.33,0,0,1-1.71-1.45A25.78,25.78,0,0,0,252.8,117l-1.7-1.15a4.18,4.18,0,0,1-1.17-1.2.22.22,0,0,1,0-.32.3.3,0,0,1,.16-.08c.56,0,1.12,0,1.67.1,3.23.32,6.46.66,9.68,1,1.68.17,3.36.27,5,.41,2.61.21,5.22.4,7.83.66a58.37,58.37,0,0,0,9.16.18,7.23,7.23,0,0,1,.93,0,.94.94,0,0,1,.88.59c.26.63.52,1.27.79,1.89.36.8.71,1.6,1.1,2.37a6.63,6.63,0,0,0,1.52,1.89,1.21,1.21,0,0,0,1.55,0,1.93,1.93,0,0,0,.76-1.62c0-.5-.06-1-.1-1.49a.3.3,0,0,1,.38-.28l1.65.32a1.62,1.62,0,0,0,1.86-.92,2.44,2.44,0,0,0-.39-2.94c-.41-.46-.88-.88-1.32-1.32a.39.39,0,0,1,.11-.49,9.18,9.18,0,0,1,.89-.28,2.28,2.28,0,0,0,1.11-.65,1.42,1.42,0,0,0,.42-1,1.35,1.35,0,0,0-.82-1.35,18.56,18.56,0,0,0-2-.52c-.67-.15-1.35-.25-2-.39-.06,0-.13-.27-.09-.31a16.58,16.58,0,0,1,1.15-1.22,5.85,5.85,0,0,0,1.19-1.43,2.54,2.54,0,0,0,.28-2,1.31,1.31,0,0,0-1-1,4,4,0,0,0-1.29-.12,5.53,5.53,0,0,0-3.49,1.62c-.21.23-.44.44-.63.68a8.15,8.15,0,0,1-4,2.61c-.83.27-1.68.49-2.52.7a46.55,46.55,0,0,1-9.61,1.41,12.78,12.78,0,0,1-2-.07c-3-.4-5.93-.83-8.88-1.28a100.31,100.31,0,0,1-9.9-2,52.08,52.08,0,0,1-6.57-2.17c-.57-.23-1.16-.44-1.73-.69a109.63,109.63,0,0,0-10.52-3.89,53.19,53.19,0,0,1-7.29-2.9c-.22-.1-.44-.22-.66-.34a.45.45,0,0,1-.23-.47,5.69,5.69,0,0,1,.15-.92c.19-.86.39-1.7.58-2.56a5.19,5.19,0,0,0,.13-2.22,5,5,0,0,1,.12-2,10.58,10.58,0,0,0-.3-5.18c-.69-2.45-1.36-4.92-2-7.38-.13-.48-.3-1-.42-1.44-.06-.25-.14-.49-.22-.73a1.38,1.38,0,0,0,.57-.48,1.39,1.39,0,0,0,1.42,0,.42.42,0,0,0,.15-.11,1.29,1.29,0,0,0,.19-.32,24.37,24.37,0,0,0,1.72-7.81,15,15,0,0,0-.35-3.72,14.17,14.17,0,0,0-2.32-4.86c-1.07-1.46-2.16-2.91-3.36-4.26a11.43,11.43,0,0,1-.82-1,35.52,35.52,0,0,0-3.47-4.17l-4.07-4.39a6.54,6.54,0,0,0-.81-.77,2.92,2.92,0,0,0-.83-.41,1.27,1.27,0,0,0-1.6.9,6.76,6.76,0,0,0-.12,1.49c0,1.62.12,3.24.19,4.86,0,.37,0,.74,0,1.11,0,.16-.28.28-.44.2-.45-.21-.9-.43-1.34-.66l-5.79-3c-.5-.26-1-.49-1.52-.73A8.88,8.88,0,0,0,192,46.4a.59.59,0,0,0-.3.26c-.25.06-.5.13-.74.21a20,20,0,0,0-4.6-1.82,21.5,21.5,0,0,1-4.43-1.46A132.62,132.62,0,0,0,169.28,39a3.31,3.31,0,0,0-.9-.23,7.77,7.77,0,0,1-2.88-.75l-1.39-.53c-.41-.15-.82-.31-1.24-.43a19.65,19.65,0,0,1-2.17-.54c-.69-.28-1.36-.6-2.08-.83-1.36-.45-2.73-.86-4.13-1.18-1-.23-2.05-.53-3.07-.83-2-.61-4-1.24-6.08-1.86a41.24,41.24,0,0,0-5.28-1.22l-6.64-1.1a22.72,22.72,0,0,1-3.65-.84,19.17,19.17,0,0,0-3.27-.76l-2.41-.34a22,22,0,0,1-4.38-.95,8.06,8.06,0,0,0-2.38-.43,16.27,16.27,0,0,1-1.86-.2c-3.52-.55-7-1-10.59-1.31l-8-.75a53.15,53.15,0,0,0-10.09,0l-2.61.24a24.43,24.43,0,0,1-3.73.09,11.47,11.47,0,0,0-1.31,0,75.45,75.45,0,0,0-12.79,1.61c-1,.25-2.06.49-3.11.67a63.19,63.19,0,0,0-10.76,3.08c-1.52.56-3,1.15-4.52,1.75a6,6,0,0,0-2.09,1.22,9.8,9.8,0,0,1-2.68,1.67c-1.18.57-2.37,1.1-3.5,1.76a11,11,0,0,0-1.52,1.08L35.3,39.52c-.38.32-.77.64-1.13,1-1.47,1.43-2.93,2.89-4.4,4.32a10.69,10.69,0,0,0-2,2.68c-1.41,2.64-3.05,5.13-4.7,7.62a10.53,10.53,0,0,0-1.43,3Q20.4,62.57,19.21,67c-.15.54-.21,1.1-.31,1.66a14.21,14.21,0,0,0,.22,6.12,31.36,31.36,0,0,1,.9,4.39,7,7,0,0,0,1,2.62c1.62,2.87,3.28,5.73,4.92,8.59A5.35,5.35,0,0,0,27,91.64Zm181.23,70a.69.69,0,0,1-.42.49C207.91,161.93,208,161.72,208.23,161.65Z"/><path d="M197.39,51.67c.18-.17-.19-.14.06-.1s.16.1.08.19.11,0-.13,0c-.1-.26-.33-.38-.54-.53a2,2,0,0,1-1.07.27L190.2,52a3.47,3.47,0,0,1-.56,0,.33.33,0,0,1-.16-.09c-.09-.07-.09-.19,0-.29a3.58,3.58,0,0,1,.76-.53,9.68,9.68,0,0,1,2.3-.75c.68-.13,1.35-.23,2-.38s1.26-.06,1.73-.56c0-.81-.79-1-1.21-1.53a1.77,1.77,0,0,0-1.34-.58,5.14,5.14,0,0,1-1.66-.18,1.06,1.06,0,0,1-.4-.33c-.09-.1.11-.34.3-.4a8.88,8.88,0,0,1,6.39.43c.5.24,1,.47,1.52.73l5.79,3c.44.23.89.45,1.34.66.16.08.44,0,.44-.2,0-.37,0-.74,0-1.11-.07-1.62-.15-3.24-.19-4.86a6.76,6.76,0,0,1,.12-1.49,1.27,1.27,0,0,1,1.6-.9,2.92,2.92,0,0,1,.83.41,6.54,6.54,0,0,1,.81.77l4.07,4.39a35.52,35.52,0,0,1,3.47,4.17,11.43,11.43,0,0,0,.82,1c1.2,1.35,2.29,2.8,3.36,4.26a14.17,14.17,0,0,1,2.32,4.86,15,15,0,0,1,.35,3.72,24.37,24.37,0,0,1-1.72,7.81,1.29,1.29,0,0,1-.19.32.42.42,0,0,1-.15.11,1.36,1.36,0,0,1-1.71-.2,1.58,1.58,0,0,1-.46-1.18,10.21,10.21,0,0,1,.22-1.47c.24-1.16.54-2.31.74-3.47a13,13,0,0,0-2.32-9.76,34.66,34.66,0,0,0-2.72-3.57c-.49-.56-.95-1.16-1.39-1.76a53.31,53.31,0,0,0-4.79-5.5.55.55,0,0,0-.32-.09c-.13,0-.21.09-.22.25-.07,1.49-.16,3-.21,4.48a1.25,1.25,0,0,0,.22.69,10.91,10.91,0,0,1,1.31,3.86,2.11,2.11,0,0,1,0,.56.68.68,0,0,1-1,.43,1.93,1.93,0,0,1-.69-.86c-.2-.45-.34-.94-.55-1.39-.65-1.34-.6-1.53-2.22-1.47a6,6,0,0,0-.74.09.24.24,0,0,0-.13.13.2.2,0,0,0,0,.17c.59.45,1.2.87,1.78,1.33a3.08,3.08,0,0,1,1.45,2.49.32.32,0,0,0,.34.34,1.47,1.47,0,0,1,1.37.79,14.43,14.43,0,0,0,1.9,2.3A11.23,11.23,0,0,1,213.89,63c.48.65,1,1.31,1.42,2a38.72,38.72,0,0,1,3.41,5.58c.36.79.81,1.54,1.24,2.3a11.3,11.3,0,0,1,1.27,2.89c.12.48.29,1,.42,1.44.68,2.46,1.35,4.93,2,7.38a10.58,10.58,0,0,1,.3,5.18,5,5,0,0,0-.12,2,5.19,5.19,0,0,1-.13,2.22c-.19.86-.39,1.7-.58,2.56a5.69,5.69,0,0,0-.15.92.45.45,0,0,0,.23.47c.22.12.44.24.66.34a53.19,53.19,0,0,0,7.29,2.9,109.63,109.63,0,0,1,10.52,3.89c.57.25,1.16.46,1.73.69A52.08,52.08,0,0,0,250,108a100.31,100.31,0,0,0,9.9,2c2.95.45,5.92.88,8.88,1.28a12.78,12.78,0,0,0,2,.07,46.55,46.55,0,0,0,9.61-1.41c.84-.21,1.69-.43,2.52-.7a8.15,8.15,0,0,0,4-2.61c.19-.24.42-.45.63-.68a5.53,5.53,0,0,1,3.49-1.62,4,4,0,0,1,1.29.12,1.31,1.31,0,0,1,1,1,2.54,2.54,0,0,1-.28,2,5.85,5.85,0,0,1-1.19,1.43,16.58,16.58,0,0,0-1.15,1.22s0,.3.09.31c.66.14,1.34.24,2,.39a18.56,18.56,0,0,1,2,.52,1.35,1.35,0,0,1,.82,1.35,1.42,1.42,0,0,1-.42,1,2.28,2.28,0,0,1-1.11.65,9.18,9.18,0,0,0-.89.28.39.39,0,0,0-.11.49c.44.44.91.86,1.32,1.32a2.44,2.44,0,0,1,.39,2.94,1.62,1.62,0,0,1-1.86.92l-1.65-.32a.3.3,0,0,0-.38.28c0,.49.08,1,.1,1.49a1.93,1.93,0,0,1-.76,1.62,1.21,1.21,0,0,1-1.55,0,6.63,6.63,0,0,1-1.52-1.89c-.39-.77-.74-1.57-1.1-2.37-.27-.62-.53-1.26-.79-1.89a.94.94,0,0,0-.88-.59,7.23,7.23,0,0,0-.93,0,58.37,58.37,0,0,1-9.16-.18c-2.61-.26-5.22-.45-7.83-.66-1.68-.14-3.36-.24-5-.41-3.22-.31-6.45-.65-9.68-1-.55-.06-1.11-.07-1.67-.1a.3.3,0,0,0-.16.08.22.22,0,0,0,0,.32,4.18,4.18,0,0,0,1.17,1.2l1.7,1.15a25.78,25.78,0,0,1,4.62,3.78,10.33,10.33,0,0,0,1.71,1.45,5,5,0,0,1,1.54,1.34,4.57,4.57,0,0,0,1.18,1.18,57.1,57.1,0,0,1,5.67,4.87c1.26,1.21,2.45,2.48,3.67,3.74a7.29,7.29,0,0,1,.84,1,11,11,0,0,0,2.62,2.64,8.4,8.4,0,0,1,.85.73.37.37,0,0,1,0,.5l-.2.31c-.09.16-.06.26.09.26,1.07,0,1.51.72,1.81,1.59a3.21,3.21,0,0,1-.11,2.38,6.57,6.57,0,0,1-.85,1.44c-1.39,1.83-2.75,3.69-4.13,5.54l-.78,1.05a1.05,1.05,0,0,0,0,1.22c.2.24.41.47.62.7a41.89,41.89,0,0,1,3.68,4,3.76,3.76,0,0,0,.55.5c.37.33.76.65,1.1,1,2.46,2.57,4.93,5.12,7.37,7.71,4.06,4.32,7.91,8.82,11.74,13.35a6.54,6.54,0,0,1,.56.74,1.93,1.93,0,0,1,.18,1.79,8.16,8.16,0,0,1-.41.84.78.78,0,0,0,.2,1l1,1.11c1.06,1.14,2.16,2.25,3.19,3.42s1.88,2.17,2.71,3.34c1.05,1.47,2,3,3,4.54.34.52.68,1,1.06,1.53a.61.61,0,0,0,.52.11,1.39,1.39,0,0,0,.64-.35c.3-.32.53-.69.81-1a3.08,3.08,0,0,1,1.46-1.13,2,2,0,0,0,1.14-.91,19.42,19.42,0,0,1,2.57-2.71c.82-.79,1.81-1.33,2.67-2.06a8.94,8.94,0,0,1,1.59-1,3.16,3.16,0,0,1,2.53-.28c.94.31,1.87.67,2.81,1a.77.77,0,0,1,.31.19,1.47,1.47,0,0,1,.27.47,1.32,1.32,0,0,1,0,.56,2.75,2.75,0,0,1-.91,1.58q-3.72,3.56-7.64,6.89c-1,.89-2.16,1.69-3.27,2.5-.6.44-1.24.84-1.87,1.23a5,5,0,0,1-.85.37,1,1,0,0,1-1.06-.13,3.71,3.71,0,0,0-1.47-.8,2.65,2.65,0,0,1-1.34-1c-.22-.3-.44-.61-.64-.92-1.11-1.81-2.2-3.62-3.3-5.43-1.43-2.34-3-4.6-4.57-6.84-.83-1.17-1.63-2.36-2.43-3.55-.43-.65-.61-.79-1.26-.1-.3.32-.57.66-.86,1s-.76.83-1.17,1.21a2.28,2.28,0,0,1-2.75.45,12.81,12.81,0,0,1-1.3-.74,9.87,9.87,0,0,1-1.86-1.56c-1.08-1.13-2.15-2.25-3.24-3.37-1.49-1.51-3-3-4.46-4.53-2.69-2.87-5.34-5.77-8-8.66l-4.84-5.22c-.29-.32-.6-.62-.93-.92a.82.82,0,0,0-1.16.12c-.45.59-.91,1.18-1.35,1.79-.29.4-.56.82-.82,1.25a.4.4,0,0,0,0,.35c.26.35.54.68.83,1,1.75,1.94,3.53,3.87,5.27,5.83,1.37,1.53,2.66,3.14,4,4.67,3.13,3.48,6.12,7.08,9.13,10.66.56.67,1.11,1.35,1.61,2.06a2.22,2.22,0,0,1,0,2.92c-.37.5-.76,1-1.15,1.47a.62.62,0,0,0-.05.7,6.15,6.15,0,0,0,1.26,1.61c1.09,1.12,2.2,2.21,3.26,3.36,2,2.14,4,4.28,5.81,6.6.34.44.73.85,1.09,1.28l3.54,4.35a4.76,4.76,0,0,1,.31.47,1.27,1.27,0,0,1-.28,1.53,3.64,3.64,0,0,1-.77.53,1.33,1.33,0,0,0-.66.62,9,9,0,0,1-2.11,2.6,3.75,3.75,0,0,0-.47.57c-.57.75-1.12,1.5-1.7,2.24a5.63,5.63,0,0,1-1.64,1.51,6.65,6.65,0,0,0-1.92,1.74,13.18,13.18,0,0,1-1.58,1.59,1.35,1.35,0,0,1-1.73.07c-.31-.2-.61-.43-.92-.64a2.82,2.82,0,0,1-.77-3.82,8.16,8.16,0,0,1,1.13-1.48,36.65,36.65,0,0,1,8.7-6.71c1.29-.69,1.42-.65.42-1.83-.32-.38-.63-.78-.94-1.17-1.57-2-3.16-4-4.73-6-1.45-1.87-2.87-3.76-4.32-5.63-.61-.79-1.25-1.56-1.89-2.33a.54.54,0,0,0-.81-.06c-.2.15-.39.32-.6.46-.62.41-1.22.86-1.87,1.23a2.27,2.27,0,0,1-2.78-.19,10,10,0,0,1-.83-.76c-.4-.39-.77-.81-1.17-1.21-2.59-2.62-4.85-5.53-7.18-8.38-.12-.14-.22-.3-.33-.45-1.45-1.87-2.89-3.76-4.36-5.62-.89-1.12-1.83-2.2-2.74-3.32a38.71,38.71,0,0,0-3.45-3.68.75.75,0,0,0-.86-.1,8.4,8.4,0,0,0-.9.67c-.85.74-1.67,1.5-2.51,2.25a21.38,21.38,0,0,1-1.83,1.6,31.87,31.87,0,0,1-6.55,3.54,4.9,4.9,0,0,1-.55.13,1.13,1.13,0,0,1-1.2-.68,4.55,4.55,0,0,1-.26-.89,3.34,3.34,0,0,0-.83-1.64c-.69-.8-1.36-1.62-2-2.46-1.42-1.81-2.83-3.64-4.24-5.47-1-1.33-2-2.68-3.05-4-1.32-1.74-2.63-3.49-4-5.2-1.63-2-3.21-4.14-5-6.08-.29-.33-.53-.69-.79-1.05-.79-1.12-1.56-2.25-2.37-3.36-2-2.67-4.07-5.21-6.13-7.79a67.3,67.3,0,0,1-4.25-5.69,3.21,3.21,0,0,0-.53-.51c-.23.3,0,.6,0,.87.38,1.38.79,2.75,1.2,4.13a57.91,57.91,0,0,1,1.34,5.83c1.23,6.75,2.25,13.53,3.17,20.32.09.68.12,1.37.18,2a7.14,7.14,0,0,0,.18,1.48,19.72,19.72,0,0,1,.67,4.24c0,.68.11,1.37.21,2.05a13.94,13.94,0,0,1-1.19,7.84c-.25.56-.45,1.15-.67,1.73a3.09,3.09,0,0,1-1,2.16c-.19.25-.39.49-.55.75a.36.36,0,0,0,.06.33c.51.45,1.15.79,1.32,1.53,0,0,.22.07.34,0a2.76,2.76,0,0,0,.54-.16.9.9,0,0,0,.68-1,11.82,11.82,0,0,1-.16-1.3c0-1,.22-1.66,1.38-1.89.24-.05.48-.12.72-.16a11.69,11.69,0,0,1,6,.8,2.7,2.7,0,0,1,1.65,1.91,1.34,1.34,0,0,1,.05.56,2.17,2.17,0,0,1-1.34,1.87,6,6,0,0,1-1.08.29,6.16,6.16,0,0,1-.75.05c-1,.07-1,.09-.59,1.08.28.63.59,1.24.87,1.86a3.57,3.57,0,0,1,.26.9,1.71,1.71,0,0,1-1.83,1.86l-2-.42a.45.45,0,0,0-.43.28,4.77,4.77,0,0,0-.15.54,2.89,2.89,0,0,1-1.57,2,1.52,1.52,0,0,1-1.87-.33c-.2-.24-.35-.52-.55-.76-.35-.43-.72-.85-1.09-1.27-.1-.11-.22-.1-.31,0-.23.36-.43.75-.68,1.11a1.85,1.85,0,0,1-2.79.16,2.3,2.3,0,0,1-.62-1.13c-.07-.37-.14-.74-.19-1.11-.13-1.1-.21-.94-1-.87a5,5,0,0,1-.56.06,1.36,1.36,0,0,1-1.46-1.15,2.84,2.84,0,0,1,.49-2.49,24.55,24.55,0,0,0,1.94-3.18,3.92,3.92,0,0,1,1.79-1.83,1.46,1.46,0,0,0,.79-1.39,17.59,17.59,0,0,0-.1-2c-.3-3.17-.66-6.33-1.21-9.46-.37-2.15-.7-4.31-1.25-6.42a6.73,6.73,0,0,1-.23-3.15,4,4,0,0,0-.15-2c-.7-2.33-1.2-4.71-1.7-7.09a40.34,40.34,0,0,0-1.08-4.16c-1.11-3.44-2-6.93-2.82-10.46a112.46,112.46,0,0,0-3-11c-.22-.65-.42-1.3-.61-2a25.59,25.59,0,0,1-.85-4.59.89.89,0,0,1,.1-.53.68.68,0,0,1,.4-.35.59.59,0,0,1,.47.23,4,4,0,0,1,.43.82c1.41,3.53,2.76,7.08,4,10.68.32.94.6,1.9.83,2.87.5,2.06,1,4.11,1.69,6.12a7.73,7.73,0,0,1,.41,1.82,1.88,1.88,0,0,0,.33,1c.11.16,0,.34-.11.5-.22.42-.22.45.22.58a.81.81,0,0,1,.62.6c1,3.42,1.94,6.84,2.76,10.3.12.48.23,1,.37,1.44a.7.7,0,0,0,.54.47c-.3.05-.39.3-.5.54.17.26.36.52.54.78l0,.11c-.1-.08-.09-.1,0-.05,0-.21-.11-.43-.34-.49s-.21-.2-.26-.35a.72.72,0,0,0,.5-.54,6.3,6.3,0,0,1,.06-3,1.13,1.13,0,0,0-.18-1.07,2.41,2.41,0,0,1-.49-1.57c-.11-1.43-.22-2.86-.34-4.29-.06-.68-.11-1.37-.23-2q-.52-2.94-1.1-5.88c-.24-1.29-.53-2.57-.76-3.86a12.59,12.59,0,0,0-.57-2.35,2.86,2.86,0,0,1,0-2.36,1.24,1.24,0,0,0-.1-1.08,3,3,0,0,0-.41-.62c-1.64-2.35-3.31-4.68-4.94-7-.74-1.08-1.41-2.2-2.1-3.31a3.24,3.24,0,0,1-.19-.52c0-.12.21-.38.34-.34a1.88,1.88,0,0,1,.69.24,6.16,6.16,0,0,1,.91.93c1.25,1.56,2.52,3.1,3.72,4.7s2.34,2.91,3.59,4.31a39.6,39.6,0,0,1,2.6,3.18c.88,1.21,1.77,2.42,2.73,3.57,2,2.39,3.9,4.86,6,7.16a45.39,45.39,0,0,1,4.06,4.89,18.27,18.27,0,0,0,2,2.45,7,7,0,0,1,1.83,2.32,2.34,2.34,0,0,0,.56.75c1.35,1.38,2.54,2.91,3.78,4.4s2.39,2.87,3.54,4.34,2.32,3.1,3.49,4.64c1.39,1.83,2.83,3.64,4.13,5.54a5.56,5.56,0,0,0,1.41,1.49,1.47,1.47,0,0,0,1.74.14,21.81,21.81,0,0,0,2.75-1.55,42.11,42.11,0,0,0,4.73-4.52c.64-.68,1.26-1.38,1.88-2.08a11.49,11.49,0,0,0,.88-1,15.63,15.63,0,0,1,2.46-2.55A27.48,27.48,0,0,0,260.4,162a34,34,0,0,0,4.32-6.74,31,31,0,0,1,2.4-4c.29-.46.83-.77,1.14-1.22s.52-1.13.86-1.64c.72-1.09,1.51-2.14,2.27-3.2s1.53-2.12,2.28-3.19a1.25,1.25,0,0,0,.06-1.4,9.4,9.4,0,0,0-1.57-2.08c-1.05-1.08-2.09-2.15-3.17-3.19-2.11-2-4.12-4.16-6.33-6.1-1.4-1.24-2.73-2.56-4.15-3.78-3.08-2.63-6.19-5.22-9.36-7.74-1-.78-1.92-1.6-2.86-2.42a35,35,0,0,0-5.42-4c-2.38-1.36-4.69-2.85-7-4.4q-2.23-1.52-4.58-2.89c-2.2-1.3-4.43-2.55-6.65-3.81a.51.51,0,0,0-.66.16,6.7,6.7,0,0,0-.45.6c-.73,1.22-1.51,2.43-2.18,3.69a29.92,29.92,0,0,1-3.69,5.37,36.31,36.31,0,0,1-7.43,6.52,33.3,33.3,0,0,1-8.93,4.19c-2.33.69-4.67,1.34-7,2a11.24,11.24,0,0,1-2.75.47,37,37,0,0,1-14.22-1.61l-.36-.11a7.89,7.89,0,0,0-6.81.89,7.56,7.56,0,0,1-4.45,1.14,17.32,17.32,0,0,1-9.33-2.93,3.66,3.66,0,0,1-.86-.7,7.42,7.42,0,0,0-2.23-1.67c-1.85-1-3.71-2.06-5.55-3.11-1.19-.68-2.35-1.4-3.53-2.1a3.08,3.08,0,0,1-1.18-1.17,1.44,1.44,0,0,1,.21-1.73,2.07,2.07,0,0,1,1.29-.68c.49,0,1-.14,1.48-.2,2.85-.32,5.71-.57,8.58-.65.31,0,.62,0,.92-.08.06,0,.1-.07.15-.11a.2.2,0,0,0,0-.32c-.31-.3-.62-.61-1-.89-.73-.59-1.47-1.15-2.2-1.74a5.12,5.12,0,0,1-1.46-1.68,6.06,6.06,0,0,0-1-1.35,1.27,1.27,0,0,1-.21-1.39c0-.12.09-.24.13-.35a3.65,3.65,0,0,1,.14-.35,1,1,0,0,0,0-1.06c-.41-.84-.86-1.66-1.23-2.51a2.84,2.84,0,0,1,.23-2.69,5.88,5.88,0,0,1,.52-.78,1.39,1.39,0,0,1,1.5-.52,3.22,3.22,0,0,1,.51.21.43.43,0,0,0,.46-.23c.22-.71.43-1.43.65-2.14a1.23,1.23,0,0,0,0-.19.51.51,0,0,0-.53-.6c-.18,0-.37,0-.56,0a1.14,1.14,0,0,1-1.18-1.17c0-.25,0-.5,0-.75s0-.28-.08-.34a.6.6,0,0,0-.36-.06.69.69,0,0,1-.74-.45,1,1,0,0,0-.71-.76,6.13,6.13,0,0,1-1.28-.75c-.87-.61-1.74-1.21-2.58-1.86-1.53-1.17-3.15-2.24-4.57-3.56a9.77,9.77,0,0,0-3-1.9,14.5,14.5,0,0,1-2.78-1.53c-.71-.5-1.45-1-2.17-1.46-2.09-1.46-4.15-3-6.27-4.4-6.53-4.36-13.23-8.46-20-12.44a33.65,33.65,0,0,0-4.88-2.34,108.89,108.89,0,0,0-11.54-3.8c-1.93-.51-3.86-1-5.8-1.49a7.45,7.45,0,0,1-2.6-1,1.22,1.22,0,0,0-1.24-.1,2.94,2.94,0,0,1-1.83.15,13.84,13.84,0,0,0-2.8-.14l-2.25,0a48,48,0,0,0-5.22.35,21,21,0,0,0-7.29,2.2,18.1,18.1,0,0,0-3.29,2.12A39.75,39.75,0,0,0,52.12,57c-.73.77-1.46,1.54-2.23,2.27A9.6,9.6,0,0,0,47.5,63c-.21.58-.48,1.15-.7,1.73-.28.76-.57,1.51-.8,2.29a7.66,7.66,0,0,0,0,4.78c.59,1.78,1.12,3.57,1.78,5.32a20.51,20.51,0,0,0,4.36,7.13c.77.81,1.49,1.67,2.24,2.51l1,1.11a7.58,7.58,0,0,0,4.2,2.27c1.47.28,2.95.52,4.43.75a14.07,14.07,0,0,0,3.55.14,21.56,21.56,0,0,0,7.63-2.34,5.34,5.34,0,0,0,2.38-6.6,5.72,5.72,0,0,0-1.75-2.39c-1.46-1.16-3-2.28-4.44-3.42a17.24,17.24,0,0,0-4.09-2.22,9.36,9.36,0,0,0-4.21-.68c-.69,0-1.37.14-2.05.18a5.14,5.14,0,0,1-1.11,0,1.42,1.42,0,0,1-1.1-1.14,2.05,2.05,0,0,1,.33-1.61,14.53,14.53,0,0,1,1.61-2,16.87,16.87,0,0,1,4.1-2.91,1.54,1.54,0,0,1,.69-.26A4,4,0,0,0,67.36,65a12.24,12.24,0,0,1,3.54-1.15c.67-.11,1.33-.3,2-.42a12.89,12.89,0,0,1,1.85-.27,52,52,0,0,1,6,.17.56.56,0,0,1,.52.44.51.51,0,0,0,.55.4,2.68,2.68,0,0,1,.93-.05,12.15,12.15,0,0,1,4.31,1.72c1.32.94,2.59,2,3.86,3a29.8,29.8,0,0,1,5.4,5.42,11.6,11.6,0,0,1,2.46,6.92,14.54,14.54,0,0,1-.31,3.54,37.06,37.06,0,0,1-3.15,9.16,35.68,35.68,0,0,1-4.53,6.83,16.89,16.89,0,0,1-3.26,3.06c-1,.73-2,1.45-3,2.16A7.4,7.4,0,0,1,82.15,107c-.84.23-1.48,1-2.36,1.1a4.92,4.92,0,0,0-.55.14c-2.65.71-5.34,1.23-8,1.7a18,18,0,0,1-6.33,0,19.35,19.35,0,0,0-2.41-.3,35.68,35.68,0,0,1-7.88-1.53c-1.91-.56-3.81-1.17-5.74-1.69a8.08,8.08,0,0,1-1.73-.68c-1.58-.88-3.13-1.8-4.69-2.72-1.72-1-3.44-2-5.14-3.06a38.25,38.25,0,0,1-5.39-4c-1.63-1.45-3.25-2.91-4.89-4.35a5.35,5.35,0,0,1-1.1-1.27c-1.64-2.86-3.3-5.72-4.92-8.59a7,7,0,0,1-1-2.62,31.36,31.36,0,0,0-.9-4.39,14.21,14.21,0,0,1-.22-6.12c.1-.56.16-1.12.31-1.66q1.18-4.42,2.42-8.83a10.53,10.53,0,0,1,1.43-3c1.65-2.49,3.29-5,4.7-7.62a10.69,10.69,0,0,1,2-2.68c1.47-1.43,2.93-2.89,4.4-4.32.36-.35.75-.67,1.13-1l2.86-2.41A11,11,0,0,1,39.68,36c1.13-.66,2.32-1.19,3.5-1.76a9.8,9.8,0,0,0,2.68-1.67A6,6,0,0,1,48,31.38c1.5-.6,3-1.19,4.52-1.75a63.19,63.19,0,0,1,10.76-3.08c1.05-.18,2.08-.42,3.11-.67a75.45,75.45,0,0,1,12.79-1.61,11.47,11.47,0,0,1,1.31,0,24.43,24.43,0,0,0,3.73-.09L86.78,24a53.15,53.15,0,0,1,10.09,0l8,.75c3.54.35,7.07.76,10.59,1.31a16.27,16.27,0,0,0,1.86.2,8.06,8.06,0,0,1,2.38.43,22,22,0,0,0,4.38.95l2.41.34a19.17,19.17,0,0,1,3.27.76,22.72,22.72,0,0,0,3.65.84l6.64,1.1a41.24,41.24,0,0,1,5.28,1.22c2,.62,4,1.25,6.08,1.86,1,.3,2,.6,3.07.83,1.4.32,2.77.73,4.13,1.18.72.23,1.39.55,2.08.83a19.65,19.65,0,0,0,2.17.54c.42.11.83.28,1.24.43l1.39.53a7.77,7.77,0,0,0,2.88.75,3.31,3.31,0,0,1,.9.23,132.62,132.62,0,0,1,12.66,4.56,21.5,21.5,0,0,0,4.43,1.46A20.06,20.06,0,0,1,191,46.91a2.18,2.18,0,0,1,.31.22,1.08,1.08,0,0,1,.17,1.5,2.26,2.26,0,0,1-1,.8c-.58.24-1.15.48-1.74.69a32.09,32.09,0,0,0-8,4.45,5,5,0,0,0-.66.64.16.16,0,0,0,0,.15c0,.06.08.14.11.13a10.23,10.23,0,0,0,1.11-.16l14-3.26c.24,0,.47-.15.72-.18.44-.06.62-.38.77-.73A.54.54,0,0,0,197.39,51.67Zm-15.62,11.1c-.26-.17-.08-.21.1-.23a.5.5,0,0,0,.77-.15,4.48,4.48,0,0,0,.28-.47c.16.51.18.53.5.39l.3-.17a.68.68,0,0,0,.12-.12c-.09-.06-.17-.18-.26-.18a5,5,0,0,0-.66.08,1.63,1.63,0,0,1-1.11.59C181.9,62.63,181.83,62.81,181.77,62.77Zm58.58,45.11c-.12,0-.08.07.09.06s.09,0,.13,0a3.68,3.68,0,0,0,.54.51c1.6,1,3.22,2.06,4.82,3.08a.59.59,0,0,0,.69,0,3.08,3.08,0,0,1,2.32-.29c.72.14,1.45.24,2.18.32.19,0,.33-.14.39-.32l.12.24s0-.06,0-.07a.73.73,0,0,0-.13-.1c-3.45-1-6.86-2.12-10.24-3.35-.23-.08-.45-.21-.68,0C240.5,108,240.42,107.87,240.35,107.88ZM151.84,97.24c-.31.74-.7,1.45-1.05,2.18a.82.82,0,0,0,.17,1c.85.82,1.69,1.65,2.57,2.43a5.53,5.53,0,0,1,1.26,1.34,1.74,1.74,0,0,0,.82.74c.16.07.43,0,.47-.09a.24.24,0,0,0-.1-.32l-1.23-.84a2.19,2.19,0,0,1-.94-1.55c-.21-1.72-.42-3.45-.62-5.17-.05-.37-.05-.75-.1-1.11s-.26-.4-.51-.45l.12-.07c0,.13,0,.14-.1,0A6,6,0,0,1,151.84,97.24ZM276,114c.05-.07.12,0,0,.08a3.37,3.37,0,0,1,.55,0,33.65,33.65,0,0,0,7.64,0,4.11,4.11,0,0,1,3.75,1.17.29.29,0,0,0,.44-.12c.12-.42.25-.84.34-1.26s.13-.83-.59-.85a2.17,2.17,0,0,1-1.78-1.19.69.69,0,0,0-.66-.25,1.57,1.57,0,0,0-.37,0l-8.53,2a1,1,0,0,0-.72.54C275.88,113.91,275.8,114.21,276,114ZM196.41,55s.12,0,.13,0,0,.2-.18.17c0-.2-.15-.36-.34-.36a3.05,3.05,0,0,0-.74.08c-1.4.3-2.81.55-4.2.9-3.62.92-7.23,1.88-10.85,2.83l-1.08.3a1.7,1.7,0,0,1-1.73-.34,1.16,1.16,0,0,0-1.55.06c-.6.45-1.15,1-1.71,1.46-.85.73-1.69,1.47-2.53,2.22a.39.39,0,0,0-.1.31c0,.14.17.16.31.11s.36-.1.53-.18a81.26,81.26,0,0,1,12.31-4.31q5.49-1.53,11-3a3.64,3.64,0,0,1,.74-.06S196.38,55.08,196.41,55Zm-18,9s.1,0,.14,0a.22.22,0,0,0,.12-.11c0-.11-.06-.17-.2-.14l-.17,0a26.87,26.87,0,0,0-4.14,1.1,5.84,5.84,0,0,0-.84.4c-.27.15-.53.32-.81.46-1.09.55-1.87.19-2.27-1a3.13,3.13,0,0,0-.16-.52.18.18,0,0,0-.3-.07c-.48.4-1,.77-1.43,1.2-1.65,1.53-3.28,3.06-4.91,4.61-.45.43-.84.92-1.26,1.38s-.65.76-1,1.12a52.32,52.32,0,0,0-7.67,10.77c-.17.32-.3.68-.45,1a.38.38,0,0,0,.24.44c.29.1.6.17.89.28a1.79,1.79,0,0,1,1.21,1.52c.09.62.13,1.24.18,1.86s.11,1.5.18,2.24a.39.39,0,0,0,.17.27.21.21,0,0,0,.29-.16,44.21,44.21,0,0,1,1.39-4.46,3.49,3.49,0,0,0,.21-1.84,5.92,5.92,0,0,1,.12-2.22,17.47,17.47,0,0,0,.49-3,1.8,1.8,0,0,1,1.17-1.56,1.68,1.68,0,0,1,.54-.16,2,2,0,0,0,1.58-1.43c.21-.45.32-1,.57-1.38a2,2,0,0,1,2.15-1.15.25.25,0,0,1,.25.22,2,2,0,0,1-.21,1.27A18,18,0,0,0,163,79.84c-.5,2.25-1.05,4.49-1.61,6.73A50.4,50.4,0,0,0,160,97.3c-.05,1.55-.11,3.11-.17,4.67a11.32,11.32,0,0,1-.31,2.59,1.92,1.92,0,0,1-1.46,1.53.6.6,0,0,0-.32.18c0,.07-.06.27,0,.31,1.17.92,2.37,1.82,3.55,2.74,2.56,2,5.13,4,7.68,6,.93.73,1.79,1.55,2.69,2.31a11.68,11.68,0,0,0,5.13,2.59,37.17,37.17,0,0,0,15.22.36,17.71,17.71,0,0,0,4.58-1.56c1.88-1,3.79-1.89,5.75-2.68a35.77,35.77,0,0,0,3.59-2c1.1-.6,2.08-1.38,3.12-2a12.09,12.09,0,0,0,2.24-2c.73-.77,1.44-1.56,2.1-2.39a24.08,24.08,0,0,0,1.53-2.11,14.19,14.19,0,0,1,1.86-2.56,5.57,5.57,0,0,0,.84-1.23,27.23,27.23,0,0,0,3.73-12.6,17.16,17.16,0,0,0-.67-5.92q-.55-1.89-1.08-3.78a2.13,2.13,0,0,1-.18-.9,2.55,2.55,0,0,0-.43-1.92,9.73,9.73,0,0,1-.64-1.76A23.09,23.09,0,0,0,216,70.06a80.06,80.06,0,0,0-4.74-7.17,79.46,79.46,0,0,0-5.16-6.41c-.2-.21-.51-.26-.64-.06A4.19,4.19,0,0,1,203.18,58c-3.45,1.26-6.89,2.54-10.34,3.81l-.17.07c-3.26,1-6.51,2.12-9.66,3.46a9,9,0,0,1-1.23.43,25.51,25.51,0,0,0-5,2,26.6,26.6,0,0,1-3.48,1.34c-1.71.6-3.42,1.17-5.13,1.75a1.7,1.7,0,0,1-1.44-.15,1.47,1.47,0,0,1-.73-2,.4.4,0,0,1,.42-.29A.54.54,0,0,0,167,68a1.82,1.82,0,0,1,2.05-.94,4.52,4.52,0,0,1,.72.2,1.94,1.94,0,0,0,1.28-.08c.18-.06.37-.1.54-.17q3-1.24,6-2.52a1.07,1.07,0,0,0,.75-.76A2.47,2.47,0,0,0,178.43,64ZM55.34,50.92A17.73,17.73,0,0,1,61,48.14a30.5,30.5,0,0,1,3.65-.81c1.35-.21,2.71-.4,4.07-.57a11.6,11.6,0,0,1,3.17,0,9.33,9.33,0,0,0,1.49.1A35,35,0,0,1,82.09,48c2.89.78,5.8,1.48,8.7,2.23a40.47,40.47,0,0,1,5.83,2c3.27,1.39,6.54,2.77,9.66,4.47,2.25,1.23,4.41,2.58,6.53,4C118.4,64.45,124,68.18,129.57,72c3.81,2.59,7.58,5.24,11.34,7.91A75.29,75.29,0,0,1,147.35,85c.37.33.77.63,1.16.94.83.62,1,.6,1.42-.22s.89-1.64,1.36-2.45a10.18,10.18,0,0,1,1.57-2.3,2.83,2.83,0,0,0,.64-1.12,14.52,14.52,0,0,1,2.4-4c.79-1,1.49-2,2.31-2.94,1.36-1.54,2.78-3,4.19-4.52.64-.69,1.33-1.32,2-2A5.46,5.46,0,0,1,166,65.12a3.82,3.82,0,0,0,.86-.71,87.31,87.31,0,0,1,7.43-6.56,14.89,14.89,0,0,0,1.43-1.2,35.56,35.56,0,0,1,4.69-3.71,46.5,46.5,0,0,1,5.17-3c.56-.27,1.11-.56,1.65-.86a.34.34,0,0,0,0-.31,2.09,2.09,0,0,0-.49-.26l-17.94-6.47c-1-.35-2-.64-3-.94C161.8,40,157.85,38.8,154,37.32a13.67,13.67,0,0,0-2.52-.71c-1-.19-2.07-.44-3.09-.72-3.61-1-7.24-1.9-10.92-2.59l-2.57-.48a15.05,15.05,0,0,1-1.65-.33,42.43,42.43,0,0,0-5.13-1.06c-1.16-.2-2.32-.49-3.47-.76a51.77,51.77,0,0,0-7.93-1.27,19.82,19.82,0,0,1-3-.47,15.3,15.3,0,0,0-2-.31c-2.67-.28-5.33-.54-8-.8a36.71,36.71,0,0,1-4.43-.67,14.26,14.26,0,0,0-3.91-.31c-3.11.19-6.22.38-9.34.52-2.24.1-4.49.12-6.73.21-1.43.06-2.87.09-4.29.27a113.18,113.18,0,0,0-17.74,3.7,49.23,49.23,0,0,0-6.95,2.7,11.37,11.37,0,0,0-1.89,1.2,16.8,16.8,0,0,1-2.91,1.68c-.84.39-1.65.86-2.47,1.3a3.9,3.9,0,0,0-.49.28c-1.28,1.09-2.76,1.92-4,3.08a21.38,21.38,0,0,1-1.88,1.54,21.58,21.58,0,0,0-4.14,4.29L29.43,51.8c-.26.35-.49.72-.72,1.09a38.14,38.14,0,0,0-5.5,14.19c-.27,1.85-.4,3.72-.6,5.58,0,.06,0,.12,0,.18.07,1.38.58,2.68.63,4.06L24,78.58c.61,1.29,1.23,2.58,1.83,3.88.52,1.14,1,2.29,1.52,3.42a6,6,0,0,0,1.79,2.35,13.23,13.23,0,0,1,1.73,1.7A30.91,30.91,0,0,0,36.1,94.5c2.24,1.57,4.47,3.16,6.8,4.62a41.54,41.54,0,0,0,5.1,2.73A15.6,15.6,0,0,1,50.15,103a6.38,6.38,0,0,0,2.07.85c2.79.66,5.59,1.29,8.43,1.69l5.75.77a18,18,0,0,0,5.77-.21c2.27-.44,4.52-.92,6.74-1.54.54-.16,1.07-.33,1.6-.51a7.31,7.31,0,0,0,2.89-1.67,3.26,3.26,0,0,1,1.24-.81,3.33,3.33,0,0,0,1.47-1.11,16.65,16.65,0,0,1,2.43-2.32,9,9,0,0,0,2.64-3.34c.08-.17.21-.31.29-.48a67.44,67.44,0,0,0,3.65-9.4A17.05,17.05,0,0,0,95.69,82a6.47,6.47,0,0,0-1.48-5c-1.07-1.3-2-2.7-3.2-3.91a24.49,24.49,0,0,0-6.39-4.82,17.6,17.6,0,0,0-6.81-1.86,12.74,12.74,0,0,0-4.26.37,23.87,23.87,0,0,1-2.38.48,15,15,0,0,0-5.38,2,4.35,4.35,0,0,0-.57.49.28.28,0,0,0,.09.44c.79.2,1.57.44,2.36.59a11,11,0,0,1,4.24,1.87c1.74,1.22,3.38,2.57,5,3.93a13.16,13.16,0,0,1,3.18,3.89A10.68,10.68,0,0,1,81.33,85a6.14,6.14,0,0,1-1.73,4.41A10.64,10.64,0,0,1,76,92.07c-1,.45-2,.94-3.06,1.38a10.67,10.67,0,0,1-3.81.9c-1.43.06-2.86.07-4.3.07A10.77,10.77,0,0,1,62.06,94a26.2,26.2,0,0,0-4.2-.91A3.58,3.58,0,0,1,56,92.22c-.88-.69-1.74-1.41-2.6-2.13-.47-.41-.92-.85-1.38-1.27a23.35,23.35,0,0,1-4.94-6.29,52.94,52.94,0,0,1-3.27-7.34,24,24,0,0,1-.93-3.42,11.62,11.62,0,0,1,1-7.47c.9-1.77,1.77-3.57,2.71-5.32a6.83,6.83,0,0,1,1.47-1.92c.74-.67,1.47-1.35,2.1-1.93A31.2,31.2,0,0,1,55.34,50.92Zm90.75,60.75c1.85,1,3.59,2.23,5.34,3.42a37.74,37.74,0,0,0,11,4.92,3.52,3.52,0,0,0,2.72-.2l2.31-1.19a.36.36,0,0,0,0-.61c-.31-.2-.63-.4-1-.57a23.09,23.09,0,0,1-4.15-2.84,41.51,41.51,0,0,0-4.57-3.24c-.31-.19-.66-.35-1-.54a2.88,2.88,0,0,0-1.79-.4c-2.79.24-5.58.46-8.38.69a.86.86,0,0,0-.67.24s0,.12,0,.18A.5.5,0,0,0,146.09,111.67Zm127.18,80.65c.17.18.33.39.62.32a3.44,3.44,0,0,0,.71-.22,1.46,1.46,0,0,0,.38-.4,4.08,4.08,0,0,1,2.34-1.41.93.93,0,0,1,.37,0c.11,0,.29.07.32.14s.09.42,0,.53a2.68,2.68,0,0,1-.8.74,15.38,15.38,0,0,0-2,1.34.55.55,0,0,0,0,.82,2.33,2.33,0,0,0,.54.5.91.91,0,0,0,.89.08,11.61,11.61,0,0,0,3.64-2.85,1.16,1.16,0,0,0,0-1.39c-.35-.43-.73-.85-1.11-1.26-.92-1-1.86-2-2.79-3a.61.61,0,0,0-.84-.07c-.39.3-.78.62-1.16.94a15.24,15.24,0,0,1-2.45,1.69s-.14,0-.16,0-.17-.21-.17-.31a1.9,1.9,0,0,1,.49-1.18,5.41,5.41,0,0,1,1.72-1.4c.4-.19.77-.42,1.14-.63.14-.08.18-.18.12-.31a3.73,3.73,0,0,0-1-1.29.39.39,0,0,0-.35-.05,4.23,4.23,0,0,0-.83.4c-1.24.83-2.46,1.68-3.69,2.52a.52.52,0,0,0-.09.8q.45.58.93,1.17l1.45,1.7,0,0ZM260.6,166.93a.49.49,0,0,0-.66-.05,22.49,22.49,0,0,0-3.35,3.48,1,1,0,0,0-.1,1l.06.17c.09.28.38.39.56.22s.52-.53.78-.8c.83-.83,1.66-1.68,2.5-2.5a1.48,1.48,0,0,1,.48-.26c.11-.06.4.12.41.27a1.06,1.06,0,0,1,0,.53,13.57,13.57,0,0,1-2.1,3.05,5,5,0,0,0-.63.68,1.18,1.18,0,0,0-.07,1.24,6.21,6.21,0,0,0,2,2.13.35.35,0,0,0,.34,0c.35-.43.64-.91,1-1.32a8.57,8.57,0,0,1,1.89-1.49,7.15,7.15,0,0,0,1-.82.37.37,0,0,0,0-.34,3.43,3.43,0,0,0-.41-.61c-.58-.72-1.18-1.43-1.78-2.15l.05,0C262,168.52,261.3,167.72,260.6,166.93Zm9.14-13.82c-.09-.09-.4,0-.48.11s-.3.53-.44.81a34.06,34.06,0,0,1-2.41,4.39.91.91,0,0,0,.29,1.15.34.34,0,0,0,.32,0,2.28,2.28,0,0,1,1.59-.84,1.09,1.09,0,0,0,.57-.44,1.93,1.93,0,0,0,.32-.66,1.86,1.86,0,0,1,1.46-1.27.41.41,0,0,1,.43.28,3.39,3.39,0,0,1,.12.72.47.47,0,0,1-.43.51c-.31,0-.62,0-.93,0-.07,0-.2.18-.19.23a1.22,1.22,0,0,1-.53,1.45c-.34.27-.66.58-1,.87l-.38.4a.56.56,0,0,0,.05.82c.27.24.56.47.86.7a.77.77,0,0,0,.71,0c.36-.34.72-.67,1.07-1,.87-.89,1.73-1.78,2.58-2.68.64-.66.64-1,0-1.74-.34-.37-.69-.72-1-1.08s-.42-.46-.63-.69h0Zm-.69,25.33a.57.57,0,0,0,.14-.5,3.46,3.46,0,0,0-1.15-1.42.39.39,0,0,0-.35,0,11.23,11.23,0,0,0-1.09.7c-.69.53-1.36,1.09-2,1.63a1.74,1.74,0,0,1-.49.25.46.46,0,0,1-.35,0,.34.34,0,0,1-.12-.3,2,2,0,0,1,.25-.69,5.72,5.72,0,0,1,1.53-1.61,10,10,0,0,0,1.27-1.09.57.57,0,0,0-.08-.82,1.12,1.12,0,0,0-1.66-.09c-.61.53-1.18,1.1-1.77,1.65-1.69,1.55-1.73,1.22-.2,3.21.61.79,1.25,1.55,1.88,2.32a.5.5,0,0,0,.66.09l1.77-1.49C267.91,179.58,268.49,179,269.05,178.44Zm24.38,2.66c.22-.29-.14-1-.49-1a.73.73,0,0,0-.36.08L289.8,182c-.15.1-.24.07-.28-.11s0-.12,0-.17a2.43,2.43,0,0,1,.73-1.47c.44-.44.91-.85,1.36-1.28s.4-.65,0-1.12a8.4,8.4,0,0,0-.78-.8.4.4,0,0,0-.34,0,1.83,1.83,0,0,0-.45.32,32,32,0,0,0-2.77,3,.87.87,0,0,0,0,.88,3.69,3.69,0,0,0,.38.41c.65.58,1.3,1.17,2,1.73a2.86,2.86,0,0,0,.62.4,1,1,0,0,0,1-.16c.33-.37.64-.77,1-1.15l0,0C292.64,182.06,293.05,181.59,293.43,181.1Zm-11.66-12.7a2.15,2.15,0,0,0,.45-.58.45.45,0,0,0,0-.52c-.36-.43-.72-.86-1.1-1.27-.93-1-1.05-1-2,.06-.8.87-1.58,1.76-2.37,2.64a1.21,1.21,0,0,0-.15,1.22,3,3,0,0,0,1.27,1.33.64.64,0,0,0,.7-.06c.25-.19.48-.39.71-.6l1.1-1,0-.05C280.8,169.18,281.3,168.81,281.77,168.4Zm-15,14.44a.73.73,0,0,0-.07,1c.35.51.74,1,1.11,1.49a.55.55,0,0,0,.51.12c1.06-.76,2.14-1.5,3.17-2.29,1.31-1,1.27-.91.24-2.32-.26-.35-.55-.67-.83-1a.56.56,0,0,0-.83,0c-.6.54-1.19,1.1-1.78,1.64h0Zm11.42-17.69a4.5,4.5,0,0,0,.56-.74.88.88,0,0,0,0-1c-.32-.39-.65-.76-1-1.13a.37.37,0,0,0-.5-.07c-.47.3-.9.66-1.38,1a1.91,1.91,0,0,0-.93,1.1,2.69,2.69,0,0,1-.87,1.19,9.88,9.88,0,0,0-.91.92.44.44,0,0,0,.08.65l.87.7a.91.91,0,0,0,1.33,0c.47-.41.92-.84,1.38-1.26h0C277.3,166,277.77,165.59,278.21,165.15ZM288.7,177c1.2-1.09,1.17-1.09,0-2.33-.34-.36-.7-.71-1.05-1.06-.12-.12-.41-.08-.45.08a4.56,4.56,0,0,1-1.67,2.18c-.48.38-1,.78-1.42,1.19a.62.62,0,0,0,0,.84c.41.46.83.91,1.26,1.36a.62.62,0,0,0,.84,0l1.65-1.51v0Zm-5-5.14c1.39-1.26,1.32-1.18,0-2.58a2.06,2.06,0,0,0-.43-.35c-.08,0-.29-.06-.33,0a19.86,19.86,0,0,1-2.79,2.71,8.28,8.28,0,0,0-.76.81.41.41,0,0,0,0,.52c.24.28.46.58.71.85.55.59.77.59,1.39.05l.28-.25,1.1-1h0Zm-8.43-9.91c.34-.34.92-.59.95-1.1a3.32,3.32,0,0,0-.48-1.95c-.09-.14-.19-.16-.32-.05-.28.24-.59.46-.84.72q-1.95,2-3.88,4.06a.62.62,0,0,0-.05.84,6.86,6.86,0,0,0,.65.67.4.4,0,0,0,.34,0,1.91,1.91,0,0,0,.46-.3l1.93-1.77h0C274.44,162.67,274.86,162.31,275.26,161.91Zm11.32,11a.57.57,0,0,0,0-.82,5.51,5.51,0,0,0-.67-.61.39.39,0,0,0-.35,0,2.8,2.8,0,0,0-.56.47c-.94,1-1.87,2-2.8,3-.52.54-.37.74.18,1.17a.59.59,0,0,0,.83,0c.56-.49,1.1-1,1.64-1.5h0C285.4,174,286,173.43,286.58,172.88Z"/><path d="M183.24,130.55a11.14,11.14,0,0,0-2.61-2.36.56.56,0,0,1-.21-.66,11.11,11.11,0,0,0,.29-1.27,1.67,1.67,0,0,0-.51-1.54,5.23,5.23,0,0,0-4.08-1.47,5.29,5.29,0,0,0-2.56,1.06,2.29,2.29,0,0,0-.87,1.79,3.48,3.48,0,0,0,.72,2.46,5.37,5.37,0,0,0,1.51,1.38,3.8,3.8,0,0,0,3.92,0,6.54,6.54,0,0,1,.64-.35.43.43,0,0,1,.33.1,2.25,2.25,0,0,1,.66,2.22,2.29,2.29,0,0,1-.54,1.17,3.47,3.47,0,0,0-.72,1.3c-.34.95-.35.95-1.34,1.59a1.89,1.89,0,0,0-1,1.7q0,1,.15,2c.06.56.18,1.11.26,1.66,0,.25-.14.3-.34.31s-.38.16-.36.34c.11.93.2,1.86.4,2.77a24.37,24.37,0,0,1,.1,8.93c-.07.49-.16,1-.21,1.48a2.9,2.9,0,0,0,0,.93,7.51,7.51,0,0,1,.22,2.59,1.57,1.57,0,0,0,.13.73c.9,2.18,1.58,4.46,2.68,6.56a47.11,47.11,0,0,0,2.62,4.31c.13.21.3.4.44.61a2.37,2.37,0,0,0,2.46,1,1.64,1.64,0,0,0,.83-.39,1.38,1.38,0,0,0,.56-1.31,15.5,15.5,0,0,0-.32-1.65c-.3-1.21-.63-2.41-.93-3.62a3,3,0,0,1-.11-.73.31.31,0,0,1,.2-.24c.37,0,.75,0,1.12,0a1.7,1.7,0,0,0,1.71-2,8.69,8.69,0,0,0-.37-1.44c-.93-2.72-1.64-5.49-2.42-8.25-.34-1.2-.58-2.42-.82-3.64-.47-2.39-.9-4.78-1.34-7.17,0-.07.1-.18.17-.26s.14,0,.17.06c.28.41.58.81.82,1.24,1.36,2.52,2.58,5.12,3.72,7.74,2,4.63,4.14,9.2,6.28,13.77.21.45.4.91.65,1.34a6.55,6.55,0,0,0,.79,1,1.61,1.61,0,0,0,2.75-1.08,3,3,0,0,0-.26-1.27c-1.77-4.18-3.44-8.41-5.43-12.5-1.12-2.29-2.16-4.63-3.23-6.94,0,0,0-.12,0-.18s.23,0,.29.11c.2.24.39.48.57.74s.44.76.71,1.09a40.27,40.27,0,0,1,3.15,4.64c.49.79,1,1.61,1.49,2.37,1.18,1.69,2.1,3.53,3.15,5.29.19.32.36.66.55,1a1.44,1.44,0,0,0,1.23.74,3.59,3.59,0,0,0,.92-.09,1,1,0,0,0,.72-1,3.45,3.45,0,0,0-.32-1.45,13.81,13.81,0,0,0-.69-1.32c-1.08-1.82-2.19-3.63-3.25-5.46A12.79,12.79,0,0,0,197,149a42.44,42.44,0,0,1-2.88-3.92,8.31,8.31,0,0,0-.66-.9,49.49,49.49,0,0,1-4.13-5.54c-.58-.88-1.23-1.73-1.87-2.57C186.18,134.37,184.88,132.69,183.24,130.55Z"/><path d="M260.46,87.29a.2.2,0,0,0-.15.07c-.08.12,0,.2.12.24a4.21,4.21,0,0,0,.48.12c.24,0-.12,0,.1-.13.13.13.23.31.38.39.46.2.93.36,1.39.55A16.55,16.55,0,0,1,266.94,91a4.46,4.46,0,0,1,1.12,1.47,1.33,1.33,0,0,1-.76,1.83,3.49,3.49,0,0,1-1.84.13c-1.16-.24-2.32-.5-3.47-.78s-2.15-.61-3.25-.84a46.38,46.38,0,0,1-7.08-2.38,2.34,2.34,0,0,1-.49-.27,6.71,6.71,0,0,0-2.38-1c-.91-.24-1.81-.47-2.71-.72a11.28,11.28,0,0,1-1.25-.39.83.83,0,0,1-.55-.69,5.46,5.46,0,0,1,0-.56c0-.38-.23-.52-.59-.51a3,3,0,0,0-1.25.35,2.19,2.19,0,0,1-1.63.08c-.78-.23-1.57-.41-2.36-.59-.09,0-.22.07-.32.13a.32.32,0,0,0,0,.16,2.58,2.58,0,0,0,1.8,1.22,3.91,3.91,0,0,1,1.87.79c1.61,1.19,3.35,2.16,5,3.26a49.27,49.27,0,0,1,5.34,3.75,11.36,11.36,0,0,0,1.16.94,12.64,12.64,0,0,0,1.32.68,1.69,1.69,0,0,1,.32.19,25.58,25.58,0,0,1,3.18,2.6,13.2,13.2,0,0,1,1.28,1.6,1.46,1.46,0,0,1-.67,2,1.18,1.18,0,0,1-.71.11,11.85,11.85,0,0,1-1.42-.48,3.37,3.37,0,0,1-1.53-1,1.93,1.93,0,0,0-.91-.63,7.59,7.59,0,0,1-1.94-1.1c-.39-.29-.82-.52-1.24-.78-.14-.08-.2,0-.14.08a2.12,2.12,0,0,0,.29.46c.59.56,1.24,1.06,1.77,1.67.79.88,1.5,1.83,2.23,2.77a3.49,3.49,0,0,1,.43.81,1.78,1.78,0,0,1-1.29,2.31.93.93,0,0,1-.88-.19c-.36-.34-.71-.69-1-1.06-1.5-1.67-3-3.36-4.49-5-1.18-1.29-2.52-2.42-3.81-3.59-1.53-1.38-3-2.81-4.55-4.17a28.59,28.59,0,0,1-2.67-2.61,3.57,3.57,0,0,0-1.94-1.36c-.63-.14-.91-.81-1.35-1.25a2.24,2.24,0,0,1-.77-1.44,1.94,1.94,0,0,0-.64-1.11c-.38-.42-.79-.8-1.17-1.21a1.35,1.35,0,0,1-.34-1.21,6.59,6.59,0,0,1,.28-1.08,1.56,1.56,0,0,1,1.46-1c.68,0,1.37.11,2,.18,3.9.43,7.8.85,11.71,1.3,2.53.29,5.09.36,7.61.83a2,2,0,0,0,.54-.06,1.44,1.44,0,0,0,1.19.34c.05,0,.09-.08.13-.12a3.11,3.11,0,0,0,.35.37.31.31,0,0,0,.44-.11c.11.13.21.28.33.4s.14.06.16,0,.11-.21,0-.3a.44.44,0,0,0-.5-.08c-.21-.24-.41-.5-.78-.26a1.19,1.19,0,0,0-1.31-.38,1.32,1.32,0,0,0-.82-.39c-1.51-.36-3-.7-4.54-1.1-3.55-.94-7.1-1.86-10.71-2.57a3.75,3.75,0,0,1-1.58-.53,1.52,1.52,0,0,0-.71-.17c-.74-.06-1.49-.08-2.24-.14a1.34,1.34,0,0,1-.52-.14.33.33,0,0,1-.11-.3,1,1,0,0,1,1-.68,2.08,2.08,0,0,1,.36,0,3,3,0,0,0,1.65.16,8.82,8.82,0,0,1,3.16.12c2.09.36,4.17.72,6.25,1.12,1.29.25,2.55.58,3.83.86.6.14,1.21.29,1.82.37a11.94,11.94,0,0,1,2.36.57,14.59,14.59,0,0,0,2.15.6,36.85,36.85,0,0,1,4,1c.71.21,1.43.44,2.16.58a3.51,3.51,0,0,1,2.58,1.66,1.49,1.49,0,0,0,.12.14,1,1,0,0,0,.65.32c.31,0,.63,0,.94,0a5.52,5.52,0,0,1,2.52.59,2.65,2.65,0,0,1,1,.8,1.89,1.89,0,0,1,.32.67,1.54,1.54,0,0,1-1.46,1.76,10.4,10.4,0,0,1-1.66-.25l-5.1-1.13a.68.68,0,0,0-.7.08C260.91,87.34,260.69,87.3,260.46,87.29Zm-7.4,1.35c.46-.09.53-.07.73.28a1.09,1.09,0,0,0,.57-.62c.11-.09.22-.07.25.07s-.07.2-.2.16-.15-.13,0-.23c-.23.17-.48.32-.56.63-.35.18-.56,0-.74-.28s-.33-.75-.84-.72l-.76-.4c.08.24.21-.06,0,.11s-.09,0,0-.1c.29.44.29.44.68.3Z"/><path d="M224.43,82.16c.23.21.45.43.69.63a2.54,2.54,0,0,0,2.62.48A7.43,7.43,0,0,0,230,82a2,2,0,0,0,.71-1.27,3.93,3.93,0,0,0-1-3.29,3.42,3.42,0,0,0-2.5-1.11,3.27,3.27,0,0,0-3.33,1.91,2.6,2.6,0,0,0-.16.34A2.92,2.92,0,0,0,224.43,82.16Z"/><path d="M191.1,94.19a1.57,1.57,0,0,1-1.9-.21,3.41,3.41,0,0,1-1-1.35c-.51-1.34-1-2.68-1.57-4a2,2,0,0,1,.68-2.64l.14-.12a.83.83,0,0,1,1,0c.44.34.87.7,1.33,1l2.94,2a6.63,6.63,0,0,1,.73.58,1.45,1.45,0,0,1,.29,2,10.66,10.66,0,0,1-1.53,1.88A12.79,12.79,0,0,1,191.1,94.19Zm-.32-3a.74.74,0,0,0,.06-1.25c-.49-.38-1-.74-1.5-1.1a.18.18,0,0,0-.31.06c0,.06-.08.12-.07.16a6.6,6.6,0,0,0,1.12,2.11A.63.63,0,0,0,190.78,91.17Z"/><path d="M172,90.81A3.7,3.7,0,0,0,173.53,92a1.51,1.51,0,0,0,1.75-.66,2.32,2.32,0,0,0-1.1-3.25,2.9,2.9,0,0,0-1.61-.27,1.46,1.46,0,0,0-1.2,1.61,3.81,3.81,0,0,0,.38,1A1,1,0,0,0,172,90.81Z"/><path d="M188.76,74.73c-.25-.24-.52-.51-.8-.75a1.35,1.35,0,0,0-1.83.17,2.13,2.13,0,0,0,0,2.75,3.69,3.69,0,0,0,.66.65,2.5,2.5,0,0,0,.82.4,1.53,1.53,0,0,0,1.71-.41,1.8,1.8,0,0,0,0-2.24C189.12,75.1,188.94,74.93,188.76,74.73Z"/><path d="M201.16,103.86a3.82,3.82,0,0,1,.36-.34,13.61,13.61,0,0,0,2.76-2.86,23.84,23.84,0,0,0,2.58-4.06,5.2,5.2,0,0,0,.32-.77c.14-.51-.1-1.12.42-1.53l.51-1.75c.15-.53.32-1.06.46-1.6a5,5,0,0,0,.12-1.81,26.33,26.33,0,0,0-1.35-6,5.39,5.39,0,0,0-1.55-2.51,2.11,2.11,0,0,0-.27-.18.17.17,0,0,0-.14,0c-.08.07-.19.17-.18.25a1.27,1.27,0,0,0,.16.62,7.16,7.16,0,0,1,1,2.79,26,26,0,0,1,.57,3.93c0,.66,0,1.33,0,2a2.46,2.46,0,0,1-.11.66c-.6,1.78-1.08,3.6-1.77,5.35a6.3,6.3,0,0,1-1,1.72c-1,1.14-1.8,2.38-2.83,3.47a7.35,7.35,0,0,1-1.09,1,2.42,2.42,0,0,0-.53.41,10.08,10.08,0,0,1-2.46,2.19c-.08.05-.09.2-.15.29s-.18.19-.21.17c-.54-.3-.95.16-1.42.22s-.84.3-1.27.39a17.55,17.55,0,0,1-4.07.72c-.52.18-1.1,0-1.62.28a.68.68,0,0,1-.63-.08,2.94,2.94,0,0,0-1.26-.38c-.67,0-1.24-.5-1.93-.45l-1.29-.75a1.17,1.17,0,0,0-1.54.81,1,1,0,0,0,.35.89,4.45,4.45,0,0,0,1.75.91,22.4,22.4,0,0,0,2.57.63c.93.15,1.87.22,2.8.3a3.36,3.36,0,0,0,.82-.14c1-.19,1.95-.46,2.93-.55a17.4,17.4,0,0,0,3.84-1c1.1-.73,2.41-1.12,3.26-2.23a8.82,8.82,0,0,1,1.09-1Z"/><path class="cls-3" d="M148.72,87.88c-8.64-5-16.32-11.48-24-17.8-7.87-6.46-16.83-9.64-26.19-13.65C90.91,53.18,83.2,49.89,75,48.75s-17,.07-23.58,5.11C38.27,64,43.33,84.9,56.8,92.39,63.3,96,72.13,95.72,77.61,90.7a9.33,9.33,0,0,0,3.11-5.16c.61-3.62-1.84-7.07-4.65-9.45A27.15,27.15,0,0,0,62.6,70c3-2.83,7.29-3.7,11.39-3.8,7.14-.18,15,2.08,18.85,8.07,4.81,7.41,1.41,17.19-3.67,23.5-12.81,15.92-52.79,10.13-62.42-7.13-3.7-6.65-5.92-15.28-5.14-22.88,1.6-15.7,13.29-30.91,27.86-36.84,7.5-3,15.73-3.68,23.81-4.11,18.28-1,35.11.6,53.13,3.82,18.29,3.27,39.7,5.94,56.23,15,5.16,2.83,3.92,3.63-.33,7.26-4,3.43-8.11,6.73-11.95,10.37A180.81,180.81,0,0,0,148.72,87.88Z"/><path class="cls-3" d="M234.69,105.75c12.84,10,25.7,20.08,37.33,31.48,1,1,2,2.06,2,3.42a5.29,5.29,0,0,1-.89,2.56A135.76,135.76,0,0,1,245.25,178a4.15,4.15,0,0,1-2.7,1.38c-1.18-.05-2.06-1.05-2.79-2l-42.14-52.76c-1-1.27-2.05-3-1.12-4.36a4,4,0,0,1,2.26-1.25,35.52,35.52,0,0,0,18.87-14.41c2.36-3.51,2.24-5.47,6.66-5C227.92,99.92,232,103.62,234.69,105.75Z"/><rect class="cls-4" width="278.92" height="225.78"/></g></g></svg>