<svg id="Capa_1" data-name="Capa 1" xmlns="http://www.w3.org/2000/svg" viewBox="0 0 181.76 153.9"><defs><style>.cls-1{fill:#ed6c6f;}</style></defs><path class="cls-1" d="M1.49,142.64c-.09-.34-.3-.13-.21.76a5.45,5.45,0,0,0,.4.58A10.05,10.05,0,0,1,1.49,142.64Z"/><path class="cls-1" d="M2.78,148.5c.77.82,1.89,1.39,1.6.72a10.8,10.8,0,0,1-1.92-1.54c-.5-.77-.61-1.47-.44-1.37a3.94,3.94,0,0,1-.32-.81,3.08,3.08,0,0,0-.36-.94A5.56,5.56,0,0,0,3,148.42C3.15,148.74,2.88,148.53,2.78,148.5Z"/><path class="cls-1" d="M92.93,153.15l-.59,0A5,5,0,0,0,92.93,153.15Z"/><path class="cls-1" d="M149.65,153.33a1.6,1.6,0,0,0-.63.07C149.42,153.38,149.75,153.36,149.65,153.33Z"/><path class="cls-1" d="M159.34,153.7l-.57,0A1.92,1.92,0,0,0,159.34,153.7Z"/><path class="cls-1" d="M92.93,153.15l1.52.1C94.56,153.15,93.67,153.17,92.93,153.15Z"/><path class="cls-1" d="M14,151.84a6.16,6.16,0,0,0-.82.08l.77,0Z"/><path class="cls-1" d="M67.93,153.42h-.46l-.38.13Z"/><path class="cls-1" d="M48.74,153.47c.44,0,.59-.27.75-.39a2.64,2.64,0,0,1-.94.19S48.6,153.39,48.74,153.47Z"/><path class="cls-1" d="M18.31,153l-.54,0Z"/><path class="cls-1" d="M81.67,153.48a.35.35,0,0,0,.17.1S81.77,153.51,81.67,153.48Z"/><path class="cls-1" d="M2.14,120.4s0,0-.05,0S2.14,120.55,2.14,120.4Z"/><path class="cls-1" d="M.75,142.64l0-.31a.32.32,0,0,0-.15-.06Z"/><path class="cls-1" d="M177.47,152l-.08,0C177,152.33,177.23,152.17,177.47,152Z"/><path class="cls-1" d="M164.76.24c1.84.26-3,.33-.22.61C164.28.74,167.06.41,164.76.24Z"/><path class="cls-1" d="M14.51,151.87h0Z"/><path class="cls-1" d="M164.54.85h0l.28,0Z"/><path class="cls-1" d="M181.74,141.83l0-.75A7.41,7.41,0,0,0,181.74,141.83Z"/><path class="cls-1" d="M181.74,95.62a6.5,6.5,0,0,0,0-1.11s0,.1,0,.17A3,3,0,0,1,181.74,95.62Z"/><path class="cls-1" d="M181.74,79.18l-.06.3,0,.52Z"/><path class="cls-1" d="M2,70.43a3,3,0,0,1-.26.76C2,70.94,2,73.35,2,70.43Z"/><path class="cls-1" d="M14,152a1,1,0,0,1,.49-.12l-.55,0S13.91,152,14,152Z"/><path class="cls-1" d="M179.52,95l0-2.61C179.54,93.07,179.52,94,179.52,95Z"/><path class="cls-1" d="M54.06,2.55l-.6,0A3.47,3.47,0,0,0,54.06,2.55Z"/><path class="cls-1" d="M179.52,84.58a11.09,11.09,0,0,0,.2-1.47,1.67,1.67,0,0,0-.07-.3Z"/><path class="cls-1" d="M1.75,71.2h0Z"/><path class="cls-1" d="M2.42,88.4c0-2.49-.36-1.17-.58-1.69-.1-3,.28-1.38.46-2.39-.09-1.85-.43-3.28-.42-4.66.06-.1.08-.37.16-.06-.29-2,0-5.82-.38-8.1a.81.81,0,0,1,.09-.3c-.19.37-.37.42-.51.35a8.18,8.18,0,0,1,0-2.49,2.51,2.51,0,0,0,.17,1.06L1.31,69c.35-1,.12,1.6.38,1.6-.11-2.28-.4-4.94-.3-6.69.34-.36.11,4.09.41,1.76l-.13,2.7c.54-2.07,0,1.64.54-.26.1-3.55-.17-4-.08-7.52-.18-.8-.27.26-.46-.54-.34-5,.85-4,.4-7.68a7.7,7.7,0,0,1-.43-4l.38.9c0-3.44-.55-2-.29-5.57.15.64.13,2.71.17,2.19.31-2.34-.21-1.66-.21-3.45L2,42c-.06-3.66-.3-7.7-.37-11.76.11.22.21.92.32,0-.17-5.12,0-10.93.24-15.87l-.29-1.89c0-.44.13-.82.18-.34.05-1,0-.93,0-.87s-.2.29-.23-.12c0-1,.33-1.26.29-.65a8.83,8.83,0,0,1,.5-2.61A8.46,8.46,0,0,1,4.27,5.17,7.82,7.82,0,0,1,9.58,2.54c-.2.06-.4.11-.6.19,1.23-.18,1.9-.29,2.69-.43a9.15,9.15,0,0,1,2.79-.11L14,2.25c6,.12,12.73-.15,17.35.3.88-.42,6,.19,6.38-.4,3.45.29,2.46.39,7.33.59,1.3,0,1.93-.37,3.54-.43l0,.31,2.18-.32L52,2.66l1.51-.07c-.6,0-1.28-.14-1.19-.23a23.17,23.17,0,0,1,5.8.37l5.57-.26a8.39,8.39,0,0,1-1.8.25c3-.32.54.32,3.27,0-.37-.07.19-.18.26-.24a56.35,56.35,0,0,0,6.73.11l-.44.21c4.13,0,8.71-.1,13.34-.1-1.66-.1-1.28-.47.08-.5l.55.32c.87-.2-1.42-.12.38-.37,1.73,0,1.16.37.17.48l2.1-.11c.13.09-.37.15-.5.27.87-.2,3.64.33,4.88,0l.12.09c4.64,0,6.74-.11,10.51-.12.08-.28,1.55-.22,2.68-.45,2.77.09,5.85.31,9.19.29,2.35-.14.69-.24,1.74-.41.18.26,3.51.23,1.78.42,4,0,5.13-.05,10.2-.26-.55-.11-1.17-.15-.85-.24.92,0,2.1.11,2,.23l-.24,0c5.69-.39,13.14.75,17.68.21l-.26,0,4.71-.28c2.16,0-1.3.19.3.35,5.07-.43,8,.06,12.19-.22a17.57,17.57,0,0,0,3.22.32l2.06,0h1.09l1,0A8.23,8.23,0,0,1,175.39,4a6.59,6.59,0,0,1,2.34,2.33V6.05a1.88,1.88,0,0,1,.61.86c.09.25.15.48.27.81.11-.15-.37-1,0-.52a8.45,8.45,0,0,1,1,3,5.42,5.42,0,0,1,.08.8,7.91,7.91,0,0,1,0,.86v1.83q0,3.67-.12,7.4c-.12,5-.24,10-.35,14.85,0,3.59.92,2,.49,6.55l-.33-1.28c.4,7.23,0,14.79.33,21.87a3.57,3.57,0,0,1-.18-1.13,20.24,20.24,0,0,0,.19,5.55c0,1.11-.18.26-.28.94-.14,1.5.31,3.76.07,4.56,0,.14-.08-.42-.1-.7.12,1,0,4.56.25,3.62-.13,2.66.12,5.08,0,7.2.31,1.38-.15,4.55.29,5-.46-.19-.37,4.66-.16,6.34-.13-.57-.14,1.46-.33.8,0,1.92.09,3.67.33,3.34-.54,3.53.43,7.1-.26,9.09.24,5.69.41,11,.51,16.08-.45-.18,0-5.66-.52-5.44.19,4.86.58,7.66.47,12.48-.06,1.25-.2-.71-.28-1.13.1,2.43.09,4.77.08,7.05,0,1.14,0,2.27,0,3.38,0,.55,0,1.1,0,1.65l0,.81v.75a3.47,3.47,0,0,1-.09-.85c0,.42,0,.83-.06,1.18s-.05.56.06.54c0-.25,0-.5,0-.75.17-.61.33.16.28,1.16a20.56,20.56,0,0,1-.39,2.22c0-.38-.1-.33-.27-.1l-.29.46-.38.55c-.56.73-1.1,1.27-.77.22-.24.43-.62.95-.44,1-.55.53-.79.6-.35,0a13.53,13.53,0,0,1-1,1,5.45,5.45,0,0,1-.57.51,4.62,4.62,0,0,1-1.81,1c0-.1.45-.3.63-.51a6.92,6.92,0,0,1-4.6,1.06c.14-.06-.13-.14.56-.14-4,0-6.83.52-11.23.33,1.3-.43-1.5-.14-1.73-.51l-2.36.11,1,.18c-2.08,0-3.91.27-5.69.14l1.54-.15-3.88.07,2.2.14c-2.1.19.22.47-2.54.37.56,0-2.07,0-3.15-.22h0a18.68,18.68,0,0,1-3.62.16c-.39-.12.33-.42.07-.5-1,.32-4.86.09-6.14.42.43-.08.45-.27.31-.31l-.85.25c-1-.08-1.1-.12-.94-.27-2.89,0,.92.47-2.51.26.27,0,.14-.05.7-.09-3.44-.11-6.65.16-9.81,0-.94-.37,2.76-.09,1.69-.4-4.56.06-9.44.45-13.85.36l.82,0c-.61.53-3.28-.26-5.52,0,.55,0,.72-.3.57-.24-3-.08-6.18.13-10.75.3l.56-.14c-1.78-.12-4.69-.07-6.61-.13-.57.14-1.67.11-1,.31-5.93-.77-11.32.42-16.58-.23.63,0,1.5-.12,1-.12l-4.48.13c.35.23.59.14,1.53.32a16.58,16.58,0,0,1-3,.24c2-.15,0-.37-.88-.5.14.07-.16.15-.08.22-2.34-.41-.4.47-3.59.19l.17-.12c-1.2.06-2.3.22-3.59.19-.54-.27,1.27-.13,1.35-.35-1.81,0-3.57.51-5.21.24.77-.07,1.87-.07,2.64-.15a16.58,16.58,0,0,0-3.32-.28h.13l-3.06-.14.78.09c-2.27.69-4.62.12-7.68.58,3-.43.49-.25.72-.55-.78-.09-2-.18-1.63-.27-1.44.25-2.41-.19-4.44.17-.1-.1-1.55,0-1.22-.25-1.88.07.44.16.28.29-2.89.33-6.8-.41-11,.05-3.59.19-4.25.52-7.59.68-1.12-.15.93-.35.93-.35a30.72,30.72,0,0,0-4.89,0c.34-.08,0-.16-.53-.27-1.37,0-.92.36-2.73.22a6.73,6.73,0,0,1,1.37-.4l-2.41.18A8.4,8.4,0,0,1,8.44,152c-.19-.13.06-.14.42-.1s.84,0,1.12,0a10.55,10.55,0,0,1-2.91-.62c-.94-.34-1.68-.77-2-.83a9.23,9.23,0,0,0,.93.72c-.58-.34-.17-.37.26-.17s.67.25.92.37a3.42,3.42,0,0,1,.63.29c.32.19.49.3.52.37a8.82,8.82,0,0,1-1.12-.3,4.43,4.43,0,0,0,3,.85c1.32,0,2.82-.23,4-.2l-1,.41,2.46-.34c.52.11.88.34-.3.4,1.72.21,1.52-.15,3,.08.16,0,.09.06-.07.08l1.68-.13c-.32.09.28.3-.75.24,3,.24,4.87-.32,6,0l-.25,0c4.18-.14.4-.3,3.54-.66l2.11.75.41-.3c.44,0,1.29,0,1.13.15,1.61-.2-.27-.13.66-.33,2.08.28,5.73-.13,6.2.36.74-.23-2-.18.23-.34.63.52,2.56-.09,4.46.15-.58.27-2.38.13-.48.37,1.14-.46,3.7.1,5.3,0,.07-.36,3.48-.15,6.16-.27-.17.12,5.06.2,7.56.33l-.08.06c.49-.37,3.07-.3,4.94-.37-.07.22-.41.3-1.42.4h1.76a9.15,9.15,0,0,1,2.11-.22l-.44.27c2.35,0,4.73-.32,7.75-.14.17-.25-2.4-.71.79-.88.12.14.24.37-.6.43a9.55,9.55,0,0,1,1.53-.06l-1.28.24c1.38.1.72-.2,1.82-.18,0,.2.82.15.66.3a10.53,10.53,0,0,0-1.38,0,18.31,18.31,0,0,1,3.24.3c-.11-.11,0-.27.9-.29,2.35,0,.81.24,2.18.34.57-.14,2.06,0,2.1-.29a2.31,2.31,0,0,1,1.08.22c1.22-.13,5.68,0,4.31-.35l-.31,0h.2c4-.29,8.27.17,12.23,0v.1c2.36-.11,5.25-.07,6.94-.28.7,0,1.65.18,1.35.3a28.64,28.64,0,0,1,4.61,0c-1.81.17.62.15-1.86.12a27,27,0,0,0,5.39,0c-.86.25,1.77.32,2.88.24l-1.64-.18c1.25,0,2.35,0,3.46,0l-.6.33c4.79.4,8.65-.69,12.3,0,1.27-.23-2.61-.17-1.47-.44,2.2.05,4.5.52,5.19.53,3,.18,2.82-.49,6-.36-.41-.12-.79-.44,1.57-.55,2.21,0,2.72.5,1.32.59-.53,0-.78,0-.76-.07-.71,0-1.65.1-.78.23l.29-.12c1.1.12,4.13.11,3.42.3,1.67-.11.71-.19-.52-.26,2.83.18,4.42,0,7.34.12-.47-.06-.89-.2-.43-.2,4.27.15,1.88-.22,4.78-.28,1.64.18-.59.44,2.32.28,1.78.13.38.32-.33.42a23.69,23.69,0,0,1,3.67,0c1.12.06,2,.2,2.91.16l-.79.09-.7,0,1.22-.07a9.2,9.2,0,0,0,1.2-.12,7,7,0,0,1-.92-.14,14.35,14.35,0,0,1,1.69-.1c.87-.4-.75-.19.93-.89a7.36,7.36,0,0,0,2.08-.94,6.86,6.86,0,0,1,1.5-.85c-.75.56-1.12.8-1.27.91s-.07.13,0,.12.52,0-.93.78c.28-.15.59-.31.92-.52a11.69,11.69,0,0,0,1.08-.68c.13-.06-.07.13-.26.29,1.59-1,1.76-1.49,2-1.88.11-.2.19-.43.38-.79s.51-.85.94-1.69c-.06.52.72-.64.86-1.27-.56,1.47-.49.58-.21-.77a6.6,6.6,0,0,0,.33-1.39,4.4,4.4,0,0,0,.05-.92c0-.51-.07-.85-.06-1.42,0,.44,0,.87-.09,1.35a21.16,21.16,0,0,1-.19-3.1c.14-.13.1,1.38.16.84-.31-1.7.32-3.83.11-6.2.12-1.09.34-.1.42-1.07-.23-2.65.24-2.87,0-5.65-.24.8-.18.94-.41-1l.16,4.58-.34-2.94c0,1.38.15,2.92.11,3.75-.2-1.4-.14-1.26-.34-.6.36-1.89-.2-3.75,0-5.93l.59.06c.26-3.28-.31-5.84-.16-10.1l-.1,1.37a33.79,33.79,0,0,1-.13-4c.2.13.27-.73.39-1.32-.14.07,0-3.13-.38-3.51l.26-1.91c.11-3.44-.56-3.93-.49-7.24.21,1,.35-.51.51,1.71a7.12,7.12,0,0,0-.1-2.12c.12-.64-.27-3.06-.08-4.08a5.08,5.08,0,0,1-.28-1.86c0-.14.1,0,.1,0s-.13-1.94-.35-.86c.61-3.4,0-9.52.48-12.48-.06-2.41-.13-5.32-.14-7.51.06.14.1,0,.08.42.18-3-.57-1.86-.37-5.3.32-1.76.18,1.83.3.73.65-.47-.09-4.15.29-6.46l0,.56c.22-1.77-.25-4.32-.2-7.21,0,0,0,.14.1,0a80.22,80.22,0,0,1-.54-8.5c.26.87.14,1.26.4.74,0-1.25-.42.36-.49-2.13a11.79,11.79,0,0,1,.53-2.84l0,2.35c.36-1.2,0-3,.05-4.28l.16.16c-.06-3.59-.45-3.64-.42-7.51l-.12.4c-.39-2.11.22-1.77-.07-3.88l.4-.64c-.1-1.39-.39-4.88-.46-7.38.29,1.42.44,4.34.62,6.15a42.59,42.59,0,0,0-.23-5.41,11,11,0,0,1,.08,1.81,37.76,37.76,0,0,1-.46-6.68c.38.24.43-1.55.46-3.66,0-1,0-2.16,0-3.26s-.28-2-.35-2.56a12.3,12.3,0,0,0-5.28-6A10.8,10.8,0,0,0,172,.32L170.9.25l-1,0h-2.09c2,.6-1.65,0-1.3.63a11.55,11.55,0,0,1-2,0l-4-.37c-.95-.17,1.25-.13,1.13-.27-2.89,0-1.21-.26-3.13-.42.4.22-1,.31-2.65.23l2.32.28c-4,.33-3.49-.51-7.57-.19l1.29-.19c-2.09.11-7.72,0-9.77.49-.37-.07-.86-.24.06-.29-5-.07-11.12.53-15,.22l.38-.15a11.77,11.77,0,0,1-2.79.13c.06-.06.38-.14-.06-.15A25.84,25.84,0,0,1,121,.34l1.06-.17c-4.88-.19-7.49.41-11.57.52,0-.44-3.83-.59-5.74-.66l.06-.06c-5.68-.06-9.64.36-14.9.54C86.68,0,78.89.31,73.64,0c.8.08-.13.34-1.06.39-1.23-.09-3.4.3-3.21-.1h.44c-.93-.4-3.46-.3-5.43-.31l-.33.53C58.88-.21,50.51.84,47.69.16c-1.24.13-2.79.13-4,.26l.06-.28C40.28.06,38.56,0,34.29.09l.87-.2c-2.41,0-3,.82-5.27.84L29.23.3c-4.21,0-8.46-.36-12.61,0,.07-.06.19-.18.87-.2-2,0-7.62-.3-7,.31,0-.09-.33-.13-.82-.12a8.93,8.93,0,0,0-1.89.4A10.24,10.24,0,0,0,3.94,3l.13-.45A13.64,13.64,0,0,0,2.7,4.37,17,17,0,0,0,1.32,6.79c-.32.59-.46.44,0-.35A5,5,0,0,0,.59,8.38c-.06.51-.19,1-.36,2.39a7.17,7.17,0,0,1-.07-1A7.66,7.66,0,0,0,0,11.07a5.11,5.11,0,0,0,0,.75c0,.38.12.63.23,1.23A14.84,14.84,0,0,1,0,17.49a7.67,7.67,0,0,1,.28,2.77c-.09.17-.15-.3-.18-.53-.19,3.63.32,5.4.05,7.9-.09.05-.14.22-.17.42,0-2.88,0-5.21.05-5-.26,0-.31,2.33-.66.48a53.68,53.68,0,0,1,.49,7.34,1.18,1.18,0,0,1-.09.3l0-.23a9.38,9.38,0,0,0,.05,1.43c-.05.73-.08,1.19-.08,1.89A20.64,20.64,0,0,0-.44,38.1c.28-.09.24,1.43.47,0,0,.19,0-.22,0-1,0-.18,0-.38,0-.5l0,.08c0-.76,0-1.76,0-2.89A10.38,10.38,0,0,1,.07,37c.18.59.37,1.25.45,1.62-.39,1.59-.6,4.66-.84,5.08.16,3.55.1,8.37.63,10.6a3.12,3.12,0,0,1-.23,1.54C0,55.23,0,54.53,0,54.22c.14,2,.06,6,.43,6.46C.21,63.22,0,59.25.1,62.74L0,62.27c-.59,6.88,1,11.18.19,18.8a3.59,3.59,0,0,1,.13-.9C0,88.86.61,98.08.08,106.66a16.45,16.45,0,0,0,.31,4.19l-.3.53.35,2.54c.25,3.61-.74,6.25-.26,10.81l.2-.59c0,1.65.12,5.2-.11,4.93a2.27,2.27,0,0,1,.1,1.18l-.15,0,.27,4c-.12,3.13-.63-.48-.66,4.07.06,1.7.46,4.83.56,4.19s.1-1.75.26-1.8l.08,1.55c.47.28,1,1.47,1.27-2.33l-.28-2.65.22-.85,0,2.23a8.33,8.33,0,0,0-.11-3,2.83,2.83,0,0,0,.25-1.11l-.44-2.6c.18-.32.36,1.17.46-.58-.21-1.22-.41,1.17-.55-.85a4.66,4.66,0,0,0,.21-2.39c.12-.2.19.11.25.7-.15-1.32-.07-3.51-.31-4.19.26-1.32-.07-4.47.37-4.34a22.94,22.94,0,0,1-.36-3.55c.52,2.22,0-4.56.59-4-.47-1.64-.21-5.94-.47-8.85a2.58,2.58,0,0,1,.09.74c0-1.65.18-2.12.27-3.18-.39-.21-.48-2.76-.72-4.14.38-2,.46,1.22.82.59-.32.1-.32-3.49-.58-2.81a5.9,5.9,0,0,1,.44-2.11c-.49-.27-.09-1.44-.39-2.71.25-2.23.46-.57.31-3C2.24,86.23,2.42,88.4,2.42,88.4ZM1.57,30.27h0v1.2C1.59,31.22,1.58,30.87,1.57,30.27Zm0-4.88c0,.59,0,1.33,0,2.11-.09.18-.19,0-.19-.5C1.43,27.27,1.48,26.11,1.57,25.39ZM-.38,35.72a2.57,2.57,0,0,1,.07-1.14l0,1.35,0,.09A.6.6,0,0,1-.38,35.72Z"/><path class="cls-1" d="M0,37.11c0,.11,0,.17,0,.32L.07,37,0,36.69Z"/><path class="cls-1" d="M92.24,153.11h.1a1,1,0,0,1-.21,0Z"/><polygon class="cls-1" points="48.62 2.69 48.61 2.62 48.18 2.68 48.62 2.69"/><path class="cls-1" d="M65.34,152.14a1.55,1.55,0,0,0-.36-.07A1.75,1.75,0,0,0,65.34,152.14Z"/><path class="cls-1" d="M53.71,152.08l-1.64-.1Z"/><path class="cls-1" d="M44.78,151.94a.35.35,0,0,0-.18.12h0Z"/><path class="cls-1" d="M179.86,142.45l0-.35C179.79,141.29,179.81,141.84,179.86,142.45Z"/><path class="cls-1" d="M144.58,152.26c.45,0,.89-.1,1.36-.13C145.18,152.11,144.6,152.1,144.58,152.26Z"/><path class="cls-1" d="M179.52,95.23h0v0Z"/><path class="cls-1" d="M147.9,152.14a12.88,12.88,0,0,0-2,0C146.55,152.15,147.28,152.18,147.9,152.14Z"/><path class="cls-1" d="M6.64,150.77a2.33,2.33,0,0,1-.34-.2s0,0-.06,0A2.46,2.46,0,0,0,6.64,150.77Z"/><path class="cls-1" d="M6.24,150.58l-.4-.2A1.28,1.28,0,0,0,6.24,150.58Z"/><path class="cls-1" d="M5.05,149.9c.27.16.52.35.79.48A4.77,4.77,0,0,0,5.05,149.9Z"/><path class="cls-1" d="M17.88,151.94l.13-.1C17.94,151.86,17.89,151.89,17.88,151.94Z"/><path class="cls-1" d="M21.47,151.91c-.86,0-2.15-.22-3.35-.15l-.11.08C18.57,151.69,20.66,152.08,21.47,151.91Z"/><path class="cls-1" d="M36.48,153.17l-3-.08c.53.11,1.22.25-.15.28C37.11,153.69,32.53,153.13,36.48,153.17Z"/><path class="cls-1" d="M45.82,153.33c-1.62,0,0,.16-.07.22C46.78,153.45,47,153.42,45.82,153.33Z"/><path class="cls-1" d="M113.32,153.33l-.17.26C114.4,153.55,113.17,153.49,113.32,153.33Z"/><polygon class="cls-1" points="126.22 152.01 125 151.85 124.43 152.08 126.22 152.01"/><polygon class="cls-1" points="133.84 153.83 133.3 153.87 135.38 153.77 133.84 153.83"/><path class="cls-1" d="M182,82.1l-.32.38C181.73,83.32,182.08,83.5,182,82.1Z"/><path class="cls-1" d="M181.67,33.16a7.92,7.92,0,0,0,.1-2.76C181.75,31.5,181.63,32.6,181.67,33.16Z"/><polygon class="cls-1" points="61.6 0.16 62.58 0.06 60.73 0.15 61.6 0.16"/></svg>