<svg id="Capa_1" data-name="Capa 1" xmlns="http://www.w3.org/2000/svg" viewBox="0 0 205.25 120.37"><defs><style>.cls-1{fill:#62a7bc;}.cls-2{fill:#f1d54d;}.cls-3{fill:#c1d261;}.cls-4{fill:#ed6c6f;}</style></defs><path class="cls-1" d="M187.11,56.66c5.28-4.15,10-9.44,11.79-15.93s-.12-14.28-5.74-18-14.72-1.3-16.55,5.17c-4-11.56-18.9-17.86-30-12.69-5.19,2.42-9.51,7.31-10,13s3.87,11.75,9.59,12.05c-5.76,1.91-11.32,5.09-14.76,10.08s-4.34,12-1.06,17.14c5.65,8.81,17.38,3,25.37,1.86C167.26,67.69,177.92,63.89,187.11,56.66Z"/><path class="cls-1" d="M65.39,96c5.29-4.15,10-9.44,11.8-15.93s-.13-14.28-5.75-18-14.72-1.3-16.55,5.17c-4-11.56-18.9-17.86-30-12.69-5.19,2.42-9.5,7.31-9.95,13s3.87,11.75,9.59,12.05c-5.76,1.91-11.32,5.09-14.77,10.08s-4.33,12-1.06,17.14c5.66,8.81,17.38,3,25.38,1.86C45.55,107.06,56.2,103.26,65.39,96Z"/><path class="cls-2" d="M141.5,56.11c.18-.12.47-.5.29-.53l-.62.53Z"/><path class="cls-2" d="M141.66,54.28a3.11,3.11,0,0,0-1.4,1.21c.64-.48.47-.2,1.22-.78.19,0,.05.38-.17.59.18-.12.07.3.48,0,.25-.61.06-.81-.49-.59A1.27,1.27,0,0,1,141.66,54.28Z"/><path class="cls-2" d="M128.76,44.65l.05.13A.17.17,0,0,0,128.76,44.65Z"/><path class="cls-2" d="M119.34,40.93a.17.17,0,0,0,.15-.14C119.41,40.82,119.34,40.86,119.34,40.93Z"/><path class="cls-2" d="M117.84,39.66a.65.65,0,0,0,.09.08C117.9,39.66,117.87,39.61,117.84,39.66Z"/><path class="cls-2" d="M128.76,44.65l-.15-.34C128.49,44.55,128.66,44.55,128.76,44.65Z"/><path class="cls-2" d="M138.75,54.43a.45.45,0,0,0,.24-.09.37.37,0,0,1-.15,0Z"/><path class="cls-2" d="M133.05,46.05l.08,0,.21-.26Z"/><path class="cls-2" d="M136.1,47.68c0-.07-.44.5-.62.74.19-.21.31-.3.39-.31A3.25,3.25,0,0,0,136.1,47.68Z"/><path class="cls-2" d="M139.87,51.76h0Z"/><path class="cls-2" d="M130.92,44.78a1.28,1.28,0,0,0,.08-.23A1.27,1.27,0,0,0,130.92,44.78Z"/><path class="cls-2" d="M56.51,80.6l-.11-.06C56.45,80.59,56.49,80.62,56.51,80.6Z"/><path class="cls-2" d="M51.67,82.4v-.07l-.34-.19Z"/><path class="cls-2" d="M114.8,38.19s0,0,0,0S114.86,38.15,114.8,38.19Z"/><path class="cls-2" d="M85.37,42.09c.54.45-.21.93.52,1.38C85.74,43.24,85.91,42.31,85.37,42.09Z"/><path class="cls-2" d="M138.74,54.31l-.11-.08C138.67,54.28,138.7,54.31,138.74,54.31Z"/><path class="cls-2" d="M85.89,43.47h0l.07,0Z"/><path class="cls-2" d="M107.25,37.94a1.2,1.2,0,0,0,.07.3A.94.94,0,0,0,107.25,37.94Z"/><path class="cls-2" d="M112.72,39.31l-.13-.11A.24.24,0,0,0,112.72,39.31Z"/><path class="cls-2" d="M104.37,38.93c-.08,0-.1-.14-.2,0l0,.08C104.23,38.87,104.28,38.83,104.37,38.93Z"/><path class="cls-2" d="M101.4,39.12c0,.05,0,.09.07.14l.09,0Z"/><path class="cls-2" d="M60.43,73a3.91,3.91,0,0,1-.6-.21C60.28,73,60.22,73.41,60.43,73Z"/><path class="cls-2" d="M139,54.12c-.12.13-.19.18-.25.19l.1,0A.64.64,0,0,0,139,54.12Z"/><path class="cls-2" d="M104.44,44.37l-.43-.08A.89.89,0,0,0,104.44,44.37Z"/><path class="cls-2" d="M72.28,57.16l0,.13S72.31,57.24,72.28,57.16Z"/><path class="cls-2" d="M102.76,44.45a1.05,1.05,0,0,0-.28-.45.84.84,0,0,0,0,.18Z"/><path class="cls-2" d="M59.83,72.75Z"/><path class="cls-2" d="M59.77,76.12c.22-.36-.67-.62-1.08-1,0-.57.69.12,1.18.21,0-.4-.65-1-.5-1.22.14.06.21,0,.34.19-.45-.65.48-.87-.1-1.67a1.14,1.14,0,0,1,.22.07,7.33,7.33,0,0,1-1.1-.58c.08-.18-.31-.6.23-.36-.07.09.13.22.26.36l-.12-.3c.82.28.11.39.66.71,0-.48-.41-1.24,0-1.37.75.38-.12.74.72.78l-.51.24c1.31.37-.22.19,1.15.64.51-.4,0-.8.51-1.19-.33-.36-.61-.32-.93-.68-.26-1.17,2.13.52,1.52-.59-.38-.44-1.24-1-.52-1.14l.71.64c.39-.44-1-1-.1-1.19.25.29,0,.56.16.54.84.07-.3-.52-.13-.78l.73.4c.23-.59.11-1.49.37-2.15.19.17.34.42.64.43.15-1,1.14-1.46,2-1.83l-.39-.68c0-.06.35.08.41.23.41-.1-.36-.29-.49-.58.07-.18.48,0,.58.27-.16-.82-.06-2.1.93-2.09l.09.23c.52-.18-.82-1.34,0-1.26l0,.14c.9-.57,1.12-1.88,2.46-1.72-.67-.81,1-.42,0-1.45.91.06,1,.36,1.89.12.2-.1-.41-.86-.33-1.15l.54.53-.31-.82.77.5,0-.31c-.1,0-.38-.09-.53-.26,0-.53,1.07-.27,1.33,0l.24-1.09a1.11,1.11,0,0,1,.19.65c-.16-.91.6.53.45-.3-.16-.09-.28-.36-.37-.48a.78.78,0,0,0,1-.51l.28.44c.59-.33.91-1.11,1.53-1.55-.36,0-.87-.78-.74-1l.56.57c-.19-.48-.38-.09-.51-.75.29-.11.71.6.74.91l.1-.43a4.24,4.24,0,0,1,.34.58c-.18-.48,1,.29.59-.53l.16.18c.61-.43.74-.84,1.22-1.22-.37-.58-.09-.59-.24-1.16.5-.08,1.23.12,1.66-.22.15-.5-.21-.56-.27-1,.35.52.79.18.78.72a3.9,3.9,0,0,0,1.14-1.39c-.2-.18-.35-.23-.41-.44.09-.17.44.06.57.33v.08c.39-1.32,2.77.64,2.84-.87v.07c.13-.32.27-.63.42-.94.37,0,0,.52.4.76.34-1.28,1.26-.4,1.63-1.3,1.18,1.55,1.71-.83,2.8.08l-.18-.4c0-.46.29.17.45.22-.13-.32-.32-.31-.28-.57a3.4,3.4,0,0,1,2.35-.56c.86,0,1.74.19,2.55.22.59,0-.18-2.28.78-1.43l0,.84c1-1.18,2.37-.45,3.39-1.41,0,.2,0,.44-.12.45.32.55.89-.1.84-.58.19,0,.1.43.24.66s.52-.83.72-.26c0,.1,0,.2-.09.25.13-.3.75,0,.53-.66.46.28.8-.38,1.18,0,.18-.79.77.32.78-.76,0,1.11.81.86,1.07.33-.08.34.25.33.16.8.31,0,.59-.25.52-.81.6,1.32,1.17-1.07,1.5.63a8.68,8.68,0,0,1,2.7-1.17c-.1,1.1-.95.06-1,1.23.8-.42,1.34-1.36,2.13-1,.19.17-.16.47-.25.65.84-.37,1.53.22,2.31-.26a.54.54,0,0,1-.18.28c.14,0,.3.2.35-.3l-.16.12c-.13-.76.77-1.44.85-1.81-.44,1.39.67.46,0,2.2a.9.9,0,0,0,.29-.63c.12.11.13.31-.06.67.54-.19.45-.76.9-.67a3.86,3.86,0,0,1-.24.59c.31-.42.62-.85,1-.57-.05.14,0,.33-.15.31.67.06,1.38-1,2-.43-.44,1,.17.4,0,1.3l.44-.17,0-.47c.33.09.79-.49,1-.13l-.34.31.68,0-.28-.42c.46-.38.24-1.14.64-.78-.11.06.35.11.39.68h0c.24-.23.5-.48.69-.19,0,.3-.32,1-.33,1.16.37-.69.84,0,1.29-.71a2.06,2.06,0,0,0-.27.73l.31-.56c.1.23.1.34,0,.69.43.27.19-1.15.6-.49-.06,0-.06.12-.18.19.47.43,1.2,0,1.62.43-.15.92-.52.07-.6.86.78.06,1.87-.49,2.5,0l-.09-.15c.56-1.17.29.79.86.37a1.29,1.29,0,0,0-.3.49c.39.4,1.08.12,2,.05l-.23.27c.16.38.66.47.89.75.23-.26.37-.13.48-.62.05,1.08.58,1,1.14,1s1.11-.13,1.13.78c-.09-.05-.36.14-.28.18l.81.09c.22-.53.08-.35.15-.82.24-.25.56-.37.73-.28-.49.16-.43.8-.46,1.14.07-.16.2-.3.28-.46-.14,1.07.61-1,.76-.1l-.17.25c.25,0,.61-.28.76-.09-.25.61-.34.15-.62.61.28.13,1.16-.75,1.07,0-.21.09-.37,0-.58.09-.13.81,0,.66.13.88v0l.27.56v-.24c1.22-1.26.82.16,1.87-.51-1,.62-.41.48-.84,1.08,0,.24,0,.55-.12.69.53-.37.08.61.85.07-.12.21.21.16-.17.63.36,0,.17-.39.36-.62.87-.4.37,1.47,1.59,1,.77,0,1.34-.61,2-.57-.08.43-.65.6-.65.6,0,.47.25.56.65.53a1.08,1.08,0,0,0-.33.57c.23.09.67-.59.69-.13a5.26,5.26,0,0,1-.78.61c.35,0,.85-.19,1.21-.17-.21.37-.53.38-.78.53a1.41,1.41,0,0,0,1.36-.21v-.31c.11,0-.32.47-.46.51-.54.22-.16-.43,0-.63h.25c.74-1.23-.78-.34-1.05-.65l.76-.7-.85.41c.09-.27.39-.76.64-.75.07-.58-.43.12-.29-.48a.21.21,0,0,1,.11-.14l-.41.07c.17-.14.39-.61.45-.38-.07-.81-1.14.09-.85-.64l.07,0c-.8-.15-.5.56-1.46,1l.77-1.72-.49.57c0-.06-.14-.2.06-.43-.53.26-.15.3-.56.6.09-.78-1-.31-.41-1.34-.42.41.05.56-.5.68.62-1.13-.49-.06-.45-.74.44-.5.52,0,.56-.71-.78.83-.42-.56-.78-.54-.48.75-.72,0-1.28,0,.18-.25-.53-.88-.76-1.39l.09-.12c-.52.74-.83.36-1.22.38a1.51,1.51,0,0,1,.71-.76l-.28-.14a.73.73,0,0,1-.6.3l.39-.56c-.39-.16-1.12.31-1.39-.34-.31.54-.42,1.75-1.1,1.87.13-.32.38-.85.57-.9-.06,0-.28.17-.3,0l.46-.41c-.11-.34-.33.37-.48.23.22-.43,0-.37.22-.7.07,0,.06.25.22.12a1.12,1.12,0,0,1-.2-.92c-.1.26-.28.59-.46.58-.39-.15.13-.59,0-.92-.24.26-.33-.17-.65.48-.1-.06,0-.37.06-.57-.33.19-1-.35-1.06.45l0,.07,0,0h0c-.94.38-1.19-1-2-1l.09-.22c-.48.08-.93-.18-1.39.19-.12,0-.12-.51,0-.76-.37.05-.49.3-.79-.24.45-.29,0-.39.42-.18-.32-.34-.28-.75-.93-.27.35-.54,0-.84-.3-.72l.14.51a1,1,0,0,1-.59-.21l.36-.74c-.54-1.22-2,1.11-2.14-.65-.38.49.34.52,0,1.1-.34-.21-.42-1.45-.55-1.48-.41-.59-.81,1-1.27.56,0,.3-.14,1.06-.61,1.23-.35-.19-.17-1.3.13-1.47.1,0,.12.1.09.2.15-.08.35-.16.27-.5l-.12.27c-.12-.33-.67-.43-.43-.86-.36.2-.24.43,0,.63-.41-.53-.78-.19-1.23-.59,0,.17,0,.53,0,.5-.67-.52-.44.46-1,.49-.21-.49.31-1-.28-.75-.26-.36.08-.77.25-1-.58.46-.82-.53-1.09-.69l.3-.18a.53.53,0,0,1-.43.06l0,.6c-.13-.13-.26-.16-.22-.39-.21.34,0,1-.43,1.43-.15-.33-.64.22-.59-.55.58.35,0-.78.6-.83-.12.08-.24.06-.38-.06a.23.23,0,0,1,.1-.2c-.5-.76-.41.83-1,.72.14-.42,0-.83-.14-.76.25.05,0,.74-.25,1-.35-.39-.46.19-.66.12l.21.19c-.13.42-.32.34-.61.44,0-.34.28-.2.2-.36-.39.72-.6-.86-1.08-.39-.17-.31.06-.81-.1-1-.53.52-.47-.64-1-.22.11.59.14.45-.26,1l.86-.34-.6.8c.25,0,.56-.32.7-.2-.3.45-.26.31-.18.8-.26-.9-.71.45-1-.17l.12-1.45c-.57-.67-1.11.69-1.87.29l.24.27c-.12.57-.48,0-.73.28a2,2,0,0,0-.22-1c0,.36-.57,0-.65.93l-.34-.64c-.64-.26-.71,1.38-1.3,1.22.17-.53-.11-.87.29-1.25-.21,0-.39-.09-.38.25-.13-.31-.54.67-.74.22-.07.22-.08.72-.31.69a.81.81,0,0,1,0-.23c0,.23-.34.34-.12.86-.69-1.48-1.67.19-2.3-1a5.77,5.77,0,0,1-1.31.47c0-.14,0-.24,0-.19-.59-.4-.17,1.42-.83,1-.41-.74.27-.47,0-.74-.29-1.56-.71.32-1.25-.54l.08-.11c-.4-.48-.69.69-1.21.69a.74.74,0,0,0,0-.24,2.64,2.64,0,0,1-1.25,1.57c0-.64.15-.37-.06-1-.2.13.26,1-.14,1.24a3.17,3.17,0,0,1-.76-1.19c.13,0,.27-.08.4-.12-.39-.82-.53.14-.78,0l0-.38c-.61.27-.4,1.21-1.09,1.3l.14.26c-.13,1-.44-.44-.63.33l-.35-.91a6.24,6.24,0,0,1-1,1.44,4.9,4.9,0,0,1,.66-1.76c-.24.06-.8.3-.79.8.07-.12.12-.38.26-.26-.09.81-.36,1.28-.84,1.4-.46-1.84-1.35-.07-2.15-1.33-.62.92-1.77.29-2.71.79.87,1.22-.27.14.34,1.51-.18.18-.27.19-.33.11-.34-.2-.67-.38-1-.56s.08-.39-.07-.69c-.53.1-.45-.5-.93-.72.28.46.13.78-.23.71l.67.47c-.36,1-1.1-.9-1.47.13l0-.53c-.24.4-1.31.62-1.11,1.86-.14-.12-.4-.45-.3-.62-.93.24-1.22,2.06-2.19,1.76l-.12-.35c-.1.18.08.75-.29.53-.06-.14-.12-.35-.2-.33s-.08.77-.38.7l0-.45c-1,0-.66,1.59-1.14,2.18a1.6,1.6,0,0,0-1.76-.77l-.08-.13c-.94.5-1,1.73-1.48,2.66-1.18-.57-1.92.82-3.07,1,.24.05.53.66.47.85-.32,0,0,1-.61.2l.07,0c-.76-.62-1-.13-1.24.1l.82,1c-2-.74-1.32,2.18-2.85,1.35.07.39-.13.59-.06,1l-.49-.49a2.73,2.73,0,0,0-1.26,1.2L65.3,55c-.34.3,1.1,1.76.87,2.08l-.86-.6c-.49.57-1.69.59-1.46,1.76-.11-.1-.32-.31-.27-.43-.27.25-1.43.65-.24,1.43-.73-.57-.56.56-.49,1.13l-.5-.47c.47.81.66,1,.57,1.49-.14,0-.5-.25-.27-.27-.51.09.34.63-.22.77l-.25-.4c-.28.28-.07.4.21.87.08.36-.57.49-1.1.17.27.27.56.73.28.82a.68.68,0,0,1-.31-.34c-.75.26.1,1.24-.71,1.22a1,1,0,0,0-.38-.17c.31-.42.58-.73.6-.67-.51-.37-.85-.09-1.37-.86.2.55.71,1.61.24,1.78l-.21-.08,0-.08c-.11,0-.1.15-.06.28-.16,0-.27.07-.35.17-.46-.25-.5.24-.63.4.58.37.34.53,1,.64-.06,0,0-.08,0-.21a.25.25,0,0,0,0-.12l0,0c.06-.12.15-.28.25-.45.2.33.35.63-.1.61.31.33.63.68.77.85-1-.3-1.69-.12-2.23-.38,0,.75-.59,1.4.3,2.42,0,.24-.43,0-.63-.07s0-.25-.11-.4c.1.48-.44,1,.29,1.52-.59.17-.58-.65-.78,0l-.19-.21c-1.89.3,1,2.87-1.31,3.08a.63.63,0,0,1,.36,0c-1.48.92-.89,3.11-2.75,3.8-.43.25.05.57.31,1l-.69-.27.54.8c.24.85-2.12.1-1.46,1.36l.49.15c-.22.21-.18.94-.66.62.07.07.41.33.13.31l-.34-.18.25.93c-.5.35-1.32-.8-1.76-.13,0,.33.6,1.27.88,1.3.07-.1.36-.16.7,0l.06.33c1,.58,1.91,1.32,2.93,1.11l-.4-.74.56.13-.15.36c.56,0,.22-.29,0-.57a1.29,1.29,0,0,0,.63.11l-.74-.91c.42.16.68.6,1,.45-.34-.43-1-.3-1.1-.77.56.06.9.31.63-.12a.73.73,0,0,1,.48.39c-.2-.37.16-.6-.32-1,.67.11.22-.76,1.16-.23-.19-.18-.55-.76-.49-1,1,1,.44-.66,1.61.1-.88-.81,0-1.15-.28-1.9.07.07.2.2.13.21.22-.2.57-.1.85-.15-.82-.5-.8-1-1.2-1.49,1,.15.88.74,1.71,1.08-.69-.37-.39-.91-1-1.12a2.17,2.17,0,0,1,1.12.21c-1-.63-.06-.32-.6-.87.71,0,1,.47.92-.08C59.58,75.58,59.77,76.12,59.77,76.12ZM63.2,66.6h0l-.08.19Zm.47-.69a1,1,0,0,0-.23.28c-.21-.11-.4-.28-.34-.34C63.21,66,63.43,65.89,63.67,65.91Zm-5-1.2c0-.17.14-.13.27-.07a1,1,0,0,0-.07.25L59,65Z"/><path class="cls-2" d="M59.32,65.42s0,0,0,.07l.17,0-.15-.16Z"/><path class="cls-2" d="M128.82,44.8v0a.2.2,0,0,1,0,.11S128.82,44.83,128.82,44.8Z"/><polygon class="cls-2" points="71.88 58.04 71.76 57.92 71.81 58.07 71.88 58.04"/><path class="cls-2" d="M131.94,49a.58.58,0,0,0,0,.19A.47.47,0,0,0,131.94,49Z"/><path class="cls-2" d="M133.57,50.14l.12.35A1,1,0,0,0,133.57,50.14Z"/><path class="cls-2" d="M134.68,51.23a2.5,2.5,0,0,0,.18-.23h0Z"/><path class="cls-2" d="M112.26,43.91a.07.07,0,0,0-.06,0C112.05,44,112.14,44,112.26,43.91Z"/><path class="cls-2" d="M119.55,43.69a1.62,1.62,0,0,1-.31.25C119.35,44,119.44,44.07,119.55,43.69Z"/><path class="cls-2" d="M104.49,44.38h0s0,0,0,0Z"/><path class="cls-2" d="M118.92,43.84c.09.17.2.17.32.1C119.15,43.87,119.05,43.77,118.92,43.84Z"/><path class="cls-2" d="M139.75,55.31l0,.07.08-.08Z"/><path class="cls-2" d="M139.87,55.3H140A.07.07,0,0,0,139.87,55.3Z"/><path class="cls-2" d="M140.22,55.27l-.24,0S140.07,55.39,140.22,55.27Z"/><path class="cls-2" d="M138.39,53.83l-.17.18A1,1,0,0,0,138.39,53.83Z"/><path class="cls-2" d="M137.87,53.51c.08.14,0,.65.22.65l.13-.15C137.92,54.25,138.23,53.26,137.87,53.51Z"/><path class="cls-2" d="M137.55,49.49l.32.47c.08-.27.18-.64.41-.55C138.18,48.36,138.06,50,137.55,49.49Z"/><path class="cls-2" d="M136.36,48.26c.31.05.2-.33.3-.45C136.37,47.92,136.3,47.94,136.36,48.26Z"/><path class="cls-2" d="M125.55,42.87l.25-.57C125.56,42.3,125.71,42.52,125.55,42.87Z"/><polygon class="cls-2" points="122.36 45.19 122.43 45.62 122.7 45.11 122.36 45.19"/><polygon class="cls-2" points="122.43 40.51 122.55 40.45 122.12 40.57 122.43 40.51"/><path class="cls-2" d="M101.88,38.47l.13.76C102.15,39.08,102.12,38.21,101.88,38.47Z"/><path class="cls-2" d="M93.24,40.66c-.18-.35-.49-.54-.54-.13C92.9,40.53,93.17,40.78,93.24,40.66Z"/><polygon class="cls-2" points="69.23 52 69.19 51.68 69.09 52.08 69.23 52"/><path class="cls-3" d="M148.44,49.55c.19-.12.47-.51.25-.56l-.63.53Z"/><path class="cls-3" d="M148.36,47.53a2.71,2.71,0,0,0-1.44,1.19c.68-.45.52-.17,1.3-.72.22,0,.1.42-.11.63.19-.12.12.34.53,0,.2-.65,0-.88-.63-.7C148.06,47.76,148.25,47.64,148.36,47.53Z"/><path class="cls-3" d="M133.57,34.56l.06.15A.2.2,0,0,0,133.57,34.56Z"/><path class="cls-3" d="M123.12,28a.19.19,0,0,0,.2-.09C123.22,27.93,123.13,28,123.12,28Z"/><path class="cls-3" d="M121.54,26.33a.94.94,0,0,0,.1.1C121.62,26.34,121.59,26.28,121.54,26.33Z"/><path class="cls-3" d="M133.57,34.56l-.12-.4C133.28,34.37,133.48,34.42,133.57,34.56Z"/><path class="cls-3" d="M145,47.33a.56.56,0,0,0,.27,0l-.18,0Z"/><path class="cls-3" d="M138.37,37.14l.08.06a3.4,3.4,0,0,0,.27-.21Z"/><path class="cls-3" d="M141.75,39.55c-.05-.08-.5.45-.71.66.21-.19.35-.25.45-.24A4.06,4.06,0,0,0,141.75,39.55Z"/><path class="cls-3" d="M146.1,44.59h.15A.75.75,0,0,0,146.1,44.59Z"/><path class="cls-3" d="M136,35.28a.73.73,0,0,0,.11-.22A.91.91,0,0,0,136,35.28Z"/><path class="cls-3" d="M51.38,75.93l-.12,0C51.32,75.94,51.37,76,51.38,75.93Z"/><path class="cls-3" d="M47.39,79.94l0-.07-.38,0Z"/><path class="cls-3" d="M118.17,24s0,0,0,0S118.25,24,118.17,24Z"/><path class="cls-3" d="M82,26.25c.65.36-.22,1,.65,1.33C82.49,27.37,82.67,26.36,82,26.25Z"/><path class="cls-3" d="M145,47.19l-.13-.1A.17.17,0,0,0,145,47.19Z"/><path class="cls-3" d="M82.67,27.58h0l.09,0Z"/><path class="cls-3" d="M109.13,22.05a.75.75,0,0,0,0,.31A.82.82,0,0,0,109.13,22.05Z"/><path class="cls-3" d="M115.51,24.63l-.13-.14A.36.36,0,0,0,115.51,24.63Z"/><path class="cls-3" d="M105.47,22.52c-.09-.06-.11-.16-.24-.08a.14.14,0,0,0,0,.09C105.31,22.44,105.37,22.4,105.47,22.52Z"/><path class="cls-3" d="M101.79,22.3c0,.05,0,.09.07.14l.12,0Z"/><path class="cls-3" d="M54.45,66.51a3.27,3.27,0,0,1-.62-.14C54.29,66.54,54.23,67.06,54.45,66.51Z"/><path class="cls-3" d="M145.28,47c-.12.12-.2.17-.27.16l.12.05A.64.64,0,0,0,145.28,47Z"/><path class="cls-3" d="M104.79,27.92l-.5-.15A1.28,1.28,0,0,0,104.79,27.92Z"/><path class="cls-3" d="M67.71,45.86l0,.15S67.75,45.93,67.71,45.86Z"/><path class="cls-3" d="M102.76,27.78a1.09,1.09,0,0,0-.27-.49.56.56,0,0,0-.06.17Z"/><path class="cls-3" d="M53.82,66.37h0Z"/><path class="cls-3" d="M53.9,70.2c.2-.44-.74-.55-1.18-.85,0-.65.73,0,1.23,0-.09-.43-.72-1-.57-1.27.14,0,.21,0,.36.15-.5-.67.45-1.09-.15-1.9a.79.79,0,0,1,.23,0,6,6,0,0,1-1.15-.48c.09-.21-.32-.64.25-.46-.08.12.13.24.26.38l-.12-.33c.86.18.12.43.68.7-.05-.54-.41-1.35,0-1.57.77.32-.14.88.74.79l-.54.35c1.36.21-.23.26,1.2.55.54-.54,0-.92.54-1.45-.33-.36-.63-.27-1-.63-.23-1.33,2.23.28,1.62-.93-.38-.44-1.26-1-.5-1.23l.72.63c.44-.57-1-1,0-1.37.25.3,0,.65.13.61.89,0-.28-.57-.09-.89l.76.36c.26-.73.19-1.76.51-2.57.19.17.33.43.65.39a4.34,4.34,0,0,1,2.29-2.5L60.35,56c.06-.08.36,0,.43.19.45-.19-.37-.27-.51-.58.09-.23.52,0,.62.2-.13-.93,0-2.43,1.08-2.62l.1.24c.57-.32-.86-1.38,0-1.45l0,.16c1-.87,1.25-2.41,2.71-2.54-.73-.77,1.1-.73,0-1.66,1-.14,1.08.17,2.08-.33.22-.17-.47-.87-.38-1.23l.6.46L66.79,46l.86.38,0-.36a.68.68,0,0,1-.59-.16c.05-.6,1.16-.6,1.47-.36l.25-1.29c.21.22.17.43.22.68-.2-1,.68.42.5-.46-.18-.05-.32-.32-.42-.43.53.08.94-.39,1.11-.87l.33.41c.66-.53,1-1.48,1.67-2.15-.41.07-1-.61-.88-.87L72,41c-.23-.47-.42,0-.59-.69.32-.19.82.47.86.79l.1-.5c.19.15.21.31.41.54-.23-.47,1.09.05.66-.74l.18.15c.67-.64.79-1.14,1.32-1.68-.45-.52-.13-.61-.33-1.18.56-.23,1.4-.21,1.87-.7.15-.57-.26-.54-.36-1,.43.46.92,0,.93.56a5.46,5.46,0,0,0,1.24-1.78c-.24-.14-.41-.15-.49-.36.09-.2.5,0,.66.21v.08c.19-.72,1-.76,1.76-.77s1.45-.05,1.48-.83v.08l.44-1.08c.43-.14,0,.54.5.7.34-1.42,1.45-.68,1.86-1.68,1.4,1.33,2-1.14,3.28-.41l-.22-.38c0-.48.34.12.53.15-.15-.31-.37-.27-.34-.54,1.57-1.24,3.89-.79,5.76-.82.69,0-.1-2.29,1-1.46l-.08.85a3,3,0,0,1,2-.81,3.89,3.89,0,0,0,2.09-.56c-.07.2,0,.44-.19.44.34.57,1.08,0,1.07-.51.22,0,.07.43.21.67.3.32.71-.78.89-.19,0,.09-.08.19-.14.23.19-.28.89.07.71-.61.52.31,1-.29,1.42.13.31-.75.88.4,1-.67-.1,1.1.86,1,1.25.48-.15.33.25.37.08.82a.65.65,0,0,0,.74-.72c.53,1.42,1.57-.88,1.71.88a11.25,11.25,0,0,1,3.43-.61c-.29,1.07-1.15-.14-1.35,1,1-.25,1.83-1,2.72-.52.2.2-.27.42-.4.58,1.08-.2,1.8.62,2.82.29,0,.1-.16.18-.27.23.18,0,.33.29.47-.2l-.2.07c0-.78,1.13-1.22,1.29-1.58-.74,1.27.73.63-.32,2.2a.78.78,0,0,0,.44-.56c.13.15.12.35-.17.66.68-.06.65-.63,1.18-.42-.09.23-.23.28-.38.53.43-.35.87-.69,1.25-.33-.08.13-.09.33-.23.27.8.22,1.79-.63,2.47.14-.67.86.15.44-.18,1.3l.55-.05V30.6c.38.19,1-.25,1.22.17l-.45.21.8.19-.26-.52c.6-.23.45-1.07.87-.58-.15,0,.39.2.35.79h0c.32-.17.66-.34.85,0-.06.3-.52.88-.56,1.07.54-.58,1,.29,1.62-.31a1.82,1.82,0,0,0-.42.65l.45-.47c.08.27.06.37-.15.69.48.39.39-1.11.78-.33-.07,0-.09.11-.24.14.5.58,1.42.33,1.84.93-.29.9-.61-.09-.8.7.89.33,2.27,0,2.94.72l-.09-.18c.79-1,.25.92,1,.64-.15,0-.52.53-.41.43.42.51,1.26.43,2.3.62l-.29.21c.15.46.72.7,1,1.05.29-.2.45,0,.61-.51-.06,2.27,2.56.54,2.53,2.49-.11-.07-.42.05-.34.12l.95.31c.27-.5.1-.35.2-.83a.82.82,0,0,1,.86-.1c-.57,0-.54.73-.58,1.1a4.58,4.58,0,0,1,.34-.43c-.21,1.11.75-.86.89.09l-.21.22c.29,0,.72-.15.89.09-.31.59-.4.08-.74.5.32.2,1.35-.53,1.23.21-.24,0-.43-.1-.67-.06-.16.85,0,.72.14,1v0l.3.67V42c1.43-1.06,1,.36,2.17-.12-1.16.44-.47.41-1,1,0,.26.05.6-.13.72.61-.28.11.68,1,.27-.13.2.24.22-.19.65.43.1.19-.39.4-.6,1-.26.51,1.67,1.9,1.36.88.12,1.5-.42,2.31-.28-.06.45-.7.55-.7.55.07.52.34.66.79.67-.19.12-.24.3-.32.58.26.14.7-.55.77,0a5,5,0,0,1-.83.56c.4,0,.95-.08,1.36,0-.19.38-.56.35-.83.48.42.11,1,.37,1.55-.06l0-.35c.14.07-.3.49-.46.51-.59.18-.24-.49-.1-.69l.3.05c.69-1.25-.94-.48-1.28-.87l.81-.65-.94.32c.08-.28.38-.76.68-.72,0-.63-.49.07-.37-.56a.15.15,0,0,1,.12-.13h-.47c.19-.13.41-.6.49-.35-.13-.86-1.3-.06-1-.81l.08,0c-.91-.3-.54.53-1.61.79l.81-1.72-.54.52a.3.3,0,0,1,0-.44c-.59.18-.16.29-.61.54.07-.81-1.16-.52-.5-1.51-.48.34.06.61-.55.62.69-1.09-.57-.17-.53-.88.51-.44.6.07.64-.65-.88.73-.47-.68-.87-.72-.56.69-.82-.17-1.46-.29.21-.21-.57-1-.81-1.63l.1-.11c-.62.66-1,.19-1.4.1.34-.42.52-.55.84-.61l-.31-.23a.75.75,0,0,1-.69.17l.48-.49c-.44-.27-1.29,0-1.56-.71-.39.49-.6,1.72-1.4,1.67.18-.29.49-.78.72-.79-.07,0-.33.11-.35-.08l.56-.3c-.1-.38-.4.3-.57.12.29-.4.06-.39.31-.68.08,0,.05.28.24.18a1.19,1.19,0,0,1-.15-1c-.14.24-.37.53-.57.47-.43-.26.19-.57.09-1-.29.2-.36-.27-.78.32-.12-.08.05-.38.11-.57-.4.11-1.07-.62-1.25.19l0,.08h0c-1.1.11-1.27-1.32-2.15-1.54l.13-.2c-.58,0-1.05-.46-1.63-.21-.13-.08-.07-.57.13-.78-.43-.05-.61.17-.89-.47.56-.16.08-.39.51-.06-.33-.43-.24-.83-1-.54.47-.44.06-.87-.25-.83l.09.56a1.46,1.46,0,0,1-.65-.38l.52-.65c-.45-1.39-2.47.56-2.4-1.27-.51.37.32.62-.21,1.09-.37-.31-.29-1.59-.42-1.67-.41-.7-1.1.79-1.59.21,0,.3-.31,1-.88,1.06-.38-.31,0-1.35.36-1.44.12,0,.13.14.08.23.19,0,.43-.05.39-.42l-.18.23c-.09-.38-.72-.62-.38-1-.45.1-.34.37-.15.62-.4-.65-.89-.42-1.36-.94,0,.19,0,.54-.12.49-.72-.7-.6.35-1.23.22-.16-.54.53-.93-.21-.83-.25-.43.21-.75.45-.91-.76.29-.9-.75-1.19-1l.38-.11a.66.66,0,0,1-.51-.05l0,.61c-.14-.16-.28-.22-.2-.44-.31.29-.2.95-.73,1.31-.13-.36-.8,0-.62-.71.63.51.18-.77.84-.65a.42.42,0,0,1-.43-.18c0-.09.08-.14.14-.17-.48-.89-.62.72-1.33.45.23-.38.09-.84-.06-.79.29.11-.09.74-.46,1-.36-.48-.58.06-.81,0l.23.23c-.22.39-.44.26-.8.3.07-.33.36-.14.29-.31-.58.62-.58-1-1.23-.66-.16-.35.2-.79,0-1.05-.72.4-.47-.74-1.2-.44,0,.61.09.48-.47.92l1.09-.14-.85.66c.3.08.72-.2.87-.06-.42.39-.35.26-.34.76-.17-.95-.92.29-1.23-.4l.36-1.41c-.58-.81-1.45.44-2.3-.12l.25.31c-.24.54-.59,0-.93.14a1.74,1.74,0,0,0-.12-1c0,.36-.7-.15-.94.79l-.31-.7c-.74-.36-1.07,1.25-1.76,1,.28-.49,0-.88.53-1.19-.25,0-.46-.15-.51.18-.11-.33-.75.57-.92.1-.13.2-.21.7-.48.64a.63.63,0,0,1,0-.24c0,.24-.45.29-.26.84-.63-1.59-2.07,0-2.68-1.33a8.51,8.51,0,0,1-1.67.36c0-.14,0-.24.09-.19-.69-.44-.37,1.39-1.14.93-.43-.76.38-.44.13-.73-.19-1.58-.92.27-1.5-.62l.12-.1c-.45-.52-.92.7-1.57.65a.56.56,0,0,0,0-.24,3.45,3.45,0,0,1-1.68,1.57c.08-.64.22-.37,0-1-.26.13.25,1-.26,1.25-.23-.31-.68-.53-.86-1.18L94,23c-.43-.82-.67.16-1,.07l0-.38c-.78.3-.57,1.22-1.41,1.38l.15.25c-.2,1-.51-.42-.77.39l-.4-.9a7.94,7.94,0,0,1-1.24,1.55,5,5,0,0,1,.86-1.85c-.3.09-1,.39-1,.89.09-.13.17-.4.33-.29a1.73,1.73,0,0,1-1,1.53c-.55-1.82-1.65.1-2.61-1.07-.74,1.06-2.13.61-3.25,1.29,1.07,1.1-.32.21.44,1.51-.21.22-.32.25-.39.18l-1.21-.37c-.4-.28.09-.42-.1-.7-.63.21-.55-.43-1.13-.56.34.42.18.78-.25.8l.8.33c-.38,1.15-1.33-.7-1.71.47V27c-.26.49-1.52.94-1.23,2.21-.16-.1-.48-.38-.37-.59C76.4,29.11,76.15,31.1,75,31l-.15-.34c-.1.21.13.77-.3.64-.09-.13-.16-.35-.25-.3s0,.84-.39.85l-.07-.47c-1.17.32-.68,1.84-1.18,2.62a1.65,1.65,0,0,0-2-.35l-.09-.12c-1,.77-1,2.13-1.5,3.25-1.35-.31-2.06,1.42-3.32,1.85.27,0,.61.58.55.81-.35.05.07,1.06-.65.37l.08-.06c-.87-.49-1,.11-1.35.43l.94.89c-2.19-.34-1.36,2.72-3.05,2.16.09.42-.12.68,0,1.1l-.55-.44a4.12,4.12,0,0,0-1.33,1.6l-.29-.45c-.35.41,1.22,1.73,1,2.14l-.92-.49c-.52.75-1.81,1-1.55,2.28-.12-.1-.35-.29-.3-.44-.27.34-1.53,1-.26,1.66-.77-.51-.61.73-.53,1.36l-.53-.44c.5.83.69,1,.57,1.59-.15.06-.52-.2-.27-.26-.56.19.34.65-.26.92L56.72,53c-.29.36-.08.46.21,1,.07.4-.63.66-1.18.38.28.26.57.74.27.88a.53.53,0,0,1-.32-.34c-.81.42,0,1.41-.8,1.51a.71.71,0,0,0-.4-.13c.35-.52.65-.93.66-.86-.53-.34-.89,0-1.41-.78.18.61.69,1.74.18,2a.73.73,0,0,1-.22-.06l0-.08c-.12.07-.12.19-.08.32a.9.9,0,0,0-.38.25c-.47-.22-.54.36-.69.56.6.34.33.57,1,.59-.06,0,0-.08,0-.24a.3.3,0,0,0,0-.13l0,.05c.07-.15.17-.35.29-.56.2.35.34.68-.13.72.31.34.63.7.77.87-1-.2-1.79.12-2.35-.1,0,.87-.7,1.72.21,2.78,0,.27-.45,0-.67,0,0-.17,0-.29-.09-.44.08.54-.52,1.21.24,1.73-.62.3-.6-.67-.82.08l-.2-.22c-1,.34-.76,1.16-.56,2s.36,1.57-.83,2a.49.49,0,0,1,.37,0,4.77,4.77,0,0,0-1.19,2.66,4.31,4.31,0,0,1-1.37,2.63c-.41.45.13.67.46,1.1L47,72.9c.22.26.44.51.68.76.43.9-2.11,1-1.14,2.21l.52,0c-.17.34.08,1.18-.47,1,.09,0,.5.2.22.3l-.38,0,.53,1c-.36.66-1.52-.29-1.69.75.11.41,1,1.18,1.3,1a.62.62,0,0,1,.66-.35l.17.34c1.14.14,2.29.42,3.15-.26L49.85,79l.56-.11v.43c.54-.2.09-.39-.21-.6a1.16,1.16,0,0,0,.63-.15l-1-.64c.45,0,.85.35,1.14,0-.47-.31-1,.09-1.3-.36.55-.17,1,0,.56-.39a.7.7,0,0,1,.58.23c-.32-.31,0-.7-.6-.94.68-.14,0-.91,1.06-.66-.24-.13-.72-.63-.71-.88,1.16.73.29-.86,1.6-.39-1-.61-.19-1.26-.62-2,.08.06.23.18.16.21.2-.28.56-.26.83-.39-.89-.34-1-.9-1.41-1.36,1-.07,1,.61,1.86.78-.74-.24-.48-.91-1.14-1a2,2,0,0,1,1.16,0c-1.11-.48-.1-.34-.69-.85.72-.19,1.09.32.94-.27C53.67,69.64,53.9,70.2,53.9,70.2Zm3.7-11.5h0l-.1.24Zm.54-.88a3,3,0,0,0-.26.37c-.22-.1-.41-.26-.34-.34C57.64,58,57.89,57.85,58.14,57.82Zm-5.23-.61c0-.2.15-.18.28-.12a1.16,1.16,0,0,0-.08.29l.06.06A2.1,2.1,0,0,1,52.91,57.21Z"/><path class="cls-3" d="M53.53,57.93a.27.27,0,0,1,0,.09h.19l-.16-.16Z"/><path class="cls-3" d="M133.64,34.74v0a.22.22,0,0,1,0,.11A.69.69,0,0,1,133.64,34.74Z"/><polygon class="cls-3" points="67.27 46.95 67.13 46.84 67.2 47.01 67.27 46.95"/><path class="cls-3" d="M137,40a.35.35,0,0,0,0,.18A.43.43,0,0,0,137,40Z"/><path class="cls-3" d="M138.82,41.61l.13.4A1.23,1.23,0,0,0,138.82,41.61Z"/><path class="cls-3" d="M140.11,43l.21-.21h0Z"/><path class="cls-3" d="M114.25,29.06h-.08C114,29.15,114.1,29.13,114.25,29.06Z"/><path class="cls-3" d="M123,30.86a2.17,2.17,0,0,1-.4.17C122.68,31.14,122.78,31.21,123,30.86Z"/><path class="cls-3" d="M104.84,27.94v0h-.06Z"/><path class="cls-3" d="M122.2,30.84a.28.28,0,0,0,.36.19C122.47,30.93,122.36,30.8,122.2,30.84Z"/><path class="cls-3" d="M146.31,48.46l.05.08a.59.59,0,0,1,.08-.08Z"/><path class="cls-3" d="M146.44,48.46h.13A.08.08,0,0,0,146.44,48.46Z"/><path class="cls-3" d="M146.85,48.47h-.28C146.63,48.51,146.68,48.59,146.85,48.47Z"/><path class="cls-3" d="M144.56,46.61l-.18.18A.75.75,0,0,0,144.56,46.61Z"/><path class="cls-3" d="M143.93,46.18c.1.16,0,.71.31.75l.14-.14C144.06,47,144.33,46,143.93,46.18Z"/><path class="cls-3" d="M143.37,41.77l.38.56c.08-.28.19-.65.46-.52C144.07,40.68,144,42.38,143.37,41.77Z"/><path class="cls-3" d="M142,40.22c.35.12.23-.31.34-.42C142.05,39.86,142,39.87,142,40.22Z"/><path class="cls-3" d="M130.09,31.81l.36-.52C130.17,31.22,130.32,31.49,130.09,31.81Z"/><polygon class="cls-3" points="126.07 33.22 126.1 33.68 126.49 33.24 126.07 33.22"/><polygon class="cls-3" points="126.78 28.51 126.93 28.48 126.42 28.47 126.78 28.51"/><path class="cls-3" d="M102.47,21.72l.06.77C102.72,22.36,102.79,21.49,102.47,21.72Z"/><path class="cls-3" d="M91.57,23.66c-.21-.34-.58-.5-.66-.09C91.16,23.56,91.48,23.79,91.57,23.66Z"/><polygon class="cls-3" points="64.22 40.89 64.16 40.55 64.06 41.01 64.22 40.89"/><path class="cls-4" d="M154.84,43.58c.21-.09.51-.47.27-.56l-.68.47Z"/><path class="cls-4" d="M154.74,41.42a2.31,2.31,0,0,0-1.55,1c.73-.39.55-.1,1.4-.58.23.09.12.47-.12.66.21-.1.14.38.58.09.22-.66-.05-.94-.69-.84C154.42,41.61,154.62,41.51,154.74,41.42Z"/><path class="cls-4" d="M138.39,25.48l.06.16A.23.23,0,0,0,138.39,25.48Z"/><path class="cls-4" d="M126.91,17a.19.19,0,0,0,.23-.06C127,17,126.93,17,126.91,17Z"/><path class="cls-4" d="M125.24,15a1.27,1.27,0,0,0,.1.12C125.33,15,125.3,15,125.24,15Z"/><path class="cls-4" d="M138.39,25.48l-.14-.44C138.07,25.23,138.28,25.32,138.39,25.48Z"/><path class="cls-4" d="M151.12,40.71a.59.59,0,0,0,.29,0l-.2-.07Z"/><path class="cls-4" d="M143.68,28.9l.09.08a3.09,3.09,0,0,0,.29-.2Z"/><path class="cls-4" d="M147.41,31.94c-.06-.09-.54.4-.77.6.23-.17.38-.22.49-.2A2.09,2.09,0,0,0,147.41,31.94Z"/><path class="cls-4" d="M152.24,37.93l.16,0Z"/><path class="cls-4" d="M141.11,26.59a.81.81,0,0,0,.12-.22A1.19,1.19,0,0,0,141.11,26.59Z"/><path class="cls-4" d="M46.18,70.59l-.11,0C46.13,70.61,46.17,70.63,46.18,70.59Z"/><path class="cls-4" d="M41.68,75.18l0-.08L41.28,75Z"/><path class="cls-4" d="M121.64,12.1v0C121.79,12.1,121.72,12.09,121.64,12.1Z"/><path class="cls-4" d="M80.26,11.9C81,12.2,80,13,81,13.21,80.75,13,81,12,80.26,11.9Z"/><path class="cls-4" d="M151.09,40.56l-.15-.13A.25.25,0,0,0,151.09,40.56Z"/><path class="cls-4" d="M81,13.21h0l.1,0Z"/><path class="cls-4" d="M111.71,8.37a1.14,1.14,0,0,0,0,.32A.66.66,0,0,0,111.71,8.37Z"/><path class="cls-4" d="M118.63,12.2l-.14-.17A.35.35,0,0,0,118.63,12.2Z"/><path class="cls-4" d="M107.46,8.18c-.09-.07-.11-.17-.27-.11a.32.32,0,0,0,0,.09C107.29,8.08,107.37,8.05,107.46,8.18Z"/><path class="cls-4" d="M103.22,7.44c0,.06,0,.1.06.15l.14,0Z"/><path class="cls-4" d="M49.5,59.05a2.78,2.78,0,0,1-.64-.06C49.34,59.11,49.3,59.72,49.5,59.05Z"/><path class="cls-4" d="M151.38,40.42c-.14.11-.22.15-.29.14l.12.06A.5.5,0,0,0,151.38,40.42Z"/><path class="cls-4" d="M106.08,13.45l-.56-.23A1.78,1.78,0,0,0,106.08,13.45Z"/><path class="cls-4" d="M63.57,34.44l0,.17C63.59,34.57,63.6,34.52,63.57,34.44Z"/><path class="cls-4" d="M103.79,13a1.24,1.24,0,0,0-.26-.53.54.54,0,0,0-.09.17Z"/><path class="cls-4" d="M48.85,59h0Z"/><path class="cls-4" d="M49,63.44c.21-.56-.75-.55-1.2-.84,0-.77.73-.1,1.25-.17-.09-.5-.74-1.1-.59-1.4.15,0,.22,0,.37.12-.51-.7.46-1.33-.19-2.17a.85.85,0,0,1,.23,0,5.07,5.07,0,0,1-1.19-.37c.08-.26-.35-.68.24-.56-.08.15.14.25.28.39L48,58.09c.89.07.14.47.73.7-.08-.62-.46-1.48-.08-1.79.81.24-.12,1,.78.78l-.54.49c1.41,0-.24.33,1.24.43.55-.7,0-1,.53-1.74-.35-.35-.66-.2-1-.56-.28-1.46,2.28-.06,1.63-1.32-.41-.43-1.33-.95-.55-1.3l.76.59c.44-.72-1-1-.08-1.53.27.3,0,.73.16.66.91-.2-.32-.59-.13-1l.79.28c.23-.86.17-2,.47-2.94.2.16.35.43.69.34.17-1.3,1.33-2.29,2.33-3.08l-.4-.75c.06-.09.38,0,.44.16.46-.27-.38-.25-.52-.58.09-.26.53-.1.63.15-.11-1,.09-2.68,1.19-3l.1.26c.59-.42-.85-1.44.06-1.6l0,.17c1.08-1,1.41-2.8,3-3.07-.72-.78,1.22-.91.1-1.84,1.07-.25,1.13.09,2.23-.55.24-.2-.43-.91-.31-1.31l.6.45-.3-.9.88.34.07-.41a.63.63,0,0,1-.61-.12c.07-.67,1.27-.76,1.58-.52l.37-1.44c.22.22.15.46.19.72-.13-1,.69.41.57-.54-.19-.05-.31-.33-.42-.44.56,0,1-.53,1.26-1.06l.32.42a28.89,28.89,0,0,0,2-2.53c-.44.13-1-.55-.88-.86l.67.45c-.21-.49-.46,0-.59-.69.36-.23.85.43.87.78l.16-.56c.19.15.2.32.4.55-.21-.49,1.18-.06.77-.88l.19.15c.78-.78.93-1.35,1.56-2-.47-.51-.11-.65-.29-1.24.63-.31,1.54-.4,2.1-1,.18-.64-.27-.55-.35-1,.44.44,1-.12,1,.49a6.72,6.72,0,0,0,1.46-2.05c-.26-.12-.45-.11-.53-.33.11-.21.57-.1.73.15v.09c.51-1.62,3.57-.44,3.68-2.09v.08L80.22,18c.48-.19,0,.57.53.68.44-1.53,1.66-.88,2.15-2,.8.62,1.34.27,1.9-.16s1.13-.92,1.83-.61l-.24-.37c.06-.5.4.1.61.12-.17-.3-.42-.25-.37-.53,1.81-1.43,4.46-1.11,6.61-1.21.78-.05,0-2.34,1.18-1.49l-.14.85a3.55,3.55,0,0,1,2.35-.8c.41,0,.82-.06,1.22-.13A3,3,0,0,0,99,12c-.09.19-.09.43-.24.43.34.58,1.21,0,1.24-.47.24.06,0,.44.19.69s.87-.71,1-.12c0,.1-.11.19-.17.23.24-.28,1,.15.85-.55.56.38,1.18-.17,1.61.29.43-.7,1,.52,1.25-.51-.24,1.08.87,1.08,1.36.66-.2.3.25.41,0,.83.43.09.87,0,.93-.59.45,1.48,1.9-.59,1.86,1.18a14,14,0,0,1,4,.06c-.44,1-1.3-.37-1.65.74,1.22,0,2.2-.67,3.17,0,.22.26-.34.38-.51.51,1.26,0,2,1,3.21.89,0,.09-.19.14-.33.18.21.05.37.34.56-.12l-.24,0c0-.8,1.4-1.05,1.6-1.37-.94,1.14.78.8-.52,2.18a.73.73,0,0,0,.54-.47c.14.17.1.38-.25.63.78.08.79-.51,1.38-.2-.11.22-.27.24-.47.46.52-.27,1-.54,1.46-.09-.1.11-.13.31-.28.23.88.4,2.06-.32,2.79.6-.8.77.15.48-.26,1.31l.63.05,0-.5c.43.27,1.15-.08,1.37.4l-.51.14.9.33-.28-.57c.68-.15.55-1,1-.46-.17,0,.44.27.38.87h0c.36-.11.74-.23.94.17-.07.3-.6.81-.65,1,.62-.51,1.11.46,1.82-.06a1.49,1.49,0,0,0-.48.6l.51-.41c.09.3.07.4-.17.7.52.48.45-1.1.87-.21-.08,0-.1.1-.27.1.55.69,1.58.59,2,1.28-.34.88-.69-.2-.91.59,1,.47,2.52.43,3.28,1.23l-.1-.2c.89-1,.28,1,1.07.83-.16,0-.57.47-.45.38.46.61,1.4.65,2.55,1l-.31.18c.16.5.8.85,1.08,1.26.31-.18.49,0,.66-.45,0,2.38,2.82,1,2.83,3-.13-.1-.47,0-.38.07l1,.47c.3-.49.11-.36.22-.85a.92.92,0,0,1,.94,0c-.62,0-.58.7-.62,1.08.08-.16.26-.26.36-.4-.21,1.14.81-.81,1,.22l-.23.2c.33.08.79,0,1,.22-.32.59-.44,0-.81.43.37.26,1.49-.36,1.37.4-.27,0-.48-.17-.74-.16-.17.88,0,.76.16,1.07v0l.34.76v-.29c1.54-.91,1.06.51,2.37.18-1.25.3-.5.38-1,.9,0,.28.07.65-.13.75.66-.21.13.75,1.08.43-.14.19.27.27-.19.66.47.17.2-.38.43-.58,1.08-.13.58,1.86,2.09,1.73,1,.26,1.64-.23,2.52,0-.06.47-.76.48-.76.48a.9.9,0,0,0,.88.84c-.21.09-.26.28-.35.57.29.18.76-.49.85.08a4.34,4.34,0,0,1-.91.47c.44.11,1,.05,1.49.18-.2.38-.62.29-.91.39.47.18,1.14.55,1.7.17l-.06-.38c.15.09-.32.47-.5.47-.64.11-.26-.56-.11-.75l.32.09c.74-1.23-1-.64-1.4-1.11l.87-.57-1,.2c.08-.28.41-.76.73-.67,0-.66-.53,0-.41-.66,0-.09.07-.11.13-.12l-.51-.06c.2-.1.43-.58.52-.29-.15-.95-1.41-.26-1.1-1h.09c-1-.45-.58.48-1.74.6l.85-1.72-.58.49a.31.31,0,0,1,0-.47c-.64.11-.17.28-.66.48.07-.85-1.28-.71-.57-1.67-.51.3.08.65-.6.58.74-1.06-.62-.26-.58-1,.55-.4.65.17.69-.59-.95.64-.53-.8-1-.9-.6.66-.9-.29-1.6-.51.23-.2-.63-1.2-.91-1.84l.11-.11c-.67.61-1,.07-1.53-.09a1.18,1.18,0,0,1,.91-.53l-.34-.28a.77.77,0,0,1-.75.07l.51-.44c-.47-.36-1.42-.15-1.72-1-.42.47-.64,1.74-1.52,1.56.19-.28.54-.75.79-.73-.09,0-.37.07-.39-.13l.61-.24c-.11-.42-.44.25-.62,0,.31-.37.06-.4.33-.67.09,0,.06.31.27.22a1.28,1.28,0,0,1-.17-1.09c-.15.24-.41.51-.62.42-.48-.34.21-.58.09-1-.32.17-.4-.33-.86.23-.13-.11.05-.39.12-.59-.44.06-1.18-.81-1.38,0l0,.09h-.06c-1.21-.05-1.4-1.58-2.37-1.93l.14-.19c-.63-.14-1.15-.66-1.8-.48-.14-.1-.08-.6.15-.79-.47-.11-.67.08-1-.62.61-.08.08-.4.56,0-.36-.51-.25-.91-1.15-.73a.49.49,0,0,0-.26-.9l.09.6a1.76,1.76,0,0,1-.71-.5l.58-.59c-.46-1.51-2.74.18-2.62-1.7-.58.31.34.69-.26,1.1-.41-.39-.28-1.69-.43-1.79-.41-.79-1.23.62-1.75,0-.06.3-.39,1-1,.94-.41-.37,0-1.39.47-1.41a.15.15,0,0,1,.08.24c.21,0,.48,0,.45-.37l-.21.21c-.09-.39-.77-.76-.37-1.08-.51,0-.4.32-.21.61-.41-.73-1-.59-1.46-1.2,0,.19,0,.54-.15.48-.78-.83-.69.26-1.39,0-.15-.59.64-.86-.19-.89-.25-.48.28-.72.56-.84-.87.17-.94-1-1.25-1.21l.43,0a.85.85,0,0,1-.57-.14l-.09.61c-.14-.18-.3-.27-.18-.48-.37.24-.3.94-.92,1.21-.11-.39-.9-.1-.64-.83.67.63.26-.74,1-.52a.51.51,0,0,1-.47-.25.17.17,0,0,1,.17-.14c-.46-1-.74.61-1.51.2.28-.34.17-.84,0-.81.32.16-.16.72-.6.89-.36-.54-.66,0-.9-.18l.23.28c-.29.35-.51.18-.92.15.11-.33.41-.07.35-.26-.7.52-.56-1.13-1.32-.91-.13-.39.3-.76.16-1.05-.86.26-.45-.84-1.3-.68,0,.62,0,.5-.63.84l1.24.07-1,.49c.33.14.83-.05,1,.12-.52.3-.43.18-.46.7-.1-1-1.07.11-1.36-.65l.56-1.34c-.57-.92-1.68.14-2.59-.56l.25.35c-.33.49-.66-.14-1.07,0a1.46,1.46,0,0,0,0-1c-.09.35-.76-.28-1.15.61l-.28-.75c-.8-.51-1.36,1-2.13.67.38-.45.09-.88.74-1.1-.27-.08-.51-.22-.59.1-.1-.33-.93.44-1.08-.06-.17.18-.32.67-.62.56a.55.55,0,0,1,.05-.23c-.05.23-.55.21-.39.79-.57-1.66-2.39-.33-3-1.69a18.14,18.14,0,0,1-2,.18c0-.14,0-.24.13-.18-.78-.5-.55,1.35-1.41.82-.44-.79.48-.41.21-.71-.1-1.61-1.09.21-1.71-.69l.14-.1c-.49-.52-1.13.61-1.88.59a.5.5,0,0,0,0-.24,4.27,4.27,0,0,1-2,1.56c.12-.66.27-.38,0-1-.3.15.24,1-.35,1.27-.26-.3-.76-.51-1-1.17l.6-.14c-.47-.81-.79.17-1.13.07l0-.38c-.91.33-.7,1.28-1.69,1.45l.18.25c-.28,1.05-.59-.41-.91.43L90,8.73a11.1,11.1,0,0,1-1.47,1.64,4.75,4.75,0,0,1,1.05-1.92c-.35.1-1.17.42-1.19.94.1-.14.21-.41.39-.31a2,2,0,0,1-1.24,1.63c-.27-.9-.75-.85-1.29-.71s-1.1.4-1.64-.16a3,3,0,0,1-1.71.94,5.91,5.91,0,0,0-2,.7c1.17,1-.36.25.46,1.51-.25.25-.37.29-.45.22-.45-.09-.89-.17-1.34-.24-.44-.25.11-.46-.09-.73-.71.3-.6-.38-1.24-.45.37.4.18.79-.3.85l.88.26c-.46,1.24-1.47-.58-1.92.68L77,13c-.3.54-1.71,1.13-1.42,2.44-.18-.09-.53-.34-.39-.57-1.19.62-1.53,2.76-2.77,2.8l-.16-.34c-.12.23.12.8-.35.7-.08-.12-.16-.34-.26-.28s-.07.9-.45.94l-.06-.49c-1.29.45-.8,2-1.4,2.91A1.75,1.75,0,0,0,67.53,21l-.09-.12c-1.18.91-1.14,2.39-1.78,3.63-1.44-.23-2.28,1.73-3.67,2.28.29,0,.61.59.53.83-.38.09,0,1.14-.72.46l.08-.07c-.88-.46-1.11.21-1.45.58l.94.9c-1.14-.1-1.58.67-1.92,1.41S58.86,32.3,58,32.07c.06.45-.18.76-.12,1.2l-.54-.43a5.09,5.09,0,0,0-1.51,1.9l-.27-.48c-.4.49,1.17,1.8.88,2.28l-.95-.46c-.62.87-2,1.3-1.76,2.7-.11-.1-.35-.29-.29-.46-.3.41-1.67,1.27-.36,1.88-.79-.48-.65.9-.6,1.6l-.54-.43c.5.87.69,1,.55,1.71-.16.09-.54-.16-.28-.26-.58.28.33.68-.3,1.06l-.26-.43c-.31.46-.09.54.21,1,.07.44-.66.82-1.24.59.29.25.59.76.27.95a.48.48,0,0,1-.32-.33c-.87.58,0,1.57-.84,1.82a.7.7,0,0,0-.41-.09A3.83,3.83,0,0,1,50,46.36c-.56-.3-.95.17-1.48-.65.18.65.74,1.86.21,2.23a.69.69,0,0,1-.23,0l0-.09a.35.35,0,0,0-.07.38,1.1,1.1,0,0,0-.39.34c-.5-.17-.56.49-.72.74.63.28.36.58,1,.5-.06,0-.05-.08,0-.27a.32.32,0,0,0,0-.14l.05,0c.07-.18.17-.41.29-.67.2.36.36.71-.13.83.33.33.66.68.81.85-1-.06-1.83.43-2.41.27,0,1-.67,2.05.28,3.08.06.3-.45.12-.68.13-.06-.19,0-.34-.11-.49.11.61-.47,1.45.32,1.91-.62.44-.63-.65-.83.22l-.21-.21c-2,1.08,1.11,3.46-1.31,4.59.16-.08.23-.13.38-.1-1.51,1.81-.74,4.49-2.56,6.2-.42.52.12.74.44,1.22l-.75-.07.65.84c.39,1-2.14,1.08-1.27,2.49l.52,0c-.19.38,0,1.33-.56,1.14.08.06.48.25.2.35L41,71.89,41.47,73c-.44.71-1.48-.44-1.79.68.06.46.86,1.41,1.15,1.3a.64.64,0,0,1,.71-.32l.12.42c1.1.28,2.2.77,3.17,0l-.56-.76.59-.1-.08.54c.57-.2.16-.48-.1-.75a1.14,1.14,0,0,0,.65-.14l-.94-.85c.45,0,.81.47,1.13.11-.43-.4-1,.06-1.26-.49.57-.19,1,0,.61-.46a.64.64,0,0,1,.56.3c-.29-.39,0-.85-.51-1.15.7-.16.1-1.1,1.15-.81a1.77,1.77,0,0,1-.66-1c1.12.85.33-1.05,1.64-.55-1-.68-.1-1.51-.52-2.36.07.06.23.19.16.23.2-.35.57-.36.85-.54-.9-.32-1-1-1.41-1.48,1-.19,1,.62,1.88.74-.75-.21-.48-1-1.15-1.08.67-.17.37-.22,1.19-.15-1.12-.43-.09-.39-.69-.91.73-.33,1.11.22,1-.45C48.74,62.81,49,63.44,49,63.44Zm3.56-13.7h0l-.1.28Zm.53-1.07a2.67,2.67,0,0,0-.26.45c-.23-.07-.43-.23-.36-.33C52.56,48.92,52.81,48.74,53.07,48.67Zm-5.42.12c0-.22.15-.21.29-.18a1.84,1.84,0,0,0-.08.35l.06.06A1.29,1.29,0,0,1,47.65,48.79Z"/><path class="cls-4" d="M48.3,49.51s0,.06,0,.1l.19,0-.16-.16Z"/><path class="cls-4" d="M138.46,25.67v0a.22.22,0,0,1,0,.11Z"/><polygon class="cls-4" points="63.03 35.69 62.89 35.58 62.95 35.76 63.03 35.69"/><path class="cls-4" d="M142.16,31.72a.38.38,0,0,0,0,.19A.43.43,0,0,0,142.16,31.72Z"/><path class="cls-4" d="M144.23,33.7l.15.45A1.29,1.29,0,0,0,144.23,33.7Z"/><path class="cls-4" d="M145.67,35.41a2.92,2.92,0,0,0,.23-.19h0Z"/><path class="cls-4" d="M116.82,16.45a.11.11,0,0,0-.08,0C116.5,16.48,116.65,16.49,116.82,16.45Z"/><path class="cls-4" d="M126.64,19.91a2.18,2.18,0,0,1-.46.11C126.31,20.15,126.42,20.25,126.64,19.91Z"/><path class="cls-4" d="M106.14,13.47h-.06Z"/><path class="cls-4" d="M125.77,19.76a.4.4,0,0,0,.41.26C126.08,19.9,126,19.75,125.77,19.76Z"/><path class="cls-4" d="M152.51,42.1l.06.09a.28.28,0,0,1,.09-.07Z"/><path class="cls-4" d="M152.66,42.12l.14,0A.1.1,0,0,0,152.66,42.12Z"/><path class="cls-4" d="M153.1,42.19l-.3,0A.2.2,0,0,0,153.1,42.19Z"/><path class="cls-4" d="M150.59,39.87l-.19.16A1.06,1.06,0,0,0,150.59,39.87Z"/><path class="cls-4" d="M149.89,39.32c.12.18,0,.75.35.84l.16-.13C150,40.21,150.33,39.14,149.89,39.32Z"/><path class="cls-4" d="M149.22,34.53l.42.65c.08-.29.2-.67.49-.49C150,33.47,149.88,35.26,149.22,34.53Z"/><path class="cls-4" d="M147.74,32.68c.38.18.25-.29.36-.39C147.75,32.3,147.66,32.31,147.74,32.68Z"/><path class="cls-4" d="M134.55,22.07l.4-.49C134.64,21.47,134.81,21.78,134.55,22.07Z"/><polygon class="cls-4" points="130.07 22.9 130.1 23.38 130.54 22.99 130.07 22.9"/><polygon class="cls-4" points="130.96 18.11 131.13 18.11 130.56 18.02 130.96 18.11"/><path class="cls-4" d="M104.07,6.94v.78C104.3,7.61,104.47,6.75,104.07,6.94Z"/><path class="cls-4" d="M91.21,8.48c-.23-.34-.66-.5-.77-.07C90.73,8.38,91.09,8.62,91.21,8.48Z"/><polygon class="cls-4" points="60.22 29.3 60.18 28.94 60.04 29.44 60.22 29.3"/></svg>