<svg id="Capa_1" data-name="Capa 1" xmlns="http://www.w3.org/2000/svg" viewBox="0 0 670.78 87.63"><defs><style>.cls-1{fill:#60c0be;}</style></defs><path class="cls-1" d="M151.44,13.54c-.22-.13-.31.13,0,0Z"/><path class="cls-1" d="M316.09,5.73c.07,0,.1,0,.16,0,.12-.76.22-1.43.33-1.93Z"/><path class="cls-1" d="M342.62,10.44l.16.21C342.77,10.19,342.8,9.73,342.62,10.44Z"/><path class="cls-1" d="M255.11,13.3c-.24,0-.36.13-.45.38A1,1,0,0,1,255.11,13.3Z"/><path class="cls-1" d="M103.09,18.87l.11-.07a4.6,4.6,0,0,1-.3-.46Z"/><path class="cls-1" d="M103.57,17.54c.6.55-.12,1.09-.37,1.26.69,1,1.34,1.08,2,.58C105.12,18.2,103.89,18.41,103.57,17.54Z"/><path class="cls-1" d="M15.35,25.12l.24-.48A1.44,1.44,0,0,0,15.35,25.12Z"/><path class="cls-1" d="M258.63,71.17c-.13.11-.27.17-.39.29C258.45,71.49,258.56,71.36,258.63,71.17Z"/><path class="cls-1" d="M29.28,25.76l0-1.87A9.41,9.41,0,0,0,29.28,25.76Z"/><path class="cls-1" d="M316.58,3.78l.18-.73A6,6,0,0,0,316.58,3.78Z"/><path class="cls-1" d="M367.1,11.68a9,9,0,0,0,.12,1.42l.07,0Z"/><path class="cls-1" d="M489.72,42.6a6.25,6.25,0,0,0-.05-.73l-.52,1.32A1.07,1.07,0,0,0,489.72,42.6Z"/><path class="cls-1" d="M400.6,19.93c0-.22.11-.42.12-.65-.57-.63-2.08-.78-4-.72l-.13,2.3Z"/><path class="cls-1" d="M436.42,73.79,433,69.14c11.41-2,16.63,2.69,26.43-.92l-.56,1c1.39,1.09,2.42-9.29,17.79,3.61v.46c.55-.07.56-1,1.62.26l-2.64-2.88c1.65-1.13,3.11-3.32,5.28-3.59a3.86,3.86,0,0,1,.61,2.21l5.32-.69,1.55,3c1.66-1.59,1.08-7.9,5.33-4.32-1.52-4.39,2.22-2.58,1.74-4.82.21.55.68,1.36,1.06,2.12,2.59-.46,7.49-1.61,8.75-3.83,0,0-9.85-9.37-12.46-14.09,3.62,1.24,1-.52.3-2l-.27,1.08c-2.16-1.1-2.09-3.86-3.16-4.65a7.23,7.23,0,0,0,0,.77l.15-.37a1.79,1.79,0,0,1-.1,1.1c0,.59-.1,1.06-.69.88l.12-.29a5.56,5.56,0,0,1-3.17-.28l0-2.3c-1.72,4.36-10.72-6.89-12.9-7.06-2.13-2.93-4.92.66-7.62-.83-4.34-.8-2.11-3.39-4.25-5.41-2.71-1.48.49,2.69-.6,2.83l-3.21-3.24c1.9-.26.9-1.66.57-2.55-2.82-.43-7.21-4.72-8.17-.13-3.78-2.25-3.76-4.1-5.39-4.35.54.85,1.61,1.63,1.6,2.56-1.49-2.05-.74.49-.12.95-2.36,2-12-8.51-12.55-3.46V19c-.59,3.76.22,7.42-1.44,9.48l-1.06-1.69-1.66,1.6a2.72,2.72,0,0,1-.52-2.69c-2.69,1.72-6.38-.39-9.61-.93l3.29,10.29c-2.69-2.39-7.54-7.25-8.13-3.95l-1.59-3.47c-5.39-6.61-3.85,2.84-6,.84L404,24.71l2.73.08a29.09,29.09,0,0,1-5.95-5.61s0,.06,0,.1a.91.91,0,0,1,.26.56l-.38.09a3.47,3.47,0,0,1-3.71,3c-2.73-.54-4.89,2.21-9.22-1.79L386.55,25l-3.26-2.3,0-3.06c3.21.2,9.26-.92,13.39-1.06l.09-1.39c-2.45,0-5.25,1.33-6.86,1-.79-.61-2.78-3.8-1.3-5.85l-1.54,3c-8.18.29-8.23.45-16.75-3l.73,1.54c-1.69.89-3.39,1.77-3.85-.72-5.12-.51-10.43-2.45-13.76-6.32l-.73,3.59c-1.08-.2-2.71-5.64-3.23-.6l-2.32,1.59c-1.48-.27-2.38,1.79-4.07-.28h0c-.1-.12-.21-.26-.32-.42a2.83,2.83,0,0,0,0,.3c-3.35-1.59,0,3.23-3.8,1.16-1.24-2.56-1.35,4.57-3.22,3.76l-1.89-5.16c-3.4-3-4,2.22-8.87,2.24-2.36-1.83-3.52-6.24-2-10.15-2.12,4.74-1,3.09-3.8,5.36-.45-1.94-.14-2.36.48-4.11-2.55-2.27-1.56,1.77-3.47,1.66-.53,3.67-1.13,9.51-1.75,9.75l.74,1.14c-2,2-4.2,2.9-6.55,1.07l.07-1.85-2.49.95-.17-2.36-3.56.76.49.63c-.83.31-3.57,1.14-5.15-.08l0-1.31c-4.47-4.06-8.07,1.3-13.26,1.78l.66-2.68c-1.8-2.65-.44,4.12-2.56,2.81L282.61,13c-1.8,4.34-2.41-.89-3.71-2.51l.65,4.29-2.42-.88c-2.67-1.4-1.69-5.42-1.33-7.68L274,9.66l-.4-3.8c-1.26,4.43-1.33-.7-3.61,1.69-.22-1.43.36-2.26-.44-2.87l-3.74,5.4,2.27-2.4-.2,5.56c-2.34,4.23-3.26-.58-4.94,1l1.15-1.66c-2.77,1.38-3-1-4.55-2.2.5,1,1.27,2.55.15,3.29-.82.31-.48-2-1.27-2.55-.13,3.7-2.1,5.67-3.94,4a5.25,5.25,0,0,1,.15-1.37c-.45.6-.67,1.56-1.5.68l.41-4.12-1.49,3.94c-1.05-1.11-2.51,1.89-2.42-.89l.57-.83-7.86-.89-.17-3.29c-.69,4.53-4.3-1.67-3.94,4-1.54-3.06-5.78,2.25-5-4.13-5.17-.42-7.82,5.73-14.15,2.74-2.35-5.38-8.44-3.52-12.47-4-7.81,2.39-12.84,4.49-20.82,6.4-5.05-7.45-12,2.84-17.29-1.32l-1.33,3c-3.61-4.7-8.69,1.25-13.7-3.28a7,7,0,0,1-2,1.88c.22.14.58.7.75,2.6-1.43-1.3-4.17.44-4.11-3.37l.34-.4c.07-3.8-4.13,1.88-5.8-1.38l1,4.06L141,14.42l.67-.8c-11,9.3-16.68-3.47-27,5.08,1.23-4.48-2,2.39-2.35-2.46-3-6-4.94,1.46-7.08,3.14a2.66,2.66,0,0,1-.11.9l-3.89-.48c2-6.2-2.56,5.17-.67-.11-10.27-4.28-23.2.8-34.95-.94l.59,1.56c-3-.2-6.55,1.84-8.92-.6s-4.7,4.18-5.55,4.46c-2.32,2.8-4.84-2.53-3.77-2.29-2.59.85-4.75,6.54-8.53,4.26-1.53-5.17-9.65,5.48-10.09-.38v.5c-4.9-4-8.9,3.24-14.14-.3a5,5,0,0,1,.22-.84L6.2,43.3l4.08,19.45L20,78.31,43.63,74,63,79.52Q86,77.68,109.1,76l3.11-4.51c9.41,7.48,20.71-1.75,30.72,3.55l.07-3.81c2.75-.29,2.65,2.07,3.35,2.72,25.64-1.48,52-7,75.22-2.59,2.29,2.47,9,.91,10.84,3.55,7.41-4.75,15.37-4.81,22.9-4.42l-.28.42,3.53-.77a1.48,1.48,0,0,1,.07,1c3.94-3.4,10.29-.12,15.2,1.2l-.28.42c28.52.43,55-6.76,83.32-1.43,13.13,6.23,28.48-2.31,43.54,3C403.14,78.1,433.68,75.54,436.42,73.79Z"/><path class="cls-1" d="M481.47,69.29h-.12C481.32,70.9,481.51,70.3,481.47,69.29Z"/><path class="cls-1" d="M418.9,24.72l.2,0-.72-2.27Z"/><path class="cls-1" d="M459.68,23.84c-1.82-.53-1.92-.14-1.67.51A1.71,1.71,0,0,0,459.68,23.84Z"/><path class="cls-1" d="M496.39,66.48c.95.15.62-.81.08-1.89-1,.18-1.66.26-1.66.26C495.34,65.24,495.85,66.09,496.39,66.48Z"/><path class="cls-1" d="M493.06,44.67l.33-1.3C492.82,43.68,492.83,44.15,493.06,44.67Z"/></svg>