<svg id="Capa_1" data-name="Capa 1" xmlns="http://www.w3.org/2000/svg" viewBox="0 0 97.16 98.32"><defs><style>.cls-1{fill:#ed6c6f;}</style></defs><path class="cls-1" d="M61.16,85.53A142.55,142.55,0,0,1,32.75,75c-8.28-4.1-19.89-10-24.08-18.27C6.39,52.24-.39,33.81,13.6,32c8.74-1.1,15.92,7,22.21,13.16a33.14,33.14,0,0,1,2.47-14.92c1.69-4,4.42-7.93,8.48-9.53,4.93-1.95,10.77,0,14.56,3.73s5.85,8.83,7.19,14a68.52,68.52,0,0,1-5.67,49"/><path class="cls-1" d="M62.26,87.13c0,.14.22.18.33-.14l-.19-.36Z"/><path class="cls-1" d="M63.79,85.42c0-.42,0-.93-.41-.84.12.48,0,.5.11,1-.11.31-.35.47-.44.36,0,.14-.29.43-.18.68a1.74,1.74,0,0,0,.73-1.35C63.72,85.23,63.75,85.37,63.79,85.42Z"/><path class="cls-1" d="M71.15,54.1l0,.21A1.12,1.12,0,0,0,71.15,54.1Z"/><path class="cls-1" d="M67.89,34.21c.06.14.12.19.15.19S67.91,34.16,67.89,34.21Z"/><path class="cls-1" d="M66.9,30.82,67,31A.3.3,0,0,0,66.9,30.82Z"/><path class="cls-1" d="M71.15,54.1c0-.18,0-.36.08-.54S71.17,53.84,71.15,54.1Z"/><path class="cls-1" d="M64.88,81.05a1.09,1.09,0,0,0,0,.3l.07-.26Z"/><path class="cls-1" d="M71,63l0,.16a1.58,1.58,0,0,0,.12.15Z"/><path class="cls-1" d="M70,69.8c0-.15-.23-.26-.34-.34a.51.51,0,0,1,.13.37A.34.34,0,0,0,70,69.8Z"/><path class="cls-1" d="M66.48,80.06l0,.19S66.47,80.12,66.48,80.06Z"/><path class="cls-1" d="M71.43,58.12a.23.23,0,0,0,.1,0S71.46,58.09,71.43,58.12Z"/><path class="cls-1" d="M54,82.13l0,.05C54,82.16,54,82.15,54,82.13Z"/><path class="cls-1" d="M61.15,85.6H61a.91.91,0,0,0-.07.14Z"/><path class="cls-1" d="M63.73,25.07l0,0C63.88,25.22,63.82,25.14,63.73,25.07Z"/><path class="cls-1" d="M28.33,36.53c.35.62-1-.44-.44.41C27.88,36.8,28.87,37.18,28.33,36.53Z"/><path class="cls-1" d="M65,80.91l.1-.26A1.87,1.87,0,0,0,65,80.91Z"/><path class="cls-1" d="M27.89,36.94h0L28,37Z"/><path class="cls-1" d="M50,18.82a.36.36,0,0,0,.17.11S50.13,18.87,50,18.82Z"/><path class="cls-1" d="M60.56,22.75l-.2-.21A2.08,2.08,0,0,0,60.56,22.75Z"/><path class="cls-1" d="M44.41,21.06c-.14.07-.22.05-.37.21h.08C44.15,21.18,44.23,21.12,44.41,21.06Z"/><path class="cls-1" d="M40.07,25.33l.11-.06.1-.16Z"/><path class="cls-1" d="M37.59,76a1,1,0,0,1,.14.34C37.73,76.14,38.53,76.42,37.59,76Z"/><path class="cls-1" d="M65,81.11a.24.24,0,0,1,0-.2l0,.18S65,81.14,65,81.11Z"/><path class="cls-1" d="M45.42,23l-.69.45C44.93,23.37,45.18,23.21,45.42,23Z"/><path class="cls-1" d="M7.53,50.65l.09.19A.31.31,0,0,0,7.53,50.65Z"/><path class="cls-1" d="M43,25.22a1.19,1.19,0,0,0-.46.24.25.25,0,0,0,0,.12C42.65,25.45,42.81,25.34,43,25.22Z"/><path class="cls-1" d="M37.73,76.36h0Z"/><path class="cls-1" d="M43.53,78.11c-.8-.33-.51.18-.76.31-1-.3-.35-.43-.6-.74a13.65,13.65,0,0,1-1.67-.25c0-.07-.09-.12,0-.15-.75,0-1.88-.8-2.76-.79a.24.24,0,0,1-.05-.13.67.67,0,0,1-.1.51c-.36-.16-.76-.09-.8-.37.22.11.28,0,.41,0l-.42-.07c-.19-.47.57.12.67-.11a9.39,9.39,0,0,1-2.26-.72c0-.36,1.35.51.74-.11l.8.52c-.43-.79.51.27.15-.52-1.09-.62-1.34-.43-2.42-1.07-.33,0,0,.3-.37.34-1.75-.47-.88-1.38-2.25-1.55-.4.05-.71.37-1.44-.25l.46-.2c-1.07-.58-.87.18-1.88-.63.27,0,.9.32.76.2-.59-.65-.62-.08-1.18-.37l0-.36c-1.16-.54-2.52-1-3.8-1.65.12,0,.39,0,.15-.27a20.87,20.87,0,0,1-4.59-3.09l-.7-.12c-.13-.09-.16-.27,0-.22-.48-.48-.14.13-.46,0s-.32-.43-.07-.36a9.81,9.81,0,0,1-3.76-2.62l.24.09c-.66-.69-1.2-.27-1.68-1.08l.16.08c-1.43-1.5-3.12-3.11-3.59-4.66-.51,0-.83-1.8-1.39-1.67a17.49,17.49,0,0,0-.44-2.55c-.14-.42-.58-.49-.83-1l.29-.12-.55-.6.22-.5-.23-.47c0,.2,0,.46-.09.46a2.81,2.81,0,0,1-.2-2c-.25-.59-.48-1.19-.69-1.79.13,0,.24.32.37.55-.52-.93.27-.25-.19-1.1-.05.14-.19,0-.26,0a8.18,8.18,0,0,0-.22-2.28l.23.13a20.45,20.45,0,0,1-.09-4.37c-.17.51-.53.36-.49-.1l.35-.12c-.16-.32-.2.44-.35-.19.13-.56.42-.3.48,0a5.3,5.3,0,0,1,0-.69c.11,0,.12.15.23.22-.06-.15.07-.42.21-.68a.9.9,0,0,0,.19-.77h.11a7.25,7.25,0,0,1,1.59-2.61c-.17-.22.19-.48.34-.86a12.88,12.88,0,0,1,2.72-1c.68-.33.15-.29.44-.54.1.2,1.18,0,.65.29l.82-.17.68-.07.75-.12,1-.06c-.18-.12-.38-.17-.27-.26.32,0,.69.15.63.27l-.08,0a4.55,4.55,0,0,1,1.48.2,13.31,13.31,0,0,1,1.45.64c.45.26.89.53,1.31.72A3.42,3.42,0,0,0,22,35l-.09,0c.52.14,1,.37,1.52.55.61.41-.48-.06-.1.35,1.68.58,2.21,1.59,3.49,2.27.39,1.25,3,2.57,3.8,4l.06-.19c.4.15.27.4.45.64.07-.13-.19-.42.05-.32.34.29.67.6,1,.91l1.62,1.62,3.48,3.61c0-1.54,0-3.08,0-4.62,0-.42,0-.81,0-1.2l.07-1.17c.05-.39.09-.8.15-1.18.16-1.19-.86-.79-.22-2.26l.26.48c0-2.5,1-4.9,1.6-7.25,0,.17.11.2,0,.42.4-.39.72-1.72.56-1.81.18-.32.2,0,.38-.16.34-.39.3-1.27.64-1.39.06,0,0,.16,0,.25.05-.35.79-1.28.4-1.16.58-.68.84-1.48,1.42-1.92.05-.56,1.1-1,.9-1.41.27.36,1.34-.74,1.69-1.19-.07.21.47-.14.4.13.49-.33,1-.64.75-.8a3.46,3.46,0,0,0,1.52-.56c.44-.25.88-.4,1.25-.13a10.21,10.21,0,0,1,5.17-.22c-.1.21-.55.11-1,0s-.87-.12-.86.12a8.1,8.1,0,0,1,4,.71c.35.23-.3.08-.45.1a18,18,0,0,1,3.94,2.21s-.18,0-.31-.1c.23.16.46.46.56.29-.08,0-.15-.1-.24-.14-.15-.53,1.27.29,1.41.25-.76.06.92,1.16-.17,1.1.16.1.38.22.46.1.16.24.15.35-.15.25.76.69.68.29,1.26,1-.07.06-.22-.07-.38-.07a2.7,2.7,0,0,1,1.26,1.24c-.07,0-.09.12-.22-.08.77,1.11,1.68,1.74,2.17,3.21-.58-.22.09.53-.22.75l.42.71,0-.37a8.51,8.51,0,0,1,.86,1.78l-.33-.45c.17.41.36.82.52,1.24l-.12-.77c.43.63.43-.23.64.72-.1-.17.23.69.13,1.12h0A2.39,2.39,0,0,1,68,37.42c-.08.17-.43,0-.48.12.4.25.52,1.61.94,2-.11-.13-.31-.09-.33,0l.31.23c0,.35,0,.4-.19.39.19,1,.38-.42.46.79,0-.08-.06,0-.15-.21.2,1.19.62,2.25.72,3.36-.31.39-.27-.93-.52-.51.21.77.42,1.58.63,2.37a10.66,10.66,0,0,1,.43,2.38l0-.3c.55.16-.16,1.18.16,1.93,0-.18-.31-.22-.25-.17a35.49,35.49,0,0,0,.52,3.74l-.15-.19c-.07.63,0,1.64-.1,2.32.14.2.12.58.32.35a6.71,6.71,0,0,0-.25,3,5.25,5.25,0,0,1-.27,2.81c0-.22-.07-.53-.09-.36l0,1.58c.24-.1.16-.19.37-.51a2,2,0,0,1,.14,1.06c-.08-.72-.36,0-.54.25.08,0,.14.08.22.06-.52.76.44.19,0,1.28L69.76,65a5.48,5.48,0,0,1,0,1.28c-.29.15-.06-.46-.27-.52-.06.63.3,1.32-.07,1.85,0-.28,0-.67,0-1A2.23,2.23,0,0,0,69,67.8l0,0-.34,1,.13-.25c.56.92-.19,1.61,0,2.76-.19-1.12-.21-.23-.48-.37-.15.24-.33.62-.39.49.12.55-.36.78-.21,1.55-.1,0-.16.52-.36.34-.11.65.2-.1.31,0,0,1.07-1,2.19-1.06,3.69-.22,1.26,0,1.6-.24,2.75-.29.31-.22-.43-.22-.43a4,4,0,0,0-.62,1.6c0-.14-.15-.05-.32.08-.15.46.23.44-.16,1a1.86,1.86,0,0,1-.18-.6c-.13.56-.2,1.14-.35,1.71-.22.08-.1-.42-.11-.66-.2.64-.55,1.63-.39,1.93l.26-.35c-.09.22-.26,0-.23-.17,0-.6.41-.71.51-.7l-.11.41c.69-.16.62-1.57.95-2.34l.25.48v-.93c.16-.14.43-.17.33.24.41-.49.06-.55.46-1,.06,0,.07,0,.06,0l.1-.6c0,.14.31,0,.12.33.63-.92.29-1.73.72-2v.09c.33-1.45-.25-.23-.24-1.4l1-.48-.25-.23c0-.14.15-.43.26-.34-.05-.61-.16,0-.26-.32.47-.63.43-2,.94-2-.15-.31-.36.63-.3-.16.57-.09.12-.91.51-1.51.21.27-.07.86.32.26-.36-.51.39-1.26.44-1.84-.35-.1.08-1.25.13-2.21.06,0,.19-.39.34-1s.28-1.22.4-1.66l.06,0c-.35-.23-.13-1.12-.14-1.79.21.05.3.18.34.55,0-.21,0-.42.07-.63a1.37,1.37,0,0,1-.15-.77l.26.18a14.82,14.82,0,0,1,.09-2.77c-.25-.07-.75.81-.87-.33.14,0,.38-.06.42.24a1.19,1.19,0,0,1,0-.55l.21.47c.13-.49-.18-.27-.14-.66.2,0,.16-.28.31-.22s-.1.34,0,.49a2.78,2.78,0,0,1,.36-1.14c-.12,0-.27,0-.28-.33,0-.84.26-.28.37-.77-.14-.2,0-.74-.29-.75,0-.25.14-.29.22-.39-.13-.43,0-2-.35-1.53l0,.11v-.07h0c-.34-1.4.08-3-.18-4.35H71a15.63,15.63,0,0,0-.5-2.43c0-.25.1-.6.23-.51a3.53,3.53,0,0,1-.25-1.63c.26.62.12-.24.21.64a3.27,3.27,0,0,0-.3-1.9c.31.26.2-.67.05-1.05l-.07.61a8.29,8.29,0,0,1-.22-1.22l.37.15c.11-1.79-1.34-2.88-1-4.31-.33-.38.06,1-.3.62a14.82,14.82,0,0,1,0-1.94c-.13-1.1-.75-.84-1-2-.06.17-.32.4-.69-.36-.22-.76.13-1.08.4-.64.07.17.07.27,0,.28.12.22.28.53.3.19l-.15-.06c0-.41-.4-1.44-.13-1.27-.33-.52-.27-.17-.18.27A17.62,17.62,0,0,0,67,31c0,.18,0,.38-.12.23-.52-1.47-.5-.52-1-1.43-.12-.61.49,0-.16-.87-.21-.63.21-.28.42-.1A8.5,8.5,0,0,1,65,26.7l.37.38a4.71,4.71,0,0,1-.51-.66l0,.38c-.15-.27-.3-.48-.22-.53-.31-.17-.18.42-.71.05-.15-.39-.85-.88-.71-1.18.73,1.05.16-.32.88.5a2.7,2.7,0,0,1-.48-.61c0-.06.08,0,.14,0-.61-1.12-.62-.21-1.5-1.13.24,0,0-.45-.16-.57.39.37,0,.38-.46.16-.51-.66-.74-.5-1-.78l.33.35c-.24,0-.52-.25-1-.53,0-.14.46.22.34.06-.68-.12-1-1.1-1.85-1.35-.3-.3.13-.31-.15-.56a2.39,2.39,0,0,1-.94-.48,1.93,1.93,0,0,0-1-.47c.21.34.27.3-.5.25.55.15,1.11.31,1.65.51a11.31,11.31,0,0,0-1.14-.12,12.24,12.24,0,0,1,1.3.46c-.55,0-.47-.07-.34.21-.48-.63-1.32-.37-2-.84l.21-.56c-1.12-.63-2.2-.32-3.78-.59l.51.15c-.23.2-1,0-1.51.06.05-.2-.28-.27-.51-.37,0,.07-.29.09-.6.14s-.65.18-.69.38a6.63,6.63,0,0,0-.76-.11,2.16,2.16,0,0,0-1.28.61,3.74,3.74,0,0,1-1.12.76c.24-.36-.34-.25.37-.73-.39.16-.75.3-.69.43-.29,0-.88.79-1.29.85-.1.17,0,.38-.41.63-.06,0-.05-.08-.05-.08s-.48.55,0,.47a3.9,3.9,0,0,0-1.89,1.39,7.45,7.45,0,0,1-1.56,1.6c-.46.76-1,1.7-1.32,2.4,0-.07-.09,0,0-.17-.67.89.18.85-.53,1.87-.55.45.12-.67-.15-.36-.68-.11-.54,1.41-1.18,2l0-.2c-.43.53-.32,1.55-.65,2.54,0,0,0-.07-.09,0a16.53,16.53,0,0,1-.22,3.1c-.18-.35,0-.47-.33-.34,0,.45.42,0,.33.84-.19.26-.42.87-.7.92,0-.28.08-.56.13-.84-.44.37-.17,1.09-.29,1.52l-.15-.08c-.1,1.31.28,1.37.16,2.74l.13-.14c.35.79-.24.43,0,1.13A1.32,1.32,0,0,1,35,42c0,.19.12.51.21.87s.19.93.26,1.39l0,.14s0,0-.06,0a.22.22,0,0,1,0-.08l-.06-.23c-.25-.91-.39-1.59-.54-2a4.64,4.64,0,0,0,.26,1.35c-.05-.21-.15-.53-.1-.51a6.55,6.55,0,0,1,.27.92c0,.06.07.21,0,.19h-.06a.63.63,0,0,1-.17-.08,3.07,3.07,0,0,1-.49-.42A2.36,2.36,0,0,0,34,42.28a3.91,3.91,0,0,1-.4-.48,1.66,1.66,0,0,1-.4-.78c-1.44-1-2.39-2.49-4-3.8.16.93-.46-.38-.76.18-.39-.27-.53-.4-.53-.45-.29-.41-.59-.8-.91-1.19-.16-.35.45.17.5,0-.81-.68-.2-.47-.66-1,0,.26-.47,0-.94-.38.18.24.37.47.54.72-1.41-.56-.74-1.19-2.22-1.7l.51.08c-.7-.32-2.53-1.45-3.46-1.25-.1-.12-.21-.34.13-.25a9.81,9.81,0,0,0-2.91-.75c-.5,0-1-.09-1.44-.16a7.43,7.43,0,0,1-1.24-.17l.15-.14c-.36,0-.62.22-1.07.11,0-.06.14-.16,0-.16a3.94,3.94,0,0,1-1.41.27l.39-.2a4.38,4.38,0,0,0-1.26.16,4.09,4.09,0,0,0-1,.4c-.63.29-1.18.69-1.86,1-.09-.2-.49-.16-1,0a6.43,6.43,0,0,0-1.31.68l0-.06a6.41,6.41,0,0,0-1.93,2.47,13.88,13.88,0,0,0-.82,2.77A6,6,0,0,0,3.87,41c-.12,1.15-.1,2.37-.15,3.35.07-.3.34,0,.42.36s.45,1.2,0,1.18v-.16c-.35.39-.1,1.31,0,2l.54,0A6.42,6.42,0,0,0,5.31,51,5.84,5.84,0,0,1,6,53.55c.27.38.47.9.76,1.27l-.27.08a12.42,12.42,0,0,0,1.46,3.19l-.34-.19c.46.81,1.25.61,1.74,1.25l-.21.44a11.09,11.09,0,0,0,3,3.54c-.06,0-.18.08-.37-.09.48.55,1.86,2.14,2,1.54-.23.29,1.18,1.06,1.93,1.42l-.28.14a3.26,3.26,0,0,1,1.67.58c.16.16,0,.3-.17.06.52.56.63.13,1.29.78l-.38,0a1.5,1.5,0,0,0,1.1.42c.46.17,1.19.86,1.15,1.14a1.18,1.18,0,0,1,1,.28c0,.11-.17.08-.25.06,1,.85,1.81.73,2.44,1.41a.22.22,0,0,0,.05.22,13.05,13.05,0,0,1-1.52-1c-.13.22.56.7-.19.66a7.61,7.61,0,0,1,2.52.89.29.29,0,0,1,.05.13H24.1a1.27,1.27,0,0,0,.46.21,4.65,4.65,0,0,0,.55.39c0,.24.79.56,1.15.77.1-.27.56,0,.22-.42.05.05-.08,0-.33-.12a.5.5,0,0,0-.17-.06h0c-.24-.12-.55-.28-.91-.48a1.49,1.49,0,0,1,1,.45c.28-.06.57-.11.73-.13.31.62,1.18,1.31,1.2,1.59,1.19.45,2.7,1.26,3.64,1.14.35.09.3.31.39.45a3,3,0,0,0-.56-.15c.69.2,1.93.89,2.24.64.74.54-.61.08.54.57l-.2,0c2,1.59,4,.82,6.17,2.57-.16-.11-.23-.17-.24-.24,2.71,1.52,6,2.1,8.69,3.6a2.24,2.24,0,0,0,1.51.19l.08.35,1,0c1.29.16,1.89,1.4,3.59,1.4l-.15-.25c.55.21,1.81.41,1.65.6a.36.36,0,0,1,.43,0l0,.15,1.45.13c1,.4-.33.56,1.23,1,.6.09,1.77,0,1.58-.17s-.58-.25-.55-.41l.55.06c.21-.43.73-.79-.48-1.44l-1,0-.23-.29.76.18a1.12,1.12,0,0,0-1-.16.58.58,0,0,0-.31-.35l-1,.19c-.06-.21.49-.24-.07-.5-.47.08.28.51-.43.44-.38-.33-.2-.46-.75-.43,0-.13.09-.18.3-.17-.49,0-1.2-.28-1.5-.12-.37-.38-1.52-.39-1.35-.8a3.34,3.34,0,0,1-1.29,0c.9-.26-1.52-.52-1.14-1-.7.27-2-.47-3.09-.57.07,0,.2,0,.27,0a4.55,4.55,0,0,1-.95-.64c-.2.35-1.08.13-1.61.18-.53-.61.56-.28.48-.7-.08.31-1.26-.14-1.13.2-.42-.41-.39-.28-.53-.68-.27.42-.5-.11-1,0-.64-.51,0-.5-.86-.68C42.76,78,43.53,78.11,43.53,78.11ZM24.79,70h0l.37.19Zm-1.48-.85.64.38c0,.12-.11.17-.25.08C23.81,69.63,23.49,69.38,23.31,69.18Zm2.23,3.5c-.27-.1-.32-.19-.33-.26l.44.2h.05A.46.46,0,0,1,25.54,72.68Z"/><path class="cls-1" d="M26.15,72.59l.11,0-.12-.13-.13,0Z"/><path class="cls-1" d="M71.1,54.35v0l0,.08A.07.07,0,0,1,71.1,54.35Z"/><polygon class="cls-1" points="8.24 52.39 8.18 52.41 8.28 52.53 8.24 52.39"/><path class="cls-1" d="M69.64,63.78a.5.5,0,0,0-.09.12S69.61,63.85,69.64,63.78Z"/><path class="cls-1" d="M69,67.8l-.2.55A4.38,4.38,0,0,0,69,67.8Z"/><path class="cls-1" d="M68.19,70.84a.39.39,0,0,0,.11.09h0Z"/><path class="cls-1" d="M59.55,24.35a.27.27,0,0,0-.1-.06C59.21,24.16,59.36,24.26,59.55,24.35Z"/><path class="cls-1" d="M67.45,36.25a3.62,3.62,0,0,1-.27-.41C67.24,36.09,67.29,36.29,67.45,36.25Z"/><polygon class="cls-1" points="45.5 23 45.5 22.99 45.42 23.04 45.5 23"/><path class="cls-1" d="M67,35.18a1.77,1.77,0,0,0,.21.66A2.67,2.67,0,0,0,67,35.18Z"/><path class="cls-1" d="M63.75,83.59l-.07.14s0,0,0,0Z"/><path class="cls-1" d="M63.71,83.76l0,.17C63.7,83.86,63.73,83.8,63.71,83.76Z"/><path class="cls-1" d="M63.59,84.28l.08-.35C63.62,84,63.55,84.17,63.59,84.28Z"/><path class="cls-1" d="M65.46,79.83l-.08-.08A.15.15,0,0,0,65.46,79.83Z"/><path class="cls-1" d="M65.88,78.65a4.37,4.37,0,0,0-.56,1l.06.06C65.31,79.52,65.94,79,65.88,78.65Z"/><path class="cls-1" d="M68.67,74l-.37,1c.16-.15.37-.35.26.13C69.24,73.91,68.25,75.32,68.67,74Z"/><path class="cls-1" d="M69.63,70.79c-.08.57.16,0,.21.07C69.83,70.48,69.82,70.39,69.63,70.79Z"/><path class="cls-1" d="M70.78,46.85l.26,0C71,46.43,70.94,46.88,70.78,46.85Z"/><polygon class="cls-1" points="68.75 42.55 68.67 43 68.94 43.16 68.75 42.55"/><polygon class="cls-1" points="69.95 39.52 70.03 39.71 69.77 39 69.95 39.52"/><path class="cls-1" d="M40.52,24.31l.33.09C41,24.12,40.77,23.84,40.52,24.31Z"/><path class="cls-1" d="M35.07,41.05a1.23,1.23,0,0,0-.19.35.28.28,0,0,0,0,.27,1.34,1.34,0,0,1,.09-.26A1.3,1.3,0,0,0,35.07,41.05Z"/><path class="cls-1" d="M4.54,48.69l-.18-.33c.07.21.15.43.23.64Z"/><path class="cls-1" d="M83.33,37.58c-3.52-2.94-7.11-6-9.46-9.91S68.72,17.41,72.7,14.53c2.87-1.19,7.26,2.49,9,4,1.22-4.08.5-5.31,3.29-6.9s5.07-.21,6.43,2.69a8.05,8.05,0,0,1,.31,4.52A42.65,42.65,0,0,1,81.68,40.72"/><path class="cls-1" d="M81.18,40.28c0,.09.2.2.25.08l-.19-.28Z"/><path class="cls-1" d="M82.17,40.06a.78.78,0,0,0-.44-.64c.16.31,0,.25.23.61,0,.12-.22.09-.3,0,0,.08-.17.09-.06.28.3,0,.43-.1.41-.4C82.09,39.92,82.13,40,82.17,40.06Z"/><path class="cls-1" d="M88.89,30.28l-.06,0A.1.1,0,0,0,88.89,30.28Z"/><path class="cls-1" d="M91.51,23.33a.07.07,0,0,0,0,.09C91.55,23.37,91.54,23.32,91.51,23.33Z"/><path class="cls-1" d="M92.16,22.17l0,.07S92.18,22.19,92.16,22.17Z"/><path class="cls-1" d="M88.89,30.28l.18-.14C89,30.08,89,30.2,88.89,30.28Z"/><path class="cls-1" d="M82.56,38.3a.34.34,0,0,0,0,.14l0-.1Z"/><path class="cls-1" d="M87.69,33.34l0,0,.09.11Z"/><path class="cls-1" d="M86.46,35.55s-.19-.21-.28-.29c.08.09.11.15.1.2A.74.74,0,0,0,86.46,35.55Z"/><path class="cls-1" d="M83.81,38.56v0Z"/><path class="cls-1" d="M88.57,31.76l.1,0A.2.2,0,0,0,88.57,31.76Z"/><path class="cls-1" d="M82,34.73l0,0S82,34.74,82,34.73Z"/><polygon class="cls-1" points="83.29 37.64 83.25 37.63 83.14 37.74 83.29 37.64"/><path class="cls-1" d="M93,19.92h0C93,20,93,20,93,19.92Z"/><path class="cls-1" d="M81.07,16.35c.2.27.16.67.39.92A4.38,4.38,0,0,0,81.07,16.35Z"/><path class="cls-1" d="M82.63,38.27l.06-.08A.33.33,0,0,0,82.63,38.27Z"/><path class="cls-1" d="M81.46,17.27h0Z"/><path class="cls-1" d="M92.62,14a.38.38,0,0,0-.08.11A.21.21,0,0,0,92.62,14Z"/><path class="cls-1" d="M92.6,18.47l.05-.1A.31.31,0,0,0,92.6,18.47Z"/><path class="cls-1" d="M91.12,12.23c0-.06,0-.1-.09-.14a.09.09,0,0,1,0,.05S91.11,12.15,91.12,12.23Z"/><path class="cls-1" d="M89.25,10.64a.64.64,0,0,1,0,.07l.08,0Z"/><path class="cls-1" d="M77.38,30.46a1,1,0,0,1-.12.23C77.39,30.54,77.64,30.71,77.38,30.46Z"/><path class="cls-1" d="M82.69,38.4c0-.06-.07-.09-.06-.13l0,.07Z"/><path class="cls-1" d="M89.33,13.55c0-.08-.09-.16-.14-.23A1.58,1.58,0,0,0,89.33,13.55Z"/><path class="cls-1" d="M72,17.73l0,.07S72,17.75,72,17.73Z"/><path class="cls-1" d="M88.63,12.85a.36.36,0,0,0,0-.23l-.06,0Z"/><path class="cls-1" d="M77.25,30.7h0Z"/><path class="cls-1" d="M79.21,31.8c-.21-.23-.36.15-.55.25-.34-.19.07-.31.12-.53-.24-.1-.6,0-.71-.13s0-.09.11-.12c-.39,0-.51-.52-1-.49l0-.08a1.51,1.51,0,0,1-.35.36c-.09-.1-.35,0-.2-.24,0,.07.13,0,.21,0l-.17,0c.17-.33.22.08.41-.1-.27-.13-.7-.21-.77-.44.23-.25.42.32.46-.1l.12.34c.24-.54.1.18.38-.37-.2-.4-.45-.26-.64-.67-.21,0-.2.2-.41.24-.66-.29.37-.9-.26-1-.25,0-.63.26-.63-.14l.37-.13c-.2-.37-.59.11-.63-.41.17,0,.3.21.3.13.09-.41-.3,0-.42-.23l.26-.23c-.28-.34-.75-.64-1.06-1.06.1,0,.24,0,.27-.16a3.26,3.26,0,0,1-.71-1.86l-.36-.08c0-.05.07-.15.15-.12,0-.26-.17.07-.33,0s.08-.23.2-.19c-.41-.27-1-.89-.84-1.42l.11,0c0-.36-.7-.15-.55-.55l.07,0c-.11-.73-.59-1.47-.24-2.09-.43,0,.07-.71-.51-.69.28-.43.36-.33.56-.85,0-.14-.36-.22-.41-.41l.31,0-.3-.27L72,18,72,17.8a.26.26,0,0,1-.24.08.36.36,0,0,1,.14-.38.46.46,0,0,1,.35-.12,2.39,2.39,0,0,1,0-.6c.11.07.09.15.15.26-.17-.39.31.09.17-.26-.08,0-.16-.1-.21-.13a.42.42,0,0,0,.27-.18,1.14,1.14,0,0,0,.18-.3l.14.16a.91.91,0,0,0,.18-.21l.2-.23c.15-.17.07-.18.17-.2-.09-.08-.23-.42-.12-.48l.12.3c0-.22-.15-.08,0-.37.18,0,.17.34.11.46l.16-.13a2.42,2.42,0,0,1,0,.27c0-.2.28.29.39,0v.1c.19,0,.35,0,.51,0a1.43,1.43,0,0,1,.49,0c.09-.26.22-.16.42-.34a4.52,4.52,0,0,0,.86.68c.31,0,.18-.18.37-.27-.1.24.26.4,0,.47a5.65,5.65,0,0,0,1.19.4c0-.13,0-.21,0-.26s.16.23.08.33h0c.84.09.75,1.4,2.06,1.79H80l.83.33c.36.36-.22.07.06.51a3.43,3.43,0,0,1,1.47,1.07,1.91,1.91,0,0,0,.17-.85c.33.22.52-.51.67-1.21a4.75,4.75,0,0,1,.57-1.85h-.18c-.12-.28.17-.29.24-.42-.13-.05-.21.21-.27,0A3.94,3.94,0,0,1,84,14.51a2.23,2.23,0,0,1,.89-.83c.26-.15-.47-.83.19-.77l.08.35a1.64,1.64,0,0,1,.89-.74A4.56,4.56,0,0,0,87,12.1c0,.08,0,.18-.07.19.16.2.44,0,.47-.22.09,0,0,.18.06.29s.35-.27.36,0c0,0,0,.07-.07.08s.32.13.35-.15c.15.2.47.08.54.34.3-.19.25.38.57.08-.31.32.08.57.35.6-.14,0,0,.2-.2.27.13.14.29.25.46.09-.23.59.8.46.29,1a2.74,2.74,0,0,1,1,1.45c-.44,0-.14-.61-.6-.49.27.43.69.74.57,1.31-.06.14-.19-.09-.27-.14.18.56-.1,1.09.07,1.65,0,0-.07-.07-.1-.13,0,.1-.1.23.1.25l0-.11c.32-.13.56.5.71.55-.55-.27-.24.52-.92.11a.27.27,0,0,0,.24.19c0,.1-.14.12-.27,0,0,.39.28.29.22.64-.1,0-.12-.1-.23-.15.16.21.33.42.18.69,0,0-.14,0-.12-.09-.07.5.34.95,0,1.46-.38-.25-.18.16-.56.1l0,.32.21-.08c-.07.26.14.55,0,.74l-.1-.23,0,.5.2-.24c.12.31.47.09.28.41,0-.08-.08.26-.33.33h0c.08.16.17.32,0,.49-.13,0-.39-.15-.48-.14.27.21-.07.62.19.87a.46.46,0,0,0-.29-.13L90,25c-.11.09-.16.09-.3,0-.16.34.49,0,.16.38,0,0,0,0-.06-.11-.24.39-.1.86-.36,1.2-.4,0,0-.36-.32-.33-.13.56,0,1.29-.26,1.78l.08-.09c.46.27-.4.3-.28.66,0-.08-.24-.2-.19-.16a3.88,3.88,0,0,0-.26,1.38l-.09-.12c-.21.16-.3.52-.47.71.1.13,0,.25.23.25-1,.35-.25,1.5-1.15,1.8,0-.08,0-.23,0-.17l-.15.56c.22.07.16,0,.37,0a.46.46,0,0,1,0,.45c0-.3-.33-.17-.5-.14.08,0,.13.09.19.12-.51.06.38.27-.06.49l-.1-.08c0,.16,0,.37-.06.49-.27-.07,0-.2-.22-.32-.1.21.21.66-.12.7,0-.12,0-.24,0-.37-.39,0-.33.11-.46.23h0l-.33.25.12,0c.45.61-.2.57,0,1.15-.16-.56-.18-.19-.42-.38-.12,0-.28.12-.33,0,.11.28-.33.15-.17.56-.09-.05-.12.15-.3,0-.07.24.17.05.26.14.07.49-.8.49-.75,1.18-.11.48.1.74,0,1.19-.21,0-.21-.31-.21-.31a.57.57,0,0,0-.39.49c0-.09-.13-.09-.25-.11-.09.16.21.31,0,.41a1.52,1.52,0,0,1-.2-.38c-.06.21,0,.49-.1.71-.17-.06-.13-.26-.17-.39-.08.24-.26.58-.11.81l.18-.06c-.05.08-.21-.11-.21-.19,0-.29.26-.18.35-.12l-.05.16c.54.23.31-.55.52-.77l.25.36-.07-.46c.12,0,.34.12.29.28.3-.05,0-.25.31-.26,0,0,0,0,0,.05l0-.25c0,.09.26.15.13.22.42-.18.12-.7.46-.63v0c.21-.53-.21-.22-.27-.76l.78.21-.22-.22s.12-.12.21,0c-.06-.29-.13,0-.23-.26.39-.07.31-.69.75-.47-.14-.21-.29.12-.27-.21.48.21.12-.32.45-.4.18.2-.06.33.27.25-.3-.38.34-.36.38-.59-.31-.2.11-.46.19-.82.09.08.5-.48.78-.7l0,0c-.29-.23-.05-.49,0-.74.19.11.25.19.27.36l.11-.21a.38.38,0,0,1-.07-.35l.22.18c.13-.28,0-.7.35-1-.22-.13-.78,0-.74-.49.13,0,.35.15.35.27,0,0,0-.17,0-.2l.14.25c.17-.12-.13-.17,0-.29.17.09.17,0,.3.05s-.13.08-.08.16a.6.6,0,0,1,.46-.24c-.11,0-.24-.12-.22-.24.13-.28.26,0,.43-.11-.09-.13.13-.24-.14-.37,0-.08.17,0,.26,0,0-.19.27-.7-.08-.66l0,0v0h0c-.07-.59.6-.92.67-1.45l.09,0c0-.33.19-.67.07-.95a.28.28,0,0,1,.34-.06c0-.24-.08-.31.19-.57.08.28.17,0,0,.27.19-.26.36-.27.22-.67.2.19.38-.12.35-.28l-.24.14a1.18,1.18,0,0,1,.16-.42l.29.18c.58-.49-.31-1.3.48-1.56-.18-.23-.26.28-.48.06.13-.26.66-.42.69-.51.29-.34-.37-.49-.13-.86a.39.39,0,0,1-.48-.34c.11-.26.57-.22.62,0s-.05.1-.09.08,0,.24.19.16l-.11-.07c.15-.11.23-.5.4-.36-.06-.25-.17-.14-.26,0,.25-.32.14-.56.34-.91-.08,0-.23.07-.21,0,.27-.52-.17-.29-.14-.68.22-.17.41.17.33-.24.17-.2.32,0,.4.13-.16-.39.28-.62.36-.81l.06.2a.51.51,0,0,1,0-.3l-.25.06c.06-.1.07-.19.17-.17-.14-.14-.4,0-.58-.25.14-.12-.05-.45.26-.45-.17.43.32,0,.31.39a.35.35,0,0,1,0-.27s.06,0,.08.06c.35-.39-.32-.26-.24-.7.16.08.35-.06.32-.13,0,.18-.3,0-.41-.15.17-.27-.06-.32,0-.47l-.08.16c-.17-.08-.13-.22-.16-.43.14,0,.07.19.14.13-.28-.26.38-.48.19-.83.13-.14.34,0,.42-.12-.21-.39.27-.41.07-.83-.24.13-.17.14-.42-.13.07.21.12.43.17.65l-.34-.42c0,.19.15.41.1.53-.18-.21-.13-.18-.33-.1.37-.25-.2-.5,0-.81l.59,0c.22-.52-.37-.83-.4-1.48,0,.08,0,.15,0,.23-.25,0-.13-.37-.3-.54.19,0,.22-.19.3-.33-.13.06-.19-.46-.57-.31l.11-.36c-.15-.49-.75-.21-1-.62.26,0,.26-.26.57-.08-.09-.13-.15-.27-.26-.2,0-.15-.47-.2-.42-.42-.11,0-.28.11-.38,0a.21.21,0,0,1,.08-.07c-.08.07-.29-.11-.35.15.08-.38-.18-.62-.46-.81s-.56-.34-.64-.67a6.3,6.3,0,0,0-1.13-.26c0-.06,0-.1.08-.06-.43-.28-.37.5-.82.25-.25-.32.27-.17.12-.29-.06-.66-.64.07-1-.23l.08,0c-.33-.18-.62.37-1,.48a.19.19,0,0,0,0-.1,3.51,3.51,0,0,1-.85,1c0-.28.08-.2-.11-.39-.13.12.25.33,0,.57-.17-.07-.44,0-.63-.23a2.34,2.34,0,0,1,.27-.2c-.34-.22-.35.26-.53.31l-.08-.14c-.4.39-.15.68-.55,1.07l.13,0c.12.48-.34.07-.28.5l-.38-.13c-.06.24,0,.83,0,1.17a1.79,1.79,0,0,1-.21-1.08c-.12.2-.29.7-.13.86,0-.09-.06-.22,0-.28a1.32,1.32,0,0,1,.16,1c-.74-.24-.4.9-1,1,.17.57-.22.47-.22.67.46.65,0,.09.43.9,0,.17,0,.2-.06.15a.84.84,0,0,1-.3-.38l0,0a.76.76,0,0,1-.07-.25.85.85,0,0,0,0-.21s0,0,0,0-.15-.45-.22-.68c.11.36.12.49.06.34,0,.15.09.3.15.48s-.1,0-.14-.24,0-.36-.09-.19a1.6,1.6,0,0,0,0-.23c0,.11,0,0-.38.33,0-.09,0-.26.18-.22-.5-.48-1.53-.45-1.81-1l.13-.1c-.14,0-.34.12-.4-.09,0,0,.12-.1.07-.14s-.42,0-.53-.11l.21-.07c-.5-.51-1.12-.14-1.67-.26.18-.4-.29-.75-.55-.91l0,0a3.74,3.74,0,0,0-2.4.18,1.12,1.12,0,0,0-.56-.17,1.59,1.59,0,0,0-.36,0l-.49.13c-.18,0-.29.18-.43.26l-.33.26-.59.42c.14,0,.24.24.18.38s-.08.6-.39.34l0-.05c-.44-.12-.55.33-.71.61l.45.28c-.54.19-.64.77-.68,1.24s0,.9-.32,1.09c.13.2.12.43.24.61h-.28a3.33,3.33,0,0,0,.07,1.39l-.22-.1c0,.36.88.32.94.61l-.39.17c.13.57-.08,1.26.47,1.69-.06,0-.19,0-.23-.05.06.27.08,1.1.59.8-.36.14.16.58.44.79l-.27.06c.42.1.52.07.74.36,0,.09-.17.15-.15,0,0,.32.33.09.34.46l-.22,0c.11.27.18.21.44.27a.48.48,0,0,1,0,.67c.15,0,.41,0,.42.19a.15.15,0,0,1-.19,0c0,.52.62.48.53.9a.34.34,0,0,0-.12.13,4,4,0,0,1-.28-.6c-.22.12-.11.42-.54.36.29.14.86.31.9.63a.25.25,0,0,1,0,.08l0,0a.18.18,0,0,0,.13.15.51.51,0,0,0,.06.25c-.17.14.08.37.16.51.23-.16.3,0,.4-.24,0,0,0,0-.11-.09s0,0-.06,0h0c-.06-.08-.13-.19-.21-.32.19,0,.35.08.31.31l.5-.06c-.22.39-.19.86-.35,1,.4.32.73.88,1.34.8.13.07,0,.21-.07.31s-.14-.11-.22-.1c.26.14.53.6.86.42.07.37-.39.06,0,.39l-.13,0c.15,1.09,1.66.51,1.79,1.74,0-.08,0-.12,0-.17.56,1.06,1.88,1.43,2.35,2.57.16.29.35.14.61.13l-.15.28.48,0c.52.12.13,1.1.89,1.12l.08-.2c.14.16.59.34.41.5,0,0,.19-.12.19,0l-.1.13.57.13c.24.35-.45.44,0,.84.21.1.78,0,.78-.08a.28.28,0,0,1,0-.35l.21.07c.32-.34.75-.61.58-1.17h-.45l.06-.25.23.18c0-.27-.19-.19-.36-.17a.34.34,0,0,0,0-.28l-.54.13c.09-.17.35-.18.24-.41-.25.06-.15.41-.43.35,0-.27.16-.37-.11-.35a.23.23,0,0,1,.23-.14c-.22,0-.38-.24-.61-.11,0-.31-.48-.32-.18-.64a.9.9,0,0,1-.58,0c.56-.21-.42-.4,0-.78-.48.22-.71-.34-1.16-.4,0,0,.13,0,.13,0-.12-.17-.07-.31-.11-.47-.28.27-.58.11-.88.17.08-.45.43-.23.62-.55-.2.24-.53-.07-.65.18,0-.31,0-.2.11-.5-.37.33-.19-.07-.51,0,0-.36.27-.37,0-.48C78.9,31.73,79.21,31.8,79.21,31.8Zm-5.07-5.16h0l.09.12Zm-.31-.54a1.34,1.34,0,0,0,.12.24c-.07.07-.17.1-.2,0S73.8,26.22,73.83,26.1Zm-1,2.14a.1.1,0,0,1,0-.17,1.14,1.14,0,0,0,.12.14h0A.43.43,0,0,1,72.8,28.24Z"/><path class="cls-1" d="M73.22,28.21l0,0s0-.06,0-.08h-.1Z"/><path class="cls-1" d="M88.82,30.34h0Z"/><polygon class="cls-1" points="72.01 18.3 71.94 18.3 72 18.35 72.01 18.3"/><path class="cls-1" d="M86.4,33a.11.11,0,0,0-.08,0Z"/><path class="cls-1" d="M85.61,34.28l-.19.12Z"/><path class="cls-1" d="M84.89,35.17l.09.08h0Z"/><path class="cls-1" d="M90.73,18.31a.09.09,0,0,0,0,0C90.68,18.16,90.69,18.23,90.73,18.31Z"/><path class="cls-1" d="M90.3,23.69c0-.07-.06-.14-.08-.2C90.18,23.58,90.15,23.65,90.3,23.69Z"/><polygon class="cls-1" points="89.34 13.57 89.34 13.57 89.33 13.54 89.34 13.57"/><path class="cls-1" d="M90.29,23.25a.23.23,0,0,0-.07.24A.34.34,0,0,0,90.29,23.25Z"/><path class="cls-1" d="M81.92,39.08l0,0,0,0Z"/><path class="cls-1" d="M81.91,39.15l0,.06S81.92,39.17,81.91,39.15Z"/><path class="cls-1" d="M81.86,39.36l0-.15S81.82,39.28,81.86,39.36Z"/><path class="cls-1" d="M83,38l-.07-.08A.23.23,0,0,0,83,38Z"/><path class="cls-1" d="M83.2,37.59c-.09.08-.34.1-.38.25l.06.06C82.8,37.76,83.27,37.78,83.2,37.59Z"/><path class="cls-1" d="M85.34,36.74l-.29.28c.13,0,.3,0,.22.17C85.82,37,85,37.14,85.34,36.74Z"/><path class="cls-1" d="M86.14,35.8c-.07.21.13.08.18.12C86.31,35.76,86.3,35.71,86.14,35.8Z"/><path class="cls-1" d="M90.08,27.88l.23.11C90.33,27.82,90.22,28,90.08,27.88Z"/><polygon class="cls-1" points="89.39 25.86 89.19 25.96 89.39 26.1 89.39 25.86"/><polygon class="cls-1" points="91.42 25.47 91.43 25.55 91.43 25.26 91.42 25.47"/><path class="cls-1" d="M89.78,10.65l-.12.3C89.8,11,90,10.7,89.78,10.65Z"/><path class="cls-1" d="M83,12.29c-.18,0-.4.08-.35.28C82.74,12.44,82.94,12.37,83,12.29Z"/><path class="cls-1" d="M69.94,16.1c0-.06,0-.12,0-.19,0,.11,0,.22,0,.32Z"/></svg>