<svg id="Capa_1" data-name="Capa 1" xmlns="http://www.w3.org/2000/svg" xmlns:xlink="http://www.w3.org/1999/xlink" viewBox="0 0 206.56 168.82"><defs><style>.cls-1{fill:none;}.cls-2{fill:#e4edf2;}.cls-3{fill:#536472;}.cls-4{fill:#ed6c6f;}.cls-5{clip-path:url(#clip-path);}</style><clipPath id="clip-path"><rect class="cls-1" x="-567.16" y="3683.52" width="1341" height="1296.03"/></clipPath></defs><path class="cls-2" d="M36.76,164.35c.13.08.42,0,.36-.19l-.5-.14Z"/><path class="cls-2" d="M37.64,162.86a1.07,1.07,0,0,0-1.13-.36c.49.24.29.31.86.57a.29.29,0,0,1-.33.35c.13.07-.1.34.21.45a.62.62,0,0,0,.06-1C37.42,162.77,37.55,162.84,37.64,162.86Z"/><path class="cls-2" d="M37.9,141.44l-.06.14A.35.35,0,0,0,37.9,141.44Z"/><path class="cls-2" d="M37.85,128.17c0,.1.06.14.11.15S37.89,128.15,37.85,128.17Z"/><path class="cls-2" d="M38.34,125.89l0,.14S38.38,125.92,38.34,125.89Z"/><path class="cls-2" d="M37.9,141.44l.15-.36C37.88,141.06,37.93,141.26,37.9,141.44Z"/><path class="cls-2" d="M36.37,159.93a.45.45,0,0,0,.14.19l-.06-.18Z"/><path class="cls-2" d="M38.44,147.27v.11l.2.09Z"/><path class="cls-2" d="M38.63,151.76c0-.1-.41-.13-.59-.16a.4.4,0,0,1,.29.21A1.33,1.33,0,0,0,38.63,151.76Z"/><path class="cls-2" d="M38.06,158.89l.06.12Z"/><path class="cls-2" d="M38.46,144.06l.15,0A.24.24,0,0,0,38.46,144.06Z"/><path class="cls-2" d="M32.25,18.67h.08S32.25,18.64,32.25,18.67Z"/><path class="cls-2" d="M34.21,13.42l0,.07h.23Z"/><path class="cls-2" d="M38.78,121.74s0,0,0,0S38.81,121.8,38.78,121.74Z"/><path class="cls-2" d="M37.55,83.71c-.37.44-.5-.69-.9,0C36.81,83.62,37.32,84.25,37.55,83.71Z"/><path class="cls-2" d="M36.43,159.82a.59.59,0,0,1,0-.19A.37.37,0,0,0,36.43,159.82Z"/><path class="cls-2" d="M36.65,83.68h0l0,.07A.16.16,0,0,1,36.65,83.68Z"/><path class="cls-2" d="M38.3,112.2a.57.57,0,0,0-.19.1S38.21,112.27,38.3,112.2Z"/><path class="cls-2" d="M37.87,119.32l.05-.17A.35.35,0,0,0,37.87,119.32Z"/><path class="cls-2" d="M37.61,108.52c0-.1.09-.13,0-.26l0,0C37.65,108.35,37.68,108.41,37.61,108.52Z"/><path class="cls-2" d="M37.52,104.68l-.09.07,0,.12Z"/><path class="cls-2" d="M32.74,30.35a1.09,1.09,0,0,1,.37-.19C32.81,30.23,32.69,29.66,32.74,30.35Z"/><path class="cls-2" d="M36.61,159.93c-.11,0-.16-.05-.18-.11a.5.5,0,0,0,0,.12A.28.28,0,0,0,36.61,159.93Z"/><path class="cls-2" d="M34.28,108.44l0-.61A2.9,2.9,0,0,0,34.28,108.44Z"/><path class="cls-2" d="M33.46,57.92l-.05-.14A.16.16,0,0,0,33.46,57.92Z"/><path class="cls-2" d="M34.23,106a1,1,0,0,0,.28-.35,1.05,1.05,0,0,0-.11-.07Z"/><path class="cls-2" d="M33.12,30.16h0Z"/><path class="cls-2" d="M32,26.16c0,.58.55.26.87.38.17.69-.4.33-.68.57.16.43.67.75.66,1.07-.09,0-.12.09-.24,0,.45.45.06,1.36.62,1.88a.27.27,0,0,1-.13.08,1.75,1.75,0,0,1,.75-.1c0,.26.37.47,0,.58,0-.16-.14-.17-.26-.24l.17.27c-.52.26-.19-.37-.58-.36.18.53.63,1.14.49,1.55-.51.1-.19-.95-.63-.4l.18-.63c-.79.5,0-.39-.81.08-.12.83.29.92.16,1.75.29.18.42-.07.7.11.54,1.17-1.25,1-.56,1.81.35.22,1,.29.67.91l-.58-.19c0,.8.84.44.47,1.29-.23-.14-.21-.63-.27-.51-.44.56.34.38.35.8l-.51.1c.1.86.49,1.79.61,2.74-.16,0-.32-.21-.47,0a8.38,8.38,0,0,1-.28,3.72l.45.43a.17.17,0,0,1-.28.08c-.15.46.28,0,.46.23a.22.22,0,0,1-.38.19c.39.78.86,2.24.41,3.09l-.14-.16c-.16.66.92.71.53,1.33l-.08-.12c-.16,1.42.28,3-.36,4.07.64.19-.25,1.41.64,1.48-.42.82-.58.59-.85,1.73,0,.31.56.44.66.81l-.46,0,.5.49-.55.29.13.35c0-.14.2-.31.33-.29a1.25,1.25,0,0,1-.52,1.37l.42,1.29c-.19,0-.25-.24-.38-.41.49.69-.48.14,0,.77.1-.09.27,0,.37.05a2,2,0,0,0-.13,1.58l-.32-.1c-.06,1,.2,2,.22,3.12a.4.4,0,0,1,.76,0l-.49.14c.31.19.18-.34.56.07-.05.41-.55.29-.72.06l.18.49c-.14,0-.22-.08-.41-.11.31.19-.47.86.07,1.14l-.15,0c0,1.08.2,1.57.25,2.45.42,0,.34.36.68.61a8.47,8.47,0,0,0-.37,2.16c.22.55.36.15.61.4-.38,0-.32.82-.61.43a9.71,9.71,0,0,0,.45,2.37c.15-.13.22-.28.35-.21.07.22-.15.5-.34.47l0-.06c.61,1.32-1,3.1-.22,4.14l0,0,.45,1.09c-.06.5-.3-.3-.53.08.67,1.17-.05,1.87.4,2.84-1.11.78.15,2.68-.55,3.72l.27-.07c.26.26-.15.33-.21.52.21,0,.24-.29.39-.13.37,2.23-.28,4.62-.47,6.92,0,.84,1.39.44.78,1.51l-.5-.29c.64,1.68.06,3.46.61,5.1-.12-.09-.27-.09-.27-.26-.35.36,0,1.3.31,1.3,0,.25-.27.06-.41.22-.21.36.48.87.13,1.07-.06,0-.12-.1-.15-.16.18.22,0,1.06.39.84-.18.62.21,1.18,0,1.68.47.31-.2,1.07.46,1.16-.68,0-.52,1.1-.19,1.48-.21-.12-.21.35-.49.2,0,.45.15.86.5.77-.79.85.69,1.65-.34,2.14a26.19,26.19,0,0,1,.86,3.74c-.67,0-.1-1.32-.8-1.26.3,1.13.9,1.77.76,2.9-.08.3-.29-.15-.41-.25.3,1.13,0,2.2.38,3.2-.06,0-.13-.11-.19-.21,0,.2-.09.46.22.43l-.09-.19c.44-.33,1,.77,1.19.8-.89-.32-.2,1-1.32.49a.41.41,0,0,0,.41.26c-.05.19-.17.26-.41.07.19.7.51.44.51,1.09-.14,0-.2-.13-.38-.19a1.26,1.26,0,0,1,.48,1.19c-.09,0-.2,0-.21-.13.07.94.82,1.58.56,2.62-.65-.29-.2.35-.76.42l.18.55.26-.23c0,.48.42.9.25,1.32l-.24-.35.13.9.2-.52c.3.49.71-.06.57.58-.06-.13,0,.49-.32.75h0a.82.82,0,0,1,.24.84c-.17.09-.62-.06-.73,0,.47.22.15,1.13.66,1.42a.59.59,0,0,0-.47-.06l.38.19c-.12.22-.17.26-.41.23-.05.67.71-.23.42.57,0-.06-.09,0-.15-.16-.14.81.28,1.55.11,2.3-.56.23-.15-.65-.62-.38.13,1.06.73,2.19.62,3.22l.06-.19c.79.12-.38.77,0,1.29-.06-.13-.45-.16-.36-.13a7,7,0,0,0,.51,2.51l-.21-.13a8.76,8.76,0,0,0-.16,1.55c.21.13.18.39.47.22-1.13,1.42.69,2.63-.25,3.89,0-.15-.18-.35-.18-.23l.21,1c.35-.09.21-.14.47-.37a.87.87,0,0,1,.38.68c-.24-.47-.55,0-.74.23.1,0,.22,0,.33,0-.6.56.7.07.3.83l-.18,0c.1.28.35.53.3.84-.4.13-.19-.3-.52-.31,0,.42.78.82.39,1.21-.12-.18-.13-.43-.24-.61-.46.43-.34.47-.41.79v0l-.2.73.13-.19c1.06.51.21,1.08.92,1.77-.67-.67-.38-.1-.84-.14-.12.18-.25.46-.38.39.37.32-.28.57.27,1-.15,0,0,.36-.38.29.13.44.26-.11.44-.07.52.66-.57,1.6.14,2.56.31.83.8,1,1.07,1.75-.23.26-.54-.21-.54-.21a1.2,1.2,0,0,0,0,1.15c-.13-.08-.24,0-.4.13,0,.32.54.2.33.63a2.24,2.24,0,0,1-.59-.31c.14.38.42.74.57,1.13-.26.11-.4-.22-.57-.36.13.44.26,1.14.67,1.26l.14-.28c0,.16-.35.09-.43,0-.32-.37.13-.55.28-.57l.1.28c.85-.31-.17-1.12-.13-1.68l.63.22-.53-.57c.16-.12.5-.21.6.06.3-.41-.23-.35.11-.7,0,0,.08,0,.11,0l-.2-.39c.13.07.44-.08.36.17.34-.72-.5-1.13,0-1.41l0,.06c-.24-1-.46-.08-1-.8l1.12-.52-.46-.09c0-.1,0-.3.23-.27-.33-.36-.2.07-.5-.14.4-.49-.23-1.33.5-1.46-.35-.17-.26.47-.51,0,.78-.17-.15-.6.2-1.05.4.13.2.55.55.1-.69-.25.13-.87,0-1.24-.55,0-.25-.81-.44-1.43.18,0,.27-1.19.45-1.78h.09c-.55-.09-.46-.7-.59-1.14a.64.64,0,0,1,.62.32v-.41a.65.65,0,0,1-.35-.48l.41.09c0-.55-.51-1.09-.25-1.81-.38,0-1,.59-1.33-.15.21,0,.56-.07.65.12,0-.06-.18-.22-.09-.35l.36.29c.14-.33-.3-.16-.27-.42.29,0,.2-.2.44-.17,0,.07-.12.23,0,.33a1.13,1.13,0,0,1,.44-.77c-.17,0-.4,0-.45-.2,0-.55.35-.2.5-.52-.21-.13,0-.49-.45-.48,0-.16.21-.2.32-.26-.2-.28-.08-1.33-.55-1l0,.07s0,0,0,0h0c-.46-.92.21-1.94,0-2.86h.14c-.18-.55-.13-1.23-.45-1.62,0-.16.26-.39.44-.32-.13-.42-.29-.46-.06-1.08.26.42.22-.15.2.43.11-.55.34-.68-.07-1.26.38.19.46-.42.34-.68l-.26.39a2.76,2.76,0,0,1,0-.81l.5.13c.58-1.14-1.08-2-.08-2.87-.36-.29-.23.61-.65.35.06-.51.76-1.07.76-1.23.26-.71-.75-.64-.58-1.38a.56.56,0,0,1-.83-.35c.06-.52.74-.66.89-.33,0,.12,0,.18-.1.18.07.16.15.38.34.17l-.18-.06c.17-.26.14-1,.43-.81-.18-.39-.29-.16-.38.13.24-.67,0-1,.14-1.72-.09.11-.3.21-.3.11.19-1-.35-.44-.44-1.11.26-.39.65.12.4-.55.18-.43.47-.1.62.06-.36-.62.2-1.17.25-1.52l.16.32a1.12,1.12,0,0,1-.1-.52l-.35.2c.06-.2.05-.36.2-.36-.24-.19-.59.17-.91-.22.17-.26-.22-.77.25-.87-.14.81.48-.1.57.58a.73.73,0,0,1,0-.49c.06,0,.1,0,.13.08.4-.78-.54-.34-.55-1.14.27.09.5-.2.44-.33,0,.32-.44.17-.65-.12.19-.52-.17-.56-.15-.83l-.09.31c-.27-.09-.24-.35-.33-.71.2,0,.15.32.24.2-.48-.39.46-.91.13-1.46.17-.26.5,0,.62-.26-.36-.61.34-.68,0-1.33-.35.2-.26.23-.62-.22l.28,1.07-.54-.68c0,.32.24.68.18.87-.29-.32-.21-.29-.5-.12.53-.46-.33-.87,0-1.39h.88c.38-.78-.48-1.35-.28-2.36l-.15.33c-.36-.13-.06-.62-.22-.94.3,0,.4-.18.58-.32-.21,0,0-.73-.59-.81l.38-.45c.14-.81-.86-.9-.78-1.68.33.23.53-.13.77.38,0-.25,0-.49-.16-.49.18-.15-.42-.7-.14-1-.13-.1-.44-.13-.43-.42a.2.2,0,0,1,.15,0c-.15,0-.21-.45-.53-.18.9-.82-.12-2.23.65-2.94a14.45,14.45,0,0,1-.25-1.75c.08,0,.14,0,.11.09.26-.71-.86-.41-.57-1.22.47-.42.27.42.45.16,1-.14-.16-1,.4-1.52l.06.13c.32-.42-.4-1-.34-1.68a.2.2,0,0,0,.14,0,3.89,3.89,0,0,1-.84-2c.38.2.2.29.59.16-.06-.29-.62.1-.74-.48.2-.19.37-.62.78-.68l0,.55c.53-.3,0-.71.05-1l.24,0c-.1-.84-.69-.84-.67-1.74l-.17.09c-.6-.48.31-.42-.13-.9l.59-.16a9.83,9.83,0,0,1-.73-1.71,4.9,4.9,0,0,1,1,1.41c0-.32-.07-1.09-.37-1.25.06.12.21.28.12.42a2,2,0,0,1-.72-1.55c1.15.09.25-1.68,1.13-2.17-.45-1.13.13-2.27,0-3.59-.88.49,0-.39-1-.28-.07-.31-.06-.43,0-.46l.53-1c.26-.23.21.29.41.26.06-.68.38-.29.62-.75-.33.1-.48-.22-.36-.61l-.41.55c-.51-.93.75-.83.24-1.77l.3.29c-.18-.48,0-1.8-.79-2.27.1-.08.35-.2.42,0,.09-1.17-.84-2.58-.41-3.5l.23.08c-.07-.22-.43-.37-.22-.65.1,0,.23.09.24,0s-.41-.57-.28-.86l.26.24c.26-1.14-.66-1.73-.84-2.68.66,0,.86-.92,1-1.37h.09c.05-1.32-.6-2.24-.89-3.46.7-.78.24-2.59.61-3.83-.11.19-.51,0-.58-.23.12-.29-.48-.79.13-.75v.1c.59-.23.41-.82.42-1.28l-.79-.06c1.12-1.24-.5-3.15.51-3.84-.2-.28-.21-.65-.42-.93H37a7.8,7.8,0,0,0,0-2.22l.31.2c0-.56-1.25-.68-1.28-1.2L36.7,52c0-1,.5-2-.1-3,.09,0,.27,0,.3.2,0-.46.39-1.8-.48-1.61.57,0,0-1-.23-1.54l.42.07c-.54-.43-.69-.44-.85-1.06.05-.15.33-.14.23.06.2-.5-.41-.38-.2-1l.27.21c0-.5-.12-.46-.44-.73a.84.84,0,0,1,.46-1.05c-.23-.07-.55-.34-.45-.64a.25.25,0,0,1,.28.12c.27-.86-.51-1.25-.12-1.85a.33.33,0,0,0,.25-.1,4.85,4.85,0,0,1,0,1.17c.39,0,.44-.56,1-.14-.3-.43-1-1.16-.79-1.7l.14-.07,0,.05a.36.36,0,0,0-.07-.33,1.49,1.49,0,0,0,.11-.44c.31-.07.15-.63.16-.91-.42,0-.36-.32-.7,0,0,0,0,.05.07.23s0,.09,0,.12l0,0c0,.18,0,.41,0,.67-.22-.21-.41-.43-.18-.73-.28-.13-.56-.28-.69-.36.58-.39.88-1.12,1.24-1.22-.26-.83-.21-2-1-2.46-.11-.23.22-.27.34-.37.09.14.08.3.19.37-.21-.46-.11-1.39-.67-1.49.24-.6.52.32.41-.5l.17.11c.85-1.63-1.47-2.58-.38-4.39-.07.13-.1.19-.19.22.45-2.05-.57-4.18.17-6.2.15-.58-.2-.63-.48-1l.45-.14-.54-.58c-.4-.83,1.08-1.48.33-2.53l-.3.14c.05-.38-.21-1.21.14-1.15-.06,0-.32-.12-.16-.28h.23l-.43-.94c.16-.73,1,.1,1-1-.1-.39-.72-1.11-.88-1a.44.44,0,0,1-.37.43l-.13-.36c-.7-.05-1.42-.31-1.89.59l.44.61-.33.21,0-.52c-.31.3,0,.48.18.69a.54.54,0,0,0-.37.27l.68.59c-.27.08-.55-.26-.69.15.32.28.61-.29.82.18-.31.3-.57.22-.29.56a.29.29,0,0,1-.38-.15c.23.31.12.82.49,1-.38.32.13,1-.53,1a1.54,1.54,0,0,1,.56.81c-.8-.5,0,1.07-.87.95.72.37.35,1.39.76,2.06-.06,0-.17-.11-.14-.17,0,.38-.26.5-.39.75.59,0,.74.63,1.11.94-.56.48-.7-.27-1.24-.11.48,0,.5.81.89.64-.34.37-.16.31-.64.51.73,0,.13.33.59.62-.35.53-.69.15-.45.71C32.29,26.66,32,26.16,32,26.16Zm1.6,13.56h0c0-.12,0-.22,0-.28S33.6,39.58,33.62,39.72Zm0,1.14c0-.14,0-.31,0-.5s.29,0,.29.12C33.85,40.42,33.77,40.69,33.65,40.86Zm2.86-2.49c.07.18,0,.25-.1.27s0-.18-.06-.31l-.05,0A.58.58,0,0,1,36.51,38.37Z"/><path class="cls-2" d="M36,38.06a.15.15,0,0,1,0-.07.44.44,0,0,0-.09.11l.13.06A.34.34,0,0,0,36,38.06Z"/><path class="cls-2" d="M37.83,141.6v0a.1.1,0,0,1-.06,0Z"/><polygon class="cls-2" points="33.23 56.65 33.33 56.65 33.24 56.55 33.23 56.65"/><path class="cls-2" d="M36.54,147.93a.17.17,0,0,0-.11.08S36.5,148,36.54,147.93Z"/><path class="cls-2" d="M36.51,150.65l-.14.38A1.85,1.85,0,0,0,36.51,150.65Z"/><path class="cls-2" d="M36.35,152.74l.18,0h0Z"/><path class="cls-2" d="M35.05,119.54a.19.19,0,0,0,0-.08C35,119.27,35,119.4,35.05,119.54Z"/><path class="cls-2" d="M36.28,129.4a2,2,0,0,1-.21-.32C36,129.26,36,129.4,36.28,129.4Z"/><path class="cls-2" d="M34.28,108.51h0a.15.15,0,0,1,0-.07Z"/><path class="cls-2" d="M36.07,128.62a.53.53,0,0,0,0,.46A.9.9,0,0,0,36.07,128.62Z"/><path class="cls-2" d="M36.38,161.8l0,.1h.07Z"/><path class="cls-2" d="M36.43,161.91l.06.11C36.48,162,36.48,161.92,36.43,161.91Z"/><path class="cls-2" d="M36.6,162.25l-.11-.23C36.49,162.1,36.48,162.2,36.6,162.25Z"/><path class="cls-2" d="M36.51,159l-.16,0A.35.35,0,0,0,36.51,159Z"/><path class="cls-2" d="M36.44,158.19c0,.2-.31.51-.21.79l.12,0C36.12,158.87,36.71,158.37,36.44,158.19Z"/><path class="cls-2" d="M38.25,154.64l-.11.7c.16-.12.38-.29.42,0C39,154.47,38.2,155.56,38.25,154.64Z"/><path class="cls-2" d="M38.43,152.45c.09.37.24,0,.33,0C38.61,152.22,38.57,152.16,38.43,152.45Z"/><path class="cls-2" d="M38.05,136.67l.38,0C38.37,136.4,38.29,136.7,38.05,136.67Z"/><polygon class="cls-2" points="35.99 133.7 35.76 133.99 36.12 134.11 35.99 133.7"/><polygon class="cls-2" points="38.68 131.85 38.74 131.98 38.59 131.49 38.68 131.85"/><path class="cls-2" d="M37.91,105.35l-.47.1C37.53,105.65,38.06,105.67,37.91,105.35Z"/><path class="cls-2" d="M37.15,93.92c.23-.13.38-.45.14-.65C37.26,93.53,37.08,93.79,37.15,93.92Z"/><polygon class="cls-2" points="37.09 59.59 37.25 59.82 37.11 59.39 37.09 59.59"/><path class="cls-2" d="M191,145.58c.09-.13,0-.42-.23-.35l-.16.51Z"/><path class="cls-2" d="M189.28,144.76a1,1,0,0,0-.39,1.14c.27-.49.35-.3.64-.88a.32.32,0,0,1,.42.32c.08-.13.4.09.52-.23a.8.8,0,0,0-1.19,0C189.18,145,189.26,144.85,189.28,144.76Z"/><path class="cls-2" d="M164.39,145.25l.16.05A.28.28,0,0,0,164.39,145.25Z"/><path class="cls-2" d="M149,145.64c.11,0,.16-.07.17-.11S149,145.6,149,145.64Z"/><path class="cls-2" d="M146.33,145.2l.15,0C146.42,145.18,146.36,145.16,146.33,145.2Z"/><path class="cls-2" d="M164.39,145.25l-.42-.14C164,145.27,164.19,145.22,164.39,145.25Z"/><path class="cls-2" d="M185.92,146.14a.6.6,0,0,0,.21-.14l-.2.06Z"/><path class="cls-2" d="M171.16,144.53h.12a1,1,0,0,0,.1-.21Z"/><path class="cls-2" d="M176.36,144.19c-.12,0-.14.41-.17.6a.39.39,0,0,1,.24-.3A.76.76,0,0,0,176.36,144.19Z"/><path class="cls-2" d="M184.66,144.5l.14-.07A.91.91,0,0,0,184.66,144.5Z"/><path class="cls-2" d="M167.42,144.61a.38.38,0,0,0,0-.14A.24.24,0,0,0,167.42,144.61Z"/><path class="cls-2" d="M21.61,150.53s0-.05,0-.07S21.57,150.53,21.61,150.53Z"/><path class="cls-2" d="M15.58,148.38l.08,0a2,2,0,0,0,0-.23Z"/><path class="cls-2" d="M141.49,144.84h0C141.64,144.79,141.57,144.81,141.49,144.84Z"/><path class="cls-2" d="M97.33,146.41c.5.37-.81.5,0,.91C97.21,147.15,98,146.64,97.33,146.41Z"/><path class="cls-2" d="M185.78,146.09l-.21,0A.44.44,0,0,0,185.78,146.09Z"/><path class="cls-2" d="M97.28,147.32h0l.08,0Z"/><path class="cls-2" d="M130.42,145.48a.44.44,0,0,0,.12.18A.48.48,0,0,0,130.42,145.48Z"/><path class="cls-2" d="M138.7,145.8l-.21-.05A1,1,0,0,0,138.7,145.8Z"/><path class="cls-2" d="M126.15,146.22c-.11,0-.15-.09-.3,0l0,.05C126,146.18,126,146.15,126.15,146.22Z"/><path class="cls-2" d="M121.68,146.35l.09.08.14,0Z"/><path class="cls-2" d="M35.2,150.42A1.3,1.3,0,0,1,35,150C35.06,150.34,34.4,150.45,35.2,150.42Z"/><path class="cls-2" d="M185.9,145.9c0,.11-.05.17-.12.19l.15,0A.18.18,0,0,0,185.9,145.9Z"/><path class="cls-2" d="M126.07,149.55l-.71,0A3.94,3.94,0,0,0,126.07,149.55Z"/><path class="cls-2" d="M67.28,150.3l-.16,0A.16.16,0,0,0,67.28,150.3Z"/><path class="cls-2" d="M123.25,149.63a1,1,0,0,0-.41-.28.44.44,0,0,0-.08.11Z"/><path class="cls-2" d="M35,150Z"/><path class="cls-2" d="M30.31,151c.67,0,.32-.55.46-.86.81-.16.38.41.65.69.5-.14.89-.65,1.27-.63,0,.1.1.13,0,.24.54-.43,1.59,0,2.21-.56A.29.29,0,0,1,35,150a1.78,1.78,0,0,1-.09-.76c.3,0,.57-.35.68,0-.19,0-.2.14-.29.25l.32-.15c.28.52-.44.17-.44.56.62-.17,1.35-.59,1.82-.45.1.52-1.11.17-.48.63l-.73-.2c.56.8-.45-.06.06.8,1,.15,1.09-.25,2-.1.22-.28-.07-.42.15-.7,1.37-.51,1.08,1.28,2.09.6.26-.34.36-1,1.08-.64l-.25.58c.94.06.54-.83,1.52-.44-.18.23-.74.19-.6.26.64.45.45-.33.94-.33l.1.51c1-.08,2.1-.44,3.2-.54-.06.16-.25.32,0,.47a11.65,11.65,0,0,1,4.32.36l.51-.44c.12,0,.22.2.1.29.52.16,0-.28.27-.46.3,0,.4.25.21.39.92-.38,2.63-.82,3.6-.35l-.19.13c.76.18.86-.9,1.56-.49l-.13.08c1.64.18,3.46-.23,4.72.43.23-.64,1.63.27,1.73-.62.94.43.67.59,2,.88.35,0,.52-.56,1-.65v.46l.59-.49.32.55.41-.12c-.16,0-.35-.21-.32-.34a1.56,1.56,0,0,1,1.58.55l1.51-.4c0,.18-.29.25-.49.37.81-.48.16.48.89.05-.1-.11,0-.28.07-.37a2.81,2.81,0,0,0,1.83.14l-.11.32c1.12.07,2.36-.18,3.62-.19a.38.38,0,0,1,0-.75l.15.48c.24-.3-.39-.18.1-.55.47.05.32.55,0,.71l.57-.17c0,.14-.09.22-.13.41.23-.31,1,.48,1.33-.06l0,.15c1.26,0,1.83-.19,2.86-.22,0-.42.42-.34.72-.68a11.28,11.28,0,0,0,2.51.39c.63-.22.18-.36.46-.61,0,.38,1,.33.49.61a12.78,12.78,0,0,0,2.77-.43c-.15-.16-.32-.22-.24-.35.25-.07.58.15.54.33l-.06,0c1.54-.6,3.59,1.07,4.81.25l-.07,0,1.27-.45c.59.06-.34.3.1.53,1.36-.67,2.18,0,3.31-.4.9,1.11,3.12-.14,4.32.55l-.08-.26c.3-.27.38.14.6.2,0-.21-.33-.23-.15-.38,2.6-.37,5.38.26,8,.44,1,0,.52-1.39,1.76-.79l-.34.51c2-.64,4-.08,5.94-.65-.11.12-.11.27-.3.27.42.35,1.5,0,1.5-.32.3,0,.08.27.27.41.41.2,1-.49,1.23-.13,0,.05-.11.12-.18.15.26-.19,1.24,0,1-.4.73.17,1.38-.23,2,0,.36-.47,1.25.19,1.35-.47,0,.68,1.28.51,1.73.18-.15.21.4.19.23.49.52,0,1-.17.89-.52,1,.78,1.91-.72,2.48.31a38.22,38.22,0,0,1,4.35-.92c0,.68-1.53.12-1.45.83,1.31-.32,2.05-.93,3.37-.81.34.08-.18.3-.29.42,1.31-.32,2.55,0,3.71-.44,0,.06-.12.13-.24.19.23,0,.54.08.5-.23l-.22.1c-.39-.44.88-1,.92-1.21-.36.9,1.16.18.58,1.32.15-.07.34-.22.3-.42.22.05.3.16.08.41.82-.2.52-.52,1.27-.54,0,.15-.15.21-.22.39a1.59,1.59,0,0,1,1.38-.5c0,.09,0,.2-.15.21,1.09-.09,1.83-.85,3-.61-.33.66.41.2.5.75l.63-.19-.27-.26c.57,0,1.05-.44,1.54-.28l-.41.25,1.05-.15-.6-.19c.55-.31-.09-.7.66-.58-.15.07.57,0,.87.3h0a1.06,1.06,0,0,1,1-.27c.12.17-.06.62,0,.74.25-.48,1.31-.19,1.64-.7a.56.56,0,0,0-.07.47l.22-.39c.26.11.3.17.27.41.79,0-.28-.7.67-.43-.08,0,0,.08-.19.15.94.12,1.8-.32,2.67-.17.27.56-.75.17-.44.64,1.24-.16,2.54-.79,3.74-.71l-.22-.05c.13-.8.91.35,1.49,0-.14.06-.17.45-.13.36a9.57,9.57,0,0,0,2.9-.58l-.15.21a10.8,10.8,0,0,0,1.81.11c.14-.21.45-.19.25-.48,1.67,1.09,3-.76,4.52.14-.17,0-.4.2-.26.19l1.2-.25c-.11-.34-.17-.2-.43-.46a1.1,1.1,0,0,1,.78-.4c-.54.26,0,.56.27.74,0-.11,0-.23,0-.33.67.58.07-.71,1-.34l0,.19c.32-.11.61-.37,1-.33.17.39-.33.2-.34.53.49,0,.94-.8,1.4-.43-.2.13-.5.14-.71.26a1.08,1.08,0,0,0,.93.38h0l.84.18-.21-.12c.56-1.08,1.24-.25,2-1-.77.69-.11.38-.15.84.22.11.55.24.46.37.38-.38.67.26,1.2-.31,0,.15.42,0,.35.37.51-.14-.13-.25-.1-.44.76-.53,1.88.51,3-.23,1-.34,1.12-.84,2-1.14.32.22-.22.55-.22.55a1.6,1.6,0,0,0,1.32-.06c-.08.13,0,.23.17.39.37-.06.22-.55.72-.36a2,2,0,0,1-.34.61c.43-.16.85-.46,1.3-.61.13.24-.25.4-.4.57.5-.14,1.31-.3,1.44-.71l-.33-.13c.18,0,.11.34,0,.42-.42.34-.64-.1-.67-.25l.31-.11c-.37-.84-1.29.21-1.94.2l.24-.64-.64.55c-.15-.15-.27-.5.05-.61-.49-.28-.4.25-.82-.07-.05-.05,0-.09,0-.11l-.45.21c.08-.14-.1-.44.19-.36-.84-.32-1.3.54-1.63.08l.06,0c-1.12.27-.08.46-.9,1l-.64-1.09-.08.46c-.12,0-.36,0-.32-.22-.42.34.08.2-.16.51-.58-.39-1.54.27-1.71-.45-.18.36.56.24,0,.51-.21-.77-.69.17-1.23-.16.14-.41.64-.22.11-.56-.28.7-1-.1-1.44.06,0,.54-.93.27-1.65.49,0-.19-1.39-.23-2.08-.4l0-.09c-.11.56-.81.49-1.32.63a.62.62,0,0,1,.36-.63l-.48,0a.77.77,0,0,1-.56.36l.11-.42c-.64.06-1.26.55-2.1.32,0,.38.71,1-.15,1.33,0-.2-.09-.56.13-.65-.07,0-.26.18-.41.1l.33-.37c-.38-.13-.18.3-.48.29,0-.3-.23-.2-.2-.44.07,0,.27.11.37,0a1.41,1.41,0,0,1-.9-.42c0,.17,0,.4-.22.45-.64.05-.24-.34-.62-.48-.14.21-.56,0-.55.46-.18,0-.23-.2-.31-.31-.32.21-1.53.12-1.14.58l.09,0-.06,0h0c-1.06.49-2.26-.15-3.32.09v-.15c-.63.2-1.42.16-1.86.5-.19,0-.46-.25-.39-.43-.48.14-.53.31-1.25.09.48-.28-.18-.22.5-.21-.64-.1-.8-.33-1.46.1.21-.39-.5-.45-.8-.33l.46.26a3.73,3.73,0,0,1-.94,0l.14-.5c-1.33-.55-2.3,1.13-3.34.15-.33.37.72.22.43.64-.6,0-1.26-.73-1.44-.73-.84-.24-.74.76-1.61.61.12.17.24.64-.39.84-.6,0-.77-.72-.4-.88.15,0,.22,0,.22.1.19-.07.44-.16.19-.34l-.07.18c-.3-.17-1.13-.12-.94-.42-.45.19-.19.3.15.38-.78-.23-1.2,0-2-.1.13.09.26.3.13.3-1.17-.18-.5.36-1.28.46-.46-.25.13-.65-.65-.39-.49-.17-.12-.47.07-.62-.71.37-1.36-.18-1.77-.23l.37-.15a1.68,1.68,0,0,1-.6.1l.23.35c-.22-.06-.41-.05-.41-.2-.22.24.2.59-.25.92-.3-.17-.9.23-1-.24.94.13-.12-.47.67-.57a1,1,0,0,1-.56,0c0-.05,0-.1.08-.13-.91-.39-.39.55-1.31.57.1-.27-.24-.49-.39-.43.38,0,.2.44-.14.65-.6-.18-.64.18-1,.17l.36.08c-.11.27-.41.25-.82.35-.05-.21.37-.16.22-.24-.45.48-1.06-.45-1.69-.11-.31-.17-.05-.5-.31-.61-.71.37-.8-.34-1.54,0,.23.35.26.26-.26.63l1.24-.29-.78.54c.37,0,.78-.25,1-.2-.37.31-.34.22-.14.51-.54-.52-1,.35-1.62,0v-.88c-.91-.37-1.57.5-2.74.32l.38.14c-.14.36-.71.07-1.08.23,0-.3-.22-.4-.38-.58,0,.22-.85,0-.94.6l-.53-.37c-.94-.13-1,.88-1.94.81.26-.33-.16-.53.44-.78-.3,0-.57,0-.57.17-.18-.18-.82.43-1.11.15-.12.14-.15.45-.49.43,0,0,0-.14,0-.14,0,.15-.52.21-.22.53-1-.89-2.58.14-3.41-.63a19.88,19.88,0,0,1-2,.28c0-.09,0-.15.11-.12-.82-.25-.48.86-1.42.58-.49-.46.49-.27.19-.44-.16-1-1.13.16-1.77-.39l.15-.06c-.49-.32-1.16.4-1.95.35a.16.16,0,0,0,0-.14,4.91,4.91,0,0,1-2.29.86c.23-.39.34-.21.19-.6-.34.07.11.62-.56.75-.22-.21-.72-.38-.79-.79l.63,0c-.34-.52-.82,0-1.16,0l0-.24c-1,.1-1,.69-2,.68l.12.17c-.56.6-.49-.32-1,.13l-.19-.59a11.25,11.25,0,0,1-2,.74,5.69,5.69,0,0,1,1.65-1c-.38,0-1.28.08-1.46.37.14-.06.33-.21.48-.12a2.39,2.39,0,0,1-1.79.73c.1-1.15-2-.24-2.52-1.13-1.32.46-2.63-.12-4.17,0,.56.89-.45,0-.34.95-.35.07-.49.06-.53,0l-1.09-.53c-.27-.26.33-.21.3-.41-.79-.06-.34-.38-.87-.62.12.33-.26.48-.71.36l.64.41c-1.09.51-1-.75-2.06-.24l.34-.3c-.56.19-2.09,0-2.64.78-.1-.1-.24-.35,0-.42-1.36-.09-3,.83-4.07.39l.1-.22c-.25.07-.44.43-.76.21,0-.1.1-.23,0-.24s-.67.4-1,.28l.28-.26c-1.33-.27-2,.65-3.13.82,0-.66-1-.86-1.57-1l0-.09c-1.55-.07-2.62.57-4,.85-.9-.71-3-.27-4.44-.65.22.12,0,.51-.28.58-.34-.13-.92.47-.87-.13h.12c-.26-.6-1-.43-1.48-.44l-.09.79c-1.41-1.14-3.67.45-4.44-.57-.34.2-.76.2-1.1.4l0-.43a10.32,10.32,0,0,0-2.57,0l.24-.3c-.66,0-.82,1.23-1.42,1.26l-.19-.64c-1.14,0-2.3-.53-3.42.05,0-.1,0-.28.23-.31-.54,0-2.08-.42-1.88.45,0-.57-1.18,0-1.79.2l.09-.42c-.52.54-.53.68-1.26.83-.17-.05-.15-.33.08-.22-.58-.22-.45.39-1.15.17l.26-.26c-.59,0-.54.11-.87.42s-1.12-.1-1.2-.48a.67.67,0,0,1-.75.43c-.05-.14.08-.23.14-.27-1-.28-1.47.48-2.15.07a.34.34,0,0,0-.11-.25,7.54,7.54,0,0,1,1.35.07c0-.39-.63-.46-.13-1-.5.29-1.37.92-2,.74a.41.41,0,0,1-.08-.13l.06,0a.53.53,0,0,0-.39.07A1.64,1.64,0,0,0,45,147c-.07-.32-.73-.17-1-.19,0,.42-.39.35,0,.7,0,0,.06,0,.27-.06,0,0,.1,0,.13,0l0,0,.79,0c-.25.22-.52.4-.86.16-.17.27-.35.55-.45.68-.43-.59-1.26-.91-1.38-1.27-1,.24-2.27.15-2.88,1-.27.1-.31-.23-.41-.36.15-.08.34-.06.43-.18-.55.21-1.63.08-1.76.63-.69-.25.39-.5-.56-.42l.13-.17c-1.86-.89-3,1.4-5.11.25.14.07.21.11.24.2-2.36-.52-4.87.45-7.19-.37-.66-.17-.74.19-1.14.45l-.14-.45-.7.51c-1,.38-1.69-1.12-2.93-.41l.15.3c-.44-.06-1.41.17-1.33-.18-.05.06-.15.32-.32.16l0-.24-1.1.39c-.84-.18.15-.94-1.09-1-.46.08-1.32.67-1.15.83s.48.16.49.39l-.43.12c-.08.7-.41,1.41.62,1.91l.72-.42.23.34-.61,0c.34.32.56,0,.81-.15a.57.57,0,0,0,.3.37l.71-.66c.09.28-.32.54.15.7.34-.31-.31-.62.24-.82.35.32.24.58.65.32a.29.29,0,0,1-.19.37c.36-.22.95-.09,1.14-.45.36.39,1.22-.09,1.18.57a1.82,1.82,0,0,1,1-.54c-.61.78,1.24.06,1.07.9.45-.7,1.62-.3,2.41-.68,0,.05-.13.17-.2.13.45.06.57.28.86.42.06-.59.76-.72,1.14-1.08.54.57-.34.69-.17,1.23,0-.48.95-.47.77-.87.41.36.36.18.57.66.08-.73.39-.12.74-.57.6.37.15.69.82.47C30.9,150.76,30.31,151,30.31,151Zm15.82-1.23h0l-.33,0Zm1.32,0a5,5,0,0,0-.57,0c-.05-.14,0-.29.13-.29C46.94,149.58,47.26,149.67,47.45,149.79Zm-2.81-2.93c.22-.06.29,0,.31.11l-.36.05,0,0A.66.66,0,0,1,44.64,146.86Z"/><path class="cls-2" d="M44.27,147.42l-.09,0a.6.6,0,0,0,.13.09l.07-.13Z"/><path class="cls-2" d="M164.58,145.31h0s0,0,.06.06S164.59,145.32,164.58,145.31Z"/><polygon class="cls-2" points="65.81 150.52 65.8 150.41 65.69 150.5 65.81 150.52"/><path class="cls-2" d="M172,146.41a.27.27,0,0,0,.11.1S172,146.45,172,146.41Z"/><path class="cls-2" d="M175.12,146.34l.45.13A3.09,3.09,0,0,0,175.12,146.34Z"/><path class="cls-2" d="M177.55,146.43a.45.45,0,0,0,0-.18h0Z"/><path class="cls-2" d="M139,148.61l-.1,0C138.66,148.72,138.81,148.69,139,148.61Z"/><path class="cls-2" d="M150.42,147.19a2.24,2.24,0,0,1-.36.21C150.27,147.42,150.42,147.42,150.42,147.19Z"/><polygon class="cls-2" points="126.15 149.55 126.15 149.54 126.07 149.55 126.15 149.55"/><path class="cls-2" d="M149.53,147.41a.69.69,0,0,0,.53,0A1.06,1.06,0,0,0,149.53,147.41Z"/><path class="cls-2" d="M188.08,146.06h.12a.17.17,0,0,1,0-.07Z"/><path class="cls-2" d="M188.21,146l.13-.05C188.28,146,188.23,146,188.21,146Z"/><path class="cls-2" d="M188.61,145.83l-.27.12C188.43,145.94,188.55,146,188.61,145.83Z"/><path class="cls-2" d="M184.86,146l0,.16A.35.35,0,0,0,184.86,146Z"/><path class="cls-2" d="M183.89,146.14c.23,0,.6.29.92.18l0-.12C184.69,146.43,184.09,145.87,183.89,146.14Z"/><path class="cls-2" d="M179.71,144.47l.83.08c-.15-.15-.35-.36,0-.42C179.5,143.7,180.79,144.48,179.71,144.47Z"/><path class="cls-2" d="M177.17,144.36c.43-.1,0-.23,0-.33C176.9,144.2,176.83,144.24,177.17,144.36Z"/><path class="cls-2" d="M158.84,145.23l0-.38C158.53,144.92,158.87,145,158.84,145.23Z"/><polygon class="cls-2" points="155.42 147.36 155.76 147.59 155.91 147.23 155.42 147.36"/><polygon class="cls-2" points="153.24 144.72 153.38 144.66 152.83 144.82 153.24 144.72"/><path class="cls-2" d="M122.47,146l.11.47C122.81,146.33,122.84,145.8,122.47,146Z"/><path class="cls-2" d="M109.19,146.8a.5.5,0,0,0-.76-.14C108.73,146.68,109,146.86,109.19,146.8Z"/><polygon class="cls-2" points="69.3 146.7 69.57 146.54 69.07 146.68 69.3 146.7"/><path class="cls-3" d="M51.05,32.32c-.09,0-.18.22,0,.26l.26-.21Z"/><path class="cls-3" d="M51.36,33.27c.21,0,.53-.1.65-.34-.32.1-.27,0-.63.15a.16.16,0,0,1,0-.27c-.08,0-.11-.18-.29-.06,0,.3.13.39.43.38C51.49,33.2,51.4,33.23,51.36,33.27Z"/><path class="cls-3" d="M48.34,35.09l.07,0A.18.18,0,0,0,48.34,35.09Z"/><path class="cls-3" d="M48.28,38.45s0,.09,0,.12S48.31,38.46,48.28,38.45Z"/><path class="cls-3" d="M49.38,37.48l-.06.07S49.4,37.51,49.38,37.48Z"/><path class="cls-3" d="M48.34,35.09l-.2-.14C48.12,35.06,48.24,35.05,48.34,35.09Z"/><path class="cls-3" d="M53.27,33.9l-.16,0,.12.06Z"/><path class="cls-3" d="M50.65,35.58h0l-.07-.18Z"/><path class="cls-3" d="M51.83,35.56c-.06,0,.53.4.77.58a1.8,1.8,0,0,1-.33-.3Z"/><path class="cls-3" d="M52.51,34.44l-.12,0Z"/><path class="cls-3" d="M49.81,35.18v-.1A.34.34,0,0,0,49.81,35.18Z"/><path class="cls-3" d="M41.89,35.52l0,0Z"/><polygon class="cls-3" points="43.75 34.35 43.77 34.39 43.92 34.39 43.75 34.35"/><path class="cls-3" d="M50.48,35.27h0C50.49,35.35,50.49,35.31,50.48,35.27Z"/><path class="cls-3" d="M43.51,31.62c.43,0-.24.58.35.49C43.73,32.06,44,31.47,43.51,31.62Z"/><path class="cls-3" d="M53.3,34l.09.07A.18.18,0,0,0,53.3,34Z"/><path class="cls-3" d="M43.86,32.11Z"/><path class="cls-3" d="M51.13,32l-.08-.19Z"/><path class="cls-3" d="M50.24,33.89l.06-.09A.24.24,0,0,0,50.24,33.89Z"/><path class="cls-3" d="M51.74,31.78s0,.09,0,.07v0S51.74,31.85,51.74,31.78Z"/><polygon class="cls-3" points="52.29 32.79 52.34 32.76 52.32 32.74 52.29 32.79"/><path class="cls-3" d="M42.38,35.22a1.14,1.14,0,0,1-.09-.26C42.32,35.16,42.05,35.23,42.38,35.22Z"/><path class="cls-3" d="M53.15,34a.24.24,0,0,1,.15,0l-.07-.05S53.16,33.93,53.15,34Z"/><path class="cls-3" d="M52.74,29.6l.4.42A3.82,3.82,0,0,0,52.74,29.6Z"/><path class="cls-3" d="M52.83,29.62l.13,0A.14.14,0,0,0,52.83,29.62Z"/><path class="cls-3" d="M54.15,31.42a.79.79,0,0,0-.08.31l.08,0A1.82,1.82,0,0,0,54.15,31.42Z"/><path class="cls-3" d="M42.29,35Z"/><path class="cls-3" d="M41.23,35.34c.07,0,.09.08.14.12l-.06-.06-.12-.13c0-.14.19.19.3.35-.06-.09-.09-.44,0-.46a.28.28,0,0,1,0,.16c.06-.33.45-.09.71-.45a.16.16,0,0,1,0,.09,2.43,2.43,0,0,1,0-.51c.14,0,.25-.23.3,0-.08,0-.09.09-.12.17l.13-.11c.13.35-.19.12-.18.38.26-.11.58-.4.79-.29,0,.35-.49.1-.22.41l-.31-.13c.23.53-.19,0,0,.53.4.1.46-.15.87,0,.1-.18,0-.28.09-.46.64-.29.41.88.89.47.14-.22.22-.64.52-.38l-.14.37c.41.08.29-.53.71-.23-.1.15-.35.1-.29.15.26.33.22-.2.45-.18v.35c.46,0,1-.2,1.51-.23,0,.1-.14.2,0,.31a5.11,5.11,0,0,1,2.09.3l.25-.31a.11.11,0,0,1,.06.18c.27.1,0-.18.12-.31s.21.16.12.25a2.81,2.81,0,0,1,1.81-.55l-.07.11c.44,0,.23-.72.67-.59l0,.07c.89-.24,1.48-1.05,2.26-1.27-.12-.18.07-.32.25-.55s.29-.61,0-.71a2.05,2.05,0,0,0,.32-.8,1.59,1.59,0,0,0-.37-1.13c-.25-.27-.59,0-.88-.1l.13-.28a2.93,2.93,0,0,0-.53.13,2.3,2.3,0,0,0-.14-.42c-.11,0-.22,0-.33,0,.13,0,.24.18.21.26a2.23,2.23,0,0,1-1.23-.34,3.7,3.7,0,0,0-.47.29,2.92,2.92,0,0,0-.43.44c-.06-.11.05-.24.13-.39-.29.57-.28-.21-.51.33.09,0,.09.16.12.22-.31,0-.67.39-.8.7l-.13-.19c-.43.46-.6,1-.89,1.37.18-.06.45.19.38.33l-.28-.17c.09.2.19,0,.25.27-.15.12-.35-.15-.37-.3l-.06.23c-.07,0-.08-.12-.16-.22.09.21-.47,0-.32.35l-.07-.07a9.1,9.1,0,0,1-.75.69c.13.24,0,.27,0,.52a5.4,5.4,0,0,0-1,.08c-.19.2,0,.25-.07.44-.09-.24-.41-.14-.28-.36a5.82,5.82,0,0,0-1,.37c0,.11.11.15.08.24s-.16-.11-.14-.23l0,0a.17.17,0,0,1-.31-.07A.54.54,0,0,1,45,34c0-.06,0-.07-.2-.05h0a.7.7,0,0,1-.34-.15c.07-.09.22.05.42,0-.24-.07-.17-.19-.09-.22s.14,0,.11-.2c.17.11.19.21.28.2a.26.26,0,0,0,.19-.07.24.24,0,0,1,.41.12v-.17c.13-.16.09.12.13.17,0-.13,0-.17,0-.25a2,2,0,0,1,1.27.66,14.75,14.75,0,0,0,1.43,1.31c.49.3.68-.67,1.11,0l-.3.23c.59,0,1.12.2,1.75.27a2.71,2.71,0,0,0,2.16-.55c0,.1,0,.18-.1.25.45.07,1-.67.8-.76a.17.17,0,0,1,.11,0c.06,0,.14.12.23,0,.19-.27-.17-.92.09-1,0,0,.06.11.07.18-.07-.24,0-1-.22-.82a1.71,1.71,0,0,0-.12-.81,1.35,1.35,0,0,1-.15-.57c-.32,0-.29-.9-.69-.69.41-.26-.35-1.08-.71-1.05.15-.06-.16-.33,0-.42-.33-.25-.65-.33-.65-.05a.79.79,0,0,0-.83-.47c-.26,0-.45,0-.71-.38H50s-.07,0-.08,0l0,.09c-.08.25-.16.49-.23.72s-.13.45-.2.66a7.59,7.59,0,0,0-.12.76c-.19-.18-.12-.47-.07-.76s.17-.41,0-.63A4.46,4.46,0,0,0,49.11,31a3.24,3.24,0,0,1-.17,1.19c-.1.12-.18-.1-.22-.24,0,.7-.33,1.14-.23,1.73,0,0-.07-.08-.09-.14,0,.11-.12.22.08.26l0-.11c.33-.09.5.55.65.61-.53-.32-.27.48-.92,0a.26.26,0,0,0,.23.2c-.07.09-.15.11-.28,0,0,.39.26.31.17.64-.09,0-.11-.1-.22-.16.15.21.29.43.14.69,0,0-.14,0-.11-.1-.08.44.28.88-.12,1.26-.32-.32-.2.08-.54-.08a2.11,2.11,0,0,1,0,.25l.2,0c-.11.17,0,.5-.23.55l0-.21a3.37,3.37,0,0,1-.19.32l.25-.06c0,.3.36.31.07.46,0-.07-.2.16-.4,0h0c0,.15-.08.32-.26.28s-.08-.41-.12-.48c0,.32-.2.11-.41.36a.7.7,0,0,0,.15-.28,1.56,1.56,0,0,1-.16.2c0-.11,0-.14.07-.27-.1-.14-.23.43-.3.11,0,0,.05,0,.11,0s-.13-.15-.18-.26a.33.33,0,0,1,0-.38c.38,0,.07.22.39.17-.09-.2-.15-.9.26-1.12l-.09,0c-.16-.22,0-.24.11-.22s.29.1.33-.06c0,0,.07.29,0,.23.13,0,.19-.06.34-.14a2.09,2.09,0,0,1,.61-.24l-.08.13c.17.13.48.14.67.26.1-.11.21,0,.2-.26a.74.74,0,0,0,.39.42,2.35,2.35,0,0,0,.66.14,1.64,1.64,0,0,1,1.24.52c-.09,0-.18.08-.11.1s.42,0,.61,0c-.18-.27-.17-.18-.39-.42a.16.16,0,0,1,.22-.17c-.15.1.24.42.46.57-.07-.08-.09-.16-.15-.23.61.48-.28-.48.32-.13l.08.12c.11,0,.11-.19.3-.15.3.24,0,.11.12.32.24,0,0-.45.46-.25,0,.08-.17.08-.2.16.51.25.47.17.69.17h0a4.69,4.69,0,0,0,.53,0l-.18,0c-.39-.56.45-.29.33-.75.1.41.19.16.46.33.16,0,.38-.08.42,0-.09-.25.42-.17.24-.55.1,0,.12-.18.33-.06.05-.27-.19,0-.3-.06a.38.38,0,0,1,.07-.32c.06-.06,0-.07,0-.11l-.09-.11a1.84,1.84,0,0,0-.73-.53,9.37,9.37,0,0,0-1.44-.54c.12-.08.42,0,.44,0a.82.82,0,0,0-.51-.38c.1,0,.12,0,.15-.12-.17-.11-.37,0-.46-.15a1.55,1.55,0,0,1,.44,0c-.24-.11-.55-.17-.79-.26.07-.12.29,0,.43,0-.26-.14-.64-.36-.88-.25l.06.15c-.08-.05.12-.16.21-.14.32,0,.19.24.13.29l-.17-.06c-.27.36.56.3.8.53l-.21,0a1,1,0,0,1-.27,0l.58.09s0,.07-.12.1a.92.92,0,0,1-.35,0c-.22.1.42.1.12.18h-.14l.39.11c-.2,0-.57,0-.53-.07-.13.06.11.12.35.2s.44.14.11.11l-.08,0a3.42,3.42,0,0,0,.79.22l.45.09a1.39,1.39,0,0,1,.34.11l-.11,0h-.14l-.22,0L53,35l.86.2s0,.06-.33,0c.72.23.34.07,1,.26-.15,0-.16,0-.13,0s0,.13,0,.19-.18.21-.87,0c.59.31.63,0,.93.37-.75-.24-.72-.18-.63,0s.24.31-.15.21c-.62-.38-.15-.28-.89-.49.54.31.39.34.14.27s-.59-.19-.55-.11c.78.52,0,.31,0,.49-.2-.17-.8-.29-1.12-.53l-.07-.09c.39.53.06.39-.05.44a1.57,1.57,0,0,1-.21-.53l-.12,0c.06.15.07.22,0,.24l-.14-.35c-.1,0-.19.28-.45,0,0,.26.35.91,0,.93,0-.16,0-.41.06-.44s-.1.08-.16,0a.82.82,0,0,0,.12-.2c-.12-.16-.06.19-.17.12s-.06-.18,0-.33.07.11.11,0a.48.48,0,0,1-.17-.4c0,.11-.07.26-.16.25-.27-.08,0-.25-.13-.41-.12.11-.27-.09-.36.18-.09,0-.07-.16-.08-.25-.19.07-.79-.15-.66.2l0,0h0c-.55.19-1.1-.32-1.72,0l0-.1c-.31.24-.69.46-.7.79a.28.28,0,0,1-.35-.06c-.12.26,0,.32-.37.58,0-.32-.19,0,0-.31-.26.26-.46.31-.33.8-.21-.23-.4.23-.32.47a3.4,3.4,0,0,1,.21-.28c0,.22,0,.41,0,.63l-.34-.09A1.2,1.2,0,0,0,45.21,39c.46.21.72.21,1.08.64.3-.16-.52-.3-.19-.5.32.2.9.59,1.08.54a.48.48,0,0,0,.52-.37c.06-.18.09-.36.33-.47a.39.39,0,0,1-.19-.56c.23-.17.62,0,.55.28,0,.07-.1.07-.13,0s-.12.25.07.24l0-.12c.22,0,.51-.41.59-.2.07-.28-.08-.2-.25-.1.41-.24.4-.53.7-.84-.09,0-.24,0-.21,0,.41-.47-.07-.33,0-.71.25-.14.37.24.37-.2.2-.2.32,0,.38.18a.63.63,0,0,1,.16-.54,3.34,3.34,0,0,0,.28-.3l0,.2a.51.51,0,0,1,0-.28l-.25,0c.06-.08.08-.17.18-.14-.13-.14-.4,0-.56-.27.15-.11,0-.44.29-.4-.2.38.32,0,.28.39a.31.31,0,0,1,.07-.25.07.07,0,0,1,.07.06c.37-.32-.3-.26-.19-.67.16.09.35,0,.33-.09,0,.16-.3,0-.4-.18.2-.23,0-.31,0-.44l-.1.14c-.16-.1-.1-.23-.11-.42.14,0,0,.19.13.14-.26-.28.42-.38.29-.72.15-.1.33.07.44,0-.16-.33.35-.39.17-.47s-.18,0-.37-.22a.89.89,0,0,1,.07.4l-.12-.22a1,1,0,0,1-.14-.15c0,.07.07.32,0,.4-.15-.21-.09-.18-.31-.15.21-.07.19-.2.14-.28s-.09-.24,0-.27l.52.33c.14,0,.08-.06,0-.22s-.1-.37,0-.39a.31.31,0,0,0-.1-.05c-.16-.33,0-.21,0-.43.13.3.19.36.27.53-.12-.28.11,0,0-.6a3.46,3.46,0,0,1,.2.45c.14.21.17-.73.43-.46-.11.24-.06.47-.19.6,0,0,.08.11.11-.06,0,.16.24-.19.22.07.06-.07.17-.27.23-.17a.31.31,0,0,1-.05.09c.05-.1.18,0,.26-.26a.71.71,0,0,0,.11.69c.12.16.24.45,0,.6a1.06,1.06,0,0,1,.21.55c-.06,0-.11,0-.08-.06-.18.11.42.34.36.57,0,0,0,0-.08,0-.37-.12-.12-.19-.21-.24h0c-.32-.19-.35-.16-.36-.07s0,.21-.23.06v0c-.19-.18-.1.3-.35.26a.51.51,0,0,0,0-.1c-.06.35-.56.4-.88.39.17-.21.17-.09.19-.35-.14,0-.07.41-.37.4,0-.17-.2-.35-.12-.62l.24.08c0-.38-.3-.1-.4-.22l.08-.13c-.36-.12-.54.23-.92,0l0,.13c-.43.19-.07-.3-.44-.2l.15-.37a4.58,4.58,0,0,1-1-.11,2.65,2.65,0,0,1,1-.11c-.14-.09-.52-.29-.7-.18.08,0,.21,0,.24.06a1.06,1.06,0,0,1-1,0c.43-.66-.74-.61-.87-1.23a5.68,5.68,0,0,1-1.2-.14,2.34,2.34,0,0,0-1.49.23c.58.38-.25.14.11.66-.18.14-.23.19-.28.17a2.78,2.78,0,0,0-.79.25c-.27,0,0-.27-.07-.33-.43.45-.4,0-.79.34.26,0,.15.3-.05.61a2.38,2.38,0,0,1,.49-.34,1,1,0,0,1-.4.67.57.57,0,0,0-.2.75,1.57,1.57,0,0,1-.19-.26,4.62,4.62,0,0,0,.17.91,1.27,1.27,0,0,0,.67.74.69.69,0,0,0,.2,0c0,.1-.08.28-.24.16a2.06,2.06,0,0,0,1.46.7l.78,0,.34,0,.24.07,0,.16c.15,0,.23-.3.41-.16,0,.06,0,.15,0,.15s.33-.3.52-.24l-.12.19c.76.07,1-.63,1.46-.92.15.41.73.32,1,.24l0,.06c.79-.37,1-1.08,1.44-1.71a1.37,1.37,0,0,0,.94-.6,3.18,3.18,0,0,1,.77-.81c-.11,0-.27-.22-.24-.32s0-.48.28-.19l0,0c.36.19.41,0,.52-.08l-.31-.44a2,2,0,0,0,.34.11c.1,0,.16-.09.28-.12s.23,0,.12.26c.11-.09.12-.07.22-.15l0,0c.33-.22.25,0-.29-.25l-.08-.07,0,0,.07,0-.11-.06h0l.06.07a2.59,2.59,0,0,1,.19.23c.12.18.22.37.14.46l-.35-.24a1.13,1.13,0,0,1-.53.28.72.72,0,0,0-.41.44c0-.06-.07-.17,0-.22-.15.1-.74,0-.49.54-.12-.34-.42.08-.64.3l0-.28c-.12.4-.13.48-.41.63-.08,0-.09-.22,0-.16-.25-.11-.15.3-.47.17l.1-.19c-.25,0-.22.09-.35.31s-.49-.06-.53-.31c0,.15-.17.36-.33.29a.2.2,0,0,1,.07-.19c-.42-.19-.66.3-.94,0a.3.3,0,0,0,0-.17,2.89,2.89,0,0,1,.59.07c0-.26-.26-.31,0-.66-.21.19-.62.59-.89.45a.3.3,0,0,1,0-.1l0,0a.17.17,0,0,0-.18,0,.49.49,0,0,0-.22-.1c0-.21-.31-.14-.45-.17,0,.29-.2.22,0,.47,0,0,0,0,.12,0s0,0,.06,0v0H47c-.12.13-.25.24-.39.07l-.24.43c-.16-.4-.51-.65-.54-.9-.45.12-1,0-1.38.51-.13.05-.13-.17-.17-.25s.16,0,.21-.11c-.27.12-.76,0-.84.36-.32-.18.2-.33-.25-.29l.07-.11c-.43-.32-.82-.08-1.18.13a1.56,1.56,0,0,1-1.38.22c.09,0,.14,0,.17.08a1.49,1.49,0,0,0-1,.44,1.62,1.62,0,0,0-.46,1.16,3.94,3.94,0,0,0,.93,2c.33.32.49.11.75,0,0,.11,0,.22,0,.32a1.69,1.69,0,0,0,.46-.31.61.61,0,0,1,.18,0,6.25,6.25,0,0,1,.75.1.66.66,0,0,0,.71-.51l-.21-.09c.23-.13.39-.65.56-.49,0,0-.14-.18,0-.2l.14.07a2.81,2.81,0,0,0,0-.65c.23-.4.6.28.78-.45,0-.32-.43-.8-.53-.69a.28.28,0,0,1-.26.26l-.08-.2a1.9,1.9,0,0,0-1.27.21,2.84,2.84,0,0,1,.26.24l-.24,0c0-.06,0-.11,0-.16-.22,0,0,.13.06.23a.74.74,0,0,0-.27,0,2.24,2.24,0,0,1,.35.34c-.18-.05-.3-.22-.44-.15.14.17.41.09.46.3-.24,0-.37-.13-.28.06a.31.31,0,0,1-.18-.18c.07.16-.08.22.06.42-.25-.11-.18.22-.39-.17.06.1.07.36,0,.4,0-.3-.07-.26-.11-.27s-.08,0,0-.32c0,.24-.09.3-.15.29a.37.37,0,0,0-.24,0s.09-.07.08,0,.08-.18.14-.25a.83.83,0,0,1-.73.16c.34-.21.46-.1.79-.27-.31.13-.32,0-.58.09l.18,0h.05a.29.29,0,0,1-.17,0l.07,0h0l.14.12h0Zm6-.2h0Zm.62,0a1.85,1.85,0,0,0-.27,0c0-.09,0-.19.08-.18S47.81,35.09,47.89,35.18Zm-1.13-2c.1,0,.13,0,.13.09l-.16,0,0,0C46.73,33.23,46.74,33.18,46.76,33.14Z"/><path class="cls-3" d="M46.56,33.5h0l0,.07,0-.08Z"/><path class="cls-3" d="M48.42,35.15h0a.08.08,0,0,1,0,0S48.43,35.16,48.42,35.15Z"/><polygon class="cls-3" points="53.99 29.8 53.97 29.86 54.08 29.85 53.99 29.8"/><path class="cls-3" d="M51.86,37.25a.3.3,0,0,0,.1.09Z"/><path class="cls-3" d="M53.48,37.26l.3,0Z"/><path class="cls-3" d="M54.69,36.88l-.1-.08h0Z"/><path class="cls-3" d="M48.4,33.5v0C48.37,33.35,48.38,33.42,48.4,33.5Z"/><path class="cls-3" d="M47.11,38.05a1,1,0,0,1,0-.18C47.07,37.9,47,37.91,47.11,38.05Z"/><polygon class="cls-3" points="52.69 29.56 52.69 29.57 52.74 29.6 52.69 29.56"/><path class="cls-3" d="M47.28,37.75c-.09,0-.13,0-.14.12S47.27,37.83,47.28,37.75Z"/><path class="cls-3" d="M52.4,33.15l0,0,0,0Z"/><path class="cls-3" d="M52.32,33.13l-.08,0S52.29,33.14,52.32,33.13Z"/><path class="cls-3" d="M52.08,33.05l.16.05A.17.17,0,0,0,52.08,33.05Z"/><path class="cls-3" d="M53.62,34.28h0Z"/><path class="cls-3" d="M54,34.59c-.07-.07-.06-.22-.25-.33h-.07C53.9,34.3,53.81,34.55,54,34.59Z"/><path class="cls-3" d="M53.29,35.36l.18-.08s0,0,0-.06a3.68,3.68,0,0,1-.81-.2c-.34,0-.2,0,.08.06S53.45,35.22,53.29,35.36Z"/><path class="cls-3" d="M52.33,35.69c0-.12-.38-.21-.51-.3A1,1,0,0,0,52.33,35.69Z"/><path class="cls-3" d="M45.49,35.86l-.18-.18C45.2,35.86,45.38,35.74,45.49,35.86Z"/><path class="cls-3" d="M46.19,37.61l.15-.08-.24,0S46.15,37.59,46.19,37.61Z"/><path class="cls-3" d="M45.52,39.47l-.13,0a4.12,4.12,0,0,0,.47.13Z"/><path class="cls-3" d="M52,32.65l.28-.14C52.19,32.45,51.86,32.57,52,32.65Z"/><path class="cls-3" d="M49.51,33.12c0-.17,0-.34-.22-.26C49.39,32.94,49.44,33.12,49.51,33.12Z"/><path class="cls-3" d="M52.49,32.05s0,.08,0,.12a.53.53,0,0,0,0-.12Z"/><path class="cls-4" d="M153.85,76.36c.1-.08.28-.3.2-.3l-.36.34Z"/><path class="cls-4" d="M154.17,75.42a3.12,3.12,0,0,0-.82.77c.37-.31.25-.16.68-.53.08,0,0,.19-.16.31.1-.08,0,.15.22-.07s.14-.41-.14-.24A2.61,2.61,0,0,1,154.17,75.42Z"/><path class="cls-4" d="M150.54,71.08v.07A.2.2,0,0,0,150.54,71.08Z"/><path class="cls-4" d="M148.17,68.53s.07,0,.1,0A.19.19,0,0,0,148.17,68.53Z"/><path class="cls-4" d="M148.11,67.73v0S148.14,67.71,148.11,67.73Z"/><path class="cls-4" d="M150.54,71.08l0-.18C150.46,71,150.53,71,150.54,71.08Z"/><path class="cls-4" d="M152.8,75.79a.22.22,0,0,0,.12-.06h-.07Z"/><path class="cls-4" d="M151.94,71.82l0,0,.15-.14Z"/><path class="cls-4" d="M152.86,72.55a3,3,0,0,0-.43.4.68.68,0,0,1,.24-.17Z"/><path class="cls-4" d="M153.74,74.35l.07,0Z"/><path class="cls-4" d="M151.38,71.18l.1-.11A.52.52,0,0,0,151.38,71.18Z"/><path class="cls-4" d="M125.56,50.55l0,0Z"/><polygon class="cls-4" points="126.11 48.12 126.14 48.12 126.31 47.96 126.11 48.12"/><path class="cls-4" d="M147.69,66.59h0C147.74,66.59,147.72,66.58,147.69,66.59Z"/><path class="cls-4" d="M140.27,60c-.18.35-.47.22-.63.64C139.74,60.49,140.2,60.25,140.27,60Z"/><path class="cls-4" d="M152.81,75.73s0,0,0,0S152.79,75.74,152.81,75.73Z"/><path class="cls-4" d="M139.64,60.62h0v0Z"/><path class="cls-4" d="M145.7,65.07a1.16,1.16,0,0,0-.11.16Z"/><path class="cls-4" d="M146.64,66.78v-.07S146.63,66.77,146.64,66.78Z"/><path class="cls-4" d="M144.58,64.85s0-.09,0-.07l0,0C144.58,64.79,144.61,64.78,144.58,64.85Z"/><path class="cls-4" d="M143.85,64.16l0,.07h0Z"/><path class="cls-4" d="M127.85,52.61a3.15,3.15,0,0,1,.24-.3C127.89,52.53,127.71,52.5,127.85,52.61Z"/><path class="cls-4" d="M153,75.62c-.08.07-.12.11-.15.11h0Z"/><path class="cls-4" d="M142.27,67.24l-.07-.16A.24.24,0,0,0,142.27,67.24Z"/><path class="cls-4" d="M133,57.7H133S133,57.73,133,57.7Z"/><path class="cls-4" d="M141.81,66.8a.8.8,0,0,0,.13-.28l-.09.07Z"/><path class="cls-4" d="M128.09,52.31Z"/><path class="cls-4" d="M126.64,52.25c.1.12.43-.33.68-.53.24,0-.23.35-.39.59.19,0,.61-.31.66-.24a.69.69,0,0,1-.17.17c.4-.22.26.24.76,0l-.09.11a7.18,7.18,0,0,1,.53-.55s.34-.16.1.12c0,0-.13.06-.23.12l.17-.06c-.33.42-.2.06-.47.33.21,0,.64-.2.61,0-.35.37-.3-.06-.53.36l0-.26c-.49.66,0-.11-.56.58,0,.26.35,0,.4.25.23-.16.29-.31.52-.47.58-.14-.74,1.07-.1.76.29-.2.76-.63.63-.28l-.44.37c.1.19.67-.5.55-.07-.19.13-.25,0-.28.09-.22.42.3-.16.38-.08l-.35.37c.22.11.66,0,.9.14a.87.87,0,0,0-.33.33c.4,0,.43.52.43.95l.39-.23s-.11.17-.19.21c0,.2.21-.19.37-.27s-.12.24-.24.3c.41-.11,1-.14.81.34l-.12.07c0,.24.77-.5.59-.1l-.07,0c.12.4.7.41.43,1.08.49-.42.06.46.7-.15-.16.46-.31.52-.31.94,0,.09.48-.3.61-.3l-.32.33.43-.25-.33.44.15,0a.65.65,0,0,1,.18-.29c.25-.05,0,.48-.14.65l.52,0a1,1,0,0,1-.34.19c.46-.21-.32.37.11.18a1.27,1.27,0,0,1,.27-.25c-.14.25,0,.39.18.4l-.25.21c.13.24.49.27.69.47,0-.18.44-.55.53-.53l-.31.37c.25-.18.06-.19.4-.38,0,.12-.34.45-.49.52l.21,0c-.1.11-.17.14-.31.27.25-.18-.19.5.24.18l-.1.11c.2.2.41.17.59.32.3-.3.3-.17.59-.36,0,.21-.07.58.1.7.25,0,.28-.23.5-.36-.26.28-.08.4-.35.52a1,1,0,0,0,.72.16c.08-.13.1-.21.21-.29s0,.21-.16.33l0,0c.65-.17-.21,1.37.55,1h0l.5-.09c0,.14-.26.15-.35.39.67-.25.29.41.77.28-.65,1,.56.43.25,1.14l.17-.21c.24-.14,0,.17-.05.25.14-.15.12-.22.25-.3.64.18.6,1.12.87,1.72.11.2,1-.92.8-.26l-.4.3c.74-.12.65.64,1.31.58-.1.06-.2.17-.23.14-.18.32.24.25.44,0,0,.08-.17.21-.25.34s.49-.17.28.12a.27.27,0,0,1-.13.08c.16-.09.17.23.41-.12,0,.26.36.08.28.35.38-.28.05.36.52-.1-.47.48-.17.59.13.43-.17.13-.08.22-.31.4.1.07.26,0,.49-.21-.4.74.76-.18.14.66a3.8,3.8,0,0,1,1.24.12c-.47.48-.3-.19-.77.33.41,0,.93-.3,1,0,0,.12-.23.19-.33.25.41,0,.38.44.83.36a.56.56,0,0,1-.17.09s0,.16.23-.07l-.1,0c.25-.38.79-.54,1-.7-.67.58,0,.34-.82,1.06a.92.92,0,0,0,.33-.26c0,.08-.08.18-.27.32.25,0,.42-.28.54-.16a2.62,2.62,0,0,1-.3.24c.26-.15.52-.3.54-.11s-.13.15-.16.12c.21.14.83-.28.84.11-.5.42-.08.22-.45.64l.22,0,.14-.24c.09.09.45-.13.4.08l-.22.1.25.09,0-.25c.29-.13.47-.53.49-.3-.06,0,.09.09-.09.38h0c.17-.09.34-.18.32,0s-.44.44-.51.54c.37-.3.31.11.71-.21a2.71,2.71,0,0,0-.34.34l.3-.25a.7.7,0,0,1-.24.35c.08.17.44-.56.39-.19a1.31,1.31,0,0,1-.13.07c.05.26.46.1.48.37-.34.46-.22,0-.49.38.27.12.88-.1,1,.18V71.4c.57-.56-.11.42.24.24a1.28,1.28,0,0,0-.26.24c0,.22.41.11.78.11l-.16.13c0,.21.14.27.17.42.16-.12.19-.05.36-.3-.52,1.1.93,0,.51.94,0,0-.18.07-.16.09l.33,0c.22-.27.11-.18.25-.42s.33-.19.38-.15c-.24.09-.37.41-.46.59.06-.08.15-.16.22-.24-.31.55.49-.5.36-.06l-.13.13c.11,0,.32-.15.35-.06-.25.32-.19.08-.41.32.1.06.67-.41.48-.05-.11.05-.16,0-.27.06-.24.42-.15.34-.14.45h0v.28l.05-.12c.8-.68.34,0,.94-.34-.57.36-.28.26-.59.59a.8.8,0,0,1-.2.36c.32-.21-.08.31.37,0-.09.11.06.07-.2.33.16,0,.15-.2.28-.33.47-.26-.09.72.56.39.35-.07.71-.4,1-.45a1,1,0,0,1-.4.36c-.06.23,0,.26.21.2a1.21,1.21,0,0,0-.24.32c.09,0,.4-.36.34-.12a5.45,5.45,0,0,1-.46.38c.17,0,.42-.17.59-.2a1.19,1.19,0,0,1-.45.34.82.82,0,0,0,.68-.24l0-.16s-.22.27-.29.31c-.29.17,0-.2.08-.32l.12,0c.51-.69-.31-.09-.39-.23l.46-.42-.45.29c.08-.15.3-.42.41-.44.13-.3-.21.1-.05-.22a.22.22,0,0,1,.07-.07l-.2.07c.11-.09.29-.34.27-.23.11-.39-.53.15-.27-.25l0,0c-.33,0-.33.32-.83.59l.66-.92-.32.32s0-.09.1-.22c-.28.17-.12.16-.36.34.19-.39-.39-.09.08-.65-.27.23-.09.28-.36.37.5-.61-.2,0-.05-.35.3-.28.24,0,.4-.39-.52.46-.07-.26-.23-.23-.37.4-.31,0-.56,0,.13-.13,0-.43,0-.68l.06-.07c-.39.39-.44.21-.6.22a1.47,1.47,0,0,1,.47-.39l-.08-.07a.5.5,0,0,1-.32.15l.3-.28c-.12-.08-.54.16-.49-.17-.27.28-.61.89-.93.95A2.1,2.1,0,0,1,151,72s-.16.08-.12,0l.29-.21c0-.17-.23.19-.26.12.2-.22.11-.19.27-.36,0,0,0,.13.06.06a.74.74,0,0,1,.16-.47c-.11.13-.27.3-.33.29s.2-.3.24-.47c-.16.13-.09-.09-.39.24,0,0,.11-.19.18-.29-.19.1-.3-.19-.56.21v0h0c-.48.16-.21-.52-.51-.55l.1-.11c-.22,0-.31-.14-.6,0,0,0,.11-.27.24-.39-.16,0-.28.12-.23-.17.26-.11.13-.19.21-.06,0-.19.12-.39-.27-.19.3-.25.25-.43.12-.39l-.11.27c-.09,0-.12-.08-.15-.15l.37-.35c.2-.64-1.09.4-.56-.49-.3.2-.05.29-.38.54-.06-.14.33-.76.3-.79.05-.33-.62.41-.64.14-.1.15-.41.52-.63.54,0-.14.39-.66.55-.71s0,.07,0,.11a.37.37,0,0,0,.27-.21l-.14.12c.08-.18-.07-.29.16-.48a.31.31,0,0,0-.24.3c.05-.3-.19-.18-.21-.43,0,.09-.17.26-.19.24,0-.34-.31.17-.49.1.11-.26.47-.45.18-.4,0-.21.31-.36.44-.44-.36.14-.07-.37-.1-.48l.16,0a.12.12,0,0,1-.15,0l-.21.29c0-.08,0-.11.08-.21-.2.13-.38.46-.67.62.08-.18-.28,0,0-.36,0,.26.3-.36.48-.3-.06,0-.09,0-.08-.09a.35.35,0,0,1,.1-.08c.14-.44-.43.33-.58.18.2-.17.31-.4.25-.38s-.28.35-.47.45c0-.25-.22,0-.25-.06v.13c-.2.18-.22.1-.35.1.14-.15.16,0,.2-.13-.4.27.16-.52-.16-.39.07-.17.33-.36.37-.49-.35.14.13-.39-.19-.3-.21.3-.15.24-.47.41h.37l-.48.25c.05.07.28,0,.28,0-.27.16-.2.1-.37.34.28-.47-.38.07-.23-.28l.61-.65c.12-.42-.57.09-.61-.25l0,.17c-.26.23-.15-.08-.31,0a2,2,0,0,0,.35-.48c-.15.16-.13-.15-.55.27l.18-.37c0-.26-.75.45-.83.24.27-.19.34-.41.6-.48-.05,0-.05-.13-.2,0,.1-.17-.41.16-.26-.09-.11.07-.33.29-.37.22a.84.84,0,0,1,.1-.1c-.1.1-.22.06-.4.34.49-.81-.47-.35-.05-1a1.23,1.23,0,0,1-.48-.16c.06-.06.1-.11.1-.07,0-.32-.67.54-.61.17.25-.42.26-.11.33-.28.65-.73-.27-.08,0-.59l.06,0c.15-.31-.44.09-.52-.09a.84.84,0,0,0,.1-.1,1.29,1.29,0,0,1-.93.22c.3-.24.2-.1.44-.4-.09,0-.41.47-.6.44a3.2,3.2,0,0,1,.43-.7l.12.08c.32-.44-.15-.11-.14-.23l.17-.17c-.21-.09-.62.33-.76.14l-.11.14c-.49.33.15-.31-.24-.09l.38-.45a3,3,0,0,1-.8.18,4,4,0,0,1,.91-.41c-.05-.06-.23-.16-.47,0,.07,0,.2-.1.16,0-.4.27-.65.34-.77.21.82-.8-.12-.51.42-1.24-.51.1-.3-.54-.6-.73-.53.73-.09-.05-.71.62-.1,0-.11,0-.08-.09l.21-.56c.14-.24.19-.1.33-.25-.08-.17.22-.33.3-.59-.21.26-.37.3-.35.14l-.19.4c-.52.18.38-.7-.14-.53l.26-.15c-.21,0-.33-.33-.94.11.06-.09.21-.29.3-.3-.14-.29-1,.09-.89-.4l.18-.15c-.09,0-.37.23-.26,0s.17-.14.16-.17-.38.18-.34,0l.22-.13c0-.42-.76.12-1,0a1.14,1.14,0,0,0,.43-1l.07-.06c-.19-.3-.8,0-1.21-.06.36-.65-.27-.69-.22-1.2a1.1,1.1,0,0,1-.45.37c0-.15-.47.18,0-.25v0c.38-.46.16-.46.08-.55l-.57.55c.59-1.05-.88-.29-.28-1.14-.19.09-.26,0-.45.1l.3-.29a.55.55,0,0,0-.36-.45l.25-.18c-.09-.12-1,.74-1.11.66l.42-.48c-.19-.17,0-.75-.57-.52.07-.07.21-.19.25-.18s0-.63-.61,0c.4-.4-.15-.22-.42-.15l.31-.28c-.46.3-.57.4-.79.39,0-.07.22-.26.18-.15.06-.25-.35.21-.31-.06l.23-.15c-.07-.11-.16,0-.43.16s-.11-.25.15-.53c-.18.15-.45.31-.43.18a.7.7,0,0,1,.22-.17c0-.36-.58.11-.39-.29l.16-.19c.11.13.2.25.17.26.27-.27.22-.42.67-.72-.28.13-.87.43-.84.21L132,52l0,0s0,0-.11,0,0-.13,0-.16c.22-.24,0-.24,0-.3-.3.3-.31.19-.5.49,0,0,.05,0,.09,0h.05l0,0a.72.72,0,0,1,.15.11c-.19.11-.36.19-.25,0l-.55.41c.35-.48.44-.84.68-1.11-.32,0-.47-.26-1.13.2-.12,0,.11-.21.18-.31s.11,0,.2-.06c-.23.06-.31-.2-.73.16.07-.28.43-.29.21-.38l.14-.1c.34-.92-1.48.5-1-.63a.46.46,0,0,1-.1.18c0-.73-1.1-.45-.9-1.38,0-.22-.25,0-.51.13l.3-.34-.48.26c-.43.11.53-1.05-.18-.75l-.2.24c0-.11-.35-.1-.08-.33,0,0-.25.19-.17.05l.17-.16-.46.1c0-.25.69-.63.53-.86a1.85,1.85,0,0,0-.79.4s0,.18-.2.35l-.15,0a4.7,4.7,0,0,0-1.27,1.42l.42-.18-.2.28-.12-.09c-.17.28.07.12.24,0a1.4,1.4,0,0,0-.22.31l.59-.35c-.18.21-.44.33-.47.51.28-.16.39-.48.62-.53-.17.28-.37.44-.11.32a.85.85,0,0,1-.3.23c.21-.09.21.09.51-.14-.22.33.26.13-.22.58.14-.09.48-.26.55-.22-.66.45.16.23-.47.8.58-.43.48,0,.89-.11,0,0-.15.1-.13.06s-.11.29-.16.43a3.15,3.15,0,0,1,1-.58c-.32.48-.55.43-.91.84.33-.34.49-.18.74-.49a1.81,1.81,0,0,1-.38.55c.54-.5.15,0,.53-.28-.16.35-.47.51-.2.46A.71.71,0,0,1,126.64,52.25Zm3.41,1.66h0l-.07,0Zm.21.21a.21.21,0,0,0-.08-.11c.1-.11.21-.21.23-.18S130.32,54,130.26,54.12Zm1.63-2.51c.08,0,0,.06,0,.13s-.05,0-.1,0l0,0Z"/><path class="cls-4" d="M131.44,51.94h0l0,.08.1-.08Z"/><path class="cls-4" d="M150.52,71.16h0l0,0Z"/><polygon class="cls-4" points="132.62 57.62 132.7 57.54 132.61 57.59 132.62 57.62"/><path class="cls-4" d="M150.77,73.34a.21.21,0,0,0-.06.1A.44.44,0,0,0,150.77,73.34Z"/><path class="cls-4" d="M151.23,73.89l0,.18A.73.73,0,0,0,151.23,73.89Z"/><path class="cls-4" d="M151.5,74.42l.13-.13h0Z"/><path class="cls-4" d="M144.74,68.87h0C144.62,68.9,144.67,68.9,144.74,68.87Z"/><path class="cls-4" d="M147.31,69.92l-.19.09S147.15,70.09,147.31,69.92Z"/><polygon class="cls-4" points="142.28 67.25 142.28 67.25 142.27 67.23 142.28 67.25"/><path class="cls-4" d="M147,69.92c0,.09,0,.11.09.09S147.1,69.9,147,69.92Z"/><path class="cls-4" d="M153.13,76.15v0l.05-.05Z"/><path class="cls-4" d="M153.19,76.13l.06,0A.06.06,0,0,0,153.19,76.13Z"/><path class="cls-4" d="M153.36,76.08l-.11,0S153.27,76.16,153.36,76.08Z"/><path class="cls-4" d="M152.73,75.52l-.11.11Z"/><path class="cls-4" d="M152.53,75.4c0,.07-.12.33,0,.31l.09-.08C152.44,75.77,152.74,75.25,152.53,75.4Z"/><path class="cls-4" d="M153.11,73.39l.06.21c.08-.14.2-.33.29-.31C153.61,72.78,153.25,73.6,153.11,73.39Z"/><path class="cls-4" d="M152.85,72.83c.12,0,.16-.18.22-.24C152.93,72.65,152.89,72.67,152.85,72.83Z"/><path class="cls-4" d="M149.8,70l.27-.27C150,69.76,150,69.88,149.8,70Z"/><polygon class="cls-4" points="147.88 70.97 147.77 71.19 148.03 70.96 147.88 70.97"/><polygon class="cls-4" points="149.39 68.64 149.45 68.62 149.26 68.64 149.39 68.64"/><path class="cls-4" d="M144.24,64l-.31.36C144,64.34,144.4,64,144.24,64Z"/><path class="cls-4" d="M141.74,62.29c.14-.19.19-.36,0-.23C141.76,62.13,141.68,62.31,141.74,62.29Z"/><polygon class="cls-4" points="135.86 55.49 136.01 55.42 135.84 55.43 135.86 55.49"/><path class="cls-4" d="M144.31,75c0,.13-.05.42,0,.37l.07-.5Z"/><path class="cls-4" d="M144.43,75.92a5.8,5.8,0,0,0,.17-1.11c-.09.47-.08.27-.17.83,0,.06,0-.16,0-.34,0,.12,0-.12-.08.19s0,.41.14.1A3.31,3.31,0,0,1,144.43,75.92Z"/><path class="cls-4" d="M147.44,77l0-.06S147.43,77,147.44,77Z"/><path class="cls-4" d="M149.32,77.43s0,.06,0,.11A.29.29,0,0,0,149.32,77.43Z"/><path class="cls-4" d="M149.59,78v0S149.58,78.05,149.59,78Z"/><path class="cls-4" d="M147.44,77l0,.16C147.49,77,147.46,77,147.44,77Z"/><path class="cls-4" d="M145,74.76l0,.13,0,0Z"/><path class="cls-4" d="M146.56,77.3h0l0,.2Z"/><path class="cls-4" d="M145.91,77.32s.05-.4.08-.59a2.91,2.91,0,0,1-.06.29Z"/><path class="cls-4" d="M145,76.48l0,.06Z"/><path class="cls-4" d="M147,77.44v0Z"/><path class="cls-4" d="M152.94,69.67l.07,0S152.94,69.66,152.94,69.67Z"/><polygon class="cls-4" points="154.67 68.29 154.7 68.29 154.92 68.22 154.67 68.29"/><path class="cls-4" d="M150.14,78.6h0S150.12,78.63,150.14,78.6Z"/><path class="cls-4" d="M156.87,78.71c-.31-.34-.17-.47-.54-.85A3.91,3.91,0,0,0,156.87,78.71Z"/><path class="cls-4" d="M145,74.82h0S145,74.8,145,74.82Z"/><path class="cls-4" d="M156.33,77.86h0l0,0Z"/><path class="cls-4" d="M151.53,78.48V78.3A.82.82,0,0,0,151.53,78.48Z"/><path class="cls-4" d="M150.57,77.79l0,.06A.32.32,0,0,0,150.57,77.79Z"/><path class="cls-4" d="M152.12,77.94s0,.09,0,0v0S152.13,78,152.12,77.94Z"/><path class="cls-4" d="M152.67,78v-.08l0,0Z"/><path class="cls-4" d="M153.67,71.2l.35-.14C153.74,71.16,153.61,71.12,153.67,71.2Z"/><path class="cls-4" d="M145,75a.65.65,0,0,1,0-.18s0,0,0,0S145,75,145,75Z"/><path class="cls-4" d="M152.46,74.63l.08.07A.13.13,0,0,0,152.46,74.63Z"/><path class="cls-4" d="M154.84,74.46h-.05S154.79,74.46,154.84,74.46Z"/><path class="cls-4" d="M152.81,74.67a1.65,1.65,0,0,0,0,.29l0-.11Z"/><path class="cls-4" d="M154,71.05h0Z"/><path class="cls-4" d="M152.89,70.83c0,.08.53-.14.83-.23s-.37.18-.62.3c.15,0,.65-.1.65-.05l-.23.08c.44-.08.08.17.63.07l-.12,0,.71-.25s.36,0,0,.08c0,0-.14,0-.25.05l.16,0c-.48.21-.19,0-.55.14.19,0,.62,0,.5.06-.48.18-.21-.07-.61.15l.16-.15c-.74.32,0-.07-.76.27-.1.16.29,0,.18.2.28-.07.4-.14.68-.21.53,0-1.17.54-.49.44.33-.08.94-.27.65-.08l-.55.16c0,.13.8-.21.47,0-.22.06-.21,0-.27,0-.4.22.33,0,.35,0l-.48.18c.12.09.51.1.64.2a1.91,1.91,0,0,0-.44.15c.3.08.06.37-.17.63l.43-.08a.87.87,0,0,1-.26.1c-.14.11.26-.09.44-.11s-.23.12-.36.14c.39,0,.87,0,.46.32l-.13,0c-.14.15.89-.19.53,0H155c-.12.26.34.34-.24.71.62-.15-.25.14.61-.08-.41.16-.57.18-.85.27,0,0,.56-.07.66,0l-.47,0,.51,0-.57,0h.13l.35,0c.23,0-.32.08-.57.07a3.49,3.49,0,0,1,.43.07l-.4,0c.52.06-.53,0,0,0l.4,0c-.3,0-.3,0-.16,0l-.36-.07c-.09,0,.19.07.19.11.17,0,.82.24.89.28l-.57-.18c.36.13.21,0,.66.22a7.45,7.45,0,0,1-.85-.28l.21.09-.49-.17c.36.14-.59-.21.05,0l-.18-.07a1.31,1.31,0,0,1,.24.14c.53.27.41.22.84.46-.17-.05-.58-.26-.54-.21.26.19.44.3.75.51a8.68,8.68,0,0,1-.78-.49c.07.09.09.1.42.45.19.14.28.2.43.33s-.22-.13-.43-.31l0,0c.3.31-.07.07-.36-.19s-.52-.49-.16-.06l0,0c.12.15.22.3.33.45-.09-.07-.24-.31-.47-.56.49.69-.14-.1.15.36-.42-.61-.4-.59-.37-.52s.06.2-.13-.18l.13.28c.12.28-.08-.16-.11-.22.1.21.11.25.18.4,0,.33-.32-.42-.29-.66,0-.07,0,1.39,0,.75l0-.5a.5.5,0,0,1,0,.25.25.25,0,0,1-.17,0c-.12,0-.25-.07-.39.17,0-.11,0-.26.06-.26,0-.36-.18,0-.21.26a3.26,3.26,0,0,1,0-.42c0-.21-.17.45-.16.09a.37.37,0,0,1,0-.14c-.05.17-.15-.06-.15.35-.07-.2-.19.17-.24-.08-.09.46-.13-.24-.21.42.07-.68-.1-.56-.19-.25,0-.2,0-.22,0-.5-.06,0-.14.12-.16.47,0-.82-.3.63-.27-.41a2.68,2.68,0,0,1-.61.71c.07-.67.2-.05.26-.75-.19.26-.34.83-.49.65a1,1,0,0,1,.08-.4c-.19.26-.31-.1-.49.26a.48.48,0,0,1,0-.18s-.06-.11-.09.2l0-.08a6.22,6.22,0,0,1-.23,1.15c.13-.87-.12-.23.06-1.34a1.41,1.41,0,0,0-.08.41.89.89,0,0,1,0-.41c-.12.15-.11.48-.2.47s0-.21.06-.38c-.07.28-.15.57-.21.43s0-.2,0-.2c-.14,0-.31.75-.43.46.11-.64,0-.22,0-.78l-.1.16v.27c-.07,0-.17.39-.22.2l.08-.22-.14.09,0,.22c-.1.28-.06.7-.14.54s-.07,0-.07-.35h0c-.05.18-.1.36-.14.22s.07-.62.07-.74c-.08.46-.18.12-.27.61a3.35,3.35,0,0,0,.06-.47l-.07.38a1.21,1.21,0,0,1,0-.42c-.09-.08,0,.71-.12.39a.63.63,0,0,1,0-.14c-.1-.17-.25.22-.34,0,0-.56.11-.12.12-.6-.17.09-.39.64-.52.5l0,.06c-.1.79-.07-.4-.18,0a3.39,3.39,0,0,0,.05-.35c-.09-.13-.23.18-.4.41l0-.2c0-.19-.14-.12-.2-.22a1.61,1.61,0,0,0-.08.47c-.09-1.18-.44.58-.52-.4,0,0,.07-.17,0-.18l-.17.18a2.42,2.42,0,0,0,0,.48c0,.2-.1.36-.14.35a1.92,1.92,0,0,0,0-.75l0,.33c0-.62-.08.7-.15.27l0-.18c-.05.09-.11.33-.15.27,0-.4.06-.18.09-.51-.06,0-.19.74-.21.34,0-.11.08-.11.11-.21,0-.48,0-.36-.07-.44h0l-.09-.22,0,.13c-.18,1-.18.18-.34.85a2.6,2.6,0,0,0,.1-.83,1.28,1.28,0,0,1,0-.39c-.08.36,0-.3-.17.23,0-.15-.05,0,0-.39-.07.11,0,.26,0,.44-.14.49-.17-.62-.37,0-.15.27-.22.76-.36,1a1.88,1.88,0,0,1,.08-.53c0-.22-.09-.19-.16,0a1.7,1.7,0,0,0,0-.4s-.08.52-.12.3.06-.42.1-.58c-.07.13-.15.4-.21.52a2.76,2.76,0,0,1,.1-.54,1.15,1.15,0,0,0-.24.61l0,.15a1.41,1.41,0,0,1,0-.42c.09-.31.07.15,0,.29l0,.09c0,.86.17-.12.25-.06l-.1.62.13-.51a1.82,1.82,0,0,1-.06.6c0,.31.07-.22.09.13a.27.27,0,0,1,0,.11l.08-.18c0,.13,0,.44-.06.35.07.36.21-.45.2,0v0c.16-.2.06-.46.21-1l0,1.13,0-.46s0,.06,0,.24a4.81,4.81,0,0,0,.07-.49c0,.42.21-.18.16.55.05-.34,0-.27.05-.51-.05.79.1-.12.13.24s-.1.19-.07.55c.11-.68.11.16.18,0,0-.55.14-.22.24-.39,0,.18.15.31.21.52v.09c.07-.55.15-.44.22-.54a2.28,2.28,0,0,1-.11.6h.06a.63.63,0,0,1,.11-.32l-.06.4c.08,0,.21-.46.28-.18a5.65,5.65,0,0,1,.15-1.32,3.17,3.17,0,0,1-.08.65s.05-.17.06-.08l-.07.34c0,.16,0-.29.08-.25,0,.29,0,.21,0,.44,0,0,0-.12,0,0a1.15,1.15,0,0,1,.06.47,1.58,1.58,0,0,1,.07-.44c.08,0,0,.36,0,.52,0-.21.07,0,.11-.43a1.43,1.43,0,0,1,0,.33c.06-.19.19,0,.19-.51v0h0c.18-.43.26.28.41.1l0,.15c.1-.16.19-.09.28-.4a1.26,1.26,0,0,1,0,.45c.07-.1.09-.27.16,0-.09.25,0,.23-.08.19.06.13.06.37.18,0-.06.38,0,.49.06.38l0-.28c.05-.05.09,0,.12,0l-.07.5c.11.62.39-1,.42,0,.07-.34-.07-.25,0-.66a5.43,5.43,0,0,1,.1.8c.08.29.16-.71.25-.52a2.8,2.8,0,0,1,.13-.81,2.1,2.1,0,0,1,0,.89s0,0,0-.1a.55.55,0,0,0-.06.33l0-.18c0,.19.12.18.07.47a.54.54,0,0,0,0-.39c.07.27.14,0,.23.2a1.25,1.25,0,0,1,0-.3c.12.23.1-.33.2-.4,0,.28-.08.64,0,.43a1.49,1.49,0,0,1-.07.61c.12-.33.14.24.19.31l-.06.14c0-.09.06-.08.08-.08v-.35a.33.33,0,0,1,0,.21c.05-.23,0-.59.12-.9,0,.18.13-.19.1.29-.1-.18,0,.47-.14.54s0,0,.07,0a.33.33,0,0,1,0,.12c.07.44.1-.52.21-.5,0,.26,0,.5,0,.45s0-.44.08-.64c.05.21.09-.15.13-.12l0-.1c0-.27.08-.23.14-.31,0,.21-.06.14,0,.23.1-.46.08.5.19.19,0,.18-.05.5,0,.62.13-.33.07.38.19.1a1.26,1.26,0,0,1,.09-.61l-.18.23.15-.5c-.05,0-.12.21-.14.15a1.41,1.41,0,0,0,.07-.5c0,.54.15-.3.19.07l-.08.88c.07.41.23-.43.36-.2l0-.15c0-.35.09,0,.15-.18a4,4,0,0,0,0,.59c0-.22.1,0,.17-.56l0,.39c.1.18.21-.82.31-.71a3.4,3.4,0,0,1-.13.75s.07.07.09-.14c0,.19.14-.39.14-.1,0-.13.07-.44.11-.41a.88.88,0,0,1,0,.15,1.61,1.61,0,0,0,.08-.53c0,.93.33,0,.35.77a.63.63,0,0,1,.28-.19c0,.08,0,.14,0,.11.08.28.14-.84.23-.52,0,.48-.09.25-.07.43-.07,1,.16-.12.18.46l0,0c0,.34.18-.35.27-.27a.71.71,0,0,0,0,.14,1.42,1.42,0,0,1,.37-.76,2.2,2.2,0,0,0-.09.58c.07,0,0-.62.15-.72A5.12,5.12,0,0,1,154,78h-.12c0,.54.16,0,.22.09v.24c.2-.06.16-.65.34-.6l0-.18c0-.58.12.34.15-.09l.12.61c.06-.14.12-.57.19-.67a2.23,2.23,0,0,1-.08.92c.07,0,.24,0,.2-.32,0,.06,0,.2-.06.11,0-.47,0-.7.11-.68.35,1.18.41.33.88,1.24.05-.44.59.16.83,0-.61-.84.07,0-.5-.91,0-.06,0,0,.09,0s.33.33.5.48.08.19.21.38c.17,0,.3.34.55.52-.23-.29-.26-.43-.11-.35l-.37-.34c-.16-.47.66.61.51.12l.14.27c0-.18.33-.19-.12-.79.09.07.29.24.3.32.29-.07-.17-.87.29-.71l.16.15c0-.08-.28-.32-.07-.23s.17.15.19.14-.25-.34-.12-.31l.18.19c.38,0-.35-.67-.46-.9.6.35.85.29,1,.25l.09,0c.15-.23-.45-.71-.74-1,.75.12.29-.4.67-.59a1.74,1.74,0,0,1-.65-.18c.13,0-.54-.25.12-.14v0c.64.06.43-.12.41-.23l-.86-.1c.59-.07.4-.29.22-.45s-.36-.28.13-.42c-.22,0-.25-.13-.47-.16l.43-.07a.56.56,0,0,0-.13-.56l.31,0c0-.17-1.23.19-1.27.14l.59-.22c-.05-.14.43-.45-.16-.4a1.13,1.13,0,0,1,.3-.07c0-.07.32-.38-.5-.08.54-.18,0-.15-.25-.15l.4-.12c-.53.11-.67.16-.84.12.05,0,.31-.13.22-.07.18-.13-.39.08-.21-.07l.26-.06c0-.08-.12,0-.43,0s.05-.16.41-.29c-.22.06-.53.12-.44,0a1.1,1.1,0,0,1,.27-.08c.23-.2-.52,0-.16-.22l.23-.1c0,.1,0,.18,0,.18a5,5,0,0,1,.92-.33c-.29,0-.92.13-.78,0l.13,0h0s0,0-.07,0,.09-.07.08-.1c.3-.11.14-.14.14-.18a4.23,4.23,0,0,0-.66.22.06.06,0,0,1,.07,0h0a.28.28,0,0,1,.06.08c-.21,0-.39.07-.19,0l-.66.17c.54-.24.81-.44,1.15-.57a1.3,1.3,0,0,0-1,0c-.1,0,.21-.11.32-.16s.08,0,.19,0c-.21,0-.14-.16-.67,0,.21-.16.5-.12.38-.2l.16,0c.76-.51-1.46.09-.47-.51l-.17.09c.38-.44-.64-.42,0-.95.12-.13-.21,0-.48,0L156,69l-.52.08c-.4,0,1-.55.25-.47l-.29.12c0-.07-.22-.11.11-.21-.05,0-.3.08-.16,0l.22-.08h-.42c.12-.16.89-.29.89-.45a2.65,2.65,0,0,0-.85.14.91.91,0,0,1-.35.18h-.13a8.3,8.3,0,0,0-1.78.68l.44,0-.32.14,0-.07c-.29.15,0,.08.18.05a1.68,1.68,0,0,0-.34.15l.66-.13a3.24,3.24,0,0,0-.65.24,7.46,7.46,0,0,1,.78-.23c-.29.14-.53.21-.26.17a1.33,1.33,0,0,1-.36.1c.22,0,.12.08.48,0-.36.16.15.11-.48.31a2.09,2.09,0,0,1,.55-.06c-.77.19,0,.16-.8.42.69-.18.36.09.77,0-.06,0-.17,0-.14,0s-.23.16-.35.23a5.74,5.74,0,0,1,1.07-.21c-.51.24-.66.18-1.17.38.45-.16.49,0,.85-.19a3.25,3.25,0,0,1-.6.27c.7-.22.14,0,.58-.09-.32.18-.65.24-.41.24A1.34,1.34,0,0,1,152.89,70.83Zm1.84,1.45h0l0,0Zm.05.15a.09.09,0,0,0,0-.07c.13-.06.28-.1.28-.08A1.1,1.1,0,0,0,154.78,72.43Zm2.66-1.27c.06,0,0,0-.09.07a.08.08,0,0,0-.06,0h0Z"/><path class="cls-4" d="M156.9,71.29h0l-.09,0,.13,0Z"/><path class="cls-4" d="M147.42,76.91h0v0Z"/><polygon class="cls-4" points="154.61 74.43 154.72 74.42 154.62 74.42 154.61 74.43"/><path class="cls-4" d="M146.65,75.38a.2.2,0,0,0,0-.11Z"/><path class="cls-4" d="M146.27,75.25l0-.15A1.27,1.27,0,0,0,146.27,75.25Z"/><path class="cls-4" d="M146,75l0,.18h0Z"/><path class="cls-4" d="M150.82,75a0,0,0,0,1,0,0C150.86,74.88,150.84,74.91,150.82,75Z"/><path class="cls-4" d="M149.3,75.82a.69.69,0,0,1,.07-.19S149.32,75.58,149.3,75.82Z"/><polygon class="cls-4" points="152.45 74.62 152.45 74.63 152.46 74.63 152.45 74.62"/><path class="cls-4" d="M149.43,75.64c0-.08,0-.07-.06,0S149.4,75.7,149.43,75.64Z"/><path class="cls-4" d="M144.71,74.7l0,0v.07Z"/><path class="cls-4" d="M144.69,74.75l0,0A.12.12,0,0,0,144.69,74.75Z"/><path class="cls-4" d="M144.62,74.9l0-.1S144.64,74.78,144.62,74.9Z"/><path class="cls-4" d="M145.09,74.93l0-.15Z"/><path class="cls-4" d="M145.21,74.9s0-.33-.09-.24v.12C145.15,74.56,145.16,75.15,145.21,74.9Z"/><path class="cls-4" d="M145.54,76.83l-.09-.13c0,.16,0,.38,0,.42C145.48,77.61,145.41,76.75,145.54,76.83Z"/><path class="cls-4" d="M145.83,77.09c-.06.07,0,.24,0,.33A.47.47,0,0,0,145.83,77.09Z"/><path class="cls-4" d="M148.1,77.31l0,.38S148.07,77.55,148.1,77.31Z"/><polygon class="cls-4" points="148.72 75.38 148.7 75.14 148.65 75.49 148.72 75.38"/><polygon class="cls-4" points="148.72 78.13 148.69 78.18 148.78 78.05 148.72 78.13"/><path class="cls-4" d="M152.54,78.35l0-.47C152.54,78,152.48,78.49,152.54,78.35Z"/><path class="cls-4" d="M154.44,78.05c.05.24.15.41.16.17C154.54,78.18,154.46,78,154.44,78.05Z"/><polygon class="cls-4" points="158.72 74.77 158.91 74.84 158.74 74.72 158.72 74.77"/><path class="cls-2" d="M68.94,55.62c-.07,0-.1,0,0,0Z"/><path class="cls-2" d="M113.27,68.83l0,0,.15,0Z"/><path class="cls-2" d="M118.61,74.45l0,0S118.68,74.45,118.61,74.45Z"/><path class="cls-2" d="M99.76,56.94a.28.28,0,0,0-.13-.06Z"/><path class="cls-2" d="M55,58.23h-.05Z"/><path class="cls-2" d="M55.1,58.12c.18,0,0,.08-.1.1a1,1,0,0,0,.56-.06C55.55,58.09,55.2,58.16,55.1,58.12Z"/><path class="cls-2" d="M29.75,63.16l.07,0Z"/><path class="cls-2" d="M98,60.37l-.1,0C97.93,60.36,98,60.37,98,60.37Z"/><path class="cls-2" d="M33.75,62.51l0-.13A.17.17,0,0,0,33.75,62.51Z"/><path class="cls-2" d="M113.46,68.84h0Z"/><path class="cls-2" d="M123.66,79.5a.18.18,0,0,0,0,.09v0Z"/><path class="cls-2" d="M138.61,94.49h-.05l.06.16A.29.29,0,0,0,138.61,94.49Z"/><path class="cls-2" d="M130.33,86.66s0,0,0,0a6.86,6.86,0,0,0-.82-.85l-.13.09Z"/><path class="cls-2" d="M135.74,96.55l-.56-.93.89.78,2.23,2,.81-2.65a5.16,5.16,0,0,0,.23-1,3.79,3.79,0,0,0-.06-1,4,4,0,0,0-.62-1.49,4.39,4.39,0,0,0-2.12-1.68,3.72,3.72,0,0,0-3,.16,3.92,3.92,0,0,0-1.92,2.43l0-.3c-.21.35-.13.69-.34,1.83a8.55,8.55,0,0,0,1,2.35,4.45,4.45,0,0,0,1.5,1.4,4.91,4.91,0,0,0,1.21.45,3.39,3.39,0,0,0,.73.09,3.66,3.66,0,0,0,.74,0v0c.28-.05.26-.1.8-.2a5.25,5.25,0,0,1-1.37.11,6,6,0,0,0,2.24-1c.19-.09.29-.08.34-.05A4.84,4.84,0,0,0,140,95.79a5,5,0,0,0,.42-.75,1.9,1.9,0,0,0-.18-.81c-.11-.27-.09-.69-.28-1.65,0,.39-.14.17-.26-.09s-.28-.56-.3-.43a3.68,3.68,0,0,0-.11-.47,4.73,4.73,0,0,0-1.44-1.41,3.26,3.26,0,0,0-1.5-.54A3.83,3.83,0,0,1,137,90,4.36,4.36,0,0,1,138,91a3.81,3.81,0,0,1,.79,2.5c-.27-1.17-.1-.29-.15,0l.09.07c0,.71-.2.71-.26,1,0,0,0,0,.05,0l0,0s.05,0,.07,0,.07,0,0,.21v0a2.25,2.25,0,0,1-.36.92l-.14-.08c0,.29-.63.93-1.43,1.1a2.81,2.81,0,0,1-1.74-.19c-.21-.17-.45-.3-.68-.5a1.54,1.54,0,0,1-.52-.77,1.88,1.88,0,0,1-.09-.49.26.26,0,0,1,.12-.17.59.59,0,0,0,.27-.25c.26-.46-.21,0-.15-.15a2.69,2.69,0,0,1,.5-.51c-.2.31,0,.18.08.17.37-.48.71-.16.93-.41.54.34.41.53.56.68,0-.1-.1-.24-.06-.29.09.26.11.06.06,0a.64.64,0,0,1,.29.45.39.39,0,0,1-.12.4l2.11-.48c-.43-.51-.8-.92-.94-.85l0,0c-.29.07-.26.42-.7.2l-.16-.3-.42-.25c-.18-.27,0-.21,0-.24a16.67,16.67,0,0,1-2-2l.27,1.18c-.47-.66-1.3-1.87-1.57-1.82l-.19-.5c-.87-1.4-.94-.62-1.31-1.16l-.42-.73.58.56a16.69,16.69,0,0,1-1-1.47h0s0,.06,0,.08l-.08-.08c-.16,0-.52-.2-.92-.59a11.86,11.86,0,0,1-1.87-1.95l-.4,0-.58-.77.14-.14c.66.66,2,1.82,2.86,2.64l.08,0c-.51-.49-1.16-1-1.49-1.33-.14-.18-.42-.74,0-.54l-.45-.17a30.68,30.68,0,0,1-3.37-3.53l.08.22c-.39-.3-.78-.61-.77-.82a19.84,19.84,0,0,1-2.58-3.1l-.32,0c-.21-.23-.3-.82-.64-.69l-.56-.4c-.29-.31-.58-.4-.83-.84h0l0-.09s0,0,0,0c-.63-.76-.14.16-.85-.72-.14-.37-.49-.07-.85-.49l-.15-.62c-.58-.83-.93-.71-2-1.7-.41-.57-.45-1,.06-.87a2.22,2.22,0,0,1-1.05-.53c0-.18.08-.14.29-.09-.43-.62-.41-.23-.8-.63-.29.06-.69.21-.83.1l.11.2a4.8,4.8,0,0,1-1.44-1.28l.1-.07-.57-.46.08-.14-.79-.68.07.13a7.88,7.88,0,0,1-1.09-1l.07,0c-.75-1.09-1.78-1.56-2.9-2.58h.27c-.26-.48-.29.1-.68-.38l.12-.18c-.59-.17-.47-.52-.67-.86l-.06.33-.48-.53c-.5-.59-.1-.58.08-.61l-.54-.2.1-.25c-.48-.05-.26-.3-.86-.64,0-.11.19,0,0-.22l-1.06-.5.6.34-.31.21c-.7-.27-.67-.68-1.12-1l.34.16a3.23,3.23,0,0,1-.93-1c.07.15.17.37-.12.18s0-.18-.18-.37c-.2.14-.75-.15-1.14-.59a.12.12,0,0,1,.1,0,.77.77,0,0,1-.41-.26l.28-.12-.56-.09c-.23-.25-.75-.35-.61-.48l.19.06a13.5,13.5,0,0,0-2.3-1.29l0-.21c-.35.16-1.38-.59-1.4-.2-.44-.35-1.92-.26-1.57-.61-1.69-.27-2.59.11-4.48-.08-.67-.36-2.48-.16-3.69-.14-2.33.29-3.82.53-6.17.89-1.48-.36-3.5.58-5.06.49l-.39.25c-1-.17-2.53.41-4,.32a4.59,4.59,0,0,1-.58.21.22.22,0,0,1,.21.14c-.41,0-1.21.21-1.19,0l.1,0c0-.25-1.2.3-1.68.16l.29.23-.77.07.19-.08c-3.19,1.11-4.82.53-7.81,1.6.36-.36-.58.26-.68,0-.84-.25-1.42.34-2,.56,0,0,0,0,0,.07l-1.12.16c.59-.51-.74.47-.19,0-2.95.23-6.68,1.24-10,1.74l.17.07a15,15,0,0,1-2.56.43c-.67,0-1.36.52-1.6.58-.68.31-1.38.09-1.08,0a9.48,9.48,0,0,1-2.46.73c-.42-.27-2.79.86-2.89.49v0c-1.39,0-2.57.67-4.05.69l.06-.07L27,64.83,28.08,66l2.74.57L37.7,65l5.59-.65,13.36-2.62.91-.46c2.72,0,6-1.12,8.89-1.22l0-.26a1.47,1.47,0,0,1,1,0c7.42-1.21,15.09-2.54,21.75-2.28a20.51,20.51,0,0,1,2.89.36,7.43,7.43,0,0,1,5.23,1.86l-.07,0,.77.55s0,.07,0,.06a17,17,0,0,1,3.17,3l-.08,0c6.12,5.74,12,10.8,17.74,16.91,2.49,3,6.13,5.76,9.13,9.08C128.35,90.06,135.07,96.1,135.74,96.55Z"/><path class="cls-2" d="M138.49,97.85l-.05,0C138.51,98,138.55,97.88,138.49,97.85Z"/><polygon class="cls-2" points="134.01 90.56 134.05 90.61 133.99 90.35 134.01 90.56"/><path class="cls-2" d="M134.37,94a2.37,2.37,0,0,1,.14-.27s0,0,0,0A.45.45,0,0,0,134.37,94Z"/><path class="cls-2" d="M139.42,91.53c-.22-.34-.18-.17-.11.06a3.72,3.72,0,0,1,.34.61A4.84,4.84,0,0,0,139.42,91.53Z"/><path class="cls-2" d="M138.68,93.42l-.11-.07C138.64,93.52,138.66,93.51,138.68,93.42Z"/><path class="cls-2" d="M93.09,56Z"/><path class="cls-2" d="M94.45,57.35h0l0-.12Z"/><path class="cls-2" d="M95,57.4h0S95,57.36,95,57.4Z"/><path class="cls-2" d="M93.42,57.76l0,0Z"/><path class="cls-2" d="M93.47,55h0l0,0Z"/><path class="cls-2" d="M93.51,55.12a.1.1,0,0,1,0-.07s-.06,0,0,0S93.48,55.07,93.51,55.12Z"/><path class="cls-2" d="M95.94,54.73l0,0Z"/><path class="cls-2" d="M91.81,61.2h0Z"/><path class="cls-2" d="M95.42,54.56l0,.12A1,1,0,0,1,95.42,54.56Z"/><path class="cls-2" d="M94.42,57.23v0Z"/><path class="cls-2" d="M95.41,57.16l.08.05h0Z"/><path class="cls-2" d="M95.59,53.65l0,0,.06-.07S95.6,53.63,95.59,53.65Z"/><path class="cls-2" d="M96.1,56.78h0s0,0-.06.08l.15,0A.47.47,0,0,0,96.1,56.78Z"/><path class="cls-2" d="M99.11,54.42l-.18.35c-.43-.64-.39-1.11-1-1.46H98c0-.06-.15,0-.29-.06s-.28-.28-.49-.94l0,0s-.07,0-.09-.08l0,.26c-.13,0-.29.06-.43,0a.25.25,0,0,1,0-.14l-.35-.14V52c-.16,0-.27.44-.46.12,0,.3-.2.11-.21.26a1.43,1.43,0,0,0,0-.16c-.17,0-.51,0-.61.1a2.43,2.43,0,0,1,.43,1.08c-.14-.14-.06,0-.07.11l0-.06c.07.11,0,.27,0,.34v0a.16.16,0,0,1,0-.06s0-.06,0,0h0c.05,0,.1.06.12.08l-.07.13c.23-.21.16.62.19.67s.17.08.18.22-.1.21-.15.35.12-.13.15-.11,0,.14-.08.22-.1,0-.14.09-.12.35.14.2c-.06.17-.16.23-.15.28a1.42,1.42,0,0,1,.12-.13c-.09.11,0,0,0,0,.17,0-.33.54,0,.41l0,0a3,3,0,0,1,.59-.19l-.09.07.12,0a.37.37,0,0,1-.16.07c.13,0,0,.2,0,.29A5.59,5.59,0,0,0,97,56c-.12.15-.41.36-.2.35l-.21.08c-.42.19.19.1.06.18l-.24.08v-.07a1,1,0,0,1-.37.13h0c.12,0,.21.07.19.11s.11.16-.16.19l.23.1-.17,0L96,57.14c0-.06,0-.21,0-.28l-.09,0S96,57,96,57a.94.94,0,0,1-.37-.08l.18.08c0,.13,0,.16-.29.16l.09,0c0,.06.07.12-.07,0s-.24,0-.46-.11l.16.18s-.28-.24-.07,0a.45.45,0,0,1,0,.11s0,.12-.08,0h0l0,0v0c-.11,0,.12.17,0,.11s.13.26.06.24l-.21-.27c-.15-.13,0,.18-.11.22a1.52,1.52,0,0,1-.29-.6c.08.31.06.2.06.36a1.29,1.29,0,0,1-.08-.26c-.09-.12,0,.12,0,.12a5.1,5.1,0,0,1,.16.62l0,.07c0,.13-.06.21-.15.11l0-.12,0,.07,0-.15-.07.06v0s-.08.1-.12,0V58c-.12-.27-.18.11-.3.12l0-.18c0-.17,0,.27-.07.18l0-.21c-.07.28-.05-.06-.05-.17l0,.28,0-.07a1.58,1.58,0,0,1,.07-.5l-.07.21,0-.24c-.08.28,0,0-.07.1a1.25,1.25,0,0,0,0-.18,2.12,2.12,0,0,1-.14.31l.08-.13-.11.34c-.12.25,0-.05-.1,0l.06-.09c-.08.07,0-.08,0-.16a.53.53,0,0,1-.09.2s.05-.12.06-.16c-.1.22-.19.31-.17.2l.05-.08s-.06.08,0,0l.13-.23-.14.21c0-.07-.11.09,0-.07l0,0,0-.11.14-.17c-.2.23,0-.1-.2.16.13-.15-.16,0,.16-.23,0,0-.35.15-.23,0,.31-.2.17-.18.19-.25a.73.73,0,0,1-.44-.28c.48-.09-.17-.26.12-.36l-.18-.06c.31,0,0-.22.3-.24a.42.42,0,0,1-.11-.09s0,0-.16,0c.09,0,0-.1.24,0h0c.23.1-.07-.12.14-.07l-.25-.09.06,0,0,0c-.2-.23-.1-.32,0-.34s.2,0,.09-.3c.18.23-.08-.14.14.08s0-.11,0-.23l0,0,.09,0c.18.35-.14-.3,0,0a.26.26,0,0,0,.32,0,.52.52,0,0,1,.41-.08l0-.1c.07,0,.17-.12.25,0s.14-.26.17-.27c.09-.18.15.18.12.16s.2-.41.31-.24c0,.34.41-.28.37.1v0c.13.29.38-.13.54.15l0,0,.65-1.06.13-1.28c-.06-.37-.12-.73-.19-1.1-.39,0-.8,0-1.24.05a5.58,5.58,0,0,0-1.11-.44,5.8,5.8,0,0,0-1.56.35,4.94,4.94,0,0,0-1.54.91,2.28,2.28,0,0,0,0,.37,1.14,1.14,0,0,0-.86.64,2.63,2.63,0,0,1-.63.87l.21.12c-.06.17-.19.1-.25.12a7.19,7.19,0,0,0,.23,5c-.06.23.31.61.27.82a11.5,11.5,0,0,1,1.56.94h0l.26.08s0,0,0,.07c.36-.07.7.29,1,.45l0,0a4.69,4.69,0,0,0,2.85-.28A11.12,11.12,0,0,0,98.11,60a2.1,2.1,0,0,0,1-1.23c.21-.55.32-1.14.53-1.72a2,2,0,0,0,0-1.41A2.91,2.91,0,0,0,99.11,54.42Z"/><path class="cls-2" d="M96.81,52.32h0C96.87,52.23,96.84,52.26,96.81,52.32Z"/><polygon class="cls-2" points="96.38 56.29 96.38 56.28 96.24 56.33 96.38 56.29"/><path class="cls-2" d="M95.77,55.26c0,.06,0,.05.06,0S95.8,55.24,95.77,55.26Z"/><path class="cls-2" d="M95.8,52.05c-.06,0-.06,0,0,.12l.12,0A.61.61,0,0,1,95.8,52.05Z"/><path class="cls-2" d="M95.5,53.46l0,.08S95.5,53.5,95.5,53.46Z"/><path class="cls-3" d="M80.88,28.82c.07-.08.07-.28-.08-.26l-.15.31Z"/><path class="cls-3" d="M80,28.08a.72.72,0,0,0-.34.72c.2-.3.22-.17.45-.52a.19.19,0,0,1,.2.25c.06-.07.21.11.32-.09A.42.42,0,0,0,80,28.3C79.91,28.22,80,28.14,80,28.08Z"/><path class="cls-3" d="M76.67,31.07l0-.06S76.68,31,76.67,31.07Z"/><path class="cls-3" d="M73.75,39.56c0-.08,0-.11-.08-.12S73.72,39.58,73.75,39.56Z"/><path class="cls-3" d="M75.68,41.31l-.07,0S75.69,41.34,75.68,41.31Z"/><path class="cls-3" d="M76.67,31.07c0,.05-.1.13-.15.19C76.62,31.31,76.63,31.16,76.67,31.07Z"/><path class="cls-3" d="M78,28.71a.26.26,0,0,0,.13-.08l-.12,0Z"/><path class="cls-3" d="M74.52,29.58l-.07,0a.52.52,0,0,0-.1.11Z"/><path class="cls-3" d="M72.54,27.19c-.07,0-.07.27-.08.4a.26.26,0,0,1,.13-.21A1.08,1.08,0,0,0,72.54,27.19Z"/><path class="cls-3" d="M77.38,27.54l.08,0Z"/><path class="cls-3" d="M76.17,30.23l-.07.08A.27.27,0,0,0,76.17,30.23Z"/><path class="cls-3" d="M81.5,27.5l0-.1Z"/><polygon class="cls-3" points="79.89 27.3 79.91 27.25 79.79 27.14 79.89 27.3"/><path class="cls-3" d="M77.73,39.26h0C77.7,39.35,77.72,39.31,77.73,39.26Z"/><path class="cls-3" d="M83.12,38.71c-.28.25-.26-.51-.59-.11C82.64,38.57,82.92,39,83.12,38.71Z"/><path class="cls-3" d="M77.91,28.67h-.12A.17.17,0,0,0,77.91,28.67Z"/><path class="cls-3" d="M82.53,38.6h0l0,0Z"/><path class="cls-3" d="M79.34,36.34c0-.12,0-.22,0-.33Z"/><path class="cls-3" d="M78.2,37.55l.09-.08Z"/><path class="cls-3" d="M79.81,36.37c0,.06,0,.12,0,.11l0,0S79.79,36.47,79.81,36.37Z"/><path class="cls-3" d="M80.05,37.86l0,0,0-.08Z"/><path class="cls-3" d="M82.35,31.32A.71.71,0,0,1,82.4,31C82.28,31.3,81.6,31.8,82.35,31.32Z"/><path class="cls-3" d="M78,28.55c0,.07,0,.11-.08.12H78A.14.14,0,0,0,78,28.55Z"/><path class="cls-3" d="M81.48,33.59l.15.72C81.6,34.1,81.54,33.84,81.48,33.59Z"/><path class="cls-3" d="M87.81,35.39l-.1,0A.12.12,0,0,0,87.81,35.39Z"/><path class="cls-3" d="M82.08,36.39a1.48,1.48,0,0,0-.13.45.21.21,0,0,0,.08.06Z"/><path class="cls-3" d="M82.41,31h0Z"/><path class="cls-3" d="M81.44,27.25c0,.78.37.28.58.38.12.71-.26.45-.45.83.11.53.45.64.44,1-.06.08-.08.18-.16.17.14.11.16.43.17.78,0,.17,0,.35,0,.49s0,.14.06.17a.16.16,0,0,0,.13,0l.18-.19a.25.25,0,0,1,0,.12,5.75,5.75,0,0,1,.43-.86c.21-.14.56-.6.44-.25-.12.06-.21.23-.34.4l.31-.31c0,.44-.41.38-.64.83.65-.53,1.3-1.24,1.6-1.28,0,.37-.93.66-.51.77l-.57.18c.16.53-.4.2-.3.8,1-.47,1.2-1,2.11-1.28.18-.28-.09-.27.07-.54.56-.42.64-.2.85-.06s.3.31.49,0,0-.69.45-.54l0,.4c.47-.06.17-.6.72-.43-.07.16-.36.19-.28.22.37.25.2-.25.46-.28l.09.33c.39-.09.82-.27,1.28-.36l-.56-1.58a3.47,3.47,0,0,1-.25.29c0-.1,0-.25-.2-.24a3.84,3.84,0,0,1-2,1.14l-.08.39c-.06,0-.17,0-.14-.13-.3,0,.08.16,0,.33a.14.14,0,0,1-.22-.17,6.33,6.33,0,0,1-1.28,1,5.64,5.64,0,0,1-1.86.63l0-.11c-.5.13-.43.27-.34.37s.19.19-.42.28v-.06l-.19.06s.06.08.13.13l.23.13.48.27,1,.54a4.23,4.23,0,0,1,1.44,1.17c.26-.09.54.15.78.34s.33.27.53,0c.26.55.08.54.54,1.13.14.14.46-.11.69,0l-.19.25.46,0-.09.39.22.09a.25.25,0,0,1,0-.29.77.77,0,0,1,.43.84l.8.36c-.1.08-.23,0-.37,0,.54.07-.16.3.34.36,0-.09.15-.11.2-.15,0,.27.35.59.65.78l-.2.1a5.84,5.84,0,0,0,.56.55l1.2-2.37a9.94,9.94,0,0,1-1.19-.11.27.27,0,0,1-.11.49l0-.34c-.17.17.19.16-.13.35-.25-.09-.09-.39.07-.47l-.33,0c0-.1.09-.13.13-.25-.17.17-.45-.43-.7-.14V35c-.65-.16-1-.15-1.52-.3-.09.27-.28.14-.52.3a6.81,6.81,0,0,0-1.18-.75c-.38,0-.19.19-.4.28.08-.25-.39-.42-.08-.49-.16-.06-.2-.06-.41-.15l-.51-.2c-.32-.12-.72-.28-1.26-.45.15.2.28.33.23.4a1,1,0,0,1-.48-.53h0a3,3,0,0,1-1.16-.61,10.1,10.1,0,0,0-.51,1.3,3.16,3.16,0,0,0-.12,1.61l0-.08.06.66a3.88,3.88,0,0,0,.08.45c-.08.33-.16-.23-.35,0,.33.84-.22,1.24,0,1.92-.81.41-.16,1.79-.73,2.4h.18c.15.19-.12.2-.18.32.14,0,.18-.17.26,0A14,14,0,0,1,79.62,45l3.06.19c0-.22.06-.42.08-.63,0-.56-.92-.31-.5-1l.33.2c-.4-1.13,0-2.34-.41-3.46.08.06.18.06.18.17.23-.25,0-.89-.23-.88,0-.18.17,0,.26-.17s-.35-.58-.12-.73c0,0,.08.07.1.11-.13-.15,0-.74-.3-.56a1.24,1.24,0,0,0-.06-.61,1.51,1.51,0,0,1-.05-.28,1.54,1.54,0,0,1,0-.43c-.18-.13-.18-.41-.2-.68s-.07-.5-.27-.4c.42-.24.06-1.54-.21-1.64.14,0,0-.52.19-.6-.13-.5-.32-.77-.44-.35a1.6,1.6,0,0,0-.3-1.27c-.16-.2-.27-.33-.21-1.31-.1-.18-.21-.35-.31-.52A.4.4,0,0,0,80,30c-.44,1.22-.81,2.19-1.14,3a2.67,2.67,0,0,1,.32-1.25,3.53,3.53,0,0,0,.35-1.38c-.35,1-.59,1.81-.8,2.49a6.11,6.11,0,0,1-.7,1.68c-.18.2,0-.39,0-.61a10.18,10.18,0,0,1-.87,1.75l-.23.38-.12.22a2,2,0,0,0-.18.48s0-.11,0-.18c0,.11-.21.21,0,.31l0-.14c.36,0,.23.78.35.89-.37-.51-.5.46-.91-.26a.26.26,0,0,0,.13.3c-.11.08-.2.07-.25-.13-.17.45.09.44-.16.78-.07-.06-.06-.15-.12-.26a.81.81,0,0,1-.23.81c0-.05-.12-.07,0-.15-.35.5-.24,1.15-.82,1.55-.14-.3-.21-.15-.34-.1l1.38.1a.28.28,0,0,1,.13-.18,1.4,1.4,0,0,1-.2-.16l-.13.17c-.07-.2-.41-.35-.31-.6a.9.9,0,0,0,.18.16,2.12,2.12,0,0,1-.11-.45c0,.09-.09.19-.13.28-.21-.26-.48.08-.38-.33,0,.09,0-.31.26-.43h0c-.09-.16-.2-.35,0-.55.13,0,.38.15.47.13-.28-.21.12-.68-.12-1a.46.46,0,0,0,.27.16l-.19-.21c.13-.11.18-.11.31,0,.21-.38-.49-.06-.1-.45,0,0,0,0,0,.13.3-.43.28-1,.61-1.38.4,0-.11.43.25.42.26-.67.25-1.57.57-2.19l-.09.11c-.46-.27.43-.41.3-.84,0,.1.25.2.2.16a3.91,3.91,0,0,0,.16-1.76l.11.12a4.51,4.51,0,0,0,.34-1.29c-.13-.1-.13-.31-.31-.12a.79.79,0,0,0,0-.76c-.26-.41-.85-.45-1.29-.51a1.09,1.09,0,0,1-.92-.48c.09,0,.26,0,.18-.06l-.7-.11c0,.23,0,.16.12.38a.59.59,0,0,1-.52.07c.35,0,.13-.35,0-.51,0,.07-.07.13-.08.2-.21-.51-.22.42-.6,0l.07-.11c-.2,0-.41.09-.59,0,0-.28.23,0,.31-.25-.27-.08-.69.29-.85,0,.14,0,.31,0,.44,0-.15-.39-.21-.32-.39-.44h0l-.38-.27-.17,1.42h0l0,0,.17-1.4.06.09-.13.11-.12,1c.28-.49.66-.08,1.06-.54-.43.47-.06.26-.07.57.12.07.31.15.27.24.2-.26.37.16.66-.21,0,.1.24,0,.2.25.28-.09-.07-.17,0-.29.43-.36,1,.36,1.67-.09.56-.19.67-.51,1.19-.66.17.16-.15.35-.15.35a.83.83,0,0,0,.75,0c0,.08,0,.15.07.27s.16-.35.43-.19a1.38,1.38,0,0,1-.23.38c.25-.07.51-.24.77-.3.06.17-.17.24-.27.34.29-.05.75-.09.87-.34l-.18-.12c.11,0,0,.24,0,.28-.26.19-.34-.13-.35-.22l.19-.05c-.14-.59-.75,0-1.12,0l.18-.41-.4.32c-.07-.11-.12-.35.07-.4-.26-.22-.24.14-.47-.1,0,0,0-.06,0-.07l-.27.11c0-.08,0-.29.12-.23-.47-.25-.77.3-.94,0l0,0c-.66.14-.07.31-.56.67l-.34-.75-.06.3c-.07,0-.2,0-.18-.15-.25.22,0,.13-.1.33-.33-.27-.89.17-1-.31-.11.24.32.16,0,.34-.13-.52-.4.11-.71-.11.07-.27.37-.15.05-.37-.15.47-.59-.05-.84.06,0,.2-.15.24-.36.27l-1.58.18,1.5.51a2.29,2.29,0,0,0,.56.15c-.07.11.68.45,1,.71l0,.05c.19-.32.55-.12.85-.09a.4.4,0,0,1-.34.3l.26.09a.43.43,0,0,1,.38-.1l-.15.24c.34.11.8-.06,1.18.27.13-.22-.13-.8.44-.78,0,.13-.13.35-.26.37,0,0,.18-.06.23,0a1.73,1.73,0,0,0-.27.15c.11.15.17-.15.31-.08-.11.18,0,.16-.1.29s-.06-.11-.14-.06a.26.26,0,0,1,.1.36c.08-.09.2-.21.31-.19s0,.18-.1.27a.28.28,0,0,0-.07.09c.17,0,0,.15.35,0,0,.08-.14.14-.23.18.13.07,0,.49.3.39l0,0v0h0c.19.59-.42,1.18-.47,1.76l-.1,0c0,.38-.18.78-.08,1.09a.26.26,0,0,1-.35.09c0,.28.06.35-.25.65-.05-.32-.18,0,0-.31-.22.29-.39.29-.31.75-.17-.23-.41.1-.42.3l.28-.15a1.57,1.57,0,0,1-.25.48l-.25-.23c-.71.53,0,1.54-.8,1.88.14.28.3-.36.49-.09-.17.32-.74.57-.77.71-.31.51.36.6.18,1.15.13-.07.43-.1.54.29s-.45.53-.58.27,0-.16.06-.16-.1-.31-.23-.14l.12.05c-.13.22,0,.85-.22.74.19.33.22.1.23-.16,0,.58.21.86.42,1.37l.4,1,1.15-.86.07,0h-.13l-1.42-.1c0-.06.06-.09.09-.06l.7.89.55-.8h0c.55-.43,0-.37.27-.76.31-.09.28.35.45-.11.28-.15.29.15.29.3.09-.48.62-.54.8-.72l-.06.24a.75.75,0,0,1,.17-.32l-.27,0c.12-.08.19-.17.26-.11,0-.2-.37-.15-.39-.49.2-.07.21-.51.5-.38-.41.39.3.14.06.55a.49.49,0,0,1,.2-.27s0,0,0,.09c.54-.28-.15-.4.17-.85a.22.22,0,0,0,.37,0c-.13.19-.31-.07-.31-.32.31-.21.12-.37.24-.52l-.17.14c-.11-.15,0-.29.09-.52.12,0,0,.24.06.2-.07-.19.1-.31.24-.36s.24,0,.22-.18c.12,0,.22.28.29.31-.06-.35.18.18.13-.12a1.24,1.24,0,0,1-.1-.64,3.42,3.42,0,0,0-.08.48,3.58,3.58,0,0,1,0-.61c-.06.11-.06.4-.11.41,0-.31,0-.25-.15-.4.15.1.16,0,.19-.2s.06-.42.15-.34l.14.94c.07.13.07,0,.11-.29s.11-.61.16-.56l0-.16c0-.45.08-.38.12-.47a.41.41,0,0,0,0-.15c-.06.53-.06.67-.09,1,.06-.5,0,.1.24-.89,0,.28-.06.55-.09.8,0,.41.41-1,.46-.42a6.38,6.38,0,0,1-.38.78c0,.07,0,.19.1,0-.08.23.26-.18.13.19.07-.08.24-.33.26-.18a.49.49,0,0,1-.08.11c.07-.12.15.07.31-.29a1.26,1.26,0,0,0-.12,1,.81.81,0,0,1-.11.78,8.66,8.66,0,0,1,.26,1.13c-.06,0-.1,0-.09-.06-.14.48.59.24.43.79-.3.29-.2-.27-.31-.09-.64.11.13.63-.23,1l0-.09c-.21.28.28.65.24,1.11a.16.16,0,0,0-.1,0,2.33,2.33,0,0,1,.56,1.3c-.25-.13-.13-.19-.39-.11,0,.2.41-.06.49.33-.14.13-.25.41-.53.45l0-.37c-.35.19,0,.47,0,.67l-.16,0c.06.56.45.57.42,1.17l.12-.06c.09.08.13.14.13.18l.61,0c0-.15.3-.14.11-.42l.4,0a6.14,6.14,0,0,1-.3-1.2,3.48,3.48,0,0,1,.49,1c0-.21.06-.73-.12-.86,0,.09.11.21,0,.29a1.28,1.28,0,0,1-.32-1.1c.75.17.33-1.09,1-1.32-.19-.79.3-1.49.37-2.37-.63.24,0-.26-.6-.28,0-.21,0-.29,0-.3L83,38c.19-.12.11.21.25.21.1-.44.28-.15.48-.43-.23,0-.3-.2-.18-.44l-.33.32c-.24-.66.58-.47.34-1.15l.17.23a1.57,1.57,0,0,1,0-.29l0-.07c0-.07-.12-.17-.33-.45a1,1,0,0,1,.25.25s-.06-.24-.1-.47.2-.13.33.12V36s0-.28.1-.09a1.39,1.39,0,0,0,0,.17c0-.05.18-.2.23-.08a.69.69,0,0,0-.11.13s0,0,.1.09a1.13,1.13,0,0,0,.24.08,1.6,1.6,0,0,0,.49,0,3.43,3.43,0,0,1,1,0c-.16.41.39.76.67.92l0,.06a6.78,6.78,0,0,0,2.49.14c.34.47,1.27.55,2,.74l3.41.83-2.32-3a2,2,0,0,1-.29-.44c0,.15-.26.22-.4.15s-.6-.17-.3-.43l0,.05c.17-.39-.2-.6-.43-.82l-.4.35c-.1-1.15-1.82-1.21-1.75-2-.24,0-.44-.18-.68-.19l.18-.22a4.52,4.52,0,0,0-1.22-.91.74.74,0,0,1,.22-.1.28.28,0,0,0-.12-.05l-.07.07a2.67,2.67,0,0,1-.23.18c-.18.13-.41.23-.51.18l.35-.27a.2.2,0,0,1-.07-.2c0-.05,0-.06-.5-.12l.42,0s0,0,.07,0,.17,0-.5-.14c.65.11.21-.05.22-.23l.3.16c-.31-.24-.37-.31-.23-.5.08,0,.21.14.1.12.26,0-.09-.25.3-.3a.91.91,0,0,0,0,.23c.29-.15.24-.23.29-.5a.61.61,0,0,1,.79-.11.39.39,0,0,1,.21-.49.16.16,0,0,1,0,.2c.6-.18.52-.77,1-.8A.2.2,0,0,0,89,29a4,4,0,0,1-.67.46c.15.21.49,0,.45.48.15-.34.3-1,.66-1.14l.1,0v.05a.32.32,0,0,0,.15-.19l.07,0,2.44-.86-3.12-1a.74.74,0,0,0-.25-.05c0-.22-.47-.11-.67-.11,0,.28-.23.25,0,.46,0,0,0,0,.16,0s.07,0,.09,0l0,0a3.38,3.38,0,0,1,.49,0c-.16.14-.31.26-.53.12l-.24.46c-.28-.38-.82-.53-.93-.76-.58.23-1.41.37-1.61,1-.14.11-.23-.09-.31-.15s.19-.1.22-.19c-.15.11-.38.2-.56.31a.5.5,0,0,0-.19.39c-.25-.08.1-.41-.19-.22l0-.14c-.12-.12-.17-.1-.3,0l-.53.61-.15.16a.06.06,0,0,1-.06,0,.16.16,0,0,1-.07-.15,1.32,1.32,0,0,1,.2-.72,1,1,0,0,1-.13.2,4.94,4.94,0,0,0,0-1.91,13.36,13.36,0,0,1,.13-3.41c.1-.86-.13-.38-.31-.19l.25-.83,0-.11-.63,1.36c-.31.6-.35.34-.49.27s-.37,0-.74.86l0,.29c-.2.19-.63,1-.6.58,0,.09-.06.41-.15.35l0-.23c-.16.35-.31.68-.44,1s-.25,0-.32-.18-.15-.26-.51.17-.37,1.21-.2,1.16.29-.2.4-.09l-.11.27a3.74,3.74,0,0,0,.51.47A2.35,2.35,0,0,0,81,28a2,2,0,0,1-.06-.39,1.33,1.33,0,0,1,.14.19l-.07.11c.16.14.07-.05.06-.24a1.2,1.2,0,0,0,.13.23,3.8,3.8,0,0,1,0-.69c0,.24,0,.54.11.61,0-.35-.12-.5,0-.82.09.23.06.54.12.17a2.62,2.62,0,0,1,0,.43c0-.29.11-.24.19-.74,0,.44.23-.4,0,.56a6,6,0,0,1,.33-1c-.43,1.39.17-.16-.34,1.38.11-.31.18-.52.25-.67a1.69,1.69,0,0,1,.23-.51c0,.07-.11.21-.09.16a2.07,2.07,0,0,1-.26.48c.38-.64.47-.7.71-.85a2.28,2.28,0,0,1-.41.44c-.11.11-.22.25-.4.45a2.17,2.17,0,0,1,.57-.55,1,1,0,0,1-.43.31c.49-.23.08-.05.38-.1a.59.59,0,0,1-.17,0c-.05,0-.09.07-.13.09s-.08.11,0,.44C81.62,27.87,81.44,27.26,81.44,27.25Zm6.83.27h0l.13-.13ZM87.7,28a1.88,1.88,0,0,0,.26-.19c.08.06.12.16.06.2S87.84,28,87.7,28Zm.87-1.34c.14-.05.18,0,.2.07a.74.74,0,0,0-.23,0l0,0A.58.58,0,0,1,88.57,26.64Z"/><path class="cls-3" d="M88.34,27a.06.06,0,0,1,0,0l.08.07,0-.09Z"/><path class="cls-3" d="M76.73,31h0a.05.05,0,0,1,0,0Z"/><polygon class="cls-3" points="87.08 34.98 87.13 34.93 87.04 34.94 87.08 34.98"/><path class="cls-3" d="M74.56,28.24a.11.11,0,0,0,0-.09A.23.23,0,0,0,74.56,28.24Z"/><path class="cls-3" d="M72.87,27.57l-.21-.18A1.36,1.36,0,0,0,72.87,27.57Z"/><path class="cls-3" d="M73.29,28.66a.3.3,0,0,0,0-.12h0Z"/><path class="cls-3" d="M76.56,36.62l0,0C76.6,36.43,76.57,36.51,76.56,36.62Z"/><path class="cls-3" d="M74.84,38.78A1,1,0,0,1,75,39C75,38.88,75,38.8,74.84,38.78Z"/><polygon class="cls-3" points="81.47 33.51 81.46 33.52 81.48 33.59 81.47 33.51"/><path class="cls-3" d="M74.93,39.24A.27.27,0,0,0,75,39,.34.34,0,0,0,74.93,39.24Z"/><path class="cls-3" d="M79.2,28.83h.06s0,0,0,0Z"/><path class="cls-3" d="M79.27,28.8l.08,0S79.28,28.77,79.27,28.8Z"/><path class="cls-3" d="M79.51,28.72l-.16.06C79.4,28.78,79.46,28.8,79.51,28.72Z"/><path class="cls-3" d="M77.4,28.58l0,.1A.25.25,0,0,0,77.4,28.58Z"/><path class="cls-3" d="M76.85,28.59c.13,0,.32.22.51.17l0-.08C77.29,28.82,77,28.42,76.85,28.59Z"/><path class="cls-3" d="M74.51,27.35l.48.06c-.09-.1-.21-.25,0-.28C74.39,26.83,75.13,27.37,74.51,27.35Z"/><path class="cls-3" d="M73,27.29c.25-.08,0-.16,0-.22C72.85,27.18,72.82,27.21,73,27.29Z"/><path class="cls-3" d="M75.63,34l-.23-.11C75.36,34,75.49,33.88,75.63,34Z"/><polygon class="cls-3" points="75.99 36.32 76.21 36.22 76.04 36.04 75.99 36.32"/><polygon class="cls-3" points="73.83 36.68 73.83 36.58 73.78 36.95 73.83 36.68"/><path class="cls-3" d="M79.75,37.5l.31-.09C80,37.34,79.65,37.44,79.75,37.5Z"/><path class="cls-3" d="M80.41,45a.38.38,0,0,0-.16.19l1.79.11A.2.2,0,0,0,82,45a.8.8,0,0,1-.1.23l-1.51-.09C80.41,45.06,80.44,45,80.41,45Z"/><polygon class="cls-3" points="90.26 34.35 90.45 34.38 90.16 34.24 90.26 34.35"/><g class="cls-5"><image width="1341" height="4904" transform="translate(-567.16 75.55)" xlink:href="../../../../../../../Downloads/screencapture-aurora-db30bf-webflow-io-2023-09-18-12_40_29.png"/></g></svg>