<svg id="Capa_1" data-name="Capa 1" xmlns="http://www.w3.org/2000/svg" viewBox="0 0 670.78 87.63"><defs><style>.cls-1{fill:#ed6c6f;}</style></defs><path class="cls-1" d="M118.15,20.52c12.59-.91,25.81-1.08,39.38-1.11,6.79,0,13.66.09,20.57.22l20.84.35c27.86.55,55.84.8,81.05-1.49,30.22-3.14,61.62-5,93-6.73l23.54-1.16Q408.3,10,420,9.55l23.18-1.08L454.62,8,466,7.4c.36,2.7-4.15,7,1.07,8.11,20.72,3,21.54,8.45,22.3,13.85.38,2.71-15.26.76-9.8,3.21-7.64.38-17.77,1.24-24.06,2.21s-8.73,2.08-.9,3.1c5.46,2.49,25.51-1.26,31.18,2.54s-4,8.37,1.7,12.16c3.48-.15,9.28-.47,14.26-.76,4.27-.24,7.52,3.15,6.11,6.45-.36.85-.2,1.39,1.44,1.3,7.94.9-37.6,4.53-27.93,3.91,8.35-.53,17.14-1.34,26-2,2.65-.19,5.28,1,6.1,3.1a3.57,3.57,0,0,1,.12.4c.21,1.14-.8,2.21-5.48,3.19a9.06,9.06,0,0,1-.91.13C417,75.65,379.61,77.59,287.16,80s-185.51,1.4-276.42-4.31c-20.68-2.16-4.4-7,11.54-10.43-5.32,1.16-4.89-2.9-10.21-1.75.45-4.07-.88-11,19.81-11.67-5.15-.15-10.29-.37-15.44-.56-5-1.55.42-4.06.68-6.77,5.14.2,10.25.4,10.38-1L28,38.09l-14-.54c6.45.25,6.46.25,2.86-2.64l1.59-4c10.29-.91,12.06,1,22.36,0l.34-4.06c-10.05-1.7-12.15.43-22.3,0,5.21-1.16,5.34-2.51,5.61-5.22,7.65-.37,27.56,1.15,35.13,1.74s15.17.86,22.92-1c-5.06-.11-10.12-.27-15.18-.44,2.67-1.61,6.22-2.42,10.28-2.77A91.74,91.74,0,0,1,91,19.2C100.47,19.77,110.53,21.09,118.15,20.52Z"/></svg>