<svg id="Capa_1" data-name="Capa 1" xmlns="http://www.w3.org/2000/svg" xmlns:xlink="http://www.w3.org/1999/xlink" viewBox="0 0 299.92 246.15"><defs><style>.cls-1{fill:none;}.cls-2{fill:#e4edf2;}.cls-3{fill:#5da6bc;}.cls-4{fill:#f0d44f;}.cls-5,.cls-6{fill:#fff;}.cls-6{stroke:#fff;stroke-miterlimit:10;stroke-width:0.8px;}.cls-7{fill:#ed6c6f;}.cls-8{clip-path:url(#clip-path);}</style><clipPath id="clip-path"><rect class="cls-1" x="-988.24" y="2708.12" width="1341" height="1296.03"/></clipPath></defs><path class="cls-2" d="M11.05,137.69c2.46,34.25,11.49,71.86,37.53,89.75C66.66,239.86,89.1,240,110.28,239.8l134.25-1.38c15-.15,32.75-1.95,40.44-16.5,5-9.45,3.91-21.32,2.66-32.23q-5.5-48.19-11-96.39c-2.75-24-6.29-49.92-21.53-67C235,3.79,202.81,5,174.59,7.79l-77.72,7.6c-22.33,2.18-55.39-1.63-76,8.09C-9.49,37.78,7.85,108.85,11.05,137.69Z"/><path class="cls-3" d="M163.24,57.52a142.8,142.8,0,0,0-39.66-.65c-11.15,1.39-22.62,4.35-31,11.85C81.38,78.8,78,94.82,76.05,109.78c-2.62,19.88-3,42.66,11.09,56.93C98.25,178,115.24,180.55,131,182c20.5,1.86,43.38,2,58.9-11.48,16.42-14.3,18.65-38.57,19.63-60.32.29-6.54.57-13.2-1.12-19.53-5.12-19.16-25.73-29.08-44.11-36.56"/><path class="cls-3" d="M164.55,53.47c-.24,0-.19.23.4.43l.54-.14Z"/><path class="cls-3" d="M168.22,55.66c.74.14,1.63.22,1.31-.25-.8,0-.91-.19-1.78-.15-.59-.2-1-.51-.82-.59-.24,0-.88-.44-1.27-.37a6.28,6.28,0,0,0,2.69,1.17C168.53,55.63,168.29,55.62,168.22,55.66Z"/><path class="cls-3" d="M209,96.69V96.3A2.52,2.52,0,0,0,209,96.69Z"/><path class="cls-3" d="M206.66,134.39c0-.29,0-.41,0-.43C206.64,134.23,206.63,134.45,206.66,134.39Z"/><path class="cls-3" d="M205.05,140.62l.11-.36A1,1,0,0,0,205.05,140.62Z"/><path class="cls-3" d="M209,96.69v1C209.11,97.76,209,97.18,209,96.69Z"/><path class="cls-3" d="M176.28,58.39a2.68,2.68,0,0,0-.54-.16l.49.19Z"/><path class="cls-3" d="M203.49,81.35a1.38,1.38,0,0,0-.17-.25,1,1,0,0,0-.25-.13A5,5,0,0,1,203.49,81.35Z"/><path class="cls-3" d="M195.09,72c.21.19.47,0,.64,0a1.24,1.24,0,0,1-.6-.27S195.07,71.85,195.09,72Z"/><path class="cls-3" d="M178.38,60.67l-.34-.13Z"/><path class="cls-3" d="M207.2,89.51a.3.3,0,0,0-.06.14S207.19,89.58,207.2,89.51Z"/><path class="cls-3" d="M148.51,54.66s0,0,0,.05S148.6,54.67,148.51,54.66Z"/><path class="cls-3" d="M163.23,57.59H163a.51.51,0,0,0-.07.15Z"/><path class="cls-3" d="M201.25,151.65l0,0C201.37,151.31,201.3,151.48,201.25,151.65Z"/><path class="cls-3" d="M107,176.7c1.08.6-2-.3-.32.53C106.52,177.07,108.36,177.31,107,176.7Z"/><path class="cls-3" d="M176.56,58.56l.48.23Z"/><path class="cls-3" d="M106.65,177.23h0l.17.08Z"/><path class="cls-3" d="M185.35,172.46a.65.65,0,0,0,.29,0S185.55,172.4,185.35,172.46Z"/><path class="cls-3" d="M198.84,158.07l-.29.41Z"/><path class="cls-3" d="M176.4,177.63a2.7,2.7,0,0,0-.69.22.4.4,0,0,0,.11,0A1.44,1.44,0,0,1,176.4,177.63Z"/><path class="cls-3" d="M166,180.59l.21,0,.33-.09Z"/><path class="cls-3" d="M114.9,57.11a1.62,1.62,0,0,1,.56.14C115.25,57.09,116.84,56.7,114.9,57.11Z"/><path class="cls-3" d="M176.22,58.53a.47.47,0,0,1,.34,0l-.33-.14S176.16,58.48,176.22,58.53Z"/><path class="cls-3" d="M176.78,179.85l-1.71.57C175.55,180.27,176.17,180.07,176.78,179.85Z"/><path class="cls-3" d="M74,118.24v-.41A1.4,1.4,0,0,0,74,118.24Z"/><path class="cls-3" d="M170,182a5.93,5.93,0,0,0-1,0,1,1,0,0,0-.19.12Z"/><path class="cls-3" d="M115.46,57.26h0Z"/><path class="cls-3" d="M126.88,54.9c-1.67.16-.75.44-1.08.69-2,.33-1-.17-1.65-.28-1.24.24-2.15.72-3.07.83-.08,0-.26,0-.06-.15-1.27.48-3.9.63-5.34,1.32a.58.58,0,0,1-.22-.05c.28.13.36.3.34.45-.74.14-1.32.52-1.64.34a1.28,1.28,0,0,0,.66-.32l-.75.28c-.77-.18,1-.36,1-.61-1.49.44-3.16,1.14-4.32,1.37-.33-.28,2.65-.81,1-.71.61-.11,1.21-.23,1.82-.31-1.49-.21,1.09-.21-.3-.48-2.38.48-2.59.81-4.93,1.42-.47.35.25.21-.21.56a6.83,6.83,0,0,1-2.87.75,3.35,3.35,0,0,0-2.18.71,4.12,4.12,0,0,1-2.28,1.52l.38-.61a4,4,0,0,0-1.56,1.06,5.2,5.2,0,0,1-1.66,1c.29-.37,1.54-1,1.21-.9-1.55.53-.88.76-1.93,1.38l-.4-.15a35.73,35.73,0,0,0-6.1,5.32c0-.18.31-.59-.23-.21a66.66,66.66,0,0,0-6.8,8.56L83.33,79c-.15.25-.37.43-.28.11-.68,1.13.14.15,0,.77s-.59.81-.46.34c-.43,1.09-1,2.66-1.55,4.22s-1.12,3.14-1.62,4.25l.06-.48c-.71,1.77-.07,2.21-.81,3.82l0-.34c-1.24,3.91-1.83,8.39-2.77,11.39.3.65-.81,4-.26,4.3a32.46,32.46,0,0,0-1.22,4.81c-.14.87.2,1.34.15,2.42h-.3l.17,1.49-.45.74v1c0-.4.21-.84.29-.77a10.81,10.81,0,0,1-.68,3.86l.06,3.77c-.12-.08-.13-.71-.18-1.22.22,2-.37.35-.13,2.21.07-.25.18.14.24.18a19.71,19.71,0,0,0-.14,4.56l-.22-.3c0,1.41,0,2.88.18,4.4.07.76.13,1.53.19,2.31s.19,1.56.28,2.34c0-1.14.37-.91.5,0l-.28.4c.26.57,0-1,.39.21.1,1.17-.27.84-.46.18.08.47.2.94.32,1.4-.09.1-.19-.23-.33-.29.3.54.08,2.51.57,3.28l-.08.1c.35,1.55.62,2.68.91,3.72s.65,2,1,3.23c.26,0,.57.93,1.06,1.57a30.67,30.67,0,0,0,2.34,5.86c.94,1.32.44.29,1,.83-.16.23,1,2.19.27,1.27a11.45,11.45,0,0,0,1,1.46c.31.41.6.78.9,1.16s.6.8,1,1.24l1.55,1.55c-.18-.36-.42-.7-.21-.6.45.44.87,1.14.72,1.16l-.13-.1c1.46,1.3,3,2.92,4.64,4.38.8.73,1.66,1.35,2.45,1.94a12.36,12.36,0,0,0,2.36,1.25l-.16-.07c1,.5,2,.83,3,1.25,1.3.71-.88-.22,0,.41,1.68.52,2.91,1.11,4.12,1.56.6.24,1.18.48,1.79.7a18.78,18.78,0,0,0,1.94.52,6.47,6.47,0,0,0,2,.92,25.61,25.61,0,0,0,2.82.73,54.37,54.37,0,0,1,5.53,1.25l-.14-.2c.78-.05.89.25,1.44.38,0-.15-.79-.29-.3-.31,6.4.87,13.15,1.94,19.73,2.57,2.41.22,1.42-.82,4.43-.24l-.87.28c4.88-.15,10,.3,14.77-.33a1.75,1.75,0,0,1-.76.23,9.44,9.44,0,0,0,3.75-.45c.74-.06.19.16.65.21,1,0,2.51-.6,3.08-.42.09,0-.28.11-.46.14.65-.15,3.07-.45,2.4-.6a17.83,17.83,0,0,0,2.55-.43A17.68,17.68,0,0,1,169,182c.85-.45,3-.64,3.21-1.13,0,.23.79.1,1.71-.16a16.2,16.2,0,0,0,2.44-1.05c-.31.26,1-.21.64.12,1.23-.45,2.28-1.08,2-1.18a8.54,8.54,0,0,0,3.2-1.46,5.81,5.81,0,0,1,2.48-1.15,52.86,52.86,0,0,0,4.46-3.52,48.74,48.74,0,0,0,3.85-3.73c.22.4-2.75,2.73-2.36,2.95,1.19-1.2,2-2.24,2.89-3.21a39.33,39.33,0,0,1,2.69-3.3c.56-.65-.13.51-.28.76.53-.64.94-1.36,1.42-2s.93-1.3,1.38-1.94a33.23,33.23,0,0,0,2.19-4,2.18,2.18,0,0,1-.17.62c.24-.53.66-1.18.45-1.21l-.21.53c-.67.68.48-2.34.38-2.49.05.56.4-.07.74-.63s.6-1.08.64-.21c.11-.36.21-.84.05-.82.25-.5.39-.64.32-.05.68-2,.24-1.35.9-3.1.09,0,0,.42.05.64a12,12,0,0,1,.85-3.39c0,.1.16-.05,0,.4a25.73,25.73,0,0,0,.83-3.61c.25-1.16.45-2.36.87-3.79.22.95.37-1,.77-1,.1-.53.15-1.06.21-1.59l-.29.59c.26-1.37.23-2.63.57-3.79l0,1c.15-.86.25-1.73.36-2.59L207.8,135c0-1.43-.49.07-.11-1.74a20.51,20.51,0,0,1,.54-2.06h0a8.88,8.88,0,0,1,.16-2.42c.15-.25.38.26.48.1a7.26,7.26,0,0,1,0-2,8.2,8.2,0,0,0,0-2.13c0,.29.24.32.29.23l-.2-.59c.15-.63.2-.72.34-.6.23-1.93-.52.57-.12-1.71a3,3,0,0,1,.06.48c.29-2.29.19-4.46.43-6.57.41-.6,0,1.86.34,1.16.13-3.06-.1-6.34.11-9.3l-.06.55c-.52-.43.35-2.19.13-3.7,0,.37.28.49.22.39a38.9,38.9,0,0,0-.43-7.25l.16.37a31.78,31.78,0,0,0-.39-4.47c-.2-.36-.31-1.1-.42-.62a10.48,10.48,0,0,0-.42-2.93c-.29-.93-.64-1.82-1-2.68s-.84-1.66-1.19-2.49c-.19-.41-.37-.83-.53-1.25s-.37-.82-.52-1.24c.22.36.62.82.45.53l-1.65-2.58c-.07.33.09.42.26,1.06A13.5,13.5,0,0,1,203.49,80c.92,1,.3-.21.06-.77,0,.12-.18,0-.21.08-.6-1.52-.5,0-1.59-1.83l.17,0a21.38,21.38,0,0,1-1.71-1.72c0-.45.65.57.85.47A11.81,11.81,0,0,0,199.72,75a4.33,4.33,0,0,1-1.22-1.19c.42.31.95.83,1.37,1.15a7.59,7.59,0,0,0-1.39-1.78l.06.07c-.47-.52-.9-1.08-1.41-1.55l.35.41a5.54,5.54,0,0,1-2.06-1.28c-.32-.27-.65-.56-1-.84a7.82,7.82,0,0,0-1.28-.74c1.85.87.42,0,.73-.14-.37-.39-1-.95-.72-.88-.92-.4-1.18-1.17-2.54-1.63,0-.12-.86-.6-.54-.68-1.09-.65.16.31,0,.35a22.88,22.88,0,0,1-2.83-1.85,13.62,13.62,0,0,0-3.5-2c-2.19-1-2.76-.91-4.81-1.79-.6-.48.71,0,.71,0a11.52,11.52,0,0,0-2.94-1.46c.25,0,.07-.15-.2-.4-.85-.37-.71,0-1.75-.59a2.94,2.94,0,0,1,1,0c-1-.4-2.08-.65-3.13-1-.2-.28.72,0,1.13.1a14.11,14.11,0,0,0-3.52-1.1l.71.41c-.43-.17-.13-.3.2-.21,1.08.24,1.39.72,1.4.83l-.75-.27c.51.87,3,1.21,4.4,2l-.78.08,1.64.41c.27.25.38.56-.36.27.94.69,1,.3,1.77.95.08.08,0,.08-.07.05l1.05.4c-.23,0,0,.35-.55,0,1.68,1.13,3,1.21,3.54,1.87l-.16-.06c2.5,1.24.38-.14,2.39.58.29.44.56.91.83,1.37l.4-.12c.24.16.71.48.56.52,1,.39-.09-.2.54,0,1.06.93,3.28,2,3.27,2.57.54.09-1-.89.32-.19.06.64,1.45.92,2.31,1.89-.47,0-1.34-.86-.48.1a2.79,2.79,0,0,1,1.39.89,13.73,13.73,0,0,0,1.34,1.32c.27-.24,1.87,1.37,3.18,2.59a10.92,10.92,0,0,0,1.17,1.43c.65.83,1.44,1.84,1.92,2.5h-.08c.49,0,1.42,1.47,2.21,2.43-.21.09-.41,0-.88-.54l.67.95a3.51,3.51,0,0,1,.9,1.08l-.38-.12c.39.67.85,1.3,1.31,2a13.48,13.48,0,0,1,1.12,2.47c.29,0,0-1.75,1,.14-.1.13-.29.29-.57-.2a3.12,3.12,0,0,1,.46.92c-.16-.25-.37-.47-.55-.7.28.87.39.36.6,1.06-.19.06,0,.56-.14.52a5.07,5.07,0,0,0-.28-.87,8.35,8.35,0,0,1,.37,2.12c.09-.1.26-.08.47.48.49,1.47-.06.57.07,1.46.23.32.29,1.32.59,1.28a1.07,1.07,0,0,1-.08.74c.32.75.55,3.69.76,2.76V96l0,.13h0c.6,2.61.2,5.5.28,8.13h-.1c.09,1.58,0,3.51.13,4.64,0,.47-.23,1.1-.34.89a12.62,12.62,0,0,1-.13,3.08c-.11-1.22-.17.41-.06-1.24a12.57,12.57,0,0,0-.16,3.6c-.22-.59-.39,1.15-.36,1.9l.25-1.08c0,.83-.08,1.56-.15,2.3l-.31-.42a19.06,19.06,0,0,0-.22,4.39,9.81,9.81,0,0,1-.46,3.78c.15.87.33-1.71.53-.93a27,27,0,0,1-.9,3.38c-.43,2,.27,1.93-.18,4,.16-.25.51-.45.38,1.12s-.76,1.71-.72.78c.05-.35.11-.51.15-.49,0-.48.07-1.1-.14-.55l.09.21c-.21.71-.57,2.69-.68,2.19-.1,1.1.1.5.32-.3-.55,1.81-.51,2.9-1.09,4.75.13-.28.33-.53.26-.23-.79,2.73,0,1.27-.46,3.16-.47,1-.31-.49-.69,1.41-.45,1.1-.37.15-.34-.32a10.25,10.25,0,0,1-.66,2.32c-.29.67-.61,1.23-.79,1.69l.21-.9a12.38,12.38,0,0,1-.42,1.4l.39-.42c-.21.5-.36.93-.45.88,0,.58.51-.27.35.86-.33.64-.71,2.09-1.09,2.2,1-2.05-.39.12.3-1.67a7,7,0,0,1-.53,1.25c-.06.06,0-.09,0-.24-1.11,1.88,0,1.08-1,3.11,0-.33-.53.32-.66.66.4-.8.46-.26.21.55a20.56,20.56,0,0,0-1,2.1,6.84,6.84,0,0,0,.47-.72c0,.35-.36,1-.83,1.86-.17,0,.39-.84.15-.56a4.74,4.74,0,0,1-1,1.6c-.22.27-.44.55-.66.85a4.86,4.86,0,0,0-.64.94c-.52.51-.32-.14-.75.32a5.94,5.94,0,0,1-1.06,1.47,7,7,0,0,0-1.25,1.39c.52-.24.54-.35-.12.78.59-.81,1.26-1.56,1.79-2.41a17.76,17.76,0,0,1-1,1.71c.29-.35.58-.73.84-1.08a10.69,10.69,0,0,1,.6-.92c-.38.87-.37.76,0,.52a7.38,7.38,0,0,0-1.23,1.44,7.54,7.54,0,0,1-1.31,1.56l-.41-.43c-.2.18-.38.36-.56.55l-.55.52c-.35.35-.68.72-1,1.12s-.7.79-1.1,1.22-.93.78-1.5,1.19l.77-.48c-.15.41-1.34,1.1-2,1.74,0-.2-.55.06-1,.17.12.09-1.71,1.1-1.71,1.58a8.23,8.23,0,0,1-1.21.42c-2,1-2,1.8-4,2.6.51-.47-.45-.19.82-.92-.67.29-1.28.52-1.23.65-.44.06-1.74,1.08-2.46,1.1a2.33,2.33,0,0,1-1.06.67c-.1,0,0-.09,0-.09s-1.17.56-.42.53a23.37,23.37,0,0,0-4.16,1,15.82,15.82,0,0,1-4,.69c-1.57.32-3.46.75-4.91.91.09-.07,0-.1.27-.11-2,0-1.16.72-3.46.75-1.2-.23,1.19-.28.46-.34-.38-.61-2.75.3-4.31,0l.37-.06c-1.18-.18-2.85.37-4.78.34,0,0,.09-.05,0-.09a29.54,29.54,0,0,1-5.67.47c.58-.24.85-.11.5-.38-.83,0,.23.42-1.43.45-.54-.14-1.73-.34-1.88-.62l1.57.06c-.79-.39-2-.09-2.85-.19l.12-.15c-2.4-.06-2.46.29-5,.1l.26.14c-1.44.28-1.16-.32-2.59-.14l-.39-.43c-.94,0-3.29.09-5,0,1-.19,2.93-.15,4.15-.22A20.13,20.13,0,0,0,128,181a4.89,4.89,0,0,1,1.21,0,16.31,16.31,0,0,1-4.48,0c.2-.36-1-.55-2.37-.75a12.45,12.45,0,0,1-3.58-.86c-3.24-.22-6.29-1.24-9.9-2.17,1.12.92-1.06-.27-1,.37a4.39,4.39,0,0,1-1.23-.38c-.8-.4-1.62-.74-2.4-1.18-.53-.38.82.17.79,0-1.77-.69-.66-.52-1.78-1.1.17.28-.74.1-1.69-.43a13.76,13.76,0,0,0,1.31.83,5.28,5.28,0,0,1-2.25-1,8.35,8.35,0,0,0-2.2-1.14l.83.2c-1.29-.47-4.43-2.31-5.75-2.73-.16-.19-.33-.51.19-.21-2.64-1.83-6-4.07-7.41-6.27l.28.08c-.42-.43-.95-.58-1.28-1.29.07,0,.26.11.1-.12A11.58,11.58,0,0,1,83.83,161l.54.46c-.89-1.3-1.51-2.34-2.24-3.25a17.78,17.78,0,0,1-2-3c.21-.1,0-.7-.15-1.47s-.47-1.66-.66-2.26l.08,0a86.51,86.51,0,0,1-2.91-9.32c0-2.17-.7-7.26-.49-10.74-.07.53-.35-.08-.4-.7.07-.81-.35-2.25.07-2.12v.29c.4-.62.33-2.29.37-3.59l-.53-.24c.88-3.38.33-9,1.24-10.81-.06-.84.09-1.86,0-2.69l.28.08c.35-2.27.54-3.41.9-6.22l.11.6c.25-1.58-.5-2.13-.26-3.59l.49-.37c.49-2.75,1.39-5.43,1.72-8.17.05.06.15.17.06.61.28-1.28,1.62-4.77.94-4.49.37.08.9-2.71,1.31-4.16l.18.32a7.61,7.61,0,0,1,.65-3.05c.2-.37.35-.25.06.24.68-1.23.21-1.11,1.09-2.57l-.12.65a5.73,5.73,0,0,0,.71-2c.34-.85,1.41-2.34,1.77-2.36a3.26,3.26,0,0,1,.76-1.68c.14,0,0,.25,0,.4a22.11,22.11,0,0,0,1.67-2.34,7.2,7.2,0,0,1,1.52-1.75c.09,0,.19,0,.3-.1-.62.71-1.19,1.35-1.59,1.79a4.84,4.84,0,0,1-.55.68c.21.16,1.16-1,.71.16a18.1,18.1,0,0,1,1.19-2,7.75,7.75,0,0,1,1.63-1.88.8.8,0,0,1,.2-.07l-.09.12a3.7,3.7,0,0,0,.64-.68c.36-.3.63-.45,1-.74.13,0,.48-.23.87-.56l1.15-.89c-.22-.18.61-.75-.27-.37.1-.06-.1.11-.5.42-.08.08-.19.16-.24.22l0,0c-.41.29-.88.74-1.45,1.21a4,4,0,0,1,1.54-1.39c.2-.38.44-.79.58-1A29,29,0,0,1,99,65.45c1.9-1.34,4.78-2.61,6-3.63a1.38,1.38,0,0,1,1-.14,5.5,5.5,0,0,0-.93.49c.59-.32,1.51-.66,2.3-1a3.88,3.88,0,0,0,1.58-.83c1.67-.33-.81.58,1.4-.12l-.27.19a35.43,35.43,0,0,0,5.82-1.6,18.38,18.38,0,0,1,6.35-1.1,1.6,1.6,0,0,1-.62-.05c5.77-.48,11.88-1.57,17.61-1.11a7.79,7.79,0,0,0,2.79-.32l.35.31,1.71-.33c2.42-.2,4.13.87,7.19.59l-.38-.23c1.09.12,3.47.16,3.27.38a1.15,1.15,0,0,1,.79,0l0,.16c.9,0,1.8,0,2.7,0,2.05.36-.4.58,2.6,1,1.13.1,3.25,0,2.85-.15s-1.14-.27-1.15-.43l1,.07c.25-.43,1.13-.79-1.37-1.48l-1.81,0-.54-.29,1.5.18a3.74,3.74,0,0,0-2-.16,1.51,1.51,0,0,0-.71-.34l-1.8.25c-.19-.21.82-.27-.34-.5-.84.12.74.48-.62.48-.83-.29-.57-.44-1.58-.35-.13-.14.08-.19.49-.21a15.59,15.59,0,0,0-2.85.08c-.87-.33-3-.12-2.9-.56a11.27,11.27,0,0,1-2.4.27c1.51-.49-3.07-.12-2.67-.67-1.12.46-4,.18-6,.51a1.09,1.09,0,0,1,.5-.11,15.67,15.67,0,0,1-2.15-.21c-.13.4-1.84.56-2.76.85-1.37-.29.8-.51.36-.84.08.31-2.34.46-1.86.7-1-.17-.9-.05-1.46-.34-.14.51-1,.16-1.79.53-1.51-.09-.43-.42-2-.11C125.44,55.22,126.88,54.9,126.88,54.9ZM90.82,69.41h0l.58-.59Zm-2.27,2.45,1-1.08c.15,0,.14.14-.09.39C89.5,71,89,71.54,88.55,71.86Zm6.25-3.43c-.35.36-.52.42-.61.42l.65-.59,0-.06A.59.59,0,0,1,94.8,68.43Z"/><path class="cls-3" d="M95.29,67.59c.06,0,.08-.08.16-.14l-.28.13-.09.18Z"/><path class="cls-3" d="M209,96.23v.07a.61.61,0,0,1,0-.15S209,96.2,209,96.23Z"/><polygon class="cls-3" points="74.19 114.57 74.27 114.58 74.23 114.28 74.19 114.57"/><path class="cls-3" d="M203.55,79.22a.68.68,0,0,0-.08-.24A.75.75,0,0,0,203.55,79.22Z"/><path class="cls-3" d="M198.48,73.2l-.72-.86C198.06,72.72,198.29,73,198.48,73.2Z"/><path class="cls-3" d="M194,69.1a.21.21,0,0,0-.16,0h0Z"/><path class="cls-3" d="M200.7,158.63a2.25,2.25,0,0,0-.12.21C200.35,159.34,200.52,159,200.7,158.63Z"/><path class="cls-3" d="M208.23,131.19c0,.31,0,.61,0,.92C208.33,131.62,208.39,131.23,208.23,131.19Z"/><path class="cls-3" d="M177,179.79h0l-.19.07Z"/><path class="cls-3" d="M208,133.42a6.21,6.21,0,0,0,.21-1.31A9.66,9.66,0,0,0,208,133.42Z"/><path class="cls-3" d="M171.41,56.13l-.26-.12s0,0-.05,0Z"/><path class="cls-3" d="M171.1,56l-.31-.1A.86.86,0,0,0,171.1,56Z"/><path class="cls-3" d="M170.15,55.74l.64.2A1.8,1.8,0,0,0,170.15,55.74Z"/><path class="cls-3" d="M178.58,59.6l.12,0A.13.13,0,0,0,178.58,59.6Z"/><path class="cls-3" d="M180.74,60.69a15.76,15.76,0,0,0-1.93-1.17l-.11,0C179.11,59.59,180.18,60.59,180.74,60.69Z"/><path class="cls-3" d="M188.79,66.85c-.54-.41-1.08-.8-1.64-1.16.24.28.55.64-.24.19C188.87,67.48,186.62,65.36,188.79,66.85Z"/><path class="cls-3" d="M193.71,70.61c-.88-.61-.09.13-.17.15C194.13,71.1,194.27,71.2,193.71,70.61Z"/><path class="cls-3" d="M208.88,110.25l-.25-.12C208.63,111,208.73,110.14,208.88,110.25Z"/><polygon class="cls-3" points="209.72 118.95 209.93 118.15 209.72 117.75 209.72 118.95"/><polygon class="cls-3" points="207.49 123.89 207.49 123.52 207.44 124.91 207.49 123.89"/><path class="cls-3" d="M167.8,179.94l.32.25C168.65,180,168.68,179.64,167.8,179.94Z"/><path class="cls-3" d="M135.47,181.61a3.84,3.84,0,0,0-1.83-.25A18.07,18.07,0,0,0,135.47,181.61Z"/><polygon class="cls-3" points="76.02 123.43 76.1 124.09 76.07 122.86 76.02 123.43"/><path class="cls-4" d="M191.32,89.29A112,112,0,0,1,171.47,99.4a63.73,63.73,0,0,1,5.78-14.17,5,5,0,0,0,.95-3.18,5.29,5.29,0,0,0-1.36-2.29,29.91,29.91,0,0,1-6.71-22.16c.56-5.12,2.44-10,4.49-14.73a13.54,13.54,0,0,1,2.49-4.23A12,12,0,0,1,182,36c12-4,26.16-1.75,35.77,6.52S231.64,65,227.46,77a20.3,20.3,0,0,1-4.79,8c-3.69,3.59-9,5.09-14.16,5.15s-10.2-1.17-15.2-2.4"/><path class="cls-4" d="M193.5,86.89c-.13.07-.13.31.18.34l.3-.33Z"/><path class="cls-4" d="M195.31,88.07c.4-.1.87-.32.73-.72-.43.28-.48.11-.95.45-.31,0-.49-.25-.4-.37-.13.07-.44-.2-.66,0a1.31,1.31,0,0,0,1.37.4C195.48,87.94,195.36,88,195.31,88.07Z"/><path class="cls-4" d="M223.7,84.62l-.17.11A.55.55,0,0,0,223.7,84.62Z"/><path class="cls-4" d="M229.79,67.16c0,.15.06.21.09.21S229.83,67.13,229.79,67.16Z"/><path class="cls-4" d="M230,63.91v.19C230.05,64,230.06,64,230,63.91Z"/><path class="cls-4" d="M223.7,84.62l.43-.3C224.06,84.21,223.89,84.45,223.7,84.62Z"/><path class="cls-4" d="M199.5,88.05a.78.78,0,0,0-.28,0h.25Z"/><path class="cls-4" d="M216.86,89.45l-.14,0a1.07,1.07,0,0,0-.07.19Z"/><path class="cls-4" d="M210.57,90.87c.15,0,.17-.33.21-.48a.44.44,0,0,1-.29.25A.49.49,0,0,0,210.57,90.87Z"/><path class="cls-4" d="M200.61,89.63h0Z"/><path class="cls-4" d="M221.06,87.4a.15.15,0,0,0,.11.06A.17.17,0,0,0,221.06,87.4Z"/><path class="cls-4" d="M184.37,91.64l0,0S184.41,91.62,184.37,91.64Z"/><path class="cls-4" d="M191.36,89.36l-.07.07.08.16Z"/><path class="cls-4" d="M229.31,58v0C229.39,58.12,229.36,58,229.31,58Z"/><path class="cls-4" d="M185.72,33.55c.66.15-.89.6.07.71C185.68,34.15,186.51,33.57,185.72,33.55Z"/><path class="cls-4" d="M199.64,88.13l.25.05A.68.68,0,0,0,199.64,88.13Z"/><path class="cls-4" d="M185.79,34.26h0Z"/><path class="cls-4" d="M222.82,45.81a.44.44,0,0,0,0,.2S222.83,45.94,222.82,45.81Z"/><path class="cls-4" d="M227.53,54.85l-.06-.25A1.31,1.31,0,0,0,227.53,54.85Z"/><path class="cls-4" d="M218.84,42.26c-.08-.11-.09-.18-.25-.27a.2.2,0,0,0,0,.07C218.68,42.07,218.76,42.11,218.84,42.26Z"/><path class="cls-4" d="M214.48,38.93a.54.54,0,0,0,.05.11l.15.08Z"/><path class="cls-4" d="M173.75,96.71l-.45.44C173.64,96.84,173.71,96.92,173.75,96.71Z"/><path class="cls-4" d="M199.46,88.24a.19.19,0,0,1,.18-.11l-.17,0S199.43,88.2,199.46,88.24Z"/><path class="cls-4" d="M217,44.05a5.12,5.12,0,0,0-.58-.56Z"/><path class="cls-4" d="M171.43,63.24l0,.18A.27.27,0,0,0,171.43,63.24Z"/><path class="cls-4" d="M214.46,42.06a1.26,1.26,0,0,0-.25-.44.25.25,0,0,0-.12,0Z"/><path class="cls-4" d="M173.29,97.15h0Z"/><path class="cls-4" d="M175.06,95.89c-.72.3-.19.54-.21.82-.35.29-.24-.24-.33-.44-.06.15-.32.69-.49.74a1.34,1.34,0,0,1,.12-.25c-.28.37-.46.36-.76.55,0,0-.09,0-.27,0l.17-.19c-.33.33-.66.66-.88.85.05-.23-.24-.21.18-.59-.06.17.09.07.2,0a.4.4,0,0,1-.1-.12c.61-.56.1.19.53-.17a1,1,0,0,1-.19-.35.77.77,0,0,1,.1-.58c.44-.08-.06.64.46.17a5.29,5.29,0,0,0-.3.46c.88-.71-.11.18.83-.52.09-.12,0-.11,0-.16a.13.13,0,0,1,0-.09c0-.06,0,0,.13-.32-.12-.31-.33,0-.46-.34.18-1.66,1.37-.84,1.3-2.13-.13-.38-.56-.68,0-1.36l.31.44c.46-1-.36-.83.38-1.77.08.26-.21.85-.09.72.62-.54,0-.58.21-1.11l.41.06c.43-1.08.74-2.36,1.29-3.54.07.11.07.37.32.16a25.59,25.59,0,0,1,1.24-2.42,6,6,0,0,0,.57-1.67,4.5,4.5,0,0,0-.16-2,4.57,4.57,0,0,0-.7-.59c-.1-.15-.06-.36.11-.24-.35-.71-.21.09-.53-.13s-.17-.53.07-.4a15.37,15.37,0,0,1-1.62-1.41,4.71,4.71,0,0,1-1.09-1.78l.2.12c-.34-.8-1.14-.44-1.26-1.32l.13.1c-.83-1.7-1.95-3.52-1.93-5.06-.57-.1-.36-1.83-1-1.77A12,12,0,0,0,172,66c0-.4-.53-.51-.69-1l.36-.06c-.17-.21-.31-.41-.47-.62l.39-.41-.15-.46c0,.19-.11.41-.22.4a2.12,2.12,0,0,1,.29-1.83c-.11-.56-.24-1.14-.33-1.71.15,0,.18.33.29.55-.37-.92.37-.16.06-1-.09.11-.22-.07-.29-.09a5.23,5.23,0,0,0,.27-2.07l.24.16c.19-1.24.26-2.66.6-4.07-.24.47-.63.27-.57-.16l.41-.08c-.16-.33-.24.4-.39-.22.18-.52.51-.25.56.08l0-.67c.12,0,.14.16.27.23-.16-.32.67-1,.39-1.47h.12c.43-1.39.53-2.06.93-3.19-.3-.13-.07-.55-.19-1a23.92,23.92,0,0,0,1.42-2.6c.14-.76-.17-.32-.22-.71.3.07.69-.93.67-.33.48-1.2.56-1.53,1.1-2.95-.19.08-.33.21-.37.08s.44-.47.54-.35v.07A3,3,0,0,1,179,38.82a6,6,0,0,0,2.17-1.06l-.06.05c.39-.27.81-.54,1.24-.8.67-.15-.31.33.22.36a5.34,5.34,0,0,1,1.87-.76,5.54,5.54,0,0,0,1.74-.48c1.15.62,3.53-.68,5-.22l-.1-.2c.34-.25.44.07.7.11,0-.16-.4-.17-.18-.29,3-.46,6.19.28,9.11,1,1.06.28.83-.93,2.11-.15l-.48.29c2.31.08,4.42,1.24,6.57,1.79-.16,0-.21.13-.41.05.33.41,1.55.73,1.66.53.3.18,0,.22.12.42.33.35,1.21.2,1.29.59,0,.06-.16,0-.24,0,.32,0,1.19.74,1.11.32.64.53,1.42.71,1.85,1.25.58-.06,1,1,1.46.64-.37.39.87,1.22,1.42,1.39-.23,0,.22.44-.08.46.44.4.9.7,1,.43a2.42,2.42,0,0,0,1.05,1.19c.41.29.77.56.67,1.05.67.58,1.29,1.18,1.88,1.78s1.1,1.25,1.57,1.91c-.45.21-1-1.45-1.45-1.08a10.21,10.21,0,0,1,2.49,3c.11.38-.29-.1-.44-.17a14.71,14.71,0,0,1,1.06,1.93,11.64,11.64,0,0,0,.93,1.87s-.15-.1-.24-.21c.12.24.16.6.38.48l-.16-.21c.08-.26.35-.08.63.17s.51.58.6.57c-.79-.21.26,1.35-.79.93.09.15.27.32.41.24,0,.26,0,.37-.28.17.43.87.54.48.76,1.33-.11,0-.2-.14-.35-.19a2.53,2.53,0,0,1,.74,1.49c-.08,0-.15.07-.2-.14a10.91,10.91,0,0,0,.59,1.64,3.67,3.67,0,0,1,.34,1.8c-.54-.35-.12.49-.54.6l.2.73c.07-.1.12-.21.18-.31a6.9,6.9,0,0,1,.24,1.79l-.2-.49.12,1.23.15-.7c.24.67.56-.07.44.81,0-.18,0,.67-.31,1h0a1.79,1.79,0,0,1,.12,1.17c-.14.11-.48-.14-.57-.07.33.35-.09,1.53.24,2a.31.31,0,0,0-.35-.15l.26.31c-.13.29-.19.32-.36.25-.25.88.61-.19.14.83,0-.09,0-.06-.06-.24a7.25,7.25,0,0,0-.3,1.57,6.19,6.19,0,0,1-.42,1.47c-.51.15.14-.87-.31-.66a14.31,14.31,0,0,1-1.14,4.23l.16-.21c.48.45-.73.8-.82,1.53,0-.17-.19-.36-.15-.29-.56.77-.85,1.73-1.63,3v-.24c-.46.34-1,1-1.53,1.37,0,.24-.29.45,0,.49a5.57,5.57,0,0,0-2.28,1.42,3.35,3.35,0,0,1-2.26,1.07c.18-.07.37-.31.23-.25-.41.23-.82.46-1.25.66.2.22.23.09.59.18a1.58,1.58,0,0,1-.79.6c.55-.39-.15-.41-.46-.48.07.07,0,.18.06.26-.85-.24,0,.57-1,.53v-.15a3.14,3.14,0,0,1-1.07.48c-.23-.27.37-.23.34-.49-.55.15-1,.82-1.59.6.23-.13.58-.19.81-.32a1.71,1.71,0,0,0-1.1-.15h0c-.33,0-.66,0-1,0l.25.07c-.63.89-1.44.31-2.39.86.94-.53.15-.3.21-.65-.25-.1-.63-.2-.52-.3-.45.29-.75-.21-1.4.18,0-.11-.49,0-.38-.31-.59.07.13.21.08.35-.95.35-2.11-.6-3.48-.24-1.16.06-1.44.4-2.54.41-.32-.24.37-.36.37-.36a3,3,0,0,0-1.55-.29c.13-.08,0-.18-.11-.34-.44-.06-.37.35-.91.06a2,2,0,0,1,.53-.36c-.53,0-1.08.1-1.63.08-.1-.22.38-.22.6-.31-.61,0-1.57-.17-1.83.09l.35.2c-.21,0,0-.29.13-.31.56-.12.7.28.71.4l-.39,0c.24.75,1.53.24,2.28.43l-.41.41.86-.24c.14.16.2.45-.19.45.5.34.52-.08.94.27.05,0,0,.07,0,.08l.56,0c-.12.09,0,.36-.29.23.93.45,1.63-.1,1.94.32h-.08c1.38,0,.18-.33,1.24-.62l.59,1,.17-.34c.14,0,.41.08.35.21.54-.2-.08-.16.25-.36.65.39,1.86,0,2,.52.25-.26-.65-.23.08-.39.2.61.84-.09,1.46.17-.18.32-.79.17-.15.44.36-.54,1.23.07,1.76-.08,0-.42,1.13-.28,2-.56a10.3,10.3,0,0,0,2.53-.16V90c0-.45.88-.61,1.44-.91.06.25,0,.4-.3.61l.57-.2c.08-.18.23-.31.57-.49l0,.35a19.23,19.23,0,0,1,2.31-1.26c-.11-.28-1.08-.36-.28-1,.11.12.29.34.08.54a.83.83,0,0,1,.4-.31c-.07.16-.15.3-.23.45.46-.12.1-.31.42-.48.11.2.31,0,.37.18s-.33.09-.4.24a2.35,2.35,0,0,1,1.12-.29c-.11-.09-.18-.26.05-.46.64-.47.39.08.84-.12.05-.24.56-.44.34-.71.19-.15.32-.06.45,0,.23-.38,1.36-1.39.76-1.31l-.08.06,0-.06h0c.65-1.18,1.92-2,2.47-3.23l.1.06a7.8,7.8,0,0,0,.77-2.19c.1-.21.41-.41.5-.26a3.15,3.15,0,0,1,.55-1.43c0,.63.25-.14-.08.63.37-.7.63-.8.56-1.71.2.37.53-.46.55-.84l-.36.47a6.58,6.58,0,0,1,.34-1.11l.32.3a3.63,3.63,0,0,0,.38-2.2,2.63,2.63,0,0,1,.41-1.88c-.21-.46-.3.84-.57.42.15-.72.8-1.42.83-1.66.27-1-.52-1-.32-2-.15.13-.52.24-.63-.53s.56-.9.68-.44c0,.18,0,.26-.07.25.06.24.12.56.27.27l-.14-.1c.13-.37.09-1.39.32-1.16-.15-.56-.23-.23-.29.19a12,12,0,0,0,0-2.47c-.06.16-.2.32-.22.17,0-1.44-.31-.6-.5-1.54.12-.57.54.12.2-.81,0-.61.34-.19.49,0-.42-.84-.1-1.69-.2-2.21l.22.44a3.38,3.38,0,0,1-.24-.72l-.21.33c0-.28-.07-.51,0-.53-.25-.24-.4.32-.77-.17,0-.39-.41-1-.11-1.25.19,1.14.33-.23.64.7a1.73,1.73,0,0,1-.17-.68s.08,0,.12.09c0-1.17-.56-.38-.9-1.47.24.07.29-.38.19-.55.14.45-.26.33-.55,0-.09-.74-.4-.7-.52-1.06l.09.43c-.25-.06-.36-.41-.61-.85.13-.1.28.38.27.19-.54-.38-.12-1.34-.71-1.94,0-.39.34-.2.28-.53-.64-.68-.15-1-.83-1.73-.11.38,0,.38-.6-.05.31.41.65.81.92,1.24-.26-.23-.54-.46-.83-.67a7.88,7.88,0,0,1,.7,1c-.41-.31-.33-.3-.44,0,.12-.76-.81-1-.91-1.72l.6-.34c-.27-1.14-1.35-1.47-2-2.74l.16.45c-.32,0-.53-.7-.92-1,.21-.11.1-.38.09-.63-.12.13-.64-.84-1.08-.64l-.19-.67c-.71-.93-1.35-.55-2.09-1.34.42,0,.16-.42.84,0-.27-.25-.49-.51-.61-.4-.06-.26-1-.47-1.06-.86-.19,0-.37.1-.68-.17,0-.06.08-.08.08-.08s-.6-.28-.49.14a3.45,3.45,0,0,0-1.46-1.56A3.85,3.85,0,0,1,214.53,39c-.72-.36-1.6-.77-2.23-1.13.07,0,.06-.1.16,0-.78-.67-.85.3-1.75-.42-.35-.6.63.09.37-.2.19-.76-1.27-.53-1.81-1.21l.19,0c-.45-.46-1.43-.33-2.32-.66,0,0,.07,0,0-.11a11.23,11.23,0,0,1-2.86-.25c.35-.21.44,0,.35-.38-.4-.06,0,.5-.82.37-.21-.23-.75-.53-.75-.85.25,0,.5.12.76.18-.29-.52-1-.23-1.37-.38l.09-.17c-1.2-.17-1.29.22-2.54,0l.1.15c-.75.36-.54-.33-1.27-.1l-.15-.49c-.48,0-1.66.31-2.47.32a8.56,8.56,0,0,1,2.08-.55,4.2,4.2,0,0,0-1.81.11c.18,0,.42-.12.6,0a4.75,4.75,0,0,1-2.23.42c.1-.45-.5-.52-1.2-.56s-1.5,0-1.85-.32c-1.6.42-3.24.13-5.12.52.79.57-.55.11-.29.79-.42.14-.59.17-.63.13l-1.4-.12c-.36-.13.37-.24.3-.39-1,.17-.48-.22-1.15-.23.19.21-.23.45-.8.52l.84.09c-1.18.76-1.3-.25-2.51.54l.35-.36c-.62.32-2.57.95-2.94,1.86-.15,0-.41-.09-.14-.3a6.55,6.55,0,0,0-2.24,2c-.61.82-1,1.62-1.5,2.14l-.09-.21c-.12.32,0,.66-.32.94-.06,0-.1-.19-.18-.06a3.14,3.14,0,0,1-.34,1.23l0-.4c-.87,1.4-.53,2.45-.93,3.73-.48-.19-1.11.92-1.41,1.48l-.06,0a19.88,19.88,0,0,0-1,4.9c-.86.89-1.15,3.52-1.66,5.26.13-.26.4.09.41.41-.16.4.25,1.17-.22,1.07l0-.15c-.5.27-.44,1.16-.46,1.83l.62.12a4.74,4.74,0,0,0-.18,3.06,4.37,4.37,0,0,1,.09,2.49c.23.39.3.91.55,1.28l-.33,0a12.75,12.75,0,0,0,.76,3.13l-.32-.22c.25.8,1.23.7,1.5,1.38l-.39.38c.48,1.33.73,2.83,1.78,3.88a.29.29,0,0,1-.35-.15c.29.6,1,2.44,1.48,1.86-.38.26.76,1.27,1.37,1.76l-.33.09a3,3,0,0,1,1.47.84c.1.2-.09.32-.2,0,.3.67.6.24,1,1l-.34-.09c.38.52.41.39.8.55a.8.8,0,0,1,.24.64.47.47,0,0,1-.29.44.49.49,0,0,1,.23.7c-.12,0-.15-.12-.17-.19-.44.8-.26,1.56-.92,2.13a.28.28,0,0,0-.24,0c.49-.85.79-1.41.78-1.35-.27-.12-.61.43-.75-.21a4.52,4.52,0,0,1-.59,2.32.7.7,0,0,1-.14,0v-.08a1,1,0,0,0-.17.44,2.6,2.6,0,0,0-.37.52c-.26,0-.52.73-.7,1.07.31.12,0,.55.5.24-.05,0,0-.08.09-.32a.49.49,0,0,0,0-.16v0c.1-.23.24-.53.41-.86a1.11,1.11,0,0,1-.36,1,6.31,6.31,0,0,1,.25.71c-.64.26-1.29,1.08-1.6,1.1-.32,1.14-1,2.6-.66,3.51,0,.33-.3.29-.44.37,0-.2.1-.41.06-.54-.1.67-.63,1.87-.27,2.16-.11.17-.19.25-.24.26s-.07-.07-.08-.13,0-.21-.27.59l-.06-.23a7.82,7.82,0,0,0-.95,2.87,13.14,13.14,0,0,0-.06,1.91,6.16,6.16,0,0,1,2.7-.9c-.19,0-.28,0-.28,0a19.42,19.42,0,0,0,2.61-1c.67-.31,1.32-.63,2-1a20,20,0,0,1,4-1.67c.77-.24.72-.54,1.05-.95l.32.24.54-.75c.9-.81,2.22-.2,3.24-1.44l-.28-.11c.49-.22,1.39-1,1.45-.69,0-.06,0-.3.27-.3l.11.15,1-1c.94-.42.25.72,1.54,0,.43-.36,1-1.3.8-1.29s-.54.2-.65.06l.37-.35c-.22-.51-.2-1.19-1.44-.86l-.54.74-.37-.08.6-.39c-.48,0-.58.32-.75.6a.58.58,0,0,0-.45-.06l-.45.88c-.19-.13.1-.56-.44-.37-.21.41.57.22.1.69-.48,0-.48-.24-.79.18-.12-.08-.08-.21.05-.36-.28.36-.93.63-1,1-.52-.06-1.22.77-1.43.3a2.64,2.64,0,0,1-.79.92c.33-.88-1.31.66-1.46,0-.2.74-1.57,1.1-2.27,1.79,0-.06.08-.19.16-.2a3.48,3.48,0,0,1-1,.16c.14.44-.55.89-.83,1.34-.78-.13.12-.66-.24-1,.19.33-.86.82-.53,1-.56,0-.44.06-.83-.18.16.56-.38.28-.61.77-.77,0-.38-.42-1,0C174.51,96.35,175.06,95.89,175.06,95.89Zm2.41-9.22h0l-.17.35Zm.75-1.39a6.42,6.42,0,0,0-.34.6c-.13,0-.2-.11-.12-.25C177.78,85.74,178,85.45,178.22,85.28Zm-3.6,1.92c.07-.25.17-.3.25-.3a4,4,0,0,0-.17.42l0,0A.54.54,0,0,1,174.62,87.2Z"/><path class="cls-4" d="M174.8,87.8a.22.22,0,0,1,0,.11l.13-.1,0-.13Z"/><path class="cls-4" d="M223.5,84.75l0,0-.08,0A.08.08,0,0,1,223.5,84.75Z"/><polygon class="cls-4" points="171.79 64.89 171.71 64.91 171.8 65.03 171.79 64.89"/><path class="cls-4" d="M215.57,88.3a.18.18,0,0,0-.13,0S215.51,88.29,215.57,88.3Z"/><path class="cls-4" d="M212,89.06l-.53,0A3,3,0,0,0,212,89.06Z"/><path class="cls-4" d="M209.18,89.15a.37.37,0,0,0-.05.15h0Z"/><path class="cls-4" d="M225.55,55.85a.31.31,0,0,0-.05-.1C225.34,55.54,225.43,55.69,225.55,55.85Z"/><path class="cls-4" d="M228.5,68.79a3.19,3.19,0,0,1-.13-.44C228.33,68.59,228.31,68.78,228.5,68.79Z"/><polygon class="cls-4" points="217.01 44.12 217.01 44.11 216.95 44.05 217.01 44.12"/><path class="cls-4" d="M228.4,67.73a1.11,1.11,0,0,0,0,.62A1.84,1.84,0,0,0,228.4,67.73Z"/><path class="cls-4" d="M197,87.48l-.13,0a0,0,0,0,1,0,0Z"/><path class="cls-4" d="M196.84,87.48h-.16C196.75,87.5,196.81,87.51,196.84,87.48Z"/><path class="cls-4" d="M196.35,87.49h.33C196.57,87.46,196.44,87.42,196.35,87.49Z"/><path class="cls-4" d="M200.69,88.41l.06-.11A.17.17,0,0,0,200.69,88.41Z"/><path class="cls-4" d="M201.83,88.58a3.46,3.46,0,0,0-1-.37l-.05.09C201,88.16,201.53,88.73,201.83,88.58Z"/><path class="cls-4" d="M206.49,90.58l-1-.16c.16.14.38.33-.08.32C206.66,91.21,205.19,90.45,206.49,90.58Z"/><path class="cls-4" d="M209.59,90.77c-.54.08,0,.19,0,.26C209.92,90.89,210,90.85,209.59,90.77Z"/><path class="cls-4" d="M227.49,79l.25.17C227.87,78.73,227.64,79.08,227.49,79Z"/><polygon class="cls-4" points="227.37 74.5 227.08 74.82 227.29 75.07 227.37 74.5"/><path class="cls-4" d="M230,72.5a1.21,1.21,0,0,1,0,.19c0-.24,0-.48,0-.72Z"/><path class="cls-4" d="M215.45,39.24l-.1.38C215.61,39.72,215.9,39.41,215.45,39.24Z"/><path class="cls-4" d="M200.21,33.68a.83.83,0,0,0-.89-.25A5.54,5.54,0,0,0,200.21,33.68Z"/><polygon class="cls-4" points="168.51 60.93 168.38 60.59 168.5 61.23 168.51 60.93"/><path class="cls-3" d="M186.89,67.37c4.83,0,4.84-7.5,0-7.5s-4.83,7.5,0,7.5Z"/><path class="cls-3" d="M200.17,64.57c4.83,0,4.84-7.5,0-7.5s-4.83,7.5,0,7.5Z"/><path class="cls-3" d="M214.15,63.17c4.83,0,4.84-7.5,0-7.5s-4.83,7.5,0,7.5Z"/><path class="cls-5" d="M147,90.63c-4-1.73-8.52-2-11.48,1.74-2,2.56-2.62,6-2.42,9.29a12.49,12.49,0,0,0,1.8,6.19,9.49,9.49,0,0,0,7,4,11.49,11.49,0,0,0,7.83-2.39c5.68-4.33,8-17.87-1.63-19.12"/><path class="cls-5" d="M148.14,89.81c0,.07,0,.23.06.22l.12-.27Z"/><path class="cls-5" d="M148.75,90.44a.69.69,0,0,0,.31-.58c-.18.24-.19.12-.38.41-.1,0-.16-.12-.12-.21-.05.06-.15-.09-.24.07.1.24.26.27.47.13C148.82,90.33,148.77,90.39,148.75,90.44Z"/><path class="cls-5" d="M154.19,97.52l0-.06A.09.09,0,0,0,154.19,97.52Z"/><path class="cls-5" d="M153.22,103.32a.07.07,0,0,0,0-.08C153.19,103.29,153.19,103.32,153.22,103.32Z"/><path class="cls-5" d="M152.57,104.14l0,0S152.56,104.12,152.57,104.14Z"/><path class="cls-5" d="M154.19,97.52l-.08.17C154.2,97.69,154.17,97.6,154.19,97.52Z"/><path class="cls-5" d="M150.3,90.19a.2.2,0,0,0-.11,0h.09Z"/><path class="cls-5" d="M153.42,95.09v0h-.12Z"/><path class="cls-5" d="M152.49,93.46s.21-.09.31-.14c-.1,0-.15,0-.19,0A.45.45,0,0,0,152.49,93.46Z"/><path class="cls-5" d="M150.38,91.25h0Z"/><path class="cls-5" d="M153.75,96.42l-.08,0A.11.11,0,0,0,153.75,96.42Z"/><path class="cls-5" d="M145,88.76v0S145,88.76,145,88.76Z"/><polygon class="cls-5" points="146.93 90.68 146.89 90.68 146.84 90.8 146.93 90.68"/><path class="cls-5" d="M151.5,105.6h0S151.5,105.57,151.5,105.6Z"/><path class="cls-5" d="M137.9,109.49c0,.29-.39.06-.29.42C137.64,109.82,138,109.74,137.9,109.49Z"/><path class="cls-5" d="M150.34,90.24l.09,0A.16.16,0,0,0,150.34,90.24Z"/><path class="cls-5" d="M137.61,109.91h0l0,0Z"/><path class="cls-5" d="M149.05,108.7a.27.27,0,0,0,.1.06Z"/><path class="cls-5" d="M151.34,106.74l-.07.05A.1.1,0,0,0,151.34,106.74Z"/><path class="cls-5" d="M147.91,109.85s-.08,0-.11,0l0,0S147.85,109.84,147.91,109.85Z"/><polygon class="cls-5" points="146.39 110.55 146.44 110.58 146.48 110.55 146.39 110.55"/><path class="cls-5" d="M139.09,88.77a.9.9,0,0,1,.15.19C139.16,88.8,139.43,88.67,139.09,88.77Z"/><path class="cls-5" d="M150.25,90.31s.06-.07.09-.07h-.06A.16.16,0,0,0,150.25,90.31Z"/><path class="cls-5" d="M148.75,111.52l-.29.12A1,1,0,0,0,148.75,111.52Z"/><path class="cls-5" d="M132.06,99.75l0-.07S132,99.73,132.06,99.75Z"/><path class="cls-5" d="M147.64,112.06a.54.54,0,0,0-.22-.08s0,0,0,.07Z"/><path class="cls-5" d="M139.24,89Z"/><path class="cls-5" d="M141.22,88.09c-.31,0-.13.31-.18.5-.34.1-.18-.22-.32-.38-.22.12-.35.42-.52.43,0,0,0-.06,0-.13-.2.26-.7.15-.88.52l-.06-.07a1.33,1.33,0,0,1,.15.4c-.12,0-.17.25-.27.07.07,0,.06-.1.07-.17l-.1.13c-.2-.24.15-.16.09-.36-.23.17-.44.5-.66.49-.14-.26.42-.25.07-.4h.34c-.37-.35.2,0-.16-.42-.45.07-.43.28-.85.39,0,.19.12.2.1.39-.41.5-.76-.43-1,.13,0,.23.15.54-.21.56l-.09-.33c-.37.22.07.52-.4.6,0-.15.2-.28.12-.28-.38,0-.05.27-.22.4l-.21-.2a8.29,8.29,0,0,0-.79,1.2c-.05-.07-.06-.2-.2-.17a6.43,6.43,0,0,1-1.3,1.41l.1.32s-.14,0-.16,0c-.19.15.14.09.17.23a.13.13,0,0,1-.24,0c0,.46-.09,1.2-.48,1.49l0-.1c-.21.27.35.51,0,.71l0-.07c-.33.63-.28,1.42-.75,1.86.33.16-.28.65.21.77-.29.35-.37.23-.59.77,0,.15.29.25.32.43H132l.26.26-.31.12.05.17a.2.2,0,0,1,.2-.12.59.59,0,0,1-.33.64c.06.22.14.43.22.64-.11,0-.14-.12-.21-.2.27.33-.27.06,0,.37.06,0,.16,0,.21,0a.88.88,0,0,0-.06.77l-.18,0a11.2,11.2,0,0,0,.24,1.51c0-.2.37-.2.42,0l-.27.1c.19.07.09-.17.32,0,0,.19-.29.18-.4.08l.14.22c-.08,0-.14,0-.24,0,.18.07-.2.47.12.55l-.08,0a9.06,9.06,0,0,0,.39,1.18c.23-.06.23.12.45.19a2.63,2.63,0,0,0,.14,1.09c.21.21.21,0,.39.06-.19.1,0,.45-.24.33a3.16,3.16,0,0,0,.76,1c0-.1,0-.18.12-.18a.19.19,0,0,1,0,.29h0c.6.36.44,1.66,1.18,1.76h0l.57.22c.17.19-.23,0-.17.24.68.13.71.66,1.26.74,0,.77,1.19.66,1.5,1.22l0-.15c.18-.08.12.14.2.21,0-.11-.09-.18,0-.22,1.1.26,2.17.94,3.38,1.15.44.07.28-.75.8-.39l-.15.28c.86-.33,1.78-.08,2.55-.53,0,.07,0,.15-.1.17.22.17.65-.14.6-.3.13,0,.07.14.17.2s.36-.37.5-.2c0,0,0,.07-.05.1.08-.13.52-.15.34-.33.34,0,.52-.31.8-.27,0-.3.54-.1.43-.46.14.36.63,0,.71-.21,0,.13.21,0,.22.2.2-.11.34-.29.2-.43.6.17.49-.75,1-.4.43-.54.82-1.08,1.17-1.55.26.29-.45.48-.16.76.33-.52.31-1,.75-1.33.13-.07.07.17.08.25.25-.52.72-.83.83-1.36,0,0,0,.09,0,.15s.18-.16,0-.25l0,.11c-.29,0-.22-.61-.33-.7.33.41.35-.33.75.22a.23.23,0,0,0-.13-.24c.08-.06.15,0,.22.1.1-.35-.13-.33,0-.6.07,0,.07.11.14.19-.07-.23-.13-.44.05-.64,0,0,.11,0,.07.11.18-.42,0-.87.28-1.25.28.27.18-.11.48,0l0-.28-.18,0c.08-.21-.06-.48.1-.63l.07.2.09-.43-.2.19c-.07-.27-.38-.1-.2-.36,0,.07.07-.21.29-.27h0c-.07-.14-.13-.28,0-.42s.33.14.4.13c-.22-.18.07-.55-.17-.75a.39.39,0,0,0,.25.09l-.18-.14c.09-.08.12-.09.25,0,.1-.3-.41,0-.17-.32,0,0,0,0,.07.09.17-.35,0-.74.17-1.07.33-.05,0,.32.31.24a12.61,12.61,0,0,1-.13-1.58l0,.09c-.45-.09.24-.35,0-.61,0,.06.24.09.19.07a2.34,2.34,0,0,0-.28-1.2l.12.06a2.76,2.76,0,0,0,.05-.76c-.13,0-.13-.17-.28-.08.56-.78-.58-1.15-.22-1.86,0,.07.14.14.13.08s-.19-.3-.28-.45c-.17.11-.08.11-.19.26a.44.44,0,0,1-.31-.23c.2.16.29-.12.36-.25-.05,0-.13,0-.18.06.22-.38-.37.12-.31-.3l.1,0c-.1-.1-.28-.15-.31-.28.17-.16.15.07.32,0-.1-.18-.57-.13-.47-.4.1,0,.17.14.27.18.12-.3.05-.29,0-.44v0c0-.13-.06-.25-.1-.37V93c-.64.14-.41-.37-.93-.37.5,0,.2-.1.41-.25,0-.11,0-.27,0-.29-.27,0-.08-.33-.46-.29,0-.06-.14-.12,0-.25-.22-.1-.05.14-.14.21-.43,0-.41-.8-1-.74-.44-.09-.65.15-1,.1-.05-.18.22-.22.22-.22a.48.48,0,0,0-.5-.23c.06-.05.05-.12,0-.23s-.2.25-.35.06a.92.92,0,0,1,.26-.26,4.38,4.38,0,0,0-.63.12c0-.15.17-.18.27-.25-.23,0-.58,0-.7.18l.11.11c-.07,0,0-.2.08-.22.22-.13.23.14.22.23h-.15c0,.5.53.06.78.2l-.23.29.36-.17c0,.1,0,.3-.16.3.1.23.2-.06.27.18,0,0,0,0,0,0h.2c-.07.05-.09.24-.16.14.18.32.57,0,.55.29h0c.43.14.17-.2.62-.27-.06.22-.11.44-.18.65l.19-.18s.09.1,0,.17c.24,0,.05-.11.23-.18,0,.33.55.31.29.65.19-.08,0-.26.22-.19-.26.37.24.15.24.43-.22.11-.25-.1-.27.18.38-.18.18.33.33.41.25-.18.32.2.54.39-.08,0,.13.53.12.81h-.05c.31-.09.37.18.49.34a.4.4,0,0,1-.37,0l.07.16a.33.33,0,0,1,.25.14l-.23,0c.1.21.4.38.34.71.22,0,.51-.4.75-.1-.12,0-.31.1-.37,0s.11.08.08.15l-.22-.08c-.06.16.17,0,.18.15-.16,0-.1.11-.23.12s0-.11,0-.14a.45.45,0,0,1-.18.38c.09,0,.22,0,.26,0,.06.24-.17.12-.24.27.12,0,0,.21.27.18,0,.07-.1.09-.16.13.13.11.09.57.34.41l0,0v0h0c.29.41-.09.88,0,1.28h-.08c.09.25,0,.55.2.74,0,.08-.16.16-.26.12,0,.2.13.23,0,.49-.13-.21-.14,0-.09-.21-.1.24-.22.27,0,.56-.2-.12-.3.14-.25.26l.18-.14a1,1,0,0,1-.06.35l-.27-.11c-.42.41.4,1-.26,1.23.16.18.2-.22.4-.06-.1.22-.55.34-.57.41-.24.25.31.39.11.67a.35.35,0,0,1,.39.31c-.12.21-.5.13-.52,0s0-.07.08-.06,0-.19-.15-.14l.08.06c-.13.08-.23.37-.36.25,0,.19.13.12.22,0-.24.22-.16.43-.37.67.07,0,.2,0,.18,0-.29.36.1.26,0,.55-.22.09-.31-.2-.32.12-.18.12-.26-.08-.3-.18.05.33-.33.4-.44.51V105a.4.4,0,0,1-.07.21l.22,0c-.07.06-.11.12-.18.07.07.14.32.11.4.34-.15,0-.07.36-.32.26.25-.26-.25-.1-.15-.38a.24.24,0,0,1-.1.18s0,0-.05-.07c-.37.16.19.29,0,.58-.11-.12-.28-.09-.29,0,.08-.12.25.07.28.25-.22.12-.07.24-.15.33l.13-.07c.09.12,0,.2,0,.36-.1-.06,0-.17-.06-.15.12.3-.44.16-.45.45-.15,0-.23-.17-.35-.14,0,.33-.33.09-.39.39.2.08.18,0,.19.31l.2-.43,0,.41c.09-.1.1-.3.18-.35,0,.22,0,.18.17.23-.35,0-.12.41-.43.44l-.36-.34c-.38.07-.22.59-.63.77l.16,0c.09.19-.18.19-.24.34-.09-.14-.19-.13-.3-.18.08.1-.26.18-.1.47l-.28-.07c-.34.12-.07.62-.4.75,0-.2-.2-.23-.07-.45-.1.05-.2.08-.14.18-.11-.06-.16.35-.33.26,0,.09.06.25-.06.3a.13.13,0,0,1,0-.07c0,.07-.13.19.06.3-.55-.3-.9.47-1.35.15a3.32,3.32,0,0,1-.69.37s0-.08,0-.08c-.34-.06-.05.52-.45.45-.24-.22.15-.19,0-.26-.18-.53-.39.18-.69-.1l.05,0c-.21-.15-.39.29-.69.28a.32.32,0,0,0,0-.08,1.28,1.28,0,0,1-.84.52c.09-.21.13-.12.06-.33-.12,0,.06.35-.2.42-.09-.11-.28-.22-.3-.45H143c-.13-.3-.31,0-.43,0l0-.13c-.36,0-.39.37-.78.3l0,.11c-.26.3-.16-.21-.41,0l0-.34a2.3,2.3,0,0,1-.81.23,3.07,3.07,0,0,1,.71-.38c-.13,0-.46-.06-.56.08.06,0,.14-.09.19,0a.74.74,0,0,1-.76.21c.23-.6-.67-.37-.67-.93-.54,0-.82-.47-1.3-.72-.09.53-.15-.07-.39.39-.14,0-.17-.09-.17-.12l-.15-.48c0-.18.16,0,.22-.13-.2-.19,0-.24,0-.46-.08.17-.24.15-.32,0l0,.33c-.49,0,0-.55-.45-.59l.2,0c-.22-.06-.51-.49-1-.37,0-.07.1-.19.19-.15-.25-.38-1-.58-1-1l.13,0c-.07-.05-.28,0-.23-.18s.13,0,.12-.06-.31-.11-.3-.25l.18,0c-.06-.48-.63-.51-.85-.88.34-.13.34-.52.34-.71h.06c-.11-.54-.54-.84-.78-1.35.33-.39,0-1.14.19-1.7-.06.09-.29,0-.33-.08s-.28-.34.06-.34v0c.33-.11.22-.37.23-.57l-.45,0c.63-.53-.21-1.41.39-1.67-.1-.13-.09-.29-.18-.43l.23,0a2.68,2.68,0,0,0,.16-.94l.16.11c.06-.22-.64-.42-.6-.65h.36c.09-.42.49-.74.31-1.23,0,0,.14.07.13.14.06-.2.47-.63,0-.74.3.11.18-.38.15-.65l.2.13c-.2-.3-.26-.34-.22-.63.06,0,.19,0,.1.09.21-.14-.13-.26.12-.43l.08.16c.12-.18,0-.21-.05-.4s.28-.33.47-.24c-.09-.1-.17-.29-.05-.37a.15.15,0,0,1,.1.13c.35-.19.1-.61.45-.66a.24.24,0,0,0,.14.06c-.2.21-.33.4-.34.37.18.13.34,0,.47.29,0-.24-.1-.7.13-.8l.07,0v0c.05,0,.06-.07.06-.13a.35.35,0,0,0,.17-.09c.15.11.25-.1.34-.16-.17-.17,0-.25-.27-.3,0,0,0,0,0,.1s0,0,0,0v0l-.2.2c0-.15,0-.28.17-.27a2.44,2.44,0,0,1-.14-.4c.34.13.68.08.84.22.18-.32.58-.52.56-1,.07-.1.17.06.23.1s-.09.1-.08.17c.1-.22.5-.3.41-.61.29,0,0,.32.28.13v.11c.4.11.57-.16.81-.41s.51-.49.94-.21c-.05,0-.08,0-.1-.1.88.15,1.85-.37,2.69.2.23.13.29-.06.47-.19v.26L144,90c.42-.12.48.75,1,.5V90.3c.15.08.55.07.46.25,0,0,.11-.15.14,0l0,.12.47-.07c.28.2-.23.47.2.67.17,0,.61-.17.58-.28a.23.23,0,0,1-.09-.27h.18c.19-.35.48-.67.18-1.08l-.37.11,0-.22.24.09c-.06-.22-.21-.11-.34,0a.31.31,0,0,0-.05-.24l-.4.26c0-.16.23-.25.06-.39-.18.12,0,.37-.24.4-.07-.22,0-.34-.2-.25a.19.19,0,0,1,.14-.18c-.18.06-.4-.07-.53.11-.08-.25-.5-.09-.39-.44a.84.84,0,0,1-.48.2c.35-.37-.5-.14-.34-.59-.27.36-.72,0-1.09.23,0,0,.07-.09.1-.07-.19,0-.23-.17-.35-.26-.06.33-.36.36-.53.57-.21-.33.17-.39.11-.69,0,.26-.43.25-.35.48-.18-.2-.15-.1-.25-.38,0,.42-.17.06-.31.33-.27-.2-.09-.39-.37-.25C141,88.25,141.22,88.09,141.22,88.09Zm-5.92,3.53h0l.08-.11Zm-.37.43.16-.18c.08,0,.13.1.09.14S135,92,134.93,92.05Zm1.95.28c0,.08-.08.06-.12,0a.43.43,0,0,0,.07-.1v0A.37.37,0,0,1,136.88,92.33Z"/><path class="cls-5" d="M136.77,92a.08.08,0,0,1,0,0h-.07l0,.07Z"/><path class="cls-5" d="M154.22,97.45h0s0,0,0,0Z"/><polygon class="cls-5" points="131.97 99.13 132.03 99.13 131.99 99.08 131.97 99.13"/><path class="cls-5" d="M154.33,94.43a.43.43,0,0,0,0-.07S154.34,94.4,154.33,94.43Z"/><path class="cls-5" d="M153.75,93.22l0-.21A2.06,2.06,0,0,0,153.75,93.22Z"/><path class="cls-5" d="M153.23,92.31a.19.19,0,0,0-.09,0h0Z"/><path class="cls-5" d="M152.69,107.6l0,0C152.66,107.74,152.68,107.67,152.69,107.6Z"/><path class="cls-5" d="M154.25,103.09a1.27,1.27,0,0,1,.06.18C154.35,103.19,154.38,103.13,154.25,103.09Z"/><polygon class="cls-5" points="148.78 111.51 148.78 111.51 148.75 111.52 148.78 111.51"/><path class="cls-5" d="M154.24,103.47a.2.2,0,0,0,.07-.2A.31.31,0,0,0,154.24,103.47Z"/><path class="cls-5" d="M149.42,89.88l0,0a.05.05,0,0,1,0,0Z"/><path class="cls-5" d="M149.35,89.9h-.06S149.34,89.92,149.35,89.9Z"/><path class="cls-5" d="M149.17,89.94l.12,0S149.21,89.88,149.17,89.94Z"/><path class="cls-5" d="M150.69,90.44l.05-.08A.28.28,0,0,0,150.69,90.44Z"/><path class="cls-5" d="M151.08,90.6c-.08-.06-.15-.28-.3-.29l0,0C150.86,90.27,150.93,90.69,151.08,90.6Z"/><path class="cls-5" d="M151.85,92.4l-.19-.25c0,.1,0,.24-.16.17C151.61,92.78,151.57,92.11,151.85,92.4Z"/><path class="cls-5" d="M152.4,93.15c-.13-.09-.1.09-.14.12C152.38,93.29,152.42,93.3,152.4,93.15Z"/><path class="cls-5" d="M154,99.64l-.21,0C153.83,99.73,153.9,99.61,154,99.64Z"/><polygon class="cls-5" points="154.95 101.17 155.1 101.06 154.92 100.96 154.95 101.17"/><polygon class="cls-5" points="153.28 101.65 153.26 101.58 153.28 101.81 153.28 101.65"/><path class="cls-5" d="M146.59,110.25l.13.23C146.79,110.4,146.69,110.12,146.59,110.25Z"/><path class="cls-5" d="M141.82,111.25c0-.14-.17-.24-.27-.12C141.66,111.16,141.76,111.28,141.82,111.25Z"/><polygon class="cls-5" points="134.07 100.59 134.16 100.69 134.08 100.5 134.07 100.59"/><path class="cls-6" d="M123.47,129.2c4.87-7.7,14.51-13.68,24.15-12,8.61,1.45,15,8.56,17.42,16.16s1.61,17.09.87,25c-.12,1.37-19.84,2.21-21.93,2.23-6.89,0-16.43.12-23-2C111.17,155.26,120,134.74,123.47,129.2Z"/><path class="cls-7" d="M88,63.87c0,.06-.16.23-.12.21l.2-.26Z"/><path class="cls-7" d="M87.77,64.46a3.34,3.34,0,0,0,.47-.59c-.21.24-.14.13-.38.43,0,0,0-.11.1-.21,0,.06,0-.08-.11.08s-.1.26.05.11A1.18,1.18,0,0,1,87.77,64.46Z"/><path class="cls-7" d="M89.27,66.14v0A.08.08,0,0,0,89.27,66.14Z"/><path class="cls-7" d="M90.28,67.07s0,0,0,.05A.08.08,0,0,0,90.28,67.07Z"/><path class="cls-7" d="M90.26,67.5v0S90.24,67.52,90.26,67.5Z"/><path class="cls-7" d="M89.27,66.14l0,.11C89.31,66.16,89.27,66.17,89.27,66.14Z"/><path class="cls-7" d="M88.48,64l-.07.06,0,0Z"/><path class="cls-7" d="M88.63,66h0l-.09.1Z"/><path class="cls-7" d="M88.22,65.79a2.64,2.64,0,0,0,.24-.31l-.13.15Z"/><path class="cls-7" d="M87.91,65l0,0Z"/><path class="cls-7" d="M88.86,66.25l0,.09A.41.41,0,0,0,88.86,66.25Z"/><path class="cls-7" d="M100.6,71.92l0,0S100.61,71.93,100.6,71.92Z"/><path class="cls-7" d="M100.24,73.37h0l-.09.13Z"/><path class="cls-7" d="M90.4,68Z"/><path class="cls-7" d="M93.71,70.12c.11-.24.25-.23.35-.49A2.21,2.21,0,0,0,93.71,70.12Z"/><path class="cls-7" d="M88.47,64h0Z"/><path class="cls-7" d="M94.06,69.63h0v0Z"/><path class="cls-7" d="M91.3,68.47s0-.08.06-.11Z"/><path class="cls-7" d="M90.93,67.72v0S90.94,67.73,90.93,67.72Z"/><path class="cls-7" d="M91.84,68.36s0,.06,0,0v0S91.82,68.4,91.84,68.36Z"/><path class="cls-7" d="M92.16,68.59l0-.06h0Z"/><path class="cls-7" d="M99.55,71.35l-.13.21C99.53,71.4,99.61,71.37,99.55,71.35Z"/><path class="cls-7" d="M88.39,64.11l.08-.1h0A.47.47,0,0,0,88.39,64.11Z"/><path class="cls-7" d="M93.13,66.55l0,.07A.14.14,0,0,0,93.13,66.55Z"/><path class="cls-7" d="M97.21,69.75l0,0Z"/><path class="cls-7" d="M93.33,66.7a.76.76,0,0,0-.08.18l0-.06Z"/><path class="cls-7" d="M99.41,71.57h0Z"/><path class="cls-7" d="M100.14,71.26s-.24.28-.37.44.13-.24.22-.41c-.09.06-.32.32-.33.28a.77.77,0,0,1,.09-.13c-.21.22-.13-.06-.38.21a.59.59,0,0,1,0-.08l-.28.42s-.18.16,0,0c0,0,.07-.06.12-.12l-.08.07c.18-.29.1-.07.25-.28-.11.06-.33.26-.31.15.19-.28.15,0,.27-.31l0,.14c.27-.47,0,0,.31-.44,0-.13-.18.08-.19-.05-.13.15-.16.24-.28.38-.3.21.41-.75.08-.43-.15.17-.41.51-.33.29l.24-.3c0-.08-.36.42-.28.16s.13-.06.15-.11c.12-.28-.16.16-.2.13l.19-.28c-.1,0-.32.14-.44.13a1.14,1.14,0,0,0,.18-.25c-.2.07-.19-.19-.17-.42l-.21.21a.5.5,0,0,1,.11-.16c0-.11-.11.15-.2.24s.07-.16.14-.22c-.21.15-.5.3-.39,0l.06-.06c0-.13-.41.45-.3.19l0,0c0-.19-.33-.06-.17-.49-.26.33,0-.24-.35.24a2.28,2.28,0,0,0,.2-.59s-.25.28-.32.31l.18-.26-.23.24.19-.32-.08,0a.53.53,0,0,1-.11.21c-.12.08,0-.26.1-.39l-.26.14a1.51,1.51,0,0,1,.18-.18c-.24.22.18-.27,0-.07a1.39,1.39,0,0,1-.15.19c.08-.17,0-.21-.07-.18l.13-.17c0-.1-.23,0-.31-.1a1.15,1.15,0,0,1-.3.41l.18-.27c-.13.15,0,.12-.22.29a1.31,1.31,0,0,1,.27-.39l-.1.07a2.39,2.39,0,0,1,.16-.22c-.13.15.12-.32-.11,0l.06-.08c-.09-.06-.2,0-.28,0-.17.23-.16.16-.31.33,0-.11.06-.34,0-.36s-.15.18-.26.3c.14-.21.06-.23.2-.36-.1,0-.13,0-.35.07a1.05,1.05,0,0,1-.12.21s0-.12.1-.22l0,0c-.34.24.17-.79-.23-.42h0l-.25.16c0-.07.14-.14.19-.29-.34.28-.12-.16-.36,0,.37-.66-.26-.11-.07-.57l-.09.15c-.13.13,0-.1,0-.15-.08.12-.07.15-.14.22-.31,0-.24-.48-.34-.75,0-.09-.57.73-.41.32l.21-.26c-.37.23-.28-.21-.61,0,0-.06.11-.14.12-.13.11-.22-.1-.09-.21.07,0,0,.09-.15.14-.24s-.25.2-.13,0a.15.15,0,0,1,.07-.07c-.09.08-.08-.09-.22.15,0-.15-.17,0-.11-.13-.21.23,0-.19-.27.16.27-.36.12-.36,0-.21.09-.1,0-.13.17-.28,0,0-.12,0-.25.22.24-.49-.39.26,0-.34a2,2,0,0,1-.61.2c.26-.37.14,0,.4-.35-.2.09-.48.36-.51.21s.13-.15.18-.21c-.2.09-.16-.16-.39,0a.76.76,0,0,1,.09-.09s0-.08-.11.09l0,0a3.57,3.57,0,0,1-.51.58c.36-.46,0-.17.47-.75a.87.87,0,0,0-.18.21.56.56,0,0,1,.15-.23c-.12,0-.22.24-.28.2l.17-.2c-.14.14-.28.28-.28.18s.08-.12.09-.1-.43.32-.41.11c.28-.34.06-.14.27-.45l-.11.06-.09.16s-.23.17-.19,0l.11-.1H91l0,.15c-.15.13-.27.39-.26.27s0,0,.06-.23h0c-.09.08-.19.17-.16.07s.24-.33.28-.4c-.2.24-.14,0-.36.26l.19-.25-.17.19a.78.78,0,0,1,.15-.24c0-.08-.26.4-.21.19l.07-.07c0-.14-.22,0-.21-.11.2-.32.1,0,.27-.31-.13,0-.45.24-.48.11v0c-.32.43.08-.26-.1-.08a1.85,1.85,0,0,0,.14-.19c0-.11-.19,0-.38.1l.09-.11c0-.12,0-.12,0-.2-.09.11-.1.07-.2.24.33-.71-.46.19-.19-.41,0,0,.09-.08.08-.09l-.16,0c-.12.2-.06.13-.15.29s-.18.17-.2.15a1,1,0,0,0,.27-.42l-.13.18c.19-.37-.27.38-.17.11l.07-.1c-.06,0-.17.15-.18.1.14-.22.1-.08.23-.26,0,0-.37.37-.25.13.06,0,.09,0,.14-.09.15-.28.1-.22.1-.28h0l0-.16,0,.08c-.45.54-.17,0-.49.37.31-.31.15-.19.33-.44a1.79,1.79,0,0,1,.12-.24c-.17.18.07-.19-.18.08.06-.08,0,0,.12-.23-.08,0-.09.15-.16.24-.25.24.1-.42-.24-.1-.18.1-.39.36-.54.45a1,1,0,0,1,.22-.28c0-.14,0-.14-.1-.07a1.53,1.53,0,0,0,.15-.23s-.22.28-.18.14l.25-.3a3.3,3.3,0,0,1-.3.22,1.81,1.81,0,0,1,.25-.28.66.66,0,0,0-.35.28l0,.09a1.08,1.08,0,0,1,.17-.23c.15-.15,0,.11-.06.19l-.06,0c-.31.48.14,0,.17.05l-.26.33.25-.25a1.21,1.21,0,0,1-.24.32c-.08.19.12-.1,0,.11a.15.15,0,0,1,0,.06l.1-.08c-.05.07-.16.24-.14.18-.08.24.27-.19.11.09h0c.16,0,.19-.24.45-.49l-.39.65.18-.25s0,0-.06.14c.15-.14.07-.11.2-.26-.12.26.19,0-.08.38.14-.18.06-.17.2-.28-.29.44.1,0,0,.19s-.12.07-.22.29c.28-.35,0,.14.09.09.21-.3.16-.08.28-.14-.07.1,0,.23,0,.37l0,0c.22-.29.23-.2.31-.23a1.57,1.57,0,0,1-.26.31l0,0a.43.43,0,0,1,.17-.15l-.17.22c.06,0,.28-.2.23,0a3.28,3.28,0,0,1,.53-.71,2.42,2.42,0,0,1-.26.34s.08-.08.06,0l-.16.17c0,.1.13-.15.14-.12s-.07.13-.16.26,0-.08,0,0a.52.52,0,0,1-.11.29,1.22,1.22,0,0,1,.19-.22s-.12.2-.15.31c.09-.11,0,0,.2-.21,0,0-.06.12-.1.19.1-.09.13.05.29-.23v0h0c.25-.18.07.26.22.21l-.06.08c.11-.06.14,0,.3-.14a.75.75,0,0,1-.15.27c.08,0,.15-.13.11,0s-.08.14-.11.08c0,.1-.09.24.12.05-.16.2-.15.29-.08.24l.07-.17s0,0,.06,0l-.2.27c-.14.4.56-.45.25.16.15-.17,0-.17.22-.38a3.05,3.05,0,0,1-.2.5c0,.19.33-.36.32-.21a1.61,1.61,0,0,1,.35-.43,1.24,1.24,0,0,1-.32.51s0,0,0-.07a.37.37,0,0,0-.15.17l.08-.09c0,.11,0,.14-.11.29a.31.31,0,0,0,.14-.21c0,.18.08.06.07.2a1,1,0,0,1,.11-.18c0,.18.17-.15.25-.16-.07.17-.26.35-.11.26a1,1,0,0,1-.24.34c.18-.15,0,.19,0,.24L90.2,68s.06,0,.07,0l.13-.21a.22.22,0,0,1-.06.14c.11-.12.22-.33.37-.48,0,.11.14-.06,0,.2,0-.13-.17.26-.26.27s0,0,0,0a.17.17,0,0,1-.06.06c-.1.28.24-.27.3-.22-.11.14-.18.29-.15.27s.16-.25.26-.35c0,.15.11,0,.12,0v-.07c.12-.14.12-.11.19-.13s-.09.06-.11.12c.21-.24-.11.31.06.17,0,.12-.19.28-.22.36.18-.15-.09.24.08.12A.83.83,0,0,1,91.2,68L91,68l.26-.24s-.15.08-.14,0a.73.73,0,0,0,.2-.26c-.16.32.2-.12.1.11l-.34.48c-.09.26.29-.17.29,0l0-.1c.15-.18.07,0,.15,0a2.88,2.88,0,0,0-.2.34c.09-.12.06,0,.29-.26l-.11.24c0,.13.4-.41.42-.31-.14.16-.19.3-.32.39s0,.06.1,0c-.06.11.21-.17.12,0,.06-.06.18-.23.2-.2a.37.37,0,0,1-.06.08c.06-.08.12-.08.22-.27-.29.55.21.09,0,.56a.46.46,0,0,1,.23,0s-.06.08-.06.06c0,.19.37-.44.32-.22s-.14.11-.19.23c-.36.53.14,0,0,.32l0,0c-.09.2.23-.15.26-.07l-.06.08a1.09,1.09,0,0,1,.47-.32,2.34,2.34,0,0,0-.24.31c.05,0,.23-.34.32-.37a2.23,2.23,0,0,1-.25.48l0,0c-.18.31.06,0,0,.1l-.09.13c.1,0,.33-.31.39-.24l.06-.1c.26-.29-.1.2.11,0l-.21.33a2,2,0,0,1,.4-.27,3.77,3.77,0,0,1-.47.42s.11,0,.23-.11c0,0-.1.09-.07,0,.21-.23.34-.32.39-.28-.45.62,0,.26-.27.77.26-.16.12.23.25.27.31-.51,0,0,.39-.49,0,0,0,0,0,0l-.13.36c-.08.16-.1.09-.18.2s-.12.23-.18.39c.12-.18.2-.24.19-.15l.11-.26c.27-.21-.22.47,0,.26l-.13.14c.1-.06.14.11.47-.26,0,.06-.12.2-.17.22s.52-.27.43,0l-.1.12s.19-.21.13-.07a.77.77,0,0,0-.09.13s.2-.18.18-.09l-.12.12c0,.23.38-.23.52-.26a1,1,0,0,0-.26.62l0,0c.08.12.4-.17.6-.24-.21.44.1.32,0,.61a1.09,1.09,0,0,1,.24-.3c0,.09.25-.21,0,.12h0c-.21.34-.1.29-.07.32l.31-.43c-.34.7.43,0,.09.56.1-.09.13-.07.23-.16l-.17.23c0,.11,0,.16.16.17l-.13.15s.53-.63.58-.61l-.23.36c.09,0,0,.41.26.15a1.43,1.43,0,0,1-.13.16s0,.34.3-.15c-.21.31.07.09.21,0l-.17.22c.24-.26.3-.34.41-.39s-.12.19-.09.12c0,.15.18-.19.15,0l-.13.13s.09,0,.23-.19,0,.12-.1.33c.09-.12.24-.28.22-.2a.65.65,0,0,1-.12.14c0,.21.3-.19.19.07l-.09.14c-.05,0-.09-.09-.07-.1a3.08,3.08,0,0,1-.37.54c.15-.13.45-.43.43-.3a.28.28,0,0,0,0,.08l0,0s0,0,.05,0,0,.08,0,.09c-.11.18,0,.13,0,.16a2.48,2.48,0,0,0,.27-.38l0,0,0,0,0,0-.07,0c.1-.1.19-.19.13,0l.29-.35c-.19.34-.26.56-.39.76.16-.08.23,0,.57-.37.06,0-.06.14-.1.21s-.05,0-.1.08c.12-.08.15,0,.37-.26,0,.18-.23.26-.12.26l-.08.09c-.2.57.76-.62.48.11a.23.23,0,0,1,.06-.12c0,.39.53,0,.39.54,0,.12.13-.07.26-.2l-.16.26.25-.25c.21-.16-.31.69.06.36l.11-.17s.17,0,0,.16c0,0,.13-.17.08-.07l-.09.13.24-.17c0,.14-.37.51-.3.59a1.52,1.52,0,0,0,.4-.4.66.66,0,0,1,.12-.24l.07,0a4.88,4.88,0,0,0,.69-1.07l-.22.2.12-.2,0,0c.09-.19,0,0-.12,0a1.81,1.81,0,0,0,.12-.22l-.31.33a2.36,2.36,0,0,0,.26-.38c-.15.15-.21.35-.33.43.09-.19.2-.33.07-.2a.68.68,0,0,1,.15-.19c-.1.1-.1,0-.25.19.12-.23-.13,0,.12-.36-.06.08-.24.25-.27.24.34-.4-.08-.08.26-.54-.3.37-.24.09-.45.27,0,0,.08-.09.07-.07s.06-.17.1-.26a3.83,3.83,0,0,1-.5.53c.18-.33.29-.36.48-.66-.18.26-.25.21-.39.43a2.63,2.63,0,0,1,.21-.38c-.28.39-.07,0-.27.27.1-.22.25-.38.12-.29A.73.73,0,0,1,100.14,71.26Zm-1.63-.11h0Zm-.1-.06,0,0c0,.09-.11.16-.12.15A.51.51,0,0,0,98.41,71.09Zm-.92,1.73s0,0,0-.07h0l0,0Z"/><path class="cls-7" d="M97.73,72.54h0a.16.16,0,0,1,0-.06l-.06.07Z"/><path class="cls-7" d="M89.29,66.09h0s0,0,0,0Z"/><polygon class="cls-7" points="97.4 69.72 97.36 69.77 97.4 69.73 97.4 69.72"/><path class="cls-7" d="M89.31,64.93l0-.06Z"/><path class="cls-7" d="M89.12,64.72l0-.1A.33.33,0,0,0,89.12,64.72Z"/><path class="cls-7" d="M89,64.48l-.08.1h0Z"/><path class="cls-7" d="M92,66.17h0S92,66.14,92,66.17Z"/><path class="cls-7" d="M90.8,66.13a.41.41,0,0,1,.1-.09S90.89,66,90.8,66.13Z"/><polygon class="cls-7" points="93.12 66.55 93.12 66.55 93.13 66.56 93.12 66.55"/><path class="cls-7" d="M90.93,66.07c0-.06,0-.06,0,0S90.9,66.09,90.93,66.07Z"/><path class="cls-7" d="M88.34,63.85v0l0,0Z"/><path class="cls-7" d="M88.31,63.87l0,0Z"/><path class="cls-7" d="M88.22,63.93l.06,0S88.27,63.87,88.22,63.93Z"/><path class="cls-7" d="M88.5,64.12l.06-.09A.35.35,0,0,0,88.5,64.12Z"/><path class="cls-7" d="M88.58,64.14s.09-.21,0-.17l0,.06C88.66,63.92,88.47,64.27,88.58,64.14Z"/><path class="cls-7" d="M88.15,65.38v-.11c0,.1-.12.23-.16.23C87.87,65.82,88.1,65.29,88.15,65.38Z"/><path class="cls-7" d="M88.25,65.64c-.06,0-.09.13-.13.17A.27.27,0,0,0,88.25,65.64Z"/><path class="cls-7" d="M89.57,66.57l-.15.2S89.48,66.69,89.57,66.57Z"/><polygon class="cls-7" points="90.58 65.66 90.65 65.52 90.5 65.7 90.58 65.66"/><polygon class="cls-7" points="89.69 67.26 89.65 67.28 89.75 67.23 89.69 67.26"/><path class="cls-7" d="M92,68.75l.17-.26S91.88,68.81,92,68.75Z"/><path class="cls-7" d="M93.1,69.16c-.08.14-.11.24,0,.12S93.14,69.13,93.1,69.16Z"/><polygon class="cls-7" points="95.69 71.6 95.61 71.68 95.69 71.63 95.69 71.6"/><path class="cls-7" d="M67.22,84.64c0,.09,0,.28,0,.25l0-.33Z"/><path class="cls-7" d="M67.43,85.26a2.49,2.49,0,0,0,.07-.74c0,.31,0,.18-.1.56,0,0-.05-.11-.05-.23,0,.08,0-.08-.07.13s.09.27.15.06A1.61,1.61,0,0,1,67.43,85.26Z"/><path class="cls-7" d="M70.57,85.89l0,0Z"/><path class="cls-7" d="M72.5,86.21s0,0,0,.06S72.51,86.23,72.5,86.21Z"/><path class="cls-7" d="M72.8,86.6v0S72.8,86.62,72.8,86.6Z"/><path class="cls-7" d="M70.57,85.89l.05.11C70.63,85.89,70.59,85.92,70.57,85.89Z"/><path class="cls-7" d="M67.88,84.47l0,.09,0,0Z"/><path class="cls-7" d="M69.7,86.11h0l0,.14Z"/><path class="cls-7" d="M69,86.14a3.63,3.63,0,0,0,0-.39.6.6,0,0,1,0,.19Z"/><path class="cls-7" d="M68,85.61l0,0Z"/><path class="cls-7" d="M70.17,86.2v0Z"/><path class="cls-7" d="M88.86,87.36v0S88.87,87.36,88.86,87.36Z"/><polygon class="cls-7" points="89.19 88.92 89.18 88.93 89.13 89.08 89.19 88.92"/><path class="cls-7" d="M73.37,87Z"/><path class="cls-7" d="M78.89,87.54c0-.26.16-.3.11-.59C79,87.06,78.84,87.36,78.89,87.54Z"/><path class="cls-7" d="M67.9,84.51s0,0,0,0S67.91,84.5,67.9,84.51Z"/><path class="cls-7" d="M79,87h0v0Z"/><path class="cls-7" d="M74.77,87v0Z"/><path class="cls-7" d="M73.78,86.48l0,0S73.79,86.48,73.78,86.48Z"/><path class="cls-7" d="M75.36,86.66s0,.06,0,0v0S75.37,86.7,75.36,86.66Z"/><path class="cls-7" d="M75.92,86.73v-.06h0Z"/><path class="cls-7" d="M87.14,87a2.21,2.21,0,0,1,0,.25C87.14,87.05,87.24,87,87.14,87Z"/><path class="cls-7" d="M67.88,84.63a.22.22,0,0,1,0-.12h0Z"/><path class="cls-7" d="M75.65,84.46l.08.05A.1.1,0,0,0,75.65,84.46Z"/><path class="cls-7" d="M83.1,86l0,0S83.12,86,83.1,86Z"/><path class="cls-7" d="M76,84.5a1.46,1.46,0,0,0,0,.2l0-.07Z"/><path class="cls-7" d="M87.09,87.25h0Z"/><path class="cls-7" d="M87.86,86.77c-.08,0-.14.34-.22.54s0-.28,0-.47c-.09.08-.23.39-.28.36a.53.53,0,0,1,0-.15c-.15.26-.21,0-.38.29v-.09c0,.18-.08.36-.12.49s-.14.2-.08,0c0,0,0-.08.08-.15l-.07.09c.06-.35.08-.1.15-.35-.1.09-.27.34-.3.23.08-.34.17-.08.17-.39l0,.15c.08-.53,0,0,.14-.52-.09-.13-.18.13-.27,0-.08.18-.07.27-.15.45-.26.28.09-.86-.15-.46-.09.21-.22.62-.25.38l.13-.36c-.11-.07-.21.51-.26.23s.12-.1.12-.15c0-.31-.12.2-.18.18l.08-.33c-.14,0-.34.22-.49.24a.73.73,0,0,0,.07-.3c-.21.12-.36-.14-.48-.37l-.13.26s0-.13,0-.18-.05.18-.11.28,0-.17,0-.25c-.18.21-.46.43-.51.1l.05-.08c-.07-.14-.25.56-.28.27l0-.05c-.17-.17-.46,0-.52-.43-.12.4-.16-.23-.31.34,0-.31,0-.41-.12-.64,0,0-.14.35-.21.39l.06-.3-.14.3,0-.37-.07.07a.46.46,0,0,1,0,.23C83,86.34,83,86,83,85.81l-.24.21a.64.64,0,0,1,.11-.22c-.17.28,0-.33-.1-.07,0,.08,0,.18-.06.24,0-.19-.12-.21-.21-.15l.06-.21c-.14-.08-.33,0-.48,0a.87.87,0,0,1-.11.49l0-.32c-.07.19,0,.13-.09.36-.05,0,0-.37.09-.47l-.09.1A2.18,2.18,0,0,1,82,85.5c-.07.2-.06-.34-.18,0l0-.09c-.16,0-.26.06-.39,0-.06.27-.1.2-.18.41-.08-.1-.14-.34-.26-.34s-.07.23-.14.39c0-.25-.07-.25,0-.42-.15,0-.19,0-.4.19a.63.63,0,0,1,0,.24s0-.12,0-.24v0c-.26.34-.32-.82-.57-.32v0l-.21.25c-.06-.06.08-.18,0-.35-.25.39-.26-.11-.46.15,0-.77-.4,0-.48-.52l0,.18c-.06.16,0-.11,0-.15,0,.13,0,.16,0,.25-.37.16-.65-.36-1-.57-.12-.07-.2.9-.3.45l.09-.32c-.3.35-.51-.09-.8.21,0-.07,0-.17.06-.16,0-.25-.19,0-.22.15,0,0,0-.17,0-.27s-.17.28-.16,0a.19.19,0,0,1,0-.09c0,.11-.15,0-.16.23-.07-.15-.19.1-.24-.08-.09.3-.14-.17-.21.27.06-.45-.12-.39-.2-.18,0-.14,0-.15,0-.33-.07,0-.14.07-.16.3-.06-.55-.3.41-.29-.29a2.2,2.2,0,0,1-.61.45c0-.45.2,0,.24-.5-.19.17-.33.54-.48.42s0-.2.06-.27c-.18.16-.32-.07-.5.15a.37.37,0,0,1,0-.11s-.06-.08-.08.13l0,0a2.75,2.75,0,0,1-.2.76c.11-.58-.13-.16,0-.89a.54.54,0,0,0-.06.26s0-.12,0-.27c-.11.1-.1.32-.19.31s0-.14,0-.25c-.07.18-.13.37-.21.28s0-.14,0-.13c-.15,0-.29.49-.42.29.08-.43,0-.15,0-.52l-.09.1,0,.18c-.08,0-.16.26-.21.13l.06-.15-.14.06.07.15c-.09.19,0,.47-.12.36s-.07,0-.09-.23h0c0,.11-.1.24-.14.14s0-.41,0-.49c-.06.31-.18.07-.25.4a2.19,2.19,0,0,0,0-.31l0,.25a.5.5,0,0,1,0-.28c-.1,0,0,.47-.11.26A.47.47,0,0,1,72,85c-.11-.12-.24.14-.34,0,0-.38.1-.09.09-.41-.17.06-.36.43-.51.33l0,0c0,.53-.09-.26-.19,0a1.3,1.3,0,0,0,0-.23c-.1-.09-.23.12-.4.27l0-.13c0-.13-.16-.08-.22-.15,0,.14-.07.11,0,.31-.17-.78-.42.39-.57-.26,0,0,.06-.12,0-.12l-.16.12a1,1,0,0,0,0,.32c0,.14-.08.24-.11.24a.94.94,0,0,0,0-.5c0,.07,0,.15,0,.22-.06-.41,0,.47-.13.19v-.13c0,.06-.09.22-.13.19,0-.27,0-.13.06-.35-.06,0-.14.51-.19.24,0-.08.07-.08.1-.15-.05-.31-.06-.24-.11-.29h0l-.1-.15,0,.09c-.1.69-.17.12-.29.57.12-.42,0-.25,0-.55a.48.48,0,0,1,0-.26c-.06.24-.08-.2-.16.15,0-.09-.06,0,0-.25-.07.07,0,.17,0,.29-.11.33-.22-.41-.38,0-.13.19-.16.52-.28.68a.7.7,0,0,1,0-.36c-.06-.14-.11-.11-.17,0a1.26,1.26,0,0,0,0-.27c-.05,0,0,.35-.1.21s0-.28,0-.39c-.06.09-.12.27-.18.35a.88.88,0,0,1,.07-.36.54.54,0,0,0-.2.42l0,.09a.68.68,0,0,1,0-.28c.06-.21.08.1.08.19l0,.07c0,.57.17-.09.25-.06l0,.42.09-.34a1,1,0,0,1,0,.4c0,.2.06-.15.1.08a.15.15,0,0,1,0,.07l.06-.12c0,.09,0,.29,0,.23.1.25.17-.3.2,0v0c.15-.14,0-.31.14-.66l.06.75,0-.3s0,0,0,.15c.07-.21,0-.13,0-.33.06.28.2-.12.2.37,0-.24-.06-.19,0-.34,0,.52.09-.09.15.15s-.09.13,0,.37c0-.46.12.1.18,0,0-.36.13-.15.22-.27,0,.13.17.21.25.35v.06c0-.37.12-.3.19-.37a1,1,0,0,1-.07.4h.06a.35.35,0,0,1,.09-.22l0,.28c.08,0,.18-.32.27-.13,0-.26-.05-.72.07-.88a1.65,1.65,0,0,1,0,.43s0-.11,0,0l0,.23c0,.1,0-.2.07-.17,0,.19,0,.14,0,.29s0-.08-.05,0a.55.55,0,0,1,.1.31.63.63,0,0,1,0-.29c.08,0,0,.24.06.34,0-.14.07,0,.09-.29,0,0,0,.14,0,.23.05-.13.2,0,.17-.35v0h0c.15-.29.27.18.42.06V86c.09-.11.18,0,.26-.26a.59.59,0,0,1,0,.3c.07-.07.08-.18.16,0-.07.16,0,.15-.07.12.08.09.08.25.19,0,0,.25,0,.33.08.25l0-.18a.08.08,0,0,1,.11,0l0,.33c.13.41.35-.67.42,0,.06-.23-.08-.17,0-.44.07.05.12.53.14.53.09.2.13-.47.23-.34a1.11,1.11,0,0,1,.1-.54,1,1,0,0,1,0,.59s0,0,0-.07a.26.26,0,0,0,0,.22l0-.11c0,.12.13.12.09.31a.24.24,0,0,0,0-.26c.08.18.15,0,.24.14,0-.07,0-.21,0-.2s.08-.22.19-.26c0,.18-.06.43,0,.28a.62.62,0,0,1,0,.41c.11-.22.16.17.21.22l-.06.09c0-.06.06,0,.08,0v-.24a.19.19,0,0,1,0,.15c.05-.16,0-.4.09-.61,0,.13.13-.11.11.2-.1-.12,0,.32-.12.36s.05,0,.07,0a.15.15,0,0,1,0,.08c.09.29.09-.35.2-.33,0,.18,0,.34,0,.3s0-.29.06-.43c.06.15.1-.09.13-.07l0-.07c0-.17.07-.15.13-.2,0,.14-.06.09,0,.15.09-.3.09.34.2.14,0,.12,0,.33,0,.41.11-.22.07.25.19.08a.58.58,0,0,1,.07-.41l-.17.15.14-.33s-.12.13-.14.09a.54.54,0,0,0,0-.33c0,.36.15-.19.2.06l-.06.58c.08.28.23-.28.36-.11l0-.11c0-.23.1,0,.15-.11a2.48,2.48,0,0,0,0,.39c0-.14.11,0,.17-.36l0,.27c.11.11.2-.55.31-.47-.06.21,0,.36-.12.5s.07,0,.08-.09c0,.13.14-.25.15-.06,0-.09.06-.29.1-.27a.77.77,0,0,1,0,.1c0-.1.08-.13.07-.35,0,.63.33,0,.36.54a.58.58,0,0,1,.28-.11c0,.06,0,.1,0,.08.08.19.14-.56.23-.34s-.08.16-.06.29c-.07.64.15-.07.18.31l0,0c0,.23.18-.22.28-.16a.3.3,0,0,0,0,.09.82.82,0,0,1,.37-.48c-.07.24-.07.12-.08.38,0,0,0-.41.14-.47a2.17,2.17,0,0,1,0,.55h-.08c0,.36.1,0,.13.07l0,.15c.13,0,.19-.42.32-.37v-.12c.13-.37,0,.23.15,0l0,.4a1.87,1.87,0,0,1,.32-.42,2.75,2.75,0,0,1-.3.58s.16,0,.21-.19c0,0-.06.12-.07.06q.17-.45.3-.42c-.14.76.21.23.19.83.21-.25.3.18.5.16,0-.59.06,0,.15-.61,0,0,.07,0,.06,0l.08.39c0,.18-.07.12-.09.26s0,.26,0,.43c0-.22.09-.3.13-.21l0-.29c.2-.3,0,.52.23.23l-.08.18c.09-.1.26,0,.41-.42a.61.61,0,0,1-.05.28c.15.1.47-.44.54-.12l0,.14s.11-.26.12-.11a.8.8,0,0,0,0,.16s.13-.24.16-.15l-.07.16c.13.22.33-.36.49-.43a.89.89,0,0,0,.06.68v.06c.18.09.39-.29.61-.43,0,.5.32.28.44.58A.77.77,0,0,1,82,88c0,.09.18-.28.09.11h0c0,.4.06.31.12.34l.12-.52c0,.79.52-.17.46.52.07-.12.12-.1.19-.22l-.06.27c.1.1.15.15.3.11l-.07.19c.07,0,.28-.77.36-.77l-.07.42c.14,0,.19.42.42.08,0,.06,0,.18-.08.19s.19.34.3-.23c-.08.37.14.07.25-.07l-.07.27c.14-.33.17-.43.28-.5s0,.22,0,.15c0,.15.12-.25.17-.08l-.08.16c.07,0,.09-.05.18-.24s.12.1.06.35c0-.15.14-.34.17-.26a.4.4,0,0,1-.07.17c.08.22.27-.26.28,0a1,1,0,0,0,0,.17c-.09,0-.17-.07-.15-.09a2.32,2.32,0,0,1-.15.64c.11-.17.32-.55.36-.41v.12s0,0,0,0,0,.08,0,.09c0,.21.06.13.09.15.07-.27.11-.21.12-.45,0,0,0,0,0,0s0,0,0,0v0h-.1c.07-.13.13-.24.13-.08l.17-.42c0,.39,0,.62,0,.86.16-.12.31,0,.52-.51,0-.06,0,.15,0,.24s0,0-.08.1c.1-.12.21,0,.32-.35,0,.18-.14.31,0,.29l-.05.1c.07.63.62-.8.67,0a.3.3,0,0,1,0-.13c.19.4.68-.14.81.46,0,.13.12-.1.23-.25l-.07.29.18-.31c.19-.2,0,.77.28.36l0-.2s.21-.06.13.16c0,0,.08-.2.07-.09l0,.15.22-.22c.07.14-.21.6-.07.67a1.21,1.21,0,0,0,.31-.5s0-.11,0-.26l.08-.06a3.49,3.49,0,0,0,.3-1.23l-.17.24,0-.22h.07c0-.22-.06,0-.13.06a1,1,0,0,0,0-.24l-.22.39c0-.17.15-.33.12-.44-.1.18-.08.4-.19.51,0-.22.08-.38,0-.22a.5.5,0,0,1,.1-.23c-.09.12-.14,0-.24.25,0-.26-.17,0,0-.4,0,.09-.18.3-.23.31.23-.48-.14-.08,0-.61-.19.43-.26.14-.43.36,0,0,0-.1,0-.08s0-.2,0-.29a2.52,2.52,0,0,1-.35.65c0-.38.17-.43.26-.78-.09.3-.21.27-.26.53a1.27,1.27,0,0,1,0-.44c-.15.46-.07.06-.2.34,0-.25.11-.45,0-.33A.64.64,0,0,1,87.86,86.77Zm-2.2.27Zm-.16,0a.07.07,0,0,0,.06,0c0,.1,0,.19-.06.18A.73.73,0,0,0,85.5,87Zm-.15,2s0,0,0-.08l0,0v0Z"/><path class="cls-7" d="M85.49,88.64a0,0,0,0,1,0,0v-.07l0,.09Z"/><path class="cls-7" d="M70.55,85.84h0v0Z"/><polygon class="cls-7" points="83.32 85.92 83.31 85.99 83.33 85.94 83.32 85.92"/><path class="cls-7" d="M69.67,84.83s0,0,0-.07A.2.2,0,0,0,69.67,84.83Z"/><path class="cls-7" d="M69.26,84.75l-.05-.1A.28.28,0,0,0,69.26,84.75Z"/><path class="cls-7" d="M69,84.6v.12h0Z"/><path class="cls-7" d="M74,84.61v0S74,84.56,74,84.61Z"/><path class="cls-7" d="M72.42,85.13l0-.13S72.43,85,72.42,85.13Z"/><polygon class="cls-7" points="75.64 84.45 75.64 84.46 75.65 84.46 75.64 84.45"/><path class="cls-7" d="M72.54,85c0-.06,0-.05-.07,0S72.52,85.05,72.54,85Z"/><path class="cls-7" d="M67.6,84.44h0v0Z"/><path class="cls-7" d="M67.59,84.47l0,0S67.58,84.5,67.59,84.47Z"/><path class="cls-7" d="M67.53,84.58l0-.07S67.54,84.5,67.53,84.58Z"/><path class="cls-7" d="M68,84.58v0Z"/><path class="cls-7" d="M68.14,84.55s-.07-.22-.11-.15v.08C68.05,84.32,68.11,84.72,68.14,84.55Z"/><path class="cls-7" d="M68.63,85.82l-.1-.08c0,.11,0,.25,0,.28C68.63,86.35,68.49,85.77,68.63,85.82Z"/><path class="cls-7" d="M68.94,86c0,.05,0,.16,0,.22A.22.22,0,0,0,68.94,86Z"/><path class="cls-7" d="M71.26,86.11l0,.25S71.24,86.26,71.26,86.11Z"/><polygon class="cls-7" points="71.8 84.82 71.77 84.66 71.73 84.89 71.8 84.82"/><polygon class="cls-7" points="71.92 86.66 71.9 86.69 71.98 86.61 71.92 86.66"/><path class="cls-7" d="M75.79,87l0-.31S75.73,87.05,75.79,87Z"/><path class="cls-7" d="M77.49,86.87c0,.16,0,.27.08.12S77.51,86.84,77.49,86.87Z"/><polygon class="cls-7" points="82.33 88.29 82.28 88.39 82.36 88.31 82.33 88.29"/><path class="cls-7" d="M58.56,102.77c0,.08,0,.28,0,.24l0-.33Z"/><path class="cls-7" d="M58.79,103.36a3,3,0,0,0,0-.75c0,.32,0,.19,0,.57,0,0-.06-.1-.07-.22,0,.08,0-.07,0,.14s.1.25.11,0A1.92,1.92,0,0,1,58.79,103.36Z"/><path class="cls-7" d="M61.14,103.62l0,0S61.14,103.61,61.14,103.62Z"/><path class="cls-7" d="M62.58,103.67s0,0,0,.07A.08.08,0,0,0,62.58,103.67Z"/><path class="cls-7" d="M62.85,104v0S62.85,104,62.85,104Z"/><path class="cls-7" d="M61.14,103.62l0,.1C61.18,103.61,61.16,103.64,61.14,103.62Z"/><path class="cls-7" d="M59,102.53a.78.78,0,0,0,0,.09l0,0Z"/><path class="cls-7" d="M60.54,104h0v0Z"/><path class="cls-7" d="M60.07,104.05a3.58,3.58,0,0,0,0-.39.72.72,0,0,1,0,.19Z"/><path class="cls-7" d="M59.25,103.64v0Z"/><path class="cls-7" d="M60.89,104l0,.1Z"/><path class="cls-7" d="M74.43,101.45v0Z"/><polygon class="cls-7" points="74.94 102.87 74.93 102.88 74.92 103.04 74.94 102.87"/><path class="cls-7" d="M63.32,104.34h0S63.32,104.36,63.32,104.34Z"/><path class="cls-7" d="M67.37,103.91c-.06-.25.06-.33,0-.6A2.06,2.06,0,0,0,67.37,103.91Z"/><path class="cls-7" d="M59,102.56s0,0,0,0S59,102.55,59,102.56Z"/><path class="cls-7" d="M67.35,103.31h0v0Z"/><path class="cls-7" d="M64.33,104.1l0-.12S64.32,104,64.33,104.1Z"/><path class="cls-7" d="M63.54,103.75l0,0S63.55,103.75,63.54,103.75Z"/><path class="cls-7" d="M64.7,103.68s0,0,0,0v0S64.71,103.72,64.7,103.68Z"/><path class="cls-7" d="M65.11,103.65v0Z"/><path class="cls-7" d="M73.14,101.54l0,.26C73.16,101.6,73.22,101.53,73.14,101.54Z"/><path class="cls-7" d="M59,102.68c0-.07,0-.1,0-.12s0,0,0,0S59,102.66,59,102.68Z"/><path class="cls-7" d="M64.58,101.46l.07,0A.09.09,0,0,0,64.58,101.46Z"/><path class="cls-7" d="M70.12,101.55l0,0S70.13,101.52,70.12,101.55Z"/><path class="cls-7" d="M64.84,101.45c0,.09,0,.15,0,.19v-.08Z"/><path class="cls-7" d="M73.16,101.8Z"/><path class="cls-7" d="M73.62,101.15c-.07,0,0,.36-.06.57s0-.27,0-.46c-.05.09-.1.43-.13.41a.75.75,0,0,1,0-.15c-.06.29-.15,0-.22.37v-.09c0,.19,0,.37,0,.51s-.06.23-.06,0c0,0,0-.09,0-.17l0,.11c0-.35,0-.12,0-.38-.06.11-.14.4-.18.3,0-.34.11-.11.06-.42l.06.13c0-.53,0,0,0-.53-.09-.1-.11.17-.2.07,0,.19,0,.28,0,.47s-.08-.86-.19-.41c0,.23-.05.66-.11.43l0-.39c-.08,0-.06.55-.15.29s.08-.12.06-.17c-.05-.3,0,.22-.09.22v-.34c-.1,0-.2.29-.31.35a1.06,1.06,0,0,0,0-.31c-.14.17-.28,0-.41-.25l0,.3a.54.54,0,0,1,0-.19c0-.12,0,.18,0,.3s0-.17,0-.26c-.09.25-.26.53-.34.22v-.09c-.07-.12-.08.6-.14.33v0c-.16-.13-.33.14-.44-.31,0,.43-.16-.18-.17.4a2.3,2.3,0,0,0-.18-.59s0,.37-.09.43v-.31l-.05.33,0-.37,0,.08a.81.81,0,0,1,0,.22c-.06.14-.15-.21-.15-.37l-.14.26a1.19,1.19,0,0,1,0-.24c-.07.31,0-.33-.08,0a1,1,0,0,1,0,.25c0-.19-.11-.19-.17-.11v-.21c-.11-.06-.22.1-.34.1a1,1,0,0,1,0,.5v-.32c0,.2,0,.12,0,.37a1.25,1.25,0,0,1,0-.48l0,.11c0-.09,0-.15,0-.27,0,.2-.1-.33-.13,0v-.1c-.12,0-.17.11-.27.13a2.59,2.59,0,0,1-.06.45c-.07-.09-.16-.31-.24-.29s0,.24,0,.41c0-.26-.09-.23,0-.42-.1,0-.13.06-.26.27a.69.69,0,0,1,0,.24s-.06-.11,0-.23v0c-.13.39-.36-.74-.46-.2v0l-.11.28c-.06,0,0-.19,0-.35-.12.44-.21,0-.31.24-.1-.76-.29.06-.42-.42l0,.18c0,.18,0-.1-.07-.14a1.48,1.48,0,0,1,0,.26c-.24.22-.52-.24-.78-.39-.09-.05,0,.92-.14.5v-.33c-.16.4-.38,0-.54.35,0-.08,0-.18,0-.18-.05-.23-.14,0-.13.19,0,0,0-.17,0-.27s-.08.31-.11.07a.12.12,0,0,1,0-.09c0,.11-.12,0-.08.25-.08-.13-.12.13-.19,0,0,.31-.12-.14-.11.29,0-.45-.14-.36-.17-.14,0-.14,0-.14,0-.33,0,0-.09.1-.06.33-.13-.54-.16.45-.25-.24a2.16,2.16,0,0,1-.38.54c0-.45.14-.06.1-.53-.11.19-.15.58-.28.48s0-.19,0-.27c-.11.19-.25,0-.34.23a.43.43,0,0,1,0-.12s-.06-.07,0,.14l0-.06a3.51,3.51,0,0,1,0,.78c0-.58-.12-.13-.11-.88a1,1,0,0,0,0,.27s0-.11,0-.27c-.07.12,0,.33-.09.33a2.08,2.08,0,0,1,0-.25c0,.19,0,.39-.11.31s0-.14,0-.14-.13.53-.26.35c0-.43,0-.14-.08-.51l0,.12,0,.18c-.06,0-.08.27-.14.15l0-.15-.09.07.07.14c0,.2,0,.47,0,.37s-.05,0-.1-.21h0c0,.12,0,.24-.08.15s0-.41,0-.49c0,.32-.11.1-.11.43,0-.07,0-.27,0-.31v.26a.6.6,0,0,1,0-.28c-.08,0,.06.47,0,.28a.38.38,0,0,1,0-.1c-.1-.1-.16.17-.25.06-.06-.38.06-.1,0-.42-.11.08-.2.47-.32.4l0,0c0,.53-.1-.26-.14,0,0,0,0-.3,0-.24s-.15.15-.25.32v-.13c-.05-.12-.12-.06-.18-.12a.89.89,0,0,0,0,.32c-.23-.76-.25.44-.44-.19a.25.25,0,0,0,0-.12l-.1.13a1.73,1.73,0,0,0,.07.32c0,.14,0,.24,0,.25a1.17,1.17,0,0,0-.07-.5l0,.22c-.11-.4,0,.47-.07.2V103c0,.06,0,.23-.07.19,0-.26,0-.12,0-.34,0,0,0,.51-.1.25,0-.08,0-.08,0-.16-.08-.3-.08-.22-.11-.27h0l-.09-.13,0,.08c0,.7-.11.14-.13.6a1.59,1.59,0,0,0,0-.55.77.77,0,0,1-.07-.26c0,.25-.08-.18-.09.18,0-.1,0,0-.06-.25,0,.08,0,.16,0,.29,0,.33-.22-.39-.27.08-.07.2,0,.53-.12.7a1.1,1.1,0,0,1,0-.36c-.07-.13-.1-.1-.13,0a1.51,1.51,0,0,0,0-.26s0,.36-.05.22,0-.28,0-.39c0,.09,0,.28-.08.37a1.5,1.5,0,0,1,0-.37.62.62,0,0,0-.09.43l0,.09a1.35,1.35,0,0,1,0-.27c0-.22.07.08.09.18l0,.06c.1.57.11-.1.18-.08l0,.42,0-.35a1,1,0,0,1,0,.4c.07.2,0-.15.09.07,0,0,0,.06,0,.07l0-.12c0,.08,0,.29,0,.23.1.23.09-.32.15,0v0c.09-.15,0-.3,0-.67l.14.74,0-.3s0,0,0,.15c0-.21,0-.13,0-.33.08.27.13-.14.2.34,0-.23-.07-.17,0-.34.08.52.06-.1.13.14s0,.13,0,.36c0-.45.1.09.13,0,0-.36.08-.16.13-.29,0,.13.15.19.22.31v.06c0-.36,0-.3.08-.38a2,2,0,0,1,0,.41h0a.6.6,0,0,1,0-.23l0,.28c.06,0,.09-.34.18-.16a3.57,3.57,0,0,1-.07-.88,2.44,2.44,0,0,1,0,.43s0-.12,0-.06v.23c0,.1,0-.19,0-.17,0,.19,0,.13,0,.29s0-.08,0,0a.5.5,0,0,1,.11.29.9.9,0,0,1,0-.29s0,.23.09.33c0-.14.05,0,0-.29,0,0,0,.13,0,.21,0-.13.14-.05.07-.36v0h0c.07-.3.22.15.31,0v.1c0-.12.12-.08.14-.3a.68.68,0,0,1,.06.3c0-.08,0-.19.12,0s0,.16,0,.13.1.24.14,0c0,.25.07.31.09.23l-.06-.17s.06,0,.09,0v.33c.16.39.16-.71.31,0,0-.23-.08-.16-.07-.43.05,0,.15.51.17.51.09.18,0-.49.12-.37a1.45,1.45,0,0,1,0-.55,1.36,1.36,0,0,1,.09.59s0,0,0-.07a.39.39,0,0,0,0,.22v-.11c0,.11.11.09.11.29a.27.27,0,0,0,0-.25c.09.16.11,0,.2.1a.62.62,0,0,1,0-.2c.12.14,0-.23.1-.29.05.18,0,.43.08.28a1,1,0,0,1,0,.41c.05-.23.14.14.18.18l0,.1c0-.06,0-.06.05-.06l0-.24s0,0,0,.14c0-.16,0-.39,0-.61,0,.12.07-.13.11.18-.1-.1,0,.32,0,.37s0,0,0,0a.14.14,0,0,1,0,.09c.11.27,0-.36.1-.36,0,.18,0,.33,0,.3a1.17,1.17,0,0,1,0-.44c.06.14,0-.1.08-.09l0-.06c0-.18,0-.16.06-.22,0,.14,0,.1,0,.16,0-.31.12.31.17.1,0,.12,0,.33.05.41,0-.23.09.24.15,0a.85.85,0,0,1,0-.42l-.1.18,0-.35s-.06.15-.08.11a.74.74,0,0,0,0-.33c.07.35.08-.22.15,0l0,.59c.1.26.12-.31.24-.17l0-.1c0-.24.06,0,.09-.13a2.7,2.7,0,0,0,.06.39c0-.15.08,0,.06-.39l.07.26c.09.1.06-.57.15-.51a2.77,2.77,0,0,1,0,.51s0,0,0-.1c0,.12.06-.27.1-.09,0-.09,0-.29,0-.28v.1a1.29,1.29,0,0,0,0-.35c.12.61.23-.06.34.46a.41.41,0,0,1,.18-.15c0,.06,0,.1,0,.08.09.18,0-.57.12-.37s0,.17,0,.29c.05.65.1-.09.18.29v0c0,.22.09-.25.17-.21v.1a1,1,0,0,1,.19-.54,1.27,1.27,0,0,0,0,.39s0-.41,0-.49a2.76,2.76,0,0,1,.1.54H66c0,.36.07,0,.11,0v.16c.09-.06.07-.45.17-.43v-.12c0-.39,0,.22.09-.07l0,.39a2.54,2.54,0,0,1,.17-.46,3,3,0,0,1-.13.62s.12,0,.13-.23c0,0,0,.14,0,.08,0-.31.08-.47.14-.46,0,.76.19.18.27.77.11-.28.24.12.38.07-.07-.6,0,0,0-.63,0,0,0,0,0,0l.11.36c0,.17,0,.13,0,.27s0,.26.09.42c0-.22,0-.32.06-.23l-.07-.28c.09-.33.1.51.19.18l0,.19c0-.11.19,0,.23-.49a.66.66,0,0,1,0,.28c.13.07.27-.53.37-.23v.15s0-.28.06-.13a.62.62,0,0,0,0,.16s0-.26.09-.18l0,.17c.13.19.18-.41.28-.52a1,1,0,0,0,.16.65v.07c.14,0,.23-.37.36-.55.09.48.28.2.42.47a1.21,1.21,0,0,1,0-.39c0,.09.08-.31.08.1h0c0,.39.09.29.14.3v-.53c.14.77.34-.28.41.41,0-.14.07-.13.1-.27V104c.09.07.13.1.24,0l0,.2c.06,0,.07-.82.13-.83v.42c.11,0,.21.36.32,0a.88.88,0,0,1,0,.2s.19.29.17-.29c0,.38.11,0,.17-.13v.28c.05-.36.05-.45.12-.55s0,.22,0,.15c.05.15,0-.26.11-.11l0,.17c.06,0,.05-.07.09-.28s.1.07.1.33c0-.16,0-.36.08-.29a.57.57,0,0,1,0,.18c.09.19.14-.32.2,0a.54.54,0,0,0,0,.16c-.07,0-.13,0-.13,0a2.79,2.79,0,0,1,0,.66c0-.2.13-.62.19-.49v.11s0,0,0,0,0,.08.05.08c0,.21.06.12.09.13a2.54,2.54,0,0,0,0-.47s0,0,0,0a0,0,0,0,1,0,0v0l-.07,0c0-.15,0-.27.08-.11l0-.45c0,.39.11.6.11.85a.82.82,0,0,0,.28-.63c0-.07,0,.15,0,.23s0,.05,0,.12c.06-.13.15,0,.18-.41.06.16,0,.33,0,.28v.11c.15.59.3-.93.47-.17a.51.51,0,0,1,0-.13c.21.34.47-.3.66.23.06.11.07-.12.12-.3v.3l.08-.34c.1-.25.13.74.26.27v-.21s.14-.11.12.12c0,0,0-.21,0-.1v.16l.11-.27c.08.12,0,.63.08.66a1.84,1.84,0,0,0,.13-.56s0-.1,0-.26l.05-.08a4.88,4.88,0,0,0,0-1.27l-.09.28v-.22h.06c0-.22,0,0-.08.1a1.21,1.21,0,0,0,0-.25l-.08.44a1.74,1.74,0,0,0,0-.46c0,.2,0,.41,0,.54,0-.21,0-.39-.06-.21a1,1,0,0,1,0-.24c0,.14-.09,0-.12.3,0-.26-.11.06-.09-.38a1.18,1.18,0,0,1-.11.36c.08-.52-.11,0-.08-.6-.06.47-.16.21-.24.47,0,0,0-.12,0-.09s0-.19-.07-.28a3.78,3.78,0,0,1-.13.72,7.27,7.27,0,0,1,0-.82c0,.32-.1.31-.09.58a2.36,2.36,0,0,1,0-.44c0,.49,0,.08-.08.38-.05-.24,0-.46-.07-.31A.81.81,0,0,1,73.62,101.15Zm-1.51.81h0ZM72,102H72a.47.47,0,0,1,0,.19A.54.54,0,0,0,72,102Zm.23,2s0,0,0-.07l0,0v.1Z"/><path class="cls-7" d="M72.25,103.54v0Z"/><path class="cls-7" d="M61.12,103.57h0v0Z"/><polygon class="cls-7" points="70.26 101.41 70.26 101.48 70.27 101.42 70.26 101.41"/><path class="cls-7" d="M60.35,102.68s0-.05,0-.07Z"/><path class="cls-7" d="M60.05,102.65l-.06-.09S60,102.64,60.05,102.65Z"/><path class="cls-7" d="M59.8,102.54v.12h0Z"/><path class="cls-7" d="M63.39,101.88v0S63.4,101.83,63.39,101.88Z"/><path class="cls-7" d="M62.36,102.62a1.06,1.06,0,0,1,0-.14S62.35,102.46,62.36,102.62Z"/><polygon class="cls-7" points="64.57 101.46 64.57 101.46 64.58 101.46 64.57 101.46"/><path class="cls-7" d="M62.44,102.48s0,0,0,0S62.42,102.52,62.44,102.48Z"/><path class="cls-7" d="M58.81,102.53l0,0v0Z"/><path class="cls-7" d="M58.8,102.56v0S58.8,102.59,58.8,102.56Z"/><path class="cls-7" d="M58.77,102.67l0-.08S58.77,102.59,58.77,102.67Z"/><path class="cls-7" d="M59.12,102.62v0Z"/><path class="cls-7" d="M59.21,102.58s-.08-.21-.1-.14v.08C59.11,102.36,59.21,102.75,59.21,102.58Z"/><path class="cls-7" d="M59.73,103.79l-.08-.08c0,.11.06.25,0,.28C59.81,104.3,59.63,103.75,59.73,103.79Z"/><path class="cls-7" d="M60,103.92s0,.15,0,.21A.3.3,0,0,0,60,103.92Z"/><path class="cls-7" d="M61.67,103.75l0,.25S61.68,103.9,61.67,103.75Z"/><polygon class="cls-7" points="61.88 102.4 61.83 102.24 61.84 102.48 61.88 102.4"/><polygon class="cls-7" points="62.23 104.2 62.22 104.24 62.26 104.14 62.23 104.2"/><path class="cls-7" d="M65.05,103.9l0-.31C65,103.65,65,104,65.05,103.9Z"/><path class="cls-7" d="M66.26,103.52c0,.16.06.26.07.1S66.27,103.48,66.26,103.52Z"/><polygon class="cls-7" points="69.95 103.94 69.92 104.04 69.97 103.96 69.95 103.94"/><g class="cls-8"><image width="1341" height="4904" transform="translate(-988.24 -899.84)" xlink:href="../../../../../../../Downloads/screencapture-aurora-db30bf-webflow-io-2023-09-18-12_40_29.png"/></g></svg>