<svg id="Capa_1" data-name="Capa 1" xmlns="http://www.w3.org/2000/svg" viewBox="0 0 1132.42 615.86"><defs><style>.cls-1{fill:#89b9ca;}</style></defs><path class="cls-1" d="M95.43,137c-.15.28-.16.45,0,0Z"/><path class="cls-1" d="M296.84,123.2l.13.21a4,4,0,0,1,.58.25Z"/><path class="cls-1" d="M309.71,161.53v.25C309.79,161.75,309.89,161.78,309.71,161.53Z"/><path class="cls-1" d="M223.77,69.54a1.86,1.86,0,0,0-.68-.1A5.33,5.33,0,0,1,223.77,69.54Z"/><path class="cls-1" d="M91.8,209.1l-.06-.17a3.2,3.2,0,0,1,0,.44Z"/><path class="cls-1" d="M91.37,208.38c-.09-.88.26.19.37.55a9.58,9.58,0,0,0-.53-2.86C91,206.13,91.44,207.92,91.37,208.38Z"/><path class="cls-1" d="M126.83,291.81l-.34.2A1.69,1.69,0,0,0,126.83,291.81Z"/><path class="cls-1" d="M224.4,81.48a3.64,3.64,0,0,0-.54-.1A2.5,2.5,0,0,0,224.4,81.48Z"/><path class="cls-1" d="M104.59,298.1l-.51.54C104.45,298.37,104.57,298.21,104.59,298.1Z"/><path class="cls-1" d="M297.55,123.66l.28.19A1.52,1.52,0,0,0,297.55,123.66Z"/><path class="cls-1" d="M309.49,198.36a.45.45,0,0,0-.3.16v.1Z"/><path class="cls-1" d="M171.85,284.26a.3.3,0,0,0,.09.15l.72-.23A3,3,0,0,0,171.85,284.26Z"/><path class="cls-1" d="M292.34,245.61c0,.06,0,.18,0,.21a21.52,21.52,0,0,0,1.34-1.86c.3-.44.62-.93,1-1.47a16.78,16.78,0,0,0,1.07-1.8l-.3-.38a30.48,30.48,0,0,1-1.51,2.67Z"/><path class="cls-1" d="M245,268.93c1.64-.29,3.24-.7,4.86-1.1a88.59,88.59,0,0,1-18.08,6.42c-5.36,1.32-10.56,2.32-17.32,3.59l.73-.3c-1,0-1.72.58-5,1.13s-9.15,1-20.35-.07v-.09a6.66,6.66,0,0,1-2.33,0c1.3.2,2.59.37,3.88.52a60.2,60.2,0,0,1-7.45.76c-.66-.12-.89-.31-.95-.45q-3.81,0-7.64,0l-2.32-.66c-2.35.21-1.33,1.53-7.58.52,2.33,1-3.14.35-2.39.82-.31-.12-1-.32-1.6-.5-3.74-.1-10.83-.32-12.61,0l7.78,1.52c4.13.82,8.75,1.75,10.7,2.3-5.27-.49-1.4,0-.37.38l.36-.2c3.16.37,3.14.89,4.72,1.11a.32.32,0,0,0-.08-.15l-.21.06c-.14-.1,0-.16.12-.21,0-.12.11-.2,1-.13l-.17.05c1.33,0,3.61.12,4.61.19v.46c1.19-.4,5.13,0,9.2.47,2,.24,4.09.46,5.85.61a33.94,33.94,0,0,0,4,.24,22.37,22.37,0,0,0,5.28-.07c1.88-.18,3.86-.42,5.86-.46,3.18-.19,4-.17,4.41,0a3.51,3.51,0,0,0,2.07.39c4-.21-.87-.42.72-.65l4.86-.05c-2.77.45-1.22.51-.69.61l3.46-.41c1.22-.15,2.48-.26,3.64-.45,2.31-.39,4.25-.81,4.77-1.4,2.8-.49,4.25-.64,5.27-.76a18.93,18.93,0,0,0,2.82-.56,11.12,11.12,0,0,1-2.5.23c2.3-.28,1-.41.1-.23a30.61,30.61,0,0,1,4.14-1.16c1.8-.49,3.93-1,5.95-1.58s4-1.18,5.36-1.79,2.36-1.07,2.43-1.37l.07.16c.43-1-1-1.11,1-2.5l1.58-.43,2-1.38c1.56-.53.94,0,1,.09,3.29-2.24,8.29-4.66,12.2-7.53l-2.65.66-1.31.32-1.34.26c.92-.42,2-1,3.07-1.62s2.28-1.23,3.27-1.92c2-1.35,3.67-2.54,3.73-3.08l2.26-1.12c.85-.57,1.58-1,2.14-1.51s1-.86,1.34-1.2a6.16,6.16,0,0,0,1.21-1.53,4.7,4.7,0,0,1,1.46-2.24c1.06-.88,2.18-1.74,3.22-2.66-.85,1.07-1.78,2.08-2.67,3.12,3-2.83,4.13-4.07,6.51-6.45,0,0,0,0,0-.05-.15.18-.28.27-.33.27a5,5,0,0,0,.32-.48c0-.65,1-2.57,2.5-5.05,2.11-3.6,3.23-6.63,6.23-12.53l-.16-1.79c.66-1.5,1.3-3,1.9-4.55l.57.17c-.68,2.31-1.69,5.66-3,9.11-.67,1.72-1.4,3.48-2.19,5.13s-1.67,3.19-2.42,4.59l.19.24c.88-1.66,1.87-3.43,2.6-5.13s1.36-3.26,1.86-4.39,2.25-3.74,1.83-1.49c.1-.8.17-1.59.24-2.38,2-5.92,2.64-8.95,3.43-12s1.58-6.19,2.85-12.41l-.46,1c.2-2.51.35-5,.91-5.64C310.25,191,311,183,311.7,178l-.73-1.1c0-1.62,1-4.15-.05-4.9-.16-1.16-.36-2.33-.56-3.49a28.65,28.65,0,0,0-.39-2.95,15.1,15.1,0,0,1-.28-3.23h0c0-.16,0-.33,0-.5l-.06,0a9.93,9.93,0,0,0-.31-2.23c-.1-.31-.18-.32-.26-.34s-.32-.2-.67-3.12c.11-1.95-1.35-1.83-1.85-4.61.12-1,.15-2,.21-3a23.45,23.45,0,0,0-.77-3.17c-.32-.87-.66-1.63-1.05-2.45-.73-1.66-1.75-3.5-3.18-7-1.16-3.38-1.13-5.37.58-3.51a22.43,22.43,0,0,1-3.57-4.79c0-.77.31-.4,1.06.3a6.33,6.33,0,0,0-1.43-2.67,5.89,5.89,0,0,1-1.44-1.84c-1.06-.37-2.49-.63-3.05-1.38.13.36.28.7.4,1.07-1-1.2-1.95-2.45-2.88-3.81a49.74,49.74,0,0,1-2.78-4.3l.37-.11c-.76-1-1.61-1.92-2.42-2.88l.22-.47c-1.11-1.41-2.32-2.73-3.51-4.07l.38.64c-.83-1-3.73-3.91-5.18-5.79l.24-.12a42.48,42.48,0,0,0-3.23-3.64c-1.15-1.08-2.35-2.1-3.58-3.11s-2.6-1.94-4-3-2.89-2-4.45-3.21l1.13.2c-1.81-2-1.06.21-3.48-1.85l.24-.62c-2.76-.94-2.9-2.18-4.36-3.52l.31,1.2c-1-.69-2-1.44-3-2.08-3.32-2.27-1.6-2.18-.86-2.26-.91-.26-1.8-.55-2.71-.79l-.12-.91c-2.21-.16-1.7-1.12-5.1-2.25-.14-.38.74-.14-.3-.77l-2.86-.77c-1-.24-1.94-.44-2.9-.66,1.14.32,2.3.59,3.42,1l-.84.81a13.09,13.09,0,0,1-3.93-1.36,11.46,11.46,0,0,0-3.09-1.31l1.79.31c-4.08-1.2-4.11-1.76-6.34-2.7.65.42,1.64,1-.05.67-1.22-.33-.53-.58-1.64-1-.24.32-1.11.3-2.25.15a17.15,17.15,0,0,1-3.83-1,.4.4,0,0,1,.33-.19,6.41,6.41,0,0,1-2.26-.39l.88-.64-2.48.26c-1.49-.58-3.86-.36-3.57-.86l.92,0a100.62,100.62,0,0,0-11.88-1.6l-.13-.66c-.62.43-2.25.18-3.7.15s-2.69-.11-2.49.45c-2.29-.69-8.89.8-7.64-.52a47.88,47.88,0,0,0-5.37.7c-1.64.35-3.19.66-4.77,1.07s-3.21.82-5,1.27c-.9.24-1.85.48-2.88.72-.51.11-1,.22-1.58.35l-1.69.41a17,17,0,0,0-3.55.51c-1.41.38-3,.89-4.7,1.46s-3.38,1.35-5,2.05l-4.63,2.13a122.17,122.17,0,0,0-13.43,8.56,139.53,139.53,0,0,0-12.3,10.27A25.77,25.77,0,0,0,121,98.86c-.79.76-1.59,1.55-2.36,2.39s-1.5,1.74-2.26,2.63-1.48,1.8-2.19,2.71-1.42,1.82-2.12,2.7-1.35,1.77-2,2.6l-2,2.36-.77,2.11a21,21,0,0,0-2.76,3.44c-.44.66-.91,1.35-1.35,2.09l-1.31,2.28c-.91,1.55-1.75,3.2-2.64,4.85s-1.79,3.3-2.8,4.88c-.56,1.73-.79,2.67-.95,3.06.16-.3.46-.73.86-.73-.52.92-1.12,2.39-1.65,3.57s-.93,2.08-1.23,1.81l.11-.53c-.3-.28-.76,1.26-1.33,3.12a24.33,24.33,0,0,1-1.72,5.14l1.15-1c-.46,1.25-.82,2.54-1.19,3.82l.11-1.08c-1.34,8.63-2.24,14.82-2.83,21a64.52,64.52,0,0,0,1,20.1c-.53-1-.37-.23-.11.83s.52,2.42.07,2.59a12.12,12.12,0,0,0,.63,5.67c.62,1.71,1.34,3.29,1.88,4.86.05,0,.11,0,.22.18.39,1.89.8,3.77,1.27,5.63-2-3,2,3.76.23,1a119,119,0,0,0,8,23.74c1.81,4.1,3.74,8,5.22,11.83A46.11,46.11,0,0,1,108,254.1a24.07,24.07,0,0,1,.77,5.41l.27-.63a20.28,20.28,0,0,1-.23,5.45,10,10,0,0,1-1.88,4.34,19.44,19.44,0,0,0-2.1,3.69,26.09,26.09,0,0,1-1.49,2.94,19.58,19.58,0,0,1-3.3,3.93c-1.18,1.13-1.84,1.61-1.08.66-.44.59-.85,1.22-1.25,1.83a16,16,0,0,0-1.09,1.83l-.94,1.81c-.26.59-.46,1.18-.71,1.78A54.41,54.41,0,0,0,92.72,295a6.91,6.91,0,0,0-.45,1.54A16,16,0,0,0,92,299c0,.23,0,.47,0,.71l0,.37s0,.07,0,.08H92l.16,0,1.39-.18,2.92-.45,2.8-.46,1.25-.21.57-.08c.19,0,.45-.14.66-.19,1.76-.53,2.87-.77,2.81-.45l.13-.13c2.37-.49,4.89-1.16,7.37-1.9l1.49-.45,1.19-.38,2.38-.81a69.28,69.28,0,0,1,10-2.88,1.77,1.77,0,0,1-.33.26l13.26-7.53-5.14-2.5-13.22.62L113.41,285l-2.07.66-1,.32-.24.08,0,0-.07,0-.64.27-1.58.64-.46.18s0,0,0,0v-.09l0-.18a2.4,2.4,0,0,1,.08-.74,6.07,6.07,0,0,1,1.1-1.18c.17-.16.32-.25.5-.4l.31-.25,1.13-1.25a74.16,74.16,0,0,0,4.86-5.86,32.28,32.28,0,0,0,4.18-7.75,29.26,29.26,0,0,0,1.25-10.93,42.57,42.57,0,0,0-1.95-9.85c-1.91-6.09-4.58-11.38-6.79-16.36a154.94,154.94,0,0,1-10.23-30.74c-.58-1.44-1.18-2.9-1.7-4.37-.19-3.2-.4-6.58-.67-10.07s-.43-7.11-.39-10.75c-.05-1.82.08-3.64.13-5.46s.27-3.6.53-5.37.5-3.53.94-5.22l.63-2.51c.21-.83.51-1.63.77-2.43l-.66-.45c.23-.93.42-1.6.59-2.09a6.47,6.47,0,0,1,.48-1,11,11,0,0,0,.67-1,105.53,105.53,0,0,1,27.66-44.93c12.7-12.3,28.26-21,43.69-24.83,1.55-.12,4.54-.91,7.5-1.39,1.46-.3,2.93-.46,4.17-.6a13.14,13.14,0,0,1,2.88-.11c10-2.15,21.17-1.3,31.19,1.2l-.4,0,4.75,1.11c.18.13.17.22,0,.23a40.86,40.86,0,0,1,4.51,1.14c1.59.59,3.31,1.16,5,1.95s3.41,1.56,5,2.46c.81.44,1.63.86,2.41,1.3l2.25,1.32-.39-.11a111.58,111.58,0,0,1,41.91,38.68,105.27,105.27,0,0,1,6.63,12.56,93.38,93.38,0,0,1,4.65,13.42,86,86,0,0,1,2.4,14.07,103.19,103.19,0,0,1,.16,14.62c-.44,4.58-1,9.35-1.59,14.28s-1.38,10-2.4,15a85.13,85.13,0,0,1-4.23,14.65,47.14,47.14,0,0,1-3.29,6.78,57.84,57.84,0,0,1-4.13,6.26c-.74.61-2.62,3.2-5.59,6.42a90.13,90.13,0,0,1-11.55,10.38c-1.15.81-2.25,1.69-3.42,2.45l-3.43,2.25-3.36,2c-1.06.66-2.15,1.17-3.13,1.71C248.86,267.18,245.81,268.51,245,268.93Z"/><path class="cls-1" d="M183,279.3h.17C183.13,279,182.88,279.1,183,279.3Z"/><path class="cls-1" d="M272.35,264.67l-.25.17,1.19-.3Z"/><path class="cls-1" d="M216.42,286.36c2.7-.29,2.81-.38,2.41-.45A14.51,14.51,0,0,0,216.42,286.36Z"/><path class="cls-1" d="M161.51,279.08c-1.39-.1-.87.11-.07.37l2.4.08C163.07,279.41,162.3,279.2,161.51,279.08Z"/><path class="cls-1" d="M166.94,283.65l-.44.23C167.32,283.86,167.29,283.76,166.94,283.65Z"/><path class="cls-1" d="M1039.39,267.22c-.21,0-.32.06,0,0Z"/><path class="cls-1" d="M986.42,365.18l-.12.11c0,.15,0,.29-.08.42Z"/><path class="cls-1" d="M965.82,383l-.14.09C965.73,383.13,965.74,383.19,965.82,383Z"/><path class="cls-1" d="M1030.44,320.36a1.24,1.24,0,0,0,.28-.37Z"/><path class="cls-1" d="M990.29,275.6l.11,0h-.29Z"/><path class="cls-1" d="M990.8,275.35c.6,0-.14.16-.4.23a7.06,7.06,0,0,0,2-.25C992.36,275.18,991.11,275.41,990.8,275.35Z"/><path class="cls-1" d="M901.42,291.51l.26-.11A1.69,1.69,0,0,0,901.42,291.51Z"/><path class="cls-1" d="M1023.1,317.08l.25-.32A1.39,1.39,0,0,0,1023.1,317.08Z"/><path class="cls-1" d="M915.48,289.2l.11-.26C915.47,289.06,915.45,289.14,915.48,289.2Z"/><path class="cls-1" d="M986.22,365.71l-.08.2A1.19,1.19,0,0,0,986.22,365.71Z"/><path class="cls-1" d="M948.46,370.1a.38.38,0,0,0,.13-.19l0-.07Z"/><path class="cls-1" d="M903.27,304.23a.17.17,0,0,0,0,.12l.52.11A3.09,3.09,0,0,0,903.27,304.23Z"/><path class="cls-1" d="M939.71,341.57s0,.06-.05.12a11.94,11.94,0,0,0,.52,1.88l.21-.32Z"/><path class="cls-1" d="M924,347.4a4.08,4.08,0,0,0-.6,1.18,9.82,9.82,0,0,1-.07-1.88c0-2.32.11-4.41.18-6.45.13-4.08.27-8,.19-13l.12.56a13.58,13.58,0,0,0-.15-2.13c0-.57-.08-1.32-.07-2.33,0-.51,0-1.08.06-1.73.06-1.05.13-2.21.21-3.53l-3.49-4.61c-1.06-1.39-2.24-3-3.91-4.83l0,0c-.24-.22-.4-.31-.59-.46s-.45-.39-1-.91a23.22,23.22,0,0,1,2.24,2.48,26.42,26.42,0,0,0-2.32-1.71c-.48-.33-.83-.51-1.26-.79l-1.33-.89c-.35-.34-.42-.54-.4-.64-1.56-1.07-3.15-2.1-4.75-3.09l-1.26-1.26c-1.61-.72-1.32.35-5.1-2.34,1.24,1.35-2.17-.81-1.81-.27-.17-.17-.59-.51-.92-.8a52.32,52.32,0,0,0-8.49-3.48s2.35,1.32,4.88,3a61.06,61.06,0,0,1,6.33,4.66c-3.23-2-.9-.44-.35.1h.29a19.69,19.69,0,0,1,2.6,2.25.47.47,0,0,0,0-.12l-.15,0c-.06-.11,0-.11.14-.08s.14-.08.65.26l-.12,0a32.69,32.69,0,0,1,2.74,1.8l-.15.26c.85.22,3.07,2,5.19,3.92a47.53,47.53,0,0,1,4.51,5.19,40.68,40.68,0,0,0,3.28,3.95c0,.63,0,1.2-.12,1.95-.27,4.48-.53,2.23-.87,4.47-.29,2.8.37-.56.35.57l-.53,3.35c0-1.95-.19-.9-.32-.54-.15,2.91-.82,7.49-.23,8.4-.38,3.93-.61,3.93-.67,5.62a8.24,8.24,0,0,1,.36-1.69c-.29,1.57,0,.75.12.11a20.9,20.9,0,0,1-.1,3c-.05.64-.11,1.34-.17,2.06-.06,1.07-.13,2.16-.19,3.23-.25,4.36-.38,9-.06,8.81l-.12.19c.25,0,.49-.49.7-.76s.4-.3.54.54l-.09.85c0,.24.26,0,.44,0l1.94-1.63c1.09-.58.46,0,.42.13,1.55-1.23,3.25-2.45,5.1-3.82.91-.71,1.87-1.42,2.79-2.17.71-.56,1.39-1.12,2-1.68-1.2.5-2.32.87-3.65,1.4l2.11-1.45c.72-.53,1.48-1.06,2.13-1.61a8.54,8.54,0,0,0,2.41-2.44l1.49-1c.56-.47,1-.89,1.38-1.25a4.38,4.38,0,0,0,.53-.53,2.16,2.16,0,0,0,.43-.79,2.37,2.37,0,0,1,.61-1.34q.6-.48,1-.75c-.27.48-.57.95-.88,1.41.63-.68.91-1,1.15-1.21l.18-.11c0,.25.06.52.1.8,0-.1,0-.2,0-.27l.06.15c.14-.37.46.09.79,1.16.22.77.48,1.35.76,2.13.07.23.16.47.24.73s.23.78.36,1.2c.24.85.49,1.81.72,2.91l.84.9.81,3.29-.38.13-3.67-10.45-.13.2c.15.46.35.92.54,1.39,0,.11.1.23.14.34s.19.52.28.76c.18.52.34,1,.46,1.38.19.8.46,2.9-.28,1.56l.87,1.35c2.78,7.95,2.84,8,5.36,16.4l-.07-.79c.7,1.6,1.38,3.19,1.24,3.75.84,2.48,1.66,5,2.32,7.36l1.23,4.32c.25.9.49,1.77.71,2.59s.46,1.72.67,2.51c.26.27.51.53.75.75.31.95.6,2.39.92,3.64.09.31.17.61.24.88s.09.26.12.38l.07.18s.08-.07.12-.09a5.16,5.16,0,0,0,.92-1.17l3.2-3.12c1-.87,1.8-1.66,2.62-2.43a32.19,32.19,0,0,1,2.91-2.44l.29-.18,0,0c2.71-2.13-.31-.29,2.82-2.7,1.16-.6.65-1.37,2.14-2.58l1.88-.79c2.85-2.05,2.83-2.95,6.57-6.33,2-1.45,3.2-1.83,2.36-.36a12.09,12.09,0,0,1,2.42-3.19c.51-.11.31.14,0,.75,2.12-1.55,1-1.26,2.48-2.58.09-.74.05-1.74.5-2.2l-.66.41a32.44,32.44,0,0,1,4.84-4.71l.1.24,1.79-1.85.33.11,2.6-2.58-.42.28a49.8,49.8,0,0,1,3.84-3.65l.07.16a37.12,37.12,0,0,0,4.79-4.46c1.48-1.6,3-3.34,4.85-5.23l-.26.74c1.54-1,0-.74,1.65-2.13l.38.22c1-1.73,1.83-1.66,2.91-2.44l-.83,0,1.82-1.68c2.06-1.8,1.69-.68,1.62-.19l1-1.64.61.09c.55-1.37,1-.89,2.47-2.82.27,0-.07.5.55,0l2.23-3.31-1.43,1.92-.32-.71c1.32-2.16,2.38-2.35,3.46-3.75l-.68,1a17.34,17.34,0,0,1,3.42-3.16c-.44.27-1.12.69-.39-.22.56-.64.51-.16,1.12-.69-.22-.47,1-2.14,2.47-3.34a.29.29,0,0,1,0,.26,3.82,3.82,0,0,1,1-1.19l.06.72.72-1.51c.83-.68,1.6-2.08,1.77-1.73l-.33.51,5.58-5.82.39.21c.11-1,3.14-3.08,2.42-3.39,1.33-.84,3.82-4.61,3.83-3.38,3.62-3.88,4.94-6.53,9.54-11,2.06-1.23,6.08-6.05,8.89-9.06l3.58-4.31,1.84-2.19,3-3.48,5.91-6.84L1082,264l1.6-1.85.83-1,.21-.24,0,0h-.13l-.17,0-.69.1a48.08,48.08,0,0,0-6.53.52c-2.64.33-5.55.79-8.4,1.25l-7.71,1.25a36.37,36.37,0,0,1-4.3.47l-1.39.6c-3.6-.13-8.85,1.42-13.86,1.55-1.18.34-1.81.49-2.09.55a.8.8,0,0,1,.73.24c-1.44,0-4.24.69-4.12.16l.35-.1c.13-.53-4.23.88-5.86.69l.94.4-2.67.31.69-.21c-11.36,3-16.84,2.13-27.5,5,1.34-.81-2.09.65-2.33.05-2.86-.34-5,1-7.23,1.59,0,0,0,.07-.14.14l-3.92.58c2.2-1.18-2.71,1.13-.68.1-10.3,1.12-23.49,4-35.32,5.81l.55.12c-3,.48-6.67,1.38-9,1.45s-4.87,1.39-5.74,1.58c-2.43.79-4.81.49-3.74.34-2.64.56-5,1.72-8.75,2.06-1.38-.45-9.94,2.43-10.18,1.69l0,.07c-4.82.3-9.11,2-14.28,2.39a1.63,1.63,0,0,1,.25-.15l-9.95,4.1,3.39,2,9.33.49,24.24-4.72L948,290.78q23.58-4.27,47.16-8.39l3.28-1.13c9.45-.56,21.17-3.61,31.3-4.46l.13-.52a8.68,8.68,0,0,1,3.38-.15L1053,273l9.87-1.51,1.9-.35.52-.09.13,0c.06,0,0,0,0,.06l-.15.17-.62.72-3,3.32c-4.27,4.71-8.47,9.27-12.59,13.61-1.79,1.49-6.35,6.83-7.82,7.92a233.19,233.19,0,0,1-15.7,17.81l.16-.25-2.44,2.71c-.14.09-.2.06-.14-.05-2.51,3.31-7.34,7.67-11,11.14l.17-.24c-10.34,10.45-20.41,20.44-30.71,30.18l-7.76,7.26-7.9,7.17-4,3.56-1.67,1.45-.34.27-.33.24s-.11.11-.14.07l0-.23-.1-.45-.19-.74,0-.17v0l0-.15-.09-.32c-.12-.41-.25-.83-.37-1.25q-.39-1.24-.78-2.52-.81-2.55-1.73-5.14c-1.2-3.45-2.52-7-3.83-10.52s-2.61-7.18-3.84-10.85l-1-3c-1-3.12-1.55-9.4-5.31-10.48a5.12,5.12,0,0,0-4.06.78,21.1,21.1,0,0,0-5.33,5.29c-.39.52-.73,1-1.19,1.59-.19.22-.39.44-.58.67-.79.92-1.66,1.85-2.58,2.78s-1.89,1.85-2.88,2.75l-.75.67s-.33.29-.34.31a0,0,0,0,1,0,0,1.12,1.12,0,0,1-.18.27C924.11,347.48,924.05,347.4,924,347.4Z"/><path class="cls-1" d="M911.86,305.71l.1.07C912.08,305.6,911.88,305.56,911.86,305.71Z"/><path class="cls-1" d="M930.84,350.38l-.16.14.8-.32Z"/><path class="cls-1" d="M917.87,327.67c-.13,1.88-.08,2,0,1.71A11.84,11.84,0,0,0,917.87,327.67Z"/><path class="cls-1" d="M898.17,297.75c-.9-.49-.61-.2-.15.2l1.57.8C899.11,298.43,898.66,298.07,898.17,297.75Z"/><path class="cls-1" d="M900.39,302.22H900C900.56,302.47,900.57,302.4,900.39,302.22Z"/><path class="cls-1" d="M1019,290.49c-.13.05-.18.11,0,0Z"/><path class="cls-1" d="M1036.6,285.35l-.1,0a1.85,1.85,0,0,1-.11.31Z"/><path class="cls-1" d="M1020.59,290.68h-.11C1020.51,290.74,1020.51,290.8,1020.59,290.68Z"/><path class="cls-1" d="M1072.45,270.62a.55.55,0,0,0,.24-.15A1.67,1.67,0,0,1,1072.45,270.62Z"/><path class="cls-1" d="M991.75,304.87l.06,0a1.08,1.08,0,0,1-.19,0Z"/><path class="cls-1" d="M992,304.57c.37-.1,0,.17-.16.26a2.58,2.58,0,0,0,1.14-.48C992.88,304.21,992.19,304.59,992,304.57Z"/><path class="cls-1" d="M942.13,330.67l.12-.13A.68.68,0,0,0,942.13,330.67Z"/><path class="cls-1" d="M1068.21,264.12l.23-.13A.62.62,0,0,0,1068.21,264.12Z"/><path class="cls-1" d="M950,326.76l0-.26A.34.34,0,0,0,950,326.76Z"/><path class="cls-1" d="M1036.39,285.7l-.08.13A.57.57,0,0,0,1036.39,285.7Z"/><path class="cls-1" d="M1005.87,295.8a.41.41,0,0,0-.14-.15l-.05,0Z"/><path class="cls-1" d="M930,316.07a.13.13,0,0,0,.07.08l.25-.25A1.11,1.11,0,0,0,930,316.07Z"/><path class="cls-1" d="M985.31,301.72s0,.07,0,.1a17.11,17.11,0,0,0,2.45-.73l0-.31Z"/><path class="cls-1" d="M961,302.22l2.34-.11c-6.86,2.46-10.28,2.88-16.09,5.19l.29-.23c-.9.13-1,1.58-11.07,2.91l0-.05a2.16,2.16,0,0,1-1,.27l1.76-.15a22.5,22.5,0,0,1-3,1.43c-.3,0-.43-.07-.49-.16l-3.22,1.07-1.11-.08c-.94.5-.25,1.16-3,1.51,1.17.25-1.22.72-.81.9l-.76-.06a33.46,33.46,0,0,0-5.15,2.08s6.53-.69,8.37-.6c-2.27.52-.56.24-.07.3l.11-.18c1.37-.27,1.48.08,2.17,0,0,0,0-.06-.06-.09l-.08.07c-.08,0,0-.09,0-.15s0-.14.37-.23l0,.06a16.35,16.35,0,0,1,1.94-.55l.1.28c.83-.83,6.9-1.16,8.24-1.55,1.44,0,3-1,4.68-1.32,2.68-.72,1.45,0,2.86-.14,1.72-.33-.44-.24.23-.46l2.11-.21c-1.14.39-.46.37-.22.42,1.74-.49,4.62-.81,5-1.55,2.41-.44,2.48-.22,3.49-.5-.37,0-1.06.11-1.1,0,1,0,.42-.2,0-.14,1.34-.68,7.69-1.25,7.78-2l0,.11c.18-.57-.49-.86.41-1.43h.73l.93-.52c.71-.06.43.17.44.23a42.28,42.28,0,0,1,5.87-1.76l-2.48-.62c1.75-.22,4.92-.6,5.11-1.12l1.13.1c3.58-.26,2.19-1.11,3.59-1.29l1.82-.08-1.66.53a36.45,36.45,0,0,1,3.87-.5v0c-.1,0-.17,0-.19,0l.23-.09a4.13,4.13,0,0,1,2.1-1.13,28,28,0,0,1,5.64-1.66l.5-.7,2.07-.39.13.38c-1.94.65-5.54,2-8,2.87l0,.19c1.47-.5,3.1-1.23,4.09-1.52.5-.09,1.85-.1,1,.45l.79-.68a81.29,81.29,0,0,1,10.22-3.11l-.51,0c1-.46,2-.93,2.35-.73a48.57,48.57,0,0,1,8.53-2.16l.28-.6c.66-.22,1.87.1,2-.64l1.32-.69a9.66,9.66,0,0,1,2.45-.86h.21a.05.05,0,0,0,0,0c2.07-.53-.17-.38,2.21-1,.86,0,.61-.86,1.76-1.17l1.36.21c2.15-.39,2.26-1.14,5.18-2.25,1.49-.3,2.37,0,1.62.81,1.06-1.06.44-.6,2-1.52.35.14.19.26-.11.62,1.62-.29.85-.57,2-1,.16-.58.27-1.44.62-1.6l-.49,0a11.51,11.51,0,0,1,3.85-1.61l0,.24,1.44-.68.2.25,2.08-.9-.32,0A18.12,18.12,0,0,1,1047,280l0,.18c2.82-.52,4.74-2,7.79-3.24l-.27.48c1.17-.08.09-.61,1.4-.93l.22.38c.89-1,1.46-.44,2.3-.53l-.56-.39,1.47-.44c1.64-.42,1.22.3,1.09.66l.92-.82.38.38c.58-.84.82-.21,2.08-1,.18.13-.13.36.36.26l2-1.52-1.25.81-.09-.74c1.22-1.06,2-.66,2.89-1.24l-.62.47a6.33,6.33,0,0,1,2.78-.74c-.34,0-.85,0-.22-.38.48-.23.36.14.85,0-.06-.49,1-1.18,2.2-1.37a.21.21,0,0,1,0,.2,1.57,1.57,0,0,1,.87-.42l-.09.61.74-.82c.66-.1,1.42-.8,1.47-.43l-.31.23,1.24-.43-2.95-6.6-3.29,1.6-.26-.35c-.16.75-2.51,1-2,1.62-1,.08-3.15,2-3,1-2.93,1.44-4.13,3-7.85,4.42-1.58,0-4.93,2-7.23,3.08-4.3,2.53-7,4.23-11.49,6.75-3.18.5-6.66,3.77-9.86,4.76l-.63.76c-2.24.43-4.88,2.63-7.9,3.47a10,10,0,0,1-1.07.81.49.49,0,0,1,.53.12c-.87.24-2.35,1.24-2.47.74l.18-.15c-.11-.5-2.27,1.41-3.34,1.47l.72.23-1.53.67.35-.29c-5.92,4.32-9.59,4.28-15.17,8.31.54-.93-1,.88-1.42.35-1.89.06-2.75,1.59-3.91,2.41a.16.16,0,0,1,0,.15l-2.23,1c.95-1.38-1.27,1.39-.38.17-6,2.35-13.16,6.68-19.89,9.79l.38,0c-1.69.81-3.66,2.1-5.08,2.45s-2.54,1.89-3,2.17c-1.23,1-2.82,1-2.2.77-1.45.85-2.51,2.22-4.72,3-1-.25-5.32,3.48-5.74,2.83v.07c-2.89.88-5,3-8,4a.53.53,0,0,1,.1-.18l-4.71,5.07,2.83,1.42,6-.74L959.58,329l11.23-4.82,26.34-13.67,1.63-1.48c5.67-1.73,11.82-6.14,17.75-8.33l-.1-.51a3.54,3.54,0,0,1,2-.61c14.66-7.54,29.5-15.81,43-22,1.42-.36,5.21-2.52,6.36-2.73a91.38,91.38,0,0,1,9.36-5.49l-3.24-7.26-3.69,1.37.15-.12-2.09.9c-.11,0-.14-.06-.09-.12-2.24,1.32-6.17,2.36-9.17,3.31l.15-.12c-17.14,6.49-32.61,13.53-49.88,19-8.18,2.07-17.07,6.32-26.44,8.74-.92,0-6,1.67-11,3.38S961.77,301.85,961,302.22Z"/><path class="cls-1" d="M933.67,311.32l.07,0C933.68,311.1,933.59,311.21,933.67,311.32Z"/><polygon class="cls-1" points="974.01 304.78 973.88 304.82 974.43 304.95 974.01 304.78"/><path class="cls-1" d="M949.3,312.74c1.14-.27,1.17-.34,1-.37A4.4,4.4,0,0,0,949.3,312.74Z"/><path class="cls-1" d="M924.68,314.42c-.59.16-.34.21.05.24l1-.33C925.39,314.38,925,314.37,924.68,314.42Z"/><path class="cls-1" d="M927.88,316.44l-.13.22C928.08,316.51,928.05,316.46,927.88,316.44Z"/><path class="cls-1" d="M123.37,551.14c-.18,0-.26.06,0,0Z"/><path class="cls-1" d="M190.11,490.73l0-.13a2.87,2.87,0,0,1-.36-.21Z"/><path class="cls-1" d="M186.32,469.07v-.14C186.25,469,186.18,469,186.32,469.07Z"/><path class="cls-1" d="M201.13,537.7a.2.2,0,0,0,.08.13A.91.91,0,0,1,201.13,537.7Z"/><path class="cls-1" d="M86.25,557.66h0a.3.3,0,0,1,0-.1Z"/><path class="cls-1" d="M86.48,557.51c.12.13-.11.16-.19.15a.39.39,0,0,0,.52.21C86.84,557.69,86.49,557.68,86.48,557.51Z"/><path class="cls-1" d="M70,490.13l.12.2A1.76,1.76,0,0,0,70,490.13Z"/><path class="cls-1" d="M210.28,537c.06.2.12.42.17.6A2.93,2.93,0,0,0,210.28,537Z"/><path class="cls-1" d="M72.37,501.43l.31.06A.32.32,0,0,0,72.37,501.43Z"/><path class="cls-1" d="M189.72,490.39l-.14-.13Z"/><path class="cls-1" d="M181.06,463.24a.34.34,0,0,0-.16-.19h-.06Z"/><path class="cls-1" d="M79.85,479.67a.24.24,0,0,0,.06.11l.39-.25A1.49,1.49,0,0,0,79.85,479.67Z"/><path class="cls-1" d="M153.73,469s-.07.09-.07.13a24.28,24.28,0,0,0,3.28-.71V468Z"/><path class="cls-1" d="M122.22,467.65l3,.11c-9.19,2.3-13.66,2.37-21.51,4.37l.41-.22c-.59,0-1,.44-2.87.89a29.6,29.6,0,0,1-4.17.64c-1.9.16-4.4.25-7.67.23v-.07a2.85,2.85,0,0,1-1.33.14c.76.06,1.51.09,2.27.13A27.28,27.28,0,0,1,86.19,475c-.39,0-.53-.16-.58-.27l-4.35.67-1.39-.32c-1.3.39-.59,1.31-4.21,1.14,1.41.54-1.73.6-1.26.9-.19-.06-.61-.15-1-.24a45.25,45.25,0,0,0-7.08,1.23l4.52.43c2.41.27,5.12.54,6.28.78-3,.13-.78.16-.17.33l.19-.19c1.82,0,1.87.4,2.79.43a.37.37,0,0,0-.07-.12l-.11.07c-.09-.06,0-.12,0-.18s0-.17.53-.19l-.08,0c.74-.14,2.06-.21,2.63-.26l0,.36c.63-.43,2.91-.46,5.26-.4s4.78.11,5.69,0c1.87.18,4-.7,6.31-.86,3.6-.48,1.88.22,3.73.23,2.29-.15-.52-.34.37-.51l2.78,0c-1.55.33-.67.39-.36.48,2.34-.37,6.13-.38,6.71-1.22,3.2-.28,3.26,0,4.61-.23-.47,0-1.39,0-1.42-.12,1.31.06.58-.2,0-.17,1.86-.65,10.18-.73,10.42-1.6l0,.14c.32-.67-.51-1.08.75-1.68l.94.07,1.28-.55c.93,0,.53.24.54.31a70.88,70.88,0,0,1,7.85-1.64l-3.13-.92c2.29-.15,6.45-.35,6.77-1l1.45.22c4.67-.07,3-1.19,4.82-1.32l2.37,0-2.22.52c2.28-.24,3.22-.27,5.07-.34v0c-.12,0-.21,0-.23,0l.3-.1a5.84,5.84,0,0,1,2.86-1.2c2.23-.47,3.84-1.34,7.52-1.64l.72-.81,2.73-.34.13.47c-2.6.64-7.42,2.08-10.75,2.94v.23c2-.5,4.17-1.28,5.49-1.57.66-.07,2.41,0,1.31.61l1.1-.77a117.37,117.37,0,0,1,13.61-3.08l-.66-.08c1.32-.5,2.64-1,3.12-.71l1.07-.26.5-.09c.32-.05.64-.1.93-.13a4.55,4.55,0,0,1,1.41,0,2.72,2.72,0,0,1-.27.82,2.78,2.78,0,0,1,.51-.33,1.21,1.21,0,0,1-.27.47c-.09.12-.1.16.29.11,0,0,.08.15.13.31l.16.45.32.92a13.68,13.68,0,0,1,.65,3.31h0c0,.09,0,.18,0,.27l0,0c.33,2.77.49-.14.83,3-.18,1.08.94,1,1.13,2.5l-.47,1.69c.12,2.84,1,3.14,1.85,7.13.12,2-.36,3-1.23,1.89,1.1,1.59.64.7,1.48,2.93-.23.42-.34.19-.72-.26.08,2.12.54,1.21.85,2.76.65.33,1.66.66,1.8,1.15l.05-.63a16.37,16.37,0,0,1,1.28,5.29h-.3l.57,2-.33.2.72,2.87v-.41a25.2,25.2,0,0,1,.87,4.19h-.21c.13,3.74,1.57,6.53,2.53,10.73l-.53-.46c-.11,1.52.71.26.87,2l-.49.19c1,1.37.27,2,.24,3.07l.56-.62.27,2c.23,2.2-.56,1.5-1,1.26l.83,1.35-.53.41c.91.93.12,1.1.88,2.9-.19.2-.42-.25-.38.41l1.48,2.92-.76-1.79.9,0c1.06,1.81.46,2.65,1,4l-.45-.9a9.32,9.32,0,0,1,.43,3.74c.07-.43.18-1.09.48-.19.1.33,0,.44,0,.53s-.2.09-.23.16a.76.76,0,0,1,.7.3.66.66,0,0,1,.13.68,1.46,1.46,0,0,1-.25-.13c.13.14.32.29.2.41l-.76-.48a7.3,7.3,0,0,1,.78.73s0,0,0,0c-.33,0-.3.34-.64,0a.57.57,0,0,0,0-.13l-.84.06h-.35l-.2,0-1.61.23-.17-.49c-.52.8-3.54.31-3.19,1.15-1.29-.28-4.71,1.13-4.16,0-4.23.63-6.35,2-11.55,2.33-2-.54-6.92.57-10.23,1-6.37,1.41-10.47,2.42-17,3.78-4.15-.51-9.8,2-14.16,2.09l-1.09.66c-2.95-.27-7.11,1.35-11.2,1.29-.94.36-1.44.51-1.66.57a.61.61,0,0,1,.61.31c-1.17,0-3.42.62-3.35,0l.27-.11c.07-.62-3.39.85-4.74.55l.8.51-2.16.25.55-.22c-9.09,2.95-13.63,1.65-22.17,4.39,1-.88-1.67.65-1.9-.09a5,5,0,0,0-3.14.3c-.22.08-.42.18-.61.27s-.08.08-.13.12l-.1.11a1.33,1.33,0,0,1-.49.33.34.34,0,0,1-.08.14,1.47,1.47,0,0,1-1-.57c.57-.16.29-.12,0-.11s-.61-.08-.1-.06a3.1,3.1,0,0,1-.15-.58l0-.29a2.34,2.34,0,0,0-.06-.42c-.18-1.05-.41-2.22-.64-3.36-.48-2.3-1-4.69-1.59-7.11-1.14-4.86-2.36-9.86-3.25-14.62l-.15.47c-.49-2.41-1.44-5.32-1.46-7.23s-1.51-3.84-1.7-4.53c-.86-1.9-.44-3.9-.29-3-.59-2.11-1.9-3.92-2.19-7,.58-1.19-2.58-7.89-1.7-8.18l-.08,0c-.21-3.93-2.09-7.26-2.42-11.46a1,1,0,0,1,.17.18l-4.58-7.69-2.48,3-.83,7.74L67,512.59l2.51,15.78,4.39,18.9,2.19,9.45.28,1.2.21.86q.15.56.33,1.11a11,11,0,0,0,2.2,3.94,9.11,9.11,0,0,0,3.7,2.44,11.21,11.21,0,0,0,4.48.52c.44-.08.86-.19,1.29-.3s.57-.2.83-.3l1.33-.58c7.72-.05,17.13-3,25.38-3.52l.07-.62a5,5,0,0,1,2.76,0c21.23-3.67,43-8.09,62.21-10.52,1.91.08,7.48-1.08,9-.91,2.72-.78,5.53-1.43,8.36-2l2.13-.41,3.53-.61,7.77-1.29c-.25-1.24-.51-2.48-.76-3.71l.17.46-1.25-5.37c0-.22.07-.25.15-.08l-.33-1.17c-.06-.2-.11-.4-.17-.61l-.08-.3,0-.17c-.13-.45-.25-.94-.37-1.44-.23-1-.44-2.08-.62-3.19-.38-2.22-.68-4.56-1-6.58l.12.22c-2.4-11.67-5-22.86-7.52-34-1.26-5.59-2.5-11.17-3.67-16.82q-.89-4.23-1.71-8.52c-.89-4.58-1.78-9.18-2.69-13.83l-.49.12c-2.15.45-4.44,1-6.81,1.54l-6.5,1.63c-2.85.73-5.77,1.56-8.73,2.39-5.92,1.67-12,3.39-18.25,4.52-1.2,0-7.94,1.64-14.67,3.26S123.29,467.3,122.22,467.65Z"/><path class="cls-1" d="M85.61,474.74l.09,0C85.66,474.48,85.53,474.59,85.61,474.74Z"/><path class="cls-1" d="M138.69,471.88l-.17,0,.7.2Z"/><path class="cls-1" d="M105.41,478.92c1.52-.19,1.58-.26,1.35-.32A6.56,6.56,0,0,0,105.41,478.92Z"/><path class="cls-1" d="M73.45,476.59c-.79.05-.48.17,0,.3l1.35-.18C74.36,476.7,73.9,476.62,73.45,476.59Z"/><path class="cls-1" d="M77,479.66l-.22.23C77.24,479.79,77.21,479.72,77,479.66Z"/><path class="cls-1" d="M109.66,500.06c0-.05-.1,0,0,0Z"/><path class="cls-1" d="M147.41,499.61l0,0a2.14,2.14,0,0,1-.16-.28Z"/><path class="cls-1" d="M153.44,493.81l.06,0C153.44,493.75,153.39,493.69,153.44,493.81Z"/><path class="cls-1" d="M137,512.52s0,0,0,.07S137,512.54,137,512.52Z"/><path class="cls-1" d="M95.38,494.26h0l-.06-.1Z"/><path class="cls-1" d="M95.62,494.14c.13.16-.12.14-.2.12a.58.58,0,0,0,.52.35C96,494.44,95.64,494.31,95.62,494.14Z"/><path class="cls-1" d="M69.74,483.15l.11,0A.2.2,0,0,0,69.74,483.15Z"/><path class="cls-1" d="M140.42,521.26l-.2.12A.36.36,0,0,0,140.42,521.26Z"/><path class="cls-1" d="M73.68,485.14l.16-.24A.71.71,0,0,0,73.68,485.14Z"/><path class="cls-1" d="M147.28,499.29l-.05-.12A.61.61,0,0,0,147.28,499.29Z"/><path class="cls-1" d="M158.56,488a.54.54,0,0,0,.19.11h0Z"/><path class="cls-1" d="M186.26,460.19l-.11-.05.08.25A.38.38,0,0,0,186.26,460.19Z"/><path class="cls-1" d="M166.25,480.66s0-.06-.05-.09a3.65,3.65,0,0,0-.89.92l.26.25Z"/><path class="cls-1" d="M180.09,476.72l-1.28.46c2-3.11,3.6-4,5-6.88l0,.23c.41-.27-.74-1.44,3.88-4.3l.06,0c.09-.15,0-.24.34-.4l-.88.44a6.12,6.12,0,0,1,.53-1.7.47.47,0,0,1,.41,0l.91-1.44.69-.15c.11-.57-.83-1,.44-1.77-.87,0,.07-.8-.31-.87a4.52,4.52,0,0,0,.47-.1,7.36,7.36,0,0,0,1.13-2.61,29,29,0,0,1-4.18,2.05c.83-.83.11-.3-.21-.25l.09.16c-.54.47-.89.21-1.2.42l.11.06,0-.07c.08,0,.12.06.13.12s.12.12,0,.25v-.05a3.71,3.71,0,0,1-.63.79l-.29-.21c.24.83-2.9,2.17-3.34,2.71-.78.28-.85,1.31-1.55,1.87-.92,1-.84.24-1.5.6-.71.56.44.12.25.41l-1,.52c.33-.5,0-.38-.22-.37-.59.67-2,1.4-1.57,2.05-1,.76-1.23.58-1.58,1,.21-.06.52-.26.63-.17-.55.19-.08.23.1.12-.2.77-3.38,2.22-2.85,2.83l-.12-.09c.37.5,1,.63.93,1.24l-.42.11-.12.57c-.37.15-.39-.08-.44-.12a9,9,0,0,1-2,2.31l1.94.14c-.83.46-2.39,1.21-2.09,1.67l-.75.07c-1.89.71-.4,1.22-1.08,1.57l-1,.31.55-.67a9,9,0,0,1-1.87.93s0,0,0,0,.09,0,.12,0l-.07.1c.17.27,0,.74-.36,1.21-.61.62-.7,1.42-2,2.09l.25.65-.94.58-.37-.31c.67-.76,1.73-2.36,2.53-3.39l-.15-.16c-.49.6-.88,1.42-1.24,1.79-.23.13-1,.31-1-.25l.07.66a15.94,15.94,0,0,1-3.73,3.79l.34,0c-.23.5-.47,1-.87.86a10.19,10.19,0,0,1-3.54,2.69l.28.54c-.24.24-1.22.07-.73.71l-.28.72c-.34.33-.28.75-.87.95h0l-.11,0,0,0c-.87.64.4.32-.64,1-.56,0,.27.8-.22,1.16l-1-.08c-1,.5-.55,1.17-1.56,2.34-.71.37-1.46.18-1.6-.59.11,1,.16.55-.16,1.46-.32-.1-.31-.22-.39-.55-.79.36-.11.55-.52,1,.32.51.87,1.27.77,1.44l.29-.05a2.48,2.48,0,0,1-1.25,1.66l-.2-.22-.41.69-.31-.21-.66.92.17-.05a3.69,3.69,0,0,1-1.09,1.2l-.14-.15c-1.41.61-1.56,2-2.61,3.29l-.17-.45c-.68.14.38.55-.22.91l-.41-.33c.11.89-.61.47-1.07.59l.62.32-.62.46c-.73.46-1-.2-1.15-.53v.78l-.52-.32c.23.77-.36.23-.58,1-.21-.1-.18-.33-.42-.21l-.09.73,0,.36c0,.12,0,.15.08.22s0-.39.09-.64l.58.65a1.56,1.56,0,0,1-.1.5c0,.06-.06.07-.11.07s-.22-.07-.2.09a2.29,2.29,0,0,0-.09-.28c0,.34-.27,0-.43-.09.09.14.27.31.24.48s-.17-.27-.26-.33c.25.57.13,1-.14.74,0-.09,0-.17,0-.23,0,.11,0,.27-.13.13s0-.46,0-.69a4.62,4.62,0,0,1-.06.65c-.09-.19-.25.27-.22-.18l.06-.13a1.89,1.89,0,0,1-.28-.17l-.13-.09-.06-.05,0,0-.14-.07.18-.48c-.52.54-1.12-.81-1.41,0-.23-.63-1.83-.45-1.16-1.25-1.46-.75-2.66-.24-4.26-1.5-.3-1.07-2.17-1.62-3.3-2.23-2.41-.71-4-1.09-6.45-1.9-.9-1.71-3.64-1.21-4.87-2.5l-.6.24c-.69-1.14-2.59-1-3.69-2.3a2.75,2.75,0,0,1-.72,0c0,.05.11.17,0,.46-.31-.37-1.23-.5-.93-1h.13c.31-.52-1.33-.3-1.56-1l0,.69-.71-.44.25,0c-3.88-.21-4.52-2.73-8.15-3,.7-.44-.76.06-.48-.65-.38-1.23-1.53-.47-2.27-.53a.29.29,0,0,1-.11.11l-1.07-.59c1.06-.58-1.14.36-.19-.11-2.61-2-6.71-3-9.94-4.88l0,.3c-.83-.44-2-.65-2.5-1.3s-1.68-.07-2-.15c-.89.06-1.18-1-.9-.83-.81-.24-1.89.24-2.78-.58,0-.91-3.21-.58-2.86-1.44l-.05.07c-1.08-1.21-2.81-.78-4-2a.6.6,0,0,1,.13-.08l-4.12,1.2-.43,3.18L66.72,491l7.18,2.68L79,497.06l13.64,5.85,1.26-.19c2.15,2.31,6.13,2.59,8.63,4.68l.3-.52c.82.34.62.65.77.83,7.55,3.3,15.6,6.09,22,9.84.48.66,2.56,1.35,2.89,2a16.66,16.66,0,0,1,3.62,1,17.83,17.83,0,0,0,3.14,1.06,9.09,9.09,0,0,0,3.24.14l-.15.09a8,8,0,0,0,1.91-.65c.1,0,.13.08.09.15a31.11,31.11,0,0,0,3.29-2.59l.44-.4c.14-.14.29-.27.35-.32l.52-.42,1-.78v.11c6.34-6.72,11.14-13.89,17.68-20.33,3.49-2.63,5.6-7.3,9.29-10.59C174,485.62,179.8,477.6,180.09,476.72Z"/><path class="cls-1" d="M188.21,464.64l0,0C188.39,464.83,188.35,464.72,188.21,464.64Z"/><polygon class="cls-1" points="170.45 476.58 170.49 476.53 170.06 476.5 170.45 476.58"/><path class="cls-1" d="M178.17,466.24c-.41.41-.38.47-.25.47A.87.87,0,0,0,178.17,466.24Z"/><path class="cls-1" d="M190.65,460.5c.2-.24,0-.23-.24-.19l-.27.46C190.29,460.67,190.5,460.61,190.65,460.5Z"/><path class="cls-1" d="M187.15,459.5l-.11-.2C187,459.48,187,459.52,187.15,459.5Z"/></svg>