<svg id="Capa_1" data-name="Capa 1" xmlns="http://www.w3.org/2000/svg" viewBox="0 0 62.36 61.18"><defs><style>.cls-1{fill:#5da6bc;}</style></defs><path class="cls-1" d="M26.88,28.61a3.59,3.59,0,0,1-1.91.06l-6.78-1.12c-1-.18-2.41-.18-2.81.8A1.68,1.68,0,0,0,15.82,30a6.55,6.55,0,0,0,1.5,1c2.89,1.69,7.89,4.83,8.91,8C27.79,43.89,22.82,49,22,53.73a6.53,6.53,0,0,0-.14,1.92,2.16,2.16,0,0,0,.94,1.62c2,1.21,5.35-5.15,6.34-6.49a7.05,7.05,0,0,1,2.64-2.51c2.86-1.22,5.74,1.59,7.5,4.15S43.53,58,46.54,57.2c-.95-4.61-5.83-9-6.78-13.57a24.63,24.63,0,0,1-.39-9.82c.53-2.89,6.05-5.74,7.32-8.39a6.09,6.09,0,0,0,.71-2.09,2.09,2.09,0,0,0-.82-1.95,2.55,2.55,0,0,0-2.6.3,15.67,15.67,0,0,0-3.78,4c-.61.79-2.67,3.56-3.9,3.24-1-.26-1-3-1.14-3.82-.3-2.75-.17-6-2.37-8.1-2.44-2.28-7-1.29-8.52,1.68-1.44,2.77-.25,6.09,2,8C27.41,27.7,27.49,28.34,26.88,28.61Z"/><path class="cls-1" d="M26.58,27.93c-.06.13.14.29.18.21-.13-.18,0,0,0,0S26.52,27.79,26.58,27.93Z"/><path class="cls-1" d="M26.78,27.31c-.33-.1-.76-.06-.88.3.43-.08.35.05.85,0a.22.22,0,0,1-.06.39c.06,0,.06.06.06.1s0,0,.13.06.22-.19.15-.34a.66.66,0,0,0-.45-.35C26.58,27.34,26.71,27.33,26.78,27.31Z"/><path class="cls-1" d="M34.15,20.82v-.15A.35.35,0,0,0,34.15,20.82Z"/><path class="cls-1" d="M41.3,25.47c-.06.1-.06.16,0,.18S41.34,25.47,41.3,25.47Z"/><path class="cls-1" d="M43.14,23.87,43,24C43.09,23.93,43.14,23.91,43.14,23.87Z"/><path class="cls-1" d="M34.15,20.82c0,.13,0,.26,0,.39S34.16,21,34.15,20.82Z"/><path class="cls-1" d="M23.84,25.32a.74.74,0,0,0,.21.15l-.15-.17Z"/><path class="cls-1" d="M30.58,16.76l-.1,0a.47.47,0,0,0-.11.13A2.12,2.12,0,0,1,30.58,16.76Z"/><path class="cls-1" d="M26.51,17.55c.09,0-.05-.32-.09-.46a.35.35,0,0,1-.07.3A.8.8,0,0,0,26.51,17.55Z"/><path class="cls-1" d="M24.46,23.7l.1.11Z"/><path class="cls-1" d="M32.86,18.51a.22.22,0,0,0-.08.09A.18.18,0,0,0,32.86,18.51Z"/><path class="cls-1" d="M21.43,26.58v.05S21.47,26.58,21.43,26.58Z"/><path class="cls-1" d="M26.92,28.69l-.07,0a.85.85,0,0,0,0,.17Z"/><path class="cls-1" d="M45.68,22.7Z"/><path class="cls-1" d="M44.16,55.42a.69.69,0,0,1,.29.47c0,.13,0,.27.38.51-.08-.09-.1-.27-.21-.46A1.63,1.63,0,0,0,44.16,55.42Z"/><path class="cls-1" d="M23.8,25.17a1.28,1.28,0,0,1-.11-.2A.59.59,0,0,0,23.8,25.17Z"/><path class="cls-1" d="M44.83,56.4h0l.08,0Z"/><path class="cls-1" d="M41.79,28.57a.47.47,0,0,0,.17,0S41.89,28.56,41.79,28.57Z"/><path class="cls-1" d="M46.49,23.35l-.06.14A.33.33,0,0,0,46.49,23.35Z"/><path class="cls-1" d="M39.12,32.09c-.09.1-.16.09-.19.28l0,0C39,32.26,39,32.18,39.12,32.09Z"/><path class="cls-1" d="M38.15,36.66a.27.27,0,0,0,.07-.08v-.14Z"/><path class="cls-1" d="M19.24,33.81a1,1,0,0,1,0-.34C19.17,33.69,18.62,33.42,19.24,33.81Z"/><path class="cls-1" d="M24,25.22a.19.19,0,0,1-.19,0l.1.13C24,25.28,24,25.26,24,25.22Z"/><path class="cls-1" d="M41.18,33.5l-.21.35A1.79,1.79,0,0,0,41.18,33.5Z"/><path class="cls-1" d="M25.39,57.87l-.19.19A.49.49,0,0,0,25.39,57.87Z"/><path class="cls-1" d="M40.74,35.47a.85.85,0,0,0-.25.33.27.27,0,0,0,.07.08Z"/><path class="cls-1" d="M19.24,33.46h0Z"/><path class="cls-1" d="M14.26,31c.75.87.74.18,1.11.21,1.06.64.22.54.47,1a2.55,2.55,0,0,0,.59.2h.34a1,1,0,0,1,.57.11c0,.07,0,.13-.08.16.6,0,1.26.76,2,.72a.2.2,0,0,1,0,.13,1.19,1.19,0,0,1,.24-.53c.24.16.59.08.52.37-.14-.11-.21,0-.32,0l.31.07c0,.47-.42-.12-.57.13.55.21,1.29.33,1.58.68-.14.36-.91-.49-.63.12l-.48-.51c.09.8-.31-.26-.28.54.66.6.92.41,1.55,1,.29,0,.14-.29.43-.34,1.24.5.15,1.36,1.15,1.56.33,0,.75-.31,1,.34l-.46.14c.5.61.8-.08,1.1.76-.23,0-.5-.39-.47-.27.06.63.45.14.68.48l-.27.29.38.46a4.1,4.1,0,0,1,.36.49,2.52,2.52,0,0,1,.28.57,2,2,0,0,1,.19.64c-.12,0-.25-.17-.35,0a4.54,4.54,0,0,1-.83,3.37c.06.17.1.35.15.54s-.22.12-.23,0c-.29.39.18.1.22.36s-.31.26-.34.06A5.46,5.46,0,0,1,23,48v-.21c-.44.6.25,1-.32,1.52v-.15c-.82,1.4-1.22,3.17-1.91,4.41.21.16.08.54,0,1s-.07.89.27,1a4.32,4.32,0,0,0-.07,1.33,2.47,2.47,0,0,0,.89,1.6c.47.33.9.06,1.49,0l0,.35a2.71,2.71,0,0,0,.85-.51,3.25,3.25,0,0,0,.53.22,4.63,4.63,0,0,0,.54-.43c-.23.14-.53.14-.53,0a7.61,7.61,0,0,1,.62-.45,3.84,3.84,0,0,1,.56-.35c.32-.17.6-.26.67-.2a15.19,15.19,0,0,0,.77-1.41c.09.11,0,.35-.08.57.22-.87.39.1.58-.7-.12,0-.14-.17-.18-.22a3.23,3.23,0,0,0,1.12-1.43l.14.23c.66-.88,1.11-2.06,1.75-2.86-.33.26-.61-.06-.44-.36l.37.12c-.05-.31-.32.19-.27-.33.3-.31.5,0,.45.3l.21-.46c.1.05.07.17.16.28,0-.32.77-.3.67-.72l.08.07a3.86,3.86,0,0,1,.71-.47,1.5,1.5,0,0,1,.69-.19c0-.32.26-.22.52-.43a11.13,11.13,0,0,1,1.57,1.1c.51.17.29-.13.59-.13-.14.25.45.72,0,.62l1.84,1.57c0-.18,0-.33.08-.33.18.15.22.48.09.54l-.06,0a5.31,5.31,0,0,1,1.28,2.07,3.27,3.27,0,0,0,1.51,1.81l-.07,0a13.23,13.23,0,0,0,1.25.68c.68.54-.56-.13-.13.4a25.42,25.42,0,0,0,2.46,1,3.11,3.11,0,0,0,2,.08,2.77,2.77,0,0,0,1.1.15,5,5,0,0,0,.65-.07,2.46,2.46,0,0,0,.52-.14c-.22-.78-.49-1.56-.69-2.27a10.28,10.28,0,0,1-.33-1c-.05-.17-.08-.33-.11-.48a4.35,4.35,0,0,1-.11-.46l-.15.13c-.42-.42-.16-.58-.29-1-.12.12.07.57-.17.32a11.19,11.19,0,0,0-.6-1l-.5-.85c-.32-.58-.63-1.15-.93-1.73-.6-1.15-1.15-2.31-1.65-3.39-.37-.77-1.17.06-1.22-1.13l.46.11a5.09,5.09,0,0,1-1-2.26,16.61,16.61,0,0,0-.62-2.66c.1.1.21.08.23.25.22-.4-.15-1.35-.36-1.33,0-.28.19-.09.29-.26.12-.37-.41-.89-.15-1.1,0,0,.09.1.12.16-.15-.23,0-1.09-.3-.87.15-.64-.11-1.24.12-1.74-.32-.37.29-1.07-.18-1.25.25.07.4-.22.47-.51a1,1,0,0,0,0-.3,1,1,0,0,0,0-.34c.08.16.27-.16.39.06.17-.3.34-.66.09-.77.93-.19.78-1.56,1.69-1.34.85-1.15,1.83-2.17,2.74-3.22.31.41-1.09,1.07-.69,1.42.84-1,1.11-1.83,2.06-2.88.28-.27,0,.3,0,.46.19-.33.38-.65.56-1s.28-.58.43-.9a3.73,3.73,0,0,0,.36-2.16s.1.17.13.35c0-.33.06-.77-.17-.71a2.81,2.81,0,0,1,.08.31c-.17.25-.32-.07-.53-.38s-.48-.62-.57-.59c.39.07.32-.27.17-.6s-.36-.62.27-.57c-.19-.16-.49-.26-.54-.1-.22-.23-.29-.37.11-.31a1.44,1.44,0,0,0-1-.25,5.62,5.62,0,0,1-.9,0c0-.11.22-.16.36-.28a5.64,5.64,0,0,0-.87.35,5.55,5.55,0,0,1-.89.34c0-.07-.1-.12.11-.21-1.21.6-1.4,1.53-2.39,2.24-.11-.6-.39.19-.75,0l-.32.58.32-.07c-.37.43-.42,1-.81,1.29l.11-.43-.55.86.47-.36c-.16.57.46.28-.07.78.06-.15-.33.42-.69.49h0a1.16,1.16,0,0,1-.45.82c-.17,0-.3-.36-.41-.37.12.42-.74,1-.66,1.42a.49.49,0,0,0-.19-.31,2.72,2.72,0,0,1,.07.33c-.19,0-.22,0-.29-.17-.38.23.35.43-.24.57,0,0,0-.09.08-.19a2.55,2.55,0,0,1-.86.35c-.31,0-.5-.27-.54-.58.29-.5.27.3.47-.23a2.69,2.69,0,0,1-.49-.75A5.82,5.82,0,0,1,35.73,25l0,.22c-.61-.1.21-.86-.12-1.41.06.13.35.15.28.12a8.72,8.72,0,0,0-.64-2.79l.17.13a6.46,6.46,0,0,0-.27-1.81c-.2-.11-.27-.4-.42-.15a2.4,2.4,0,0,0-1-2.17,12.88,12.88,0,0,1-1.83-1.48c.17.06.47.07.33,0a6.05,6.05,0,0,0-1.3-.33c0,.28.12.2.32.47a1.64,1.64,0,0,1-.84.07c.56-.08.09-.41-.16-.6,0,.09-.06.16-.05.25-.61-.5-.15.48-1,.17l0-.13a6.34,6.34,0,0,1-.93.31c-.2-.28.31-.19.3-.44-.52.09-.82.73-1.32.6a5.89,5.89,0,0,1,.64-.37,1.12,1.12,0,0,0-1,0h0a7.07,7.07,0,0,0-.88.22h.25a1.27,1.27,0,0,1-.63.87,1.48,1.48,0,0,0-.69.9c.23-.9-.1-.29-.3-.57-.24.08-.55.29-.56.15,0,.27-.19.37-.35.52a.89.89,0,0,0-.26.72c-.11,0-.2.41-.41.21-.16.56.23-.05.33.06a4.75,4.75,0,0,1-.48,1.4,2.07,2.07,0,0,0,0,1.74c.32,1,.74,1.1,1.19,1.84-.05.34-.47-.08-.46-.09a1.74,1.74,0,0,0,.53,1.22c-.13,0-.16.08-.19.27.23.32.46,0,.61.51a1.39,1.39,0,0,1-.58-.07,9.48,9.48,0,0,0,1.15.85c-.06.22-.4,0-.61-.08.39.39,1.09.9,1.4.77l-.16-.3c.14.11-.11.26-.25.2-.5-.14-.38-.54-.31-.62l.27.18c.24-.65-.92-.88-1.23-1.5l.53,0a5.93,5.93,0,0,1-.65-.36c0-.19.24-.38.43-.15,0-.49-.33-.27-.24-.72,0,0,.05,0,.08,0s-.19-.22-.28-.34c.12,0,.29-.17.31.09,0-.75-.65-1.07-.34-1.41l0,.06c-.24-1-.37-.05-.8-.86a6.27,6.27,0,0,1,.88-.48l-.33-.14c0-.1.08-.31.21-.24-.14-.43-.16,0-.33-.23a2.62,2.62,0,0,0,.38-.87c.12-.29.25-.52.52-.43-.14-.29-.42.34-.3-.24.3.08.35-.06.4-.26s.13-.46.39-.54c.12.31-.24.53.23.36-.1-.27.09-.41.3-.51s.5-.13.62-.27c-.21-.35.6-.62,1.18-.92,0,.1,1.24-.14,1.81.05v.07c.1-.43.72-.32,1.18-.31a.49.49,0,0,1-.41.39l.38.07a.59.59,0,0,1,.52-.11l-.19.27c.45.13,1.13.08,1.5.69.25-.16.07-1,.83-.57-.09.13-.26.34-.45.24.06,0,.26.08.31.23l-.41,0c.15.32.29,0,.45.19-.17.14,0,.26-.16.34s-.07-.24-.2-.25a1,1,0,0,1,.18.79.24.24,0,0,1,.38,0c.29.47-.14.3-.09.62.2,0,.18.43.49.31.07.15-.08.24-.14.32.26.21.39,1.29.66.89v-.08l0,.05h0c.56.92.14,2.09.36,3.08h-.11a7.68,7.68,0,0,0,.47,1.77c0,.17-.16.44-.3.37.06.24.12.36.16.52a2.85,2.85,0,0,1,0,.77c-.14-.29-.18-.24-.19-.21s0,0,0-.33A2.11,2.11,0,0,0,35,28.36c-.37-.1,0,.87.31,1.05a2.34,2.34,0,0,1-.19-.62,2.5,2.5,0,0,0,.76.82l-.33.24a1.73,1.73,0,0,0,.49.32,2.19,2.19,0,0,0,2-.76c.5-.47,1-1,1.48-1.08.06-.44-.64.39-.63,0,.46-.39,1.27-.52,1.4-.66.68-.51,0-.95.67-1.51-.17,0-.51-.14-.24-.7s.87-.22.74.13c-.08.12-.15.14-.18.11-.08.18-.18.41.08.31l-.07-.14c.29-.14.75-.77.81-.49.16-.41-.06-.28-.31-.07.59-.45.69-.88,1.25-1.31-.13,0-.31,0-.24-.08.83-.63.13-.51.6-1,.43-.1.21.44.63-.1.4-.13.27.24.22.41a1,1,0,0,1,1.11-.39l-.15.17a.47.47,0,0,1,.26-.15,1.3,1.3,0,0,0-.18-.23c.14,0,.22,0,.23.11.06-.18-.16-.43,0-.7.12.11.53-.07.41.29-.16-.14-.18,0-.2.08s0,.24-.13.26.08,0,.1,0a.18.18,0,0,1,0,.08c-.09.35.29-.36.49-.06-.19.08-.32.23-.28.23s.29-.2.48-.09c-.1.34.15.36.12.57,0-.08.07-.15.09-.22.2.07.17.3.14.64-.15,0,0-.32-.13-.22.27.46-.57.66-.61,1.27-.24.19-.35-.12-.53,0a.43.43,0,0,1-.28.43.72.72,0,0,0-.42.44c.32,0,.3,0,.2.48a6.26,6.26,0,0,0,.49-.91,7,7,0,0,1-.08.76c.2-.26.28-.64.39-.75,0,.37,0,.31.25.31-.57.12-.35.86-.94,1.08l-.47-.47c-.74.34-.79,1.24-1.73,1.84l.34-.15c.07.3-.48.48-.68.79-.13-.19-.35-.1-.56-.1.13.11-.63.54-.4.94l-.58.13c-.76.57-.32,1.19-.95,1.82,0-.37-.42-.15-.13-.74-.22.22-.42.44-.31.54-.24.05-.28.89-.61,1.05,0,.18.21.33,0,.65a.09.09,0,0,1-.1,0c.08,0,0,.61.29.37-1,.82-.37,2.5-1,3.26.05.65.12,1.43.17,2-.07,0-.11,0-.1-.11-.16.82.66.46.51,1.37-.32.5-.24-.46-.35-.16-.72.2.22,1.09-.12,1.75l-.06-.14c-.18.51.45,1.1.54,1.85a.12.12,0,0,0-.11,0,9.86,9.86,0,0,1,1.18,2.07c-.34-.12-.26-.28-.48,0,.16.3.4-.24.71.34-.06.25,0,.75-.25.94l-.27-.58c-.24.47.35.77.44,1.09l-.18,0c.5.85.91.63,1.39,1.53l.06-.16c.67.25,0,.54.6.83l-.28.38A15.45,15.45,0,0,1,43.09,51a5.8,5.8,0,0,1-1.45-1c.19.31.69,1,1,1-.12-.1-.31-.19-.33-.35a2.58,2.58,0,0,1,1.37,1.17c-.79.35.79,1.68.42,2.45a.79.79,0,0,1,.37.55,2.08,2.08,0,0,1-.05.41s0,.1,0,.1c1.21.91-.11.06.83,1-.17.07-.28.06-.34,0a3.29,3.29,0,0,1-.86-.67c-.18-.3,0-.18-.07-.4s-.22-.43-.29-.67c.07.33,0,.43,0,.29a1.39,1.39,0,0,0,.12.44c-.14.15-.24-.09-.23-.26a1.41,1.41,0,0,0,0-.22c0-.06,0,0-.28-.14.1,0,.27,0,.31,0a4.28,4.28,0,0,1-.83-.59,2,2,0,0,0-1.1-.56c0-.12.08-.33.26-.19A14.66,14.66,0,0,0,40.47,52a5.39,5.39,0,0,1-1.17-1.53l.2,0c-.21-.18-.53-.15-.62-.51.06,0,.19,0,.12-.13a2.22,2.22,0,0,1-.87-.63l.35.08c-.86-1.16-1.94-1.12-3-1.55.26-.46-.85-1.1-1.56-1.24l0-.07a3.9,3.9,0,0,0-2.71.56,6.57,6.57,0,0,0-1.7,1.71,3.91,3.91,0,0,0-1.58,1.41A15.62,15.62,0,0,1,26.5,52c.19-.13.31.23.23.46-.26.21-.19.91-.54.62l.07-.09c-.51,0-.76.53-1.05.9l.43.42A4.12,4.12,0,0,0,24,55.73c-.1.25-.5.52-.5,0-.12.16-.24.1-.41.13l.23-.27a.81.81,0,0,1,0-.25v-.13a4.42,4.42,0,0,1,0-.52,1.34,1.34,0,0,0,.21.2c.07-.44-.83-.83-.73-1.34l.5,0c.21-1,1-1.73,1-2.84a.25.25,0,0,1,.12.29c.2-.44,1.11-1.6.45-1.73.38.18.53-1,.62-1.6l.25.22a1.92,1.92,0,0,1,0-1.38c.11-.13.29,0,.13.14.37-.44-.09-.51.33-1.07l.09.31c.24-.53.12-.53,0-.91s.44-1,.74-1a.74.74,0,0,1-.11-.82c.11,0,.15.12.16.19.45-1-.08-1.54.24-2.23a.24.24,0,0,0,.2-.12,5,5,0,0,1-.17,1.44c.28.06.44-.63.75,0a11.09,11.09,0,0,1-.51-2.26.48.48,0,0,1,.09-.11l0,.07a.63.63,0,0,0-.11-.43,2.28,2.28,0,0,0-.05-.59c.24-.14-.13-.87-.29-1.22-.27.16-.44-.26-.47.23,0-.06.07,0,.16.26a1.46,1.46,0,0,0,.09.13l0,0a4,4,0,0,1,.27.83,1.16,1.16,0,0,1-.4-.87c-.25-.09-.52-.17-.66-.21.22-.59-.1-1.48,0-1.74-.76-.73-1.68-1.7-2.53-1.64-.25-.13-.12-.34-.14-.48.16.06.29.19.41.19-.5-.26-1.28-1-1.63-.74-.42-.56.53-.07-.25-.58l.18,0c-1.12-1.64-3-.8-4.27-2.55.09.12.14.18.13.25l-.42-.33-.36-.25c-.18-.12-.37-.22-.55-.36a1.23,1.23,0,0,1-.55-1.24c.22-.61,1.11-.61,1.59-.32a.32.32,0,0,0,.35,0,2.65,2.65,0,0,1,.47-.22l.08.36.71-.28c1-.13,1.46,1.09,2.72.74l-.11-.25c.41.11,1.35.09,1.24.34.05,0,.17-.21.32-.07l0,.18L24.69,29c.39.13.35.3.34.46s0,.35.73.41a2.27,2.27,0,0,0,1-.36c.31-.2.47-.46.33-.46s-.58,0-.61-.13a2.42,2.42,0,0,0,.4-.19,2.62,2.62,0,0,0-.23-.75c-.15-.21-.18-.41-.49-.56a2.22,2.22,0,0,1-.51.31l-.16-.28a3.54,3.54,0,0,0,.45,0c-.22-.24-.4-.05-.62.06a.39.39,0,0,0-.22-.31l-.74.38c0-.22.36-.35-.07-.54-.35.18.23.51-.31.57-.29-.29-.16-.46-.58-.33,0-.14.07-.21.23-.24-.37.1-.91-.09-1.13.16-.29-.35-1.16-.11-1-.6a2,2,0,0,1-1,.26c.67-.5-1.16-.23-.91-.84a.81.81,0,0,1-.47.2h-.28a2.73,2.73,0,0,1-.4,0,3.81,3.81,0,0,0-2,.16s.12-.15.24-.14a11.48,11.48,0,0,0-1.39.1c.23.37-.47.92-.41,1.47-.35.21-.43.09-.47-.13s0-.48-.25-.48c.15.07.08.36,0,.64s0,.68.18.58c-.32.5-.15.44-.51.71.58.12.18.56.75.93a.69.69,0,0,1-.06.55c0,.08,0,.18.41.51C15.11,31.58,14.24,31,14.26,31Zm11.39,9.52h0c0-.11,0-.21,0-.27S25.62,40.33,25.65,40.47Zm0,1.11a3.48,3.48,0,0,0,0-.49c.12,0,.23,0,.22.13C25.84,41.15,25.76,41.42,25.66,41.58Zm1.83-3c.13.23.07.32,0,.37a1.51,1.51,0,0,0-.15-.39l-.05,0A.37.37,0,0,1,27.49,38.57Z"/><path class="cls-1" d="M26.94,38.31l-.06-.09c0,.06,0,.11,0,.16l.13,0Z"/><path class="cls-1" d="M34.16,20.64v0l0-.06S34.17,20.63,34.16,20.64Z"/><path class="cls-1" d="M23.28,58.86v-.08a.6.6,0,0,1-.19.06Z"/><path class="cls-1" d="M30.2,15.22a.15.15,0,0,0-.09-.09S30.15,15.18,30.2,15.22Z"/><path class="cls-1" d="M26.92,15.58a3.86,3.86,0,0,0-.49.09Z"/><path class="cls-1" d="M24.64,16.85a.37.37,0,0,0,.06.14h0Z"/><path class="cls-1" d="M48.62,23.41a.48.48,0,0,0,0,.12C48.64,23.83,48.65,23.63,48.62,23.41Z"/><path class="cls-1" d="M39.55,25.79a2.22,2.22,0,0,1,.09-.37C39.5,25.56,39.41,25.67,39.55,25.79Z"/><polygon class="cls-1" points="41.22 33.46 41.21 33.45 41.18 33.5 41.22 33.46"/><path class="cls-1" d="M40,25a.84.84,0,0,0-.31.4A1.31,1.31,0,0,0,40,25Z"/><path class="cls-1" d="M25.26,27.15l.09.09,0,0Z"/><path class="cls-1" d="M25.39,27.22l.13.06C25.47,27.24,25.43,27.2,25.39,27.22Z"/><path class="cls-1" d="M25.78,27.41l-.26-.13C25.59,27.35,25.69,27.45,25.78,27.41Z"/><path class="cls-1" d="M23.43,24.27h-.12A.24.24,0,0,0,23.43,24.27Z"/><path class="cls-1" d="M23.05,23.29c.05.24-.05.69.17,1h.09C23.08,24.18,23.3,23.46,23.05,23.29Z"/><path class="cls-1" d="M24.54,19.44a6.4,6.4,0,0,0-.29.65c.15-.1.34-.2.3.1C25.13,19.48,24.21,20.29,24.54,19.44Z"/><path class="cls-1" d="M25.9,17.81c-.22.3.12.13.15.2C26.15,17.79,26.18,17.73,25.9,17.81Z"/><path class="cls-1" d="M34.51,26l-.29,0C34.29,26.34,34.33,26,34.51,26Z"/><path class="cls-1" d="M36.67,27.94a1.07,1.07,0,0,1-.06-.31,3.2,3.2,0,0,1-.22.27A.44.44,0,0,0,36.67,27.94Z"/><path class="cls-1" d="M38.72,29.28l-.17.19a8.3,8.3,0,0,0,.64-.69C39,29,38.88,29.12,38.72,29.28Z"/><path class="cls-1" d="M37.92,35.85l.36-.07C38.23,35.54,37.84,35.46,37.92,35.85Z"/><path class="cls-1" d="M41,48.58a.57.57,0,0,0,.28.68C41.16,49,41.13,48.68,41,48.58Z"/><polygon class="cls-1" points="24.92 54.5 24.97 54.24 24.77 54.65 24.92 54.5"/><path class="cls-1" d="M46.18,15.09l1.23-5.37"/><path class="cls-1" d="M48.14,9.88a1.39,1.39,0,0,0-.27-.05l.37.09Z"/><path class="cls-1" d="M47.46,9.78c.17.05.48.13.81.2l-.61-.16s.12,0,.25,0c-.09,0,.09,0-.14-.06s-.3,0-.07,0Z"/><path class="cls-1" d="M46.71,10.41h0Z"/><path class="cls-1" d="M46.41,10.84l-.08,0Z"/><path class="cls-1" d="M46,10.83h0Z"/><path class="cls-1" d="M46.71,10.41H46.6C46.72,10.43,46.69,10.41,46.71,10.41Z"/><path class="cls-1" d="M48.31,10.09l-.09,0h0Z"/><path class="cls-1" d="M46.47,10.14h0l-.15,0Z"/><path class="cls-1" d="M46.45,10l.43.1L46.67,10Z"/><path class="cls-1" d="M47.05,9.84l0,0Z"/><path class="cls-1" d="M46.37,10.24l-.11,0Z"/><path class="cls-1" d="M47.68,15.23h0Z"/><path class="cls-1" d="M46.1,15.07h0l-.18,0Z"/><path class="cls-1" d="M45.56,10.88h0S45.53,10.88,45.56,10.88Z"/><path class="cls-1" d="M45.48,12.29c.28.05.34.11.66.15C46,12.42,45.66,12.31,45.48,12.29Z"/><path class="cls-1" d="M48.27,10.08h0S48.28,10.09,48.27,10.08Z"/><path class="cls-1" d="M46.14,12.44Z"/><path class="cls-1" d="M45.67,11.27l.13,0Z"/><path class="cls-1" d="M46.16,11.11h0Z"/><path class="cls-1" d="M46.07,11.5h0S46,11.49,46.07,11.5Z"/><path class="cls-1" d="M46,11.64h0Z"/><path class="cls-1" d="M47.62,14.78l-.28,0C47.56,14.77,47.64,14.81,47.62,14.78Z"/><path class="cls-1" d="M48.14,10.05l.13,0h0Z"/><path class="cls-1" d="M48.51,12.06h0Z"/><path class="cls-1" d="M47.8,13.79l0,0Z"/><path class="cls-1" d="M48.49,12.15l-.22,0,.08,0Z"/><path class="cls-1" d="M47.34,14.73Z"/><path class="cls-1" d="M48,15a5.67,5.67,0,0,0-.63-.16c-.11-.05.3,0,.51.09-.1,0-.47-.13-.45-.14l.17,0c-.32-.09,0,0-.4-.17l.1,0-.56-.13s-.25-.08,0,0l.18.05-.11,0a3.5,3.5,0,0,1,.41.1c-.12,0-.43-.14-.32-.13.38.09.12.07.46.12h-.15c.59.12,0,0,.59.13.12,0-.18-.07-.07-.08-.2-.05-.3-.06-.51-.12-.36-.13.95.18.46,0-.25-.07-.72-.18-.47-.14l.42.1s-.6-.15-.31-.12.13.06.19.06c.33.06-.24-.07-.24-.08l.38.08c-.05,0-.32-.14-.38-.19l.35.08c-.18-.08.06-.08.29-.07l-.32-.09.21.05c.13,0-.2-.05-.33-.09l.29.06c-.27-.09-.57-.22-.22-.17l.09,0c.14,0-.65-.18-.35-.13l.06,0c.15,0-.13-.14.36-.07-.46-.11.22,0-.42-.15a5.26,5.26,0,0,0,.66.08s-.4-.1-.46-.13l.34.07-.36-.1.41.09-.08,0-.25-.05c-.15-.06.24,0,.42,0l-.28-.11a1.83,1.83,0,0,1,.27.08c-.34-.11.36.08,0,0l-.27-.06c.21,0,.22,0,.14,0l.23.06c.07,0-.1-.1-.08-.14a4.28,4.28,0,0,1-.56-.13l.36.08c-.22-.06-.13,0-.4-.1l.52.12-.12,0,.3.07c-.22-.06.37.05,0-.05l.11,0s-.11-.09-.12-.12a4.21,4.21,0,0,1-.48-.14c.1,0,.35,0,.33,0a4,4,0,0,0-.44-.12c.28.06.26,0,.46.09,0,0,0,0-.27-.15l-.26,0s.12,0,.26,0h0c-.42-.15.84.08.26-.09h0l-.3-.11c.06,0,.21.06.39.09-.46-.15.08,0-.22-.16.84.17,0-.11.5,0l-.19,0c-.19-.06.11,0,.16,0l-.29-.06c-.21-.13.33-.09.52-.14s-1-.24-.53-.17l.36.09c-.42-.16,0-.12-.31-.26l.19.05c.26,0,0,0-.2-.09a2.24,2.24,0,0,1,.31.06c.16,0-.33-.11-.07-.06l.11,0c-.13,0,0,0-.27-.09.15,0-.12-.07.06-.05-.33-.09.18,0-.3-.11.49.11.41.05.17,0l.37.08s-.09-.05-.35-.11c.6.11-.46-.17.3,0a4.37,4.37,0,0,1-.53-.26c.49.11,0,.06.56.17-.2-.08-.62-.21-.49-.22l.3.08c-.2-.09.06-.07-.2-.17l.13,0s.08,0-.15-.05l.06,0c-.33-.06-.67-.18-.85-.22.65.16.17,0,1,.21a1.61,1.61,0,0,0-.3-.08l.3.06c-.11,0-.36-.09-.35-.12l.28.07c-.21-.06-.42-.12-.32-.11l.15,0s-.56-.18-.34-.17c.47.12.16,0,.57.11l-.12,0-.2,0s-.29-.1-.15-.09l.17.06-.07-.05-.16,0c-.21-.07-.52-.12-.4-.11a.85.85,0,0,1,.25,0h0c-.13,0-.26-.08-.16-.07l.54.12c-.34-.08-.08-.06-.45-.15l.35.08L47.59,11l.31.06c.05,0-.53-.11-.29-.09l.1,0c.12,0-.16-.1,0-.09.42.09.1,0,.45.12-.07-.06-.48-.2-.37-.21h-.05c-.58-.14.29,0,0-.05l.26.07c.1,0-.13-.09-.31-.17l.15,0c.14,0,.09,0,.16,0l-.34-.09c.86.15-.44-.2.28-.08a.33.33,0,0,0,.13,0l-.13-.07-.35-.07a.72.72,0,0,1-.26-.08c.16,0,.41.09.55.12l-.24-.06c.45.09-.51-.12-.2-.08l.13,0c-.07,0-.24-.08-.2-.08.29.06.13,0,.38.1,0,0-.55-.16-.26-.11l.16.06c.35.07.26,0,.32,0h.15l-.09,0c-.76-.19-.13-.07-.63-.21.47.13.28.07.61.15a1.47,1.47,0,0,1,.29.05c-.26-.07.22,0-.17-.08a2,2,0,0,1,.28.05c-.08,0-.19,0-.32-.07-.36-.1.46,0,0-.1-.2-.08-.56-.17-.73-.24a3.69,3.69,0,0,1,.39.1c.16,0,.13,0,0,0A1.76,1.76,0,0,0,48,10s-.39-.09-.23-.07l.43.11-.39-.13.4.1a2.35,2.35,0,0,0-.45-.15h-.11l.31.07c.23.07-.11,0-.22,0l-.06,0c-.63-.14.09.06,0,.07l-.46-.11.38.1a3.42,3.42,0,0,1-.45-.1c-.23,0,.16.05-.09,0l-.08,0,.13,0-.25-.06c-.27,0,.33.12,0,0h0c.15.07.34.08.73.19l-.83-.17.33.08-.17,0c.22.07.14,0,.36.09-.31,0,.13.08-.41,0,.26.07.21,0,.38.09-.58-.13.09,0-.18,0a3.89,3.89,0,0,0-.4-.1c.5.13-.12,0,0,0,.4.1.16.07.29.12-.14,0-.23,0-.38,0h-.07c.4.09.32.1.4.13l-.44-.11h0l.24.08-.3-.08s.34.12.14.1c.28.07.78.16,1,.23L47,10.35s.13,0,.06,0l-.25-.07c-.12,0,.21,0,.18.06l-.32-.07s.09,0,0,0l-.34,0a1.28,1.28,0,0,1,.32.08s-.26-.06-.37-.07a1.58,1.58,0,0,0,.31.09l-.24-.05a1,1,0,0,0,.38.13h0c.32.1-.2,0-.06.09l-.11,0a1.18,1.18,0,0,0,.29.13,2.12,2.12,0,0,1-.33-.06c.08,0,.2.06,0,0s-.17,0-.14,0-.27,0,0,.06c-.28-.08-.35-.07-.27,0l.2,0s0,0,0,0L46,10.54c-.45-.06.74.24,0,.1.25.07.18,0,.48.1,0,0-.58-.09-.58-.09-.21,0,.52.15.38.14l.6.15a5.43,5.43,0,0,1-.66-.13h.08a1.24,1.24,0,0,0-.24-.07l.13,0c-.14,0-.13,0-.34,0a1.42,1.42,0,0,0,.28.06c-.19,0,0,0-.15,0a1,1,0,0,1,.23.05c-.17,0,.24.07.29.11-.2,0-.47-.12-.31-.06a2.51,2.51,0,0,1-.45-.1c.25.08-.18,0-.23,0l-.1,0,.06,0,.26.05a.36.36,0,0,1-.16,0c.17.05.44.09.67.16-.14,0,.13.06-.21,0,.12,0-.35-.08-.4-.12s0,0,0,0l-.09,0c-.32,0,.39.11.37.13L45.6,11a3.89,3.89,0,0,1,.47.11c-.15,0,.11,0,.09,0h.08a.6.6,0,0,1,.22.08,1.47,1.47,0,0,0-.17,0c.34.09-.36-.05-.13,0l-.46-.1c.25.08-.27,0-.07,0a3.31,3.31,0,0,1,.45.12l-.17-.08.37.11s-.16-.07-.11-.06l.36.09c-.39-.08.23.08,0,0l-.65-.15c-.3,0,.32.12.15.12l.11,0c.26.06,0,0,.14.06l-.44-.09a2,2,0,0,0,.41.13l-.29-.05c-.12,0,.62.17.54.18a5.67,5.67,0,0,1-.56-.14s0,0,.1,0c-.13,0,.29.1.08.06l.3.08-.1,0a3.68,3.68,0,0,0,.38.09c-.68-.12,0,.1-.55,0,.06,0,.13.07.14.1l-.09,0c-.2,0,.62.16.39.14s-.18-.06-.32-.08c-.71-.16.09.05-.33,0l0,0c-.25,0,.26.1.2.11l-.1,0a3.69,3.69,0,0,1,.57.2l-.43-.1s.45.1.53.14c-.16,0-.29,0-.6-.11v0c-.39-.07,0,0-.06,0l-.17,0s.48.14.44.16l.13,0c.42.12-.25,0,.07.05L46,12.07a4.65,4.65,0,0,1,.49.17c-.32-.08-.48-.14-.67-.2,0,0,0,0,.24.1,0,0-.15-.05-.08,0,.34.1.5.15.49.17-.84-.19-.22,0-.88-.12.3.11-.15,0-.11.11.65.13,0,0,.68.17.05,0,0,0,0,0l-.41,0c-.2,0-.15-.05-.3-.08s-.28-.06-.47-.08c.24,0,.35.08.25.08l.32,0c.35.11-.58-.1-.23,0l-.21-.06c.12,0,0,.07.52.21l-.31-.07c-.09,0,.55.22.21.18l-.16,0s.31.08.14.05l-.18,0c.06,0,.29.09.19.08l-.18,0c-.23,0,.43.16.54.22a3.12,3.12,0,0,0-.73-.11l-.07,0c-.07,0,.38.17.56.26-.53-.09-.24,0-.54,0l.42.1c-.1,0,.33.11-.12,0h0c-.43-.09-.32,0-.34,0l.58.14c-.85-.15.29.18-.48,0,.15,0,.14.06.29.1l-.32-.07c-.08,0-.12,0-.06.07l-.22-.06s.89.23.91.25l-.47-.1s-.42,0,0,.11l-.22-.06s-.33,0,.31.14c-.42-.1,0,0,.13.08l-.31-.07a4.43,4.43,0,0,1,.6.18l-.17,0c-.16,0,.29.08.12.06l-.19-.05s.08,0,.3.1-.08,0-.36-.05c.17,0,.39.1.31.1l-.2,0c-.22,0,.35.12,0,.07l-.18,0s0,0,0,0c-.28-.07-.33-.06-.72-.17.21.07.67.2.53.19l-.1,0h0s0,0,0,0h-.09c-.23-.05-.13,0-.14,0,.31.07.25.07.51.12l0,0h0a0,0,0,0,1,0,0c.15,0,.28.09.11.06l.49.13L45.11,14a2.17,2.17,0,0,0,.68.25c.07,0-.17,0-.26,0a.89.89,0,0,0-.13,0,1.45,1.45,0,0,0,.45.16c-.19,0-.37-.1-.31,0l-.13,0c-.66-.09,1,.33.17.2l.15,0c-.39,0,.31.23-.29.17-.12,0,.13.06.33.11l-.33-.07.37.11c.28.09-.82-.13-.3,0l.22.05s.13.07-.13,0c0,0,.23.06.11,0l-.17,0,.29.1c-.13,0-.69-.16-.73-.13a5.06,5.06,0,0,0,.61.18A1.14,1.14,0,0,1,46,15l.09,0c.51.12,1,.25,1.39.3l-.3-.09.25.05v0c.23,0,0,0-.11-.05l.27.05-.48-.13c.2,0,.4.1.51.11-.23-.06-.45-.09-.6-.14.24,0,.43.08.23,0l.27.07a1.73,1.73,0,0,0-.33-.12c.29.06-.06-.05.42.06l-.39-.12c.57.15,0,0,.66.12-.52-.14-.22-.11-.5-.2l.09,0,.31,0c-.43-.1-.53-.14-.79-.21.42.08.5.12.91.21-.35-.08-.35-.11-.64-.17l.49.09c-.54-.12-.09,0-.42-.12.27,0,.51.11.35.06A1.9,1.9,0,0,1,48,15Zm-.82-.7h0Zm0,0h0L47,14.26Zm-2.16-.41h.08l0,0h0Z"/><path class="cls-1" d="M45.46,14h.1l-.1,0Z"/><path class="cls-1" d="M46.77,10.42h0Z"/><polygon class="cls-1" points="47.94 13.87 47.87 13.85 47.93 13.87 47.94 13.87"/><path class="cls-1" d="M47.88,10.44h0Z"/><path class="cls-1" d="M48,10.36h0Z"/><path class="cls-1" d="M48.14,10.32l-.13,0h0Z"/><path class="cls-1" d="M48.23,11.58h0Z"/><path class="cls-1" d="M47.59,11.07l.14,0S47.77,11.11,47.59,11.07Z"/><polygon class="cls-1" points="48.52 12.06 48.51 12.06 48.51 12.06 48.52 12.06"/><path class="cls-1" d="M47.73,11.13c.06,0,.05,0,0,0S47.68,11.11,47.73,11.13Z"/><path class="cls-1" d="M48.35,10h0Z"/><path class="cls-1" d="M48.32,10l0,0Z"/><path class="cls-1" d="M48.21,10l.07,0Z"/><path class="cls-1" d="M48.19,10.09l.11,0Z"/><path class="cls-1" d="M48.21,10.13s.25,0,.18,0l-.09,0C48.47,10.16,48,10.08,48.21,10.13Z"/><path class="cls-1" d="M46.8,9.94h.1a1.45,1.45,0,0,1-.31-.07C46.22,9.81,46.86,9.92,46.8,9.94Z"/><path class="cls-1" d="M46.61,10a1.4,1.4,0,0,0-.24-.06Z"/><path class="cls-1" d="M46.48,10.54l-.28-.07Z"/><polygon class="cls-1" points="47.91 10.98 48.09 11.01 47.83 10.94 47.91 10.98"/><polygon class="cls-1" points="45.89 10.58 45.85 10.57 45.95 10.61 45.89 10.58"/><path class="cls-1" d="M45.77,11.55l.35.07C46.06,11.6,45.67,11.51,45.77,11.55Z"/><path class="cls-1" d="M46,12c-.17,0-.28,0-.12,0Z"/><polygon class="cls-1" points="45.19 13.13 45.08 13.09 45.17 13.13 45.19 13.13"/><path class="cls-1" d="M35.92,10.88l.58-5"/><path class="cls-1" d="M37.25,6,37,6l.37,0Z"/><path class="cls-1" d="M36.55,6l.84.11L36.76,6s.12,0,.25,0c-.09,0,.09,0-.15,0s-.3,0-.06,0Z"/><path class="cls-1" d="M35.89,6.59h0Z"/><path class="cls-1" d="M35.64,7h0Z"/><path class="cls-1" d="M35.22,7h0Z"/><path class="cls-1" d="M35.89,6.59h0Z"/><path class="cls-1" d="M37.44,6.15l-.1,0h.1Z"/><path class="cls-1" d="M35.61,6.36h0l-.15,0Z"/><path class="cls-1" d="M35.57,6.21l.44,0-.21,0Z"/><path class="cls-1" d="M36.16,6h0Z"/><path class="cls-1" d="M35.53,6.46h0Z"/><path class="cls-1" d="M37.42,10.88h0Z"/><path class="cls-1" d="M35.84,10.87h0l-.18,0Z"/><path class="cls-1" d="M34.8,7.12h0Z"/><path class="cls-1" d="M34.89,8.4c.28,0,.35.07.67.09C35.44,8.47,35.07,8.41,34.89,8.4Z"/><path class="cls-1" d="M37.39,6.15h0S37.41,6.15,37.39,6.15Z"/><path class="cls-1" d="M35.56,8.49Z"/><path class="cls-1" d="M35,7.46h0Z"/><path class="cls-1" d="M35.43,7.28h0Z"/><path class="cls-1" d="M35.38,7.63s-.07,0,0,0h0S35.33,7.63,35.38,7.63Z"/><path class="cls-1" d="M35.37,7.76h0Z"/><path class="cls-1" d="M37.31,10.48l-.28,0C37.25,10.48,37.33,10.5,37.31,10.48Z"/><path class="cls-1" d="M37.26,6.13l.13,0h-.13Z"/><path class="cls-1" d="M37.87,7.93h0Z"/><path class="cls-1" d="M37.37,9.56h0Z"/><path class="cls-1" d="M37.86,8l-.22,0h.22Z"/><path class="cls-1" d="M37,10.45h0Z"/><path class="cls-1" d="M37.76,10.67a5.42,5.42,0,0,0-.65-.09,4.65,4.65,0,0,1,.52,0c-.1,0-.48-.08-.47-.09l.18,0c-.32-.05,0,0-.42-.11H37l-.56-.06s-.26-.05,0,0l.18,0-.12,0a2.58,2.58,0,0,1,.43.06c-.13,0-.45-.09-.34-.09.38,0,.13,0,.47.06h-.15c.6.05,0,0,.6.07.11,0-.19-.06-.08-.07l-.52-.07c-.37-.08,1,.08.46,0-.25,0-.74-.1-.48-.09l.43.06s-.62-.09-.32-.08a.67.67,0,0,1,.19,0c.34,0-.24,0-.24-.06l.38,0c-.06,0-.33-.1-.4-.14a2.21,2.21,0,0,0,.35,0c-.18-.06.06-.08.29-.09L37.27,10l.22,0c.12,0-.21,0-.34,0l.29,0c-.28-.06-.59-.14-.24-.13l.1,0c.13,0-.67-.1-.36-.09H37c.15,0-.14-.12.36-.09-.48-.07.21,0-.45-.11a6,6,0,0,0,.68,0s-.42-.07-.48-.09l.34,0-.36-.06.42,0-.09,0-.26,0c-.15,0,.25,0,.43,0l-.29-.07c.14,0,.18,0,.27,0-.35-.06.37,0,0,0l-.28,0c.21,0,.22,0,.13,0l.24,0c.06,0-.11-.08-.1-.11A5.3,5.3,0,0,1,37,9.28l.36,0c-.22,0-.14,0-.41-.05a4.5,4.5,0,0,1,.53.06l-.12,0,.3,0c-.22,0,.37,0,0-.05l.11,0s-.12-.07-.13-.1c-.32,0-.25,0-.5-.08.1,0,.35,0,.33,0s-.27,0-.45-.07a4.14,4.14,0,0,1,.46,0s0-.05-.28-.11l-.26,0,.26,0h0c-.43-.09.84,0,.25-.11h0l-.31-.07c.05,0,.22,0,.4,0-.48-.09.07-.05-.24-.12.85.07-.05-.1.49-.07l-.2,0c-.19,0,.12,0,.16,0l-.28,0c-.24-.1.31-.12.49-.17s-1-.14-.55-.12l.37.06c-.43-.11,0-.12-.34-.21l.2,0c.27,0,0,0-.21-.07a2.86,2.86,0,0,1,.32,0c.16,0-.34-.07-.08,0h.11c-.13,0,0,0-.27-.06.15,0-.14,0,0,0-.35,0,.17,0-.32-.07.51.06.41,0,.18,0,.15,0,.16,0,.37,0a1.06,1.06,0,0,0-.36-.06c.61,0-.48-.12.3,0a4.86,4.86,0,0,1-.56-.19c.5.06,0,0,.57.11-.2-.06-.63-.14-.51-.16a2,2,0,0,1,.31,0c-.21-.07.05-.07-.22-.14l.14,0s.07,0-.16,0l.06,0c-.33,0-.69-.11-.87-.13.66.09.17,0,1,.1l-.3,0,.31,0c-.12,0-.37-.06-.36-.08l.28,0c-.21,0-.43-.07-.33-.08l.15,0s-.57-.12-.36-.13c.48.07.16,0,.58.06l-.12,0h-.21s-.29-.07-.15-.07l.17,0-.08,0H37c-.21,0-.53-.06-.41-.07a1.51,1.51,0,0,1,.26,0h0c-.13,0-.27,0-.17,0l.55.06c-.34,0-.09,0-.46-.1l.35,0-.28,0,.31,0s-.53,0-.3,0H37c.12,0-.18-.07,0-.08.42.05.1,0,.45.07-.07,0-.49-.13-.39-.15h0c-.59-.08.3,0,0,0l.26,0c.1,0-.14-.06-.32-.12l.15,0c.14,0,.09,0,.16,0a2.24,2.24,0,0,0-.35,0c.87,0-.46-.14.27-.1a.3.3,0,0,0,.13,0l-.13,0-.36,0-.27,0c.17,0,.41,0,.56.06l-.25,0c.46,0-.52-.07-.21-.05h.14c-.07,0-.25,0-.21-.05.3,0,.14,0,.39.06,0,0-.57-.1-.27-.08l.17,0,.32,0h.06c-.78-.11-.14-.06-.65-.14a5.81,5.81,0,0,0,.62.08l.3,0c-.28,0,.21,0-.18-.06.11,0,0,0,.28,0a2.11,2.11,0,0,0-.33,0c-.37-.06.46,0,0-.09-.2,0-.57-.1-.75-.15a3.21,3.21,0,0,1,.4.06c.16,0,.13,0,0,0l.3,0s-.4,0-.24,0l.44.06-.4-.08.41.06a1.9,1.9,0,0,0-.47-.1h-.11l.32,0c.23,0-.11,0-.22,0L36.8,6c-.64-.06.1.05.06.06L36.4,6l.38.07A4.14,4.14,0,0,1,36.33,6c-.23,0,.16,0-.09,0h-.08l.13,0L36,6c-.27,0,.35.08,0,0h0c.16,0,.35,0,.75.11l-.85-.08.34,0a.6.6,0,0,1-.18,0l.37,0c-.31,0,.14.06-.4,0,.26,0,.2,0,.38.05-.59-.07.1,0-.17,0a3.5,3.5,0,0,0-.41,0c.51.07-.12,0,0,0,.4,0,.16,0,.3.08-.14,0-.23,0-.38,0h-.07c.41,0,.33.06.42.09l-.46-.07v0l.25,0-.31,0s.36.08.15.08c.29,0,.8.08,1,.12a3.63,3.63,0,0,1-.48-.06s.13,0,.06,0l-.26,0c-.12,0,.22,0,.19,0l-.33,0s.09,0,0,0a2.19,2.19,0,0,1-.34,0l.33,0a3.33,3.33,0,0,1-.38,0c.15,0,0,0,.32,0l-.25,0a1.15,1.15,0,0,0,.39.08h0c.33.07-.19,0-.06.09h-.11a1.55,1.55,0,0,0,.31.09l-.33,0c.08,0,.2,0,0,0s-.18,0-.14,0-.28,0,0,0c-.28,0-.36,0-.27,0h.2s0,0,0,0l-.37,0c-.46,0,.76.16,0,.1.26,0,.18,0,.49,0,0,0-.59,0-.59,0-.21,0,.54.08.4.09.13,0,.48,0,.61.08A6.12,6.12,0,0,1,35.48,7h.08a1.4,1.4,0,0,0-.25,0l.13,0a2.14,2.14,0,0,1-.34,0,1.13,1.13,0,0,0,.29,0c-.2,0,0,0-.14,0l.22,0c-.16,0,.25,0,.31.08-.2,0-.48-.07-.32,0L35,7.05c.26,0-.17,0-.22,0l-.1,0c.06,0,.06,0,0,0l.27,0a.49.49,0,0,1-.16,0l.68.09c-.13,0,.14,0-.21,0,.12,0-.35,0-.41-.07s0,0,0,0H34.8c-.32,0,.4.06.39.08l-.34,0a3.32,3.32,0,0,1,.48.06c-.15,0,.12,0,.1,0h.07a2.42,2.42,0,0,1,.24.05l-.18,0c.35,0-.36,0-.13,0l-.47,0c.26.06-.27,0-.06,0l.46.06-.18,0,.38.06s-.16,0-.12,0a2.32,2.32,0,0,0,.38.05c-.41,0,.23.06,0,0l-.66-.08c-.3,0,.34.09.17.1h.11c.26,0,0,0,.14,0l-.44,0a4.19,4.19,0,0,0,.42.08l-.29,0c-.12,0,.63.1.55.12-.24,0-.4,0-.57-.08,0,0,0,0,.11,0-.14,0,.3.06.09,0,.09,0,.32,0,.3.05h-.11c.11,0,.15,0,.4.05-.7-.05,0,.08-.56,0l.16.08H35.5c-.21,0,.63.09.4.09a2.13,2.13,0,0,1-.33,0c-.72-.08.1,0-.33,0h0c-.25,0,.27.07.22.09l-.11,0a3.29,3.29,0,0,1,.59.14L35.46,8s.46.05.54.08c-.16,0-.29,0-.6,0l0,0c-.4,0,0,0-.06,0l-.17,0c.05,0,.49.08.46.11h.13c.43.07-.25,0,.08,0l-.45,0c.11,0,.43.08.51.11-.33,0-.49-.09-.69-.13,0,0,0,0,.25.08,0,0-.15,0-.08,0a1.79,1.79,0,0,1,.5.11c-.86-.1-.22,0-.89,0,.31.08-.14.06-.1.11.67.06,0,0,.71.09,0,0,0,0,0,0l-.41,0c-.2,0-.15,0-.3-.05a3.31,3.31,0,0,1-.48,0c.25,0,.35,0,.26,0l.31,0c.36.08-.57,0-.22,0l-.21,0c.12,0,0,.06.54.14a2.53,2.53,0,0,1-.32,0c-.09,0,.58.16.23.15l-.16,0s.31,0,.14,0l-.18,0c.06,0,.29.06.2.06l-.19,0c-.23,0,.45.11.56.15a3.18,3.18,0,0,0-.74,0h-.07c-.06,0,.4.12.59.19-.54,0-.23.06-.54.06l.44.06c-.11,0,.33.07-.12,0h0c-.44,0-.33,0-.34,0l.59.07c-.87-.06.3.15-.47.08.15,0,.14,0,.29.06l-.32,0c-.08,0-.12,0,0,.06l-.23,0s.92.13.93.15l-.47,0s-.42,0,0,.1l-.23,0s-.32,0,.33.09c-.43,0,0,0,.14.07l-.32,0a3.77,3.77,0,0,1,.62.11s-.25,0-.17,0c-.17,0,.29,0,.12,0l-.19,0s.08,0,.31.06-.08,0-.37,0c.18,0,.4.06.32.06l-.2,0c-.22,0,.36.09,0,.07l-.19,0a.05.05,0,0,1,0,0c-.29,0-.34,0-.73-.08.21,0,.68.12.54.12h-.17c-.24,0-.13,0-.15,0l.53.06h-.06v0c.15,0,.29.05.11,0l.51.07c-.44,0-.68,0-1-.07a2.18,2.18,0,0,0,.7.16c.07,0-.18,0-.27,0l-.13,0a1.73,1.73,0,0,0,.46.1c-.18,0-.38-.06-.31,0l-.13,0c-.66,0,1.05.21.19.17h.15c-.38,0,.33.18-.27.18-.12,0,.15,0,.35.07l-.34,0,.38.07c.29.06-.83,0-.3.05l.23,0s.13.06-.13,0c0,0,.24,0,.12,0l-.18,0,.3.06c-.13,0-.7-.08-.74,0s.51.1.63.11a.81.81,0,0,1,.29,0l.09,0c.52.06,1.06.13,1.42.15L36.93,11l.25,0v0c.24,0,0,0-.11,0l.28,0-.5-.08a4.39,4.39,0,0,0,.52.05c-.23,0-.46,0-.61-.07.24,0,.43,0,.23,0l.28,0a2.61,2.61,0,0,0-.34-.07c.29,0-.07,0,.42,0L37,10.8c.59.09,0,0,.67,0-.53-.08-.23-.08-.52-.13h.1l.3,0c-.44-.06-.53-.09-.8-.13.42,0,.51.07.92.11-.36,0-.35-.07-.65-.1l.49,0A2.31,2.31,0,0,1,37,10.6c.28,0,.52.06.35,0A3.2,3.2,0,0,1,37.76,10.67Zm-.9-.56h0Zm0,0,0,0-.21,0ZM34.67,9.9h.15Z"/><path class="cls-1" d="M35.08,10h.09l-.1,0Z"/><path class="cls-1" d="M35.94,6.59Z"/><polygon class="cls-1" points="37.52 9.62 37.44 9.61 37.51 9.62 37.52 9.62"/><path class="cls-1" d="M37.05,6.51h0Z"/><path class="cls-1" d="M37.13,6.43h0Z"/><path class="cls-1" d="M37.29,6.37h0Z"/><path class="cls-1" d="M37.54,7.52h0C37.61,7.53,37.59,7.53,37.54,7.52Z"/><path class="cls-1" d="M36.84,7.1l.15,0S37,7.12,36.84,7.1Z"/><polygon class="cls-1" points="37.87 7.92 37.87 7.92 37.87 7.93 37.87 7.92"/><path class="cls-1" d="M37,7.15c.06,0,.05,0,0,0S36.93,7.14,37,7.15Z"/><path class="cls-1" d="M37.47,6.09h0Z"/><path class="cls-1" d="M37.44,6.08h0Z"/><path class="cls-1" d="M37.32,6.06l.08,0S37.41,6.07,37.32,6.06Z"/><path class="cls-1" d="M37.32,6.17h0Z"/><path class="cls-1" d="M37.35,6.2s.24,0,.17,0h-.09C37.6,6.2,37.15,6.17,37.35,6.2Z"/><path class="cls-1" d="M35.92,6.15H36l-.31,0C35.33,6.09,36,6.12,35.92,6.15Z"/><path class="cls-1" d="M35.74,6.2a1.9,1.9,0,0,0-.25,0A1.07,1.07,0,0,0,35.74,6.2Z"/><path class="cls-1" d="M35.67,6.72l-.28,0Z"/><polygon class="cls-1" points="37.14 7 37.32 7.01 37.06 6.97 37.14 7"/><polygon class="cls-1" points="35.09 6.82 35.05 6.81 35.16 6.83 35.09 6.82"/><path class="cls-1" d="M35.09,7.7l.36,0Z"/><path class="cls-1" d="M35.41,8.12c-.18,0-.29,0-.12,0S35.45,8.13,35.41,8.12Z"/><polygon class="cls-1" points="34.7 9.19 34.59 9.17 34.68 9.2 34.7 9.19"/><path class="cls-1" d="M26.76,10.1l-3-6.5"/><path class="cls-1" d="M24.43,3.29l-.25.12.34-.15Z"/><path class="cls-1" d="M23.83,3.64a6.62,6.62,0,0,0,.77-.34L24,3.55s.1-.07.23-.13c-.09,0,.07,0-.15.05s-.26.15,0,.07Z"/><path class="cls-1" d="M23.73,4.81l0,0Z"/><path class="cls-1" d="M23.81,5.47s0,0-.08,0Z"/><path class="cls-1" d="M23.48,5.74l0,0S23.45,5.75,23.48,5.74Z"/><path class="cls-1" d="M23.73,4.81l-.1.06C23.74,4.82,23.71,4.83,23.73,4.81Z"/><path class="cls-1" d="M24.71,3.39l-.1,0h0Z"/><path class="cls-1" d="M23.34,4.68h0l-.13.06Z"/><path class="cls-1" d="M23.2,4.52l.4-.18-.2.08Z"/><path class="cls-1" d="M23.56,4l0,0Z"/><path class="cls-1" d="M23.34,4.85l-.1.05Z"/><path class="cls-1" d="M28,9.25l-.05,0Z"/><path class="cls-1" d="M26.69,10.13h0l-.16.07Z"/><path class="cls-1" d="M23.19,6.09h0S23.17,6.09,23.19,6.09Z"/><path class="cls-1" d="M24.17,7.62c.24-.13.34-.12.61-.28A5.21,5.21,0,0,0,24.17,7.62Z"/><path class="cls-1" d="M24.67,3.41h0Z"/><path class="cls-1" d="M24.78,7.34h0l0,0Z"/><path class="cls-1" d="M23.56,6.42l.12-.07Z"/><path class="cls-1" d="M23.82,5.92l0,0Z"/><path class="cls-1" d="M24,6.39s-.06,0,0,0l0,0S24,6.41,24,6.39Z"/><path class="cls-1" d="M24.12,6.55l.05,0h0Z"/><path class="cls-1" d="M27.64,8.81l-.26.13C27.58,8.84,27.67,8.83,27.64,8.81Z"/><path class="cls-1" d="M24.54,3.47l.13-.06h0Z"/><path class="cls-1" d="M26.31,5.34l0,0A.09.09,0,0,0,26.31,5.34Z"/><path class="cls-1" d="M27,7.64h0Z"/><path class="cls-1" d="M26.36,5.44l-.19.11.07,0Z"/><path class="cls-1" d="M27.38,8.94Z"/><path class="cls-1" d="M28.14,8.79a4.19,4.19,0,0,0-.59.26c-.12,0,.27-.14.46-.24-.11,0-.47.17-.46.15l.17-.08c-.31.12,0-.05-.43.1l.09,0-.52.24s-.25.09,0,0L27,9.09l-.11,0c.35-.17.13,0,.39-.16-.12,0-.43.14-.34.08.35-.17.14,0,.44-.18l-.12.08c.53-.27,0,0,.54-.25.09-.08-.19,0-.11,0l-.48.21c-.37.11.86-.44.38-.26-.24.09-.68.29-.46.16l.4-.17c0-.06-.58.24-.33.08s.14,0,.19-.06c.3-.17-.23.09-.24.07l.34-.17c-.07,0-.34.07-.42.06.1-.05.22-.09.32-.15-.2,0,0-.13.17-.28l-.31.12a1.44,1.44,0,0,1,.2-.09c.1-.07-.2.09-.32.13l.26-.13c-.27.09-.59.16-.29,0l.1,0c.1-.08-.64.26-.37.1l.06,0c.1-.12-.21-.06.23-.32-.44.19.16-.15-.44.13.28-.18.39-.22.57-.36,0,0-.39.16-.46.17l.32-.15-.34.14.37-.19-.09,0a.88.88,0,0,1-.23.12c-.15,0,.2-.16.36-.23l-.29.06.26-.1c-.34.12.33-.15,0-.05l-.26.12c.19-.1.18-.14.09-.12l.21-.1c0-.06-.14,0-.16-.08a3,3,0,0,1-.51.23l.33-.16a2.81,2.81,0,0,1-.38.17A3.79,3.79,0,0,1,27,7.27l-.12,0,.28-.13c-.21.09.32-.19-.05,0l.1,0s-.14,0-.18,0a3.86,3.86,0,0,1-.47.19c.08-.07.3-.21.26-.23s-.25.11-.43.17A4.05,4.05,0,0,1,26.81,7c-.06,0-.08,0-.31,0l-.24.12c-.05,0,.1-.07.22-.13h0c-.42.13.71-.48.14-.28h0l-.31.09s.2-.08.36-.17c-.46.15,0-.11-.29,0,.76-.39-.11-.09.37-.36l-.18.09c-.19.07.09-.07.13-.09l-.26.12c-.26,0,.18-.32.29-.49s-.95.41-.53.17l.34-.15c-.44.12-.05-.15-.43-.07l.18-.07c.24-.13,0-.06-.21,0a2.85,2.85,0,0,1,.28-.15c.13-.08-.33.11-.09,0l.1,0c-.13.05,0-.06-.27.08.12-.09-.15,0,0-.09-.33.13.13-.12-.32.09.46-.22.35-.22.12-.14.15-.06.14-.08.34-.16,0,0-.11,0-.35.12.54-.3-.48.13.22-.22a2.28,2.28,0,0,1-.6.08c.47-.21.08,0,.56-.19-.21,0-.62.2-.53.1a1.47,1.47,0,0,1,.28-.12c-.21,0,0-.11-.27,0L25.75,5s.06,0-.15.05l.06,0c-.3.15-.66.26-.82.33.61-.26.13-.11.9-.44l-.28.12a1.25,1.25,0,0,1,.28-.13c-.13,0-.35.13-.35.1l.26-.11c-.2.08-.41.16-.33.09L25.46,5c-.05,0-.56.18-.39,0,.45-.2.14-.09.52-.27l-.13,0-.18.1s-.29.09-.17,0l.16-.06h-.09l-.13.09c-.21.07-.48.22-.39.15a.74.74,0,0,1,.22-.14h0c-.13,0-.26.09-.17,0l.5-.23c-.32.14-.11,0-.46.14l.32-.15-.26.11.28-.14s-.48.24-.29.1l.1,0c.1-.09-.19,0-.08-.09.38-.18.11,0,.43-.17-.09,0-.51.12-.44,0l0,0c-.54.24.26-.16,0-.06L25,4.37c.08-.07-.16,0-.35,0l.14-.06c.12-.07.05-.08.11-.13a3.13,3.13,0,0,0-.33.14c.77-.43-.48.09.16-.27l.13,0h-.15l-.32.17a1,1,0,0,1-.26.09,3.88,3.88,0,0,0,.5-.25l-.22.1c.41-.21-.48.22-.21.06l.12-.06a1.25,1.25,0,0,1-.21.06,3.6,3.6,0,0,1,.36-.15s-.53.2-.27.06l.17,0c.31-.16.23-.13.27-.17h0l.13-.1-.08,0c-.73.31-.16,0-.64.2a4.89,4.89,0,0,0,.57-.26l.26-.14c-.25.1.19-.11-.19,0A2.53,2.53,0,0,1,25,3.56c-.09,0-.17.09-.3.14-.35.13.38-.26-.1-.08-.21,0-.55.2-.74.25a2.51,2.51,0,0,1,.37-.16c.14-.09.11-.09,0-.06a1.62,1.62,0,0,0,.27-.13s-.36.16-.22.08l.4-.18-.39.13a2.15,2.15,0,0,1,.39-.16,1.38,1.38,0,0,0-.46.14l-.09.06.28-.13c.23-.09-.08.07-.18.11l-.07,0c-.58.28.12,0,.09.05l-.43.18.37-.14a3.53,3.53,0,0,1-.42.19c-.2.12.16-.05-.07.07l-.07,0,.13,0L23.45,4c-.23.14.34-.1,0,.06h0c.16,0,.31-.14.69-.28l-.76.38.32-.14s0,0-.16.08A2.16,2.16,0,0,0,23.88,4c-.27.15.16,0-.33.23.24-.1.17-.1.35-.16-.53.26.1,0-.13.12a2,2,0,0,0-.38.17c.47-.21-.09.08,0,.06.37-.17.17,0,.31-.07-.13.06-.18.15-.31.23l-.06,0c.38-.17.32-.11.41-.12a3.23,3.23,0,0,1-.43.17v0a.9.9,0,0,1,.24-.08l-.28.12s.35-.1.18,0a9.43,9.43,0,0,1,.91-.41l-.45.2s.12,0,.07,0l-.25.1c-.1.06.2-.09.19-.07l-.3.15s.07-.05,0,0a2,2,0,0,1-.29.17l.3-.13s-.24.12-.33.18a1,1,0,0,0,.3-.11l-.22.11c.14-.05.07,0,.38-.12h0c.31-.1-.14.17,0,.15l-.1,0A1.09,1.09,0,0,0,24,4.89a1.94,1.94,0,0,1-.3.15c.08,0,.2-.06,0,0s-.15.08-.13,0-.24.15.05,0c-.26.11-.32.17-.24.15l.18-.11s0,0,0,0l-.34.16c-.4.24.74-.25.07.11.24-.09.15-.1.43-.22a4.17,4.17,0,0,1-.51.3c-.17.12.51-.2.4-.11a4,4,0,0,1,.57-.24,4.21,4.21,0,0,1-.6.29s0,0,.06,0a1.39,1.39,0,0,0-.23.1l.12,0a1.5,1.5,0,0,1-.29.18,1,1,0,0,0,.26-.13c-.16.11,0,0-.09.13a.88.88,0,0,1,.21-.1c-.13.11.24-.09.3-.08-.18.1-.44.19-.27.15a2.27,2.27,0,0,1-.43.19c.25-.08-.13.13-.16.16l-.11,0c.06,0,.07,0,.07,0L23.35,6,23.21,6c.16-.07.4-.19.63-.28-.12.07.14,0-.18.13.1-.09-.32.15-.38.15s0,0,0,0l-.09,0c-.27.16.38-.16.38-.12l-.3.15a3.5,3.5,0,0,1,.45-.19c-.13.08.12,0,.1,0l.06,0a.54.54,0,0,1,.23-.07L24,5.87c.33-.13-.31.19-.09.12-.11.07-.34.16-.42.21.25-.09-.23.14,0,.08a2.6,2.6,0,0,1,.42-.19l-.19,0L24,6s-.17,0-.13,0a2.11,2.11,0,0,0,.34-.16c-.35.19.23-.06,0,.08l-.61.28c-.25.16.34-.09.21,0l.1-.07c.24-.1,0,0,.15,0l-.4.2c.15-.07,0,0,.41-.14l-.26.14c-.09.09.59-.23.54-.16-.22.09-.36.17-.53.22,0,0,0,0,.11,0-.12.06.29-.1.1,0a1.45,1.45,0,0,1,.3-.11l-.1,0a2.56,2.56,0,0,0,.36-.15c-.62.32.09.07-.44.35a.31.31,0,0,1,.18,0l-.08,0c-.17.12.59-.25.4-.12s-.19.07-.31.13c-.66.32.11,0-.26.21h0c-.22.12.27-.07.23,0l-.1,0a2.12,2.12,0,0,1,.59-.16,3,3,0,0,0-.41.18,4.9,4.9,0,0,1,.51-.21c-.14.07-.25.15-.53.28l0,0c-.36.18,0,0,0,.07L24.13,7c.07,0,.47-.17.46-.12l.12-.06c.4-.16-.22.12.09,0L24.4,7c.1,0,.41-.13.5-.14-.31.12-.48.16-.66.23,0,0,.05,0,.25,0,0,0-.14,0-.08,0,.32-.13.49-.18.5-.15-.79.36-.17.17-.77.47.32-.09-.08.15,0,.19.6-.3,0,0,.65-.29,0,0,0,0,0,0l-.35.21a2.58,2.58,0,0,1-.28.12,3.26,3.26,0,0,1-.42.23c.22-.11.32-.14.25-.08l.27-.16c.36-.11-.5.28-.16.17l-.2.08c.13,0,0,.08.55-.14a1.88,1.88,0,0,1-.29.14c-.06.08.58-.14.29,0L24.29,8c.05,0,.29-.12.14,0l-.16.07c.06,0,.28-.1.2,0l-.18.07c-.18.14.46-.12.58-.13a2.65,2.65,0,0,0-.64.37l-.07,0c0,.08.42-.08.62-.11-.47.26-.15.21-.4.39a2.5,2.5,0,0,1,.4-.17c-.08,0,.33-.12-.08.07h0c-.4.19-.28.17-.28.19L25,8.49c-.76.41.35,0-.34.35.14-.05.15,0,.29-.08l-.29.13c-.06.07-.09.11,0,.12l-.21.08s.85-.35.88-.34L24.86,9s-.34.26.08.12l-.21.08s-.26.22.33-.07c-.39.18,0,.07.16,0l-.28.13A3.84,3.84,0,0,1,25.52,9s-.22.11-.15.07c-.14.09.27-.11.13,0l-.18.07s.08,0,.3-.1-.05.08-.31.2c.16-.07.38-.16.31-.11l-.19.08c-.18.13.35-.1.09.06l-.17.08a.06.06,0,0,1,0-.07c-.27.12-.3.17-.67.32.2-.07.65-.24.54-.16l-.09,0h0s0,0,.05,0-.07,0-.07.06c-.22.1-.11.08-.11.09a4.22,4.22,0,0,0,.47-.22h-.05l0,0c.16-.06.28-.11.13,0l.47-.2c-.39.2-.6.34-.84.45a1.55,1.55,0,0,0,.7-.19c.07,0-.15.08-.24.13l-.13,0a1.14,1.14,0,0,0,.46-.14c-.16.11-.35.15-.27.16l-.12,0c-.57.35,1-.34.28.1l.12-.07c-.3.24.41,0-.09.37-.1.07.14,0,.33-.11l-.3.15.36-.14c.28-.08-.73.42-.21.23l.21-.1s.14,0-.1.1c0,0,.22-.09.12,0l-.17.07.3-.09c-.1.09-.64.3-.65.36a5.06,5.06,0,0,0,.59-.23l.26-.14.09,0c.48-.22,1-.44,1.29-.63l-.31.11.23-.12,0,0c.22-.11,0,0-.12,0L28,9.41l-.46.18c.18-.09.37-.16.47-.22-.22.08-.42.2-.57.25.22-.11.39-.19.2-.12l.26-.11a1.48,1.48,0,0,0-.34.1c.27-.14-.09,0,.37-.22a3.32,3.32,0,0,1-.39.14c.55-.23,0-.06.59-.33-.49.21-.24,0-.53.14,0,0,.12-.05.1,0A2,2,0,0,1,28,9a7.21,7.21,0,0,1-.76.31c.38-.2.48-.21.85-.39-.33.15-.34.12-.61.25A4.07,4.07,0,0,1,27.91,9c-.51.23-.09,0-.41.15.24-.13.47-.22.31-.17A1.62,1.62,0,0,1,28.14,8.79ZM27,8.61h0Zm0,0v0l-.19.09ZM25,9.59s0,0,.07,0h0l0,0Z"/><path class="cls-1" d="M25.41,9.43h0l.06,0-.09,0Z"/><path class="cls-1" d="M23.77,4.78h0l0,0Z"/><polygon class="cls-1" points="27.21 7.63 27.14 7.66 27.2 7.64 27.21 7.63"/><path class="cls-1" d="M24.63,4.05l.08,0Z"/><path class="cls-1" d="M24.64,3.9l.1-.06Z"/><path class="cls-1" d="M24.75,3.75l-.13,0h0Z"/><path class="cls-1" d="M25.75,5h0C25.82,5,25.8,5,25.75,5Z"/><path class="cls-1" d="M24.88,4.91l.14,0S25,4.83,24.88,4.91Z"/><polygon class="cls-1" points="26.31 5.33 26.31 5.34 26.31 5.34 26.31 5.33"/><path class="cls-1" d="M25,4.88c.06,0,0,0,0,0S25,4.89,25,4.88Z"/><path class="cls-1" d="M24.69,3.3h0l0,0Z"/><path class="cls-1" d="M24.66,3.31h0Z"/><path class="cls-1" d="M24.54,3.34l.08,0Z"/><path class="cls-1" d="M24.62,3.48l.1,0Z"/><path class="cls-1" d="M24.66,3.5s.22-.12.15-.11l-.09,0C24.88,3.36,24.48,3.57,24.66,3.5Z"/><path class="cls-1" d="M23.44,4.25l.07-.07a1.22,1.22,0,0,1-.28.13C22.91,4.51,23.47,4.19,23.44,4.25Z"/><path class="cls-1" d="M23.33,4.42a1.46,1.46,0,0,0-.23.1A.6.6,0,0,0,23.33,4.42Z"/><path class="cls-1" d="M23.64,5.1l-.26.12Z"/><polygon class="cls-1" points="25.05 4.6 25.21 4.51 24.97 4.62 25.05 4.6"/><polygon class="cls-1" points="23.23 5.54 23.18 5.55 23.29 5.53 23.23 5.54"/><path class="cls-1" d="M23.85,6.64l.32-.15C24.11,6.5,23.74,6.67,23.85,6.64Z"/><path class="cls-1" d="M24.4,7c-.15.08-.25.14-.09.08S24.45,7,24.4,7Z"/><polygon class="cls-1" points="24.57 8.7 24.45 8.74 24.55 8.72 24.57 8.7"/><path class="cls-1" d="M16.24,17.81l-7.1-.56"/><path class="cls-1" d="M9.2,16.5a1.5,1.5,0,0,0,0,.28l0-.37Z"/><path class="cls-1" d="M9.22,17.2c0-.18.06-.5.08-.84,0,.36,0,.21-.08.63a1.16,1.16,0,0,1,0-.25c0,.09,0-.09,0,.15s0,.3,0,.06C9.24,17,9.22,17.13,9.22,17.2Z"/><path class="cls-1" d="M10.18,17.86v0Z"/><path class="cls-1" d="M10.79,18.11s0,.05,0,.08A.45.45,0,0,0,10.79,18.11Z"/><path class="cls-1" d="M10.86,18.53v0Z"/><path class="cls-1" d="M10.18,17.86V18C10.2,17.86,10.18,17.89,10.18,17.86Z"/><path class="cls-1" d="M9.43,16.31a.56.56,0,0,0,0,.1s0,0,0,0Z"/><path class="cls-1" d="M9.88,18.14h0s0,.09,0,.15Z"/><path class="cls-1" d="M9.66,18.18s0-.3.05-.44c0,.13,0,.19,0,.22S9.67,18.09,9.66,18.18Z"/><path class="cls-1" d="M9.37,17.6v0A.06.06,0,0,0,9.37,17.6Z"/><path class="cls-1" d="M10,18.22a.54.54,0,0,0,0,.11A.41.41,0,0,1,10,18.22Z"/><path class="cls-1" d="M16.11,16.31v0Z"/><path class="cls-1" d="M16.23,17.89v0c0,.06,0,.12,0,.18Z"/><path class="cls-1" d="M11,19h0S11,19,11,19Z"/><path class="cls-1" d="M12.83,18.86c0-.28.06-.36.06-.68A6.14,6.14,0,0,0,12.83,18.86Z"/><path class="cls-1" d="M9.43,16.35h0S9.43,16.34,9.43,16.35Z"/><path class="cls-1" d="M12.89,18.18h0v0Z"/><path class="cls-1" d="M11.49,18.8v0Z"/><path class="cls-1" d="M11.19,18.32v0Z"/><path class="cls-1" d="M11.7,18.36s0,.07,0,0v0S11.7,18.42,11.7,18.36Z"/><path class="cls-1" d="M11.88,18.38v0Z"/><path class="cls-1" d="M15.55,16.42c0,.09,0,.19,0,.28C15.55,16.48,15.59,16.4,15.55,16.42Z"/><path class="cls-1" d="M9.41,16.49c0-.08,0-.12,0-.14v0C9.42,16.42,9.41,16.46,9.41,16.49Z"/><path class="cls-1" d="M11.9,15.87l0,.05S11.91,15.87,11.9,15.87Z"/><path class="cls-1" d="M14.25,16.36v0Z"/><path class="cls-1" d="M12,15.88v.22A.19.19,0,0,0,12,16Z"/><path class="cls-1" d="M15.79,16a3.55,3.55,0,0,0-.07.64c-.05.12,0-.3,0-.52,0,.11-.07.49-.09.47s0-.09,0-.18c-.05.33-.07,0-.13.43,0,0,0-.07,0-.1,0,.2,0,.42,0,.57,0,0-.05.26,0,0a.9.9,0,0,0,0-.19l0,.12c0-.39,0-.14,0-.43,0,.13-.08.45-.1.34,0-.38.06-.13.06-.47l0,.15c0-.61,0,0,0-.6,0-.12-.06.19-.09.07,0,.21,0,.32,0,.53-.09.38,0-1-.05-.46,0,.25-.07.74-.08.48l0-.43c0-.05-.07.62-.09.32a1.9,1.9,0,0,1,0-.19c0-.34,0,.25,0,.24l0-.38c0,.06-.11.33-.16.4,0-.12,0-.24,0-.35-.07.18-.12-.06-.16-.29l0,.33a.9.9,0,0,1,0-.22c0-.12,0,.21,0,.34a1.18,1.18,0,0,1,0-.29c-.06.28-.16.6-.17.24l0-.1c0-.13-.09.68-.1.37v-.06c-.05-.15-.15.15-.16-.36-.05.48-.05-.21-.1.45,0-.33,0-.45,0-.67,0,0-.06.41-.08.48l0-.35-.06.36,0-.41,0,.08a1.27,1.27,0,0,1,0,.26c0,.15,0-.25,0-.42l-.08.28c0-.14,0-.18,0-.27-.06.35,0-.37,0,0a2.48,2.48,0,0,1,0,.27c0-.21,0-.21-.06-.13l0-.24c0-.06-.1.11-.15.1a2.94,2.94,0,0,1,0,.57l0-.37a3.58,3.58,0,0,1,0,.42,2.79,2.79,0,0,1,0-.54l0,.13c0-.11,0-.17,0-.31,0,.23,0-.37-.05,0v-.11s-.09.12-.13.14c0,.31,0,.24-.07.5,0-.11,0-.36-.08-.33s0,.26-.05.45a3.11,3.11,0,0,1,0-.47c-.05,0-.06.05-.14.28a2.26,2.26,0,0,1,0,.27s0-.12,0-.26v0c-.09.43-.07-.85-.17-.25v0l-.07.3c0-.05,0-.21,0-.39-.1.48-.09-.08-.16.24,0-.85-.13.05-.13-.5l0,.2c0,.2,0-.11,0-.16a2.07,2.07,0,0,1,0,.29c-.12.23-.19-.31-.28-.5s-.11,1-.12.55l0-.37c-.11.44-.16,0-.26.35,0-.09,0-.2,0-.2,0-.27-.06,0-.07.2,0,0,0-.19,0-.31s-.07.34-.06.07a.58.58,0,0,0,0-.1c0,.13-.05,0-.06.27,0-.15-.07.14-.08,0,0,.35,0-.17-.08.32,0-.51,0-.41,0-.18a2.7,2.7,0,0,1,0-.37s-.05.1-.07.36c0-.61-.12.48-.08-.3a2.71,2.71,0,0,1-.22.57c0-.51.07-.05.11-.58-.07.2-.14.64-.18.51a1.2,1.2,0,0,1,0-.31c-.07.21-.1-.05-.17.22a.59.59,0,0,1,0-.14s0-.07,0,.16l0-.06c0,.33-.09.69-.11.87.07-.66,0-.17.06-1a2,2,0,0,0,0,.3,2.6,2.6,0,0,1,0-.31c0,.13,0,.37-.08.36s0-.15,0-.28c0,.22-.06.43-.08.34a.9.9,0,0,1,0-.16c-.05,0-.12.58-.15.36.05-.48,0-.16,0-.58l0,.12v.21s-.06.29-.07.16l0-.18,0,.08v.16c0,.22,0,.53-.06.41a1.87,1.87,0,0,1,0-.25h0c0,.13,0,.27-.05.16s0-.46.05-.55c0,.35-.06.09-.11.47,0-.09,0-.31,0-.36l0,.29a2.09,2.09,0,0,1,0-.31c0-.06,0,.53-.06.3,0,0,0-.07,0-.11s-.09.17-.11,0c0-.42,0-.1.05-.46-.05.07-.14.5-.18.4v0c0,.6,0-.29,0,0,0-.05,0-.33,0-.27,0-.1-.08.14-.14.33l0-.16c0-.13-.05-.08-.06-.15a2.27,2.27,0,0,0,0,.35c0-.88-.16.46-.17-.27a.7.7,0,0,0,0-.14l-.06.14c0,.26,0,.16,0,.36a.78.78,0,0,1-.05.27,2.74,2.74,0,0,0,0-.56,2.11,2.11,0,0,1,0,.25c0-.47,0,.52,0,.21V17c0,.07,0,.25-.06.21,0-.3,0-.14.05-.39,0,0-.08.57-.08.27a1.36,1.36,0,0,0,0-.17c0-.35,0-.27,0-.32h0l0-.17v.1c-.08.78-.06.14-.13.65a4.38,4.38,0,0,0,.05-.62c0-.1,0-.2,0-.3,0,.27,0-.22-.06.18a.88.88,0,0,1,0-.28,2.33,2.33,0,0,0,0,.32c-.06.38,0-.46-.12,0-.06.21-.1.58-.15.76,0-.17,0-.4,0-.4,0-.16,0-.13-.06,0a2.36,2.36,0,0,0,0-.3s0,.4-.05.24,0-.32.05-.44l-.08.4a3,3,0,0,1,.05-.41,1.5,1.5,0,0,0-.1.47V17a2.5,2.5,0,0,1,0-.32c0-.23,0,.11,0,.22l0,.07c0,.64.06-.1.08-.06l0,.47L9.39,17c0,.12,0,.38,0,.45,0,.23,0-.16,0,.1a.17.17,0,0,1,0,.08l0-.14c0,.1,0,.33,0,.26,0,.27.09-.35.07,0v0c.05-.16,0-.34.09-.74l0,.84,0-.34a.77.77,0,0,1,0,.18c0-.24,0-.15,0-.37,0,.31.07-.14,0,.4a2.6,2.6,0,0,1,0-.38c0,.59,0-.1,0,.17a2.19,2.19,0,0,0,0,.42c.06-.52,0,.11.06,0,0-.41.05-.17.09-.31a1.76,1.76,0,0,0,.06.38v.07c0-.41.06-.33.09-.41,0,.24,0,.34-.05.45h0a1.31,1.31,0,0,1,.05-.25l0,.31s.08-.36.1-.15a8.62,8.62,0,0,1,.08-1c0,.15,0,.42,0,.48s0-.13,0-.06l0,.26c0,.12,0-.22,0-.19,0,.22,0,.16,0,.33s0-.09,0,0a2.57,2.57,0,0,1,0,.34,1.83,1.83,0,0,1,0-.33s0,.27,0,.39a3,3,0,0,0,0-.33,1.93,1.93,0,0,1,0,.25c0-.15.06,0,.08-.39v0h0c.07-.33.07.19.13.06v.11c0-.13.06-.07.1-.31a2.2,2.2,0,0,1,0,.34c0-.09,0-.21,0,0s0,.18,0,.14,0,.28.06,0c0,.28,0,.36,0,.28v-.21s0,0,0,0l0,.38c0,.45.16-.77.14,0,0-.26,0-.18,0-.49,0,.05,0,.59,0,.59,0,.21.07-.54.1-.4a4.07,4.07,0,0,1,.06-.61,4,4,0,0,1,0,.67s0,0,0-.08a1.83,1.83,0,0,0,0,.25l0-.13a1.68,1.68,0,0,1,0,.34,1,1,0,0,0,0-.29c0,.2,0,0,.07.15a1.17,1.17,0,0,1,0-.23c0,.17,0-.26.08-.31,0,.2,0,.48,0,.32a3.15,3.15,0,0,1,0,.46c.05-.26,0,.17.05.22l0,.11C11,19,11,19,11,19v-.27a.79.79,0,0,1,0,.16c0-.17,0-.44.07-.68,0,.13,0-.14,0,.21,0-.12,0,.36-.06.41s0,0,0,0A.22.22,0,0,1,11,19c0,.32.05-.4.09-.39a1.22,1.22,0,0,0,0,.34,2.67,2.67,0,0,1,0-.48c0,.15,0-.12,0-.1v-.07a.59.59,0,0,1,.05-.24c0,.16,0,.11,0,.18,0-.35,0,.36.06.13,0,.14,0,.38,0,.47,0-.26,0,.27.06.06a1.75,1.75,0,0,1,0-.46l-.07.18.06-.38s0,.16-.05.12a1.64,1.64,0,0,0,0-.38c0,.41.06-.23.06,0l-.05.67c0,.3.09-.34.12-.17v-.11c0-.27,0,0,0-.14,0,.22,0,.3,0,.44a1.57,1.57,0,0,0,.08-.43v.3c0,.12.1-.63.13-.55,0,.24,0,.4-.07.57,0,0,0,0,0-.11,0,.14.05-.3.05-.09a2.16,2.16,0,0,1,0-.31.8.8,0,0,1,0,.11,2.08,2.08,0,0,0,0-.39c0,.69.11,0,.1.55a.44.44,0,0,1,.09-.15c0,.06,0,.11,0,.08,0,.21.07-.63.09-.4a2.46,2.46,0,0,1,0,.33c0,.73.05-.09,0,.33v.05c0,.25.07-.28.1-.22a.8.8,0,0,0,0,.11,2.09,2.09,0,0,1,.14-.59c0,.28,0,.15,0,.44,0,0,0-.47.07-.55,0,.16,0,.3,0,.61h0c0,.4,0,0,.05.06l0,.18c0-.06.08-.5.12-.46V18c.05-.43,0,.25,0-.07l0,.44a3.66,3.66,0,0,1,.12-.5c0,.32-.09.49-.12.68,0,0,.05,0,.08-.24,0,0,0,.15,0,.08,0-.35.08-.52.11-.51-.07.86.06.22,0,.89.08-.31.1.15.17.1,0-.67,0,0,.07-.7,0-.05,0,0,0,0v.41c0,.21,0,.16,0,.31a3.66,3.66,0,0,1,0,.48c0-.25,0-.35.05-.26V18.8c.07-.36,0,.58.06.22l0,.22c0-.13.09,0,.15-.54a2.88,2.88,0,0,1,0,.32c0,.08.17-.58.18-.24l0,.17c0-.05,0-.32,0-.15s0,.17,0,.18.05-.29.06-.19l0,.19c0,.22.12-.46.18-.57a3,3,0,0,0,0,.74v.07c.06.07.14-.4.22-.59,0,.54.1.23.13.54a4.28,4.28,0,0,1,0-.43c0,.1.06-.34,0,.11h0c0,.45,0,.33,0,.34l.06-.59c0,.87.17-.31.14.47,0-.15,0-.14.07-.29l0,.32c0,.08,0,.12.1.05l0,.23s.11-.92.14-.93l0,.47s.07.42.15,0c0,.07,0,.21,0,.23s.06.33.1-.33c0,.43,0,.05.08-.14l0,.32a3.2,3.2,0,0,1,.1-.62s0,.25,0,.17c0,.17,0-.3.06-.13l0,.2s0-.08.06-.31,0,.08,0,.36c0-.17.05-.4.06-.32a1.22,1.22,0,0,1,0,.21c0,.22.09-.36.09-.05,0,.1,0,.16,0,.19s-.05,0-.05-.05c0,.29,0,.34,0,.74,0-.22.11-.69.13-.55a.25.25,0,0,0,0,.1v0s0,0,0-.05,0,.09,0,.09c0,.24,0,.13,0,.15,0-.32,0-.27,0-.53a.07.07,0,0,1,0,.05s0,0,0,0v0l0,0c0-.16,0-.29,0-.11,0-.21.05-.42.06-.51,0,.44,0,.68,0,1a1.79,1.79,0,0,0,.17-.7c0-.08,0,.17,0,.27a.63.63,0,0,0,0,.13,1.07,1.07,0,0,0,.11-.47c0,.19-.05.38,0,.32l0,.12c0,.67.21-1.05.23-.19a.33.33,0,0,1,0-.14c.06.38.22-.34.27.26,0,.12,0-.14.07-.34l0,.34.06-.39c.06-.28,0,.84.1.3v-.23s.07-.13,0,.13c0,0,0-.24,0-.12v.18l.07-.3a6.31,6.31,0,0,0,0,.74,4.76,4.76,0,0,0,.09-.63,2.26,2.26,0,0,1,0-.29l0-.09c0-.52.1-1.06.09-1.43l-.06.32v-.25l0,0c0-.24,0,0,0,.12,0-.14,0-.23,0-.28l-.07.49c0-.2,0-.4,0-.52,0,.24,0,.46-.06.62,0-.24,0-.44,0-.24,0-.13,0-.22,0-.28a1.67,1.67,0,0,0-.08.35c0-.3-.05.07,0-.42,0,.11-.06.38-.07.4.07-.59,0,0,0-.67-.06.53-.09.23-.14.52,0,0,0-.13,0-.1s0-.2,0-.31a6.64,6.64,0,0,1-.11.81c0-.42.06-.51.08-.92,0,.36-.06.35-.08.65,0-.26,0-.13,0-.5-.05.56,0,.1-.07.43,0-.27,0-.51,0-.35A2,2,0,0,1,15.79,16Zm-.72.9h0l0,0Zm-.05,0s0,0,0,0l0,.21A1.75,1.75,0,0,0,15,16.87ZM15,19.07c0,.05,0,0,0-.08s0,0,0,0v0C15,19,15,19,15,19.07Z"/><path class="cls-1" d="M15,18.66v0Z"/><path class="cls-1" d="M10.18,17.81h0v0Z"/><polygon class="cls-1" points="14.32 16.21 14.32 16.29 14.33 16.22 14.32 16.21"/><path class="cls-1" d="M10,16.7a.25.25,0,0,0,0-.08A.25.25,0,0,1,10,16.7Z"/><path class="cls-1" d="M9.84,16.62V16.5A.75.75,0,0,1,9.84,16.62Z"/><path class="cls-1" d="M9.76,16.45c0,.06,0,.1,0,.14h0Z"/><path class="cls-1" d="M11.35,16.2h0C11.37,16.13,11.36,16.15,11.35,16.2Z"/><path class="cls-1" d="M10.82,16.91a1.3,1.3,0,0,1,0-.15S10.84,16.73,10.82,16.91Z"/><polygon class="cls-1" points="11.9 15.87 11.9 15.87 11.9 15.87 11.9 15.87"/><path class="cls-1" d="M10.87,16.77c0-.07,0-.05,0,0S10.86,16.81,10.87,16.77Z"/><path class="cls-1" d="M9.34,16.28v0Z"/><path class="cls-1" d="M9.33,16.31v0Z"/><path class="cls-1" d="M9.31,16.43l0-.08S9.32,16.34,9.31,16.43Z"/><path class="cls-1" d="M9.46,16.43v-.11A.54.54,0,0,1,9.46,16.43Z"/><path class="cls-1" d="M9.5,16.4s0-.24,0-.17v.09C9.49,16.15,9.48,16.6,9.5,16.4Z"/><path class="cls-1" d="M9.56,17.83l0-.09a1,1,0,0,1,0,.31C9.52,18.42,9.52,17.78,9.56,17.83Z"/><path class="cls-1" d="M9.64,18a1.79,1.79,0,0,0,0,.24A.65.65,0,0,0,9.64,18Z"/><path class="cls-1" d="M10.39,18.08l0,.29A1.89,1.89,0,0,0,10.39,18.08Z"/><polygon class="cls-1" points="10.65 16.6 10.65 16.42 10.62 16.68 10.65 16.6"/><polygon class="cls-1" points="10.57 18.66 10.56 18.7 10.59 18.6 10.57 18.66"/><path class="cls-1" d="M11.82,18.65l0-.35A1.41,1.41,0,0,0,11.82,18.65Z"/><path class="cls-1" d="M12.39,18.34c0,.17,0,.29,0,.11C12.4,18.43,12.4,18.29,12.39,18.34Z"/><polygon class="cls-1" points="13.96 19.04 13.94 19.16 13.96 19.06 13.96 19.04"/></svg>