<svg id="Capa_1" data-name="Capa 1" xmlns="http://www.w3.org/2000/svg" xmlns:xlink="http://www.w3.org/1999/xlink" viewBox="0 0 62.36 61.18"><defs><style>.cls-1{fill:none;}.cls-2{fill:#5da6bc;}.cls-3{clip-path:url(#clip-path);}</style><clipPath id="clip-path"><rect class="cls-1" x="44.4" y="3548.77" width="1341" height="1296.03"/></clipPath></defs><path class="cls-2" d="M21.07,17.59A5.82,5.82,0,0,0,18,24a4.57,4.57,0,0,0-6.07,2.74c-.93,2.52.32,5.76,2.6,6.73-2-.09-1.5-2.43-3.4-1.66a5.81,5.81,0,0,0-3.69,4.9c-.12,2.81.13,7.48,2.52,6.58-.07,3.94,3.24,7.13,6.69,7.9s7-.29,10.41-1.34l.39-21.53C27.48,24.06,27.9,14.88,21.07,17.59Z"/><path class="cls-2" d="M21,17.35s0,.11.16,0l.05-.16Z"/><path class="cls-2" d="M22,17.27c.14-.11.32-.26.18-.35-.14.16-.19.12-.33.31s-.27,0-.26,0-.22.05-.27.16a1.07,1.07,0,0,0,.66-.19C22,17.2,22,17.24,22,17.27Z"/><path class="cls-2" d="M27.22,28l0-.09S27.23,28,27.22,28Z"/><path class="cls-2" d="M27,36.87a.16.16,0,0,0,0-.1C27,36.84,27,36.89,27,36.87Z"/><path class="cls-2" d="M26.82,38.38v-.09A.15.15,0,0,0,26.82,38.38Z"/><path class="cls-2" d="M27.22,28l0,.24S27.21,28.16,27.22,28Z"/><path class="cls-2" d="M24,16.83h0Z"/><path class="cls-2" d="M27.1,24.17v-.08L27,24Z"/><path class="cls-2" d="M26.74,21.25c0,.06.12.06.17.08a.22.22,0,0,1-.1-.13A.12.12,0,0,0,26.74,21.25Z"/><path class="cls-2" d="M24.55,17.45l-.09,0Z"/><path class="cls-2" d="M27.12,26.29s0,0,0,0Z"/><path class="cls-2" d="M18.14,19.67h0S18.15,19.65,18.14,19.67Z"/><path class="cls-2" d="M21.08,17.62l0,0a.15.15,0,0,0,0,.07Z"/><path class="cls-2" d="M26.63,41.14h0C26.62,41.05,26.62,41.09,26.63,41.14Z"/><path class="cls-2" d="M12,47.78c.1.27-.38-.27-.2.12C11.78,47.85,12.14,48.08,12,47.78Z"/><path class="cls-2" d="M24.09,16.86l.13,0Z"/><path class="cls-2" d="M11.77,47.9h0l0,0Z"/><path class="cls-2" d="M26.58,47.5a.13.13,0,0,0,.05-.07Z"/><path class="cls-2" d="M26.82,42.76v.12A.53.53,0,0,0,26.82,42.76Z"/><path class="cls-2" d="M26.65,49.65s0,0-.08,0h0S26.6,49.65,26.65,49.65Z"/><polygon class="cls-2" points="24.38 50.32 24.43 50.33 24.51 50.3 24.38 50.32"/><path class="cls-2" d="M14.34,23.57a.5.5,0,0,1,.16.05C14.43,23.56,14.8,23.38,14.34,23.57Z"/><path class="cls-2" d="M24,16.89a.11.11,0,0,1,.09,0H24A0,0,0,0,0,24,16.89Z"/><path class="cls-2" d="M27.2,50.39l-.61.17.22-.05Z"/><path class="cls-2" d="M8.73,32.86l.07-.08Z"/><path class="cls-2" d="M25.43,50.93a.7.7,0,0,0-.25,0s0,0,0,0Z"/><path class="cls-2" d="M14.5,23.62Z"/><path class="cls-2" d="M17.21,23.11s-.09,0-.1.06,0,.11-.05.14c-.49,0-.21-.14-.37-.24-.34,0-.58.15-.82.17,0,0-.06,0,0-.06-.33.12-1,.16-1.3.45H14.5a.22.22,0,0,1,.12.16c-.17.07-.27.21-.37.16.1-.05.09-.09.13-.14l-.15.12c-.22,0,.21-.16.17-.24-.34.18-.65.51-.9.63-.13-.07.54-.4.15-.29a3.79,3.79,0,0,1,.42-.18c-.41,0,.26-.11-.13-.16a5.22,5.22,0,0,0-1.06.75c-.05.15.1.05.06.2-.49.67-.73.25-1,.88,0,.18.1.32-.19.66l-.06-.2c-.26.53,0,.38-.25.91,0-.12.1-.45,0-.37-.25.33,0,.29-.1.58l-.15,0a5.92,5.92,0,0,0,0,2s-.1-.15-.12,0a10.33,10.33,0,0,0,.68,2.58l.25.22c0,.06,0,.14,0,.08.15.3.07,0,.2.08s.08.24,0,.17A14.32,14.32,0,0,0,14,33.67a.61.61,0,0,1-.13,0,.9.9,0,0,0,.53.16l.15-.65a.4.4,0,0,1-.35,0h.07a1.62,1.62,0,0,1-1-.66,4.66,4.66,0,0,0-.94-1.12c-.12,0-.44-.09-.74-.05s-.51.12-.51.23a3,3,0,0,0-1.19.34c-.2.1-.2.3-.4.47l-.07-.09-.21.32-.24,0-.16.19c.08-.06.19-.1.2-.06a2.37,2.37,0,0,1-.77.59,6.08,6.08,0,0,0-.46.82s0-.18.08-.3c-.16.49-.17,0-.3.47,0,0,0,.06.06.08a2.35,2.35,0,0,0-.47,1l-.06-.09a6.36,6.36,0,0,0-.23,2.21c0-.26.18-.2.2,0l-.13.08c.08.14,0-.22.14.06s-.15.19-.19,0l0,.33s-.06,0-.11-.07c.08.13-.12.58,0,.77l0,0A14.27,14.27,0,0,0,7,40.45c.11,0,.12.24.24.4a4.89,4.89,0,0,0,.29,1.5c.2.35.12.07.26.21-.07.07.23.59,0,.35a2,2,0,0,0,.64.66,1.09,1.09,0,0,0,.45.19,1.09,1.09,0,0,0,.5,0c0-.05-.07-.06-.05-.1s.16,0,.12.08h0l.12-.05s0,.2,0,.3a1.12,1.12,0,0,0,0,.29v.35a2.37,2.37,0,0,0,.31,1.21l0,0a5.51,5.51,0,0,0,.38.67c.14.33-.16-.16-.1.11a12.55,12.55,0,0,0,1.12,1.66c.09.63,1.29,1.37,1.76,1.91v-.08c.19,0,.16.17.26.25s-.13-.16,0-.13A11.7,11.7,0,0,0,17.74,52c.59.06.36-.32,1.08-.13l-.21.13a18.11,18.11,0,0,0,3.49-.41c-.07,0-.06.08-.17.1.25.05.87-.16.85-.24.18,0,.06.06.17.07s.56-.24.7-.18-.06,0-.1.06c.14-.08.71-.16.53-.23.42-.06.77-.26,1.1-.28.18-.18.71-.15.72-.33,0,.09.2.07.41,0a4.85,4.85,0,0,0,.67-.28c-.12.1.41-.07.3,0,.37,0,.26-.36.26-.54s-.05-.29-.1-.25l.06-.27a1.5,1.5,0,0,0,0-.2c0-.14,0-.27,0-.39s-.06-.47.08-.62c-.08-.89-.13-1.71-.15-2.51.17,0,0,.88.18.85a10.69,10.69,0,0,1-.14-1.94c0-.2.07.11.1.17-.06-.75,0-1.46,0-2.13a.33.33,0,0,1,0,.14c0-.13,0-.31,0-.29l0,.13c-.12.21-.23-.53-.29-.56.22.23.07-.66.35-.3,0-.09-.05-.2-.1-.18s.05-.17.11,0c0-.47-.13-.3-.12-.74,0,0,.06.09.1.14a1.71,1.71,0,0,1-.1-.8s.05,0,.05.09a12.45,12.45,0,0,1-.1-1.76c.17.21.06-.23.21-.26l0-.37-.07.15a5.54,5.54,0,0,1,0-.89l.05.24v-.6l-.07.34c-.06-.33-.18,0-.13-.4a3.17,3.17,0,0,1,.09-.49h0a1.11,1.11,0,0,1,0-.56c0-.06.16,0,.19,0-.12-.16,0-.76-.15-1,0,.07.11.07.12.05l-.09-.13c0-.15.05-.17.11-.15,0-.45-.19.14-.1-.39,0,0,0,0,0,.11.05-.53-.05-1,0-1.53.15-.14,0,.43.15.27,0-.71-.15-1.47-.1-2.16l0,.13c-.2-.1.11-.51,0-.86,0,.08.12.11.09.09a10.55,10.55,0,0,0-.08-1.68l.05.09c.05-.28,0-.73.07-1-.05-.09,0-.26-.12-.16.32-.92-.15-1.76.08-2.59,0,.1.05.23.05.15l-.08-.7c-.08.06-.05.1-.11.25a1.06,1.06,0,0,1-.12-.46c.08.31.15,0,.19-.15,0,0-.06,0-.09,0,.14-.38-.18-.05-.11-.56l0,0a3.27,3.27,0,0,1-.12-.56c.09-.09.07.2.15.2,0-.28-.26-.53-.19-.8,0,.12.07.29.11.4a1,1,0,0,0,0-.53v0l0-.49v.13c-.33-.3-.18-.71-.49-1.13.29.41.12,0,.24,0s0-.32,0-.28c-.16-.19,0-.4-.3-.65,0,0-.08-.24,0-.23-.15-.27,0,.1-.09.09-.29-.36-.34-1.1-1-1.51a2.93,2.93,0,0,0-1.14-.5c-.13-.14.2-.06.2-.06a1.33,1.33,0,0,0-.74-.28c.06,0,0-.06-.07-.12s-.17.09-.45,0a.49.49,0,0,1,.24-.13,4.5,4.5,0,0,0-.81.11c-.07-.06.16-.11.26-.15-.32,0-.8.12-.87.25h.2c-.11,0-.07-.08,0-.12.24-.12.38,0,.39,0l-.19,0c.21.2.76-.09,1.15,0l-.18.13.41-.06c.07.07.09.16-.09.14.23.15.24,0,.43.17,0,0,0,0,0,0l.24.07c-.06,0,0,.12-.14,0,.35.26.68.29.73.5l0,0c.48.41.13-.05.57.22,0,.15,0,.3-.05.44l.13,0s.09.18,0,.18c.2.17,0-.06.16,0,.08.32.44.78.28.92.13.08,0-.31.14,0-.15.15.17.36.16.67-.12-.06-.15-.33-.16,0,.22.12.12.55.2.78.14,0,.16.52.27.92,0,0,0,.78,0,1.17h0c.16.06.16.47.2.75-.08,0-.12-.05-.17-.21l0,.27a.64.64,0,0,1,.1.33l-.11-.07a5.48,5.48,0,0,1,.09,1.2c.1,0,.27-.38.34.12a.11.11,0,0,1-.17-.09.51.51,0,0,1,0,.23l-.1-.19c0,.21.08.11.07.28-.07,0-.05.13-.11.1s0-.15,0-.21a1.18,1.18,0,0,1-.12.5s.1,0,.11.14c0,.36-.09.12-.13.34s0,.32.11.32a.24.24,0,0,1-.09.17c.05.19,0,.88.12.67v0h0c.1.62-.09,1.28-.05,1.9h0a6.62,6.62,0,0,0,.09,1.08c0,.11-.08.26-.12.21a1.94,1.94,0,0,1,0,.72c-.06-.29-.06.09,0-.29a1.7,1.7,0,0,0,0,.84c-.09-.14-.13.27-.1.44l.07-.25a3.21,3.21,0,0,1,0,.54l-.13-.1c-.17.75.25,1.35,0,1.92.09.2.08-.41.18-.23a6.61,6.61,0,0,1-.22.81c-.08.47.18.44.12.93.05-.06.18-.12.21.25s-.2.42-.23.2,0-.12,0-.12,0-.25-.09-.12l.05.05c-.05.17-.06.64-.13.53,0,.26.07.11.1-.08-.08.44,0,.69-.07,1.14,0-.07.08-.14.08-.06-.07.66.09.29.1.74-.08.26-.17-.09-.12.36-.05.28-.12.06-.16,0a3,3,0,0,1-.09,1l0-.22a2.06,2.06,0,0,1,0,.34l.09-.12c0,.13,0,.24-.05.23s.15-.09.23.17,0,.52-.08.58c.05-.54-.13,0-.14-.4a1.18,1.18,0,0,1,0,.32s0,0,0,0c-.12.51.14.24.12.77-.06-.07-.13.12-.12.21,0-.22.12-.1.17.09s0,.37,0,.55l0-.2c.07.07.06.24.08.48-.06,0,0-.22-.06-.13.12.26-.14.59-.06,1,0,.17-.13,0-.17.16.08.42-.1.45,0,.88.1-.12.08-.14.16.17l-.05-.72.13.46c0-.21-.05-.45,0-.58.07.22.05.19.13.09-.15.3.07.59,0,.93l-.24,0c-.11.51.11.91,0,1.58l0-.22c.09.1,0,.42,0,.63-.08,0-.11.11-.16.2s0,.49.14.55l-.11.3c-.05.53.21.62.18,1.13-.08-.16-.14.08-.2-.27,0,.19,0,.31,0,.29s0,.08,0,.16-.07.09-.11.09,0,.11-.15.15a0,0,0,0,1,0,0s-.27.13-.09.17c-.57-.08-1.41.44-1.91.36-.35.12-.78.26-1.11.34,0,0,0,0,.06-.05-.47,0-.23.29-.77.32-.29-.06.26-.12.08-.14-.12-.23-.62.17-1,.08l.08,0c-.28,0-.64.2-1.08.23a0,0,0,0,0,0,0,3.71,3.71,0,0,1-1.29.3c.13-.1.19-.06.11-.16s.06.17-.32.2c-.13-.05-.41-.1-.44-.21h.36c-.18-.15-.46,0-.65,0l0-.06c-.54,0-.57.14-1.15,0l0,.06c-.35.1-.25-.14-.59-.08l-.06-.17a5.38,5.38,0,0,1-1.13-.14c.24,0,.68,0,1,0a4.07,4.07,0,0,0-.8-.15.58.58,0,0,1,.26.06,1.92,1.92,0,0,1-1-.19c.19-.23-.95-.55-1.06-.94a6.08,6.08,0,0,1-1.71-1.49c0,.38-.16-.18-.31,0-.14-.14-.18-.2-.18-.23a5.72,5.72,0,0,1-.24-.57c0-.15.15.13.18.08-.23-.36,0-.2-.12-.47,0,.1-.18-.06-.27-.28l.08.35c-.42-.46-.09-.54-.45-1l.15.14c-.19-.25-.39-1-.63-1.28,0-.06.06-.14.11,0-.07-.24-.1-.51-.17-.77s-.09-.92-.15-1.25L9.7,43a.74.74,0,0,1-.43,0l0-.06c-.08,0-.18.09-.26,0s0,0,0-.05a.23.23,0,0,1-.16,0,.3.3,0,0,1-.18-.15.31.31,0,0,0,.12,0A5.42,5.42,0,0,1,8,41.41c.16,0,.08-.6.08-.88h0c-.1-.83-.3-1.42-.39-2.23.19-.49,0-1.73.33-2.39-.06.1-.13,0-.11-.18s0-.51.18-.43l0,.06c.19-.07.29-.4.43-.64l-.15-.15a6.55,6.55,0,0,0,.87-1c.29-.34.6-.63.84-.64s.31-.26.44-.4l0,.1a5.93,5.93,0,0,1,1.15-.45l-.08.1c.18,0,.27-.36.52-.2a.84.84,0,0,1-.05.17,5.4,5.4,0,0,1,.52.76,1.69,1.69,0,0,0,1,.7s-.06.05-.19,0a2.12,2.12,0,0,0,1.06.3l2.66-.09L14.69,33c-.12,0-.22,0-.22,0,.06-.13-.52-.28-.81-.48l.11,0a.94.94,0,0,1-.63-.31c-.05-.08,0-.12.07,0-.14-.28-.24-.11-.41-.46l.13.08c-.16-.28-.18-.23-.35-.34s-.27-.56-.19-.65a.44.44,0,0,1-.25-.34s.07,0,.09.05c-.11-.52-.36-.73-.32-1.12a.1.1,0,0,0,.06-.08c0,.43.16.75.13.73s0-.36.24-.14a1.87,1.87,0,0,1-.37-1l0-.05,0,0a.66.66,0,0,0,0-.21c0-.11,0-.17,0-.27s.06-.38.09-.54c-.11,0-.07-.22-.18,0,0,0,0,0,0,.15v.07h0c0,.11,0,.26,0,.42a.56.56,0,0,1,0-.46,2.7,2.7,0,0,1-.15-.27c.19-.22.37-.62.49-.65.08-.51.44-1.09.49-1.47.06-.14.15-.1.21-.12s-.11.15-.11.21c.13-.27.57-.65.53-.81.34-.18-.08.23.31-.1l0,.07a9.16,9.16,0,0,0,1.13-.71,1.71,1.71,0,0,1,1.37-.3.24.24,0,0,1-.13,0,7.65,7.65,0,0,1,.94.09,4.79,4.79,0,0,1,.64.19c.23.07.44.16.65.24A10.62,10.62,0,0,1,18,23a3.59,3.59,0,0,1,.15-1,1.17,1.17,0,0,0,0-.64l.13-.05c0-.13,0-.27,0-.4.1-.57.6-.76.82-1.41l-.11,0c.14-.2.44-.65.49-.55a.15.15,0,0,1,.09-.16l.05,0a5.72,5.72,0,0,1,.37-.49c.41-.23.08.22.64-.13.18-.15.54-.46.44-.47s-.25.08-.29,0l.21-.13c0-.18.09-.45-.56-.29-.12.11-.22.22-.33.33H20l.32-.2a.55.55,0,0,0-.4.31.27.27,0,0,0-.21,0c-.09.14-.15.29-.22.42s.05-.24-.2-.06c-.09.2.25,0,.05.25-.2.09-.21,0-.33.24-.06,0,0-.07,0-.16-.12.2-.35.48-.34.63-.21.12-.37.64-.5.54a3.41,3.41,0,0,1-.13.59c0-.21-.1,0-.2.17s-.17.45-.26.37c.09.32-.19,1-.11,1.49,0,0,0-.08,0-.12-.05.27-.11.34-.15.52.08,0,.13.14.17.28a1.13,1.13,0,0,0,.13.27c-.14.07-.19-.17-.34-.16.13,0,.15.21.26.27-.09,0,0,0-.18-.11.2.27,0,0,0,.15-.17-.14-.09-.21-.17-.17s0-.06,0-.08A.16.16,0,0,0,17.21,23.11Zm-5.91,6h0l0-.2Zm.12.78-.05-.34s.07,0,.08.07S11.42,29.74,11.42,29.86Zm.63-1.63c0,.11,0,.15,0,.16s0-.11,0-.19h0A.1.1,0,0,1,12.05,28.23Z"/><path class="cls-2" d="M11.93,28s0,0,0-.05l0,.07,0,0Z"/><path class="cls-2" d="M27.24,27.93v0s0,0,0,0Z"/><polygon class="cls-2" points="9.39 32.23 9.4 32.25 9.45 32.19 9.39 32.23"/><path class="cls-2" d="M27.58,23.73a.06.06,0,0,0,0-.05Z"/><path class="cls-2" d="M27.41,21.91v0Z"/><path class="cls-2" d="M27.18,20.51l-.06,0h.06Z"/><path class="cls-2" d="M27.56,42.68v0C27.59,42.86,27.58,42.78,27.56,42.68Z"/><path class="cls-2" d="M27.42,36.09a1.6,1.6,0,0,1,0,.21C27.48,36.19,27.49,36.1,27.42,36.09Z"/><polygon class="cls-2" points="27.28 50.37 27.28 50.37 27.2 50.39 27.28 50.37"/><path class="cls-2" d="M27.47,36.61a.8.8,0,0,0,0-.31A1.07,1.07,0,0,0,27.47,36.61Z"/><path class="cls-2" d="M22.67,16.8h-.08s0,0,0,0Z"/><path class="cls-2" d="M22.59,16.83l-.08,0A.13.13,0,0,0,22.59,16.83Z"/><path class="cls-2" d="M22.35,16.91l.16-.06A.31.31,0,0,0,22.35,16.91Z"/><path class="cls-2" d="M24.63,17.05l0,0S24.64,17,24.63,17.05Z"/><path class="cls-2" d="M25.19,17.31A1.89,1.89,0,0,0,24.7,17l0,0C24.79,17,25,17.29,25.19,17.31Z"/><path class="cls-2" d="M26.29,19.44c-.06-.13-.1-.28-.17-.42,0,.09,0,.21-.11,0C26.16,19.61,26.05,18.9,26.29,19.44Z"/><path class="cls-2" d="M26.69,20.8c-.08-.23-.06,0-.09,0C26.68,21,26.7,21,26.69,20.8Z"/><path class="cls-2" d="M27.1,31.21l-.1,0C27,31.38,27,31.19,27.1,31.21Z"/><polygon class="cls-2" points="27.58 33.23 27.64 33.05 27.55 32.95 27.58 33.23"/><polygon class="cls-2" points="26.84 34.41 26.83 34.32 26.86 34.65 26.84 34.41"/><path class="cls-2" d="M24.79,50.1l.09.11C25,50.15,25,50,24.79,50.1Z"/><path class="cls-2" d="M17.42,51.06A.53.53,0,0,0,17,51,2.07,2.07,0,0,0,17.42,51.06Z"/><path class="cls-2" d="M8.7,34.36l0,.14a1.79,1.79,0,0,1,.12-.24A.39.39,0,0,0,8.7,34.36Z"/><path class="cls-2" d="M31.32,23.26a13.52,13.52,0,0,1,.59-4.36,3.79,3.79,0,0,1,2.85-2.68c1.58-.15,3,1.37,3.47,3.07a14,14,0,0,1,.12,5.36A4.52,4.52,0,0,1,43.58,26a6.23,6.23,0,0,1,.89,6c2.22-1.05,5.09.41,5.89,3s-.64,5.76-3,6.53c1.65,1,1.91,3.75.93,5.54a7.75,7.75,0,0,1-4.58,3.37,19.07,19.07,0,0,1-9.08.78c-4.14-.66-4.11-1.46-4-6Q31,34.24,31.32,23.26Z"/><path class="cls-2" d="M31.6,23.27c0-.05-.12,0-.11.12l.14.1Z"/><path class="cls-2" d="M31.31,24.22c.06.17.18.36.31.26-.13-.17-.07-.21-.23-.39s.05-.25.1-.22,0-.22,0-.3a.75.75,0,0,0-.05.66C31.37,24.28,31.34,24.23,31.31,24.22Z"/><path class="cls-2" d="M30.71,38.11l0-.09A.29.29,0,0,0,30.71,38.11Z"/><path class="cls-2" d="M30.4,46.73c0-.07,0-.1,0-.1S30.38,46.74,30.4,46.73Z"/><path class="cls-2" d="M30.28,48.24v-.09S30.27,48.22,30.28,48.24Z"/><path class="cls-2" d="M30.71,38.11l-.05.23S30.69,38.22,30.71,38.11Z"/><path class="cls-2" d="M31.59,26.14a.27.27,0,0,0,0-.12v.12Z"/><path class="cls-2" d="M30.7,34.31v-.07l-.05-.06Z"/><path class="cls-2" d="M30.76,31.4c0,.06.11.09.16.12a.22.22,0,0,1-.08-.15Z"/><path class="cls-2" d="M31.1,26.78l0-.08Z"/><path class="cls-2" d="M30.62,36.4l-.05,0Z"/><path class="cls-2" d="M32.16,20h0S32.16,20,32.16,20Z"/><path class="cls-2" d="M31.28,23.26v-.05h-.07Z"/><path class="cls-2" d="M31.62,51h0C31.53,50.93,31.57,51,31.62,51Z"/><path class="cls-2" d="M48.45,41.59c-.09,0-.1-.05-.08-.09s0-.11-.13-.08C48.27,41.45,48.27,41.61,48.45,41.59Z"/><path class="cls-2" d="M31.58,26.22v.12A.62.62,0,0,0,31.58,26.22Z"/><path class="cls-2" d="M48.24,41.42Z"/><path class="cls-2" d="M38,52a.18.18,0,0,0-.07,0S37.94,52,38,52Z"/><path class="cls-2" d="M33.32,51.32l.11,0Z"/><path class="cls-2" d="M40.42,51.61a.37.37,0,0,0,.17,0h0A.18.18,0,0,1,40.42,51.61Z"/><polygon class="cls-2" points="42.9 51.08 42.85 51.07 42.77 51.1 42.9 51.08"/><path class="cls-2" d="M36.59,17.46v-.15C36.56,17.4,36.3,17.21,36.59,17.46Z"/><path class="cls-2" d="M31.53,26.14a.11.11,0,0,1,0,.08v-.08A0,0,0,0,0,31.53,26.14Z"/><path class="cls-2" d="M40.38,50.67l.38,0A2.9,2.9,0,0,0,40.38,50.67Z"/><path class="cls-2" d="M44.39,29.87l0-.08A.11.11,0,0,0,44.39,29.87Z"/><path class="cls-2" d="M41.88,50.38a.58.58,0,0,0,.23,0s0,0,0,0Z"/><path class="cls-2" d="M36.59,17.31Z"/><path class="cls-2" d="M34.61,16.93c.27-.05.11-.18.16-.27.36-.06.17.1.28.18s.41-.14.57-.06,0,0,0,.06c.28,0,.65.32,1,.42a0,0,0,0,1,0,0,.32.32,0,0,1,.11-.19c.12.1.28.15.26.26-.07-.08-.11-.05-.16-.06l.15.09c0,.2-.2-.13-.27-.05a2.08,2.08,0,0,1,.7.64c-.09.12-.38-.44-.29-.1l-.19-.33c0,.37-.14-.18-.15.18.26.39.39.37.59.82.12.06.09-.09.21,0,.43.61-.11.63.22,1.06.13.11.32.12.3.52l-.18-.1c.06.48.28.24.23.78-.07-.09-.1-.39-.11-.31-.08.35.12.23.15.49L38,21a11.65,11.65,0,0,1,.14,1.73s-.08-.14-.13,0a3.57,3.57,0,0,1,0,.46l0,.23,0,.31-.24,1.69.89-.29c.21-.12.39-.23.54-.3s.21,0,.09.06c.37,0,0-.09.17-.16s.2.05.11.09a2.21,2.21,0,0,1,1.78.09h-.1c.34.16.51-.09.79.18l-.07,0a3.43,3.43,0,0,1,1.65,1.71c.23,0,.32.77.55.73.06.51,0,.39.06,1.07,0,.18.21.23.26.46l-.13,0,.16.3-.14.17a1.52,1.52,0,0,1,0,.21c0-.09.06-.18.1-.17a1,1,0,0,1-.19.81c0,.14,0,.23,0,.41s-.06.44-.11.67c0,0,0-.24,0-.42,0,.71-.18.18-.29.9.07-.13.08,0,.11,0a7.17,7.17,0,0,0-.4,1l1-.4-.21.18c.31-.11.66-.26,1-.35a5.24,5.24,0,0,1,.58-.1,2.68,2.68,0,0,1,.89.06c-.2-.09-.13-.23.06-.2l0,.15c.14-.06-.18-.09.09-.14s.11.19,0,.2l.28,0s-.06,0-.1.09c.15-.06.39.3.6.24v0a4.37,4.37,0,0,1,1.13.81c.09-.07.21.09.38.16a6.43,6.43,0,0,1,.52,1.15c.17.28.13.05.25.17-.08.05,0,.5-.1.28a8.06,8.06,0,0,1,.26,1.39c0-.08.07-.17.1-.12s-.05.3-.1.28v0a2.27,2.27,0,0,1-.3,1.27,4.16,4.16,0,0,0-.47,1.07v0c-.08.2-.15.42-.25.62s0-.2-.15-.06a1.49,1.49,0,0,1-.53.69,2.26,2.26,0,0,1-.31.23l-.16.13c-.06,0-.22.12-.32.19a7.51,7.51,0,0,0-1.49.49l.76.51a2.88,2.88,0,0,1,.71.56,1.06,1.06,0,0,1,.29.58L48,43c.13.1,0,.18.06.29s0-.18.07-.11A4,4,0,0,1,47.63,47c-.28.38.18.46-.36.84,0-.08,0-.15,0-.23a6.52,6.52,0,0,1-2.38,1.92c.05-.05,0-.09.12-.13-.23,0-.73.32-.71.39-.15.06-.06,0-.17,0s-.47.31-.61.25,0-.05.08-.07-.64.19-.47.26c-.39.06-.71.26-1,.27-.17.18-.67.09-.7.28,0-.19-.7,0-.93.1.07-.07-.23,0-.14-.11-.28,0-.53.1-.47.19-.54-.16-1,.29-1.35,0a12.34,12.34,0,0,1-2.39.17c0-.18.85,0,.82-.17a6.45,6.45,0,0,1-1.86,0c-.18-.06.12-.07.18-.09-.72,0-1.37-.24-2-.28,0,0,.08,0,.15,0-.12,0-.27-.1-.28,0h.12c.16.18-.55.14-.59.18.27-.17-.56-.27-.14-.45-.08,0-.17,0-.18,0s-.11-.11,0-.12c-.38-.13-.29,0-.59-.2,0,0,.09,0,.15,0a.65.65,0,0,1-.52-.38s0,0,.09,0a2.18,2.18,0,0,1-.54-1.44c.2.18,0-.22.19-.26l-.06-.35-.07.14a4.2,4.2,0,0,1-.07-.84l.07.23,0-.59-.06.33c-.08-.31-.2,0-.15-.38a2.33,2.33,0,0,1,.1-.48h0a1.16,1.16,0,0,1-.05-.55c.06-.06.18.06.21,0-.13-.16,0-.74-.15-.94a.09.09,0,0,0,.13,0l-.1-.13c0-.14.05-.16.12-.14,0-.44-.2.14-.1-.38,0,0,0,0,0,.1.06-.52,0-1,0-1.49.16-.13,0,.43.16.27,0-.7-.15-1.44-.09-2.11l0,.12c-.22-.1.12-.49,0-.83,0,.08.12.11.1.08a11.29,11.29,0,0,0-.08-1.63l.05.09c.06-.27.05-.72.08-1-.05-.09,0-.25-.12-.15.35-.89-.13-1.73.16-2.52,0,.1.05.23.05.16l0-.69c-.1.06-.07.09-.15.23a1.08,1.08,0,0,1-.09-.45c.06.31.16,0,.22-.13,0,0-.06,0-.09,0,.18-.35-.2-.07-.07-.55l.05,0a2.44,2.44,0,0,1-.06-.55c.11-.08.05.2.14.21,0-.27-.2-.55-.08-.79,0,.11,0,.28.05.4a.9.9,0,0,0,.13-.5v0l.07-.46,0,.11c-.29-.35,0-.7-.22-1.17.17.46.1.08.23.12,0-.12.08-.3.12-.25-.1-.22.09-.36,0-.67,0,0,0-.24.11-.19,0-.28-.07.07-.12,0-.13-.44.2-1,0-1.66s-.2-.65-.25-1.16c.07-.17.14.14.14.14a1.69,1.69,0,0,0,0-.74c0,.05.07,0,.12-.08s-.15-.14-.08-.41a.53.53,0,0,1,.16.21c0-.25-.1-.49-.13-.75.07-.06.1.16.15.25,0-.29,0-.74-.16-.83l0,.18c0-.11.1-.05.12,0,.08.24-.05.35-.1.36l0-.18c-.24.18,0,.73,0,1.09L31.21,26l.13.38c-.05.08-.15.13-.17-.05-.09.26.06.23,0,.45,0,0,0,0,0,0l0,.26c0-.05-.12,0-.09-.12-.12.46.11.75,0,.91v0c0,.63.13.06.26.54l-.32.31.12.07c0,.07,0,.19-.07.17.09.25.06,0,.14.1-.13.32,0,.87-.18.94.1.12.09-.3.15,0-.23.09,0,.39-.09.67-.11-.09,0-.36-.15-.07.19.18-.06.56,0,.8.16,0,.05.53.09.94a10.54,10.54,0,0,0-.17,1.14h0c.15.08.11.47.13.76-.09,0-.13-.07-.16-.23v.27a.65.65,0,0,1,.09.33l-.12-.07a4.93,4.93,0,0,1,0,1.17c.11,0,.31-.35.37.13-.06,0-.16,0-.18-.09a.55.55,0,0,1,0,.23l-.09-.2c0,.21.08.12.07.28-.09,0-.07.13-.13.1s0-.15,0-.21a1.25,1.25,0,0,1-.14.49s.11,0,.11.14c0,.36-.1.12-.15.32s0,.32.12.33-.07.12-.1.16,0,.86.13.66v0h0a14.39,14.39,0,0,1-.07,1.86h0a7.77,7.77,0,0,0,.09,1c0,.11-.08.25-.13.2a1.66,1.66,0,0,1,0,.7c-.06-.27-.07.1,0-.28a1.62,1.62,0,0,0,0,.82c-.1-.13-.14.26-.11.43l.08-.24a2.94,2.94,0,0,1,0,.52L30.34,43c-.19.72.25,1.32-.05,1.86.09.2.08-.39.19-.21a5.92,5.92,0,0,1-.24.78c-.09.46.19.43.13.91.05-.06.18-.11.22.25s-.21.41-.25.2,0-.12,0-.12,0-.25-.09-.12l0,0c-.06.17,0,.64-.14.53,0,.26.09.11.11-.08a8.74,8.74,0,0,0,0,1.15c0-.08.08-.15.08-.08,0,.68.11.29.21.74,0,.27-.21-.06,0,.39s-.11.11-.18,0a11.4,11.4,0,0,0,.45,1.11l-.19-.2c.12.12.18.24.29.34a.57.57,0,0,1,0-.18c.08.13.19.21.15.24.16.07,0-.19.31,0s.5.28.49.41c-.49-.34,0,.17-.46-.1a2,2,0,0,1,.32.2s0,0-.07,0c.47.35.31,0,.83.19-.09,0,.08.19.17.2-.22-.08-.06-.15.15-.15s.37.06.55.1l-.2-.07c.09,0,.25,0,.49,0,0,.06-.22,0-.14,0,.28-.07.55.26.93.23.15.08,0,.14.13.2.42,0,.43.17.87.14-.11-.11-.13-.09.18-.16h-.71l.46-.09c-.21,0-.45,0-.57,0,.22,0,.2,0,.11-.13.26.2.58,0,.9.13l0,.25c.51.15.92,0,1.57,0l-.21-.05c.09-.1.41,0,.62,0,0,.08.12.11.21.16s.49,0,.54-.18l.3.1c.54,0,.59-.28,1.09-.3-.14.1.1.14-.24.24.18,0,.33,0,.33-.08s.45-.17.62-.12.07-.14.26-.16c0,0,0,0,0,0s.28-.1.1-.17c.57.18,1.43-.31,1.92-.22l1.09-.4s0,0,0,0c.46-.08.19-.31.71-.43.3,0-.24.18-.06.16.17.23.58-.27,1-.3l-.07.05c.29,0,.56-.4,1-.63,0,0,0,0,0,0,.19-.28.63-.67.91-1,0,.17-.11.18,0,.2.13-.14-.16-.08.09-.38.14,0,.36-.22.47-.17l-.24.28c.24,0,.32-.36.46-.5l0,.06c.33-.49.2-.58.49-1.12l-.07,0c0-.37.2-.23.21-.58l.19,0a10.32,10.32,0,0,0,0-1.19,2.75,2.75,0,0,1,.08,1,2,2,0,0,0,.07-.88.76.76,0,0,1,0,.3A4.1,4.1,0,0,1,49,44.57c.16,0,.18-.25.15-.59a3.22,3.22,0,0,1-.08-.92c-.17-.34-.32-.67-.53-1,0-.07-.15-.2-.15-.21a.25.25,0,0,0,0-.07.28.28,0,0,0-.09-.1s0,0,0,0c-.49,0,.07,0-.28-.15.11-.06.16-.09.18-.08a1.89,1.89,0,0,0,.55-.19c.17,0-.13.17-.08.2.4-.26.23,0,.52-.19-.11,0,.06-.21.26-.39a3,3,0,0,1-.36.19c.38-.56.58-.27.89-.9l-.07.22c.19-.3.7-1.12.6-1.52.05,0,.15-.09.11.06A9.45,9.45,0,0,0,51,36.47l.06.06c0-.16-.13-.27-.08-.46,0,0,.07.06.07,0a2.07,2.07,0,0,1-.15-.6l.09.16a3.17,3.17,0,0,0-.83-1.71c.17-.09-.12-.68-.32-.94h0a4.28,4.28,0,0,0-2.12-1.29,2.38,2.38,0,0,0-1.16-.45,5.24,5.24,0,0,0-.79-.05c-.12,0-.28,0-.37,0l-.05,0a.24.24,0,0,1-.12.19s-.34.24-.13,0h0l.08-.12c.07-.08.06-.09.07-.13l-.25.1a.86.86,0,0,0,.13-.17s0-.07.07-.23a3.32,3.32,0,0,0,0-.77,3.8,3.8,0,0,1,0-1.19,6.56,6.56,0,0,0-.23-.62l.12,0a4.31,4.31,0,0,0-.51-1.47l.13.09c-.17-.37-.53-.29-.73-.58l.09-.19a3.5,3.5,0,0,0-1.52-1.43s.07-.05.17,0c-.26-.22-1.11-.71-1.09-.42.06-.17-.69-.25-1.06-.22l.07-.11a2.42,2.42,0,0,1-.78.18c-.1,0-.09-.1,0-.07-.35,0-.26.11-.68.1l.15-.1c-.38,0-.3.09-.42.19s-.41.1-.3,0l0,.05c-.11.12-.13,0-.1-.09s.07,0,.08,0a.56.56,0,0,0,0-.36,1,1,0,0,1,.05-.5.12.12,0,0,0,.08-.06c0,.21,0,.4-.06.53s0,.11,0,.1.14-.12.29-.08c0,0,0,0-.07-.09l0-.3a2,2,0,0,1,0-.59l0-.05v0a.87.87,0,0,0,0-.23,1.45,1.45,0,0,0,0-.29c.09,0,.06-.42.06-.6-.12,0-.11-.22-.2,0,0,0,0,0,0,.16s0,.06,0,.07h0v.45a.67.67,0,0,1,0-.49l-.2-.25c.17-.25.22-.73.31-.81a3.1,3.1,0,0,0-.58-1.6c-.07-.14,0-.2,0-.26a1.06,1.06,0,0,0,.13.22c-.14-.3-.38-.89-.56-.88-.14-.39.24.13-.06-.34l.08,0a2.12,2.12,0,0,0-1-1.11c-.44-.24-.78-.42-1.39-.77.08,0,.11.07.12.1a2.32,2.32,0,0,0-2.12.22,7,7,0,0,0-1.55,1.46.92.92,0,0,0-.19.65l-.15,0a3.12,3.12,0,0,0,0,.43c-.08.55-.59.86-.51,1.61l.1-.08c-.06.25,0,.8-.14.75s.08.09,0,.18h-.07l.07.62c-.07.48-.26-.09-.3.61,0,.26.17.74.22.65s0-.27.11-.27l0,.23c.2.05.39.24.54-.33l-.1-.41.1-.12v.33a.48.48,0,0,0,0-.44.27.27,0,0,0,.11-.16l-.16-.4c.08,0,.14.18.2-.07s-.19.16-.22-.15.17-.11.12-.34c.05,0,.08,0,.09.11,0-.2,0-.51-.05-.62.13-.18.08-.65.26-.59a1.12,1.12,0,0,1,0-.53c.11.36.2-.63.41-.45-.11-.29.25-.78.4-1.16a.15.15,0,0,1,0,.11,1.24,1.24,0,0,1,.36-.27c-.12-.13.09-.41.18-.61.31-.05,0,.25.17.31-.11-.1.26-.38.13-.41.22,0,.18-.05.33,0-.07-.2.14-.11.24-.28.3,0,.12.15.39,0C34.84,16.82,34.61,16.92,34.61,16.93Zm3.59,5.85h0v0Zm-.05.73,0-.32s.08,0,.07.08S38.19,23.4,38.15,23.51ZM39.06,22c0,.13,0,.17,0,.18v-.21h0Z"/><path class="cls-2" d="M38.9,21.76s0,0,0-.05l0,.07,0,0Z"/><path class="cls-2" d="M30.73,38h0s0,0,0,0Z"/><polygon class="cls-2" points="44.29 29.12 44.32 29.11 44.28 29.05 44.29 29.12"/><path class="cls-2" d="M31.25,33.93s0,0,0,0S31.26,33.91,31.25,33.93Z"/><path class="cls-2" d="M31.32,32.17l.05-.25C31.35,32,31.33,32.11,31.32,32.17Z"/><path class="cls-2" d="M31.42,30.81l-.05,0h0Z"/><path class="cls-2" d="M33.41,50.53h.05C33.58,50.54,33.5,50.53,33.41,50.53Z"/><path class="cls-2" d="M30.86,46a1.6,1.6,0,0,1,.05.21C30.93,46.06,30.93,46,30.86,46Z"/><polygon class="cls-2" points="40.34 50.67 40.34 50.68 40.38 50.67 40.34 50.67"/><path class="cls-2" d="M30.91,46.47a.75.75,0,0,0,0-.3A1,1,0,0,0,30.91,46.47Z"/><path class="cls-2" d="M31.64,24.94v-.07s0,0,0,0Z"/><path class="cls-2" d="M31.63,24.86l0-.07S31.61,24.85,31.63,24.86Z"/><path class="cls-2" d="M31.59,24.64l0,.15A.19.19,0,0,0,31.59,24.64Z"/><path class="cls-2" d="M31.53,26.73l0,0Z"/><path class="cls-2" d="M31.53,27.28a2.37,2.37,0,0,0,.08-.51l0,0C31.64,26.84,31.46,27.15,31.53,27.28Z"/><path class="cls-2" d="M30.94,29.54l0-.46c0,.08-.11.19-.11,0C30.71,29.63,31,28.94,30.94,29.54Z"/><path class="cls-2" d="M30.83,31c0-.25-.07,0-.09,0C30.78,31.1,30.79,31.14,30.83,31Z"/><path class="cls-2" d="M30.55,41.2l-.11,0C30.45,41.37,30.48,41.18,30.55,41.2Z"/><polygon class="cls-2" points="31.05 43.18 31.12 43 31.02 42.91 31.05 43.18"/><polygon class="cls-2" points="30.25 44.31 30.23 44.23 30.27 44.55 30.25 44.31"/><path class="cls-2" d="M42.49,51.3l-.09-.11C42.28,51.24,42.29,51.39,42.49,51.3Z"/><path class="cls-2" d="M48.69,47.08a.47.47,0,0,0,.22-.4C48.84,46.85,48.72,47,48.69,47.08Z"/><path class="cls-2" d="M45.29,31s0,0,0,0l0-.09Z"/><path class="cls-2" d="M47,12.45a63.11,63.11,0,0,1,.33,7.78"/><path class="cls-2" d="M47,20.22s.15,0,.13,0H47Z"/><path class="cls-2" d="M47.32,20.15a2.07,2.07,0,0,0-.39,0l.3,0s-.06,0-.12,0,0,0,.07,0,.14,0,0-.05Z"/><path class="cls-2" d="M47.6,19.05h0Z"/><path class="cls-2" d="M47.7,18.36h0Z"/><path class="cls-2" d="M47.89,18.24h0Z"/><path class="cls-2" d="M47.6,19.05l.06,0C47.6,19,47.62,19,47.6,19.05Z"/><path class="cls-2" d="M46.91,20h0Z"/><path class="cls-2" d="M47.74,19.35h0Z"/><path class="cls-2" d="M47.77,19.58h-.21l.1,0Z"/><path class="cls-2" d="M47.51,20h0Z"/><path class="cls-2" d="M47.78,19.18h0Z"/><path class="cls-2" d="M46.36,12.78h0Z"/><polygon class="cls-2" points="47.06 12.44 47.07 12.45 47.15 12.44 47.06 12.44"/><path class="cls-2" d="M48.07,18h0S48.08,18,48.07,18Z"/><path class="cls-2" d="M47.9,16c-.13,0-.17,0-.31,0A1.1,1.1,0,0,0,47.9,16Z"/><path class="cls-2" d="M46.93,20h0Z"/><polygon class="cls-2" points="47.59 16.05 47.58 16.05 47.57 16.06 47.59 16.05"/><path class="cls-2" d="M48,17.52h0Z"/><path class="cls-2" d="M47.77,17.9h0Z"/><path class="cls-2" d="M47.76,17.34s0,0,0,0h0S47.78,17.33,47.76,17.34Z"/><polygon class="cls-2" points="47.75 17.14 47.72 17.14 47.73 17.15 47.75 17.14"/><path class="cls-2" d="M46.49,13.37l.13,0C46.51,13.36,46.47,13.34,46.49,13.37Z"/><path class="cls-2" d="M47,20h0Z"/><path class="cls-2" d="M46.6,17.36l0,0S46.6,17.35,46.6,17.36Z"/><path class="cls-2" d="M46.62,14.78h0Z"/><path class="cls-2" d="M46.59,17.24l.1,0h0Z"/><path class="cls-2" d="M46.62,13.35Z"/><path class="cls-2" d="M46.25,13.18s.19,0,.3,0-.14,0-.24.05c.06,0,.24,0,.23,0h-.08c.15,0,0,.07.21.08h-.05l.26,0s.13,0,0,0h0c-.18,0-.06,0-.2,0,.06,0,.22.05.17.07s-.07,0-.22,0l.06,0c-.28,0,0,0-.28,0-.05.05.1,0,0,.08h.24c.19,0-.44.09-.2.11s.35,0,.23,0h-.2c0,.05.29,0,.16.06s-.07,0-.1,0,.12,0,.12,0l-.18,0s.17.08.2.12a1,1,0,0,0-.16,0c.1.05,0,.13-.11.2h.06c-.06,0,.09,0,.15,0s-.08,0-.13,0c.13,0,.29.09.13.15h0c-.06,0,.32,0,.18.06h0c-.06.07.09.14-.14.21.22,0-.09.08.21.07a1.31,1.31,0,0,0-.3.1s.19,0,.23,0h-.16l.17,0-.2,0,.05,0,.12,0c.07,0-.11.07-.19.08l.14.06a.39.39,0,0,1-.13,0c.16,0-.17,0,0,0h.13c-.1,0-.1.06,0,.08h-.12c0,.06.06.1.07.16a.58.58,0,0,1,.26,0h-.17c.11,0,.06,0,.19,0s-.19,0-.25,0l.06,0H46.5c.11,0-.17.05,0,.05h-.05c0,.05.06.07.07.12a.86.86,0,0,1,.24,0c-.05,0-.16.08-.15.12a1.48,1.48,0,0,0,.21,0c-.13,0-.11,0-.21,0s0,.06.14.11a.26.26,0,0,1,.12,0s0,0-.12,0h0c.21.06-.38.18-.1.22h0l.14,0s-.1,0-.18,0c.23.05,0,.1.12.14-.39.06,0,.14-.21.2h.09c.09,0,0,0-.07,0s.08,0,.13,0-.13.24-.21.36.49,0,.27.07h-.18c.22.08,0,.18.18.26l-.09,0c-.12,0,0,.07.1.07h-.15c-.07,0,.17,0,0,.06h-.05c.06,0,0,.06.13,0-.07,0,.07.06,0,.09.17,0-.07.05.16.05-.24,0-.19.06-.08.08-.07,0-.07,0-.17,0s0,.05.17,0c-.29.05.23.08-.14.11a1.21,1.21,0,0,1,.28.19c-.24,0,0-.07-.28-.06.1.05.31.08.25.14s-.1,0-.14,0,0,.11.11.16h-.07s0,0,.08,0h0a2.29,2.29,0,0,1,.41,0c-.31,0-.08.05-.47,0a.27.27,0,0,0,.14,0,.25.25,0,0,1-.14,0c.06,0,.17,0,.17.05h-.13c.1,0,.2,0,.16.06h-.08c0,.05.28.08.18.13s-.08,0-.27,0l.06,0H47s.14.05.08.07l-.08,0,0,.05.07,0c.1,0,.25,0,.19,0s0,0-.11,0h0c.07,0,.13,0,.08,0H47c.16,0,0,.06.22.07H47s.25,0,.14,0h0c-.05,0,.09.08,0,.12s0,0-.21,0c0,.06.23.11.19.17h0c.28,0-.14,0,0,.06H47s.07.07.15.13h-.07c-.06,0,0,.06-.07.08a.44.44,0,0,0,.17,0c-.41.07.22.14-.12.2,0,0-.07,0-.07,0l.07.05a.79.79,0,0,0,.17,0c.07,0,.13,0,.12,0a.57.57,0,0,0-.26,0h.12c-.22,0,.24,0,.1,0h-.07s.12,0,.1,0-.06,0-.18,0,.27,0,.13.06l-.08,0c-.17,0-.13,0-.15,0h0l-.07,0h0c.37,0,.07.06.31.1a.73.73,0,0,0-.29,0l-.14,0c.13,0-.1,0,.09.05-.06,0,0,0-.14,0,0,0,.09,0,.15,0s-.21.08,0,.13.27.06.36.1a.77.77,0,0,1-.19,0c-.07,0-.06,0,0,.05h-.14s.18,0,.11,0L47,20l.19.07A.84.84,0,0,1,47,20a.34.34,0,0,0,.22.07h-.1c-.11,0,0,0,.1,0h0c.3,0-.05-.06,0-.09l.21,0-.18,0a.73.73,0,0,1,.21,0c.11,0-.07,0,0,0h0l-.07,0c.05,0,.16,0,.12,0,.13,0-.16-.06,0-.07h0c-.07-.05-.16,0-.35-.05l.4,0h-.16s0,0,.08,0a1,1,0,0,0-.17,0c.14,0-.07-.07.18-.07-.12,0-.09,0-.17,0,.27,0,0,0,.07-.06s.07,0,.2,0c-.24,0,.05,0,0-.06s-.07-.05-.14-.08.11-.06.18-.09h0c-.19,0-.16,0-.2-.06a1,1,0,0,1,.22,0v0l-.11,0h.14s-.17-.06-.07-.1a1.79,1.79,0,0,1-.47,0h.23s-.06,0,0,0l.12,0c.06,0-.1,0-.09,0a.84.84,0,0,1,.16,0s0,0,0,0l.16,0a.37.37,0,0,1-.16,0s.13,0,.18,0,0,0-.15,0,.07,0,.11,0,0-.07-.18-.05h0c-.15,0,.09-.1,0-.15h.06c-.06,0,0-.06-.15-.08a.26.26,0,0,1,.15,0s-.09,0,0-.06.08,0,.07,0,.13,0,0-.06c.13,0,.16,0,.12,0l-.09,0s0,0,0,0h.18c.21-.06-.37-.1,0-.15-.12,0-.09,0-.23,0,0,0,.27-.06.27-.07s-.25,0-.19-.07a.88.88,0,0,1-.28,0,.63.63,0,0,1,.31,0h0a.23.23,0,0,0,.12,0h-.06c.06,0,.05-.05.16,0a.16.16,0,0,0-.14,0c.09,0,0-.06.06-.09s-.1,0-.1,0-.12,0-.15-.05.23,0,.15,0a.37.37,0,0,1,.21,0c-.12,0,.08-.06.1-.08h.05s0,0,0,0H48a.1.1,0,0,1,.07,0c-.08,0-.2,0-.31,0,.06,0-.07,0,.09,0,0,0,.17,0,.2,0s0,0,0,0h0c.15,0-.19,0-.18-.06s.17,0,.15,0-.15,0-.22,0-.06,0,0,0l0,0c-.1,0-.08,0-.11,0s0,0,.08,0c-.17,0,.17-.05.06-.08a1.25,1.25,0,0,0,.21,0c-.12,0,.13,0,0-.06a.55.55,0,0,1-.22,0l.09.05-.18,0s.08,0,.06,0a.54.54,0,0,0-.18,0c.19,0-.11,0,0-.07h.31c.14,0-.16-.07-.09-.12l0,0c-.12,0,0,0-.07-.05a1.06,1.06,0,0,0,.21,0c-.08,0,0,0-.2,0l.13,0c.06,0-.29,0-.26-.08a.78.78,0,0,1,.27,0s0,0-.05,0-.14,0,0,0-.15,0-.14,0h0a.48.48,0,0,0-.19,0c.33-.05,0-.11.25-.16,0,0-.07-.06-.07-.09s.05,0,0,0-.3,0-.2-.06.1,0,.16,0c.34,0,0-.05.15-.08h0c.11,0-.13-.05-.11-.09h0a.58.58,0,0,1-.28-.09,1.47,1.47,0,0,0,.21,0s-.22,0-.26,0a2.6,2.6,0,0,1,.28,0v0c.19,0,0,0,0-.06h.08s-.23,0-.22-.08h-.06c-.2,0,.12,0,0-.05l.21,0a1,1,0,0,1-.24-.08,2.74,2.74,0,0,1,.32.07s0-.06-.12-.06.07,0,0,0-.24,0-.24-.08c.4,0,.1-.09.41-.12-.15-.06.06-.12,0-.19-.31,0,0,0-.33,0,0,0,0,0,0,0l.19-.05c.1,0,.07,0,.15,0s.13,0,.22-.05c-.12,0-.17,0-.13,0l-.14,0c-.18,0,.26-.05.09-.09h.11c-.07,0,0-.1-.27-.11a.4.4,0,0,1,.15,0c0-.06-.28-.12-.12-.17h.07s-.14,0-.07,0h.09s-.14,0-.1,0h.09c.1-.07-.22-.08-.27-.13A.54.54,0,0,0,48,15.3h0c0-.07-.2-.1-.29-.16.24-.06.09-.14.23-.21h-.2s-.17,0,0,0h0c.21,0,.15-.05.15-.08l-.27,0c.4-.09-.16-.16.2-.22l-.14,0h.14s.06-.06,0-.11H48s-.43,0-.44,0l.22,0c0-.05.19-.11,0-.15h.11s.14-.11-.16-.08c.2,0,0-.05-.08-.07h.15c-.19,0-.24,0-.29,0h.08c.07,0-.14,0-.07,0h.1s0,0-.15,0,0-.05.16-.06c-.08,0-.19,0-.15,0h.1c.09-.06-.18-.06,0-.1h.09s0,.06,0,.06a1.65,1.65,0,0,1,.34,0c-.1,0-.32,0-.26-.07h0l0,0c.11,0,0,0,.06,0a.94.94,0,0,0-.25,0h0v0c-.07,0-.14,0-.06,0h-.24c.21,0,.32-.09.44-.1-.08,0-.06-.1-.34-.1,0,0,.08,0,.12,0h.07c-.08,0,0-.07-.23-.06.08,0,.18,0,.14,0h.06c.3-.11-.5-.1-.12-.22h-.06c.16-.12-.19-.2.08-.33,0,0-.07,0-.16,0l.15,0-.18,0c-.14,0,.38-.11.12-.14l-.11,0s-.06-.06.06-.07-.11,0-.06,0h.08l-.14,0s.33,0,.34-.08a.75.75,0,0,0-.3,0l-.14,0h0a2.92,2.92,0,0,0-.66.09l.15,0-.12,0v0c-.11,0,0,0,.06,0l-.13,0h.24a.74.74,0,0,0-.24,0c.11,0,.21,0,.28,0-.11,0-.2,0-.1,0h-.13c.08,0,0,0,.17,0-.14,0,0,0-.19.07l.19,0c-.28,0,0,.06-.31.08.25,0,.12.06.26.08h-.05a.72.72,0,0,1-.14,0,2.25,2.25,0,0,1,.39,0,3.28,3.28,0,0,1-.43,0c.16,0,.17,0,.3,0l-.22,0c.25,0,0,0,.2,0-.12,0-.24,0-.16.05A.56.56,0,0,1,46.25,13.18Zm.5.65Zm0,.06a0,0,0,0,0,0,0h.11A.45.45,0,0,0,46.76,13.89Zm1-.21s0,0,0,0l0,0h.06Z"/><path class="cls-2" d="M47.58,13.68h0Z"/><path class="cls-2" d="M47.58,19.06h0Z"/><polygon class="cls-2" points="46.54 14.71 46.58 14.71 46.54 14.71 46.54 14.71"/><path class="cls-2" d="M47.07,19.38h0Z"/><path class="cls-2" d="M47,19.52l0,0Z"/><path class="cls-2" d="M47,19.63h0Z"/><path class="cls-2" d="M46.78,17.92h0S46.76,17.92,46.78,17.92Z"/><path class="cls-2" d="M47.13,18.43l-.07,0S47.05,18.43,47.13,18.43Z"/><polygon class="cls-2" points="46.59 17.36 46.59 17.36 46.59 17.36 46.59 17.36"/><path class="cls-2" d="M47.07,18.39s0,0,0,0S47.09,18.39,47.07,18.39Z"/><path class="cls-2" d="M46.89,20.09Z"/><path class="cls-2" d="M46.91,20.09h0Z"/><path class="cls-2" d="M47,20.11h0S46.92,20.11,47,20.11Z"/><path class="cls-2" d="M47,20h0Z"/><path class="cls-2" d="M47,19.9s-.12,0-.08,0h0C46.83,19.94,47,19.92,47,19.9Z"/><path class="cls-2" d="M47.61,19.73l0,0c.06,0,.13,0,.15,0C47.89,19.73,47.59,19.78,47.61,19.73Z"/><path class="cls-2" d="M47.69,19.62s.09,0,.12,0A.17.17,0,0,0,47.69,19.62Z"/><path class="cls-2" d="M47.7,18.8h.13S47.78,18.8,47.7,18.8Z"/><polygon class="cls-2" points="47 18.65 46.92 18.66 47.04 18.67 47 18.65"/><polygon class="cls-2" points="47.96 18.55 47.98 18.55 47.93 18.53 47.96 18.55"/><path class="cls-2" d="M47.88,17.17h-.16S47.94,17.18,47.88,17.17Z"/><path class="cls-2" d="M47.7,16.58c.08,0,.13,0,0,0S47.67,16.57,47.7,16.58Z"/><polygon class="cls-2" points="47.87 14.78 47.93 14.79 47.88 14.77 47.87 14.78"/><path class="cls-2" d="M42.74,16.14l8.41.33"/><path class="cls-2" d="M51.14,16.82s0-.14,0-.12l0,.17Z"/><path class="cls-2" d="M51.07,16.5a1.79,1.79,0,0,0,0,.39c0-.17,0-.1,0-.3,0,0,0,.06,0,.12s0,0,0-.06,0-.15,0,0A.41.41,0,0,1,51.07,16.5Z"/><path class="cls-2" d="M49.89,16.18v0A0,0,0,0,1,49.89,16.18Z"/><path class="cls-2" d="M49.15,16.05s0,0,0,0S49.15,16,49.15,16.05Z"/><path class="cls-2" d="M49,15.86h0S49,15.84,49,15.86Z"/><path class="cls-2" d="M49.89,16.18l0-.06C49.87,16.18,49.88,16.17,49.89,16.18Z"/><path class="cls-2" d="M50.89,16.91s0,0,0,0h0Z"/><path class="cls-2" d="M50.22,16.05h0v0Z"/><path class="cls-2" d="M50.47,16s0,.15,0,.21,0-.09,0-.1Z"/><path class="cls-2" d="M50.86,16.31v0Z"/><path class="cls-2" d="M50,16v0Z"/><path class="cls-2" d="M43,16.84v0Z"/><path class="cls-2" d="M42.74,16.1h0v0Z"/><path class="cls-2" d="M48.81,15.66Z"/><path class="cls-2" d="M46.69,15.68c0,.14,0,.17,0,.32A1.57,1.57,0,0,0,46.69,15.68Z"/><path class="cls-2" d="M50.88,16.89h0Z"/><path class="cls-2" d="M46.67,16Z"/><path class="cls-2" d="M48.28,15.73v0Z"/><path class="cls-2" d="M48.66,16v0Z"/><path class="cls-2" d="M48.06,15.93s0,0,0,0v0S48.06,15.9,48.06,15.93Z"/><path class="cls-2" d="M47.85,15.92v0h0Z"/><path class="cls-2" d="M43.66,16.79a.53.53,0,0,1,0-.13C43.65,16.77,43.62,16.8,43.66,16.79Z"/><path class="cls-2" d="M50.89,16.83s0,.05,0,.06h0Z"/><path class="cls-2" d="M48,17.09l0,0Z"/><path class="cls-2" d="M45.19,16.84h0Z"/><path class="cls-2" d="M47.87,17.08s0-.08,0-.1,0,0,0,0Z"/><path class="cls-2" d="M43.41,17s0-.19,0-.3,0,.14,0,.24c0-.05.05-.22.07-.21v.08c0-.15.07,0,.11-.2v.05a2.18,2.18,0,0,1,0-.27s0-.12,0,0,0,.05,0,.09l0-.06c0,.18,0,.06,0,.2,0-.06.07-.21.1-.16s-.06.06,0,.22l0-.07c0,.28,0,0,0,.28,0,.06.06-.09.1,0,0-.1,0-.15,0-.25s0,.45.09.22,0-.35.06-.23l0,.21s0-.29.08-.16,0,.07,0,.09,0-.11.05-.11v.18s.1-.15.16-.18a.43.43,0,0,0,0,.16c.07-.09.14,0,.2.14l0-.16a.17.17,0,0,1,0,.1c0,.06,0-.09,0-.16s0,.09,0,.14c.05-.13.14-.28.18-.11l0,.05c0,.06.06-.32.09-.17v0c.07.07.17-.06.22.17,0-.22.07.1.09-.21a1.14,1.14,0,0,0,.08.32s0-.19.06-.22v.16l0-.17v.19l0,0a.2.2,0,0,1,0-.12c0-.07.07.12.06.2l.08-.13a.5.5,0,0,1,0,.13c.05-.17,0,.17,0,0s0-.1,0-.13.06.1.09.06V17s.11,0,.17,0a.57.57,0,0,1,0-.27v.17c0-.1,0-.06,0-.19a.54.54,0,0,1,0,.25l0-.06s0,.08,0,.14c0-.1,0,.18.06,0V17c.06,0,.09-.05.14-.06a1.32,1.32,0,0,1,.05-.23c0,.05.07.17.11.16a1.52,1.52,0,0,0,0-.21c0,.13,0,.12,0,.21s.06,0,.13-.13a.48.48,0,0,1,0-.12s0,.06,0,.12h0c.09-.19.16.4.23.13h0l.06-.14s0,.1,0,.18c.08-.22.1,0,.16-.11,0,.4.15,0,.2.23V17c0-.09,0,.05,0,.08a.64.64,0,0,1,0-.14c.13-.11.25.15.37.24s.05-.49.1-.26l0,.17c.11-.2.2,0,.3-.16,0,0,0,.1,0,.1s.07,0,.07-.1,0,.09,0,.15.06-.16.06,0a.2.2,0,0,1,0,0c0-.06.06,0,0-.12,0,.07.07-.07.1,0,0-.16,0,.08.07-.15,0,.24,0,.2.08.09,0,.07,0,.07,0,.17s.05-.05.05-.17c0,.29.1-.22.11.14a1,1,0,0,1,.22-.26c0,.24-.07,0-.08.27.07-.09.11-.3.17-.24s0,.11,0,.15.13,0,.19-.1a.14.14,0,0,1,0,.06s0,0,0-.07v0a1.8,1.8,0,0,1,.06-.41c0,.31,0,.08,0,.47a.37.37,0,0,0,0-.14.23.23,0,0,1,0,.14c.05-.06,0-.17.07-.17s0,.07,0,.14c0-.11,0-.21.07-.16s0,.07,0,.07.1-.27.15-.17,0,.08,0,.28l0-.06v-.1s.06-.13.08-.07l0,.08.06,0,0-.07c0-.1,0-.25,0-.19s0,0,0,.12h0c0-.06,0-.13,0-.08a2.44,2.44,0,0,0,0,.26c0-.16.06,0,.08-.22,0,0,0,.15,0,.17l0-.14a.62.62,0,0,1,0,.15s0-.25,0-.14,0,0,0,.05.09-.08.13,0,0,0,0,.21c.06,0,.13-.23.19-.18v0c0-.27,0,.14.07,0a.85.85,0,0,0,0,.13s.08-.07.15-.15v.07c0,.06.06,0,.08.07a.63.63,0,0,0,0-.16c.06.41.16-.21.21.13,0,0,0,.06,0,.06l.07-.06a.65.65,0,0,0,0-.17c0-.07,0-.13,0-.13a.57.57,0,0,0,0,.26v-.11c0,.22,0-.25.05-.1v.07s0-.12,0-.1,0,.06,0,.18.06-.27.08-.12,0,0,0,.07,0,.13,0,.15h0l0,.08v-.05c.05-.36.07-.06.12-.3-.05.22,0,.13,0,.29a.61.61,0,0,1,0,.14c0-.13,0,.1.06-.09,0,.05,0,0,0,.14,0,0,0-.09,0-.16s.08.22.14,0,.07-.27.11-.35a.53.53,0,0,1,0,.18c0,.08,0,.07.07,0a.33.33,0,0,0,0,.14s0-.19,0-.11l0,.21c0-.05.05-.15.07-.19a.53.53,0,0,1,0,.19.49.49,0,0,0,.08-.22l0,0a.41.41,0,0,1,0,.15c0,.11,0-.05,0-.1v0c0-.3-.06.05-.09,0l0-.22,0,.18a1.34,1.34,0,0,1,0-.21c0-.11,0,.08,0,0s0,0,0,0l0,.06s0-.15,0-.12c0-.13-.07.16-.08,0v0c-.05.08,0,.16-.06.35v-.24s0,0,0-.08c0,.11,0,.07,0,.17,0-.14-.07.07-.07-.19,0,.13,0,.1,0,.18,0-.27,0,0-.06-.08s0-.06,0-.19c0,.24,0-.06-.07,0s0,.08-.09.14-.06-.11-.09-.18v0c0,.19,0,.15-.07.19a.79.79,0,0,1,0-.21h0a.24.24,0,0,1,0,.12l0-.15s-.07.17-.11.07a1.71,1.71,0,0,1,0,.47,1.21,1.21,0,0,1,0-.23s0,.06,0,0l0-.12c0-.06,0,.1,0,.09a.84.84,0,0,0,0-.16s0,0,0,0A.35.35,0,0,1,50,16a.34.34,0,0,1,0,.16S50,16,50,16s0,0,0,.15c0,0,0-.08,0-.12s-.07,0-.06.18h0c-.06.15-.11-.09-.16,0v-.05c0,.06-.07,0-.09.14a.4.4,0,0,1,0-.15s0,.09-.06,0,0-.08,0-.07,0-.13-.07,0c0-.13,0-.17,0-.13v.1s0,0,0,0v-.17c0-.22-.12.36-.16,0,0,.12,0,.09,0,.23,0,0,0-.28,0-.28s-.05.25-.09.19a.86.86,0,0,1,0,.28.64.64,0,0,1,0-.31s0,0,0,0a.18.18,0,0,0,0-.12V16c0-.06-.05-.06,0-.16a.17.17,0,0,0,0,.14c0-.09-.06,0-.1-.07s0,.11,0,.11,0,.11-.06.14,0-.23,0-.15a.49.49,0,0,1,0-.21c0,.11-.06-.09-.08-.11l0-.05s0,0,0,0v.12a.1.1,0,0,1,0-.07c0,.08,0,.21,0,.32,0-.07-.05.06-.05-.1,0,.06,0-.17,0-.19s0,0,0,0,0,0,0,0,0,.19-.07.18,0-.18,0-.16,0,.16,0,.23,0,.05-.05,0l0,0c0,.09,0,.08,0,.11s0-.05,0-.09c0,.17,0-.17-.08-.06,0-.06,0-.17,0-.22,0,.12,0-.13-.08,0a.41.41,0,0,1,0,.22l.06-.09,0,.18s0-.07,0-.05a.33.33,0,0,0,0,.17c0-.19-.06.11-.08,0V15.8c0-.14-.08.16-.13.08v0c0,.13,0,0-.05.07,0-.11,0-.14,0-.21,0,.08,0,0-.06.2v-.14c-.05-.06-.07.3-.11.26a1.85,1.85,0,0,1,0-.27s0,0,0,.05,0,.14-.05,0c0,.05,0,.16,0,.15v0a.57.57,0,0,0,0,.18c0-.33-.12,0-.15-.26a.3.3,0,0,1-.1.07s0,0,0,0,0,.3-.08.19,0-.09,0-.16c0-.34-.06,0-.08-.15v0c0-.12-.07.12-.1.1v0a.44.44,0,0,1-.12.27.67.67,0,0,0,0-.2s0,.21,0,.25a1.47,1.47,0,0,1,0-.28h0c0-.19,0,0,0,0v-.08c-.05,0-.05.23-.1.22v.06c0,.2,0-.12-.05,0v-.21a1,1,0,0,1-.11.24c0-.15.07-.23.09-.32s-.06,0-.07.11,0-.07,0,0-.06.24-.09.23c0-.4-.09-.1-.11-.42-.06.15-.12-.06-.19,0,0,.31,0,0,0,.33,0,0,0,0,0,0l0-.19c0-.1,0-.07,0-.15s0-.13,0-.22c0,.12,0,.16,0,.12l0,.15c-.06.17,0-.27-.09-.11l0-.1c0,.06-.1,0-.14.26,0,0,0-.13,0-.15s-.16.27-.21.1v-.07s0,.14,0,.06a.28.28,0,0,0,0-.08s0,.14-.06.09l0-.09c-.06-.1-.1.21-.16.27a.57.57,0,0,0-.06-.35v0c-.07,0-.13.18-.2.27,0-.25-.14-.11-.21-.25a.62.62,0,0,1,0,.2c0-.05,0,.16,0-.05h0c0-.21,0-.15-.07-.16v.28c0-.41-.19.14-.21-.23,0,.07,0,.07-.06.14v-.15s-.06-.06-.12,0v-.11s0,.43-.08.43v-.22c-.06,0-.1-.19-.17,0a.75.75,0,0,1,0-.11s-.09-.15-.1.15c0-.2-.05,0-.09.07v-.15c0,.18,0,.24-.07.29s0-.12,0-.08,0,.13-.06.06l0-.1s0,0-.05.15,0,0,0-.17c0,.08,0,.18,0,.15a.25.25,0,0,1,0-.1c0-.1-.08.17-.11,0a.26.26,0,0,0,0-.09l.07,0a1.35,1.35,0,0,1,0-.35c0,.11-.08.32-.1.26v0h0s0,0,0,0,0,0,0,0,0-.06,0-.07a1.09,1.09,0,0,0,0,.25,0,0,0,0,1,0,0h0c0,.08,0,.14,0,.06,0,.09,0,.19,0,.23,0-.2-.05-.32-.05-.44a.43.43,0,0,0-.15.32s0-.08,0-.12,0,0,0-.06-.08,0-.09.21c0-.08,0-.17,0-.14v-.06c-.08-.31-.17.49-.25.09,0,0,0,0,0,.06-.11-.18-.24.16-.35-.12,0-.06,0,.06-.06.16v-.16l0,.18c0,.13-.06-.39-.13-.14v.1s-.07.06-.06-.06,0,.11,0,.06v-.09l0,.14c0-.06,0-.33,0-.34a.69.69,0,0,0-.07.29s0,.05,0,.14l0,0a2.49,2.49,0,0,0,0,.67l0-.15v.12h0c0,.12,0,0,0-.05a.42.42,0,0,0,0,.13l0-.23a1,1,0,0,0,0,.24c0-.11,0-.21,0-.28,0,.11,0,.2,0,.1a.31.31,0,0,1,0,.13c0-.07,0,0,.06-.15,0,.13.06,0,0,.19a.61.61,0,0,1,.06-.19c0,.28.06,0,0,.32,0-.25.08-.11.12-.25,0,0,0,.06,0,0s0,.1,0,.15a1.35,1.35,0,0,1,.07-.38c0,.2,0,.24,0,.43,0-.17.05-.16.05-.3,0,.12,0,.06,0,.23,0-.26,0,0,0-.2,0,.13,0,.24,0,.16A.3.3,0,0,1,43.41,17Zm.78-.41Zm.06,0s0,0,0,0,0-.1,0-.1S44.25,16.54,44.25,16.59Zm-.09-1s0,0,0,0l0,0h0S44.16,15.58,44.16,15.56Z"/><path class="cls-2" d="M44.13,15.75h0v0Z"/><path class="cls-2" d="M49.9,16.2h0v0Z"/><polygon class="cls-2" points="45.12 16.91 45.12 16.87 45.12 16.9 45.12 16.91"/><path class="cls-2" d="M50.23,16.72v0Z"/><path class="cls-2" d="M50.38,16.76l0,.06Z"/><path class="cls-2" d="M50.49,16.84a.13.13,0,0,1,0-.06h0Z"/><path class="cls-2" d="M48.63,16.94h0S48.62,17,48.63,16.94Z"/><path class="cls-2" d="M49.2,16.62a.19.19,0,0,0,0,.07S49.19,16.7,49.2,16.62Z"/><polygon class="cls-2" points="48.01 17.09 48.01 17.09 48.01 17.09 48.01 17.09"/><path class="cls-2" d="M49.15,16.68s0,0,0,0S49.16,16.66,49.15,16.68Z"/><path class="cls-2" d="M51,16.93h0v0Z"/><path class="cls-2" d="M51,16.91v0S51,16.9,51,16.91Z"/><path class="cls-2" d="M51,16.86v0S51,16.9,51,16.86Z"/><path class="cls-2" d="M50.84,16.85v0Z"/><path class="cls-2" d="M50.79,16.87s0,.11,0,.08v0C50.83,17,50.81,16.78,50.79,16.87Z"/><path class="cls-2" d="M50.63,16.2l0,0s0-.13,0-.14C50.63,15.92,50.68,16.22,50.63,16.2Z"/><path class="cls-2" d="M50.51,16.11s0-.08,0-.11S50.49,16.06,50.51,16.11Z"/><path class="cls-2" d="M49.63,16.08v-.14S49.63,16,49.63,16.08Z"/><polygon class="cls-2" points="49.43 16.76 49.44 16.85 49.46 16.72 49.43 16.76"/><polygon class="cls-2" points="49.37 15.8 49.38 15.78 49.35 15.83 49.37 15.8"/><path class="cls-2" d="M47.89,15.79V16S47.91,15.74,47.89,15.79Z"/><path class="cls-2" d="M47.25,15.93c0-.08,0-.13,0,0S47.24,16,47.25,15.93Z"/><polygon class="cls-2" points="45.34 15.59 45.36 15.53 45.33 15.58 45.34 15.59"/><path class="cls-2" d="M13.09,17.64a21.11,21.11,0,0,1-6.6-3.14c-1-.73-2.1-1.82-1.88-3.07a10.5,10.5,0,0,1,5.8,2.65A6.3,6.3,0,0,1,11,6.51a1.08,1.08,0,0,1,.63-.4c.46-.05.78.43,1,.85,1.39,3.22,1,6.88.66,10.37"/><path class="cls-2" d="M12.61,17.26c.08,0,.25,0,.22,0l-.29-.07Z"/><path class="cls-2" d="M13.19,17a1.19,1.19,0,0,0-.64-.17A4.43,4.43,0,0,0,13,17c0,.06-.1.09-.21.07.08,0-.07.08.11.13s.25-.14.08-.26A.58.58,0,0,1,13.19,17Z"/><path class="cls-2" d="M13.92,11.5l0,0A.05.05,0,0,0,13.92,11.5Z"/><path class="cls-2" d="M13.53,8a.05.05,0,0,0,.07,0A.07.07,0,0,0,13.53,8Z"/><path class="cls-2" d="M13.63,7.3v.06S13.66,7.31,13.63,7.3Z"/><path class="cls-2" d="M13.92,11.5l.09-.1C13.91,11.4,13.94,11.45,13.92,11.5Z"/><path class="cls-2" d="M12.57,16.13a.14.14,0,0,0,.07.06l0-.05Z"/><path class="cls-2" d="M14.18,13v0l.11,0Z"/><path class="cls-2" d="M14.17,14.19s-.23,0-.34-.07a.34.34,0,0,1,.17.07Z"/><path class="cls-2" d="M13.59,16l0,0Z"/><path class="cls-2" d="M14.23,12.18h0Z"/><path class="cls-2" d="M12.21,16.15v0S12.22,16.15,12.21,16.15Z"/><polygon class="cls-2" points="13.08 17.7 13.05 17.71 13.01 17.85 13.08 17.7"/><path class="cls-2" d="M13.07,5.57h0S13.09,5.57,13.07,5.57Z"/><path class="cls-2" d="M8.62,11.7l.85,1.11Z"/><path class="cls-2" d="M12.6,16.11v-.05A0,0,0,0,0,12.6,16.11Z"/><path class="cls-2" d="M9.47,12.81h0l0,0Z"/><path class="cls-2" d="M9.9,6.13a.31.31,0,0,0,.1,0Z"/><path class="cls-2" d="M12.17,5.52l-.05-.06S12.15,5.51,12.17,5.52Z"/><path class="cls-2" d="M9.44,7.47s-.06,0,0,.06h0S9.39,7.48,9.44,7.47Z"/><path class="cls-2" d="M9,8.48h.05v0Z"/><path class="cls-2" d="M9.57,15.15a.79.79,0,0,1-.06.22C9.58,15.21,9.73,15.21,9.57,15.15Z"/><path class="cls-2" d="M12.71,16.14l-.11,0v0Z"/><path class="cls-2" d="M11.17,8.38l-.08.1A.16.16,0,0,0,11.17,8.38Z"/><path class="cls-2" d="M4.66,12.45l0,0S4.65,12.48,4.66,12.45Z"/><path class="cls-2" d="M11,8.83a.46.46,0,0,0-.18,0l0,0Z"/><path class="cls-2" d="M9.51,15.37Z"/><path class="cls-2" d="M10.64,15.26c-.12-.06-.19.27-.3.42s0-.25.05-.42c-.13,0-.33.27-.4.22a.34.34,0,0,1,.06-.12c-.21.18-.3-.14-.56.09a.24.24,0,0,1,0-.08,4.43,4.43,0,0,1-.18.41c-.07,0-.21.13-.13-.07,0,0,.07-.05.12-.1l-.1.05c.08-.3.13-.05.23-.25-.16,0-.42.18-.46.05.12-.27.25,0,.26-.27l.08.17c.12-.47.07.07.21-.43-.14-.16-.27,0-.41-.14-.12.13-.1.22-.22.35-.4.12.17-.77-.21-.52-.14.14-.36.46-.38.21l.21-.27c-.15-.13-.34.36-.4.06.1-.09.19,0,.18-.07,0-.29-.18.12-.27.07l.14-.27c-.19-.07-.51,0-.73-.09.06-.07.14-.13.15-.23-.32,0-.51-.39-.59-.68l-.23.15s0-.12.09-.14-.11.12-.21.17,0-.16.11-.2c-.27.07-.7,0-.62-.3l.08,0c0-.17-.5.24-.41,0h0c-.1-.28-.48-.45-.19-.77-.36.09.09-.25-.41-.12.22-.19.33-.17.49-.3s-.33-.06-.38-.12l.27,0a1.48,1.48,0,0,1-.27-.1H5.5l-1,.74v.21l.09-.06a.3.3,0,0,1,0-.21c.14-.1.28.23.26.36l.32-.18c0,.11-.08.14-.13.2.2-.25,0,.29.16.06a.51.51,0,0,1,.06-.21.23.23,0,0,0,.32.17l-.06.18c.19.09.45,0,.68.1,0-.1.06-.41.15-.42l-.07.29c.1-.16,0-.13.13-.31.08.07,0,.33-.13.41l.14-.06a1.12,1.12,0,0,1-.11.22c.11-.15.08.33.25.06l0,.08a.87.87,0,0,0,.29.07,2.52,2.52,0,0,1,.45.14c.07-.24.18-.13.31-.29a5.77,5.77,0,0,0,.83.79c.19,0,0-.23.07-.37.07.31.38.49.27.61a4.35,4.35,0,0,0,.48.29,1.62,1.62,0,0,0,.18-.35.9.9,0,0,1-.16-.28c0-.05.16.12.21.26v0c.06-.26.28,0,.47.06s.3.13.27,0h0a.13.13,0,0,1,0-.1c.07,0,0,.06.09.11,0-.12.21.06.13-.06l0-.05c.05.05.06.05.07,0s0-.18.15-.1l-.1-.1c-.09-.14.07,0,.11,0s-.11-.07-.16-.15a.43.43,0,0,1,.15-.36,3,3,0,0,1,.58-.32l-.16-.39,0-.32a6.7,6.7,0,0,0-.13-.71c0-.39-.86-.36-.52-.72l.31.15a1,1,0,0,1-.18-.72.77.77,0,0,0-.06-.55c.06,0,.15,0,.14.08.22,0,.06-.26-.11-.3,0-.05.16,0,.25,0s-.22-.24,0-.23c0,0,.06,0,.07.06s.09-.21-.16-.23c.14-.1,0-.28.15-.33-.24-.16.19-.16-.15-.33.36.16.39-.07.25-.23.1.07.14,0,.28.09,0-.08,0-.19-.18-.27.26,0,.21-.08.15-.14s-.07-.15.16.06a.81.81,0,0,1,0-.68c.12.48-.09.15.11.6-.06-.2-.09-.72,0-.66a1.36,1.36,0,0,1,0,.35c.08-.28.15,0,.29-.22a.52.52,0,0,1-.06.13s0,.1.09-.14l0,0a1.83,1.83,0,0,1,.41-.79c-.3.6,0,.29-.38,1,0,0,.08-.12.15-.25a.69.69,0,0,1-.14.28c.09-.06.21-.28.25-.2l-.17.2c.13-.15.28-.25.25-.12s-.09.1-.1.09.47-.09.38.17c-.36.1-.1.11-.4.22l.13.09.13-.1c0,.11.3.14.22.27l-.15,0,.12.19.09-.16c.19.07.39-.13.35,0,0,0,0,.12-.15.23h0c.12,0,.24.06.19.17s-.36.07-.43.1c.29,0,.14.25.44.26a1,1,0,0,0-.27,0h.23a.27.27,0,0,1-.23.1c0,.17.4-.13.26.1,0,0-.05,0-.09,0-.05.2.21.35.13.55-.32.1-.11-.15-.37,0,.1.24.47.47.42.74l0-.05c.47,0-.21.21,0,.31a.84.84,0,0,0-.21,0c-.06.18.14.34.31.6l-.12,0c-.1.1,0,.27-.1.38.12,0,.1.1.27.05-.67.36.38.66-.19,1,0,0-.1-.09-.1-.06L13,13c.21,0,.13,0,.28-.08s.22.11.22.18c-.14-.13-.33,0-.45,0a1.34,1.34,0,0,1,.2,0c-.37.13.41,0,.16.21h-.11c.05.07.19.14.16.22-.24,0-.11-.08-.3-.09,0,.1.44.23.2.31-.07,0-.07-.11-.13-.16-.28.09-.21.11-.26.19h0l-.13.17.07,0c.61.17.1.28.49.48-.37-.2-.22,0-.49-.07-.07,0-.16.1-.23.08.21.1-.18.12.12.27-.08,0,0,.09-.23,0,.06.11.16,0,.26,0,.28.2-.38.37,0,.65.14.22.43.29.55.5-.14.06-.3-.08-.3-.08s-.13.17,0,.29a.39.39,0,0,0-.24,0c0,.09.31.09.17.18a2.13,2.13,0,0,1-.33-.11c.07.1.22.21.28.32-.15,0-.22-.09-.31-.13.06.12.11.3.34.36l.09-.06s-.2,0-.24,0,.09-.13.18-.12l0,.07c.5,0-.06-.29,0-.43l.36.1-.29-.18c.1,0,.3,0,.35.06.19-.09-.12-.11.09-.17a.06.06,0,0,1,.06,0l-.1-.11c.08,0,.26,0,.2.06.23-.16-.24-.31,0-.36l0,0c-.1-.26-.26-.05-.56-.26l.67-.07-.27,0s0-.07.15-.05c-.18-.11-.12,0-.29-.07.25-.1-.09-.35.34-.34-.2-.06-.16.11-.3,0,.47,0-.06-.16.15-.25s.11.15.33,0c-.4-.1.1-.22,0-.32-.32,0-.12-.22-.22-.38.1,0,.19-.3.31-.45h.05c-.32,0-.26-.2-.32-.31a.57.57,0,0,1,.35.09v-.1a.27.27,0,0,1-.2-.13l.24,0c0-.15-.28-.29-.12-.48-.22,0-.62.15-.78,0,.13,0,.33,0,.38,0s-.1-.06,0-.09l.21.08c.09-.09-.17,0-.15-.11s.12-.05.26-.05-.07.06,0,.09a.37.37,0,0,1,.26-.2c-.1,0-.23,0-.26,0s.21-.06.3-.14c-.12,0,0-.13-.26-.12,0,0,.12-.06.19-.08-.12-.07,0-.34-.32-.25l0,0h0c-.26-.22.12-.51,0-.74h.09c-.11-.13-.1-.31-.29-.39,0-.05.15-.12.25-.12-.08-.1-.17-.1-.05-.27.16.09.13-.06.12.09.06-.15.19-.2-.07-.32.23,0,.26-.15.19-.21l-.15.12a.31.31,0,0,1,0-.21h.29c.31-.37-.7-.42-.16-.77-.22,0-.11.2-.36.18,0-.14.39-.38.38-.43.11-.23-.46-.06-.4-.28-.1.05-.36.15-.49,0s.37-.28.48-.22,0,0-.05.06a.13.13,0,0,0,.2,0h-.1c.09-.1,0-.28.19-.29-.13-.07-.18,0-.2.1.08-.23-.08-.24-.06-.51,0,.06-.14.14-.16.1,0-.4-.23-.07-.36-.26.09-.2.35-.15.13-.31,0-.21.21-.2.31-.19-.26-.1-.1-.53-.15-.73l.13.08a.5.5,0,0,1-.15-.18l-.1.24c0-.1,0-.15,0-.22-.14.05-.21.33-.4.38,0-.17-.22-.11-.09-.39.13.31.13-.28.33-.12-.05,0-.09-.06-.13-.15a.05.05,0,0,1,.07,0c-.09-.45-.26.18-.47,0,.1-.13.07-.33,0-.32.1.07-.06.28-.18.34-.11-.21-.19,0-.26-.06a.86.86,0,0,1,.07.1c-.07.14-.13.08-.25.09s.12,0,.09-.12c-.16.23-.24-.37-.46-.18-.08-.11,0-.3-.07-.37-.22.24-.27-.19-.48.06.09.2.08.13,0,.41a1.69,1.69,0,0,1,.32-.27,2.69,2.69,0,0,0-.19.38c.09,0,.19-.21.26-.18-.1.2-.08.14,0,.31-.16-.29-.22.28-.37.15l-.1-.55c-.32-.13-.32.57-.62.69h.12c.07.23-.13.18-.17.34-.09-.16-.17-.15-.27-.2.08.1-.2.24,0,.52l-.27,0c-.27.21.21.6.06.73-.13-.15-.29-.12-.34-.32,0,.07-.1.11,0,.17-.12,0,.1.28-.07.27.06.06.22.15.17.22l-.08,0c.08,0,.06.16.26.18-.6,0-.18.56-.69.59a2.06,2.06,0,0,1,0,.5S9,9,9,8.94c-.21.15.46.23.24.4s-.12-.15-.24-.1c-.57-.08,0,.28-.33.37l0,0c-.21.09.18.32.12.5a.17.17,0,0,0-.09,0,1,1,0,0,1,.45.56c-.22,0-.12-.08-.35,0,0,.08.37,0,.43.14a.86.86,0,0,1-.47.12l0-.1c-.31,0,0,.11,0,.16l-.14,0c0,.12.4.22.39.36l.11,0c.36.24-.19,0,.08.2l-.36-.17c.05.05.17.16.28.29a2.06,2.06,0,0,1,.21.29l-.42-.44-.21-.19a.27.27,0,0,0,0,.08,1.3,1.3,0,0,0,.21.22s-.14-.13-.08-.11a1.7,1.7,0,0,1,.51.62c-.39-.35-.42-.34-.43-.31s0,.11-.32-.24c.37.47-.06,0,0,.13l.88,1.14c.08.12.08.12,0,.05l-.22-.29L9,12.23l-.41-.55c-.23-.31-.37-.49-.63-.82.33.43.45.6.32.43l.43.56c.38.56-.74-1-.35-.42l-.23-.34c.12.19,0,0,.44.74l-.28-.44c-.05-.08,0,.11.07.22s0,.17-.1,0l-.08-.18s.12.33,0,.13a1.73,1.73,0,0,1-.07-.19l0,.11c0,.07,0,.14,0,.07l0-.19c-.1-.25,0,.4-.15.42a4.32,4.32,0,0,0,0-.66V11c-.06,0,0,0-.25.07a5.59,5.59,0,0,1-.56.12c-.06-.47-.62-.41-.9-.71a.37.37,0,0,1-.16.31c-.06-.1-.27.21-.18-.13h0c0-.35-.18-.3-.31-.33l-.1.45c-.16-.52-.57-.24-.81-.25l-.87-.06-.09.79c0,.13-.07.22-.25.29.11.12.11.26.23.36H3.46a1.28,1.28,0,0,0,.14.86l-.2,0c.06.22.77,0,.85.14l-.32.2c.14.29.07.77.53.81,0,0-.13.09-.18.06.08.13.19.61.53.21-.25.24.19.25.4.24L5,14.6c.31-.14.37-.2.56-.15,0,.05-.1.17-.11.09,0,.19.24-.11.28.09l-.15.09c.1.1.14,0,.32-.07s.16.2,0,.4c.1-.1.26-.2.29-.11a.27.27,0,0,1-.12.12c.09.26.43-.05.42.23a.62.62,0,0,0-.06.14c-.14-.1-.25-.2-.23-.2-.13.18,0,.3-.31.49.2-.07.57-.27.63-.1a.36.36,0,0,1,0,.07l0,0s0,0,.09,0a.32.32,0,0,0,.06.13c-.09.16.09.17.14.22.13-.22.19-.13.22-.35,0,0,0,0-.07,0H7l-.16-.08c.11-.08.22-.14.21,0l.3-.28c-.1.34,0,.6-.13.8.26,0,.5.19.85-.15.08,0,0,.15,0,.22s-.09,0-.14.05c.17,0,.34.14.53-.13.06.2-.22.22,0,.27l-.07.08c.13.66,1-.43,1.1.37a.17.17,0,0,1,0-.12c.36.5,1.09.19,1.41.81.1.15.19,0,.33-.16l-.06.26.25-.23c.28-.14.14.75.55.43l0-.18c.08.06.33,0,.25.19,0,0,.09-.17.1-.07l0,.13.3-.15c.16.15-.19.52.08.62.11,0,.39-.3.38-.4s-.08-.12,0-.25l.1-.05a1.75,1.75,0,0,0,.18-1.11l-.22.2v-.21l.13,0c0-.2-.11-.06-.19,0a.43.43,0,0,0,0-.23l-.25.33c0-.16.15-.28.09-.4-.12.16-.05.37-.19.45,0-.2.05-.34-.08-.22a.31.31,0,0,1,.1-.19c-.11.1-.2,0-.31.18,0-.24-.26,0-.12-.39-.06.08-.23.25-.3.24.27-.4-.24-.12,0-.57-.23.36-.38.05-.62.21,0,0,.06-.09.07-.06s-.05-.19-.08-.29c-.14.32-.3.33-.46.5,0-.35.22-.35.31-.66-.1.26-.29.18-.34.41a.85.85,0,0,1,0-.4c-.19.39-.1,0-.28.25,0-.25.14-.38,0-.32C10.47,15.35,10.64,15.26,10.64,15.26ZM7.4,14.33h0l.06,0Zm-.23-.16a.24.24,0,0,0,.09.08c0,.08-.1.14-.12.12S7.16,14.26,7.17,14.17ZM6.73,16c-.06,0,0,0,0-.09l.09,0,0,0Z"/><path class="cls-2" d="M7,15.72H7v-.06l0,.06Z"/><path class="cls-2" d="M13.88,11.54h0Z"/><polygon class="cls-2" points="5.72 11.69 5.65 11.68 5.71 11.7 5.72 11.69"/><path class="cls-2" d="M13,13.15l-.06,0Z"/><path class="cls-2" d="M13,13.83l-.09.09Z"/><path class="cls-2" d="M12.81,14.34l.1,0h0Z"/><path class="cls-2" d="M11.66,7.54h0C11.62,7.61,11.64,7.59,11.66,7.54Z"/><path class="cls-2" d="M12.7,8.58l-.13,0S12.57,8.62,12.7,8.58Z"/><polygon class="cls-2" points="11.18 8.37 11.18 8.37 11.17 8.38 11.18 8.37"/><path class="cls-2" d="M12.54,8.43c0,.05,0,.08,0,.11S12.59,8.45,12.54,8.43Z"/><path class="cls-2" d="M12.5,16.6l0,0h0Z"/><path class="cls-2" d="M12.52,16.63l0,0S12.55,16.64,12.52,16.63Z"/><path class="cls-2" d="M12.6,16.73l0-.07S12.54,16.7,12.6,16.73Z"/><path class="cls-2" d="M12.68,15.91h0Z"/><path class="cls-2" d="M12.67,15.7c0,.05-.2.11-.15.18l.07,0C12.46,15.85,12.82,15.76,12.67,15.7Z"/><path class="cls-2" d="M13.86,14.91l-.09.17c.1,0,.23-.05.25,0C14.32,14.91,13.8,15.14,13.86,14.91Z"/><path class="cls-2" d="M14,14.36c0,.1.14,0,.19,0S14.13,14.29,14,14.36Z"/><path class="cls-2" d="M14,10.24h.23C14.16,10.15,14.11,10.24,14,10.24Z"/><polygon class="cls-2" points="12.71 9.65 12.58 9.75 12.79 9.74 12.71 9.65"/><polygon class="cls-2" points="14.2 8.9 14.24 8.93 14.13 8.81 14.2 8.9"/><path class="cls-2" d="M8.89,8.22l.27.07C9.13,8.22,8.84,8.11,8.89,8.22Z"/><path class="cls-2" d="M8.78,11.16c-.14,0-.23-.05-.09,0S8.82,11.19,8.78,11.16Z"/><polygon class="cls-2" points="5.4 10.43 5.48 10.35 5.34 10.4 5.4 10.43"/><path class="cls-2" d="M58.34,40.92s0,.15,0,.13l0-.17Z"/><path class="cls-2" d="M58.42,41.26a1.24,1.24,0,0,0,.14-.37,2.51,2.51,0,0,0-.13.28s0-.06,0-.13,0,0-.06.06,0,.15.09,0A.35.35,0,0,1,58.42,41.26Z"/><path class="cls-2" d="M59.25,42.66h0Z"/><path class="cls-2" d="M58.85,43.43l0,0Z"/><path class="cls-2" d="M58.62,43.38h0S58.62,43.36,58.62,43.38Z"/><path class="cls-2" d="M59.25,42.66l0,0S59.24,42.67,59.25,42.66Z"/><path class="cls-2" d="M58.85,41l0,0h0Z"/><path class="cls-2" d="M59,42.3h0l-.07,0Z"/><path class="cls-2" d="M58.85,42.07,59,42a.2.2,0,0,1-.09,0Z"/><path class="cls-2" d="M58.66,41.55h0Z"/><path class="cls-2" d="M59.05,42.51h0Z"/><path class="cls-2" d="M57.49,39.89v0Z"/><polygon class="cls-2" points="57.83 40.7 57.82 40.71 57.8 40.79 57.83 40.7"/><path class="cls-2" d="M58.33,43.33Z"/><path class="cls-2" d="M55.72,43.26c0,.13-.12.13-.14.28C55.6,43.49,55.72,43.35,55.72,43.26Z"/><path class="cls-2" d="M58.85,41h0Z"/><polygon class="cls-2" points="55.58 43.54 55.58 43.54 55.58 43.56 55.58 43.54"/><path class="cls-2" d="M57.78,43.57v0Z"/><path class="cls-2" d="M58.31,43.67l0,0Z"/><path class="cls-2" d="M57.52,43.79s0,0,0,0v0S57.51,43.77,57.52,43.79Z"/><polygon class="cls-2" points="57.22 43.79 57.23 43.82 57.24 43.81 57.22 43.79"/><path class="cls-2" d="M56.3,40a.5.5,0,0,1,0,.13C56.32,40,56.37,39.94,56.3,40Z"/><path class="cls-2" d="M58.81,41.05s0,0,0,0h0S58.81,41,58.81,41.05Z"/><path class="cls-2" d="M57.54,45l-.06,0Z"/><path class="cls-2" d="M54.06,41.79v0S54,41.78,54.06,41.79Z"/><path class="cls-2" d="M57.29,45a.41.41,0,0,0,0-.1v0Z"/><path class="cls-2" d="M56.34,40.09Z"/><path class="cls-2" d="M56.73,39.71c-.07,0,0,.19,0,.3s0-.14-.07-.24-.07.23-.1.23a.19.19,0,0,1,0-.08c0,.15-.14,0-.17.22v0a1.51,1.51,0,0,1,0,.26s0,.13-.05,0,0,0,0-.09l0,.06c0-.18,0-.07,0-.21,0,.07-.08.23-.12.19s.08-.08,0-.23l.07.06c-.09-.27,0,0-.05-.28-.1,0-.08.11-.18.08s0,.14,0,.24-.2-.41-.23-.16.06.34,0,.25l0-.2c-.09,0,.05.29-.08.19s0-.09,0-.11,0,.12,0,.14l-.07-.16c-.08,0-.12.21-.19.28a.29.29,0,0,0-.08-.14c-.07.14-.25.11-.42.1l0,.15s-.06,0-.07-.07.06.08.07.14-.08,0-.09-.09c0,.16,0,.37-.19.32l0,0c-.1,0,.17.27,0,.22v0c-.15.07-.13.28-.39.26.18.13-.16.09.11.24-.17,0-.22,0-.36,0s.16.13.17.17l-.15,0,.14.11-.19,0,0,.06s.08,0,.12,0-.15.11-.23.1A1,1,0,0,0,54,42a.24.24,0,0,1-.12-.07c.15.11-.17,0,0,.08l.12,0a.11.11,0,0,0-.08.18l-.11,0c0,.12,0,.26,0,.39a.32.32,0,0,1,.27,0l-.17,0c.1,0,.06,0,.19,0s-.19,0-.25,0l.07.06h-.15c.11,0-.16.13,0,.14l-.05,0a1.2,1.2,0,0,0,.15.3c.14-.05.12,0,.24,0s-.08.22,0,.3.12,0,.21-.06c-.12.07-.05.15-.16.16a.37.37,0,0,0,.28.15.27.27,0,0,1,.08-.1s0,.08-.06.12h0c.23,0,0,.54.28.4h0a1.39,1.39,0,0,0,.19-.06s-.09.07-.1.16c.23-.12.17.14.34.06-.1.39.27.09.27.35l0-.09c.05-.07,0,.07,0,.09s0-.09,0-.13c.25,0,.4.26.6.39s.14-.46.2-.22l-.07.16c.2-.17.34.07.52-.09,0,0,0,.1,0,.09s.13,0,.14-.08,0,.09,0,.15.1-.16.11,0,0,0,0,.05.1,0,.09-.12c0,.07.12-.06.16,0,0-.17.1.08.12-.15,0,.24.11.19.14.08,0,.07,0,.07,0,.17s.09-.05.08-.17c.1.28.15-.24.22.12a2.37,2.37,0,0,1,.34-.32c0,.23-.12,0-.08.29.11-.12.13-.33.25-.3s0,.1,0,.14.23,0,.29-.2a.09.09,0,0,1,0,.07s.06,0,0-.08v0c-.08-.13,0-.33-.07-.41.08.3.12,0,.22.41a.22.22,0,0,0,0-.14s0,.05.07.13c0-.09,0-.18,0-.21s0,.08,0,.13c0-.1,0-.21,0-.2s0,.06,0,.07,0-.31.14-.3c.11.2.07,0,.2.19l0-.08-.09-.06s0-.17.06-.15l0,.08,0-.09-.09,0c0-.11-.18-.17-.1-.18s0,0,.14,0h0c0-.06-.07-.12,0-.11s.16.14.2.16c-.11-.12,0-.13-.09-.25l.14.1-.11-.09s.07,0,.14.06-.22-.11-.09-.13,0,0,0,0,0-.17.09-.22,0,.09.18.13c0-.14-.13-.31-.07-.4h0c-.27-.06.15,0,0-.13s.15,0,.12,0,0-.17-.14-.27h.07c.07,0,0-.12.06-.17s-.07,0-.17,0c.38-.23-.26-.2,0-.41h.07l-.1-.08a.56.56,0,0,0-.14.1c-.07,0-.14,0-.15,0s.18-.08.24-.12l-.11,0c.17-.14-.23.1-.12,0l.06,0s-.13,0-.13,0,.07,0,.18-.06-.27.07-.17,0,.05,0,.09,0,.08-.1.09-.14h0l0-.1,0,0c-.33.17-.12-.05-.34,0,.21-.1.1-.08.23-.18a.32.32,0,0,1,.08-.12c-.12.06,0-.11-.14,0,0,0,0,0,.07-.12-.06,0-.06.07-.11.11s0-.27-.22-.15-.24.16-.34.2a.34.34,0,0,1,.11-.15c0-.09,0-.09-.09,0s0-.08,0-.13-.1.15-.11.07l.12-.18c-.06,0-.14.1-.19.13a.33.33,0,0,1,.11-.16.25.25,0,0,0-.2.16v.06s0-.12.05-.14,0,.06,0,.11l0,0c-.08.3.12,0,.16,0l-.11.19.13-.14a.61.61,0,0,1-.1.18c0,.11.06-.05,0,.06l0,0,.06,0s-.08.13-.08.09c0,.14.16-.09.09.06h0c.1,0,.09-.13.26-.24l-.22.34.11-.12s0,0,0,.07c.1-.06,0,0,.13-.12-.07.13.13,0-.05.21.1-.07,0-.09.13-.12-.19.2.07,0,0,.12s-.08,0-.15.12c.2-.14,0,.08,0,.07s.1,0,.17,0,0,.13-.08.19l0,0c.17-.08.16,0,.21,0a.65.65,0,0,1-.2.06v0c.06,0,.09,0,.12,0l-.14,0s.19,0,.11.09c.13,0,.35-.16.45-.11l-.22,0s.06,0,0,0h-.13s.1,0,.1,0-.07,0-.15,0,0,0,0,0a.32.32,0,0,1-.15.09.34.34,0,0,1,.16,0s-.12,0-.17.07,0,0,.15,0l-.11,0c.07,0,0,.08.19,0h0c.16.07-.08.14,0,.21h-.06c.06,0,0,.09.13.14a.31.31,0,0,1-.16,0s.09.06,0,.07-.08,0-.06,0-.13,0,0,.08c-.12-.06-.17,0-.13,0l.09,0s0,0,0,0L58.9,43c-.22-.06.25.29-.08.13.09.09.09,0,.2.12a1.38,1.38,0,0,1-.27-.11c-.09,0,.18.2.1.19s.18.14.19.21-.22-.15-.24-.2,0,0,0,0a.17.17,0,0,0-.07-.09l0,0c-.06,0-.08,0-.14-.08a.13.13,0,0,0,.09.09c-.08,0,0,0-.11,0l.07.08c-.1,0,0,.11,0,.16s-.12-.19-.11-.1a.38.38,0,0,1-.11-.18c0,.12-.1,0-.12-.05l0,0s0,0,0,0l.06.1,0-.05a1.58,1.58,0,0,1,.14.29s0,.08-.1-.07c.08,0-.07-.14-.05-.18s0,0,0,0a.08.08,0,0,1,0,0c-.1-.12.06.18,0,.2s-.07-.16-.07-.14a.45.45,0,0,1,.07.21c-.05-.05,0,.07,0,.07l0,0c0,.09,0,.09,0,.12s0-.05,0-.08c0,.16-.11-.14-.11,0,0-.05-.05-.16-.08-.2,0,.13-.07-.11-.09,0a.33.33,0,0,1,0,.22l0-.11v.19s0-.09,0-.07a.31.31,0,0,0,0,.17c-.07-.17,0,.13-.11,0L58,43.6c-.07-.12-.06.17-.15.11l0,0c0,.12,0,0-.06.07a.83.83,0,0,0-.05-.2c0,.08,0,0,0,.21l0-.14c-.06-.05-.05.31-.12.27a2.13,2.13,0,0,1,0-.27s0,0,0,.06,0,.14-.07,0c0,.05,0,.16,0,.15V43.9a.44.44,0,0,0,0,.18c-.06-.32-.19,0-.23-.26a.51.51,0,0,1-.15.07s0,0,0,0S57,44.14,57,44s0-.09,0-.15c0-.34-.09,0-.11-.17l0,0c0-.12-.1.12-.15.09v-.05a.42.42,0,0,1-.21.25.76.76,0,0,0,.06-.2s0,.21-.09.24a.9.9,0,0,1,0-.29h0c0-.18,0,0-.07,0l0-.08c-.07,0-.11.22-.18.19v.06c-.09.19,0-.12-.08,0l0-.21a.73.73,0,0,1-.19.2,1.48,1.48,0,0,1,.19-.28s-.09,0-.13.08,0-.06.05,0-.14.21-.19.19c.12-.38-.1-.13,0-.44-.13.11-.13-.12-.21-.13-.1.3,0,0-.16.29,0,0,0,0,0,0l0-.2c0-.09,0-.05.08-.12s0-.13.06-.21c0,.1-.09.13-.09.08l0,.15c-.14.12.1-.26,0-.14l.07-.08c-.06,0-.07,0-.25.14l.09-.12s-.29.11-.2,0l.06,0s-.13.07-.07,0l.06,0s-.13.06-.1,0l.08,0c.07-.09-.22.05-.3,0a1.34,1.34,0,0,0,.3-.2h0c0-.05-.21,0-.32-.09.25-.07.1-.15.24-.21l-.2,0s-.15-.07.06,0h0c.21,0,.16,0,.17,0L55,42.24c.4,0-.09-.24.27-.16-.06,0,0-.06-.11-.1l.14.06s.08,0,.07-.11l.09.06s-.35-.24-.34-.28l.19.11c0-.06.22,0,.1-.15,0,0,.07.06.07.08s.18,0,0-.18c.14.14,0,0,0-.11l.1.11c-.11-.16-.14-.2-.14-.27s.08.09,0,.07-.06-.13,0-.09l0,.08s0,0,0-.15.08,0,.15.1c0-.07-.08-.17,0-.15a.16.16,0,0,1,0,.09c.1,0,0-.2.11-.09l0,.07s-.08,0-.08,0a1.31,1.31,0,0,1,.18.3c0-.1-.09-.32,0-.28l0,0h0s0,0,0,0l0,0c.05.1.06,0,.08,0s0-.13-.09-.23a0,0,0,0,1,0,0h0l0,0c0-.07,0-.14,0-.07l-.06-.23c.1.18.19.26.24.38,0-.1.1-.09.06-.37,0,0,0,.07.06.11s0,0,0,.07.09,0,.06-.24c.06.08,0,.18.07.14V41c.16.29.12-.52.31-.14a.42.42,0,0,1,0-.06c.16.16.34-.18.48.11,0,.06.06-.07.09-.16v.16l.07-.18c.08-.12.06.4.18.16v-.1s.11,0,.09.07,0-.11,0,0l0,.08.11-.12c0,.07-.08.32,0,.35a.69.69,0,0,0,.14-.27.19.19,0,0,1,0-.14l0,0a1.5,1.5,0,0,0,.1-.66l-.09.13v-.12h0c0-.11,0,0-.08,0a.27.27,0,0,0,0-.13l-.1.22c0-.1.06-.18,0-.24,0,.1,0,.21-.07.27,0-.11,0-.2,0-.11a.22.22,0,0,1,0-.13c0,.07-.09,0-.12.15,0-.14-.11,0-.07-.21,0,0-.08.17-.11.18.09-.27-.1,0-.06-.32-.06.24-.15.09-.22.23,0,0,0-.06,0,0s0-.1-.07-.15a1.48,1.48,0,0,1-.11.38c0-.2,0-.24,0-.43,0,.17-.08.17-.07.3a.89.89,0,0,1,0-.23c0,.26,0,.05-.06.21-.05-.13,0-.24-.07-.16A.19.19,0,0,1,56.73,39.71Zm-1.28.75h0l0,0Zm-.1,0h0s0,.09,0,.09S55.38,40.54,55.35,40.51Zm.63.83s0,0,0,0a0,0,0,0,1,0,0v0Z"/><polygon class="cls-2" points="55.92 41.16 55.92 41.15 55.9 41.12 55.91 41.16 55.92 41.16"/><path class="cls-2" d="M59.27,42.64h0Z"/><polygon class="cls-2" points="54.04 41.63 54.07 41.64 54.05 41.62 54.04 41.63"/><path class="cls-2" d="M59.62,42l0,0Z"/><path class="cls-2" d="M59.51,41.73l0-.07A.41.41,0,0,0,59.51,41.73Z"/><path class="cls-2" d="M59.44,41.51l0,0h0Z"/><path class="cls-2" d="M58.65,44.59h0S58.65,44.62,58.65,44.59Z"/><path class="cls-2" d="M59.33,43.74s0,0,0,.07S59.39,43.8,59.33,43.74Z"/><polygon class="cls-2" points="57.55 44.96 57.55 44.96 57.54 44.96 57.55 44.96"/><path class="cls-2" d="M59.33,43.85s0,0,0,0S59.32,43.82,59.33,43.85Z"/><path class="cls-2" d="M58.65,40.88h0v0Z"/><path class="cls-2" d="M58.63,40.89h0S58.62,40.91,58.63,40.89Z"/><path class="cls-2" d="M58.58,40.93l0,0S58.59,40.89,58.58,40.93Z"/><path class="cls-2" d="M58.91,41.07l0,0Z"/><path class="cls-2" d="M59,41.1S59,41,59,41l0,0C59,41,58.94,41.17,59,41.1Z"/><path class="cls-2" d="M58.85,41.82v-.07s-.08.11-.1.11C58.67,42,58.81,41.75,58.85,41.82Z"/><path class="cls-2" d="M58.89,42s-.07.06-.09.08S58.86,42,58.89,42Z"/><path class="cls-2" d="M59.13,43l-.13,0S59.05,42.94,59.13,43Z"/><polygon class="cls-2" points="59.69 43.45 59.78 43.46 59.67 43.39 59.69 43.45"/><polygon class="cls-2" points="58.78 43.1 58.77 43.09 58.8 43.13 58.78 43.1"/><path class="cls-2" d="M57.28,43.66v.17S57.31,43.61,57.28,43.66Z"/><path class="cls-2" d="M56.37,43.71c0-.08,0-.14,0-.07S56.36,43.73,56.37,43.71Z"/><polygon class="cls-2" points="55.23 42.25 55.28 42.28 55.24 42.24 55.23 42.25"/><g class="cls-3"><image width="1341" height="4904" transform="translate(44.4 -59.2)" xlink:href="../../../../../../../Downloads/screencapture-aurora-db30bf-webflow-io-2023-09-18-12_40_29.png"/></g></svg>