<svg id="Capa_1" data-name="Capa 1" xmlns="http://www.w3.org/2000/svg" xmlns:xlink="http://www.w3.org/1999/xlink" viewBox="0 0 299.92 246.15"><defs><style>.cls-1{fill:none;}.cls-2{fill:#e4edf2;}.cls-3{fill:#5da6bc;}.cls-4{fill:#536472;}.cls-5{fill:#f0d44f;}.cls-6{fill:#ed6c6f;}.cls-7{clip-path:url(#clip-path);}</style><clipPath id="clip-path"><rect class="cls-1" x="-668.33" y="2708.12" width="1341" height="1296.03"/></clipPath></defs><path class="cls-2" d="M7.69,123.75c.58,37.45,13.08,76.07,40.15,97,21.39,16.52,48.85,20.09,75.24,21.49a620.37,620.37,0,0,0,91.91-2c20.84-2,43.66-6.17,57.93-23.82C289.6,195.79,288.34,165,286,138,282.5,96.57,276.2,49.78,245.37,27.6c-18.09-13-41-14.49-62.82-15.6l-77-3.91C87,7.15,54.46-2.08,37,7.19,9.48,21.79,7.78,96.39,7.69,123.75Z"/><path class="cls-3" d="M68.3,77.5l3,80.29c.09,2.47.25,5.12,1.8,7,2.28,2.83,6.49,2.87,10.11,2.68l149.16-8.17c1.84-.1,3.82-.25,5.26-1.4,2-1.56,2.27-4.36,2.42-6.85a537.69,537.69,0,0,0-1.14-77.41c-.26-3-.65-6.16-2.74-8.26-2.24-2.26-5.73-2.57-8.91-2.73q-58.93-3-118-1.61c-15.72.36-34,2.34-42.41,15.62"/><path class="cls-3" d="M66.3,76.34c-.08.28.15.24.57-.4l.06-.63Z"/><path class="cls-3" d="M70,72.66c.13-.19.25-.39.36-.59a4.74,4.74,0,0,0,.29-.49c.14-.29.13-.48-.19-.39a11.23,11.23,0,0,0-1.06,1.88c-.48.59-1,.92-1,.75a5.47,5.47,0,0,0-.86,1.37A12.34,12.34,0,0,0,68.68,74a11.46,11.46,0,0,0,1.17-1.5C70.09,72.31,70,72.58,70,72.66Z"/><path class="cls-3" d="M141.29,61.1l-.48,0A2.21,2.21,0,0,0,141.29,61.1Z"/><path class="cls-3" d="M187.13,61.79c-.35,0-.49,0-.51.06C186.94,61.83,187.21,61.82,187.13,61.79Z"/><path class="cls-3" d="M195,62.36l-.47,0A1.61,1.61,0,0,0,195,62.36Z"/><path class="cls-3" d="M141.29,61.1l1.22.1C142.6,61.09,141.88,61.12,141.29,61.1Z"/><path class="cls-3" d="M77.87,66a5.16,5.16,0,0,0-.57.37l.56-.31A.13.13,0,0,1,77.87,66Z"/><path class="cls-3" d="M121.08,61.55h-.37a1.46,1.46,0,0,0-.31.14Z"/><path class="cls-3" d="M105.59,62c.34,0,.46-.28.58-.41a1.71,1.71,0,0,1-.75.22C105.42,61.82,105.47,61.88,105.59,62Z"/><path class="cls-3" d="M81.52,65.63l-.39.19Z"/><path class="cls-3" d="M132.18,61.47a.3.3,0,0,0,.14.1S132.26,61.5,132.18,61.47Z"/><path class="cls-3" d="M67.68,95.53s0,0,0,0S67.68,95.41,67.68,95.53Z"/><path class="cls-3" d="M68.37,77.5l0,.25a.58.58,0,0,0,.16,0Z"/><path class="cls-3" d="M209.25,63.21h-.07C208.8,63.22,209,63.22,209.25,63.21Z"/><path class="cls-3" d="M227.58,158.46c1.51.16-2.4.44-.14.59C227.22,159,229.45,158.51,227.58,158.46Z"/><path class="cls-3" d="M78.26,65.88l.58-.28A5.42,5.42,0,0,0,78.26,65.88Z"/><path class="cls-3" d="M227.44,159.05h0l.23,0Z"/><path class="cls-3" d="M237.3,70.57a.74.74,0,0,0,0-.33S237.31,70.33,237.3,70.57Z"/><path class="cls-3" d="M217.68,63l.6.06Z"/><path class="cls-3" d="M238.82,83.12a4.91,4.91,0,0,0,0,.9l0-.14A2.34,2.34,0,0,1,238.82,83.12Z"/><path class="cls-3" d="M239.58,96.38l0-.25,0-.42Z"/><path class="cls-3" d="M69.3,135.9a2.42,2.42,0,0,1,.23-.63C69.34,135.49,69.2,133.54,69.3,135.9Z"/><path class="cls-3" d="M78,66.16a.72.72,0,0,1,.31-.28l-.4.21C77.84,66.15,77.85,66.18,78,66.16Z"/><path class="cls-3" d="M241,83.51l.09,2.12C241.09,85,241.06,84.27,241,83.51Z"/><path class="cls-3" d="M138.32,165.59l-.48.06A2.09,2.09,0,0,0,138.32,165.59Z"/><path class="cls-3" d="M241.51,91.9a9.2,9.2,0,0,0-.12,1.2,1,1,0,0,0,.08.24Z"/><path class="cls-3" d="M69.53,135.27Z"/><path class="cls-3" d="M68.37,121.39c.06,2,.38.93.61,1.35.19,2.4-.23,1.12-.38,2,.15,1.49.52,2.63.55,3.75-.06.08-.07.3-.15.05.34,1.57.18,4.7.61,6.54a1.05,1.05,0,0,1-.08.24c.17-.31.35-.36.48-.3,0,.9.29,1.66.07,2a1.82,1.82,0,0,0-.2-.85l.14.94c-.3.86-.16-1.28-.41-1.28a54,54,0,0,1,.49,5.39c-.32.31-.23-3.29-.46-1.4l0-2.19c-.46,1.69,0-1.33-.51.23,0,2.88.28,3.21.29,6.08.21.64.27-.22.47.41.48,4.07-.71,3.24-.16,6.22a5.36,5.36,0,0,1,.54,3.2l-.4-.72c.06,2.79.59,1.57.45,4.5-.17-.52-.21-2.19-.23-1.76-.23,1.9.25,1.32.31,2.78l-.31.33a13.41,13.41,0,0,0,1.11,4.86A7.44,7.44,0,0,0,72.89,166a7.93,7.93,0,0,0,2.33,1.46c-.22,0-.85-.17-.09.29a18.94,18.94,0,0,0,6.84.94l6.39-.08,1.51-.37c.35,0,.66.1.28.17,1.56,0,.07-.18.82-.34s1.17.1.62.22a69.5,69.5,0,0,1,10.69-.8l-.56.11c2.26,0,2.51-.72,4.61-.57l-.4.07c4.9-.14,10.28-.7,14-.47.69-.45,4.85-.08,5.13-.67a55.8,55.8,0,0,0,5.95.25c1.05,0,1.54-.44,2.84-.57l0,.29,1.75-.41,1,.31,1.22-.14c-.49,0-1-.08-1-.17a15.82,15.82,0,0,1,4.7.1l4.48-.49a5.81,5.81,0,0,1-1.43.31c2.38-.43.45.29,2.63-.11-.3,0,.15-.18.2-.25a34.46,34.46,0,0,0,5.44-.19l-.34.23c3.34-.13,7-.49,10.77-.69-1.35,0-1.06-.39,0-.49l.46.29c.7-.23-1.15-.05.29-.37,1.4,0,1,.31.16.45l1.7-.2c.1.09-.3.16-.39.29.68-.24,3,.15,3.94-.24l.1.09c3.74-.21,5.43-.41,8.48-.59,0-.28,1.24-.28,2.13-.55,2.25,0,4.74,0,7.44-.13,1.89-.24.54-.26,1.39-.47.15.24,2.84.07,1.46.33,3.23-.22,4.13-.28,8.21-.71-.45-.07-.95-.09-.69-.19.74-.08,1.69,0,1.59.14l-.19,0c4.58-.62,10.65.15,14.28-.57l-.2,0,3.78-.48c1.75-.05-1,.24.26.32,4.08-.63,6.48-.29,9.84-.75a24.77,24.77,0,0,0,6.1,0,10.79,10.79,0,0,0,4-1.06,7.6,7.6,0,0,0,2.79-2.72L240,157a19.05,19.05,0,0,1,.88-1.9c-.15.08-.48,1-.38.4a29.49,29.49,0,0,0,.71-6.11q.19-3,.4-6c.29-4,.56-8,.73-12,.09-2.9-.86-1.66-.4-5.32l.31,1c-.31-5.87.06-12-.39-17.72a2.49,2.49,0,0,1,.19.91,13.3,13.3,0,0,0-.28-4.5c0-.89.16-.21.25-.76.1-1.22-.39-3-.19-3.7,0-.11.09.34.12.56-.14-.78-.11-3.69-.35-2.92,0-2.15-.31-4.11-.22-5.83-.36-1.1-.06-3.69-.5-4,.46.13.12-3.79-.18-5.13.17.44.07-1.19.28-.67-.12-1.55-.3-3-.51-2.68.33-2.9-.88-5.69-.34-7.36a17.7,17.7,0,0,0-2-6.82,7.84,7.84,0,0,0-2.51-2.58,9.83,9.83,0,0,0-3.15-1.3c.13-.19,1.35.09,2.45.69s2,1.46,2.1,1.22a9.48,9.48,0,0,0-5.19-2.24c-1.63-.24-3.22-.27-5.17-.42-1-.11.58-.16.94-.22-4,0-7.59-.41-11.1-.32a2.52,2.52,0,0,1,.75-.08c-.69,0-1.6-.14-1.53.06l.68,0c1.08.34-2.76.48-2.89.63,1.19-.52-3.45-.29-1.56-.93-.46,0-1,.09-.93.23-.67-.07-.88-.15-.19-.28-2.47,0-1.6.26-3.84.17,0-.1.47-.12.7-.22a18.68,18.68,0,0,1-4.16.14c.11-.06-.1-.14.46-.12-3.25-.08-5.54.3-9.1,0,1.07-.39-1.2-.17-1.38-.54l-1.92,0,.77.2c-1.68-.06-3.17.17-4.6,0l1.25-.11h-3.15l1.78.18c-1.7.14.17.46-2.06.3a24.6,24.6,0,0,1-2.54-.28h0a12.69,12.69,0,0,1-2.92.09c-.32-.13.27-.4.06-.48-.83.29-3.93,0-5,.31.35-.07.37-.26.25-.3l-.69.23c-.77-.09-.88-.13-.76-.28-2.33-.08.74.47-2,.23a3.9,3.9,0,0,1,.57-.09c-2.78-.15-5.38.08-7.94-.07-.75-.37,2.24-.06,1.38-.38-3.69,0-7.64.36-11.21.25l.66,0c-.49.51-2.65-.27-4.46,0,.44,0,.58-.28.46-.22-2.44-.09-5,.1-8.7.28l.46-.13c-1.44-.11-3.8-.06-5.35-.11-.46.13-1.35.12-.81.31-4.81-.73-9.15.48-13.41-.1.51,0,1.21-.13.8-.12l-3.62.17c.29.22.48.13,1.24.29a10.36,10.36,0,0,1-2.37.28c1.62-.18,0-.36-.73-.47.12.06-.12.14-.06.21-1.9-.37-.31.45-2.9.23l.13-.12c-1,.08-1.85.26-2.89.25-.44-.25,1-.15,1.09-.36-1.47,0-2.89.55-4.22.32.62-.09,1.52-.11,2.14-.19a11,11,0,0,0-2.69-.22h.1l-2.49-.06.64.06c-1.81.73-3.74.25-6.18.87,2.37-.59.38-.27.54-.58-.64,0-1.61-.06-1.34-.16-1.15.31-2,0-3.59.48-.09-.1-1.25.14-1-.13-1.51.27.38.12.27.26-2.29.58-5.57.35-8.8,1.56A53.27,53.27,0,0,0,82,65.19c-.9.2.57-.61.58-.59a16.57,16.57,0,0,0-1.92.65,10.55,10.55,0,0,0-1.76.86c.22-.19-.07-.13-.5,0-1,.54-.54.59-1.89,1.21a3.38,3.38,0,0,1,.81-.88,15.6,15.6,0,0,0-1.65,1.14c-.54.4-1.1.77-1.61,1.23-.39.08.51-.71.9-1-1.29.88-3.22,2.44-3.36,3l.79-.58c-.4.39-.36,0-.07-.29,1-.94,1.61-1.05,1.72-1l-.75.62c1.09-.16,3.15-2.29,5-3.08l-.54.72,1.64-1.18c.43-.09.78,0,0,.47,1.32-.42,1.07-.61,2.25-.86.14,0,.09,0,0,.08.41-.2.81-.42,1.22-.6-.22.17.3.18-.49.42,2.35-.58,3.62-1.5,4.6-1.42l-.19.08c3.22-1,.22-.41,2.63-1.29l1.81.37.27-.35c.35-.05,1-.14.92,0,1.25-.41-.23-.09.48-.4.84,0,2-.21,3-.33s1.81-.21,2,0c.57-.28-1.62,0,.15-.34.56.46,2-.31,3.6-.17-.45.3-1.9.26-.36.39.89-.52,3-.1,4.26-.24,0-.36,2.8-.25,5-.41-.14.12,4.09.11,6.11.19l-.06.06c.39-.36,2.47-.33,4-.43-.06.22-.33.31-1.15.41l1.43,0a6,6,0,0,1,1.7-.24l-.36.27a59.66,59.66,0,0,1,6.27-.22c.13-.25-1.95-.67.63-.86.1.13.19.36-.48.42a6.05,6.05,0,0,1,1.23-.07l-1,.24c1.12.09.58-.2,1.47-.18,0,.19.66.12.54.28a7.06,7.06,0,0,0-1.12,0,12.61,12.61,0,0,1,2.62.26c-.09-.1,0-.25.73-.28,1.9,0,.65.22,1.76.31.46-.13,1.67,0,1.7-.29a1.66,1.66,0,0,1,.88.21c1-.14,4.58-.06,3.48-.36l-.26,0h.16c3.22-.3,6.7.14,9.89,0v.1c1.9-.11,4.24,0,5.61-.25.56,0,1.33.19,1.08.3a19.87,19.87,0,0,1,3.73,0c-1.47.16.51.15-1.5.11a18.65,18.65,0,0,0,4.36,0c-.7.24,1.42.33,2.32.26l-1.32-.19c1,0,1.89,0,2.79,0l-.49.32c3.87.45,7-.57,9.94.15,1-.21-2.1-.2-1.18-.45,1.78.08,3.63.58,4.19.6,2.44.23,2.29-.43,4.84-.25-.32-.12-.62-.43,1.29-.49s2.18.53,1,.6c-.43,0-.63,0-.61-.08-.58,0-1.34,0-.63.2l.23-.11c.88.14,3.34.19,2.75.36,1.36-.07.59-.17-.41-.26,2.28.22,3.57.11,5.92.29-.37-.08-.71-.22-.34-.21,3.45.25,1.53-.17,3.87-.15,1.33.22-.49.4,1.87.33,1.44.17.3.32-.28.39a31.56,31.56,0,0,1,5.23.37l-1.13,0a17.38,17.38,0,0,1,1.79,0l-.63-.26c.66.06,1.22.09,1.2.18.69-.12-.51-.4.86-.55.88.15,2.7,0,3,.29-2.78-.21.3.32-2.06.28a12.92,12.92,0,0,1,1.67.07c.1,0-.09.06-.27.07,2.65.38,1.23-.3,4-.18-.36.16.63.36,1.08.34-1.11,0-.52-.31.5-.4a17.53,17.53,0,0,0,2.86,0l-1.06-.11a10.68,10.68,0,0,1,2.49-.09c.1.14-1.13,0-.69.12,1.38-.25,3.08.46,5,.34.88.16.07.33.84.45,2.14-.11,2.33.32,4.52.29-.61-.27-.72-.24.83-.32-1.19-.08-2.41-.07-3.65-.08l2.38-.21c-1.1-.07-2.35,0-3,0,1.14-.13,1-.08.5-.3,1.51.43,3-.09,4.73.4l-.14.56a27.57,27.57,0,0,1,3.33.92,5,5,0,0,1,2.79,2.51,6.62,6.62,0,0,0-.45-.88,2.18,2.18,0,0,1,.75,1c.26.51.45,1.13.65,1.62-.21,0-.1.61-.13,1.07.17-.1.39,2.37.77,2.66L238,74.44c.12,2.78.82,3.12.94,5.8-.26-.79-.31.43-.59-1.34.06.89.09,1.69.22,1.69-.08.53.45,2.45.32,3.29a3.62,3.62,0,0,1,.36,1.48c0,.11-.09,0-.09,0s.22,1.56.38.67c-.41,2.78.49,7.68.08,10.1.16,1.94.3,4.29.38,6.05-.06-.11-.1,0-.09-.33-.09,2.44.6,1.48.48,4.26-.27,1.43-.21-1.47-.3-.58-.61.4.18,3.35-.16,5.23l-.05-.45c-.18,1.43.3,3.48.27,5.81,0,0-.05-.11-.09,0a51,51,0,0,1,.52,6.86c-.24-.7-.12-1-.37-.59,0,1,.4-.3.46,1.71-.14.66-.27,2.11-.54,2.3v-1.9c-.36,1,0,2.45-.09,3.45l-.15-.13c0,2.9.4,2.95.29,6.07l.12-.32c.33,1.72-.25,1.43,0,3.14l-.4.5c.05,1.13.25,4,.22,6-.23-1.16-.29-3.52-.41-5a30.68,30.68,0,0,0,.06,4.38,7.13,7.13,0,0,1,0-1.46,25.26,25.26,0,0,1,.2,5.4c-.36-.21-.48,1.23-.6,2.93s-.24,3.62-.69,4.28a4.38,4.38,0,0,1-2.6,3.95c-1.57.61-3.72.46-6,.64,1.66.49-1.33.09-1,.67a7.47,7.47,0,0,1-1.57.07l-3.25-.17c-.78-.13,1-.19.9-.32-2.34.08-1-.2-2.55-.27.33.2-.8.35-2.13.34l1.89.17c-3.25.5-2.85-.34-6.12.15l1-.24c-1.69.2-6.23.34-7.86.9-.31-.05-.71-.19,0-.27-4,.15-9,1-12.11.87l.3-.16a8.51,8.51,0,0,1-2.25.25c.05-.06.3-.16,0-.15a17.9,17.9,0,0,1-3,.33l.84-.21c-3.94,0-6,.73-9.31,1,0-.42-3.12-.39-4.67-.38l.05-.06c-4.59.2-7.77.78-12,1.18-2.67-.32-8.94.29-13.19.27.65,0-.09.33-.84.42-1,0-2.73.44-2.59,0h.35c-.77-.34-2.81-.13-4.4-.05l-.24.53c-4.21-.52-10.91.87-13.23.33-1,.18-2.24.25-3.23.43l0-.28c-2.8.08-4.19.13-7.64.38l.7-.23c-2,.08-2.42.92-4.21,1l-.56-.38c-3.39.19-6.85,0-10.18.57,0-.06.15-.19.7-.23-1.6.07-6.2.06-5.59.59-.06-.37-3.5.15-5.32.42l.27-.29a14.13,14.13,0,0,1-3.73.74c-.51,0-.46-.19.23-.16-1.72-.05-1.32.33-3.4.3l.77-.21a7.09,7.09,0,0,0-2.57.41,10,10,0,0,1-3.61-.12,4.78,4.78,0,0,1-2.21.4c-.15-.08.23-.16.42-.2-2.91,0-4.33.49-6.21-.1,0-.1-.13-.17-.28-.23a21.08,21.08,0,0,0,3.83.37c0-.24-1.81-.31-.38-.64a15.16,15.16,0,0,1-2.67.17,5.83,5.83,0,0,1-2.68-.68.73.73,0,0,1-.14-.18l.15.06c-.3-.2-.58-.35-.84-.5a7.28,7.28,0,0,1-.84-.93c0-.14-.22-.48-.44-.95a7,7,0,0,1-.53-1.46c-.25.14-.45-1-.44.11,0-.14.06.16.25.69a1.28,1.28,0,0,0,.15.33l0,0a5.61,5.61,0,0,0,1.06,1.73,2.85,2.85,0,0,1-1.21-1.89,6.48,6.48,0,0,1-.75-1.08,22.68,22.68,0,0,1,.45-4.07c-.26-2.87-.35-6.76-.93-8.54a2.06,2.06,0,0,1,.18-1.25,11.22,11.22,0,0,0,.17,1.28c-.19-1.63-.23-4.83-.6-5.21.08-2.06.37,1.15.2-1.68l.13.38c.37-5.58-1.25-9-.74-15.19a2.08,2.08,0,0,1-.1.73c.06-7-.84-14.46-.58-21.41a10.87,10.87,0,0,0-.43-3.37l.28-.44-.41-2c-.36-2.91.53-5.08-.07-8.75l-.18.48c0-1.32-.27-4.19,0-4a1.62,1.62,0,0,1-.14-1l.15,0-.38-3.25c0-2.53.62.37.52-3.31-.11-1.37-.59-3.88-.68-3.36s0,1.41-.19,1.46l-.13-1.25c-.46-.21-1-1.16-1.16,1.93l.36,2.13-.2.7-.08-1.8a5.76,5.76,0,0,0,.19,2.39,2,2,0,0,0-.2.91l.5,2.08c-.16.26-.38-.93-.43.49.24,1,.37-1,.56.66-.17,1-.35.74-.13,1.94-.11.17-.19-.08-.26-.55A26.45,26.45,0,0,0,68,92c-.21,1.08.2,3.61-.23,3.52a16,16,0,0,1,.46,2.86c-.58-1.78.11,3.68-.46,3.23.51,1.31.38,4.79.72,7.14a2,2,0,0,1-.11-.6,21.38,21.38,0,0,1-.17,2.57c.39.16.55,2.22.83,3.32-.31,1.64-.48-1-.82-.44.31-.1.42,2.81.65,2.25-.18,1.25-.07,1.07-.36,1.72.48.2.12,1.16.45,2.18-.17,1.8-.43.48-.21,2.45C68.6,123.14,68.37,121.39,68.37,121.39Zm6.89,46h0a6.81,6.81,0,0,1-1-.48A6.82,6.82,0,0,0,75.26,167.34Zm4.08.89c-.49,0-1.12-.11-1.77-.22-.13-.12,0-.19.45-.12C77.79,167.92,78.74,168.13,79.34,168.23Zm-5.93-5c.28.44.34.59.33.69a8.31,8.31,0,0,1-.49-.77l0,0A.66.66,0,0,1,73.41,163.22Z"/><path class="cls-3" d="M72.71,162.46a1.39,1.39,0,0,1-.1-.21l0,.34.15.16A1.66,1.66,0,0,1,72.71,162.46Z"/><path class="cls-3" d="M140.73,61.06h.08l-.18,0Z"/><polygon class="cls-3" points="133.93 165.96 133.92 165.9 133.58 165.97 133.93 165.96"/><path class="cls-3" d="M119,60.35a.73.73,0,0,0-.29-.07A1.13,1.13,0,0,0,119,60.35Z"/><path class="cls-3" d="M109.56,60.47l-1.34-.06C108.8,60.45,109.22,60.46,109.56,60.47Z"/><path class="cls-3" d="M102.31,60.63a.44.44,0,0,0-.14.13h0Z"/><path class="cls-3" d="M217.26,61.17h.28C218.2,61.14,217.75,61.14,217.26,61.17Z"/><path class="cls-3" d="M183.05,60.65c.37,0,.72-.08,1.1-.1C183.55,60.51,183.07,60.5,183.05,60.65Z"/><path class="cls-3" d="M241,83.28h0l0,.23Z"/><path class="cls-3" d="M185.74,60.59a8.69,8.69,0,0,0-1.59,0A14.07,14.07,0,0,0,185.74,60.59Z"/><path class="cls-3" d="M72.25,69.5l-.29.2s0,0,0,.07A3.71,3.71,0,0,1,72.25,69.5Z"/><path class="cls-3" d="M72,69.77l-.28.29A1.68,1.68,0,0,0,72,69.77Z"/><path class="cls-3" d="M71.1,70.66l.58-.6A2.68,2.68,0,0,0,71.1,70.66Z"/><path class="cls-3" d="M80.82,64.83l.07-.14A.15.15,0,0,0,80.82,64.83Z"/><path class="cls-3" d="M83.59,63.8c-.34.09-.78.18-1.25.29a9.32,9.32,0,0,0-1.4.49l0,.11a4.88,4.88,0,0,1,1.27-.45A6.44,6.44,0,0,0,83.59,63.8Z"/><path class="cls-3" d="M95.73,62.45c-.81.08-1.61.14-2.41.26.43,0,1,.08-.08.29C96.3,62.85,92.58,62.82,95.73,62.45Z"/><path class="cls-3" d="M103.23,61.92c-1.3.14,0,.16,0,.22C104,62,104.2,62,103.23,61.92Z"/><path class="cls-3" d="M157.76,61.31l-.13.25C158.64,61.53,157.64,61.46,157.76,61.31Z"/><polygon class="cls-3" points="168.21 60.13 167.23 59.96 166.76 60.19 168.21 60.13"/><polygon class="cls-3" points="174.34 62 173.9 62.02 175.59 61.96 174.34 62"/><path class="cls-3" d="M239.23,94l.29-.32C239.43,93,239.08,92.91,239.23,94Z"/><path class="cls-3" d="M240,133.53a5.37,5.37,0,0,0-.16,2.22C239.9,134.86,240,134,240,133.53Z"/><polygon class="cls-3" points="144.28 162.94 145.07 162.79 143.58 162.96 144.28 162.94"/><path class="cls-4" d="M108.41,79.91c0,.08.19,0,.23-.06C108.53,79.76,108.36,79.94,108.41,79.91Z"/><polygon class="cls-4" points="107.32 78.97 107.4 78.95 107.12 78.89 107.32 78.97"/><path class="cls-4" d="M106.69,77.89c-.24.29.28.36.28.62l0,.07.3-.06C107,78.31,106.7,78.11,106.69,77.89Z"/><path class="cls-4" d="M107,76.9c-.1.11-.17-.06,0,.16l0,0A.42.42,0,0,1,107,76.9Z"/><path class="cls-4" d="M107.07,77c.08.11.05-.14,0,0Z"/><path class="cls-4" d="M106.67,76.54l.2.08c0-.07,0-.21.06-.2C106.77,76.31,106.73,76.39,106.67,76.54Z"/><path class="cls-4" d="M106.36,76.55l.09,0S106.47,76.53,106.36,76.55Z"/><path class="cls-4" d="M106.65,76.69l-.2-.1s-.13.12.09,0C106.44,76.69,106.55,76.66,106.65,76.69Z"/><path class="cls-4" d="M106.67,76.81c0,.12,0,.26-.18.18C106.7,77.24,106.89,77.07,106.67,76.81Z"/><path class="cls-4" d="M106.34,78l0,.16.16,0C106.4,78.21,106.44,78,106.34,78Z"/><path class="cls-4" d="M106.21,75.53c-.07,0-.13.16-.21.23l.15.06C106.15,75.73,106.12,75.6,106.21,75.53Z"/><path class="cls-4" d="M106,75.76l-.21-.09C105.87,75.82,105.94,75.81,106,75.76Z"/><polygon class="cls-4" points="106.01 76.73 106.42 76.85 105.97 76.69 106.01 76.73"/><polygon class="cls-4" points="105.8 74.91 106.01 74.9 105.68 74.89 105.8 74.91"/><path class="cls-4" d="M105.5,74.52c.17,0,.14-.24.26-.22a.77.77,0,0,0-.41-.14C105.46,74.22,105.51,74.32,105.5,74.52Z"/><path class="cls-4" d="M105.12,74.11a.71.71,0,0,0,.23,0A.49.49,0,0,0,105.12,74.11Z"/><path class="cls-4" d="M105.63,75.38a.32.32,0,0,0,.1-.25l-.14.18Z"/><path class="cls-4" d="M105.59,75.32h0l-.08-.14Z"/><path class="cls-4" d="M105.64,75.39h0S105.62,75.4,105.64,75.39Z"/><path class="cls-4" d="M105.89,76.21c-.17,0-.4-.15-.43.14C105.63,76.33,105.64,76.17,105.89,76.21Z"/><path class="cls-4" d="M105.47,75.62l.08.2s.09-.11.17-.1Z"/><polygon class="cls-4" points="105.36 75.58 105.47 75.62 105.45 75.55 105.36 75.58"/><path class="cls-4" d="M105.15,74.52a.46.46,0,0,1-.26-.17,1.66,1.66,0,0,0,.15.33C105.1,74.65,105.23,74.62,105.15,74.52Z"/><path class="cls-4" d="M105.35,74.92h0S105.32,74.94,105.35,74.92Z"/><polygon class="cls-4" points="104.25 73.48 104.23 73.52 104.26 73.5 104.25 73.48"/><path class="cls-4" d="M105,74.72c0,.09.09.11.17.11a.54.54,0,0,1-.15-.15S105,74.7,105,74.72Z"/><path class="cls-4" d="M104.86,73.93v.19C104.89,74,104.92,73.91,104.86,73.93Z"/><path class="cls-4" d="M105.36,74.85h0S105.38,74.82,105.36,74.85Z"/><path class="cls-4" d="M105.36,74.85a.47.47,0,0,0-.17,0l.14.08Z"/><path class="cls-4" d="M103,74.05a.25.25,0,0,1,.4.25c.24.06.68-.43.87-.78-.08,0-.14.09-.36,0,0,.13.07.51-.17.48s-.08-.21-.08-.38c-.13.24-.49-.05-.74.22l.24.11S103,74,103,74.05Z"/><path class="cls-4" d="M104.45,73.84l.07,0a.72.72,0,0,1,0-.39.36.36,0,0,0-.3,0l.23.34Z"/><path class="cls-4" d="M104.75,74.19c-.21.07-.41,0-.52.2.15.18.24,0,.4.1-.27-.3.16,0,.1-.29a.78.78,0,0,1,.16.15,1.81,1.81,0,0,1,0-.23h0s0,0,0,0h0a.11.11,0,0,1-.07,0c0-.12,0,0,.07,0h0l-.33-.24A1.07,1.07,0,0,0,104.75,74.19Z"/><path class="cls-4" d="M105,76.43l0,0S104.94,76.39,105,76.43Z"/><path class="cls-4" d="M105,76.23s.12,0,.16.06-.09.06-.15.1.24.08.23-.12h0c0-.17.08-.49.12-.48A1.72,1.72,0,0,0,105,76.23Z"/><path class="cls-4" d="M104.82,75.23l-.27-.2-.06.24.08-.07C104.64,75.38,104.73,75.26,104.82,75.23Z"/><polygon class="cls-4" points="104.31 73.39 104.52 73.29 104.15 73.33 104.31 73.39"/><polygon class="cls-4" points="104.03 73.06 104.19 72.96 104.03 72.94 104.03 73.06"/><path class="cls-4" d="M84.49,59.85h0Z"/><path class="cls-4" d="M85.08,60.16l.06-.07S85.06,60.15,85.08,60.16Z"/><path class="cls-4" d="M96.84,65.39c0-.23.09-.55,0-.37l-.11.19A.22.22,0,0,1,96.84,65.39Z"/><path class="cls-4" d="M90.42,62.06v.07l.19-.12Z"/><path class="cls-4" d="M89.84,62.75l-.07-.22A.61.61,0,0,0,89.84,62.75Z"/><path class="cls-4" d="M81.09,58.49l-.19.16C81.06,58.71,81,58.58,81.09,58.49Z"/><path class="cls-4" d="M101.16,69.74a.7.7,0,0,0-.11-.32C101.06,69.62,101,69.83,101.16,69.74Z"/><path class="cls-4" d="M85.79,57.93a.16.16,0,0,0-.13.08C85.73,58,85.78,58,85.79,57.93Z"/><path class="cls-4" d="M100.82,69.16v.08a.58.58,0,0,1,.23.18C101.05,69.28,101,69.15,100.82,69.16Z"/><path class="cls-4" d="M68.46,54.65s0,0,0,0S68.44,54.66,68.46,54.65Z"/><path class="cls-4" d="M64.78,52.05H65A.25.25,0,0,0,64.78,52.05Z"/><path class="cls-4" d="M103,71.64c.07.06,0,0,0,0Z"/><path class="cls-4" d="M102.64,72.53a.16.16,0,0,0-.1,0A.19.19,0,0,1,102.64,72.53Z"/><path class="cls-4" d="M99.23,69.43h0S99.21,69.46,99.23,69.43Z"/><path class="cls-4" d="M103.05,71.81a.59.59,0,0,0,0-.13A.23.23,0,0,0,103.05,71.81Z"/><path class="cls-4" d="M103.12,71.73l0,.08S103.19,71.77,103.12,71.73Z"/><path class="cls-4" d="M103,71.55a.35.35,0,0,1,.08.13s0,0,0,0Z"/><path class="cls-4" d="M75.55,55.65v0C75.43,55.69,75.47,55.68,75.55,55.65Z"/><polygon class="cls-4" points="93.63 65.6 93.64 65.6 93.64 65.58 93.63 65.6"/><path class="cls-4" d="M93.28,65.54c.27-.13.31-.06.36,0L94,65Z"/><path class="cls-4" d="M83,59.18l.11.27c-.38.17-.5,0-.43.33.32-.6.78.31,1.11-.28l.06.19s-.06,0-.09,0c.1.41.41-.35.69-.1.09.11.12.24,0,.27l.33,0a.06.06,0,1,1-.08.09l.41.15v0a2,2,0,0,1,.4-.18c0,.13-.08,0-.1.12l.29,0c0,.19-.25.25-.39.16-.12.7.27-.07.49.52l-.24,0c-.06.41.16.38.26.72,0-.14-.14-.79.16-.8,0,.08.11.15.3.1-.12.21,0,.23.18.3l-.17.27c.2,0,.27-.13.44-.2.16.13.07.36,0,.57.26.21,0-.46.38-.31.17.24.4.22.78.23.11.19-.13.15-.12.26l.28-.13s0,.08,0,.11c.18,0,.18-.26.42-.22.25-.27.12.68.57.5,0,.11-.14.15-.19.26a2.33,2.33,0,0,0,.83-.09l.11.32c0-.31.33-.41.65-.47,0-.14,0-.26,0-.32l.39.06c0,.07-.09.14-.21.21l.1,0c0,.17-.12.28-.3.38v-.24a1.42,1.42,0,0,0-.46.41.22.22,0,0,1,.14,0,.19.19,0,0,0-.09.09s.06,0,.15,0l-.13.34.09-.1.26.44a2.7,2.7,0,0,1,1.54-.2c-.26.13-.27.33-.46.57.08-.35-.42-.11-.6-.32a.14.14,0,0,1-.07.23l.57,0c-.16.2,0,.21,0,.38.22-.47.48-.05.73-.06-.09.15-.23.25-.4.08,0,.46.62-.27.64.15,0,0-.06-.07-.13,0,.2,0,.39.26.24.33l0,0c.28.28.94.72,1.25.43a5.78,5.78,0,0,1-.43.42l1.45-.69c-.28.25-.64,1.06-1,1a.33.33,0,0,0,.33.23c0-.08.21-.51.3-.48a2.63,2.63,0,0,0,0,.74c0-.12.43-.49.53-.38-.07.05-.35.44-.43.45L95,66c-.14,0-.32.35-.36.52,0-.11.23.22.34.25l0-.21c.26.34.83-.32,1.13,0-.11,0-.57.45-.45.65.26-.16,1.25-.75,1.68-.66l0,.17.34,0a13.15,13.15,0,0,1-1.86.63c0,.2-.1.17.09.31,0,.17-.26.09-.31,0l.34.43c.21-.26.54,0,.71-.18-.22-.06-.45-.1-.68-.14.2-.26.92-.49,1.15-.16,0,.16-.46.38-.53.47.11,0,.41.1.38.18h-.24c.07.25.56-.07.52.34,0,.08-.11.5,0,.37a4.65,4.65,0,0,1,1.24-1.38,2.82,2.82,0,0,1,0,.81c-.11.31-.67.35-.76.62A.51.51,0,0,1,98,69c0,.12-.23.18-.06.29.27-.22.28.32.27-.13.22.07.11.2.28.35a1,1,0,0,1,.91-.29.51.51,0,0,0-.14.21c.28.31.3.6.56.88,0,.09,0,.29-.15.33.08,0,.2,0,.28,0-.06.37-.21-.17-.35.2.15-.12.4,0,.61.09.19-.24-.22-.33-.42-.38a1.22,1.22,0,0,1,1.25-.18c.3.18-.11.29,0,.29.35.5.91-.09,1,.49-.08.32-.41.35-.52.51-.26-.13-.14-.41-.27-.54l.05.25c-.12,0-.29-.09-.3-.22-.08.29.66.79.77,1.3.12,0,.28.07.32-.06l-.12-.09c.09-.24.41,0,.37-.18.24.06.57.09.65.39l-.21.23c.06-.06,0-.26-.09-.26.17,0-.06.6.33.45l0-.29c.24.07.65.06.73.32.17-.27-.06,0,.11-.38-.26.39-.39-.52-.6,0,.21-.4-.06-.36.07-.77-.08.07-.1.19-.19,0l-.1,0v0h0A.38.38,0,0,1,103,72c-.24.06-.44-.21-.61-.22s.12,0,.17-.16l-.25,0c.16-.15.07-.49.36-.35l-.17-.21a.44.44,0,0,0-.27-.43c0-.13-.4-.08-.19-.11l-.39-.22,0,0c-.25-.33-.84-.39-.86-1a.64.64,0,0,1-.38-.34l.11-.17c-.17-.09-.24-.51-.44-.43.24-.5-.54-.7-.7-1l-.19.17a1.59,1.59,0,0,0-.6-.38l-.14.18c-.3,0-.32-.54-.59-.78.07,0,.12,0,.14.12,0-.68-.94-.34-1-.88a.16.16,0,0,1-.18-.16h0l0,0a1.1,1.1,0,0,0,0-.18.81.81,0,0,0,0,.17.78.78,0,0,0-.29-.14l.12-.21h0c0-.14-.15,0-.22.2a.5.5,0,0,0-.21,0c.19-.35-.31-.1-.13-.49-.19.1-.53-.26-.84,0,0,0,0-.09.07,0-.06-.12-.13-.24-.29-.22l.16-.27-.48.14c0-.24,0-.37.28-.45-.54,0-.34-.1-.83,0l.13-.15c-.1-.06-.41,0-.37-.15,0-.46-1-.86-1.38-1.56-.23.55-.11-.41-.4,0,0-.14,0-.26.18-.29-.38-.09-.32-.48-.75-.31,0-.13.18-.12.2-.21s-.16,0-.15,0,.11-.07.19-.08c-.31-.19-.58.14-.83.45,0-.25-.14-.28-.39-.14,0-.14,0-.32.22-.23-.1-.09-.54-.59-.73-.33,0-.09-.13-.12-.18-.11a2.36,2.36,0,0,0-.48-.35l0,.09c-.3.26-.24,0-.46-.12l0,0c-.3-.5-.27,0-.54-.53l-.1.22c-.31.42-.23-.49-.59-.47l0,.17c-.23.07,0-.83-.15-1s.09,0,.15,0c-.22-.48-.21.24-.52.14,0-.17.28-.33.11-.47s-.8.16-.91-.26c0,.15,0,.29-.19.31s-.31-.71-.68-.44a.13.13,0,0,1,0-.11c-.21,0-.58-.1-.78.05.23-.81-1.13-.12-.79-.8l-.49-.21,0-.06c-.28-.2-.47-.07-.66,0,0-.08,0-.12.06-.16-.39-.33-.45-.33-1-.14l.06-.25c-.16.09-.5-.64-1.07-.56a.22.22,0,0,1,.1-.09c-.61,0-1-1.14-1.49-.36l-.42.09c.42.22-.2.34-.07.55-.19,0-.35-.41-.12-.38l0,0c.24-.41-.49-.35-.37-.65-.87-.28-1.63-.85-2.46-1.09v.38l-.29-.1c-.05-.11,0-.31.19-.23-.05-.23-.4.06-.43.14-.36-.26.28-.37.16-.41l-.18,0,0,0c-.18.1-.24.25-.48.16s0-.24-.08-.27,0,0-.09,0l-.36-.13.07.32c-.19.09-.33-.11-.25.25-.06-.28-.39-.42-.71-.52s-.67-.1-.72-.2a.86.86,0,0,1-.78,0c.06.07,0,.4-.21.31.24-.64-.37-.38-.47-.9.11.35-.71-.07-.52.43-.19-.09,0-.24-.09-.43-.52.13-1-.37-1.66-.37,0,.08.06.23-.09.34L69,52.35c-.13,0-.19.48-.36.15,0,.08,0,.2,0,.21a4,4,0,0,0-1.78-.34,2.77,2.77,0,0,1-1.8-.51c.15.18,0,.19-.08.18.07.05,0,.22,0,.34L64.45,52c-.11.32-.54,0-.61.29l.16,0c-.23.36.25.86.19,1.33.26-.4.57.68,1,.1.07.11-.09.15-.05.27.11-.2.23-.23.44-.13l0,0a4.28,4.28,0,0,1,1.5.43l0-.24a.46.46,0,0,1,.23.2c.21-.33-.41-.08-.21-.45.13.5,1,.16,1.08.72.22,0,0-.28.19-.25l0,.16.08-.18a.35.35,0,0,1,.17.37s-.1,0-.14,0c.16.21.54,0,.59.09l-.19-.12a12.75,12.75,0,0,0,2,.09l0-.12c.49-.1.33.2.84.21l0,0a.43.43,0,0,1,.39-.08c-.15.11.17.3,0,.41.53-.11.28-.12.69-.45l0,.19c.15-.14.18-.22.43-.21-.24.11.09.3-.18.46.41.49.85-.2.93.43.36-.43-.36-.4-.21-.47-.06-.19.29-.32.44-.22s.1.71.5.82c0,0,0,0-.09,0,.12.17.34-.09.47.17.19-.27.23.09.38-.29H75c.24,0,.57-.43.85-.12a.75.75,0,0,1-.27.18c.07.14.22,0,.29.13-.15.37-.48-.05-.79.18.06.19.51-.16.27.22.32-.48.38.18.77-.14l-.09.22c.06,0,.18-.1.26-.07l-.24.25c.3-.19.35.33.6.28-.43-.15,0-.31-.14-.54.64-.11.12.7.74.8-.09,0-.25-.24-.09-.3a.79.79,0,0,1,.25.37c.4.1,0-.25.23-.33,0,.32.23,0,.44-.06l-.08.22c.4.31.29-.43.63-.1l-.28.25h.24l-.14.24c.3-.1.35,0,.55.12,0-.17.18-.4.39-.33s-.16.19.14.26c-.12.11-.26.26-.3,0,0,.07-.12.12-.16.19s.35.17.45.2a.26.26,0,0,1-.09-.09l.53-.15c0,.11-.05.16-.12.2.09,0,.18-.06.31,0-.1.17-.17.36-.37.37l.46,0c0,.09.1.3,0,.35.17.2.67-.13.89.13a.17.17,0,0,1,.14-.05c.24.16.38.48.8.36l0,.4c.27,0-.06-.51.41-.45s0,.32,0,.45c.22-.09.61-.29.75.1C83.16,59.27,83.12,59.19,83,59.18Zm3,1.37c-.08,0-.27.08-.24-.06C86,60.28,86,60.42,86,60.55Zm4.56,2.16c-.09,0-.13,0-.15-.15A.19.19,0,0,1,90.57,62.71ZM102.25,71h0C102.21,70.83,102.22,70.9,102.25,71Zm.12.3a.09.09,0,0,0,.09,0c-.06,0-.11,0-.15-.1S102.27,71.26,102.37,71.3ZM75.09,53.83l0,.07C75,53.93,75,53.88,75.09,53.83Z"/><path class="cls-4" d="M89.91,62.67a.5.5,0,0,1,0-.13S89.89,62.6,89.91,62.67Z"/><path class="cls-4" d="M81.12,58.46h0s0,0,0,0Z"/><path class="cls-4" d="M97.7,69.26a.31.31,0,0,1,0-.17A.12.12,0,0,0,97.7,69.26Z"/><path class="cls-4" d="M103.7,72.32l-.17-.12c.07.07,0,.13,0,.19S103.66,72.27,103.7,72.32Z"/><path class="cls-4" d="M103.56,74.56s0,0,.08,0l.08-.07C103.64,74.45,103.52,74.44,103.56,74.56Z"/><path class="cls-4" d="M103.19,73c-.16.13,0,.19.09.27s0,0,0,0C103.51,73.07,103.35,73,103.19,73Z"/><path class="cls-4" d="M103.3,73.25a.19.19,0,0,1,.08.1C103.48,73.29,103.37,73.3,103.3,73.25Z"/><path class="cls-4" d="M102.73,71.51c0,.09.22-.13.18-.05C103.16,71.35,102.4,71.31,102.73,71.51Z"/><polygon class="cls-4" points="102.72 73.45 102.89 73.26 102.69 73.33 102.72 73.45"/><path class="cls-4" d="M102.21,72.5l.08.21s.07,0,.11,0S102.27,72.45,102.21,72.5Z"/><path class="cls-4" d="M102.4,72.7a.22.22,0,0,0,.13.12A.51.51,0,0,0,102.4,72.7Z"/><polygon class="cls-4" points="102.48 73.27 102.49 73.19 102.41 73.06 102.48 73.27"/><path class="cls-4" d="M100.74,70.7l-.21-.13a.09.09,0,0,0,0,.17C100.62,70.74,100.7,70.78,100.74,70.7Z"/><path class="cls-4" d="M100.69,71.69a.42.42,0,0,1,.08-.21l-.24.2Z"/><path class="cls-4" d="M100.19,71.22c-.08,0-.41-.08-.2.12C100.07,71.3,100.28,71.43,100.19,71.22Z"/><polygon class="cls-4" points="98.05 68.4 98.09 68.44 98.44 68.07 98.05 68.4"/><path class="cls-4" d="M95,67.2c.13.27.26-.2.35.08.12,0-.07-.23,0-.26C95.15,67,95.13,66.9,95,67.2Z"/><path class="cls-4" d="M95.35,67h0Z"/><polygon class="cls-4" points="64.13 51.72 63.95 51.6 64.06 51.78 64.13 51.72"/><path class="cls-4" d="M63.76,52.07l0-.33-.12.29S63.73,52,63.76,52.07Z"/><path class="cls-4" d="M86.1,61.36l.05-.06c0-.08,0-.11-.07-.16Z"/><polygon class="cls-4" points="84.14 60.03 84.18 60.05 84.25 59.76 84.14 60.03"/><path class="cls-4" d="M82.22,59.48c.07,0,.18,0,.24.07C82.29,59.52,82.35,59.14,82.22,59.48Z"/><path class="cls-4" d="M108.21,64.84s-.19,0-.23,0S108.26,64.84,108.21,64.84Z"/><polygon class="cls-4" points="108.74 65.53 108.65 65.52 108.87 65.62 108.74 65.53"/><path class="cls-4" d="M108.76,66.23c.35-.08-.07-.25.06-.38l.08,0-.29,0C108.66,65.93,108.86,66.12,108.76,66.23Z"/><path class="cls-4" d="M108,66.62c.13,0,.12.07,0-.09l0,0S108,66.58,108,66.62Z"/><path class="cls-4" d="M108,66.55c0-.08-.11,0,0,0Z"/><path class="cls-4" d="M108.09,66.88l-.13-.1c-.08,0-.1.11-.16.08S108,66.94,108.09,66.88Z"/><path class="cls-4" d="M108.35,67l0,0S108.25,66.94,108.35,67Z"/><path class="cls-4" d="M108.19,66.81l.11.11s.17,0,0,0C108.36,66.88,108.26,66.86,108.19,66.81Z"/><path class="cls-4" d="M108.24,66.75c.08,0,.12-.12.25,0C108.44,66.54,108.19,66.57,108.24,66.75Z"/><path class="cls-4" d="M109.13,66.26l.1-.08-.12-.06C109.17,66.15,109,66.26,109.13,66.26Z"/><path class="cls-4" d="M107.9,67.48a1.77,1.77,0,0,0,.3,0l-.09-.07A.3.3,0,0,1,107.9,67.48Z"/><path class="cls-4" d="M108.2,67.44l.13.11C108.35,67.46,108.28,67.44,108.2,67.44Z"/><polygon class="cls-4" points="108.74 66.99 108.47 66.81 108.75 67.02 108.74 66.99"/><polygon class="cls-4" points="107.89 67.89 107.71 67.83 107.98 67.94 107.89 67.89"/><path class="cls-4" d="M107.91,68.16c-.14,0-.25.06-.33,0s.14.14.25.2C107.77,68.3,107.79,68.24,107.91,68.16Z"/><path class="cls-4" d="M108,68.47a.85.85,0,0,0-.17-.1A.75.75,0,0,0,108,68.47Z"/><path class="cls-4" d="M108.29,67.73a.49.49,0,0,0-.22.09l.22,0Z"/><path class="cls-4" d="M108.29,67.78h0v0Z"/><path class="cls-4" d="M108.29,67.72h0S108.32,67.73,108.29,67.72Z"/><path class="cls-4" d="M108.55,67.27c.12.06.25.2.43.07C108.83,67.29,108.73,67.37,108.55,67.27Z"/><path class="cls-4" d="M108.56,67.67l0-.11a.45.45,0,0,1-.2,0Z"/><polygon class="cls-4" points="108.63 67.73 108.56 67.67 108.54 67.72 108.63 67.73"/><path class="cls-4" d="M108.2,68.28a.19.19,0,0,1,.11.16.3.3,0,0,0,.07-.19C108.31,68.24,108.2,68.2,108.2,68.28Z"/><path class="cls-4" d="M108.27,68h0S108.3,68,108.27,68Z"/><polygon class="cls-4" points="108.29 69.05 108.33 69.04 108.3 69.04 108.29 69.05"/><path class="cls-4" d="M108.42,68.24s0-.08-.07-.11a.21.21,0,0,1,0,.12S108.43,68.25,108.42,68.24Z"/><path class="cls-4" d="M108.09,68.64l.12-.08C108.14,68.58,108,68.63,108.09,68.64Z"/><path class="cls-4" d="M108.22,68.06h0S108.19,68.07,108.22,68.06Z"/><path class="cls-4" d="M108.22,68.06a.4.4,0,0,0,.13.07l-.07-.09Z"/><path class="cls-4" d="M109.66,69.28c-.2,0-.38-.15-.16-.26a2.32,2.32,0,0,0-1.17,0,.36.36,0,0,1,.28.13c.11,0,.26-.25.44-.15s-.07.13-.18.2c.25-.06.35.21.71.19l-.12-.14C109.52,69.27,109.6,69.32,109.66,69.28Z"/><path class="cls-4" d="M108.36,68.82l0,0a.81.81,0,0,1-.28.15.45.45,0,0,0,.24.11l0-.23Z"/><path class="cls-4" d="M108.34,68.57c.22,0,.3.15.54.09,0-.14-.18-.1-.27-.19,0,.23-.12-.06-.24.09a.23.23,0,0,1-.06-.12l-.1.12h.05l.08,0c0,.06-.06,0-.08,0h0l.12.23S108.36,68.67,108.34,68.57Z"/><path class="cls-4" d="M109.44,67.46h0S109.44,67.49,109.44,67.46Z"/><path class="cls-4" d="M109.31,67.55s-.12,0-.09-.08.1,0,.17,0-.15-.11-.26,0h0a.81.81,0,0,1-.37.19A3.21,3.21,0,0,0,109.31,67.55Z"/><path class="cls-4" d="M108.88,68.07l.11.19.18-.09h-.11C109.11,68.07,109,68.09,108.88,68.07Z"/><polygon class="cls-4" points="108.19 69.06 107.96 69.03 108.28 69.15 108.19 69.06"/><polygon class="cls-4" points="108.2 69.31 108.01 69.29 108.12 69.36 108.2 69.31"/><path class="cls-4" d="M105.94,81.4l-.07,0Z"/><path class="cls-4" d="M106.48,81.54l0-.09S106.45,81.53,106.48,81.54Z"/><path class="cls-4" d="M107.82,75.24c-.19.07-.48.13-.26.14h.22C107.74,75.31,107.77,75.27,107.82,75.24Z"/><path class="cls-4" d="M108.69,79.48h.07l-.19-.16Z"/><path class="cls-4" d="M109.53,80.05l-.15.07A.34.34,0,0,0,109.53,80.05Z"/><path class="cls-4" d="M103.76,81.11l-.11.2C103.74,81.33,103.73,81.21,103.76,81.11Z"/><path class="cls-4" d="M108.15,71.78a.31.31,0,0,0-.14.16C108.14,71.87,108.33,71.82,108.15,71.78Z"/><path class="cls-4" d="M106.64,79.2a.2.2,0,0,0-.08.12A.16.16,0,0,0,106.64,79.2Z"/><path class="cls-4" d="M108,72.14l0,0a.21.21,0,0,1,0-.17C107.91,72,107.85,72.07,108,72.14Z"/><path class="cls-4" d="M96.11,79.08l0,0S96.09,79.08,96.11,79.08Z"/><path class="cls-4" d="M94.33,76.4a.33.33,0,0,1,.1,0A.11.11,0,0,0,94.33,76.4Z"/><path class="cls-4" d="M108.07,70.27s0,0,0,0Z"/><path class="cls-4" d="M108.93,70.06a.18.18,0,0,0,.11,0Z"/><path class="cls-4" d="M109.31,72.75h0S109.34,72.75,109.31,72.75Z"/><path class="cls-4" d="M108.17,70.2l-.07.06Z"/><path class="cls-4" d="M108.06,70.2l0,0S108,70.16,108.06,70.2Z"/><path class="cls-4" d="M108.07,70.34a.13.13,0,0,1,0-.08h0Z"/><path class="cls-4" d="M100.36,79.51v0C100.28,79.56,100.31,79.55,100.36,79.51Z"/><polygon class="cls-4" points="109.94 76.8 109.93 76.79 109.92 76.8 109.94 76.8"/><path class="cls-4" d="M110.08,77c-.26-.11-.22-.15-.16-.2h-.63Z"/><path class="cls-4" d="M105,81.23l.08.22c-.23.28-.31.14-.26.44.18-.66.51,0,.69-.6l0,.16s0,0-.06,0c.09.35.24-.45.43-.3a.17.17,0,0,1,0,.24,1.05,1.05,0,0,1,.21-.12.06.06,0,1,1-.05.11l.41,0v0c.07-.1.2-.23.25-.29.09.12,0,.06,0,.15l.2-.12a.19.19,0,0,1-.23.28c.21.74.17-.14.65.39l-.21,0c.19.45.36.34.7.67-.13-.16-.66-.78-.43-.9.07.07.17.12.26,0,.07.27.18.23.34.26l.1.35c.16-.06.07-.25.11-.39.2.08.37.38.53.63.37.14-.43-.51-.09-.49.32.2.44.09.56-.07.26.17.13.23.27.35a1.52,1.52,0,0,0-.14-.38s.07.07.11.12c-.07-.24-.28-.39-.33-.67-.3-.41.5.15.18-.49.08,0,.17.2.28.29a3.08,3.08,0,0,0-.43-1l.22-.07c-.24,0-.48-.39-.69-.64l-.26-.06-.14-.27a1.07,1.07,0,0,1,.28.18l-.07-.08a.76.76,0,0,1,.45.26l-.19,0a3,3,0,0,0,.55.43.27.27,0,0,1-.07-.14.33.33,0,0,0,.12.1s0-.06-.1-.15l.34.11-.13-.08.26-.32c-.31-.43-.81-.74-.93-1a2.12,2.12,0,0,0,.73.1c-.16,0-.14.09-.08.17s.15.23.1.33c0-.11.19-.06.24,0a1.53,1.53,0,0,0-.26-.41c.25,0,.2,0,.31-.1-.5,0-.31-.25-.45-.38.17,0,.34,0,.28.19.39-.11-.56-.26-.23-.38,0,0,0,0,.06.07-.14-.09,0-.28.14-.22v0c.08-.23.07-.7-.35-.78.06,0,.51.08.59.1l-1.38-.55c.36.07,1.24,0,1.43.23,0-.05.12-.11,0-.24a1.32,1.32,0,0,1-.56,0,2.27,2.27,0,0,0,.59-.22c-.09.05-.65-.07-.62-.15a5.82,5.82,0,0,1,.62.08l-.54-.27a1.48,1.48,0,0,0,.64,0c-.12,0,0-.19,0-.26l-.13.08c.1-.24-.77-.31-.72-.56.11,0,.71.14.79,0a5.57,5.57,0,0,1-1.56-.61l.17,0-.17-.18a13.7,13.7,0,0,1,1.64.7c.14-.08.19,0,.19-.15a.18.18,0,0,1,.23.14l.13-.32c-.33,0-.31-.28-.59-.29l.31.39c-.33,0-.93-.29-.85-.52a4,4,0,0,1,.71.1c-.12,0-.21-.23-.12-.25l.17.11c.13-.11-.43-.24-.1-.37,0,0,.45-.13.25-.15a8,8,0,0,1-1.86-.1,2.81,2.81,0,0,1,.59-.3c.3-.06.7.19,1,.13a.5.5,0,0,1-.23-.09c.08,0,.28.05.25-.08-.34,0,0-.24-.28-.08-.09-.12.08-.12.07-.26a1.43,1.43,0,0,1-.83-.3,1,1,0,0,0,.26,0c0-.24.21-.36.23-.59.08,0,.19-.11.33-.06-.06,0-.17-.07-.17-.14.3-.12,0,.16.39.08-.19,0-.26-.2-.38-.31-.3,0-.07.23.05.33a1.47,1.47,0,0,1-1-.47c-.1-.2.27-.07.22-.1.09-.35-.72-.35-.4-.62a2,2,0,0,1,.73,0c.09.16-.18.22-.18.33l.13-.12c.09,0,.15.16.07.21.25-.08.08-.6.32-.86-.09,0-.18-.14-.29-.1l0,.08c-.22.07-.29-.17-.4-.07-.15-.12-.38-.26-.25-.42l.31,0c-.09,0-.19.1-.1.15-.13-.07.43-.23,0-.32l-.22.1c-.15-.12-.47-.27-.36-.41-.31,0,0,0-.33.12.45-.07,0,.36.44.24-.42.09-.19.17-.54.29.1,0,.19,0,.14.08l.09,0h0a.3.3,0,0,1,.16,0c.23.07.21.26.33.33,0,.07-.11,0-.22,0l.17.1c-.22,0-.38.17-.51,0v.15c-.14.08-.19.2-.1.28-.06.07.23.19.06.12l.13.25h-.06c0,.24.34.51-.08.75a.27.27,0,0,1,0,.3h-.19c.06.1-.22.29,0,.34-.53.07-.15.49-.26.66l.25,0a.67.67,0,0,0,.13.41h.23c.17.14-.19.32-.19.53-.08,0-.05-.07,0-.11-.52.21.32.56-.06.75.07.06,0,.1,0,.14s0,0,0,0v0l-.13.07.13,0a.34.34,0,0,0,.07.18h-.24v0c-.09,0,.11.06.29,0a.71.71,0,0,0,.14.1c-.39,0,.12.18-.3.21.19.07.12.34.54.42-.06,0-.09,0-.09,0s-.11.14,0,.21h-.31l.39.2a.51.51,0,0,1-.53,0c.34.26.12.2.46.43l-.2,0c0,.07.26.21.09.23-.39.12-.13.76-.52,1.12.59,0-.28.16.17.22a.64.64,0,0,1-.34,0c.12.12-.22.06.14.24-.14,0-.2-.09-.28-.11s.12.07,0,0l-.17-.08a4.66,4.66,0,0,0,.8.45c-.19,0-.16,0,.08.22-.13,0-.26-.09-.3-.2,0,0-.2.11.09.37-.08,0,0,0,0,.09a.32.32,0,0,0,0,.21l0,0c.34.44.07.19.1.33l0,0c-.13-.06-.1,0-.11,0s0,.06-.22-.16l.19.29c.34.62-.41-.41-.38-.2l.12.17c0,.18-.52-.85-.55-.92a.3.3,0,0,1,0-.11c-.18-.36.12.35.05.41A3,3,0,0,0,107,79c0-.14,0,.56-.14.2a.75.75,0,0,1,0,.37c-.1,0-.1-.53-.25-.15a.17.17,0,0,1,0-.1c-.12.08-.35.09-.47.29.11-.82-.69.25-.51-.49l-.31,0,0-.08c-.18-.09-.29.07-.4.23,0-.06,0-.12,0-.16-.24-.22-.28-.19-.6.12l0-.24c-.09.12-.31-.48-.65-.26a.21.21,0,0,1,.06-.1c-.38.2-.58-.85-.9,0l-.25.17c.24.13-.13.37-.06.54-.11,0-.2-.33-.06-.34v0c.15-.45-.29-.24-.21-.55-.52-.11-1-.48-1.44-.62l0,.37-.16-.06c0-.09,0-.29.12-.25,0-.21-.24.12-.26.2-.21-.2.18-.39.11-.42h-.1v0c-.11.13-.15.28-.29.23s0-.23,0-.26,0,0-.06,0l-.2-.08,0,.3c-.13.12-.2-.06-.17.28,0-.53-.75-.37-.81-.54a.35.35,0,0,1-.46.07c0,.07,0,.39-.15.32.2-.64-.19-.34-.2-.84,0,.34-.41,0-.35.46-.1-.08.05-.24,0-.42-.33.19-.57-.31-.93-.31,0,.09,0,.23-.1.34l-.08-.47c-.08,0-.17.48-.23.15,0,.08,0,.19,0,.21-.57-.58-1.44,0-1.94-.94,0,.19,0,.19-.08.18s-.05.22-.07.33l-.21-.39c-.12.31-.31,0-.41.25l.1,0c-.19.34,0,.85-.12,1.31.22-.38.21.7.56.16,0,.11-.07.14-.07.26.1-.19.18-.21.28-.1l0,0c.36,0,.46.27.82.5l0-.24a.32.32,0,0,1,.1.19c.18-.32-.23-.07-.06-.44,0,.5.6.15.55.7.13,0,0-.27.15-.24v.16l.07-.18c.08,0,.08.24.06.36s-.07,0-.09,0c.07.19.32,0,.34.08l-.1-.12c.38-.05.77.24,1.18,0V79c.31-.14.18.17.49.14l0,0a.22.22,0,0,1,.25-.1c-.1.11.08.28,0,.4.33-.15.18-.14.46-.5v.19c.1-.15.13-.23.28-.24-.15.12,0,.29-.15.47.21.46.54-.29.54.32.26-.47-.19-.34-.09-.43s.2-.35.28-.28,0,.68.26.73c0,0,0,0-.06,0,.07.15.22-.13.28.11.14-.29.14.05.25-.33l-.24,0c.15-.07.37-.49.53-.22a.91.91,0,0,1-.18.21c0,.13.14-.05.17.08-.11.38-.29,0-.49.28,0,.18.32-.22.15.19.22-.51.23.12.48-.25l-.06.23s.11-.12.16-.11l-.16.28c.19-.22.21.29.36.18-.26-.06,0-.29-.06-.49.4-.23,0,.65.44.63-.06,0-.16-.19,0-.27a.56.56,0,0,1,.14.3c.25,0,0-.24.16-.36,0,.3.14-.09.27-.15l-.06.23c.25.22.19-.47.4-.23l-.18.31.15-.06-.09.26c.19-.16.22-.1.34,0,0-.17.12-.42.24-.4s-.1.21.08.22c-.07.14-.16.31-.18.08a1.36,1.36,0,0,0-.1.21c0,.18.22.09.28.1a.11.11,0,0,1-.06-.07l.33-.26a.28.28,0,0,1-.07.22s.11-.11.19-.11c-.06.18-.1.38-.23.44l.29-.15c0,.09.07.26,0,.32.11.14.42-.29.56-.1a.13.13,0,0,1,.09-.09c.15.09.24.36.5.14l0,.37c.17,0-.05-.46.24-.53s0,.31,0,.42c.13-.15.37-.47.47-.15C105.08,81.28,105.05,81.22,105,81.23Zm2.41.43c-.05,0-.15.17-.21,0S107.28,81.55,107.4,81.66Zm1.77-2.29c.07.06,0,.11-.07.12A.1.1,0,0,1,109.17,79.37Zm-.94-8.53h0C108.14,70.92,108.18,70.9,108.23,70.84Zm.12-.17a.12.12,0,0,0-.1,0c.06,0,.06,0,0,.1S108.4,70.73,108.35,70.67Zm-8.16,7.13,0,.07C100.12,77.91,100.15,77.86,100.19,77.8Z"/><path class="cls-4" d="M109.43,80a.34.34,0,0,1-.12-.06S109.39,80,109.43,80Z"/><polygon class="cls-4" points="103.78 81.07 103.78 81.07 103.76 81.11 103.78 81.07"/><path class="cls-4" d="M110.2,73.52a.2.2,0,0,1-.13.06C110.13,73.59,110.18,73.58,110.2,73.52Z"/><path class="cls-4" d="M108,69.74l.06.11s0-.07.08-.1S108,69.77,108,69.74Z"/><path class="cls-4" d="M109.51,68.83s0,0,0,0h-.11A.08.08,0,0,0,109.51,68.83Z"/><path class="cls-4" d="M108.79,69.67c.2,0,.13-.07.1-.15h0C108.61,69.5,108.7,69.58,108.79,69.67Z"/><path class="cls-4" d="M108.88,69.5s0,0,0-.07S108.86,69.45,108.88,69.5Z"/><path class="cls-4" d="M108.22,70.45c.06,0-.25,0-.17-.06C107.79,70.34,108.35,70.66,108.22,70.45Z"/><polygon class="cls-4" points="109.46 69.64 109.2 69.65 109.41 69.7 109.46 69.64"/><path class="cls-4" d="M109.24,70.25l.08-.12a.09.09,0,0,1-.08,0C109.22,70.16,109.17,70.25,109.24,70.25Z"/><path class="cls-4" d="M109.24,70.09a.12.12,0,0,0,0-.11A.19.19,0,0,0,109.24,70.09Z"/><polygon class="cls-4" points="109.52 69.81 109.47 69.84 109.45 69.93 109.52 69.81"/><path class="cls-4" d="M109.12,71.59l.06.15c.09,0,.14,0,.11-.07S109.2,71.58,109.12,71.59Z"/><path class="cls-4" d="M109.83,71.22a.87.87,0,0,1-.19,0l.31,0Z"/><path class="cls-4" d="M109.88,71.63c.08,0,.23.21.22,0C110,71.65,110,71.5,109.88,71.63Z"/><polygon class="cls-4" points="109.34 73.67 109.33 73.64 108.83 73.6 109.34 73.67"/><path class="cls-4" d="M110.39,75.6c.14-.15-.3-.07-.14-.2-.12-.05-.13.11-.23.06C110.13,75.57,110.06,75.62,110.39,75.6Z"/><path class="cls-4" d="M110,75.46l-.08-.06A.21.21,0,0,0,110,75.46Z"/><polygon class="cls-4" points="94.01 76.04 93.94 75.91 93.97 76.09 94.01 76.04"/><path class="cls-4" d="M93.74,76.36l0-.32-.12.27S93.74,76.29,93.74,76.36Z"/><path class="cls-4" d="M108.06,82.49V82.4a.31.31,0,0,0-.19-.15Z"/><polygon class="cls-4" points="105.73 81.68 105.76 81.69 105.78 81.39 105.73 81.68"/><path class="cls-4" d="M104.49,81.76s.12,0,.16,0C104.53,81.78,104.56,81.4,104.49,81.76Z"/><path class="cls-4" d="M112.32,208.92c0,.05.15.13.18.15S112.27,208.9,112.32,208.92Z"/><polygon class="cls-4" points="112.36 207.77 112.43 207.82 112.31 207.59 112.36 207.77"/><path class="cls-4" d="M112.8,206.89c-.36-.07-.11.35-.3.45h-.08l.22.2C112.69,207.31,112.65,207,112.8,206.89Z"/><path class="cls-4" d="M113.73,206.76c-.14,0-.06-.15-.09.1h0S113.7,206.81,113.73,206.76Z"/><path class="cls-4" d="M113.68,206.85c0,.1.13,0,0,0Z"/><path class="cls-4" d="M113.81,206.38l.06.18c.08,0,.15-.09.19,0C114.05,206.38,114,206.37,113.81,206.38Z"/><path class="cls-4" d="M113.63,206.15l0,.09S113.71,206.23,113.63,206.15Z"/><path class="cls-4" d="M113.69,206.43l0-.19c-.06,0-.16-.05,0,.08C113.57,206.26,113.65,206.33,113.69,206.43Z"/><path class="cls-4" d="M113.6,206.48c-.1,0-.19.1-.24-.08C113.29,206.66,113.53,206.74,113.6,206.48Z"/><path class="cls-4" d="M112.49,206.69l-.14,0,.07.13C112.39,206.8,112.6,206.73,112.49,206.69Z"/><path class="cls-4" d="M114.34,205.69a1.77,1.77,0,0,0-.29-.07l0,.12C114.15,205.72,114.24,205.65,114.34,205.69Z"/><path class="cls-4" d="M114.05,205.62l-.06-.2C113.92,205.54,114,205.59,114.05,205.62Z"/><polygon class="cls-4" points="113.29 205.96 113.43 206.3 113.3 205.92 113.29 205.96"/><polygon class="cls-4" points="114.6 205.18 114.72 205.33 114.55 205.08 114.6 205.18"/><path class="cls-4" d="M114.73,204.82c.11.11.26,0,.32.12a.61.61,0,0,0-.13-.36C114.94,204.68,114.89,204.76,114.73,204.82Z"/><path class="cls-4" d="M114.83,204.39a1.54,1.54,0,0,0,.09.19A.45.45,0,0,0,114.83,204.39Z"/><path class="cls-4" d="M114.14,205.21a.32.32,0,0,0,.25,0l-.22,0Z"/><path class="cls-4" d="M114.16,205.15h0l.06-.12Z"/><path class="cls-4" d="M114.13,205.22h0S114.11,205.2,114.13,205.22Z"/><path class="cls-4" d="M113.63,205.69c-.07-.13-.11-.35-.35-.27C113.39,205.54,113.52,205.49,113.63,205.69Z"/><path class="cls-4" d="M113.86,205.17l-.11.13s.13,0,.17.09Z"/><polygon class="cls-4" points="113.83 205.07 113.86 205.17 113.9 205.13 113.83 205.07"/><path class="cls-4" d="M114.53,204.56a.29.29,0,0,1,0-.26.63.63,0,0,0-.18.22C114.41,204.56,114.5,204.65,114.53,204.56Z"/><path class="cls-4" d="M114.33,204.84v0S114.3,204.83,114.33,204.84Z"/><polygon class="cls-4" points="114.87 203.53 114.83 203.53 114.86 203.55 114.87 203.53"/><path class="cls-4" d="M114.31,204.52c-.07,0,0,.1,0,.17a1,1,0,0,1,0-.17S114.31,204.49,114.31,204.52Z"/><path class="cls-4" d="M114.84,204.14a.52.52,0,0,0-.16.06C114.76,204.19,114.89,204.17,114.84,204.14Z"/><path class="cls-4" d="M114.39,204.82v0S114.43,204.83,114.39,204.82Z"/><path class="cls-4" d="M114.39,204.82a.31.31,0,0,0-.08-.13.59.59,0,0,0,0,.13Z"/><path class="cls-4" d="M113.72,202.74c.18.09.28.33,0,.38.07.2.71.38,1.09.41a.32.32,0,0,1-.19-.27c-.12,0-.37.22-.48,0s.13-.12.27-.17c-.26,0-.22-.39-.57-.5l0,.22C113.85,202.81,113.79,202.71,113.72,202.74Z"/><path class="cls-4" d="M114.69,203.8v.07c.06-.06.15-.07.33-.1a.31.31,0,0,0-.16-.22l-.15.28Z"/><path class="cls-4" d="M114.57,204.13c-.17-.13-.2-.31-.45-.32-.06.18.11.19.15.34.08-.31.07.13.28,0a.9.9,0,0,1,0,.18.49.49,0,0,1,.15-.1h0a.18.18,0,0,1-.07-.05c.08-.06.06,0,.07.05l0,0h0l0-.33C114.63,203.91,114.61,204,114.57,204.13Z"/><path class="cls-4" d="M112.93,205.07h0S113,205,112.93,205.07Z"/><path class="cls-4" d="M113.1,205s.09.09,0,.15-.09,0-.16-.08.08.21.23.13l0,0a.76.76,0,0,1,.45-.08A2.34,2.34,0,0,0,113.1,205Z"/><path class="cls-4" d="M113.79,204.54v-.27l-.22,0,.1,0C113.58,204.46,113.72,204.49,113.79,204.54Z"/><polygon class="cls-4" points="114.98 203.55 115.18 203.68 114.94 203.41 114.98 203.55"/><polygon class="cls-4" points="115.09 203.23 115.27 203.32 115.2 203.2 115.09 203.23"/><path class="cls-4" d="M119,184.83l0-.08A.15.15,0,0,0,119,184.83Z"/><path class="cls-4" d="M118.86,185.35l.09,0S118.87,185.33,118.86,185.35Z"/><path class="cls-4" d="M118.16,195.62c.21,0,.52-.06.31-.12l-.22-.05A.15.15,0,0,1,118.16,195.62Z"/><path class="cls-4" d="M118.73,189.91h-.08l.18.13Z"/><path class="cls-4" d="M117.89,189.57l.18-.1A.54.54,0,0,0,117.89,189.57Z"/><path class="cls-4" d="M119.5,181.94l-.19-.13C119.28,181.94,119.4,181.91,119.5,181.94Z"/><path class="cls-4" d="M116.37,200.06a.49.49,0,0,0,.21-.17C116.42,200,116.22,200,116.37,200.06Z"/><path class="cls-4" d="M121.18,185.64a.15.15,0,0,0-.11-.1A.16.16,0,0,0,121.18,185.64Z"/><path class="cls-4" d="M116.69,199.63l-.07,0a.32.32,0,0,1,0,.23C116.7,199.84,116.79,199.78,116.69,199.63Z"/><path class="cls-4" d="M121.67,171.57l0,0S121.67,171.55,121.67,171.57Z"/><path class="cls-4" d="M124.25,168.76v.13A.18.18,0,0,0,124.25,168.76Z"/><path class="cls-4" d="M115.73,202c0,.07,0,0,0,0Z"/><path class="cls-4" d="M114.8,202a.23.23,0,0,0-.09-.06A.17.17,0,0,1,114.8,202Z"/><path class="cls-4" d="M115.7,198.48h0S115.67,198.48,115.7,198.48Z"/><path class="cls-4" d="M115.59,202.1a.21.21,0,0,0,.1-.06Z"/><path class="cls-4" d="M115.69,202.13l0,.05S115.7,202.2,115.69,202.13Z"/><path class="cls-4" d="M115.75,202a.24.24,0,0,1-.06.09h0Z"/><path class="cls-4" d="M121.29,177.28h0C121.24,177.19,121.25,177.22,121.29,177.28Z"/><polygon class="cls-4" points="116.66 193.14 116.66 193.15 116.67 193.15 116.66 193.14"/><path class="cls-4" d="M116.58,192.85c.22.19.17.24.09.29l.62.13Z"/><path class="cls-4" d="M119.28,183.58l-.24.12c-.25-.28-.11-.4-.42-.31.66.19-.1.67.55.86l-.17.08s0-.05,0-.08c-.37.14.44.29.27.55-.08.08-.19.12-.25,0l.1.27c0,.06-.13,0-.11,0l0,.35h0a2.51,2.51,0,0,1,.28.29c-.12.06-.06-.06-.15-.06l.11.23a.23.23,0,0,1-.26-.29c-.7,0,.13.2-.36.46l0-.19c-.4,0-.31.18-.59.3.13,0,.69-.22.8,0-.07,0-.11.11,0,.25-.24-.06-.21.06-.23.19l-.31-.09c0,.16.21.2.32.32-.07.15-.32.11-.53.09-.12.24.43-.06.4.25s-.09.36,0,.67c-.15.11-.18-.09-.28-.06l.21.2s-.09,0-.13,0,.31.09.34.29c.33.15-.6.21-.28.53-.11,0-.18-.08-.31-.1a1.85,1.85,0,0,0,.37.65l-.26.14c.27-.08.49.2.66.44l.29,0,.08.32a.49.49,0,0,1-.27-.13l.06.07c-.15.06-.31,0-.46-.16l.22,0a1.39,1.39,0,0,0-.53-.29.14.14,0,0,1,0,.11.23.23,0,0,0-.12-.06s0,0,.09.12l-.36-.05.13.06-.32.28c.27.36.7.74.71,1.18-.21-.18-.39-.15-.69-.25.35,0,0-.35.1-.54-.07.1-.2,0-.24,0l.16.45c-.23-.08-.2,0-.33.09.5.08.22.37.32.57-.17-.05-.32-.14-.22-.3-.42.08.47.44.1.53,0,0,0-.06,0-.1.11.15-.09.36-.21.26v-.05c-.15.28-.3.89.09,1.08l-.55-.25,1.18,1c-.33-.17-1.22-.28-1.33-.59a.23.23,0,0,0-.09.31c.07,0,.54.06.55.13a2.14,2.14,0,0,0-.65.16c.1-.05.61.22.55.33a5.35,5.35,0,0,1-.58-.24l.43.46a1,1,0,0,0-.62-.16c.12,0-.09.24-.07.33l.17-.07c-.2.28.63.58.49.88-.1-.08-.64-.34-.76-.2.24.17,1.18.8,1.28,1.16h-.17l.1.28a11.83,11.83,0,0,1-1.34-1.3c-.16.07-.19,0-.24.15-.17,0-.19-.18-.18-.24l-.24.38c.32.1.2.43.47.51l-.16-.57c.32.1.8.6.63.87-.15,0-.54-.27-.64-.3.09.07.1.35,0,.34l-.12-.18c-.18.11.31.42-.06.5,0,.06-.48,0-.3.12a6.22,6.22,0,0,1,1.75.61,2.29,2.29,0,0,1-.68.23c-.32,0-.61-.42-.88-.42a.65.65,0,0,1,.19.17c-.1.05-.26-.13-.28,0,.31.15-.14.3.24.18,0,.18-.12.13-.18.31a1.11,1.11,0,0,1,.67.62.65.65,0,0,0-.25-.05c-.14.29-.36.4-.48.68-.09,0-.24.09-.35,0,0,.06.13.14.1.23-.34.06,0-.21-.34-.22.18.09.16.33.22.5.3.08.18-.26.11-.43a1.29,1.29,0,0,1,.77.92c0,.27-.3,0-.26.06-.25.41.52.66.09.91-.31,0-.49-.2-.69-.24,0-.23.28-.23.33-.37l-.19.12c-.05-.1-.06-.25,0-.29-.28,0-.35.73-.71,1,.06.1.1.24.22.24v-.13c.25,0,.19.32.34.23.08.2.23.46,0,.61l-.29-.08c.08,0,.22-.06.16-.15.09.13-.52.14-.19.39l.26,0c.07.2.29.51.12.66.32,0,0-.06.37,0-.45-.07.22-.46-.28-.47.44,0,.26-.15.66-.19-.1,0-.21,0-.09-.14l-.07-.07h0a.33.33,0,0,1-.17,0c-.18-.17-.07-.41-.14-.53s.09.08.21.07l-.11-.19c.21.08.44-.09.47.17l.09-.19c.16-.06.27-.2.23-.33s-.14-.33,0-.18v-.36l0,0c.15-.29-.09-.75.43-.94a.46.46,0,0,1,.1-.4l.19,0c0-.15.34-.31.17-.44.54,0,.35-.6.53-.79l-.23-.1a1.11,1.11,0,0,0,0-.56l-.21-.07c-.11-.24.32-.38.4-.65.07.05,0,.11,0,.14.6-.14-.1-.81.35-1,0-.1,0-.14.07-.18a0,0,0,0,0,0,0s0,0,0,0l.15-.06a.46.46,0,0,0-.15,0,.52.52,0,0,0,0-.25l.24,0v0c.12-.05-.08-.1-.27-.12a.51.51,0,0,0-.09-.16c.39.07,0-.26.37-.21-.16-.13,0-.47-.37-.66,0,0,.09,0,.07.05s.16-.15.08-.28l.3.07-.32-.34c.22-.06.34-.08.52.12-.24-.42-.05-.29-.3-.65l.18.07c0-.09-.18-.32,0-.32.42-.08.38-1,.89-1.39-.59-.08.33-.16-.1-.32.14,0,.24,0,.33.08-.05-.3.33-.33,0-.63.14,0,.17.12.26.12s-.09-.13,0-.13.1.08.14.14c.06-.28-.33-.44-.71-.58.22-.08.22-.16,0-.33.14,0,.3-.05.29.13,0-.09.36-.52.06-.63.09,0,.06-.12,0-.16a1.47,1.47,0,0,0,.15-.43l-.07,0c-.34-.19,0-.2,0-.38h0c.38-.31-.08-.2.34-.5l-.24,0c-.48-.18.39-.26.27-.54l-.16,0c-.13-.17.78-.15.87-.26s.06.07.08.11c.39-.24-.29-.12-.29-.38.18,0,.4.17.47,0s-.39-.62,0-.75c-.14,0-.27,0-.34-.11s.6-.33.24-.6h.11c-.07-.16-.06-.47-.26-.61.84.09-.17-.91.57-.72l.06-.41.08,0c.11-.24,0-.38-.2-.52.06,0,.12,0,.16,0,.24-.34.22-.39-.08-.79l.25,0c-.12-.11.51-.45.32-.89a.18.18,0,0,1,.09.07c-.18-.48.91-.85.06-1.21l-.16-.32c-.15.34-.37-.14-.55,0,0-.15.34-.31.35-.12h-.05c.45.17.26-.4.57-.33.13-.71.54-1.34.68-2h-.38l.07-.22c.09,0,.3,0,.25.13.22,0-.12-.31-.2-.33.21-.29.4.21.43.11v-.14l0,0c-.13-.14-.28-.18-.23-.38s.24,0,.26-.06,0,0,0-.08l.08-.28-.3.06c-.12-.16.06-.27-.28-.2.53-.1.38-1.05.55-1.15a.57.57,0,0,1-.09-.61c-.06.05-.39,0-.32-.16.65.18.35-.3.85-.38-.34.09,0-.55-.47-.41.08-.15.25,0,.42-.07-.19-.42.3-.81.28-1.3-.09,0-.23,0-.34-.08l.47-.18c0-.1-.49-.16-.17-.29-.07,0-.19,0-.21,0,.57-.87-.09-1.93.82-2.77-.18.1-.19,0-.18-.08,0,.06-.22,0-.34,0l.38-.36c-.32-.11,0-.42-.28-.5l0,.13c-.35-.2-.85.14-1.33.06.4.24-.68.41-.11.79-.11.05-.15-.08-.26-.06.19.1.22.2.11.36l0,0c0,.48-.23.66-.43,1.18h.24c0,.11-.13.13-.19.17.33.18.06-.32.44-.15-.5.09-.13.82-.68.84,0,.18.27,0,.25.17l-.16,0,.19.08c0,.11-.24.14-.37.13s0-.09,0-.12c-.19.12,0,.43-.06.47l.11-.15c.07.5-.21,1.06,0,1.57l.12,0c.14.39-.17.27-.14.68l0,0a.31.31,0,0,1,.11.31c-.12-.12-.29.15-.41,0,.16.42.14.22.51.55l-.19,0c.15.12.23.14.25.35-.13-.19-.3.07-.48-.14-.46.33.3.68-.32.76.47.28.35-.3.43-.18.19-.06.35.22.28.34s-.69.11-.74.43c0,0,0,0,0-.07-.15.1.13.27-.1.38.28.15-.06.2.32.3l0-.32c.07.19.5.44.22.67a.7.7,0,0,1-.21-.21c-.13.06,0,.18-.08.24-.39-.1,0-.38-.28-.62-.18,0,.21.4-.19.22.51.24-.13.31.24.61l-.23-.06c0,.05.12.14.11.2l-.28-.17c.22.23-.29.3-.19.49.07-.35.3,0,.5-.14.22.51-.66.13-.66.65,0-.07.19-.22.28-.09a.63.63,0,0,1-.32.22c0,.33.25,0,.36.17-.3.05.08.18.14.35l-.23,0c-.23.34.47.2.21.5l-.29-.21,0,.19-.26-.1c.16.24.1.29,0,.46.18,0,.42.12.4.28-.17.09-.21-.11-.23.13-.14-.08-.31-.18-.07-.24a1.39,1.39,0,0,1-.21-.11c-.19.09-.1.3-.12.38a.2.2,0,0,1,.08-.08l.24.42c-.1,0-.16,0-.22-.09s.11.15.1.25c-.18-.07-.38-.1-.44-.27l.14.37c-.09,0-.27.11-.33.06-.15.15.27.52.06.72a.15.15,0,0,1,.08.11c-.09.21-.37.35-.18.68l-.37.07c0,.22.48-.1.52.28s-.31,0-.43.08c.14.16.44.46.1.61C119.22,183.7,119.28,183.65,119.28,183.58Zm-.53,2.57c0-.06-.16-.2,0-.2S118.85,186.09,118.75,186.15Zm-.58,4c-.07-.06,0-.11.09-.14S118.24,190.1,118.17,190.14Zm-2.32,11.11h0C116,201.17,115.92,201.19,115.85,201.25Zm-.19.18a.12.12,0,0,0,.09,0s0-.09,0-.14S115.64,201.34,115.66,201.43ZM123,176.85l-.07,0C122.91,176.77,123,176.81,123,176.85Z"/><path class="cls-4" d="M118,189.61l.13,0A.09.09,0,0,0,118,189.61Z"/><polygon class="cls-4" points="119.54 181.97 119.54 181.96 119.5 181.94 119.54 181.97"/><path class="cls-4" d="M115.16,197.25a.28.28,0,0,1,.15,0A.1.1,0,0,0,115.16,197.25Z"/><path class="cls-4" d="M115.53,202.76v-.17c0,.07-.08.08-.13.1S115.54,202.71,115.53,202.76Z"/><path class="cls-4" d="M113.63,203.36s0,0,0,.08l.1,0C113.77,203.39,113.71,203.29,113.63,203.36Z"/><path class="cls-4" d="M114.74,202.56c-.19-.07-.17.05-.18.16v0C114.82,202.85,114.78,202.7,114.74,202.56Z"/><path class="cls-4" d="M114.56,202.75a.36.36,0,0,1,0,.09C114.62,202.9,114.56,202.81,114.56,202.75Z"/><path class="cls-4" d="M115.67,201.76c-.07,0,.22.13.13.13C116,202,115.66,201.45,115.67,201.76Z"/><polygon class="cls-4" points="114.09 202.37 114.33 202.44 114.17 202.3 114.09 202.37"/><path class="cls-4" d="M114.6,201.68l-.13.12a.12.12,0,0,1,.06.08C114.58,201.79,114.67,201.7,114.6,201.68Z"/><path class="cls-4" d="M114.53,201.88c0,.05,0,.1,0,.14A.3.3,0,0,0,114.53,201.88Z"/><polygon class="cls-4" points="114.12 202.13 114.18 202.1 114.25 202 114.12 202.13"/><path class="cls-4" d="M115.36,200v-.2c-.07-.05-.14,0-.13.05S115.27,200,115.36,200Z"/><path class="cls-4" d="M114.51,200.26a.37.37,0,0,1,.21,0l-.29-.13Z"/><path class="cls-4" d="M114.65,199.73c-.07,0-.13-.34-.2-.11C114.52,199.67,114.52,199.86,114.65,199.73Z"/><polygon class="cls-4" points="116.06 197.29 116.04 197.34 116.52 197.51 116.06 197.29"/><path class="cls-4" d="M115.78,194.57c-.19.16.27.16.06.29.1.09.18-.11.26,0C116,194.67,116.11,194.63,115.78,194.57Z"/><path class="cls-4" d="M116.1,194.83a.2.2,0,0,0,.05.09Z"/><polygon class="cls-4" points="124.58 168.27 124.7 168.14 124.52 168.21 124.58 168.27"/><path class="cls-4" d="M124.24,168h.32l-.28-.12S124.31,167.94,124.24,168Z"/><path class="cls-4" d="M118,186.34l.08,0c.08,0,.1,0,.13-.09Z"/><polygon class="cls-4" points="118.75 184.58 118.73 184.61 119.03 184.63 118.75 184.58"/><path class="cls-4" d="M118.79,183c0,.06,0,.15,0,.21C118.76,183,119.15,183,118.79,183Z"/><path class="cls-4" d="M200.94,204.18c0,.07.19,0,.23,0S200.88,204.19,200.94,204.18Z"/><polygon class="cls-4" points="200.32 203.26 200.41 203.26 200.18 203.15 200.32 203.26"/><path class="cls-4" d="M200.19,202.33c-.34.13.11.32,0,.51l-.08,0,.3,0C200.34,202.72,200.12,202.48,200.19,202.33Z"/><path class="cls-4" d="M200.89,201.72c-.14.05-.14-.09,0,.12l0,0A.32.32,0,0,1,200.89,201.72Z"/><path class="cls-4" d="M200.89,201.82c0,.09.11-.09,0,0Z"/><path class="cls-4" d="M200.75,201.37l.14.12c.08,0,.08-.16.14-.13C201,201.24,200.87,201.28,200.75,201.37Z"/><path class="cls-4" d="M200.47,201.29l.06.06S200.58,201.31,200.47,201.29Z"/><path class="cls-4" d="M200.66,201.47l-.13-.12c-.05,0-.16,0,.05.06C200.48,201.41,200.58,201.43,200.66,201.47Z"/><path class="cls-4" d="M200.62,201.56c-.06.09-.1.19-.24.07C200.46,201.87,200.71,201.8,200.62,201.56Z"/><path class="cls-4" d="M199.82,202.33l-.09.11.13.07C199.8,202.48,199.93,202.31,199.82,202.33Z"/><path class="cls-4" d="M200.82,200.54c-.08,0-.2.08-.29.1l.1.08C200.67,200.67,200.71,200.57,200.82,200.54Z"/><path class="cls-4" d="M200.53,200.64l-.15-.12C200.38,200.65,200.44,200.66,200.53,200.64Z"/><polygon class="cls-4" points="200.08 201.32 200.38 201.52 200.07 201.28 200.08 201.32"/><polygon class="cls-4" points="200.75 200 200.93 200.06 200.65 199.95 200.75 200"/><path class="cls-4" d="M200.66,199.64c.16,0,.24-.11.33-.06,0-.1-.17-.16-.29-.22C200.77,199.43,200.77,199.51,200.66,199.64Z"/><path class="cls-4" d="M200.52,199.25a.7.7,0,0,0,.18.11A.5.5,0,0,0,200.52,199.25Z"/><path class="cls-4" d="M200.38,200.27s.16-.06.2-.14l-.21.08Z"/><path class="cls-4" d="M200.37,200.21h0v0Z"/><path class="cls-4" d="M200.38,200.28h0S200.35,200.28,200.38,200.28Z"/><path class="cls-4" d="M200.21,200.92c-.13-.07-.28-.22-.43,0C199.93,200.93,200,200.82,200.21,200.92Z"/><path class="cls-4" d="M200.13,200.39l0,.16c.06,0,.13-.05.2,0Z"/><polygon class="cls-4" points="200.05 200.33 200.13 200.39 200.14 200.33 200.05 200.33"/><path class="cls-4" d="M200.36,199.54c-.11,0-.12-.12-.15-.2a.63.63,0,0,0,0,.27C200.25,199.61,200.38,199.63,200.36,199.54Z"/><path class="cls-4" d="M200.34,199.87h0S200.31,199.88,200.34,199.87Z"/><path class="cls-4" d="M200.1,198.54l0,0h0Z"/><path class="cls-4" d="M200.15,199.63c0,.07,0,.1.09.13a.47.47,0,0,1-.06-.15S200.13,199.61,200.15,199.63Z"/><path class="cls-4" d="M200.39,199a.57.57,0,0,0-.1.13C200.35,199.13,200.44,199.05,200.39,199Z"/><path class="cls-4" d="M200.38,199.83h0S200.42,199.81,200.38,199.83Z"/><path class="cls-4" d="M200.38,199.83a.46.46,0,0,0-.14-.07.43.43,0,0,0,.09.1Z"/><path class="cls-4" d="M198.7,198.5c.2,0,.41.13.22.3.17.13.8-.06,1.14-.24a.31.31,0,0,1-.3-.11c-.1.07-.2.37-.4.26s0-.17.14-.28c-.24.12-.4-.2-.75-.11l.15.16C198.85,198.49,198.75,198.44,198.7,198.5Z"/><path class="cls-4" d="M200.08,198.85l0,.06c0-.08.1-.14.24-.25a.37.37,0,0,0-.25-.1v.31Z"/><path class="cls-4" d="M200.15,199.18c-.22,0-.33-.15-.55,0,.05.17.2.1.31.19-.1-.28.13.07.22-.16a.37.37,0,0,1,.08.15.65.65,0,0,1,.08-.17h0s0,0,0,0h-.08c0-.09.05,0,.08,0h0l-.16-.27A.49.49,0,0,0,200.15,199.18Z"/><path class="cls-4" d="M199.3,200.8h0S199.3,200.77,199.3,200.8Z"/><path class="cls-4" d="M199.41,200.66s.12,0,.11.1-.11,0-.18,0,.18.12.26,0l0,0c.06-.13.3-.32.33-.3A2.33,2.33,0,0,0,199.41,200.66Z"/><path class="cls-4" d="M199.73,199.92l-.14-.22-.17.15.11,0C199.51,200,199.64,199.92,199.73,199.92Z"/><polygon class="cls-4" points="200.2 198.5 200.43 198.5 200.09 198.41 200.2 198.5"/><polygon class="cls-4" points="200.13 198.19 200.32 198.17 200.19 198.1 200.13 198.19"/><path class="cls-4" d="M195.13,180.7l-.06-.07A.14.14,0,0,0,195.13,180.7Z"/><path class="cls-4" d="M195.19,181.22h.1S195.2,181.2,195.19,181.22Z"/><path class="cls-4" d="M199,190.43c.17-.13.43-.29.22-.25l-.21.07A.15.15,0,0,1,199,190.43Z"/><path class="cls-4" d="M196.94,185.29l-.06,0,.22,0Z"/><path class="cls-4" d="M196,185.35l.12-.16A.74.74,0,0,0,196,185.35Z"/><path class="cls-4" d="M194.5,177.91l-.23-.06C194.29,178,194.39,177.91,194.5,177.91Z"/><path class="cls-4" d="M199.58,195a.45.45,0,0,0,.1-.24C199.57,194.84,199.4,195,199.58,195Z"/><path class="cls-4" d="M197.44,180.57a.18.18,0,0,0-.14,0S197.39,180.59,197.44,180.57Z"/><path class="cls-4" d="M199.64,194.46l0,0a.39.39,0,0,1,.08.21C199.76,194.63,199.8,194.53,199.64,194.46Z"/><path class="cls-4" d="M193.2,167.63l0,0S193.2,167.62,193.2,167.63Z"/><path class="cls-4" d="M194.94,164.33a.42.42,0,0,1,0,.12S195,164.39,194.94,164.33Z"/><path class="cls-4" d="M200,196.9c0,.07,0,0,0,0Z"/><path class="cls-4" d="M199.24,197.35a.19.19,0,0,0-.11,0Z"/><path class="cls-4" d="M198.21,194Z"/><path class="cls-4" d="M200,197a.33.33,0,0,0,.06-.1A.29.29,0,0,0,200,197Z"/><path class="cls-4" d="M200.05,197s0,0,0,.06S200.1,197,200.05,197Z"/><path class="cls-4" d="M200,196.81a.2.2,0,0,1,0,.11l0,0A.3.3,0,0,1,200,196.81Z"/><path class="cls-4" d="M194.57,173l0,0C194.49,173,194.51,173,194.57,173Z"/><polygon class="cls-4" points="196.51 189 196.52 189.01 196.53 189 196.51 189"/><path class="cls-4" d="M196.31,188.78c.29.07.26.13.22.22l.6-.17Z"/><path class="cls-4" d="M194.89,179.47l-.17.2c-.34-.16-.25-.33-.5-.13.67-.07.16.65.84.58l-.13.13s0,0,0-.07c-.29.27.51.09.46.39,0,.1-.13.18-.22.13l.2.19c0,.07-.12.07-.12,0l.1.33h0a2.18,2.18,0,0,1,.37.15c-.08.1-.08,0-.16,0l.19.16a.23.23,0,0,1-.35-.16c-.64.27.19.13-.14.55l-.11-.16c-.37.17-.21.28-.42.51.12-.06.54-.48.74-.3,0,.06-.06.14.09.23-.24,0-.16.13-.13.26l-.32,0c.11.13.27.1.43.16,0,.16-.25.23-.45.3,0,.26.36-.23.47.06-.09.23.06.36.28.58-.09.16-.19,0-.28.07l.27.09s-.08,0-.12,0c.12.09.32,0,.43.12.36,0-.46.43,0,.58-.08.07-.2,0-.32,0a1.79,1.79,0,0,0,.61.42l-.18.23c.22-.18.53,0,.78.1l.25-.16.21.24c-.05,0-.16,0-.3,0l.08,0c-.1.12-.29.09-.48.05l.18-.13a1.76,1.76,0,0,0-.6,0,.34.34,0,0,1,.09.08h-.13s0,0,.13.06l-.35.11h.15l-.17.38c.39.2.94.35,1.15.73a1.93,1.93,0,0,0-.74.08c.31-.16-.18-.29-.14-.51,0,.11-.17.11-.23.09l.35.33c-.25,0-.17.1-.26.21.48-.14.37.23.54.36-.17,0-.34,0-.33-.17-.34.26.62.18.33.43,0,0,0-.08-.07-.08.16.08.08.35-.07.32v-.05c0,.31.12.91.55.89a5.47,5.47,0,0,1-.6,0l1.49.33c-.37,0-1.2.31-1.44.09a.2.2,0,0,0,.06.3c0-.05.51-.19.55-.13-.38.24-.2.16-.51.43.07-.08.65-.08.64,0a4.48,4.48,0,0,1-.62.06l.6.2a1.07,1.07,0,0,0-.62.15c.1-.05,0,.24.09.31l.11-.14c0,.34.83.21.84.53-.12,0-.72,0-.76.18a4.56,4.56,0,0,1,1.68.38l-.16.08.22.19a10.91,10.91,0,0,1-1.79-.48c-.11.14-.19.06-.15.24-.14.09-.24-.06-.26-.11l0,.43c.33-.07.38.27.66.22l-.41-.41c.33-.07,1,.13,1,.43-.12.1-.6,0-.71.06.12,0,.26.25.19.29l-.2-.11c-.1.19.48.21.19.46,0,.07-.4.26-.2.25a6.22,6.22,0,0,1,1.83-.33,2.43,2.43,0,0,1-.49.52c-.28.16-.73-.07-1,.07a.55.55,0,0,1,.25,0c-.07.09-.29,0-.22.17.34,0,0,.32.29,0,.12.14,0,.17,0,.35a1.16,1.16,0,0,1,.88.2.68.68,0,0,0-.24.07c0,.32-.11.51-.08.81-.07,0-.15.19-.31.15.07,0,.19.06.21.15-.27.21-.07-.2-.4,0,.19,0,.3.19.44.3.3-.08,0-.3-.13-.42a1.35,1.35,0,0,1,1.13.38c.14.23-.26.15-.19.18,0,.47.79.29.54.71-.25.19-.53.08-.72.14-.13-.18.13-.32.1-.46l-.1.19c-.1,0-.19-.18-.12-.26-.22.16.06.78-.11,1.16.1.05.21.15.31.08l-.05-.1c.2-.14.32.16.4,0,.18.13.44.26.35.49l-.3.08c.09,0,.16-.16.06-.21.15.07-.37.38,0,.42l.18-.17c.18.12.53.26.46.46.29-.12,0,0,.29-.22-.42.18-.05-.48-.48-.23.38-.19.14-.26.46-.49-.1,0-.19.09-.16-.07l-.09,0h0a.33.33,0,0,1-.14.1c-.24,0-.27-.29-.4-.36,0-.1.12,0,.22,0l-.2-.1c.22,0,.34-.3.5-.1l0-.2c.11-.14.13-.3,0-.39s-.28-.2-.1-.14l-.18-.29h.06c0-.31-.46-.58-.11-1a.4.4,0,0,1-.12-.37l.19-.06c-.09-.12.13-.42-.07-.45.49-.22,0-.66.08-.9l-.26,0a1,1,0,0,0-.23-.49l-.22.05c-.21-.15.1-.46,0-.73.09,0,.08.08,0,.13.45-.39-.47-.63-.14-1-.1-.06-.08-.12,0-.18l0,0v0l.1-.12a.57.57,0,0,0-.11.1.42.42,0,0,0-.12-.21l.24-.07a0,0,0,0,1,0,0c.07-.1-.13,0-.3,0a.42.42,0,0,0-.16-.09c.38-.12-.16-.2.24-.35-.21,0-.21-.4-.64-.39.05,0,.08,0,.09,0,0-.1.06-.2-.07-.27l.3-.08-.44-.15a.42.42,0,0,1,.52-.12c-.4-.25-.17-.23-.56-.43h.2c0-.09-.31-.2-.15-.28.34-.25-.09-1,.18-1.57-.56.18.22-.28-.23-.24.13-.05.2-.13.33-.06-.17-.25.16-.43-.24-.56.13,0,.21,0,.28,0s-.13-.07-.05-.11.12,0,.19.06c-.07-.27-.49-.24-.89-.2.17-.16.13-.23-.14-.29.12-.06.25-.16.32,0,0-.1.1-.61-.22-.57.08,0,0-.14,0-.16a1.32,1.32,0,0,0-.05-.44l0,.07c-.39,0-.11-.16-.18-.32h0c.22-.43-.16-.15.1-.58l-.23.06c-.52,0,.25-.38,0-.57l-.12.1c-.19-.1.65-.44.69-.57s.08,0,.12.06c.25-.36-.32,0-.42-.22.16-.07.43,0,.44-.17s-.61-.38-.32-.64c-.12.06-.25.13-.36,0s.42-.52,0-.61a.2.2,0,0,1,.09-.05c-.12-.11-.23-.39-.46-.44.8-.23-.52-.74.24-.84l-.1-.39h.08c0-.26-.18-.32-.37-.39,0-.06.12,0,.16,0,.1-.39.06-.42-.36-.68l.24-.07c-.16-.06.31-.58,0-.9a.23.23,0,0,1,.11,0c-.34-.37.54-1.07-.37-1.09l-.26-.24c0,.36-.4,0-.52.17-.07-.13.22-.39.29-.23l0,0c.48,0,.11-.45.43-.49-.12-.68,0-1.38,0-2l-.36.13v-.23c.08-.07.27-.12.28,0,.2-.12-.21-.25-.29-.24.1-.33.44.06.44,0l-.05-.12,0,0c-.16-.08-.32-.07-.33-.26s.22-.1.22-.15,0,0,0-.07v-.29l-.27.16c-.15-.11,0-.27-.32-.09.47-.26,0-1.08.16-1.22a.54.54,0,0,1-.26-.53c-.05.06-.37.14-.35-.05.67,0,.24-.38.69-.6-.29.18-.15-.51-.57-.24,0-.16.25,0,.39-.18-.31-.33,0-.83-.1-1.27-.09,0-.21.1-.36,0l.4-.3c-.05-.08-.51,0-.23-.22-.07,0-.18.09-.21,0,.29-.95-.61-1.76.06-2.77-.16.14-.18.06-.2,0,0,.07-.22,0-.33.06l.27-.42c-.34,0-.08-.4-.4-.4l.07.11c-.39-.1-.79.34-1.26.39.44.12-.56.56.08.76-.08.08-.16,0-.26,0,.21,0,.27.13.2.3h0c.11.46-.06.69-.12,1.23l.23-.07c0,.11-.08.15-.13.21.37.08,0-.32.38-.26-.46.22.11.79-.42,1,0,.17.26-.09.28.08l-.14.07.2,0c0,.12-.19.2-.31.22s-.05-.07-.07-.1c-.15.17.12.4.07.46l.07-.18c.21.46.1,1.06.46,1.47l.1,0c.26.32-.08.29.07.66h0a.3.3,0,0,1,.2.26c-.15-.08-.23.22-.39.11.27.35.2.17.65.36l-.18.08c.18.06.27.05.34.24-.18-.14-.26.16-.49,0-.35.46.49.54-.07.81.53.11.23-.39.35-.3.16-.11.41.09.37.23s-.62.31-.56.63c0,0,0,0,0-.06-.12.14.21.21,0,.38.31,0,0,.2.4.17l-.13-.29c.12.16.61.25.42.55a.62.62,0,0,1-.26-.12c-.11.1.1.14,0,.24-.39,0-.14-.34-.46-.48-.15.11.33.3-.11.27.56.05,0,.33.43.48l-.24,0s.16.09.16.15l-.32-.07c.29.14-.17.37,0,.52-.06-.35.27-.12.42-.29.38.39-.58.34-.39.81,0-.06.1-.27.23-.18a.66.66,0,0,1-.23.31c.1.32.24-.09.4,0-.27.15.14.14.25.27l-.24,0c-.1.39.52,0,.38.38l-.35-.09.11.16h-.28c.23.16.19.23.14.42.16-.06.43,0,.46.13-.12.13-.23,0-.16.19-.16,0-.36-.06-.15-.19l-.24,0c-.14.14,0,.31,0,.39a.16.16,0,0,1,.05-.1l.37.29a.18.18,0,0,1-.23,0c0,.07.15.1.18.2-.19,0-.39,0-.5-.1l.26.29c-.08,0-.21.2-.29.17-.09.19.44.38.32.64a.15.15,0,0,1,.12.07c0,.23-.22.46.08.68l-.33.2c.11.19.41-.27.59.06s-.28.13-.37.23c.2.09.58.25.33.51C194.89,179.6,194.93,179.53,194.89,179.47Zm.52,2.5c-.06,0-.23-.11-.09-.17S195.48,181.88,195.41,182Zm1.13,3.76c-.09,0-.06-.08,0-.16A.15.15,0,0,1,196.54,185.73Zm3.2,10.47h0C199.8,196.07,199.77,196.11,199.74,196.2Zm-.07.24a.09.09,0,0,0,.1,0c-.06,0-.08-.05-.07-.11S199.6,196.38,199.67,196.44Zm-3.6-24.35,0,.06C195.93,172.06,196,172.07,196.07,172.09Z"/><path class="cls-4" d="M196.15,185.34l.13,0A.13.13,0,0,0,196.15,185.34Z"/><path class="cls-4" d="M194.54,177.91Z"/><path class="cls-4" d="M197.14,193.21a.18.18,0,0,1,.11-.1A.1.1,0,0,0,197.14,193.21Z"/><path class="cls-4" d="M200.24,197.58l-.08-.14c0,.07,0,.11-.06.15S200.23,197.54,200.24,197.58Z"/><path class="cls-4" d="M199,199.05s0,0,0,.07l.11,0C199.08,199,199,199,199,199.05Z"/><path class="cls-4" d="M199.47,197.83c-.2,0-.12.12-.07.22v0C199.69,198,199.58,197.92,199.47,197.83Z"/><path class="cls-4" d="M199.42,198.07a.14.14,0,0,1,0,.09C199.55,198.16,199.45,198.12,199.42,198.07Z"/><path class="cls-4" d="M199.84,196.71s.26,0,.18,0C200.29,196.76,199.67,196.46,199.84,196.71Z"/><polygon class="cls-4" points="198.82 198.01 199.06 197.94 198.86 197.91 198.82 198.01"/><path class="cls-4" d="M198.89,197.18l0,.17a.09.09,0,0,1,.09,0C198.93,197.28,199,197.16,198.89,197.18Z"/><path class="cls-4" d="M198.93,197.38a.2.2,0,0,0,.06.13A.22.22,0,0,0,198.93,197.38Z"/><polygon class="cls-4" points="198.72 197.79 198.76 197.74 198.76 197.62 198.72 197.79"/><path class="cls-4" d="M198.68,195.42l-.09-.17c-.09,0-.13.05-.09.12S198.61,195.46,198.68,195.42Z"/><path class="cls-4" d="M198.08,196.06a.46.46,0,0,1,.18-.11l-.31,0Z"/><path class="cls-4" d="M197.94,195.55c-.09,0-.29-.22-.23,0C197.79,195.55,197.89,195.72,197.94,195.55Z"/><polygon class="cls-4" points="197.94 192.82 197.95 192.86 198.45 192.78 197.94 192.82"/><path class="cls-4" d="M196.4,190.63c-.09.23.31,0,.19.22.13,0,.1-.17.21-.14C196.66,190.61,196.72,190.53,196.4,190.63Z"/><path class="cls-4" d="M196.8,190.71l.09.06Z"/><polygon class="cls-4" points="195.14 163.8 195.23 163.65 195.07 163.76 195.14 163.8"/><path class="cls-4" d="M194.73,163.59l.32-.08-.3,0S194.8,163.56,194.73,163.59Z"/><path class="cls-4" d="M194.82,182.44h.08c.08,0,.08-.06.08-.13Z"/><polygon class="cls-4" points="194.79 180.57 194.79 180.61 195.07 180.5 194.79 180.57"/><path class="cls-4" d="M194.2,179.09c0,.06.08.13.07.19C194.2,179.15,194.56,179,194.2,179.09Z"/><path class="cls-5" d="M176.32,114.44q33.48,27,69.16,51.09a2.42,2.42,0,0,0,1.64.6c1.39-.21,1.75-2.62.69-3.53-7.43-6.4-7.43-6.4-13.05-9.65-17.7-10.23-35.53-25.69-49.73-40.4-1.57-1.63-3.33-3.39-5.58-3.6s-4.7,2.26-3.56,4.21"/><path class="cls-5" d="M177.79,112.05c.12-.06.07,0,.08,0Z"/><path class="cls-5" d="M178.3,110.65l0,.17a2.31,2.31,0,0,1,.23-.54A2.26,2.26,0,0,0,178.3,110.65Z"/><path class="cls-5" d="M181,111c0-.39-.27-.53-.62-.56a2.33,2.33,0,0,1-1-.13l-.07-.17a3.18,3.18,0,0,0-.19.57C179.52,110.57,180.62,110.55,181,111Z"/><path class="cls-5" d="M181.47,113.31c.11-.28.46.08-.26-.35a.52.52,0,0,1,0,.11A1.72,1.72,0,0,1,181.47,113.31Z"/><path class="cls-5" d="M181.23,113.07c-.28-.21,0,.32,0,0Z"/><path class="cls-5" d="M182.63,114.19l-.56-.21c0,.19.28.56.07.52C182.63,114.8,182.67,114.61,182.63,114.19Z"/><path class="cls-5" d="M183.38,114.21l-.28-.14C183.09,114.16,183.12,114.23,183.38,114.21Z"/><path class="cls-5" d="M182.51,113.79l.59.28c0-.14.18-.31-.26-.15C183,113.81,182.8,113.87,182.51,113.79Z"/><path class="cls-5" d="M182.35,113.48c-.1-.32-.32-.66.24-.47C181.79,112.4,181.57,112.87,182.35,113.48Z"/><path class="cls-5" d="M181.49,110.46c-.07-.14-.16-.25-.24-.38l-.42.06C181.05,110.1,181.4,110.66,181.49,110.46Z"/><path class="cls-5" d="M184.94,117.08c.13-.08.15-.43.25-.6l-.43-.19C184.85,116.52,185.08,116.9,184.94,117.08Z"/><path class="cls-5" d="M185.19,116.48l.65.29C185.45,116.33,185.29,116.34,185.19,116.48Z"/><path class="cls-5" d="M184,113.74l-1.12-.36c.41.15.83.32,1.27.5Z"/><polygon class="cls-5" points="186.69 118.87 186.18 118.85 187.03 118.94 186.69 118.87"/><path class="cls-5" d="M187.92,120c-.4,0-.08.62-.41.54a2.75,2.75,0,0,0,1.21.45A1.59,1.59,0,0,1,187.92,120Z"/><path class="cls-5" d="M189.37,121.16a4.35,4.35,0,0,0-.65-.17A1.64,1.64,0,0,0,189.37,121.16Z"/><path class="cls-5" d="M186.57,117.61a.74.74,0,0,0,.06.67l.12-.48Z"/><path class="cls-5" d="M186.75,117.78v0l.38.41Z"/><path class="cls-5" d="M186.53,117.56l0,0S186.58,117.54,186.53,117.56Z"/><path class="cls-5" d="M185,115.23c.44.11,1.18.5.9-.31C185.45,114.93,185.61,115.39,185,115.23Z"/><path class="cls-5" d="M186.68,117l-.42-.56c-.07.09-.1.29-.32.24Z"/><polygon class="cls-5" points="187.02 117.11 186.68 116.96 186.84 117.17 187.02 117.11"/><path class="cls-5" d="M188.79,120.05a2,2,0,0,1,.88.53,5.36,5.36,0,0,0-.77-.93C188.77,119.71,188.48,119.76,188.79,120.05Z"/><path class="cls-5" d="M187.83,118.92l.06,0C187.89,118.89,187.87,118.86,187.83,118.92Z"/><polygon class="cls-5" points="192.3 123.12 192.31 123.02 192.25 123.07 192.3 123.12"/><path class="cls-5" d="M188.91,119.55a.66.66,0,0,0-.57-.35,3.81,3.81,0,0,1,.56.45C189,119.62,189,119.6,188.91,119.55Z"/><path class="cls-5" d="M190.24,121.73a3.24,3.24,0,0,0-.21-.53C190.05,121.41,190.13,121.77,190.24,121.73Z"/><path class="cls-5" d="M187.88,119.1h0C187.84,119.22,187.86,119.18,187.88,119.1Z"/><path class="cls-5" d="M187.88,119.1a1.52,1.52,0,0,0,.46.1,2,2,0,0,0-.45-.25A.37.37,0,0,1,187.88,119.1Z"/><path class="cls-5" d="M195,121.89c-.31.25-1.13,0-1.32-.79-.69-.24-1.28,1-1.36,1.92.14-.11.25-.22.91.08,0-.32-.76-1.41-.09-1.27.8.47.44.61.62,1.06.07-.61,1.33.27,1.68-.39l-.75-.36C194.75,122.05,195.08,122.11,195,121.89Z"/><path class="cls-5" d="M191.4,122.09l-.24-.16a2.6,2.6,0,0,1,.33,1.07c.48.18.65.14.76.07l-1-1Z"/><path class="cls-5" d="M190.25,121c.45-.15,1.07.19,1.09-.44-.61-.55-.66-.14-1.15-.35,1,.85-.44-.1.08.75a4.2,4.2,0,0,1-.6-.42,4.33,4.33,0,0,1,.36.62v0h0c0-.07,0-.11,0,0h0a.34.34,0,0,1,.15-.07c.22.33,0,.12-.15.07l-.06,0h0l1.13.77A5.08,5.08,0,0,0,190.25,121Z"/><path class="cls-5" d="M187,114.78a.12.12,0,0,1,0,.1C187.06,114.91,187.11,114.91,187,114.78Z"/><path class="cls-5" d="M187.2,115.36c-.11,0-.28,0-.47-.22s.14-.15.24-.26c-.22,0-.69-.25-.42.32l.11,0c.26.48.37,1.35.26,1.33A2.91,2.91,0,0,0,187.2,115.36Z"/><path class="cls-5" d="M188.81,118.15l.94.64-.14-.67-.14.18C189.09,117.79,189,118.09,188.81,118.15Z"/><polygon class="cls-5" points="192.25 123.36 191.83 123.59 192.74 123.57 192.25 123.36"/><polygon class="cls-5" points="193.34 124.32 193.03 124.57 193.47 124.66 193.34 124.32"/><path class="cls-5" d="M236.84,162.51l-.33-.09A.91.91,0,0,0,236.84,162.51Z"/><path class="cls-5" d="M238.77,163.88l.16-.13C238.78,163.77,238.7,163.81,238.77,163.88Z"/><path class="cls-5" d="M220.93,147c.18.58.3,1.36.5,1l.13-.44A1.25,1.25,0,0,1,220.93,147Z"/><path class="cls-5" d="M242.71,158.13l0-.19-.52.12Z"/><path class="cls-5" d="M244.11,157l.31.62A2,2,0,0,0,244.11,157Z"/><path class="cls-5" d="M226,155.51l-.57.14C225.9,156,225.82,155.66,226,155.51Z"/><path class="cls-5" d="M204.54,134.13a3.2,3.2,0,0,0,.62.87C204.94,134.49,204.87,133.94,204.54,134.13Z"/><path class="cls-5" d="M240.21,159.25c-.21-.05-.33,0-.38.06C240,159.36,240.19,159.36,240.21,159.25Z"/><path class="cls-5" d="M206.07,135.76a.81.81,0,0,0-.1-.21,2.91,2.91,0,0,1-.81-.55A1.05,1.05,0,0,0,206.07,135.76Z"/><path class="cls-5" d="M188.57,127.31s0-.07,0-.11S188.51,127.27,188.57,127.31Z"/><path class="cls-5" d="M180.6,115.44a3,3,0,0,1,.45.32A1.16,1.16,0,0,0,180.6,115.44Z"/><path class="cls-5" d="M197.51,128.44c-.25-.19-.07,0,0,0Z"/><path class="cls-5" d="M197.56,126.16a.3.3,0,0,0,.23-.08A.4.4,0,0,1,197.56,126.16Z"/><path class="cls-5" d="M210.15,135.62l0,0C210.16,135.52,210.16,135.54,210.15,135.62Z"/><path class="cls-5" d="M197.3,128a1.88,1.88,0,0,0,.2.36A2.1,2.1,0,0,0,197.3,128Z"/><path class="cls-5" d="M197.2,128.17,197,128C197,128,197,128,197.2,128.17Z"/><path class="cls-5" d="M197.84,128.7a2.31,2.31,0,0,1-.34-.36c0,.06,0,.1,0,.1Z"/><path class="cls-5" d="M209.26,141.54l0-.07C208.87,141.43,209,141.49,209.26,141.54Z"/><path class="cls-5" d="M230.05,147.71h0l0,0Z"/><path class="cls-5" d="M231.14,148c-.68.21-.87,0-1.1-.27l-.37,1.25Z"/><path class="cls-5" d="M232.11,159.4l.41.76c-1.13,0-1.56-.58-1.27.29.86-1,2.55,1.6,3.41.55l.25.52c-.11-.09-.17,0-.29-.13.45,1.1,1.17-.39,2.11.49.31.34.45.67.11.63l1,.29c.22.18,0,.34-.19.15l1.3.77,0,0a5.68,5.68,0,0,1,1.16,0c.21.38-.24,0-.25.2l.88.2c.08.48-.69.38-1.14,0-.11,1.56.77.11,1.72,1.71l-.75-.3c0,.92.66,1,1.13,1.94,0-.33-.8-2,.14-1.78a1.15,1.15,0,0,0,1,.51c-.27.4.2.57.71.89l-.39.5c.65.22.75-.1,1.27-.1a4.91,4.91,0,0,1,1.32,1.7c.8.23,1.2.15,1.18.09s-.3-.19-.53-.34-.4-.31-.31-.39.4,0,1.37-.14a3.2,3.2,0,0,0,2.77-1.89,4,4,0,0,0,.16-2.7c.07-1.22.42.17.55-.28a5.5,5.5,0,0,0-.77-1c-.1-.27.07-.25.17-.23-.32-.45-.49-.37-.68-.37a.61.61,0,0,1-.33-.09l-.27-.16a3.13,3.13,0,0,0-.33-.22c-.63.39-.56-1.84-1.82-1.87-.07-.29.34-.22.45-.45a7.77,7.77,0,0,0-2.43-.64l-.45-.93c.23.81-.82.68-1.71.55a5.67,5.67,0,0,0,.12.78l-1.16-.5c0-.18.18-.27.5-.35a1.31,1.31,0,0,0-.27,0c-.19-.46.22-.6.69-.68,0,.19.07.39.1.59a1.77,1.77,0,0,0,1.16-.59.85.85,0,0,1-.42-.12c.13,0,.23-.07.24-.15s-.18-.05-.44-.05l.22-.74-.23.18c-.33-.46-.67-.92-1-1.38-1.41-.17-2.85.12-4.56-.56.66-.21.53-.68.87-1.2.09.82,1.39.52,2.15,1.2-.39-.35-.14-.53,0-.54-.61-.17-1.21-.32-1.81-.45.3-.42-.12-.52-.4-.93-.22,1-1.44-.08-2.19-.16.14-.31.45-.52,1.14,0-.43-1.12-1.63.42-2.09-.59.18.09.25.19.4.09-.56,0-1.43-.79-1.05-.9l.18.1c-1.1-.78-3.5-2.1-4.12-1.51a7,7,0,0,1,.86-.88L228,149.86c.58-.5.83-2.39,2-2.15a1.89,1.89,0,0,0-1.19-.72c.13.21-.12,1.19-.4,1.08-.24-1.14-.24-.68-.7-1.82.18.31-.75,1.07-1.16.75.16-.1.59-1,.81-1l-1.7.22c.38,0,.58-.76.52-1.18,0,.26-.9-.65-1.25-.75l.3.52c-1.09-1-2.08.48-3.24-.4.28-.09,1.18-.92.66-1.45-.61.27-2.82,1.37-4.14,1v-.42l-1-.28a23.27,23.27,0,0,1,4.66-.82c-.29-.53.1-.4-.58-.86,0-.41.64-.12.84,0L221,140.33c-.33.59-1.57-.31-1.84.18l2.07.65c-.32.59-2.1.85-3.11-.06-.11-.42.92-.8,1-1-.27.08-1.28-.42-1.28-.62l.67.05c-.44-.65-1.51,0-1.84-1.08-.22-.22-.21-1.24-.49-1a5.83,5.83,0,0,1-2.06,3.11,10.56,10.56,0,0,1-.9-2.12c0-.79,1.49-.65,1.47-1.33a1,1,0,0,1-.63.12c-.16-.33.46-.37-.15-.74-.52.46-1.1-.94-.63.25-.66-.28-.5-.56-1.15-1.06-.07.51-1.5.71-2.17.41.14-.1.16-.38.16-.51-1.07-1-1.47-1.67-2.48-2.54,0-.2-.36-.77,0-.82a1.33,1.33,0,0,1-.83-.22c-.23-1,.76.52.75-.41-.29.27-1.16-.26-1.77-.45-.26.58,1,1,1.57,1.14-.54.65-1.9.68-3.22.06-1-.58,0-.73-.24-.77-1.48-1.48-2.32-.05-3.22-1.66-.16-.87.68-.83.83-1.22.8.45.82,1.18,1.29,1.56l-.4-.68a1.55,1.55,0,0,1,1,.68c-.13-.73-2.59-2.4-3.49-3.8-.33-.06-.83-.25-.8.06l.43.29c.06.63-1.11-.2-.77.38a3.51,3.51,0,0,1-2.15-1.23l.29-.58c-.11.15.21.7.54.74-.48-.07-.53-1.61-1.4-1.31l.21.77c-.71-.24-1.79-.34-2.28-1.08-.13.71.2.09.16,1,.21-1,1.59,1.52,1.59.27-.1,1,.56,1,.69,2.06.12-.17,0-.49.51.08a1,1,0,0,1,.24,0l0,0,0,0c.05,0,.05,0,0,0a.89.89,0,0,1-.07-.48c.58-.1,1.42.68,1.87.76.25.35-.29.05-.26.36l.67.12c-.26.37.35,1.32-.58.84l.67.62a2.38,2.38,0,0,0,1.18,1.27c.26.35,1.14.33.63.35l1.26.73-.06.09c1,1,2.67,1.31,3.38,3a4,4,0,0,1,1.43,1l-.13.4c.56.28,1.18,1.45,1.63,1.31-.15,1.23,2.17,2,2.9,2.83l.35-.38a8.08,8.08,0,0,0,2,1.19l.23-.39c.85.19,1.42,1.48,2.44,2.19-.17.09-.39-.14-.51-.35.59,1.71,3,1.25,3.63,2.65a.9.9,0,0,1,.66.47l-.08,0,.11.08a5.2,5.2,0,0,0,.25.46,1.5,1.5,0,0,0-.19-.42,4.84,4.84,0,0,0,1,.45l-.14.49.08,0c.21.36.38,0,.42-.43a2.08,2.08,0,0,0,.59.06c-.19.81,1,.36.85,1.28.44-.19,1.79.83,2.43.23-.05.1,0,.21-.16.1a1.58,1.58,0,0,0,1.06.65l-.19.61,1.24-.18c.27.62.36.93-.38,1,1.55.12,1.09.36,2.46.38l-.26.3c.36.21,1.19.12,1.24.52.39,1.12,3.93,2.46,5.55,4.21.23-1.22.64,1,1.18.28,0,.31.15.6-.29.61,1.12.39,1.14,1.29,2.22,1.14-.06.3-.43.18-.44.38.11,0,.43,0,.43.22s-.28.09-.49.08c.93.65,1.56.08,2.13-.49.24.68.51.83,1.18.71,0,.34.1.78-.54.37.31.29,1.75,2,2.2,1.51,0,.21.42.43.55.44a13.35,13.35,0,0,0,1.5,1.33l-.13-.25c.39-.17.57-.07.73.12l.25.34a1.1,1.1,0,0,0,.26.27l-.07.05c0,.39,0,.48.06.57a.24.24,0,0,1,0,.2.62.62,0,0,1-.32.38c.15,0,.31.08.46.12.5.19.19.52-.15.51a.4.4,0,0,1-.3-.21c0-.08,0-.1-.21-.06a3,3,0,0,0,.09.32c-.44.29-.23-1.72-.63-2.15,0-.14.24,0,.41,0-.85-1.31-.5.42-1.47-.07,0-.39.69-.57.13-1-.14-.43-2.35-.27-2.8-1.36,0,.34.06.67-.46.56-.68-.36-1.14-2-2.18-1.7a.28.28,0,0,1,0-.24c-.6-.16-1.76-.79-2.3-.62.49-1.67-3.45-1.41-2.57-2.66l-1.52-.95.13-.1a2.14,2.14,0,0,0-2-.61c-.16-.24.08-.24.14-.3a3.49,3.49,0,0,0-3-1.44l.17-.49c-.48,0-1.53-2-3.2-2.52a.33.33,0,0,1,.27-.08c-1.85-.59-2.8-3.69-4.4-2.62l-1.26-.35c1.21,1-.65.5-.29,1.12-.57-.28-1-1.38-.31-1l0,.14c.78-.59-1.4-1.42-1-1.91-2.54-1.79-4.68-4-7-5.76l-.16.78-.8-.63c-.11-.3.06-.68.62-.22-.06-.56-1.18-.45-1.29-.33-1-1.08.95-.35.61-.63l-.51-.31.06.15c-.56,0-.79.18-1.46-.36-.36-.45,0-.53-.12-.69,0,0,0-.1-.25-.21l-1-.81.06.76c-.62-.11-1-.74-.86.14-.09-1.33-3.61-3.16-3.84-3.73a4.65,4.65,0,0,1-2.26-1.25c.12.24-.15.84-.77.27,1-.88-.88-1.39-.83-2.57.09.88-2-1.32-1.78,0-.49-.51.27-.42,0-1-1.64-.6-2.71-2.5-4.44-3.62-.13.12,0,.54-.53.48L192,124c-.37-.18-.92.57-1.13-.37,0,.18,0,.46-.27.33-2.65-3.15-6.92-4.53-9.12-8.34.22.61-.09.4-.43.15.17.23-.27.33-.38.55l-.92-1.58c-.66.32-1.46-1.12-2-.74l.49.25c-1,.13-.25,1.93-.93,2.61,1.16-.16.88,2.32,2.68,2.2.11.34-.39.09-.4.36.52-.11.89.07,1.37.68l-.13,0c1.72,1.24,2.17,2.13,3.89,3.81l.15-.48a1.8,1.8,0,0,1,.47.79c.91-.2-1.1-.92-.19-1.21-.07,1.17,2.82,2.24,2.51,3.38.62.49.16-.57.78-.09l0,.37.39-.18a.85.85,0,0,1,.21,1c-.08-.11-.33-.17-.45-.23.32.68,1.57,1.06,1.68,1.29l-.48-.61c1.86,1.11,3.71,3,5.72,3.8v-.28c1.51.64.86,1,2.36,1.87h-.08a2.15,2.15,0,0,1,1.21.53c-.5-.06.35.91-.28.79,1.64.68.89.23,2.29.26v.45a1.67,1.67,0,0,1,1.39.29c-.76-.17.11.78-.78.64,1,1.75,2.65,1,2.61,2.42,1.29-.31-.92-1.4-.41-1.29-.11-.51,1-.2,1.41.22s0,1.65,1.19,2.51c-.11-.09-.17,0-.28-.13.28.54,1.07.36,1.36,1.1.67-.27.68.55,1.24,0l-1.19-.65c.74.28,1.86,0,2.6,1.07a2,2,0,0,1-.87,0c.15.41.66.3.82.72-.56.57-1.41-.84-2.43-.84.12.51,1.58.46.74.91,1.12-.53,1.08,1,2.38.88l-.34.35a1.76,1.76,0,0,1,.8.22l-.79.19c1,.05,1,1.29,1.77,1.51-1.31-.94,0-.67-.3-1.36,2,.67.19,1.69,2.13,2.82-.29-.13-.75-.9-.24-.8a3,3,0,0,1,.69,1.16c1.26.79.11-.53.79-.4.07.77.72.24,1.36.47l-.28.39c1.18,1.24.95-.55,1.95.64l-.91.17.75.32-.46.35a2.46,2.46,0,0,1,1.69,1c0-.39.6-.64,1.21-.22.25.53-.5.21.4.77-.37.1-.8.26-.92-.37-.13.1-.36.11-.49.2.25.59,1.07.87,1.39,1.09a1.17,1.17,0,0,1-.28-.33l1.64.35c.09.28-.15.29-.39.3a5.62,5.62,0,0,1,1,.31c-.32.25-.53.59-1.17.37l1.45.49c0,.2.34.82.1.83.53.65,2.06.53,2.76,1.4a.63.63,0,0,1,.44.06c.77.65,1.23,1.56,2.52,1.8l.15,1c.86.41-.24-1.25,1.18-.57,1,.45,0,.72.2,1.11.66,0,1.85,0,2.36,1C232.56,159.77,232.4,159.53,232.11,159.4Zm9.69,6.28c-.24,0-.78,0-.76-.36C241.56,165,241.58,165.34,241.8,165.68Zm.15-9.35c.23,0,.39.21.51.53A1.19,1.19,0,0,1,242,156.33Zm-41.66-25.94h0C200.57,130.87,200.49,130.69,200.29,130.39Zm-.64-.85c-.12,0-.16,0-.17.12s.31.11.49.31C200,129.83,200,129.67,199.65,129.54Zm8.92,7.45.09.22C208.21,137.05,208.39,137,208.57,137Z"/><path class="cls-5" d="M244,157.09a.59.59,0,0,1-.1.26C244,157.35,244,157.28,244,157.09Z"/><path class="cls-5" d="M226.08,155.48l0,0-.08,0Z"/><path class="cls-5" d="M214.55,136.7a1,1,0,0,1,.17.45C214.8,137.06,214.78,136.92,214.55,136.7Z"/><path class="cls-5" d="M195,126.44l.57.36a1,1,0,0,1-.33-.53C195.18,126.37,195.17,126.57,195,126.44Z"/><path class="cls-5" d="M192.85,120.3c-.11,0-.15-.14-.26-.16l-.13.18C192.76,120.59,193.09,120.66,192.85,120.3Z"/><path class="cls-5" d="M195.64,124.84c.24-.33-.16-.51-.55-.78l.06.06C194.66,124.44,195.15,124.65,195.64,124.84Z"/><path class="cls-5" d="M195,124a1.78,1.78,0,0,1-.32-.29C194.49,123.84,194.78,123.86,195,124Z"/><path class="cls-5" d="M198.48,128.86c-.09-.22-.45.3-.43.09C197.52,129.17,199.57,129.47,198.48,128.86Z"/><polygon class="cls-5" points="196.28 123.61 196.06 124.09 196.52 123.97 196.28 123.61"/><path class="cls-5" d="M198.73,126.36l-.46-.6c-.05.07-.15,0-.26,0C198.34,126.07,198.64,126.48,198.73,126.36Z"/><path class="cls-5" d="M198,125.75a1.15,1.15,0,0,0-.5-.35A2.7,2.7,0,0,0,198,125.75Z"/><polygon class="cls-5" points="197.12 124.18 197.21 124.41 197.57 124.79 197.12 124.18"/><path class="cls-5" d="M204.64,131.72l.71.42c.18-.08.07-.3-.2-.45S204.66,131.51,204.64,131.72Z"/><path class="cls-5" d="M203.69,129.08c.1.22,0,.31,0,.52l.43-.46Z"/><path class="cls-5" d="M205.57,130.51c.17-.08,1.2.39.4-.25C205.8,130.33,205.1,129.91,205.57,130.51Z"/><polygon class="cls-5" points="214.48 138.81 214.31 138.69 213.71 139.51 214.48 138.81"/><path class="cls-5" d="M224.51,143.18c-.63-.74-.54.39-1.07-.35-.32.07.43.6.12.64C224.18,143.59,224.34,143.88,224.51,143.18Z"/><path class="cls-5" d="M223.56,143.47l-.33,0A1,1,0,0,0,223.56,143.47Z"/><polygon class="cls-5" points="179.18 113.6 178.83 113.05 178.93 113.56 179.18 113.6"/><path class="cls-5" d="M177.79,113.45l.29-.6-.66.23C177.55,113.14,177.8,113.27,177.79,113.45Z"/><path class="cls-5" d="M242.49,167.73l.13-.1c0-.2-.1-.29-.32-.47Z"/><polygon class="cls-5" points="235.84 162.6 235.95 162.69 236.06 162.05 235.84 162.6"/><path class="cls-5" d="M229.63,159.2c.22.18.57.27.79.45C229.85,159.39,230,158.55,229.63,159.2Z"/><path class="cls-6" d="M169,72.87a135.37,135.37,0,0,1-7.8-15c-1.51-3.38-2.73-7.76-.19-10.45,2.32-2.46,6.62-1.81,9.12.44s3.67,5.6,4.74,8.8a20.22,20.22,0,0,1,7.49-6c2.81-1.31,6.72-1.69,8.52.83A5.41,5.41,0,0,1,191,57a14.08,14.08,0,0,1-3.86,4.25A79,79,0,0,1,167.5,73"/><path class="cls-6" d="M167.2,72.24c0,.11.11.32.22.22l0-.4Z"/><path class="cls-6" d="M168.39,72.52a1,1,0,0,0-.11-.91c0,.41-.11.28-.1.76-.12.1-.29,0-.32-.15,0,.11-.24,0-.22.27.29.2.52.11.66-.21C168.38,72.33,168.37,72.45,168.39,72.52Z"/><path class="cls-6" d="M181.35,66.17h-.1A.11.11,0,0,0,181.35,66.17Z"/><path class="cls-6" d="M188.67,60.92c0,.06,0,.1,0,.13S188.71,60.94,188.67,60.92Z"/><path class="cls-6" d="M190.13,60.12l-.08.06S190.14,60.16,190.13,60.12Z"/><path class="cls-6" d="M181.35,66.17l.27,0C181.57,66,181.47,66.13,181.35,66.17Z"/><path class="cls-6" d="M169.81,70.86a.26.26,0,0,0-.07.15l.09-.09Z"/><path class="cls-6" d="M178.17,68.56l-.06,0a1.15,1.15,0,0,0,0,.16Z"/><path class="cls-6" d="M175.55,70.12c.07,0-.07-.32-.12-.46,0,.14,0,.22,0,.27A.7.7,0,0,0,175.55,70.12Z"/><path class="cls-6" d="M171,71.79l0,.08S171,71.82,171,71.79Z"/><path class="cls-6" d="M180.06,67.47l.09.08A.24.24,0,0,0,180.06,67.47Z"/><path class="cls-6" d="M168.57,69.08l0,0S168.58,69.11,168.57,69.08Z"/><polygon class="cls-6" points="168.92 72.91 168.88 72.88 168.72 72.97 168.92 72.91"/><path class="cls-6" d="M192.35,57.82h0C192.33,57.92,192.35,57.87,192.35,57.82Z"/><path class="cls-6" d="M175.31,53.86a1.48,1.48,0,0,1-.18.49.94.94,0,0,0-.19.56A4.12,4.12,0,0,0,175.31,53.86Z"/><path class="cls-6" d="M169.9,70.87l.11-.06C170,70.83,169.92,70.84,169.9,70.87Z"/><path class="cls-6" d="M174.94,54.91h0v0Z"/><path class="cls-6" d="M191.53,50.09a.48.48,0,0,0-.05.17A.21.21,0,0,0,191.53,50.09Z"/><path class="cls-6" d="M192.42,55.76l.07-.13A.33.33,0,0,0,192.42,55.76Z"/><path class="cls-6" d="M188.62,48.94c-.07,0-.08-.1-.19-.08s0,0,0,0S188.55,48.86,188.62,48.94Z"/><path class="cls-6" d="M185.72,48.75s0,0,.05.06l.09,0Z"/><path class="cls-6" d="M164.78,62.29a1,1,0,0,1-.21.24C164.76,62.39,165,62.69,164.78,62.29Z"/><path class="cls-6" d="M169.89,71c0-.08,0-.13,0-.16l-.07,0A.17.17,0,0,0,169.89,71Z"/><path class="cls-6" d="M187.89,51.43l-.29-.1A2,2,0,0,0,187.89,51.43Z"/><path class="cls-6" d="M163.12,47.58l0,.06A.06.06,0,0,0,163.12,47.58Z"/><path class="cls-6" d="M186.67,51.3a.65.65,0,0,0-.19-.23.79.79,0,0,0,0,.09Z"/><path class="cls-6" d="M164.57,62.53Z"/><path class="cls-6" d="M166.48,64.57c-.17-.35-.46,0-.72.07-.32-.35.19-.34.31-.58-.23-.2-.69-.22-.77-.42.06,0,.06-.09.16-.09-.45-.12-.42-.8-1-.93a.36.36,0,0,1,.08-.09,1.84,1.84,0,0,1-.51.32c-.08-.16-.39-.17-.17-.36,0,.1.15.06.25.07l-.19-.11c.29-.33.24.16.51,0-.28-.26-.76-.48-.78-.78.33-.22.4.52.56,0l0,.45c.42-.57.07.25.54-.31-.13-.55-.45-.47-.58-1-.26,0-.28.18-.53.16-.7-.54.63-1-.09-1.28-.31,0-.79.14-.72-.35l.47-.06c-.19-.5-.72,0-.68-.64.2,0,.31.32.33.22.17-.48-.34-.13-.46-.38l.34-.22c-.29-.5-.81-.95-1.12-1.49.13,0,.28,0,.34-.14a3.53,3.53,0,0,1-.5-2.28l-.41-.18c0-.06.13-.15.21-.1.06-.3-.22,0-.38-.05s.14-.25.27-.18c-.42-.39-.9-1.27-.56-1.79l.11.08c.12-.37-.74-.41-.41-.78l.06.07c.14-.8.06-1.79.79-2.09-.41-.34.53-.48,0-.91a6.63,6.63,0,0,0,1.1-.17c.11-.07-.1-.46,0-.64l.2.3a2.33,2.33,0,0,1,0-.46c.12.11.23.21.33.32l.11-.16a.3.3,0,0,1-.24-.18c.2-.28.74,0,.79.16a3.27,3.27,0,0,1,.58-.44c0,.15-.1.22-.17.32.29-.42.12.37.38,0,0-.08,0-.21,0-.29a.89.89,0,0,0,.85.12l-.07.25a10.41,10.41,0,0,1,1.65.2c-.17-.17,0-.57.19-.56l-.05.39c.19-.18-.14-.2.19-.39.21.13,0,.47-.17.54l.31,0c0,.11-.11.15-.18.28.2-.19.25.53.57.22l0,.11a9.11,9.11,0,0,1,1.17.58c.21-.24.31-.08.61-.17a6.28,6.28,0,0,0,.63,1.16c.34.15.28-.1.53-.11-.22.2.08.57-.24.5a8.1,8.1,0,0,0,1.06,1c.07-.13.06-.24.18-.25s0,.33-.09.39l0,0c.82.53.08,2.1.9,2.47l0,0,.29.27.35.47c.14.53-.31-.19-.33.3a3.25,3.25,0,0,1,.74,1.5,3.52,3.52,0,0,0,.54,1.38,4.75,4.75,0,0,0,.35,2.27c.34-.46.7-1,1-1.44a2.59,2.59,0,0,1,.93-.87l-.09-.21c.18-.54.29-.18.48-.33-.08-.16-.29.06-.19-.24s.43-.57.65-.84.45-.47.69-.7a5.59,5.59,0,0,1,.92-.66c.63-.37,1.32-.66,2-1,.45-.23-.35-1.07.48-1l0,.43c.66-1,1.88-1.05,2.62-1.73,0,.1,0,.21-.07.24.28.19.71-.22.66-.44.15,0,.09.19.21.28s.41-.48.57-.22c0,0,0,.1-.06.13.1-.17.59-.08.42-.38.37.1.67-.22,1,0,.18-.36.58.18.66-.32,0,.52.52.48.78.29-.1.14.13.21,0,.4.21,0,.41,0,.47-.25.09.36.28.32.49.31s.38,0,.22.41a2.07,2.07,0,0,1,1.43,1.1c-.5.13-.29-.6-.79-.32.41.29.95.56.88,1.19-.06.16-.24-.07-.33-.11.27.57-.06,1.11.07,1.7-.05,0-.08-.08-.11-.15,0,.11-.14.22.09.28l0-.12c.4-.09.56.65.72.75-.57-.43-.4.5-1.08-.13a.35.35,0,0,0,.24.26c-.1.08-.19.07-.31-.11,0,.41.23.41,0,.74-.1-.06-.1-.15-.2-.25.1.27.19.57-.09.79,0-.06-.14-.08-.08-.16-.29.47-.13,1.17-.75,1.5-.23-.48-.27.05-.61-.24L188,59l.25.05c-.23.21-.22.63-.51.71l.05-.29-.39.45.36-.09c-.09.38.4.39,0,.58,0-.09-.25.21-.54.12h0c0,.21-.07.43-.32.5s-.27-.41-.36-.45c.11.38-.53.55-.44,1a.5.5,0,0,0-.19-.32l.08.31c-.17,0-.22,0-.31-.16-.39.24.45.35-.12.49,0,0,0-.07,0-.15-.5.22-.71.78-1.19,1-.38-.26.28-.34-.08-.54-.52.49-.86,1.31-1.48,1.62l.13,0c.28.57-.6.05-.71.49,0-.08-.11-.34-.09-.27-.44.19-.7.67-1.18,1.23l0-.18c-.31,0-.65.34-.94.44,0,.18-.15.26.07.39-1.27-.26-1.23,1.37-2.34,1.15.09,0,.13-.24.06-.2l-.52.49c.19.2.16.09.4.2a.57.57,0,0,1-.25.48c.18-.32-.23-.37-.42-.44.06.06.07.17.12.23-.56-.23.22.5-.37.48l-.05-.14c-.13.16-.18.41-.38.48-.23-.24.1-.23,0-.46-.23.16-.19.79-.57.64.06-.13.22-.22.28-.35-.43-.18-.41-.09-.62,0h0l-.49.09.15,0c.09.89-.56.47-.73,1.17.17-.67-.07-.29-.2-.62-.16,0-.37,0-.37-.16-.07.36-.44,0-.52.5-.07-.1-.22.1-.31-.18-.22.21.15.14.2.28-.23.56-1.16.06-1.5.83-.41.44-.33.84-.72,1.23-.24-.09-.05-.44-.05-.44a.73.73,0,0,0-.7.32c0-.11-.08-.17-.2-.25-.18.12,0,.44-.29.4a1.69,1.69,0,0,1,0-.5c-.19.2-.33.49-.52.69-.15-.15,0-.34.05-.49-.23.2-.62.47-.58.8l.22,0c-.09,0-.16-.23-.11-.32.13-.32.37,0,.43.06l-.14.14c.45.53.65-.4,1-.53l.06.51.18-.53c.13.08.3.31.16.45.35.11.14-.26.47-.11a0,0,0,0,1,0,.08l.18-.25c0,.12.19.3,0,.3.56.06.54-.66.86-.4l0,0c.52-.44-.1-.35.15-1l.7.65-.11-.35c.07,0,.2-.06.25.08.11-.33-.11-.12-.09-.39.44.14.74-.55,1.06-.08,0-.29-.37,0-.15-.37.38.5.31-.28.71-.17.06.32-.27.31.13.42-.09-.56.57-.18.75-.39-.19-.37.4-.42.7-.75,0,.14.81-.19,1.23-.26l0,.07c-.15-.41.25-.55.46-.77a.48.48,0,0,1,0,.52l.25-.14a.44.44,0,0,1,.15-.4l.1.31c.32-.21.45-.71,1-.78-.14-.27-.76-.51-.44-1,.1.13.26.36.19.48,0,0,.06-.19.17-.18l0,.34c.25,0,0-.26.14-.33.12.2.19.07.27.24s-.18,0-.19.12a.74.74,0,0,1,.62,0c-.08-.1-.16-.26-.06-.37.31-.21.26.17.51.15,0-.18.28-.17.1-.46.09-.06.19.06.28.12.08-.24.73-.54.34-.72h0l0,0h0c.33-.62,1.19-.57,1.62-1l.07.09c.23-.32.63-.55.7-.9a.31.31,0,0,1,.38.16c.18-.24.13-.37.57-.46-.11.34.19.09-.14.3.35-.14.53,0,.66-.54.07.32.46.14.54-.05h-.33a1.34,1.34,0,0,1,.44-.32l.16.36c.9-.09.59-1.47,1.54-1.22,0-.34-.45.11-.51-.25.31-.18.95,0,1,0,.51-.14,0-.73.47-.94a.46.46,0,0,1-.23-.65c.3-.19.71.14.62.38-.06.07-.12.06-.15,0-.05.12-.13.26.08.28l-.06-.13c.23,0,.59-.36.66-.11.12-.29-.07-.25-.27-.17.49-.16.55-.49,1-.74-.11,0-.28-.07-.23-.12.62-.4,0-.41.31-.8.34-.07.32.41.5-.09.3-.15.33.18.34.35.08-.53.68-.59.88-.81l-.06.28a1.22,1.22,0,0,1,.18-.38l-.31,0c.12-.1.19-.2.29-.14-.08-.23-.45-.15-.51-.53.22-.09.15-.58.5-.47-.4.49.37.11.16.61a.65.65,0,0,1,.2-.34s0,.06,0,.11c.58-.44-.23-.45,0-1a.25.25,0,0,0,.41-.12c-.09.25-.36,0-.44-.27.27-.34,0-.45.08-.64l-.14.21c-.17-.13-.1-.31-.11-.58.16,0,.05.26.15.18-.3-.35.49-.62.27-1.09.15-.19.39,0,.5-.18-.27-.51.28-.59,0-1.14-.25.21-.18.21-.51-.12a8.51,8.51,0,0,1,.29.85c-.14-.18-.3-.35-.45-.51,0,.24.22.51.17.67-.23-.25-.16-.22-.39-.1.41-.36-.29-.62-.09-1l.68-.13c.14-.75-.65-1-.95-1.79l0,.29c-.29.05-.31-.4-.58-.53.2-.13.16-.31.18-.5-.09.11-.46-.46-.81-.16a3.78,3.78,0,0,0-.1-.46.66.66,0,0,0-.75-.14.9.9,0,0,1-.72,0c.27-.17.06-.42.53-.43-.2-.08-.37-.19-.43,0-.07-.2-.63.12-.75-.13-.11.07-.18.3-.39.25a.2.2,0,0,1,0-.11c0,.11-.35.1-.21.38-.22-.41-.65-.43-1.05-.41s-.76.08-1-.21c-.4.12-.87.28-1.23.37,0-.07,0-.11.05-.1-.55-.1-.14.71-.74.63-.39-.28.23-.29,0-.37-.3-.71-.64.3-1.15,0l.08-.07c-.39-.14-.6.54-1,.69a.22.22,0,0,0,0-.1,2.9,2.9,0,0,1-.94,1.19c0-.32.1-.23-.12-.46-.16.14.29.4,0,.67-.19-.08-.51-.05-.71-.31l.32-.21c-.38-.26-.43.27-.63.32l-.08-.17c-.47.37-.22.76-.75,1.09l.13.07c0,.57-.38,0-.45.44l-.37-.31a6.75,6.75,0,0,1-.59,1.17,3,3,0,0,1,.32-1.19c-.19.13-.58.52-.53.76,0-.09.06-.25.18-.25A1.35,1.35,0,0,1,177,53.8c-.26-.37-.55-.18-.77,0s-.3.24-.45-.1c0,.23-.13.35-.21.37s-.13,0-.18,0,0-.07,0-.07c-.26,1.35,0-.05-.36,1.17a.19.19,0,0,1-.06-.21,8,8,0,0,1,.13-.9c.12-.3.13-.13.22-.34a1.85,1.85,0,0,1,.29-.64c-.17.28-.26.35-.2.23a1.51,1.51,0,0,0-.21.38c-.17.09-.09-.12,0-.26s.23-.24,0-.22l.21-.07s-.05,0-.08,0l-.2-.36a1.06,1.06,0,0,0-.74-.57c.06-.09.2-.24.31-.12-.26-.82-1.36-1.4-1.4-2.14l.19,0c-.13-.11-.42-.07-.38-.33.06,0,.18,0,.15-.11s-.49-.18-.53-.41l.26,0c-.31-.83-1.16-.76-1.72-1.17.38-.36,0-1-.2-1.26l.06-.05a4.65,4.65,0,0,0-2.66-.94c-.31-.77-1.79-.92-2.74-1.29.14.11-.07.39-.24.43s-.62.34-.58-.13H165c-.17-.48-.68-.33-1.06-.3l0,.62a1.56,1.56,0,0,0-1.73.17c-.53.31-.91.68-1.38.52-.12.26-.36.46-.43.75l-.22-.26a3.44,3.44,0,0,0-.68.61,3.19,3.19,0,0,0-.56.87l-.1-.28c-.31.43.53,1,.39,1.36l-.52-.07c-.27.74-.87,1.51-.47,2.33-.07,0-.21-.05-.22-.18-.06.37-.36,1.44.33,1.27-.45,0,0,.78.26,1.12h-.33c.46.27.58.25.77.67,0,.11-.24.14-.18,0-.1.39.36.21.28.66l-.24-.11c.07.36.16.31.45.43a.58.58,0,0,1-.16.81c.19,0,.48.1.46.32a.19.19,0,0,1-.23,0c0,.64.65.7.5,1.19-.1,0-.14.09-.16.14a3.3,3.3,0,0,1-.24-.78c-.28.1-.2.48-.7.33.32.23,1,.53,1,.93a.32.32,0,0,1-.08.09l-.05,0a.26.26,0,0,0,.14.2.83.83,0,0,0,0,.32c-.21.15.05.45.11.62.3-.15.35.1.51-.22,0,0-.05,0-.12-.12s0,0-.06-.06h0l-.21-.42c.22.07.41.16.32.42h.59c-.31.42-.34,1-.57,1.14.4.44.67,1.16,1.38,1.22.14.11-.08.24-.14.33s-.14-.16-.24-.16c.28.22.46.82.89.71,0,.44-.46,0-.16.43h-.15c-.14,1.29,1.77,1.1,1.52,2.57,0-.1,0-.15.07-.19.28,1.4,1.63,2.33,1.73,3.82.08.4.34.3.64.4l-.27.25.55.15c.54.35-.27,1.29.58,1.64l.16-.2c.09.24.53.64.27.74,0,0,.26,0,.2.1l-.15.1.59.38c.14.5-.67.31-.33,1,.2.2.85.38.91.23a.33.33,0,0,1,.11-.4l.21.16c.49-.24,1.06-.37,1.09-1.08l-.5-.18.16-.25.19.29c.11-.3-.14-.29-.34-.34a.45.45,0,0,0,.16-.29l-.66-.09c.16-.15.46-.06.43-.35-.31,0-.32.4-.62.21.11-.3.32-.35,0-.44a.24.24,0,0,1,.3-.06c-.24-.09-.33-.43-.64-.38.17-.33-.41-.57.05-.81a1,1,0,0,1-.65-.27c.71,0-.31-.63.31-.88-.61.05-.66-.69-1.15-.94.05,0,.15,0,.15,0-.08-.24,0-.39,0-.58-.42.19-.7-.11-1.05-.17.24-.48.57-.09.9-.37-.32.19-.59-.31-.81-.07.13-.34,0-.24.3-.53-.53.23-.19-.15-.6-.16.09-.44.44-.33.11-.59C166.14,64.36,166.48,64.57,166.48,64.57Zm-4.79-7.73h0l.08.16Zm-.28-.68a1.6,1.6,0,0,0,.11.3c-.1.07-.22.08-.24,0S161.36,56.29,161.41,56.16Zm-1.48,2.38c-.1-.09-.05-.16,0-.2a1.29,1.29,0,0,0,.13.18h0A.52.52,0,0,1,159.93,58.54Z"/><path class="cls-6" d="M160.41,58.57l.05,0,0-.09h-.11Z"/><path class="cls-6" d="M181.23,66.19h0s0,0-.05,0Z"/><polygon class="cls-6" points="162.67 48.01 162.62 47.94 162.63 48.03 162.67 48.01"/><path class="cls-6" d="M177.05,67.47a.19.19,0,0,0-.09,0S177,67.46,177.05,67.47Z"/><path class="cls-6" d="M175.44,68.31l-.28,0A.94.94,0,0,0,175.44,68.31Z"/><path class="cls-6" d="M174.14,68.84a.46.46,0,0,0,.05.14h0Z"/><path class="cls-6" d="M190.25,55.32v0C190.21,55.16,190.22,55.24,190.25,55.32Z"/><path class="cls-6" d="M187.25,60.49a.92.92,0,0,1,.06-.25C187.21,60.29,187.13,60.35,187.25,60.49Z"/><polygon class="cls-6" points="187.91 51.45 187.92 51.44 187.89 51.43 187.91 51.45"/><path class="cls-6" d="M187.54,60.05a.29.29,0,0,0-.23.19C187.4,60.19,187.51,60.15,187.54,60.05Z"/><path class="cls-6" d="M168.67,71.34l-.07,0s0,0,0,0Z"/><path class="cls-6" d="M168.62,71.41l-.06.06S168.62,71.45,168.62,71.41Z"/><path class="cls-6" d="M168.46,71.61l.1-.14S168.45,71.51,168.46,71.61Z"/><path class="cls-6" d="M170.41,70.72l0-.12A.24.24,0,0,0,170.41,70.72Z"/><path class="cls-6" d="M170.9,70.45c-.14,0-.42-.09-.55.06l0,.09C170.38,70.4,170.87,70.69,170.9,70.45Z"/><path class="cls-6" d="M173.66,70.72l-.47.14c.14.07.31.18.13.3C174,71.22,173.08,71,173.66,70.72Z"/><path class="cls-6" d="M175.06,70.2c-.2.17.09.16.11.23C175.26,70.25,175.28,70.2,175.06,70.2Z"/><path class="cls-6" d="M184.13,64.5l.15.26C184.42,64.6,184.22,64.66,184.13,64.5Z"/><polygon class="cls-6" points="184.82 62.04 184.56 62.01 184.66 62.28 184.82 62.04"/><polygon class="cls-6" points="187.09 62.99 187.04 63.07 187.24 62.78 187.09 62.99"/><path class="cls-6" d="M186.21,48.42l.08.37C186.43,48.71,186.46,48.3,186.21,48.42Z"/><path class="cls-6" d="M178.73,51.79c-.18-.1-.44-.06-.44.17C178.45,51.87,178.68,51.88,178.73,51.79Z"/><path class="cls-6" d="M163.44,44.56l.17-.15c-.11.06-.23.1-.34.17Z"/><g class="cls-7"><image width="1341" height="4904" transform="translate(-668.33 -899.84)" xlink:href="../../../../../../../Downloads/screencapture-aurora-db30bf-webflow-io-2023-09-18-12_40_29.png"/></g></svg>