<svg id="Capa_1" data-name="Capa 1" xmlns="http://www.w3.org/2000/svg" viewBox="0 0 935.3 85.98"><defs><style>.cls-1{fill:#f0d44f;}</style></defs><path class="cls-1" d="M19.44,61.48c10.4,1.55,22.81,3.21,31.94-3.36C60,51.93,62.47,42.21,59.31,32.36,58.81,30.78,54,22.25,50.85,25c-6.76,5.91-6.92,15-4,23.06C50.25,57.5,58.16,64.49,67.48,67.9c18.15,6.65,41.5,5.51,58.78-3.25,7.47-3.78,14.61-10.17,16.31-18.74,1.73-8.73-2-18.47-7.83-24.93a20.28,20.28,0,0,0-8.51-5.9c-4.12-1.33-7.12-.62-10,2.51-4.81,5.15-5.29,13-3.93,19.54A38.11,38.11,0,0,0,125.36,59c7.48,6,17.76,7.27,27,5.94a82.65,82.65,0,0,0,27.55-9.1c6.84-3.78,13-9.75,13.58-17.94.61-8.57-3.94-18.32-11-23.25-6-4.23-14.11-2.71-17.3,4.18C158,34.11,170.6,52.4,182.26,61.44A52.57,52.57,0,0,0,226.17,71c16.84-4.09,32.64-19.8,23.06-37.8-3.55-6.66-10.07-11.55-17.8-11.52-6.94,0-13.42,3.73-16.17,10.18-7.63,17.91,8.17,38.83,25,44,15,4.6,40,4.45,50.32-9.69,4.6-6.3,4.86-15.27,2.31-22.41C291,38.46,283.3,25.18,276,29.24c-7,3.86-6.6,13.93-4.23,20.35,3.45,9.35,11.56,15.27,21.08,17.24C303.06,69,313.9,68.17,324,65.68c8.53-2.09,19.14-5.5,23.69-13.73C352.11,44,349,33.33,343,27c-2.82-3-6.5-5.23-10.63-3.82a12.16,12.16,0,0,0-6.88,7c-3.73,8.7-.15,18.61,5.81,25.38,6.12,7,14.8,10.16,23.63,12.07a84.09,84.09,0,0,0,31.5.89c9.11-1.5,19.47-3.9,26.51-10.24,14-12.61-1.1-37.95-18.79-34.08-8.53,1.87-14.09,9.6-17.44,17.13C374.67,46,378.4,53.23,383,55.18a77.84,77.84,0,0,0,38.48,5.93c12-1.25,26.38-5,35.42-13.42,4.73-4.39,5.78-10.31,3.76-16.36-1.46-4.37-7-14-13.12-12.29-4.51,1.28-6.06,9.05-6.18,13a33,33,0,0,0,4.86,17.31c6.86,11.7,18.76,16.43,31.69,18,11.13,1.39,25,3.18,35.18-2.78,9.25-5.43,10.57-15.88,7.2-25.37-2.86-8.07-12-19.34-21.58-13.45s-6.26,21.1-1,28.68c7.7,11.13,20.87,13.07,33.43,13.53,19.26.71,61.54.68,55.09-29.54-1.94-9.12-10.67-21.84-21.61-17.74-8.79,3.29-10.3,15.36-8.4,23.22,3,12.59,13.9,20.49,26,23.17,13.33,3,27.74,3.49,41.34,4.25,12.21.67,26.37-1.28,33.38-12.65,6.85-11.1,1.37-26.3-9-33.26-10.11-6.79-20.67,0-21.74,11.32C625,49.65,633.7,61.2,644.69,67c11.92,6.29,27,8.24,40.27,8,11.73-.22,25.92-1.74,35-10,9.27-8.52,7.54-21.47.52-31-5.67-7.65-18.4-13.08-23.55-1.7C692.06,43,698.81,56.74,707.79,63c9.45,6.54,22.74,7.32,33.92,7.47,9.9.13,20.77-1,29.52-6C780.69,58.94,787.62,48,783.49,37c-3.39-9-15.16-17.22-24.3-10.32C749,34.43,754.68,51,761.25,59.09c8.35,10.25,22,13.18,34.61,14,11.33.75,24.54-1.21,32-10.66,6.77-8.55,7-20.9,1.94-30.31-2.8-5.26-7.44-10.23-13.33-11.87-5.14-1.44-10.25.54-12.4,5.49-4.41,10.12,2.1,23.13,9.4,30.12A41.59,41.59,0,0,0,842.87,67.5c10.59-.21,21.88-4.8,27.89-13.88,7-10.59,2.33-26.8-9.51-31.9-4.79-2.06-10.27-.91-12.85,3.88-2.75,5.11-1.46,11.71.9,16.71,6.21,13.13,20.35,16.1,33.38,18.52a149.1,149.1,0,0,0,44,1.44c6.38-.72-.07-15.78-5.53-15.17a144,144,0,0,1-54.36-3.82c-2.84-.78-5.91-1.57-8.43-3.16-3-1.91-.24-.31-.87,0,.21-.1,1.15-2.77,1.54-3.13a4.4,4.4,0,0,1,3.33-1.15c.49,0,1.39.55,1.85.51,1.84-.15.06.75.29.07L864,35.35c-.46-1.46-.65-1.43-.56.08-.37.67-.5,2-.78,2.68a18.8,18.8,0,0,1-3.09,4.66c-8.45,9.8-23.87,11.82-35.48,7.27-3.55-1.39-9.2-4.45-10.29-7.57-1.62-4.67,4.11-10.9,8.49-6.38.28.29.17-.06.08-.2a5.36,5.36,0,0,1,.28,2.43,17.33,17.33,0,0,1-2.11,7.8c-3.28,6.13-9.54,9.63-16.2,11.09-7.32,1.6-15.19.94-22.52-.27-4.77-.78-15-2.46-17.13-7.67-2-4.86,2.76-9.59,7.33-9.82a28.57,28.57,0,0,1,3.41.47c-1.15-.07,1.2.32,1.08.53.06-.1-2.07-3.56-2.5-3.54.36,0-4.16,7.63-4.73,8.25-8.18,9-22.36,10.3-33.75,10.09-6.8-.13-14-.59-20.56-2.31-4.19-1.09-9.74-2.14-8.76-6.88.65-3.12,7-8.5,9.47-4,2,3.67-4.81,9.56-7.49,11.24-13,8.15-31.8,7.6-46.31,5.26-7.4-1.19-16.09-3-22.27-7.56a12,12,0,0,1-2.91-2.81c.83,1.19.07.42,0-.66a10.27,10.27,0,0,1,2.59-7.48,7.47,7.47,0,0,1,7.5-2.07,5.88,5.88,0,0,1,2.8,1.77c-1-1.17-.25.1-.43,1.38-1,6.65-7.77,11.39-13.63,13.44-8.25,2.87-17.54,1.65-26.05.91-8.73-.75-17.54-1.23-26.22-2.4-6.56-.88-12.85-2.45-17.72-7.07,1.06,1,.37,2.28.49.41a26.12,26.12,0,0,1,.14-2.93,11.56,11.56,0,0,1,3.08-6.29,6.69,6.69,0,0,1,5.34-2.07c1.93.19,1.65.81,1.36-.16,1.6,5.48-4.58,10.66-8.66,12.76-7,3.64-15.28,4.23-23,4.76a158,158,0,0,1-26.64-.19,36.56,36.56,0,0,1-10.07-2.24c-1.22-.49-3.2-1.2-4-2.26-.47-.61,0,.38-.2-.08-1.39-3.88,3.13-9.09,7.09-8.39,2.28.41.6,1.19.59-.43,0,2,.43,3.57-.41,5.57-2.56,6.12-10.86,8.22-16.76,8.71-7.12.59-14.48-.12-21.55-1-5.93-.74-15.52-2.08-19.22-7.52-2.61-3.84-.51-8.7,2.42-11.63l-2,1q-2-7.12-2.83-3.66a8,8,0,0,1-1.05,1.7,14.34,14.34,0,0,1-3.66,3.37,55,55,0,0,1-7.63,4.21,69.39,69.39,0,0,1-19.55,5.87,72.31,72.31,0,0,1-38.89-5l6.21,13.86c2.73-6.12,6.74-12.75,13.49-14.94a11.5,11.5,0,0,1,8.24.48c.1,0,1.45,1,1.51,1l-.2-.2A4.14,4.14,0,0,1,408,37.89c-.19.12-.89,3.16-1.3,3.8-3.9,6-12.42,8.45-18.89,10.18a79.77,79.77,0,0,1-25.61,2.4c-7.71-.49-16-1.81-23-5.33a17.49,17.49,0,0,1-3.4-2.1,7.28,7.28,0,0,1-1.35-1.31c-.49-.68.24.78.21.51a8.42,8.42,0,0,1,2-5.88,10.91,10.91,0,0,1,2.54-2c-.57.4,1.65-.66,1.53-.33s-2-2.67-1.77-2.69c.35,0-.38,2.94-.44,3.09a13.29,13.29,0,0,1-3.29,4.43c-5.68,5.16-14.67,7.6-22,8.94-8.65,1.58-18.79,2.28-27.31-.38a40.13,40.13,0,0,1-5.06-2.34s-1.13-.85-1.05-.93c.9,1.81,1.23,2.38,1,1.71a.93.93,0,0,1,0-.33c.17-.11.49-2.72.71-3.16a6,6,0,0,1,3.54-2.92l-2.39,0c-.14-.06,2.73,1.34,1,0-.84-.63.06-1.3,0,.3,0-.17.16,2.9.09,1.31A13.11,13.11,0,0,1,281.12,53c-4.57,6.27-13.1,8.66-20.42,9.5-8.39,1-17.55,1-25.54-2-5.91-2.21-11.75-6.21-10.9-13.25.75-6.22,6.18-10.21,12.21-10.39.48,0,6.15.84,5.91,1.13.33-.39-5.16-2.14-.81-1.62,0,0,0,1.11,0,1.16-.85,2.18-1.26,4.15-2.63,6.16-8,11.73-24.4,15.06-37.6,12.95-9.57-1.53-25.42-8.16-27.1-19.1a10.66,10.66,0,0,1,1.28-7.34c1.23-1.85,4.64-4.1,6.91-2.63.71.46.66.46.35,2.2-.61,3.47-3.6,6.57-6.29,8.62-6.35,4.83-14.68,7.64-22.28,9.77-8.42,2.35-19,3.69-27-.82-3.7-2.08-5.31-5.58-4.85-9.84.41-3.73,5.12-11.6,9.3-6.51,3.64,4.44-3.91,12.89-7.41,15.49-8,5.95-18.36,8.7-28.13,9.78-10.4,1.16-21.69.63-31.59-3-2.59-1-7-2.48-8.46-5.06s.56-6.84,2.57-8.59l-8.47-7.4c1.73,5.38-6.63,11.94-11,13.7-7.89,3.17-17.07,1.59-25.21.38-3.64-.54-2.42,5.86-1.82,7.52,1.17,3.23,3.68,7.11,7.35,7.65Z"/></svg>