<svg id="Capa_1" data-name="Capa 1" xmlns="http://www.w3.org/2000/svg" viewBox="0 0 181.76 135.26"><defs><style>.cls-1{fill:#a1b258;}</style></defs><path class="cls-1" d="M170.48,133.68c-.32.08-.13.29.71.2a4,4,0,0,0,.55-.39A10.64,10.64,0,0,1,170.48,133.68Z"/><path class="cls-1" d="M176,132.6c.78-.72,1.37-1.73.7-1.52a3.3,3.3,0,0,1-.67.89c-.21.24-.45.45-.82.89a3.83,3.83,0,0,1-1,.42c-.25.05-.39,0-.35-.06-.25.21-1.25.35-1.66.62a5.4,5.4,0,0,0,3.69-1.46C176.26,132.25,176.07,132.51,176,132.6Z"/><path class="cls-1" d="M181,48l0,.55C181,48.44,181,48.25,181,48Z"/><path class="cls-1" d="M169.49.76c.41,0,.58,0,.6-.07C169.71.71,169.4.73,169.49.76Z"/><path class="cls-1" d="M160.38.4l.54,0A1.7,1.7,0,0,0,160.38.4Z"/><path class="cls-1" d="M181,48l.1-1.43C181,46.51,181,47.34,181,48Z"/><path class="cls-1" d="M179.67,122.27a7.34,7.34,0,0,0,.09.78l0-.73A.13.13,0,0,1,179.67,122.27Z"/><path class="cls-1" d="M181.26,71.56V72a1.91,1.91,0,0,0,.13.36Z"/><path class="cls-1" d="M181.31,89.61c0-.41-.27-.55-.39-.71a2.4,2.4,0,0,1,.19.89S181.23,89.74,181.31,89.61Z"/><path class="cls-1" d="M180.81,118.23l0,.51Z"/><path class="cls-1" d="M181.32,58.64a.37.37,0,0,0,.1-.16S181.35,58.54,181.32,58.64Z"/><path class="cls-1" d="M149.56,133s0,0,0,0S149.7,133,149.56,133Z"/><path class="cls-1" d="M170.48,134.42h-.29a.35.35,0,0,0-.06.16Z"/><path class="cls-1" d="M143.71,0h.07C144.22,0,144,0,143.71,0Z"/><path class="cls-1" d="M.07,16.28c.25-1.73.32,2.82.6.21C.56,16.74.23,14.12.07,16.28Z"/><path class="cls-1" d="M179.71,121.81v-.74C179.7,121.4,179.7,121.63,179.71,121.81Z"/><path class="cls-1" d="M.67,16.49h0l0-.27Z"/><path class="cls-1" d="M105.3.21a1.65,1.65,0,0,0,.39.12S105.59.27,105.3.21Z"/><path class="cls-1" d="M133.91.61l-.7,0Z"/><path class="cls-1" d="M90.44.6a5.68,5.68,0,0,0-1,0l.16,0A3.4,3.4,0,0,1,90.44.6Z"/><path class="cls-1" d="M75,.6l.28.06h.49Z"/><path class="cls-1" d="M102.56,133.16a2.67,2.67,0,0,1,.71.25C103,133.21,105.31,133.14,102.56,133.16Z"/><path class="cls-1" d="M179.83,122.27a.91.91,0,0,1-.12-.46c0,.17,0,.34,0,.51S179.81,122.37,179.83,122.27Z"/><path class="cls-1" d="M89.81,2.82l-2.45,0C88,2.81,88.94,2.82,89.81,2.82Z"/><path class="cls-1" d="M2.38,120.41l0,.57A2.48,2.48,0,0,0,2.38,120.41Z"/><path class="cls-1" d="M80.07,2.82a8.79,8.79,0,0,0-1.39-.19,1.42,1.42,0,0,0-.28.07Z"/><path class="cls-1" d="M103.28,133.41h0Z"/><path class="cls-1" d="M119.46,132.75c-2.34,0-1.1.36-1.59.57-2.8.1-1.3-.27-2.25-.46-1.74.1-3.08.44-4.38.42-.1-.06-.35-.08-.06-.16-1.84.3-5.47,0-7.62.39a.88.88,0,0,1-.28-.1c.35.19.4.38.33.51-1,0-2,.23-2.34,0a2.4,2.4,0,0,0,1-.16l-1.1.1c-1-.35,1.51-.12,1.51-.38-2.15.12-4.65.4-6.29.31-.34-.34,3.84-.12,1.65-.42l2.54.13c-1.94-.54,1.55,0-.24-.54-3.34-.09-3.74.18-7.08.08-.75.19.25.28-.5.47-4.75.34-3.74-.86-7.22-.41a6.9,6.9,0,0,1-3.74.43l.85-.38c-3.24,0-1.85.55-5.25.29.61-.15,2.55-.12,2.06-.17-2.2-.3-1.55.22-3.24.22l-.35-.34c-3.45.05-7.25.3-11.07.36.21-.1.86-.21,0-.31-4.82.17-10.28,0-14.93-.25l-1.77.3c-.42,0-.77-.13-.32-.19-1.81-.11-.1.18-1,.3-1,0-1.36-.17-.71-.26a92.16,92.16,0,0,1-12.47.23l.66-.09c-2.62-.12-3,.6-5.39.33l.47-.06c-5.69-.12-12,.15-16.33-.3a7.61,7.61,0,0,1-3,0c-1.2-.2-2.27-.65-2.54-.47A7.67,7.67,0,0,1,5.37,131c-.22-.25-.46-.53-.78-1a9.53,9.53,0,0,1-1.11-1.93c-.42-1-1-1.33-1.26-2.69l.3-.08a11.5,11.5,0,0,1-.4-1.9l.37-1.09L2.41,121c0,.56-.14,1.2-.23,1.11a20.33,20.33,0,0,1,.38-5.45L2.3,111.4a7.54,7.54,0,0,1,.24,1.69c-.31-2.8.33-.51,0-3.07-.07.34-.19-.19-.25-.25a46.39,46.39,0,0,0,.11-6.33l.21.41c.06-3.88-.1-8.19-.09-12.55-.1,1.57-.47,1.21-.51-.07l.33-.51c-.2-.83-.12,1.33-.37-.36,0-1.63.37-1.1.48-.16l-.12-2c.1-.12.15.35.27.47-.2-.82.33-3.42,0-4.59l.1-.11c0-4.36-.11-6.34-.13-9.89-.28-.07-.22-1.46-.44-2.52.09-2.6.31-5.5.28-8.64-.14-2.21-.24-.65-.4-1.64.25-.16.23-3.3.41-1.68,0-3.77,0-4.82-.26-9.59-.1.52-.15,1.1-.23.8-.05-.86.1-2,.23-1.84l0,.22c-.38-5.35.75-12.36.22-16.62l0,.24L2.16,28.4c0-2,.2,1.22.36-.28-.43-4.77.06-7.54-.23-11.47a15.52,15.52,0,0,0,.32-3c0-.61,0-1.26,0-1.94a12.19,12.19,0,0,1,.13-1.82A8.12,8.12,0,0,1,4.1,6.5,6.48,6.48,0,0,1,6.42,4.42l-.27,0c.66-.68,1-.53,1.61-.78-.14-.08-1,.29-.5,0a7.76,7.76,0,0,1,2.83-.94,6.31,6.31,0,0,1,.76-.07c.25,0,.5,0,.8,0h1.72c2.31,0,4.63.06,7,.11l14,.36c3.37,0,1.91-.93,6.16-.5l-1.21.33c6.8-.4,13.91,0,20.57-.32a3.46,3.46,0,0,1-1.06.17A18.42,18.42,0,0,0,64,2.53c1,0,.24.17.88.27,1.41.15,3.54-.3,4.29-.06.13,0-.4.07-.65.09.92-.11,4.28,0,3.4-.24,2.5.13,4.78-.13,6.77,0,1.3-.31,4.28.15,4.69-.29-.18.45,4.38.36,6,.15-.53.14,1.38.14.76.33,1.8,0,3.45-.09,3.14-.32,3.32.54,6.68-.44,8.55.26,5.35-.25,10.31-.41,15.13-.52-.18.45-5.33,0-5.12.52,4.57-.18,7.21-.57,11.74-.46,1.17.06-.67.19-1.06.27,4.56-.19,8.82,0,12.89-.21a3.24,3.24,0,0,1-.87.13c.81,0,1.87.06,1.78-.14l-.78,0c-1.28-.29,3.18-.62,3.32-.77-1.36.58,4,.14,1.85.89.53,0,1.19-.14,1.07-.28.78,0,1,.12.24.28,2.87-.11,1.85-.33,4.45-.33,0,.1-.54.14-.81.26a23,23,0,0,1,4.84-.31c-.14.06.12.14-.54.14,3.78,0,6.43-.51,10.57-.33-1.22.43,1.41.14,1.63.52l2.22-.11-.89-.18c1.95,0,3.67-.27,5.35-.15l-1.45.16c1.2,0,2.47-.08,3.61,0-.61-.1-1.35-.11-2-.17,2-.17-.19-.51,2.37-.32-.26,0,.22,0,.87.15a5.93,5.93,0,0,1,1.87.71h0a6,6,0,0,1,2.86,1.57c.19.33-.48.12-.36.34a5.43,5.43,0,0,1,1.87,1.81c.66.9,1.06,2,1.39,2.48-.18-.35-.39-.3-.38-.17a7.57,7.57,0,0,1,.44.66c.12.86,0,1-.11.88.13,1.25.17,1.06.28.9s.21-.27.1,1.35a4.78,4.78,0,0,1-.09-.66c-.11,3.24.16,6.25,0,9.23-.37.88-.09-2.6-.41-1.59.07,4.28.45,8.88.36,13l.05-.78c.53.58-.27,3.09,0,5.19,0-.51-.29-.67-.23-.53-.09,2.84.13,5.81.3,10.12L180,45.8c-.12,1.68-.07,4.41-.13,6.22.13.54.11,1.57.31.95-.78,5.57.42,10.64-.23,15.59,0-.59-.12-1.41-.12-.94l.13,4.21c.23-.33.13-.55.31-1.43a13.59,13.59,0,0,1,.25,2.76c-.15-1.89-.37,0-.5.84.07-.14.15.14.22.07-.41,2.21.46.37.19,3.38l-.12-.16c.06,1.13.22,2.16.18,3.38-.26.5-.12-1.2-.34-1.28,0,1.71.51,3.36.24,4.91-.08-.73-.08-1.77-.15-2.49a14.07,14.07,0,0,0-.28,3.12v-.12l-.14,2.89.09-.74c.69,2.13.12,4.34.58,7.22-.43-2.8-.25-.46-.55-.68-.09.74-.18,1.85-.27,1.53.25,1.36-.19,2.27.17,4.19-.1.08,0,1.45-.26,1.14.08,1.77.17-.41.3-.27.33,2.73-.41,6.4,0,10.32.19,3.37.52,4,.68,7.13-.16,1.06-.36-.86-.36-.86a28.13,28.13,0,0,0,0,4.59c-.09-.32-.16,0-.27.5,0,1.29.36.87.21,2.56a6.46,6.46,0,0,1-.39-1.28l.08,1.14,0,1.07a8.77,8.77,0,0,1-.31,2.19c-.15.16-.12-.08-.07-.41a8.56,8.56,0,0,0,.08-1.05,10.69,10.69,0,0,1-.78,2.69c-.39.85-.82,1.52-.88,1.82.25-.27.5-.54.73-.83-.36.52-.35.14-.16-.27.57-1.31,1-1.82,1.12-1.87a6.33,6.33,0,0,1-.37,1,3.94,3.94,0,0,0,1-2.71c.11-1.24-.13-2.64-.09-3.77l.41.94-.34-2.31c.11-.5.34-.83.4.28.21-1.62-.15-1.43.08-2.82,0-.15.06-.08.07.06l-.12-1.58c.09.31.29-.27.23.71.24-2.84-.31-4.58,0-5.65l0,.24c-.14-3.94-.3-.38-.66-3.33l.75-2-.3-.39c0-.4,0-1.21.15-1.06-.21-1.51-.13.26-.33-.62.28-2-.13-5.38.36-5.82-.23-.71-.18,1.86-.34-.22.52-.6-.09-2.41.15-4.2.27.55.13,2.24.37.45-.46-1.07.1-3.47,0-5-.36-.07-.15-3.27-.27-5.8.12.16.2-4.76.33-7.11l.06.07c-.37-.45-.3-2.88-.38-4.64.22.07.31.39.41,1.34V72a8.05,8.05,0,0,1-.22-2l.27.41c0-2.21-.32-4.45-.14-7.29-.26-.16-.71,2.26-.88-.74.13-.11.37-.23.43.56a7.51,7.51,0,0,1-.06-1.44l.24,1.2c.1-1.29-.2-.67-.18-1.71.2,0,.14-.76.3-.62a9.36,9.36,0,0,0,0,1.3,16.2,16.2,0,0,1,.3-3c-.11.1-.27,0-.29-.85,0-2.21.23-.76.34-2-.14-.53,0-1.94-.29-2a2.14,2.14,0,0,1,.21-1c-.13-1.14,0-5.34-.35-4.05l0,.29V48.8h0c-.29-3.75.17-7.79,0-11.51h.1c-.11-2.22-.07-4.94-.28-6.52,0-.66.18-1.55.3-1.27a24.41,24.41,0,0,1,0-4.34c.17,1.71.15-.59.12,1.75a23.9,23.9,0,0,0,0-5.07c.25.8.31-1.66.24-2.71l-.18,1.54c0-1.17,0-2.21,0-3.25l.34.56a36.77,36.77,0,0,0-.11-6.18,21.38,21.38,0,0,0-1.26-5.67c-.45-.5-.11.09.13.73s.4,1.31.09.81a12.67,12.67,0,0,0-2.57-4.59A6.09,6.09,0,0,0,176.36,2a4.48,4.48,0,0,0-1.15-.44c-.72-.21-1.46-.38-3-.73.2.09.37.23.2.31a7,7,0,0,1-1.79.09c-2.08-.05-2.55-.5-1.24-.6.5,0,.74,0,.72.07.65,0,1.65,0,.76-.2l-.3.1c-1-.13-3.89-.11-3.22-.31-1.57.12-.67.2.49.26-2.66-.17-4.16,0-6.9-.12.43.07.84.2.4.2-4-.14-1.77.23-4.49.28-1.55-.18.55-.43-2.19-.28C153,.5,154.28.31,155,.21a40.31,40.31,0,0,1-6.1-.19l1.32-.1c-.79.06-1.43.06-2.09.06l.75.23c-.77,0-1.43,0-1.41-.14-.8.16.61.4-1,.61-1-.12-3.14.13-3.5-.19,3.25.11-.35-.31,2.39-.36a18.29,18.29,0,0,1-2,0c-.12,0,.11-.06.32-.08-3.1-.28-1.42.35-4.64.35.41-.18-.74-.34-1.27-.3,1.3,0,.62.29-.57.43a22.38,22.38,0,0,0-3.32.09l1.24.06a12.86,12.86,0,0,1-2.89.21c-.12-.14,1.31-.09.79-.15-1.59.31-3.6-.33-5.82-.12-1-.12-.1-.33-1-.41-2.49.23-2.7-.25-5.32-.06.76.24.89.18-1,.42l4.3-.17-2.76.35c1.3,0,2.74-.15,3.52-.11-1.32.19-1.18.13-.56.33-1.78-.36-3.53.21-5.58,0l.06-.59c-3.09-.27-5.49.3-9.5.15l1.29.1c-.54.24-2.48,0-3.78.13.12-.2-.69-.27-1.25-.39.07.15-2.94,0-3.3.38L100.6.45C97.36.34,96.9,1,93.78,1c.94-.22-.47-.36,1.61-.51a6,6,0,0,0-2,.1c-.61-.13-2.88.26-3.84.07a4.31,4.31,0,0,1-1.75.28c-.13,0,0-.1,0-.1S86,.93,87,1.15c-3.21-.62-9,0-11.75-.49-2.27.07-5,.13-7.06.15.13-.06,0-.1.39-.08-2.84-.19-1.74.56-5,.36C62,.77,65.33.92,64.3.8c-.45-.65-3.9.08-6.08-.29l.53,0C57.08.25,54.69.71,52,.67c0,0,.13-.06,0-.1a73.46,73.46,0,0,1-8,.53c.81-.25,1.19-.13.69-.39-1.17,0,.34.41-2,.49C41.92,1.06,40.24.94,40,.66l2.21,0c-1.13-.35-2.86,0-4-.05l.15-.15c-3.38,0-3.43.44-7.07.41l.38.12C29.67,1.36,30,.75,28,1l-.6-.39c-1.31.09-4.59.38-6.94.45C21.8.81,24.55.66,26.25.49a37.92,37.92,0,0,0-5.09.22,9.68,9.68,0,0,1,1.7-.07,33.44,33.44,0,0,1-6.28.45c.23-.38-1.46-.43-3.44-.45-1,0-2-.05-3.07,0S8.19.88,7.66.92A12.38,12.38,0,0,0,1.83,5.66,11.12,11.12,0,0,0,.29,9.37c-.06.34-.13.68-.17,1L.06,11.47v2c.59-1.89,0,1.56.62,1.23a10.2,10.2,0,0,1,0,1.83L.31,20.26c-.18.89-.14-1.19-.27-1.07,0,2.72-.26,1.14-.43,2.94.22-.37.32.95.23,2.5l.29-2.19c.32,3.81-.52,3.29-.19,7.13l-.2-1.22c.12,2,0,7.26.49,9.19-.07.35-.24.81-.28-.06C-.13,42.18.47,48,.17,51.6L0,51.24a11.52,11.52,0,0,1,.13,2.63c-.06-.06-.15-.35-.16.05a24.12,24.12,0,0,1,.18,3.49l-.17-1c-.2,4.59.41,7,.51,10.89-.44,0-.58,3.59-.65,5.4l-.07-.07c-.05,5.34.37,9.07.54,14C-.15,89.73.13,97.06-.14,102c.08-.75.35.12.39,1-.09,1.16.31,3.2-.1,3v-.41c-.4.87-.29,3.25-.3,5.11l.53.3a50.11,50.11,0,0,0-.24,8.52c0,1.46.09,2.84.08,4,0,.62,0,1.2,0,1.7s0,1,0,1.38a10.94,10.94,0,0,0,1.86,3.76l-.27.1a10.86,10.86,0,0,0,8.26,5.09l-.95.06a4.89,4.89,0,0,0,1.64.06,4.84,4.84,0,0,0,1.17-.26,8,8,0,0,1,2.41-.43l.63.43c3.95,0,8,.36,11.85,0-.06.06-.18.18-.82.2,1.86,0,7.2.29,6.52-.29,0,.37,4.08,0,6.21-.13l-.33.27a19,19,0,0,1,4.38-.55c.59,0,.52.23-.27.15,2,.15,1.55-.26,3.95-.11l-.89.18a9.51,9.51,0,0,0,3-.28,12.88,12.88,0,0,1,4.18.32,6.52,6.52,0,0,1,2.6-.29c.17.1-.27.16-.49.18,3.41.19,5.08-.32,7.43-.05.05.1.2.14.4.17-2.72,0-4.91,0-4.7,0,0,.26,2.19.3.45.66a46.16,46.16,0,0,1,6.91-.5,1.84,1.84,0,0,1,.28.09l-.22,0a9.8,9.8,0,0,0,1.35,0c.68,0,1.11.07,1.77.07a17.58,17.58,0,0,0,3.61.13c-.09-.28,1.34-.24,0-.47.17,0-.21,0-.94.05-.16,0-.35,0-.46,0l.07,0-2.72,0a9.79,9.79,0,0,1,3-.11c.56-.18,1.18-.36,1.53-.45,1.49.39,4.38.6,4.78.85,3.34-.16,7.87-.11,10-.64a2.69,2.69,0,0,1,1.44.24,14.44,14.44,0,0,0-1.49.12c1.89-.14,5.62-.05,6.07-.42,2.4.16-1.34.34,2,.28l-.45.11c6.47.59,10.52-.94,17.69-.19a2.44,2.44,0,0,1-.85-.13c8.18.34,16.85-.31,24.91.22a14.23,14.23,0,0,0,4-.31l.49.3,2.39-.34c3.4-.26,5.88.74,10.18.25l-.56-.2c1.54,0,4.89-.12,4.63.12a2,2,0,0,1,1.11-.11l.05.16,3.79-.27c2.93.11-.46.62,3.82.66,1.6-.07,4.54-.47,3.94-.57s-1.64-.1-1.69-.26l1.46-.08c.26-.47,1.38-.94-2.19-1.27l-2.5.29-.8-.23h2.1a7.18,7.18,0,0,0-2.79.1,2.75,2.75,0,0,0-1-.25l-2.44.45c-.3-.18,1.09-.36-.55-.46-1.15.2,1.1.4-.8.54-1.19-.21-.84-.38-2.24-.2-.2-.12.1-.2.65-.25a33,33,0,0,0-3.94.31c-1.24-.27-4.21.06-4.08-.38a21.33,21.33,0,0,1-3.34.37c2.09-.53-4.29,0-3.73-.6-1.55.48-5.59.21-8.33.47a2.63,2.63,0,0,1,.69-.09,26.8,26.8,0,0,1-3-.27c-.2.39-2.6.48-3.9.73-1.89-.38,1.15-.46.56-.83.09.32-3.29.32-2.64.58a5.63,5.63,0,0,1-2-.43c-.25.49-1.34.08-2.54.38-2.09-.24-.54-.46-2.84-.31C117.42,132.92,119.46,132.75,119.46,132.75Zm-54.68.84h0l1.13,0Zm-4.59,0h2c.16.1,0,.2-.48.19C62,133.74,60.87,133.68,60.19,133.6Zm9.72,2a2.16,2.16,0,0,1-1.07-.08l1.27,0,.08,0A.66.66,0,0,1,69.91,135.55Z"/><path class="cls-1" d="M71.21,135.18l.3,0-.43-.07-.26.09Z"/><path class="cls-1" d="M180.94,48.69v-.1a1,1,0,0,1,0,.21A.53.53,0,0,1,180.94,48.69Z"/><polygon class="cls-1" points="2.59 125.37 2.52 125.38 2.63 125.72 2.59 125.37"/><path class="cls-1" d="M180,74a.9.9,0,0,0-.07.33A2.43,2.43,0,0,0,180,74Z"/><path class="cls-1" d="M179.92,84.93l-.11,1.55C179.87,85.81,179.9,85.32,179.92,84.93Z"/><path class="cls-1" d="M179.78,93.34a.38.38,0,0,0,.12.16h0Z"/><path class="cls-1" d="M134.49,2.49h-.32C133.41,2.55,133.93,2.53,134.49,2.49Z"/><path class="cls-1" d="M174,2.51a11.58,11.58,0,0,0-1.2-.24C173.47,2.43,173.93,2.67,174,2.51Z"/><path class="cls-1" d="M90.08,2.83h0Z"/><path class="cls-1" d="M171.1,2c.33,0,.63.1.92.14s.55.09.8.14a4.4,4.4,0,0,0-.85-.2A3.25,3.25,0,0,0,171.1,2Z"/><path class="cls-1" d="M178.31,129l-.2.31s0,0,0,.06Z"/><path class="cls-1" d="M178.13,129.41l-.22.36A1.47,1.47,0,0,0,178.13,129.41Z"/><path class="cls-1" d="M177.41,130.49a6.65,6.65,0,0,0,.5-.72A5,5,0,0,0,177.41,130.49Z"/><path class="cls-1" d="M179.78,118.64l-.1-.13C179.7,118.58,179.73,118.63,179.78,118.64Z"/><path class="cls-1" d="M179.75,115.26c0,.81-.22,2-.16,3.15l.09.1C179.52,118,179.92,116,179.75,115.26Z"/><path class="cls-1" d="M181,101.15l-.08,2.83c.11-.5.25-1.15.28.14C181.53,100.55,181,104.86,181,101.15Z"/><path class="cls-1" d="M181.17,92.36c.05,1.52.15,0,.22.06C181.29,91.46,181.26,91.22,181.17,92.36Z"/><path class="cls-1" d="M181.17,28.87l.25.15C181.39,27.85,181.32,29,181.17,28.87Z"/><polygon class="cls-1" points="179.84 16.73 179.69 17.87 179.92 18.42 179.84 16.73"/><path class="cls-1" d="M181.46,9.36l.13.56a10.65,10.65,0,0,0-.6-2.09A10,10,0,0,1,181.46,9.36Z"/><path class="cls-1" d="M77.73.36l.35.31C78.88.61,79,.26,77.73.36Z"/><path class="cls-1" d="M31.7.68A7,7,0,0,0,29.1.57C30.14.59,31.17.72,31.7.68Z"/></svg>