<svg id="Capa_1" data-name="Capa 1" xmlns="http://www.w3.org/2000/svg" viewBox="0 0 55.27 29.49"><defs><style>.cls-1{fill:#cd576a;}.cls-2{fill:#fff;}</style></defs><path class="cls-1" d="M32.71,24.54s1.88-6.46,4.2-6.46,4.21,6.46,4.21,6.46Z"/><path class="cls-1" d="M32.71,24.46s0,0,0,0l0,0Z"/><path class="cls-1" d="M33,24.54s.09-.06.06-.1,0,0-.1.07-.06,0,0,0-.06,0-.08,0a.15.15,0,0,0,.17,0S33,24.53,33,24.54Z"/><path class="cls-1" d="M36.42,24.6h0Z"/><path class="cls-1" d="M38.57,24.63h0Z"/><path class="cls-1" d="M38.94,24.67h0Z"/><path class="cls-1" d="M36.42,24.6l.06,0S36.45,24.61,36.42,24.6Z"/><polygon class="cls-1" points="33.42 24.44 33.39 24.45 33.42 24.44 33.42 24.44"/><polygon class="cls-1" points="35.47 24.64 35.45 24.64 35.44 24.65 35.47 24.64"/><path class="cls-1" d="M34.74,24.64s0,0,0-.05,0,0,0,0A0,0,0,0,1,34.74,24.64Z"/><path class="cls-1" d="M33.59,24.58h0Z"/><path class="cls-1" d="M36,24.64v0Z"/><path class="cls-1" d="M33.12,23.8h0Z"/><polygon class="cls-1" points="32.7 24.54 32.7 24.53 32.68 24.52 32.7 24.54"/><path class="cls-1" d="M39.61,24.72Z"/><path class="cls-1" d="M39.46,20.17c0,.08-.1-.08-.07,0S39.48,20.26,39.46,20.17Z"/><path class="cls-1" d="M33.44,24.44h0Z"/><polygon class="cls-1" points="39.39 20.2 39.38 20.2 39.39 20.21 39.39 20.2"/><path class="cls-1" d="M41.3,24.63s0,0,0,0A0,0,0,0,0,41.3,24.63Z"/><path class="cls-1" d="M40,24.65h0Z"/><path class="cls-1" d="M41,23.9a.08.08,0,0,0,0,0h0A0,0,0,0,1,41,23.9Z"/><path class="cls-1" d="M40.81,23.31h0v0Z"/><path class="cls-1" d="M33.78,22h0S33.74,22.13,33.78,22Z"/><path class="cls-1" d="M33.42,24.46s0,0,0,0h0Z"/><path class="cls-1" d="M40.75,24l0-.1Z"/><path class="cls-1" d="M36.21,18.45l0,0Z"/><path class="cls-1" d="M40.62,23.6s0,0,0-.06h0Z"/><path class="cls-1" d="M33.74,22Z"/><path class="cls-1" d="M33.57,22.68c0-.09,0-.06,0-.09s0,0,.09-.06,0-.14,0-.18,0,0,0,0,.09-.2.08-.3h0a.06.06,0,0,1-.06,0s0-.08,0-.08,0,0,0,0v0c.06,0,0,.07,0,.08a.82.82,0,0,1,.07-.25s-.05.15,0,.08l-.06.09c.1,0,0,.06.07,0s0-.15.11-.26,0,0-.05-.05.16-.09.17-.24-.06-.08,0-.16l0,.06c.06-.12,0-.1.06-.21s0,.1,0,.08,0-.06,0-.12h0c.06-.12.09-.28.16-.41s0,0,0,0a2.43,2.43,0,0,1,.32-.51v-.08s0,0,0,0,0,0,0-.06,0,0,0,0a.94.94,0,0,1,.25-.43v0c.08-.07,0-.13.1-.19v0a1.67,1.67,0,0,1,.44-.47c0-.06.17-.14.12-.21a1.65,1.65,0,0,0,.26-.11s0-.08.07-.12l0,0,0-.09.06,0,0,0h0c.06-.05.19-.07.2-.05l.16-.12s0,0,0,.06,0,0,.1,0,0,0,0,0a.48.48,0,0,0,.23,0v0a1.25,1.25,0,0,1,.43,0c-.05,0,0-.06,0-.06v.05s-.05,0,0-.05,0,.05,0,.06h.08s0,0,0,0,.1.1.15.08h0a1.2,1.2,0,0,1,.32.17s.06,0,.11,0l.23.25c.07,0,0,0,.08,0s.07.11,0,.08a2.49,2.49,0,0,0,.28.26s0-.05,0-.05,0,.07,0,.08h0c.17.15.23.44.37.55h0l.12.13c0,.07,0,0,0,0s.16.25.27.37.21.37.23.55l0,0s0,.05,0,.08,0-.05,0,0a6.11,6.11,0,0,1,.43,1c0,.13.13,0,.15.2l-.06,0c.15.23.22.51.35.74,0,0,0,0,0,0s.08.2.1.19,0,0,0,0,.09.12.07.16,0,0,0,0,0,.16.08.12.08.17.08.26,0,.16.1.16,0,.18.06.23,0,.06,0,.05,0,.12.08.1c0,.15.14.27.05.26s.06.07,0,.07l0,0h-.15c0-.06.22,0,.16-.07a1.06,1.06,0,0,1-.43.06s0,0,0,0c-.19,0-.36,0-.52,0h0s-.07,0-.07,0h0c.05,0-.13.08-.13.1s-.16,0-.08-.12,0,0,0,0,0,0,0,0-.08.05-.18.05,0,0,0,0a.27.27,0,0,1-.19,0s0,0,0,0a2,2,0,0,1-.43.05c0-.06,0,0-.06-.07h-.09l0,0a1.49,1.49,0,0,1-.21,0l.06,0h-.07c-.08,0,0,.06-.09.05s-.08,0-.12,0h0a.21.21,0,0,1-.14,0s0-.05,0-.06-.18,0-.23.05a0,0,0,0,0,0,0l0,0s0,0,0,0,0,.06-.09,0h0c-.13,0-.25,0-.37,0s.11,0,.07-.05a5,5,0,0,1-.53.05h0c0,.07-.12,0-.21,0s0,0,0,0a2.25,2.25,0,0,0-.41,0l0,0h-.25s-.07,0,0,0c-.23-.1-.43.05-.63,0l0,0-.17,0s0,0,.06,0a.18.18,0,0,1-.11,0c.07,0,0-.05,0-.06s0,0,0,0,0,.06-.14,0v0a.7.7,0,0,1-.14,0s0,0,0-.05-.13.07-.19,0l.1,0a.17.17,0,0,0-.13,0h0l-.12,0h0c-.09.09-.18,0-.29.07.11-.05,0,0,0-.07s-.07,0-.06,0-.09,0-.17,0-.05,0,0,0,0,0,0,0-.26-.05-.42,0-.16.07-.28.09,0,0,0,0a.41.41,0,0,0-.19,0s0,0,0,0,0,.05-.1,0a.12.12,0,0,1,0-.05l-.18,0s0,0,.06,0-.19,0-.21.05h0s0,0,0,0a.08.08,0,0,1,.1,0h-.05c.05.07.18,0,.27,0l0,.05.1,0s0,0,0,0,.05,0,.11,0,0,0,0,0h.06s0,0,0,0c.12,0,.19,0,.23,0h0c.16,0,0,0,.14-.09l.08.1v0s0,0,0,0,0,0,0,0,.22,0,.23,0-.07,0,0,0,.1,0,.17,0-.09,0,0,.05.14,0,.2,0,.14,0,.24,0,.19,0,.28.05h0s.12,0,.19,0,0,0,0,.05h.06a.1.1,0,0,1,.08,0v0a.89.89,0,0,1,.29,0s-.09-.09,0-.12,0,0,0,.06,0,0,0,0l0,0c.05,0,0,0,.07,0s0,0,0,0h-.05a.3.3,0,0,1,.12,0s0,0,0,0,0,0,.08,0,.08,0,.08,0,0,0,0,0,.21,0,.16,0h0a3.53,3.53,0,0,1,.46,0h0a1.7,1.7,0,0,0,.26,0s.07,0,.06,0a.32.32,0,0,1,.17,0c-.07,0,0,0-.07,0,.09,0,.11,0,.2,0s.07,0,.11,0l-.06,0h.13l0,0c.18,0,.33-.08.47,0s-.1,0-.06-.05.17.06.2.06.1-.06.22,0,0-.06.06-.07.11.06,0,.07,0,0,0,0-.07,0,0,0h0s.15,0,.13,0,0,0,0,0a2.3,2.3,0,0,0,.28,0s0,0,0,0,.07,0,.18,0,0,.05.09,0,0,0,0,.06a.45.45,0,0,1,.24,0h0l0,0s.06,0,.06,0,0-.05,0-.07.13,0,.14,0,0,0-.1.05a.11.11,0,0,1,.08,0s0,0,0,0,.06,0,.19,0,0,0,.05,0,0,0,0-.05.09,0,.13,0h0s.06,0,.12,0,0,0,0,0,.14,0,.23,0,0,.05,0,.06.11,0,.22,0,0,0,0-.05l-.18,0,.12,0a.92.92,0,0,1-.15,0c.06,0,0,0,0,0s.14,0,.22,0v.07c.13,0,.19,0,.47,0H41s.14,0,.21,0,.1.05.09,0-.06-.19-.12-.22v-.1c0-.19-.12-.14-.15-.28,0,0,0,0,.08.05s0-.08,0-.08-.06-.1-.05-.14,0,0-.06-.06h0s0-.07-.05,0c0-.15-.12-.34-.1-.47l-.11-.26a0,0,0,0,1,0,0c0-.11-.09,0-.11-.17s0,.06,0,0-.07-.14,0-.24v0c0-.07-.09-.14-.12-.25h0a1.09,1.09,0,0,1-.19-.27s0,0,.06,0,0,0-.09-.05,0-.1,0-.13l0,.09c0-.06,0-.11-.06-.16h0c-.06-.12-.11-.1-.16-.24v0c-.08-.05,0-.07-.07-.13l0,0a2.77,2.77,0,0,1-.17-.23,1,1,0,0,1,.17.18c0-.05-.08-.17-.12-.18s0,0,0,.06a.53.53,0,0,1-.16-.21c.1,0-.1-.25-.07-.35s-.16-.34-.27-.53c0,.11,0-.05-.09,0s0-.06,0-.07l0-.15s0,0,0,0,0-.06,0-.13-.05,0-.08-.07l0,.09c-.12-.11,0-.15-.13-.26l0,0c0-.06-.15-.26-.26-.28s0,0,0,0c-.11-.16-.3-.31-.37-.45h0s-.07,0-.08-.07,0,0,0,0a.29.29,0,0,1-.11-.09h0a1.26,1.26,0,0,0-.36-.27s-.08-.15-.13-.2h0a1.33,1.33,0,0,0-.56-.24c-.09-.13-.44-.15-.65-.17,0,0,0,0,0,.05s-.13.06-.13,0h0s-.15,0-.23,0v.07c-.23,0-.48.26-.6.28a1.06,1.06,0,0,0-.1.12l0,0a1.11,1.11,0,0,0-.29.25v0c-.07.07,0,.16-.07.22l0,0a1,1,0,0,0-.31.38s0,0,0,0-.21.22-.13.24-.11.13-.13.21l0,0a.32.32,0,0,1,0,.19s0,0,0,0,0,.07-.08.15v-.05c-.05.07,0,.07,0,.13s-.09.12-.13.12a.12.12,0,0,1,0,.11s0,0,0,0-.06.2-.14.27h0l.09-.16s-.07.06-.08,0a.57.57,0,0,1-.08.28h0s0,0,0,.05l0,.05s-.06.09-.08.13,0,.06,0,0,0,0,0,0v0h0l0-.1a.15.15,0,0,1,0,.12l0,.08c-.07,0-.15.13-.18.13s-.13.29-.1.4,0,0-.06,0a.25.25,0,0,0,0-.07c0,.08-.09.22-.06.25s0-.07-.06.06v0c-.18.21-.06.43-.26.66l0,0c-.16.29-.21.65-.39.93,0,.08,0,.1,0,.16h0v.1c0,.14-.16.2-.16.38h0c0,.06,0,.19-.07.17a.05.05,0,0,1,0,0h0v.16c0,.11-.07,0-.13.12s0,.2,0,.18a.06.06,0,0,1,.05-.06v.06s.1.09.18,0v-.1l0,0,0,.08s0-.07,0-.11a.05.05,0,0,0,0,0l0-.11s0,.06.06,0-.06,0-.06-.05.06,0,.06-.08,0,0,0,0,0-.13,0-.17,0-.16.1-.14a.32.32,0,0,1,0-.14c0,.1.06-.16.12-.11s0-.22.06-.34v0c0-.06.05-.07.07-.1s0-.12,0-.18,0,.07.09.06,0-.14,0-.12,0-.05.08-.06,0,0,0-.11.06,0,.08-.09S33.57,22.68,33.57,22.68Zm.81-2h0l0,0Zm.09-.16,0,.07s0,0,0,0S34.45,20.5,34.47,20.48Zm-.4.23s0,0,0,0l0,0h0Z"/><polygon class="cls-1" points="34.09 20.78 34.08 20.79 34.1 20.78 34.09 20.77 34.09 20.78"/><polygon class="cls-1" points="36.39 24.6 36.4 24.6 36.39 24.59 36.39 24.6"/><polygon class="cls-1" points="36.06 18.57 36.05 18.57 36.04 18.58 36.06 18.57"/><path class="cls-1" d="M35.37,24.48a0,0,0,0,0,0,0Z"/><path class="cls-1" d="M34.93,24.47l-.06,0Z"/><path class="cls-1" d="M34.59,24.45a0,0,0,0,1,0,0h0Z"/><path class="cls-1" d="M40,24.41h0S40,24.4,40,24.41Z"/><path class="cls-1" d="M38.38,24.49l0,0S38.38,24.47,38.38,24.49Z"/><polygon class="cls-1" points="40.75 23.98 40.75 23.98 40.74 23.97 40.75 23.98"/><path class="cls-1" d="M38.5,24.47h-.07A.09.09,0,0,0,38.5,24.47Z"/><polygon class="cls-1" points="33.12 24.43 33.11 24.43 33.1 24.44 33.12 24.43"/><path class="cls-1" d="M33.1,24.44h0Z"/><path class="cls-1" d="M33.05,24.45h0Z"/><path class="cls-1" d="M33.57,24.45h0Z"/><path class="cls-1" d="M33.71,24.45a.27.27,0,0,0-.13,0h0S33.68,24.47,33.71,24.45Z"/><path class="cls-1" d="M34.28,24.61h-.12s.05,0,0,0C34.3,24.67,34.13,24.6,34.28,24.61Z"/><path class="cls-1" d="M34.63,24.63c-.06,0,0,0,0,0S34.68,24.64,34.63,24.63Z"/><path class="cls-1" d="M37.19,24.63v0S37.19,24.65,37.19,24.63Z"/><polygon class="cls-1" points="37.68 24.46 37.63 24.44 37.61 24.47 37.68 24.46"/><polygon class="cls-1" points="37.97 24.69 37.95 24.69 38.03 24.68 37.97 24.69"/><path class="cls-1" d="M40.88,23.4l0,0S40.91,23.45,40.88,23.4Z"/><path class="cls-1" d="M40.15,21.69a.1.1,0,0,0,0-.1A.93.93,0,0,1,40.15,21.69Z"/><polygon class="cls-1" points="36.33 18.06 36.36 18.03 36.3 18.07 36.33 18.06"/><circle class="cls-1" cx="36.91" cy="15.19" r="3.09"/><path class="cls-1" d="M39.91,15.19s0,0,0,0l0,0Z"/><path class="cls-1" d="M40,15s-.06-.06-.09,0,0,0,.07.07,0,.05,0,0,0,0,0,.06A.1.1,0,0,0,40,15Z"/><path class="cls-1" d="M38.73,12.63l0,0Z"/><path class="cls-1" d="M37.12,12h0Z"/><path class="cls-1" d="M36.82,12h0Z"/><path class="cls-1" d="M38.73,12.63l0,0S38.72,12.61,38.73,12.63Z"/><polygon class="cls-1" points="39.84 14.65 39.85 14.67 39.84 14.65 39.84 14.65"/><polygon class="cls-1" points="39.32 13.12 39.33 13.13 39.35 13.13 39.32 13.12"/><path class="cls-1" d="M39.67,13.6h0Z"/><path class="cls-1" d="M40,14.49v0Z"/><path class="cls-1" d="M39,12.81h0Z"/><path class="cls-1" d="M39.76,15.82h0Z"/><polygon class="cls-1" points="40.01 15.19 40.01 15.2 40.03 15.2 40.01 15.19"/><path class="cls-1" d="M36.26,12h0Z"/><path class="cls-1" d="M33.75,15.88c0-.07.06.08.08,0S33.75,15.8,33.75,15.88Z"/><path class="cls-1" d="M39.84,14.63v0Z"/><polygon class="cls-1" points="33.83 15.87 33.83 15.87 33.83 15.86 33.83 15.87"/><path class="cls-1" d="M35.09,12.51h0Z"/><path class="cls-1" d="M36,12.15h0Z"/><path class="cls-1" d="M34.74,12.86s0,0,0,0h0S34.72,12.87,34.74,12.86Z"/><polygon class="cls-1" points="34.39 13.24 34.41 13.24 34.41 13.22 34.39 13.24"/><path class="cls-1" d="M39.15,17.09h0S39.21,17,39.15,17.09Z"/><path class="cls-1" d="M39.86,14.64h0v0Z"/><path class="cls-1" d="M34.91,13.08l0,.05Z"/><path class="cls-1" d="M36.1,18h0Z"/><path class="cls-1" d="M34.71,13.29l-.05,0h0Z"/><path class="cls-1" d="M39.19,17.09Z"/><path class="cls-1" d="M39.4,16.64c0,.06,0,.05,0,.08s0,0-.09,0,0,.11,0,.14,0,0,0,0-.1.13-.1.21h0a.09.09,0,0,1,.06,0s0,.06,0,.05,0,0,0,0v0s0-.05,0-.07,0,.14-.1.17.07-.1,0-.07l.06-.05c-.09,0,0,0,0,0s-.06.1-.14.16,0,0,0,.06-.16,0-.2.11,0,.08-.06.11V17.5c-.08.06,0,.09-.1.13s0-.06,0-.06,0,.06-.07.09l0,0c-.09.05-.17.15-.27.21s0,0,0,0a1,1,0,0,1-.43.15l0,.05s0,0,0,0,0,0,0,.05,0,0,0,0a.52.52,0,0,1-.36.11h0c-.08,0-.08.08-.15.06h0a1.16,1.16,0,0,1-.5,0c0,.06-.17,0-.19,0a.71.71,0,0,0-.2-.11s-.06,0-.11,0v0l-.07,0,0-.05h0s0,0,0,0S36,18,36,18l-.16,0s0,0,.06,0,0-.05-.09,0,0,0,0,0a.35.35,0,0,0-.17-.1l0,0a3.48,3.48,0,0,1-.33-.17s0,.07,0,.05v0s0,0,0,0,0-.06,0-.05l-.06,0s0,0,0,0-.06-.1-.11-.08v0l-.23-.18s-.06,0-.1,0a1.43,1.43,0,0,0-.15-.22c-.06,0,0,0-.07,0s0-.1,0-.08-.1-.11-.2-.22,0,0,0,0,0-.06,0-.07h0c-.13-.12-.09-.37-.2-.46h0l-.08-.11c0-.06,0,0,0,0s0-.22-.12-.32-.07-.33,0-.46h0s0,0,0-.06,0,0,0,0a1.94,1.94,0,0,1,.13-.82c0-.09-.09-.08,0-.2l0,0a2.57,2.57,0,0,1,.2-.59s0,0,0,0,.08-.13.06-.15,0,0,0,0,0-.11.06-.11,0,0,0,0,.08-.1,0-.1.07-.13.12-.16.11-.09.07-.13.12-.07.14-.12.05,0,.05,0S35,13,35,13s.13-.17.23-.14a2,2,0,0,1,.35-.3c0,.05-.14.09-.1.14a.77.77,0,0,1,.29-.22s0,0,0,0a3.64,3.64,0,0,1,.36-.16l0,0s.06,0,.05,0h0s.07-.1.07-.12.13,0,.08.1,0,0,0-.05,0,0,0,0,0-.06.13-.07l0,0a.2.2,0,0,1,.14-.06s0,0,0,0a.68.68,0,0,1,.32-.07c0,.05.05,0,.05.06H37l0,0c.06,0,.12,0,.17,0l-.05,0h.12l-.07,0c.07,0,0,0,.08,0s.06,0,.09,0h0a.14.14,0,0,1,.11,0s0,.05,0,.06.14,0,.19,0,0,0,0,0l0,0s0,0,0,0,0-.07.08,0h0c.09,0,.19,0,.27.08s-.08,0-.06,0a1.25,1.25,0,0,1,.39.11h0c.05-.06.07.07.15.07s0,0,0,0a2.14,2.14,0,0,0,.29.13h0a1.74,1.74,0,0,0,.15.13s0,0,0,0c.06.18.29.18.33.35h0l.1.09s0,0,0-.06l.08,0c-.05,0,0,0,0,.07l0,0c0,.09.06,0,.09.07h0s.06,0,.08.07,0,0-.06,0,.12.05.12.11l-.06-.06a.27.27,0,0,0,0,.11h0l0,.09v0c.11,0,.09.11.18.16-.09,0,0,0-.07,0s0,.06,0,.06,0,.07.07.1,0,0,0,0,0,0,0,0,0,.2.12.29.09.11.14.2-.05,0-.05,0a.22.22,0,0,0,0,.14s0,0,0,0,.05,0,0,.08l-.06,0,.07.13s0,0-.05,0,0,.14.07.15v0s0,0,0,0,0-.07,0-.08v0c.07-.05,0-.14,0-.21l.06,0-.06-.07s0,0,.06,0,0,0,0-.09h0l0,0s0,0,0,0-.07-.13-.05-.18h0c-.05-.12,0,0-.11-.08l.06-.09h0s0,0,0,0,0,0-.05,0-.07-.15,0-.19,0,.06,0,0,0-.06,0-.13,0,.06,0,0,0-.1-.08-.14-.07-.08-.13-.14-.06-.14-.1-.21h0s-.08,0-.13-.09h.07l0,0s0,0-.06,0h0c0-.05-.12-.08-.17-.16s0,.11-.1.06,0,0,0,0a0,0,0,0,1,0,0h.05s0,0-.05,0,0,0,0,0,0,0,0,0a.16.16,0,0,1,0-.1s0,0,0,0,0,0,0-.07-.05-.05-.07,0,0,0,0,0-.14-.1-.13,0h0c-.12,0-.2-.15-.31-.2h0a.69.69,0,0,0-.2-.07s0,0,0,0a.24.24,0,0,1-.13-.05c.06,0,0,0,.06,0s-.08-.06-.16,0,0-.06-.08-.06l.05,0-.11,0,0,0c-.14-.09-.29,0-.38-.1s.08,0,0,.07S37.42,12,37.4,12s-.1,0-.19,0,0,.05-.06.06-.08-.06,0-.07h0s0,0,0,0h0s-.13,0-.11,0,0,0,0,0a1.79,1.79,0,0,0-.23,0s0,0,0,0-.05,0-.14,0,0-.06-.08,0,0,0,0,0a.49.49,0,0,1-.21,0l0,0-.07,0,0,0h0s0,0,0,.08-.1,0-.12,0,0,0,.07-.06h-.06c-.11,0,0,.05-.14.08s0,0,0,0,0,0,0,.06-.07,0-.11,0h0s0,0-.09.06,0,0,0,0-.12,0-.18.05,0,0,0,0-.1,0-.17.06,0,0,0,.06l.12-.08-.06.08s.07-.06.1-.06,0,0,0,0-.09.08-.17.08l0-.07c-.11,0-.14.12-.26.17h0s-.07,0-.1.08,0,0-.06,0-.08.06-.06.1H35c-.09.06,0,.13-.13.19s0,0,0-.08-.05,0,0,0,0,.09-.08.09,0,0,0,.07h0s0,.05,0,.05c-.12,0-.19.21-.29.25l-.13.19s0,0,0,0,0,.09-.05.16,0-.06,0,0-.05.12-.13.16v0c-.05,0,0,.13-.08.21h0a.8.8,0,0,1,0,.26s0,0,0,0,0,0,0,.08-.06.06-.09.06l0-.07c-.06,0,0,.09,0,.12h0c0,.12,0,.13,0,.24h0c0,.08,0,.05,0,.12h0c0,.05,0,.16,0,.23a.53.53,0,0,1,0-.19.33.33,0,0,0,0,.17s0,0,0-.06a.36.36,0,0,1,0,.21c-.09,0,0,.22-.1.28s0,.3,0,.48c.07-.07,0,.05.09,0a.21.21,0,0,1,0,.06l0,.13s0,0,0,0,0,0,0,.11,0,0,0,.07l0-.08c.07.11,0,.13,0,.24l0,0s.09.23.18.26,0,0,0,0c.06.15.22.28.26.4h0s.06,0,.07.07,0,0,0,0a.22.22,0,0,1,.09.08h0c.07.14.18.15.28.23s0,.15.06.19h0a1.67,1.67,0,0,0,.4.25c0,.11.27.21.4.31s0,0,.06,0,.11,0,.08.05h0c0,.06.08.09.14.11l0-.06c.11.15.41.1.47.2h.13v0a.9.9,0,0,0,.3.05l0,0c.07,0,.1-.09.17-.09l0,.05a.85.85,0,0,0,.39,0s0,0,0,0,.24,0,.21-.06.14,0,.2-.05v0c0-.06,0-.08.12-.11s0,0,0,0,0,0,.12,0l0,0c.06,0,.06,0,.08-.06s.12,0,.14,0a.1.1,0,0,1,.07-.07s0,0,0,0,.14-.11.22-.11l0,0-.15.06s.09,0,0,.07.11-.14.18-.16h0l0,0,0,0s.08,0,.12-.05,0-.05,0-.05,0,0,0,0h0l-.08.05a.14.14,0,0,1,.08-.07v-.07c.07,0,.17,0,.2,0s.2-.16.21-.26,0,0,.05,0l0,0c0-.05.14-.13.12-.17s0,.06.07,0v0c.2-.11.14-.33.35-.46h0a5.42,5.42,0,0,0,.4-.71c0-.07,0-.08,0-.13H40l0-.08c0-.12.15-.17.11-.32h0c0-.05,0-.16,0-.14s0,0,0,0h0a.69.69,0,0,0,0-.13c0-.09.08,0,.09-.12s0-.15-.07-.13,0,.06,0,.06V15.2c-.06,0-.12,0-.16.07l0,.07,0,0V15.3s0,.06,0,.09a0,0,0,0,0,0,0l.05.08s0,0-.06,0,0,0,.06,0-.05,0,0,.07a0,0,0,0,1,0,0s0,.1,0,.13,0,.13-.07.11a.27.27,0,0,1,0,.11c0-.08,0,.12-.1.09s0,.17,0,.26,0,0,0,0,0,.05-.07.07,0,.1,0,.15,0-.06-.09-.06,0,.11,0,.1,0,0-.07,0,0,0,0,.09-.06,0-.08.06S39.4,16.64,39.4,16.64Zm-1.12,1.21h0l0,0Zm-.12.06.05,0s0,0,0,0S38.18,17.91,38.16,17.91Zm.39.07s0,0,0,0l0,0h0Z"/><path class="cls-1" d="M38.56,17.92h0v0Z"/><polygon class="cls-1" points="38.75 12.65 38.74 12.64 38.75 12.65 38.75 12.65"/><polygon class="cls-1" points="36.25 18.04 36.25 18.05 36.27 18.04 36.25 18.04"/><path class="cls-1" d="M39.25,13.29h0Z"/><path class="cls-1" d="M39.44,13.57l0,0Z"/><path class="cls-1" d="M39.56,13.8h0Z"/><path class="cls-1" d="M36.05,12.37h0S36,12.38,36.05,12.37Z"/><path class="cls-1" d="M37.26,12.18h0S37.26,12.2,37.26,12.18Z"/><polygon class="cls-1" points="34.92 13.08 34.92 13.08 34.91 13.08 34.92 13.08"/><path class="cls-1" d="M37.16,12.19h0Z"/><polygon class="cls-1" points="39.87 14.87 39.87 14.89 39.88 14.89 39.87 14.87"/><path class="cls-1" d="M39.88,14.89h0Z"/><path class="cls-1" d="M39.89,14.93v0A0,0,0,0,0,39.89,14.93Z"/><path class="cls-1" d="M39.83,14.53h0Z"/><path class="cls-1" d="M39.8,14.43a.34.34,0,0,0,0,.1h0S39.83,14.45,39.8,14.43Z"/><path class="cls-1" d="M39.81,14l0,.09s0-.05,0,0C39.86,13.91,39.85,14.07,39.81,14Z"/><path class="cls-1" d="M39.7,13.69s0,0,0,0S39.69,13.65,39.7,13.69Z"/><path class="cls-1" d="M38.2,12.3l0,0S38.22,12.28,38.2,12.3Z"/><polygon class="cls-1" points="37.78 12.32 37.81 12.35 37.84 12.33 37.78 12.32"/><polygon class="cls-1" points="37.62 12.04 37.63 12.04 37.57 12.03 37.62 12.04"/><path class="cls-1" d="M34.42,13.15h0S34.44,13.11,34.42,13.15Z"/><path class="cls-1" d="M33.8,14.52a.08.08,0,0,0,0,.09A.64.64,0,0,1,33.8,14.52Z"/><polygon class="cls-1" points="35.79 18.23 35.76 18.23 35.81 18.24 35.79 18.23"/><path class="cls-1" d="M44.39,24.54s1.88-6.46,4.2-6.46,4.21,6.46,4.21,6.46Z"/><path class="cls-1" d="M44.39,24.46s0,0,0,0l0,0Z"/><path class="cls-1" d="M44.63,24.54s.09-.06.06-.1,0,0-.1.07-.06,0-.05,0-.06,0-.08,0a.15.15,0,0,0,.17,0S44.63,24.53,44.63,24.54Z"/><path class="cls-1" d="M48.1,24.6h0Z"/><path class="cls-1" d="M50.25,24.63h0Z"/><path class="cls-1" d="M50.62,24.67h0Z"/><path class="cls-1" d="M48.1,24.6l.06,0S48.13,24.61,48.1,24.6Z"/><polygon class="cls-1" points="45.1 24.44 45.07 24.45 45.1 24.44 45.1 24.44"/><polygon class="cls-1" points="47.15 24.64 47.13 24.64 47.12 24.65 47.15 24.64"/><path class="cls-1" d="M46.42,24.64s0,0,0-.05,0,0,0,0A0,0,0,0,1,46.42,24.64Z"/><path class="cls-1" d="M45.27,24.58h0Z"/><path class="cls-1" d="M47.67,24.64v0Z"/><path class="cls-1" d="M44.8,23.8h0Z"/><polygon class="cls-1" points="44.38 24.54 44.38 24.53 44.36 24.52 44.38 24.54"/><path class="cls-1" d="M51.29,24.72Z"/><path class="cls-1" d="M51.14,20.17c0,.08-.1-.08-.08,0S51.16,20.26,51.14,20.17Z"/><path class="cls-1" d="M45.12,24.44h0Z"/><polygon class="cls-1" points="51.06 20.2 51.06 20.2 51.07 20.21 51.06 20.2"/><path class="cls-1" d="M53,24.63s0,0,0,0Z"/><path class="cls-1" d="M51.68,24.65h0Z"/><path class="cls-1" d="M52.7,23.9a.08.08,0,0,0,0,0h0A0,0,0,0,1,52.7,23.9Z"/><path class="cls-1" d="M52.49,23.31h0v0Z"/><path class="cls-1" d="M45.46,22h0S45.42,22.13,45.46,22Z"/><path class="cls-1" d="M45.1,24.46s0,0,0,0h0Z"/><path class="cls-1" d="M52.42,24l0-.1Z"/><path class="cls-1" d="M47.89,18.45l0,0Z"/><path class="cls-1" d="M52.3,23.6v-.06h0Z"/><path class="cls-1" d="M45.42,22Z"/><path class="cls-1" d="M45.25,22.68c0-.09,0-.06,0-.09s0,0,.09-.06,0-.14,0-.18,0,0,0,0,.09-.2.08-.3h0a.06.06,0,0,1-.06,0s0-.08,0-.08,0,0,0,0v0c.06,0,0,.07,0,.08a.82.82,0,0,1,.07-.25s-.05.15,0,.08l-.06.09c.1,0,0,.06.07,0s0-.15.11-.26,0,0-.05-.05.16-.09.17-.24-.06-.08,0-.16l0,.06c.06-.12,0-.1.06-.21s0,.1,0,.08,0-.06,0-.12h0c.06-.12.09-.28.16-.41s0,0,0,0a2.08,2.08,0,0,1,.32-.51v-.08s0,0,0,0,0,0,0-.06,0,0,0,0a.94.94,0,0,1,.25-.43v0c.08-.07,0-.13.1-.19v0a1.67,1.67,0,0,1,.44-.47c0-.06.17-.14.12-.21a1.65,1.65,0,0,0,.26-.11s0-.08.07-.12l0,0,0-.09.06,0,0,0h0c.06-.05.19-.07.2-.05l.16-.12s0,0,0,.06,0,0,.1,0,0,0,0,0a.48.48,0,0,0,.23,0v0a1.25,1.25,0,0,1,.43,0s0-.06,0-.06v.05s-.05,0,0-.05,0,.05,0,.06H49s0,0,0,0,.09.1.15.08h0a1.2,1.2,0,0,1,.32.17s.06,0,.11,0l.23.25c.07,0,0,0,.08,0s.07.11,0,.08a3.49,3.49,0,0,0,.27.26s0-.05,0-.05,0,.07,0,.08h0c.17.15.23.44.37.55h0l.12.13c0,.07,0,0,0,0s.16.25.26.37.22.37.24.55l0,0s0,.05,0,.08,0-.05,0,0a6.11,6.11,0,0,1,.43,1c0,.13.13,0,.15.2l-.06,0c.15.23.22.51.35.74,0,0,0,0,0,0s.08.2.1.19,0,0,0,0,.09.12.07.16,0,0,0,0,0,.16.07.12.08.17.09.26,0,.16.1.16,0,.18.06.23,0,.06,0,.05,0,.12.08.1c0,.15.14.27,0,.26s.07.07,0,.07l0,0h-.15c0-.06.22,0,.16-.07a1.06,1.06,0,0,1-.43.06s0,0,0,0c-.19,0-.36,0-.52,0h0s-.07,0-.07,0h0c.05,0-.13.08-.13.1s-.17,0-.08-.12,0,0,0,0,0,0,0,0-.08.05-.18.05,0,0,0,0a.27.27,0,0,1-.19,0s0,0,0,0a2,2,0,0,1-.43.05c0-.06,0,0-.06-.07h-.09l0,0a1.83,1.83,0,0,1-.21,0l.06,0h-.07c-.08,0,0,.06-.09.05s-.08,0-.12,0h0a.21.21,0,0,1-.14,0s0-.05,0-.06-.18,0-.23.05a0,0,0,0,0,0,0l0,0s0,0,0,0,0,.06-.09,0h0c-.13,0-.25,0-.37,0s.11,0,.07-.05a5,5,0,0,1-.53.05h0c0,.07-.12,0-.21,0s0,0,0,0a2.23,2.23,0,0,0-.4,0l0,0h-.25s-.07,0,0,0c-.23-.1-.43.05-.63,0l0,0-.17,0s0,0,.06,0a.21.21,0,0,1-.12,0c.08,0,0-.05,0-.06s0,0,0,0,0,.06-.14,0v0a.7.7,0,0,1-.14,0s0,0,0-.05-.13.07-.19,0l.1,0a.17.17,0,0,0-.13,0h0l-.11,0h0c-.09.09-.18,0-.29.07.11-.05,0,0,0-.07s-.07,0-.06,0-.09,0-.17,0-.05,0,0,0,0,0,0,0-.26-.05-.42,0-.16.07-.29.09,0,0,0,0a.41.41,0,0,0-.19,0s0,0,0,0,0,.05-.1,0a.12.12,0,0,1,0-.05l-.18,0s0,0,.06,0-.19,0-.21.05h0s0,0,0,0,.09,0,.09,0h0c0,.07.18,0,.27,0l0,.05.1,0s0,0,0,0,.05,0,.11,0,0,0,0,0h.06s0,0,0,0c.12,0,.19,0,.23,0h0c.16,0,0,0,.13-.09l.08.1,0,0s0,0,0,0,0,0,0,0,.22,0,.23,0-.07,0,0,0,.1,0,.17,0-.09,0,0,.05.14,0,.2,0,.14,0,.24,0,.19,0,.28.05h0s.12,0,.19,0,0,0-.06.05h.07a.1.1,0,0,1,.08,0l0,0a1,1,0,0,1,.3,0s-.09-.09,0-.12,0,0,0,.06,0,0,0,0l0,0c.05,0,0,0,.06,0s0,0,0,0h-.05a.35.35,0,0,1,.12,0s0,0,0,0,0,0,.09,0,.08,0,.08,0,0,0,0,0,.21,0,.16,0h0a3.53,3.53,0,0,1,.46,0h0a1.7,1.7,0,0,0,.26,0s.07,0,.05,0a.36.36,0,0,1,.18,0c-.07,0,0,0-.07,0,.09,0,.11,0,.2,0s.07,0,.11,0l-.06,0h.13l0,0c.18,0,.33-.08.47,0s-.1,0-.06-.05.17.06.2.06.1-.06.22,0,0-.06.06-.07.11.06,0,.07,0,0,0,0-.07,0,0,0h0s.15,0,.13,0,0,0,0,0a2.28,2.28,0,0,0,.27,0s0,0,0,0,.07,0,.18,0,0,.05.09,0,0,0,0,.06a.45.45,0,0,1,.24,0h0l0,0s.06,0,.06,0,0-.05,0-.07.12,0,.14,0c-.13,0,0,0-.1.05a.11.11,0,0,1,.08,0s0,0,0,0,.06,0,.19,0,0,0,.05,0,0,0,0-.05.09,0,.13,0h0s.06,0,.12,0,0,0,0,0,.14,0,.23,0,0,.05,0,.06.11,0,.22,0,0,0,0-.05l-.18,0,.11,0a.76.76,0,0,1-.14,0c.06,0,.05,0,0,0s.14,0,.22,0v.07c.13,0,.19,0,.47,0h-.09s.14,0,.21,0,.1.05.09,0-.06-.19-.12-.22v-.1c0-.19-.12-.14-.15-.28,0,0,0,0,.08.05s0-.08,0-.08-.06-.1-.05-.14,0,0-.06-.06h0s0-.07,0,0c0-.15-.12-.34-.1-.47l-.11-.26a0,0,0,0,1,0,0c0-.11-.09,0-.11-.17s0,.06,0,0-.07-.14,0-.24v0c0-.07-.09-.14-.12-.25h0a1.09,1.09,0,0,1-.19-.27s0,0,.06,0,0,0-.09-.05,0-.1,0-.13l0,.09c0-.06,0-.11-.06-.16h0c-.06-.12-.11-.1-.16-.24v0c-.08-.05,0-.07-.07-.13l0,0a2.77,2.77,0,0,1-.17-.23.71.71,0,0,1,.16.18c0-.05-.07-.17-.11-.18s0,0,0,.06a.53.53,0,0,1-.16-.21c.09,0-.1-.25-.07-.35s-.16-.34-.27-.53c0,.11,0-.05-.09,0s0-.06,0-.07l0-.15s0,0,0,0,0-.06,0-.13-.05,0-.08-.07L51,20c-.12-.11,0-.15-.14-.26l0,0c-.06-.06-.15-.26-.26-.28s0,0,0,0c-.11-.16-.3-.31-.37-.45h0s-.07,0-.08-.07,0,0,0,0a.29.29,0,0,1-.11-.09h0a1.17,1.17,0,0,0-.37-.27s-.07-.15-.12-.2h0a1.24,1.24,0,0,0-.55-.24c-.09-.13-.44-.15-.65-.17,0,0,0,0,0,.05s-.13.06-.13,0h0s-.15,0-.23,0v.07c-.23,0-.48.26-.6.28a1.06,1.06,0,0,0-.1.12l0,0a1.26,1.26,0,0,0-.28.25v0c-.07.07,0,.16-.07.22l0,0a1,1,0,0,0-.31.38s0,0,0,0-.21.22-.14.24-.1.13-.13.21l0,0a.27.27,0,0,1,0,.19s0,0,0,0,0,.07-.07.15v-.05c-.05.07,0,.07,0,.13a.25.25,0,0,1-.13.12.12.12,0,0,1,0,.11s0,0,0,0-.06.2-.14.27h0l.09-.16s-.07.06-.08,0a.69.69,0,0,1-.08.28h0s0,0,0,.05l0,.05s-.06.09-.08.13,0,.06,0,0,0,0,0,0v0h0l0-.1a.15.15,0,0,1,0,.12l0,.08c-.07,0-.15.13-.18.13a1.1,1.1,0,0,0-.11.4s0,0,0,0a.25.25,0,0,0,0-.07c0,.08-.09.22-.06.25s0-.07-.06.06v0c-.18.21-.06.43-.26.66l0,0c-.17.29-.21.65-.39.93,0,.08,0,.1,0,.16h0v.1c0,.14-.17.2-.16.38h0c0,.06,0,.19-.08.17a0,0,0,0,1,0,0h0v.16c0,.11-.07,0-.13.12s0,.2,0,.18,0-.06.06-.06v.06s.1.09.18,0v-.1l0,0,0,.08s0-.07,0-.11a.05.05,0,0,0,0,0l0-.11s0,.06.06,0-.06,0-.06-.05.06,0,.06-.08,0,0,0,0,0-.13,0-.17,0-.16.1-.14a.22.22,0,0,1,0-.14c0,.1.06-.16.12-.11s0-.22.06-.34v0c0-.06.05-.07.07-.1S45,23,45,23s0,.07.09.06,0-.14,0-.12,0-.05.08-.06,0,0,0-.11.06,0,.08-.09S45.25,22.68,45.25,22.68Zm.81-2h0l0,0Zm.09-.16,0,.07s0,0,0,0S46.13,20.5,46.15,20.48Zm-.4.23s0,0,0,0v0h0Z"/><polygon class="cls-1" points="45.77 20.78 45.76 20.79 45.78 20.78 45.77 20.77 45.77 20.78"/><polygon class="cls-1" points="48.07 24.6 48.08 24.6 48.07 24.59 48.07 24.6"/><polygon class="cls-1" points="47.73 18.57 47.73 18.57 47.72 18.58 47.73 18.57"/><path class="cls-1" d="M47.05,24.48h0Z"/><path class="cls-1" d="M46.61,24.47l-.06,0Z"/><path class="cls-1" d="M46.27,24.45a0,0,0,0,1,0,0h0Z"/><path class="cls-1" d="M51.66,24.41h0S51.68,24.4,51.66,24.41Z"/><path class="cls-1" d="M50.06,24.49l0,0S50.06,24.47,50.06,24.49Z"/><polygon class="cls-1" points="52.43 23.98 52.43 23.98 52.42 23.97 52.43 23.98"/><path class="cls-1" d="M50.18,24.47h-.07A.09.09,0,0,0,50.18,24.47Z"/><polygon class="cls-1" points="44.8 24.43 44.78 24.43 44.78 24.44 44.8 24.43"/><path class="cls-1" d="M44.78,24.44h0Z"/><path class="cls-1" d="M44.73,24.45h0Z"/><path class="cls-1" d="M45.25,24.45h0Z"/><path class="cls-1" d="M45.39,24.45a.27.27,0,0,0-.13,0h0S45.36,24.47,45.39,24.45Z"/><path class="cls-1" d="M46,24.61h-.12s0,0,0,0C46,24.67,45.81,24.6,46,24.61Z"/><path class="cls-1" d="M46.31,24.63c-.06,0,0,0,0,0S46.36,24.64,46.31,24.63Z"/><path class="cls-1" d="M48.87,24.63v0S48.86,24.65,48.87,24.63Z"/><polygon class="cls-1" points="49.36 24.46 49.31 24.44 49.29 24.47 49.36 24.46"/><polygon class="cls-1" points="49.65 24.69 49.63 24.69 49.71 24.68 49.65 24.69"/><path class="cls-1" d="M52.56,23.4l0,0S52.59,23.45,52.56,23.4Z"/><path class="cls-1" d="M51.83,21.69a.1.1,0,0,0,0-.1A.93.93,0,0,1,51.83,21.69Z"/><polygon class="cls-1" points="48.01 18.06 48.04 18.03 47.98 18.07 48.01 18.06"/><circle class="cls-1" cx="48.59" cy="15.19" r="3.09"/><path class="cls-1" d="M51.59,15.19s0,0,0,0l0,0Z"/><path class="cls-1" d="M51.66,15s-.06-.06-.09,0,0,0,.07.07,0,.05,0,0,0,0,0,.06a.1.1,0,0,0,0-.13Z"/><path class="cls-1" d="M50.41,12.63v0Z"/><path class="cls-1" d="M48.8,12h0Z"/><path class="cls-1" d="M48.5,12h0Z"/><path class="cls-1" d="M50.41,12.63l0,0S50.4,12.61,50.41,12.63Z"/><polygon class="cls-1" points="51.52 14.65 51.53 14.67 51.52 14.65 51.52 14.65"/><polygon class="cls-1" points="51 13.12 51.01 13.13 51.03 13.13 51 13.12"/><path class="cls-1" d="M51.35,13.6s0,0-.05,0h0S51.34,13.61,51.35,13.6Z"/><path class="cls-1" d="M51.63,14.49v0Z"/><path class="cls-1" d="M50.71,12.81h0Z"/><path class="cls-1" d="M51.44,15.82h0Z"/><polygon class="cls-1" points="51.69 15.19 51.69 15.2 51.71 15.2 51.69 15.19"/><path class="cls-1" d="M47.94,12Z"/><path class="cls-1" d="M45.43,15.88c0-.07.06.08.08,0S45.43,15.8,45.43,15.88Z"/><path class="cls-1" d="M51.52,14.63v0Z"/><polygon class="cls-1" points="45.51 15.87 45.51 15.87 45.51 15.86 45.51 15.87"/><path class="cls-1" d="M46.77,12.51h0Z"/><path class="cls-1" d="M47.64,12.15h0Z"/><path class="cls-1" d="M46.42,12.86s0,0,0,0h0S46.4,12.87,46.42,12.86Z"/><polygon class="cls-1" points="46.07 13.24 46.08 13.24 46.09 13.22 46.07 13.24"/><path class="cls-1" d="M50.83,17.09h0S50.89,17,50.83,17.09Z"/><path class="cls-1" d="M51.54,14.64h0v0Z"/><path class="cls-1" d="M46.59,13.08l-.06.05Z"/><path class="cls-1" d="M47.78,18h0Z"/><path class="cls-1" d="M46.39,13.29l0,0h0Z"/><path class="cls-1" d="M50.87,17.09Z"/><path class="cls-1" d="M51.08,16.64c0,.06,0,.05,0,.08s0,0-.09,0,0,.11,0,.14a0,0,0,0,1,0,0c0,.06-.1.13-.1.21h0a.09.09,0,0,1,.06,0s0,.06,0,.05,0,0,0,0v0c-.06,0,0-.05,0-.07a.55.55,0,0,1-.1.17s.07-.1,0-.07l.06-.05c-.09,0,0,0,0,0s-.06.1-.14.16,0,0,0,.06-.16,0-.2.11,0,.08-.06.11V17.5c-.08.06,0,.09-.1.13s.05-.06,0-.06,0,.06-.06.09l0,0c-.09.05-.17.15-.27.21s0,0,0,0a1,1,0,0,1-.43.15l0,.05s0,0,0,0,0,0,0,.05,0,0,0,0a.52.52,0,0,1-.36.11h0c-.08,0-.08.08-.15.06h0a1.16,1.16,0,0,1-.5,0c0,.06-.17,0-.19,0a.71.71,0,0,0-.2-.11s-.06,0-.11,0v0l-.07,0,0-.05h0s0,0,0,0-.15-.07-.14-.09l-.16,0s0,0,0,0,0-.05-.08,0,0,0,0,0a.4.4,0,0,0-.17-.1l0,0a3.48,3.48,0,0,1-.33-.17s0,.07,0,.05v0s0,0,0,0,0-.06,0-.05l-.06,0s0,0,0,0-.06-.1-.11-.08v0l-.23-.18s-.06,0-.1,0a1.43,1.43,0,0,0-.15-.22c-.06,0,0,0-.07,0s0-.1,0-.08-.1-.11-.2-.22,0,0,0,0,0-.06,0-.07h0c-.13-.12-.09-.37-.2-.46h0l-.08-.11c0-.06,0,0,0,0s0-.22-.12-.32-.07-.33,0-.46h0s0,0,0-.06,0,0,0,0a1.94,1.94,0,0,1,.13-.82c0-.09-.1-.08,0-.2l0,0a2.57,2.57,0,0,1,.2-.59s0,0,0,0,.09-.13.07-.15,0,0,0,0,0-.11.06-.11,0,0,0,0,.08-.1,0-.1.08-.13.13-.16.11-.09.07-.13.12-.07.14-.12.05,0,.05,0,.07-.08,0-.1.13-.17.22-.14a2.49,2.49,0,0,1,.36-.3c0,.05-.14.09-.1.14a.77.77,0,0,1,.29-.22s0,0,0,0a3.64,3.64,0,0,1,.36-.16l0,0s.06,0,.05,0h0s.07-.1.07-.12.13,0,.08.1,0,0,0-.05,0,0,0,0,0-.06.13-.07l0,0a.2.2,0,0,1,.14-.06s0,0,0,0a.68.68,0,0,1,.32-.07c0,.05,0,0,.05.06h.07l0,0c.06,0,.12,0,.17,0l-.05,0h.12l-.07,0c.07,0,0,0,.08,0s.06,0,.09,0h0a.14.14,0,0,1,.11,0s0,.05,0,.06.14,0,.19,0,0,0,0,0l0,0s0,0,0,0,0-.07.08,0h0a1.87,1.87,0,0,1,.28.08c0,.05-.08,0-.06,0a1.25,1.25,0,0,1,.39.11h0c.05-.06.07.07.15.07s0,0,0,0a2.61,2.61,0,0,0,.28.13h0c0,.05.11.09.15.13s0,0,0,0c.07.18.3.18.34.35h0l.1.09s0,0,0-.06l.08,0c-.05,0,0,0,0,.07l0,0c0,.09.06,0,.09.07h0s.06,0,.08.07,0,0-.06,0,.12.05.12.11l-.06-.06a.27.27,0,0,0,0,.11h0l0,.09v0c.11,0,.09.11.18.16-.09,0,0,0-.08,0s0,.06,0,.06,0,.07.07.1,0,0,0,0,0,0,0,0,0,.2.12.29.09.11.14.2-.05,0-.05,0a.22.22,0,0,0,0,.14s0,0,0,0,.05,0,0,.08l-.06,0,.07.13s0,0-.05,0,0,.14.07.15v0s0,0,0,0,0-.07,0-.08v0c.07-.05,0-.14,0-.21l.06,0-.06-.07s0,0,.05,0,0,0,0-.09h0l0,0s0,0,0,0-.08-.13,0-.18h0c-.06-.12,0,0-.11-.08l.06-.09h0s0,0,0,0,0,0-.05,0-.08-.15,0-.19,0,.06,0,0,0-.06,0-.13,0,.06,0,0,0-.1-.08-.14-.07-.08-.13-.14-.06-.14-.1-.21h0s-.08,0-.13-.09h.07l0,0a.06.06,0,0,1-.06,0h0c0-.05-.12-.08-.17-.16s0,.11-.1.06,0,0,0,0a0,0,0,0,1,0,0h.05s0,0-.05,0,0,0,0,0a0,0,0,0,0,0,0,.16.16,0,0,1,0-.1s0,0-.05,0,0,0,0-.07,0-.05-.07,0,0,0,0,0-.14-.1-.13,0h0c-.12,0-.2-.15-.31-.2h0a.69.69,0,0,0-.2-.07s0,0,0,0a.24.24,0,0,1-.13-.05c.06,0,0,0,0,0s-.07-.06-.15,0,0-.06-.08-.06l0,0-.1,0,0,0c-.13-.09-.28,0-.37-.1s.08,0,0,.07S49.1,12,49.08,12s-.1,0-.19,0,0,.05-.06.06-.08-.06,0-.07h0s0,0,0,0h0s-.13,0-.11,0,0,0,0,0a1.79,1.79,0,0,0-.23,0s0,0,0,0-.05,0-.14,0,0-.06-.08,0,0,0,0,0a.49.49,0,0,1-.21,0l0,0-.07,0,0,0h0s0,0,0,.08-.1,0-.12,0,0,0,.07-.06h-.06c-.11,0,0,.05-.14.08s0,0,0,0,0,0,0,.06-.07,0-.11,0h0s0,0-.09.06,0,0,0,0-.12,0-.18.05,0,0,0,0-.1,0-.17.06,0,0,0,.06l.12-.08-.06.08s.07-.06.1-.06,0,0,0,0-.1.08-.17.08l0-.07c-.11,0-.14.12-.27.17H47s-.07,0-.1.08,0,0-.06,0-.08.06-.06.1h-.07c-.09.06-.06.13-.13.19s-.05,0,0-.08-.05,0,0,0,0,.09-.08.09,0,0,0,.07h0s0,.05,0,.05c-.12,0-.2.21-.3.25l-.12.19s0,0,0,0,0,.09-.05.16,0-.06,0,0-.06.12-.13.16v0s0,.13-.07.21h0a1.22,1.22,0,0,1,0,.26s0,0,0,0,0,0,0,.08-.06.06-.09.06l0-.07c-.06,0,0,.09,0,.12h0c0,.12,0,.13,0,.24h0c0,.08,0,.05,0,.12h0c0,.05,0,.16,0,.23a.53.53,0,0,1,0-.19.33.33,0,0,0,0,.17s0,0,0-.06a.36.36,0,0,1,0,.21c-.09,0,0,.22-.1.28s0,.3,0,.48c.07-.07,0,.05.09,0a.21.21,0,0,1,0,.06l0,.13s0,0,0,0,0,0,0,.11,0,0,0,.07l0-.08c.07.11,0,.13,0,.24l0,0s.09.23.18.26,0,0,0,0c.06.15.22.28.26.4h0s.06,0,.07.07,0,0,0,0,.07,0,.09.08h0c.07.14.18.15.28.23s0,.15.06.19h0a1.5,1.5,0,0,0,.4.25c0,.11.27.21.4.31s0,0,.06,0,.11,0,.08.05h0c0,.06.08.09.14.11l0-.06c.11.15.4.1.47.2H48v0a.9.9,0,0,0,.3.05l0,0c.07,0,.1-.09.17-.09l0,.05a.85.85,0,0,0,.39,0s0,0,0,0,.24,0,.21-.06.14,0,.2-.05v0c0-.06,0-.08.12-.11s0,0,0,0,0,0,.12,0l0,0c.06,0,.05,0,.08-.06s.12,0,.14,0a.1.1,0,0,1,.07-.07s0,0,0,0S49.89,18,50,18l0,0-.15.06s.08,0,0,.07a.46.46,0,0,1,.18-.16h0l0,0,0,0s.08,0,.12-.05,0-.05,0-.05,0,0,0,0h0l-.08.05a.14.14,0,0,1,.08-.07v-.07c.07,0,.17,0,.19,0s.21-.16.22-.26,0,0,.05,0l0,0c0-.05.14-.13.11-.17s0,.06.07,0v0c.2-.11.14-.33.35-.46h0a5.42,5.42,0,0,0,.4-.71c0-.07,0-.08,0-.13h0l0-.08c0-.12.15-.17.11-.32h0c0-.05,0-.16,0-.14s0,0,0,0h0a.69.69,0,0,0,0-.13c0-.09.08,0,.09-.12s0-.15-.07-.13,0,.06,0,.06V15.2c-.06,0-.12,0-.17.07l0,.07,0,0V15.3s0,.06,0,.09,0,0,0,0l.06.08s0,0-.06,0,0,0,.06,0-.05,0,0,.07,0,0,0,0,0,.1,0,.13,0,.13-.07.11a.27.27,0,0,1,0,.11c0-.08,0,.12-.1.09s0,.17,0,.26,0,0,0,0-.05.05-.07.07,0,.1,0,.15,0-.06-.09-.06,0,.11,0,.1,0,0-.08,0,0,0,0,.09-.06,0-.08.06S51.08,16.64,51.08,16.64ZM50,17.85h0l0,0Zm-.12.06,0,0s0,0,0,0S49.86,17.91,49.84,17.91Zm.39.07s0,0,0,0l0,0h0Z"/><path class="cls-1" d="M50.24,17.92h0v0Z"/><polygon class="cls-1" points="50.43 12.65 50.42 12.64 50.43 12.65 50.43 12.65"/><polygon class="cls-1" points="47.93 18.04 47.93 18.05 47.95 18.04 47.93 18.04"/><path class="cls-1" d="M50.93,13.29h0Z"/><path class="cls-1" d="M51.12,13.57l0,0Z"/><path class="cls-1" d="M51.24,13.8h0Z"/><path class="cls-1" d="M47.73,12.37h0S47.72,12.38,47.73,12.37Z"/><path class="cls-1" d="M48.94,12.18h0S48.94,12.2,48.94,12.18Z"/><polygon class="cls-1" points="46.6 13.08 46.6 13.08 46.59 13.08 46.6 13.08"/><path class="cls-1" d="M48.84,12.19h0Z"/><polygon class="cls-1" points="51.55 14.87 51.55 14.89 51.56 14.89 51.55 14.87"/><path class="cls-1" d="M51.56,14.89h0Z"/><path class="cls-1" d="M51.57,14.93v0A0,0,0,0,0,51.57,14.93Z"/><path class="cls-1" d="M51.51,14.53h0Z"/><path class="cls-1" d="M51.48,14.43a.34.34,0,0,0,0,.1h0S51.51,14.45,51.48,14.43Z"/><path class="cls-1" d="M51.49,14l0,.09s0-.05,0,0C51.54,13.91,51.53,14.07,51.49,14Z"/><path class="cls-1" d="M51.38,13.69s0,0,0,0S51.37,13.65,51.38,13.69Z"/><path class="cls-1" d="M49.88,12.3l0,0S49.89,12.28,49.88,12.3Z"/><polygon class="cls-1" points="49.46 12.32 49.49 12.35 49.52 12.33 49.46 12.32"/><polygon class="cls-1" points="49.3 12.04 49.31 12.04 49.25 12.03 49.3 12.04"/><path class="cls-1" d="M46.1,13.15h0S46.12,13.11,46.1,13.15Z"/><path class="cls-1" d="M45.48,14.52a.1.1,0,0,0,0,.09A.92.92,0,0,0,45.48,14.52Z"/><polygon class="cls-1" points="47.47 18.23 47.44 18.23 47.49 18.24 47.47 18.23"/><rect class="cls-1" x="2.59" y="5.66" width="20.85" height="13.67" rx="1.21"/><path class="cls-1" d="M22.23,19a.06.06,0,0,0,.07.1.83.83,0,0,0,0-.15Z"/><path class="cls-1" d="M22.84,19.14a.26.26,0,0,0-.07-.36c0,.17,0,.13,0,.33s-.16,0-.16,0-.13,0-.15.1a.25.25,0,0,0,.38-.12S22.84,19.11,22.84,19.14Z"/><path class="cls-1" d="M23.65,9.87l0,.06A.11.11,0,0,0,23.65,9.87Z"/><path class="cls-1" d="M21.25,5.38s.06,0,.06,0S21.24,5.36,21.25,5.38Z"/><path class="cls-1" d="M20.24,5.21h.06S20.25,5.2,20.24,5.21Z"/><path class="cls-1" d="M23.65,9.87l.05-.16C23.65,9.7,23.66,9.79,23.65,9.87Z"/><path class="cls-1" d="M23.06,18.06a.2.2,0,0,0,0,.08l0-.08Z"/><path class="cls-1" d="M23.77,12.47v0l.06,0Z"/><path class="cls-1" d="M23.79,14.46c0-.05-.12-.06-.17-.08a.13.13,0,0,1,.08.1Z"/><path class="cls-1" d="M23.57,17.61l0,.06Z"/><path class="cls-1" d="M23.8,11l0,0Z"/><path class="cls-1" d="M19.93,18.74v0S19.94,18.74,19.93,18.74Z"/><polygon class="cls-1" points="22.23 19.37 22.2 19.37 22.2 19.44 22.23 19.37"/><path class="cls-1" d="M18.4,5.05h0Z"/><path class="cls-1" d="M2.07,7.25c.11-.19.14.31.27,0C2.29,7.3,2.14,7,2.07,7.25Z"/><path class="cls-1" d="M23.08,18v-.08A.11.11,0,0,0,23.08,18Z"/><path class="cls-1" d="M2.34,7.27h0v0Z"/><path class="cls-1" d="M14.17,5.13a.07.07,0,0,0,0,0S14.2,5.15,14.17,5.13Z"/><path class="cls-1" d="M17.32,5.31l-.08,0Z"/><path class="cls-1" d="M12.53,5.3a.24.24,0,0,0-.12,0l0,0A.08.08,0,0,1,12.53,5.3Z"/><polygon class="cls-1" points="10.82 5.3 10.85 5.33 10.91 5.32 10.82 5.3"/><path class="cls-1" d="M14.74,18.8a.42.42,0,0,1,.08.12C14.8,18.83,15.05,18.79,14.74,18.8Z"/><path class="cls-1" d="M23.13,18.06s-.05,0-.05,0v0A0,0,0,0,0,23.13,18.06Z"/><path class="cls-1" d="M12.46,6.3l-.27,0Z"/><path class="cls-1" d="M3.19,18.46l0,0Z"/><path class="cls-1" d="M11.38,6.3a.4.4,0,0,0-.15-.09l0,0Z"/><path class="cls-1" d="M14.82,18.92Z"/><path class="cls-1" d="M16.61,18.62c-.26,0-.12.16-.18.26-.31,0-.14-.13-.25-.21s-.34.19-.48.19,0,0,0-.07c-.2.13-.6,0-.84.17l0,0a.37.37,0,0,1,0,.22c-.12,0-.22.11-.26,0s.08,0,.11-.07l-.12,0c-.11-.15.17-.05.17-.17a2,2,0,0,1-.7.14c0-.15.43,0,.18-.19l.28.06c-.21-.24.17,0,0-.24-.37,0-.42.08-.78,0-.09.09,0,.13-.06.21-.52.16-.41-.38-.8-.18-.09.11-.13.3-.41.2l.1-.18c-.36,0-.21.25-.58.14.06-.07.28-.06.22-.08-.24-.14-.17.1-.35.1l0-.16c-.38,0-.8.14-1.22.17,0-.05.09-.1,0-.14a5.62,5.62,0,0,1-1.64-.11l-.2.13s-.08-.06,0-.09c-.2-.05,0,.09-.11.14s-.15-.08-.08-.12a2.46,2.46,0,0,1-1.37.1l.07,0c-.29,0-.33.27-.6.15l.06,0a7.15,7.15,0,0,1-1.8-.14c-.1.19-.63-.08-.67.18a3.88,3.88,0,0,1-.58-.29c-.05,0-.16.12-.27.08l.07-.11-.2,0a.89.89,0,0,1,.08-.17l-.08-.05a.13.13,0,0,1,0,.12c-.17-.1-.07-.38,0-.38a1.83,1.83,0,0,1-.13-.48c.06,0,.08.11.11.19-.14-.31.15-.06,0-.34,0,0-.08,0-.11,0a1.41,1.41,0,0,0,0-.7l.09.05c0-.43,0-.91,0-1.39,0,.18-.21.14-.22,0l.14-.06c-.09-.09-.05.15-.16,0s.16-.12.21,0l0-.22s.07,0,.12.05.15-.37,0-.5h0c0-.48,0-.7,0-1.09-.13,0-.1-.16-.2-.28a5.43,5.43,0,0,0,.13-1c-.07-.24-.11-.07-.19-.18.12,0,.11-.36.19-.18A5.63,5.63,0,0,0,3,11c0,.06-.06.12-.1.09s0-.22.1-.2v0c-.17-.59.34-1.36.1-1.83v0L3,8.59c0-.23.08.13.15,0-.19-.52,0-.83-.1-1.26A.54.54,0,0,0,3.21,7a2.29,2.29,0,0,1,0-.25c0-.15.13-.33.28-.29l0-.06c0-.1.09,0,.12,0s-.08,0-.07-.1c.16-.16.79-.06,1.28,0s1,.12,1.54.16S6.55,6,7,6.17l-.13.15c.75-.18,1.54,0,2.27-.15,0,0-.05.08-.12.08.16.11.58,0,.58-.08s0,.08.1.12.39-.14.47,0,0,0-.07,0,.47,0,.37-.11c.28.06.53-.05.75,0,.14-.14.47.07.52-.13,0,.2.48.16.65.07-.05.06.16.06.09.15.2,0,.38,0,.34-.15.37.25.74-.19.95.12.59-.11,1.13-.18,1.67-.23,0,.2-.59,0-.57.23a4.58,4.58,0,0,1,1.3-.21c.13,0-.08.09-.12.13.5-.09,1,0,1.42-.1,0,0-.05,0-.09.06s.2,0,.19-.06l-.09,0c-.14-.13.36-.28.37-.35-.15.27.44.07.21.4.05,0,.13-.06.11-.12s.12,0,0,.12c.32,0,.2-.15.49-.14,0,0-.06.06-.09.11A.74.74,0,0,1,19.14,6s0,.07-.05.07c.41,0,.71-.23,1.16-.15-.13.19.16.06.18.23l.25,0L20.58,6c.21,0,.4-.12.59-.07L21,6l.4,0-.23-.06c.22-.09,0-.21.27-.17-.06,0,.21,0,.32.1h0a.48.48,0,0,1,.38-.06s0,.18,0,.22c.13-.15.39,0,.55-.09a.17.17,0,0,0-.08.12L22.72,6c.06.08.05.09,0,.15.17.15.07-.23.23,0,0,0,0,0-.07,0,.17.22.39.44.34.74-.16.07-.06-.22-.19-.12a7.34,7.34,0,0,1,.17,1.38l0-.09c.23.07-.12.34,0,.58,0-.06-.13-.08-.1-.06a4.1,4.1,0,0,0,.13,1.11l-.06-.06a5.2,5.2,0,0,0-.06.69c.06.06.05.17.14.1-.35.62.19,1.18-.1,1.72,0-.06-.06-.15-.06-.1l.06.47c.1,0,.06-.07.14-.16a.47.47,0,0,1,.11.3c-.07-.21-.17,0-.22.09s.06,0,.1,0c-.19.25.2,0,.08.37h-.05c0,.12.1.24.08.37s-.06-.13-.15-.14c0,.19.22.37.1.54,0-.08,0-.19-.06-.27a.46.46,0,0,0-.13.34h0l-.06.31,0-.08c.31.24.05.48.26.8-.2-.31-.11-.05-.25-.07s-.08.2-.12.16c.11.15-.08.25.08.47-.05,0,0,.16-.12.12,0,.2.08,0,.13,0,.15.3-.18.71,0,1.14s.23.44.3.79c-.07.11-.16-.1-.16-.1a.81.81,0,0,0,0,.51s-.07,0-.12.05.16.11.08.26a.83.83,0,0,1-.16-.12.83.83,0,0,1,.06.42c-.08,0-.07-.13-.1-.18,0,.14-.11.36-.07.47l.11-.05c0,.05-.1,0-.1-.09s.14-.14.19-.13l0,.11c.14,0,.19-.11.19-.25s-.07-.27-.06-.4l.19.1-.16-.25c.05-.06.15-.1.18,0,.09-.18-.06-.16,0-.31s0,0,0,0l-.05-.17s.13,0,.1.08c.11-.32-.14-.51,0-.63v0c-.06-.43-.13,0-.29-.37l.33-.22-.13,0s0-.13.07-.12c-.1-.16-.06,0-.15-.06.12-.22-.06-.6.16-.65-.11-.07-.08.21-.15,0,.23-.07,0-.27.06-.46.12.06.06.24.17,0-.21-.12,0-.39,0-.55-.16,0-.06-.37-.12-.64.06,0,.09-.53.15-.79h0c-.17-.05-.14-.32-.17-.51.1,0,.14,0,.18.15v-.19a.32.32,0,0,1-.1-.22l.12.05c0-.24-.14-.49-.06-.8-.11,0-.32.25-.4-.09.07,0,.17,0,.2.07s-.05-.11,0-.16l.11.13c0-.14-.09-.08-.08-.19s.06-.08.13-.07,0,.1,0,.15A.59.59,0,0,1,23.8,11a.1.1,0,0,1-.13-.09c0-.25.1-.09.15-.23s0-.21-.13-.22.06-.08.1-.11,0-.59-.16-.45v0h0c-.13-.41.08-.85,0-1.26h.05A2.81,2.81,0,0,0,23.55,8c0-.08.08-.17.14-.14a.65.65,0,0,1,0-.48c.07.19.06-.07.05.19,0-.24.11-.3,0-.56.11.1.15-.18.09-.36a1.55,1.55,0,0,1-.06.23c0-.16,0-.3-.07-.44l.16,0a.93.93,0,0,0-.51-.76,2.62,2.62,0,0,1-.68-.41c-.19,0,.32.17.13.24a4.83,4.83,0,0,0-.63-.34c-.31-.08-.29.22-.62.16,0,.06.08.2-.16.25s-.28-.22-.14-.27.08,0,.08,0,.17,0,.08-.1l0,.06c-.11-.06-.43,0-.35-.14-.18,0-.08.09,0,.12a6.32,6.32,0,0,0-.76-.06c.05,0,.09.09,0,.09-.44-.06-.19.1-.49.13s.06-.2-.24-.13,0-.14,0-.18c-.27.1-.51-.07-.67-.09l.14,0a.9.9,0,0,1-.23,0l.09.11c-.09,0-.16,0-.16-.06s.07.17-.11.27c-.11-.06-.34.06-.38-.08.36,0,0-.15.26-.17a.37.37,0,0,1-.21,0s0,0,0,0c-.34-.13-.16.16-.51.16.05-.08-.08-.15-.14-.14.14,0,.07.14-.06.2s-.25,0-.37,0l.14,0c-.05.08-.16.07-.32.1s.14,0,.09-.07c-.18.14-.4-.15-.65-.05-.11-.06,0-.15-.11-.19-.27.11-.29-.11-.58,0,.08.11.09.08-.11.18l.48-.07L16,5.36c.14,0,.3-.06.39-.05-.15.09-.13.07-.06.15-.2-.16-.39.1-.62,0V5.18c-.34-.11-.61.14-1.05.07l.14,0c-.06.11-.27,0-.41.06,0-.09-.08-.12-.14-.18s-.33,0-.37.17l-.19-.11c-.36,0-.41.25-.75.22.1-.1-.06-.16.17-.23-.11,0-.22,0-.22,0s-.32.12-.42,0-.07.13-.19.12,0,0,0,0-.2.06-.09.16c-.36-.28-1,0-1.3-.22a7.19,7.19,0,0,1-.78.06s0,0,0,0c-.32-.08-.2.25-.55.16-.18-.14.19-.08.07-.13-.05-.29-.43,0-.67-.13l.06,0c-.18-.1-.45.11-.75.09a0,0,0,0,0,0,0,2.16,2.16,0,0,1-.88.24c.09-.12.13-.06.08-.18s0,.19-.22.22C7.18,5.51,7,5.45,7,5.33h.25c-.13-.16-.32,0-.45,0l0-.07c-.37,0-.38.2-.78.19l0,0c-.22.17-.18-.1-.4,0l-.07-.18a4,4,0,0,1-.76.21,2.64,2.64,0,0,1,.64-.28,1.24,1.24,0,0,0-.57.1c.06,0,.14-.06.19,0a1,1,0,0,1-.69.2c0-.32-.69-.14-1.09-.27a2.77,2.77,0,0,0-.85.63,1.53,1.53,0,0,0-.38,1c.27-.2,0,.18.28.14,0,.14,0,.19,0,.2l-.17.42c-.08.1-.06-.13-.12-.12,0,.3-.11.13-.19.32C2,7.85,2,8,2,8.17l.12-.24c.15.42-.23.36-.08.78l-.09-.13c.05.22,0,.8.22,1,0,0-.11.09-.13,0,0,.52.24,1.15.1,1.55l-.07,0c0,.09.13.16.06.28s-.06,0-.07,0a.71.71,0,0,1,.08.39L2,11.68c-.08.5.19.77.23,1.2-.19,0-.26.39-.29.59h0A8.53,8.53,0,0,0,2.18,15C2,15.35,2.09,16.16,2,16.7c0-.08.16,0,.18.11s.13.36,0,.34v0c-.18.1-.13.36-.14.56l.24,0a.88.88,0,0,0-.13.46,1.27,1.27,0,0,0,.17.66c.23.41.56.6.67.84a1.73,1.73,0,0,0,.59.09l0,.12a1.12,1.12,0,0,0,.34.05l.22,0c.14,0,.3,0,.52,0L4.47,20c.25,0,.31-.36.54-.37l.07.19a3.4,3.4,0,0,0,1.31,0s0,.08-.09.09c.21,0,.79.13.72-.13,0,.17.45,0,.68-.06l0,.13c.2-.16.2-.21.48-.25.07,0,.06.1,0,.07.22.06.17-.12.44-.06l-.1.08c.22,0,.21,0,.33-.12s.43,0,.46.14a.28.28,0,0,1,.29-.13c0,.05,0,.07-.06.09.38.08.56-.15.82,0a.12.12,0,0,0,0,.08,3.2,3.2,0,0,1-.52,0c0,.11.24.13.05.29a1.53,1.53,0,0,1,.76-.22l0,0h0a.2.2,0,0,0,.15,0,.63.63,0,0,0,.19,0c0,.1.28.05.4.06s.15-.11,0-.21c0,0,0,0-.1,0h-.35a.29.29,0,0,1,.33,0l.17-.2c.16.17.48.27.53.38.37-.07.86-.05,1.1-.29.1,0,.12.07.16.11s-.14,0-.17,0c.21-.06.62,0,.67-.19.27.08-.15.15.22.13l0,.05c.71.26,1.16-.42,1.95-.08-.06,0-.08,0-.1-.06.91.15,1.86-.14,2.75.09.25.05.28-.05.44-.13l0,.13.27-.15c.37-.12.64.33,1.12.11l-.06-.09c.17,0,.53-.05.51,0s.05-.09.12,0v.07l.42-.12c.33.05-.05.28.42.3.18,0,.5-.21.44-.26s-.18,0-.19-.11l.16,0c0-.21.16-.42-.24-.57l-.27.13-.09-.1h.23c-.13-.09-.22,0-.31.05a.2.2,0,0,0-.11-.11l-.27.2c0-.08.12-.16-.06-.21s.12.19-.09.25c-.13-.1-.1-.18-.25-.09s0-.09.07-.12c-.13.07-.36,0-.43.14-.14-.12-.47,0-.45-.17a.8.8,0,0,1-.37.17c.23-.24-.47,0-.41-.27-.17.21-.62.09-.92.21,0,0,.05-.05.08,0a1,1,0,0,1-.33-.12c0,.18-.29.22-.43.32-.21-.16.12-.2.06-.36,0,.14-.36.14-.29.26-.16-.11-.14-.05-.22-.2,0,.22-.15,0-.28.17-.24-.11-.06-.2-.32-.14S16.61,18.62,16.61,18.62Zm-6,.38Zm-.51,0h.22c0,.05,0,.09,0,.09S10.15,19,10.07,19Zm1.07.87c-.08,0-.11,0-.12,0l.14,0h0A.07.07,0,0,1,11.14,19.87Z"/><path class="cls-1" d="M11.29,19.71h0l-.05,0,0,0Z"/><path class="cls-1" d="M23.63,9.94h0a0,0,0,0,1,0,0Z"/><polygon class="cls-1" points="3.44 18.65 3.42 18.68 3.46 18.66 3.44 18.65"/><path class="cls-1" d="M23.2,12.73l0,0S23.18,12.75,23.2,12.73Z"/><path class="cls-1" d="M23.17,13.94l-.05.17A1,1,0,0,0,23.17,13.94Z"/><path class="cls-1" d="M23.11,14.87l.05,0h-.05Z"/><path class="cls-1" d="M17.39,6.15h0C17.27,6.18,17.32,6.17,17.39,6.15Z"/><path class="cls-1" d="M21.77,5.85a.35.35,0,0,1-.14.06C21.71,5.92,21.77,5.93,21.77,5.85Z"/><polygon class="cls-1" points="12.49 6.3 12.49 6.3 12.46 6.3 12.49 6.3"/><path class="cls-1" d="M21.43,5.91a.28.28,0,0,0,.2,0A.67.67,0,0,0,21.43,5.91Z"/><path class="cls-1" d="M22.89,18.6l0,0a0,0,0,0,1,0,0Z"/><path class="cls-1" d="M22.88,18.64v0A0,0,0,0,0,22.88,18.64Z"/><path class="cls-1" d="M22.85,18.75l0-.07S22.83,18.72,22.85,18.75Z"/><path class="cls-1" d="M23.11,17.66l-.05,0Z"/><path class="cls-1" d="M23.09,17.29c0,.08-.09.22-.06.34h0C23,17.59,23.17,17.37,23.09,17.29Z"/><path class="cls-1" d="M23.66,15.73l0,.31c.05,0,.12-.13.13,0C23.89,15.66,23.64,16.14,23.66,15.73Z"/><path class="cls-1" d="M23.73,14.76c0,.17.07,0,.1,0S23.77,14.63,23.73,14.76Z"/><path class="cls-1" d="M23.73,7.76h.11C23.83,7.64,23.8,7.77,23.73,7.76Z"/><path class="cls-1" d="M23.07,6.54a.49.49,0,0,1,0,.11l.12,0A.57.57,0,0,0,23.07,6.54Z"/><path class="cls-1" d="M23.12,5.4l.07,0a1.08,1.08,0,0,0-.28-.11A.9.9,0,0,1,23.12,5.4Z"/><path class="cls-1" d="M11.12,5.19l0,.14C11.25,5.31,11.27,5.15,11.12,5.19Z"/><path class="cls-1" d="M6.05,5.34a.23.23,0,0,0-.29,0C5.87,5.3,6,5.36,6.05,5.34Z"/><polygon class="cls-1" points="2.03 17.95 1.98 17.85 2.02 18.04 2.03 17.95"/><polygon class="cls-2" points="9.51 9.35 9.51 15.48 16.59 12.09 9.51 9.35"/><line class="cls-1" x1="33.15" y1="1.11" x2="23.31" y2="28.73"/><path class="cls-1" d="M23,28.63s.12.05.12,0L23,28.55Z"/><path class="cls-1" d="M23.38,28.45a.41.41,0,0,0-.29-.18c.12.09.06.08.2.19s-.07.05-.12,0-.05.05,0,.1.15-.07.09-.18A.25.25,0,0,1,23.38,28.45Z"/><path class="cls-1" d="M25,24.61l0,0Z"/><path class="cls-1" d="M25.94,22.21s0,0,0,0S26,22.21,25.94,22.21Z"/><path class="cls-1" d="M26.24,21.86l0,0S26.25,21.86,26.24,21.86Z"/><path class="cls-1" d="M25,24.61l.06-.05S25,24.59,25,24.61Z"/><path class="cls-1" d="M23.23,27.79s0,0,0,.05a.08.08,0,0,1,0,0Z"/><path class="cls-1" d="M24.73,25.72v0l.05,0Z"/><path class="cls-1" d="M24.46,26.55s-.11-.06-.16-.09.07.05.07.07Z"/><path class="cls-1" d="M23.78,27.78v0A0,0,0,0,0,23.78,27.78Z"/><path class="cls-1" d="M25,25.15h0Z"/><path class="cls-1" d="M32.25,1.86h0Z"/><path class="cls-1" d="M33.18,1.12v0l.07,0Z"/><path class="cls-1" d="M26.67,21.15h0S26.67,21.17,26.67,21.15Z"/><path class="cls-1" d="M29.06,14.16c-.14,0-.09-.18-.26-.1C28.86,14.06,29,14.23,29.06,14.16Z"/><path class="cls-1" d="M23.26,27.77a0,0,0,0,1,0,0S23.25,27.76,23.26,27.77Z"/><path class="cls-1" d="M28.8,14.06Z"/><path class="cls-1" d="M27.22,19.38h0Z"/><path class="cls-1" d="M26.58,20.62l0,0Z"/><path class="cls-1" d="M27.29,18.64s0,0,0,0h0S27.31,18.63,27.29,18.64Z"/><path class="cls-1" d="M27.54,17.94h0v0Z"/><path class="cls-1" d="M31.54,4h.12C31.57,4,31.58,3.89,31.54,4Z"/><path class="cls-1" d="M23.3,27.81s0,0,0,0a0,0,0,0,0,0,0Z"/><path class="cls-1" d="M26.35,18.28l.06-.11Z"/><path class="cls-1" d="M29.76,9.07V9A0,0,0,0,0,29.76,9.07Z"/><path class="cls-1" d="M26.51,17.83a.18.18,0,0,0,.11,0l0,0Z"/><path class="cls-1" d="M31.66,4Z"/><path class="cls-1" d="M31.64,3.19c0,.11.14.11.22.16s-.14,0-.23,0,.13.21.11.27,0,0-.07,0c.09.13-.09.26,0,.41h-.05a1.09,1.09,0,0,1,.23.06s.06.12-.05.11,0,0-.05-.07l0,.06c-.17,0,0-.09-.14-.12s.1.27,0,.33,0-.19-.15-.14l.09-.1c-.26,0,0-.06-.23-.07-.1.14,0,.2-.08.34.07.06.12,0,.19.09.07.27-.43,0-.29.27.08.07.26.15.12.23l-.15-.09c-.07.14.21.16,0,.28-.05,0,0-.14,0-.12s.07.1,0,.18l-.15,0c0,.17,0,.38,0,.56,0,0-.08-.07-.14,0a1.06,1.06,0,0,1-.34.64l.09.12s-.07,0-.08,0,.08,0,.11.09-.09,0-.12,0c0,.18.08.5-.11.6l0,0c-.1.1.2.23.05.29l0,0c-.14.23-.13.56-.39.69.17.1-.17.23.07.34-.17.1-.2,0-.36.22s.13.14.13.22l-.13-.05.1.14h-.17V9s.07,0,.11,0-.18.21-.25.19l0,.28s0-.07-.08-.12c.09.18-.14,0-.06.14,0,0,.07,0,.1,0s-.15.17-.15.28l-.08-.06c-.09.17-.09.39-.17.59a.16.16,0,0,1,.22.08l-.15,0c.07.07.07,0,.15.08s-.17,0-.2-.07v.11s-.06,0-.11-.06-.19.1-.06.21h0a3.46,3.46,0,0,0-.11.47c.12,0,.07.1.15.18-.08.1-.22.2-.26.35s.09.06.14.14c-.11,0-.15.11-.2,0a1.13,1.13,0,0,0-.05.47c.06,0,.08,0,.12,0s-.08.08-.13,0h0c.08.3-.52.45-.36.72h0l.05.24c-.05.09-.06-.08-.15,0,.1.28-.15.33-.09.56-.38,0-.16.49-.43.61h.08c.06.08-.06.05-.09.08s.08,0,.11,0a3.56,3.56,0,0,1-.63,1.2c-.07.15.37.23.12.36L27.16,16c.05.37-.24.63-.2,1,0,0-.07-.05-.06-.08s-.09.24,0,.27-.08,0-.14,0,.08.2,0,.2,0,0,0,0-.08.19,0,.19c-.09.09,0,.24-.12.3.11.11-.14.17,0,.26-.19-.08-.22.14-.16.25-.05,0-.08,0-.15,0s0,.17.08.19c-.28.07.08.37-.24.35a4.77,4.77,0,0,1,0,.77c-.19-.08.07-.25-.14-.31,0,.23.13.41,0,.6-.05,0-.07-.06-.1-.09,0,.24-.16.4-.12.62,0,0,0,0,0-.06s-.06.08,0,.1v0c.15,0,.21.24.28.27-.23-.15-.13.16-.41-.05a.15.15,0,0,0,.1.09s-.07,0-.12,0c0,.14.11.13.06.25s-.05-.05-.09-.08.12.18.05.27-.06,0-.05-.05c-.05.18.11.37,0,.53-.17-.12-.09.05-.25,0v.12l.09,0c0,.09.06.21,0,.27l0-.09,0,.18.09-.08c.05.12.21.07.12.17s0,.09-.14.1h0c0,.06.07.13,0,.18s-.18-.08-.21-.08,0,.22.08.33a.33.33,0,0,0-.13-.07l.1.08c-.05,0-.07,0-.14,0s.22,0,.08.15,0,0,0-.05c-.1.13,0,.31-.13.43s0-.14-.15-.14c0,.21.05.47-.06.65l0,0c.22.11-.16.1-.09.23s-.11-.07-.09-.06,0,.29,0,.51l-.05,0c-.08.06-.1.19-.15.27s0,.09.11.09c-.42.13,0,.55-.35.67,0,0,0-.08,0-.06l0,.21c.11,0,.07,0,.16,0a.15.15,0,0,1,.06.16c0-.11-.16-.06-.23,0s.07,0,.1,0c-.21,0,.19.08,0,.18l-.05,0c0,.06.06.14,0,.19s0-.08-.13-.11.16.23,0,.25,0-.09,0-.13-.13,0-.17.1h0l-.11.11.05,0c.26.21,0,.22.13.42-.14-.19-.1-.06-.23-.12s-.1.06-.13,0-.12.08,0,.22c0,0,0,.06-.13,0s.08,0,.13,0-.28.22-.14.47.15.26.17.43c-.08,0-.14-.09-.14-.09a.14.14,0,0,0-.07.2.18.18,0,0,0-.13,0c0,.06.14.09,0,.15a.81.81,0,0,1-.14-.12,2.58,2.58,0,0,0,.08.26c-.08,0-.1-.08-.14-.12s0,.23.1.29l.06,0s-.1,0-.12,0,.08-.09.12-.08v.06c.26,0,0-.21.08-.31l.17.1-.11-.15s.15,0,.16.07,0-.09.08-.12,0,0,0,0l0-.09s.13,0,.08.07c.15-.1-.05-.26.1-.26h0c0-.2-.12-.06-.22-.25l.35,0-.13-.07s0,0,.09,0-.06,0-.13-.08c.15-.05,0-.27.24-.21-.08-.07-.1.06-.14-.06.24,0,0-.13.13-.17s0,.12.15.07c-.17-.11.1-.14.09-.22s0-.17,0-.31c0,0,.16-.18.25-.27h0c-.15-.07-.08-.17-.08-.26a.21.21,0,0,1,.15.12l0-.08a.14.14,0,0,1-.06-.12l.11.06c0-.1-.07-.25.06-.35-.11,0-.34,0-.37-.17.06,0,.17.05.18.09s0-.06,0-.07l.08.09c.06-.05-.07-.06,0-.11s.07,0,.14,0,0,0,0,.06a.19.19,0,0,1,.17-.09s-.11,0-.11-.09.12,0,.18,0,0-.09-.09-.13.07,0,.11,0,.07-.25-.08-.23h0c-.06-.22.2-.33.2-.52h.05c0-.11.05-.23,0-.34s.1,0,.15,0,0-.11.06-.2c.05.11.08,0,0,.1.07-.09.14-.09.07-.23.09.07.16,0,.15-.09l-.11,0a.3.3,0,0,1,.06-.14l.13.07c.25-.14-.16-.47.18-.53-.08-.09-.11.09-.2,0s.29-.11.3-.14-.17-.2-.06-.31c-.06,0-.2,0-.21-.15s.25,0,.27,0,0,0,0,0,0,.09.08.07l0,0c.06,0,.1-.16.18-.1,0-.09-.08-.06-.12,0,.12-.09.07-.19.16-.29s-.1,0-.09,0-.07-.11-.05-.24.18.09.16-.06.14,0,.17.08c-.06-.15.14-.19.18-.25l0,.07a.16.16,0,0,1,0-.1h-.11s0-.06.08,0-.18,0-.24-.14,0-.16.13-.13c-.09.13.14,0,.12.16,0,0,0-.06,0-.09l0,0c.17-.1-.13-.12-.08-.26.07,0,.16,0,.15,0s-.14,0-.18-.1,0-.11,0-.16l0,.05c-.07-.05,0-.09,0-.17s0,.08.05.06.2-.11.15-.25.14.05.19,0,.15-.08.11-.23-.09,0-.16-.11v.22l-.1-.18c0,.06,0,.15,0,.18s0-.07-.14-.07c.19,0,0-.2.11-.25l.25.09c.16-.1,0-.3.09-.46l-.07.05c-.09-.06,0-.12,0-.19s.13,0,.19,0,.05-.13-.11-.21l.14,0c.1-.13-.18-.26-.1-.39.07.08.16,0,.19.15s0-.08,0-.1-.07-.17,0-.19-.12-.07-.09-.12h0s0-.1-.14-.09c.32,0,.13-.41.4-.46a1.86,1.86,0,0,1,0-.34s0,0,0,0-.21-.16-.07-.28,0,.1.11.08c.28.07,0-.2.22-.24v0c.12,0,0-.22,0-.34l.05,0a.58.58,0,0,1-.1-.45c.09.08,0,.08.15.1s-.18-.05-.17-.17a.53.53,0,0,1,.27,0l0,.1c.17,0,0-.13.09-.17l.06,0c0-.16-.13-.22-.06-.39h-.06c-.13-.15.12,0,0-.17l.18,0a1.34,1.34,0,0,1-.08-.39,1.29,1.29,0,0,1,.17.36c0-.06.06-.2,0-.26s0,.07,0,.08a.31.31,0,0,1-.09-.35c.31.14.19-.28.47-.27-.05-.25.2-.4.27-.65-.29,0,0-.07-.25-.15,0-.06,0-.08,0-.08l.22-.12c.09,0,0,.08.1.09s.13,0,.23-.07c-.1,0-.12-.09-.06-.15l-.16.06c-.07-.22.28-.07.2-.29l.06.08c0-.11.12-.33-.06-.49,0,0,.12,0,.12,0,.11-.2-.05-.55.14-.67l.06,0c0-.05-.1-.11,0-.14s.06,0,.07,0-.07-.15,0-.19l.06.08c.16-.18-.06-.39,0-.58a.32.32,0,0,0,.36-.14h0c.11-.24,0-.47,0-.72.25-.07.25-.44.44-.63,0,0-.14,0-.14-.1s-.08-.19.09-.12h0c.18,0,.17-.1.21-.18l-.22-.1c.4-.1.08-.62.42-.63,0-.08,0-.14-.05-.22L31,9a1.12,1.12,0,0,0,.16-.4l.07.07c.05-.1-.3-.25-.27-.35l.19,0c.06-.18.28-.3.18-.54,0,0,.08,0,.08.07s.23-.28,0-.34c.16,0,.08-.18,0-.3l.12,0c-.13-.13-.17-.15-.17-.28s.1,0,.06,0-.09-.11,0-.2l.06.07c0-.09,0-.1-.07-.18s.09-.17.2-.14c-.06,0-.13-.12-.08-.17a.14.14,0,0,1,.07.05c.14-.12-.05-.28.1-.34h.08c-.05.12-.09.22-.1.2s.17,0,.29.08c-.05-.11-.18-.31-.1-.39h0v0a.06.06,0,0,0,0-.07A.13.13,0,0,0,32,5.92c.09,0,.09-.1.11-.14s-.08-.1-.2-.07,0,0,0,0v0h0l0,.13c-.05-.06-.09-.12,0-.15l-.17-.14c.19,0,.33-.11.44-.09,0-.18.08-.37-.11-.55,0,0,.08,0,.12,0s0,.06,0,.09.07-.27-.08-.34c.11-.09.12.11.15-.05l0,0c.36-.21-.23-.62.21-.83,0,0,0,0-.07,0,.27-.32.14-.81.5-1.1.08-.08,0-.13-.07-.22l.13,0-.11-.16c0-.19.42-.15.28-.42h-.1c.05-.06,0-.24.13-.19s-.08-.06,0-.07l.07,0-.06-.21c.1-.12.26.12.35-.07s-.13-.28-.18-.27a.12.12,0,0,1-.14,0V1.14c-.19-.08-.38-.21-.57-.09l.08.15h-.11l0-.1c-.11,0,0,.08,0,.14a.16.16,0,0,0-.12,0l.15.18c-.08,0-.13-.11-.2-.05s.19,0,.21.12-.17,0-.12.07-.08,0-.09-.06,0,.16.06.22c-.13,0,0,.2-.22.13a.35.35,0,0,1,.1.21c-.19-.18-.08.19-.32.08.18.14,0,.28.07.45,0,0,0,0,0,0s-.11.07-.16.1c.16.07.16.19.25.29-.2,0-.18-.13-.35-.16.14,0,.09.2.21.21-.12,0-.07,0-.22,0,.2.08,0,.07.12.17-.13.06-.2,0-.18.08S31.64,3.19,31.64,3.19Zm-.52,2.62h0l0-.06S31.12,5.78,31.12,5.81ZM31,6a.36.36,0,0,0,0-.09s.08,0,.07.05S31.09,6,31,6Zm1-.15s0,0-.05,0a.15.15,0,0,0,0-.07h0Z"/><path class="cls-1" d="M31.9,5.75h0l0,0Z"/><path class="cls-1" d="M25,24.64h0S25,24.64,25,24.64Z"/><polygon class="cls-1" points="29.79 8.82 29.82 8.83 29.8 8.8 29.79 8.82"/><path class="cls-1" d="M24.14,25.64h0Z"/><path class="cls-1" d="M23.94,26.13l-.07.05Z"/><path class="cls-1" d="M23.74,26.49l.05,0h0Z"/><path class="cls-1" d="M25.77,20.36v0S25.76,20.33,25.77,20.36Z"/><path class="cls-1" d="M25.41,22.27a.3.3,0,0,1,0-.08S25.34,22.24,25.41,22.27Z"/><path class="cls-1" d="M26.35,18.29Z"/><path class="cls-1" d="M25.4,22.11a.07.07,0,0,0,0,.08A.08.08,0,0,0,25.4,22.11Z"/><path class="cls-1" d="M23.1,28.13h0Z"/><path class="cls-1" d="M23.11,28.15v0A0,0,0,0,0,23.11,28.15Z"/><path class="cls-1" d="M23.13,28.23l0-.05A0,0,0,0,0,23.13,28.23Z"/><path class="cls-1" d="M23.34,27.64l-.05,0Z"/><path class="cls-1" d="M23.38,27.48s-.13.06-.12.12l0,0C23.24,27.57,23.44,27.54,23.38,27.48Z"/><path class="cls-1" d="M24.14,27l-.08.12c.06,0,.13,0,.12.05C24.38,27.08,24.06,27.19,24.14,27Z"/><path class="cls-1" d="M24.35,26.66c0,.07.07,0,.1,0S24.41,26.62,24.35,26.66Z"/><path class="cls-1" d="M25.38,23.77l.11,0S25.45,23.8,25.38,23.77Z"/><polygon class="cls-1" points="25.02 23.02 24.93 23.04 25.02 23.1 25.02 23.02"/><polygon class="cls-1" points="25.91 22.97 25.92 23 25.91 22.89 25.91 22.97"/><path class="cls-1" d="M27.6,18.1l-.14,0C27.47,18.12,27.62,18.18,27.6,18.1Z"/><path class="cls-1" d="M28.21,16c.07,0,.14,0,.08-.1S28.2,15.93,28.21,16Z"/><polygon class="cls-1" points="30.66 9.76 30.7 9.82 30.69 9.72 30.66 9.76"/></svg>