<svg id="Capa_1" data-name="Capa 1" xmlns="http://www.w3.org/2000/svg" viewBox="0 0 29.74 29.49"><defs><style>.cls-1{fill:#cd576a;}</style></defs><path class="cls-1" d="M23.63,2.66s-3.95,12.66-9.4,12.86S3.89,3.41,3.89,3.41Z"/><path class="cls-1" d="M23.64,2.83s0-.07-.07-.06l-.05.09Z"/><path class="cls-1" d="M23.12,2.7c-.09,0-.19.11-.13.19.08-.09.11-.05.2-.15s.14,0,.12,0,.12,0,.16,0a.38.38,0,0,0-.36,0S23.11,2.71,23.12,2.7Z"/><path class="cls-1" d="M15.59,2.85h0Z"/><path class="cls-1" d="M10.93,3S11,3,11,3,10.92,3,10.93,3Z"/><path class="cls-1" d="M10.13,2.92h0Z"/><path class="cls-1" d="M15.59,2.85l-.12,0S15.53,2.85,15.59,2.85Z"/><path class="cls-1" d="M22.09,2.93l.06,0h-.06Z"/><path class="cls-1" d="M17.64,2.71h0l0,0Z"/><path class="cls-1" d="M19.22,2.63s0,.07-.06.1a.14.14,0,0,1,.08,0A.17.17,0,0,0,19.22,2.63Z"/><path class="cls-1" d="M21.72,2.66h0Z"/><path class="cls-1" d="M16.51,2.73s0,0,0,0A0,0,0,0,0,16.51,2.73Z"/><path class="cls-1" d="M22.72,4.27h0S22.72,4.26,22.72,4.27Z"/><path class="cls-1" d="M23.65,2.67v0l0,0Z"/><path class="cls-1" d="M8.67,2.89h0S8.7,2.88,8.67,2.89Z"/><path class="cls-1" d="M7.71,11.11c0-.16.21.15.13-.07C7.83,11.07,7.63,10.93,7.71,11.11Z"/><path class="cls-1" d="M22.05,2.93h0Z"/><path class="cls-1" d="M7.84,11h0v0Z"/><path class="cls-1" d="M5.32,3.05s0,0,0,0Z"/><path class="cls-1" d="M7.82,3.06h0Z"/><path class="cls-1" d="M3.81,3.21H3.7S3.74,3.2,3.81,3.21Z"/><polygon class="cls-1" points="4.18 4.6 4.18 4.57 4.16 4.53 4.18 4.6"/><path class="cls-1" d="M21.14,8l.09,0C21.17,8,21.24,7.81,21.14,8Z"/><path class="cls-1" d="M22.09,2.9l0,0h0Z"/><path class="cls-1" d="M4.42,3.74h0Z"/><path class="cls-1" d="M15.15,15.07l0,0Z"/><path class="cls-1" d="M4.51,4a.29.29,0,0,0,0,.13h0Z"/><path class="cls-1" d="M21.23,8Z"/><path class="cls-1" d="M21.67,6.66c-.09.18,0,.12.07.18-.07.24-.11.08-.18.14a2.9,2.9,0,0,1-.07.38s0,0,0,0c0,.18-.2.43-.2.64h0a.19.19,0,0,1,.12,0c0,.09,0,.18-.09.18s0-.06,0-.09l0,.1c-.11,0,0-.13,0-.16a2.1,2.1,0,0,1-.18.52c-.09,0,.13-.31,0-.17l.13-.19c-.19.09.07-.11-.13,0-.15.25-.11.31-.26.56,0,.08.07,0,.09.09-.12.4-.35.18-.39.5,0,.1.1.18-.06.34l-.05-.11c-.14.24,0,.21-.16.43,0-.06.08-.21.05-.18s0,.15-.09.28l-.09,0c-.14.26-.25.58-.42.86,0,0,0-.09-.07,0a4.14,4.14,0,0,1-.77,1l0,.16s-.07,0-.06,0,0,0,0,.11-.1.07-.08,0a2.45,2.45,0,0,1-.64.86L18,13c-.17.14-.06.29-.25.39v0a4.31,4.31,0,0,1-1.07.87c0,.13-.41.24-.36.37-.27.09-.21,0-.57.16-.09,0-.09.16-.2.22l0-.07-.12.13-.12,0-.1.06s.1,0,.1,0a.51.51,0,0,1-.45,0,1.87,1.87,0,0,1-.4.13s.07-.05.12-.07c-.21.1,0-.08-.24,0,0,0,0,.05,0,.07a1.54,1.54,0,0,0-.5,0l0-.06a4.12,4.12,0,0,1-1-.19c.11.06.06.14,0,.12V15c-.08,0,.09.07-.06.07s-.05-.12,0-.11l-.16,0s0,0,.06-.05-.23-.17-.35-.14v0a6.69,6.69,0,0,1-.72-.39s-.14,0-.24,0-.33-.33-.53-.51-.08,0-.18,0-.17-.23,0-.17c-.25-.21-.31-.27-.64-.52,0,0,0,.09,0,.09S9.89,13,9.92,13h0c-.4-.27-.58-.91-.91-1.11h0l-.29-.25c-.1-.15.1,0,.05-.07-.33-.27-.38-.53-.63-.77,0-.32-.54-.76-.63-1.12l0,0c-.08-.06,0-.11-.06-.17s0,.1,0,.07A13.06,13.06,0,0,1,6.3,7.5c-.13-.26-.29,0-.37-.41l.12.06c-.36-.48-.55-1.07-.87-1.56,0,0,.05,0,.07.07,0-.14-.19-.41-.23-.39s0,0,0-.1-.2-.25-.18-.33,0,0,0,0-.15-.34-.18-.24c-.06-.21-.2-.37-.23-.54a.43.43,0,0,1-.12-.21c0-.1,0-.06-.08-.08.12,0,.05-.07,0-.15s.08,0,.12.08,0,0,0-.08,0,0,.09,0a1.38,1.38,0,0,0,.2,0c.13,0,.24,0,.33,0,.46-.08.89-.13,1.31-.18,0,.12-.46,0-.44.15a4.57,4.57,0,0,1,1-.15c.11,0,0,0-.09.07.4-.06.77,0,1.13-.1,0,0,0,0-.08,0s.16,0,.15,0H8c-.12-.07.27-.16.28-.2-.11.15.35,0,.17.21.05,0,.1,0,.09-.07s.09,0,0,.07c.25,0,.16-.09.39-.09,0,0,0,0-.07.06a.84.84,0,0,1,.42-.09s0,0,0,0a5.25,5.25,0,0,1,.92-.12c-.11.11.12,0,.14.12l.2,0-.08,0a4,4,0,0,1,.46-.05l-.12,0,.32,0-.19,0c.17-.06,0-.12.21-.1,0,0,.17,0,.26,0h0a.63.63,0,0,1,.29,0s0,.11,0,.13.4,0,.5-.13a.07.07,0,0,0,0,.08l.07-.06c.08,0,.09,0,.08.06.24,0-.08-.11.2-.07l-.05,0c.28,0,.54-.06.8,0,.08.1-.23,0-.13.11a11.18,11.18,0,0,1,1.13-.13h-.07c.05-.13.27.06.46,0,0,0-.06.07,0,.06a4.76,4.76,0,0,0,.88-.11l0,0c.14,0,.38,0,.54,0s.14,0,.08-.08c.49.17.93-.14,1.36,0-.05,0-.12,0-.08,0l.37,0c0-.06-.05,0-.13-.07a.43.43,0,0,1,.24-.07c-.16,0,0,.09.08.12s0,0,0-.06c.2.1,0-.12.3-.06l0,0a1,1,0,0,1,.3-.06c0,.06-.11,0-.11.09s.29-.14.42-.08l-.21,0a.51.51,0,0,0,.27.06h0l.26,0L19,3c.18-.18.38,0,.63-.17-.24.12,0,.07-.06.14s.17,0,.14.06.2.05.36,0c0,0,.13,0,.11.06.15,0,0,0,0-.07.23-.09.56.08.9-.05s.34-.14.62-.19c.09,0-.08.09-.08.09a.77.77,0,0,0,.4,0s0,0,.05.07.07-.09.22-.06a.27.27,0,0,1-.11.1l.4-.1s-.08.06-.13.09c.16,0,.4,0,.45-.12l-.1,0c.05,0,0,.06,0,.07s-.19,0-.2,0l.1,0c-.11-.14-.4,0-.59,0l.07-.11L22,2.79c-.05,0-.08-.08,0-.1-.15,0-.13,0-.25,0s0,0,0,0l-.13,0s0-.07.06-.06c-.25-.05-.4.09-.5,0h0c-.34.05,0,.08-.28.18l-.18-.19,0,.08s-.11,0-.1,0,0,0,0,.08-.47,0-.51-.07c-.06.06.17,0,0,.09-.05-.13-.21,0-.36,0,0-.07.19,0,0-.09-.09.12-.3,0-.43,0s-.29,0-.51.09a5.4,5.4,0,0,0-.62-.06h0c0,.09-.24.08-.4.1,0,0,0-.07.12-.1h-.15s-.08,0-.17.07l0-.07a2.93,2.93,0,0,1-.63.06c0,.06.2.17-.06.22,0,0,0-.09,0-.11s-.08,0-.13,0l.1-.06c-.11,0-.05,0-.14,0s-.07,0-.06-.07.08,0,.11,0a.62.62,0,0,1-.27-.07s0,.07-.07.08-.07-.06-.18-.08-.17,0-.17.08-.07,0-.09-.05-.47,0-.35.1h0c-.33.08-.68,0-1,0v0a3.65,3.65,0,0,0-.56.09C14,3,14,2.92,14,2.89a.75.75,0,0,1-.38,0c.15-.05-.05,0,.16,0a.78.78,0,0,0-.45,0c.07-.07-.14-.08-.24,0l.14,0h-.28l0-.09c-.39-.09-.7.2-1,0-.1.06.22,0,.13.11a2.51,2.51,0,0,1-.43-.12c-.25,0-.23.13-.49.11,0,0,.07.11-.13.14S10.81,3,10.92,3,11,3,11,3s.14,0,.06-.06l0,0c-.09,0-.34,0-.28-.06-.14,0-.06,0,0,.06-.23,0-.36,0-.6,0,0,0,.07.05,0,.05-.36,0-.16.07-.39.09s0-.11-.2-.06,0-.08,0-.11a1.15,1.15,0,0,1-.54,0l.12,0-.19,0,.07.05c-.07,0-.12,0-.12,0s.05.1-.08.16-.27,0-.31,0c.29,0,0-.08.21-.1a.47.47,0,0,1-.17,0s0,0,0,0c-.27-.06-.12.09-.4.1,0-.05-.07-.08-.11-.07S8.21,3,8.11,3s-.19,0-.29,0h.11c0,.05-.12.05-.25.06s.11,0,.07,0-.32-.07-.51,0,0-.08-.09-.1-.24,0-.47,0c.07,0,.08,0-.08.1L7,3l-.24.09c.11,0,.24,0,.31,0-.12.06-.11,0,0,.09-.16-.08-.31.06-.49,0V3c-.27,0-.47.1-.83.07l.12,0c0,.06-.22,0-.33.05s-.06-.07-.11-.1-.26,0-.29.11l-.16-.06c-.3,0-.27.15-.63.15.1-.06-.1-.09.18-.14-.15,0-.29,0-.27,0s-.32.08-.49,0c0,0,0,0,0,.17s0,0,0,0,.12.21.15.14c0,.1.09.41.17.58a1.1,1.1,0,0,1,.15.48l.29.55s0,0,0,0c.06.25.19.08.27.36s-.11-.12-.1,0,.17.3.17.51l0,0c0,.16.21.3.31.51H5A2.36,2.36,0,0,1,5.47,7c-.08,0-.07-.08-.11,0s.08-.08.19.1,0,.22,0,.27l-.09-.17c0,.13.11.22.15.32h0c.15.26.24.22.39.5V8c.17.11,0,.16.17.27l-.06.1c.07.09.28.3.4.47a2.16,2.16,0,0,1-.39-.36,1.36,1.36,0,0,0,.28.36s-.09-.08-.09-.12a1.16,1.16,0,0,1,.37.41c-.18.07.27.54.23.75.28.31.41.69.69,1.07,0-.22.08.11.19,0,.07.09.09.12.09.14l.12.32c0,.09-.09-.07-.11,0,.13.21,0,.12.07.28,0-.06.11,0,.18.14L8,11.54c.27.22.07.31.34.53L8.28,12c.13.12.4.51.61.55,0,0,0,.1-.06,0,.26.33.71.6.89.89H9.67c.06.05.14.05.19.14s0,0,0,0a.77.77,0,0,1,.26.19l-.09,0a2.67,2.67,0,0,0,.82.53c-.07.09.16.32.29.43h0a4.07,4.07,0,0,0,1.17.52,3.43,3.43,0,0,0,1.33.5c-.07,0,0-.08.11-.08s.3-.07.28,0h0c.08.1.31.09.48.07l0-.14c.5.18,1.12-.33,1.4-.27.08-.08.2-.14.28-.22l0,.07a3.32,3.32,0,0,0,.7-.42l0,.09c.18-.12.09-.33.24-.44l.11.05a3,3,0,0,0,.79-.72.09.09,0,0,1,0,.09c.12-.12.5-.42.35-.48.07.06.25-.26.34-.43l0,.06a.81.81,0,0,1,.14-.39s.07,0,0,.05c.13-.12,0-.15.19-.3v.1a.37.37,0,0,0,.1-.26c0-.11.22-.26.28-.25a.28.28,0,0,1,.08-.23s0,0,0,.06c.21-.22.19-.41.35-.55h.06c-.13.2-.25.35-.24.34s.17-.12.16.05a1.76,1.76,0,0,1,.23-.58h0v0a.27.27,0,0,0,.05-.11,1.06,1.06,0,0,0,.1-.12c.06,0,.14-.18.19-.26s0-.13-.1-.06,0,0,0,.08,0,0,0,0h0l-.11.2a.27.27,0,0,1,.11-.23l0-.18c.15-.06.33-.25.4-.25.11-.28.32-.62.28-.85,0-.08.08-.06.12-.08a.46.46,0,0,0,0,.13c.05-.16.22-.44.16-.52.13-.17,0,.14.14-.12v0c.4-.45.21-.93.64-1.42,0,0,0,0-.06,0,.38-.61.53-1.38.92-2,.1-.18.05-.22.06-.35h.08V4.92c.05-.3.36-.41.37-.81l-.06,0c.05-.13.12-.41.16-.37s0-.06,0-.1h0l.05-.33c.11-.24.13.09.26-.27,0-.13,0-.41,0-.37s-.06.13-.1.12l0-.13c-.11,0-.19-.18-.36.09V3l-.08,0,.05-.17c-.08.08-.05.16-.05.24s-.06,0-.09.06l0,.24c-.05,0-.05-.12-.13,0s.13-.06.11.11-.12,0-.11.16-.05,0,0-.07c0,.11-.09.27,0,.35s-.11.35-.21.3a.82.82,0,0,1,0,.3c-.05-.22-.14.34-.25.25.06.17-.13.47-.16.71a.06.06,0,0,1,0-.06,1,1,0,0,1-.16.21c.08.06,0,.26,0,.38C22,6.19,22.11,5.94,22,6c.08,0,0,.29.05.27-.11.09-.07.09-.17.11.1.07,0,.12,0,.24-.13.15-.13,0-.17.2S21.67,6.66,21.67,6.66Zm-2,4.28h0l.05-.08Zm-.22.34.1-.14s0,0,0,.06S19.48,11.24,19.43,11.28Zm.87-.46c0,.06-.05.07-.06.07l.05-.1h0Z"/><polygon class="cls-1" points="20.28 10.68 20.29 10.65 20.26 10.68 20.27 10.71 20.28 10.68"/><path class="cls-1" d="M15.65,2.86h0Z"/><polygon class="cls-1" points="15.53 14.89 15.53 14.91 15.56 14.88 15.53 14.89"/><path class="cls-1" d="M17.87,3h0Z"/><path class="cls-1" d="M18.82,3,19,3Z"/><path class="cls-1" d="M19.56,3a0,0,0,0,0,0,0h0Z"/><path class="cls-1" d="M7.89,3.53h0C7.8,3.55,7.84,3.54,7.89,3.53Z"/><path class="cls-1" d="M11.36,3.23l-.11,0C11.31,3.27,11.36,3.27,11.36,3.23Z"/><polygon class="cls-1" points="4.43 3.74 4.42 3.74 4.42 3.74 4.43 3.74"/><path class="cls-1" d="M11.09,3.27a.29.29,0,0,0,.16,0A.86.86,0,0,0,11.09,3.27Z"/><polygon class="cls-1" points="22.74 2.92 22.78 2.92 22.78 2.91 22.74 2.92"/><path class="cls-1" d="M22.78,2.91h0Z"/><path class="cls-1" d="M22.9,2.88l-.08,0A.11.11,0,0,0,22.9,2.88Z"/><path class="cls-1" d="M21.77,2.92V3S21.77,2.93,21.77,2.92Z"/><path class="cls-1" d="M21.47,2.94a1.14,1.14,0,0,0,.28,0V3C21.71,3,21.54,2.89,21.47,2.94Z"/><path class="cls-1" d="M20.23,2.67h.25c-.05,0-.1-.06,0-.07C20.17,2.54,20.55,2.67,20.23,2.67Z"/><path class="cls-1" d="M19.46,2.66c.13,0,0,0,0-.05S19.36,2.64,19.46,2.66Z"/><path class="cls-1" d="M13.92,2.87V2.81C13.83,2.82,13.93,2.83,13.92,2.87Z"/><polygon class="cls-1" points="12.87 3.24 12.97 3.28 13.02 3.21 12.87 3.24"/><polygon class="cls-1" points="12.23 2.81 12.27 2.8 12.1 2.83 12.23 2.81"/><path class="cls-1" d="M4,4.4l.06-.06C4,4.28,4,4.31,4,4.4Z"/><path class="cls-1" d="M5.89,8A.24.24,0,0,0,6,8.2,1.61,1.61,0,0,0,5.89,8Z"/><polygon class="cls-1" points="14.68 15.79 14.59 15.82 14.75 15.78 14.68 15.79"/><path class="cls-1" d="M5.24,27.83s3.82-12.69,9.28-12.95S25,26.89,25,26.89Z"/><path class="cls-1" d="M5.23,27.67s0,.07.07,0l0-.08Z"/><path class="cls-1" d="M5.76,27.79c.08,0,.19-.12.12-.19s-.11,0-.2.15-.13,0-.12-.05-.12,0-.16,0a.38.38,0,0,0,.36,0S5.76,27.78,5.76,27.79Z"/><path class="cls-1" d="M13.28,27.57h0Z"/><path class="cls-1" d="M17.94,27.39s-.05,0-.05,0S18,27.4,17.94,27.39Z"/><path class="cls-1" d="M18.74,27.44h0Z"/><path class="cls-1" d="M13.28,27.57l.12,0S13.34,27.57,13.28,27.57Z"/><path class="cls-1" d="M6.78,27.55l-.06,0h.06Z"/><path class="cls-1" d="M11.23,27.73h0l0,0Z"/><path class="cls-1" d="M9.65,27.82s0-.07.06-.1a.12.12,0,0,1-.07.05A.11.11,0,0,0,9.65,27.82Z"/><path class="cls-1" d="M7.15,27.81h0Z"/><path class="cls-1" d="M12.36,27.69v0A0,0,0,0,0,12.36,27.69Z"/><path class="cls-1" d="M6.14,26.21h0Z"/><path class="cls-1" d="M5.22,27.83v0l0,0Z"/><path class="cls-1" d="M20.2,27.46h0Z"/><path class="cls-1" d="M21.08,19.23c0,.16-.21-.15-.13.07C21,19.27,21.16,19.41,21.08,19.23Z"/><path class="cls-1" d="M6.82,27.55h0Z"/><polygon class="cls-1" points="20.95 19.3 20.95 19.3 20.96 19.33 20.95 19.3"/><path class="cls-1" d="M23.55,27.26l0,0S23.52,27.25,23.55,27.26Z"/><path class="cls-1" d="M21.05,27.28h0Z"/><path class="cls-1" d="M25.05,27.09a.75.75,0,0,0,.15,0h0S25.12,27.1,25.05,27.09Z"/><polygon class="cls-1" points="24.68 25.71 24.67 25.74 24.69 25.77 24.68 25.71"/><path class="cls-1" d="M7.68,22.44a.32.32,0,0,1-.09,0C7.65,22.47,7.58,22.66,7.68,22.44Z"/><path class="cls-1" d="M6.79,27.58s0,0,0,0h0S6.78,27.58,6.79,27.58Z"/><path class="cls-1" d="M24.44,26.56s0,0,0,0S24.46,26.57,24.44,26.56Z"/><path class="cls-1" d="M13.6,15.34l0,0Z"/><path class="cls-1" d="M24.35,26.34a.29.29,0,0,0,0-.13h0Z"/><path class="cls-1" d="M7.59,22.47Z"/><path class="cls-1" d="M7.17,23.82c.08-.19,0-.13-.08-.19.07-.23.11-.07.18-.13a3,3,0,0,1,.06-.39s0,0,0,0c0-.17.19-.43.19-.64h0a.14.14,0,0,1-.12,0c0-.08,0-.18.09-.18s0,.06,0,.09v-.09c.12,0,0,.13,0,.15a2.64,2.64,0,0,1,.17-.52c.09,0-.12.31,0,.17l-.12.19c.19-.1-.07.12.13,0,.15-.25.1-.31.25-.56,0-.08-.07,0-.08-.09.11-.41.34-.19.38-.51,0-.1-.1-.18.06-.34l0,.11c.15-.24,0-.2.16-.43,0,.07-.08.21,0,.18s0-.15.09-.27h.09c.14-.26.25-.58.41-.87,0,0,0,.1.07,0a4.58,4.58,0,0,1,.76-1l0-.17s.07,0,.06,0c.11-.11,0,0,0-.11s.1-.07.08,0a2.46,2.46,0,0,1,.63-.87l0,.06c.17-.15.05-.29.25-.4l0,0a4.15,4.15,0,0,1,1.07-.88c0-.14.41-.24.36-.38.27-.09.21,0,.57-.16.09,0,.08-.16.2-.22l0,.07.13-.14.11.06.1-.06s-.1,0-.1,0a.49.49,0,0,1,.45,0,2.12,2.12,0,0,1,.4-.14s-.07.05-.12.08c.21-.1.05.08.24,0,0,0,0-.05,0-.06a1.66,1.66,0,0,0,.51,0l0,.06a4.53,4.53,0,0,1,1,.18c-.11-.06-.05-.14,0-.12v.09c.08,0-.09-.07.06-.08s.05.13,0,.12l.17,0s-.05,0-.07,0,.23.17.35.14v0a6.69,6.69,0,0,1,.72.39c0-.06.14,0,.24,0l.54.51c.16.09.08,0,.17,0s.18.23,0,.17c.25.21.31.27.64.52,0,0,0-.1,0-.1s.09.15.06.16h0c.39.27.58.9.91,1.1h0l.3.25c.1.14-.11-.05-.06.07.34.27.39.53.64.76,0,.32.55.75.65,1.12l0,0c.09.05,0,.11.07.17s0-.11,0-.07a13,13,0,0,1,1.15,2.11c.13.26.28,0,.37.41l-.13-.05c.37.47.57,1.06.9,1.54,0,0-.06,0-.08-.06,0,.13.19.41.24.39s0,0,0,.09.2.25.18.33,0,0-.05,0,.15.34.18.24c.06.21.2.37.24.54a.45.45,0,0,1,.12.2c0,.1,0,.07.08.08-.12,0-.05.08,0,.15s-.08,0-.12-.07,0,0,0,.08,0,0-.08,0a1.52,1.52,0,0,0-.21,0c-.13,0-.24.05-.33,0-.46.08-.89.14-1.31.19,0-.11.46,0,.44-.15a5.17,5.17,0,0,1-1,.17c-.1,0,.06-.06.09-.08-.4.07-.77,0-1.12.11,0,0,0,0,.07,0s-.16,0-.15.05l.07,0c.11.07-.27.17-.28.21.11-.16-.36,0-.18-.22,0,0-.1,0-.09.07s-.09,0,0-.06c-.25,0-.16.09-.38.1,0,0,0,0,.06-.07a.79.79,0,0,1-.42.1s0,0,.05,0a5.38,5.38,0,0,1-.92.12c.1-.11-.12,0-.15-.12l-.19,0,.08,0a2.75,2.75,0,0,1-.47.06l.13-.05-.32,0,.18,0c-.17.06,0,.12-.2.11,0,0-.17,0-.26-.05h0a.47.47,0,0,1-.3.05s0-.1,0-.12-.39,0-.5.13a.06.06,0,0,0,0-.08l-.07.07c-.08,0-.09,0-.08-.07-.24,0,.08.12-.2.08,0,0,0,0,.05,0-.28,0-.54.07-.8,0-.08-.09.22,0,.13-.11a11.24,11.24,0,0,1-1.13.14h.07c-.05.14-.28-.05-.46,0,.05,0,.06-.08.05-.06a4.9,4.9,0,0,0-.88.12l0,0c-.15,0-.38,0-.54,0s-.14,0-.08.08c-.5-.17-.93.15-1.37,0,.06,0,.13,0,.09,0l-.37,0c0,.05.05,0,.13.07a.43.43,0,0,1-.24.07c.16,0,0-.09-.08-.12s0,0,0,.06c-.2-.1,0,.11-.3.06l0,0a1.45,1.45,0,0,1-.3.06c0-.07.11,0,.11-.09s-.29.14-.42.08a1.6,1.6,0,0,1,.21,0,.53.53,0,0,0-.27-.06h0l-.26,0,.07,0c-.18.18-.38.05-.63.17.24-.12,0-.06.06-.14s-.17,0-.14-.06c-.12.07-.2,0-.36.06s-.13,0-.11-.06c-.15,0,0,0,0,.07-.23.1-.56-.07-.9.06s-.34.14-.61.2c-.1,0,.07-.09.07-.09a.9.9,0,0,0-.4,0s0,0,0-.06-.07.09-.22.06a.27.27,0,0,1,.11-.1l-.4.11s.08-.07.13-.1c-.16,0-.4.06-.45.13l.1,0s0-.06,0-.07.19,0,.2,0l-.09,0c.1.14.39,0,.59,0l-.08.11.2-.1s.07.09,0,.11c.14,0,.12-.05.24,0s0,0,0,0l.14,0s0,.07-.06.06c.25,0,.39-.1.49,0h0c.34-.05,0-.08.28-.18l.18.18,0-.08s.11,0,.1,0,0,0,.05-.09.47-.05.51.07c.06-.06-.16,0,0-.09.06.13.21,0,.37,0-.05.07-.2,0,0,.1.09-.12.3,0,.44,0s.28-.05.5-.09a4.51,4.51,0,0,0,.62.05v0c0-.1.25-.09.4-.12,0,.06,0,.08-.11.11h.14a.27.27,0,0,1,.17-.06l0,.07a2.88,2.88,0,0,1,.63-.07c0-.06-.2-.17.06-.22a.08.08,0,0,1,0,.11.25.25,0,0,1,.13,0l-.1.06c.11,0,.05-.05.14-.05s.07,0,.06.07-.08,0-.11,0a.63.63,0,0,1,.27.06s0-.06.07-.07.07.05.18.07.17,0,.17-.08.07,0,.09.05.47,0,.35-.1h0a8.44,8.44,0,0,1,1,0v0a3.55,3.55,0,0,0,.56-.1c.06,0,.14,0,.12.07a.73.73,0,0,1,.38,0c-.15.05.05,0-.16,0a.77.77,0,0,0,.45,0c-.07.06.15.07.24.05l-.14,0a1.37,1.37,0,0,1,.28,0l0,.09c.4.08.7-.21,1,0,.1-.06-.22,0-.13-.1a2,2,0,0,1,.43.11c.26,0,.23-.14.49-.12,0,0-.07-.1.12-.14s.23.11.12.14-.06,0-.06,0-.14,0-.06.06l0,0c.09,0,.34,0,.28.06.14,0,.06-.05,0-.06.23,0,.36,0,.6,0,0,0-.08-.05,0-.05.36,0,.15-.06.39-.09s0,.11.2.06,0,.08,0,.11a1.32,1.32,0,0,1,.54,0l-.12,0a.65.65,0,0,1,.19,0l-.07-.06c.07,0,.12,0,.12,0s-.06-.1.08-.16.27,0,.31,0c-.29,0,0,.07-.21.1a.47.47,0,0,1,.17,0s0,0,0,0c.27.06.12-.09.4-.1,0,0,.07.08.11.07s-.06-.08.05-.11.19,0,.29,0h-.11c0-.05.12-.05.25-.06s-.12,0-.07,0,.32.06.51,0,0,.08.09.1.24,0,.47,0c-.07-.05-.08,0,.08-.11l-.38.06.24-.09c-.12,0-.24.05-.31,0,.11-.06.1,0,.05-.09.16.08.3-.06.48,0v.15c.27.05.47-.1.82-.08l-.11,0c0-.06.22,0,.33-.05s.06.06.11.09.26,0,.29-.11l.16.06c.3,0,.27-.15.63-.15-.1.06.1.08-.18.13.15,0,.28,0,.27,0s.32-.09.48-.05,0,0,0-.17,0,0,0,0-.13-.21-.15-.14c0-.1-.1-.41-.18-.58a1.09,1.09,0,0,1-.16-.47l-.29-.55s0,0,0,0c-.07-.24-.19-.07-.27-.35s.1.12.09,0-.17-.3-.17-.51l0,0c0-.16-.21-.29-.31-.51h0a2.6,2.6,0,0,1-.44-.56c.09,0,.07.08.11,0s-.08.07-.19-.1,0-.22,0-.27l.09.17c0-.13-.12-.22-.15-.32h0c-.16-.26-.25-.21-.4-.5v.05c-.17-.1,0-.16-.17-.27l.06-.1a5.36,5.36,0,0,1-.41-.46,2.16,2.16,0,0,1,.39.36,1.17,1.17,0,0,0-.27-.36.27.27,0,0,1,.09.12,1.09,1.09,0,0,1-.38-.41c.18-.07-.27-.53-.24-.75a12.43,12.43,0,0,1-.7-1.07c0,.22-.08-.11-.19,0-.07-.09-.09-.12-.09-.14L20.83,19c0-.09.09.07.11,0-.13-.2,0-.12-.07-.27,0,.05-.12,0-.18-.15l.06.2c-.27-.21-.07-.31-.35-.53l.1.06c-.13-.12-.4-.51-.61-.55,0,0,0-.1.06,0-.26-.34-.72-.61-.9-.89h.05c-.07-.05-.15-.05-.19-.14s.05,0,0,0a.77.77,0,0,1-.26-.19l.1,0a2.64,2.64,0,0,0-.83-.53c.07-.09-.17-.32-.3-.42h0a3.71,3.71,0,0,0-1.18-.51,3.27,3.27,0,0,0-1.34-.49c.07,0,0,.08-.1.08s-.3.07-.28,0h0c-.08-.1-.31-.09-.49-.06v.13c-.5-.17-1.12.35-1.4.29-.09.08-.2.14-.28.22l0-.07a3,3,0,0,0-.7.43l0-.09c-.17.12-.08.33-.23.44l-.11,0a2.68,2.68,0,0,0-.78.72s0,0,0-.09c-.12.12-.5.43-.34.48-.07-.06-.25.27-.34.44l0-.07a.72.72,0,0,1-.14.39s-.07,0,0,0c-.14.12,0,.15-.19.3v-.1a.37.37,0,0,0-.1.26c0,.11-.22.27-.28.25a.28.28,0,0,1-.07.23s0,0,0-.06c-.2.23-.18.42-.35.56a0,0,0,0,0,0,0,2.21,2.21,0,0,1,.24-.34c-.06,0-.18.12-.16-.06a1.72,1.72,0,0,1-.23.59h0v0a.27.27,0,0,0-.05.11l-.1.12c-.06,0-.14.18-.19.26s0,.14.1.06,0,0,0-.07,0,0,0,0h0l.12-.21a.37.37,0,0,1-.11.24,1.39,1.39,0,0,0,0,.17c-.15.06-.33.26-.4.26a2.3,2.3,0,0,0-.28.84c0,.09-.08.07-.11.09s0-.1,0-.13c-.05.16-.22.44-.16.52-.13.17,0-.14-.13.12v0c-.39.44-.19.93-.63,1.42L7,23c-.37.63-.51,1.39-.89,2-.1.17,0,.22-.06.35H5.92v.23c0,.3-.35.42-.36.81l.06,0c0,.13-.11.42-.16.38s0,.06,0,.1h0l0,.33c-.11.24-.14-.08-.26.27,0,.14,0,.42,0,.38s.06-.14.1-.13v.13c.1.06.18.18.35-.09v-.22l.08,0,0,.17c.08-.08,0-.16,0-.24s.06,0,.08-.06l0-.24s0,.12.12,0-.13.06-.1-.11.11,0,.11-.16,0,0,0,.07c0-.11.08-.27,0-.35s.11-.35.21-.3a.62.62,0,0,1,0-.3c.06.21.14-.35.25-.25-.06-.17.13-.48.16-.72,0,0,0,0,0,.06a1,1,0,0,1,.16-.21c-.08-.05,0-.26,0-.38.16-.12.07.13.18.12-.08,0,0-.29,0-.27.1-.09.07-.09.17-.12-.11-.06,0-.11,0-.24s.12,0,.17-.19S7.17,23.82,7.17,23.82Zm2-4.31h0l0,.09Zm.21-.34-.09.15s0,0,0-.06S9.3,19.21,9.35,19.17Zm-.86.47c0-.06,0-.07.07-.07l-.05.1h0A.08.08,0,0,1,8.49,19.64Z"/><polygon class="cls-1" points="8.51 19.79 8.5 19.81 8.54 19.79 8.53 19.76 8.51 19.79"/><polygon class="cls-1" points="13.22 27.56 13.23 27.56 13.21 27.55 13.22 27.56"/><polygon class="cls-1" points="13.23 15.53 13.22 15.51 13.2 15.54 13.23 15.53"/><path class="cls-1" d="M11,27.42s0,0,0,0Z"/><path class="cls-1" d="M10.05,27.45l-.14,0Z"/><path class="cls-1" d="M9.31,27.45a0,0,0,0,0,0,0h0Z"/><path class="cls-1" d="M21,26.81h0C21.07,26.79,21,26.8,21,26.81Z"/><path class="cls-1" d="M17.51,27.14l.11,0C17.56,27.1,17.51,27.1,17.51,27.14Z"/><polygon class="cls-1" points="24.44 26.56 24.44 26.57 24.44 26.57 24.44 26.56"/><path class="cls-1" d="M17.78,27.1a.43.43,0,0,0-.16,0Z"/><polygon class="cls-1" points="6.13 27.57 6.09 27.57 6.09 27.58 6.13 27.57"/><path class="cls-1" d="M6.09,27.58h0Z"/><path class="cls-1" d="M6,27.61l.08,0A.11.11,0,0,0,6,27.61Z"/><path class="cls-1" d="M7.1,27.56v0S7.1,27.54,7.1,27.56Z"/><path class="cls-1" d="M7.4,27.53a1.19,1.19,0,0,0-.28,0v0S7.33,27.58,7.4,27.53Z"/><path class="cls-1" d="M8.64,27.79H8.39s.11.06,0,.07C8.7,27.92,8.32,27.8,8.64,27.79Z"/><path class="cls-1" d="M9.41,27.79c-.13,0,0,0,0,.06S9.51,27.81,9.41,27.79Z"/><path class="cls-1" d="M15,27.53v.06C15.05,27.58,14.94,27.57,15,27.53Z"/><polygon class="cls-1" points="16 27.15 15.9 27.11 15.85 27.18 16 27.15"/><polygon class="cls-1" points="16.64 27.57 16.6 27.59 16.77 27.55 16.64 27.57"/><path class="cls-1" d="M24.83,25.9l-.06.06C24.81,26,24.9,26,24.83,25.9Z"/><path class="cls-1" d="M22.93,22.33a.25.25,0,0,0-.09-.21A1.16,1.16,0,0,0,22.93,22.33Z"/><polygon class="cls-1" points="14.07 14.62 14.15 14.59 13.99 14.63 14.07 14.62"/></svg>