<?xml version="1.0" encoding="utf-8"?>
<!-- Generator: Adobe Illustrator 21.1.0, SVG Export Plug-In . SVG Version: 6.00 Build 0)  -->
<svg version="1.1" id="Capa_1" xmlns="http://www.w3.org/2000/svg" xmlns:xlink="http://www.w3.org/1999/xlink" x="0px" y="0px"
	 viewBox="0 0 377.2 152.4" style="enable-background:new 0 0 377.2 152.4;" xml:space="preserve">
<style type="text/css">
	.st0{fill:#B7D164;}
</style>
<path class="st0" d="M56.9,17.3C41.8,14,26.4,27.4,19.5,45.9s-6.5,40.9-2.1,60.8c1.8,8.3,4.6,16.8,9.7,22c5.7,5.8,13.4,6.4,20.5,6.8
	c77.8,4.1,155.7,4.4,233.6,0.9c15.9-0.7,32.1-1.6,47.1-9c17.1-8.6,29.4-24.4,33.6-43c5.6-24.2-3.6-53.1-20.5-64
	c-9.8-6.3-20.9-6.9-31.7-7.4L140.3,5.1c-27.4-1.3-55.7-2.3-81.2,11.2"/>
<path class="st0" d="M63,21.6c-1.1,0.4-0.2,1.2-0.3,1.5C64.3,22,62.8,21.4,63,21.6z"/>
<polygon class="st0" points="80.4,12.3 80.2,12.9 82.8,11.1 "/>
<path class="st0" d="M99,9.2c-1-0.9-2.7-0.6-4.6-0.1c-1.8,0.6-3.7,1-5.6,1.1l-0.6-0.3L87,11.6C90.8,10.6,96,9,99,9.2z"/>
<path class="st0" d="M109.2,12.7c-0.6-0.7,2.1-0.7-2.3-0.1c0.1,0,0.3,0.1,0.4,0.2C107.7,12.7,108.3,12.6,109.2,12.7z"/>
<path class="st0" d="M107.3,12.7C105.4,12.8,108.6,13.3,107.3,12.7z"/>
<path class="st0" d="M116.4,12.1c-0.9,0.2-1.8,0.4-2.6,0.7c0.5,0.4,2.9,0.5,2,0.9C118.5,13.2,118,12.8,116.4,12.1z"/>
<path class="st0" d="M118.9,10.7l-1.4,0.3C117.8,11.1,118.2,11.2,118.9,10.7z"/>
<path class="st0" d="M114.7,11.6l2.9-0.6c-0.4-0.3-0.4-0.9-1.3,0.2C116.5,10.6,115.9,11.1,114.7,11.6z"/>
<path class="st0" d="M113.1,11.3c-1.5-0.4-3.4-0.6-0.8-1.3c-2.5,0.2-3.6,0.6-3.4,0.9S110.6,11.5,113.1,11.3z"/>
<path class="st0" d="M99.8,7.1c-0.7-0.1-1.4-0.2-2-0.3l-1.7,0.8C96.9,7.2,99.9,7.7,99.8,7.1z"/>
<path class="st0" d="M132.9,13.4c0.2-0.4-0.9-1.1-1-1.6l-2,0.4C130.9,12.5,132.8,12.8,132.9,13.4z"/>
<path class="st0" d="M131.9,11.8l3-0.6C132.2,11,131.7,11.3,131.9,11.8z"/>
<path class="st0" d="M119.4,8.6l-4.8,1.4c1.9-0.5,3.8-1,5.8-1.5L119.4,8.6z"/>
<polygon class="st0" points="144.2,14 142.5,14.8 145.6,13.6 "/>
<path class="st0" d="M151.8,14.2c-1.3,0.7,1.6,1.4,0.3,1.8c1.9-0.1,3.7-0.5,5.4-1.1C155.6,15.1,153.6,14.8,151.8,14.2z"/>
<path class="st0" d="M160.2,14.1c-0.9,0.2-1.8,0.4-2.7,0.8C158.5,14.7,159.4,14.4,160.2,14.1z"/>
<path class="st0" d="M139.9,11.6c0.6,0.7,1.4,1.2,2.3,1.3l-1.1-1.2L139.9,11.6z"/>
<path class="st0" d="M141,11.7L141,11.7l2.5,0.2L141,11.7z"/>
<path class="st0" d="M139.6,11.6h0.3C139.8,11.5,139.7,11.5,139.6,11.6z"/>
<path class="st0" d="M127.1,9.8c1.8-0.6,5.4-1.1,1.9-2.2C127.8,8.3,129.8,8.9,127.1,9.8z"/>
<path class="st0" d="M138.2,10.1l-3.1-0.4c0.1,0.3,0.6,0.8-0.3,1L138.2,10.1z"/>
<polygon class="st0" points="139.8,9.8 138.2,10.1 139.4,10.3 "/>
<path class="st0" d="M154.9,12.8c1.5-0.4,3-0.5,4.6-0.4c-1.8-0.3-3.6-0.5-5.4-0.6C153.7,12.1,152.9,12.7,154.9,12.8z"/>
<path class="st0" d="M148.1,12.1h0.3C148.3,12,148.1,11.9,148.1,12.1z"/>
<path class="st0" d="M176.1,13.1l-0.2-0.2c0,0.1,0,0.1-0.1,0.2L176.1,13.1z"/>
<path class="st0" d="M153.7,11.5c-1-0.3-2.1-0.2-3,0.3c1.1-0.1,2.2-0.1,3.3,0C154.1,11.6,154.1,11.5,153.7,11.5z"/>
<path class="st0" d="M164.9,13.7c-0.8-0.3-1.5-0.5-2.3-0.7C163.2,13.4,164.6,14,164.9,13.7z"/>
<path class="st0" d="M148.9,12.4h-0.2C149.1,12.7,149.1,12.6,148.9,12.4z"/>
<path class="st0" d="M148.9,12.4c0.6-0.1,1.2-0.4,1.8-0.6c-0.8,0-1.5,0.1-2.3,0.3C148.6,12.2,148.8,12.3,148.9,12.4z"/>
<path class="st0" d="M181.4,6c-0.3,1.1-3.9,1.9-6.9,0.6c-3.1,0.7-1.2,4.2,1.3,6.3c0.1-0.5,0.1-0.9,3.3-1.4c-1.1-0.6-6.9-1.7-4.2-2.5
	c4.2-0.4,3.4,0.5,5.4,1.2c-1.6-1.4,5.4-1.7,4.6-3.7l-3.7,0.5C181.1,6.8,182.4,6.3,181.4,6z"/>
<path class="st0" d="M169.9,12.5l-1.3,0.1c1.6,0.3,3,0.9,4.4,1.6c2.2-0.4,2.6-0.8,2.8-1.1l-6.3-0.4L169.9,12.5z"/>
<path class="st0" d="M162.8,12.3c1.1-1.1,4.2-1.4,2.3-2.8c-3.8-0.1-2.7,0.8-5,1.2c6.1,0-1.8,0.6,2.6,1.4c-1.1,0.1-2.2,0.2-3.3,0.1
	c1.1,0.2,2.1,0.4,3.1,0.7l-0.1-0.1l0,0l0,0c-0.3-0.1-0.3-0.2,0-0.1h0.1C162.6,12.6,162.7,12.5,162.8,12.3c1.8,0.4,0.3,0.4-0.2,0.5
	c0,0.1-0.1,0.1-0.1,0.2l0,0l6.1-0.4C166.7,12.3,164.7,12.3,162.8,12.3z"/>
<path class="st0" d="M132.4,5.2c0.1,0,0.2,0.2,0.2,0.3C133,5.3,133.1,5.2,132.4,5.2z"/>
<path class="st0" d="M134.9,6c-0.7,0.4-1.5,0.5-2.3,0.4c-1.2-0.4,0-0.6,0-0.9c-0.9,0.3-3.1,0.7-0.4,1.4l0.4-0.1
	c2.4,0.5,5.5,2.1,5.1,2.2C137.1,7.7,136.1,6.7,134.9,6z"/>
<path class="st0" d="M149,8.9l5.1-0.3l-2.5-1.1l0.1,0.6C148.8,7.6,149.4,8.4,149,8.9z"/>
<polygon class="st0" points="176.6,13.7 175.9,14.9 178.9,13.3 "/>
<polygon class="st0" points="183.2,13.9 182.9,14.9 184.7,14.4 "/>
<path class="st0" d="M243,144.1l-1.5,0.3C242,144.3,242.5,144.2,243,144.1z"/>
<path class="st0" d="M253.8,143.8l0.2-0.5C253.6,143.6,253.4,143.8,253.8,143.8z"/>
<path class="st0" d="M339.9,27.4c0.2,0.5,0.4,1,0.5,1.5c0.1,0.5,0.3,0.9,0.4,1.3c0.2,0.7,0.5,1,0.8,0.6l0.4-1.2
	c-0.5-0.3-0.9-0.7-1.3-1.1C340.4,28.1,340.1,27.8,339.9,27.4z"/>
<path class="st0" d="M339.3,120.7l0.7-0.1c0.2-0.7,0.3-1.3,0.4-1.8C340.1,119.3,339.7,120,339.3,120.7z"/>
<path class="st0" d="M340.9,125.5c-1,0.4-2,0.8-3,1.2C339,126.4,340,126,340.9,125.5z"/>
<path class="st0" d="M183.7,146.3l-1.8,1.2C184.6,147.4,183.4,146.9,183.7,146.3z"/>
<path class="st0" d="M251,16.5c1.5,0.5,3.1,0.8,4.7,0.9C253.4,16.7,251.6,15.6,251,16.5z"/>
<path class="st0" d="M246.9,131.6c-0.9,0.2-1.3,0.5-1.3,0.7C246.5,132.2,247.1,131.9,246.9,131.6z"/>
<path class="st0" d="M261,17.7c-0.3-0.1-0.6-0.2-1-0.3c-1.5,0.2-3,0.2-4.4,0.1C257.3,18.2,259.3,18.3,261,17.7z"/>
<path class="st0" d="M7.7,74.7c0.1-0.2,0.1-0.4,0.2-0.5C7.7,74.1,7.6,74.3,7.7,74.7z"/>
<path class="st0" d="M42,24.9c-0.4,0.4-1.2,0.7-1.8,1.2C40.8,25.8,41.4,25.4,42,24.9z"/>
<path class="st0" d="M209.8,15.6C208.4,15.6,209.6,15.7,209.8,15.6z"/>
<path class="st0" d="M203.2,10.7c0.3-0.1,0.5-0.3,0.6-0.5C203.7,10.4,203.5,10.6,203.2,10.7z"/>
<path class="st0" d="M275.3,11.1h0.1C275.1,10.9,275.1,11,275.3,11.1z"/>
<path class="st0" d="M207.7,15c0.6,0.2,1.2,0.3,1.8,0.4C208.9,15.2,208.3,15.1,207.7,15z"/>
<path class="st0" d="M208,15.5l-1.2-0.2C206.6,15.6,206.7,15.7,208,15.5z"/>
<path class="st0" d="M211.8,15.6c-0.8,0-1.5-0.1-2.3-0.2c0.3,0.1,0.4,0.2,0.3,0.2L211.8,15.6z"/>
<path class="st0" d="M83.9,140.6l-0.3-0.1C82.2,140.9,82.8,140.8,83.9,140.6z"/>
<path class="st0" d="M367,52.2c0-0.1-0.1-0.1-0.1-0.2C366.9,52.1,366.9,52.2,367,52.2L367,52.2z"/>
<path class="st0" d="M368.9,57.4c-1.3-1.4-2-3.2-2-5.1c-1,0.8-1.9,1.6-2.9,2.4C365.7,55.5,367.3,56.4,368.9,57.4z"/>
<path class="st0" d="M217,145l3.6,1c-4.2,1.8-7.4,1.2-4,2.6c0.4-3.6,13.8-0.6,14.2-4.3l2.4,0.7c-0.7,0-0.8,0.2-1.4,0.2
	c4.6,1.6,3.3-2.7,9.2-2.4c2.1,0.2,3.5,0.7,2.1,1.2l4.5-1c1.3,0,1,0.7-0.3,0.6l6.9-0.5v0.1c1.4-0.8,2.8-1.4,4.3-2
	c1.8,0.5-0.9,0.4-0.4,0.9l3.8-1c1.6,0.9-1.5,1.9-4.2,1.9c3.7,3.5,3.1-1,11,0.8l-3.6,0.6c2.4,2,5.2,1.1,9.4,2.2c-1-0.6-8.3-2.9-4.2-4
	c1.7,0.3,3.4,0.1,5-0.5c0.1,1.3,2.3,0.9,5,0.7l-0.1,1.7c3-0.6,2.7-1.5,4.4-2.3c3.3,0,4.1,1.3,5,2.3c5.4-0.1-3.9-1.9,2.5-2.6
	c4.5,0.3,7.7-0.6,13-2.4c3.3,0.1-0.4,1.1,0.8,1.4c0.9-0.6,1.8-1.2,2.6-1.8c0.7-0.1,0.5,0.4,0.5,0.6c2.3-1-0.1-1.7,3.5-2.9
	c0.3-1,2.3-0.8,4.8-0.8c1.3,0,2.6-0.1,3.9-0.4c1.3-0.3,2.5-0.9,3.4-1.8c1.3,0-0.1,1.2,0.4,1.7c1.4-0.9,2.4-1.6,3.2-2.2
	s1.3-1,1.8-1.4c0.5-0.4,1.1-0.9,1.5-1.4c0.6-0.6,1.3-1.3,2.2-2.4l2.2-0.7c0.7-0.2,1.5-0.5,2.2-0.8c-1.8,0.4-1.9-0.3-1.4-1.5
	c0.8-1.5,1.7-3,2.7-4.4c-1.3,0.2-2.4,0.3-3,0.5l1.9-2l1.8-2.1c0.7-0.2,0.7,0.6,0.4,1.7c0.2-0.4,0.4-0.7,0.5-1c1-0.4,1.4-0.3,1.6,0.2
	c0.1,0.7,0,1.4-0.2,2.1c-0.8,0.2-1.5,0.4-2.3,0.5c-0.4,1.7-0.9,3.4,0,4c0.3-0.6,0.8-1.1,1.3-1.5c-0.1,0.4-0.2,0.8,0.1,0.8
	s0.5-0.7,1-1.6l2.3,0.6l-0.2-0.8c1.1-0.7,2.2-1.5,3.3-2.2s2.1-1.6,3.2-2.4c0.6-1.4,1.1-2.8,1.5-4.2s0.9-2.9,1.3-4.4s0.9-3.1,1.4-4.8
	s1.1-3.5,2-5.4c0.3,2.5,1.8,1.4,3.3,2.3c-0.7,0.4-1.2,0.9-1.6,1.6c-0.4,0.8-0.8,1.7-1.1,2.5c-0.4,0.9-0.7,2-1.2,3
	c-0.5,1-1.1,2-1.8,2.9c1.5-1.9,1.9-1,1.8-0.3c0.6-1.3,1.2-2.6,1.6-3.9s1-2.6,1.4-4c0.5,0.4,1,0.1,1.5-0.4c0.2-0.3,0.5-0.7,0.8-1.1
	c0.3-0.5,0.6-0.9,0.9-1.3c-1.6,0.2-1.3-1.4-0.6-3.5c0.3-1,0.7-2.2,1.1-3.3c0.2-1,0.4-2,0.4-3c0.5,0,0.9,0.3,0.9,1.1
	c0,1.4-0.3,2.7-1,3.9c0.4-0.4,0.7-0.8,1-1.3c0.2-0.4,0.3-0.9,0.4-1.3c0.1-0.8,0-1.7-0.2-2.5c-0.4-1.6-0.9-3.2,0.5-5.1
	c-0.2,1-0.5,1.4-0.1,1.9c0-1.6,0.3-3.1,0.7-4.6c0.2-0.6,0.4-1.2,0.7-1.7c0.2-0.3,0.4-0.4,0.5-0.1c0,0.3-0.1,0.7-0.1,1
	c0.2-0.9,0.4-1.8,0.5-2.7c0.1-1,0.3-2.1,0.4-3.2c0.1-2.2,0.1-4.5-0.1-6.7c-0.1-1.1-0.2-2.1-0.4-3s-0.4-1.8-0.6-2.5
	c-0.5-1.5-1-2.4-1.6-2.6c1.1,0.1,2.3,0.4,3.3,0.9c-1.5-1.8-3.1-3.6-4.6-5.2c-1.7-1.6-3.2-3.2-5-4.5c1.1,0.2,2.5-0.8,3.9-1.4
	c0.7-0.3,1.4-0.4,2.2-0.2c1,0.4,1.7,1.2,2,2.2c0-2.4-0.7-4.7-1.9-6.7c0.1,1.1-2,3.4-2.5,2.1c0.3-1.2,0.5-2.5,0.4-3.8
	c0-0.9-0.1-1.8-0.3-4.5c0.3,1.7-3.3,1.2-4.2-1.1c0.6,0.2,2.6-1.5,3.3-0.8c-0.9-0.8-1.9-1.5-2.8-2.2s-1.8-1.4-2.8-2
	c1.3,1,2.4-1,2.3-2.8c-0.1,0.5-0.8-0.8-1.7-2.2c-0.8-1.3-1.8-2.6-2.9-3.7c0.5,0.9,0.8,1.8,1.2,2.6c-0.4-0.7-0.9-1.3-1.5-1.9
	c-0.5-0.4-1-0.8-1.6-1.2c-0.9-0.6-2-0.9-3-1.1c-1.1-0.2-2.1-0.4-3.1-0.8c-0.5-0.2-1.1-0.4-1.7-0.7c-0.7-0.3-1.3-0.8-1.9-1.2
	c0.8-0.1,1.5-0.6,2-1.3c0.3-0.4,0.4-0.9,0.3-1.4c-0.2-0.7-0.6-1.3-1.3-1.7c-1.2,0.2-3.8,0.8-6.6,1.5c-2.8,0.8-5.7,1.3-8.6,1.5
	c-0.3-0.4-0.5-0.8-0.8-1.1c-1.5,0-2.9,0.1-4.4,0.2c2.4-1.4,4.9-2.5,7.6-3.3c3.1-0.9,6.4-1.2,9.7-1c-2.3-1.8-0.3-1.4-4.3-2.9
	c-0.6-0.6,0.1-0.8,1.1-0.6c1,0.2,1.9,0.4,2.9,0.8c-3.1-1.6-6.3-2.8-9.6-3.7c0,0.9-2,0.9-3.8,1s-3.7,0.2-3.6,1
	c3.5-0.2,7.1-0.1,10.6,0.3c0,0.9-1.9,1.7-4.4,2.1c-2.9,0.6-5.9,0.6-8.8,0.2c-1.5-0.9,1.5-3.1,1.5-3.6c-1,0.5-6.2,0.6-6.8,0.2
	c0.9-0.3,1.8-0.5,2.8-0.8c-3.6-0.9-5.9,2-10,0.1c-1.4-0.2-4.2-2.5-4.5-1.5c2.2,2.1,2.4,8.5,0.8,10c-0.5-0.2-7.5-2.3-9-3.4
	c-2.3-1.7,3.7-3.7,1.8-5.1c-0.1,0.5-1.4,1-2,1.2c-1.5-0.5,0.7-1.5-2.6-1.4c-0.6,1.8-6.7-0.5-1.6,1.5c-3.2,0.4-3.4-0.5-7.2-0.6
	c1.1,1.2-3.6,3.8-6.8,4.2c0.2-0.5-0.5-1.1-0.8-1.4c-6.6-0.5-10.1-1.5-16.2-1.8c-0.5-0.5-3.5-1.1-2.2-1.9c-1.1,0.5-2.4,0.8-3.6,0.8
	c-3.6-1.7,4.2,0,1.5-2.1c-0.3,1-5,1.2-7.7,1.8c0.8,1.7,6.2,0.6,8.9,0.1c-0.1,2.2-4.9,4.4-11.4,5.1c-5.1,0.3-2.1-1.6-3-1.3
	c-9.6-0.8-8.3,3.6-16.2,1.6c-3.1-1.6,0-2.9-0.7-3.9c4.2-0.4,6.3,1.2,9.1,1.3l-3.4-0.8c1.8-0.5,3.8-0.6,5.6-0.2
	c-2.6-1.4-16.1-1-23.5-2.5c-1.3,0.4-3.6,0.8-2.6,1.4l2.4-0.1c2.1,1.3-4.5,1.4-1.5,2.1c-3.2,0.7-6.7,1.8-11.1,0.9l-0.8-1.7
	c0.1,0.5,2.8,1.1,4.1,0.7c-1.9,0.6-6.7-2.5-8.8-0.5l3,1.3c-3.2,0.7-7.1,2.2-11,1.5c1.7,1.7,0.9-0.1,3.6,1.9c-2.3-2.5,10,0.6,6.2-2.1
	c2.8,2.3,4.9,1.2,8.5,3.2c-0.1-0.5-1.3-1.1,2-0.7c0.2-0.2,0.5-0.3,0.7-0.4l0.2,0.1l-0.2-0.1c0.1-0.1,0.2-0.1-0.1,0
	c-0.6-0.2-1.2-0.5-1.6-0.9c1.7-1.2,6.9-0.9,8.7-1.4c1.9,0.4-0.8,0.6,0.2,1.2l2.7-0.8c0.2,1.2,5.1,2.2,0.5,2.7l4.1,0.2
	c2.5,0.8,5.2,1.1,7.8,0.8c1.9,0.4,5-1.1,3.2-0.2l6.5-0.5v0.3c6.4,0.4,13.2-1.4,20.5,1.1c2.7-0.4,5.3-0.4,8,0l0.7,1.1
	c2.8-0.2,8.2,1.4,9.5,0.4c2.9,2.9,13.4,1.2,18.2,1.9l0.2-1.3c3.6,0.2,7.2,0,10.7-0.4l-0.2-1.2c3.6-0.8,9.1,1.2,14.3,1.7
	c-0.4,0.4-1.7,0.1-2.6-0.2c3,1.6,6.2,1.6,9.3,1.8s6.2,0.7,8,2.8c0.6,0.1,1.1,0.3,1.6,0.6c0.2,0.1,0.4,0.3,0.6,0.5
	c0.2,0.2,0.3,0.4,0.4,0.6c-0.1-0.1-0.2-0.1-0.3-0.1c0.1,0.1,0.2,0.2,0.4,0.3c0.3,0.5,0.6,1,1,1.5c-0.2-0.5-0.5-1-0.8-1.4
	c0.5,0.3,1,0.6,1.5,0.9c0.6,0.4,1.2,0.8,1.9,1.2l-0.5,1.3l0.3,0.2c0.7,1.3,1.2,0.5,1.4-0.9c0.6,0.4,1.3,0.7,1.9,1
	c-0.4,1.1,0.5,1.8,1.2,2.6s1.6,1.6,1.1,3c0.6,0.2,1,0.6,1.4,1.1l0.9,1c0.3,0.4,0.6,0.8,0.9,1.2c0.6,0.8,1.2,1.5,1.9,2.2
	c0.4,0.6,1.1,0.9,1.8,1c-0.2,0.2-0.2,0.7-0.5-0.1c0.2,0.9,0.5,1.8,0.8,2.6c0.3,0.8,0.7,1.6,1.3,2.3l-1.3,1.3l0.9,0.8l0.8,0.8
	l1.6,1.7c0,0.9-0.2,1.8-0.7,2.6c-0.4,0.3-0.9,0.1-1.8-0.9c1,1.5,1.8,3.1,2.4,4.8c0.5,1.5,1.2,2.9,2,4.3l-1.1-0.1
	c0.2,1.8,1.9,4.6,1,5.7c-0.5,1.6-0.9,3.3-1,4.9c-0.1,1.1-0.2,2.3-0.4,3.6c-0.1,0.6-0.2,1.3-0.3,2c0,0.3-0.1,0.7-0.1,1
	s-0.1,0.7-0.2,1c-0.9,5.5-3.1,11.7-6.1,15.8c1.8-0.2,1,0.7-0.1,1.8c-0.5,0.5-1,1.1-1.5,1.7c-0.4,0.5-0.5,1,0,1.4
	c-0.9,0.1-2,1.1-1.7-0.6c-0.2,0.5-0.5,1.1-0.8,1.6c-0.3,0.5-0.6,0.9-0.9,1.3c-0.5,0.7-1.1,1.4-1.8,2.1c-0.6,0.6-1,1.2-1.5,1.9
	c-0.5,0.8-0.8,1.6-1,2.5c-0.9-0.1-0.1-1.5-0.8-1.4c-0.1,0.3-0.2,0.7-0.4,1c-0.2,0.3-0.5,0.6-0.9,0.7c-0.7,0.1,0.1-0.9,0.3-1.7
	c-1.6,1.9-2.2,3.3-2.2,4.4c0.1,1.1,0.5,2.2,1.1,3.1c-2.7,1-3.6,1.9-4.4,4.2c-0.6,0-1.3,0.1-1.6-0.1s0-0.6,1.2-1.7
	c-0.8,0.5-3.2,2-5.4,3.2s-4.3,2.5-4,3.3c-0.7-0.1-2.4,1-2.8,1.3c-4,1.5-4.4,1.4-8.3,2.8h1.2c-0.4,1-1.3,1.7-2.4,1.7
	c-1.4,0.1-2.7,0.3-4.1,0.6l0-0.2c-2,0-3.2,0.1-4,0.2c-0.5,0.1-1.1,0.2-1.6,0.4c-0.8,0.3-1.6,0.6-5.5,0.1l0.6,1.2
	c-0.2,1.4-2,1.2-4.3,0.8s-5-1.1-7.2-0.4l1.7,0.6c-2.5,1.1-7.2-3.4-9.7-3.6c-0.6-0.2,0.9-0.4,1.6-0.6c-6.7-1.4-0.8,1.7-5.7,2.3
	c-1-0.9,1.1-2.4-2.2-2.4c-1.7-0.7-9.5,3.3-14.1,1.7c1,0.7,2,1.3-0.2,1.9c-3.5,0.4-9.6-2.3-12.7,0c-0.4-0.2-0.6-0.4-0.6-0.5
	c-2.7,0.6-8.7,1.2-10.3,2.4c-2.6-4.4-16.6,2.6-16.6-1.6l-8.2,0.4l0.2-0.4c-5.3-0.2-7.1,0.8-9,1.8c-1.2-0.3-0.3-0.6-0.2-0.9
	c-7.7-0.7-8.5-0.6-14.9,1.5l-0.7-1.3c-0.9,0.4-3.7-0.1-7.2-0.5c-3.8-0.6-7.7-0.6-11.5,0c0.2-0.3,0.5-0.5,0.8-0.6
	c-8.5,1.5-20.3-3.8-23.5,1l-5.6,1.1c7.2,0.5-1.1,2.1,1.9,2.9c-2.9,0.2-7.4-1.6-3.9-1.8l0.6,0.2c1.3-2.5-9-1-8.8-2.8
	c-14.3-0.1-28.2-1.9-41.5-2.5l1.5,2l-4.6-0.4c-1.2-0.5-1.6-1.6,1.7-1.4c-1.7-1.2-5.6,0.7-5.7,1.1c-6.5-1,2.6-2.2,0.6-2.3h-2.7
	l0.6,0.2c-2.2,0.7-2.5,1.6-6.4,1.3c-2.5-0.5-1.2-1.3-2.2-1.4c0-0.1-0.3-0.2-1.5-0.1l-5.9-0.4l2.3,1.6c-2.6,0.7-5.5-0.3-2.9,1.5
	c-1.9-1.4-7.4-2-12.7-2.2c-2.7-0.1-5.1-0.2-7-0.5c-1.3-0.1-2.5-0.4-3.7-0.9c-3.3,0.3-6.6-1.1-8.8-3.6c0.2,0.4,0.1,1-0.3,1.3
	c-0.4,0.2-1.3,0-2.3-1.4c1.8-0.7,1-2,0.2-3.9s-1.8-4.3-1.1-6c-0.3,1.5-1.4-0.7-2.3-2.9s-1.7-4.3-2.4-2c-0.5-3.1,1.2-0.5,1.5-3
	c-1.5-3.4-2.1-7.5-2.4-11.8s-0.3-8.8-0.8-13.3c-0.5-0.1-1.1,1.4-1.9-0.5c0.7-1.6,1.5-3.3,2.3-4.8c-0.2-1.8-2.7-1.7-1-4.9
	c-0.4,0.4-1,1.1-1.1-0.1c0.8-4.4,1.5-8.9,2.3-13.3c0.8-4.4,1.9-8.8,3.4-13c1.4-4.2,3.6-8.1,6.3-11.5c2.6-3.4,6.1-6,10-7.6
	c-2.3,0.5-1.2-0.4,0.2-1.4c-1,0.5-0.6-1-1.2-1.4c0.6-0.2,1.1-0.4,1.7-0.6c0.6-0.2,1.1-0.4,1.7-0.5c1.1-0.3,2.2-0.4,3.4-0.5
	c0.2-0.6,0.7-1,1.3-1.3c0.8-0.3,1.5-0.5,2.3-0.7c0.8-0.1,1.6-0.2,2.3-0.3c0.5,0,1-0.2,1.3-0.6l-1,0.1l-0.5,0.1L51,20.5
	c1.3-1.1,0.4-2.2-1.2-3.2l-1.3-0.8c-0.4-0.2-0.9-0.4-1.3-0.7c-0.8-0.5-1.4-1-1.4-1.6c-1.8,1.6-4.5,1.7-7.6,2.5s-6.3,2.5-7.7,6
	c-1.5,0.6,0.4-1.5-0.6-1.4c-0.3,1-0.8,2-1.4,2.8c-1,1.1-2,2.2-3.1,3.2l0.1-0.5c-3.2,4.2-5.3,7.3-7.4,10.6l-1.5,2.6
	C16,41.1,15.5,42,15,43s-1,2.1-1.5,3.2s-1,2.4-1.5,3.8l1.5-0.5c-0.5,1.3-1.2,2.6-1.9,3.8c0.6,1.6,1-0.1,1.5-1.8s1.1-3.4,1.8-1.8
	c-1.7,1.2-2.9,5.4-3.6,9.6s-1.3,8.2-2.8,9.2c-0.3,3.8,1.5-1,1.2,2.8c-0.3,0.3-0.6,0.6-0.8,1l1,1c-0.3,2.4-1.3,3.7-1.9,3.7
	c0-0.8-0.1-1.6-0.2-2.4c-0.5,1.9-0.5,4-0.2,5.9c0.2,1.4,0.4,2.9,0.4,4.3c0.1-1.2,0.2-2.4,0.4-3.7c0.9,10.3,1.8,22.8,6,32.1l0.4-0.9
	c1,2.1,1.8,4.4,2.3,6.7c0.5,2.6,1.6,5.1,3.2,7.3l-0.3-0.2c1.5,1.3,3.1,3.1,4.8,5c-1-0.6-0.6,0.4,0,1.4s1.1,1.9-0.4,1.1
	c1.4,1,2.9,1.8,4.6,2.5c0.6,0.3,1.3,0.4,1.9,0.4c0.5,0,1-0.1,1.4-0.2c0.6-0.1,1.6-0.1,3.1-0.2c0.3,0.4,0.7,0.9,1,1.3
	c1.1-0.2,1.7-0.4,2.5-0.5c1.3-0.1,2.7-0.1,4,0c-1.7,0.2-1.1,0.7-0.6,1.2s1.1,1-0.9,1.3c1.9,0.7,3.8,1.1,5.8,1.1
	c1.5,0,2.9-0.1,4.3-0.3c2.6-0.3,4.5-0.5,6.4,1.2c4-2.6-7.2-1.9-5-2.4c-1.8-1,3.3-1.9,5.9-1.5c2.7,0.2,4.4,3.7,11.1,4
	c-0.7,0-0.7,0.2-1.4,0.1c2.5,0.8,5-0.7,8,0.5c1.8-1.6,4,0.2,4.6-1.8l-6.2,0.2c3.5-0.4,6.9-2.8,12.6-1.3c-1.1,0.6-2.2,1-3.4,1.2
	c1.7,0.7,3.3-0.3,5,0.4c-0.6,2.1-7.5,0.2-11.3,1.7c1.8,1,7.2-1.3,5.2,0.9c2.8-2.8,6.6,0.6,11.3-1.4l-0.3,1.2
	c1.1-0.4,2.3-0.6,3.6-0.6l-2.4,1.6c3.7-1.3,7.1,1.4,10.7,0.8c-7.4-0.2-1.6-1.6-4.7-2.6c9.2-1.4,5.2,3.5,15.4,3.1
	c-1.4,0.1-5.2-0.9-3-1.4c2,0.2,3.9,0.8,5.7,1.6c6.8-0.1-1-1.3,1.9-2c2.3,1.6,3.3-0.6,6.3-1v1.2c7.7,1,2.1-2.6,9-1.5l-3,1.7l3.6-0.4
	l-0.8,1.5c4-1,5.2-0.7,9.1-0.3c-0.9-0.9,0.5-2.3,3.9-2.3c2.3,0.8-1.3,1.2,3.5,1.1c-1.1,0.8-2.3,1.8-4.4,0.6
	c-0.2,0.4-1.1,0.8-1.3,1.2c2.5,0.9,6.3,0.3,8.1,0.3c-0.6,0-1.3-0.1-1.9-0.3l7-1.7c1.1,0.5,0.2,0.9-0.6,1.2c1.4-0.1,2.4-0.7,4.5-0.8
	c-0.5,1-0.4,2.1-3.4,2.6l6.7-1.1c0.4,0.4,3.4,1.2,2.6,1.6c3.7,0.6,9.1-2,14.1-1.2c0.6-0.3,1.2-0.5,1.8-0.6c4.6,0.2,8.8,1.5,14.2,0
	l3.3,1.8c4.3-0.5-4.2-2.3,2.9-3.1c5.1-0.7,1.9,1.6,3.7,2.1c2.5-1,6.9-3,11.6-1.5C219.8,144.9,218.4,145,217,145z M270,142.6
	c-1,0.3-3,1.2-3.8,0.5C267.3,141.6,268.2,142.3,270,142.6L270,142.6z M346.9,117.2c-0.2,0.9-1.3,1.6-2.6,2.2
	C345,118.5,345.9,117.8,346.9,117.2L346.9,117.2z M225.3,15.2l0.1-0.1C227.6,15.8,226.8,15.6,225.3,15.2L225.3,15.2z M220.6,14.4
	c-0.5,0.1-0.5,0.3-0.3,0.5c0.8-0.3,1.8-0.4,2.6-0.1C222.6,14.5,222,14.2,220.6,14.4L220.6,14.4z M69.3,131.3l0.9,0.4
	C68.1,131.9,68.7,131.6,69.3,131.3z"/>
<path class="st0" d="M340.8,124.9c-0.3,0-0.6-0.1-0.8-0.3C339.8,125,339.9,125.2,340.8,124.9z"/>
<path class="st0" d="M184,146.1h-0.2c-0.1,0.1-0.1,0.1-0.2,0.2L184,146.1z"/>
<path class="st0" d="M294.5,6.9c0.7,0.1,1.3,0.4,1.9,0.8C296.4,7.4,296,7.1,294.5,6.9z"/>
<path class="st0" d="M195.3,15.5l3.1-0.2c-0.9,0-1.9-0.2-2.7-0.5C195.7,15.1,196.2,15.5,195.3,15.5z"/>
<path class="st0" d="M169.3,6.3c-0.4,0.1-0.9,0-1.4,0.1l0.1,0.6C169.9,7.1,171.2,6.7,169.3,6.3z"/>
<path class="st0" d="M192.7,11.1c-0.2-1.1-2.1-0.8-4.2-0.7c0.1,0,0.2,0,0.4,0C188.1,11.9,190.4,11.5,192.7,11.1z"/>
<path class="st0" d="M187.9,10.4c-0.7,0-1.3,0-2-0.1C185.7,10.9,186.7,10.5,187.9,10.4z"/>
<path class="st0" d="M214.5,14.9c-1-0.3-0.7,1.4-1.2,0.9C212,17.1,220,14.4,214.5,14.9z"/>
<polygon class="st0" points="191.1,7.4 191.8,8.8 193.1,7.8 "/>
<path class="st0" d="M207.9,9.2l-3.4-0.5c0,0.2-0.4,0.3-0.9,0.4C205.6,9.2,207.9,9.6,207.9,9.2z"/>
<path class="st0" d="M203.6,9.1c-0.9-0.1-1.8-0.1-2.8,0.1C201.7,9.2,202.6,9.2,203.6,9.1z"/>
<polygon class="st0" points="195.8,7.3 196.8,7.6 199.2,7.8 "/>
<path class="st0" d="M244.4,11.1l3.7-0.2c0.4-0.4-0.6-0.8-2-0.6C245.2,10.6,243.9,10.7,244.4,11.1z"/>
<path class="st0" d="M233.4,7c0.6,0.2,1.2,0.6,1.6,1.1l0.2-1.7L233.4,7z"/>
<path class="st0" d="M244.2,7.1c0.4-0.4,5.4-1.1,0.7-1.2C244.5,6.3,240.8,6.5,244.2,7.1z"/>
<polygon class="st0" points="300,11.7 299.1,11.7 299.1,14.4 "/>
<path class="st0" d="M351.5,19.2c-1.7-2-2.2-1.9-2.7-1.8s-0.8,0.3-2.5-1.4c-1.3-0.2,2.7,2.8,1.3,2.5
	C350.4,20.1,351.4,21.5,351.5,19.2z"/>
<path class="st0" d="M347.7,18.6c-0.5-0.2-1-0.4-1.5-0.6C346.7,18.2,347.2,18.4,347.7,18.6z"/>
<path class="st0" d="M50.1,23.5l1,0.2l0.5,0.1l0.5,0.2c-0.4-0.3-0.9-0.6-1.3-0.8L50.1,23.5z"/>
<path class="st0" d="M54.1,21.5c0.1,0.6,0.2,1.2,0.3,1.8c0.5-0.5,1-0.9,1.5-1.4C55.4,21.9,54.4,21.9,54.1,21.5z"/>
<path class="st0" d="M278,145.8l0.2-0.4c-0.5-0.4-1.1-0.4-2.5-0.5L278,145.8z"/>
<polygon class="st0" points="239.4,145.9 240.1,145.9 238.8,144.4 "/>
<path class="st0" d="M207.1,148.5c1.3,0.1,2.9-0.3,4.2-0.3C208.5,148.6,206.8,146.6,207.1,148.5z"/>
</svg>
