<svg id="Capa_1" data-name="Capa 1" xmlns="http://www.w3.org/2000/svg" viewBox="0 0 234.04 112.34"><defs><style>.cls-1{fill:#89b9ca;}</style></defs><path class="cls-1" d="M13.35,108a.22.22,0,0,0-.15,0C13.31,108.06,13.35,108,13.35,108Z"/><path class="cls-1" d="M61.8,111.82l-.57.05A2,2,0,0,0,61.8,111.82Z"/><path class="cls-1" d="M.27,82.65a.49.49,0,0,0,0,.07c0-.45-.08-1.06-.12-2C.2,81.33.22,82,.27,82.65Z"/><path class="cls-1" d="M165.08,110.91l-.65,0Z"/><path class="cls-1" d="M103.84,112.14a7.09,7.09,0,0,1,.82-.08A2.18,2.18,0,0,0,103.84,112.14Z"/><path class="cls-1" d="M2.79,67.55l-.27.77C2.58,68.31,2.69,68,2.79,67.55Z"/><path class="cls-1" d="M18.26,44.67h-.08S18.2,44.7,18.26,44.67Z"/><path class="cls-1" d="M9.18,51.37,8.7,52C8.92,51.77,9.21,51.43,9.18,51.37Z"/><path class="cls-1" d="M8.47,52.36,8.7,52C8.56,52.21,8.45,52.35,8.47,52.36Z"/><path class="cls-1" d="M31.17,38.79a14.64,14.64,0,0,0-2.47.3C29.52,39,30.34,38.84,31.17,38.79Z"/><path class="cls-1" d="M229.32,61.13l.2.11C229.35,61.11,229.31,61.1,229.32,61.13Z"/><path class="cls-1" d="M30.1,40.1h0Z"/><path class="cls-1" d="M2.85,82.7c.19.82.23,2.52.36,2.49A13.15,13.15,0,0,0,2.85,82.7Z"/><path class="cls-1" d="M208.68,59.49l-.54-.07Z"/><path class="cls-1" d="M30.1,40.1h.71L30.59,40Z"/><path class="cls-1" d="M152.64,27.2l0,0,.17-.13Z"/><path class="cls-1" d="M148,30.48c.27-.28.55-.54.86-.83A4.87,4.87,0,0,0,148,30.48Z"/><path class="cls-1" d="M28.7,39.09c-.46.08-.92.2-1.38.29C27.82,39.3,28.26,39.18,28.7,39.09Z"/><path class="cls-1" d="M124.88,6.68c.15.11.31.21.45.32A3,3,0,0,0,124.88,6.68Z"/><path class="cls-1" d="M99.91,112.08l-.45,0S99.44,112.11,99.91,112.08Z"/><path class="cls-1" d="M138.26,107.64h0Z"/><path class="cls-1" d="M136.22,107.87a9,9,0,0,0,2-.23A10.52,10.52,0,0,0,136.22,107.87Z"/><path class="cls-1" d="M142.66,107.59h0Z"/><path class="cls-1" d="M101.44,108s0,0,0,0h0Z"/><path class="cls-1" d="M109.6,107.94a4,4,0,0,0,.56.06A3.28,3.28,0,0,0,109.6,107.94Z"/><path class="cls-1" d="M162.9,106.32h0Z"/><path class="cls-1" d="M227.55,79.14a20.93,20.93,0,0,1-5.89,9.2,37,37,0,0,1-9.8,6.52,28.73,28.73,0,0,1-5.65,2.82l-.38-.28c-.59.29-1.19.56-1.81.81-.8.15,1.41-.57,0-.24l-.62.47a20.92,20.92,0,0,0-2.11.59c-.82.21-1.21.28.32-.36-1.21.4-2.44.76-3.66,1.14l-3.72,1c-1.66.39-.89.55-2.75.89-.4,0,.64-.23.46-.33-5.58.93-6.27,2.12-11.57,2.75l.44-.12c-.44.12-1.09.24-1.63.34a8,8,0,0,0-1,.18c.74.31.93-.33,2.57-.34-.09.35-2,.48-1.85.71a20.57,20.57,0,0,0-3.05.47c-1.87,0-4.52.44-5.95.29a20.82,20.82,0,0,1-3.86.77c-1.42-.16.32-.27-1.61-.23l-.29.21c-1.58.09-1.33,0-1.28-.09a27.08,27.08,0,0,1-3.51.35l1.17-.25c-1.56.17-2.2.15-4.38.25a4.59,4.59,0,0,1,1.56-.15,8.79,8.79,0,0,0-2.66.22c.19.08,1.7,0,1,.27a16.36,16.36,0,0,1-3.08.17l1.17-.24a19.36,19.36,0,0,1-3.79.32c.14,0,.07-.07.12-.11a44.66,44.66,0,0,1-6.22.21l.46-.06c-1,.09-1.51.28-2,.29,1.39.06,1,.13,1.14.31-1.84-.26-2.79.47-5.79.35a2.71,2.71,0,0,1,1.59-.17,8.73,8.73,0,0,1,3-.84c-1.13.11-2.46.19-2.18.05l-.35.31-1.75,0c-.29.2,1.4.28-.19.45-1.79.14-1-.29-1.24-.15-2.47.19-1,.36-3.4.32a5.84,5.84,0,0,1,.91-.07c-1.71-.08-4.19.15-4.7-.21a1.69,1.69,0,0,1,.95-.18l0,.06c1.87-.31-1.56.11-1-.24.13.2-2.27.21-3.35.19l.35.22c-3.59.74.18-.45-3.37-.3-2.25.2.85,0-.53.23a40.68,40.68,0,0,0-4.33-.07c-.62-.08-1.89-.18-2-.43-1.35.13-4.12-.06-4.89.19,2.32.19,2.31-.28,5,0l-.75.26c-1.88,0-4.28.16-5.58.09.27,0,.38.11.22.16-2.67.13-3.44.37-6,.32-.35-.22,1.18-.19,2.28-.22-1.67-.17-1.75,0-4.35-.06-.14-.19,1.75,0,2-.19l-2.88.08s0,0,0,0c-.42.33-2.2,0-4,.09a37.82,37.82,0,0,0-7.12.72c-.63-.09-.81-.17-.55-.25,1,.14.84,0,1.2-.06-1.41,0-3.08-.32-2.29-.45-2.24.1.8.17-.57.28l-3.06,0c.36.17,1.44.21-.15.33-1.34,0-2,0-3.73,0,.25-.08-.56-.26.76-.24a9.94,9.94,0,0,0-2.68.08c1.92.16-3.14.13-1.71.4l-1.92-.16a8,8,0,0,1,1.13-.07c-.54-.26-1.56.06-2.23.08a24.1,24.1,0,0,1-2.57-.19,8.13,8.13,0,0,1-2.36-.13c-.9,0-.07.17-.34.25l-3.06,0c-.16-.14-.41-.53,0-.58-1.16.12-.42.41-2.17.38,1-.26-2.31-.23-.85-.54a34,34,0,0,0-5.44-.18c-1,.2,1.71.14,1.6.36-4.42,0-4.7.64-8,.49l.84.08a20.65,20.65,0,0,0-3,.24c.56-.26-2.29-.77-5.62-.76-.29.13,1.85.29,1.31.5H42.81c-.16,0,.08-.07.37-.1-2,.06-3.73-.39-4.29-.06l-2-.38.8.16a27.69,27.69,0,0,1-2.95.26,14.89,14.89,0,0,1-4.31-.15c.39.12,1.36.4-.41.41,0-.23-.91-.29-1.82-.33s-1.83-.1-1.8-.22c-.71,0-1.93-.3-2-.12l.14-.26c-.1.18-.79.23-1.69.14-.45,0-1-.09-1.48-.14l-1.5-.26c.27-.22-.26-.29-.94-.44a4.43,4.43,0,0,1-1.83-.71,4.53,4.53,0,0,1-1.84-.4,6.83,6.83,0,0,0-1.76-.58,2,2,0,0,1-1-.75c-.11-.18-.1-.3-.23-.45l-.64-.23c-.27-.24-.86-.85-1.59-1.45-.33-.34-.64-.73-1-1.08L8.56,101l-.35-.52a13,13,0,0,1-1.09-1L7,98.9c-.22-.14-.82-1.24-.58-.49l-.34-.75c-.17,0-.32-.2-.53-.64s-.43-1.11-.79-1.87c-.07-.39,0-.32.2,0-.26-.79,0-.51,0-1,0,.29-.34-.36-.65-.84s-.56-.77-.33.35c-.1.2-.55-1.07-.71-1.9l.19-.57-.54-.91a19.11,19.11,0,0,1-.34-2.94c.2,1.08,1,2.28.53-.48a19.79,19.79,0,0,0,.77,2.85c-.1-.56-.12-.85.18,0A25.83,25.83,0,0,1,3.3,87c.31.07.27-.53.16-2.4,0,.47,0,.94,0,1.41a1,1,0,0,1-.11-.25c0,.53,0,.68-.06.81a13.79,13.79,0,0,1-.52-2.82c-.09,1.1-.3.17-.44-.88s-.25-2.21-.35-1.5a5.55,5.55,0,0,1-.06-1.94c.29,1.82.27-1.38.48-1.09-.1-.68-.16,1.44-.3.52a12.3,12.3,0,0,1,.19-2.49l.06.45q0-.84.12-1.68c-.14-.28-.25,1.63-.31.08a11.72,11.72,0,0,1,.13-1.91c.18.74.43.21.46,1.52v-2.5c0-.8,0-1.3-.2-.63l.1-1.27c-.17.78-.54,3-.4.45l.06,0,0-.9,0-.9.26-.75c-.07,0-.09-.28,0-.94.11-.16.3-.76.39-.68.43-1.87.25-1.76.23-2,.31-1,.49-1.4.5-.87a26.11,26.11,0,0,1,.92-2.53,11.61,11.61,0,0,1,1-2.1c.77-1.81-.23.34.11-.77.58-.67,1.42-2,2.4-3.55a33.81,33.81,0,0,1,3.29-4.27c-.92.32.59-.65.74-1.35-.19.31.38-.21.83-.45s.65-.36-.36.61c.4-.41.85-.75,1.27-1.14,1-.56-2,1.93-.49,1,.73-.59,1.23-1.23,1.84-1.78.31-.28.63-.56,1-.84a5.92,5.92,0,0,1,1.29-.8c-.5.62,1.44-.93,1.12-.37a10.8,10.8,0,0,1-1.43.92l.37-.14c1.8-1,2-1.19,2-1.31s-.26-.2.7-.74c.58-.27,1-.44,1.28-.55a2,2,0,0,1,.59-.1c.22,0,.16.14.25.19.4-.05,1.56-.56,2.19-.77-1.41.59-2.76.71-2.16.29a4.46,4.46,0,0,0,1.07-.21,5.55,5.55,0,0,0,.62-.2l.64-.18a20,20,0,0,0,2-.69c-3.66.48-2.48.5-5.88,1.32-.39.31-.21.51-2.12,1.3,1.08-.74-.17-.12-.51,0,.44,0-1.23.76-1.72,1.18-.56.21.82-1.07-1,.09l-.09.57c-.72.43.09-.47-1.27.66.62-.76-.46-.11,1.49-1.56a13.11,13.11,0,0,0-1.67,1c-.45.38-.84.76-1.2,1.13-.75.72-1.26,1.55-2,2.38.14-.18.12-.23.26-.41a6.09,6.09,0,0,1-.59.72c-.24.27-.47.58-.68.83-1,1.06.62-1,.29-.8L8.53,52.33l-.06,0a4.27,4.27,0,0,1-.86,1.17c.31-.65.36-1,.57-1.43L6.92,54.34c0-.34-1.3,1.66-.45,0-.61,1.1-1.32,2.15-1.83,3.31l-.4.16c-.36.84-.32.88.2-.07-.78,1.09-1.76,5.47-2,4.65-.18.73-.33,1.34-.48,1.89S1.72,65.41,1.61,66A30.77,30.77,0,0,0,1,70c.07-1.38-.15-.61-.28.16s-.23,1.52-.18,0a14.48,14.48,0,0,0,0,3.45c-.15,1.26-.41.7-.48-.68L.2,74.53l-.05,0L.3,75.91c-.14,1.48-.28.31-.3,1.85l.26.33-.11,1c.1-.39.16.51.26,1.62l-.06,0,.13,1.35c-.25-1.32,0,1.24-.18.64A32.76,32.76,0,0,0,.67,86l.12-.39c.51,2.7-.24.15.06,2.35L1,87.79c.18,3.22,1.24,5.29,1.79,7.6-.47-1.29-.58-.89-.52-.88l.6,1.65c.25.59.5,1.23.79,1.86s.61,1.24,1,1.79a13.92,13.92,0,0,0,1.06,1.48,5.39,5.39,0,0,0,.4,1,8.94,8.94,0,0,0,1.33,1.76,6.4,6.4,0,0,0,1.26,1.06,3.6,3.6,0,0,0,.72.38l.5.43.61.39,1.29.79a5.71,5.71,0,0,1,1.53.86c.38,0,1.29.58,2.16.74l.14.14-.06-.23a7,7,0,0,0,1.81.7,11,11,0,0,0,1.74.37c.58.08,1.15.15,1.75.27a13.17,13.17,0,0,1,1.89.38H22.3l1.16.08c.18.1-.3.11-.36.21.89.1,1.78.18,2.68.27l2.67.15c-.35,0-.7-.13-1-.19a30.38,30.38,0,0,1,3.16,0c-1.07.12-.63.14.13.15a8.9,8.9,0,0,1,2,.1l-1.14.07c1.56,0,1.56,0,1.43-.2,2-.09,1.39.37,3.24.13H34.88c-.39-.11.56-.28,1.44-.29.2,0,.83.11.16.14,1.58-.09,3.93,0,4.61-.07.84.06.56.2.11.25,3.36-.13,1.52.06,4.9-.07l-.06.11,1.16-.11,1.65.26-.59-.15c1.11,0,1.8-.08,3.09,0l-.52.16c3.13,0,3.61.33,6.59.13.2,0-.26.08-.5.1,2.76-.23,2.08.32,4.85,0-.17.06.13.13,0,.17l1.26-.09L63,112l1-.32.77.24.5-.1c1.34.43,3.25.13,5.09.46L70,112c4.66-.55,10.64.39,16.25.12l-.1.22L88.5,112c1.25.18-.74.2-.36.31,2.49-.13,1-.33,3.92-.4,1.48.15-.51.17-1.21.25,2.71-.11,6.7-.25,8.61-.14.05,0,.16-.07.06-.08,1.81-.11,4.19,0,6.17-.06,0,.11-.54.13-1,.15a14.5,14.5,0,0,0,2.3,0l-.75.2c1.53,0,4.46-.18,4.81,0-.19-.08-.11-.25,1.21-.25.73.33,3.58-.19,5.7,0-.26.08-1.81.13-1.37.12a13.88,13.88,0,0,0,2.94-.22l-.28.15,4.92-.28c.74.33,4.65-.14,4.32.12,1.76,0-1.48-.12.74-.21.6.13,2-.12,1.92.11l-.23,0,1.55-.05-1,.24a4.93,4.93,0,0,0,2.37-.49,35.37,35.37,0,0,1,3.66.13l-.47.06c3.56-.18,5.92.44,8.71,0,.21,0,.18.08-.25.1l2.2-.06-.52.18,3.63-.38,0,.11c2.41,0,6.18-.26,9.28-.46l-.46.08c3.38-.38,3.28-.07,5.76-.38a1.25,1.25,0,0,1-.26.07l2.24-.17-.49.14a34.18,34.18,0,0,1,3.72-.2,20.36,20.36,0,0,0,2.79-.64c2.44-.27.61.08,2.13,0,1.77-.2,2.06-.43,4.46-.64l0,.12c1.11-.19,1.8-.37,3.35-.62l-.46.13c2.5-.63,3.22-.21,5.11-1,1.08-.13,3.07-.6,3-.37,1.55-.39,2.92-.8,4.3-1.16l4.25-1.28c.59.2.65-.22,2.56-.59l-.2-.15,3.34-1,1.74-.53,1.76-.61a44.94,44.94,0,0,0,7-2.93l.22.11.8-.67a44.16,44.16,0,0,0,7.59-4.91,34,34,0,0,0,3.32-3.08,29,29,0,0,0,2.48-3.06l.64-1.12.68-1.36c.24-.48.46-1,.71-1.57s.44-1.12.69-1.69l-.07.25A24.74,24.74,0,0,0,233.45,69c.16.27.09-.21.29.3a10.66,10.66,0,0,1-.63-1.86c-.23-.65-.4-1.32-.63-1.79a9.8,9.8,0,0,1,.32,1.18c-.59-1.23-1.45-3-1.74-3.68a19.54,19.54,0,0,0-1.52-1.63c-.08-.13-.23-.3-.22-.34l-.36-.21c-.22-.33-.44-.68-.68-1-.24-.15-.95-.7-1.74-1.17a7.81,7.81,0,0,0-2.12-.9c-.14-.19-1.94-1-.51-.46a34.25,34.25,0,0,0-7-2.11l1,.31c.09.21-2-.08-3-.35,1.41.1.16-.26-.41-.5-.94-.06.78.31.27.33a39,39,0,0,1-4.27-.58l.71,0c-1.6-.16-2.29-.6-3.87-.77-1.43,0-2.46-.24-2.2.11-2-.13-.77-.3-1.43-.39a19,19,0,0,1-4.19-.41c-1.14.4-5.53-.37-6,.06l-1.69-.23c-.05.11-.38.36-1.75.43-1.29-.09-1-.28-1.38-.39l-.85.45H187l-.38,0-.29,0c-.06,0-.17,0-.2,0s.09-.33.12-.48l0-.36s0-.29,0-.5l0-.68a32.89,32.89,0,0,0-.24-5.51,35.9,35.9,0,0,0-3-10.36A27.52,27.52,0,0,0,179.37,30a22,22,0,0,0-5.63-4.59l.5.22a17.42,17.42,0,0,0-4.51-2,18.44,18.44,0,0,1,3.3,1.39,12.58,12.58,0,0,0-1.4-.5l-.67-.23-.72-.19a18.52,18.52,0,0,0-8.82-.54,23,23,0,0,0-8.75,3.57c-.79.65-1.3,1.06-1.69,1.35a10.17,10.17,0,0,1-1,.58,7.08,7.08,0,0,0-2.4,2c.2-.25.25-.38.43-.61a41.3,41.3,0,0,0-3.37,3.78c-.47.59-.92,1.2-1.39,1.85l-.35.5-.09.13v0l0,.07c0,.11-.09.21-.13.33-.08-.28-.15-.2-.2-.07s-.14.33-.12.1l0,.37c-.12,0-.3.15-.2-.21,0,.11-.09.26-.13.35a.49.49,0,0,1-.1.13l.12-.45c0-.18-.09-.39-.13-.65a1.21,1.21,0,0,1,0-.19v-.08s0,0,0,0l0-.25a8,8,0,0,1-.13-1.49,95.29,95.29,0,0,0-3.27-9.75c-.73-1.78-1.56-3.58-2.47-5.3a49.81,49.81,0,0,0-3-4.85c-.74-.73-2-2.41-3.21-3.59-.33-.5-.71-1-1.08-1.44-.61-.58-1.35-1.08-2-1.61s-1.37-1-2-1.53c0,0,.09,0,.19.06a20.7,20.7,0,0,0-4.28-2.59c-1.66-.92-3.36-1.73-2.73-1.7-.08.07-.36,0-.72-.14s-.85-.31-1.31-.51-.92-.37-1.27-.51L114,1l-.6-.16L111.65.46l-1.28-.2a12,12,0,0,0-1.55-.15L107,0c-.63,0-1.31,0-2,.06A31.72,31.72,0,0,0,95.3,2.22,42.24,42.24,0,0,0,84.72,8.36a57.75,57.75,0,0,0-9.65,9.73A108.81,108.81,0,0,0,67.19,30c-2.4,4.09-4.65,8.22-7,12.12-1.15,1.95-2.32,3.85-3.53,5.66L55.88,49l-.12.21a.7.7,0,0,0-.09.16s-.05.11-.08.11l-.11-.12-.08-.07,0,0-.4-.46A23.17,23.17,0,0,0,53.3,47a22.71,22.71,0,0,0-1.79-1.63,29.59,29.59,0,0,0-7.57-4.53,27.65,27.65,0,0,0-12.77-2.06c-.79.18-2.93.46-2.09.63-1.63.21-2.44,0-2.73.26,2.24-.18-.59.58,1.59.52l-1.36.24c-.26.17,1.83-.41,1.53-.12l.34-.41a8.39,8.39,0,0,1,2.14.12c.53-.09,1-.21,1.58-.32a7.12,7.12,0,0,1,2.68.13l-.7-.05c1,.09,1.33.2,1.43.3s0,.14.2.21l-.44-.08L37,40.7a10.36,10.36,0,0,0-2-.32c-.56,0-.82,0-.26.09,2.36.46-.61-.21,1.18.05,1.12.18.77.31.7.41.66.09,1.3.28,2,.43-.11.15-1.28-.33-.54,0l1.24.22,1.23.31c.15.29.82.42,1.54.69a4.89,4.89,0,0,1,2,1c-1.64-.73.09.2-.23.19.65.34,1.31.64,1.93,1A19.9,19.9,0,0,1,47.5,46c.3.29-1-.57-.46-.2a7.55,7.55,0,0,0,1.52,1A13.62,13.62,0,0,0,49.85,48c.55.5,1,1,.85,1.09.49.55.8.87,1,1.09a2.67,2.67,0,0,0,.46.38,1.93,1.93,0,0,1,.45.34,4,4,0,0,1,.36.4c.14.2.3.46.51.79s-.3-.26-.59-.67-.52-.58-.19-.06.65.9,1,1.34l.48.67.42.7c-.17-.13-.4-.21-1.15-1.36.72,1.06,1.25,2.18,1.84,3.26l.1,0s.07-.06.1-.09l.21-.25.43-.49.85-1c.58-.65,1.09-1.3,1.64-1.95l.8-1,.62-.76c.4-.51.81-1,1.19-1.52a51.69,51.69,0,0,0,4.5-6.93c.69-.77-.25.7-.5,1.39,2.41-4.62,4-6.12,6.23-9.91l-.11-.15c3.54-5,7.09-11.33,11.87-15.95l-.62.5a9.25,9.25,0,0,1,1.05-1.31c.42-.46.84-1,1.23-1.34.18-.05-.34.79,1-.55-.33.22-1,.72-.85.5A51.74,51.74,0,0,1,95,8.61a25.23,25.23,0,0,1,13.71-2.68,22.45,22.45,0,0,1,8.64,2.49,26.62,26.62,0,0,1,4,2.49A29.14,29.14,0,0,1,124.9,14c4.48,4.5,7.47,10.32,9.48,16.16-.64-1.77,0-1.16.4.23a41.16,41.16,0,0,0,1.2,5.25c.12.41.24.83.34,1.25l.15.64c.09.38.19.84.26,1.26.16.86.31,1.74.45,2.67s.24,2,.34,3.1.39,2.45.58,3.66.35,2.38.52,3.55l5.08-7c.85-1.16,1.7-2.31,2.57-3.42l.64-.83.47-.58.67-.8a66.6,66.6,0,0,1,5.58-5.89l.22.08c.81-.5.94-.77,1.74-1.32V32a33.43,33.43,0,0,1,3.12-1.68,12.25,12.25,0,0,1,2.64-.9l0-.24c1.32-.31.72,0,2-.35l0,.12c.51-.12,1-.26,1.55-.33,0,.1.17.15.53.16s.84,0,1.35.11a12.4,12.4,0,0,1,1.54.23,5.07,5.07,0,0,1,1.08.39,11,11,0,0,1,3,1.39,13.33,13.33,0,0,1,3,2.8c.08.26.64,1,1.24,2a21.94,21.94,0,0,1,1.63,3.2,25.9,25.9,0,0,1,2.16,6.94,24.93,24.93,0,0,1,.33,4.07c0,.35,0,.69,0,1l0,.51,0,.26v.13s0,.08,0,.18c-.08.67-.17,1.34-.25,2s-.27,1.46-.4,2.18l.32-.36-.52,2.86c-.06,0-.17.44-.12,0l-.1.36a37.55,37.55,0,0,0,4.32-.25l2.23-.19,1,0h.56l-.27,0-.13,0h-.2a6.19,6.19,0,0,0-.76.05c-.5,0-1,.13-1.82.17-2.18,0,.12-.37,2.87-.42l0,.06,1.14-.18c.13.2,1.17.25,1.31.45,2.47-.09,4.55-.17,6.65-.19a56.77,56.77,0,0,1,6.78.31c-.54.15,3.67.3,2.6.58,3.07.21-.47-.37,1-.47a7,7,0,0,1,1.9.28c-.42,0,.66.32,0,.27.68.07,1.36.16,2,.26.19,0-.27,0-.5,0a41,41,0,0,1,5.65,1c1.74.41,3.33.83,4.92,1.3.29,0-1.25-.47-1-.52a7.58,7.58,0,0,1,2.87,1.17c.28.18.55.38.89.63.17.11.34.27.55.42s.49.31.75.56a2.87,2.87,0,0,0-.57-.24,4.65,4.65,0,0,1,2,2c0,.08-.06.07-.15,0a2.48,2.48,0,0,1-.39-.37c-.15-.15-.31-.35-.47-.52l-.5-.4a16,16,0,0,1,1.38,1.54c.39.55.7.9.57.51a5.48,5.48,0,0,1,.63,1.29c.1.35.13.65.23,1,.06,0-.29-1.17.07-.5l.22.67c.07.24.12.5.19.76.15.52.22,1.11.33,1.7a17.32,17.32,0,0,1,.12,3.58s-.14.13-.16-.06a3.59,3.59,0,0,1-.17,1.77c-.06.23-.17.48-.28.82S227.72,78.56,227.55,79.14Z"/><path class="cls-1" d="M100.38,108l1.06,0c0-.05,0-.11.53-.17Z"/><path class="cls-1" d="M150.46,107.15l.38-.07C150.58,107.09,150.5,107.12,150.46,107.15Z"/><path class="cls-1" d="M162.56,106.17c-.86.1-.09.12.34.15C162.91,106.27,162.89,106.22,162.56,106.17Z"/><path class="cls-1" d="M72,108.58c.18,0,.3,0,.27-.09C72,108.53,72,108.56,72,108.58Z"/><path class="cls-1" d="M4.1,91.05l0,.3A.92.92,0,0,0,4.1,91.05Z"/><path class="cls-1" d="M4.93,95.16a7.43,7.43,0,0,0,.34.78C5.14,95.59,5,95.36,4.93,95.16Z"/><path class="cls-1" d="M91,108.55a5.35,5.35,0,0,0,.83-.07A3.91,3.91,0,0,0,91,108.55Z"/><path class="cls-1" d="M5.63,96.72c.12.33.28.63.42.94,0,0,0,0,0,0C6,97.34,5.76,97.05,5.63,96.72Z"/><path class="cls-1" d="M3.84,89.74c.08.41.2,1,.26,1.31A6.06,6.06,0,0,0,3.84,89.74Z"/><path class="cls-1" d="M43.18,108.55h.11C44.15,108.46,43.61,108.5,43.18,108.55Z"/><path class="cls-1" d="M8.14,100.36l.07.11.22.19Z"/><path class="cls-1" d="M3.21,85.19a4.6,4.6,0,0,0,.1.53c0-.17,0-.36,0-.61C3.25,85.17,3.23,85.19,3.21,85.19Z"/><path class="cls-1" d="M26.81,108.08c-.3.07-.42.12-.44.16C26.73,108.26,27,108.23,26.81,108.08Z"/></svg>