<svg id="Capa_1" data-name="Capa 1" xmlns="http://www.w3.org/2000/svg" viewBox="0 0 377.21 152.38"><defs><style>.cls-1{fill:#ed6c6f;}.cls-2{font-size:21px;fill:#fff;font-family:PatrickHand-Regular, Patrick Hand;}</style></defs><path class="cls-1" d="M60.72,18.68c-14.78-3.27-29.81,9.85-36.58,28s-6.34,40-2,59.48c1.8,8.16,4.46,16.45,9.49,21.52,5.61,5.65,13.06,6.27,20,6.64q114.14,6,228.39.9c15.57-.7,31.44-1.62,46.09-8.84a62.73,62.73,0,0,0,32.83-42c5.49-23.69-3.53-51.95-20-62.68-9.53-6.2-20.44-6.8-31-7.29L142.26,6.74C115.47,5.51,87.81,4.46,62.83,17.66"/><path class="cls-1" d="M66.61,22.89c-1.07.42-.19,1.21-.25,1.46C67.94,23.31,66.44,22.66,66.61,22.89Z"/><polygon class="cls-1" points="83.68 13.8 83.45 14.31 86 12.57 83.68 13.8"/><path class="cls-1" d="M101.82,10.71c-1-.83-2.64-.57-4.48-.14a20.46,20.46,0,0,1-5.48,1.11l-.6-.32-1.18,1.76C93.88,12.06,99,10.49,101.82,10.71Z"/><path class="cls-1" d="M111.86,14.12c-.63-.7,2.08-.72-2.28-.12a3.87,3.87,0,0,1,.42.16C110.39,14.13,110.93,14.11,111.86,14.12Z"/><path class="cls-1" d="M110,14.16c-1.91.14,1.28.55,0,0Z"/><path class="cls-1" d="M118.92,13.54c-.86.22-1.71.42-2.56.67.54.4,2.81.51,2,.82C120.94,14.68,120.42,14.25,118.92,13.54Z"/><path class="cls-1" d="M121.36,12.18l-1.34.28C120.26,12.64,120.61,12.7,121.36,12.18Z"/><path class="cls-1" d="M117.2,13l2.82-.57c-.37-.31-.41-.91-1.3.2C119,12.11,118.39,12.64,117.2,13Z"/><path class="cls-1" d="M115.6,12.78c-1.44-.38-3.32-.59-.75-1.29-2.46.17-3.49.6-3.3.93S113.15,13,115.6,12.78Z"/><path class="cls-1" d="M102.59,8.71c-.67-.15-1.33-.24-2-.35L99,9.16C99.79,8.77,102.76,9.25,102.59,8.71Z"/><path class="cls-1" d="M135,14.87c.18-.39-.84-1.09-1-1.6l-1.95.37C133,14,134.9,14.28,135,14.87Z"/><path class="cls-1" d="M134,13.27l2.91-.57C134.33,12.52,133.85,12.82,134,13.27Z"/><path class="cls-1" d="M121.84,10.11l-4.71,1.43c1.86-.48,3.73-1,5.62-1.44Z"/><polygon class="cls-1" points="146.09 15.42 144.4 16.26 147.41 15.01 146.09 15.42"/><path class="cls-1" d="M153.49,15.6c-1.26.7,1.61,1.36.3,1.77a17.64,17.64,0,0,0,5.32-1.14A11.8,11.8,0,0,1,153.49,15.6Z"/><path class="cls-1" d="M161.74,15.5a20.33,20.33,0,0,0-2.63.73A10,10,0,0,0,161.74,15.5Z"/><path class="cls-1" d="M141.85,13.12a3.29,3.29,0,0,0,2.24,1.24L143,13.19Z"/><path class="cls-1" d="M143,13.15l0,0,2.47.17Z"/><path class="cls-1" d="M141.56,13.1l.29,0C141.75,13,141.68,13,141.56,13.1Z"/><path class="cls-1" d="M129.37,11.28c1.71-.58,5.29-1.12,1.89-2.19C130,9.82,132,10.42,129.37,11.28Z"/><path class="cls-1" d="M140.21,11.64l-3.08-.39c.05.29.59.75-.27,1Z"/><polygon class="cls-1" points="141.74 11.35 140.21 11.64 141.35 11.79 141.74 11.35"/><path class="cls-1" d="M156.49,14.21a14.88,14.88,0,0,1,4.48-.4,44.29,44.29,0,0,0-5.33-.58C155.38,13.57,154.59,14.16,156.49,14.21Z"/><path class="cls-1" d="M149.92,13.6l.3,0C150,13.44,149.89,13.41,149.92,13.6Z"/><path class="cls-1" d="M177.24,14.57l-.25-.22a1.07,1.07,0,0,1-.07.19Z"/><path class="cls-1" d="M155.35,13a4.48,4.48,0,0,0-2.9.27,30.28,30.28,0,0,1,3.19,0C155.76,13.08,155.78,13,155.35,13Z"/><path class="cls-1" d="M166.31,15.19a21.2,21.2,0,0,0-2.28-.72C164.69,14.85,166.05,15.46,166.31,15.19Z"/><path class="cls-1" d="M150.65,13.88l-.2,0C150.88,14.18,150.83,14.06,150.65,13.88Z"/><path class="cls-1" d="M150.65,13.88a9,9,0,0,0,1.8-.6,15.47,15.47,0,0,0-2.23.27A1.59,1.59,0,0,1,150.65,13.88Z"/><path class="cls-1" d="M182.5,7.63c-.28,1-3.83,1.82-6.8.57-3,.64-1.22,4.13,1.29,6.15.11-.45.13-.86,3.22-1.33-1-.62-6.73-1.64-4.1-2.45,4.08-.35,3.3.52,5.25,1.15-1.62-1.36,5.24-1.64,4.45-3.57l-3.59.5C182.17,8.35,183.48,7.94,182.5,7.63Z"/><path class="cls-1" d="M171.16,14l-1.26.07a14.75,14.75,0,0,1,4.29,1.6c2.12-.41,2.57-.77,2.73-1.11l-6.19-.43Z"/><path class="cls-1" d="M164.24,13.79c1-1.08,4.09-1.42,2.29-2.72-3.7-.09-2.63.82-4.86,1.21,6,0-1.75.54,2.53,1.38a26.48,26.48,0,0,1-3.23.15c1.07.19,2.09.4,3.06.66l-.13-.08h0v0c-.26-.15-.34-.24,0-.14,0,0,.09,0,.13,0a1,1,0,0,1,.28-.41c1.72.31.26.3-.28.41,0,0-.08.11-.08.16s0,0,0,0l6-.34A35.25,35.25,0,0,0,164.24,13.79Z"/><path class="cls-1" d="M134.53,6.79c.18.11.17.19.18.27C135.1,6.94,135.25,6.85,134.53,6.79Z"/><path class="cls-1" d="M137,7.57a3.36,3.36,0,0,1-2.22.4c-1.21-.39,0-.54,0-.91-.87.26-3,.69-.37,1.34l.43-.14c2.39.48,5.41,2,5,2.16A8.37,8.37,0,0,0,137,7.57Z"/><path class="cls-1" d="M150.78,10.4l5-.33L153.29,9l.11.59C150.58,9.21,151.15,10,150.78,10.4Z"/><polygon class="cls-1" points="177.79 15.15 177.07 16.31 180.02 14.76 177.79 15.15"/><polygon class="cls-1" points="184.26 15.31 183.97 16.33 185.71 15.79 184.26 15.31"/><path class="cls-1" d="M242.58,142.79l-1.46.34A8.91,8.91,0,0,0,242.58,142.79Z"/><path class="cls-1" d="M253.2,142.54l.24-.52C253,142.32,252.76,142.53,253.2,142.54Z"/><path class="cls-1" d="M337.43,28.63c.39.88.6,2,.85,2.7s.48,1,.82.55l.41-1.16A7.3,7.3,0,0,1,337.43,28.63Z"/><path class="cls-1" d="M336.78,119.91c.23,0,.46-.08.7-.13.16-.63.3-1.22.41-1.76C337.57,118.59,337.2,119.24,336.78,119.91Z"/><path class="cls-1" d="M338.39,124.57c-.95.42-1.9.82-2.88,1.17A11.78,11.78,0,0,0,338.39,124.57Z"/><path class="cls-1" d="M184.58,145l-1.71,1.16C185.55,146.09,184.37,145.51,184.58,145Z"/><path class="cls-1" d="M250.49,17.94a23.06,23.06,0,0,0,4.55.89C252.86,18.08,251.12,17,250.49,17.94Z"/><path class="cls-1" d="M246.39,130.64c-.89.23-1.26.47-1.23.72C246.07,131.14,246.59,130.91,246.39,130.64Z"/><path class="cls-1" d="M260.35,19.07c-.32-.13-.63-.2-1-.31a22.17,22.17,0,0,1-4.35.07A7.6,7.6,0,0,0,260.35,19.07Z"/><path class="cls-1" d="M12.53,74.81c.06-.16.09-.35.15-.5C12.53,74.26,12.52,74.48,12.53,74.81Z"/><path class="cls-1" d="M46.13,26.1c-.39.34-1.13.71-1.76,1.2A10,10,0,0,0,46.13,26.1Z"/><path class="cls-1" d="M210.25,17c-1.38,0-.23.11,0,0Z"/><path class="cls-1" d="M203.78,12.21c.3-.11.53-.26.58-.52A1,1,0,0,1,203.78,12.21Z"/><path class="cls-1" d="M274.33,12.65h.12C274.05,12.42,274.12,12.46,274.33,12.65Z"/><path class="cls-1" d="M208.21,16.39a13.31,13.31,0,0,0,1.73.42A12.52,12.52,0,0,0,208.21,16.39Z"/><path class="cls-1" d="M208.46,16.94l-1.19-.17C207.09,17,207.23,17.08,208.46,16.94Z"/><path class="cls-1" d="M212.16,17a17,17,0,0,1-2.22-.22c.27.09.38.15.31.19Z"/><path class="cls-1" d="M87,139.34a2.12,2.12,0,0,1-.29-.11C85.34,139.65,86,139.59,87,139.34Z"/><path class="cls-1" d="M363.89,52.92c0-.06-.06-.09-.09-.15s0,.16,0,.22Z"/><path class="cls-1" d="M365.71,58a6.85,6.85,0,0,1-1.9-5c-.94.81-1.89,1.59-2.84,2.36C362.61,56.15,364.15,57,365.71,58Z"/><path class="cls-1" d="M217.16,143.71l3.49,1c-4.16,1.75-7.21,1.22-3.92,2.6.42-3.54,13.5-.63,13.9-4.2l2.31.69c-.66,0-.76.19-1.41.17,4.49,1.59,3.24-2.62,9-2.29,2,.21,3.42.69,2.07,1.15l4.42-1c1.3,0,1,.66-.29.63l6.78-.5-.05.11a32.23,32.23,0,0,1,4.17-1.93c1.74.44-.85.4-.4.83l3.73-1c1.56.86-1.52,1.86-4.12,1.83,3.64,3.41,3.09-1,10.74.78l-3.53.59c2.36,1.94,5.1,1.08,9.17,2.17-1-.61-8.16-2.83-4.12-3.88a8.58,8.58,0,0,0,4.85-.52c.07,1.26,2.21.86,4.89.68l-.11,1.68c2.89-.6,2.63-1.46,4.31-2.28,3.27,0,4,1.25,4.87,2.29,5.32-.06-3.78-1.84,2.47-2.55,4.44.32,7.56-.62,12.73-2.37,3.2.11-.39,1.1.8,1.4.86-.57,1.71-1.19,2.56-1.78.68-.08.53.36.46.58,2.23-1-.1-1.66,3.41-2.85.28-1,2.25-.74,4.7-.78s5.39-.35,7.2-2.15c1.24,0-.15,1.16.4,1.63,1.39-.93,2.38-1.57,3.13-2.12s1.29-.95,1.78-1.35a15.24,15.24,0,0,0,1.5-1.39c.55-.59,1.25-1.26,2.12-2.35l2.19-.67c.73-.24,1.44-.52,2.17-.78-1.72.4-1.88-.32-1.38-1.48a44.45,44.45,0,0,1,2.65-4.35c-1.26.19-2.31.32-2.95.48l1.88-2,1.77-2.06c.67-.21.65.56.41,1.67.2-.34.38-.67.51-1,.94-.4,1.36-.29,1.52.17a3.73,3.73,0,0,1-.23,2c-.74.19-1.49.36-2.21.5-.43,1.66-.85,3.34,0,4a6.56,6.56,0,0,1,1.25-1.5c-.13.44-.17.78.08.8s.52-.64,1-1.59c.73.2,1.47.38,2.22.56l-.23-.77c1.11-.68,2.16-1.46,3.25-2.2s2.09-1.59,3.15-2.4c.57-1.38,1.07-2.73,1.51-4.12s.86-2.79,1.25-4.3.89-3,1.4-4.66,1.12-3.41,1.9-5.32c.28,2.44,1.79,1.41,3.2,2.22a3.65,3.65,0,0,0-1.54,1.59,23.83,23.83,0,0,0-1.08,2.48,30.81,30.81,0,0,1-1.18,2.92,14.35,14.35,0,0,1-1.78,2.84c1.51-1.83,1.84-1,1.71-.31.57-1.29,1.16-2.54,1.62-3.85s1-2.58,1.36-3.91c.54.4,1,.14,1.43-.43.24-.29.5-.65.77-1s.56-.84.91-1.27c-1.53.16-1.25-1.38-.62-3.39.29-1,.68-2.15,1-3.23a18,18,0,0,0,.59-3c.45,0,.84.3.92,1a7.57,7.57,0,0,1-.95,3.79,5.4,5.4,0,0,0,1-1.28,4.16,4.16,0,0,0,.35-1.28,7.27,7.27,0,0,0-.22-2.42c-.36-1.6-.84-3.12.48-5-.17,1-.47,1.41-.13,1.89a16.7,16.7,0,0,1,.7-4.54,7.28,7.28,0,0,1,.68-1.68c.19-.34.39-.42.54-.06,0,.32-.11.64-.16,1a22.18,22.18,0,0,0,.46-2.68c.13-1,.27-2,.37-3.11s.07-2.2.08-3.31c0-.56,0-1.11,0-1.66s-.09-1.08-.13-1.61c-.1-1.05-.22-2.06-.36-3a23.69,23.69,0,0,0-.64-2.47c-.47-1.42-1-2.35-1.57-2.51a9.27,9.27,0,0,1,3.24.86c-1.42-1.8-3-3.49-4.49-5.09-1.64-1.58-3.17-3.09-4.85-4.46,1.06.21,2.44-.84,3.85-1.4a3.07,3.07,0,0,1,2.12-.2,2.67,2.67,0,0,1,1,.67,5.18,5.18,0,0,1,.88,1.45A13.42,13.42,0,0,0,362,46.26c.08,1.12-1.92,3.31-2.46,2a13.24,13.24,0,0,0,.42-3.72c-.05-.84-.08-1.77-.26-4.38.25,1.62-3.21,1.15-4.08-1.06.57.15,2.59-1.47,3.24-.76-.85-.76-1.83-1.45-2.72-2.14s-1.79-1.37-2.77-2c1.26,1,2.31-1,2.24-2.68-.08.44-.76-.76-1.67-2.19a24.52,24.52,0,0,0-2.77-3.64c.44.84.76,1.74,1.13,2.59a11.2,11.2,0,0,0-1.48-1.88,9.2,9.2,0,0,0-4.55-2.26,18.41,18.41,0,0,1-3-.79c-.5-.22-1.07-.44-1.66-.73a12.47,12.47,0,0,1-1.87-1.19,3,3,0,0,0,2-1.23,1.69,1.69,0,0,0,.27-1.35,2.84,2.84,0,0,0-1.22-1.68c-1.14.18-3.67.76-6.44,1.47a34.26,34.26,0,0,1-8.46,1.41c-.27-.36-.53-.74-.82-1.08-1.44,0-2.86.09-4.3.21a29.85,29.85,0,0,1,7.44-3.17,27.55,27.55,0,0,1,9.46-1c-2.26-1.76-.26-1.34-4.24-2.81-.57-.62.08-.75,1-.6a13.47,13.47,0,0,1,2.81.79,51.48,51.48,0,0,0-9.4-3.69c0,.9-1.91.91-3.76,1s-3.65.24-3.57,1a59,59,0,0,1,10.4.28c-.05.91-1.88,1.63-4.33,2.08a26.82,26.82,0,0,1-8.61.23c-1.52-.85,1.5-3,1.46-3.58-.93.46-6.12.61-6.65.18.9-.26,1.8-.52,2.73-.76-3.5-.92-5.82,2-9.8.12-1.4-.17-4.09-2.45-4.38-1.42,2.2,2.11,2.36,8.32.76,9.76-.48-.16-7.29-2.26-8.85-3.32-2.24-1.68,3.65-3.58,1.74-5-.11.47-1.41,1-1.95,1.17-1.46-.48.68-1.46-2.54-1.39-.62,1.76-6.52-.45-1.59,1.44-3.16.36-3.31-.52-7-.62,1.12,1.21-3.49,3.77-6.66,4.13.21-.44-.47-1.07-.8-1.35-6.42-.46-9.84-1.42-15.83-1.72-.54-.45-3.4-1.11-2.14-1.82a8,8,0,0,1-3.55.8c-3.51-1.7,4.14-.05,1.5-2-.29,1-4.85,1.21-7.52,1.73.74,1.64,6.07.59,8.74.06-.09,2.21-4.79,4.3-11.1,5-5,.32-2.09-1.52-3-1.25-9.34-.81-8.15,3.49-15.85,1.54-3-1.55,0-2.8-.65-3.85,4.09-.34,6.19,1.18,8.95,1.25l-3.36-.82a11.71,11.71,0,0,1,5.5-.16c-2.53-1.38-15.8-1-23-2.47-1.3.42-3.54.8-2.52,1.41l2.3-.09c2,1.23-4.37,1.37-1.51,2-3.1.66-6.59,1.75-10.87.91l-.74-1.64c.07.47,2.78,1.09,4,.65-1.83.63-6.51-2.47-8.58-.46l3,1.25c-3.11.66-7,2.19-10.79,1.5,1.67,1.67.89-.14,3.52,1.84-2.25-2.41,9.77.55,6.1-2.05,2.69,2.28,4.78,1.14,8.34,3.13-.08-.53-1.24-1.07,2-.66a3.35,3.35,0,0,1,.72-.43l.22.05-.18-.07c.15-.07.16-.09-.06,0a3.83,3.83,0,0,1-1.6-.87c1.65-1.14,6.75-.87,8.5-1.42,1.9.34-.82.57.19,1.18l2.63-.82c.2,1.19,5,2.18.45,2.66l4,.24a17.59,17.59,0,0,0,7.65.78c1.89.34,4.87-1.08,3.16-.23l6.37-.44.05.3c6.24.43,12.95-1.35,20,1.09a29,29,0,0,1,7.81,0l.64,1c2.72-.23,8.06,1.39,9.27.39,2.79,2.86,13.08,1.2,17.81,1.9l.24-1.32a66.47,66.47,0,0,0,10.5-.35l-.2-1.18c3.56-.78,8.94,1.16,14,1.7-.4.4-1.67.13-2.58-.23,3,1.61,6,1.62,9.08,1.81s6,.71,7.82,2.78a3.82,3.82,0,0,1,1.57.61,3.28,3.28,0,0,1,1,1,1,1,0,0,0-.28-.14c.09.09.24.2.39.32.32.49.62,1,1,1.49a6.13,6.13,0,0,0-.77-1.33,17.23,17.23,0,0,0,1.47.91c.56.37,1.16.81,1.8,1.19l-.42,1.32c.1.06.17.13.27.19.63,1.32,1.21.44,1.37-.82a9.39,9.39,0,0,0,1.9,1,1.47,1.47,0,0,0,.18,1.37,7.18,7.18,0,0,0,1,1.14,5.61,5.61,0,0,1,1,1.23,2.12,2.12,0,0,1,.23.75,2.35,2.35,0,0,1-.14.91,3.48,3.48,0,0,1,1.38,1.08l.88,1c.3.37.58.77.89,1.16a15.19,15.19,0,0,0,1.87,2.12,2.54,2.54,0,0,0,1.79,1c-.24.17-.18.67-.55-.13a22.71,22.71,0,0,0,.83,2.57,6.7,6.7,0,0,0,1.22,2.28l-1.26,1.23A21.58,21.58,0,0,1,354,50.27l1.58,1.63a4.73,4.73,0,0,1-.68,2.56c-.36.34-.86.09-1.73-.89a21.64,21.64,0,0,1,2.32,4.66,23.81,23.81,0,0,0,1.9,4.26l-1.05-.12a17.54,17.54,0,0,0,.88,3,3,3,0,0,1,.06,2.56,19.5,19.5,0,0,0-.94,4.82c-.13,1.07-.19,2.25-.4,3.48-.09.63-.17,1.27-.26,1.93,0,.32-.08.66-.13,1s-.13.67-.2,1c-.92,5.4-3,11.47-6,15.43,1.75-.21,1,.72-.06,1.78A10.48,10.48,0,0,0,347.83,99c-.35.53-.45,1,0,1.4-.92.13-2,1-1.68-.61a15.31,15.31,0,0,1-.77,1.57c-.29.45-.58.87-.88,1.26a23.5,23.5,0,0,1-1.73,2,11.66,11.66,0,0,0-1.44,1.89,6.86,6.86,0,0,0-.93,2.41c-.9-.06-.1-1.5-.75-1.4a6.44,6.44,0,0,1-.4,1,1.34,1.34,0,0,1-.83.69c-.66,0,.06-.92.33-1.7-1.62,1.83-2.16,3.19-2.19,4.33a5.67,5.67,0,0,0,1.11,3c-2.66,1-3.54,1.9-4.29,4.15-.57,0-1.27.09-1.53-.11s0-.61,1.18-1.68c-.75.51-3.1,1.94-5.31,3.17s-4.19,2.44-3.93,3.23c-.7-.13-2.36,1-2.75,1.31-3.87,1.44-4.27,1.39-8.12,2.7l1.17,0a2.68,2.68,0,0,1-2.37,1.7,24.85,24.85,0,0,0-4,.59l.05-.22c-1.94,0-3.11.09-3.89.19a7.83,7.83,0,0,0-1.56.38c-.78.25-1.57.54-5.42.14l.54,1.2c-.2,1.37-1.95,1.18-4.16.75s-4.89-1.06-7.09-.42l1.65.62c-2.4,1.08-7-3.3-9.49-3.54-.54-.21.84-.41,1.58-.61-6.52-1.32-.77,1.67-5.56,2.26-.93-.85,1.05-2.3-2.2-2.33-1.63-.65-9.27,3.26-13.76,1.7,1,.65,2,1.3-.23,1.89-3.42.37-9.35-2.25-12.37,0-.45-.18-.62-.35-.64-.52-2.6.63-8.49,1.19-10,2.38-2.52-4.27-16.26,2.48-16.28-1.54l-8.06.36.2-.41c-5.15-.18-7,.78-8.76,1.76-1.2-.26-.33-.64-.24-.85-7.54-.71-8.28-.54-14.59,1.48l-.66-1.29c-1.71.77-10.89-2-18.28-.5a1.21,1.21,0,0,1,.82-.58c-8.33,1.51-19.86-3.71-23,1l-5.5,1.09c7.09.46-1.09,2,1.82,2.85-2.8.25-7.2-1.51-3.77-1.71l.54.24c1.29-2.42-8.81-1-8.59-2.7-14-.12-27.54-1.88-40.59-2.46l1.43,2-4.55-.28c-1.18-.49-1.55-1.56,1.7-1.35-1.67-1.15-5.49.7-5.6,1.11-6.34-1,2.57-2.13.62-2.25l-2.65,0,.58.25c-2.18.7-2.4,1.51-6.31,1.25-2.45-.5-1.21-1.24-2.18-1.35,0-.14-.32-.22-1.49-.12L66,129.29l2.23,1.61c-2.58.64-5.4-.34-2.83,1.51-1.88-1.42-7.22-1.92-12.39-2.19-2.6-.12-5-.22-6.86-.46a9.92,9.92,0,0,1-3.59-.9A10.08,10.08,0,0,1,34,125.28a1,1,0,0,1-.26,1.26c-.4.22-1.23,0-2.27-1.39,1.74-.66,1-2,.24-3.78s-1.75-4.2-1.06-5.92c-.33,1.43-1.34-.73-2.22-2.89s-1.69-4.23-2.3-1.93c-.51-3,1.21-.52,1.44-2.93-1.52-3.3-2.08-7.33-2.38-11.51s-.3-8.58-.73-13c-.47-.13-1.1,1.41-1.86-.48.72-1.61,1.42-3.19,2.21-4.74-.22-1.72-2.67-1.66-.94-4.8-.41.43-1,1.09-1.12-.1.77-4.35,1.42-8.67,2.24-13a83.48,83.48,0,0,1,3.3-12.68,39.06,39.06,0,0,1,6.16-11.31,23.7,23.7,0,0,1,9.76-7.47c-2.23.51-1.17-.36.14-1.36-1,.46-.63-.95-1.15-1.34a12.78,12.78,0,0,1,1.68-.57c.57-.16,1.11-.35,1.67-.48a21.81,21.81,0,0,1,3.3-.5,2.1,2.1,0,0,1,1.23-1.24,11.88,11.88,0,0,1,2.27-.64c.81-.07,1.59-.22,2.22-.33a1.56,1.56,0,0,0,1.3-.7l-1,.12-.51.06-.51.13c1.31-1.08.41-2.13-1.2-3.1-.39-.25-.82-.5-1.26-.75s-.84-.42-1.22-.64c-.76-.45-1.36-.94-1.38-1.58-1.71,1.53-4.33,1.67-7.37,2.48s-6.16,2.47-7.49,5.84c-1.42.59.37-1.42-.59-1.33a7.83,7.83,0,0,1-1.41,2.75,28.73,28.73,0,0,1-3.07,3.17l.07-.49c-3.17,4.09-5.16,7.14-7.23,10.38l-1.51,2.53c-.5.87-1,1.81-1.47,2.8s-1,2-1.47,3.18-1,2.38-1.45,3.73l1.43-.46a18.31,18.31,0,0,1-1.9,3.73c.59,1.57,1-.08,1.48-1.74s1.09-3.32,1.73-1.82c-1.68,1.16-2.81,5.32-3.56,9.37s-1.23,8-2.72,9c-.29,3.72,1.51-1,1.22,2.72-.28.31-.55.62-.82.94l1,1c-.27,2.4-1.22,3.61-1.88,3.7a21.36,21.36,0,0,0-.2-2.33,15.79,15.79,0,0,0-.25,5.8,31.51,31.51,0,0,1,.39,4.21c.07-1.19.23-2.39.34-3.58.49,5.05.88,10.61,1.73,16.08a59.15,59.15,0,0,0,4.13,15.35l.36-.87a29,29,0,0,1,2.24,6.51,19.56,19.56,0,0,0,.77,2.75,20.88,20.88,0,0,0,2.3,4.37l-.28-.21c1.41,1.25,3,3,4.69,4.88-1-.62-.58.43,0,1.39s1.09,1.9-.42,1.07A19,19,0,0,0,33,135a5.48,5.48,0,0,0,1.88.45,10.4,10.4,0,0,0,1.39-.12c.62-.05,1.54-.09,3.05-.19.31.43.65.87,1,1.3,1.05-.2,1.62-.4,2.45-.51a25.88,25.88,0,0,1,3.94,0c-1.7.23-1.11.66-.55,1.14s1.1,1-.9,1.29a17.19,17.19,0,0,0,5.67,1.08,29.63,29.63,0,0,0,4.24-.29c2.5-.29,4.45-.48,6.25,1.16,3.89-2.49-7-1.84-4.87-2.31-1.72-1,3.2-1.85,5.75-1.45,2.6.2,4.28,3.65,10.86,3.88-.65,0-.71.16-1.36.12,2.43.79,4.87-.71,7.84.53,1.76-1.56,3.92.24,4.49-1.81l-6,.24c3.44-.39,6.74-2.7,12.32-1.31A11.11,11.11,0,0,1,87,139.34c1.63.68,3.19-.28,4.87.41-.56,2.05-7.35.18-11.08,1.62,1.74.94,7-1.24,5.07.93,2.76-2.76,6.48.62,11-1.42l-.33,1.23a11.51,11.51,0,0,1,3.49-.64L97.65,143c3.66-1.26,6.93,1.42,10.42.78-7.26-.19-1.59-1.55-4.62-2.55,9-1.37,5,3.4,15.08,3.07-1.36.14-5.07-.88-2.94-1.4a19.76,19.76,0,0,1,5.57,1.53c6.64-.11-1-1.3,1.85-2,2.23,1.56,3.27-.55,6.19-1v1.26c7.55.95,2.06-2.58,8.84-1.49l-2.9,1.7,3.55-.39-.75,1.43c3.88-1,5.07-.73,8.85-.28-.86-.9.53-2.28,3.87-2.28,2.28.78-1.29,1.2,3.46,1-1.08.78-2.26,1.77-4.32.58-.21.41-1.06.78-1.29,1.18,2.46.9,6.19.26,7.91.26a6.9,6.9,0,0,1-1.86-.31l6.9-1.7c1.08.48.22.86-.64,1.22,1.4-.12,2.36-.7,4.41-.79-.53,1-.41,2.08-3.31,2.54l6.56-1.11c.44.45,3.37,1.23,2.52,1.61,3.64.6,8.92-2,13.75-1.21a3.85,3.85,0,0,1,1.77-.55c4.53.21,8.56,1.45,13.92,0l3.07,1.8c4.2-.47-4.15-2.27,2.84-3,4.95-.65,1.88,1.54,3.62,2,2.46-1,6.71-2.93,11.29-1.51A27.67,27.67,0,0,1,217.16,143.71ZM269,141.4c-1,.31-3,1.21-3.72.49C266.34,140.41,267.25,141.05,269,141.4Zm75.21-24.89c-.23.87-1.28,1.54-2.59,2.11A11.17,11.17,0,0,1,344.19,116.51ZM225.32,16.67l.11-.06C227.64,17.2,226.86,17,225.32,16.67Zm-4.61-.76c-.47.15-.45.33-.26.51a4.3,4.3,0,0,1,2.56-.13C222.7,15.94,222.11,15.69,220.71,15.91Zm-148,114.36.89.37C71.57,130.91,72.15,130.61,72.73,130.27Z"/><path class="cls-1" d="M338.24,124a1.13,1.13,0,0,1-.78-.28C337.26,124.16,337.39,124.36,338.24,124Z"/><path class="cls-1" d="M184.89,144.73h-.15a.42.42,0,0,0-.16.23Z"/><path class="cls-1" d="M293.06,8.53a4.76,4.76,0,0,1,1.81.74C294.94,9,294.51,8.68,293.06,8.53Z"/><path class="cls-1" d="M196,16.91l3-.19a6.46,6.46,0,0,1-2.66-.53C196.41,16.49,197,16.94,196,16.91Z"/><path class="cls-1" d="M170.6,7.93c-.45.13-.93,0-1.36.11l.09.59C171.18,8.68,172.5,8.27,170.6,7.93Z"/><path class="cls-1" d="M193.47,12.6c-.19-1.07-2.07-.8-4.16-.69a2.26,2.26,0,0,1,.37,0C189,13.38,191.24,13,193.47,12.6Z"/><path class="cls-1" d="M188.83,11.92a12.38,12.38,0,0,1-1.93-.06C186.63,12.44,187.68,12,188.83,11.92Z"/><path class="cls-1" d="M214.79,16.34c-1-.32-.68,1.32-1.22.87C212.41,18.5,220.23,15.88,214.79,16.34Z"/><polygon class="cls-1" points="191.94 9.03 192.63 10.38 193.85 9.37 191.94 9.03"/><path class="cls-1" d="M208.34,10.75,205,10.23c0,.23-.39.33-.91.41C206.16,10.78,208.4,11.14,208.34,10.75Z"/><path class="cls-1" d="M204.12,10.64a8.67,8.67,0,0,0-2.69.09A18.44,18.44,0,0,0,204.12,10.64Z"/><polygon class="cls-1" points="196.51 8.85 197.48 9.17 199.82 9.37 196.51 8.85"/><path class="cls-1" d="M244.08,12.65l3.64-.21c.39-.43-.58-.75-1.94-.64C244.9,12.08,243.54,12.19,244.08,12.65Z"/><path class="cls-1" d="M233.26,8.56a3.3,3.3,0,0,1,1.56,1.07L235,8Z"/><path class="cls-1" d="M243.87,8.67c.38-.44,5.33-1,.72-1.16C244.2,7.94,240.55,8.14,243.87,8.67Z"/><polygon class="cls-1" points="298.47 13.24 297.54 13.21 297.55 15.88 298.47 13.24"/><path class="cls-1" d="M348.86,20.65c-1.67-2-2.18-1.87-2.61-1.73s-.8.33-2.41-1.37c-1.31-.19,2.61,2.75,1.28,2.45C347.74,21.48,348.67,22.86,348.86,20.65Z"/><path class="cls-1" d="M345.12,20c-.45-.21-.93-.41-1.47-.6A8.56,8.56,0,0,0,345.12,20Z"/><path class="cls-1" d="M54,24.76l1,.17.48.08.48.16a7.68,7.68,0,0,0-1.3-.82Z"/><path class="cls-1" d="M58,22.73c.11.59.2,1.18.27,1.76.46-.44,1-.89,1.51-1.33C59.22,23.17,58.28,23.18,58,22.73Z"/><path class="cls-1" d="M276.83,144.5l.2-.42c-.45-.42-1.1-.43-2.41-.44Z"/><polygon class="cls-1" points="239.13 144.55 239.78 144.57 238.52 143.07 239.13 144.55"/><path class="cls-1" d="M207.54,147.16c1.29.05,2.8-.32,4.1-.28C208.83,147.21,207.16,145.25,207.54,147.16Z"/><text class="cls-2" transform="matrix(1, 0, 0, 1, 73.03, 47.4)">Busca que los y las estudiantes <tspan x="-12.79" y="25.2">reconozcan las emociones básicas, </tspan><tspan x="10.34" y="50.4">establecimiento de límites y </tspan><tspan x="31.89" y="75.6">reflexiones empáticas.</tspan></text></svg>