<svg id="Capa_1" data-name="Capa 1" xmlns="http://www.w3.org/2000/svg" viewBox="0 0 60.49 58.93"><defs><style>.cls-1{fill:#fff;}.cls-2{fill:#5da6bc;}</style></defs><path class="cls-1" d="M26.58,21.26A47.25,47.25,0,0,0,11.28,16c3.8,2.95,7.83,11.29,7.83,11.29s-4.64,10.21-8.48,13.44l18-3,11,10.88s-2.24-9.37.79-12.45a6.78,6.78,0,0,1,2.47-1.4c3.66-1.43,7.32-4.84,11-6.27-5.27-3.7-14-5.11-14-5.11s-.53-10.52-.36-12.63a2.56,2.56,0,0,0-.37-2c-1-1.11-2.74.11-3.65,1.28-2.62,3.33-6.24,7.86-8.86,11.2"/><path class="cls-2" d="M25.8,20.64c.05.15.31.29.4.08l-.29-.44Z"/><path class="cls-2" d="M27.47,20a1.06,1.06,0,0,0-.63-1c.21.51,0,.43.28,1a.3.3,0,0,1-.49.07c.05.14-.3.21-.13.5.48,0,.73-.28.72-.79C27.36,19.8,27.41,19.94,27.47,20Z"/><path class="cls-2" d="M38.76,13.78l.05-.14A.24.24,0,0,0,38.76,13.78Z"/><path class="cls-2" d="M43.64,25.19c-.11,0-.16,0-.18.07S43.65,25.24,43.64,25.19Z"/><path class="cls-2" d="M45.68,26.35l-.11-.07C45.6,26.34,45.64,26.38,45.68,26.35Z"/><path class="cls-2" d="M38.76,13.78l-.15.37C38.77,14.18,38.72,14,38.76,13.78Z"/><path class="cls-2" d="M28.43,16.87a.38.38,0,0,0,0,.24.75.75,0,0,1,.07-.18Z"/><path class="cls-2" d="M37.68,10h-.06a2.15,2.15,0,0,0-.14.3Z"/><path class="cls-2" d="M35.58,11.78c.08-.08-.23-.37-.35-.51a.41.41,0,0,1,.08.36A1.3,1.3,0,0,0,35.58,11.78Z"/><path class="cls-2" d="M30.42,17.11l0,.14Z"/><path class="cls-2" d="M38.25,11.5l-.15.08Z"/><path class="cls-2" d="M22.46,17.1s0,0,0,.07S22.5,17.12,22.46,17.1Z"/><path class="cls-2" d="M26.53,21.35h-.08l-.13.2Z"/><path class="cls-2" d="M49,28.15h0S49,28.17,49,28.15Z"/><path class="cls-2" d="M35.94,42.48a.4.4,0,0,1-.33.29c-.2,0-.36,0-.3.36,0-.08.23-.13.36-.24A.61.61,0,0,0,35.94,42.48Z"/><path class="cls-2" d="M28.54,16.81l.12-.15A.49.49,0,0,0,28.54,16.81Z"/><path class="cls-2" d="M35.31,43.13h0v0Z"/><path class="cls-2" d="M47.94,29.73a.5.5,0,0,0,.19.1A.4.4,0,0,0,47.94,29.73Z"/><path class="cls-2" d="M50.6,28v.07A0,0,0,0,0,50.6,28Z"/><path class="cls-2" d="M45.09,32.27c-.1,0-.16,0-.24.1s0,0,.06,0S45,32.27,45.09,32.27Z"/><path class="cls-2" d="M41.65,34l.11,0,.11-.07Z"/><path class="cls-2" d="M6.5,13.58c.49.22,1,.45,1.37.68a4.41,4.41,0,0,1-.78-.55.62.62,0,0,0-.18-.11A1.5,1.5,0,0,0,6.5,13.58Z"/><path class="cls-2" d="M28.61,17c-.07-.08-.09-.14-.07-.2l-.06.12A.23.23,0,0,0,28.61,17Z"/><path class="cls-2" d="M46.65,35.22,46,35.5A3.64,3.64,0,0,0,46.65,35.22Z"/><path class="cls-2" d="M6.58,43.17l-.3.09S6.38,43.26,6.58,43.17Z"/><path class="cls-2" d="M44.18,36.49a1.11,1.11,0,0,0-.48-.11.33.33,0,0,0,0,.14Z"/><path class="cls-2" d="M7.89,14.26h0Z"/><path class="cls-2" d="M11.31,13.59c-1-.19.26.61.49,1-.8,0-1.08-.61-1.91-1.05-.54.06-.16.64-.68.53a1.8,1.8,0,0,1-.48-.33c0,.23-.47.15-1,.08-.11.07-.1.16.6.69a4.92,4.92,0,0,1-.46-.23c.91.48,1.7,1,2.29,1.31,0,.11,1.23.9,0,.24a4.73,4.73,0,0,0-.82-.58l.49.41c-2-1-.54-.49-1.76-1.19a2.55,2.55,0,0,0,.59.7,12.3,12.3,0,0,1,2.1,1.69c-1.35-.54-2.36-1.92-2.81-1.69-.19-.24-.36-.46-.49-.65l.3.08c-1.75-.82-1.66-.82-1.5-.79s.33,0-1.64-.89l-.23-.05C5.28,13.7,6.19,14.4,7,15A23.45,23.45,0,0,1,9.28,17a3.13,3.13,0,0,0,.94.41,3.52,3.52,0,0,1,.89.39,7.83,7.83,0,0,1,.83.66,1,1,0,0,1,.23.35c.05.18-.06.28-.14.4s-.15.54.71,1.18c.68.34,1.44.28,1.64,1.16a7.29,7.29,0,0,1-.76-.08c.4.61.69.7.93.76s.38.05.44.51c-.27,0-.51-.43-.5-.29-.08.7.49.15.71.51l-.38.35c.52.68,1.32,1.32,1.87,2.12-.16,0-.38,0-.41.24A4.61,4.61,0,0,1,17,26.81l.07.16c0,.05,0,.05,0,.07a.45.45,0,0,1,0,.11.47.47,0,0,1-.06.19.83.83,0,0,1-.32.13c.06,0,.13.05.17.15l.1.3c0,.09-.27.09-.29-.05-.35.34.24.14.3.42a.22.22,0,0,1-.43,0c0,.89-.33,2.43-1.15,2.95l0-.2c-.47.49.44,1.09-.22,1.43v-.14A21.22,21.22,0,0,0,14,34.19,6.24,6.24,0,0,1,12.36,36c.21.25-.18.7-.57,1.17s-1,1-.31.93l-1,.72-.83.56c-.6.41-1.23.88-2.79,2.17-.79.69.61.18.32.6l-1.52.8.28,0c.44-.17.76-.32,1.11-.46-.53.33-1,.64-1.43.93l.68-.19c-.08,0,.28-.32.68-.53a.66.66,0,0,1,.25,0c.07,0,0,0,.18,0a.59.59,0,0,1,.38.08c.15.12.13.31-.09.47l3-.9a5.68,5.68,0,0,1-1.3.59c2-.81-.48.58,1.34-.17,0-.1.44-.35.58-.47.18.25,1.58,0,2.61-.27l-.4.39c.91-.11,1.92-.32,2.92-.54l.74-.16.44-.11a7.45,7.45,0,0,1,.82-.17.4.4,0,0,1-.11-.75l.21.46c.16-.33-.37-.12,0-.56.43,0,.37.5.16.7l.48-.25c.05.13,0,.23,0,.42.15-.34.95.34,1.16-.23l0,.13c1.11-.18,1.58-.43,2.48-.61-.05-.41.32-.38.53-.76a9,9,0,0,0,2.27,0c.53-.3.1-.38.32-.67.1.37.89.2.53.54.47-.11.77-.18,1.1-.29a.57.57,0,0,0,.29-.15l.31-.24c0-.16-.08-.21,0-.36a.1.1,0,0,1,.15,0,.66.66,0,0,1-.05.37l0,0c.15,0,.3.09.37.25a9.16,9.16,0,0,1,.57,1c.37.72.72,1.39,1.4,1.49h-.07l1.1.51c.32.41-.43,0-.32.42,1.33.42,1.31,1.43,2.34,1.86.07.86,1.1,1.85,2.06,2.71a12.74,12.74,0,0,1,2.72,2.94l-.19-.56c.23-.14.49.7.81,1.1-.16-.45-.51-.85-.38-.91a24.63,24.63,0,0,1,2.1,2l1.17,1.25,1,1-.54-3.63c-.1-.67-.21-1.35-.32-2s-.26-1.42-.31-2a3.93,3.93,0,0,0-.88-2,1.59,1.59,0,0,1-.3-1.64c.19.23.37.48.56.75a12.25,12.25,0,0,1-.27-1.31l-.09-.9a6.62,6.62,0,0,1,0-1.18A15.74,15.74,0,0,0,41,38.33c.08.12.22.17.18.28a.52.52,0,0,0,.31-.45.61.61,0,0,0-.18-.49c.12-.1.24.12.41.15s.1-.16.1-.3,0-.26.17-.15,0,.12,0,.16c0-.2.54-.3.22-.59.49,0,.82-.57,1.43-.56.17-.56,1.22-.3,1-.94.27.64,1.35-.09,1.55-.59,0,.25.43,0,.43.33.42-.27.74-.61.48-.86,1.19.21,1.12-1.5,2.1-.89.47-.54.94-1,1.4-1.48l.17-.16.3-.24.6-.45a10.88,10.88,0,0,1,1.2-.8c.39.19-.21.46-.65.76s-.92.58-.65.84c.42-.33.77-.63,1.06-.9s.61-.49.87-.71a6.86,6.86,0,0,1,2.17-1.18c.69-.2.33.18.35.3.34-.21.72-.41,1.07-.58a2.55,2.55,0,0,1-.23-.24l-.1-.12-.22-.14-.87-.56a9.82,9.82,0,0,0-1.88-1,1.49,1.49,0,0,1,.52.11c-.3-.16-.51-.44-.84-.28l.35.12c-.07.22-.63.15-1.14.09a3.73,3.73,0,0,0-1.14-.06c1.28-.3-1-.76.64-1.16-.24-.06-.58-.08-.7.09-.22-.17-.25-.32.23-.35a2.15,2.15,0,0,0-1.07-.16,1.31,1.31,0,0,1-.34,0,1.76,1.76,0,0,1-.41-.13c.06-.13.21-.13.35-.26A1.46,1.46,0,0,1,49,24.72c.06-.07,0-.2.2-.13-1-.33-1.86.13-2.8-.47.5-.52-.29-.31-.18-.86h-.62l.15.33c-.49-.16-1,.11-1.41-.18l.43-.12-1-.15.47.34c-.57.15-.12.7-.74.38.15,0-.48-.13-.66-.51h0a.91.91,0,0,1-.92,0c-.05-.2.22-.59.18-.72-.44.38-.73,0-1.33.37a1.41,1.41,0,0,0,.39-.4l-.42.3c-.08-.14,0-.19.19-.38a.14.14,0,0,0-.11,0c-.14-.1-.64.78-.42,0,0,0,.09,0,.15,0,.13-.65-.29-.93-.14-1.84.55-.25.17.66.63.38-.15-1.1-.77-2.25-.68-3.33l-.06.2c-.8-.11.37-.81,0-1.33.06.13.45.16.36.12a7.7,7.7,0,0,0-.53-2.58l.21.13a10.32,10.32,0,0,0,.17-1.59c-.21-.14-.17-.4-.47-.24a1.74,1.74,0,0,0,.27-.44,2.68,2.68,0,0,0,.13-.59,3.67,3.67,0,0,0,0-1.16,12.54,12.54,0,0,0-.63-1.69l-.34-.78c.15.11.44.14.33,0a2,2,0,0,0-1.28-.41c0,.34.1.22.25.54a3.13,3.13,0,0,1-.86.3c.56-.27.15-.57-.08-.72,0,.1-.08.24-.08.35-.54-.47-.19.72-.88.65l0-.22c-.29.26-.46.68-.71.83-.24-.31.2-.4.15-.75a1.85,1.85,0,0,0-.47.81c-.12.29-.2.51-.46.51a5.27,5.27,0,0,1,.4-.73c-.6-.09-.62.11-.94.37l0,0c-.25.18-.58.49-.76.6l.22-.07c.48,1.08-.55,1-.47,2-.06-1-.22-.32-.54-.65-.22.08-.51.21-.56.07.07.5-.59.28-.47,1-.13-.07-.24.28-.48,0-.2.42.26.07.38.21,0,.86-1.5.92-1.58,2.14-.32.85,0,1.29-.34,2.07-.35.07-.28-.5-.28-.5a1.27,1.27,0,0,0-.74.92c0-.14-.19-.14-.4-.14-.17.28.28.5-.16.71a1.92,1.92,0,0,1-.25-.62c-.14.39-.17.86-.32,1.26-.26-.07-.15-.43-.19-.65-.19.43-.55,1.07-.32,1.43l.29-.14c-.08.14-.32-.14-.3-.29,0-.5.46-.35.59-.28l-.11.29c.86.29.61-1,1-1.43l.34.58,0-.79c.21,0,.54.15.43.43.5-.13.06-.42.55-.49.07,0,.08,0,.08.08l.1-.44c.06.15.39.22.17.36.73-.35.36-1.21.9-1.14V16c.47-.92-.3-.36-.25-1.28l1.21.29-.3-.36c.08-.07.24-.21.36-.07,0-.5-.2-.07-.29-.43.64-.14.7-1.21,1.35-.85-.16-.36-.51.21-.37-.36.71.37.28-.57.85-.71.23.36-.21.57.36.43-.36-.64.68-.61.81-1-.41-.36.36-.83.52-1.31.09.15.8-.42,1.13-.3v.13c0-.77.47-.89.87-1.06a2.74,2.74,0,0,1-.45.94.66.66,0,0,1,.24,0c.13-.27.27-.42.49-.44l-.33.58c.18,0,.5-.09.67.06s.14.26,0,.52a6.4,6.4,0,0,0,.72-.78c.26-.31.44-.44.6-.12-.17.17-.52.45-.62.35s.18.08.09.27a1.45,1.45,0,0,0-.36,0c-.16.38.3-.08.26.18-.3.19-.23.29-.46.39,0,0,.13-.24,0-.23a1.32,1.32,0,0,1-.48.72c.17-.08.4-.16.43,0,0,.39-.36.22-.51.41.2,0,0,.4.43.4,0,.17-.2.21-.32.27.19.3.08,1.39.54,1l0-.08,0,.05h0c.46,1-.2,2,0,3h-.14c.18.57.14,1.27.48,1.67,0,.17-.26.41-.44.35.13.43.3.47.08,1.11-.27-.43-.22.16-.2-.44-.11.57-.34.71.09,1.31-.39-.19-.46.45-.33.71l.25-.41a1.63,1.63,0,0,1,0,.43c0,.17,0,.33,0,.5a4.24,4.24,0,0,1-.5-.18,3.4,3.4,0,0,0,0,1.65,7.38,7.38,0,0,0,.42,1.17c.72,0,1.19.05,1.54.54.63-.24-.83-.41-.15-.7a2.55,2.55,0,0,1,.89.6l.39.34c.08.09.12.14.16.15.63.43.82-.56,1.5-.2a.55.55,0,0,1,.57-.7c.5.2.44.89.08.94-.12,0-.17-.09-.15-.14-.18,0-.41,0-.26.27l.11-.15c.21.23.9.41.66.65.43-.06.24-.24,0-.41.57.42,1,.3,1.61.66-.08-.13-.11-.35,0-.32.89.52.53-.19,1.21-.05.28.39-.34.57.38.58.33.32-.08.48-.28.56.7-.12,1,.61,1.3.8h-.35a1.12,1.12,0,0,1,.5.11l0-.4c.15.13.3.19.24.33.27-.15.09-.61.57-.75a.4.4,0,0,0,.19.14l.14,0c.09,0,.16.09,0,.29-.12-.14-.17,0-.24.1s-.15.28-.22.3.08,0,.07,0a.44.44,0,0,1-.08.1c-.2.37.4-.41.69-.25-.29.15-.48.33-.4.3a1.59,1.59,0,0,1,.8-.33c-.07.21.43.05.53.13a.24.24,0,0,0,0-.12,1.51,1.51,0,0,1,.88.11c-.33.07-.42-.06-.5,0,.49,0,.44.12.29.22s-.34.17.08.24c-.49.05-1.06,0-1.37,0l.12,0c0,.07-.84,0-.55.09.57.08.51,0,.82.23a.43.43,0,0,0,0-.27,1.72,1.72,0,0,1,.56.25c.2-.09,0-.21.17-.24a1.6,1.6,0,0,0,.85.09c-.64,0-.6.1-.6.2s0,.23-.4.25l-1.14-.35c-.68-.06.15.42-.75.73a2.5,2.5,0,0,1,.35,0c.11.34-.51.38-.71.68-.13-.26-.37-.24-.59-.31.13.17-.65.4-.4,1l-.6-.08c-.78.32-.33,1.23-1.06,1.57,0-.4-.38-.39-.06-.86-.22.14-.45.22-.34.39-.23-.08-.41.72-.76.6,0,.16.1.45-.17.58a.2.2,0,0,1-.07-.13c.07.13-.3.4.08.56-1.15-.39-1.92,1-3,.58A11,11,0,0,0,40,35.25c0-.09-.1-.11,0-.17a.52.52,0,0,0-.33.73.6.6,0,0,1-.26.78c-.32.09-.32-.05-.27-.2s.19-.29,0-.21c-.46-.22-.59.1-.69.48s-.12.81-.49,1v-.17c-.51.4,0,1.27-.16,2a.2.2,0,0,0-.14,0,6.36,6.36,0,0,1,.64,2.23c-.38-.22-.2-.32-.59-.19.06.31.62-.07.73.52-.21.17-.38.45-.8.34l0-.31c-.26,0-.26.11-.19.21s.18.25.14.3l-.24-.14c.1.36.71.91.73,1.51l.18.15c.34.55.27.56.16.49s-.22-.17,0,.36l-.65-.86c.09.2.28.62.48,1.11s.42,1.07.53,1.45c-.61-1.33-.94-2.19-1.27-2.83a5.54,5.54,0,0,0,.52,1.33c-.09-.21-.28-.61-.18-.48.28.56.5,1.08.68,1.53.11.26.19.49.26.7l.08.28s0,.11,0,.09l-.07-.07a10.38,10.38,0,0,0-1.21-2.17,3.94,3.94,0,0,1-.81-1.5c0,.3-.24,0-.4-.28s-.25-.57-.39-.66c-.27,1-.11-.07-.58.75-.18-.1-.24-.17-.21-.23-.07-.33-.19-.71-.29-1.06s.36.07.48-.09c-.44-.55.07-.49-.09-1-.16.3-.5.16-.7-.21l.1.7c-1-.34-.06-1.14-1.1-1.5l.43,0c-.48-.24-1.33-1.32-2.2-1.15,0-.14.1-.4.31-.29a5.22,5.22,0,0,0-1.3-1,8,8,0,0,1-.92-.67,6,6,0,0,1-.87-.78,2.76,2.76,0,0,1-.76,0l.19-.26c-.42.14-.68.54-1.15.4,0-.1.13-.25-.05-.24l-.24.14-.22.15a.69.69,0,0,1-.5.14l.21-.29c-1.22-.09-1.69.91-2.64,1.22-.11-.65-1.06-.7-1.54-.73v-.1c-1.37.15-2.21.93-3.43,1.4a2.9,2.9,0,0,0-1.85-.16l-.55.07a.42.42,0,0,1-.18,0c-.08,0-.15,0-.15-.15a1.46,1.46,0,0,1-.36.65c0-.14-.72.58-.18-.12h0c.43-.68.26-.49.18-.49l-1.12,1c.44-.56.4-.56,0-.41l-.3.12c-.05,0-.14.06-.15,0h0s0-.08.24-.21a8,8,0,0,1,.75-.45c-.34.14-.25.06-.53.11l.73-.29c.3-.22.37-.23.36-.39a1.87,1.87,0,0,0,.34,0,5,5,0,0,1-.61-.17c-.3-.11-.56-.3-.48-.44.21.07.41.15.6.23l.18-.24.25-.31c.18-.2.36-.4.52-.61a2.31,2.31,0,0,0,.6-1.46c.07.06.21.17.15.33.27-.41,1.31-1.45.46-1.71.5.26.55-.92.59-1.53l.33.27c-.26-.67-.38-.75-.22-1.4.12-.11.37,0,.18.17.43-.37-.18-.54.3-1l.14.33c.26-.47.11-.5,0-.89a1.78,1.78,0,0,1,1.11-1.21.55.55,0,0,1-.23-.36.93.93,0,0,1-.32-.49c.12-.08.28.05.37.12a2.78,2.78,0,0,0-.75-1.29c-.23-.22-.44-.4-.4-.77a.42.42,0,0,0,.17-.21l.4.81c.08.18.19.41.15.37.32-.23.09-.81.8-.61-.49-.31-1.42-.69-1.53-1.27a.31.31,0,0,1,.08-.13l.06,0a.41.41,0,0,0-.23-.28,1.42,1.42,0,0,0-.13-.47c.25-.22-.18-.66-.32-.92-.35.24-.48-.12-.6.36,0-.05.07,0,.18.18s.06.07.1.08h0c.11.16.24.37.38.61-.3-.09-.57-.21-.53-.6h-.79c.31-.63.17-1.45.43-1.73a6.36,6.36,0,0,1-.5-.53l-.27-.18a5.78,5.78,0,0,0-1.14-.45c-.23-.15.19-.12.33-.13s.19.15.35.19a5.81,5.81,0,0,0-1.48-1c.17-.15,1,.48.52,0l.34.17c.3,0,.22-.06-.14-.32l-2-1.41-.46-.34s.11,0,.23,0a6.64,6.64,0,0,1,1.35.62,5.57,5.57,0,0,1-.57-.33A5.61,5.61,0,0,0,16.3,18a3,3,0,0,1,1.95.84c.49.33.66,0,1.09-.11l0,.47.74-.29c1-.05,1,1.55,2.26,1.31v-.33c.34.2,1.21.34,1,.63.06,0,.25-.23.32,0l-.09.21,1,.06c.58.49-.53.79.4,1.31.39.11,1.33-.06,1.28-.27a.45.45,0,0,1-.19-.54l.38.07c.4-.58,1-1.06.41-1.95l-.79.07,0-.4.51.24c-.14-.43-.45-.27-.74-.2a.58.58,0,0,0-.08-.46l-.89.31c.05-.28.51-.36.17-.69-.41.15,0,.68-.54.65-.15-.43,0-.62-.41-.53a.29.29,0,0,1,.31-.27c-.39.06-.84-.28-1.15,0-.15-.5-1.06-.34-.79-.94a1.72,1.72,0,0,1-1,.18c.8-.54-1.05-.45-.63-1.19a1.15,1.15,0,0,1-1.1.12L19,16.13a3.23,3.23,0,0,0-.95-.11c.07,0,.21-.12.3,0a6.59,6.59,0,0,1-1.3-.8c0,.59-.93.5-1.17.81-.49-.42-.51-.6-.42-.75s.28-.28,0-.62c.13.28-.18.32-.42.37s-.42.13-.16.39a6.19,6.19,0,0,1-1.32-1c.57.87-.45,0-.43.51-1.19-.6-1-.9-1.65-.78C10.78,13.77,11.29,13.59,11.31,13.59Zm5.5,11.76h0l-.16-.24Zm.56,1a3.73,3.73,0,0,0-.22-.46c.11-.1.26-.13.31,0C17.35,25.87,17.4,26.16,17.37,26.37Zm1.33-3.63c.15.14.11.24.05.31a2,2,0,0,0-.21-.27h-.06A.68.68,0,0,1,18.7,22.74Z"/><path class="cls-2" d="M18.05,22.73,18,22.67a.89.89,0,0,0,0,.15h.15Z"/><path class="cls-2" d="M38.82,13.61v0a.17.17,0,0,1,.06-.06Z"/><path class="cls-2" d="M5.29,43.12l.35-.18-.09,0Z"/><path class="cls-2" d="M37.76,7.58a.15.15,0,0,0-.08-.1A.14.14,0,0,0,37.76,7.58Z"/><path class="cls-2" d="M34.8,9.4l-.46.33A4.89,4.89,0,0,0,34.8,9.4Z"/><path class="cls-2" d="M33.17,11.11a.43.43,0,0,0,.12.14h0Z"/><path class="cls-2" d="M54.4,26.9l.13.06C54.9,27.09,54.68,27,54.4,26.9Z"/><path class="cls-2" d="M42.84,23.34a1.77,1.77,0,0,1,.37-.12C43,23.15,42.9,23.11,42.84,23.34Z"/><polygon class="cls-2" points="46.72 35.19 46.71 35.18 46.65 35.22 46.72 35.19"/><path class="cls-2" d="M43.68,23.35a.58.58,0,0,0-.47-.13A.85.85,0,0,0,43.68,23.35Z"/><path class="cls-2" d="M27.2,18.36l-.08.07s0,0,0,.05Z"/><path class="cls-2" d="M27.16,18.48l0,.13C27.16,18.56,27.19,18.53,27.16,18.48Z"/><path class="cls-2" d="M27.06,18.86l.07-.25C27.08,18.67,27,18.75,27.06,18.86Z"/><path class="cls-2" d="M29.13,16.23l-.1-.12A.44.44,0,0,0,29.13,16.23Z"/><path class="cls-2" d="M29.64,15.52c-.16.14-.58.21-.69.49l.08.1C28.94,15.86,29.72,15.83,29.64,15.52Z"/><path class="cls-2" d="M33.38,13.83l-.55.5c.21,0,.48,0,.31.29C34.09,14.2,32.73,14.54,33.38,13.83Z"/><path class="cls-2" d="M35,12.2c-.18.36.19.14.25.22C35.26,12.13,35.26,12.06,35,12.2Z"/><path class="cls-2" d="M38.65,18.75l-.38,0C38.33,19,38.41,18.72,38.65,18.75Z"/><path class="cls-2" d="M40.76,21.63a1.28,1.28,0,0,1,.23-.19,1.11,1.11,0,0,1-.35-.08A1.78,1.78,0,0,0,40.76,21.63Z"/><polygon class="cls-2" points="38.69 24.9 38.42 24.91 39.39 24.94 38.69 24.9"/><path class="cls-2" d="M42.21,33.32l.26.4C42.6,33.57,42.45,33.06,42.21,33.32Z"/><path class="cls-2" d="M37.83,43.58c-.24-.2-.4-.3-.13.13C37.72,43.64,37.9,43.73,37.83,43.58Z"/><polygon class="cls-2" points="15.55 38.03 15.85 37.82 15.55 38 15.55 38.03"/></svg>