<svg id="Capa_1" data-name="Capa 1" xmlns="http://www.w3.org/2000/svg" viewBox="0 0 60.49 58.93"><defs><style>.cls-1{fill:#c1d261;}</style></defs><path class="cls-1" d="M42.88,4.7c0,.11.08.25.31.11l.06-.37Z"/><path class="cls-1" d="M44.71,4.81c.27-.15.67-.36.5-.67-.35.28-.43.14-.73.52-.25,0-.46,0-.44-.16-.07.08-.43,0-.5.26a1.59,1.59,0,0,0,1.19-.15C44.82,4.68,44.73,4.75,44.71,4.81Z"/><path class="cls-1" d="M50,25.3l0-.15A.54.54,0,0,0,50,25.3Z"/><path class="cls-1" d="M48.93,39.61c0-.11,0-.16,0-.17S48.9,39.63,48.93,39.61Z"/><path class="cls-1" d="M48.23,42c0-.05,0-.09,0-.13S48.21,41.92,48.23,42Z"/><path class="cls-1" d="M50,25.3l-.1.38C50,25.71,49.93,25.48,50,25.3Z"/><path class="cls-1" d="M48.15,5.34a.75.75,0,0,0-.24-.08l.2.11Z"/><path class="cls-1" d="M49.73,19v-.12l-.13-.09Z"/><path class="cls-1" d="M49.57,14.1c0,.11.25.14.37.18a.38.38,0,0,1-.19-.23A.35.35,0,0,0,49.57,14.1Z"/><path class="cls-1" d="M48.24,6.89l-.11-.08Z"/><path class="cls-1" d="M49.69,22.44a.23.23,0,0,0-.1,0A.18.18,0,0,0,49.69,22.44Z"/><path class="cls-1" d="M37,3.45s0,0,0,0S37,3.45,37,3.45Z"/><path class="cls-1" d="M42.6,4.77l-.08,0a.61.61,0,0,0,0,.14Z"/><path class="cls-1" d="M46.94,46.16v0C47,46,46.94,46.09,46.94,46.16Z"/><path class="cls-1" d="M12,51.47c0,.18-.12.15-.25.11s-.26-.09-.21.21C11.61,51.72,12.13,51.85,12,51.47Z"/><path class="cls-1" d="M48.24,5.46l.17.15A.53.53,0,0,0,48.24,5.46Z"/><path class="cls-1" d="M11.54,51.79h0l0,.06Z"/><path class="cls-1" d="M41.48,52.11a.34.34,0,0,0,.12.09S41.57,52.15,41.48,52.11Z"/><path class="cls-1" d="M46.65,48.77l-.1.16A.59.59,0,0,0,46.65,48.77Z"/><path class="cls-1" d="M37.6,53a.45.45,0,0,0-.28,0l0,0A.25.25,0,0,1,37.6,53Z"/><path class="cls-1" d="M33.47,53.41l.08.05.13,0Z"/><path class="cls-1" d="M24.26,3.49a.67.67,0,0,1,.19.23C24.39,3.54,25,3.47,24.26,3.49Z"/><path class="cls-1" d="M48.06,5.46a.15.15,0,0,1,.18,0l-.13-.09A.09.09,0,0,0,48.06,5.46Z"/><path class="cls-1" d="M37.67,55.08l-.68,0A5.55,5.55,0,0,0,37.67,55.08Z"/><path class="cls-1" d="M9.39,24.12l0-.16A.22.22,0,0,0,9.39,24.12Z"/><path class="cls-1" d="M35,55.35a1.25,1.25,0,0,0-.39-.15s-.06,0-.07.08Z"/><path class="cls-1" d="M24.46,3.72h0Z"/><path class="cls-1" d="M28.83,3.14c-.63,0-.3.33-.43.52-.76.1-.35-.25-.61-.43-.47.09-.83.4-1.18.39,0-.06-.1-.08,0-.15-.5.27-1.48,0-2.06.34a.18.18,0,0,1-.07-.09.78.78,0,0,1,.08.47c-.28,0-.53.22-.63,0,.17,0,.19-.08.27-.15l-.3.1c-.26-.33.41-.11.41-.35a6,6,0,0,1-1.7.27c-.09-.32,1-.1.45-.38l.68.12c-.52-.5.42,0-.06-.5-.9-.09-1,.16-1.91.06-.21.17.06.26-.14.43-1.28.31-1-.8-1.95-.38-.24.2-.34.6-1,.39l.23-.36c-.87,0-.5.51-1.42.26.17-.13.69-.11.56-.15-.59-.29-.42.2-.89.2L17,3.42a6.35,6.35,0,0,0-3.28,1.12c0-.12.14-.32-.17-.24a9.52,9.52,0,0,0-2.74,3.92L11,8.8c0,.11-.16.19-.19,0-.21.5.16.06.22.33s-.22.35-.27.16a8.81,8.81,0,0,1-.25,3.44l-.06-.19c-.2.69.46.86.14,1.49l0-.13c-.29,1.52-.2,3.24-.72,4.37.37.26-.3,1.51.24,1.66a6.08,6.08,0,0,0-.69,1.82c0,.33.3.52.33.93H9.41l.27.58-.36.27,0,.39c0-.15.15-.32.23-.29a1.89,1.89,0,0,1-.44,1.46l.17,1.43c-.11,0-.14-.28-.2-.47.25.78-.31.13-.07.83.07-.09.16.06.22.08a3.66,3.66,0,0,0-.17,1.72l-.2-.12c-.09,1,0,2.22,0,3.41.1-.43.44-.32.46,0l-.3.13c.18.23.12-.36.34.11-.05.44-.35.29-.44,0l.09.54c-.09,0-.14-.1-.25-.13.18.22-.31.92,0,1.24l-.09,0c0,1.19.08,1.73.09,2.69.26,0,.21.4.42.68A15,15,0,0,0,9,39.71c.14.6.22.18.38.44-.23.05-.19.9-.37.46a15.25,15.25,0,0,0,.3,2.6c.09-.14.13-.3.21-.22s-.08.53-.19.5l0-.06c.4,1.44-.56,3.38,0,4.52l0-.06.32,1.18c0,.55-.2-.32-.32.1a6.05,6.05,0,0,1,.3,1.73,2.79,2.79,0,0,0,.77,1.76,1.62,1.62,0,0,0,.62,1,3.59,3.59,0,0,0,1.27.66,18.28,18.28,0,0,1,2.33.62l0-.17c.31-.12.34.14.55.2,0-.13-.3-.19-.11-.25,2.46.12,5,.79,7.55,1.05.92.09.55-.81,1.7-.39l-.34.3c1.87-.3,3.81.07,5.63-.29-.11.08-.11.17-.29.17.39.21,1.43,0,1.42-.21.29,0,.08.16.26.24.39.12.95-.33,1.17-.12,0,0-.11.08-.18.1.25-.12,1.17,0,.92-.28.69.07,1.29-.21,1.85-.1.33-.31,1.18,0,1.25-.38,0,.43,1.23.21,1.63,0-.13.14.39.09.24.28.49-.06.93-.2.82-.4,1,.38,1.75-.64,2.35-.09L43,54a19.68,19.68,0,0,0,2-.65c0,.2-.37.36-.74.45s-.71.17-.64.38a7,7,0,0,0,3.21-2.08c.28-.28,0,.29,0,.44a8.28,8.28,0,0,0,1-1.88A7,7,0,0,0,48.31,49s0,.15,0,.27c.06-.22.23-.47,0-.51l0,.22c-.37.24-.26-1-.39-1.09.41.52.45-1,.93-.24,0-.15,0-.36-.15-.36.1-.19.19-.24.26,0,.13-.79-.15-.58,0-1.26.09,0,.09.17.17.27a2.22,2.22,0,0,1,.06-1.36c0,.05.13,0,.08.17.22-1-.08-1.82.29-2.89.34.39.19-.36.54-.36V41.2l-.2.21c.09-.52-.1-1,.08-1.46l.08.41.07-1-.2.54c-.11-.55-.44,0-.26-.68,0,.14.07-.52.3-.78h0a1.48,1.48,0,0,1,0-.94c.12-.09.37.12.45.07-.26-.29,0-1.25-.24-1.6a.25.25,0,0,0,.28.1l-.22-.23c.1-.24.14-.27.28-.22.1-.74-.45.2-.2-.66,0,.07.05,0,.07.18.16-.87,0-1.7.13-2.5.36-.21,0,.71.35.46a33.05,33.05,0,0,1-.17-3.55l0,.21c-.48-.17.28-.83.06-1.4,0,.14.27.19.22.15a12.52,12.52,0,0,0-.2-2.75l.12.15a15,15,0,0,0,.15-1.68c-.12-.15-.1-.43-.29-.26.74-1.51-.36-2.88.23-4.22,0,.16.11.38.11.25L51,18.87c-.21.09-.13.15-.29.39a1.23,1.23,0,0,1-.23-.74c.14.51.34,0,.46-.24-.07,0-.14,0-.21,0,.37-.61-.43-.1-.19-.91l.11,0a3.51,3.51,0,0,1-.19-.91c.24-.14.12.32.33.34,0-.46-.49-.9-.26-1.32.08.19.09.47.16.66a1.32,1.32,0,0,0,.24-.85v0l.11-.79-.07.2c-.67-.55-.15-1.17-.62-1.93.44.74.24.11.52.16.07-.21.14-.52.22-.44-.24-.35.14-.64-.24-1.14.09,0,0-.41.2-.35-.14-.49-.14.14-.26.1-.39-.68.11-1.88-.71-2.84-.54-.83-.9-.86-1.51-1.44-.07-.32.41,0,.41,0a1.75,1.75,0,0,0-.88-1c.12,0,.1-.11,0-.28-.32-.21-.38.09-.72-.28a1.13,1.13,0,0,1,.52-.09,6.24,6.24,0,0,0-1.34-.39c-.06-.19.35-.11.55-.11-.51-.21-1.37-.38-1.57-.15l.29.16c-.18,0,0-.23.11-.24.5,0,.59.3.57.39a3,3,0,0,0-.32-.06c.07.3.35.38.7.48a2.3,2.3,0,0,1,1,.41l-.44.14a5.73,5.73,0,0,1,.69.16c0,.17,0,.38-.31.23.18.42.38.16.46.58,0,0,0,0-.06,0s.24.16.34.25c-.11,0-.18.21-.28,0,.23.68.86.87.71,1.25l0,0c.5.9.31,0,.89.61-.17.25-.34.48-.52.7l.3,0c0,.11,0,.32-.08.31.27.35.11-.1.33.1-.14.55.34,1.41-.1,1.58.24.17.11-.51.32,0-.47.2.14.64-.06,1.13-.25-.13-.15-.59-.34-.1.44.27-.05.93,0,1.34.34,0,.17.87.3,1.55a13,13,0,0,0-.26,1.92h-.06c.35.11.3.77.37,1.24-.2,0-.28-.1-.38-.35v.44a.85.85,0,0,1,.21.53l-.26-.1a6.68,6.68,0,0,1,.15,2c.23,0,.65-.61.81.2-.12,0-.34.06-.4-.15a.62.62,0,0,1,.06.38l-.22-.32c-.09.35.18.18.16.46-.18,0-.13.21-.28.17s.08-.24,0-.35a1.55,1.55,0,0,1-.28.82c.1,0,.24,0,.27.23,0,.59-.23.2-.32.55.12.14,0,.52.26.53,0,.18-.13.21-.2.27.11.31,0,1.44.3,1.1L50,25v.05h0c.25,1-.2,2.1-.12,3.1h-.09A9.83,9.83,0,0,0,50,30c0,.17-.19.41-.29.33a2,2,0,0,1,0,1.17c-.14-.47-.15.15-.1-.48-.11.59-.26.72,0,1.37-.22-.23-.32.43-.27.71l.19-.4a4.91,4.91,0,0,1-.05.87l-.3-.17c-.44,1.18.49,2.22-.21,3.09.19.34.21-.64.43-.33-.08.55-.58,1.08-.6,1.25-.25.74.38.76.17,1.53.12-.08.42-.15.45.46s-.54.62-.58.26c0-.13.05-.19.08-.18,0-.18,0-.42-.18-.22l.1.08c-.14.26-.23,1-.39.82,0,.42.15.2.25-.1-.25.68-.16,1.1-.39,1.8.08-.11.23-.19.21-.08-.32,1,.12.5,0,1.23-.24.37-.35-.22-.37.52-.2.41-.3,0-.35-.16.07.69-.4,1.18-.53,1.53V44.5a2.12,2.12,0,0,1-.08.54l.26-.13c-.09.18-.13.35-.22.32.09.24.4-.06.48.39-.18.24-.1.84-.41.85.32-.8-.3,0-.16-.7a1.11,1.11,0,0,1-.14.49s-.05,0-.05-.1c-.48.71.21.45,0,1.26-.13-.15-.36.09-.37.23.11-.32.31-.07.33.27-.3.47-.09.59-.21.85l.17-.28c.12.16,0,.41-.09.78-.13,0,.05-.35-.06-.25.12.5-.61.81-.66,1.36-.21.17-.29-.11-.45,0-.09.57-.46.35-.62.74.22.09.24,0,.09.4a2.11,2.11,0,0,0,.47-.69,2.91,2.91,0,0,1-.13.64c.22-.19.28-.53.41-.66,0,.35-.05.3.18.28-.25.08-.33.26-.44.45A.65.65,0,0,1,45,52l-.25-.49c-.58,0-1,.64-2.15.69l.36,0c-.11.24-.65.15-1,.29,0-.18-.22-.21-.39-.3,0,.14-.77.11-.82.49l-.51-.17c-.87,0-.9.65-1.74.7.22-.23-.17-.3.36-.52-.27,0-.52,0-.51.16-.18-.09-.74.34-1,.2-.1.09-.12.28-.43.3,0,0,0-.09,0-.09s-.48.18-.18.35c-.92-.47-2.4.28-3.19-.16-.6.11-1.33.21-1.88.25,0-.06,0-.09.1-.08-.77-.13-.44.56-1.32.4-.46-.28.46-.17.17-.28-.14-.59-1,.12-1.63-.21l.14,0c-.45-.2-1.09.24-1.82.21,0,0,0-.05,0-.09a6.3,6.3,0,0,1-2.15.48c.22-.23.32-.12.19-.36-.32,0,.09.38-.55.43-.2-.13-.65-.25-.7-.51h.59c-.29-.34-.76,0-1.08-.07l.05-.15c-.91,0-.94.37-1.91.3l.09.11c-.55.33-.43-.23-1,0l-.14-.38a11.82,11.82,0,0,1-1.89.28,7.09,7.09,0,0,1,1.6-.45,3.37,3.37,0,0,0-1.38.1c.14,0,.33-.1.46,0a2.83,2.83,0,0,1-1.72.27c.19-.69-1.79-.36-2.22-1a5.37,5.37,0,0,1-3.22-.89c0,.66-.24-.15-.55.31-.23-.16-.28-.26-.27-.3a2.32,2.32,0,0,1,0-.83c.11-.21.19.19.3.11-.1-.48.17-.26.25-.61-.19.11-.33-.13-.28-.52l-.2.53c-.4-.86.4-.84,0-1.83l.2.31c-.14-.52-.11-1.94-.58-2.44.06-.1.21-.23.26,0,0-1.26-.6-2.79-.35-3.78l.14.09c0-.23-.27-.4-.14-.7.06,0,.14.09.15,0a1.83,1.83,0,0,1-.18-.93l.16.26c.15-1.23-.42-1.88-.52-2.92.41,0,.52-1,.59-1.45h.06a24.13,24.13,0,0,0-.47-3.77c.46-.81.24-2.79.55-4.1-.09.19-.32-.05-.35-.29s-.25-.87.12-.8v.11c.37-.22.3-.86.34-1.36l-.49-.11c.77-1.27-.07-3.43.62-4.11-.1-.32-.07-.71-.17-1l.26,0A17.43,17.43,0,0,0,12,19.27l.17.23c.07-.6-.69-.82-.66-1.39l.41-.13a10,10,0,0,0,.29-3.17.22.22,0,0,1,.17.23c.06-.49.46-1.89-.09-1.77.35,0,.17-1.08.08-1.67l.25.12a1.93,1.93,0,0,1-.37-1.23c.06-.15.23-.1.13.09.21-.49-.18-.44.06-1l.12.26c.12-.51,0-.49-.1-.81s.33-1,.58-.94a.57.57,0,0,1,0-.69c.1,0,.11.12.11.18.48-.65.34-1.25.92-1.46a.21.21,0,0,0,.17,0,7.62,7.62,0,0,0-.69.78c.21.11.48-.24.57.24,0-.37.16-1.13.63-1.25l.09,0,0,0A.45.45,0,0,0,15,5.83a2,2,0,0,0,.35-.06c.1.17.51,0,.77,0-.05-.26.3-.25,0-.43,0,0-.05,0-.22.07a.3.3,0,0,0-.1,0v0a3.44,3.44,0,0,0-.58.16.52.52,0,0,1,.63-.25,3.1,3.1,0,0,1,.33-.46c.41.32,1.15.52,1.26.74.9-.14,2.13-.08,2.69-.56.26-.06.3.14.39.22-.14,0-.32,0-.4.11.51-.13,1.52,0,1.64-.38.65.15-.36.31.53.26l-.12.1C23.92,5.9,25,4.49,27,5.2c-.13,0-.2-.06-.22-.12,2.2.32,4.55-.26,6.73.25.61.1.68-.12,1.06-.28l.13.28L35.3,5c.92-.23,1.59.7,2.75.26l-.15-.19c.42,0,1.32-.1,1.25.11,0,0,.14-.19.3-.09v.14l1-.24c.79.11-.13.58,1,.62.43-.06,1.23-.42,1.06-.52s-.44-.09-.45-.24l.39-.07c.08-.43.38-.87-.58-1.18l-.68.26-.21-.21h.57c-.33-.2-.53,0-.76.09a.44.44,0,0,0-.28-.23l-.66.4c-.08-.16.3-.33-.15-.42-.31.19.3.38-.22.5-.32-.2-.22-.36-.6-.19-.05-.12,0-.19.18-.23-.34.13-.89.05-1.07.27-.33-.24-1.14.06-1.1-.35a2,2,0,0,1-.91.33c.57-.48-1.15,0-1-.56-.42.44-1.51.19-2.25.43,0,0,.12-.11.19-.08a2.85,2.85,0,0,1-.81-.26c0,.36-.7.44-1.06.66-.5-.35.32-.42.16-.76,0,.29-.89.29-.72.53-.39-.22-.33-.1-.53-.41-.07.46-.37.08-.69.36-.57-.23-.15-.43-.77-.3C28.28,3.29,28.83,3.14,28.83,3.14Zm-15,1.48h0a1.72,1.72,0,0,1,.31-.19A2.32,2.32,0,0,0,13.79,4.62Zm-1.07,1c.11-.13.27-.29.43-.46.1,0,.12.13,0,.23C13.18,5.28,12.91,5.47,12.72,5.6Zm3,.17c-.14.06-.2,0-.23,0l.25-.09v0A.32.32,0,0,1,15.68,5.77Z"/><path class="cls-1" d="M15.9,5.38l.07,0-.11,0,0,.09Z"/><path class="cls-1" d="M50,25.12v0l0-.06Z"/><polygon class="cls-1" points="9.35 22.72 9.41 22.72 9.37 22.61 9.35 22.72"/><path class="cls-1" d="M50.91,18.28a.17.17,0,0,0,.06-.09A.23.23,0,0,0,50.91,18.28Z"/><path class="cls-1" d="M50.9,15.32,51,14.9A2.45,2.45,0,0,0,50.9,15.32Z"/><path class="cls-1" d="M51,13a.21.21,0,0,0-.12,0h0Z"/><path class="cls-1" d="M48.34,49.22s0,.06,0,.08C48.29,49.52,48.33,49.38,48.34,49.22Z"/><path class="cls-1" d="M50.06,38.45a2.11,2.11,0,0,1,.09.36C50.19,38.62,50.21,38.47,50.06,38.45Z"/><polygon class="cls-1" points="37.74 55.07 37.74 55.07 37.67 55.08 37.74 55.07"/><path class="cls-1" d="M50.08,39.3a1,1,0,0,0,.07-.49A1.35,1.35,0,0,0,50.08,39.3Z"/><path class="cls-1" d="M46.1,4.25,46,4.2a.05.05,0,0,1,0,0Z"/><path class="cls-1" d="M46,4.24h-.15A.25.25,0,0,0,46,4.24Z"/><path class="cls-1" d="M45.5,4.24h.31A.37.37,0,0,0,45.5,4.24Z"/><path class="cls-1" d="M48.89,6.17l.1,0Z"/><path class="cls-1" d="M49.53,7a2.46,2.46,0,0,0-.46-.87l-.08,0C49.21,6.18,49.29,6.88,49.53,7Z"/><path class="cls-1" d="M49.63,11c0-.25,0-.5,0-.75-.07.15-.18.34-.26,0C49.19,11.25,49.53,10.07,49.63,11Z"/><path class="cls-1" d="M49.67,13.36c-.06-.41-.14,0-.2,0C49.57,13.6,49.6,13.67,49.67,13.36Z"/><path class="cls-1" d="M49.64,30.46l-.24-.06C49.42,30.72,49.49,30.41,49.64,30.46Z"/><polygon class="cls-1" points="50.69 33.79 50.86 33.49 50.65 33.33 50.69 33.79"/><polygon class="cls-1" points="48.88 35.6 48.85 35.47 48.9 35.99 48.88 35.6"/><path class="cls-1" d="M34.19,53.13l.12.28C34.52,53.34,34.53,53,34.19,53.13Z"/><path class="cls-1" d="M21.88,53.58a.62.62,0,0,0-.69-.14A4,4,0,0,0,21.88,53.58Z"/><polygon class="cls-1" points="11.49 26.15 11.58 26.4 11.52 25.93 11.49 26.15"/><path class="cls-1" d="M38.5,19.13c0-.08,0-.26,0-.22l0,.31Z"/><path class="cls-1" d="M38.33,18.57a2.65,2.65,0,0,0,0,.69c0-.3,0-.17.07-.52,0,0,0,.09,0,.21,0-.08,0,.06,0-.13s-.07-.24-.12-.05A.64.64,0,0,1,38.33,18.57Z"/><path class="cls-1" d="M35.83,18.09v0A.1.1,0,0,0,35.83,18.09Z"/><path class="cls-1" d="M34.28,17.92a.11.11,0,0,0,0-.06A.11.11,0,0,0,34.28,17.92Z"/><path class="cls-1" d="M34,17.58a0,0,0,0,0,0,0S34,17.56,34,17.58Z"/><path class="cls-1" d="M35.83,18.09l0-.1C35.78,18.09,35.81,18.07,35.83,18.09Z"/><path class="cls-1" d="M38,19.31a.19.19,0,0,0,0-.08l0,0Z"/><path class="cls-1" d="M36.51,17.84h0a.45.45,0,0,0,0-.12Z"/><path class="cls-1" d="M37,17.79s0,.25,0,.37A.65.65,0,0,1,37,18,1.42,1.42,0,0,0,37,17.79Z"/><path class="cls-1" d="M37.86,18.25l0,0S37.87,18.24,37.86,18.25Z"/><path class="cls-1" d="M36.14,17.79a.41.41,0,0,1,0-.1A.34.34,0,0,0,36.14,17.79Z"/><path class="cls-1" d="M21.49,19.74v0Z"/><path class="cls-1" d="M20.88,18.45h0v0Z"/><path class="cls-1" d="M33.53,17.25h0S33.54,17.23,33.53,17.25Z"/><path class="cls-1" d="M29.09,17.44c.05.24-.08.3,0,.56C29.08,17.9,29.16,17.59,29.09,17.44Z"/><path class="cls-1" d="M38,19.27s0,0,0,0S38,19.28,38,19.27Z"/><path class="cls-1" d="M29.09,18h0v0Z"/><path class="cls-1" d="M32.42,17.41a.37.37,0,0,0,0,.11A.49.49,0,0,0,32.42,17.41Z"/><path class="cls-1" d="M33.25,17.78l0,0Z"/><path class="cls-1" d="M32,17.77s0-.05,0,0v0S32,17.73,32,17.77Z"/><path class="cls-1" d="M31.54,17.78a.09.09,0,0,0,0,0v0Z"/><path class="cls-1" d="M22.85,19.61c0-.07,0-.15,0-.23C22.84,19.57,22.77,19.63,22.85,19.61Z"/><path class="cls-1" d="M38,19.16a.63.63,0,0,1,0,.11h0Z"/><path class="cls-1" d="M32,19.83l-.07,0A.1.1,0,0,0,32,19.83Z"/><path class="cls-1" d="M26.07,19.58v0S26.07,19.61,26.07,19.58Z"/><path class="cls-1" d="M31.69,19.83c0-.1,0-.15,0-.18a.11.11,0,0,0,0,.06Z"/><path class="cls-1" d="M22.83,19.38Z"/><path class="cls-1" d="M22.36,20c.07,0,0-.34.05-.54s0,.26.06.43c.05-.09.09-.4.13-.39a.75.75,0,0,1,0,.15c.06-.27.16,0,.22-.36a.28.28,0,0,1,0,.09c0-.17,0-.35,0-.47s.06-.22.07,0c0,0,0,.08,0,.15l0-.1c0,.32,0,.11,0,.35.06-.1.13-.37.18-.28,0,.32-.11.11-.05.39l-.07-.12c.06.49,0,0,0,.49.09.09.11-.16.2-.07,0-.17,0-.25,0-.43s.11.79.21.37c0-.21,0-.6.11-.39l0,.35c.1,0,.05-.51.15-.27s-.07.12-.06.16c.07.28.05-.2.1-.2v.31c.1-.05.21-.27.32-.33a.71.71,0,0,0,0,.29c.14-.16.3,0,.43.22l.05-.27s0,.12,0,.18,0-.18,0-.28,0,.15,0,.23c.1-.23.27-.49.36-.2v.08c.07.11.08-.56.15-.3v0c.16.12.35-.13.47.28,0-.39.16.18.18-.37.09.27.06.37.2.55s.05-.34.09-.4v.29l.06-.3,0,.34,0-.07a.48.48,0,0,1,0-.21c.07-.13.16.2.16.34l.15-.24a.61.61,0,0,1,0,.23c.09-.29,0,.3.09,0a1.55,1.55,0,0,1,0-.22c0,.17.12.17.18.1v.19c.11.05.24-.09.37-.09a.79.79,0,0,1,0-.46v.3c0-.19,0-.12,0-.34,0,0,0,.34,0,.44l.06-.11c0,.09,0,.14,0,.26,0-.19.1.3.14,0v.09c.12,0,.18-.1.29-.11a1.6,1.6,0,0,1,.07-.42c.07.09.16.29.25.27s0-.22.05-.38c0,.24.09.22.05.39.1,0,.13-.05.27-.24a.9.9,0,0,1,0-.22s.06.1.05.21v0c.15-.36.36.69.48.19v0l.13-.26c.06,0,0,.18,0,.33.14-.4.22.05.33-.21.09.7.32-.05.43.4v-.17c0-.16,0,.1.06.13,0-.12,0-.14,0-.23.26-.2.54.24.81.39.1,0,.05-.86.18-.46l0,.3c.2-.36.41,0,.6-.3,0,.07,0,.17,0,.16,0,.23.15,0,.15-.17,0,0,0,.17,0,.26s.11-.28.13-.06a.24.24,0,0,1,0,.09c0-.11.12,0,.1-.23.07.12.14-.12.2,0,0-.29.12.13.13-.27,0,.42.13.34.17.14,0,.13,0,.13,0,.31.05,0,.1-.09.09-.3.09.5.19-.41.25.24a1.74,1.74,0,0,1,.43-.48c0,.42-.15,0-.14.48.13-.17.21-.53.34-.43s0,.18,0,.25c.13-.17.25,0,.37-.19a.24.24,0,0,1,0,.12s.06.06.06-.13l0,.05a3.77,3.77,0,0,1,.1-.72c0,.54.12.14,0,.82a.47.47,0,0,0,0-.25s0,.11,0,.26c.09-.11.06-.31.13-.3a2.15,2.15,0,0,1,0,.23c0-.18.07-.36.14-.28s0,.13,0,.13.19-.48.31-.31c0,.4,0,.13,0,.48l.06-.1,0-.17c.06,0,.11-.25.16-.13l0,.14.1-.07L34.26,19c.06-.18,0-.44.07-.34s.06,0,.09.21h0c0-.11.06-.23.1-.14s0,.38,0,.46c0-.29.13-.08.16-.39,0,.07,0,.25,0,.29l0-.24a.63.63,0,0,1,0,.26c.08,0,0-.44.07-.25,0,0,0,.05,0,.09s.18-.15.27,0c0,.34-.07.08,0,.37.13-.06.26-.41.38-.33l0,0c0-.49.09.24.15,0,0,0,0,.27,0,.22s.17-.12.3-.27l0,.12c.05.11.13.07.18.12a.57.57,0,0,0,0-.28c.16.71.31-.39.45.21,0,0,0,.11,0,.11l.12-.12a1.68,1.68,0,0,0,0-.29c0-.13.05-.23.08-.23a.88.88,0,0,0,0,.46,1.33,1.33,0,0,0,0-.2c.07.38,0-.43.1-.17v.11c0-.06.06-.21.09-.18,0,.25,0,.12,0,.32,0,0,.1-.46.14-.22,0,.07-.05.07-.07.14,0,.29,0,.22.09.26h0l.09.13,0-.08c.06-.65.12-.12.21-.54-.08.4,0,.23,0,.51a.71.71,0,0,1,0,.24c0-.22.07.18.12-.15,0,.09,0,0,0,.24,0-.07,0-.16,0-.27.08-.31.18.37.3-.05.1-.18.11-.48.2-.63a.86.86,0,0,1,0,.33c0,.13.09.1.13,0a.74.74,0,0,0,0,.25s0-.33.07-.2,0,.26,0,.37c0-.09.09-.26.14-.34a1,1,0,0,1,0,.34.55.55,0,0,0,.15-.39l0-.09s0,.22,0,.26c-.05.2-.07-.08-.07-.17l0-.06c0-.53-.13.08-.19,0l0-.38-.06.32a1,1,0,0,1,0-.38c0-.19,0,.14-.08-.07v-.07l0,.12c0-.08,0-.28,0-.22-.08-.22-.13.29-.16,0v0c-.11.13,0,.29-.09.62l-.06-.7v.28s0,0,0-.14c-.05.19,0,.12,0,.3-.06-.25-.16.12-.17-.33,0,.22.05.17,0,.32,0-.48-.07.08-.12-.14s.07-.12,0-.34c0,.42-.1-.09-.14,0,0,.33-.1.14-.17.25,0-.11-.14-.18-.21-.31v-.05c0,.34-.09.27-.14.34a1.07,1.07,0,0,1,0-.37h0a.42.42,0,0,1-.05.21v-.26c-.07,0-.13.3-.21.13a2.71,2.71,0,0,1,0,.82,2.19,2.19,0,0,1,0-.4s0,.11,0,.05l0-.21c0-.1,0,.18,0,.16,0-.19,0-.13,0-.28s0,.08,0,0a.53.53,0,0,1-.08-.27c0,.1,0,.24,0,.26s0-.21-.06-.31c0,.13-.06,0-.06.27,0,0,0-.13,0-.2,0,.12-.15,0-.11.32v0h0c-.11.27-.23-.15-.33,0V18c-.07.11-.15.07-.19.26a.51.51,0,0,1,0-.27c0,.07,0,.17-.13,0s0-.14.06-.12-.08-.22-.15,0c0-.23,0-.29-.08-.22l0,.17s-.06,0-.09,0l0-.31c-.13-.37-.24.64-.34,0,0,.22.07.15,0,.41-.06,0-.12-.49-.14-.49-.08-.17-.08.45-.16.34a1.06,1.06,0,0,1,0,.5,1,1,0,0,1,0-.55s0,0,0,.07a.3.3,0,0,0,0-.21v.11c0-.11-.11-.1-.09-.28a.25.25,0,0,0,0,.24c-.08-.16-.12,0-.2-.12,0,.07,0,.19,0,.19s0,.21-.13.26c0-.17,0-.4-.06-.26a.7.7,0,0,1,0-.38c-.07.21-.14-.14-.18-.18l0-.09c0,.06,0,.05-.06.05l0,.22a.18.18,0,0,1,0-.13,3.76,3.76,0,0,1,0,.56c0-.11-.09.12-.1-.17.09.1,0-.29.07-.34s0,0-.06,0,0-.06,0-.08c-.09-.26,0,.33-.13.32,0-.16,0-.31,0-.27s0,.27,0,.4c-.06-.13-.06.09-.09.08l0,.06c0,.16,0,.14-.08.19,0-.13,0-.09,0-.14,0,.29-.1-.3-.17-.11,0-.11,0-.31,0-.38-.07.21-.07-.23-.15,0a.62.62,0,0,1,0,.38l.13-.15-.08.32s.08-.14.1-.1a.61.61,0,0,0,0,.3c0-.33-.1.2-.16,0v-.54c-.09-.25-.16.28-.27.14l0,.1c0,.21-.08,0-.11.11a1.56,1.56,0,0,0,0-.36c0,.14-.09,0-.1.35l0-.24c-.09-.1-.11.52-.2.46a2,2,0,0,1,.05-.47s-.06,0-.06.09c0-.11-.08.25-.11.08,0,.08,0,.27-.05.25V18a.92.92,0,0,0,0,.33c-.1-.57-.26,0-.34-.45a.55.55,0,0,1-.21.13c0-.05,0-.09,0-.07-.08-.17-.05.52-.14.33s.05-.16,0-.27c0-.6-.11.08-.18-.27l0,0c-.05-.21-.12.23-.2.18v-.09a.82.82,0,0,1-.23.5,1.53,1.53,0,0,0,0-.37s0,.39-.06.45a2.73,2.73,0,0,1-.08-.49l.07,0c0-.33-.09,0-.12,0v-.15c-.1.05-.1.41-.21.39v.11c-.06.36-.05-.21-.1.06l0-.36a2.3,2.3,0,0,1-.2.42,3.87,3.87,0,0,1,.16-.57s-.12,0-.14.2c0,0,0-.12.05-.06-.05.28-.11.42-.19.42,0-.71-.19-.18-.25-.73-.13.26-.26-.11-.41-.07.05.55-.05,0,0,.58,0,0-.05,0-.05,0L29,17.66c0-.16,0-.12,0-.25s0-.24-.09-.39c0,.2,0,.29-.07.21l.06.27c-.11.3-.09-.48-.2-.18l0-.18c0,.11-.21,0-.26.45a.57.57,0,0,1,0-.26c-.14-.07-.31.48-.41.2V17.4s0,.26-.08.12a.71.71,0,0,0,0-.15c0,.05-.07.24-.1.16l0-.15c-.14-.18-.21.38-.32.47a.84.84,0,0,0-.15-.6v-.06c-.16-.05-.27.33-.41.49-.09-.44-.3-.18-.44-.43a1,1,0,0,1,0,.36c0-.08-.1.28-.09-.09h0c0-.37-.09-.27-.15-.28v.49c-.14-.71-.37.26-.44-.38,0,.12-.08.12-.11.24v-.26c-.09-.07-.14-.1-.26,0l0-.18c-.07,0-.09.75-.15.77l0-.39c-.11,0-.23-.34-.34,0a.74.74,0,0,1,0-.18c-.05,0-.2-.27-.19.27,0-.35-.11,0-.18.12v-.26c-.05.33-.05.42-.12.51s0-.2,0-.14c-.06-.13-.05.25-.12.11l0-.17c-.06,0-.06.07-.09.26s-.11-.06-.12-.29c0,.14,0,.33-.08.26a.54.54,0,0,1,0-.17c-.1-.17-.15.3-.22.05a.58.58,0,0,0,0-.16.28.28,0,0,1,.14,0,2.25,2.25,0,0,1,0-.6c-.05.18-.14.56-.2.45a.28.28,0,0,0,0-.08v0s0,0,0,0,0-.07-.05-.07c0-.2-.07-.11-.1-.11a1.54,1.54,0,0,0,0,.43s0,0,0,0l0,0v0h.08c0,.13-.05.24-.08.09l-.05.42c0-.36-.12-.56-.14-.78-.09.15-.22.1-.29.59,0,.06,0-.14,0-.22s0,0,.05-.11c-.06.12-.17.05-.18.39-.07-.16,0-.32-.06-.26l0-.11c-.19-.54-.31.88-.52.18a.35.35,0,0,1,0,.12c-.24-.31-.49.29-.73-.2-.06-.1-.07.11-.11.28v-.28l-.07.32c-.1.24-.17-.68-.3-.24l0,.19c-.05,0-.14.11-.14-.1,0,0,0,.19,0,.09V18l-.11.25c-.09-.11,0-.58-.11-.61a1.47,1.47,0,0,0-.12.52s.05.09.05.24l0,.08A3.92,3.92,0,0,0,21,19.61l.08-.26,0,.21H21c0,.2.06,0,.08-.1a1.88,1.88,0,0,0,0,.23l.07-.41c0,.17,0,.34,0,.43,0-.19,0-.38,0-.51,0,.2,0,.36.07.19a1.13,1.13,0,0,1,0,.23c0-.13.09-.05.11-.28,0,.24.12-.06.12.34,0-.09.06-.32.1-.33-.06.48.12,0,.1.55,0-.44.17-.2.25-.44,0,0,0,.11,0,.08s0,.17.08.25a2.7,2.7,0,0,1,.12-.66,6.37,6.37,0,0,1,0,.76c0-.3.1-.3.08-.54a1.79,1.79,0,0,1,.05.4c0-.45,0-.07.08-.35.06.22,0,.42.08.29A.65.65,0,0,1,22.36,20ZM24,19.21h0Zm.13,0H24c0-.09,0-.18,0-.18A.5.5,0,0,0,24.08,19.21Zm-.28-1.8s0,0,0,.06l0,0v0C23.79,17.49,23.8,17.44,23.8,17.41Z"/><path class="cls-1" d="M23.76,17.75v0s0,0,0,.05v-.08Z"/><path class="cls-1" d="M35.85,18.13h0a0,0,0,0,1,0,0Z"/><polygon class="cls-1" points="25.92 19.7 25.92 19.64 25.91 19.7 25.92 19.7"/><path class="cls-1" d="M36.58,19s0,.05,0,.07A.2.2,0,0,0,36.58,19Z"/><path class="cls-1" d="M36.9,19.08l0,.1A.64.64,0,0,0,36.9,19.08Z"/><path class="cls-1" d="M37.14,19.21a.45.45,0,0,0,0-.11h0Z"/><path class="cls-1" d="M33.26,19.52h0S33.25,19.56,33.26,19.52Z"/><path class="cls-1" d="M34.42,18.91a.83.83,0,0,1,0,.12S34.42,19.06,34.42,18.91Z"/><polygon class="cls-1" points="31.98 19.83 31.98 19.83 31.97 19.83 31.98 19.83"/><path class="cls-1" d="M34.33,19s0,0,.05,0S34.34,19,34.33,19Z"/><path class="cls-1" d="M38.2,19.33h0v0Z"/><path class="cls-1" d="M38.21,19.3v0S38.21,19.27,38.21,19.3Z"/><path class="cls-1" d="M38.25,19.2l0,.07S38.25,19.28,38.25,19.2Z"/><path class="cls-1" d="M37.88,19.21v.09S37.88,19.25,37.88,19.21Z"/><path class="cls-1" d="M37.78,19.24s.06.2.09.14V19.3C37.86,19.44,37.8,19.08,37.78,19.24Z"/><path class="cls-1" d="M37.37,18.07l.08.08c0-.1,0-.24,0-.26C37.35,17.59,37.48,18.11,37.37,18.07Z"/><path class="cls-1" d="M37.11,17.93c0-.05,0-.15,0-.21A.26.26,0,0,0,37.11,17.93Z"/><path class="cls-1" d="M35.27,17.92v-.23S35.28,17.78,35.27,17.92Z"/><polygon class="cls-1" points="34.92 19.15 34.95 19.3 34.97 19.08 34.92 19.15"/><polygon class="cls-1" points="34.71 17.46 34.73 17.43 34.67 17.51 34.71 17.46"/><path class="cls-1" d="M31.62,17.55v.29C31.65,17.79,31.66,17.46,31.62,17.55Z"/><path class="cls-1" d="M30.28,17.84c0-.14-.05-.24-.07-.09S30.27,17.88,30.28,17.84Z"/><polygon class="cls-1" points="26.28 17.37 26.3 17.27 26.25 17.35 26.28 17.37"/><path class="cls-1" d="M39.29,31c0-.08,0-.26,0-.22l0,.3Z"/><path class="cls-1" d="M39.15,30.47a3,3,0,0,0-.07.69c0-.3,0-.17.09-.52,0,0,0,.1,0,.21,0-.08,0,.07,0-.12s-.06-.25-.11-.06A1.34,1.34,0,0,1,39.15,30.47Z"/><path class="cls-1" d="M36.78,29.92v0S36.78,29.93,36.78,29.92Z"/><path class="cls-1" d="M35.3,29.73a.12.12,0,0,0,0-.07A.14.14,0,0,0,35.3,29.73Z"/><path class="cls-1" d="M35.05,29.39v0S35.05,29.36,35.05,29.39Z"/><path class="cls-1" d="M36.78,29.92l0-.1C36.74,29.92,36.76,29.9,36.78,29.92Z"/><path class="cls-1" d="M38.79,31.2l0-.08,0,0Z"/><path class="cls-1" d="M37.44,29.69h0v-.13Z"/><path class="cls-1" d="M37.94,29.66a3.43,3.43,0,0,0,0,.36.65.65,0,0,1,0-.18Z"/><path class="cls-1" d="M38.72,30.14l0,0Z"/><path class="cls-1" d="M37.08,29.62v0Z"/><path class="cls-1" d="M23.18,31.91v0Z"/><polygon class="cls-1" points="22.51 30.67 22.52 30.66 22.51 30.51 22.51 30.67"/><path class="cls-1" d="M34.59,29.05h0S34.59,29,34.59,29.05Z"/><path class="cls-1" d="M30.32,29.28c.05.23-.07.3,0,.55A2,2,0,0,0,30.32,29.28Z"/><path class="cls-1" d="M38.78,31.16a0,0,0,0,1,0,0S38.78,31.17,38.78,31.16Z"/><path class="cls-1" d="M30.32,29.83h0v0Z"/><path class="cls-1" d="M33.51,29.2v.12A.62.62,0,0,0,33.51,29.2Z"/><path class="cls-1" d="M34.31,29.57l0,0S34.3,29.57,34.31,29.57Z"/><path class="cls-1" d="M33.1,29.57s0-.06,0,0v0S33.09,29.53,33.1,29.57Z"/><path class="cls-1" d="M32.67,29.57v0Z"/><path class="cls-1" d="M24.46,31.7l0-.23C24.45,31.65,24.39,31.72,24.46,31.7Z"/><path class="cls-1" d="M38.8,31.05c0,.07,0,.1,0,.11h0Z"/><path class="cls-1" d="M33.09,31.62l-.07,0A.09.09,0,0,0,33.09,31.62Z"/><path class="cls-1" d="M27.5,31.5v0S27.5,31.53,27.5,31.5Z"/><path class="cls-1" d="M32.82,31.62a.53.53,0,0,0,0-.18v.07Z"/><path class="cls-1" d="M24.43,31.47Z"/><path class="cls-1" d="M24,32.11c.07,0,0-.33,0-.53s0,.25.09.42c0-.09.06-.41.1-.4s0,.08,0,.15c0-.28.15,0,.18-.37l0,.09a4.7,4.7,0,0,1,0-.47s0-.22.06,0c0,0,0,.09,0,.16l0-.1c.05.32,0,.11,0,.35,0-.11.1-.38.16-.29,0,.31-.1.11,0,.39l-.07-.12c.08.49-.05,0,0,.49.1.09.1-.16.19-.08,0-.17,0-.25,0-.43s.15.78.22.36c0-.21,0-.61.08-.4v.35c.09,0,0-.51.13-.28s-.07.13-.05.17c.08.27,0-.21.08-.21l0,.31c.09-.05.18-.28.28-.35a.93.93,0,0,0,0,.29c.12-.16.28,0,.42.2l0-.27a.37.37,0,0,1,0,.17c.06.1,0-.17,0-.28s.05.16,0,.24c.08-.23.23-.51.34-.22l0,.08c.08.11.06-.56.14-.31v.05c.16.11.32-.15.46.25,0-.39.16.17.14-.37a2.32,2.32,0,0,0,.22.54s0-.35.07-.4l0,.28,0-.3,0,.34,0-.08a.42.42,0,0,1,0-.21c.06-.13.16.2.16.34l.14-.24a.62.62,0,0,1,0,.22c.07-.29,0,.3.09,0,0-.06,0-.17,0-.22.05.17.13.17.18.09v.2c.11,0,.22-.1.34-.1a1,1,0,0,1,0-.47l0,.3c0-.19,0-.11,0-.34a1,1,0,0,1,0,.44l.05-.11c0,.09,0,.14,0,.26,0-.19.11.29.13,0v.09c.12,0,.17-.11.26-.13a2.11,2.11,0,0,1,.06-.41c.07.08.16.28.24.25s0-.22,0-.37c0,.24.1.21.06.38.1,0,.13-.05.25-.24s0-.14,0-.22.06.09.06.21v0c.13-.36.35.68.46.19v0l.12-.26s0,.18,0,.32c.12-.39.21.06.31-.21.1.7.3,0,.42.39v-.17c0-.16,0,.1.06.14a1.15,1.15,0,0,1,0-.24c.25-.21.52.23.77.38.09,0,0-.86.16-.47l0,.31c.19-.37.39,0,.57-.3,0,.07,0,.16,0,.16,0,.22.14,0,.14-.17,0,0,0,.16,0,.25s.09-.28.11-.06c0,0,0,.07,0,.09s.11,0,.09-.23c.07.12.13-.12.18,0,0-.28.12.14.13-.26,0,.41.12.33.17.14,0,.12,0,.13,0,.3,0,0,.09-.08.08-.3.1.5.19-.4.24.24a1.82,1.82,0,0,1,.41-.47c0,.41-.14,0-.14.48.13-.18.2-.53.33-.43s0,.18,0,.25c.12-.17.24,0,.35-.19a.36.36,0,0,1,0,.11s0,.07,0-.12l0,0a3,3,0,0,1,.09-.72c0,.54.11.14.05.82a.89.89,0,0,0,0-.25.42.42,0,0,1,0,.26c.08-.11.06-.31.13-.3s0,.12,0,.23c0-.18.08-.36.14-.28s0,.13,0,.13.18-.48.3-.31c0,.4,0,.14,0,.48l.06-.1,0-.17c.05,0,.1-.24.15-.13l-.05.14.11-.06-.06-.13c.06-.18,0-.44.07-.34s0,0,.08.21h0c0-.11.06-.23.09-.14s0,.38,0,.45c0-.28.12-.07.16-.38,0,.07,0,.25,0,.29l0-.24a.61.61,0,0,1,0,.26c.07,0,0-.44.06-.25a.16.16,0,0,1,0,.09c.09.1.18-.14.26,0,0,.35-.07.09,0,.38.12-.06.25-.41.37-.33l0,0c0-.49.09.25.15,0a.63.63,0,0,0,0,.21c.08.08.16-.11.28-.27v.13c0,.11.12.07.16.13a.78.78,0,0,0,0-.29c.13.72.3-.38.42.22a.23.23,0,0,0,0,.11l.12-.11a1.21,1.21,0,0,0,0-.3c0-.12,0-.22.08-.22a1,1,0,0,0,0,.46v-.2c.05.38,0-.43.1-.17v.11c0-.06.07-.21.1-.17,0,.25,0,.11,0,.32,0,0,.1-.47.14-.22,0,.07-.05.07-.07.13,0,.3,0,.22.07.27h0l.08.14,0-.08c.08-.65.12-.12.21-.54-.09.4,0,.23,0,.51a.54.54,0,0,1,0,.25c.05-.23.06.18.12-.15,0,.09,0,0,0,.24.05-.07,0-.16,0-.27.08-.31.16.38.29,0,.09-.17.12-.48.21-.63a.76.76,0,0,1,0,.33c0,.14.08.11.13,0a.7.7,0,0,0,0,.25s0-.33.08-.19,0,.26,0,.36a3.27,3.27,0,0,1,.14-.33,1.31,1.31,0,0,1-.06.34.54.54,0,0,0,.16-.39l0-.09s0,.22,0,.26c-.05.19-.06-.09-.06-.18l0-.06c0-.53-.13.09-.19,0l0-.38-.08.32a1.13,1.13,0,0,1,0-.38c0-.19,0,.14-.07-.07a.15.15,0,0,1,0-.07l0,.11c0-.08,0-.27,0-.21-.07-.23-.14.28-.16,0v0c-.11.13,0,.29-.11.61l0-.69,0,.28s0,0,0-.15c0,.19,0,.13,0,.31,0-.26-.15.11-.15-.34,0,.22,0,.17,0,.32,0-.49-.07.08-.11-.15s.06-.11,0-.34c0,.43-.09-.09-.14,0,0,.34-.09.14-.17.25,0-.12-.12-.19-.19-.32v-.05c0,.34-.09.27-.14.34a1.29,1.29,0,0,1,0-.37h0a.36.36,0,0,1-.06.2l0-.25c-.06,0-.13.29-.21.12a2.68,2.68,0,0,1,0,.82,1.47,1.47,0,0,1,0-.4s0,.11,0,.05l0-.21c0-.1,0,.18,0,.15,0-.18,0-.13,0-.27s0,.07,0,0a.54.54,0,0,1-.08-.28.78.78,0,0,1,0,.27c-.06,0,0-.22,0-.31,0,.12,0,0-.06.26,0,0,0-.13,0-.2,0,.12-.15,0-.12.32v0h0c-.11.27-.21-.16-.32,0v-.09c-.06.1-.14.06-.18.25a.57.57,0,0,1,0-.27c-.05.06-.06.17-.13,0s0-.14,0-.11-.07-.23-.14,0c0-.23,0-.29-.07-.23l0,.17s-.06,0-.09,0l0-.31c-.12-.38-.23.63-.32,0,0,.22.07.16,0,.41,0-.05-.11-.49-.13-.49-.07-.17-.08.45-.16.33a1.25,1.25,0,0,1,0,.51,1,1,0,0,1,0-.55s0,0,0,.06a.27.27,0,0,0,0-.2v.11c0-.12-.11-.11-.09-.29a.28.28,0,0,0,0,.24c-.07-.16-.11,0-.19-.11,0,.06,0,.19,0,.19s0,.2-.12.25c-.05-.17,0-.4-.06-.26a.7.7,0,0,1,0-.38c-.07.21-.13-.14-.17-.18l0-.09c0,.06,0,0-.06,0l0,.22a.18.18,0,0,1,0-.13c0,.15,0,.37,0,.56,0-.11-.09.12-.1-.17.09.1,0-.29.07-.34s0,0-.05,0a.1.1,0,0,1,0-.08c-.09-.26-.05.33-.13.32,0-.16,0-.31,0-.27s0,.27,0,.39c0-.12-.06.1-.09.08l0,.06c0,.17,0,.15-.08.2,0-.13,0-.09,0-.15,0,.29-.1-.3-.17-.1,0-.11,0-.31,0-.39-.07.22-.08-.22-.15,0a.71.71,0,0,1,0,.38l.12-.16-.08.32s.08-.14.1-.1a.65.65,0,0,0,0,.31c0-.33-.1.19-.16,0v-.55c-.08-.24-.15.28-.26.15l0,.09c0,.22-.07,0-.11.12a1.56,1.56,0,0,0,0-.36c0,.13-.08,0-.09.35l0-.24c-.09-.1-.1.52-.19.46a2,2,0,0,1,.05-.47s-.06,0-.06.09c0-.12-.08.24-.1.07,0,.08,0,.27,0,.26a.24.24,0,0,1,0-.09.88.88,0,0,0,0,.32c-.09-.57-.25.05-.33-.44a.46.46,0,0,1-.2.13c0-.05,0-.09,0-.07-.08-.17,0,.52-.13.34s0-.16,0-.28c0-.6-.1.09-.17-.26l0,0c0-.2-.11.23-.19.19v-.09a.79.79,0,0,1-.22.49,1.08,1.08,0,0,0,0-.36s0,.38,0,.45a2.72,2.72,0,0,1-.08-.5h.06c0-.33-.08,0-.11,0v-.15c-.09.05-.09.41-.19.39v.11c0,.36,0-.2-.1.06l0-.36a2,2,0,0,1-.19.42,3,3,0,0,1,.15-.57s-.12,0-.14.21c0,0,0-.13,0-.07,0,.29-.09.43-.17.43,0-.71-.19-.18-.25-.73-.12.27-.26-.1-.4-.06.06.55,0,0,0,.58,0,0,0,0-.05,0l-.11-.33c0-.17,0-.13,0-.25s0-.24-.1-.39c0,.2,0,.29-.06.21l.07.26c-.1.3-.11-.47-.21-.17L30,29c0,.11-.2,0-.24.46a.78.78,0,0,1,0-.26c-.13-.07-.28.49-.39.21v-.14s0,.26-.07.13a.71.71,0,0,0,0-.15c0,.05-.06.24-.1.17l0-.16c-.14-.18-.19.38-.29.48a.91.91,0,0,0-.17-.6v-.06c-.15,0-.24.35-.38.51-.1-.43-.29-.17-.44-.41a1.07,1.07,0,0,1,0,.36c0-.09-.08.28-.09-.09h0c0-.37-.1-.27-.15-.28v.49c-.17-.7-.35.28-.45-.36,0,.13-.06.13-.09.25v-.26c-.09-.06-.14-.09-.25,0v-.18c-.06,0,0,.75-.1.77l0-.39c-.11,0-.24-.32-.33,0,0-.06,0-.18,0-.19s-.21-.26-.17.28c0-.35-.11,0-.16.13v-.26c0,.33,0,.42-.09.52s0-.21,0-.14c-.07-.14,0,.24-.11.11l0-.17c-.06,0-.05.07-.07.27s-.11-.06-.13-.3c0,.15,0,.34-.06.27a.92.92,0,0,1,0-.17c-.1-.17-.12.31-.2.06a.88.88,0,0,0,0-.15c.08,0,.14,0,.13,0a2.7,2.7,0,0,1,0-.61c0,.19-.11.58-.17.47v-.11s0,0,0,0,0-.06-.06-.07c0-.19-.07-.1-.1-.11a1.55,1.55,0,0,0,0,.44s0,0,0,0l0,0v0l.08,0c0,.13,0,.24-.08.1,0,.17,0,.34,0,.42-.06-.36-.15-.55-.17-.77-.09.15-.22.11-.25.6,0,.06,0-.14-.05-.22s0,0,0-.11c0,.13-.15.06-.14.4-.08-.15,0-.32-.07-.25v-.11c-.22-.53-.24.89-.48.2,0,.05,0,.06,0,.12-.25-.29-.45.32-.71-.15-.07-.1-.06.12-.09.29l0-.28,0,.33c-.08.24-.22-.67-.3-.22l0,.19s-.13.12-.14-.1c0,0,0,.2,0,.1l0-.14-.08.25c-.09-.1,0-.58-.15-.6a1.31,1.31,0,0,0-.07.53s.05.09.06.24l0,.08a3.89,3.89,0,0,0,.15,1.16l0-.27,0,.21-.05,0c0,.19.05,0,.07-.1a1.26,1.26,0,0,0,0,.22l0-.41c0,.17,0,.33,0,.42a3,3,0,0,1,0-.5c.05.19.05.35.08.18a.53.53,0,0,1,0,.23c0-.13.09-.06.09-.29.05.24.11-.07.14.34a.93.93,0,0,1,.07-.35c0,.5.12,0,.14.55,0-.44.14-.21.2-.46,0,0,0,.11,0,.09s.07.16.1.24a2.83,2.83,0,0,1,.06-.67,4.9,4.9,0,0,1,0,.76c0-.29.07-.3,0-.54a1.4,1.4,0,0,1,.09.4c0-.45,0-.08,0-.36.08.22.05.42.1.28A.6.6,0,0,1,24,32.11Zm1.46-.87h0l0,0Zm.12,0h-.05a.47.47,0,0,1,0-.18A.7.7,0,0,0,25.6,31.22Zm-.37-1.78s0,0,0,.07,0,0,0,0v-.1Z"/><path class="cls-1" d="M25.21,29.78v0Z"/><path class="cls-1" d="M36.8,30h0v0Z"/><polygon class="cls-1" points="27.37 31.64 27.37 31.57 27.36 31.63 27.37 31.64"/><path class="cls-1" d="M37.47,30.87s0,.05,0,.07Z"/><path class="cls-1" d="M37.77,30.94l0,.09A.19.19,0,0,0,37.77,30.94Z"/><path class="cls-1" d="M38,31.07V31h0Z"/><path class="cls-1" d="M34.32,31.31v0Z"/><path class="cls-1" d="M35.42,30.72l0,.12S35.42,30.86,35.42,30.72Z"/><polygon class="cls-1" points="33.1 31.63 33.1 31.62 33.09 31.62 33.1 31.63"/><path class="cls-1" d="M35.33,30.83c0,.06,0,.05.05,0S35.35,30.79,35.33,30.83Z"/><path class="cls-1" d="M39,31.23h0v0Z"/><path class="cls-1" d="M39,31.2l0,0S39,31.17,39,31.2Z"/><path class="cls-1" d="M39.06,31.1l0,.07S39.05,31.18,39.06,31.1Z"/><path class="cls-1" d="M38.7,31.1v0Z"/><path class="cls-1" d="M38.6,31.12s0,.2.09.14v-.07C38.67,31.33,38.63,31,38.6,31.12Z"/><path class="cls-1" d="M38.25,29.94l.08.08c0-.1,0-.24,0-.26C38.25,29.46,38.36,30,38.25,29.94Z"/><path class="cls-1" d="M38,29.79c.05-.05,0-.15,0-.2A.23.23,0,0,0,38,29.79Z"/><path class="cls-1" d="M36.25,29.74v-.23S36.26,29.6,36.25,29.74Z"/><polygon class="cls-1" points="35.89 30.96 35.92 31.11 35.94 30.89 35.89 30.96"/><polygon class="cls-1" points="35.72 29.27 35.73 29.24 35.68 29.32 35.72 29.27"/><path class="cls-1" d="M32.75,29.34v.3C32.78,29.58,32.78,29.26,32.75,29.34Z"/><path class="cls-1" d="M31.47,29.65c0-.14-.06-.23-.08-.09S31.45,29.69,31.47,29.65Z"/><polygon class="cls-1" points="27.61 29.29 27.63 29.19 27.59 29.27 27.61 29.29"/><path class="cls-1" d="M41.77,41.67c0-.08,0-.27,0-.23l0,.31Z"/><path class="cls-1" d="M41.59,41.1a2.28,2.28,0,0,0-.05.69c0-.3,0-.17.07-.52,0,0,0,.09,0,.21,0-.08,0,.06.06-.13s-.09-.24-.13-.05A.45.45,0,0,1,41.59,41.1Z"/><path class="cls-1" d="M38.86,40.62v0S38.86,40.63,38.86,40.62Z"/><path class="cls-1" d="M37.16,40.45s0,0,0-.06A.14.14,0,0,0,37.16,40.45Z"/><path class="cls-1" d="M36.88,40.11v0S36.88,40.09,36.88,40.11Z"/><path class="cls-1" d="M38.86,40.62l0-.1C38.81,40.62,38.83,40.6,38.86,40.62Z"/><path class="cls-1" d="M41.21,41.84l0-.08,0,0Z"/><path class="cls-1" d="M39.6,40.37h0a.53.53,0,0,1,0-.12Z"/><path class="cls-1" d="M40.17,40.33s0,.24,0,.36a.65.65,0,0,1,0-.18A1.21,1.21,0,0,0,40.17,40.33Z"/><path class="cls-1" d="M41.08,40.78l0,0Z"/><path class="cls-1" d="M39.19,40.32v0Z"/><path class="cls-1" d="M23.18,42.27s0,0,0-.05Z"/><path class="cls-1" d="M22.52,41h0v0Z"/><path class="cls-1" d="M36.35,39.78h0S36.36,39.76,36.35,39.78Z"/><path class="cls-1" d="M31.49,40c.06.24-.08.3,0,.56C31.48,40.43,31.56,40.12,31.49,40Z"/><path class="cls-1" d="M41.2,41.8h0Z"/><path class="cls-1" d="M31.49,40.53h0v0Z"/><path class="cls-1" d="M35.13,39.94s0,.08,0,.11A.54.54,0,0,0,35.13,39.94Z"/><path class="cls-1" d="M36,40.31l0,0S36,40.31,36,40.31Z"/><path class="cls-1" d="M34.66,40.31s0-.06,0,0v0S34.64,40.26,34.66,40.31Z"/><path class="cls-1" d="M34.17,40.31a.09.09,0,0,0,0,0h0Z"/><path class="cls-1" d="M24.68,42.15a2,2,0,0,1,0-.24C24.66,42.1,24.59,42.16,24.68,42.15Z"/><path class="cls-1" d="M41.21,41.69a.63.63,0,0,1,0,.11h0Z"/><path class="cls-1" d="M34.64,42.36l-.08,0A.12.12,0,0,0,34.64,42.36Z"/><path class="cls-1" d="M28.19,42.11v0S28.19,42.14,28.19,42.11Z"/><path class="cls-1" d="M34.33,42.36a.69.69,0,0,0,0-.18.11.11,0,0,0,0,.06Z"/><path class="cls-1" d="M24.14,42.53c.07,0,0-.34.05-.53s0,.25.07.42c.06-.09.1-.4.14-.39a.75.75,0,0,1,0,.15c.06-.27.18,0,.24-.36a.28.28,0,0,1,0,.09c0-.17,0-.35,0-.47s.06-.22.08,0c0,0,0,.08,0,.15l0-.1c0,.32,0,.11,0,.35.07-.1.15-.37.2-.28,0,.32-.12.11-.05.39l-.08-.12c.06.49,0,0,0,.49.1.09.11-.16.22-.07,0-.17,0-.25,0-.43s.11.79.23.37c0-.21,0-.6.11-.39l0,.35c.1,0,.06-.51.16-.27s-.08.12-.06.16c.07.28.05-.2.1-.2v.31c.11,0,.23-.27.35-.33a1.4,1.4,0,0,0,0,.29c.16-.16.33,0,.48.22l0-.27s0,.12,0,.18,0-.18,0-.28,0,.15,0,.24c.1-.24.29-.5.39-.21l0,.08c.08.11.09-.56.17-.3v0c.18.11.38-.14.51.27,0-.39.18.18.2-.37.1.27.07.37.21.55s.06-.34.11-.39v.28l.07-.3,0,.34.05-.07a.48.48,0,0,1,0-.21c.07-.13.17.2.17.34l.17-.24a.89.89,0,0,1-.05.23c.08-.29,0,.3.09,0a1.55,1.55,0,0,1,0-.22c0,.17.13.17.2.1v.19c.12,0,.26-.09.4-.09a.79.79,0,0,1,0-.46v.3c0-.19,0-.11,0-.34.05,0,0,.34,0,.44l.06-.11a2.54,2.54,0,0,1,0,.26c0-.19.11.3.14,0v.09c.14,0,.2-.1.31-.11,0-.26.05-.21.08-.42.08.09.18.29.28.27s0-.22.05-.38c0,.24.1.22.05.39.12,0,.15-.05.3-.24a.9.9,0,0,1,0-.22s.06.1.06.21v0c.17-.36.39.69.53.19v0l.14-.26c.07,0,0,.18,0,.33.15-.4.24,0,.36-.21.1.7.35-.05.48.4v-.17c0-.16,0,.1.06.13s0-.14,0-.23c.28-.2.59.24.88.39.11,0,.06-.86.19-.46l0,.3c.21-.36.44,0,.65-.3,0,.08,0,.17,0,.17.05.22.17,0,.17-.17,0,0,0,.16,0,.25s.11-.28.13-.06a.13.13,0,0,1,0,.09c0-.11.14,0,.11-.23.08.12.15-.11.22,0,0-.29.13.13.14-.27,0,.42.14.34.19.14,0,.13.05.13,0,.31.05,0,.11-.09.1-.3.1.5.21-.4.27.24a1.8,1.8,0,0,1,.48-.48c0,.42-.17,0-.16.48.14-.17.22-.53.37-.43s0,.18,0,.25c.15-.17.28,0,.41-.19a.43.43,0,0,1,0,.12s0,.06,0-.13l0,0a3.11,3.11,0,0,1,.1-.72c0,.54.13.14.06.82a.47.47,0,0,0,0-.25s0,.11,0,.26c.09-.11.06-.31.14-.3a2.15,2.15,0,0,1,0,.23c0-.18.08-.36.15-.28s0,.13,0,.13.21-.48.34-.31c0,.4,0,.13,0,.48l.07-.1,0-.17c.06,0,.12-.25.17-.13l0,.14.11-.07-.06-.13c.06-.18,0-.43.07-.34s.06,0,.1.21h0c0-.11.06-.23.1-.14s0,.38,0,.46c0-.29.15-.08.19-.39a1,1,0,0,0,0,.29l0-.24a.61.61,0,0,1,0,.26c.09,0,0-.44.07-.25a.18.18,0,0,1,0,.09c.11.1.2-.15.3,0,0,.34-.09.08,0,.38.13-.07.28-.42.41-.34l0,0c0-.49.1.24.17,0a1.32,1.32,0,0,0,0,.22c.09.08.19-.12.32-.27v.12c.05.11.14.07.19.12a.57.57,0,0,0,0-.28c.18.71.34-.39.5.21,0,0,0,.11,0,.11l.13-.12a1.68,1.68,0,0,0,0-.29c0-.13,0-.23.08-.23a.83.83,0,0,0,0,.47v-.21c.07.38,0-.43.11-.17v.11c0-.06.07-.21.11-.17,0,.24,0,.11,0,.31,0,0,.11-.46.16-.22,0,.07-.06.07-.08.14,0,.29.06.22.1.26h0l.09.13,0-.08c.07-.65.14-.12.23-.54-.09.4,0,.23,0,.51a.74.74,0,0,1,.05.24c0-.22.07.18.13-.15,0,.09.05,0,0,.24,0-.07,0-.16,0-.27.08-.31.2.37.32,0,.11-.18.13-.48.23-.63a.79.79,0,0,1,0,.33c.06.13.1.11.15,0a1.09,1.09,0,0,0,0,.25c.05,0,0-.33.09-.2l0,.37a3.45,3.45,0,0,1,.14-.34,1,1,0,0,1-.05.34.54.54,0,0,0,.17-.39l0-.09s0,.22,0,.26c-.05.2-.07-.08-.08-.17l0-.06c0-.53-.14.08-.22,0l0-.38-.07.32a1,1,0,0,1,0-.38c-.05-.19-.05.14-.09-.07v-.07l0,.12c0-.08,0-.27,0-.22-.09-.22-.14.29-.17,0v0c-.12.13,0,.29-.1.62l-.07-.7v.28s0,0,0-.14c-.05.19,0,.12,0,.31-.06-.26-.17.12-.19-.33,0,.21.06.16,0,.31,0-.48-.08.08-.14-.14s.08-.12,0-.34c0,.42-.11-.09-.16,0,0,.34-.1.14-.18.25,0-.11-.15-.18-.23-.3V40.4c0,.34-.09.27-.14.34a1.07,1.07,0,0,1,0-.37h-.05c0,.11,0,.17-.07.21l0-.26c-.07,0-.14.3-.23.13,0,.24.07.66,0,.82a1.55,1.55,0,0,1,0-.4s0,.11,0,.05l0-.21c0-.1,0,.18,0,.16,0-.19,0-.13,0-.28s0,.08,0,0a.59.59,0,0,1-.1-.28.68.68,0,0,1,0,.27c-.07,0,0-.22-.07-.32,0,.13-.06,0-.06.27,0,0,0-.13,0-.2,0,.12-.17,0-.13.32v0h0c-.12.28-.25-.15-.36,0v-.1c-.07.11-.16.07-.21.26a.51.51,0,0,1,0-.27c-.05.07-.06.17-.14,0s0-.14.06-.12-.09-.22-.16,0c0-.24-.06-.3-.09-.23l.05.17s-.07,0-.1,0V40.1c-.14-.37-.25.64-.36,0,0,.22.07.16,0,.41-.06,0-.13-.49-.15-.49-.09-.17-.09.45-.18.34a1.06,1.06,0,0,1,0,.5c-.07,0-.08-.46,0-.55s0,0,0,.07a.24.24,0,0,0,0-.21v.11c0-.11-.12-.1-.1-.28a.25.25,0,0,0,0,.24c-.08-.16-.13,0-.22-.11a.45.45,0,0,1,0,.18c-.13-.13-.06.21-.15.26,0-.17,0-.4-.07-.26a.7.7,0,0,1,0-.38c-.08.21-.14-.14-.19-.18l0-.09c0,.06,0,0-.06,0l0,.22a.13.13,0,0,1,0-.13c0,.15,0,.37,0,.57,0-.12-.1.11-.11-.18.11.1,0-.29.08-.34s0,0-.06,0a.11.11,0,0,1,0-.08c-.1-.26-.05.33-.15.32,0-.16,0-.31,0-.27s0,.27,0,.4c-.06-.13-.07.09-.1.08l0,.06c0,.16,0,.14-.1.19,0-.13.05-.09,0-.14,0,.29-.11-.3-.19-.11,0-.11,0-.3,0-.38-.08.21-.08-.23-.17,0a.55.55,0,0,1,0,.38l.14-.15-.09.32s.09-.14.11-.1a.54.54,0,0,0,0,.31c-.06-.34-.11.19-.18,0v-.54c-.1-.25-.17.28-.3.14l0,.1c0,.21-.08,0-.12.11a1.19,1.19,0,0,0,0-.36c0,.14-.09,0-.1.35L35,40.16c-.1-.09-.12.52-.22.46s0-.33.06-.47-.07,0-.07.09c0-.11-.09.25-.12.08,0,.08,0,.27-.05.25a.26.26,0,0,1,0-.09c0,.09-.06.12,0,.33-.1-.57-.28,0-.37-.45a.54.54,0,0,1-.23.13c0-.05,0-.09,0-.07-.09-.17-.06.52-.16.33s0-.15,0-.27c0-.6-.12.09-.19-.27v0c0-.2-.13.23-.21.18v-.09a.86.86,0,0,1-.25.5,1.53,1.53,0,0,0,0-.37s0,.39-.07.45a2.73,2.73,0,0,1-.08-.49l.07,0c0-.33-.09,0-.13,0v-.15c-.11.05-.11.41-.23.39v.11c-.06.36,0-.21-.11.06l0-.36a2.41,2.41,0,0,1-.22.42,2.75,2.75,0,0,1,.18-.57s-.14,0-.16.21c0,0,0-.13.06-.07-.06.28-.12.43-.2.42,0-.71-.22-.18-.28-.73-.14.26-.29-.11-.45-.07.06.55-.05,0,0,.58,0,0-.06,0-.06,0l-.12-.34c0-.16,0-.12,0-.25s0-.24-.09-.39c0,.21,0,.29-.08.22l.07.26c-.12.3-.1-.48-.23-.18l0-.18c-.06.11-.23,0-.29.45a.75.75,0,0,1,0-.26c-.15-.07-.33.49-.45.21l0-.14s-.05.26-.09.12a.71.71,0,0,0,0-.15c0,.05-.07.24-.11.16l0-.15c-.14-.18-.22.38-.34.47a.8.8,0,0,0-.17-.6v-.06c-.17,0-.29.34-.45.5-.09-.45-.33-.19-.48-.44a1,1,0,0,1,0,.36c0-.08-.11.28-.1-.09h0c0-.37-.1-.27-.16-.28v.49c-.15-.71-.4.26-.49-.38,0,.12-.08.12-.12.24v-.26c-.11-.06-.16-.1-.29,0l0-.18c-.07,0-.09.75-.16.77l0-.39c-.12,0-.25-.34-.37,0,0,0,0-.17,0-.18s-.23-.27-.2.27c0-.35-.13,0-.2.12V40c-.06.33-.06.42-.14.51s0-.2,0-.14c-.06-.13,0,.25-.13.11l0-.16c-.06,0-.06.06-.09.26s-.13-.07-.14-.3c0,.14,0,.33-.08.26a.54.54,0,0,1,0-.17c-.11-.17-.16.3-.24,0a.46.46,0,0,0,0-.15c.09,0,.15,0,.15,0a2.23,2.23,0,0,1,0-.6c-.05.18-.15.57-.22.45V40s0,0,0,0a.14.14,0,0,0-.06-.07c0-.19-.08-.1-.11-.11a1.54,1.54,0,0,0,0,.43s0,0,0,0,0,0,0,0v0h.09c0,.13-.06.24-.1.09a2.83,2.83,0,0,1-.05.42c0-.36-.13-.55-.15-.78-.1.15-.25.1-.31.59,0,.06,0-.14-.05-.22s0,0,.05-.11c-.06.12-.18,0-.19.39-.08-.16,0-.32-.07-.26l0-.1c-.21-.55-.33.87-.56.17a.37.37,0,0,1,0,.12c-.25-.31-.53.29-.79-.2-.07-.1-.08.12-.12.28l0-.28-.07.32c-.11.24-.19-.68-.32-.23v.18c-.05,0-.15.11-.14-.1,0,0,0,.19,0,.1v-.15l-.12.25c-.09-.11,0-.58-.12-.61a1.29,1.29,0,0,0-.13.52.36.36,0,0,1,.06.24l0,.08a3.59,3.59,0,0,0,.07,1.17l.08-.26,0,.21h-.06c0,.2.06,0,.09-.1a.6.6,0,0,0,0,.23l.08-.41c0,.17,0,.34,0,.43,0-.19,0-.38,0-.5,0,.19,0,.35.07.18a.48.48,0,0,1,0,.23c0-.13.1,0,.13-.28,0,.24.13-.06.12.34,0-.09.07-.32.11-.33-.07.48.14,0,.12.55.05-.44.18-.2.26-.44,0,0,0,.11,0,.08s.06.17.1.26a2.3,2.3,0,0,1,.12-.67c.06.35,0,.42,0,.76,0-.3.11-.3.09-.54a2.44,2.44,0,0,1,.06.41c0-.46,0-.08.08-.36.07.22,0,.42.09.29A.62.62,0,0,1,24.14,42.53Zm1.73-.79h0Zm.15,0H26a.38.38,0,0,1,0-.18C26,41.61,26,41.66,26,41.74Zm-.31-1.8s0,0,0,.06l0,0v0S25.71,40,25.71,39.94Z"/><path class="cls-1" d="M25.67,40.28v0a.43.43,0,0,0,0,.05v-.08Z"/><path class="cls-1" d="M38.88,40.66h0a0,0,0,0,1,0,0Z"/><polygon class="cls-1" points="28.03 42.24 28.03 42.17 28.02 42.23 28.03 42.24"/><path class="cls-1" d="M39.68,41.56a.13.13,0,0,0,0,.06A.13.13,0,0,0,39.68,41.56Z"/><path class="cls-1" d="M40,41.61l0,.1Z"/><path class="cls-1" d="M40.29,41.74a.45.45,0,0,0,0-.11h0Z"/><path class="cls-1" d="M36.06,42.05h0S36,42.09,36.06,42.05Z"/><path class="cls-1" d="M37.32,41.44c0,.05,0,.09,0,.12S37.32,41.59,37.32,41.44Z"/><polygon class="cls-1" points="34.65 42.36 34.65 42.36 34.64 42.36 34.65 42.36"/><path class="cls-1" d="M37.22,41.56s0,0,.06,0S37.24,41.52,37.22,41.56Z"/><path class="cls-1" d="M41.45,41.86h0v0Z"/><path class="cls-1" d="M41.46,41.83l0,0S41.46,41.8,41.46,41.83Z"/><path class="cls-1" d="M41.51,41.73l0,.07S41.5,41.81,41.51,41.73Z"/><path class="cls-1" d="M41.1,41.74v.09A.78.78,0,0,0,41.1,41.74Z"/><path class="cls-1" d="M41,41.77s.06.2.1.14v-.08C41.07,42,41,41.61,41,41.77Z"/><path class="cls-1" d="M40.54,40.6l.09.08c0-.1,0-.24,0-.26C40.52,40.12,40.66,40.64,40.54,40.6Z"/><path class="cls-1" d="M40.26,40.46c.05-.05,0-.15,0-.21A.26.26,0,0,0,40.26,40.46Z"/><path class="cls-1" d="M38.25,40.46v-.24S38.25,40.31,38.25,40.46Z"/><polygon class="cls-1" points="37.86 41.68 37.9 41.83 37.92 41.61 37.86 41.68"/><polygon class="cls-1" points="37.64 39.99 37.65 39.96 37.59 40.05 37.64 39.99"/><path class="cls-1" d="M34.26,40.08v.29S34.3,40,34.26,40.08Z"/><path class="cls-1" d="M32.8,40.37c0-.14-.06-.24-.09-.09S32.78,40.41,32.8,40.37Z"/><polygon class="cls-1" points="28.42 39.9 28.45 39.8 28.39 39.88 28.42 39.9"/></svg>