<?xml version="1.0" encoding="utf-8"?>
<!-- Generator: Adobe Illustrator 18.0.0, SVG Export Plug-In . SVG Version: 6.00 Build 0)  -->
<!DOCTYPE svg PUBLIC "-//W3C//DTD SVG 1.1//EN" "http://www.w3.org/Graphics/SVG/1.1/DTD/svg11.dtd" [
	<!ENTITY ns_extend "http://ns.adobe.com/Extensibility/1.0/">
	<!ENTITY ns_ai "http://ns.adobe.com/AdobeIllustrator/10.0/">
	<!ENTITY ns_graphs "http://ns.adobe.com/Graphs/1.0/">
	<!ENTITY ns_vars "http://ns.adobe.com/Variables/1.0/">
	<!ENTITY ns_imrep "http://ns.adobe.com/ImageReplacement/1.0/">
	<!ENTITY ns_sfw "http://ns.adobe.com/SaveForWeb/1.0/">
	<!ENTITY ns_custom "http://ns.adobe.com/GenericCustomNamespace/1.0/">
	<!ENTITY ns_adobe_xpath "http://ns.adobe.com/XPath/1.0/">
]>
<svg version="1.1" id="Layer_1" xmlns:x="&ns_extend;" xmlns:i="&ns_ai;" xmlns:graph="&ns_graphs;"
	 xmlns="http://www.w3.org/2000/svg" xmlns:xlink="http://www.w3.org/1999/xlink" x="0px" y="0px" viewBox="0 0 25.9 25.9"
	 enable-background="new 0 0 25.9 25.9" xml:space="preserve">
<metadata>
	<sfw  xmlns="&ns_sfw;">
		<slices></slices>
		<sliceSourceBounds  width="16383" height="2594.4" y="-1857.5" x="-7591" bottomLeftOrigin="true"></sliceSourceBounds>
		<optimizationSettings>
			<targetSettings  fileFormat="JPEGFormat" targetSettingsID="0">
				
					<JPEGFormat  progressive="false" embedICCProfile="false" blurAmount="0" noMatteColor="false" matteColor="#FFFFFF" optimized="true" quality="100">
					</JPEGFormat>
			</targetSettings>
		</optimizationSettings>
	</sfw>
</metadata>
<rect x="-490.5" y="426" opacity="0.12" fill="#C2B59B" width="1200" height="239.6"/>
<g>
	<defs>
		<polygon id="SVGID_1_" points="-1025.5,531.6 -1288,531.6 -1289,244.3 -1026.4,244.3 		"/>
	</defs>
	<clipPath id="SVGID_2_">
		<use xlink:href="#SVGID_1_"  overflow="visible"/>
	</clipPath>
	<g clip-path="url(#SVGID_2_)">
		
			<image overflow="visible" width="960" height="1280" xlink:href="../pizzas dante/selectas/5620b8f1-9f2f-412a-a330-d06cf5c5ed59.JPG"  transform="matrix(0.2737 0 0 0.2737 -1288.2345 200.4045)">
		</image>
	</g>
</g>
<g>
	<defs>
		<rect id="SVGID_3_" x="-1243.1" y="500.8" width="242.6" height="158.8"/>
	</defs>
	<clipPath id="SVGID_4_">
		<use xlink:href="#SVGID_3_"  overflow="visible"/>
	</clipPath>
	<g transform="matrix(1 0 0 1 0 3.051758e-05)" clip-path="url(#SVGID_4_)">
		
			<image overflow="visible" width="6720" height="4480" xlink:href="../DANTE/fotos/DANTE-Sleccion_web2020/GALLERY/FOOD/2B0A5822(edited).jpg"  transform="matrix(4.716928e-02 0 0 4.716928e-02 -1296.2435 480.3804)">
		</image>
	</g>
</g>
<g>
	<defs>
		<polygon id="SVGID_5_" points="-437.6,-50.7 -807.6,-50.7 -809,-455.7 -439,-455.7 		"/>
	</defs>
	<clipPath id="SVGID_6_">
		<use xlink:href="#SVGID_5_"  overflow="visible"/>
	</clipPath>
	<g clip-path="url(#SVGID_6_)">
		
			<image overflow="visible" width="960" height="1280" xlink:href="../pizzas dante/selectas/5620b8f1-9f2f-412a-a330-d06cf5c5ed59.JPG"  transform="matrix(0.3857 0 0 0.3857 -807.9414 -517.5719)">
		</image>
	</g>
</g>
<g>
	<defs>
		<rect id="SVGID_7_" x="-744.3" y="-94.2" width="342" height="223.8"/>
	</defs>
	<clipPath id="SVGID_8_">
		<use xlink:href="#SVGID_7_"  overflow="visible"/>
	</clipPath>
	<g clip-path="url(#SVGID_8_)">
		
			<image overflow="visible" width="6720" height="4480" xlink:href="../DANTE/fotos/DANTE-Sleccion_web2020/GALLERY/FOOD/2B0A5822(edited).jpg"  transform="matrix(6.647929e-02 0 0 6.647929e-02 -819.2291 -122.9802)">
		</image>
	</g>
</g>
<rect x="-940.3" y="275.9" fill="none" width="233.1" height="86.5"/>
<text transform="matrix(1 0 0 1 -882.7546 308.3824)"><tspan x="0" y="0" fill="#414042" font-family="'OpenSans-CondensedBold'" font-size="42.7596" letter-spacing="8">FOOD</tspan><tspan x="-47.6" y="44" fill="#414042" font-family="'OpenSans-CondensedBold'" font-size="42.7596" letter-spacing="8">DELIVERY</tspan></text>
<rect x="183.7" y="723.9" fill="none" width="304.1" height="86.5"/>
<text transform="matrix(1 0 0 1 210.0771 756.3734)"><tspan x="0" y="0" fill="#414042" font-family="'OpenSans-CondensedBold'" font-size="42.7596" letter-spacing="8">PARA ASAR </tspan><tspan x="30.6" y="44" fill="#414042" font-family="'OpenSans-CondensedBold'" font-size="42.7596" letter-spacing="8">EN CASA</tspan></text>
<rect x="-1230.5" y="838.7" fill="none" width="378.1" height="149.2"/>
<text transform="matrix(1 0 0 1 -1160.799 848.616)"><tspan x="0" y="0" fill="#414042" font-family="'OpenSans'" font-size="13">PARRILLADAS  •  PIZZAS  •  EMPANADAS</tspan><tspan x="-56.1" y="67" fill="#414042" font-family="'OpenSans-CondensedBold'" font-size="21">Llevamos el sabor de DANTE hasta tu casa.</tspan></text>
<rect x="-945.8" y="401.4" fill="none" width="238.6" height="41.6"/>
<text transform="matrix(1 0 0 1 -920.5639 415.8398)"><tspan x="0" y="0" fill="#414042" font-family="'OpenSans-BoldItalic'" font-size="19">Llevamos el sabor de </tspan><tspan x="-3.7" y="22.8" fill="#414042" font-family="'OpenSans-Bold'" font-size="19">DANTE</tspan><tspan x="60.6" y="22.8" fill="#414042" font-family="'OpenSans-BoldItalic'" font-size="19"> hasta tu casa.</tspan></text>
<line fill="none" stroke="#414042" stroke-miterlimit="10" x1="-878.5" y1="378" x2="-778.5" y2="378"/>
<line fill="none" stroke="#414042" stroke-width="2" stroke-miterlimit="10" x1="0.7" y1="0.7" x2="25.2" y2="25.2"/>
<line fill="none" stroke="#414042" stroke-width="2" stroke-miterlimit="10" x1="25.2" y1="0.7" x2="0.7" y2="25.2"/>
<g>
	<rect x="-889.6" y="605.8" fill="none" width="132.1" height="23"/>
	
		<text transform="matrix(1 0 0 1 -861.8906 616.4839)" fill="#414042" font-family="'OpenSans-CondensedBold'" font-size="14" letter-spacing="2">VER MENÚ</text>
</g>
<rect x="-890.8" y="594.2" fill="none" stroke="#414042" stroke-miterlimit="10" width="137.3" height="34"/>
<g>
	<rect x="15.4" y="595.8" fill="none" width="152.1" height="23"/>
	
		<text transform="matrix(1 0 0 1 23.4182 606.4876)" fill="#414042" font-family="'OpenSans-CondensedBold'" font-size="14" letter-spacing="2">DESCARGAR MENÚ</text>
</g>
<rect x="-15.1" y="584.2" fill="none" stroke="#414042" stroke-width="1.2539" stroke-miterlimit="10" width="215.9" height="34"/>
<rect x="-918.8" y="509.8" fill="none" width="200.7" height="16"/>
<text transform="matrix(1 0 0 1 -910.6555 520.4027)" fill="#414042" font-family="'OpenSans'" font-size="13.8908" letter-spacing="1">8374 5813  •  5208 4193</text>
<rect x="-904.2" y="488.2" fill="none" width="167.4" height="11.2"/>
<text transform="matrix(1 0 0 1 -891.5162 495.639)" fill="#414042" font-family="'OpenSans'" font-size="9.7649">Horario: 12:00 a 22:00 hrs</text>
<g id="CneU9u_1_">
	<g>
		<path fill="#414042" stroke="#414042" stroke-width="0.8563" stroke-miterlimit="10" d="M-930.7,512.9c0-1,0.3-2,1-2.7
			c0.2-0.2,0.5-0.4,0.7-0.6c0.1-0.1,0.3-0.2,0.4-0.3c0.4-0.3,0.9-0.3,1.3,0.1c0.2,0.2,0.4,0.4,0.6,0.7c0.3,0.5,0.6,0.9,0.8,1.5
			c0.2,0.6,0.1,1.1-0.3,1.5c-0.3,0.2-0.5,0.5-0.8,0.7c-0.4,0.3-0.5,0.6-0.4,1c0.1,0.5,0.4,1,0.7,1.4c0.4,0.6,0.9,1.2,1.5,1.7
			c0.3,0.3,0.7,0.6,1.2,0.8c0.5,0.2,0.9,0.1,1.2-0.3c0.2-0.3,0.5-0.5,0.8-0.7c0.5-0.4,1-0.3,1.5-0.1c0.5,0.2,0.8,0.6,1.2,0.9
			c0.3,0.2,0.5,0.5,0.7,0.7c0.3,0.5,0.3,0.9-0.1,1.3c-0.4,0.4-0.8,0.8-1.3,1.1c-0.5,0.3-1.1,0.5-1.7,0.5c-1,0.1-2-0.2-2.9-0.7
			c-1.1-0.6-2.1-1.5-2.9-2.4c-0.6-0.6-1.1-1.3-1.6-2c-0.6-0.9-1-1.8-1.3-2.8C-930.6,513.7-930.7,513.3-930.7,512.9z"/>
	</g>
</g>
<rect x="-918.8" y="532.4" fill="none" width="200.7" height="16"/>
<text transform="matrix(1 0 0 1 -869.36 542.9755)" fill="#414042" font-family="'OpenSans'" font-size="13.8908" letter-spacing="1">55 1506 0295</text>
<g>
	
		<path fill="#414042" stroke="#414042" stroke-width="0.8026" stroke-linecap="round" stroke-linejoin="round" stroke-miterlimit="10" d="
		M-885,530.9L-885,530.9L-885,530.9c-4.1,0-7.5,3.3-7.5,7.5c0,1.6,0.5,3.1,1.4,4.4l-0.9,2.8l2.9-0.9c1.2,0.8,2.6,1.2,4.1,1.2
		c4.1,0,7.5-3.3,7.5-7.5S-880.9,530.9-885,530.9z"/>
	<path fill="#FFFFFF" d="M-880.7,541.4c-0.2,0.5-0.9,0.9-1.5,1.1c-0.4,0.1-0.9,0.1-2.6-0.6c-2.2-0.9-3.6-3.1-3.7-3.3
		c-0.1-0.1-0.9-1.2-0.9-2.2s0.5-1.6,0.8-1.8c0.2-0.2,0.5-0.3,0.8-0.3c0.1,0,0.2,0,0.2,0c0.2,0,0.3,0,0.5,0.4
		c0.2,0.4,0.6,1.5,0.7,1.6c0.1,0.1,0.1,0.3,0,0.4c-0.1,0.1-0.1,0.2-0.2,0.3s-0.2,0.2-0.3,0.4c-0.1,0.1-0.2,0.2-0.1,0.5
		c0.1,0.2,0.6,0.9,1.2,1.5c0.8,0.7,1.5,1,1.7,1.1c0.2,0.1,0.4,0.1,0.5-0.1c0.2-0.2,0.4-0.5,0.6-0.8c0.1-0.2,0.3-0.2,0.5-0.2
		c0.2,0.1,1.3,0.6,1.5,0.7c0.2,0.1,0.4,0.2,0.4,0.3C-880.5,540.5-880.5,540.9-880.7,541.4z"/>
</g>
<rect x="-1692.3" y="269.9" fill="none" width="233.1" height="86.5"/>
<text transform="matrix(1 0 0 1 -1634.7546 302.383)"><tspan x="0" y="0" fill="#414042" font-family="'OpenSans-CondensedBold'" font-size="42.7596" letter-spacing="8">FOOD</tspan><tspan x="-47.6" y="44" fill="#414042" font-family="'OpenSans-CondensedBold'" font-size="42.7596" letter-spacing="8">DELIVERY</tspan></text>
<rect x="-1707.5" y="391.7" fill="none" width="258.1" height="17.2"/>
<text transform="matrix(1 0 0 1 -1680.9591 401.6114)" fill="#414042" font-family="'OpenSans'" font-size="13">CARNES  •  PIZZAS  •  EMPANADAS</text>
<rect x="-1697.8" y="440.7" fill="none" width="238.6" height="41.6"/>
<text transform="matrix(1 0 0 1 -1672.564 455.1737)"><tspan x="0" y="0" fill="#414042" font-family="'OpenSans-BoldItalic'" font-size="19">Llevamos el sabor de </tspan><tspan x="-3.7" y="22.8" fill="#414042" font-family="'OpenSans-Bold'" font-size="19">DANTE</tspan><tspan x="60.6" y="22.8" fill="#414042" font-family="'OpenSans-BoldItalic'" font-size="19"> hasta tu casa.</tspan></text>
<line fill="none" stroke="#414042" stroke-miterlimit="10" x1="-1630.5" y1="372" x2="-1530.5" y2="372"/>
<g>
	<rect x="-1641.6" y="618.8" fill="none" width="132.1" height="23"/>
	
		<text transform="matrix(1 0 0 1 -1613.8905 629.4847)" fill="#414042" font-family="'OpenSans-CondensedBold'" font-size="14" letter-spacing="2">VER MENÚ</text>
</g>
<rect x="-1642.8" y="607.2" fill="none" stroke="#414042" stroke-miterlimit="10" width="137.3" height="34"/>
<rect x="-1670.8" y="523.8" fill="none" width="200.7" height="16"/>
<text transform="matrix(1 0 0 1 -1662.6554 534.4033)" fill="#414042" font-family="'OpenSans'" font-size="13.8908" letter-spacing="1">8374 5813  •  5208 4193</text>
<g id="CneU9u_3_">
	<g>
		<path fill="#414042" stroke="#414042" stroke-width="0.8563" stroke-miterlimit="10" d="M-1682.7,526.9c0-1,0.3-2,1-2.7
			c0.2-0.2,0.5-0.4,0.7-0.6c0.1-0.1,0.3-0.2,0.4-0.3c0.4-0.3,0.9-0.3,1.3,0.1c0.2,0.2,0.4,0.4,0.6,0.7c0.3,0.5,0.6,0.9,0.8,1.5
			c0.2,0.6,0.1,1.1-0.3,1.5c-0.3,0.2-0.5,0.5-0.8,0.7c-0.4,0.3-0.5,0.6-0.4,1c0.1,0.5,0.4,1,0.7,1.4c0.4,0.6,0.9,1.2,1.5,1.7
			c0.3,0.3,0.7,0.6,1.2,0.8c0.5,0.2,0.9,0.1,1.2-0.3c0.2-0.3,0.5-0.5,0.8-0.7c0.5-0.4,1-0.3,1.5-0.1c0.5,0.2,0.8,0.6,1.2,0.9
			c0.3,0.2,0.5,0.5,0.7,0.7c0.3,0.5,0.3,0.9-0.1,1.3c-0.4,0.4-0.8,0.8-1.3,1.1c-0.5,0.3-1.1,0.5-1.7,0.5c-1,0.1-2-0.2-2.9-0.7
			c-1.1-0.6-2.1-1.5-2.9-2.4c-0.6-0.6-1.1-1.3-1.6-2c-0.6-0.9-1-1.8-1.3-2.8C-1682.6,527.7-1682.7,527.3-1682.7,526.9z"/>
	</g>
</g>
<rect x="-1670.8" y="546.4" fill="none" width="200.7" height="16"/>
<text transform="matrix(1 0 0 1 -1621.36 556.9761)" fill="#414042" font-family="'OpenSans'" font-size="13.8908" letter-spacing="1">55 1506 0295</text>
<g>
	
		<path fill="#414042" stroke="#414042" stroke-width="0.8026" stroke-linecap="round" stroke-linejoin="round" stroke-miterlimit="10" d="
		M-1637,544.9L-1637,544.9L-1637,544.9c-4.1,0-7.5,3.3-7.5,7.5c0,1.6,0.5,3.1,1.4,4.4l-0.9,2.8l2.9-0.9c1.2,0.8,2.6,1.2,4.1,1.2
		c4.1,0,7.5-3.3,7.5-7.5C-1629.6,548.2-1632.9,544.9-1637,544.9z"/>
	<path fill="#FFFFFF" d="M-1632.7,555.4c-0.2,0.5-0.9,0.9-1.5,1.1c-0.4,0.1-0.9,0.1-2.6-0.6c-2.2-0.9-3.6-3.1-3.7-3.3
		c-0.1-0.1-0.9-1.2-0.9-2.2s0.5-1.6,0.8-1.8c0.2-0.2,0.5-0.3,0.8-0.3c0.1,0,0.2,0,0.2,0c0.2,0,0.3,0,0.5,0.4
		c0.2,0.4,0.6,1.5,0.7,1.6c0.1,0.1,0.1,0.3,0,0.4c-0.1,0.1-0.1,0.2-0.2,0.3c-0.1,0.1-0.2,0.2-0.3,0.4c-0.1,0.1-0.2,0.2-0.1,0.5
		c0.1,0.2,0.6,0.9,1.2,1.5c0.8,0.7,1.5,1,1.7,1.1c0.2,0.1,0.4,0.1,0.5-0.1c0.2-0.2,0.4-0.5,0.6-0.8c0.1-0.2,0.3-0.2,0.5-0.2
		c0.2,0.1,1.3,0.6,1.5,0.7c0.2,0.1,0.4,0.2,0.4,0.3C-1632.5,554.5-1632.5,554.9-1632.7,555.4z"/>
</g>
<rect x="-138.8" y="528.1" fill="none" width="257.9" height="20.5"/>
<text transform="matrix(1 0 0 1 -128.261 541.6792)" fill="#414042" font-family="'OpenSans-Bold'" font-size="17.8427" letter-spacing="1">8374 5813  •  5208 4193</text>
<rect x="-70.8" y="476.1" fill="none" width="345.9" height="20.5"/>
<text transform="matrix(1 0 0 1 -36.0598 489.6801)" fill="#414042" font-family="'OpenSans'" font-size="17.8427" letter-spacing="1">HORARIO: 12:00 A 22:00 hrs</text>
<g id="CneU9u_2_">
	<g>
		<path fill="#414042" stroke="#414042" stroke-width="1.0999" stroke-miterlimit="10" d="M-154.1,532.1c0-1.3,0.4-2.5,1.3-3.5
			c0.3-0.3,0.6-0.6,0.9-0.8c0.2-0.1,0.3-0.3,0.5-0.4c0.6-0.4,1.1-0.4,1.6,0.1c0.3,0.3,0.5,0.6,0.7,0.9c0.4,0.6,0.8,1.2,1.1,1.9
			c0.3,0.7,0.1,1.4-0.4,1.9c-0.3,0.3-0.7,0.6-1,0.9c-0.5,0.3-0.6,0.8-0.5,1.3c0.1,0.7,0.5,1.2,0.9,1.8c0.6,0.8,1.2,1.5,1.9,2.2
			c0.4,0.4,0.9,0.8,1.5,1c0.6,0.2,1.1,0.1,1.5-0.4c0.3-0.3,0.6-0.6,1-0.9c0.6-0.5,1.2-0.4,1.9-0.1c0.6,0.3,1.1,0.7,1.6,1.2
			c0.3,0.3,0.7,0.6,0.9,1c0.4,0.6,0.4,1.2-0.1,1.7c-0.5,0.5-1,1-1.7,1.4c-0.7,0.4-1.4,0.6-2.2,0.7c-1.3,0.1-2.6-0.3-3.7-0.9
			c-1.4-0.8-2.6-1.9-3.8-3.1c-0.7-0.8-1.4-1.6-2-2.5c-0.7-1.1-1.3-2.3-1.6-3.5C-154,533.1-154.1,532.6-154.1,532.1z"/>
	</g>
</g>
<rect x="142.5" y="527.9" fill="none" width="257.9" height="20.5"/>
<text transform="matrix(1 0 0 1 206.0359 541.4131)" fill="#414042" font-family="'OpenSans-Bold'" font-size="17.8427" letter-spacing="1">55 1506 0295</text>
<g>
	
		<path fill="#414042" stroke="#414042" stroke-width="1.0309" stroke-linecap="round" stroke-linejoin="round" stroke-miterlimit="10" d="
		M185.8,525.9L185.8,525.9L185.8,525.9c-5.3,0-9.6,4.3-9.6,9.6c0,2.1,0.7,4,1.8,5.6l-1.2,3.6l3.7-1.2c1.5,1,3.3,1.6,5.3,1.6
		c5.3,0,9.6-4.3,9.6-9.6C195.4,530.2,191.1,525.9,185.8,525.9z"/>
	<path fill="#FFFFFF" d="M191.4,539.4c-0.2,0.7-1.1,1.2-1.9,1.4c-0.5,0.1-1.2,0.2-3.4-0.7c-2.8-1.2-4.6-4-4.8-4.2
		c-0.1-0.2-1.1-1.5-1.1-2.9c0-1.4,0.7-2,1-2.3c0.2-0.2,0.6-0.3,1-0.3c0.1,0,0.2,0,0.3,0c0.3,0,0.4,0,0.6,0.5
		c0.2,0.6,0.8,1.9,0.9,2.1c0.1,0.1,0.1,0.3,0,0.5c-0.1,0.2-0.2,0.3-0.3,0.4c-0.1,0.2-0.3,0.3-0.4,0.5c-0.1,0.2-0.3,0.3-0.1,0.6
		c0.2,0.3,0.7,1.2,1.6,1.9c1.1,1,1.9,1.3,2.2,1.4c0.2,0.1,0.5,0.1,0.7-0.1c0.2-0.2,0.5-0.6,0.7-1c0.2-0.3,0.4-0.3,0.7-0.2
		c0.3,0.1,1.6,0.8,1.9,0.9c0.3,0.1,0.5,0.2,0.5,0.3C191.6,538.2,191.6,538.8,191.4,539.4z"/>
</g>
<g id="CneU9u_4_">
	<g>
		<path fill="#414042" stroke="#414042" stroke-width="1.0999" stroke-miterlimit="10" d="M-75.7,10c0-1.3,0.4-2.5,1.3-3.5
			c0.3-0.3,0.6-0.6,0.9-0.8c0.2-0.1,0.3-0.3,0.5-0.4c0.6-0.4,1.1-0.4,1.6,0.1c0.3,0.3,0.5,0.6,0.7,0.9c0.4,0.6,0.8,1.2,1.1,1.9
			c0.3,0.7,0.1,1.4-0.4,1.9c-0.3,0.3-0.7,0.6-1,0.9c-0.5,0.3-0.6,0.8-0.5,1.3c0.1,0.7,0.5,1.2,0.9,1.8c0.6,0.8,1.2,1.5,1.9,2.2
			c0.4,0.4,0.9,0.8,1.5,1c0.6,0.2,1.1,0.1,1.5-0.4c0.3-0.3,0.6-0.6,1-0.9c0.6-0.5,1.2-0.4,1.9-0.1c0.6,0.3,1.1,0.7,1.6,1.2
			c0.3,0.3,0.7,0.6,0.9,1c0.4,0.6,0.4,1.2-0.1,1.7c-0.5,0.5-1,1-1.7,1.4c-0.7,0.4-1.4,0.6-2.2,0.7c-1.3,0.1-2.6-0.3-3.7-0.9
			c-1.4-0.8-2.6-1.9-3.8-3.1c-0.7-0.8-1.4-1.6-2-2.5c-0.7-1.1-1.3-2.3-1.6-3.5C-75.6,11-75.7,10.5-75.7,10z"/>
	</g>
</g>
<g>
	
		<path fill="#414042" stroke="#414042" stroke-width="1.0309" stroke-linecap="round" stroke-linejoin="round" stroke-miterlimit="10" d="
		M-41.6,3.7L-41.6,3.7L-41.6,3.7c-5.3,0-9.6,4.3-9.6,9.6c0,2.1,0.7,4,1.8,5.6l-1.2,3.6l3.7-1.2c1.5,1,3.3,1.6,5.3,1.6
		c5.3,0,9.6-4.3,9.6-9.6S-36.3,3.7-41.6,3.7z"/>
	<path fill="#FFFFFF" d="M-36,17.2c-0.2,0.7-1.1,1.2-1.9,1.4c-0.5,0.1-1.2,0.2-3.4-0.7c-2.8-1.2-4.6-4-4.8-4.2
		c-0.1-0.2-1.1-1.5-1.1-2.9s0.7-2,1-2.3c0.2-0.2,0.6-0.3,1-0.3c0.1,0,0.2,0,0.3,0c0.3,0,0.4,0,0.6,0.5c0.2,0.6,0.8,1.9,0.9,2.1
		c0.1,0.1,0.1,0.3,0,0.5c-0.1,0.2-0.2,0.3-0.3,0.4c-0.1,0.2-0.3,0.3-0.4,0.5c-0.1,0.2-0.3,0.3-0.1,0.6c0.2,0.3,0.7,1.2,1.6,1.9
		c1.1,1,1.9,1.3,2.2,1.4c0.2,0.1,0.5,0.1,0.7-0.1c0.2-0.2,0.5-0.6,0.7-1c0.2-0.3,0.4-0.3,0.7-0.2c0.3,0.1,1.6,0.8,1.9,0.9
		c0.3,0.1,0.5,0.2,0.5,0.3C-35.8,16-35.8,16.6-36,17.2z"/>
</g>
<rect x="149.8" y="853.4" fill="none" width="378.1" height="301.4"/>
<text transform="matrix(1 0 0 1 149.8095 863.2952)"><tspan x="0" y="0" fill="#414042" font-family="'OpenSans'" font-size="13">Dante was born in Argentina and has spent more that 20 </tspan><tspan x="0" y="23" fill="#414042" font-family="'OpenSans'" font-size="13">years in Mexico. Meat is his passion and he is a real authority </tspan><tspan x="0" y="46" fill="#414042" font-family="'OpenSans'" font-size="13">in the industry, so his nickname “Meat Guru” is more than well </tspan><tspan x="0" y="69" fill="#414042" font-family="'OpenSans'" font-size="13">deserved. He created Neuquén and Alodé, two awarded res</tspan><tspan x="360.8" y="69" fill="#414042" font-family="'OpenSans'" font-size="13">-</tspan><tspan x="0" y="92" fill="#414042" font-family="'OpenSans'" font-size="13">taurants in Monterrey, Mexico. Even with his tight schedule, </tspan><tspan x="0" y="115" fill="#414042" font-family="'OpenSans'" font-size="13">he has managed to collaborate seasonally with Enrique Olvera </tspan><tspan x="0" y="138" fill="#414042" font-family="'OpenSans'" font-size="13">at PUJOL, with Massimo Bottura at OSTERIA FRANCESACANA </tspan><tspan x="0" y="161" fill="#414042" font-family="'OpenSans'" font-size="13">and with Juan Mari Arzak at ARZAK. His latest success is bring</tspan><tspan x="369" y="161" fill="#414042" font-family="'OpenSans'" font-size="13">-</tspan><tspan x="0" y="184" fill="#414042" font-family="'OpenSans'" font-size="13">ing DANTE Brasa y Fuego to life, giving his own, well known </tspan><tspan x="0" y="207" fill="#414042" font-family="'OpenSans'" font-size="13">flavor to the restaurant.</tspan></text>
<rect x="-272.3" y="1147.9" fill="none" width="304.1" height="86.5"/>
<text transform="matrix(1 0 0 1 -222.1456 1180.3734)"><tspan x="0" y="0" fill="#414042" font-family="'OpenSans-CondensedBold'" font-size="42.7596" letter-spacing="8">PIZZAS A </tspan><tspan x="-32.8" y="44" fill="#414042" font-family="'OpenSans-CondensedBold'" font-size="42.7596" letter-spacing="8">LAS BRASAS</tspan></text>
<rect x="-306.2" y="1277.4" fill="none" width="378.1" height="301.4"/>
<text transform="matrix(1 0 0 1 -306.1906 1287.2952)"><tspan x="0" y="0" fill="#414042" font-family="'OpenSans'" font-size="13">Dante was born in Argentina and has spent more that 20 </tspan><tspan x="0" y="23" fill="#414042" font-family="'OpenSans'" font-size="13">years in Mexico. Meat is his passion and he is a real authority </tspan><tspan x="0" y="46" fill="#414042" font-family="'OpenSans'" font-size="13">in the industry, so his nickname “Meat Guru” is more than well </tspan><tspan x="0" y="69" fill="#414042" font-family="'OpenSans'" font-size="13">deserved. He created Neuquén and Alodé, two awarded res</tspan><tspan x="360.8" y="69" fill="#414042" font-family="'OpenSans'" font-size="13">-</tspan><tspan x="0" y="92" fill="#414042" font-family="'OpenSans'" font-size="13">taurants in Monterrey, Mexico. Even with his tight schedule, </tspan><tspan x="0" y="115" fill="#414042" font-family="'OpenSans'" font-size="13">he has managed to collaborate seasonally with Enrique Olvera </tspan><tspan x="0" y="138" fill="#414042" font-family="'OpenSans'" font-size="13">at PUJOL, with Massimo Bottura at OSTERIA FRANCESACANA </tspan><tspan x="0" y="161" fill="#414042" font-family="'OpenSans'" font-size="13">and with Juan Mari Arzak at ARZAK. His latest success is bring</tspan><tspan x="369" y="161" fill="#414042" font-family="'OpenSans'" font-size="13">-</tspan><tspan x="0" y="184" fill="#414042" font-family="'OpenSans'" font-size="13">ing DANTE Brasa y Fuego to life, giving his own, well known </tspan><tspan x="0" y="207" fill="#414042" font-family="'OpenSans'" font-size="13">flavor to the restaurant.</tspan></text>
<rect x="185.7" y="1645.9" fill="none" width="304.1" height="86.5"/>
<text transform="matrix(1 0 0 1 225.0908 1678.3716)"><tspan x="0" y="0" fill="#414042" font-family="'OpenSans-CondensedBold'" font-size="42.7596" letter-spacing="8">PAQUETES </tspan><tspan x="-26.1" y="44" fill="#414042" font-family="'OpenSans-CondensedBold'" font-size="42.7596" letter-spacing="8">EMPANADAS</tspan></text>
<rect x="151.8" y="1775.4" fill="none" width="378.1" height="301.4"/>
<text transform="matrix(1 0 0 1 151.8095 1785.2933)"><tspan x="0" y="0" fill="#414042" font-family="'OpenSans'" font-size="13">Dante was born in Argentina and has spent more that 20 </tspan><tspan x="0" y="23" fill="#414042" font-family="'OpenSans'" font-size="13">years in Mexico. Meat is his passion and he is a real authority </tspan><tspan x="0" y="46" fill="#414042" font-family="'OpenSans'" font-size="13">in the industry, so his nickname “Meat Guru” is more than well </tspan><tspan x="0" y="69" fill="#414042" font-family="'OpenSans'" font-size="13">deserved. He created Neuquén and Alodé, two awarded res</tspan><tspan x="360.8" y="69" fill="#414042" font-family="'OpenSans'" font-size="13">-</tspan><tspan x="0" y="92" fill="#414042" font-family="'OpenSans'" font-size="13">taurants in Monterrey, Mexico. Even with his tight schedule, </tspan><tspan x="0" y="115" fill="#414042" font-family="'OpenSans'" font-size="13">he has managed to collaborate seasonally with Enrique Olvera </tspan><tspan x="0" y="138" fill="#414042" font-family="'OpenSans'" font-size="13">at PUJOL, with Massimo Bottura at OSTERIA FRANCESACANA </tspan><tspan x="0" y="161" fill="#414042" font-family="'OpenSans'" font-size="13">and with Juan Mari Arzak at ARZAK. His latest success is bring</tspan><tspan x="369" y="161" fill="#414042" font-family="'OpenSans'" font-size="13">-</tspan><tspan x="0" y="184" fill="#414042" font-family="'OpenSans'" font-size="13">ing DANTE Brasa y Fuego to life, giving his own, well known </tspan><tspan x="0" y="207" fill="#414042" font-family="'OpenSans'" font-size="13">flavor to the restaurant.</tspan></text>
</svg>
