<svg id="Capa_1" data-name="Capa 1" xmlns="http://www.w3.org/2000/svg" viewBox="0 0 60.49 58.93"><defs><style>.cls-1{fill:#c1d261;}</style></defs><path class="cls-1" d="M43.53,5.55c-.11,0-.11.21.13.26l.26-.21Z"/><path class="cls-1" d="M44.92,6.62c.32,0,.73-.1.66-.42-.38.13-.41,0-.81.19-.25-.07-.37-.25-.3-.33-.1,0-.34-.19-.53-.06A1.29,1.29,0,0,0,45,6.45C45.07,6.54,45,6.58,44.92,6.62Z"/><path class="cls-1" d="M57.11,25.46l0-.15A.33.33,0,0,0,57.11,25.46Z"/><path class="cls-1" d="M54.55,39.71c0-.1,0-.16,0-.17S54.52,39.72,54.55,39.71Z"/><path class="cls-1" d="M53.23,41.82l.08-.12C53.26,41.74,53.22,41.78,53.23,41.82Z"/><path class="cls-1" d="M57.11,25.46l-.07.4C57.13,25.88,57.1,25.65,57.11,25.46Z"/><path class="cls-1" d="M48.22,7.54a.68.68,0,0,0-.23,0l.2.08Z"/><path class="cls-1" d="M55.72,19.23l0-.11a.35.35,0,0,0-.14-.06Z"/><path class="cls-1" d="M53.66,14.85c.05.1.28,0,.39,0a.33.33,0,0,1-.27-.12A.43.43,0,0,0,53.66,14.85Z"/><path class="cls-1" d="M48.63,9l-.13-.05Z"/><path class="cls-1" d="M56.52,22.62l-.08.06S56.5,22.65,56.52,22.62Z"/><path class="cls-1" d="M36.43,3.92s0,0,0,0S36.47,3.92,36.43,3.92Z"/><path class="cls-1" d="M42.06,5.87H42a.65.65,0,0,0,0,.13Z"/><path class="cls-1" d="M50.6,45.42h0C50.67,45.3,50.63,45.35,50.6,45.42Z"/><path class="cls-1" d="M13,49.25c.28.44-.78-.18-.32.41C12.68,49.55,13.41,49.69,13,49.25Z"/><path class="cls-1" d="M48.32,7.64l.18.11A1.08,1.08,0,0,0,48.32,7.64Z"/><path class="cls-1" d="M12.68,49.66h0l.05.06Z"/><path class="cls-1" d="M42.84,51.68a.25.25,0,0,0,.13,0S42.93,51.69,42.84,51.68Z"/><path class="cls-1" d="M49.27,47.71l-.15.12A.65.65,0,0,0,49.27,47.71Z"/><path class="cls-1" d="M39.14,53.2a.42.42,0,0,0-.28,0h0A.27.27,0,0,1,39.14,53.2Z"/><path class="cls-1" d="M35,53.94l.09,0,.13,0Z"/><path class="cls-1" d="M23.15,4a.93.93,0,0,1,.23.19C23.29,4,23.93,3.9,23.15,4Z"/><path class="cls-1" d="M48.15,7.65a.17.17,0,0,1,.17,0l-.13-.07A.07.07,0,0,0,48.15,7.65Z"/><path class="cls-1" d="M39.41,55.08l-.7.14C38.91,55.19,39.17,55.14,39.41,55.08Z"/><path class="cls-1" d="M1.9,24.55v-.17A.25.25,0,0,0,1.9,24.55Z"/><path class="cls-1" d="M36.65,55.61a1.17,1.17,0,0,0-.41-.1.16.16,0,0,0-.07.07Z"/><path class="cls-1" d="M23.38,4.19h0Z"/><path class="cls-1" d="M27.93,3.3c-.67,0-.3.32-.44.5-.78.12-.37-.22-.65-.37a12,12,0,0,1-1.22.42s-.11-.06,0-.13c-.5.3-1.55.16-2.12.54l-.09-.07a.64.64,0,0,1,.15.42c-.3,0-.52.26-.65.08.18,0,.18-.11.25-.19l-.29.14c-.32-.24.4-.18.38-.38a7.44,7.44,0,0,1-1.72.54c-.15-.27,1.06-.28.4-.43h.73c-.61-.36.44,0-.13-.44-1,.08-1,.32-2,.4-.17.2.12.22-.05.42-1.24.61-1.21-.45-2.09.18-.2.26-.2.59-.92.66l.13-.4c-.89.29-.35.63-1.34.75.12-.18.65-.35.51-.34-.69,0-.36.33-.81.49l-.2-.24C14.8,6.23,13.93,7,13,7.48c0-.11.13-.28-.14-.23A13.13,13.13,0,0,1,11,8.45c-.66.36-1.24.83-1.83,1.19l-.23.52c-.09.08-.24.07-.18-.05-.47.27.09.13,0,.37s-.37.19-.3,0a15.85,15.85,0,0,1-2.17,2.91l0-.2c-.51.58,0,1-.63,1.45l0-.13a11.16,11.16,0,0,0-1.19,2.17c-.18.36-.37.71-.56,1a6.78,6.78,0,0,1-.55.89c.25.34-.69,1.49-.22,1.74a6.16,6.16,0,0,0-1,1.78c-.09.35.2.58.17,1l-.26,0,.16.62L1.89,24v.41c0-.16.16-.32.24-.28a2.29,2.29,0,0,1-.53,1.5c0,.51,0,1,.09,1.51-.1,0-.12-.29-.17-.49.21.82-.29.12-.09.87.06-.09.15.07.2.09a4,4,0,0,0-.14,1.8l-.18-.12a28.08,28.08,0,0,0,.21,3.58c.05-.45.37-.37.43,0L1.69,33c.19.22.08-.39.32.07,0,.46-.28.34-.4.08l.15.56c-.08,0-.13-.09-.24-.11.19.21-.17,1,.17,1.3L1.61,35a24.55,24.55,0,0,0,.62,2.79c.23,0,.28.36.54.61a10.36,10.36,0,0,0,.52,2.45c.33.56.25.11.49.32-.19.13.18,1-.15.58a10.35,10.35,0,0,0,1.46,2.4c0-.18,0-.34.06-.31.16.2.21.54.1.56l0,0a14.81,14.81,0,0,1,1.4,2.13,4.34,4.34,0,0,0,1.56,1.72l-.07,0,1.15.64c.42.41-.38-.1-.13.28,1.26.65,1.74,1.34,2.82,1.77.18.54.89.89,1.64,1.22a10.94,10.94,0,0,1,2,1.05v-.16c.34,0,.31.22.51.33,0-.12-.26-.25-.05-.25,2.42.86,4.95,1.89,7.54,2.55,1,.18.66-.7,1.8-.16l-.38.23a14.53,14.53,0,0,1,1.48.06c.49,0,1,.06,1.48.1s1,.09,1.47.11a9.87,9.87,0,0,0,1.44-.12c-.11.07-.12.15-.3.15.4.21,1.49,0,1.49-.15.29,0,.07.15.25.23.41.11,1-.33,1.23-.14,0,0-.11.08-.18.1.25-.12,1.22-.07,1-.28a4.23,4.23,0,0,0,1-.07,2.94,2.94,0,0,1,.91-.11c.33-.32,1.23-.06,1.28-.45,0,.19.33.22.71.17a3.12,3.12,0,0,0,1-.39c-.12.15.41,0,.28.22.5-.13.95-.31.81-.48a1.62,1.62,0,0,0,.73,0,3.88,3.88,0,0,0,.61-.31c.38-.21.71-.39,1.07-.21.35-.18.7-.33,1-.53l1-.59a17.17,17.17,0,0,0,1.79-1.16c.07.17-.24.41-.56.6s-.64.35-.52.51a7.3,7.3,0,0,0,1.34-1.1,7.32,7.32,0,0,1,1.36-1c.29-.18,0,.26-.12.36a15.79,15.79,0,0,0,2.66-2.63s0,.15-.09.25c.15-.17.41-.35.26-.45l-.12.2c-.43.09.23-1,.15-1.14.15.63.81-.8.92.08.07-.14.12-.34,0-.39.16-.15.26-.17.22.1.43-.72.1-.6.56-1.19.06.06,0,.19,0,.31A3.18,3.18,0,0,1,53.14,45c0,.06.12,0,0,.19.56-.93.61-1.76,1.26-2.73.17.47.29-.3.61-.22l.2-.6-.25.16c.26-.49.21-1,.5-1.44l0,.43.34-1-.34.5c.07-.58-.39-.11,0-.74,0,.14.23-.49.48-.71h0a1.62,1.62,0,0,1,.18-1c.13-.07.31.19.4.15-.18-.34.36-1.24.14-1.66a.24.24,0,0,0,.24.16l-.15-.28c.12-.23.17-.26.29-.18.22-.73-.46.13-.06-.7,0,.07,0,0,0,.2A25.55,25.55,0,0,0,57.47,33c.36-.19,0,.74.27.51.19-1.21,0-2.54.18-3.69l-.05.21c-.42-.19.3-.85.09-1.45,0,.14.24.2.2.15a10,10,0,0,0-.26-2.85L58,26a9.51,9.51,0,0,0,0-1.77c-.14-.14-.16-.43-.3-.23.49-1.68-.81-2.89-.64-4.36.05.16.22.36.18.23l-.47-1.11c-.16.15-.07.18-.14.47a1.53,1.53,0,0,1-.43-.68c.29.47.3-.1.33-.36,0,.06-.13,0-.18,0,.13-.71-.39,0-.5-.82H56a4,4,0,0,1-.53-.8c.15-.22.24.26.42.21-.22-.44-.75-.69-.77-1.16a4.65,4.65,0,0,1,.42.57,1.27,1.27,0,0,0-.18-.91v0a7.38,7.38,0,0,0-.3-.78l.05.21c-.82-.21-.74-1-1.53-1.43.75.43.25,0,.5-.12-.06-.21-.2-.51-.08-.49-.41-.18-.26-.63-.86-.85,0-.07-.26-.33-.05-.4-.38-.34,0,.19-.14.23-.71-.39-1-1.61-2.1-2.06a19.83,19.83,0,0,0-1.94-.79c-.16-.28.38-.1.38-.1a2.28,2.28,0,0,0-1.06-.74c.11,0,.07-.11,0-.27-.32-.18-.37.13-.72-.22a1.28,1.28,0,0,1,.49-.1c-.42-.16-.86-.24-1.29-.37,0-.19.34-.08.53-.08-.48-.19-1.23-.49-1.47-.33l.26.2c-.17-.06,0-.21.14-.2.47,0,.51.36.5.44l-.31-.1c.07.58,1.15.52,1.69.89l-.42.17c.24,0,.47.06.71.09.06.16,0,.37-.26.25.28.39.41.1.61.49,0,.05,0,.05,0,0l.41.17c-.11,0-.09.25-.27,0,.51.6,1.15.56,1.22.94l-.07,0c.89.62.25-.13,1.07.18,0,.28,0,.57-.05.85L51.2,11c.07.08.22.25.11.29.43.17,0-.13.33-.07.2.55,1.09,1,.84,1.4.28,0-.21-.5.26-.14-.23.4.48.47.61,1-.27,0-.45-.42-.32.09.5,0,.47.82.75,1.11.27-.14.59.69,1,1.26-.08,0,.39,1.26.54,1.88h-.05c.17,0,.31.15.43.36s.2.49.3.71c-.19,0-.28,0-.44-.23l.14.43c.13.06.22.18.34.45l-.26,0c.1.28.26.55.4.85a2.69,2.69,0,0,1,.22,1c.23,0,.46-.75.78,0-.1.05-.3.13-.39-.08a.74.74,0,0,1,.13.38l-.26-.28c0,.36.2.15.24.43-.17,0-.07.23-.21.21s0-.25-.07-.34a1.55,1.55,0,0,1-.09.85c.09,0,.23,0,.28.19.09.6-.18.24-.22.6.14.13.06.52.32.5,0,.18-.1.22-.16.3.18.29.16,1.44.4,1.07l0-.08v.05h0a12.38,12.38,0,0,1,0,3.16H57.1c.08.61,0,1.36.13,1.81,0,.18-.2.41-.29.32a2.32,2.32,0,0,1-.11,1.18c-.1-.48-.15.15-.06-.49a2.76,2.76,0,0,0-.17,1.38c-.18-.25-.35.4-.34.69l.23-.39a7.27,7.27,0,0,1-.16.88l-.26-.21a3.93,3.93,0,0,0-.28,1.65,1.72,1.72,0,0,1-.45,1.39c.1.37.32-.6.46-.26-.19.54-.78,1-.83,1.13-.41.67.18.83-.22,1.55.14-.06.43-.06.28.54s-.67.49-.6.13c0-.13.1-.18.13-.16,0-.18.09-.42-.1-.26l.06.11c-.2.22-.49.94-.57.7-.08.43.08.24.25,0-.4.61-.45,1-.89,1.64.1-.08.26-.12.21,0-.62.91-.05.52-.36,1.2-.34.3-.23-.3-.51.4-.33.32-.28-.06-.26-.25-.19.66-.77,1-1,1.28l.12-.34a2.14,2.14,0,0,1-.26.5l.28-.06c-.14.16-.24.3-.31.25,0,.24.38.06.27.5-.25.16-.43.74-.7.66.6-.64-.27-.09.13-.7a1.2,1.2,0,0,1-.31.41s0-.06,0-.11c-.69.5,0,.49-.52,1.16,0-.18-.36,0-.43.08.24-.25.31,0,.18.35-.47.32-.35.5-.56.7l.27-.2c0,.19-.17.38-.41.7-.1-.06.19-.32.06-.26-.1.53-.9.47-1.23,1-.27.1-.2-.2-.43-.1-.37.59-.65.32-1.13.81.28.06.29,0,0,.43a8.82,8.82,0,0,0,.85-.77,4.19,4.19,0,0,1-.42.67,5.91,5.91,0,0,0,.7-.64c-.16.36-.17.3.06.32-.54.08-.68.69-1.26.84l-.26-.43a2.47,2.47,0,0,0-1,.66,4,4,0,0,1-1.17.69l.34-.08c0,.25-.58.32-.86.55,0-.17-.26-.13-.44-.16.08.13-.74.25-.71.61l-.53-.05c-.86.18-.78.84-1.63,1,.2-.24-.21-.26.3-.52-.27.06-.52.1-.5.21-.18-.06-.7.41-1,.31-.1.1-.1.29-.41.35a.07.07,0,0,1,0-.08c0,.08-.46.23-.15.34-1-.33-2.43.44-3.24.11-.62.1-1.36.21-1.92.27,0-.06,0-.09.1-.08-.78-.11-.45.55-1.35.38-.46-.28.47-.15.18-.25-.13-.56-1.07.07-1.66-.25l.14,0c-.45-.19-1.11.23-1.85.12,0,0,0-.05,0-.09a6.63,6.63,0,0,1-2.23.29c.25-.19.34-.09.23-.32-.33,0,.05.38-.59.35-.2-.15-.65-.32-.67-.56l.6.07c-.27-.34-.78-.1-1.08-.2l.06-.13c-.92-.11-1,.28-2,0l.08.12c-.6.21-.41-.28-1-.16l-.09-.37a9,9,0,0,1-1.94-.08A14.41,14.41,0,0,1,21.82,53a4.55,4.55,0,0,0-1.4-.15c.15,0,.34,0,.46.07a3.11,3.11,0,0,1-1.75-.13c.16-.29-.27-.47-.78-.65s-1.07-.45-1.21-.77a5.3,5.3,0,0,1-1.74-.68,19,19,0,0,0-1.74-1c.2.68-.39-.17-.56.31-.3-.15-.41-.23-.42-.28L12,48.85c-.12-.26.33.07.36,0-.58-.43-.13-.35-.45-.73,0,.21-.37.1-.65-.21a4.72,4.72,0,0,0,.33.53c-1-.35-.42-.89-1.37-1.29l.34.07c-.22-.12-.59-.43-1-.7a2.46,2.46,0,0,0-1.05-.64c0-.11,0-.29.19-.15-.82-.89-2.12-1.84-2.36-2.84l.16,0c-.16-.18-.41-.24-.43-.55,0,0,.15,0,.11-.08a1.77,1.77,0,0,1-.54-.76l.24.18c-.35-1.15-1.05-1.57-1.46-2.55.36-.11.2-1.06.16-1.54h.05c-.28-1.38-.8-2.3-1.11-3.62.3-.87-.07-2.83.16-4.17-.06.21-.29,0-.33-.27s-.25-.87.09-.82v.12c.35-.23.27-.87.32-1.37l-.44-.11c.71-1.25.13-3.47.87-4.07,0-.33,0-.71,0-1l.23.07c.26-.83.41-1.23.69-2.27l.09.26c.21-.55-.42-1-.22-1.48l.4,0c.41-1,1.19-1.76,1.35-2.85a.24.24,0,0,1,0,.28c.23-.45,1.24-1.44.72-1.59.14.09.29-.13.44-.44a3.89,3.89,0,0,0,.21-.51l.24-.45.12.22a2,2,0,0,1,.42-1.18c.13-.1.24,0,.05.14.45-.31.12-.47.64-.87l-.05.29a1.08,1.08,0,0,0,.42-.72c.21-.3.85-.64,1-.52a.76.76,0,0,1,.38-.65c.08,0,0,.16,0,.21.83-.41,1-1,1.64-1.14a.17.17,0,0,0,.17.06,11.25,11.25,0,0,1-1.08.65c.13.18.63-.1.42.4.29-.38.76-1.14,1.31-1.34l.1,0,0,0a.64.64,0,0,0,.31-.18,2.64,2.64,0,0,0,.45-.15c.15.13.65-.21.91-.32-.12-.21.24-.35-.16-.37.05,0,0,0-.21.15L15.12,8V8l-.65.33a.87.87,0,0,1,.68-.43,3.93,3.93,0,0,1,.22-.54c.49.1,1.31,0,1.47.19.4-.21.89-.41,1.33-.64a2.61,2.61,0,0,0,1.07-.69c.24-.12.33,0,.44.1-.14.08-.31.12-.37.2.47-.24,1.46-.44,1.52-.75.68,0-.3.35.58.14l-.11.12a4.6,4.6,0,0,0,2.29-.5,4,4,0,0,1,2.49-.26c-.14,0-.21,0-.24-.1,2.24.17,4.64-.41,6.85.2.62.12.7-.07,1.1-.21l.12.27.68-.24c1-.12,1.55.76,2.77.5l-.13-.19c.42.09,1.36.07,1.26.26,0,0,.16-.17.32-.06v.14l1.07-.09c.79.22-.2.51,1,.71.44,0,1.3-.2,1.15-.31s-.44-.15-.43-.29H42c.13-.38.51-.74-.44-1.16l-.72.14-.2-.23.59.08c-.31-.23-.54-.1-.79,0a.43.43,0,0,0-.26-.25l-.73.28c-.06-.17.35-.27-.1-.41-.34.13.26.38-.28.43-.31-.22-.19-.36-.6-.25,0-.11,0-.16.21-.19-.37.08-.93-.06-1.13.13-.32-.28-1.18-.08-1.11-.45a2.26,2.26,0,0,1-1,.22c.63-.39-1.2-.13-1-.6-.47.36-1.59.08-2.37.26,0,0,.13-.09.2-.07a3.05,3.05,0,0,1-.83-.28c-.07.33-.75.4-1.12.6-.53-.33.33-.39.17-.7,0,.27-.93.26-.75.49-.41-.21-.35-.11-.56-.39-.08.42-.39.06-.72.33-.6-.19-.16-.39-.81-.24C27.35,3.47,27.93,3.3,27.93,3.3ZM13,7.55h0a2,2,0,0,1,.28-.15A1.91,1.91,0,0,0,13,7.55Zm-1.11.72L12.39,8c.08,0,.08.15,0,.22C12.39,8.09,12.11,8.22,11.9,8.27Zm3.15.13c-.16.12-.24.1-.29.07s.18-.1.3-.17v0A.22.22,0,0,1,15.05,8.4Z"/><path class="cls-1" d="M15.23,8l.06-.06h-.13l0,.1Z"/><path class="cls-1" d="M57.14,25.28v0a.16.16,0,0,1,0-.06Z"/><polygon class="cls-1" points="2.02 23.08 2.08 23.09 2.06 22.96 2.02 23.08"/><path class="cls-1" d="M56.55,18.23a.16.16,0,0,0,0-.11A.3.3,0,0,0,56.55,18.23Z"/><path class="cls-1" d="M55.34,15.36l-.13-.43A3.38,3.38,0,0,0,55.34,15.36Z"/><path class="cls-1" d="M54.18,13.26a.23.23,0,0,0-.11,0h0Z"/><path class="cls-1" d="M50.54,48.71l-.06.08C50.36,49,50.45,48.86,50.54,48.71Z"/><path class="cls-1" d="M55.89,38.82a2.44,2.44,0,0,1,0,.38C56,39,56,38.87,55.89,38.82Z"/><polygon class="cls-1" points="39.49 55.07 39.49 55.06 39.41 55.08 39.49 55.07"/><path class="cls-1" d="M55.67,39.67a1,1,0,0,0,.21-.47A1.65,1.65,0,0,0,55.67,39.67Z"/><path class="cls-1" d="M46.34,6.48l-.1-.06,0,0Z"/><path class="cls-1" d="M46.21,6.45l-.13,0A.24.24,0,0,0,46.21,6.45Z"/><path class="cls-1" d="M45.81,6.36l.27.06C46,6.38,45.89,6.32,45.81,6.36Z"/><path class="cls-1" d="M49,8.19l.08,0A.1.1,0,0,0,49,8.19Z"/><path class="cls-1" d="M49.84,8.74c-.17-.15-.36-.5-.65-.64l-.07,0C49.32,8.12,49.58,8.73,49.84,8.74Z"/><path class="cls-1" d="M52,12.2l-.48-.61c0,.16.06.38-.2.14C51.78,12.63,51.34,11.44,52,12.2Z"/><path class="cls-1" d="M53.36,14.16c-.27-.31-.11.09-.17.1C53.41,14.42,53.46,14.46,53.36,14.16Z"/><path class="cls-1" d="M56.83,30.69l-.21-.06C56.62,31,56.7,30.64,56.83,30.69Z"/><polygon class="cls-1" points="57.44 34.2 57.63 33.91 57.46 33.72 57.44 34.2"/><polygon class="cls-1" points="55.45 35.76 55.45 35.62 55.4 36.15 55.45 35.76"/><path class="cls-1" d="M35.72,53.63l.13.25C36.05,53.8,36.06,53.49,35.72,53.63Z"/><path class="cls-1" d="M23.23,53.45a.66.66,0,0,0-.67-.25A5.06,5.06,0,0,0,23.23,53.45Z"/><polygon class="cls-1" points="3.71 26.73 3.78 26.99 3.74 26.51 3.71 26.73"/><path class="cls-1" d="M29.41,34.66c.06,0,.15-.19.09-.19l-.2.19Z"/><path class="cls-1" d="M29.5,34a1.2,1.2,0,0,0-.52.37,3.17,3.17,0,0,0,.44-.23c.06,0,0,.12-.07.19s0,.11.16,0,0-.26-.15-.19A.43.43,0,0,1,29.5,34Z"/><path class="cls-1" d="M29.6,30h0Z"/><path class="cls-1" d="M31.37,28.09s0,0,0,.06S31.39,28.1,31.37,28.09Z"/><path class="cls-1" d="M31.92,28h0S31.93,28,31.92,28Z"/><path class="cls-1" d="M29.6,30h.11C29.63,29.94,29.63,30,29.6,30Z"/><path class="cls-1" d="M28.53,33.89h.09l-.05,0Z"/><path class="cls-1" d="M29.45,31.09v0l.11,0Z"/><path class="cls-1" d="M29.41,31.89a1.77,1.77,0,0,0-.34,0c.1,0,.15,0,.17,0Z"/><path class="cls-1" d="M29.28,33.22h0Z"/><path class="cls-1" d="M29.66,30.56l.08,0Z"/><path class="cls-1" d="M22.69,18.64l0,0S22.68,18.64,22.69,18.64Z"/><polygon class="cls-1" points="21.2 18.35 21.2 18.33 21.11 18.23 21.2 18.35"/><path class="cls-1" d="M32.76,27.67h0S32.77,27.69,32.76,27.67Z"/><path class="cls-1" d="M35.35,19.5c-.13.2-.32,0-.45.25C35,19.68,35.3,19.69,35.35,19.5Z"/><path class="cls-1" d="M28.54,33.85l0,0A.05.05,0,0,0,28.54,33.85Z"/><path class="cls-1" d="M34.9,19.75h0l0,0Z"/><path class="cls-1" d="M34.19,26.1,34.1,26A.23.23,0,0,0,34.19,26.1Z"/><path class="cls-1" d="M32.83,27h.05S32.84,27,32.83,27Z"/><path class="cls-1" d="M34.47,25.23s.06,0,.05,0h0S34.52,25.24,34.47,25.23Z"/><path class="cls-1" d="M35,24.5h-.05v0Z"/><path class="cls-1" d="M24.52,17.88a1,1,0,0,1-.07-.21C24.49,17.84,24.4,17.92,24.52,17.88Z"/><path class="cls-1" d="M28.64,33.82a.17.17,0,0,1-.1,0l0,0S28.63,33.84,28.64,33.82Z"/><path class="cls-1" d="M33,24.06l.09-.06A.15.15,0,0,0,33,24.06Z"/><path class="cls-1" d="M29.89,18.09l0,0S29.88,18.11,29.89,18.09Z"/><path class="cls-1" d="M33.22,23.72a.49.49,0,0,0,.17,0,.11.11,0,0,0,0,0Z"/><path class="cls-1" d="M24.45,17.67Z"/><path class="cls-1" d="M23.87,18.38c.1,0,0-.31-.06-.49s.11.21.19.36c.05-.1.05-.4.11-.4a.28.28,0,0,1,0,.13c0-.26.24-.05.29-.38a.19.19,0,0,1,0,.07,2.76,2.76,0,0,1-.08-.42c.05,0,.06-.22.11,0,0,0,0,.09,0,.15l0-.1c.09.29-.06.12,0,.34.09-.12.18-.37.27-.3.05.28-.17.12,0,.36l-.13-.09c.15.44-.08,0,.07.45.17.06.15-.17.32-.1,0-.17,0-.24,0-.4.21-.31.24.71.37.31,0-.2,0-.56.16-.38l0,.33c.15,0,.06-.47.24-.26,0,.13-.12.12-.1.15.12.26.07-.19.16-.19l0,.29c.16-.05.35-.26.54-.31a.5.5,0,0,0,0,.27c.24-.15.5,0,.72.23l.1-.25s0,.12,0,.16,0-.15.06-.25.06.15,0,.22c.17-.2.49-.43.64-.15l0,.08c.12.11.19-.51.29-.26l0,0c.28.13.62-.06.78.34.09-.35.25.2.34-.3.12.28.07.36.25.56.06,0,.14-.3.23-.33l-.05.26.15-.26v.32l.08-.05s0-.13,0-.2.22.23.19.37l.29-.16c0,.1-.08.12-.13.18.19-.23-.05.28.13.07a.68.68,0,0,1,.07-.2.18.18,0,0,0,.25.17l-.07.17c.15.09.38,0,.56.1,0-.1.09-.39.16-.4l-.08.27c.1-.14,0-.12.13-.29.06.06-.07.32-.14.39l.11-.06a1.89,1.89,0,0,1-.1.21c.1-.15,0,.31.19.06l0,.07c.17.08.28,0,.42.1.12-.21.15-.14.28-.28.07.12.07.35.2.41s.13-.16.25-.25c-.12.19,0,.25-.15.34a.94.94,0,0,0,.47.08c0-.08,0-.13.11-.17s0,.13-.07.2h0c.42-.07-.08.82.37.64h.28c0,.09-.17.06-.24.19.42-.05.14.28.42.29-.5.41.25.37-.09.68l.14-.06c.16,0-.06.07-.08.11s.11-.09.2-.09c.29.3-.06.74-.22,1,0,.1.78.14.4.26l-.28-.08c.3.3-.1.48.07.82-.06,0-.14-.07-.13-.09-.2,0-.09.18.06.26,0,0-.14-.06-.23-.07s.17.25,0,.18a.12.12,0,0,1-.06-.06c.07.08-.1.14.12.23-.15,0,0,.23-.18.23.19.19-.21.09.09.31-.31-.22-.37,0-.26.15-.08-.09-.14,0-.25-.15,0,.07,0,.17.13.28-.45-.17.09.48-.42.17a2.21,2.21,0,0,1-.17.82c-.27-.28.15-.21-.15-.49,0,.27.11.6-.12.68-.07,0-.09-.14-.12-.2,0,.26-.34.27-.35.56a.15.15,0,0,1,0-.11s-.11,0,0,.15v-.06c.22.15.23.5.32.61-.29-.42-.24,0-.58-.51a.37.37,0,0,0,.11.22c-.05,0-.11-.05-.16-.17-.05.17.11.27,0,.36a1.18,1.18,0,0,1-.11-.19c.05.17.11.33,0,.36s-.08-.09-.06-.11c-.13.15,0,.55-.22.58-.2-.32-.14,0-.36-.27l0,.15.14.08c-.08.07,0,.3-.13.29l0-.15-.1.18h.16c0,.19.29.29.13.31,0,0-.08.07-.25,0h0c0,.11.07.22,0,.22s-.23-.26-.29-.3c.15.22-.12.23,0,.47a1.24,1.24,0,0,0-.19-.2l.13.19a.36.36,0,0,1-.2-.13c-.14.08.32.24.08.25,0,0,0,0,0-.08-.19.06-.13.34-.31.39-.28-.17,0-.16-.21-.29-.12.22,0,.62-.21.76l.05,0c.35.29-.28,0-.17.23,0,0-.19-.17-.15-.13-.15.09-.09.34-.08.61l-.09-.08c-.14,0-.17.2-.27.27.1.08.06.12.22.16-.74.05.12.67-.47.77,0,0-.08-.1-.09-.08s0,.18.05.27c.2,0,.12,0,.28,0s.19.13.18.19c-.11-.13-.31-.07-.43,0l.18,0c-.36.06.39.09.13.21l-.1,0c.05.07.18.14.14.2-.23,0-.1-.07-.29-.1,0,.1.41.22.18.29-.06,0-.06-.1-.12-.15-.27.07-.2.09-.25.16h0l-.13.16.07,0c.59.13.11.26.51.4-.38-.13-.22,0-.48,0-.07,0-.14.12-.21.11.21.06-.15.16.16.24-.08,0,0,.09-.2.1.09.1.14,0,.24,0,.31.09-.26.46.19.6.22.14.5.07.69.15a.38.38,0,0,1-.29.09c-.07.14,0,.2.11.24a.37.37,0,0,0-.18.14c.06.06.28-.12.24,0a1.28,1.28,0,0,1-.33.11A3.2,3.2,0,0,0,29,34c-.1.11-.21.08-.3.11a.43.43,0,0,0,.48,0V34s-.13.14-.18.15c-.21,0,0-.16,0-.21l.08,0c.35-.35-.21-.15-.26-.29l.33-.14-.32,0c.07-.07.24-.18.31-.16.12-.15-.14,0,0-.15a.09.09,0,0,1,.06,0l-.13,0c.07,0,.22-.11.19-.05.14-.2-.33-.1-.09-.24h0c-.17-.14-.25.07-.59,0l.59-.26-.25,0s0-.06.11-.08c-.18,0-.11,0-.28,0,.22-.15-.16-.26.25-.34-.2,0-.14.12-.29,0,.44-.08-.09-.11.11-.22s.12.09.31,0c-.39,0,.08-.16,0-.22-.32,0-.14-.16-.23-.28.1,0,.19-.22.32-.3h.05c-.31-.07-.23-.18-.28-.27a.65.65,0,0,1,.33.13v-.08a.26.26,0,0,1-.17-.13l.23.08c0-.1-.22-.27,0-.35-.2-.08-.62-.07-.71-.27a1,1,0,0,1,.35.14s-.08-.07,0-.08l.17.12c.11,0-.14-.09-.11-.13s.13,0,.25.06-.08,0,0,.05a.35.35,0,0,1,.29,0c-.1,0-.22-.08-.22-.13s.2.05.3,0c-.1-.07,0-.08-.19-.18,0,0,.12,0,.19,0-.09-.09.08-.22-.19-.3h0v0h0c-.14-.28.31-.26.32-.46l.07.05c0-.15.08-.23,0-.4s.17,0,.24.1c0-.11-.07-.17.11-.18.07.16.12.06,0,.13.12,0,.24,0,.13-.2.14.17.26.11.25,0l-.17,0a.15.15,0,0,1,.11-.11l.19.2c.39.08-.16-.69.37-.41-.1-.18-.18,0-.31-.21.1-.05.46.17.48.15.21,0-.19-.39,0-.42-.08-.06-.29-.24-.27-.39s.39.22.4.33-.05,0-.07,0a.15.15,0,0,0,.1.16l-.06-.08c.11,0,.21-.06.3.08,0-.12-.09-.14-.17-.14.2,0,.16-.14.33-.16-.06,0-.15-.1-.14-.12.24,0-.06-.2,0-.33.16.07.22.3.24.11.13,0,.19.19.22.27,0-.23.27-.06.35-.08V28a.1.1,0,0,1,.05-.1l-.16-.13c.05,0,.07,0,.13,0-.06-.12-.25-.23-.31-.42.11,0,.05-.19.25,0-.19,0,.19.19.11.32,0-.05,0-.07.08-.07a.11.11,0,0,1,0,.07c.29.07-.14-.28,0-.39.08.13.22.19.22.15s-.19-.17-.22-.3c.16,0,0-.14.08-.17h-.09c-.08-.13,0-.15,0-.23.09.08,0,.1.06.12-.11-.25.33.08.3-.13.11,0,.19.2.28.22,0-.24.25,0,.24-.17-.17-.12-.14-.08-.2-.29l-.08.26-.09-.31c-.05,0,0,.19-.07.2-.07-.18,0-.13-.18-.23.28.15,0-.26.24-.19l.35.36c.28,0,0-.39.27-.47h-.11c-.12-.16.08-.12.06-.23a.66.66,0,0,0,.3.17c-.1-.08.12-.11-.12-.35l.23.07c.19-.08-.23-.46-.08-.56.11.15.25.17.28.34,0,0,.09-.07,0-.14.11,0-.08-.27.08-.21,0-.07-.18-.18-.13-.22a.25.25,0,0,1,.07.05c-.07-.05,0-.15-.22-.22.54.16.24-.41.7-.31a2.26,2.26,0,0,1,.09-.41s.07,0,0,.05c.21-.08-.39-.31-.16-.39s.1.15.21.14c.52.2,0-.23.37-.23l0,0c.21,0-.11-.3,0-.44l.08,0a1,1,0,0,1-.33-.56c.21.09.1.09.32.11,0-.08-.35-.06-.38-.19a1.29,1.29,0,0,1,.47-.08v.13c.31,0,0-.18.07-.24l.14,0c0-.22-.37-.25-.33-.46l-.1,0c-.33-.11.19-.09-.06-.2l.33,0a3.48,3.48,0,0,1-.42-.37,1.35,1.35,0,0,1,.56.29c0-.08-.05-.28-.22-.29,0,0,.12.05.07.09-.27-.07-.41-.16-.44-.3.66-.11.08-.42.53-.67-.32-.2-.1-.58-.3-.88-.39.34-.06-.08-.51.19-.06,0-.07-.07,0-.09s.11-.24.15-.35.14,0,.23-.07c-.06-.17.15-.18.2-.36-.14.13-.25.1-.25,0l-.12.25c-.36,0,.24-.42-.13-.46l.18,0c-.15,0-.3-.37-.69-.17,0-.06.12-.18.18-.16-.16-.27-.76-.14-.75-.47l.1-.08c-.07,0-.22.12-.19,0s.09-.08.08-.1-.25.08-.26,0l.14-.08c-.13-.3-.56,0-.79,0A.52.52,0,0,0,33,17l0-.05c-.27-.21-.63,0-1,0,0-.45-.49-.38-.7-.68,0,.08-.09.28-.15.3s-.25.19-.14-.13h0c0-.34-.11-.29-.21-.33l-.14.43c-.11-.71-.74.08-.76-.52-.09.1-.17.08-.25.18l0-.24a.69.69,0,0,0-.48-.11l.07-.16c-.13,0-.25.67-.37.67V16c-.21,0-.4-.35-.64-.05,0,0,0-.15.06-.17s-.37-.27-.37.23c0-.33-.22-.05-.34.08l0-.24c-.11.3-.12.38-.26.46s0-.19,0-.13c-.09-.13-.09.22-.21.09l.06-.15c-.11,0-.11.06-.18.23s-.2-.07-.21-.29c0,.13-.08.31-.14.24a.19.19,0,0,1,0-.15c-.18-.17-.28.27-.4,0a.33.33,0,0,0,0-.14c.15,0,.26,0,.25,0,0-.22-.11-.26,0-.56-.1.16-.27.51-.38.41a.64.64,0,0,1,0-.07v0s-.05,0-.07,0-.06-.07-.1-.07c0-.18-.14-.1-.2-.11,0,.24-.07.21,0,.4,0,0,0,0,.05,0a0,0,0,0,0,0,0v0l.15,0c0,.13-.1.23-.16.1l-.08.39c-.09-.34-.25-.52-.28-.72-.18.14-.44.1-.52.57,0,.06-.07-.13-.09-.2s.06,0,.07-.11c-.09.13-.3.08-.29.39-.15-.13,0-.3-.14-.22l0-.1c-.44-.46-.45.87-.95.32a.16.16,0,0,1,.07.09c-.53-.18-.81.49-1.4.27-.16,0-.08.16-.08.33l-.15-.22,0,.33c0,.27-.62-.37-.61.12l.13.13c-.1,0-.16.24-.27.08,0,0,.09.16,0,.11l-.09-.1,0,.31c-.18,0-.34-.42-.54-.25a.66.66,0,0,0,.18.5s.13,0,.23.08v.11a2.52,2.52,0,0,0,.87.67L22,18.75l.16.12-.05.07c.16.09.07,0,0-.15a.5.5,0,0,0,.17.13l-.17-.35c.11.11.16.26.27.29-.08-.16-.26-.24-.27-.38.15.11.23.24.18.08a.36.36,0,0,1,.11.18c0-.13.07-.12,0-.31.17.16.12-.15.32.17,0-.08-.09-.3-.05-.33.15.43.17-.07.38.37-.14-.4.12-.26.13-.51,0,0,0,.09,0,.08s.14.11.21.16a1.33,1.33,0,0,1-.06-.63c.19.27.08.39.21.67-.09-.26,0-.31-.06-.51a.78.78,0,0,1,.2.33c-.11-.4,0-.09,0-.35.14.17.13.37.19.22A.37.37,0,0,1,23.87,18.38Zm2.44-1h0l-.06,0Zm.23,0h-.1c0-.09,0-.17,0-.17S26.51,17.33,26.54,17.4Zm-.49-1.67s.05,0,.06.06l-.07,0v0S26,15.76,26.05,15.73Z"/><path class="cls-1" d="M26,16l0,0,0,.06V16Z"/><path class="cls-1" d="M29.55,30h0Z"/><polygon class="cls-1" points="29.63 18.16 29.64 18.1 29.61 18.14 29.63 18.16"/><path class="cls-1" d="M28.35,31h0Z"/><path class="cls-1" d="M28.22,31.62l-.09.09C28.18,31.67,28.21,31.65,28.22,31.62Z"/><path class="cls-1" d="M28.1,32.12h0Z"/><path class="cls-1" d="M31.73,25.78v0C31.73,25.7,31.72,25.73,31.73,25.78Z"/><path class="cls-1" d="M30.56,27.59a.61.61,0,0,1,0-.13S30.47,27.49,30.56,27.59Z"/><polygon class="cls-1" points="32.97 24.07 32.97 24.07 32.98 24.07 32.97 24.07"/><path class="cls-1" d="M30.61,27.4c-.06,0-.08,0-.08.06S30.61,27.45,30.61,27.4Z"/><path class="cls-1" d="M28.8,34.31v0l0,0Z"/><path class="cls-1" d="M28.84,34.32h0S28.87,34.3,28.84,34.32Z"/><path class="cls-1" d="M29,34.33h-.09S28.91,34.36,29,34.33Z"/><path class="cls-1" d="M28.49,33.64l-.08,0Z"/><path class="cls-1" d="M28.38,33.45c0,.06-.12.2,0,.24l.06,0C28.27,33.69,28.53,33.44,28.38,33.45Z"/><path class="cls-1" d="M29.2,32.42l-.05.14c.09,0,.21-.09.24,0C29.63,32.31,29.19,32.59,29.2,32.42Z"/><path class="cls-1" d="M29.29,32c0,.07.13,0,.19,0S29.37,32,29.29,32Z"/><path class="cls-1" d="M30.22,29.32l.17.13C30.4,29.39,30.33,29.4,30.22,29.32Z"/><polygon class="cls-1" points="29.75 28.11 29.61 28.07 29.74 28.22 29.75 28.11"/><polygon class="cls-1" points="31.15 28.9 31.15 28.94 31.16 28.82 31.15 28.9"/><path class="cls-1" d="M35.06,24.75l-.24-.13C34.84,24.69,35.09,24.86,35.06,24.75Z"/><path class="cls-1" d="M35.65,22c.14,0,.22-.11.09-.16S35.62,22,35.65,22Z"/><polygon class="cls-1" points="30.71 16.18 30.79 16.11 30.67 16.16 30.71 16.18"/><path class="cls-1" d="M32.34,40.15c-.08,0-.24.05-.2.07l.28,0Z"/><path class="cls-1" d="M31.86,40.4a2.47,2.47,0,0,0,.63-.09c-.27,0-.16,0-.48,0,0,0,.08-.05.18-.07-.07,0,.05-.05-.12,0s-.21.11,0,.11A.62.62,0,0,1,31.86,40.4Z"/><path class="cls-1" d="M31.37,42.17h0S31.37,42.17,31.37,42.17Z"/><path class="cls-1" d="M30.81,43l0,0S30.79,43,30.81,43Z"/><path class="cls-1" d="M30.47,43h0S30.45,43,30.47,43Z"/><path class="cls-1" d="M31.37,42.17h-.1C31.36,42.2,31.34,42.18,31.37,42.17Z"/><path class="cls-1" d="M32.58,40.57h0Z"/><path class="cls-1" d="M31.23,41.68h0l-.12,0Z"/><path class="cls-1" d="M31.22,41.35s.23,0,.34,0l-.17,0Z"/><path class="cls-1" d="M31.63,40.79h0Z"/><path class="cls-1" d="M31.14,41.91l-.08,0Z"/><path class="cls-1" d="M32,39l0,0Z"/><polygon class="cls-1" points="31.94 40.26 31.93 40.26 31.85 40.38 31.94 40.26"/><path class="cls-1" d="M30.06,43h0Z"/><path class="cls-1" d="M29.24,42.68c-.18.1-.27.06-.47.19A3.31,3.31,0,0,0,29.24,42.68Z"/><path class="cls-1" d="M32.55,40.58s0,0,0,0S32.56,40.59,32.55,40.58Z"/><polygon class="cls-1" points="28.77 42.87 28.76 42.87 28.75 42.88 28.77 42.87"/><path class="cls-1" d="M30,43.24l0,.11Z"/><path class="cls-1" d="M30.35,43.42l0,0Z"/><path class="cls-1" d="M29.92,43.6s0-.05,0,0v0S29.92,43.56,29.92,43.6Z"/><path class="cls-1" d="M29.75,43.58v.05h0Z"/><path class="cls-1" d="M30.56,38.8c0,.07,0,.14,0,.22C30.57,38.84,30.64,38.78,30.56,38.8Z"/><path class="cls-1" d="M32.45,40.59h.08Z"/><path class="cls-1" d="M30,45.52l-.1,0A.14.14,0,0,0,30,45.52Z"/><path class="cls-1" d="M27.68,40.33l0,0S27.66,40.32,27.68,40.33Z"/><path class="cls-1" d="M29.59,45.49a.89.89,0,0,0,0-.17l0,.06Z"/><path class="cls-1" d="M30.58,39Z"/><path class="cls-1" d="M31.11,38.48c-.08,0-.08.3-.11.48s0-.24,0-.4c-.06.08-.12.37-.16.35a.3.3,0,0,1,0-.13c-.07.25-.17,0-.23.32V39c0,.16,0,.32,0,.43s-.05.2-.06,0c0,0,0-.08,0-.15l0,.09c0-.29,0-.1,0-.32-.06.1-.11.35-.16.26,0-.29.1-.1,0-.35l.07.11c-.06-.46.05,0,0-.46-.11-.08-.11.15-.22.07,0,.16,0,.24,0,.4s-.19-.71-.25-.32c0,.2.05.56,0,.38l0-.33c-.1,0,0,.48-.1.28s.05-.12,0-.16c-.11-.24,0,.2-.05.21l-.08-.29c-.09.07-.14.31-.22.39a.62.62,0,0,0-.09-.26c-.09.18-.29.07-.5,0l.06.26s-.07-.1-.08-.15.06.15.08.25-.1-.11-.11-.19c0,.24,0,.52-.24.35l0-.07c-.13,0,.21.48,0,.32v0c-.2,0-.19.29-.54.11.24.27-.24,0,.12.37-.25-.1-.3-.18-.52-.17-.05,0,.21.24.22.31l-.21-.16.19.22-.28-.15,0,.07a.52.52,0,0,1,.18.08c.07.12-.24,0-.36,0,0,.09.07.17.11.26a.79.79,0,0,1-.16-.15c.2.21-.25-.11-.07.08a.81.81,0,0,1,.18.1c-.16,0-.21.05-.17.14l-.16-.08c-.1.11,0,.29-.06.42a.8.8,0,0,1,.41.12l-.27-.06c.16.07.11,0,.3.1a.76.76,0,0,1-.4-.11l.08.09-.22-.07c.16.06-.3,0,0,.15l-.08,0c0,.15.06.23.06.34.23,0,.17.07.36.12-.08.07-.27.15-.25.24s.2,0,.34.06c-.22,0-.2.09-.36,0a.44.44,0,0,0,.24.27.88.88,0,0,1,.2,0s-.09.06-.19.07h0c.34.09-.58.47-.1.51h0l.26.07c0,.07-.17,0-.29.09.4,0,0,.24.3.27-.55.34.17.29-.12.59l.13-.08c.14,0-.06.08-.07.12s.1-.11.18-.13c.29.14.15.62.31,1,.07.11.58-.55.45-.19l-.22.2c.39-.12.39.3.77.16,0,.06-.08.13-.1.12,0,.21.19.1.24-.06,0,0-.05.14-.05.23s.21-.2.18,0a.21.21,0,0,1-.05.07c.06-.09.16.07.18-.17.07.14.2-.06.25.1.07-.26.14.15.19-.23,0,.39.15.33.2.15,0,.11.06.12,0,.28.08,0,.13-.08.1-.28.19.45.18-.39.36.17.07-.1.12-.2.17-.28l.19-.32c.16.36-.14.12,0,.49.12-.22,0-.56.2-.56s.07.15.09.22c.05-.23.29-.17.26-.43a.23.23,0,0,1,.05.1s.08,0,0-.14l0,.06c-.2-.16-.3-.46-.39-.55.32.38.16,0,.58.48a.43.43,0,0,0-.14-.18s.09,0,.18.15c0-.13-.18-.23-.13-.28l.15.16c-.1-.13-.21-.26-.12-.26s.09.07.08.08-.24-.39-.06-.38c.28.24.12,0,.38.22l0-.11-.14-.06s-.14-.21,0-.18l.09.1v-.11l-.13,0c-.11-.13-.34-.22-.24-.22s0,0,.2,0h0c-.08-.07-.16-.14-.08-.13s.31.18.37.21c-.22-.15,0-.14-.25-.3a1.47,1.47,0,0,0,.24.13l-.19-.12a.73.73,0,0,1,.22.09c.07,0-.37-.16-.17-.15a.22.22,0,0,1,.06.05c.12,0-.06-.2.07-.21.3.11,0,.09.3.17,0-.12-.27-.35-.16-.42h0c-.42-.17.24,0,0-.11l.19.07c.09,0-.06-.17-.17-.31l.11.05c.11,0,.09-.09.15-.12a.88.88,0,0,0-.25-.09c.68,0-.3-.32.26-.33l.1,0-.09-.12c-.2,0-.12,0-.27,0s-.2-.06-.2-.09a.9.9,0,0,0,.43,0l-.19,0c.35,0-.39,0-.15-.09h.1c-.05,0-.18-.07-.15-.09.23,0,.1,0,.29.06,0,0-.43-.12-.19-.13l.12.06c.27,0,.2,0,.25,0h0l.13-.06h-.08c-.59-.08-.1-.11-.49-.19a1.36,1.36,0,0,0,.47,0,.62.62,0,0,1,.23,0c-.21,0,.17-.06-.14-.1.08,0,0,0,.21,0-.06,0-.14,0-.24,0-.29,0,.34-.17-.06-.25-.17-.07-.45-.06-.6-.11a.92.92,0,0,1,.31,0c.12,0,.09-.08,0-.11a.64.64,0,0,0,.22,0s-.3,0-.18,0l.33,0c-.08,0-.24,0-.32-.07a1.18,1.18,0,0,1,.32,0,.5.5,0,0,0-.38-.06l-.08,0a1.07,1.07,0,0,1,.24,0c.19,0-.07.07-.15.08h-.06c-.48.1.1.08.08.14l-.36,0h.3a.87.87,0,0,1-.34,0c-.17.06.13,0-.06.07h-.06l.1,0c-.07,0-.25,0-.2,0-.2.08.28.07,0,.12h0c.13.07.26,0,.57,0l-.64.08h.26a.32.32,0,0,1-.13,0c.18,0,.11,0,.28,0-.24,0,.12.11-.3.12.2,0,.15,0,.29,0-.44,0,.08.05-.13.08s-.11,0-.31,0c.39,0-.09.07,0,.09.31,0,.13.08.23.13-.11,0-.18.08-.29.11h-.06c.31,0,.25.08.31.13a1.53,1.53,0,0,1-.34-.08v0a.55.55,0,0,1,.18.07l-.23,0s.26.12.09.15A2.81,2.81,0,0,1,32,42l-.36-.08s.09,0,0,0l-.19-.06c-.09,0,.16.05.14.07s-.12,0-.25,0,.07,0,0,0a.69.69,0,0,1-.27,0,.49.49,0,0,1,.24.07s-.2,0-.29,0c.11,0,0,0,.23.09l-.18,0c.1,0,0,.1.27.15h0c.22.15-.19.11-.1.21l-.08,0c.08.08,0,.11.18.21a.79.79,0,0,1-.25-.07s.13.09,0,.08-.13,0-.09-.07-.21,0,0,.1c-.19-.1-.26-.08-.21,0l.15,0s0,0,0,0l-.25-.13c-.34-.09.46.39-.08.18.17.11.14,0,.34.16a4.38,4.38,0,0,1-.43-.14c-.16,0,.33.24.21.24a1.15,1.15,0,0,1,.38.27,1.33,1.33,0,0,1-.44-.25s0,0,.06,0a.39.39,0,0,0-.16-.12l.09.06c-.1,0-.12,0-.25-.09a.35.35,0,0,0,.19.11c-.15,0-.05.06-.15,0,.05,0,.15.09.14.1s.14.13.15.2c-.15-.07-.29-.22-.22-.11a1.05,1.05,0,0,1-.28-.22c.13.16-.14,0-.18,0L30,42.88s0,0,0,0l.17.12a.15.15,0,0,1-.11-.06c.09.1.27.21.39.35-.09-.05,0,.11-.16-.06.1,0-.21-.17-.21-.23s0,0,0,0L30.06,43c-.2-.13.22.22.19.24l-.18-.18s.18.18.25.27c-.09-.07.05.08,0,.08l0,0a.33.33,0,0,1,.09.17c-.08-.1,0-.08-.08-.12.15.23-.21-.18-.11,0a3.39,3.39,0,0,1-.21-.29c.09.18-.12-.17-.05,0a1.41,1.41,0,0,1,.17.32s0-.1,0-.15a2.39,2.39,0,0,1,.13.28s0-.14,0-.11a1.28,1.28,0,0,0,.15.25c-.18-.25.05.19-.08,0l-.24-.46c-.11-.2.08.27,0,.16l.05.08c0,.14,0,.11,0,.1s0,0,0,0a3.12,3.12,0,0,0-.11-.33c0,.12,0,0,.05.33L30,43.46c0-.09,0,.5,0,.44a4,4,0,0,1,0-.44s0,0,0,.08c0-.1,0,.24,0,.07,0,.08,0,.26,0,.25v-.09c0,.09,0,.11,0,.31,0-.54-.16,0-.13-.45,0,0-.09.09-.12.09s0-.08,0-.06c0-.16-.18.46-.17.27s.07-.13.1-.23c.2-.52-.08,0,0-.26l0,0c.07-.17-.13.17-.15.11l.05-.07a.78.78,0,0,1-.37.31,1.39,1.39,0,0,0,.21-.27s-.2.3-.28.32a3.3,3.3,0,0,1,.25-.39h0c.17-.25,0,0,0-.07l.09-.1c-.06,0-.29.25-.32.19l-.07.08c-.26.2.12-.16-.08,0l.24-.24a1.43,1.43,0,0,1-.38.17l.47-.27s-.06,0-.2.07c0,0,.1-.06.07,0-.22.15-.35.2-.37.15.53-.38.06-.19.48-.49-.25.07,0-.15,0-.19-.45.23,0,0-.5.2,0,0,0,0,0,0L29,42.7c.14-.07.11,0,.22-.07s.2-.09.33-.15c-.18.06-.26.07-.2,0l-.22.11c-.28,0,.4-.17.13-.14l.16,0c-.1,0,0-.07-.43,0l.24,0c.05-.06-.47-.08-.21-.16h.12s-.24,0-.11,0h.14c-.05,0-.23,0-.16,0h.15c.16-.06-.35-.09-.44-.16a2,2,0,0,0,.57,0h.05c.05,0-.3-.14-.42-.25.4.06.2-.08.43-.06a1.69,1.69,0,0,1-.3-.13c.08,0-.22-.15.09,0h0c.31.13.24.07.25.06l-.4-.21c.6.27-.11-.28.4,0-.09-.07-.07-.09-.15-.17l.19.15c.07,0,.09,0,.08,0l.12.12s-.47-.51-.46-.55l.26.26c0-.05.27.18.1-.11a.63.63,0,0,1,.1.14s.2.16-.08-.25c.18.27.06,0,0-.14l.12.21a1.31,1.31,0,0,1-.18-.45s.1.17.06.12c.09.1-.08-.21,0-.12l.06.14s0-.07-.06-.24.09,0,.18.23c-.05-.12-.1-.29-.06-.24a.33.33,0,0,1,.05.14c.11.14,0-.29.1-.08l.06.13c-.05,0-.08,0-.09,0a4.49,4.49,0,0,1,.21.53C30,41,30,40.65,30,40.74l0,.07v0s0,0,0,0,0,.06,0,.06c0,.17.06.08.07.09-.06-.23,0-.2-.09-.39,0,0,0,0,0,0v0l0,0c0-.13,0-.23,0-.11L30,40.14c.11.32.19.49.24.69a1.16,1.16,0,0,0,.07-.56c0-.06,0,.13.05.2s0,0,0,.1c0-.12.08,0,.07-.37.05.14,0,.29.05.24v.09c.1.5.18-.81.29-.15v-.12c.1.29.36-.22.39.26,0,.09.07-.1.14-.24l-.07.25.14-.27c.14-.18-.13.63.09.27l.06-.16s.13,0,0,.12c0,0,.09-.15.06-.07l-.06.12.17-.17c0,.11-.27.47-.23.52a2.43,2.43,0,0,0,.31-.38.59.59,0,0,1,.09-.2l.07-.05a3.5,3.5,0,0,0,.53-.94l-.19.17.07-.18.06,0c.06-.17,0,0-.12,0a.56.56,0,0,0,.08-.21l-.24.3c.06-.14.17-.25.16-.36-.11.14-.13.33-.23.41.05-.18.12-.31,0-.19a.46.46,0,0,1,.11-.18c-.09.1-.12,0-.22.19.06-.22-.13,0,0-.34a.8.8,0,0,1-.2.25c.21-.4-.11-.06.06-.51-.18.36-.23.11-.37.31,0,0,0-.09,0-.07s0-.16,0-.25a2.9,2.9,0,0,1-.24.58c0-.33.11-.37.15-.68-.05.26-.15.24-.17.47a1.25,1.25,0,0,1,0-.38c-.08.41-.06.07-.13.32,0-.22,0-.4-.05-.28A.46.46,0,0,1,31.11,38.48Zm-1.55.85h0l0,0Zm-.12,0a.07.07,0,0,0,.06,0,.4.4,0,0,1,0,.16A.39.39,0,0,0,29.44,39.37Zm.69,1.53s0,0,0,0,0,0,0,0v0Z"/><path class="cls-1" d="M30.07,40.59v0l0,0,0,.08Z"/><path class="cls-1" d="M31.41,42.17h0Z"/><polygon class="cls-1" points="27.67 40.13 27.72 40.16 27.69 40.12 27.67 40.13"/><path class="cls-1" d="M32.33,41.78h0Z"/><path class="cls-1" d="M32.41,41.52l.08,0Z"/><path class="cls-1" d="M32.53,41.31h0Z"/><path class="cls-1" d="M31.42,44.63s0,0,0,0S31.43,44.67,31.42,44.63Z"/><path class="cls-1" d="M31.65,43.43l.08.09S31.76,43.5,31.65,43.43Z"/><polygon class="cls-1" points="29.99 45.52 29.99 45.52 29.98 45.52 29.99 45.52"/><path class="cls-1" d="M31.7,43.55c.05,0,.05,0,0,0S31.68,43.52,31.7,43.55Z"/><path class="cls-1" d="M32.57,40.37h0Z"/><path class="cls-1" d="M32.54,40.36h0Z"/><path class="cls-1" d="M32.45,40.35h.06S32.51,40.34,32.45,40.35Z"/><path class="cls-1" d="M32.5,40.67h0Z"/><path class="cls-1" d="M32.54,40.76s.18-.08.12-.1h-.07C32.72,40.66,32.39,40.75,32.54,40.76Z"/><path class="cls-1" d="M31.48,41.14l.07-.06c-.09,0-.22,0-.24,0C31,41.16,31.52,41.06,31.48,41.14Z"/><path class="cls-1" d="M31.35,41.3c-.05,0-.14,0-.19,0A.31.31,0,0,0,31.35,41.3Z"/><path class="cls-1" d="M31.11,42.47l-.21-.08S31,42.42,31.11,42.47Z"/><polygon class="cls-1" points="32.04 43.16 32.17 43.19 32 43.1 32.04 43.16"/><polygon class="cls-1" points="30.58 42.6 30.55 42.58 30.61 42.64 30.58 42.6"/><path class="cls-1" d="M29.82,43.38l0,.27A1.1,1.1,0,0,0,29.82,43.38Z"/><path class="cls-1" d="M29.25,43.35c.09-.11.14-.18,0-.09S29.22,43.36,29.25,43.35Z"/><polygon class="cls-1" points="29.35 41.51 29.42 41.56 29.36 41.51 29.35 41.51"/></svg>