<svg id="Capa_1" data-name="Capa 1" xmlns="http://www.w3.org/2000/svg" viewBox="0 0 120.03 132.8"><defs><style>.cls-1{fill:#f0d44f;}.cls-2{fill:#566572;}</style></defs><path class="cls-1" d="M87.61,48.78a1.13,1.13,0,0,1,0-.83,1.23,1.23,0,0,0,0-.78c-.2-.93-.39-1.87-.58-2.8a.92.92,0,0,1,0-.55,4.67,4.67,0,0,1,.31.78c.06.25.11.5.41.63a6.31,6.31,0,0,0-.37-1.35,2.86,2.86,0,0,0-.53-1.22c0,.06-.09.09-.1.13s-.09.33-.27.36-.24-.15-.32-.28l-.49-.8c0-.07-.08-.15-.18-.14s-.29-.15-.36-.32-.12-.46-.31-.54a.8.8,0,0,1-.4-.5,9,9,0,0,1-.35-1.36c0-.07,0-.17,0-.21.26-.13.08-.29,0-.36a3.26,3.26,0,0,1-.62-1.09,1.48,1.48,0,0,0-.27-.43,9.29,9.29,0,0,1-.7-1.37.72.72,0,0,1,0-.21c0-.06,0-.14.07-.11s.16,0,.09-.1c-.23-.45-.47-.9-.69-1.36a.42.42,0,0,1,0-.47c.18,0,.18.26.34.31,0-.1,0-.18,0-.24a6,6,0,0,0,.31-.84s.07-.08.09-.07c.22.07.33-.18.51-.22s.17,0,.17-.17a.26.26,0,0,0-.18-.26.68.68,0,0,0-.4,0,.59.59,0,0,1-.62-.19c-.11-.11-.18-.28-.34-.34-.1.22.15.38,0,.63-.19-.4-.38-.76-.56-1.13a.54.54,0,0,0-.36-.3.66.66,0,0,0-.74.24c-.24.27-.37.23-.53-.08a3.82,3.82,0,0,1-.24-.55c-.07-.21-.16-.35-.38-.39a.38.38,0,0,1-.31-.35c0-.47-.43-.71-.42-1.16a.09.09,0,0,0-.13-.07.16.16,0,0,0-.08.08.55.55,0,0,0,0,.18c0,.07,0,.16-.06.2s-.16,0-.2-.08a4.21,4.21,0,0,0-.66-.74c-.22-.25-.38-.61-.7-.74a2,2,0,0,1-.89-.95,1.44,1.44,0,0,0-.35-.46.34.34,0,0,1-.18-.39,1.15,1.15,0,0,1,.81.62,5.13,5.13,0,0,0,1,1.19,1.14,1.14,0,0,0-.3-.73c0-.09-.12-.16-.11-.28s.21,0,.18-.18S76.1,26,76,25.77A10,10,0,0,0,74.71,24c-.18-.17-.13-.32.08-.43s.2-.06.19-.2a.27.27,0,0,0-.15-.28,1.56,1.56,0,0,0-.41-.15c-.12,0-.11-.11-.06-.2s.17-.15.27-.2a2.53,2.53,0,0,1,1.07-.24l.32,0c.07,0,.14,0,.14-.13A.12.12,0,0,0,76,22a2.16,2.16,0,0,0-.84,0,.94.94,0,0,1-.7,0c.3-.23.66-.13,1-.26a.39.39,0,0,0-.34-.08,6.5,6.5,0,0,1-1.08-.13.18.18,0,0,1-.17-.2c0-.15.12-.14.21-.15a2.81,2.81,0,0,1,.29,0l1.24,0c.09,0,.19.05.25-.09s-.16-.07-.24-.08a1.7,1.7,0,0,1-.4,0,2.75,2.75,0,0,0-.94-.18,1,1,0,0,1-.74-.26.77.77,0,0,0-.58-.22l-1.17-.07c.13-.31.4-.14.54-.29a1.15,1.15,0,0,1,0-.31c0-.1.2,0,.18-.22a4.43,4.43,0,0,0-.73-.11c-.2,0-.46,0-.48-.32,0-.06-.07-.08-.13-.08a2.71,2.71,0,0,1-.73-.19,8.37,8.37,0,0,0-1-.05.54.54,0,0,1-.4-.15c0-.06-.15-.1-.12-.2s.14-.11.23-.14.16.07.22,0c0-.49,0-.49-.46-.57-.1,0-.21,0-.27-.15l.12-.05c.38-.11.81,0,1.1-.45,0,0,.08,0,.12-.05a1.92,1.92,0,0,1,.89-.27c.07,0,.18,0,.17-.16a1.58,1.58,0,0,0-.86.1,1.4,1.4,0,0,1-.6.12c-.29,0-.59,0-.88,0a2.22,2.22,0,0,1-.8-.19,1.61,1.61,0,0,1,.73-.16,5.84,5.84,0,0,0,1.17-.14.09.09,0,0,0,.07-.09c0-.14-.22,0-.24-.22.31-.06.61,0,.92,0s.59,0,.88,0,.57.16,1,0l-.25-.11a9.3,9.3,0,0,0-1.81-.33A5.11,5.11,0,0,1,69,15.33a4.94,4.94,0,0,0-1.79-.21.76.76,0,0,1-.47-.07,1.08,1.08,0,0,0-.58-.13l-.88-.05c-.3,0-.5-.23-.73-.39a.16.16,0,0,1,0-.2c.17-.3-.07-.27-.19-.26a1.26,1.26,0,0,1-.9-.25,1.57,1.57,0,0,0-.3-.12,1.35,1.35,0,0,1-1-.91.6.6,0,0,0-.37-.36c-.2-.08-.2.15-.28.25s0,0,0,0c-.32,0-.61.2-.93.23-.11,0-.18,0-.16-.18s-.12-.33-.32-.34a.43.43,0,0,1-.23,0c-.33-.2-.71-.24-1-.43a.29.29,0,0,0-.33-.05c-.08.12.11.17,0,.3l-.14,0c-.41,0-.73-.25-1.1-.37l-.33-.13a.23.23,0,0,0-.26.1.27.27,0,0,0,.06.32.9.9,0,0,0,.2.14,3,3,0,0,0,.7.29,2.51,2.51,0,0,1,1.38.7.39.39,0,0,0,.11.06A20.34,20.34,0,0,1,62,14.84c.06,0,.16,0,.13.19A.41.41,0,0,1,61.7,15c-.05,0-.1-.07-.17,0a1.06,1.06,0,0,1-.86.25c-.06,0-.13,0-.1-.17.31,0,.44-.25.6-.53a1.75,1.75,0,0,0-.67,0,2.47,2.47,0,0,1-1.15-.09,3,3,0,0,0-1.1-.23,1,1,0,0,1-.62-.12.54.54,0,0,0-.49-.1.57.57,0,0,1-.52-.11c.31-.16.62-.09,1-.3-.66-.07-1.22-.09-1.8-.11a1.58,1.58,0,0,1,.58-.26l.87-.27c.07,0,.18-.05.17-.16s-.14-.08-.23-.08-.32.08-.48.09a7.15,7.15,0,0,0-1.76.31,4.32,4.32,0,0,1-1.12.2,1.62,1.62,0,0,0-.44.07c-.22.09-.38.1-.46-.2s-.63-.38-.73-.19c-.2.38-.39.2-.64.14a.69.69,0,0,1,.47-.32c.11,0,.23-.07.22-.22s-.09-.34-.21-.32-.31-.19-.51-.18a4.07,4.07,0,0,0-.6.06c-.05,0-.11,0-.11-.09.3-.15.59-.38.95-.23.13.06.27,0,.44-.18a9.67,9.67,0,0,0-3.05.29,6.75,6.75,0,0,1,.68-.42,1.77,1.77,0,0,1,.94-.27,12.47,12.47,0,0,1,1.37,0,1.44,1.44,0,0,0,.4-.06c.08,0,.17,0,.16-.15s-.09-.14-.18-.14-.17.07-.26,0c.39-.25.77,0,1.13-.16a.26.26,0,0,1,.12,0,.17.17,0,0,1,.13.19.17.17,0,0,1-.16.17c-.14,0-.29,0-.41.13a1.14,1.14,0,0,0,.71.37.25.25,0,0,0,.28-.12c.13-.18.16-.17.22.09,0,.09.08.11.14.13.34.12.47.07.79-.34-.28,0-.46-.12-.71-.24a3.43,3.43,0,0,0,2.57-.73,1.06,1.06,0,0,0-.64,0,5.56,5.56,0,0,1-1.28.18,1.29,1.29,0,0,1-.92-.21c-.08-.05-.14-.15-.24-.14a9.58,9.58,0,0,0-1.2,0,6.77,6.77,0,0,1-1.68.05A11.29,11.29,0,0,0,49,10.3a1.4,1.4,0,0,1-.64.06.81.81,0,0,0-.59.05l-.58.21c-.15.06-.29.11-.43,0a.33.33,0,0,0-.38,0,10.54,10.54,0,0,1-2.06.73.17.17,0,0,0-.15.14c.13.08.13.26.25.37s.11.41-.15.5l-.55.19a10.81,10.81,0,0,0-1.32.45c-.27.13-.55.21-.83.32a1.31,1.31,0,0,1,.75-.63,4.4,4.4,0,0,0,.73-.4.24.24,0,0,0-.23,0c-.35.08-.66.3-1,.36a5.61,5.61,0,0,0-1.25.57.46.46,0,0,0-.28.36l.14,0c.07,0,.17,0,.21.06s0,.2-.12.27a.31.31,0,0,1-.26.11,1.21,1.21,0,0,0-.71.14c0-.16.15-.36-.12-.27-.06,0-.13.07-.19,0s.31-.1.37-.36l-.79.32c-.06,0-.13.1-.12.17s-.15.27-.19.39.09.09.14.1.17,0,.18.12-.08.19-.18.22a.88.88,0,0,1-.59.06c-.36-.16-.59.13-.86.29-.05,0-.1.08-.08.14.07.31,0,.34-.26.22a.46.46,0,0,0-.54.35c0,.11.1.23,0,.31a.6.6,0,0,1-.3.12,2,2,0,0,0-.63.18c-.25.07-.29.21-.15.45a.15.15,0,0,1,0,.17c-.13.08-.32.28-.42.2-.3-.21-.42.07-.59.23a1,1,0,0,1-.28.18,1.36,1.36,0,0,0-.47.29,6.9,6.9,0,0,1-1.17.86,1.22,1.22,0,0,0-.67.84c.22-.13.4-.3.62-.13s.18,0,.26-.1a.91.91,0,0,0,.28-.39,1.14,1.14,0,0,1,.45-.54c0,.1,0,.18,0,.26.08.45.29.55.65.3a4.42,4.42,0,0,0,.53-.44,5.72,5.72,0,0,1,1.36-.85c.07,0,.14,0,.17.06a.18.18,0,0,1-.06.19,1.4,1.4,0,0,1-.42.18c-.2.09-.39.17-.35.47,0,.15-.11.21-.21.25-.29.13-.58.26-.88.37a1.12,1.12,0,0,0-.46.29.23.23,0,0,0-.08.2c0,.1.12.08.2.08s.34-.16.55-.13c-.25.34-.38.44-.66.45a1.13,1.13,0,0,0-.32.06,6.43,6.43,0,0,0-1.63,1,.69.69,0,0,0-.3.61.55.55,0,0,1-.27.6L30.7,23a.08.08,0,0,1-.11,0c-.06-.11.14-.2,0-.32a1.74,1.74,0,0,0-1,.73c0,.07-.12.15-.06.24s.16.07.25,0,.23-.23.41-.28c-.29.55-.76.87-1,1.38a5.33,5.33,0,0,1,.84-.81l.89-.76.92-.78c.3-.25.6-.49.91-.72s.48-.59.85-.67c-.22.29-.47.55-.7.84a2.25,2.25,0,0,1-.52.45,6.88,6.88,0,0,0-1.75,1.66,11.53,11.53,0,0,1-1.27,1.51,2.15,2.15,0,0,1-.5.4,3,3,0,0,0-1.05.88,1,1,0,0,1-.44.41,2.73,2.73,0,0,0-1.34,1.28,1.4,1.4,0,0,1-.38.42,1.88,1.88,0,0,0-.5.44s-.05.08-.09.07c-.21-.09-.32.12-.45.23a5.86,5.86,0,0,1-1,.89,1.58,1.58,0,0,0-.7.77c-.05.08-.11.15-.16.22-.4.61-.92,1.1-1.37,1.66a1.15,1.15,0,0,1-.73.55c0-.07.06-.15,0-.25-.12.17-.3.31-.21.57,0,.1,0,.2-.07.21s-.28.24-.45.3-.27.26-.33.46c.12,0,.14-.11.28-.07a5.18,5.18,0,0,0-.5,1.1,1,1,0,0,1-.36.44.37.37,0,0,0-.21.26,1.08,1.08,0,0,1-.31.47c-.11.12-.25.23-.19.43s.22.15.35.21.2,0,.28-.08l.34-.39c.09.16-.11.26-.07.33s.44-.27.48.19c0,0,.07,0,.1,0a.21.21,0,0,0,.05-.21c-.11-.27.05-.42.22-.56a2.43,2.43,0,0,0,.54-.76,6.13,6.13,0,0,1-.85.46.46.46,0,0,1,.16-.41l1.24-1.49a.34.34,0,0,1,.09-.08h.08c0,.39.25-.12.33.07s-.2.32-.26.51a8.69,8.69,0,0,1-.58,1.36,3,3,0,0,1-1.23,1.36c-.1.05-.12.15-.17.24-.22.46-.41.93-.67,1.36l-.36.57c0,.07-.12.16,0,.23s.07.36,0,.49c-.27.35-.42.79-.69,1.14s-.28.49-.46.7-.1.14,0,.2.14,0,.19-.1l.48-.85c.08-.13.13-.29.28-.35.12.16,0,.38.14.51s.09,0,.1-.07A3.89,3.89,0,0,0,18.79,41,.87.87,0,0,1,19,40.6c.11-.17.21-.36.31-.54a.46.46,0,0,0,.06-.44.73.73,0,0,1,.13-.64l.42-.57c.05-.06.09-.17.23-.07-.15.45-.28.93-.46,1.38s-.24,1-.4,1.42-.26,1-.39,1.44-.23,1-.35,1.45a7.42,7.42,0,0,1-.27,1.42c-.15,0-.07-.18-.22-.15a2.21,2.21,0,0,0-.26.87,1.85,1.85,0,0,1-.29,1.06A2.69,2.69,0,0,0,17,48.34a.55.55,0,0,1-.16.31c-.26.27-.25.28-.12.64h0A10.16,10.16,0,0,0,17.38,48a3.25,3.25,0,0,1,.46-.91,1.38,1.38,0,0,0,.32-.52,1.58,1.58,0,0,1,0,.61c0,.45,0,.9-.08,1.35s.12.57.1.88a10.41,10.41,0,0,0,.08,2.79c.12.65.09,1.34.19,2a7.35,7.35,0,0,0,.21,1.44c.16.45,0,1,.31,1.39a22.67,22.67,0,0,0,.92,3,2.16,2.16,0,0,0,.16.49,4.74,4.74,0,0,0,.84,1.14.62.62,0,0,1,.2.67,6.6,6.6,0,0,0-.14.89c0,.11-.05.23.06.33.13-.13,0-.36.21-.51.13.25.25.48.36.72A2,2,0,0,1,22,65.07a.32.32,0,0,0,0,.13,2.86,2.86,0,0,1,.08.83,13.23,13.23,0,0,0,0,1.89.27.27,0,0,1,0,.09,5.16,5.16,0,0,0,0,1.11,3,3,0,0,1,0,.89.78.78,0,0,0,.14.66.64.64,0,0,1,0,.7,1.67,1.67,0,0,0-.15,1,8.08,8.08,0,0,0,.45,1.82.8.8,0,0,1,.05.47c-.13-.35-.42-.48-.46-.78-.07-.49-.23-.94-.29-1.43a1,1,0,0,0-.3-.73.22.22,0,0,1-.09-.19,3.77,3.77,0,0,0-.23-.83c-.08-.4-.15-.79-.26-1.18-.06-.22-.06-.47-.13-.69a2.21,2.21,0,0,1,0-1.6c0-.07,0-.12,0-.15s-.17-.27-.18-.44a1.16,1.16,0,0,0-.15-.51,7.62,7.62,0,0,0-.07,1.9,19.08,19.08,0,0,1,.13,3.55,16.23,16.23,0,0,0,.21,3.56c.14.22.27.44.41.65a1.38,1.38,0,0,1,.28.52s0,0,0,.08-.22-.12-.35,0a2.79,2.79,0,0,1,.31.88.47.47,0,0,0,.28.35A2.27,2.27,0,0,1,22.77,79c0,.08.09.15,0,.23-.17-.09-.16-.35-.34-.45a.68.68,0,0,1-.37-.42c-.05-.13-.29-.13-.32,0a.23.23,0,0,1-.05.13c.11.29.21.58.33.86a.7.7,0,0,1,.36.44,1.77,1.77,0,0,0,.32.59.66.66,0,0,1,.13.64l-.13-.14a43.22,43.22,0,0,0,4.19,6.72.6.6,0,0,1,.3.17c.26.33.7.42.9.81a.17.17,0,0,0,.1.07c.3.11.53.39.88.37a.15.15,0,0,1,.15.12c.08.34.26.22.45.12,0-.13-.15-.17-.15-.28h0a.19.19,0,0,0,.24-.12c.12-.36.36-.3.6-.26s.33.1.5.13.21,0,.24-.09-.07-.13-.14-.17a.66.66,0,0,1-.39-.51.59.59,0,0,1,.24.23.25.25,0,0,0,.23.15,2,2,0,0,1,.86.28.61.61,0,0,1,.4.45.58.58,0,0,0,.29.34l1.2.74a1.28,1.28,0,0,1,.45.42.31.31,0,0,1-.3,0l-.72-.36c-.28-.13-.32-.1-.31.24s0,.3-.29.22l-.68-.23a.17.17,0,0,0,.1.18,8.48,8.48,0,0,1,1.35,1.11,3.43,3.43,0,0,0,1,.85,4.25,4.25,0,0,1,1.11.79c-.7-.16-1.29-.69-2.09-.75.24.5.76.57,1,1-.27.43-.46.5-.84.28a1.47,1.47,0,0,0-.7-.25.4.4,0,0,0,.2.26,9.2,9.2,0,0,0,.93.49,4.24,4.24,0,0,1,1.61,1,.68.68,0,0,0,.61.18c0-.19-.18-.2-.21-.38a2.7,2.7,0,0,1,1.1.54,3.22,3.22,0,0,0,1.64.9,2.6,2.6,0,0,1,.47.16,1.77,1.77,0,0,0,1.44.15,1.11,1.11,0,0,1,1.09,0l.08,0c0-.13-.11-.18-.2-.23a2.88,2.88,0,0,0-.81-.23,2.46,2.46,0,0,1-.94-.33,3.36,3.36,0,0,0-.94-.44c-.73-.22-1.47-.41-2.2-.64a2.49,2.49,0,0,1-.91-.38,1.82,1.82,0,0,1,.7.08.14.14,0,0,0,.15,0c.05-.09,0-.13-.07-.17s-.14,0-.06-.18a16.78,16.78,0,0,1,1.7.54c.58.17,1.15.37,1.71.56a13.26,13.26,0,0,1,1.71.49.32.32,0,0,1-.34.09l-.4,0s-.12,0-.14.06,0,.14.08.17a1.05,1.05,0,0,0,.43.11l.78.15a.15.15,0,0,0,.19,0c0-.1,0-.16-.08-.22S42,96,42,95.8c.32.19.63.1.87.27a.88.88,0,0,0,.61.16,4.3,4.3,0,0,1,1.33.26c.06,0,.17.05.17.09,0,.27.24.27.41.34a.18.18,0,0,1,.12.21.35.35,0,0,1-.26-.06,1.63,1.63,0,0,0-.65-.19c-.17,0-.34-.11-.43.18,0,.09-.14.07-.22.09s-.26,0-.42.11a2.27,2.27,0,0,0,2.24.5c.18-.08.33-.16.38-.39a.37.37,0,0,1,.29-.29A5.74,5.74,0,0,1,48,96.93a2.34,2.34,0,0,0,1.23,0,11.83,11.83,0,0,0-1.58-.26c.16-.36.49-.27.72-.43a5.45,5.45,0,0,0-1.17-.61c-.41-.17-.81-.35-1.23-.48a1.93,1.93,0,0,1-1.11-.85c.35.18.6.43,1,.34-.08-.19-.29-.09-.39-.3a3.3,3.3,0,0,1,1.41-.23c.42.1.85.14,1.27.22a.77.77,0,0,1,.63.55c.06.34.24.36.46.39a5.2,5.2,0,0,1,.68.06c.33.08.78-.15,1,.34a2.55,2.55,0,0,0,1.06.15c.07,0,.15,0,.17-.1.07-.26.25-.25.42-.24s.16,0,.12-.15.08-.11.14-.13a2,2,0,0,1,.63-.13.3.3,0,0,0,.3-.1.78.78,0,0,1,0,.77,5.38,5.38,0,0,0,.93-.11c.14,0,.38,0,.39.08,0,.28.2.2.32.2A3,3,0,0,0,57,95.6a.39.39,0,0,1,.19-.06,2.34,2.34,0,0,0,1-.4l.23-.1,2.32-.73c.1,0,.21,0,.31-.06a.7.7,0,0,1,.71-.34,4.18,4.18,0,0,0,.94-.13c.33-.07.34-.07.28.31,0,0,0,0,0,.08.13.31.13.3.42.22a6.75,6.75,0,0,1,.76-.14s.06,0,.08,0c.3.26.64,0,1,0a.13.13,0,0,1,.13.07.66.66,0,0,1-.51.29,8.61,8.61,0,0,0-1.39.36c-.07,0-.17,0-.16.16s.08.1.14.13a1.1,1.1,0,0,0,.4,0c.07,0,.18,0,.18.11s-.09.14-.16.18a.75.75,0,0,1-.54.16,3.71,3.71,0,0,0-1.68.23c-.6.16-1.2.25-1.8.4l-.31.09c.57.25,1.19,0,1.79.08a18.88,18.88,0,0,1-2.69.9c-.66.19-1.33.31-2,.47-.14,0-.3,0-.41.21a.67.67,0,0,0,.42,0c.59-.13,1.18-.24,1.76-.39,1.31-.34,2.61-.77,3.9-1.2.11,0,.22-.1.35,0-.39.21-.8.27-1.17.45a5.78,5.78,0,0,0-1.2.55.68.68,0,0,0,.53,0,2.66,2.66,0,0,1,.91-.2,1.36,1.36,0,0,0,.48-.12c.25-.09.49-.28.78-.21.06,0,.13,0,.18-.09a.61.61,0,0,1,.52-.2.36.36,0,0,0,.39-.27.43.43,0,0,1,.33-.3,5.06,5.06,0,0,0,1.77-.84.39.39,0,0,1,.11-.06c.61-.38,1.29-.58,1.91-.95a1.53,1.53,0,0,1,.52-.27c.35,0,.53-.3.76-.49,0-.16-.19.07-.23-.1.6-.5,1.27-.85,1.9-1.29.17-.11.35-.27.55-.08s.14,0,.16-.08.15-.19.1-.28c-.24,0-.46,0-.67,0s-.36.25-.66.23a7.66,7.66,0,0,1,1.05-.86c.16-.09.29-.24.47-.06s.18,0,.26-.08l1-.65a.7.7,0,0,1,.83-.1.2.2,0,0,0,.29,0,5.43,5.43,0,0,0,.72-1.05c.07-.14.15-.33,0-.46s-.28,0-.41.07a3.5,3.5,0,0,0-.3.24c-.07,0-.14.11-.2,0a5.73,5.73,0,0,1,1.63-1.39c-.07.25-.33.33-.43.55,0,0,.07,0,.09,0A8.83,8.83,0,0,0,77,86.91a.2.2,0,0,0,0-.08,2.82,2.82,0,0,1,.6-.87c.09-.09.21-.17.16-.33a.07.07,0,0,0-.06,0c-.14,0-.22.12-.28.24a.05.05,0,0,0,0,0c-.18.59-.68.85-1.08,1.34.12-.38.43-.52.52-.85a1.68,1.68,0,0,0-.88.44,1,1,0,0,1-.6.32,4.17,4.17,0,0,1,.37-.36A5,5,0,0,0,77.36,85a.34.34,0,0,1,.13-.18A10.93,10.93,0,0,0,78.73,83c.44-.59.72-1.33,1.19-1.92A.45.45,0,0,0,80,81a7,7,0,0,1,.9-1.43,5.35,5.35,0,0,0,.7-1.49s0,0,0-.06-.21.12-.3.21c-.4.41-.82.79-1.18,1.23a.73.73,0,0,1-.87.28c-.14,0-.19,0-.3.1s-.46.55-.83.54c-.1,0-.17.08-.24.16-.21.23-.42.45-.62.68a7.12,7.12,0,0,1-.73.82c-.09.09-.19.22-.31.08s0-.24,0-.36.15-.17.12-.3-.23.13-.32.22c-.35.34-.67.72-1,1.08a4,4,0,0,0-.67.74c0,.08-.12.16-.2.1s-.37,0-.53.12-.12.19-.24.13a.26.26,0,0,1,.06-.21.86.86,0,0,0,.15-.76c0-.14.08-.25.19-.31a.58.58,0,0,0,.36-.5.24.24,0,0,1,.39-.16c.41.26.56.26.91-.1a23.14,23.14,0,0,0,1.71-1.72A5,5,0,0,0,77.84,79a2.85,2.85,0,0,0-.77.85,5.24,5.24,0,0,1-.51.54c0,.05-.12.11-.18.07s0-.16,0-.24a1,1,0,0,1,.42-.5,2.59,2.59,0,0,0,.59-.64c.21-.34.34-.73.57-1.06.1-.15-.14-.61-.3-.63a.13.13,0,0,0-.14.07l-.16.21a18.5,18.5,0,0,1-1.45,1.83A2.68,2.68,0,0,0,75,80.63c0,.07-.08.12-.13.17a24,24,0,0,0-2,2.23.6.6,0,0,1-.26.22c-.11,0-.17,0-.14-.13a1.28,1.28,0,0,1,.27-.5c.33-.31.62-.68.94-1,.6-.56,1-1.28,1.62-1.84a.66.66,0,0,0,.19-.39c0-.19,0-.26-.2-.19a3.2,3.2,0,0,0-1,.5c-.16.14-.39.17-.49.39-.2.42-.55.45-.9.54,0-.13.09-.13.14-.17a5.13,5.13,0,0,0,.74-.56c.3-.3.55-.72.92-.83s.6-.62,1-.79l0,0a2.29,2.29,0,0,0,1-.93.83.83,0,0,1,.19-.23,1,1,0,0,0,.4-.67.19.19,0,0,1,.16-.18c.12,0,.15.1.19.19s0,.23-.09.33-.18.21-.09.37a.68.68,0,0,0,.52-.31,1.33,1.33,0,0,1,.5-.47,1,1,0,0,0,.29-.32c.26-.42.52-.84.77-1.26a1.2,1.2,0,0,0,.13-.28c0-.16.13-.36,0-.45s-.24.11-.33.22a8.26,8.26,0,0,1-.85,1c-.06,0-.1.16-.2.08s.06-.19.08-.29a1.38,1.38,0,0,1,.44-.9.14.14,0,0,0,0-.11c-.15-.23.07-.35.15-.51a2.83,2.83,0,0,0,.31-.63,1.56,1.56,0,0,1,.46-.8,3.93,3.93,0,0,0,.53-.63,4.24,4.24,0,0,0,.33-.59s0-.2.11-.08.16.05.21,0a1.27,1.27,0,0,0,.12-.7,1,1,0,0,1,.38-.93,1.17,1.17,0,0,0,.4-.56c.05-.14.06-.29.12-.43a2.16,2.16,0,0,0,.39-1.31c.27.29.16.61.12.91a3.72,3.72,0,0,0,.81-1.61,8.25,8.25,0,0,1,.33-1.07.71.71,0,0,1,.23-.41c0,.06,0,.09,0,.11-.2.53-.26,1.11-.5,1.63a.55.55,0,0,0-.06.26,2.37,2.37,0,0,1-.79,1.74c.27.13.27.13.18.4s-.1.25-.14.38a4.56,4.56,0,0,0-.21.79.86.86,0,0,0,.52-.35c.12-.17.23-.34.34-.52a1.06,1.06,0,0,1,.65-.58.45.45,0,0,0,.3-.3c.23-.65.52-1.26.8-1.89A11,11,0,0,1,85.87,61s-.05,0-.07.05l-.24.35c-.09-.11,0-.22,0-.31A10.69,10.69,0,0,0,85.61,60a.92.92,0,0,0-.29-.65c-.09-.1-.19-.09-.26.06s0,.15-.11.17A.84.84,0,0,1,85,59a2.17,2.17,0,0,0,.21-1,1.26,1.26,0,0,1,0-.27s0-.08.09-.05,0,.25.08.34.06-.1.09-.12.16-.33.35-.27,0,.3.13.47a2,2,0,0,1,.11-.25c.06-.14.17,0,.25-.07s.08-.09.09-.14a4.51,4.51,0,0,0,.28-1,.49.49,0,0,1,.1-.34.67.67,0,0,0,.17-.62c0-.12,0-.21.16-.12s.08,0,.09,0,0-.1,0-.11c-.35-.14-.33-.49-.32-.82s0-.49.22-.68a.39.39,0,0,0,.08-.49,1.79,1.79,0,0,1-.11-.69,1.55,1.55,0,0,0,0-.31c0-.1,0-.22-.17-.19s-.11.13-.1.22a.51.51,0,0,1-.19.55.33.33,0,0,1,0-.27,5,5,0,0,1,.37-1c.06-.24.17-.3.35-.2a.12.12,0,0,0,.16,0c0-.16-.06-.27-.11-.4s-.09-.42.07-.53a.77.77,0,0,0,.3-.52c.27.22.08.7.46.9a6,6,0,0,0-.09-.65C87.93,49.86,87.79,49.31,87.61,48.78ZM23.71,40.1a2.1,2.1,0,0,0,.33-.73,1.74,1.74,0,0,1,.24-.47c.1-.13.25-.24.15-.47s.09-.24.17-.33a.76.76,0,0,0,.34-.72.43.43,0,0,1,.09-.25,9.89,9.89,0,0,1,1.16-1.52.78.78,0,0,1,0,.17c-.25.41-.38.88-.61,1.28-.37.65-.58,1.37-.93,2a2.93,2.93,0,0,1-.86,1.26l-.08,0C23.6,40.29,23.65,40.18,23.71,40.1Zm-1.08,1.24c-.1.59,0,1.15-.62,1.51A4.89,4.89,0,0,1,22.63,41.34ZM20.39,53.28a2.79,2.79,0,0,1,.31-1.1,1,1,0,0,0,.12-.33c0-.06,0-.15,0-.16-.34,0-.11-.27-.08-.42s.2-.26.14-.44l-.09,0c-.1.07-.11.29-.26.24s-.12-.25-.1-.39a1.55,1.55,0,0,1,.46-1.07c.14-.11.15-.29.19-.45s0-.33.18-.3.08.24.06.38-.11.27,0,.46a3.47,3.47,0,0,0,.47-1.26,3.66,3.66,0,0,1-.2,1.8A6.36,6.36,0,0,0,21.06,52C21,52.56,20.64,52.88,20.39,53.28Zm11.68,29.4c-.11-.08-.24-.19-.43,0,.18.14.38.24.42.48-.11.11-.19,0-.27,0a1.83,1.83,0,0,0-1.13-.33.24.24,0,0,1-.18-.07,2.37,2.37,0,0,0-.91-.42.73.73,0,0,1-.37-.23c-.43-.45-1-.76-1.36-1.25,0,0-.05,0-.1,0,0,.54.46.69.64,1,0,.07-.09.09-.12.07a9.23,9.23,0,0,1-1.87-1.77,13,13,0,0,1-1-1.79,2.11,2.11,0,0,1-.1-.38.29.29,0,0,1,0-.13c.09-.28.09-.27-.11-.37a2,2,0,0,1-.67-.64l-.18-.24c0,.52.47.7.49,1.23a4.18,4.18,0,0,1-1.08-1.19.2.2,0,0,1,.05-.28c.11-.08.11-.19,0-.22-.46-.14-.52-.63-.7-1a5.37,5.37,0,0,1-.27-.83.19.19,0,0,1,0-.08.49.49,0,0,1,.15-.49c.11-.08.31.06.38.27a3.41,3.41,0,0,0,.37.71,8.82,8.82,0,0,0-.4-1.53c-.1-.51-.21-1-.29-1.54a.56.56,0,0,1,.29.4,5.62,5.62,0,0,0,.27.82c0,.14.05.13.32.22a4.15,4.15,0,0,0-.13-1.18c-.12-.41-.18-.83-.28-1.24a5,5,0,0,1,0-1.55c0-.25.08-.28.25-.16a.57.57,0,0,0,.51.17.14.14,0,0,1,.17.08,1.75,1.75,0,0,1,.42,1,.77.77,0,0,0,.21.55c.38.4.67.89,1.08,1.26.16.15.28.34.51.39s.26.22.37.37,0,.11,0,.15a.21.21,0,0,1-.15,0c-.11,0-.16-.09-.22-.17a8.23,8.23,0,0,0-1.23-1.27c-.15-.12-.37-.38-.5-.24s.1.39.21.53c.37.45.76.88,1.14,1.32a.64.64,0,0,0,.28.15.86.86,0,0,1,.52.42c-.07.19-.24,0-.33.19.47.89,1.15,1.63,1.66,2.52-.38-.42-1-.21-1.37-.58-.12-.11-.3-.07-.49,0a.84.84,0,0,0,.38.84,14.55,14.55,0,0,1,1.06,1,9.37,9.37,0,0,0,1.54,1.13A13.1,13.1,0,0,0,31.72,80c.28.12.43.41.61.66a2.44,2.44,0,0,0,.65.67c.4.26.73.65,1.15.9.08.05.12.16.18.23s.31.43.55.54a.52.52,0,0,1,.19.17c.2.37.48.67.73,1a.25.25,0,0,1-.35,0,1,1,0,0,0-.54-.23,3.72,3.72,0,0,1-.8-.25A10.5,10.5,0,0,1,32.07,82.68Zm6.33,8.7a1.82,1.82,0,0,1-1-.23.62.62,0,0,0-.16,0c0,.27.25.26.37.38s0,.06,0,.05a2.83,2.83,0,0,0-1.33-.4,3.21,3.21,0,0,1-1.48-.57c-.1-.07-.26-.12-.25-.25,0-.31-.18-.39-.38-.49a.78.78,0,0,1,.77.09,3,3,0,0,0,1.48.65l.23.08a.48.48,0,0,0,.18.08c.54,0,1,.45,1.52.36.22,0,.43.2.48.44A.43.43,0,0,0,38.4,91.38Zm1.84-.28c.59-.26,1.08.06,1.6.27C41.26,91.49,40.78,91.15,40.24,91.1ZM39,22.34c-.83.69-1.65,1.38-2.53,2a2.82,2.82,0,0,1-.48.27,8.58,8.58,0,0,0-1.69,1.21l-1.57,1.27,0-.06a13.35,13.35,0,0,0,.9-1.23,5.5,5.5,0,0,1,1.67-1.53,1.08,1.08,0,0,0,.24-.18,5.69,5.69,0,0,1,1.73-1.17,1.32,1.32,0,0,0,.25-.16,3.16,3.16,0,0,1,1.63-.67C39.21,22.23,39.1,22.29,39,22.34Zm1.35-6.52c-.54.26-1.09.49-1.64.74a3.89,3.89,0,0,1,2.08-1.22A1.22,1.22,0,0,1,40.39,15.82Zm4.48-3a.09.09,0,0,1-.13-.06.13.13,0,0,1,.07-.15l.45-.2a.84.84,0,0,0,.35-.18c-.15-.24-.37,0-.54-.09a1.34,1.34,0,0,1,1-.21C45.83,12.52,45.32,12.61,44.87,12.8ZM66.28,87.22a4.61,4.61,0,0,1-1,.48.44.44,0,0,0-.24.13c0,.14.16.17.16.21s0,.18-.07.2c-.22.1-.45.2-.68.32s-.29.12-.3.37-.2.23-.35.25a6,6,0,0,0-1.15.26.52.52,0,0,1-.35.09,1.86,1.86,0,0,1,.55-.4c.2-.11.36-.27.55-.4s.18-.25,0-.44c.81-.06,1.33-.71,2-1.05a4.28,4.28,0,0,1,.72-.34c.09,0,.16,0,.19.09A.18.18,0,0,1,66.28,87.22Zm7.18-11a3.1,3.1,0,0,1-.7.61c0-.2.27-.25.34-.48a.54.54,0,0,0-.48.27c-.3.45-.72.8-1,1.25a.88.88,0,0,1-.29.25,3.19,3.19,0,0,0-.85.71.72.72,0,0,1-.74.38,2.52,2.52,0,0,1,.91-1.31c.36-.28.65-.67,1-1s.38-.5.72-.41c0,0,.11-.05.13-.09.17-.39.56-.36.81-.58.06-.05.12,0,.09.07S73.65,76,73.46,76.24Zm4.11-1.45c.4-.28.63-.78,1.08-1.05a.9.9,0,0,1-.17.65l-.41.57a1.64,1.64,0,0,0-.35.65,1.05,1.05,0,0,1-.62.69,1.65,1.65,0,0,0-.64.52c-.17.19-.4.31-.49.61s-.33.4-.51.59l-.18.19a.12.12,0,0,1-.15,0c-.07,0,0-.13,0-.2a.2.2,0,0,1,0-.08c.43-.39.67-1,1.17-1.3a1.27,1.27,0,0,0,.36-.37c0-.06.07-.14,0-.2s-.12,0-.16.06l-.75.92c-.06.09-.11.21-.25.21,0-.16.11-.24.18-.34l.76-1a.71.71,0,0,0,.12-.18c0-.12.15-.27,0-.36s-.18.07-.25.16c-.27.35-.54.69-.82,1a1.26,1.26,0,0,1-.46.42l.21-.31.8-1.06a3.48,3.48,0,0,1,.57-.58,6.84,6.84,0,0,0,.86-.92c.42-.5.81-1,1.28-1.48A17.63,17.63,0,0,0,77.57,74.79Zm5.27-12.17a.61.61,0,0,1,0,.12,13.38,13.38,0,0,0-.92,3c-.36,0-.29-.37-.38-.59a.67.67,0,0,0-.06.86c.17.16.1.28,0,.42a4.41,4.41,0,0,1-.28.39c.27,0,.3-.37.52-.37,0,.09,0,.17-.06.24-.41.6-.71,1.27-1.07,1.9a4.41,4.41,0,0,1-.4.45s-.09.06-.14,0-.19,0-.16.12c.15.4-.06.68-.27,1A7.56,7.56,0,0,0,79,71.45a7.72,7.72,0,0,1-.6,1c-.07.1-.14.26-.29.15s0-.24,0-.35a3.36,3.36,0,0,1,.16-.33,2,2,0,0,0,.31-1,.72.72,0,0,1,.09-.34,14.58,14.58,0,0,1,.89-2.21,6.19,6.19,0,0,0,.53-1.57,3.7,3.7,0,0,1,.59-1.13,29.84,29.84,0,0,1-1,2.93,2.54,2.54,0,0,0,.79-1.26c0-.07.07-.17,0-.22-.15-.31,0-.55.18-.78a8,8,0,0,0,.56-1.32,2.48,2.48,0,0,1,.41-.79,7.13,7.13,0,0,0,.45-.92.26.26,0,0,0,0-.21s0-.06,0-.08a14.48,14.48,0,0,0,.37-1.44s0,0,.11-.07c0,.24-.28.55.17.54.06,0,0,.09,0,.14s-.09.13-.08.21S82.94,62.33,82.84,62.62ZM84.13,64a3.46,3.46,0,0,1,.36-2C84.27,62.59,84.46,63.27,84.13,64Zm2-9.27c-.11-.12,0-.24-.07-.33s0-.15-.14-.13-.09.1-.11.17a1.55,1.55,0,0,0,.11.68c0,.11.14-.07.22,0-.11.33-.54.42-.52.87a1,1,0,0,1-.15-1,9.89,9.89,0,0,0,.19-1.87c0-.06,0-.12,0-.18s0-.27.12-.28.27.1.23.25c-.12.42.16.71.19,1.08A1.08,1.08,0,0,1,86.1,54.69Z"/><path class="cls-1" d="M74.18,24.25c.07-.06.14-.12.22-.07a.38.38,0,0,1,.13.15c.15.25.3.51.47.74s.13.26,0,.36c-.36-.24-.49-.71-.79-1A.12.12,0,0,1,74.18,24.25Z"/><path class="cls-1" d="M18.83,48a8.78,8.78,0,0,1,.46-1.47,3.67,3.67,0,0,0,.27-.81c.1-.25,0-.24-.25-.2.24-.44.22-.91.44-1.31a.35.35,0,0,0,.07-.2c-.1-.37.13-.59.32-.81s.2-.29.3-.43c.23-.34.41-.71.62-1.07s.64-1,1-1.49c0-.05.07-.13.15-.12a.08.08,0,0,1,0,.12c-.31.53-.4,1.16-.74,1.68a2.9,2.9,0,0,0-.3.93L21,43.4a2.73,2.73,0,0,1-.37,1.08,1.5,1.5,0,0,0-.2,1.32.61.61,0,0,1,0,.48,1.48,1.48,0,0,1-.19.35A8,8,0,0,1,18.83,48Z"/><path class="cls-1" d="M38.82,92a2,2,0,0,1-.46-.17c.21,0,.3-.15.39-.31l.48.23C39.16,92,39.05,92.11,38.82,92Z"/><path class="cls-1" d="M53.75,95c-.31-.12-.67,0-1-.15.12-.12.24-.08.34-.08a3.07,3.07,0,0,1,.68,0C54,94.8,53.78,94.89,53.75,95Z"/><path class="cls-1" d="M85,66.83c-.27.71-.57,1.41-.87,2.11a.82.82,0,0,0-.06.6,1,1,0,0,1-.07.77c-.26.49-.44,1-.75,1.5-.1.13-.24.33,0,.49s.07.19,0,.29-.14.3-.21.45c-.26.54-.64,1-.86,1.56a4.41,4.41,0,0,1-.26.72c-.27.48-.51,1-.75,1.46a6.3,6.3,0,0,1-1,1.69.1.1,0,0,0,0,.15c.12,0,.18-.1.22-.18a6.16,6.16,0,0,1,.52-.71,16,16,0,0,0,1.09-1.56A4.64,4.64,0,0,1,82.83,75a3.8,3.8,0,0,0,.83-1.3c.22-.46.47-.9.65-1.38a20.92,20.92,0,0,0,1.17-3.67A10,10,0,0,1,85,66.83Z"/><path class="cls-1" d="M50.21,52.28a3.93,3.93,0,0,1,0-1c-.17.18-.34.24-.42.41a.38.38,0,0,1-.38.28.16.16,0,0,0-.19.12,1.59,1.59,0,0,0-.17.63c.2,0,.37,0,.42.27s.19.17.33.1a.74.74,0,0,0,.31-.3c0,.13-.07.29.06.43.23-.25.47-.46.69-.68a1.94,1.94,0,0,0,.57-.77A1.94,1.94,0,0,1,52,51c.06-.06.17-.06.15-.21a.49.49,0,0,0-.48.12.48.48,0,0,1-.58.17c-.14,0-.2,0-.28.17A6.12,6.12,0,0,1,50.21,52.28Z"/><path class="cls-1" d="M27,30.5a2,2,0,0,0-.59.49s-.08.12-.07.15c.15.49-.22.74-.43,1s-.54.65-.81,1c-.55.7-1.1,1.42-1.63,2.14-.11.14-.24.29-.19.48a.63.63,0,0,1-.19.56l-.71,1c-.05.08-.15.15-.08.26s.12-.12.22-.08a5.44,5.44,0,0,0-.79,1.34c0,.08-.1.14-.14.22a8.68,8.68,0,0,0-.7,1.08c-.07.15-.17.32,0,.42s.2-.12.27-.21a2.39,2.39,0,0,1,1-.93.43.43,0,0,0,.27-.43.84.84,0,0,1,.24-.6,16,16,0,0,0,1-1.57c.48-.77.86-1.63,1.3-2.44s.81-1.52,1.25-2.26A6.16,6.16,0,0,0,27,30.5Z"/><path class="cls-1" d="M71.41,80.46c.23,0,.38-.16.55-.27a.4.4,0,0,1,.38-.09.49.49,0,0,0,.66-.33,3.76,3.76,0,0,1,.55-.85c.16-.19.31-.41.51-.67a1.55,1.55,0,0,0-.7.49c-.16.14-.3.35-.48.43A5,5,0,0,0,71.41,80.46Z"/><path class="cls-1" d="M35.33,82.32a1.08,1.08,0,0,0-.2-.13.11.11,0,0,0-.11,0,.12.12,0,0,0,0,.16,5.94,5.94,0,0,0,.79,1.12,3.57,3.57,0,0,1,.4.46c.1.18.22.33.44.3s.15,0,.15.15.08.14.16.12.12-.11.12-.2a.34.34,0,0,0-.16-.37c-.29-.18-.64-.31-.75-.74,0,0,0,0,0,0A4.52,4.52,0,0,1,35.33,82.32Z"/><path class="cls-1" d="M23.19,71.5A2.61,2.61,0,0,0,23.08,70a.88.88,0,0,1-.11-.6,3.1,3.1,0,0,0-.12-1.25,2.89,2.89,0,0,0-.12,1.51,1.51,1.51,0,0,1,.06.52,2.16,2.16,0,0,0,.14,1A.3.3,0,0,0,23.19,71.5Z"/><path class="cls-1" d="M21,38.8c.29-.34.61-.56.88-.83a.85.85,0,0,0,.24-.48,4.76,4.76,0,0,1,.23-.82c0-.08.07-.18,0-.23s-.15,0-.2.09a.35.35,0,0,0-.08.16,2,2,0,0,1-.4.74q-.3.43-.57.9A.52.52,0,0,0,21,38.8Z"/><path class="cls-1" d="M29.79,26.25l1.13-.65c.09-.06.19-.11.28-.18a1.69,1.69,0,0,0,.36-.44c.06-.12.05-.25-.08-.29s-.28-.08-.29.11a.36.36,0,0,1-.37.34c-.32.06-.49.32-.72.51A1,1,0,0,0,29.79,26.25Z"/><path class="cls-1" d="M21.88,46.14c-.14.32-.55.37-.6.76a.16.16,0,0,1-.09.09.82.82,0,0,0-.39.71c-.05.35-.06.7-.08,1.06.1,0,.12-.07.15-.12a7.65,7.65,0,0,0,.49-1.34,1,1,0,0,1,.37-.67A.35.35,0,0,0,21.88,46.14Z"/><path class="cls-1" d="M30.46,26.19a.64.64,0,0,0-.36.19c-.19.21-.38.29-.58,0a.16.16,0,0,0-.18-.05.77.77,0,0,0-.51.59c0,.22,0,.3.24.23s.3-.13.45,0,.21,0,.28-.11Z"/><path class="cls-1" d="M26.31,29a1.46,1.46,0,0,1,.7-.51c.13,0,.21-.18.29-.3l.46-.65c0-.08.15-.14.09-.28l-.41.38c-.11.1-.22.33-.35,0,0-.09-.14,0-.2.07A2,2,0,0,0,26.31,29Z"/><path class="cls-1" d="M19.49,50.69a1.29,1.29,0,0,0-.39,1.21,1.25,1.25,0,0,1,0,.74,1,1,0,0,0,0,.78c.19-.42.43-.74.36-1.15a1.77,1.77,0,0,1,.05-.79A1.71,1.71,0,0,0,19.49,50.69Z"/><path class="cls-1" d="M64.33,92.92c.17.08.32.06.45.14A.17.17,0,0,0,65,93a1.35,1.35,0,0,1,.74-.43.46.46,0,0,0,.21-.13c.06,0,.13-.1.1-.18a.28.28,0,0,0-.16-.12c-.12,0-.23,0-.33.12a2.73,2.73,0,0,1-.85.43A.53.53,0,0,0,64.33,92.92Z"/><path class="cls-1" d="M70.1,32.3c.16.13.37.17.51.32s.11.11.17.05,0-.17,0-.25a.4.4,0,0,0-.16-.18,1,1,0,0,1-.49-.52.5.5,0,0,0-.3-.27.15.15,0,0,0-.11,0,.13.13,0,0,0,0,.16A2.91,2.91,0,0,0,70.1,32.3Z"/><path class="cls-1" d="M62.59,88.64a13.41,13.41,0,0,0-2.82,1.09A12,12,0,0,0,62.59,88.64Z"/><path class="cls-1" d="M38.8,94.19a.14.14,0,0,0-.09-.16,6.15,6.15,0,0,1-.81-.41c0-.05-.15,0-.23,0a.2.2,0,0,0-.18.16.17.17,0,0,0,.09.21,6.82,6.82,0,0,0,1.07.3A.14.14,0,0,0,38.8,94.19Z"/><path class="cls-1" d="M21.46,45.45a5.28,5.28,0,0,0,.64-1.1.55.55,0,0,0,0-.17c0-.09,0-.2-.07-.24s-.16.05-.19.13c-.12.26-.25.51-.35.78A1,1,0,0,0,21.46,45.45Z"/><path class="cls-1" d="M19.25,49.06a2,2,0,0,0-.36,1.42c0,.11.07.2.18.2s.14-.1.14-.19C19.17,50.05,19.32,49.6,19.25,49.06Z"/><path class="cls-1" d="M35,22.25c-.67.31-.93.56-.94.9.16,0,.27-.16.42-.17s.45-.16.47-.49C35,22.42,35.07,22.37,35,22.25Z"/><path class="cls-1" d="M34.46,23.47l0,.11a12.49,12.49,0,0,0,1.32-.76.08.08,0,0,0,0-.08s-.06-.07-.09-.07a.65.65,0,0,0-.46.13C35,23,34.73,23.24,34.46,23.47Z"/><path class="cls-1" d="M22.38,43.89a1.94,1.94,0,0,0,.74-1.45A2.87,2.87,0,0,0,22.38,43.89Z"/><path class="cls-1" d="M39.58,15.36a1.72,1.72,0,0,0,1.09-.27c.1-.05.1-.18.07-.28a.12.12,0,0,0-.16-.09A2.9,2.9,0,0,0,39.58,15.36Z"/><path class="cls-1" d="M46.26,11.4c-.22,0-.43.07-.61-.14s-.41.07-.47.29,0,.26.18.23A2.15,2.15,0,0,0,46.26,11.4Z"/><path class="cls-1" d="M19.42,53a5.91,5.91,0,0,0-.3,1.13c0,.11,0,.23.1.24s.13-.09.15-.17.1-.38.15-.57A.63.63,0,0,0,19.42,53Z"/><path class="cls-1" d="M22.78,31.79a4.59,4.59,0,0,0,1.56-1.69C23.84,30.67,23.27,31.13,22.78,31.79Z"/><path class="cls-1" d="M65.12,17.6c.11.11.24.12.31.24a.52.52,0,0,0,.42.2A.15.15,0,0,0,66,18c0-.07,0-.14,0-.2C65.79,17.47,65.54,17.42,65.12,17.6Z"/><path class="cls-1" d="M24.83,31.74A3.34,3.34,0,0,0,23.92,33c.16-.06.34-.1.41-.27C24.48,32.38,24.68,32.07,24.83,31.74Z"/><path class="cls-1" d="M24.2,31.7c.33,0,.41-.3.55-.5s.39-.35.49-.71A4,4,0,0,0,24.2,31.7Z"/><path class="cls-1" d="M32.25,27.5A2.46,2.46,0,0,0,31,28.57C31.31,28.16,31.85,28,32.25,27.5Z"/><path class="cls-1" d="M44.42,93.7a1.9,1.9,0,0,0,1,.39.07.07,0,0,0,.08-.08s0-.1-.05-.11A2,2,0,0,0,44.42,93.7Z"/><path class="cls-1" d="M73.17,69c-.29.23-.64.44-.57,1A1.93,1.93,0,0,0,73.17,69Z"/><path class="cls-1" d="M19.57,54.68c.15,0,.28,0,.25-.24a1.91,1.91,0,0,1,.06-.67.5.5,0,0,0,0-.34C19.56,53.8,19.72,54.27,19.57,54.68Z"/><path class="cls-1" d="M28.7,75.17l.06-.06-.31-.59a.18.18,0,0,0-.09-.08c-.07,0-.15-.07-.21,0s0,.14,0,.19Z"/><path class="cls-1" d="M26.1,29.82,26,29.77c-.15.21-.41.31-.49.6,0,.06-.05.15,0,.18s.1,0,.13-.06C25.84,30.27,26,30,26.1,29.82Z"/><path class="cls-1" d="M20.45,38.27a1.23,1.23,0,0,0,.41-.7c0-.06,0-.13-.06-.15a.1.1,0,0,0-.12.09C20.64,37.77,20.45,38,20.45,38.27Z"/><path class="cls-1" d="M26,29.24c-.17.27-.59.31-.61.85A3.07,3.07,0,0,0,26,29.24Z"/><path class="cls-1" d="M19.81,48.15a1.77,1.77,0,0,0,.37-1A1.5,1.5,0,0,0,19.81,48.15Z"/><path class="cls-1" d="M45.61,15.58a1.65,1.65,0,0,0-1,.37A1.46,1.46,0,0,0,45.61,15.58Z"/><path class="cls-1" d="M20,35.37a1.83,1.83,0,0,0,.74-1A5.29,5.29,0,0,0,20,35.37Z"/><path class="cls-1" d="M38.31,90.55c-.25-.16-.55-.14-.8-.38.05.18-.09.22-.16.33A2.24,2.24,0,0,0,38.31,90.55Z"/><path class="cls-1" d="M74.42,77.8a.72.72,0,0,0,.48-.53C74.61,77.34,74.53,77.58,74.42,77.8Z"/><path class="cls-1" d="M30.93,20.29c.07.09,0,.15,0,.26l.38-.2c.13-.06.26-.21.35,0,0,.09.14,0,.21,0a3.43,3.43,0,0,1,1-.6,1.89,1.89,0,0,1-.54.63c-.55.48-1.13.93-1.7,1.39,0,0-.1.06-.12.11a1.91,1.91,0,0,1-.68.78,12.88,12.88,0,0,0-1,1.05c-.06.07-.16.14-.13.22.1.24-.09.32-.19.45s-.1.1-.15.15a2.6,2.6,0,0,0-.67.91,5.34,5.34,0,0,1-1.18,1.71c-.34.38-.66.78-1,1.19a1.34,1.34,0,0,1-.47.42c-.12-.12-.06-.23,0-.33a2.43,2.43,0,0,1,.51-.67,4.38,4.38,0,0,0,.67-.81c.1-.14.16-.27-.08-.29s-.11-.13-.05-.23a5.89,5.89,0,0,1,.65-.84,1.9,1.9,0,0,0,.34-.45,6,6,0,0,1,.78-.88A22.24,22.24,0,0,1,30.12,22s0,0,0,0,.27-.26.16-.42-.25,0-.35.1c-.45.39-1,.66-1.39,1.07a.71.71,0,0,0-.22.27c-.11.3-.22.55-.55.62-.1,0-.16.16-.19.28a1.7,1.7,0,0,1-.46.75l-1.62,1.71c-.15.16-.27.35-.41.52s-.16.25-.3.29,0-.17,0-.24a5.59,5.59,0,0,1,.52-.66,9.9,9.9,0,0,0,1-1.24,6.23,6.23,0,0,1,.78-1.07c-.29,0-.43.34-.67.43-.14-.38-.13-.37.17-.61a8.26,8.26,0,0,0,1.32-1.26c.09-.1.16-.24.32-.29,0,.46-.55.51-.53,1a4.5,4.5,0,0,0,.78-.73,7.18,7.18,0,0,1,1.78-1.7A7.59,7.59,0,0,0,30.93,20.29Z"/><path class="cls-1" d="M18.05,38.53a1.42,1.42,0,0,1-.42.73.67.67,0,0,0-.28.53.5.5,0,0,1-.15.36,3.81,3.81,0,0,0-.79,1.11,21,21,0,0,0-1.23,2.23A32.82,32.82,0,0,1,17,40.7c0,.37-.28.54-.36.82.16,0,.14-.19.29-.17a8.48,8.48,0,0,1-.59,1,2,2,0,0,1-.43.56,1.44,1.44,0,0,0-.31.54,9.16,9.16,0,0,1-1.17,2c-.15.2-.26.43-.4.64s-.12.18-.23.07-.13-.19,0-.29a4.82,4.82,0,0,0,.69-1.13c.05-.07.09-.18,0-.25s-.07-.29,0-.43a3.29,3.29,0,0,0,.27-.57,5.14,5.14,0,0,1,.63-1.18,3,3,0,0,0,.56-1,19.45,19.45,0,0,1,1.84-2.64Z"/><path class="cls-1" d="M21,29.24a.68.68,0,0,1,.24-.55c.34-.36.69-.7,1-1.05,0,0,.06-.08.1-.08.34-.09.49-.4.69-.67a2.21,2.21,0,0,1,.61-.61,1.44,1.44,0,0,0,.59-.63.92.92,0,0,1,.35-.38,3.14,3.14,0,0,0,.82-.88,15.35,15.35,0,0,1,1.88-2.21c.21-.21.44-.41.67-.61a.93.93,0,0,1,.41-.24.53.53,0,0,1-.21.41,6.85,6.85,0,0,1-1.35,1.34,8.71,8.71,0,0,1-1.25,1.32c-.18.2-.4.4-.3.74a.14.14,0,0,1,0,.16c-.3.22-.44.63-.8.78s-.35.3-.49.48a1.82,1.82,0,0,1-.72.66.73.73,0,0,0-.39.45,1.85,1.85,0,0,1-.57.72.3.3,0,0,1-.33.09c-.1,0-.23.07-.18.17.12.3-.06.36-.24.37S21.25,29.18,21,29.24Z"/><path class="cls-1" d="M60,95.68c.07,0,.18,0,.2.13s-.12.12-.2.18a2.32,2.32,0,0,0-.63.54,4.21,4.21,0,0,1-2.25.27.74.74,0,0,1,.38-.32,1.55,1.55,0,0,0,1-.64c0-.08.15-.07.23-.07A8.32,8.32,0,0,0,60,95.68Z"/><path class="cls-1" d="M18.39,32c.41-.33.69-.89,1.1-1.28s.82-.75,1.21-1.14l.13-.1a.19.19,0,0,1,.26.06.17.17,0,0,1-.05.23c-.22.23-.36.54-.73.52-.18,0-.3.22-.31.43a1.26,1.26,0,0,1-.35.7.66.66,0,0,1-.43.25.44.44,0,0,0-.3.12s-.08.12,0,.14c.33.08.11.19,0,.3l-.26.3a.4.4,0,0,1-.28.16c-.22,0-.3-.12-.2-.34S18.3,32.12,18.39,32Z"/><path class="cls-1" d="M62.85,94.13c-.16.07-.34.06-.4.32s-.21.17-.34.2c-.38.06-.77.1-1.16.17-.18,0-.46,0-.41.38,0,.12-.14.13-.23.16a.45.45,0,0,0-.36.32c-.16-.21-.16-.21.08-.46-.06-.16-.23,0-.32-.13s.2-.21.33-.27l.91-.41a.27.27,0,0,0,.18-.17h0c.19.1.37,0,.55-.07A1.66,1.66,0,0,1,62.85,94.13Z"/><path class="cls-1" d="M31.38,19.25a1,1,0,0,1,.38-.44c1.26-1,2.54-2,3.86-2.93L36.8,15a2.14,2.14,0,0,1,.32-.2c.35-.18.35-.18.46-.61.28.25.56,0,.86,0a15.64,15.64,0,0,1-1.8,1.15q-.91.6-1.8,1.29c-.57.44-1.17.86-1.76,1.27S32,18.87,31.38,19.25Z"/><path class="cls-1" d="M78.57,25.77c.48-.1.62,0,.67.41,0,.18.13.26.35.23s.46.12.32.43,0,.4.07.6a.23.23,0,0,1-.33-.05A16.28,16.28,0,0,0,78.57,25.77Z"/><path class="cls-1" d="M78.43,78.55a.18.18,0,0,1,0-.19c.37-.43.62-1,1-1.38a4.72,4.72,0,0,0,.52-.72c0-.06.1-.13.17-.08s0,.13,0,.19-.12.24-.19.36a14.22,14.22,0,0,1-1,1.41A1.31,1.31,0,0,1,78.43,78.55Z"/><path class="cls-1" d="M12.5,53.85a12.1,12.1,0,0,1,1-3.06.41.41,0,0,1,0,.42c-.08.26-.16.52-.26.76-.2.49-.26,1-.42,1.51C12.73,53.63,12.7,53.79,12.5,53.85Z"/><path class="cls-1" d="M31,19.66a4,4,0,0,1-.76.83,5.78,5.78,0,0,0-.84.73,8.17,8.17,0,0,1-.85.79A10.63,10.63,0,0,1,31,19.66Z"/><path class="cls-1" d="M48.56,94.92a4.83,4.83,0,0,1-1.31,0,.13.13,0,0,1-.15-.12c0-.08,0-.13.09-.19a.24.24,0,0,1,.22-.08A5.07,5.07,0,0,1,48.56,94.92Z"/><path class="cls-1" d="M17.24,32l-1.61,2.16C15.63,33.85,16,33.33,17.24,32Z"/><path class="cls-1" d="M17.73,33a1.52,1.52,0,0,1-.44,1.1c-.06.07-.13.14-.21.08a.21.21,0,0,1,0-.25A2.78,2.78,0,0,1,17.73,33Z"/><path class="cls-1" d="M52.52,98a4,4,0,0,1,1.73-.16A2,2,0,0,1,52.52,98Z"/><path class="cls-1" d="M16,45a16,16,0,0,1-1,2A5.17,5.17,0,0,1,16,45Z"/><path class="cls-1" d="M82.78,77.36a.28.28,0,0,1,0-.29,15.78,15.78,0,0,0,.65-1.52c0-.15.11-.28.31-.21A18,18,0,0,1,82.78,77.36Z"/><path class="cls-1" d="M50.7,96.18a2.28,2.28,0,0,1,1.22-.13A1,1,0,0,1,50.7,96.18Z"/><path class="cls-1" d="M16.24,35l.16-.22c.06-.07.13-.15.21-.08s0,.14,0,.21a3.07,3.07,0,0,1-.35.51c-.05,0-.11.06-.15,0a.25.25,0,0,1,0-.13A.72.72,0,0,1,16.24,35Z"/><path class="cls-1" d="M57.91,11.11c-.29.15-.5,0-.73,0a.15.15,0,0,1,0-.15c0-.06,0-.12.11-.11C57.47,10.85,57.77,10.74,57.91,11.11Z"/><path class="cls-1" d="M40.41,12.88a1.35,1.35,0,0,1-.39.35c-.09.07-.19.08-.24,0a.22.22,0,0,1,.09-.3A.63.63,0,0,1,40.41,12.88Z"/><path class="cls-1" d="M12.47,51.36c-.08.54-.29,1-.39,1.45A1.93,1.93,0,0,1,12.47,51.36Z"/><path class="cls-1" d="M53.84,97.5a2.39,2.39,0,0,1,.81-.08.08.08,0,0,1,.09.1c0,.07-.05.1-.1.12A.86.86,0,0,1,53.84,97.5Z"/><path class="cls-1" d="M82.51,71.29a2.15,2.15,0,0,1,.33-.74s.08-.09.14-.06.06.12,0,.18c-.12.23-.26.45-.39.67Z"/><path class="cls-1" d="M13.26,39.54l.66-.89A1,1,0,0,1,13.26,39.54Z"/><path class="cls-1" d="M21.05,27.77a1.15,1.15,0,0,1,.65-.65A1.37,1.37,0,0,1,21.05,27.77Z"/><path class="cls-1" d="M15.67,51.7,15.26,53A2,2,0,0,1,15.67,51.7Z"/><path class="cls-1" d="M14.89,54.35a3.47,3.47,0,0,1-.3,1.19A2.14,2.14,0,0,1,14.89,54.35Z"/><path class="cls-1" d="M15,37a10.68,10.68,0,0,1,.79-1.14A3,3,0,0,1,15,37Z"/><path class="cls-1" d="M78.79,76.64a3.28,3.28,0,0,1-.58,1C78.35,77.17,78.44,76.81,78.79,76.64Z"/><path class="cls-1" d="M16.72,49.29a1.15,1.15,0,0,1-.21.62,1.81,1.81,0,0,0-.18.4c0,.12,0,.26-.18.35a3.49,3.49,0,0,1,.56-1.37Z"/><path class="cls-1" d="M16.76,43.48a1.77,1.77,0,0,1,.13-.17.08.08,0,0,1,.11,0,.08.08,0,0,1,0,.11,1.64,1.64,0,0,1-.16.26c-.1.1-.12.4-.28.27s.09-.26.16-.4Z"/><path class="cls-1" d="M18,39.71c-.07-.46.24-.53.48-.72A1.24,1.24,0,0,1,18,39.71Z"/><path class="cls-1" d="M32.61,90c-.26.13-.44,0-.64-.12a.21.21,0,0,1,0-.12.08.08,0,0,1,.1-.06A1.24,1.24,0,0,1,32.61,90Z"/><path class="cls-1" d="M14.16,49.6a2.26,2.26,0,0,1,.35-.88C14.57,49,14.48,49.24,14.16,49.6Z"/><path class="cls-1" d="M62.81,94.87a1.11,1.11,0,0,1-.89.06A.7.7,0,0,1,62.81,94.87Z"/><path class="cls-1" d="M32.43,82.25a2.47,2.47,0,0,1-1.34-.73A5.28,5.28,0,0,1,32.43,82.25Z"/><path class="cls-1" d="M30.53,82a.79.79,0,0,1,.54.31.15.15,0,0,1,0,.2s-.1,0-.14,0A.92.92,0,0,1,30.53,82Z"/><path class="cls-2" d="M92.25,96.42c-.22,0-.44.22-.12.55l.65,0Z"/><path class="cls-2" d="M92.94,99.55c.47.33,1.16.73,1.5.19-.72-.28-.58-.5-1.42-.7-.27-.36-.22-.77,0-.82-.21-.06-.27-.67-.7-.68a2.15,2.15,0,0,0,1,1.87C93.25,99.61,93.05,99.53,92.94,99.55Z"/><path class="cls-2" d="M68,109.92a.66.66,0,0,0-.17.16A1.2,1.2,0,0,0,68,109.92Z"/><path class="cls-2" d="M91.54,98.58c-.13.19-.14.3-.1.34C91.54,98.72,91.61,98.56,91.54,98.58Z"/><path class="cls-2" d="M93.51,93.47c0,.12,0,.23,0,.34A.45.45,0,0,0,93.51,93.47Z"/><path class="cls-2" d="M68,109.92a3.32,3.32,0,0,1,.5-.33C68.36,109.43,68.16,109.71,68,109.92Z"/><path class="cls-2" d="M95.42,105.52a1.42,1.42,0,0,0-.08-.48v.44Z"/><path class="cls-2" d="M72.27,115l.2-.06a1.69,1.69,0,0,0,.12-.27Z"/><path class="cls-2" d="M80.89,112.51c-.2,0-.14.52-.16.74a.68.68,0,0,1,.34-.44A.84.84,0,0,0,80.89,112.51Z"/><path class="cls-2" d="M92.92,107l0-.24A1.72,1.72,0,0,0,92.92,107Z"/><path class="cls-2" d="M68.77,113.75a.53.53,0,0,0,.12-.15A.26.26,0,0,0,68.77,113.75Z"/><path class="cls-2" d="M65,97.66s0,0-.06,0S65,97.71,65,97.66Z"/><path class="cls-2" d="M67.53,108.42l0-.14a1.34,1.34,0,0,0-.28,0Z"/><path class="cls-2" d="M90.92,85.45v0C91,85.64,91,85.54,90.92,85.45Z"/><path class="cls-2" d="M69.68,21.6c.78.62-1.55.23-.32,1C69.26,22.38,70.72,22.12,69.68,21.6Z"/><path class="cls-2" d="M95.31,105.78c0,.15-.06.3-.1.44A1.32,1.32,0,0,0,95.31,105.78Z"/><path class="cls-2" d="M69.36,22.59h0l.12.08Z"/><path class="cls-2" d="M95.78,68.52a.76.76,0,0,0-.25.16S95.65,68.65,95.78,68.52Z"/><path class="cls-2" d="M89.85,81.6c0-.09.09-.18.14-.27A.7.7,0,0,0,89.85,81.6Z"/><path class="cls-2" d="M96,60.88a.89.89,0,0,0,.07-.53.27.27,0,0,0-.07.08A.44.44,0,0,1,96,60.88Z"/><path class="cls-2" d="M95.93,53a.71.71,0,0,0-.08.15,1.72,1.72,0,0,0,0,.24Z"/><path class="cls-2" d="M44.06,85.93a1.41,1.41,0,0,1,.11.54C44.22,86.12,45.25,86.49,44.06,85.93Z"/><path class="cls-2" d="M95.15,105.48a.3.3,0,0,1,.16.3c0-.1,0-.2,0-.3S95.21,105.42,95.15,105.48Z"/><path class="cls-2" d="M92.24,60.37l.13-1.17A9.28,9.28,0,0,0,92.24,60.37Z"/><path class="cls-2" d="M25.57,44l-.11.25A.38.38,0,0,0,25.57,44Z"/><path class="cls-2" d="M92.28,55.73a1.88,1.88,0,0,0,.32-.67.44.44,0,0,0-.14-.13Z"/><path class="cls-2" d="M51.88,88.71c-1.08-.48-.76.35-1.13.58-1.35-.39-.41-.68-.71-1.17-.86-.19-1.7.08-2.27-.2,0-.12-.1-.2.09-.26-1,.09-2.44-1.08-3.64-1a.48.48,0,0,1,0-.2,1.39,1.39,0,0,1-.25.85c-.46-.22-1-.09-1-.54.27.15.37,0,.56,0l-.56-.09c-.14-.75.75.16,1-.23a8.71,8.71,0,0,1-2.91-1c.16-.58,1.71.75,1-.22l1,.8c-.36-1.26.61.42.34-.86-1.28-.93-1.69-.6-2.92-1.61-.48.08-.16.47-.64.54-2.22-.83-.63-2.18-2.39-2.57-.56,0-1.19.53-1.84-.56l.73-.24c-1.11-1.06-1.32.17-2.2-1.29.38,0,1,.68.92.46-.42-1.1-.8-.23-1.39-.79l.28-.54c-.62-.52-1.29-1.08-2-1.62a19.52,19.52,0,0,1-2-1.87c.2,0,.53.1.41-.34a16.35,16.35,0,0,1-3.64-6.06c-.29-.16-.57-.32-.84-.49-.09-.18,0-.43.21-.29-.23-.85-.3.11-.67-.17s0-.7.23-.5c-1.07-1.12-2.7-3.56-2.67-5.28l.24.24c-.22-1.23-1.45-1-1.33-2.27l.15.19a36.35,36.35,0,0,1-.75-4,5.7,5.7,0,0,1,.51-3.37c-.34-.23-.15-.84,0-1.42s.36-1.12-.08-1.36a28.16,28.16,0,0,0,2.15-2.49c.3-.46-.17-1,.11-1.69l.46.26c0-.36,0-.74,0-1.1l.8-.07.27-.62c-.17.2-.52.32-.62.2.4-1,1.83-1.81,2.05-1.65q.6-1.09,1.29-2.16c.11.18-.11.54-.23.87.49-1.34.57.2,1-1-.2,0-.17-.28-.22-.37a3.39,3.39,0,0,0,1.13-.8,10,10,0,0,0,1.15-1.2l.11.4c1.39-1.21,2.79-2.72,4.46-4-.71.31-1-.29-.49-.71l.53.3c.12-.51-.65.21-.23-.61.67-.41.79.21.54.62l.65-.72c.15.11,0,.31.09.52.11-.53,1.65-.46,1.78-1.26l.14.11c1.74-1.11,2.46-1.73,3.93-2.55-.19-.44.44-.67.73-1.23,1.2-.42,2.61-.63,4-1.22.91-.59.15-.49.49-.92.23.38,1.62-.17,1,.39,1.68-.64,2.13-.82,4.26-1.72-.28-.11-.58-.12-.47-.3.39-.18,1,0,1,.17l-.09.07a5.77,5.77,0,0,1,2-.5,19.47,19.47,0,0,1,2.16.05,16.28,16.28,0,0,0,2,.13,3.84,3.84,0,0,0,1.69-.31l-.11,0c.69-.2,1.38-.32,2.09-.47,1,.1-.59.32.11.61A5.78,5.78,0,0,1,66.2,25a9.2,9.2,0,0,0,2.52.32,2.45,2.45,0,0,0,1.26.84,11.26,11.26,0,0,0,1.77.51A6.59,6.59,0,0,1,75,28.14l0-.32c.57-.07.47.39.75.62.07-.25-.35-.48,0-.5a17.33,17.33,0,0,1,5.32,3.53,38.74,38.74,0,0,1,4.16,4.94c.91,1.24,1.79-.27,2.43,1.76l-.8-.12a12.72,12.72,0,0,1,2.77,3.82c.62,1.42,1.15,2.88,1.79,4.33-.17-.15-.34-.11-.42-.4-.19.72.55,2.35.88,2.3.06.49-.27.17-.38.5-.11.68.78,1.56.44,2,0,.07-.16-.17-.21-.28.29.39.19,2,.62,1.54-.07,1.2.41,2.26.2,3.23.54.6-.2,2,.55,2.24-.79-.08-.63,2.09-.33,2.87-.22-.27-.28.64-.59.33,0,.86,0,1.65.46,1.54-1,1.48.41,3.29-.91,4a22.63,22.63,0,0,1-.93,7c-.34-.19-.11-.75.05-1.3s.29-1.09-.12-1.16c-.24,2-.2,3.37-1.43,5.22-.37.45-.13-.45-.16-.68-.38,1-1,2-1.49,3a7.92,7.92,0,0,0-1,3.46c-.07,0-.09-.28-.1-.54-.1.47-.3,1.1.06,1.08l0-.47c.32-.33.48.18.68.74a2.77,2.77,0,0,0,.54,1.19c-.5-.35-.58.19-.62.7s-.09,1-.81.45c.11.3.33.65.55.54,0,.44-.07.61-.44.22.59,1.55.77.9,1.23,2.22-.16,0-.32-.19-.56-.27a6.21,6.21,0,0,1,1.53,2.23c-.12,0-.18.17-.34-.14a13.29,13.29,0,0,0,1.59,2,3,3,0,0,1,.85,2.17c-.8-.4-.16.6-.85.66a3.33,3.33,0,0,1,.09.78l.38-.26c-.13.69,0,1.55-.55,2.06l.07-.65a7.3,7.3,0,0,1-.75,1.32c.25-.17.48-.37.74-.56-.27.89.74.4-.18,1.24.13-.23-.64.7-1.26.71h0a2,2,0,0,1-1.13,1.18c-.26-.07-.28-.67-.46-.71,0,.72-1.73,1.23-2,2a.46.46,0,0,0-.11-.54l-.16.55c-.45.06-.53,0-.58-.24-1.22.45.71.58-.86.87.1-.08,0-.12.23-.28-1.5.44-2.74,1.32-4.21,1.51-.59-.5,1.17-.5.55-.89-2,.69-4,1.87-6.07,2.34l.39,0c0,.94-1.63,0-2.5.81.22-.15.15-.59.11-.47a7.34,7.34,0,0,0-2.15,1,9.77,9.77,0,0,0-2.28,2.09c0-.13,0-.26,0-.38a3.73,3.73,0,0,0-1.26,1.36,5,5,0,0,0-.63,2c.2.37.23,1,.53.57a3.41,3.41,0,0,0,.18,2.39A6.67,6.67,0,0,0,67.47,116c.55.59,1.17,1.13,1.67,1.69l.1.11.05.06.07,0,.28-.06.55-.1a6.84,6.84,0,0,1,1.21,0c-.38.1-.93.46-.61.38l.72-.26.52-.2,1-.38c-.27-.34-.33-.16-.84-.34a2.38,2.38,0,0,1,1.22-.76c-.84.5.18.61.63.71-.1-.1,0-.26-.07-.37,1.24.39,0-.82,1.53-.76l0,.22A5.64,5.64,0,0,1,77,115.1c.36.38-.52.36-.46.74.81-.25,1.38-1.28,2.24-1-.31.22-.81.36-1.12.58a2.4,2.4,0,0,0,1.62.06h-.06l1.45-.14-.39-.05c.7-1.43,2-.78,3.19-1.91-1.14,1.08-.11.47-.07,1,.38,0,1,0,.86.23.55-.59,1.22,0,2-.9.1.15.72-.23.71.22.82-.43-.31-.2-.3-.43a5.9,5.9,0,0,1,2.29-.88A4.28,4.28,0,0,0,91.46,111a4.53,4.53,0,0,0,1.08-1.74c.19-.53.32-1,.6-1.76.23-.17.33,0,.34.22a1.84,1.84,0,0,1-.06.47,2.88,2.88,0,0,0,1-2.24c.1.2.26.06.51-.17.07-.75-.5-.56-.2-1.46a2,2,0,0,1,.62.77,8.78,8.78,0,0,0-.73-2.54c.24-.28.54.42.74.73-.2-1-.81-2.46-1.35-2.54l0,.61c-.13-.31.32-.3.47-.08.6.69.15,1.2,0,1.26-.07-.19-.16-.37-.24-.55-.4.41-.23.92,0,1.55a4,4,0,0,1,.31,2,8.6,8.6,0,0,0-.64-.58,6.24,6.24,0,0,1,.36,1.27c-.27.2-.69.21-.63-.33-.58.61,0,.76-.62,1.2-.08,0-.1,0-.09-.08a4.85,4.85,0,0,1-.19.75c0-.21-.49-.18-.16-.49a3.91,3.91,0,0,0-.92,1.28c-.2.39-.4.69-.76.64L91,109c-.63.67-.62.78-.5.93s.32.28-.15.94a15.12,15.12,0,0,1-1.49-.63l.08.55c-.18.07-.55.21-.58,0-.5.64.22.15,0,.64-1,0-2.41,1.19-2.88.45-.21.49,1,0,.08.59-.55-.76-1.1.51-2.07.35.14-.52,1-.51,0-.67-.3.9-1.71.29-2.39.63.13.61-1.5.69-2.66,1.22,0-.22-2.36.3-3.55.39v-.11c0,.67-1.24.87-2,1.23-.07-.37,0-.56.46-.85l-.8.22a1.47,1.47,0,0,1-.85.63l.08-.51a5.16,5.16,0,0,0-.77.31l-.46.29a2.64,2.64,0,0,1-.57.24,1.86,1.86,0,0,1-.36-.57,2.56,2.56,0,0,0-.28.93c-.09.34-.25.59-.89,0,.12-.23.39-.55.66-.36-.09-.06-.39-.18-.46-.44a2.75,2.75,0,0,0,.59.11c-.18-.52-.38,0-.65-.36.27-.19,0-.44.25-.54.07.07.16.46.32.46a2,2,0,0,1-.31-1.39.37.37,0,0,1-.61-.09c-.46-.87.22-.48.17-1-.29-.13-.19-.69-.67-.62,0-.25.19-.32.33-.4a1.5,1.5,0,0,1,0-1c.07-.34.15-.64-.2-.56l-.09.09,0-.08h0a2.81,2.81,0,0,1,1.75-1.8c.83-.4,1.72-.65,2.51-1.08l.06.16a26.93,26.93,0,0,0,2.86-1.46c.31-.09.82.09.74.32a3.58,3.58,0,0,1,2.06-.6c-.74.5.35.17-.78.43,1.09-.14,1.4.06,2.42-.7-.27.53,1,.31,1.44,0l-.84-.09a11.3,11.3,0,0,1,1.59-.46l-.11.64a5.17,5.17,0,0,0,3-1.28A3.86,3.86,0,0,1,87,103.14c.36-.65-1.28.36-1-.32,1-.41,2.39-.33,2.7-.55,1.48-.68.7-1.49,2-2.47-.3,0-.78-.24-.17-1.21.69-.79,1.5-.66,1.22.07-.16.24-.3.31-.34.26-.16.36-.45.78,0,.58l-.06-.26a4.58,4.58,0,0,0,.93-1c.28-.37.52-.64.57-.38.13-.49.07-.63,0-.56s-.28.35-.51.62A3.51,3.51,0,0,0,93,97a3.76,3.76,0,0,0,.3-1,5.31,5.31,0,0,0,.16-1,10.6,10.6,0,0,0,.07-1.19c-.09.29-.31.54-.33.27,0-1.23-.19-1.49-.35-1.61s-.36-.14-.67-.82c-.06-.89.82,0-.07-1.28-.23-.88.39-.43.71-.17a5.12,5.12,0,0,1-1.12-2.77l.4.42a2.24,2.24,0,0,1-.46-.73c-.09.14-.17.29-.25.44-.08-.32-.16-.54,0-.61-.36-.23-.53.52-1.11,0a2.47,2.47,0,0,0-.27-.87c-.09-.3-.13-.58.11-.71.18,1.4.45-.29.89.8a1.23,1.23,0,0,1-.22-.78c0-.06.12,0,.17.09.07-.66-.11-.75-.33-.86a.85.85,0,0,1-.57-.88c.3.14.57-.3.5-.49,0,.47-.52.25-.73-.25.3-.8-.06-.93.06-1.37l-.22.48c-.25-.23-.15-.67,0-1.31.24,0,0,.6.15.42-.16-.42.11-.77.44-1.11A2.4,2.4,0,0,0,91,78.84c.42-.34.53.23.86-.08.24-1.25,1-.94,1.37-2.31-.55.17-.49.26-.4-.77-.25.71-.53,1.41-.79,2.08l.15-1.51c-.32.57-.44,1.34-.69,1.63,0-.73.08-.62-.36-.52,1-.47.55-1.71,1.37-2.46l.9.47c1.12-1.3.73-3,1.44-4.86l-.34.6c-.32-.37.28-1.25.24-1.94.32.13.52-.25.79-.49-.24,0,.3-1.49-.34-1.78l.59-.84c.38-1.63-.7-2-.46-3.54.32.51.63-.19.8.9,0-.53.15-1-.09-1,.26-.3-.34-1.49,0-2-.13-.23-.48-.32-.43-.9.07-.07.17,0,.17,0-.16,0-.21-.92-.59-.42,1.1-1.61-.1-4.49.68-5.94-.21-1.14-.46-2.51-.66-3.54.11,0,.17,0,.17.18.06-1.49-1.06-.73-1-2.38.36-.94.47.79.56.24,1-.46-.55-1.92-.25-3.16l.14.24a2.23,2.23,0,0,0-.52-1.48,10.33,10.33,0,0,1-1-1.75s.12,0,.16-.06a30.83,30.83,0,0,1-2.75-3.23c.59.11.52.38.76-.07-.39-.46-.51.53-1.26-.38,0-.45-.3-1.29,0-1.65.24.29.43.62.65.92.2-.84-.84-1.2-1.12-1.73l.26-.1c-1.12-1.35-1.68-.93-2.86-2.35l0,.28c-1.14-.31-.29-.89-1.36-1.26l.26-.7c-.57-.39-2.17-1.12-3.15-1.79a10.32,10.32,0,0,1,2.92,1.17,5.57,5.57,0,0,0-2.22-1.46c.24.12.61.22.74.48a5.6,5.6,0,0,1-1.46-.46,7.2,7.2,0,0,1-1.54-.92c1-1-2.68-2.16-3.1-3.46-2.34-.65-4.26-2.19-7-2.84.35.63.15.58-.15.51s-.7-.13-.73.39c-.64-.07-.87-.14-.91-.22-.58-.35-1.19-.65-1.8-.95-.42-.37.64-.14.62-.38-1.4-.29-.52-.53-1.44-1,.15.39-.56.48-1.37.27l1.1.58c-2,.4-1.66-1.07-3.71-.56l.65-.31c-1,.13-3.88,0-4.8,1-.19-.11-.45-.37,0-.49a15.32,15.32,0,0,0-3.81.83,11.37,11.37,0,0,1-3.36.79l.12-.29c-.43.18-.65.66-1.26.55,0-.1.1-.29-.11-.25a4,4,0,0,1-1.63.83l.4-.43c-2.39.4-3.21,1.86-4.93,2.79-.3-.72-2.09-.13-3,.17l0-.11c-2.51,1.2-3.83,2.81-5.75,4.47a8,8,0,0,0-3.2,1.68c-1.18.86-2.37,1.9-3.48,2.57.38-.16.35.48.08.85-.54.3-.83,1.5-1.24.94l.16-.14c-.81-.19-1.53.85-2.22,1.52l.56.73a6.91,6.91,0,0,0-3.15,3.11c-.81,1.3-1.4,2.55-2.27,2.86-.12.66-.5,1.35-.56,2L19.52,46a12.67,12.67,0,0,0-1.72,4.6c-.09-.18-.15-.35-.23-.53-.34,1.27,1,1.85.93,2.94l-.75.28c-.17,2.18-.48,4.54.66,6.42a.42.42,0,0,1-.44-.34c.17,1,.58,3.82,1.43,3.16-.6.22.63,2,1.34,2.91l-.51,0A4.2,4.2,0,0,1,22,67.14c.07.3-.23.41-.3,0,.22,1,.73.53,1.07,1.72l-.48-.27c.45,1,.56.8,1.14,1.13.48.48.88,1.76.59,2.12a1.39,1.39,0,0,1,1.13.86c-.09.16-.3,0-.4,0,.67,1.66,1.92,1.81,2.24,3a.36.36,0,0,0-.1.34,17.2,17.2,0,0,1-1.36-2c-.37.25.24,1.22-.79.83.41.28,1,.63,1.52,1a4.34,4.34,0,0,1,1.32,1.31.51.51,0,0,1,0,.21l-.1,0a1.22,1.22,0,0,0,.49.49,4.77,4.77,0,0,0,.51.78c-.19.34.71,1.11,1.1,1.52.32-.36.77.22.58-.55,0,.09-.11,0-.39-.29a.81.81,0,0,0-.2-.14h.06c-.26-.26-.58-.62-1-1a1.62,1.62,0,0,1,1.15,1c.43,0,.87,0,1.1,0,0,1,.84,2.3.72,2.74,1.42,1,3.2,2.55,4.59,2.47.45.2.3.53.36.76a4.09,4.09,0,0,0-.74-.29c.91.4,2.4,1.61,3,1.18.87.9-.9.12.57.94l-.29,0A6.45,6.45,0,0,0,43,89a7.56,7.56,0,0,1,4.18,1.89c-.2-.17-.3-.26-.3-.37a37.7,37.7,0,0,0,5.64,2.55,15,15,0,0,1,5.15,3.12c.81.74,1.12.48,1.85.64l-.12.55c.42.07.84.15,1.26.25a3.19,3.19,0,0,1,1.43,1.81,3.8,3.8,0,0,0,1.61,2l.12-.42c.41.61,1.49,1.82,1.07,1.92.09,0,.43,0,.41.37l-.23.15a13.38,13.38,0,0,1,1.17,1.42c.15.69-.12.72-.36.82s-.41.27-.2,1.17c.27.62,1.07,1.87,1.23,1.61,0-.3.08-.79.34-.85l.23.69c.79,0,1.72.68,2-1.44a13.54,13.54,0,0,0-.79-1.27L69,105c.11.38.25.76.33,1.15.22-.75-.25-1.09-.59-1.47a.86.86,0,0,0,.2-.7,11,11,0,0,0-1.23-1c.21-.29.82.3.58-.62-.6-.41-.35.84-1,0,0-.73.37-.74-.3-1.23.11-.2.31-.13.55.09a6.77,6.77,0,0,1-.82-.92c-.28-.31-.55-.57-.82-.58,0-.41-.41-.82-.7-1.2s-.53-.67-.23-.91a5.15,5.15,0,0,1-1.71-.83c.72.05.31-.35-.18-.82s-1.08-1-.66-1.27c-1.15.1-2.65-1.53-4.13-1.85.1,0,.3,0,.39,0a6,6,0,0,1-1.13-1.18c-.41.53-1.58.08-2.35.17-.57-1,.88-.45.89-1.14-.2.5-1.76-.26-1.66.3-.49-.68-.49-.45-.6-1.11-.47.71-.68-.16-1.44.06-.8-.81.07-.83-1.09-1.06C50.82,88.57,51.88,88.71,51.88,88.71ZM29.7,75.14h0l.36.4Zm-1.36-1.75c.15.22.34.5.56.78a.22.22,0,0,1-.4,0C28.66,74.22,28.42,73.74,28.34,73.39Zm.48,5.88c-.3-.24-.31-.4-.27-.5.12.13.27.27.48.46h.07A.66.66,0,0,1,28.82,79.27Z"/><path class="cls-2" d="M29.74,79.34a.8.8,0,0,1,.14.09c0-.09-.05-.16-.08-.24h-.2Z"/><path class="cls-2" d="M67.77,110.1l0,0-.1,0Z"/><polygon class="cls-2" points="24.45 46.09 24.35 46.03 24.34 46.24 24.45 46.09"/><path class="cls-2" d="M74,116.76a.26.26,0,0,0,.19.08S74.11,116.79,74,116.76Z"/><path class="cls-2" d="M79.28,115.43l.79,0A4.31,4.31,0,0,0,79.28,115.43Z"/><path class="cls-2" d="M83.37,114.55a.64.64,0,0,0,0-.22h0Z"/><path class="cls-2" d="M86.65,81.14a1.36,1.36,0,0,0,0-.2C86.68,80.47,86.65,80.79,86.65,81.14Z"/><path class="cls-2" d="M88.56,99.13a5,5,0,0,1,.28-.57C88.58,98.75,88.39,98.91,88.56,99.13Z"/><path class="cls-2" d="M92.23,60.5h0v0Z"/><path class="cls-2" d="M89.42,98a1.65,1.65,0,0,0-.58.6A1.85,1.85,0,0,0,89.42,98Z"/><path class="cls-2" d="M95.11,101.17l0-.23a.11.11,0,0,1-.08,0Z"/><path class="cls-2" d="M95,100.94l-.13-.22C94.88,100.83,94.92,100.92,95,100.94Z"/><path class="cls-2" d="M94.55,100.27l.3.45C94.78,100.55,94.73,100.33,94.55,100.27Z"/><path class="cls-2" d="M94.61,107.53l.12.15C94.72,107.62,94.68,107.58,94.61,107.53Z"/><path class="cls-2" d="M93.61,109.25c.16-.17.42-.35.65-.59a1.84,1.84,0,0,0,.57-.87l-.1-.11C94.84,108.11,93.67,108.77,93.61,109.25Z"/><path class="cls-2" d="M86.45,111.39c.44-.12.88-.24,1.31-.39-.29-.07-.67-.18-.13-.46C85.87,110.67,88.13,110.8,86.45,111.39Z"/><path class="cls-2" d="M82.27,112.38c.71-.28-.08-.26-.07-.37C81.79,112.3,81.69,112.37,82.27,112.38Z"/><path class="cls-2" d="M76,106.33l0,.44C76.55,106.56,76,106.61,76,106.33Z"/><polygon class="cls-2" points="81.11 102.53 80.51 102.43 80.38 102.89 81.11 102.53"/><polygon class="cls-2" points="85.62 104.09 85.4 104.27 86.27 103.67 85.62 104.09"/><path class="cls-2" d="M96.45,54.39l-.53.21C96.05,55,96.66,55.06,96.45,54.39Z"/><path class="cls-2" d="M87.49,32.82a1.14,1.14,0,0,0-.78-1.1C87.08,32.12,87.26,32.67,87.49,32.82Z"/><polygon class="cls-2" points="24.61 38.68 24.8 38.2 24.3 38.98 24.61 38.68"/><path class="cls-2" d="M92.6,110.49c-.15,0-.46.14-.39.16l.55-.15Z"/><path class="cls-2" d="M91.69,111.1a5.24,5.24,0,0,0,1.24-.33c-.53.12-.32,0-1,.19-.07,0,.15-.13.35-.19-.14,0,.1-.1-.24,0s-.4.27,0,.22A1.9,1.9,0,0,1,91.69,111.1Z"/><path class="cls-2" d="M91.75,115.3l.07,0Z"/><path class="cls-2" d="M91.27,117.52s-.06,0-.11-.06A.29.29,0,0,0,91.27,117.52Z"/><path class="cls-2" d="M90.57,117.62h.05C90.57,117.61,90.54,117.6,90.57,117.62Z"/><path class="cls-2" d="M91.75,115.3l-.17.08C91.77,115.37,91.72,115.33,91.75,115.3Z"/><path class="cls-2" d="M93.18,111.25a.84.84,0,0,0-.16,0l.07,0Z"/><path class="cls-2" d="M91.16,114.31h0l-.23,0Z"/><path class="cls-2" d="M90.91,113.54s.45-.09.66-.13a1.05,1.05,0,0,1-.33,0Z"/><path class="cls-2" d="M91.37,112h0Z"/><path class="cls-2" d="M91.15,114.89l-.17,0Z"/><path class="cls-2" d="M73.44,118.6h0Z"/><polygon class="cls-2" points="75.96 117.61 75.98 117.63 76.24 117.71 75.96 117.61"/><path class="cls-2" d="M89.82,117.78h0Z"/><path class="cls-2" d="M85,121.23c.22.37.08.56.36,1A4.1,4.1,0,0,0,85,121.23Z"/><path class="cls-2" d="M93.12,111.29l0,0S93.14,111.29,93.12,111.29Z"/><path class="cls-2" d="M85.33,122.19h0l0,0Z"/><path class="cls-2" d="M89.3,118.78l.14.16Z"/><path class="cls-2" d="M90.46,118.57l-.06,0Z"/><path class="cls-2" d="M89.23,119.68s-.08-.07-.06,0l0,0C89.18,119.66,89.17,119.63,89.23,119.68Z"/><path class="cls-2" d="M88.65,120.05l.06.08v0Z"/><path class="cls-2" d="M74.56,121.8c.11-.09.23-.17.36-.26C74.63,121.73,74.44,121.65,74.56,121.8Z"/><path class="cls-2" d="M92.92,111.33l.2,0,0,0Z"/><path class="cls-2" d="M91.33,122.84l-.16,0A.21.21,0,0,0,91.33,122.84Z"/><path class="cls-2" d="M80.37,125.71l-.05.05S80.35,125.76,80.37,125.71Z"/><path class="cls-2" d="M90.86,123.15a1.3,1.3,0,0,0-.24-.24l0,.11Z"/><path class="cls-2" d="M74.92,121.54Z"/><path class="cls-2" d="M73.41,121c0,.18.6-.14,1-.23.24.11-.4.25-.67.44.21.06.78-.1.79,0a1.07,1.07,0,0,1-.24.12c.5-.11.18.34.81.15l-.13.09c.26-.17.54-.33.75-.44,0,0,.4-.11,0,.12,0,0-.15,0-.27.09l.19,0c-.49.36-.23,0-.61.25.24,0,.73-.11.64.06-.48.33-.29-.1-.65.3l.1-.26c-.72.58,0-.12-.78.49,0,.29.39.07.37.35.3-.15.39-.29.68-.43.64-.12-1,1.06-.27.78.34-.2.92-.64.72-.28l-.54.38c.09.2.79-.53.6-.08-.22.15-.27,0-.31.1-.29.45.35-.17.42-.1l-.42.41c.22.12.69,0,.93.05a1.35,1.35,0,0,0-.35.4c.41,0,.45.46.5.94l.38-.35s-.09.22-.17.28c0,.22.19-.26.35-.39s-.09.29-.21.39c.42-.24,1-.47.87.09l-.1.11c0,.26.64-.83.55-.35l-.06.07c.21.36.73.06.73.88.28-.67.25.41.57-.55,0,.54-.06.71.16,1.1.08.07.26-.59.38-.67l-.11.52.24-.52,0,.63.11-.11a.86.86,0,0,1,0-.4c.17-.2.27.41.24.68l.38-.4a1.08,1.08,0,0,1-.15.4c.23-.51,0,.56.19.09a2.68,2.68,0,0,1,0-.42c0,.33.24.34.37.21l0,.36c.25.11.53-.15.79-.16a1.48,1.48,0,0,1,0-.86l0,.56c0-.35-.08-.21,0-.64.1.07.09.64,0,.82l.11-.2a3.84,3.84,0,0,1,0,.47c0-.34.25.55.29-.06l0,.17c.27,0,.38-.22.59-.27-.06-.48,0-.39,0-.78.16.13.39.48.57.41.08-.26,0-.41,0-.7.09.43.26.35.23.68.2-.12.26-.14.44-.55a1.42,1.42,0,0,1-.14-.39c0-.08.15.16.19.36v0c.11-.7,1,1,1,.1v0l.08-.53c.13,0,0,.34.21.57,0-.78.44,0,.47-.58.63,1.15.53-.3,1,.37l-.14-.27c-.06-.3.14.13.21.18-.1-.22-.17-.23-.2-.39.29-.53,1.1,0,1.68,0,.2,0-.64-1.45-.1-.91l.21.53c0-.76.66-.33.68-1,0,.13.13.27.1.29.27.32.25-.12.08-.41.06,0,.16.26.28.39s-.11-.55.13-.22a.54.54,0,0,1,.06.16c-.06-.19.22-.07-.07-.45.23.12.11-.31.35-.13-.22-.49.34.09-.05-.56.41.66.55.39.42,0,.11.21.2.16.36.45.08-.07.08-.25-.16-.57.7.65-.13-.82.67.06A6,6,0,0,1,92,121c.53.57-.19.28.36.88,0-.45-.33-1,0-1.11.13,0,.22.26.29.37,0-.43.46-.42.28-.9a1,1,0,0,1,.14.17c0-.06.16,0-.13-.23l0,.1c-.46-.24-.76-.78-1-.93.8.63.35,0,1.34.74a.92.92,0,0,0-.35-.3c.08,0,.21,0,.41.23-.06-.26-.42-.39-.34-.53a3.16,3.16,0,0,1,.36.26c-.25-.25-.5-.47-.31-.52s.21.1.19.13c.08-.25-.63-.72-.25-.82.66.34.26,0,.86.22l-.12-.2-.32,0c.06-.11-.36-.35-.13-.38l.22.16,0-.25-.27,0c-.28-.2-.78-.22-.57-.3.06,0,0-.09.42,0h0c-.18-.11-.38-.2-.21-.24s.69.16.82.18c-.51-.16-.09-.29-.64-.46a3.5,3.5,0,0,0,.52.11l-.42-.12a1.2,1.2,0,0,1,.48,0c.11-.14-.81-.08-.43-.2,0,0,.09,0,.16.06.2-.16-.24-.37,0-.51.64,0,.14.15.69.14-.09-.27-.75-.54-.59-.76l-.07,0c-.91,0,.45-.17,0-.28.07,0,.5,0,.4,0,.14-.16-.23-.32-.53-.53h.23c.2-.1.1-.24.2-.35a1.24,1.24,0,0,0-.54,0c1.3-.47-.78-.45.28-.87,0,0,.21,0,.21,0l-.25-.19a2.76,2.76,0,0,0-.53.17c-.23,0-.42,0-.43-.06a1.88,1.88,0,0,0,.83-.2l-.37.07c.67-.25-.79.13-.35-.11l.21,0c-.12,0-.4,0-.35-.1.44-.12.22,0,.59-.06,0-.08-.88,0-.45-.16.13,0,.14.06.27.07.51-.2.37-.18.44-.26h0l.21-.2-.14.07c-1.19.16-.26-.17-1-.12.75,0,.42-.09.92-.2a1.43,1.43,0,0,1,.42-.19c-.42,0,.29-.2-.33-.14.16,0,0-.08.41-.17-.15-.06-.28.1-.48.14-.59,0,.58-.5-.23-.48-.36-.08-.91,0-1.22,0a1.71,1.71,0,0,1,.6-.13c.21-.15.14-.2-.06-.22a2.12,2.12,0,0,0,.43-.16c-.07,0-.6.14-.39,0s.47-.11.66-.14c-.17,0-.49,0-.66,0a2.14,2.14,0,0,1,.63-.12,1.06,1.06,0,0,0-.77,0l-.14.1a1.39,1.39,0,0,1,.46-.14c.37,0-.12.15-.28.21l-.12,0c-.91.35.22.16.2.29l-.69.17.59-.07a1.91,1.91,0,0,1-.66.19c-.31.18.26,0-.09.17a.23.23,0,0,1-.12,0l.23,0c-.15,0-.48.15-.4.08-.35.25.58.06.07.26h0c.28.12.5-.13,1.14-.16l-1.22.45.51-.13s0,.07-.24.12c.36,0,.21-.07.55-.12-.44.22.28.2-.52.43.39-.07.27-.16.57-.14-.86.26.18.08-.2.27s-.24,0-.62.13c.78-.14-.12.2,0,.23.6-.14.28.09.51.16-.2,0-.28.29-.48.44l-.11,0c.62-.11.53,0,.67.09a2.91,2.91,0,0,1-.69.06l0,.08a.74.74,0,0,1,.39,0l-.47.06c0,.09.58.11.29.28a5.27,5.27,0,0,1,1.5-.18,3.9,3.9,0,0,1-.74.08s.21,0,.11,0h-.4c-.17.09.33,0,.3,0-.33,0-.23.07-.5.1,0,0,.13-.06,0-.06a1,1,0,0,1-.49.2,1.25,1.25,0,0,1,.5,0c0,.09-.4.08-.57.16.24,0,0,.08.5,0,0,0-.23.06-.37.08.23,0,.09.23.62.12h.06c.52.14-.27.38,0,.53h-.17c.2.1.12.22.48.3a1.24,1.24,0,0,1-.51,0c.12.08.31.1,0,.19-.29-.08-.26,0-.22-.08-.15.09-.41.09,0,.22-.43-.06-.55,0-.43.07l.32,0c.06.06,0,.1,0,.14l-.56-.08c-.7.06,1.14.47,0,.41.39.12.29,0,.75.08a1.28,1.28,0,0,1-.49,0c-.22,0-.42,0-.43,0-.32,0,.8.28.55.34a2.48,2.48,0,0,1,.89.31,2.24,2.24,0,0,1-1-.24s0,0,.12,0a.63.63,0,0,0-.36-.13l.19.07c-.21,0-.21.07-.52-.05a.65.65,0,0,0,.42.12c-.3,0,0,.14-.27.15a2,2,0,0,1,.33.11c-.29,0,.33.2.37.34-.3-.07-.67-.31-.47-.12a1.94,1.94,0,0,1-.63-.3c.32.24-.3,0-.38,0l-.13-.1c.08.06.07.07.06.09l.37.17a.46.46,0,0,1-.23-.08c.22.15.6.3.9.53-.2-.07.14.21-.33-.05.2,0-.47-.27-.51-.39,0,.05,0,.06,0,0a.31.31,0,0,1-.12-.08c-.45-.18.5.35.43.43a1.46,1.46,0,0,0-.45-.26,2.5,2.5,0,0,1,.61.44c-.24-.08.1.16,0,.18l.12,0c.23.19.18.2.22.3-.19-.14-.1-.14-.19-.19.39.39-.51-.23-.28.05-.18-.11-.44-.37-.56-.44.24.32-.36-.23-.17.05a2,2,0,0,1,.49.52c0-.11-.07-.21-.11-.31.12.16.25.32.36.48,0,0-.11-.25,0-.23a1.42,1.42,0,0,0,.41.4c-.5-.36.16.36-.2.13l-.72-.72c-.38-.25.23.51-.06.42l.15.11c.24.31,0,.1,0,.26a4.69,4.69,0,0,0-.46-.49c.16.19-.09,0,.31.59l-.33-.31c-.21-.07.45.87.26.86a5.93,5.93,0,0,1-.44-.75s-.11,0,0,.18c-.14-.16.16.45-.06.21.07.13.26.43.2.44l-.09-.14a1.91,1.91,0,0,0,.3.52c-.7-.81-.32.29-.91-.41a.74.74,0,0,1-.16.38c0-.09-.08-.14,0-.12-.27-.21.42.88.11.65-.34-.43-.08-.3-.23-.45-.57-1-.08.22-.49-.29v-.07c-.26-.28,0,.46-.11.46a1.23,1.23,0,0,0-.08-.15,1.61,1.61,0,0,1,.11,1,2.25,2.25,0,0,0-.3-.6c0,.08.36.61.32.78a4.44,4.44,0,0,1-.55-.76l.08-.07c-.33-.51-.11.08-.2,0l-.12-.24c-.1.15.21.75,0,.78l.11.17c.22.64-.24-.3-.1.19l-.33-.6a3.53,3.53,0,0,1,.05.85,9.29,9.29,0,0,1-.22-1.07s-.15.14,0,.45c0-.07,0-.23,0-.15.16.51.19.79.07.83-.54-1.2-.43-.16-.92-1.06,0,.52-.45,0-.63.12.45.92,0,0,.34,1,0,.09,0,.08-.08,0l-.38-.53c-.14-.27,0-.23-.12-.45-.13,0-.2-.4-.36-.64.14.35.15.52,0,.4l.25.43c0,.58-.42-.79-.39-.21l-.06-.33c0,.21-.27.07-.11.91a1.68,1.68,0,0,1-.13-.47c-.21-.06-.19,1-.46.52l0-.26c0,.08,0,.49,0,.25a1.1,1.1,0,0,0-.06-.27c0,.09,0,.46-.07.32l0-.29c-.24-.3-.14.75-.28,1a2.14,2.14,0,0,0-.38-1.08v-.11c-.2-.06-.26.65-.45,1-.15-.82-.41-.33-.58-.8a2.65,2.65,0,0,1-.06.66c0-.16-.16.52-.11-.17h0c0-.68-.08-.5-.14-.53l-.09.9c0-1.32-.58.42-.44-.77-.09.22-.13.21-.22.42l.11-.47c-.06-.14-.09-.23-.24-.15l.13-.32s-.52,1.3-.62,1.3l.23-.69c-.14,0,0-.66-.39-.13a1.5,1.5,0,0,1,.18-.29c-.05,0,0-.55-.43.34.31-.57-.09-.11-.31.08l.26-.4c-.37.49-.46.63-.64.72,0-.07.19-.34.15-.22.07-.25-.3.35-.24.08l.2-.23c0-.07-.13.07-.38.33s-.06-.2.19-.55c-.16.21-.41.46-.38.33s.18-.2.21-.24c.1-.33-.52.31-.28-.12a1.63,1.63,0,0,0,.17-.22c.07.08.12.15.09.17a6.8,6.8,0,0,1,.7-.88c-.25.23-.8.69-.72.49l.1-.12,0,0s0,0-.08,0,.06-.12,0-.14c.24-.27.07-.19.06-.23-.34.34-.32.24-.57.56,0,0,0,0,.08,0l0,0,0,0,.1.05c-.19.16-.36.28-.21.06-.24.19-.48.4-.59.5a14.17,14.17,0,0,1,.92-1.14,2.12,2.12,0,0,0-1.07.41c-.11,0,.18-.19.29-.29a.59.59,0,0,0,.2-.08c-.23.09-.2-.11-.73.24.18-.24.5-.29.35-.34l.17-.09c.37-.38,0-.22-.39-.13s-.73.11-.2-.29a.57.57,0,0,1-.19.12c.18-.26,0-.35-.12-.48s-.21-.29.19-.5c.17-.11-.22-.06-.54-.08l.52-.07-.6,0c-.46-.14,1.25-.24.43-.39h-.35c.07-.06-.19-.22.21-.17-.06,0-.36-.05-.18-.06l.27,0a3.42,3.42,0,0,1-.43-.21c.21-.08,1.06.2,1.13.09a6.76,6.76,0,0,0-.92-.37s-.17,0-.44,0l-.12-.1a5.4,5.4,0,0,0-2.13-.4c.14.1.29.19.44.28l-.39,0v-.16c-.37,0-.07.14.14.24a1.55,1.55,0,0,0-.44,0c.24.11.48.2.72.29-.31,0-.59-.17-.79-.07.34.13.71,0,.92.18-.37,0-.66,0-.36.11a.84.84,0,0,1-.42-.09c.24.12.09.26.51.33-.45.07.1.29-.65.28a1.83,1.83,0,0,1,.63.22c-.91-.11,0,.31-1,.35.82,0,.4.39.89.51-.07,0-.2,0-.16,0s-.28.2-.41.3a5.41,5.41,0,0,1,1.26,0c-.6.29-.78.12-1.37.32.52-.14.58.09,1-.08a3.45,3.45,0,0,1-.68.35c.81-.24.17,0,.68,0-.34.27-.73.3-.43.37A.78.78,0,0,1,73.41,121Zm3.22,2.19h0l-.06,0Zm.21.18a.25.25,0,0,0-.08-.1c.1-.13.22-.25.24-.23S76.9,123.21,76.84,123.35Zm1.91-2.78c.06,0,0,0-.06.12s0,0-.08,0l0,0Z"/><path class="cls-2" d="M78.27,121l0,0-.06.09.11-.11Z"/><path class="cls-2" d="M91.83,115.26h0l.07,0Z"/><polygon class="cls-2" points="79.99 125.88 80.01 125.76 79.97 125.86 79.99 125.88"/><path class="cls-2" d="M93.29,113.8l.12,0Z"/><path class="cls-2" d="M93.28,113.22l.15-.12Z"/><path class="cls-2" d="M93.42,112.74l-.21,0h0Z"/><path class="cls-2" d="M93.08,120.45a0,0,0,0,0,0,0C93.13,120.58,93.12,120.53,93.08,120.45Z"/><path class="cls-2" d="M93.1,117.78a1.17,1.17,0,0,1,.2.12S93.37,117.84,93.1,117.78Z"/><polygon class="cls-2" points="91.35 122.84 91.35 122.83 91.33 122.84 91.35 122.84"/><path class="cls-2" d="M93.26,118c.11,0,.1,0,0-.1S93.2,118,93.26,118Z"/><path class="cls-2" d="M93.1,110.87v0l-.07,0Z"/><path class="cls-2" d="M93,110.86H93S93,110.88,93,110.86Z"/><path class="cls-2" d="M92.85,110.85H93S93,110.82,92.85,110.85Z"/><path class="cls-2" d="M93.06,111.48l.17,0Z"/><path class="cls-2" d="M93.16,111.63s.33-.21.2-.23l-.13,0C93.49,111.38,92.87,111.68,93.16,111.63Z"/><path class="cls-2" d="M91.27,112.89l.1-.17c-.17.08-.4.17-.46.13C90.41,113.15,91.3,112.7,91.27,112.89Z"/><path class="cls-2" d="M91.11,113.36c-.1,0-.26.06-.36.08A.5.5,0,0,0,91.11,113.36Z"/><path class="cls-2" d="M91.47,116.15l-.43,0C91.1,116.18,91.21,116.14,91.47,116.15Z"/><polygon class="cls-2" points="93.7 116.89 93.97 116.85 93.58 116.78 93.7 116.89"/><polygon class="cls-2" points="90.56 116.81 90.5 116.78 90.64 116.87 90.56 116.81"/><path class="cls-2" d="M88.53,119.62l.3.45C88.81,120,88.5,119.45,88.53,119.62Z"/><path class="cls-2" d="M86.94,121.15c-.14-.23-.27-.36-.18-.1C86.81,121.06,87,121.22,86.94,121.15Z"/><polygon class="cls-2" points="81.25 121.69 81.3 121.52 81.22 121.66 81.25 121.69"/><path class="cls-2" d="M47.28,70.81c.15,0,.45-.16.35-.24l-.55.14Z"/><path class="cls-2" d="M48,69.75a2.2,2.2,0,0,0-1.25.32c.55-.1.35,0,1-.11.1.07-.09.24-.29.3.14,0-.06.2.29.12.36-.29.31-.47-.1-.5A1,1,0,0,1,48,69.75Z"/><path class="cls-2" d="M40.34,62.72l.09.06A.12.12,0,0,0,40.34,62.72Z"/><path class="cls-2" d="M36.72,68.91a.15.15,0,0,0-.15,0C36.63,68.92,36.69,69,36.72,68.91Z"/><path class="cls-2" d="M37.26,70.64l0-.11C37.2,70.6,37.21,70.65,37.26,70.64Z"/><path class="cls-2" d="M40.34,62.72l-.23-.15C40.12,62.76,40.24,62.69,40.34,62.72Z"/><path class="cls-2" d="M46.16,69a.44.44,0,0,0,.17,0l-.09,0Z"/><path class="cls-2" d="M43.77,62.74l.06,0,.14-.19Z"/><path class="cls-2" d="M46.06,64.11s-.36.29-.52.43c.16-.12.25-.17.31-.16A1.7,1.7,0,0,0,46.06,64.11Z"/><path class="cls-2" d="M47.68,67.7l.09,0A.32.32,0,0,0,47.68,67.7Z"/><path class="cls-2" d="M41.92,62.15a.92.92,0,0,0,0-.18A.55.55,0,0,0,41.92,62.15Z"/><path class="cls-2" d="M79.24,100.12l-.08,0S79.24,100.14,79.24,100.12Z"/><polygon class="cls-2" points="78.13 103.54 78.09 103.52 77.84 103.61 78.13 103.54"/><path class="cls-2" d="M40.36,72.19h0C40.24,72.25,40.3,72.24,40.36,72.19Z"/><path class="cls-2" d="M54.1,78.8c.15-.46.64-.16.74-.73C54.73,78.23,54.11,78.41,54.1,78.8Z"/><path class="cls-2" d="M46.19,68.94a.25.25,0,0,1,0-.07S46.16,68.93,46.19,68.94Z"/><path class="cls-2" d="M54.84,78.07h0v0Z"/><path class="cls-2" d="M44.84,70.52c0-.08,0-.14,0-.2A1.19,1.19,0,0,0,44.84,70.52Z"/><path class="cls-2" d="M41.9,70.85l.12,0A.21.21,0,0,0,41.9,70.85Z"/><path class="cls-2" d="M45.82,70.13c0,.05,0,.11.06.08v0S45.81,70.22,45.82,70.13Z"/><path class="cls-2" d="M47.05,71.13,47.1,71,47,71Z"/><path class="cls-2" d="M75.74,95a2.28,2.28,0,0,1-.29.33C75.7,95.11,76,95.28,75.74,95Z"/><path class="cls-2" d="M46.4,68.9a.41.41,0,0,1-.21,0,.1.1,0,0,0,.05,0A.59.59,0,0,0,46.4,68.9Z"/><path class="cls-2" d="M47.85,66.92l.33.3A1.07,1.07,0,0,0,47.85,66.92Z"/><path class="cls-2" d="M66.1,84.88h.09S66.15,84.85,66.1,84.88Z"/><path class="cls-2" d="M49.14,67.89a.91.91,0,0,0-.07.39.52.52,0,0,0,.12-.07Z"/><path class="cls-2" d="M75.44,95.35h0Z"/><path class="cls-2" d="M77.61,96.4c-.16-.26-.6.23-.93.38-.36-.19.28-.4.48-.69-.27-.09-.85.1-.92,0a.42.42,0,0,1,.22-.16c-.55.09-.45-.57-1.12-.41a.63.63,0,0,1,.1-.12,4.91,4.91,0,0,1-.66.55c-.09-.09-.47,0-.17-.24,0,.07.18,0,.3-.07h-.22c.39-.46.27,0,.62-.24-.32-.11-.89-.06-.89-.32.43-.39.46.26.69-.28l0,.4c.58-.76.07.2.71-.58-.13-.46-.53-.2-.67-.65-.31.13-.35.33-.67.45-.82-.1.84-1.3,0-1.15-.37.16-1,.6-.87.11l.57-.34c-.22-.36-.87.43-.82-.19.25-.11.38.11.4,0,.21-.56-.41.09-.55-.07l.4-.42c-.36-.26-1-.35-1.4-.63.15-.09.34-.16.39-.36-.62-.25-.83-1-1-1.67l-.52.19s.09-.23.2-.25c0-.3-.23.21-.45.27s.09-.32.25-.37c-.59,0-1.45-.17-1.37-.85l.16,0c-.09-.38-1,.47-.87-.08l.1,0c-.35-.66-1.23-.87-1.09-1.79-.58.45-.27-.72-1,0,.06-.64.27-.69.1-1.33-.08-.14-.6.3-.81.25l.36-.39-.57.23.35-.55-.22,0a.51.51,0,0,1-.18.38c-.36,0-.22-.73,0-.93l-.77-.12c.16-.15.29-.12.44-.16-.62.15.34-.45-.23-.31,0,.12-.23.21-.31.28a.55.55,0,0,0-.43-.68l.29-.22c-.29-.4-.85-.58-1.24-1,0,.26-.45.68-.6.62l.34-.45c-.31.18,0,.27-.47.42-.1-.18.34-.55.55-.6l-.31,0c.11-.13.21-.15.37-.29-.31.18.08-.7-.44-.37l.11-.13c-.39-.37-.7-.4-1-.69-.34.34-.39.15-.75.34-.13-.34-.12-.86-.43-1.1-.36,0-.34.24-.63.36.29-.33,0-.57.35-.66a2.41,2.41,0,0,0-1.16-.5c-.08.18-.08.28-.21.36s0-.3.11-.44h0c-.93,0-.21-2-1.22-1.69h0l-.73,0c-.12-.23.34-.13.4-.46-.94.12-.6-.72-1.29-.7.63-1.2-1-.86-.81-1.81l-.19.24c-.3.12,0-.24,0-.35-.16.18-.09.29-.26.36-1.06-.51-1.34-1.92-2-2.9-.24-.35-1.26,1-1.14.08l.5-.3c-1.07-.1-1.21-1.21-2.21-1.37.13-.06.25-.18.31-.12.16-.42-.45-.46-.69-.22-.06-.12.19-.24.25-.42s-.68.07-.46-.29a.25.25,0,0,1,.18-.06c-.22.07-.35-.4-.6,0-.07-.38-.59-.28-.61-.67-.48.27-.31-.61-.84-.07.53-.58-.17-.94-.61-.77.21-.14-.08-.33.18-.55-.29-.17-.66-.18-.77.21-.08-.56-.51-.52-.83-.45s-.59.15-.73-.47a7.63,7.63,0,0,0-2.58,1.24c-.24-.75.76-.32.54-1.09-.72.52-.79,1.28-1.41,1.34-.17,0-.06-.34-.05-.49-.44.54-1,.37-1.23.88a.55.55,0,0,1,0-.22c-.06,0-.19-.06-.08.28l0-.11c.29.44,0,1.1.06,1.37-.05-.5-.19-.54-.27-.62s-.13-.2-.2-.84a3.5,3.5,0,0,0,0,.47c-.06-.06-.07-.19-.07-.47-.1.21-.06.59-.22.58,0-.17.05-.24.07-.44-.06.3-.18.59-.3.54s0,0,0,0,0-.23.09-.23-.28.21-.47.31-.41.13-.44-.11c.55-.53.09-.26.53-.75l-.2,0a2.39,2.39,0,0,0-.21.26c-.06-.09-.52.07-.4-.17l.27,0a1.46,1.46,0,0,1-.21-.16,1.28,1.28,0,0,0-.15.25c-.37,0-.72.42-.66.08.09,0-.08-.21.27-.41h0c-.2,0-.46-.09-.32-.27s.71-.08.84-.12c-.55,0-.18-.36-.74-.5a1.77,1.77,0,0,0,.53.05l-.43-.09a.61.61,0,0,1,.48,0c.11-.23-.81,0-.43-.28,0,0,.1,0,.16.09.22-.24-.14-.66.19-.83.61.23.05.26.58.41,0-.15-.09-.37-.12-.6s0-.46.26-.51h-.1c-.25-.38-.12-.36.06-.26s.38.24.37,0a1.13,1.13,0,0,0,.14.38c.28,0,.33-.41.72-.78v.24c.19.17.43,0,.61.16,0-.24.15-.21.08-.54.29.66.51.5.82.35s.65-.31.72.3c-.06,0-.2.15-.16.16a4,4,0,0,1,.47-.05c.12-.38,0-.25.06-.57s.35-.31.46-.26c-.31.15-.24.59-.27.82,0-.12.13-.23.17-.34-.09.74.39-.7.49-.11l-.11.17c.16,0,.41-.2.5-.07-.2.41-.23.11-.44.42.16.06.81-.5.69,0-.14.06-.24,0-.38,0-.16.55-.07.44,0,.58h0l.07.38,0-.16c1-.75.5.14,1.28-.17-.76.28-.34.26-.74.6,0,.16-.09.35-.22.43.41-.17-.1.38.5.14-.13.11.08.13-.27.37.22.06.21-.21.38-.34.65-.1-.16,1,.72.88.48.16,1,0,1.44.16a.71.71,0,0,1-.59.19c-.12.3,0,.41.24.5a.83.83,0,0,0-.38.25c.11.12.59-.17.46.12a6.58,6.58,0,0,1-.67.15c.21.09.57.12.79.23-.25.16-.45.08-.65.1a1,1,0,0,0,.91.26l.09-.19c.06.06-.34.19-.44.17-.41,0,0-.3.19-.38l.15.08c.84-.53-.37-.43-.44-.69l.7-.21H47c.14-.14.47-.36.63-.28.22-.34-.3,0,0-.38a.14.14,0,0,1,.12,0l-.28-.08c.15,0,.42-.27.39-.11.19-.52-.75-.25-.35-.64h.05c-.47-.31-.48.22-1.19.24.32-.3.63-.6.94-.92l-.46.26c0-.06,0-.17.15-.27-.41,0-.17.16-.51.26.24-.48-.58-.39,0-1-.36.18-.09.38-.47.35.64-.64-.31-.13-.16-.57.39-.27.36.07.51-.39-.67.44-.21-.46-.48-.5-.43.45-.5-.11-.9-.15.15-.16-.33-.67-.54-1l.06-.09c-.36.53-.59.26-.87.3.16-.35.26-.47.46-.56l-.23-.1a.54.54,0,0,1-.41.25l.23-.42c-.34-.1-.79.31-1.11-.08-.1.43,0,1.24-.41,1.46,0-.23.1-.63.22-.71,0,0-.15.17-.2.06l.23-.36c-.14-.21-.15.31-.28.24.06-.33-.06-.25,0-.51,0,0,.1.16.18,0a.9.9,0,0,1-.36-.58c0,.19-.06.45-.18.48-.32,0-.08-.42-.26-.6-.1.23-.31,0-.32.48-.09,0-.11-.23-.15-.37-.18.22-.83.13-.57.64l.05,0s0,0,0,0h0a.76.76,0,0,1-.78.23c-.29,0-.62-.06-.82.17l-.08-.15c-.21.31-.59.48-.54.91-.07,0-.37-.1-.47-.28-.11.3,0,.42-.46.55,0-.41-.28-.09,0-.36-.35.18-.65.14-.46.72a.33.33,0,0,0-.59.24l.41-.11a1.91,1.91,0,0,1-.23.5L36,65c-.49.29-.29.78-.11,1.14s.35.62-.22.94c.4.18.28-.43.75-.24-.09.3-.86.75-.84.88-.21.58.89.35.85.88.16-.15.66-.36.94-.16,0,.28-.56.78-.82.64a.11.11,0,0,1,0-.17c-.11-.07-.25-.19-.4,0l.21,0c-.12.26.18.74-.16.81.33.17.33-.08.32-.32,0,.61.42.66.67,1.16,0-.14.12-.37.17-.31.41.67.48-.1.89.08.07.38-.46.6.11.59.19.32-.15.53-.36.61.51-.11.73.3,1,.58a.73.73,0,0,0,.18.11l-.22.08-.11,0,.11,0a1,1,0,0,1,.39,0l-.1-.42c.15.09.29.11.27.27.19-.25,0-.67.3-1,.18.22.54-.23.64.29-.64-.13.11.55-.48.66a.53.53,0,0,1,.43,0s0,.11-.06.14c.74.41.28-.62.9-.74,0,.31.27.53.34.43-.22.06-.23-.46-.12-.73.38.13.27-.28.42-.3l-.2,0c0-.3.11-.31.25-.47.11.21-.11.21,0,.29,0-.58.66.33.79-.12.2.14.24.52.4.61.12-.49.47.25.6-.16-.23-.35-.21-.25-.17-.7l-.34.46.06-.67c-.13,0-.19.36-.31.33,0-.37,0-.27-.16-.55.44.48.25-.5.63-.2l.36.95c.44.31.34-.68.73-.5l-.13-.16c0-.39.2-.1.27-.26a4.41,4.41,0,0,0,.13.67c0-.26.13,0,.22-.65a2.22,2.22,0,0,1,0,.45c.1.21.48-.88.74-.65-.22.31-.23.56-.46.75.06,0,.09.12.19-.1-.06.2.43-.29.34,0,.12-.11.32-.4.4-.31a.55.55,0,0,1-.09.14c.09-.15.29-.08.41-.45-.15.53,0,.66.25.79a.47.47,0,0,1,.24.71,3.12,3.12,0,0,1,.79.42c-.08.06-.12.12-.13.06,0,.47.83-.55.87,0-.23.54-.35.07-.41.3-.73.84.46.23.2.88h-.09c-.12.41.65,0,.83.33a.44.44,0,0,0-.11.12,1.69,1.69,0,0,1,1.34,0c-.37.24-.26.06-.53.42.15.06.47-.54.76-.43a2.15,2.15,0,0,1-.4.89L50,73.88c-.32.54.27.23.3.41l-.2.18c.36.23.84-.25,1.12.09l.11-.17c.64-.31-.11.41.41.22l-.42.54a3.81,3.81,0,0,1,1.16,0,3.53,3.53,0,0,1-1.25.27c.12.11.43.34.72.16-.09,0-.26.06-.24-.06.52-.24.88-.25,1.11,0-1,.9.36.81-.18,1.71.75,0,.67.93,1.19,1.33.55-.9.16.11.86-.67.16.06.19.11.15.17l-.1.77c-.13.3-.26.07-.42.25.19.29-.2.41-.24.77.23-.3.46-.31.5-.07l.14-.54c.72-.07-.32.92.4.85l-.33.13c.31,0,.64.63,1.39.19,0,.12-.21.36-.34.34.33.5,1.55.25,1.52.94l-.21.15c.13,0,.47-.21.39.07-.08.07-.21.15-.19.2s.52-.12.52.08l-.29.12c.18.64,1.12.1,1.58.31a1.12,1.12,0,0,0-.3,1.27l-.08.07c.41.52,1.24.33,1.88.54-.29.85.69,1.13.81,1.89A.75.75,0,0,1,62,86c0,.21.65-.11.15.38l0,0c-.39.56-.06.64.1.81l.65-.62c-.48,1.36,1.47.74.88,1.82.27-.07.39.06.65,0l-.34.34a1.64,1.64,0,0,0,.74.81l-.31.18c.17.21,1.22-.76,1.43-.6l-.45.57c.35.33.26,1.13,1.06,1-.08.07-.24.21-.32.18.15.17.28,1,.92.2-.45.46.31.39.7.38l-.37.3c.58-.27.71-.38,1-.28,0,.09-.23.31-.21.16,0,.34.45-.19.48.2l-.3.14c.15.2.25.07.6-.08s.24.43,0,.75c.21-.16.56-.3.57-.11a.42.42,0,0,1-.27.17c0,.53.83.07.68.6a.57.57,0,0,0-.17.23c-.22-.25-.38-.46-.34-.46-.32.3-.2.54-.78.81.38-.08,1.16-.3,1.18,0a.61.61,0,0,1-.09.12l0,0c0,.07.07.08.16.07a.47.47,0,0,0,0,.25c-.25.26.06.35.13.46.35-.33.41-.15.6-.53,0,0-.06,0-.13,0h-.08l0,0a2.19,2.19,0,0,1-.24-.22c.25-.09.48-.14.37.15.28-.16.57-.32.71-.38-.38.58-.43,1.08-.71,1.39.47.12.74.59,1.6.2.17,0-.11.27-.2.39s-.15-.06-.27,0c.33,0,.49.46,1,.11,0,.4-.56.24-.23.48l-.18.08c-.33,1.21,2.06,0,1.52,1.5a.35.35,0,0,1,.12-.21c.1,1.11,1.6,1.39,1.3,2.69,0,.33.35.15.69.15l-.42.3.65,0c.58.17-.79,1.19.15,1.28l.29-.21c0,.19.44.45.06.58.06,0,.35-.09.22,0l-.25.11a6.44,6.44,0,0,1,.61.24c0,.4-1,.36-.88.84a1.63,1.63,0,0,0,1.08.08c0-.08.08-.24.34-.35l.19.12c.76-.26,1.59-.4,1.93-1l-.58-.13.32-.24.13.25c.28-.28-.06-.26-.31-.28a.79.79,0,0,0,.34-.29H79.1c.27-.16.62-.11.7-.38-.39,0-.58.41-.9.28.26-.29.55-.37.19-.41a.54.54,0,0,1,.43-.1c-.3-.05-.28-.36-.7-.25.33-.34-.34-.45.34-.77-.19,0-.66,0-.76-.11.93-.17-.22-.52.67-.91-.8.2-.68-.48-1.25-.57.06,0,.2,0,.18,0,0-.21.13-.38.2-.58-.59.33-.88.13-1.32.22.41-.55.75-.3,1.23-.69-.45.3-.69-.07-1,.24a1.64,1.64,0,0,1,.49-.62c-.72.42-.21-.08-.73.08.2-.46.62-.5.24-.61C77.21,96.35,77.61,96.4,77.61,96.4Zm-5.55-4.6h0l.12.08Zm-.39-.42a.87.87,0,0,0,.15.2c-.11.13-.25.23-.28.18S71.62,91.54,71.67,91.38ZM70,94.52c-.11,0-.05-.1,0-.18a.37.37,0,0,0,.14.07l.06,0Z"/><path class="cls-2" d="M70.59,94.21h0a.76.76,0,0,0,0-.11l-.13.07Z"/><path class="cls-2" d="M40.44,62.78h0a.15.15,0,0,1,0,.06S40.45,62.8,40.44,62.78Z"/><polygon class="cls-2" points="66.72 85.15 66.63 85.23 66.74 85.19 66.72 85.15"/><path class="cls-2" d="M43.17,64.87a.5.5,0,0,0,0,.12A.37.37,0,0,0,43.17,64.87Z"/><path class="cls-2" d="M44.07,65.54l0,.24A.72.72,0,0,0,44.07,65.54Z"/><path class="cls-2" d="M44.56,66.31l.16-.13h0Z"/><path class="cls-2" d="M40.75,67.84l0,0C40.81,67.69,40.78,67.75,40.75,67.84Z"/><path class="cls-2" d="M38.19,67.63l.25,0C38.45,67.6,38.46,67.56,38.19,67.63Z"/><polygon class="cls-2" points="47.81 66.88 47.8 66.89 47.85 66.92 47.81 66.88"/><path class="cls-2" d="M38.48,67.81c.07-.09,0-.12,0-.14S38.4,67.8,38.48,67.81Z"/><path class="cls-2" d="M46.48,69.82v.05l.07,0Z"/><path class="cls-2" d="M46.55,69.84l.07,0S46.6,69.83,46.55,69.84Z"/><path class="cls-2" d="M46.78,69.92l-.16,0S46.64,70,46.78,69.92Z"/><path class="cls-2" d="M46.13,68.57l-.16.07Z"/><path class="cls-2" d="M45.9,68.25c0,.1-.22.38-.06.44l.13,0C45.71,68.71,46.2,68.19,45.9,68.25Z"/><path class="cls-2" d="M46.77,65.64c0,.13.07.26.11.39.11-.16.26-.38.4-.27C47.44,65,47,66.09,46.77,65.64Z"/><path class="cls-2" d="M46.18,64.56c.21.09.19-.19.27-.26C46.23,64.32,46.18,64.33,46.18,64.56Z"/><path class="cls-2" d="M37.58,63.67l-.27-.34C37.19,63.53,37.42,63.45,37.58,63.67Z"/><polygon class="cls-2" points="38.66 66.1 38.95 66.11 38.59 65.92 38.66 66.1"/><path class="cls-2" d="M35.43,66.46l0-.1c0,.12.08.25.13.37A2.76,2.76,0,0,1,35.43,66.46Z"/><path class="cls-2" d="M46.53,71.23l.34-.43C46.74,70.81,46.32,71.25,46.53,71.23Z"/><path class="cls-2" d="M51,74.75c-.15.23-.15.47.1.35C51,75,51.07,74.74,51,74.75Z"/><polygon class="cls-2" points="62.62 87.21 62.42 87.27 62.67 87.31 62.62 87.21"/><path class="cls-2" d="M74.17,50.77c0,.15.11.47.16.38l-.11-.56Z"/><path class="cls-2" d="M75,51.55a2.51,2.51,0,0,0-.5-1.19,7.33,7.33,0,0,1,.29,1c-.06.1-.22-.11-.28-.31,0,.15-.15-.08-.08.27.23.38.45.35.4-.06A1.08,1.08,0,0,1,75,51.55Z"/><path class="cls-2" d="M73.23,43.87l.09.05A.14.14,0,0,0,73.23,43.87Z"/><path class="cls-2" d="M68.85,49.29a.11.11,0,0,0-.13-.07C68.76,49.27,68.81,49.32,68.85,49.29Z"/><path class="cls-2" d="M68.78,50.91a.28.28,0,0,0,0-.09S68.73,50.92,68.78,50.91Z"/><path class="cls-2" d="M73.23,43.87,73,43.73C73,43.91,73.12,43.85,73.23,43.87Z"/><path class="cls-2" d="M75,49.86a.51.51,0,0,0,.08.13.2.2,0,0,1,0-.07Z"/><path class="cls-2" d="M76.73,44.45l0,0,.2-.13Z"/><path class="cls-2" d="M78.18,46.88c0-.07-.46,0-.67,0a.49.49,0,0,1,.35,0Z"/><path class="cls-2" d="M76.81,50.62l0,.09S76.82,50.65,76.81,50.62Z"/><path class="cls-2" d="M74.88,43.36a.59.59,0,0,0,0-.17A.5.5,0,0,0,74.88,43.36Z"/><path class="cls-2" d="M83.32,97.8l-.09,0C83.29,97.82,83.32,97.82,83.32,97.8Z"/><polygon class="cls-2" points="81.58 100.72 81.55 100.69 81.28 100.75 81.58 100.72"/><path class="cls-2" d="M69.72,53.18h0C69.65,53.17,69.68,53.18,69.72,53.18Z"/><path class="cls-2" d="M73.39,68.86c.4-.26.59.24,1-.12C74.23,68.79,73.63,68.57,73.39,68.86Z"/><path class="cls-2" d="M75,49.88l0-.05S75,49.85,75,49.88Z"/><path class="cls-2" d="M74.41,68.74h0l0,0Z"/><path class="cls-2" d="M71.61,55.91l.19-.09Z"/><path class="cls-2" d="M71.15,53.32v.1A.19.19,0,0,0,71.15,53.32Z"/><path class="cls-2" d="M72.54,57.3c0,.05-.09.07,0,.12l.06,0C72.51,57.38,72.47,57.36,72.54,57.3Z"/><path class="cls-2" d="M72.75,59.05l.09,0,0,0Z"/><path class="cls-2" d="M81.86,92.6a3.89,3.89,0,0,1-.41.17C81.78,92.67,82,92.9,81.86,92.6Z"/><path class="cls-2" d="M75.18,50a.7.7,0,0,1-.14-.15v0Z"/><path class="cls-2" d="M76.32,56.88l0,.31A.63.63,0,0,0,76.32,56.88Z"/><path class="cls-2" d="M79.24,80.11l.07,0S79.3,80.12,79.24,80.11Z"/><path class="cls-2" d="M76.46,58.05a.87.87,0,0,0-.31.19l.12,0Z"/><path class="cls-2" d="M81.45,92.77Z"/><path class="cls-2" d="M83,94.33c0-.26-.63,0-1,0-.24-.27.42-.25.71-.43-.2-.15-.8-.17-.81-.32a.44.44,0,0,1,.26-.07c-.54-.1-.16-.61-.84-.71l.15-.07a5.14,5.14,0,0,1-.84.23c0-.11-.44-.13,0-.27,0,.08.17,0,.31,0l-.21-.08c.56-.24.24.12.67,0-.24-.2-.78-.37-.66-.6.56-.16.29.39.74,0l-.16.34c.85-.42,0,.19.89-.23.08-.41-.38-.36-.3-.77-.33,0-.46.13-.79.12-.69-.41,1.34-.73.49-1-.4,0-1.13.1-.81-.26l.67-.05c0-.37-1,0-.63-.48.27,0,.28.24.34.17.46-.36-.4-.1-.44-.29l.56-.16c-.17-.37-.67-.71-.87-1.12.18,0,.37,0,.52-.11-.39-.48-.17-1.17.06-1.76l-.53-.1s.2-.14.31-.1c.15-.25-.32,0-.53,0-.06-.11.25-.21.42-.17-.49-.27-1.11-.84-.66-1.33l.16,0c.14-.34-1.08-.14-.67-.5l.1,0c.09-.68-.5-1.31.15-1.94-.73,0,.19-.7-.81-.55.42-.46.62-.39.86-1,0-.14-.66-.09-.8-.24l.52-.1-.59-.13.6-.24-.16-.14a.54.54,0,0,1-.36.2c-.28-.21.25-.68.51-.73l-.54-.51a.74.74,0,0,1,.44.11c-.58-.22.54-.15,0-.36a1.21,1.21,0,0,1-.42,0,.49.49,0,0,0,.06-.75l.37,0c0-.45-.34-.89-.42-1.39-.13.21-.76.28-.85.14l.54-.15c-.35,0-.18.19-.63.07,0-.2.61-.24.8-.16l-.23-.19a3.28,3.28,0,0,1,.47,0c-.35,0,.49-.48-.12-.51l.16,0a10.22,10.22,0,0,0-.4-1.09c-.48.08-.4-.1-.8-.16.1-.32.42-.71.32-1.06-.28-.21-.41,0-.72-.07.43-.09.34-.44.68-.31a2.17,2.17,0,0,0-.61-1c-.17.09-.24.17-.39.16s.15-.26.36-.27l0,0c-.75-.51,1.05-1.6.08-2l0,0-.54-.43c0-.25.34.09.59-.12-.81-.44,0-.88-.57-1.25,1.23-.53-.27-1.22.49-1.8l-.3.07c-.32-.08.15-.17.21-.27-.24,0-.26.17-.43.12-.51-1,.16-2.18.29-3.26,0-.39-1.59,0-.93-.6l.58.07c-.77-.69-.18-1.59-.84-2.28.14,0,.31,0,.31.09.39-.21,0-.6-.38-.56,0-.12.3-.06.46-.16s-.57-.34-.17-.47c.06,0,.14,0,.17,0-.21-.08,0-.49-.46-.34.19-.31-.28-.52,0-.78-.55-.09.19-.52-.56-.49.78-.06.56-.59.18-.74.24,0,.22-.2.55-.16,0-.23-.22-.41-.6-.32.85-.56-.88-.7.24-1.17-.55-.63-1-1.2-1.42-1.75.73-.26.32.67,1.08.39-.52-.55-1.27-.62-1.4-1.27,0-.2.35-.08.49-.08-.58-.45-.67-1.22-1.34-1.37a.29.29,0,0,1,.23,0c-.09-.08-.07-.27-.33,0h.14c-.29.45-1.08.39-1.28.56.86-.54-.13-.52,1-1.18a.66.66,0,0,0-.44.22c0-.12.08-.23.34-.34-.37-.12-.57.22-.75,0a2.56,2.56,0,0,1,.38-.22c-.34.11-.69.22-.72,0,.08-.05.17-.16.21-.1-.26-.24-1.11,0-1-.49.7-.26.15-.22.73-.52l-.23,0-.27.17c0-.11-.51-.1-.34-.28l.28,0a1.66,1.66,0,0,1-.16-.21,1.74,1.74,0,0,0-.22.18c-.34-.1-.8.17-.65-.11.08,0,0-.21.37-.3h0c-.2-.08-.41-.21-.25-.34s.71.12.84.12c-.51-.15-.09-.36-.58-.63a1.86,1.86,0,0,0,.5.19l-.39-.2c.17,0,.23,0,.48.09.15-.18-.78-.23-.36-.38,0,0,.09.06.13.13.28-.17,0-.65.4-.76.55.33,0,.28.48.53.06-.32-.07-1.09.35-1.22l-.1,0c-.48-.77.5.21.42-.24a1.54,1.54,0,0,0,.15.37c.28,0,.31-.41.64-.79v.24c.18.19.38,0,.52.16,0-.23.12-.19.07-.53.12.32.2.45.29.49s.2-.06.33-.11a.55.55,0,0,1,.38-.09c.1,0,.16.18.08.45,0,0-.2.12-.17.14a.88.88,0,0,1,.36,0c.25-.31.13-.2.27-.49s.41-.2.5-.11c-.34,0-.44.45-.57.63a3.36,3.36,0,0,1,.29-.24c-.42.61.63-.48.45.07l-.18.11c.16,0,.45,0,.46.13-.38.26-.25,0-.57.18.07.1,1-.1.58.25-.14,0-.19-.12-.34-.13-.41.37-.3.32-.34.45h0c0,.11-.1.2-.15.3l.12-.1c.61-.09.67,0,.7.14s0,.24.41.36c-.76-.21-.43,0-1,0a.86.86,0,0,1-.44.17c.42.09-.31.17.29.33-.17,0,0,.12-.44.07.12.14.29,0,.5,0s.09.28-.08.39-.32.22,0,.5.7.67.78,1.13A.76.76,0,0,1,76,50c-.31,0-.33.14-.25.39a1,1,0,0,0-.4-.24c0,.1.43.44.13.4L75.05,50a2.42,2.42,0,0,1,.19.7,1.68,1.68,0,0,1-.34-.54A1.34,1.34,0,0,0,75,51l.18.07c0,.06-.25-.3-.27-.4-.14-.36.23,0,.35.13v.15c.35.34.44.22.43,0s-.14-.49,0-.56c.16.17.33.34.49.52a4.37,4.37,0,0,0-.32-.55c.18.06.54.24.55.42.4,0-.12-.28.3-.22a.13.13,0,0,1,.11.07l-.08-.28c.11.11.46.21.3.27.56-.17-.23-.76.32-.69l0,0c-.08-.57-.48-.24-1-.73.43,0,.88.07,1.31.07l-.5-.16s.08-.13.29-.08c-.32-.25-.23,0-.55-.17.53-.17-.16-.64.68-.67-.39-.09-.32.22-.58,0,.91-.07-.16-.28.23-.51.47,0,.24.28.64,0-.78-.07.12-.49-.08-.7-.6.12-.35-.38-.68-.63.22-.06.06-.74,0-1.16l.09-.06c-.56.32-.64,0-.93-.1.27-.27.4-.34.64-.35l-.2-.18a.57.57,0,0,1-.48.07l.34-.32c-.14-.12-.38-.1-.59-.12a.65.65,0,0,1-.54-.3c-.17.41-.26,1.21-.67,1.37.07-.23.2-.61.34-.66-.05,0-.18.14-.21,0s.19-.21.29-.32c-.1-.23-.2.28-.32.2.12-.32,0-.27.08-.52,0,0,.08.18.18.08a1.11,1.11,0,0,1-.32-.64c0,.19-.1.44-.23.46-.34,0-.05-.42-.24-.63-.11.21-.33,0-.35.48-.1,0-.12-.24-.16-.38-.19.2-.84.13-.57.64l0,0,0,0h0c-.21.28-.46.26-.74.25a.84.84,0,0,0-.76.17l-.08-.15c-.18.31-.53.46-.47.87-.06,0-.35-.11-.45-.29-.09.26,0,.38-.41.43,0-.38-.25-.12,0-.33-.32.12-.59,0-.47.56-.25-.38-.57-.14-.57.07h.39a.79.79,0,0,1-.29.38l-.42-.39c-.5.12-.42.6-.33,1s.17.65-.45.8c.34.28.37-.32.77,0-.14.25-1,.46-1,.59-.35.52.77.53.59,1a1,1,0,0,1,1,.12c0,.26-.79.53-1,.35a.1.1,0,0,1,.1-.14c-.09-.1-.19-.24-.4-.07l.21,0c-.2.2,0,.7-.39.67.27.23.35,0,.4-.2-.15.54.21.72.23,1.18.07-.11.25-.28.28-.22.08.66.47,0,.74.31-.14.35-.66.36-.22.52,0,.32-.41.37-.6.38.53.07.21.7.29.9l-.24,0a.38.38,0,0,1,.26.16l.24-.34c0,.12.07.18-.06.29.27-.09.46-.5.86-.59-.07.23.42.13,0,.52-.12-.4-.37.4-.66.21a.13.13,0,1,1,0,.25c-.11.59.57-.28.8,0-.26.17-.38.44-.3.44-.08-.11.34-.39.6-.45,0,.32.28.06.33.16v-.16c.26-.16.3,0,.47,0-.18.16-.21,0-.26.1.53-.19-.23.6.16.56-.13.18-.48.31-.56.44.44,0-.26.38.11.41.34-.23.24-.21.68-.23l-.43-.21a4.6,4.6,0,0,1,.64,0c0-.12-.35-.11-.32-.2.35-.06.26,0,.52-.24-.45.44.49.15.21.53l-.93.41c-.32.39.66.26.54.72l.13-.17c.4-.06.13.22.32.31a2,2,0,0,0-.63.28c.25-.06,0,.29.71.18l-.4.28c-.11.35,1,.21,1,.57-.38,0-.59.14-.88,0,0,.11,0,.22.2.19-.2.09.49.25.19.4.15,0,.5,0,.49.13a.64.64,0,0,1-.16,0c.16,0,.25.18.6,0-1,.48.2,1-.67,1.44a2.82,2.82,0,0,1,.34.79c-.1,0-.16,0-.13,0-.28.36,1,.09.68.5-.52.25-.32-.16-.51,0-1.1.18.2.43-.41.76l-.08,0c-.35.23.48.41.44.74a.55.55,0,0,0-.17,0,1.65,1.65,0,0,1,1,.81c-.44,0-.24-.1-.68,0,.08.13.71-.13.86.12a2.33,2.33,0,0,1-.87.43l-.06-.25c-.59.2.06.32,0,.47l-.26,0c.13.38.8.3.81.72L74,64c.69.14-.35.24.18.4l-.67.16a3.52,3.52,0,0,1,.88.7,3.61,3.61,0,0,1-1.13-.53.57.57,0,0,0,.46.54c-.08,0-.25-.11-.15-.18.55.11.84.32.87.62-1.31.12-.23.82-1.21,1.17.56.46,0,1.08.11,1.68,1-.36.05.18,1.09,0,.08.14.07.19,0,.21l-.56.53c-.29.14-.25-.1-.48-.06,0,.33-.42.2-.66.45.36-.1.54,0,.43.23l.44-.33c.62.36-.81.51-.2.87L73,70.33c.23.2.12.84,1,.94-.12,0-.39.15-.48.06,0,.56,1.07,1.07.62,1.57h-.26c.09.09.51.1.27.26s-.26,0-.26,0,.48.2.36.36L74,73.5c-.25.58.82.7,1.07,1.11a1.11,1.11,0,0,0-1,.8h-.11c0,.63.79.94,1.18,1.46-.75.49-.13,1.25-.49,1.89a.85.85,0,0,1,.68,0c-.13.16.58.28-.11.38V79.1c-.65.22-.43.46-.41.68l.9-.13c-1.2.79.74,1.37-.36,1.89.24.09.27.26.52.35l-.48.08a1.51,1.51,0,0,0,.12,1l-.35,0c0,.27,1.43.07,1.51.3l-.7.21c.1.45-.44,1,.29,1.35-.1,0-.31,0-.35,0,0,.22-.32.92.64.65-.64.13,0,.48.36.66l-.48.06c.64.08.81.06,1,.31,0,.08-.36.13-.26,0-.2.28.48.09.29.41l-.32,0c0,.24.16.19.54.25.22.1,0,.46-.45.58.27,0,.64,0,.55.2a.58.58,0,0,1-.32,0c-.24.45.66.46.26.82a.82.82,0,0,0-.27.11c0-.31-.08-.57,0-.55-.43.09-.46.35-1.09.28.36.13,1.14.33,1,.61l-.14.07-.06,0c0,.07,0,.11.11.14a.34.34,0,0,0-.09.23c-.35.1-.13.33-.12.46.47-.12.43.06.78-.17,0,0-.06,0-.1-.09a.07.07,0,0,0-.06,0h0a2.08,2.08,0,0,1-.1-.3c.26,0,.48.11.25.3h.8c-.62.31-.91.72-1.3.85.34.32.37.86,1.3.9.14.09-.22.18-.35.25s-.11-.12-.24-.12c.27.16.23.62.85.53-.21.33-.6,0-.41.32h-.2c-.83,1,1.84.83.76,1.93a.34.34,0,0,1,.19-.14c-.34,1,1,1.78.3,2.9-.12.3.28.23.62.32l-.49.18.65.13c.51.28-1.08,1-.16,1.25l.33-.15c0,.19.33.5-.06.57.06,0,.36,0,.2.08l-.26.07.56.32c-.11.37-1.06.2-1,.7a1.48,1.48,0,0,0,1,.21c0-.08.12-.23.38-.3l.18.13a3.47,3.47,0,0,0,2-.77l-.54-.16.36-.19.08.23c.32-.22,0-.23-.25-.27a.86.86,0,0,0,.38-.22l-.81-.09c.3-.1.64,0,.76-.25-.38,0-.65.29-.93.14.32-.22.62-.25.28-.34a.6.6,0,0,1,.43,0c-.28-.08-.19-.34-.62-.31.4-.25-.23-.44.5-.61-.18,0-.63-.1-.69-.22.93,0-.07-.5.89-.66-.83,0-.5-.54-1-.74.07,0,.2,0,.17,0,0-.19.25-.3.37-.44-.66.13-.87-.1-1.31-.15.58-.36.8-.06,1.39-.26-.53.13-.62-.25-1-.07a1.61,1.61,0,0,1,.68-.4c-.83.17-.18-.11-.71-.13.35-.33.75-.24.45-.44A.59.59,0,0,1,83,94.33ZM80.2,88.51h0l.06.13ZM80.09,88a.63.63,0,0,0,0,.23c-.16,0-.33.07-.34,0S80,88.1,80.09,88Zm-3,1.79c-.08-.07,0-.12.1-.15a.63.63,0,0,0,.09.14h.06Z"/><path class="cls-2" d="M77.7,89.8l0,0a.31.31,0,0,0,.09-.07h-.15Z"/><path class="cls-2" d="M73.33,43.93h0l0,.07Z"/><polygon class="cls-2" points="79.58 80.65 79.46 80.67 79.57 80.7 79.58 80.65"/><path class="cls-2" d="M75.39,46.19a.76.76,0,0,0-.08.11A.35.35,0,0,0,75.39,46.19Z"/><path class="cls-2" d="M75.74,47l-.12.18A.37.37,0,0,0,75.74,47Z"/><path class="cls-2" d="M75.67,47.74h0Z"/><path class="cls-2" d="M73.6,51.24l.05,0C73.79,51.28,73.71,51.25,73.6,51.24Z"/><path class="cls-2" d="M70.62,48.55l.22.1S70.89,48.55,70.62,48.55Z"/><polygon class="cls-2" points="76.33 56.85 76.32 56.85 76.32 56.88 76.33 56.85"/><path class="cls-2" d="M70.85,48.8c.09-.07.06-.11,0-.15S70.77,48.76,70.85,48.8Z"/><path class="cls-2" d="M74.61,50.16h0l0,.07Z"/><path class="cls-2" d="M74.62,50.23v.06S74.65,50.27,74.62,50.23Z"/><path class="cls-2" d="M74.65,50.42l0-.13S74.58,50.3,74.65,50.42Z"/><path class="cls-2" d="M75.26,49.74l-.14-.1A.64.64,0,0,0,75.26,49.74Z"/><path class="cls-2" d="M75.34,49.49s-.39,0-.34.08l.12.07C74.91,49.49,75.59,49.69,75.34,49.49Z"/><path class="cls-2" d="M77.79,48.56a2,2,0,0,1-.19.36c.2,0,.46-.09.48.1C78.7,48.58,77.66,49.06,77.79,48.56Z"/><path class="cls-2" d="M78,47.33c.11.2.27,0,.37,0C78.2,47.16,78.16,47.14,78,47.33Z"/><path class="cls-2" d="M70.67,44.77l-.26-.35C70.31,44.58,70.52,44.55,70.67,44.77Z"/><path class="cls-2" d="M71.46,47.28l.28.07-.31-.26A1.48,1.48,0,0,0,71.46,47.28Z"/><polygon class="cls-2" points="68.27 46.73 68.24 46.62 68.28 47 68.27 46.73"/><path class="cls-2" d="M72.29,58.78l.53-.1C72.72,58.6,72.11,58.65,72.29,58.78Z"/><path class="cls-2" d="M73.48,64c-.26.09-.41.27-.14.32C73.36,64.23,73.56,64.08,73.48,64Z"/><polygon class="cls-2" points="75.06 80.04 74.87 79.96 75.05 80.14 75.06 80.04"/><path class="cls-2" d="M70.56,52.9c.08-.12.21-.43.13-.4l-.28.5Z"/><path class="cls-2" d="M70.63,51.77A3.51,3.51,0,0,0,70,52.89c.29-.47.21-.26.56-.81.08,0,0,.21-.08.39.08-.12,0,.16.22-.15s0-.49-.23-.21A1.54,1.54,0,0,1,70.63,51.77Z"/><path class="cls-2" d="M64.32,48.7l.09.09A.25.25,0,0,0,64.32,48.7Z"/><path class="cls-2" d="M62.69,52.53s-.06,0-.11-.06A.2.2,0,0,0,62.69,52.53Z"/><path class="cls-2" d="M62,52.56h0S62,52.53,62,52.56Z"/><path class="cls-2" d="M64.32,48.7l-.24-.24C64.19,48.68,64.23,48.64,64.32,48.7Z"/><path class="cls-2" d="M69.3,52.68a.44.44,0,0,0,.11-.12l-.07,0Z"/><path class="cls-2" d="M66.39,48.76h0c0-.06,0-.14,0-.23Z"/><path class="cls-2" d="M68.12,49.22a4.07,4.07,0,0,0-.27.61.82.82,0,0,1,.17-.29A2.49,2.49,0,0,0,68.12,49.22Z"/><path class="cls-2" d="M69.8,50.77l.06-.05Z"/><path class="cls-2" d="M65.06,48.31a1.11,1.11,0,0,0-.07-.2C65,48.18,65,48.24,65.06,48.31Z"/><path class="cls-2" d="M47.38,64.21l-.08,0S47.37,64.22,47.38,64.21Z"/><polygon class="cls-2" points="44.68 65.06 44.66 65.03 44.41 64.95 44.68 65.06"/><path class="cls-2" d="M61.44,52.38h0C61.4,52.33,61.41,52.34,61.44,52.38Z"/><path class="cls-2" d="M53.39,53.09c.42.12.37.67.85.73C54.08,53.73,53.7,53,53.39,53.09Z"/><path class="cls-2" d="M69.3,52.61l0,0A0,0,0,0,0,69.3,52.61Z"/><path class="cls-2" d="M54.24,53.82h0Z"/><path class="cls-2" d="M61.15,52.74l0,.24S61.16,52.86,61.15,52.74Z"/><path class="cls-2" d="M62.08,53.69l0-.06S62.07,53.69,62.08,53.69Z"/><path class="cls-2" d="M60.68,53.29s0-.1,0,0v.06C60.68,53.24,60.69,53.21,60.68,53.29Z"/><path class="cls-2" d="M59.79,52.91l0,.1h0Z"/><path class="cls-2" d="M47.76,61.93l-.37-.32C47.68,61.87,47.77,62,47.76,61.93Z"/><path class="cls-2" d="M69.41,52.43a.63.63,0,0,1-.11.18h0A1.56,1.56,0,0,0,69.41,52.43Z"/><path class="cls-2" d="M59.44,56.89l-.28-.19A.86.86,0,0,0,59.44,56.89Z"/><path class="cls-2" d="M53.81,64.07l0,.05S53.82,64.14,53.81,64.07Z"/><path class="cls-2" d="M58.6,56.54a1,1,0,0,0,0-.35l-.07.1Z"/><path class="cls-2" d="M47.39,61.61Z"/><path class="cls-2" d="M48.34,62.49l-.92-.39c-.15-.14.44.17.74.3a3.8,3.8,0,0,1-.64-.43l.25.15c-.43-.34,0-.1-.52-.62l.14.11L46.66,61c0-.05-.3-.42,0-.1,0,0,.12.15.22.27l-.13-.2c.5.45.15.24.52.58-.15-.21-.51-.76-.36-.69.46.53.12.32.55.71l-.2-.11c.76.71-.06,0,.75.75.14.13-.22-.31-.08-.19-.24-.35-.36-.48-.6-.83-.36-.81,1.09,1.52.57.6-.25-.47-.71-1.39-.39-1l.38.83c.08.06-.5-1.22-.15-.66.11.32,0,.28.09.38.32.65-.15-.48-.09-.48l.27.74c0-.11,0-.6.09-.66a5,5,0,0,0,.09.63c.06-.29.25.19.21.55a3.92,3.92,0,0,1,.13-.49,2.82,2.82,0,0,1-.07.32c0,.2.07-.31.14-.5,0,0,0,.29-.1.44a.89.89,0,0,1,.33-.46c.19,0,.34,0,.34.34l-.1.12c0,.13.21-.07.38-.24s.29-.33.33-.06l-.08.07a3.37,3.37,0,0,0,.86.45,1.56,1.56,0,0,1,.8.87c0-.79.68.66.54-.52a5.28,5.28,0,0,0,1,1.59c.17.12,0-.71.07-.78l.24.69a4.4,4.4,0,0,0,0-.62l.44.89.09-.11a2,2,0,0,1-.33-.58c.06-.12.28.13.52.44a1.2,1.2,0,0,1,.34.43q0-.63-.09-1.2a2.68,2.68,0,0,1,.22.72c-.25-1,.39.61.16-.31a2.87,2.87,0,0,1-.28-.52c.27.23.39-.15.37-.54l.25.42a13.43,13.43,0,0,0,.37-1.75c-.2.08-.7-.44-.71-.61l.48.33c-.26-.33-.22,0-.51-.48.1-.12.57.3.68.54l-.09-.36a2.9,2.9,0,0,1,.38.35c-.26-.3.63-.12.15-.61l.15.07A8.3,8.3,0,0,0,56,59.14c-.46-.15-.32-.21-.67-.4.2-.13.62-.22.65-.45-.18-.22-.37-.17-.62-.32.42.12.45-.11.71.1a1.13,1.13,0,0,0-.21-.8,1,1,0,0,1-.41-.06c0-.08.22-.08.42,0l0,0c-.52-.57,1.49-.47.7-1l0,0c-.11-.17-.27-.18-.4-.31.09,0,.3.15.56.23-.33-.19-.28-.24-.22-.24s.14,0,0-.19c.55.41.53.4.48.3s-.14-.29.16.12L57,55.81c-.21-.33.13.17.18.25-.16-.26-.2-.29-.31-.48s0-.3.17,0a3,3,0,0,1,.34.81c0,.09-.34-1.92-.12-1l.07.66c0-.39.06-.34.1-.3s.06.09.22-.16a2.6,2.6,0,0,1-.11.28c-.12.4,0,0,.19-.26,0,.06-.11.28-.15.46s.47-.37.35,0a.31.31,0,0,1-.12.13c.15-.15.28.18.41-.28.08.28.42-.05.44.27.3-.45.2.36.52-.32-.32.71,0,.7.41.46-.15.19.08.29-.1.57.23.08.47,0,.53-.38.08.53.34.43.52.34s.33-.17.42.5A8.43,8.43,0,0,1,62.5,57c.23.9-.53-.11-.33.83.51-.16.51-.86,1-.47.18.17.09.38.11.53.21-.12.52,0,.79.14a1.66,1.66,0,0,0,0-.84,1.23,1.23,0,0,1,.11.34c0-.12.15-.08-.1-.47l0,.2a14.37,14.37,0,0,1-.82-1.8c.67,1.21.29-.09,1.14,1.43a1.71,1.71,0,0,0-.3-.59c.07,0,.18.09.35.45,0-.52-.35-.75-.26-1,.13.16.16.27.3.48-.2-.45-.42-.85-.24-1,.07.1.19.18.17.24.09-.46-.54-1.26-.17-1.43.62.55.25,0,.83.32l-.1-.35-.31,0c.07-.21-.32-.56-.08-.64l.2.25,0-.42-.28.12c-.26-.29-.76-.26-.54-.41,0,.06,0-.15.43-.14h0c-.18-.11-.37-.25-.2-.29s.68.19.82.21c-.51-.18-.1-.22-.63-.5a3.2,3.2,0,0,0,.5.22l-.39-.21a1.1,1.1,0,0,1,.45.16c.1-.08-.76-.32-.41-.32a1.74,1.74,0,0,1,.15.11c.2-.05-.18-.47,0-.49.57.42.11.22.6.55-.08-.18-.6-1-.43-1l-.07,0c-.73-.94.4.3.06-.23,0,.1.4.58.32.47.07,0,0-.09,0-.3a1,1,0,0,1-.11-.54l.13.29c.22.27.27.19.41.34a3.12,3.12,0,0,0-.24-.63c.48.83.45.63.52.43s.18-.41.36.23c0,0,0,.2,0,.21a1.37,1.37,0,0,1,.16-.18,2.86,2.86,0,0,0-.1-.61c0-.24.08-.41.15-.39-.12.24,0,.67,0,.91,0-.13,0-.26,0-.39.09.77.06-.82.22-.27l0,.21c.07-.09.18-.35.26-.26-.06.46-.12.19-.18.57.07,0,.38-.8.37-.32-.08.11-.14.09-.21.2,0,.56,0,.42,0,.53v0a.84.84,0,0,0,.08.29v-.16c.53-1.08.35-.11.81-.77-.44.63-.18.39-.37.87a1,1,0,0,1,0,.46c.23-.36,0,.37.37-.16-.05.16.09,0-.08.43.16-.08.08-.28.16-.47.38-.47.16.8.7.17.34-.21.6-.71.91-.88a1.09,1.09,0,0,1-.29.53c0,.28.12.27.3.14a1.21,1.21,0,0,0-.15.43c.1,0,.3-.53.31-.26s-.24.43-.35.58c.16-.1.38-.34.54-.43a1.74,1.74,0,0,1-.35.53,1,1,0,0,0,.63-.51V52s-.14.38-.21.44c-.24.28-.07-.21,0-.37l.12-.06c.32-.93-.36,0-.48-.1l.34-.63-.38.48a1.32,1.32,0,0,1,.29-.63c0-.37-.2.19-.14-.21a.19.19,0,0,1,0-.11l-.19.15c.08-.13.18-.47.21-.35,0-.46-.52.37-.39-.16l0,0c-.36.12-.23.48-.65,1l.34-1.25-.22.47s-.06-.08,0-.27c-.23.29-.06.21-.24.51,0-.5-.44.07-.18-.73-.19.36,0,.34-.22.55.27-.86-.22.08-.2-.35.19-.42.23-.15.24-.58-.33.71-.18-.25-.34-.15-.21.59-.29.17-.58.3.07-.19-.32-.47-.53-.76l0-.11c-.11.63-.3.44-.45.54,0-.4,0-.55.12-.69l-.17,0c0,.2-.07.3-.17.35v-.49c-.24,0-.35.48-.68.07a5.32,5.32,0,0,1,.33,1.66,2.72,2.72,0,0,1-.16-.82s0,.2-.08.08v-.41c-.16-.23,0,.35-.06.29-.1-.38-.14-.29-.21-.58,0,0,.12.17.12,0a2.22,2.22,0,0,1-.46-.65c.08.21.16.5.1.53s-.22-.47-.43-.7c0,.25-.2-.06,0,.52-.06,0-.18-.29-.28-.46,0,.23-.49-.05,0,.61l0,0v0h0c0,.17-.1.17-.24.09a1.79,1.79,0,0,1-.24-.15c-.09-.07-.12,0-.18-.07s-.1.11-.07.29l-.14-.19c.13.43,0,.6.31,1.1,0,0-.29-.17-.46-.39.09.29.25.46,0,.45-.23-.42-.24-.16-.16-.36-.17.09-.42,0,0,.55-.37-.42-.51-.22-.42,0l.31.05a.41.41,0,0,1-.07.33l-.51-.43c-.35.06-.14.5,0,.82s.31.55-.28.54c.35.26.32-.17.74.12-.11.15-1,.16-1,.25-.2.15,0,.17.21.29s.42.19.3.22c.2,0,.73.15.88.35-.11.12-.84-.17-1-.27s0,0,.12,0a.72.72,0,0,0-.36-.15l.19.07c-.2,0-.2.06-.51-.09a.83.83,0,0,0,.41.16c-.29-.05,0,.13-.24.1a2,2,0,0,1,.32.19c-.26,0,.32.29.36.47-.28-.14-.63-.52-.43-.24a3.36,3.36,0,0,1-.6-.51c.32.35-.24-.11-.3-.18l-.13-.14c.08.08.08.09.08.09l.33.35a.69.69,0,0,1-.2-.2c.2.26.54.59.81,1-.17-.16.14.34-.28-.19.17.09-.42-.54-.47-.67,0,.07,0,.08,0,0l-.11-.15c-.38-.46.46.64.42.71a6.17,6.17,0,0,0-.38-.55s.37.55.53.86c-.19-.22.1.28.07.29l.09.09a1.22,1.22,0,0,1,.21.57c-.16-.3-.09-.26-.17-.38.18.4,0,.23-.09,0s-.24-.4-.18-.2c-.15-.28-.34-.74-.44-.93.16.49-.25-.54-.13-.15a4.57,4.57,0,0,1,.28.87,1.63,1.63,0,0,0,0-.31c.08.24.14.48.2.71,0,0,0-.28,0-.19a3.3,3.3,0,0,0,.27.73c-.37-.81,0,.38-.29-.17l-.39-1.24c-.2-.57,0,.57-.18.22l.07.21c0,.46-.08,0-.1.2,0-.38-.07-.52-.09-.76,0,.28-.06,0-.09.67,0-.17,0-.33,0-.5s-.23,1-.38.77c.12-.35.13-.61.24-.85,0,0,0-.08-.09.15,0-.21-.22.4-.16.08-.07.13-.19.46-.24.41l.06-.15c0,.16-.18.17-.27.54.21-1.06-.61-.18-.43-1.09a1.79,1.79,0,0,1-.56,0c0-.09.07-.16.09-.11-.06-.37-.51.83-.59.41.08-.57.26-.21.26-.43.22-.51.09-.53-.06-.5s-.33.12-.35-.25l.08,0c-.08-.46-.52.22-.75,0a.76.76,0,0,0,0-.18,1.12,1.12,0,0,1-.74.65c0-.47.09-.21,0-.74-.1,0,0,.83-.12.88a12.14,12.14,0,0,1-.33-1.21l.21.08c-.19-.79-.29-.13-.41-.31l0-.32c-.34-.09-.16.78-.48.55l.1.28c.1.82-.28-.57-.24,0l-.36-1c0,.15-.08.63-.15.77v0l-.06-.22a2.28,2.28,0,0,1,0-1c-.13-.08-.42-.17-.28.28,0-.07,0-.27.08-.1a3.35,3.35,0,0,1,.1.58,1.91,1.91,0,0,1,.06.78c-.4-.9-.51-.84-.6-.69s-.17.35-.56-.11c.09.54,0,.71-.19.89a1.31,1.31,0,0,0-.44.69c.89.56,0,.2.84.93,0,.16,0,.19-.07.15a4.66,4.66,0,0,0-.65,0c-.3-.07-.16-.27-.36-.4-.18.28-.43-.12-.75,0,.34.16.43.41.25.54l.51,0c.37.69-.92,0-.57.71l-.26-.27a.69.69,0,0,1,0,.29,1.05,1.05,0,0,0,0,.3c0,.14.15.32.53.51a.93.93,0,0,1-.46-.15c-.22.29.63,1,.06,1.09l-.24-.1c0,.08.43.25.16.24-.1,0-.24-.1-.26-.07s.38.29.21.33l-.26-.16c-.41.22.52.7.61,1a1.32,1.32,0,0,0-1.19,0l-.1,0c0,.1-.06.19,0,.19l.22.14a2,2,0,0,1,.49.47c-.37-.2-.45-.22-.5-.2s-.07.08-.25-.12a6.32,6.32,0,0,1,.49.68c-.12-.14.34.64-.15-.1h0c-.5-.7-.37-.5-.39-.5L52,59.25c-.4-.6-.4-.59-.36-.39s0,.5-.27-.38a2.56,2.56,0,0,1,.09.53l-.16-.6c-.08-.18-.1-.25-.13-.14l0-.4a8.32,8.32,0,0,1,0,1.58l0-.81c-.13,0,0-.7-.26-.08,0-.11.09-.31.1-.33s.11-.49-.29.42c.28-.59-.24-.18-.49,0l.22-.43c-.36.51-.46.65-.75.7,0-.08.08-.38.12-.23-.11-.33-.29.37-.43,0l.17-.26c-.2-.12-.23,0-.4.35-.15.15-.31-.27-.3-.74-.07.26-.19.59-.29.41a.55.55,0,0,1,.06-.31c-.34-.5-.45.41-.69-.17a2.44,2.44,0,0,0-.07-.32c.26.08.48.2.46.23,0-.48-.26-.65-.07-1.25-.23.29-.46,1-.68.73a.8.8,0,0,1-.06-.17l0,0c-.06,0-.1,0-.13.06-.08-.09-.13-.15-.2-.16-.11-.39-.3-.22-.41-.23.14.49,0,.41.23.81,0,0,0,0,.06-.07a.11.11,0,0,0,0-.05v.05a.88.88,0,0,1,.24,0c0,.25-.05.45-.22.16,0,.31.07.62.09.77a8.87,8.87,0,0,0-.9-1.39c-.23.31-.73.49-.35,1.43,0,.16-.2-.16-.3-.26s0-.15,0-.28c0,.32-.28.47.12,1.05-.28-.07-.33-.6-.4-.26l-.11-.2c-.5-.17-.36.43-.14.95s.45.92-.22.91a.31.31,0,0,1,.22,0c-.36.22-.36.76-.36,1.11a.67.67,0,0,1-.53.79c-.22.11.16.23.43.41l-.51-.1.54.32c.35.35-1.34.08-.62.6l.34,0c-.09.09.11.39-.27.27.06,0,.34.13.15.13L44,64l.38.38c-.25.16-1-.31-1.16,0a1.88,1.88,0,0,0,.86.52s.19-.07.46,0l.1.14a5.63,5.63,0,0,0,2.14.41l-.42-.3.39,0,0,.16c.38,0,.08-.13-.12-.25a1.23,1.23,0,0,0,.43,0l-.69-.37c.31.06.58.24.78.17-.32-.17-.7-.1-.89-.3.37,0,.65.12.38-.06a1,1,0,0,1,.4.15c-.21-.15,0-.25-.44-.41.46,0,0-.32.7-.12-.17-.07-.53-.3-.54-.39.83.38.13-.29,1.05,0-.75-.32-.24-.48-.62-.79.06,0,.18.08.13.09s.34-.06.51-.09a4,4,0,0,1-1.13-.59c.67,0,.74.28,1.36.4-.53-.13-.47-.37-.92-.44a2.21,2.21,0,0,1,.77.06c-.81-.26-.12-.11-.61-.28.41.08.75.25.52.12Zm-.23-1.74h0l0,0Zm.16.07a.19.19,0,0,0-.07-.06,1,1,0,0,1,0-.37A3,3,0,0,0,48.27,60.82ZM47,56.94c0-.07.1,0,.13.14l-.11.05v.06A1.21,1.21,0,0,1,47,56.94Z"/><path class="cls-2" d="M47.07,57.59l0,0,.07.11,0-.15Z"/><path class="cls-2" d="M64.43,48.81l0,0,.06.09Z"/><polygon class="cls-2" points="53.34 64.12 53.28 63.96 53.28 64.08 53.34 64.12"/><path class="cls-2" d="M66.59,51.11s0,.09,0,.14A.71.71,0,0,0,66.59,51.11Z"/><path class="cls-2" d="M67.06,51.38a1.1,1.1,0,0,0,0,.18A1.3,1.3,0,0,0,67.06,51.38Z"/><path class="cls-2" d="M67.5,51.78l.08-.19h0Z"/><path class="cls-2" d="M64.28,57.52a.13.13,0,0,0,0,.06C64.32,57.78,64.31,57.68,64.28,57.52Z"/><path class="cls-2" d="M64.52,52.75a.8.8,0,0,1,.19.16C64.77,52.85,64.79,52.81,64.52,52.75Z"/><polygon class="cls-2" points="59.47 56.91 59.47 56.9 59.44 56.89 59.47 56.91"/><path class="cls-2" d="M64.66,53.09c.11,0,.1-.11,0-.18S64.61,53,64.66,53.09Z"/><path class="cls-2" d="M69.76,52.93v0l0-.07Z"/><path class="cls-2" d="M69.81,52.89l0,0S69.84,52.84,69.81,52.89Z"/><path class="cls-2" d="M70,52.77l-.11.08S69.9,52.88,70,52.77Z"/><path class="cls-2" d="M69.14,52.42l-.07.15Z"/><path class="cls-2" d="M68.91,52.37c0,.06,0,.4.09.33l.07-.13C68.93,52.8,69.07,52.12,68.91,52.37Z"/><path class="cls-2" d="M68.76,50l.14.21c0-.19.08-.44.19-.45C69,49.14,69,50.16,68.76,50Z"/><path class="cls-2" d="M68.24,49.51c.13,0,.08-.25.13-.35C68.24,49.3,68.21,49.33,68.24,49.51Z"/><path class="cls-2" d="M63.3,49.46,62.92,49C63,49.22,63.07,49.19,63.3,49.46Z"/><polygon class="cls-2" points="65.12 52.06 65.37 52.19 65.02 51.91 65.12 52.06"/><polygon class="cls-2" points="62.15 51.05 62.1 50.96 62.2 51.26 62.15 51.05"/><path class="cls-2" d="M60.14,52.6l-.2.5C60,53,60.29,52.48,60.14,52.6Z"/><path class="cls-2" d="M56,51.15c-.14-.38-.35-.69-.32-.38C55.78,50.88,56,51.21,56,51.15Z"/><polygon class="cls-2" points="51.56 58.47 51.44 58.23 51.53 58.45 51.56 58.47"/></svg>