<?xml version="1.0" encoding="UTF-8"?>
<svg id="Layer_1" data-name="Layer 1" xmlns="http://www.w3.org/2000/svg" viewBox="0 0 109.56 142.88">
  <defs>
    <style>
      .cls-1 {
        fill: #4f616f;
      }

      .cls-1, .cls-2, .cls-3, .cls-4 {
        stroke-width: 0px;
      }

      .cls-2 {
        fill: #ecd258;
      }

      .cls-3 {
        fill: #657581;
      }

      .cls-4 {
        fill: #fff;
      }
    </style>
  </defs>
  <g>
    <g>
      <path class="cls-2" d="M30.14,122.99c1.5,5.58,1.69,13.52,6.88,15.11,1.81.56,43.09-6.81,60.06-12.51,1.37-.46,2.78-.96,3.83-2,2.44-2.41,2.29-6.69,1.48-10.23-7.92-34.6-12.94-63.16-25.51-104.54-.4-1.32-1.47-2.38-2.6-3.06-1.26-.77-2.76-.77-4.18-.73-14.85.43-35.74,6.91-50.09,10.61-4.42,1.14-8.11,1.15-10.18,5.07-3.33,6.33,12.55,73.48,20.3,102.28Z"/>
      <g>
        <path class="cls-3" d="M29.5,123.16c.13.17.29.01.12-.51l-.42-.29.3.8Z"/>
        <path class="cls-3" d="M29.14,119.44c-.32-.58-.78-1.23-.97-.75.47.54.38.72.92,1.29.18.52.14.95,0,.89.13.17.15.84.43,1.07.06-.76-.16-1.63-.6-2.49.02-.21.15-.05.22-.02Z"/>
        <path class="cls-3" d="M17.13,67.25l.04.35c0-.1-.01-.21-.04-.35Z"/>
        <path class="cls-3" d="M11.07,34.66c.04.25.09.35.12.36-.05-.23-.1-.42-.12-.36Z"/>
        <path class="cls-3" d="M10.72,29.03c0,.12,0,.22.01.33.02-.13.02-.26-.01-.33Z"/>
        <path class="cls-3" d="M17.13,67.25l-.09-.89c-.12-.04.02.46.09.89Z"/>
        <path class="cls-3" d="M26.51,112.49c.06.18.13.32.2.45-.05-.15-.1-.29-.15-.43-.02,0-.04,0-.06-.02Z"/>
        <path class="cls-3" d="M20.6,81.46l.06.26c.05.07.12.13.18.19l-.24-.45Z"/>
        <path class="cls-3" d="M23.22,92.37c-.05-.25-.34-.27-.48-.34.15.11.24.28.32.49.05,0,.11-.06.17-.16Z"/>
        <path class="cls-3" d="M27,109.77l.11.3c-.03-.08-.08-.21-.11-.3Z"/>
        <path class="cls-3" d="M18.88,73.61s.06-.07.08-.12c-.03,0-.06.05-.08.12Z"/>
        <path class="cls-3" d="M32.59,136.16s.03-.02.04-.03c-.06-.05-.09-.06-.04.03Z"/>
        <path class="cls-3" d="M30.21,122.97l.06.17c.06,0,.11.01.16,0l-.22-.17Z"/>
        <path class="cls-3" d="M11.92,20.09s-.02.01-.03.02c-.12.18-.04.09.03-.02Z"/>
        <path class="cls-3" d="M82.77,33.68c-.03-1.11.76,1.61.62-.03-.07.17-.8-1.31-.62.03Z"/>
        <path class="cls-3" d="M26.48,112.2c-.04-.15-.08-.3-.12-.45.04.21.08.34.12.45Z"/>
        <path class="cls-3" d="M83.39,33.65h0s-.02-.17-.02-.17c0,.07.01.11.02.17Z"/>
        <path class="cls-3" d="M33.8,13.19c-.06-.04-.16-.05-.27-.06.02.03.08.05.27.06Z"/>
        <path class="cls-3" d="M16.44,17.28l.43-.06c-.17.01-.31.04-.43.06Z"/>
        <path class="cls-3" d="M42.63,10.49c.24-.04.33-.02.63-.13-.03,0-.06,0-.1,0-.11.07-.25.12-.53.14Z"/>
        <path class="cls-3" d="M51.97,8.33c-.05-.01-.12-.01-.18-.02-.09.02-.2.05-.29.08l.48-.06Z"/>
        <path class="cls-3" d="M61.8,135.32c-.22-.04-.37-.1-.49-.16.18.17-1.19.51.49.16Z"/>
        <path class="cls-3" d="M26.67,112.44c-.08-.04-.14-.11-.19-.25.03.11.06.21.09.31.05.02.09.01.09-.06Z"/>
        <path class="cls-3" d="M42.48,8.24l1.5-.33c-.42.08-.97.2-1.5.33Z"/>
        <path class="cls-3" d="M99.74,96.21l.11.34c-.02-.13-.06-.25-.11-.34Z"/>
        <path class="cls-3" d="M48.41,6.84c.29.04.59.03.89,0,.06-.04.12-.07.16-.11l-1.05.11Z"/>
        <path class="cls-3" d="M61.31,135.15h0s0,0,0,0Z"/>
        <path class="cls-3" d="M51.51,137.66c1.44-.25.61-.48.88-.74,1.69-.41.84.12,1.46.2,1.05-.29,1.81-.78,2.61-.91.07.05.23.04.06.15,1.08-.5,3.35-.65,4.59-1.27.1.01.16.03.19.06-.25-.14-.32-.32-.3-.46.64-.13,1.14-.46,1.43-.27-.39.07-.41.17-.58.28l.65-.24c.67.22-.89.3-.84.55,1.29-.37,2.76-.95,3.78-1.06.28.29-2.32.59-.92.61l-1.58.18c1.29.29-.95.15.25.5,2.07-.31,2.25-.63,4.31-.95.42-.28-.21-.24.21-.52,2.82-.93,2.45.36,4.49-.54.5-.34.63-.8,2.18-.91l-.43.49c1.98-.4,1.01-.78,3.13-1-.33.23-1.52.47-1.21.45,1.4,0,.9-.43,1.92-.66l.29.28c2.09-.53,4.34-1.31,6.63-1.95-.1.13-.47.33.09.3,2.88-.89,6.23-1.55,9.09-2.19l.98-.6c.25-.07.5-.01.25.12,1.12-.23,0-.2.49-.46.61-.22.87-.1.5.11.92-.45,2.24-.93,3.64-1.69.69-.39,1.38-.87,1.91-1.44.56-.55.95-1.15,1.3-1.65-.04.16-.1.3-.15.46.53-.81.54-1.39.56-1.89,0-.51.01-.97.24-1.76v.32c.34-1.89.13-3.86-.22-5.65-.38-1.77-.7-3.35-.78-4.73-.53-.41-.59-3.46-1.21-3.55-.15-2.04.08-1.49-.35-4.31-.14-.75-.61-1.03-.87-1.93l.3-.09-.59-1.18.21-.74-.27-.84c.06.35.02.76-.07.73-.43-1.32-.51-3.32-.36-3.39l-.95-3.13c.14.04.29.57.46.97-.68-1.63.25-.38-.37-1.87-.02.22-.2-.07-.27-.1.01-.82-.37-2.58-.73-3.87l.26.21c-.46-2.37-1.18-4.96-1.76-7.61.11.97-.3.83-.5.06l.25-.38c-.31-.46.06.84-.41-.14-.18-1,.22-.75.44-.2l-.37-1.18c.08-.09.19.18.33.23-.3-.45-.14-2.15-.64-2.78l.08-.09c-.59-2.65-.96-3.83-1.46-5.98-.28.02-.41-.84-.78-1.43-.27-1.6-.45-3.41-.92-5.31-.45-1.31-.32-.34-.63-.9.23-.16-.24-2.06.17-1.11-.57-2.28-.73-2.91-1.63-5.75-.03.34.01.7-.12.54-.17-.51-.18-1.22-.04-1.17l.06.13c-1.14-3.15-1.11-7.66-2.28-10.11l.06.14-.95-2.6c-.27-1.24.38.69.3-.26-1.14-2.77-1.13-4.56-2.03-6.85.26-2.03-1.82-6.47-2.03-9.07l-.13.19c-.34-.59-.11-.8-.21-1.28-.11.1.04.73-.16.36-.88-2.66-1.6-5.46-2.31-8.28l-1.07-4.24c-.18-.71-.36-1.41-.54-2.11l-.14-.53c-.06-.23-.15-.48-.24-.7-.19-.45-.43-.87-.71-1.25-.84-1.07-1.32-1.07-1.76-1.2-.23-.06-.46-.13-.78-.29-.34-.17-.81-.47-1.56-.77.32-.03.66-.03,1,0-1.34-.47-2.62-.46-3.74-.43-1.1.06-2.2.11-3.3.17-1.09.08-2.18.18-3.25.3-1.07.15-2.12.32-3.15.54.24-.11.23-.21.64-.26-.91-.13-3.24.49-3.22.68-.65.08-.18-.15-.59-.19-.9.02-2.13.7-2.64.55-.09-.02.23-.12.39-.17-.55.2-2.64.48-2.05.65-1.56.17-2.91.72-4.16.83-.73.47-2.64.44-2.79.93,0-.47-2.75.27-3.65.72.29-.21-.87.07-.54-.21-1.09.27-2.07.61-1.82.79-2.14-.02-3.92,1.46-5.22,1.09-3.16,1.09-6.1,2.06-8.96,2.94-.01-.46,3.19-.91,2.94-1.33-2.7.92-4.18,1.73-6.93,2.34-.72.12.35-.29.57-.43-1.34.45-2.69.8-3.94,1.1-1.27.3-2.55.54-3.79,1,0-.04.26-.16.51-.25-.5.13-1.19.26-1.08.43l.48-.19c.44.03-.02.32-.58.63-.56.32-1.19.72-1.2.81.28-.44-.33-.23-.89.02-.55.24-1.06.53-.63-.21-.3.23-.61.6-.46.66-.45.3-.63.39-.31-.12-.76.72-.87,1.06-1.03,1.32-.11.29-.28.52-.71,1.28-.08-.05.06-.38.06-.61-.08.22-.15.44-.23.67-.07.25-.12.55-.19.84-.09.31-.06.56-.1.88-.03.31-.09.64-.11.99-.06-.09-.14.07-.12-.35-.08,2.48.56,4.08.63,6.68-.5-.72-.06.89-.41,1.07l.28,1.37.11-.58c.14,1.21.56,2.24.58,3.29l-.28-.87.4,2.25-.05-1.3c.37,1.19.44-.2.58,1.42-.09-.32.18,1.2.06,1.86h0c.21.57.44,1.16.49,2.06-.08.25-.44-.12-.49.05.4.53.56,2.79,1.03,3.47-.12-.23-.32-.21-.34-.12l.34.45c.02.57,0,.66-.18.59.25,1.67.36-.61.53,1.4-.05-.15-.07-.07-.17-.39.26,2,.87,3.8,1.11,5.64-.26.61-.4-1.57-.59-.9.57,2.61,1.51,5.34,1.95,7.89l-.06-.48c.59.24.13,1.94.65,3.17-.1-.3-.37-.35-.3-.28.28,1.75.87,3.51,1.6,6.1l-.2-.3c.1,1.05.52,2.7.7,3.81.2.3.32.93.43.51,0,3.56,1.85,6.37,1.91,9.52-.08-.36-.31-.83-.25-.54l.71,2.53c.18-.25.06-.37.11-.94.21.29.48.99.62,1.62-.41-1.11-.36.09-.37.62.05-.1.17.05.23,0-.09,1.43.5.12.66,2l-.14-.07c.22.67.52,1.26.66,2-.19.37-.29-.7-.52-.69.26,1.03.97,1.92.93,2.92-.18-.42-.33-1.05-.5-1.47-.06,1.09.04,1.19.17,1.96v-.08s.27,1.78.27,1.78l-.02-.46c.98,1.13.75,2.6,1.61,4.23-.83-1.59-.31-.22-.64-.28.02.46.1,1.16-.03.99.44.76.15,1.42.78,2.49-.08.08.2.88-.08.75.33,1.05.1-.29.24-.23.73,1.57.55,3.96,1.59,6.22.69,1.99,1.11,2.29,1.74,4.14,0,.68-.48-.44-.48-.44.12,1.06.34,1.83.7,2.77-.13-.18-.15.04-.18.37.22.77.48.43.6,1.49-.15-.15-.38-.33-.58-.68.32.89.73,1.75,1.06,2.68-.1.29-.4-.51-.59-.81.35,1.05.86,2.72,1.21,2.98l-.09-.71c.11.38-.17.26-.29-.02-.44-.86-.25-1.34-.17-1.42l.24.66c.37-.84-.79-2.69-1.1-4.06l.55.46-.69-1.31c.03-.32.2-.58.43.07-.05-1.03-.36-.83-.35-1.72.01-.1.04-.06.08.02l-.36-.92c.13.17.24-.23.33.37-.2-1.77-1-2.68-.85-3.4l.06.14c-.73-2.34-.35-.16-1.15-1.85l.43-1.38-.35-.16c-.05-.25-.15-.74,0-.68-.43-.86-.09.19-.41-.3-.02-1.25-.93-3.22-.52-3.61-.33-.37.1,1.17-.36-.05.42-.48-.44-1.44-.47-2.57.34.27.45,1.32.42.19-.6-.54-.41-2.13-.71-3.02-.37.04-.62-1.95-1.1-3.45.14.07-.49-2.92-.69-4.38l.07.03c-.42-.19-.7-1.68-1.02-2.73.22,0,.35.17.58.72l-.23-1.01c-.17-.21-.3-.51-.49-1.15l.33.19c-.33-1.33-.93-2.62-1.15-4.39-.27-.04-.38,1.53-.97-.26.12-.1.34-.22.5.25-.05-.15-.24-.53-.25-.86l.39.68c-.08-.81-.28-.37-.4-1,.2-.03.03-.5.21-.44.05.16.04.57.17.79-.12-.72-.2-1.6-.12-1.91-.1.09-.26.06-.4-.45-.31-1.34.13-.51.05-1.31-.21-.29-.26-1.18-.55-1.14-.08-.39.03-.5.08-.66-.28-.67-.75-3.23-.88-2.39l.02.18s-.02-.07-.04-.11h0s0,0,0,0c-.78-2.22-.86-4.77-1.46-7l.1-.02c-.4-1.33-.69-2.99-1.1-3.92-.08-.4-.02-.98.13-.83-.28-1.02-.41-1.11-.55-2.64.38,1.01.08-.39.34,1.04-.18-1.36-.09-1.69-.64-3.09.34.44.12-1.07-.08-1.7v.98c-.17-.71-.27-1.34-.37-1.99l.39.28c-.13-2.82-1.61-4.84-1.31-7.06-.36-.69.11,1.53-.28.92-.19-1.28.07-2.68,0-3.08-.11-1.77-.75-1.54-.91-3.39-.08.25-.36.52-.68-.83-.14-1.28.27-1.64.48-.85.05.3.04.46,0,.45.1.41.24.94.29.41l-.14-.15c.03-.65-.23-2.4.02-2.01-.25-.95-.25-.38-.21.34-.07-1.65-.34-2.55-.41-4.24-.04.27-.15.54-.18.27-.09-2.48-.36-1.06-.53-2.74.12-.96.45.31.19-1.36.09-1.02.31-.23.42.17-.28-1.49.08-2.84.25-3.51,0,.24-.02.44.02.7-.04-.45.04-.74.07-1.09l-.28.35c.08-.45.18-.63.27-.59-.03-.16-.14-.15-.24-.17-.08-.03-.25-.05-.15-.48.34-.48.93-1.52,1.3-1.43-.64.6-.52.64-.4.63.12,0,.28-.01-.11.57.13-.24.32-.52.63-.77.06-.02.01.09-.05.18.62-.46.71-.6.79-.81.08-.2.14-.48.93-.87-.12.25.5.13.76,0-.65.26-.45-.15.16-.51,1.18-.24,1.24-.47,1.88-.62l-.74.12c.2-.24.81-.37,1.67-.61.1.12-.77.27-.44.26.89-.52,2.27-.15,3.58-.71.65-.05.14.31.71.24,1.45-.62,1.69-.19,3.22-.8-.52-.11-.58-.03.47-.55l-2.55.85,1.58-.78c-.78.21-1.61.58-2.09.67.74-.4.68-.32.25-.41,1.16.07,2.07-.77,3.37-.86l.12.58c1.93-.25,3.22-1.18,5.67-1.69l-.8.11c.26-.31,1.48-.44,2.23-.73-.02.21.49.15.85.18-.08-.13,1.77-.46,1.88-.9l1.14-.03c1.97-.41,2.08-1.13,3.97-1.54-.51.35.37.27-.84.74.63-.16,1.2-.27,1.17-.4.39.02,1.67-.7,2.29-.65.24-.15.28-.37.99-.53.09.02.02.1.02.1-.02-.1,1.07-.4.4-.46,2.07.12,5.41-1.31,7.22-1.15,1.37-.34,3.01-.76,4.27-.99-.07.07.01.1-.23.12,1.76-.13.96-.77,2.98-.89,1.06.16-1.02.34-.37.36.38.61,2.37-.49,3.76-.27l-.32.08c1.04.09,2.45-.59,4.13-.67,0,0-.08.06,0,.1,1.11-.46,3.28-.69,4.89-.82-.5.26-.72.15-.42.4.71-.03-.22-.44,1.21-.47.47.14,1.41.47,1.42.79-.37-.12-.77-.18-1.19-.22.59.4,1.51.26,2.01.67l-.15.09c.79.47,1.19.72,1.59,1.01.38.32.8.63,1.08,1.65l.05-.26c.73,1.07.09,1.06.72,2.15l-.27.47c.32.75,1.18,2.63,1.67,4.01-.52-.71-1.15-2.31-1.62-3.27.23.77.81,2.62,1.12,2.97-.13-.3-.34-.67-.37-.99.58.86,1.11,2.07,1.54,3.62-.81-.06.97,4.09.72,5.37,1.04,2.66,1.4,5.47,2.32,8.66.27-1.29.27.93.8.58.24.74.3,1.02.28,1.1l.25,2.36c-.03.58-.32-.68-.43-.57.39,1.65-.07.75.06,1.87.15-.28.46.49.62,1.44l-.07-1.38c.91,2.2.01,2.11.92,4.33l-.37-.68c.41,1.16,1.12,4.36,1.88,5.41-.02.23-.11.54-.28.03.64,2.85,2.07,6.19,2.29,8.47l-.2-.18c.17.52.49.86.51,1.56-.07-.02-.2-.18-.15.07.12.27.59,1.35.67,2.07l-.3-.56c.45,2.82,1.39,4.17,2.03,6.47-.43.09-.07,2.31.1,3.42l-.07-.02c.69,3.25,1.59,5.42,2.43,8.39-.06,1.97,1.19,6.36,1.58,9.41-.02-.48.35,0,.51.53.07.72.72,1.88.3,1.85l-.05-.25c-.27.61.15,2.04.38,3.17l.56.07c-.11,3.12,1.97,7.68,1.65,9.44.28.68.48,1.57.77,2.25l-.28.02c.37,1.99.55,2.98,1.16,5.41l-.31-.45c.29,1.38,1.19,1.56,1.49,2.82l-.33.48c.26,1.18.49,2.47.66,3.6.16,1.14.31,2.27.47,3.41-.06-.04-.18-.1-.2-.47,0,.53-.1,1.54-.26,2.32-.15.77-.32,1.35.02,1.29-.18-.05-.37.44-.67,1.02-.3.58-.77,1.21-1.23,1.58,0-.11,0-.22,0-.33-.61.79-.63.93-2.01,1.54-.36.08-.37-.11.1-.2-1.19.26-.82.55-2.27.87l.47-.34c-1.21.37-1.09.42-1.69.82-.73.35-2.33.61-2.57.42-.12.19-.74.58-1.48.71-.12-.07.12-.19.25-.26-2.09.38-2.96,1.13-4.44,1.22-.05-.08-.16-.1-.28-.1,1.63-.41,2.95-.74,2.83-.69-.07-.25-1.39.06-.44-.56-1,.47-2.71,1.34-4.02,1.53-.07,0-.14-.02-.19-.04l.13-.06c-.3.05-.56.14-.8.24-.42.06-.69.09-1.09.18-.2-.17-1.54.25-2.21.4.12.26-.76.42.11.46-.11,0,.12-.06.55-.18.1-.03.21-.06.27-.09-.01.01-.03.02-.04.03.43-.11,1-.25,1.64-.41-.49.26-1.01.51-1.77.53-.3.25-.63.52-.82.66-.99-.17-2.79.02-3.08-.16-1.99.61-4.74,1.16-5.91,1.94-.56.19-.7,0-.93-.04.32-.12.72-.2.88-.31-1.12.38-3.41.77-3.61,1.19-1.49.14.75-.5-1.24-.03l.25-.17c-4.05.22-6.23,2.21-10.75,2.29.31-.01.47-.02.54.03-5.05.6-10.26,2.19-15.29,2.35-1.42.08-1.54.33-2.37.59l-.32-.28-.63.19c-.16.07-.37,0-.62-.03-.97-.27-1.58-.99-2-1.8-.44-.81-.8-1.68-1.47-2.8l-.06.38c-.33-.86-1.03-2.8-.74-2.71-.06-.08-.28-.25-.26-.64l.15-.06c-.27-.73-.51-1.48-.76-2.23-.25-1.82.68.17.17-2.47-.25-.98-1.1-2.7-1.11-2.29.09.4.16,1.03,0,1.09l-.3-.86c-.5-.05-1.1-.57-.92,1.61.2.47.4.95.6,1.44l-.12.53-.27-1.27c-.06.76.22,1.18.44,1.67-.09.15-.13.37-.12.69l.75,1.42c-.14.22-.5-.6-.38.44.36.66.25-.77.64.37-.02.78-.26.61.15,1.44-.08.15-.21-.01-.35-.34.33.74.66,2.05,1.05,2.36.04.43.29,1.07.58,1.6.24.54.53.96.31,1.05.23.19,1.15,1.09,1.83,1.57-.37-.15-.41-.1-.28.07.14.18.46.47.87.71.39.29.86.48,1.19.65.2.11.35.2.46.26.12.05.16.11.07.17.55-.02.95-.13,1.36-.21.43-.08.89-.15,1.38-.22.97-.14,2.03-.29,2.85-.55-.09.05-.26.15-.42.15.96-.1,1.26,0,1.89,0,.06-.41,1.53-.73,2.29-1.1,1.23.18-.63.57-.21.87-.11-.3,1.97-.65,1.53-.84.93.08.79-.02,1.3.23.07-.51.81-.23,1.5-.65,1.33.01.41.39,1.8,0,.7.03-.53.42-.53.42ZM84.7,129.86h0c-.28.08-.53.15-.68.19.14-.04.34-.09.68-.19ZM87.48,129.15c-.34.08-.76.19-1.21.3-.12-.07-.04-.19.24-.26-.14.1.53-.01.97-.04ZM81.15,128.71c.43-.14.59-.13.66-.08-.2.06-.44.13-.76.22-.01.01-.03.03-.04.05.03-.06.07-.12.14-.18Z"/>
        <path class="cls-3" d="M80.44,129.26c-.06.02-.09.04-.18.06.1,0,.19,0,.28,0,.05-.04.09-.08.14-.12-.08.02-.16.04-.24.06Z"/>
        <path class="cls-3" d="M17.18,67.65v-.06c0,.05,0,.1-.02.13,0-.04.01-.04.02-.07Z"/>
        <polygon class="cls-3" points="100.56 99.29 100.49 99.3 100.61 99.53 100.56 99.29"/>
        <path class="cls-3" d="M19.7,83.22s-.03.1-.02.22c.02-.01.02-.11.02-.22Z"/>
        <path class="cls-3" d="M21.19,89.86l.12.96c-.04-.42-.08-.72-.12-.96Z"/>
        <path class="cls-3" d="M22.28,94.98c.06.05.1.06.14.07h0s-.14-.07-.14-.07Z"/>
        <path class="cls-3" d="M15.65,15.53c.07-.02.14-.04.2-.06.46-.16.15-.07-.2.06Z"/>
        <path class="cls-3" d="M10.47,37.76c-.09-.25-.18-.5-.25-.77.05.44.09.78.25.77Z"/>
        <path class="cls-3" d="M42.31,8.28h0c.06,0,.11-.02.17-.04l-.16.04Z"/>
        <path class="cls-3" d="M10.04,35.85c.01.44.08.81.17,1.14-.04-.36-.07-.79-.17-1.14Z"/>
        <path class="cls-3" d="M27.65,117.01l.05.25s.04,0,.05.02l-.1-.26Z"/>
        <path class="cls-3" d="M27.76,117.28l.1.26c-.03-.12-.06-.23-.1-.26Z"/>
        <path class="cls-3" d="M28.08,118.09l-.22-.55c.05.2.11.44.22.55Z"/>
        <path class="cls-3" d="M26.06,110.27l-.12-.05s.07.06.12.05Z"/>
        <path class="cls-3" d="M25.51,108.24c.1.49.1,1.27.33,1.94l.09.04c-.23-.28-.14-1.56-.43-1.98Z"/>
        <path class="cls-3" d="M24.62,99.41l.34,1.73c.03-.33.08-.75.29.02-.22-2.23-.13.5-.64-1.75Z"/>
        <path class="cls-3" d="M23.48,94.07c.27.91.15-.05.22-.01-.24-.56-.29-.7-.22.01Z"/>
        <path class="cls-3" d="M14.85,55.55l.27.04c-.18-.71-.1.01-.27-.04Z"/>
        <polygon class="cls-3" points="12.09 48.4 12.07 49.13 12.36 49.41 12.09 48.4"/>
        <polygon class="cls-3" points="13.07 43.68 13.16 43.99 12.86 42.81 13.07 43.68"/>
        <path class="cls-3" d="M50.36,8.93l-.28-.26c-.47.16-.49.53.28.26Z"/>
        <path class="cls-3" d="M76.19,9.05c-.06.34.07,1.14.36,1.58-.16-.62-.23-1.27-.36-1.58Z"/>
        <polygon class="cls-3" points="96.47 92.41 96.24 91.87 96.56 92.91 96.47 92.41"/>
      </g>
    </g>
    <path class="cls-1" d="M22.57,24.59c12.25-3.31,24.53-6.45,36.96-9,.43-.09.87-.18,1.3-.27.19-.04.38-.08.57-.12.92-.19-2.41.48-.87.18.94-.19,1.89-.38,2.83-.56,2.23-.44,4.47-.88,6.7-1.31,1.83-.36,4.06-.74,5.56-2,.92-.78,1.7-2.08.91-3.27-.93-1.39-2.77-2.12-4.31-2.48-2.29-.54-4.87-.81-7.2-.35-13.26,2.57-26.48,5.29-39.56,8.69-4.14,1.07-8.26,2.18-12.38,3.3-1.34.36-3.54,1.2-4.26,2.57-.65,1.22-.08,2.48.97,3.25,3.4,2.48,8.9,2.44,12.78,1.39h0Z"/>
    <path class="cls-1" d="M93.15,119.82c-13.62,3.57-27.25,6.99-41.05,9.81-.55.11-1.1.22-1.65.33-.19.04-.37.08-.56.11-.77.16,1.58-.32.25-.05-1.06.21-2.13.43-3.2.64-2.52.5-5.05,1-7.58,1.49-1.49.29-6,1.28-4.6,3.75,1.28,2.26,6.08,2.43,8.19,2.02,14.41-2.81,28.77-5.76,43-9.37,4.65-1.18,9.3-2.39,13.94-3.61,1.72-.45,4.74-2.38,2.34-4.14s-6.32-1.72-9.09-.99h0Z"/>
  </g>
  <g>
    <path class="cls-4" d="M21.27,54.32c1.04.94,2.86.05,3.33-1.27s.02-2.78-.45-4.1-.97-2.75-.6-4.1c.67-2.45,3.64-3.3,6.14-3.74,10.28-1.82,20.56-3.63,30.84-5.45,1.25-.22,2.68-.39,3.64.43.66.56.92,1.46,1.12,2.31.33,1.45.59,2.91.75,4.39.1.85.16,1.75-.2,2.53-.47,1.04-1.57,1.62-2.61,2.08-5.8,2.58-12.15,3.63-18.43,4.59-8.1,1.25-16.21,2.4-24.34,3.47"/>
    <path class="cls-4" d="M20.52,55.61c2.51,1.86,5.57-.74,5.76-3.38.13-1.74-.62-3.28-1.09-4.91-.41-1.43-.34-2.66.95-3.51,1.07-.7,2.39-.98,3.63-1.22,1.89-.36,3.8-.67,5.7-1.01,3.92-.69,7.83-1.38,11.75-2.08s7.83-1.38,11.75-2.08c1.2-.21,3.85-1.19,4.57.27s.85,3.49,1.01,5.07c.08.78.23,1.65-.34,2.29-.43.49-1.15.77-1.73,1.03-1.67.75-3.42,1.34-5.17,1.85-3.49,1.02-7.07,1.67-10.66,2.25-8.71,1.4-17.44,2.62-26.18,3.76-.81.11-1.49.61-1.5,1.5,0,.73.7,1.61,1.5,1.5,8.41-1.1,16.81-2.29,25.19-3.59,3.89-.6,7.78-1.24,11.58-2.28,1.89-.52,3.75-1.13,5.57-1.88,1.41-.58,2.9-1.18,3.87-2.41,1.18-1.49.98-3.32.74-5.09s-.45-3.7-1.21-5.33c-1.77-3.78-6.62-2.07-9.74-1.52-8.48,1.5-16.97,3-25.45,4.5-3.1.55-7.13,1.09-8.61,4.33-.85,1.87-.33,3.81.31,5.66.3.88.76,1.95.56,2.91-.12.59-.67,1.2-1.24.78-1.55-1.15-3.05,1.45-1.51,2.59h0Z"/>
  </g>
  <g>
    <path class="cls-4" d="M86.24,70.22c-1.16-2.05-4-2.25-6.34-2.02-8.14.78-16.04,3.61-24.21,3.69-.68,0-1.4-.02-1.98-.39-.57-.37-.89-1.01-1.15-1.64-.65-1.58-1.1-3.24-1.32-4.93-.1-.76-.14-1.57.21-2.25.48-.9,1.52-1.31,2.48-1.63,7.21-2.39,14.74-3.62,22.24-4.83,1.96-.32,4.25-.53,5.66.87.86.86,1.14,2.12,1.39,3.31.58,2.82,1.17,5.63,1.75,8.45"/>
    <path class="cls-4" d="M87.54,69.47c-2.67-4.23-8.91-2.73-12.94-2.03-5.74,1-11.41,2.59-17.26,2.9-1.16.06-2.67.44-3.27-.77s-.99-2.74-1.24-4.12c-.21-1.19-.39-2.17.86-2.72,1.35-.59,2.86-.94,4.28-1.34,5.64-1.57,11.43-2.56,17.2-3.49,1.26-.21,2.58-.5,3.87-.4,1.43.12,2.12.88,2.49,2.23.85,3.11,1.34,6.37,2,9.53.39,1.89,3.28,1.09,2.89-.8-.67-3.21-1.13-6.56-2.05-9.71-.77-2.66-2.75-4.16-5.51-4.26-3.01-.11-6.22.78-9.17,1.29-3.27.57-6.54,1.2-9.76,1.99-1.53.38-3.06.79-4.57,1.25-1.35.41-2.85.77-4.01,1.61-2.51,1.83-1.63,5.35-.86,7.87.37,1.22.8,2.63,1.67,3.61,1.05,1.17,2.52,1.3,4,1.27,3.27-.06,6.52-.57,9.73-1.17,3.71-.7,7.4-1.58,11.13-2.15,2.11-.32,6.48-1.37,7.92.92,1.03,1.63,3.62.13,2.59-1.51h0Z"/>
  </g>
</svg>