<?xml version="1.0" encoding="UTF-8"?>
<svg id="Layer_1" data-name="Layer 1" xmlns="http://www.w3.org/2000/svg" viewBox="0 0 282.32 240.75">
  <defs>
    <style>
      .cls-1 {
        fill: #5ba3b6;
      }

      .cls-1, .cls-2, .cls-3, .cls-4 {
        stroke-width: 0px;
      }

      .cls-2 {
        fill: #5e6f7b;
      }

      .cls-3 {
        fill: #ecd258;
      }

      .cls-5 {
        opacity: .88;
      }

      .cls-4 {
        fill: #abd271;
      }
    </style>
  </defs>
  <g class="cls-5">
    <g>
      <path class="cls-2" d="M50.6,76.34c-.03-.15-.22-.15-.33.19l.18.35.14-.54Z"/>
      <path class="cls-2" d="M49.12,78.27c-.03.44,0,.98.36.86-.09-.5.06-.54-.07-1.09.11-.33.35-.52.43-.42-.02-.15.28-.48.18-.73-.4.33-.64.85-.72,1.48-.12.09-.14-.06-.17-.11Z"/>
      <path class="cls-2" d="M35.3,81.84v.22c.01-.06.01-.14,0-.22Z"/>
      <path class="cls-2" d="M19.94,71.51c.16.01.23-.01.24-.04-.15,0-.28,0-.24.04Z"/>
      <path class="cls-2" d="M16.38,70.76c.08.02.14.03.21.05-.08-.04-.16-.06-.21-.05Z"/>
      <path class="cls-2" d="M35.3,81.84v-.57c-.11-.02-.03.3,0,.57Z"/>
      <path class="cls-2" d="M47.6,82.83c.05-.11.07-.21.08-.31l-.11.27s.02.02.03.04Z"/>
      <path class="cls-2" d="M37.21,90.99l.03.17s.09.08.15.12l-.18-.29Z"/>
      <path class="cls-2" d="M38.82,92.48c-.08.07.09.27.12.41-.01-.14-.02-.21.06-.34-.04-.04-.09-.06-.19-.07Z"/>
      <path class="cls-2" d="M45.88,83.7l.07-.19c-.02.05-.05.13-.07.19Z"/>
      <path class="cls-2" d="M36.35,85.93s.06-.05.08-.08c-.03,0-.06.04-.08.08Z"/>
      <path class="cls-2" d="M57.97,74.43s0-.03,0-.05c-.04.03-.05.05,0,.05Z"/>
      <path class="cls-2" d="M49.56,74.09l.11-.03c0-.05.01-.1,0-.15l-.12.18Z"/>
      <path class="cls-2" d="M14.02,70.06h-.01s.04,0,.01,0Z"/>
      <path class="cls-2" d="M30.68,32.82c-.26-.68.94.68.48-.29-.02.14-.91-.47-.48.29Z"/>
      <path class="cls-2" d="M47.48,82.98l-.15.26c.08-.11.12-.19.15-.26Z"/>
      <path class="cls-2" d="M31.16,32.53h0s-.05-.1-.05-.1c.02.04.03.06.05.1Z"/>
      <path class="cls-2" d="M24.22,62.39c-.05-.02-.12-.01-.19,0,.02.02.07.02.19,0Z"/>
      <path class="cls-2" d="M14.83,68.81l.25-.14c-.1.05-.18.09-.25.14Z"/>
      <path class="cls-2" d="M28.76,58.6c.14-.07.2-.08.35-.23-.02,0-.04,0-.07.01-.04.07-.11.15-.28.22Z"/>
      <path class="cls-2" d="M33.76,54.56s-.08.07-.12.11c-.04.07-.09.15-.14.22.09-.1.18-.21.26-.33Z"/>
      <path class="cls-2" d="M69.43,68.11c.06.14.08.26.08.36.04-.2.79.29-.08-.36Z"/>
      <path class="cls-2" d="M47.48,82.77c.04.06.04.13,0,.22.03-.06.06-.13.09-.19-.03-.03-.06-.06-.1-.03Z"/>
      <path class="cls-2" d="M27.74,56.79l.81-.55c-.23.14-.53.34-.81.55Z"/>
      <path class="cls-2" d="M63.54,33.97l.23-.04c-.09,0-.17.01-.23.04Z"/>
      <path class="cls-2" d="M30.87,54.5c.19-.03.38-.1.54-.17.02-.04.04-.08.04-.12l-.58.29Z"/>
      <path class="cls-2" d="M69.51,68.47h0s0,0,0,0Z"/>
      <path class="cls-2" d="M71.11,73.18c1.85-.2.43-.39.52-.6,1.64-.29,1.26.11,2.28.17.57-.11.91-.25,1.17-.37-.63-.37-1.15-.67-1.47-.93.07-.02-.03-.12.29.03-.8-.44-1.5-.97-2.25-1.53-.37-.28-.76-.56-1.13-.81-.18-.12-.37-.24-.54-.34-.18-.11-.34-.18-.43-.2-.03-.06-.04-.1-.04-.14,0,.22-.08.37-.18.45-.33-.25-.75-.3-.73-.57.2.16.27.1.41.12l-.41-.19c-.12-.49.54.27.69.08-.74-.43-1.69-.83-2.15-1.3.08-.33,1.28.84.76.09l.73.71c-.31-.86.47.4.23-.45-1-.88-1.28-.78-2.28-1.65-.34-.04-.08.27-.42.22-1.69-.9-.7-1.53-2.05-2.04-.41-.05-.77.18-1.42-.59l.48-.08c-1-.81-.89-.04-1.82-1.05.28.03.88.52.75.37-.52-.75-.61-.21-1.15-.62l.08-.34c-1.12-.81-2.51-1.43-2.78-2.47.11.04.24.16.28-.07-.21-.53.06-1.39.49-2.29.42-.92.88-1.82,1.31-2.64v-.76c.07-.15.23-.24.22-.05.36-.63-.15-.1-.12-.46.13-.39.35-.44.33-.17.25-1.27.87-3.54,1.64-4.68l-.02.27c.49-.93-.08-1.3.51-2.1l-.02.19c.95-2.06,1.64-4.47,2.66-5.92-.24-.45.99-2.01.53-2.35.38-.58.5-.63.79-1.14.26-.44.58-1.02,1.26-2.58.12-.38.36-.78-.3-.54-.46.1-.91.2-1.39.23l.22-.29c-.55.1-1.06.2-1.5.31-.18-.12-.4-.22-.65-.31-.4.05-.48.08-.7.11.23,0,.5.1.5.18-.94.16-2.24.03-2.3-.13-.7.21-1.41.38-2.08.63.02-.12.37-.25.63-.37-1.07.53-.27-.25-1.25.24.15.03-.04.18-.04.24-.55-.04-1.72.27-2.53.64l.1-.24c-1.55.46-3.15,1.29-4.73,2.17.62-.22.64.15.2.42l-.33-.17c-.21.32.54-.16.04.37-.59.31-.56-.07-.27-.35l-.65.51c-.09-.05.05-.19.04-.32-.2.32-1.38.49-1.59,1.05l-.09-.05c-1.49,1.05-2.06,1.66-3.13,2.67.16.21-.3.56-.47,1.01-.79.66-1.83,1.68-2.31,1.86-.25.19-.04.24-.2.41-.02-.12-.13-.18-.21-.28-.09-.1-.12-.16.05-.16-.32-.15-.63-.5-.97-.86-.36-.39-.77-.8-1.44-1.47.06.22.17.43.03.39-.25-.24-.42-.67-.3-.7l.08.05c-1.63-1.42-2.58-4.23-4.04-5.23l.08.06-1.31-1.19c-.48-.65.45.26.18-.29-1.51-1.21-1.86-2.35-3.05-3.39-.06-.34-.26-.72-.54-1.12-.49-.65-1.2-1.49-1.85-2.25-1.38-1.63-2.48-2.75-3.68-4.52l.29.59c-.38-.33-.42-.32-.48.03.15.25.12-.4.26.3.17,1.65.29,3.12.39,4.59.11,1.36.23,2.74.34,4.12.15,1.88.32,3.77.62,5.61.23,1.35.99.58.98,2.33l-.41-.4c.96,2.59,1.38,5.44,2.53,7.9-.12-.13-.21-.1-.29-.35-.04.61.67,1.99.84,1.93.12.4-.12.15-.12.42.07.57.77,1.26.64,1.56-.02.05-.11-.11-.16-.19.11.14.23.5.29.72.06.22.09.35.21.23-.04.32-.04.42-.14.61-.1.2-.35.44-.69.59-.23.53-1.45.89-1.34,1.31-.19-.38-1.6.76-1.99,1.29.09-.23-.52.22-.42-.07-.57.43-1.06.88-.83.98-1.36.38-1.9,1.89-2.88,1.81-1.58,1.44-3.08,2.73-4.57,3.94-.19-.38,1.68-1.28,1.36-1.59-1.36,1.21-1.99,2.12-3.51,3.11-.41.23.11-.3.19-.45-1.36,1.21-2.85,2.04-4.02,3.18-.02-.03.1-.17.21-.29-.25.2-.63.39-.49.52l.22-.22c.27-.03.15.24-.16.62-.34.41-.65.77-.59.82-.04-.31-.47-.04-.95.25-.45.26-1,.58-.99.15-.23.22-.42.46-.13.41-.44.28-.74.4-.58.11-1.22,1.01-.49.69-1.33,1.35.04,0,.17.02.32.03-.17.05-.43.05-.73.08,0-.03-.02-.04-.06-.05l-.05.08c1.24-.02,2.22-.06,3.26.13-.16.04-.11.12-.51.07,1.18.12,2.26.13,3.18.14.19,0,.38,0,.57,0,.17,0,.34,0,.52.02.35.02.72.07,1.13.16-.53.34.54.2.59.55h.89s-.33-.21-.33-.21c.77.1,1.48-.08,2.13.11l-.59.08,1.45.1-.8-.23c.8-.09-.03-.45.98-.23-.21.01.77.09,1.15.34h0c.39-.06.8-.13,1.36.02.13.13-.16.37-.08.45.41-.24,1.81.13,2.32-.12-.17.05-.2.23-.15.28l.34-.2c.35.12.4.16.32.3,1.07.17-.29-.48.96-.14-.1,0-.06.05-.27.06,1.26.25,2.5.13,3.63.4.29.39-1.01-.04-.66.3.83.07,1.65.08,2.34.33.69.24,1.2.82,1.39,1.57-.02-.09-.04-.19-.06-.27.27,0,.32.31.32.68,0,.38-.04.83.15,1.22-.07-.2-.32-.21-.25-.17.12,1.12.53,2.25.99,3.9l-.16-.19c0,.67.25,1.74.32,2.45.16.19.22.6.35.32-.31,2.31,1.14,4.09.9,6.13-.04-.23-.21-.53-.18-.35l.41,1.63c.19-.17.09-.24.19-.62.16.19.34.63.42,1.04-.27-.72-.34.07-.4.41.05-.07.15.03.21,0-.1.49.02.59.15.6.13.05.28.06.28.79l-.11.03c.14.47.33.68.4,1.22-.13.65-.17-.31-.33-.06.08.41.24.61.36.79.29-.36.53-.72.73-.74-.12.17-.26.35-.41.52-.08.09-.15.18-.22.27l-.11.14s-.04.06-.05.06l-.02-.04v.12s.03,0,.03,0h.07s.09-.03.13-.05c.08-.04.16-.08.23-.14.15-.12.28-.27.52-.47l-.05.04c.36-.3.73-.64,1.13-1l-.31.22c.16-.4.29-.67.44-.91.16-.24.32-.43.46-.6.31-.36.67-.71.87-1.29-.41,1.11.06.29.22.54.25-.17.6-.46.58-.31.18-.56.72-.59.94-1.4.09.03.37-.45.47-.22.37-.61-.23.04-.28-.08.41-1.05,1.86-1.83,2.39-3.38.6-1.23.48-1.6,1-2.74.34-.28.1.47.1.47.48-.51.71-.97.94-1.57,0,.15.13.07.32-.05.23-.46-.12-.46.33-.99.03.15.1.36.07.63.23-.57.37-1.18.58-1.78.22-.08.04.45.02.69.27-.66.72-1.7.58-2.01l-.28.37c.1-.24.25-.02.21.17-.09.63-.48.74-.57.73l.16-.42c-.68.17-.75,1.63-1.23,2.4l-.16-.52c-.05.32-.11.64-.18.96-.19.12-.44.13-.27-.29-.49.46-.17.56-.63.93-.06.03-.06,0-.05-.05l-.23.59c0-.15-.29-.05-.04-.35-.77.84-.72,1.68-1.2,1.88l.03-.09c-.76,1.37.16.28-.23,1.44l-1.02.24.14.29c-.1.12-.31.37-.36.26-.19.6.16-.01.1.38-.66.47-1.19,1.78-1.66,1.63,0,.35.59-.48.19.26-.52-.12-.53.8-1.16,1.2-.05-.33.48-.75-.15-.36.06.6-.96.98-1.29,1.48.2.29-.55.82-1.09,1.54.02-.06-.04-.04-.13.02-.04.03-.1.07-.16.11-.03.01-.06.06-.09.05,0-.06-.01-.12-.02-.19-.04-.51-.09-1.05-.09-1.37l.05-.03c-.16.09-.25-.06-.34-.31-.04-.11-.08-.28-.12-.48-.05-.19-.09-.37-.14-.54.21,0,.31.1.47.46l-.12-.65c-.14-.13-.23-.33-.34-.74l.28.12c-.17-.86-.61-1.69-.65-2.83-.25-.02-.49,1-.86-.14.12-.07.33-.15.43.15-.03-.1-.17-.34-.15-.55l.3.43c0-.52-.23-.23-.28-.64.18-.02.07-.32.23-.29.04.1-.01.37.09.51-.05-.46-.04-1.03.06-1.24-.1.06-.24.04-.33-.29-.17-.86.16-.33.16-.86-.16-.19-.13-.76-.41-.73-.04-.25.07-.32.13-.43-.2-.43-.41-2.08-.61-1.53v.12s-.01-.04-.02-.07h0s0,0,0,0c-.53-1.42-.4-3.07-.78-4.5h.09c-.24-.85-.44-2.01-.95-2.52-.11-.24-.21-.66-.05-.62-.26-.3-.45-.42-.65-.58-.21-.15-.44-.35-.91-.63.76.2-.17-.29.76.28-.41-.32-.69-.49-.98-.61-.29-.12-.62-.18-1.13-.15.38-.18-.66-.41-1.07-.38l.6.25c-.49-.03-.89-.09-1.3-.16l.26-.28c-1.74-.58-3.28.26-4.57-.52-.5.16.95.26.5.47-.81-.14-1.62-.68-1.87-.71-1.1-.3-1.1.33-2.26.07.14.13.25.44-.64.44-.81-.14-.95-.58-.43-.6.2.01.29.06.28.1.27,0,.62-.02.31-.17l-.12.1c-.39-.16-1.52-.28-1.24-.43-.63.03-.29.15.17.26-1.03-.28-1.64-.2-2.71-.43.16.08.31.23.14.21-1.57-.32-.72.13-1.8.05-.3-.12-.23-.21-.23-.27,0-.03-.01-.05-.1-.07-.04,0-.11-.01-.17-.01-.04,0-.1,0-.17.02-.27-.15.11-.28.16-.37-.16.09-.34.03-.36-.04-.03-.07.07-.16.07-.18.08-.02.15-.04.21-.07-.11.04-.15.03-.17.03-.14.06-.27.12-.38.18,0-.04-.06-.05.15-.11-.19.05-.4.12-.61.19-.22.07-.45.15-.86.2,0-.02,0-.03-.04-.04.22-.13.24-.31.78-.4-.34.19-.16.15.07.09.23-.06.48-.1.45-.05-.05,0,0-.05.14-.1.08-.02.12-.01.15-.01.64-.14-.58.02-.16-.29.17.08.42.08.4.05-.07.05-.37-.07-.29-.29.14-.02.37-.22.48-.35.12-.13.19-.25.36-.37l-.43.24c.04-.23.38-.46.81-.83.12.07-.37.38-.17.3.34-.61,1.33-.6,1.93-1.28.4-.15.22.23.55.07.67-.76,1-.45,1.73-1.21-.37,0-.38.07.08-.53l-1.29,1.14.7-.91c-.42.3-.8.76-1.07.91.32-.46.3-.38,0-.38.77-.15,1.02-.98,1.81-1.29l.3.46c1.13-.53,1.59-1.52,2.96-2.35l-.47.23c.04-.3.78-.61,1.14-.98.07.18.37.04.61,0-.1-.09.95-.68.85-1.06l.72-.23c1.1-.68.88-1.29,1.91-1.97-.18.38.35.15-.24.76.33-.24.65-.44.58-.54.26-.05.78-.88,1.19-.96.09-.17.03-.36.41-.62.06,0,.05.07.05.07-.05-.07.51-.53.07-.45.68-.15,1.39-.68,2.08-1.21.67-.53,1.39-1,1.99-1.52.33-.54.39-1.27.28-1.83-.11-.57-.31-1.04-.46-1.43.07.03.09-.03.12.13-.23-1.12-.74-.47-1-1.74.06-.72.38.59.35.16.51-.37-.59-1.42-.52-2.35l.1.19c-.01-.68-.71-1.45-.97-2.49,0,0,.07.03.09-.02-.5-.62-.97-1.93-1.31-2.91.3.26.24.42.42.18-.14-.44-.34.23-.63-.66.05-.32,0-1,.24-1.14l.22.84c.21-.51-.27-1.09-.31-1.55l.15.03c-.33-1.29-.69-1.23-.94-2.65l-.08.17c-.5-.71.07-.68-.32-1.41l.32-.3c-.18-.49-.64-1.73-.83-2.65.34.49.63,1.54.9,2.17-.09-.5-.29-1.71-.51-1.95.06.2.19.44.17.65-.19-.29-.35-.63-.47-1.04-.06-.2-.12-.41-.16-.64-.04-.2-.07-.38-.09-.59.38.15.38-.2.37-.57,0-.36-.05-.88.29-.28-.05-.16-.08-.3-.11-.43,0-.03-.02-.07-.01-.09l.03.03.07.08c.11.13.24.32.36.51.25.39.39.69.57.88.12-.28.14-.27.22-.18.14.17.35.41.53.18.34.36.45.51.45.57l.69,1.37c.1.38-.39-.28-.46-.17.65.86.1.5.44,1.15.06-.24.46.11.79.63l-.35-.84c1.19.98.46,1.31,1.66,2.3l-.44-.26c.58.54,1.83,2.23,2.67,2.53.04.15.03.39-.22.15,1.13,1.49,3.01,2.9,3.72,4.2l-.2-.02c.25.24.59.3.76.73-.06.02-.2-.02-.1.11.16.11.74.55,1.09,1.02l-.43-.23c.31.42.7.81,1.23,1.07.53.27,1.21.32,1.73.15,1.09-.37,1.47-1.1,1.98-1.69.32.25,1.34-.66,1.88-1.08l.02.06c1.49-1.35,2.36-2.52,3.88-3.7,1.21-.27,3.56-1.83,5.44-2.2-.3.02-.07-.31.24-.46.44-.07,1.08-.66,1.13-.27l-.15.04c.43.27,1.26-.1,1.95-.23v-.5c.99.12,2.17-.12,3.27-.31.27-.06.54-.09.8-.12.08,0,.15-.02.22-.03.05,0,.09,0,.14,0,.18,0,.29.07.17.23.06-.03.12-.06.18-.07l.09-.03s.01.02.02.03c.01.05.02.1.07.16l-.33.11c-.04.06-.08.12-.11.17l-.04.06s-.02.04-.05.11l-.08.18c-.2.48-.4,1-.67,1.76l-.05-.37c-.35.83.28,1.34,0,2.11l-.46.09c-.57,1.46-1.48,2.81-1.72,4.38-.04-.04-.13-.13-.05-.37-.28.68-1.3,2.56-.7,2.51-.33-.11-.63,1.49-.8,2.34l-.19-.22c.04.79.12.84-.17,1.8-.12.21-.27.12-.09-.15-.42.68,0,.66-.48,1.5l-.02-.39c-.32.75-.21.72-.2,1.21-.09.51-.63,1.41-.89,1.43.09.15.1.64-.13,1.06-.11.03-.09-.15-.08-.25-.65,1.2-.52,1.96-.93,2.97-.09.01-.14.08-.17.17.17-1.32.62-2.07.58-2-.22-.1-.59.78-.64-.04-.11.75-.21,2.28.08,3.42,0,.06,0,.12-.03.17l-.07-.11c.06.26.18.48.32.65.14.33.24.53.45.78-.08.25.76.96,1.12,1.23.14-.22.58.18.27-.34.05.06-.09-.03-.33-.22-.06-.04-.12-.09-.17-.11h.04c-.24-.2-.55-.48-.86-.88.36.25.7.45,1,.9.29.03.59.06.75.08.25.66,1.04,1.51,1.03,1.78,1.14.69,2.54,1.82,3.5,1.94.34.18.26.38.32.52-.2-.09-.4-.26-.54-.27.68.36,1.8,1.32,2.16,1.16.66.7-.62-.07.46.67l-.2-.02c.85,1,1.82,1.46,2.79,1.96.14.07.22.11.3.14l.27.12c.19.09.38.21.57.33.37.25.73.58.65.74,0-.05,0-.08.11-.07l.21.22c-.61.02-1.06.07-1.53.14l-1.79.27c-1.55.22-3.09.41-4.61.35-.92,0-.99.23-1.52.46l-.23-.26-.91.43c-1.31.39-2.4-.42-4.04.22l.24.16c-.61.03-1.92.33-1.84.1-.06.04-.18.22-.43.15l-.04-.14-1.47.42c-1.17.03.11-.6-1.58-.43-.62.13-1.74.63-1.49.7.25-.02.66.02.69.16l-.57.14c-.05.44-.45.93,1,1.07l.95-.38.34.17-.83.11c.49.14.77-.07,1.09-.22.09.1.24.16.44.18l.92-.52c.14.15-.39.38.26.4.43-.24-.48-.33.26-.54.49.14.37.32.91.09.09.1-.02.19-.23.26.48-.19,1.3-.21,1.52-.46.52.18,1.65-.25,1.65.16.14-.12.83-.42,1.28-.49-.77.58,1.69-.17,1.54.38.56-.51,2.18-.45,3.24-.81-.06.04-.17.13-.27.11.61-.03.81.08,1.21.12.04-.37.98-.56,1.46-.84.79.26-.4.48-.13.78-.07-.29,1.26-.44.98-.66.6.15.5.05.83.31.02-.23.15-.27.33-.28.05,0,.1,0,.15-.01.08-.01.17-.02.26-.04.18-.03.36-.08.52-.17,1.47.06.66.35,2.13.04.98.03-.35.34-.39.35ZM58.15,59.19h0c.03.13.08.24.11.31-.03-.06-.07-.15-.11-.31ZM58.29,57.73c-.07.19-.13.43-.16.66-.1.04-.18-.03-.15-.19.04.1.16-.26.31-.48ZM57.72,61.84c-.27-.21-.31-.35-.3-.42.11.12.25.26.44.41.01,0,.04,0,.05,0-.06.01-.12.02-.19,0Z"/>
      <path class="cls-2" d="M58.38,61.98s.06.03.11.07c-.04-.06-.07-.11-.1-.16-.05,0-.09,0-.14-.01.04.04.09.07.13.11Z"/>
      <path class="cls-2" d="M35.3,82.1v-.04s-.01.06-.02.09c0-.03.02-.03.02-.05Z"/>
      <polygon class="cls-2" points="66.68 33.75 66.62 33.82 66.95 33.76 66.68 33.75"/>
      <path class="cls-2" d="M36.22,92.16s-.04.06-.04.14c.02,0,.03-.07.04-.14Z"/>
      <path class="cls-2" d="M38.06,95.19l.6-.49c-.27.21-.45.36-.6.49Z"/>
      <path class="cls-2" d="M40.87,92.3c0-.06-.03-.09-.04-.12h0s.05.12.05.12Z"/>
      <path class="cls-2" d="M13.61,67.54s.07-.06.1-.09c.21-.22.06-.08-.1.09Z"/>
      <path class="cls-2" d="M21.71,72.72c-.17.03-.34.05-.52.06.28.05.49.08.52-.06Z"/>
      <polygon class="cls-2" points="27.65 56.85 27.66 56.86 27.74 56.79 27.65 56.85"/>
      <path class="cls-2" d="M20.46,72.69c.27.08.51.1.73.09-.23-.04-.49-.1-.73-.09Z"/>
      <path class="cls-2" d="M49.04,80.18l.08-.14s-.02-.02-.03-.04l-.05.18Z"/>
      <path class="cls-2" d="M49.1,80.01l.05-.18c-.04.07-.07.14-.05.18Z"/>
      <path class="cls-2" d="M49.26,79.46l-.11.37c.06-.12.14-.26.11-.37Z"/>
      <path class="cls-2" d="M46.79,84.05l.06.09s-.02-.07-.06-.09Z"/>
      <path class="cls-2" d="M46.1,85.22c.19-.26.6-.59.79-1l-.04-.08c.01.26-.72.73-.74,1.08Z"/>
      <path class="cls-2" d="M41.93,89.17l.73-.85c-.2.1-.46.22-.18-.2-1.08.94.36-.1-.56,1.05Z"/>
      <path class="cls-2" d="M39.64,91.76c.36-.48-.11-.09-.14-.15-.18.34-.22.43.14.15Z"/>
      <path class="cls-2" d="M33.48,74.21l.23-.09c-.42-.43-.07.05-.23.09Z"/>
      <polygon class="cls-2" points="28.49 73.75 28.93 73.95 29.16 73.76 28.49 73.75"/>
      <polygon class="cls-2" points="25.86 71.74 26.06 71.73 25.28 71.73 25.86 71.74"/>
      <path class="cls-2" d="M33,55.76l-.31-.13c-.23.24-.1.56.31.13Z"/>
      <path class="cls-2" d="M29.65,37.53c.11-.22.11-.74-.09-1.02.05.4.02.82.09,1.02Z"/>
      <path class="cls-2" d="M61.06,36.55c-.11.05-.22.1-.33.16.21-.08.42-.13.64-.2l-.31.04Z"/>
    </g>
  </g>
  <polygon class="cls-3" points="246.38 173.09 228.06 189.57 228.16 167.36 207.05 157.23 233.33 152.36 226.18 124.19 245 145.81 269.31 136.68 256.92 160.34 267.13 182.42 246.38 173.09"/>
  <polygon class="cls-1" points="209.15 213.82 205.49 228.23 198.09 217.05 184.1 219.05 195.65 207.79 182.62 196.06 199.31 200.59 208.45 187.86 210.17 203.89 222.7 211.55 209.15 213.82"/>
  <polygon class="cls-4" points="175.93 64.87 186.57 69.18 177.24 73.67 177.3 84.59 169.9 74.56 159.55 83.31 164.77 71.01 155.99 62.68 168.43 63.05 175.61 54.26 175.93 64.87"/>
</svg>