<?xml version="1.0" encoding="UTF-8"?>
<svg id="Layer_1" data-name="Layer 1" xmlns="http://www.w3.org/2000/svg" viewBox="0 0 248.52 127.73">
  <defs>
    <style>
      .cls-1 {
        fill: #4f616f;
      }

      .cls-1, .cls-2, .cls-3, .cls-4 {
        stroke-width: 0px;
      }

      .cls-2 {
        fill: #f37e7d;
      }

      .cls-3 {
        fill: #657581;
      }

      .cls-4 {
        fill: #fff;
      }
    </style>
  </defs>
  <g>
    <path class="cls-2" d="M211.77,46.07c.06.04.17,0,.13-.14l-.21-.07.08.21Z"/>
    <path class="cls-2" d="M211.99,45.06c-.12-.15-.31-.32-.48-.19.21.14.14.19.39.34.04.14-.03.26-.1.24.06.04-.01.23.12.29.12-.21.1-.44-.06-.67.04-.06.09-.02.13,0Z"/>
    <path class="cls-2" d="M210.28,31.07v.09s0-.06,0-.09Z"/>
    <path class="cls-2" d="M209.13,22.42c.01.07.04.09.06.09-.02-.06-.04-.11-.06-.09Z"/>
    <path class="cls-2" d="M209.13,20.92s0,.06,0,.09c.01-.04.02-.07,0-.09Z"/>
    <path class="cls-2" d="M210.28,31.07l.03-.24c-.07,0-.03.13-.03.24Z"/>
    <path class="cls-2" d="M211.25,43.2s.04.08.07.12l-.04-.11h-.03Z"/>
    <path class="cls-2" d="M210.99,34.86v.07s.07.03.1.05l-.1-.12Z"/>
    <path class="cls-2" d="M211.44,37.77c0-.07-.17-.07-.25-.08.07.03.11.07.13.13.03,0,.07-.02.11-.05Z"/>
    <path class="cls-2" d="M211.82,42.45l.03.08s-.02-.05-.03-.08Z"/>
    <path class="cls-2" d="M210.72,32.76s.04-.02.06-.04c-.02,0-.04.02-.06.04Z"/>
    <path class="cls-2" d="M214.02,45.8s-.01-.02-.02-.03c0,.02,0,.04.02.03Z"/>
    <path class="cls-2" d="M210.65,46.83l.04-.03s-.02-.06-.04-.09v.12Z"/>
    <path class="cls-2" d="M209.26,18.42h0c.01.07.01.04,0,0Z"/>
    <path class="cls-2" d="M224.4,27.71c-.31.08.2-.45-.22-.29.07.02-.1.45.22.29Z"/>
    <path class="cls-2" d="M211.26,43.12l-.02-.12c0,.06,0,.09.02.12Z"/>
    <path class="cls-2" d="M224.18,27.42h0s-.04.02-.04.02c.02,0,.03-.01.04-.02Z"/>
    <path class="cls-2" d="M212.95,17.1s0-.06-.01-.09c0,.02,0,.04.01.09Z"/>
    <path class="cls-2" d="M209.43,17.11l.07-.06s-.06.04-.07.06Z"/>
    <path class="cls-2" d="M214.88,18.29c.03.05.03.08.1.13,0-.01,0-.02,0-.03-.04,0-.07-.03-.1-.09Z"/>
    <path class="cls-2" d="M216.43,20.19s0-.04,0-.06l-.05-.06.05.12Z"/>
    <path class="cls-2" d="M220.59,41.81c-.07-.01-.13-.04-.18-.07.09.08-.2.31.18.07Z"/>
    <path class="cls-2" d="M211.34,43.19s-.07-.03-.08-.06l.02.08s.05,0,.06-.02Z"/>
    <path class="cls-2" d="M215.89,17.44c.09.11.19.22.28.34-.07-.11-.17-.22-.28-.34Z"/>
    <path class="cls-2" d="M235.46,31.08l-.03.1s.03-.07.03-.1Z"/>
    <path class="cls-2" d="M216.98,18.72c0,.09.02.18.05.26.02,0,.04.01.06.01l-.11-.27Z"/>
    <path class="cls-2" d="M220.41,41.73h0s0,0,0,0Z"/>
    <path class="cls-2" d="M218.34,43.43c.33-.19.04-.28.05-.43.36-.29.26.03.46.05.22-.2.3-.48.49-.58.03.02.07.01.06.08.17-.3.77-.46.96-.83.03,0,.05.01.07.02-.11-.07-.17-.16-.2-.23.15-.09.2-.28.33-.19-.09.05-.07.1-.09.17l.12-.15c.24.1-.17.19-.1.32.27-.24.53-.59.79-.68.15.15-.51.38-.11.35l-.4.15c.44.11-.23.11.2.25.5-.23.47-.4.97-.63.05-.16-.12-.12-.07-.28.56-.57.79.13,1.14-.4.06-.19-.02-.44.4-.53v.27c.46-.25.09-.44.65-.59-.04.13-.32.28-.24.26.4-.03.15-.24.39-.38l.15.15c.47-.32.93-.76,1.45-1.11,0,.07-.06.18.1.16.63-.49,1.46-.84,2.17-1.12l.16-.3c.06-.03.15,0,.1.07.29-.09-.04-.1.04-.24.14-.1.24-.03.18.07.38-.4,1.11-1.02,1.69-1.16l-.07.1c.42-.17.23-.56.66-.65l-.05.07c.84-.46,1.58-1.23,2.3-1.52-.06-.27.79-.58.57-.88.51-.28.45-.12,1.06-.66.14-.17.02-.39.14-.62l.16.1.03-.41.29-.05c.03-.08.06-.16.09-.24-.05.09-.18.15-.22.11.12-.38.55-.81.63-.8.06-.33.12-.65.12-.99.07.04.06.2.08.35-.08-.56.21-.06.14-.58-.05.06-.1-.05-.14-.07.13-.22.18-.8.06-1.21l.13.07c-.04-.77-.39-1.57-.89-2.27.12.29-.11.34-.25.16l.1-.19c-.19-.05.09.24-.22.08-.16-.25.04-.3.21-.2-.1-.09-.19-.18-.29-.25.03-.05.11-.01.18-.04-.19-.03-.33-.63-.66-.6l.02-.06c-.68-.51-1.05-.63-1.67-.86-.07.15-.3.03-.52.11-.42-.19-.92-.42-1.49-.45-.4.06-.12.13-.3.22-.02-.17-.59-.14-.29-.25-.68.04-.88.06-1.69.36.1.04.21.04.17.1-.14.06-.35.03-.35-.05l.04-.03c-.82.44-2.21.41-2.69,1.1l.03-.04c-.18.19-.37.37-.54.57-.3.19.1-.22-.16-.14-.5.69-1.04.77-1.42,1.35-.34,0-.67.33-.98.68-.11.12-.21.25-.31.36-.03.03-.07.04-.09-.05l.02.14c-.02.17-.03-.05-.03-.09-.01.13.02.12,0,.22-.03.05-.06.1-.09.14-.04-.07-.07-.18-.09-.29-.01-.05-.02-.1-.02-.15l-.15-.49c-.2-.67-.42-1.35-.68-1.99-.22-.52-.63-.05-.72-.79l.27.09c-.72-.9-1.1-2.06-1.87-2.89.07.03.12,0,.18.09,0-.28-.46-.74-.56-.67-.08-.15.07-.09.06-.21-.06-.25-.49-.39-.44-.57,0-.03.08.03.11.06-.14-.09-.4-.6-.45-.38-.18-.39-.53-.6-.65-.92-.27-.06-.37-.62-.62-.51.24-.13-.31-.73-.6-.84.12.01-.11-.23.05-.23-.23-.23-.48-.38-.53-.25-.23-.64-1.05-.54-1.09-1.05-.88-.41-1.75-.7-2.65-.75.08-.29.98.17,1.01-.08-.88-.15-1.41,0-2.28.11-.23.03.1-.16.18-.2-.91.25-1.72.76-2.05,1.52-.02-.02,0-.1.04-.18-.09.13-.23.3-.12.34l.05-.15c.26-.11.03.7.14.75-.26-.36-.31.65-.61.15,0,.1.02.24.1.24-.06.13-.11.17-.17,0-.04.54.12.37.07.83-.06,0-.08-.1-.14-.16.1.25.19.48.15.86-.04-.02-.08.02-.08-.09.03.66.37,1.07.35,1.76-.28-.16-.05.24-.27.31l.12.35.09-.16c.04.32.24.57.21.85l-.12-.22.13.59.04-.35c.16.3.27-.07.27.35-.03-.08.04.32-.06.5h0c.09.14.19.29.17.54-.06.07-.25-.01-.29.03.21.13.16.73.38.9-.06-.06-.17-.04-.19-.02l.17.11c-.03.15-.05.18-.14.17.04.44.26-.18.21.36-.02-.04-.04-.02-.07-.1.01.53.24,1,.24,1.49-.2.17-.12-.41-.28-.22.14.69.47,1.4.52,2.08v-.13c.33.05-.08.52.12.84-.04-.08-.19-.08-.15-.07.02.47.21.93.41,1.61l-.09-.07c-.03.28.06.72.07,1.02.09.08.1.24.21.13-.33.97.5,1.69.23,2.54-.01-.1-.1-.22-.09-.14l.17.67c.13-.07.07-.1.15-.26.09.07.18.26.21.43-.13-.29-.22.03-.28.18.04-.03.09.01.13,0-.19.39.28.02.19.53l-.08-.02c.06.18.18.33.19.53-.15.1-.1-.18-.23-.18.05.27.38.5.26.77-.06-.11-.09-.28-.15-.39-.15.3-.09.32-.09.53v-.02s-.01.48-.01.48l.03-.13c.46.29.18.69.51,1.12-.32-.42-.16-.05-.34-.06-.03.13-.06.31-.12.27.18.2-.06.38.2.66-.06.02.03.24-.12.21.09.28.09-.08.17-.07.26.41-.09,1.07.27,1.66.19.53.4.6.57,1.1-.07.18-.23-.11-.23-.11-.04.29,0,.49.1.74-.06-.05-.09.02-.15.1.05.21.23.11.18.4-.07-.04-.18-.08-.26-.18.09.24.23.47.32.71-.09.08-.17-.13-.25-.21.09.28.2.73.37.79l.03-.19c.02.1-.13.07-.17,0-.16-.23,0-.36.06-.38l.06.18c.31-.24-.16-.72-.19-1.09l.27.12-.26-.35c.05-.09.18-.16.24.01.08-.28-.12-.22-.02-.46.02-.03.03-.02.04,0l-.11-.25c.06.04.17-.07.15.09.07-.48-.29-.71-.13-.91l.02.04c-.18-.63-.19-.04-.47-.48l.4-.39-.19-.04c0-.07,0-.2.07-.19-.16-.23-.07.05-.21-.07.12-.34-.2-.86.07-.97-.15-.09-.06.32-.21,0,.29-.14-.11-.38,0-.69.17.07.13.35.23.04-.29-.14-.02-.57-.11-.81-.22.02-.17-.52-.3-.92.08.02,0-.79.03-1.18h.04c-.23-.04-.24-.43-.33-.71.13,0,.19.04.27.18l-.04-.27c-.08-.05-.13-.13-.18-.3l.17.04c-.06-.36-.3-.69-.25-1.17-.15,0-.37.43-.54-.05.08-.03.22-.07.27.05-.02-.04-.09-.14-.07-.23l.17.17c.03-.22-.13-.09-.14-.26.12-.01.07-.14.16-.13.02.04-.03.15.03.21,0-.19.03-.43.11-.52-.06.03-.16.02-.19-.11-.06-.36.12-.14.15-.36-.09-.07-.04-.32-.22-.3-.01-.1.06-.14.11-.18-.1-.17-.15-.86-.3-.63v.05s-.02-.03-.02-.03h0s0,0,0,0c-.26-.58-.08-1.27-.25-1.87h.06c-.12-.36-.16-.8-.32-1.04-.02-.11.07-.27.15-.23-.08-.27-.15-.29-.11-.7.14.26.08-.11.12.27,0-.36.08-.46-.13-.82.17.11.15-.3.08-.46l-.07.27c-.05-.19-.06-.36-.07-.53l.21.06c.13-.76-.6-1.26-.28-1.87-.17-.17-.04.41-.22.26-.02-.34.21-.73.19-.84.04-.48-.35-.39-.34-.88-.06.07-.24.16-.36-.19-.02-.34.23-.46.32-.25.02.08,0,.12-.02.12.04.1.09.24.15.1l-.08-.03c.05-.18-.03-.64.1-.55-.1-.24-.13-.09-.14.1.04-.45-.09-.67-.09-1.13-.03.08-.1.15-.11.08,0-.66-.17-.26-.26-.7.08-.26.26.06.13-.36.05-.27.18-.07.25.03-.17-.38.05-.72.07-.92l.06.19c-.04-.12-.03-.21-.03-.3l-.14.11c.03-.11.03-.21.09-.2-.08-.12-.24.08-.35-.16.08-.15-.02-.48.18-.5-.14.45.19-.02.17.36-.01-.07,0-.17.04-.27.02-.01.04.02.04.05.25-.36-.18-.23-.04-.65.08.09.22-.02.23-.08-.07.14-.2,0-.2-.18.2-.2.09-.29.19-.4l-.13.11c-.05-.1.03-.23.16-.39.07.04-.08.17,0,.14.02-.3.48-.22.66-.44.15,0,.1.17.22.16.23-.23.33.03.6-.12-.1-.12-.13-.11.11-.25-.19.04-.37.1-.53.19.08-.11.19-.19.31-.28-.19.01-.35.16-.45.17.13-.17.13-.13,0-.21.28.12.48-.24.81-.09l-.02.35c.37.18.77-.1,1.31.22-.05-.05-.1-.08-.15-.12.13-.11.35.13.55.16-.07.1.02.19.06.3.03-.08.38.22.55.06l.14.28c.36.34.66.07,1.01.43-.19,0-.08.2-.39.06.12.1.21.22.27.16.02.12.44.19.46.38.08.01.19-.06.31.09,0,.03-.04.04-.04.04.04-.04.25.17.24-.04.06.61.93,1.12.95,1.67.25.27.54.61.73.88-.04,0-.05.03-.07-.03.17.44.44.04.63.55-.01.33-.24-.18-.21,0-.28.27.39.5.39.92l-.06-.06c.03.29.47.48.67.87,0,0-.04,0-.05.03.32.16.66.63.91.98-.2-.04-.16-.13-.26.01.11.16.19-.17.41.15-.01.15.04.43-.09.53l-.17-.31c-.11.26.22.41.27.59l-.09.02c.27.47.48.38.72.92l.04-.08c.34.2,0,.3.28.52l-.18.18c.14.17.5.59.69.93-.24-.14-.49-.51-.7-.72.08.19.29.65.44.71-.05-.07-.15-.15-.14-.24.27.18.47.41.65.91-.33.18.18,1.11.35,1.96.09-.05.17-.08.22-.04.45-.6.83-.98,1.29-1.41.27-.26.37-.32.53-.47.15-.13.31-.26.45-.42-.46-.05.17-.18-.11-.41.13-.15.19-.2.22-.2l.59-.24c.18-.01-.09.18-.02.23.34-.26.24,0,.51-.11-.13-.06,0-.24.21-.35l-.37.08c.35-.53.59-.08.95-.58l-.08.2c.2-.24.9-.61,1.03-1,.07.01.17.07.07.15.62-.3,1.34-.95,1.91-.87l-.03.1c.12-.05.19-.2.36-.14,0,.04-.04.1.02.09.06-.04.32-.19.5-.16l-.14.11c.66.07,1.03-.26,1.63-.22-.04.26.45.45.67.58l-.02.03c.69.27,1.25.31,1.85.73.13.47.79,1.21.73,1.94.03-.11.21-.02.24.1-.04.16.24.44-.02.42,0-.02,0-.04,0-.06-.25.13-.17.43-.23.67l.3.1c-.28.3-.36.72-.52,1.12-.14.4-.32.77-.6.81-.04.18-.16.37-.22.55l-.12-.11c-.35.35-.53.51-.94.97v-.17c-.25.22.02.66-.23.89l-.24-.13c-.47.41-1.11.6-1.48,1.14-.01-.04-.04-.11.04-.17-.24.17-1.04.48-.77.72-.13-.19-.56.32-.82.58l-.04-.17c-.15.33-.12.39-.45.65-.09.03-.14-.07,0-.1-.32.09-.14.26-.52.39l.07-.17c-.29.16-.24.19-.34.4-.15.16-.57.29-.69.18,0,.1-.09.3-.28.36-.05-.04,0-.1.01-.14-.54.19-.62.59-1.03.65-.03-.04-.07-.05-.11-.05.38-.22.7-.4.67-.37-.08-.13-.4.03-.26-.3-.19.25-.48.71-.82.83-.02,0-.04,0-.07-.02l.02-.03c-.08.03-.13.08-.18.13-.11.04-.18.06-.27.11-.1-.09-.39.15-.55.24.1.14-.12.23.14.24-.03,0,.02-.03.12-.1.02-.02.05-.04.06-.05v.02c.1-.06.23-.14.37-.24-.08.15-.17.28-.39.3-.02.14-.05.29-.08.36-.33-.08-.8.06-.93-.03-.42.36-1.08.71-1.21,1.16-.11.11-.2.01-.27,0,.06-.07.16-.12.17-.19-.23.23-.78.5-.73.72-.39.11.09-.29-.36.02l.03-.09c-1.09.24-1.19,1.36-2.43,1.57.08-.02.13-.03.16,0-1.25.51-2.27,1.57-3.57,1.97-.36.14-.32.28-.46.49l-.16-.11-.23.38c-.4.41-1.05.11-1.51.72l.14.06c-.23.11-.65.47-.69.33-.01.03,0,.15-.12.15l-.05-.08-.45.46c-.45.19-.13-.36-.74-.02-.21.16-.5.61-.38.62.09-.05.26-.09.32,0l-.18.16c.1.26.09.6.69.47l.26-.35.18.05-.29.18c.23,0,.28-.15.36-.29.06.04.14.06.22.04l.21-.43c.1.07-.04.28.22.19.1-.2-.28-.12-.05-.35.23,0,.24.13.38-.08.06.05.05.11-.02.18.13-.18.45-.31.46-.49.25.03.57-.39.69-.15.02-.09.2-.36.36-.47-.13.44.61-.34.71,0,.07-.37.72-.57,1.03-.94-.01.03-.03.1-.07.1.23-.11.34-.07.5-.11-.09-.22.22-.46.33-.7.38.04-.02.33.17.47-.11-.15.37-.44.19-.52.27,0,.21-.05.41.06-.11-.27.16-.15.24-.41.37-.05.22.19.49-.08.2-.01-.04.25-.04.25ZM225.77,38.43h0c-.06.05-.12.08-.15.11.03-.02.08-.05.15-.11ZM226.42,38.04c-.08.04-.18.1-.28.16-.05-.04-.06-.1,0-.14-.02.05.15,0,.28-.02ZM224.46,37.86c.09-.08.14-.07.17-.05-.05.03-.1.07-.17.12v.02s-.01-.07,0-.1Z"/>
    <path class="cls-2" d="M224.39,38.15s-.02.02-.04.04c.03,0,.06,0,.08,0v-.07s-.04.03-.04.03Z"/>
    <path class="cls-2" d="M210.27,31.18v-.02s0,.03-.02.04c0-.01.01-.01.02-.02Z"/>
    <polygon class="cls-2" points="235.06 31.91 235.02 31.89 235.01 31.97 235.06 31.91"/>
    <path class="cls-2" d="M210.29,35.36s-.03.03-.03.06c.01,0,.02-.03.03-.06Z"/>
    <path class="cls-2" d="M210.51,37.14l-.02.26c.02-.11.02-.19.02-.26Z"/>
    <path class="cls-2" d="M210.63,38.51s.05.01.07.02h0s-.08-.02-.08-.02Z"/>
    <path class="cls-2" d="M208.48,16.52s.02-.04.03-.06c.07-.14.01-.05-.03.06Z"/>
    <path class="cls-2" d="M208.61,23.28c-.04-.06-.08-.13-.11-.2,0,.12.01.21.11.2Z"/>
    <polygon class="cls-2" points="215.86 17.4 215.86 17.4 215.89 17.44 215.86 17.4"/>
    <path class="cls-2" d="M208.47,22.79c-.02.12,0,.21.04.3,0-.1,0-.21-.04-.3Z"/>
    <path class="cls-2" d="M211.41,44.42v.07s.02,0,.03,0l-.03-.07Z"/>
    <path class="cls-2" d="M211.44,44.49l.03.07s-.01-.06-.03-.07Z"/>
    <path class="cls-2" d="M211.53,44.71l-.06-.15c0,.05.01.12.06.15Z"/>
    <path class="cls-2" d="M211.22,42.61h-.06s.03,0,.06,0Z"/>
    <path class="cls-2" d="M211.12,42.06c0,.13-.08.35-.02.52h.05c-.1-.06.09-.41-.03-.52Z"/>
    <path class="cls-2" d="M211.54,39.67l.02.47c.05-.09.12-.21.17,0,.11-.61-.13.14-.19-.46Z"/>
    <path class="cls-2" d="M211.42,38.23c.07.24.09-.02.13,0-.08-.15-.1-.18-.13,0Z"/>
    <path class="cls-2" d="M209.93,27.95h.15c-.05-.18-.06,0-.15,0Z"/>
    <polygon class="cls-2" points="208.87 26.1 208.8 26.3 208.95 26.37 208.87 26.1"/>
    <polygon class="cls-2" points="209.77 24.79 209.81 24.87 209.71 24.56 209.77 24.79"/>
    <path class="cls-2" d="M216.05,19.92l.12-.16c-.1-.08-.29.03-.12.16Z"/>
    <path class="cls-2" d="M220.02,26.17c-.05.11-.02.33.12.41-.06-.16-.06-.34-.12-.41Z"/>
    <path class="cls-2" d="M234.56,29.5l-.04-.14c0,.08,0,.16,0,.24l.05-.11Z"/>
  </g>
  <g>
    <path class="cls-4" d="M16.9,114.31c14.41-6.49,12.86-6.96,14.41-11.38s-.56-5.91-2.12-10.32-3.23-9.16-2-13.68c2.23-8.16,12.14-11,20.47-12.47,34.28-6.06,68.55-12.12,102.83-18.18,4.16-.73,8.93-1.32,12.15,1.42,2.22,1.88,3.08,4.88,3.73,7.71,1.12,4.83,1.96,9.72,2.51,14.64.32,2.84.53,5.84-.66,8.44-1.58,3.45-5.23,5.4-8.7,6.94-19.36,8.6-40.53,12.09-61.46,15.32-27.01,4.17-54.07,8.02-81.17,11.56"/>
    <g>
      <path class="cls-4" d="M16.82,113.65c-.18.11-.05.29.49.18l.34-.38-.83.21Z"/>
      <path class="cls-4" d="M20.53,113.74c.61-.25,1.31-.63.86-.88-.59.4-.76.29-1.38.77-.53.12-.96.03-.88-.1-.18.11-.85.05-1.11.29.74.15,1.63.04,2.53-.3.21.04.03.16-.01.22Z"/>
      <path class="cls-4" d="M73.34,106.74h-.35c.1.02.21.01.35,0Z"/>
      <path class="cls-4" d="M106.03,102.15c-.25.05-.35.1-.35.13.23-.06.41-.11.35-.13Z"/>
      <path class="cls-4" d="M111.65,101.59c-.12.01-.22.02-.33.03.13,0,.26,0,.33-.03Z"/>
      <path class="cls-4" d="M73.34,106.74l.89-.02c.05-.12-.46-.02-.89.02Z"/>
      <path class="cls-4" d="M27.69,111.91c-.18.04-.33.09-.46.15.15-.03.29-.07.44-.1,0-.02.01-.04.02-.06Z"/>
      <path class="cls-4" d="M58.97,109.06l-.27.04c-.07.05-.14.1-.2.16l.47-.2Z"/>
      <path class="cls-4" d="M47.92,110.68c.25-.02.3-.31.38-.45-.13.13-.3.22-.52.27,0,.05.04.11.14.18Z"/>
      <path class="cls-4" d="M30.32,112.69l-.31.08c.08-.02.21-.06.31-.08Z"/>
      <path class="cls-4" d="M66.89,107.99s.07.07.12.08c0-.03-.05-.06-.12-.08Z"/>
      <path class="cls-4" d="M29.17,109.36s-.02-.02-.03-.04c-.04.07-.04.1.03.04Z"/>
      <path class="cls-4" d="M16.87,114.24l.16-.09c0-.06,0-.11-.03-.16l-.13.25Z"/>
      <path class="cls-4" d="M121.89,100.09s-.03,0-.05,0c-.26.08-.11.05.05,0Z"/>
      <path class="cls-4" d="M151.45,46.94c1.11.07-1.69.6-.04.62-.17-.09,1.41-.67.04-.62Z"/>
      <path class="cls-4" d="M27.98,111.91c.15-.02.3-.04.45-.07-.21.02-.35.04-.45.07Z"/>
      <path class="cls-4" d="M151.42,47.55h0s.17,0,.17,0c-.07,0-.11,0-.17,0Z"/>
      <path class="cls-4" d="M145.04,94.15c-.06-.03-.16-.04-.27-.05.02.03.08.04.27.05Z"/>
      <path class="cls-4" d="M127.73,98.29l.44-.06c-.18.01-.32.03-.44.06Z"/>
      <path class="cls-4" d="M153.64,90.72c.23-.07.32-.06.61-.21-.03,0-.07,0-.11,0-.1.08-.24.15-.51.21Z"/>
      <path class="cls-4" d="M162.5,86.89c-.06,0-.12.02-.19.03-.08.05-.18.11-.27.16l.46-.19Z"/>
      <path class="cls-4" d="M28.01,81.17c-.09.18-.19.3-.29.39.21-.12.22,1.16.29-.39Z"/>
      <path class="cls-4" d="M27.72,112.07c.05-.08.12-.12.27-.16-.11.02-.21.04-.31.06-.02.05-.02.09.05.1Z"/>
      <path class="cls-4" d="M153.2,88.51l1.42-.51c-.4.13-.92.31-1.42.51Z"/>
      <path class="cls-4" d="M88.4,60.42l-.34.09c.13-.02.25-.05.34-.09Z"/>
      <path class="cls-4" d="M158.72,86.24c.29-.01.57-.08.85-.16.05-.05.1-.09.13-.14l-.97.3Z"/>
      <path class="cls-4" d="M27.72,81.56h0s0,0,0,0Z"/>
      <path class="cls-4" d="M30.23,90.75c-.45-1.35-.56-.52-.86-.74-.63-1.58.01-.83.02-1.43-.4-.97-.93-1.65-1.09-2.41.05-.07.04-.22.15-.07-.27-.5-.42-1.3-.53-2.11-.1-.81-.16-1.64-.31-2.27.03-.09.07-.14.1-.16-.19.19-.38.22-.51.17.02-.62-.14-1.19.14-1.39-.07.38.03.42.09.61-.02-.22-.02-.44-.02-.66.42-.52-.01.89.27.92-.02-.62,0-1.3.09-1.94.11-.63.28-1.23.49-1.66.36-.06-.62,2.14.07,1.05-.22.44-.37.9-.51,1.36.38-.49.33-.27.27-.05-.04.23-.08.45.28.02.56-1.72.38-2.05,1.39-3.59.08-.45-.31-.03-.23-.49.28-.63.65-.97.92-1.21.27-.25.52-.35.76-.43.48-.15.79-.29,1.46-1.06.26-.5.19-.99,1.56-1.58-.08.19-.15.4-.22.59.8-.49,1-.7,1.19-.95.19-.24.43-.45,1.41-.76-.27.29-1.32.76-1.03.68,1.31-.28.73-.6,1.67-1l.32.24c1.87-.83,4.01-1.73,6.27-2.32-.1.13-.47.32.09.3,2.8-.84,6.19-1.14,9.06-1.46l1.03-.48c.25-.04.49.05.23.15,1.12-.09.02-.19.53-.4.62-.13.86.02.48.18,1.9-.59,5.45-1.51,7.56-1.56l-.38.16c1.62-.17,1.7-.91,3.23-.9l-.27.1c3.49-.49,7.27-1.43,9.99-1.46.43-.51,3.46-.42,3.58-1.04,2.03-.06,1.48.14,4.3-.16.75-.1,1.05-.56,1.96-.78l.08.3,1.19-.54.73.25.85-.23c-.35.04-.76,0-.72-.1,1.32-.38,3.32-.37,3.39-.22l3.14-.82c-.05.13-.58.27-.98.42,1.65-.61.37.27,1.88-.29-.22-.03.08-.2.11-.27.81.05,2.58-.27,3.88-.57l-.21.25c2.38-.37,4.97-.98,7.63-1.45-.97.07-.82-.33-.04-.5l.37.27c.47-.29-.83.02.15-.4,1-.14.73.25.18.45l1.19-.32c.09.08-.19.18-.24.32.46-.29,2.14-.05,2.79-.52l.08.08c2.66-.47,3.84-.79,6-1.19,0-.28.85-.37,1.45-.71,1.6-.19,3.41-.29,5.32-.65,1.32-.38.35-.3.93-.58.14.23,2.05-.13,1.09.23,2.29-.45,2.93-.57,5.8-1.29-.33-.05-.7-.03-.53-.15.52-.13,1.22-.11,1.16.03l-.13.05c3.2-.96,7.66-.6,10.17-1.58l-.14.05,2.65-.75c1.25-.18-.71.32.23.32,2.83-.93,4.61-.76,6.93-1.45.97.23,2.56-.04,4.19-.12,1.62-.11,3.3.11,4.18.75l-.05-.21c.59.04.58.36.9.58.03-.16-.45-.41-.1-.35,1.07.5,1.97,1.33,2.61,2.42.65,1.08,1.08,2.36,1.39,3.7.6,2.72,1.02,5.62,1.44,8.39.3,2.04,1.12,1,1.09,3.64l-.44-.68c.51,2.02.79,4.16.97,6.23.17,2.06.14,4.03-.29,5.78,0-.23-.1-.26,0-.6-.21.34-.42.97-.66,1.51-.22.55-.44,1.02-.36,1.08-.35.44-.21,0-.5.21-.55.49-1.13,1.61-1.62,1.69-.08.02.12-.2.22-.31-.29.45-1.98,1.39-1.42,1.34-1.29.67-2.4,1.49-3.57,1.84-.59.61-2.47.89-2.52,1.4-.04-.23-.69-.05-1.43.26-.75.3-1.6.7-2.01.98.25-.25-.84.17-.55-.14-1.02.42-1.94.84-1.68.99-2.1.18-3.72,1.8-5.04,1.48-3.04,1.28-5.93,2.27-8.76,3.16-.02-.46,3.15-.92,2.89-1.34-2.65.94-4.12,1.74-6.85,2.32-.71.12.35-.29.57-.43-2.68.87-5.29,1.24-7.68,2.01,0-.04.25-.15.49-.23-.48.12-1.13.18-1.04.37l.46-.16c.83.12-1.79,1.03-1.84,1.19.7-.74-2.46.35-1.3-.64-.31.1-.69.28-.59.4-.48.06-.65,0-.2-.24-1.71.46-1.05.55-2.63.85-.01-.1.3-.2.44-.34-.76.34-1.53.69-2.87.86.07-.07-.1-.12.3-.19-2.28.44-3.81,1.22-6.37,1.46.67-.55-.88,0-1.08-.34l-1.34.34.57.09c-1.19.19-2.2.63-3.24.68l.86-.3-2.22.43,1.28-.06c-1.17.38.2.45-1.4.6.32-.09-1.19.18-1.85.07h0c-.57.21-1.16.43-2.05.47-.25-.08.12-.44-.04-.49-.53.39-2.77.53-3.46.95.23-.11.22-.31.13-.34l-.45.32c-.57,0-.65-.03-.59-.2-1.67.19.6.39-1.4.47.15-.04.07-.07.39-.15-2,.18-3.81.7-5.65.84-.59-.29,1.58-.32.91-.54-2.62.44-5.37,1.22-7.93,1.49l.48-.03c-.27.57-1.93.01-3.18.44.31-.08.37-.35.29-.28-1.75.16-3.54.64-6.15,1.18l.31-.18c-1.04.03-2.71.32-3.83.41-.31.18-.95.25-.53.39-3.53-.28-6.46,1.34-9.58,1.13.36-.05.85-.24.56-.2l-2.56.49c.24.2.36.09.93.19-.31.18-1.02.39-1.66.48,1.14-.32-.06-.37-.58-.42.09.06-.07.16-.01.23-1.41-.21-.16.49-2.04.48l.08-.13c-.68.16-1.29.41-2.04.48-.35-.22.72-.23.73-.45-1.04.16-1.99.79-2.97.67.43-.14,1.07-.23,1.5-.37-1.07-.16-1.18-.07-1.95,0h.08s-1.79.11-1.79.11l.46.02c-1.21.88-2.64.5-4.34,1.21,1.65-.67.25-.29.34-.61-.46-.02-1.16-.02-.97-.13-.8.36-1.41,0-2.54.53-.07-.09-.89.12-.74-.15-1.07.23.28.13.2.27-1.62.57-3.97.16-6.31.95-2.04.48-2.38.86-4.28,1.3-.67-.06.48-.43.48-.43-1.06,0-1.85.14-2.82.4.19-.11-.03-.15-.34-.22-.79.14-.48.43-1.54.43.16-.13.37-.34.74-.5-.92.22-1.81.53-2.77.76-.28-.13.55-.34.87-.5-1.07.23-2.79.55-3.09.87h.71c-.39.07-.23-.2.05-.29.9-.34,1.35-.1,1.42,0l-.68.16c.78.47,2.74-.48,4.13-.65l-.52.49,1.37-.54c.32.06.55.27-.12.42,1.02.06.86-.27,1.74-.17.1.02.06.05-.03.08l.95-.26c-.18.11.2.27-.4.29,1.77,0,2.76-.71,3.46-.49l-.14.05c2.39-.48.19-.34,1.95-.95l1.32.57.2-.34c.25-.02.75-.07.67.06.9-.34-.18-.11.33-.38,1.23.11,3.28-.6,3.62-.16.4-.29-1.17-.01.09-.36.44.47,1.46-.3,2.59-.22-.3.32-1.35.32-.23.4.6-.55,2.14-.2,3.05-.42,0-.37,1.98-.44,3.52-.78-.08.14,2.94-.22,4.4-.29l-.03.07c.23-.4,1.72-.55,2.79-.78-.01.22-.19.34-.77.52l1.02-.15c.22-.15.53-.26,1.19-.39l-.22.31c1.35-.21,2.68-.71,4.45-.77.06-.27-1.49-.51.33-.94.09.13.19.35-.28.48.16-.04.55-.19.87-.18l-.7.34c.81-.01.39-.25,1.02-.32.02.2.49.07.42.24-.16.04-.56,0-.8.11.72-.07,1.6-.07,1.91.03-.08-.1-.04-.26.48-.36,1.35-.21.5.17,1.3.16.31-.18,1.19-.16,1.17-.46.4-.05.49.07.65.13.68-.23,3.27-.5,2.43-.7h-.18s.07-.01.11-.02h0s0,0,0,0c2.25-.62,4.79-.51,7.05-.96v.1c1.35-.31,3.03-.5,3.97-.85.4-.06.98.04.82.18,1.03-.22,1.13-.35,2.65-.4-1.02.32.38.1-1.05.28,1.36-.11,1.69,0,3.1-.47-.46.32,1.06.17,1.7,0l-.97-.04c.72-.14,1.35-.21,2-.28l-.3.38c2.82,0,4.88-1.38,7.09-1.03.69-.34-1.52.07-.91-.3,1.28-.15,2.67.12,3.07.06,1.77-.09,1.55-.73,3.39-.9-.25-.08-.52-.36.82-.68,1.28-.16,1.64.24.85.46-.3.06-.46.04-.45,0-.4.11-.93.24-.41.29l.15-.14c.65.02,2.39-.28,2.01-.02.94-.27.38-.26-.34-.2,1.66-.1,2.55-.4,4.24-.58-.28-.02-.55-.11-.28-.16,2.48-.27,1.04-.41,2.7-.74.98.01-.26.49,1.38.04,1.04-.06.27.27-.12.44,1.48-.5,2.88-.36,3.76-.49l-.79.25c.47-.15.86-.22,1.26-.3l-.5-.15c.48-.05.88-.12.89-.03.46-.25-.45-.32.48-.71.65,0,1.89-.49,2.16-.23-1.99.28.28.27-1.38.64.32-.1.71-.17,1.19-.22.08.02-.05.08-.18.12,1.94-.11.8-.53,2.75-.92-.21.22.52.24.83.13-.79.16-.44-.21.26-.49,1.28-.14,1.34-.4,1.99-.53l-.76.1c.22-.23.84-.34,1.7-.59.1.12-.77.27-.45.26.9-.51,2.25-.18,3.55-.7.65-.03.14.31.7.26,1.45-.58,1.69-.17,3.22-.75-.51-.11-.58-.04.47-.55l-2.55.83,1.58-.76c-.78.19-1.61.57-2.09.64.75-.38.68-.31.26-.4,1.16.07,2.07-.74,3.36-.83l.11.58c1.92-.25,3.22-1.17,5.65-1.75l-.8.13c.25-.32,1.46-.48,2.21-.8-.01.21.49.13.86.15-.08-.11,1.74-.56,1.84-1l1.14-.1c1.95-.53,1.99-1.29,3.83-1.87-.48.4.4.23-.77.81.61-.22,1.17-.38,1.13-.51.4,0,1.58-.89,2.2-.93.22-.18.23-.4.91-.65.09,0,.03.09.03.09-.03-.09,1.01-.54.34-.51,2.08-.19,5.1-2.15,6.89-2.52,1.25-.71,2.7-1.71,3.69-2.6-.03.1.06.08-.15.22.77-.53.86-.86.98-1.17.11-.33.26-.64.93-1.43.42-.36.32-.1.14.18-.18.28-.41.59-.16.35.35.08.74-.47,1.06-1.22.34-.75.55-1.66.9-2.33l-.05.35c.52-1.06.24-2.72.21-4.43,0,0,.06.08.1,0-.36-1.18-.72-3.33-1.02-4.93.32.47.23.71.44.38-.13-.72-.38.26-.64-1.17.08-.49.05-1.54.3-1.72l.21,1.36c.26-.75-.27-1.76-.32-2.48l.17.07c-.39-2.07-.78-2.03-1.17-4.26l-.07.25c-.61-1.14.02-1.06-.51-2.21l.31-.45c-.27-.78-.94-2.72-1.43-4.11.51.73,1.04,2.37,1.43,3.37-.16-.79-.63-2.68-.94-3.05.12.31.31.69.33,1.02-.54-.9-.98-2.14-1.59-3.66.4,0,.09-1.05-.61-2.19-.35-.56-.79-1.13-1.21-1.61-.43-.48-.84-.86-1.02-1.18-2.85-1.57-5.99-2.04-9.38-1.62,1.27.45-.99.13-.69.72-.77.14-1.06.19-1.13.16l-2.37.04c-.57-.08.7-.26.6-.38-1.67.25-.74-.13-1.87-.1.26.18-.52.41-1.48.5l1.38.04c-2.26.73-2.09-.15-4.37.58l.71-.32c-1.18.32-4.42.78-5.51,1.47-.22-.03-.53-.15-.01-.28-2.88.43-6.28,1.64-8.56,1.74l.19-.19c-.53.14-.88.44-1.58.41.02-.07.19-.18-.06-.15-.27.1-1.37.51-2.1.55l.58-.27c-2.83.3-4.22,1.16-6.54,1.68-.07-.43-2.29-.19-3.4-.06l.03-.07c-3.26.52-5.46,1.34-8.44,2.04-1.95-.14-6.37.92-9.42,1.19.47,0-.02.35-.54.49-.72.04-1.9.65-1.85.23l.25-.04c-.6-.3-2.03.06-3.17.25l-.09.55c-3.09-.23-7.71,1.65-9.44,1.26-.69.26-1.58.41-2.26.67v-.29c-2,.28-3,.42-5.43.92l.46-.29c-1.38.23-1.6,1.11-2.87,1.35l-.46-.35c-2.41.43-4.91.5-7.22,1.3.03-.07.08-.2.46-.29-1.14.19-4.43.49-3.92.99-.09-.37-2.49.4-3.76.8l.15-.31c-1.04.54-1.05.65-2.57,1.01-.37.03-.36-.16.14-.18-1.24.07-.9.43-2.39.54l.52-.27c-1.25.2-1.13.28-1.78.6-.76.25-2.37.35-2.6.13-.14.18-.79.5-1.53.56-.12-.08.14-.18.27-.23-2.11.18-3.05.86-4.53.89-.05-.08-.15-.11-.28-.11,1.66-.35,3.01-.55,2.89-.52-.04-.26-1.4-.05-.39-.6-1.06.39-2.82,1.16-4.15,1.36-.07,0-.14-.02-.19-.05l.13-.06c-.31.04-.57.14-.82.25-.43.07-.7.11-1.1.21-.21-.16-1.57.33-2.23.55.14.25-.73.5.15.44-.11.02.11-.08.55-.23.1-.04.21-.08.27-.11l-.04.04c.43-.13.99-.33,1.64-.5-.49.27-.99.56-1.77.63-.29.27-.59.59-.77.73-1.01-.09-2.79.41-3.12.32-.95.51-2.07,1.11-3.02,1.81-.96.67-1.73,1.46-2.06,2.1-.4.47-.61.37-.84.47.22-.28.54-.57.63-.76-.2.24-.47.52-.75.81-.28.29-.53.65-.78.96-.51.62-.76,1.28-.71,1.48-.94,1.24.1-.97-.86.96l.03-.31c-1.26,1.78-1.45,3.69-1.31,5.44.15,1.78.54,3.48.73,5.76-.03-.32-.05-.47,0-.55.22,1.27.58,2.53,1,3.76.43,1.23.87,2.45,1.41,3.67.54,1.21,1.19,2.35,1.61,3.5.44,1.15.51,2.32.17,3.42-.17.62-.25.98-.28,1.29-.02.3-.02.61-.07,1.05l-.38.21c-.04.51-.06,1.02-.11,1.5-.21,1.01-.84,1.66-1.61,2.14-.78.5-1.66.94-2.65,1.82h.39c-.81.46-2.56,1.55-2.54,1.26-.07.08-.18.33-.56.41l-.1-.13-1.98,1.27c-1.69.67-.01-.68-2.42.4-.87.46-2.36,1.58-1.98,1.52.36-.16.96-.33,1.06-.2l-.79.45c.04.49-.4,1.22,1.76.59l1.29-.9h.55s-1.18.55-1.18.55c.76-.11,1.11-.49,1.53-.83.16.06.4.04.7-.05l1.18-1.06c.25.08-.46.63.51.26.55-.5-.8-.06.21-.71.76-.14.65.1,1.34-.46.17.05.04.2-.25.41.63-.47,1.81-1.04,2.04-1.46.83-.16,2.24-1.53,2.44-1.17.15-.26.96-1.21,1.4-1.94-.27.76.28.18.73-.67.44-.87.67-1.75.9-1.49-.04-.28-.01-.62.06-1,.08-.4.18-.74.33-1.28.3-1,.51-2.23.31-3.22.04.11.14.33.1.5.03-1.12.06-1.48-.02-2.21-.21-.02-.45-.43-.74-.88-.28-.46-.61-.95-.89-1.27-.16-1.23.72.45.89-.03-.27.16-1.16-1.71-1.23-1.24-.15-.89-.21-.73-.08-1.26-.52.04-.37-.69-.9-1.27-.2-1.3.32-.47-.28-1.75-.07-.68.49.44.49.44ZM43.82,68.01h0c-.28.08-.52.14-.67.18.14-.04.33-.09.67-.18ZM46.57,67.42c-.34.05-.76.14-1.2.23-.12-.07-.03-.19.25-.25-.14.1.52,0,.95.02ZM40.24,66.93c.43-.17.6-.16.67-.13-.21.07-.45.16-.76.26-.01.01-.03.04-.04.05.03-.06.06-.13.13-.19Z"/>
      <path class="cls-4" d="M39.56,67.52c-.06.03-.1.04-.17.08.1,0,.19-.01.28-.02.04-.04.09-.09.13-.13-.08.03-.16.05-.24.08Z"/>
      <path class="cls-4" d="M72.93,106.75h.06c-.05,0-.1-.01-.13-.02.04,0,.04.02.07.02Z"/>
      <polygon class="cls-4" points="85.31 61.11 85.29 61.04 85.06 61.14 85.31 61.11"/>
      <path class="cls-4" d="M57.29,108s-.09-.04-.21-.04c.01.02.1.03.21.04Z"/>
      <path class="cls-4" d="M50.59,108.89l-.96.04c.42,0,.72-.02.96-.04Z"/>
      <path class="cls-4" d="M45.42,109.49c-.06.06-.07.1-.08.13h.01s.07-.13.07-.13Z"/>
      <path class="cls-4" d="M126.98,96.53c.07-.02.13-.03.19-.06.45-.15.14-.06-.19.06Z"/>
      <path class="cls-4" d="M102.94,101.56c.25-.09.5-.18.76-.25-.44.05-.77.1-.76.25Z"/>
      <path class="cls-4" d="M153.04,88.57h0c.05-.02.1-.03.16-.06l-.16.06Z"/>
      <path class="cls-4" d="M104.83,101.13c-.44.01-.8.08-1.13.17.36-.04.78-.08,1.13-.17Z"/>
      <path class="cls-4" d="M23.1,112.54l-.25.02s0,.03-.02.05l.27-.07Z"/>
      <path class="cls-4" d="M22.83,112.61l-.27.07c.13-.02.24-.04.27-.07Z"/>
      <path class="cls-4" d="M21.99,112.84l.57-.15c-.2.03-.45.05-.57.15Z"/>
      <path class="cls-4" d="M29.93,111.7l.06-.11s-.06.06-.06.11Z"/>
      <path class="cls-4" d="M32,111.37c-.5.05-1.27-.04-1.95.12l-.05.09c.3-.2,1.56.03,2-.21Z"/>
      <path class="cls-4" d="M40.81,111.39l-1.75.17c.32.06.74.15-.05.29,2.23,0-.48-.18,1.8-.46Z"/>
      <path class="cls-4" d="M46.21,110.78c-.93.18.03.15,0,.22.58-.18.72-.23,0-.22Z"/>
      <path class="cls-4" d="M85.1,105.24l-.06.27c.71-.14,0-.1.06-.27Z"/>
      <polygon class="cls-4" points="92.34 102.88 91.62 102.82 91.32 103.1 92.34 102.88"/>
      <polygon class="cls-4" points="97.01 104.05 96.7 104.13 97.88 103.87 97.01 104.05"/>
      <path class="cls-4" d="M161.05,87.89l-.34-.19c-.43.26-.38.63.34.19Z"/>
      <path class="cls-4" d="M168.16,62.33c.1-.34.04-1.15-.21-1.6.11.64.11,1.29.21,1.6Z"/>
      <polygon class="cls-4" points="92.3 57.3 92.85 57.1 91.8 57.38 92.3 57.3"/>
    </g>
  </g>
  <g>
    <path class="cls-1" d="M83.76,79.99c-.21-.49-1.05-.27-1.19.24s.19,1.03.58,1.39c.95.88,2.49,1.23,3.56.49.25-.17.48-.41.58-.7.25-.69-.28-1.46-.96-1.75s-1.44-.22-2.17-.15"/>
    <g>
      <path class="cls-3" d="M84.1,78.86c0,.09.02.28.04.24l-.02-.33-.02.09Z"/>
      <path class="cls-3" d="M84.28,79.46c0-.16,0-.44-.04-.75,0,.32,0,.19,0,.57-.01.04-.04-.1-.05-.22,0,.09-.03-.07-.02.14.05.25.08.26.09.05.01.07.02.16.02.22Z"/>
      <path class="cls-3" d="M85.89,80.01v-.04s0,.03,0,.04Z"/>
      <path class="cls-3" d="M86.46,80.53s-.03.02-.06.04c.02-.01.04-.02.06-.04Z"/>
      <path class="cls-3" d="M86.24,80.84s.01-.01.02-.02c-.02.02-.04.03-.02.02Z"/>
      <path class="cls-3" d="M85.89,80.01v.11c.03-.1,0-.08,0-.11Z"/>
      <path class="cls-3" d="M84.45,78.64s0,.05,0,.09c0-.01,0-.03.01-.04v-.05Z"/>
      <path class="cls-3" d="M85.47,80.2h0s-.01.08-.02.13l.03-.13Z"/>
      <path class="cls-3" d="M85.18,80.24s.01-.27.02-.39c0,.12-.01.17-.02.19,0,.05,0,.12,0,.2Z"/>
      <path class="cls-3" d="M84.63,79.77v.04s0-.02,0-.04Z"/>
      <path class="cls-3" d="M85.66,80.29s-.01.08-.02.1l.02-.1Z"/>
      <path class="cls-3" d="M82.23,78.74s.03.02.05.04c-.02-.02-.05-.04-.05-.04Z"/>
      <polygon class="cls-3" points="83.78 80.01 83.78 80 83.81 80.03 83.78 80.01"/>
      <path class="cls-3" d="M85.98,81.1h0s-.02,0,0,0Z"/>
      <path class="cls-3" d="M85.47,81.35c.04.25-.02.32.04.6,0-.11,0-.44-.04-.6Z"/>
      <path class="cls-3" d="M84.47,78.67s.01,0,.02,0c0,0-.01,0-.02,0Z"/>
      <path class="cls-3" d="M85.5,81.95h0s0,.03,0,.03c0-.01,0-.02,0-.03Z"/>
      <path class="cls-3" d="M86.29,81.07h0s0,0,0,0Z"/>
      <path class="cls-3" d="M86.53,80.94l-.03.02s.03-.02.03-.02Z"/>
      <path class="cls-3" d="M86.51,81.19s-.05-.03-.02,0c.01,0,.02.01.03.02-.03-.02-.05-.03,0-.01Z"/>
      <path class="cls-3" d="M86.44,81.29s.03.02.04.03h0s-.04-.03-.04-.03Z"/>
      <path class="cls-3" d="M81.43,79.94c.08,0,.17,0,.26.01-.2-.02-.26-.11-.26-.01Z"/>
      <path class="cls-3" d="M84.47,78.8c0-.07,0-.11,0-.12,0,0,0,0,0,.02,0,.04,0,.08,0,.11Z"/>
      <path class="cls-3" d="M88.47,82.24l-.09.07s.07-.04.09-.07Z"/>
      <path class="cls-3" d="M82.91,82.89l-.03.02s.01,0,.03-.02Z"/>
      <path class="cls-3" d="M88.25,82.59c-.09-.05-.15-.07-.19-.07.02.02.03.03.05.05l.14.02Z"/>
      <path class="cls-3" d="M81.7,79.95h0s0,0,0,0Z"/>
      <path class="cls-3" d="M81.25,79.29c-.05.07.35.16.55.24.06.1-.3-.05-.51-.08.07.09.4.22.36.25-.06-.01-.09-.01-.16-.04.27.12-.06.17.29.3-.03,0-.07,0-.1,0,.19.02.38.04.52.07,0,.03.22.07-.03.05.01-.01-.08-.03-.16-.04l.1.04c-.36-.01-.11-.05-.37-.09.09.08.37.17.26.2-.34,0-.09-.12-.41-.07l.15-.07c-.56,0,.05-.05-.54-.05-.12.12.14.15.03.26.19.03.28,0,.47.02.32.13-.86.15-.42.25.23.02.66-.02.43.08l-.38.02c-.03.12.55-.02.31.13-.15,0-.14-.06-.18-.04-.29.13.22.02.23.07l-.33.08c.08.11.34.17.44.26-.1.03-.21.04-.29.11.21.1.1.34,0,.59l.28-.1s-.1.09-.16.11c-.06.11.16-.1.27-.13.03.01-.12.13-.2.16.27-.04.59-.09.41.18l-.08.04c-.04.14.51-.32.35-.1l-.05.03c.01.21.32.13.11.53.29-.31,0,.24.38-.2-.12.28-.2.35-.22.58.01.04.26-.27.33-.29l-.18.25.23-.23-.19.32.08-.04s.05-.13.1-.2c.12-.08,0,.25-.08.39l.26-.15c-.07.1-.11.13-.17.19.23-.23-.16.29.05.08.03-.07.1-.16.13-.21-.07.18,0,.22.1.18l-.11.18c.07.1.25.02.36.07,0-.11.16-.44.21-.46l-.12.3c.1-.18.02-.13.16-.33.02.05-.12.35-.19.44l.09-.08c-.04.09-.07.13-.12.25.1-.18-.04.34.13.03l-.03.09c.12.05.21-.04.31-.02.09-.27.11-.19.2-.4.04.1.05.34.14.34.09-.12.08-.23.14-.38-.06.25.03.24-.05.41.11-.02.15-.02.31-.2,0-.11,0-.15.02-.24.03-.04.03.12,0,.24v.03c.17-.36.24.79.42.26v.03s.13-.27.13-.27c.05.05-.04.19,0,.35.14-.42.22.06.33-.23.15.75.31-.09.5.37l-.04-.17c0-.18.06.09.09.13-.03-.13-.07-.15-.06-.25.21-.26.61.12.99.12.13,0-.35-.85-.04-.53l.12.31c0-.45.41-.22.39-.63.04.07.1.15.08.16.19.16.15-.11.02-.25.04,0,.12.13.21.19.14.07-.12-.31.07-.16.03.02.04.07.05.09-.06-.1.13-.1-.09-.26.16.02.02-.21.19-.16-.22-.22.22-.05-.13-.31.37.27.4.05.24-.11.11.08.15.02.31.13.03-.07-.01-.18-.23-.26.56.07-.31-.39.37-.26-.17-.3-.32-.51-.42-.67.45,0,.04.2.51.22-.17-.23-.56-.3-.47-.46.06-.05.2,0,.27,0-.2-.15-.02-.36-.3-.42.04-.01.09-.01.13,0-.02-.02.04-.09-.15-.02h.06c-.27.13-.62.12-.77.18.56-.18.09-.16.81-.38-.04,0-.14.01-.27.07.03-.04.1-.08.25-.12-.14-.05-.32.08-.36,0,.09-.05.13-.05.24-.09-.19.05-.38.11-.34,0,.05-.03.12-.07.13-.05-.09-.09-.53.12-.44-.07.37-.23.09-.12.38-.35h-.13s-.12.15-.12.15c-.03-.05-.27.09-.21-.02l.14-.07-.12-.03-.07.14c-.18.09-.34.32-.31.21.04-.02-.03-.03.11-.21h0c-.1.07-.2.15-.16.05.07-.1.28-.3.33-.36-.23.21-.16-.02-.39.22.06-.06.18-.21.2-.24l-.17.19c.03-.08.05-.11.15-.23-.03-.08-.27.39-.21.18.02-.01.04-.05.07-.07-.01-.14-.22.04-.22-.1.17-.34.11-.04.25-.33-.15-.01-.44.27-.49.15v.05c-.21.48.03-.27-.11-.06.03-.03.12-.27.1-.22-.04-.11-.19.07-.33.2l.05-.13c0-.13-.09-.1-.12-.17-.04.13-.06.1-.09.3.01-.79-.31.36-.32-.29.01,0,.05-.11.04-.12l-.12.11c-.01.23,0,.14,0,.32-.03.13-.06.24-.08.24.05-.15.03-.37.03-.5,0,.07-.01.15-.02.22-.02-.41-.04.46-.09.18v-.12c-.02.06-.05.22-.07.18,0-.27.03-.12.05-.34-.04.01-.1.5-.12.24.02-.07.04-.07.06-.15-.02-.32-.03-.24-.06-.29h0s-.06-.14-.06-.14l.02.09c-.06.7-.1.12-.16.58.06-.43,0-.25.01-.55-.02-.08-.04-.18-.04-.26-.03.24-.06-.19-.09.17,0-.1-.03,0-.03-.25-.04.08.01.17.01.29-.05.33-.16-.4-.23.06-.06.19-.05.52-.1.69-.03-.15,0-.36,0-.36-.05-.14-.07-.11-.1,0,0-.09-.01-.16-.03-.27-.03.03.01.36-.04.22,0-.11-.01-.28,0-.39-.02.09-.05.27-.07.37-.02-.17,0-.26,0-.37-.03.08-.08.16-.07.43l.03.09s-.03-.23-.02-.28c.01-.21.05.09.06.19l-.02.06c.07.57.08-.1.13-.07l.02.42.02-.35c.02.11.04.34.03.4.05.2.02-.15.06.08,0,.04,0,.06,0,.07l.02-.13c0,.09.03.29,0,.23.07.24.07-.32.11,0v.03c.06-.14-.02-.31.02-.67l.08.75v-.31s.02.03.02.15c.02-.21-.01-.13,0-.33.05.28.1-.13.13.35,0-.23-.04-.18,0-.34.02.52.05-.09.09.15,0,.27-.04.13,0,.37.02-.46.06.1.09.01,0-.36.06-.15.11-.27,0,.12.08.2.11.34v.06c.03-.37.07-.29.11-.37-.02.22-.04.3-.06.4h.03c.02-.12.03-.18.06-.22l-.04.27s.11-.31.13-.12c.04-.25.06-.71.15-.87-.02.14-.05.37-.08.42,0-.02.04-.11.04-.05l-.06.23c0,.1.04-.19.06-.17-.03.19,0,.14-.04.3,0,.02,0-.08-.02,0,.01.04.02.16,0,.31.02-.11.05-.26.07-.28.04,0-.03.24-.04.34.04-.13.03.01.09-.28.01,0-.02.14-.03.22.05-.12.08-.02.14-.33v-.02s0,0,0-.01h0s0,0,0,0c.15-.27.08.2.17.1l-.03.09c.07-.09.1-.03.2-.22.01,0-.05.18-.1.28.05-.06.11-.15.06,0-.1.14-.06.14-.08.1-.01.09-.09.23.07,0-.13.22-.14.28-.1.22l.08-.16s.03,0,.03.03l-.18.28c-.21.35.48-.51.09.05.16-.17.08-.14.26-.35,0,.06-.3.43-.3.43-.11.15.35-.34.29-.22.08-.08.3-.32.41-.36,0,.06-.34.37-.42.42-.01,0,.01-.03.04-.05-.04.02-.08.05-.17.15l.09-.08c-.08.09-.05.1-.2.23.09-.07.15-.12.19-.17-.11.13.02.04-.05.13.05-.04.16-.13.16-.13-.09.12.19-.12.26-.12-.14.12-.36.24-.22.18-.09.08-.26.17-.35.22.2-.11-.11.1-.15.12l-.08.04s.05-.02.05-.02l.21-.12s-.03.03-.12.07c.14-.07.35-.19.54-.27-.1.06.13-.02-.15.11.09-.07-.29.13-.34.15.03-.02.04-.01,0,0-.03.01-.06.03-.08.03-.26.12.32-.14.33-.12-.17.06-.31.12-.28.11,0,0,.28-.11.41-.15-.13.06.1-.02.09,0l.06-.03c.17-.05.15-.03.21-.03-.13.04-.1.01-.15.03.31-.06-.3.11-.1.07-.12.02-.33.06-.41.08.13-.02.03,0,.02,0,.01,0,0,0,.03,0-.03,0,.08,0,.11,0,.04,0,.09,0,.2-.01-.06,0-.11,0-.17,0,.11-.01.23-.02.34-.03,0-.01-.15,0-.11-.01.19-.02.14,0,.33-.04-.35.06.21.02-.03.07l-.59.03c-.08,0-.05,0-.05,0,.01,0,.04,0,.08,0,.09,0,.2.02.12.02h.1c.23.04.03.02.12.05-.18-.03-.25-.04-.36-.06.1.02-.02,0,.35.09l-.25-.06c-.1-.04.53.2.45.22-.2-.09-.32-.15-.46-.21,0,0-.04-.01.09.05-.11-.05.23.13.06.05.07.04.26.14.23.15-.03-.02-.08-.05-.08-.05.09.05.1.09.3.19-.54-.3-.04.14-.48-.16.03.06.06.13.05.16-.04-.04-.07-.07-.05-.06-.15-.11.37.43.19.31-.23-.22-.09-.15-.19-.23-.43-.49.02.1-.24-.18l-.02-.03c-.15-.17.11.22.05.21,0,0-.03-.05-.06-.08.17.28.17.41.18.51-.12-.23-.05-.13-.19-.35,0,.04.22.35.22.44-.08-.11-.16-.21-.29-.45l.02-.03c-.18-.3-.02.03-.07-.02l-.07-.14c-.01.06.15.42.09.42l.05.11c.12.37-.11-.19-.03.09l-.15-.36c.02.09.07.38.05.46-.06-.29-.09-.44-.12-.61-.02,0-.04.04.01.23,0-.04-.03-.13,0-.08.08.3.09.46.04.47-.2-.74-.16-.16-.31-.74,0,.29-.13-.11-.17-.05.08.59-.02.02.03.63-.02.04-.03.03-.03,0l-.07-.36c-.02-.18.01-.14,0-.27-.03-.05-.02-.26-.04-.42,0,.22,0,.31-.02.23l.03.28c-.05.33-.04-.51-.08-.19l.02-.19c-.02.11-.06,0-.13.48,0-.07.01-.24.03-.28-.04-.08-.2.51-.2.19l.03-.15s-.07.27-.06.12c.01-.06.03-.15.03-.16-.01.05-.08.25-.08.16l.05-.16c0-.2-.18.38-.27.46.12-.42.12-.57.12-.65l.02-.06c-.04-.07-.22.31-.36.44.15-.46-.06-.24.01-.51-.03.08-.16.3-.19.34.03-.09-.19.25,0-.11h0c.18-.34.11-.26.09-.28l-.27.45c.35-.69-.32.13.04-.46-.09.1-.1.08-.2.18l.17-.22c0-.08.02-.12-.06-.1l.14-.15s-.56.6-.6.59l.28-.32c-.05-.03.19-.32-.12-.09.05-.04.14-.12.15-.13,0-.02.17-.24-.27.14.29-.24,0-.05-.15.02l.22-.16c-.3.2-.38.25-.48.28.03-.03.18-.13.13-.08.11-.1-.23.13-.13.02l.16-.09s-.07.02-.26.12c-.11.04.03-.09.25-.21-.14.07-.32.15-.27.11.08-.04.14-.07.17-.08.16-.11-.32.08-.08-.05.09-.04.13-.05.15-.06,0,.03,0,.05-.02.06.23-.11.27-.13.6-.27-.17.09-.58.22-.47.16.02,0,.05-.02.08-.03h.03s0-.01-.04,0c.04-.02.07-.03.07-.03.2-.06.11-.04.11-.05-.27.07-.23.05-.45.12.02,0,.03,0,.05,0,0,0,.01,0,.03,0h-.02s.02.02.03.03c-.14.04-.26.05-.11,0-.18.04-.36.08-.44.09.37-.12.58-.19.81-.23-.16,0-.11-.03-.62-.02-.07,0,.15-.02.23-.03.05,0,.04.01.12,0-.13-.01-.04-.05-.4-.06.17-.03.32.02.27-.02h.11c.29,0,.07-.03-.11-.09-.18-.05-.32-.14.04-.09-.04,0-.06-.01-.12-.02.18,0,.15-.04.16-.09,0-.04.06-.07.26.01.09.03-.05-.05-.12-.11l.17.11-.15-.12c-.05-.08.41.26.25.12l-.08-.07s.03,0,.1.07c-.01-.01-.06-.06-.02-.02l.05.05s-.03-.03-.04-.04c.04.04.18.17.2.2-.01,0-.09-.06-.11-.08,0,0-.03-.04-.07-.08h0c-.23-.18-.46-.38-.68-.55-.24-.2-.46-.4-.59-.58.11.07.23.14.33.22l-.22-.21s-.01,0-.04.01c-.18-.22,0-.05.12.06-.11-.11-.19-.19-.24-.23.14.13.28.25.41.38-.17-.16-.32-.32-.43-.41.18.18.39.36.49.47-.21-.19-.36-.33-.21-.18-.11-.1-.18-.17-.22-.21.12.12,0,.07.21.27-.26-.21-.03.08-.43-.26.09.08.27.28.26.3-.44-.4-.13.03-.65-.35.41.34.06.24.25.45-.03-.02-.1-.07-.07-.06-.07,0-.22-.06-.34-.08.38.21.41.3.63.43-.42-.14-.43-.24-.81-.4.32.15.24.23.52.33-.26-.07-.14-.02-.48-.14.49.21.06.07.34.22-.28-.04-.47-.16-.36-.04-.17-.02-.31-.14-.31-.14ZM81.9,81.09h0s-.02-.02-.03-.02c0,0,.01.01.03.02ZM81.95,81.22s0-.04-.01-.06c.09-.04.18-.07.18-.06-.06.02-.1.07-.17.12ZM83.73,80.41s-.01,0-.07.03c0,0-.02,0-.03,0h-.03c.05,0,.1-.02.14-.03Z"/>
      <path class="cls-3" d="M83.37,80.5s-.02,0-.02,0c-.02,0-.04.01-.06.02l.09-.02h0Z"/>
      <path class="cls-3" d="M85.9,79.96h0s0-.02,0-.03c0,.01,0,.02,0,.03Z"/>
      <polygon class="cls-3" points="82.72 82.92 82.76 82.87 82.72 82.91 82.72 82.92"/>
      <path class="cls-3" d="M85.54,78.93s0-.05,0-.07c0,.02,0,.04,0,.07Z"/>
      <path class="cls-3" d="M85.3,78.85l-.03-.1c.01.06.02.08.03.1Z"/>
      <path class="cls-3" d="M85.1,78.71s0,.09,0,.12h0s0-.12,0-.12Z"/>
      <path class="cls-3" d="M88.32,80.37s0,0,.02,0c.06.01.03,0-.02,0Z"/>
      <path class="cls-3" d="M87.16,79.72s.09-.06.12-.07c0-.03,0-.04-.12.07Z"/>
      <polygon class="cls-3" points="88.48 82.23 88.47 82.23 88.47 82.24 88.48 82.23"/>
      <path class="cls-3" d="M87.31,79.69c.03-.05,0-.06-.03-.04,0,.02,0,.06.03.04Z"/>
      <path class="cls-3" d="M84.29,78.63h0s0,.02,0,.03v-.03Z"/>
      <path class="cls-3" d="M84.29,78.66v.03s0,0,0-.03Z"/>
      <path class="cls-3" d="M84.27,78.77v-.07s0,0,0,.07Z"/>
      <path class="cls-3" d="M84.54,78.74v-.1s0,.05,0,.1Z"/>
      <path class="cls-3" d="M84.61,78.7s-.06-.21-.08-.15v.08c0-.15.08.24.08.07Z"/>
      <path class="cls-3" d="M84.97,79.94l-.06-.08c.01.11.03.25,0,.28.08.32-.02-.24.05-.2Z"/>
      <path class="cls-3" d="M85.13,80.1c-.03.05,0,.16,0,.22.02-.1.02-.12,0-.22Z"/>
      <path class="cls-3" d="M86.11,80.27l-.11.23s.04-.09.11-.23Z"/>
      <polygon class="cls-3" points="86.96 79.24 87.02 79.09 86.88 79.28 86.96 79.24"/>
      <polygon class="cls-3" points="86.01 80.8 85.99 80.82 86.06 80.76 86.01 80.8"/>
      <path class="cls-3" d="M86.27,81.12l.25.19s-.32-.26-.25-.19Z"/>
      <path class="cls-3" d="M86.05,81.65c-.07-.14-.12-.23-.07-.08.02.01.08.12.07.08Z"/>
      <polygon class="cls-3" points="84.32 80.96 84.39 80.87 84.33 80.94 84.32 80.96"/>
    </g>
  </g>
  <g>
    <path class="cls-1" d="M102.12,77.74c-.74-.15-1.58.05-2.07.62s-.54,1.52,0,2.06c.66.67,1.81.45,2.63-.01.39-.22.78-.51.95-.93s.03-.98-.38-1.16"/>
    <g>
      <path class="cls-3" d="M103.5,77.7c-.04.08-.11.26-.07.23l.15-.29-.08.06Z"/>
      <path class="cls-3" d="M103.36,78.32c.09-.13.28-.34.43-.61-.2.25-.14.13-.36.44-.04.03.02-.11.08-.22-.05.07,0-.08-.1.1-.08.25-.08.26.06.09-.03.07-.08.14-.12.19Z"/>
      <path class="cls-3" d="M103.15,79.4h.04s-.03,0-.04,0Z"/>
      <path class="cls-3" d="M102.57,79.71s-.02-.04-.03-.06c0,.02.02.04.03.06Z"/>
      <path class="cls-3" d="M102.28,79.47s.01.01.02.02c-.02-.02-.03-.04-.02-.02Z"/>
      <path class="cls-3" d="M103.15,79.4l-.1-.04c.09.06.07.03.1.04Z"/>
      <path class="cls-3" d="M104.11,77.92s-.05.02-.08.04c.02,0,.03,0,.04,0l.04-.03Z"/>
      <path class="cls-3" d="M102.96,79.15h0s-.08-.02-.13-.02l.13.02Z"/>
      <path class="cls-3" d="M102.91,79.07s.27-.03.39-.04c-.11,0-.17.01-.19.01-.05,0-.12.01-.2.02Z"/>
      <path class="cls-3" d="M103.29,78.71l-.03.02s.02-.01.03-.02Z"/>
      <path class="cls-3" d="M102.89,79.18s-.07-.03-.09-.04l.09.04Z"/>
      <path class="cls-3" d="M101.86,76.37s0,.03,0,.05c0-.03,0-.05,0-.05Z"/>
      <polygon class="cls-3" points="102.11 77.81 102.1 77.82 102.07 77.97 102.11 77.81"/>
      <path class="cls-3" d="M101.93,79.25h0s-.01-.02,0,0Z"/>
      <path class="cls-3" d="M100.89,79.61c-.15.2-.21.24-.38.47.07-.08.28-.33.38-.47Z"/>
      <path class="cls-3" d="M104.1,77.95s.02,0,.02.02c0-.02,0-.02-.02-.02Z"/>
      <path class="cls-3" d="M100.52,80.08h0s-.01.02-.01.02c0,0,.01-.02.02-.02Z"/>
      <path class="cls-3" d="M101.62,79.56s.03.08.04.12c0-.03-.02-.06-.04-.12Z"/>
      <path class="cls-3" d="M102.08,79.81l-.02-.03s.02.03.02.03Z"/>
      <path class="cls-3" d="M101.56,79.98s-.02-.06-.02-.02c0,.01,0,.02,0,.03,0-.04,0-.06,0-.01Z"/>
      <path class="cls-3" d="M101.38,80.02s0,.04.01.06v-.02s-.01-.04-.01-.04Z"/>
      <path class="cls-3" d="M100.7,76.63c.03.08.05.16.08.24-.06-.19-.02-.27-.08-.24Z"/>
      <path class="cls-3" d="M104,78.02c.05-.05.08-.07.1-.07h-.02s-.06.05-.08.07Z"/>
      <path class="cls-3" d="M102.04,82.15l-.07-.03s.05.03.07.03Z"/>
      <path class="cls-3" d="M98.63,78.65l-.03-.02s0,.01.03.02Z"/>
      <path class="cls-3" d="M101.81,82.19c-.03-.1-.05-.15-.06-.19,0,.02,0,.04,0,.07l.06.11Z"/>
      <path class="cls-3" d="M100.78,76.87h0s0,0,0,0Z"/>
      <path class="cls-3" d="M101.05,76.13c-.07,0,.03.36.05.57-.05.12-.08-.26-.13-.44-.03.11,0,.44-.03.44-.01-.06-.03-.08-.03-.16.02.29-.13.05-.09.42-.01-.03-.02-.06-.03-.09.05.18.1.36.14.49-.02.01.03.23-.05,0,.01,0-.01-.09-.03-.16v.11c-.11-.33,0-.12-.06-.37-.02.12.02.41-.04.33-.11-.32.05-.13-.09-.41l.09.11c-.2-.5.05.02-.16-.51-.12-.07-.04.19-.16.13.04.18.1.26.14.45.02.35-.39-.76-.31-.31.06.22.23.61.09.43l-.14-.36c-.09,0,.19.52,0,.32-.05-.14,0-.14-.03-.18-.18-.25.06.21.03.23l-.16-.3c-.06.09-.02.35-.06.45-.05-.09-.09-.19-.17-.26-.01.21-.24.12-.48.05l.15.26s-.1-.09-.13-.14c-.11-.05.12.14.18.24,0,.03-.14-.1-.19-.18.09.25.21.54-.09.4l-.05-.07c-.14-.02.42.44.17.32l-.03-.04c-.2.04-.05.31-.49.2.36.21-.24.06.29.32-.3-.05-.39-.11-.62-.06-.04.03.33.18.37.23l-.29-.1.29.15-.36-.08.06.06s.14,0,.23.04c.12.09-.24.08-.4.05.07.07.15.14.22.2-.12-.03-.16-.06-.23-.09.29.14-.32-.05-.05.08.07,0,.18.04.24.05-.19,0-.2.09-.13.16l-.21-.04c-.07.11.08.25.08.38.1-.05.47-.03.5,0l-.33.02c.2.02.12-.04.37,0-.04.04-.37.04-.48.01l.11.05c-.1,0-.15,0-.27,0,.2.01-.32.13.03.14h-.1c.01.15.13.2.17.3.28-.05.22,0,.45-.02-.08.08-.27.22-.21.31.15.02.23-.06.4-.08-.24.09-.19.17-.38.18.08.09.1.13.35.16.09-.06.12-.09.2-.12.05,0-.07.09-.18.15h-.03c.21-.02.08.14,0,.31-.09.17-.14.35.11.23h-.03c.1-.01.2-.04.3-.07,0,.08-.17.1-.25.25.41-.19.13.21.41.08-.38.66.3.15.16.62l.08-.16c.11-.14-.01.11,0,.16.06-.12.04-.16.1-.24.32-.07.41.46.7.67.1.06.2-.9.25-.46l-.08.32c.23-.37.4.05.57-.29,0,.08,0,.18-.02.17.04.24.14,0,.12-.19.03.02.02.18.04.27.05.14.06-.31.1-.08,0,.04,0,.08,0,.1.01-.12.11.02.06-.25.08.13.1-.14.17.02-.02-.31.13.13.06-.3.08.45.17.34.16.12.02.14.06.13.09.32.04-.02.06-.11,0-.33.21.51.03-.46.25.2.05-.27.1-.46.15-.59.15.42-.09.08.07.52.04-.21-.05-.59.08-.52.05.05.06.19.08.26.02-.21.2-.04.17-.3.02.04.03.08.04.12,0-.02.06.04-.03-.14v.06c-.14-.26-.2-.59-.27-.73.24.54.13.1.43.78,0-.04-.04-.13-.1-.25.03.03.07.1.13.24,0-.13-.12-.31-.07-.33.05.09.06.13.1.23-.07-.18-.14-.37-.06-.31.03.05.07.12.06.12.06-.06-.15-.51.01-.39.2.38.1.11.3.42l-.02-.12-.11-.14s-.08-.26.01-.18l.06.14.02-.1-.11-.09c-.08-.18-.26-.39-.17-.33.01.04.03-.01.17.15h0c-.05-.11-.11-.22-.04-.16.07.1.24.33.29.4-.17-.26.03-.13-.16-.4.04.07.16.22.19.25l-.14-.21c.06.05.09.08.19.2.07,0-.31-.36-.13-.24,0,.02.04.05.05.08.12.04-.01-.2.12-.15.27.26.02.11.25.32.03-.12-.18-.46-.05-.46h-.04c-.4-.36.24.1.08-.09.02.03.22.19.18.15.11,0-.02-.2-.11-.36l.11.08c.13.03.11-.06.19-.07-.11-.07-.08-.08-.27-.16.38.11.32,0,.22-.11-.09-.11-.21-.18.12-.17,0,.02.11.06.11.05-.03-.05-.07-.1-.1-.14-.23-.03-.14,0-.32-.02-.13-.04-.23-.07-.23-.09.15.06.37.06.5.05-.07,0-.15-.02-.22-.03.41,0-.46-.06-.18-.09h.12c-.06-.02-.22-.04-.18-.06.27,0,.12.03.34.04-.01-.05-.51-.07-.24-.1.07.01.08.03.15.05.31-.04.23-.05.28-.08h0s.14-.08.14-.08l-.08.03c-.7.01-.14-.1-.6-.08.43-.02.25-.03.55-.09.08-.03.17-.09.25-.09-.25.02.17-.12-.19-.08.09-.03,0-.04.23-.11-.09-.03-.16.06-.28.09-.33.05.31-.33-.16-.25-.22,0-.5.16-.66.22.11-.11.3-.19.3-.19.09-.11.05-.13-.06-.09.07-.05.12-.1.19-.19-.05-.01-.28.22-.2.09.08-.07.21-.19.31-.24-.1.02-.26.12-.35.16.1-.14.19-.18.28-.25-.1.01-.22.02-.39.23l-.03.09s.13-.19.17-.22c.17-.14,0,.12-.07.19l-.06.03c-.35.45.13-.01.16.07l-.32.27c.09-.07.19-.14.29-.2-.07.08-.25.23-.31.26-.15.14.13-.08-.04.08-.03.02-.04.03-.06.04l.11-.06c-.07.05-.24.17-.2.13-.19.14.29-.13.02.04h-.02c.14-.02.27-.14.61-.25-.22.12-.45.23-.67.34l.28-.12s-.02.03-.14.07c.2-.06.12-.05.31-.11-.25.12.15.04-.31.18.23-.05.17-.07.33-.09-.5.14.1.01-.13.09-.27.04-.13,0-.36.07.45-.08-.09.05,0,.04.36-.04.15.01.28.03-.12,0-.2.05-.33.06h-.06c.37.03.3.05.37.08-.22-.04-.3-.05-.4-.07h0c.12.03.18.04.22.06l-.27-.05s.31.1.13.07c.24.09.69.18.84.28-.13-.04-.36-.12-.41-.14.02,0,.1.05.05.04l-.22-.09c-.1-.02.18.07.16.07-.19-.06-.13-.05-.28-.1-.02,0,.08.02,0,0-.04,0-.15-.04-.29-.09.1.04.25.1.27.12,0,.03-.22-.09-.32-.12.12.06,0,0,.26.14,0,0-.13-.06-.2-.09.11.07.01.05.29.2h.02s0,.01.01.02h0s0,0,0,0c.23.19-.19-.01-.11.09l-.08-.06c.07.09.02.08.16.24,0,0-.15-.1-.23-.19.04.06.12.14-.02.05-.11-.13-.11-.1-.08-.1-.08-.04-.19-.15-.02.06-.17-.19-.23-.22-.19-.16l.13.12s0,.03-.03.02l-.22-.25c-.29-.29.38.58-.08.08.13.19.12.11.28.34-.05-.02-.36-.38-.36-.38-.13-.13.26.41.16.33.07.1.26.35.29.46-.05-.02-.31-.39-.34-.48,0-.01.02.02.05.05-.02-.04-.04-.09-.12-.19l.06.1c-.08-.09-.1-.06-.2-.23.05.1.1.17.14.21-.12-.13-.05.02-.14-.06.04.05.12.17.11.17-.12-.1.1.2.09.27-.11-.14-.21-.38-.17-.23-.08-.09-.16-.27-.2-.36.09.21-.12-.1-.15-.13l-.03-.09c.02.05.01.05,0,.06l.12.2s-.03-.03-.08-.12c.07.14.19.34.28.54-.07-.1.02.13-.13-.14.08.08-.15-.28-.15-.34.01.04,0,.04-.02,0-.02-.03-.03-.06-.04-.08-.16-.24.15.33.11.33-.07-.16-.16-.3-.14-.26.01,0,.14.26.18.39-.08-.11.02.1,0,.1l.04.05c.07.16.05.15.05.21-.06-.13-.02-.09-.05-.15.11.29-.17-.27-.12-.07-.06-.11-.13-.31-.17-.38.06.22-.12-.21-.07-.03.09.22.08.16.14.39v-.18s.08.34.08.34c.02,0-.02-.15,0-.12.06.19.04.13.12.31-.16-.32.03.21-.09,0l-.21-.55c-.12-.24.04.31-.05.18l.05.09c.07.22-.02.04,0,.14-.06-.19-.09-.25-.13-.37.04.14-.03,0,.07.38l-.09-.24c-.06-.09.1.56.04.5-.04-.21-.09-.34-.1-.5-.01,0-.03-.03,0,.1-.03-.12.03.27-.03.09.01.09.06.29.04.28,0-.04-.02-.1-.02-.1.02.1,0,.14.06.35-.16-.59-.12.07-.24-.45-.02.07-.04.13-.07.15,0-.06,0-.1,0-.08-.05-.18.02.57-.04.37-.04-.32.01-.17,0-.29-.04-.65-.04.09-.08-.29v-.04c-.01-.22-.03.25-.07.2,0,0,0-.06,0-.1-.03.33-.08.44-.13.53.03-.25.03-.13.04-.39-.02.04-.03.41-.07.48,0-.14,0-.26.03-.54h.02c.03-.37-.03,0-.03-.07l.02-.15s-.1.43-.14.4l-.02.12c-.11.37.03-.22-.06.06l.09-.38c-.03.09-.15.36-.2.42.11-.27.18-.41.23-.57,0,0-.04.02-.1.2.02-.03.05-.12.04-.07-.1.29-.18.43-.21.41.28-.71,0-.21.25-.75-.15.24.03-.12,0-.08-.35.48-.01.01-.38.5-.03.03-.03.01,0-.02.07-.1.14-.2.21-.3.12-.13.09-.1.18-.2.02-.02.07-.08.11-.13.01-.01-.02.02,0,0l-.18.2c-.12.11-.03.02.06-.07,0,0,0,0,.02-.02h0s0,0,0,0h0s-.1.07-.19.13c.05-.04.17-.12.2-.14.13-.06-.44.24-.17.08l.13-.06s-.26.11-.12.05c.06-.03.13-.06.14-.06-.05.02-.24.1-.16.06l.16-.06c.18-.07-.39.12-.5.11.42-.12.56-.16.63-.18h.06c.05-.02-.36.03-.54,0,.48-.04.2-.07.47-.07-.08,0-.34-.03-.38-.05.09,0-.3-.06.1,0h0c.39.05.29.03.3.03l-.52-.1c.75.14-.25-.18.42.01-.12-.05-.12-.05-.24-.11l.26.1c.07.02.1.03.05-.01l.18.09s-.72-.38-.73-.41l.37.2s.32.17.02-.06c.05.04.14.11.16.12.02,0,.23.17-.21-.21.29.24.04.01-.07-.12l.2.19c-.25-.25-.32-.32-.37-.41.03.02.16.16.1.11.11.09-.17-.2-.05-.11l.11.14s-.04-.07-.17-.23c-.06-.1.08.02.24.22-.1-.12-.21-.29-.16-.24.06.08.09.12.11.15.14.13-.15-.3.03-.08.05.08.08.11.1.14-.02,0-.05,0-.06-.01.15.21.19.24.39.53-.11-.16-.33-.52-.24-.43.01.02.03.04.05.07v.03s.02,0,0-.04c.03.03.04.06.05.06.11.18.07.09.08.1-.14-.25-.1-.21-.23-.41.01.02.01.03.01.04,0,0,0,.01.01.03v-.02s-.02.02-.02.03c-.07-.13-.12-.24-.03-.11-.08-.16-.17-.33-.2-.41.21.33.33.51.44.73-.04-.15,0-.12-.17-.62-.01-.07.07.14.1.21.01.05,0,.05.03.12-.03-.13.03-.07-.08-.42.08.15.1.33.11.26l.03.11c.21.55-.13-.94.14-.23-.01-.04-.02-.06-.04-.13.14.31.19-.34.32.18.03.11.03-.13.04-.31v.3s.04-.35.04-.35c.06-.25.04.74.12.26v-.2s.09-.11.06.12c0-.04.03-.21.03-.1l-.02.16.09-.26c.02.12-.1.62-.06.66.02-.06.14-.44.15-.55,0,0,0-.1.03-.26l.04-.08c.09-.46.23-.92.2-1.25l-.11.27.02-.23h.05c0-.22-.04-.04-.08.09.01-.12.02-.2.01-.25l-.12.43c.02-.18.08-.35.05-.46-.05.2-.03.41-.09.54,0-.21.03-.38-.03-.21,0-.12.02-.19.04-.25-.05.14-.09.05-.12.3,0-.26-.1.06-.07-.38-.02.1-.07.34-.1.36.07-.53-.1-.03-.08-.6-.04.47-.14.21-.2.48,0-.04,0-.11.01-.09-.04-.04-.06-.18-.09-.27.02.39-.03.48-.04.73-.08-.37-.01-.46-.06-.82.03.32-.05.32-.01.59-.06-.23-.04-.11-.1-.43.05.49-.02.09-.01.39-.08-.23-.08-.45-.11-.3-.05-.14-.02-.32-.02-.32ZM100.04,77.39h0s.01-.03.01-.03c0,0,0,.02-.01.03ZM99.96,77.45s.03,0,.04-.02c.06.08.11.16.1.16-.03-.06-.08-.09-.14-.15ZM101.12,79.02s-.01-.01-.04-.06c0,0,0-.02,0-.03l-.02-.03s.05.09.07.12Z"/>
      <path class="cls-3" d="M100.95,78.69s0-.02,0-.02c-.01-.02-.03-.04-.03-.05l.04.08h0Z"/>
      <path class="cls-3" d="M103.19,79.42h0s.02,0,.04.02c-.01,0-.02-.01-.03-.02Z"/>
      <polygon class="cls-3" points="98.55 78.47 98.61 78.49 98.56 78.46 98.55 78.47"/>
      <path class="cls-3" d="M104.23,79.3s.05,0,.07,0c-.02,0-.04,0-.07,0Z"/>
      <path class="cls-3" d="M104.31,79.02l.1-.05c-.06.02-.08.04-.1.05Z"/>
      <path class="cls-3" d="M104.42,78.78s-.09.01-.12.02h0s.12-.02.12-.02Z"/>
      <path class="cls-3" d="M102.88,81.51s0,0,0,.01c0,.06,0,.03,0-.01Z"/>
      <path class="cls-3" d="M103.24,80.55s.04.09.06.12c.02,0,.04,0-.06-.12Z"/>
      <polygon class="cls-3" points="102.05 82.15 102.05 82.15 102.04 82.15 102.05 82.15"/>
      <path class="cls-3" d="M103.26,80.69s.05.02.03-.02c-.02,0-.05-.03-.03.02Z"/>
      <path class="cls-3" d="M103.93,77.71v-.02s-.03.03-.03.04l.03-.02Z"/>
      <path class="cls-3" d="M103.89,77.72l-.03.02s.01,0,.03-.02Z"/>
      <path class="cls-3" d="M103.79,77.78l.07-.04s-.02-.02-.07.04Z"/>
      <path class="cls-3" d="M104.11,78.08l.08-.06s-.04.03-.08.06Z"/>
      <path class="cls-3" d="M104.2,78.15s.14-.18.06-.18l-.07.05c.14-.07-.15.21,0,.13Z"/>
      <path class="cls-3" d="M103.19,78.94l.07-.05c-.1.04-.24.09-.26.1-.3.12.23-.09.19-.05Z"/>
      <path class="cls-3" d="M103.05,79.03c-.05,0-.16.03-.22.04.1-.01.12-.01.22-.04Z"/>
      <path class="cls-3" d="M102.89,79.45l-.19-.17s.07.07.19.17Z"/>
      <polygon class="cls-3" points="103.67 80.53 103.8 80.64 103.65 80.45 103.67 80.53"/>
      <polygon class="cls-3" points="102.41 79.21 102.39 79.18 102.44 79.26 102.41 79.21"/>
      <path class="cls-3" d="M101.38,79.77l.05.31c0-.06-.05-.41-.05-.31Z"/>
      <path class="cls-3" d="M100.93,80.08c.03-.16.04-.26,0-.11,0,.02-.01.15,0,.11Z"/>
      <polygon class="cls-3" points="100.92 79.33 101.03 79.36 100.94 79.33 100.92 79.33"/>
    </g>
  </g>
  <g>
    <path class="cls-1" d="M121.26,74.41c-1.01-.18-2.1.09-2.92.72-.14.11-.29.24-.33.42-.09.37.27.67.59.88.66.43,1.35.86,2.13.98s1.68-.19,2.01-.9-.23-1.75-1.02-1.65"/>
    <g>
      <path class="cls-3" d="M121.64,74.2c0,.09.03.28.05.24v-.33s-.05.09-.05.09Z"/>
      <path class="cls-3" d="M121.84,74.8c.02-.16.08-.44.07-.75-.05.32-.06.19-.09.56-.02.04-.04-.1-.04-.23,0,.09-.05-.07-.05.14.05.25.07.26.11.05,0,.07,0,.16,0,.22Z"/>
      <path class="cls-3" d="M122.37,76.02h.04s-.03,0-.04,0Z"/>
      <path class="cls-3" d="M121.99,76.46s-.02-.03-.04-.06c.01.02.02.04.04.06Z"/>
      <path class="cls-3" d="M121.69,76.24s.01.01.02.02c-.02-.02-.03-.04-.02-.02Z"/>
      <path class="cls-3" d="M122.37,76.02l-.1.02c.11,0,.08,0,.1-.02Z"/>
      <path class="cls-3" d="M122.32,74.08s-.03.04-.05.07c.01-.01.02-.02.04-.03l.02-.05Z"/>
      <path class="cls-3" d="M122.06,75.84h0s-.08.03-.13.05l.13-.05Z"/>
      <path class="cls-3" d="M121.95,75.73s.22-.16.32-.23c-.1.06-.14.09-.16.11-.04.03-.09.07-.16.12Z"/>
      <path class="cls-3" d="M122.03,75.18l-.02.03s.01-.02.02-.03Z"/>
      <path class="cls-3" d="M122.04,75.96s-.08.02-.1.02l.1-.02Z"/>
      <path class="cls-3" d="M120.94,73.05s0,.03,0,.05c0-.03,0-.05,0-.05Z"/>
      <polygon class="cls-3" points="121.25 74.48 121.24 74.5 121.21 74.65 121.25 74.48"/>
      <path class="cls-3" d="M121.42,75.99h0s-.01-.02,0,0Z"/>
      <path class="cls-3" d="M119.81,75.81c-.1.23-.21.25-.31.52.05-.1.26-.36.31-.52Z"/>
      <path class="cls-3" d="M122.32,74.12s.02,0,.03,0c0-.01-.02-.01-.03,0Z"/>
      <path class="cls-3" d="M119.5,76.33h0s0,.03,0,.03c0-.01,0-.02.01-.03Z"/>
      <path class="cls-3" d="M121.18,76.22s.01.09.02.12c0-.03,0-.06-.02-.12Z"/>
      <path class="cls-3" d="M121.57,76.54l-.02-.03s.02.03.02.03Z"/>
      <path class="cls-3" d="M121.04,76.63s0-.06-.01-.02c0,.01,0,.02,0,.03,0-.04,0-.06.01-.01Z"/>
      <path class="cls-3" d="M120.85,76.61s0,.04,0,.06h0s0-.06,0-.06Z"/>
      <path class="cls-3" d="M119.73,73.26c.02.08.04.16.06.25-.04-.2,0-.28-.06-.25Z"/>
      <path class="cls-3" d="M122.27,74.23c.02-.07.04-.1.05-.11,0,0-.02,0-.02,0-.01.04-.03.08-.03.1Z"/>
      <path class="cls-3" d="M120.99,78.84l-.08-.04s.05.04.08.04Z"/>
      <path class="cls-3" d="M117.11,74.79v-.04s-.02.02,0,.04Z"/>
      <path class="cls-3" d="M120.69,78.83c0-.1-.01-.16-.02-.2,0,.02,0,.04-.02.07l.04.13Z"/>
      <path class="cls-3" d="M119.8,73.5h0s0,0,0,0Z"/>
      <path class="cls-3" d="M120.12,72.79c-.07,0,0,.36.02.58-.06.11-.06-.27-.11-.45-.04.1-.03.44-.06.43-.01-.06-.02-.08-.02-.16,0,.3-.14.04-.13.41,0-.03-.02-.06-.02-.09.04.18.07.37.1.5-.02.01,0,.24-.05,0,.01,0,0-.09,0-.17v.11c-.09-.34,0-.12-.04-.38-.03.12-.03.41-.08.32-.08-.33.06-.13-.05-.42l.09.11c-.15-.52.05.03-.11-.52-.11-.08-.06.19-.17.11.02.19.07.27.09.46-.02.35-.3-.81-.27-.34.04.22.15.64.03.44l-.09-.37c-.09-.01.12.54-.04.32-.03-.15.02-.14,0-.18-.14-.27.03.22,0,.23l-.11-.32c-.07.08-.07.34-.13.43-.03-.1-.06-.2-.11-.29-.05.2-.25.06-.45-.07l.09.28s-.08-.11-.09-.17c-.09-.08.08.17.11.28-.01.03-.11-.13-.13-.22.03.26.06.58-.17.35l-.03-.08c-.12-.07.25.55.06.35l-.02-.05c-.19-.03-.15.27-.5-.02.25.34-.24-.05.12.41-.26-.16-.31-.27-.58-.27-.06.02.21.31.22.39l-.24-.2c.06.1.13.19.19.28l-.33-.18.02.11s.15.02.22.08c.06.15-.33.13-.48.09.03.14.07.29.13.41-.12-.03-.15-.1-.21-.17.25.27-.33-.04-.09.21.07-.01.18.04.24.06-.2.05-.22.28-.12.42h-.21c-.03.31.23.56.34.75.04-.13.38-.27.44-.25l-.27.18c.19-.07.08-.11.33-.18,0,.07-.29.24-.4.25l.15.02c-.08.06-.13.07-.24.13.19-.08-.16.33.15.17l-.07.06c.13.16.26.13.37.21.19-.21.19-.13.36-.28,0,.12-.07.35.02.38.13-.08.15-.18.27-.3-.15.21-.06.24-.2.37.11.02.15.04.33-.09.05-.09.06-.14.12-.21.04-.03-.03.11-.09.21l-.02.02c.29-.27-.19.76.17.36l-.02.02.23-.19c.01.06-.12.15-.18.3.31-.31.11.14.33-.06-.32.69.23.07.08.54l.08-.16c.1-.14-.02.1-.03.15.06-.12.05-.15.11-.23.28-.09.27.43.44.67.07.08.38-.84.33-.4l-.14.3c.3-.31.35.14.62-.14-.03.07-.05.17-.07.16-.02.24.14.04.18-.15.02.03-.03.17-.04.28.01.15.16-.28.13-.04,0,.04-.03.07-.04.09.05-.11.12.05.14-.23.05.14.15-.1.19.07.07-.3.12.16.16-.27-.04.45.11.37.16.16-.02.14.04.14.02.33.06,0,.11-.09.09-.32.12.54.16-.44.26.25.14-.26.25-.44.35-.57.09.44-.13.07-.05.54.11-.21.09-.6.23-.53.05.05.03.19.04.27.08-.21.27-.04.29-.31.02.04.02.09.02.12.02-.02.08.04,0-.15v.06c-.14-.26-.16-.61-.22-.75.21.55.15.09.41.79,0-.04-.03-.14-.09-.26.04.03.08.1.13.25.03-.14-.1-.32-.03-.35.05.09.05.13.1.24-.05-.19-.12-.38-.03-.33.03.05.07.12.06.12.09-.09-.13-.52.06-.43.23.36.12.09.35.38l-.02-.13-.14-.12c.05-.03-.1-.26.02-.21l.07.14.03-.12-.14-.06c-.1-.17-.33-.34-.22-.3.02.03.03-.02.21.11h0c-.07-.1-.15-.2-.06-.16.1.07.31.27.38.32-.22-.22.02-.16-.23-.38.06.05.22.17.25.19l-.19-.16c.08.03.11.05.24.14.08-.04-.41-.25-.19-.2.01.02.05.03.07.07.14-.02-.06-.22.09-.23.35.14.05.11.35.22,0-.17-.3-.44-.2-.52h-.05c-.51-.12.28-.02.04-.13.04.02.29.07.23.05.09-.08-.1-.21-.28-.31h.14c.12-.04.07-.12.12-.18-.14,0-.12-.03-.31,0,.37-.12.26-.2.12-.24-.14-.04-.27-.05,0-.22,0,.01.13,0,.12-.01l-.16-.07c-.21.1-.12.07-.28.15-.13.04-.24.05-.25.04.16-.02.34-.14.45-.22-.06.03-.14.06-.2.09.35-.22-.43.19-.2.01l.11-.05c-.07,0-.22.06-.2.02.23-.14.12-.04.32-.14-.04-.04-.47.19-.27.02.07-.03.09,0,.16-.03.25-.2.17-.16.2-.22h0s.07-.14.07-.14l-.06.07c-.6.36-.18-.02-.57.22.37-.23.2-.15.43-.35.05-.07.1-.16.17-.21-.21.13.09-.19-.21.02.07-.07-.03-.04.15-.21-.1.01-.1.14-.19.22-.26.2.09-.46-.29-.16-.19.1-.36.39-.48.52.04-.15.16-.32.16-.32.02-.15-.04-.14-.11-.05.04-.08.05-.15.07-.26-.05.01-.13.33-.13.18.03-.1.09-.27.14-.37-.08.07-.17.23-.23.32.02-.17.07-.25.12-.35-.08.06-.19.13-.23.39l.02.1s.01-.23.04-.28c.08-.2.06.1.04.2l-.04.06c-.07.57.12-.08.19-.02l-.14.39c.04-.11.1-.21.15-.31-.02.11-.1.33-.14.38-.05.2.08-.13.01.09-.01.03-.02.05-.03.07l.07-.1c-.04.08-.12.27-.1.21-.08.23.19-.25.05.03l-.02.02c.12-.09.16-.26.4-.53-.13.22-.26.43-.41.64l.18-.24s0,.04-.08.13c.15-.15.08-.11.21-.25-.15.23.16-.03-.17.33.17-.16.1-.15.24-.24-.36.37.09-.03-.06.16-.21.17-.11.06-.28.24.35-.29-.05.1.02.05.29-.22.14-.06.26-.09-.1.06-.14.16-.25.24l-.05.03c.33-.16.29-.1.36-.1-.2.08-.28.11-.38.14h0c.11-.03.17-.05.21-.05l-.26.09s.32-.06.15.02c.25-.06.68-.23.86-.21-.13.04-.36.1-.42.1.02,0,.12-.01.06,0l-.23.04c-.09.04.19-.04.17-.02-.19.05-.14.04-.29.08-.02,0,.08-.03,0-.02-.03.02-.14.06-.29.1.11-.02.26-.05.29-.05.02.02-.23.05-.33.08.14-.02,0,.01.29-.02,0,0-.14.02-.22.04.13,0,.04.04.35.01h.02s0,0,.01,0h0s0,0,0,0c.3.05-.17.1-.05.14h-.1c.11.03.05.05.26.12,0,.01-.18-.03-.29-.06.07.03.17.08,0,.04-.16-.07-.14-.05-.11-.06-.09-.01-.23-.08.01.04-.23-.11-.29-.13-.23-.09l.17.07s0,.03-.02.02l-.29-.16c-.34-.2.55.42-.02.06.18.15.14.08.36.25-.05,0-.44-.29-.44-.29-.15-.11.36.33.24.27.09.08.32.29.37.4-.06,0-.37-.34-.42-.41,0-.01.02.02.05.04-.02-.04-.06-.08-.15-.16l.08.09c-.09-.08-.1-.06-.22-.2.07.09.13.15.17.19-.13-.11-.03.02-.12-.06.04.05.13.16.13.16-.12-.09.12.19.12.25-.12-.14-.24-.36-.18-.22-.08-.09-.17-.26-.23-.34.11.2-.1-.11-.13-.15l-.04-.08c.03.05.02.05.02.05l.12.2s-.03-.03-.08-.12c.07.14.2.34.28.54-.07-.1.03.13-.12-.15.08.08-.14-.28-.15-.34.01.03.01.04-.01,0-.01-.03-.03-.06-.04-.08-.14-.25.15.32.12.33-.07-.16-.14-.31-.13-.27,0,0,.12.27.16.4-.07-.12.02.1,0,.09l.04.06c.06.17.04.15.04.21-.05-.13-.02-.1-.04-.15.08.3-.15-.29-.11-.08-.05-.11-.1-.32-.13-.39.04.23-.09-.23-.06-.04.06.23.06.17.09.4v-.17s.06.34.06.34c.02,0,0-.15.01-.12.04.19.02.13.09.32-.12-.34,0,.22-.09-.01l-.13-.58c-.08-.25,0,.31-.07.17l.03.1c.03.23-.03.04-.03.13-.02-.2-.04-.27-.06-.39.02.15-.03-.01,0,.38l-.04-.26c-.04-.1-.02.56-.07.5,0-.21-.01-.35,0-.51-.01,0-.02-.04-.02.1,0-.12-.04.27-.05.08,0,.09-.01.29-.03.28,0-.04,0-.1,0-.1,0,.1-.03.13-.03.35-.01-.61-.15.03-.13-.5-.04.06-.09.12-.13.12.01-.06.02-.1.02-.08,0-.19-.14.55-.15.34.04-.32.06-.16.07-.28.14-.64-.08.07-.02-.3l.02-.04c.04-.22-.12.22-.15.17,0,0,.02-.05.03-.09-.12.31-.21.39-.29.47.1-.23.06-.12.14-.37-.03.03-.13.39-.19.45.03-.14.05-.26.14-.52h.04c.11-.34-.04,0-.04-.07l.06-.14c-.06.03-.21.39-.26.34l-.04.11c-.18.34.06-.21-.09.04l.15-.37c-.06.08-.23.32-.3.36.15-.25.25-.37.35-.52-.02-.01-.07,0-.17.17.02-.03.07-.11.06-.06-.15.27-.26.39-.3.36.35-.68-.02-.23.23-.77-.2.21-.07-.18-.17-.18-.27.53-.03,0-.33.53-.04.02-.04,0-.02-.03l.13-.35c.08-.16.09-.11.16-.22-.02-.06.12-.23.17-.39-.11.19-.18.26-.15.17l-.11.26c-.23.24.22-.47,0-.23l.12-.15c-.09.08-.11-.07-.4.33.03-.06.11-.21.15-.24-.03-.11-.45.34-.34.04l.09-.12s-.18.22-.11.08c.03-.05.09-.12.08-.13-.03.04-.17.2-.13.12l.1-.13c.07-.19-.3.29-.41.34.27-.35.34-.47.38-.53l.04-.05s-.26.26-.41.35c-.08.07-.33.19-.36.18,0,0,0,0,0,0-.01,0-.01,0-.01,0h0s.02,0,.02,0h0c-.07-.03.2.09.31.21.04.04.06.06.08.08.01.01.03.03.05.05.01.01-.02-.03-.04-.04l.09.09h0c.05.05.09.1.13.14.02.02.02.02.03.03,0,0,0,0,0-.04l.12.16s-.48-.66-.46-.7l.26.33s.29.24.12-.11c.03.05.1.16.1.17.03,0,.22.2-.08-.3.2.32.06,0,.01-.16l.13.25c-.15-.32-.2-.41-.21-.52.03.03.11.19.07.14.09.12-.1-.24,0-.13l.07.16s0-.08-.08-.27c-.03-.11.09.03.2.26-.06-.14-.13-.33-.08-.28.04.09.06.14.07.17.12.15-.05-.33.09-.09.04.08.06.13.07.15-.04,0-.08,0-.08-.01.1.24.15.27.27.6-.06-.19-.18-.59-.1-.49.01.02.02.05.04.08v.03s.02,0,.01-.05c.02.04.04.06.05.06.08.2.07.09.09.1-.09-.26-.06-.23-.15-.44,0,.02,0,.03,0,.05,0,0,0,.01,0,.03v-.02s-.03.02-.04.03c-.04-.14-.06-.26,0-.12-.05-.17-.1-.35-.13-.44.15.36.26.55.34.78,0-.17.07-.13-.03-.65,0-.07.06.14.08.22,0,.05,0,.05,0,.12,0-.14.07-.07,0-.43.08.15.06.34.09.27l.02.11c.2.56,0-.96.24-.23-.01-.05-.02-.07-.03-.13.16.32.27-.34.42.19.04.11.04-.13.07-.31v.3s.05-.35.05-.35c.08-.25.06.74.15.27v-.2s.1-.11.07.12c0-.04.03-.21.03-.1l-.02.16.1-.26c.03.12-.09.62-.03.66.03-.06.14-.44.15-.55,0,0-.01-.1.01-.26l.04-.08c.08-.46.2-.92.16-1.26l-.11.27v-.23s.07,0,.07,0c0-.21-.05-.03-.09.09.01-.12.01-.2,0-.25l-.12.43c.01-.18.07-.36.04-.46-.05.2-.02.41-.08.54,0-.21.02-.38-.03-.21,0-.12.02-.2.04-.25-.05.14-.09.05-.13.3-.01-.26-.11.06-.08-.38-.02.1-.08.34-.1.36.08-.53-.1-.04-.08-.6-.05.47-.15.21-.22.47,0-.04,0-.11.02-.09-.04-.04-.05-.18-.08-.27,0,.39-.05.48-.07.73-.07-.37,0-.46-.03-.82.02.32-.07.32-.04.58-.05-.23-.04-.11-.08-.43.03.49-.03.09-.03.39-.07-.24-.06-.46-.1-.3-.04-.15,0-.32,0-.32ZM118.97,73.93h0s.01-.02.02-.03c0,0,0,.01-.02.03ZM118.87,73.97s.03,0,.05,0c.04.09.07.18.06.18-.02-.06-.06-.11-.11-.17ZM119.75,75.72s-.02,0-.04-.06c0,0,0-.02,0-.04v-.03c0,.05.02.1.03.13Z"/>
      <path class="cls-3" d="M119.64,75.36s0-.02,0-.02c-.01-.02-.02-.04-.03-.06l.03.08h0Z"/>
      <path class="cls-3" d="M122.42,76.01h0s.02,0,.04,0c-.01,0-.02,0-.03,0Z"/>
      <polygon class="cls-3" points="117.16 74.49 117.21 74.54 117.18 74.49 117.16 74.49"/>
      <path class="cls-3" d="M123.22,75.3s.04-.02.06-.04c-.02,0-.04.02-.06.04Z"/>
      <path class="cls-3" d="M123.13,75l.06-.09s-.05.08-.06.09Z"/>
      <path class="cls-3" d="M123.09,74.72s-.07.05-.09.07h0s.1-.07.1-.07Z"/>
      <path class="cls-3" d="M122.26,78.29s0,0,0,.02c0,.06,0,.03,0-.02Z"/>
      <path class="cls-3" d="M122.82,77.15s.06.08.07.11c.03,0,.04,0-.07-.11Z"/>
      <polygon class="cls-3" points="121 78.85 121 78.84 120.99 78.84 121 78.85"/>
      <path class="cls-3" d="M122.85,77.29c.05.03.06,0,.04-.03-.02,0-.06,0-.04.03Z"/>
      <path class="cls-3" d="M122.03,73.99h-.01s0,.02,0,.03l.02-.03Z"/>
      <path class="cls-3" d="M122.01,74.02l-.02.03s.02,0,.02-.03Z"/>
      <path class="cls-3" d="M121.95,74.12l.04-.07s-.03-.01-.04.07Z"/>
      <path class="cls-3" d="M122.41,74.22l.04-.09s-.02.05-.04.09Z"/>
      <path class="cls-3" d="M122.53,74.24s.02-.23-.04-.19l-.03.07c.08-.13-.02.26.08.12Z"/>
      <path class="cls-3" d="M122.09,75.45l.03-.08c-.06.09-.15.2-.18.22-.19.27.15-.19.15-.13Z"/>
      <path class="cls-3" d="M122.04,75.63s-.12.1-.17.14c.08-.06.1-.07.17-.14Z"/>
      <path class="cls-3" d="M122.18,76.19l-.24-.07s.1.03.24.07Z"/>
      <polygon class="cls-3" points="123.29 76.92 123.45 76.96 123.25 76.84 123.29 76.92"/>
      <polygon class="cls-3" points="121.69 76.06 121.66 76.03 121.73 76.09 121.69 76.06"/>
      <path class="cls-3" d="M120.91,76.37l-.03.31c.02-.05.06-.41.03-.31Z"/>
      <path class="cls-3" d="M120.21,76.5c.05-.15.08-.25,0-.11,0,.03-.03.15,0,.11Z"/>
      <polygon class="cls-3" points="118.47 75.67 118.47 75.66 118.48 75.67 118.47 75.67"/>
    </g>
  </g>
</svg>