<?xml version="1.0" encoding="utf-8"?>
<!-- Generator: Adobe Illustrator 26.1.0, SVG Export Plug-In . SVG Version: 6.00 Build 0)  -->
<svg version="1.1" id="Capa_1" xmlns="http://www.w3.org/2000/svg" xmlns:xlink="http://www.w3.org/1999/xlink" x="0px" y="0px"
	 viewBox="0 0 1417.6 698" style="enable-background:new 0 0 1417.6 698;" xml:space="preserve">
<style type="text/css">
	.st0{fill:#76BDCF;}
	.st1{fill:#ED6C6F;}
	.st2{fill:#C1D261;}
</style>
<polyline class="st0" points="53.2,196.7 53.2,196.8 53.2,196.8 53.2,196.7 "/>
<path class="st0" d="M20,197c-0.1,0-0.2,0-0.4,0H20"/>
<path class="st0" d="M74.7,195.5l-1.4,0.1l0,0L74.7,195.5"/>
<path class="st0" d="M83.6,196.4c0.1,0.1,0.3,0.1,0.4,0.1h0.1L83.6,196.4"/>
<polyline class="st0" points="104.5,194.5 104.6,194.5 104.5,194.5 "/>
<path class="st0" d="M96.6,194.5l-0.6,0.1C96.2,194.6,96.4,194.6,96.6,194.5"/>
<path class="st0" d="M114,191.8c-0.5,0-1.1,0.1-1.6,0.3L114,191.8L114,191.8"/>
<polyline class="st0" points="46.2,113.4 46.2,113.6 46.2,113.4 "/>
<path class="st0" d="M73.3,197.8c-0.6,0.2-1.8,0.1-1.8,0.2l0,0C72.2,198,72.8,197.9,73.3,197.8"/>
<path class="st0" d="M55,101.7l-0.4,0.1L55,101.7"/>
<polyline class="st0" points="95.5,130.8 95.6,130.9 95.5,130.9 95.5,130.8 "/>
<path class="st0" d="M96.5,133.5c0.1,0.2,0.2,0.5,0.3,0.7L96.5,133.5"/>
<path class="st0" d="M112.4,192l-0.9,0.1C111.8,192.1,112.1,192.1,112.4,192"/>
<path class="st0" d="M129,137.4l0.3,0.1L129,137.4"/>
<path class="st0" d="M64.9,198.4L64.9,198.4 M72.5,197.6L72.5,197.6 M37.2,197.5L37.2,197.5 M80.1,195.1L80.1,195.1 M109.3,194.9
	L109.3,194.9 M109.3,194.9L109.3,194.9 M98.3,194.7L98.3,194.7 M112,193L112,193 M-3.3,178.5L-3.3,178.5 M-8.4,166.1L-8.4,166.1
	 M-7.7,162.7L-7.7,162.7 M-7.7,158.3L-7.7,158.3 M-3.1,155.7L-3.1,155.7 M132.8,140.2L132.8,140.2 M38,120.1L38,120.1 M43.9,117.7
	L43.9,117.7 M64.2,100.6h-1.4c-0.4,0-0.8,0-1.2,0.1c-0.4,0.1-0.9,0-1.3,0.1l-1.4,0.2h-0.1c-0.4,0-0.7,0.1-1.1,0.2
	c-0.3,0.1-0.6,0.1-0.9,0.2c-0.1,0-0.2,0,0-0.2c-1.1,0.3-1.1,0.4-0.8,0.4l0,0c0.3,0,0.7,0,0.2,0.2c-0.5,0.2-0.9,0.3-1.4,0.4h-0.1
	c0.3-0.2-0.6,0,0-0.2l-0.8,0.3l-0.8,0.3l0,0c0,0,0.2-0.2,0.3-0.2l-1.1,0.5c-0.3,0.1-0.7,0.3-1,0.5c-0.7,0.4-1.3,0.7-1.9,1
	c-0.6,0.4-1.2,0.7-1.8,1.2c-0.5,0.4-1.1,0.9-1.6,1.4l0,0c0.1-0.1,0.3-0.2,0.4-0.3c0.1-0.1,0.3-0.2,0.4-0.3l0,0L46,107l-0.5,0.5
	c-0.3,0.3-0.6,0.5-0.8,0.7c-0.7,0.6-1.3,1.3-1.8,2l0.2-0.5c-0.4,0.8-1,1.6-1.5,2.3l0,0c-0.2,0,0.6-1.1,1-1.8
	c-0.3,0.4-0.8,1.2-1.2,1.7s-0.4,0.8-0.3,0.8s0.1,0,0.1-0.1c-0.6,1.1-0.9,1.4-1.3,2l0,0c0.1-0.1,0.1-0.2,0.2-0.3
	c0.1-0.1,0.2-0.3,0.2-0.3s0,0.1,0,0.2c-1,1.8-1.8,3.8-2.2,5.9h-0.1c0,0.5-0.1,1.1-0.2,1.6c0,0.3-0.1,0.5-0.2,0.8c0,0.5,0,0.9,0,1.4
	v1.2c0,0.4,0.1,0.8,0.2,1.3c0.1,0.4,0.1,0.8,0.2,1.2c0.1,0.4,0.2,0.8,0.3,1.3c0.1,0.4,0.2,0.8,0.4,1.2l0.2,0.4L39,131v0.2h-0.4
	l-2.1,0.4l-2.1,0.3l-1.9,0.1c-1.5,0.3-2.9,0.4-4.4,0.4l-0.2-0.3l-1.4,0.1c-0.6-0.1,1.1,0,0.1-0.2l-0.5,0.2c-0.1-0.1-3.7-0.1-1.3-0.3
	h-0.6c-1.7,0-3.4,0-5,0.1c-1.2,0-0.7,0.3-2.1,0.3c-0.3-0.1,0.5-0.1,0.4-0.2c-1.6,0-3.1,0.3-4.6,0.8l-0.9,0.3c-0.3,0.1-0.6,0.2-1,0.4
	l-1.1,0.4l-1.3,0.5l0.3-0.2c-0.3,0.2-0.8,0.4-1.2,0.5c-0.2,0.1-0.5,0.2-0.7,0.4H7c0.2,0,0.4-0.1,0.6-0.3c0.4-0.2,0.8-0.4,1.2-0.5
	c0,0.3-1.4,0.7-1.2,0.9c-0.7,0.3-1.4,0.7-2.1,1.1c-0.7,0.4-1.4,0.8-2.1,1.2c-0.6,0.5-1.2,0.9-1.8,1.3c-0.5,0.6-0.8,1.2-1.8,2.4
	c-0.2,0.2-0.4,0.3-0.4,0.3l0,0c-0.2,0.1-0.3,0.3-0.4,0.5v0.3c-0.5,0.6-0.6,0.8-0.6,0.8s0,0,0-0.1l0,0c-0.7,1-0.4,1-1.3,2.3l0.3-0.8
	c-0.5,1-0.8,1.4-1.5,2.9c-0.1-0.1,0.2-0.7,0.5-1.1c-0.6,0.6-0.6,1.4-0.8,1.8c0.1-0.1,0.4-0.7,0.5-0.7s0,0,0,0.2
	c-0.2,0.4-0.3,0.7-0.4,1.1c-0.1,0.3-0.2,0.7-0.4,0.9l0.2-0.9c-0.2,0.8-0.3,1-0.3,1.2s-0.2,0.5-0.5,1.4v-0.1c-0.1,0.7-0.3,1.3-0.6,2
	l-0.4,1.1c-0.1,0.4-0.2,0.8-0.3,1.2v-0.3c-0.1,0.7-0.1,1.1-0.2,1.5c0.2-0.6,0.3-0.7,0.3-0.7h0.1c-0.2,0.5-0.3,1.1-0.3,1.7
	c0,0.8-0.1,1.6-0.3,2.4c-0.1-0.4-0.1-0.8,0-1.2c-0.3-0.7-0.3-1.5-0.2-2.2c-0.1,0.5-0.2,1-0.4,1.5l0,0l0.2,0.3
	c-0.1,0.5-0.1,0.9-0.2,1.2l0,0c0-0.4,0.1-0.1,0.2-0.2s0.1-0.2,0.1-0.2s0,0.1,0,0.5c0,0.7-0.2,0.8-0.2,0.8l0,0c0.1,0.8,0.1,1.6,0,2.4
	v-0.5c-0.1,0.6-0.1,1.2-0.2,1.9c0,0.5-0.1,0.9-0.3,1.4c-0.1-0.2-0.2-0.4-0.1-0.7l0,0c0-0.1,0-0.3-0.1-0.4c0,0.2,0,0.4,0,0.6
	c0,0.3,0,0.6-0.1,0.6l0,0c0,0.3,0,0.6,0,0.8v1.5l0.2-0.2c0.3,1.1,0.2,1.3,0.1,1.3h-0.1c-0.1,0-0.3,0.1-0.2,1.2c0,0.2,0,0.4,0.1,0.6
	c0-0.1,0-0.2,0-0.2v-0.3l0.1,0.3v1.4c0,0.6,0.1,1.2,0.2,1.7c0,0.5,0,1.4-0.2,1.5c0.1,0.5,0.3,1.3,0.4,1.9c0.1,0.5,0.3,1.1,0.5,1.6
	c-0.3-1.2-0.6-2.4-0.7-3.6c0.1,0.2,0.2,0.3,0.3,0.5c0.2,1.3,0.8,3,1,3.9v-0.2l0,0c0.3,0.9,0.6,1.5,0.8,2.1c0.3,0.7,0.6,1.3,0.8,2
	l0,0c0,0-0.4-0.9-0.7-1.5c0.1,0.4,0.2,0.9,0.4,1.3c0.2,0.4,0.4,0.8,0.7,1.7l0,0c0,0-0.5-1.2-0.7-1.3c0.3,0.6,0.6,1.3,0.9,1.9l0,0
	c0.4,0.1,0.7,1.5,1.5,2.5c0.9,1.5,2.1,2.8,3.6,3.8c0.2,0.3,0.3,0.5,0.2,0.5H0.8c-0.4-0.6-0.4-0.4-0.6-0.6c0.6,0.6,1.3,1.6,1,1.6
	c0,0-0.1,0-0.1,0c0.1,0.1,0.3,0.3,0.5,0.4c0-0.1-0.1-0.2-0.1-0.2c-0.1-0.1-0.2-0.2-0.1-0.2s0.1,0,0.2,0.2c0.6,0.5,1.1,1,1.7,1.5
	c-0.1-0.2-0.4-0.5-0.3-0.5c0.2,0.1,0.4,0.2,0.5,0.3c0.8,0.6,1.2,0.9,2.3,1.6l0,0v0.1c-0.2-0.1-0.3-0.1-0.5-0.2
	c0.5,0.4,1.1,0.7,1.8,0.9c-0.2-0.1-0.3-0.2-0.2-0.2c0.3,0.1,0.5,0.2,0.8,0.3c0.3,0.1,0.6,0.2,0.8,0.3c0.1,0,0,0-0.1-0.2
	c0.4,0.2,0.8,0.4,1.3,0.6c-0.3-0.1-0.5-0.1-0.8-0.2c0.3,0.3,1.1,0.4,1.6,0.5c0.6,0.2,1.2,0.4,1.8,0.6l0,0c0.6,0.1,1.2,0.2,1.7,0.4
	H14c0.3,0-0.1-0.1,0-0.2c0.7,0.1,1.5,0.1,2.2,0.2c0.1,0.1,0.3,0.5,0,0.5c0.8,0,0.4-0.3,1.2-0.3h0.3c-0.7,0.2,1.6,0.2,0.6,0.5
	c1,0.2,2,0.2,3.1,0.2h0.8c0.7-0.2-1.2-0.1-1.1-0.3h0.1c1,0,1.9-0.1,2.8-0.2c0.7-0.1,1.4-0.2,2.1-0.2l0,0c0.7,0,1.4-0.1,2.1-0.2
	c-0.4,0.2,1.3,0.5,3.3,0.5h0.7c0.2-0.1-1.3-0.2-0.9-0.4h1.6c0.1,0-0.1,0-0.3,0.1H33c0.4,0,0.7,0,1.1,0H35c0.2,0,0.4,0,0.6-0.1
	l1.4,0.3l-0.6-0.1c0.7-0.1,1.4-0.2,2.1-0.2c0.5-0.1,1-0.1,1.6-0.1c0.5,0,1,0,1.5,0.1c-0.3-0.1-1-0.3,0.3-0.4c0,0.1,0.4,0.2,0.9,0.2
	h2.5c0.3,0,0.6,0,0.7-0.1l-0.1,0.2c0.1-0.3,1.9-0.4,3.3-0.6c-0.1,0.1,0,0.2,0.3,0.2h1.2c0.3,0,0.5,0,0.7,0.1
	c0.2-0.3,2.5-0.3,2.7-0.6h0.3c0.7,0,0.7,0.2,0.9,0.3l0.5-0.2c0.3,0,0.7,0,1,0h2.8l1.1-0.4l0.4,0.1c0.2-0.1,1.1-0.2,0.5-0.2h0.6
	c0-0.3,0.8-0.1,2-0.4c0.3,0,0.2,0.1,0,0.2h0.2c0.4,0,0.2,0.1,0.5,0.2c-0.1-0.1,2.1-0.7,0.6-0.7c-0.1-0.1,0.8-0.3,1.4-0.3l0,0
	l0.4,0.2l0.7-0.3c0.2,0,0.5,0,0.7,0H70c-0.7,0.1-1.4,0.5-0.3,0.5h0.6c-0.7,0.1-1.4,0.2-2.1,0.4h0.2c0.2,0,0.2,0-0.3,0.2
	c1.6-0.2,0.5-0.2,2.1-0.4c0,0.2,0.2,0.3,1.1,0.3H72l-1-0.1l0.2-0.1h-0.1c-0.3,0-0.4,0-0.5-0.1c0.3,0,1.4-0.3,1.9-0.3l0,0
	c-1.2-0.2,2.8-0.5,1.8-0.6c0.3-0.1,0.7-0.1,1-0.1c0.1,0,0.2,0,0.3,0c-1.3,0.3,1,0.2,0.8,0.4c0.5-0.1-1-0.1-0.4-0.2h0.6
	c0.4,0,0.8,0,1.3,0.1h0.9c0.2-0.1-1.2-0.1-0.1-0.3h1.3c-0.5,0.2-0.1,0.4-1,0.5c0.8-0.1,3.2-0.3,2.2-0.4l0.9-0.1
	c-0.6,0-2.2-0.1-0.4-0.3l0,0l1.2-0.3l0.6,0.1c0.2-0.1,0.4-0.2,0.7-0.2c0.1,0,0.6,0,0.6,0.1c1.4-0.1,1.3-0.2,1.4-0.3
	c0.2,0,0.4,0,0.6,0c0.3,0,0.3,0,0.1,0.2c0.9,0,2.3-0.2,3.2-0.2h0.4c1.4-0.2-0.3,0,0.5-0.2c0.4,0.1,0.7,0.1,1.1,0.1
	c1.6,0,4.1-0.4,5.9-0.5c-0.6-0.3,0.5-0.1,1-0.4c0.1,0.1,2,0.1,0.2,0.3l1.2-0.1c0.9,0.1-2,0.3-0.7,0.5c1.2-0.2,2.5-0.4,3.8-0.5h0.1
	c-0.1,0.1-0.1,0.1,0,0.1h0.8c0.1,0,0.2,0,0.1,0.1c-0.4,0.1-0.8,0.1-1.3,0.2h0.3c3-0.1,0.9-0.4,2.4-0.6h0.9c0.8,0,0.6,0.2,0.7,0.3
	h0.2c0.5,0,1-0.1,1.5-0.2c-0.3,0.1-0.5,0.1-0.8,0.1c-0.7,0-1.1-0.2-0.7-0.3c0.2,0.1,0.5,0.1,0.7,0.1c0.8,0,1.7-0.1,2.5-0.4h-2.8
	c-0.5,0-1,0-1.5-0.1c-0.3,0.1-0.3,0.4-1.7,0.4H105c0.9-0.2-0.1-0.1-0.3-0.2c0.3,0.1-1,0.1-1.5,0.2c-0.4-0.1,0.7-0.4-0.4-0.4h-0.2
	l-0.3,0.4c-0.4,0-0.1-0.1-0.4-0.1h-0.6c0.7-0.2-0.2-0.3,1.5-0.4H102c-1.4,0.1-2.7,0.3-4,0.6c0.1,0,0.2,0,0.2-0.1
	c-0.4,0.1-0.8,0.2-1.3,0.2c-1,0,0.8-0.2,0.5-0.3l-1.7,0.1l0,0c-0.3,0.1-0.5,0.1-0.8,0.1h-0.2c0.5-0.1,0.7-0.3,1-0.4l-1.7,0.4
	c0.2-0.1-1.5-0.1-0.2-0.3l-2.6,0.3l-0.2-0.2c-0.5,0.1-0.6,0.1-0.3,0.1H91c-0.7,0-2.5,0.4-3.2,0.4c-0.3,0-0.4,0-0.3-0.2
	c-2.1,0.4-2.8,0.3-5.3,0.7c1.9-0.4-2.2-0.1-0.2-0.4l0,0c-0.8,0-1.5,0.2-2.3,0.4c-0.9,0-0.5-0.3,0.3-0.5l-1,0.2l0,0l-1,0.2
	c-0.9,0-0.4-0.2-1-0.2h-0.3l-0.2,0.2H76c0.3,0.1-0.3,0.2-1.1,0.2l0,0l-0.9,0.1c0.3-0.1,0.3-0.1,0.2-0.1h-0.4c-0.2,0-0.3,0-0.2-0.1
	c-0.8,0-1.5,0.1-2.3,0.2l0.3,0.1c-0.3,0.1-0.5,0.1-0.8,0.1c-0.2,0-0.2,0-0.1-0.1s0-0.1-0.3-0.1h-0.4l0.1,0.2h-0.6
	c-0.8,0-1.6,0.1-2.4,0.2c-0.7,0.1-1.4,0.2-2.1,0.2h-0.2c0.8-0.1,0.7-0.2,0.7-0.2l0,0c-1.4,0.2-3.7,0.3-5.1,0.6
	c-0.7-0.3-1.5-0.3-2.2-0.2c-0.5,0-1.1,0.1-1.6,0.3h-3.1c-0.2,0.1-1,0-1.5,0.2h-0.1l0.1,0.1c-0.3,0-0.6,0-0.9,0
	c-0.5,0-1.1,0.1-1.6,0.1c-0.5,0.1-1.1,0.1-1.6,0.1c-0.3,0-0.5,0-0.8,0h0.3l-0.8,0.1c-0.1-0.1,0.2-0.1,0.2-0.2l-3.7,0.1l0.7,0.1
	c-0.7,0-1.1,0.2-1.8,0.2h-0.5c0.5-0.1,0.5-0.1,0.3-0.1h-1.3c-0.2,0-0.3,0-0.5-0.1l0.8-0.1c-1.1,0-1.1,0-1,0.2h-0.4
	c-0.2,0-0.5,0-0.7-0.1c-0.2,0-0.3-0.1-0.5-0.1c-0.2,0-0.4,0-0.6,0h0.9c0.3,0.1-0.4,0.2-1,0.2c-0.1,0-0.5-0.1-0.2-0.1
	c-1.1,0.1-2.7,0.1-3.2,0.1s-0.4-0.2-0.1-0.2c-0.9,0.1-1.2,0.1-1.5,0.1H32c-0.2,0-0.6,0-1.5,0.1v-0.1l-0.8,0.1l-1.2-0.2l0.4,0.1h-2.1
	l0.4-0.1h-0.6c-0.5,0-1,0-1.5-0.1c-0.4,0-0.8,0-1.3,0c-0.4,0-0.8,0-1.3,0c0.1,0,0.2,0,0.4-0.1h-0.8c-0.3,0-0.6,0-0.9-0.1
	c-0.3-0.1-0.5-0.1-0.8-0.1c-0.3,0-0.6,0-0.9,0.1c0.1,0-0.1-0.1,0-0.1l-0.9-0.2v-0.2l-0.7,0.3l-0.5-0.2l-0.3,0.1
	c-0.5-0.2-1-0.3-1.5-0.3c-0.3,0-0.6,0-0.9-0.1c-0.3-0.1-0.6-0.2-0.9-0.3l0.2,0.3c-0.4,0-0.8,0-1.2-0.1c-0.4-0.1-0.8-0.2-1.2-0.3
	c-0.2,0-0.4-0.1-0.6-0.2l-0.6-0.2c-0.4-0.2-0.8-0.3-1.3-0.5c-1.6-0.9-3.1-1.9-4.6-3l0.2-0.1c-0.4-0.3-0.8-0.5-1.3-0.8
	c-0.1-0.2-0.1-0.3-0.1-0.3c0.1,0,0.2,0.1,0.2,0.1c0.1,0.1,0.1,0.1,0.2,0.1l0,0c-0.3-0.3-0.6-0.5-0.9-0.7c-0.4-0.2-0.7-0.6-1-0.9
	c-0.1-0.2-0.2-0.3-0.1-0.3s0.6,0.6,0.8,0.8c-0.7-0.7-1.4-1.4-2-2.2c-0.3-0.4-0.6-0.8-0.8-1.2c-0.2-0.3-0.4-0.7-0.6-1h-0.1
	c-0.7-1.2-1.2-2.5-1.7-3.8l0,0c0.1,0,0.2,0.3,0.3,0.6c-0.1-0.5-0.3-1-0.5-1.4l0.3,0.4c-0.1-0.2-0.2-0.5-0.3-0.8s-0.2-0.6-0.3-0.9
	c-0.2-0.4-0.3-0.8-0.3-1.2l0,0c-0.2-0.2-0.3-0.5-0.3-0.8c0-0.6-0.1-1.1-0.3-1.6c-0.1-0.4-0.2-0.7-0.3-1.1c-0.1-0.4-0.1-0.7-0.2-1.1
	c0.1,0.3,0.2,0.6,0.2,0.9l0,0c-0.1-0.7-0.2-1.3-0.4-1.9l0.1,0.2c-0.2-1.1-0.4-2.2-0.5-3.3c0.2-0.5-0.1-2.9,0-2.9l0,0
	c0-0.1,0-0.2,0-0.4c0,0.1,0,0.1,0,0.2c0,0.1,0,0.2,0,0.2v-0.5c0-0.4,0-1.3,0.1-1.3l0,0v-0.9l0.2,0.7c0.1-0.6,0-1.2-0.3-1.7
	c0.1-0.8,0.2-1.6,0.4-2.4v0.3c0.2-2.4,1.1-3.8,1.3-5.7v0.1c0.1-0.4,0.2-0.9,0.4-1.3v0.4l0.2-1.2l0.3-1.2l0.1,0.1
	c0.7-1.9,1.5-3.7,2.5-5.5l-0.1,0.3c0.4-0.6,0.8-1.2,1.3-1.8c0.3-0.4,0.5-0.6,0.9-1.3l-0.1,0.2c0.3-0.4,0.6-0.7,0.9-1.1L3,143.4
	c0.3-0.5,0.8-0.9,1.2-1.3l0.5-0.4H4.7c0.3-0.5,1-1.2,1.1-1.4c0.5-0.4,0.7-0.4,0.7-0.4l0,0c0.1,0,0.3-0.1,0.4-0.2
	c0.4-0.3,0.7-0.5,1-0.7c0.4-0.3,0.9-0.5,1.4-0.7v0.1c0.6-0.2,1-0.5,1.9-0.8l-0.3,0.1c0.5-0.2,1.1-0.4,1.7-0.5c0.5,0,1-0.2,1.5-0.4
	c0.5-0.1,1.1-0.1,1.6-0.2c0.2,0,0.3,0,0.3,0.1c2-0.3,3.9-0.4,5.9-0.4c0.1,0.1,0.2,0.1,0.3,0.1H23c0.2,0,0.5,0,0.7,0l-0.1-0.1H24
	c1.1,0,2.2,0,3.4,0.1s2.4,0.1,3.6,0.1c0.9,0,1.8,0,2.8-0.1l0.1,0.2l0.7-0.2c0.6,0,1.2-0.1,1.9-0.2l1-0.1l1-0.2l1-0.2
	c0.4-0.1,0.8-0.2,1.3-0.3c1-0.3,1.8-0.9,2.4-1.7c0.8-1.2,1.1-2.7,0.7-4.1c-0.1-0.4-0.1-0.5-0.2-0.7s-0.1-0.4-0.2-0.5
	s-0.2-0.6-0.2-0.8s-0.3-0.8-0.5-1.4c-0.2-0.6-0.2-1.3-0.3-1.9v0.1c-0.2-2.4,0.2-4.9,1.2-7.1c0,0.1,0.1,0,0.1,0.1
	c0.2-0.6,0.5-1.2,0.9-1.8c-0.2,0.2-0.3,0.3-0.4,0.5c0.2-0.7,0.6-1.3,1.2-1.8l0.5-1l0.2-0.1v-0.2c0.2-0.1,0.4-0.3,0.6-0.4
	c0.2-0.2,1.1-1.5,1.3-1.9c0.1,0,0.5-0.4,0.6-0.4s0,0.1-0.2,0.3c1-1,2.2-1.8,3.4-2.6l-0.6,0.3c-0.1,0,0.1-0.3,0.4-0.5
	c0.3-0.2,0.6-0.4,1-0.6c-0.3,0.2-0.3,0.3-0.2,0.3s0.4-0.1,0.7-0.2s0.2-0.1,0.1-0.1h-0.3c0.7-0.5,1.5-1,2.4-1.2l-0.4,0.2
	c0.4-0.2,0.7-0.3,1.2-0.3c0.4,0,0.8-0.1,1.2-0.2c0.8-0.3,1.5-0.3,1.3-0.6c0.2-0.1,0.4-0.1,0.6-0.1c0.1,0,0.2,0,0.2,0.1
	s0,0.1,0.1,0.1l0,0c0.5-0.1,1-0.2,1.5-0.2c0.4,0,0.8,0,1.2,0.1c0.3-0.1,0.6-0.2,0.9-0.2c0.4,0,0.8,0,1.1,0.1
	c0.5,0.1,0.9,0.1,1.4,0.2c0.3,0,0.2,0,0.3-0.1c0.3,0.1,0.7,0.2,1,0.3c0.2-0.1,0.4-0.2,0.6-0.2H68c0.8,0.2,0.6,0.4,0.8,0.5l0.6-0.2
	c2.5,0.8,4.9,1.9,7.3,3.2c2.4,1.3,4.7,3,6.7,5c2.1,1.7,3.9,3.7,5.6,5.8l-0.2-0.2c0.5,0.8,1.1,1.5,1.6,2.3c-0.3-0.6-0.7-1.2-1-1.7
	c0.4,0.4,0.7,0.8,1.1,1.3c1.6,2.5,3.6,6.2,5.3,9.5c0.5,0.5,0.8,1.2,0.9,1.8c0.1,0.7,0.4,1.3,0.7,1.8c-0.1-0.2-0.2-0.2-0.3-0.4
	c1.1,2.3,1.7,3.5,2.9,5.9l0,0c-0.1,0-0.1,0.1-0.1,0.2l0.1,0.2c0,0.1,0.1,0.3,0.2,0.4c0.2,0.4,0.4,0.8,0.5,1.2l0,0l0.3,0.2
	c0.1,0.5,0.4,1.4,0.7,2l0.1,0.2v0.1l0,0l0.3-0.1h0.2l2.1-0.6l0.2,0.1l1.1-0.3l1.1-0.4c0.5-0.2,1.1-0.4,1.6-0.6
	c0.8-0.4,1.6-0.6,2.5-0.8c3.4-1.8,8.7-4.6,12.8-5.1c0.4-0.1,0.8-0.2,1.2-0.2h1.4c0.3,0.1,0.6,0.2,0.9,0.3h0.7l0.7,0.1l0.7,0.1
	c0.2,0.1,0.4,0.2,0.6,0.3h-0.1c0.8,0.3,1.5,0.9,2.4,1.3s1.3,1.2,1.2,1.4c0.3,0.2,0.6,0.5,0.8,0.8c0.2,0.3,0.4,0.6,0.6,0.9
	c0,0,0.6,0.7,1.6,2c1.4,1.9,2.7,3.8,3.9,5.9c1.7,2.9,3.1,5.9,4.1,9.1c0.6,1.8,1,3.6,1.3,5.5c0.2,1.9,0.2,3.9,0,5.9
	c-0.2,2-0.7,3.9-1.5,5.8c-0.7,1.8-1.7,3.5-3,5c-1.2,1.5-2.7,2.8-4.3,3.9l-0.6,0.4l-0.6,0.4c-0.4,0.2-0.8,0.5-1.3,0.7
	c-0.9,0.4-1.7,0.9-2.5,1.2c-3.2,1.3-6.6,2.2-10,2.9c-3,0.6-5.6,1-7.5,1.3l0,0c-0.5,0.2-1.9,0.4-1.4,0.6h-0.6c-0.2,0-0.4,0-0.6,0
	h-0.4c-0.1,0-0.2,0-0.2,0c1.5,0-0.4,0.4,1,0.6l-0.9,0.1h1l0.2-0.3c0.5,0,1,0,1.5,0.1c0.9-0.4,1.8-0.6,2.7-0.6h0.3
	c0.6,0,0.3,0.2,0.5,0.2h0.9c-0.4,0-0.8,0.1-1.3,0.1c-0.4,0.1-0.6,0.2-0.4,0.2h0.2c1.7,0-0.4,0,0.8-0.2h0.3c0.4,0,0.2,0.1,0.2,0.2
	l1.4-0.2c0,0.1-0.9,0.1-0.3,0.2c0.6-0.1,1.2-0.2,1.7-0.4c0.1,0.1,0.2,0.1,0.3,0.1c0.3,0,0.7-0.1,1-0.2c0.4-0.1,0.7-0.2,1.1-0.2
	c0.1,0,0.2,0,0.3,0c-1.3,0.3,0.1,0.1,0,0.2l1.5-0.3l1.5-0.3l0,0c0.1,0,0,0-0.2,0.1L126,192h0.1c0.4-0.1,0.9-0.2,1.2-0.4l0,0
	c0.3-0.1,0.6-0.1,1-0.2c0.4-0.1,0.7-0.2,1.1-0.2h0.1c1-0.2,1.3-0.4,1.4-0.5s0.3-0.2,1.3-0.5c0.1,0-0.2,0.2-0.5,0.3s-0.4,0.1-0.3,0.1
	h0.2l1.9-0.8c-0.3,0.3-0.6,0.5-1,0.6c2.3-0.7,4.4-1.6,6.5-2.7c1-0.5,1.9-1.1,2.7-1.8c0.4-0.4,0.8-0.8,1.3-1.2
	c0.5-0.4,0.9-0.9,1.2-1.4c0.1-0.1,0.1-0.1,0.2-0.1c0.1,0-0.5,0.7-0.7,1.1c0.6-0.8,1.1-1.4,1.6-2c0.2-0.3,0.4-0.6,0.6-0.9l0.6-0.8
	c0.9-1.1,1.5-2.4,2-3.7l-0.1-0.1c1-2.3,1.6-4.7,1.8-7.2c0.2-2.6,0-5.3-0.4-7.9v0.6c-0.2-0.4-0.3-0.8-0.4-1.3
	c-0.1-0.4-0.2-0.9-0.4-1.3h0.1c0.1,0,0.1-0.1-0.1-0.9c0,0.3,0.1,0.8,0,0.8l0,0c-0.2-1.4-0.6-2.7-1-4c-0.6-1.7-1.2-3.3-2-4.9
	c-1.7-3.4-3.7-6.6-5.9-9.6c-1.5-2.1-3.2-3.9-5.1-5.6c-1.1-0.9-2.3-1.7-3.5-2.3c-0.3-0.2-0.6-0.3-1-0.4l-1-0.3l-1-0.3l-1.1-0.2
	c-0.8-0.1-1.5-0.2-2.3-0.2c-2,0-3.9,0.3-5.8,0.9c-2.3,0.7-4.6,1.7-6.8,2.8c0.2-0.1,0.5-0.2,0.7-0.3c0.2,0-0.2,0.3-0.9,0.6
	c-2.8,0.7-4.4,2.2-7.1,2.9l-0.4,0.2l-0.2,0.1h-0.2v-0.2l0,0v-0.1l-0.2-0.4l-0.3-0.9c-0.8-2.4-1.8-4.6-3.1-6.8l0.1-0.2
	c-0.2-0.5-0.5-1.1-0.8-1.6l0,0c-0.7-1.7-2-3.7-2.4-4.6h-0.2c-0.2-0.5-0.5-1-0.8-1.5l-0.1,0.1l-0.9-1.1c0.2,0-0.2-0.7-0.8-1.5
	s-1.2-1.6-1.4-2c-0.9-1.2-2.7-3.3-4.2-4.9c-0.4-0.6-0.8-1.1-1.3-1.5c-0.7-0.7-1.5-1.5-2.1-2.1c-1.5-1.3-3.2-2.5-4.9-3.5
	c-1.9-1.2-3.9-2.2-6-3.1v0.2l-1.1-0.4v-0.1l0,0c-0.2-0.2-0.5-0.3-0.7-0.4c-0.3-0.1-0.6-0.2-0.9-0.3c-0.6-0.2-1.2-0.3-1.7-0.5
	c0.4,0.2,0.9,0.4,1.4,0.4c0.4,0.2,0.4,0.2,0.2,0.2c-0.5-0.1-1-0.2-1.5-0.4l0,0l-0.9-0.1c0-0.2-0.8-0.5-0.9-0.6
	C67.6,100.8,65.9,100.6,64.2,100.6"/>
<polyline class="st0" points="67.1,198.2 67.3,198.2 67.1,198.2 "/>
<path class="st0" d="M64.2,198.1l-0.6,0.1C63.8,198.2,64,198.2,64.2,198.1"/>
<polyline class="st0" points="63,198.3 62.2,198.4 62.2,198.4 63,198.3 "/>
<path class="st0" d="M68.2,198.1h-0.7C67.8,198.1,68,198.1,68.2,198.1"/>
<polyline class="st0" points="59.7,198.9 59.6,198.9 59.4,198.9 59.7,198.9 "/>
<path class="st0" d="M71.6,198L71.6,198c-0.1,0-0.3,0-0.4,0.1L71.6,198"/>
<path class="st0" d="M44.4,199.4c-0.3,0-0.4,0-0.3,0.2C44.3,199.5,44.4,199.5,44.4,199.4"/>
<path class="st0" d="M1074.2,294.9h-0.2C1074.1,294.9,1074.2,294.9,1074.2,294.9"/>
<path class="st0" d="M1153.2,301.1l-0.9,0.1C1152.6,301.2,1152.9,301.2,1153.2,301.1"/>
<path class="st0" d="M1052.7,250.3c0,1.1,0.1,2.2,0.2,3.2v0.1C1052.8,252.9,1052.7,251.9,1052.7,250.3"/>
<path class="st0" d="M1321.8,299.6l-1.1,0.1C1321,299.7,1321.4,299.7,1321.8,299.6"/>
<path class="st0" d="M1223,301.5c-0.4,0-0.8,0-1.1,0.1c0.4-0.1,0.9-0.1,1.3-0.1H1223"/>
<path class="st0" d="M1057,228.9l-0.4,1.3C1056.7,230.2,1056.8,229.7,1057,228.9"/>
<polyline class="st0" points="1082.2,191.6 1082.1,191.6 1082.2,191.6 "/>
<path class="st0" d="M1067.4,202.5l-0.8,1.1C1067,203.2,1067.4,202.6,1067.4,202.5"/>
<path class="st0" d="M1066.6,203.6c-0.2,0.3-0.4,0.5-0.4,0.5l0,0L1066.6,203.6"/>
<path class="st0" d="M1103.1,182c-1.3,0.1-2.6,0.2-3.9,0.5c1.3-0.2,2.7-0.4,4-0.5H1103.1"/>
<path class="st0" d="M1057.1,253.6c0.3,1.3,0.4,4.1,0.6,4.1l0,0C1057.6,256.3,1057.4,255,1057.1,253.6"/>
<path class="st0" d="M1392,215.6l0.9,0.1L1392,215.6"/>
<path class="st0" d="M1102.3,184l-0.8,0.1h1.2C1102.6,184,1102.5,184,1102.3,184"/>
<polyline class="st0" points="1301.8,162.8 1301.4,163.1 1301.5,163 1301.5,163 1301.5,163 1301.8,162.8 "/>
<path class="st0" d="M1295.3,167.1c-0.5,0.4-1,0.9-1.4,1.4C1294.4,168,1294.8,167.5,1295.3,167.1"/>
<path class="st0" d="M1099.2,182.5c-0.8,0.1-1.5,0.3-2.3,0.5C1097.8,182.8,1098.5,182.6,1099.2,182.5"/>
<path class="st0" d="M1256.2,129.6c0.3,0.2,0.5,0.3,0.8,0.5C1256.7,129.9,1256.4,129.7,1256.2,129.6"/>
<path class="st0" d="M1214.7,301.5c0,0,0,0.1,0.2,0.1L1214.7,301.5"/>
<path class="st0" d="M1278,294.3c-1.1,0-2.2,0.2-3.3,0.4h0.2C1275.9,294.7,1277,294.5,1278,294.3"/>
<polyline class="st0" points="1217.9,295 1217.9,295 1217.9,295 1218,295 1217.9,295 "/>
<path class="st0" d="M1231.2,294.8c0.3,0,0.6,0.1,0.9,0.1C1231.8,294.9,1231.5,294.8,1231.2,294.8"/>
<polyline class="st0" points="1318.2,292.1 1318.2,292.2 1318.2,292.1 1318.2,292.1 "/>
<path class="st0" d="M1233.5,301.8L1233.5,301.8 M1112.1,299.8L1112.1,299.8 M1271.4,295.2L1271.4,295.2 M1263.9,294.3
	c-0.1,0-0.1,0.1-0.1,0.1C1263.8,294.4,1263.9,294.3,1263.9,294.3 M1281.5,293.8L1281.5,293.8 M1060.5,272.4L1060.5,272.4
	 M1056.9,255.3c0,0.1,0,0.2,0,0.3V255.3 M1425,241.5L1425,241.5 M1052.6,237.7L1052.6,237.7 M1433.6,231.4c0,0.1,0.1,0.2,0.2,0.4
	C1433.8,231.7,1433.7,231.6,1433.6,231.4 M1139.5,204.6l0.3,0.4L1139.5,204.6 M1070.5,199.8c-0.1,0.1-0.1,0.1-0.1,0.2
	C1070.4,199.9,1070.4,199.9,1070.5,199.8 M1073.5,198.8l-0.4,0.4L1073.5,198.8 M1092.7,188.8c-0.3,0.1-0.7,0.2-1.1,0.4L1092.7,188.8
	 M1098.4,184.3L1098.4,184.3 M1271.5,167.4c0,0.2,0.1,0.3,0.2,0.4L1271.5,167.4 M1244.6,122.5h-0.2
	C1244.5,122.5,1244.6,122.5,1244.6,122.5L1244.6,122.5 M1227.1,118.6c-1,0-2.1,0.1-3.3,0.1c-5.4,0.3-10.8,1.5-15.8,3.5
	c-6.2,2.5-12,5.9-17.3,10c-5.9,4.6-11.1,10-15.7,15.9c-4.7,6.2-9,12.7-12.9,19.4c-3.9,6.7-7.5,13.4-11.3,19.8
	c-1.9,3.2-3.8,6.3-5.8,9.2c-0.4,0.7-0.9,1.4-1.3,2l-0.2,0.3l-0.2,0.2l-0.1,0.2l-0.2-0.2l-0.1-0.1l-0.1-0.1l-0.7-0.7
	c-0.8-1-1.7-2-2.7-2.9c-0.9-0.9-1.9-1.8-2.9-2.6c-3.7-3.1-7.9-5.6-12.3-7.4c-5.5-2.3-11.5-3.5-17.4-3.5c-1.1,0-2.3,0-3.4,0.1l0,0
	c-1.3,0.3-4.8,0.8-3.4,1c-2.7,0.4-4,0.1-4.4,0.4h0.9c0.9,0,0.6,0.2,0.4,0.4s-0.3,0.4,1,0.4h0.3l-2.2,0.4l0,0c0.4,0,0.7-0.1,1.1-0.2
	c0.4-0.1,0.8-0.2,1.3-0.2c0.1,0,0.2,0,0.2,0.1l0.5-0.6h1c0.8,0,1.7,0,2.5,0.2c0.8-0.1,1.6-0.4,2.5-0.5c0.5-0.1,0.9-0.1,1.4-0.1
	c1,0,2,0.1,3,0.3l-1.1-0.1c1.7,0.1,2.2,0.3,2.3,0.5s0,0.2,0.3,0.3l-0.7-0.1l2.7,0.8c-1.1-0.3-2.2-0.5-3.3-0.5l0,0
	c-0.9,0-1.3,0-0.4,0.1s1.4,0.3,1.5,0.3s-0.1-0.1-0.3-0.1s-0.4-0.1-0.2-0.1s0.6,0.1,0.9,0.1c1.8,0.3,1.2,0.5,1.1,0.7
	c1.1,0.1,2.1,0.5,3.2,0.7h-0.2c-0.2,0-0.4,0-0.6-0.1l-0.5-0.1l0.4,0.2l2,0.4l2,0.5c0.2,0.4,1.3,0.7,2.5,1.1c1.2,0.3,2.3,0.8,3.2,1.6
	c-0.4-0.2-0.8-0.3-1.2-0.4c-0.1,0,0.2,0.2,0.5,0.4s0.5,0.4,0.3,0.4l0,0c1,0.6,2.1,1,3.1,1.7c1,0.6,2,1.2,3,1.9
	c0.1,0.1,0.1,0.1,0.1,0.1c-0.2-0.1-0.4-0.2-0.6-0.3l-0.5-0.3l0.2,0.1c0.8,0.6,1.6,1.2,2.5,1.6c0.7,0.7,1.4,1.3,2.1,1.9
	c0.9,0.8,1.6,1.7,1.4,1.8c0.8,0.9,1.3,1.4,1.6,1.8c0.2,0.2,0.5,0.4,0.8,0.6c0.3,0.2,0.5,0.3,0.7,0.6c0.2,0.2,0.4,0.4,0.6,0.7
	s0.5,0.7,0.8,1.2v0.1c-0.4-0.4-0.7-0.8-0.9-1.2c-0.2-0.2-0.3-0.4-0.6-0.6c0,0.2,0.1,0.4,0.2,0.5c0.5,0.7,1,1.5,1.6,2.2l0.8,1.1
	l0.7,1.1c-0.7-0.5-1.2-1.1-1.6-1.8c1,1.6,1.8,3.3,2.7,4.9l0.2,0.1l0.2-0.1l0.3-0.4l0.7-0.8l1.4-1.6c0.9-1.1,1.8-2.1,2.7-3.2l1.3-1.6
	l1-1.3c0.7-0.8,1.3-1.6,2-2.5c2.7-3.6,5.2-7.3,7.3-11.3c0.2-0.3,0.3-0.4,0.4-0.4s-0.9,1.7-1.2,2.6c3.9-7.5,6.6-10,10.2-16.2
	l-0.2-0.2c5.8-8.1,11.6-18.5,19.4-26l-1,0.8c0.5-0.8,1.1-1.5,1.7-2.1c0.7-0.8,1.4-1.6,2-2.2l0,0v0.2c0,0.1,0,0.2,0.1,0.2
	s0.5-0.3,1.5-1.2c-0.4,0.3-0.9,0.6-1.4,0.9v-0.1c5-4.2,10.5-7.9,16.3-10.8c5.8-2.9,12.2-4.5,18.7-4.6c1.2,0,2.4,0.1,3.7,0.2
	c4.9,0.4,9.7,1.8,14.1,4.1c2.3,1.2,4.4,2.5,6.5,4.1c2.1,1.5,4,3.2,5.8,5c7.2,7.2,12.1,16.6,15.3,25.9c-0.3-0.9-0.3-1.3-0.2-1.3
	c0.5,0.6,0.9,1.4,1,2.1c0.5,2.9,1.1,5.8,2,8.6c0.2,0.7,0.4,1.4,0.5,2c0.1,0.3,0.2,0.7,0.3,1c0.2,0.6,0.3,1.4,0.4,2
	c0.2,1.4,0.5,2.8,0.7,4.4s0.4,3.2,0.6,5c0.3,2,0.6,4,0.9,6s0.6,3.9,0.8,5.8l8.3-11.5c1.4-1.9,2.8-3.8,4.2-5.6l1.1-1.4l0.8-0.9
	l1.1-1.2c2.8-3.4,5.9-6.6,9.1-9.6l0.4,0.1c1.2-0.8,1.5-1.2,2.8-2.1v0.1c1.7-1,3.4-1.9,5.1-2.7c1.4-0.7,2.8-1.2,4.3-1.5V166
	c2.2-0.5,1.2,0,3.3-0.6v0.2c0.8-0.2,1.7-0.4,2.5-0.5c0,0.2,0.3,0.2,0.9,0.3c0.7,0,1.5,0.1,2.2,0.2c0.8,0.1,1.7,0.2,2.5,0.4
	c0.6,0.1,1.2,0.3,1.8,0.6c1.8,0.6,3.4,1.4,4.9,2.5c1.9,1.3,3.5,2.8,4.9,4.6c0.1,0.4,1.1,1.6,2,3.2c1,1.7,1.9,3.4,2.7,5.2
	c1.7,3.6,2.9,7.4,3.5,11.3c0.3,2.2,0.5,4.4,0.5,6.6v3.4l-0.4,3.3c-0.2,1.1-0.4,2.4-0.7,3.6l0.5-0.6l-0.9,4.7c0,0-0.2,0.3-0.2,0.3
	s0-0.1,0-0.3l-0.2,0.6c0.2,0,0.5,0,0.7,0c1.7,0,4.1-0.2,6.3-0.4l3.6-0.3l1.6-0.1h0.9l-0.4-0.1h-0.7c-0.4,0-0.8,0-1.2,0.1
	c-0.8,0.1-1.7,0.2-3,0.3h-0.2c-3.2,0,0.5-0.6,4.9-0.7v0.1l1.8-0.3c0.2,0.3,1.9,0.4,2.1,0.7c4-0.1,7.4-0.3,10.9-0.3h1
	c3.3,0,6.7,0.2,10,0.5c-0.9,0.2,6,0.5,4.2,1c0.8,0,1.2,0.1,1.6,0.1c1.8,0-2-0.7,0-0.8c1,0,2.1,0.2,3.1,0.4c-0.6,0,0.8,0.4,0.2,0.4
	h-0.3c1.1,0.1,2.2,0.3,3.3,0.4c0.2,0,0,0.1-0.2,0.1h-0.6c3.1,0.3,6.2,0.9,9.2,1.6c2.8,0.7,5.4,1.4,8,2.1c0.5-0.1-2-0.8-1.6-0.9
	c1.7,0.3,3.3,1,4.7,1.9c0.5,0.3,0.9,0.6,1.4,1c0.3,0.2,0.6,0.4,0.9,0.7s0.8,0.6,1.2,0.9c-0.3-0.2-0.6-0.3-0.9-0.4
	c1.4,0.7,2.5,1.8,3.3,3.2c0,0.1,0,0.1-0.1,0.1c-0.1,0-0.1-0.1-0.2-0.1c-0.2-0.2-0.4-0.4-0.6-0.6c-0.2-0.3-0.5-0.6-0.8-0.9
	c-0.3-0.2-0.5-0.5-0.8-0.6c0.8,0.8,1.6,1.6,2.2,2.5c0.3,0.4,0.6,0.8,1,1.1v-0.3c0.4,0.6,0.8,1.4,1,2.1c0.2,0.6,0.2,1.1,0.4,1.6l0,0
	c0-0.2,0-0.4-0.1-0.6c0-0.3-0.1-0.6,0-0.6s0.1,0.1,0.2,0.3l0.4,1.1c0.1,0.4,0.2,0.8,0.3,1.3c0.7,2.8,0.9,5.7,0.8,8.6h-0.2l-0.1-0.1
	c0.1,0.9,0,1.9-0.3,2.8c-0.1,0.4-0.3,0.8-0.5,1.4s-0.3,1.2-0.6,2.2c-1.8,5.8-5.1,10.9-9.6,15c-4.7,4.4-10.1,8-16,10.6
	c-2.9,1.9-6,3.4-9.2,4.6l-0.6-0.4c-1,0.5-2,0.9-2.9,1.3h-0.3c-0.2,0,0.2-0.1,0.5-0.3s0.7-0.3,0.5-0.3c-0.2,0-0.5,0.1-0.7,0.1l-1,0.8
	l0,0c-0.3,0-2.2,0.6-3.4,1c-0.4,0.1-0.7,0.2-1.1,0.2c-0.2,0,0.2-0.2,1.6-0.8c-2,0.6-4,1.2-6,1.9l-6.1,1.6c-2.7,0.6-1.5,0.9-4.5,1.5
	c-0.7,0,1-0.4,0.8-0.5c-9.1,1.5-10.2,3.5-18.8,4.5l0.7-0.2c-0.7,0.2-1.8,0.4-2.7,0.6c-0.5,0.1-1.1,0.2-1.6,0.3
	c0.2,0.1,0.4,0.1,0.6,0.1c0.8,0,1.4-0.7,3.6-0.7c-0.2,0.6-3.2,0.8-3,1.2c-1.7,0.1-3.4,0.4-5,0.8c-2.6,0-6.1,0.5-8.6,0.5h-1.2
	c-2,0.6-4.2,1-6.3,1.3c-2-0.2-0.2-0.4-1.6-0.4h-1l-0.5,0.4c-0.8,0-1.3,0.1-1.6,0.1c-0.8,0-0.6-0.1-0.5-0.2c-2.7,0.1-2.2,0.6-5.7,0.6
	l1.9-0.4c-2.5,0.3-3.6,0.3-7.2,0.4c0.8-0.2,1.7-0.3,2.5-0.2l0,0c-0.4-0.1-0.7-0.1-1.1-0.1c-0.6,0-1.2,0.1-1.8,0.2
	c-0.5,0.1-0.9,0.2-1.4,0.2l0,0c0.3,0.1,2.8,0.1,1.6,0.4c-1.4,0-2.9,0.4-4.1,0.4c-0.3,0-0.6,0-0.9-0.1l1.9-0.4
	c-2,0.4-4.1,0.5-6.2,0.5c0.2,0,0.1-0.1,0.2-0.2c-1.8,0.3-3.6,0.4-5.3,0.3h-4.8l0.8-0.1c-1.6,0.1-2.5,0.5-3.3,0.5
	c2.3,0.1,1.7,0.2,1.9,0.5c-0.4-0.1-0.8-0.1-1.3-0.1c-1,0-2,0.1-3.1,0.4c-1.3,0.2-2.7,0.3-4.1,0.3h-1c0.5-0.3,1.1-0.4,1.8-0.3
	c0.3,0,0.6,0,0.8,0c1.5-0.7,3.1-1.2,4.8-1.4c-1.1,0.1-2.4,0.2-3.1,0.2c-0.3,0-0.5,0-0.5-0.1l-0.5,0.5h-2.8c-0.5,0.3,2.3,0.5-0.3,0.7
	h-1.1c-0.6,0-0.8-0.1-0.9-0.2c0,0,0-0.1,0-0.2h-0.1c-3.6,0.3-2.1,0.5-4.5,0.5h-1.1c0.4-0.1,0.8-0.1,1.2-0.1h-4.5c-1,0.1-2,0-2.9-0.3
	c0.4-0.2,0.9-0.3,1.3-0.3h0.2v0.1c0.9-0.2,1-0.2,0.8-0.2h-1.7c-0.4,0-0.8,0-0.8-0.1c-1.3,0.2-2.7,0.2-4,0.2h-1.3l0.6,0.4
	c-0.8,0.2-1.7,0.3-2.5,0.4c-0.5,0-0.2-0.2-0.3-0.4s-0.3-0.5-1.8-0.5h-1.1c-3.7,0.3,1.4,0.1-0.9,0.4c-1.9,0-2.8-0.2-4.8-0.2
	c-0.6,0-1.4,0-2.3,0.1s-3.1-0.3-3.3-0.7c-0.8,0.1-1.9,0.1-3,0.1h-1.3c-1.3-0.1-2.5,0-3.8,0.2c0.7,0,1.3,0.1,1.7,0.1
	c0.7,0,1.3,0,2-0.1c0.6,0,1.3-0.1,2-0.1c0.8,0,1.7,0.1,2.5,0.2l-1.3,0.4c-2.5,0-5.5,0.2-7.7,0.2h-1.5c0.4,0.1,0.6,0.2,0.3,0.3
	c-4,0.2-5.3,0.5-8.8,0.5h-1.1c-0.6-0.4,1.9-0.3,3.8-0.4c-0.7,0-1.5,0-2.2,0.1h-4.9c-0.2-0.3,2.9,0,3.4-0.3l-4.7,0.1l0,0
	c-0.4,0.2-0.9,0.3-1.4,0.2c-0.5,0-1.1,0-1.8-0.1s-1.4-0.1-2.1-0.1h-1.3c-6.8,0-7.8,0.7-11.6,1.2c-1-0.1-1.3-0.3-0.9-0.4
	c0.4,0.1,0.8,0.1,1.2,0.1c0.4,0,0.4-0.1,0.8-0.2h-0.3c-2.2,0-4.6-0.5-3.4-0.7c-3.7,0.2,1.3,0.3-0.9,0.5h-5c0.6,0.3,2.3,0.3-0.2,0.5
	h-6.1c0.4-0.1-0.8-0.4,1-0.4h0.2c-0.6,0-1.3-0.1-2-0.1c-0.8,0-1.6,0-2.4,0.2c3.1,0.3-5.1,0.2-2.8,0.7l-3.1-0.3l0,0
	c0.2,0,0.4,0,0.7-0.1c0.2,0,0.5-0.1,0.7-0.1h0.4c-0.3-0.1-0.6-0.2-0.9-0.2c-0.9,0-2,0.3-2.8,0.3c-1.4,0-2.8-0.1-4.2-0.3h-1
	c-0.9,0-1.9-0.1-2.8-0.2c-1.5,0.1-0.1,0.3-0.6,0.4l-5-0.1c-0.3-0.2-0.7-0.9,0.1-1c-1.8,0.2-0.8,0.6-3.2,0.6h-0.4
	c1.7-0.4-3.8-0.4-1.4-0.9c-2.1-0.3-4.2-0.4-6.3-0.3h-2.6c-1.6,0.3,2.8,0.2,2.6,0.6c-6.4,0-7.5,0.9-11.4,0.9h-1.7l1.4,0.1
	c-1.6,0-3.3,0.1-4.9,0.4c0.9-0.4-3.7-1.3-9-1.3h-0.1c-0.5,0.2,3,0.5,2.1,0.8h-3.6c-0.3,0,0.1-0.1,0.6-0.2h-0.7c-1,0-2-0.1-2.9-0.2
	s-1.7-0.1-2.3-0.1c-0.4,0-0.8,0-1.2,0.2l-3.3-0.6l1.3,0.3c-1.6,0.2-3.2,0.4-4.8,0.4c-1.2,0.1-2.2,0.1-2.9,0.1
	c-1.4,0-2.7-0.1-4.1-0.4c0.6,0.2,2.2,0.6-0.7,0.7c0-0.4-1.5-0.5-3-0.5c-1,0-2-0.1-2.9-0.4c-0.9,0-2.2-0.3-2.9-0.3
	c-0.2,0-0.4,0-0.4,0.1l0.2-0.4c-0.1,0.2-0.7,0.3-1.5,0.3h-1.2l-2.4-0.2l-2.4-0.4c0.4-0.4-0.4-0.5-1.5-0.7c-1.1-0.2-2.1-0.6-3-1.2
	c-0.1,0-0.2,0-0.3,0c-0.9-0.1-1.8-0.4-2.7-0.7c-0.9-0.4-1.8-0.7-2.8-1h0c-0.7-0.2-1.2-0.7-1.7-1.3c-0.2-0.3-0.2-0.5-0.4-0.7l-1-0.4
	c-0.4-0.4-1.4-1.4-2.6-2.4c-0.5-0.5-1-1.2-1.6-1.8l-0.7-0.8l-0.6-0.9c-0.6-0.5-1.2-1.1-1.8-1.7l-0.3-0.9c-0.3-0.2-0.9-1.3-1-1.3
	s0,0.1,0.1,0.4l-0.6-1.3h-0.1c-0.3,0-0.5-0.4-0.8-1s-0.7-1.8-1.2-3.1v-0.4c0.1,0.1,0.2,0.3,0.3,0.5c-0.4-1.3,0-0.9,0-1.5l0,0
	c-0.4-0.5-0.7-1-1-1.5c-0.2-0.4-0.5-0.7-0.6-0.7s-0.1,0.3,0,1.3l0,0c-0.6-1-0.9-2-1.1-3.1l0.3-0.9l-0.9-1.5
	c-0.3-1.6-0.5-3.2-0.6-4.8c0.2,1,0.6,2,0.9,2s0.3-0.7,0-2.8c0.3,1.6,0.7,3.1,1.3,4.6c-0.1-0.3-0.1-0.6-0.1-0.9
	c0.2,0.3,0.3,0.6,0.4,0.9c-0.8-3.4-0.6-1.1-1.2-4.5h0.1c0.4,0,0.3-1,0.2-3.9c0,0.8-0.1,1.5,0,2.3c-0.1-0.1-0.2-0.3-0.2-0.4
	c0.1,0.4,0.1,0.9-0.1,1.3c-0.4-1.4-0.7-2.9-0.9-4.3c0,0.4-0.1,0.5-0.2,0.5c-0.3-0.7-0.5-1.5-0.5-2.2c-0.1-0.9-0.2-1.9-0.5-2.8
	c-0.1,0.1-0.1,0.2-0.1,0.4c-0.2-1-0.3-2.1-0.1-3.2c0.1,0.7,0.2,0.9,0.2,0.9c0.1-0.4,0.2-0.9,0.2-1.4c0.1-0.7,0.1-1.4,0.2-1.4l0,0
	v-0.2c-0.1,0.2-0.1,0.5-0.2,0.7c0,0.4-0.1,0.7-0.2,0.7s-0.1-0.1-0.1-0.4c0-1.4,0.1-2.7,0.3-4.1l0.1,0.7c0-0.9,0.1-1.8,0.2-2.7l0,0
	c-0.1,0.2-0.2,0.4-0.2,0.6c-0.1,0.3-0.1,0.6-0.2,0.6s-0.1-0.2-0.1-1c0-1,0.1-2.1,0.2-3.1l0,0c0.3,1.3,0.7,0.3,0.8,2.5v-4.1
	c0-0.9,0-1.5-0.1-1.5s-0.1,0.1-0.2,0.5l0.2-2.1c-0.1,0.9-0.3,1.8-0.6,2.7c-0.1,0-0.1-0.5,0-2h0.1v-2.9l0.4-1.3l0,0
	c-0.1,0-0.2-0.5,0-1.5c0.2-0.2,0.4-1.1,0.6-1.1l0,0c0.7-3.1,0.4-2.9,0.4-3.3c0.4-1.2,0.6-1.8,0.7-1.8s0.1,0.1,0.1,0.4
	c0.4-1.4,0.9-2.8,1.5-4.1c0.4-1.2,1-2.3,1.7-3.4c0.2-0.4,0.4-0.8,0.5-1.3l-0.2,0.3c-0.1,0.1-0.2,0.3-0.2,0.3s0-0.1,0.1-0.6
	c0.9-1.1,2.3-3.3,3.9-5.8c1.6-2.5,3.4-4.8,5.4-6.9c-0.1,0-0.3,0.1-0.4,0.1c-0.4,0,1.2-1.2,1.6-2.1l0,0c0.1,0,0.8-0.6,1.4-0.9
	c0.2-0.1,0.4-0.2,0.6-0.3c0.1,0-0.1,0.2-0.7,0.8c0.5-0.5,1.1-0.9,1.6-1.4c0.1-0.1,0.2-0.1,0.3-0.1c0.2,0-0.4,0.5-0.9,1.1
	s-1.1,1.1-0.9,1.1c0.2-0.1,0.5-0.2,0.7-0.3c1.2-1,2-2,3-2.9c0.5-0.4,1-0.9,1.6-1.4c0.6-0.5,1.3-1,2.1-1.3c-0.1,0.2-0.2,0.2-0.1,0.2
	c0.3-0.1,0.7-0.3,0.9-0.5c0.3-0.2,0.6-0.4,1-0.5c0,0,0.1,0.1,0,0.2c-0.7,0.6-1.5,1.1-2.3,1.5l0.6-0.2c2.9-1.6,3.3-1.9,3.3-2.1
	s-0.4-0.3,1.1-1.2c1-0.4,1.6-0.7,2.1-0.9c0.3-0.1,0.6-0.1,0.9-0.2l0,0c0.4,0,0.3,0.2,0.4,0.3c0.8-0.2,1.7-0.5,2.4-0.8
	c-0.7,0.3-1.5,0.4-2.2,0.5c-0.4,0-0.6-0.1-0.2-0.4c0.6,0,1.2-0.1,1.7-0.3l1-0.3l1-0.3c1.1-0.3,2.2-0.7,3.2-1.1c-6,0.8-4,0.8-9.6,2.1
	c-0.6,0.5-0.4,0.8-3.5,2.1c0.6-0.4,0.8-0.6,0.7-0.6c-0.5,0.2-1,0.4-1.5,0.6l0,0c0.6,0-2.1,1.3-2.8,1.9h-0.2c-0.1,0,0-0.2,0-0.3
	s0.2-0.4,0-0.4c-0.5,0.2-1,0.4-1.5,0.8l-0.2,0.9c-0.1,0.1-0.3,0.2-0.5,0.2c0,0-0.1,0-0.1,0h-0.1c-0.1,0-0.4,0.2-1.4,1
	c1-1.3-0.7-0.2,2.4-2.5c-0.9,0.5-1.9,1.1-2.7,1.7c-0.7,0.6-1.4,1.2-2,1.8c-1.3,1.2-2.1,2.5-3.3,3.9c0.1-0.1,0.2-0.3,0.3-0.5
	c-0.2,0.3-0.5,0.6-0.8,1s-0.8,0.9-1.1,1.4s-0.5,0.5-0.6,0.5c0.1-0.3,0.3-0.6,0.6-0.9c0.3-0.5,0.6-0.9,0.5-0.9l0,0l-2.5,3h-0.1
	c-0.4,0.7-0.8,1.4-1.4,1.9c0.5-1.1,0.6-1.6,0.9-2.4l-1.7,4.2v-0.1c-0.2,0.2-0.4,0.4-0.6,0.6c-0.2,0.2-0.3,0.4-0.6,0.6
	c0.1-0.4,0.2-0.7,0.5-1c-1.1,1.8-2.1,3.6-3,5.4l-0.6,0.2c-0.2,0.3-0.3,0.6-0.4,1c0,0,0.1-0.1,0.2-0.4c-1.1,2.3-2.2,7-2.7,7
	c0,0-0.1,0-0.1-0.2c-0.3,1.2-0.5,2.2-0.8,3.1s-0.4,1.8-0.5,2.6c-0.5,2.2-0.8,4.3-1,6.5v-1.3c-0.2,0.5-0.4,1-0.4,1.5
	c-0.1,0.5-0.1,1-0.3,1.4c-0.1-0.5-0.1-0.9,0-1.4c-0.2,1.9-0.2,3.8,0,5.6c-0.1,0.8-0.2,1.1-0.3,1.1c-0.3-0.6-0.5-1.3-0.4-2l0.1,2.4
	h-0.1l0.2,2.3c-0.2,2.4-0.4,0.5-0.5,3l0.4,0.5l-0.2,1.7c0-0.1,0-0.1,0.1-0.1c0.2,0.9,0.3,1.9,0.3,2.8h-0.1l0.2,2.2
	c0-0.2-0.1-0.4-0.2-0.6c0,0.3,0,0.6,0,0.9c0.1,0.3,0.1,0.6,0,0.9l-0.1-0.1c0.1,1.9,0.1,1.9,0.6,5.3l0.2-0.6c0.4,2,0.3,2.2,0.2,2.2
	h-0.1c-0.1,0-0.2,0.2,0,1.6l0.3-0.3c0.3,5.2,2,8.6,2.9,12.4c-0.5-1.3-0.7-1.5-0.8-1.5s-0.1,0.1,0,0.1c0.3,0.8,0.6,1.7,1,2.7
	s0.8,2,1.3,3c0.4,1,1,2,1.6,2.9c0.5,0.8,1.1,1.6,1.7,2.4c0.2,0.6,0.4,1.2,0.7,1.7c0.6,1,1.3,2,2.2,2.9c0.6,0.7,1.3,1.2,2,1.7
	c0.4,0.3,0.8,0.5,1.3,0.6c0.2,0.2,0.5,0.5,0.8,0.7l1,0.6l2.1,1.3c0.9,0.3,1.7,0.8,2.5,1.4c0.6,0,2.1,1,3.5,1.3l0.2,0.2l-0.1-0.4
	c0.9,0.5,2,0.9,3,1.2c0.9,0.3,1.9,0.5,2.8,0.6c0.9,0.1,1.9,0.3,2.8,0.5c1,0.1,2.1,0.3,3.1,0.6h-0.8c0.6,0,1.3,0.1,1.9,0.1
	c0.3,0.2-0.5,0.2-0.6,0.3c1.5,0.2,2.9,0.3,4.4,0.4l4.4,0.3c-0.6-0.1-1.1-0.2-1.7-0.3h3.4c0.6,0,1.1,0,1.7,0.1
	c-1.8,0.2-1,0.2,0.2,0.2h0.6c0.9-0.1,1.8,0,2.6,0.2l-1.9,0.1c2.5,0,2.5,0,2.3-0.3h0.8c0.6,0,1.2,0,1.8,0.2c0.4,0.1,0.8,0.2,1.3,0.2
	c0.5,0,1,0,1.4-0.1h-2.2c-0.6-0.2,0.9-0.5,2.3-0.5c0.3,0,1.3,0.2,0.4,0.2c1.1,0,2.4-0.1,3.6-0.1h3.7c1.4,0.1,0.9,0.3,0.2,0.4
	c1.6-0.1,2.4-0.1,3-0.1h2c0.6,0,1.5,0,2.9-0.1l-0.1,0.2l1.9-0.2l2.7,0.4l-1-0.2h3.1c0.6,0,1.2,0,2,0.1l-0.8,0.3h0.9
	c1.7,0,2.8,0.1,3.9,0.1s2,0.2,3.3,0.2c0.9,0,1.7,0,2.6-0.1c0.3,0-0.4,0.1-0.8,0.2c0.8-0.1,1.4-0.1,2-0.1c0.6,0,1.3,0,1.9,0.1
	c0.6,0.1,1.2,0.2,1.8,0.1c0.8,0,1.5-0.1,2.3-0.1c-0.3,0.1,0.2,0.2,0,0.3l2.1-0.1l-0.2,0.4l1.7-0.5l1.3,0.4l0.8-0.2
	c2.2,0.7,5.3,0.2,8.3,0.8l-0.5-0.5c1.9-0.2,3.8-0.3,5.7-0.3c2.7,0,5.5,0.1,8.4,0.3s5.9,0.3,8.8,0.3c1.2,0,2.4,0,3.6-0.1l-0.2,0.4
	l3.8-0.4c2,0.3-1.2,0.3-0.6,0.5c4.1-0.2,1.7-0.5,6.4-0.6c2.4,0.2-0.8,0.3-2,0.4c3.2-0.1,7.6-0.3,11-0.3c1.2,0,2.3,0,3.1,0.1
	c0.1,0,0.3-0.1,0.1-0.1c1.2-0.1,2.8-0.1,4.2-0.1h5.8c-0.1,0.2-0.9,0.2-1.7,0.2h2.1c0.5,0,1.1,0,1.6-0.1l-1.3,0.3h6
	c0.6,0,1.2,0,1.8,0.1c-0.2-0.1,0-0.4,2-0.4c0.5,0.1,1,0.2,1.5,0.2c1,0,2,0,3-0.1c1.1-0.1,2.3-0.2,3.4-0.1h1.4
	c-0.4,0.1-2.8,0.2-2.3,0.2h0.9c1.3,0,2.6-0.2,3.9-0.4l-0.5,0.2l8-0.5c0.7,0.2,1.3,0.2,2,0.2c0.8,0,1.6,0,2.4-0.1s1.5-0.1,2-0.1
	s0.7,0,0.6,0.1c2.9,0-2.4-0.2,1.2-0.3c0.3,0,0.6,0.1,0.9,0.1h1.7c0.4,0,0.6,0,0.6,0.2h-0.5l2.5-0.1l-1.6,0.4
	c2.2-0.1,3.8-0.5,3.9-0.8h3.8c0.7,0,1.5,0,2.2,0.2l-0.8,0.1h2.2c1.5,0,3,0.1,4.3,0.1s2.6,0.1,3.9,0.1c1.3,0,2.5-0.1,3.8-0.3
	c0.3,0,0.3,0.1-0.4,0.1l3.6-0.1l-0.8,0.3l5.9-0.6l-0.1,0.2c3.9-0.1,10-0.4,15.2-0.8l-0.8,0.1c5.5-0.6,5.3-0.1,9.4-0.6
	c-0.1,0.1-0.3,0.1-0.4,0.1l3.6-0.3l-0.8,0.2c1.4-0.2,2.8-0.3,4.3-0.3h1.8c1.5-0.2,3.1-0.6,4.6-1c1.1-0.1,1.7-0.2,2-0.2
	s0.3,0,0.3,0.1s0.1,0.1,0.6,0.1h0.6c2.9-0.3,3.4-0.7,7.3-1v0.2c1.8-0.3,2.9-0.6,5.5-1l-0.7,0.2c4-1,5.2-0.3,8.3-1.7
	c1.4-0.2,3.8-0.7,4.6-0.7c0.2,0,0.3,0,0.3,0.1c2.5-0.6,4.8-1.3,7-1.9l6.9-2.1c0.1,0.1,0.3,0.1,0.5,0.1c0.6,0,1.2-0.5,3.8-1l-0.3-0.2
	l5.4-1.7l2.8-0.9l2.9-1c4-1.3,7.8-2.9,11.5-4.8l0.4,0.2l1.3-1.1c4.4-2.2,8.5-4.9,12.4-8c1.9-1.5,3.7-3.2,5.4-5c1.4-1.6,2.8-3.2,4-5
	l1-1.8l1.2-2.3c0.4-0.8,0.7-1.7,1.2-2.5s0.7-1.8,1.1-2.8l-0.1,0.4c2.3-7,2.8-14.5,1.2-21.7c0,0.1,0.1,0.1,0.1,0.1l0,0
	c-0.3-0.9-0.6-1.8-0.9-2.7c-0.4-1.1-0.6-2.1-1-2.9c0.2,0.6,0.4,1.3,0.5,1.9c-1-2-2.4-4.9-2.8-6c-0.8-0.9-1.6-1.8-2.5-2.7
	c-0.1-0.2-0.4-0.5-0.3-0.6l0,0l-0.6-0.3c-0.4-0.5-0.7-1.1-1.1-1.7c-0.4-0.2-1.5-1.1-2.8-1.9c-1.1-0.6-2.2-1.1-3.4-1.5
	c-0.2-0.2-1.9-1.1-1.7-1.1c0.3,0.1,0.6,0.2,0.9,0.3c-3.7-1.6-7.5-2.7-11.5-3.4l1.7,0.5c0,0.1-0.1,0.1-0.4,0.1
	c-1.5-0.1-3-0.3-4.5-0.7h0.7c1.2,0-0.5-0.5-1.2-0.9h-0.3c-0.9,0,1.5,0.5,0.7,0.6c-2.3-0.2-4.7-0.5-7-0.9h1.2c-2.6-0.3-3.8-1-6.3-1.3
	c-1.3,0-2.5-0.1-3.1-0.1s-0.7,0.1-0.5,0.3c-3.3-0.2-1.3-0.5-2.3-0.6h-0.6c-2.1,0-4.2-0.3-6.3-0.7c-0.6,0.2-1.3,0.2-1.9,0.2
	c-1,0-2.2-0.1-3.3-0.1s-2.3-0.2-3.1-0.2c-0.5-0.1-0.9,0-1.4,0.2l-2.8-0.4c-0.1,0.2-0.6,0.6-2.9,0.7c-2.1-0.1-1.6-0.5-2.2-0.6
	l-1.4,0.7h-1.5l-0.6-0.1h-0.7c0.1-0.3,0.2-0.5,0.2-0.8l0.1-0.6l0,0v-1.9c0.1-3,0-6-0.4-9c-0.8-5.9-2.4-11.6-4.9-16.9
	c-1.7-3.2-3.7-6.1-6.1-8.8c-2.6-3-5.7-5.5-9.2-7.5l0.8,0.4c-2.3-1.4-4.8-2.5-7.4-3.2c1.9,0.6,3.7,1.3,5.4,2.3
	c-0.7-0.3-1.5-0.6-2.3-0.8l-1.1-0.4l-1.2-0.3c-2.8-0.9-5.8-1.4-8.8-1.3c-1.9,0-3.7,0.2-5.6,0.5c-5.1,0.9-10,2.9-14.3,5.8l0,0
	c-1.2,1.1-2.1,1.7-2.8,2.2c-0.5,0.4-1,0.7-1.6,1c-1.5,0.8-2.9,1.9-3.9,3.2c0.3-0.4,0.4-0.6,0.7-1c-2,1.9-3.8,4-5.5,6.2
	c-0.8,1-1.5,1.9-2.3,3c-0.2,0.3-0.4,0.5-0.6,0.8l-0.2,0.2l0,0v0.1c-0.1,0.2-0.1,0.4-0.2,0.5c0-0.2-0.1-0.3-0.2-0.3s-0.1,0.1-0.2,0.2
	s-0.1,0.3-0.2,0.3s0,0,0-0.2v0.6h-0.3c-0.1,0-0.1,0,0-0.4c0,0.2-0.1,0.4-0.2,0.6l-0.2,0.2l0.2-0.7c0-0.3-0.2-0.6-0.2-1.1v-0.5
	c0-0.1,0-0.3,0-0.4c-0.1-0.8-0.2-1.6-0.2-2.4c-1.5-5.4-3.3-10.7-5.3-15.9c-1.2-3-2.5-5.8-4.1-8.6c-1.5-2.7-3.1-5.4-4.9-7.9
	c-1.3-1.2-3.3-3.9-5.2-5.9c-0.6-0.8-1.2-1.6-1.8-2.4c-1-0.9-2.2-1.8-3.3-2.6s-2.2-1.7-3.2-2.5l0,0c0.1,0,0.2,0.1,0.3,0.1
	c-2.1-1.7-4.5-3.1-7-4.2c-2.4-1.3-4.8-2.5-4.7-2.7c-0.3,0-0.7-0.1-1-0.3c-0.6-0.2-1.4-0.5-2.1-0.8s-1.5-0.6-2.1-0.8l-1-0.4l-1-0.3
	l-2.8-0.6l-2.1-0.3c-0.8-0.2-1.6-0.3-2.4-0.3L1227.1,118.6"/>
<path class="st0" d="M1218.8,294.7l-2.6,0.2h1.7C1217.9,294.8,1218,294.7,1218.8,294.7"/>
<path class="st0" d="M1298.5,293.4c-0.4,0-0.6,0.1-0.6,0.1L1298.5,293.4"/>
<path class="st0" d="M1317.6,291.9c-1.4,0.2-0.1,0.2,0.6,0.2C1318.2,292.1,1318.2,292,1317.6,291.9"/>
<path class="st0" d="M1170.3,295.7c-0.4,0-0.5,0.1-0.4,0.1C1170.2,295.9,1170.3,295.8,1170.3,295.7"/>
<path class="st0" d="M1059.1,267.2v0.5C1059.1,267.5,1059.1,267.4,1059.1,267.2"/>
<path class="st0" d="M1060.5,273.9c0.2,0.4,0.3,0.9,0.6,1.3C1060.9,274.8,1060.7,274.3,1060.5,273.9"/>
<path class="st0" d="M1202.3,295.7c-0.5,0-0.9,0-1.3,0.1C1201.4,295.8,1201.8,295.7,1202.3,295.7"/>
<path class="st0" d="M1061.6,276.5c0.2,0.5,0.5,1,0.7,1.5h0.1C1062.1,277.5,1061.8,277,1061.6,276.5"/>
<path class="st0" d="M1058.7,265.1c0.1,0.6,0.3,1.5,0.4,2.1C1059.1,266.5,1059,265.8,1058.7,265.1"/>
<path class="st0" d="M1123.8,295.7l-0.9,0.1h0.2C1123.3,295.8,1123.5,295.8,1123.8,295.7"/>
<polyline class="st0" points="1065.7,282.4 1065.8,282.6 1066.2,282.9 1065.7,282.4 "/>
<path class="st0" d="M1057.8,257.5l-0.1,0.1c0,0.3,0.1,0.6,0.2,0.9C1057.8,258.2,1057.8,257.9,1057.8,257.5"/>
<path class="st0" d="M1096.2,295c-0.5,0.1-0.7,0.2-0.7,0.3h0.3C1096.1,295.3,1096.4,295.2,1096.2,295"/>
<path class="st0" d="M674.2,164.5L674.2,164.5 M673.9,161.6c0,0.1,0,0.1,0,0.2l0,0C673.9,161.7,673.9,161.7,673.9,161.6
	 M673.1,161.4L673.1,161.4 M673.1,160.9v0.1l0,0c0.1,0.1,0.1,0.2,0.1,0.3C673.2,161.2,673.2,161.1,673.1,160.9 M730.4,154.7
	L730.4,154.7L730.4,154.7L730.4,154.7L730.4,154.7 M786,129.8l-0.1,0.1L786,129.8 M674.6,163.7h0.1c0,0,0.1,0,0.1,0v0.2
	C674.8,163.9,674.7,163.8,674.6,163.7 M673.9,161.4l0.1-0.3c0,0.3,0,0.6,0,0.9c0-0.1,0-0.2,0-0.2c-0.2,0.5-0.2,1.1-0.2,1.7l0,0
	c0.1,0,0.1,0,0.1-0.1c0,0,0-0.1,0.1-0.1l0,0c0.1,0.2,0.1,0.4,0.2,0.6v0.3c0,0.2,0.1,0.3,0.1,0.5c0,0.1,0,0.2,0,0.3
	c0-0.2,0-0.3,0-0.5l0,0c-0.3-0.5-0.6-1.1-0.7-1.7c0-0.2,0.1-0.3,0.1-0.5c0-0.2,0.2-0.8,0.3-0.8l0,0v-0.1 M792.8,120.8
	c-2,0-4,0.3-5.9,1c-2.9,1.1-5.3,3-7,5.6c-0.6,0.9-1.3,1.7-2,2.4c-1,2-1.8,4.2-2.7,6.1c-0.4,0.9-0.9,1.7-1.4,2.5
	c-0.5,0.7-1,1.4-1.7,2l0.1-0.1c-1.3,1.1-2.8,1.9-4.5,2.3l-0.3,0.3h-0.1c-0.6,0.1-1.2,0.3-1.8,0.4c-1.1,0.3-2.1,0.4-3.2,0.4h-0.4
	c-1.3,0-2.6-0.3-3.8-0.8c-0.7-0.2-1.4-0.6-2-1.1l-0.6-0.3c-2.1-1.6-4.3-3.1-6.5-4.4c-1.4-0.7-2.9-1.1-4.4-1.2h-0.9
	c-1.2,0-2.5,0.2-3.6,0.6c-0.5,0.4-1.1,0.7-1.6,1.1c-0.4,0.4-0.9,0.7-1.2,1.1c-0.8,0.3-0.8,0.8-1.6,1.4c-2.2,0.7-3,1.8-2.6,1.8
	c0.2,0,0.3-0.1,0.4-0.2c-1.3,1.4-2.5,2.9-3.7,4.1c-0.4,0.6-0.9,1.2-1.3,1.8c-0.2,0.4-0.7,0.6-1.1,0.6c-1,1.1-0.8,0.6-2.1,1.4l0,0
	c-0.2,0.1-0.4,0.2-0.6,0.3c-0.3,0.2-0.6,0.5-1,0.8c-0.5,0.4-1.1,0.8-1.7,1.1l0,0l0.2-0.1c-0.4,0.1-0.8,0.2-1.3,0.2
	c-0.5,0-1-0.1-1.5-0.1c-0.5-0.1-1.1-0.1-1.6-0.1h-0.2c-5.3-0.4-10.5-1.4-15.6-2.8c-0.1,0.4,1.2,0.2,1.1,0.7c-1.5-0.4-3-0.8-4.6-1.2
	c-0.9-0.2-1.8-0.4-2.7-0.5c-0.7-0.1-1.3-0.1-2-0.1H693c-0.6-0.1-1.4-0.2-1.8-0.3l0,0c-1.1,0-0.6,0.2-1.4,0.3l-0.2-0.3
	c-0.4,0.2-0.7,0.2-1.1,0.2h-0.8c-0.3,0-0.7,0.1-1,0.2c0,0.1-0.4,0.3-0.8,0.4c0-0.1-0.1-0.1-0.2-0.1c-0.2,0-0.3,0.1-0.5,0.1
	c-0.2,0.1-0.3,0.1-0.5,0.1c-0.1,0-0.1,0-0.1-0.1c0,0,0,0,0,0l0,0c-0.2,0.1-0.5,0.2-0.7,0.2c-0.2,0.1-1.3,0.9-2.3,1.8l-1.3,1.2
	c-0.4,0.4-0.6,0.7-0.7,0.8l-0.2,0.1c-0.5,0.4-0.6,0.7-0.4,0.7h0.2c-0.2,0.2-0.5,0.3-0.7,0.6v-0.1l-0.7,0.6c-0.1,0-0.1,0-0.2,0
	c-0.1,0-0.2-0.1-0.2-0.2c-0.1,0.2-0.3,0.4-0.5,0.6c-0.2,0.2-0.3,0.4-0.5,0.6c1.1-1,2.5-1.8,3.9-2.3c-0.4,0.4-1.2,0.8-1.7,1.3
	c-0.5,0.2-1,0.5-1.4,0.9c-0.5,0.4-1,1-1.5,1.4c-0.1,0.3,0.1,0.6-0.3,1.1c-0.4,0.2-0.4,0.6-0.7,1.1c0.1-0.6,0.4-1.2,0.8-1.7l0,0
	c-0.3,0-1,1.2-1.2,1.8c-0.3,0.7-0.4,1.5-0.5,2.3c0-0.1-0.1-0.1-0.1-0.1c-0.1,0.2-0.2,0.4-0.2,0.6v-0.2c0,0.1,0,0.1,0,0.2
	c0,0.2-0.1,0.4-0.2,0.6c-0.1,0.4,0,0.8,0.1,0.8l0,0c0.1-0.1,0.1-0.1,0.1-0.2c0,0.2,0.1,0.3,0.1,0.5c0.2,0.6,0.4,1.3,0.7,1.9l0,0
	c0,0,0-0.2,0.1-0.2l0,0c0,0,0,0.1,0.1,0.1c0,0,0,0,0,0h0.1c0,0,0.1,0,0.1-0.2l-0.1-0.2c0-0.5,0.1-0.7,0.2-0.7
	c0.3,0.1,0.5,0.2,0.7,0.4c0.2,0.2,0.5,0.3,0.7,0.3c0.2,0,0.4-0.2,0.3-0.8c-0.1,0.2-0.2,0.3-0.2,0.3c-0.2-0.5-0.3-1.1-0.3-1.6
	c0.3-0.3,0.5-0.7,0.6-1.2c0-0.6-0.1-0.4-0.2-0.5c0.2-0.3,0.4-0.8,0.6-0.8h0.1c-0.1-0.5,0.3-0.6,0.5-1.1v-0.2l0,0v-0.1
	c0.4-0.7,0.8-1.3,1.4-1.8c0.2,0,0.3,0,0.5,0c0.3,0,0.5,0.1,0.4,0.4s-0.2,0.2-0.3,0.2s-0.1-0.1-0.1-0.2s0-0.1-0.1-0.1
	s-0.1,0.1-0.3,0.3l0,0c0.5,0-0.5,0.8-0.3,1.2c0.5-0.3,0.8-0.7,1.1-1.1h-0.1c0.3-0.4,0.9-1.2,1.5-1.3c0,0.2,0.3,0.2,0,0.4l0.5-0.4
	v-0.1h-0.1c0.2-0.2,0.4-0.4,0.7-0.5l0,0c0.5-0.3,1-0.7,1.4-1.2c0.7-0.5,1.3-1,1.4-1l0,0c0.2-0.1,0.3-0.1,0.5-0.1
	c-0.5,0.2-1,0.5-1.5,0.9c-0.5,0.3-1,0.7-1.5,1.1l0,0c0.3-0.1,0.6-0.3,0.8-0.6c0.4-0.3,1-0.7,1.6-1.1c0.6-0.3,1.1-0.6,1.7-0.9
	c0.3-0.1,0.6-0.2,0.9-0.3h0c0.3-0.1,0.8-0.2,0.7-0.4h0.1c0.5,0-0.2,0.4,0.3,0.4c0,0-0.1-0.1,0.1-0.1l0.5,0.1
	c0.9-0.5,2.3-0.3,3.3-0.7c-0.3,0.3-0.7,0.6-1.2,0.8l-0.1-0.1c-0.1,0.1-0.6,0.2-0.5,0.4h0.3c0.5,0,0.9-0.1,1.4-0.3l0.3,0.1V153
	c0.2,0.1,0.2,0.1,0.1,0.2l0,0c0.1,0.1,0.3,0.2,0.5,0.2c0.3,0,0.7-0.1,1-0.1c0.4,0,0.9-0.1,1.3-0.1c0.2,0,0.5,0,0.7,0.1
	c0.3,0,0-0.1,0.4-0.1c1,0.3,1.8,0.7,3,1c0.4-0.1,0.5-0.2,0-0.6l0.9,0.3c-0.9,0.4,1.5,0.9,0.5,1.3c0.4,0.2,0.8,0.4,1.3,0.4
	c0.1-0.2,0.3-0.3,0.5-0.3c0.1,0,0.2,0,0.4,0c0.8,0.4,0.6,0.3,1.3,0.6c0.1,0.2-0.2,0.2-0.2,0.4c1.3,0,0.9,0.7,2,0.9
	c0.5,0.1,1.1,0.2,1.6,0.2c0.3,0,0.5,0,0.5-0.2c0.9,0.2,0.9,0.4,0.8,0.7l0.8,0.2c-2.5-0.5-5-1.1-7.5-1.8c2.7,1.4,5.5,2.4,8.4,3
	c0.9,0.2,1.9,0.3,2.9,0.3c2,0.1,4-0.5,5.7-1.5c0.2,0.4,1.3,0.7,2.5,0.7c0.5,0,0.9,0,1.4-0.1c0.8-0.1,1.6-0.3,2.4-0.6
	c0.6-0.3,1-0.5,1-0.6c0.6-0.4,1.1-0.9,1.7-1.4c0.5-0.4,1-0.9,1.4-1.4c-0.6,0.7-1.3,1.3-2,1.9c0.7-0.6,1.4-1.3,2-1.9l0.1-0.1l0,0
	c2.9-3.1,5-6.3,7.5-8.6c1.1-1.1,2.3-1.9,3.8-2.4c0.5-0.2,1.1-0.2,1.7-0.2c0.6,0,1.3,0.1,1.9,0.3c1.1,0.5,2.2,1.1,3.1,1.8
	c1.3,0.8,3,2,5,3.3c2.1,1.3,4.5,2.3,7,2.8c1.4,0.3,2.7,0.4,4.1,0.4h1.8c0.8-0.1,1.7-0.2,2.5-0.4c-0.9,0.2-1.9,0.3-2.8,0.3
	c3.2-0.7,6.1-2.2,8.7-4.2c-0.6,0.1-1.3,0.2-1.9,0.4c0.5-0.2,0.9-0.4,1.3-0.7c0.4-0.6,1.3-1.3,2-2.2c0.4-0.4,0.8-0.8,1.1-1.3
	c0.3-0.3,0.6-0.7,0.8-1.1c0,0.1,0,0.1,0.1,0.1c0.2,0,0.8-0.7,1.2-1.4l-0.4,0.2c2.2-3.1,3.1-6.9,4.4-9.1c0.1-0.2,0.3-0.4,0.5-0.6
	c0.3-0.7,0.7-1.3,1.2-1.9h0.1c0.2,0,0.4-0.1,0.5-0.2c0.1-0.1,0.3-0.2,0.4-0.2v0.2c0.2-0.3,0.4-0.5,0.7-0.8c0.3-0.2,0.6-0.4,0.9-0.7
	c0.3-0.2,0.7-0.4,1-0.5c0.4-0.1,0.7-0.3,1.1-0.5c0.8-0.2,1.7-0.3,2.5-0.2c2.4,0.1,4.7,0.4,7,1c3.4,0.9,6.9,2,10.5,3l-0.1-0.2
	c2.5,0.6,4.9,0.7,7.9,1.6c1.3,0,2.5-0.1,3.8-0.2c0.5-0.1,1.1-0.2,1.6-0.4c0.3-0.1,0.7-0.3,0.9-0.6c0.5-0.1,1-0.3,1.5-0.5
	c0.4-0.2,0.7-0.4,1-0.6l0.9-0.8c0.3-0.3,0.6-0.6,0.9-1l0,0c-0.2,0,0-0.4,0.2-0.8s0.3-0.6,0.2-0.6c-0.1,0-0.2,0.1-0.3,0.2
	c-1.3,0.5-1,0.9-2.1,1.1l0.1,0.1c-1,0.5-2.2,0.7-3.3,0.7c-1.4,0-2.7-0.2-4.1-0.6c-3-0.9-5.9-1.9-8.8-3.2c-4.3-1.2-8.8-3.4-14-4.2
	C794.9,120.9,793.8,120.8,792.8,120.8"/>
<path class="st0" d="M732.1,184.7v0.1l0,0C732.1,184.8,732.1,184.8,732.1,184.7 M731.6,184.2c0,0.1-0.1,0.1-0.1,0.2l0,0L731.6,184.2
	 M731.8,183.9L731.8,183.9c-0.2,0.2-0.1,0.2-0.1,0.3C731.8,184,731.8,183.9,731.8,183.9 M844.1,157l-0.1,0.2L844.1,157 M731.5,186.6
	v-0.3c0.1,0,0.1,0.1,0.1,0.2C731.6,186.6,731.6,186.6,731.5,186.6 M732.2,184.6l0.2-0.1c-0.1,0.2-0.2,0.4-0.4,0.5v-0.2
	c-0.2,0-0.7,0.5-0.9,0.8c0,0,0.1,0,0.2,0h0.1c-0.1,0.1-0.2,0.3-0.3,0.4l-0.1,0.1h-0.1c-0.1,0.1-0.1,0.2-0.2,0.3
	c-0.1,0-0.1,0.1-0.2,0.1l0.3-0.3l0,0c-0.1,0,0.2-0.6,0.5-1.3l0,0c0.1,0,0.2-0.1,0.3-0.2c0.1-0.1,0.3-0.2,0.5-0.2l0,0v-0.1
	 M866.9,137.8c-1.8,0-3.5,0.1-5.2,0.4c-4.9,1-9.6,2.9-13.8,5.6c-0.6,0.4-1.1,0.8-1.6,1.3c-0.5,0.4-1.1,0.8-1.6,1.3
	c-1,0.9-2,1.9-2.9,2.9c-1.5,1.8-2.8,3.7-4.1,5.8c-0.5,0.6-1.1,1.1-1.8,1.4c-1.3,1.7-3.3,2.7-5.4,2.7c-1,0-1.9-0.2-2.8-0.4l0.2,0.1
	c-1.9-0.5-3.1-1.6-5.2-2.5h-0.1c-0.1,0-0.3-0.1-0.4-0.1c-0.6-0.5-1.3-0.8-2.1-1c-1.6-0.6-3.3-1-5-1.3c-0.8-0.1-1.7-0.2-2.5-0.2
	c-1,0-2.1,0.1-3.1,0.3c-1.5,0.3-2.5,0.7-2.8,0.7l0,0c-0.3,0.1-0.5,0.2-0.8,0.3c-4.7,1.6-9,4.4-12.4,8c-0.4,0.8-0.9,1.7-1.2,2.4
	c-0.7,0.4-0.4,0.8-1,1.4c-1.9,0.7-2.5,1.6-2.1,1.6c0.1,0,0.3-0.1,0.4-0.1c-1.1,1.2-2.2,2.4-3.5,3.4c-0.5,0.5-0.9,1-1.4,1.4
	c-0.2,0.2-0.5,0.4-0.9,0.4h-0.3c-0.3,0.3-0.6,0.5-1,0.6c-0.4,0.1-0.8,0.2-1.2,0.3l0,0c-0.6,0.2-1.1,0.4-1.6,0.8
	c-0.4,0.2-0.7,0.4-1.1,0.5c-0.2,0.1-0.4,0.1-0.6,0.2l0,0c-1.5,0-2.3-0.8-3.8-1.2c-2.1-0.7-4.6-1.8-7.5-2.7c-1.5-0.5-3-0.8-4.6-1
	c-0.8-0.1-1.5-0.2-2.3-0.2h-2.2c0,0.1,0.1,0.1,0.3,0.1h0.6c0.2,0,0.4,0,0.5,0.2h-0.5c-3.2-0.1-6.4,0.4-9.5,1.5
	c-0.5,0.1-1.1,0.2-1.6,0.2l0,0c-1,0.3-0.5,0.4-1.2,0.7l-0.2-0.3c-0.9,0.8-1.7,0.4-2.5,1.1c0,0.1-0.3,0.4-0.6,0.5c0,0-0.1,0-0.1,0
	c-0.2,0-0.3,0.1-0.5,0.2c-0.1,0.1-0.3,0.2-0.4,0.2c0,0-0.1,0-0.1,0l0,0c-0.2,0.1-0.4,0.2-0.6,0.3c-1.1,1.2-2.1,2.5-3.1,3.8h-0.2
	c-0.4,0.3-0.5,0.6-0.3,0.6h0.1l-0.6,0.4v-0.1l-0.6,0.4h-0.1c-0.1,0-0.2,0-0.2-0.2c-0.2,0.4-0.5,0.6-0.9,0.9c1.1-0.6,2.2-1.1,3.4-1.5
	c-0.3,0.4-1.1,0.7-1.5,1.1c-0.9,0.3-1.7,0.8-2.5,1.3c-0.2,0.1,0,0.6-0.5,0.7h-0.1c-0.3,0-0.4,0.4-0.8,0.5c0.3-0.4,0.6-0.7,1-0.9
	c0,0-0.1,0-0.1,0c-0.3,0-0.9,0.6-1.3,0.8c0,0.2-0.8,0.7-1.2,1.1c0-0.1,0-0.1-0.1-0.1c-0.1,0-0.3,0.1-0.4,0.2l0,0
	c-0.1,0.1-0.2,0.1-0.4,0.2c-0.3,0.2-0.4,0.5-0.2,0.5l0,0c0,0,0.1,0,0.1,0h0.1c-0.3,0.5-0.6,1.1-0.9,1.6h0.2c0,0,0,0.1,0,0.1
	c0,0,0,0.1,0.1,0.1h0.1v-0.2c0.1-0.1,0.2-0.2,0.4-0.2c0.3,0,0.3,0.4,0.4,0.8s0.1,0.8,0.4,0.8c0.2,0,0.4-0.1,0.5-0.2h-0.3
	c-0.4,0,0.2-0.6,0.8-1.1h0.1c0.4,0,0.7-0.2,1-0.4c0.4-0.4,0.1-0.3,0.1-0.5c0.2-0.1,0.5-0.2,0.7-0.3c0,0,0.1,0,0.1,0.1
	c0.1-0.5,0.6-0.3,0.9-0.7s-0.1-0.1,0.1-0.4c0.5-0.4,1.1-0.9,1.7-1.2c0.3,0,1-0.1,0.8,0.5c-0.1,0.1-0.2,0.1-0.3,0.2
	c-0.1,0-0.1-0.1-0.1-0.2v-0.2c-0.1,0-0.2,0.1-0.3,0.2c0.7,0.1-0.6,0.7-0.5,1.1c0.5-0.2,0.9-0.5,1.3-0.9h-0.1c0.4-0.5,1-0.9,1.6-1.2
	c0,0.2,0.3,0.2,0,0.4l0.5-0.4v-0.1h-0.1c0.2-0.3,0.4-0.4,0.7-0.5l0,0c0.5-0.4,0.9-0.8,1.3-1.2c0.4-0.5,0.8-0.9,1.2-1.3l0,0
	c0.1-0.1,0.3-0.2,0.5-0.2c-0.3,0.3-0.8,0.7-1.3,1.1c-0.7,0.7-1.2,1.3-1.2,1.3l0,0c0.8-0.6,1.5-1.2,2.2-1.9c0.7-0.7,1.4-1.2,2.3-1.7
	l0,0c0.3-0.2,0.7-0.4,0.5-0.6h0.2c0.1,0,0.1,0.1,0.1,0.2s0,0.2,0.2,0.2l0,0c0,0-0.1,0,0-0.1h0.5c0.4-0.3,0.9-0.6,1.4-0.8
	c0.5-0.2,1-0.5,1.4-0.8c-0.2,0.4-0.5,0.8-0.8,1.1h-0.1c0,0.1-0.5,0.3-0.4,0.5c0.6-0.1,1.1-0.4,1.5-0.8h0.4v-0.1c0.2,0,0.2,0,0.2,0.1
	l0,0c0.1,0,0.1,0,0.2,0c0.5-0.1,0.9-0.3,1.3-0.6c0.5-0.3,1-0.5,1.5-0.6l0,0c0.3-0.1,0-0.1,0.3-0.3h2.9c0.3-0.2,0.3-0.3-0.1-0.6h0.8
	c-0.7,0.6,1.5,0.5,0.7,1.1c0.2,0.1,0.5,0.1,0.7,0.1c0.1,0,0.3,0,0.4,0c0-0.1,0.1-0.4,0.6-0.4l0,0c0.4,0.1,0.8,0.3,1.2,0.5
	c0.1,0.2-0.1,0.3-0.1,0.4h0.2c0.7,0,0.6,0.6,1.4,0.7c0.5,0.1,1,0.2,1.5,0.2c0.2,0,0.3,0,0.4-0.1c0.8,0.3,0.7,0.5,0.5,0.8l0.6,0.3
	c-1-0.4-2.1-0.7-3-1c-0.5-0.1-1-0.3-1.5-0.4c-0.5-0.1-1-0.2-1.5-0.3c1.1,0.4,2.1,0.8,3.1,1.3c1,0.5,2.2,1.1,3.4,1.6
	c1.3,0.5,2.6,0.9,4,1.1c0.5,0.1,0.9,0.1,1.4,0.1c1,0,1.9-0.1,2.8-0.5c0.2,0.7,1.9,1.4,3.7,1.5h0.5c1,0.1,2.1-0.1,3-0.5
	c1.2-0.6,2.4-1.3,3.5-2.1c-0.8,0.5-1.6,1-2.4,1.5c0.8-0.4,1.6-0.9,2.4-1.5c3.1-2.4,6-5,8.7-7.9c2.5-2.7,5.2-5.2,8-7.5
	c1.5-1.3,4.3-3.3,7-3.8c0.5-0.1,1-0.1,1.5-0.1c0.8,0,1.6,0.1,2.3,0.3c1.1,0.3,2.2,0.7,3.2,1.2l1.5,0.8c-0.8-0.5-0.8-0.5-1.7-1
	c2.3,0.6,4.6,1.4,7.1,2.2c-0.4-0.5-0.8-0.9-1.2-1.2c0.4,0.2,0.7,0.4,1.1,0.6h0.1c0.8,0.1,1.7,0.2,2.5,0.4c0.9,0.2,1.8,0.3,2.7,0.4
	h0.1c-0.3,0.2,0.8,0.5,1.8,0.5l-0.4-0.2h0.8c1.8,0,3.6-0.4,5.2-1.3c1.7-0.8,3.3-1.9,4.6-3.3c0.2-0.2,0.5-0.4,0.8-0.6
	c0.6-0.8,1.1-1.6,1.6-2.3c0,0,0.1,0,0.1,0c0.1,0,0.4-0.2,0.6-0.4c0.1-0.2,0.3-0.3,0.5-0.4v0.2c0.4-0.8,0.9-1.6,1.5-2.2
	c0.6-0.7,1.1-1.4,1.6-2.1c4.8-4.5,10.7-7.6,17.1-9l-0.2-0.1c1.8-0.6,3.7-1,5.6-1.1c0.6,0,1.2,0.1,1.7,0.1c0.5-0.1,1.1-0.1,1.7-0.2
	h1.8c0.9,0,1.8,0,2.7-0.3c0.6,0.1,1.2,0.2,1.6,0.4l1.4,0.3l1.4,0.3c0.5,0.2,1,0.3,1.6,0.6c-0.1-0.1,0-0.2,0.1-0.2
	c0.3,0,0.5,0.1,0.8,0.2c0.2,0.1,0.5,0.1,0.7,0.2c0.1,0,0.1-0.1-0.1-0.3c-1.2-1.2-1.6-0.9-2.8-1.9v0.2
	C877.6,139.1,872.3,137.9,866.9,137.8"/>
<path class="st1" d="M71.3,508.1L71.3,508.1 M72,507.7l0.3,0.1v-0.1L72,507.7 M71.9,507.6L71.9,507.6l0.2,0.1L71.9,507.6
	 M108.9,487.9L108.9,487.9 M69.7,507.9L69.7,507.9c-0.1-0.1,0-0.1,0-0.1h0.1C69.8,507.8,69.7,507.9,69.7,507.9 M69.6,507
	c0-0.1-0.1-0.1-0.1-0.2l0.2,0.2l0,0c0.4,0.1,0.8,0.2,1.2,0.4c0.1,0.3,0.5,0.7,0.3,0.8h0.1l0.1,0.2c-0.2-0.1-0.3-0.2-0.5-0.3h0.2
	c0-0.2-0.5-0.6-0.7-0.8c-0.1,0.1,0,0.2-0.1,0.2c-0.1-0.1-0.2-0.1-0.4-0.2l-0.1-0.1v-0.1L69.6,507 M124.4,487.7l0.3,0.2h-2
	c-1.6,0-3.2,0-4.8,0.1c-0.5,0-1.1,0-1.6,0.1l-1.1,0.1l-2.1,0.1H113c-0.2,0-0.5,0-0.7-0.2l-2.5,0.4c0.2-0.4-1.8-0.2-1.1-0.5
	c-1.7,0.5-3.6,0.5-5.2,1.1c-6.5,0.8-12.8,2.2-19,4.3l0.2,0.1c-2.2,0.8-3.9,2-6.6,2.5c-1.7,1-4.3,2.1-4.8,3.1
	c-1.6,0.7-3.2,1.5-4.8,2.4c0.6,0.2-1.7,1.1-0.8,1.1h0.3c0.4,0,0.9-0.1,1.3-0.2c0.4-0.1,0.8-0.2,1.2-0.2h0.1l-0.1-0.1
	c5.6-1.3,11.1-2.5,16.8-3.6c3.9-1,7.8-1.8,11.7-2.4c4.2-0.8,8.8-1.5,12.6-2.1h0.6c0.6,0,1.2,0.2,1.7,0.3c0.8-0.1,1.6-0.1,2.4-0.2
	l1.3-0.1c0.6,0,1.2,0,1.8-0.1v0.3c-0.1,0.4-0.3,0.7-0.5,1c-0.2,0.2-0.4,0.5-0.5,0.8l0.1,0.2l0,0c-0.3,0.5-0.6,1.1-0.7,1.7
	c-0.3,1.1-0.8,2.5-1.2,4c-0.5,2.1-1.2,4.1-2.1,6.1c-0.1,0.2-0.1,0.4-0.2,0.6c-1.9,3.8-4.7,7.4-6.2,10.7c-0.1,0.8-0.3,1.7-0.3,2.5
	c-0.5,0.5-0.1,0.8-0.5,1.5c-1.4,1-1.8,2-1.5,2c0.1,0,0.3-0.1,0.4-0.2c-0.6,1.5-1.4,2.9-2,4.2c-0.2,0.6-0.5,1.3-0.7,1.9
	c-0.1,0.4-0.4,0.8-0.8,0.9c-0.1,0.2-0.1,0.4-0.2,0.5L102,533c-0.2,0.1-0.4,0.3-0.5,0.5l0,0c-0.2,0-0.3,0.5-0.3,1
	c0,0.4-0.1,0.9-0.3,1.3v-0.2c0,0.1,0,0.1-0.1,0.1s-0.2-0.2-0.3-0.4c-0.1-0.2-0.3-0.4-0.4-0.6c-0.1-0.3-0.3-0.6-0.5-0.9
	c-0.1-0.2-0.3-0.3-0.4-0.4l-1.3-1.3l-2.9-2.5c-1.9-1.6-3.8-3.1-5.4-4.7c-0.3,0.3,0.8,0.6,0.5,1c-1.9-1.8-3.6-3.9-5.5-5.8
	c-0.3-0.4-0.5-0.8-0.7-1.2c-0.5-0.7-0.5-0.2-0.9-0.7l0.2-0.3c-0.9-0.4-0.7-1.2-1.4-1.7l0,0c-0.1,0-0.3-0.2-0.5-0.4
	c0.2-0.3-0.7-0.6-0.4-0.8l0,0c-0.1-0.1-0.3-0.2-0.3-0.4c-0.3-0.1-3.4-1.7-3.8-1.8l-0.1-0.2c-0.1-0.1-0.3-0.2-0.5-0.2
	c-0.1,0-0.2,0.1-0.1,0.2l-0.4-0.4l0,0l-0.4-0.4c-0.1-0.1,0-0.2,0.1-0.3c0,0,0,0,0,0c0,0,0.1,0,0.1,0l0,0c-0.3-0.1-0.6-0.3-0.8-0.6
	c0.6,0.9,1.1,1.9,1.6,2.8c-0.4-0.2-0.8-0.8-1.1-1.1c-0.3-0.8-0.8-1.5-1.2-2.2c-0.1-0.1-0.5,0.1-0.7-0.3c0-0.4-0.3-0.3-0.4-0.7
	c0.3,0.2,0.7,0.5,0.9,0.8c0.2-0.3-0.5-0.9-0.7-1.1c-0.2,0-0.7-0.7-1.1-1c0.2,0,0.1-0.2,0-0.4l-0.1-0.1l0.1,0.1
	c-0.1-0.1-0.1-0.2-0.2-0.3c-0.1-0.1-0.2-0.2-0.4-0.2c-0.1,0-0.1,0-0.1,0.1s-0.1,0.1,0,0.2l-0.3-0.1c-0.4-0.2-0.8-0.4-1.3-0.5l0,0
	v0.2l0,0c0,0,0,0-0.1,0c-0.1,0-0.2,0-0.1,0.2h0.2c1,1.1-2.3,0.4-1.2,1.7c-0.1-0.3,0-0.4,0-0.4s0.6,0.4,1,0.8c0,0.4,0.1,0.7,0.3,1
	c0.2,0.1,0.2,0.2,0.3,0.2s0.1-0.1,0.2-0.1c0.1,0.3,0.4,0.7,0.2,0.8c0.4,0.1,0.3,0.5,0.7,0.8c0.1,0,0.1,0.1,0.2,0.1h0.1
	c0.4,0.4,1,1.1,1.3,1.4c0,0.3,0.1,0.9-0.3,0.9l0,0c-0.6-0.7,0.6-0.1-0.1-0.7c0,0.1,0,0.2-0.1,0.2s-0.2-0.1-0.4-0.3
	c-0.1-0.1-0.3-0.2-0.5-0.3h-0.1c0.2,0.5,0.5,0.8,0.9,1.1V514c0.5,0.3,1,0.8,1.3,1.4c-0.1,0-0.2,0.2-0.2,0.2c-0.1,0-0.1,0-0.2-0.1
	l0.4,0.5h0.1c0,0,0.1,0,0-0.1c0.3,0.1,0.5,0.3,0.5,0.6c-0.1,0.2,2.9,1.7,2.7,1.8c0.1,0.1,0.2,0.3,0.3,0.4c-0.8-0.6-2.6-1.8-2.7-1.8
	l0,0c0.1,0.4,4.2,2.8,4.2,3.3c0.1,0.2,0.3,0.3,0.5,0.3c0,0,0.1,0,0.1,0c0.4,0.4-0.3,0.1-0.2,0.5h0l0.1,0.4c0.8,0.4,1.5,1.5,2.4,1.8
	c-0.5,0-0.9-0.1-1.3-0.2v-0.1c-0.1,0-0.3-0.2-0.5-0.2c0,0-0.1,0-0.1,0c0.3,0.4,0.7,0.8,1.2,1l0.1,0.3l0,0c0.1,0.2,0,0.2,0,0.2l0,0
	c-0.1,0.6,1.8,1.3,2.4,2.1c0,0,0.1,0,0.2,0l0,0c0.1,0,0.1,0,0.2,0.1c0.6,0.8,1.1,1.5,1.8,2.2h0.2c0.2,0,0.2-0.1,0.1-0.5l0.6,0.6l0,0
	c-0.4,0-0.2,0.3-0.1,0.7s0.4,0.7,0,0.7h-0.1c0.2,0.4,0.5,0.6,0.8,0.8c0.1-0.1,0.2-0.1,0.3-0.1c0.2,0,0.4,0.1,0.5,0.2
	c0.5,0.7,0.4,0.5,0.8,1.1c0,0.2-0.3,0.2-0.3,0.3c0.9,0.5,0.4,0.9,1.2,1.5c0.4,0.3,1.2,0.9,1.5,0.9h0.1c0.6,0.5,0.4,0.7,0.2,0.9
	l0.5,0.5c-1.7-1.4-3.3-2.9-4.9-4.4c1.5,2.1,3.1,4.1,5,5.8c0.5,0.4,0.9,0.8,1.4,1.2l0.8,0.5l0.2,0.1l0.3,0.2l0.7,0.4
	c1.4,1,2.9,1.6,4.5,2c0.3,0.8,0.7,1.5,1.3,2.1c0.4,0.5,0.8,0.9,1.3,1.4l0.7,0.7c0,0.1,0.1,0.1,0.1,0.1s0.1-0.1,0.2-0.2l0.2-0.3
	c0.9-1.2,1.7-2.5,2.3-3.9c0.3-0.9,0.7-1.7,1-2.6l0.9-2.3l-1.3,3.2l1.3-3.2l0.4-0.9c0.1-0.3,0.2-0.5,0.3-0.8l0.4-1.1
	c0.3-0.8,0.6-1.5,0.9-2.3c0.7-1.5,1.4-3,2.2-4.5c1.5-3,3.3-6.1,5-9.2c1.9-3.4,6.4-13.2,8.2-16.8l0.8-1.6l-0.9,1.7
	c0.3-1.7,1.8-6.6,2.8-9.8c-0.6,0.7-1.1,1.5-1.6,2.3l0.8-1.7c0.1-1.5,0.5-3,1-4.4c-0.6,0-1.3,0.1-1.9,0.1c0.7-0.3-0.5-0.4-1.7-0.4"/>
<path class="st0" d="M798.6,629.6c0.1,0.2,0.3,0.3,0.4,0.5L798.6,629.6"/>
<path class="st0" d="M821.9,617.7h-6.5c-1,2.8-2,5.6-2.9,8.4l-5.2,14.8l-0.1,0.2l-0.2-0.2l-0.3-0.4c-0.2-0.2-0.3-0.5-0.5-0.7
	l-0.8-0.8l-0.4-0.5l-0.2-0.2l-0.3-0.4c-1.2-1.4-2.4-2.8-3.6-4.3l0,0c-0.4-0.8-0.9-1.6-1.4-2.4c-0.5-0.8-1-1.5-1.5-2.4
	c0.2,0.2,0.4,0.4,0.6,0.7c-2.4-3.1-4.6-6.4-6.5-9.9c-0.4-0.7-0.8-1.4-1.1-2h-7.2c4.4,8.6,9.8,16.6,16.1,23.9
	c0.3,0.3,0.9,1.1,1.5,1.6l1.5,1.7l2.9,3.3l2.9,3.3l0.8,0.8c0,0.1,0,0.1,0.1,0.1c0.1-0.1,0.1-0.2,0.2-0.3l0.2-0.5l0.8-1.9l10.4-29.6
	C821.3,619.3,821.6,618.5,821.9,617.7"/>
<path class="st0" d="M749,519.6c-0.3,0.3-0.5,0.6-0.7,1c-1.8,2.9-2.6,4.4-3.5,5.9c-0.9,1.8-2,3.5-3.2,5.1l0.2-0.1
	c-5.2,8.1-11.3,15.7-18.1,22.5c-3.4,3.5-6.9,6.7-10.7,9.8c-1.4,1.2-3.3,2.7-5.2,4l-2.7,2l-1.4,1l-1.5,1l-11.9,8.2
	c0.3,0,0.6,0,0.9,0.1h3.8l5-0.1l10-0.3l15.3-0.4c9.2-0.5,18.8-0.8,28.5-1.1l7.3-0.2h1.6c1.5,0,3.1,0.1,4.6,0.5
	c1.5,0.4,2.9,1.3,3.7,2.7c1,1.7,1.7,3.5,2.1,5.4c0.5,2.3,1.1,5,1.8,7.6c0.4,1.2,0.7,2.6,1.1,3.9l1.2,3.9c1.7,5.1,3.8,10.1,6.2,15
	l0.5,1h7.2c-1.6-2.9-3.1-5.9-4.5-8.8c-2.9-6.7-5.1-13.7-6.7-20.8c-0.4-1.8-0.8-3.8-1.4-5.7c-0.6-2.1-1.6-4.1-2.8-5.8
	c-1.4-1.9-3.4-3.3-5.6-4.1c-2-0.7-4.1-1-6.3-0.9h-0.4c-1.9,0-3.7,0.1-5.5,0.2l-5.7,0.2l-11.4,0.5l-22.5,1.2c0.2,0,0.4,0.1,0.5,0.1
	l-6.3,0.5l-3.5,0.3L707,575l-1,0.1h-0.3l0.3-0.2l2.3-1.7l2.6-2c0.9-0.7,1.8-1.5,2.8-2.2s1.9-1.6,3.1-2.5c3.3-3.2,7.2-7.2,10.3-10.9
	c2.4-2.7,4.5-5.7,6.4-8.8c2.6-3.3,5-6.7,7.1-10.3c1.9-3.1,3.7-6.3,6-10.8c-0.1,0.2-0.2,0.3-0.3,0.3s0-0.3,0.2-0.7
	c0.3-0.7,0.8-1.7,1.3-2.7c0.4-0.8,0.8-1.6,1-2.5 M748.8,509.7L748.8,509.7 M747.3,500.9l0.1,0.6v-0.2
	C747.4,501.2,747.4,501,747.3,500.9 M746.6,500.6c0,0.4,0.1,0.8,0.2,1.2l0,0C746.7,501.3,746.6,500.9,746.6,500.6 M746.3,499.6
	c0,0.1,0,0.3,0,0.4l0,0c0.1,0.2,0.2,0.4,0.2,0.7C746.4,500,746.3,499.6,746.3,499.6 M748.9,507.5c0-0.1,0-0.1,0.1-0.1
	s0.1,0.1,0.2,0.2c0.1,0.4,0.1,0.6,0,0.6C749,507.9,748.9,507.7,748.9,507.5 M747.1,500.6v-1c0.1,0.6,0.3,1.6,0.4,2.7
	c0-0.2-0.1-0.5-0.2-0.7c0.1,1.7,0.3,3.4,0.6,5.1c0.1,0,0.1-0.5,0.2-0.5l0,0c0.1,0.5,0.2,1.2,0.4,1.9c0,0.2,0.1,0.4,0.1,0.6v0.4
	c0.1,0.5,0.2,1,0.3,1.5c0,0.3,0,0.6,0,0.9c-0.1-0.5-0.2-1-0.2-1.6v0.2c-0.1,0-0.7-2.6-1.2-5.2c0-0.5,0-1.1-0.1-1.6
	c-0.1-0.8-0.1-1.5-0.1-2.3l0,0L747.1,500.6 M878.4,474.7L878.4,474.7 M878.4,474.3L878.4,474.3 M745.3,433.6L745.3,433.6v0.8l0,0
	c-0.3,1.3-0.4,2.7-0.4,4c0,1.3-0.1,2.5-0.3,3.8l0,0v0.1c-0.1,1.6-0.1,2.8-0.3,4.8v4.8c0,1.7,0.2,3.9,0.2,6.1
	c0.2,4.3,0.6,8.7,0.7,9.5v0.8c-0.1,0.9,0,1.7,0.3,2.5c0.1-0.2,0.1-0.4,0.1-0.6v2.5l0.1,2.9c0,0.3-0.1,0.7-0.2,0.7s-0.1-0.1-0.2-0.4
	c0.2,1.7,0.3,3.3,0.4,5c0-4.5,0.1-10.1,0.5-14.8c0.1,1.9,0,5.4,0.1,7.5c-0.2,2.5-0.2,7.7-0.1,11.7c0.3,1.1,0.5,2.3,0.5,3.5
	c0,1.3,0,2.6,0.1,3.9c-0.3-1.9-0.5-3.8-0.5-5.7c-0.3,0.4,0.1,4.7,0.2,6.3c0.2,0.7,0.4,4.4,0.8,6.8c-0.1-0.1-0.1-0.2-0.1-0.2
	c-0.1,0.6-0.1,1.2,0,1.8c0,0.2,0.1,0.5,0.1,0.7c0-0.2-0.1-0.5-0.1-0.7c0,0.6,0.1,1.2,0.1,1.7c0,0.7,0.1,1.4,0.4,2.1v-0.2l0,0
	c0-0.2,0-0.4,0-0.6c0.1,0.5,0.2,0.9,0.3,1.4c0.6,2.9,1.2,5.8,1.2,5.8c0,0,0-0.1,0-0.1v-0.5l0,0c0,0.2,0.1,0.3,0.1,0.3l0,0
	c0,0.1,0,0.1,0.1,0.2c0,0,0-0.1,0-0.5l-0.2-0.6c-0.2-1.6-0.2-2.1,0-2.1s0.5,0.7,0.9,1.3s0.7,1.4,0.9,1.4s0.2-0.7,0-2.7
	c0,0.9,0,1.3-0.1,1.3c-0.5-1.9-0.8-3.9-1-5.9c0.1-1.5,0.1-3.1-0.1-4.6c-0.3-2.2-0.3-1.2-0.4-1.7c-0.1-1.1-0.1-2.3,0-3.4l0,0
	c-0.4-1.7-0.1-2.8-0.3-4.9c0-0.3-0.1-0.6-0.2-0.8c0,0,0,0,0,0.1v0.1c-0.1-0.2-0.1-0.3-0.1-0.5c-0.2-2.8-0.4-6.7-0.4-8.9
	c0.1-0.6,0.3-2.3,0.5-2.3s0.2,0.2,0.3,0.7v1.6c-0.1-0.1-0.1-0.2-0.2-0.3c0-0.1-0.1-0.3-0.1-0.3c-0.1,0.6-0.1,1.2,0,1.8
	c0.1-0.3,0.1-0.4,0.1-0.4c0.2,0,0.3,4.4,0.6,5c0.1-2.2,0-4.4-0.2-6.6v0.5c-0.3-2.8-0.3-5.7-0.2-8.5c0,0.1,0.1,0.2,0.1,0.2h0.1
	c0,0,0.1,0.1,0.2,0.9v-2.9c0-0.1,0-0.3-0.1-0.4v0.5c-0.1-1.3-0.1-2.5,0-3.8c0.1-0.1-0.1-4-0.2-7.7s-0.2-7.1-0.1-7.1l0,0
	c0-0.7,0.1-1.4,0.2-2.1v7c0,4,0.2,7.8,0.2,7.8v-0.2c0.1-0.9-0.1-6.8,0-12.6c0-2.6,0-5.5,0.2-7.7v-0.4l0.3,0.2l0.6,0.3l1,0.6
	c0.4,0.2,0.8,0.5,1.1,0.8c0.8,0.5,1.6,1,2.5,1.4v-0.1c0.8,0.6,0.9,0.7,0.8,0.7h-0.4c-0.1,0-0.1,0.1,0.3,0.4l0,0c0,0,0.1,0,0.3,0.2
	l1.3,1.1c3.5,2,8.2,5.6,11.7,7.9c-1.6-0.8-3.2-1.6-4.7-2.6l-0.3-0.4c-0.7-0.5-1.5-0.9-2.2-1.2l0,0c2,1.6,3.8,2.8,6.1,4.3
	c0.4,0.3,0.8,0.7,1.1,1v-0.1c0.4,0.4,0.5,0.5,0.5,0.5c-0.1,0-0.2,0-0.2-0.1l-0.2-0.1c1,1.3,8.1,6,11.4,9.3c1.1,0.9,0.2,0,1.5,1.1
	c3.4,3.4,5.7,5.8,9.1,9.4c0.3,0.3,0.6,0.5,1,0.7c0.1,0-0.1-0.4-0.8-1.2c0.9,0.9,1.8,1.9,2.7,2.8c-0.2-0.2-0.4-0.3-0.7-0.3
	c-0.3,0,0.7,1,1.7,2s2.2,1.8,1.9,1.8c-0.3-0.1-0.6-0.2-0.9-0.3c1.8,1.4,3.9,2.3,6.1,2.5c0.3-0.1,0.6-0.2,0.9-0.2c1,0,2-0.1,3-0.2
	c1.2-0.1,2.3-0.3,3.5-0.5c0.7-0.1,1.2-0.3,2.8-0.7h0.1c0.5,0-0.4,0.4-0.2,0.5c4.5-1.8,4.1-1,8.3-2.5c2.6-1,7.9-2.9,7.9-3.2
	c1.1-0.4,2.2-0.7,3.3-0.9c0.3,0,0.2,0.1,0.1,0.3l2.9-1l-14.4,5l-7.4,2.5c-2.8,1-5.7,1.6-8.6,1.8h0.4c3.1-0.1,6.2-0.7,9.1-1.7
	l8.5-2.5c5.7-1.8,11.3-3.6,16.9-5.5c9.9-3.2,19.6-7.2,29-11.8c0.1,0,0.3,0,0.4,0c1.4-0.1,2.8-0.4,4.1-0.7c1.1-0.3,2.4-0.6,3.8-1
	l1.9-0.5h0.4c0.1,0,0.2,0,0.3,0.1v3c0,1.1-0.1,2.2-0.2,3.3s-0.2,2.2-0.3,3.3s-0.2,2-0.3,2.9v0.4c-0.9,7.2-2.4,14.4-4.6,21.4
	c-1.1,3.5-2.4,7.1-3.8,10.6c-0.7,1.8-1.5,3.5-2.3,5.2c-0.8,1.7-1.7,3.6-2.5,5.6c-0.9,2.1-1.4,4.4-1.6,6.7c-0.2,2.6,0.3,5.1,1.3,7.5
	c1,2.1,2.3,4,3.8,5.8c1.3,1.5,2.7,3.1,4,4.6l15.9,18.6l12.2,14.1l3.4,3.9l0.6,0.7h-0.1l-0.2,0.1l-0.2,0.1l-0.5,0.1l-0.4,0.1h-0.7
	l-2.8,0.5c-1.8,0.2-3.6,0.3-5.5,0.3c-5.9-0.1-11.8-0.9-17.5-2.2c-7.2-1.6-13.7-3.2-18.5-4.2c-1.3-0.3-2.7-0.6-4.1-0.8
	s-2.8-0.5-4.2-0.7c2.4,0.3,3.5,0.6,4.7,0.8s2.3,0.5,4.6,1c-5.6-1-11.3-1.6-17.1-1.7h-0.4c-1.4,0-2.8,0.1-4.2,0.3
	c-1.8,0.3-3.4,0.8-5,1.7c-1.6,0.9-3.1,2.2-4.1,3.8c-0.9,1.3-1.5,2.7-2.1,4.2c0.4-0.8,0.9-1.5,1.3-2.3c0.3-0.5,0.7-1,1.1-1.4
	c0.7-0.9,1.6-1.7,2.5-2.4c-1.7,1.4-3.1,3.2-4,5.3c-0.4,1.3-0.8,2.9-1.3,4.5s-1.1,3.5-1.7,5.4c-1.3,3.8-2.5,7.5-3.2,9.9V601
	c-1,2-1.8,4-2.5,6.1l0.6-1.2c-1.3,3.6-2.7,7.5-4,11.3h6.5c2.8-8.2,5.7-16.5,8.4-24.3l-0.3,0.8c0.8-2.3,1.6-4.4,2.3-6.5
	c0.5-1.7,1.3-3.4,2.3-4.9c0.4-0.5,0.8-0.9,1.4-1.3c0.6-0.3,1.3-0.5,1.9-0.7c1-0.2,2-0.3,3-0.2c1,0,1.9,0,2.9,0.1h2.1
	c0.2,0.1,1.2,0.2,2.8,0.4s3.8,0.5,6.3,0.9c5.2,0.9,12,2.4,19.1,3.7c6.2,1.2,12.4,1.9,18.7,2.1h2c1.3,0,2.6-0.2,3.8-0.2l1.7-0.2
	l1.5-0.3c1.3-0.2,2.5-0.4,3.8-0.8l4-1.3c0.9-0.3,1.7-0.6,2.5-1l2.6-1.1l1.2-0.5l0.3-0.1l-0.2-0.3l-0.4-0.5l-1.7-2.1
	c-1.1-1.4-2.4-2.9-3.7-4.3l-2.7-3.2l-9.6-11.5c-6.3-7.5-12.4-14.9-18.2-21.4l-4.1-4.1c-1.4-1.4-2.6-2.6-3.5-3.6l-1.5-2.4
	c-0.5-0.8-0.8-1.8-0.9-2.8c0.2-1.7,0.6-3.3,1.3-4.9c0.5-1.4,1.1-2.6,1.5-3.4s0.5-1.3,0.4-1.3s-0.4,0.5-0.9,1.4
	c0.7-1.7,1.5-3.4,2.3-5.2s1.5-3.6,2.3-5.3c1.4-3.5,2.7-7,3.8-10.4c0.9-3.1,1.7-6.2,2.4-9.4c0.3-1.9,0.9-3.7,1.6-5.5
	c0.6-3.5,0.8-4.7,1.1-6s0.6-2.5,1.1-6.3c0.2-1.2,0.4-2.4,0.4-3.7c0-0.9,0.1-2,0.2-3.1c0-1.7,0.1-3.4,0.1-5.2s0-3.6,0-5.3v-1.5H887
	l-0.6,0.2l-2.2,0.8c-2.8,1-4.8,1.8-5.6,2l1.7-0.7l-4.4,1.5l-2.7,0.8l-5.1,1.5c-3.3,1-6.7,1.9-10.5,3.3c-10.8,3.6-22.1,7.6-33.1,11.5
	l-8.2,3.5c-2.7,0.9-5.5,2-7.9,2.7c-1.3,0.4-2.6,0.6-4,0.6c-0.7,0-1.5-0.1-2.2-0.3c-2-0.8-3.8-2-5.2-3.6c-0.2,0.1,0.6,0.8,1.4,1.5
	s1.6,1.3,1.6,1.5c-2.3-1.7-4.4-3.7-6.3-5.8c-2.2-2.3-4.5-4.5-6.8-6.8c-4.6-4.4-9.5-8.6-14.5-12.6c-1.8-1.5-3.9-3.3-4.7-4
	c-3.3-2.5-2.1-1.2-4.5-3l-0.1-0.5c-1-0.6-1.8-1.1-2.5-1.6l-2.5-1.8c-2.5-1.7-5-3.3-8.3-5.3c-0.6-0.2-1.2-0.5-1.8-0.9l-1.6-0.9
	l-0.9-0.5L745.3,433.6L745.3,433.6"/>
<polygon class="st2" points="502.2,107.8 511.1,99.7 510.2,112.5 521.8,121.4 507,121.7 501.4,135.8 499.3,120.7 483.9,123.4 
	493.3,114.2 488.5,103.6 "/>
</svg>
