<?xml version="1.0" encoding="UTF-8"?>
<svg id="Layer_1" data-name="Layer 1" xmlns="http://www.w3.org/2000/svg" viewBox="0 0 34 34">
  <defs>
    <style>
      .cls-1 {
        fill: #f37e7d;
        stroke-width: 0px;
      }
    </style>
  </defs>
  <g>
    <path class="cls-1" d="M18.57,6.58s-.05.16.04.16l.11-.18-.14.02Z"/>
    <path class="cls-1" d="M19.05,7.08c.12-.07.28-.2.27-.39-.15.16-.15.07-.32.27-.09,0-.13-.1-.1-.17-.04.04-.12-.08-.2.03.07.18.21.22.39.13.02.05-.02.09-.04.13Z"/>
    <path class="cls-1" d="M25.63,11.77v-.06s0,.04,0,.06Z"/>
    <path class="cls-1" d="M26.23,16.65s-.02-.06-.03-.06c0,.04.02.07.03.06Z"/>
    <path class="cls-1" d="M25.86,17.44s.02-.03.02-.05c-.02.01-.04.03-.02.05Z"/>
    <path class="cls-1" d="M25.63,11.77s0,.1,0,.15c.06-.02.02-.09,0-.15Z"/>
    <path class="cls-1" d="M20.31,6.96s-.06,0-.09.03h.08s.01-.03.01-.03Z"/>
    <path class="cls-1" d="M24.15,10.17l-.03-.03s-.05.02-.08.04h.11Z"/>
    <path class="cls-1" d="M22.8,9.17s.13-.11.18-.16c-.06.05-.1.06-.13.05-.02.03-.03.06-.05.11Z"/>
    <path class="cls-1" d="M20.47,7.73h-.05s.04,0,.05,0Z"/>
    <path class="cls-1" d="M24.92,11.07s-.03.04-.04.05c.02-.01.03-.03.04-.05Z"/>
    <path class="cls-1" d="M15.88,6.31s0,.02,0,.03c.01-.02.01-.03,0-.03Z"/>
    <polygon class="cls-1" points="17.91 7.34 17.88 7.35 17.85 7.44 17.91 7.34"/>
    <path class="cls-1" d="M25.2,18.84h0s0-.03,0,0Z"/>
    <path class="cls-1" d="M13.97,24.36c.1.19-.31.1-.13.33,0-.07.29-.18.13-.33Z"/>
    <path class="cls-1" d="M20.35,6.99l.07.02s-.05-.02-.07-.02Z"/>
    <path class="cls-1" d="M13.84,24.7h0s.02.02.02.02c0,0-.01-.02-.02-.02Z"/>
    <path class="cls-1" d="M23.48,21.85s.05.02.08.02c-.01-.01-.03-.02-.08-.02Z"/>
    <path class="cls-1" d="M25.14,19.8l-.05.05s.04-.03.05-.05Z"/>
    <path class="cls-1" d="M22.66,22.95s-.06,0-.08.05h.02s.01-.04.06-.05Z"/>
    <polygon class="cls-1" points="21.48 23.76 21.52 23.78 21.55 23.75 21.48 23.76"/>
    <path class="cls-1" d="M11.15,7.71c.05.02.1.06.14.09-.08-.09.1-.25-.14-.09Z"/>
    <path class="cls-1" d="M20.28,7.05s.04-.05.07-.05h-.05s-.02.04-.01.05Z"/>
    <path class="cls-1" d="M23.44,24.02l-.22.14c.07-.03.15-.09.22-.14Z"/>
    <path class="cls-1" d="M6.74,17.77l-.03-.05s0,.04.03.05Z"/>
    <path class="cls-1" d="M22.6,24.63c-.07-.02-.13-.02-.18-.02,0,.02,0,.03,0,.05.06,0,.12-.02.19-.03Z"/>
    <path class="cls-1" d="M11.29,7.81h0s0,0,0,0Z"/>
    <path class="cls-1" d="M12.68,6.71c-.24.07-.04.24-.04.37-.25.17-.18-.1-.32-.16-.15.13-.2.37-.32.42-.02-.03-.05-.03-.05-.08-.11.23-.52.26-.6.57-.02,0-.04-.02-.05-.03.09.08.15.17.18.24-.09.06-.1.22-.2.12.06-.03.03-.08.04-.14l-.06.11c-.2-.12.09-.14.01-.27-.15.18-.29.44-.45.49-.15-.15.29-.27,0-.3l.27-.07c-.35-.16.15-.07-.19-.26-.34.13-.28.3-.6.47,0,.14.12.12.13.25-.25.46-.65-.17-.74.29.02.17.17.38-.11.46l-.1-.23c-.26.22.09.37-.27.51-.02-.1.14-.24.08-.22-.3.04-.03.2-.14.33l-.17-.11c-.2.31-.37.69-.54,1.04-.04-.05-.05-.15-.15-.1-.1.24-.25.46-.42.67-.15.22-.32.43-.49.63l.08.24s-.11.04-.12-.02c-.14.15.09.05.12.16-.03.11-.14.1-.17.01.03.38-.05.99-.29,1.29l-.03-.08c-.13.25.28.39.06.59l-.02-.05c-.12.28-.13.59-.17.88-.03.29-.11.56-.23.78.25.09-.12.59.23.62-.18.34-.25.24-.32.74,0,.13.24.17.29.32l-.18.03.23.18-.2.15.07.14c0-.06.06-.14.11-.14.11.21-.02.58-.11.6l.28.5c-.08,0-.12-.07-.18-.13.25.24-.18.11.07.32.03-.05.11-.01.15-.02-.06.16.02.46.15.65h-.13c.12.4.39.79.6,1.19-.02-.18.19-.24.27-.13l-.15.14c.14.02,0-.16.21-.07.06.15-.14.2-.24.15l.16.15s-.1.01-.17.04c.15.01.01.41.26.41l-.04.04c.26.39.42.53.66.82.14-.1.2.04.37.04.12.25.23.55.46.79.22.11.15-.05.29-.05-.1.12.15.34-.05.3.3.26.38.33.85.55,0-.08-.03-.14.03-.16.08.04.11.18.06.23h-.03c.55.15.8,1.12,1.37,1.07h-.03s.49.07.49.07c.18.12-.16.04-.07.2.56-.02.71.37,1.17.34.17.54,1.1.3,1.47.63v-.11c.12-.08.12.08.2.12,0-.08-.11-.11-.03-.16.94.02,1.93.32,2.93.29.37-.01.12-.57.6-.39l-.09.22c.66-.34,1.44-.32,2.03-.76-.02.06,0,.11-.07.14.19.08.51-.2.47-.31.11-.03.07.09.15.12.17.01.26-.33.39-.24.02.01-.02.06-.04.08.06-.1.42-.18.26-.29.27-.06.4-.31.63-.34.01-.23.42-.18.31-.42.14.24.51-.09.55-.3,0,.1.17-.02.19.1.15-.12.25-.27.14-.36.47,0,.34-.66.76-.51.28-.52.53-.97.77-1.41.21.17-.3.46-.07.61.21-.45.17-.8.47-1.16.1-.08.06.12.08.18.16-.46.49-.78.54-1.23.02.01.03.06.03.11.03-.08.12-.16,0-.2v.09c-.22.04-.2-.45-.29-.5.27.27.24-.33.56.04,0-.06-.03-.14-.11-.16.05-.06.11-.07.16.04.05-.3-.11-.25-.02-.5.06.02.06.08.11.13-.06-.17-.12-.33,0-.53.03.02.08.01.06.08.11-.37-.1-.71.11-1.08.22.18.11-.12.33-.09l-.02-.24-.13.07c.05-.19-.1-.4,0-.55l.07.16v-.37s-.1.19-.1.19c-.08-.21-.28-.02-.18-.27.01.05.03-.19.18-.28h0c-.05-.1-.12-.21-.06-.35.07-.03.24.05.29.03-.18-.11-.03-.47-.22-.6.04.04.16.05.19.03l-.15-.08c.05-.09.08-.1.17-.09.03-.28-.27.09-.16-.24.01.03.04.01.06.07.04-.33-.14-.63-.08-.93.22-.12.07.26.25.13-.09-.44-.4-.87-.47-1.28v.08c-.32.03.05-.34-.16-.51.04.04.19,0,.15,0-.03-.31-.3-.54-.57-.88h.1c0-.18-.19-.4-.25-.58-.1,0-.14-.1-.21.02.05-.37-.18-.56-.4-.71-.22-.17-.44-.29-.49-.6.04.04.15.05.12.02l-.36-.25c-.07.12-.02.1-.03.24-.09.02-.22-.01-.29-.09.19.07.15-.17.14-.28-.02.04-.07.06-.09.09-.01-.32-.21.19-.33-.13l.06-.05c-.11-.04-.25-.03-.33-.12.06-.16.14.02.22-.08-.14-.1-.44.03-.48-.18.08,0,.17.06.26.07-.02-.25-.07-.22-.16-.32h0s-.2-.22-.2-.22l.03.08c-.41.23-.4-.19-.79-.08.37-.09.12-.11.22-.25-.04-.08-.11-.18-.06-.21-.19.06-.15-.21-.42-.12.02-.06-.13-.08-.03-.19-.18-.04,0,.11-.06.17-.33.06-.48-.49-.96-.41-.36-.02-.49.14-.81.12-.07-.12.15-.17.15-.17-.13-.14-.25-.18-.43-.16.05-.04.03-.09,0-.17-.13-.02-.15.17-.28.04.05-.05.11-.14.19-.18-.16,0-.34.06-.5.07-.01-.11.13-.12.21-.16-.18-.01-.46-.05-.56.09l.09.08c-.06,0,0-.14.06-.16.18-.08.19.12.18.18h-.12c0,.36.44.08.65.17l-.17.21.28-.13c.03.08.01.22-.1.22.11.16.16-.04.24.14,0,.03,0,.03-.02.04h.17s-.04.16-.11.09c.2.23.48-.01.51.2h-.03c.39.07.1-.15.45-.23v.49s.1-.15.1-.15c.03.02.1.07.05.13.19-.05.01-.08.14-.15.1.23.51.15.41.44.12-.09-.11-.18.11-.17-.1.3.23.07.31.28-.13.11-.22-.04-.15.17.22-.18.26.21.4.25.12-.18.31.1.55.17-.05.04.3.37.41.57l-.03.02c.17-.14.33.03.48.12-.09.09-.15.11-.25.09l.11.11c.07-.03.13-.02.22.03l-.14.09c.14.14.45.15.53.43.13-.09.18-.45.44-.29-.06.06-.16.16-.23.12.02.01.11.02.11.09h-.18c.03.13.13-.02.18.06-.09.07-.02.11-.1.16-.02-.01-.02-.1-.07-.1.05.1.08.24.04.33.05-.05.13-.1.19-.04.14.16-.06.14-.05.27.09,0,.09.15.24.06.03.05-.03.11-.06.15.12.05.28.4.38.21v-.03s.01.01.01.01h0s0,0,0,0c.32.23.25.7.43.99l-.06.02c.13.18.18.43.35.54.02.06-.07.17-.14.16.07.14.14.15.09.4-.13-.14-.08.07-.1-.15-.01.21-.1.27.1.46-.16-.05-.16.17-.12.27l.1-.15c.03.11.02.2.02.3l-.2-.03c-.2.41.46.73.03,1.05.13.12.11-.22.27-.12-.04.2-.33.38-.33.44-.12.25.27.27.15.54.08-.03.27-.04.3.18-.06.2-.33.19-.37.06,0-.05.03-.07.05-.06-.02-.07-.03-.15-.12-.09l.07.03c-.09.08-.12.35-.22.27.05.15.11.08.16-.02-.13.23-.06.38-.19.62.05-.03.14-.05.13,0-.17.35.09.19.06.45-.14.11-.23-.12-.22.15-.11.13-.19-.02-.23-.1.07.26-.21.38-.27.5l-.02-.13c0,.08,0,.13-.03.19l.16-.02c-.05.06-.07.11-.12.09.06.1.24.03.31.21-.1.07-.03.3-.22.27.17-.26-.18-.04-.12-.28,0,.05-.02.11-.07.16-.02,0-.03-.02-.04-.05-.26.2.15.2.03.47-.08-.08-.21-.02-.21.03.05-.11.18.02.21.15-.15.14-.04.21-.09.3l.09-.09c.08.08.02.16,0,.3-.08-.03,0-.14-.05-.11.1.22-.33.21-.32.45-.11.05-.18-.09-.26-.04,0,.27-.25.13-.28.4.16.02.14-.01.16.21l.13-.39.04.33c.07-.1.06-.26.12-.31.04.17.01.14.14.15-.27.03-.07.35-.31.44l-.29-.2c-.29.14-.14.52-.45.76l.12-.05c.08.13-.13.19-.17.32-.08-.09-.16-.06-.25-.07.07.06-.18.19-.04.38h-.23c-.26.17-.02.49-.26.66-.02-.16-.17-.13-.09-.33-.07.06-.15.11-.09.17-.09-.02-.11.29-.25.26,0,.07.07.17-.03.23-.02-.01-.04-.05-.04-.05.04.05-.09.17.07.21-.46-.12-.69.52-1.09.37-.16.15-.37.3-.54.39,0-.04-.03-.05.01-.06-.29.01,0,.39-.34.4-.22-.12.11-.16,0-.18-.19-.34-.32.19-.59.05l.04-.04c-.19-.06-.31.26-.56.31,0,0,0-.04-.02-.06-.11.25-.42.38-.65.5.04-.17.09-.11.01-.24-.1.05.09.24-.12.32-.09-.07-.26-.11-.31-.27l.2-.05c-.14-.19-.26.05-.37.04v-.09c-.3.09-.28.3-.62.33l.04.07c-.17.25-.17-.11-.34.07l-.07-.23c-.12.06-.42.26-.65.29.13-.16.39-.27.54-.38-.12,0-.41.04-.47.15.05-.02.11-.07.16-.04-.15.19-.35.27-.6.26.07-.44-.63-.17-.76-.54-.44.1-.8-.21-1.27-.32.06.4-.14-.04-.22.32-.12-.02-.16-.04-.16-.06-.09-.11-.18-.21-.26-.32-.04-.13.13-.03.15-.12-.22-.11-.04-.18-.15-.33-.02.13-.15.14-.26.04l.11.23c-.4.04-.15-.38-.53-.37l.15-.05c-.19-.02-.56-.29-.86-.15,0-.05.01-.16.09-.14-.33-.24-.97-.28-1.11-.64l.08-.05c-.08-.03-.22.04-.23-.09.03-.02.08-.05.06-.07-.05,0-.26-.02-.3-.14h.13c-.22-.38-.63-.28-.92-.52.19-.17.05-.47-.01-.63l.03-.02c-.27-.39-.66-.53-.98-.87.1-.38-.35-.89-.36-1.38-.02.08-.19.07-.25,0,0-.11-.27-.22-.04-.28v.04c.21-.15.08-.33.04-.49l-.31.06c.32-.54-.43-1.11-.04-1.42-.09-.1-.1-.23-.19-.33h.17c0-.3.05-.45,0-.81l.12.07c.01-.2-.48-.27-.49-.47l.25-.04c.04-.36.29-.68.13-1.07.03.01.1.04.1.09.05-.16.32-.58-.03-.61.23.05.09-.36.08-.57l.15.08c-.15-.22-.2-.25-.17-.49.04-.05.14,0,.08.06.14-.14-.1-.19.06-.37l.07.12c.07-.17.03-.18-.04-.32,0-.14.2-.31.35-.27-.07-.06-.13-.21-.04-.3.06.01.07.07.08.09.23-.23.08-.5.33-.61.05.03.08.03.1.02-.14.21-.26.37-.26.35.13.08.26-.07.36.16-.02-.19-.08-.55.09-.68.02,0,.03,0,.06,0v.03s.05-.07.05-.12c.05-.04.1-.05.13-.1.12.06.2-.13.27-.2-.14-.1-.03-.18-.22-.18.02,0,0,.03-.03.08,0,.01-.02.03-.01.04h0s-.09.11-.15.19c-.02-.11-.02-.22.12-.25-.05-.11-.1-.22-.12-.28.27.04.53-.08.66-.01.15-.27.46-.53.4-.91.04-.09.14,0,.2.02-.02.06-.07.09-.06.14.09-.17.39-.34.29-.54.24-.06.02.24.24.02v.08c.34-.05.47-.26.62-.51.14-.25.34-.48.75-.4-.05,0-.08,0-.1-.04.75-.16,1.45-.73,2.26-.55.22.02.22-.1.34-.22l.07.18.21-.22c.32-.19.56.4.96.14l-.05-.12c.14.03.47-.05.43.08.02-.02.06-.12.11-.06v.09c.12-.04.24-.07.37-.11.27.11-.09.36.3.44.15-.01.47-.2.43-.27-.06-.01-.14-.08-.13-.17l.15-.03c.08-.27.26-.53-.07-.78l-.29.13-.06-.15.22.03c-.1-.14-.2-.05-.3.02-.01-.07-.04-.13-.09-.16l-.28.22c-.02-.11.14-.2-.03-.28-.13.11.09.26-.11.31-.11-.13-.07-.23-.22-.13-.02-.07.02-.12.08-.15-.14.08-.35.02-.42.17-.13-.16-.44.02-.42-.24-.04.06-.23.21-.34.23.2-.33-.45.02-.42-.32-.14.29-.58.17-.84.4.01-.03.03-.08.06-.07-.16,0-.23-.07-.34-.1.03.23-.21.33-.3.5-.25-.17.05-.29-.06-.49.05.17-.29.28-.18.41-.18-.09-.14-.03-.27-.19.06.29-.12.09-.19.3-.26-.07-.14-.24-.35-.08-.14-.05.03-.21.03-.21ZM8.47,10.57h0s.04-.08.06-.1c-.01.02-.03.05-.05.1ZM8.22,10.97s.08-.1.12-.17c.06.02.1.07.07.1-.02-.04-.11.03-.19.07ZM9.7,10.86c-.02.06-.06.06-.1.05.02-.03.04-.06.06-.1v-.02s.03.05.04.07Z"/>
    <path class="cls-1" d="M9.61,10.63s0-.02,0-.03c-.02,0-.04,0-.05,0l.03.05.02-.03Z"/>
    <path class="cls-1" d="M25.62,11.71h0s0,0,.01-.02c0,0,0,.01-.01.02Z"/>
    <polygon class="cls-1" points="6.57 17.25 6.61 17.25 6.57 17.21 6.57 17.25"/>
    <path class="cls-1" d="M24.49,9.44s0-.03,0-.05c0,0,0,.03,0,.05Z"/>
    <path class="cls-1" d="M23.63,8.73l-.1-.14c.04.07.07.11.1.14Z"/>
    <path class="cls-1" d="M22.96,8.2s-.04.04-.05.05h0s.05-.05.05-.05Z"/>
    <path class="cls-1" d="M26.17,20.24s0,.02,0,.03c0,.09,0,.03,0-.03Z"/>
    <path class="cls-1" d="M26.93,16.27s.05.09.06.14c.02-.07.03-.12-.06-.14Z"/>
    <polygon class="cls-1" points="23.46 24 23.46 24 23.44 24.02 23.46 24"/>
    <path class="cls-1" d="M26.96,16.59c.04-.07.05-.13.03-.18-.02.06-.05.12-.03.18Z"/>
    <path class="cls-1" d="M19.6,6.71l-.04-.02s0,.02-.01.02h.05Z"/>
    <path class="cls-1" d="M19.55,6.72h-.05s.04.02.05,0Z"/>
    <path class="cls-1" d="M19.4,6.75l.1-.02s-.07-.02-.1.02Z"/>
    <path class="cls-1" d="M20.64,7.13l.03-.05s-.02.03-.03.05Z"/>
    <path class="cls-1" d="M20.96,7.24c-.07-.04-.15-.19-.27-.2l-.03.04c.08-.07.18.23.29.16Z"/>
    <path class="cls-1" d="M21.93,8.48l-.23-.16c.02.08.03.18-.08.15.22.32,0-.16.31.01Z"/>
    <path class="cls-1" d="M22.62,8.96c-.14-.04-.05.08-.07.11.11,0,.14,0,.07-.11Z"/>
    <path class="cls-1" d="M26.16,13.47l-.15.02c.04.1.06-.01.15-.02Z"/>
    <polygon class="cls-1" points="27.11 14.53 27.2 14.4 27.05 14.36 27.11 14.53"/>
    <polygon class="cls-1" points="26.06 15.25 26.04 15.21 26.08 15.38 26.06 15.25"/>
    <path class="cls-1" d="M21.62,23.51l.13.14c.05-.07-.05-.25-.13-.14Z"/>
    <path class="cls-1" d="M17.67,25.02c-.06-.09-.18-.13-.25-.04.1,0,.2.07.25.04Z"/>
    <polygon class="cls-1" points="8.28 18.13 8.36 18.2 8.28 18.06 8.28 18.13"/>
  </g>
  <g>
    <path class="cls-1" d="M22.35,18.5c0-.05-.02-.17-.03-.14v.2s.03-.06.03-.06Z"/>
    <path class="cls-1" d="M22.2,18.15c0,.1-.01.27.02.45,0-.19.01-.11,0-.34.01-.02.04.06.04.13,0-.05.03.04.03-.08-.04-.15-.07-.15-.08-.02-.01-.04-.01-.09-.01-.13Z"/>
    <path class="cls-1" d="M20.54,17.96v.02s0-.02,0-.02Z"/>
    <path class="cls-1" d="M19.53,17.86s.01-.02.01-.04c0,.01-.01.02-.01.04Z"/>
    <path class="cls-1" d="M19.37,17.64h0s0-.01,0,0Z"/>
    <path class="cls-1" d="M20.54,17.96l-.03-.06c0,.06.02.05.03.06Z"/>
    <path class="cls-1" d="M22.02,18.65s0-.03,0-.05v.02s0,.03,0,.03Z"/>
    <path class="cls-1" d="M20.98,17.78h0s0-.05,0-.08v.08Z"/>
    <path class="cls-1" d="M21.31,17.73s0,.16,0,.23c0-.07,0-.1,0-.12,0-.03,0-.07-.01-.12Z"/>
    <path class="cls-1" d="M21.88,17.98v-.02s0,.02,0,.02Z"/>
    <path class="cls-1" d="M20.73,17.76s0-.05,0-.06v.06Z"/>
    <path class="cls-1" d="M15.6,12.24s.02,0,.03,0c-.02,0-.03,0-.03,0Z"/>
    <polygon class="cls-1" points="16.37 11.71 16.38 11.71 16.47 11.7 16.37 11.71"/>
    <path class="cls-1" d="M19.07,17.42h0s0-.01,0,0Z"/>
    <path class="cls-1" d="M17.67,17.04c-.15.05-.2-.04-.36.03.06-.01.27.02.36-.03Z"/>
    <path class="cls-1" d="M22.01,18.63s0,0-.01,0c0,0,.01,0,.01,0Z"/>
    <polygon class="cls-1" points="17.31 17.06 17.31 17.06 17.29 17.07 17.31 17.06"/>
    <path class="cls-1" d="M18.35,17.48s0,.05,0,.07c0-.02,0-.04,0-.07Z"/>
    <path class="cls-1" d="M18.87,17.75v-.02s0,.02,0,.02Z"/>
    <path class="cls-1" d="M18.06,17.69s0-.04-.02-.02c0,0,0,.01,0,.02,0-.02.01-.03.02,0Z"/>
    <polygon class="cls-1" points="17.84 17.67 17.83 17.71 17.84 17.7 17.84 17.67"/>
    <path class="cls-1" d="M15.78,13.11s.1-.02.15-.04c-.12.02-.16-.01-.15.04Z"/>
    <path class="cls-1" d="M22.01,18.56s0,.06,0,.07c0,0,0,0,0,0,0-.02,0-.05,0-.06Z"/>
    <path class="cls-1" d="M17.93,19.01l-.05-.03s.03.03.05.03Z"/>
    <path class="cls-1" d="M16.06,15.2h-.02s0,0,.02,0Z"/>
    <path class="cls-1" d="M17.7,18.99c0-.06-.02-.1-.03-.12,0,.01,0,.02-.02.04l.05.08Z"/>
    <path class="cls-1" d="M15.93,13.07h0s0,0,0,0Z"/>
    <path class="cls-1" d="M15.5,12.83s.22-.01.34-.02c.07.04-.16.05-.27.08.06.02.26.02.26.05-.04,0-.05.01-.09.02.18,0,.02.1.24.11h-.05c.11,0,.22-.03.3-.04,0,.02.14.02,0,.05,0-.01-.05,0-.1,0h.06c-.2.06-.07,0-.23.02.07.03.25.05.19.09-.2.04-.08-.06-.25,0l.07-.06c-.31.08.02-.03-.32.05-.05.07.11.06.06.13.11,0,.16-.03.28-.03.21.06-.5.14-.22.17.14,0,.39-.03.26.03l-.23.02c-.01.06.33-.01.19.07-.09,0-.08-.04-.11-.02-.17.07.13.01.14.04l-.2.03c.04.06.19.11.24.18-.06,0-.12,0-.18.03.11.08,0,.2-.11.3h.18s-.08.04-.11.03c-.06.04.11-.01.18,0,.01.02-.1.04-.15.03.15.04.34.13.16.22h-.05c-.06.05.36,0,.21.07h-.03c-.06.11.11.21-.14.33.25-.02-.1.12.25.08-.17.08-.23.07-.34.17-.01.02.22,0,.26.03l-.18.02.2.02-.22.05.05.02s.08-.03.13-.04c.09.03-.11.12-.21.13l.17.08c-.07,0-.1,0-.15-.02.19.03-.19.03-.01.06.04-.01.11,0,.15-.01-.11.04-.1.09-.05.13h-.13c-.02.08.08.15.09.24.06-.04.27-.05.3-.03l-.19.03c.12,0,.07-.03.22-.02-.02.03-.22.04-.28.03l.07.03c-.06,0-.09,0-.16,0,.12,0-.19.09.02.08h-.06c0,.09.08.12.1.19.17-.02.13.01.27.02-.05.05-.17.12-.15.18.09.03.14,0,.24,0-.15.02-.13.08-.24.06.03.07.04.09.18.17.06-.02.09-.03.14-.03.03.01-.06.04-.13.05h-.02c.24.08-.41.27-.09.32h-.02s.18.06.18.06c-.02.04-.12-.01-.21.02.26.07-.02.15.16.2-.22.05-.21.1-.17.15.03.04.09.1-.04.22l.1-.02c.11.02-.05.06-.07.09.08-.02.09-.06.15-.05.16.26-.07.68-.11,1.12,0,.15.5-.37.29-.03l-.18.13s.05.02.07.03c.05,0,.08-.01.11-.02.07,0,.13,0,.18.01.11.02.23.05.39-.04-.04.04-.07.1-.09.09-.03.14.18.03.23-.08.03.02-.04.1-.04.16.02.09.19-.16.17-.02,0,.02-.03.04-.04.05.06-.06.15.03.17-.13.06.09.17-.05.22.05.07-.18.14.1.16-.16-.03.27.07.22.11.1-.02.08.02.09,0,.2.04,0,.07-.05.08-.19.04.33.15-.25.16.17.12-.14.22-.23.32-.29-.02.27-.11.02-.12.3.1-.11.16-.33.25-.26.02.04-.02.12-.03.16.1-.1.17.03.26-.11,0,.02-.01.05-.02.07.02,0,.03.04.04-.08l-.02.03c-.02-.18.08-.37.08-.46-.04.35.07.09.01.53.01-.02.03-.08.03-.16.01.02.02.07,0,.16.06-.06.04-.19.09-.19,0,.06-.01.08-.02.15.03-.11.06-.23.1-.18,0,.04,0,.08-.01.08.07-.02.13-.3.21-.19-.03.26.03.09.03.31l.05-.07-.02-.11s.07-.16.11-.08l-.03.09.07-.04-.04-.08c.04-.11,0-.28.05-.22-.01.02.04,0,.06.13h0c.02-.07.04-.14.07-.09,0,.07,0,.25,0,.29.02-.19.09-.05.11-.25,0,.05,0,.16,0,.19l.02-.15s.02.07.02.16c.05.03-.02-.28.05-.16,0,.01,0,.03-.01.06.06.06.12-.1.18-.02.02.22-.05.05-.03.24.08-.04.17-.27.25-.22l-.02-.02c0-.32.06.16.1,0,0,.02,0,.18,0,.14.06.05.11-.08.19-.18v.08c.03.07.08.04.12.07,0-.08.03-.07.01-.19.13.46.19-.26.31.12-.01,0-.02.07-.01.07l.08-.08c-.01-.14-.02-.08-.04-.19,0-.08.03-.15.05-.15-.03.09.01.22.03.3v-.13c.05.24-.01-.28.05-.12v.07s.03-.13.06-.12c.02.16-.02.08-.01.21.03-.01.05-.31.09-.15-.01.05-.03.05-.04.09.04.18.05.14.07.17h0s.06.08.06.08l-.02-.05c.01-.42.08-.08.11-.36-.03.26,0,.15.01.33.02.05.04.1.04.15.02-.15.05.11.07-.1,0,.06.03,0,.03.15.03-.05-.02-.1-.02-.17.04-.2.14.23.2-.05.06-.12.05-.31.1-.42.03.09,0,.21,0,.21.04.08.06.06.09,0,0,.05,0,.09.03.16.02-.02,0-.21.04-.13,0,.07,0,.17,0,.23.02-.06.04-.17.07-.22.02.1,0,.15,0,.22.03-.05.08-.1.07-.26l-.03-.05s.02.14.01.17c-.02.13-.05-.05-.06-.11l.02-.04c-.06-.34-.08.06-.13.05v-.25s-.03.21-.03.21c-.02-.06-.04-.2-.02-.24-.04-.12-.02.09-.06-.04,0-.02,0-.03,0-.04l-.02.08c0-.05-.02-.17,0-.14-.07-.14-.07.19-.11,0v-.02c-.06.09.01.18-.03.4l-.08-.44v.18s-.02-.02-.02-.09c-.02.13.01.08,0,.2-.05-.16-.1.09-.13-.2,0,.14.04.1.01.2-.04-.31-.04.06-.09-.08,0-.16.04-.08,0-.22,0,.27-.07-.05-.09,0,.01.22-.06.09-.1.17,0-.07-.1-.11-.15-.19v-.04c0,.22-.04.18-.08.23,0-.13,0-.18.01-.24h-.03c0,.07-.01.11-.03.14v-.16s-.07.2-.13.09c0,.15.06.42,0,.53,0-.08-.01-.22,0-.26,0,.01-.01.07-.03.03l.02-.14c-.03-.06,0,.12-.03.1,0-.12-.02-.08-.02-.18,0-.01.02.05.02,0-.02-.02-.05-.09-.06-.18,0,.07,0,.16,0,.17-.04.01-.02-.14-.05-.2,0,.08-.04,0-.03.17-.01,0-.02-.08-.02-.13-.02.08-.1.03-.07.21h0s0,.02,0,.02h0,0c-.07.18-.15-.09-.22-.02v-.06c-.04.07-.09.04-.12.17-.01,0-.03-.11-.03-.18-.03.04-.03.11-.08.01.03-.1-.01-.09.03-.08-.04-.05-.05-.14-.1.02.01-.15-.03-.19-.05-.14l.03.11s-.04,0-.06,0v-.2c-.07-.24-.14.41-.21,0-.02.14.05.1.02.26-.04-.03-.08-.31-.09-.31-.05-.11-.05.29-.11.21,0,.07.01.26-.03.33-.04-.03-.04-.3-.02-.35,0,0,.01.02.01.04.01-.03.03-.06.02-.13v.07c-.02-.07-.08-.07-.06-.18-.03.07-.01.12,0,.15-.05-.1-.08,0-.13-.07,0,.04.01.12,0,.12-.07-.09-.04.13-.09.16-.03-.11.02-.26-.04-.17-.03-.07,0-.19.01-.24-.05.13-.08-.09-.11-.12l.03-.06s-.03.03-.04.03v.14s-.02-.03-.01-.08c-.02.09,0,.24-.03.36-.02-.07-.06.08-.06-.11.06.07,0-.19.05-.22-.01.02-.02.02-.04,0,0-.02,0-.04,0-.05-.05-.17-.03.21-.09.2.01-.11,0-.2-.02-.18.02,0,0,.18-.02.26-.03-.08-.04.06-.06.05l.02.04c-.01.11-.03.09-.06.12,0-.08.03-.06.02-.09-.04.18-.06-.2-.11-.07-.02-.07,0-.2,0-.25-.05.13-.04-.15-.1-.04,0,.14.01.11-.03.24l.09-.1-.06.2s.06-.09.07-.06c-.03.11-.03.08-.02.2-.02-.21-.07.12-.1-.03l.02-.35c-.05-.16-.11.17-.18.08l.02.06c-.02.14-.05.02-.08.07.01-.12,0-.16,0-.23,0,.09-.05-.01-.08.22l-.02-.16c-.06-.07-.1.33-.15.28.03-.13,0-.21.05-.3-.02,0-.03-.03-.04.06,0-.07-.07.15-.08.04-.01.05-.03.17-.05.16,0-.02,0-.06,0-.06,0,.06-.04.08-.03.21-.03-.37-.16.01-.13-.3-.03.04-.08.07-.11.08.01-.03.02-.06.02-.04.01-.11-.16.32-.16.2.07-.18.07-.1.09-.17.18-.37-.07.05.03-.17l.02-.02c.07-.13-.12.13-.14.1,0,0,.02-.03.04-.05-.15.18-.26.24-.35.28.14-.14.08-.07.21-.21-.03.02-.2.23-.28.26.05-.07.13-.17.27-.31,0,0,0,.01.01.01.18-.2-.01-.02.02-.06l.08-.08s-.24.18-.23.12l-.06.05c-.22.13.12-.11-.05-.02l.22-.15c-.05.03-.22.08-.27.06.17-.06.26-.08.35-.13,0-.01-.02-.02-.13.02.02,0,.08-.03.04,0-.18.08-.27.09-.27.05.44-.17.1-.13.44-.23-.17.02.06-.09.02-.2-.35.07-.01-.03-.38,0-.03-.02-.02-.03,0-.04l.21-.09c.1-.03.08.02.16,0,.02-.05.15-.04.24-.08-.13.02-.19,0-.14-.04l-.16.06c-.2-.06.3-.09.1-.15h.12c-.07-.02-.01-.13-.31-.14.04-.01.14-.03.17-.01.03-.09-.33-.17-.16-.26h.09s-.17-.01-.08-.04c.04,0,.09,0,.09-.01-.03,0-.16-.03-.11-.06h.1c.11-.09-.26-.1-.33-.17.26-.03.34-.1.38-.14h.04c.02-.11-.24-.15-.35-.24.28-.09.09-.21.24-.32-.05.02-.2.02-.23,0,.05-.03-.19-.04.05-.06h0c.23-.03.16-.07.17-.11l-.31.03c.44-.15-.2-.22.2-.32-.08-.01-.08-.04-.16-.05l.17-.02c.04-.07.05-.1,0-.17h.12s-.49,0-.5-.03l.25-.04c-.01-.08.2-.18-.04-.23.04,0,.11-.01.12,0,0-.04.15-.16-.19-.1.22-.03.01-.08-.09-.11l.17-.02c-.21,0-.27,0-.34-.04.02-.01.13-.03.09,0,.08-.05-.16,0-.08-.07h.11s-.05-.03-.17-.03c-.07-.02.03-.08.18-.11-.09,0-.22,0-.18-.03.06-.01.09,0,.11,0,.1-.08-.2-.07-.05-.14.05,0,.08-.02.1-.02,0,.05,0,.1-.01.09.15-.02.17-.07.39-.06-.12-.02-.37-.04-.31-.09.01,0,.03,0,.05-.01h.02s0-.02-.03-.02c.02-.02.04-.03.04-.04.12-.02.06-.06.07-.08-.17.02-.14,0-.28.04.01,0,.02,0,.03.01,0,0,0,0,.02,0h-.01s.01.03.02.05c-.09,0-.16-.01-.07-.05-.11,0-.22,0-.27,0,.23-.06.35-.13.49-.16-.1-.05-.08-.14-.4-.14-.04-.01.09-.03.13-.05.03,0,.03.02.07.02-.08-.02-.04-.1-.26-.08.09-.06.2,0,.16-.06h.07c.33-.18-.58-.12-.15-.32-.03.01-.04.02-.07.03.18-.19-.22-.29.07-.5.06-.05-.08-.04-.19-.05l.18-.04h-.21c-.16-.05.42-.2.13-.23l-.12.03s-.08-.08.06-.1c-.02,0-.13.01-.06-.01l.09-.02-.17-.05c.06-.07.37-.05.38-.14-.04-.02-.28-.04-.34-.02,0,.01-.05.04-.15.06l-.05-.02c-.27.04-.56.07-.74.16l.17.02-.13.04v-.04c-.14.04-.02.04.05.04-.07.02-.12.03-.14.04h.27c-.11.03-.22.02-.27.06.12,0,.24-.06.32-.04-.12.04-.22.05-.11.06-.07.02-.12.02-.15.01.09,0,.04.06.19.05-.15.05.05.07-.21.11.06,0,.21,0,.22.03-.32,0,0,.08-.34.13.28-.01.14.09.3.11-.02,0-.07,0-.05,0-.02.03-.1.05-.15.08.23-.03.29,0,.43,0-.22.07-.27.02-.49.06.19-.03.19.03.35,0-.13.05-.06.03-.25.08.29-.04.05.02.23.01-.14.06-.27.05-.18.08-.09.03-.19.01-.19.01ZM16.13,13.79h0s0-.01-.01-.02c0,0,0,0,.02.02ZM16.14,13.87s0-.02,0-.04c.06-.01.12-.02.11,0-.04,0-.07.03-.12.04ZM17.27,13.53s0,.02-.04.03c0,0-.01-.01-.02-.02h-.02s.06,0,.08,0Z"/>
    <path class="cls-1" d="M17.05,13.54h-.01s-.03,0-.04,0h.05s0,0,0,0Z"/>
    <path class="cls-1" d="M20.55,17.99h0s0,0,0,.02v-.02Z"/>
    <polygon class="cls-1" points="15.97 15.11 16.01 15.11 15.97 15.1 15.97 15.11"/>
    <path class="cls-1" d="M21.06,18.54v.04s0-.03,0-.04Z"/>
    <path class="cls-1" d="M21.28,18.57l.03.06s-.03-.05-.03-.06Z"/>
    <path class="cls-1" d="M21.45,18.64s0-.05,0-.07h0s0,.07,0,.07Z"/>
    <path class="cls-1" d="M18.83,18.87h0s0,.03,0,0Z"/>
    <path class="cls-1" d="M19.62,18.5s-.02.06-.03.08c.01.01.02.02.03-.08Z"/>
    <polygon class="cls-1" points="17.94 19.01 17.94 19.01 17.93 19.01 17.94 19.01"/>
    <path class="cls-1" d="M19.56,18.58s.02.03.04,0c-.01-.01-.02-.03-.04,0Z"/>
    <path class="cls-1" d="M22.17,18.65h0s0-.01,0-.02v.02Z"/>
    <path class="cls-1" d="M22.17,18.63v-.02s0,0,0,.02Z"/>
    <path class="cls-1" d="M22.19,18.56v.04s0,0,0-.04Z"/>
    <path class="cls-1" d="M21.94,18.59v.06s0-.03,0-.06Z"/>
    <path class="cls-1" d="M21.88,18.62s.05.13.07.09v-.05c0,.09-.06-.14-.07-.04Z"/>
    <path class="cls-1" d="M21.54,17.89l.06.04c-.01-.06-.03-.15-.01-.17-.08-.19.03.14-.05.12Z"/>
    <path class="cls-1" d="M21.37,17.81s0-.09,0-.13c-.01.06-.02.08,0,.13Z"/>
    <path class="cls-1" d="M20.18,17.86v-.15s0,.06,0,.15Z"/>
    <polygon class="cls-1" points="19.95 18.65 19.98 18.75 19.98 18.61 19.95 18.65"/>
    <polygon class="cls-1" points="19.81 17.57 19.82 17.55 19.79 17.6 19.81 17.57"/>
    <path class="cls-1" d="M17.89,17.53l-.03.19s.05-.24.03-.19Z"/>
    <path class="cls-1" d="M17.47,17.57c.09-.07.14-.12.05-.07-.01.02-.08.08-.05.07Z"/>
    <polygon class="cls-1" points="17.49 15.17 17.55 15.18 17.5 15.15 17.49 15.17"/>
  </g>
</svg>