<?xml version="1.0" encoding="UTF-8"?>
<svg id="Layer_1" data-name="Layer 1" xmlns="http://www.w3.org/2000/svg" viewBox="0 0 34 34">
  <defs>
    <style>
      .cls-1 {
        fill: #f37e7d;
        stroke-width: 0px;
      }
    </style>
  </defs>
  <g>
    <path class="cls-1" d="M5.43,8.17c-.03.05,0,.17.1.14l.06-.2-.15.06Z"/>
    <path class="cls-1" d="M6.14,8.49c.11-.1.24-.28.15-.46-.1.2-.14.12-.25.35-.1.03-.18-.05-.17-.12-.03.05-.16-.03-.21.1.14.14.31.14.48,0,.04.04,0,.09,0,.13Z"/>
    <path class="cls-1" d="M16.07,8.08l-.07-.02s.04.02.07.02Z"/>
    <path class="cls-1" d="M22.22,7.75s-.06.03-.07.05c.04-.02.08-.03.07-.05Z"/>
    <path class="cls-1" d="M23.28,7.89s-.04,0-.06,0c.02.02.05.02.06,0Z"/>
    <path class="cls-1" d="M16.07,8.08l.17.05c0-.06-.09-.04-.17-.05Z"/>
    <path class="cls-1" d="M7.47,7.91s-.06.03-.09.06l.08-.03v-.03Z"/>
    <path class="cls-1" d="M13.37,8.44h-.05s-.02.06-.04.09l.09-.09Z"/>
    <path class="cls-1" d="M11.3,8.62s.05-.16.06-.24c-.02.07-.05.11-.09.12,0,.03.01.07.03.12Z"/>
    <path class="cls-1" d="M7.98,8.56l-.06.03s.04-.02.06-.03Z"/>
    <path class="cls-1" d="M14.86,8.37s.01.05.02.06c0-.02-.01-.04-.02-.06Z"/>
    <path class="cls-1" d="M4.98,11.17s.02,0,.03,0c-.02-.01-.03-.01-.03,0Z"/>
    <polygon class="cls-1" points="5.57 8.7 5.58 8.73 5.67 8.72 5.57 8.7"/>
    <path class="cls-1" d="M25.22,7.97h0s-.02.01,0,0Z"/>
    <path class="cls-1" d="M26.37,20.55c.2.15-.32.19-.02.36-.03-.07.27-.26.02-.36Z"/>
    <path class="cls-1" d="M7.53,7.93h.09s-.07,0-.09,0Z"/>
    <path class="cls-1" d="M26.35,20.91h0s.03.02.03.02c-.01,0-.02-.01-.03-.02Z"/>
    <path class="cls-1" d="M26.74,9.78s.05-.03.07-.05c-.02,0-.04.02-.07.05Z"/>
    <path class="cls-1" d="M26.29,7.55l.04.02s-.03-.02-.04-.02Z"/>
    <path class="cls-1" d="M27.17,11.46s-.03.06,0,.12c0,0,.01-.01.02-.02-.03-.02-.04-.05-.02-.1Z"/>
    <polygon class="cls-1" points="27.37 13.23 27.4 13.19 27.38 13.14 27.37 13.23"/>
    <path class="cls-1" d="M5.32,16.53s.1-.06.15-.08c-.12.03-.16-.23-.15.08Z"/>
    <path class="cls-1" d="M7.48,8.01s.02-.06.05-.08h-.06s0,.06.01.08Z"/>
    <path class="cls-1" d="M28.49,11.38v.28c.01-.08.01-.18,0-.28Z"/>
    <path class="cls-1" d="M14.34,21.74l-.07.02s.05,0,.07-.02Z"/>
    <path class="cls-1" d="M28.62,12.5c-.05.06-.08.11-.1.17.01.01.03.02.05.03l.05-.2Z"/>
    <path class="cls-1" d="M5.47,16.44h0s0,0,0,0Z"/>
    <path class="cls-1" d="M5.02,14.61c0,.27.22.12.35.17.07.32-.16.15-.27.27.06.2.27.34.27.49-.04.01-.05.04-.09,0,.18.21.02.63.25.87-.02.02-.04.03-.05.03.11-.04.22-.05.3-.04,0,.12.14.22,0,.27,0-.07-.05-.08-.1-.11l.06.13c-.21.12-.07-.17-.23-.17.07.24.25.53.19.72-.2.04-.07-.44-.25-.19l.07-.29c-.32.23.02-.18-.32.03-.05.38.11.43.05.81.11.09.17-.03.28.06.2.55-.51.43-.24.83.13.1.39.15.25.43l-.23-.1c-.03.37.33.22.16.6-.09-.07-.07-.29-.1-.24-.18.25.13.18.12.37l-.2.04c.03.25.05.51.08.79.03.34.07.65.08.97-.06.02-.12-.05-.19.18,0,.03,0,.06,0,.08h.1s.19-.01.19-.01h.37c.25,0,.48.01.73.03.29.02.4.05.55.08.14.03.28.06.42.09l.21-.17s.09.08.03.11c.21.07.01-.11.12-.18.12-.01.15.1.08.15.37-.14,1.06-.3,1.44-.11l-.08.05c.3.08.35-.35.63-.19l-.05.03c.66.09,1.39-.06,1.88.21.1-.25.65.12.7-.23.37.18.26.24.79.37.14.02.21-.22.39-.25v.18s.24-.19.24-.19l.12.22.16-.04c-.07-.01-.14-.08-.13-.14.26-.08.62.14.63.23l.61-.15c-.01.07-.12.1-.2.14.33-.18.06.19.35.03-.04-.04.02-.11.03-.15.15.11.48.12.73.08l-.05.13c.45.04.95-.05,1.45-.04-.18-.06-.14-.28.01-.3l.06.2c.1-.12-.15-.08.04-.22.19.03.12.22.01.28l.23-.06c.01.06-.04.09-.06.16.1-.12.39.2.53,0v.06c.52,0,.74-.05,1.16-.06,0-.17.17-.13.29-.26.3.06.63.19,1,.19.26-.08.08-.14.19-.24.02.15.38.14.19.25.44-.02.56-.02,1.11-.14-.06-.06-.13-.09-.09-.14.1-.02.23.07.21.14l-.03.02c.62-.22,1.43.47,1.92.16l-.03.02.51-.16c.24.03-.14.11.03.21.55-.25.87.05,1.32-.11.18.23.47.23.83.2.37-.03.91-.15,1.36-.31l-.1-.06c.11-.21.25-.11.38-.21-.07-.03-.24.1-.18-.04.59-.71.61-1.43.67-2.04.03-.64.04-1.13.04-1.68-.02-.39-.57-.16-.37-.67l.21.12c-.32-.75-.17-1.6-.46-2.34.05.04.11.04.12.11.12-.18-.06-.6-.18-.59,0-.12.1-.04.15-.12.07-.17-.23-.39-.1-.49.02-.02.05.04.07.07-.08-.1-.04-.49-.19-.37.05-.3-.13-.54-.06-.78-.2-.13.03-.5-.23-.52.27,0,.16-.53.01-.69.09.05.07-.17.19-.11-.03-.21-.1-.39-.23-.34.28-.42-.34-.74.04-1-.21-.6-.37-1.16-.5-1.7.27-.01.1.61.37.55-.08-.26-.19-.45-.28-.65-.04-.1-.08-.2-.11-.31-.03-.16-.05-.33-.09-.52-.03-.22.15.06.2.13-.13-.42-.36-.77-.73-.94-.18-.08-.37-.13-.57-.13-.19,0-.43.03-.51.07,0-.03.04-.06.1-.08-.1.02-.22-.02-.2.1l.09-.04c.16.17-.34.4-.35.49.13-.36-.47-.05-.25-.51-.06.03-.13.09-.11.17-.09-.02-.12-.06-.04-.16-.33.09-.2.21-.5.23,0-.06.06-.09.08-.16-.14.13-.29.25-.54.22.01-.04-.02-.08.06-.09-.43.05-.72.36-1.2.28.12-.27-.17-.07-.21-.29l-.25.08.11.1c-.22.01-.41.19-.61.13l.16-.1-.42.07.24.07c-.22.13.04.28-.26.24.06-.03-.22.01-.35-.11h0c-.11.08-.21.16-.38.12-.05-.07.02-.25-.01-.29-.1.19-.52.09-.65.3.04-.05.04-.17.02-.19l-.08.16c-.11-.04-.12-.06-.11-.16-.31,0,.12.27-.26.18.03-.01.01-.04.07-.06-.38-.04-.71.15-1.06.1-.12-.22.3-.08.17-.26-.49.08-1,.34-1.48.32l.09.02c-.04.32-.37-.13-.6.04.06-.03.06-.18.05-.14-.33-.03-.66.13-1.15.26l.06-.09c-.2-.06-.51,0-.72-.03-.06.09-.18.08-.1.19-.68-.42-1.21.34-1.8,0,.07,0,.16-.08.1-.08l-.48.11c.05.13.07.08.18.18-.06.09-.19.16-.31.17.21-.11-.02-.22-.12-.29.02.04-.01.09,0,.13-.27-.23-.02.28-.38.14v-.07c-.11.05-.23.15-.37.14-.07-.15.13-.08.13-.22-.2.02-.37.33-.55.18.08-.05.2-.06.28-.11-.21-.17-.23-.12-.37-.14h.01s-.34-.06-.34-.06l.09.04c-.22.43-.49.11-.81.41.3-.28.04-.15.05-.33-.09-.04-.22-.09-.19-.14-.15.16-.27-.1-.47.13-.01-.06-.17,0-.14-.14-.2.06.06.1.04.17-.3.22-.75-.19-1.18.12-.38.14-.44.34-.79.46-.13-.08.08-.22.08-.22-.2-.07-.35-.04-.53.03.03-.05,0-.09-.07-.15-.15.03-.08.22-.29.15.03-.07.06-.17.13-.24-.17.07-.34.19-.51.25-.06-.1.1-.16.16-.23-.2.06-.52.13-.57.29l.13.05c-.07.01-.05-.13,0-.17.17-.14.26.04.27.09l-.13.05c.16.33.51-.09.78-.09l-.09.26.25-.22c.06.06.11.2-.02.24.19.11.16-.1.33.02.02.02.01.03,0,.04l.18-.09c-.03.05.04.17-.07.14.34.12.51-.22.65-.04l-.03.02c.45-.12.03-.18.36-.42l.26.43.03-.18s.14.01.13.08c.16-.14-.04-.08.06-.2.24.15.61-.12.69.16.07-.14-.22-.09.01-.2.09.31.27-.07.49.05-.05.16-.25.09-.04.22.1-.28.4.03.57-.03,0-.22.37-.12.66-.21-.01.07.56.08.83.14v.04c.03-.22.31-.2.51-.26,0,.13-.03.19-.14.25h.19c.04-.09.1-.13.22-.16l-.04.17c.25-.03.5-.23.83-.14,0-.15-.29-.41.05-.53.02.08.04.22-.05.26.03-.01.1-.08.16-.05l-.13.15c.15.05.07-.12.19-.12,0,.12.09.08.08.17-.03.01-.11-.04-.15,0,.14.01.3.07.36.15-.02-.07-.01-.16.09-.18.25-.03.1.13.25.18.06-.09.22-.01.22-.19.07,0,.09.08.13.12.13-.09.61-.07.45-.24h-.03s.02-.02.02-.02h0s0,0,0,0c.42-.21.9.04,1.33-.07v.06c.25-.09.57-.08.74-.22.08,0,.19.09.16.17.19-.06.21-.13.5-.05-.19.12.07.09-.2.09.26.03.32.12.58-.06-.08.16.2.18.32.12l-.19-.09c.13-.03.25-.03.37-.02l-.05.2c.54.2.91-.48,1.33-.1.13-.15-.29-.08-.18-.25.24,0,.51.28.58.27.34.09.28-.31.63-.26-.05-.07-.1-.25.15-.34.24,0,.32.27.17.34-.06.01-.09-.01-.09-.03-.08.03-.17.07-.07.14l.03-.07c.12.06.45.03.38.15.18-.08.07-.12-.07-.15.31.08.48-.03.8.01-.05-.04-.11-.11-.06-.12.47.05.19-.15.51-.2.19.09-.05.26.26.15.2.06.05.18-.02.25.28-.16.54.05.71.06l-.15.07c.09-.04.16-.04.24-.05l-.1-.13c.09.02.17.01.17.07.09-.1-.09-.23.09-.37.12.06.36-.1.41.08-.38-.04.05.19-.26.24.06-.03.13-.03.22-.01.01.02,0,.04-.03.05.37.14.15-.22.52-.25-.04.11.1.19.16.17-.15,0-.08-.17.05-.26.23.07.28-.08.35-.08-.02-.01-.07-.02-.12-.03.06-.11.13-.1.24-.14,0,.08-.1.06-.07.09.06-.09.14-.04.17.02.04.07.05.14.14.13-.02.1-.15.17-.17.23.16,0-.11.14,0,.15.14-.02.09-.12.26.07-.05-.17-.08-.17-.13-.23.08,0,.15.03.22.08,0-.09-.11-.14-.11-.19.13,0,.1.04.19-.08-.16.22.16.22.06.52l-.35.03c-.12.37.25.61.21,1.08l.04-.15c.15.05.05.28.12.42-.12,0-.15.1-.22.17.09-.02.03.34.27.35l-.13.22c-.02.38.38.39.38.75-.14-.09-.2.08-.32-.15.01.12,0,.23.08.22-.07.08.19.31.1.44.06.04.18.05.19.18-.02.02-.06,0-.06,0,.06,0,.1.2.22.07-.32.41.14,1.02-.13,1.38.07.26.14.57.18.8-.04-.01-.06,0-.05-.04-.07.34.36.16.28.55-.17.21-.12-.19-.18-.06-.38.09.1.44-.09.72l-.03-.06c-.11.21.2.45.21.76,0,0-.04-.01-.06,0,.22.19.33.59.42.88-.16-.08-.1-.13-.24-.05.04.13.24-.07.31.2-.07.1-.12.3-.28.34l-.04-.25c-.2.15.04.33.02.46h-.09c.07.38.31.36.34.78l.06-.05c.26.2-.11.21.09.41l-.23.1c.07.15.29.5.34.75-.18-.14-.3-.42-.42-.61.02.16.07.48.19.55-.02-.05-.09-.12-.06-.18.2.15.31.39.28.67-.23-.04-.26.13-.32.3-.05.17-.14.33-.32.25-.02.3-.35.14-1.01.13.22.36-.18,0-.14.37-.14.02-.2.01-.21,0l-.43-.22c-.1-.11.14-.08.12-.16-.31-.03-.13-.16-.34-.26.04.13-.11.18-.29.13l.25.17c-.44.19-.38-.31-.82-.13l.14-.11c-.23.06-.84-.02-1.06.27-.04-.04-.09-.14,0-.17-.54-.05-1.21.29-1.63.11l.04-.09c-.1.02-.18.16-.3.07,0-.04.04-.09,0-.09-.05.03-.27.15-.4.1l.12-.1c-.53-.12-.81.23-1.26.29,0-.26-.41-.35-.62-.4v-.04c-.61-.04-1.04.2-1.61.3-.35-.29-1.2-.14-1.76-.31.09.05-.02.2-.12.23-.13-.06-.37.18-.35-.06h.05c-.1-.23-.37-.17-.59-.18l-.04.31c-.55-.47-1.47.15-1.77-.27-.14.08-.3.07-.44.15v-.17c-.36-.05-.55-.07-1.01-.04l.1-.12c-.26-.01-.34.48-.58.49l-.07-.25c-.46,0-.91-.23-1.37,0,0-.04.02-.11.1-.12-.21,0-.82-.18-.76.16,0-.23-.47-.03-.72.07l.04-.17c-.21.21-.22.27-.51.32-.07-.02-.06-.13.03-.09-.23-.09-.18.15-.46.06l.11-.1c-.24-.02-.22.04-.35.16-.15.06-.45-.05-.48-.2-.03.09-.17.21-.31.17-.02-.06.03-.09.06-.11-.2-.06-.21-.01-.33.03-.09.04-.2.07-.22,0,.04-.05.05-.08.06-.1.14,0,.27.02.25.03.03-.15-.02-.18.11-.39-.03.06-.1.15-.2.21-.08.06-.24.14-.17.03.02-.02.03-.03.05-.06h.02s0-.04-.02-.04c.03-.04.05-.07.05-.09.13-.07.07-.09.08-.13-.17.02-.14-.06-.28.01.01-.01.02.01.03.05,0,0,0,.02.02.02h-.01s0,.09,0,.14c-.09,0-.15-.05-.06-.15-.11-.01-.22-.06-.27-.1.24-.16.37-.5.52-.54-.09-.39-.05-.92-.36-1.16-.04-.11.09-.13.14-.17.03.06.03.14.07.17-.08-.22-.03-.65-.25-.71.1-.28.2.16.17-.23l.07.05c.35-.76-.57-1.21-.14-2.05-.03.06-.04.09-.07.1.17-.96-.26-1.94,0-2.89.05-.27-.1-.29-.21-.44l.18-.07-.23-.26c-.18-.38.39-.71.06-1.19l-.11.07c0-.18-.12-.56.02-.54-.02-.02-.13-.05-.08-.12h.09s-.2-.44-.2-.44c.03-.35.38.01.34-.48-.06-.18-.33-.49-.38-.42,0,.07-.04.2-.13.21l-.07-.16c-.28,0-.58-.09-.72.33l.2.27-.12.11-.03-.24c-.11.15,0,.22.1.31-.07.03-.11.08-.14.13l.29.25c-.1.04-.23-.1-.27.09.14.12.23-.15.33.06-.11.15-.22.12-.1.27-.07.03-.12,0-.15-.06.1.13.07.37.22.43-.14.16.08.48-.18.48.07.04.23.23.25.36-.33-.21.02.49-.32.45.29.16.17.63.35.93-.02-.02-.07-.05-.06-.08-.01.18-.09.23-.14.35.24,0,.3.28.45.42-.21.23-.28-.12-.49-.04.19-.02.21.37.36.28-.13.17-.06.15-.25.24.29.02.06.15.24.28-.13.25-.27.07-.17.33-.08.13-.2-.1-.2-.1ZM5.51,21.29h0c0-.07,0-.14,0-.18,0,.04,0,.09,0,.18ZM6.21,21.38c-.09,0-.21-.01-.33-.01.02-.06.09-.12.16-.11-.07.04.08.07.17.12ZM6.72,20.06s-.01.03-.05.05c0-.01,0-.02-.02-.04h-.02s.06,0,.08-.01Z"/>
    <path class="cls-1" d="M6.5,20.06s-.01,0-.01-.02c-.01.01-.03.02-.04.03h.05s0-.02,0-.02Z"/>
    <path class="cls-1" d="M15.99,8.06h.01s-.02,0-.03-.02c0,0,0,.01.01.02Z"/>
    <polygon class="cls-1" points="13.75 21.81 13.75 21.77 13.7 21.81 13.75 21.81"/>
    <path class="cls-1" d="M13.04,7.7s-.02-.03-.04-.04c0,.01.02.02.04.04Z"/>
    <path class="cls-1" d="M11.78,7.75l-.18-.05c.08.03.14.04.18.05Z"/>
    <path class="cls-1" d="M10.81,7.74s-.01.05-.01.07h0s.01-.07.01-.07Z"/>
    <path class="cls-1" d="M26.18,6.43h.05c.15-.05.04-.03-.05,0Z"/>
    <path class="cls-1" d="M21.62,7.15s.09-.07.14-.09c-.08,0-.15,0-.14.09Z"/>
    <polygon class="cls-1" points="28.49 11.35 28.49 11.35 28.49 11.38 28.49 11.35"/>
    <path class="cls-1" d="M21.98,7.05c-.08-.03-.15-.02-.21.01.07,0,.15.02.21-.01Z"/>
    <path class="cls-1" d="M6.61,7.96h-.05s0,.02,0,.02l.05-.02Z"/>
    <path class="cls-1" d="M6.56,7.99l-.05.02s.04,0,.05-.02Z"/>
    <path class="cls-1" d="M6.4,8.06l.11-.05s-.08,0-.11.05Z"/>
    <path class="cls-1" d="M7.89,7.95v-.06s0,.03,0,.06Z"/>
    <path class="cls-1" d="M8.28,7.9c-.09,0-.24-.11-.37-.07v.05c.05-.09.29.12.37.02Z"/>
    <path class="cls-1" d="M9.96,8.53l-.33-.03c.06.06.14.14,0,.17.42.16-.1-.14.33-.14Z"/>
    <path class="cls-1" d="M10.98,8.55c-.17.04,0,.09,0,.13.11-.07.13-.08,0-.13Z"/>
    <path class="cls-1" d="M18.28,8.03v.15c.13-.03,0-.06,0-.15Z"/>
    <polygon class="cls-1" points="19.62 7.14 19.49 7.06 19.43 7.2 19.62 7.14"/>
    <polygon class="cls-1" points="20.53 8.17 20.47 8.19 20.69 8.12 20.53 8.17"/>
    <path class="cls-1" d="M27.19,12.93l.18-.06c-.04-.09-.26-.08-.18.06Z"/>
    <path class="cls-1" d="M27.97,18.19c-.09.07-.13.22-.03.3,0-.12.06-.25.03-.3Z"/>
    <polygon class="cls-1" points="15.19 20.33 15.3 20.27 15.09 20.32 15.19 20.33"/>
  </g>
  <g>
    <path class="cls-1" d="M16.81,27.01c.05,0,.17-.01.14-.02h-.2s.05.02.05.02Z"/>
    <path class="cls-1" d="M17.17,26.94c-.1,0-.26,0-.44.02.19,0,.11,0,.34,0,.02,0-.06.02-.13.02.05,0-.04.01.08.01.15-.02.16-.03.03-.04.04,0,.09,0,.13,0Z"/>
    <path class="cls-1" d="M17.42,26.16h-.02s.02,0,.02,0Z"/>
    <path class="cls-1" d="M17.49,25.68s.02,0,.04,0c-.01,0-.03,0-.04,0Z"/>
    <path class="cls-1" d="M17.69,25.58s-.01,0-.01,0c.02,0,.03,0,.01,0Z"/>
    <path class="cls-1" d="M17.42,26.16l.06-.02c-.06,0-.05.01-.06.02Z"/>
    <path class="cls-1" d="M16.69,26.87s.03,0,.05,0c0,0-.02,0-.02,0h-.03Z"/>
    <path class="cls-1" d="M17.6,26.35h0s.05,0,.08,0h-.08Z"/>
    <path class="cls-1" d="M17.64,26.51s-.16,0-.23.01c.07,0,.1,0,.12,0,.03,0,.07,0,.12-.01Z"/>
    <path class="cls-1" d="M17.37,26.78h.02s-.02,0-.02,0Z"/>
    <path class="cls-1" d="M17.62,26.24s.05,0,.06,0h-.06Z"/>
    <path class="cls-1" d="M15.8,22.04s.02,0,.03,0c-.02,0-.03,0-.03,0Z"/>
    <polygon class="cls-1" points="16.58 21.71 16.59 21.71 16.68 21.69 16.58 21.71"/>
    <path class="cls-1" d="M17.89,25.41h0s.02,0,0,0Z"/>
    <path class="cls-1" d="M17.61,24.07c-.15.03-.19,0-.36.04.06-.01.26-.01.36-.04Z"/>
    <path class="cls-1" d="M16.71,26.86h0s0,0,0,0Z"/>
    <polygon class="cls-1" points="17.26 24.12 17.26 24.12 17.24 24.12 17.26 24.12"/>
    <path class="cls-1" d="M17.76,25.08s-.05,0-.07.01c.02,0,.04,0,.07-.01Z"/>
    <path class="cls-1" d="M17.55,25.36h.02s-.02,0-.02,0Z"/>
    <path class="cls-1" d="M17.51,24.98s.04,0,.01-.01h-.02s.03,0,0,.01Z"/>
    <polygon class="cls-1" points="17.49 24.84 17.46 24.85 17.47 24.85 17.49 24.84"/>
    <path class="cls-1" d="M15.95,22.42s.1-.02.15-.03c-.12.02-.16.01-.15.03Z"/>
    <path class="cls-1" d="M16.79,26.86s-.06,0-.07,0h0s.05,0,.06,0Z"/>
    <path class="cls-1" d="M16.19,25.12l.02-.02s-.02.02-.02.02Z"/>
    <path class="cls-1" d="M16.12,23.36h-.02s0,0,.02,0Z"/>
    <path class="cls-1" d="M16.18,25.04c.06-.01.09-.02.11-.02-.01,0-.02,0-.04,0l-.07.02Z"/>
    <path class="cls-1" d="M16.1,22.39h0s0,0,0,0Z"/>
    <path class="cls-1" d="M15.68,22.32s.21-.03.34-.05c.07.01-.16.04-.27.07.06,0,.26-.02.25,0-.04,0-.05,0-.09.02.18-.01.02.04.24.03h-.05c.11,0,.22-.03.3-.04,0,0,.14,0,0,.02,0,0-.05,0-.1,0h.06c-.2.04-.07,0-.22.02.07,0,.24,0,.19.02-.2.04-.07-.02-.25.03l.07-.03c-.31.07.02-.02-.31.06-.05.04.11.01.05.05.11-.02.16-.03.28-.04.21,0-.5.12-.23.1.13-.02.39-.05.26-.01l-.23.03s.33-.04.18.02c-.09,0-.08,0-.1,0-.18.05.13,0,.13,0l-.2.04s.19.03.23.06c-.06,0-.12.01-.18.03.11.02,0,.09-.12.15h.18s-.08,0-.11,0c-.06.03.11-.02.18-.02.01,0-.1.03-.15.03.15,0,.33.03.15.09h-.05c-.07.04.36-.03.2.02h-.03c-.07.06.1.09-.16.17.25-.03-.1.07.24.01-.17.05-.23.06-.34.11-.01.01.22-.02.26-.01l-.18.03h.19s-.22.03-.22.03h.05s.08-.02.13-.02c.09,0-.12.07-.21.08l.16.02c-.07.01-.1,0-.15,0,.19,0-.19.03-.02.03.04,0,.11-.01.15-.02-.11.03-.11.05-.06.06l-.13.02s.07.06.07.1c.06-.02.27-.05.3-.04l-.19.03c.12-.01.07-.02.22-.03-.02.02-.22.04-.28.04h.07c-.06.01-.09.02-.16.03.12-.01-.19.06.02.04h-.06s.07.05.09.08c.17-.02.13,0,.27-.02-.05.03-.18.07-.16.1.09,0,.14-.01.24-.02-.15.02-.13.05-.24.05.03.03.04.04.16.06.06-.01.09-.02.14-.03.03,0-.06.03-.13.03h-.02c.23.02-.43.17-.11.16h-.02s.17.02.17.02c-.02.02-.12,0-.21.03.26,0-.03.07.14.08-.44.08.04.09-.24.16l.1-.02c.1,0-.06.02-.08.03.08-.01.09-.02.15-.02.14.06-.13.18-.22.27-.02.03.55-.05.3.02h-.2c.24.04,0,.13.21.17-.05,0-.1,0-.1,0-.14.03,0,.05.11.03-.01.01-.1.01-.16.03-.08.02.18,0,.04.03-.02,0-.05,0-.06,0,.07,0-.01.04.15.01-.08.03.08.03-.02.06.18,0-.08.05.18.02-.27.03-.21.06-.08.06-.08,0-.08.02-.2.03,0,.02.06.02.19,0-.32.06.26.03-.14.09.15.03.25.06.32.1-.27.03-.03-.04-.31-.01.11.03.35.03.29.07-.04.01-.12,0-.16,0,.11.03-.02.08.13.1-.02,0-.05,0-.07,0,0,0-.04.02.08,0h-.03c.18-.03.37-.01.46-.02-.35.02-.08.04-.53.07.02,0,.08,0,.16,0-.02,0-.07.02-.16.02.07.02.2,0,.2.02-.06,0-.08,0-.15,0,.12,0,.23,0,.18.02-.04,0-.08,0-.08,0,.02.03.31.02.2.07-.26.01-.08.02-.3.04h.07s.11,0,.11,0c0,.02.16.02.09.04h-.09s.04.02.04.02l.08-.03c.12,0,.28-.03.22,0-.02,0,0,.02-.13.04h0c.07,0,.15,0,.09.02-.07,0-.24.02-.29.03.19,0,.06.03.25.03-.05,0-.16.01-.19.02h.15s-.07,0-.16.02c-.03.03.28-.03.16,0-.01,0-.03,0-.06,0-.06.03.1.05.03.08-.22.03-.06-.02-.24,0,.04.03.27.05.22.09h.02c.32-.03-.15.03,0,.04-.02,0-.11,0-.14,0-.05.03.08.04.18.07h-.08c-.07.02-.04.04-.07.06.08,0,.07,0,.19,0-.46.09.26.07-.13.15,0,0-.07,0-.07,0l.08.03c.14-.01.08-.01.19-.03.08,0,.15,0,.15.01-.09,0-.22.02-.3.03.04,0,.09,0,.13-.01-.24.04.28-.02.11.02h-.07s.13.01.11.02c-.16.02-.07,0-.21,0,.01.01.3,0,.15.03-.04,0-.05,0-.09-.01-.19.03-.14.03-.17.04h0s-.08.03-.08.03h.05c.42-.02.08.02.35.03-.26,0-.15,0-.33.02-.05.01-.1.02-.16.03.15,0-.11.03.1.03-.06,0,0,.01-.15.02.05.01.1-.01.17-.02.2,0-.24.07.04.09.11.02.31.01.41.03-.09.02-.21,0-.21,0-.08.02-.07.03,0,.04-.05,0-.09,0-.16.02.02.01.21,0,.13.01-.06,0-.17,0-.23,0,.05,0,.16.02.22.02-.1.01-.15,0-.22,0,.05.01.09.03.25.03h.06s-.14,0-.17,0c-.13,0,.05-.02.11-.03h.04c.34-.03-.06-.03-.04-.05h.25s-.21-.01-.21-.01c.06,0,.2-.02.24-.01.12-.02-.09,0,.05-.03.02,0,.03,0,.04,0h-.07c.05,0,.17-.02.14-.01.14-.04-.19-.03,0-.05h.02c-.09-.03-.18.01-.4,0l.45-.05h-.18s.02,0,.09,0c-.13,0-.08,0-.2,0,.16-.03-.08-.04.21-.07-.14,0-.11.02-.2.01.31-.03-.05-.02.09-.04.16,0,.08.01.22-.01-.27.01.06-.04,0-.04-.22.02-.09-.02-.17-.04.07,0,.12-.05.19-.08h.04c-.22.01-.18-.01-.23-.03.13-.01.18-.01.24,0h0c-.07-.01-.11-.01-.13-.02h.16s-.2-.03-.09-.07c-.15.01-.42.06-.53.04.08,0,.22-.02.26-.02-.01,0-.07,0-.03,0h.14c.06-.02-.12,0-.1,0,.12-.01.08,0,.18-.02.01,0-.05.01,0,.01.02-.01.09-.03.18-.04-.07,0-.16.01-.17,0-.01-.02.14-.02.2-.04-.08,0,0-.02-.17,0,0,0,.08-.01.13-.02-.08,0-.03-.05-.21-.02h-.01s0,0,0,0h0s0,0,0,0c-.18-.02.09-.08.02-.1h.06c-.07-.02-.04-.04-.17-.05,0,0,.11-.02.18-.03-.05-.01-.11,0-.02-.04.1,0,.09-.01.08,0,.05-.02.14-.04-.02-.04.15,0,.19-.03.14-.04l-.11.02s-.01-.02,0-.03h.2c.24-.08-.42-.05-.02-.11-.14,0-.1.03-.26.04.02-.02.31-.07.31-.07.11-.04-.29,0-.22-.03-.07.01-.26.03-.33.02.02-.02.29-.05.35-.04,0,0-.02,0-.04.01.03,0,.06,0,.13,0h-.07c.07-.01.06-.04.18-.04-.07,0-.12,0-.15.02.1-.03,0-.04.07-.07-.04,0-.12.02-.12.02.08-.04-.14,0-.17-.02.11-.02.26-.02.16-.04.07-.02.19-.02.24-.02-.14,0,.08-.05.11-.07h.06s-.03,0-.03,0l-.14.02s.02-.02.08-.02c-.09,0-.23.03-.36.03.07-.02-.08-.02.11-.04-.06.04.19-.02.22,0-.02,0-.02,0,0-.02.02,0,.04,0,.05,0,.16-.04-.21,0-.21-.02.11,0,.2-.03.18-.03,0,.01-.17.02-.26.02.08-.03-.06-.01-.05-.02h-.04c-.11.02-.09.01-.13,0,.08,0,.06,0,.09,0-.19,0,.19-.05.06-.06.07-.01.2-.03.25-.03-.14,0,.14-.04.03-.05-.14.02-.11.02-.25.02l.1.03h-.21s.09.01.07.02c-.12,0-.08,0-.2.02.21-.04-.13-.02.01-.05l.35-.04c.15-.04-.19-.03-.1-.07l-.06.02c-.14.01-.02-.02-.08-.02.12-.01.16-.02.23-.04-.09.01,0-.03-.23,0l.15-.03c.06-.04-.34,0-.3-.03.13,0,.21-.03.3-.02,0,0,.02-.02-.06-.01.07-.01-.16,0-.05-.03-.05,0-.17.01-.17,0,.02,0,.06,0,.06,0-.06,0-.08,0-.21.02.36-.07-.04-.08.27-.14-.04-.02-.08-.04-.09-.05.04,0,.06,0,.05,0,.11-.04-.34.02-.22-.02.19-.04.1,0,.17-.01.38-.05-.06-.03.17-.07h.02c.13-.03-.15-.02-.13-.04,0,0,.03,0,.06,0-.2,0-.27-.02-.32-.03.15-.01.08,0,.23-.02-.02,0-.25.03-.29.02.08-.02.15-.04.31-.06v.02c.22-.04,0-.02.04-.04h.09s-.27,0-.25-.04h-.07c-.23.02.13-.02-.05-.01l.23-.03c-.06,0-.23-.01-.28-.03.17-.01.27,0,.37,0,0-.01-.02-.04-.14-.03.02,0,.08,0,.05,0-.19,0-.28,0-.28-.02.45-.05.11-.07.46-.13-.17-.02.06-.09.03-.13-.35.06-.01-.01-.37.04-.02,0-.02-.01,0-.02l.21-.06c.1-.02.08,0,.16-.01.02-.03.15-.03.25-.06-.13.02-.19.02-.14,0l-.16.04c-.2,0,.3-.07.1-.08h.12c-.07-.01,0-.07-.3-.05.04,0,.14-.03.17-.02.04-.05-.32-.05-.15-.11h.09s-.17,0-.08-.02c.04,0,.09,0,.09-.01-.03,0-.16,0-.11-.02h.1c.11-.06-.25-.03-.32-.06.26-.04.34-.08.38-.1h.04c.03-.06-.23-.05-.34-.08.28-.07.1-.11.26-.18-.05.01-.2.03-.23.03.05-.02-.18,0,.05-.04h0c.23-.04.17-.05.17-.07l-.31.04c.45-.11-.18-.09.22-.17-.08,0-.08-.01-.16,0l.17-.03s.06-.05.01-.08h.12s-.48.04-.5.02l.25-.04s.2-.1-.03-.1c.04,0,.11-.02.12-.01,0-.02.16-.09-.18-.03.22-.04.02-.04-.08-.04l.16-.02c-.21.02-.27.03-.33.01.02,0,.13-.03.09-.01.08-.03-.16.01-.07-.02h.11s-.05-.02-.17,0c-.07,0,.04-.04.18-.07-.09.01-.21.02-.17,0,.06-.01.09-.01.11-.01.11-.05-.2-.01-.04-.06.05-.01.08-.02.1-.02,0,.02,0,.04-.02.05.15-.02.17-.05.39-.07-.12,0-.37.02-.3-.01.01,0,.03,0,.05-.01h.02s0,0-.03,0c.02-.01.04-.02.04-.02.12-.02.06-.03.07-.04-.17.03-.14.01-.28.05.01,0,.02,0,.03,0,0,0,0,0,.02,0h-.01s.01.01.02.02c-.09,0-.16.01-.07-.02-.11.01-.22.03-.27.03.23-.06.35-.09.49-.13-.1-.01-.07-.06-.39-.02-.04,0,.09-.02.14-.04.03,0,.03,0,.07,0-.08,0-.04-.04-.26-.01.09-.04.2-.02.16-.05h.07c.34-.12-.57,0-.14-.14-.03,0-.04.01-.07.02.18-.11-.21-.11.09-.24.06-.03-.08,0-.19,0l.18-.04-.21.02c-.15,0,.43-.13.14-.12l-.12.03s-.08-.03.06-.05c-.02,0-.12.02-.06,0l.09-.02h-.16c.06-.04.37-.07.38-.11-.04,0-.28.01-.34.03,0,0-.06.02-.15.04h-.05c-.27.05-.55.09-.74.15h.17s-.13.02-.13.02v-.02c-.13.03-.02.02.05.01-.07.01-.12.03-.14.04l.26-.03c-.11.02-.21.03-.27.05.12-.01.24-.05.32-.05-.12.03-.22.05-.12.04-.07.01-.12.02-.15.02.09,0,.04.02.19,0-.15.04.05.03-.21.07.06,0,.21-.02.22-.01-.31.04-.01.04-.34.1.28-.04.13.02.29.02-.02,0-.07,0-.05,0-.02.02-.1.04-.15.05.23-.04.29-.03.43-.04-.22.06-.27.04-.48.08.19-.03.19,0,.35-.04-.14.04-.06.02-.25.06.29-.05.05,0,.23-.02-.14.04-.27.05-.18.06-.09.02-.19.03-.19.03ZM16.26,22.7h0s-.01,0-.01,0c0,0,0,0,.01,0ZM16.27,22.74s0-.01,0-.02c.06-.01.12-.02.11-.01-.04,0-.07.02-.12.03ZM17.4,22.47s0,.01-.04.02c0,0,0,0-.02,0h-.02s.06,0,.08,0Z"/>
    <path class="cls-1" d="M17.18,22.49h-.01s-.03,0-.04,0h.05s0,0,0,0Z"/>
    <path class="cls-1" d="M17.39,26.17h0s-.01,0-.02,0h.02Z"/>
    <polygon class="cls-1" points="16.04 23.33 16.08 23.33 16.04 23.33 16.04 23.33"/>
    <path class="cls-1" d="M16.84,26.44h-.04s.03,0,.04,0Z"/>
    <path class="cls-1" d="M16.81,26.53l-.06.02s.05-.02.06-.02Z"/>
    <path class="cls-1" d="M16.73,26.61s.05,0,.07,0h0s-.07,0-.07,0Z"/>
    <path class="cls-1" d="M16.43,25.48h0s-.02,0,0,0Z"/>
    <path class="cls-1" d="M16.86,25.78s-.06,0-.08,0c-.01,0-.02.01.08,0Z"/>
    <polygon class="cls-1" points="16.19 25.12 16.19 25.12 16.19 25.12 16.19 25.12"/>
    <path class="cls-1" d="M16.78,25.76s-.03.01,0,.02c.01,0,.03-.01,0-.02Z"/>
    <path class="cls-1" d="M16.68,26.93h0s.02,0,.03,0h-.02Z"/>
    <path class="cls-1" d="M16.7,26.94h.02s0,0-.02,0Z"/>
    <path class="cls-1" d="M16.76,26.94h-.04s0,0,.04,0Z"/>
    <path class="cls-1" d="M16.75,26.83h-.06s.03,0,.06,0Z"/>
    <path class="cls-1" d="M16.73,26.8s-.13.03-.09.03h.05c-.09,0,.14-.03.04-.03Z"/>
    <path class="cls-1" d="M17.47,26.63l-.05.03c.06,0,.15-.02.17-.01.19-.05-.14.02-.12-.02Z"/>
    <path class="cls-1" d="M17.56,26.54s.09,0,.13,0c-.06,0-.07,0-.13,0Z"/>
    <path class="cls-1" d="M17.51,25.98h.15s-.06,0-.15,0Z"/>
    <polygon class="cls-1" points="16.72 25.95 16.62 25.97 16.76 25.96 16.72 25.95"/>
    <polygon class="cls-1" points="17.79 25.78 17.82 25.79 17.76 25.77 17.79 25.78"/>
    <path class="cls-1" d="M17.64,24.85l-.19.02s.24-.02.19-.02Z"/>
    <path class="cls-1" d="M17.4,24.47c.09-.02.15-.03.06-.03-.01.01-.08.03-.06.03Z"/>
    <polygon class="cls-1" points="17.54 23.21 17.6 23.21 17.55 23.2 17.54 23.21"/>
  </g>
  <g>
    <path class="cls-1" d="M22.72,27.39c0-.05,0-.17,0-.14l-.02.2.03-.05Z"/>
    <path class="cls-1" d="M22.64,27.02c-.02.09-.05.26-.04.44.03-.19.02-.11.05-.33.02-.02.02.06.02.14,0-.05.02.04.03-.08-.01-.15-.04-.16-.07-.04,0-.04,0-.09,0-.13Z"/>
    <path class="cls-1" d="M21.18,26.67v.02s0-.02,0-.02Z"/>
    <path class="cls-1" d="M20.26,26.55s.01-.02.01-.04c0,.01-.01.02-.01.04Z"/>
    <path class="cls-1" d="M20.11,26.33h0s0-.01,0,0Z"/>
    <path class="cls-1" d="M21.18,26.67l-.02-.06c0,.06.01.05.02.06Z"/>
    <path class="cls-1" d="M22.42,27.49s.01-.03.02-.05v.02s-.02.03-.02.03Z"/>
    <path class="cls-1" d="M21.58,26.52h0s0-.05,0-.08l-.02.08Z"/>
    <path class="cls-1" d="M21.89,26.5s-.01.16-.02.23c0-.07.01-.1.02-.11,0-.03,0-.07,0-.12Z"/>
    <path class="cls-1" d="M22.37,26.81v-.02s0,.02,0,.02Z"/>
    <path class="cls-1" d="M21.36,26.48s0-.05,0-.06v.06Z"/>
    <path class="cls-1" d="M12.81,27.97s0-.02,0-.03c0,.02,0,.03,0,.03Z"/>
    <polygon class="cls-1" points="12.39 27.18 12.39 27.17 12.39 27.07 12.39 27.18"/>
    <path class="cls-1" d="M19.83,26.11h0s0-.01,0,0Z"/>
    <path class="cls-1" d="M17.19,26.26c.03.15-.04.19,0,.36,0-.07.03-.26,0-.36Z"/>
    <path class="cls-1" d="M22.41,27.47h-.01s0,0,.01,0Z"/>
    <polygon class="cls-1" points="17.2 26.62 17.2 26.62 17.2 26.63 17.2 26.62"/>
    <path class="cls-1" d="M19.16,26.21s0,.05,0,.07c0-.02,0-.04,0-.07Z"/>
    <path class="cls-1" d="M19.66,26.45v-.02s0,.02,0,.02Z"/>
    <path class="cls-1" d="M18.91,26.45s0-.04-.02-.01v.02s.01-.03.02,0Z"/>
    <polygon class="cls-1" points="18.64 26.45 18.65 26.48 18.66 26.47 18.64 26.45"/>
    <path class="cls-1" d="M13.6,27.83s-.01-.1-.02-.15c.01.12-.02.16.02.15Z"/>
    <path class="cls-1" d="M22.42,27.4s0,.06-.01.07h0s0-.06,0-.07Z"/>
    <path class="cls-1" d="M18.91,27.77l-.04-.02s.03.02.04.02Z"/>
    <path class="cls-1" d="M15.47,27.7v.02s0,0,0-.02Z"/>
    <path class="cls-1" d="M18.74,27.77c0-.06-.02-.09-.02-.12,0,.01,0,.02,0,.04l.03.07Z"/>
    <path class="cls-1" d="M13.57,27.68h0s0,0,0,0Z"/>
    <path class="cls-1" d="M13.33,28.1s0-.22,0-.34c.04-.07.03.16.06.27.03-.06.03-.26.06-.26,0,.04,0,.05,0,.09.02-.18.09-.02.11-.24v.05c0-.11-.01-.22-.02-.3.02,0,.02-.14.04,0-.01,0,0,.05,0,.1v-.06c.05.21,0,.07,0,.23.03-.07.06-.24.09-.19.02.2-.06.07-.01.25l-.05-.07c.06.32-.03-.02.03.32.06.05.06-.11.12-.05,0-.11-.02-.17-.01-.28.07-.21.1.5.14.23,0-.14,0-.39.05-.26v.23c.06.02.01-.33.08-.18,0,.09-.04.08-.03.11.05.18.02-.13.05-.13l.02.2c.06-.04.11-.19.17-.23,0,.06,0,.12.01.19.07-.11.18.01.26.13l.02-.18s.02.08.01.11c.03.06,0-.11,0-.18.02-.01.03.1.02.15.05-.15.14-.33.2-.14v.05c.04.07.02-.36.07-.2v.03c.09.07.19-.1.28.16,0-.25.1.11.09-.24.06.17.05.23.13.35.02.02.02-.22.04-.26v.18s.03-.19.03-.19l.03.22.02-.05s-.02-.08-.03-.13c.03-.08.1.12.1.22l.08-.16c0,.07-.01.1-.02.15.04-.19.02.19.05.02,0-.04,0-.11,0-.15.03.11.08.11.11.06v.13c.07.03.13-.07.21-.07-.03-.06-.03-.28-.01-.3l.02.19c0-.12-.03-.07,0-.22.03.02.03.22.01.28l.03-.07c0,.06,0,.09,0,.16,0-.12.07.19.08-.02v.06c.08,0,.11-.07.17-.08,0-.17.02-.13.03-.27.05.05.1.18.15.17.03-.08,0-.14.02-.24,0,.15.06.14.04.25.06-.03.08-.03.16-.16-.01-.06-.02-.09-.02-.14.01-.03.04.06.04.14v.02c.08-.23.22.44.28.12v.02s.07-.17.07-.17c.04.03-.02.12.01.21.07-.26.13.03.19-.14.06.45.18-.04.26.25v-.11c0-.1.02.06.03.08,0-.08-.02-.09-.01-.15.15-.13.32.15.47.24.06.03.02-.55.1-.3l-.02.2c.11-.24.23,0,.34-.2,0,.05,0,.1-.02.1.03.14.09,0,.09-.11.02.01,0,.11.02.16.02.08.06-.18.07-.04,0,.02,0,.05-.01.06.01-.07.07.02.06-.15.04.08.08-.07.11.02.02-.18.07.09.08-.17,0,.27.08.22.1.09,0,.08.02.08.01.2.03,0,.06-.05.05-.19.06.32.11-.26.14.15.09-.15.17-.24.26-.31,0,.27-.09.03-.09.31.08-.11.12-.34.2-.28.02.04-.01.12-.02.16.08-.11.15.03.22-.12,0,.03,0,.05-.01.07.01,0,.03.04.03-.08v.03c-.03-.18.04-.37.05-.46-.02.35.07.09.03.53,0-.02.02-.08.02-.16.01.02.02.07,0,.16.05-.07.03-.2.08-.19,0,.06,0,.08-.01.15.02-.12.05-.23.08-.18,0,.04,0,.08,0,.08.06-.02.11-.31.18-.19-.02.26.02.08.02.31l.04-.07v-.11s.05-.16.08-.08l-.03.09.06-.04-.03-.08c.03-.11,0-.28.04-.22,0,.02.03,0,.05.13h0c.02-.07.04-.14.06-.09,0,.07,0,.25,0,.29.02-.19.08-.05.1-.25,0,.05,0,.16,0,.19l.02-.15s.02.07.01.17c.05.03-.01-.28.04-.16,0,.01,0,.03-.01.06.05.06.11-.09.16-.02.01.22-.05.05-.03.24.07-.04.16-.27.23-.21v-.03c0-.32.04.16.08,0,0,.02-.02.18-.01.14.05.05.1-.08.18-.17v.08c.02.07.06.04.09.08.01-.08.03-.07.02-.19.08.46.19-.24.26.14-.01,0-.03.07-.02.07l.07-.07c0-.14,0-.08-.02-.19.01-.08.03-.14.05-.14-.03.09,0,.22,0,.3v-.13c.04.25.02-.28.07-.11v.07s.04-.13.06-.11c0,.16-.02.07-.03.2.03,0,.07-.3.09-.14-.01.04-.03.04-.05.09.02.19.03.14.05.17h0s.05.08.05.08v-.05c.04-.41.07-.07.12-.34-.06.26-.01.15-.02.33.01.05.03.11.02.16.03-.14.03.12.07-.1,0,.06.02,0,.01.15.03-.04,0-.1,0-.17.05-.2.1.24.18-.03.06-.11.08-.31.14-.4.01.09-.02.21-.02.21.03.09.05.07.08,0,0,.05,0,.09,0,.16.02-.01.02-.21.05-.12,0,.06-.02.17-.03.23.03-.05.06-.16.09-.21,0,.1-.02.15-.03.22.03-.04.08-.09.1-.25l-.02-.06s0,.14,0,.17c-.03.12-.03-.06-.03-.12l.02-.04c0-.34-.08.05-.12.03l.03-.25-.05.2c0-.06,0-.2.01-.24-.02-.12-.03.09-.05-.05,0-.02,0-.03,0-.04l-.03.07c0-.05,0-.18.02-.14-.04-.14-.09.18-.1,0v-.02c-.07.08,0,.18-.07.39l-.02-.45v.18s-.03-.02-.03-.09c-.03.12,0,.08-.02.2-.03-.17-.09.07-.09-.22-.02.14.03.11-.01.2,0-.31-.04.05-.07-.09.01-.16.04-.07.01-.22-.03.27-.06-.06-.09-.01,0,.22-.06.09-.1.16,0-.07-.08-.12-.12-.2v-.04c-.01.22-.05.18-.08.22,0-.13.01-.18.03-.24h-.03c0,.07-.02.11-.04.13v-.16s-.07.19-.12.08c0,.15.03.43-.03.53,0-.08,0-.22.02-.26,0,.01-.02.07-.03.03l.02-.14c-.02-.06-.01.12-.03.1,0-.12-.01-.08,0-.18,0-.01.01.05.02,0-.02-.02-.04-.09-.05-.18,0,.07,0,.16-.02.17-.04,0,0-.14-.03-.2-.01.08-.03,0-.04.17-.01,0-.01-.08-.01-.13-.02.08-.09.02-.07.21h0s0,.02,0,.02h0,0c-.07.17-.13-.1-.2-.03v-.06c-.04.07-.08.04-.11.16-.01,0-.02-.11-.02-.18-.03.04-.03.11-.07.01.03-.1,0-.09.03-.07-.04-.05-.04-.15-.09.01.02-.15-.03-.19-.04-.15l.02.11s-.04,0-.06,0v-.2c-.06-.24-.13.41-.19,0-.02.14.04.1.02.26-.04-.03-.07-.31-.08-.31-.05-.11-.05.29-.1.21,0,.07,0,.26-.03.33-.04-.03-.04-.3-.02-.35,0,0,.01.02.01.04.01-.03.03-.06.01-.13v.07c-.02-.07-.07-.07-.06-.18-.03.07-.01.12,0,.15-.04-.1-.07,0-.12-.07,0,.04.01.12,0,.12-.07-.09-.03.13-.08.16-.03-.11.01-.26-.04-.17-.03-.07,0-.19,0-.25-.04.14-.08-.09-.1-.12l.02-.06s-.02.03-.04.03v.14s-.01-.03-.01-.08c-.01.09,0,.24-.02.36-.02-.07-.05.08-.06-.11.06.06,0-.19.04-.22,0,.02-.02.02-.03,0,0-.02,0-.04,0-.05-.05-.17-.03.21-.08.21,0-.11-.01-.2-.02-.18.02,0,0,.18-.01.26-.03-.08-.04.06-.06.05l.02.04c0,.11-.03.09-.05.12,0-.08.02-.06.01-.09-.03.19-.06-.19-.1-.07-.02-.07,0-.2-.02-.25-.04.14-.05-.14-.09-.03.01.14.02.11-.02.25l.07-.1-.05.21s.05-.09.06-.07c-.02.12-.02.08-.01.2-.03-.21-.06.12-.1-.02v-.35c-.05-.16-.09.18-.16.09l.02.06c0,.14-.04.02-.06.08,0-.12-.01-.16-.02-.23,0,.09-.05,0-.06.23l-.03-.15c-.06-.06-.06.34-.12.3.02-.13,0-.21.03-.3-.02,0-.03-.02-.03.06-.01-.07-.05.16-.07.05,0,.05,0,.17-.03.17,0-.02,0-.06,0-.06,0,.06-.03.08-.01.21-.06-.37-.15.03-.2-.29-.04.04-.09.08-.12.09,0-.04,0-.06,0-.05-.05-.11-.03.34-.08.22-.03-.19.03-.1,0-.17-.01-.39-.07.05-.11-.17v-.02c-.02-.13-.06.15-.11.12,0,0,0-.03,0-.06-.03.2-.09.26-.13.32.01-.15.02-.08,0-.23-.02.02,0,.25-.03.29-.01-.08-.04-.15-.05-.32h.04c-.02-.22-.05,0-.07-.04v-.09c-.06.03-.05.27-.12.25v.07c-.02.23-.02-.13-.05.04v-.24c-.04.06-.09.23-.13.27.02-.17.06-.26.09-.37-.02,0-.08.02-.08.13,0-.02.02-.08.03-.04-.02.19-.06.28-.1.27,0-.46-.12-.11-.16-.47-.07.17-.16-.07-.25-.04.04.35-.03.01-.01.37-.02.02-.03.02-.03,0l-.07-.22c-.02-.11.02-.08.01-.16-.05-.03-.02-.15-.06-.25,0,.13-.01.19-.04.14l.04.17c-.06.2-.07-.3-.13-.11l.02-.12c-.03.07-.13,0-.15.29,0-.04-.02-.14,0-.17-.08-.04-.17.32-.24.14v-.09s-.02.17-.04.08c0-.04,0-.09,0-.09,0,.03-.03.16-.06.11v-.1c-.07-.11-.1.25-.16.31,0-.26-.07-.35-.11-.39v-.04c-.09-.03-.15.22-.23.33-.06-.28-.18-.11-.28-.27.02.05,0,.2,0,.23-.02-.05-.05.18-.05-.06h0c-.03-.23-.06-.17-.1-.17v.31c-.1-.45-.2.18-.27-.23-.02.08-.04.08-.06.16v-.17c-.07-.04-.09-.06-.16-.02v-.12s-.02.49-.05.5l-.02-.25c-.07,0-.15-.21-.2.02,0-.04,0-.11,0-.12-.03,0-.13-.16-.1.18-.01-.22-.07-.02-.1.08v-.17c-.02.21-.02.27-.06.33-.01-.02-.02-.13,0-.09-.04-.08-.02.16-.06.07v-.11s-.02.05-.03.17c-.02.07-.07-.04-.08-.19,0,.09-.01.22-.03.17,0-.06,0-.09,0-.11-.07-.11-.07.2-.13.04,0-.05,0-.08-.01-.1.05,0,.08,0,.08.02,0-.15-.05-.18-.03-.39-.02.12-.06.37-.1.3,0-.01,0-.03,0-.05v-.02s-.01,0-.02.03c-.01-.02-.02-.04-.03-.04-.01-.13-.05-.07-.07-.07.01.17-.01.14.02.28,0-.01,0-.02.01-.03,0,0,0,0,0-.02h0s.03,0,.05,0c0,.09-.02.16-.05.07,0,.11,0,.22,0,.27-.04-.23-.1-.35-.11-.5-.05.1-.13.07-.15.39-.01.04-.02-.09-.03-.14,0-.03.02-.03.02-.07-.03.08-.09.04-.09.26-.05-.1,0-.2-.04-.16v-.07c-.13-.34-.14.57-.29.13.01.03.02.04.02.08-.15-.19-.27.21-.44-.1-.04-.06-.04.08-.05.19l-.02-.18-.02.21c-.05.16-.14-.43-.19-.14l.02.12s-.08.08-.08-.06c0,.02,0,.13-.01.06v-.09s-.06.17-.06.17c-.06-.06-.02-.37-.1-.39-.02.04-.05.28-.04.34.01,0,.03.06.04.15l-.02.05c.02.28.02.56.1.75l.03-.17.02.13h-.03c.03.14.03.02.04-.05,0,.07.02.12.03.15l.02-.27c.01.11,0,.22.03.27,0-.12-.04-.24-.01-.32.03.12.03.23.05.12,0,.07,0,.12,0,.15.01-.09.05-.04.05-.19.03.15.07-.05.09.22,0-.06.02-.21.04-.22-.01.32.07.01.09.35,0-.28.08-.13.12-.29,0,.02,0,.07,0,.05.03.02.04.11.06.16-.01-.23.02-.29.03-.43.05.22,0,.27.03.49-.02-.19.04-.19.02-.35.03.14.03.07.05.26-.02-.29.02-.05.03-.23.05.14.03.27.06.18.03.09,0,.19,0,.19ZM14.22,27.53h0s-.01.01-.02.01c0,0,0,0,.02-.01ZM14.3,27.52s-.02,0-.03,0c0-.06,0-.12,0-.11,0,.04.02.07.03.12ZM14.06,26.38s.02,0,.02.04c0,0-.01,0-.02.02v.02s0-.06,0-.08Z"/>
    <path class="cls-1" d="M14.05,26.6h0s0,.04,0,.05v-.05s0,0,0,0Z"/>
    <path class="cls-1" d="M21.19,26.7h0s0,0,0,.02v-.02Z"/>
    <polygon class="cls-1" points="15.39 27.78 15.38 27.74 15.38 27.78 15.39 27.78"/>
    <path class="cls-1" d="M21.6,27.28v.04s0-.03,0-.04Z"/>
    <path class="cls-1" d="M21.79,27.33l.02.06s-.02-.05-.02-.06Z"/>
    <path class="cls-1" d="M21.93,27.41s0-.05,0-.07h0s0,.07,0,.07Z"/>
    <path class="cls-1" d="M19.66,27.57h0s0,.03,0,0Z"/>
    <path class="cls-1" d="M20.34,27.18s-.02.06-.02.08c.01.01.02.02.02-.08Z"/>
    <polygon class="cls-1" points="18.91 27.77 18.91 27.77 18.91 27.77 18.91 27.77"/>
    <path class="cls-1" d="M20.28,27.26s.02.03.03,0c0-.01-.02-.03-.03,0Z"/>
    <path class="cls-1" d="M22.54,27.51h0s0-.01,0-.02v.02Z"/>
    <path class="cls-1" d="M22.55,27.49v-.02s0,0,0,.02Z"/>
    <path class="cls-1" d="M22.58,27.43l-.02.04s.01,0,.02-.04Z"/>
    <path class="cls-1" d="M22.36,27.43v.06s0-.03,0-.06Z"/>
    <path class="cls-1" d="M22.3,27.44s.03.13.05.09v-.05c0,.09-.03-.15-.05-.05Z"/>
    <path class="cls-1" d="M22.08,26.68l.05.05c0-.07-.01-.15,0-.17-.05-.2,0,.15-.06.12Z"/>
    <path class="cls-1" d="M21.94,26.58s0-.09,0-.13c-.02.06-.02.07,0,.13Z"/>
    <path class="cls-1" d="M20.85,26.56v-.15s0,.06,0,.15Z"/>
    <polygon class="cls-1" points="20.63 27.34 20.65 27.44 20.66 27.3 20.63 27.34"/>
    <polygon class="cls-1" points="20.52 26.25 20.53 26.23 20.5 26.29 20.52 26.25"/>
    <path class="cls-1" d="M18.69,26.3v.19s.02-.24,0-.19Z"/>
    <path class="cls-1" d="M17.9,26.5c-.01-.09-.03-.15-.05-.06.02.01.04.09.05.06Z"/>
    <polygon class="cls-1" points="15.52 26.27 15.54 26.21 15.51 26.26 15.52 26.27"/>
  </g>
  <g>
    <path class="cls-1" d="M14.32,12.35c0,.05-.01.17,0,.15l.02-.2-.03.05Z"/>
    <path class="cls-1" d="M14.4,12.72c.02-.09.06-.26.06-.44-.03.19-.03.11-.07.33-.02.02-.02-.07-.01-.14,0,.05-.02-.05-.04.08,0,.15.03.16.07.04,0,.04,0,.09-.01.13Z"/>
    <path class="cls-1" d="M15.8,13.25v-.02s0,.02,0,.02Z"/>
    <path class="cls-1" d="M16.36,13.53s-.03.02-.05.03c.02,0,.03-.02.05-.03Z"/>
    <path class="cls-1" d="M16.2,13.71h.01s-.03,0-.01,0Z"/>
    <path class="cls-1" d="M15.8,13.25v.07c.03-.06,0-.05,0-.07Z"/>
    <path class="cls-1" d="M14.65,12.26s-.01.03-.02.05l.02-.02v-.03Z"/>
    <path class="cls-1" d="M15.39,13.32h0s-.01.05-.02.08l.03-.08Z"/>
    <path class="cls-1" d="M15.09,13.3s.03-.16.05-.23c-.01.07-.03.1-.03.11,0,.03,0,.07-.02.12Z"/>
    <path class="cls-1" d="M14.66,12.95v.02s0-.02,0-.02Z"/>
    <path class="cls-1" d="M15.59,13.4s0,.05-.01.06v-.06Z"/>
    <path class="cls-1" d="M13.91,13.29s.02,0,.03,0c-.02,0-.03,0-.03,0Z"/>
    <polygon class="cls-1" points="14.69 12.83 14.7 12.83 14.79 12.82 14.69 12.83"/>
    <path class="cls-1" d="M15.99,13.87h0s-.02,0,0,0Z"/>
    <path class="cls-1" d="M15.98,14.15c.12.1.12.15.25.26-.05-.05-.17-.2-.25-.26Z"/>
    <path class="cls-1" d="M14.66,12.29h.01s0,0-.01,0Z"/>
    <polygon class="cls-1" points="16.23 14.41 16.23 14.41 16.25 14.42 16.23 14.41"/>
    <path class="cls-1" d="M16.29,13.88c.06,0,.11-.02.15-.02-.03,0-.08.01-.15.02Z"/>
    <path class="cls-1" d="M16.56,13.71h-.03s.03,0,.03,0Z"/>
    <path class="cls-1" d="M16.88,13.87s-.08,0-.04,0c.02,0,.03,0,.05,0-.05,0-.07,0,0,0Z"/>
    <path class="cls-1" d="M16.76,13.93s.05,0,.07,0c0,0-.01,0-.01,0h-.06Z"/>
    <path class="cls-1" d="M14.09,14.08s.1-.02.15-.03c-.12.02-.16-.01-.15.03Z"/>
    <path class="cls-1" d="M14.65,12.36s.01-.06.02-.07c0,0,0,0-.01,0,0,.02,0,.05,0,.06Z"/>
    <path class="cls-1" d="M19.62,13.66v.03s.02-.02,0-.03Z"/>
    <path class="cls-1" d="M14.53,17.19l-.03.05s0,0,.03-.05Z"/>
    <path class="cls-1" d="M19.8,13.77c-.1.01-.17.02-.22.02-.02,0-.03,0-.05,0,.03,0,.05,0,.1,0h.08s.09-.03.09-.03Z"/>
    <path class="cls-1" d="M14.24,14.05h0s0,0,0,0Z"/>
    <path class="cls-1" d="M13.81,13.83s.22,0,.34-.01c.07.04-.16.04-.27.07.06.02.26.02.26.04-.04,0-.05.01-.09.01.18,0,.02.09.24.1h-.05c.11,0,.22-.02.3-.03,0,.02.14.02,0,.04,0-.01-.05,0-.1,0h.06c-.2.05-.07,0-.23.01.07.03.25.05.19.09-.2.03-.08-.06-.25,0l.07-.05c-.31.07.02-.03-.32.04-.05.06.11.05.07.17.11,0,.16-.04.28-.04.21.07-.48.23-.21.27.13-.02.38-.1.26.01l-.22.06c0,.11.32-.08.19.07-.09.03-.08-.04-.11-.01-.16.15.13-.01.13.03l-.19.11c.04.09.19.11.24.18-.06.04-.12.06-.17.13.11.07.01.31-.07.58l.16-.12s-.07.1-.1.12c-.05.12.1-.11.16-.15.01.02-.08.14-.13.18.14-.05.31-.11.16.21l-.05.05c-.05.17.31-.38.18-.1l-.03.03c-.04.26.11.17-.09.71.21-.39-.07.35.21-.24-.13.39-.18.47-.25.82,0,.07.18-.35.21-.38l-.14.35.16-.33-.17.46.05-.07s.06-.19.1-.3c.01-.02.02-.03.02-.02.03-.02-.04.26-.09.41l.23-.42c-.05.15-.09.22-.14.33.19-.43-.12.37.06-.03.02-.07.08-.22.1-.29-.04.19.03.12.11-.01l-.08.24c.09-.03.24-.3.35-.4-.02-.06.08-.44.11-.5l-.06.31c.06-.22,0-.1.08-.37.03,0-.05.34-.09.47l.07-.15c-.02.1-.03.15-.06.28.05-.21.04.23.12-.13v.09c.11-.11.17-.25.26-.35.02-.24.05-.22.08-.42.05.03.12.14.2.05.05-.15,0-.19.02-.33.02.18.09.1.06.27.09-.1.11-.13.19-.35-.03-.06-.05-.08-.05-.14.01-.04.06.04.07.12v.02c.02-.31.46.21.43-.17v.02s.02-.21.02-.21c.06-.01.04.12.13.17-.08-.26.2-.1.18-.28.42.27.24-.2.61-.08l-.11-.06c-.07-.08.09.01.14.01-.08-.04-.12-.04-.16-.08.09-.21.67-.21,1.16-.35.17-.05-.79-.2-.27-.19l.28.07c-.18-.17.48-.23.29-.36.08,0,.2.02.18.03.34-.01.18-.09-.07-.09.06-.02.23,0,.38,0,.23-.02-.29-.06.05-.07.06,0,.09,0,.11.01-.12-.01.18-.07-.23-.05.26-.04-.03-.07.26-.1-.03,0-.05,0-.07,0-.29,0,.18-.06-.37-.03.62-.03.41-.08.14-.07.17,0,.15-.03.38-.04-.04-.02-.18-.03-.43,0,.51-.1-.63-.03.07-.14-.4-.04-.66-.06-.87-.09.43-.09.16.05.62-.04-.3-.03-.71.02-.71-.05.03-.03.19-.04.27-.05-.27,0-.18-.11-.47-.09.03-.01.08-.02.12-.02-.03,0,.01-.04-.15.02h.06c-.22.08-.57.13-.69.18.49-.16.04-.08.66-.28-.04,0-.13.03-.24.07.01-.02.07-.05.21-.09-.15,0-.29.08-.34.05.07-.03.11-.04.21-.07-.17.05-.34.1-.33.05.05-.02.1-.05.11-.04-.11-.03-.49.12-.45.02.3-.15.06-.07.29-.21l-.12.02-.09.08s-.24.08-.2.01l.12-.05h-.12s-.03.07-.03.07c-.15.07-.26.2-.25.14.03-.01-.03-.01.06-.12h0c-.08.04-.16.1-.14.04.06-.05.21-.19.25-.22-.17.13-.15,0-.32.15.04-.03.13-.13.15-.15l-.13.11s.03-.07.1-.14c-.04-.04-.18.24-.16.11.01,0,.03-.03.05-.04-.03-.08-.19.04-.21-.04.1-.2.09-.03.17-.2-.14,0-.34.17-.41.1v.03c-.11.29,0-.17-.1-.04.02-.02.07-.16.05-.13-.06-.07-.13.05-.23.12l.03-.08c-.01-.08-.07-.06-.09-.1-.03.08-.04.06-.06.18,0-.47-.24.2-.24-.19.01,0,.04-.06.03-.07l-.09.06c-.02.14,0,.08-.01.19-.03.08-.06.14-.08.13.05-.08.04-.22.04-.3l-.03.13c0-.25-.06.27-.08.1l.02-.07s-.06.12-.08.1c.02-.16.03-.07.06-.2-.03,0-.11.29-.11.13.02-.04.04-.04.06-.08,0-.19,0-.14-.03-.18h0s-.04-.09-.04-.09v.05c-.1.4-.08.06-.18.32.09-.25.03-.15.06-.32,0-.05-.02-.11,0-.16-.05.14-.02-.12-.09.09,0-.06-.03,0,0-.15-.04.04,0,.1-.02.17-.07.19-.08-.25-.19,0-.07.1-.11.3-.17.39,0-.09.04-.21.04-.21-.02-.09-.05-.08-.08-.01.01-.05,0-.09,0-.16-.02.01-.04.21-.06.12.01-.06.03-.17.05-.23-.03.05-.08.15-.1.21,0-.1.03-.15.05-.22-.04.04-.09.08-.11.24l.02.06s0-.14.02-.17c.04-.12.03.06.03.12l-.02.04c0,.34.08-.05.12-.02l-.04.25.06-.2c0,.07,0,.2-.03.24.01.12.03-.09.04.05,0,.02,0,.03,0,.04l.03-.07c-.01.05-.01.17-.03.14.03.15.1-.18.09.01h0c.08-.06.03-.17.1-.37l-.02.45.03-.18s.02.02,0,.09c.04-.12,0-.08.04-.19.01.17.1-.06.07.22.03-.14-.02-.11.03-.2-.03.31.05-.05.06.1-.03.16-.05.07-.04.22.06-.27.05.07.08.02.04-.21.07-.08.12-.14-.01.07.06.13.08.22v.04c.04-.21.07-.17.11-.2-.03.13-.04.18-.07.23h.03c.02-.06.04-.1.06-.12l-.04.16s.11-.17.13-.06c.03-.15.05-.42.12-.51-.02.08-.04.22-.06.25,0,0,.03-.06.03-.03l-.05.13c0,.06.04-.11.05-.09-.03.11,0,.08-.03.18,0,.01,0-.05-.02,0,.01.02.02.1.01.19.01-.07.03-.15.05-.17.04,0-.02.14-.01.2.03-.08.03.01.07-.16.01,0,0,.08-.01.13.04-.07.09,0,.11-.19h0s0-.02,0-.02h0s0,0,0,0c.1-.16.11.13.18.07l-.02.06c.04-.06.07-.02.14-.14,0,0-.02.11-.05.17.04-.04.07-.09.05,0-.07.09-.04.08-.05.06,0,.05-.05.14.06,0-.09.13-.09.17-.06.13l.05-.1s.03,0,.03.01l-.12.17c-.15.21.35-.32.08.02.12-.11.06-.09.19-.21,0,.03-.22.26-.22.26-.08.09.27-.22.23-.15.07-.05.24-.2.33-.24,0,.03-.27.23-.34.27-.01,0,.01-.01.03-.03-.03.02-.07.04-.14.1l.07-.05c-.06.06-.04.06-.16.14.08-.05.13-.08.15-.11-.09.08.03.01-.03.07.04-.03.14-.08.14-.08-.07.07.17-.09.24-.1-.12.08-.32.17-.18.12-.08.05-.23.12-.31.16.19-.08-.09.07-.13.08l-.08.03s.05-.02.05-.02l.19-.09s-.03.02-.11.05c.13-.05.32-.14.5-.22-.09.05.14-.03-.13.08.07-.05-.27.11-.32.12.03-.01.03-.01,0,0-.03.01-.06.02-.07.03-.24.1.31-.12.32-.11-.16.06-.3.11-.26.1,0,0,.26-.1.4-.14-.11.05.11-.03.11-.02l.05-.02c.17-.05.16-.04.23-.05-.13.04-.1.02-.16.04.32-.08-.28.11-.06.05-.12.03-.33.09-.42.12.25-.06-.24.07-.04.02.25-.06.19-.05.45-.1l-.21.03.39-.08s-.18.03-.15.01c.21-.05.15-.03.35-.09-.36.1.26-.04.03.04l-.65.14c-.28.07.37-.05.23,0l.11-.02c.28-.05.06,0,.18-.01-.24.04-.32.05-.47.08.19-.02,0,0,.49-.05l-.31.05c-.12.02.75-.07.7-.04-.29.02-.48.04-.69.06,0,0-.04.01.14,0-.15.02.37-.02.1,0,.11,0,.39-.03.35-.02-.05,0-.13,0-.13,0,.13,0,.17-.01.45-.03-.55.05-.39.05-.42.07-.02,0-.08.02-.31.03.06,0,.11.02.11.03-.07,0-.11,0-.08,0-.23.01.62.01.35.03-.36,0-.17-.01-.31-.01-.71-.01.06.02-.36.02h-.04c-.24-.01.23.02.15.04,0,0-.06,0-.1,0,.31.04.37.07.43.1-.22-.04-.11-.02-.35-.05.02.01.38.05.42.07-.13-.01-.26-.02-.5-.06h0c-.32-.06,0,0-.07,0l-.13-.03s.35.09.29.11l.1.02c.28.09-.19-.03.01.04l-.3-.08c.06.03.24.11.26.15-.19-.09-.27-.14-.39-.18-.01,0,0,.02.12.08-.02-.01-.09-.04-.04-.03.21.08.29.14.25.16-.49-.22-.19-.01-.56-.19.13.11-.11-.01-.1.01.28.24,0,.01.27.27,0,.02,0,.02-.02,0-.06-.04-.12-.09-.18-.14-.07-.08-.05-.07-.1-.13-.03-.01-.11-.11-.17-.19.08.1.11.15.08.11l.11.13c.11.16-.21-.22-.11-.06l-.06-.1c.03.06,0,0,.12.27-.02-.04-.06-.13-.07-.15-.02-.04.06.34,0,.17l-.02-.1s.03.19,0,.09c0-.04-.02-.1-.02-.1,0,.03.02.18,0,.13v-.12c-.04-.13,0,.3-.04.41,0-.31-.01-.42-.01-.48v-.05s-.04.31-.1.48c.06-.41-.01-.14.04-.38-.02.08-.1.34-.11.38.02-.08-.11.32.02-.09h0c.12-.39.08-.28.08-.29l-.19.55c.14-.45.08-.27.02-.16-.04.08-.06.11.08-.23-.06.13-.06.14-.12.27l.13-.31c.03-.09.05-.13.02-.07l.1-.2s-.09.19-.19.39c-.1.2-.21.39-.21.39l.2-.4s.18-.35-.02-.05c.03-.05.09-.14.1-.16,0-.02.14-.24-.15.2.19-.28.02-.04-.07.05l.14-.19c-.18.23-.24.3-.29.33.02-.03.12-.15.08-.1.07-.11-.14.15-.07.03l.09-.1s-.04.03-.15.14c-.06.05.03-.09.17-.22-.08.08-.19.18-.16.13.05-.05.08-.08.1-.09.1-.12-.18.1-.04-.05.05-.04.08-.06.09-.08,0,.02,0,.05-.02.06.14-.13.16-.16.35-.32-.1.1-.34.26-.27.19.01-.01.03-.02.05-.04h.02s0-.02-.02,0c.02-.02.04-.03.04-.04.12-.08.06-.05.07-.06-.16.1-.13.07-.26.16.01,0,.02,0,.03,0,0,0,0,0,.02,0h-.01s0,.02.01.02c-.08.05-.15.08-.06.01-.1.05-.21.11-.26.14.22-.15.33-.24.47-.3-.09.02-.06,0-.37.06-.04,0,.09-.04.13-.05.03,0,.03,0,.07,0-.08,0-.04-.04-.25,0,.09-.04.2-.02.16-.05h.07c.34-.12-.58-.11-.14-.28-.03.01-.04.02-.07.02.18-.16-.22-.27.07-.44.06-.05-.08-.03-.19-.04l.18-.03-.21-.02c-.16-.04.43-.15.13-.19l-.12.02s-.08-.07.06-.09c-.02,0-.13,0-.06-.01h.09s-.17-.06-.17-.06c.06-.06.37-.04.38-.11-.04-.02-.28-.04-.34-.03,0,.01-.05.04-.15.05l-.05-.02c-.28.03-.56.05-.75.13l.17.02-.13.03v-.03c-.14.04-.02.04.05.04-.07.01-.12.02-.14.04h.27c-.11.03-.22.02-.27.05.12,0,.24-.05.32-.03-.12.04-.23.04-.12.05-.07.01-.12.01-.15,0,.09.01.04.05.19.04-.15.04.05.07-.21.1.06,0,.21.01.22.03-.32,0,0,.08-.34.11.28,0,.14.08.3.11-.02,0-.07,0-.05,0-.02.03-.1.05-.15.07.23-.03.29,0,.44.01-.22.06-.27.01-.49.05.19-.02.19.03.35,0-.14.04-.06.03-.25.07.29-.03.05.02.23.02-.14.05-.27.04-.18.07-.09.03-.19,0-.19,0ZM14.46,14.95h0s0-.01-.01-.02c0,0,0,0,.02.02ZM14.47,15.07s0-.04,0-.05c.05-.05.11-.09.11-.07-.04.02-.06.07-.11.13ZM15.53,14.12s0,0-.04.03c0,0,0,0-.02,0h-.02s.06-.02.08-.04Z"/>
    <path class="cls-1" d="M15.32,14.24h-.01s-.03.02-.03.03l.05-.03h0Z"/>
    <path class="cls-1" d="M15.8,13.22h0s0,0,0-.02v.02Z"/>
    <polygon class="cls-1" points="14.42 17.26 14.46 17.18 14.43 17.24 14.42 17.26"/>
    <path class="cls-1" d="M15.49,12.57v-.04s0,.03,0,.04Z"/>
    <path class="cls-1" d="M15.3,12.5l-.02-.06s.01.05.02.06Z"/>
    <path class="cls-1" d="M15.17,12.39s0,.05-.01.07h0s.01-.07.01-.07Z"/>
    <path class="cls-1" d="M18.19,13.17s0,0,.02,0c.06,0,.03,0-.02,0Z"/>
    <path class="cls-1" d="M16.89,13.03s.07-.04.1-.05c0-.02-.01-.02-.1.05Z"/>
    <polygon class="cls-1" points="19.62 13.66 19.61 13.66 19.62 13.66 19.62 13.66"/>
    <path class="cls-1" d="M17.02,13s0-.03-.04-.02c0,.01,0,.03.04.02Z"/>
    <path class="cls-1" d="M14.52,12.24h0s0,.01,0,.02v-.02Z"/>
    <path class="cls-1" d="M14.51,12.25v.02s0,0,0-.02Z"/>
    <path class="cls-1" d="M14.48,12.31l.02-.04s-.01,0-.02.04Z"/>
    <path class="cls-1" d="M14.71,12.33v-.06s0,.03,0,.06Z"/>
    <path class="cls-1" d="M14.78,12.32s-.02-.13-.05-.1v.05c.01-.09.02.15.05.05Z"/>
    <path class="cls-1" d="M14.93,13.1l-.04-.05c0,.07,0,.15-.02.17.03.2,0-.15.06-.11Z"/>
    <path class="cls-1" d="M15.06,13.21s-.01.09-.02.13c.02-.06.03-.07.02-.13Z"/>
    <path class="cls-1" d="M16.03,13.42l-.06.14s.02-.05.06-.14Z"/>
    <polygon class="cls-1" points="16.63 12.78 16.66 12.69 16.57 12.8 16.63 12.78"/>
    <polygon class="cls-1" points="16 13.72 15.98 13.74 16.03 13.7 16 13.72"/>
    <path class="cls-1" d="M16.48,13.93l.39-.02c-.06,0-.5.02-.39.02Z"/>
    <path class="cls-1" d="M16.49,14.13c-.13-.03-.22-.04-.1,0,.02,0,.13.02.1,0Z"/>
    <polygon class="cls-1" points="15.62 14.37 15.66 14.26 15.62 14.35 15.62 14.37"/>
  </g>
</svg>