<?xml version="1.0" encoding="UTF-8"?>
<svg id="Layer_1" data-name="Layer 1" xmlns="http://www.w3.org/2000/svg" viewBox="0 0 34 34">
  <defs>
    <style>
      .cls-1 {
        fill: #f37e7d;
        stroke-width: 0px;
      }
    </style>
  </defs>
  <g>
    <path class="cls-1" d="M10.74,23.82c-.02-.06-.1-.17-.2-.08.01.08.01.17,0,.26.07-.06.14-.12.2-.18Z"/>
    <path class="cls-1" d="M9.96,23.6c-.09.11-.2.31-.14.53.09-.23.12-.13.22-.4.08-.03.16.06.15.15.02-.06.17.03.19-.14-.18-.13-.28-.14-.42.01-.03-.05,0-.11,0-.16Z"/>
    <path class="cls-1" d="M15.9,26.58l-.05-.03s.03.02.05.03Z"/>
    <path class="cls-1" d="M20.6,25.86s-.04.04-.03.07c.03-.03.05-.05.03-.07Z"/>
    <path class="cls-1" d="M21.47,25.77s-.03,0-.05,0c.03.01.05.01.05,0Z"/>
    <path class="cls-1" d="M15.9,26.58l.13.07c0-.08-.07-.05-.13-.07Z"/>
    <path class="cls-1" d="M10.37,23.57s-.05,0-.09,0c.02,0,.04,0,.06.02l.03-.03Z"/>
    <path class="cls-1" d="M13.76,26.55h-.04s-.03.05-.05.08l.09-.08Z"/>
    <path class="cls-1" d="M12.15,26.09s.12-.15.17-.23c-.05.07-.09.09-.13.09-.02.03-.03.08-.04.14Z"/>
    <path class="cls-1" d="M10.15,24.42h-.05s.03,0,.05,0Z"/>
    <path class="cls-1" d="M14.93,26.77s0,.06,0,.07c0-.03,0-.05,0-.07Z"/>
    <path class="cls-1" d="M18.55,7.93s0,.02,0,.04c0-.02,0-.04,0-.04Z"/>
    <polygon class="cls-1" points="20.44 8.8 20.42 8.81 20.42 8.92 20.44 8.8"/>
    <path class="cls-1" d="M22.97,25.19h0s0,.03,0,0Z"/>
    <path class="cls-1" d="M18.36,15.63c.14.19-.26.21-.05.42-.02-.08.23-.3.05-.42Z"/>
    <path class="cls-1" d="M10.38,23.62s.04.02.05.04c-.02-.02-.03-.03-.05-.04Z"/>
    <polygon class="cls-1" points="18.31 16.06 18.31 16.06 18.34 16.08 18.31 16.06"/>
    <path class="cls-1" d="M25.33,22.19s-.07,0-.1,0c.02,0,.05,0,.1,0Z"/>
    <path class="cls-1" d="M23.46,24.29l.07-.03s-.05.01-.07.03Z"/>
    <path class="cls-1" d="M25.36,20.64s.04-.05.01-.11c-.01,0-.02,0-.02.02.03.02.04.05,0,.09Z"/>
    <polygon class="cls-1" points="25.11 19.12 25.08 19.16 25.1 19.2 25.11 19.12"/>
    <path class="cls-1" d="M14.44,8.5c.04.05.07.11.09.17-.04-.14.15-.22-.09-.17Z"/>
    <path class="cls-1" d="M10.3,23.66s.06-.05.08-.04l-.04-.02s-.04.04-.04.06Z"/>
    <path class="cls-1" d="M23.79,20.57l.03-.15s-.03.1-.03.15Z"/>
    <path class="cls-1" d="M8.97,15.48l-.05-.03s.03.03.05.03Z"/>
    <path class="cls-1" d="M23.72,19.96c.07-.04.1-.08.11-.12-.02,0-.03,0-.06,0-.01.04-.03.09-.06.13Z"/>
    <path class="cls-1" d="M14.53,8.67h0s0,0,0,0Z"/>
    <path class="cls-1" d="M15.89,8c-.21.02-.07.27-.09.42-.24.1-.14-.18-.24-.3-.15.09-.23.34-.35.35-.01-.04-.04-.05-.02-.11-.13.23-.48.08-.63.37-.02-.02-.03-.04-.03-.06.05.13.08.26.08.35-.09.02-.14.19-.2.03.06,0,.05-.07.07-.13l-.08.09c-.13-.23.12-.1.09-.28-.18.11-.36.35-.51.3-.07-.23.32-.14.09-.32l.24.05c-.23-.35.14,0-.08-.37-.31-.02-.31.18-.62.16-.04.14.06.19.02.33-.37.32-.45-.53-.69-.15-.05.18,0,.48-.26.37v-.28c-.28.04-.06.41-.4.32.03-.12.2-.15.15-.17-.25-.16-.1.19-.25.23l-.09-.22c-.3.12-.59.39-.91.57,0-.07.02-.17-.08-.2-.4.28-.9.38-1.39.52l-.03.27s-.12-.03-.1-.09c-.2.04.07.11.05.23-.07.07-.18-.01-.17-.1-.17.34-.45.87-.83,1.04v-.1c-.25.2.17.5-.12.63v-.06c-.41.54-.25,1.34-.42,1.83.3.02.04.61.45.5-.08.37-.19.32-.11.79.04.12.31.04.43.15l-.19.11.3.06-.16.23.13.09c-.02-.06.01-.16.07-.18.2.12.21.53.13.62.17.11.36.21.56.29-.07.06-.17.01-.27,0,.41.06-.12.22.3.27-.01-.07.1-.09.12-.13.02.1.16.21.3.29.11.06.24.09.36.1l-.09.13c.39.18.86.16,1.28.21-.14-.09-.07-.34.05-.35l.02.24c.09-.13-.12-.1.06-.26.15.04.08.27-.02.34l.2-.06c0,.07-.04.1-.06.19.09-.13.31.26.43.01v.07c.41.02.59-.06.89-.06.01-.2.13-.15.23-.31.22.07.47.24.74.23.19-.09.06-.17.15-.28,0,.18.28.18.13.3.33-.02.42-.02.84-.14-.04-.08-.09-.11-.06-.17.08-.03.17.08.15.17l-.02.02c.48-.25,1.04.59,1.43.23l-.02.02.39-.17c.17.04-.11.13,0,.25.43-.28.65.09,1-.09.22.55.93.03,1.24.41v-.13c.09-.11.09.08.16.12,0-.1-.08-.12-.02-.19.78-.08,1.48.38,2.07.71.21.11.37-.57.55-.16l-.17.18c.58-.06.85.45,1.28.59-.06.02-.11.07-.14.04-.06.18.2.24.31.17.03.06-.09.09-.13.16-.04.12.3.07.17.19-.02.02-.06,0-.08,0,.1.01.09.23.25.11-.03.19.19.29.12.45.24.04-.05.3.26.28-.31.04-.21.31-.07.42-.1-.03-.1.09-.23.05.02.11.05.22.22.21-.21.09-.14.2-.09.31.04.11.05.22-.2.2.07.39,0,.77-.14,1.12-.25-.19.18-.36-.12-.51-.03.33.06.67-.22.89-.1.04-.07-.13-.09-.19-.13.35-.47.46-.59.8-.02-.02-.01-.07,0-.11-.04.05-.14.06-.04.17l.02-.07c.22.09.08.5.14.6-.17-.4-.33.12-.5-.41-.02.05-.02.14.05.21-.07.02-.12-.02-.13-.15-.14.19.01.27-.16.39-.04-.06-.02-.11-.05-.19-.01.17-.02.36-.21.39-.01-.04-.06-.08-.01-.1-.25.17-.28.59-.65.62-.04-.32-.15-.04-.27-.27l-.13.14.12.09c-.15.06-.21.29-.37.27l.07-.15c-.08.06-.17.1-.26.15l.2.04c-.11.18.14.31-.1.31.03-.04-.16.05-.29-.07h0c-.05.11-.11.21-.24.19-.05-.07-.06-.29-.1-.34-.01.23-.35.17-.39.42.02-.06-.02-.2-.03-.22l-.02.19c-.09-.04-.11-.06-.12-.17-.23.02.15.31-.15.23.02-.02,0-.04.04-.08-.28,0-.49.23-.76.19-.12-.25.2-.11.08-.31-.34.11-.68.44-1.04.42l.07.02c0,.38-.28-.15-.44.03.04-.03.04-.21.03-.17-.24-.04-.47.13-.84.25l.04-.1c-.14-.08-.37-.05-.52-.1-.05.1-.13.08-.09.22-.42-.57-.93.23-1.28-.3.05,0,.13-.06.09-.07l-.36.02c0,.17.02.11.07.25-.06.09-.18.14-.27.12.18-.07.05-.26.01-.36,0,.05-.04.1-.04.15-.11-.33-.11.31-.31.05l.04-.08c-.1.02-.22.1-.32.05.02-.19.12-.05.18-.2-.14-.02-.38.25-.45.03.08-.03.16,0,.23-.03-.06-.26-.09-.21-.18-.28h0c-.06-.05-.13-.1-.18-.17l.03.08c-.35.38-.36-.05-.72.13.35-.17.11-.14.22-.33-.03-.08-.07-.18-.02-.23-.18.1-.09-.2-.35-.06.03-.06-.1-.06.01-.2-.14-.03-.04.12-.09.19-.32.07-.26-.51-.73-.45-.32-.06-.49.09-.78.02,0-.14.21-.16.21-.16-.06-.17-.15-.22-.31-.24.06-.03.07-.09.08-.17-.09-.05-.21.15-.26-.02.07-.04.17-.12.26-.15-.13-.03-.31,0-.42-.03.07-.1.16-.09.25-.12-.02,0-.08-.03-.09-.02-.02.01.01-.02-.06.03-.21.11-.18.17-.28.18-.02,0-.04,0-.06,0h0s0,0,0,.04c.06.08.07.17.07.25,0,.02.02-.06.02-.09-.02-.02-.06-.04-.04-.07-.03-.02.07.25-.02-.04-.06-.13-.05-.05.07-.09.04-.02.07-.05.09-.08.03-.02.07-.04.1-.06.02-.01,0,0,0,0-.03.04-.08.09-.1.11-.02,0-.07-.03-.06,0-.19.09-.07.2.04.21.12.02.29,0,.35.08l-.25.18.31-.07c-.01.09-.09.24-.2.21.02.2.16,0,.16.2,0,.03-.02.04-.03.04h.16c-.06.05-.11.19-.15.11.1.28.45.06.4.29h-.03c.34.12.15-.15.51-.21l-.17.54.15-.16s.08.08.02.14c.2-.05.03-.09.18-.16.04.26.44.18.3.49.14-.11-.08-.19.14-.2-.13.35.22.04.27.27-.13.15-.22-.02-.15.21.23-.24.26.2.41.2.11-.23.31.03.56.01-.04.08.36.28.54.42l-.02.04c.11-.24.3-.13.47-.16-.04.15-.08.21-.18.26l.15.03c.05-.07.11-.11.21-.12l-.08.18c.2.03.44-.15.68.01.03-.18-.13-.53.14-.61,0,.1-.01.27-.09.3.02,0,.09-.07.13-.02l-.12.15c.11.09.08-.13.16-.1-.02.14.06.11.03.22-.03.01-.07-.07-.12-.02.1.04.22.13.25.24,0-.08.02-.19.09-.2.2,0,.06.17.17.25.05-.09.18.02.19-.19.06,0,.06.1.09.16.11-.09.49-.02.37-.24l-.03-.02h.02s0,0,0,0h0c.33-.21.7.11,1.02,0v.07c.2-.09.44-.08.56-.25.06,0,.15.11.14.2.14-.07.15-.15.38-.07-.13.15.07.1-.14.11.2.03.27.13.45-.09-.04.19.19.2.27.12l-.16-.1c.1-.05.19-.05.29-.05v.24c.47.2.6-.64,1.02-.25.06-.19-.24-.05-.2-.27.19-.02.47.25.53.24.29.05.13-.4.41-.4-.06-.07-.16-.27,0-.41.18-.03.34.25.25.36-.04.02-.07,0-.08-.02-.05.05-.11.11,0,.17v-.09c.12.05.36-.06.35.09.11-.13,0-.15-.11-.15.27.01.36-.14.62-.18-.06-.02-.13-.1-.1-.11.38-.07.08-.22.28-.36.18.05.1.3.27.08.18,0,.14.18.12.27.13-.26.44-.13.57-.18l-.07.12c.05-.07.1-.1.15-.14l-.15-.1c.08-.02.13-.05.17,0,0-.13-.2-.2-.16-.41.13.02.19-.24.34-.07-.3.11.16.16-.04.34.03-.05.08-.08.16-.1.02.01.02.04,0,.07.37,0-.03-.29.21-.47.05.12.2.14.23.09-.1.08-.18-.13-.15-.27.22-.04.12-.19.2-.25l-.12.04c-.05-.12.03-.17.1-.29.07.06-.04.13.02.13-.05-.26.41-.05.45-.32.13-.01.18.16.28.13.04-.29.32-.08.37-.38-.18-.04-.15-.01-.17-.25-.05.13-.1.28-.17.4,0-.12,0-.24-.02-.36-.07.1-.09.27-.16.3-.02-.18,0-.14-.14-.2.31.05.09-.34.34-.39l.33.25c.35-.14.13-.57.4-.86-.04.03-.08.06-.12.08-.12-.12.08-.23.07-.38.12.07.2.01.31,0-.09-.03.12-.28-.14-.4l.23-.12c.17-.31-.31-.45-.22-.73.14.11.26-.02.34.2.02-.11.05-.2-.04-.21.11-.06-.17-.3-.04-.39-.06-.04-.21-.06-.2-.17.03-.01.07,0,.07,0-.07,0-.1-.17-.25-.06.42-.35-.15-.81.11-1.15-.11-.2-.26-.43-.37-.6.04,0,.06-.03.07,0-.04-.31-.42.05-.48-.27.08-.26.2.06.21-.07.34-.32-.29-.27-.24-.6l.06.02c-.02-.24-.42-.16-.61-.34,0,0,.03-.02.04-.06-.29.08-.6-.03-.84-.08.15-.13.14-.03.19-.22-.11-.03-.11.27-.32.23-.02-.12-.12-.26-.06-.45l.2.08c0-.28-.25-.11-.34-.19l.05-.1c-.32-.09-.41.17-.72.06v.09c-.24.21-.09-.19-.32-.04l.02-.29c-.14.03-.47.17-.68.18.15-.18.42-.23.61-.32-.12-.03-.41-.07-.49.05.05-.02.13-.07.16-.02-.19.19-.39.26-.62.22.12-.53-.58-.22-.7-.65-.43.16-.79-.16-1.27-.17.13.43-.14,0-.14.44-.11.02-.15,0-.16-.02l-.31-.28c-.07-.13.11-.09.11-.19-.24-.05-.09-.19-.24-.32.02.16-.1.22-.23.15l.18.21c-.35.21-.26-.38-.61-.18l.11-.13c-.18.07-.64-.04-.82.3-.03-.05-.06-.17.02-.2-.41-.08-.93.32-1.24.09l.04-.1c-.08.03-.14.19-.23.08,0-.04.04-.1,0-.11-.04.03-.21.18-.31.11l.09-.12c-.39-.16-.63.26-.97.32.01-.31-.3-.43-.46-.48v-.04c-.47-.05-.78.24-1.2.33-.22-.35-.81-.22-1.08-.51.03.07-.08.23-.15.24-.06-.08-.29.13-.18-.14l.02.02c.04-.14-.04-.22-.02-.24,0-.02-.03-.02-.06-.04l-.24.29c.06-.3-.09-.38-.26-.52-.17-.13-.33-.28-.16-.48-.12-.03-.17-.12-.29-.16l.18-.08c-.05-.23-.07-.35-.2-.59h.15c-.03-.13-.61-.01-.66-.17l.29-.09c-.04-.25.23-.34.04-.6.04.02.12.06.12.09.03-.09.33-.21-.02-.41.22.15.16-.18.19-.38l.13.15c-.1-.26-.13-.32-.04-.5.05-.01.13.1.05.1.18-.01-.03-.22.19-.25l.02.14c.13-.08.08-.13.08-.3.04-.13.29-.13.4.01-.04-.11-.03-.28.08-.28.04.05.03.11.03.13.3-.01.26-.4.52-.3.03.06.05.08.08.1-.2.08-.36.15-.35.13.08.16.25.12.24.4.05-.18.15-.55.33-.53.01.01.03.03.04.05v.03s.06-.03.08-.07c.06.01.1.02.15,0,.07.14.21.02.3,0-.07-.19.06-.19-.1-.32.02,0,0,.03-.06.05-.01,0-.02.02-.03.03v-.02c-.05.02-.12.05-.2.08.03-.12.08-.22.21-.15,0-.14.02-.28.03-.35.2.23.47.32.55.47.24-.18.61-.23.71-.63.07-.06.11.09.15.14-.04.05-.09.05-.11.11.14-.13.46-.13.45-.39.22.08-.07.26.2.17l-.02.09c.61.32.78-.81,1.47-.36-.05-.03-.07-.04-.08-.08.72.14,1.42-.4,2.15-.09.2.06.21-.11.32-.25l.06.21.18-.26c.28-.21.55.48.89.11l-.06-.14c.14.02.42-.12.41.05.01-.03.03-.15.09-.08v.11s.33-.21.33-.21c.26.06-.01.45.36.45.13-.05.37-.35.32-.42-.06,0-.15-.06-.16-.17l.12-.07c0-.33.09-.67-.24-.89l-.21.21-.08-.16.18-.02c-.11-.14-.17,0-.24.09-.02-.08-.06-.14-.1-.17l-.19.33c-.03-.13.08-.26-.07-.32-.09.15.12.28-.04.39-.11-.14-.09-.27-.21-.13-.02-.08,0-.14.04-.18-.1.11-.29.06-.33.24-.12-.18-.36.08-.38-.24-.03.08-.17.26-.27.28.15-.39-.38.01-.36-.39-.11.35-.48.19-.7.4.01-.03.03-.08.05-.07-.14-.01-.19-.11-.28-.17.01.28-.19.36-.29.55-.19-.25.07-.34-.01-.59.03.22-.26.26-.19.44-.15-.15-.12-.07-.21-.29.02.35-.11.07-.19.3-.2-.15-.09-.32-.28-.19-.11-.09.06-.24.06-.24ZM11.19,9.6h0s.07-.04.1-.05c-.02.01-.05.03-.09.05ZM10.79,9.78c.05-.01.11-.04.17-.07.04.06.06.13.01.14,0-.05-.11-.05-.19-.07ZM12.07,10.76s-.08.01-.1-.02c.02-.01.05-.03.09-.05v-.03s.01.07,0,.1Z"/>
    <path class="cls-1" d="M12.09,10.48s0-.02.02-.02c-.02-.01-.03-.02-.05-.03v.07s.03-.01.03-.01Z"/>
    <path class="cls-1" d="M15.84,26.55h0s-.01-.01-.02-.02c0,.01,0,.02,0,.02Z"/>
    <polygon class="cls-1" points="8.6 15.09 8.64 15.06 8.58 15.05 8.6 15.09"/>
    <path class="cls-1" d="M13.75,25.62s0-.04-.01-.06c0,.01,0,.03.01.06Z"/>
    <path class="cls-1" d="M12.9,25.32l-.09-.11c.04.06.07.09.09.11Z"/>
    <path class="cls-1" d="M12.31,24.97s-.04.05-.05.07h0s.05-.07.05-.07Z"/>
    <path class="cls-1" d="M22.54,23.32s.01-.01.01-.02c.02-.07,0-.03-.01.02Z"/>
    <path class="cls-1" d="M19.95,25.29s.04-.09.07-.12c-.06,0-.1.02-.07.12Z"/>
    <polygon class="cls-1" points="23.78 20.58 23.79 20.58 23.79 20.57 23.78 20.58"/>
    <path class="cls-1" d="M20.17,25.11c-.07-.02-.11,0-.15.05.05,0,.11,0,.15-.05Z"/>
    <path class="cls-1" d="M9.63,23.64s.06.09.06.13v.02c0-.05-.06-.14-.06-.15Z"/>
    <path class="cls-1" d="M9.69,23.79c.02.09-.02.05.03.29,0-.06-.02-.14-.02-.16v-.05s0-.06,0-.07Z"/>
    <path class="cls-1" d="M9.75,24.08s0,.09-.03,0c.02.11.01.04.03,0Z"/>
    <path class="cls-1" d="M10.56,23.82l.05-.05s-.03.02-.05.05Z"/>
    <path class="cls-1" d="M10.81,23.97c-.05-.05-.05-.23-.15-.25l-.04.04c.1-.06.07.27.19.21Z"/>
    <path class="cls-1" d="M11.3,25.41l-.18-.19c0,.09-.01.21-.12.16.15.37.04-.18.31.03Z"/>
    <path class="cls-1" d="M11.96,25.89c-.14-.02-.05.1-.07.14.11-.03.14-.03.07-.14Z"/>
    <path class="cls-1" d="M17.62,26.59v.18c.11-.04,0-.07,0-.18Z"/>
    <polygon class="cls-1" points="18.5 25.49 18.38 25.4 18.37 25.57 18.5 25.49"/>
    <polygon class="cls-1" points="19.4 26.6 19.37 26.64 19.52 26.53 19.4 26.6"/>
    <path class="cls-1" d="M25.36,19.33l-.2.09c.06.06.31.02.2-.09Z"/>
    <path class="cls-1" d="M21.98,16.47c-.01-.12-.11-.23-.21-.14.09.04.16.15.21.14Z"/>
    <path class="cls-1" d="M10.63,14.83l.08-.03s-.07,0-.11-.02l.02.04Z"/>
  </g>
  <g>
    <path class="cls-1" d="M16.73,28.65c.06,0,.2-.02.17-.05h-.24s.07.05.07.05Z"/>
    <path class="cls-1" d="M17.13,28.37c-.12-.02-.32-.04-.53.02.23,0,.14.03.41.03.03.03-.07.07-.15.08.06,0-.04.06.1.06.17-.07.17-.12.02-.16.05-.02.11-.02.16-.02Z"/>
    <path class="cls-1" d="M17.05,25.09l-.02.02s.02-.02.02-.02Z"/>
    <path class="cls-1" d="M16.92,23.07s.03.02.05.02c-.02-.01-.03-.02-.05-.02Z"/>
    <path class="cls-1" d="M17.14,22.7s0,.01-.01.02c.02-.01.03-.02.01-.02Z"/>
    <path class="cls-1" d="M17.05,25.09l.07-.06c-.08,0-.05.03-.07.06Z"/>
    <path class="cls-1" d="M16.51,28s.04.02.07.02c-.01,0-.02-.02-.03-.02h-.04Z"/>
    <path class="cls-1" d="M17.35,25.95v.02s.06,0,.1,0l-.1-.02Z"/>
    <path class="cls-1" d="M17.48,26.62s-.19,0-.28.01c.08,0,.12,0,.14.01.04,0,.08-.02.14-.03Z"/>
    <path class="cls-1" d="M17.29,27.74l.03.02-.03-.02Z"/>
    <path class="cls-1" d="M17.33,25.46s.05-.01.07-.02c-.02,0-.05,0-.07.02Z"/>
    <path class="cls-1" d="M14.08,6.54s.02,0,.04,0c-.02,0-.03,0-.04,0Z"/>
    <polygon class="cls-1" points="15.03 5.7 15.04 5.71 15.15 5.71 15.03 5.7"/>
    <path class="cls-1" d="M17.31,22.04h0s.02,0,0,0Z"/>
    <path class="cls-1" d="M16.56,16.32c-.17.08-.24-.08-.43.03.08-.02.32.06.43-.03Z"/>
    <path class="cls-1" d="M16.53,27.98s0-.02,0-.03c0,.01,0,.02,0,.03Z"/>
    <polygon class="cls-1" points="16.13 16.35 16.13 16.35 16.11 16.36 16.13 16.35"/>
    <path class="cls-1" d="M17.03,20.62s-.06.02-.09.02c.02,0,.04,0,.09-.02Z"/>
    <path class="cls-1" d="M16.87,21.72l.02-.03s-.02.02-.02.03Z"/>
    <path class="cls-1" d="M16.69,20.09s.04-.02.01-.04c0,0-.02,0-.02,0,.03,0,.04.01.01.03Z"/>
    <path class="cls-1" d="M16.62,19.51s-.03.01-.04.02v.02s.04-.03.04-.03Z"/>
    <path class="cls-1" d="M14.28,8.32c.06-.02.12-.03.18-.04-.14.02-.2-.07-.18.04Z"/>
    <path class="cls-1" d="M16.62,27.99c-.05,0-.08,0-.09,0v.02s.07,0,.09-.01Z"/>
    <path class="cls-1" d="M15.12,20.24l.02-.1s-.02.06-.02.1Z"/>
    <path class="cls-1" d="M14.59,12.53l-.03-.02s0,.02.03.02Z"/>
    <path class="cls-1" d="M15.08,19.87c.07-.02.11-.05.13-.07-.02,0-.03,0-.05,0l-.08.07Z"/>
    <path class="cls-1" d="M14.46,8.28h0s0,0,0,0Z"/>
    <path class="cls-1" d="M13.95,7.7c0,.09.26.03.41.04.08.1-.19.06-.32.1.07.06.32.1.31.15-.04,0-.06.02-.11,0,.21.06.02.21.29.27-.02,0-.04.01-.06.01.13-.02.26-.03.36-.03,0,.04.17.06,0,.09,0-.02-.07-.02-.12-.03l.08.04c-.24.05-.09-.05-.27-.04.08.08.29.16.23.23-.24.03-.09-.14-.3-.04l.09-.1c-.38.1.02-.06-.38.03-.06.13.13.13.07.27.14.02.2-.02.33,0,.25.17-.6.18-.27.29.16.02.47.02.31.12l-.27-.02c-.02.12.4.05.22.19-.11-.02-.1-.09-.13-.07-.21.1.16.05.16.11l-.24.03c.05.13.23.26.28.4-.07,0-.15-.02-.22.02.13.17,0,.39-.13.58l.21.05s-.09.04-.13.02c-.07.07.13,0,.22.02.02.04-.12.06-.18.04.18.11.4.32.19.46l-.06-.02c-.08.11.43.08.25.19l-.04-.02c-.08.22.13.45-.17.63.3,0-.12.22.3.21-.2.14-.27.11-.4.29-.02.05.27.05.31.1l-.22.02.23.06-.26.06.06.05s.09-.05.16-.05c.1.08-.14.22-.25.23l.2.18c-.09,0-.12-.03-.18-.05.23.09-.23.04-.02.12.05-.02.13,0,.17,0-.13.06-.12.17-.06.25h-.15c-.03.15.1.3.11.47.07-.07.33-.07.36-.03l-.23.04c.15.02.08-.06.26,0-.02.06-.26.06-.34.03l.09.07c-.07.01-.11,0-.19,0,.15.02-.22.15.03.17h-.07c.01.18.1.24.12.38.2-.01.16.04.32.07-.05.1-.2.23-.17.34.11.08.17,0,.29.04-.18.02-.15.14-.29.09.04.14.05.18.21.35.07-.03.1-.05.17-.05.03.03-.07.08-.16.08h-.02c.29.17-.49.51-.1.64h-.02s.21.14.21.14c-.02.08-.14-.03-.25.03.32.15-.02.29.2.42-.52.17.08.4-.25.59l.12-.02c.13.03-.07.06-.09.09.1-.01.11-.05.18-.04.18.33-.11.72-.19,1.08-.02.13.66,0,.37.2l-.24-.02c.3.23.04.53.31.75-.06,0-.13,0-.13-.03-.16.07.01.2.15.18-.01.04-.12.02-.19.05-.09.06.23.11.06.16-.03,0-.06,0-.07-.02.09.03,0,.16.19.11-.08.1.11.17,0,.26.22.03-.09.17.22.16-.32.03-.24.19-.08.24-.1,0-.09.06-.23.05.01.07.08.12.24.09-.37.17.34.22-.15.34.19.18.33.36.43.53-.32.03-.05-.2-.39-.15.15.16.43.23.38.41-.04.05-.14,0-.2-.02.15.16.01.34.2.47-.03,0-.06,0-.09-.02.01.03-.04.08.11.06l-.04-.02c.2-.07.45.07.56.06-.42,0-.09.16-.62.14.03.02.1.03.2.02-.02.03-.08.05-.19.03.09.1.24.04.25.14-.07,0-.1,0-.18,0,.14.03.28.07.24.16-.04,0-.1.02-.1,0,.04.14.39.2.28.37-.31,0-.09.07-.36.11l.09.07.12-.05c0,.07.2.12.13.19l-.12-.04.07.13.09-.09c.14.06.33-.05.27.06-.03-.02,0,.07-.14.13h0c.09.03.18.05.12.11-.08.02-.29.02-.35.04.22,0,.08.16.32.18-.06,0-.2,0-.22.02h.18c-.05.05-.08.06-.19.07-.02.11.33-.07.2.07-.02,0-.04,0-.07-.02-.06.13.14.22.07.34-.26.07-.08-.09-.3-.02.07.16.36.29.32.46l.03-.03c.38-.03-.17.14.02.2-.03-.02-.21,0-.17,0-.05.11.12.21.26.35h-.1c-.08.07-.03.17-.06.24.1,0,.09.05.22,0-.52.28.34.36-.08.61,0-.02-.09-.04-.09-.02l.11.15c.16-.03.1-.03.22-.08.1,0,.18.04.19.08-.12-.06-.26.04-.35.08.05-.01.11,0,.16-.02-.28.12.33-.03.15.11h-.09s.17.07.15.11c-.19.04-.09-.03-.25-.01.02.06.37.08.19.16-.06-.02-.06-.06-.12-.08-.21.09-.15.09-.18.14h0s-.09.12-.09.12l.06-.04c.5.01.11.15.45.21-.32-.06-.18,0-.39.03-.06.04-.12.09-.18.08.18.03-.12.1.14.14-.07.01,0,.06-.17.07.06.06.12-.03.2-.04.25.07-.25.28.09.38.15.11.38.1.52.2-.1.06-.25,0-.25,0-.09.08-.07.12.02.17-.06,0-.11.02-.18.05.02.05.25,0,.16.07-.08,0-.2,0-.28,0,.07.05.21.09.28.14-.12.03-.19,0-.27-.02.06.06.13.16.32.15l.06-.05s-.16.04-.2.02c-.16-.04.05-.09.12-.1l.05.04c.4-.1-.09-.16-.08-.25h.3s-.26-.06-.26-.06c.07-.03.23-.07.28-.03.14-.08-.11-.04.04-.11.02,0,.04,0,.05,0l-.1-.05c.06,0,.2-.04.17,0,.15-.13-.24-.14-.03-.21h.02c-.12-.13-.22.02-.48-.05l.52-.15-.22.02s.02-.05.1-.06c-.16-.04-.09.02-.24,0,.18-.1-.12-.19.22-.25-.17,0-.12.09-.24.03.36-.07-.08-.08.08-.17.19,0,.1.07.26-.02-.33,0,.05-.14-.02-.19-.26.03-.12-.11-.22-.19.09,0,.12-.2.2-.3h.04c-.26.01-.22-.08-.29-.14.16-.02.22-.01.29.01v-.06c-.09,0-.14-.02-.18-.05h.2c-.02-.09-.25-.15-.14-.27-.18.02-.49.15-.63.06.1-.02.26-.04.31-.02-.01,0-.09-.02-.05-.05l.17.02c.07-.06-.14,0-.13-.05.14-.02.1-.04.21-.05.01,0-.05.04,0,.05.02-.05.09-.11.2-.14-.08.01-.19.02-.21,0-.02-.08.16-.05.23-.11-.1,0,0-.07-.21-.05,0-.02.09-.04.15-.06-.1-.03-.05-.2-.27-.12h-.01s0,0,0,0h0s0,0,0,0c-.23-.11.08-.31-.03-.44h.07c-.09-.08-.07-.19-.23-.23,0-.02.12-.07.2-.07-.06-.06-.14-.05-.04-.16.13.05.1-.04.1.05.05-.09.16-.12-.04-.19.18,0,.22-.09.16-.12l-.12.07s-.02-.08-.01-.12h.24c.26-.21-.52-.25-.06-.44-.17-.02-.1.11-.3.09.02-.08.35-.2.35-.23.12-.12-.35-.06-.28-.18-.08.02-.3.07-.39,0,.02-.08.34-.14.41-.1,0,.02-.02.03-.04.03.03.02.07.05.16,0h-.08c.08-.05.06-.15.2-.15-.09-.05-.14,0-.18.04.11-.11-.02-.16.05-.27-.04.02-.14.05-.14.03.09-.16-.17-.05-.22-.15.12-.07.31-.02.19-.11.08-.07.22-.04.29-.02-.17-.07.09-.19.11-.24l.07.04s-.05-.05-.05-.07l-.16.05s.02-.06.09-.06c-.11-.02-.28.06-.43.01.08-.05-.11-.11.12-.15-.06.13.22-.04.27.06-.03-.02-.03-.04,0-.07.02,0,.05,0,.06,0,.18-.14-.26-.02-.27-.14.13,0,.23-.06.21-.07,0,.05-.21.05-.31.01.09-.09-.08-.08-.08-.12l-.04.05c-.13,0-.12-.04-.16-.09.1-.02.07.04.11.02-.23-.03.21-.16.05-.23.08-.05.23-.03.29-.07-.17-.07.16-.12.01-.2-.17.05-.12.05-.3,0l.14.15-.26-.08s.12.09.09.12c-.14-.03-.1-.03-.24,0,.24-.1-.16-.12,0-.21l.42-.05c.17-.14-.24-.18-.15-.34l-.07.06c-.17,0-.03-.09-.11-.13.14-.01.19-.05.27-.08-.1.01,0-.11-.28-.09l.18-.09c.06-.13-.41-.09-.38-.22.16.02.25-.05.37.02,0-.04.02-.08-.08-.07.08-.03-.2-.09-.07-.14-.06,0-.21,0-.2-.04.03,0,.07,0,.07,0-.07,0-.1-.06-.25,0,.42-.17-.07-.33.29-.48-.06-.08-.11-.18-.13-.25.04,0,.07,0,.06,0,.12-.12-.41-.02-.28-.16.22-.09.13.05.21,0,.46-.07-.08-.14.18-.25l.03.02c.15-.08-.19-.13-.17-.24,0,0,.04,0,.07,0-.24-.05-.33-.17-.41-.26.18.01.1.03.28,0-.03-.04-.29.04-.35-.04.1-.04.17-.11.37-.14l.02.08c.25-.07-.02-.11.02-.15h.11c-.05-.13-.33-.1-.32-.24l-.08.02c-.28-.05.15-.08-.06-.13l.28-.05c-.07-.04-.29-.15-.35-.23.21.03.33.12.46.17,0-.05-.04-.16-.18-.18.03.02.1.04.06.06-.23-.04-.34-.11-.35-.2.54-.04.11-.27.52-.38-.22-.15.05-.35,0-.55-.41.11-.02-.06-.45,0-.03-.04-.03-.06,0-.07l.24-.17c.12-.05.1.04.2.02.02-.11.18-.06.29-.14-.15.03-.22-.02-.17-.08l-.19.1c-.24-.12.35-.16.11-.28l.14.03c-.09-.07-.02-.27-.38-.31.05-.02.17-.05.2-.02.04-.18-.4-.36-.2-.52h.11s-.2-.04-.1-.09c.04,0,.11,0,.11-.01-.04-.01-.19-.07-.14-.12l.12.03c.12-.18-.31-.24-.4-.38.31-.03.4-.17.45-.24h.04c.02-.21-.29-.32-.42-.5.33-.14.11-.4.28-.6-.05.03-.24.01-.28-.02.06-.05-.23-.1.06-.12v.02c.27-.06.19-.14.19-.21l-.37.02c.53-.23-.24-.46.24-.6-.1-.04-.1-.09-.2-.13h.2c.04-.14.06-.2,0-.35l.15.02c0-.09-.59-.07-.6-.14l.3-.05c-.02-.15.24-.32-.05-.45.04,0,.13,0,.14.02,0-.07.18-.29-.23-.23.27-.02.02-.16-.11-.23h.2c-.26-.05-.33-.05-.4-.14.02-.02.16-.03.11,0,.1-.08-.19-.05-.09-.14l.13.03c0-.08-.06-.07-.21-.1-.08-.04.04-.15.22-.17-.11,0-.26-.04-.21-.08.07-.01.11,0,.13.01.13-.14-.24-.18-.05-.28.07,0,.1-.01.12-.02,0,.1,0,.19-.02.18.18-.01.21-.1.46-.05-.14-.06-.45-.15-.37-.24.02,0,.03,0,.06-.01h.02s0-.03-.03-.04c.03-.03.05-.05.05-.07.15-.02.08-.1.08-.14-.2.02-.17-.04-.33.02.01,0,.02,0,.03.03,0,0,0,.01.02.02h-.02s.01.06.02.1c-.1-.03-.19-.05-.08-.11-.13-.01-.26-.03-.32-.04.27-.07.42-.19.59-.22-.12-.12-.09-.29-.47-.35-.05-.03.1-.05.16-.06.04.02.03.04.09.05-.1-.07-.05-.21-.31-.21.11-.1.24.04.19-.09h.08c.4-.26-.69-.35-.17-.65-.03.02-.05.03-.09.04.22-.32-.26-.62.1-.95.07-.09-.1-.09-.23-.14l.21-.03-.25-.08c-.19-.12.51-.25.16-.39l-.14.03c.02-.06-.09-.18.07-.18-.03,0-.15-.01-.08-.04h.11s-.2-.14-.2-.14c.08-.11.45,0,.46-.17-.05-.06-.33-.16-.41-.13,0,.02-.07.07-.18.07l-.06-.05c-.33,0-.67-.02-.89.13l.21.08-.16.04v-.08c-.16.05-.03.07.07.1-.08.01-.14.03-.17.05l.32.08c-.13.02-.26-.03-.33.04.15.04.29-.06.39.01-.15.05-.27.05-.14.09-.08.01-.14,0-.18-.02.1.04.05.12.23.14-.18.06.06.16-.26.17.08.01.25.07.26.11-.38-.06-.01.16-.42.16.34.04.16.2.35.3-.03,0-.08-.01-.07-.02-.02.06-.13.08-.19.12.28,0,.35.08.52.12-.26.09-.33-.03-.58.01.22-.02.23.11.42.08-.16.06-.08.05-.31.09.35,0,.06.05.28.08-.17.09-.32.04-.21.12-.1.05-.23-.02-.23-.02ZM14.67,9.73h0s-.01-.03-.01-.04c0,0,0,.02.02.04ZM14.69,9.91s0-.05,0-.08c.07-.01.14,0,.14,0-.05,0-.08.04-.14.07ZM16.05,9.45s0,.04-.05.04c0-.01-.01-.03-.03-.05h-.02s.07,0,.1,0Z"/>
    <path class="cls-1" d="M15.78,9.42s-.01,0-.02-.01c-.02,0-.03.01-.04.02h.06s0,0,0,0Z"/>
    <path class="cls-1" d="M17.02,25.12h0s-.01,0-.03,0c0,0,.02,0,.02,0Z"/>
    <polygon class="cls-1" points="14.48 12.34 14.53 12.34 14.48 12.32 14.48 12.34"/>
    <path class="cls-1" d="M16.47,26.16s-.03.01-.05.02c.01,0,.03-.01.05-.02Z"/>
    <path class="cls-1" d="M16.48,26.58l-.06.07s.05-.05.06-.07Z"/>
    <path class="cls-1" d="M16.42,26.91s.06,0,.09,0h0s-.09,0-.09,0Z"/>
    <path class="cls-1" d="M15.55,21.9s0,0-.01-.01c-.04-.02-.02,0,.01.01Z"/>
    <path class="cls-1" d="M16.19,23.34s-.08-.02-.1-.04c-.01.03-.01.05.1.04Z"/>
    <polygon class="cls-1" points="15.12 20.25 15.12 20.25 15.12 20.24 15.12 20.25"/>
    <path class="cls-1" d="M16.09,23.24s-.02.05,0,.07c.01-.02.03-.05,0-.07Z"/>
    <path class="cls-1" d="M16.53,28.29v.02s.02,0,.03,0h-.03Z"/>
    <path class="cls-1" d="M16.56,28.3h.03s0,0-.03,0Z"/>
    <path class="cls-1" d="M16.64,28.34l-.05-.03s0,.03.05.03Z"/>
    <path class="cls-1" d="M16.56,27.86h-.07s.04,0,.07,0Z"/>
    <path class="cls-1" d="M16.52,27.73s-.14.1-.09.13h.06c-.11,0,.16-.12.03-.13Z"/>
    <path class="cls-1" d="M17.33,27.08l-.04.11c.07-.03.17-.07.2-.02.21-.17-.17.05-.16-.09Z"/>
    <path class="cls-1" d="M17.4,26.73c.04.05.11-.02.15-.02-.07-.03-.09-.03-.15.02Z"/>
    <path class="cls-1" d="M17.08,24.35l.18-.02s-.07,0-.18.02Z"/>
    <polygon class="cls-1" points="16.09 24.02 15.98 24.07 16.15 24.07 16.09 24.02"/>
    <polygon class="cls-1" points="17.34 23.59 17.37 23.6 17.29 23.54 17.34 23.59"/>
    <path class="cls-1" d="M16.81,19.59l-.22.04s.29,0,.22-.04Z"/>
    <path class="cls-1" d="M16.4,17.89c.11-.03.18-.09.06-.1-.01.04-.09.09-.06.1Z"/>
    <polygon class="cls-1" points="16.3 12.66 16.38 12.69 16.31 12.63 16.3 12.66"/>
  </g>
</svg>