<?xml version="1.0" encoding="utf-8"?>
<!-- Generator: Adobe Illustrator 26.1.0, SVG Export Plug-In . SVG Version: 6.00 Build 0)  -->
<svg version="1.1" id="Capa_1" xmlns="http://www.w3.org/2000/svg" xmlns:xlink="http://www.w3.org/1999/xlink" x="0px" y="0px"
	 viewBox="0 0 34.1 31.8" style="enable-background:new 0 0 34.1 31.8;" xml:space="preserve">
<style type="text/css">
	.st0{fill:#FFFFFF;}
</style>
<path class="st0" d="M4.9,9.8C5,9.6,5.1,9.9,5.2,9.9l0.1-0.1C5.1,9.7,5,9.5,4.9,9.8z"/>
<path class="st0" d="M27.2,7.6C27.2,7.6,27.1,7.6,27.2,7.6L27.2,7.6z"/>
<path class="st0" d="M26,7.4L26,7.4z"/>
<path class="st0" d="M17.9,24.2L17.9,24.2h-0.2C17.7,24.2,17.9,24.2,17.9,24.2z"/>
<path class="st0" d="M7.9,24.5L7.9,24.5z"/>
<path class="st0" d="M19.5,7.4L19.5,7.4z"/>
<path class="st0" d="M30.1,9.1c0,0.1,0,0.2-0.1,0.3c0-0.2,0-0.4-0.1-0.5h0.2c0-0.4-0.3-0.7-0.6-0.9c-0.3-0.1-0.6-0.3-0.8-0.5
	c-0.2,0,0.4,0.2,0.1,0.3c-0.2-0.2-0.5-0.3-0.7-0.4c-0.4-0.1-0.3,0.2-0.7,0.2c0,0.1,0.1,0.2-0.2,0.3C27,7.9,27,7.5,27.2,7.5
	c0.2-0.1,0.1,0,0.1,0s0.2,0,0.1-0.1v0.1c-0.1-0.1-0.5,0-0.4-0.2c-0.2,0-0.1,0.1,0,0.1c-0.3,0-0.6-0.1-0.9-0.1c0.1,0,0.1,0.1,0,0.1
	c-0.5-0.1-0.2,0.1-0.6,0.2s0.1-0.2-0.3-0.1c-0.4,0,0-0.2,0-0.2c-0.3,0.1-0.6-0.1-0.8-0.1h-0.1l0.1,0.1c-0.1,0-0.2,0-0.2-0.1
	c0,0.1,0,0.2-0.1,0.3c-0.1-0.1-0.4,0.1-0.4-0.1c0.4,0,0-0.2,0.3-0.2c-0.1,0-0.2,0-0.2,0c-0.4-0.1-0.2,0.2-0.6,0.2
	c0.1-0.1-0.1-0.2-0.2-0.2c0.2,0,0.1,0.2-0.1,0.2c-0.1,0-0.2,0-0.3,0c-0.1,0.1-0.2,0.1-0.3,0.1c0.1,0,0.1,0,0.1-0.1
	c-0.2,0.2-0.5-0.2-0.8-0.1c-0.1-0.1,0-0.2-0.1-0.2c-0.3,0.1-0.3-0.1-0.7,0c0.1,0.1,0.1,0.1-0.1,0.2V7.4c-0.3-0.1-0.6,0.1-1.1,0.1
	c-0.1,0.1-0.3,0-0.5,0.1c0-0.1-0.1-0.1-0.2-0.2c-0.1-0.1-0.4,0-0.4,0.2l-0.2-0.1c-0.4,0-0.5,0.3-0.9,0.3c0.1-0.1-0.1-0.2,0.2-0.3
	h-0.3c0,0-0.4,0.1-0.5,0c-0.1-0.1-0.1,0.2-0.2,0.1c0,0-0.2,0.1-0.1,0.2c-0.3-0.3-0.9-0.1-1.2-0.2l0,0l0,0c-0.1,0-0.2,0-0.3-0.1
	c-0.3,0-0.6,0.1-0.9,0.1c-0.4-0.1-0.2,0.3-0.6,0.2c-0.2-0.2,0.2-0.1,0.1-0.2c-0.1-0.3-0.5,0-0.8-0.1H13c-0.2-0.1-0.5,0.1-0.9,0.1
	c-0.3,0.2-0.7,0.3-1.1,0.3c0.1-0.1,0.1-0.1,0.1-0.2s0,0.2-0.3,0.3c-0.1-0.1-0.3-0.1-0.3-0.3h0.3c-0.2-0.2-0.4,0-0.5,0V7.4
	C10,7.4,10,7.7,9.5,7.7C9.2,7.9,9.3,7.5,9,7.7L9,7.4C8.7,7.6,8.4,7.6,8.1,7.7c0.2-0.1,0.5-0.2,0.7-0.2c-0.2,0-0.5,0-0.7,0.1
	c0.1,0,0.2-0.1,0.2,0C8.2,7.7,7.9,7.8,7.6,7.8c0-0.4-0.8-0.2-1.3-0.3C6,7.7,5.6,7.9,5.3,8.2C5.1,8.5,4.9,8.9,4.9,9.3
	c0.3-0.2,0,0.2,0.3,0.2v0.2v0l0,0c0,0-0.1,0.1-0.1,0.1L5,10.2C4.9,10.3,4.9,10,4.9,10c0,0.3-0.1,0.1-0.2,0.4c0.2,0,0.2,0.2,0.2,0.4
	L5,10.5C5.1,11,4.7,11,4.9,11.4l-0.1-0.2c0.1,0.3,0,0.9,0.3,1.2c0,0-0.1,0.1-0.2,0c0,0.6,0.3,1.3,0.1,1.8H4.9c0,0.1,0.2,0.2,0.1,0.3
	c-0.1,0.1-0.1,0.1-0.1,0.1C5,14.8,5,14.9,5,15l-0.2-0.1c-0.1,0.6,0.2,0.9,0.3,1.4c-0.2,0-0.3,0.5-0.3,0.7c0.1,0.6,0.2,1.2,0.3,1.8
	c-0.1,0.6-0.2,1.3-0.2,2c0-0.1,0.2,0,0.2,0.1s0.2,0.4,0,0.4c-0.2,0-0.2,0.4-0.2,0.6h0.3c-0.1,0.2-0.2,0.3-0.2,0.5
	c0,0.3,0.1,0.5,0.2,0.8c0.3,0.5,0.6,0.7,0.8,1c0.2,0.1,0.5,0.1,0.7,0.1v0.1c0.1,0,0.3,0.1,0.4,0.1H8c0.1-0.1,0.2-0.3,0.4-0.4
	l0.1,0.2c0.5,0.1,1,0.1,1.5,0c0,0.1,0,0.1-0.1,0.1l0,0c0.2,0,0.9,0.2,0.9-0.1c0,0.2,0.5,0,0.8-0.1v0.2c0.2-0.2,0.2-0.2,0.6-0.3
	c0.1,0,0.1,0.1,0,0.1c0.3,0.1,0.2-0.1,0.5-0.1l-0.1,0.1c0.3,0,0.2,0,0.4-0.1c0.1-0.1,0.5,0,0.5,0.2c0.1-0.1,0.2-0.2,0.3-0.2
	c0,0.1,0,0.1-0.1,0.1c0.4,0.1,0.6-0.2,1,0c0,0,0,0.1,0,0.1c-0.2,0-0.4,0-0.6,0c0,0.1,0.3,0.2,0.1,0.3c0.3-0.2,0.6-0.2,0.9-0.3
	c0.1,0,0.1,0,0.2,0h0.2c0,0.1,0.3,0.1,0.5,0.1c0.1,0,0.2-0.1,0-0.2h-0.5c0.1-0.1,0.3-0.1,0.4,0l0.2-0.2c0.2,0.2,0.6,0.3,0.6,0.4
	c0.4-0.1,1-0.1,1.3-0.3c0.1,0,0.1,0,0.2,0.1c0.2,0,0.6,0,0.6-0.2c0.3,0.1-0.2,0.2,0.3,0.1v0.1c0.8,0.3,1.3-0.4,2.2-0.1c0,0,0,0,0,0
	c1.1,0.2,2.2-0.2,3.2,0.1c0.3,0.1,0.3-0.1,0.5-0.1v0.1l0.3-0.2c0.4-0.1,0.7,0.4,1.3,0.1l-0.1-0.1c0.2,0,0.6-0.1,0.6,0
	c0,0.1,0.1-0.1,0.1,0V24l0.5-0.1c0.4,0.1-0.1,0.3,0.5,0.4c0.2,0,0.6-0.2,0.5-0.3c-0.1-0.1-0.2,0-0.2-0.1h0.2v0l0,0
	c0.8,0,1.4-0.6,1.4-1.4c0,0,0,0,0,0v-0.2c0.1-0.1,0.1-0.2,0-0.2v-0.3c0,0,0.1,0,0.1,0.1c0.1-0.4-0.2-0.6,0-0.7c0-0.1,0-0.1-0.1-0.2
	v-0.4l0.1-0.1h-0.1v-0.1l0,0v0v-0.7c0,0,0,0,0.1,0c0.1,0,0,0-0.1,0v-0.5c0.1,0.1,0,0.2,0.1-0.1c-0.2-0.1,0-0.5,0-0.6
	c-0.2,0-0.1-0.4-0.1-0.7c0.1,0,0.1-0.6,0.2-0.9c-0.1,0-0.2-0.2-0.2-0.4V16c0.1,0,0.1,0,0.2,0.2v-0.2c-0.1-0.1-0.1-0.2-0.1-0.3
	l0.1,0.1c-0.1-0.3-0.1-0.7-0.1-1c0,0-0.1,0-0.1,0.1v-0.1v0c0,0,0-0.1,0-0.1v-0.2h0.1c0.1,0,0,0.1,0,0.2c0-0.2,0.2-0.3,0.3-0.4
	c-0.1,0-0.1,0-0.1-0.1c0,0,0,0,0,0l0,0c0-0.3,0.1-0.1,0.2-0.3c0.1-0.2,0-0.2-0.2-0.3s0.1-0.1,0.1-0.1c0.1,0,0-0.7-0.2-0.5
	c-0.2-0.5,0.1-1,0-1.5H30c0-0.3-0.1-0.5-0.2-0.7c0-0.1,0.1-0.2,0.2-0.2c-0.1-0.2-0.1-0.4,0-0.6c0.1,0.2,0.1-0.1,0.1,0.2
	c0-0.3,0.1-0.4,0-0.6C30.2,9.6,30.2,9.3,30.1,9.1z M6.5,23L6.5,23L6.5,23z M20.7,7.4h0.5l-0.2,0.2c0.2,0,0.3-0.1,0.5-0.1
	c-0.2,0.1-0.2,0.1-0.1,0.2c-0.2-0.2-0.5,0.1-0.7,0L20.7,7.4z M17.1,7.5h-0.1C17,7.5,17,7.5,17.1,7.5z M15.2,7.5L15.2,7.5L15.2,7.5
	L15.2,7.5z M19.7,23.3c0,0-0.1-0.1-0.1-0.1C20,23.1,19.7,23.2,19.7,23.3z M13.6,19.3v-7.1l8.2,3.2L13.6,19.3z"/>
<path class="st0" d="M22.5,7.5h0.1l0,0H22.5z"/>
<path class="st0" d="M16.8,7.5"/>
<path class="st0" d="M29.4,7.6c-0.1-0.1-0.2-0.1-0.3-0.1C29.2,7.5,29.2,7.6,29.4,7.6L29.4,7.6z"/>
<path class="st0" d="M15.4,7.4v0.1l0,0C15.6,7.5,15.6,7.3,15.4,7.4z"/>
<path class="st0" d="M9.5,7.6c-0.1-0.1-0.2-0.1-0.3,0C9.4,7.5,9.5,7.6,9.5,7.6z"/>
<polygon class="st0" points="4.9,22.3 4.9,22.2 4.8,22.1 "/>
</svg>
