<svg id="Capa_1" data-name="Capa 1" xmlns="http://www.w3.org/2000/svg" viewBox="0 0 34.12 31.77"><defs><style>.cls-1{fill:#fff;}</style></defs><path class="cls-1" d="M2.41,5.89c0-.09.07.06.11.06l0-.07S2.45,5.76,2.41,5.89Z"/><path class="cls-1" d="M13.94,4.77s0,0,0,0Z"/><path class="cls-1" d="M13.3,4.66h0Z"/><path class="cls-1" d="M9.1,13.33v0l-.1,0S9.12,13.35,9.1,13.33Z"/><path class="cls-1" d="M4,13.48H4Z"/><path class="cls-1" d="M10,4.69h0Z"/><path class="cls-1" d="M15.45,5.53a.65.65,0,0,1,0,.13.57.57,0,0,0,0-.26h.09a.54.54,0,0,0-.3-.45,1.87,1.87,0,0,1-.41-.25c-.11,0,.19.1.08.14l-.38-.2c-.18,0-.17.13-.37.1,0,0,.05.12-.1.15a.09.09,0,0,1-.08-.17c.08,0,0,0,0,0s.1,0,.05-.06v0c-.07,0-.26,0-.21-.08-.11,0,0,0,0,.07a3.57,3.57,0,0,0-.46,0s.06.06,0,.06c-.26,0-.11.06-.29.07s0-.12-.15-.07,0-.09,0-.11c-.16.06-.3,0-.4-.06h-.05l.05.07c-.05,0-.08,0-.09,0a.14.14,0,0,1-.07.16c-.06,0-.2,0-.23,0,.22,0,0-.09.16-.1h-.13c-.2-.08-.09.09-.3.09,0,0-.05-.09-.09-.08s0,.08,0,.12a.38.38,0,0,1-.15,0,.49.49,0,0,1-.17,0s.06,0,0,0-.24-.09-.39,0,0-.09-.06-.12-.18-.06-.35,0c0,.06,0,0-.05.1v0c-.18-.06-.33,0-.54,0,0,.06-.17,0-.25,0s0-.07-.08-.1-.2,0-.22.1l-.12-.07c-.21,0-.24.15-.45.13.06-.06,0-.09.1-.13H8.89s-.19.07-.25,0,0,.07-.11.07-.12,0-.06.09c-.16-.13-.43-.06-.62-.08h0a.34.34,0,0,1-.14-.05l-.46,0c-.19,0-.12.15-.33.09s.11,0,0-.07c0-.18-.26,0-.4-.08h0c-.1-.06-.27.06-.44,0a1.28,1.28,0,0,1-.53.15c.05-.08.08,0,.05-.11s0,.11-.14.13-.15-.07-.15-.14h.15c-.07-.1-.19,0-.27,0v0c-.22,0-.22.12-.46.12s-.11-.06-.24,0l0-.11A2.42,2.42,0,0,1,4,4.83a1.43,1.43,0,0,1,.38-.17.68.68,0,0,0-.34.06s.09,0,.12,0a.63.63,0,0,1-.42.12c0-.19-.41-.09-.65-.16a1.71,1.71,0,0,0-.51.37,1,1,0,0,0-.23.6c.16-.12,0,.11.17.09v.14h0s0,.06,0,.06l-.06.16c0,.06,0-.08-.07-.07,0,.18-.07.07-.12.19s.1.11.1.21l.07-.15c.09.25-.14.22,0,.47l-.05-.08c0,.13,0,.48.13.6s-.06.06-.08,0c0,.31.15.69.06.93h0s.08.1,0,.17l0,0a.44.44,0,0,1,0,.2l-.08-.07c-.05.3.11.46.14.72-.12,0-.16.23-.18.35a4.77,4.77,0,0,0,.15.92,4.82,4.82,0,0,0-.11,1c0-.05.1,0,.11.06s.07.22,0,.21-.08.21-.09.33h.15a.57.57,0,0,0-.08.28.76.76,0,0,0,.1.39c.14.25.34.36.4.51a1.49,1.49,0,0,0,.36.05v.07a.64.64,0,0,0,.2,0H4c.08-.06.12-.17.22-.18l0,.12a2.1,2.1,0,0,0,.79,0,.05.05,0,0,1,0,.05c.12,0,.47.08.43-.08,0,.1.27,0,.4,0v.07c.12-.09.12-.12.29-.15s0,.06,0,.05c.13,0,.1-.08.26,0l-.06.05c.14,0,.13,0,.2-.07s.26,0,.28.08a.16.16,0,0,1,.17-.08s0,0,0,.06c.22,0,.33-.09.49,0a0,0,0,0,0,0,0,1.6,1.6,0,0,1-.31,0c0,.07.14.08,0,.18a.79.79,0,0,1,.45-.13h.2c0,.06.17,0,.24,0s.09-.06,0-.12H7.72a.18.18,0,0,1,.2,0l.1-.12c.1.1.29.16.32.22.22,0,.52,0,.66-.17a.11.11,0,0,1,.09.05c.12,0,.28,0,.31-.1s-.09.09.13.08v0c.41.15.68-.22,1.12-.06v0c.54.09,1.11-.09,1.64,0,.15,0,.17,0,.27-.08v.08l.16-.09c.22-.07.38.2.67.07l0-.06c.11,0,.32,0,.31,0s0-.05.07,0v0l.25-.07c.2,0,0,.17.25.18.11,0,.3-.12.27-.15s-.11,0-.12-.07h.1v0h0a.72.72,0,0,0,.72-.72v-.11c0-.07,0-.09,0-.12V12s0,0,0,0c.07-.19-.08-.31,0-.38a.3.3,0,0,0,0-.11v-.2l.06,0h-.06v-.06h0l0,0v-.38l0,0h0v-.24s0,.08.07,0c-.12-.08,0-.24,0-.33s0-.22-.07-.39c0,0,.06-.31.09-.47s-.08-.1-.09-.19V9.06s.08,0,.1.08V9a.16.16,0,0,1-.06-.13l.07,0a1.76,1.76,0,0,1,0-.48l-.07,0V8.4l0,0s0-.05,0-.05V8.26h0s0,.06,0,.09a.34.34,0,0,1,.17-.22.07.07,0,0,1-.08,0h0c0-.15.06-.06.09-.14s0-.13-.08-.13,0,0,.06-.07,0-.35-.09-.27c-.08-.24,0-.51,0-.75h0a1.61,1.61,0,0,0-.08-.38s.05-.11.08-.09a.48.48,0,0,1,0-.29c0,.12,0,0,0,.12,0-.15.07-.18,0-.34C15.46,5.8,15.48,5.63,15.45,5.53ZM3.22,12.73h0Zm7.36-8,.27,0-.09.09c.08,0,.18,0,.23,0s-.08,0,0,.09c-.12-.09-.23.06-.37,0Zm-1.91,0H8.61S8.65,4.7,8.67,4.71Zm-1,0h0l0,0Zm2.34,8.15a.18.18,0,0,0-.05-.07C10.19,12.8,10,12.82,10.05,12.88ZM6.87,10.82V7.14l4.24,1.65Zm4.72-5.59Z"/><path class="cls-1" d="M11.49,4.72h.07a0,0,0,0,1,0,0Z"/><path class="cls-1" d="M8.53,4.72Z"/><path class="cls-1" d="M15.06,4.78l-.16-.07.12.07Z"/><path class="cls-1" d="M7.83,4.65v.08h0C7.91,4.71,7.92,4.63,7.83,4.65Z"/><path class="cls-1" d="M4.8,4.74a.15.15,0,0,0-.18,0C4.69,4.72,4.77,4.75,4.8,4.74Z"/><polygon class="cls-1" points="2.38 12.35 2.39 12.3 2.36 12.24 2.38 12.35"/><path class="cls-1" d="M19.91,4.83c0,.11.14.11.22.16S20,5,19.9,5s.13.21.11.27,0,0-.07,0c.09.13-.09.26,0,.41h-.05a.86.86,0,0,1,.23.06s.06.12-.05.11,0,0-.05-.07v.06c-.17,0,0-.09-.14-.12s.1.27,0,.33,0-.19-.15-.14l.09-.1c-.26,0,0-.06-.23-.07s0,.2-.08.34.12,0,.19.09c.07.27-.43,0-.29.27.08.07.26.15.12.23l-.15-.09c-.07.14.21.16,0,.28-.05,0,0-.14,0-.12s.07.1,0,.18h-.15v.56s-.08-.07-.14,0a1,1,0,0,1-.34.64l.09.12h-.08a.13.13,0,0,1,.11.09c0,.09-.09,0-.12,0,0,.18.08.5-.11.6h0c-.1.1.2.23.05.29h0c-.14.23-.13.56-.39.69.17.1-.17.23.07.34-.17.1-.2,0-.36.22s.13.14.13.22l-.13,0,.1.14h-.17v-.13h.11s-.18.21-.25.19v.28a.15.15,0,0,0-.08-.12c.09.18-.14,0-.06.14h.1s-.15.17-.15.28l-.08-.06c-.09.17-.09.39-.17.59a.16.16,0,0,1,.22.07h-.15c.07.07.07,0,.15.08s-.17,0-.2-.07v.11a.16.16,0,0,1-.11-.06c-.05-.06-.19.1-.06.21h0a4,4,0,0,0-.11.47c.12,0,.07.1.15.18-.08.1-.22.2-.26.35s.09.06.14.14c-.11,0-.15.11-.2,0a1.24,1.24,0,0,0-.05.47H17s-.08.08-.13,0h0c.08.3-.52.45-.36.72h0l0,.24c0,.09-.06-.08-.15,0,.1.28-.15.33-.09.56-.38,0-.16.49-.43.61H16c.06.08-.06,0-.09.08s.08,0,.11,0a3.37,3.37,0,0,1-.63,1.2c-.07.15.37.23.12.36l-.05,0c.05.37-.24.63-.2,1,0,0-.07-.05-.06-.08s-.09.24,0,.27-.08,0-.14,0,.08.2,0,.2h0s-.08.19,0,.19c-.09.09,0,.24-.12.3.11.11-.14.17,0,.26-.19-.08-.22.14-.16.25H14.6c-.07,0,0,.17.08.19-.28.07.08.37-.24.35a5,5,0,0,1,0,.77c-.19-.08.07-.25-.14-.31,0,.23.13.41,0,.6-.05,0-.07-.06-.1-.09,0,.24-.16.4-.12.62V22.1c0-.06-.06.08,0,.1h0c.15,0,.21.24.28.27-.23-.15-.13.16-.41,0a.15.15,0,0,0,.1.09h-.12c0,.14.11.13.06.25s-.05-.05-.09-.08.12.18,0,.27-.06,0,0-.05c-.05.18.11.37,0,.53-.17-.12-.09.05-.25,0v.12h.09c0,.09.06.21,0,.27v.09l.09-.08c.05.12.21.07.12.17s0,.09-.14.1h0c0,.06.07.13,0,.18s-.18-.08-.21-.08,0,.22.08.33a.27.27,0,0,0-.13-.07l.1.08h-.14c-.07,0,.22,0,.08.15s0,0,0-.05c-.1.13,0,.31-.13.43s0-.14-.15-.14a1.29,1.29,0,0,1-.06.65h0c.22.11-.16.1-.09.23s-.11-.07-.09-.06a3.93,3.93,0,0,1,0,.51H13c-.08.06-.1.19-.15.27s0,.09.11.09c-.42.13,0,.55-.35.67v.15h.16a.15.15,0,0,1,.06.16c0-.11-.16-.06-.23,0s.07,0,.1,0c-.21,0,.19.08,0,.18h-.05c0,.06.06.14,0,.19s0-.08-.13-.11.16.23,0,.25,0-.09,0-.13-.13,0-.17.1h0l-.11.11h.05c.26.21,0,.22.13.42-.14-.19-.1-.06-.23-.12s-.1.06-.13,0-.12.08,0,.22,0,.06-.13,0,.08,0,.13,0-.28.22-.14.47a.85.85,0,0,1,.17.43.2.2,0,0,1-.14-.09.15.15,0,0,0-.08.18v0h-.13c0,.06.14.09,0,.15a.53.53,0,0,1-.14-.12,2,2,0,0,0,.08.26c-.08,0-.1-.08-.14-.12s0,.23.1.29h-.06s.08-.09.12-.08v.06c.26,0,0-.21.08-.31L12,30l-.11-.15s.15,0,.16.07,0-.09.08-.12h0v-.09s.13,0,.08.07c.15-.1,0-.26.1-.26h0c0-.2-.12-.06-.22-.25h.35l-.13-.07h.09c.09,0-.06,0-.13-.08.15-.05,0-.27.24-.21-.08-.07-.1.06-.14-.06.24,0,0-.13.13-.17s0,.12.15.07c-.17-.11.1-.14.09-.22s0-.17,0-.31L13,27.9h0c-.15-.07-.08-.17-.08-.26a.2.2,0,0,1,.15.12v-.08a.14.14,0,0,1-.06-.12l.11.06c0-.1-.07-.25.06-.35-.11,0-.34,0-.37-.17.06,0,.17,0,.18.09s0-.06,0-.07l.08.09c.06-.05-.07-.06,0-.11s.07,0,.14,0,0,0,0,.06a.2.2,0,0,1,.17-.09s-.11,0-.11-.09.12,0,.18,0,0-.09-.09-.13.07,0,.11,0,.07-.25-.08-.23h0c-.06-.22.2-.33.2-.52h0c0-.11.05-.23,0-.34s.1,0,.15,0,0-.11.06-.2c0,.11.08,0,0,.1.07-.09.14-.09.07-.23.09.07.16,0,.15-.09h-.11A.35.35,0,0,1,14,25.2l.13.07c.25-.14-.16-.47.18-.53-.08-.09-.11.09-.2,0s.29-.11.3-.14-.17-.2-.06-.31c-.06,0-.2,0-.21-.15s.25,0,.27,0h0s0,.09.08.07h0c.06,0,.1-.16.18-.1s-.08-.06-.12,0c.12-.09.07-.19.16-.29s-.1,0-.09,0a.48.48,0,0,1,0-.24c0-.13.18.09.16-.06s.14,0,.17.08c-.06-.15.14-.19.18-.25v.07a.17.17,0,0,1,0-.1H15s0-.06.08,0-.18,0-.24-.14,0-.16.13-.13c-.09.13.14,0,.12.16v-.09h0c.17-.1-.13-.12-.08-.26h.15s-.14,0-.18-.1,0-.11,0-.16v0c-.07,0,0-.09,0-.17s0,.08.05.06.2-.11.15-.25.14.05.19,0,.15-.08.11-.23-.09,0-.16-.11v.22l-.1-.18v.18s0-.07-.14-.07c.19,0,0-.2.11-.25l.25.09c.16-.1,0-.3.09-.46l-.07.05c-.09-.06,0-.12,0-.19s.13,0,.19,0,.05-.13-.11-.21h.14c.1-.13-.18-.26-.1-.39.07.08.16,0,.19.15s0-.08,0-.1-.07-.17,0-.19-.12-.07-.09-.12h0s0-.1-.14-.09c.32,0,.13-.41.4-.46a1.93,1.93,0,0,1,0-.34h0s-.21-.16-.07-.28,0,.1.11.08c.28.07,0-.2.22-.24h0c.12,0,0-.22,0-.34h.05a.6.6,0,0,1-.1-.45c.09.08,0,.08.15.1s-.18-.05-.17-.17a.62.62,0,0,1,.27,0v.1c.17,0,0-.13.09-.17h.06c0-.16-.13-.22-.06-.39h-.06c-.13-.15.12,0,0-.17h.18a1.69,1.69,0,0,1-.08-.39,1.19,1.19,0,0,1,.17.36c0-.06.06-.2,0-.26s0,.07,0,.08a.31.31,0,0,1-.09-.35c.31.14.19-.28.47-.27-.05-.25.2-.4.27-.65-.29,0,0-.07-.25-.15V16l.22-.12c.09,0,0,.08.1.09a.26.26,0,0,0,.23-.07c-.1,0-.12-.09-.06-.15l-.16.06c-.07-.22.28-.07.2-.29l.06.08c0-.11.12-.33-.06-.49h.12c.11-.2-.05-.55.14-.67h.06c0-.05-.1-.11,0-.14s.06,0,.07,0-.07-.15,0-.19l.06.08c.16-.18-.06-.39,0-.58a.32.32,0,0,0,.36-.14h0c.11-.24,0-.47,0-.72.25-.07.25-.44.44-.63,0,0-.14,0-.14-.1s-.08-.19.09-.12h0c.18,0,.17-.1.21-.18l-.22-.1c.4-.1.08-.62.42-.63a.36.36,0,0,0-.05-.22l.12-.08a1,1,0,0,0,.16-.4l.07.07c.05-.1-.3-.25-.27-.35h.19c.06-.18.28-.3.18-.54,0,0,.08,0,.08.07s.23-.28,0-.34c.16,0,.08-.18,0-.3h.12c-.13-.13-.17-.15-.17-.28s.1,0,.06,0-.09-.11,0-.2l.06.07a.19.19,0,0,0-.07-.18c-.07-.08.09-.17.2-.14-.06,0-.13-.12-.08-.17a.13.13,0,0,1,.07,0c.14-.12-.05-.28.1-.34h.08c-.05.12-.09.22-.1.2s.17,0,.29.08c0-.11-.18-.31-.1-.39h0a0,0,0,0,0,0-.07.13.13,0,0,0,.13.08c.09,0,.09-.1.11-.14s-.08-.1-.2-.07h0v.13c-.05-.06-.09-.12,0-.15L20,7.19c.19,0,.33-.11.44-.09,0-.18.08-.37-.11-.55h.12s0,.06,0,.09.07-.27-.08-.34c.11-.09.12.11.15,0h0c.36-.21-.23-.62.21-.83h-.07c.27-.32.14-.81.5-1.1.08-.08,0-.13-.07-.22h.13l-.11-.16c0-.19.42-.15.28-.42h-.1c.05-.06,0-.24.13-.19s-.08-.06,0-.07h.07l-.06-.21c.1-.12.26.12.35-.07s-.13-.28-.18-.27a.12.12,0,0,1-.14,0v.07c-.19-.08-.38-.21-.57-.09l.08.15h-.11v-.1c-.11,0,0,.08,0,.14h-.12l.15.18c-.08,0-.13-.11-.2-.05s.19,0,.21.12-.17,0-.12.07-.08,0-.09-.06a.4.4,0,0,0,.06.22c-.13,0,0,.2-.22.13a.35.35,0,0,1,.1.21c-.19-.18-.08.19-.32.08.18.14,0,.28.07.45h0l-.16.1c.16.07.16.19.25.29-.2,0-.18-.13-.35-.16.14,0,.09.2.21.21h-.22c.2.08,0,.07.12.17-.13.06-.2,0-.18.08S19.91,4.83,19.91,4.83Zm-.52,2.62h0v0Zm-.12.19a.14.14,0,0,0,0-.09s.08,0,.07,0S19.36,7.64,19.27,7.64Zm1-.15h-.05a.09.09,0,0,0,0-.07h0Z"/><path class="cls-1" d="M31.23,25.54c0,.06-.07-.06-.06,0S31.25,25.61,31.23,25.54Z"/><polygon class="cls-1" points="31.17 25.57 31.17 25.57 31.18 25.57 31.17 25.57"/><path class="cls-1" d="M31.77,26.72a.09.09,0,0,0,0-.07Z"/><path class="cls-1" d="M17.74,27.3s1.46-5,3.26-5,3.27,5,3.27,5Z"/><path class="cls-1" d="M23,23.91c0,.06-.08-.06-.06,0S23,24,23,23.91Z"/><polygon class="cls-1" points="22.93 23.93 22.92 23.93 22.93 23.94 22.93 23.93"/><path class="cls-1" d="M18.57,25.33Z"/><path class="cls-1" d="M18.41,25.86v-.07s0,0,.07-.05,0-.11,0-.14h0a.6.6,0,0,0,.06-.23h-.05v-.06h0c.05,0,0,.05,0,.06a.76.76,0,0,1,.06-.2s0,.12,0,.07l-.05.07c.08,0,0,0,.05,0s0-.12.09-.21,0,0,0,0,.12-.06.13-.18,0-.06,0-.13v.05c.05-.09,0-.08.05-.16s0,.08,0,.06v-.09h0c0-.1.07-.22.12-.32h0a2.06,2.06,0,0,1,.25-.4v-.06h0v0h0a.67.67,0,0,1,.2-.33h0c.06-.05,0-.1.07-.15h0a1.46,1.46,0,0,1,.34-.36c0-.05.14-.11.1-.17l.2-.08a.11.11,0,0,1,.05-.09h0v-.07h.05c.05,0,.15-.06.16,0l.12-.1v.05s0,0,.08,0h.18a.91.91,0,0,1,.33,0s0-.05,0-.05v0s0,0,0,0,0,0,0,.05h.06s.08.08.12.06h0a1.19,1.19,0,0,1,.25.13h.08l.18.2h.06c.07,0,.06.08,0,.06a2.09,2.09,0,0,0,.22.2v0h0c.13.11.18.34.29.42h0l.09.1h0a3.34,3.34,0,0,0,.21.29.88.88,0,0,1,.18.43h0v.06h0a4.45,4.45,0,0,1,.33.78c0,.1.1,0,.12.15h0c.12.18.17.4.27.58h0s.07.15.08.14h0s.07.1.06.13h0s0,.12.06.09.06.13.06.2,0,.13.08.13,0,.14,0,.18,0,0,0,0,0,.09.06.07.11.21,0,.2,0,.06,0,.06h-.12c0-.05.17,0,.12-.06a.74.74,0,0,1-.33.05h-.46s-.1.06-.1.08-.12,0-.06-.09h0a.34.34,0,0,1-.14,0h0a.2.2,0,0,1-.15,0h0a1.24,1.24,0,0,1-.33,0s0,0-.05,0h-.24c-.06,0,0,0-.07,0a.24.24,0,0,0-.09,0H21.8v-.05a.28.28,0,0,0-.18,0h0s0,.05-.07,0h-.29c-.09,0,.09,0,.06,0l-.41,0h0c0,.05-.1,0-.17,0h-.51c-.18-.08-.33,0-.49,0h-.08a.14.14,0,0,1-.09,0c.05,0,0,0,0-.05h0s0,.05-.11,0h0a.2.2,0,0,1-.11,0v0s-.1.06-.14,0h-.12c-.07.07-.14,0-.23.06.09,0,0,0,0-.06s-.05,0,0,0h-.13a1.13,1.13,0,0,0-.33,0,1.06,1.06,0,0,1-.22.07H18s0,0-.07,0a0,0,0,0,1,0,0h-.1c.05,0-.14,0-.16,0h0c0,.06.14,0,.21,0v0h.39c.12,0,0,0,.11-.07l.06.08h.31s-.07,0,0,0,.11,0,.15,0h.19a.41.41,0,0,1,.22,0h.14c.06,0,0,0,0,0h.05a.06.06,0,0,1,.06,0h0a.89.89,0,0,1,.23,0s-.07-.07,0-.1,0,0,0,.05h0a.17.17,0,0,1,.1,0h.25a2,2,0,0,1,.35,0h.25a.29.29,0,0,1,.13,0h.24c.14,0,.26-.06.37,0s-.08,0-.05,0,.13,0,.16,0a.19.19,0,0,1,.17,0c.09.05,0,0,.05-.06s.08.05,0,.06h.45c.09,0,0,0,.07,0s0,0,0,.05a.31.31,0,0,1,.19,0h.05V27.3s.1,0,.1,0l-.07,0a.06.06,0,0,1,.06,0h.19s0,0,0,0,.07,0,.1,0h.27c.07,0,0,0,0,.05h.17c.08,0,0,0,0,0h0v.05h.9c.05,0,.08,0,.07,0a.33.33,0,0,0-.1-.17v-.08c0-.14-.09-.1-.11-.21l.06,0c.06,0,0-.07,0-.07s-.05-.07,0-.1,0,0,0-.05h0s0-.06,0,0c0-.12-.1-.27-.08-.37l-.09-.2h0c0-.08-.07,0-.08-.13s0,.05,0,0-.06-.11,0-.19h0s-.07-.11-.1-.19h0a.6.6,0,0,1-.14-.21h0s0,0-.07,0,0-.08,0-.1v.07c0-.05,0-.09,0-.12h0c0-.1-.09-.08-.13-.19h0c-.06,0,0-.05-.05-.1h0l-.13-.18a.86.86,0,0,1,.13.14.21.21,0,0,0-.1-.14s0,0,0,.05a.52.52,0,0,1-.12-.17c.08,0-.08-.19-.05-.27s-.13-.26-.21-.41c0,.09,0,0-.07,0s0,0,0,0V23.8h0v-.1c0-.06,0,0-.07-.06v.07c-.09-.08,0-.11-.1-.2h0a.38.38,0,0,0-.2-.22h0c-.08-.12-.23-.24-.29-.34h0a.06.06,0,0,1-.06-.06h0a.18.18,0,0,1-.08-.07h0a.94.94,0,0,0-.28-.21.63.63,0,0,0-.1-.15h0a1,1,0,0,0-.44-.19c-.07-.1-.34-.12-.5-.13v0s-.1,0-.1,0h-.18v.05c-.18,0-.38.2-.47.22l-.08.09h0a.83.83,0,0,0-.22.2h0c-.06.05,0,.12-.06.17h0a.76.76,0,0,0-.24.29h0s-.16.17-.1.19-.08.1-.1.16h0a.2.2,0,0,1,0,.15h0a.17.17,0,0,1-.06.11v0s0,0,0,.1-.07.09-.1.09a.14.14,0,0,1,0,.09h0a.7.7,0,0,1-.11.21h0l.07-.13s-.05.05-.06,0a.43.43,0,0,1-.06.22h0v.08l-.07.1s0,0,0,0h0v-.08a.08.08,0,0,1,0,.09v.06c-.05,0-.11.11-.14.11a.49.49,0,0,0-.07.31c0,.08,0,0,0,0V25c0,.06-.07.17-.05.2s0-.06,0,0h0c-.14.17-.05.34-.21.51h0c-.12.23-.16.51-.3.73v.12h0v.08c0,.11-.12.15-.12.29h0s0,.15-.06.14h0v.12c0,.09-.05,0-.1.09s0,.16,0,.14a0,0,0,0,1,0,0v0s.08.07.14,0v-.07h0v0h0v-.08s0,0,.05,0-.05,0-.05,0,.05,0,.05-.06h0V27s0-.12.08-.1a.2.2,0,0,1,0-.11c0,.07,0-.13.09-.09s0-.17,0-.26h0c0-.05,0-.06.06-.08a.64.64,0,0,0,0-.14c0-.05,0,.05.07.05s0-.11,0-.1,0,0,.06,0,0,0,0-.09,0,0,.06-.07A.31.31,0,0,1,18.41,25.86ZM19,24.3Zm.07-.12v.05h0s0-.07,0-.08Zm-.31.18Z"/><polygon class="cls-1" points="18.81 24.38 18.8 24.39 18.82 24.38 18.81 24.37 18.81 24.38"/><polygon class="cls-1" points="20.34 22.67 20.33 22.67 20.32 22.67 20.34 22.67"/><path class="cls-1" d="M23.51,25.09a.06.06,0,0,0,0-.08A.11.11,0,0,1,23.51,25.09Z"/><polygon class="cls-1" points="20.55 22.27 20.57 22.25 20.52 22.28 20.55 22.27"/><circle class="cls-1" cx="21" cy="20.04" r="2.4"/><path class="cls-1" d="M23.4,19.89s0,0-.07,0,0,0,.05.06,0,0,0,0v0A.08.08,0,0,0,23.4,19.89Z"/><path class="cls-1" d="M22.41,18.05Z"/><polygon class="cls-1" points="23.27 19.62 23.28 19.64 23.27 19.62 23.27 19.62"/><polygon class="cls-1" points="22.87 18.43 22.88 18.44 22.89 18.44 22.87 18.43"/><polygon class="cls-1" points="23.41 20.04 23.41 20.05 23.42 20.05 23.41 20.04"/><path class="cls-1" d="M18.55,20.58c0-.06,0,.06.06,0S18.55,20.51,18.55,20.58Z"/><path class="cls-1" d="M19.31,18.23Z"/><polygon class="cls-1" points="19.04 18.53 19.06 18.53 19.06 18.51 19.04 18.53"/><path class="cls-1" d="M22.74,21.52Z"/><path class="cls-1" d="M22.93,21.17v.06s0,0-.07,0,0,.08,0,.11h0a.38.38,0,0,0-.08.16h0v0h0v-.05s0,.1-.08.13.06-.08,0-.06l.05,0h0a.64.64,0,0,1-.11.13c-.06.05,0,0,0,.05s-.12,0-.15.08,0,.06-.05.09v0c-.06.05,0,.07-.08.11s0-.05,0-.05a.08.08,0,0,1-.05.07h0c-.07,0-.13.12-.21.16h0a.7.7,0,0,1-.34.12v0h0v0h0a.39.39,0,0,1-.28.08h0c-.06,0-.06.06-.11.05h0a.86.86,0,0,1-.39,0s-.13,0-.15,0a.46.46,0,0,0-.15-.09h-.14v0h0l-.3-.1h-.08c.05,0,0,0-.07,0h0a.27.27,0,0,0-.13-.07h0L19.76,22v0h0v0h-.05s-.05-.07-.09-.06h0l-.17-.14h-.08a1,1,0,0,0-.12-.17H19.2c-.06,0,0-.08,0-.06s-.08-.09-.16-.17h0v-.06h0c-.1-.09-.07-.28-.15-.35h0l-.07-.09h0a.39.39,0,0,0-.09-.25c-.09-.08-.05-.25,0-.35h0v0h0a1.54,1.54,0,0,1,.1-.64c0-.07-.07-.06,0-.15h0A2.27,2.27,0,0,1,19,19h0s.06-.1,0-.12h0s0-.08,0-.08h0s.06-.08,0-.08.06-.1.09-.13.09-.07.06-.1.09-.05.11-.09,0,0,0,0l.14-.07s.1-.13.17-.11A2,2,0,0,1,20,18s-.11.07-.08.11a.6.6,0,0,1,.22-.17h0l.28-.13h0s.06-.07.06-.09.1,0,.06.08,0,0,0,0h0s0-.05.1-.06h0a.15.15,0,0,1,.11,0h0A.54.54,0,0,1,21,17.6s0,0,0,0h.37v.05h.15s0-.06.06,0h0a.27.27,0,0,1,.21.06c.06.06-.06,0-.05,0a1,1,0,0,1,.3.08h0s.06.06.12.06h0l.23.1h0a.52.52,0,0,0,.11.1h0c.05.14.23.14.26.27h0l.08.07v0H23s0,0,0,.05h0c0,.07,0,0,.07.05h0s0,0,.06.06,0,0,0,0,.1,0,.1.08l-.05,0a.11.11,0,0,0,0,.08h0v.07h0c.09,0,.07.09.14.13h0c-.06,0,0,0,0,0a.09.09,0,0,0,0,.08h0a.33.33,0,0,0,.09.23c.1.07.07.08.11.15s0,0,0,0a.21.21,0,0,0,0,.11h0s0,0,0,.06h0l.05.1h0s0,.11.06.12h0v-.06h0c.05,0,0-.11,0-.17h0l0-.05h0c.05,0,0,0,0-.07h0a.34.34,0,0,1,0-.14h0c0-.09,0,0-.08-.06l0-.07h0s-.06-.12,0-.15,0,.05,0,0v-.1h0a.09.09,0,0,0-.07-.11c-.06,0-.05-.06-.1-.11s0-.11-.07-.16h0a.14.14,0,0,1-.11-.07h0s-.09-.06-.13-.12,0,.08-.08,0h0a.11.11,0,0,1,0-.08h0v-.05s0,0-.05,0h0s-.11-.08-.1,0h0c-.1,0-.16-.12-.24-.16h0l-.16,0h0a.18.18,0,0,1-.1,0h.05s-.07,0-.13,0,0,0-.06,0H22c-.1-.07-.22,0-.29-.07s.06,0,0,.05-.27-.36-.28-.36h-.15c-.07,0,0,0,0,.05s-.07-.05,0-.05h-.38c-.07,0,0,0-.06,0h0a.43.43,0,0,1-.16,0h-.06v.06c0,.06-.07,0-.09,0s0,0,0-.05h0c-.09,0,0,0-.11.06h0v.05c0,.05-.06,0-.09,0h0l-.07.05h0a.26.26,0,0,0-.14,0h0a.26.26,0,0,0-.13,0c-.05.05,0,0,0,.05l.1-.06-.05.06s.05-.05.08-.05h0a.26.26,0,0,1-.14.06v-.05c-.08,0-.1.09-.2.13h0a.1.1,0,0,0-.08.06c0,.07,0,0,0,0a.06.06,0,0,0,0,.08h0c-.07.05,0,.1-.11.15s0,0,0-.06,0,0,0,0,0,.07-.06.07,0,0,0,.05h0v0c-.09,0-.14.16-.22.19l-.1.15h0a.26.26,0,0,1,0,.13c0,.05,0,0,0,0a.16.16,0,0,1-.1.12h0s0,.1-.07.16h0a.37.37,0,0,1,0,.21h0v.06c0,.06,0,0-.07,0v0s0,.07,0,.09h0v.19h0v.09h0v0a.33.33,0,0,0,0,.14v-.05a.22.22,0,0,1,0,.16c-.06,0,0,.17-.07.22s0,.23,0,.37c.05-.05,0,0,.07,0v.15h0v.08c.05.08,0,.1,0,.18h0s.07.18.14.21h0c0,.11.17.21.2.31h0a0,0,0,0,1,.05.05h0a.14.14,0,0,1,.07.06h0c.06.11.14.12.22.18s0,.12.05.15h0a1.23,1.23,0,0,0,.31.19c0,.09.21.17.31.24s0,0,0,0,.09,0,.07,0h0c0,.05.06.07.11.09v-.05c.08.12.31.08.36.16h.1a1,1,0,0,0,.23,0h0c.06,0,.08-.07.14-.07v0a.51.51,0,0,0,.3,0h0s.19,0,.16,0,.11,0,.16,0h0c0-.05,0-.06.09-.09H22c.05,0,.05,0,.07,0s.09,0,.1,0a.09.09,0,0,1,.06-.06h0a.44.44,0,0,1,.17-.08h0l-.12,0s.07,0,0,.06.09-.11.14-.13h0a.17.17,0,0,0,.1,0s0,0,0,0h0l-.07,0a.13.13,0,0,1,.07-.06v-.05h.15s.16-.13.16-.21,0,0,0,0h0s.11-.1.1-.13,0,.05,0,0h0c.16-.08.11-.25.27-.35h0a3.81,3.81,0,0,0,.31-.56v-.1H23.4V20.7c0-.09.11-.13.08-.25h0v-.11h0a.17.17,0,0,0,0-.1c0-.07.07,0,.07-.09s0-.12-.05-.1,0,.05,0,.05v-.05a.14.14,0,0,0-.13.05v.06h0v0h0l0,.06h0c.05,0,0,0,0,0h0v.1s0,.1-.05.09a.11.11,0,0,1,0,.08c0-.06,0,.1-.08.07s0,.14,0,.21h0a.05.05,0,0,1-.05.05c-.06,0,0,.08,0,.12s0-.05-.07-.05,0,.09,0,.08H23.1c-.05,0,0,0,0,.07s0,0-.06,0S22.93,21.17,22.93,21.17Zm-.87.94Zm-.09,0h0Zm.3.06Z"/><polygon class="cls-1" points="22.43 18.07 22.42 18.06 22.43 18.07 22.43 18.07"/><polygon class="cls-1" points="20.49 22.25 20.49 22.26 20.5 22.25 20.49 22.25"/><path class="cls-1" d="M20.33,17.85Z"/><polygon class="cls-1" points="23.3 19.79 23.3 19.81 23.3 19.81 23.3 19.79"/><path class="cls-1" d="M23.24,19.45v.08h0S23.27,19.47,23.24,19.45Z"/><path class="cls-1" d="M23.25,19.12v.07h0C23.29,19.05,23.28,19.17,23.25,19.12Z"/><path class="cls-1" d="M23.17,18.88Z"/><path class="cls-1" d="M22,17.8Z"/><polygon class="cls-1" points="21.67 17.81 21.7 17.84 21.72 17.82 21.67 17.81"/><polygon class="cls-1" points="21.55 17.59 21.56 17.59 21.51 17.59 21.55 17.59"/><path class="cls-1" d="M19.07,18.46Z"/><path class="cls-1" d="M18.58,19.52a.09.09,0,0,0,0,.07Z"/><polygon class="cls-1" points="20.13 22.4 20.11 22.4 20.14 22.41 20.13 22.4"/><path class="cls-1" d="M25.32,27.44s1.46-5,3.26-5,3.27,5,3.27,5Z"/><path class="cls-1" d="M26.15,25.46Z"/><path class="cls-1" d="M26,26v-.07s0,0,.07,0,0-.11,0-.14h0a.89.89,0,0,0,.07-.24h0a0,0,0,0,1-.05,0v-.06h0c.05,0,0,0,0,.06a1.33,1.33,0,0,1,.05-.19s0,.11,0,.06l0,.07c.07,0,0,0,.05,0s0-.12.09-.2,0,0,0,0,.12-.07.13-.19,0-.06,0-.12v.05c.05-.1,0-.08.05-.17s0,.08,0,.06v-.09h0c0-.09.07-.22.12-.32h0a1.62,1.62,0,0,1,.25-.39V24h0v0h0a.77.77,0,0,1,.19-.34h0c.07,0,0-.1.08-.14h0a1.34,1.34,0,0,1,.34-.37s.13-.11.1-.16a.88.88,0,0,0,.2-.09.11.11,0,0,1,.05-.09h0v-.07h0a.21.21,0,0,1,.15,0l.13-.09v0s0,0,.08,0h0a.49.49,0,0,0,.17,0h0a1,1,0,0,1,.34,0v0s0,0,0,0,0,0,0,0h.29s.07.07.11.06h0a.85.85,0,0,1,.25.13h.09l.17.19h.07c.06,0,.05.09,0,.07a2,2,0,0,0,.21.2v0h0c.13.12.17.34.28.43h0l.1.1h0s.12.19.2.29a.84.84,0,0,1,.18.42h0v.07h0a4.09,4.09,0,0,1,.34.77c0,.1.1,0,.12.16H31c.11.18.17.39.27.57h0s.06.16.08.15h0s.07.09.05.12h0s0,.13.06.1.06.13.07.2,0,.12.07.12,0,.14.05.18,0,.05,0,0,0,.09.06.08.11.21,0,.2.06.05,0,.05h-.11s.17,0,.12-.05a1,1,0,0,1-.33.05H30.9s-.1.06-.1.07-.13,0-.06-.09h0a.33.33,0,0,1-.14,0h0a.2.2,0,0,1-.15,0h0a1.86,1.86,0,0,1-.34,0c0-.05,0,0,0-.06h-.24c-.06,0,0,.05-.07,0a.32.32,0,0,0-.1,0h0a.17.17,0,0,1-.1,0v0a.33.33,0,0,0-.18,0h0s0,.05-.07,0H29c-.09,0,.09,0,.05,0a2.73,2.73,0,0,1-.41,0h0c0,.06-.09,0-.16,0H28c-.17-.07-.33,0-.48,0h-.09a.14.14,0,0,1-.09,0c.06,0,0,0,0,0h0s0,0-.11,0h-.11v0s-.1.05-.15,0H27a.17.17,0,0,0-.1,0h-.09c-.07.07-.14,0-.22.05.08,0,0,0,0-.05s-.06,0-.05,0h-.13a.84.84,0,0,0-.33,0,1.36,1.36,0,0,1-.22.07h0a.38.38,0,0,0-.15,0h0s0,0-.08,0v0h-.09c.05,0-.15,0-.16,0h.07c0,.05.14,0,.21,0v0h.38c.13,0,0,0,.11-.07l.06.08h.31c.05,0-.07,0,0,0s.11,0,.15,0h.19a.41.41,0,0,1,.22,0h.14c.06,0,0,0,0,0h.05a.06.06,0,0,1,.06,0h0a1,1,0,0,1,.24,0s-.07-.07,0-.09,0,0,0,.05h0a.14.14,0,0,1,.09,0h.25a2.16,2.16,0,0,1,.36,0h.24a.17.17,0,0,1,.14,0h.24c.14,0,.26-.07.37,0s-.08,0-.05,0,.13,0,.16,0a.22.22,0,0,1,.17,0c.09,0,0,0,0-.05s.09.05,0,.05H30c.09,0,0,0,.07,0s0,0,0,0a.31.31,0,0,1,.19,0h.05v0s.09,0,.11,0,0,0-.08,0h.25s0,0,0,0,.07,0,.1,0H31c.07,0,0,0,0,0h.17c.09,0,0,0,0,0h0v.06h.46c.05,0,.07,0,.07,0s-.05-.15-.1-.17v-.08c0-.15-.09-.11-.11-.22l.06,0c.06,0,0-.06,0-.06s0-.08,0-.11,0,0-.05,0h0c0-.11-.09-.26-.07-.36l-.09-.2h0c0-.09-.07,0-.09-.14s0,.05,0,0,0-.1,0-.18h0c0-.06-.07-.11-.09-.2h0a.8.8,0,0,1-.15-.21H31s0,0-.07,0,0-.08,0-.11v.07a.13.13,0,0,0-.05-.12h0c0-.09-.08-.08-.12-.19h0c-.06,0,0-.05-.05-.1h0a.86.86,0,0,1-.14-.18.86.86,0,0,1,.13.14.26.26,0,0,0-.09-.14s0,0,0,.05a.48.48,0,0,1-.12-.16c.07,0-.08-.2-.06-.27s-.12-.27-.21-.42c0,.09,0,0-.07,0s0,0,0-.05v-.12h0v-.1s0,0-.06,0l.33.13c-.09-.08,0-.12-.11-.2h0c-.05-.05-.12-.2-.2-.22h0a2.82,2.82,0,0,1-.29-.35h0a.06.06,0,0,1-.06-.05h0A.31.31,0,0,1,29.7,23h0a.94.94,0,0,0-.28-.21.89.89,0,0,0-.1-.16h0a.93.93,0,0,0-.42-.18c-.07-.1-.35-.12-.51-.14v0s-.1.05-.1,0h-.18v.06c-.18,0-.37.2-.46.21l-.08.1h0a1,1,0,0,0-.22.19h0c-.05.06,0,.13-.05.17h0a.7.7,0,0,0-.24.3h0s-.17.17-.11.18-.08.11-.1.17h0a.38.38,0,0,1,0,.15h0a.17.17,0,0,1-.06.11v0c0,.06,0,.06,0,.1a.19.19,0,0,1-.1.1.11.11,0,0,1,0,.08h0a.6.6,0,0,1-.11.21h0l.07-.12s0,0-.06,0a.9.9,0,0,1-.06.22h0v.07a.64.64,0,0,0-.06.1s0,.05,0,0h0v-.07a.14.14,0,0,1,0,.09v.06c-.06,0-.12.1-.14.1a.85.85,0,0,0-.09.31h0v0c0,.06-.07.17,0,.19s0-.05,0,.05h0c-.14.16,0,.33-.21.51h0c-.13.23-.16.51-.3.72v.13h0v.08c0,.1-.13.15-.12.29h0c0,.05,0,.15-.06.13h0v.13c0,.08-.06,0-.11.09s0,.16,0,.14,0-.05,0-.05v.05s.08.07.14,0v-.08h0v0h0v-.09s0,0,.05,0-.05,0-.05,0,.05,0,.05-.06h0v-.13s0-.12.08-.11a.11.11,0,0,1,0-.11c0,.08,0-.12.09-.08s0-.17,0-.27h0s0-.05.05-.07a1.47,1.47,0,0,0-.07-.33s0,.05.07.05,0-.11,0-.1,0,0,.06,0,0,0,0-.09,0,0,.06-.07Zm.63-1.55Zm.07-.13v.06h0a.26.26,0,0,1,0-.09Zm-.31.18Z"/><polygon class="cls-1" points="26.39 24.52 26.38 24.52 26.39 24.52 26.39 24.51 26.39 24.52"/><polygon class="cls-1" points="27.91 22.8 27.91 22.8 27.9 22.81 27.91 22.8"/><polygon class="cls-1" points="28.13 22.4 28.15 22.38 28.1 22.41 28.13 22.4"/><circle class="cls-1" cx="28.58" cy="20.18" r="2.4"/><path class="cls-1" d="M30,19.69Z"/><path class="cls-1" d="M26.12,20.71c0-.05.05.06.07,0S26.12,20.65,26.12,20.71Z"/><path class="cls-1" d="M26.89,18.37Z"/><polygon class="cls-1" points="26.62 18.66 26.63 18.66 26.64 18.65 26.62 18.66"/><path class="cls-1" d="M30.32,23.15Z"/><path class="cls-1" d="M27,18.54l0,0Z"/><path class="cls-1" d="M30.51,21.3v.06s0,0-.07,0,0,.09,0,.11h0c0,.05-.08.1-.08.17h0a0,0,0,0,1,.05,0v0h0c-.05,0,0,0,0-.05a.35.35,0,0,1-.08.13s.06-.08,0-.05l.05,0h0a.46.46,0,0,1-.11.12c-.06,0,0,0,0,0s-.12,0-.16.09,0,.06,0,.08v0c-.06.05,0,.07-.08.1S30,22,30,22s0,.05,0,.07h0c-.07,0-.13.12-.21.17h0a.76.76,0,0,1-.33.11v0h0v0h0a.47.47,0,0,1-.28.09h0c-.06,0-.06.06-.12,0h0a.81.81,0,0,1-.38,0c0,.05-.14,0-.15,0a.8.8,0,0,0-.16-.08h-.14v0h0l-.11-.07h-.12s0,0-.06,0h0a.35.35,0,0,0-.13-.08h0a2.1,2.1,0,0,1-.26-.13v0h0v0h0s0-.08-.08-.06h0L27.18,22H27.1a1,1,0,0,0-.11-.17h-.06c-.05,0,0-.08,0-.07s-.08-.08-.15-.17h0v-.05h0c-.11-.09-.07-.29-.16-.36h0l-.06-.08h0a.39.39,0,0,0-.09-.25c-.1-.08-.06-.26,0-.36h0v0h0a1.37,1.37,0,0,1,.1-.63c0-.07-.08-.06,0-.16h0a1.9,1.9,0,0,1,.15-.46h0s.07-.1.06-.11h0s0-.09,0-.09h0s.06-.08,0-.08.06-.1.1-.12.09-.07.06-.1.09-.05.11-.09,0,0,0,0,.05-.07,0-.08.1-.13.17-.11a1.56,1.56,0,0,1,.28-.23s-.11.07-.08.11a.63.63,0,0,1,.22-.18h0L28,18h0a.7.7,0,0,0,.06-.09s.1,0,.06.08,0,0,0,0h0s0-.05.1-.06h0a.15.15,0,0,1,.11,0h0a.51.51,0,0,1,.25-.06s0,0,0,0h.41v0h.15s0-.05.06,0h0l.22.07s-.07,0,0,0a1,1,0,0,1,.3.08h0s.06.06.12.06h0l.22.1h0s.08.07.11.1h0c.06.14.24.14.27.27h0l.07.07v-.05h.07s0,0,0,.06h0c0,.07,0,0,.07.05h0s0,0,.06.06,0,0-.05,0,.09,0,.09.08l0-.05a.14.14,0,0,0,0,.09h0v.07h0c.08,0,.07.09.14.12h-.06c-.07,0,0,0,0,0a.09.09,0,0,0,.05.08h0a.31.31,0,0,0,.09.22c.1.07.07.09.11.16s0,0,0,0a.2.2,0,0,0,0,.11h0s0,0,0,.06h0l.05.1h0s0,.11.06.12h0v-.06h0c.05,0,0-.11,0-.17h0l0-.05h0s0,0,0-.07h0s-.06-.1,0-.14h0c0-.09,0,0-.08-.06l.05-.07h0s-.06-.12,0-.15,0,.05,0,0v-.1h0S31,19,31,19s-.06-.06-.11-.11,0-.11-.07-.16h0a.11.11,0,0,1-.1-.07h0a0,0,0,0,1,0,0h0s-.09-.06-.13-.13,0,.09-.08.05h0v-.08h0s0,0,0-.05,0,0-.06,0h0s-.11-.08-.1,0h0c-.09,0-.16-.12-.24-.16h0l-.16,0h0a.21.21,0,0,1-.1,0h0a.08.08,0,0,0-.11,0c-.07.05,0,0-.07,0h-.07c-.1-.07-.22,0-.29-.07s.06,0,0,0S29,17.7,29,17.7h-.15c-.07,0,0,0,0,.05s-.06-.05,0-.06h-.37c-.07,0,0-.05-.06,0h-.22v.06c0,.07-.08,0-.09,0s0,0,.05,0h0c-.09,0,0,0-.11.06h0v.05s-.06,0-.09,0h0l-.07,0h0a.26.26,0,0,0-.14,0h0a.2.2,0,0,0-.13.05s0,0,0,0l.09-.06,0,.06s.05,0,.07,0h0a.26.26,0,0,1-.13.06V18c-.08,0-.11.09-.21.13h.07a.1.1,0,0,0-.08.06c0,.06,0,0,0,0a.06.06,0,0,0,0,.08h-.05c-.07,0-.05.1-.1.14s0,0,0-.06,0,0,0,0,0,.07-.07.07,0,0,0,.06h0v0c-.09,0-.15.16-.23.19l-.09.15h0a.22.22,0,0,1,0,.12c0,.06,0-.05,0,0s-.05.09-.1.13h0a.25.25,0,0,1-.06.16h0a.67.67,0,0,1,0,.2h0v.06c0,.06,0,.05-.07.05v-.06s0,.07,0,.1h0v.18h0v.1h0v0a.29.29,0,0,0,0,.13V20a.25.25,0,0,1,0,.17c-.07,0,0,.17-.07.21s0,.24,0,.38c.05-.06,0,0,.07,0v.14h0V21c.05.09,0,.1,0,.19h0s.07.18.14.2h0c0,.12.17.22.2.31h0s0,0,.05.06h0a.07.07,0,0,1,.07.06h0c.06.11.14.11.22.18s0,.11.05.14h0a1.1,1.1,0,0,0,.31.2c0,.08.21.16.31.24s0,0,0,0,.09,0,.07,0h0s.06.07.1.08v0c.09.11.32.07.37.15h-.17a.59.59,0,0,0,.23,0h0c.06,0,.08-.07.13-.07v0a.81.81,0,0,0,.31,0h0s.18,0,.16-.05.11,0,.16,0h0s0-.06.09-.08h.09c.05,0,0,0,.06-.05s.1,0,.11,0,0-.05.06-.05h0s.07-.14.15-.14h0l-.11,0s.06,0,0,.06a.35.35,0,0,1,.14-.13h0a.15.15,0,0,0,.09,0s0,0,0,0h0l-.06,0a.09.09,0,0,1,.06-.06v0h.15s.16-.13.17-.21,0,0,0,0h0s.1-.1.08-.13,0,0,.06,0h0c.15-.08.1-.25.27-.35h0a5,5,0,0,0,.31-.56v-.1h0v-.06c0-.09.11-.13.08-.25h0v-.11h0a.17.17,0,0,0,0-.1c0-.07.07,0,.07-.09s0-.12-.05-.1,0,.05,0,.05h0a.13.13,0,0,0-.13.06v.05h0v0h0l0,.06h0c.05,0,0,0,0,.06h0v.1s0,.1-.05.08v.09c0-.06,0,.09-.08.07s0,.13,0,.2h0l-.05.06s0,.07,0,.11,0,0-.07,0,0,.08,0,.07h-.07c-.06,0,0,0,0,.07s0,0-.06,0S30.51,21.3,30.51,21.3Zm-.84.94Zm-.09.05Zm.3.05Z"/><polygon class="cls-1" points="30.01 19.7 30 19.7 30.01 19.7 30.01 19.7"/><polygon class="cls-1" points="28.07 22.39 28.07 22.4 28.08 22.39 28.07 22.39"/><path class="cls-1" d="M27.91,18Z"/><path class="cls-1" d="M29.58,19.43Z"/><polygon class="cls-1" points="29.25 17.95 29.28 17.97 29.3 17.95 29.25 17.95"/><polygon class="cls-1" points="29.13 17.73 29.14 17.73 29.09 17.72 29.13 17.73"/><path class="cls-1" d="M26.64,18.59Z"/><path class="cls-1" d="M26.16,19.66a.08.08,0,0,0,0,.07Z"/><polygon class="cls-1" points="27.71 22.54 27.68 22.54 27.72 22.54 27.71 22.54"/></svg>