<svg id="Capa_1" data-name="Capa 1" xmlns="http://www.w3.org/2000/svg" viewBox="0 0 292.78 82.02"><defs><style>.cls-1{fill:#f1d54d;}</style></defs><path class="cls-1" d="M66.91,14.59a169.45,169.45,0,0,1,22.5-1.23c3.87,0,7.79.1,11.74.24l11.91.39c15.91.62,31.89.89,46.29-1.66,17.26-3.48,35.2-5.59,53.13-7.48l13.45-1.29c4.47-.42,8.93-.8,13.37-1.17L252.54,1.2l6.55-.57L265.58,0c.21,3-2.37,7.79.61,9,11.83,3.39,12.3,9.4,12.74,15.41.22,3-8.72.84-5.6,3.57a81.75,81.75,0,0,0-13.74,2.45c-3.6,1.06-5,2.31-.51,3.44,3.11,2.77,14.57-1.4,17.8,2.84s-2.28,9.3,1,13.52c2-.18,5.29-.53,8.14-.85,2.44-.27,4.29,3.5,3.49,7.17-.21,1-.12,1.55.82,1.45,4.54,1-21.48,5-15.95,4.35,4.77-.59,9.79-1.49,14.86-2.2,1.51-.21,3,1.16,3.48,3.45a3.5,3.5,0,0,1,.07.45c.12,1.27-.45,2.45-3.13,3.54a1.91,1.91,0,0,1-.52.14c-51.51,8.14-72.87,10.31-125.67,12.93s-106,1.56-157.89-4.8c-11.81-2.4-2.51-7.74,6.59-11.59-3,1.29-2.79-3.23-5.83-2,.26-4.53-.5-12.27,11.31-13-2.94-.17-5.87-.41-8.81-.63C6,47,9.06,44.23,9.21,41.22c2.93.22,5.85.44,5.93-1.07s.22-4.52.29-6l-8-.6c3.69.28,3.69.28,1.64-2.93l.9-4.44c5.88-1,6.89,1.14,12.78,0L23,21.65c-5.74-1.88-6.94.49-12.74,0,3-1.29,3.06-2.79,3.21-5.81,4.37-.4,15.74,1.29,20.06,1.95s8.67.95,13.09-1.12c-2.89-.13-5.78-.31-8.67-.5a9.42,9.42,0,0,1,5.87-3.08,26.83,26.83,0,0,1,7.64,0C56.82,13.76,62.56,15.22,66.91,14.59Z"/></svg>