<?xml version="1.0" encoding="UTF-8"?>
<svg id="Capa_1" data-name="Capa 1" xmlns="http://www.w3.org/2000/svg" viewBox="0 0 62.36 61.18">
  <defs>
    <style>
      .cls-1 {
        fill: #58a4b7;
        stroke-width: 0px;
      }
    </style>
  </defs>
  <g>
    <path class="cls-1" d="M27.44,28.45c-.33.15-.89.17-1.6.05-1.89-.31-3.78-.63-5.67-.94-.87-.14-2.01-.15-2.34.67-.19.47.02,1.02.37,1.4s.81.6,1.25.86c2.42,1.41,6.59,4.04,7.45,6.7,1.3,4.03-2.85,8.26-3.55,12.25-.09.53-.19,1.07-.12,1.61s.32,1.07.78,1.35c1.66,1.01,4.48-4.31,5.31-5.43.61-.83,1.26-1.69,2.21-2.09,2.39-1.03,4.79,1.33,6.26,3.47s3.57,4.64,6.09,3.99c-.79-3.85-4.87-7.49-5.67-11.34-.58-2.83-.84-5.36-.32-8.21.44-2.42,5.05-4.8,6.12-7.02.27-.56.54-1.13.59-1.75s-.16-1.29-.69-1.62c-.65-.41-1.52-.16-2.17.25-1.32.82-2.22,2.15-3.16,3.38-.51.66-2.23,2.97-3.26,2.71-.82-.21-.88-2.51-.95-3.19-.25-2.3-.15-5.05-1.98-6.77-2.04-1.91-5.82-1.08-7.12,1.4-1.21,2.32-.21,5.1,1.67,6.7.95.81,1.01,1.34.51,1.57Z"/>
    <g>
      <path class="cls-1" d="M27.18,27.88c-.04.11.12.24.16.17-.11-.14,0,0,0-.02-.05,0-.2-.27-.16-.15Z"/>
      <path class="cls-1" d="M27.35,27.36c-.27-.08-.63-.04-.73.26.36-.07.29.04.71-.01.15.13.07.3-.05.32.05,0,.05.06.05.08,0,.04.01.02.11.06.13,0,.19-.16.12-.29-.06-.13-.2-.24-.38-.29,0-.1.11-.1.16-.13Z"/>
      <path class="cls-1" d="M33.51,21.93v-.13s0,.08,0,.13Z"/>
      <path class="cls-1" d="M39.49,25.82c-.05.08-.05.13-.03.15.04-.08.06-.15.03-.15Z"/>
      <path class="cls-1" d="M41.03,24.48s-.06.05-.09.07c.05-.01.09-.03.09-.07Z"/>
      <path class="cls-1" d="M33.51,21.93l-.04.33c.1,0,.05-.17.04-.33Z"/>
      <path class="cls-1" d="M24.9,25.69c.05.06.11.1.17.13l-.12-.14h-.05Z"/>
      <path class="cls-1" d="M30.53,18.55l-.08-.02s-.06.07-.1.11c.06-.04.12-.06.18-.09Z"/>
      <path class="cls-1" d="M27.13,19.2c.07-.03-.04-.27-.08-.39.02.12,0,.19-.06.25.03.04.07.09.14.14Z"/>
      <path class="cls-1" d="M25.42,24.34l.08.09s-.05-.06-.08-.09Z"/>
      <path class="cls-1" d="M32.43,20s-.05.06-.06.08c.03-.02.05-.05.06-.08Z"/>
      <path class="cls-1" d="M22.88,26.75s0,.03,0,.05c.03-.02.04-.04,0-.05Z"/>
      <path class="cls-1" d="M27.47,28.51l-.06.04s.02.1.04.15c.01-.06.02-.13.03-.19Z"/>
      <path class="cls-1" d="M43.15,23.51h0s-.02.02,0,0Z"/>
      <path class="cls-1" d="M41.88,50.85c.19.17.23.28.24.4.02.11,0,.22.32.43-.07-.07-.09-.23-.18-.39-.08-.16-.23-.33-.39-.44Z"/>
      <path class="cls-1" d="M24.86,25.57c-.03-.05-.07-.1-.1-.16.03.08.07.13.1.16Z"/>
      <path class="cls-1" d="M42.45,51.68h0s.07.04.07.04c-.03-.02-.05-.02-.07-.04Z"/>
      <path class="cls-1" d="M39.9,28.41s.1.03.15.03c-.02-.02-.06-.03-.15-.03Z"/>
      <path class="cls-1" d="M43.83,24.05l-.05.11s.05-.08.05-.11Z"/>
      <path class="cls-1" d="M37.67,31.35c-.07.08-.13.08-.16.23.02,0,.03-.01.05-.03-.01-.07.02-.13.11-.21Z"/>
      <path class="cls-1" d="M36.86,35.18s.04-.04.06-.07c0-.04,0-.08,0-.12l-.05.18Z"/>
      <path class="cls-1" d="M21.05,32.79c-.02-.1-.02-.2,0-.29-.06.19-.52-.03,0,.29Z"/>
      <path class="cls-1" d="M25.02,25.61c-.07.01-.12,0-.16-.04l.08.11s.07-.03.08-.06Z"/>
      <path class="cls-1" d="M39.39,32.53l-.18.3c.06-.07.13-.18.18-.3Z"/>
      <path class="cls-1" d="M26.2,52.89c-.05.06-.11.12-.17.17.07-.04.14-.1.17-.17Z"/>
      <path class="cls-1" d="M39.02,34.18c-.1.08-.17.18-.21.28.02.02.03.05.06.07l.15-.34Z"/>
      <path class="cls-1" d="M21.05,32.5h0s0,0,0,0Z"/>
      <path class="cls-1" d="M16.89,30.41c.63.72.62.14.93.17.89.54.19.46.4.81.17.07.39.16.49.17.1,0,.19,0,.28,0,.18,0,.35.01.48.1-.01.06.03.11-.07.14.5-.02,1.06.63,1.65.6.01.05.01.08,0,.11.03-.19.12-.34.2-.44.2.13.49.06.44.3-.12-.09-.18-.02-.28,0l.26.06c0,.4-.35-.09-.48.11.46.18,1.08.28,1.33.57-.12.3-.77-.41-.53.1l-.4-.43c.07.66-.26-.22-.24.45.55.5.78.34,1.3.86.24-.04.12-.24.36-.28,1.03.42.12,1.13.96,1.31.28-.02.63-.26.85.28l-.38.12c.42.52.67-.07.92.64-.19-.01-.42-.33-.39-.23.05.53.37.11.57.4l-.23.24c.21.26.44.52.61.79.11.13.16.31.24.48.08.17.14.35.16.53-.1-.03-.21-.14-.29.03.26.89-.18,1.99-.7,2.82.05.15.08.3.12.45-.04.08-.18.11-.19,0-.24.32.16.08.19.3-.07.22-.26.21-.28.05-.05.73-.4,2.06-1.01,2.63v-.17c-.38.5.2.86-.28,1.27v-.12c-.69,1.17-1.02,2.65-1.6,3.69.18.13.07.45.01.81-.07.36-.06.74.23.81-.09.56-.09.82-.06,1.11.06.28.09.71.75,1.34.18.17.4.11.6.09.1-.01.2-.03.3-.04.11-.02.22-.06.35-.07l-.02.29c.27-.06.5-.28.7-.42.14.09.28.12.44.17.16-.11.32-.2.45-.34-.19.12-.45.1-.45.01.73-.55,1.4-.91,1.55-.82.24-.39.46-.78.65-1.17.08.09-.03.29-.07.47.19-.73.33.09.49-.58-.1.03-.11-.14-.15-.18.33-.15.72-.73.94-1.19l.11.19c.56-.73.93-1.72,1.47-2.39-.28.22-.51-.05-.37-.3l.31.1c-.04-.26-.27.16-.23-.27.25-.25.42.04.37.25l.17-.38c.08.04.06.14.14.24-.03-.27.64-.26.56-.6l.07.06c.26-.2.41-.31.59-.39.17-.1.34-.14.58-.16.02-.27.22-.19.44-.37.44.18.81.59,1.31.92.43.15.24-.11.49-.11-.12.21.38.61.01.52.6.51.77.65,1.54,1.31.01-.15-.04-.28.07-.28.15.13.18.41.07.45l-.05-.02c.93.7,1.14,2.83,2.33,3.24l-.06-.02c.34.21.65.38,1.05.57.57.45-.47-.11-.1.33.84.39,1.46.66,2.06.85.59.2,1.17.24,1.68.06.28.11.58.14.92.13.18,0,.36-.03.54-.05.18-.03.29-.07.43-.12-.18-.66-.4-1.31-.57-1.9-.24-.62-.34-1.16-.46-1.66l-.13.11c-.35-.35-.13-.49-.24-.81-.1.1.06.48-.14.27-.24-.46-.35-.6-.5-.85l-.42-.71c-.27-.48-.53-.96-.78-1.44-.5-.97-.96-1.93-1.38-2.83-.31-.65-.97.05-1.02-.95l.39.1c-.47-.56-.73-1.23-.86-1.89-.15-.76-.26-1.52-.52-2.22.08.08.18.07.19.21.18-.34-.13-1.13-.31-1.12,0-.23.16-.07.24-.21.11-.31-.34-.75-.12-.92.04-.03.08.08.1.14-.12-.19,0-.92-.25-.73.12-.54-.09-1.04.1-1.46-.27-.31.24-.9-.15-1.04.21.06.33-.19.39-.43.04-.08.03-.16.03-.25.02-.1.02-.2,0-.28.07.14.22-.13.33.05.14-.25.28-.55.08-.64.78-.16.65-1.31,1.41-1.12.71-.97,1.52-1.82,2.29-2.7.26.35-.91.9-.57,1.19.7-.87.92-1.53,1.72-2.41.23-.22.05.25.03.39.16-.27.32-.54.47-.85.15-.29.23-.48.36-.75.22-.51.42-1.13.3-1.81.04,0,.09.15.11.29.01-.27.05-.64-.14-.59.03.08.05.17.07.25-.14.21-.27-.06-.45-.31-.17-.27-.4-.52-.47-.5.32.06.26-.23.14-.5-.11-.25-.3-.52.23-.48-.16-.14-.41-.22-.45-.08-.19-.19-.24-.31.09-.26-.49-.27-.7-.21-.86-.2-.17.03-.31.02-.75.04,0-.1.19-.14.3-.24-.25.07-.5.19-.72.29-.22.1-.44.2-.74.29.01-.07-.09-.1.09-.18-1.01.5-1.17,1.28-1.99,1.87-.09-.5-.33.16-.63-.03l-.27.49.27-.06c-.31.36-.35.84-.68,1.08l.09-.36-.46.71.39-.3c-.13.47.38.23-.06.65.05-.12-.28.35-.58.41h0c-.05.24-.09.49-.37.69-.14,0-.26-.3-.35-.31.1.35-.62.83-.55,1.18,0-.11-.12-.24-.16-.26.03.08.05.18.06.28-.16.04-.18,0-.24-.14-.32.19.29.36-.2.48.03-.05,0-.08.07-.16-.22.09-.44.27-.72.3-.26.02-.42-.23-.45-.49.24-.42.22.25.39-.19-.13-.15-.28-.33-.41-.63-.15-.46-.25-.95-.26-1.45l-.02.18c-.51-.09.18-.72-.1-1.19.05.11.29.13.23.1.02-.66-.22-1.34-.54-2.33l.15.1c.05-.42-.14-1.07-.23-1.51-.17-.09-.23-.34-.35-.12.11-.77-.34-1.39-.86-1.81-.52-.44-1.08-.69-1.53-1.24.15.05.39.06.28,0-.36-.13-.73-.23-1.09-.28.03.23.11.17.27.39-.17.09-.46.09-.7.06.47-.07.07-.34-.13-.5.03.07-.05.13-.04.2-.51-.42-.12.41-.82.15l.03-.12c-.27.06-.49.25-.78.26-.17-.23.26-.16.25-.37-.43.07-.69.61-1.1.5.14-.13.38-.2.53-.31-.48-.19-.51-.08-.82-.02h.03c-.25.03-.49.12-.74.18h.21c-.1.39-.29.57-.53.72-.23.17-.5.36-.57.75.19-.76-.08-.25-.25-.48-.2.07-.46.25-.46.13-.05.42-.55.4-.51,1.03-.09-.02-.17.35-.35.18-.13.47.19-.04.28.05-.01.38-.23.73-.4,1.17-.17.43-.28.96-.02,1.46.27.84.62.92,1,1.54-.04.28-.39-.07-.38-.08,0,.44.17.72.44,1.02-.11-.03-.13.07-.16.23.19.26.38.01.51.42-.12,0-.32.02-.49-.06.28.28.65.48.96.71-.05.19-.34-.01-.51-.06.33.32.91.75,1.17.65l-.14-.25c.12.09-.09.22-.21.17-.42-.12-.32-.45-.26-.52l.23.16c.2-.55-.77-.74-1.03-1.26l.45-.02c-.18-.09-.38-.19-.55-.31.04-.15.2-.32.37-.12.01-.41-.28-.23-.2-.61.02-.04.04-.04.07-.01-.08-.09-.16-.19-.23-.29.1.04.24-.14.26.07,0-.63-.55-.89-.29-1.18l.03.05c-.21-.84-.31-.03-.67-.71.24-.16.48-.29.73-.4l-.28-.12c.02-.09.06-.26.18-.21-.12-.36-.14.03-.27-.19.31-.36.29-1.22.75-1.08-.12-.24-.35.28-.26-.2.25.06.3-.05.34-.22.06-.16.11-.38.33-.45.1.26-.2.44.19.3-.09-.23.07-.34.25-.43.2-.07.41-.11.52-.23-.18-.29.5-.51.98-.77,0,.09,1.04-.11,1.52.04v.06c.07-.36.59-.27.97-.26-.06.2-.14.27-.34.33l.32.05c.1-.09.21-.11.44-.09l-.16.22c.38.11.94.07,1.25.58.21-.13.06-.85.7-.48-.07.11-.22.28-.38.2.05.03.22.07.26.19l-.34-.04c.12.27.24-.03.37.16-.14.12,0,.22-.13.28-.05-.03-.05-.2-.17-.21.14.2.23.5.15.65.08-.08.21-.14.32,0,.24.39-.12.25-.08.52.17.04.15.36.41.26.05.13-.07.2-.12.27.22.17.33,1.08.56.74v-.07s.03.04.03.04h0s0,0,0,0c.46.77.11,1.75.3,2.58h-.09c.14.5.17,1.15.4,1.48.01.15-.14.37-.26.31.11.41.2.37.14,1.07-.12-.24-.15-.2-.16-.17,0,.03,0,0-.02-.28-.02.53-.1.97.34,1.48-.3-.08-.03.73.26.88-.07-.17-.13-.34-.16-.52.19.27.36.54.64.69-.09.07-.18.13-.28.2.12.12.27.21.41.27.65.18,1.25-.22,1.68-.63.42-.4.82-.87,1.24-.91.05-.36-.54.33-.53-.04.39-.32,1.07-.43,1.17-.55.57-.43.05-.79.56-1.26-.14,0-.43-.11-.2-.59.32-.36.73-.18.62.11-.06.1-.12.12-.15.09-.06.15-.15.34.06.26l-.05-.12c.24-.12.62-.65.67-.41.13-.34-.05-.23-.26-.06.49-.38.58-.74,1.05-1.1-.11.02-.26,0-.2-.07.69-.52.1-.43.5-.86.36-.08.17.38.52-.08.34-.1.23.2.19.35.28-.48.77-.32.93-.32l-.12.14c.07-.09.15-.12.22-.13-.04-.06-.09-.13-.15-.19.11,0,.18,0,.19.09.04-.15-.13-.36.03-.58.1.08.45-.06.34.24-.13-.11-.15-.02-.16.07-.01.1-.05.2-.11.22.03-.03.07-.02.09.03,0,.03-.03.06-.04.07-.07.29.25-.3.41-.05-.16.06-.26.19-.23.19-.01-.05.25-.17.4-.07-.08.29.13.3.1.48.03-.07.05-.13.07-.19.17.06.14.25.12.54-.13-.01-.03-.26-.11-.18.22.38-.48.55-.51,1.06-.2.16-.3-.1-.45.02-.01.45-.4.24-.58.73.27.04.25-.03.16.4.17-.26.3-.52.41-.76-.02.2-.02.41-.07.63.17-.21.24-.53.33-.63.04.31-.02.27.21.26-.48.1-.29.72-.79.91l-.39-.4c-.62.29-.66,1.03-1.44,1.54l.29-.12c.05.25-.41.4-.58.66-.1-.16-.29-.09-.46-.09.1.09-.53.45-.34.79l-.48.11c-.64.48-.27.99-.8,1.52,0-.31-.34-.13-.11-.62-.18.18-.35.37-.26.45-.2.05-.24.75-.51.88.02.15.17.27.03.54-.05.02-.08-.04-.08-.04.06.03-.03.52.24.32-.81.68-.3,2.09-.83,2.72.05.54.1,1.2.14,1.69-.06-.03-.09,0-.08-.09-.14.69.55.38.42,1.15-.26.42-.2-.39-.29-.13-.61.17.18.91-.1,1.46l-.05-.12c-.15.42.38.92.45,1.55,0,0-.06-.02-.09.01.38.35.67,1.19.98,1.73-.29-.1-.22-.23-.4-.03.13.26.34-.2.6.29-.05.21,0,.63-.21.79l-.23-.49c-.2.39.29.64.37.91l-.15.03c.42.72.75.53,1.16,1.28l.05-.13c.55.2.02.44.5.69l-.24.32c.24.21.88.7,1.23,1.12-.4-.11-.86-.56-1.21-.81.16.26.58.85.82.88-.1-.08-.25-.16-.27-.29.44.15.83.47,1.14.98-.66.29.66,1.41.35,2.04.21.16.29.31.31.47.02.15-.04.24-.04.34,0,.03.03.09-.03.09,1.01.76-.09.04.69.87-.14.06-.24.05-.29,0-.31-.17-.55-.37-.72-.56-.15-.25.04-.15-.06-.33-.17-.1-.19-.36-.25-.56.06.27.02.36-.03.24,0,.11.04.23.1.37-.12.13-.21-.07-.2-.21,0-.07,0-.14,0-.19-.02-.05,0-.02-.23-.11.09,0,.22.03.25-.02-.29-.06-1.01-.93-1.61-.95,0-.1.06-.28.21-.16-.29-.4-.73-.78-1.13-1.18-.39-.4-.8-.86-.98-1.28l.17-.02c-.17-.14-.44-.12-.52-.42.05-.03.16-.03.1-.11-.11-.06-.58-.26-.73-.53l.29.07c-.71-.97-1.62-.94-2.53-1.3.22-.38-.71-.92-1.31-1.04l.03-.06c-.87-.15-1.67.09-2.27.46-.62.39-1.03.91-1.42,1.43-.45.14-.9.63-1.32,1.17-.45.61-.78,1.18-1.2,1.59.16-.1.26.2.18.39-.21.17-.16.76-.45.52l.06-.07c-.42-.05-.63.44-.88.75l.36.35c-.61.21-.98.77-1.33,1.19-.09.22-.42.44-.42.03-.1.13-.2.09-.34.11l.19-.23c-.02-.09-.01-.15-.02-.21,0-.03,0-.07,0-.11,0-.11-.01-.25,0-.43.06.06.12.11.18.16.06-.36-.69-.69-.61-1.12l.42-.04c.18-.79.81-1.45.83-2.38.05.04.14.11.1.24.16-.37.93-1.33.37-1.44.32.15.44-.82.52-1.34l.2.19c-.12-.53-.19-.58-.03-1.15.09-.11.24-.03.1.12.32-.38-.07-.43.28-.9l.07.26c.2-.45.11-.45.02-.77.02-.32.36-.85.62-.86-.12-.11-.24-.42-.1-.69.1-.02.12.1.14.16.38-.8-.07-1.28.2-1.86.09-.01.13-.05.16-.1-.01.71-.13,1.26-.14,1.2.24.04.37-.53.63-.03-.09-.51-.47-1.32-.43-1.89.02-.03.04-.06.08-.09l.03.06c.01-.14-.02-.26-.09-.36,0-.19,0-.32-.04-.49.2-.12-.11-.73-.24-1.02-.23.13-.37-.22-.4.19,0-.05.06.03.14.22.02.04.05.09.07.11h-.03c.09.17.17.41.23.68-.18-.2-.34-.38-.34-.73-.21-.08-.43-.14-.55-.18.18-.5-.09-1.24.02-1.45-.64-.61-1.41-1.43-2.12-1.38-.21-.1-.1-.28-.11-.39.13.04.24.16.35.15-.42-.22-1.07-.83-1.37-.61-.35-.47.45-.06-.21-.49l.15-.02c-.93-1.37-2.52-.68-3.57-2.13.08.1.12.14.11.21-.11-.1-.23-.19-.35-.27l-.3-.21c-.15-.1-.31-.19-.46-.31-.3-.21-.59-.63-.46-1.03.18-.51.92-.51,1.33-.27.15.07.21.05.29,0,.08-.05.23-.13.39-.19l.07.3.6-.23c.81-.11,1.22.91,2.27.62l-.09-.21c.34.09,1.13.07,1.04.28.04-.03.15-.18.27-.06v.15s.89-.11.89-.11c.69.21-.25.6.89.73.22-.02.56-.14.81-.3.26-.17.39-.38.28-.38-.21.09-.49.03-.52-.11.12-.04.23-.09.33-.16-.04-.22-.08-.44-.19-.62-.13-.18-.15-.34-.41-.47-.11.1-.26.18-.43.26l-.13-.23c.13.01.26.02.38.01-.19-.21-.34-.05-.52.05-.02-.12-.07-.21-.18-.27l-.63.32c-.04-.18.31-.3-.05-.45-.29.15.19.42-.27.48-.24-.24-.13-.39-.48-.27-.03-.12.05-.18.19-.21-.31.09-.76-.07-.94.14-.24-.29-.97-.1-.87-.5-.11.08-.55.24-.82.21.56-.41-.97-.19-.76-.7-.11.1-.24.14-.39.16-.08,0-.16.01-.24,0-.09,0-.15,0-.33-.03-.61-.08-1.29-.08-1.68.13.03-.04.1-.13.2-.12-.56.05-.79,0-1.16.08.19.31-.39.77-.34,1.23-.6.37-.22-.5-.6-.51.13.05.07.3.03.53-.03.29,0,.57.14.49-.26.41-.12.37-.42.59.48.1.15.47.62.78.05.32-.02.39-.05.46-.02.06-.02.14.35.42.18.38-.55-.11-.54-.14ZM26.4,38.36h0c-.01-.09-.03-.17-.03-.22,0,.05.02.11.04.22ZM26.42,39.29c.01-.11.02-.26.03-.41.09-.03.19,0,.18.1-.06-.05-.12.17-.2.3ZM27.95,36.77c.1.19.06.27.02.31-.03-.09-.05-.2-.13-.33h-.04c.05-.01.11,0,.16.02Z"/>
      <path class="cls-1" d="M27.49,36.55s-.03-.03-.05-.07c0,.05-.01.09-.01.13l.1.03s-.03-.07-.04-.1Z"/>
      <path class="cls-1" d="M33.52,21.79v.02s.01-.04.03-.05c0,.02-.02.02-.03.03Z"/>
      <polygon class="cls-1" points="24.43 53.71 24.43 53.64 24.27 53.69 24.43 53.71"/>
      <path class="cls-1" d="M30.21,17.26s-.03-.05-.08-.08c0,.02.04.05.08.08Z"/>
      <path class="cls-1" d="M27.47,17.56c-.14.01-.27.04-.4.07.18-.03.3-.05.4-.07Z"/>
      <path class="cls-1" d="M25.56,18.62c.01.05.03.08.05.11h0s-.05-.11-.05-.11Z"/>
      <path class="cls-1" d="M45.61,24.09s0,.07,0,.11c.02.25.02.08,0-.11Z"/>
      <path class="cls-1" d="M38.02,26.09c.02-.11.04-.21.08-.31-.12.12-.2.21-.08.31Z"/>
      <polygon class="cls-1" points="39.42 32.5 39.42 32.5 39.39 32.53 39.42 32.5"/>
      <path class="cls-1" d="M38.36,25.44c-.14.1-.21.21-.26.33.1-.1.21-.2.26-.33Z"/>
      <path class="cls-1" d="M26.08,27.22l.07.08s.03-.02.04-.02l-.11-.06Z"/>
      <path class="cls-1" d="M26.19,27.28l.11.06s-.07-.07-.11-.06Z"/>
      <path class="cls-1" d="M26.51,27.44c-.06-.02-.14-.07-.21-.1.06.06.14.14.21.1Z"/>
      <path class="cls-1" d="M24.56,24.82h-.1s.06.01.1,0Z"/>
      <path class="cls-1" d="M24.23,24c.04.2-.04.57.14.82h.08c-.2-.08-.01-.69-.22-.82Z"/>
      <path class="cls-1" d="M25.48,20.78c-.08.18-.19.35-.25.54.12-.08.28-.17.25.09.49-.6-.28.08,0-.63Z"/>
      <path class="cls-1" d="M26.61,19.42c-.18.25.1.11.13.16.08-.19.11-.24-.13-.16Z"/>
      <path class="cls-1" d="M33.81,26.29l-.24-.02c.06.28.09,0,.24.02Z"/>
      <path class="cls-1" d="M35.62,27.89c-.03-.08-.05-.16-.05-.26-.06.08-.12.16-.19.22.07.03.15.05.23.03Z"/>
      <path class="cls-1" d="M37.33,29.01l-.14.16c.19-.19.36-.37.53-.57-.13.15-.25.28-.39.42Z"/>
      <path class="cls-1" d="M36.66,34.5l.3-.06c-.04-.19-.37-.27-.3.06Z"/>
      <path class="cls-1" d="M39.25,45.13c-.07.18.01.49.23.57-.11-.22-.14-.49-.23-.57Z"/>
      <polygon class="cls-1" points="25.79 50.08 25.84 49.87 25.67 50.21 25.79 50.08"/>
    </g>
  </g>
  <g>
    <path class="cls-1" d="M43.57,17.14c.17-.73.86-3.76,1.03-4.49"/>
    <g>
      <path class="cls-1" d="M45.21,12.79c-.08-.02-.26-.06-.22-.05l.3.07-.08-.03Z"/>
      <path class="cls-1" d="M44.64,12.71c.15.04.4.11.68.17-.29-.07-.17-.05-.51-.14-.03-.01.1.01.21.04-.08-.02.07,0-.12-.04-.24-.05-.25-.04-.06.02-.07-.01-.15-.03-.2-.05Z"/>
      <path class="cls-1" d="M44.02,13.24h.04s-.03,0-.04,0Z"/>
      <path class="cls-1" d="M43.76,13.59s-.04-.01-.06-.02c.02,0,.04.01.06.02Z"/>
      <path class="cls-1" d="M43.41,13.58s.01,0,.02,0c-.03,0-.04,0-.02,0Z"/>
      <path class="cls-1" d="M44.02,13.24h-.1c.1.01.07,0,.1,0Z"/>
      <path class="cls-1" d="M45.35,12.96s-.04-.01-.08-.02c.01,0,.02,0,.03.01.02,0,.03,0,.05.01Z"/>
      <path class="cls-1" d="M43.81,13.01h0s-.08-.02-.12-.03l.12.03Z"/>
      <path class="cls-1" d="M43.79,12.86s.25.06.36.09c-.11-.03-.16-.04-.18-.05-.05-.01-.11-.02-.18-.04Z"/>
      <path class="cls-1" d="M44.3,12.75h-.03s.02,0,.03,0Z"/>
      <path class="cls-1" d="M43.73,13.09s-.07-.02-.09-.02c.03,0,.06.01.09.02Z"/>
      <path class="cls-1" d="M44.82,17.26s-.03,0-.05-.01c.03,0,.04.01.05.01Z"/>
      <path class="cls-1" d="M43.5,17.13h-.01s-.1-.03-.14-.04l.16.04Z"/>
      <path class="cls-1" d="M43.05,13.63s0,0,0,0c-.03,0-.02,0,0,0Z"/>
      <path class="cls-1" d="M42.98,14.81c.23.04.29.09.55.13-.1-.02-.4-.11-.55-.13Z"/>
      <path class="cls-1" d="M45.31,12.96s0,0,0,0c0,0,0,0,0,0Z"/>
      <path class="cls-1" d="M43.53,14.93s0,0,0,0h.02s-.02,0-.03,0Z"/>
      <path class="cls-1" d="M43.14,13.95s.08.02.11.02c-.03,0-.06-.01-.11-.02Z"/>
      <path class="cls-1" d="M43.55,13.82h-.04s.03,0,.04,0Z"/>
      <path class="cls-1" d="M43.48,14.14s-.06,0-.02,0c.01,0,.02,0,.03,0-.04,0-.05-.02,0,0Z"/>
      <path class="cls-1" d="M43.45,14.26s.03,0,.05,0c0,0,0,0-.01,0h-.04Z"/>
      <path class="cls-1" d="M44.77,16.89c-.07-.01-.15-.03-.23-.05.18.04.25.07.23.05Z"/>
      <path class="cls-1" d="M45.2,12.93c.07.02.1.02.11.03,0,0,0,0-.01,0-.04,0-.07-.02-.1-.02Z"/>
      <path class="cls-1" d="M45.52,14.61h-.04s.04,0,.04,0Z"/>
      <path class="cls-1" d="M44.92,16.06h.03s0,0-.03,0Z"/>
      <path class="cls-1" d="M45.5,14.69c-.09-.02-.15-.03-.18-.03.02,0,.04.01.07.02h.11Z"/>
      <path class="cls-1" d="M44.54,16.84s0,0,0,0c0,0,0,0,0,0Z"/>
      <path class="cls-1" d="M45.12,17.1s-.33-.08-.52-.13c-.09-.04.25.05.43.08-.09-.03-.4-.11-.38-.12.06.01.08.01.15.03-.27-.08,0-.04-.34-.14.03,0,.06.01.08.02-.17-.04-.34-.08-.47-.1,0,0-.21-.06.01-.02,0,0,.08.02.15.04l-.09-.03c.32.07.11.04.34.09-.1-.04-.36-.12-.27-.11.31.07.1.05.38.1h-.12c.5.09-.04,0,.49.1.1,0-.15-.06-.06-.07-.17-.05-.26-.06-.43-.1-.3-.11.79.15.38.03-.21-.05-.6-.15-.39-.12l.35.09s-.5-.13-.26-.1c.14.04.11.05.16.05.28.05-.2-.06-.19-.07l.31.07s-.26-.12-.31-.16c.09.02.19.05.29.07-.15-.07.06-.07.25-.06l-.27-.07s.12.02.17.04c.11.01-.17-.04-.28-.07-.02-.01.16.03.24.05-.22-.08-.48-.18-.18-.14l.08.02c.11,0-.55-.15-.29-.11h.05c.13,0-.11-.1.3-.04-.39-.1.18,0-.36-.13.27.04.37.07.56.07.03,0-.34-.09-.39-.11l.28.06-.29-.08.34.07-.07-.03s-.13-.02-.21-.04c-.12-.05.21,0,.35.04l-.23-.09c.11.03.15.04.22.06-.28-.09.3.06.04-.02-.06-.01-.17-.04-.23-.05.17.03.18,0,.11-.02l.19.05c.06-.02-.08-.08-.07-.11-.09,0-.43-.09-.46-.11l.3.06c-.18-.05-.12-.02-.34-.08.04,0,.34.07.44.1l-.1-.04c.09.02.14.03.25.06-.18-.05.31.04-.01-.04l.09.02s-.09-.07-.1-.1c-.26-.06-.2-.06-.41-.11.09,0,.29.02.28,0-.12-.05-.22-.05-.37-.1.24.05.22.02.39.08-.03-.04-.04-.05-.22-.13-.1-.02-.14-.02-.22-.04-.04-.02.1,0,.22.03h.02c-.34-.11.71.07.22-.07h.02s-.25-.08-.25-.08c.04,0,.17.05.32.07-.38-.13.07-.04-.19-.13.7.14-.03-.09.42-.02l-.16-.04c-.16-.04.1.01.13.01-.13-.03-.15-.03-.24-.05-.18-.11.27-.08.43-.12.05-.01-.84-.21-.45-.15l.3.08c-.35-.13.04-.1-.26-.22.07.02.16.04.16.04.22.04.02-.04-.16-.08.02,0,.16.04.26.05.13.02-.28-.09-.05-.05.04,0,.07.02.09.03-.11-.03.03-.03-.22-.08.13,0-.11-.06.05-.04-.28-.07.14,0-.26-.1.42.1.34.04.15-.01.12.03.13.02.31.06,0-.01-.08-.04-.29-.09.5.09-.39-.14.25,0-.21-.09-.36-.16-.45-.22.41.1.03.05.47.15-.16-.07-.51-.17-.41-.18.06,0,.18.05.25.07-.16-.07.05-.06-.17-.14.04,0,.08.02.11.03-.01,0,.06,0-.12-.04l.05.02c-.28-.05-.57-.15-.71-.19.54.13.14,0,.82.17-.03-.01-.12-.04-.25-.07.04,0,.11.02.25.06-.1-.04-.3-.08-.29-.1.09.02.13.03.23.06-.18-.05-.35-.1-.27-.1.05.01.13.03.12.03-.02-.03-.46-.16-.28-.15.39.1.13.02.48.1l-.1-.04-.17-.03s-.24-.08-.12-.07l.14.04-.06-.04h-.13c-.17-.07-.43-.11-.33-.11.03.01,0-.01.21.03,0,0,0,0,0,0-.11-.03-.22-.07-.13-.06.11.02.38.09.45.1-.29-.07-.07-.05-.38-.13.07.02.25.06.29.07l-.23-.06c.08.01.11.02.26.05.05-.01-.44-.09-.24-.07.02,0,.05.01.09.03.1,0-.14-.08-.02-.08.35.07.08.04.37.1-.06-.05-.4-.16-.31-.17h-.04c-.49-.12.25.03.02-.04.04.01.27.07.22.05.08,0-.11-.07-.26-.14l.12.03c.11.01.07-.02.13-.02-.12-.03-.1-.04-.29-.07.72.12-.36-.17.24-.07,0,0,.11.04.11.03l-.11-.06c-.21-.05-.13-.03-.3-.06-.12-.03-.22-.06-.22-.07.14.05.34.08.46.1-.07-.01-.14-.03-.2-.05.38.07-.43-.1-.17-.06l.11.03c-.06-.02-.2-.06-.17-.06.25.05.11.04.31.08-.01-.02-.46-.13-.21-.09.07.02.07.03.13.05.29.05.22.04.27.04h0s.14,0,.14,0h-.08c-.64-.17-.11-.07-.52-.19.39.11.23.06.51.12.08.01.17.02.24.04-.22-.06.18.02-.14-.07.09.02.01,0,.24.05-.07-.03-.16-.03-.27-.06-.3-.09.38.04-.03-.09-.17-.06-.47-.14-.61-.2.15.03.33.08.33.08.14.02.11,0,.01-.03.08.02.14.03.25.05-.02-.01-.33-.08-.19-.06.1.03.26.06.36.09-.08-.03-.24-.08-.32-.11.16.03.24.06.34.09-.07-.03-.13-.07-.38-.13h-.09s.21.03.26.05c.19.06-.09,0-.18-.02l-.06-.02c-.53-.11.08.05.04.06l-.38-.09.31.09c-.1-.02-.31-.07-.37-.09-.19-.03.13.04-.08,0-.03,0-.05-.01-.07-.02l.11.04c-.08-.02-.27-.06-.21-.05-.23-.03.28.1-.01.04h-.02c.12.05.28.06.6.16l-.7-.14.28.07s-.03,0-.15-.03c.19.06.12.03.3.07-.26-.04.11.07-.34-.03.21.05.17.02.31.07-.48-.11.08.04-.15,0-.25-.06-.11-.04-.34-.08.42.1-.1,0-.02.03.33.08.13.06.24.1-.11-.03-.19,0-.32-.02h-.06c.34.07.27.07.34.1-.2-.05-.28-.07-.37-.1h0c.11.04.16.06.2.07l-.25-.06s.29.1.12.08c.24.06.66.13.81.19-.13-.03-.35-.08-.4-.1.02,0,.1.03.05.02l-.21-.06c-.1-.01.18.05.16.05-.18-.04-.13-.02-.27-.06-.02,0,.08.01,0,0-.03,0-.14-.01-.28-.04.1.02.24.06.27.07,0,.02-.22-.04-.32-.06.12.03,0,.01.26.08,0,0-.13-.02-.2-.04.12.04.03.05.32.1h.02s0,0,.01,0h0s0,0,0,0c.26.09-.17.02-.06.08l-.09-.02c.1.04.05.05.25.11,0,0-.17-.03-.28-.05.07.03.17.05.01.04-.16-.05-.14-.03-.11-.04-.08,0-.23-.03.02.04-.23-.06-.3-.05-.23-.03l.17.03s0,.02-.01.02l-.3-.07c-.38-.05.62.21,0,.09.21.06.15.02.4.08-.04,0-.49-.08-.49-.07-.17-.02.44.12.32.12.11.02.4.09.5.13-.04,0-.46-.09-.55-.12,0,0,.03,0,.06,0-.04-.01-.08-.03-.2-.05l.11.03c-.11-.02-.11,0-.28-.04.1.04.18.05.24.05-.16-.02-.01.03-.12.03.06.01.19.04.19.04-.14,0,.2.06.25.09-.17-.03-.4-.09-.26-.04-.12-.01-.29-.06-.38-.09.21.07-.15,0-.19,0l-.09-.03c.05.02.05.02.05.03l.22.04s-.04,0-.13-.02c.14.04.36.08.56.14-.11-.02.11.05-.18-.01.1,0-.29-.06-.33-.09.03.01.03.02,0,.01-.03,0-.06-.01-.08-.02-.26-.04.32.09.31.11-.16-.04-.31-.07-.28-.05,0,0,.27.06.4.1-.13-.01.09.04.07.04h.06c.16.04.14.05.19.07-.13-.03-.09-.03-.14-.04.28.08-.3-.04-.11.02-.11-.02-.31-.07-.38-.08.21.07-.23-.03-.06.03.22.04.17.03.38.09l-.15-.07.31.09s-.13-.05-.09-.05c.18.05.12.04.31.07-.33-.06.19.07-.04.03l-.54-.12c-.25-.03.27.1.13.1h.1c.21.07.03.04.11.07-.18-.04-.25-.05-.36-.07.13.03-.02.02.34.1l-.24-.04c-.1,0,.51.15.44.15-.2-.05-.33-.07-.46-.12,0,0-.04,0,.09.04-.11-.02.24.08.07.04.08.02.27.07.25.07-.04,0-.09-.02-.09-.02.09.02.12.04.32.08-.57-.11.03.08-.47-.02.06.03.11.06.12.08-.05-.01-.09-.02-.07-.02-.17-.02.52.13.32.11-.3-.05-.16-.05-.27-.07-.6-.13.08.05-.28-.02h-.03c-.21-.05.22.07.17.08,0,0-.05-.01-.09-.02.3.08.4.13.48.17-.23-.06-.12-.04-.36-.09.03.02.38.08.44.12-.13-.02-.24-.04-.5-.09v-.02c-.34-.07,0,.02-.06.02l-.14-.03s.4.12.37.14l.11.02c.35.1-.2-.03.06.04l-.36-.08c.09.03.34.11.41.15-.27-.07-.4-.12-.56-.17,0,0,.02.04.2.08-.03-.01-.12-.04-.07-.03.28.08.42.12.41.14-.7-.16-.19,0-.74-.1.25.09-.13.04-.09.09.55.11.01.02.58.14.03.02.02.02-.01.01l-.34-.05c-.17-.03-.12-.04-.25-.07-.05.01-.24-.05-.39-.07.2.04.29.07.21.07l.26.04c.29.1-.48-.08-.19.01l-.17-.05c.1.04-.02.05.43.17-.07-.01-.22-.04-.26-.06-.08.02.46.19.18.15l-.14-.03s.26.07.12.05c-.06-.01-.14-.03-.15-.03.05.01.24.07.15.06l-.15-.04c-.19,0,.36.14.45.19-.4-.09-.54-.1-.61-.1h-.06c-.06.01.32.13.47.2-.44-.08-.2.03-.46.01.07.01.32.07.35.09-.08-.01.28.09-.1,0h0c-.37-.08-.27-.04-.29-.03l.48.11c-.71-.13.24.15-.4.03.12.04.12.05.23.08l-.26-.06c-.07,0-.11.01-.05.06l-.18-.05s.75.19.76.21l-.39-.08s-.35-.02,0,.09c-.06-.01-.17-.04-.18-.05-.01.01-.28,0,.26.11-.35-.08-.04.02.11.07l-.26-.06c.32.09.41.11.5.15-.03,0-.21-.04-.14-.03-.14-.02.24.07.1.05l-.16-.04s.06.03.25.08c.1.03-.07.01-.3-.04.14.03.33.09.26.08-.09-.02-.14-.03-.17-.04-.18-.01.29.11.03.07-.08-.02-.13-.03-.15-.03.01-.02.03-.03.05-.03-.24-.05-.28-.05-.6-.14.18.05.56.16.44.16-.02,0-.05,0-.08-.02h-.03s0,0,.04.01c-.04,0-.07,0-.07,0-.2-.04-.11,0-.12,0,.26.06.21.06.43.1-.02,0-.03,0-.04-.02,0,0-.01,0-.03,0,0,0,.02,0,.02,0,0,0-.01-.02-.01-.02.13.04.24.07.09.04.17.04.33.09.41.11-.36-.07-.56-.09-.79-.14.14.06.08.08.56.21.06.02-.14-.02-.22-.04-.05-.02-.04-.02-.11-.04.12.04.04.05.38.13-.16-.02-.31-.08-.26-.04l-.1-.03c-.55-.08.85.28.14.17.04,0,.06,0,.12.02-.32,0,.26.19-.24.14-.1,0,.11.05.28.09l-.28-.06.32.09c.23.08-.69-.11-.25.02l.19.04s.1.06-.11.01c.03,0,.19.05.1.03l-.15-.03.24.08c-.11,0-.58-.14-.61-.11.05.02.42.13.51.15,0,0,.09,0,.24.04l.07.03c.43.1.86.21,1.17.25l-.26-.08.21.04v.02c.21.04.04,0-.08-.04.11.02.19.04.23.04l-.4-.11c.17.04.33.08.43.09-.19-.05-.38-.08-.5-.12.2.04.35.07.19.03.11.02.18.04.23.06-.13-.04-.05-.04-.28-.09.24.05-.06-.05.35.05-.1-.03-.31-.09-.33-.1.48.13.04-.03.55.1-.43-.11-.18-.09-.42-.16.03,0,.1.03.08.02.04,0,.17.02.26.04-.36-.08-.44-.12-.66-.18.35.07.42.11.76.18-.29-.07-.29-.09-.53-.14.22.04.11.01.41.08-.45-.1-.07-.03-.35-.1.23.04.42.09.29.04.14.02.3.08.3.08ZM44.44,16.52s0,0,0,0c0,0,0,0,.01.01,0,0,0,0-.02-.01ZM44.44,16.48s-.01,0-.01.01c-.09-.02-.18-.04-.18-.04.06.02.11.02.19.03ZM42.63,16.15s.02,0,.07,0c0,0,.01,0,.03.02,0,0,.02,0,.03,0-.05-.01-.1-.02-.13-.03Z"/>
      <path class="cls-1" d="M42.97,16.23s.02,0,.02,0c.02,0,.04,0,.06.01-.03,0-.05-.01-.08-.02,0,0,0,0,0,0Z"/>
      <path class="cls-1" d="M44.06,13.24h0s.02,0,.04,0c-.01,0-.02,0-.03,0Z"/>
      <polygon class="cls-1" points="45.04 16.13 44.98 16.11 45.03 16.13 45.04 16.13"/>
      <path class="cls-1" d="M44.99,13.26s.05,0,.07.01c-.02,0-.04,0-.07-.01Z"/>
      <path class="cls-1" d="M45.06,13.19h.09c-.05,0-.08,0-.09,0Z"/>
      <path class="cls-1" d="M45.21,13.16s-.08-.02-.11-.03c0,0,0,0,0,0l.11.03Z"/>
      <path class="cls-1" d="M45.28,14.21s0,0,.01,0c.05.02.03,0-.01,0Z"/>
      <path class="cls-1" d="M44.75,13.78s.09.03.12.04c.02,0,.03,0-.12-.04Z"/>
      <polygon class="cls-1" points="45.52 14.61 45.52 14.61 45.52 14.61 45.52 14.61"/>
      <path class="cls-1" d="M44.86,13.83c.05,0,.04,0,0-.01-.02,0-.05,0,0,.01Z"/>
      <path class="cls-1" d="M45.39,12.91h.01s-.03,0-.04-.01h.03Z"/>
      <path class="cls-1" d="M45.36,12.9h-.03s0,0,.03,0Z"/>
      <path class="cls-1" d="M45.26,12.87l.06.02s.01,0-.06-.02Z"/>
      <path class="cls-1" d="M45.25,12.97l.09.02s-.05-.01-.09-.02Z"/>
      <path class="cls-1" d="M45.27,13s.2.03.15,0l-.07-.02c.14.04-.23-.03-.07,0Z"/>
      <path class="cls-1" d="M44.09,12.84h.08c-.1-.02-.24-.05-.26-.06-.3-.04.22.05.18.06Z"/>
      <path class="cls-1" d="M43.93,12.87s-.14-.03-.2-.05c.09.03.11.04.2.05Z"/>
      <path class="cls-1" d="M43.82,13.34l-.23-.05s.09.02.23.05Z"/>
      <polygon class="cls-1" points="45.01 13.71 45.16 13.73 44.95 13.68 45.01 13.71"/>
      <polygon class="cls-1" points="43.33 13.38 43.29 13.37 43.38 13.4 43.33 13.38"/>
      <path class="cls-1" d="M43.23,14.19l.29.06c-.05-.02-.38-.09-.29-.06Z"/>
      <path class="cls-1" d="M43.45,14.59c-.15-.03-.24-.04-.1,0,.02,0,.14.02.1,0Z"/>
      <polygon class="cls-1" points="42.74 15.51 42.65 15.48 42.72 15.51 42.74 15.51"/>
    </g>
  </g>
  <g>
    <path class="cls-1" d="M34.99,13.63c.16-1.39.32-2.78.49-4.17"/>
    <g>
      <path class="cls-1" d="M36.1,9.53c-.08-.01-.26-.03-.23-.02l.31.04-.08-.02Z"/>
      <path class="cls-1" d="M35.52,9.5c.15.02.41.06.7.09-.3-.04-.17-.03-.53-.08-.04-.01.1,0,.21.02-.08-.01.07,0-.13-.03-.24-.02-.25-.01-.05.02-.07,0-.15-.02-.21-.02Z"/>
      <path class="cls-1" d="M34.97,10.04h.04s-.03,0-.04,0Z"/>
      <path class="cls-1" d="M34.76,10.39s-.04,0-.07-.01c.02,0,.04,0,.07.01Z"/>
      <path class="cls-1" d="M34.41,10.41s.01,0,.02,0c-.03,0-.04,0-.02,0Z"/>
      <path class="cls-1" d="M34.97,10.04h-.1c.1.01.08,0,.1,0Z"/>
      <path class="cls-1" d="M36.26,9.67s-.04,0-.08-.01c.01,0,.02,0,.03,0,.02,0,.03,0,.05,0Z"/>
      <path class="cls-1" d="M34.74,9.85h0s-.08-.01-.13-.02l.13.02Z"/>
      <path class="cls-1" d="M34.7,9.72s.25.03.37.05c-.11-.01-.16-.02-.18-.03-.05,0-.11-.01-.19-.02Z"/>
      <path class="cls-1" d="M35.19,9.58h-.04s.02,0,.04,0Z"/>
      <path class="cls-1" d="M34.67,9.93s-.07,0-.09,0c.03,0,.06,0,.09,0Z"/>
      <path class="cls-1" d="M36.24,13.63s-.03,0-.05,0c.03,0,.05,0,.05,0Z"/>
      <path class="cls-1" d="M34.92,13.62h-.01s-.1-.02-.15-.02l.16.02Z"/>
      <path class="cls-1" d="M34.06,10.48s0,0,0,0c-.03,0-.02,0,0,0Z"/>
      <path class="cls-1" d="M34.13,11.56c.24.02.3.05.56.07-.1-.01-.41-.06-.56-.07Z"/>
      <path class="cls-1" d="M36.22,9.67s0,0,0,0c0,0,0,0,0,0Z"/>
      <path class="cls-1" d="M34.69,11.62h0s.02,0,.02,0c-.01,0-.02,0-.03,0Z"/>
      <path class="cls-1" d="M34.18,10.77s.08,0,.12.01c-.03,0-.06,0-.12-.01Z"/>
      <path class="cls-1" d="M34.58,10.61h-.04s.03,0,.04,0Z"/>
      <path class="cls-1" d="M34.54,10.91s-.06,0-.02,0c.01,0,.02,0,.03,0-.04,0-.05,0-.01,0Z"/>
      <path class="cls-1" d="M34.53,11.02s.04,0,.05,0c0,0,0,0-.01,0h-.04Z"/>
      <path class="cls-1" d="M36.15,13.29c-.07,0-.16-.01-.24-.02.19.02.25.04.24.02Z"/>
      <path class="cls-1" d="M36.11,9.66c.07,0,.1.01.11.02,0,0,0,0-.01,0-.04,0-.08,0-.1-.01Z"/>
      <path class="cls-1" d="M36.62,11.16h-.04s.04,0,.04,0Z"/>
      <path class="cls-1" d="M36.21,12.52h.03s0,0-.03,0Z"/>
      <path class="cls-1" d="M36.61,11.22c-.09,0-.15-.01-.18-.01.02,0,.04,0,.07,0h.12Z"/>
      <path class="cls-1" d="M35.91,13.27s0,0,0,0c0,0,0,0,0,0Z"/>
      <path class="cls-1" d="M36.53,13.45s-.34-.05-.54-.07c-.1-.03.26.02.43.03-.09-.02-.41-.07-.39-.08.06,0,.08,0,.15.02-.27-.04,0-.04-.35-.09.03,0,.06,0,.09,0-.17-.02-.35-.04-.47-.05,0,0-.22-.04,0-.02,0,0,.08.01.15.03l-.1-.02c.33.03.11.02.35.05-.1-.03-.37-.08-.28-.08.32.03.1.04.39.06h-.12c.5.05-.04,0,.5.06.09-.01-.16-.04-.06-.06-.18-.03-.26-.03-.44-.05-.31-.07.8.07.38,0-.21-.03-.61-.08-.4-.07l.36.05s-.52-.07-.27-.07c.14.02.12.03.16.03.29.02-.2-.03-.2-.05l.32.03s-.27-.08-.33-.12c.09.01.19.03.29.03-.16-.05.05-.07.24-.08l-.27-.04s.12,0,.18.02c.11,0-.17-.02-.28-.04-.02,0,.16,0,.24.02-.23-.05-.49-.12-.2-.11h.08c.11,0-.56-.07-.3-.06h.05c.12-.02-.12-.09.3-.07-.4-.05.18-.02-.37-.08.28,0,.37.03.56.02.03,0-.34-.05-.4-.07l.29.03-.3-.05.35.03-.07-.02s-.13,0-.21-.02c-.13-.03.21-.01.35,0l-.24-.06c.12.01.16.03.23.04-.29-.05.3.03.04-.02-.07,0-.17-.02-.23-.03.18.01.18,0,.11-.03l.2.03c.05-.02-.09-.07-.08-.1-.09,0-.44-.04-.47-.06l.31.03c-.19-.03-.12,0-.35-.04.04,0,.35.03.45.05l-.1-.03c.09,0,.14.02.26.03-.19-.03.31.01-.02-.03h.09s-.1-.05-.11-.07c-.26-.03-.2-.03-.42-.07.09,0,.3,0,.28-.03-.13-.03-.22-.03-.38-.06.24.03.22,0,.39.03-.04-.03-.04-.04-.23-.09-.1,0-.14,0-.22-.02-.04-.01.1,0,.22.01h.02c-.36-.07.71,0,.21-.09h.02s-.26-.06-.26-.06c.04,0,.18.03.33.04-.4-.08.06-.05-.2-.1.71.06-.04-.08.41-.06l-.17-.02c-.16-.03.1,0,.14,0-.13-.01-.15,0-.24-.02-.19-.09.26-.1.42-.14.05-.02-.86-.11-.46-.1l.31.04c-.37-.09.02-.09-.29-.18.07.01.16.02.16.03.23.02.02-.03-.17-.06.02,0,.17.02.26.02.13,0-.28-.06-.06-.04.04,0,.07.01.09.02-.11-.02.03-.03-.23-.05.13,0-.11-.05.04-.04-.29-.04.14-.01-.27-.06.42.05.35,0,.15-.02.13.02.13,0,.31.03,0-.01-.08-.03-.3-.06.51.04-.4-.09.25-.03-.22-.06-.37-.12-.47-.16.42.05.04.04.48.09-.17-.05-.53-.11-.43-.13.06,0,.18.03.25.04-.17-.05.05-.06-.18-.11.04,0,.08.01.11.02-.01,0,.06,0-.13-.03h.05c-.28-.01-.58-.08-.73-.1.55.07.14-.01.84.08-.04,0-.13-.02-.26-.04.04,0,.11,0,.26.03-.1-.03-.31-.05-.3-.07.09.01.13.02.24.03-.18-.03-.36-.06-.28-.07.06,0,.13.01.13.02-.03-.03-.48-.1-.3-.11.4.06.13,0,.48.05l-.1-.03h-.17s-.25-.07-.13-.07l.14.03-.06-.03h-.13c-.18-.04-.44-.05-.34-.06.04,0,0-.01.21,0,0,0,0,0,0,0-.11-.02-.23-.04-.14-.04.11.01.39.05.46.05-.29-.04-.08-.04-.39-.09.07.01.26.03.29.04l-.24-.03c.08,0,.11,0,.26.02.05-.01-.44-.05-.25-.05.02,0,.05,0,.09.02.1-.01-.15-.06-.03-.07.35.04.08.03.38.06-.06-.04-.41-.11-.33-.13h-.04c-.5-.06.25,0,.02-.03.04,0,.28.04.22.03.08-.01-.12-.05-.27-.1l.13.02c.12,0,.07-.02.13-.03-.13-.02-.11-.02-.29-.04.73.05-.38-.12.23-.08,0,0,.11.02.11.02l-.11-.04c-.22-.02-.13-.01-.3-.03-.13-.02-.23-.04-.23-.05.14.03.35.04.47.05-.07,0-.14-.02-.21-.02.39.03-.44-.05-.17-.04h.11c-.06,0-.21-.02-.17-.03.25.03.12.02.32.05-.01-.01-.47-.08-.22-.06.07.01.07.02.14.03.3.02.22.01.27,0h0s.14,0,.14,0h-.08c-.65-.09-.12-.05-.54-.12.4.07.23.03.52.06.08,0,.17,0,.25.02-.23-.04.18,0-.15-.05.09.01.01,0,.24.02-.07-.02-.16-.02-.27-.03-.31-.06.38,0-.04-.08-.17-.04-.48-.08-.63-.12.15,0,.33.04.33.04.14,0,.11,0,0-.03.08.01.15.02.25.03-.02-.01-.33-.04-.2-.04.1.01.26.04.37.05-.08-.02-.25-.05-.33-.07.16.02.24.03.34.05-.07-.02-.14-.05-.39-.08h-.09s.22.02.26.03c.2.03-.09,0-.18,0h-.06c-.54-.07.08.03.05.04l-.39-.05.32.05c-.1,0-.32-.03-.38-.05-.19-.01.14.03-.08.01-.03,0-.05,0-.07,0l.11.02c-.08-.01-.28-.03-.22-.03-.23,0,.29.07,0,.04h-.02c.13.04.29.03.62.09l-.71-.07.29.04s-.03,0-.15,0c.19.03.12.01.31.04-.26-.02.12.05-.34,0,.22.03.17,0,.32.04-.49-.05.08.03-.14.01-.25-.03-.12-.03-.34-.04.43.06-.1.01-.02.03.34.04.14.04.25.07-.11-.01-.19.01-.32.01h-.06c.34.04.28.05.35.07-.21-.02-.29-.04-.38-.05h0c.11.03.17.04.21.05l-.26-.03s.3.07.13.07c.24.03.67.06.83.1-.13-.01-.35-.04-.4-.05.02,0,.11.02.05.02l-.22-.03c-.1,0,.18.03.16.03-.18-.02-.13-.01-.28-.03-.02,0,.08,0,0,0-.03,0-.15,0-.29-.01.11.01.25.03.27.04.01.02-.22-.02-.32-.02.13.02,0,.01.27.05,0,0-.13,0-.21-.02.12.02.03.04.33.07h.02s0,0,.01,0h0,0c.27.06-.16.04-.05.07h-.09c.1.02.06.03.26.06,0,0-.17,0-.28-.02.07.02.17.03.02.03-.16-.03-.14-.01-.12-.03-.08,0-.23,0,.02.04-.24-.03-.3-.02-.23,0h.17s.01.03,0,.03l-.31-.04c-.38-.01.64.13,0,.08.22.03.16,0,.41.04-.04,0-.49-.03-.49-.02-.17,0,.45.07.33.08.11.01.41.04.51.07-.04,0-.47-.04-.56-.06,0,0,.03,0,.06,0-.04,0-.09-.02-.21-.03h.11c-.11,0-.1.03-.29,0,.1.02.18.03.24.02-.16,0,0,.03-.12.03.06,0,.19.02.19.02-.14.01.21.04.26.06-.17,0-.4-.05-.26-.02-.12,0-.3-.03-.39-.05.21.04-.14.02-.19.02l-.09-.02c.05.01.05.02.05.02l.22.02s-.04,0-.13,0c.15.02.37.04.57.07-.11,0,.12.04-.18,0,.1-.01-.3-.03-.34-.06.03,0,.03.01,0,.01-.03,0-.06,0-.08-.01-.27,0,.33.05.32.07-.17-.02-.32-.03-.28-.02,0,0,.28.03.4.05-.13,0,.09.03.08.03h.06c.17.02.14.03.19.04-.13-.01-.09-.02-.15-.02.29.05-.31-.01-.11.03-.11,0-.31-.04-.39-.04.21.04-.23,0-.05.03.22.02.17.01.39.05l-.15-.05.32.06s-.14-.04-.1-.04c.18.03.13.02.31.04-.34-.03.19.05-.04.03l-.55-.06c-.25,0,.28.07.14.08h.1c.22.03.03.02.12.04-.18-.02-.25-.02-.37-.03.14.02-.01.02.35.06l-.24-.02c-.1.01.52.09.46.1-.2-.03-.33-.04-.47-.07,0,0-.04,0,.09.02-.12,0,.25.05.07.03.08.01.27.04.26.04-.04,0-.09-.01-.09-.01.09.01.12.03.33.04-.58-.05.03.07-.46.03.06.02.12.05.13.06-.06,0-.09-.01-.07-.01-.17,0,.53.07.33.07-.3-.02-.16-.03-.27-.04-.61-.07.08.04-.28.01h-.04c-.21-.02.23.05.18.06,0,0-.05,0-.09-.01.31.05.41.09.49.11-.24-.03-.12-.02-.37-.05.03.01.39.04.45.07-.13,0-.25-.01-.5-.04v-.02c-.35-.03,0,.02-.06.02l-.15-.02s.41.07.38.09h.11c.36.07-.21,0,.06.04l-.37-.04c.09.02.35.07.42.1-.27-.04-.41-.08-.57-.11,0,0,.02.03.21.06-.04,0-.13-.02-.07-.02.29.04.43.08.42.09-.72-.09-.19.03-.74-.03.26.06-.12.05-.08.09.56.05.01.01.59.08.04.01.03.02-.01.01h-.35c-.17-.03-.13-.04-.25-.05-.05.01-.24-.02-.4-.03.21.02.29.04.21.04l.27.02c.3.06-.48-.03-.18.03l-.18-.03c.1.03,0,.05.45.12-.07,0-.22-.02-.26-.03-.07.02.48.13.2.12l-.14-.02s.26.04.12.03c-.06,0-.14-.02-.15-.02.05,0,.24.04.16.04l-.16-.03c-.19.01.38.09.47.13-.41-.05-.55-.04-.62-.03h-.06c-.06.02.33.09.49.15-.45-.03-.2.05-.45.05.08,0,.32.04.36.05-.08,0,.28.06-.09.01h0c-.37-.04-.28-.01-.29,0l.49.06c-.72-.05.25.12-.39.06.12.02.12.03.24.05l-.27-.03c-.07.01-.1.02-.04.06l-.19-.03s.76.11.78.12l-.4-.04s-.35.01,0,.08c-.06,0-.17-.02-.19-.03-.01.01-.27.02.27.08-.35-.04-.04.02.12.06l-.26-.03c.33.05.42.06.51.09-.03,0-.21-.02-.14-.02-.14,0,.25.04.1.04l-.17-.03s.07.02.26.05c.1.02-.07.02-.31,0,.14.02.34.05.27.05-.09,0-.14-.02-.17-.02-.18,0,.3.07.04.06-.09,0-.13-.01-.16-.02,0-.02.02-.03.04-.03-.24-.03-.28-.02-.62-.07.18.03.57.1.46.1-.02,0-.05,0-.08,0h-.03s0,0,.04,0c-.04,0-.07,0-.07,0-.2-.02-.11,0-.12.01.26.03.22.03.44.05-.02,0-.03,0-.04-.01,0,0-.01,0-.03,0,0,0,.02,0,.02,0,0,0-.01-.01-.02-.02.13.02.24.04.1.03.17.02.34.05.42.06-.37-.03-.57-.04-.8-.06.15.04.09.07.58.14.06.01-.14,0-.22-.02-.05,0-.04-.01-.11-.02.13.03.04.04.39.09-.16,0-.32-.05-.26-.02l-.11-.02c-.56-.02.87.18.16.14.04,0,.06,0,.12,0-.32.02.28.15-.22.15-.1,0,.12.03.29.06l-.28-.03.32.05c.24.05-.7-.04-.25.04l.19.02s.11.05-.11.02c.03,0,.2.03.1.02l-.15-.02.25.06c-.11,0-.59-.07-.62-.05.06.02.43.08.53.09,0,0,.09,0,.24.02l.08.02c.44.05.88.11,1.19.12l-.26-.05.21.02v.02c.21.02.04-.01-.08-.03.11.01.19.02.23.02l-.41-.07c.17.02.34.05.43.05-.19-.03-.38-.04-.51-.06.2.01.36.04.19,0,.11.01.18.02.23.03-.13-.02-.05-.03-.29-.06.25.02-.06-.04.35.01-.1-.01-.32-.05-.34-.06.49.07.03-.03.56.04-.44-.06-.19-.06-.44-.11.04,0,.11.02.08.01.04,0,.17,0,.26,0-.37-.04-.45-.07-.67-.11.36.03.43.06.77.09-.3-.03-.29-.06-.54-.08.22.02.11,0,.41.03-.46-.06-.08-.02-.36-.06.23.01.43.05.29.01.14,0,.3.04.3.04ZM35.78,12.98s0,0,0,0c0,0,.01,0,.01,0,0,0,0,0-.02-.01ZM35.78,12.95s-.01,0-.01.01c-.09,0-.18-.02-.18-.02.06,0,.11,0,.19.01ZM33.94,12.81s.02,0,.07,0c0,0,.01,0,.03.01,0,0,.02,0,.03,0-.05,0-.1-.01-.13-.02Z"/>
      <path class="cls-1" d="M34.29,12.86s.02,0,.02,0c.02,0,.04,0,.06,0-.03,0-.06,0-.08-.01,0,0,0,0,0,0Z"/>
      <path class="cls-1" d="M35.01,10.04h0s.02,0,.04,0c-.01,0-.02,0-.03,0Z"/>
      <polygon class="cls-1" points="36.33 12.57 36.26 12.57 36.32 12.58 36.33 12.57"/>
      <path class="cls-1" d="M35.94,9.97s.05,0,.07,0c-.02,0-.04,0-.07,0Z"/>
      <path class="cls-1" d="M36,9.9h.09c-.05,0-.08,0-.09,0Z"/>
      <path class="cls-1" d="M36.14,9.86s-.08-.01-.11-.01t0,0h.11Z"/>
      <path class="cls-1" d="M36.34,10.81s0,0,.01,0c.05.01.03,0-.01,0Z"/>
      <path class="cls-1" d="M35.76,10.47s.09.02.12.02c.02,0,.03,0-.12-.02Z"/>
      <polygon class="cls-1" points="36.62 11.16 36.62 11.16 36.62 11.16 36.62 11.16"/>
      <path class="cls-1" d="M35.88,10.51c.05,0,.04,0,0-.01-.02,0-.05,0,0,.01Z"/>
      <path class="cls-1" d="M36.29,9.62h.01s-.03,0-.04,0h.03Z"/>
      <path class="cls-1" d="M36.26,9.62h-.03s0,0,.03,0Z"/>
      <path class="cls-1" d="M36.16,9.6h.07s0,.01-.07,0Z"/>
      <path class="cls-1" d="M36.16,9.69h.1s-.05,0-.1,0Z"/>
      <path class="cls-1" d="M36.18,9.71s.21,0,.15,0h-.08c.14.01-.23-.02-.07,0Z"/>
      <path class="cls-1" d="M34.99,9.67h.08c-.1-.02-.24-.03-.26-.04-.31-.01.23.02.18.04Z"/>
      <path class="cls-1" d="M34.84,9.72s-.15-.02-.21-.02c.09.02.12.02.21.02Z"/>
      <path class="cls-1" d="M34.79,10.15l-.24-.03s.09.01.24.03Z"/>
      <polygon class="cls-1" points="36.01 10.38 36.16 10.39 35.95 10.36 36.01 10.38"/>
      <polygon class="cls-1" points="34.3 10.23 34.27 10.22 34.35 10.25 34.3 10.23"/>
      <path class="cls-1" d="M34.3,10.97l.3.03c-.05-.01-.38-.05-.3-.03Z"/>
      <path class="cls-1" d="M34.57,11.32c-.15-.01-.24-.02-.1,0,.02,0,.14,0,.1,0Z"/>
      <polygon class="cls-1" points="33.97 12.22 33.88 12.2 33.96 12.22 33.97 12.22"/>
    </g>
  </g>
  <g>
    <path class="cls-1" d="M27.34,12.97c-.55-1.19-1.97-4.24-2.52-5.43"/>
    <g>
      <path class="cls-1" d="M25.39,7.28c-.07.03-.24.11-.2.1l.29-.13-.08.02Z"/>
      <path class="cls-1" d="M24.89,7.58c.14-.05.39-.16.64-.28-.28.12-.16.06-.49.2-.04,0,.08-.06.19-.1-.07.03.06-.04-.12.04-.21.11-.22.13-.03.06-.06.03-.14.06-.19.09Z"/>
      <path class="cls-1" d="M24.8,8.55l.03-.02s-.03.02-.03.02Z"/>
      <path class="cls-1" d="M24.87,9.1s-.04.01-.06.02c.02,0,.04-.01.06-.02Z"/>
      <path class="cls-1" d="M24.59,9.33s.01,0,.02-.01c-.03.01-.04.02-.02.01Z"/>
      <path class="cls-1" d="M24.8,8.55l-.08.05c.09-.04.07-.04.08-.05Z"/>
      <path class="cls-1" d="M25.62,7.37s-.04.01-.08.03c.01,0,.02,0,.03,0,.02,0,.03-.01.04-.02Z"/>
      <path class="cls-1" d="M24.47,8.45h0s-.07.03-.12.05l.12-.05Z"/>
      <path class="cls-1" d="M24.36,8.31s.23-.1.34-.15c-.1.04-.15.06-.17.07-.05.02-.1.05-.17.08Z"/>
      <path class="cls-1" d="M24.66,7.85h-.04s.02,0,.04,0Z"/>
      <path class="cls-1" d="M24.48,8.59s-.07.03-.09.04c.03-.01.06-.03.09-.04Z"/>
      <path class="cls-1" d="M28.38,12.26s-.03.01-.04.02c.02-.01.04-.02.04-.02Z"/>
      <path class="cls-1" d="M27.27,13h-.01s-.09.04-.14.07l.15-.07Z"/>
      <path class="cls-1" d="M24.35,9.62s0,0,0,0c-.03,0-.02,0,0,0Z"/>
      <path class="cls-1" d="M25.17,10.9c.21-.12.29-.1.52-.24-.09.05-.38.15-.52.24Z"/>
      <path class="cls-1" d="M25.59,7.38s0,0,0,0c0,0,0,0,0,0Z"/>
      <path class="cls-1" d="M25.68,10.67h0s.02-.01.02-.01c0,0-.02,0-.02.01Z"/>
      <path class="cls-1" d="M24.66,9.9s.07-.04.1-.05c-.02.01-.05.03-.1.05Z"/>
      <path class="cls-1" d="M24.88,9.48l-.03.02s.03-.02.03-.02Z"/>
      <path class="cls-1" d="M25.06,9.87s-.05.03-.02.02c.01,0,.02-.01.03-.02-.03.01-.05.02-.01,0Z"/>
      <path class="cls-1" d="M25.13,10.01s.03-.02.05-.03c0,0-.01,0-.01,0l-.03.02Z"/>
      <path class="cls-1" d="M28.07,11.89c-.07.03-.14.07-.21.11.17-.08.24-.09.21-.11Z"/>
      <path class="cls-1" d="M25.48,7.43c.06-.03.09-.04.11-.04,0,0,0,0-.02,0-.04.02-.07.03-.09.04Z"/>
      <path class="cls-1" d="M26.96,9l-.03.04s.03-.03.03-.04Z"/>
      <path class="cls-1" d="M27.57,10.92h.03s0-.01-.03,0Z"/>
      <path class="cls-1" d="M27,9.08c-.08.04-.13.07-.16.09.02,0,.04-.01.06-.03l.1-.06Z"/>
      <path class="cls-1" d="M27.85,12s0,0,0,0c0,0,0,0,0,0Z"/>
      <path class="cls-1" d="M28.49,11.88s-.31.13-.5.21c-.1.02.23-.12.39-.2-.09.02-.39.15-.38.13.05-.03.07-.04.14-.06-.26.1-.04-.04-.36.08.03-.01.05-.03.08-.04-.16.08-.32.15-.43.2,0,0-.21.08,0-.02,0,0,.08-.03.15-.06l-.09.03c.29-.15.11-.03.33-.14-.11.03-.36.12-.28.06.29-.14.11-.01.36-.15l-.1.07c.45-.23-.03.03.46-.21.07-.07-.16.04-.09-.03-.16.07-.24.11-.4.18-.31.09.72-.37.31-.22-.2.08-.57.25-.38.14l.33-.14s-.48.2-.27.07c.13-.05.12-.03.16-.05.25-.14-.19.07-.2.06l.29-.14c-.06,0-.29.05-.35.04.09-.04.18-.07.27-.12-.17.02,0-.11.15-.23l-.26.1s.11-.06.16-.08c.09-.06-.16.07-.26.11-.02,0,.14-.08.22-.11-.23.07-.5.13-.24-.02l.08-.03c.09-.07-.53.21-.3.08l.05-.02c.09-.1-.17-.05.19-.27-.37.16.14-.13-.37.11.24-.15.33-.18.48-.3.02-.02-.32.13-.38.14l.26-.12-.29.11.31-.16-.07.02s-.11.07-.19.1c-.13.04.16-.13.3-.2l-.24.06c.11-.05.15-.06.22-.08-.28.1.28-.13.02-.04-.06.03-.16.07-.21.1.15-.09.14-.11.07-.1l.18-.08c.03-.06-.12-.03-.14-.07-.08.05-.39.2-.43.2l.28-.13c-.18.07-.1.06-.32.14.03-.03.31-.16.41-.19l-.1.03c.08-.04.13-.06.24-.1-.18.07.27-.16-.04-.03l.08-.04s-.12-.01-.15-.04c-.24.11-.19.07-.39.15.07-.06.24-.17.21-.19-.13.04-.21.09-.35.15.22-.1.18-.12.35-.18-.05-.02-.06-.02-.26.02-.09.05-.12.07-.2.1-.04,0,.08-.06.19-.11h.02c-.35.1.59-.42.11-.24h.02s-.26.06-.26.06c.03-.04.17-.07.3-.14-.39.13.02-.09-.24-.01.63-.33-.09-.08.31-.3l-.15.07c-.15.06.08-.05.11-.08-.12.06-.13.07-.22.11-.22,0,.15-.27.24-.42.03-.05-.8.35-.45.14l.29-.12c-.37.1-.05-.13-.36-.06.07-.03.15-.07.15-.06.2-.11-.01-.05-.18.03.01-.02.15-.07.23-.12.12-.07-.28.09-.08-.01.03-.02.07-.03.09-.03-.1.04,0-.05-.23.07.1-.07-.13,0,0-.08-.27.11.11-.1-.27.07.39-.18.29-.18.11-.11.12-.05.12-.07.28-.14-.01-.01-.09,0-.29.1.45-.24-.4.11.19-.18-.23.05-.39.07-.5.07.39-.18.06.03.46-.16-.18.03-.52.16-.45.08.05-.03.17-.07.24-.1-.18.03,0-.1-.23-.03.04-.02.08-.03.11-.04-.02,0,.05-.04-.13.04l.05-.02c-.25.13-.54.22-.68.28.51-.22.11-.09.75-.37-.04.01-.12.04-.24.1.03-.02.1-.06.24-.11-.11.02-.29.11-.3.09.08-.04.12-.05.22-.09-.17.07-.34.13-.28.08.05-.02.12-.06.12-.05-.04-.02-.47.15-.32.04.37-.16.12-.07.43-.22l-.1.02-.15.08s-.24.07-.14,0l.14-.05h-.08s-.11.07-.11.07c-.17.06-.4.19-.33.12.04-.01,0-.02.18-.12,0,0,0,0,0,0-.11.04-.22.08-.14.03.1-.05.35-.16.42-.19-.27.12-.09,0-.38.11.07-.03.24-.11.27-.12l-.22.09c.07-.04.1-.06.23-.12.03-.04-.4.2-.24.09.02,0,.05-.02.09-.03.08-.07-.16,0-.07-.07.32-.16.09-.01.36-.15-.08-.01-.42.1-.36.03l-.03.02c-.46.21.21-.13-.01-.05.04-.01.25-.11.2-.09.06-.06-.14,0-.3.03l.12-.05c.1-.06.04-.07.09-.11-.12.05-.1.03-.27.12.64-.36-.4.07.13-.23,0,0,.11-.03.11-.04h-.12c-.2.11-.12.07-.27.15-.12.05-.22.08-.22.07.14-.04.32-.15.42-.21-.06.03-.13.06-.19.09.34-.18-.4.18-.17.04l.1-.05c-.06.01-.2.07-.17.04.23-.11.11-.04.3-.13-.02,0-.45.17-.23.05.07-.02.07-.01.14-.04.26-.14.19-.11.23-.14h0s.11-.08.11-.08l-.07.04c-.61.26-.13.01-.53.17.38-.15.22-.1.48-.21.07-.04.14-.09.22-.12-.21.08.16-.1-.16.03.08-.04,0-.02.21-.11-.07.01-.14.07-.25.12-.3.11.32-.22-.09-.07-.17.04-.46.17-.61.21.13-.07.31-.13.31-.13.12-.07.09-.07-.01-.04.07-.03.13-.06.23-.11-.03,0-.31.13-.19.06.09-.04.24-.11.34-.14-.08.02-.25.08-.33.1.14-.07.22-.09.32-.13-.07.01-.15.02-.38.12l-.08.05s.2-.09.24-.11c.19-.07-.07.06-.15.1h-.06c-.48.25.1.02.08.05l-.36.16.3-.12c-.09.05-.29.14-.35.16-.17.1.13-.05-.06.06-.03.02-.05.02-.06.03l.11-.04c-.08.03-.25.12-.2.09-.19.12.29-.08.02.05h-.02c.14-.01.26-.11.58-.23l-.64.32.26-.12s-.02.02-.13.07c.19-.07.11-.06.29-.13-.23.13.13,0-.28.19.2-.09.15-.09.29-.13-.45.21.09-.01-.11.1-.23.1-.12.03-.32.14.4-.17-.07.07.01.05.31-.14.14-.03.26-.06-.1.05-.15.12-.25.19l-.05.02c.32-.14.27-.09.34-.11-.19.09-.26.12-.35.15h0c.1-.03.16-.05.2-.06l-.24.11s.29-.09.15,0c.22-.1.6-.3.76-.34-.12.06-.32.15-.37.17.02,0,.1-.04.05,0l-.2.08c-.08.05.17-.07.16-.05-.17.08-.12.06-.25.12-.02,0,.07-.04,0-.01-.03.02-.12.08-.25.15.1-.05.23-.11.25-.11.02.01-.2.1-.28.15.12-.05,0,.02.26-.1,0,0-.12.06-.18.1.12-.04.05.03.32-.1h.02s0-.01.01-.01h0s0,0,0,0c.27-.08-.11.14.01.12l-.08.04c.11-.02.08.02.27-.05,0,0-.15.09-.25.13.07-.01.17-.06.04.03-.15.05-.13.07-.12.03-.06.05-.2.12.04.03-.22.09-.27.14-.2.12l.15-.09s.02.01,0,.03l-.29.13c-.33.2.62-.2.06.1.2-.08.13-.09.37-.19-.03.04-.43.25-.43.25-.15.1.43-.17.33-.09.1-.05.37-.18.47-.2-.03.04-.42.22-.5.25-.01,0,.02-.02.06-.03-.04.01-.09.02-.19.08l.1-.04c-.1.06-.08.08-.25.15.1-.03.17-.07.22-.11-.14.09.01.04-.07.11.05-.03.17-.09.17-.08-.11.09.2-.07.26-.07-.15.09-.37.17-.23.13-.1.06-.27.13-.35.16.21-.07-.11.1-.14.13l-.09.03c.05-.02.05,0,.06,0l.2-.1s-.03.03-.11.07c.14-.05.34-.16.52-.23-.1.06.12-.02-.14.1.08-.07-.27.13-.32.12.03-.01.04,0,0,.02-.03.02-.06.02-.07.03-.23.14.31-.13.32-.1-.15.07-.28.14-.25.13,0-.01.25-.12.37-.17-.11.07.1-.02.09,0l.05-.04c.15-.07.14-.05.19-.06-.12.06-.09.03-.14.05.27-.11-.26.16-.07.1-.1.06-.28.13-.35.17.21-.07-.2.12-.02.07.2-.1.15-.08.36-.16l-.16.03.31-.11s-.14.04-.11.01c.17-.07.12-.04.29-.13-.3.16.19-.05,0,.06l-.51.23c-.21.13.28-.07.17.02l.08-.05c.2-.09.04,0,.13-.02-.17.08-.23.11-.33.17.12-.06,0,.03.34-.12l-.21.12c-.08.07.5-.19.45-.14-.19.08-.3.15-.44.19,0,.01-.02.03.09-.02-.1.05.24-.08.08,0,.08-.03.25-.11.24-.09-.03.02-.08.04-.08.04.08-.04.12-.04.3-.13-.51.27.08.06-.37.3.07,0,.13,0,.15,0-.05.02-.08.04-.07.03-.15.1.49-.21.33-.1-.27.14-.15.05-.25.11-.55.26.09,0-.22.17h-.03c-.18.11.23-.05.2,0,0,0-.05.02-.08.04.29-.11.4-.13.49-.14-.22.09-.12.04-.34.15.04,0,.35-.17.42-.18-.12.06-.21.13-.45.24h-.02c-.3.14.02,0-.03.04l-.13.06c.06.01.39-.15.38-.1l.1-.05c.34-.14-.18.1.08,0l-.34.16c.09-.03.35-.11.42-.12-.26.1-.4.14-.55.19,0,.01.04.03.21-.04-.03.01-.12.04-.07.01.27-.11.41-.15.42-.12-.66.3-.14.14-.64.39.26-.07-.07.13,0,.16.5-.25.02,0,.54-.24.04,0,.03,0,0,.02l-.3.18c-.15.08-.12.04-.24.1-.03.04-.22.11-.35.19.19-.09.27-.12.21-.07l.23-.13c.29-.1-.43.23-.13.14l-.17.07c.11-.03.03.07.46-.11-.06.03-.2.1-.24.11-.04.07.49-.11.25.04l-.13.06s.25-.1.12-.03c-.05.02-.13.06-.14.06.05-.02.23-.08.16-.04l-.15.06c-.15.12.38-.1.48-.11-.38.17-.48.26-.54.31l-.05.02c-.02.07.35-.06.52-.09-.4.22-.13.17-.34.32.07-.04.29-.14.34-.14-.07.05.27-.09-.07.07h0c-.34.16-.24.14-.24.16l.45-.21c-.64.35.29,0-.28.3.12-.04.12-.03.24-.07l-.24.11c-.05.06-.07.09,0,.1l-.18.07s.71-.3.73-.29l-.36.17s-.28.22.07.1c-.05.02-.16.07-.18.07,0,.02-.21.18.28-.06-.32.15-.01.05.14,0l-.24.11c.31-.13.4-.16.49-.18-.03.02-.19.09-.13.06-.12.08.23-.09.12-.01l-.16.06s.07-.01.25-.08c.1-.03-.04.06-.26.17.13-.06.31-.13.26-.09-.08.04-.13.06-.16.07-.15.11.3-.08.07.05-.08.04-.12.06-.14.07,0-.03,0-.05.02-.06-.22.1-.25.14-.56.26.17-.06.55-.2.45-.13-.02.01-.04.02-.07.04h-.03s0,.02.04,0c-.03.02-.06.04-.06.05-.18.09-.09.07-.09.08.24-.11.21-.08.4-.19-.02,0-.03.01-.04,0,0,0-.01,0-.03,0,0,0,.01,0,.02,0-.01,0-.02,0-.03-.02.13-.05.23-.09.1-.02.16-.07.32-.13.39-.17-.33.17-.5.28-.7.38.15-.03.12.03.58-.16.06-.02-.12.07-.19.11-.05.02-.04,0-.11.03.12-.04.07.03.39-.11-.13.09-.3.12-.23.13l-.1.04c-.48.29.85-.28.23.08.04-.02.05-.03.11-.06-.25.21.34.03-.08.31-.08.06.12-.03.28-.09l-.26.12.31-.12c.23-.07-.61.35-.18.19l.17-.09s.12,0-.08.09c.03-.01.18-.08.09-.03l-.13.06.25-.07c-.09.07-.54.24-.55.3.06,0,.41-.14.5-.19,0,0,.08-.05.21-.12l.08-.02c.4-.18.81-.36,1.08-.52l-.25.09.19-.1h.02c.18-.08.01-.01-.1.03.1-.05.17-.09.21-.11l-.39.15c.15-.08.31-.13.39-.19-.18.07-.34.17-.47.21.18-.09.32-.16.16-.1.1-.05.17-.08.22-.09-.13.05-.07,0-.28.09.22-.11-.08-.01.3-.18-.09.04-.31.12-.33.11.46-.19,0-.05.49-.27-.41.17-.2.03-.44.11.03-.01.1-.04.08-.03.03-.03.15-.09.22-.13-.34.15-.42.17-.63.25.32-.17.4-.17.71-.32-.27.13-.28.1-.51.21.19-.11.09-.06.37-.19-.42.19-.08.02-.34.13.2-.11.39-.19.25-.15.12-.07.28-.12.28-.12ZM27.54,11.73s0,0,0,0c0,0,.01,0,.02,0,0,0-.01,0-.02,0ZM27.52,11.69s0,.02,0,.02c-.08.04-.17.08-.17.07.06-.02.1-.06.17-.09ZM25.89,12.55s0-.01.06-.04c0,0,.02,0,.03,0,0,0,.02,0,.03-.01-.05.02-.09.04-.12.05Z"/>
      <path class="cls-1" d="M26.21,12.42s.02,0,.02,0c.02-.01.04-.02.05-.03-.03.01-.05.02-.08.03,0,0,0,0,0,0Z"/>
      <path class="cls-1" d="M24.84,8.53h0s.02,0,.03-.01c-.01,0-.02,0-.03.01Z"/>
      <polygon class="cls-1" points="27.71 10.91 27.65 10.94 27.71 10.92 27.71 10.91"/>
      <path class="cls-1" d="M25.56,7.92s.04-.02.06-.03c-.02,0-.04.02-.06.03Z"/>
      <path class="cls-1" d="M25.57,7.8l.08-.05s-.07.04-.08.05Z"/>
      <path class="cls-1" d="M25.65,7.66s-.07.03-.1.05c0,0,0,0,0,0l.11-.05Z"/>
      <path class="cls-1" d="M26.49,8.73s0,0,.01,0c.05-.01.03-.01-.01,0Z"/>
      <path class="cls-1" d="M25.76,8.63s.09-.03.12-.04c.02-.01.02-.02-.12.04Z"/>
      <polygon class="cls-1" points="26.96 8.99 26.96 8.99 26.96 9 26.96 8.99"/>
      <path class="cls-1" d="M25.88,8.61s.03-.03,0-.02c-.01.01-.04.03,0,.02Z"/>
      <path class="cls-1" d="M25.61,7.29h0s-.03,0-.04,0h.03Z"/>
      <path class="cls-1" d="M25.58,7.3h-.03s0,.01.03,0Z"/>
      <path class="cls-1" d="M25.48,7.33l.06-.02s0-.01-.06.02Z"/>
      <path class="cls-1" d="M25.54,7.44l.09-.04s-.05.02-.09.04Z"/>
      <path class="cls-1" d="M25.58,7.46s.18-.1.12-.09l-.07.03c.13-.06-.2.12-.05.06Z"/>
      <path class="cls-1" d="M24.56,8.08l.06-.06c-.09.05-.21.11-.24.11-.26.16.2-.1.18-.05Z"/>
      <path class="cls-1" d="M24.47,8.23s-.13.06-.19.09c.09-.03.11-.04.19-.09Z"/>
      <path class="cls-1" d="M24.73,8.79l-.22.1s.08-.04.22-.1Z"/>
      <polygon class="cls-1" points="25.91 8.38 26.04 8.3 25.84 8.39 25.91 8.38"/>
      <polygon class="cls-1" points="24.38 9.16 24.35 9.17 24.43 9.16 24.38 9.16"/>
      <path class="cls-1" d="M24.9,10.08l.27-.13c-.05.02-.36.15-.27.13Z"/>
      <path class="cls-1" d="M25.37,10.37c-.13.07-.21.12-.08.06.01-.02.11-.08.08-.06Z"/>
      <polygon class="cls-1" points="25.5 11.8 25.41 11.84 25.49 11.82 25.5 11.8"/>
    </g>
  </g>
  <g>
    <path class="cls-1" d="M18.54,19.42c-1.98-.16-3.95-.31-5.93-.47"/>
    <g>
      <path class="cls-1" d="M12.66,18.33c0,.08-.02.26-.01.23l.03-.31-.02.08Z"/>
      <path class="cls-1" d="M12.67,18.91c.02-.15.05-.41.07-.7-.03.3-.03.17-.07.53-.01.04,0-.1,0-.22,0,.08,0-.07-.03.13,0,.24,0,.25.04.05,0,.07-.01.15-.02.21Z"/>
      <path class="cls-1" d="M13.48,19.46v-.04s0,.03,0,.04Z"/>
      <path class="cls-1" d="M13.98,19.67s0,.04-.01.07c0-.02,0-.04.01-.07Z"/>
      <path class="cls-1" d="M14.05,20.02s0-.01,0-.02c0,.03,0,.04,0,.02Z"/>
      <path class="cls-1" d="M13.48,19.46v.1c.02-.1,0-.08,0-.1Z"/>
      <path class="cls-1" d="M12.85,18.17s0,.04-.01.08c0-.01,0-.02,0-.03,0-.02,0-.03,0-.05Z"/>
      <path class="cls-1" d="M13.23,19.69h0s0,.08-.01.13l.02-.13Z"/>
      <path class="cls-1" d="M13.05,19.73s.03-.25.04-.37c-.01.11-.02.16-.02.18,0,.05,0,.11-.01.19Z"/>
      <path class="cls-1" d="M12.8,19.24v.04s0-.02,0-.04Z"/>
      <path class="cls-1" d="M13.35,19.76s0,.07,0,.09c0-.03,0-.06,0-.09Z"/>
      <path class="cls-1" d="M18.44,18.16s0,.03,0,.05c0-.03,0-.05,0-.05Z"/>
      <path class="cls-1" d="M18.54,19.49h0c0,.06,0,.11-.01.16l.02-.16Z"/>
      <path class="cls-1" d="M14.18,20.37s0,0,0,0c0,.03,0,.02,0,0Z"/>
      <path class="cls-1" d="M15.69,20.3c0-.24.05-.3.05-.57,0,.1-.06.41-.05.57Z"/>
      <path class="cls-1" d="M12.85,18.2s0,0,0,0c0,0,0,0,0,0Z"/>
      <path class="cls-1" d="M15.74,19.73s0,0,0,0v-.03s0,.02,0,.03Z"/>
      <path class="cls-1" d="M14.57,20.24s0-.08,0-.12c0,.03,0,.06,0,.12Z"/>
      <path class="cls-1" d="M14.32,19.85v.04s0-.03,0-.04Z"/>
      <path class="cls-1" d="M14.74,19.88s0,.06,0,.02c0-.01,0-.02,0-.03,0,.04,0,.05,0,.01Z"/>
      <path class="cls-1" d="M14.89,19.89s0-.04,0-.05c0,0,0,0,0,.01v.04Z"/>
      <path class="cls-1" d="M17.97,18.26c0,.07,0,.16-.01.24.01-.19.04-.25.01-.24Z"/>
      <path class="cls-1" d="M12.84,18.32c0-.07.01-.1.01-.11,0,0,0,0,0,.01,0,.04,0,.08,0,.1Z"/>
      <path class="cls-1" d="M14.91,17.8l.02.04s-.01-.04-.02-.04Z"/>
      <path class="cls-1" d="M16.88,18.21v-.03s0,0,0,.03Z"/>
      <path class="cls-1" d="M15.01,17.81c0,.09,0,.15,0,.18,0-.02,0-.04,0-.07v-.12Z"/>
      <path class="cls-1" d="M17.95,18.5s0,0,0,0c0,0,0,0,0,0Z"/>
      <path class="cls-1" d="M18.16,17.88s-.04.34-.06.54c-.04.1,0-.26.01-.44-.02.09-.06.41-.07.39,0-.06,0-.08.01-.15-.04.27-.05,0-.1.35,0-.03,0-.06,0-.09-.01.17-.02.35-.03.48-.01,0-.04.22-.02,0,0,0,.01-.08.02-.16l-.02.1c.02-.33.02-.11.04-.35-.03.1-.08.37-.08.28.02-.32.05-.1.05-.39l.02.12c.02-.51.01.04.04-.5-.03-.1-.05.16-.07.06-.02.18-.02.26-.04.44-.07.32.03-.81-.04-.38-.03.21-.06.62-.07.4l.04-.36s-.06.52-.07.27c.02-.14.03-.12.03-.16,0-.29-.03.2-.05.2l.02-.32s-.09.28-.13.33c0-.09.02-.19.02-.29-.06.16-.1-.05-.13-.24l-.04.27s0-.13.01-.18c0-.11-.01.17-.03.28-.01.02,0-.16.01-.24-.05.23-.13.5-.14.2v-.08c0-.11-.06.56-.06.3v-.05c-.04-.12-.12.12-.13-.3-.04.4-.04-.18-.09.37-.01-.28,0-.38-.02-.56,0-.03-.05.34-.06.4l.02-.29-.04.3.02-.35-.02.07s0,.13,0,.21c-.03.13-.04-.21-.03-.35l-.07.24c.01-.12.02-.16.03-.23-.05.29.02-.31-.03-.04,0,.07-.02.17-.02.23,0-.18-.03-.18-.05-.11l.02-.2c-.03-.05-.09.09-.13.08,0,.09-.02.44-.04.47l.02-.31c-.02.19,0,.12-.03.35-.01-.04.02-.35.03-.45l-.03.1c0-.09.01-.14.02-.26-.02.19,0-.31-.05.02v-.09s-.06.1-.1.11c-.02.26-.03.2-.06.42-.02-.09-.03-.3-.06-.28-.03.13-.02.22-.05.38.02-.24-.02-.22.01-.39-.04.04-.05.04-.11.24,0,.1,0,.14,0,.22-.01.04-.01-.1,0-.22v-.02c-.08.36-.06-.71-.14-.21v-.02s-.06.26-.06.26c-.02-.04.03-.18.02-.33-.08.4-.07-.06-.13.2.03-.71-.11.04-.11-.42v.17c-.03.16-.02-.1-.02-.14,0,.13,0,.15-.01.24-.1.19-.16-.26-.24-.42-.03-.05-.09.86-.1.46l.04-.31c-.1.37-.13-.02-.22.29,0-.07.02-.16.02-.16,0-.23-.05-.02-.06.17,0-.02.01-.17.01-.26,0-.13-.06.29-.05.06,0-.04,0-.07.01-.09-.02.11-.04-.03-.05.23-.01-.13-.06.11-.06-.04-.04.29-.03-.14-.07.27.04-.43-.02-.35-.05-.15.02-.13,0-.13.02-.31-.02,0-.04.08-.05.3,0-.51-.1.4-.06-.25-.07.22-.13.38-.19.47.04-.42.06-.04.09-.48-.06.17-.11.53-.15.43,0-.06.02-.18.03-.26-.06.17-.08-.05-.14.18,0-.04.01-.08.02-.11,0,.01-.01-.06-.03.13v-.05c0,.28-.07.58-.08.73.06-.55-.03-.14.05-.84,0,.04-.02.13-.03.26,0-.04,0-.11.02-.26-.04.1-.04.31-.07.3,0-.09.02-.13.03-.24-.03.18-.05.36-.07.28,0-.06,0-.13.02-.13-.04.03-.1.48-.13.3.04-.4,0-.13.02-.49l-.03.1v.17s-.06.25-.07.13l.03-.14-.04.06v.13c-.02.18-.02.44-.04.34,0-.04-.02,0-.01-.21,0,0,0,0,0,0-.02.11-.04.23-.04.14,0-.11.03-.39.04-.46-.03.29-.05.08-.09.39,0-.07.02-.26.03-.29l-.03.24c0-.08,0-.11.01-.26-.02-.05-.03.45-.04.25,0-.02,0-.05.01-.09-.02-.1-.07.15-.09.03.02-.35.03-.08.05-.38-.05.06-.12.42-.15.33v.04c-.04.5,0-.25-.05-.02,0-.04.03-.28.02-.22-.02-.08-.07.12-.12.27l.02-.13c0-.12-.04-.07-.05-.13-.02.13-.02.11-.03.29,0-.73-.13.38-.14-.23,0,0,.02-.11.02-.11l-.05.11c-.01.22,0,.13,0,.3-.02.13-.03.23-.05.23.03-.14.03-.35.03-.47,0,.07-.01.14-.02.21,0-.39-.04.44-.05.17v-.11c0,.06-.03.21-.04.17.01-.25.02-.12.04-.32-.02.01-.07.47-.07.22.01-.07.02-.07.04-.14,0-.3,0-.22,0-.27h0s-.02-.13-.02-.13v.08c-.07.65-.05.12-.11.54.06-.4.02-.23.05-.52,0-.08,0-.17,0-.25-.03.23,0-.18-.05.15,0-.09-.01-.01,0-.24-.02.07,0,.16-.02.27-.05.31-.03-.38-.1.04-.05.17-.08.48-.12.63,0-.15.03-.33.03-.33,0-.14-.02-.11-.04,0,0-.08.01-.15.01-.25-.01.02-.03.33-.04.2.01-.1.03-.27.04-.37-.02.08-.05.25-.07.33,0-.16.03-.24.04-.35-.02.07-.06.14-.08.39v.09s.02-.22.03-.26c.03-.2.01.09,0,.18l-.02.06c-.03.54.05-.08.07-.05l-.04.39.05-.32c0,.1-.02.32-.03.38,0,.19.02-.14.02.08,0,.03,0,.05,0,.07l.02-.12c0,.08-.02.28-.02.22,0,.23.07-.29.05,0v.02c.04-.13.02-.29.08-.62l-.04.71.03-.29s0,.03,0,.15c.03-.2,0-.13.03-.31,0,.26.06-.12.03.34.02-.22,0-.17.03-.32-.03.49.03-.08.03.14-.03.25-.03.12-.03.35.04-.43.03.1.05.02.03-.34.04-.14.08-.25-.01.11.03.19.04.32v.06c.03-.34.05-.28.07-.35-.02.21-.03.29-.04.38h.02c.01-.11.02-.17.04-.21l-.02.26s.07-.3.08-.13c.02-.24.03-.67.07-.83,0,.13-.03.35-.04.41,0-.02.02-.11.02-.05l-.03.22c0,.1.02-.18.03-.16-.01.19,0,.13-.02.28,0,.02,0-.08-.01,0,0,.03.01.15,0,.29,0-.11.02-.25.03-.27.02-.01-.01.22,0,.32.02-.13.02,0,.04-.27,0,0,0,.13,0,.21.02-.12.05-.03.07-.33v-.02s0,0,0-.01h0,0c.06-.27.06.16.11.05v.09c.02-.1.05-.06.08-.26,0,0,0,.17,0,.28.02-.07.03-.17.04-.02-.03.16,0,.14-.03.12.02.08,0,.23.05-.02-.03.24,0,.3,0,.23v-.17s.02-.01.03,0l-.03.31c.01.38.13-.64.11,0,.03-.22-.01-.16.02-.41.02.04,0,.49,0,.5.01.18.06-.45.08-.33,0-.11.03-.41.05-.51.02.04-.01.47-.03.56,0,0,0-.03,0-.06,0,.04-.02.09-.02.21v-.11c.01.11.04.1.02.29.02-.11.02-.18.01-.24.01.16.04,0,.06.12,0-.06,0-.19.01-.19.03.14.03-.21.06-.26,0,.17-.04.41,0,.27,0,.12-.02.3-.03.39.04-.21.03.15.05.19l-.02.09c.01-.05.02-.05.02-.05v-.22s.02.04.01.13c.02-.15.02-.37.05-.57,0,.11.04-.12.02.18-.02-.1-.02.3-.05.34,0-.04.01-.03.02,0,0,.03,0,.06,0,.08,0,.27.04-.33.07-.32-.02.17-.02.32,0,.28-.01,0,.02-.28.04-.41,0,.13.03-.09.04-.08v-.06c.01-.17.02-.14.04-.2,0,.13-.02.09-.02.15.04-.29.01.31.05.11,0,.11-.02.31-.02.39.04-.21,0,.23.05.05.01-.22,0-.17.04-.39l-.05.15.05-.32s-.04.14-.04.1c.03-.18.02-.13.03-.31,0,.34.05-.19.05.04l-.04.56c.01.25.08-.28.1-.14v-.1c.02-.22.02-.03.04-.12-.02.19-.01.25-.02.37.01-.14.03.01.06-.36v.25c.02.1.08-.53.1-.46-.03.2-.02.33-.05.48.01,0,.02.04.03-.09,0,.12.05-.25.04-.07.01-.08.03-.28.04-.26,0,.04,0,.09,0,.09,0-.09.03-.12.03-.33-.01.58.09-.04.08.46.03-.06.06-.12.08-.13,0,.06,0,.09,0,.07.01.17.06-.53.08-.34,0,.3-.03.16-.03.28-.04.61.04-.08.04.28v.04c0,.21.05-.23.07-.18,0,0,0,.05,0,.09.04-.31.09-.41.12-.49-.03.24-.02.13-.04.37.01-.03.03-.39.06-.46,0,.13,0,.25-.01.51h-.02c-.02.35.03,0,.04.06v.15s.05-.41.09-.39v-.11c.05-.36,0,.21.05-.06l-.02.37c.02-.09.07-.36.1-.42-.03.27-.07.41-.1.57.01,0,.05-.02.07-.21,0,.04-.02.13-.02.07.04-.29.07-.43.1-.42-.06.72.05.19.03.75.07-.26.08.12.14.08.03-.56.02-.01.06-.59.02-.04.02-.03.02.01v.35c0,.17-.01.13-.02.25.02.05,0,.24,0,.4.01-.21.03-.29.04-.21v-.27c.06-.3,0,.48.05.18l-.03.18c.03-.11.07,0,.13-.45,0,.07,0,.22-.02.27.04.07.14-.48.15-.2v.14s.02-.26.02-.12c0,.06-.01.14-.01.15,0-.05.04-.24.05-.16l-.02.16c.03.19.1-.38.14-.47-.03.41,0,.55,0,.62v.06c.04.06.11-.34.17-.49,0,.45.09.2.12.45,0-.08.03-.32.04-.36,0,.08.05-.28.02.09h0c-.02.37.01.27.03.28l.04-.5c0,.73.15-.26.12.39.02-.12.04-.12.06-.24l-.02.27c.03.07.04.11.08.04l-.02.19s.09-.77.11-.78l-.03.4s.05.35.12,0c0,.06-.02.17-.02.19.02.01.05.27.09-.27-.03.36.04.04.07-.12l-.02.26c.04-.33.05-.42.08-.52,0,.03-.01.21-.01.14,0,.14.03-.25.05-.11l-.02.17s.02-.07.05-.26c.02-.1.03.07.02.31.01-.14.04-.34.05-.27,0,.09-.01.14-.02.17.02.18.07-.3.08-.04,0,.09,0,.13,0,.16-.03,0-.05-.02-.04-.04-.02.24,0,.29-.04.62.03-.18.09-.57.1-.46,0,.02,0,.05,0,.08v.03s0,0,.01-.04c0,.04,0,.07.01.07-.01.2.02.11.03.12.02-.26.03-.22.03-.44,0,.02,0,.03-.01.04,0,0,0,.01,0,.03,0,0,0-.02,0-.02,0,0-.02.01-.03.02.02-.13.04-.25.04-.1.02-.17.04-.34.05-.43-.01.37,0,.57-.02.8.04-.15.08-.09.14-.59.01-.06,0,.14,0,.22,0,.05-.02.04-.02.11.03-.13.06-.05.09-.39.01.16-.04.32,0,.26v.11c0,.56.16-.88.17-.16,0-.04,0-.06,0-.12.06.32.19-.28.23.22.01.1.03-.12.06-.29l-.02.28.05-.33c.05-.24,0,.7.08.25v-.19s.07-.11.05.11c0-.03.02-.2.02-.1v.15s.05-.25.05-.25c.02.11-.05.59-.01.62.02-.06.08-.43.08-.53,0,0,0-.09,0-.24l.02-.08c.04-.44.08-.89.07-1.19l-.05.27v-.21s.03-.01.03-.01c0-.2-.02-.02-.04.1,0-.11,0-.19,0-.23l-.06.42c.01-.17.04-.34.03-.44-.03.19-.02.38-.05.51,0-.2.02-.36,0-.19,0-.11.02-.18.02-.23-.02.13-.04.05-.06.29,0-.25-.05.06-.01-.35-.01.1-.05.32-.06.34.06-.49-.04-.03,0-.56-.05.44-.07.19-.12.44,0-.04.01-.11.01-.08-.01-.04,0-.17,0-.26-.03.37-.06.45-.09.68,0-.36.05-.43.07-.77-.02.3-.06.3-.07.54,0-.22,0-.11.01-.41-.04.46-.02.08-.05.36,0-.23.03-.43,0-.29,0-.14.03-.3.03-.3ZM17.57,18.64s0,0,0,0c0,0,0-.01.01-.01,0,0,0,0-.01.02ZM17.52,18.64s.01.01.02.01c0,.09-.01.19-.02.18,0-.06,0-.11,0-.19ZM17.47,20.47s0-.02,0-.07c0,0,0-.01.01-.03,0,0,0-.02,0-.03,0,.05,0,.1-.01.13Z"/>
      <path class="cls-1" d="M17.51,20.13s0-.02,0-.02c0-.02,0-.04,0-.06,0,.03,0,.06,0,.08,0,0,0,0,0,0Z"/>
      <path class="cls-1" d="M13.47,19.42h0s0-.01,0-.03c0,.01,0,.02,0,.03Z"/>
      <polygon class="cls-1" points="16.94 18.08 16.93 18.15 16.94 18.09 16.94 18.08"/>
      <path class="cls-1" d="M13.3,18.49s0-.05,0-.07c0,.02,0,.04,0,.07Z"/>
      <path class="cls-1" d="M13.19,18.42v-.1c0,.05,0,.08,0,.1Z"/>
      <path class="cls-1" d="M13.12,18.29s0,.08-.01.11c0,0,0,0,0,0v-.12Z"/>
      <path class="cls-1" d="M14.45,18.08s0,0,0-.01c.01-.05,0-.03,0,.01Z"/>
      <path class="cls-1" d="M14.02,18.66s.02-.09.02-.12c0-.02-.01-.03-.02.12Z"/>
      <polygon class="cls-1" points="14.91 17.79 14.91 17.8 14.91 17.8 14.91 17.79"/>
      <path class="cls-1" d="M14.06,18.55c0-.05,0-.04-.02,0,0,.02,0,.05.02,0Z"/>
      <path class="cls-1" d="M12.78,18.14h0s0,.02,0,.03v-.03Z"/>
      <path class="cls-1" d="M12.77,18.17v.03s0,0,0-.03Z"/>
      <path class="cls-1" d="M12.75,18.27v-.07s0,0,0,.07Z"/>
      <path class="cls-1" d="M12.88,18.27v-.1s0,.05,0,.1Z"/>
      <path class="cls-1" d="M12.91,18.24s0-.21-.02-.15v.08c0-.14,0,.23.02.07Z"/>
      <path class="cls-1" d="M12.96,19.44l-.02-.08c0,.1,0,.24-.02.26.01.31.01-.23.04-.19Z"/>
      <path class="cls-1" d="M13.03,19.59s-.01.15-.02.21c.02-.09.02-.12.02-.21Z"/>
      <path class="cls-1" d="M13.65,19.64l-.02.24s0-.09.02-.24Z"/>
      <polygon class="cls-1" points="13.87 18.41 13.87 18.26 13.84 18.48 13.87 18.41"/>
      <polygon class="cls-1" points="13.8 20.13 13.79 20.16 13.82 20.08 13.8 20.13"/>
      <path class="cls-1" d="M14.85,20.12l.02-.3c-.01.05-.04.39-.02.3Z"/>
      <path class="cls-1" d="M15.32,19.86c0,.15,0,.24.02.1,0-.02,0-.14-.02-.1Z"/>
      <polygon class="cls-1" points="16.63 20.45 16.62 20.55 16.64 20.46 16.63 20.45"/>
    </g>
  </g>
</svg>