<svg id="Capa_1" data-name="Capa 1" xmlns="http://www.w3.org/2000/svg" viewBox="0 0 362.32 541.36"><defs><style>.cls-1{fill:#fff;}.cls-2{fill:#5da6bc;}.cls-3{fill:#ed6c6f;}</style></defs><rect class="cls-1" x="1.47" y="1.45" width="359.26" height="538.62" rx="14.17"/><path class="cls-2" d="M15.64,2.11c.94,0,.37-.39-2.09-.06a13.15,13.15,0,0,0-1.64.68A14.63,14.63,0,0,1,15.64,2.11Z"/><path class="cls-2" d="M2.39,10.79a11.12,11.12,0,0,0-.52,4c.08,1,.22,1.34.4.41l0-1,.06-.83A8.84,8.84,0,0,1,2.5,12a18,18,0,0,1,1-3.29c1.26-2.23,2.85-3.35,2.6-3,.15-.17.41-.41.72-.7L8,4.21c.87-.56,1.82-1.06,2.41-1.41A12.17,12.17,0,0,0,5.76,5.66,12.82,12.82,0,0,0,2.53,11C2.14,11.89,2.37,11,2.39,10.79Z"/><path class="cls-3" d="M1,261.87l0-1.62C1,260.69,1,261.24,1,261.87Z"/><path class="cls-3" d="M.83,417.51a11.83,11.83,0,0,0-.07-1.74A10.31,10.31,0,0,0,.83,417.51Z"/><path class="cls-3" d="M.47,444.08l0-1.57C.46,443.11.45,443.71.47,444.08Z"/><path class="cls-3" d="M1,261.87.91,266A37.67,37.67,0,0,0,1,261.87Z"/><path class="cls-3" d="M2.3,45.31c0-.87,0-1.6-.08-2.26l0,2.12A.38.38,0,0,1,2.3,45.31Z"/><path class="cls-3" d="M.74,193.26V192c0-.37-.08-.72-.13-1.05Z"/><path class="cls-3" d="M.69,140.6a5.23,5.23,0,0,0,.39,2.06,19.05,19.05,0,0,1-.19-2.59C.84,140.05.77,140.2.69,140.6Z"/><path class="cls-3" d="M1.18,57.11l0-1.48Z"/><path class="cls-3" d="M.68,230.94a2.43,2.43,0,0,0-.1.48S.65,231.23.68,230.94Z"/><path class="cls-3" d="M76.67,2.75s0,0,0,0C76.36,2.73,76.27,2.75,76.67,2.75Z"/><path class="cls-2" d="M15.64,1.38l.84,0c.09-.05.19-.1.19-.15Z"/><path class="cls-3" d="M.11,492.71v-.22C.09,491.22.09,491.94.11,492.71Z"/><path class="cls-3" d="M361.87,488c-.25,5.06-.32-8.23-.6-.62C361.38,486.7,361.71,494.33,361.87,488Z"/><path class="cls-3" d="M2.27,46.67v2.16C2.28,47.85,2.28,47.18,2.27,46.67Z"/><path class="cls-3" d="M361.27,487.41h0l0,.79C361.26,487.87,361.26,487.69,361.27,487.41Z"/><path class="cls-3" d="M72.26,541.25c-.23,0-.67-.08-1.14-.12A5,5,0,0,0,72.26,541.25Z"/><path class="cls-3" d="M.68,521.29l0,2.06C.65,522.53.67,521.87.68,521.29Z"/><path class="cls-3" d="M115.61,540.86c1.12,0,1.5.06,3,0l-.46,0A22.74,22.74,0,0,1,115.61,540.86Z"/><path class="cls-3" d="M160.72,540.86l-.83-.06-1.43,0Z"/><path class="cls-3" d="M213.78,2.62c-1-.08-1.61-.17-2.09-.25C212.39,2.57,205.76,2.64,213.78,2.62Z"/><path class="cls-3" d="M2.15,45.33a6.48,6.48,0,0,1,.12,1.34c0-.52,0-1,0-1.5C2.21,45,2.17,45,2.15,45.33Z"/><path class="cls-3" d="M117.44,538.68l7.17,0Z"/><path class="cls-3" d="M359.59,184.26l0-1.65C359.55,183.24,359.56,183.83,359.59,184.26Z"/><path class="cls-3" d="M145.88,538.68c1.28.1,2.63.15,4,.19.3,0,.64,0,.84-.07Z"/><path class="cls-3" d="M211.68,2.37h0Z"/><path class="cls-2" d="M164.47,3c6.83,0,3.21-.35,4.65-.56,8.16-.1,3.78.27,6.55.45,5.09-.09,9-.43,12.79-.41.28.06,1,.08.16.15,5.38-.29,16,0,22.24-.37a5.35,5.35,0,0,1,.82.09c-1-.19-1.17-.37-1-.5a62,62,0,0,1,6.83,0,19.19,19.19,0,0,0-2.91.17l3.21-.11c2.88.35-4.38.12-4.38.38,6.25-.12,13.54-.4,18.34-.3,1,.33-11.21.11-4.82.41l-7.41-.13c5.66.53-4.51,0,.7.53,9.76.1,10.92-.17,20.65-.07,2.19-.19-.72-.28,1.47-.47,13.84-.33,10.89.85,21.07.4a57,57,0,0,1,10.9-.42l-2.47.38c9.45,0,5.39-.55,15.29-.29-1.76.15-7.43.12-6,.17,6.41.3,4.54-.22,9.47-.22l1,.34L324,2.28c-.61.1-2.52.21.08.31,7-.09,14.53-.07,22,0a13.05,13.05,0,0,1,9.26,3.54,12.91,12.91,0,0,1,4,8.44l.13,1.18.07,1.29.14,2.59c0,1.21-.13,2.24-.18.93-.11,5.29.18.28.29,2.82,0,3-.16,4-.25,2.06.25,9.33.53,26.56.22,36.38l-.09-1.91c-.11,7.65.6,8.63.33,15.72l-.06-1.36c-.12,16.6.14,35-.29,47.61.41,2.41-.19,16.44.39,17.5-.29,9.48-.39,6.77-.58,20.12,0,3.56.36,5.31.42,9.72l-.3.11.32,6-.37,3.19.08,4.13a15.28,15.28,0,0,1,.22-3.25c.07,3.23,0,7.17-.07,10.31,0,1.58-.1,3-.15,4a10.39,10.39,0,0,1-.14,1.64l.25,15.28c-.12-.34-.16-2.9-.24-4.92.31,8.16-.32,1.48,0,9,.06-1,.18.54.24.71-.19,3.72-.19,12.2-.11,18.48l-.21-1.21c-.05,11.34.1,23.9.1,36.62.1-4.57.46-3.52.49.21l-.32,1.49c.2,2.41.12-3.89.37,1.05,0,4.75-.37,3.19-.47.47l.11,5.77c-.1.34-.15-1-.27-1.37.2,2.37-.32,10,0,13.4l-.09.32c.05,12.71.08,18.48.12,28.84.28.2.22,4.25.44,7.34-.09,7.61-.3,16.06-.28,25.23.14,6.44.23,1.88.4,4.78-.25.47-.23,9.63-.41,4.88,0,11,.05,14.06.25,28,.11-1.51.15-3.21.24-2.33a28.85,28.85,0,0,1-.23,5.39l0-.67c.38,15.62-.73,36.06-.21,48.51l0-.7.27,12.9c0,5.94-.19-3.56-.34.83.42,13.92-.06,22,.22,33.46-.38,4.43-.36,12.3-.32,20.56,0,4.13,0,8.36.06,12.3,0,2,0,3.87,0,5.65a12.66,12.66,0,0,1-.78,4.4,3.84,3.84,0,0,0,.35-.54,9.18,9.18,0,0,1-.53,1.67,12.44,12.44,0,0,1-.6,1.12l-.66.91c-.26.29-.52.62-.85,1a6.71,6.71,0,0,0,1-1c.29-.41.45-.62,0,.16a13.15,13.15,0,0,1-7.19,5.27c-.38.09-.74.21-1.12.27l-1.13.18-1.15.06h-6.27l-20.32-.12-40.75-.34c-9.83-.05-5.58.9-18,.48l3.52-.32c-19.84.39-40.57,0-60,.32a25.33,25.33,0,0,1,3.09-.18c-2-.11-5.84-.12-9.13-.07-1.65,0-3.16.07-4.28.11a10.16,10.16,0,0,0-1.83.15c-3,0-.7-.18-2.56-.28-4.12-.14-10.33.31-12.52.07a11.93,11.93,0,0,1,1.91-.09c-2.68.11-12.49,0-9.93.24-7.29-.13-13.94.12-19.76,0-3.79.3-12.48-.15-13.68.28.52-.44-12.78-.36-17.39-.15,1.54-.13-4-.14-2.2-.32-5.26,0-10.08.09-9.16.32-9.69-.54-19.48.42-24.94-.26-15.62.24-30.08.4-44.14.51.51-.45,15.54,0,14.94-.51-13.34.18-21,.56-34.25.45-3.43-.06,1.94-.19,3.1-.27l-5,.06a18.35,18.35,0,0,1-4.59-.34A13.16,13.16,0,0,1,2.53,526.07c0-3-.08-6-.12-9,0,0,.08,1.31.12,2.52,0-2.34.06-5.44-.14-5.17l.06,2.28c-.3,3.73-.62-9.28-.77-9.7.58,4,.14-11.71.88-5.41,0-1.54-.14-3.47-.27-3.11,0-2.28.12-3,.27-.7-.11-8.36-.33-5.39-.32-13,.1,0,.14,1.56.25,2.34-.19-3.84-.38-7.7-.3-14.1.06.38.14-.36.14,1.55,0-11-.51-18.75-.33-30.82.43,3.56.14-4.11.51-4.75l-.11-6.49-.18,2.6c0-5.68-.26-10.71-.14-15.59l.15,4.22-.07-10.65-.14,6c-.19-5.76-.46.61-.36-7,0,1.53,0-5.69.22-8.66v0c-.12-2.81-.24-5.7-.15-9.91.12-1.09.41.88.49.17-.31-2.77-.09-13.31-.42-16.83.08,1.17.27,1.23.31.85l-.25-2.33c.08-2.63.12-3,.28-2.59,0-7.92-.47,2.51-.27-6.89,0,.74.06.39.1,1.93.1-9.45-.16-18.25,0-26.93.37-2.56.09,7.58.4,4.65-.06-12.51-.44-25.91-.35-38l0,2.25c-.53-1.67.25-9,0-15.14,0,1.5.29,2,.23,1.56.08-8.29-.13-17-.29-29.51L2,268.39c.12-4.88.07-12.86.13-18.14-.13-1.57-.11-4.59-.31-2.75.77-16.28-.41-31.05.23-45.49,0,1.73.12,4.12.12,2.74l-.12-12.3a31.42,31.42,0,0,0-.32,4.2c-.13-1.56-.24-5-.24-8.08.15,5.53.37,0,.49-2.44-.07.4-.14-.41-.21-.21.4-6.43-.46-1.08-.19-9.85l.12.46c-.06-3.28-.22-6.3-.18-9.85.26-1.46.12,3.5.34,3.72,0-5-.5-9.81-.24-14.31,0,2.11.1,5.15.15,7.26.31-4.9.23-5.47.28-9.11v.36l.14-8.42-.08,2.14c-.69-6.22-.13-12.67-.58-21,.43,8.15.25,1.35.54,2,.09-2.14.18-5.39.26-4.47-.24-4,.19-6.61-.16-12.2.1-.25,0-4.24.25-3.35-.07-5.15-.16,1.22-.29.79-.32-7.94.4-18.67-.05-30.09-.18-9.85-.51-11.67-.67-20.81.16-3.08.35,2.53.35,2.53.14-5,.12-8.72,0-13.41.08,1,.15,0,.26-1.46,0-3.76-.35-2.52-.21-7.48.11.85.28,1.94.39,3.76C2.1,38.61,2,34.23,1.86,29.64c.17-1.21.26,2.77.37,4.39-.08-5.16-.16-13.37-.42-15l-.09,3.31c0-1.88.22-1,.27.42.21,4.42-.09,6.38-.19,6.63l-.06-3.27c-.56,3.36.09,13.13.06,19.71l-.41-2.74.34,6.75c-.11,1.43-.34,2.42-.4-.83-.2,4.72.15,4.17-.08,8.23,0,.44-.05.24-.07-.17l.12,4.61c-.08-.91-.29.77-.23-2.07-.23,8.28.31,13.35,0,16.46l0-.69c.14,11.48.31,1.11.66,9.72L1,90.94l.3,1.13c0,1.18,0,3.53-.16,3.09.21,4.41.13-.75.33,1.81-.28,5.7.13,15.72-.35,17,.23,2,.17-5.45.33.64-.51,1.73.09,7-.15,12.24-.26-1.6-.12-6.53-.36-1.32.45,3.14-.1,10.14,0,14.54.36.2.15,9.55.27,16.92C1,156.52,1,170.86.83,177.72l-.06-.2c.36,1.32.3,8.4.37,13.55-.22-.2-.3-1.13-.4-3.92V192c.12,1.14.18,2.65.22,5.79l-.27-1.21c0,6.44.32,13,.14,21.27.25.46.7-6.6.87,2.17-.14.33-.37.65-.43-1.64,0,.75.12,2.68.06,4.19l-.23-3.5c-.1,3.77.19,2,.17,5-.19-.06-.14,2.24-.29,1.8,0-.77.08-2.63,0-3.79,0,3.41-.15,7.52-.3,8.88.11-.29.27,0,.29,2.5,0,6.44-.23,2.2-.33,6,.13,1.56,0,5.67.28,5.78a16.53,16.53,0,0,1-.21,3c.13,3.34,0,15.58.34,11.82l0-.85,0,.54v0c.29,10.94-.17,22.71,0,33.56l-.1,0c.11,6.48.06,14.42.27,19,0,1.92-.17,4.52-.29,3.7.07,4.95.18,5.51,0,12.66-.17-5-.15,1.71-.12-5.1-.09,6.43-.24,7.88,0,14.79-.25-2.35-.31,4.84-.24,7.9l.18-4.51c0,3.44,0,6.44,0,9.5l-.33-1.65c-.4,13.16.68,23.73,0,33.75.23,3.48.16-7.15.43-4C.85,385.29.38,391.6.38,393.49c-.18,8.3.48,7.74.36,16.42.11-1.11.43-2.16.54,4.33-.05,6.06-.49,7.44-.59,3.62a10.21,10.21,0,0,1,.07-2.09c0-2-.09-4.53-.22-2.13l.12.79c-.12,3-.11,11.34-.3,9.38.11,4.58.19,2,.25-1.44-.17,7.77,0,12.14-.12,20.14.07-1.27.2-2.44.2-1.17-.14,11.73.22,5.16.28,13.11-.18,4.52-.43-1.62-.28,6.38-.12,4.89-.31,1-.41-.9.23,7.29-.14,13.62-.19,17.78L0,473.87c.06,2.3.05,4.18.05,6.09l.24-2.19a34,34,0,0,1-.14,4.12c.15,2.33.39-1.78.6,2.83-.12,3,.12,9.16-.19,10.2.11-9.46-.31,1-.36-7,0,1.54,0,3.42,0,5.69,0,.34-.07-.32-.09-.94-.27,9.05.36,4.16.35,13.53-.18-1.19-.33,2.18-.3,3.71,0-3.78.3-1.81.43,1.66-.14,6,.1,6.53.09,9.68l.06-3.6c.18,1.22.14,4.22.22,8.42-.16.35-.1-3.8-.17-2.31.08,1.15.07,2.39.19,3.77a16.77,16.77,0,0,0,1,4.16,13.83,13.83,0,0,0,6.26,7.14c1.37.8,1.43.87,1.42,1s-.06.16,1.27.68a18.52,18.52,0,0,0,4.71.69c1.2,0,2.2,0,3.21.07,2,.07,4.07.14,7.89,0-2.2-.23-2.58-.17,2.8-.4L17,541.07l8.07-.34c-1.9,0-3.9,0-5.71.07l-2.53,0H15.7l-1-.06c1,0,1.69,0,2.18-.06l.8-.05c.16,0-.4-.07-1.3-.17,5.19.35,10.28-.2,16.28,0l-.18.59c9,.25,16-.3,27.73-.16l-3.77-.1c1.57-.23,7.23,0,11-.12-.35.19,2,.26,3.64.38-.2-.14,8.57,0,9.63-.37L86,541c9.46.11,10.79-.55,19.88-.49-2.74.22,1.39.35-4.7.51a52.75,52.75,0,0,0,5.81-.1c1.78.12,8.42-.26,11.21-.08a37.13,37.13,0,0,1,5.1-.27c.37,0,0,.09,0,.09s5.33-.13,2.35-.34c9.35.6,26.13-.05,34.27.47l20.61-.14c-.39.06,0,.1-1.16.08,8.29.18,5.1-.56,14.54-.36,4.82.32-5,.17-2,.29,1.31.64,11.39-.09,17.74.29l-1.54,0c4.86.21,11.85-.25,19.78-.2,0,0-.39.06,0,.1,5.42-.33,15.69-.44,23.32-.53-2.37.25-3.47.13-2,.39,3.42,0-1-.41,5.83-.48,2.22.14,7.14.26,7.8.53h-6.44c3.29.35,8.33,0,11.72,0l-.43.15c9.87,0,10-.43,20.61-.41l-1.09-.11c5.79-.38,4.86.21,10.64-.07l1.75.39c3.82-.1,13.39-.38,20.25-.45-3.88.29-11.91.43-16.88.61,3.8,0,12.89,0,14.86-.22-1.53,0-3.45.13-5,.07q7-.47,18.33-.45c-.67.38,4.25.42,10,.45l4.42,0h1.11l1.15-.05a6.86,6.86,0,0,0,1.11-.13,7.61,7.61,0,0,0,1.08-.19,16.83,16.83,0,0,0,3.72-1.31l1.41-.78,1.09-.7a15.78,15.78,0,0,0,5.26-9.12c.06-.45.15-.89.18-1.34l.07-1.34c0-.85,0-1.69,0-2.54,0-1.7,0-3.41,0-5.13.05-6.91.14-14.08.12-21.87-.59,5.52,0-4.54-.62-3.59,0-3.62,0-5,0-5.33l.36-11c.18-2.61.13,3.45.27,3.11.05-7.94.25-3.33.42-8.58-.22,1.08-.31-2.76-.23-7.29l-.28,6.38c-.32-11.1.51-9.6.19-20.78l.19,3.54c-.11-5.74,0-21.18-.48-26.8.07-1,.23-2.36.28.17.07-13.72-.52-30.53-.22-41.19l.15,1c-.05-2.56-.28-4.46-.13-7.66.06.16.15,1,.15-.16-.05-1.35-.25-6.79-.17-10.18l.17,2.89c.19-13.38-.41-20.53-.51-31.75.44,0,.58-10.5.65-15.75l.06.18c.05-15.58-.36-26.46-.53-40.89.47-9,.2-30.33.46-44.73-.08,2.2-.34-.35-.38-2.91.09-3.38-.3-9.34.1-8.8v1.2c.39-2.55.28-9.49.3-14.91l-.53-.89c.76-14.18-.27-37.15.4-44.88-.13-3.42-.12-7.66-.25-11.05l.27.18c.08-9.48.11-14.21,0-25.93l.2,2.39c0-6.61-.8-8.34-.82-14.44l.42-1.83c0-11.53.36-23.2,0-34.59a7.74,7.74,0,0,1,.2,2.39c0-5.43.28-21-.29-19,.37-.14,0-11.9-.13-18.13l.28,1c-.35-5.25-.45-5.42-.55-12.76,0-1.74.22-1.52.15.79.15-5.8-.26-4.52-.11-11.55l.17,2.62a77.94,77.94,0,0,0-.27-8.77c-.05-.95,0-2.08-.08-3.39a17,17,0,0,0-.23-2,18.88,18.88,0,0,0-.5-1.9,23.65,23.65,0,0,0-2.31-4.71c-.34-.26-1.09-1-2.21-1.89a18.57,18.57,0,0,0-4.36-2.41c-.44-.25.85.11,1.46.42A14.71,14.71,0,0,0,349.53,1c-.57-.08-1.12-.2-1.67-.24s-1.09-.06-1.58-.05L340.9.78c-3.32.07-6.24.12-9.67,0a3.34,3.34,0,0,0-1.16-.16c7.92,0,14.3,0,13.7,0,0-.26-6.4-.3-1.31-.65-5.13.19-13.91.61-20.15.49-.3,0-.6,0-.83-.09l.65,0c-1.44,0-2.73,0-3.94,0-2,0-3.26-.07-5.17-.07-.74-.21-7.33-.12-10.53-.13.27.28-3.91.23,0,.46a24.79,24.79,0,0,1,2.73,0l1.36,0-.22,0h7.93a82.7,82.7,0,0,1-8.68.1c-1.64.18-3.44.36-4.45.45-4.37-.39-12.79-.6-14-.84-9.74.16-22.95.11-29.07.63a23.05,23.05,0,0,1-4.22-.23c1.6-.06,3.5,0,4.37-.12-5.54.13-16.41.05-17.73.41-7-.16,3.92-.33-5.67-.27l1.29-.11c-18.87-.58-30.67.92-51.59.18a22.31,22.31,0,0,1,2.47.13C163.2.61,137.9,1.25,114.37.72c-6.69-.1-7.41.13-11.5.31l-1.44-.3-7,.34c-9.9.25-17.14-.73-29.68-.25l1.62.2c-4.5,0-14.25.12-13.5-.11a18.79,18.79,0,0,1-3.24.1L49.52.85l-11.06.27C29.89,1,39.8.5,27.29.47,22.65.53,14.06.93,15.8,1a33.39,33.39,0,0,1,4.94.25l-4.26.08c-.77.46-4,.93,6.4,1.25l7.27-.28,2.35.23H26.38a63.87,63.87,0,0,0,8.13-.1,21.92,21.92,0,0,0,3.05.24l7.14-.44c.87.18-3.2.36,1.59.46,3.35-.2-3.21-.4,2.33-.54a35,35,0,0,0,6.55.2c.57.12-.29.2-1.91.25,3.63-.14,9.62-.06,11.5-.31,3.62.26,12.27-.06,11.91.37,1.14-.1,6.4-.34,9.74-.36-6.1.52,12.5,0,10.89.59,4.51-.47,16.3-.21,24.3-.47a16.87,16.87,0,0,1-2,.09c4.5,0,5.81.18,8.7.27.58-.39,7.59-.47,11.37-.71,5.51.37-3.35.45-1.62.81-.28-.31,9.58-.31,7.71-.57a43.92,43.92,0,0,1,5.81.43c.74-.49,3.92-.08,7.42-.38,6.11.24,1.57.45,8.28.3C170.43,2.85,164.47,3,164.47,3ZM324,2.19h0l-3.29,0Zm13.41,0h-5.82c-.47-.09,0-.19,1.39-.19C332.23,2.05,335.39,2.1,337.39,2.18ZM309,.27a18.71,18.71,0,0,1,3.13.07l-3.71,0-.25,0A4.51,4.51,0,0,1,309,.27Z"/><path class="cls-3" d="M305.22.63l-.88,0,1.27.06.75-.09Z"/><path class="cls-3" d="M1.05,260v.29c0-.24,0-.45,0-.6Z"/><polygon class="cls-3" points="359.46 169.33 359.53 169.31 359.47 168.14 359.46 169.33"/><path class="cls-3" d="M2,186.13a7,7,0,0,0,.07-1C2.06,185.21,2,185.63,2,186.13Z"/><path class="cls-3" d="M2.07,154.24l.09-4.51C2.12,151.68,2.09,153.11,2.07,154.24Z"/><path class="cls-3" d="M2.2,129.72a1.57,1.57,0,0,0-.12-.48v0Z"/><path class="cls-3" d="M2.53,519.6v.94C2.59,522.76,2.57,521.25,2.53,519.6Z"/><path class="cls-3" d="M1.88,403.57c0,1.24.09,2.45.13,3.73A15.69,15.69,0,0,0,1.88,403.57Z"/><path class="cls-3" d="M116.65,538.67h0Z"/><path class="cls-3" d="M2,412.7c.05-2.07,0-3.79,0-5.4C2,409,2,411,2,412.7Z"/><path class="cls-2" d="M2.33,23.44V22.26s0-.05,0-.14Z"/><path class="cls-2" d="M2.3,22.12l0-1.31A12.74,12.74,0,0,0,2.3,22.12Z"/><path class="cls-2" d="M2.19,18.05l.07,2.76C2.26,19.85,2.27,18.67,2.19,18.05Z"/><path class="cls-3" d="M2.2,55.9l.1.38C2.28,56.07,2.25,55.94,2.2,55.9Z"/><path class="cls-3" d="M2.23,65.77c0-2.35.21-5.91.15-9.19l-.08-.3C2.45,57.82,2.06,63.53,2.23,65.77Z"/><path class="cls-3" d="M1,106.94l.08-8.26C1,100.12.82,102,.79,98.26.47,108.68,1,96.11,1,106.94Z"/><path class="cls-3" d="M.83,132.57c0-4.44-.15.05-.21-.18C.71,135.21.74,135.89.83,132.57Z"/><path class="cls-3" d="M.83,317.79l-.25-.44C.62,320.77.68,317.38.83,317.79Z"/><polygon class="cls-3" points="2.13 353.2 2.29 349.87 2.06 348.28 2.13 353.2"/><polygon class="cls-3" points="0.34 374.12 0.3 372.62 0.4 378.33 0.34 374.12"/><path class="cls-3" d="M152.69,541.11l-1-.31C149.35,540.85,148.86,541.2,152.69,541.11Z"/><path class="cls-3" d="M287,540.79a61,61,0,0,0,7.57.1C291.54,540.87,288.53,540.75,287,540.79Z"/><polygon class="cls-3" points="361.95 204.94 362.05 207.64 361.96 202.55 361.95 204.94"/></svg>