<?xml version="1.0" encoding="UTF-8"?>
<svg id="Layer_1" data-name="Layer 1" xmlns="http://www.w3.org/2000/svg" viewBox="0 0 211.49 56.89">
  <defs>
    <style>
      .cls-1 {
        fill: #c55460;
      }

      .cls-1, .cls-2 {
        stroke-width: 0px;
      }

      .cls-2 {
        fill: #fff;
      }
    </style>
  </defs>
  <path class="cls-1" d="M97.87,6.28c-23.92,1.18-47.77,3.87-71.36,8.05-7.62,1.35-16.36,3.74-19.37,10.86-3.1,7.33,2.12,16.05,9.25,19.59,7.13,3.54,15.49,3.24,23.44,2.78,44.9-2.59,91.88-3.39,136.14-11.42,7.83-1.42,23.17-1.74,23.77-12.48.52-9.32-6.11-14.8-14.4-16.81-5.99-1.45-12.18-1.83-18.33-2.1-20.6-.9-41.26-.58-61.83.94"/>
  <g>
    <path class="cls-2" d="M25.8,22.77c.35-.02.6.21.77.7.02,1.68,0,2.88-.07,3.59-.07.71-.12,1.34-.16,1.87-.04.54-.06.9-.07,1.1-.01.2-.05.61-.12,1.23-.07.62-.15,1.24-.23,1.85-.08.61-.13.98-.15,1.1-.02.12-.12.87-.3,2.26-.19,1.39-.34,2.24-.46,2.55-.12.32-.35.49-.69.51-.34.02-.62-.06-.83-.24-.83-.99-1.65-2.23-2.43-3.73-.19-.39-.41-.8-.65-1.25-.24-.45-.42-.79-.53-1.01l-.26-.51c-.31.62-.71,1.67-1.23,3.13-.51,1.47-.97,2.65-1.38,3.54-.27.4-.59.62-.95.64-.76.05-1.48-1.94-2.17-5.97,0-.02-.02-.11-.06-.27-.04-.16-.09-.45-.16-.86-.07-.41-.15-.87-.25-1.37-.09-.5-.45-2.58-1.07-6.23-.02-.33.08-.64.31-.93.23-.29.49-.45.79-.47.36-.03.63.2.8.67.82,5.35,1.55,9.3,2.18,11.84.12-.24.4-1.03.86-2.37.46-1.34.88-2.41,1.27-3.21.39-.8.8-1.22,1.21-1.25.28-.02.53.11.75.4,1.25,2.89,2.29,4.92,3.12,6.08,0-.18.07-.69.19-1.51l.21-1.61c0-.1,0-.24.03-.43.03-.18.05-.37.06-.54.01-.18.03-.34.05-.49l.17-1.58c.23-2.48.33-4.51.32-6.09.05-.29.18-.54.41-.77.22-.22.46-.34.71-.36Z"/>
    <path class="cls-2" d="M28.75,30.63c-.24-.13-.37-.34-.39-.62-.02-.28.05-.54.22-.79-.18-1.65-.34-3.4-.47-5.24.07-.4.21-.7.4-.9.19-.2.49-.33.88-.41,2.19-.05,4.57-.17,7.12-.35.64.09.97.34,1,.75.05.7-.6,1.15-1.95,1.36-.36.04-.76.08-1.19.11l-1.62.11c-.31.02-1.19.02-2.62-.02.15,2.07.28,3.49.4,4.27.88-.04,2.57-.16,5.07-.33.6.07.92.32.95.74s-.19.77-.65,1.03c-.05.04-.14.08-.27.12l-4.31.23c-.26.02-.48.05-.64.1l.4,4.27c.07.96.09,1.65.07,2.07l5.76-.48c.54.05.82.25.84.62.02.25-.08.5-.28.77-.21.26-.46.44-.75.53l-6.36.55c-.38.03-.65-.03-.81-.16-.16-.13-.25-.36-.27-.69.03-.47.02-1.22-.06-2.24l-.12-1.74-.36-3.65Z"/>
    <path class="cls-2" d="M43.88,38.11l-3.21.15c-.23-.68-.56-3.81-.98-9.37l-.12-1.77c-.1-1.41-.04-2.49.17-3.25.21-.75.73-1.39,1.54-1.89.42-.25,1.01-.39,1.78-.45.77-.05,1.37-.05,1.79.02,1.13.15,1.91.53,2.36,1.13.45.6.71,1.43.79,2.49.1,1.47-.21,2.59-.94,3.34.4.02.81.19,1.23.51s.77.65,1.04,1c.48.63.76,1.52.84,2.66.12,1.79-.33,3.1-1.36,3.93-1.03.83-2.68,1.32-4.93,1.48ZM41.49,26.11l.25,2.83s.31-.06.84-.17.97-.22,1.33-.33c1.64-.52,2.42-1.53,2.31-3.03-.05-.75-.31-1.28-.77-1.59-.46-.32-1.05-.45-1.76-.4-.89.06-1.49.26-1.78.6-.12.14-.22.26-.3.36-.08.1-.12.25-.14.45-.02.2-.03.34-.03.43,0,.08,0,.24.03.47s.04.36.04.4ZM47.47,31c-.19-.16-.46-.31-.82-.43-.36-.12-.87-.16-1.52-.12-.66.05-1.76.23-3.32.56.18,2.59.35,4.33.49,5.24,1.94-.14,3.29-.36,4.05-.67.76-.31,1.26-.66,1.51-1.06.25-.39.36-.8.33-1.22-.03-.42-.06-.72-.08-.89-.02-.17-.09-.41-.2-.71-.11-.3-.26-.53-.45-.69Z"/>
    <path class="cls-2" d="M52.93,21.64c.25-.18.53-.29.87-.31.33-.02.55.15.66.53.15,1.92.39,4.79.7,8.62.16,2.34.24,4.32.22,5.95-.02.25-.15.48-.41.69-.26.21-.53.32-.81.34-.46.03-.71-.19-.75-.67.05-1.67-.01-3.73-.18-6.18l-.74-8.34c.05-.24.2-.45.44-.63Z"/>
    <path class="cls-2" d="M67.41,19.97c.27-.02.51.08.74.28.23.21.36.46.38.76.46,6.48.76,10.39.91,11.74.15,1.35.23,2.04.23,2.07.03.36-.05.71-.23,1.05-.18.34-.39.51-.62.53-.24.02-.42.02-.55,0-.13-.02-.24-.04-.34-.06-.1-.02-.21-.08-.31-.18l-.27-.23c-.07-.06-.17-.18-.29-.37-.12-.18-.22-.33-.29-.44-.08-.11-.19-.31-.35-.59-.16-.28-.51-.85-1.04-1.71-.53-.86-1.02-1.64-1.45-2.32-1.48-2.31-2.83-4.12-4.05-5.44.38,5.38.49,9.13.34,11.24-.02.4-.32.62-.88.66-.26.02-.49-.03-.67-.15-.18-.12-.29-.33-.31-.63-.02-.3-.07-1.94-.16-4.93-.08-2.99-.15-4.86-.2-5.59-.05-.74-.08-1.21-.1-1.4-.08-1.19-.04-1.87.13-2.03.17-.16.36-.25.56-.26.91-.06,2.41,1.33,4.49,4.18.41.55,1.19,1.72,2.34,3.5,1.16,1.77,1.85,2.87,2.08,3.29l-1.02-10.29c-.1-1.43,0-2.25.3-2.47.16-.11.37-.18.63-.19Z"/>
    <path class="cls-2" d="M75.92,19.45c.41-.03.77.13,1.08.47.31.34.73,1.07,1.25,2.18,1.23,2.63,2.55,6.79,3.95,12.49.02.07.04.16.04.28,0,.12-.06.26-.21.42-.15.15-.37.24-.66.26-.29.02-.54-.03-.75-.16-.21-.13-.36-.35-.45-.67-.09-.32-.26-.94-.5-1.87-.55-2.08-.89-3.15-1.03-3.23-.21-.1-.87-.18-2-.23-1.13-.05-1.87-.07-2.24-.04-.37.03-.58.07-.64.15-.28.29-.54,2.33-.79,6.12-.04.32-.35.5-.91.54s-.86-.18-.9-.66c-.08-1.19.2-3.5.84-6.93.64-3.42,1.21-5.71,1.72-6.84.63-1.46,1.36-2.22,2.19-2.28ZM76.01,22.22c-.25.02-.63.78-1.14,2.29-.51,1.51-.75,2.44-.73,2.79,0,.08.03.14.06.17.14.12.67.2,1.59.24.92.04,1.53.04,1.83.02s.46-.05.49-.1c.03-.04.04-.18.02-.4-.02-.22-.3-1.12-.86-2.69-.56-1.57-.98-2.34-1.26-2.32Z"/>
    <path class="cls-2" d="M85.3,34.99c-.25.26-.53.4-.83.42s-.53-.16-.68-.55c-.2-2.18-.38-4.36-.53-6.53l-.51-6.26c-.09-1.26.41-2.16,1.48-2.7.87-.48,1.91-.76,3.14-.84.63-.04,1.32.06,2.06.32s1.42.66,2.03,1.21c.61.55.94,1.17.99,1.85.05.69-.21,1.45-.79,2.28-.57.83-1.3,1.58-2.19,2.25-.89.67-1.76,1.19-2.61,1.55,1.62.97,3.04,2.03,4.27,3.18,1.23,1.15,1.87,2.07,1.92,2.75.02.22-.08.43-.28.63-.2.2-.46.32-.76.34s-.58-.09-.81-.34c-.43-.85-1.18-1.73-2.27-2.63-1.09-.9-2.34-1.74-3.76-2.52l.48,4.76c.02.3-.09.58-.34.84ZM88.66,25.05c1.32-.98,1.96-1.81,1.91-2.52-.05-.7-.44-1.22-1.16-1.55-.72-.33-1.56-.47-2.51-.4-.95.07-1.7.24-2.25.51.04.85.17,2.72.37,5.62,1.11-.13,2.32-.68,3.64-1.65Z"/>
    <path class="cls-2" d="M106.82,17.16c.79-.06,1.6.09,2.42.43.82.34,1.24.76,1.28,1.26.05.76-.23,1.17-.86,1.21-.23.02-.65-.1-1.25-.36-.6-.26-1.1-.37-1.5-.34-1.42.1-2.57.82-3.43,2.16-.86,1.34-1.23,3-1.09,4.97.1,1.47.52,2.74,1.24,3.81.72,1.06,1.53,1.57,2.42,1.5.89-.06,1.56-.4,2.02-1.03.46-.62.67-1.31.62-2.05-.03-.41-.08-.76-.16-1.03-.08-.27-.24-.51-.49-.72-.25-.21-.56-.3-.94-.27-.38.03-.75-.03-1.1-.17-.35-.14-.54-.35-.56-.64s.04-.55.19-.81c.15-.26.36-.43.64-.5,1.13-.08,1.89-.02,2.3.19.4.21.71.37.92.51.21.13.39.37.55.71.16.34.28.62.37.85.09.23.17.6.24,1.11.09.86.18,1.86.26,3.02s.05,1.87-.1,2.14c-.13.23-.38.35-.72.39-.35.03-.59-.02-.74-.16-.14-.14-.25-.47-.32-.98-.37.38-.85.71-1.44.99-.59.28-1.11.44-1.58.47-1.46.1-2.74-.59-3.84-2.07-1.1-1.48-1.73-3.31-1.88-5.5-.08-1.16.03-2.31.33-3.46.3-1.15.75-2.12,1.34-2.93,1.25-1.67,2.87-2.57,4.85-2.71Z"/>
    <path class="cls-2" d="M114.23,32.96c-.25.26-.53.4-.83.42-.31.02-.53-.16-.68-.55-.2-2.18-.38-4.36-.53-6.53l-.51-6.26c-.09-1.26.41-2.16,1.48-2.7.87-.48,1.91-.76,3.14-.84.63-.04,1.32.06,2.06.32.74.26,1.42.66,2.03,1.21.61.55.94,1.17.99,1.85.05.69-.21,1.45-.79,2.28-.58.83-1.3,1.58-2.19,2.25-.89.67-1.76,1.19-2.61,1.55,1.62.97,3.04,2.03,4.27,3.18s1.87,2.07,1.92,2.75c.02.22-.08.43-.28.63-.2.2-.46.32-.76.34-.31.02-.58-.09-.81-.34-.43-.85-1.18-1.73-2.27-2.63-1.09-.9-2.34-1.74-3.76-2.52l.48,4.76c.02.3-.09.58-.34.84ZM117.59,23.02c1.32-.98,1.96-1.81,1.91-2.52-.05-.7-.44-1.22-1.16-1.55s-1.56-.47-2.51-.4c-.95.07-1.7.24-2.25.51.04.85.17,2.72.37,5.62,1.11-.13,2.32-.68,3.64-1.65Z"/>
    <path class="cls-2" d="M128.26,15.78c.41-.03.77.13,1.08.47.31.34.72,1.07,1.25,2.18,1.23,2.63,2.55,6.79,3.95,12.49.02.07.04.16.04.28,0,.12-.06.26-.21.42-.15.15-.37.24-.66.26-.29.02-.54-.03-.75-.16-.21-.13-.36-.35-.45-.67-.09-.32-.26-.94-.5-1.87-.55-2.08-.89-3.15-1.03-3.23-.21-.1-.87-.18-2-.23-1.13-.05-1.87-.07-2.24-.04-.37.03-.58.07-.64.15-.28.29-.54,2.33-.79,6.12-.04.32-.35.5-.91.54-.56.04-.86-.18-.9-.66-.08-1.19.2-3.5.84-6.93.64-3.43,1.22-5.71,1.72-6.84.63-1.46,1.36-2.22,2.19-2.28ZM128.35,18.55c-.25.02-.63.78-1.14,2.29-.51,1.51-.75,2.44-.73,2.79,0,.08.03.14.06.17.14.12.67.2,1.59.24.92.03,1.53.04,1.83.02.3-.02.46-.05.49-.1s.04-.18.02-.4c-.02-.22-.3-1.12-.86-2.69-.56-1.57-.98-2.34-1.26-2.32Z"/>
    <path class="cls-2" d="M135.06,15.55l10.05-.85c.49.12.75.34.77.67.06.83-.25,1.27-.93,1.31-1.24.09-2.56.21-3.94.38.02,1.43.05,2.51.1,3.23s.08,1.18.1,1.38l.71,8.72c.04.51-.08.82-.33.92-.19.08-.44.13-.74.15-.48.03-.77-.22-.85-.76-.19-1.27-.41-3.65-.65-7.13-.25-3.49-.34-5.59-.29-6.31-.35.04-.86.08-1.54.13-.68.05-1.53.1-2.54.15-.27.02-.48-.05-.64-.21-.16-.16-.25-.35-.26-.59-.02-.24.07-.48.26-.73.19-.25.43-.4.73-.45Z"/>
    <path class="cls-2" d="M156.36,14.04c.21-.28.46-.43.74-.45.28-.02.53.1.75.37.38,1.42.64,3.03.76,4.82l.13,1.89c.1,1.42.13,2.27.1,2.53-.03.26-.06.55-.09.87s-.06.56-.09.73c-.03.17-.08.4-.14.69-.14.62-.36,1.19-.66,1.69-.43.96-1.04,1.74-1.81,2.33-.78.59-1.58.91-2.42.97-.84.06-1.72-.25-2.66-.91-.94-.67-1.73-1.53-2.37-2.58-.98-1.63-1.55-3.55-1.7-5.75-.05-.78-.07-2.63-.04-5.57.1-.27.26-.52.48-.75.23-.22.46-.34.71-.36.37-.03.61.21.72.7-.03,2.88-.02,4.71.03,5.47.13,1.82.6,3.41,1.41,4.77.51.9,1.12,1.63,1.82,2.21.7.58,1.36.84,1.99.8,1.04-.07,1.88-.95,2.51-2.62.28-.58.39-1.5.33-2.75-.02-.33-.02-.56,0-.7l-.18-3.28c-.11-1.52-.32-2.91-.64-4.15-.02-.35.07-.66.28-.94Z"/>
    <path class="cls-2" d="M161.76,14.01c.25-.18.54-.29.87-.31.33-.02.55.15.66.53.15,1.92.39,4.79.7,8.62.16,2.34.24,4.32.22,5.95-.02.25-.15.48-.41.69-.26.21-.53.32-.81.34-.46.03-.71-.19-.75-.67.05-1.67-.01-3.73-.18-6.18l-.74-8.34c.05-.24.2-.45.44-.63Z"/>
    <path class="cls-2" d="M166.2,13.37l10.05-.85c.49.12.75.34.77.67.06.83-.25,1.27-.93,1.31-1.24.09-2.56.21-3.94.38.02,1.43.05,2.51.1,3.23.05.72.08,1.18.1,1.38l.71,8.72c.04.51-.07.82-.33.92-.19.08-.44.13-.74.15-.48.03-.76-.22-.85-.76-.19-1.27-.41-3.65-.65-7.13-.25-3.49-.34-5.59-.29-6.31-.35.04-.86.08-1.54.13-.68.05-1.53.1-2.54.15-.26.02-.48-.05-.64-.21s-.25-.35-.26-.59c-.02-.24.07-.48.26-.73.19-.25.43-.4.73-.45Z"/>
    <path class="cls-2" d="M184.31,11.7c1.16-.08,2.17.22,3.04.91,1.69,1.31,2.64,3.51,2.86,6.58.21,3.07-.49,5.55-2.13,7.43-.85.94-1.87,1.5-3.06,1.66-1.58.11-2.84-.34-3.79-1.36-.95-1.01-1.67-2.18-2.13-3.48-.47-1.31-.74-2.58-.83-3.83-.15-2.12.23-3.9,1.15-5.35.96-1.55,2.59-2.4,4.89-2.57ZM184.28,13.78c-2.22.16-3.53,1.31-3.93,3.45-.13.57-.16,1.3-.1,2.18.06.88.3,1.89.71,3.02.56,1.53,1.3,2.57,2.22,3.14.54.36,1.18.52,1.91.47.73-.05,1.36-.42,1.89-1.12.53-.69.87-1.56,1.02-2.58.14-1.03.18-2.05.11-3.08-.13-1.82-.49-3.21-1.08-4.17-.59-.96-1.51-1.39-2.75-1.31Z"/>
  </g>
</svg>